<svg width="120" height="100" viewBox="0 0 120 100" fill="none" xmlns="http://www.w3.org/2000/svg">
<rect width="120" height="100" fill="white"/>
<path d="M93.0469 47.6562H92.1786C90.0031 42.0544 84.6005 38.2812 78.4614 38.2812H75.6827L73.4706 32.9688H74.0625C75.3569 32.9688 76.4062 31.9194 76.4062 30.625C76.4062 29.3306 75.3569 28.2812 74.0625 28.2812H71.5187L69.5669 23.5938H71.0938C72.3881 23.5938 73.4375 22.5444 73.4375 21.25C73.4375 19.9556 72.3881 18.9062 71.0938 18.9062H67.6152L64.5075 11.4428C64.1437 10.5692 63.2902 10 62.3438 10H55.3047C54.0103 10 52.9609 11.0494 52.9609 12.3438V38.2812H37.9925L31.4123 25.4903C31.0106 24.7095 30.2063 24.2188 29.3281 24.2188H22.3438C21.0494 24.2188 20 25.2681 20 26.5625V42.9688C20 43.1955 20.0328 43.4211 20.0977 43.6383C23.2695 54.2792 33.0405 61.5625 44.1441 61.5625H52.8119L52.8047 87.6556C52.8044 88.9498 53.8542 90 55.1484 90H62.1875C63.137 90 63.9927 89.427 64.3545 88.5492L67.6844 80.4688H71.0938C72.3881 80.4688 73.4375 79.4194 73.4375 78.125C73.4375 76.8306 72.3881 75.7812 71.0938 75.7812H69.6159L71.5477 71.0938H74.0625C75.3569 71.0938 76.4062 70.0444 76.4062 68.75C76.4062 67.4556 75.3569 66.4062 74.0625 66.4062H73.4794L75.4755 61.5625H93.0469C96.8809 61.5625 100 58.4434 100 54.6094C100 50.7753 96.8809 47.6562 93.0469 47.6562ZM86.9528 47.6562H79.5411L77.62 42.9688H78.4614C81.9877 42.9688 85.1556 44.7966 86.9528 47.6562ZM57.6484 14.6875H60.7808L70.605 38.2812H57.6484V14.6875ZM60.6184 85.3125H57.493L57.4995 61.5625H70.4056L60.6184 85.3125ZM93.0469 56.875H44.1441C35.2073 56.875 27.3584 51.0848 24.6875 42.6175V28.9062H27.8981L34.4783 41.6972C34.88 42.478 35.6844 42.9688 36.5625 42.9688H72.5542L75.8002 50.8887C76.1608 51.7689 77.0177 52.3438 77.9688 52.3438H93.0469C94.2961 52.3438 95.3125 53.3602 95.3125 54.6094C95.3125 55.8586 94.2961 56.875 93.0469 56.875Z" fill="black"/>
<path d="M71.6734 49.5422C71.3742 47.8422 69.1994 47.0636 67.889 48.1875C66.4489 49.33 66.9251 51.7367 68.6937 52.2422C70.3317 52.7847 72.0522 51.2252 71.6734 49.5422Z" fill="black"/>
<path d="M62.2984 49.5422C62.0152 47.9391 60.0317 47.1167 58.6984 48.0516C56.9733 49.1833 57.5156 51.9105 59.5422 52.2984C61.117 52.6623 62.6627 51.1172 62.2984 49.5422Z" fill="black"/>
<path d="M52.9234 49.5422C52.6524 47.9479 50.642 47.1138 49.3234 48.0516C47.5984 49.1832 48.1406 51.9108 50.1671 52.2985C51.742 52.6622 53.2876 51.1172 52.9234 49.5422Z" fill="black"/>
<path d="M43.5485 49.5422C43.2778 47.9481 41.2668 47.1136 39.9485 48.0516C38.2233 49.1831 38.766 51.9108 40.7922 52.2984C42.3669 52.6622 43.9125 51.1172 43.5485 49.5422Z" fill="black"/>
</svg>
