<svg width="120" height="100" viewBox="0 0 120 100" fill="none" xmlns="http://www.w3.org/2000/svg">
<rect width="120" height="100" fill="white"/>
<g clip-path="url(#clip0_3_14)">
<path d="M96.0234 24.3451C94.4422 22.6576 92.7989 21.0166 91.1092 19.4375C87.001 15.6137 80.7381 15.5982 76.568 19.3447C75.4363 20.3664 75.4208 21.1714 76.5215 22.2706C78.0407 23.8032 79.5754 25.3204 81.1102 26.853C81.2652 27.0078 81.4047 27.1781 81.4667 27.24C80.2265 28.4785 79.0328 29.6706 77.8082 30.8936C73.731 28.076 69.1113 26.2957 64.0886 25.5216C64.0886 24.6082 64.0886 23.7568 64.0886 22.9208C64.0886 22.0539 64.0886 21.1869 64.0886 20.2735C64.6156 20.2735 65.0497 20.2735 65.4838 20.2735C68.2277 20.2271 70.2585 18.2455 70.274 15.6447C70.274 13.0593 68.2277 11.0313 65.4993 11.0158C61.4842 10.9849 57.4691 10.9849 53.454 11.0158C50.7255 11.0313 48.6792 13.0284 48.6637 15.6292C48.6637 18.2145 50.71 20.2116 53.4384 20.258C53.888 20.2735 54.3376 20.258 54.7872 20.258C54.7872 22.0693 54.7872 23.7877 54.7872 25.5216C54.4151 25.5835 54.0896 25.6455 53.764 25.7074C53.4384 25.7693 53.1129 25.8312 52.7873 25.8932C48.7257 26.7601 44.9432 28.3392 41.4706 30.6304C41.2846 30.7542 40.866 30.8626 40.7575 30.7697C39.5948 29.6551 38.4632 28.5095 37.3005 27.3329C39.0523 25.5835 40.7575 23.9116 42.4473 22.2087C43.4859 21.156 43.4549 20.3355 42.3543 19.3447C38.4632 15.9079 32.7118 15.5054 28.6967 18.7409C26.3248 20.6451 24.2165 22.9053 22.1702 25.181C20.3409 27.1936 19.9224 29.7325 20.0154 32.4417C20.1084 35.1509 21.1936 37.3492 22.9918 39.2533C23.6584 39.9655 24.5266 39.9655 25.2707 39.3308C25.7202 38.9437 26.1078 38.5103 26.5419 38.0923C27.9216 36.7144 29.3013 35.3366 30.6345 34.0053C31.7972 35.1663 32.9133 36.2965 33.9365 37.3027C24.0305 52.0717 24.6351 66.2988 35.9363 80.1699C34.2155 82.4611 32.4328 84.8142 30.681 87.1983C30.3864 87.6008 30.1384 88.1891 30.1849 88.6535C30.2314 89.0715 30.6655 89.6443 31.0531 89.7681C31.7042 89.9694 32.4483 89.9694 32.9908 89.2418C34.5876 87.059 36.2308 84.9226 37.8431 82.7552C37.9981 82.554 38.1531 82.3682 38.1996 82.3217C52.4463 92.5702 66.5224 92.5547 80.7071 82.3063C82.1178 84.195 83.606 86.161 85.0943 88.1272C85.4198 88.5606 85.7299 89.0096 86.0864 89.3966C86.5515 89.9075 87.6987 90.0158 88.2102 89.6133C88.8148 89.1489 88.9388 88.3439 88.5358 87.6008C88.4273 87.3995 88.2877 87.2138 88.1482 87.028C86.8925 85.356 85.6523 83.6996 84.3967 82.0276C83.8851 81.3619 83.389 80.6807 82.8774 79.9841C88.4273 74.0394 91.5122 67.0574 91.8533 59.0072C92.1943 50.9571 89.776 43.7119 84.8307 37.4111C85.9779 36.2655 87.0786 35.1663 88.2567 33.9898C88.4118 34.1446 88.6133 34.3149 88.7838 34.4852C90.3186 36.0178 91.8378 37.5504 93.3725 39.0676C94.3802 40.0584 95.2328 40.0274 96.1939 38.9592C99.9765 34.7019 99.9455 28.525 96.0234 24.3451ZM53.3299 17.1618C52.3843 17.1618 51.7177 16.4652 51.7177 15.6292C51.7177 14.7623 52.3998 14.1121 53.4074 14.0966C55.4383 14.0811 57.4691 14.0966 59.4999 14.0966C61.4532 14.0966 63.4065 14.0811 65.3753 14.0966C66.662 14.1121 67.4371 15.0874 67.034 16.1556C66.7705 16.8367 66.2279 17.1618 65.5303 17.1618C61.4687 17.1773 57.4071 17.1928 53.3299 17.1618ZM60.9261 20.3045C60.9261 21.9145 60.9261 23.5246 60.9261 25.1965C59.9494 25.1965 58.9728 25.1965 57.9341 25.1965C57.9341 23.54 57.9341 21.9455 57.9341 20.3045C58.9263 20.3045 59.9029 20.3045 60.9261 20.3045ZM24.2475 35.863C22.4337 33.1848 22.5268 29.3919 24.6351 27.0388C26.4644 25.0107 28.3866 23.0756 30.4175 21.2643C32.7738 19.1744 36.8354 19.1279 39.1918 20.9237C34.231 25.8932 29.2548 30.8626 24.2475 35.863ZM33.1149 31.6521C33.704 31.0484 34.4016 30.3517 35.0682 29.686C36.1223 30.7387 37.2075 31.8224 38.3547 32.968C37.7036 33.5873 36.975 34.253 36.3239 34.8722C35.2232 33.773 34.1535 32.7048 33.1149 31.6521ZM88.7838 57.5675C88.8148 73.6678 75.6843 86.8113 59.4844 86.8887C43.3619 86.9661 30.0764 73.7297 30.0919 57.583C30.1074 41.4517 43.2844 28.3082 59.4379 28.2927C75.5758 28.2773 88.7528 41.4207 88.7838 57.5675ZM82.5674 34.8877C81.9473 34.2994 81.2187 33.6337 80.5366 32.999C81.6527 31.8843 82.7534 30.8162 83.8696 29.7015C84.5052 30.3362 85.1873 31.0174 85.8074 31.6367C84.7532 32.6894 83.699 33.7576 82.5674 34.8877ZM94.6437 35.8165C89.683 30.8626 84.7067 25.8932 79.7149 20.8928C82.4589 18.9576 86.2879 19.2518 89.0784 21.7907C90.8921 23.4472 92.6284 25.212 94.2561 27.0697C96.3335 29.4074 96.4265 33.3551 94.6437 35.8165Z" fill="black"/>
<path d="M71.4368 34.299C66.3831 31.6982 61.0347 30.8467 55.4074 31.6827C52.958 32.0388 50.5862 32.7509 48.3538 33.8346C47.4547 34.2681 47.1291 35.0576 47.4392 35.8626C47.7492 36.6367 48.5864 36.9773 49.501 36.6676C50.0901 36.4664 50.6482 36.2032 51.2218 35.9865C56.322 34.0823 61.4843 33.943 66.6466 35.6459C72.336 37.5191 76.6766 41.1107 79.6221 46.3278C82.4745 51.3902 83.2806 56.824 82.0559 62.4901C80.7847 68.3265 77.6688 73.0327 72.77 76.4695C67.1892 80.3862 61.0037 81.5938 54.3532 80.1231C48.6174 78.8536 43.9977 75.7729 40.6181 70.9892C36.51 65.1838 35.3473 58.7746 37.0216 51.8546C37.6882 49.0835 38.9439 46.5601 40.5561 44.2069C41.1607 43.3245 40.9902 42.3956 40.2151 41.9002C39.471 41.4358 38.5873 41.6525 38.0138 42.4885C33.7196 48.681 32.2934 55.4926 33.7661 62.8616C34.8823 68.4658 37.6107 73.2649 41.9358 77.0268C49.346 83.4825 57.8723 85.3866 67.2667 82.5691C78.2734 79.2716 85.6835 69.0386 85.73 58.5579C85.6835 53.3098 84.7379 49.2228 82.6915 45.4145C80.0716 40.5534 76.3356 36.8224 71.4368 34.299Z" fill="black"/>
<path d="M54.8803 58.3102C55.2214 60.3072 56.7096 61.7934 58.7094 62.134C60.8487 62.4901 62.554 61.5148 63.8562 59.1307C64.9104 59.1307 65.9955 59.1307 67.0652 59.1307C68.6154 59.1307 70.1502 59.1461 71.7004 59.1307C72.367 59.1307 72.9871 58.8675 73.1576 58.2018C73.2816 57.7374 73.2506 57.0407 72.9716 56.7156C72.6305 56.3286 71.9639 56.0809 71.4369 56.0654C69.096 56.0035 66.7551 56.019 64.4143 56.0499C63.9647 56.0499 63.7787 55.8796 63.5307 55.5236C63.0501 54.8424 62.5385 54.0838 61.8409 53.6968C61.0658 53.2788 60.9108 52.8144 60.9883 52.0713C61.0193 51.8391 60.9883 51.6069 60.9883 51.3746C60.9883 49.3776 61.0038 47.365 60.9728 45.368C60.9573 44.3772 60.2752 43.696 59.407 43.7115C58.5699 43.727 57.9498 44.3927 57.8878 45.337C57.8723 45.6002 57.8878 45.8479 57.8878 46.1111C57.8878 48.4797 57.8878 50.8328 57.8878 53.1704C55.5159 54.4709 54.5083 56.2047 54.8803 58.3102ZM59.4535 56.0654C60.2597 56.0809 60.9883 56.8085 60.9728 57.6135C60.9573 58.4185 60.2287 59.1307 59.4225 59.1307C58.6164 59.1307 57.8878 58.3876 57.9033 57.5826C57.9188 56.7621 58.6474 56.0499 59.4535 56.0654Z" fill="black"/>
<path d="M43.9666 40.6153C44.7727 40.6307 45.5169 39.9186 45.5324 39.1136C45.5479 38.3086 44.8348 37.581 44.0286 37.5655C43.2225 37.55 42.4784 38.2621 42.4629 39.0672C42.4474 39.8567 43.1605 40.5998 43.9666 40.6153Z" fill="black"/>
<path d="M39.3624 57.629C39.3934 58.4495 40.1221 59.1462 40.9282 59.1152C41.7498 59.0843 42.4474 58.3566 42.4164 57.5516C42.3854 56.7311 41.6568 56.0345 40.8507 56.0654C40.0445 56.0809 39.3469 56.824 39.3624 57.629Z" fill="black"/>
<path d="M57.9033 76.0979C57.9033 76.903 58.6319 77.6306 59.4381 77.6151C60.2442 77.6151 60.9728 76.872 60.9573 76.0825C60.9573 75.2774 60.2287 74.5653 59.4226 74.5653C58.6164 74.5653 57.9033 75.2929 57.9033 76.0979Z" fill="black"/>
<path d="M59.4536 40.6153C60.2597 40.5998 60.9883 39.8722 60.9728 39.0672C60.9573 38.2622 60.2442 37.55 59.4226 37.55C58.6164 37.55 57.8878 38.2777 57.9033 39.0827C57.9188 39.9032 58.6474 40.6153 59.4536 40.6153Z" fill="black"/>
<path d="M79.5136 57.5981C79.5136 56.793 78.8004 56.0654 77.9943 56.0654C77.1882 56.0654 76.4596 56.7776 76.4596 57.5826C76.4596 58.3876 77.1727 59.1152 77.9788 59.1152C78.7694 59.1307 79.4981 58.4031 79.5136 57.5981Z" fill="black"/>
</g>
<defs>
<clipPath id="clip0_3_14">
<rect width="79" height="79" fill="white" transform="translate(20 11)"/>
</clipPath>
</defs>
</svg>
