<svg width="120" height="100" viewBox="0 0 120 100" fill="none" xmlns="http://www.w3.org/2000/svg">
<rect width="120" height="100" fill="white"/>
<g clip-path="url(#clip0_11_110)">
<path d="M18.2956 64.9623C17.6018 63.4159 17.4489 61.8796 18.4731 60.4187C18.7957 59.9715 19.2263 59.5682 19.6425 59.2009C31.9847 48.3086 44.3399 37.4048 56.6821 26.5125C56.9422 26.2829 57.2023 26.0534 57.5404 25.755C56.7228 24.8285 55.9628 23.9673 55.2027 23.1061C54.1433 21.9056 54.179 21.317 55.3885 20.2496C59.2266 16.8391 63.0893 13.4303 66.9389 10.0329C68.0964 9.01136 68.7094 9.05063 69.7343 10.212C74.8358 15.9925 79.9127 21.7714 85.0402 27.529C85.4202 27.9596 86.0009 28.3292 86.556 28.5125C90.7556 29.8895 94.9263 31.3386 99.1754 32.5095C101.608 33.1947 102.565 34.8564 103.05 37.005C103.572 39.3528 102.887 41.5126 101.827 43.5622C100.515 46.1126 98.7094 48.2868 96.6917 50.2996C94.0842 52.9025 91.2925 55.2966 88.1253 57.1866C85.813 58.5773 83.383 59.6773 80.6403 59.8463C78.4285 59.9878 76.449 59.3439 74.871 57.7655C74.4304 57.3187 74.0392 56.6658 73.9164 56.0547C73.012 51.491 72.1581 46.9059 71.3533 42.3239C71.1962 41.4644 70.9076 40.7442 70.2813 40.1131C69.7126 39.5473 69.1973 38.9111 68.5755 38.2065C68.2764 38.4705 68.0293 38.6885 67.7692 38.9181C55.479 49.7645 43.2018 60.5994 30.9117 71.4459C28.6227 73.4659 27.5058 73.616 24.7689 72.2711C22.6025 69.8425 20.449 67.4024 18.2956 64.9623ZM59.3454 27.8527C59.0723 28.0937 58.8382 28.3003 58.6041 28.5069C46.2359 39.4222 33.8807 50.326 21.5125 61.2412C21.3304 61.4019 21.1484 61.5626 20.9778 61.7363C20.4141 62.3035 20.3754 62.9411 20.804 63.5842C21.0629 63.9824 21.4244 64.3133 21.7929 64.7309C23.1975 63.4913 24.5501 62.2976 25.8896 61.1154C26.5115 61.82 27.0873 62.4724 27.7091 63.1771C26.3305 64.3937 24.991 65.5759 23.6644 66.7466C23.7175 66.8854 23.7261 66.9475 23.7491 66.9736C24.4861 67.8088 25.2101 68.6553 25.9471 69.4905C26.972 70.6518 27.585 70.6911 28.7425 69.6695C41.1627 58.7084 53.596 47.7357 66.0162 36.7745C66.2373 36.5794 66.4454 36.3957 66.6535 36.2121C65.9971 35.4683 65.4213 34.8159 64.7994 34.1113C63.4208 35.3279 62.0813 36.5101 60.7417 37.6923C60.1199 36.9877 59.5326 36.3222 58.8992 35.6045C60.2908 34.3764 61.6303 33.1942 62.9829 32.0005C61.7637 30.5929 60.5776 29.2489 59.3454 27.8527ZM82.8152 29.307C77.898 23.7352 73.0498 18.2418 68.1902 12.7352C65.251 15.3292 62.3637 17.8772 59.3465 20.5401C60.8423 20.6359 62.1679 20.6962 63.4921 20.781C64.8407 20.8674 66.2054 20.8933 67.5351 21.0893C68.011 21.1567 68.5627 21.5983 68.7956 22.0195C68.9609 22.3378 68.7936 23.0658 68.532 23.3199C68.1808 23.6298 67.5559 23.7867 67.077 23.7683C64.6954 23.665 62.3183 23.4881 59.9398 23.3357C59.7191 23.3216 59.5084 23.345 59.1391 23.346C59.6228 23.894 60.0418 24.2902 60.3583 24.7537C60.7899 25.3476 61.3305 25.5669 62.0661 25.614C65.2324 25.7676 68.3941 25.9948 71.5443 26.2089C71.8631 26.2293 72.2064 26.2513 72.5092 26.3323C73.1133 26.5187 73.4573 26.9347 73.4921 27.5771C73.5269 28.2195 73.1914 28.6781 72.6125 28.8873C72.2978 29.0025 71.917 28.9904 71.5737 28.9684C69.2557 28.8322 66.9261 28.683 64.5966 28.5338C64.3514 28.5181 64.1047 28.5269 63.7729 28.5179C66.744 31.8845 69.5999 35.1205 72.4788 38.3827C75.9483 35.3672 79.3557 32.36 82.8152 29.307ZM75.9552 52.0735C77.9174 51.1774 78.1426 51.1179 79.8695 51.0562C81.8791 51.0003 83.0396 49.9297 83.4055 47.9588C83.5862 47.0101 83.8174 46.0401 84.2864 45.2084C85.5269 43.0226 87.5467 42.1918 89.9963 42.1887C91.7072 42.1875 93.1114 41.1572 93.3193 39.5578C93.5886 37.556 94.2368 35.8002 95.9041 34.4912C95.7499 34.3952 95.6908 34.3545 95.6188 34.3252C92.2985 33.2631 88.9667 32.1879 85.6319 31.1617C85.3782 31.0839 84.9394 31.2158 84.7183 31.4109C81.2488 34.4264 77.8024 37.468 74.3789 40.5357C74.1318 40.7538 73.9794 41.2364 74.0221 41.547C74.1828 42.7514 74.4301 43.9491 74.6528 45.1452C75.0798 47.4377 75.5067 49.7303 75.9552 52.0735ZM92.6378 50.3723C93.3446 49.6789 94.3085 48.805 95.1903 47.8643C96.9003 46.0534 98.5053 44.1495 99.5786 41.8792C100.313 40.3259 100.693 38.7375 100.207 37.0075C100.005 36.2805 99.6519 36.0117 98.8668 36.1707C97.4208 36.472 96.458 37.5306 96.1936 39.2495C95.6138 42.9179 93.4274 44.8707 89.8034 44.9586C87.6466 45.0051 86.4646 46.025 86.1604 48.1969C85.9395 49.8077 85.3251 51.2088 84.0896 52.2991C82.776 53.4584 81.2259 53.8515 79.528 53.8412C78.4331 53.8326 77.5105 54.229 76.8654 55.1233C76.7569 55.2887 76.7891 55.7709 76.9303 55.8784C77.4489 56.2564 77.992 56.6359 78.6076 56.8353C80.3449 57.4145 82.0436 57.0062 83.6591 56.3464C86.9523 55.0186 89.706 52.8436 92.6378 50.3723Z" fill="black"/>
</g>
<defs>
<clipPath id="clip0_11_110">
<rect width="50" height="83" fill="white" transform="translate(74.5732 3.29535) rotate(48.5707)"/>
</clipPath>
</defs>
</svg>
