<svg width="120" height="100" viewBox="0 0 120 100" fill="none" xmlns="http://www.w3.org/2000/svg">
<rect width="120" height="100" fill="white"/>
<path d="M58.4016 85.995C57.5716 85.8097 56.7287 85.6708 55.9155 85.4318C53.1496 84.6167 50.8821 83.0513 49.1147 80.7726C48.9461 80.5559 48.7813 80.3206 48.6794 80.0686C46.6786 75.0964 43.5645 70.8373 40.1909 66.7376C36.8878 62.7231 33.5458 58.7383 30.3539 54.6367C28.0067 51.6208 26.1838 48.2676 24.7721 44.7015C23.9848 42.7137 23.9366 40.6295 24.0403 38.5584C24.3923 31.5465 27.1471 25.6257 32.4639 21.0165C37.6733 16.5 43.7831 14.5066 50.6653 15.1031C60.9025 15.9905 69.3187 22.9765 72.1216 32.8655C72.4718 34.103 72.6681 35.3905 72.8701 36.6651C73.0201 37.6191 72.4236 38.4157 71.5603 38.5621C70.5914 38.727 69.7652 38.1749 69.6225 37.1449C69.2039 34.1363 68.3461 31.2778 66.7418 28.6842C62.9978 22.6319 57.5883 19.1213 50.493 18.4415C39.0275 17.341 28.8607 25.559 27.525 36.9763C27.3194 38.7251 27.375 40.5406 27.5936 42.2894C27.7381 43.4417 28.3235 44.5607 28.8255 45.6426C30.8263 49.9535 33.6514 53.7216 36.6489 57.3711C39.8019 61.2096 43.0068 65.0092 46.0784 68.9125C48.3255 71.7692 50.0892 74.9389 51.5527 78.2809C52.1974 79.7537 53.5016 80.68 54.8817 81.4062C58.2515 83.1846 61.6565 83.1587 64.9133 81.1783C68.1979 79.1794 69.7578 76.1357 69.7355 72.3009C69.7318 71.6154 69.5762 70.9263 69.4688 70.2445C69.3039 69.1941 69.7763 68.4086 70.7248 68.1882C71.6381 67.9751 72.4421 68.5291 72.7107 69.5554C74.5744 76.6729 69.6911 84.3184 62.3846 85.7226C61.9344 85.8097 61.4879 85.9061 61.0396 85.9968C60.1597 85.995 59.2816 85.995 58.4016 85.995Z" fill="black"/>
<path d="M63.7833 60.9983C62.0567 59.4792 60.9452 57.684 60.4209 55.5277C58.7795 48.7881 64.5947 42.2652 71.451 43.1618C72.494 43.2989 73.1646 44.0307 73.0942 44.9551C73.0201 45.9259 72.2606 46.5576 71.1509 46.4668C69.1946 46.3075 67.431 46.7465 65.9156 48.0174C62.3939 50.9722 62.7588 56.4706 66.6325 58.9456C68.1071 59.8886 68.2572 60.7334 67.1975 62.1209C62.5198 68.2399 53.5942 68.6382 48.2403 62.9657C42.7086 57.1042 42.3455 46.98 47.453 40.772C47.805 40.3441 48.1903 39.9421 48.5886 39.5568C49.3759 38.7972 50.3708 38.7657 51.0525 39.4567C51.7268 40.1403 51.699 41.1592 50.9173 41.9225C48.9591 43.8306 47.7716 46.15 47.3826 48.827C46.7194 53.3861 47.6753 57.5451 50.9469 60.9297C54.2574 64.3551 59.502 64.5718 63.1534 61.5614C63.3442 61.404 63.5258 61.2298 63.7833 60.9983Z" fill="black"/>
<path d="M35.491 39.7977C35.517 40.1886 35.5484 40.5814 35.567 40.9722C35.6151 41.9726 35.0242 42.7174 34.0942 42.8322C33.2087 42.9415 32.3954 42.3061 32.2861 41.3131C31.8193 37.0615 32.8604 33.1896 35.4021 29.7624C39.3647 24.4159 46.1506 22.0095 52.5031 23.6323C59.0018 25.2922 63.7777 30.5868 64.7522 37.2078C64.8615 37.9489 64.8337 38.6491 64.1742 39.1549C63.6555 39.5532 63.083 39.6403 62.4791 39.3679C61.7918 39.0585 61.5621 38.4639 61.4509 37.7599C60.6877 32.9081 58.0867 29.3993 53.5701 27.4745C44.8668 23.7657 35.3613 30.283 35.491 39.7977Z" fill="black"/>
</svg>
