<svg width="120" height="100" viewBox="0 0 120 100" fill="none" xmlns="http://www.w3.org/2000/svg">
<rect width="120" height="100" fill="white"/>
<path d="M26 65.1411C26.424 64.3836 27.068 64.1387 27.9267 64.1636C29.5625 64.2132 31.2019 64.1724 32.8394 64.1795C33.8596 64.1848 34.4965 64.7348 34.4965 65.5829C34.4965 66.4292 33.8436 66.9951 32.8412 66.9987C31.1593 67.004 29.4774 66.9738 27.7955 67.0111C26.9385 67.0306 26.346 66.7201 26 65.9377C26 65.6734 26 65.4072 26 65.1411Z" fill="black"/>
<path d="M41.139 84.0004C40.3832 83.5781 40.1366 82.9359 40.1632 82.0808C40.2111 80.4503 40.1721 78.8163 40.1792 77.1841C40.1827 76.1373 40.7522 75.4826 41.6162 75.5039C42.4572 75.5252 42.9948 76.171 42.9965 77.1841C43.0019 78.8394 42.9681 80.4929 43.0089 82.1464C43.0302 83.0193 42.7446 83.642 41.9356 83.9986C41.6712 84.0004 41.4051 84.0004 41.139 84.0004Z" fill="black"/>
<path d="M82.1949 75.5394C71.4257 75.417 62.3331 73.8504 53.4605 70.9674C52.0554 70.5115 50.6289 70.295 49.1528 70.3571C47.3645 70.4334 45.6169 70.2471 43.9865 69.431C41.641 68.2565 40.3831 66.3085 40.243 63.7377C40.1702 62.4106 40.4452 61.064 40.573 59.7263C40.7983 57.3525 41.2241 54.9786 41.2259 52.6048C41.2276 40.6558 42.89 28.9357 45.7996 17.3717C46.103 16.1652 47.1125 15.6596 48.0156 16.2415C48.5922 16.6123 48.7572 17.1978 48.5514 18.0671C48.0546 20.1518 47.5206 22.2293 47.0806 24.3246C45.9114 29.8902 45.0243 35.5054 44.6003 41.1774C44.3094 45.0788 44.1745 48.9962 44.0982 52.9082C44.0397 55.9101 43.6511 58.8552 43.087 61.7914C42.9805 62.3485 42.9841 62.9411 43.0337 63.5106C43.2111 65.5154 44.3324 66.8017 46.3035 67.2665C46.9032 67.4084 47.5312 67.5486 48.1362 67.5149C50.8347 67.3641 53.3807 67.9655 55.9443 68.7515C64.0008 71.2211 72.2507 72.5819 80.6886 72.6582C84.4339 72.6919 88.1596 72.4134 91.8446 71.6948C92.0184 71.6611 92.1941 71.6381 92.3697 71.6239C93.2089 71.5547 93.8352 72.0053 93.9736 72.7717C94.1048 73.5045 93.6365 74.2248 92.8363 74.3898C91.7541 74.6116 90.6647 74.8351 89.5683 74.938C86.6392 75.2094 83.7065 75.4188 82.1949 75.5394Z" fill="black"/>
<path d="M64.4639 48.141C66.2931 47.5821 68.0602 46.9346 69.8787 46.507C77.4863 44.7151 85.0496 44.857 92.533 47.222C93.7359 47.6017 94.2096 48.2883 93.9151 49.1594C93.6135 50.0535 92.8701 50.2753 91.6601 49.9152C82.3741 47.1528 73.2549 47.4296 64.3415 51.4321C63.8785 51.6397 63.6159 51.9182 63.4899 52.4203C63.3019 53.169 63.0428 53.8999 62.7785 54.6256C62.4662 55.4789 61.7158 55.8515 60.9404 55.5747C60.1758 55.3033 59.8192 54.5351 60.1279 53.6764C62.5195 46.986 62.4822 40.1448 61.3893 33.2433C60.5856 28.1621 59.1805 23.2388 57.4365 18.406C57.3832 18.2605 57.3247 18.1168 57.2786 17.9695C57.0124 17.1002 57.3531 16.3586 58.1408 16.0854C58.8842 15.8281 59.6364 16.1847 59.9345 17.0133C60.4934 18.5728 61.0416 20.1358 61.5366 21.7166C63.1298 26.7925 64.2865 31.9606 64.7389 37.2707C65.0246 40.6292 65.0228 43.9895 64.5544 47.3373C64.5118 47.6158 64.4906 47.8979 64.4639 48.141Z" fill="black"/>
<path d="M30.4088 78.316C29.6388 78.3054 29.213 78.0162 28.9717 77.4946C28.7287 76.9695 28.7712 76.4195 29.1828 76.0132C30.2349 74.9735 31.3065 73.9498 32.4136 72.9687C32.9565 72.4879 33.7939 72.6015 34.2765 73.1142C34.7608 73.6287 34.8282 74.4643 34.3137 74.9824C33.2705 76.0309 32.1829 77.0369 31.0847 78.0286C30.8754 78.2185 30.5365 78.2646 30.4088 78.316Z" fill="black"/>
</svg>
