<svg width="120" height="100" viewBox="0 0 120 100" fill="none" xmlns="http://www.w3.org/2000/svg">
<rect width="120" height="100" fill="white"/>
<path d="M9 58.2766C10.1025 57.5194 11.1333 56.6109 12.3262 56.0503C13.5695 55.4632 13.9335 54.5971 14.1912 53.3378C15.2379 48.1864 16.3564 43.0457 17.5891 37.9342C18.0859 35.8726 19.0317 33.9598 20.7054 32.496C20.995 32.2436 21.0508 31.6697 21.1199 31.2287C21.8584 26.5078 24.6241 23.4446 29.3344 22.6237C31.6936 22.2119 34.1404 22.2225 36.55 22.2039C38.0298 22.1933 39.5096 22.5094 40.9947 22.6343C41.3241 22.6608 41.7439 22.5971 41.9989 22.4085C46.3346 19.2018 51.2575 17.6025 56.5709 17.1748C62.15 16.7231 67.7317 16.2237 73.3214 16.043C78.6322 15.873 84.012 16.1227 88.9269 18.3543C96.371 21.7337 102.022 27.0205 104.904 34.8923C104.984 35.1102 105.035 35.3546 105.175 35.5273C108.053 39.0926 109.038 43.3858 109.803 47.7375C110.645 52.5142 110.85 57.3494 110.813 62.1952C110.805 63.3881 110.154 64.1293 109.152 64.1373C108.151 64.1426 107.46 63.404 107.465 62.2165C107.492 57.4052 107.279 52.6125 106.445 47.8623C106.315 47.1158 106.15 46.3719 105.858 45.6148C105.765 46.0797 105.72 46.5605 105.571 47.0069C104.644 49.8283 103.9 52.7347 102.713 55.4419C99.6547 62.4051 97.6701 69.5968 97.6064 77.2295C97.5851 79.6684 97.9145 82.1125 98.1749 84.5461C98.3237 85.9302 97.779 86.7644 96.3869 86.7698C91.6155 86.7937 86.8414 86.7963 82.07 86.7724C80.4494 86.7644 79.6736 85.5716 80.4627 84.1476C81.3712 82.5057 82.511 80.9941 83.4966 79.3921C83.7888 78.9192 84.0651 78.3427 84.0731 77.8113C84.1262 74.4984 84.0784 71.1829 84.1156 67.87C84.1236 67.0809 83.8021 66.5443 83.3771 65.9173C82.4074 64.488 81.3845 64.1665 79.6045 64.573C74.6418 65.6994 69.6632 65.2053 64.7509 63.9779C64.4348 63.8982 64.116 63.8238 63.6803 63.7202C62.9178 66.446 61.3264 68.829 61.4832 71.8683C61.701 76.1004 61.5416 80.3485 61.5363 84.5912C61.5336 86.2703 61.0262 86.783 59.3392 86.7857C55.2293 86.7937 51.1194 86.7937 47.0121 86.7857C45.4021 86.783 44.7619 86.1534 44.7991 84.5594C44.8522 82.256 46.1221 80.5584 47.7746 79.1609C48.5556 78.5021 48.7522 77.9017 48.63 76.9001C47.764 69.7323 46.9723 62.5566 46.1566 55.3835C46.1487 55.3224 46.1088 55.2639 46.0504 55.1178C45.5323 55.2028 44.993 55.2931 44.4537 55.3781C41.8289 55.7846 39.9665 54.8999 38.609 52.6099C38.1095 51.7677 36.651 51.5392 36.0585 52.2937C33.88 55.054 30.8567 56.5072 27.6235 57.4158C25.7957 57.9312 25.0438 58.8133 24.7357 60.6145C24.0874 64.4109 23.4286 68.1914 23.7155 72.0596C23.8616 74.0255 24.2123 75.9623 25.3919 77.5961C25.8833 78.2789 26.6113 78.7917 27.233 79.3841C27.3419 79.323 27.4481 79.2619 27.5571 79.2008C27.6421 78.7624 27.7723 78.3241 27.7988 77.8831C27.8573 76.9187 28.3567 76.3794 29.2653 76.1243C30.158 75.8746 31.032 75.5664 31.9194 75.2981C33.3088 74.8783 34.0129 75.2264 34.5681 76.5893C36.6217 81.629 32.363 87.604 26.962 86.9531C20.7772 86.2092 16.6301 82.6598 14.587 76.7673C13.078 72.4103 12.8735 67.8832 13.0701 63.3217C13.1019 62.5592 13.1524 61.7994 13.187 61.0396C13.1923 60.9466 13.1604 60.8483 13.1391 60.6969C11.747 60.3568 10.0388 60.9838 9.00266 59.4668C9 59.0736 9 58.6751 9 58.2766ZM58.2101 83.4223C58.2101 82.9574 58.2101 82.5987 58.2101 82.2401C58.2101 78.4941 58.2473 74.7508 58.1915 71.0049C58.1676 69.3869 58.3589 67.8726 59.0842 66.3928C59.6766 65.1814 60.1176 63.8822 60.5214 62.5911C61.6877 58.8664 62.8089 55.1284 63.938 51.3931C64.2833 50.2481 64.8572 49.6981 65.7365 49.73C66.9347 49.7752 67.5776 50.8246 67.1871 52.2114C66.4804 54.7272 65.7339 57.2325 65.0113 59.7431C64.9422 59.9822 64.9103 60.2319 64.8492 60.5295C69.7535 61.8339 74.5993 62.2484 79.6099 61.1937C79.0333 60.2346 78.4834 59.3738 77.9893 58.4812C77.6173 57.8117 77.6014 57.0253 78.2231 56.5816C78.6933 56.2442 79.4212 56.1167 80.0163 56.1619C80.367 56.1884 80.7283 56.6985 80.9993 57.0545C82.96 59.6342 84.9206 62.2138 86.8281 64.8333C87.1522 65.2797 87.3887 65.904 87.3966 66.4513C87.4418 70.6595 87.4577 74.8704 87.386 79.0759C87.3754 79.7215 86.9663 80.4202 86.581 80.9834C86.0364 81.7831 85.343 82.4818 84.5832 83.3745C88.0608 83.3745 91.2701 83.3745 94.498 83.3745C94.498 83.0876 94.5166 82.891 94.4954 82.697C93.7409 75.8454 94.4821 69.1186 96.5543 62.5831C97.6993 58.9673 99.2588 55.4818 100.646 51.9404C102.351 47.5807 103.393 43.0776 102.341 38.4363C100.337 29.5842 94.3917 24.122 86.2516 20.9366C82.0779 19.3028 77.5456 19.1779 73.1036 19.3639C67.5484 19.5977 61.9959 20.0599 56.4567 20.5488C51.5763 20.9792 47.1024 22.5625 43.2316 25.6895C42.8119 26.0269 42.052 26.1544 41.4941 26.0721C38.0404 25.5673 34.5947 25.2432 31.1011 25.655C27.3206 26.1013 25.4078 27.6289 24.6028 31.0215C24.4275 31.7574 24.3584 32.5252 24.3106 33.2823C24.2548 34.1617 23.9121 34.7701 23.0646 35.1314C22.6953 35.2882 22.3154 35.5963 22.1188 35.939C21.6592 36.7387 21.1863 37.5623 20.9392 38.439C20.2166 41.016 19.5631 43.6169 18.9573 46.2258C18.4579 48.3751 18.0673 50.5483 17.629 52.7082C17.706 52.7639 17.7831 52.8171 17.8601 52.8729C19.672 51.6747 21.4918 50.4818 23.2984 49.2704C24.377 48.5478 25.0146 48.5796 25.9471 49.4617C27.1533 50.6014 27.9875 51.9616 28.4258 53.9116C30.0278 52.8091 31.7653 52.0413 32.8652 50.7342C33.9783 49.4138 35.033 48.5238 36.7599 48.5265C36.8051 48.5265 36.8502 48.4441 36.9007 48.399C36.8874 48.3007 36.8848 48.1997 36.8608 48.1041C35.6414 43.4044 35.118 38.6037 34.7355 33.7791C34.6372 32.5544 35.2535 31.7096 36.279 31.6378C37.2965 31.5661 37.9395 32.302 38.0723 33.5613C38.3805 36.4916 38.5664 39.4486 39.1084 42.3364C39.6238 45.0834 40.4022 47.7986 41.3029 50.45C41.8687 52.1184 42.7375 52.4505 44.4537 51.9643C49.2092 50.6226 52.5593 47.6498 54.4854 43.0803C54.674 42.6339 54.8733 42.1424 55.208 41.8157C55.7633 41.271 56.4806 41.2525 57.1262 41.6908C57.8329 42.169 58.056 42.8412 57.7903 43.686C56.7702 46.9219 54.7883 49.4803 52.2166 51.6189C51.2921 52.3867 49.8946 52.9313 49.5014 53.8984C49.095 54.8973 49.6422 56.2867 49.7804 57.5035C50.5349 64.1506 51.2495 70.803 52.0811 77.4394C52.283 79.052 52.1103 80.2369 50.6066 81.1508C49.7937 81.645 49.2039 82.5057 48.5131 83.1991C48.5849 83.2709 48.6566 83.3426 48.731 83.4143C51.8234 83.4223 54.9291 83.4223 58.2101 83.4223ZM21.5556 59.3871C20.5753 59.605 19.7384 59.7909 18.8989 59.9742C18.163 60.1363 17.1667 60.0646 16.7655 60.5189C16.3591 60.9785 16.5078 61.9561 16.468 62.7106C16.2209 67.3307 16.2926 71.9294 17.9743 76.3262C19.5498 80.4494 22.6315 82.8538 26.9221 83.6189C29.632 84.1024 31.9566 81.7034 31.5581 78.6934C31.2579 79.1344 31.0188 79.3655 30.9231 79.6471C29.9162 82.5828 27.5093 83.4409 24.8977 81.7592C23.0912 80.5956 22.0072 78.8767 21.3298 76.8868C19.9988 72.9894 20.1528 68.9937 20.6523 64.9954C20.8781 63.1649 21.2341 61.3531 21.5556 59.3871ZM18.1895 56.5285C18.2161 56.6268 18.2427 56.7277 18.2692 56.826C20.1342 56.215 22.0258 55.6677 23.8589 54.9717C25.1926 54.4669 25.2511 53.909 24.2787 52.7453C22.2543 54.0046 20.2219 55.2666 18.1895 56.5285Z" fill="black"/>
<path d="M58.335 38.2264C58.1331 39.1828 57.5751 39.8629 56.7595 39.9878C55.8217 40.1313 55.0513 39.6185 54.8281 38.5532C54.3791 36.3853 53.343 34.5256 51.6002 33.2345C50.0248 32.0655 48.2156 31.2127 46.502 30.235C46.2177 30.073 45.8644 30.0225 45.5987 29.8392C44.9717 29.4008 44.6981 28.7898 44.9319 28.0273C45.1577 27.2834 45.6678 26.8079 46.4542 26.8531C46.9988 26.8849 47.5567 27.0603 48.0695 27.2648C51.7012 28.6995 54.8281 30.8009 56.7489 34.3104C57.4211 35.5352 57.8142 36.9166 58.335 38.2264Z" fill="black"/>
<path d="M75.2316 49.9399C75.2316 49.6743 75.2103 49.4086 75.2369 49.1456C75.3352 48.1679 76.01 47.5303 76.9159 47.533C77.8192 47.5383 78.4701 48.1998 78.5843 49.1642C78.7357 50.4367 78.9031 51.7093 79.1103 52.9739C79.2644 53.9117 78.8367 54.7433 77.9759 55.0169C77.1391 55.2826 76.1933 54.8469 75.9356 53.9223C75.5743 52.6259 75.3458 51.2922 75.0615 49.9718C75.1173 49.9612 75.1758 49.9506 75.2316 49.9399Z" fill="black"/>
<path d="M26.5581 39.4301C27.5916 39.4088 28.4683 40.2404 28.5081 41.2818C28.5506 42.3764 27.7084 43.2823 26.6298 43.3089C25.6017 43.3328 24.7197 42.4933 24.6825 41.4545C24.64 40.352 25.4742 39.454 26.5581 39.4301Z" fill="black"/>
</svg>
