<svg width="120" height="100" viewBox="0 0 120 100" fill="none" xmlns="http://www.w3.org/2000/svg">
<rect width="120" height="100" fill="white"/>
<path d="M102 73.327C101.653 74.7611 101.217 76.148 100.223 77.3048C98.8564 78.893 97.151 79.8053 95.0717 80.023C94.6916 80.0621 94.3074 80.0703 93.9252 80.0703C71.318 80.0724 48.7107 80.0683 26.1034 80.0785C23.4179 80.0806 21.1989 79.1519 19.5449 77.0007C18.4724 75.6056 18.0101 73.9927 18.0101 72.2565C18.0019 57.1117 17.9896 41.9669 18.0163 26.8221C18.0245 22.2258 21.353 19.0144 26.0232 19.0103C37.2868 18.998 48.5483 19.0062 59.8119 19.0062C71.1844 19.0062 82.5569 19.0144 93.9273 19C96.6497 18.9959 98.955 19.9164 100.492 22.1847C101.203 23.2326 101.511 24.5537 102 25.7516C102 41.6114 102 57.4692 102 73.327ZM24.3056 22.9285C24.6138 23.2696 24.7185 23.3929 24.8336 23.5079C35.639 34.3092 46.4444 45.1146 57.258 55.9097C58.9962 57.6459 61.0879 57.5863 62.8898 55.7885C73.6007 45.0838 84.3074 34.377 95.0142 23.6682C95.1971 23.4853 95.3614 23.284 95.6799 22.9306C71.8213 22.9285 48.1806 22.9285 24.3056 22.9285ZM24.435 76.1007C24.9733 76.1644 25.4233 76.2651 25.8712 76.2651C48.6182 76.2733 71.3673 76.2733 94.1143 76.2651C94.5766 76.2651 95.0389 76.1521 95.4642 76.0966C87.523 68.1554 79.6454 60.2779 71.735 52.3675C71.6015 52.4928 71.4001 52.6736 71.2091 52.8627C69.3126 54.755 67.4244 56.6576 65.5218 58.5417C62.2528 61.7757 57.7819 61.7839 54.4986 58.554C52.5878 56.674 50.7057 54.7673 48.8093 52.875C48.6038 52.6695 48.3881 52.4743 48.2217 52.3161C40.2928 60.243 32.4276 68.1081 24.435 76.1007ZM21.877 26.1748C21.877 41.7902 21.877 57.3459 21.877 72.99C29.7216 65.0837 37.4923 57.2555 45.1068 49.5814C37.4389 41.8539 29.6723 34.0298 21.877 26.1748ZM98.1352 72.9551C98.1352 57.2986 98.1352 41.7409 98.1352 26.1255C90.307 34.0133 82.5404 41.8395 74.8971 49.5403C82.5384 57.2411 90.307 65.0673 98.1352 72.9551Z" fill="black"/>
</svg>
