<svg width="120" height="100" viewBox="0 0 120 100" fill="none" xmlns="http://www.w3.org/2000/svg">
<rect width="120" height="100" fill="white"/>
<path d="M95 79.3395C94.4392 80.6287 93.4355 81.0029 92.0541 81C70.6594 80.9707 49.2647 80.9795 27.8701 80.9766C27.4834 80.9766 27.0878 80.9941 26.713 80.9152C25.6503 80.6901 24.9212 79.6786 25.0068 78.6115C25.0924 77.5357 25.9396 76.6411 27.0524 76.6148C29.3283 76.5651 31.6071 76.5885 33.8858 76.5827C34.1249 76.5827 34.364 76.5827 34.6031 76.5827C34.6681 76.4862 34.736 76.3897 34.8009 76.2903C34.5825 76.1675 34.3227 76.0886 34.1515 75.9191C32.0941 73.9019 30.0455 71.8818 28.0059 69.8471C25.73 67.5756 25.2961 64.6726 26.8517 62.0035C27.1646 61.4656 27.5955 60.9745 28.0413 60.5301C40.9702 47.7109 53.9079 34.8975 66.8486 22.087C69.6529 19.3097 73.4548 19.3039 76.2619 22.0724C81.2033 26.9457 86.1298 31.8279 91.0534 36.7188C93.3411 38.9903 93.7809 41.8786 92.2283 44.5594C91.8711 45.1762 91.3663 45.7229 90.8527 46.2316C80.8874 56.1157 70.9133 65.9911 60.9421 75.8694C60.7532 76.0565 60.5702 76.2553 60.2514 76.5827C60.6646 76.5827 60.9214 76.5827 61.1782 76.5827C71.5007 76.5827 81.8202 76.5973 92.1426 76.5651C93.5034 76.5622 94.4716 76.9803 94.997 78.2549C95 78.6174 95 78.977 95 79.3395ZM62.5833 67.9819C62.722 67.8533 62.8578 67.7334 62.9847 67.6077C71.2793 59.3929 79.5768 51.178 87.8684 42.9603C88.996 41.8435 88.9842 40.9051 87.836 39.7679C82.9714 34.9501 78.1068 30.1323 73.2422 25.3144C72.0113 24.0954 71.1169 24.1012 69.8713 25.3349C61.6417 33.4854 53.4091 41.6389 45.1794 49.7894C45.0112 49.9561 44.8518 50.1373 44.7131 50.2864C50.6787 56.1947 56.6059 62.062 62.5833 67.9819ZM41.4661 53.508C37.9475 56.984 34.4231 60.4453 30.9252 63.933C30.1282 64.7282 30.2138 65.7777 31.0757 66.6372C34.2902 69.8325 37.5107 73.0278 40.7458 76.2026C40.9584 76.4102 41.3303 76.5681 41.6284 76.571C45.5455 76.5944 49.4655 76.5944 53.3825 76.571C53.6836 76.5681 54.0555 76.4248 54.271 76.2202C55.8886 74.662 57.4737 73.0746 59.0647 71.493C59.171 71.3877 59.2507 71.2591 59.3097 71.1831C53.3471 65.2748 47.4228 59.4075 41.4661 53.508Z" fill="black"/>
</svg>
