<svg width="120" height="100" viewBox="0 0 120 100" fill="none" xmlns="http://www.w3.org/2000/svg">
<rect width="120" height="100" fill="white"/>
<path d="M21.002 49.4184C21.9071 48.2712 22.771 47.0886 23.7214 45.9827C30.6027 37.9759 39.0345 32.3599 49.379 29.9317C60.4063 27.3421 71.0381 28.6054 81.1209 33.8613C88.2364 37.5686 94.1633 42.6572 98.7796 49.2354C98.8327 49.3122 98.9272 49.3594 99 49.4204C99 49.5227 99 49.6231 99 49.7254C98.0948 50.8726 97.231 52.0552 96.2806 53.1611C89.3993 61.1679 80.9675 66.7839 70.6229 69.2121C59.5956 71.8017 48.9638 70.5384 38.881 65.2825C31.7656 61.5752 25.8387 56.4866 21.2224 49.9084C21.1692 49.8316 21.0748 49.7844 21 49.7234C21.002 49.6211 21.002 49.5188 21.002 49.4184ZM59.997 31.8975C50.2094 31.9054 42.2675 39.8453 42.2971 49.5935C42.3266 59.3517 50.1838 67.1991 59.9675 67.2424C69.7256 67.2857 77.6872 59.3595 77.7069 49.5837C77.7246 39.8315 69.7748 31.8896 59.997 31.8975ZM45.1346 64.5033C36.9585 54.5248 36.9526 44.6171 45.0677 34.7193C39.5717 36.0101 27.4975 44.9595 24.9886 49.6703C30.459 56.2977 37.0727 61.3863 45.1346 64.5033ZM74.8044 64.4541C82.951 61.3863 89.5803 56.2977 95.094 49.5699C89.5626 42.8599 82.949 37.7654 74.8143 34.7075C78.7773 38.8968 80.9222 43.8221 80.9202 49.5837C80.9202 55.3433 78.7616 60.2627 74.8044 64.4541Z" fill="black"/>
<path d="M61.5653 88.1637C60.4988 88.1637 59.5129 88.1637 58.4562 88.1637C58.4562 84.4466 58.4562 80.7472 58.4562 76.9849C59.4657 76.9849 60.4889 76.9849 61.5653 76.9849C61.5653 80.6843 61.5653 84.3876 61.5653 88.1637Z" fill="black"/>
<path d="M33.1942 81.4299C32.232 80.8769 31.3583 80.3752 30.402 79.8242C32.2851 76.5695 34.1486 73.3463 36.0396 70.0779C36.99 70.6249 37.8834 71.1385 38.8279 71.6816C36.9507 74.9304 35.0971 78.1398 33.1942 81.4299Z" fill="black"/>
<path d="M86.8058 81.434C84.9187 78.1715 83.0631 74.9641 81.1701 71.6917C82.089 71.1604 82.9765 70.6448 83.9525 70.0801C85.8239 73.3131 87.6814 76.5166 89.598 79.8284C88.683 80.3557 87.7798 80.8732 86.8058 81.434Z" fill="black"/>
<path d="M61.5771 11C61.5771 14.7309 61.5771 18.4145 61.5771 22.1572C60.5342 22.1572 59.511 22.1572 58.4366 22.1572C58.4366 18.4539 58.4366 14.7486 58.4366 11C59.4756 11 60.4791 11 61.5771 11Z" fill="black"/>
<path d="M30.404 19.3179C31.3485 18.7728 32.236 18.2612 33.1943 17.7083C35.0833 20.9708 36.9389 24.1802 38.8339 27.4506C37.9149 27.9819 37.0255 28.4975 36.0515 29.0622C34.1762 25.8272 32.3206 22.6237 30.404 19.3179Z" fill="black"/>
<path d="M83.9584 29.0581C82.9982 28.5051 82.1048 27.9896 81.1701 27.4504C83.0473 24.2016 84.9029 20.9922 86.8038 17.7041C87.7405 18.2433 88.6299 18.7549 89.5901 19.3078C87.7168 22.5546 85.8652 25.7601 83.9584 29.0581Z" fill="black"/>
<path d="M68.0609 49.5701C68.0609 53.9326 64.3891 57.6045 60.0187 57.6143C55.6168 57.6242 51.9194 53.9228 51.941 49.5308C51.9627 45.1682 55.6502 41.5121 60.0206 41.524C64.391 41.5358 68.0629 45.2096 68.0609 49.5701ZM64.8298 49.6764C64.9479 47.1281 62.8424 44.9183 60.1466 44.753C57.5806 44.5976 55.298 46.7582 55.1721 49.4639C55.054 52.0121 57.1575 54.2219 59.8553 54.3872C62.4233 54.5427 64.7059 52.382 64.8298 49.6764Z" fill="black"/>
</svg>
