<svg width="120" height="100" viewBox="0 0 120 100" fill="none" xmlns="http://www.w3.org/2000/svg">
<rect width="120" height="100" fill="white"/>
<path d="M103.118 53.8786C102.694 53.4288 102.205 53.0703 101.692 52.7556L89.2397 18.0672C89.0555 17.5559 88.626 17.1711 88.0972 17.0443C87.5668 16.9183 87.0117 17.0678 86.6165 17.4399L78.5005 25.1021L80.7126 27.4449L87.0381 21.4736L97.8917 51.7096H69.1196C67.1197 51.7096 65.3575 52.4964 64.1583 53.9253C62.9576 55.3573 62.4874 57.2336 62.8368 59.2099L62.9349 59.7662H58.0654L58.1635 59.2107V59.2099C58.5128 57.2336 58.0422 55.3573 56.8419 53.9253C55.6432 52.4964 53.8805 51.7096 51.8806 51.7096H23.2182L34.0706 21.4736L40.3961 27.4449L42.6082 25.1021L34.4922 17.4399C34.0974 17.067 33.5403 16.9175 33.0115 17.0443C32.4827 17.1711 32.0532 17.5555 31.869 18.0672L19.4461 52.6787C18.8802 53.0077 18.3435 53.3889 17.8825 53.8774C16.5609 55.2803 15.897 57.1374 16.013 59.107L16.8153 72.7725C17.1252 78.0388 21.6757 82.3225 26.958 82.3225H44.6707C49.8616 82.3225 54.8165 78.1716 55.7165 73.0688L57.4963 62.9876H63.5031L65.2817 73.0696C66.1834 78.1716 71.1382 82.3225 76.3276 82.3225H94.0419C99.3241 82.3225 103.873 78.0388 104.183 72.7725L104.987 59.1074C105.104 57.1378 104.44 55.2811 103.118 53.8786ZM54.9915 58.65L52.5446 72.5093C51.9137 76.082 48.3088 79.1004 44.6711 79.1004H26.9584C23.3502 79.1004 20.2445 76.1769 20.0319 72.5839L19.2296 58.9176C19.1666 57.8429 19.5207 56.8384 20.2269 56.0882C20.9304 55.3425 21.9042 54.9318 22.9709 54.9318H51.8806C52.9111 54.9318 53.7972 55.3102 54.373 55.9961C54.9521 56.6856 55.171 57.6279 54.9915 58.65ZM101.771 58.918L100.967 72.5839C100.755 76.1769 97.6485 79.1004 94.0423 79.1004H76.328C72.6919 79.1004 69.0869 76.0816 68.4544 72.5093L66.0091 58.65C65.8296 57.6279 66.0486 56.6856 66.6276 55.9961C67.2034 55.3102 68.0891 54.9318 69.12 54.9318H98.0281C99.0948 54.9318 100.071 55.3425 100.774 56.0882C101.48 56.8388 101.834 57.8437 101.771 58.918Z" fill="black"/>
<path d="M94.8526 74.2666H84.3794V77.4892H94.8526V74.2666Z" fill="black"/>
<path d="M36.8477 74.2666H26.3745V77.4892H36.8477V74.2666Z" fill="black"/>
</svg>
