<svg width="120" height="100" viewBox="0 0 120 100" fill="none" xmlns="http://www.w3.org/2000/svg">
<rect width="120" height="100" fill="white"/>
<path d="M35.5109 37.0781C35.4336 35.4523 35.32 33.8579 35.2886 32.2611C35.0374 19.6824 44.0094 9.00969 56.4698 7.29694C69.0558 5.56727 78.4336 11.5752 83.125 20.6028C85.4852 25.142 86.0577 30 85.6084 35.0296C85.5504 35.6891 85.5238 36.351 85.4876 36.9718C85.5697 37.0588 85.6035 37.1264 85.6494 37.1361C88.384 37.7062 89.6861 39.733 89.5025 42.4265C89.3793 44.2287 89.546 46.0767 89.2247 47.8378C88.6812 50.8067 86.937 53.0533 84.2845 54.5342C83.7917 54.8096 83.5574 55.114 83.4511 55.6889C83.1395 57.3775 82.7481 59.054 82.352 60.7257C81.6683 63.598 80.3058 66.1176 78.424 68.386C78.1148 68.758 77.9287 69.3451 77.9215 69.8379C77.8756 72.7971 77.8949 75.7564 77.8998 78.7157C77.9046 81.1169 78.9216 82.547 81.1779 83.3563C88.186 85.8735 95.1916 88.3931 102.2 90.9103C102.456 91.0021 102.717 91.0794 102.965 91.1881C103.816 91.5577 104.185 92.3211 103.893 93.0772C103.596 93.8478 102.833 94.1957 101.958 93.8889C99.6534 93.0845 97.3537 92.2583 95.0563 91.4321C90.092 89.6493 85.1301 87.8568 80.1633 86.074C76.8006 84.8661 75.0057 82.3465 74.9985 78.8002C74.9936 76.7324 74.9985 74.6621 74.7931 72.4903C74.0467 73.2634 73.3654 74.1161 72.5392 74.7901C70.7444 76.2565 68.906 77.6745 67.0169 79.0152C66.5217 79.3679 65.7776 79.4936 65.1447 79.5056C62.1854 79.5539 59.2237 79.4911 56.2669 79.5467C55.216 79.566 54.257 79.3728 53.467 78.7374C51.218 76.9232 49.0124 75.0534 46.7996 73.1933C46.5749 73.0049 46.4252 72.7319 46.2392 72.4976C46.1594 72.529 46.0821 72.5604 46.0024 72.5918C46.0024 73.2054 46.0121 73.8214 46 74.435C45.9613 76.4256 46.087 78.4379 45.8285 80.3994C45.4854 83.0181 43.908 84.9217 41.4367 85.83C33.9914 88.567 26.5171 91.2123 19.0525 93.8841C18.1418 94.2102 17.347 93.8261 17.0764 93.0096C16.8083 92.2003 17.2552 91.4732 18.2698 91.1084C25.3044 88.5767 32.339 86.0474 39.3761 83.523C42.2145 82.5035 43.0987 81.2715 43.0987 78.2833C43.0987 75.4448 43.1084 72.6063 43.0866 69.7678C43.0842 69.4006 43.0214 68.932 42.7967 68.6856C39.5766 65.1852 38.4702 60.8127 37.6875 56.3194C37.5256 55.3845 37.1729 54.8265 36.3346 54.3119C33.2304 52.4011 31.6457 49.536 31.5104 45.8955C31.4621 44.5693 31.4959 43.2382 31.5008 41.9096C31.5056 39.3102 32.5685 38.0082 35.5109 37.0781ZM60.492 76.6285C61.7602 76.6285 63.0309 76.585 64.2968 76.643C65.1254 76.6816 65.8163 76.4618 66.4927 76.0004C69.8457 73.7151 72.5755 70.7872 75.1966 67.7289C77.2668 65.3132 79.011 62.7429 79.6632 59.571C80.0715 57.5949 80.4846 55.6164 80.8156 53.6259C81.9993 46.4995 82.5766 39.3102 82.7916 32.0969C82.852 30.1063 82.5839 28.0433 82.0935 26.1058C79.755 16.8487 70.6115 8.07722 56.5012 10.2103C45.8792 11.8168 37.6416 21.3927 38.202 32.6235C38.5789 40.1896 39.1466 47.7436 40.4197 55.2251C41.1854 59.7232 42.316 64.0377 45.5748 67.5502C48.2056 70.3862 50.7493 73.2899 53.8994 75.5801C54.8754 76.2903 55.8658 76.7807 57.1438 76.6502C58.2478 76.5391 59.3735 76.6285 60.492 76.6285ZM35.7186 40.105C34.7862 40.2789 34.4117 40.8177 34.4045 41.6318C34.3924 43.1368 34.3465 44.6442 34.4238 46.1443C34.518 48.002 35.2451 49.5988 36.7864 51.0604C36.4168 47.287 36.0737 43.7504 35.7186 40.105ZM85.3161 40.1195C84.9561 43.6972 84.5962 47.2556 84.2193 51.0048C85.4369 49.9226 86.2099 48.7364 86.3572 47.3595C86.5722 45.3665 86.5529 43.3421 86.5505 41.3322C86.5505 40.6945 86.0963 40.2403 85.3161 40.1195Z" fill="black"/>
</svg>
