<svg width="120" height="100" viewBox="0 0 120 100" fill="none" xmlns="http://www.w3.org/2000/svg">
<rect width="120" height="100" fill="white"/>
<path d="M21 47.9395C21.6214 45.9702 22.0697 43.9205 22.9013 42.0439C24.8738 37.592 27.8324 34.0521 32.6986 32.5403C36.1272 31.4768 39.5001 32.0611 42.8298 32.9886C46.4037 33.9841 49.6004 35.7277 52.4539 38.099C52.7105 38.3123 52.9826 38.5071 53.3783 38.807C53.8606 37.2704 53.7215 35.8823 53.0259 34.6828C51.9902 32.8927 51.004 30.9574 49.5509 29.5476C43.5872 23.754 47.3311 16.0343 52.4446 13.2271C61.7503 8.11977 71.5383 12.6582 76.0459 18.1829C79.0509 21.865 79.4807 26.1314 78.5254 30.6544C77.5824 35.1156 75.6749 39.1007 72.7441 42.5911C72.5771 42.7889 72.438 43.0146 72.1721 43.3856C73.6808 43.7999 75.0566 43.7288 76.2561 43.0394C78.0152 42.0284 79.9475 41.0917 81.3078 39.651C86.984 33.6347 94.8459 37.1901 97.7427 42.3994C102.955 51.7824 98.2436 61.7466 92.6818 66.1614C88.8791 69.1788 84.5169 69.4632 79.9475 68.443C75.7367 67.5001 71.9557 65.6822 68.6199 62.9462C68.3324 62.7112 68.0325 62.4917 67.6151 62.1702C67.0988 63.7129 67.2936 65.0917 67.9799 66.2943C68.9878 68.0566 69.9369 69.9734 71.3683 71.3491C77.2609 77.0129 73.8756 84.7512 68.6199 87.7067C59.308 92.9408 49.1706 88.1736 44.8393 82.686C41.7106 78.7226 41.5189 74.2119 42.6412 69.5003C43.615 65.4194 45.4267 61.7621 48.0979 58.5283C48.3143 58.2686 48.5152 57.9965 48.8089 57.6162C47.3064 57.1309 45.9183 57.2422 44.7126 57.9347C42.9534 58.9456 41.0305 59.8978 39.6702 61.3385C34.2135 67.1167 26.0053 64.0653 23.2321 58.3891C22.2366 56.3394 21.7296 54.0516 21 51.8721C21 50.5612 21 49.2504 21 47.9395ZM70.9046 59.5763C73.4304 62.1671 78.1482 64.2292 82.6743 64.8846C86.0967 65.3792 89.0213 64.4703 91.408 62.0001C93.7175 59.6134 95.1396 56.7259 95.7919 53.4828C96.4752 50.082 95.8167 46.8729 94.0266 43.9359C91.5719 39.9076 87.5126 39.4098 84.0531 42.5973C81.6417 44.817 78.9149 46.5205 75.7058 47.3552C75.1679 47.4943 74.6176 47.5964 74.0549 47.72C74.8031 52.2461 73.7705 56.1786 70.9046 59.5763ZM50.1476 41.3112C46.6943 38.4081 42.7896 36.7047 38.3593 36.074C34.3959 35.5082 31.2425 36.8191 28.7785 39.8828C26.7596 42.3901 25.4457 45.2468 25.0376 48.4527C24.6264 51.6711 25.3839 54.6854 27.1894 57.3565C29.7307 61.1159 33.4808 61.3818 36.9186 58.4571C38.8323 56.831 41.0583 55.5449 43.2564 54.3051C44.323 53.7023 45.6462 53.5508 46.92 53.1767C46.1532 48.7588 47.226 44.8047 50.1476 41.3112ZM69.6463 40.1333C72.7193 36.479 74.4692 32.3764 74.9669 27.7236C75.2297 25.2812 74.7103 23.046 73.2851 21.0488C70.6727 17.3884 63.8063 13.6135 57.6416 15.3819C54.5747 16.263 51.9067 17.6635 50.7566 20.9468C50.1105 22.7925 50.3609 24.5052 51.681 25.8995C54.6489 29.0313 56.9955 32.4723 57.7127 36.9211C62.1615 36.1513 66.094 37.1993 69.6463 40.1333ZM51.3348 60.8253C48.4596 64.2694 46.7839 68.0751 46.1347 72.3755C45.5318 76.3513 46.7283 79.582 49.8075 82.1388C51.8294 83.8144 54.145 84.9491 56.6616 85.6045C60.2633 86.5412 63.7073 85.9662 66.904 84.0958C70.9849 81.7122 71.5136 77.6096 68.4375 74.0543C67.0153 72.4095 65.8127 70.536 64.7616 68.6285C64.001 67.2466 63.6486 65.6389 63.0952 64.0808C58.7639 64.8166 54.8437 63.7438 51.3348 60.8253ZM70.3388 50.521C70.3574 45.0829 65.9982 40.6681 60.5446 40.6094C55.1529 40.5506 50.6515 44.9871 50.6175 50.3943C50.5835 55.8819 55.0168 60.3678 60.4735 60.3739C65.89 60.3739 70.3203 55.9499 70.3388 50.521Z" fill="black"/>
<path d="M66.3908 50.5178C66.3785 53.767 63.7506 56.398 60.5075 56.4134C57.2335 56.4289 54.5438 53.7299 54.5593 50.4498C54.5747 47.2159 57.2242 44.5695 60.4611 44.5572C63.7506 44.5448 66.4032 47.2098 66.3908 50.5178ZM62.4398 50.4869C62.4398 49.3739 61.5741 48.5206 60.4642 48.5361C59.4193 48.5515 58.5536 49.3924 58.5227 50.4312C58.4887 51.5009 59.3853 52.4284 60.4642 52.4438C61.5618 52.4593 62.4398 51.5906 62.4398 50.4869Z" fill="black"/>
</svg>
