<svg width="120" height="100" viewBox="0 0 120 100" fill="none" xmlns="http://www.w3.org/2000/svg">
<rect width="120" height="100" fill="white"/>
<path d="M37.6134 42.1008C37.7672 41.3233 37.8986 40.5436 38.0768 39.7728C38.3018 38.7993 38.5224 37.8236 38.8142 36.8679C39.4758 34.6914 40.4226 32.6998 42.1714 31.1226C44.3813 29.131 46.4931 27.0303 48.6406 24.9674C49.0973 24.5286 49.6632 24.1855 50.1978 24.5464C50.5899 24.8093 50.8929 25.3818 50.9909 25.8652C51.2226 27.0325 51.3095 28.2266 51.6414 29.4318C51.7505 28.8682 51.8597 28.3046 51.9689 27.7432C52.4344 25.335 53.0693 22.9803 54.25 20.8105C54.4416 20.4563 54.7156 20.1066 55.0387 19.8704C59.2446 16.7806 63.7156 14.1496 68.5208 12.0935C69.1022 11.844 69.6658 11.6101 70.2428 12.0645C70.851 12.5435 70.7418 13.1739 70.6171 13.8222C70.4455 14.7021 70.3096 15.591 70.3208 16.5244C70.7262 15.7781 71.0849 15.0006 71.5416 14.2878C74.8564 9.11501 73.6757 10.0128 79.0044 8.88333C84.4 7.73828 89.8334 7.65586 95.24 8.93456C95.8616 9.08159 96.4742 9.27095 97.0779 9.48036C97.7729 9.72318 98.1672 10.24 97.9556 10.9662C97.2138 13.5214 96.4385 16.0677 95.6299 18.6051C95.4116 19.2912 94.741 19.3491 94.115 19.4316C92.9923 19.5786 91.8762 19.7657 90.7579 19.935C90.7579 20.0152 90.7579 20.0954 90.7579 20.1756C91.415 20.2692 92.07 20.365 92.7272 20.4541C94.193 20.6524 94.5918 21.3541 94.0126 22.7019C91.2881 29.0263 87.9086 34.9877 83.9455 40.6171C83.6358 41.056 83.0878 41.4191 82.5732 41.604C79.4143 42.7402 76.1151 43.2481 72.7958 43.6446C72.5463 43.6736 72.299 43.7025 72.0517 43.7426C71.9738 43.756 71.9025 43.8028 71.8267 43.8362C71.8134 43.9231 71.8022 44.0077 71.7888 44.0946C73.6022 44.3842 75.4156 44.676 77.2312 44.9567C77.5052 44.9991 77.8193 44.9011 78.0576 45.0035C78.4921 45.1862 79.0935 45.3845 79.2383 45.7364C79.3987 46.1285 79.2851 46.8191 79.0156 47.1644C77.7992 48.7171 76.5361 50.2431 75.1928 51.6889C73.0921 53.95 70.92 56.1466 68.7547 58.3475C68.4339 58.675 68.0106 58.9357 67.5896 59.1228C64.355 60.5574 60.9443 61.3082 57.4357 61.6624C57.057 61.7003 56.6805 61.7493 56.3018 61.7938C56.2995 61.8629 56.2951 61.9342 56.2929 62.0032C57.3778 62.1681 58.4604 62.3374 59.5475 62.4911C59.8773 62.5379 60.2136 62.5468 60.5478 62.5668C61.176 62.6047 61.6973 62.8074 61.9067 63.4668C62.1183 64.1307 61.7886 64.5874 61.2985 64.9728C59.6589 66.2649 58.0349 67.5748 56.3797 68.8446C50.2446 73.545 43.5392 77.1183 36.0229 79.0809C32.6746 79.9542 29.2796 80.5312 25.8065 80.5868C25.5325 80.5913 25.0915 80.7606 25.0179 80.9589C24.1669 83.2646 23.3739 85.5903 22.5118 88.0586C23.8217 88.2056 24.8598 88.3348 25.9023 88.4373C34.9446 89.3329 43.9691 89.3952 52.9535 87.8358C53.682 87.7089 54.4238 87.4749 55.0698 87.123C56.1882 86.5126 56.3508 85.6727 55.7916 84.5299C55.3193 83.5631 54.7134 82.6052 54.5107 81.5782C53.9671 78.8136 55.7248 75.8841 58.5674 74.4985C60.325 73.6408 62.2052 73.2287 64.1322 73.1841C69.1691 73.0705 74.2104 73.0349 79.2495 72.9814C83.7651 72.9324 88.2762 72.8099 92.7004 71.8141C93.8477 71.5557 95.0039 71.1191 96.0175 70.5287C97.7239 69.5307 98.038 67.7485 96.7036 66.2983C95.9462 65.474 94.8702 64.8859 93.8432 64.3891C93.0101 63.9859 92.0321 63.879 91.1188 63.6406C90.2923 63.4245 89.8467 62.8453 89.9782 62.1569C90.123 61.3995 90.7445 60.9941 91.6289 61.1745C93.5425 61.5644 95.4272 62.0456 97.0734 63.1683C99.417 64.7678 100.511 67.4099 99.7712 69.7134C99.2455 71.3596 98.0514 72.4022 96.5677 73.1619C94.5517 74.1955 92.3462 74.5275 90.1408 74.8371C84.9368 75.5678 79.6995 75.4542 74.4643 75.4898C70.597 75.5166 66.7275 75.628 62.8691 75.8819C61.6394 75.9621 60.3562 76.45 59.2713 77.0604C58.4537 77.5171 57.801 78.3948 57.2797 79.2146C56.7161 80.099 56.7718 81.126 57.2976 82.0794C57.5805 82.5896 57.879 83.0908 58.1374 83.6143C59.1154 85.6104 58.6453 87.5908 56.8832 88.9519C55.7916 89.794 54.5084 90.1348 53.1807 90.3598C45.1164 91.7299 37.0075 91.8836 28.8741 91.222C26.4348 91.0237 23.9999 90.7497 21.565 90.4891C20.2283 90.3465 19.8697 89.8853 20.0769 88.5465C20.5179 85.7039 21.4001 82.9861 22.5296 80.3507C22.7702 79.7893 22.759 79.3817 22.4093 78.8359C20.3932 75.6926 19.8897 72.1794 20.0189 68.5304C20.2328 62.4956 22.2556 57.0421 25.6372 52.1166C28.531 47.904 31.6543 43.8451 34.6706 39.7149C35.0605 39.1803 35.5261 38.8194 36.2211 38.9954C36.9318 39.1758 37.1167 39.7528 37.208 40.3899C37.2882 40.9602 37.3862 41.5283 37.4776 42.0964C37.5177 42.0919 37.5667 42.0964 37.6134 42.1008ZM57.4936 64.7589C54.4884 64.2154 51.833 63.273 49.3758 61.7916C48.7186 61.3951 48.2397 60.9228 48.4914 60.1141C48.7498 59.2876 49.4359 59.2364 50.1889 59.2765C54.8047 59.5171 59.3626 59.1963 63.8203 57.8574C65.6069 57.3206 67.2042 56.5787 68.4829 55.1307C70.6728 52.6491 72.9695 50.2654 75.2173 47.835C75.3376 47.7057 75.4133 47.5364 75.5314 47.3471C75.322 47.3137 75.1839 47.2914 75.048 47.2691C71.8557 46.759 68.8394 45.7632 66.0904 44.03C65.5423 43.6847 65.2327 43.2236 65.4131 42.5664C65.5936 41.9181 66.0748 41.6642 66.7297 41.6218C68.1733 41.5305 69.6191 41.437 71.0604 41.2899C74.4688 40.9424 77.8616 40.5035 81.1341 39.432C81.5485 39.2961 82.0208 39.011 82.2368 38.6568C84.6272 34.7159 86.9975 30.7617 89.3121 26.7763C90.0339 25.5355 90.5707 24.1877 91.219 22.8355C90.965 22.7932 90.8046 22.742 90.6465 22.742C88.7284 22.7464 86.8103 22.7509 84.8923 22.7754C83.9878 22.7887 83.3061 22.3588 83.4086 21.6147C83.4732 21.1402 83.823 20.5766 84.2195 20.3004C86.8393 18.4603 89.7977 17.46 92.9499 16.9811C93.2128 16.941 93.6071 16.794 93.6739 16.6046C94.2487 14.9628 94.7633 13.2987 95.3069 11.6078C95.0729 11.5254 94.9504 11.4697 94.8212 11.4385C88.8888 10.0217 83.0032 10.4405 77.1287 11.8306C76.2844 12.0311 75.7096 12.4388 75.224 13.1427C73.1411 16.1657 71.6329 19.4605 70.47 22.9269C70.2317 23.6375 69.8931 24.2301 69.0287 24.1632C68.1688 24.0964 67.848 23.4949 67.8302 22.7219C67.779 20.4229 67.7545 18.1239 67.7188 15.8249C67.7166 15.6534 67.7188 15.4796 67.7188 15.2435C67.5361 15.317 67.4337 15.3526 67.3379 15.3994C63.6555 17.1326 60.1802 19.2244 56.8943 21.6281C56.598 21.8442 56.3552 22.1873 56.1971 22.5236C54.856 25.3773 54.2812 28.4293 53.9872 31.5392C53.8513 32.9761 53.829 34.4241 53.7377 35.8654C53.6976 36.507 53.4013 36.9904 52.7285 37.1241C52.1092 37.2466 51.6369 36.9993 51.3406 36.4446C51.1446 36.0771 50.9307 35.7117 50.7993 35.3196C50.0307 33.0474 49.2845 30.7662 48.5337 28.4917C48.5226 28.5006 48.3644 28.6053 48.233 28.7367C46.7025 30.236 45.2033 31.7687 43.6417 33.2323C42.5902 34.2191 41.8795 35.4043 41.5186 36.7521C40.9751 38.786 40.4605 40.8377 40.1285 42.9117C39.8501 44.6605 39.8323 46.4515 39.732 48.227C39.6897 48.9755 39.5605 49.6394 38.7028 49.8154C37.8474 49.9914 37.404 49.459 37.1323 48.7639C36.5464 47.2669 35.9828 45.7609 35.4191 44.255C35.3078 43.9565 35.2298 43.6446 35.0939 43.1946C34.3365 44.1926 33.6503 45.0592 33.0065 45.957C30.2664 49.7708 27.3414 53.4666 25.3075 57.7349C23.0598 62.451 21.9771 67.3854 22.7368 72.6205C22.9417 74.0418 23.3271 75.4185 24.0778 76.7173C24.1736 76.5948 24.216 76.5547 24.2405 76.5079C24.3942 76.2116 24.5457 75.9153 24.6949 75.619C31.8414 61.3928 41.6256 49.3543 54.4862 39.8798C59.1109 36.4714 64.003 33.5041 69.325 31.2919C70.254 30.9065 70.9111 31.1249 71.2275 31.8622C71.5371 32.5818 71.1985 33.2323 70.2941 33.6043C66.8099 35.0389 63.5218 36.8412 60.3651 38.8862C45.4595 48.5434 34.4456 61.6089 26.5974 77.4369C26.5172 77.5995 26.4793 77.7822 26.3835 78.0651C38.3553 77.3277 48.36 72.2886 57.4936 64.7589Z" fill="black"/>
</svg>
