<svg width="120" height="100" viewBox="0 0 120 100" fill="none" xmlns="http://www.w3.org/2000/svg">
<rect width="120" height="100" fill="white"/>
<g clip-path="url(#clip0_11_111)">
<path d="M43.6821 88C41.2012 87.0006 40.5691 86.0647 40.5691 83.3521C40.5691 82.781 40.5691 82.21 40.5691 81.6389C40.5691 80.7982 40.4901 79.9416 40.6007 79.1167C40.6797 78.4187 40.901 77.7207 41.217 77.1021C41.4382 76.6738 41.375 76.4675 41.2012 76.071C40.9168 75.4364 40.7429 74.7385 40.6007 74.0405C40.5217 73.6756 40.5849 73.2632 40.5849 72.8032C38.7045 72.8032 36.9189 72.8032 35.1174 72.8032C34.8488 72.8032 34.5802 72.819 34.3115 72.7873C33.4898 72.7239 33.0316 72.2797 33.0316 71.4548C33.0316 66.2676 32.9842 61.0645 33.0632 55.8773C33.1106 52.7681 35.8759 50.1348 39.0363 50.0079C39.5262 49.9921 40.0161 50.0079 40.5849 50.0079C40.5849 49.6907 40.5849 49.421 40.5849 49.1672C40.5849 44.2655 40.6007 39.3797 40.5691 34.478C40.5533 33.0662 40.7113 31.7654 41.8491 30.7343C41.6279 30.5439 41.4698 30.4012 41.3118 30.2743C39.2102 28.4976 38.104 26.2609 38.0566 23.5325C38.025 20.9785 38.0408 18.4404 38.0566 15.8865C38.0724 13.6339 39.6842 12 41.9439 12C53.6374 12 65.3467 12 77.056 12C79.3473 12 80.9433 13.6339 80.9433 15.9499C80.9591 18.3928 80.9591 20.8516 80.9433 23.2945C80.9275 26.1975 79.7898 28.5611 77.5459 30.3853C77.4353 30.4805 77.3246 30.5757 77.1666 30.7184C78.3202 31.7654 78.4466 33.1138 78.4466 34.5414C78.415 39.3955 78.4308 44.2338 78.4308 49.0879C78.4308 49.3575 78.4308 49.6272 78.4308 49.9445C79.2051 49.9921 79.9794 49.9921 80.7063 50.119C83.8193 50.6583 85.9526 53.1647 85.9842 56.3373C86.0158 61.3342 86 66.331 85.9842 71.3279C85.9842 72.359 85.5417 72.8032 84.483 72.819C82.7605 72.8349 81.0381 72.819 79.2999 72.819C79.0313 72.819 78.7626 72.819 78.494 72.819C78.4308 73.5646 78.4466 74.2626 78.2886 74.9288C78.1464 75.5158 77.5933 76.0392 77.5933 76.5944C77.5933 77.1497 78.1306 77.6731 78.2886 78.2601C78.4308 78.7994 78.415 79.3863 78.4308 79.9416C78.4466 81.0837 78.4308 82.21 78.4308 83.3521C78.4308 86.0647 77.7987 87.0006 75.3178 88C64.7778 88 54.2221 88 43.6821 88ZM73.3899 75.2778C75.1124 75.5158 75.9341 75.2619 75.9341 73.2156C75.8867 60.2238 75.9183 47.2478 75.9183 34.2559C75.9183 32.5903 75.618 32.2889 73.9272 32.2889C71.2409 32.2889 68.5545 32.2889 65.8682 32.2889C65.5995 32.2889 65.3309 32.2889 64.9991 32.2889C65.1887 33.0027 65.3467 33.6214 65.5047 34.2242C66.7057 38.9196 67.875 43.6151 68.2859 48.4534C68.3017 48.7072 68.6019 49.0403 68.8548 49.183C70.4192 50.0872 71.1777 51.8005 70.7352 53.5454C70.3085 55.1793 68.7757 56.369 67.0849 56.369C65.3941 56.369 63.8771 55.211 63.4347 53.5454C62.9764 51.8639 63.7033 50.119 65.2677 49.2465C65.6469 49.0403 65.8208 48.8182 65.7418 48.3899C65.6944 48.1202 65.7102 47.8506 65.6786 47.5809C65.0623 42.5681 63.8455 37.6823 62.5023 32.8124C62.3917 32.3841 62.2021 32.273 61.7913 32.273C60.2901 32.2889 58.7889 32.3047 57.2877 32.273C56.7978 32.2571 56.6082 32.4634 56.4976 32.9234C56.1657 34.2718 55.7233 35.5884 55.4546 36.9368C54.7119 40.6646 54.0167 44.4083 53.3056 48.1361C53.1949 48.6913 53.353 49.0403 53.9218 49.3575C55.502 50.2459 56.1341 52.2446 55.4862 53.942C54.8226 55.6393 53.0369 56.6387 51.2671 56.2897C49.6079 55.9724 48.4543 54.7351 48.2015 53.0061C47.9803 51.5149 48.802 49.9762 50.2084 49.183C50.4454 49.0561 50.7298 48.7547 50.7456 48.5168C51.0617 44.551 51.9308 40.7122 52.8631 36.8574C53.2266 35.3663 53.6216 33.8752 54.0325 32.2889C53.7006 32.2889 53.4636 32.2889 53.2108 32.2889C50.4454 32.2889 47.6958 32.2889 44.9305 32.2889C43.4609 32.2889 43.1133 32.6537 43.1133 34.129C43.1133 47.2319 43.1133 60.3507 43.1133 73.4536C43.1133 73.6756 43.0975 73.8977 43.1291 74.1198C43.1923 74.8019 43.5715 75.2144 44.251 75.3095C44.6777 75.373 45.1201 75.3254 45.61 75.3254C45.6258 75.0399 45.6416 74.8019 45.6416 74.564C45.6416 72.8032 45.6416 71.0582 45.6416 69.2974C45.6574 64.0309 49.5131 60.1444 54.7435 60.1444C57.9514 60.1286 61.1592 60.1286 64.3512 60.1603C65.0307 60.1603 65.7418 60.2238 66.4054 60.3665C70.6404 61.3342 73.4057 64.824 73.4215 69.1864C73.3899 71.1851 73.3899 73.2156 73.3899 75.2778ZM73.3899 29.5763C73.6744 29.5128 73.8798 29.4811 74.0536 29.4177C76.6136 28.6086 78.3834 26.2292 78.415 23.5007C78.4466 21.0737 78.4308 18.6466 78.4308 16.2354C78.4308 14.9505 78.0199 14.5381 76.7558 14.5381C74.7173 14.5381 72.663 14.5381 70.6246 14.5381C61.2066 14.5381 51.8044 14.5381 42.3864 14.5381C40.9326 14.5381 40.5691 14.9029 40.5691 16.3941C40.5691 18.7894 40.5375 21.1847 40.5849 23.5959C40.6165 26.2609 42.418 28.6245 44.9463 29.4335C45.1359 29.497 45.3413 29.5128 45.61 29.5763C45.61 27.53 45.61 25.5788 45.61 23.6276C45.61 22.7552 46.1156 22.1841 46.8425 22.1524C47.601 22.1365 48.1225 22.7234 48.1225 23.6435C48.1383 25.4043 48.1225 27.1492 48.1225 28.91C48.1225 29.1638 48.1225 29.4335 48.1225 29.7032C49.0074 29.7032 49.7975 29.7032 50.6508 29.7032C50.6508 29.3859 50.6508 29.1321 50.6508 28.8624C50.6508 27.0858 50.635 25.2933 50.6666 23.5166C50.6824 22.7076 51.2197 22.1524 51.9308 22.1524C52.6419 22.1524 53.1633 22.6917 53.1791 23.5166C53.1949 24.976 53.1791 26.4354 53.1791 27.8948C53.1791 28.4817 53.1791 29.0687 53.1791 29.6715C54.0641 29.6715 54.8542 29.6715 55.7075 29.6715C55.7075 27.6569 55.7075 25.7057 55.7075 23.7545C55.7075 22.7393 56.1815 22.1524 56.9558 22.1365C57.7459 22.1206 58.2358 22.7234 58.2358 23.7704C58.2358 25.4836 58.2358 27.181 58.2358 28.8942C58.2358 29.148 58.2674 29.4177 58.2832 29.6715C59.1365 29.6715 59.9266 29.6715 60.7641 29.6715C60.7641 29.3542 60.7641 29.0845 60.7641 28.8149C60.7641 27.2127 60.7641 25.5947 60.7641 23.9925C60.7641 22.7393 61.1908 22.1048 62.0441 22.1206C62.8816 22.1365 63.2924 22.7552 63.2924 23.9608C63.2924 25.3726 63.2924 26.7844 63.2924 28.1962C63.2924 28.688 63.2924 29.1638 63.2924 29.6873C64.1774 29.6873 64.9517 29.6873 65.8208 29.6873C65.8208 29.3859 65.8208 29.1163 65.8208 28.8466C65.8208 27.1334 65.8208 25.436 65.8208 23.7228C65.8208 23.4056 65.8524 23.0566 65.9788 22.7869C66.2474 22.2475 66.7373 22.0255 67.3378 22.1682C68.0489 22.3427 68.3175 22.8662 68.3175 23.5483C68.3333 25.325 68.3175 27.1175 68.3175 28.8942C68.3175 29.148 68.3175 29.4177 68.3175 29.6556C69.2182 29.6556 69.9925 29.6556 70.8458 29.6556C70.8458 29.3383 70.8458 29.0687 70.8458 28.799C70.8458 26.9906 70.83 25.1822 70.8616 23.3897C70.8774 22.6759 71.3989 22.1524 72.0626 22.1206C72.7105 22.0889 73.2793 22.5965 73.3583 23.2945C73.3899 23.5325 73.3741 23.7863 73.3741 24.0401C73.3899 25.8485 73.3899 27.6569 73.3899 29.5763ZM59.579 77.8793C54.6013 77.8793 49.6237 77.8793 44.6461 77.8793C43.5241 77.8793 43.0975 78.3235 43.0817 79.4498C43.0817 80.9409 43.0817 82.4162 43.0817 83.9073C43.0817 84.986 43.5399 85.4619 44.5986 85.4619C54.5223 85.4619 64.446 85.4619 74.3855 85.4619C75.4442 85.4619 75.9025 84.986 75.9025 83.9073C75.9183 82.4796 75.9025 81.0361 75.9025 79.6084C75.9025 78.2759 75.5232 77.8793 74.1958 77.8793C69.3288 77.8793 64.4618 77.8793 59.579 77.8793ZM48.1383 75.2937C55.7391 75.2937 63.2766 75.2937 70.7668 75.2937C70.8142 75.2302 70.8458 75.2144 70.8458 75.1985C70.8142 72.7714 70.9406 70.3444 70.7352 67.9332C70.514 65.3792 68.1911 63.1267 65.8366 62.8729C65.8366 63.1267 65.8366 63.3646 65.8366 63.6026C65.8366 65.2365 65.8366 66.8704 65.8366 68.5043C65.8366 69.8685 65.4415 70.2651 64.0667 70.2651C61.3014 70.2651 58.5518 70.2651 55.7865 70.2651C53.2898 70.2651 53.195 70.1858 53.195 67.6794C53.195 66.0772 53.195 64.4751 53.195 62.8729C50.8721 63.1267 48.644 65.3634 48.2963 67.8539C48.1383 68.9802 48.1699 70.1223 48.1541 71.2645C48.1225 72.597 48.1383 73.9294 48.1383 75.2937ZM35.5757 60.1603C35.5757 63.5233 35.5757 66.8545 35.5757 70.2175C37.2191 70.2175 38.8625 70.2175 40.5217 70.2175C40.5217 66.8387 40.5217 63.5074 40.5217 60.1603C38.8467 60.1603 37.2349 60.1603 35.5757 60.1603ZM78.4466 70.1858C80.1532 70.1858 81.7966 70.1858 83.4084 70.1858C83.4084 66.7911 83.4084 63.4915 83.4084 60.1762C81.7334 60.1762 80.09 60.1762 78.4466 60.1762C78.4466 63.5391 78.4466 66.8386 78.4466 70.1858ZM55.7549 67.6794C58.2674 67.6794 60.7483 67.6794 63.2292 67.6794C63.2292 65.982 63.2292 64.3481 63.2292 62.7301C60.7009 62.7301 58.2358 62.7301 55.7549 62.7301C55.7549 64.4116 55.7549 66.0296 55.7549 67.6794ZM40.5375 52.5619C36.6502 52.1019 35.0384 54.9413 35.6389 57.527C37.2823 57.527 38.9099 57.527 40.5375 57.527C40.5375 55.8455 40.5375 54.2275 40.5375 52.5619ZM78.4782 52.5777C78.4782 54.2592 78.4782 55.909 78.4782 57.5429C80.1532 57.5429 81.7966 57.5429 83.4242 57.5429C83.7561 54.0689 82.002 52.2922 78.4782 52.5777ZM53.1633 52.546C53.1791 51.8322 52.6419 51.277 51.915 51.277C51.2197 51.277 50.6508 51.848 50.6508 52.546C50.6666 53.2123 51.2197 53.7675 51.8834 53.7833C52.5787 53.8151 53.1633 53.2599 53.1633 52.546ZM67.0691 53.7992C67.7486 53.7992 68.3333 53.2123 68.3333 52.5302C68.3175 51.8322 67.7486 51.277 67.0375 51.2928C66.358 51.3087 65.8366 51.8322 65.8366 52.5143C65.8208 53.2281 66.3738 53.7992 67.0691 53.7992Z" fill="black"/>
</g>
<defs>
<clipPath id="clip0_11_111">
<rect width="53" height="76" fill="white" transform="translate(33 12)"/>
</clipPath>
</defs>
</svg>
