<svg width="120" height="100" viewBox="0 0 120 100" fill="none" xmlns="http://www.w3.org/2000/svg">
<rect width="120" height="100" fill="white"/>
<path d="M16.0053 33.6182C16.4456 32.6321 17.2339 32.3395 18.2673 32.358C20.4477 32.3975 22.628 32.3474 24.8084 32.3843C25.4596 32.3949 25.6257 32.1734 25.6151 31.5538C25.5835 29.3445 25.623 27.1352 25.594 24.9285C25.5808 23.9846 25.8814 23.2543 26.6011 22.6216C28.4097 21.0344 30.1762 19.3972 31.9637 17.7863C33.1237 16.7423 33.8303 16.737 34.9877 17.7758C36.8411 19.4394 38.6787 21.1241 40.5374 22.785C41.1306 23.315 41.3863 23.9372 41.3784 24.7307C41.3547 26.9401 41.3705 29.1494 41.3705 31.3561C41.3705 31.6619 41.3705 31.9651 41.3705 32.329C44.8111 32.329 48.1593 32.329 51.6157 32.329C51.6157 31.9862 51.6157 31.683 51.6157 31.3798C51.6157 29.1705 51.6315 26.9612 51.6078 24.7545C51.5999 23.9292 51.8873 23.2939 52.4989 22.7455C54.2943 21.1452 56.0687 19.5158 57.8562 17.9023C59.1823 16.7054 59.8282 16.7028 61.1359 17.8839C62.8997 19.4789 64.6477 21.0951 66.4325 22.6638C67.1286 23.2754 67.4265 23.982 67.4159 24.8942C67.3922 27.0455 67.408 29.1995 67.408 31.3508C67.408 31.6567 67.408 31.9651 67.408 32.329C70.8222 32.329 74.1494 32.329 77.5768 32.329C77.5926 32.0337 77.6216 31.7331 77.6216 31.4352C77.6269 29.1969 77.6401 26.9612 77.6163 24.7228C77.6084 23.9292 77.8694 23.307 78.46 22.7798C80.3187 21.1214 82.1563 19.4367 84.0097 17.7731C85.1645 16.737 85.8737 16.7449 87.0337 17.7916C88.8423 19.4209 90.6272 21.0792 92.4569 22.6875C93.1555 23.3018 93.435 24.0189 93.4271 24.9258C93.4034 27.0772 93.4192 29.2311 93.4192 31.3825C93.4192 31.6857 93.4192 31.9889 93.4192 32.3922C93.8542 32.3922 94.1864 32.3922 94.5186 32.3922C96.6989 32.3922 98.8792 32.379 101.06 32.3975C102.354 32.408 102.979 33.0434 102.987 34.3485C103.003 36.9533 103 39.5581 102.987 42.1655C102.979 43.5048 102.336 44.1508 101.002 44.156C98.5128 44.1692 96.0266 44.1587 93.4666 44.1587C93.4666 49.5449 93.4666 54.8705 93.4666 60.2911C94.2496 60.2911 95.0063 60.2911 95.763 60.2911C97.5478 60.2911 99.3301 60.2753 101.115 60.299C102.267 60.3148 102.963 60.9449 102.976 62.0601C103.008 64.8073 103.008 67.5545 102.976 70.3017C102.963 71.4327 102.293 72.0417 101.118 72.0522C98.8819 72.076 96.6435 72.0602 94.4078 72.0602C94.1046 72.0602 93.7988 72.0602 93.3928 72.0602C93.3928 72.4688 93.3928 72.7746 93.3928 73.0778C93.3928 75.4005 93.4034 77.7232 93.3875 80.0433C93.377 81.5856 92.7574 82.192 91.2072 82.1946C87.4133 82.2026 83.6195 82.1999 79.8257 82.1946C78.228 82.192 77.6348 81.5935 77.6295 79.9853C77.6216 77.6916 77.6269 75.3979 77.6269 73.1042C77.6269 72.7984 77.6269 72.4925 77.6269 72.1234C74.1942 72.1234 70.8459 72.1234 67.4212 72.1234C67.408 72.453 67.3816 72.7562 67.3816 73.0594C67.379 75.3821 67.3869 77.7048 67.3764 80.0249C67.3685 81.583 66.7647 82.192 65.2198 82.1946C61.3969 82.2026 57.5741 82.2026 53.7512 82.1946C52.2485 82.192 51.6289 81.583 51.6184 80.0881C51.6025 77.7654 51.6131 75.4427 51.6131 73.1226C51.6131 72.8168 51.6131 72.5084 51.6131 72.1313C48.191 72.1313 44.8427 72.1313 41.41 72.1313C41.3942 72.4398 41.3705 72.7404 41.3679 73.0409C41.3652 75.3926 41.3758 77.7417 41.3626 80.0934C41.3547 81.583 40.7351 82.192 39.2297 82.1946C35.4069 82.2026 31.584 82.2026 27.7612 82.1946C26.2241 82.192 25.6098 81.5751 25.6019 80.0222C25.5887 77.6995 25.5993 75.3768 25.5967 73.0567C25.5967 72.7535 25.5703 72.4504 25.5518 72.0602C24.2099 72.0602 22.9418 72.0602 21.6736 72.0602C20.54 72.0602 19.4063 72.0153 18.2753 72.0733C17.2312 72.1261 16.4614 71.7912 16 70.8316C16 67.7153 16 64.6017 16 61.4854C16.5009 60.5705 17.2681 60.1962 18.3069 60.2805C18.8975 60.3306 19.4933 60.2884 20.0865 60.2884C21.8872 60.2884 23.6905 60.2884 25.5439 60.2884C25.5439 54.8811 25.5439 49.5581 25.5439 44.1481C25.2249 44.1481 24.9481 44.1481 24.6739 44.1481C22.5832 44.1481 20.4899 44.1112 18.4018 44.1639C17.3472 44.1903 16.5299 43.9056 16 42.9617C16.0053 39.8481 16.0053 36.7318 16.0053 33.6182ZM63.9385 78.7488C63.9385 78.3428 63.9385 77.9843 63.9385 77.6231C63.9648 60.9739 63.9543 44.3221 64.0756 27.673C64.0887 25.7299 63.6748 24.3432 62.0903 23.2332C61.157 22.5794 60.3661 21.7252 59.4987 20.9474C58.1356 22.1839 56.8728 23.3624 55.5704 24.4934C55.1248 24.881 54.9508 25.2844 54.9508 25.8776C54.9666 43.1779 54.9614 60.4809 54.964 77.7812C54.964 78.1055 54.993 78.4298 55.0088 78.7462C58.0328 78.7488 60.9382 78.7488 63.9385 78.7488ZM33.5033 20.9395C32.1377 22.1786 30.8537 23.373 29.5355 24.5251C29.1137 24.8942 28.9502 25.2765 28.9502 25.838C28.9634 43.1674 28.9608 60.4967 28.9634 77.8261C28.9634 78.1266 28.9898 78.4298 29.0029 78.7356C32.019 78.7356 34.9481 78.7356 37.9378 78.7356C37.9378 78.3692 37.9378 78.0607 37.9378 77.7549C37.9378 73.8187 37.9299 69.8825 37.9405 65.9462C37.9695 52.5531 38.009 39.16 38.0275 25.7668C38.0275 25.4347 37.9431 24.9917 37.7243 24.7835C36.3718 23.4969 34.9692 22.263 33.5033 20.9395ZM85.5046 20.9422C84.1204 22.205 82.7996 23.3598 81.5473 24.5857C81.2493 24.8757 81.0252 25.3951 81.0226 25.809C80.9962 43.1595 81.0015 60.5099 81.0042 77.8603C81.0042 78.1556 81.0437 78.4509 81.0622 78.7409C84.0651 78.7409 86.9651 78.7409 89.8916 78.7409C89.9101 78.4931 89.9391 78.3006 89.9391 78.1055C89.9786 60.6154 90.0155 43.1226 90.0419 25.6324C90.0419 25.3714 89.9971 25.0207 89.8283 24.8652C88.4284 23.5522 86.9915 22.2788 85.5046 20.9422ZM51.5445 60.2858C51.5445 54.8626 51.5445 49.5344 51.5445 44.2272C48.1277 44.2272 44.7821 44.2272 41.4443 44.2272C41.4443 49.6188 41.4443 54.9444 41.4443 60.2858C44.8216 60.2858 48.1198 60.2858 51.5445 60.2858ZM67.4607 60.2779C70.8301 60.2779 74.1494 60.2779 77.5557 60.2779C77.5557 54.8811 77.5557 49.5476 77.5557 44.2299C74.1652 44.2299 70.8143 44.2299 67.4607 44.2299C67.4607 49.6135 67.4607 54.9285 67.4607 60.2779ZM41.41 68.7198C44.819 68.7198 48.1383 68.7198 51.5287 68.7198C51.5287 67.0219 51.5287 65.3794 51.5287 63.7712C48.1145 63.7712 44.7715 63.7712 41.41 63.7712C41.41 65.44 41.41 67.043 41.41 68.7198ZM67.4607 40.7893C70.8301 40.7893 74.1494 40.7893 77.5531 40.7893C77.5531 39.1073 77.5531 37.4832 77.5531 35.8723C74.1626 35.8723 70.8117 35.8723 67.4607 35.8723C67.4607 37.5412 67.4607 39.1468 67.4607 40.7893ZM67.4607 63.7606C67.4607 65.4348 67.4607 67.0588 67.4607 68.7356C70.8169 68.7356 74.1362 68.7356 77.5451 68.7356C77.5451 67.0456 77.5451 65.4005 77.5451 63.7606C74.1626 63.7606 70.8354 63.7606 67.4607 63.7606ZM51.5208 35.8565C48.1435 35.8565 44.7979 35.8565 41.4232 35.8565C41.4232 37.5175 41.4232 39.1178 41.4232 40.7682C44.7952 40.7682 48.1172 40.7682 51.5208 40.7682C51.5208 39.1283 51.5208 37.528 51.5208 35.8565ZM99.5252 63.7765C97.4028 63.7765 95.3833 63.7765 93.3717 63.7765C93.3717 65.4691 93.3717 67.0931 93.3717 68.733C95.4466 68.733 97.4635 68.733 99.5252 68.733C99.5252 67.0588 99.5252 65.4374 99.5252 63.7765ZM93.348 40.784C95.4229 40.784 97.4688 40.784 99.5014 40.784C99.5014 39.0967 99.5014 37.4753 99.5014 35.8671C97.4134 35.8671 95.3939 35.8671 93.348 35.8671C93.348 37.5333 93.348 39.1336 93.348 40.784ZM19.4379 63.7343C19.4379 65.4242 19.4379 67.0456 19.4379 68.6987C21.4812 68.6987 23.469 68.6987 25.5228 68.6987C25.5228 67.0219 25.5228 65.3979 25.5228 63.7343C23.5007 63.7343 21.5049 63.7343 19.4379 63.7343ZM19.4353 35.8117C19.4353 37.4753 19.4353 39.0941 19.4353 40.7471C21.4733 40.7471 23.4611 40.7471 25.5176 40.7471C25.5176 39.0809 25.5176 37.4621 25.5176 35.8117C23.469 35.8117 21.4785 35.8117 19.4353 35.8117Z" fill="black"/>
<path d="M59.4776 40.2856C58.3571 40.2698 57.4344 39.3207 57.4713 38.216C57.5082 37.143 58.4283 36.2387 59.4934 36.2281C60.5849 36.2176 61.5446 37.1772 61.542 38.274C61.5393 39.3918 60.6034 40.3014 59.4776 40.2856Z" fill="black"/>
<path d="M61.5393 66.202C61.5367 67.3067 60.548 68.2769 59.4618 68.24C58.3888 68.2057 57.4713 67.2645 57.4686 66.1994C57.466 65.0816 58.4204 64.1562 59.5488 64.1799C60.6429 64.1983 61.5419 65.1158 61.5393 66.202Z" fill="black"/>
<path d="M33.5007 40.2856C32.3749 40.283 31.4522 39.3576 31.468 38.245C31.4838 37.143 32.4566 36.1991 33.5455 36.2308C34.6106 36.2598 35.5255 37.1878 35.5386 38.2503C35.5545 39.3549 34.6212 40.2882 33.5007 40.2856Z" fill="black"/>
<path d="M33.5324 64.1771C34.6239 64.193 35.5335 65.1025 35.5414 66.1861C35.5493 67.2802 34.558 68.2636 33.4744 68.2399C32.4014 68.2162 31.4813 67.2829 31.4707 66.2125C31.4575 65.092 32.4014 64.164 33.5324 64.1771Z" fill="black"/>
<path d="M85.5256 40.2884C84.4104 40.2963 83.4613 39.3656 83.4666 38.2662C83.4718 37.1827 84.4552 36.2151 85.5335 36.2309C86.6039 36.2467 87.5135 37.1563 87.5372 38.232C87.561 39.3551 86.6593 40.2805 85.5256 40.2884Z" fill="black"/>
<path d="M85.5494 64.1771C86.6435 64.1956 87.5372 65.1051 87.5372 66.1966C87.5372 67.3092 86.5644 68.2715 85.4703 68.2399C84.4051 68.2082 83.4718 67.2617 83.4666 66.2045C83.4613 65.0972 84.4289 64.156 85.5494 64.1771Z" fill="black"/>
</svg>
