<svg width="120" height="100" viewBox="0 0 120 100" fill="none" xmlns="http://www.w3.org/2000/svg">
<rect width="120" height="100" fill="white"/>
<path d="M54.0943 15.7809C54.908 15.7809 55.4505 15.2385 55.4505 14.4248V10.3562C55.4505 9.54243 54.908 9 54.0943 9C53.2806 9 52.7382 9.54243 52.7382 10.3562V14.4248C52.7382 15.2384 53.2806 15.7809 54.0943 15.7809Z" fill="black"/>
<path d="M39.3117 25.2743H43.3804C44.0585 25.2743 44.7365 24.7319 44.7365 23.9182C44.7365 23.1044 44.1941 22.562 43.3804 22.562H39.3117C38.498 22.562 37.9556 23.1044 37.9556 23.9182C37.9556 24.7319 38.498 25.2743 39.3117 25.2743Z" fill="black"/>
<path d="M62.2316 23.9182C62.2316 24.7319 62.774 25.2743 63.5877 25.2743H67.6564C68.3345 25.2743 69.0125 24.7319 69.0125 23.9182C69.0125 23.1044 68.4701 22.562 67.6564 22.562H63.5877C62.7742 22.5619 62.2316 23.1044 62.2316 23.9182Z" fill="black"/>
<path d="M60.8754 18.4933C61.2823 18.4933 61.5536 18.3578 61.8247 18.0865L64.5372 15.374C65.0796 14.8316 65.0796 14.0178 64.5372 13.4752C63.9948 12.9327 63.1811 12.9328 62.6385 13.4752L59.926 16.1877C59.3836 16.7301 59.3836 17.5439 59.926 18.0865C60.1973 18.3578 60.4686 18.4933 60.8754 18.4933Z" fill="black"/>
<path d="M45.1433 18.0862C45.4146 18.3575 45.6858 18.4931 46.0926 18.4931C46.3639 18.4931 46.7708 18.3575 47.0419 18.0862C47.5844 17.5438 47.5844 16.7301 47.0419 16.1875L44.3296 13.4752C43.7872 12.9328 42.9735 12.9328 42.4309 13.4752C41.8884 14.0176 41.8884 14.8313 42.4309 15.3739L45.1433 18.0862Z" fill="black"/>
<path d="M81.8967 45.6175C80.6761 45.6175 79.4556 46.0244 78.5063 46.7025V46.2957C78.5063 42.9052 75.7938 40.1927 72.4033 40.1927C71.1827 40.1927 69.9621 40.5996 69.0128 41.2777V40.8709C69.0128 37.4804 66.3004 34.7679 62.9099 34.7679C61.6893 34.7679 60.4687 35.1748 59.5194 35.853V24.7319C59.5194 21.3415 56.8069 18.4934 53.4165 18.4934C50.026 18.4934 47.3135 21.3415 47.3135 24.7319V51.5849C44.4655 47.3807 38.7694 45.2107 34.4295 46.9738C33.7513 47.2451 33.2089 47.652 32.802 47.7876C30.9033 49.1437 31.039 50.6356 31.039 51.178C30.9034 51.9918 31.039 52.1273 32.802 54.1616C34.8363 56.6028 39.1763 61.7565 41.8886 66.91C42.0241 67.0455 45.1435 72.0636 48.6697 75.9965V79.5227C48.6697 85.897 53.6876 90.3725 60.8756 90.3725H72.9459C78.642 90.3725 83.1175 87.1176 84.2025 82.0996C84.5034 80.6953 84.8042 79.8857 85.0502 79.4488C85.1286 79.3422 85.2074 79.2316 85.2875 79.1159C86.5081 77.7597 88 74.3691 88 69.758V51.7205C87.9997 48.33 85.2872 45.6175 81.8967 45.6175ZM72.9457 87.66H60.8754C56.1286 87.66 51.382 85.0832 51.382 79.5227V79.1567C51.768 79.5653 52.1743 79.9617 52.6026 80.3365C52.7382 80.472 53.145 80.6077 53.4163 80.6077C53.8232 80.6077 54.0945 80.3365 54.3656 80.0653C54.908 79.5229 54.7725 78.7092 54.23 78.1666C53.2807 77.3528 52.6026 76.4035 51.7889 75.4541C51.6533 75.1828 51.382 74.7759 51.1107 74.5048C50.9977 74.3541 50.8421 74.2362 50.6657 74.1542C47.3814 70.3904 44.194 65.4182 44.194 65.4182C41.346 60.129 36.8705 54.8398 34.8362 52.2631C34.4293 51.8562 34.0224 51.3138 33.7512 51.0425C33.7512 50.7712 33.7512 50.5 34.2936 50.0932C34.836 49.8219 35.1073 49.6863 35.3786 49.5507C38.3622 48.3302 43.3803 49.9576 45.5502 53.7549L47.2662 56.6149C47.2867 56.7931 47.3458 56.9736 47.4489 57.1454L48.8051 59.8577C49.0764 60.2646 49.4832 60.5359 50.0257 60.5359C50.297 60.5359 50.5681 60.5359 50.5681 60.4003C51.2463 60.129 51.5174 59.3153 51.1105 58.6373L50.0255 56.4674V24.7319C50.0255 22.8332 51.653 21.2057 53.416 21.2057C55.3147 21.2057 56.8065 22.8332 56.8065 24.7319V40.5996C56.8065 40.5996 56.8065 40.7352 56.8065 40.8709V41.549V57.8236C56.8065 58.6373 57.3489 59.1797 58.1626 59.1797C58.9763 59.1797 59.5188 58.6373 59.5188 57.8236V41.5489V40.5996C59.6543 38.8366 61.1462 37.4803 62.9093 37.4803C64.808 37.4803 66.2997 38.9721 66.2997 40.8707V45.6175V46.2957V56.4673C66.2997 57.281 66.8422 57.8234 67.6559 57.8234C68.4696 57.8234 69.012 57.281 69.012 56.4673V46.2957C69.012 44.3969 70.5039 42.9052 72.4025 42.9052C74.3011 42.9052 75.793 44.3971 75.793 46.2957V51.0425V51.7206V56.603C75.793 57.4167 76.3354 57.9591 77.1491 57.9591C77.9629 57.9591 78.5053 57.4167 78.5053 56.603V51.7205C78.5053 49.8217 79.9972 48.33 81.8958 48.33C83.7945 48.33 85.2863 49.8219 85.2863 51.7205V69.6224C85.2863 73.7356 83.9886 76.4198 83.2974 77.2961C83.231 77.3532 83.1699 77.4171 83.1164 77.4884C82.3026 78.5734 82.0313 78.9803 79.4546 79.6583C78.7764 79.7939 78.3696 80.6076 78.5053 81.2857C78.7766 81.8282 79.319 82.235 79.8615 82.235C79.997 82.235 80.1328 82.235 80.1328 82.3706C80.5952 82.2444 81.0086 82.1216 81.3818 81.9974C80.2585 86.1395 76.2224 87.66 72.9457 87.66Z" fill="black"/>
</svg>
