<svg width="120" height="100" viewBox="0 0 120 100" fill="none" xmlns="http://www.w3.org/2000/svg">
<rect width="120" height="100" fill="white"/>
<path d="M34.2611 88.9959C33.4086 88.3774 33.5103 87.5086 33.7077 86.6621C34.1858 84.6071 35.425 83.1645 37.423 82.4829C38.0416 82.2713 38.186 81.9864 38.1555 81.4065C38.1148 80.6476 38.1413 79.8846 38.1474 79.1236C38.1575 77.9313 38.5136 77.5772 39.6876 77.5711C40.6277 77.565 41.5657 77.563 42.5057 77.5528C42.5505 77.5528 42.5952 77.5101 42.6786 77.4694C42.6786 73.7398 42.6786 69.9939 42.6786 66.1504C41.938 66.1504 41.2076 66.13 40.4812 66.1667C40.3367 66.1748 40.1638 66.3722 40.0722 66.5248C39.1525 68.0528 37.7201 68.7161 36.1737 68.3153C34.5663 67.8982 33.6059 66.6245 33.5836 64.8197C33.5612 63.0678 33.5713 61.318 33.5652 59.5661C33.5652 59.5173 33.5449 59.4664 33.5042 59.2935C32.5601 59.2935 31.5835 59.2955 30.6068 59.2935C29.3697 59.2914 29.0157 58.9476 29.0096 57.7206C28.9994 56.449 28.9953 55.1793 29.0075 53.9117C29.0177 52.8231 29.4002 52.4447 30.4725 52.4386C31.4817 52.4325 32.4909 52.4365 33.5754 52.4365C33.5754 50.6582 33.5632 48.9633 33.5836 47.2684C33.5897 46.7414 33.6039 46.188 33.7606 45.6915C34.198 44.2998 35.2011 43.4839 36.6397 43.3272C38.0456 43.1746 39.1586 43.7586 39.9277 44.957C40.0498 45.1483 40.1495 45.3538 40.2574 45.5471C41.0529 45.5471 41.8342 45.5471 42.7112 45.5471C42.7112 44.078 42.7336 42.6415 42.6827 41.2071C42.6766 41.0341 42.3002 40.8083 42.054 40.7228C39.8199 39.9333 38.304 37.9699 38.1738 35.6564C38.1148 34.6004 38.5197 34.167 39.592 34.1589C40.6032 34.1528 41.6145 34.1569 42.6298 34.1569C42.7275 32.7834 42.7193 31.4588 42.933 30.1709C43.9829 23.841 47.5192 19.4175 53.373 16.8477C53.9508 16.5934 54.1889 16.3329 54.1584 15.6961C54.1055 14.5811 54.1299 13.462 54.1502 12.347C54.1686 11.4069 54.5755 11.0081 55.5135 11.0061C58.4068 10.998 61.3022 10.998 64.1955 11.0061C65.1356 11.0081 65.5486 11.4049 65.5649 12.3409C65.5873 13.5332 65.5873 14.7276 65.5649 15.9199C65.5567 16.3635 65.7073 16.5751 66.1265 16.7602C73.1197 19.8265 76.7435 25.1839 76.9978 32.818C77.01 33.1985 77.0141 33.579 77.0263 33.9575C77.0283 34.0022 77.065 34.0449 77.1219 34.1569C78.0986 34.1569 79.1098 34.1507 80.119 34.1589C81.1913 34.165 81.5983 34.5984 81.5413 35.6524C81.4151 37.9332 79.9257 39.9598 77.7283 40.6679C77.1057 40.8693 76.9693 41.1521 76.9876 41.7361C77.0263 42.9773 76.9999 44.2205 76.9999 45.5227C77.8422 45.5227 78.6419 45.5227 79.3784 45.5227C79.767 45.0384 80.0844 44.4951 80.5362 44.1126C81.5657 43.2418 82.7641 43.0424 84.0236 43.5755C85.2729 44.1045 86.0339 45.0689 86.097 46.4301C86.1743 48.1026 86.1336 49.7792 86.1417 51.4538C86.1438 51.7529 86.1417 52.052 86.1417 52.4386C87.2222 52.4386 88.2314 52.4345 89.2406 52.4406C90.3149 52.4467 90.6995 52.8231 90.7096 53.9117C90.7218 55.2322 90.7239 56.5507 90.7076 57.8712C90.6954 58.9028 90.2986 59.2874 89.267 59.2935C88.2578 59.2996 87.2466 59.2955 86.1417 59.2955C86.1417 60.675 86.1458 61.9874 86.1397 63.2977C86.1377 63.9834 86.158 64.6712 86.097 65.3507C85.9647 66.8462 84.9453 67.9796 83.4722 68.3377C82.0947 68.6734 80.5809 68.1057 79.8627 66.8422C79.5331 66.2623 79.1729 66.0751 78.5544 66.1382C78.0803 66.187 77.5981 66.1483 77.0609 66.1483C77.0609 69.9654 77.0609 73.7276 77.0609 77.5732C78.0864 77.5732 79.0956 77.5691 80.1028 77.5752C81.173 77.5813 81.5535 77.9597 81.5677 79.0503C81.5779 79.8886 81.6044 80.7269 81.5576 81.5632C81.5271 82.0942 81.7326 82.2855 82.2188 82.4585C84.4509 83.2479 85.7348 84.8391 86.0909 87.1912C86.2028 87.9277 86.0583 88.5361 85.454 89C68.389 88.9959 51.3241 88.9959 34.2611 88.9959ZM45.0267 77.508C54.956 77.508 64.81 77.508 74.662 77.508C74.662 65.3243 74.662 53.2036 74.662 41.0728C64.7591 41.0728 54.9031 41.0728 45.0267 41.0728C45.0267 53.2402 45.0267 65.3446 45.0267 77.508ZM45.0145 34.0978C54.956 34.0978 64.81 34.0978 74.6559 34.0978C75.2134 28.5553 72.5296 23.0149 67.6769 20.093C62.5128 16.984 57.1799 16.9393 52.0504 20.1053C46.9332 23.2651 44.7784 28.0833 45.0145 34.0978ZM79.2563 79.9192C66.2811 79.9192 53.3791 79.9192 40.4303 79.9192C40.4303 80.9691 40.4384 81.9579 40.4283 82.9468C40.4161 84.0211 40.117 84.3222 39.0447 84.4423C37.6489 84.5969 36.66 85.3009 36.0862 86.6764C51.9589 86.6764 67.7542 86.6764 83.6492 86.6764C83.4661 86.3508 83.3481 86.0741 83.1731 85.8381C82.3999 84.7902 81.3277 84.4199 80.0539 84.4219C68.2486 84.4321 56.4454 84.428 44.6401 84.428C44.4122 84.428 44.1823 84.4362 43.9544 84.426C43.1914 84.3894 42.7173 83.9336 42.7315 83.2581C42.7458 82.6151 43.2077 82.1838 43.932 82.1471C44.1599 82.1349 44.3898 82.1431 44.6177 82.1431C55.8635 82.1431 67.1092 82.1431 78.355 82.1431C78.6459 82.1431 78.9389 82.1431 79.2543 82.1431C79.2563 81.3414 79.2563 80.6578 79.2563 79.9192ZM40.707 36.4601C41.234 37.9617 42.4141 38.7247 44.166 38.7247C54.6182 38.7268 65.0725 38.7268 75.5247 38.7247C75.7282 38.7247 75.9316 38.7268 76.1331 38.7085C77.5065 38.5884 78.6744 37.6647 78.9694 36.4581C66.2323 36.4601 53.4991 36.4601 40.707 36.4601ZM38.1453 55.8589C38.1453 53.0185 38.1453 50.178 38.1433 47.3376C38.1433 47.0853 38.1474 46.8289 38.1107 46.5787C38.0212 45.9683 37.6407 45.6122 37.0364 45.5979C36.3935 45.5837 35.9947 45.9418 35.895 46.5868C35.8604 46.8106 35.8644 47.0426 35.8644 47.2684C35.8624 53.0002 35.8624 58.7319 35.8665 64.4636C35.8665 64.7403 35.8014 65.1005 35.9438 65.2795C36.2185 65.6214 36.5868 66.01 36.9795 66.1016C37.5166 66.2257 37.9459 65.8472 38.0802 65.2856C38.1494 64.9947 38.1433 64.6813 38.1433 64.3782C38.1474 61.5398 38.1453 58.6993 38.1453 55.8589ZM81.5677 55.7857C81.5677 58.6505 81.5677 61.5174 81.5677 64.3822C81.5677 65.5949 81.9543 66.1667 82.7458 66.1382C83.5088 66.1117 83.8507 65.5725 83.8507 64.3843C83.8527 58.7034 83.8527 53.0225 83.8486 47.3417C83.8486 47.0385 83.8547 46.7252 83.7835 46.4342C83.6472 45.8706 83.2158 45.4942 82.6807 45.6224C82.288 45.716 81.9096 46.1005 81.6491 46.4484C81.4965 46.6519 81.5698 47.0365 81.5698 47.3396C81.5657 50.1557 81.5677 52.9717 81.5677 55.7857ZM40.473 63.8207C41.234 63.8207 41.9339 63.8207 42.6624 63.8207C42.6624 58.4979 42.6624 53.2138 42.6624 47.9053C41.9116 47.9053 41.2116 47.9053 40.473 47.9053C40.473 53.2138 40.473 58.4796 40.473 63.8207ZM79.2197 63.8349C79.2197 58.4837 79.2197 53.2016 79.2197 47.9134C78.4587 47.9134 77.7588 47.9134 77.0609 47.9134C77.0609 53.2443 77.0609 58.5264 77.0609 63.8349C77.7995 63.8349 78.477 63.8349 79.2197 63.8349ZM63.229 13.3501C60.9502 13.3501 58.712 13.3501 56.484 13.3501C56.484 14.2148 56.484 15.0145 56.484 15.7042C58.7507 15.7042 60.9624 15.7042 63.229 15.7042C63.229 15.0145 63.229 14.2148 63.229 13.3501ZM33.5347 54.7724C32.8063 54.7724 32.0881 54.7724 31.3474 54.7724C31.3474 55.5191 31.3474 56.2333 31.3474 56.9637C32.1023 56.9637 32.7982 56.9637 33.5347 56.9637C33.5347 56.2251 33.5347 55.5252 33.5347 54.7724ZM88.3575 56.98C88.3575 56.1946 88.3575 55.4804 88.3575 54.7683C87.5945 54.7683 86.8966 54.7683 86.2048 54.7683C86.2048 55.5313 86.2048 56.2455 86.2048 56.98C86.9475 56.98 87.623 56.98 88.3575 56.98Z" fill="black"/>
<path d="M72.4197 55.8527C72.4299 62.7625 66.808 68.4129 59.9063 68.4312C52.9558 68.4495 47.3055 62.8236 47.2953 55.8751C47.2851 48.9653 52.905 43.3169 59.8087 43.2986C66.7633 43.2803 72.4095 48.9001 72.4197 55.8527ZM49.5782 55.8507C49.5681 61.5091 54.1726 66.134 59.8249 66.1442C65.4916 66.1564 70.0941 61.5865 70.1327 55.9117C70.1714 50.2613 65.5709 45.606 59.9247 45.5816C54.2194 45.5571 49.5884 50.1535 49.5782 55.8507Z" fill="black"/>
<path d="M51.8673 55.8731C51.8592 51.47 55.4443 47.8747 59.8474 47.8706C64.2525 47.8665 67.8356 51.4435 67.8458 55.8568C67.8539 60.2578 64.2667 63.8572 59.8657 63.8613C55.4626 63.8633 51.8755 60.2802 51.8673 55.8731ZM65.5588 55.8547C65.5527 52.701 62.9971 50.1515 59.8474 50.1535C56.7018 50.1576 54.1462 52.7234 54.1543 55.871C54.1625 59.0228 56.7221 61.5763 59.8657 61.5722C63.0113 61.5702 65.5649 59.0045 65.5588 55.8547Z" fill="black"/>
<path d="M63.2738 55.871C63.2697 57.7735 61.7294 59.3015 59.829 59.2893C57.9347 59.2771 56.4107 57.7165 56.4392 55.8181C56.4657 53.9442 57.9775 52.4446 59.8433 52.4385C61.7437 52.4344 63.2799 53.9706 63.2738 55.871ZM59.8758 57.0003C60.5086 56.9881 61.0071 56.4489 60.9766 55.8059C60.9481 55.1955 60.4415 54.7173 59.8351 54.7275C59.2003 54.7397 58.7038 55.2769 58.7344 55.9198C58.7649 56.5323 59.2695 57.0104 59.8758 57.0003Z" fill="black"/>
</svg>
