<svg width="120" height="100" viewBox="0 0 120 100" fill="none" xmlns="http://www.w3.org/2000/svg">
<rect width="120" height="100" fill="white"/>
<path d="M21 22.284C21 18.8827 21 15.4815 21 12.0802C21.4475 11.2543 22.1351 11 23.0709 11C47.6894 11.0183 72.3099 11.0163 96.9305 11.0163C97.1075 11.0163 97.2865 11.0102 97.4635 11.0203C98.3402 11.0773 98.9648 11.6469 98.9708 12.5216C98.9932 15.6178 98.9932 18.7139 98.9729 21.808C98.9668 22.7234 98.3443 23.3052 97.4228 23.3438C96.9488 23.3642 96.4728 23.3479 95.9846 23.3479C95.9846 41.1537 95.9846 58.8741 95.9846 76.6453C96.3324 76.6453 96.6335 76.6453 96.9346 76.6453C98.505 76.6473 98.9831 77.1213 98.9831 78.6877C98.9851 81.4278 98.9525 84.17 98.9993 86.9081C99.0156 87.8459 98.7389 88.5294 97.9171 88.979C72.2794 88.979 46.6397 88.979 21.002 88.979C21.002 85.2237 21.002 81.4665 21.002 77.7113C21.6306 76.3564 22.9264 76.7002 24.0087 76.629C24.0087 58.8212 24.0087 41.1191 24.0087 23.3459C22.8593 23.3459 21.6327 23.5941 21 22.284ZM33.3377 76.6128C33.3377 76.2242 33.3377 75.9211 33.3377 75.618C33.3377 69.2488 33.3072 62.8795 33.3581 56.5123C33.3723 54.771 33.5168 53.0114 33.8036 51.2945C36.2203 36.8248 50.8954 26.9079 65.2938 29.9755C77.9082 32.6607 86.6209 43.3995 86.6453 56.3069C86.6575 62.7778 86.6473 69.2467 86.6473 75.7177C86.6473 76.0127 86.6473 76.3056 86.6473 76.5884C88.7853 76.5884 90.8237 76.5884 92.8539 76.5884C92.8539 58.8273 92.8539 41.1252 92.8539 23.3967C70.9287 23.3967 49.0422 23.3967 27.1455 23.3967C27.1455 41.1598 27.1455 58.8802 27.1455 76.6168C29.2123 76.6128 31.2323 76.6128 33.3377 76.6128ZM83.598 76.627C83.598 76.3605 83.598 76.1632 83.598 75.9659C83.598 69.3179 83.6224 62.67 83.5777 56.0221C83.5675 54.5594 83.4068 53.0805 83.1464 51.6403C80.8314 38.7492 67.7308 30.1077 54.974 33.0269C43.9179 35.5575 36.3993 44.9679 36.383 56.315C36.3728 62.8104 36.381 69.3057 36.381 75.8011C36.381 76.0676 36.381 76.3361 36.381 76.5945C41.2164 76.5945 45.944 76.5945 50.4539 76.5945C49.864 75.9293 49.1744 75.1908 48.5316 74.4158C45.7019 71.0084 44.3532 67.1311 45.0693 62.6985C45.4822 60.1435 46.654 57.8427 47.903 55.603C48.4441 54.6347 49.626 54.5716 50.4031 55.4321C51.0317 56.1278 51.7437 56.4981 52.6936 56.2641C53.6721 56.0241 54.1237 55.3345 54.3821 54.4089C55.7267 49.5776 57.1019 44.7543 58.4526 39.925C58.6479 39.2252 59.0202 38.7248 59.7525 38.6028C60.495 38.4807 61.0076 38.855 61.3941 39.4633C61.801 40.1061 62.2323 40.7326 62.6432 41.3734C66.136 46.8435 69.6532 52.2973 73.1013 57.7959C74.2425 59.6166 74.9443 61.661 75.0602 63.8132C75.3186 68.6527 73.5244 72.6724 69.9563 75.9211C69.7264 76.1306 69.4925 76.3361 69.167 76.625C74.0472 76.627 78.7646 76.627 83.598 76.627ZM24.0799 20.2497C48.0637 20.2497 71.9804 20.2497 95.8991 20.2497C95.8991 18.1748 95.8991 16.1548 95.8991 14.1022C71.9458 14.1022 48.0291 14.1022 24.0799 14.1022C24.0799 16.1629 24.0799 18.1829 24.0799 20.2497ZM95.9012 79.7435C71.9214 79.7435 48.0047 79.7435 24.1083 79.7435C24.1083 81.8347 24.1083 83.873 24.1083 85.893C48.0698 85.893 71.9682 85.893 95.9012 85.893C95.9012 83.8344 95.9012 81.8143 95.9012 79.7435ZM54.0729 74.9996C53.6925 73.5817 53.9874 72.3368 54.553 71.1447C55.6372 68.8541 57.171 66.8687 58.8513 64.9951C59.5369 64.2323 60.4991 64.2526 61.1744 65.048C62.0919 66.1282 63.0053 67.2267 63.8027 68.3964C65.1412 70.3595 66.4879 72.351 65.9427 75.0423C66.2438 74.8694 66.4452 74.7677 66.6323 74.6456C71.0243 71.7428 74.2242 65.3206 70.2818 58.9738C67.1938 54 63.9878 49.0995 60.8307 44.1685C60.7696 44.0729 60.6781 43.9956 60.5377 43.8389C60.438 44.1664 60.3607 44.3983 60.2956 44.6323C59.2785 48.239 58.2756 51.8498 57.2443 55.4525C56.5791 57.7715 54.8398 59.2423 52.4678 59.3521C51.5423 59.3949 50.5984 59.1019 49.6301 58.9555C46.3407 64.747 48.3688 72.3876 54.0729 74.9996ZM60.1288 68.3415C59.0466 69.3566 57.4029 71.8506 57.0876 73.0284C56.9717 73.4678 56.9737 73.9926 57.0917 74.432C57.5535 76.1612 59.4006 77.0684 61.0626 76.45C62.3869 75.9557 63.6908 74.1839 62.6554 72.4059C61.858 71.0389 60.9853 69.7126 60.1288 68.3415Z" fill="black"/>
</svg>
