<svg width="120" height="100" viewBox="0 0 120 100" fill="none" xmlns="http://www.w3.org/2000/svg">
<rect width="120" height="100" fill="white"/>
<path d="M15.0024 37.3118C15.3157 36.716 15.5554 36.0632 15.9566 35.5386C16.8088 34.4253 18.017 34.0242 19.3985 34.0337C22.0927 34.0503 24.7868 34.0384 27.4834 34.0384C27.8014 34.0384 28.1195 34.0384 28.4732 34.0384C28.4732 31.095 28.4732 28.2608 28.4732 25.3269C27.2175 25.3269 25.9856 25.3269 24.6871 25.3269C24.6871 24.3916 24.6871 23.549 24.6871 22.6375C36.691 22.6375 48.6973 22.6375 60.7771 22.6375C60.7771 23.4683 60.7771 24.3347 60.7771 25.3079C59.36 25.3079 57.9571 25.3079 56.4973 25.3079C56.4973 28.2418 56.4973 31.0689 56.4973 34.0384C56.8533 34.0384 57.1975 34.0384 57.5417 34.0384C60.7985 34.0384 64.0576 34.0526 67.3143 34.0313C68.5748 34.0218 69.7236 34.271 70.7277 35.2015C72.0451 33.9862 73.664 33.9624 75.3731 34.0977C75.7552 32.9251 76.1279 31.7786 76.5077 30.6345C77.1225 28.7783 78.1574 28.0139 80.1324 28.002C82.5892 27.9878 85.0483 27.9854 87.5051 28.002C89.4991 28.0163 90.477 28.7426 91.1132 30.644C91.5262 31.8783 91.9535 33.1079 92.3167 34.3565C92.4852 34.9333 92.808 35.1873 93.3635 35.389C98.4764 37.2453 101.809 40.7299 102.882 46.1396C103.388 48.689 103.715 51.2763 104.109 53.8494C104.705 57.7352 105.384 61.6139 105.84 65.5162C106.084 67.5932 105.985 69.7153 105.954 71.8161C105.928 73.5892 104.553 74.9351 102.78 75.0111C101.809 75.0515 100.834 75.0182 99.8556 75.0182C99.6704 75.6283 99.5351 76.1718 99.3381 76.6917C98.0159 80.1882 94.6904 82.2937 90.8117 82.1061C87.3318 81.9376 84.1534 79.3313 83.2728 75.8419C83.1066 75.182 82.8479 75.0182 82.2094 75.0182C71.0458 75.0372 59.8822 75.0372 48.7186 75.0182C48.0753 75.0182 47.8214 75.1891 47.6552 75.8419C46.701 79.5734 43.3469 82.1251 39.4944 82.1228C35.6751 82.1228 32.3542 79.5995 31.343 75.9321C31.2647 75.6496 31.184 75.3695 31.089 75.0301C30.5692 75.0301 30.0683 75.042 29.5699 75.0277C27.6804 74.9779 26.4912 73.8029 26.4603 71.8802C26.4247 69.6014 26.4508 67.3203 26.4508 65.0391C26.4508 64.7234 26.4508 64.4053 26.4508 63.9947C24.8082 63.9947 23.2748 63.9947 21.7414 63.9947C21.2073 63.9947 20.6708 63.9543 20.1438 64.0018C17.6063 64.2249 15.8569 63.2185 15 60.7736C15.0024 52.9474 15.0024 45.1284 15.0024 37.3118ZM83.0117 72.2861C84.614 67.6383 87.2416 65.3477 91.0467 65.2148C92.8436 65.1531 94.5076 65.5803 96.0196 66.5607C98.1109 67.9184 99.3167 69.8815 99.8223 72.3074C100.667 72.3074 101.436 72.2766 102.203 72.3169C102.975 72.3573 103.281 72.0273 103.259 71.2725C103.203 69.2002 103.309 67.1138 103.096 65.0605C102.778 62.015 102.239 58.9909 101.788 55.9098C101.289 55.9098 100.969 55.9098 100.648 55.9098C95.3194 55.9098 89.988 55.9241 84.659 55.9051C80.0991 55.8885 77.0204 52.8002 77.0109 48.2641C77.0038 44.8008 77.0086 41.3352 77.0086 37.872C77.0086 37.561 77.0086 37.2477 77.0086 36.7872C76.1255 36.7872 75.3588 36.7967 74.5945 36.7848C72.489 36.7516 71.9549 37.269 71.9525 39.3603C71.9502 47.1769 71.9525 54.9936 71.9525 62.8126C71.9525 63.1853 71.9525 63.5555 71.9525 63.9876C68.5629 63.9876 65.3085 63.9876 62.0542 63.9876C51.484 63.9876 40.9115 63.9876 30.3413 63.9876C29.1996 63.9876 29.1972 63.9899 29.1972 65.1626C29.1972 66.969 29.1972 68.7753 29.1972 70.5817C29.1972 72.4688 29.1972 72.4688 31.0962 72.2433C32.5275 67.7618 35.2454 65.3691 39.0695 65.2195C40.8664 65.1483 42.5327 65.5756 44.0495 66.5441C46.1574 67.8923 47.3632 69.8649 47.8736 72.2671C57.8456 72.2671 67.7558 72.2671 77.7895 72.2671C77.7895 67.5695 77.7895 62.917 77.7895 58.2455C78.7556 58.2455 79.5983 58.2455 80.562 58.2455C80.562 62.9621 80.562 67.617 80.562 72.2884C81.4498 72.2861 82.2141 72.2861 83.0117 72.2861ZM69.2109 61.2839C69.2109 60.8756 69.2109 60.5837 69.2109 60.2917C69.2109 53.0993 69.2109 45.907 69.2109 38.7146C69.2109 37.148 68.8359 36.7706 67.2882 36.7706C51.4247 36.7706 35.5587 36.7706 19.6952 36.7706C18.1048 36.7706 17.7203 37.1575 17.7203 38.7716C17.7179 45.5485 17.7203 52.3279 17.7203 59.1048C17.7203 60.9278 18.0763 61.2815 19.8993 61.2815C35.9718 61.2815 52.0442 61.2815 68.1143 61.2815C68.4347 61.2839 68.7552 61.2839 69.2109 61.2839ZM79.717 36.7895C79.717 37.3402 79.717 37.6014 79.717 37.8625C79.717 41.3257 79.7099 44.7866 79.7194 48.2498C79.7288 51.2977 81.5922 53.1516 84.6614 53.1563C89.8694 53.1658 95.0773 53.1587 100.285 53.1587C100.57 53.1587 100.857 53.1587 101.18 53.1587C100.893 51.2882 100.646 49.534 100.347 47.787C100.169 46.7425 100.06 45.653 99.6633 44.6869C98.1323 40.9554 95.3526 38.4037 91.4099 37.7367C87.6167 37.0957 83.7143 37.0863 79.717 36.7895ZM97.1638 73.6343C97.1567 70.4963 94.5812 67.9232 91.4479 67.9208C88.279 67.9184 85.7011 70.52 85.713 73.7032C85.7249 76.8436 88.298 79.4143 91.4265 79.4096C94.612 79.4049 97.1709 76.827 97.1638 73.6343ZM45.2198 73.6937C45.2364 70.5509 42.7179 67.9778 39.5656 67.9208C36.4133 67.8638 33.788 70.4583 33.7761 73.6438C33.7618 76.8033 36.2922 79.3859 39.4255 79.4096C42.6087 79.4381 45.2032 76.8768 45.2198 73.6937ZM53.6963 33.9791C53.6963 31.0879 53.6963 28.256 53.6963 25.3649C51.8163 25.3649 49.9672 25.3649 48.0848 25.3649C48.0848 28.2537 48.0848 31.0879 48.0848 33.9791C49.9648 33.9791 51.8139 33.9791 53.6963 33.9791ZM36.8619 33.9767C36.8619 31.0855 36.8619 28.2537 36.8619 25.3815C34.9772 25.3815 33.1352 25.3815 31.2956 25.3815C31.2956 28.2869 31.2956 31.1116 31.2956 33.9767C33.1803 33.9767 35.0009 33.9767 36.8619 33.9767ZM39.7009 33.9719C41.6165 33.9719 43.4324 33.9719 45.2625 33.9719C45.2625 31.0665 45.2625 28.2276 45.2625 25.3672C43.3706 25.3672 41.5548 25.3672 39.7009 25.3672C39.7009 28.2513 39.7009 31.0784 39.7009 33.9719ZM78.2381 34.1761C82.0266 34.2924 85.7153 34.4063 89.5204 34.5226C89.1288 33.331 88.8297 32.2842 88.419 31.2825C88.3146 31.0262 87.8636 30.7603 87.5668 30.7556C85.0578 30.7128 82.5488 30.7128 80.0398 30.7556C79.7455 30.7603 79.3039 31.0428 79.1948 31.3063C78.8245 32.194 78.5752 33.1293 78.2381 34.1761Z" fill="black"/>
<path d="M73.8325 25.5358C73.3008 26.0675 72.6979 26.6657 72.1306 27.233C70.4785 25.5786 68.8169 23.9146 67.1339 22.2292C67.7036 21.6714 68.3136 21.0732 68.8454 20.551C70.4998 22.2055 72.1591 23.8624 73.8325 25.5358Z" fill="black"/>
<path d="M93.7812 27.1524C93.2994 26.6491 92.7131 26.0367 92.1861 25.486C93.7955 23.8838 95.4618 22.2245 97.1519 20.5439C97.6385 21.0519 98.2272 21.6667 98.7399 22.1984C97.1068 23.8292 95.45 25.486 93.7812 27.1524Z" fill="black"/>
<path d="M84.2863 23.9075C83.4104 23.9075 82.5701 23.9075 81.6848 23.9075C81.6848 21.5955 81.6848 19.331 81.6848 17C82.5322 17 83.3725 17 84.2863 17C84.2863 19.2954 84.2863 21.5765 84.2863 23.9075Z" fill="black"/>
<path d="M87.676 59.2378C87.676 60.1279 87.676 60.9706 87.676 61.8631C86.126 61.8631 84.6305 61.8631 83.0781 61.8631C83.0781 60.9848 83.0781 60.1422 83.0781 59.2378C84.5831 59.2378 86.0785 59.2378 87.676 59.2378Z" fill="black"/>
<path d="M34.0016 49.083C34.0016 50.7992 34.0111 52.513 33.9992 54.2292C33.9826 56.4534 32.556 57.8752 30.32 57.8871C27.8655 57.9013 25.4111 57.9037 22.9567 57.8871C20.7705 57.8729 19.3415 56.4676 19.3249 54.2743C19.2988 50.7565 19.2941 47.2362 19.3273 43.716C19.3463 41.5654 20.7824 40.1697 22.914 40.1578C25.4277 40.1436 27.9415 40.1412 30.4553 40.1578C32.5251 40.1721 33.9684 41.5987 33.9968 43.6709C34.0206 45.475 34.0016 47.279 34.0016 49.083ZM22.076 49.0284C22.076 50.7137 22.0974 52.4015 22.0665 54.0868C22.0523 54.8488 22.3466 55.1526 23.1086 55.1455C25.4752 55.1217 27.8418 55.1217 30.2084 55.1455C30.9656 55.1526 31.2766 54.8535 31.2742 54.0963C31.2576 50.6947 31.2623 47.2932 31.2718 43.8917C31.2742 43.1867 30.9704 42.8567 30.263 42.8591C27.8679 42.8662 25.4705 42.8662 23.0754 42.8591C22.3751 42.8567 22.0594 43.1582 22.0713 43.8798C22.0927 45.5984 22.076 47.3146 22.076 49.0284Z" fill="black"/>
<path d="M36.1475 48.9715C36.1475 47.2268 36.138 45.4821 36.1498 43.7375C36.1641 41.6011 37.5788 40.1698 39.7033 40.1579C42.217 40.1437 44.7308 40.1437 47.2422 40.1579C49.3002 40.1698 50.7553 41.5038 50.7862 43.5594C50.8408 47.196 50.8408 50.8325 50.7862 54.469C50.7553 56.5175 49.3073 57.8634 47.2446 57.8824C44.7308 57.9062 42.217 57.9062 39.7057 57.8824C37.5788 57.8611 36.1641 56.4178 36.1498 54.2934C36.138 52.5202 36.1475 50.747 36.1475 48.9715ZM48.0683 49.0308C48.0683 47.3147 48.0516 45.5985 48.0754 43.8823C48.0872 43.1559 47.7644 42.8592 47.0665 42.8616C44.6691 42.8687 42.274 42.8687 39.8766 42.8616C39.1716 42.8592 38.8535 43.1844 38.8559 43.8894C38.863 47.2933 38.8677 50.6948 38.8535 54.0987C38.8511 54.8559 39.1739 55.155 39.9264 55.1479C42.293 55.1265 44.6596 55.1265 47.0286 55.1479C47.7834 55.155 48.092 54.8607 48.0777 54.0916C48.0445 52.4039 48.0683 50.7162 48.0683 49.0308Z" fill="black"/>
<path d="M52.9747 49.0142C52.9747 47.2956 52.9652 45.5794 52.9771 43.8609C52.9937 41.5227 54.3562 40.1602 56.6729 40.1555C59.1012 40.1484 61.5295 40.1484 63.9579 40.1555C66.2105 40.1626 67.6039 41.556 67.6086 43.8205C67.6181 47.2838 67.6181 50.7494 67.6086 54.215C67.6015 56.4677 66.2034 57.8729 63.9531 57.8871C61.5248 57.9014 59.0965 57.899 56.6682 57.8871C54.3538 57.8753 52.9913 56.4985 52.9747 54.1652C52.9652 52.449 52.9747 50.7304 52.9747 49.0142ZM64.9073 49.0379C64.9073 47.3502 64.8884 45.6649 64.9168 43.9772C64.9287 43.1772 64.5869 42.8544 63.8036 42.8591C61.4655 42.8758 59.1273 42.8758 56.7892 42.8591C56.0059 42.8544 55.676 43.1606 55.6807 43.9724C55.7068 47.3455 55.7045 50.7209 55.6831 54.0939C55.6783 54.863 55.9893 55.1526 56.7394 55.1479C59.106 55.1289 61.475 55.1241 63.8415 55.1502C64.6652 55.1597 64.9311 54.7847 64.9168 54.0132C64.8884 52.3516 64.9073 50.6948 64.9073 49.0379Z" fill="black"/>
</svg>
