<svg width="120" height="100" viewBox="0 0 120 100" fill="none" xmlns="http://www.w3.org/2000/svg">
<rect width="120" height="100" fill="white"/>
<path d="M15.0065 32.3951C15.6806 31.0558 16.0994 30.8376 17.6023 30.9445C21.7775 31.2412 25.6581 32.4104 28.9475 35.0673C30.2869 36.1492 31.3972 37.5147 32.6951 38.8366C32.6406 38.8606 32.7715 38.817 32.8892 38.7516C35.8253 37.1155 38.7484 35.4534 41.7084 33.8632C42.3061 33.5425 42.509 33.2982 42.2756 32.6263C40.7465 28.2135 39.2479 23.7875 37.7362 19.3681C37.6511 19.1216 37.553 18.8773 37.4744 18.6286C36.9684 17.0362 37.9892 15.771 39.6383 16.035C42.9562 16.5694 46.2827 17.0777 49.5766 17.7495C54.622 18.7791 59.5148 20.3017 64.0651 22.7797C66.1679 23.9249 68.0984 25.297 69.7082 27.0988C69.9111 27.3257 70.2798 27.4871 70.5895 27.5263C75.2532 28.1284 79.7337 29.3565 83.9895 31.3764C91.0527 34.727 96.7286 39.7135 101.207 46.0962C102.123 47.4028 102.915 48.7945 103.777 50.1404C104.304 50.9649 104.27 51.7437 103.781 52.59C99.4379 60.1419 93.6333 66.2191 85.9353 70.3789C81.1363 72.9726 76.0145 74.5759 70.5895 75.1692C69.2633 75.3132 67.9283 75.3742 66.602 75.5095C66.3141 75.54 65.9629 75.6535 65.7731 75.8541C62.2437 79.593 57.7326 81.3664 52.8268 82.2869C50.9225 82.6447 48.9789 82.8257 47.0462 82.9871C45.4865 83.1158 44.6445 82.3087 44.782 80.7491C45.0023 78.2689 45.3208 75.7952 45.6981 73.3347C45.8181 72.5581 46.2609 71.8295 46.5794 71.0181C41.715 68.996 36.9706 66.7688 32.6558 63.8218C31.6284 64.9452 30.721 66.121 29.6303 67.0917C26.0442 70.2852 21.7033 71.5569 17.0112 71.8339C16.0121 71.8928 15.4232 71.2755 15 70.4509C15 69.4039 15 68.3568 15 67.3076C15.0545 66.9979 15.1287 66.6903 15.1614 66.3784C15.517 62.8664 16.143 59.4068 17.827 56.2678C18.765 54.5205 19.9582 52.9107 21.0729 51.1831C20.8155 50.8908 20.4141 50.472 20.0542 50.0204C17.2119 46.4605 15.9118 42.3006 15.349 37.8528C15.2487 37.0217 15.1222 36.1928 15.0065 35.3639C15.0065 34.3736 15.0065 33.3854 15.0065 32.3951ZM18.6538 67.9904C23.7363 67.0786 27.7783 65.1044 30.0688 60.4647C30.9086 58.7633 32.0931 58.5451 33.5393 59.7667C34.1806 60.3098 34.8459 60.8355 35.5527 61.2849C41.5885 65.1219 48.1042 67.8966 54.9012 70.0648C61.9972 72.3291 69.1062 72.3705 76.2392 70.3244C86.5897 67.3556 94.3073 60.9817 99.8632 51.8506C100.009 51.6084 100.014 51.122 99.8676 50.882C94.364 41.836 86.7293 35.4708 76.4944 32.4802C71.3726 30.9838 66.1112 30.2814 60.8389 31.3197C50.737 33.3069 41.3747 37.1243 33.0747 43.3498C32.152 44.0413 30.9784 43.8057 30.3654 42.8176C30.1822 42.5231 30.0491 42.1981 29.8855 41.8905C27.5275 37.4995 23.5531 35.6628 18.6581 34.7444C18.9679 36.7382 19.138 38.5901 19.5612 40.381C20.4534 44.1635 21.9956 47.5795 25.3614 49.883C26.4717 50.6443 26.3866 52.0883 25.2982 52.9151C24.7899 53.3012 24.2511 53.6567 23.8017 54.1017C21.5179 56.366 20.2614 59.1908 19.5721 62.2687C19.1642 64.0945 18.9701 65.9661 18.6538 67.9904ZM63.9582 27.0944C57.2506 22.9455 49.7533 21.3618 42.0684 20.101C43.4164 24.1038 44.7187 27.9735 46.0537 31.9414C51.8081 29.6422 57.6716 27.6616 63.9582 27.0944ZM48.5121 79.172C52.901 78.7226 57.0237 77.7563 60.5989 75.3808C57.3116 74.4428 54.0309 73.5179 50.7589 72.5581C50.1721 72.3858 49.9823 72.7086 49.7685 73.11C48.7717 74.9838 48.6648 77.0321 48.5121 79.172Z" fill="black"/>
<path d="M67.0164 52.1317C67.1277 45.9345 68.1159 40.7298 70.7836 35.9418C71.0018 35.5491 71.3093 35.1412 71.6824 34.9078C72.3804 34.4737 73.1286 34.5348 73.783 35.0758C74.4636 35.6364 74.5988 36.4631 74.2127 37.3705C73.4754 39.1025 72.5505 40.7844 72.051 42.584C69.9089 50.2885 70.2907 57.812 74.0382 65.0126C74.4701 65.8437 74.6577 66.653 74.0011 67.4426C73.4842 68.0621 72.7796 68.3152 72.0532 67.9858C71.5907 67.7764 71.1348 67.3597 70.8731 66.9169C69.0037 63.7452 67.9719 60.2791 67.4658 56.6537C67.2215 54.8999 67.1124 53.1286 67.0164 52.1317Z" fill="black"/>
<path d="M59.5562 52.2584C59.7198 45.9173 60.6666 40.6689 63.4129 35.883C63.7095 35.3661 64.3465 34.8164 64.894 34.7335C65.435 34.6506 66.1963 34.9996 66.6216 35.4097C67.215 35.9812 67.0383 36.7839 66.7154 37.5278C65.989 39.2009 65.1492 40.8456 64.6257 42.582C62.8174 48.5872 62.9133 54.6143 64.7239 60.6152C64.8656 61.0864 65.0598 61.5488 65.1601 62.0287C65.3848 63.0997 64.8482 64.0508 63.9189 64.3126C62.9482 64.5852 61.9797 64.1228 61.6503 63.0627C61.1159 61.3481 60.5728 59.6183 60.2543 57.8558C59.866 55.7224 59.7089 53.5432 59.5562 52.2584Z" fill="black"/>
<path d="M85.5907 45.7691C85.595 47.8217 83.9459 49.4905 81.9085 49.497C79.8712 49.5036 78.2112 47.8414 78.2068 45.7887C78.2024 43.7317 79.845 42.0673 81.8889 42.0586C83.9241 42.0521 85.5863 43.7164 85.5907 45.7691Z" fill="black"/>
</svg>
