<svg width="120" height="100" viewBox="0 0 120 100" fill="none" xmlns="http://www.w3.org/2000/svg">
<rect width="120" height="100" fill="white"/>
<path d="M62.5994 77.7234C63.1735 82.2065 63.7196 86.4936 64.2843 90.8996C64.6927 90.8996 65.0871 90.8903 65.4839 90.902C66.1723 90.923 66.6041 91.2637 66.5947 91.9708C66.5854 92.6289 66.17 92.979 65.5235 92.9883C64.0976 93.0047 62.6694 93.0023 61.2435 92.9907C60.5573 92.986 60.1069 92.6266 60.1163 91.9335C60.1256 91.2404 60.5877 90.909 61.2738 90.902C61.5329 90.8996 61.7919 90.902 62.1606 90.902C61.9669 89.3267 61.7849 87.8121 61.5912 86.2999C61.2038 83.2707 60.7977 80.2438 60.436 77.21C60.366 76.6289 60.1536 76.2788 59.6355 75.9894C57.6052 74.8529 55.5982 73.6743 53.5888 72.5005C52.6763 71.9684 52.562 71.6136 52.9914 70.6381C54.8164 66.4888 56.6483 62.344 58.5107 58.12C56.9494 57.8586 55.4395 57.6416 53.9459 57.3452C52.5503 57.0698 51.1547 56.7641 49.7848 56.3814C47.5374 55.7536 45.5281 56.218 43.6798 57.5599C41.9575 58.8131 40.6342 60.4257 39.5444 62.239C39.2293 62.7641 38.9096 63.2495 38.1978 63.1095C37.5327 62.9788 37.388 62.4281 37.2853 61.868C36.3215 56.4957 37.7754 51.9753 42.0135 48.435C42.2329 48.2506 42.4592 48.0732 42.7229 47.8585C42.5432 47.7302 42.4079 47.6345 42.2749 47.5365C41.5397 46.9857 41.4487 46.365 42.0998 45.7068C46.5526 41.2144 51.7755 38.0802 58.0509 36.9297C62.6064 36.0942 67.0778 36.4722 71.6239 38.3952C71.2925 37.9145 71.0988 37.6204 70.8911 37.3357C68.8398 34.5119 66.6997 31.7464 64.7557 28.8503C62.6367 25.6904 61.4652 22.1805 61.6589 18.3158C61.8292 14.9342 63.0568 11.961 65.3975 9.5106C67.5516 7.25621 70.2727 6.55609 73.2412 7.26555C75.9157 7.90499 78.4174 9.03685 80.4874 10.9318C83.2646 13.4756 84.2354 16.6192 83.0756 20.1898C82.4921 21.9868 81.4583 23.6507 80.5155 25.3077C80.002 26.2108 78.9822 26.1338 78.5084 25.2003C78.1584 24.5095 77.9834 23.7277 77.7406 22.9833C77.2109 21.3543 76.7138 19.7137 76.149 18.0987C75.932 17.478 75.5656 16.9085 75.2435 16.2668C73.1572 17.1232 71.5306 16.1944 69.7803 14.8735C69.4862 15.6507 69.1198 16.2831 69.0148 16.9576C68.422 20.7219 69.1618 24.2248 71.4932 27.2633C73.6893 30.1245 76.0627 32.8503 78.3054 35.6764C79.918 37.7091 81.3439 39.8725 82.2798 42.3159C84.0604 46.9577 82.9845 51.0441 79.1596 54.2156C76.4244 56.4817 73.1992 57.5716 69.7476 58.0406C67.7966 58.3044 65.8199 58.3837 63.7756 58.5541C63.5422 60.8971 63.2995 63.2939 63.0661 65.6906C62.7907 68.5004 62.5387 71.3103 62.2353 74.1178C62.163 74.7899 62.331 75.1819 62.9378 75.518C64.8468 76.5728 66.7137 77.7047 68.6157 78.7736C69.2435 79.1259 69.5516 79.581 69.5189 80.3138C69.4816 81.1866 69.5096 82.0595 69.5096 82.9346C69.5096 83.6441 69.2108 84.1645 68.464 84.1738C67.7173 84.1832 67.2902 83.6651 67.4325 82.9649C67.8503 80.9369 66.8514 79.8821 65.1175 79.1656C64.289 78.8132 63.5515 78.2741 62.5994 77.7234ZM48.8677 49.4478C47.6845 49.2681 46.6249 49.0861 45.5608 48.9601C45.276 48.9251 44.891 48.9647 44.6879 49.1328C43.5538 50.0779 42.3309 50.9601 41.3857 52.0733C39.7404 54.0126 39.045 56.351 39.0846 58.8668C39.9505 58.0593 40.7603 57.2378 41.6401 56.4934C44.0322 54.4677 46.723 53.5109 49.8875 54.2436C52.1512 54.7687 54.4173 55.3125 56.7067 55.6882C61.3251 56.4444 65.9693 56.6661 70.6017 55.7699C73.7453 55.1608 76.6274 54.0009 78.8608 51.5832C80.8095 49.4735 81.5446 47.0184 80.6788 44.2553C80.2401 42.855 79.7127 41.3988 78.8655 40.2272C76.6064 37.093 74.2097 34.0522 71.7593 31.0627C69.5422 28.3532 67.5376 25.5737 66.9681 22.0078C66.5737 19.534 66.4454 17.0719 67.5516 14.7335C68.4734 12.7848 69.9833 12.4534 71.7476 13.681C72.2914 14.0591 72.9261 14.3088 73.5213 14.6191C73.5913 14.5561 73.6589 14.4955 73.729 14.4324C72.9145 12.8152 73.1665 11.1606 73.5329 9.46392C71.0148 8.80581 68.7604 9.07186 66.9308 10.9458C64.9681 12.9552 63.9273 15.4196 63.7546 18.2224C63.5399 21.6997 64.583 24.8596 66.499 27.6904C68.5364 30.6986 70.7558 33.5854 72.8865 36.5306C74.135 38.2576 75.3136 40.0382 75.8667 42.1199C77.1549 46.9717 75.5539 51.3475 69.995 52.568C66.8818 53.2518 63.9413 52.5003 61.0591 51.3428C60.6414 51.1748 60.0976 51.1234 59.6589 51.2261C56.1256 52.0476 52.541 52.379 48.926 52.428C48.5269 52.4327 47.9085 52.1783 47.7801 51.8772C47.6285 51.5248 47.8222 50.9531 48.0112 50.5447C48.1955 50.1386 48.5619 49.8236 48.8677 49.4478ZM44.5573 46.1502C44.5549 46.2763 44.5526 46.4023 44.5479 46.5307C45.7008 46.757 46.8467 47.0767 48.0112 47.1911C49.8502 47.3731 51.5818 46.8667 53.2458 46.0989C53.8549 45.8165 54.422 45.9215 54.7207 46.568C55.0217 47.2168 54.73 47.6952 54.1186 47.9869C53.6985 48.1853 53.2784 48.4 52.835 48.5283C51.9739 48.7804 51.6051 49.4782 51.1057 50.1643C53.4721 50.3767 59.0171 49.4221 61.5422 48.379C62.8187 47.8515 64.0136 47.2214 64.7114 45.9192C65.0008 45.3801 65.5539 45.2891 66.079 45.5738C66.6717 45.8935 66.8188 46.5236 66.4524 46.9927C65.7849 47.8492 64.9751 48.5983 64.2026 49.3685C63.9879 49.5808 63.6916 49.7115 63.3485 49.9356C65.4349 50.6054 67.4185 50.9321 69.4792 50.5353C72.0207 50.0476 73.799 48.435 74.051 46.3626C74.3194 44.1432 73.5936 42.3089 71.7476 41.0557C70.8001 40.4116 69.7313 39.8445 68.6344 39.5388C59.2855 36.9367 51.5258 40.1525 44.5573 46.1502ZM55.1291 70.9789C56.835 71.959 58.4477 72.8879 60.1629 73.8727C60.674 68.6055 61.1665 63.5273 61.6915 58.1153C61.1758 58.3837 60.6787 58.4724 60.562 58.7314C58.7347 62.7711 56.9587 66.8342 55.1291 70.9789ZM75.5586 10.2831C75.1059 12.038 75.2365 13.0019 75.8737 13.8187C76.4781 14.5911 77.0522 15.3916 77.5703 16.2224C77.8247 16.6285 78.1047 16.7989 78.4711 16.5281C79.1409 16.0357 79.792 15.5083 80.3754 14.9202C80.5295 14.7662 80.5341 14.2598 80.3988 14.052C79.2412 12.2621 77.5376 11.1606 75.5586 10.2831ZM81.3999 17.1746C80.4758 17.7487 79.6333 18.2738 78.7278 18.8362C79.0662 19.9751 79.4209 21.1606 79.827 22.5212C80.8095 20.7382 81.4653 19.0976 81.3999 17.1746Z" fill="black"/>
<path d="M71.8923 11.7066C71.2809 11.6366 70.8701 11.2818 70.8071 10.612C70.7464 9.97727 71.2902 9.42884 71.9343 9.44518C72.6204 9.46152 73.0102 9.83258 73.0568 10.5164C73.1035 11.1651 72.5831 11.6996 71.8923 11.7066Z" fill="black"/>
</svg>
