<svg width="120" height="100" viewBox="0 0 120 100" fill="none" xmlns="http://www.w3.org/2000/svg">
<rect width="120" height="100" fill="white"/>
<path d="M66.1042 58.2164C61.9973 58.2164 57.9826 58.2164 53.8296 58.2164C53.8296 58.5571 53.8296 58.8927 53.8296 59.2309C53.8296 68.9486 53.8296 78.6663 53.8296 88.3841C53.8296 90.6028 54.7468 91.6353 56.9706 91.9401C57.8725 92.0631 58.4669 92.719 58.4233 93.544C58.3798 94.4074 57.6957 94.9915 56.7247 94.9992C53.5606 95.0222 50.8013 92.2501 50.7706 88.9375C50.7321 84.974 50.7603 81.0106 50.7603 77.0471C50.7603 70.9086 50.7706 64.7725 50.7373 58.634C50.7347 58.201 50.3914 57.768 50.1941 57.3401C50.1557 57.2582 50.0635 57.2018 49.9994 57.1301C48.7286 55.6902 48.8619 51.0786 50.2684 49.772C50.6835 49.3877 50.7654 49.029 50.54 48.6139C50.1634 47.9222 49.8021 47.1843 49.2718 46.6181C47.7858 45.0322 46.2281 43.5155 44.6755 41.9937C43.5867 40.9279 43.0615 39.6674 43.0768 38.1353C43.1076 35.1941 43.0794 32.2529 43.0871 29.3117C43.0948 26.3295 45.024 24.4157 48.0267 24.4157C55.9843 24.4106 63.9444 24.4106 71.9021 24.4157C74.9073 24.4183 76.8314 26.327 76.8416 29.3143C76.8519 32.2862 76.8288 35.2607 76.8493 38.2326C76.8596 39.6904 76.3497 40.9074 75.3223 41.9271C73.78 43.4592 72.2377 44.9912 70.7184 46.5438C70.3418 46.9281 70.001 47.3637 69.7295 47.8248C69.2786 48.5883 68.925 49.3902 69.9472 50.0307C69.9729 50.0461 69.9908 50.0768 70.0113 50.1025C71.2436 51.6089 70.9695 56.1181 69.5962 57.4759C69.3785 57.6911 69.194 58.0549 69.1889 58.3496C69.1581 61.2267 69.153 64.1039 69.1966 66.981C69.2017 67.2936 69.4861 67.7265 69.7653 67.8931C71.3563 68.841 72.2121 70.1989 72.2326 72.0487C72.2556 74.0291 72.2454 76.0121 72.2351 77.9951C72.2249 79.8859 71.3666 81.2719 69.7397 82.2327C69.463 82.3966 69.2043 82.8399 69.194 83.1601C69.1428 85.0458 69.1838 86.9314 69.1633 88.817C69.13 91.9658 66.9932 94.4483 63.8958 94.9377C63.4935 95.0017 63.0503 95.0376 62.6634 94.9377C61.9 94.7404 61.467 94.1896 61.5157 93.3825C61.5643 92.5832 62.0537 92.1015 62.8325 91.9555C65.4304 91.4687 66.0991 90.6745 66.0991 88.0331C66.0991 86.4036 66.1298 84.7716 66.0735 83.1422C66.0632 82.8219 65.7942 82.389 65.515 82.2224C63.8958 81.2514 63.0349 79.8705 63.0324 77.9772C63.0272 76.0275 63.0272 74.0778 63.0324 72.1281C63.0375 70.2348 63.8906 68.841 65.5252 67.8931C65.7609 67.7573 66.0709 67.4703 66.0735 67.2526C66.117 64.255 66.1042 61.2575 66.1042 58.2164ZM53.7425 48.9265C57.9314 48.9265 62.0101 48.9265 66.0735 48.9265C67.3161 45.5831 67.3161 45.5831 69.8448 43.0544C70.9054 41.9937 71.9764 40.9407 73.0217 39.8595C73.3035 39.57 73.6827 39.2011 73.698 38.8552C73.7672 37.1207 73.7288 35.3786 73.7288 33.6646C64.4978 33.6646 55.3745 33.6646 46.1615 33.6646C46.1615 35.0762 46.2025 36.4444 46.1461 37.8074C46.1103 38.7066 46.3716 39.3958 47.0403 40.0107C48.0267 40.9202 48.9362 41.9091 49.8995 42.8443C51.6724 44.5634 53.4761 46.2594 53.7425 48.9265ZM73.698 30.5082C73.985 28.3689 73.7057 27.403 71.1027 27.4491C65.9326 27.5414 60.7573 27.4773 55.5846 27.4773C53.061 27.4773 50.54 27.4696 48.0164 27.4799C46.7098 27.485 46.1769 28.0358 46.1615 29.3578C46.1564 29.7293 46.1615 30.1008 46.1615 30.5082C55.3924 30.5082 64.5158 30.5082 73.698 30.5082ZM52.3385 55.0343C57.4779 55.0343 62.5353 55.0343 67.5953 55.0343C67.5953 54.0198 67.5953 53.0744 67.5953 52.0855C62.4943 52.0855 57.4369 52.0855 52.3385 52.0855C52.3385 53.0795 52.3385 54.0275 52.3385 55.0343ZM69.1735 75.1487C69.1735 74.1265 69.194 73.1017 69.1684 72.0794C69.1428 71.0982 68.5125 70.4551 67.6414 70.4551C66.7703 70.4551 66.1273 71.0982 66.117 72.0768C66.0914 74.0573 66.094 76.0403 66.117 78.0207C66.1298 78.9994 66.7729 79.645 67.6414 79.645C68.51 79.645 69.1402 79.002 69.1684 78.0207C69.1966 77.0676 69.1735 76.1069 69.1735 75.1487Z" fill="black"/>
<path d="M41.4371 8.86426C41.9905 9.18707 42.4568 9.35104 42.7771 9.66617C45.7746 12.6279 48.7542 15.6075 51.7236 18.5999C52.4692 19.3506 52.4768 20.2575 51.8261 20.8929C51.1779 21.5257 50.294 21.4924 49.5357 20.7392C46.5458 17.7673 43.5713 14.7825 40.5942 11.8003C40.0793 11.2854 39.7795 10.65 40.1971 9.99411C40.4738 9.556 40.9811 9.26649 41.4371 8.86426Z" fill="black"/>
<path d="M80.1312 10.4758C79.7828 11.0548 79.6111 11.5185 79.296 11.8388C76.3574 14.8133 73.3982 17.7699 70.4314 20.7187C69.6372 21.5078 68.7149 21.536 68.0718 20.852C67.4518 20.1935 67.503 19.325 68.2614 18.5615C71.2103 15.5947 74.172 12.6433 77.1285 9.68414C77.6384 9.1743 78.2558 8.81818 78.9219 9.21273C79.3857 9.48686 79.7033 10.0121 80.1312 10.4758Z" fill="black"/>
<path d="M58.4361 13.5707C58.4361 11.6518 58.4284 9.73542 58.4386 7.81647C58.4463 6.68918 59.0407 6 59.9682 6C60.8956 6 61.4977 6.68918 61.5002 7.81391C61.5079 11.7133 61.5079 15.6127 61.5002 19.5146C61.4977 20.6393 60.8956 21.3311 59.9682 21.3311C59.0407 21.3311 58.4438 20.6419 58.4361 19.5146C58.4284 17.5342 58.4361 15.5512 58.4361 13.5707Z" fill="black"/>
</svg>
