<svg width="120" height="100" viewBox="0 0 120 100" fill="none" xmlns="http://www.w3.org/2000/svg">
<rect width="120" height="100" fill="white"/>
<path d="M94 37.3937C93.9714 42.1869 93.2056 46.3269 92.1343 50.4211C91.5271 52.7451 91.3247 55.113 91.3915 57.5115C91.5156 61.9953 91.6779 66.481 91.7276 70.9667C91.7963 77.1825 87.6811 82.3633 81.6506 83.7916C73.823 85.6459 66.0051 79.665 65.8809 71.6045C65.8408 68.9902 66.2132 66.3702 66.3603 63.7521C66.534 60.6605 67.1833 57.5745 66.7002 54.4771C66.4347 52.7719 66.0394 51.0494 65.4284 49.4396C63.492 44.3294 62.3386 39.0761 62.2183 33.6127C62.14 30.0704 62.627 26.6159 64.1642 23.3772C66.9465 17.5127 72.3412 15.2594 78.049 16.2104C86.2928 17.5853 90.9981 22.81 93.1464 30.6356C93.8014 33.0188 93.9828 35.4707 94 37.3937ZM76.9185 39.9106C76.7619 40.1245 76.6187 40.3116 76.4869 40.5045C73.823 44.4478 71.9612 48.7636 70.5614 53.2951C69.0452 58.199 68.2775 63.2308 68.0235 68.3448C67.9452 69.9336 67.8116 71.5606 68.0503 73.1169C68.858 78.4046 73.9204 82.4129 79.2101 82.1131C84.8683 81.7923 89.48 77.3944 89.711 71.9348C90.0089 64.896 88.9166 58.1073 85.7639 51.7273C83.5506 47.2531 80.6327 43.3193 76.9185 39.9106ZM90.8721 46.5427C90.9275 46.5389 90.9828 46.5331 91.0382 46.5293C91.2483 45.2365 91.4927 43.9475 91.6627 42.649C92.2241 38.3734 92.142 34.134 90.8874 29.9634C88.8345 23.1404 83.648 18.7024 76.7046 18.0818C72.2648 17.6846 68.753 19.3956 66.4443 23.3141C65.3004 25.2543 64.7275 27.3893 64.4392 29.6063C63.9618 33.29 64.2635 36.9411 64.9624 40.5675C65.247 42.0417 65.6384 43.493 65.9822 44.9558C66.196 44.8355 66.2571 44.7362 66.2992 44.6293C68.3023 39.5898 71.0254 35.0124 74.9096 31.1779C75.0815 31.008 75.1674 30.6795 75.175 30.4217C75.2037 29.3237 75.1712 28.2257 75.196 27.1295C75.2113 26.4364 75.6658 25.9914 76.2463 26.0239C76.8039 26.0544 77.1725 26.4822 77.182 27.1582C77.1954 28.1359 77.2164 29.1155 77.1744 30.0933C77.1515 30.6146 77.3482 30.901 77.7702 31.1875C83.0121 34.7565 87.112 39.353 90.0643 44.973C90.3393 45.4943 90.6028 46.0195 90.8721 46.5427ZM76.3571 32.6426C76.2597 32.7152 76.1776 32.7629 76.1127 32.8278C71.8676 37.1207 69.1025 42.2842 67.2578 47.9825C67.2043 48.1449 67.2215 48.3549 67.2731 48.523C67.6989 49.8998 68.14 51.2709 68.5735 52.6363C68.5716 52.6363 68.6365 52.6229 68.648 52.5904C68.8695 51.9374 69.0757 51.2804 69.303 50.6293C70.8555 46.1741 72.8415 41.9405 75.7021 38.1614C76.3857 37.2581 76.8536 37.2238 77.7091 37.959C82.7906 42.3339 86.5373 47.656 88.9663 53.91C89.0828 54.2079 89.1954 54.5077 89.3367 54.8763C89.5793 53.3848 89.8199 52.0099 90.0166 50.6274C90.0643 50.2932 90.0509 49.9132 89.9364 49.6C88.4373 45.4962 86.1496 41.868 83.2355 38.6312C81.1884 36.3606 78.9236 34.3364 76.3571 32.6426Z" fill="black"/>
<path d="M28.6339 63.1945C28.6339 60.8572 28.632 58.5198 28.6339 56.1805C28.6377 53.2626 27.8662 50.4784 27.217 47.6674C26.1571 43.0844 25.6454 38.4497 26.2736 33.7521C27.0814 27.7349 29.4684 22.5751 34.6129 19.0461C38.161 16.6133 42.1253 15.5477 46.4086 16.1855C51.4729 16.9398 54.6467 20.0621 56.415 24.733C57.83 28.472 57.9885 32.3638 57.6524 36.2995C57.2571 40.9418 56.161 45.4122 54.4366 49.7375C53.1037 53.0812 52.9929 56.5491 53.3386 60.0876C53.6785 63.5535 53.9879 67.0271 54.1349 70.5045C54.4194 77.2665 49.928 82.7623 43.2806 83.9578C36.3163 85.2105 29.2851 80.0316 28.4124 72.9908C28.3093 72.1659 28.2844 71.3276 28.2787 70.495C28.2615 68.0621 28.273 65.6274 28.273 63.1945C28.3933 63.1945 28.5136 63.1945 28.6339 63.1945ZM43.1126 39.9259C42.9923 40.0175 42.9312 40.0557 42.8796 40.1054C33.723 48.7827 29.7892 59.53 30.301 72.0303C30.3182 72.4332 30.3869 72.8381 30.4652 73.2353C31.6033 78.9527 36.7383 82.6363 42.681 82.008C48.0929 81.4352 52.3131 76.4721 52.1565 70.8234C52.1203 69.4905 51.9541 68.1595 51.872 66.8266C51.4385 59.8584 49.8631 53.169 47.0025 46.7948C45.9274 44.4001 44.6804 42.1028 43.1126 39.9259ZM29.0101 46.5942C29.1323 46.5026 29.159 46.493 29.1686 46.4739C29.3519 46.1149 29.5333 45.7521 29.7167 45.3931C32.6937 39.5898 36.8643 34.8367 42.2571 31.176C42.6848 30.8857 42.8548 30.5821 42.8338 30.0723C42.7937 29.1423 42.8166 28.2104 42.8242 27.2804C42.83 26.4955 43.1852 26.0391 43.7829 26.022C44.4092 26.0029 44.8102 26.4822 44.8198 27.2938C44.8313 28.3192 44.7931 29.3485 44.8408 30.3721C44.8561 30.6891 44.9974 31.0767 45.217 31.2963C48.5054 34.5675 50.9573 38.402 52.8535 42.6108C53.203 43.3861 53.5276 44.1729 53.9077 45.057C53.9993 44.8011 54.0604 44.656 54.1043 44.5051C54.9293 41.7056 55.4602 38.8488 55.6817 35.9405C55.9185 32.8565 55.8345 29.7896 55 26.782C53.1992 20.2855 48.3927 17.1232 41.7931 18.2708C36.0508 19.2696 32.1342 22.6973 29.8713 27.985C27.2838 34.0366 27.7402 40.2734 29.0101 46.5942ZM51.4156 52.7031C51.8548 51.3205 52.2883 50.0125 52.6779 48.691C52.7638 48.3969 52.7753 48.0284 52.6817 47.7419C51.1559 43.1073 48.9751 38.8164 45.8873 35.0201C45.2036 34.1779 44.4398 33.4007 43.6912 32.5719C37.4563 36.9812 32.7587 42.4676 30.0757 49.5771C29.9935 49.7948 29.8771 50.043 29.9114 50.2569C30.1444 51.7655 30.4137 53.2703 30.6715 54.7712C30.6963 54.7464 30.7421 54.7216 30.7593 54.6834C30.8261 54.5306 30.8892 54.3759 30.9464 54.2212C33.3125 47.9119 37.0458 42.5535 42.1177 38.1308C43.2272 37.1646 43.5919 37.2008 44.4627 38.3657C46.9051 41.6369 48.6963 45.2575 50.1362 49.0596C50.5868 50.2531 50.9821 51.4676 51.4156 52.7031Z" fill="black"/>
</svg>
