<svg width="120" height="100" viewBox="0 0 120 100" fill="none" xmlns="http://www.w3.org/2000/svg">
<rect width="120" height="100" fill="white"/>
<path d="M48.5587 85.995C47.7495 85.5479 47.4205 84.8604 47.5339 83.9549C47.6644 82.918 47.6341 81.8246 47.9631 80.8534C48.7478 78.5391 50.9732 77.0437 53.4369 77.0024C54.9438 76.978 56.4507 76.9986 58.0182 76.9986C58.0182 65.0022 58.0182 53.0452 58.0182 40.9962C57.778 40.9962 57.5266 40.9962 57.2751 40.9962C53.1476 40.9962 49.02 40.9981 44.8925 40.9962C43.3856 40.9962 42.7881 40.2899 43.066 38.8096C44.5238 31.0587 45.9873 23.3078 47.4526 15.5568C47.67 14.4109 48.1635 14.0014 49.3396 14.0014C56.1785 13.9995 63.0192 13.9995 69.8581 14.0014C71.0322 14.0014 71.5276 14.4109 71.7451 15.5587C73.2085 23.3096 74.6738 31.0624 76.1316 38.8152C76.4114 40.2993 75.8159 40.9981 74.3033 41C72.4465 41.0018 70.5879 41 68.6575 41C68.6575 41.2648 68.6575 41.4696 68.6575 41.6725C68.6575 45.3751 68.6631 49.0777 68.6499 52.7803C68.648 53.1805 68.7369 53.451 69.0696 53.7309C70.4423 54.8843 70.5293 56.8399 69.3135 58.0985C68.1469 59.3046 66.1919 59.3121 65.0007 58.1154C63.768 56.8756 63.8625 54.9444 65.186 53.729C65.3997 53.5318 65.6266 53.2105 65.6285 52.9457C65.6568 49.1021 65.6474 45.2605 65.6455 41.417C65.6455 41.3043 65.6247 41.1916 65.6114 41.0432C64.1272 41.0432 62.6751 41.0432 61.1719 41.0432C61.1719 53.0058 61.1719 64.9628 61.1719 77.0005C62.6619 77.0005 64.1404 76.9874 65.619 77.0024C68.5799 77.0343 71.002 78.9824 71.5371 81.8603C71.711 82.7921 71.7224 83.7877 71.5919 84.7251C71.5276 85.1835 70.9717 85.5761 70.6371 85.9988C63.2782 85.995 55.9194 85.995 48.5587 85.995ZM50.2812 17.0202C48.9671 23.9991 47.6568 30.9572 46.3371 37.9661C55.2123 37.9661 63.993 37.9661 72.8625 37.9661C71.5409 30.9497 70.2306 23.9915 68.9165 17.0202C62.6789 17.0202 56.5074 17.0202 50.2812 17.0202ZM50.6007 82.9649C56.602 82.9649 62.6032 82.9649 68.6045 82.9649C68.6348 81.2686 67.3245 80.0137 65.498 79.9912C63.6583 79.9686 61.8186 79.9855 59.9789 79.9855C57.8801 79.9855 55.7795 79.9668 53.6808 79.9912C51.8562 80.0118 50.5232 81.3118 50.6007 82.9649Z" fill="black"/>
</svg>
