<svg width="120" height="100" viewBox="0 0 120 100" fill="none" xmlns="http://www.w3.org/2000/svg">
<rect width="120" height="100" fill="white"/>
<path d="M19.4251 76.5949L22.5866 72.8643C23.0252 72.347 23.7174 72.1217 24.3766 72.2811C26.0876 72.6959 27.8564 72.9988 29.6344 73.1811C42.8138 74.5342 54.9574 70.0691 64.7544 60.2718C74.5027 50.5236 75.2698 40.8398 76.3313 27.4371C76.4072 26.4784 76.4844 25.5036 76.5667 24.5113C76.576 24.3981 76.5795 24.255 76.5837 24.1035C76.5943 23.7048 76.6075 23.2088 76.7266 22.651C76.8882 21.8932 77.1147 21.1385 77.4 20.4076C77.9892 18.8976 77.881 17.1884 77.1023 15.718L71.9676 6.02013C71.7451 5.59967 71.6987 5.10854 71.8386 4.65416C71.9782 4.19977 72.2928 3.81939 72.7133 3.59703L79.113 0.208729C79.9875 -0.254622 81.0727 0.0793559 81.5363 0.954204L86.4616 10.2566C87.0009 11.275 87.9982 12.0214 89.1981 12.3042C91.0302 12.7357 92.5349 13.7559 93.5491 15.2543C106.375 34.1974 103.072 56.4674 84.7135 74.826C76.7901 82.7492 66.0778 87.9707 54.5499 89.5284C52.2295 89.8419 49.9342 89.9985 47.6745 89.9985C44.5248 89.9985 41.4441 89.694 38.4634 89.0862C33.1352 87.9997 28.394 85.9932 24.3709 83.1227C22.6452 81.8911 21.0146 80.5116 19.5251 79.0218C18.8654 78.3621 18.822 77.3068 19.4251 76.5949ZM79.2063 4.21612L75.9754 5.92679L79.3788 12.355L80.6305 11.5898L82.5041 10.4446L79.2063 4.21612ZM47.6508 86.4279C59.8904 86.427 72.9778 81.4908 82.1782 72.2906C99.2259 55.2427 102.367 34.6721 90.5801 17.264C89.9471 16.3288 89.0318 15.9483 88.3756 15.7937C86.8163 15.426 85.4338 14.6159 84.3958 13.4905L80.9288 15.6097C81.5595 17.6044 81.5038 19.7553 80.7403 21.7106C80.5254 22.2617 80.3547 22.8298 80.2332 23.3993C80.1831 23.6338 80.1765 23.895 80.1684 24.1975C80.1633 24.3919 80.158 24.5927 80.1404 24.8059C80.0589 25.7946 79.9817 26.7655 79.9061 27.7201C78.8261 41.355 77.9729 52.1243 67.2902 62.8072C61.9363 68.161 55.8688 72.0672 49.2564 74.4173C43.2578 76.5493 36.9226 77.3669 30.4073 76.8513L30.3397 76.9635L29.9783 77.5627C34.4374 79.3683 39.1131 80.2521 43.795 80.2518C54.0825 80.2512 64.3907 75.9967 72.4352 67.9522C84.961 55.4266 90.0661 41.1569 86.8101 27.7713C86.576 26.8092 87.1663 25.8398 88.1285 25.6057C89.0905 25.3714 90.0599 25.9618 90.2941 26.924C93.8571 41.5721 88.4153 57.0434 74.9706 70.4876C68.4104 77.0478 60.3482 81.3959 51.6554 83.0616C49.015 83.5675 46.3701 83.8188 43.7456 83.8188C38.3601 83.8186 33.066 82.758 28.105 80.6696L27.8287 81.1278C33.493 84.7074 40.4235 86.4282 47.6508 86.4279ZM24.905 79.0326L25.3173 78.349L26.5077 76.375C25.8733 76.2683 25.2424 76.1479 24.6174 76.0137L23.2533 77.6233C23.7884 78.1092 24.3395 78.5796 24.905 79.0326Z" fill="black"/>
</svg>
