<svg width="120" height="100" viewBox="0 0 120 100" fill="none" xmlns="http://www.w3.org/2000/svg">
<rect width="120" height="100" fill="white"/>
<path d="M55.8651 58.749C55.3278 60.1702 54.9542 61.7356 54.1874 63.0762C52.3681 66.2607 49.4499 67.6966 45.8357 67.3718C41.8747 67.0177 39.3374 64.71 38.0944 60.981C37.5279 59.2838 37.4009 57.5255 37.6134 55.7453C37.65 55.4473 37.6744 55.147 37.7208 54.6928C37.0908 55.1177 36.5877 55.4864 36.0553 55.8112C33.1151 57.6134 29.9991 58.4291 26.6535 57.1543C20.463 54.7953 19.0515 46.8538 24.043 42.2262C25.3788 40.9881 27.0516 40.109 28.4606 39.1419C27.5375 38.6096 26.3556 38.0454 25.3031 37.3006C20.6632 34.0136 19.6473 28.3457 22.883 24.1137C25.2787 20.9805 29.33 19.8426 33.3227 21.3346C34.8368 21.9012 36.2287 22.7925 37.7013 23.5471C37.7013 22.1136 37.5377 20.5825 37.7306 19.0977C38.5364 12.8559 44.7563 9.28077 50.3315 11.8303C53.6355 13.3419 55.196 16.138 55.5989 19.6203C55.7503 20.9293 55.6233 22.2699 55.6233 23.6643C56.4732 23.1295 57.24 22.5923 58.0556 22.1454C59.9921 21.0831 62.0581 20.5117 64.2828 20.7559C67.8164 21.1442 70.2755 23.0489 71.5966 26.3017C72.9324 29.5911 72.2755 32.6363 70.0606 35.3617C68.8249 36.8806 67.2449 37.9502 65.4769 38.7585C65.1741 38.8977 64.8713 39.0369 64.527 39.1956C65.4549 39.6865 66.3731 40.0967 67.2108 40.634C70.046 42.446 72.0362 44.888 72.2218 48.3703C72.5564 54.7196 66.7394 59.1373 60.5196 57.3253C59.8212 57.1226 59.1472 56.832 58.2241 56.495C62.5392 63.3522 67.5526 69.323 73.7554 74.3511C73.9288 72.9982 74.0094 71.7039 74.2731 70.4463C75.5625 64.3095 80.7933 59.4303 87.0059 58.5097C88.4076 58.3021 88.9424 58.6659 89.2892 60.0701C91.1793 67.7137 87.5529 75.1374 80.3904 78.2852C80.2512 78.3463 80.1169 78.4171 79.8458 78.5514C80.1486 78.7492 80.3757 78.9104 80.6151 79.0496C85.7482 82.0337 91.233 84.0191 97.1207 84.8714C97.5603 84.9349 98.0365 85.0618 98.3931 85.3085C99.0207 85.7407 99.1403 86.4294 98.8497 87.1034C98.5225 87.8677 97.868 88.1925 97.0548 88.0021C93.9803 87.2817 90.8569 86.7078 87.8532 85.7554C82.4661 84.0484 77.6407 81.2108 73.1425 77.809C72.974 77.682 72.7957 77.5697 72.5612 77.4085C72.3219 77.6991 72.0924 77.9678 71.8726 78.2413C66.5685 84.8616 57.1472 86.068 50.3437 80.9983C49.4426 80.3268 49.296 79.5746 49.9481 78.5392C53.2204 73.3303 57.87 70.5977 64.0947 70.732C64.4244 70.7393 64.7541 70.732 65.1497 70.732C63.4867 68.7344 61.8065 66.8272 60.2534 64.8199C58.6978 62.8052 57.2619 60.6904 55.8651 58.749ZM52.434 46.3264C53.5574 47.755 54.5513 49.1445 55.6771 50.4192C57.2253 52.1701 59.0153 53.6256 61.301 54.3435C64.6222 55.3887 67.9409 53.7233 68.8982 50.5242C69.6406 48.0456 68.676 45.4423 66.295 43.7451C63.1326 41.4936 59.4646 41.032 55.6697 40.8171C55.2082 42.9783 54.1947 44.7781 52.434 46.3264ZM55.6819 37.684C56.964 37.5448 58.207 37.4667 59.428 37.2664C62.1533 36.8195 64.7883 36.0894 66.9153 34.1968C68.5881 32.7072 69.4599 30.8463 69.035 28.5801C68.2999 24.646 64.3634 22.7095 60.4903 24.4067C56.8736 25.9916 54.6123 28.9977 52.5097 32.2139C54.224 33.6742 55.1984 35.4911 55.6819 37.684ZM43.4693 30.5899C45.4694 29.9867 47.4108 29.8695 49.3693 30.4751C49.528 30.524 49.8772 30.3237 49.9725 30.1479C50.3412 29.4837 50.6733 28.795 50.9591 28.0942C52.0653 25.3957 52.8931 22.646 52.5195 19.6667C52.119 16.4799 49.7478 14.1966 46.7246 14.1209C43.7795 14.0476 41.2837 16.2357 40.7929 19.3883C40.1628 23.4641 41.7306 27.0172 43.4693 30.5899ZM37.6134 37.6449C38.0285 35.408 39.1225 33.662 40.7196 32.187C39.3106 29.955 37.8234 27.8597 35.7599 26.3164C34.5413 25.4031 33.1713 24.5581 31.7378 24.0892C28.3385 22.9806 25.0052 24.9806 24.2408 28.375C23.6743 30.8927 24.9368 33.4935 27.562 35.115C30.6145 36.9954 34.0333 37.4276 37.6134 37.6449ZM37.5987 40.8318C34.6756 40.9344 31.9161 41.33 29.2982 42.4264C27.7353 43.0833 26.3141 43.9649 25.3104 45.3764C23.9429 47.3007 23.6865 49.3765 24.7683 51.4937C25.8672 53.6427 27.7158 54.6928 30.1212 54.6341C30.8953 54.6146 31.711 54.4559 32.4289 54.1677C36.2409 52.6366 38.5609 49.5425 40.744 46.2482C39.0542 44.7586 38.0554 42.9857 37.5987 40.8318ZM43.4816 47.8331C43.0908 48.6561 42.6952 49.4058 42.3704 50.1872C41.1983 53.02 40.2678 55.8991 40.7831 59.0371C41.3008 62.1922 43.7209 64.3632 46.6879 64.329C49.6086 64.2973 52.0433 62.1068 52.4804 59.0078C53.0543 54.9492 51.5403 51.3887 49.7649 47.8307C47.6428 48.5755 45.5841 48.5535 43.4816 47.8331ZM40.6024 39.2372C40.6073 42.5705 43.3204 45.2861 46.6415 45.2787C49.9481 45.2714 52.6831 42.5217 52.6782 39.2127C52.6709 35.8916 49.9481 33.1858 46.6196 33.1956C43.2642 33.2078 40.5975 35.8818 40.6024 39.2372ZM86.4198 61.9065C79.3208 63.4987 75.9215 70.8053 77.2988 76.0337C83.5504 74.6173 87.8142 68.014 86.4198 61.9065ZM53.3596 79.1741C59.6917 83.0521 67.0984 80.2193 69.7993 75.6161C63.9409 72.0702 56.7003 74.0825 53.3596 79.1741Z" fill="black"/>
</svg>
