<svg width="120" height="100" viewBox="0 0 120 100" fill="none" xmlns="http://www.w3.org/2000/svg">
<rect width="120" height="100" fill="white"/>
<path d="M93.9198 72.2165C93.8995 75.7704 92.6465 78.8037 90.1653 81.3367C89.0678 82.4568 87.7044 82.9796 86.172 83.0968C83.0597 83.3379 80.1684 82.4275 77.3356 81.3074C72.3146 79.3243 67.7263 76.5501 63.3454 73.4334C52.4628 65.6946 43.0518 56.4594 35.3265 45.543C32.1039 40.9908 29.2666 36.2109 27.3804 30.9308C26.4587 28.3504 25.7939 25.7115 26.1184 22.926C26.2987 21.3688 26.9274 20.055 28.0407 18.9101C32.3518 14.4706 37.4021 14.1889 42.876 16.1878C46.8446 17.6369 50.3963 19.8431 53.7902 22.3108C62.3065 28.4992 69.8808 35.7444 77.117 43.3548C81.7144 48.191 86.0074 53.2818 89.4397 59.0375C91.4363 62.3863 93.0769 65.8839 93.6719 69.7871C93.7936 70.5894 93.8387 71.4074 93.9198 72.2165ZM45.7989 22.0471C43.7099 20.9068 41.6073 19.9468 39.3221 19.3924C36.0657 18.6014 33.242 19.2955 30.9726 21.8083C30.5692 22.2545 30.1816 22.926 30.1884 23.4894C30.2019 24.8506 30.292 26.2501 30.6346 27.5617C31.838 32.1815 34.1209 36.3168 36.7125 40.2741C45.0508 53.0047 55.6967 63.4523 68.3461 71.8649C72.1614 74.4025 76.1435 76.6876 80.5312 78.0938C82.1651 78.6167 83.9184 78.8105 85.6333 79.002C86.1629 79.0606 86.8751 78.7519 87.2852 78.3755C88.4841 77.269 89.2751 75.8741 89.5771 74.247C90.3118 70.3032 88.8086 66.8687 87.2402 63.5807C86.1021 63.5807 85.088 63.6912 84.1054 63.5605C81.3019 63.1864 78.796 61.9536 76.3756 60.5767C68.7562 56.2431 62.1284 50.6835 56.3683 44.0917C52.6206 39.8031 49.274 35.2284 46.9731 29.9753C45.8846 27.485 45.0012 24.934 45.7989 22.0471ZM49.6729 24.2917C49.6098 24.3435 49.5444 24.3954 49.4813 24.445C49.4948 24.605 49.4948 24.7672 49.5264 24.925C49.9523 27.1357 50.9484 29.1189 52.0279 31.0592C55.3587 37.0335 59.7419 42.1739 64.6885 46.8479C69.3872 51.2874 74.4691 55.2109 80.3194 58.0369C81.7346 58.7197 83.2468 59.1975 84.7161 59.7699C84.7905 59.646 84.8671 59.522 84.9415 59.3958C75.1609 45.7098 63.0659 34.3472 49.6729 24.2917Z" fill="black"/>
<path d="M96.0044 38.9874C96.0044 39.3525 96.0156 39.7198 96.0021 40.0849C95.9548 41.3717 95.0894 42.3858 94.0212 42.4196C92.944 42.4534 92.0223 41.41 91.9299 40.0917C91.833 38.6922 91.8127 37.2769 91.5716 35.9C90.9563 32.3641 89.5028 29.2113 86.999 26.5882C86.0886 25.6349 86.0751 24.3256 86.9382 23.503C87.8261 22.6557 89.0588 22.712 89.9963 23.7239C93.3113 27.3048 95.1367 31.5799 95.8038 36.3823C95.8646 36.8285 95.9232 37.2747 95.9503 37.7231C95.9751 38.1423 95.9548 38.566 95.9548 38.9874C95.9706 38.9874 95.9863 38.9874 96.0044 38.9874Z" fill="black"/>
<path d="M33.9924 68.6762C34.9705 68.6649 35.6691 69.2058 36.0567 70.3371C36.8748 72.7281 38.0646 74.9074 39.6917 76.8432C41.1566 78.583 42.8738 80.005 44.9133 81.0326C46.1618 81.6614 46.6305 82.7115 46.1325 83.6806C45.4744 84.9606 44.4017 85.3482 43.1037 84.6744C37.5396 81.7921 34.06 77.1722 32.0814 71.3219C32.0115 71.1146 32.0048 70.878 32.007 70.6549C32.016 69.5506 32.8837 68.6897 33.9924 68.6762Z" fill="black"/>
<path d="M88.0672 36.2356C88.0717 37.4481 87.3979 38.2594 86.3905 38.4577C85.4508 38.6425 84.5674 38.0903 84.1279 37.1168C83.4248 35.5618 82.8028 33.955 81.9374 32.4924C80.2878 29.7092 78.0072 27.539 75.0865 26.0787C73.9395 25.5041 73.5248 24.3975 74.0116 23.3451C74.5074 22.2724 75.6815 21.8532 76.8579 22.4189C80.1751 24.0167 82.8592 26.4032 84.8288 29.4771C86.03 31.3499 86.8751 33.4502 87.8621 35.4581C88.0041 35.7511 88.0334 36.1004 88.0672 36.2356Z" fill="black"/>
<path d="M24.0654 68.5703C24.0654 68.1759 24.0541 67.7838 24.0676 67.3894C24.1104 66.1747 24.9871 65.3071 26.1522 65.3093C27.2587 65.3116 28.0429 66.1725 28.1443 67.3962C28.2818 69.0435 28.3472 70.7089 28.6694 72.3225C29.3095 75.5248 30.7563 78.3486 33.0684 80.7013C33.9766 81.6253 34.0532 82.8197 33.3028 83.5544C32.3225 84.5189 31.1596 84.555 30.1838 83.5701C27.0604 80.4174 25.271 76.5705 24.4597 72.2504C24.2321 71.0402 24.1487 69.803 24 68.577C24.0225 68.5748 24.0451 68.5725 24.0654 68.5703Z" fill="black"/>
</svg>
