<svg width="120" height="100" viewBox="0 0 120 100" fill="none" xmlns="http://www.w3.org/2000/svg">
<rect width="120" height="100" fill="white"/>
<path d="M69.1291 90.8344C68.0146 90.4266 66.8232 90.1554 65.7984 89.5854C62.1388 87.5506 60.405 83.2953 61.5708 79.2471C62.6085 75.6451 63.8255 72.0944 64.8333 68.4839C66.6588 61.9526 67.0196 55.2654 66.646 48.5291C66.5072 46.0331 66.1891 43.5478 65.9414 41.0583C65.7727 39.3651 66.1165 37.7809 66.883 36.2713C67.0346 35.9724 67.1755 35.6351 67.1947 35.3084C67.3826 32.1975 67.5449 29.0867 67.7093 25.9758C67.8374 23.5332 69.1377 21.7376 71.3048 21.018C73.4741 20.2985 75.7459 20.986 77.2618 22.8201C77.3451 22.9226 77.422 23.0293 77.5394 23.183C78.955 22.3311 80.4496 22.0472 82.0231 22.6749C83.569 23.2919 84.4828 24.4705 84.8821 26.042C88.5417 26.1744 89.6712 27.0668 90.2306 30.293C91.7145 30.2354 93.0468 30.6474 94.0247 31.8559C95.0068 33.0708 95.1926 34.4373 94.6908 35.9084C95.1712 36.0002 95.594 36.0472 95.9975 36.1646C98.4209 36.8649 99.655 39.4505 98.6472 41.7522C97.9319 43.3834 97.1377 44.9826 96.4374 46.6203C95.5086 48.7917 94.7271 51.0314 93.7172 53.1644C92.2867 56.1899 90.822 59.209 89.1587 62.1106C86.7503 66.3104 84.0238 70.3436 82.2089 74.8509C81.041 77.7525 80.0225 80.7353 79.2219 83.7586C78.2034 87.6018 75.8697 89.8693 72.0329 90.6849C71.9112 90.7106 71.8002 90.7832 71.6828 90.8344C70.8351 90.8344 69.9811 90.8344 69.1291 90.8344ZM75.3979 34.8686C70.3867 34.8579 68.0765 37.3517 68.51 41.1736C68.8857 44.4745 69.1654 47.7967 69.2829 51.1168C69.5263 57.9983 68.7427 64.771 66.6908 71.3706C65.777 74.315 64.7863 77.2379 63.9686 80.21C63.027 83.6326 65.2646 87.2196 68.732 88.0737C72.3788 88.9704 75.8057 86.9442 76.6362 83.3721C77.7251 78.6834 79.3735 74.1933 81.6943 69.9828C84.0045 65.7915 86.4941 61.6985 88.8449 57.5286C90.2306 55.0711 91.4711 52.5346 92.0753 49.7482C92.3614 48.4287 92.466 47.1092 91.6419 45.8986C89.3488 42.5315 86.5411 39.6918 83.0373 37.5844C80.4303 36.0151 77.659 34.9134 75.3979 34.8686ZM75.2847 32.0993C75.2996 31.9477 75.3359 31.636 75.3594 31.3243C75.4875 29.6824 75.5879 28.0383 75.7459 26.3985C75.9018 24.7887 74.8534 23.4649 73.2457 23.3218C71.6678 23.1809 70.391 24.257 70.2842 25.8626C70.1818 27.3999 70.1262 28.9393 70.0472 30.4788C70.0003 31.3883 69.9469 32.2979 69.9042 33.0409C71.7148 32.7228 73.4464 32.4196 75.2847 32.0993ZM81.1136 33.6665C81.5214 31.51 81.9271 29.3963 82.3178 27.2825C82.5292 26.1445 81.8182 25.1431 80.6866 24.9488C79.4909 24.746 78.4255 25.4356 78.3038 26.6121C78.1073 28.491 77.992 30.3784 77.8746 32.2637C77.8639 32.4303 78.0476 32.7164 78.2013 32.7676C79.1279 33.0857 80.0738 33.3526 81.1136 33.6665ZM85.9881 36.3952C86.5304 34.3134 87.0791 32.3235 87.5553 30.3186C87.741 29.5329 87.141 28.7941 86.3382 28.6297C85.4586 28.4504 84.6579 28.8838 84.4828 29.708C84.1476 31.2922 83.8529 32.8872 83.569 34.48C83.5391 34.6465 83.6245 34.9284 83.7526 35.0138C84.4508 35.4813 85.1789 35.9041 85.9881 36.3952ZM90.4014 40.2235C91.0739 38.3168 91.7636 36.487 92.3507 34.6273C92.5856 33.8821 91.9771 33.1349 91.1572 32.9235C90.3181 32.7078 89.5238 33.1178 89.2826 33.9569C88.9239 35.2038 88.5972 36.4614 88.2961 37.7232C88.247 37.9282 88.3218 38.2506 88.4648 38.3958C89.0562 39.0043 89.6925 39.5637 90.4014 40.2235ZM94.2702 45.1748C94.9791 43.629 95.6538 42.1942 96.2943 40.7444C96.6744 39.8861 96.29 39.0257 95.421 38.6712C94.5691 38.3232 93.7001 38.6883 93.3521 39.5765C93.034 40.39 92.7351 41.212 92.4703 42.0447C92.4041 42.2561 92.4212 42.5764 92.5386 42.7536C93.0617 43.5414 93.6361 44.2973 94.2702 45.1748Z" fill="black"/>
<path d="M26.8623 20.7469C27.0331 16.9336 28.5234 15.5586 32.2407 15.8404C32.5054 14.5316 33.1502 13.4491 34.3672 12.7722C35.5608 12.1103 36.7991 12.1018 38.0461 12.531C39.8289 8.87564 43.5419 8.76675 45.6257 10.5965C46.7339 10.0777 47.7267 9.40088 48.8199 9.14253C52.3343 8.3077 55.5028 11.2606 55.1206 14.8561C54.7811 18.0588 54.4844 21.2658 54.1833 24.4727C54.1598 24.7247 54.2303 24.9979 54.3135 25.2414C54.9028 26.9772 54.9882 28.7109 54.4673 30.4916C52.5457 37.0806 51.2817 43.7806 51.1258 50.6685C51.0297 54.9217 51.5849 59.1108 52.2553 63.2935C52.5542 65.1596 52.8958 67.0236 53.0666 68.9025C53.673 75.547 47.1566 80.6713 40.6979 78.218C37.2924 76.9241 35.2384 74.4474 34.9779 70.7515C34.4847 63.7568 32.3987 57.1977 29.7233 50.7838C28.0878 46.8552 26.2709 42.9714 25.4595 38.7759C24.6225 34.4565 23.3094 30.276 22.1629 26.0463C21.3921 23.1959 23.4482 20.6295 26.4054 20.7469C26.557 20.7533 26.7107 20.7469 26.8623 20.7469ZM27.2744 34.416C27.5028 35.7227 27.6629 37.0464 27.9725 38.3318C28.9974 42.5892 30.7631 46.584 32.4179 50.6173C34.6747 56.1216 36.5258 61.7413 37.2347 67.6812C37.3991 69.0541 37.4226 70.4611 37.7514 71.7934C38.5158 74.8936 41.9832 76.8024 45.3845 76.1235C48.5957 75.4829 50.9507 72.2824 50.5258 69.0498C50.1842 66.4663 49.7914 63.8871 49.3686 61.3142C48.6085 56.696 48.3843 52.0521 48.7131 47.3868C49.1359 41.3914 50.3337 35.539 52.0098 29.7742C52.9129 26.674 51.4845 24.0307 48.3993 23.0806C46.2812 22.4273 44.1354 22.5319 42.0024 22.9888C36.8632 24.0927 32.657 26.8171 28.9632 30.466C27.838 31.5805 27.2914 32.8381 27.2744 34.416ZM46.6997 19.9121C48.5081 20.5398 50.1906 21.1248 51.8752 21.7099C52.1037 19.3997 52.3386 16.9656 52.5884 14.5337C52.74 13.0562 51.713 11.7559 50.2141 11.5638C48.7174 11.3716 47.2676 12.4285 47.1289 13.9103C46.9388 15.9493 46.8321 17.9947 46.6997 19.9121ZM40.6872 20.5911C41.7355 20.4437 42.7348 20.322 43.7233 20.1469C43.8856 20.1192 44.1162 19.863 44.129 19.6986C44.2849 17.7407 44.4471 15.7828 44.5219 13.8206C44.5582 12.8363 43.6059 12.0399 42.5554 12.0249C41.4708 12.0079 40.4993 12.8021 40.51 13.8249C40.5313 16.0795 40.6231 18.3321 40.6872 20.5911ZM35.469 22.5468C36.3145 22.1945 37.0361 21.9276 37.7215 21.5839C37.9158 21.4857 38.1165 21.1611 38.1144 20.9433C38.0952 19.3505 38.0439 17.7556 37.9649 16.1628C37.9265 15.3685 37.2005 14.7728 36.3871 14.7921C35.5437 14.8113 34.7601 15.4838 34.8263 16.2888C34.995 18.3428 35.2426 20.3904 35.469 22.5468ZM30.5219 25.6492C31.3204 25.1047 32.0143 24.6606 32.6698 24.1652C32.8428 24.035 32.9986 23.7361 32.9815 23.529C32.8705 22.2052 32.7424 20.8793 32.5545 19.5641C32.4349 18.7207 31.6151 18.1826 30.8037 18.3129C29.9091 18.4559 29.3091 19.1669 29.4607 20.0658C29.7703 21.8913 30.1482 23.7083 30.5219 25.6492ZM25.878 29.7699C26.5868 29.1315 27.2936 28.5252 27.9576 27.874C28.1156 27.7181 28.2309 27.4042 28.1967 27.1886C28.0537 26.2427 27.8871 25.2969 27.6565 24.3681C27.4622 23.5845 26.6573 23.1724 25.8267 23.3432C25.0389 23.5034 24.3834 24.2186 24.5521 24.9232C24.9556 26.5929 25.4531 28.2391 25.878 29.7699Z" fill="black"/>
</svg>
