<svg width="120" height="100" viewBox="0 0 120 100" fill="none" xmlns="http://www.w3.org/2000/svg">
<rect width="120" height="100" fill="white"/>
<path d="M21 80.8679C21.0904 80.5605 21.1828 80.2532 21.2732 79.9458C21.9462 77.6556 23.3846 76.0243 25.6146 75.2006C26.7798 74.7707 27.7461 74.1218 28.624 73.2841C39.6533 62.7691 50.6845 52.2562 61.7158 41.7432C62.2783 41.2068 62.8167 40.6423 63.4113 40.1441C64.896 38.9006 65.2194 37.3677 64.7353 35.5456C63.9759 32.6788 64.5685 30.0852 66.5092 27.8331C66.915 27.363 67.3991 26.9512 67.8893 26.5635C73.7535 21.9007 79.6257 17.2479 85.4959 12.5911C85.5542 12.5449 85.6145 12.4987 85.6747 12.4525C86.4402 11.8618 87.0649 11.8498 87.521 12.4143C87.979 12.9808 87.8324 13.6237 87.0931 14.2123C85.1705 15.7412 83.2439 17.2619 81.3193 18.7888C78.0808 21.3522 74.8404 23.9197 71.6019 26.4911C70.3021 27.5238 70.1896 29.0827 71.3146 30.2901C71.6381 30.6377 71.9635 30.9832 72.3292 31.3729C73.7053 30.1033 75.0111 28.9019 76.3129 27.6985C80.5458 23.7851 84.7787 19.8716 89.0096 15.9581C89.084 15.8898 89.1543 15.8195 89.2326 15.7572C89.7831 15.3092 90.4239 15.3032 90.8559 15.7432C91.324 16.2193 91.3119 16.8843 90.7554 17.4066C89.0759 18.9877 87.3763 20.5466 85.6848 22.1116C81.9662 25.5469 78.2476 28.9823 74.529 32.4176C74.3642 32.5703 74.2075 32.729 74.1091 32.8234C75.1277 33.84 76.1281 34.8384 77.2531 35.9614C77.3355 35.8469 77.4842 35.5837 77.6851 35.3688C82.5468 30.1013 87.4125 24.8378 92.2782 19.5743C92.4309 19.4095 92.5755 19.2307 92.7523 19.0921C93.2265 18.7164 93.7367 18.7004 94.1928 19.0941C94.6789 19.514 94.7131 20.0444 94.3816 20.5808C94.251 20.7917 94.0622 20.9645 93.8934 21.1493C88.9594 26.4871 84.0254 31.823 79.0934 37.1608C78.9608 37.3054 78.8402 37.4621 78.5951 37.7534C78.9748 38.0688 79.3525 38.3581 79.7021 38.6816C80.9175 39.8046 82.4765 39.7001 83.5071 38.4003C87.5571 33.2975 91.6052 28.1927 95.6533 23.088C95.7778 22.9313 95.8964 22.7665 96.035 22.6239C96.5031 22.1437 97.1058 22.0915 97.5859 22.4752C98.0661 22.8609 98.1665 23.4757 97.7748 24.0201C97.3368 24.6308 96.8506 25.2054 96.3846 25.796C92.0713 31.2343 87.75 36.6666 83.4508 42.1129C81.5041 44.5799 79.007 45.7813 75.8549 45.5221C75.2864 45.4759 74.7178 45.3413 74.1613 45.2007C72.5662 44.7949 71.2182 45.1324 70.063 46.3558C66.6558 49.9639 63.2185 53.5439 59.7952 57.136C59.6044 57.3349 59.4235 57.5438 59.2206 57.7306C58.6501 58.261 58.0333 58.2831 57.5552 57.7989C57.1152 57.3549 57.1253 56.7322 57.5914 56.1817C57.7682 55.9728 57.959 55.7779 58.1217 55.5991C56.8661 54.3475 55.6447 53.1301 54.385 51.8745C54.1942 52.0493 53.9712 52.2461 53.7562 52.451C45.8992 59.9385 38.0441 67.4239 30.189 74.9133C29.0901 75.96 27.8867 76.7998 26.4202 77.304C24.2847 78.0373 23.027 80.1768 23.2822 82.4028C23.5434 84.6769 25.1686 86.3464 27.4608 86.6939C29.5984 87.0174 31.8504 85.8261 32.5998 83.7468C33.2487 81.9427 34.3396 80.5244 35.6414 79.1703C41.6341 72.9365 47.5867 66.6665 53.5553 60.4086C53.6598 60.3001 53.7603 60.1896 53.8687 60.0851C54.4212 59.5528 55.0601 59.4985 55.5342 59.9405C56.0384 60.4086 56.0264 61.0635 55.4679 61.6622C54.598 62.5984 53.71 63.5185 52.8281 64.4426C47.3255 70.2083 41.8149 75.966 36.3345 81.7539C35.8141 82.3023 35.338 82.9834 35.0949 83.6885C34.1085 86.5392 32.2422 88.3353 29.2508 88.9118C29.2066 88.9199 29.1685 88.9641 29.1263 88.9922C28.4754 88.9922 27.8225 88.9922 27.1716 88.9922C26.9827 88.9379 26.7939 88.8797 26.603 88.8335C23.692 88.1123 21.8739 86.3042 21.1607 83.3912C21.1145 83.2003 21.0542 83.0115 21 82.8226C21 82.1717 21 81.5188 21 80.8679ZM68.3112 29.0908C67.9074 29.6975 67.596 30.0892 67.369 30.5232C66.5855 32.0158 66.5232 33.5728 66.9532 35.188C67.6081 37.6429 67.0958 39.7885 65.1933 41.5524C64.0723 42.591 62.9794 43.6578 61.8725 44.7125C61.0809 45.4659 60.2894 46.2212 59.5823 46.8942C60.7796 48.0916 61.9227 49.2367 63.0899 50.4039C64.902 48.5054 66.7663 46.5487 68.6367 44.596C69.9104 43.266 71.4794 42.6553 73.3055 42.7959C74.0227 42.8502 74.7259 43.0651 75.439 43.1897C77.4239 43.5393 79.1878 43.1093 80.8211 41.6589C79.3043 41.4158 78.342 40.5298 77.4018 39.5756C75.0091 37.1507 72.6004 34.74 70.1735 32.3493C69.2956 31.4854 68.5784 30.5553 68.3112 29.0908ZM56.161 50.1568C57.4065 51.4064 58.6019 52.6057 59.8253 53.8352C60.3135 53.3189 60.8399 52.7604 61.2577 52.3164C60.0343 51.093 58.863 49.9197 57.6677 48.7224C57.2036 49.1644 56.6612 49.6807 56.161 50.1568Z" fill="black"/>
</svg>
