<svg width="120" height="100" viewBox="0 0 120 100" fill="none" xmlns="http://www.w3.org/2000/svg">
<rect width="120" height="100" fill="white"/>
<path d="M43.8668 54.1635C44.5505 52.6301 45.2226 51.1237 45.8869 49.6328C44.7262 49.0804 43.4999 48.5745 42.3489 47.9371C38.9808 46.0716 36.3678 43.4914 35.0256 39.797C33.8166 36.4694 34.0831 33.3022 36.2268 30.4092C37.1287 29.1925 38.1098 28.0318 39.0889 26.875C39.3361 26.5834 39.4095 26.371 39.2994 25.9944C37.7873 20.8495 41.4277 15.9963 46.7907 16.0002C50.7536 16.0021 54.3129 17.2207 57.4589 19.6309C59.2395 20.9963 60.686 21.006 62.4396 19.6579C65.688 17.1608 69.365 15.9422 73.4593 16.0021C78.494 16.0774 82.1093 20.977 80.686 25.8109C80.5392 26.3092 80.603 26.6104 80.9583 27.0044C81.8293 27.9681 82.6443 28.9839 83.4361 30.0133C86.2885 33.7174 86.2036 37.6262 84.0966 41.5949C82.204 45.162 79.1178 47.3983 75.4929 48.9742C75.0101 49.1847 74.5176 49.374 74.0232 49.5748C74.703 51.0986 75.3712 52.6011 76.0665 54.1577C76.2654 54.0437 76.4855 53.9221 76.7038 53.7907C79.056 52.3809 81.5299 51.3072 84.2742 50.9113C88.6601 50.2798 92.7119 52.829 93.7219 56.9097C94.2549 59.063 93.8185 61.1275 93.0035 63.1187C91.2171 67.4852 88.185 70.9151 84.6798 73.9665C83.6099 74.8973 82.4666 75.7432 81.3021 76.6702C82.4936 76.7416 83.6524 76.7803 84.8034 76.8846C86.7095 77.0564 88.5616 77.4736 90.2708 78.3678C91.9799 79.2619 93.2507 80.5539 93.8204 82.4465C94.1043 83.3909 93.7026 83.9664 92.7157 83.9664C84.8382 83.9722 76.9587 83.9664 69.0811 83.9761C68.3492 83.9761 67.9861 83.5956 67.8123 82.9081C62.5883 84.3566 57.3836 84.3739 52.1171 82.9004C51.9433 83.8602 51.2847 83.9838 50.4582 83.9819C42.8201 83.9626 35.184 83.9703 27.5459 83.9703C26.0859 83.9703 25.7151 83.4431 26.2326 82.0777C27.1635 79.6289 29.1276 78.3774 31.4856 77.6184C33.7799 76.8788 36.1515 76.6934 38.6293 76.6142C38.3821 76.4288 38.1368 76.2395 37.8877 76.0561C34.2589 73.4006 31.082 70.3048 28.6621 66.4868C27.3895 64.4802 26.4161 62.352 26.0801 59.9591C25.4177 55.2392 28.9441 51.0271 33.7432 50.8475C36.7579 50.7336 39.4636 51.7359 42.065 53.1245C42.6772 53.4547 43.2681 53.8178 43.8668 54.1635ZM79.479 28.3679C76.4546 32.0952 72.0784 32.1164 69.3129 30.4459C67.4299 29.3084 66.2171 27.6668 65.7208 25.5096C65.2283 23.3717 65.6667 21.3883 66.7057 19.4339C65.5412 20.0577 64.4481 20.7356 63.4033 21.481C62.3295 22.2497 61.1746 22.6919 59.844 22.663C58.5926 22.6379 57.5169 22.184 56.5068 21.4637C55.4678 20.7221 54.3805 20.0519 53.3125 19.3489C53.2546 19.4107 53.1947 19.4745 53.1368 19.5363C54.1835 21.3053 54.6007 23.1844 54.1951 25.2064C53.7818 27.2651 52.7081 28.897 50.9815 30.0809C47.6733 32.352 44.2087 31.8035 40.4292 28.3988C39.0696 29.8665 37.8124 31.396 36.9279 33.2133C36.7193 33.6421 36.7792 33.8835 37.1345 34.1809C39.0155 35.7645 41.1399 36.9252 43.4091 37.8348C48.3241 39.8066 53.4709 40.5347 58.7297 40.6351C64.1043 40.7375 69.4056 40.2508 74.5427 38.561C77.5342 37.578 80.3442 36.2377 82.7853 34.2002C83.1734 33.8758 83.2217 33.6208 82.9996 33.1747C82.1055 31.3903 80.8695 29.8665 79.479 28.3679ZM49.8266 81.9155C49.5775 81.3284 49.338 80.8089 49.1372 80.2758C49.0117 79.9456 48.8572 79.5941 48.8572 79.2503C48.8398 75.1291 48.778 71.0078 48.8668 66.8884C49.0175 59.8838 55.5605 54.8742 62.3932 56.452C67.6945 57.6764 71.0356 61.7958 71.0819 67.2322C71.1147 71.087 71.1051 74.9437 71.0742 78.7984C71.0703 79.3508 70.8618 79.9089 70.7015 80.4496C70.5566 80.9363 70.3423 81.4017 70.1549 81.8884C74.5871 81.8884 78.9015 81.8884 83.2159 81.8884C83.2546 81.817 83.2932 81.7455 83.3318 81.676C82.6674 81.1893 82.0668 80.523 81.3252 80.2527C79.983 79.7679 78.5674 79.4589 77.1595 79.1905C76.1379 78.9954 75.8579 78.7984 75.8579 77.7652C75.856 74.4396 75.9293 71.1121 75.8347 67.7884C75.7575 65.1214 75.601 62.4447 75.2592 59.8008C74.8478 56.6104 73.8842 53.5571 72.2638 50.7413C72.063 50.3898 71.8853 50.2218 71.4199 50.3319C63.7915 52.126 56.1573 52.1511 48.5289 50.3242C48.1349 50.2295 47.8857 50.2855 47.7119 50.6602C47.177 51.817 46.5532 52.9371 46.1109 54.1268C44.564 58.2886 44.0966 62.6358 44.0793 67.0429C44.0657 70.4883 44.0773 73.9356 44.0754 77.3809C44.0754 78.9201 43.9364 79.0514 42.4242 79.1963C40.8792 79.345 39.3728 79.681 38.048 80.5327C37.5266 80.8668 37.0959 81.3419 36.6247 81.7532C36.6633 81.8054 36.7019 81.8575 36.7405 81.9097C41.0646 81.9155 45.3848 81.9155 49.8266 81.9155ZM69.0696 72.6938C69.0696 70.8398 69.0889 68.9838 69.0599 67.1299C69.0483 66.4597 68.9865 65.778 68.8359 65.1272C67.7969 60.637 63.4361 57.6532 58.8513 58.2635C54.3728 58.8603 50.9873 62.3346 50.8908 66.6219C50.8 70.7142 50.8425 74.8123 50.8888 78.9066C50.8985 79.7293 51.2712 80.4458 52.1924 80.7702C54.0483 81.423 55.9564 81.7706 57.9089 81.8826C61.1978 82.0719 64.4539 81.927 67.5979 80.8031C68.6157 80.438 69.0657 79.7795 69.0657 78.6941C69.0715 76.6934 69.0696 74.6945 69.0696 72.6938ZM36.3736 36.2435C36.4084 36.6529 36.418 36.9368 36.4605 37.2149C36.8641 39.8163 38.1156 41.9657 40.0082 43.7541C42.8858 46.4733 46.418 47.8715 50.211 48.673C55.9738 49.8896 61.781 49.909 67.5902 49.0747C71.1147 48.5687 74.5022 47.5741 77.5342 45.6235C80.1781 43.9202 82.2368 41.7243 83.1483 38.6286C83.3627 37.8985 83.4535 37.1318 83.6022 36.3825C80.2824 38.7058 76.7289 40.189 72.9494 41.1623C67.0823 42.6726 61.1148 42.9565 55.1028 42.4775C48.4149 41.9445 42.0515 40.3898 36.3736 36.2435ZM77.8799 76.2511C77.9977 76.2511 78.0498 76.2666 78.0846 76.2492C78.1928 76.197 78.2951 76.1333 78.3975 76.0696C81.4952 74.1615 84.2781 71.8749 86.7018 69.1596C88.6871 66.9348 90.4175 64.5401 91.3812 61.678C91.8776 60.1986 92.1479 58.6922 91.6844 57.1415C90.8038 54.1982 87.7968 52.4563 84.4847 52.9468C81.8834 53.3311 79.5775 54.4281 77.3546 55.7703C76.7694 56.1237 76.6594 56.4655 76.781 57.1395C77.1653 59.2678 77.6211 61.4095 77.7177 63.5609C77.8953 67.5316 77.8393 71.5118 77.8799 75.4863C77.8838 75.7413 77.8799 75.9962 77.8799 76.2511ZM42.0534 76.3689C42.0534 74.3759 42.0746 72.52 42.0495 70.666C41.9858 65.9595 42.0766 61.2685 43.2083 56.6606C43.2527 56.4752 43.0654 56.116 42.8838 56.0136C41.6092 55.2933 40.3384 54.5459 39.0059 53.9472C37.3933 53.223 35.6841 52.8097 33.8881 52.8889C30.1086 53.053 27.4802 56.1797 28.1581 59.8935C28.413 61.2898 28.9248 62.6822 29.5602 63.9568C31.0839 67.014 33.3512 69.5149 35.8618 71.7996C37.7313 73.501 39.7475 75.0113 42.0534 76.3689ZM52.3141 23.6962C52.3083 20.5714 49.7842 18.0318 46.6806 18.0241C43.498 18.0164 40.941 20.583 40.9622 23.7638C40.9835 26.8711 43.5424 29.4146 46.6382 29.4088C49.7803 29.4049 52.3218 26.846 52.3141 23.6962ZM78.9711 23.7406C78.9749 20.5849 76.4469 18.0357 73.299 18.0241C70.1607 18.0106 67.6134 20.5637 67.6153 23.7194C67.6173 26.8615 70.1858 29.4262 73.3144 29.4088C76.4199 29.3933 78.9672 26.8402 78.9711 23.7406ZM36.8564 78.839C33.5482 78.8235 29.4964 79.9417 28.7027 81.9502C30.4679 81.9502 32.2195 81.9599 33.9711 81.9348C34.1546 81.9328 34.4308 81.7687 34.5003 81.6084C34.9812 80.4941 35.7421 79.6231 36.8564 78.839ZM83.0595 78.8197C84.1951 79.6327 84.9811 80.5134 85.4446 81.6605C85.4948 81.7841 85.6744 81.9348 85.7961 81.9367C87.6114 81.9541 89.4249 81.9483 91.2808 81.9483C90.2708 80.0866 86.8892 78.7946 83.0595 78.8197Z" fill="black"/>
<path d="M46.6034 20.1446C48.5964 20.1292 50.1955 21.6896 50.2225 23.6769C50.2496 25.639 48.6505 27.2651 46.6748 27.2864C44.6992 27.3076 43.0653 25.7105 43.0576 23.7483C43.0479 21.763 44.6238 20.1601 46.6034 20.1446ZM46.6439 25.2605C47.5033 25.2586 48.2024 24.5614 48.2005 23.7097C48.1986 22.8561 47.4975 22.1647 46.6362 22.1686C45.771 22.1725 45.0815 22.86 45.0815 23.7174C45.0815 24.5653 45.7864 25.2624 46.6439 25.2605Z" fill="black"/>
<path d="M73.2989 27.2846C71.3214 27.2884 69.7319 25.7126 69.703 23.7195C69.6759 21.7709 71.3175 20.1313 73.2816 20.1409C75.2765 20.1525 76.8698 21.7342 76.8717 23.706C76.8775 25.6797 75.2785 27.2807 73.2989 27.2846ZM73.2932 25.2606C74.1487 25.2587 74.8517 24.5596 74.8517 23.7118C74.8497 22.8582 74.1564 22.1706 73.2912 22.1687C72.4318 22.1668 71.7288 22.862 71.7308 23.7156C71.7327 24.5673 72.4337 25.2626 73.2932 25.2606Z" fill="black"/>
</svg>
