<svg width="120" height="100" viewBox="0 0 120 100" fill="none" xmlns="http://www.w3.org/2000/svg">
<rect width="120" height="100" fill="white"/>
<g clip-path="url(#clip0_79_655)">
<path d="M43.0271 70.9999C34.9453 70.9019 28.0122 68.9388 22.0291 64.1849C18.7736 61.5983 16.3373 58.3855 14.9953 54.3994C14.8565 53.9883 14.6306 53.5989 14.4074 53.2232C12.3958 49.8225 12.5509 46.4926 14.8211 43.2961C16.9607 40.2848 20.0339 38.4824 23.3548 37.0829C30.0483 34.2621 37.0849 33.4072 44.2793 33.6169C50.8885 33.8102 57.2989 34.951 63.2875 37.9024C64.2592 38.3816 65.1956 38.9425 66.0912 39.5497C66.6084 39.9009 66.965 39.9445 67.5257 39.5987C75.7899 34.548 84.6148 30.8832 94.1475 29.0617C96.7416 28.5662 99.3793 28.2476 102.012 28.0189C105.03 27.7548 107.758 30.1536 107.981 33.0832C108.21 36.07 105.929 38.6566 102.815 38.9153C91.7466 39.8383 81.7349 43.7617 72.42 49.6483C72.0797 49.8634 71.7395 50.2445 71.6197 50.6176C68.0973 61.4731 60.7069 67.9695 49.571 70.2675C48.7081 70.4444 47.837 70.6078 46.9605 70.6977C45.4797 70.8474 43.988 70.9291 43.0271 70.9999ZM65.1031 54.1734C69.2243 51.2438 69.932 47.0944 65.9524 43.5657C64.1748 41.9892 62.166 40.8021 59.9693 39.9663C49.7261 36.0673 39.2843 35.8876 28.7853 38.6757C26.2293 39.3536 23.8148 40.6197 21.4112 41.7714C20.366 42.2724 19.4377 43.0974 18.583 43.9088C15.3846 46.9473 15.2321 50.8653 19.8079 54.168C22.5082 50.2554 26.4443 48.1671 30.8541 46.852C37.7327 44.7964 44.6958 44.6466 51.6779 46.2367C56.9832 47.4401 61.8094 49.5312 65.1031 54.1734ZM22.6008 55.9323C29.934 61.5929 55.878 61.5656 62.2667 55.9051C61.333 54.3994 60.0155 53.2913 58.5266 52.3819C54.7375 50.0703 50.5482 49.0193 46.1847 48.63C40.2588 48.1018 34.4554 48.6409 28.935 51.0314C26.4198 52.1205 24.1333 53.5472 22.6008 55.9323ZM71.715 46.204C71.9164 46.0924 72.1559 45.9671 72.3873 45.8256C78.5746 42.0845 85.1184 39.1385 92.1522 37.4423C95.5357 36.6282 99.0173 36.2198 102.461 35.6752C103.808 35.4629 104.734 34.6488 104.728 33.4998C104.723 32.3345 103.705 31.357 102.384 31.2671C102.15 31.2508 101.911 31.2862 101.674 31.3053C94.9559 31.8035 88.5128 33.4726 82.2521 35.8985C77.7879 37.6274 73.5061 39.7348 69.4584 42.237C70.2151 43.5603 70.9446 44.8454 71.715 46.204ZM22.0101 59.5998C31.7524 70.5425 53.5261 70.2647 62.841 59.608C49.2525 64.9228 35.6313 64.9255 22.0101 59.5998Z" fill="black"/>
</g>
<defs>
<clipPath id="clip0_79_655">
<rect width="95" height="43" fill="white" transform="translate(13 28)"/>
</clipPath>
</defs>
</svg>
