<svg width="120" height="100" viewBox="0 0 120 100" fill="none" xmlns="http://www.w3.org/2000/svg">
<rect width="120" height="100" fill="white"/>
<path d="M98.998 83.2159C98.587 82.0297 98.0661 80.8944 96.9552 80.2107C96.2797 79.7936 95.5167 79.521 94.7904 79.1812C96.652 75.1954 93.5614 71.6409 90.0822 71.8891C90.1921 70.8779 90.4993 69.8179 90.3793 68.8067C90.0843 66.3122 88.0212 64.6398 85.4596 64.6357C79.0098 64.6275 72.5621 64.6336 66.1123 64.6316C65.8458 64.6316 65.5772 64.6316 65.1682 64.6316C68.9201 60.4952 68.5803 55.9743 66.7898 51.2275C67.3392 51.2275 67.7888 51.2316 68.2405 51.2275C69.323 51.2153 69.7441 50.7921 69.7462 49.6873C69.7523 47.4533 69.7523 45.2193 69.7462 42.9852C69.7421 41.9008 69.3148 41.4898 68.208 41.4796C67.9353 41.4776 67.6627 41.4796 67.3494 41.4796C67.3494 37.7156 67.3494 34.0186 67.3494 30.3421C68.1062 30.4194 68.8713 30.4967 69.7095 30.5822C69.8886 31.5588 70.6068 31.8009 71.5509 31.7399C72.1836 31.6992 72.8205 31.75 73.4553 31.7256C74.79 31.6748 75.8277 30.6696 75.8317 29.3349C75.8521 24.0286 75.8521 18.7244 75.8317 13.4181C75.8277 12.0488 74.7717 11.0538 73.3861 11.0192C72.7777 11.003 72.1653 11.0477 71.559 11.0091C70.619 10.948 69.8927 11.1779 69.6973 12.238C69.2701 12.238 68.8774 12.1769 68.5132 12.2522C68.0289 12.3519 67.3799 12.417 67.1296 12.7466C66.5009 13.5686 65.7013 13.4567 64.8793 13.4547C63.4571 13.4526 62.0349 13.4547 60.6148 13.4547C57.0969 13.4547 56.1549 13.7965 53.459 16.061C53.345 15.939 53.227 15.8148 53.1111 15.6907C52.2077 14.7324 50.9503 14.4252 49.7743 14.8748C48.6145 15.3164 47.8332 16.413 47.819 17.703C47.7987 19.6074 47.8292 21.5118 47.8007 23.4142C47.7925 23.9635 47.7193 24.5271 47.5708 25.0561C46.2259 29.8375 44.8362 34.6066 43.5036 39.39C42.8688 41.6688 44.6959 43.6851 47.0275 43.3067C48.4721 43.0707 49.2453 42.1022 49.6074 40.7349C50.7814 36.2995 51.9635 31.868 53.1436 27.4366C53.2087 27.1925 53.2779 26.9483 53.3654 26.635C53.933 27.0968 54.4824 27.5221 55.0012 27.9819C55.105 28.0735 55.1192 28.3034 55.1192 28.4702C55.1253 32.7104 55.1233 36.9485 55.1192 41.1887C55.1192 41.2599 55.0908 41.3311 55.0562 41.4816C54.6879 41.4816 54.3135 41.4654 53.9432 41.4857C53.1782 41.5264 52.7041 41.972 52.698 42.739C52.6777 45.1501 52.6777 47.5631 52.698 49.9742C52.7041 50.7372 53.1823 51.195 53.9493 51.2214C54.7347 51.2478 55.5241 51.2133 56.3095 51.2417C56.5028 51.2478 56.8039 51.3455 56.8629 51.4818C58.045 54.2103 58.5801 56.9835 57.0074 59.7404C55.573 62.2552 53.227 63.6346 50.5902 64.5889C50.3623 64.6703 50.0876 64.6336 49.8353 64.6336C44.706 64.6357 39.5767 64.6235 34.4495 64.6418C31.599 64.652 29.3914 66.9368 29.5542 69.7283C29.5949 70.4445 29.8675 71.1465 30.0486 71.9217C28.1991 71.8789 26.5673 72.4812 25.4869 74.1231C24.4208 75.7468 24.3821 77.4518 25.3018 79.2178C25.1492 79.285 25.0251 79.3603 24.8888 79.3928C22.5917 79.9422 21.0352 81.7977 21.0006 84.0399C20.966 86.3411 22.4533 88.2495 24.7606 88.8701C24.8806 88.9027 24.9946 88.9617 25.1105 89.0085C48.3683 89.0085 71.6282 89.0085 94.886 89.0085C96.0885 88.6585 97.236 88.1865 97.9542 87.102C98.3754 86.4672 98.6561 85.7368 99 85.0491C98.998 84.4346 98.998 83.8263 98.998 83.2159ZM60.0125 86.5669C48.8404 86.5669 37.6683 86.5669 26.4961 86.5669C26.2418 86.5669 25.9875 86.5771 25.7352 86.5608C24.5164 86.4794 23.5296 85.5089 23.4401 84.3125C23.3506 83.1121 24.1767 81.9971 25.373 81.7509C25.7169 81.6797 26.079 81.694 26.4331 81.694C41.6683 81.6919 56.9016 81.6919 72.1368 81.6919C73.4309 81.6919 74.027 81.2932 74.0067 80.4427C73.9863 79.6146 73.4248 79.2545 72.1552 79.2545C58.1651 79.2545 44.175 79.2545 30.1849 79.2545C29.9062 79.2545 29.6254 79.2667 29.3466 79.2443C28.3008 79.1609 27.4381 78.4284 27.1675 77.405C26.9091 76.4365 27.2713 75.3317 28.1828 74.8312C28.7078 74.5443 29.3792 74.3978 29.9835 74.3978C49.992 74.3754 69.9985 74.3795 90.007 74.3795C90.2104 74.3795 90.4139 74.3693 90.6153 74.3856C91.421 74.4589 92.0701 74.8149 92.5075 75.5047C93.0101 76.3002 93.0609 77.1344 92.6031 77.9604C92.1189 78.8333 91.3518 79.2545 90.3488 79.2545C86.896 79.2504 83.4433 79.2504 79.9885 79.2545C79.0403 79.2565 78.4788 79.7367 78.4991 80.4997C78.5174 81.2281 79.0688 81.6838 79.9722 81.6879C81.7504 81.694 83.5267 81.6899 85.3049 81.6899C88.2511 81.6899 91.1952 81.6757 94.1413 81.6981C95.4231 81.7082 96.4384 82.6706 96.5523 83.8995C96.6642 85.1264 95.8178 86.2739 94.591 86.514C94.2715 86.5771 93.9338 86.5628 93.6042 86.5628C82.4076 86.5669 71.2091 86.5669 60.0125 86.5669ZM60.1061 71.9441C51.7275 71.9441 43.351 71.9441 34.9724 71.9441C34.718 71.9441 34.4637 71.9542 34.2114 71.9339C33.2185 71.8505 32.3945 71.1831 32.0873 70.2289C31.78 69.2746 32.0283 68.2003 32.8889 67.6571C33.4301 67.3153 34.1524 67.0955 34.7933 67.0935C51.5993 67.063 68.4074 67.0691 85.2134 67.0711C85.3904 67.0711 85.5694 67.065 85.7465 67.0772C86.9367 67.1627 87.9032 68.0966 88.0171 69.2665C88.129 70.4161 87.4209 71.4985 86.2877 71.8199C85.9052 71.9278 85.4881 71.942 85.0852 71.942C76.7595 71.9461 68.4338 71.9441 60.1061 71.9441ZM69.6973 14.7039C69.6973 19.1903 69.6973 23.6136 69.6973 28.0429C69.3006 28.0429 68.9547 28.0429 68.5295 28.0429C68.5295 26.5231 68.5335 25.0337 68.5274 23.5444C68.5254 22.5393 68.0574 21.9655 67.2761 21.9879C66.5233 22.0103 66.096 22.5637 66.092 23.5383C66.0879 24.6207 66.0899 25.7052 66.0899 26.8568C63.8641 26.8568 61.7155 26.8649 59.5649 26.8547C56.3461 26.8405 53.8903 24.4396 53.9046 21.3389C53.9188 18.2788 56.3746 15.9084 59.5568 15.8922C61.51 15.882 63.4632 15.8881 65.4165 15.8922C65.6321 15.8922 65.8498 15.9206 66.0899 15.9369C66.0899 16.6674 66.0859 17.3245 66.0899 17.9838C66.096 18.9848 66.566 19.5647 67.3453 19.5402C68.0961 19.5158 68.5213 18.9624 68.5254 17.9878C68.5294 16.9054 68.5254 15.8209 68.5254 14.706C68.9506 14.7039 69.2985 14.7039 69.6973 14.7039ZM64.861 41.4165C62.4419 41.4165 60.0329 41.4165 57.6198 41.4165C57.6198 37.3127 57.6198 33.2312 57.6198 29.28C60.0715 29.28 62.4602 29.28 64.861 29.28C64.861 33.396 64.861 37.3737 64.861 41.4165ZM55.8069 64.6275C60.45 60.9917 61.3838 56.5053 59.4387 51.2295C60.9322 51.2295 62.3259 51.2112 63.7176 51.2499C63.9149 51.256 64.2059 51.5022 64.2791 51.7016C64.6921 52.843 65.152 53.9804 65.4124 55.1604C66.2812 59.0893 64.8142 62.483 61.5324 64.3305C61.3147 64.4526 61.0746 64.6113 60.8406 64.6153C59.2312 64.6397 57.6198 64.6275 55.8069 64.6275ZM50.2463 21.6522C50.2463 20.1364 50.2504 19.0967 50.2443 18.057C50.2402 17.5951 50.2829 17.119 50.8709 17.1353C51.4528 17.1496 51.4691 17.6338 51.4671 18.0896C51.461 19.5341 51.4976 20.9808 51.4528 22.4253C51.4223 23.3796 51.3877 24.3542 51.1639 25.2738C50.5006 28.0023 49.7458 30.7103 49.0215 33.4245C48.4212 35.6748 47.8292 37.9272 47.1984 40.1673C47.1211 40.4399 46.8709 40.7227 46.6247 40.8631C46.4863 40.9404 46.0509 40.7919 45.9899 40.6454C45.8759 40.3748 45.8617 40.0086 45.9431 39.7217C46.7854 36.6982 47.6969 33.6951 48.5067 30.6635C49.3348 27.5506 50.7407 24.5352 50.2463 21.6522ZM72.2447 29.2678C72.2447 23.9472 72.2447 18.7122 72.2447 13.4933C72.6516 13.4933 72.9975 13.4933 73.3596 13.4933C73.3596 18.7712 73.3596 24.0062 73.3596 29.2678C72.967 29.2678 72.619 29.2678 72.2447 29.2678ZM67.2802 45.0809C63.1865 45.0809 59.1681 45.0809 55.1579 45.0809C55.1579 44.678 55.1579 44.3322 55.1579 43.9598C59.2129 43.9598 63.2313 43.9598 67.2802 43.9598C67.2802 44.3484 67.2802 44.6943 67.2802 45.0809ZM55.1559 47.6242C59.2373 47.6242 63.2557 47.6242 67.2782 47.6242C67.2782 48.0209 67.2782 48.3689 67.2782 48.7534C63.2272 48.7534 59.2088 48.7534 55.1559 48.7534C55.1559 48.3689 55.1559 48.0209 55.1559 47.6242Z" fill="black"/>
<path d="M90.475 13.1393C90.4669 14.2258 91.2034 14.8504 91.9704 14.6225C93.2543 14.2421 94.5219 13.8067 95.7793 13.3468C96.4263 13.1088 96.6948 12.4618 96.4975 11.8677C96.2859 11.2308 95.6572 10.8727 94.9837 11.0803C93.7528 11.4607 92.5157 11.8392 91.3234 12.3214C90.9246 12.4862 90.65 12.9623 90.475 13.1393Z" fill="black"/>
<path d="M79.5062 15.5748C79.4981 16.6613 80.2326 17.288 81.0017 17.0601C82.2855 16.6796 83.5531 16.2442 84.8105 15.7844C85.4575 15.5463 85.7261 14.9014 85.5287 14.3052C85.3151 13.6664 84.6884 13.3083 84.017 13.5158C82.7861 13.8963 81.549 14.2747 80.3567 14.7589C79.9539 14.9217 79.6812 15.3978 79.5062 15.5748Z" fill="black"/>
<path d="M79.4981 28.3624C79.6914 28.5557 79.9783 29.0501 80.3975 29.2231C81.5633 29.7012 82.78 30.0634 83.9845 30.4377C84.6681 30.6493 85.2887 30.3197 85.5166 29.689C85.7383 29.0705 85.4535 28.4072 84.7719 28.161C83.5369 27.7134 82.2917 27.2881 81.0343 26.9117C80.2611 26.6798 79.5205 27.2719 79.4981 28.3624Z" fill="black"/>
<path d="M95.5045 33.103C95.8423 32.749 96.298 32.4479 96.4893 32.0288C96.7314 31.4957 96.4771 30.9097 95.9298 30.6981C94.5869 30.1854 93.2197 29.7256 91.8381 29.3268C91.2725 29.164 90.8066 29.5099 90.5746 30.0633C90.3366 30.6289 90.4587 31.2353 90.9816 31.455C92.3936 32.0491 93.8626 32.515 95.5045 33.103Z" fill="black"/>
<path d="M93.476 20.7649C92.892 20.7649 92.3081 20.7466 91.7241 20.771C90.9917 20.8015 90.4932 21.2837 90.4729 21.9429C90.4505 22.6306 90.9612 23.1739 91.7241 23.1902C92.9164 23.2166 94.1108 23.2166 95.3031 23.1902C96.066 23.1739 96.5767 22.6306 96.5543 21.9409C96.532 21.2797 96.0376 20.8137 95.3031 20.7649C95.2522 20.7608 95.2013 20.7629 95.1505 20.7629C94.593 20.7649 94.0334 20.7649 93.476 20.7649Z" fill="black"/>
<path d="M82.544 23.1984C83.1524 23.1984 83.7628 23.2228 84.3711 23.1923C85.0954 23.1577 85.5837 22.647 85.5837 21.9838C85.5837 21.3184 85.0975 20.7935 84.3711 20.7772C83.1524 20.7487 81.9336 20.7487 80.7169 20.7772C79.9926 20.7935 79.5022 21.3205 79.5022 21.9838C79.5022 22.6491 79.9906 23.1394 80.7149 23.2005C80.7657 23.2045 80.8166 23.2045 80.8675 23.2045C81.425 23.2045 81.9845 23.2045 82.542 23.2045C82.544 23.2005 82.544 23.1984 82.544 23.1984Z" fill="black"/>
<path d="M71 80.5H81" stroke="black" stroke-width="2.5"/>
</svg>
