<svg width="120" height="100" viewBox="0 0 120 100" fill="none" xmlns="http://www.w3.org/2000/svg">
<rect width="120" height="100" fill="white"/>
<path d="M18.8309 93C18.2775 92.5861 17.806 92.1168 18.0805 91.3443C18.3505 90.5828 18.9836 90.4854 19.6964 90.4898C22.2929 90.5075 24.8871 90.5164 27.4836 90.4743C27.8577 90.4677 28.2495 90.1932 28.5948 89.9829C29.6418 89.3432 30.6711 88.6703 31.7071 88.0129C31.9992 87.8269 32.318 87.6698 32.5814 87.4506C33.3849 86.7799 34.1752 86.096 34.9499 85.3943C35.1469 85.215 35.3904 84.9471 35.397 84.7147C35.5343 79.96 35.6405 75.2031 35.7512 70.4462C35.7534 70.3931 35.7268 70.34 35.6959 70.216C34.9964 70.123 34.2593 70.0788 33.5465 69.9238C29.7746 69.1004 27.125 66.8957 25.58 63.3496C25.1107 62.2716 25.2435 61.2777 26.0072 60.4167C26.7709 59.5556 27.7537 59.3143 28.8693 59.6353C31.4746 60.3835 33.7192 61.7293 35.5918 63.6927C35.7446 63.8521 35.8929 64.0159 36.0478 64.173C36.0832 64.2085 36.143 64.2217 36.2869 64.2904C36.4418 63.2965 36.5614 62.3247 36.7584 61.3685C36.8447 60.9545 36.9886 60.4122 37.2896 60.2219C37.6438 59.9983 38.3211 59.8965 38.6332 60.0979C38.9808 60.3215 39.284 60.9612 39.2464 61.3862C39.0516 63.5311 38.7306 65.665 38.4716 67.8055C38.403 68.3788 38.392 68.9587 38.3455 69.6914C38.6089 69.4855 38.7749 69.3749 38.9188 69.2398C40.6675 67.6107 42.6951 66.4773 44.9795 65.7911C46.1194 65.4502 47.131 65.645 47.9279 66.5349C48.7225 67.4225 48.8399 68.4452 48.3396 69.5409C46.478 73.6226 43.3326 75.8782 38.8568 76.2501C38.6642 76.2656 38.4716 76.27 38.2791 76.2878C38.2281 76.2922 38.1817 76.332 38.0245 76.4051C38.0245 78.9108 38.0245 81.4697 38.0245 84.0263C39.1578 84.0263 40.3664 83.8492 41.4953 84.0706C42.8943 84.345 44.1914 84.3849 45.5926 84.0484C47.4365 83.6057 49.1962 84.1303 50.8343 85.0644C51.0578 85.1928 51.4164 85.2947 51.6267 85.2061C54.8806 83.8204 55.5779 83.7053 58.8185 84.1525C58.9292 79.5195 59.0421 74.8954 59.155 70.2072C58.4953 70.123 57.787 70.0766 57.0964 69.9349C53.3068 69.1579 50.6417 66.9687 49.0656 63.4404C48.5853 62.3624 48.6517 61.322 49.4486 60.4211C50.241 59.5268 51.2504 59.3099 52.3882 59.6463C54.9869 60.4144 57.227 61.7691 59.0952 63.737C59.2656 63.9163 59.4361 64.0956 59.611 64.2704C59.6242 64.2837 59.6641 64.2726 59.7327 64.2726C59.9009 63.2522 60.0603 62.2229 60.2396 61.1958C60.4078 60.2374 60.9435 59.788 61.7271 59.9208C62.4908 60.0492 62.8294 60.6734 62.7099 61.6385C62.4 64.162 62.1056 66.6854 61.8068 69.2111C61.7913 69.335 61.8046 69.4612 61.8046 69.6715C62.535 69.0805 63.1327 68.4363 63.8654 68.0423C65.4082 67.21 66.9953 66.4463 68.6157 65.7734C69.6582 65.3396 70.6388 65.7181 71.387 66.5437C72.144 67.3827 72.2857 68.3832 71.8386 69.4059C70.0124 73.5784 66.8315 75.8937 62.2827 76.2324C61.6518 76.2789 61.4239 76.4272 61.4327 77.0868C61.4681 79.3779 61.446 81.6711 61.446 84.0595C64.069 83.6168 66.4242 84.1923 68.4762 85.9963C69.9482 84.9228 71.5508 84.0794 73.388 84.0285C74.7184 83.9909 76.0576 84.2454 77.3946 84.3517C77.7864 84.3827 78.1892 84.396 78.5766 84.3428C79.7653 84.1746 80.9495 83.971 82.2511 83.7629C82.3662 79.4044 82.4879 74.8357 82.6119 70.2138C81.908 70.1208 81.1974 70.0721 80.509 69.9282C76.7548 69.1469 74.1185 66.9665 72.527 63.4868C72.0179 62.3712 72.0887 61.3176 72.9121 60.3989C73.7356 59.4803 74.7826 59.3121 75.9403 59.6707C78.4725 60.4521 80.6728 61.7691 82.4946 63.7016C82.6805 63.8986 82.8244 64.1354 82.9882 64.3545C83.0546 64.3213 83.1232 64.2881 83.1896 64.2549C83.3401 63.2854 83.4442 62.3048 83.6611 61.3508C83.7651 60.8992 83.9865 60.3503 84.334 60.1156C84.6373 59.912 85.319 59.9208 85.6068 60.1377C85.9278 60.379 86.1823 60.9789 86.1425 61.3906C85.9388 63.5355 85.6245 65.6694 85.3655 67.8099C85.2969 68.3832 85.2858 68.9631 85.2393 69.687C85.5028 69.4789 85.6732 69.3638 85.8193 69.2266C87.5481 67.6195 89.5491 66.4973 91.8025 65.8044C92.969 65.4458 94.0072 65.6185 94.8262 66.5371C95.6474 67.4579 95.7227 68.516 95.2025 69.625C93.3166 73.6492 90.1866 75.8915 85.744 76.2523C85.5028 76.2723 85.2593 76.2922 84.8808 76.3232C84.8808 77.2329 84.8896 78.1095 84.8785 78.9883C84.8653 80.1216 84.8254 81.2572 84.8166 82.3905C84.7966 85.0025 84.7989 85.0069 86.9216 86.4258C87.1186 86.5564 87.3798 86.6073 87.6167 86.6604C89.6487 87.123 91.258 88.2187 92.4068 89.9519C92.6879 90.3769 92.9867 90.5098 93.4804 90.5053C96.0215 90.481 98.5627 90.5164 101.102 90.481C101.865 90.4699 102.447 90.6647 102.837 91.3376C102.837 91.891 102.837 92.4444 102.837 92.9978C74.8401 93 46.8366 93 18.8309 93ZM89.5823 90.4588C88.6349 89.5845 87.6765 89.2392 86.6339 89.0023C86.1336 88.8872 85.5758 88.646 85.2327 88.2829C83.5017 86.4612 81.2107 85.972 78.8732 86.9128C78.3951 87.1053 77.7266 87.1164 77.2374 86.946C74.3664 85.9499 71.8098 86.3992 69.5409 88.4312C68.6466 89.2303 68.0268 89.206 67.2145 88.3161C65.5101 86.4501 63.2102 85.972 60.8749 86.9017C60.3923 87.0943 59.7239 87.1252 59.2391 86.9526C56.7688 86.0694 54.4711 86.304 52.3041 87.7849C51.4054 88.398 51.049 88.3825 50.1724 87.6897C48.4614 86.3372 46.5776 86.0539 44.5788 86.9061C43.9103 87.1917 43.3525 87.1872 42.6862 86.9282C39.8175 85.8193 36.5746 86.6316 34.6289 88.9381C34.0822 89.5867 33.6373 90.3238 32.7009 90.4588C51.5979 90.4588 70.4972 90.4588 89.5823 90.4588ZM51.3367 62.0569C51.7595 64.8083 55.9608 67.8918 58.6724 67.5C57.6143 65.0518 54.1015 62.4266 51.3367 62.0569ZM62.0813 73.678C65.2068 73.8108 69.324 70.7318 69.4767 68.0932C66.3136 69.0738 63.7127 70.6676 62.0813 73.678ZM46.022 68.2282C43.5296 68.3655 39.5496 71.3427 38.7505 73.6647C41.6658 73.8706 45.8449 70.7473 46.022 68.2282ZM85.5182 73.7023C88.9426 73.6404 93.0841 70.4595 92.8672 68.1131C89.7616 69.0716 87.1806 70.6654 85.5182 73.7023ZM35.2199 67.5642C34.3124 65.1271 30.0071 61.9617 27.8887 62.1366C28.4222 64.846 31.9992 67.5199 35.2199 67.5642ZM82.2289 67.5509C80.5334 64.5272 77.9679 62.9202 74.8136 61.9683C75.0194 64.6202 78.9861 67.604 82.2289 67.5509Z" fill="black"/>
<path d="M35.8995 8C40.227 10.7027 44.5545 13.4077 48.8842 16.1082C50.593 17.1751 52.3107 18.2288 54.0196 19.2979C55.0954 19.9686 55.2215 20.5043 54.5907 21.6288C53.931 22.8064 53.2625 23.9796 52.5387 25.2612C54.7523 25.7172 56.8728 26.1555 59.051 26.6048C59.1218 26.4543 59.1926 26.3148 59.2502 26.1732C59.5158 25.5246 59.9939 25.1948 60.6823 25.3542C61.4062 25.5202 61.7448 26.0426 61.6408 26.7775C61.3951 28.5284 61.1184 30.2771 60.8506 32.0236C60.7155 32.8979 60.565 33.7678 60.4366 34.6444C60.2684 35.7866 59.912 36.2846 59.1904 36.3422C58.4865 36.3975 58.0748 35.9659 57.6896 34.6178C55.662 34.6178 53.5702 34.6245 51.4784 34.6156C50.3185 34.6112 49.1586 34.6112 48.001 34.547C47.4542 34.5182 47.1709 34.6997 46.9053 35.1779C45.1211 38.3897 43.3016 41.5816 41.4954 44.7802C40.6941 46.1991 40.2248 46.3253 38.8701 45.4841C32.5172 41.5374 26.1622 37.5884 19.8093 33.6417C18.479 32.816 18.3838 32.3556 19.2692 31.0408C20.3627 29.416 21.4562 27.7935 22.5851 26.1156C20.2409 24.0526 18.9527 21.5203 18.9438 18.3992C18.9372 16.1016 19.6676 14.0563 21.0843 12.2589C23.6963 8.95182 28.6856 7.27174 33.4934 9.75534C34.018 9.17096 34.5448 8.58438 35.0695 8C35.3461 8 35.6228 8 35.8995 8ZM52.0473 21.0245C46.6109 17.6488 41.2474 14.3174 35.8398 10.9595C31.924 16.7656 28.0415 22.5208 24.139 28.307C30.0646 31.9882 35.8862 35.6051 41.7411 39.2397C45.1964 33.1326 48.5942 27.1272 52.0473 21.0245ZM21.7306 31.8753C27.736 35.6029 33.6528 39.2773 39.6161 42.9784C39.926 42.4339 40.196 41.9602 40.5015 41.4223C34.567 37.7367 28.6723 34.0777 22.7356 30.3922C22.4036 30.8836 22.0959 31.3352 21.7306 31.8753ZM58.7654 29.0995C56.6847 28.6767 54.6881 28.2738 52.6959 27.8621C51.2349 27.5611 51.2327 27.5544 50.5111 28.8339C49.9223 29.8764 49.3402 30.9234 48.6584 32.1365C51.9743 32.1365 55.0843 32.1365 58.2784 32.1365C58.4267 31.2068 58.5883 30.2063 58.7654 29.0995ZM25.0023 22.5385C24.834 22.346 24.7256 22.2242 24.6193 22.098C22.9415 20.1169 22.7555 17.4452 24.1523 15.3379C25.5379 13.2461 28.1034 12.354 30.5516 13.1753C31.043 13.3391 31.3131 13.2948 31.5499 12.8477C31.7159 12.5378 31.924 12.25 32.1144 11.9512C28.9711 10.0896 24.5905 11.276 22.5696 14.4923C20.6239 17.5868 21.3079 22.0538 24.0571 23.9331C24.3648 23.4815 24.6702 23.0322 25.0023 22.5385ZM29.695 15.5725C28.1189 15.1453 26.7997 15.7253 26.0825 16.998C25.6021 17.8525 25.6375 19.7827 26.5517 20.2409C27.5899 18.698 28.6325 17.1486 29.695 15.5725Z" fill="black"/>
<path d="M81.7973 37.6217C81.7751 38.3057 81.1642 38.8768 80.4913 38.8458C79.8029 38.8126 79.2694 38.2128 79.3071 37.5111C79.3425 36.8382 79.8804 36.3401 80.5599 36.3467C81.2594 36.3534 81.8194 36.9289 81.7973 37.6217Z" fill="black"/>
<path d="M64.2639 30.8593C63.5732 30.8349 63.0353 30.2461 63.0663 29.5489C63.0973 28.8494 63.6729 28.3381 64.3856 28.3779C65.0497 28.4155 65.5654 28.9689 65.5521 29.6263C65.5411 30.3103 64.9412 30.8836 64.2639 30.8593Z" fill="black"/>
<path d="M70.495 38.9829C70.4928 39.6669 69.9128 40.227 69.2178 40.2159C68.5117 40.2048 67.9915 39.6514 68.0136 38.9342C68.0358 38.268 68.5692 37.7367 69.2266 37.7301C69.8996 37.7212 70.4972 38.3122 70.495 38.9829Z" fill="black"/>
<path d="M64.7663 34.5115C64.7686 35.2332 64.2439 35.7556 63.5268 35.7511C62.8317 35.7467 62.265 35.1734 62.2828 34.4938C62.2982 33.8585 62.8627 33.2963 63.5046 33.2786C64.1975 33.2587 64.7641 33.8121 64.7663 34.5115Z" fill="black"/>
<path d="M85.2682 42.6951C85.2505 43.3857 84.6705 43.9214 83.9688 43.8926C83.2937 43.8661 82.7868 43.3437 82.7846 42.6707C82.7801 41.9757 83.3512 41.398 84.0308 41.4046C84.6993 41.4135 85.2859 42.0244 85.2682 42.6951Z" fill="black"/>
<path d="M71.5597 30.8946C71.5398 31.6052 70.9842 32.1187 70.2714 32.0855C69.6118 32.0567 69.0828 31.5078 69.0828 30.8548C69.085 30.1841 69.6826 29.5931 70.3511 29.6019C71.0329 29.613 71.5774 30.1973 71.5597 30.8946Z" fill="black"/>
<path d="M73.3992 43.7044C74.0499 43.7199 74.6078 44.2844 74.6122 44.9307C74.6144 45.6125 74.0212 46.1969 73.3416 46.1814C72.6753 46.1681 72.1485 45.6302 72.1463 44.9595C72.1397 44.2622 72.7152 43.6889 73.3992 43.7044Z" fill="black"/>
<path d="M87.7229 48.3329C87.7318 49.0081 87.1474 49.5991 86.47 49.6013C85.7772 49.6035 85.2349 49.0413 85.2415 48.3307C85.2504 47.6445 85.7418 47.1398 86.4302 47.1177C87.1186 47.0978 87.714 47.6556 87.7229 48.3329Z" fill="black"/>
<path d="M75.5218 53.1031C74.8268 53.0854 74.2955 52.5121 74.3177 51.8037C74.3398 51.0866 74.891 50.5819 75.6104 50.6151C76.2656 50.6461 76.7968 51.2017 76.7968 51.8547C76.7991 52.5187 76.1837 53.1208 75.5218 53.1031Z" fill="black"/>
<path d="M75.9115 32.3157C76.5867 32.3356 77.16 32.951 77.1246 33.6173C77.0891 34.2946 76.4804 34.8325 75.7964 34.7927C75.1257 34.755 74.6365 34.2216 74.6454 33.542C74.6542 32.8381 75.2143 32.2958 75.9115 32.3157Z" fill="black"/>
<path d="M47.3656 25.7946C46.3097 27.4858 45.3845 29.0618 44.3308 30.5471C44.1914 30.7463 43.2573 30.6556 42.9651 30.3922C42.6707 30.1288 42.4892 29.3739 42.6552 29.022C43.2883 27.6806 44.0254 26.3768 44.851 25.1439C45.0702 24.8163 45.7785 24.5971 46.1858 24.6834C46.582 24.7698 46.8808 25.3121 47.3656 25.7946Z" fill="black"/>
</svg>
