<svg width="120" height="100" viewBox="0 0 120 100" fill="none" xmlns="http://www.w3.org/2000/svg">
<rect width="120" height="100" fill="white"/>
<path d="M40.9677 89.8919C39.9926 89.4366 39.7463 88.6236 39.7053 87.6094C39.334 78.6457 38.906 69.6859 38.5582 60.7222C38.5074 59.3934 38.7868 58.0528 38.908 56.767C38.0384 57.7343 37.6046 58.9713 37.542 60.3548C37.5127 61.0036 37.5479 61.6563 37.5245 62.3051C37.4932 63.1747 37.0066 63.6925 36.2621 63.6906C35.5195 63.6886 35.0564 63.1688 35.0212 62.2914C34.9176 59.8311 35.1482 57.4607 36.7467 55.4206C37.8547 54.0077 39.2461 53.0365 40.9423 52.4503C41.5344 52.2451 42.1284 51.9461 42.6209 51.5592C44.6278 49.9861 46.8731 49.0442 49.4292 49.0109C53.0444 48.964 56.6595 48.9914 60.2747 48.9875C60.5561 48.9875 60.8375 48.9875 61.1893 48.9875C61.3026 47.6665 61.4199 46.408 61.5195 45.1476C61.9592 39.6017 62.393 34.0558 62.8327 28.5099C63.1024 25.0901 63.3897 21.6704 63.63 18.2467C63.6554 17.891 63.4932 17.4455 63.2665 17.1641C62.5083 16.2202 61.9104 15.2353 62.1273 13.9729C62.4204 12.2631 64.0971 11.3622 65.7522 11.9914C65.9945 12.0833 66.2173 12.2357 66.4635 12.3041C66.9071 12.4292 67.2472 12.3373 67.2491 11.7765C67.2491 11.6729 67.2472 11.5674 67.253 11.4638C67.3136 10.5727 67.7572 10.0392 68.4626 10.0021C69.1642 9.96692 69.6332 10.4633 69.7856 11.3505C69.8169 11.5361 69.9673 11.7042 70.0611 11.8781C70.1413 11.7413 70.2702 11.6143 70.2917 11.4697C70.4422 10.475 70.8526 9.99037 71.5658 10.0001C72.3201 10.0099 72.752 10.5551 72.8126 11.5752C72.8185 11.6768 72.838 11.7765 72.8614 11.9543C74.3701 12.0676 75.4839 12.9236 76.5392 13.9241C77.7898 15.1103 79.3453 15.5109 81.0298 15.6203C84.2268 15.8313 86.007 19.169 84.3968 21.8951C83.6914 23.0891 82.6283 23.8102 81.233 23.8825C79.7538 23.9567 78.2705 23.9294 76.7873 23.945C76.5059 23.947 76.2265 23.945 75.8474 23.945C75.949 25.6783 76.0389 27.3276 76.1444 28.9789C76.4845 34.3235 76.9065 39.6642 77.1489 45.0127C77.3658 49.7887 77.4733 54.5744 77.4596 59.3543C77.4518 62.4145 77.1156 65.4728 76.9691 68.533C76.7111 73.9342 76.4845 79.3394 76.2421 84.7407C76.1972 85.7276 76.1073 86.7144 76.1171 87.7013C76.1268 88.7135 75.781 89.462 74.8351 89.8841C73.3793 89.8841 71.9215 89.8841 70.4657 89.8841C69.5101 89.5323 69.1407 88.8132 69.1095 87.8322C69.0489 85.9113 68.9531 83.9923 68.873 82.0714C68.7401 83.0269 68.6796 83.9825 68.6346 84.9381C68.5897 85.8995 68.5389 86.861 68.5271 87.8224C68.5154 88.8054 68.1383 89.5245 67.1866 89.8841C65.7307 89.8841 64.2729 89.8841 62.8171 89.8841C61.9025 89.4835 61.5606 88.778 61.5273 87.7892C61.4062 84.2072 61.2303 80.6272 61.0701 77.0453C60.988 75.2338 60.8942 73.4242 60.8043 71.5854C58.8423 71.5854 56.9566 71.5854 55.0239 71.5854C55.0102 71.8863 55.0005 72.1423 54.9887 72.3983C54.7562 77.5612 54.51 82.726 54.2989 87.8908C54.2598 88.8581 53.8768 89.5186 52.9838 89.8841C51.5279 89.8841 50.0701 89.8841 48.6143 89.8841C47.6939 89.4913 47.3382 88.7897 47.3148 87.7951C47.2679 85.9034 47.135 84.0138 47.0373 82.1241C46.9337 82.1261 46.8321 82.1261 46.7285 82.128C46.7285 83.9454 46.7148 85.7647 46.7344 87.5821C46.7461 88.5924 46.4452 89.4053 45.4955 89.8841C43.9849 89.8919 42.4763 89.8919 40.9677 89.8919ZM64.8279 35.199C65.1523 35.2947 65.4005 35.3651 65.6448 35.4432C68.0191 36.2034 69.7153 38.5445 69.7622 41.1298C69.8071 43.594 68.1793 46.0074 65.8988 46.8282C65.2344 47.0666 64.2788 47.0568 63.9505 47.5141C63.5714 48.0417 63.7375 48.9621 63.6652 49.7125C63.6593 49.7633 63.6535 49.8161 63.6476 49.8669C63.5049 51.2016 63.1688 51.5005 61.8029 51.5025C60.3275 51.5044 58.8521 51.5025 57.3572 51.5025C58.4378 55.999 54.0195 59.7842 49.5523 57.3669C49.9627 59.665 49.4546 61.029 47.8834 61.8322C46.5507 62.5142 44.9014 62.2464 43.8598 61.1775C42.8163 60.1086 42.5877 58.4671 43.3029 57.1383C43.7426 56.3214 44.3953 55.6746 45.3 55.5261C46.156 55.3854 47.0529 55.4948 47.731 55.4948C47.5571 54.4259 47.3597 53.1967 47.1623 51.9774C43.7758 52.718 40.9051 56.5481 41.0576 60.4447C41.38 68.6815 41.7591 76.9143 42.1187 85.1491C42.1519 85.8898 42.2125 86.6304 42.2594 87.3241C42.9668 87.3241 43.5765 87.3241 44.2135 87.3241C44.2272 87.0056 44.2389 86.7476 44.2507 86.4897C44.4949 81.0083 44.7314 75.5288 44.9854 70.0474C45.0519 68.6326 45.6518 68.2594 47.0197 68.531C48.2332 68.7714 49.4761 68.9805 50.7091 69.002C54.3243 69.0625 57.9395 69.0195 61.5547 69.0254C62.776 69.0274 63.245 69.4377 63.2939 70.5242C63.4581 74.2645 63.6144 78.0048 63.7805 81.747C63.8626 83.6073 63.9603 85.4677 64.0502 87.33C64.7537 87.33 65.3594 87.33 65.9926 87.33C66.0219 87.074 66.0571 86.8708 66.0649 86.6675C66.2896 81.4206 66.5163 76.1737 66.7313 70.9248C66.7957 69.3322 66.9462 69.1368 68.4548 68.7049C71.857 67.7318 73.9323 65.4903 74.7765 62.0686C74.9114 61.5234 74.8449 61.2361 74.2548 60.945C72.6367 60.1535 71.7417 58.7974 71.7124 56.9663C71.6811 55.1079 72.539 53.7322 74.1571 52.8391C75.1068 52.3154 75.1185 52.3252 74.8918 51.2074C72.7891 53.0404 70.7314 53.1831 69.0802 51.6119C67.6751 50.2753 67.4914 48.0339 68.6561 46.4979C69.2638 45.6947 70.0651 45.1828 71.0441 45.001C72.4061 44.7489 73.5864 45.2043 74.6554 46.1755C74.6749 45.9742 74.6984 45.8765 74.6925 45.7827C74.5811 43.9145 74.4893 42.0444 74.329 40.1801C74.3095 39.9554 73.9655 39.6564 73.7115 39.5724C71.2297 38.7575 69.5531 36.6626 69.3928 34.1144C69.2345 31.5779 70.6415 29.2642 73.0373 28.207C73.4829 28.0096 73.5825 27.7751 73.5454 27.3237C73.4282 25.8464 73.3324 24.3671 73.2718 22.8878C73.2347 21.9987 73.6685 21.5316 74.5479 21.4437C74.9348 21.4046 75.3276 21.428 75.7165 21.428C76.588 21.4261 77.4596 21.428 78.2471 21.428C78.5441 20.1872 78.806 19.0909 79.0151 18.2174C77.6589 17.4533 76.1835 16.9198 75.1087 15.9447C73.817 14.7741 72.4921 14.2504 70.8135 14.4302C70.4793 14.4654 70.1276 14.3853 69.8012 14.4458C68.9492 14.6041 68.0855 14.7507 67.2628 15.0165C66.6883 15.2021 66.2212 15.2119 65.7268 14.8582C65.4161 14.6354 65.0566 14.4791 64.7204 14.2915C64.6501 14.3775 64.5797 14.4634 64.5094 14.5494C64.8357 14.9578 65.1035 15.4425 65.5021 15.7571C66.102 16.23 66.3365 16.7693 66.2544 17.5119C66.1489 18.4675 66.0844 19.427 66.0102 20.3865C65.891 21.8951 65.7796 23.4017 65.6604 24.9514C67.7826 24.1834 69.2814 24.5097 70.2937 25.9031C71.1965 27.1459 71.1652 28.8284 70.2155 30.0361C69.0743 31.4861 67.6204 31.6717 65.2012 30.6419C65.0761 32.1446 64.9549 33.6357 64.8279 35.199ZM74.4482 68.1675C73.4711 68.8574 72.6074 69.5628 71.6518 70.1061C71.0636 70.4402 70.8838 70.7802 70.9171 71.4388C71.1222 75.5152 71.2786 79.5915 71.4564 83.6698C71.5092 84.8834 71.5756 86.0969 71.6362 87.3417C72.3162 87.3417 72.9259 87.3417 73.6138 87.3417C73.8932 80.9321 74.1707 74.5635 74.4482 68.1675ZM52.4952 71.5932C51.3618 71.5932 50.2851 71.5932 49.1263 71.5932C49.3569 76.8577 49.5835 82.0889 49.8141 87.3358C50.5196 87.3358 51.1293 87.3358 51.8054 87.3358C52.036 82.0772 52.2646 76.8635 52.4952 71.5932ZM52.3702 55.5945C54.2149 55.6062 55.4851 53.783 54.8187 52.0848C54.6663 51.696 54.465 51.4634 53.9667 51.4869C52.9056 51.5377 51.8406 51.5299 50.7795 51.4888C50.3222 51.4712 50.1405 51.6803 49.9861 52.0457C49.2826 53.7126 50.5313 55.5808 52.3702 55.5945ZM64.0717 44.661C65.8753 44.5164 67.1944 43.0566 67.2335 41.253C67.2687 39.5939 66.1255 38.0892 64.6149 37.8762C64.4351 40.1156 64.2573 42.3531 64.0717 44.661ZM73.7447 30.806C72.6699 31.1539 71.8824 32.4495 71.8824 33.8291C71.8824 35.1697 72.8282 36.5258 74.1219 36.944C73.9949 34.8785 73.8698 32.8462 73.7447 30.806ZM73.1155 48.7784C73.0959 48.0671 72.453 47.4457 71.7437 47.4535C70.9796 47.4613 70.3816 48.1081 70.4207 48.8839C70.4578 49.6304 71.0617 50.1834 71.8121 50.1541C72.541 50.1268 73.135 49.5014 73.1155 48.7784ZM80.7601 21.4202C81.7587 21.2834 82.2082 20.8692 82.4055 20.1852C82.6088 19.4837 82.388 18.917 81.6708 18.3737C81.3659 19.3918 81.0845 20.3337 80.7601 21.4202ZM67.767 26.9544C66.956 27.0521 66.5886 27.3511 66.5925 27.9334C66.5984 28.4767 66.9521 28.8206 67.4856 28.8265C68.0562 28.8323 68.4841 28.4708 68.3942 27.9022C68.3356 27.5309 67.9487 27.2123 67.767 26.9544ZM47.3695 58.9244C47.3656 58.8013 47.3617 58.6782 47.3578 58.555C47.0158 58.3244 46.6973 57.959 46.3279 57.8984C45.7495 57.8027 45.4017 58.2346 45.4173 58.7993C45.4329 59.3719 45.8218 59.7666 46.3846 59.6455C46.7461 59.5653 47.0431 59.1745 47.3695 58.9244ZM74.9524 55.3971C73.9421 56.3351 73.9675 57.5877 74.9524 58.2834C74.9524 57.3435 74.9524 56.425 74.9524 55.3971Z" fill="black"/>
<path d="M65.0096 63.8958C61.6543 63.8763 58.8775 61.076 58.94 57.7774C59.0045 54.4377 61.7188 51.7625 65.037 51.7703C68.3962 51.7781 71.13 54.5354 71.0948 57.8829C71.0616 61.2089 68.3219 63.9154 65.0096 63.8958ZM65.0448 61.373C67.0126 61.3632 68.6092 59.7491 68.5877 57.7891C68.5662 55.8252 66.9481 54.2618 64.9666 54.2872C63.032 54.3126 61.453 55.9033 61.453 57.8282C61.455 59.7843 63.0769 61.3828 65.0448 61.373Z" fill="black"/>
<path d="M55.8153 59.7297C57.7421 59.7317 59.2624 61.2716 59.2449 63.2023C59.2273 65.0744 57.6737 66.6181 55.8094 66.6142C53.9217 66.6123 52.3428 65.0099 52.3662 63.1182C52.3877 61.2364 53.9256 59.7278 55.8153 59.7297ZM56.7592 62.8837C56.5169 62.7196 56.1983 62.3503 55.8251 62.2838C55.2447 62.1822 54.8988 62.6121 54.9027 63.1769C54.9047 63.7123 55.2584 64.0582 55.7958 64.0641C56.3703 64.0699 56.6849 63.7182 56.7592 62.8837Z" fill="black"/>
<path d="M70.6063 16.9512C70.6669 16.3474 70.9952 16.0074 71.5658 16.0191C72.1345 16.0308 72.4921 16.3728 72.4823 16.959C72.4725 17.5472 72.0954 17.8775 71.5345 17.8716C70.9678 17.8658 70.6552 17.5043 70.6063 16.9512Z" fill="black"/>
</svg>
