<svg width="120" height="100" viewBox="0 0 120 100" fill="none" xmlns="http://www.w3.org/2000/svg">
<rect width="120" height="100" fill="white"/>
<path d="M45.6341 91C43.5392 90.0121 43.0604 88.8856 43.849 86.7061C45.0514 83.385 45.7858 79.9642 46.0566 76.4481C46.0826 76.1167 45.8919 75.6595 45.6428 75.4342C44.2476 74.156 42.82 72.9103 41.3706 71.6906C39.0265 69.717 37.7852 67.2191 37.9347 64.1645C38.0105 62.6177 37.7765 61.7728 36.0455 61.1835C32.7937 60.0743 30.9284 56.8355 31.0021 53.3302C31.0714 50.0697 33.2162 47.0887 36.3618 45.882C36.6088 45.7867 36.8558 45.6914 37.0139 45.6285C36.2254 43.2931 35.3415 41.0336 34.7024 38.7068C33.643 34.8571 33.2877 30.9467 34.3969 27.0298C35.5083 23.1172 37.8957 20.2034 41.4161 18.1821C41.7974 17.9633 42.1549 17.6427 42.4213 17.2939C47.5384 10.6343 54.2565 7.49078 62.6774 8.06705C66.3625 8.31836 69.8483 9.35608 73.2409 10.7599C74.2071 11.1607 74.7877 11.8713 74.8181 12.9177C74.8462 13.9229 74.3393 14.6465 73.4424 15.1296C72.9138 15.4134 72.4285 15.7817 71.7872 16.1998C73.0611 16.6959 74.1486 17.0816 75.2059 17.5387C78.2129 18.8364 80.9989 20.472 83.1956 22.9612C85.3187 25.3681 86.4366 28.1672 86.4388 31.3865C86.4431 35.8796 85.9232 40.2796 84.0059 44.4175C83.8152 44.8313 83.6073 45.2364 83.4816 45.4964C84.5951 46.2546 85.7823 46.8504 86.6944 47.7278C88.98 49.9289 89.7317 52.6803 88.9237 55.7436C88.1156 58.8069 86.0856 60.7805 83.0266 61.6341C82.4374 61.7987 82.2966 62.0457 82.2771 62.6198C82.2294 64.0453 82.2294 65.4947 81.9521 66.8833C81.5773 68.7616 80.4659 70.2738 79.0123 71.5282C77.5174 72.8194 76.0161 74.104 74.5581 75.4342C74.309 75.6617 74.1161 76.1167 74.1421 76.4481C74.4108 79.9642 75.1474 83.3872 76.3519 86.7061C77.1383 88.8747 76.6574 90.0099 74.5646 91C64.924 91 55.2791 91 45.6341 91ZM82.2641 48.3626C82.2641 49.305 82.3139 50.1694 82.2489 51.0251C82.1904 51.7812 81.586 52.2708 80.8689 52.2296C80.1236 52.1863 79.6687 51.7769 79.5539 51.0359C79.5084 50.7435 79.517 50.4445 79.5149 50.1477C79.4997 47.444 79.5625 44.7381 79.4585 42.0388C79.3264 38.5877 76.9498 35.6045 73.6265 34.6318C72.1945 34.2115 70.7192 33.958 69.2504 34.5711C68.6113 34.8376 68.2776 35.2817 68.2473 35.9923C68.1736 37.7493 67.3786 38.449 65.6173 38.3862C60.9724 38.2194 56.5854 37.0863 52.4735 34.9091C52.3197 34.8267 52.1443 34.7856 51.9818 34.7249C51.5182 35.4377 51.724 36.0291 52.0598 36.666C52.8288 38.1219 51.8258 39.7294 50.1706 39.7359C49.8738 39.738 49.577 39.6969 49.2802 39.6687C47.0293 39.4456 44.8672 38.8866 42.7766 38.0222C41.5959 37.5348 40.751 38.1154 40.6904 39.4044C40.6795 39.647 40.686 39.8918 40.686 40.1345C40.686 43.5943 40.6904 47.0541 40.6817 50.5138C40.6795 51.623 40.1596 52.2383 39.2843 52.234C38.4113 52.2275 37.9195 51.6165 37.9043 50.4987C37.8957 49.8011 37.9022 49.1035 37.9022 48.2846C37.5144 48.4297 37.2371 48.5142 36.9749 48.6334C34.737 49.6494 33.4133 52.0975 33.8076 54.4806C34.2366 57.0738 36.2557 58.8979 38.9875 59.1665C40.3351 59.2987 40.6752 59.6627 40.6839 61.0123C40.6904 62.1475 40.6882 63.2828 40.686 64.418C40.6839 66.4306 41.4529 68.0879 42.9716 69.4094C44.8911 71.0775 46.8083 72.75 48.7278 74.4203C48.8989 74.5677 49.0831 74.6998 49.3452 74.9056C49.2521 74.3294 49.1762 73.8787 49.1069 73.4281C48.4613 69.1494 49.9843 66.1533 53.8796 64.5241C57.9828 62.8105 62.1943 62.7975 66.2845 64.5393C69.6143 65.9583 71.4514 68.3912 71.1416 72.1478C71.068 73.0382 70.9662 73.9286 70.8622 74.9511C72.9961 73.0902 75.0195 71.3007 77.0733 69.5481C78.6981 68.1594 79.5344 66.4371 79.5105 64.2966C79.4975 63.1073 79.4889 61.9179 79.517 60.7285C79.5409 59.7038 79.9872 59.3247 81.001 59.1665C81.82 59.0387 82.6735 58.8871 83.4123 58.5404C85.5224 57.5482 86.7204 55.1933 86.3998 52.9056C86.0986 50.6958 84.437 48.8197 82.2641 48.3626ZM37.8653 39.1639C37.9 38.9863 37.9433 38.8086 37.9715 38.6288C38.2748 36.6877 39.7956 35.1842 41.7432 35.1019C42.521 35.0694 43.3442 35.3099 44.0916 35.5807C45.6883 36.1634 47.2936 36.6639 49.0593 36.8329C49.0289 36.5642 49.0138 36.3844 48.9856 36.2046C48.7863 34.9286 49.1221 33.789 49.915 32.7925C50.9116 31.5381 51.802 31.458 53.2535 32.1404C55.1794 33.0459 57.1357 33.9125 59.1461 34.6014C61.1652 35.2925 63.2883 35.5785 65.4656 35.559C65.8772 32.9095 67.6775 31.8002 70.0303 31.5143C75.3358 30.8709 80.5526 34.5083 81.8936 39.673C82.0149 40.141 82.1254 40.6111 82.2402 41.0791C82.6909 39.7662 83.0418 38.4447 83.265 37.0993C83.6766 34.6144 83.9409 32.1014 83.4859 29.6013C82.8837 26.2997 80.7779 24.0336 78.0894 22.2203C75.7821 20.6648 73.2301 19.6444 70.6022 18.7714C68.6394 18.1171 68.1455 16.3146 69.5038 14.7505C70.0476 14.1244 70.704 13.5979 71.3128 13.0238C71.2738 12.9957 71.2131 12.935 71.1416 12.9068C67.3764 11.4293 63.4963 10.4934 59.4278 10.7426C53.1451 11.126 48.1819 13.9207 44.5379 19.0617C44.1523 19.6054 43.6107 20.1124 43.0301 20.4373C39.9429 22.1662 37.8632 24.6662 36.9858 28.1C36.0217 31.8739 36.6651 35.546 37.8653 39.1639ZM51.7976 71.5867C51.7976 77.5487 55.9052 81.0496 59.8199 82.5726C59.9975 82.6419 60.251 82.6333 60.4287 82.5618C64.3152 81.0063 68.2343 77.6267 68.4098 71.8683C68.4748 69.7257 67.5432 68.3284 65.7711 67.3361C64.0444 66.3699 62.1488 66.0969 60.212 66.0883C58.1669 66.0774 56.1565 66.3287 54.3367 67.3708C52.6404 68.3435 51.5442 69.678 51.7976 71.5867ZM48.8924 78.2463C48.0865 81.5826 47.285 84.895 46.4899 88.1815C55.5174 88.1815 64.69 88.1815 73.7045 88.1815C72.9073 84.8668 72.1144 81.576 71.3171 78.2571C70.9965 78.5344 70.6109 78.9048 70.1862 79.2233C68.0307 80.8438 65.8772 82.4686 63.7 84.0566C61.3191 85.7919 58.9035 85.8049 56.5204 84.0588C54.3237 82.4491 52.1486 80.8113 49.9713 79.1735C49.5662 78.8702 49.2001 78.5127 48.8924 78.2463Z" fill="black"/>
<path d="M50.3483 43.9516C51.672 43.9516 52.9978 43.9451 54.3215 43.9538C55.3224 43.9603 55.8922 44.4477 55.9138 45.284C55.9355 46.1549 55.3419 46.7051 54.3237 46.7095C51.7023 46.7203 49.0809 46.7203 46.4574 46.7095C45.4673 46.7051 44.8196 46.1137 44.8434 45.284C44.8672 44.4802 45.4868 43.9581 46.4552 43.9516C47.7529 43.9429 49.0506 43.9516 50.3483 43.9516Z" fill="black"/>
<path d="M69.805 46.7139C68.5073 46.7139 67.2096 46.7225 65.9119 46.7117C64.8763 46.703 64.2827 46.1831 64.2871 45.3187C64.2914 44.4565 64.8785 43.956 65.9271 43.9538C68.5224 43.9473 71.1178 43.9473 73.711 43.9538C74.7206 43.956 75.3662 44.5106 75.3597 45.3339C75.3532 46.1549 74.7011 46.7052 73.6959 46.7139C72.3982 46.7225 71.1005 46.7139 69.805 46.7139Z" fill="black"/>
<path d="M51.8388 52.2383C51.6243 53.0876 51.1975 53.6509 50.318 53.6075C49.5316 53.5685 49.1286 53.0529 48.9705 52.2383C48.5242 52.2383 48.0692 52.26 47.6143 52.234C46.7759 52.1885 46.2429 51.6252 46.2538 50.8367C46.2646 50.0871 46.7867 49.5065 47.5839 49.4935C49.4471 49.4632 51.3102 49.4632 53.1712 49.4913C53.9792 49.5043 54.5685 50.1499 54.5512 50.8908C54.5338 51.6382 53.9446 52.1993 53.1148 52.2383C52.7119 52.2535 52.3089 52.2383 51.8388 52.2383Z" fill="black"/>
<path d="M71.2326 52.2382C71.0723 53.0463 70.6759 53.5663 69.8894 53.6096C69.0099 53.6572 68.5853 53.0918 68.3578 52.2382C67.9137 52.2382 67.4609 52.2599 67.0124 52.2339C66.2347 52.1884 65.6714 51.6208 65.6498 50.8994C65.6281 50.1563 66.213 49.5064 67.0211 49.4934C68.8842 49.4652 70.7474 49.463 72.6083 49.4934C73.4381 49.5064 73.9688 50.1238 73.945 50.9102C73.9212 51.662 73.3991 52.1884 72.5931 52.2339C72.1642 52.2577 71.7309 52.2382 71.2326 52.2382Z" fill="black"/>
<path d="M60.0409 60.5294C59.5816 60.5294 59.1202 60.5532 58.6609 60.525C57.8983 60.4774 57.3805 59.9596 57.3394 59.249C57.2982 58.5492 57.7683 57.8733 58.4984 57.8235C59.5751 57.7498 60.6627 57.7498 61.7372 57.8343C62.4651 57.8907 62.9201 58.5882 62.8594 59.288C62.8009 59.9661 62.3005 60.473 61.5812 60.5229C61.0699 60.5575 60.5543 60.5294 60.0387 60.5294C60.0409 60.5272 60.0409 60.5272 60.0409 60.5294Z" fill="black"/>
<path d="M60.0604 71.6277C58.7908 71.6277 57.5192 71.6385 56.2496 71.6234C55.1577 71.6104 54.5446 71.0774 54.5685 70.1978C54.5901 69.3508 55.1794 68.859 56.2496 68.8547C58.8168 68.8438 61.3841 68.8417 63.9513 68.8547C65.0193 68.859 65.6086 69.3529 65.6324 70.1978C65.6562 71.0796 65.0475 71.6104 63.9513 71.6234C62.6557 71.6385 61.3581 71.6277 60.0604 71.6277Z" fill="black"/>
<path d="M60.1058 74.4246C60.6193 74.4246 61.1371 74.3899 61.6462 74.4333C62.3633 74.4961 62.7597 74.9467 62.8529 75.64C62.9439 76.3137 62.5236 77.0135 61.8303 77.0698C60.6799 77.163 59.5101 77.163 58.3597 77.0655C57.6686 77.007 57.2548 76.3007 57.348 75.627C57.4455 74.9315 57.8484 74.4896 58.5655 74.4289C59.0768 74.3899 59.5924 74.4246 60.1058 74.4246Z" fill="black"/>
</svg>
