<svg width="120" height="100" viewBox="0 0 120 100" fill="none" xmlns="http://www.w3.org/2000/svg">
<rect width="120" height="100" fill="white"/>
<path d="M93.3179 60.0372L49.9721 16.7004C47.0678 13.7967 43.0564 12 38.6246 12C34.1928 12 30.1813 13.7967 27.2771 16.7004L25.6982 18.2758C22.7939 21.1794 21 25.19 21 29.6209C21 34.0518 22.7971 38.0624 25.6982 40.966L69.044 84.2996C71.9482 87.2033 75.9597 89 80.3915 89C84.8233 89 88.8347 87.2033 91.739 84.2996L93.3179 82.721C96.2093 79.8142 98 75.8036 98 71.3759C98 66.9482 96.2125 62.9408 93.3179 60.0308V60.0372ZM37.9025 47.8097L28.365 38.2741C26.1539 36.0539 24.7836 32.993 24.7836 29.6113C24.7836 26.2296 26.1507 23.1655 28.365 20.9484L29.9439 19.3731C32.1646 17.1624 35.2261 15.7924 38.6085 15.7924C41.991 15.7924 45.0557 17.1592 47.2732 19.3731L56.8107 28.9086L37.9025 47.8097ZM90.6222 80.0323L89.0433 81.6109C86.8226 83.8215 83.7611 85.1883 80.3786 85.1883C76.9962 85.1883 73.9315 83.8215 71.7108 81.6077L62.1732 72.0753L81.0879 53.1646L90.6254 62.7002C92.8429 64.9205 94.2164 67.9878 94.2164 71.3759C94.2164 74.764 92.8429 77.8281 90.6254 80.0516L90.6222 80.0323Z" fill="black"/>
<path d="M50.5554 31.4123C50.8312 31.049 51 30.5467 51 29.9947C51 28.894 50.3277 28 49.5 28C48.6723 28 48 28.894 48 29.9947C48 30.5503 48.1714 31.0525 48.4446 31.4123C48.7125 31.7756 49.0875 32 49.5 32C49.9125 32 50.2848 31.7756 50.5554 31.4123Z" fill="black"/>
<path d="M37.5929 18.5786C37.225 18.9429 37 19.4464 37 20C37 21.1036 37.8964 22 39 22C40.1036 22 41 21.1036 41 20C41 19.4429 40.7714 18.9393 40.4071 18.5786C40.0464 18.2214 39.55 18 39 18C38.45 18 37.9536 18.2214 37.5929 18.5786Z" fill="black"/>
<path d="M37.5929 39.4339C37.225 39.7071 37 40.0848 37 40.5C37 41.3277 37.8964 42 39 42C40.1036 42 41 41.3277 41 40.5C41 40.0821 40.7714 39.7045 40.4071 39.4339C40.0464 39.1661 39.55 39 39 39C38.45 39 37.9536 39.1661 37.5929 39.4339Z" fill="black"/>
<path d="M27.5929 28.5786C27.225 28.9429 27 29.4464 27 30C27 31.1036 27.8964 32 29 32C30.1036 32 31 31.1036 31 30C31 29.4429 30.7714 28.9393 30.4071 28.5786C30.0464 28.2214 29.55 28 29 28C28.45 28 27.9571 28.2214 27.5929 28.5786Z" fill="black"/>
<path d="M40.4071 31.4214C40.775 31.0571 41 30.5536 41 30C41 28.8964 40.1036 28 39 28C37.8964 28 37 28.8964 37 30C37 30.5571 37.2286 31.0607 37.5929 31.4214C37.9536 31.7786 38.45 32 39 32C39.55 32 40.0464 31.7786 40.4071 31.4214Z" fill="black"/>
<path d="M91.4214 69.5929C91.0571 69.225 90.5536 69 90 69C88.8964 69 88 69.8964 88 71C88 72.1036 88.8964 73 90 73C90.5571 73 91.0607 72.7714 91.4214 72.4071C91.7786 72.0464 92 71.55 92 71C92 70.45 91.7786 69.9536 91.4214 69.5929Z" fill="black"/>
<path d="M78.5929 59.4339C78.225 59.7071 78 60.0848 78 60.5C78 61.3277 78.8964 62 80 62C81.1036 62 82 61.3277 82 60.5C82 60.0821 81.7714 59.7045 81.4071 59.4339C81.0464 59.1661 80.55 59 80 59C79.45 59 78.9536 59.1661 78.5929 59.4339Z" fill="black"/>
<path d="M78.5929 79.5786C78.225 79.9429 78 80.4464 78 81C78 82.1036 78.8964 83 80 83C81.1036 83 82 82.1036 82 81C82 80.4429 81.7714 79.9393 81.4071 79.5786C81.0464 79.2214 80.55 79 80 79C79.45 79 78.9536 79.2214 78.5929 79.5786Z" fill="black"/>
<path d="M68.4446 69.5786C68.1688 69.9429 68 70.4464 68 71C68 72.1036 68.6723 73 69.5 73C70.3277 73 71 72.1036 71 71C71 70.4429 70.8286 69.9393 70.5554 69.5786C70.2848 69.2214 69.9125 69 69.5 69C69.0875 69 68.7152 69.2214 68.4446 69.5786Z" fill="black"/>
<path d="M81.4071 72.4214C81.775 72.0571 82 71.5536 82 71C82 69.8964 81.1036 69 80 69C78.8964 69 78 69.8964 78 71C78 71.5571 78.2286 72.0607 78.5929 72.4214C78.9536 72.7786 79.45 73 80 73C80.55 73 81.0464 72.7786 81.4071 72.4214Z" fill="black"/>
</svg>
