<svg width="120" height="100" viewBox="0 0 120 100" fill="none" xmlns="http://www.w3.org/2000/svg">
<rect width="120" height="100" fill="white"/>
<path d="M68.5781 91.0014C67.9111 90.8087 67.2289 90.6528 66.5793 90.4125C64.4116 89.6092 62.8416 88.1283 61.6917 86.1343C54.5953 73.8454 47.4794 61.5651 40.3808 49.2762C40.1015 48.7934 39.833 48.5357 39.2136 48.5314C37.9555 48.5228 37.1586 47.7433 36.5565 46.6954C33.1394 40.7588 29.707 34.8265 26.2812 28.8921C23.7973 24.5923 21.3135 20.2946 18.8318 15.9948C17.3354 13.4054 17.853 11.4417 20.4256 9.95642C21.2203 9.49743 22.0086 9.02977 22.8098 8.5816C24.8259 7.45577 26.9763 7.98838 28.124 9.97158C34.181 20.431 40.2184 30.9034 46.2602 41.3715C46.9835 42.6251 46.8687 43.8462 46.0697 45.0413C52.1288 55.5073 58.1836 65.9645 64.2752 76.4846C66.2371 75.3544 68.1385 74.2394 70.0614 73.1547C74.1889 70.8273 79.1588 72.1393 81.4499 76.1468C83.5071 79.7452 82.6258 84.4044 79.2454 86.786C77.3592 88.1153 75.2717 89.174 73.2274 90.2631C72.5085 90.6463 71.6466 90.7632 70.8497 91.0014C70.0918 91.0014 69.3338 91.0014 68.5781 91.0014ZM42.0461 47.5831C42.1587 47.8083 42.2324 47.9772 42.3255 48.1374C49.4717 60.4891 56.6092 72.8451 63.7728 85.1882C65.804 88.6891 69.7388 89.7153 73.2859 87.7321C74.5809 87.009 75.8672 86.2685 77.134 85.4978C77.6603 85.1773 78.1756 84.8071 78.6023 84.3676C80.6422 82.2653 80.8262 78.9723 79.0722 76.6513C77.2705 74.2632 74.0222 73.5531 71.3824 75.0188C69.2364 76.2096 67.1272 77.4654 64.9985 78.6908C63.6602 79.4616 63.318 79.3685 62.5536 78.0499C56.5941 67.755 50.6324 57.4602 44.6729 47.1653C44.5256 46.9119 44.3676 46.6651 44.1813 46.3577C43.4516 46.7755 42.7608 47.1718 42.0461 47.5831ZM36.0282 28.3855C36 28.2491 36.0043 28.1603 35.9675 28.0932C32.6911 22.4142 29.419 16.7309 26.1231 11.0628C25.6445 10.24 24.8627 10.056 24.0268 10.5063C23.1238 10.9935 22.2468 11.5261 21.3611 12.0414C20.1614 12.7385 19.9752 13.4314 20.6768 14.6503C23.8211 20.0933 26.9676 25.5384 30.1141 30.9814C30.2289 31.1806 30.3675 31.3646 30.5082 31.5746C32.4009 30.4813 34.2199 29.4312 36.0282 28.3855ZM37.2495 30.3037C35.333 31.4122 33.4945 32.4731 31.604 33.5665C32.9748 35.9394 34.3174 38.2625 35.6817 40.6246C37.6025 39.5117 39.454 38.4422 41.325 37.3575C39.9412 34.9651 38.6224 32.681 37.2495 30.3037ZM42.4619 39.3299C40.5216 40.4514 38.6852 41.5123 36.8164 42.5926C37.4509 43.6925 38.0529 44.7447 38.6636 45.7904C38.9776 46.3295 39.4345 46.4443 39.9672 46.1412C41.3034 45.3856 42.6308 44.617 43.9583 43.8462C44.4585 43.5561 44.6144 43.1079 44.3416 42.61C43.7526 41.5274 43.1181 40.4687 42.4619 39.3299Z" fill="black"/>
<path d="M101 56.7976C100.688 57.8541 100.476 58.9518 100.045 59.9564C98.014 64.6957 92.886 67.2765 87.7906 66.1853C82.7882 65.1136 79.2173 60.58 79.2779 55.373C79.3364 50.3154 83.0416 45.9051 88.0418 44.9395C94.0662 43.7769 99.7637 47.7021 100.842 53.7535C100.879 53.9613 100.946 54.1605 101 54.3662C101 55.1759 101 55.9878 101 56.7976ZM90.0579 64.161C94.861 64.1826 98.7221 60.3505 98.7286 55.5548C98.7351 50.8545 94.926 47.0461 90.1748 47.0007C85.4453 46.9573 81.556 50.8155 81.5474 55.5613C81.5387 60.279 85.3609 64.1393 90.0579 64.161Z" fill="black"/>
<path d="M53.5797 86.7558C48.3543 86.2123 43.575 84.7834 39.0858 82.4148C33.2909 79.3577 28.5463 75.1164 24.8649 69.6972C24.6505 69.3833 24.4361 68.9329 24.5011 68.6017C24.5704 68.2531 24.9342 67.779 25.2482 67.7075C25.6098 67.6252 26.1815 67.8093 26.4414 68.0842C27.0282 68.7078 27.457 69.4764 27.9897 70.1562C34.365 78.2709 42.6654 83.0232 52.8997 84.385C53.1682 84.4197 53.4367 84.4521 53.7009 84.5041C54.3896 84.6383 54.749 85.1125 54.6689 85.7642C54.5931 86.379 54.0799 86.7774 53.5797 86.7558Z" fill="black"/>
<path d="M51.1759 80.0202C49.0797 79.3339 46.951 78.7298 44.8916 77.9418C42.1804 76.9069 39.7095 75.4065 37.4054 73.6398C36.7428 73.131 36.589 72.5161 36.955 71.9662C37.3578 71.3621 38.0681 71.2993 38.787 71.8449C41.0565 73.5727 43.4905 75.0254 46.1649 76.0084C47.88 76.6384 49.6666 77.0757 51.4271 77.5824C52.1678 77.7967 52.5879 78.2665 52.5077 78.8771C52.4298 79.4963 51.9252 79.8795 51.1759 80.0202Z" fill="black"/>
<path d="M35.4694 69.2815C35.4868 70.1821 34.4581 70.836 33.8042 70.3055C33.1047 69.7383 32.5005 69.0108 32.0111 68.2531C31.853 68.0062 32.0674 67.3242 32.3294 67.0623C32.559 66.8328 33.2736 66.7202 33.4707 66.8956C34.1831 67.5299 34.7721 68.3029 35.398 69.0325C35.4629 69.1061 35.4586 69.236 35.4694 69.2815Z" fill="black"/>
<path d="M74.6653 76.5908C74.949 76.8463 75.3929 77.0671 75.5034 77.3962C75.616 77.7383 75.4449 78.2016 75.3128 78.5827C75.2543 78.7494 74.9923 78.8577 74.8082 78.9637C72.5236 80.2844 70.239 81.6051 67.9479 82.9171C67.1163 83.3935 66.497 83.2895 66.1288 82.6444C65.765 82.0078 65.9967 81.4384 66.8456 80.9448C69.1281 79.6198 71.4149 78.2991 73.7038 76.987C73.9507 76.8441 74.2366 76.764 74.6653 76.5908Z" fill="black"/>
<path d="M70.7479 85.7748C70.4361 85.4847 69.9618 85.2401 69.8579 84.8893C69.7539 84.5364 69.886 83.8652 70.1481 83.6942C71.521 82.8022 72.9459 81.9773 74.412 81.2498C74.6913 81.1113 75.4146 81.3971 75.6095 81.698C75.8044 81.9989 75.7633 82.8195 75.5359 82.9689C74.0785 83.9237 72.5431 84.7551 71.0294 85.6233C70.9883 85.6471 70.9233 85.6341 70.8692 85.6384C70.8302 85.6861 70.7891 85.7294 70.7479 85.7748Z" fill="black"/>
<path d="M89.6919 50.9672C88.8083 50.9845 88.2496 50.5342 88.2626 49.8176C88.2734 49.1507 88.7802 48.7177 89.5684 48.7004C90.4303 48.6809 90.95 49.0771 90.9825 49.7764C91.0172 50.5017 90.5299 50.9521 89.6919 50.9672Z" fill="black"/>
<path d="M94.469 53.3985C93.6396 53.392 93.1091 52.9373 93.1264 52.2423C93.1415 51.5517 93.6786 51.123 94.5188 51.1295C95.3634 51.136 95.8614 51.5733 95.8463 52.2921C95.8311 53.0087 95.3395 53.405 94.469 53.3985Z" fill="black"/>
<path d="M90.7313 56.237C89.9041 56.2283 89.3519 55.7455 89.3822 55.0527C89.4104 54.3621 89.9539 53.9529 90.8201 53.9723C91.6387 53.9897 92.1151 54.4032 92.1129 55.0982C92.1086 55.8105 91.5802 56.2457 90.7313 56.237Z" fill="black"/>
</svg>
