<svg width="120" height="100" viewBox="0 0 120 100" fill="none" xmlns="http://www.w3.org/2000/svg">
<rect width="120" height="100" fill="white"/>
<path d="M96 36.0559C95.1995 36.9287 94.399 37.8014 93.5504 38.726C94.412 39.8174 95.1977 41.1312 95.4608 42.6543C95.6479 43.7365 95.6739 44.852 95.7017 45.9545C95.7184 46.616 95.3385 47.1181 94.6881 47.2868C93.5096 47.5925 92.3181 47.8389 91.0211 48.1354C91.0396 50.7259 90.0872 53.1588 88.501 55.3601C86.939 57.5263 85.0341 59.3125 82.6197 60.5318C84.4189 64.6917 83.989 68.5218 80.6241 71.6366C77.4184 74.6051 73.6958 74.7719 69.7675 72.8911C68.4723 75.3648 66.5341 77.1122 63.7806 77.833C61.0345 78.5519 58.4774 78.0572 56.1185 76.5062C53.2909 81.8502 46.7999 82.9212 42.5177 79.9454C39.9328 84.1553 36.2436 85.9823 31.4221 84.55C27.6402 83.4271 25.4333 80.6439 25.0535 76.7119C24.6421 72.4612 26.6211 69.3945 30.3937 67.3581C28.9355 64.9789 28.5334 62.42 29.3153 59.7369C30.0936 57.063 31.815 55.1489 34.3554 53.9167C32.8804 51.4745 32.4617 48.9062 33.2881 46.1898C34.1164 43.4715 35.8934 41.5685 38.4505 40.3844C36.6475 36.0689 37.1256 32.1721 40.6851 29.0684C43.8611 26.2982 47.4874 26.1888 51.2489 27.9973C53.9357 23.5539 57.7603 21.7046 62.8411 23.3538C66.699 24.6064 68.7873 28.0196 68.8873 32.702C69.7416 32.8132 70.6013 32.9466 71.4648 33.0152C71.6334 33.0282 71.8595 32.8188 71.9966 32.6594C73.8848 30.4377 75.1337 27.8695 75.8656 25.0715C76.403 23.0203 76.8199 20.9357 77.2035 18.8492C77.6537 16.4311 78.7618 14.63 81.2948 14C81.8044 14 82.3121 14 82.8217 14C82.9273 14.0426 83.0292 14.0982 83.1367 14.126C85.2769 14.6763 86.6907 16.1921 86.8834 18.3971C87.178 21.7769 86.4461 24.9974 85.1231 28.0974C85.0045 28.3753 84.884 28.6533 84.7321 29.0035C85.023 28.9831 85.1824 28.9776 85.3399 28.959C88.4102 28.581 91.0767 29.4742 93.378 31.5143C94.5769 32.576 95.3348 33.938 95.9981 35.3647C96 35.5927 96 35.8243 96 36.0559ZM92.9852 35.5612C90.7802 31.2882 85.1212 30.3432 81.7951 33.5729C81.1021 34.2456 80.448 34.4105 79.5549 34.1177C78.293 33.7008 77.0052 33.7545 75.7304 34.1196C72.9101 34.9293 70.7385 37.592 70.5902 40.3622C70.5624 40.8699 70.7051 41.0997 71.2054 41.1034C71.9188 41.109 72.634 41.1442 73.3456 41.1127C74.109 41.0775 74.7853 41.4184 74.8891 42.0873C74.9521 42.4913 74.865 42.9619 74.7149 43.351C73.9219 45.4004 73.9812 47.3942 74.9577 49.388C76.3826 49.0582 77.5129 48.3522 78.5043 47.3701C78.7841 47.0922 79.1546 46.818 79.5252 46.7346C80.3461 46.553 80.9039 47.0514 81.1503 48.0372C81.8526 50.8482 83.5518 52.7956 86.2237 53.963C87.9748 51.7932 88.5659 49.3991 88.0452 46.7179C87.8265 45.5931 88.6048 44.8723 89.7425 44.9983C90.6282 45.0965 91.5325 45.0576 92.4275 45.0613C92.8592 45.0632 93.013 44.839 92.9685 44.3924C92.774 42.3801 91.8938 40.7421 90.3466 39.4505C89.2015 38.4944 89.3812 37.3808 90.7264 36.7767C91.4954 36.4302 92.2181 35.9781 92.9852 35.5612ZM53.2297 31.9794C53.2019 35.7817 56.5947 38.8483 60.3451 38.3777C60.6046 38.3443 60.9325 38.1071 61.0585 37.8737C62.0814 35.9484 63.5638 34.5272 65.5279 33.5803C65.7484 33.4747 65.98 33.1745 66.0152 32.9355C66.5841 29.1999 63.8436 25.8071 60.0728 25.5403C56.3983 25.279 53.2575 28.2345 53.2297 31.9794ZM42.5807 58.1081C40.4758 58.1322 38.5931 57.6597 36.9384 56.4868C36.5234 56.1921 36.188 56.1736 35.7396 56.357C33.1009 57.4336 31.537 59.9926 31.7464 62.9314C31.9391 65.6219 33.9737 67.9678 36.6735 68.6107C39.3695 69.2537 42.2268 68.0493 43.6684 65.6738C44.1317 64.9122 44.3466 64.2692 43.7425 63.365C42.7178 61.8326 42.4603 60.0296 42.5807 58.1081ZM69.6563 51.3096C68.7984 51.1891 67.9108 51.1521 67.0751 50.926C66.2394 50.6999 65.4593 50.2682 64.6403 49.9699C64.4291 49.8939 64.14 49.9309 63.9158 50.0032C61.1642 50.8871 59.3001 53.6962 59.5336 56.585C59.7781 59.6275 62.011 61.9827 65.1258 62.483C67.8515 62.9203 70.7681 61.2711 71.878 58.6862C72.0355 58.3212 71.9484 58.0933 71.7613 57.7542C71.1406 56.635 70.4902 55.5065 70.0788 54.304C69.7601 53.3682 69.7842 52.3157 69.6563 51.3096ZM38.5913 71.594C38.4282 71.5755 38.3393 71.5551 38.2522 71.5551C36.2547 71.5458 34.4388 70.977 32.7841 69.8485C32.5728 69.704 32.167 69.6984 31.9113 69.7929C28.9762 70.8639 27.2937 73.938 27.8867 77.0899C28.3999 79.8194 30.7977 81.9706 33.6123 82.2282C36.4085 82.4839 39.1342 80.8403 40.1348 78.2703C40.2219 78.0461 40.2515 77.694 40.133 77.5143C38.9786 75.7261 38.4857 73.7713 38.5913 71.594ZM56.6559 55.3268C56.4947 55.3175 56.2927 55.3064 56.0889 55.2971C53.9413 55.2045 52.0105 54.5226 50.3817 53.1032C49.9982 52.7678 49.6998 52.779 49.2737 52.9568C46.5943 54.0797 45.0137 56.8296 45.3732 59.7906C45.7122 62.5904 48.0377 64.9048 50.908 65.2995C53.7486 65.6905 56.5558 64.0802 57.6917 61.4212C57.8937 60.9487 57.9178 60.5466 57.6658 60.0574C57.3637 59.47 57.1395 58.8178 57.0135 58.1692C56.8356 57.2502 56.7745 56.307 56.6559 55.3268ZM52.42 37.6995C50.9487 35.7483 50.3206 33.6341 50.4558 31.2771C50.4688 31.0399 50.2261 30.6934 50.0037 30.5526C47.7672 29.1314 44.8006 29.3148 42.6771 30.9695C40.5758 32.6075 39.7049 35.4426 40.5184 37.9941C41.3355 40.5605 43.6832 42.3412 46.3423 42.4727C47.2836 42.5191 47.9377 42.3727 48.425 41.385C49.2514 39.7081 50.6986 38.5722 52.42 37.6995ZM46.4182 66.4316C45.3398 68.4569 43.837 69.8948 41.8229 70.8028C41.6468 70.8825 41.5004 71.1715 41.4597 71.3865C40.8741 74.4884 42.9402 77.7014 46.0643 78.5779C49.2107 79.4617 52.672 77.7626 53.7708 74.7682C53.856 74.5384 53.7708 74.2049 53.6745 73.9547C53.2538 72.8633 52.7146 71.8108 52.3903 70.6935C52.1587 69.8948 52.2013 69.0165 52.1161 68.1123C50.0704 68.1827 48.1785 67.6138 46.4182 66.4316ZM47.1242 45.2911C46.9519 45.2707 46.8407 45.2466 46.7277 45.2466C44.3837 45.2689 42.3528 44.4665 40.5554 42.9805C40.372 42.8285 39.9551 42.8118 39.7123 42.9045C36.7235 44.0515 35.0465 47.3646 35.8526 50.4683C36.6364 53.4868 39.5548 55.5918 42.5937 55.299C42.8809 55.2712 43.2997 55.1452 43.4053 54.9377C44.4504 52.879 46.0198 51.3837 48.1637 50.3979C47.3243 48.7895 47.0075 47.0903 47.1242 45.2911ZM60.1043 41.1997C58.2402 41.2479 56.541 40.8292 54.9604 39.9268C54.814 39.8434 54.5602 39.8823 54.3767 39.936C51.3101 40.8143 49.3255 44.1701 49.9945 47.3312C50.6912 50.6184 53.7541 52.8753 56.945 52.4899C57.4026 52.4343 57.6157 52.236 57.8066 51.8525C58.5255 50.4183 59.5817 49.275 60.9251 48.3967C61.2828 48.1614 61.6552 47.9483 62.0591 47.7037C60.5731 45.771 60.0098 43.6049 60.1043 41.1997ZM60.0746 63.1982C59.3723 64.0413 58.7775 64.9456 57.9974 65.6386C57.2155 66.3316 56.239 66.8041 55.3699 67.4026C55.2124 67.5101 55.0994 67.7584 55.0642 67.9585C54.5454 70.951 56.3168 73.9436 59.2111 74.9961C62.1129 76.0523 65.3871 74.8664 66.9732 72.2148C67.4124 71.481 67.5588 70.9177 66.9102 70.1376C65.7781 68.7757 65.3408 67.0802 65.1962 65.2828C63.2247 65.0975 61.507 64.3711 60.0746 63.1982ZM67.9738 65.1086C68.022 65.4681 68.0405 65.7868 68.1091 66.0963C68.6946 68.7293 70.2863 70.4785 72.8953 71.1104C75.5932 71.7645 77.9169 70.9325 79.5771 68.7015C81.2003 66.5206 81.2911 64.1451 80.0422 61.7214C79.8643 61.3786 79.6475 61.2322 79.2306 61.2452C77.6815 61.2971 76.2066 60.9654 74.8168 60.2687C74.6593 60.189 74.4944 60.1278 74.3147 60.05C72.9676 62.6794 70.8997 64.3563 67.9738 65.1086ZM69.3654 35.626C66.7861 35.4963 64.3142 37.1714 63.3358 39.6266C62.3186 42.1781 63.0208 45.0669 65.098 46.8772C66.9121 48.4578 69.8379 48.9544 71.4908 47.9927C71.4908 46.6438 71.4908 45.3189 71.4908 44.0163C70.7088 43.8217 69.8972 43.6549 69.1078 43.414C68.1591 43.1231 67.9108 42.7396 67.8367 41.7575C67.6755 39.5747 68.1814 37.5531 69.3654 35.626ZM76.4567 30.9991C77.5611 31.0899 78.5969 31.1289 79.616 31.2808C80.07 31.3475 80.3165 31.2252 80.5296 30.8806C82.2584 28.0937 83.6222 25.1567 84.0131 21.8603C84.1447 20.7448 84.1688 19.6034 84.0891 18.4842C84.0243 17.567 83.2219 16.9055 82.3325 16.7887C81.4375 16.672 80.7149 17.0963 80.322 18.0302C80.146 18.4508 80.0144 18.903 79.944 19.3551C79.3121 23.3983 78.482 27.3784 76.4567 30.9991ZM79.0639 50.5962C78.4301 50.9464 77.8668 51.3133 77.2609 51.5801C75.6599 52.2842 74.059 52.7493 72.6711 51.1002C71.9725 53.887 73.7514 56.9166 76.6921 58.0377C79.4104 59.0735 82.8439 58.1044 83.9613 55.9568C81.7507 54.7079 80.1219 52.9068 79.0639 50.5962Z" fill="black"/>
</svg>
