<svg width="120" height="100" viewBox="0 0 120 100" fill="none" xmlns="http://www.w3.org/2000/svg">
<rect width="120" height="100" fill="white"/>
<path d="M17 39.1817C17.9065 38.3088 18.1555 38.2752 19.347 38.8765C26.8681 42.6617 33.0496 48.0019 37.8917 54.8903C38.0039 55.0473 38.1206 55.2021 38.2911 55.4355C38.4302 55.1528 38.5491 54.9419 38.6389 54.7197C40.4047 50.2816 42.6709 46.1171 45.4621 42.2444C45.7606 41.8315 45.7449 41.5309 45.5115 41.1135C42.6081 35.9147 39.2357 31.0525 35.2553 26.6211C35.1049 26.455 34.9479 26.2957 34.8043 26.1252C34.3443 25.5867 34.268 24.9966 34.7302 24.4491C35.1969 23.8971 35.814 23.8769 36.3929 24.2629C37.8132 25.2075 39.2379 26.1476 40.6179 27.1506C44.2034 29.7579 47.477 32.7219 50.7911 36.3119C50.9437 35.9865 51.0132 35.6432 51.2174 35.4323C55.2472 31.2791 59.8604 27.9135 65.0412 25.3376C65.4631 25.1267 66.1025 25.0549 66.5288 25.2142C67.3254 25.5127 67.3411 26.4505 66.6837 27.2516C64.7697 29.5896 62.7728 31.8647 60.98 34.2925C59.2052 36.6956 57.6323 39.249 56.0056 41.7597C55.853 41.9976 55.7924 42.489 55.9338 42.6932C58.5568 46.4694 60.8005 50.4521 62.5955 54.7848C63.2731 53.4026 63.8812 52.0855 64.5543 50.8044C70.2041 40.032 78.2839 31.5529 88.6748 25.2569C89.3636 24.8395 90.057 24.9338 90.4721 25.4745C90.9163 26.0556 90.8041 26.7108 90.131 27.3077C82.5089 34.0457 77.447 42.406 74.4112 52.0609C74.1374 52.9337 74.1442 53.4139 75.0484 53.9793C77.7252 55.6554 79.6504 58.1123 81.4566 60.6567C81.6159 60.8811 81.773 61.1077 81.9727 61.3927C82.0669 61.2715 82.1454 61.2042 82.1858 61.1189C85.437 54.0017 90.4047 48.2308 96.2856 43.189C97.7486 41.9348 99.3057 40.786 100.834 39.6102C101.561 39.0515 102.2 39.0897 102.698 39.6551C103.17 40.1891 103.082 40.8735 102.483 41.5129C96.5998 47.782 92.487 55.0092 90.665 63.4592C89.9291 66.872 89.7226 70.3251 90.0502 73.8097C90.0929 74.2719 90.2499 74.4559 90.7166 74.4267C91.1631 74.3998 91.6141 74.3975 92.0584 74.4402C92.7472 74.5075 93.1219 74.9338 93.1309 75.6114C93.1421 76.289 92.7831 76.7221 92.0965 76.8186C91.7936 76.8612 91.4817 76.8432 91.1743 76.8432C81.0729 76.8432 70.9715 76.8432 60.8701 76.8432C52.9249 76.8432 44.9797 76.8432 37.0346 76.8432C33.3436 76.8432 29.6526 76.8634 25.9616 76.8186C25.4949 76.8118 24.8846 76.5897 24.5974 76.2486C23.9848 75.5217 24.5951 74.4873 25.6048 74.4289C26.1074 74.3998 26.6123 74.42 27.1149 74.42C27.6152 74.42 28.1179 74.42 28.7977 74.42C30.3885 61.0584 26.2667 49.7498 17 40.1891C17 39.8525 17 39.516 17 39.1817ZM79.7828 35.0823C68.3508 45.711 61.5611 58.5992 60.5066 74.3773C63.3898 74.3773 66.1452 74.3773 68.9544 74.3773C68.6335 60.1698 71.9251 46.9967 79.7828 35.0823ZM45.0246 74.3729C45.0112 74.0901 44.991 73.8456 44.9887 73.6032C44.9775 71.3954 44.8406 69.1808 44.9842 66.9841C45.3746 61.0471 46.9318 55.3771 49.1666 49.8799C49.2631 49.6421 49.3528 49.3145 49.2653 49.1013C48.6034 47.4836 47.8966 45.886 47.1248 44.1C40.8108 53.3465 37.4317 63.338 36.9044 74.3729C39.6777 74.3729 42.3209 74.3729 45.0246 74.3729ZM55.6713 74.42C56.2502 74.42 56.7528 74.3796 57.2464 74.4289C57.8993 74.4963 58.099 74.2562 58.1372 73.5988C58.4199 68.6872 59.3712 63.899 60.9464 59.2409C61.1752 58.5655 61.1842 57.9732 60.9239 57.3023C57.6435 48.8164 52.6153 41.495 46.1712 35.1137C45.2467 34.1983 44.2774 33.3322 43.3283 32.4414C51.7402 45.159 57.0736 58.7293 55.6713 74.42ZM34.4363 74.3796C34.6876 69.0349 35.5739 63.899 37.1333 58.8774C37.2208 58.5947 37.0996 58.1617 36.9269 57.8946C33.6106 52.7632 29.4753 48.399 24.5368 44.8023C24.4067 44.7081 24.2474 44.6587 23.9287 44.5039C30.1911 53.6517 32.5897 63.5557 31.2636 74.3796C32.3675 74.3796 33.3638 74.3796 34.4363 74.3796ZM50.6273 52.9247C48.121 59.9342 46.7815 66.9886 47.5376 74.3773C49.465 74.3773 51.2735 74.3773 53.0663 74.3773C54.2555 70.554 52.8643 58.2155 50.6273 52.9247ZM93.6986 49.1395C93.5954 49.0767 93.4922 49.0161 93.3867 48.9533C91.466 51.4169 89.4309 53.7998 87.6494 56.3599C84.6921 60.6096 82.6817 65.2856 82.0871 70.4844C81.9413 71.7678 81.9525 73.067 81.8919 74.3549C83.9315 74.3549 85.7579 74.3549 87.6404 74.3549C86.799 65.225 89.1841 56.9253 93.6986 49.1395ZM76.2847 74.3863C76.5114 68.9654 75.6296 63.8967 72.6566 59.1153C71.6491 64.2894 71.243 69.2952 71.4786 74.3863C73.1098 74.3863 74.6401 74.3863 76.2847 74.3863ZM79.3879 74.3459C79.4148 74.3078 79.4462 74.2853 79.4462 74.2629C79.4036 71.0252 79.8276 67.857 80.7969 64.7628C80.8687 64.5362 80.7947 64.1974 80.6668 63.9865C79.0378 61.3321 77.2137 58.8303 74.8151 56.8019C74.4179 56.4654 73.9714 56.1849 73.5473 55.8798C76.4508 60.549 77.2944 62.0501 77.99 65.7815C78.4746 68.373 78.5442 71.0431 78.7888 73.6795C78.8247 74.0722 78.6698 74.604 79.3879 74.3459ZM53.9772 40.0837C55.9921 37.1331 57.9666 34.2476 59.9389 31.3599C59.8851 31.2993 59.8335 31.241 59.7796 31.1804C57.2442 33.3793 54.7065 35.5759 52.1329 37.8085C52.8284 38.6678 53.4051 39.3791 53.9772 40.0837Z" fill="black"/>
</svg>
