<svg width="120" height="100" viewBox="0 0 120 100" fill="none" xmlns="http://www.w3.org/2000/svg">
<rect width="120" height="100" fill="white"/>
<path d="M24.0036 58.3344C24.4318 56.9715 24.7108 55.5375 25.3167 54.2582C27.1043 50.4804 29.9794 47.7937 33.9721 46.4717C35.9196 45.8266 37.9329 45.3255 39.9533 44.9648C42.4445 44.5206 43.914 43.044 44.8913 40.8388C45.531 39.3959 46.1227 37.8784 47.0485 36.6257C49.3834 33.4699 53.6107 32.3184 57.3405 33.5623C58.9699 34.106 60.4323 34.9323 61.8486 35.9647C61.9943 35.8403 62.1435 35.7266 62.2768 35.5986C65.621 32.3824 68.9527 29.1519 72.3164 25.957C73.0308 25.2782 73.6012 24.5355 74.001 23.6417C74.2799 23.018 74.6033 22.4156 74.9019 21.815C74.0756 20.8217 73.9743 20.3544 74.4541 19.8426C74.877 19.3931 75.3923 19.4321 76.2434 19.9901C76.5864 19.6472 76.9293 19.3007 77.2741 18.9542C76.7339 18.0888 76.693 17.5895 77.1248 17.1701C77.5797 16.7294 78.0612 16.781 78.8893 17.3834C79.2109 17.0262 79.5396 16.6637 79.8328 16.3403C79.7085 15.944 79.5308 15.5425 79.4757 15.1231C79.4508 14.9365 79.6356 14.6789 79.792 14.5189C80.2007 14.1014 80.6733 14.1653 81.5529 14.7286C82.0878 13.9948 82.882 13.9734 83.6905 14.0107C86.9441 14.16 89.8423 17.0617 89.9898 20.3153C90.0271 21.1238 89.9986 21.9163 89.2665 22.4494C89.8458 23.3378 89.8867 23.8318 89.4353 24.2636C88.9805 24.699 88.4989 24.6474 87.7117 24.0735C87.3741 24.4235 87.0347 24.7736 86.7326 25.0846C86.857 25.4861 87.0329 25.8895 87.0863 26.3089C87.1094 26.4954 86.9263 26.7513 86.77 26.9112C86.3648 27.3217 85.8886 27.2542 85.0481 26.7211C84.6998 27.0641 84.3516 27.407 84.0051 27.7464C84.5808 28.6349 84.6074 29.1662 84.1099 29.5837C83.5928 30.0173 83.1681 29.9142 82.2086 29.1164C80.4405 29.8929 78.7987 30.7867 77.4429 32.2687C74.5163 35.4707 71.4511 38.5448 68.4427 41.674C68.3112 41.8108 68.1869 41.9565 68.0447 42.1129C68.4569 42.7597 68.887 43.3709 69.253 44.0195C70.6319 46.4646 71.4138 49.0464 70.6497 51.854C69.8536 54.7806 68.1229 56.968 65.3029 58.2402C63.94 58.8551 62.5682 59.4717 61.2782 60.2233C60.093 60.9145 59.4959 62.0873 59.1867 63.42C58.6963 65.5274 58.2965 67.6686 57.623 69.7192C55.974 74.7497 52.4664 77.9624 47.4661 79.5811C46.8797 79.7713 46.2596 79.8566 45.6554 79.9898C44.8825 79.9898 44.1095 79.9898 43.3347 79.9898C43.2139 79.9525 43.0931 79.9117 42.9705 79.8779C41.6129 79.5012 40.202 79.256 38.9084 78.7229C35.5376 77.3298 32.8047 75.0198 30.3134 72.4041C28.0301 70.0088 26.0399 67.4074 24.9293 64.2534C24.5064 63.0522 24.3039 61.7728 24 60.5289C24.0036 59.7951 24.0036 59.0647 24.0036 58.3344ZM66.5539 43.7156C66.4313 43.7992 66.3904 43.8169 66.3619 43.8471C64.3771 45.9013 62.4012 47.9643 60.4021 50.006C60.0343 50.3809 59.8602 50.7576 59.8388 51.296C59.6807 55.3776 55.6702 58.4108 51.681 57.4939C48.3599 56.7299 46.0534 53.6629 46.3591 50.4129C46.6967 46.8288 49.3621 44.2931 52.9337 44.1208C53.2376 44.1066 53.5929 43.9378 53.8168 43.7263C55.8603 41.7912 57.8807 39.8331 59.9064 37.8802C60.0254 37.7647 60.1338 37.6368 60.3488 37.4058C59.3928 36.8887 58.5239 36.3378 57.5928 35.9274C53.4757 34.1131 49.2288 35.8456 47.5141 40.0001C47.2778 40.574 47.0485 41.1533 46.8069 41.7255C45.6199 44.5419 43.6617 46.4397 40.5627 47.0012C39.5499 47.1842 38.5459 47.4134 37.5402 47.6338C34.4412 48.3108 31.5964 49.4729 29.4232 51.9055C26.4486 55.2355 25.3185 58.983 26.8466 63.3258C27.6853 65.7104 29.0625 67.7788 30.7115 69.6641C33.1458 72.445 35.8343 74.9256 39.2141 76.5426C41.2486 77.5164 43.3969 78.1152 45.6394 77.7385C49.9698 77.0153 53.0368 74.5187 54.9825 70.6219C56.0309 68.5233 56.4769 66.24 56.8643 63.9584C57.392 60.8541 59.009 58.6347 61.8894 57.3553C62.6535 57.0159 63.4282 56.6997 64.2065 56.3922C65.9923 55.6868 67.2788 54.4412 68.0767 52.7158C69.6137 49.3965 68.4498 46.5196 66.5539 43.7156ZM74.1236 27.1529C68.082 32.967 62.0103 38.8131 55.9598 44.6361C56.6457 45.1567 57.3334 45.5743 57.8842 46.1269C58.4333 46.6778 58.8473 47.3637 59.3573 48.0389C65.1945 41.976 71.0388 35.9043 76.8547 29.8627C75.9236 28.9387 75.0422 28.0645 74.1236 27.1529ZM83.3938 16.1377C83.2996 16.1946 83.0029 16.3048 82.795 16.5073C81.4765 17.7992 80.2398 19.178 78.8573 20.397C77.3967 21.6853 76.4478 23.2703 75.7033 25.0153C75.6286 25.1912 75.6713 25.527 75.7974 25.6585C76.6219 26.5328 77.4784 27.375 78.3367 28.2155C78.4433 28.3203 78.6689 28.4483 78.7578 28.4039C79.8613 27.8406 81.1051 27.4248 82.0078 26.6269C83.9482 24.9104 85.718 22.9984 87.5358 21.1451C87.7171 20.9603 87.845 20.6245 87.8379 20.3633C87.7668 18.2256 85.7607 16.2372 83.3938 16.1377ZM53.1061 55.5091C55.6791 55.5091 57.7492 53.423 57.7545 50.8216C57.7598 48.3801 55.6382 46.2549 53.1843 46.2407C50.597 46.2264 48.4896 48.3054 48.4861 50.8767C48.4807 53.4337 50.5508 55.5091 53.1061 55.5091Z" fill="black"/>
<path d="M46.4604 68.4183C46.4639 69.4472 45.6217 69.9501 44.9144 69.5414C44.6959 69.4152 44.5093 69.2268 44.3281 69.0474C41.2007 65.9253 38.0768 62.8015 34.953 59.6759C34.802 59.5248 34.6456 59.3738 34.523 59.1996C34.1907 58.7305 34.2351 58.153 34.642 57.8048C35.0703 57.4387 35.5358 57.4263 35.996 57.7515C36.1346 57.8492 36.2573 57.9736 36.3781 58.0944C39.5499 61.2627 42.7235 64.4291 45.8829 67.6098C46.1565 67.8835 46.3395 68.2442 46.4604 68.4183Z" fill="black"/>
</svg>
