<svg width="120" height="100" viewBox="0 0 120 100" fill="none" xmlns="http://www.w3.org/2000/svg">
<rect width="120" height="100" fill="white"/>
<path d="M29.4891 70.3336C29.4891 68.5945 29.4891 66.9273 29.4891 65.2582C29.4891 63.6572 29.6311 63.4919 31.2477 63.272C30.4599 61.7644 30.4599 60.249 31.2497 58.7374C30.7536 58.681 30.3159 58.6693 29.8977 58.574C28.4562 58.2472 27.4173 57.115 27.1917 55.6735C26.9796 54.3156 27.6527 52.8683 28.9347 52.1874C29.4133 51.9326 29.5066 51.6447 29.4989 51.172C29.4736 49.8627 29.4852 48.5516 29.4794 47.2404C29.4794 47.1976 29.4502 47.1529 29.4055 47.0264C28.8122 47.0264 28.1896 47.0284 27.5671 47.0264C26.3727 47.0225 25.9758 46.6412 26.0011 45.4662C26.1062 40.7877 27.6021 36.5682 30.312 32.7845C34.2319 27.3122 39.5369 23.653 45.8281 21.4898C57.2162 17.5719 68.3553 18.21 79.0566 23.8865C83.9978 26.5069 87.9916 30.2108 90.7423 35.1462C92.534 38.3599 93.4931 41.809 93.567 45.4954C93.5903 46.6257 93.1818 47.0206 92.0438 47.0264C91.4174 47.0303 90.791 47.0264 90.079 47.0264C90.079 48.6002 90.0712 50.1195 90.0926 51.6408C90.0945 51.7789 90.2735 51.9579 90.4136 52.0415C92.0263 53.0025 92.7033 54.444 92.2811 56.0548C91.857 57.6733 90.5517 58.6304 88.7075 58.681C88.6122 58.6829 88.5149 58.6927 88.3107 58.7043C89.0771 60.2276 89.1219 61.7371 88.3009 63.2876C88.4877 63.309 88.6161 63.3323 88.7464 63.3401C89.6646 63.3946 90.0673 63.7914 90.0712 64.7077C90.0809 66.5499 90.0751 68.3922 90.0751 70.3336C90.7832 70.3336 91.4524 70.3298 92.1216 70.3356C93.1585 70.3453 93.5767 70.7713 93.565 71.8004C93.5086 77.2202 88.8651 81.8871 83.3909 81.9766C80.6012 82.0213 77.8097 81.9882 75.0181 81.9882C62.2527 81.9882 49.4854 81.9921 36.72 81.9863C31.5084 81.9843 27.3162 78.6539 26.2268 73.6407C26.0828 72.9813 26.0245 72.2965 26.005 71.6215C25.9817 70.8083 26.4427 70.3609 27.2539 70.3395C27.9757 70.3181 28.6993 70.3336 29.4891 70.3336ZM28.3589 44.6609C49.3298 44.6609 70.2364 44.6609 91.1411 44.6609C91.1781 42.3731 90.221 39.0019 88.7853 36.4048C85.7097 30.8469 81.0136 27.1041 75.2924 24.5965C67.4876 21.1747 59.3814 20.5424 51.0883 22.3594C45.1259 23.6667 39.7781 26.2404 35.333 30.4968C31.3236 34.3388 28.8141 38.9474 28.3589 44.6609ZM91.1353 72.6972C70.2131 72.6972 49.3492 72.6972 28.4309 72.6972C28.4834 72.9754 28.5145 73.2128 28.5729 73.4443C29.4814 77.0743 32.6542 79.6382 36.4146 79.6441C51.9949 79.6655 67.5771 79.6577 83.1574 79.648C85.1203 79.646 86.8692 78.9788 88.3612 77.7007C89.8883 76.3915 90.8221 74.7418 91.1353 72.6972ZM87.7115 47.0653C69.0789 47.0653 50.4833 47.0653 31.8683 47.0653C31.8683 48.6158 31.8683 50.1292 31.8683 51.6369C50.5125 51.6369 69.1101 51.6369 87.7115 51.6369C87.7115 50.0903 87.7115 48.5944 87.7115 47.0653ZM31.8547 70.2831C50.5086 70.2831 69.1062 70.2831 87.6881 70.2831C87.6881 68.7209 87.6881 67.2075 87.6881 65.7076C69.0498 65.7076 50.4697 65.7076 31.8547 65.7076C31.8547 67.2405 31.8547 68.7346 31.8547 70.2831ZM59.8619 54.018C50.3511 54.018 40.8422 54.018 31.3314 54.018C31.1135 54.018 30.8937 54.0083 30.6758 54.0219C29.9794 54.0686 29.5066 54.5277 29.493 55.1599C29.4794 55.8097 29.9794 56.3038 30.705 56.3427C30.9948 56.3583 31.2866 56.3563 31.5784 56.3446C33.3098 56.2766 34.8272 56.8446 36.1403 57.9398C36.827 58.5137 37.4398 59.1771 38.1051 59.7782C39.9454 61.4453 42.3849 61.4356 44.2115 59.7607C44.55 59.4494 44.8749 59.1207 45.1842 58.7783C48.1178 55.5256 52.81 55.5276 55.7533 58.7802C56.1599 59.2276 56.5917 59.6615 57.0606 60.0408C58.6772 61.3461 60.8754 61.3539 62.49 60.0486C63.0347 59.6089 63.5152 59.0876 63.9977 58.576C66.8029 55.5976 71.4386 55.6015 74.2322 58.5915C74.629 59.0156 75.0239 59.4475 75.4577 59.8326C77.2377 61.4162 79.611 61.4181 81.3969 59.8404C81.8326 59.4553 82.2256 59.0234 82.6439 58.6168C83.8363 57.4593 85.1903 56.5898 86.8789 56.3972C87.55 56.3213 88.2367 56.3738 88.9137 56.3349C89.6024 56.296 90.0712 55.8058 90.0712 55.1735C90.0692 54.551 89.5868 54.0666 88.904 54.018C88.6861 54.0024 88.4682 54.0122 88.2484 54.0122C78.7862 54.018 69.3241 54.018 59.8619 54.018ZM42.2798 63.2973C47.6859 63.2973 53.094 63.2973 58.5001 63.2973C56.8077 62.883 55.4245 62.0212 54.3001 60.7003C53.911 60.2431 53.4461 59.8326 52.9578 59.4786C51.6778 58.5526 50.2285 58.3756 48.8259 59.0234C47.9952 59.4066 47.2463 60.0661 46.6082 60.7411C45.404 62.0173 44.0151 62.8985 42.2798 63.2973ZM77.158 63.309C75.2632 62.8927 73.9131 61.7099 72.6039 60.3676C70.3434 58.0488 67.8806 58.041 65.6376 60.3443C64.3187 61.6982 62.9589 62.8985 61.0563 63.309C66.4216 63.309 71.7888 63.309 77.158 63.309ZM40.0251 63.3304C38.0915 62.9102 36.6091 61.8111 35.3369 60.3579C35.0528 60.035 34.6677 59.8015 34.3486 59.5058C33.9557 59.1421 33.6775 59.2666 33.4149 59.6653C32.9402 60.389 32.8312 61.1516 33.1892 61.9414C33.5569 62.7526 34.2086 63.2818 35.0956 63.3129C36.7356 63.3712 38.3813 63.3304 40.0251 63.3304ZM79.6986 63.3226C81.3093 63.3226 82.922 63.3693 84.5308 63.3051C85.5074 63.2662 86.2603 62.5075 86.5034 61.5368C86.7232 60.6555 86.4042 59.8015 85.5794 59.2101C85.1047 59.6167 84.5483 59.9844 84.132 60.4707C82.9318 61.8655 81.5233 62.8907 79.6986 63.3226Z" fill="black"/>
<path d="M48.075 31.872C47.4447 31.8409 46.9408 31.2845 46.9719 30.6561C47.0031 30.0239 47.5556 29.522 48.1858 29.5531C48.8161 29.5843 49.3219 30.1406 49.2889 30.767C49.2577 31.3973 48.6994 31.9031 48.075 31.872Z" fill="black"/>
<path d="M60.9416 30.7049C60.9454 31.3352 60.4183 31.8682 59.788 31.8721C59.1577 31.876 58.6266 31.3507 58.6227 30.7185C58.6188 30.0843 59.1402 29.5571 59.7743 29.5532C60.4066 29.5494 60.9377 30.0727 60.9416 30.7049Z" fill="black"/>
<path d="M71.4445 31.8722C70.8142 31.8799 70.2811 31.3566 70.2734 30.7244C70.2675 30.0902 70.785 29.5611 71.4192 29.5533C72.0514 29.5455 72.5825 30.0688 72.5903 30.7011C72.6 31.3294 72.0748 31.8644 71.4445 31.8722Z" fill="black"/>
<path d="M42.2973 38.8638C41.6651 38.8599 41.1418 38.3288 41.1457 37.6966C41.1495 37.0624 41.6787 36.5411 42.3109 36.5449C42.9432 36.5488 43.4665 37.0799 43.4626 37.7122C43.4606 38.3424 42.9276 38.8677 42.2973 38.8638Z" fill="black"/>
<path d="M53.9481 38.8638C53.3158 38.8599 52.7925 38.3288 52.7964 37.6966C52.8003 37.0624 53.3294 36.5411 53.9617 36.5449C54.5939 36.5488 55.1172 37.0799 55.1133 37.7122C55.1114 38.3424 54.5783 38.8677 53.9481 38.8638Z" fill="black"/>
<path d="M65.6006 38.8638C64.9684 38.8599 64.4451 38.3288 64.449 37.6966C64.4529 37.0624 64.982 36.5411 65.6143 36.5449C66.2465 36.5488 66.7698 37.0799 66.7659 37.7122C66.762 38.3424 66.229 38.8677 65.6006 38.8638Z" fill="black"/>
<path d="M77.2786 38.8637C76.6483 38.8754 76.1114 38.356 76.0997 37.7238C76.088 37.0915 76.6035 36.5565 77.2377 36.5449C77.868 36.5332 78.4049 37.0507 78.4166 37.6829C78.4302 38.3132 77.9089 38.8521 77.2786 38.8637Z" fill="black"/>
</svg>
