<svg width="120" height="100" viewBox="0 0 120 100" fill="none" xmlns="http://www.w3.org/2000/svg">
<rect width="120" height="100" fill="white"/>
<path d="M47.2934 48.0563C44.7691 50.5884 42.3929 52.9725 40.0088 55.3643C38.2636 57.1173 38.2636 57.1017 36.1367 55.8863C30.1532 52.4505 25.5409 47.6901 22.3232 41.5898C21.8324 40.6549 21.8791 40.3276 22.6115 39.5953C25.0657 37.1411 27.5198 34.6791 29.9818 32.225C30.1766 32.0302 30.4025 31.8744 30.7219 31.6095C29.8883 30.7992 29.1481 30.098 28.4236 29.3735C27.6679 28.6255 27.6133 28.2983 28.1119 27.379C30.0519 23.7795 32.8255 21.0137 36.4405 19.0893C37.2976 18.6296 37.6248 18.6842 38.3104 19.3698C39.0427 20.1021 39.7517 20.8423 40.523 21.637C40.7646 21.411 40.9671 21.2318 41.1541 21.0448C43.6161 18.5907 46.0703 16.1365 48.5244 13.6745C49.3347 12.8643 49.6307 12.8175 50.6436 13.3551C57.1257 16.7987 62.0652 21.7694 65.4777 28.2593C65.9218 29.1086 65.8595 29.4825 65.1505 30.1993C62.6963 32.6613 60.2421 35.1154 57.7802 37.5618C57.5854 37.7566 57.3361 37.8968 57.1101 38.0604C57.079 38.1695 57.0478 38.2786 57.0244 38.3877C57.2815 38.5435 57.5854 38.6604 57.7957 38.8707C70.0978 51.1572 82.3764 63.4358 94.6629 75.7222C97.1482 78.2076 97.7014 81.4954 96.1432 84.3469C93.9071 88.4294 88.469 89.263 85.0643 85.9674C82.0258 83.0302 79.073 79.9995 76.0813 77.0078C66.6541 67.5962 57.2348 58.1769 47.8232 48.7575C47.6518 48.5783 47.5194 48.3602 47.2934 48.0563ZM37.7572 54.1022C46.2494 45.6177 54.656 37.2034 63.1092 28.758C60.024 23.1406 55.6298 18.7543 50.0826 15.708C41.5982 24.1924 33.1683 32.6145 24.7073 41.0834C27.7691 46.6539 32.1555 51.0247 37.7572 54.1022ZM48.9529 46.5527C49.0854 46.6929 49.249 46.8799 49.4282 47.0513C60.0473 57.6705 70.6743 68.2974 81.2935 78.9166C83.0932 80.7163 84.8618 82.5394 86.6926 84.3002C88.8352 86.357 92.1464 86.0298 93.8136 83.6535C95.1849 81.6902 94.8966 79.2672 93.0579 77.4285C80.7091 65.0797 68.3604 52.7309 56.0116 40.39C55.8558 40.2341 55.6844 40.0783 55.5597 39.9615C53.3549 42.1585 51.1656 44.34 48.9529 46.5527ZM30.5661 27.8386C31.2517 28.5554 31.8283 29.1631 32.3113 29.6851C34.4383 27.5581 36.6042 25.3922 38.8636 23.1251C38.3805 22.681 37.8585 22.1745 37.3053 21.7071C37.1807 21.6058 36.8768 21.5668 36.7444 21.6448C34.0954 23.2108 32.0075 25.3455 30.5661 27.8386Z" fill="black"/>
</svg>
