<svg width="120" height="100" viewBox="0 0 120 100" fill="none" xmlns="http://www.w3.org/2000/svg">
<rect width="120" height="100" fill="white"/>
<path d="M44.69 87.1853C44.12 87.0653 43.54 86.9653 42.98 86.8253C37.4 85.4653 33.03 80.6053 32.22 74.8253C32.08 73.8553 32.02 72.8753 32.02 71.9053C32.01 59.3353 32.02 46.7553 32 34.1853C32 32.3753 32.42 30.7553 33.66 29.3953C35.51 27.3853 38.52 26.8953 40.91 28.2253C41.05 28.3053 41.19 28.3853 41.42 28.5253C41.43 28.2353 41.45 28.0253 41.45 27.8153C41.45 26.0753 41.49 24.3353 41.44 22.6053C41.3 17.6853 46.34 14.2453 50.81 17.2553C51.24 15.2453 52.24 13.6353 54.09 12.6653C55.16 12.1053 56.33 11.8453 57.5 12.0953C61.99 13.0353 62.86 16.3153 62.6 20.2853C63.42 19.9653 64.14 19.5753 64.91 19.4053C68.35 18.6453 71.74 21.3053 71.98 24.8753C72.01 25.2853 72.01 25.7053 72.01 26.1253C72.02 34.9553 72.03 43.7853 72.03 52.6153C72.03 52.8953 72.03 53.1753 72.19 53.5153C72.64 52.9753 73.08 52.4453 73.53 51.9053C76.66 48.1453 81.46 47.7153 85.23 50.8553C85.59 51.1553 85.95 51.4453 86.3 51.7453C87.22 52.5053 87.31 52.9053 86.76 53.9453C84.58 58.1253 82.4 62.3053 80.22 66.4953C78.01 70.7453 75.8 74.9953 73.59 79.2353C71.43 83.3853 68.14 86.0653 63.5 86.9853C63.14 87.0553 62.79 87.1253 62.43 87.1953C56.54 87.1853 50.61 87.1853 44.69 87.1853ZM84.3 53.3453C81.31 50.3853 77.85 50.5553 75.26 53.7153C74.13 55.0953 73 56.4753 71.86 57.8553C71.49 58.3053 71.03 58.5353 70.43 58.3153C69.85 58.1053 69.6 57.6653 69.6 57.0653C69.6 56.8453 69.6 56.6253 69.6 56.4053C69.59 46.3253 69.58 36.2453 69.56 26.1653C69.56 25.7453 69.56 25.3353 69.51 24.9153C69.33 23.2253 67.97 21.8453 66.38 21.7153C64.83 21.5953 63.36 22.6553 62.9 24.2953C62.76 24.8053 62.73 25.3553 62.73 25.8853C62.72 33.6853 62.72 41.4953 62.72 49.2953C62.72 50.5453 62.3 51.1653 61.45 51.1553C60.63 51.1453 60.24 50.5553 60.24 49.3353C60.24 39.1853 60.24 29.0253 60.24 18.8753C60.24 18.5853 60.25 18.2853 60.23 17.9953C60.1 16.1753 58.82 14.6953 57.22 14.5153C55.5 14.3353 53.95 15.3153 53.43 16.9953C53.27 17.5253 53.22 18.1053 53.22 18.6553C53.21 28.8853 53.21 39.1053 53.21 49.3353C53.21 50.5553 52.83 51.1453 52.01 51.1653C51.16 51.1953 50.73 50.5753 50.73 49.3253C50.73 40.5453 50.73 31.7553 50.73 22.9753C50.73 22.6053 50.74 22.2353 50.71 21.8753C50.57 20.1553 49.25 18.7353 47.68 18.5953C45.98 18.4453 44.53 19.5153 44.09 21.2853C43.97 21.7753 43.95 22.3053 43.95 22.8153C43.94 31.6453 43.94 40.4753 43.94 49.3053C43.94 49.5953 43.95 49.8953 43.89 50.1753C43.75 50.8053 43.31 51.1253 42.68 51.1453C42.08 51.1653 41.57 50.6853 41.48 50.0653C41.45 49.8253 41.46 49.5753 41.46 49.3353C41.46 44.2953 41.46 39.2553 41.46 34.2153C41.46 33.9253 41.47 33.6253 41.45 33.3353C41.32 31.5253 39.99 30.1353 38.25 29.9553C36.64 29.7953 35.1 30.8853 34.64 32.5653C34.51 33.0553 34.47 33.5753 34.47 34.0853C34.47 46.7353 34.47 59.3553 34.49 71.9853C34.49 72.9053 34.56 73.8453 34.73 74.7553C35.8 80.5853 40.7 84.8653 46.48 84.7353C51.27 84.6253 56.07 84.7153 60.86 84.7053C61.42 84.7053 61.99 84.7053 62.54 84.6253C66.54 84.0353 69.41 81.8453 71.29 78.3253C72.96 75.1953 74.57 72.0453 76.21 68.9053C78.9 63.7253 81.6 58.5453 84.3 53.3453Z" fill="black"/>
</svg>
