<svg width="120" height="100" viewBox="0 0 120 100" fill="none" xmlns="http://www.w3.org/2000/svg">
<rect width="120" height="100" fill="white"/>
<path d="M58.6571 77.4691C58.7847 77.5046 58.8098 77.5172 58.8349 77.5172C61.284 77.4314 61.1313 78.0003 61.1167 79.8847C61.1021 81.8675 61.1188 83.8523 61.1104 85.835C61.1063 86.864 60.7277 87.2405 59.6861 87.2405C51.5983 87.2426 43.5126 87.2426 35.4248 87.2405C34.3707 87.2405 34.0068 86.8829 34.0047 85.8434C33.9984 83.5469 33.9984 81.2505 34.0047 78.954C34.0068 77.8957 34.3624 77.5423 35.3997 77.5318C36.1297 77.5234 36.8596 77.5234 37.5895 77.5151C37.6355 77.5151 37.6795 77.4753 37.8029 77.4189C37.8029 75.7645 37.8029 74.0767 37.8029 72.3867C37.8029 71.7614 37.8008 71.1339 37.8029 70.5086C37.807 69.3834 37.9764 69.1428 39.0243 68.8082C39.0243 53.8666 39.0243 38.9166 39.0243 23.8997C37.9367 23.7617 37.7757 23.0066 37.7903 22.0466C37.828 19.541 37.8008 17.0354 37.8049 14.5298C37.807 13.346 38.1563 13.003 39.3506 13.0009C40.9945 12.9988 42.6384 13.0009 44.2802 13.0009C46.012 13.0009 46.081 13.0574 46.3508 14.7954C47.4195 14.7954 48.5092 14.7285 49.5905 14.808C54.1918 15.1426 57.7745 17.4035 60.6545 20.867C62.1708 22.6908 63.5512 24.6275 65.0383 26.4764C65.6887 27.2858 66.404 28.0576 67.1758 28.754C69.0142 30.4147 71.1998 30.9836 73.5715 30.2934C76.3156 29.4944 79.022 28.5595 81.7221 27.6184C83.2656 27.0809 84.7757 27.4636 85.5683 28.7666C86.0912 29.6262 86.1749 30.4628 85.6206 31.404C78.2377 43.9676 70.8777 56.5437 63.5136 69.1177C62.0244 71.6589 60.5374 74.2021 59.0503 76.7454C58.9269 76.9608 58.8098 77.1867 58.6571 77.4691ZM46.288 20.0534C46.6812 20.0953 46.9908 20.1392 47.3003 20.1622C51.6506 20.4655 55.1497 22.2286 57.8226 25.7925C59.1863 27.61 60.8804 29.2246 62.6205 30.7012C65.1073 32.8136 68.0375 34.0121 71.3671 33.987C74.0191 33.966 76.4996 33.1755 78.9258 32.1862C79.5009 31.9519 80.051 31.8369 80.4923 32.3744C80.9608 32.9391 80.7558 33.4934 80.3563 34.01C80.2769 34.1124 80.2037 34.2212 80.1284 34.3279C70.1457 48.4831 60.163 62.6383 50.1824 76.7956C50.0381 77.0006 49.9147 77.216 49.716 77.5297C51.6506 77.5297 53.4681 77.5046 55.2856 77.5444C55.8566 77.5569 56.1536 77.3708 56.4422 76.8772C61.4325 68.3167 66.4479 59.7709 71.455 51.2208C75.4748 44.3587 79.4946 37.4965 83.4999 30.6259C83.6295 30.4021 83.7111 29.9169 83.6044 29.8374C83.3723 29.6638 83.0042 29.6387 82.6884 29.6199C82.5252 29.6095 82.3558 29.7538 82.1822 29.8123C80.0426 30.5548 77.9198 31.3454 75.7592 32.0168C74.0651 32.5438 72.3292 32.9203 70.5221 32.6651C67.9182 32.297 65.9104 30.8874 64.2811 28.9465C62.5222 26.8508 60.9201 24.6213 59.1884 22.5005C57.1492 20.0053 54.7188 18.0456 51.4875 17.301C49.7766 16.9057 48.0491 16.7803 46.2859 17.0375C46.288 18.0623 46.288 19.0223 46.288 20.0534ZM45.031 23.8662C45.031 38.8769 45.031 53.8478 45.031 68.8103C46.0977 69.1261 46.2546 69.3311 46.2567 70.4103C46.2588 72.2633 46.2567 74.1164 46.2567 75.9674C46.2567 76.4756 46.2567 76.9859 46.2567 77.5736C46.5997 77.5088 46.9385 77.5423 47.018 77.4126C47.5827 76.5153 48.4778 75.844 48.4736 74.5807C48.4444 57.5685 48.4548 40.5542 48.4548 23.54C48.4548 23.3308 48.5029 23.1049 48.4381 22.9188C48.3753 22.7389 48.2122 22.49 48.0595 22.4628C47.4844 22.3583 46.8967 22.3332 46.2692 22.2725C46.3173 23.2576 45.9408 23.7888 45.031 23.8662ZM50.6927 72.2675C51.6485 70.9101 52.5102 69.7473 53.2987 68.5363C53.5497 68.1515 53.7337 67.6411 53.7358 67.1894C53.7609 59.2313 53.7547 51.271 53.7547 43.3129C53.7547 37.3375 53.7568 31.3621 53.7484 25.3867C53.7484 25.1169 53.7526 24.6986 53.5957 24.5983C52.6922 24.0168 51.7426 23.5107 50.6927 22.9125C50.6927 39.4562 50.6927 55.7447 50.6927 72.2675ZM36.2301 84.9901C43.8347 84.9901 51.3599 84.9901 58.8809 84.9901C58.8809 83.2186 58.8809 81.5056 58.8809 79.7676C51.316 79.7676 43.7908 79.7676 36.2301 79.7676C36.2301 81.5245 36.2301 83.2353 36.2301 84.9901ZM55.9905 27.1729C55.9905 39.7009 55.9905 52.1265 55.9905 64.7591C57.0529 63.2448 58.0108 61.8958 58.9437 60.5301C59.0482 60.3774 59.0482 60.1327 59.0482 59.9319C59.0524 50.3048 59.0545 40.6776 59.042 31.0484C59.042 30.7912 58.9353 30.4774 58.768 30.285C57.8854 29.2581 56.9693 28.2625 55.9905 27.1729ZM41.3082 23.8411C41.3082 38.9041 41.3082 53.8854 41.3082 68.8521C41.8332 68.8521 42.2912 68.8521 42.745 68.8521C42.745 53.8185 42.745 38.8371 42.745 23.8411C42.241 23.8411 41.8018 23.8411 41.3082 23.8411ZM61.2945 57.2381C62.3486 55.7385 63.2898 54.4083 64.2121 53.0655C64.3041 52.9296 64.3125 52.7163 64.3125 52.5385C64.3167 46.6698 64.3188 40.8031 64.3062 34.9344C64.3062 34.7273 64.2205 34.4283 64.072 34.3321C63.1706 33.7402 62.2398 33.1943 61.2945 32.6191C61.2945 40.7906 61.2945 48.9077 61.2945 57.2381ZM66.5546 49.5267C66.6048 49.5372 66.6529 49.5497 66.7031 49.5602C67.6024 48.2865 68.506 47.0169 69.3948 45.737C69.5057 45.578 69.5831 45.3563 69.5831 45.1639C69.5956 42.2985 69.5977 39.4332 69.581 36.5679C69.5789 36.3922 69.4157 36.0973 69.2756 36.0596C68.3826 35.8254 67.4748 35.6497 66.5567 35.451C66.5546 40.1736 66.5546 44.8502 66.5546 49.5267ZM40.0491 15.2305C40.0491 17.3847 40.0491 19.4783 40.0491 21.5593C41.4149 21.5593 42.7262 21.5593 44.025 21.5593C44.025 19.4197 44.025 17.345 44.025 15.2305C42.6949 15.2305 41.4044 15.2305 40.0491 15.2305ZM44.0376 71.1653C42.6447 71.1653 41.3375 71.1653 40.0387 71.1653C40.0387 73.307 40.0387 75.3818 40.0387 77.4795C41.3919 77.4795 42.7032 77.4795 44.0376 77.4795C44.0376 75.3525 44.0376 73.2777 44.0376 71.1653ZM71.8147 42.0413C71.8586 42.0685 71.9025 42.0978 71.9485 42.125C73.5088 39.9142 75.067 37.7035 76.667 35.4343C74.9875 35.7292 73.4168 36.0032 71.8147 36.2855C71.8147 38.2013 71.8147 40.1213 71.8147 42.0413Z" fill="black"/>
</svg>
