<svg width="120" height="100" viewBox="0 0 120 100" fill="none" xmlns="http://www.w3.org/2000/svg">
<rect width="120" height="100" fill="white"/>
<path d="M42.647 74.9978C33.6402 75.089 26.1165 72.3747 19.8791 66.3821C15.9889 62.6431 14.9161 56.5905 17.1552 51.5459C19.1448 47.0605 23.5318 44.6582 29.1763 45.0422C30.7147 45.1478 32.3082 45.2414 33.7554 45.7166C37.5208 46.9501 39.6687 45.1982 40.7943 41.9367C41.8286 38.9393 42.8366 35.8506 43.2038 32.7235C43.8949 26.839 48.33 23.3855 53.6241 25.7542C58.2536 27.8277 62.6646 27.8469 67.4476 26.9997C70.5818 26.4454 73.8433 26.4214 77.0424 26.4718C80.7814 26.5342 83.2893 28.7445 83.9829 32.4379C84.7941 36.7601 85.5236 41.104 86.066 45.467C86.3108 47.4277 87.0188 48.2245 89.0059 48.7309C93.2513 49.8156 97.4607 51.1596 101.507 52.8299C102.841 53.3819 104.531 55.3618 104.408 56.5137C104.281 57.7209 102.292 59.4632 100.907 59.6912C89.3251 61.5943 78.3623 65.2638 67.642 69.9964C59.6263 73.5362 50.989 74.753 42.647 74.9978ZM83.5677 47.9077C82.7206 42.6663 82.1374 37.4681 80.8942 32.4307C80.5702 31.1204 78.2879 29.6444 76.74 29.426C73.9657 29.0373 71.0426 29.3541 68.2251 29.7188C61.9134 30.5372 55.6305 31.5668 49.0427 32.5555C49.1147 30.9836 49.1483 30.2012 49.1843 29.4212C50.5523 29.2749 51.7378 29.1453 53.401 28.9653C49.2659 27.1269 46.3812 28.5933 46.2036 32.4475C45.9613 37.7441 44.2453 42.4047 41.2454 46.7077C40.3911 47.9341 39.8463 49.3812 39.0903 50.8644C54.3249 56.137 68.6547 52.6475 83.5677 47.9077ZM36.4648 49.05C34.0529 48.6445 31.989 48.2173 29.9059 47.9629C25.0005 47.3629 21.4247 49.1004 19.7615 52.7867C17.9208 56.8665 18.9408 61.7119 22.375 64.8294C27.6092 69.5788 33.7962 72.0459 40.8519 72.1059C51.4666 72.1971 61.4694 69.562 71.3042 65.6382C78.5399 62.7511 86.114 60.7016 93.5753 58.4049C96.1888 57.6009 98.9175 57.1785 101.596 56.5809C101.608 56.2497 101.62 55.9162 101.629 55.585C96.9568 54.0778 92.2842 52.5731 87.0476 50.8836C87.7099 55.453 85.4276 56.9121 82.1158 57.9873C72.5426 61.0951 62.7414 62.7511 52.7146 62.9407C49.0595 63.0103 45.2197 63.0463 41.7734 62.0359C36.952 60.6224 33.1026 58.3425 35.7593 51.6347C36.0137 50.9844 36.1337 50.2788 36.4648 49.05ZM84.6021 52.1099C84.2901 51.8123 83.9781 51.5171 83.6661 51.2196C83.0877 51.3036 82.4878 51.3156 81.9358 51.4859C68.1435 55.7386 54.2625 58.5321 39.8919 54.3178C39.3567 54.1618 38.1448 54.5386 38.1112 54.7858C38.0152 55.4938 38.116 56.6505 38.5768 56.9385C40.3479 58.0569 42.227 59.5616 44.1781 59.7464C57.2648 60.9776 70.0179 59.0744 82.399 54.7642C83.3301 54.4402 83.8773 53.0195 84.6021 52.1099Z" fill="black"/>
</svg>
