<svg width="120" height="100" viewBox="0 0 120 100" fill="none" xmlns="http://www.w3.org/2000/svg">
<rect width="120" height="100" fill="white"/>
<path d="M79.9669 85.4545C78.8643 85.1883 77.7634 84.9203 76.6609 84.6558C74.5329 84.1457 73.3841 82.3559 73.8573 80.2244C75.6183 72.3096 77.3845 64.3948 79.1609 56.4835C79.6222 54.4258 81.3832 53.2938 83.4666 53.6752C83.8421 53.7439 84.2159 53.8229 84.6755 53.9122C84.7252 53.2595 84.7749 52.6549 84.8178 52.052C85.0681 48.4691 85.1864 44.8844 84.1199 41.3976C81.3215 32.2393 75.2222 26.4252 66.0091 24.0772C55.1258 21.305 43.8704 26.1899 38.2547 35.8927C35.6689 40.3602 34.8167 45.209 35.1785 50.3138C35.2626 51.4921 35.3277 52.6721 35.4049 53.8967C35.8061 53.816 36.1371 53.7473 36.4714 53.6855C38.6337 53.2767 40.3776 54.412 40.8594 56.5504C41.4064 58.9723 41.9465 61.3958 42.4866 63.8194C43.6955 69.2436 44.901 74.6696 46.1133 80.0938C46.6208 82.3697 45.5371 84.1268 43.2788 84.6713C42.1986 84.9323 41.12 85.1951 40.0398 85.4562C39.311 85.4562 38.5805 85.4562 37.8518 85.4562C37.3665 85.1316 36.6909 84.9169 36.432 84.4617C35.8473 83.4294 35.0877 83.5651 34.2166 83.8365C34.0863 83.8777 33.9525 83.9086 33.8205 83.9361C31.4336 84.4291 29.6726 83.3161 29.1393 80.9475C28.1156 76.3941 27.1142 71.8355 26.0906 67.2821C25.7476 65.7569 25.3635 64.2419 25 62.7236C25 62.2667 25 61.8098 25 61.3546C25.379 60.0424 26.118 59.0324 27.3594 58.5961C27.1897 55.6968 27.0216 52.8971 26.8622 50.0991C26.593 45.3636 27.1623 40.7295 29.033 36.3667C34.4824 23.6701 44.2237 16.676 57.8916 15.5698C67.6912 14.7763 76.3077 18.0449 83.4066 24.9034C89.6464 30.9305 93.0278 38.3557 93.2182 47.0709C93.2953 50.6178 92.9249 54.1767 92.7192 57.727C92.6849 58.3076 92.7483 58.6442 93.3176 58.9603C94.6071 59.6782 95.2244 61.2035 94.9346 62.6583C94.7923 63.3728 94.6242 64.0839 94.4648 64.795C93.2422 70.2639 92.0333 75.7362 90.7884 81.2017C90.3186 83.2628 88.5164 84.3861 86.4605 83.9808C85.8809 83.8657 85.3065 83.7163 84.7235 83.6184C84.5571 83.5909 84.2674 83.6252 84.2056 83.73C83.7255 84.5596 82.9727 85.0406 82.1548 85.4545C81.4244 85.4545 80.6956 85.4545 79.9669 85.4545ZM90.929 58.0843C90.965 57.8026 91.013 57.557 91.0268 57.3079C91.1931 54.4618 91.4091 51.6175 91.5069 48.7679C91.6612 44.23 90.8004 39.8655 88.9159 35.7364C82.9985 22.7581 69.3253 15.3551 55.2081 17.5743C46.3705 18.9638 39.2733 23.3369 34.0674 30.6454C30.8798 35.1197 28.9764 40.1352 28.7158 45.6401C28.5632 48.8641 28.8152 52.1087 28.9147 55.343C28.9421 56.2481 29.0673 57.1482 29.1479 58.0516C29.2079 58.0997 29.2679 58.1495 29.3279 58.1976C29.5646 58.0035 29.9727 57.8369 30.0087 57.6119C30.3036 55.7998 31.3719 54.7761 33.1209 54.4361C33.6027 54.3433 33.6747 54.1286 33.6422 53.6958C33.541 52.3303 33.4741 50.963 33.4021 49.5958C33.0283 42.4591 35.0671 36.1091 39.8031 30.7398C47.4902 22.0246 59.6029 19.1545 70.3302 23.6323C78.5162 27.0487 83.7958 33.1445 86.0318 41.7996C86.86 45.0046 86.7914 48.2612 86.6028 51.5264C86.5496 52.4522 86.4862 53.378 86.4262 54.3107C86.7777 54.3931 87.0675 54.4481 87.3487 54.5322C88.7342 54.9462 89.6601 55.8462 89.907 57.2718C90.0202 57.9177 90.25 58.1478 90.929 58.0843ZM80.7951 83.8056C82.0399 83.7884 82.6967 83.1684 82.9505 82.033C83.4872 79.6335 84.017 77.2323 84.552 74.831C85.7489 69.4755 86.9492 64.1217 88.1426 58.7645C88.477 57.2667 87.9591 56.4697 86.4656 56.1348C85.4899 55.9166 84.5143 55.6882 83.5369 55.4752C81.9062 55.1214 81.1432 55.6212 80.7848 57.2358C79.9017 61.2155 79.0083 65.1918 78.1218 69.1698C77.2645 73.0138 76.4054 76.8578 75.5618 80.707C75.3611 81.6208 75.7075 82.4985 76.5151 82.7441C78.0121 83.1975 79.5536 83.505 80.7951 83.8056ZM37.3442 55.3395C37.2756 55.3395 37.2053 55.3275 37.1402 55.3412C36.0067 55.5869 34.8733 55.8273 33.7416 56.0867C31.9617 56.4938 31.5228 57.2066 31.9172 58.9637C32.7642 62.7407 33.601 66.5195 34.4429 70.2982C35.3191 74.2316 36.1919 78.1666 37.0767 82.0983C37.3837 83.4621 38.2187 83.9825 39.5871 83.6939C40.5662 83.4861 41.5436 83.2731 42.5175 83.0481C44.2991 82.6359 44.7364 81.9282 44.342 80.1711C43.1811 74.9942 42.0271 69.8156 40.8714 64.6387C40.3072 62.1052 39.7517 59.57 39.1824 57.0365C38.9372 55.9424 38.2787 55.3481 37.3442 55.3395ZM89.7201 59.6988C88.0672 67.1086 86.4296 74.4497 84.7869 81.8183C85.4694 81.9729 86.0421 82.1051 86.6182 82.2305C87.9471 82.5208 88.8319 81.9591 89.1371 80.6177C89.571 78.7077 89.9928 76.796 90.4215 74.8843C91.3405 70.774 92.2648 66.6638 93.1787 62.5501C93.4479 61.3357 92.8735 60.4202 91.6766 60.13C91.0559 59.9805 90.4335 59.8551 89.7201 59.6988ZM30.2882 59.7023C29.6263 59.8483 29.0279 59.9754 28.4329 60.1145C27.1022 60.4254 26.5604 61.3031 26.8622 62.6549C27.3372 64.7881 27.8104 66.9231 28.2871 69.0564C29.1496 72.9228 30.0121 76.7908 30.8815 80.6572C31.1421 81.8183 31.936 82.4401 33.0283 82.2924C33.7416 82.1962 34.4429 81.9986 35.2266 81.8286C33.5736 74.424 31.9343 67.0794 30.2882 59.7023Z" fill="black"/>
</svg>
