<svg width="120" height="100" viewBox="0 0 120 100" fill="none" xmlns="http://www.w3.org/2000/svg">
<rect width="120" height="100" fill="white"/>
<g clip-path="url(#clip0_11_114)">
<path d="M97.8798 86.2061C98.4357 88.2392 97.0985 88 95.7912 88C71.2993 87.985 46.8074 87.985 22.3155 87.985C22.2404 87.9252 22.1052 87.8804 22.0751 87.8056C21.5192 85.4736 24.1186 80.5854 26.3124 80.2116C28.0253 79.9276 28.6864 79.1802 28.6714 77.4909C28.6414 70.2856 28.6414 63.0802 28.6714 55.8749C28.6714 54.7537 28.5212 54.0212 27.1538 53.8867C25.8466 53.7671 24.8098 52.8851 23.8031 52.0779C22.4958 51.0165 22.0601 49.7459 22.9015 48.1613C25.3207 43.6318 27.8149 39.1322 30.4144 34.7073C30.9703 33.7655 31.7367 32.7341 33.0138 33.3918C34.4413 34.1093 34.0206 35.38 33.5097 36.5012C32.0372 39.7451 30.0688 42.7199 28.431 45.8741C27.9802 46.7262 27.274 47.4736 27.259 49.1479C31.8118 41.0606 36.1392 33.5114 39.9858 25.6782C38.6785 27.2927 37.9573 29.2659 36.62 30.8505C35.9589 31.6278 35.2076 32.3902 34.0957 31.7175C33.0439 31.0747 33.0739 30.0134 33.5698 29.1015C35.2677 25.9921 36.6951 22.7034 38.934 19.9079C39.8355 18.7868 41.1277 18.2486 42.4349 17.7702C46.8074 16.1558 51.1649 14.5562 55.5073 12.882C58.4974 11.7309 61.4124 11.6861 64.4476 12.882C68.8802 14.616 73.2827 16.3949 77.7754 17.9347C79.9992 18.6971 81.4868 20.0574 82.5686 22.0606C86.9711 30.2376 91.6441 38.2502 96.0617 46.4123C98.1352 50.2541 97.3238 52.6908 93.1166 53.797C91.4788 54.2305 91.4788 54.8135 91.4939 56.0543C91.554 62.9606 91.554 69.867 91.4939 76.7734C91.4788 78.642 91.7042 80.092 94.0182 80.3013C95.2202 80.406 95.9415 81.3178 96.1068 82.4988C96.3021 83.9488 97.0684 85.07 97.8798 86.2061ZM35.1325 52.5861C43.3515 52.5861 51.5706 52.5861 59.7746 52.5861C68.0838 52.5861 76.4081 52.5861 84.7173 52.5861C88.3835 52.5861 89.3752 51.1959 88.2032 47.6381C88.0229 47.085 87.6473 46.6066 87.3618 46.0834C84.1162 40.2384 80.8256 34.4083 77.6251 28.5334C76.8438 27.0834 75.8822 26.0818 74.2894 25.454C70.0822 23.7797 65.9502 21.9111 61.773 20.1471C61.0818 19.8481 60.3907 19.2203 59.5793 19.5641C54.3053 21.8064 49.0613 24.0637 43.8173 26.3509C43.5619 26.4555 43.3365 26.7097 43.2013 26.9488C39.3697 33.8253 35.3729 40.6121 31.7968 47.6231C30.0838 50.9866 31.4061 52.5861 35.1325 52.5861ZM90.9229 83.1566C70.2175 83.1117 49.5121 83.1267 28.8066 83.1566C27.9051 83.1566 26.4626 82.4988 26.5077 84.4571C26.5528 86.4005 27.9953 85.668 28.8667 85.6829C39.1744 85.7278 49.467 85.7128 59.7746 85.7128C70.1724 85.7128 80.5852 85.7278 90.983 85.6829C91.8845 85.6829 93.312 86.3407 93.2669 84.3824C93.2368 82.439 91.8094 83.1566 90.9229 83.1566ZM45.3199 23.2266C49.482 21.4327 53.6892 19.7136 57.8363 17.83C59.3088 17.1573 60.5259 17.1274 62.0134 17.8001C66.3258 19.7584 70.7734 21.4477 75.0558 23.4508C77.0241 24.3627 77.1594 23.0322 77.7003 21.8363C77.9106 20.6703 76.7687 20.76 76.1677 20.5358C71.2843 18.6522 66.3559 16.8883 61.4875 14.9898C60.3756 14.5562 59.4741 14.5861 58.3922 15.0047C53.6141 16.8584 48.7758 18.5924 43.9976 20.476C43.2614 20.76 41.6386 20.461 42.4199 22.4193C43.1412 24.3178 44.1028 23.7498 45.3199 23.2266ZM86.4452 54.8135C78.6469 54.7986 70.8486 54.7986 63.0502 54.8285C62.1938 54.8285 61.0217 54.3501 60.9767 56.0543C60.9316 57.8033 62.0285 57.594 63.1253 57.594C66.8818 57.594 70.6232 57.594 74.3796 57.594C78.4215 57.594 82.4784 57.5791 86.5204 57.609C87.5722 57.609 88.4286 57.6538 88.4286 56.129C88.4286 54.4846 87.3618 54.8285 86.4452 54.8135ZM63.0051 80.8694C66.8517 80.8993 70.6983 80.8843 74.5599 80.8843C78.5117 80.8843 82.4634 80.8993 86.4002 80.8694C87.2566 80.8544 88.4286 81.3627 88.4136 79.6286C88.4136 78.1636 87.6623 78.1038 86.5504 78.1038C78.6469 78.1337 70.7584 78.1188 62.8549 78.1038C61.773 78.1038 60.9616 78.1188 60.9616 79.6137C60.9767 81.3477 62.1487 80.8544 63.0051 80.8694ZM56.484 54.8434C52.7276 54.7687 48.9711 54.8135 45.2147 54.8135C41.4583 54.8135 37.7019 54.7687 33.9454 54.8434C32.9537 54.8584 31.361 54.1259 31.4512 56.2486C31.5413 58.2667 33.089 57.5791 34.0957 57.5791C41.5184 57.6239 48.9261 57.6239 56.3488 57.594C57.4156 57.594 58.858 58.1172 58.828 56.0842C58.7829 54.1408 57.3705 54.8584 56.484 54.8434ZM33.2542 80.8694C37.206 80.8843 41.1578 80.8843 45.1245 80.8843C49.0913 80.8843 53.0281 80.8993 56.9949 80.8694C57.8062 80.8694 58.813 81.2132 58.828 79.7183C58.843 78.343 58.1969 78.0889 57.0099 78.1038C49.1064 78.1337 41.1878 78.1337 33.2843 78.1038C32.1273 78.1038 31.4211 78.2982 31.4211 79.7034C31.4361 81.1684 32.4278 80.8694 33.2542 80.8694ZM82.9893 59.8064C81.9976 59.5971 81.066 59.627 80.2546 60.4343C75.807 64.889 71.3144 69.3289 66.8667 73.7836C66.3408 74.3068 65.4844 74.9347 66.3108 75.727C66.9118 76.31 67.8284 76.1455 68.5346 75.7868C69.0455 75.5326 69.4512 75.0543 69.8719 74.6357C73.9889 70.5397 78.106 66.4288 82.208 62.3178C82.6888 61.8395 83.1095 61.3013 83.4401 60.9276C83.5453 60.2997 83.41 59.8961 82.9893 59.8064ZM93.3871 47.8324C88.9245 39.7301 84.4017 31.6577 79.7888 23.391C78.3163 24.6617 78.5718 25.7828 79.3381 27.1581C83.41 34.3485 87.3768 41.6137 91.4638 48.8041C91.8545 49.4917 91.8845 51.3005 93.5824 50.2691C95.085 49.3721 93.7778 48.535 93.3871 47.8324ZM38.1977 76.0409C38.9189 76.2053 39.4749 75.413 40.0909 74.8001C44.2981 70.6294 48.4903 66.4437 52.6825 62.258C53.2835 61.6601 54.4104 61.0173 53.6892 60.1054C53.0281 59.2683 51.7659 59.4925 51.0297 60.1951C46.2966 64.8143 41.6386 69.5082 36.9506 74.1723C36.5599 74.561 36.4247 74.9945 36.605 75.5027C36.8153 76.1156 37.3713 75.9512 38.1977 76.0409ZM31.4361 74.7104C31.4361 75.7569 31.9771 76.011 32.9237 76.0409C34.0356 76.0857 34.2459 75.5476 34.2309 74.6208C34.2009 72.4532 34.2159 70.2856 34.2159 68.118C34.2159 65.8458 34.2309 63.5885 34.2159 61.3163C34.2159 60.5688 34.4112 59.6868 33.134 59.6868C32.0973 59.6868 31.4211 59.8662 31.4211 61.107C31.4512 65.6365 31.4512 70.1809 31.4361 74.7104ZM62.4041 76.0409C63.3808 75.996 63.8466 75.6672 63.8466 74.6507C63.8316 70.1212 63.8316 65.5767 63.8466 61.0472C63.8466 60.0307 63.3658 59.6868 62.3891 59.6719C61.3673 59.6569 60.9917 60.0755 61.0067 61.0771C61.0368 63.2447 61.0217 65.4123 61.0217 67.5798C61.0217 69.8521 61.0368 72.1093 61.0067 74.3816C60.9767 75.3831 61.0969 76.1007 62.4041 76.0409ZM57.5057 59.6868C56.1234 59.627 56.1534 60.4642 56.1534 61.391C56.1684 63.454 56.1534 65.5169 56.1534 67.5798C56.1534 69.8371 56.1684 72.0944 56.1534 74.3517C56.1384 75.3383 56.2135 76.0708 57.5508 76.011C58.7078 75.9662 58.7829 75.2935 58.7829 74.4563C58.7829 70.0315 58.7829 65.6215 58.7829 61.1967C58.7829 60.3446 58.6327 59.7317 57.5057 59.6868ZM86.9862 59.7018C85.8743 59.7616 85.709 60.3745 85.709 61.2415C85.709 65.6664 85.709 70.0913 85.709 74.5161C85.709 75.3981 85.9043 75.9811 87.0162 76.0259C88.3836 76.0857 88.3835 75.2935 88.3835 74.3367C88.3685 72.1691 88.3835 70.0165 88.3835 67.8489C88.3835 65.6813 88.3685 63.5287 88.3986 61.3611C88.3986 60.3745 88.3234 59.627 86.9862 59.7018ZM80.8857 75.727C81.5769 76.2352 82.9593 76.6538 83.4852 75.144C83.6505 74.6805 78.9023 69.7624 78.0609 69.6727C77.8055 69.8969 77.3847 70.2856 76.964 70.6444C76.5132 71.033 76.4531 71.4665 76.8739 71.8851C78.1661 73.2006 79.3982 74.6357 80.8857 75.727ZM67.2424 59.6868C67.032 59.7616 66.446 59.7765 66.1605 60.0755C65.6497 60.6137 66.1004 61.1817 66.5061 61.5854C67.7983 62.9158 69.1206 64.2164 70.4429 65.5169C70.8786 65.9355 71.3444 66.354 71.8853 65.6664C72.2309 65.2329 72.892 65.0086 72.862 64.321C72.8169 63.4839 68.4444 59.7167 67.2424 59.6868ZM51.9162 75.9213C52.5322 76.1754 53.7944 76.5043 54.5156 74.3218C52.6224 72.7671 50.8043 71.0928 48.7608 69.7624C48.325 69.4783 46.567 70.6145 47.2432 71.5712C48.4603 73.3053 49.8727 75.0543 51.9162 75.9213ZM37.6418 59.7018C36.2594 59.7915 36.1242 60.5688 36.8754 61.406C38.1677 62.871 39.6101 64.2014 40.9775 65.5767C41.3531 65.9504 41.7287 66.2195 42.1945 65.7112C42.5702 65.3076 42.9608 64.904 43.2313 64.605C43.2463 63.4091 38.7086 59.642 37.6418 59.7018ZM53.7944 70.8835C53.7944 68.8505 53.7944 66.8473 53.7944 64.4107C49.5722 68.2376 49.5722 68.2376 53.7944 70.8835ZM65.8901 70.9583C67.603 70.465 69.1056 69.1495 69.1807 68.0134C69.2859 66.5035 67.5279 65.5169 65.9502 64.62C65.9201 65.2777 65.8901 65.6664 65.8901 66.0401C65.8901 67.6097 65.8901 69.1644 65.8901 70.9583ZM83.4401 64.4555C79.0526 68.118 79.0526 68.1927 83.4401 70.9284C83.4401 68.8654 83.4401 66.8473 83.4401 64.4555ZM77.0241 59.7317C75.4614 59.7317 73.8988 59.7317 71.9605 59.7317C74.8003 63.3493 75.5816 63.2895 77.0241 59.7317ZM36.62 71.1975C40.5718 67.4902 40.5567 67.3855 36.62 65.0385C36.62 66.9221 36.62 68.8206 36.62 71.1975ZM72.0356 75.8914C73.9438 75.8914 75.5366 75.8914 77.1894 75.8914C74.8905 72.3934 74.8905 72.3934 72.0356 75.8914ZM47.4535 59.7915C45.9209 59.7915 44.3733 59.7915 42.4349 59.7915C45.3049 63.3045 45.6955 63.2746 47.4535 59.7915ZM42.7204 75.8914C44.3733 75.8914 45.9359 75.8914 47.8893 75.8914C44.9442 72.3784 44.9442 72.3784 42.7204 75.8914Z" fill="black"/>
<path d="M61.1119 47.6829C59.0684 47.6829 57.0249 47.653 54.9814 47.6979C54.0048 47.7128 53.5991 47.3541 53.6291 46.3525C53.6742 44.0952 53.6742 41.8529 53.6291 39.5956C53.6141 38.6688 53.8545 38.1904 54.9213 38.2054C59.0534 38.2502 63.2005 38.2353 67.3326 38.2054C68.2491 38.2054 68.6398 38.5193 68.6248 39.4461C68.5947 41.7482 68.5797 44.0653 68.6248 46.3674C68.6398 47.4139 68.1439 47.7128 67.2123 47.6979C65.1989 47.668 63.1554 47.6829 61.1119 47.6829Z" fill="#030303"/>
</g>
<defs>
<clipPath id="clip0_11_114">
<rect width="76" height="76" fill="white" transform="translate(22 12)"/>
</clipPath>
</defs>
</svg>
