<svg width="120" height="100" viewBox="0 0 120 100" fill="none" xmlns="http://www.w3.org/2000/svg">
<rect width="120" height="100" fill="white"/>
<path d="M36.9962 54.5404C36.9962 54.7497 37.0037 54.9591 36.9962 55.1656C36.9563 56.2904 36.3423 57.0245 35.4663 56.9994C34.6227 56.977 34.0487 56.2681 34.0112 55.1907C33.9963 54.7386 33.9963 54.2864 34.0112 53.8343C34.0462 52.7066 34.6576 51.9782 35.5362 52.0005C36.3798 52.0228 36.9513 52.729 36.9937 53.8063C37.0062 54.052 36.9962 54.2976 36.9962 54.5404Z" fill="black"/>
<path d="M101.989 52.658C99.8771 50.1473 97.5559 48.2598 94.9329 46.7314C94.2134 46.3108 93.468 45.9338 92.7149 45.5722C92.0624 45.2594 91.5672 44.8414 91.5517 44.072C91.5363 43.2539 92.0547 42.818 92.7407 42.4897C93.811 41.9768 94.8633 41.4331 96.2173 40.7561C94.4584 40.1304 92.9702 39.4302 91.4021 39.0866C88.9933 38.5609 86.5354 38.2506 84.0904 37.9172C83.3321 37.8146 82.6977 37.6607 82.3882 36.9042C82.0735 36.1323 82.4166 35.5476 82.9607 35.0219C83.621 34.3833 84.2761 33.7396 85.0833 32.9523C81.9575 32.742 79.0947 32.9523 76.268 33.5627C74.9191 33.8525 73.5909 34.2423 72.2704 34.6423C71.5328 34.8654 70.8699 34.8988 70.318 34.3038C69.7558 33.6986 69.8718 33.0267 70.1581 32.3343C70.8235 30.7161 71.4709 29.0902 72.1749 27.3463C69.6294 27.6823 67.3133 28.367 65.2011 29.4979C62.5214 30.934 59.9526 32.5779 57.3735 34.191C56.6539 34.6423 56.0117 35.0937 55.1813 34.5628C54.4075 34.0679 54.4204 33.3216 54.5442 32.5138C54.8795 30.3365 55.1761 28.1567 55.5191 25.7768C55.1735 26.023 54.9724 26.141 54.7996 26.2923C51.7846 28.9209 49.1513 31.888 46.8533 35.1527C45.7572 36.7067 44.9629 36.776 43.6192 35.4168C42.8351 34.6244 42.0897 33.7909 41.1767 32.819C40.4469 34.6346 39.8176 36.1913 39.1934 37.7531C38.4893 39.5097 37.958 39.7354 36.1733 39.0276C34.8296 38.4968 33.4884 37.9634 32.1447 37.4351C32.0854 37.412 32.0184 37.412 31.8533 37.3838C32.1473 38.884 32.4336 40.3458 32.725 41.8101C32.9726 43.0539 32.707 43.5771 31.5283 44.0566C29.9293 44.708 28.3251 45.3414 26.6151 46.0262C28.1059 47.2161 29.5037 48.3291 30.7649 49.3344C32.3227 48.0034 33.785 46.7237 35.2861 45.4902C35.5878 45.2414 36.0985 44.9696 36.4054 45.0619C36.9315 45.2209 37.5273 45.5594 37.8162 46.0031C38.2263 46.6314 37.9322 47.3007 37.3468 47.7803C36.4802 48.4906 35.5414 49.1292 34.7496 49.9139C33.9811 50.6756 33.3363 51.568 32.6709 52.4272C31.9461 53.3632 31.1183 53.5325 30.1898 52.8041C27.6881 50.8423 25.1966 48.8702 22.7284 46.8699C21.5936 45.9492 21.8154 44.6388 23.1798 44.0771C25.256 43.2232 27.3476 42.4153 29.5089 41.5588C29.104 39.5174 28.7274 37.5146 28.3019 35.5245C28.1497 34.8141 28.16 34.1833 28.7326 33.6755C29.3516 33.1293 30.0247 33.2652 30.7185 33.5447C32.6477 34.3269 34.5846 35.0885 36.6014 35.8912C37.3674 33.9832 38.105 32.1522 38.8427 30.3186C39.6396 28.3388 40.6635 28.131 42.1878 29.6646C43.0879 30.5699 43.9544 31.5085 44.852 32.4522C46.3788 30.6622 47.7535 28.9799 49.2055 27.3668C51.2739 25.069 53.5564 23.0097 56.2722 21.471C56.9686 21.0761 57.6623 20.7401 58.4232 21.2838C59.1711 21.8172 59.1195 22.5609 58.9957 23.3611C58.6708 25.464 58.3897 27.5745 58.0724 29.8159C59.4394 29.0389 60.6412 28.308 61.8843 27.654C65.673 25.6614 69.6397 24.2356 73.9777 24.0791C75.8115 24.0125 76.4614 24.9459 75.796 26.6206C75.257 27.9797 74.7102 29.3338 74.1454 30.7417C76.1003 30.4622 77.9625 30.0108 79.8323 29.9698C82.7467 29.9057 85.674 30.0544 88.5883 30.2416C89.9475 30.3288 90.4221 31.7752 89.5323 32.8215C89.2022 33.2113 88.8359 33.5806 88.4439 33.9089C88.0803 34.214 87.6599 34.45 87.2653 34.7193C87.3555 34.8141 87.4432 34.9116 87.5335 35.0065C88.9365 35.304 90.3499 35.563 91.7426 35.9066C94.6389 36.6221 97.3083 37.8659 99.8023 39.4867C101.234 40.4176 101.159 41.7152 99.6269 42.5C98.6855 42.9821 97.7364 43.4488 96.7925 43.9284C96.746 43.9515 96.7306 44.0335 96.8054 43.8976C98.9305 45.7107 101.118 47.3956 103.073 49.3113C104.411 50.6217 105.44 52.2476 106.593 53.7427C107.042 54.3249 107.16 54.966 106.74 55.6174C106.294 56.3072 105.621 56.4047 104.87 56.2765C103.163 55.9841 101.453 55.6995 99.6114 55.3917C99.7172 55.6918 99.7713 55.9174 99.8745 56.12C101.048 58.4178 101.822 60.8413 102.276 63.375C102.402 64.0828 102.417 64.8368 101.747 65.1702C101.244 65.4189 100.496 65.4753 99.9596 65.301C98.4482 64.8137 96.9911 64.1649 95.3327 63.5058C95.6164 64.6445 95.864 65.5933 96.0858 66.5447C96.3489 67.6731 95.8279 68.4938 94.7008 68.6117C83.3708 69.7914 72.4948 68.3963 62.3795 62.8596C58.4825 60.7259 55.1013 57.9331 52.2101 54.5659C51.439 53.6658 51.4029 52.84 52.1018 52.1912C52.8317 51.5116 53.7266 51.6193 54.5287 52.54C56.8396 55.1994 59.4884 57.4587 62.493 59.3103C67.9143 62.6518 73.8617 64.488 80.1392 65.342C84.1317 65.8857 88.1447 66.0985 92.1733 65.76C92.328 65.7472 92.4802 65.7062 92.6762 65.6702C92.328 64.2726 92.0082 62.9057 91.6446 61.5491C91.4615 60.8644 91.4898 60.1591 92.1011 59.8334C92.5963 59.5693 93.3468 59.4693 93.8729 59.6385C95.4462 60.1463 96.9627 60.8208 98.6546 61.4901C98.0485 59.1282 97.0633 57.1458 95.7815 55.2968C95.5803 55.007 95.3714 54.7224 95.1496 54.4505C94.6415 53.8248 94.4171 53.1555 94.902 52.4272C95.3533 51.7527 96.0162 51.6527 96.777 51.7886C98.4173 52.0809 100.065 52.34 101.989 52.658Z" fill="black"/>
<path d="M44.0909 71.003C36.3802 71.3387 29.3176 69.4304 22.5144 66.3536C22.224 66.2223 21.7055 66.2905 21.428 66.4672C19.4316 67.7368 16.9997 67.5752 15.3715 66.0052C13.834 64.5236 13.554 62.1308 14.7103 60.3589C15.9419 58.4708 18.2338 57.7944 20.5024 58.5844C20.8265 58.698 21.3399 58.6551 21.6199 58.4708C23.0407 57.5394 24.4252 56.5576 25.7942 55.558C26.7716 54.8437 27.6609 54.8008 28.278 55.5126C28.8976 56.2294 28.7395 57.1482 27.7828 57.8676C26.4786 58.8494 25.1512 59.7985 23.7952 60.7122C23.3181 61.0328 23.23 61.318 23.2066 61.9061C23.1522 63.3221 24.0415 63.7134 25.1226 64.1677C29.9995 66.2097 35.0242 67.7368 40.3496 67.9261C42.7168 68.0119 45.1098 67.6686 47.4796 67.4086C48.3715 67.3102 49.1026 67.3052 49.5641 68.1305C50.0152 68.9357 49.5797 69.5264 49.0508 70.1549C47.9307 71.4876 46.7458 72.8001 45.8539 74.2742C44.7987 76.0183 45.5947 77.1441 47.6585 76.932C48.6593 76.8286 49.7508 76.5635 50.5805 76.0385C52.875 74.5897 55.1177 73.0399 57.2515 71.374C58.2108 70.6243 59.0353 70.2811 60.2953 70.4401C67.2931 71.321 74.3271 71.7905 81.387 71.8107C82.546 71.8132 83.3445 72.1438 84.1534 72.9945C85.2605 74.1606 86.5958 75.1273 87.8921 76.1092C88.307 76.4222 88.8851 76.5762 89.414 76.6897C90.9697 77.0204 91.9445 76.1925 91.8667 74.6452C91.846 74.2388 91.7242 73.835 91.7138 73.4286C91.693 72.5931 92.126 72.0479 92.9583 71.8586C93.7491 71.6794 94.5502 72.1438 94.7395 72.9541C95.1932 74.9027 95.188 76.821 93.622 78.343C92.0508 79.8701 90.1089 80.1175 88.0451 79.4789C85.6235 78.7292 83.806 77.1289 82.0922 75.3797C81.8356 75.1198 81.4129 74.8926 81.0526 74.8699C74.1845 74.4029 67.3138 73.9561 60.4405 73.5498C59.9661 73.522 59.3594 73.7138 59.0016 74.0142C56.6111 76.0082 54.1532 77.8937 51.226 79.1002C49.476 79.8221 47.6688 80.2967 45.7554 79.7868C43.1523 79.0952 41.9052 77.0709 42.5042 74.5241C42.6468 73.9158 42.8542 73.3125 43.1109 72.7395C43.3649 72.1792 43.7201 71.6542 44.0909 71.003ZM20.2483 62.7744C20.2509 61.9541 19.5509 61.27 18.7057 61.2675C17.8605 61.265 17.1604 61.944 17.1578 62.7668C17.1552 63.5872 17.8553 64.2737 18.6979 64.2762C19.5379 64.2788 20.2458 63.5922 20.2483 62.7744Z" fill="black"/>
<path d="M40 44.9896C40.0191 41.3999 42.6141 38.501 46.2063 38.0554C49.353 37.6642 52.5377 39.3823 53.5865 42.0337C54.7006 44.8534 53.4941 48.1608 50.7986 49.6833C49.8964 50.1933 49.0079 50.0819 48.4617 49.3887C47.9155 48.6931 48.122 47.9405 48.8938 47.2696C49.4671 46.7695 50.0758 46.2224 50.4019 45.5812C51.2334 43.9523 50.4997 42.0956 48.8775 41.3752C46.9373 40.5137 44.8776 41.0434 43.9428 42.7516C43.5624 43.4472 43.2581 44.2815 43.2988 45.0366C43.3668 46.3511 42.4538 47.0641 41.6032 47.0443C40.5381 47.0195 39.9946 46.3264 40 44.9896Z" fill="black"/>
<path d="M26 57.5C26.4 57.5 29.5 53.8333 31 52" stroke="black" stroke-width="2.8"/>
<path d="M93.5 74L91 67.5" stroke="black" stroke-width="2.8"/>
</svg>
