<svg width="120" height="100" viewBox="0 0 120 100" fill="none" xmlns="http://www.w3.org/2000/svg">
<rect width="120" height="100" fill="white"/>
<path d="M58.7185 38.1453C58.7185 35.3443 58.7185 32.628 58.7185 29.9088C58.618 29.9088 58.5476 29.8872 58.5189 29.9116C56.9583 31.2827 55.0804 31.2956 53.1437 31.2885C43.3021 31.2526 33.459 31.2612 23.6174 31.2827C21.8127 31.287 20.2521 30.7831 19.4639 29.0976C18.3312 26.6742 19.2687 23.7482 22.3224 23.1366C22.7904 23.0433 23.2814 23.0333 23.7624 23.0333C33.739 23.0261 43.7155 23.0591 53.6921 23.0002C55.5772 22.9888 57.201 23.3893 58.7084 24.5336C60.0824 25.5759 60.1771 25.5759 61.5382 24.5393C63.0442 23.3922 64.6665 22.9888 66.553 23.0002C76.61 23.0591 86.667 23.0261 96.724 23.029C99.1029 23.0304 100.718 24.2005 101.213 26.2607C101.779 28.6138 100.061 31.0142 97.65 31.2239C97.2236 31.2612 96.7929 31.2684 96.3651 31.2684C86.3081 31.2712 76.2511 31.2526 66.1941 31.2885C64.6349 31.2942 63.2122 31.0688 61.9832 30.0538C61.9028 29.9863 61.7995 29.9447 61.7047 29.8973C61.686 29.8887 61.6545 29.9045 61.5726 29.9203C61.5726 32.6222 61.5726 35.3371 61.5726 38.1439C63.0299 38.1439 64.4727 38.2013 65.9098 38.1309C68.1624 38.0204 69.7661 38.9234 70.8199 40.9219C71.4315 42.082 72.1924 43.1616 72.8198 44.3145C73.1342 44.893 73.5276 45.0467 74.1593 45.051C76.1937 45.0653 78.2438 45.0108 80.2567 45.2477C83.039 45.5764 85.4309 46.893 87.247 49.0221C89.6303 51.8159 91.8929 54.7146 94.1771 57.5917C94.8547 58.4445 95.6487 59.0087 96.7168 59.2959C99.1919 59.962 100.777 61.5815 101.213 64.1183C101.621 66.4786 100.78 68.4469 98.8847 69.9271C97.762 70.8029 96.4426 71.1173 95.0442 71.1288C93.5181 71.1417 91.992 71.1317 90.407 71.1317C90.407 72.4984 90.407 73.8193 90.407 75.2119C92.5074 75.2306 94.6839 75.6325 95.9645 73.2493C96.8101 73.6728 97.5897 74.0619 98.4282 74.4811C97.36 76.4566 95.7851 77.598 93.6258 77.9153C93.1764 77.9813 92.717 77.9928 92.2619 77.9928C82.2853 77.9971 72.3087 77.9885 62.3321 78C59.7134 78.0029 57.646 77.0438 56.3036 74.7238C56.2778 74.6792 56.2721 74.6233 56.2233 74.4596C56.9784 74.0791 57.7551 73.6886 58.6151 73.2565C59.8642 75.5651 62.0234 75.2708 64.1899 75.2047C64.1899 73.8537 64.1899 72.5343 64.1899 71.3628C62.7887 70.9536 61.3501 70.734 60.114 70.1138C58.9238 69.5165 57.8083 68.6278 56.8909 67.6487C53.9017 64.46 51.0103 61.178 48.1001 57.9147C47.6852 57.4496 47.2344 57.2055 46.6142 57.0863C40.5915 55.9277 34.5745 54.7433 28.5619 53.5344C28.0579 53.4325 27.8541 53.5502 27.6445 53.9809C26.6108 56.1 25.5268 58.1932 24.5089 60.3195C24.0954 61.1824 23.5082 61.5786 22.5492 61.5083C21.8285 61.4551 21.1006 61.5169 20.3784 61.4882C19.4567 61.4508 19.0748 61.0431 19.0748 60.1329C19.0734 51.8963 19.0734 43.6598 19.0748 35.4218C19.0748 34.5188 19.3864 34.0995 20.2808 34.0622C21.672 34.0033 23.0689 34.0234 24.4615 34.0522C25.2454 34.0694 25.6029 34.6135 25.8556 35.2969C26.9596 38.286 28.1082 41.2593 29.1907 44.257C29.4118 44.8686 29.6961 45.0553 30.3392 45.051C35.6226 45.0222 40.9059 45.0251 46.1892 45.0481C46.7678 45.051 47.1095 44.8945 47.3995 44.3762C48.1303 43.0654 48.9371 41.7991 49.6937 40.5027C50.6313 38.8976 52.0181 38.1238 53.873 38.141C55.4753 38.1568 57.0761 38.1453 58.7185 38.1453ZM21.6878 49.3523C21.9433 49.4212 22.1472 49.4887 22.3554 49.5303C30.8934 51.2086 39.4329 52.874 47.9637 54.5868C48.5438 54.7031 49.1726 55.0678 49.5746 55.5056C52.6757 58.8824 55.7437 62.2921 58.7874 65.7206C60.404 67.5424 62.3953 68.3981 64.8158 68.3952C74.8154 68.3823 84.8164 68.3909 94.816 68.3866C95.1634 68.3866 95.5152 68.3751 95.8554 68.3148C97.2452 68.0693 98.2961 67.017 98.5344 65.6631C98.7655 64.3552 98.1195 62.8722 96.8618 62.295C95.9832 61.8916 94.9883 61.57 94.0321 61.5327C90.4429 61.3948 86.8493 61.3819 83.2573 61.3432C82.5825 61.336 82.0613 61.135 81.701 60.5492C80.1002 57.9478 78.4793 55.3592 76.8986 52.7448C76.2209 51.6235 76.8469 50.5496 78.1692 50.5339C80.126 50.5094 82.0829 50.5281 84.0397 50.5252C84.2637 50.5252 84.4876 50.5008 84.8638 50.4779C84.525 50.1807 84.3197 49.9768 84.0914 49.8031C82.2594 48.3961 80.1849 47.7745 77.8777 47.7759C59.432 47.7888 40.9877 47.7831 22.542 47.7845C22.2606 47.7845 21.9792 47.8104 21.6849 47.8233C21.6878 48.3731 21.6878 48.8254 21.6878 49.3523ZM62.6867 27.1781C63.6802 27.9074 64.6005 28.5592 65.9802 28.552C76.1104 28.4961 86.2406 28.5219 96.3723 28.5205C96.6938 28.5205 97.0169 28.5291 97.3356 28.4917C98.0448 28.4085 98.5287 27.8945 98.5631 27.224C98.5961 26.5722 98.1539 25.998 97.4562 25.853C97.1202 25.7826 96.7656 25.7783 96.4196 25.7783C86.4502 25.774 76.4794 25.8041 66.51 25.7438C65.0025 25.7338 63.8066 26.1659 62.6867 27.1781ZM57.547 27.158C56.463 26.186 55.3044 25.7338 53.8199 25.7424C43.8247 25.8027 33.8294 25.774 23.8341 25.7754C23.514 25.7754 23.1881 25.774 22.8751 25.8314C22.1228 25.9707 21.6505 26.5493 21.6907 27.2269C21.7323 27.9232 22.2477 28.4314 23.0058 28.5004C23.2986 28.5276 23.5944 28.519 23.8887 28.519C33.884 28.5205 43.8792 28.4917 53.8745 28.5506C55.326 28.5607 56.4702 28.1414 57.547 27.158ZM67.0512 75.1889C73.921 75.1889 80.7161 75.1889 87.5456 75.1889C87.5456 73.8178 87.5456 72.4984 87.5456 71.1733C80.6874 71.1733 73.8908 71.1733 67.0512 71.1733C67.0512 72.5157 67.0512 73.8164 67.0512 75.1889ZM70.0518 44.9921C69.2808 43.7287 68.6376 42.5557 67.8652 41.4761C67.6327 41.1516 67.0469 40.9219 66.6219 40.9176C62.3048 40.8774 57.9877 40.8803 53.6706 40.9133C53.2586 40.9162 52.68 41.0885 52.4661 41.3871C51.6664 42.5084 50.9873 43.7143 50.1991 44.9921C56.8607 44.9921 63.3601 44.9921 70.0518 44.9921ZM80.449 53.2688C81.5502 55.0563 82.5595 56.7188 83.6076 58.354C83.7124 58.5177 84.0627 58.5838 84.3024 58.5895C86.3914 58.6455 88.4803 58.6771 90.5692 58.7144C90.8449 58.7187 91.1219 58.7144 91.5641 58.7144C90.094 56.871 88.7502 55.174 87.3849 53.4942C87.2743 53.3579 87.0188 53.2775 86.8307 53.276C84.769 53.2631 82.7074 53.2688 80.449 53.2688ZM26.5505 44.9935C25.5383 42.2916 24.5678 39.6915 23.5786 37.0987C23.5269 36.9637 23.3202 36.8144 23.1752 36.8015C22.7043 36.7642 22.229 36.7871 21.7194 36.7871C21.7194 39.5724 21.7194 42.2614 21.7194 44.9921C23.3159 44.9935 24.8607 44.9935 26.5505 44.9935ZM21.7079 52.2064C21.7079 54.4231 21.7079 56.558 21.7079 58.7704C21.9218 58.7173 22.1888 58.7259 22.2405 58.6254C23.2125 56.7389 24.16 54.8409 25.1464 52.8726C23.9031 52.6328 22.832 52.4247 21.7079 52.2064Z" fill="black"/>
<path d="M67.0096 50.5252C68.2945 50.5252 69.5809 50.541 70.8644 50.518C71.5148 50.5065 71.9986 50.7362 72.3575 51.2746C74.1205 53.9277 75.9037 56.5665 77.648 59.2312C78.3931 60.3697 77.7815 61.478 76.4148 61.4909C73.7903 61.5139 71.1659 61.534 68.5443 61.4637C68.0677 61.4507 67.4302 61.1191 67.1603 60.73C65.3399 58.1171 63.584 55.4582 61.8397 52.7936C61.096 51.6579 61.709 50.5553 63.0729 50.5295C64.3851 50.5065 65.6974 50.5252 67.0096 50.5252ZM74.0344 58.7531C72.8141 56.9183 71.6813 55.2084 70.5342 53.5071C70.4581 53.3937 70.2815 53.2831 70.1494 53.2817C68.6333 53.2659 67.1158 53.2716 65.4432 53.2716C66.665 55.1064 67.7992 56.8163 68.9521 58.5148C69.0382 58.6411 69.2564 58.7416 69.4143 58.743C70.9032 58.7603 72.392 58.7531 74.0344 58.7531Z" fill="black"/>
</svg>
