<svg width="120" height="100" viewBox="0 0 120 100" fill="none" xmlns="http://www.w3.org/2000/svg">
<rect width="120" height="100" fill="white"/>
<path d="M80.4515 86.0163C79.6199 86.0163 78.7883 86.0163 77.9549 86.0163C76.6806 85.6413 75.3611 85.3774 74.1405 84.8722C59.1017 78.6584 44.0786 72.4099 29.0502 66.1735C27.5189 65.5381 26.3314 64.5224 25.6213 63.0154C25.3487 62.439 25.1942 61.8071 24.9858 61.2011C24.9858 57.0881 24.9858 52.9751 24.9858 48.8621C25.0223 48.6399 25.0796 48.4176 25.0952 48.1937C25.2966 45.2022 25.9564 42.3028 26.9651 39.4919C29.2551 33.1132 32.9132 27.6321 37.9811 23.1215C40.8701 20.552 44.0855 18.4651 47.7315 17.156C53.9748 14.9129 60.4039 14.3434 66.8937 15.7462C79.9324 18.5658 89.1099 26.1112 94.117 38.5475C95.1361 41.0788 95.9209 43.7404 95.9469 46.4697C96.0372 56.0551 95.9869 65.6423 95.9782 75.2277C95.9765 77.1184 94.4556 78.0421 92.742 77.2191C92.2141 76.9656 91.6916 76.7017 91.1377 76.4274C90.8912 77.075 90.6811 77.6358 90.4641 78.1931C89.2488 81.3078 87.1567 83.6256 84.0836 84.952C82.9343 85.4469 81.6651 85.6691 80.4515 86.0163ZM91.3374 43.9331C91.2853 43.6275 91.2662 43.4435 91.2228 43.2664C90.0925 38.6603 88.056 34.4865 84.9378 30.9187C77.1684 22.0329 67.3625 18.2168 55.6259 19.5033C50.5528 20.0589 46.0075 21.9791 42.0056 25.1737C37.5679 28.7155 34.2275 33.1011 31.8976 38.2575C30.4062 41.5615 29.3732 45.0147 29.2568 48.6572C29.137 52.3952 29.1735 56.1402 29.1492 59.8816C29.1405 61.2897 29.5398 61.873 30.8507 62.4165C45.8686 68.6511 60.8848 74.8926 75.9132 81.0995C76.8559 81.4884 77.908 81.787 78.9168 81.813C83.3405 81.9311 86.2747 79.0751 87.299 74.4985C83.9031 72.7988 80.5002 71.0956 77.0955 69.3942C72.1839 66.9392 67.2774 64.4738 62.3588 62.0328C59.7806 60.7515 58.5132 58.7045 58.5375 55.8224C58.5635 52.8657 58.5236 49.909 58.5496 46.9523C58.5844 43.039 61.9543 40.1986 65.8294 40.7507C67.8625 41.0406 69.906 41.2628 71.946 41.5181C76.9393 42.1431 81.9325 42.7699 86.9275 43.3949C88.365 43.5737 89.8043 43.7456 91.3374 43.9331ZM91.7975 48.1954C84.8545 47.3291 77.9723 46.4696 71.0692 45.6085C71.0467 45.7977 71.0258 45.8863 71.0258 45.9766C71.0241 51.0809 71.031 56.1853 71.0102 61.2897C71.0085 61.722 71.2533 61.8314 71.5415 61.9772C78.1025 65.2551 84.6635 68.5347 91.2245 71.8109C91.3964 71.8977 91.5822 71.9567 91.7957 72.0436C91.7975 64.0606 91.7975 56.1645 91.7975 48.1954ZM66.8382 45.0894C66.2305 45.0078 65.6419 44.8984 65.0482 44.855C63.6957 44.7543 62.7182 45.6328 62.7095 46.9922C62.6904 50.041 62.6783 53.0897 62.7286 56.1367C62.7373 56.6471 62.9248 57.3624 63.2877 57.6211C64.3711 58.3903 65.5829 58.9806 66.8382 59.6924C66.8382 54.6974 66.8382 49.9194 66.8382 45.0894Z" fill="black"/>
<path d="M41.601 44.2874C46.188 44.2752 49.9382 48.0098 49.9434 52.5915C49.9486 57.1698 46.1932 60.9234 41.6167 60.9182C37.0661 60.913 33.3299 57.1907 33.309 52.6419C33.2882 48.0584 37.0193 44.2995 41.601 44.2874ZM41.6219 48.449C39.3596 48.4525 37.4828 50.3241 37.4724 52.5881C37.462 54.8416 39.3353 56.7358 41.5976 56.7584C43.8737 56.7809 45.7991 54.859 45.7818 52.5794C45.7644 50.3102 43.8858 48.4455 41.6219 48.449Z" fill="black"/>
</svg>
