<svg width="120" height="100" viewBox="0 0 120 100" fill="none" xmlns="http://www.w3.org/2000/svg">
<rect width="120" height="100" fill="white"/>
<path d="M101.974 50.6092C101.974 53.9879 101.892 57.3713 101.999 60.7478C102.095 63.8488 100.838 66.2349 98.5635 68.1884C96.2002 70.2193 93.4179 71.4852 90.515 72.5166C85.3489 74.354 79.987 75.2852 74.566 75.9068C67.9792 76.6627 61.3673 76.8607 54.7441 76.5944C46.8959 76.2779 39.1161 75.4446 31.5548 73.186C28.3354 72.2252 25.2253 70.9911 22.4863 68.9898C20.3689 67.4461 18.6726 65.5769 18.1808 62.888C18.0738 62.3074 18.0625 61.7018 18.0625 61.1098C18.0556 54.4911 18.1945 47.8702 18.0055 41.2583C17.8894 37.1965 19.6061 34.2936 22.6548 31.9393C26.1952 29.2026 30.273 27.5815 34.5124 26.3384C43.5877 23.6791 52.8885 22.8435 62.3054 23.0234C69.5388 23.1622 76.6948 23.9546 83.6982 25.8193C88.5182 27.1034 93.1903 28.7655 97.2248 31.8209C99.4651 33.5172 101.289 35.5504 101.842 38.4351C101.942 38.961 101.965 39.5074 101.965 40.0425C101.979 43.567 101.974 47.0869 101.974 50.6092ZM60.32 26.3247C53.5784 26.3748 47.1896 26.8757 40.8829 28.1963C36.0333 29.2117 31.3044 30.5892 26.9648 33.0618C25.2025 34.0659 23.5632 35.2407 22.3907 36.9415C21.0792 38.8449 21.0656 40.7711 22.4294 42.6358C22.994 43.4053 23.6793 44.1157 24.4147 44.7259C26.8077 46.7067 29.6013 47.9635 32.4951 49.0108C38.4353 51.1624 44.5986 52.2439 50.869 52.7881C61.1533 53.6828 71.3557 53.2047 81.4305 50.8391C85.5584 49.8692 89.5656 48.5373 93.2517 46.3811C94.8296 45.459 96.2981 44.3935 97.4183 42.9158C99.0007 40.8325 99.0325 38.7356 97.4297 36.666C96.8787 35.9533 96.223 35.2976 95.5194 34.7353C92.6165 32.4084 89.2263 31.0263 85.7246 29.9107C77.3619 27.2446 68.7373 26.4181 60.32 26.3247ZM21.4094 46.6316C21.4094 47.1461 21.4094 47.4717 21.4094 47.7973C21.4094 52.0845 21.4777 56.3763 21.382 60.6613C21.3319 62.8607 22.1949 64.4886 23.8364 65.8159C26.0814 67.6306 28.6906 68.7303 31.3977 69.6137C38.6357 71.977 46.1264 72.8171 53.6854 73.1928C60.1356 73.5138 66.5744 73.3522 72.9995 72.701C78.1201 72.1819 83.1814 71.3623 88.097 69.7935C91.0546 68.8487 93.9257 67.7103 96.3459 65.6862C97.8645 64.4157 98.6796 62.8652 98.6432 60.8024C98.5681 56.4583 98.6204 52.1118 98.6182 47.7677C98.6182 47.4467 98.5908 47.1256 98.5772 46.7841C98.4178 46.8274 98.3541 46.8251 98.3176 46.857C94.6725 49.9534 90.367 51.7362 85.8567 53.1068C79.3564 55.0808 72.6808 56.0234 65.9141 56.3763C55.7322 56.9068 45.6528 56.2602 35.7737 53.5736C31.1814 52.3259 26.7553 50.6661 22.8825 47.7973C22.4385 47.4649 22.0104 47.1074 21.4094 46.6316Z" fill="black"/>
<path d="M63.6783 49.8441C62.5422 49.8441 61.4083 49.8486 60.2722 49.8418C59.1156 49.835 58.3278 49.1428 58.3346 48.1524C58.3415 47.1984 59.0883 46.52 60.213 46.4721C63.3596 46.3424 66.5152 46.3241 69.6526 46.0737C75.882 45.5796 82.0681 44.7736 87.9559 42.5128C88.9008 42.1508 89.7978 41.6408 90.6767 41.1262C91.3415 40.7369 91.847 40.2155 91.995 39.3594C92.1452 38.4874 93.0377 37.9705 93.8551 38.1163C94.7226 38.2711 95.3282 39.0497 95.2599 39.9696C95.1757 41.1285 94.6361 42.0779 93.821 42.8771C92.4116 44.2568 90.6744 45.0878 88.8621 45.7777C84.2151 47.5445 79.361 48.4097 74.4522 48.9652C70.873 49.3682 67.2757 49.5959 63.6851 49.901C63.6851 49.8828 63.6806 49.8623 63.6783 49.8441Z" fill="black"/>
</svg>
