<svg width="120" height="100" viewBox="0 0 120 100" fill="none" xmlns="http://www.w3.org/2000/svg">
<rect width="120" height="100" fill="white"/>
<path d="M28.9988 84.9988C28.5516 84.8399 28.0806 84.7249 27.6589 84.5131C26.1163 83.7389 25.22 82.4663 25.0685 80.7555C24.9736 79.6928 24.9809 78.6101 25.0685 77.5474C25.2675 75.099 27.2719 73.3571 29.8623 73.3498C34.6215 73.3352 39.3806 73.3114 44.1398 73.3626C45.874 73.3808 47.1154 72.7527 48.1103 71.3249C50.2316 68.2812 52.4331 65.2923 54.6293 62.3015C54.9542 61.8596 54.9633 61.5894 54.6329 61.133C45.0909 48.0287 35.5689 34.9118 26.0433 21.7966C24.6468 19.874 24.7216 17.7231 26.2368 16.204C28.0386 14.3982 30.9102 14.652 32.4856 16.7956C34.6142 19.695 36.7062 22.6201 38.8147 25.536C45.7389 35.109 52.665 44.6819 59.5892 54.2549C59.7097 54.4211 59.8338 54.5818 60.0127 54.821C60.1953 54.5836 60.3578 54.3791 60.5093 54.1691C69.4781 41.7752 78.4451 29.3812 87.4139 16.9873C88.6042 15.344 90.1559 14.694 91.8938 15.134C93.3286 15.4974 94.2742 16.4067 94.7671 17.7961C94.842 18.0061 94.9205 18.2143 94.999 18.4224C94.999 18.8789 94.999 19.3335 94.999 19.79C94.5207 20.6554 94.1282 21.5848 93.5532 22.379C84.19 35.3043 74.8086 48.2132 65.4108 61.1129C65.0603 61.5931 65.0895 61.8834 65.4218 62.3362C67.6288 65.347 69.8414 68.3561 71.9827 71.4144C72.9375 72.7783 74.146 73.3699 75.7926 73.3571C80.5737 73.3187 85.3565 73.3352 90.1376 73.348C92.5783 73.3534 94.2396 74.6425 94.8803 76.9723C94.9022 77.0545 94.9606 77.1275 95.0008 77.206C95.0008 78.4823 95.0008 79.7586 95.0008 81.033C94.6649 81.7615 94.4112 82.5448 93.9749 83.2076C93.2958 84.2374 92.1913 84.6847 91.0394 84.997C85.9371 84.997 80.8365 84.997 75.7342 84.997C75.6557 84.9586 75.5808 84.8965 75.4969 84.8838C72.6947 84.4437 70.5205 83.0177 68.8666 80.7281C66.0826 76.8719 63.2786 73.0321 60.4801 69.1868C60.3395 68.9933 60.1862 68.8089 60.0109 68.5843C59.801 68.8655 59.6349 69.0791 59.476 69.2982C56.6939 73.127 53.9063 76.9522 51.1315 80.7865C49.7332 82.7183 47.915 84.0402 45.6075 84.6683C45.1748 84.787 44.7385 84.8874 44.3041 84.997C39.2017 84.9988 34.1012 84.9988 28.9988 84.9988ZM48.1724 48.2442C48.3257 48.4706 48.4444 48.6587 48.5758 48.8394C51.3451 52.6518 54.1163 56.4624 56.8856 60.273C61.5152 66.6434 66.1538 73.0084 70.7724 79.3879C72.2109 81.3763 74.1168 82.5941 76.5648 82.6379C81.1615 82.7219 85.7618 82.6781 90.3603 82.6599C91.6674 82.6544 92.6221 81.6593 92.666 80.3483C92.6879 79.7111 92.6714 79.0739 92.6714 78.4348C92.6696 76.5396 91.8134 75.6796 89.924 75.6778C85.143 75.6759 80.3619 75.6686 75.5808 75.6814C73.3208 75.6869 71.5592 74.7995 70.2284 72.9518C65.3342 66.1541 60.4144 59.3746 55.5055 52.5879C53.9995 50.5064 52.4916 48.425 50.9581 46.3088C50.0161 46.9624 49.107 47.5942 48.1724 48.2442ZM56.5114 63.7238C56.327 63.9576 56.181 64.1255 56.0513 64.3063C53.9958 67.1473 51.9147 69.9683 49.8957 72.8367C48.5229 74.7886 46.701 75.7015 44.326 75.6869C39.4993 75.654 34.6708 75.6723 29.8422 75.6814C28.3179 75.6851 27.3814 76.6363 27.365 78.1591C27.3577 78.7507 27.3632 79.3441 27.3632 79.9357C27.3668 81.7688 28.2577 82.669 30.0814 82.669C34.1578 82.6708 38.236 82.6106 42.3106 82.6891C45.4523 82.7493 47.8 81.526 49.6036 78.9588C52.4167 74.9529 55.343 71.0273 58.2091 67.0579C58.3442 66.8716 58.4866 66.5046 58.399 66.3732C57.8185 65.484 57.174 64.6368 56.5114 63.7238ZM69.0801 46.3015C66.5901 49.7396 64.1202 53.1448 61.6667 56.5592C61.579 56.6815 61.5681 56.9663 61.6502 57.0868C62.249 57.9578 62.8806 58.8068 63.5506 59.727C66.3564 55.8653 69.1039 52.084 71.8878 48.2515C70.9385 47.5924 70.0294 46.9606 69.0801 46.3015ZM35.9285 25.5195C34.0446 22.925 32.2264 20.3998 30.3771 17.8947C30.1891 17.6409 29.855 17.4492 29.5483 17.3378C28.8327 17.0804 28.0587 17.3671 27.6224 17.9806C27.1861 18.5959 27.1916 19.3883 27.6863 20.0785C28.9587 21.8514 30.2475 23.6115 31.5309 25.3771C32.0347 26.0709 32.5404 26.7611 33.0752 27.4915C34.0355 26.8305 34.9446 26.2006 35.9285 25.5195ZM86.9794 27.4988C88.7776 25.0211 90.5374 22.6201 92.2625 20.1935C92.4706 19.9014 92.5692 19.4778 92.582 19.1108C92.6094 18.3822 92.0982 17.7505 91.4082 17.5223C90.6561 17.2739 89.9185 17.5241 89.3818 18.2599C87.8794 20.3177 86.3916 22.3845 84.8983 24.4478C84.6501 24.791 84.4018 25.1361 84.128 25.5177C85.0973 26.1896 86.0064 26.8214 86.9794 27.4988ZM82.7588 27.4129C82.0615 28.377 81.4024 29.2918 80.7179 30.2394C81.6872 30.9095 82.5963 31.5394 83.5602 32.2058C84.2557 31.2491 84.9166 30.3398 85.6103 29.3867C84.6537 28.7257 83.7428 28.094 82.7588 27.4129ZM40.7023 32.1346C39.7256 32.812 38.8184 33.4419 37.8673 34.1011C38.5664 35.0633 39.2382 35.9872 39.9228 36.9275C40.9086 36.2428 41.8122 35.6129 42.7487 34.9611C42.0495 33.9952 41.4015 33.0987 40.7023 32.1346ZM80.1209 36.9275C80.8292 35.9507 81.4919 35.0396 82.1728 34.0993C81.2108 33.4292 80.3017 32.7956 79.3451 32.131C78.6514 33.0841 77.9905 33.9934 77.2877 34.9592C78.2425 35.622 79.1479 36.2519 80.1209 36.9275ZM39.335 30.2394C38.6267 29.2589 37.9658 28.346 37.2922 27.4129C36.3119 28.094 35.3864 28.7367 34.4462 29.3922C35.1545 30.3635 35.8172 31.2728 36.4999 32.2095C37.4748 31.5321 38.3656 30.9131 39.335 30.2394ZM49.5926 44.4081C48.8734 43.4166 48.2144 42.5092 47.5407 41.5798C46.5659 42.2535 45.6714 42.8725 44.7221 43.5298C45.4176 44.4866 46.0931 45.4141 46.7813 46.3617C47.7397 45.6971 48.6306 45.0782 49.5926 44.4081ZM73.2624 46.3617C73.9744 45.3794 74.637 44.4683 75.3198 43.528C74.3431 42.8543 73.4377 42.228 72.4975 41.5798C71.7892 42.5585 71.1302 43.4696 70.4511 44.4099C71.4186 45.0818 72.3095 45.7008 73.2624 46.3617ZM41.2901 38.8191C42.0057 39.7959 42.6702 40.7034 43.3548 41.6364C44.3296 40.9608 45.2314 40.3346 46.1661 39.6846C45.4542 38.7004 44.7951 37.7875 44.1197 36.8545C43.1613 37.5209 42.2522 38.1508 41.2901 38.8191ZM76.6944 41.6401C77.4045 40.6632 78.0563 39.7667 78.75 38.8136C77.8062 38.1618 76.8824 37.5209 75.9186 36.8545C75.2322 37.8021 74.5713 38.7169 73.8721 39.6846C74.8178 40.34 75.7232 40.9681 76.6944 41.6401Z" fill="black"/>
</svg>
