<svg width="120" height="100" viewBox="0 0 120 100" fill="none" xmlns="http://www.w3.org/2000/svg">
<rect width="120" height="100" fill="white"/>
<path d="M20.7417 33.5787C20.7485 32.6832 21.4572 31.9587 22.3435 31.9427C23.2504 31.9245 24.0205 32.6923 24.016 33.6038C24.0114 34.5266 23.2527 35.2512 22.3185 35.2238C21.4116 35.1965 20.7349 34.4924 20.7417 33.5787Z" fill="black"/>
<path d="M16 25.9524C16.2803 24.3962 16.4899 22.8217 16.859 21.2859C17.497 18.6337 18.2444 18.3785 20.4842 19.9142C20.9468 20.2309 21.3956 20.5682 21.9949 21.0011C21.9949 20.256 21.979 19.6476 21.9995 19.0392C22.0245 18.2326 22.405 17.647 23.2253 17.5286C30.1886 16.526 37.0129 16.706 43.3587 20.2309C46.0201 21.7097 48.146 23.8858 50.224 26.0618C52.6758 28.632 55.0341 31.2911 57.3719 33.9638C58.0988 34.7932 58.8028 35.0211 59.8738 34.7477C62.9795 33.957 66.0943 33.18 69.2387 32.5603C74.3928 31.5417 79.3555 32.043 83.965 34.8001C84.202 34.9414 84.6167 34.9095 84.9084 34.8251C87.1528 34.1712 89.4199 33.6608 91.7782 33.736C96.8002 33.8955 100.065 36.5523 101.28 41.433C101.927 44.0328 101.963 46.6737 101.713 49.31C101.442 52.1833 101.875 54.9153 103.025 57.5402C103.301 58.1713 103.501 58.7638 103.043 59.3812C102.585 59.9987 101.943 59.9896 101.268 59.8985C97.06 59.3288 94.369 56.9455 93.2912 52.8987C92.5621 50.1644 92.1246 47.3504 91.5641 44.5706C91.1699 42.6087 90.2972 40.934 88.6748 39.7058C88.4948 39.5691 88.3034 39.4438 88.1097 39.3253C88.0437 39.2843 87.9525 39.2843 87.8614 39.2638C88.0163 40.2231 88.2396 41.1596 88.3034 42.1074C88.447 44.206 87.9662 46.2271 87.3601 48.2185C86.9135 49.6837 86.4737 51.1511 86.0157 52.6139C85.8061 53.2861 85.9451 53.7851 86.5193 54.2476C88.5974 55.9247 90.664 57.6199 92.6851 59.363C93.0998 59.7207 93.4735 60.2881 93.5783 60.8167C94.574 65.8273 95.5014 70.8515 96.4607 75.8712C96.602 76.614 96.5017 77.2406 95.9799 77.8422C95.0685 78.8949 94.5011 80.1094 94.4373 81.5426C94.3963 82.4517 93.87 82.9644 92.9608 82.9758C90.7438 83.0054 88.5267 83.0122 86.3097 82.9712C85.1727 82.9484 84.6691 82.1395 84.9426 80.8408C85.4347 78.5007 86.5603 76.5388 88.5586 75.1671C89.0349 74.839 89.0873 74.5907 88.8731 74.0712C87.7748 71.4235 86.7426 68.7507 85.6329 66.1098C85.4848 65.7567 85.0815 65.4286 84.717 65.2691C83.9423 64.9295 83.1129 64.7062 82.1148 64.3713C82.0579 65.007 81.9052 65.6086 81.9713 66.1873C82.3313 69.3477 82.7597 72.4989 83.122 75.6593C83.1675 76.0489 83.0468 76.5183 82.8508 76.8647C82.1012 78.1908 81.7708 79.5967 81.8164 81.1096C81.8596 82.4768 81.3743 82.9803 80.0186 82.9872C77.8585 82.9986 75.6984 83.0008 73.5383 82.9849C72.137 82.9758 71.6129 82.2831 71.8773 80.8886C72.2965 78.6807 73.4495 76.892 75.0422 75.3654C75.3885 75.0327 75.5093 74.7638 75.3862 74.2694C74.8622 72.1777 74.4042 70.07 73.8915 67.9737C73.8277 67.7094 73.6363 67.3494 73.4176 67.2674C69.7901 65.8979 67.4272 63.1614 65.454 59.9919C65.3947 59.8962 65.3423 59.7937 65.2831 59.698C64.8798 59.0281 64.6223 58.0756 64.0299 57.7657C63.4625 57.4695 62.5465 57.9138 61.7855 57.907C59.0922 57.8774 56.3967 57.7931 53.7034 57.7293C53.5644 57.727 53.4254 57.7111 53.168 57.6951C53.0768 58.807 52.9788 59.8985 52.9014 60.9922C52.5391 66.0369 52.1882 71.0817 51.819 76.1264C51.7757 76.7188 51.6709 77.3067 51.5684 77.8923C51.3975 78.8584 51.5114 79.763 52.1221 80.5582C52.5186 81.0777 52.6507 81.6223 52.3386 82.2239C52.0218 82.8322 51.4773 82.9917 50.837 82.9917C48.1073 82.9872 45.3798 82.9895 42.6501 82.9895C40.7179 82.9895 38.7834 82.9986 36.8512 82.9849C35.7483 82.9758 35.0989 82.4927 35.1605 81.415C35.222 80.344 35.4248 79.1797 35.9352 78.2637C36.5709 77.1222 37.594 76.1993 38.4325 75.1671C38.633 74.9188 38.8882 74.618 38.9019 74.3286C39.1229 69.8672 39.214 65.4103 38.1864 61.015C37.8514 59.584 37.2271 58.4561 35.8714 57.6359C33.2647 56.0614 32.0935 53.5162 31.8839 50.5723C31.738 48.5102 31.8041 46.4299 31.8474 44.3587C31.8907 42.2738 31.3849 40.3689 30.2251 38.6417C30.0679 38.4093 29.8924 38.1906 29.6532 37.867C28.6939 39.298 28.3908 40.8132 28.7281 42.3626C28.9992 43.6113 28.621 44.427 27.689 45.1744C25.5814 46.8605 23.2139 47.4233 20.5731 46.938C19.8713 46.8104 19.4908 46.3706 19.272 45.7372C17.8798 41.7041 16.8636 37.5777 16.3395 33.335C16.2324 32.4646 16.1139 31.5964 16 30.7283C16 29.1356 16 27.5451 16 25.9524ZM19.3199 22.6644C19.1695 24.4235 18.9416 26.0185 18.9097 27.6158C18.8095 32.6924 19.8098 37.6073 21.2453 42.4492C21.8286 44.4202 22.184 44.6139 24.1527 43.9143C24.5765 43.764 25.0163 43.5817 25.3581 43.3037C25.5882 43.1146 25.7978 42.7181 25.775 42.4333C25.5882 40.2048 25.9938 38.1291 27.2402 36.2538C28.1675 34.857 28.245 33.474 27.3427 32.0293C26.8551 31.2501 27.0374 30.4571 27.7209 30.0083C28.4136 29.5525 29.2544 29.7485 29.7853 30.5301C30.5418 31.6443 30.8654 32.8838 30.8768 34.2304C30.879 34.6041 31.0408 35.0598 31.2892 35.3378C33.7477 38.0744 34.9303 41.2393 34.6979 44.9351C34.609 46.3524 34.5976 47.7765 34.6273 49.1961C34.6865 52.0374 35.6025 54.3957 38.2935 55.8426C38.9474 56.1935 39.5102 56.8999 39.8702 57.5721C40.3875 58.5359 40.7999 59.5909 41.0483 60.6572C42.0668 65.0161 41.9642 69.4479 41.8594 73.8889C41.823 75.4565 41.422 76.63 40.1186 77.5961C39.3234 78.1862 38.7925 79.1296 38.0064 80.0774C39.4031 80.0774 40.4672 80.0774 41.5496 80.0774C41.6931 78.6966 42.1397 77.5027 43.0306 76.4705C43.279 76.1834 43.4499 75.7413 43.4704 75.3585C43.6025 72.8886 43.6709 70.4163 43.7848 67.9464C43.8258 67.0646 44.3704 66.5405 45.1656 66.5223C45.929 66.5063 46.5032 67.003 46.6148 67.7937C46.6421 67.9897 46.633 68.1902 46.6262 68.3884C46.5373 71.0019 46.428 73.6154 46.3664 76.229C46.3482 77.0538 46.1386 77.7009 45.4322 78.2045C44.8193 78.642 44.4957 79.2845 44.5071 80.1321C45.275 80.1321 45.9563 80.1321 46.6353 80.1321C47.328 80.1321 48.0184 80.1321 48.6177 80.1321C49.1896 72.4055 49.7501 64.8316 50.3129 57.2531C49.1622 57.0115 48.1437 56.7996 47.0774 56.5763C47.0568 56.8953 47.0341 57.146 47.0249 57.3966C46.9475 59.4405 46.8928 61.4866 46.7857 63.5305C46.7333 64.5262 46.15 65.064 45.2955 65.0344C44.4456 65.0047 43.9307 64.4055 43.9398 63.4166C43.9466 62.5348 43.9717 61.6553 44.0013 60.7734C44.0674 58.8139 44.1175 56.852 44.22 54.8947C44.2907 53.5367 45.0335 53.0309 46.3368 53.3727C46.7492 53.4798 47.1594 53.5937 47.5741 53.6917C53.2614 55.0337 58.992 55.731 64.7955 54.5803C66.4087 54.2613 67.9672 53.6529 69.307 53.2496C68.8627 50.9847 68.4298 48.9933 68.0971 46.9881C67.9217 45.9377 68.5027 45.2268 69.4005 45.163C70.2823 45.0992 70.8679 45.6688 70.943 46.6987C71.1777 49.9343 72.235 52.8532 74.3153 55.3641C77.5008 59.2104 81.7229 61.3773 86.4213 62.7353C87.2143 62.9654 87.6882 63.371 87.9867 64.1229C89.3219 67.4998 90.6891 70.8652 92.0448 74.2352C92.7056 75.8758 92.5575 76.2654 90.999 77.0515C89.7184 77.6963 88.7865 78.6579 88.2077 80.0774C89.4473 80.0774 90.5638 80.0774 91.5139 80.0774C92.1178 78.8858 92.6851 77.8126 93.2001 76.7143C93.3641 76.3634 93.5077 75.9191 93.4416 75.5568C92.6327 71.1159 91.7988 66.6795 90.9238 62.2522C90.8349 61.8079 90.5182 61.3294 90.1696 61.0264C88.3855 59.4861 86.5968 57.9412 84.7284 56.5057C83.0946 55.2525 82.746 53.6985 83.2518 51.8232C83.3635 51.4131 83.4683 51.0007 83.5891 50.5905C84.12 48.795 84.7511 47.0223 85.1658 45.2017C86.1593 40.8542 84.7694 38.1086 80.8183 36.3746C76.8491 34.6315 72.7613 34.6611 68.6212 35.5839C65.3811 36.3062 62.166 37.1516 58.9099 37.7804C55.4761 38.4435 52.1335 38.0584 48.9549 36.4725C46.0064 35.0006 43.9466 32.4965 41.6384 30.2817C41.0938 29.7576 41.169 28.9715 41.6566 28.4224C42.1329 27.8824 42.9873 27.7639 43.5843 28.2469C44.2223 28.7642 44.7714 29.3885 45.3889 29.9331C46.6854 31.0769 47.9341 32.2891 49.3263 33.3031C50.796 34.374 52.514 34.9277 54.4326 34.9436C51.6778 31.8653 48.9093 28.8211 45.9631 25.9592C44.514 24.5511 42.8688 23.2204 41.0824 22.2999C35.999 19.6795 30.5076 19.6066 24.9251 20.1512C24.9251 21.1082 24.9251 21.9786 24.9251 22.8422C25.0163 22.8581 25.071 22.8786 25.1257 22.8764C25.21 22.8718 25.2965 22.8581 25.3763 22.8331C30.6375 21.3292 35.4225 22.5505 39.9204 25.3805C40.7726 25.916 41.0027 26.7659 40.5379 27.4813C40.0867 28.1786 39.2938 28.3153 38.4416 27.8413C37.7717 27.4677 37.1246 27.0507 36.4342 26.7226C32.3852 24.7926 28.2974 24.3483 24.1459 26.4355C23.2914 26.8638 22.5509 26.5859 22.1088 25.6767C21.5096 24.4736 20.6118 23.5668 19.3199 22.6644ZM78.6879 80.098C79.196 78.6009 79.6654 77.2429 80.1097 75.8758C80.1849 75.6456 80.1758 75.3722 80.1462 75.1261C79.8887 72.982 79.5856 70.8447 79.3646 68.6983C79.2028 67.1101 78.6241 65.5106 79.3282 63.9179C79.5902 63.3277 79.4125 63.0338 78.8497 62.7262C76.0015 61.1654 73.5224 59.1557 71.5719 56.533C71.3395 56.2209 71.1071 55.9064 70.9066 55.6353C69.6101 56.132 68.3956 56.5946 67.1264 57.0799C68.464 59.6114 70.0271 61.9287 72.4332 63.5351C73.1532 64.0158 73.9735 64.4191 74.8075 64.6424C75.8306 64.9159 76.3159 65.4764 76.5324 66.4813C77.1088 69.1426 77.7127 71.8017 78.3939 74.438C78.6924 75.591 78.4623 76.3725 77.4757 77.0697C76.4367 77.8034 75.6939 78.8311 75.1219 80.0934C76.4617 80.098 77.6443 80.098 78.6879 80.098ZM99.4638 56.4146C99.3886 56.034 99.318 55.7971 99.2952 55.5533C99.1152 53.6689 98.8714 51.7868 98.7939 49.9001C98.7279 48.2322 99.0013 46.5438 98.8464 44.8896C98.7028 43.3584 98.3679 41.7953 97.8073 40.3666C96.4858 36.9943 92.7011 36.0533 89.5931 36.8576C92.6441 38.7602 94.0545 41.6221 94.5786 45.024C94.7518 46.1451 94.8748 47.2798 95.1574 48.3735C95.6381 50.2305 96.1417 52.0921 96.8025 53.8899C97.2286 55.0429 98.1445 55.8791 99.4638 56.4146Z" fill="black"/>
<path d="M45.5 62.5L45 69.5" stroke="black" stroke-width="2.8"/>
<path d="M34.5 24.5C36.5 25 41.6 27.3 46 32.5" stroke="black" stroke-width="2.8"/>
</svg>
