<svg width="120" height="100" viewBox="0 0 120 100" fill="none" xmlns="http://www.w3.org/2000/svg">
<rect width="120" height="100" fill="white"/>
<path d="M21.002 72.5922C21.3867 72.0102 21.9178 71.7802 22.6179 71.8331C23.2203 71.8779 23.8288 71.8433 24.5553 71.8433C24.5553 71.477 24.5553 71.1595 24.5553 70.844C24.5553 57.4409 24.5553 44.0358 24.5553 30.6327C24.5553 30.3783 24.5472 30.1239 24.5573 29.8715C24.598 28.9232 24.9745 28.5548 25.9392 28.5528C29.2136 28.5467 32.4881 28.5508 35.7626 28.5508C38.2494 28.5508 40.7363 28.5508 43.3148 28.5508C43.329 28.2455 43.3535 27.9789 43.3535 27.7123C43.3575 25.6304 43.3514 23.5485 43.3575 21.4666C43.3616 20.3554 43.7035 20.0034 44.8085 20.0034C54.9392 19.9993 65.0679 19.9993 75.1986 20.0013C76.3443 20.0013 76.7045 20.3615 76.7086 21.5032C76.7168 23.811 76.7107 26.1188 76.7107 28.5487C77.0566 28.5487 77.3476 28.5487 77.6407 28.5487C83.0479 28.5487 88.4552 28.5487 93.8624 28.5487C95.1527 28.5487 95.4844 28.8764 95.4844 30.1605C95.4844 43.7163 95.4844 57.272 95.4844 70.8278C95.4844 71.129 95.4844 71.4302 95.4844 71.8412C96.2272 71.8412 96.9273 71.8311 97.6253 71.8433C98.5513 71.8596 98.9847 72.2788 98.9908 73.1926C99.0031 74.9183 99.0031 76.6461 98.9908 78.3719C98.9827 79.3222 98.5289 79.7618 97.5907 79.7862C97.4381 79.7903 97.2854 79.7883 97.1328 79.7883C72.3556 79.7883 47.5803 79.7863 22.8031 79.7944C22.0603 79.7944 21.3684 79.7781 21 78.9885C21.002 76.8577 21.002 74.725 21.002 72.5922ZM50.8467 71.7985C50.8467 71.4871 50.8467 71.2144 50.8467 70.9417C50.8487 65.561 50.808 60.1781 50.8629 54.7973C50.9179 49.3474 56.1257 45.153 61.4719 46.1747C66.0162 47.0436 68.9936 50.6091 69.0058 55.2451C69.02 60.4488 69.0099 65.6525 69.0099 70.8563C69.0099 71.1554 69.0099 71.4525 69.0099 71.7863C70.8435 71.7863 72.6018 71.7863 74.3744 71.7863C74.3744 55.2736 74.3744 38.8137 74.3744 22.3336C64.7667 22.3336 55.2099 22.3336 45.6409 22.3336C45.6409 38.8422 45.6409 55.3 45.6409 71.7985C47.3972 71.7985 49.0822 71.7985 50.8467 71.7985ZM93.1277 30.8769C87.631 30.8769 82.2115 30.8769 76.7514 30.8769C76.7514 44.5303 76.7514 58.141 76.7514 71.7782C82.2258 71.7782 87.6615 71.7782 93.1277 71.7782C93.1277 58.1329 93.1277 44.5425 93.1277 30.8769ZM26.8244 30.8748C26.8244 44.5568 26.8244 58.1695 26.8244 71.7924C32.3253 71.7924 37.7712 71.7924 43.2598 71.7924C43.2598 58.141 43.2598 44.5283 43.2598 30.8748C37.7692 30.8748 32.3233 30.8748 26.8244 30.8748ZM66.8547 71.7944C66.8771 71.6601 66.9076 71.5624 66.9076 71.4668C66.9035 65.8845 66.9687 60.2982 66.8628 54.718C66.7957 51.0935 63.7247 48.2667 60.1043 48.2281C56.2661 48.1874 53.185 51.2502 53.1646 55.1983C53.1382 60.5526 53.1565 65.909 53.1585 71.2633C53.1585 71.4342 53.185 71.6031 53.2013 71.7965C57.7782 71.7944 62.3083 71.7944 66.8547 71.7944ZM96.6708 74.1775C72.1866 74.1775 47.7533 74.1775 23.2915 74.1775C23.2915 75.309 23.2915 76.3897 23.2915 77.5212C47.7615 77.5212 72.1968 77.5212 96.6708 77.5212C96.6708 76.408 96.6708 75.3253 96.6708 74.1775Z" fill="black"/>
<path d="M63.6677 36.7074C63.6677 37.9855 63.6718 39.1699 63.6657 40.3563C63.6596 41.4105 63.2974 41.7829 62.2534 41.7911C60.7311 41.8013 59.2089 41.8013 57.6846 41.7911C56.6914 41.7829 56.2987 41.3963 56.2844 40.4093C56.2681 39.2187 56.2804 38.0302 56.2804 36.7095C55.3239 36.7095 54.4223 36.7095 53.5187 36.7095C53.1138 36.7095 52.7047 36.7257 52.3018 36.6952C51.5752 36.6423 51.1763 36.2536 51.1662 35.5291C51.1458 33.8298 51.1458 32.1285 51.1662 30.4292C51.1763 29.6233 51.62 29.2264 52.4992 29.2122C53.7141 29.1939 54.9311 29.2081 56.2783 29.2081C56.2783 28.3106 56.2783 27.462 56.2783 26.6113C56.2783 26.2043 56.2641 25.7993 56.2844 25.3943C56.3231 24.6434 56.667 24.2771 57.4302 24.2669C59.1051 24.2425 60.78 24.2425 62.4548 24.2628C63.279 24.273 63.6515 24.6719 63.6596 25.4961C63.6718 26.707 63.6637 27.9179 63.6637 29.2081C64.8847 29.2081 66.0203 29.204 67.1559 29.2081C68.3851 29.2122 68.7331 29.5622 68.7372 30.7996C68.7433 32.2974 68.7473 33.7932 68.7351 35.291C68.727 36.3452 68.3688 36.6952 67.3024 36.7074C66.12 36.7176 64.9315 36.7074 63.6677 36.7074ZM61.4332 26.5808C60.3994 26.5808 59.4958 26.5808 58.5006 26.5808C58.5006 27.8324 58.5108 29.0433 58.4986 30.2521C58.4884 31.1883 58.0896 31.577 57.1493 31.6014C56.8461 31.6095 56.5409 31.6034 56.2356 31.6034C55.2852 31.6034 54.3368 31.6034 53.4027 31.6034C53.4027 32.6556 53.4027 33.5775 53.4027 34.5604C54.6279 34.5604 55.7919 34.5563 56.956 34.5624C58.1567 34.5685 58.4966 34.9064 58.5006 36.0969C58.5047 37.2284 58.5006 38.3599 58.5006 39.4894C59.5324 39.4894 60.4584 39.4894 61.4332 39.4894C61.4332 38.2724 61.423 37.1083 61.4352 35.9422C61.4475 34.8433 61.8097 34.4953 62.9107 34.4912C64.0687 34.4871 65.2266 34.4912 66.3907 34.4912C66.3907 33.4431 66.3907 32.4989 66.3907 31.5749C66.2788 31.5363 66.232 31.5057 66.1852 31.5057C65.1452 31.4996 64.1073 31.4935 63.0674 31.4915C61.7202 31.4874 61.4373 31.1984 61.4332 29.8207C61.4312 28.7604 61.4332 27.7021 61.4332 26.5808Z" fill="black"/>
<path d="M79.4926 60.0804C79.4926 58.5846 79.4845 57.0888 79.4967 55.5951C79.5028 54.6874 79.8895 54.2845 80.7849 54.2804C83.4204 54.2682 86.0579 54.2682 88.6933 54.2804C89.5887 54.2845 89.9958 54.6895 89.9978 55.5869C90.01 58.5521 90.012 61.5172 89.9958 64.4844C89.9917 65.4225 89.5175 65.8682 88.5732 65.8702C86.0131 65.8784 83.4529 65.8784 80.8928 65.8702C79.8997 65.8662 79.5008 65.4693 79.4947 64.4925C79.4865 63.0211 79.4926 61.5497 79.4926 60.0804ZM87.688 56.6167C85.663 56.6167 83.7012 56.6167 81.717 56.6167C81.717 58.9672 81.717 61.2608 81.717 63.5665C83.7317 63.5665 85.6956 63.5665 87.688 63.5665C87.688 61.2404 87.688 58.9652 87.688 56.6167Z" fill="black"/>
<path d="M90.0018 42.5848C90.0018 44.0053 90.0079 45.4278 89.9998 46.8483C89.9937 48.0083 89.605 48.397 88.4409 48.3991C85.954 48.4032 83.4651 48.4032 80.9782 48.3991C79.8406 48.397 79.4926 48.0409 79.4926 46.889C79.4906 44.046 79.4885 41.203 79.4926 38.36C79.4946 37.2163 79.8508 36.852 80.9904 36.8479C83.5038 36.8418 86.0171 36.8398 88.5284 36.8479C89.6091 36.852 89.9937 37.2447 89.9998 38.3193C90.0079 39.7418 90.0018 41.1623 90.0018 42.5848ZM81.7109 39.1537C81.7109 41.5429 81.7109 43.8405 81.7109 46.1829C83.7175 46.1829 85.6793 46.1829 87.6655 46.1829C87.6655 43.8222 87.6655 41.5042 87.6655 39.1537C85.6691 39.1537 83.7256 39.1537 81.7109 39.1537Z" fill="black"/>
<path d="M40.5064 60.0682C40.5064 61.5132 40.5125 62.9581 40.5043 64.403C40.4982 65.4633 40.0932 65.8662 39.0248 65.8683C36.5155 65.8744 34.0042 65.8744 31.495 65.8683C30.3777 65.8662 29.9992 65.4796 29.9992 64.348C29.9951 61.4826 29.9951 58.6172 29.9992 55.7538C30.0012 54.6549 30.3675 54.2804 31.4441 54.2764C34.0042 54.2703 36.5664 54.2682 39.1266 54.2764C40.1238 54.2804 40.5003 54.663 40.5064 55.6562C40.5125 57.1275 40.5064 58.5989 40.5064 60.0682ZM32.2541 56.5964C32.2541 58.9449 32.2541 61.2567 32.2541 63.5544C34.2749 63.5544 36.2347 63.5544 38.1701 63.5544C38.1701 61.1977 38.1701 58.9042 38.1701 56.5964C36.1736 56.5964 34.2301 56.5964 32.2541 56.5964Z" fill="black"/>
<path d="M40.5064 42.6579C40.5064 44.1028 40.5145 45.5478 40.5043 46.9906C40.4982 47.9777 40.0993 48.3908 39.1347 48.3949C36.5501 48.403 33.9656 48.405 31.379 48.3949C30.396 48.3908 30.0033 47.9919 30.0012 47.0029C29.9931 44.0886 29.9931 41.1744 30.0012 38.2601C30.0033 37.269 30.3981 36.8559 31.3749 36.8498C33.9595 36.8355 36.544 36.8376 39.1306 36.8498C40.1197 36.8538 40.5003 37.2568 40.5064 38.2479C40.5125 39.7172 40.5064 41.1886 40.5064 42.6579ZM38.1762 46.2071C38.1762 43.824 38.1762 41.5081 38.1762 39.182C36.1716 39.182 34.2159 39.182 32.2622 39.182C32.2622 41.561 32.2622 43.8749 32.2622 46.2071C34.2505 46.2071 36.1716 46.2071 38.1762 46.2071Z" fill="black"/>
</svg>
