<svg width="120" height="100" viewBox="0 0 120 100" fill="none" xmlns="http://www.w3.org/2000/svg">
<rect width="120" height="100" fill="white"/>
<path d="M50.5713 87.9973C49.8981 87.6333 49.6085 87.06 49.4813 86.3046C48.8003 82.2167 48.0684 78.1385 47.3698 74.0525C47.1036 72.5046 47.6574 71.8843 49.2562 71.8843C49.6202 71.8843 49.9861 71.8843 50.4401 71.8843C50.1642 70.898 49.9079 69.9685 49.6456 69.0429C49.2719 67.7298 48.9216 66.4109 48.4989 65.1154C48.3932 64.7925 48.1056 64.4461 47.8062 64.2837C39.961 60.0451 34.8966 53.6382 33.4406 44.8185C31.6364 33.8756 35.4014 24.9287 44.2133 18.2341C49.2875 14.3791 55.1602 12.7764 61.5181 13.0249C74.0931 13.5161 84.901 22.9796 87.0692 35.3648C89.1201 47.0885 83.4823 58.5676 72.915 64.1193C72.3182 64.4324 72.011 64.8179 71.8427 65.4539C71.2771 67.5693 70.6587 69.671 70.0306 71.8823C70.5668 71.8823 71.0423 71.8764 71.5159 71.8823C72.7291 71.898 73.3319 72.5457 73.1381 73.757C72.7037 76.4771 72.2203 79.1893 71.7526 81.9035C71.5002 83.3693 71.2086 84.8291 70.9973 86.2987C70.8877 87.06 70.5805 87.6275 69.9073 87.9914C63.4613 87.9973 57.0153 87.9973 50.5713 87.9973ZM58.7295 64.3346C58.7295 48.1061 58.7295 32.1124 58.7295 16.0777C56.7276 16.4651 55.0878 17.4279 53.6494 18.7586C50.9685 21.2419 49.2895 24.3592 48.0899 27.7525C46.2739 32.8952 45.7612 38.2081 46.2172 43.617C46.5949 48.1022 47.6555 52.4152 49.81 56.4072C51.2425 59.0608 53.0115 61.4423 55.6709 62.9882C56.6004 63.5264 57.6435 63.863 58.7295 64.3346ZM61.7334 16.0757C61.7334 32.1476 61.7334 48.1257 61.7334 64.1604C63.4593 63.8806 64.8957 63.092 66.197 62.0372C68.3633 60.2819 69.9543 58.0608 71.0893 55.5481C75.3024 46.2294 75.4649 36.7248 72.1362 27.1321C71.0129 23.8954 69.285 20.9855 66.7078 18.6529C65.2969 17.3751 63.6942 16.4416 61.7334 16.0757ZM70.4454 18.2224C75.5451 24.7643 77.3278 32.2318 77.318 40.1866C77.3083 48.1257 75.5079 55.5775 70.4122 62.0744C78.1771 58.6009 84.9499 50.1452 84.5546 39.212C84.173 28.6761 77.1889 21.1597 70.4454 18.2224ZM50.0253 18.2302C42.9863 21.2752 35.3271 29.5782 35.9415 41.4703C36.1725 45.93 37.5814 50.018 40.1097 53.7048C42.6243 57.3739 45.9021 60.1429 50.1075 62.1233C40.8651 51.1256 40.8827 29.1438 50.0253 18.2302ZM50.4852 74.8451C51.0742 78.2637 51.6573 81.6374 52.2405 85.015C57.6082 85.015 62.9114 85.015 68.24 85.015C68.8271 81.6022 69.4044 78.2344 69.9875 74.8451C63.43 74.8451 56.9977 74.8451 50.4852 74.8451ZM58.755 67.3697C56.4184 66.9412 54.1641 66.5283 51.8491 66.1036C52.4029 68.0351 52.9548 69.9587 53.4909 71.8256C55.3148 71.8256 57.031 71.8256 58.755 71.8256C58.755 70.2855 58.755 68.8022 58.755 67.3697ZM68.6236 66.1075C66.2616 66.538 64.0034 66.951 61.7432 67.3639C61.7432 68.8237 61.7432 70.3227 61.7432 71.853C63.5044 71.853 65.2245 71.853 66.9817 71.853C67.5336 69.9254 68.0796 68.0175 68.6236 66.1075Z" fill="black"/>
</svg>
