<svg width="120" height="100" viewBox="0 0 120 100" fill="none" xmlns="http://www.w3.org/2000/svg">
<rect width="120" height="100" fill="white"/>
<path d="M25 32.6688C25.3271 31.1644 25.5064 29.6072 26.017 28.1682C26.8716 25.7606 28.7031 24.3237 31.1971 23.792C31.6571 23.6949 31.8428 23.4924 32.0158 23.0957C33.2839 20.1628 35.5585 18.7111 38.7193 18.538C39.1856 18.5127 39.6941 18.3545 40.0908 18.1097C44.0091 15.6895 48.0561 15.2654 52.2551 17.2868C53.8692 18.0633 55.1838 19.2597 56.2873 20.6523C57.3972 22.0533 58.5324 23.4586 59.446 24.9863C65.1177 34.4876 72.7855 42.1597 81.3036 49.0657C84.4518 51.6189 87.6252 54.1424 90.7143 56.7652C92.9235 58.641 94.7887 60.8227 95.5378 63.7282C96.2046 66.3109 96.1792 68.8893 95.2698 71.4171C94.7803 72.7781 93.9321 73.8732 92.5774 74.4661C92.0964 74.6771 92.1892 75.0147 92.185 75.3692C92.147 79.7538 88.2857 83.3999 83.9665 82.961C82.3924 82.8007 80.8626 82.2098 79.3033 81.8596C79.0016 81.7921 78.5543 81.8237 78.3412 82.0052C76.0919 83.9316 73.467 84.5161 70.6037 84.2038C66.5715 83.7649 62.9634 82.1191 59.5198 80.0977C52.158 75.7722 45.9187 70.111 40.3356 63.7029C35.4699 58.1219 31.2731 52.0894 28.2832 45.2783C26.5277 41.2777 25.3123 37.1315 25.2089 32.7195C25.1393 32.7026 25.0696 32.6857 25 32.6688ZM71.8634 81.7667C71.8845 81.8322 71.9056 81.8954 71.9246 81.9609C73.0999 81.6254 74.3427 81.4355 75.4357 80.9249C79.4025 79.0786 78.9383 73.5377 76.1446 71.8961C75.3281 71.4171 74.5537 70.8685 73.7287 70.4043C69.1225 67.8195 64.8666 64.7621 60.9525 61.2047C55.2808 56.0499 50.4932 50.1925 46.5158 43.643C44.0176 39.5306 41.4729 35.4393 38.7868 31.4492C37.6706 29.7908 36.1767 28.3728 34.7609 26.938C33.9844 26.1531 32.9252 25.9991 31.8132 26.2185C29.7771 26.6215 28.5912 27.8939 28.0659 29.8308C27.551 31.7256 27.6987 33.6436 27.9857 35.5511C28.6989 40.3028 30.5282 44.6537 32.8682 48.7978C37.7128 57.3708 44.0788 64.6862 51.5081 71.1006C55.3842 74.4471 59.5283 77.4159 64.1724 79.6209C66.6095 80.7771 69.1288 81.6655 71.8634 81.7667ZM43.2221 19.3335C45.5895 20.4603 47.1172 22.182 48.4486 24.1043C49.1512 25.1213 49.8349 26.1531 50.4805 27.206C53.0716 31.4239 55.7471 35.5827 58.9143 39.3998C63.5183 44.9491 68.7807 49.8486 74.1317 54.6446C78.2863 58.3667 82.6118 61.8967 86.8403 65.5365C88.9208 67.3279 90.9232 69.1995 91.8917 72.0121C92.3432 71.4319 92.818 70.8495 93.0058 70.187C93.8202 67.3026 93.624 64.5026 91.974 61.9199C90.7797 60.0526 89.1149 58.6283 87.4248 57.2399C83.6626 54.1509 79.833 51.1399 76.132 47.9791C70.1923 42.9045 64.6619 37.4332 60.3259 30.8626C58.6442 28.3159 56.9393 25.7838 55.1795 23.2919C54.1266 21.8001 52.8712 20.4708 51.2169 19.6226C48.6786 18.3186 46.0769 18.1772 43.2221 19.3335ZM80.1811 79.5618C81.3965 79.8593 82.5021 80.1927 83.6331 80.3952C86.6947 80.9438 89.5939 78.4582 89.6698 75.3523C89.7395 72.4447 88.4123 70.2545 86.3065 68.442C83.9728 66.4354 81.6075 64.4646 79.2527 62.4833C79.1662 62.4116 79.048 62.3778 78.7189 62.2153C78.6324 64.7558 78.4889 67.138 78.5121 69.5181C78.5184 70.1617 79.0058 70.8073 79.3076 71.4361C79.6473 72.143 80.1326 72.795 80.3647 73.5314C80.9808 75.4852 81.0357 77.4623 80.1811 79.5618ZM34.4845 23.7582C35.3412 24.3279 36.1514 24.7753 36.852 25.3534C37.5778 25.9505 38.2425 26.6384 38.8565 27.3537C39.6076 28.2293 40.2533 29.1957 41.0002 30.0756C41.2155 30.3288 41.6332 30.5609 41.9476 30.5504C42.8613 30.5166 43.7707 30.3457 44.6843 30.2423C46.1297 30.0819 47.575 29.9342 49.2842 29.7549C47.6974 27.5752 46.2837 25.4272 44.6569 23.4544C43.0976 21.5638 40.8968 20.9329 38.4893 21.0996C36.6515 21.2262 35.2652 22.0892 34.4845 23.7582ZM60.3512 57.1112C60.8386 55.7967 61.3176 54.575 61.7459 53.3364C62.1574 52.1464 62.6258 50.9626 62.8727 49.7367C63.3875 47.1942 61.5412 45.312 59.0177 45.8691C56.7599 46.367 54.5529 47.1013 52.2762 47.7449C54.6141 51.1905 57.3824 54.1994 60.3512 57.1112ZM65.5735 50.1693C64.8329 52.178 64.0711 54.1509 63.3833 56.1491C63.1048 56.9593 62.8853 57.816 62.8199 58.6663C62.7376 59.7424 63.5753 60.5294 64.6514 60.4619C65.2422 60.4239 65.8604 60.2889 66.3985 60.0463C68.5655 59.063 70.7071 58.0206 72.8678 56.9952C70.4328 54.7121 67.9683 52.408 65.5735 50.1693ZM66.5145 62.8188C69.6585 64.8486 72.6673 66.7941 75.8007 68.8176C75.8893 67.444 75.9526 66.3257 76.0349 65.2074C76.1425 63.7641 76.3029 62.323 76.3683 60.8797C76.4126 59.8986 76.0856 59.4533 75.1171 59.4322C74.3047 59.4132 73.4269 59.5757 72.6821 59.8964C70.6839 60.7594 68.7406 61.7533 66.5145 62.8188ZM48.3389 41.7777C49.2124 40.1826 50.0564 38.7267 50.8139 37.2264C51.1663 36.5323 51.4448 35.7726 51.5946 35.0088C51.8668 33.612 51.276 32.7406 49.8686 32.5169C47.5729 32.1498 45.3384 32.7279 42.9858 33.0507C44.7898 35.9921 46.5306 38.8301 48.3389 41.7777ZM53.7954 37.0007C52.9915 38.4903 52.1896 39.9631 51.4026 41.4444C50.9975 42.2082 50.5818 42.9699 50.24 43.7633C49.9235 44.4976 50.1472 44.9428 50.9468 45.0525C51.5545 45.1369 52.2213 45.1242 52.8121 44.966C54.7997 44.4321 56.7663 43.8139 58.7623 43.221C57.1123 41.1532 55.4496 39.0706 53.7954 37.0007Z" fill="black"/>
</svg>
