<svg width="120" height="100" viewBox="0 0 120 100" fill="none" xmlns="http://www.w3.org/2000/svg">
<rect width="120" height="100" fill="white"/>
<path d="M33.2397 15C36.2541 15.0517 38.6331 15.9978 40.4722 18.04C51.507 30.2541 62.1388 42.8043 71.9052 56.0706C72.6708 57.0667 73.3838 58.1021 74.0414 59.1726C75.0707 60.851 76.3171 62.386 77.7481 63.7377C81.8499 67.7884 85.9131 71.8805 89.9736 75.97C90.3326 76.3319 90.6271 76.4353 91.1231 76.2673C92.2493 75.8873 93.3574 76.0294 94.1969 76.9006C94.589 77.3025 94.8525 77.8123 94.9537 78.3649C95.0549 78.9174 94.9893 79.4876 94.7651 80.0026C93.6493 82.934 91.6655 85.0434 88.602 85.8732C86.2204 86.5142 84.4924 84.6349 85.2079 82.2697C85.3887 81.6777 85.2492 81.3416 84.8385 80.9358C80.189 76.3121 75.5542 71.6789 70.934 67.0362C70.7336 66.8202 70.5101 66.6269 70.2676 66.4597C64.2362 62.6572 58.6594 58.2342 53.124 53.7648C44.2667 46.6198 35.5593 39.2887 27.1799 31.5854C24.367 29.0004 23.3803 25.733 24.3799 22.0493C25.3795 18.3657 27.8489 16.1322 31.5297 15.2327C32.0944 15.1202 32.6655 15.0425 33.2397 15ZM73.0754 61.7369C70.0325 57.6423 67.2351 53.7079 64.2672 49.9079C56.9856 40.5864 49.3553 31.5544 41.4951 22.7137C40.3043 21.372 39.1084 20.0046 37.7368 18.8594C35.0194 16.5846 30.4681 17.1249 28.2286 19.8495C25.6223 23.0239 25.8574 27.1366 28.9105 29.9129C39.8187 39.8212 51.0549 49.3392 62.7949 58.2523C65.3417 60.1859 67.9609 62.0213 70.8023 64.0893L73.0754 61.7369ZM88.1732 77.7123L74.3695 63.898L72.8945 65.2991L86.7345 79.1599L88.1732 77.7123ZM92.7969 78.8885C92.4146 78.7075 92.195 78.5059 92.0452 78.5498C91.5534 78.6898 91.0794 78.8858 90.6323 79.134C89.2792 79.9103 88.2251 81.1181 87.6385 82.5643C87.5611 82.862 87.5298 83.1697 87.5455 83.4768C87.871 83.4588 88.274 83.557 88.509 83.3993C89.4415 82.7841 90.4101 82.1766 91.1876 81.3907C91.8153 80.7523 92.1873 79.863 92.7969 78.8885Z" fill="black"/>
</svg>
