<svg width="120" height="100" viewBox="0 0 120 100" fill="none" xmlns="http://www.w3.org/2000/svg">
<rect width="120" height="100" fill="white"/>
<path d="M81.4458 79.1965C81.7636 79.8349 82.0591 80.3912 82.3236 80.9609C82.7947 81.9805 82.4703 83.0134 81.5636 83.4456C80.6857 83.8668 79.6901 83.5143 79.1767 82.5656C78.8078 81.8852 78.4611 81.1914 78.1478 80.4865C77.9589 80.0632 77.7122 79.9413 77.2477 79.9945C76.5899 80.072 75.9188 80.0632 75.2543 80.0632C64.7158 80.0676 54.1774 80.0654 43.639 80.0676C42.7923 80.0676 41.7744 79.795 41.1477 80.1696C40.5455 80.5309 40.3499 81.566 39.9743 82.3041C39.4765 83.2816 38.8698 83.6983 38.0675 83.6207C36.863 83.501 36.1274 82.3263 36.5874 81.1936C36.8563 80.5353 37.2097 79.9102 37.5297 79.263C36.4185 78.7532 35.3029 78.3343 34.2784 77.7535C27.8491 74.0985 24.3711 68.5859 24.0667 61.196C23.94 58.1593 24.0311 55.1138 24.04 52.0705C24.0444 50.6364 24.6867 50.0135 26.1446 50.0113C35.2963 50.0091 44.4479 50.0025 53.5996 50.0246C54.1952 50.0268 54.5041 49.8828 54.7952 49.3264C55.7264 47.551 57.2309 46.5358 59.2644 46.507C62.3979 46.4627 65.5315 46.4538 68.665 46.5114C70.7629 46.5491 72.2474 47.6441 73.2341 49.4727C73.3675 49.7188 73.7386 49.9892 74.0009 49.9892C79.6857 50.018 85.3705 50.0113 91.0575 50.0091C91.1641 50.0091 91.2708 49.9892 91.4375 49.9714C91.4508 49.6899 91.4753 49.4239 91.4753 49.1557C91.4775 40.611 91.4775 32.0662 91.4753 23.5193C91.4753 21.3337 90.0707 19.9262 87.9084 19.9351C85.7771 19.944 84.3793 21.3382 84.3615 23.4705C84.3615 23.5525 84.3726 23.6389 84.3593 23.7187C84.0548 25.5518 84.4948 26.9261 86.4105 27.7085C87.3995 28.1119 87.5861 29.2756 87.0772 30.1223C86.5572 30.9868 85.4927 31.2439 84.5326 30.6676C82.4192 29.3997 80.319 28.1119 78.2278 26.8086C77.2744 26.2146 77.0033 25.1595 77.5322 24.3083C78.0544 23.4705 79.0434 23.2466 80.0079 23.7498C80.2235 23.8628 80.439 23.9803 80.8057 24.1776C80.8057 23.7032 80.7968 23.3353 80.808 22.9673C80.8991 19.2945 84.0193 16.3798 87.8751 16.3687C91.7642 16.3554 94.9622 19.2967 94.971 23.0183C94.9955 35.7944 95.0288 48.5706 94.9555 61.3467C94.9133 69.0337 89.6529 76.1731 82.2592 78.8928C82.0258 78.9793 81.7947 79.0657 81.4458 79.1965ZM73.7097 53.58C73.7097 53.9546 73.7097 54.2516 73.7097 54.5486C73.7097 58.2258 73.7142 61.9031 73.7075 65.5825C73.7053 67.0698 73.0653 67.7215 71.5874 67.7237C66.5137 67.7326 61.4379 67.7326 56.3642 67.7237C54.8552 67.7215 54.2019 67.0477 54.1996 65.5338C54.1952 61.8565 54.1974 58.1793 54.1974 54.4998C54.1974 54.205 54.1974 53.9124 54.1974 53.6021C45.268 53.6021 36.4408 53.6021 27.5758 53.6021C27.5758 56.1534 27.5402 58.6403 27.5824 61.1273C27.7247 69.4171 34.7229 76.4724 43.0434 76.5367C54.0241 76.6209 65.007 76.6098 75.9877 76.5389C83.3059 76.4901 89.8085 70.9443 91.1464 63.7694C91.3486 62.6899 91.4397 61.5772 91.4619 60.4778C91.5086 58.1926 91.4753 55.9073 91.4753 53.58C85.5371 53.58 79.6968 53.58 73.7097 53.58ZM70.174 57.0688C70.174 56.743 70.174 56.4969 70.174 56.2509C70.1717 54.7326 70.2029 53.212 70.1517 51.6937C70.1162 50.6608 69.4117 50.0224 68.3605 50.018C65.4248 50.0002 62.489 50.0002 59.5511 50.018C58.3955 50.0246 57.7576 50.7118 57.7399 51.9353C57.7176 53.3716 57.731 54.8079 57.7354 56.2442C57.7354 56.508 57.7665 56.774 57.7843 57.0688C61.929 57.0688 65.9915 57.0688 70.174 57.0688ZM57.7732 64.093C61.9557 64.093 66.0404 64.093 70.114 64.093C70.114 62.9094 70.114 61.7922 70.114 60.6928C65.9693 60.6928 61.8823 60.6928 57.7732 60.6928C57.7732 61.8499 57.7732 62.9448 57.7732 64.093Z" fill="black"/>
<path d="M34.7385 37.3459C34.5451 37.0179 34.4318 36.6876 34.2073 36.4682C33.794 36.0648 33.2895 35.7567 32.8717 35.3577C31.8983 34.4268 30.8116 33.569 30.0337 32.4939C28.9426 30.9845 29.0359 29.0849 30.2737 27.7395C31.1116 26.8285 32.2028 26.0992 33.2962 25.4919C34.274 24.9488 35.3185 25.4276 35.7363 26.3519C36.1563 27.2829 35.7674 28.1983 34.7207 28.7325C32.365 29.9405 32.325 30.5478 34.4429 32.1637C35.2963 32.8153 36.1897 33.4537 36.9053 34.2428C38.6298 36.1468 38.6898 38.4542 37.0164 40.4025C36.2541 41.2892 35.2718 42.0095 34.3029 42.6834C33.4717 43.2619 32.4183 42.9604 31.8983 42.1625C31.3649 41.3446 31.5605 40.3826 32.3805 39.7442C32.9695 39.2854 33.5784 38.851 34.1206 38.3434C34.3873 38.0951 34.5229 37.7072 34.7385 37.3459Z" fill="black"/>
<path d="M50.1061 25.295C50.8973 25.3016 51.6173 25.858 51.8218 26.6205C52.0262 27.3807 51.6862 28.1632 50.9595 28.5976C50.415 28.9234 49.8483 29.216 49.3305 29.5795C48.7749 29.9696 48.6949 30.5016 49.1949 30.9848C49.7883 31.5589 50.4617 32.051 51.0639 32.614C51.8662 33.3654 52.7574 34.0658 53.3907 34.9436C54.4975 36.4796 54.4508 38.1553 53.4707 39.7734C52.6751 41.0856 51.5062 42.0188 50.1839 42.7502C49.3372 43.2179 48.3482 42.9187 47.8593 42.1296C47.3593 41.3272 47.5415 40.3852 48.326 39.7712C48.8705 39.3456 49.4661 38.9777 49.9616 38.5011C50.8595 37.6344 50.8395 37.0338 49.9327 36.1981C49.5683 35.8612 49.1238 35.6152 48.7527 35.2849C47.9304 34.5512 47.0259 33.873 46.3481 33.0196C44.7791 31.0402 44.9991 28.8281 46.7992 27.0615C47.7859 26.0929 49.2927 25.2883 50.1061 25.295Z" fill="black"/>
<path d="M70.1651 37.4193C70.1384 38.6605 69.6562 39.7777 68.7717 40.6621C68.0338 41.398 67.2005 42.0607 66.3382 42.6503C65.4581 43.251 64.3936 42.9894 63.8558 42.1693C63.3047 41.3292 63.5225 40.3562 64.4003 39.7023C64.9092 39.3211 65.4515 38.9731 65.907 38.5364C66.8404 37.6409 66.8227 37.0314 65.8782 36.1736C65.5115 35.8411 65.0559 35.6039 64.6959 35.2648C63.7936 34.4159 62.7869 33.6334 62.0713 32.6448C60.8223 30.9204 61.0245 28.859 62.5335 27.3562C63.2624 26.6292 64.1736 26.044 65.0892 25.5564C66.1737 24.9778 67.2471 25.3768 67.6894 26.3521C68.1227 27.3074 67.7205 28.2051 66.6026 28.7681C64.3536 29.9008 64.3092 30.5502 66.3271 32.1151C67.1982 32.7911 68.085 33.465 68.8583 34.2452C69.7006 35.0853 70.1406 36.1647 70.1651 37.4193Z" fill="black"/>
<path d="M82.1346 37.5078C82.2502 37.1754 82.3947 36.5215 82.6969 35.9518C83.1058 35.1849 84.057 34.9367 84.8593 35.2736C85.6149 35.5905 86.0593 36.404 85.8815 37.2263C85.7838 37.6807 85.6593 38.1396 85.4704 38.5629C85.1237 39.3276 84.2614 39.7111 83.4703 39.5116C82.6925 39.3165 82.1524 38.6316 82.1346 37.5078Z" fill="black"/>
<path d="M78.5944 45.5961C77.621 45.6028 76.7743 44.8447 76.8432 43.8805C76.9565 42.3112 77.5165 41.2074 78.8455 41.2007C79.8122 41.1963 80.6901 41.961 80.6034 42.9119C80.4612 44.5078 79.9678 45.5518 78.5944 45.5961Z" fill="black"/>
<path d="M76.2876 34.0988C76.3965 33.773 76.5276 33.1413 76.8099 32.5872C77.2165 31.7914 78.2344 31.5232 79.0433 31.9045C79.9256 32.319 80.2323 33.1657 79.9145 34.305C79.5345 35.6659 78.8789 36.2489 77.8477 36.1381C76.9365 36.0427 76.2965 35.3268 76.2876 34.0988Z" fill="black"/>
<path d="M41.5389 73.01C38.0809 72.4758 35.314 70.707 33.3006 67.7745C31.9538 65.8129 31.2738 63.6185 31.1249 61.2535C31.036 59.8504 31.6871 58.9172 32.8205 58.864C33.9095 58.8131 34.6095 59.642 34.7007 61.0296C34.9518 64.8221 36.7719 67.5418 40.3099 69.0357C40.941 69.3017 41.6478 69.3815 42.3056 69.5899C43.179 69.8669 43.6879 70.7536 43.5079 71.6047C43.3279 72.4647 42.5189 73.0698 41.5389 73.01Z" fill="black"/>
</svg>
