<svg width="120" height="100" viewBox="0 0 120 100" fill="none" xmlns="http://www.w3.org/2000/svg">
<rect width="120" height="100" fill="white"/>
<path d="M78.4869 79.1794C79.1788 78.7871 79.3699 78.1994 79.2541 77.4279C78.8777 74.9163 77.5054 73.2646 75.088 72.4815C74.9606 72.441 74.8361 72.3918 74.6725 72.3339C74.6725 70.3507 74.6653 68.3704 74.674 66.3901C74.6855 63.5992 74.0472 60.9719 72.6778 58.5385C70.9175 55.4132 68.4147 53.1116 65.0578 51.7827C64.1936 51.4411 63.3989 51.0459 63.189 50.0124C63.0138 49.1525 63.3728 48.2753 64.1299 47.8381C64.4122 47.6745 64.7132 47.5443 65.0158 47.4198C70.337 45.2209 73.5014 41.2777 74.493 35.6178C74.6711 34.6016 74.6537 33.5477 74.6682 32.5098C74.6942 30.6251 74.6754 28.7389 74.6754 26.8296C75.8581 26.5183 76.8902 25.9958 77.7153 25.107C78.7127 24.0314 79.2237 22.7561 79.2845 21.2984C79.3149 20.55 78.856 20.0636 78.1061 20.0072C77.9339 19.9942 77.7602 20.0028 77.5865 20.0028C65.6267 20.0028 53.6669 20.0028 41.7071 20.0028C40.2797 20.0028 39.8629 20.4559 40.0699 21.8745C40.4245 24.2934 41.7968 25.8785 44.0999 26.6718C44.262 26.7282 44.427 26.7746 44.6225 26.8368C44.6225 28.9691 44.6268 31.0854 44.621 33.2018C44.6123 35.9565 45.2637 38.5375 46.6534 40.9202C48.3586 43.8443 50.7847 45.9563 53.9028 47.2736C54.2748 47.4299 54.6527 47.5747 55.0131 47.7542C55.7731 48.1349 56.1654 48.7863 56.1581 49.6143C56.1523 50.4191 55.7629 51.0575 55.0232 51.4237C54.0591 51.9014 53.0299 52.2677 52.1237 52.8337C47.4235 55.7737 44.9496 60.0715 44.6529 65.5824C44.5327 67.8088 44.6326 70.0482 44.6326 72.3252C44.4415 72.3889 44.2663 72.4511 44.0897 72.5032C41.749 73.2067 40.0583 75.4432 40.0004 77.8882C39.9859 78.5106 40.342 78.8696 40.8052 79.178C53.3672 79.1794 65.9278 79.1794 78.4869 79.1794ZM46.9545 72.2238C46.9545 69.8918 46.8445 67.5974 46.9791 65.3175C47.1991 61.5697 48.7958 58.4444 51.6446 55.9763C52.8852 54.9022 54.353 54.2494 55.8411 53.6009C58.9085 52.2677 59.4195 48.1913 56.7762 46.1531C56.1813 45.6943 55.4285 45.4294 54.7308 45.1138C50.3099 43.1118 47.6247 39.7346 47.0833 34.9113C46.7938 32.3231 46.9748 29.6827 46.9472 27.0655C46.9472 27.0351 46.9849 27.0047 47.0008 26.9816C55.4503 26.9816 63.8925 26.9816 72.3376 26.9816C72.3376 29.412 72.4534 31.8063 72.3115 34.1847C72.0756 38.1336 70.3139 41.353 67.0887 43.6575C65.977 44.4523 64.6698 44.9835 63.4206 45.5683C60.9018 46.7481 60.0318 49.8227 61.6053 52.1012C62.2726 53.0682 63.2671 53.5328 64.3065 53.9816C68.9445 55.9879 71.5617 59.5808 72.2131 64.5329C72.4708 66.4857 72.3246 68.492 72.3579 70.4737C72.368 71.0455 72.3593 71.6188 72.3593 72.2021C71.5255 72.2021 70.7482 72.2021 69.9621 72.2021C69.6827 70.0134 68.5884 68.3661 66.7485 67.2775C65.6802 66.6449 64.5222 66.1527 63.3699 65.6779C62.3638 65.2639 61.4142 64.7949 60.6036 64.0538C59.903 63.4125 59.3876 63.4183 58.6769 64.0625C57.8634 64.8007 56.9311 65.3103 55.9033 65.675C55.3055 65.8864 54.712 66.118 54.1373 66.3844C52.1469 67.3079 50.4373 68.534 49.6817 70.7242C49.5152 71.2077 49.411 71.7143 49.2735 72.2253C48.5164 72.2238 47.7695 72.2238 46.9545 72.2238ZM42.5799 22.3479C53.9795 22.3479 65.3429 22.3479 76.7194 22.3479C76.2243 23.7607 74.9852 24.6206 73.4117 24.622C64.2283 24.6278 55.0449 24.6249 45.863 24.6249C45.7472 24.6249 45.6314 24.6206 45.517 24.6119C44.1592 24.5091 42.9867 23.6131 42.5799 22.3479ZM42.5626 76.8459C42.593 76.7475 42.606 76.6737 42.6364 76.61C43.3298 75.1653 44.511 74.5515 46.0787 74.553C55.126 74.5588 64.1733 74.5559 73.2221 74.5559C73.4146 74.5559 73.6071 74.5559 73.7996 74.5718C75.1661 74.6818 76.385 75.6329 76.7049 76.8459C65.3314 76.8459 53.9651 76.8459 42.5626 76.8459ZM67.6084 72.2094C62.2755 72.2094 56.9919 72.2094 51.6866 72.2094C51.8574 71.2496 52.2902 70.4795 52.972 69.8411C53.9361 68.9393 55.139 68.479 56.3231 67.9665C57.3582 67.5178 58.3483 66.9663 59.3732 66.4915C59.5353 66.4162 59.7988 66.4408 59.9667 66.5219C60.7947 66.92 61.5966 67.3759 62.4261 67.7682C63.2932 68.1779 64.2124 68.4877 65.0578 68.9364C66.3649 69.6284 67.3261 70.6373 67.6084 72.2094Z" fill="black"/>
<path d="M70.0417 33.7491C70.0706 32.4695 69.2962 31.9455 68.1367 32.4912C64.7856 34.0691 61.2723 34.7103 57.5854 34.3224C55.5631 34.1096 53.6205 33.5841 51.7589 32.7619C51.5128 32.6533 51.2725 32.5317 51.025 32.4261C50.0233 31.9976 49.2445 32.5187 49.2503 33.6087C49.2749 37.6243 51.8776 41.469 55.6398 42.9817C56.7907 43.445 57.8879 43.9574 58.8115 44.8173C59.3833 45.3485 59.9261 45.3369 60.5109 44.797C61.4084 43.9704 62.4622 43.4522 63.5812 43.0107C67.3318 41.5342 69.9505 37.7633 70.0417 33.7491ZM67.5157 35.2778C66.7861 37.8617 65.3096 39.6422 63.008 40.7481C61.9556 41.2548 60.9278 41.8107 59.8754 42.3159C59.7336 42.3839 59.486 42.3347 59.3297 42.2565C58.577 41.8801 57.8604 41.4198 57.0874 41.0912C55.9627 40.6121 54.8972 40.0605 54.0215 39.192C52.9416 38.1223 52.1715 36.8788 51.7994 35.2836C57.0541 37.2074 62.2277 37.2059 67.5157 35.2778Z" fill="black"/>
<path d="M58.4945 54.3855C58.4945 54.8097 58.4771 55.2338 58.4988 55.6565C58.5336 56.3673 59.0171 56.8623 59.6468 56.8638C60.2764 56.8652 60.7759 56.3702 60.7961 55.6608C60.8207 54.814 60.8207 53.9657 60.7961 53.1204C60.7759 52.4096 60.2808 51.9145 59.6496 51.9131C59.02 51.9116 58.5336 52.4067 58.4988 53.116C58.4771 53.5373 58.4945 53.9614 58.4945 54.3855Z" fill="black"/>
<path d="M58.5003 60.3118C58.483 60.9154 59.0113 61.4684 59.6193 61.4857C60.2229 61.5031 60.7759 60.9762 60.7933 60.3668C60.8107 59.7617 60.2837 59.2102 59.6743 59.1928C59.0721 59.1754 58.5177 59.7038 58.5003 60.3118Z" fill="black"/>
</svg>
