<svg width="120" height="100" viewBox="0 0 120 100" fill="none" xmlns="http://www.w3.org/2000/svg">
<rect width="120" height="100" fill="white"/>
<path d="M58.3836 65.413C57.6961 63.3985 57.1225 61.4939 56.3991 59.6473C55.0241 56.1379 53.2034 52.8883 50.4515 50.2462C48.0373 47.9279 45.1674 46.541 41.8338 46.1572C41.3442 46.1013 40.8446 46.1492 40.277 46.1492C39.8973 47.5102 39.5215 48.8972 39.1258 50.2782C37.473 56.0499 34.6471 61.1742 30.6481 65.6549C29.4849 66.9579 28.3438 68.2769 27.1946 69.5899C26.8129 70.0276 26.3712 70.3474 25.7617 70.1615C25.1182 69.9657 24.9243 69.4461 24.8823 68.8265C24.6305 65.0713 24.2948 61.3181 24.1409 57.5568C24.029 54.8568 24.8444 52.3347 26.6171 50.2842C29.6088 46.8247 33.3161 44.4905 37.9267 43.8689C44.2341 43.0176 49.3703 45.2799 53.4892 49.9904C54.4685 51.1096 55.2479 52.4026 56.1173 53.6177C56.2292 53.7736 56.3251 53.9375 56.571 54.0494C56.3631 52.9402 56.1952 51.8231 55.9374 50.7259C55.172 47.4803 54.3866 44.2387 53.5612 41.007C53.4652 40.6293 53.1295 40.2256 52.7937 40.0078C50.3076 38.393 47.8854 36.6423 45.2613 35.2893C42.913 34.0801 40.3669 33.2128 37.8448 32.3834C33.8437 31.0684 29.6608 30.6866 25.4979 30.249C25.276 30.225 24.9982 30.259 24.8464 30.1391C24.5166 29.8772 24.0749 29.5635 24.011 29.2117C23.947 28.86 24.1709 28.2465 24.4646 28.0686C27.6223 26.134 30.9019 24.4493 34.6391 23.9676C37.6969 23.5739 40.5088 24.4952 43.2028 25.8262C46.3085 27.3611 49.0665 29.4136 51.6406 31.7119C52.9137 32.8491 53.6231 34.3859 54.2806 35.9248C56.0613 40.0917 57.0846 44.4805 58.0339 48.8892C58.1258 49.3129 58.2217 49.7366 58.3916 50.1323C58.3916 47.1665 58.3956 44.2007 58.3836 41.2349C58.3816 40.9431 58.2957 40.6453 58.2097 40.3615C56.8248 35.7089 55.4418 31.0564 54.0328 26.4098C53.825 25.7243 53.849 25.1288 54.1427 24.4692C55.5157 21.3735 56.8488 18.2618 58.1958 15.1561C58.2857 14.9503 58.3317 14.6705 58.4895 14.5625C58.8553 14.3147 59.3229 13.937 59.6647 14.009C60.0524 14.0909 60.4001 14.5685 60.6659 14.9463C60.7978 15.1341 60.7139 15.4779 60.7159 15.7517C60.7379 23.5819 60.7519 31.4121 60.7779 39.2443C60.7938 44.1267 60.8238 49.0091 60.8478 53.8915C60.8498 54.1334 60.8478 54.3732 60.9817 54.635C61.3494 53.4878 61.7012 52.3347 62.0889 51.1955C63.6517 46.5989 65.5124 42.1222 68.5881 38.319C73.0688 32.7791 78.2969 28.0986 84.8581 25.0868C85.0379 25.0028 85.2278 24.9389 85.4097 24.859C85.9393 24.6251 86.4409 24.6551 86.8586 25.0788C87.3043 25.5305 87.2763 26.0481 87.0245 26.5977C85.4137 30.1071 83.2353 33.2028 80.3894 35.8209C77.2197 38.7367 73.5664 40.8112 69.4415 42.0423C68.9518 42.1882 68.6361 42.428 68.3802 42.8717C66.7195 45.7555 65.4544 48.8093 64.3792 51.947C64.3412 52.0589 64.3272 52.1808 64.4172 52.3667C64.655 52.0469 64.8928 51.7231 65.1326 51.4054C68.0105 47.5942 71.6219 44.8462 76.4063 43.9828C81.0789 43.1415 85.4357 44.0368 89.2968 46.8667C90.5959 47.818 91.8969 48.8333 92.9601 50.0304C95.0226 52.3487 95.848 55.1646 95.6481 58.2643C95.4343 61.5978 95.2025 64.9314 94.9666 68.2629C94.9147 68.9964 94.9986 69.8418 94.0893 70.1495C93.1779 70.4593 92.7323 69.7398 92.2506 69.1822C89.8904 66.4483 87.3922 63.8302 85.4137 60.7785C82.7496 56.6715 81.0729 52.1688 79.8877 47.4543C79.7798 47.0226 79.6499 46.5949 79.514 46.1153C77.4176 46.0373 75.455 46.521 73.5744 47.3703C70.2489 48.8732 67.8766 51.4194 65.946 54.4291C63.8456 57.7047 62.3967 61.2721 61.3274 65.0013C61.2955 65.1152 61.2955 65.2392 61.2755 65.415C61.5813 65.415 61.8531 65.415 62.1249 65.415C65.6163 65.415 69.1057 65.411 72.5971 65.417C73.5544 65.419 74.0421 65.8487 74.0321 66.742C73.9621 73.1713 72.9169 79.3867 69.9111 85.1605C69.8871 85.2044 69.8631 85.2484 69.8452 85.2944C69.3575 86.5694 68.4982 87.0231 67.0812 86.9991C61.947 86.9092 56.8088 86.9491 51.6726 86.9771C50.8212 86.9811 50.2876 86.6913 49.8659 85.9499C47.6096 81.9928 46.3785 77.704 45.7869 73.2253C45.5191 71.2028 45.4352 69.1563 45.3293 67.1158C45.2593 65.7868 45.669 65.415 46.978 65.415C50.4195 65.413 53.861 65.415 57.3004 65.415C57.5762 65.413 57.848 65.413 58.3836 65.413ZM47.6795 67.8412C47.7954 69.2422 47.8674 70.5612 48.0173 71.8703C48.5069 76.1071 49.5322 80.1901 51.5207 83.9993C51.7485 84.437 52.0083 84.5829 52.498 84.5809C57.2584 84.5609 62.0209 84.5529 66.7814 84.5889C67.393 84.5929 67.6568 84.359 67.9066 83.8734C69.6673 80.4439 70.6805 76.7886 71.1922 72.9894C71.42 71.2987 71.5339 69.5899 71.7038 67.8452C63.6397 67.8412 55.7236 67.8412 47.6795 67.8412ZM51.7925 36.5463C51.8724 36.4684 51.9524 36.3924 52.0323 36.3145C51.3508 35.3512 50.8392 34.1801 49.9578 33.4646C47.7794 31.6939 45.5131 30.0012 43.1369 28.5123C38.872 25.8402 34.4013 25.5384 29.8507 27.8747C29.6708 27.9667 29.4989 28.0746 29.1792 28.2564C33.3961 28.6881 37.3052 29.6314 41.1583 30.8765C45.0475 32.1336 48.427 34.316 51.7925 36.5463ZM82.1681 46.3791C82.8636 51.7631 88.0817 62.0695 91.1055 64.048C91.0915 63.9301 91.0935 63.8322 91.0695 63.7403C89.7265 58.67 88.3815 53.5977 87.0285 48.5295C86.9745 48.3276 86.8706 48.0638 86.7107 47.9739C85.2958 47.1885 83.8009 46.6289 82.1681 46.3791ZM28.6695 64.042C33.418 59.0537 36.194 53.0881 37.7089 46.1692C36.198 46.7328 34.863 47.2364 33.526 47.7281C33.0623 47.898 32.8505 48.2157 32.7245 48.6974C31.8172 52.1868 30.8779 55.6682 29.9526 59.1536C29.5209 60.7824 29.0972 62.4132 28.6695 64.042ZM83.0394 28.792C78.5447 31.3901 74.7555 34.7956 71.408 38.7207C76.3524 36.6642 80.2295 33.3507 83.0394 28.792ZM29.8027 50.4041C26.2573 53.4818 26.2174 57.313 26.8569 61.4979C27.8521 57.7487 28.8054 54.1613 29.8027 50.4041ZM90.0003 50.3961C91.0095 54.1893 91.9588 57.7647 92.9481 61.4819C93.6016 57.315 93.5337 53.4938 90.0003 50.3961ZM58.3277 21.1997C58.2837 21.1937 58.2397 21.1877 58.1958 21.1817C57.6502 22.4287 57.0746 23.6638 56.5809 24.9309C56.4331 25.3086 56.4051 25.8043 56.509 26.196C56.9767 27.9207 57.5123 29.6274 58.0239 31.3402C58.0878 31.552 58.1658 31.7619 58.2377 31.9717C58.2677 31.9617 58.2977 31.9497 58.3277 31.9397C58.3277 28.3564 58.3277 24.779 58.3277 21.1997Z" fill="black"/>
<path d="M65.8721 81.9528C65.1326 81.5152 64.4951 81.1394 63.8196 80.7397C65.3345 77.7559 66.0339 74.5563 66.7374 71.2827C67.5149 71.4166 68.2583 71.5465 69.0777 71.6884C68.3622 75.2438 67.5688 78.6852 65.8721 81.9528Z" fill="black"/>
</svg>
