<svg width="120" height="100" viewBox="0 0 120 100" fill="none" xmlns="http://www.w3.org/2000/svg">
<rect width="120" height="100" fill="white"/>
<path d="M27 43.1281C27.3779 41.3345 28.6214 40.2519 30.034 39.2315C38.6275 33.0248 47.1971 26.7829 55.7667 20.5427C56.2721 20.1744 56.7871 19.9879 57.412 20.0006C58.6636 20.0245 59.9152 20.0229 61.1667 20.0006C61.7678 19.9895 62.27 20.1585 62.7595 20.5092C66.4153 23.1239 70.0823 25.7227 73.7461 28.3263C73.9485 28.4697 74.1526 28.61 74.4763 28.8364C74.4763 27.4908 74.4699 26.2743 74.481 25.0579C74.4826 24.7852 74.4444 24.4297 74.5927 24.2607C74.8637 23.9546 75.2543 23.5608 75.6051 23.5512C77.936 23.4874 80.2701 23.5018 82.6042 23.5257C83.3902 23.5337 83.7729 24.0407 83.7745 24.9574C83.7792 27.8209 83.8653 30.6891 83.7394 33.5461C83.6756 34.981 84.0917 35.8579 85.3305 36.6025C86.9791 37.5942 88.5049 38.7915 90.0641 39.9267C92.5433 41.7315 92.9005 44.9138 90.8342 47.0582C89.7405 48.1933 88.3757 48.6748 86.7862 48.3862C86.5821 48.3496 86.3764 48.3288 86.0926 48.289C86.0926 48.6302 86.0926 48.9012 86.0926 49.1723C86.0926 57.9332 86.0847 66.6925 86.099 75.4534C86.1022 77.5069 85.3289 79.1076 83.4508 79.9972C82.7509 80.3288 81.9027 80.4883 81.1215 80.4899C66.613 80.5186 52.1045 80.517 37.596 80.5058C34.5301 80.5026 32.6009 78.5352 32.6009 75.4741C32.5977 66.7132 32.5993 57.9539 32.5993 49.193C32.5993 48.9427 32.5993 48.694 32.5993 48.3958C31.1469 48.6158 29.8874 48.3257 28.7713 47.4615C27.7637 46.6803 27.2774 45.6041 27.0016 44.4036C27 43.9763 27 43.5522 27 43.1281ZM68.6442 78.1637C68.9375 78.1637 69.1273 78.1637 69.317 78.1637C73.2407 78.1637 77.1643 78.1669 81.088 78.1621C82.8896 78.1605 83.7745 77.2661 83.7745 75.4597C83.7761 66.1281 83.7729 56.7948 83.784 47.4631C83.784 47.0406 83.6676 46.7823 83.3105 46.5304C75.4807 41.006 67.6605 35.4705 59.8482 29.9238C59.4767 29.6607 59.2376 29.6543 58.8661 29.9254C51.0506 35.5789 43.2272 41.2213 35.3958 46.8525C35.0227 47.1203 34.9016 47.3993 34.9016 47.8458C34.9143 57.0292 34.9111 66.2142 34.9111 75.3976C34.9111 77.2837 35.788 78.1621 37.6725 78.1637C41.5755 78.1669 45.4784 78.1653 49.3798 78.1637C49.5838 78.1637 49.7879 78.143 50.0414 78.1287C50.0414 77.8337 50.0414 77.5834 50.0414 77.3331C50.0414 71.5648 50.0414 65.7948 50.0414 60.0265C50.0414 58.7686 50.4097 58.4051 51.6788 58.4051C56.7695 58.4035 61.8602 58.4051 66.9494 58.4051C68.3125 58.4051 68.6442 58.7335 68.6442 60.0887C68.6442 65.8363 68.6442 71.5839 68.6442 77.3331C68.6442 77.5786 68.6442 77.8289 68.6442 78.1637ZM59.2854 22.3491C58.7768 22.3491 58.2634 22.3124 57.7596 22.3618C57.4423 22.3937 57.0868 22.4846 56.8349 22.6663C48.0804 29.0118 39.3354 35.3701 30.5905 41.7267C30.3848 41.8766 30.1759 42.028 30.0021 42.2098C29.3803 42.8619 29.1747 43.6383 29.4409 44.4976C29.6976 45.3251 30.2588 45.856 31.1166 46.0744C32.0126 46.3024 32.7173 45.9326 33.4124 45.4319C41.6791 39.4611 49.9489 33.4983 58.2188 27.5323C59.212 26.8164 59.4671 26.8164 60.478 27.5307C68.8865 33.4824 77.2951 39.4356 85.7052 45.3857C85.9635 45.569 86.2234 45.7604 86.5056 45.9007C87.8576 46.5735 89.4631 45.8002 89.7787 44.3223C90.0227 43.1775 89.5093 42.374 88.5989 41.7283C80.058 35.6714 71.514 29.6177 63.0002 23.5193C61.8523 22.6966 60.7506 22.0222 59.2854 22.3491ZM52.401 60.7504C52.401 66.5904 52.401 72.3492 52.401 78.1191C57.0565 78.1191 61.6689 78.1191 66.2766 78.1191C66.2766 72.3013 66.2766 66.5266 66.2766 60.7504C61.6291 60.7504 57.0342 60.7504 52.401 60.7504ZM76.7881 25.8598C76.7881 27.3505 76.7769 28.8077 76.804 30.265C76.8072 30.426 76.9953 30.6237 77.1484 30.7353C78.4366 31.6664 79.7344 32.5831 81.0338 33.4999C81.1422 33.5764 81.2729 33.6227 81.4037 33.688C81.4037 31.0414 81.4037 28.4506 81.4037 25.8614C79.8492 25.8598 78.3521 25.8598 76.7881 25.8598Z" fill="black"/>
</svg>
