<svg width="120" height="100" viewBox="0 0 120 100" fill="none" xmlns="http://www.w3.org/2000/svg">
<rect width="120" height="100" fill="white"/>
<path d="M20.7417 33.5787C20.7485 32.6832 21.4572 31.9587 22.3435 31.9427C23.2504 31.9245 24.0205 32.6923 24.016 33.6038C24.0114 34.5266 23.2527 35.2512 22.3185 35.2238C21.4116 35.1965 20.7349 34.4924 20.7417 33.5787Z" fill="black"/>
<path d="M66.0299 54.4887C67.0764 54.8895 67.9247 55.1203 68.6822 55.5211C70.232 56.3392 70.3182 57.9216 68.7474 58.6674C67.356 59.3293 65.7969 59.6579 64.2843 60.0285C63.7343 60.1637 63.5362 60.3315 63.464 60.8908C63.0142 64.3727 64.3845 67.1881 66.6242 69.6888C67.8315 71.0359 68.6728 72.5671 69.097 74.3267C69.8032 77.2609 69.1483 79.969 67.7103 82.5397C66.1395 85.348 63.9604 87.625 61.448 89.6014C60.8514 90.0698 60.2128 90.1887 59.6465 89.6107C59.1127 89.0676 59.2479 88.4803 59.6558 87.8767C62.2404 84.0546 61.9864 80.3046 58.7888 76.9579C57.6328 75.7507 56.2694 74.7275 54.934 73.7067C51.5034 71.0825 48.6624 67.9944 47.0892 63.9043C46.6744 62.8252 46.446 61.6762 46.0661 60.5832C45.9705 60.3082 45.6536 60.0168 45.3739 59.9166C44.2576 59.5181 43.0923 59.2547 41.9922 58.8212C41.2767 58.5416 40.6824 57.9962 40.6894 57.1246C40.6987 56.2226 41.3 55.6703 42.0668 55.3929C43.0713 55.0294 44.1294 54.8196 45.1432 54.484C45.4065 54.3954 45.7468 54.1134 45.7957 53.8711C46.3481 51.114 46.8538 48.3452 47.3642 45.5788C47.4272 45.2409 47.4435 44.8913 47.4831 44.5207C45.4951 44.1851 43.5444 43.9148 41.624 43.5093C40.2676 43.2226 38.9368 42.7914 37.6247 42.337C37.063 42.1435 36.527 41.7893 36.0702 41.4001C34.8629 40.3723 34.9235 38.8527 36.2054 37.9158C37.6946 36.8274 39.4612 36.4149 41.2208 36.0304C42.6867 35.7111 44.169 35.478 45.7468 35.189C44.8146 33.1684 43.6097 31.4112 42.195 29.7961C39.629 26.8712 36.6738 24.4124 33.3271 22.4104C32.9542 22.1867 32.5883 21.5761 32.6116 21.1682C32.6372 20.7161 33.0194 20.0682 33.4133 19.898C34.3339 19.5088 35.343 19.2431 36.3382 19.1196C43.8217 18.185 51.3472 17.9683 58.875 18.0382C66.3702 18.1081 73.8654 18.3435 81.3559 18.6185C83.6073 18.7001 85.8633 19.0683 88.0867 19.4739C90.0234 19.8281 90.2797 20.4131 89.9185 22.3545C89.0515 27.0087 87.3176 31.3133 84.7912 35.3079C84.7003 35.4524 84.6211 35.6085 84.5045 35.8183C85.4647 36.07 86.4063 36.2518 87.2989 36.5664C88.2218 36.8927 89.168 37.2423 89.9861 37.7643C91.6478 38.8294 91.7107 40.6403 90.0117 41.6355C88.6856 42.4115 87.1707 42.9919 85.6652 43.3112C83.0013 43.8752 80.2792 44.1595 77.5873 44.6C77.1282 44.6745 76.6365 44.8657 76.2706 45.1477C74.4783 46.532 72.6442 47.8814 70.9778 49.408C69.2555 50.9835 67.7056 52.75 66.0299 54.4887ZM39.2701 23.6503C42.2229 26.158 44.7423 28.7892 46.693 31.9239C48.6577 35.0818 49.8603 38.4938 50.0258 42.267C51.5104 42.3743 52.8971 42.4908 54.2884 42.5677C61.2639 42.9616 68.2347 42.9359 75.1962 42.33C75.5597 42.2973 75.9699 42.0923 76.2426 41.8406C78.6431 39.6172 80.701 37.1048 82.4676 34.3524C82.6331 34.096 82.7776 33.828 82.9966 33.4551C82.5375 33.5297 82.2276 33.5693 81.9199 33.6322C77.7458 34.4642 73.5321 34.8698 69.2741 34.7835C68.9269 34.7765 68.5703 34.7672 68.2393 34.681C67.5868 34.5108 67.2698 34.0494 67.3467 33.3805C67.4166 32.7512 67.8012 32.39 68.4374 32.3411C68.7264 32.3178 69.0178 32.3387 69.3091 32.3457C74.2499 32.4856 79.1022 31.8074 83.9056 30.712C84.2132 30.6421 84.6257 30.4696 84.7469 30.2272C85.854 27.9922 86.7046 25.6593 87.2593 23.2215C71.3087 24.762 55.4094 24.6058 39.2701 23.6503ZM72.1151 45.2828C64.7341 45.178 57.3462 45.0754 49.9535 44.9705C49.7834 45.9354 49.5923 47.0121 49.3965 48.1075C51.5057 48.9232 53.6428 49.2075 55.8406 49.1726C56.7472 49.1586 57.2459 49.6107 57.2646 50.3542C57.2856 51.1046 56.8288 51.5824 55.9128 51.5917C54.8431 51.6011 53.7594 51.5848 52.7036 51.4309C51.3962 51.2422 50.112 50.8996 48.7696 50.6152C48.2848 52.9808 47.9982 55.3463 48.2102 57.7725C48.7812 57.8284 49.2707 57.917 49.7578 57.917C53.531 57.917 57.3019 57.91 61.0751 57.8704C61.3431 57.868 61.7556 57.6303 61.8489 57.3996C63.5152 53.2604 66.4541 50.1211 69.7379 47.2475C70.5396 46.5437 71.3786 45.8888 72.1151 45.2828ZM48.5855 60.455C48.6461 60.7113 48.7043 61.012 48.7859 61.308C50.0281 65.8083 52.8994 69.1015 56.5328 71.8516C57.8286 72.8304 59.1197 73.8372 60.2804 74.9676C62.1798 76.8134 63.4453 79.0461 63.7879 81.7216C63.8695 82.3579 63.8672 83.0058 63.9044 83.649C63.9767 83.67 64.0513 83.6933 64.1235 83.7143C64.7807 82.5933 65.5312 81.5165 66.0742 80.3443C67.5448 77.1746 67.1929 74.1961 64.9252 71.4833C64.3309 70.7702 63.7413 70.0454 63.2239 69.2763C62.9442 68.8614 62.6669 68.8288 62.2148 68.8638C60.8001 68.9733 59.3808 69.0712 57.9638 69.0502C56.929 69.0339 56.4465 68.4909 56.5235 67.7101C56.598 66.9387 57.197 66.6007 58.2131 66.638C59.3575 66.6823 60.5064 66.6474 61.4923 66.6474C61.2499 64.4636 61.0308 62.4733 60.8071 60.4573C56.8474 60.455 52.7596 60.455 48.5855 60.455ZM81.6822 21.2008C74.4317 20.1987 44.0734 20.2593 40.9877 21.2451C54.5494 22.1354 68.1112 22.1471 81.6822 21.2008ZM37.7202 39.771C40.9877 41.1903 44.2156 41.5585 47.6416 42.0037C47.3339 40.4072 47.0636 39.0042 46.7839 37.5523C43.6796 38.0347 40.7104 38.354 37.7202 39.771ZM88.4712 39.8595C88.4829 39.757 88.4968 39.6568 88.5085 39.5542C87.4504 39.2163 86.3783 38.9133 85.3342 38.5334C83.7215 37.9461 82.4257 38.0697 81.5191 39.7733C81.1322 40.4981 80.4563 41.0691 79.7548 41.8965C82.9011 41.4187 85.798 41.0994 88.4712 39.8595Z" fill="black"/>
<path d="M45.029 67.7683C45.0127 69.6724 43.4722 71.2082 41.5821 71.2059C39.6547 71.2036 38.1025 69.6094 38.1421 67.6751C38.1817 65.7733 39.7292 64.2724 41.6333 64.2887C43.5234 64.305 45.0453 65.8665 45.029 67.7683ZM40.4447 67.5795C40.4494 67.7147 40.454 67.8498 40.4587 67.985C40.8386 68.2437 41.1975 68.6632 41.6054 68.7192C42.1647 68.7937 42.5795 68.3859 42.5726 67.759C42.5656 67.1041 42.1577 66.6682 41.5424 66.7778C41.1416 66.85 40.8083 67.2998 40.4447 67.5795Z" fill="black"/>
<path d="M74.0379 69.7239C72.1035 69.7332 70.5956 68.2463 70.591 66.3259C70.5863 64.4265 72.1198 62.893 74.0216 62.8906C75.8604 62.8906 77.4149 64.4218 77.4429 66.263C77.4709 68.1554 75.935 69.7169 74.0379 69.7239ZM73.6767 67.2931C74.6019 67.2628 75.047 66.8923 74.9445 66.3213C74.8792 65.953 74.4061 65.4706 74.0379 65.3844C73.4576 65.2515 72.9938 65.7106 73.08 66.3166C73.136 66.7081 73.5205 67.0531 73.6767 67.2931Z" fill="black"/>
<path d="M35.6111 31.0828C35.5925 32.9542 34.0776 34.4551 32.2154 34.4481C30.3579 34.4411 28.8267 32.9146 28.8174 31.0641C28.8081 29.188 30.3836 27.6358 32.2784 27.6545C34.1312 27.6731 35.6274 29.2136 35.6111 31.0828ZM32.05 32.1409C32.1758 32.1409 32.3017 32.1385 32.4275 32.1385C32.6722 31.7796 33.0591 31.4487 33.1313 31.0595C33.2316 30.5071 32.819 30.1365 32.255 30.1179C31.6398 30.0993 31.2203 30.5024 31.3088 31.0804C31.3671 31.4626 31.7889 31.7889 32.05 32.1409Z" fill="black"/>
<path d="M84.3485 55.9146C82.5213 55.9053 81.0297 54.4184 81.0134 52.5865C80.9971 50.736 82.5213 49.2258 84.4021 49.2305C86.2269 49.2351 87.7348 50.736 87.7371 52.5516C87.7395 54.4091 86.2129 55.9239 84.3485 55.9146ZM84.6025 51.5471C84.472 51.5424 84.3391 51.5401 84.2086 51.5354C83.9616 51.864 83.5001 52.2113 83.5234 52.5189C83.5467 52.8522 83.9756 53.3323 84.3158 53.4232C84.8705 53.5747 85.304 53.1319 85.2481 52.5772C85.2131 52.216 84.8309 51.8897 84.6025 51.5471Z" fill="black"/>
</svg>
