<svg width="120" height="100" viewBox="0 0 120 100" fill="none" xmlns="http://www.w3.org/2000/svg">
<rect width="120" height="100" fill="white"/>
<path d="M58.6964 12.0038C59.8169 12.2316 60.9675 12.3691 62.056 12.7043C66.0897 13.9528 67.8788 17.3086 66.7357 21.3989C66.4965 22.2538 66.182 23.0881 65.8845 23.9845C68.2761 24.0466 70.6075 24.2764 71.9012 26.6134C73.1008 28.7809 72.9162 31.0313 71.9031 33.2854C72.0161 33.34 72.1159 33.4172 72.227 33.4398C75.7824 34.163 77.4057 36.6186 77.4998 40.0912C77.5413 41.5996 77.0893 42.9385 76.144 44.123C75.9914 44.3151 75.9312 44.6428 75.95 44.897C76.1119 47.0382 76.0611 49.136 74.4096 50.7744C73.854 51.3262 73.1761 51.8158 72.4624 52.1265C71.8805 52.3807 71.6319 52.7084 71.4794 53.279C68.5266 64.3501 65.5587 75.4156 62.5946 86.483C62.0692 88.4452 60.508 89.4132 58.7849 88.8332C57.7492 88.4848 57.1617 87.7315 56.8829 86.6939C55.593 81.8711 54.2917 77.0521 52.998 72.2293C51.2843 65.8397 49.5725 59.4501 47.8664 53.0606C47.7571 52.65 47.5782 52.392 47.147 52.2207C45.0454 51.3864 43.7855 49.8234 43.4955 47.5843C43.375 46.6578 43.5313 45.6974 43.5068 44.7539C43.4993 44.4639 43.3637 44.1419 43.1961 43.8971C41.7724 41.8218 41.1246 37.6901 44.1264 35.5151C44.9248 34.937 45.8495 34.534 46.7402 34.0368C46.486 33.4568 46.164 32.809 45.9135 32.1367C44.7045 28.8713 45.6762 26.0691 48.7062 24.3329C50.4143 23.3536 52.2541 22.5985 53.9396 21.5834C54.9904 20.9507 56.0073 20.1409 56.7869 19.2031C58.1541 17.5572 57.5722 15.6044 55.6212 14.7249C55.416 14.6327 55.1448 14.6007 55.0167 14.4462C54.7324 14.1054 54.3313 13.7024 54.3331 13.3276C54.335 12.9491 54.7531 12.5631 55.0186 12.1996C55.0939 12.096 55.2672 12.0659 55.3952 12C56.495 12.0038 57.5967 12.0038 58.6964 12.0038ZM73.6544 45.6315C73.3136 45.6315 73.016 45.6315 72.7185 45.6315C66.892 45.6315 61.0636 45.6315 55.2371 45.6315C54.0526 45.6315 53.5328 45.3057 53.5064 44.5505C53.4782 43.7652 54.0488 43.3773 55.2389 43.3773C61.1163 43.3773 66.9937 43.3641 72.871 43.3943C73.5508 43.398 74.0066 43.1607 74.4039 42.6655C75.5828 41.1947 75.4058 39.5827 74.8314 37.9745C74.2796 36.4284 72.984 35.8296 71.4699 35.5885C71.1988 35.5452 70.9163 35.4887 70.6508 35.5226C70.3834 35.5565 70.0764 35.6337 69.8787 35.8013C69.2911 36.3041 68.7789 36.8992 68.1725 37.3775C67.89 37.5998 67.4287 37.7768 67.1048 37.709C66.7809 37.6412 66.3383 37.2759 66.2856 36.9821C66.2197 36.6111 66.3892 36.0857 66.6472 35.79C67.4626 34.8484 68.3721 33.986 69.2365 33.0839C70.2873 31.9879 70.534 30.6396 70.3984 29.1933C70.2459 27.5587 69.3947 26.6284 67.7695 26.4081C66.7827 26.2744 65.7771 26.2443 64.7791 26.2367C64.4815 26.2348 64.1426 26.4175 63.8921 26.6058C63.0786 27.2197 62.3309 27.9259 61.4929 28.5003C60.8527 28.9372 60.1823 28.7545 59.8546 28.2103C59.5118 27.6397 59.719 26.9956 60.3932 26.5663C62.4383 25.2631 63.796 23.444 64.4985 21.1277C65.167 18.9263 64.7226 16.9188 63.2537 15.7795C61.9844 14.7965 60.4798 14.499 58.9168 14.3841C58.9111 14.4651 58.8998 14.4952 58.9092 14.514C58.962 14.6251 59.0147 14.7362 59.075 14.8436C60.0354 16.5949 60.0015 18.3331 58.9864 20.043C58.1729 21.4121 56.9771 22.4214 55.6325 23.2011C53.8209 24.2519 51.9265 25.1577 50.0753 26.1407C48.1884 27.1444 47.2995 28.6321 47.7873 30.4626C48.0942 31.6151 48.7251 32.7092 49.3616 33.7336C49.8983 34.5942 50.6704 35.3061 51.3088 36.1083C51.7419 36.6525 51.6911 37.2476 51.2429 37.66C50.774 38.0931 50.1412 38.0687 49.6365 37.564C49.2825 37.2118 48.9831 36.8032 48.6196 36.4623C48.4633 36.3173 48.1884 36.1836 47.9906 36.2119C44.7064 36.6638 43.2601 39.7127 44.9908 42.5016C45.3542 43.0873 45.7873 43.4639 46.5613 43.3924C47.3541 43.3189 48.1601 43.3717 48.9605 43.3773C49.9115 43.3848 50.4331 43.7822 50.4444 44.494C50.4557 45.2077 49.9322 45.6239 48.9962 45.6296C47.904 45.6352 46.8137 45.6315 45.7365 45.6315C45.326 48.5899 46.8739 50.3978 49.7269 50.3978C56.3801 50.3996 63.0315 50.3996 69.6847 50.3978C72.5452 50.3978 74.0631 48.6144 73.6544 45.6315ZM63.5136 74.3384C62.6944 73.8243 61.3329 73.894 61.6813 72.4327C61.8639 71.6662 62.3517 71.6041 64.1294 72.0297C64.5512 70.4553 64.9749 68.8791 65.3478 67.4912C60.9506 65.3162 56.657 63.1939 52.3878 61.0828C52.3878 61.0583 52.3728 61.1356 52.3897 61.2015C52.9226 63.2033 53.4443 65.2088 54.013 67.2031C54.0808 67.4404 54.3595 67.6739 54.5968 67.8001C55.7229 68.397 56.8698 68.9488 58.0053 69.5288C58.8283 69.9507 59.1126 70.5702 58.8 71.2086C58.4949 71.8319 57.8358 71.9562 56.9733 71.5438C56.3255 71.235 55.6815 70.9167 54.8924 70.5344C55.2069 71.7284 55.4706 72.7848 55.7662 73.8319C56.0638 74.8808 56.1259 76.167 56.7888 76.8977C57.4592 77.634 58.736 77.8261 59.7548 78.2366C60.5532 78.5586 61.363 78.8543 62.2161 79.1819C62.6624 77.5003 63.0823 75.9391 63.5136 74.3384ZM50.0791 52.6557C50.5122 54.2545 50.902 55.7497 51.3333 57.2318C51.3916 57.4333 51.6402 57.6046 51.8361 57.7383C55.0506 59.9134 58.4328 61.7928 61.9656 63.3954C63.2725 63.9886 64.6171 64.5008 65.9975 65.0733C66.4362 63.433 66.8487 61.8982 67.2611 60.3597C67.1217 60.2806 67.0407 60.2222 66.9504 60.1883C62.12 58.2826 57.559 55.8721 53.3049 52.8873C53.1317 52.7668 52.9001 52.6745 52.691 52.667C51.87 52.6406 51.0451 52.6557 50.0791 52.6557ZM67.8618 58.1112C68.3514 56.277 68.8222 54.5087 69.3024 52.714C65.2442 52.714 61.2745 52.714 57.1315 52.714C60.5909 54.9192 64.0879 56.6461 67.8618 58.1112ZM57.3613 79.713C57.4818 80.1932 57.559 80.5265 57.6475 80.8561C58.107 82.5905 58.5533 84.3286 59.0505 86.0536C59.1258 86.3116 59.412 86.5865 59.6663 86.6864C59.8037 86.741 60.2162 86.4811 60.2726 86.2947C60.751 84.677 61.1747 83.0462 61.6266 81.3758C60.2011 80.8203 58.8603 80.2968 57.3613 79.713Z" fill="black"/>
</svg>
