<svg width="120" height="100" viewBox="0 0 120 100" fill="none" xmlns="http://www.w3.org/2000/svg">
<rect width="120" height="100" fill="white"/>
<path d="M35.4515 86.3687C35.0687 86.3687 34.6878 86.3687 34.305 86.3687C34.1767 86.319 34.0542 86.2481 33.9222 86.2252C31.9239 85.8787 29.9257 85.538 27.9255 85.1992C26.4938 84.9562 25.6746 83.9494 25.7359 82.489C25.7512 82.1081 25.7952 81.7272 25.8431 81.3482C25.9139 80.7855 25.9445 80.2706 25.2765 79.9912C25.0966 79.9165 24.9645 79.6294 24.8918 79.4132C24.664 78.7375 24.4171 78.058 24.2812 77.3613C23.6668 74.2242 24.1664 71.1388 24.7559 68.0553C24.8592 67.5117 24.886 66.9184 24.7884 66.3767C24.1377 62.7803 24.2314 59.2546 25.6306 55.8228C25.7301 55.5778 25.7397 55.2601 25.6861 54.9978C25.2421 52.8139 25.309 50.63 25.6517 48.4461C26.0459 45.9292 26.4613 43.4142 26.8766 40.901C27.2269 38.7707 27.8298 36.7227 28.8538 34.8049C29.6271 33.356 30.3659 31.8879 31.1219 30.4313C31.4071 29.882 31.7095 29.3403 31.9966 28.7891C33.6504 25.6099 36.2171 23.6059 39.6489 22.5609C41.8328 21.8948 43.944 20.9894 46.0705 20.1434C46.4073 20.0095 46.7327 19.6802 46.9165 19.3587C47.6381 18.0954 48.2869 16.792 48.9932 15.5211C49.1329 15.2703 49.3779 14.9985 49.6363 14.9028C52.6528 13.785 55.765 13.1037 58.9921 13.0118C62.7627 12.9027 66.4051 13.5534 69.925 14.8856C70.2063 14.9928 70.4877 15.255 70.637 15.5192C71.3394 16.7652 71.9711 18.0514 72.6869 19.2898C72.8955 19.6477 73.2535 20.0152 73.6286 20.1645C75.8431 21.043 78.05 21.9618 80.322 22.6719C83.6122 23.6997 86.0047 25.7171 87.5972 28.724C88.2556 29.9662 88.8451 31.2448 89.471 32.5042C89.6509 32.866 89.8174 33.2392 90.0395 33.5761C91.4023 35.6413 92.2368 37.9094 92.6406 40.3364C92.9105 41.9576 93.0254 43.6075 93.3718 45.2095C94.0876 48.5208 94.6216 51.8244 93.9115 55.2065C93.8713 55.3979 93.9192 55.6352 93.9958 55.8228C95.4007 59.2527 95.4983 62.7784 94.8398 66.3748C94.748 66.8744 94.7652 67.4103 94.8322 67.9175C95.0657 69.6899 95.4179 71.4489 95.5806 73.227C95.7701 75.2865 95.5748 77.3307 94.7939 79.2773C94.6906 79.5356 94.5681 79.8897 94.3556 79.9854C93.7029 80.284 93.7144 80.7798 93.7871 81.3463C93.8388 81.7483 93.8847 82.154 93.8943 82.5579C93.9288 83.957 93.1402 84.9313 91.7736 85.1839C91.1171 85.3064 90.4529 85.3926 89.7964 85.5151C88.3034 85.7926 86.8143 86.0816 85.3233 86.3668C84.9405 86.3668 84.5596 86.3668 84.1768 86.3668C82.5001 85.672 82.6188 84.1025 82.4561 82.5847C81.6178 82.5847 80.8158 82.4488 80.0731 82.6057C73.8487 83.9169 67.5994 84.1867 61.3004 83.2584C60.5998 83.1551 59.861 83.0345 59.1758 83.1436C53.0605 84.1121 46.9662 84.0394 40.8911 82.845C39.6566 82.6019 38.4335 82.2516 37.1301 82.7703C37.0458 84.1657 37.088 85.6701 35.4515 86.3687ZM80.6627 24.5629C80.5536 24.5132 80.4081 24.4347 80.255 24.3773C77.7553 23.4413 75.2594 22.4977 72.752 21.5885C72.5319 21.5081 72.2008 21.5904 71.973 21.7015C69.7336 22.7982 67.408 23.6442 64.9447 24.0595C63.5398 24.2969 62.1196 24.4481 60.7032 24.6395C60.6841 24.6778 60.6477 24.7199 60.6477 24.7639C60.64 27.8914 60.6247 31.0189 60.6515 34.1464C60.6534 34.3111 60.9769 34.5867 61.1817 34.6173C67.2358 35.5552 73.2611 35.3848 79.2616 34.1311C79.765 34.0259 79.8932 33.8459 79.8913 33.3387C79.8836 31.9568 79.8913 30.5672 80.0176 29.1929C80.1593 27.6541 80.4387 26.1305 80.6627 24.5629ZM38.9082 24.5476C38.9216 24.7103 38.9197 24.806 38.9407 24.896C39.5685 27.5584 39.8346 30.2571 39.7638 32.9923C39.737 34.0144 39.7504 34.0048 40.7323 34.202C46.57 35.3733 52.4308 35.536 58.3241 34.6594C58.8753 34.5771 59.0227 34.38 59.0189 33.8479C58.9959 30.9826 59.0093 28.1173 59.0055 25.252C59.0055 25.0433 58.9806 24.8328 58.9672 24.6108C58.7605 24.5782 58.5997 24.5361 58.437 24.5285C54.5936 24.3313 50.9589 23.3628 47.5213 21.6325C47.3108 21.5273 46.972 21.556 46.7366 21.644C44.8149 22.3561 42.9066 23.1006 40.9887 23.8241C40.3035 24.0806 39.6049 24.3064 38.9082 24.5476ZM80.2148 35.5647C73.7281 36.9888 67.2224 37.1917 60.6764 36.183C60.6515 36.3916 60.6305 36.4854 60.6305 36.5773C60.6286 39.632 60.642 42.6868 60.6152 45.7397C60.6094 46.2948 60.8965 46.3369 61.3119 46.4C67.1745 47.2824 73.0046 47.1063 78.8252 45.9847C79.8262 45.7914 80.3067 45.4239 80.5363 44.3961C81.1967 41.4427 81.1546 38.5468 80.2148 35.5647ZM80.209 47.3092C73.7281 48.7428 67.2377 48.9399 60.7243 47.937C60.6783 48.0729 60.6381 48.138 60.6381 48.203C60.6324 51.3287 60.6362 54.4543 60.6209 57.5799C60.619 58.0086 60.8468 58.0832 61.1894 58.1349C67.341 59.0632 73.4583 58.8699 79.543 57.5684C80.0061 57.4688 80.2511 57.266 80.3277 56.8066C80.5421 55.5165 80.8636 54.2361 80.9708 52.9384C81.1239 51.053 80.8215 49.1964 80.209 47.3092ZM58.9672 59.67C52.3561 60.7055 45.8676 60.472 39.4135 59.0613C38.4105 62.2903 38.3876 65.4044 39.291 68.5396C39.4307 69.0219 39.6585 69.2248 40.1408 69.3282C46.2045 70.6239 52.2968 70.8058 58.4274 69.8947C58.9423 69.8181 59.0189 69.577 59.0169 69.1329C59.0036 66.1968 59.0112 63.2607 59.0074 60.3265C59.0055 60.1427 58.9844 59.9571 58.9672 59.67ZM60.5979 71.6479C60.6975 71.5312 60.6688 71.5484 60.6688 71.5676C60.6534 74.764 60.6343 77.9585 60.6534 81.1549C60.6553 81.3157 60.9884 81.5837 61.1951 81.6162C67.3678 82.577 73.508 82.3607 79.6157 81.0592C80.0272 80.9712 80.2397 80.7702 80.3086 80.3778C80.5325 79.1126 80.8445 77.857 80.9612 76.5823C81.1392 74.6434 80.8311 72.7428 80.2818 71.0316C76.9552 71.3742 73.7186 71.8872 70.4705 71.9886C67.2224 72.0901 63.9628 71.78 60.5979 71.6479ZM59.0074 48.1533C55.6674 48.2834 52.4059 48.5916 49.1578 48.4902C45.9097 48.3887 42.6731 47.8758 39.3312 47.5351C39.4154 47.4336 39.3733 47.4642 39.358 47.5063C39.3025 47.6633 39.247 47.8222 39.2049 47.9829C38.4259 50.9095 38.4373 53.8245 39.2757 56.7415C39.4173 57.2373 39.6298 57.4746 40.1561 57.5875C46.1241 58.8489 52.1207 59.0632 58.1595 58.1828C58.816 58.0871 59.0323 57.9033 59.0227 57.2258C58.9844 54.4102 59.0074 51.5928 59.0074 48.7773C59.0074 48.5189 59.0074 48.2643 59.0074 48.1533ZM60.7204 59.6795C60.6745 59.8308 60.6362 59.8958 60.6362 59.9628C60.6305 63.0884 60.6343 66.214 60.6209 69.3396C60.619 69.776 60.864 69.8354 61.1989 69.887C67.3506 70.8173 73.4659 70.6201 79.5506 69.3167C79.9717 69.2267 80.2397 69.0678 80.3143 68.62C80.5306 67.3299 80.856 66.0513 80.967 64.7517C81.1297 62.8396 80.8292 60.96 80.209 59.0632C73.7377 60.4796 67.2664 60.6978 60.7204 59.6795ZM39.4135 35.5571C38.4182 38.7535 38.3857 41.8447 39.2642 44.9588C39.4116 45.4813 39.6432 45.7263 40.1925 45.8431C46.1853 47.1101 52.2068 47.3092 58.2686 46.4154C58.837 46.3311 59.0246 46.1589 59.0189 45.5789C58.9921 42.6907 59.0074 39.8024 59.0055 36.9141C59.0055 36.6844 58.9863 36.4548 58.9729 36.1734C52.3848 37.1936 45.9116 36.9926 39.4135 35.5571ZM39.4384 70.8115C39.3427 71.0852 39.2585 71.2805 39.203 71.4833C38.4201 74.4099 38.4373 77.325 39.2738 80.2419C39.4154 80.7396 39.6374 80.9712 40.16 81.0822C46.2006 82.3665 52.2681 82.5541 58.3757 81.6507C58.9117 81.5722 59.0208 81.3521 59.0169 80.8621C58.9978 77.9508 59.0074 75.0377 59.0055 72.1265C59.0055 71.9178 58.9787 71.7111 58.9576 71.424C52.3887 72.4423 45.8982 72.2375 39.4384 70.8115ZM37.71 70.8555C33.6025 71.2939 29.8625 70.488 26.2833 68.4688C26.1014 69.6401 25.8966 70.7139 25.7722 71.7972C25.5234 73.9658 25.466 76.1344 26.1608 78.2437C26.2546 78.5289 26.4785 78.8543 26.7331 78.994C29.4204 80.4716 32.3163 81.1683 35.3768 81.1626C36.1692 81.1607 36.9635 81.0458 37.821 80.9769C36.8142 77.5738 36.7779 74.2759 37.71 70.8555ZM82.0006 80.9654C82.0542 80.9788 82.2073 81.0343 82.3642 81.0516C84.9616 81.3195 87.5321 81.1587 89.984 80.2477C93.745 78.8504 93.6187 79.2696 93.9804 75.1142C94.1719 72.9055 93.789 70.7235 93.2933 68.4917C89.7313 70.5148 85.9837 71.2843 82.1077 70.8843C82.2743 72.5897 82.5786 74.2434 82.5595 75.8952C82.5422 77.5661 82.2054 79.2351 82.0006 80.9654ZM37.8191 69.2114C36.7894 65.7508 36.7836 62.3917 37.7464 58.9752C33.9604 58.9828 30.4291 58.2172 27.0604 56.6324C26.9608 56.887 26.8843 57.0612 26.823 57.2392C25.8124 60.1619 25.7895 63.1382 26.4096 66.1317C26.4766 66.4533 26.7369 66.8246 27.0164 66.9988C28.7753 68.0955 30.6989 68.7941 32.7393 69.1425C34.3892 69.4239 36.0467 69.4449 37.8191 69.2114ZM81.8302 69.1521C82.0025 69.2114 82.0886 69.2592 82.1786 69.2688C85.9817 69.6593 89.5342 68.909 92.7976 66.8954C92.9909 66.7768 93.1574 66.5069 93.2053 66.281C93.6455 64.1871 93.8082 62.0702 93.4617 59.9513C93.2799 58.8412 92.9526 57.756 92.6693 56.5731C89.1628 58.2536 85.6181 58.958 81.88 58.9886C82.858 62.4185 82.8274 65.7604 81.8302 69.1521ZM91.7296 45.3282C88.6097 46.9321 85.3731 47.5485 81.9144 47.3398C82.8446 50.7085 82.8236 54.0006 81.8742 57.2621C81.9853 57.31 82.0274 57.3406 82.0714 57.3444C82.213 57.3559 82.3566 57.3617 82.5001 57.3597C85.664 57.3081 88.6824 56.6343 91.5745 55.3347C92.1525 55.0744 92.4033 54.726 92.4894 54.1308C92.9201 51.1698 92.4473 48.293 91.7296 45.3282ZM27.8834 45.3741C27.7456 45.9904 27.6059 46.5685 27.491 47.1503C27.0355 49.4529 26.7905 51.767 27.1427 54.1136C27.225 54.6591 27.3972 55.0457 27.9734 55.3003C29.9027 56.1558 31.8933 56.797 33.9777 57.0956C35.2084 57.2717 36.4563 57.3119 37.8095 57.4229C36.7932 53.9662 36.8028 50.6798 37.6966 47.3877C32.2914 47.1216 32.2914 47.1216 27.8834 45.3741ZM37.6928 35.6528C35.2084 35.982 32.8905 36.1122 30.7678 34.8125C30.6894 34.8967 30.6319 34.9427 30.5956 35.0001C29.0682 37.5572 28.4002 40.3613 28.27 43.307C28.2605 43.5099 28.5016 43.8448 28.6988 43.9175C30.2128 44.4764 31.7172 45.0947 33.279 45.4813C34.726 45.8411 36.24 45.9158 37.7981 45.6517C36.8142 42.3232 36.7836 39.031 37.6928 35.6528ZM81.8474 45.5981C81.9623 45.644 82.0254 45.688 82.0924 45.6938C85.2697 45.9904 88.2556 45.3416 91.0596 43.8467C91.2281 43.7568 91.3716 43.4333 91.3601 43.2266C91.2281 40.48 90.6156 37.8539 89.2834 35.4231C89.1628 35.2049 89.0155 35.0001 88.8796 34.7876C86.6823 36.137 84.3529 35.9514 81.9374 35.6662C82.8485 39.033 82.8159 42.327 81.8474 45.5981ZM58.9691 18.7481C55.9009 18.6007 52.9744 17.9404 50.1512 16.7499C49.5157 17.9404 48.9185 19.0639 48.3022 20.2219C51.7092 21.9082 55.2061 22.8403 58.9691 22.9283C58.9691 21.4947 58.9691 20.1492 58.9691 18.7481ZM60.6592 22.936C64.4604 22.8135 67.965 21.9158 71.3318 20.2085C70.6963 19.0256 70.0934 17.9021 69.4694 16.7422C66.6233 17.9787 63.6833 18.5931 60.6592 18.7539C60.6592 20.1741 60.6592 21.5043 60.6592 22.936ZM31.4971 33.4057C31.9699 33.6182 32.3431 33.8325 32.745 33.955C34.4121 34.4661 36.0984 34.2881 37.7693 33.9799C37.932 33.9493 38.1483 33.578 38.1464 33.3674C38.1254 31.842 38.11 30.3146 37.9818 28.7967C37.8842 27.6292 37.6239 26.475 37.4114 25.1639C34.2667 27.1832 32.969 30.2667 31.4971 33.4057ZM82.2379 25.3209C81.6063 28.012 81.3862 30.6878 81.457 33.3942C81.4685 33.8172 81.6216 34.0201 82.0216 34.0393C83.281 34.0986 84.5462 34.2421 85.798 34.1713C86.5674 34.1273 87.3158 33.7541 88.0719 33.5301C87.0478 30.0466 84.1711 26.0176 82.2379 25.3209ZM67.341 15.7814C62.3206 14.2348 57.2982 14.2253 52.2777 15.7833C57.2962 17.5806 62.3148 17.5806 67.341 15.7814ZM92.1143 81.1875C89.5782 82.2536 86.912 82.7627 84.1366 82.7971C84.1577 83.2144 84.1653 83.5474 84.1921 83.8786C84.2591 84.6767 84.4218 84.803 85.2295 84.6672C86.9196 84.382 88.6078 84.0757 90.2998 83.8058C92.4339 83.4632 92.4358 83.4747 92.1717 81.3253C92.1698 81.3023 92.1545 81.2812 92.1143 81.1875ZM35.4323 82.7914C32.6972 82.7627 30.0405 82.2459 27.4661 81.1683C27.4202 81.6698 27.38 82.0488 27.3513 82.4277C27.292 83.2163 27.5312 83.5072 28.3083 83.6374C30.0941 83.936 31.878 84.2327 33.6618 84.5427C35.4342 84.8509 35.5778 84.7207 35.4323 82.7914Z" fill="black"/>
</svg>
