<svg width="120" height="100" viewBox="0 0 120 100" fill="none" xmlns="http://www.w3.org/2000/svg">
<rect width="120" height="100" fill="white"/>
<path d="M28 27.5273C28 24.6522 28 21.7753 28 18.8985C28.3492 18.2729 28.8544 18 29.5986 18C50.2028 18.0136 70.8069 18.0102 91.4111 18.0119C92.5435 18.0119 92.9843 18.456 92.986 19.5902C92.9894 21.9584 92.9877 24.3284 92.986 26.6967C92.986 28.0325 92.5944 28.4157 91.2348 28.4157C89.9312 28.4157 88.6275 28.4157 87.3272 28.4157C87.3272 33.6557 87.3272 38.8212 87.3272 44.0154C87.8443 44.0154 88.3071 44.0086 88.7716 44.0171C89.6582 44.0341 90.1736 44.507 90.177 45.3801C90.1905 48.7859 90.1905 52.19 90.177 55.5957C90.1736 56.4773 89.6633 56.9553 88.7835 56.9723C88.2867 56.9808 87.79 56.974 87.3154 56.974C87.3154 62.2293 87.3154 67.3812 87.3154 72.5737C88.7089 72.5737 90.0583 72.5703 91.4094 72.5754C92.5452 72.5788 92.9826 73.0145 92.9843 74.152C92.9877 76.5203 92.9606 78.8903 92.9996 81.2585C93.0114 82.04 92.7826 82.6097 92.0977 82.9843C70.7324 82.9843 49.3653 82.9843 28 82.9843C28 79.8125 28 76.639 28 73.4671C28.3645 72.7687 28.9392 72.5161 29.7207 72.5636C30.5429 72.6127 31.3702 72.5754 32.1941 72.5737C32.6908 72.5737 33.1892 72.5737 33.6757 72.5737C33.6757 57.8063 33.6757 43.1407 33.6757 28.4174C32.3348 28.4174 31.0277 28.3818 29.7224 28.4309C28.9426 28.458 28.3713 28.2207 28 27.5273ZM90.3956 25.8575C90.3956 24.0504 90.3956 22.3093 90.3956 20.5819C70.4272 20.5819 50.5113 20.5819 30.5785 20.5819C30.5785 22.3551 30.5785 24.0961 30.5785 25.8575C50.5351 25.8575 70.4509 25.8575 90.3956 25.8575ZM90.4194 75.1539C70.4391 75.1539 50.5079 75.1539 30.5887 75.1539C30.5887 76.939 30.5887 78.68 30.5887 80.4109C50.5554 80.4109 70.473 80.4109 90.4194 80.4109C90.4194 78.6529 90.4194 76.9272 90.4194 75.1539ZM46.4834 49.1826C49.0415 49.1826 51.5624 49.1826 54.0968 49.1826C54.0968 42.2524 54.0968 35.3679 54.0968 28.4631C51.542 28.4631 49.0212 28.4631 46.4834 28.4631C46.4834 35.3916 46.4834 42.2778 46.4834 49.1826ZM54.0832 72.5534C54.0832 65.5977 54.0832 58.6997 54.0832 51.8017C51.5285 51.8017 49.0212 51.8017 46.497 51.8017C46.497 58.737 46.497 65.6367 46.497 72.5534C49.0381 72.5534 51.5319 72.5534 54.0832 72.5534ZM43.8574 49.2063C43.8574 42.2507 43.8574 35.3527 43.8574 28.4563C41.3027 28.4563 38.7971 28.4563 36.2949 28.4563C36.2949 35.395 36.2949 42.2947 36.2949 49.2063C38.8293 49.2063 41.3196 49.2063 43.8574 49.2063ZM64.2921 28.4563C61.7221 28.4563 59.2165 28.4563 56.7126 28.4563C56.7126 35.3933 56.7126 42.2897 56.7126 49.186C59.2622 49.186 61.7661 49.186 64.2921 49.186C64.2921 42.2642 64.2921 35.3815 64.2921 28.4563ZM43.8608 72.55C43.8608 65.5977 43.8608 58.7031 43.8608 51.8017C41.3078 51.8017 38.8039 51.8017 36.2932 51.8017C36.2932 58.7353 36.2932 65.6317 36.2932 72.55C38.8242 72.55 41.3129 72.55 43.8608 72.55ZM64.2666 72.5432C64.2666 65.5994 64.2666 58.6997 64.2666 51.8119C61.7119 51.8119 59.2063 51.8119 56.7058 51.8119C56.7058 58.7438 56.7058 65.6283 56.7058 72.5432C59.2334 72.5432 61.7221 72.5432 64.2666 72.5432ZM66.9028 51.795C66.9028 58.7421 66.9028 65.6384 66.9028 72.5314C69.4592 72.5314 71.9648 72.5314 74.4772 72.5314C74.4772 67.3286 74.4772 62.1665 74.4772 56.9723C74.1059 56.9723 73.7889 56.9723 73.4736 56.9723C71.9479 56.9723 71.6342 56.6519 71.6342 55.1024C71.6342 54.009 71.6342 52.9172 71.6342 51.795C70.0237 51.795 68.4878 51.795 66.9028 51.795ZM74.4958 28.453C71.9309 28.453 69.4236 28.453 66.8977 28.453C66.8977 35.3883 66.8977 42.2863 66.8977 49.1775C68.4929 49.1775 70.0441 49.1775 71.6376 49.1775C71.6376 47.862 71.6241 46.5956 71.6427 45.3309C71.6546 44.5054 72.1293 44.0459 72.9531 44.0205C73.4549 44.0053 73.9567 44.0171 74.4958 44.0171C74.4958 38.7991 74.4958 33.6506 74.4958 28.453ZM77.1082 43.9798C79.6681 43.9798 82.1703 43.9798 84.6962 43.9798C84.6962 38.7839 84.6962 33.6235 84.6962 28.4479C82.1533 28.4479 79.6477 28.4479 77.1082 28.4479C77.1082 33.6252 77.1082 38.7703 77.1082 43.9798ZM77.1286 56.9943C77.1286 62.214 77.1286 67.3727 77.1286 72.5297C79.6867 72.5297 82.1906 72.5297 84.6877 72.5297C84.6877 67.3269 84.6877 62.1649 84.6877 56.9943C82.1516 56.9943 79.6647 56.9943 77.1286 56.9943ZM74.1992 54.3802C78.7221 54.3802 83.1705 54.3802 87.6069 54.3802C87.6069 51.7543 87.6069 49.1826 87.6069 46.5956C83.1196 46.5956 78.6696 46.5956 74.1992 46.5956C74.1992 49.2097 74.1992 51.7831 74.1992 54.3802Z" fill="black"/>
<path d="M80.8564 51.7644C80.2224 51.7644 79.5867 51.7762 78.9527 51.761C78.1237 51.7406 77.5981 51.2338 77.6049 50.4811C77.61 49.7318 78.1372 49.2367 78.9781 49.23C80.2682 49.2198 81.5583 49.2181 82.8484 49.23C83.6519 49.2384 84.2232 49.7877 84.2147 50.5048C84.2063 51.2219 83.6383 51.7457 82.8246 51.761C82.1686 51.7745 81.5125 51.7644 80.8564 51.7644Z" fill="black"/>
</svg>
