<svg width="120" height="100" viewBox="0 0 120 100" fill="none" xmlns="http://www.w3.org/2000/svg">
<rect width="120" height="100" fill="white"/>
<path d="M27.0167 23.4258C27.9119 23.4258 28.6914 24.219 28.6688 25.1073C28.6461 25.973 27.896 26.7027 27.0258 26.7073C26.1147 26.7118 25.3556 25.939 25.3805 25.0325C25.4031 24.1623 26.1533 23.4258 27.0167 23.4258Z" fill="black"/>
<path d="M17 27.2879C17.1178 26.9185 17.2289 26.5469 17.3513 26.1797C17.6549 25.2664 18.1694 24.5254 19.0124 24.011C20.7211 22.9685 22.4072 21.8875 24.116 20.8428C25.3193 20.1062 26.5544 19.4218 27.7464 18.6717C27.9663 18.5335 28.1974 18.1732 28.1793 17.9352C28.0932 16.8383 27.9187 15.7483 27.7782 14.656C27.7464 14.4044 27.7147 14.1506 27.6807 13.8991C27.5742 13.1376 27.7057 12.4668 28.492 12.1314C29.3101 11.7824 29.888 12.1722 30.4025 12.7886C31.6693 14.3092 32.927 15.8367 34.2369 17.3188C34.9417 18.1165 35.7122 18.8598 36.5054 19.5691C38.1734 21.0558 39.1161 22.9708 39.7053 25.0557C40.1336 26.5718 40.392 28.1378 40.6775 29.6901C40.8362 30.5581 40.3285 31.2538 39.5444 31.3943C38.6923 31.5439 38.0623 31.0431 37.8538 30.1366C37.4346 28.2987 37.0674 26.4403 36.5054 24.6455C36.0726 23.2654 35.2137 22.1708 33.9491 21.2847C32.9157 20.5595 32.2041 19.3788 31.1775 18.2026C31.2908 19.2156 31.3815 20.0224 31.4744 20.8292C31.5038 21.0807 31.565 21.3323 31.5764 21.5838C31.6149 22.411 31.1209 23.0523 30.3685 23.1792C29.6682 23.2971 29.0223 22.8552 28.7753 22.0847C28.7164 21.9034 28.6824 21.7153 28.6076 21.4161C27.8099 21.9034 27.0643 22.3475 26.3278 22.8099C24.4174 24.011 22.5024 25.2098 20.6101 26.4403C20.3563 26.6058 20.1025 26.9321 20.0549 27.2177C19.9189 28.038 19.8894 28.8743 19.8101 29.8057C20.7234 29.8057 21.4803 29.8057 22.235 29.8057C25.1471 29.8034 28.0569 29.808 30.969 29.7921C31.9707 29.7876 32.5826 30.2159 32.6642 31.0476C32.7457 31.8861 32.2381 32.4572 31.2614 32.6249C31.0166 32.6657 30.7719 32.7087 30.4433 32.7631C30.6948 38.8162 31.1843 44.7492 35.1479 49.7417C35.0528 49.5287 34.9598 49.3134 34.8647 49.1003C34.5043 48.2913 34.7332 47.5185 35.4448 47.1355C36.1541 46.7548 37.0221 46.9565 37.3688 47.7837C37.9558 49.1797 38.502 50.6119 38.8532 52.0804C39.4968 54.7636 39.1048 57.4763 38.8079 60.1754C38.6855 61.2972 38.5292 62.4326 38.5722 63.5521C38.6515 65.5781 39.1796 65.7073 40.8974 65.4376C40.5234 64.4314 40.077 63.4637 39.8186 62.4484C39.6555 61.8071 39.6011 61.0388 39.7937 60.4202C40.6662 57.6486 41.6339 54.9064 42.5948 52.1643C42.7693 51.6657 42.7307 51.285 42.4429 50.8317C41.303 49.046 40.188 47.2443 39.098 45.4268C38.4748 44.3843 39.0436 43.1492 40.1563 43.1946C40.6141 43.2127 41.2282 43.53 41.473 43.9062C42.8803 46.0545 44.2264 48.2482 45.5227 50.4669C45.7448 50.8476 45.7697 51.455 45.6564 51.8991C45.3867 52.962 44.963 53.9863 44.6389 55.0379C44.5664 55.2713 44.555 55.6271 44.6842 55.7993C46.1278 57.7437 47.7867 59.4661 49.9577 60.6173C50.0778 60.6808 50.2161 60.708 50.4314 60.7805C50.3339 59.9918 50.2251 59.2757 50.1594 58.5528C49.9033 55.7359 50.2206 53.0073 51.6551 50.5213C52.1288 49.7032 52.7814 48.9689 53.4432 48.2822C53.9644 47.7383 54.8437 47.8245 55.3559 48.3344C55.8612 48.8375 55.9746 49.6216 55.4828 50.1836C51.8455 54.3421 52.4687 58.904 54.3814 63.4524C55.8794 67.0149 57.6584 70.4663 58.617 74.2305C58.975 75.6379 59.179 77.1177 59.2153 78.5704C59.2629 80.4536 58.2634 81.6003 56.3938 81.7385C54.6601 81.8654 52.9016 81.6637 51.1543 81.6592C49.2665 81.6524 47.372 81.6184 45.4933 81.7657C44.2423 81.8632 43.1455 82.5068 42.1121 83.5017C49.1328 83.5017 56.0199 83.5017 63.0157 83.5017C62.8027 81.9833 62.5965 80.483 62.3766 78.9851C61.9053 75.7421 61.4294 72.5014 60.9512 69.2607C60.8537 68.599 60.9693 68.0143 61.5653 67.6199C62.1274 67.246 62.6849 67.3435 63.2378 67.6653C64.831 68.5899 66.4649 69.4193 68.3142 69.7071C71.2716 70.1649 73.3724 69.0431 74.6437 66.3418C74.7525 66.1129 74.8454 65.875 74.9338 65.637C75.3531 64.513 75.8108 64.139 76.6471 64.2501C77.4539 64.3566 77.7938 64.9118 77.8958 66.0834C78.2924 70.5887 79.4028 74.8651 81.9886 78.6655C84.3137 82.083 87.6972 83.7781 91.6087 84.6076C92.701 84.8387 93.8092 84.9951 94.9219 85.0835C93.6075 84.5169 92.2568 84.0252 90.9878 83.3725C85.1998 80.4015 82.2311 75.5585 81.8073 69.1429C81.6758 67.1486 81.6532 65.1158 81.8775 63.1328C82.1925 60.3363 81.0277 58.3579 78.8838 56.8395C78.0544 56.2503 77.5536 55.55 77.166 54.6322C74.6233 48.638 70.1317 44.6472 64.1896 42.1838C58.9388 40.006 53.416 39.3057 47.7889 39.1675C46.2366 39.1289 44.6661 39.2241 43.1387 39.0066C40.6685 38.653 39.175 36.9896 38.2572 34.7755C37.915 33.9484 38.2572 33.1824 39.0005 32.8628C39.7506 32.541 40.5257 32.8243 40.8747 33.6651C41.6679 35.5823 43.0503 36.3551 45.1261 36.312C50.973 36.1897 56.7564 36.6882 62.3699 38.474C68.2802 40.355 73.395 43.4235 77.0255 48.5814C78.0589 50.0499 78.8113 51.7133 79.7269 53.2679C80.017 53.7597 80.3478 54.2696 80.7829 54.6254C82.9404 56.384 84.5947 58.4463 84.7488 61.3448C84.8214 62.7204 84.6537 64.1096 84.5902 65.492C84.4724 68.0483 84.6151 70.5819 85.4219 73.0317C86.9357 77.6276 90.2988 80.3788 94.7112 81.8405C97.1836 82.6609 99.8079 83.0393 102.373 83.5606C103.085 83.7056 103.617 83.973 103.794 84.6846C103.985 85.4552 103.581 85.9764 102.953 86.3707C101.408 87.3361 99.6946 87.8438 97.9088 87.948C92.7531 88.2517 87.8808 87.25 83.5727 84.2903C80.2096 81.981 78.213 78.6089 76.8624 74.8401C76.3321 73.3603 75.9445 71.8283 75.4686 70.2397C72.0557 73.528 68.2122 73.0861 64.1692 71.4023C64.5975 74.3642 65.01 77.2084 65.4225 80.0547C65.6445 81.5912 65.8734 83.1277 66.0797 84.6688C66.2179 85.7022 65.6763 86.3548 64.6429 86.4523C64.4752 86.4682 64.3029 86.4614 64.1352 86.4614C56.0222 86.4614 47.9091 86.4659 39.7937 86.4478C39.3359 86.4478 38.8215 86.3435 38.4317 86.1169C37.7745 85.7339 37.6657 84.9724 38.0918 84.1611C39.6555 81.1924 42.069 79.2298 45.4162 78.9035C47.9544 78.6565 50.5424 78.899 53.1078 78.933C53.9259 78.9443 54.7463 78.9828 55.5644 79.0191C56.2329 79.0485 56.5162 78.7041 56.4074 78.0854C56.1853 76.8095 56.0856 75.4792 55.6369 74.2826C54.4086 71.0102 53.0285 67.7967 51.6937 64.5651C51.6189 64.3838 51.4194 64.1685 51.2427 64.1254C48.0994 63.3798 45.7584 61.4332 43.6554 59.1171C43.5828 59.0355 43.4945 58.9698 43.3403 58.8293C43.0571 59.6496 42.7693 60.3997 42.5517 61.1725C42.4837 61.4128 42.5721 61.7232 42.6627 61.9725C43.1749 63.3776 43.7211 64.7713 44.2332 66.1764C44.7159 67.4998 44.1313 68.3587 42.7375 68.3769C41.4662 68.3927 40.1903 68.4267 38.9235 68.3542C38.4589 68.327 37.9354 68.1117 37.566 67.8194C36.1723 66.7225 35.6103 65.186 35.6941 63.475C35.7961 61.3606 36.0431 59.253 36.2289 57.1432C36.238 57.0299 36.2584 56.9188 36.2743 56.8078C36.4873 55.3733 36.2856 54.3308 34.8193 53.3948C31.8846 51.5184 30.4455 48.4477 29.394 45.2274C28.1748 41.4904 27.7057 37.6287 27.6082 33.7127C27.6014 33.4067 27.5742 33.1031 27.5493 32.6838C24.8366 32.6838 22.1851 32.6657 19.5359 32.6906C17.6957 32.7065 17.3989 32.4798 17.136 30.651C17.1201 30.4901 17.0499 30.3337 17 30.1728C17 29.2119 17 28.2511 17 27.2879Z" fill="black"/>
<path d="M39 28L40 35" stroke="black" stroke-width="2.8"/>
</svg>
