<svg width="120" height="100" viewBox="0 0 120 100" fill="none" xmlns="http://www.w3.org/2000/svg">
<rect width="120" height="100" fill="white"/>
<path d="M26.2525 85.0449C25.2837 84.5568 24.9876 83.7708 25.0004 82.7015C25.0479 78.9397 25.0351 75.1779 25.0059 71.4161C25.0004 70.5771 25.2691 69.9465 25.8595 69.3561C33.1254 62.1121 40.3748 54.8517 47.637 47.6023C47.9825 47.2569 48.1579 46.9936 47.9624 46.4453C43.6047 34.1856 50.2472 20.5093 62.5782 16.2979C75.5763 11.8598 89.4628 19.1878 93.146 32.4254C96.747 45.3705 88.6037 58.8713 75.4264 61.7776C71.0505 62.7428 66.733 62.5033 62.5032 61.0026C62.0481 60.8417 61.7776 60.913 61.4467 61.253C59.8857 62.8524 58.2826 64.4098 56.7234 66.0092C56.1751 66.5722 55.5646 66.8427 54.7804 66.8208C53.7129 66.7934 52.6418 66.8135 51.4719 66.8135C51.4719 67.817 51.4737 68.7657 51.4701 69.7143C51.4683 70.0561 51.4792 70.3998 51.4408 70.7398C51.3513 71.5623 50.7609 72.1418 49.8999 72.2076C49.3168 72.2533 48.7283 72.2167 48.0538 72.2167C48.0538 72.7962 48.0629 73.2677 48.0519 73.7393C48.0227 74.9988 47.403 75.6312 46.1491 75.6458C44.8312 75.6623 43.5151 75.6495 42.1204 75.6495C42.1204 76.9674 42.0948 78.214 42.1296 79.4606C42.1515 80.2466 41.8992 80.8645 41.3253 81.4037C40.5119 82.1696 39.7496 82.9885 38.9435 83.7617C38.4738 84.2132 37.962 84.619 37.4703 85.0449C33.7322 85.0449 29.9924 85.0449 26.2525 85.0449ZM48.0209 68.7273C48.0209 67.5794 48.0154 66.4863 48.0227 65.3932C48.03 64.0296 48.6698 63.3697 50.0261 63.3533C51.3257 63.3368 52.6253 63.3752 53.9249 63.3313C54.2467 63.3204 54.6378 63.1632 54.8663 62.9402C56.5333 61.3188 58.2004 59.6957 59.798 58.0067C60.6735 57.0818 61.5363 56.8898 62.7226 57.3925C65.9141 58.7433 69.2573 59.1491 72.6974 58.7561C83.6848 57.4985 91.6947 47.3537 90.4042 36.3334C89.0259 24.5618 77.8356 16.477 66.2102 18.8533C53.9067 21.3684 46.8364 34.575 51.5523 46.2314C52.1373 47.6754 52.0605 48.0575 50.9766 49.1432C43.6412 56.4786 36.3077 63.8157 28.9742 71.1529C28.7988 71.3284 28.5099 71.5185 28.499 71.7122C28.4496 72.6682 28.477 73.6297 28.477 74.5893C28.5538 74.6295 28.6306 74.6697 28.7074 74.71C28.8682 74.4888 29.0035 74.2402 29.1954 74.0483C35.0904 68.1423 40.9926 62.2437 46.893 56.3433C47.0868 56.1496 47.2732 55.9485 47.4871 55.7785C48.1159 55.2758 48.986 55.3197 49.5435 55.8644C50.1065 56.4164 50.1668 57.2664 49.6733 57.9153C49.5088 58.131 49.3077 58.3211 49.1139 58.5148C42.3928 65.2397 35.6698 71.9608 28.9505 78.6893C28.764 78.8757 28.5045 79.1024 28.4862 79.3272C28.4277 80.0657 28.4642 80.8115 28.4642 81.5207C28.5995 81.5682 28.6416 81.5956 28.6836 81.5956C30.2336 81.6011 31.7837 81.6102 33.3337 81.6084C34.2897 81.6066 35.3572 81.8515 36.1706 81.5061C37.0115 81.1496 37.6256 80.232 38.2928 79.5173C38.4994 79.2961 38.6547 78.9379 38.6621 78.6363C38.7004 77.2014 38.6767 75.7646 38.6803 74.3279C38.684 72.8272 39.3 72.2076 40.7915 72.2039C42.0382 72.2003 43.2866 72.2039 44.546 72.2039C44.7361 71.2041 44.3175 70.1494 45.0962 69.336C45.9042 68.4878 46.9863 68.9064 48.0209 68.7273Z" fill="black"/>
<path d="M71.0486 31.3798C71.1327 27.7807 74.0756 24.9237 77.6272 24.995C81.1934 25.0662 84.065 28.0567 83.9755 31.6083C83.8877 35.1452 80.8772 38.0351 77.3969 37.9236C73.8087 37.8085 70.9664 34.8802 71.0486 31.3798ZM77.5047 34.4598C79.1626 34.4634 80.5116 33.1364 80.5299 31.4858C80.5482 29.8297 79.1462 28.4314 77.4865 28.4478C75.8322 28.4661 74.5106 29.8096 74.5161 31.4712C74.5198 33.1382 75.8377 34.4561 77.5047 34.4598Z" fill="black"/>
</svg>
