<svg width="120" height="100" viewBox="0 0 120 100" fill="none" xmlns="http://www.w3.org/2000/svg">
<rect width="120" height="100" fill="white"/>
<path d="M101 31.9877C101 19.3123 90.6877 9 78.0123 9C66.6676 9 57.2173 17.261 55.3577 28.0833L29.9963 53.4445C29.3092 54.1316 29.1037 55.1649 29.4755 56.0626C29.8473 56.9602 30.7232 57.5456 31.6949 57.5456H37.6884L19.3565 87.3355C18.7733 88.283 18.9171 89.5067 19.7037 90.2933C20.2767 90.8664 21.4883 91.3626 22.6614 90.6405L52.4513 72.3082V78.3017C52.4513 79.2734 53.0365 80.1494 53.9344 80.5212C54.8319 80.8929 55.8655 80.6876 56.5524 80.0003L81.9095 54.6434C92.7351 52.7871 101 43.3351 101 31.9877ZM63.5742 20.9488L66.6066 23.9812C71.0285 28.4031 71.0285 35.5725 66.6066 39.9944L63.5742 43.0268C61.2266 39.9638 59.8293 36.1361 59.8293 31.9877C59.8293 27.8393 61.2266 24.0118 63.5742 20.9488ZM56.0255 65.912C55.2659 65.4876 54.3357 65.507 53.5945 65.9631L28.7363 81.2606L44.0337 56.4024C44.49 55.6612 44.5095 54.7312 44.0849 53.9716C43.6603 53.2118 42.8581 52.7411 41.9877 52.7411H37.4946L55.2236 35.0123C56.5779 45.2719 64.7236 53.419 74.9824 54.7759L57.2559 72.5021V68.0091C57.2559 67.1388 56.7852 66.3366 56.0255 65.912ZM78.0123 50.1709C73.8631 50.1709 70.0347 48.7729 66.9714 46.4245L70.0041 43.3918C76.3024 37.0935 76.3024 26.8819 70.0041 20.5836L66.9714 17.5509C70.0347 15.2027 73.8629 13.8047 78.0123 13.8047C82.1616 13.8047 85.9898 15.2027 89.0531 17.5511L86.0204 20.5838C79.7221 26.8821 79.7221 37.0937 86.0204 43.392L89.0531 46.4247C85.9898 48.7729 82.1614 50.1709 78.0123 50.1709ZM89.418 39.9944C84.9961 35.5725 84.9961 28.4031 89.418 23.9812L92.4504 20.9488C94.7978 24.0118 96.1953 27.8393 96.1953 31.9877C96.1953 36.1361 94.7978 39.9638 92.4504 43.0268L89.418 39.9944Z" fill="black"/>
</svg>
