<svg width="120" height="100" viewBox="0 0 120 100" fill="none" xmlns="http://www.w3.org/2000/svg">
<rect width="120" height="100" fill="white"/>
<path d="M57.1639 35.7159C57.3431 34.572 57.7923 33.6858 58.7742 33.1015C58.9534 32.996 59.0688 32.5835 59.0271 32.3454C58.87 31.4298 58.2955 30.762 57.4388 30.4773C56.5771 30.1901 55.6689 30.0035 54.7655 29.893C53.705 29.7629 52.6248 29.7997 51.5594 29.6917C49.0923 29.4364 47.7962 28.1624 47.5261 25.71C47.4304 24.8311 47.4598 23.9351 47.4451 23.0465C47.4353 22.3812 47.7692 21.9811 48.4393 22.0007C49.0629 22.0179 49.3427 22.418 49.3648 23.0342C49.3992 23.9523 49.4139 24.8729 49.5072 25.7861C49.625 26.9202 50.1553 27.5315 51.2919 27.6738C52.8065 27.8629 54.3432 27.8776 55.8603 28.0519C56.6115 28.1378 57.3627 28.3465 58.0722 28.614C59.6482 29.2081 60.635 30.3496 60.9394 32.0312C61.0401 32.5811 61.3003 32.9272 61.7544 33.32C62.4295 33.8993 62.8517 34.7708 63.382 35.5195C63.3206 35.5858 63.2617 35.6521 63.2003 35.7184C63.5636 35.7184 63.9294 35.7184 64.2927 35.7184C75.747 35.7184 87.2014 35.7699 98.6557 35.684C101.729 35.6595 103.347 37.6307 103.33 40.39C103.261 51.6651 103.263 62.9402 103.327 74.2153C103.342 76.9426 101.695 78.8697 98.69 78.8623C72.9952 78.8059 47.3003 78.8059 21.6054 78.8623C18.6154 78.8672 16.9878 76.9058 17.0001 74.2791C17.059 62.9426 17.0615 51.6061 17.0001 40.2697C16.9854 37.6454 18.608 35.6619 21.6029 35.6816C33.0867 35.7626 44.5729 35.7159 56.0567 35.7159C56.42 35.7159 56.7834 35.7159 57.1639 35.7159ZM19.0106 45.442C46.5123 45.442 73.8985 45.442 101.327 45.442C101.327 43.4511 101.351 41.5241 101.317 39.597C101.297 38.5415 100.607 37.8345 99.5615 37.6847C99.2596 37.6405 98.9503 37.6503 98.6459 37.6503C72.9878 37.6479 47.3297 37.6479 21.6741 37.6503C21.3378 37.6503 20.9966 37.6479 20.6676 37.7068C19.7053 37.8786 19.045 38.5562 19.0253 39.5234C18.9812 41.4774 19.0106 43.434 19.0106 45.442ZM76.7781 76.8543C76.7781 74.8609 76.7781 72.978 76.7781 71.0706C65.6748 71.0706 54.6329 71.0706 43.5714 71.0706C43.5714 73.0321 43.5714 74.9346 43.5714 76.8543C54.6722 76.8543 65.6871 76.8543 76.7781 76.8543ZM93.5447 55.3424C93.5447 59.9649 93.5447 64.4769 93.5447 68.9742C96.1714 68.9742 98.7269 68.9742 101.263 68.9742C101.263 64.3959 101.263 59.8814 101.263 55.3424C98.668 55.3424 96.1419 55.3424 93.5447 55.3424ZM86.6539 53.2926C91.5906 53.2926 96.4365 53.2926 101.273 53.2926C101.273 51.3312 101.273 49.4434 101.273 47.5581C96.3702 47.5581 91.5243 47.5581 86.6539 47.5581C86.6539 49.4925 86.6539 51.3558 86.6539 53.2926ZM33.6759 55.3719C28.7392 55.3719 23.8958 55.3719 19.0573 55.3719C19.0573 57.3333 19.0573 59.2211 19.0573 61.1064C23.9596 61.1064 28.8055 61.1064 33.6759 61.1064C33.6759 59.1695 33.6759 57.3063 33.6759 55.3719ZM19.0008 71.0682C19.0008 72.1704 19.0008 73.2334 19.0008 74.2963C19.0033 76.2209 19.6685 76.896 21.5808 76.8984C24.9759 76.9034 28.371 76.9009 31.766 76.8984C32.0606 76.8984 32.3552 76.8665 32.6817 76.8469C32.6817 74.883 32.6817 73.0001 32.6817 71.0682C28.1181 71.0682 23.6085 71.0682 19.0008 71.0682ZM19.0524 53.2975C22.6512 53.2975 26.1788 53.2975 29.7432 53.2975C29.7432 51.3484 29.7432 49.4704 29.7432 47.536C26.1591 47.536 22.6315 47.536 19.0524 47.536C19.0524 49.4557 19.0524 51.341 19.0524 53.2975ZM27.7621 68.9938C27.7621 67.0299 27.7621 65.1225 27.7621 63.2249C24.8163 63.2249 21.9294 63.2249 19.045 63.2249C19.045 65.179 19.045 67.0643 19.045 68.9938C21.9515 68.9938 24.8163 68.9938 27.7621 68.9938ZM82.7826 55.3473C82.7826 57.3333 82.7826 59.2137 82.7826 61.104C85.7186 61.104 88.5957 61.104 91.4802 61.104C91.4802 59.1499 91.4802 57.2744 91.4802 55.3473C88.5613 55.3473 85.7064 55.3473 82.7826 55.3473ZM91.4777 68.9865C91.4777 67.025 91.4777 65.1176 91.4777 63.2078C89.1898 63.2078 86.9682 63.2078 84.722 63.2078C84.722 65.1692 84.722 67.0766 84.722 68.9865C87.0074 68.9865 89.2291 68.9865 91.4777 68.9865ZM78.8279 76.8248C81.1477 76.8248 83.3644 76.8248 85.6033 76.8248C85.6033 74.8683 85.6033 72.9879 85.6033 71.0657C83.3227 71.0657 81.1035 71.0657 78.8279 71.0657C78.8279 73.0001 78.8279 74.8806 78.8279 76.8248ZM41.5142 71.0829C39.1895 71.0829 36.9727 71.0829 34.729 71.0829C34.729 73.0321 34.729 74.9125 34.729 76.8125C37.0292 76.8125 39.2656 76.8125 41.5142 76.8125C41.5142 74.8658 41.5142 73.0075 41.5142 71.0829ZM66.9882 63.2323C65.039 63.2323 63.1119 63.2323 61.1898 63.2323C61.1898 65.1937 61.1898 67.079 61.1898 68.9644C63.1561 68.9644 65.0636 68.9644 66.9882 68.9644C66.9882 67.025 66.9882 65.1594 66.9882 63.2323ZM51.4171 55.3277C51.4171 57.3235 51.4171 59.2309 51.4171 61.1236C53.376 61.1236 55.2613 61.1236 57.1467 61.1236C57.1467 59.1622 57.1467 57.2572 57.1467 55.3277C55.2123 55.3277 53.3515 55.3277 51.4171 55.3277ZM74.8167 68.9963C74.8167 67.0029 74.8167 65.1201 74.8167 63.2127C72.8602 63.2127 70.9552 63.2127 69.0502 63.2127C69.0502 65.1765 69.0502 67.084 69.0502 68.9963C71.0018 68.9963 72.8872 68.9963 74.8167 68.9963ZM76.8886 68.9742C78.8402 68.9742 80.7451 68.9742 82.6746 68.9742C82.6746 67.025 82.6746 65.1397 82.6746 63.2176C80.7181 63.2176 78.8107 63.2176 76.8886 63.2176C76.8886 65.1667 76.8886 67.052 76.8886 68.9742ZM45.4395 47.5557C43.4486 47.5557 41.5437 47.5557 39.6412 47.5557C39.6412 49.5122 39.6412 51.395 39.6412 53.2951C41.605 53.2951 43.51 53.2951 45.4395 53.2951C45.4395 51.3582 45.4395 49.495 45.4395 47.5557ZM63.1365 53.2975C65.12 53.2975 67.0274 53.2975 68.9348 53.2975C68.9348 51.341 68.9348 49.4532 68.9348 47.5532C66.9759 47.5532 65.0709 47.5532 63.1365 47.5532C63.1365 49.4827 63.1365 51.3459 63.1365 53.2975ZM53.3417 68.9619C55.2908 68.9619 57.2179 68.9619 59.14 68.9619C59.14 67.0005 59.14 65.1152 59.14 63.2298C57.1737 63.2298 55.2663 63.2298 53.3417 63.2298C53.3417 65.1692 53.3417 67.0349 53.3417 68.9619ZM80.7206 55.3694C78.7272 55.3694 76.8223 55.3694 74.9222 55.3694C74.9222 57.3308 74.9222 59.2162 74.9222 61.1064C76.8836 61.1064 78.7886 61.1064 80.7206 61.1064C80.7206 59.172 80.7206 57.3088 80.7206 55.3694ZM29.8439 63.2053C29.8439 65.1667 29.8439 67.0545 29.8439 68.9742C31.7955 68.9742 33.7004 68.9742 35.6299 68.9742C35.6299 67.025 35.6299 65.1397 35.6299 63.2053C33.6955 63.2053 31.8126 63.2053 29.8439 63.2053ZM37.6552 68.9816C39.651 68.9816 41.5363 68.9816 43.4143 68.9816C43.4143 67.0152 43.4143 65.1103 43.4143 63.2176C41.4553 63.2176 39.5724 63.2176 37.6552 63.2176C37.6552 65.1594 37.6552 67.0447 37.6552 68.9816ZM45.5009 68.9938C47.4868 68.9938 49.3722 68.9938 51.2919 68.9938C51.2919 67.0422 51.2919 65.1373 51.2919 63.2151C49.3329 63.2151 47.4279 63.2151 45.5009 63.2151C45.5009 65.1618 45.5009 67.0471 45.5009 68.9938ZM65.012 61.131C65.012 59.1843 65.012 57.2842 65.012 55.3473C63.0653 55.3473 61.1898 55.3473 59.2652 55.3473C59.2652 57.2989 59.2652 59.199 59.2652 61.131C61.207 61.131 63.0874 61.131 65.012 61.131ZM49.3059 61.1334C49.3059 59.145 49.3059 57.267 49.3059 55.3792C47.3445 55.3792 45.4469 55.3792 43.5517 55.3792C43.5517 57.3431 43.5517 59.2211 43.5517 61.1334C45.496 61.1334 47.3739 61.1334 49.3059 61.1334ZM76.7928 47.5409C74.8068 47.5409 72.9289 47.5409 71.0411 47.5409C71.0411 49.4974 71.0411 51.395 71.0411 53.3024C72.9952 53.3024 74.8682 53.3024 76.7928 53.3024C76.7928 51.3607 76.7928 49.4852 76.7928 47.5409ZM84.6017 47.536C82.6403 47.536 80.7623 47.536 78.8475 47.536C78.8475 49.4876 78.8475 51.3852 78.8475 53.3123C80.7967 53.3123 82.6746 53.3123 84.6017 53.3123C84.6017 51.3778 84.6017 49.4974 84.6017 47.536ZM35.7379 55.3473C35.7379 57.3333 35.7379 59.2113 35.7379 61.1015C37.6945 61.1015 39.5921 61.1015 41.497 61.1015C41.497 59.1474 41.497 57.2719 41.497 55.3473C39.5552 55.3473 37.6797 55.3473 35.7379 55.3473ZM67.0618 61.1211C69.0478 61.1211 70.9233 61.1211 72.8135 61.1211C72.8135 59.1646 72.8135 57.267 72.8135 55.3596C70.8595 55.3596 68.9864 55.3596 67.0618 55.3596C67.0618 57.2989 67.0618 59.1769 67.0618 61.1211ZM61.0867 47.5434C59.1007 47.5434 57.2228 47.5434 55.3301 47.5434C55.3301 49.5023 55.3301 51.4024 55.3301 53.3049C57.2891 53.3049 59.167 53.3049 61.0867 53.3049C61.0867 51.3631 61.0867 49.4852 61.0867 47.5434ZM37.5521 53.3123C37.5521 51.3312 37.5521 49.4532 37.5521 47.5581C35.598 47.5581 33.7004 47.5581 31.7906 47.5581C31.7906 49.5097 31.7906 51.3852 31.7906 53.3123C33.7274 53.3123 35.6029 53.3123 37.5521 53.3123ZM47.504 47.5286C47.504 49.5171 47.504 51.395 47.504 53.2828C49.4655 53.2828 51.3631 53.2828 53.2582 53.2828C53.2582 51.3214 53.2582 49.441 53.2582 47.5286C51.314 47.5286 49.436 47.5286 47.504 47.5286ZM93.4146 76.8493C93.4146 74.8585 93.4146 72.9805 93.4146 71.0952C91.4581 71.0952 89.5605 71.0952 87.658 71.0952C87.658 73.0517 87.658 74.9247 87.658 76.8493C89.5997 76.8493 91.4753 76.8493 93.4146 76.8493ZM101.327 71.0878C99.3136 71.0878 97.4062 71.0878 95.5086 71.0878C95.5086 73.0468 95.5086 74.9296 95.5086 76.8739C96.8759 76.8739 98.1893 76.9328 99.4952 76.8567C100.595 76.7929 101.287 76.0172 101.319 74.9198C101.354 73.6679 101.327 72.4159 101.327 71.0878ZM59.1498 35.3943C59.2112 35.4704 59.275 35.549 59.3364 35.6251C59.9157 35.6251 60.4951 35.6251 61.0744 35.6251C61.1112 35.5318 61.1481 35.4385 61.1849 35.3452C60.8363 35.139 60.4853 34.7684 60.1391 34.7733C59.8053 34.7782 59.4788 35.1734 59.1498 35.3943Z" fill="black"/>
<path d="M28.2949 42.565C26.9177 42.565 25.5406 42.5527 24.1634 42.5699C23.4908 42.5773 22.9753 42.3564 22.9433 41.6346C22.909 40.8515 23.4441 40.5889 24.1487 40.5889C26.903 40.5889 29.6573 40.5889 32.4117 40.5889C33.0941 40.5889 33.6784 40.7779 33.6808 41.5757C33.6808 42.3613 33.131 42.5748 32.4264 42.5675C31.0492 42.5552 29.6721 42.565 28.2949 42.565Z" fill="black"/>
<path d="M86.6196 41.0577C86.6392 41.8506 85.9863 42.5379 85.1909 42.5576C84.3955 42.5772 83.7131 41.9267 83.6934 41.1289C83.6738 40.331 84.3194 39.651 85.1197 39.6314C85.9175 39.6093 86.6 40.2598 86.6196 41.0577Z" fill="black"/>
<path d="M91.5243 41.0652C91.5415 41.8483 90.8738 42.5406 90.0883 42.5578C89.2855 42.575 88.6325 41.9367 88.6178 41.1217C88.6031 40.3042 89.2291 39.6439 90.0318 39.6291C90.8149 39.6144 91.5072 40.2797 91.5243 41.0652Z" fill="black"/>
<path d="M96.3997 41.0701C96.4095 41.8876 95.7811 42.5455 94.9808 42.5602C94.1952 42.5725 93.5079 41.9048 93.4932 41.1168C93.4784 40.3312 94.1461 39.6439 94.9366 39.6316C95.7418 39.6169 96.3874 40.2527 96.3997 41.0701Z" fill="black"/>
</svg>
