<svg width="120" height="100" viewBox="0 0 120 100" fill="none" xmlns="http://www.w3.org/2000/svg">
<rect width="120" height="100" fill="white"/>
<path d="M65.739 83.7243C65.6398 83.6843 65.5441 83.6321 65.4413 83.6077C62.0154 82.8034 60.3789 79.2416 62.038 76.1255C62.9989 74.3202 63.6309 72.4332 63.8049 70.3894C64.0069 68.0236 63.5839 65.7761 62.6925 63.5861C61.5331 60.7364 60.2971 57.9092 59.3292 54.9933C58.2098 51.6213 58.0009 48.1047 58.33 44.5638C58.3822 44.0068 58.5423 43.528 59.183 43.4201C59.8654 43.3069 60.2902 43.7857 60.2954 44.5778C60.3076 46.5484 60.2501 48.526 60.3981 50.4897C60.5844 52.9704 61.3295 55.3345 62.2974 57.6255C63.1156 59.563 63.9703 61.4867 64.7189 63.4504C66.4389 67.9592 66.1655 72.3775 63.9442 76.66C63.4881 77.5391 63.1922 78.4182 63.4341 79.4035C63.7841 80.8276 65.0497 81.7659 66.6304 81.7676C71.9939 81.7728 77.3575 81.7694 82.7211 81.7694C84.1103 81.7694 85.5012 81.7746 86.8904 81.7676C87.9071 81.7624 88.5825 81.127 88.5338 80.2444C88.485 79.3548 87.7608 78.7995 86.739 78.9109C85.9625 78.9962 85.1931 79.132 84.4201 79.2416C82.8847 79.4592 81.4676 79.1633 80.2717 78.1484C78.7154 76.8288 77.1451 75.518 75.6741 74.1061C73.7487 72.2573 72.8731 69.935 72.8765 67.2576C72.8905 57.7247 72.8818 48.1918 72.8818 38.6588C72.8818 38.3803 72.8818 38.1 72.8818 37.724C69.7012 37.9642 66.9733 37.0329 64.8408 34.6723C62.6978 32.2995 62.0624 29.488 62.6508 26.2692C62.3322 26.2692 62.0641 26.2692 61.796 26.2692C51.4153 26.2692 41.0363 26.2692 30.6556 26.2692C30.438 26.2692 30.2204 26.2779 30.0045 26.264C29.4022 26.2257 28.9948 25.8253 29 25.2873C29.0053 24.7703 29.39 24.3769 29.9558 24.3194C30.1072 24.3038 30.2587 24.3125 30.4119 24.3125C42.0512 24.3125 53.6906 24.3107 65.3299 24.3142C70.0024 24.316 73.7905 27.4216 74.6644 31.9896C74.7984 32.6877 74.828 33.4137 74.828 34.1274C74.8385 45.0722 74.8559 56.0169 74.8193 66.9599C74.8106 69.5747 75.7211 71.6811 77.7178 73.3541C78.933 74.3707 80.1167 75.4257 81.3005 76.4789C82.1205 77.2101 83.0675 77.4607 84.1346 77.311C84.8432 77.2118 85.5517 77.1074 86.2585 76.9942C88.2605 76.6739 89.9282 77.6853 90.3773 79.4975C90.8317 81.3307 89.8638 82.9462 87.9105 83.6147C87.8531 83.6338 87.8078 83.686 87.7574 83.7226C80.4214 83.7243 73.0802 83.7243 65.739 83.7243ZM64.7293 26.2988C64.6771 26.4363 64.6197 26.5547 64.5883 26.68C63.4463 31.2498 66.9629 35.7708 71.6753 35.7951C72.8818 35.8004 72.8818 35.8004 72.8818 34.6323C72.8818 34.3711 72.8835 34.1117 72.8818 33.8506C72.8539 29.3052 69.3374 26.0202 64.7293 26.2988Z" fill="black"/>
<path d="M33.5071 46.1182C32.4208 46.1182 31.3363 46.1286 30.25 46.1147C29.4353 46.1025 28.9827 45.7247 29.0018 45.1154C29.0192 44.5009 29.4875 44.1614 30.3022 44.1597C37.3579 44.1388 44.344 43.4895 51.2047 41.766C54.5802 40.9182 57.8478 39.7762 60.8925 38.0528C61.5575 37.6768 62.1372 37.7899 62.421 38.3174C62.7047 38.8431 62.4906 39.3932 61.8395 39.7623C58.1437 41.86 54.1502 43.1483 50.0296 44.0709C44.5894 45.2912 39.0709 45.8727 33.5071 46.1182Z" fill="black"/>
<path d="M81.5251 18.6407C81.3127 19.0046 81.21 19.3005 81.0115 19.5024C79.3664 21.1719 77.7091 22.8292 76.0449 24.4795C75.5609 24.96 74.9412 24.9757 74.5478 24.5596C74.1665 24.154 74.1961 23.5813 74.6627 23.113C76.3147 21.4505 77.979 19.8001 79.6293 18.1359C79.9723 17.7894 80.3831 17.6241 80.8009 17.8521C81.0847 18.007 81.2675 18.3482 81.5251 18.6407Z" fill="black"/>
<path d="M71.033 23.3896C70.2078 23.3809 69.7099 22.8447 69.8892 22.2441C70.3593 20.6721 70.8815 19.1141 71.4386 17.5699C71.6214 17.0651 72.1001 16.8788 72.6224 17.079C73.1307 17.2722 73.3936 17.6883 73.2282 18.2175C72.7512 19.7425 72.2568 21.2658 71.7015 22.7646C71.5883 23.0658 71.181 23.2573 71.033 23.3896Z" fill="black"/>
<path d="M82.1292 27.1132C81.9777 27.2594 81.7462 27.6459 81.4154 27.7695C79.9984 28.297 78.5569 28.76 77.1172 29.2214C76.5027 29.4181 75.9596 29.1413 75.7994 28.6155C75.634 28.0776 75.9056 27.578 76.5306 27.3639C77.9407 26.8816 79.356 26.4099 80.7765 25.9555C81.5059 25.7222 82.1588 26.1818 82.1292 27.1132Z" fill="black"/>
<path d="M59.5 51C59 48.8333 58.7 43.8 61.5 39" stroke="black" stroke-width="2" stroke-linecap="round"/>
</svg>
