<svg width="120" height="100" viewBox="0 0 120 100" fill="none" xmlns="http://www.w3.org/2000/svg">
<rect width="120" height="100" fill="white"/>
<path d="M42.1189 89.6384C40.3719 88.982 40.0042 88.4522 40.0042 86.5805C40.0042 62.0403 40.0042 37.5022 40 12.9621C40 12.1124 40.054 11.2939 40.7312 10.6728C41.4417 10.0205 42.2644 9.81481 43.1722 10.1784C44.1008 10.5502 44.6284 11.2628 44.6409 12.2682C44.6679 14.4183 44.6866 16.5705 44.6388 18.7206C44.6222 19.458 44.8652 19.6159 45.5591 19.6138C55.2002 19.5931 64.8414 19.591 74.4826 19.6159C75.218 19.618 75.3904 19.3957 75.3779 18.6977C75.3364 16.5996 75.3447 14.4993 75.3738 12.4012C75.3925 11.0799 76.3481 10.1181 77.6049 10.0662C78.8368 10.0142 79.8588 10.9428 79.9918 12.2495C80.0229 12.557 80.0146 12.8706 80.0146 13.1823C80.0146 29.3776 80.0146 45.5729 80.0146 61.7682C80.0146 70.0611 79.998 78.352 80.0313 86.6449C80.0375 88.0804 79.5825 89.1045 78.2115 89.6364C77.8479 89.6364 77.4865 89.6364 77.1229 89.6364C75.7726 89.0775 75.2761 88.0617 75.3467 86.6221C75.4236 85.0453 75.3634 83.4624 75.3634 81.8815C75.3634 81.3185 75.3634 80.7555 75.3634 80.1614C65.0948 80.1614 54.924 80.1614 44.6596 80.1614C44.6596 80.4792 44.6596 80.7576 44.6596 81.036C44.6596 82.8745 44.6596 84.715 44.6596 86.5535C44.6596 88.4606 44.3293 88.9487 42.5905 89.6343C42.4305 89.6384 42.2747 89.6384 42.1189 89.6384ZM44.7177 52.2122C44.7177 55.32 44.7177 58.3841 44.7177 61.4317C54.953 61.4317 65.1239 61.4317 75.3073 61.4317C75.3073 58.3301 75.3073 55.2867 75.3073 52.2122C65.0865 52.2122 54.9156 52.2122 44.7177 52.2122ZM75.3239 38.2605C65.0658 38.2605 54.8949 38.2605 44.7136 38.2605C44.7136 41.3682 44.7136 44.4116 44.7136 47.4508C54.9447 47.4508 65.1177 47.4508 75.3239 47.4508C75.3239 44.3701 75.3239 41.3475 75.3239 38.2605ZM44.6907 75.4104C54.9426 75.4104 65.1115 75.4104 75.3135 75.4104C75.3135 72.3109 75.3135 69.2676 75.3135 66.2117C65.0803 66.2117 54.8928 66.2117 44.6907 66.2117C44.6907 69.3008 44.6907 72.3234 44.6907 75.4104ZM75.3094 33.5012C75.3094 30.4163 75.3094 27.375 75.3094 24.2963C65.0907 24.2963 54.9219 24.2963 44.7074 24.2963C44.7074 27.3833 44.7074 30.4246 44.7074 33.5012C54.926 33.5012 65.0948 33.5012 75.3094 33.5012Z" fill="black"/>
</svg>
