<svg width="120" height="100" viewBox="0 0 120 100" fill="none" xmlns="http://www.w3.org/2000/svg">
<rect width="120" height="100" fill="white"/>
<path d="M60.2211 13.9644C60.3308 14.0082 60.4385 14.0635 60.552 14.094C63.6988 14.9443 65.0029 18.2789 63.2506 20.9938C63.1871 21.0929 63.1236 21.1921 63.0313 21.3408C63.2871 21.4476 63.5199 21.5505 63.7565 21.6458C65.8607 22.4847 67.5822 23.8174 68.8498 25.6744C69.0768 26.008 69.1749 26.6219 69.0171 26.9613C68.8786 27.2587 68.3112 27.4284 67.9034 27.5104C67.4457 27.6019 66.9552 27.5314 66.3666 27.5314C66.3666 28.355 66.3454 29.1291 66.3839 29.9012C66.3916 30.0518 66.6263 30.1986 66.7667 30.334C67.2572 30.8068 67.8265 31.2205 68.2208 31.762C68.4786 32.1166 68.6767 32.2787 69.1133 32.2634C71.0195 32.1967 72.9064 32.2882 74.6779 33.0985C78.5094 34.8468 80.506 37.8572 80.9484 41.9773C81.585 47.8857 82.2679 53.7884 82.9295 59.693C83.2719 62.7396 83.6412 65.7844 83.947 68.8349C84.5087 74.4421 80.6618 79.2656 75.0356 80.0645C74.8375 80.0931 74.6452 80.156 74.2278 80.257C74.5894 80.4915 74.7644 80.6193 74.9529 80.7241C76.359 81.5135 77.0187 83.0253 76.6206 84.5468C76.2474 85.9691 74.9241 87.0215 73.3872 87.0234C64.1258 87.0348 54.8643 87.0348 45.6028 87.0234C44.0717 87.0215 42.7426 85.9538 42.3791 84.5353C41.9867 83.0063 42.6349 81.4925 44.0679 80.7337C44.4449 80.5335 44.5872 80.3238 44.5661 79.9158C44.4853 78.4096 44.7584 76.9854 45.7567 75.6565C45.3374 75.6184 45.0181 75.6031 44.7026 75.5612C41.3693 75.117 39.2823 72.3639 39.667 69.0141C40.4479 62.2363 41.1923 55.4566 41.954 48.6769C42.2137 46.3624 42.431 44.0421 42.7676 41.7371C43.1985 38.7915 45.4663 36.8906 48.4765 36.8353C49.0689 36.8239 49.6613 36.8334 50.2922 36.8334C50.2922 35.9984 50.2922 35.2472 50.2922 34.4998C44.7603 33.68 40.9423 37.1003 40.3749 41.1766C39.7882 45.39 39.3881 49.6283 38.9111 53.8551C38.3571 58.7683 37.8166 63.6815 37.2531 68.5947C37.4723 75.8319 41.4501 76.8557 44.9238 78.0226C45.4259 78.341 45.8182 78.6937 45.674 79.3381C45.5066 80.0854 44.7026 80.3771 43.9602 79.9425C40.8134 79.1932 36.7376 78.463 35.1603 71.7424C34.7795 69.8072 35.17 67.9026 35.3758 65.9941C35.9124 61.0314 36.476 56.0724 37.0434 51.1135C37.4493 47.5482 37.7051 43.9544 38.336 40.4292C39.1919 35.6457 43.4081 32.334 48.3111 32.2596C48.4784 32.2577 48.6477 32.2482 48.815 32.2596C49.7787 32.3283 50.7154 32.3893 51.1385 31.2148C51.2309 30.9574 51.5425 30.6982 51.8137 30.6009C52.6388 30.3016 52.7216 29.701 52.6504 28.967C52.6081 28.5228 52.6427 28.0728 52.6427 27.5314C52.058 27.5314 51.5252 27.6019 51.0231 27.5085C50.6384 27.438 50.1133 27.2454 49.9787 26.9556C49.8267 26.6277 49.9018 26.0424 50.1153 25.7259C51.3886 23.8384 53.1255 22.4924 55.2548 21.6458C55.4548 21.5658 55.6529 21.4857 55.851 21.4018C55.8722 21.3923 55.8856 21.3713 55.9549 21.3084C55.3048 20.4237 54.9162 19.4247 54.9701 18.2999C55.0701 16.2675 56.3877 14.6507 58.3785 14.1073C58.515 14.0692 58.6458 14.0139 58.7805 13.9644C59.2613 13.9644 59.7403 13.9644 60.2211 13.9644ZM64.0488 68.9512C64.4066 68.8425 64.6663 68.8063 64.8798 68.69C68.0919 66.9455 70.2924 64.3316 70.8194 60.7416C71.1983 58.1563 71.1849 55.4757 71.0041 52.8599C70.7309 48.8866 68.6209 45.922 65.1664 43.9144C64.8144 43.7085 64.3643 43.5731 63.9584 43.5693C60.9847 43.5407 58.0111 43.5464 55.0393 43.5636C54.72 43.5655 54.3642 43.636 54.0853 43.7866C50.8654 45.5254 48.6881 48.1545 48.1764 51.7484C47.8071 54.3356 47.8148 57.0162 48.0071 59.6301C48.3053 63.6586 50.4769 66.6309 54.0084 68.6233C54.2603 68.7643 54.5527 68.833 54.9585 68.9836C54.9585 68.0761 54.9335 67.3192 54.9643 66.5661C55.0201 65.1819 55.9145 64.3297 57.3129 64.3183C58.7266 64.3068 60.1423 64.3125 61.5579 64.3164C63.164 64.3221 64.0277 65.1781 64.0488 66.7873C64.0565 67.4717 64.0488 68.1543 64.0488 68.9512ZM66.3608 73.3744C66.5224 73.4259 66.5666 73.4506 66.6109 73.4526C68.8652 73.4583 71.1214 73.4697 73.3757 73.4621C75.9685 73.4545 77.4823 71.7062 77.1745 69.138C76.7918 65.9293 76.434 62.7168 76.0743 59.5042C75.4319 53.7655 74.8029 48.0249 74.1585 42.2862C73.7411 39.4721 69.7634 39.0126 68.267 38.618C67.4457 38.4025 67.236 37.7047 67.5264 37.0946C67.7957 36.5303 68.4132 36.3473 69.1287 36.6618C71.1272 37.0851 75.9531 37.7905 76.1993 41.5197C76.5994 44.3414 76.8783 47.1822 77.1995 50.0153C77.9131 56.3432 78.6056 62.6748 79.3384 69.0008C79.727 72.3506 77.6477 75.1055 74.3163 75.5555C73.997 75.5993 73.6738 75.6146 73.3565 75.6413C73.7219 76.4401 74.0643 77.1856 74.4163 77.9558C74.4663 77.9558 74.5355 77.9616 74.6048 77.9558C79.1057 77.4678 82.2621 73.5441 81.7947 68.9683C81.4812 65.895 81.1119 62.8273 80.7676 59.7578C80.1078 53.878 79.3884 48.002 78.8075 42.1146C78.3286 37.27 74.4086 33.7181 68.7075 34.4865C68.6978 34.7076 68.6786 34.9383 68.6767 35.1709C68.6728 36.027 68.6921 36.883 68.669 37.739C68.6459 38.5894 68.2727 38.944 67.4264 38.9707C67.0994 38.9802 66.7705 38.9726 66.4628 38.9726C66.4166 39.1308 66.3801 39.1995 66.3781 39.2662C66.3704 40.004 66.3974 40.7419 66.3551 41.4759C66.3281 41.9411 66.5089 42.1889 66.8975 42.4406C70.2789 44.6369 72.4544 47.6893 73.0314 51.6664C73.3334 53.7445 73.2757 55.8837 73.2834 57.9942C73.3007 63.1591 71.1656 67.2124 66.7917 70.078C66.6032 70.2019 66.3954 70.4612 66.3858 70.6652C66.3358 71.567 66.3608 72.4688 66.3608 73.3744ZM72.2216 80.3219C72.6448 77.3114 70.8136 75.5154 68.065 75.5707C62.2638 75.6889 56.4569 75.668 50.6538 75.5745C48.4572 75.5402 46.2299 77.157 46.8165 80.3219C47.0839 80.3219 47.3647 80.3219 47.6475 80.3219C53.3313 80.3219 64.295 80.3219 69.9789 80.3219C71.1002 80.3219 71.6042 80.6441 71.6196 81.3666C71.635 82.114 71.1041 82.4629 69.95 82.4629C63.6891 82.4629 52.1522 82.461 45.8913 82.4648C44.9931 82.4648 44.418 82.9491 44.418 83.6736C44.416 84.4 44.9931 84.89 45.8875 84.8919C54.9547 84.8957 64.02 84.8957 73.0872 84.8919C73.9931 84.8919 74.5644 84.4228 74.5779 83.6964C74.5932 82.9491 74.0047 82.4686 73.0545 82.4648C72.0466 82.4591 71.0387 82.4744 70.0327 82.4591C69.2903 82.4477 68.8421 82.0454 68.8286 81.4181C68.8132 80.7527 69.2633 80.339 70.0481 80.3257C70.7636 80.3123 71.4772 80.3219 72.2216 80.3219ZM52.5504 73.4316C52.5869 73.3305 52.6273 73.2657 52.6292 73.2009C52.6369 72.465 52.61 71.7252 52.6523 70.9912C52.6812 70.4993 52.4888 70.2381 52.0772 69.9693C48.7227 67.7844 46.5626 64.7453 45.9798 60.7988C45.6759 58.7454 45.7413 56.6311 45.724 54.5434C45.6798 49.3213 47.8148 45.2242 52.2503 42.3415C52.4119 42.2366 52.6138 42.0383 52.6215 41.8782C52.6562 40.9363 52.6388 39.9926 52.6388 39.0679C52.483 39.0202 52.4157 38.984 52.3484 38.984C51.077 38.9783 49.8056 38.9611 48.5342 38.9783C46.5261 39.0031 45.1296 40.2137 44.8623 42.187C44.6719 43.5998 44.5449 45.0202 44.3872 46.4367C43.8871 50.9228 43.3851 55.409 42.8811 59.897C42.5253 63.0619 42.1387 66.221 41.8155 69.3897C41.5693 71.8015 43.1292 73.4526 45.5913 73.464C47.7013 73.4735 49.8133 73.4678 51.9233 73.464C52.133 73.4621 52.3426 73.4411 52.5504 73.4316ZM66.5089 36.7934C66.5089 36.5208 66.5109 36.2901 66.5089 36.0594C66.5012 35.1099 66.5339 34.1547 66.4666 33.2091C66.4185 32.5227 65.93 32.1204 65.1817 32.1185C61.3925 32.1033 57.6033 32.1033 53.8141 32.1185C53.0659 32.1223 52.5658 32.5265 52.5331 33.211C52.4773 34.3911 52.5177 35.5751 52.5177 36.7953C57.1936 36.7934 61.808 36.7934 66.5089 36.7934ZM54.8431 73.4106C57.9841 73.4106 61.0578 73.4106 64.1585 73.4106C64.1585 72.6079 64.1585 71.8568 64.1585 71.0694C61.0405 71.0694 57.963 71.0694 54.8431 71.0694C54.8431 71.8568 54.8431 72.606 54.8431 73.4106ZM64.1585 39.0126C61.0136 39.0126 57.9591 39.0126 54.8547 39.0126C54.8547 39.8153 54.8547 40.5798 54.8547 41.3615C57.9803 41.3615 61.0521 41.3615 64.1585 41.3615C64.1585 40.5665 64.1585 39.8191 64.1585 39.0126ZM65.6318 25.3541C62.3619 22.153 56.4511 22.2559 53.4025 25.3541C57.4744 25.3541 61.5099 25.3541 65.6318 25.3541ZM59.5306 20.8184C60.8386 20.8051 61.8984 19.7298 61.8772 18.4352C61.858 17.1369 60.7751 16.0921 59.4691 16.1073C58.165 16.1226 57.1032 17.2036 57.1224 18.4962C57.1417 19.7984 58.215 20.8318 59.5306 20.8184ZM57.1532 68.8501C58.7516 68.8501 60.2769 68.8501 61.8311 68.8501C61.8311 68.0418 61.8311 67.2753 61.8311 66.4975C60.2461 66.4975 58.7208 66.4975 57.1532 66.4975C57.1532 67.2868 57.1532 68.038 57.1532 68.8501ZM58.3554 29.9432C58.3554 29.1119 58.3554 28.3474 58.3554 27.579C57.1513 27.579 56.0145 27.579 54.8643 27.579C54.8643 28.3912 54.8643 29.1577 54.8643 29.9432C56.0472 29.9432 57.1686 29.9432 58.3554 29.9432ZM64.1623 27.5771C62.9409 27.5771 61.7984 27.5771 60.6443 27.5771C60.6443 28.3874 60.6443 29.1538 60.6443 29.9222C61.8465 29.9222 62.9851 29.9222 64.1623 29.9222C64.1623 29.1291 64.1623 28.3798 64.1623 27.5771Z" fill="black"/>
<path d="M58.0113 53.699C58.8172 52.149 58.8691 50.6123 58.5806 49.0337C58.5383 48.7992 58.4671 48.5685 58.4498 48.334C58.3864 47.4227 59.2192 46.8831 60.0444 47.293C63.8451 49.1786 66.8573 54.3148 66.3803 58.4292C66.2264 59.7599 65.609 61.0507 65.1089 62.3223C64.8473 62.9858 64.1721 63.1612 63.622 62.8791C63.0719 62.5969 62.8853 61.983 63.2316 61.3405C64.0433 59.8362 64.4626 58.2633 64.2664 56.5436C64.049 54.637 62.5045 51.9393 60.9907 50.8869C60.8368 51.6704 60.7753 52.4884 60.5041 53.23C60.1983 54.0651 59.7443 54.8582 59.275 55.6227C58.9288 56.1852 58.3613 56.269 57.7593 55.9773C57.6727 55.9354 57.5881 55.8935 57.5016 55.8515C56.1494 55.1899 56.1436 55.188 55.4627 56.5302C54.7222 57.9945 54.4683 59.5426 54.701 61.167C54.7279 61.3557 54.7606 61.5426 54.7741 61.7332C54.8241 62.4253 54.4933 62.8924 53.8912 62.9877C53.3084 63.0812 52.7795 62.7284 52.6621 62.0535C52.0832 58.7399 52.8218 55.7848 55.1722 53.2891C55.6108 52.8239 56.1109 52.7724 56.6706 53.0508C57.0919 53.2605 57.5227 53.4645 58.0113 53.699Z" fill="black"/>
</svg>
