<svg width="120" height="100" viewBox="0 0 120 100" fill="none" xmlns="http://www.w3.org/2000/svg">
<rect width="120" height="100" fill="white"/>
<path d="M104 77.7685C102.435 74.7346 101.018 71.6113 99.2682 68.6885C97.3524 65.4889 96.7508 62.1695 96.7966 58.4599C96.9535 45.3826 96.8576 32.3009 96.8576 19.2214C96.8576 16.8958 95.9705 16 93.6602 16C70.7945 16 47.9288 16 25.0631 16C22.7572 16 21.8679 16.898 21.8679 19.2214C21.8679 33.7503 21.8744 48.2814 21.8461 62.8103C21.8439 63.4707 21.6565 64.1856 21.3622 64.7784C19.3091 68.9021 17.208 72.9997 15.1178 77.1059C15.0023 77.3348 14.8563 77.5484 14.7233 77.7685C14.7233 79.2768 14.7233 80.785 14.7233 82.2933C15.5058 84.0718 16.9181 84.5622 18.7838 84.56C45.8343 84.5273 72.8869 84.5273 99.9373 84.56C101.803 84.5622 103.215 84.074 103.998 82.2933C104 80.785 104 79.2768 104 77.7685ZM24.527 18.6765C47.7959 18.6765 70.9929 18.6765 94.1702 18.6765C94.1702 33.4277 94.1702 48.1135 94.1702 62.7906C70.9231 62.7906 47.7457 62.7906 24.527 62.7906C24.527 48.0743 24.527 33.4081 24.527 18.6765ZM71.8254 76.8618C71.3873 75.2838 70.958 73.7255 70.5242 72.1693C70.0622 70.5084 69.2993 69.896 67.6036 69.8938C62.1133 69.8851 56.6209 69.8851 51.1306 69.8938C49.4327 69.896 48.6633 70.5084 48.2034 72.1627C47.7697 73.7189 47.3403 75.2773 46.9022 76.8597C37.3405 76.8597 27.8246 76.8597 18.2411 76.8597C18.3065 76.6875 18.3436 76.5523 18.4046 76.4325C20.1744 72.9452 21.9573 69.4644 23.7031 65.9641C23.9559 65.4562 24.3068 65.4453 24.758 65.4453C47.8264 65.4497 70.8948 65.4519 93.9632 65.4323C94.593 65.4323 94.8742 65.6633 95.1358 66.1907C96.7007 69.3271 98.2983 72.4482 99.885 75.5737C100.09 75.9791 100.293 76.3867 100.53 76.8618C90.9031 76.8618 81.3893 76.8618 71.8254 76.8618ZM17.402 79.5688C45.4158 79.5688 73.3729 79.5688 101.356 79.5688C101.367 79.7955 101.382 79.9655 101.382 80.1355C101.374 82.0688 101.596 81.9249 99.6213 81.9249C72.8978 81.9249 46.1721 81.9249 19.4486 81.9249C17.1731 81.9249 17.1731 81.9249 17.402 79.5688ZM69.0945 76.8706C62.5776 76.8706 56.1414 76.8706 49.6289 76.8706C49.995 75.5192 50.3307 74.2071 50.7274 72.9147C50.784 72.7316 51.1393 72.5224 51.3573 72.5202C56.6972 72.4984 62.0349 72.4984 67.3748 72.5202C67.5906 72.5202 67.9437 72.7338 68.0003 72.919C68.3948 74.2093 68.7283 75.5192 69.0945 76.8706Z" fill="black"/>
<path d="M29.8908 24.0448C49.5787 24.0448 69.1511 24.0448 88.8368 24.0448C88.8368 24.3892 88.8368 24.6965 88.8368 25.0038C88.8368 28.89 88.8347 32.7783 88.8412 36.6644C88.8412 37.0088 88.7867 37.4621 88.9742 37.6692C89.3076 38.0397 89.822 38.504 90.2296 38.4756C90.6415 38.4473 91.0687 37.9111 91.3869 37.5166C91.533 37.3335 91.448 36.9565 91.448 36.6666C91.4501 32.4601 91.4523 28.2557 91.448 24.0492C91.4458 22.1682 90.6895 21.3967 88.8216 21.3967C69.1795 21.3945 49.5351 21.3945 29.893 21.3967C28.0578 21.3967 27.2754 22.1682 27.2732 23.9685C27.2688 28.2317 27.271 32.4971 27.2732 36.7603C27.2732 37.0197 27.1991 37.3662 27.3342 37.5232C27.6655 37.9111 28.084 38.4517 28.4981 38.4778C28.9057 38.504 29.4201 38.0375 29.7513 37.667C29.9388 37.4578 29.8821 37.0044 29.8843 36.6601C29.8908 32.8023 29.8887 28.9444 29.8887 25.0866C29.8908 24.7706 29.8908 24.4524 29.8908 24.0448Z" fill="black"/>
<path d="M88.8346 57.4113C69.1511 57.4113 49.5809 57.4113 29.8886 57.4113C29.8886 57.0822 29.8886 56.7749 29.8886 56.4676C29.8886 52.5815 29.8908 48.6975 29.8843 44.8113C29.8843 44.467 29.9366 44.0114 29.7491 43.8066C29.4157 43.4404 28.8991 42.9892 28.4894 43.0176C28.0774 43.0459 27.6524 43.5755 27.3364 43.97C27.1904 44.1531 27.2754 44.5302 27.2754 44.8201C27.2732 49.0244 27.271 53.2288 27.2754 57.4331C27.2775 59.3381 27.9903 60.0551 29.9039 60.0551C49.5395 60.0573 69.1773 60.0573 88.8129 60.0551C90.7352 60.0551 91.4501 59.3424 91.4501 57.4419C91.4523 53.2375 91.4523 49.0331 91.4501 44.8288C91.4501 44.5672 91.4697 44.3013 91.4218 44.0485C91.2997 43.4121 90.9205 43.0045 90.2514 42.9565C89.5386 42.9042 89.0853 43.2748 88.9066 43.9395C88.8259 44.2403 88.839 44.5716 88.839 44.8876C88.8347 48.7149 88.8368 52.5422 88.8368 56.3695C88.8346 56.6834 88.8346 56.9994 88.8346 57.4113Z" fill="black"/>
<path d="M28.5 33V47.5" stroke="black" stroke-width="2.6" stroke-linecap="round"/>
<path d="M90 32V49" stroke="black" stroke-width="2.6" stroke-linecap="round"/>
</svg>
