<svg width="120" height="100" viewBox="0 0 120 100" fill="none" xmlns="http://www.w3.org/2000/svg">
<rect width="120" height="100" fill="white"/>
<path d="M93.0002 18.418C93.0002 19.3203 93.0002 20.2227 93.0002 21.125C92.9615 21.3557 92.8983 21.5852 92.888 21.8172C92.5722 28.6093 91.6041 35.3111 90.0199 41.9202C88.1585 49.6855 85.436 57.1092 81.0132 63.8175C78.6851 67.3495 75.9923 70.5683 72.5183 73.0575C68.0478 76.2608 63.0359 77.8257 57.5638 77.8051C52.463 77.7857 47.7476 76.3639 43.5079 73.4829C42.6803 72.9208 41.8888 72.3034 40.9788 71.6356C40.8331 71.8213 40.7042 72.0236 40.5392 72.1899C37.3385 75.3971 34.139 78.6056 30.9241 81.7973C30.4768 82.242 29.9431 82.6004 29.4507 82.9987C29.1065 82.9987 28.7636 82.9987 28.4194 82.9987C27.9463 82.5256 27.4746 82.0538 27.0015 81.5807C27.0015 81.2366 27.0015 80.8937 27.0015 80.5495C27.3998 80.0558 27.7581 79.5234 28.2029 79.0761C31.4088 75.8444 34.634 72.6308 37.8502 69.4094C38.0113 69.2483 38.1609 69.0768 38.3156 68.9105C38.108 68.6411 37.9379 68.4194 37.7664 68.2003C33.3166 62.5297 31.557 56.1063 32.4233 48.9649C32.8383 45.536 33.9714 42.3455 35.7155 39.3614C37.8141 35.77 40.739 32.9612 44.0287 30.5004C49.3628 26.5107 55.3389 23.7959 61.6463 21.7773C69.6733 19.2095 77.9207 17.7941 86.3228 17.223C87.1749 17.165 88.0244 17.0748 88.8752 17C89.7775 17 90.6799 17 91.5822 17C92.0553 17.4731 92.5271 17.9449 93.0002 18.418ZM89.0905 20.9742C88.7746 20.9742 88.5838 20.96 88.3969 20.9768C85.9168 21.1907 83.4315 21.3686 80.9565 21.6368C75.3555 22.2439 69.8551 23.3718 64.4462 24.9535C63.9279 25.1043 63.7978 25.3261 63.799 25.8378C63.8184 31.4233 63.8106 37.0088 63.8119 42.5943C63.8119 42.8173 63.8338 43.0404 63.8519 43.3768C64.1278 43.1138 64.3134 42.9462 64.4913 42.7684C67.8802 39.382 71.2666 35.993 74.6555 32.6067C74.8528 32.4095 75.0474 32.2032 75.2717 32.0421C75.9227 31.5716 76.6317 31.5161 77.3342 31.8938C78.0393 32.2728 78.4621 32.9148 78.2997 33.6972C78.185 34.2451 77.873 34.8277 77.4786 35.2286C74.0729 38.6885 70.6285 42.1109 67.1957 45.545C67.0243 45.7164 66.8631 45.8982 66.5886 46.1895C67.0153 46.1895 67.2679 46.1895 67.5206 46.1895C72.5041 46.1895 77.4889 46.1921 82.4724 46.187C83.2433 46.1857 84.2539 46.4486 84.7218 46.0632C85.2478 45.6301 85.3135 44.6104 85.5288 43.8318C87.144 37.9821 88.1494 32.0227 88.7153 25.9861C88.8713 24.3451 88.9641 22.6964 89.0905 20.9742ZM43.8456 68.8822C54.1298 77.4351 69.5637 75.0271 77.079 62.5761C76.8302 62.5761 76.6213 62.5761 76.4125 62.5761C75.1028 62.5761 73.7919 62.5761 72.4822 62.5761C65.266 62.5761 58.0485 62.5735 50.8324 62.5851C50.5346 62.5851 50.1427 62.6302 49.9519 62.8159C47.9075 64.8113 45.8953 66.8364 43.8456 68.8822ZM47.4241 32.8877C33.9817 41.3285 33.2379 56.948 41.1141 66.121C41.2675 65.9766 41.4248 65.8361 41.573 65.6866C43.3352 63.9257 45.0857 62.152 46.8659 60.4092C47.2642 60.0199 47.4357 59.6306 47.4344 59.066C47.4163 50.6033 47.4228 42.1406 47.4228 33.6792C47.4241 33.4471 47.4241 33.2125 47.4241 32.8877ZM59.9435 26.4952C59.6637 26.5829 59.4781 26.6203 59.3092 26.6963C56.8123 27.8294 54.3206 28.9754 51.8185 30.0969C51.3996 30.2851 51.2822 30.5429 51.2835 30.9876C51.2964 39.0623 51.2926 47.137 51.2926 55.2117C51.2926 55.405 51.2926 55.5997 51.2926 55.793C51.3673 55.8266 51.4408 55.8601 51.5156 55.8923C51.6406 55.7183 51.745 55.5236 51.8933 55.3728C54.4095 52.8475 56.9258 50.3223 59.4588 47.8137C59.8042 47.4709 59.9551 47.128 59.9538 46.6355C59.9383 40.1928 59.9435 33.7501 59.9435 27.3073C59.9435 27.0753 59.9435 26.8394 59.9435 26.4952ZM83.5243 50.1018C83.2471 50.0825 83.0615 50.0593 82.8759 50.0593C76.3261 50.058 69.7751 50.0516 63.2254 50.0748C62.9083 50.0761 62.5151 50.2501 62.287 50.4757C59.6869 53.0383 57.1127 55.6268 54.532 58.21C54.4069 58.3351 54.2987 58.4769 54.1259 58.6767C54.3322 58.6934 54.434 58.7089 54.5371 58.7089C62.7407 58.7102 70.9443 58.7076 79.1479 58.7192C79.5411 58.7192 79.7203 58.5568 79.8711 58.2332C80.8056 56.2339 81.766 54.2462 82.6903 52.2417C83.0009 51.5675 83.2317 50.8585 83.5243 50.1018Z" fill="black"/>
<path d="M27 81.582C27.4731 82.0551 27.9449 82.5269 28.418 83L27 81.582Z" fill="white"/>
</svg>
