<svg width="120" height="100" viewBox="0 0 120 100" fill="none" xmlns="http://www.w3.org/2000/svg">
<rect width="120" height="100" fill="white"/>
<path d="M62.3016 39.0977C61.1322 39.5105 60.0955 39.8925 59.048 40.2417C52.388 42.4568 45.5443 43.9208 38.646 45.1485C36.8837 45.4613 35.1123 45.7286 33.3446 46.0069C32.6098 46.1233 32.1351 45.8541 32.0206 45.2885C31.9042 44.7102 32.2861 44.2719 33.0572 44.1336C36.5145 43.5171 39.9882 42.9733 43.4291 42.2768C49.8509 40.9764 56.2236 39.4778 62.3125 36.9826C62.7308 36.8116 63.1291 36.5479 63.5619 36.4606C63.9202 36.3897 64.464 36.3788 64.6586 36.5897C64.8859 36.8335 64.9587 37.3845 64.8641 37.7392C64.4731 39.2014 63.8838 40.6163 63.5637 42.0913C62.6126 46.4852 63.0218 50.7409 65.0823 54.7929C66.6464 57.8683 67.3902 61.1692 67.6776 64.5883C67.8104 66.1706 67.9849 67.7492 68.0923 69.3314C68.2778 72.0976 67.6958 74.7202 66.7064 77.3009C66.2608 78.463 66.0208 79.747 65.9371 80.991C65.8244 82.6587 67.2247 84.0191 68.9052 84.0846C70.7948 84.1591 72.6571 84.0573 74.474 83.4171C76.0308 82.8679 77.644 82.8988 79.2371 83.3025C82.4707 84.1209 85.7189 84.341 89.0071 83.6517C89.2817 83.5935 89.5872 83.6481 89.8727 83.6917C90.522 83.7899 91.164 83.9391 91.8133 84.0245C93.2773 84.2155 93.8466 83.7499 94.0357 82.1549C93.0736 81.9876 92.0915 81.8658 91.1386 81.633C90.3383 81.4366 89.5308 81.1892 88.7979 80.8237C86.3245 79.5924 83.9057 78.2484 81.4213 77.039C77.9713 75.3604 76.2272 72.6742 76.2417 68.824C76.2854 56.5261 76.3018 44.2282 76.3472 31.9303C76.3581 28.8967 75.2069 26.5143 72.5808 24.9247C71.3477 24.1791 69.9819 23.9063 68.5451 23.9081C62.5762 23.9172 56.6073 23.9117 50.6402 23.9117C44.9205 23.9117 39.2025 23.9117 33.4828 23.9117C33.2791 23.9117 33.0699 23.9317 32.8717 23.899C32.3297 23.8117 32.0042 23.4862 32.0169 22.9315C32.0297 22.4095 32.3497 22.1003 32.8608 22.0203C33.0827 21.9858 33.3136 22.0058 33.541 22.0058C45.1823 22.0058 56.8255 22.0039 68.4669 22.0058C74.2066 22.0058 78.2641 26.0851 78.2496 31.843C78.2187 44.0954 78.2096 56.3479 78.1368 68.6003C78.1168 71.8521 79.4954 74.04 82.4398 75.4186C85.0023 76.6189 87.4466 78.0647 89.9964 79.2942C90.8476 79.7034 91.8569 79.7961 92.8026 79.9962C93.5774 80.1599 94.3667 80.2653 95.1469 80.4036C95.7271 80.5054 96.0272 80.8728 95.9981 81.4493C95.9671 82.0586 95.9417 82.6805 95.7998 83.268C95.3688 85.0539 94.0302 86.0196 92.1461 85.9705C92.0097 85.9669 91.8733 85.9614 91.7387 85.936C90.151 85.6432 88.5815 85.5813 86.9629 85.8378C84.2076 86.2743 81.4905 85.7959 78.8097 85.1594C77.3493 84.812 75.9344 84.8775 74.5304 85.3813C72.5607 86.0887 70.5093 86.136 68.4778 85.9487C65.4897 85.6723 63.5819 82.9843 64.073 79.8143C64.2494 78.6831 64.5313 77.5373 64.9714 76.4843C66.1881 73.569 66.4082 70.57 66.0535 67.4764C65.7425 64.7756 65.6607 62.0385 64.8277 59.4251C64.424 58.1556 63.982 56.8808 63.3873 55.6932C60.8685 50.6536 60.592 45.4467 62.0451 40.078C62.1179 39.7997 62.1906 39.5196 62.3016 39.0977Z" fill="black"/>
</svg>
