<svg width="120" height="100" viewBox="0 0 120 100" fill="none" xmlns="http://www.w3.org/2000/svg">
<rect width="120" height="100" fill="white"/>
<path d="M55.2558 88C53.2907 87.5161 51.7559 86.4691 51.0658 84.506C50.7525 83.6117 50.5741 82.6361 50.5304 81.6883C50.4471 79.862 50.5027 78.0278 50.5027 76.1975C50.5047 72.4994 49.0472 69.6122 46.1481 67.2228C39.1662 61.4643 36.5012 53.9411 38.4167 45.1567C40.2906 36.5607 45.7873 30.939 54.2762 28.5972C67.5619 24.9347 80.9506 34.3457 82.071 48.0815C82.6916 55.688 79.9929 62.0592 74.1531 67.0066C72.081 68.7635 70.3558 70.6929 69.753 73.4115C69.5983 74.1055 69.5269 74.8293 69.517 75.5412C69.4873 77.7184 69.5091 79.8937 69.5051 82.071C69.5012 85.1505 67.9584 87.1235 64.9543 87.8988C64.8849 87.9167 64.8214 87.9623 64.756 87.996C61.5912 88 58.4245 88 55.2558 88ZM64.7897 73.7228C65.0217 72.8067 65.1922 71.958 65.454 71.1371C66.4891 67.889 68.589 65.4361 71.1886 63.3005C76.8142 58.6843 78.8804 50.9211 76.3919 44.0958C73.5463 36.289 66.0132 31.758 57.552 32.7614C49.6619 33.6973 43.1103 40.59 42.6483 48.4761C42.2755 54.8374 44.5658 60.0188 49.6064 63.9529C51.2701 65.2517 52.6542 66.8083 53.5088 68.7338C54.2147 70.3221 54.7124 72.0016 55.3311 73.7189C58.369 73.7228 61.5793 73.7228 64.7897 73.7228ZM55.2776 78.5334C55.2776 79.745 55.2359 80.9011 55.2974 82.0551C55.3252 82.5667 55.3926 83.235 56.1441 83.2409C58.7378 83.2627 61.3315 83.2548 63.9232 83.2429C64.413 83.2409 64.7342 82.9534 64.7421 82.4656C64.7679 81.1648 64.7501 79.864 64.7501 78.5314C61.5734 78.5334 58.4681 78.5334 55.2776 78.5334Z" fill="black"/>
<path d="M22 49.406C22.577 48.0497 23.6022 47.5441 25.0597 47.6055C26.8364 47.6829 28.621 47.6174 30.4017 47.6254C31.8869 47.6333 32.9815 48.6763 32.9537 50.0327C32.928 51.3751 31.8611 52.3626 30.4057 52.3705C28.625 52.3804 26.8403 52.313 25.0636 52.3923C23.6022 52.4578 22.581 51.9402 22 50.5918C22 50.1972 22 49.8006 22 49.406Z" fill="black"/>
<path d="M62.3824 17.459C62.3824 18.4723 62.3943 19.4876 62.3785 20.5009C62.3567 21.8889 61.3315 22.9438 60.0188 22.9518C58.712 22.9617 57.6492 21.9008 57.6373 20.5227C57.6194 18.4941 57.6194 16.4676 57.6373 14.439C57.6472 13.045 58.6684 12.008 59.993 12C61.3136 11.9941 62.3408 13.0331 62.3805 14.4172C62.3824 14.4668 62.3824 14.5164 62.3824 14.5659C62.3824 15.5296 62.3824 16.4953 62.3824 17.459Z" fill="black"/>
<path d="M92.5588 47.6253C93.5721 47.6253 94.5873 47.6114 95.6006 47.6292C96.9788 47.653 98.0218 48.7 98.0119 50.0206C98.0019 51.3115 96.9768 52.3526 95.6363 52.3684C93.584 52.3922 91.5296 52.3903 89.4773 52.3684C88.1031 52.3546 87.0442 51.2818 87.0601 49.977C87.076 48.6524 88.117 47.6471 89.517 47.6272C90.5302 47.6134 91.5455 47.6253 92.5588 47.6253Z" fill="black"/>
<path d="M35.131 22.4043C35.4403 22.5748 36.0789 22.7771 36.5191 23.1915C37.9964 24.5796 39.4161 26.0311 40.8359 27.4806C41.8214 28.4879 41.8175 29.9315 40.8696 30.8714C39.9337 31.7975 38.5139 31.8232 37.5343 30.8694C36.0451 29.4199 34.5778 27.9466 33.1263 26.4614C32.3985 25.7178 32.2419 24.8155 32.6504 23.8578C33.0489 22.9238 33.8163 22.4915 35.131 22.4043Z" fill="black"/>
<path d="M81.0459 31.5991C79.8522 31.5019 79.1026 31.0935 78.6842 30.2011C78.2678 29.3108 78.3293 28.4086 78.9955 27.7066C80.5264 26.0925 82.0988 24.5141 83.7169 22.9852C84.6033 22.1465 86.0191 22.2734 86.8797 23.132C87.7403 23.9926 87.8712 25.4005 87.0284 26.2948C85.5015 27.9128 83.9172 29.4794 82.3011 31.0102C81.9362 31.3532 81.3473 31.4623 81.0459 31.5991Z" fill="black"/>
<path d="M81.1033 68.3965C81.4127 68.5531 82.0234 68.7138 82.426 69.0945C83.9548 70.5361 85.4341 72.0332 86.8975 73.5422C87.8374 74.5119 87.7938 75.9634 86.8658 76.8755C85.9318 77.7936 84.51 77.8115 83.5324 76.8596C82.0433 75.4101 80.5739 73.9408 79.1244 72.4516C78.4006 71.708 78.242 70.8038 78.6584 69.848C79.0669 68.916 79.8363 68.4917 81.1033 68.3965Z" fill="black"/>
<path d="M41.5993 71.1031C41.4466 71.4025 41.286 72.0113 40.9053 72.4158C39.4637 73.9447 37.9666 75.4239 36.4556 76.8873C35.478 77.8352 34.0542 77.7876 33.1243 76.8477C32.2081 75.9236 32.1962 74.484 33.1441 73.5144C34.5956 72.0272 36.0649 70.5578 37.5541 69.1083C38.2977 68.3845 39.2019 68.2298 40.1597 68.6482C41.0917 69.0567 41.518 69.8241 41.5993 71.1031Z" fill="black"/>
<path d="M61.2363 35.7538C68.244 35.8946 74.165 41.8612 74.2562 48.8769C74.276 50.4474 73.3381 51.5459 71.9382 51.5875C70.568 51.6292 69.5507 50.5386 69.5071 48.982C69.3762 44.4014 65.6721 40.6497 61.1371 40.5049C59.4734 40.4514 58.4086 39.5115 58.4185 38.1095C58.4304 36.66 59.5547 35.7201 61.2363 35.7538Z" fill="black"/>
</svg>
