<svg width="120" height="100" viewBox="0 0 120 100" fill="none" xmlns="http://www.w3.org/2000/svg">
<rect width="120" height="100" fill="white"/>
<path d="M57.1039 11C56.0132 11.3062 54.866 11.4845 53.8423 11.94C49.179 14.0118 46.673 17.6391 46.2952 22.732C46.286 22.8554 46.2753 22.9773 46.2586 23.189C45.7665 23.189 45.2912 23.1738 44.8174 23.1921C43.8973 23.2271 43.2452 23.87 43.2483 24.714C43.2513 25.558 43.9034 26.1917 44.8266 26.2283C45.279 26.2466 45.733 26.2313 46.2373 26.2313C46.2373 28.2682 46.2373 30.2578 46.2373 32.2931C44.8814 32.4043 43.6901 32.8872 42.7973 33.9597C42.1087 34.787 41.7401 35.7437 41.7233 36.8223C41.6852 39.2247 43.1401 40.7923 46.1504 41.5541C46.0255 43.1826 45.9052 44.8218 45.7757 46.4611C45.3369 51.9987 44.8936 57.5364 44.4548 63.0726C44.0968 67.5729 43.7464 72.0746 43.3686 76.5733C43.3503 76.7881 43.1401 77.0745 42.9421 77.1736C41.0667 78.112 40.1755 79.6217 40.1938 81.7027C40.206 83.0936 40.1968 84.4861 40.1968 86.0613C39.4001 85.8373 38.6825 85.7094 38.0259 85.4352C37.1865 85.0848 36.3791 84.6491 35.5869 84.1966C32.8584 82.6381 30.0629 82.5345 27.1852 83.7304C25.456 84.4495 23.7071 85.1244 21.9994 85.8891C21.6002 86.0674 21.3306 86.532 21 86.8641C21 87.1688 21 87.4735 21 87.7782C21.8348 88.872 22.1761 88.9863 23.5106 88.5673C23.992 88.4165 24.4689 88.2444 24.9335 88.0509C26.2848 87.4857 27.6148 86.8687 28.9782 86.337C30.5733 85.7155 32.1561 85.8373 33.6704 86.6402C35.4269 87.5725 37.1621 88.5506 39.1274 88.997C39.8388 88.997 40.5487 88.997 41.2602 88.997C41.5192 88.9177 41.7904 88.8644 42.0371 88.7547C43.489 88.1134 44.9682 87.5268 46.3744 86.7956C48.2345 85.8282 50.0657 85.6347 51.9517 86.6402C53.7067 87.5786 55.4434 88.5536 57.4086 89C58.1201 89 58.83 89 59.5414 89C59.8004 88.9208 60.0716 88.8675 60.3169 88.7593C61.7687 88.1179 63.248 87.5314 64.6526 86.8002C66.5401 85.816 68.3606 85.7063 70.3061 86.6615C72.0595 87.5223 73.8922 88.2261 75.6899 89C76.4013 89 77.1112 89 77.8227 89C79.7666 88.5628 81.4896 87.6091 83.2202 86.6768C84.8975 85.7734 86.5916 85.7718 88.3405 86.4848C90.4596 87.3486 92.6016 88.1636 94.7328 89C95.4946 89 96.2563 89 97.018 89C97.798 88.7898 98.5917 88.5993 98.9985 87.7812C98.9985 87.4766 98.9985 87.1719 98.9985 86.8672C98.3312 85.8084 98.0143 85.7962 96.7286 85.845C95.6423 85.8876 94.5089 85.7078 93.4608 85.4047C92.4005 85.0985 91.4026 84.5516 90.4048 84.0564C87.2528 82.4919 84.18 82.5559 81.1042 84.3093C80.0149 84.9309 78.8084 85.3529 77.6445 85.8389C77.4022 85.9394 77.1097 85.9166 76.7578 85.9623C76.7578 84.5028 76.7426 83.1119 76.7609 81.721C76.7883 79.637 75.9001 78.1272 74.0293 77.1796C73.8176 77.073 73.6028 76.7516 73.583 76.5139C72.9934 69.2806 72.4328 62.0443 71.86 54.8095C71.5324 50.6855 71.1912 46.5646 70.8591 42.4407C70.8347 42.1406 70.8316 41.8389 70.8179 41.551C73.88 40.7817 75.3715 39.0907 75.2252 36.5938C75.0912 34.2812 73.356 32.61 70.7143 32.2946C70.7143 30.3126 70.7143 28.3215 70.7143 26.2313C71.1805 26.2313 71.6543 26.2466 72.1266 26.2283C73.0543 26.1932 73.7003 25.5641 73.7048 24.7155C73.7094 23.867 73.062 23.2286 72.1387 23.1921C71.6848 23.1738 71.2293 23.189 70.7402 23.189C70.6366 22.3877 70.5864 21.6077 70.431 20.849C69.3676 15.6754 65.428 11.9491 60.1935 11.128C60.0746 11.1097 59.9634 11.0427 59.8477 11C58.9321 11 58.018 11 57.1039 11ZM46.932 70.3242C54.6664 70.3242 62.3385 70.3242 70.0227 70.3242C70.1948 72.5012 70.3624 74.6172 70.5346 76.8125C69.6144 76.8125 68.7826 76.8095 67.9508 76.8125C66.7945 76.8171 66.0816 77.4143 66.0983 78.3573C66.1151 79.2713 66.8128 79.8518 67.9264 79.8578C69.3234 79.8655 70.7189 79.8472 72.1159 79.8655C72.9858 79.8761 73.647 80.4063 73.682 81.2122C73.7353 82.4416 73.6957 83.6741 73.6957 84.9111C73.5738 84.905 73.5175 84.9187 73.4778 84.8989C72.9599 84.6323 72.4404 84.3688 71.927 84.09C69.13 82.5726 66.3192 82.5086 63.4871 83.9909C62.5441 84.4845 61.6103 84.9995 60.6475 85.4519C59.2109 86.1268 57.7453 86.1177 56.3041 85.4534C55.5683 85.1137 54.8355 84.7572 54.1393 84.3444C50.8807 82.4187 47.648 82.4705 44.4183 84.4053C44.0664 84.6155 43.6901 84.7877 43.2407 85.0193C43.2407 83.8279 43.2376 82.7874 43.2422 81.7484C43.2483 80.3941 43.7815 79.8624 45.1404 79.8624C48.4661 79.8594 51.7917 79.8655 55.1189 79.8594C56.2386 79.8578 56.9303 79.2805 56.947 78.3618C56.9653 77.4112 56.26 76.8171 55.0976 76.8155C52.4818 76.8125 49.8676 76.814 47.2519 76.814C46.9868 76.814 46.7217 76.814 46.414 76.814C46.5922 74.5883 46.7598 72.4905 46.932 70.3242ZM47.1757 67.1844C47.3555 64.9662 47.5291 62.8289 47.7013 60.7174C54.9422 60.7174 62.0886 60.7174 69.2625 60.7174C69.4331 62.9005 69.5992 65.0318 69.7683 67.1844C62.1907 67.1844 54.7365 67.1844 47.1757 67.1844ZM69.0081 57.5547C61.9469 57.5547 54.965 57.5547 47.942 57.5547C48.1172 55.3732 48.2878 53.2556 48.46 51.1258C55.1737 51.1258 61.8296 51.1258 68.4993 51.1258C68.6714 53.3013 68.839 55.4173 69.0081 57.5547ZM49.3146 23.1479C49.4959 19.7872 50.8655 17.1334 53.7265 15.4134C56.9455 13.4786 60.2575 13.5182 63.4277 15.5383C66.1577 17.2796 67.4877 19.8725 67.6309 23.1479C61.4975 23.1479 55.4495 23.1479 49.3146 23.1479ZM49.2171 41.5297C55.4297 41.5297 61.5783 41.5297 67.7375 41.5297C67.9097 43.7052 68.0773 45.8212 68.2479 47.9799C61.7062 47.9799 55.2484 47.9799 48.7068 47.9799C48.8774 45.8258 49.045 43.7113 49.2171 41.5297ZM58.5573 38.4219C54.6771 38.4219 50.7984 38.4219 46.9182 38.4219C46.6897 38.4219 46.4612 38.4325 46.2342 38.4127C45.375 38.3396 44.7534 37.6739 44.7717 36.8619C44.79 36.0773 45.4009 35.4512 46.2266 35.3826C46.4277 35.3659 46.6318 35.375 46.8344 35.375C54.5933 35.375 62.3537 35.375 70.1126 35.375C70.3411 35.375 70.5711 35.3613 70.7966 35.3872C71.5766 35.4725 72.1601 36.0971 72.1799 36.8543C72.2012 37.6404 71.6162 38.3107 70.8042 38.4066C70.5544 38.4356 70.2984 38.4219 70.044 38.4219C66.2156 38.4219 62.3872 38.4219 58.5573 38.4219ZM55.4632 26.2877C57.5092 26.2877 59.4957 26.2877 61.4625 26.2877C61.4625 28.3291 61.4625 30.3157 61.4625 32.287C59.4333 32.287 57.465 32.287 55.4632 32.287C55.4632 30.2791 55.4632 28.3108 55.4632 26.2877ZM67.5806 32.2855C66.5386 32.2855 65.5849 32.2855 64.616 32.2855C64.616 30.2578 64.616 28.2712 64.616 26.2907C65.6367 26.2907 66.6087 26.2907 67.5806 26.2907C67.5806 28.3139 67.5806 30.2821 67.5806 32.2855ZM49.3893 32.2946C49.3893 30.2471 49.3893 28.2605 49.3893 26.2968C50.416 26.2968 51.388 26.2968 52.3417 26.2968C52.3417 28.3261 52.3417 30.2943 52.3417 32.2946C51.3484 32.2946 50.3947 32.2946 49.3893 32.2946Z" fill="black"/>
<path d="M84.2958 29.2813C83.3589 29.2813 82.4235 29.2706 81.4866 29.2843C80.4979 29.2981 79.8306 29.8998 79.8093 30.7682C79.788 31.6624 80.475 32.3175 81.4912 32.3236C83.4137 32.3373 85.3378 32.3373 87.2619 32.3236C88.2781 32.316 88.9621 31.6594 88.9377 30.7621C88.9149 29.8922 88.2476 29.2965 87.2558 29.2843C86.2702 29.2722 85.283 29.2813 84.2958 29.2813Z" fill="black"/>
<path d="M83.4091 14.813C83.2796 14.8556 82.9963 14.9029 82.7617 15.0354C81.0249 16.0211 79.2882 17.0113 77.5698 18.0305C76.7578 18.5119 76.5278 19.3757 76.9421 20.1161C77.3672 20.8763 78.263 21.1139 79.1085 20.6371C80.8269 19.6682 82.5362 18.6825 84.2363 17.6816C84.9463 17.2642 85.2007 16.5832 84.9828 15.8703C84.7955 15.2594 84.1998 14.8191 83.4091 14.813Z" fill="black"/>
<path d="M83.432 46.8099C84.2226 46.7474 84.7284 46.4397 84.9539 45.8059C85.187 45.1509 85.0849 44.476 84.4801 44.1088C82.5987 42.9708 80.6944 41.8679 78.7611 40.8213C78.0832 40.4541 77.2621 40.8593 76.9132 41.5586C76.5445 42.299 76.7776 43.1064 77.5713 43.5756C79.2684 44.5826 80.9823 45.5591 82.6962 46.5341C82.9521 46.6804 83.2537 46.7459 83.432 46.8099Z" fill="black"/>
<path d="M32.5751 29.2813C31.6138 29.2813 30.651 29.2706 29.6897 29.2843C28.7055 29.2981 28.0337 29.9059 28.0139 30.7697C27.9941 31.6609 28.6857 32.316 29.7003 32.3236C31.6229 32.3358 33.547 32.3373 35.4711 32.3236C36.4614 32.316 37.1241 31.7066 37.1423 30.8352C37.1621 29.9318 36.4857 29.2981 35.4605 29.2843C34.4992 29.2722 33.5364 29.2813 32.5751 29.2813Z" fill="black"/>
<path d="M38.5424 20.9101C39.359 20.8629 39.8754 20.5445 40.11 19.8757C40.3446 19.2069 40.1984 18.5518 39.6027 18.1908C37.7426 17.065 35.8581 15.9803 33.9492 14.9398C33.2652 14.5681 32.438 14.9383 32.0785 15.6208C31.7098 16.3215 31.9048 17.1731 32.6193 17.6134C33.8457 18.369 35.104 19.0744 36.3517 19.7965C36.8331 20.0753 37.3115 20.3586 37.8051 20.6161C38.0701 20.7547 38.3611 20.8401 38.5424 20.9101Z" fill="black"/>
<path d="M38.4769 40.7146C38.323 40.7801 37.9833 40.8837 37.6832 41.0558C36.0775 41.9669 34.4779 42.8901 32.8843 43.8209C31.9398 44.3724 31.6473 45.2453 32.112 46.0436C32.5766 46.8419 33.4556 47.0033 34.423 46.4488C36.0912 45.4936 37.7593 44.5384 39.4138 43.5604C40.0872 43.1628 40.3477 42.4726 40.1527 41.8099C39.9622 41.1625 39.3407 40.7024 38.4769 40.7146Z" fill="black"/>
<path d="M60.0061 78.3421C60.0122 79.1816 60.7374 79.8793 61.5722 79.8503C62.3827 79.8229 63.0454 79.1313 63.0393 78.3208C63.0332 77.4768 62.3187 76.7898 61.4747 76.8157C60.6642 76.8415 60 77.5317 60.0061 78.3421Z" fill="black"/>
</svg>
