<svg width="120" height="100" viewBox="0 0 120 100" fill="none" xmlns="http://www.w3.org/2000/svg">
<rect width="120" height="100" fill="white"/>
<path d="M46.9593 72.5492C46.3165 72.0704 46.2476 71.8566 46.5055 71.0819C48.6607 64.6137 50.8172 58.1456 52.9724 51.6786C53.0283 51.5123 53.0746 51.3424 53.1447 51.1119C52.9499 51.1119 52.7942 51.1119 52.6386 51.1119C49.155 51.1119 45.6714 51.1083 42.1878 51.1154C41.7518 51.1166 41.3525 51.0738 41.1125 50.6521C40.8797 50.2433 41.0472 49.8917 41.2623 49.5328C45.6476 42.2342 50.0306 34.9343 54.4041 27.6297C54.6715 27.1842 55.0089 26.9988 55.5257 27C59.38 27.0119 63.2331 27.0095 67.0874 27.0024C67.5115 27.0012 67.8917 27.0558 68.1187 27.4634C68.3444 27.8697 68.1947 28.2226 67.9654 28.5802C65.5773 32.3264 63.1963 36.0773 60.8129 39.827C60.719 39.9744 60.6299 40.1241 60.4909 40.3486C60.7119 40.3486 60.8664 40.3486 61.0208 40.3486C63.3923 40.3486 65.7638 40.3534 68.1353 40.3451C68.5654 40.3439 68.9337 40.4258 69.1476 40.8369C69.3626 41.2492 69.2058 41.5985 68.9634 41.9478C62.0165 51.9471 55.0742 61.95 48.1225 71.9469C47.9597 72.1809 47.7055 72.3496 47.494 72.5492C47.3158 72.5492 47.1375 72.5492 46.9593 72.5492ZM50.1518 65.7627C50.178 65.7757 50.2041 65.7888 50.2302 65.8019C55.6944 57.9317 61.1586 50.0604 66.6656 42.1272C66.403 42.1272 66.2414 42.1272 66.081 42.1272C63.7095 42.1272 61.3368 42.132 58.9653 42.1249C58.1135 42.1225 57.7273 41.4167 58.1646 40.6872C58.2406 40.5601 58.3226 40.4365 58.4022 40.3118C60.7464 36.6238 63.0905 32.9371 65.4335 29.2491C65.5179 29.1172 65.5915 28.9782 65.6913 28.8071C65.569 28.7976 65.4989 28.7869 65.4299 28.7869C62.3171 28.7858 59.203 28.7917 56.0901 28.7774C55.8037 28.7763 55.7063 28.9236 55.5899 29.1184C51.6287 35.722 47.6651 42.3245 43.7027 48.9281C43.6326 49.0457 43.5672 49.1669 43.4745 49.3332C43.7181 49.3332 43.8809 49.3332 44.0437 49.3332C47.3799 49.3332 50.715 49.3582 54.0513 49.3166C54.953 49.3059 55.4877 49.8251 55.1431 50.8326C53.86 54.5848 52.6219 58.3523 51.3673 62.1139C50.9609 63.3294 50.557 64.546 50.1518 65.7627Z" fill="black"/>
<path d="M64.8418 72.5492C64.1789 72.1179 64.0814 71.8351 64.3321 71.0628C65.3765 67.8406 66.4232 64.6184 67.4676 61.3974C67.5175 61.2454 67.5626 61.0921 67.622 60.8972C66.9377 60.8972 66.302 60.8972 65.6664 60.8972C64.5543 60.8972 63.4434 60.8901 62.3313 60.9008C61.8846 60.9044 61.4616 60.8806 61.2192 60.4267C60.9721 59.9622 61.2323 59.6081 61.4806 59.2481C63.6038 56.178 65.7234 53.1067 67.8454 50.0354C68.3005 49.3772 68.7591 48.7225 69.2046 48.0583C69.4411 47.7078 69.75 47.5486 70.1753 47.5498C72.1619 47.5581 74.1472 47.5569 76.1338 47.551C76.5378 47.5498 76.8669 47.6686 77.0582 48.0393C77.2494 48.4088 77.1627 48.751 76.931 49.0789C75.7001 50.8207 74.474 52.5661 73.2455 54.3103C73.1611 54.4303 73.0803 54.5526 72.9674 54.7202C73.1112 54.7356 73.2169 54.7582 73.3239 54.7582C74.5393 54.7606 75.7548 54.7641 76.9702 54.757C77.3694 54.7546 77.7069 54.8532 77.9041 55.2263C78.1144 55.6219 77.9766 55.9641 77.7294 56.2944C73.7884 61.5412 69.8498 66.7915 65.9052 72.0359C65.7591 72.2308 65.5523 72.3793 65.3741 72.5492C65.1971 72.5492 65.02 72.5492 64.8418 72.5492ZM75.3413 56.538C73.9868 56.538 72.7322 56.5309 71.4763 56.5416C71.032 56.5463 70.647 56.4703 70.4296 56.0354C70.2145 55.6041 70.3749 55.2453 70.6316 54.8853C71.8435 53.1851 73.0458 51.4778 74.2506 49.7728C74.3397 49.6469 74.4229 49.5173 74.5465 49.3332C73.2039 49.3332 71.9468 49.3249 70.6898 49.3463C70.5555 49.3486 70.3856 49.4995 70.2965 49.6267C68.1793 52.6635 66.0704 55.7063 63.9614 58.7491C63.8913 58.8501 63.8355 58.963 63.7452 59.1174C65.3812 59.1174 66.9519 59.1602 68.5179 59.1008C69.3674 59.0687 69.965 59.6461 69.6157 60.6382C68.9718 62.4644 68.405 64.3179 67.8062 66.1606C67.7587 66.3068 67.7219 66.4553 67.6803 66.6026C67.704 66.6133 67.7278 66.624 67.7527 66.6347C70.2609 63.2996 72.7678 59.9634 75.3413 56.538Z" fill="black"/>
</svg>
