<svg width="120" height="100" viewBox="0 0 120 100" fill="none" xmlns="http://www.w3.org/2000/svg">
<rect width="120" height="100" fill="white"/>
<path d="M101 43.9895C101 40.403 98.0822 37.4852 94.4957 37.4852H81.3285C81.1961 37.111 81.0166 36.7508 80.7919 36.4122L66.8186 15.2493C65.1823 12.7843 61.7344 12.3205 59.5 14.3152C57.2694 12.324 53.8216 12.7787 52.1791 15.2527L38.2103 36.4089C37.9845 36.749 37.8047 37.1102 37.6718 37.4853H24.5043C20.9178 37.4852 18 40.403 18 43.9895C18 46.4314 19.3533 48.5621 21.3487 49.6742L25.7099 82.1034C26.057 85.4279 28.833 87.9309 32.1787 87.9309H86.8211C90.167 87.9309 92.9428 85.4279 93.2899 82.1034L97.6511 49.674C99.6467 48.5621 101 46.4314 101 43.9895ZM62.7524 16.3116C63.289 16.3116 63.8048 16.5716 64.1151 17.0391L78.0884 38.202C78.5881 38.9544 78.3835 39.9677 77.6308 40.4675C77.6308 40.4675 77.6308 40.4677 77.6306 40.4677C76.8676 40.9741 75.8567 40.7504 75.3674 40.0134C74.7574 39.0896 61.7621 19.4077 61.3941 18.8504C61.149 18.4813 61.0695 18.0397 61.1537 17.6229C61.3138 16.8303 62.0103 16.3116 62.7524 16.3116ZM59.5 21.8656L69.8132 37.4852H49.1869L59.5 21.8656ZM40.9138 38.1988L54.8826 17.0425C55.2001 16.5645 55.7194 16.3116 56.2476 16.3116C57.1103 16.3116 57.8774 17.0017 57.8783 17.962C57.8757 18.276 57.7829 18.5836 57.6036 18.8536C56.8513 19.9933 44.3694 38.8975 43.6348 40.0097C43.1352 40.7621 42.1219 40.9673 41.3694 40.4673C41.3692 40.4673 41.3692 40.4672 41.3692 40.4672C40.6235 39.9724 40.4068 38.9623 40.9138 38.1988ZM90.067 81.7514C89.8996 83.4258 88.5041 84.6888 86.8213 84.6888H32.1787C30.4957 84.6888 29.1004 83.426 28.933 81.7514C28.9278 81.6997 29.1204 83.14 24.7301 50.4936H94.2697C89.921 82.8333 90.0722 81.6995 90.067 81.7514ZM94.4957 47.2515H24.5043C22.7055 47.2515 21.2422 45.7881 21.2422 43.9895C21.2422 42.1907 22.7055 40.7274 24.5043 40.7274H37.6741C38.0228 41.7232 38.6818 42.5749 39.5761 43.1687L39.5759 43.1686C41.8285 44.6639 44.8479 44.0443 46.3382 41.7996L47.0461 40.7274H71.9539L72.6641 41.803C73.5875 43.194 75.1168 43.984 76.7369 43.984C78.7727 43.984 80.6383 42.6912 81.3259 40.7274H94.4957C96.2945 40.7274 97.7578 42.1907 97.7578 43.9895C97.7578 45.7881 96.2945 47.2515 94.4957 47.2515Z" fill="black"/>
<path d="M52.3062 53.7622H52.2768C49.4036 53.7622 47.0662 56.0997 47.0662 58.9729V76.2095C47.0662 79.0827 49.4036 81.4202 52.2768 81.4202H52.3062C55.1794 81.4202 57.5169 79.0827 57.5169 76.2095V58.9729C57.5169 56.0997 55.1794 53.7622 52.3062 53.7622ZM54.2747 76.2095C54.2747 77.295 53.3917 78.178 52.3062 78.178H52.2768C51.1914 78.178 50.3083 77.295 50.3083 76.2095V58.9729C50.3083 57.8876 51.1914 57.0044 52.2768 57.0044H52.3062C53.3915 57.0044 54.2747 57.8874 54.2747 58.9729V76.2095Z" fill="black"/>
<path d="M66.7231 53.7622H66.6937C63.8205 53.7622 61.483 56.0997 61.483 58.9729V76.2095C61.483 79.0827 63.8205 81.4202 66.6937 81.4202H66.7231C69.5963 81.4202 71.9337 79.0827 71.9337 76.2095V58.9729C71.9337 56.0997 69.5961 53.7622 66.7231 53.7622ZM68.6916 76.2095C68.6916 77.295 67.8085 78.178 66.7231 78.178H66.6937C65.6084 78.178 64.7252 77.295 64.7252 76.2095V58.9729C64.7252 57.8876 65.6082 57.0044 66.6937 57.0044H66.7231C67.8085 57.0044 68.6916 57.8874 68.6916 58.9729V76.2095Z" fill="black"/>
<path d="M81.1399 53.7622H81.1106C78.2374 53.7622 75.8999 56.0997 75.8999 58.9729V76.2095C75.8999 79.0827 78.2374 81.4202 81.1106 81.4202H81.1399C84.0132 81.4202 86.3506 79.0827 86.3506 76.2095V58.9729C86.3506 56.0997 84.013 53.7622 81.1399 53.7622ZM83.1084 76.2095C83.1084 77.295 82.2254 78.178 81.1399 78.178H81.1106C80.0251 78.178 79.1421 77.295 79.1421 76.2095V58.9729C79.1421 57.8876 80.0251 57.0044 81.1106 57.0044H81.1399C82.2254 57.0044 83.1084 57.8874 83.1084 58.9729V76.2095Z" fill="black"/>
<path d="M37.8893 53.7622H37.86C34.9867 53.7622 32.6493 56.0997 32.6493 58.9729V76.2095C32.6493 79.0827 34.9867 81.4202 37.86 81.4202H37.8893C40.7625 81.4202 43.1 79.0827 43.1 76.2095V58.9729C43.1 56.0997 40.7625 53.7622 37.8893 53.7622ZM39.8578 76.2095C39.8578 77.295 38.9748 78.178 37.8893 78.178H37.86C36.7745 78.178 35.8915 77.295 35.8915 76.2095V58.9729C35.8915 57.8876 36.7745 57.0044 37.86 57.0044H37.8893C38.9748 57.0044 39.8578 57.8874 39.8578 58.9729V76.2095Z" fill="black"/>
</svg>
