<svg width="120" height="100" viewBox="0 0 120 100" fill="none" xmlns="http://www.w3.org/2000/svg">
<rect width="120" height="100" fill="white"/>
<path d="M51.536 65.6594C51.7811 67.8059 52.055 69.8685 52.2427 71.9377C52.4039 73.7154 52.1102 75.4025 51.3063 77.0543C50.2243 79.2759 49.3233 81.5881 48.3781 83.8759C48.0491 84.6731 47.5301 85.0043 46.6689 84.9977C43.1157 84.9734 39.5625 84.9911 36.0093 84.9845C34.766 84.9822 34.3619 84.5273 34.4745 83.3105C34.8322 79.4261 37.3961 77.337 41.2872 77.8184C41.8635 77.8891 42.144 77.7301 42.3935 77.2597C43.3564 75.4511 43.246 73.6668 42.0866 72.037C41.2452 70.8556 40.194 69.8199 39.2445 68.7135C36.0159 64.9505 33.4719 60.8099 32.2529 55.9427C32.2021 55.7396 32.0939 55.5298 31.957 55.373C28.523 51.4378 28.3839 47.0167 30.1241 42.3792C30.749 40.7119 31.6279 39.1374 32.3832 37.5187C32.4848 37.3023 32.5532 37.0704 32.6084 36.9224C30.3626 36.642 28.1542 36.3924 25.9548 36.0877C24.1373 35.8359 22.7991 34.8488 22.2602 33.0866C21.7413 31.3884 21.41 29.6283 21.0346 27.8882C20.8999 27.261 21.1627 26.742 21.7501 26.4483C23.3202 25.6622 24.9036 24.9003 26.4693 24.1009C26.763 23.9507 27.1141 23.7343 27.2334 23.4605C27.9422 21.8219 29.1502 20.6647 30.6209 19.7284C30.8904 19.5584 31.1841 19.3486 31.3342 19.0836C33.4542 15.3382 36.833 13.9095 40.9405 14.0044C44.5135 14.0883 47.8326 15.1174 50.7211 17.286C51.4852 17.8579 52.1764 18.5536 52.8036 19.2757C53.9497 20.5941 53.6428 21.4266 52.0682 21.7468C52.5563 22.2878 53.1503 22.8311 53.6008 23.4759C54.5261 24.7965 55.5088 26.1038 56.2199 27.5415C57.0171 29.1535 56.4098 29.8514 54.568 29.6592C54.5636 29.7586 54.5371 29.8602 54.5548 29.9529C54.9302 31.9758 55.2924 34.0008 55.712 36.0126C55.7804 36.3394 56.0631 36.6817 56.3391 36.8981C59.4529 39.3295 63.0502 40.31 66.9325 40.0825C69.2291 39.9478 71.5037 39.4355 73.7959 39.1705C76.9185 38.8083 80.0057 38.974 83.0091 40.0141C83.3006 40.1157 83.6539 40.1488 83.9564 40.0936C90.6675 38.8282 96.6543 43.5319 96.8089 50.3822C96.8685 53.0366 96.4755 55.702 96.29 58.3631C96.2546 58.8577 96.237 59.3524 96.1817 59.8449C96.0205 61.2803 96.2877 62.3646 97.5377 63.4533C99.7924 65.4187 100.086 68.0974 99.163 70.8843C98.898 71.6881 98.5159 72.461 98.1096 73.2052C97.7717 73.8258 97.1379 74.04 96.5572 73.6447C94.1037 71.984 92.2686 69.9126 92.3967 66.6995C92.4497 65.3811 92.8737 64.171 93.556 63.0403C93.7173 62.7731 93.8299 62.4441 93.8542 62.1349C94.0706 59.3657 94.34 56.5964 94.4305 53.8228C94.4902 51.9943 94.5122 50.1083 94.1413 48.3351C93.4589 45.08 90.4489 42.5426 87.3683 42.3372C87.5163 42.4962 87.6068 42.6133 87.715 42.7104C91.0893 45.769 92.2156 49.6402 91.8115 54.059C91.5995 56.3844 90.8818 58.5729 89.9874 60.7171C89.2167 62.5611 88.6668 64.4558 89.0312 66.4963C89.2476 67.7087 89.8262 68.7047 90.7382 69.5284C92.5181 71.136 92.9046 72.7658 92.0566 75.0271C90.9546 77.962 89.8306 80.888 88.7485 83.8295C88.4504 84.6422 87.9624 85.0065 87.0901 84.9999C83.5369 84.9778 79.9837 84.9955 76.4305 84.9889C75.1916 84.9867 74.8184 84.5803 74.8537 83.3304C74.9509 79.9649 77.4993 77.7213 81.1938 77.8781C82.0021 77.9112 82.3532 77.644 82.5829 76.9837C82.7463 76.5177 82.945 76.0584 83.0643 75.5814C83.3977 74.2365 83.0842 73.3598 81.9292 72.5869C81.0613 72.0083 80.136 71.5159 79.235 70.9837C76.8501 69.5747 75.0414 67.6292 73.7098 65.2045C73.5133 64.8467 73.0937 64.4912 72.705 64.3763C69.9844 63.5659 67.2483 63.8706 64.5386 64.4558C62.2839 64.9417 60.0602 65.5821 57.7966 66.0171C55.6855 66.4213 53.5699 66.1982 51.536 65.6594ZM52.8676 37.5562C52.8102 37.6269 52.755 37.6998 52.6976 37.7704C52.6799 37.7925 52.6556 37.8102 52.6468 37.8345C52.607 37.9648 52.5673 38.095 52.5386 38.2275C51.7303 41.794 50.0101 44.8437 47.285 47.2861C46.9581 47.5776 46.278 47.7852 45.918 47.6416C45.5514 47.4937 45.3439 46.8798 45.1363 46.4381C45.0259 46.1996 45.0612 45.8927 45.0126 45.4355C44.5467 46.0494 44.222 46.4889 43.8842 46.9173C42.3185 48.907 40.4568 50.5721 38.2816 51.864C37.9128 52.0826 37.257 52.1842 36.9235 51.9987C36.5989 51.8176 36.4642 51.2147 36.3405 50.7708C36.2522 50.4528 36.3228 50.0907 36.3228 49.7484C35.0531 51.6409 33.8937 53.5953 34.6865 55.9317C35.3468 57.875 36.1307 59.7963 37.0693 61.6181C38.604 64.6016 40.8411 67.086 43.1002 69.546C45.9269 72.6289 46.0616 76.6215 43.5551 79.6028C43.0803 80.1681 42.579 80.3514 41.8282 80.2586C40.914 80.146 39.9578 80.1151 39.0545 80.263C37.851 80.4574 37.045 81.5107 37.0339 82.6149C37.109 82.6326 37.1863 82.6679 37.2658 82.6679C40.13 82.6723 42.9942 82.69 45.8584 82.6525C46.1102 82.6503 46.4789 82.3433 46.5916 82.0893C47.6604 79.6756 48.6939 77.2465 49.7186 74.8151C49.8422 74.5214 49.8952 74.1813 49.9151 73.8589C50.1072 70.5111 49.5816 67.2759 48.3141 64.1688C48.0667 63.5593 47.9629 62.9939 48.5283 62.5169C49.0627 62.0664 49.5728 62.2652 50.1249 62.5589C50.7498 62.8923 51.4101 63.1927 52.0881 63.3958C54.7005 64.1798 57.3196 63.9899 59.9056 63.2722C62.5865 62.528 65.2586 61.7838 68.0587 61.6358C70.2229 61.521 72.3583 61.638 74.3701 62.5302C74.7676 62.7068 75.2115 63.0381 75.3859 63.4135C76.7816 66.397 79.0805 68.4264 81.9601 69.8972C82.6403 70.2439 83.2785 70.6988 83.877 71.1758C84.9281 72.0105 85.4449 73.1279 85.4758 74.4772C85.5199 76.3477 84.7868 77.9531 83.8372 79.5012C83.4794 80.0864 83.0135 80.316 82.3267 80.2608C81.5604 80.2012 80.7831 80.1659 80.0212 80.241C78.5372 80.3867 77.4883 81.3783 77.3977 82.6745C80.3701 82.6745 83.3403 82.6878 86.3083 82.648C86.5181 82.6458 86.8206 82.2969 86.9178 82.0452C87.9314 79.4305 88.9164 76.8048 89.9013 74.1791C90.4003 72.8475 90.2391 72.1872 89.1836 71.2442C87.9756 70.1644 87.1762 68.8394 86.8206 67.2626C86.2774 64.8555 86.7632 62.5523 87.6554 60.3219C88.4747 58.2747 89.2873 56.2276 89.5104 54.0127C89.9653 49.5077 88.616 45.78 84.6366 43.3222C81.3418 41.2861 77.6782 41.052 73.9417 41.4694C71.4838 41.7432 69.0458 42.2931 66.5835 42.3925C62.1205 42.5735 58.0594 41.2883 54.5415 38.4395C54.0579 38.0531 53.4285 37.8477 52.8676 37.5562ZM38.7785 48.7414C41.4108 46.5728 43.4027 44.2342 44.5069 41.222C44.7498 40.5595 45.0656 39.9655 45.8915 40.0781C46.6976 40.1885 46.8985 40.8003 46.9493 41.5268C47.0023 42.2975 47.1238 43.0616 47.2254 43.9272C47.4086 43.7682 47.4771 43.7219 47.5257 43.66C47.6781 43.4635 47.826 43.267 47.9651 43.0616C49.3144 41.0697 50.1403 38.879 50.4782 36.494C50.6571 35.2309 51.1032 34.9592 52.3376 35.2154C52.6446 35.2794 52.956 35.3214 53.3248 35.3832C53.073 32.9231 52.5629 30.6684 51.4278 28.5683C51.2313 28.204 51.207 27.5304 51.4234 27.2212C51.6332 26.9187 52.2471 26.8812 52.691 26.7575C52.8433 26.7155 53.0222 26.773 53.2408 26.7884C53.1702 26.6316 53.1481 26.5521 53.1039 26.4859C52.9626 26.2827 52.8213 26.0773 52.6667 25.8852C51.1981 24.0523 49.3696 22.6566 47.3534 21.4862C46.8345 21.1837 46.4944 20.7619 46.66 20.1325C46.8323 19.4833 47.3115 19.2161 47.9696 19.2337C48.3914 19.2448 48.8153 19.2359 49.4712 19.2359C46.8521 17.3699 44.1492 16.4888 41.2143 16.3165C39.1605 16.1973 37.2062 16.5661 35.4859 17.7784C35.1016 18.0501 34.7704 18.3968 34.2625 18.8429C34.8057 18.8671 35.1016 18.8716 35.3954 18.8936C38.4053 19.1366 40.8808 20.4152 42.7844 22.7604C43.4756 23.6106 43.1444 24.4984 42.0844 24.7479C41.7244 24.8318 41.3556 24.8826 41.0862 24.9312C41.6162 26.0023 42.2191 26.9916 42.6122 28.056C43.4292 30.2776 42.3803 30.8893 40.671 30.5227C40.1675 30.4145 39.8849 30.5912 39.6663 31.0902C38.8227 33.0203 37.5109 34.5949 35.8701 35.9066C35.625 36.1031 35.4086 36.377 35.2739 36.6618C34.3817 38.55 33.5271 40.458 32.6371 42.3483C31.7163 44.3027 31.2393 46.3454 31.3939 48.5095C31.4822 49.7594 31.7671 50.9585 32.487 52.1422C33.399 49.4503 34.8057 47.211 36.7866 45.3406C37.1929 44.9563 37.6236 44.709 38.1955 44.9585C38.7962 45.2213 38.9353 45.7138 38.8955 46.3166C38.8514 47.052 38.8249 47.7874 38.7785 48.7414ZM39.5006 22.7781C37.5794 21.4332 35.614 21.1793 33.5359 21.1991C31.9504 21.2146 29.5786 23.1204 29.307 24.6552C29.1635 25.4612 28.6997 25.7748 27.9997 26.0486C26.6217 26.5875 25.2856 27.2389 23.9275 27.8285C23.5079 28.0118 23.3379 28.2923 23.4549 28.7362C23.7729 29.9265 24.0688 31.1256 24.4222 32.3048C24.6828 33.1793 25.3232 33.6983 26.2242 33.7844C28.629 34.0185 31.0361 34.2239 33.4432 34.4049C33.7369 34.427 34.1101 34.3011 34.342 34.1156C35.9607 32.8238 37.2923 31.3 37.893 29.2684C38.1359 28.4513 38.5952 28.0604 39.452 28.151C39.6596 28.173 39.8716 28.1532 40.1653 28.1532C40.0748 27.95 40.0505 27.8042 39.9644 27.7159C39.1517 26.8723 38.2971 26.0663 37.522 25.1918C37.2261 24.8583 36.9368 24.3725 36.9368 23.9573C36.9346 23.392 37.4182 23.0784 38.01 23.0122C38.4428 22.9636 38.869 22.8797 39.5006 22.7781ZM96.7294 70.7893C97.7739 68.6053 97.361 65.6505 95.3448 64.6811C94.1148 66.7437 94.711 69.4599 96.7294 70.7893Z" fill="black"/>
<path d="M34.0394 24.9134C34.0417 25.6532 33.4366 26.2826 32.699 26.3025C31.9415 26.3245 31.279 25.6554 31.3011 24.8869C31.321 24.1449 31.9482 23.5354 32.6857 23.542C33.4233 23.5509 34.0372 24.1714 34.0394 24.9134Z" fill="black"/>
</svg>
