<svg width="120" height="100" viewBox="0 0 120 100" fill="none" xmlns="http://www.w3.org/2000/svg">
<rect width="120" height="100" fill="white"/>
<path d="M46.5311 39.4026C46.5311 36.4661 46.5537 33.622 46.5178 30.7798C46.5065 29.9254 46.3896 29.0597 46.2199 28.2204C45.9634 26.9455 46.1199 25.712 46.6216 24.5597C48.8037 19.5485 52.357 15.9632 57.6378 14.2337C57.9924 14.1187 58.3734 14.0697 58.7468 14.03C61.4891 13.7358 63.3468 15.6332 63.0054 18.3679C62.9734 18.6244 62.9469 18.8828 62.9469 19.1412C62.9432 25.7064 62.9451 32.2716 62.9451 38.8368C62.9451 38.9971 62.9451 39.1575 62.9451 39.4026C63.2468 39.4026 63.4977 39.4026 63.7466 39.4026C65.048 39.4064 65.3497 39.7119 65.3497 41.0378C65.3497 44.3553 65.3497 47.6747 65.3497 50.9922C65.3497 52.7047 65.3497 54.4172 65.3497 56.0977C65.4478 56.1505 65.4855 56.1882 65.5251 56.1901C67.347 56.2655 67.4715 56.3938 67.4715 58.2081C67.4715 65.5259 67.4734 72.8455 67.4715 80.1633C67.4715 83.775 65.2309 85.9967 61.5928 85.9986C56.9947 86.0005 52.3966 86.0005 47.7966 85.9986C44.2622 85.9967 42.0027 83.7448 42.0008 80.2217C41.999 72.8097 42.0008 65.3957 42.0008 57.9837C42.0008 56.4654 42.229 56.2335 43.7473 56.2033C43.8397 56.2014 43.934 56.1901 44.1245 56.1769C44.1245 55.926 44.1245 55.6771 44.1245 55.4281C44.1245 50.6754 44.1245 45.9207 44.1245 41.168C44.1245 39.6554 44.3659 39.4121 45.8785 39.4026C46.0652 39.4026 46.2519 39.4026 46.5311 39.4026ZM44.2678 58.4929C44.2678 58.7796 44.2678 58.9889 44.2678 59.2002C44.2678 66.2312 44.2659 73.2642 44.2678 80.2953C44.2678 82.4793 45.5409 83.7391 47.7456 83.7391C52.389 83.741 57.0324 83.741 61.6739 83.7391C63.9654 83.7391 65.2064 82.4981 65.2064 80.2066C65.2083 73.2208 65.2064 66.2369 65.2064 59.2511C65.2064 59.0021 65.2064 58.7532 65.2064 58.4929C58.1923 58.4929 51.2706 58.4929 44.2678 58.4929ZM63.0375 56.175C63.0375 51.3147 63.0375 46.5073 63.0375 41.7187C57.4643 41.7187 51.9401 41.7187 46.4273 41.7187C46.4273 46.5638 46.4273 51.3543 46.4273 56.175C51.9703 56.175 57.4775 56.175 63.0375 56.175ZM60.6611 23.8411C60.4367 24.0901 60.299 24.2504 60.1575 24.4031C59.3088 25.3141 58.5129 26.2835 57.5944 27.119C55.7329 28.8145 53.6621 30.197 51.1348 30.6987C50.3898 30.8458 49.6109 30.8175 48.8414 30.8684C48.8414 33.6974 48.8414 36.5265 48.8414 39.3536C52.8058 39.3536 56.7231 39.3536 60.6611 39.3536C60.6611 34.2085 60.6611 29.1125 60.6611 23.8411ZM60.7214 18.2717C60.7422 16.712 60.2537 16.1631 59.1428 16.2838C58.3394 16.3706 57.5058 16.5724 56.7816 16.9213C53.3188 18.5942 50.7256 21.1856 49.0489 24.637C48.6792 25.3971 48.4906 26.2854 48.4058 27.1322C48.3096 28.1016 48.8358 28.6448 49.7995 28.5524C50.6935 28.4656 51.6365 28.2827 52.4362 27.8904C55.8159 26.2345 58.3564 23.6808 60.0387 20.3199C60.4216 19.5599 60.5857 18.6923 60.7214 18.2717Z" fill="black"/>
<path d="M47.0968 71.2274C47.0968 69.0189 47.093 66.8122 47.0987 64.6037C47.1006 63.7154 47.5212 63.2156 48.2397 63.2212C48.9527 63.2269 49.3581 63.7267 49.36 64.6244C49.3619 69.0396 49.3619 73.4567 49.36 77.8718C49.36 78.762 48.947 79.2863 48.2529 79.3014C47.5325 79.3184 47.0987 78.779 47.0987 77.8492C47.0949 75.6444 47.0968 73.4359 47.0968 71.2274Z" fill="black"/>
</svg>
