<svg width="120" height="100" viewBox="0 0 120 100" fill="none" xmlns="http://www.w3.org/2000/svg">
<rect width="120" height="100" fill="white"/>
<path d="M37.7802 29.9718C38.1038 27.7456 37.9553 25.6023 36.5952 23.6763C36.4936 23.5325 36.3232 23.4027 36.2997 23.2479C36.2575 22.9603 36.1903 22.5741 36.3373 22.3865C36.5014 22.1755 36.9141 22.0004 37.1768 22.0473C41.1852 22.7492 44.3665 26.8233 44.1258 30.9083C44.0945 31.4335 44.0023 31.9541 43.9679 32.4779C43.9523 32.7202 43.9366 33.0016 44.0382 33.2079C44.9012 34.9604 44.8011 36.7114 44.0804 38.4717C44.021 38.6155 43.9695 38.7624 43.9163 38.9078C43.9116 38.9219 43.9257 38.9438 43.9491 39.0313C46.7663 39.7114 48.8799 41.7578 51.4437 43.1679C51.3765 38.7312 52.2473 34.6431 55.4115 31.3116C54.3781 29.6998 53.029 28.4257 51.4531 27.383C49.5333 26.1104 47.4338 25.2584 45.2045 24.6909C44.9075 24.6159 44.5917 24.2969 44.4572 24.0093C44.3759 23.8358 44.5573 23.4074 44.748 23.273C44.9637 23.1213 45.3421 23.0838 45.6125 23.1479C50.0571 24.2031 53.8528 26.2933 56.5715 30.0828C56.5934 30.1141 56.6277 30.1344 56.7153 30.2126C58.56 28.5351 60.461 28.5445 62.3245 30.2251C65.0994 26.3652 68.8874 24.2235 73.3523 23.1495C74.0245 22.9884 74.4497 23.1854 74.5826 23.6825C74.7171 24.1859 74.4028 24.5627 73.6993 24.7409C70.2663 25.6101 67.199 27.1281 64.7727 29.7811C64.5226 30.0547 64.2943 30.347 64.0676 30.6394C63.9129 30.8395 63.7769 31.0537 63.6049 31.3022C65.1026 32.8812 66.1578 34.7165 66.7941 36.7989C67.421 38.8547 67.6023 40.9605 67.5726 43.1679C70.1162 41.7859 72.222 39.7208 75.0798 39.0313C74.8656 38.2591 74.6217 37.5274 74.4638 36.777C74.2199 35.6155 74.4185 34.4977 74.8765 33.4065C75.0094 33.0891 75.0751 32.6905 75.0204 32.3528C74.1214 26.8327 77.4169 23.3824 81.7317 22.0536C82.132 21.9301 82.4759 22.0145 82.7088 22.3662C82.9574 22.743 82.8605 23.101 82.5947 23.4418C81.1392 25.3115 80.9251 27.4596 81.194 29.7154C81.2002 29.7733 81.219 29.8296 81.2409 29.8843C81.2549 29.9202 81.2815 29.9499 81.3253 30.0187C81.9866 29.5951 82.4931 29.0088 82.762 28.3069C83.2951 26.9124 83.7234 25.4757 84.1924 24.0562C84.2284 23.9452 84.2112 23.7935 84.2815 23.7216C84.5098 23.4871 84.7365 23.1698 85.0194 23.0916C85.4103 22.9837 85.7386 23.2573 85.848 23.6607C86.1528 24.7878 86.5015 25.9087 86.7078 27.0547C87.1565 29.5372 87.1878 32.0214 86.4389 34.4648C85.5025 37.5196 83.5405 39.6614 80.6437 40.9777C80.406 41.0856 80.1387 41.2997 80.048 41.528C79.3086 43.3899 78.0517 44.7563 76.2679 45.6552C73.5242 47.0372 70.6368 48.0283 67.6696 48.7881C67.1333 48.9257 66.8723 49.0914 66.8254 49.7105C66.7566 50.6094 66.6878 51.5474 65.9999 52.2775C65.8952 52.3884 65.9452 52.6495 65.9264 52.8403C65.817 53.9846 65.7107 55.1274 65.5997 56.2718C65.5903 56.3671 65.5872 56.4813 65.5341 56.5532C64.7321 57.6569 65.0338 58.9873 64.7743 60.202C64.6133 60.9571 64.5273 61.7075 64.0708 62.4016C63.8144 62.7924 63.952 63.424 63.8363 63.929C63.705 64.5011 63.891 64.7669 64.421 65.0249C65.8014 65.694 66.9848 66.6523 68.0197 67.7873C68.9843 68.8456 69.0359 70.2276 68.1542 71.361C67.4132 72.3131 66.5174 73.087 65.4481 73.6435C65.1495 73.7998 64.9744 73.9765 64.9118 74.3267C64.7414 75.285 64.1677 75.9619 63.2719 76.3059C60.7456 77.2798 58.2036 77.2798 55.6866 76.2746C54.819 75.9291 54.3062 75.2412 54.0826 74.3189C54.0248 74.0797 53.8169 73.8092 53.6027 73.6842C52.5428 73.0713 51.611 72.3178 50.8591 71.3485C49.9805 70.2167 50.0383 68.8347 51.0091 67.7763C52.1019 66.5866 53.3573 65.6064 54.8158 64.9076C55.1848 64.731 55.3286 64.5387 55.1895 64.1541C55.177 64.1181 55.1832 64.0759 55.1785 64.0384C55.0707 63.2645 54.9394 62.5267 54.6548 61.7638C54.2421 60.66 54.2484 59.4016 54.0467 58.2134C53.981 57.8273 53.8325 57.4552 53.7106 57.08C53.6262 56.8221 53.4964 56.5782 53.4307 56.3171C53.351 55.9966 53.2932 55.6668 53.2713 55.3369C53.1665 53.7626 53.0571 52.1962 52.3567 50.7329C52.1957 50.3952 52.1551 49.9684 52.1691 49.587C52.1863 49.0836 51.9518 48.935 51.5141 48.8241C48.5813 48.083 45.7345 47.1044 43.0049 45.7849C41.0914 44.8594 39.7156 43.4603 38.948 41.4655C38.8824 41.2935 38.701 41.1184 38.5306 41.0434C34.2799 39.1627 32.2929 35.7624 32.0287 31.2459C31.8833 28.7477 32.2992 26.3121 33.0668 23.9327C33.073 23.9139 33.0762 23.8952 33.0824 23.8764C33.2262 23.4152 33.4623 23.0353 34.0126 23.0775C34.5269 23.1166 34.702 23.5028 34.813 23.9514C35.0381 24.8582 35.2336 25.7774 35.5431 26.656C35.8135 27.422 36.1825 28.1615 36.5905 28.865C36.8469 29.3059 37.2565 29.6576 37.5957 30.05C37.6583 30.0234 37.7192 29.9984 37.7802 29.9718ZM53.0837 42.6254C53.1024 42.9662 53.1822 43.5322 53.1556 44.095C53.1243 44.7781 53.4432 45.2253 53.9341 45.6333C55.7992 47.1826 57.9785 47.6672 60.3297 47.4968C62.2464 47.3576 63.9832 46.7229 65.3793 45.3441C65.5856 45.1408 65.7811 44.8376 65.8108 44.5608C66.0437 42.4128 65.9405 40.2742 65.4496 38.1684C64.7305 35.0839 63.2156 32.5404 60.4173 30.8833C59.8013 30.519 59.2198 30.5221 58.6038 30.8848C56.9107 31.8807 55.6257 33.2595 54.722 34.9933C53.512 37.3132 53.1462 39.8224 53.0837 42.6254ZM85.082 27.2282C84.7755 27.9067 84.5582 28.4398 84.3003 28.9541C83.5046 30.5409 82.3446 31.7181 80.5639 32.1464C79.9214 32.3012 79.2617 32.3762 78.6098 32.4919C77.1465 32.7514 76.4039 33.4362 76.1162 34.8869C75.7192 36.8818 76.6134 38.4889 77.7484 40.0022C77.8156 40.0913 78.0313 40.1444 78.1486 40.1116C81.1721 39.258 83.5515 37.6322 84.6849 34.5586C85.5463 32.2183 85.5025 29.8218 85.082 27.2282ZM34.0313 27.3861C33.9626 27.3892 33.8922 27.3923 33.8234 27.3955C33.7703 28.6352 33.6343 29.8765 33.678 31.1131C33.8391 35.7124 36.3154 38.8406 40.6927 40.0413C40.885 40.0944 41.2227 40.0475 41.329 39.9162C42.0591 39.0157 42.6172 38.0105 42.8767 36.8708C43.4473 34.3679 42.3623 32.7014 39.8548 32.4263C37.1189 32.1261 35.3492 30.6878 34.3596 28.1818C34.2533 27.9145 34.1408 27.6503 34.0313 27.3861ZM59.4761 75.5258C60.5033 75.3022 61.5007 75.1302 62.4684 74.8582C63.2672 74.6331 63.5517 74.0922 63.2406 73.3262C62.5418 71.5971 61.7711 69.8962 61.0285 68.1859C60.7768 67.6059 60.4345 67.2151 59.7044 67.4152C59.4527 67.484 59.1557 67.373 58.8915 67.4183C58.6804 67.4543 58.4037 67.5481 58.3021 67.7091C57.1812 69.4804 56.3354 71.3814 55.7538 73.3949C55.5475 74.1078 55.7601 74.6096 56.4667 74.8144C57.4501 75.1005 58.4615 75.2913 59.4761 75.5258ZM53.6433 47.5312C53.7715 48.6552 53.8622 49.6339 54.0092 50.6031C54.0451 50.8439 54.2171 51.1112 54.4047 51.2722C57.239 53.7126 61.8164 53.7048 64.6351 51.2707C64.7508 51.1706 64.904 51.0596 64.94 50.9267C65.2308 49.8574 65.3324 48.7678 65.2667 47.5937C61.4069 49.723 57.6048 49.7152 53.6433 47.5312ZM51.9925 47.3764C52.2754 46.2211 52.0237 45.5567 51.1811 45.008C49.6303 43.9996 48.1107 42.9412 46.5192 42.0017C45.575 41.4436 44.5182 41.0777 43.5176 40.6134C43.1284 40.4321 42.897 40.5493 42.6531 40.8917C42.267 41.4342 41.9137 42.0798 40.9835 41.8797C41.4728 42.7646 42.0825 43.418 42.8829 43.8401C43.9304 44.392 44.9903 44.9423 46.0971 45.3566C48.0388 46.0851 50.018 46.7073 51.9925 47.3764ZM78.0188 41.9219C77.1871 41.8954 77.1731 41.8907 76.665 41.2841C76.5149 41.1043 76.4008 40.8855 76.2241 40.7432C76.0865 40.6338 75.8395 40.5259 75.702 40.579C74.7436 40.9464 73.7416 41.2528 72.8676 41.7719C71.0948 42.824 69.3924 43.9934 67.6649 45.1236C67.1412 45.466 66.6128 46.4947 67.0349 47.2732C67.3084 47.2029 67.5914 47.1357 67.8697 47.0559C70.6618 46.2633 73.4101 45.3581 75.9677 43.9511C76.8197 43.4821 77.4967 42.8302 78.0188 41.9219ZM54.6986 53.5172C54.8284 54.4474 54.9237 55.2368 55.0582 56.0185C55.0879 56.1889 55.2254 56.3703 55.363 56.4906C57.622 58.4917 61.3865 58.4964 63.6518 56.5078C63.7659 56.4078 63.9129 56.2827 63.9348 56.1514C64.0755 55.3213 64.1865 54.4849 64.3256 53.5234C61.0739 55.143 57.9644 55.1524 54.6986 53.5172ZM55.7085 58.7825C55.8117 59.4688 55.8711 60.1269 56.0259 60.7601C56.09 61.018 56.3166 61.3229 56.5511 61.437C58.5288 62.4 60.5267 62.3875 62.5074 61.4308C62.695 61.3401 62.9123 61.14 62.9546 60.9555C63.1125 60.2583 63.2031 59.5469 63.3251 58.8044C59.2838 59.8706 59.2838 59.8706 55.7085 58.7825ZM56.8232 66.7133C56.4355 66.596 55.9352 66.2568 55.6288 66.3834C54.2656 66.9493 53.129 67.8733 52.1504 68.9817C51.8158 69.3615 51.783 69.8133 52.0706 70.2229C52.6585 71.0578 53.4167 71.7097 54.2781 72.1709C55.1129 70.3793 55.9321 68.6237 56.8232 66.7133ZM62.2448 66.8024C63.0968 68.6299 63.9191 70.3949 64.8055 72.3006C65.509 71.6378 66.2141 71.0327 66.8441 70.3574C67.2912 69.879 67.2381 69.3819 66.7988 68.8925C65.8498 67.8404 64.7383 66.9962 63.4642 66.3787C63.311 66.3052 63.0656 66.3334 62.8967 66.4022C62.6513 66.5006 62.4371 66.6789 62.2448 66.8024ZM39.3436 30.5909C40.4113 30.8364 41.4056 31.063 42.4014 31.2913C42.9799 29.0026 41.243 25.5335 38.9684 24.6174C39.6093 26.595 39.7735 28.5695 39.3436 30.5909ZM76.6165 31.2897C77.6514 31.0537 78.6457 30.827 79.6791 30.5925C79.2507 28.5758 79.4211 26.5903 80.0621 24.5752C77.6061 25.8587 76.1037 28.8744 76.6165 31.2897ZM56.7434 63.2927C56.82 63.8086 56.8357 64.2229 56.9561 64.6043C57.0342 64.8498 57.2218 65.1343 57.4407 65.2515C58.8492 66.0082 60.2734 65.9801 61.6726 65.2093C61.8258 65.1249 61.9947 64.9545 62.0322 64.7951C62.1432 64.3323 62.1901 63.8539 62.2745 63.3068C60.4063 63.918 58.6304 63.943 56.7434 63.2927Z" fill="black"/>
<path d="M56.9295 37.2506C56.24 37.2459 55.7132 36.7144 55.7163 36.0265C55.7179 35.3558 56.2807 34.7946 56.9451 34.8008C57.6126 34.8071 58.1614 35.3683 58.1582 36.0421C58.1551 36.7269 57.6189 37.2553 56.9295 37.2506Z" fill="black"/>
<path d="M62.1072 37.2507C61.4162 37.2585 60.8784 36.7426 60.8659 36.0548C60.8534 35.3841 61.399 34.8135 62.0666 34.801C62.7294 34.7885 63.2969 35.3419 63.3079 36.0141C63.3204 36.6973 62.792 37.2414 62.1072 37.2507Z" fill="black"/>
</svg>
