<svg width="120" height="100" viewBox="0 0 120 100" fill="none" xmlns="http://www.w3.org/2000/svg">
<rect width="120" height="100" fill="white"/>
<path d="M59.3007 87.6079C58.8086 87.3181 58.2674 87.0885 57.8354 86.7277C56.9224 85.9659 56.7474 84.8998 56.7493 83.7681C56.7584 76.7608 56.7547 69.7518 56.7547 62.7446C56.7547 59.6884 56.7383 56.634 56.7693 53.5778C56.7748 52.9964 56.5798 52.8051 56.0331 52.6775C48.3606 50.8988 43.2524 46.2698 40.8523 38.7651C38.4193 31.1656 41.3407 22.1008 47.7629 17.3571C54.3947 12.4584 61.606 11.5745 68.9668 15.2959C76.3914 19.0501 80.2385 25.3867 79.9378 33.7461C79.6225 42.5084 75.0191 48.5078 66.9567 51.8556C66.0473 52.2328 65.0668 52.4643 64.0991 52.6647C63.4922 52.7905 63.2863 53.0073 63.2881 53.6507C63.31 63.6412 63.3064 73.6317 63.2972 83.6223C63.2972 84.1745 63.259 84.7412 63.1314 85.2752C62.8325 86.529 61.8429 87.1286 60.7568 87.6079C60.272 87.6079 59.7854 87.6079 59.3007 87.6079ZM55.089 50.2354C55.5392 50.3393 56.0732 50.4815 56.6162 50.5817C61.6388 51.5221 66.2787 50.558 70.4047 47.5583C75.2469 44.0374 77.6962 39.1952 77.8329 33.2103C77.873 31.4116 77.7527 29.5874 77.0165 27.9326C75.8301 25.2646 74.1042 22.9847 71.7424 21.1969C66.4081 17.1621 58.9143 16.732 53.478 21.0949C49.6892 24.1365 48.0909 28.0784 48.8399 32.9005C49.4833 37.0356 51.8342 39.6763 55.9237 40.6896C57.8919 41.178 59.8547 41.3967 61.6151 40.0335C64.6622 37.6735 65.3712 35.3535 63.3756 32.3957C62.9473 31.7615 61.7919 31.3241 61.2543 31.6394C60.5727 32.0385 60.9281 32.6727 61.0137 33.2158C61.3746 35.5048 60.1955 36.7422 57.9174 36.385C56.6363 36.1827 55.3843 35.8128 54.5678 34.6956C52.9805 32.5233 53.1081 28.6616 54.7975 26.553C57.0974 23.6827 60.1554 22.6202 63.7055 23.0576C69.2383 23.741 72.4932 27.8451 73.4901 32.9333C74.4414 37.7956 73.029 42.1493 69.2329 45.6265C66.2824 48.3274 62.9692 50.0714 58.9252 50.2281C57.6222 50.2774 56.3174 50.2354 55.089 50.2354ZM63.9588 15.7078C58.2254 14.5779 52.9714 15.7406 48.47 19.6023C43.8556 23.5606 41.8546 28.6962 42.2974 34.7466C42.4359 36.631 42.7749 38.5136 43.7809 40.1665C46.1993 44.1431 49.7512 46.607 54.2453 47.6585C60.3741 49.0928 65.3821 47.0972 69.3295 42.3535C71.5146 39.7273 72.7739 34.1197 69.827 29.4397C67.4396 25.6509 63.1606 24.4645 59.9312 25.5142C56.6545 26.5804 54.7264 29.3905 56.0622 32.7948C56.465 33.8227 57.7188 34.4277 58.8979 34.1307C58.8341 33.5675 58.7485 32.9971 58.7084 32.4231C58.6209 31.1947 59.2624 30.0976 60.4014 29.642C61.9031 29.0425 63.3464 29.3705 64.46 30.4184C65.9963 31.8636 66.8911 33.7498 66.687 35.8838C66.3115 39.8148 62.0361 43.7567 57.83 43.2082C57.2049 43.1262 56.578 43.0533 55.962 42.9275C52.1094 42.1457 49.1789 40.1155 47.5971 36.447C45.9222 32.5652 46.0207 28.6069 47.7866 24.8144C50.0172 20.0269 53.9956 17.2988 59.0674 16.1798C60.6766 15.8281 62.3733 15.8517 63.9588 15.7078ZM58.9745 53.1531C58.9599 53.3846 58.9416 53.5522 58.9416 53.7217C58.9398 63.7797 58.9398 73.8377 58.9416 83.8938C58.9416 84.0633 58.9508 84.2328 58.969 84.4004C59.0401 85.0219 59.4045 85.39 60.0132 85.3991C60.6201 85.4082 61.0083 85.0583 61.083 84.4332C61.1158 84.1708 61.1176 83.9011 61.1176 83.635C61.1194 73.7721 61.1194 63.9073 61.1194 54.0443C61.1194 53.76 61.1194 53.4757 61.1194 53.1513C60.3759 53.1531 59.7089 53.1531 58.9745 53.1531Z" fill="black"/>
</svg>
