<svg width="120" height="100" viewBox="0 0 120 100" fill="none" xmlns="http://www.w3.org/2000/svg">
<rect width="120" height="100" fill="white"/>
<path d="M26 43.8591C26.2142 43.4233 26.3813 42.9574 26.6519 42.5611C27.3469 41.5466 28.3332 41.0244 29.5711 41.0169C31.3764 41.0075 33.1798 41.0131 34.9851 41.0112C35.2387 41.0112 35.4942 41.0112 35.6934 41.0112C36.0578 39.8766 36.2964 38.7664 36.7604 37.7595C39.3716 32.0768 43.8519 29.1162 50.0925 29.0091C55.762 28.9133 61.4352 28.9885 67.1066 28.9885C67.3809 28.9885 67.6551 28.9885 68.0121 28.9885C68.0121 28.6541 68.0121 28.4043 68.0121 28.1525C68.0121 25.3403 68.0083 22.5281 68.0139 19.7159C68.0177 17.9106 68.9363 17.0033 70.7472 17.0014C73.7229 16.9995 76.7004 16.9995 79.676 17.0014C81.4644 17.0033 82.3905 17.9369 82.3943 19.7385C82.3962 21.168 82.4018 22.5976 82.3924 24.0272C82.383 25.6052 81.4325 26.5764 79.8582 26.5839C76.9991 26.5971 74.1399 26.5877 71.2807 26.5877C71.0271 26.5877 70.7735 26.5877 70.4654 26.5877C70.4654 27.3992 70.4654 28.1525 70.4654 28.9885C70.7604 28.9885 71.0346 28.9885 71.3089 28.9885C75.3159 28.9885 79.3247 28.9791 83.3317 28.9904C90.6261 29.0091 96.4252 33.8126 97.774 40.9737C97.9337 41.819 97.9844 42.6963 97.9882 43.5586C98.0051 49.7916 97.9995 56.0266 97.9976 62.2596C97.9976 64.0593 97.0771 64.9816 95.2699 64.9835C89.6925 64.9873 84.115 64.9854 78.5376 64.9854C78.2596 64.9854 77.9816 64.9854 77.604 64.9854C77.604 65.3104 77.604 65.5809 77.604 65.8514C77.604 72.4846 77.5777 79.1159 77.6246 85.7491C77.6359 87.3158 77.1456 88.4279 75.6409 88.9971C71.7504 88.9971 67.8599 88.9971 63.9694 88.9971C62.5098 88.4429 61.9706 87.3872 61.9819 85.8336C62.0288 79.1854 62.0025 72.5353 62.0025 65.8871C62.0025 65.6128 62.0025 65.3386 62.0025 64.9873C61.6306 64.9873 61.3338 64.9873 61.0351 64.9873C50.6636 64.9873 40.2921 64.9891 29.9205 64.9854C27.9161 64.9854 26.7815 64.1739 26.1221 62.3009C26.1014 62.2408 26.0432 62.192 26.0038 62.1394C26 56.0453 26 49.9513 26 43.8591ZM58.0332 31.3912C58.2454 31.5903 58.3074 31.6579 58.3788 31.7105C62.4158 34.7256 64.3958 38.7645 64.394 43.7915C64.3921 49.7653 64.394 55.7391 64.394 61.7129C64.394 61.9853 64.394 62.2577 64.394 62.5264C74.8444 62.5264 85.2046 62.5264 95.563 62.5264C95.5799 62.4005 95.5968 62.331 95.5968 62.2634C95.5968 55.8443 95.6212 49.4253 95.5799 43.0063C95.5648 40.6825 94.8341 38.5297 93.4872 36.6286C91.0056 33.1269 87.5791 31.4005 83.2997 31.3949C75.1712 31.3818 67.0408 31.3912 58.9123 31.3912C58.6831 31.3912 58.454 31.3912 58.0332 31.3912ZM38.2463 41.0112C38.592 41.0112 38.8644 41.0112 39.1367 41.0112C44.6165 41.0112 50.0981 41.0094 55.5779 41.0112C58.1853 41.0131 59.6017 42.4389 59.6017 45.0595C59.6036 50.8793 59.6017 56.701 59.6017 62.5433C60.3194 62.5433 61.1271 62.5433 61.9969 62.5433C61.9969 62.3216 61.9969 62.1394 61.9969 61.9572C61.9969 55.7504 62.0721 49.5437 61.9725 43.3388C61.8917 38.3475 59.5191 34.6054 54.988 32.5296C50.44 30.4462 46.0686 31.0943 42.1781 34.2841C40.0892 36.0011 38.8155 38.2516 38.2463 41.0112ZM70.411 65.023C70.411 65.378 70.411 65.6579 70.411 65.9378C70.411 71.4195 70.411 76.903 70.4091 82.3846C70.4091 82.6645 70.4166 82.9519 70.3602 83.2224C70.2381 83.8179 69.7197 84.2199 69.1542 84.1955C68.5474 84.1711 68.0797 83.7108 68.0233 83.0665C68.0027 82.8336 68.0102 82.5987 68.0102 82.3639C68.0102 76.8579 68.0102 71.3518 68.0102 65.8458C68.0102 65.5771 68.0102 65.3066 68.0102 65.0248C66.7497 65.0248 65.6113 65.0248 64.4372 65.0248C64.4372 72.216 64.4372 79.3695 64.4372 86.5663C64.7077 86.5794 64.9369 86.6001 65.1642 86.6001C68.2563 86.6019 71.3502 86.585 74.4423 86.6151C75.0529 86.6207 75.2351 86.4686 75.2313 85.8374C75.2032 79.1366 75.2088 72.4357 75.2032 65.7349C75.2032 65.5095 75.1806 65.2822 75.1656 65.023C73.5801 65.023 72.0453 65.023 70.411 65.023ZM29.7195 43.4534C29.9844 43.6995 30.1441 43.861 30.3169 44.0057C34.1041 47.2124 37.8931 50.4191 41.6822 53.6239C42.5952 54.396 43.0085 54.3941 43.9365 53.6089C47.1713 50.8718 50.4062 48.1347 53.6392 45.3958C54.3606 44.7834 55.0819 44.171 55.9292 43.4515C47.1244 43.4534 38.4999 43.4534 29.7195 43.4534ZM55.0632 62.5489C51.9917 59.9471 49.0537 57.458 46.0837 54.9426C45.1237 55.7974 44.175 56.5826 42.8244 56.5976C41.4455 56.6127 40.4856 55.7917 39.5181 54.9501C36.5368 57.473 33.6025 59.9584 30.5424 62.5489C38.7686 62.5489 46.8144 62.5489 55.0632 62.5489ZM28.4327 45.5592C28.4327 50.8211 28.4327 55.9345 28.4327 61.187C31.5605 58.5401 34.5963 55.9683 37.6658 53.3684C34.57 50.7497 31.553 48.1986 28.4327 45.5592ZM57.1878 45.5442C54.0412 48.2061 51.013 50.7685 47.9359 53.3722C51.013 55.974 54.0525 58.5438 57.1878 61.1963C57.1878 55.9195 57.1878 50.8211 57.1878 45.5442ZM70.441 24.138C73.6665 24.138 76.8112 24.138 79.9446 24.138C79.9446 22.5338 79.9446 20.9821 79.9446 19.4454C76.7455 19.4454 73.6008 19.4454 70.441 19.4454C70.441 21.0309 70.441 22.5676 70.441 24.138Z" fill="black"/>
<path d="M85.9504 60.1877C84.4044 60.1877 82.8583 60.1971 81.3104 60.184C79.8113 60.1708 78.8363 59.2409 78.8025 57.7399C78.7668 56.1714 78.7649 54.599 78.8044 53.0304C78.842 51.5388 79.8338 50.6089 81.3329 50.6052C84.4494 50.5958 87.566 50.5958 90.6825 50.6052C92.1891 50.6108 93.1847 51.6046 93.1998 53.1225C93.2167 54.646 93.2186 56.1695 93.1998 57.6911C93.181 59.1996 92.1835 60.1633 90.6618 60.1858C90.6149 60.1858 90.5679 60.1858 90.5209 60.1858C88.9974 60.1877 87.4739 60.1877 85.9504 60.1877ZM81.2221 57.7287C84.4513 57.7287 87.6129 57.7287 90.767 57.7287C90.767 56.1319 90.767 54.5971 90.767 53.0586C87.5641 53.0586 84.4025 53.0586 81.2221 53.0586C81.2221 54.6347 81.2221 56.1526 81.2221 57.7287Z" fill="black"/>
<path d="M42.8112 45.8092C43.9327 45.8092 45.0561 45.8035 46.1776 45.811C47.0567 45.8167 47.6034 46.2882 47.5921 47.0114C47.5827 47.714 47.0511 48.1968 46.2226 48.2006C43.9308 48.2118 41.639 48.2118 39.3471 48.2006C38.5318 48.1968 37.9927 47.684 38.0002 46.987C38.0077 46.2882 38.5412 45.8186 39.3734 45.811C40.5193 45.8035 41.6653 45.811 42.8112 45.8092Z" fill="black"/>
</svg>
