<svg width="120" height="100" viewBox="0 0 120 100" fill="none" xmlns="http://www.w3.org/2000/svg">
<rect width="120" height="100" fill="white"/>
<path d="M16.0068 23.6427C16.1316 23.2136 16.2497 22.7822 16.3859 22.3553C17.3823 19.2698 20.2854 17.0902 23.5381 17.0244C25.1519 16.9904 26.7658 16.9949 28.3796 17.0199C30.3475 17.0517 31.7821 18.5024 31.8297 20.4777C31.8456 21.152 31.832 21.8286 31.832 22.6301C32.4449 22.6301 33.001 22.6301 33.5548 22.6301C35.6226 22.6301 37.6904 22.646 39.756 22.6119C40.0124 22.6074 40.4006 22.4076 40.4982 22.1919C41.5945 19.8057 43.315 18.6251 45.6961 18.6932C47.9273 18.7567 49.6206 20.094 50.5966 22.6301C50.9189 22.6301 51.2776 22.6301 51.6362 22.6301C67.155 22.6301 82.676 22.6301 98.1948 22.6346C98.7032 22.6346 99.2185 22.6391 99.7156 22.7254C101.749 23.0841 102.882 24.3874 102.991 26.4557C103.007 26.7668 103.002 27.0778 103.002 27.3911C103.002 44.56 103.002 61.7289 103.002 78.9001C103.002 79.0976 103.005 79.2974 103 79.4949C102.957 82.476 101.459 83.9926 98.4649 83.9926C81.0486 84.0017 63.6322 83.9972 46.2136 83.9972C46.1296 83.9972 46.0434 83.9994 45.9594 83.9949C45.1241 83.9495 44.5612 83.4159 44.5816 82.6894C44.602 81.9924 45.1422 81.4702 45.9367 81.4543C47.1261 81.4316 48.3155 81.4475 49.5048 81.4475C54.4894 81.4475 59.4716 81.4475 64.5878 81.4475C64.4108 81.1705 64.2973 80.9639 64.1543 80.78C57.4719 72.0934 50.7827 63.4136 44.1163 54.7156C43.7463 54.232 43.3741 54.064 42.7794 54.0685C39.4382 54.0958 36.097 54.0821 32.7536 54.0844C32.4766 54.0844 32.202 54.1071 31.832 54.123C31.832 54.4749 31.832 54.7769 31.832 55.0811C31.832 59.1316 31.8365 63.1842 31.8297 67.2347C31.8252 69.6913 30.4406 71.0717 27.9869 71.0762C26.5706 71.0785 25.1542 71.0603 23.7401 71.0808C20.8279 71.1262 18.549 73.417 18.5535 76.2709C18.5581 79.1248 20.8438 81.4248 23.7628 81.4384C29.0878 81.4634 44.2661 81.4452 49.5911 81.4475C49.8748 81.4475 50.1676 81.418 50.4377 81.4793C51.0983 81.6268 51.4819 82.0787 51.4705 82.7484C51.4614 83.3796 51.0869 83.8087 50.465 83.9563C50.1949 84.0199 49.9021 83.9949 49.6183 83.9949C44.5203 83.9972 29.5667 83.9972 24.4687 83.9972C19.9245 83.9972 17.2393 81.9107 16.0999 77.4992C16.0863 77.4493 16.034 77.4107 16 77.3675C16.0068 59.4562 16.0068 41.5495 16.0068 23.6427ZM79.1964 25.2161C79.1964 25.6179 79.1964 25.954 79.1964 26.2877C79.1964 32.0954 79.1964 37.9032 79.1964 43.7109C79.1964 45.8859 78.3384 46.7419 76.1594 46.7419C67.2117 46.7419 58.2618 46.7419 49.3142 46.7396C48.976 46.7396 48.6241 46.7555 48.3064 46.6647C47.6527 46.4763 47.3326 45.9995 47.4053 45.3161C47.4733 44.669 47.866 44.2989 48.5038 44.2149C48.783 44.1786 49.069 44.1945 49.3528 44.1945C53.8833 44.1945 58.4139 44.1945 62.9445 44.1945C63.2486 44.1945 63.5505 44.1945 63.9069 44.1945C63.9227 43.8289 63.9454 43.5542 63.9477 43.2772C63.95 41.4632 63.9454 39.6514 63.95 37.8373C63.9545 36.0301 64.6582 35.324 66.4763 35.3194C69.5337 35.3126 72.5935 35.3172 75.6509 35.3172C75.9528 35.3172 76.257 35.3172 76.5861 35.3172C76.5861 31.882 76.5861 28.5581 76.5861 25.1797C76.2161 25.1797 75.9074 25.1797 75.5987 25.1797C70.3305 25.1797 65.0645 25.1797 59.7962 25.1797C56.9362 25.1797 54.0763 25.1707 51.2163 25.1934C50.9666 25.1956 50.5603 25.3409 50.4922 25.5203C49.8272 27.2867 48.5969 28.4333 46.7584 29.0099C46.7584 30.1815 46.7629 31.3394 46.7561 32.4996C46.7493 33.544 46.2567 34.1592 45.4555 34.1434C44.6792 34.1275 44.2162 33.5394 44.2093 32.5404C44.2025 31.5483 44.2343 30.5561 44.1889 29.5662C44.1776 29.3278 43.9869 28.9668 43.7894 28.8896C42.0621 28.2153 40.9431 26.9938 40.387 25.232C37.5451 25.232 34.7306 25.232 31.8865 25.232C31.8865 31.5573 31.8865 37.8305 31.8865 44.1922C32.2428 44.1922 32.547 44.1922 32.8512 44.1922C35.9381 44.1922 52.6122 44.1877 55.6992 44.1945C56.7229 44.1968 57.2767 44.6395 57.2926 45.4319C57.3085 46.2583 56.7274 46.726 55.6674 46.7396C55.4972 46.7419 55.3269 46.7396 55.1567 46.7396C52.24 46.7396 35.7361 46.7396 32.8194 46.7396C32.5175 46.7396 32.2156 46.7396 31.8888 46.7396C31.8888 48.3857 31.8888 49.925 31.8888 51.5279C32.2542 51.5279 32.5606 51.5279 32.8693 51.5279C36.24 51.5279 39.6107 51.5665 42.9791 51.5098C44.2911 51.4871 45.2013 51.9275 46.0093 52.981C53.1297 62.292 60.291 71.5757 67.4478 80.8594C67.6248 81.0888 67.8881 81.4089 68.1196 81.4134C70.0013 81.4588 71.8853 81.4384 73.9054 81.4384C73.6399 81.0706 73.4719 80.8209 73.288 80.5825C66.7623 72.1002 60.232 63.6179 53.7085 55.1334C53.4157 54.7542 53.1116 54.3682 52.9028 53.9414C52.4147 52.9356 52.8437 51.9661 53.9242 51.6823C54.4349 51.5484 54.9865 51.5347 55.5199 51.5347C70.133 51.5279 84.7438 51.5279 99.3569 51.5279C99.7088 51.5279 100.063 51.5279 100.406 51.5279C100.406 49.8683 100.406 48.3493 100.406 46.7396C100.058 46.7396 99.7542 46.7396 99.4523 46.7396C95.2622 46.7396 91.0698 46.7419 86.8797 46.7396C84.8755 46.7374 83.9857 45.8451 83.9834 43.8335C83.9812 37.969 83.9834 32.1045 83.9834 26.24C83.9834 25.9108 83.9834 25.5793 83.9834 25.2138C82.3696 25.2161 80.8511 25.2161 79.1964 25.2161ZM56.1895 54.1185C56.3257 54.3251 56.3801 54.4227 56.446 54.509C63.2305 63.3273 70.0104 72.1479 76.8199 80.9435C77.0423 81.2318 77.5666 81.4225 77.9525 81.4248C84.6893 81.4543 91.4284 81.4452 98.1653 81.4452C98.4762 81.4452 98.7895 81.4475 99.0982 81.418C99.9221 81.334 100.376 80.8708 100.433 80.0421C100.456 79.7311 100.453 79.42 100.453 79.109C100.453 71.0944 100.453 63.0775 100.453 55.063C100.453 54.761 100.453 54.459 100.453 54.1207C85.6745 54.1185 70.9955 54.1185 56.1895 54.1185ZM18.5558 70.5268C20.5011 68.8558 22.6097 68.413 24.8886 68.5152C25.8783 68.5606 26.8702 68.5243 27.8621 68.522C29.0537 68.5197 29.2853 68.2859 29.2875 67.0757C29.2898 62.8846 29.2875 58.6911 29.2875 54.4999C29.2875 43.4248 29.2875 32.3497 29.2875 21.2746C29.2875 19.6581 29.1877 19.5605 27.5352 19.5605C26.4593 19.5605 25.3834 19.5605 24.3075 19.5605C20.6554 19.5627 18.5581 21.6538 18.5581 25.2955C18.5581 40.0237 18.5581 54.7542 18.5581 69.4824C18.5558 69.7594 18.5558 70.0341 18.5558 70.5268ZM86.5915 25.1775C86.5915 31.5687 86.5915 37.8396 86.5915 44.1173C91.2355 44.1173 95.8274 44.1173 100.449 44.1173C100.449 38.2097 100.458 32.377 100.44 26.5443C100.437 25.6043 99.9879 25.2138 98.9552 25.1934C97.3981 25.1593 95.841 25.1797 94.2839 25.1775C91.7417 25.1775 89.1972 25.1775 86.5915 25.1775ZM76.602 37.9236C73.2358 37.9236 69.9128 37.9236 66.5557 37.9236C66.5557 40.0215 66.5557 42.0694 66.5557 44.1286C69.9378 44.1286 73.2585 44.1286 76.602 44.1286C76.602 42.033 76.602 40.0056 76.602 37.9236ZM45.4555 26.5806C46.6539 26.5942 47.7321 25.8041 48.0658 24.6644C48.4085 23.4883 47.8978 22.2259 46.8242 21.597C45.796 20.9954 44.4568 21.1452 43.6147 21.9875C43.1879 22.4121 42.8225 22.8526 43.1788 23.5473C43.2991 23.7812 43.1403 24.149 43.1539 24.4509C43.1698 24.787 43.138 25.1843 43.3037 25.4408C43.7917 26.2014 44.5407 26.5692 45.4555 26.5806Z" fill="black"/>
<path d="M38.9774 73.4692C39.2475 72.1274 38.8412 71.3486 37.4907 70.6789C35.3411 69.6118 34.524 66.944 35.2844 64.6623C36.0289 62.4304 38.2851 60.9047 40.5822 61.0795C42.9791 61.2634 44.9879 63.0139 45.401 65.2843C45.8459 67.7364 44.6633 70.1226 42.4094 71.058C41.6717 71.3645 41.4515 71.7323 41.506 72.4793C41.5695 73.3807 41.5378 74.2888 41.5128 75.1947C41.4924 76.0121 41.0089 76.5161 40.2848 76.5297C39.563 76.5433 39.0341 76.0529 38.9842 75.2537C38.9456 74.6589 38.9774 74.0618 38.9774 73.4692ZM37.5769 66.2992C37.5701 67.7818 38.7935 69.0169 40.2644 69.0124C41.7262 69.0078 42.9746 67.7455 42.9564 66.2879C42.9382 64.8552 41.7284 63.6428 40.2962 63.6179C38.8299 63.5929 37.5837 64.8212 37.5769 66.2992Z" fill="black"/>
<path d="M74.7839 66.7535C72.5799 65.9838 71.159 64.5852 70.8616 62.2558C70.5189 59.5654 72.2734 57.102 74.911 56.5048C77.4918 55.9213 80.1225 57.3994 80.9941 59.9241C81.8657 62.4465 80.7308 65.2369 78.2771 66.3176C77.4963 66.6604 77.2421 67.0577 77.3147 67.8683C77.3919 68.7106 77.3488 69.5643 77.3261 70.4134C77.3011 71.3079 76.7495 71.8756 75.9914 71.8415C75.2514 71.8074 74.7975 71.2784 74.7884 70.3884C74.7725 69.201 74.7839 68.0136 74.7839 66.7535ZM76.0663 64.2946C77.5667 64.2856 78.7402 63.0868 78.7243 61.5815C78.7084 60.1239 77.5326 58.9614 76.0663 58.9523C74.5728 58.941 73.3516 60.1443 73.3516 61.6246C73.3539 63.1072 74.5682 64.3037 76.0663 64.2946Z" fill="black"/>
</svg>
