<svg width="120" height="100" viewBox="0 0 120 100" fill="none" xmlns="http://www.w3.org/2000/svg">
<rect width="120" height="100" fill="white"/>
<path d="M29 76.6613C30.2061 75.4188 31.4061 74.1702 32.6212 72.9368C32.9083 72.6451 33.1711 72.3945 33.1088 71.913C33.0815 71.6973 33.2531 71.4041 33.4202 71.2264C36.0769 68.3723 36.6222 64.912 36.3124 61.2072C36.2379 60.3262 36.0784 59.4817 35.6501 58.6645C35.0182 57.4599 35.3114 56.0746 36.3655 55.0721C37.9574 53.5562 39.5797 52.0706 41.2278 50.6154C52.7674 40.4231 64.3193 30.2459 75.865 20.0627C77.5222 18.6014 79.181 18.644 80.7197 20.21C83.7743 23.3194 86.8275 26.4302 89.8746 29.5457C91.3419 31.0464 91.3692 32.6748 89.987 34.2712C78.9744 46.9942 67.9663 59.7217 56.9492 72.4416C56.4221 73.0507 55.8464 73.6219 55.2586 74.1732C54.1193 75.2411 52.7462 75.3246 51.3578 74.5834C50.8475 74.3115 50.211 74.234 49.6201 74.1641C47.1017 73.8634 44.6075 73.9363 42.2895 75.0983C41.3068 75.5904 40.409 76.2558 39.4992 76.8816C39.0784 77.1702 38.7245 77.4588 38.1412 77.392C37.8678 77.3601 37.5534 77.6775 37.2572 77.837C37.2769 77.8902 37.2982 77.9433 37.3179 77.9965C37.5306 77.9965 37.7448 77.9965 37.9574 77.9965C47.5422 77.9965 57.1269 77.9965 66.7132 77.998C66.9744 77.998 67.2418 77.9904 67.4955 78.0436C68.0089 78.1514 68.3689 78.6147 68.3111 79.0932C68.2458 79.6355 67.936 79.9757 67.38 80.0471C67.2008 80.0699 67.017 80.0608 66.8362 80.0608C56.1016 80.0608 45.3655 80.0654 34.6309 80.0486C34.1873 80.0486 33.7119 79.9195 33.3048 79.7342C32.1883 79.2238 31.0871 78.6709 30.0056 78.0876C29.6319 77.8856 29.3342 77.5454 29.0015 77.2674C29 77.0654 29 76.8633 29 76.6613ZM56.0014 70.3545C56.1548 70.1814 56.3568 69.9581 56.5543 69.7302C67.1901 57.4569 77.826 45.1835 88.4619 32.9087C89.226 32.0277 89.2108 31.6373 88.3829 30.8079C85.3738 27.7958 82.3632 24.7852 79.3541 21.7746C78.4442 20.8647 78.0903 20.8586 77.1182 21.7169C64.8919 32.4986 52.6657 43.2818 40.4394 54.065C40.2921 54.1941 40.1554 54.3354 40.0126 54.4721C45.3457 59.7703 50.6515 65.0396 56.0014 70.3545ZM54.5143 72.0178C54.4641 72.0603 54.414 72.1014 54.3639 72.1439C49.0292 66.7728 43.6961 61.4017 38.3311 56.0002C38.2232 56.1187 38.0911 56.2721 37.9513 56.4164C37.3073 57.0832 37.2845 57.4159 37.7812 58.2225C37.9149 58.4397 38.0121 58.6964 38.0607 58.947C38.1959 59.6594 38.3432 60.3733 38.4025 61.0933C38.6349 63.9444 38.4283 66.7424 37.1296 69.352C36.6754 70.2649 36.1027 71.1186 35.5863 71.995C36.5539 72.9429 37.5458 73.9135 38.5483 74.8932C38.9037 74.6502 39.2972 74.3677 39.7027 74.1094C42.8667 72.0907 46.3422 71.6502 49.9847 72.1272C50.9143 72.2487 51.853 72.3322 52.6854 72.8973C52.9087 73.0492 53.4221 72.9095 53.7305 72.7576C54.0388 72.6057 54.256 72.2715 54.5143 72.0178ZM34.6096 74.1246C33.7362 74.9874 32.8445 75.8684 31.9423 76.7601C32.5134 77.0441 33.1331 77.3692 33.7711 77.6608C33.9017 77.7201 34.1387 77.7109 34.2465 77.6289C34.9817 77.0699 35.6941 76.4821 36.3762 75.9353C35.7351 75.2791 35.1215 74.6502 34.6096 74.1246Z" fill="black"/>
</svg>
