<svg width="120" height="100" viewBox="0 0 120 100" fill="none" xmlns="http://www.w3.org/2000/svg">
<rect width="120" height="100" fill="white"/>
<path d="M98.2857 41.5485C97.983 42.844 97.1126 43.6192 95.9923 44.2635C82.3254 52.1314 68.6722 60.0249 55.0121 67.9047C54.6194 68.1308 54.3661 68.3178 54.4256 68.8584C54.4579 69.144 54.2063 69.552 53.9598 69.7628C52.3413 71.1399 50.7211 72.517 49.0432 73.8158C46.9742 75.419 43.4687 74.8172 41.8502 72.6462C39.8594 69.9771 40.4578 66.5463 43.2374 64.7068C43.4296 64.5793 43.6438 64.4756 43.8597 64.394C45.7059 63.6987 47.559 63.0221 49.3985 62.3132C50.0343 62.0683 50.5936 62.0479 51.0952 62.6379C51.3264 62.5087 51.5457 62.388 51.7616 62.2621C65.5117 54.3245 79.2619 46.3903 93.0069 38.4425C94.3177 37.6843 95.5962 37.5398 96.8984 38.3915C97.6685 38.8947 98.0238 39.6869 98.2857 40.5302C98.2857 40.8685 98.2857 41.2085 98.2857 41.5485ZM53.2406 66.4001C53.4617 66.2828 53.6113 66.2063 53.7558 66.123C67.579 58.1429 81.4023 50.1628 95.2238 42.1809C95.37 42.0959 95.523 42.0143 95.6523 41.9072C96.0977 41.5366 96.2337 41.0793 95.9685 40.5472C95.7373 40.0814 95.1898 39.8671 94.6611 40.0474C94.4231 40.129 94.2038 40.2667 93.9828 40.3942C80.2683 48.308 66.5556 56.2252 52.8445 64.1424C52.6286 64.2682 52.4212 64.4076 52.1781 64.5606C52.5385 65.1829 52.8751 65.7677 53.2406 66.4001ZM49.6552 64.547C48.001 65.1642 46.4081 65.7473 44.8253 66.3525C43.5503 66.8387 42.9654 67.8503 42.8532 69.1491C42.7461 70.38 43.5129 71.6601 44.6689 72.1973C45.8369 72.7397 46.981 72.6955 48.0163 71.8607C49.1741 70.9274 50.3165 69.9754 51.4641 69.0301C51.6392 68.8856 51.8058 68.7309 51.9826 68.5762C51.1972 67.2178 50.4457 65.9173 49.6552 64.547Z" fill="black"/>
<path d="M39.6775 33.4884C40.3983 32.2218 41.0546 30.9349 41.8315 29.7261C44.7675 25.1648 48.6437 21.4944 52.9058 18.2048C54.2318 17.1813 55.6174 16.231 56.9995 15.2806C57.6727 14.8165 58.4378 14.9372 58.686 15.5748C58.8203 15.9182 58.7829 16.4197 58.6333 16.7699C57.5809 19.2554 56.6357 21.7732 56.0696 24.4202C55.6123 26.5674 55.2178 28.7418 55.597 30.9264C55.8452 32.3561 56.2838 33.774 56.8023 35.134C57.5265 37.0347 58.3664 38.8946 59.2266 40.7392C60.7839 44.0781 60.2976 47.3116 58.7982 50.4976C57.4823 53.2942 55.6106 55.6471 53.1013 57.4798C52.6218 57.83 52.1407 58.0714 51.5848 57.7229C51.0238 57.3709 51.0391 56.8269 51.1751 56.2506C51.5491 54.661 51.9248 53.0698 52.2699 51.4734C53.0061 48.0597 49.9204 44.5728 46.4744 44.9077C44.3425 45.1152 43.3786 46.0128 42.9246 48.1362C42.6305 49.5166 42.6866 50.8767 43.0267 52.235C43.3973 53.7175 43.7594 55.2 44.1436 56.679C44.2745 57.1856 44.2898 57.6549 43.8716 58.0306C43.4534 58.4063 42.9825 58.34 42.4996 58.1479C36.8843 55.9174 33.6763 51.8185 33.1272 45.7901C32.5848 39.8279 33.7868 34.1786 36.5511 28.8625C36.9421 28.1111 37.328 27.8629 37.9213 28.0074C38.5317 28.157 38.8105 28.5871 38.7221 29.4592C38.5742 30.9264 38.8343 32.2745 39.6775 33.4884ZM55.2535 19.0956C54.2658 19.8827 53.3036 20.6155 52.377 21.3941C48.8987 24.3199 45.6924 27.5041 43.3242 31.4245C42.5489 32.7064 41.9471 34.0987 41.3249 35.4656C40.8319 36.5485 40.2011 36.7882 39.2525 36.0521C38.6898 35.6152 38.1968 35.0779 37.7343 34.5322C37.4351 34.1803 37.2464 33.7332 36.9812 33.2827C36.9098 33.4561 36.8588 33.5717 36.8163 33.689C35.8677 36.3241 35.3338 39.0476 35.2114 41.8408C35.0958 44.481 35.1502 47.1127 36.2536 49.5948C37.3569 52.0769 39.091 53.9793 41.5289 55.336C41.2433 54.0677 40.9424 52.8777 40.7129 51.674C40.3762 49.9042 40.5072 48.1413 41.1787 46.4752C42.5506 43.0632 44.8644 42.3678 48.3547 42.7793C52.649 43.2842 55.1566 48.6139 54.3882 52.0361C54.2709 52.5546 54.1502 53.0732 54.0312 53.59C55.7534 51.8423 56.9417 49.8192 57.6132 47.4969C58.1165 45.7544 58.1981 44.0254 57.484 42.3236C56.838 40.78 56.1937 39.2329 55.4848 37.7165C53.5212 33.5173 52.6949 29.177 53.8 24.5953C54.2369 22.7865 54.7486 20.9946 55.2535 19.0956Z" fill="black"/>
</svg>
