<svg width="120" height="100" viewBox="0 0 120 100" fill="none" xmlns="http://www.w3.org/2000/svg">
<rect width="120" height="100" fill="white"/>
<path d="M50.9447 64.956C51.1369 65.2442 51.28 65.4658 51.4271 65.6854C54.3055 69.9422 57.1799 74.2029 60.0681 78.4519C60.923 79.7107 61.4073 81.0714 61.2328 82.5989C60.9152 85.3576 59.2505 87.238 56.6388 87.8556C54.2957 88.4105 51.7447 87.336 50.231 85.1106C46.9271 80.2558 43.639 75.3892 40.3449 70.5265C40.1822 70.2853 40.0116 70.0481 39.9174 69.9128C38.6626 70.3422 37.5018 70.9069 36.2822 71.1265C29.4196 72.3637 24.7824 66.3403 25.0079 61.3188C25.151 58.1385 26.5157 55.6326 29.1059 53.8189C31.0686 52.4444 33.0823 51.1425 35.043 49.768C35.4391 49.4896 35.8057 49.0758 36.0214 48.6425C39.7665 41.0819 43.4899 33.5114 47.2115 25.939C48.1252 24.0802 49.6546 23.1174 51.6545 22.89C54.1427 22.6076 56.3819 23.437 58.5172 24.5939C62.4524 26.7291 65.6308 29.7605 68.4268 33.2055C72.4287 38.1348 75.564 43.5485 77.211 49.7366C77.9149 52.3817 78.2933 55.066 77.7384 57.8012C77.3973 59.4796 76.6816 60.9502 75.3091 62.0384C74.4404 62.7286 73.4581 63.0913 72.3483 63.1796C65.4269 63.7227 58.5093 64.2795 51.5898 64.8364C51.4016 64.8482 51.2173 64.9011 50.9447 64.956ZM48.8193 31.3585C49.0134 32.5055 49.1271 33.9604 49.5114 35.3408C51.9349 44.0249 56.7564 51.1601 63.67 56.8816C65.5818 58.4639 67.7072 59.711 70.1778 60.2737C71.5424 60.5855 72.7091 60.1933 73.5365 59.1679C74.113 58.4541 74.5502 57.5404 74.7738 56.6463C75.2365 54.7856 74.9816 52.8974 74.5757 51.0425C73.7522 47.2641 72.0758 43.8485 70.068 40.5838C67.368 36.1937 64.1818 32.2192 60.0603 29.0703C58.2034 27.6526 56.227 26.4409 53.9172 25.9056C51.3467 25.3095 49.5251 26.4978 49.0467 29.0918C48.9271 29.7389 48.9114 30.4055 48.8193 31.3585ZM64.1798 60.9306C55.0074 54.215 49.0212 45.4308 46.2448 34.4427C46.1919 34.5212 46.1291 34.5976 46.0879 34.682C43.6252 39.7113 41.1566 44.7406 38.7214 49.7837C38.6096 50.017 38.6802 50.4543 38.8332 50.6817C41.3233 54.4032 43.8468 58.1032 46.3448 61.8208C46.5938 62.1913 46.8448 62.3325 47.2958 62.2953C51.729 61.9306 56.1662 61.5874 60.6014 61.2345C61.7818 61.1423 62.9602 61.0345 64.1798 60.9306ZM36.4528 52.368C36.2548 52.4817 36.1234 52.5464 36.0038 52.6287C34.1685 53.8856 32.3019 55.1012 30.5058 56.411C27.7745 58.4012 27.1078 62.0972 28.8902 64.9972C30.8509 68.1873 34.4058 69.4304 37.4528 67.7501C39.7096 66.505 41.786 64.9325 43.9841 63.4795C41.4488 59.7384 38.9684 56.0777 36.4528 52.368ZM42.2272 68.1422C42.5488 68.6246 42.8409 69.0716 43.139 69.5148C46.3075 74.1931 49.482 78.8675 52.6427 83.5518C53.2408 84.438 54.0133 85.0184 55.0917 85.091C56.3505 85.1733 57.3387 84.6596 57.9642 83.5616C58.625 82.4028 58.4858 81.2636 57.7485 80.1773C54.4976 75.3774 51.2486 70.5755 47.9997 65.7736C47.5918 65.1697 46.9428 64.9697 46.3272 65.3658C44.9585 66.2521 43.6213 67.1932 42.2272 68.1422Z" fill="black"/>
<path d="M80.6109 33.3804C79.6913 33.3823 79.2168 33.049 78.9757 32.4137C78.7365 31.7843 78.9757 31.1294 79.6149 30.702C81.0345 29.751 82.4678 28.8216 83.8952 27.8824C85.7089 26.6883 87.5226 25.4923 89.3383 24.3001C90.2441 23.706 91.0912 23.7962 91.597 24.5276C92.1166 25.2805 91.8735 26.1432 90.9441 26.755C87.7853 28.8373 84.6246 30.9157 81.456 32.9823C81.1403 33.1902 80.7678 33.3078 80.6109 33.3804Z" fill="black"/>
<path d="M82.9756 40.0995C84.9187 40.4485 86.9854 40.8172 89.052 41.1878C90.8794 41.5152 92.7049 41.8485 94.5323 42.1681C95.4284 42.325 96.0009 42.9779 95.9068 43.7661C95.8029 44.625 95.0166 45.2093 94.0872 45.0446C90.2637 44.3701 86.4422 43.6818 82.6246 42.9799C81.7109 42.8113 81.1796 42.1171 81.2933 41.3407C81.4051 40.5701 82.0345 40.0682 82.9756 40.0995Z" fill="black"/>
<path d="M75.6306 14.5393C75.3306 17.4569 75.0326 20.3745 74.7346 23.2901C74.662 23.996 74.5973 24.7019 74.5091 25.4038C74.3973 26.2979 73.7542 26.8254 72.9032 26.743C72.115 26.6666 71.5738 26.0117 71.6601 25.1372C72.013 21.5137 72.3797 17.8902 72.764 14.2687C72.8522 13.4295 73.5463 12.9217 74.362 13.0099C75.1267 13.0923 75.6522 13.7236 75.6306 14.5393Z" fill="black"/>
<path d="M58.8152 37.0098C62.7426 37.0039 65.721 39.096 66.8269 42.292C67.9151 45.4351 66.8994 48.9312 64.2798 51.0076C63.9975 51.2311 63.6779 51.4488 63.3406 51.5507C62.674 51.7507 61.9818 51.3919 61.6916 50.7782C61.3916 50.1449 61.5564 49.4488 62.1956 48.9606C63.3387 48.092 64.0896 46.9959 64.272 45.5528C64.523 43.5803 63.8426 41.9705 62.2367 40.8274C60.627 39.6803 58.8838 39.6097 57.1054 40.4607C56.9074 40.5548 56.729 40.6882 56.5349 40.7901C55.7702 41.1901 54.9663 40.994 54.5467 40.3136C54.1349 39.645 54.329 38.798 55.031 38.3254C56.3172 37.4529 57.7466 37.0235 58.8152 37.0098Z" fill="black"/>
</svg>
