<svg width="120" height="100" viewBox="0 0 120 100" fill="none" xmlns="http://www.w3.org/2000/svg">
<rect width="120" height="100" fill="white"/>
<g clip-path="url(#clip0_11_119)">
<path d="M97.9999 50.0308C97.8974 71.0974 80.9994 88.1025 59.8769 88C38.5698 87.8974 21.8769 70.8308 21.9999 49.4769C22.123 28.8615 39.4106 11.9179 60.082 12C80.9584 12.082 97.9384 28.9641 97.9999 50.0308ZM68.0183 37.8256C64.2039 40.2667 49.9924 54.6256 48.1262 57.9487C51.838 61.1897 54.8526 64.9846 57.1084 69.3743C59.3642 73.7641 60.6767 78.4205 61.1689 83.4667C62.6454 83.3026 64.0604 83.2205 65.4549 82.9949C81.0404 80.3897 92.586 67.4051 93.3653 51.6513C93.3858 51.0974 93.2422 50.9333 92.7091 50.8923C86.7004 50.2359 81.184 48.2461 76.1187 44.9641C73.0631 42.9743 70.3971 40.5744 68.0183 37.8256ZM58.9951 16.6974C41.0717 16.882 26.6756 32.3692 26.7166 48.8615C33.0944 49.4564 38.98 51.5077 44.3939 55.0974C50.6486 47.4051 57.5801 40.4102 65.1678 34.1128C60.9228 26.5436 60.6152 25.641 58.9951 16.6974ZM56.5137 83.241C55.4473 74.482 51.6945 67.3231 45.0911 61.4154C42.2201 65.6205 39.4106 69.7231 36.6011 73.8667C42.2406 79.282 48.803 82.359 56.5137 83.241ZM71.4635 34.7897C77.3286 41.4154 84.4651 45.2102 93.1807 46.3179C92.2374 38.5231 89.0588 31.959 83.5423 26.3385C79.5229 29.1692 75.5445 31.9385 71.4635 34.7897ZM26.7576 53.4974C27.4754 59.8154 29.6697 65.3538 33.4225 70.2769C36.0884 66.4 38.7544 62.5436 41.4203 58.6667C37.0113 55.8154 32.1716 54.0718 26.7576 53.4974ZM79.933 23.2205C75.1138 19.6513 69.7204 17.5179 63.6912 16.8205C64.3065 22.0718 65.9676 26.7897 68.736 31.0974C72.5094 28.4513 76.2007 25.8461 79.933 23.2205Z" fill="black"/>
</g>
<defs>
<clipPath id="clip0_11_119">
<rect width="76" height="76" fill="white" transform="translate(22 12)"/>
</clipPath>
</defs>
</svg>
