<svg width="120" height="100" viewBox="0 0 120 100" fill="none" xmlns="http://www.w3.org/2000/svg">
<rect width="120" height="100" fill="white"/>
<path d="M54.7002 88C53.5258 87.7745 52.33 87.6267 51.1789 87.3117C41.4082 84.6342 35.2775 75.8027 36.0941 65.5965C36.1369 65.0559 35.9969 64.7876 35.538 64.5426C34.3908 63.9281 33.2728 63.2612 32.1411 62.6176C30.7645 61.834 30.0198 60.6732 30.0217 59.069C30.0256 48.6936 29.9498 38.3163 30.0606 27.9409C30.1501 19.858 36.0183 12.9747 43.9321 11.3473C53.2633 9.42619 62.7015 15.6833 64.432 24.9815C64.6654 26.2298 64.7606 27.5209 64.7626 28.7926C64.7898 38.7674 64.7645 48.7423 64.7879 58.7171C64.7918 60.5604 64.0568 61.8807 62.4371 62.7479C61.3346 63.339 60.2535 63.9709 59.1782 64.6145C59.0032 64.7195 58.7796 64.9995 58.8107 65.1492C59.2832 67.3756 59.9735 69.4697 61.7604 71.0816C66.1723 75.0619 73.6038 72.7927 74.9241 67.0042C74.9844 66.7417 74.8074 66.3295 74.6033 66.1176C72.8611 64.3054 71.2122 62.4348 70.0125 60.1988C68.2139 56.8446 67.302 53.2689 67.2787 49.4675C67.2631 47.037 67.2748 44.6045 67.2748 42.174C67.2748 42.0282 67.2981 41.8804 67.3195 41.6393C72.1844 42.9343 75.8788 45.6779 78.4396 50.1111C80.9907 45.674 84.7103 42.9362 89.6044 41.614C89.6044 42.454 89.6122 43.226 89.6025 43.9979C89.5714 46.477 89.6608 48.9678 89.4703 51.4353C89.0425 56.9477 86.7461 61.6298 82.8087 65.507C82.6842 65.6295 82.5695 65.7715 82.4276 65.8687C81.7568 66.3295 81.644 66.9478 81.6557 67.7431C81.7723 74.9608 78.8071 80.6229 72.8708 84.7003C70.2478 86.5028 67.3117 87.5372 64.1365 87.8678C63.9945 87.8833 63.8584 87.9553 63.7204 88C60.7163 88 57.7082 88 54.7002 88ZM38.4138 66.5628C38.4741 67.5836 38.4702 68.762 38.6258 69.9189C39.2382 74.4805 41.3479 78.2565 44.8343 81.2393C48.0095 83.9556 51.7117 85.3964 55.8961 85.4586C59.0966 85.5073 62.3068 85.7425 65.4898 85.1495C71.9394 83.9459 77.4635 78.4821 78.8226 72.0636C79.4001 69.3336 79.2232 66.6367 78.8382 63.9243C78.7468 63.2787 78.6554 62.6312 78.5621 61.9857C78.496 61.9837 78.4299 61.9818 78.3638 61.9779C78.3035 62.149 78.216 62.3162 78.1888 62.4932C78.0682 63.2845 77.9496 64.0779 77.8582 64.8731C77.5627 67.4806 76.886 69.9267 75.0699 71.9391C72.4002 74.8946 69.0753 76.0885 65.1923 75.3632C61.0507 74.5894 58.346 72.0422 56.9869 68.0678C56.7788 67.4611 56.6466 66.8292 56.4697 66.1759C56.2752 66.2712 56.143 66.3392 56.0088 66.4034C53.5958 67.5331 51.5911 66.9362 50.1561 64.6904C50.0531 64.5309 49.7595 64.4162 49.5514 64.4123C48.1242 64.389 46.6951 64.3773 45.2679 64.4201C45.0209 64.4279 44.6826 64.6495 44.5582 64.8692C43.9262 65.997 43.0376 66.7845 41.729 66.8253C40.6849 66.8564 39.6291 66.6678 38.4138 66.5628ZM62.264 45.7887C62.2835 45.4504 62.3029 45.2793 62.3029 45.1081C62.3048 39.6443 62.3126 34.1805 62.2951 28.7187C62.2912 27.8456 62.2115 26.9668 62.0871 26.1015C60.8504 17.6394 52.3981 11.8937 44.1032 13.8653C37.1616 15.5142 32.5281 21.396 32.4872 28.674C32.4561 34.1378 32.4814 39.6016 32.4834 45.0634C32.4834 45.2715 32.5145 45.4776 32.5397 45.7848C35.2444 43.7996 38.2952 44.8379 41.3927 44.4373C41.0504 44.1146 40.8618 43.8871 40.6285 43.7276C36.9536 41.2057 35.0655 37.7174 34.9955 33.2647C34.9625 31.1609 35.0053 29.0551 34.9761 26.9493C34.9703 26.4651 35.1511 26.2493 35.5691 26.0645C38.5946 24.7385 41.6085 23.3871 44.6282 22.0493C45.542 21.6449 46.4637 20.9468 47.3834 20.9449C48.3012 20.943 49.2228 21.6371 50.1386 22.0357C51.2489 22.5199 52.1511 22.2943 52.9386 21.3221C53.5608 20.5541 54.1869 19.7899 54.9219 18.8897C56.1722 21.1432 57.9513 22.5471 60.3799 23.1265C59.8063 24.1279 59.3182 24.9835 58.766 25.9479C59.9288 26.0373 59.8354 26.784 59.8257 27.5384C59.8004 29.3934 59.8879 31.2503 59.7927 33.1014C59.7246 34.4158 59.5671 35.7555 59.2093 37.0174C58.3907 39.8971 56.6097 42.1137 54.1189 43.7665C53.8991 43.9123 53.7494 44.1632 53.4908 44.449C56.5416 44.8223 59.5632 43.8171 62.264 45.7887ZM51.4142 29.9514C51.3422 28.9189 51.282 27.9467 51.2042 26.9745C51.0739 25.3801 48.9428 23.5057 47.3601 23.5913C47.2395 23.5971 47.1209 23.6593 47.0062 23.7099C43.9671 25.0593 40.926 26.4029 37.8985 27.7795C37.6924 27.8729 37.4688 28.2092 37.4688 28.4328C37.4591 30.385 37.4008 32.345 37.5427 34.2894C37.8694 38.7752 41.4957 42.5785 45.8823 43.1715C50.5956 43.8093 54.9938 41.2465 56.6583 36.9494C57.5313 34.6978 57.2863 32.3625 57.298 30.0448C57.298 29.897 57.0238 29.6773 56.8333 29.6073C55.6374 29.1659 54.4339 29.0045 53.1914 29.4926C52.643 29.7084 52.0422 29.7939 51.4142 29.9514ZM43.6929 47.0117C43.306 47.0117 43.0337 47.0117 42.7635 47.0117C40.683 47.0117 38.6024 46.9903 36.5238 47.0176C34.0117 47.0526 32.5028 48.5692 32.4853 51.0678C32.4659 53.6733 32.4892 56.2808 32.4756 58.8882C32.4717 59.6115 32.742 60.1151 33.3875 60.4749C35.4836 61.6493 37.5544 62.8704 39.6582 64.0331C40.0549 64.2529 40.5507 64.3287 41.0096 64.3831C41.626 64.459 42.186 64.2937 42.3629 63.6015C42.5476 62.8723 42.0946 62.5087 41.5035 62.2171C39.5046 61.2332 37.5194 60.2221 35.5186 59.244C35.1336 59.0554 34.9683 58.8396 34.9761 58.3904C35.0053 56.7377 34.9761 55.083 34.9916 53.4283C35.015 50.9764 36.6755 49.4228 39.1294 49.5122C41.7738 49.6095 44.2782 50.2511 46.6231 51.4625C47.1676 51.7425 47.5915 51.7639 48.1456 51.4761C50.5586 50.2239 53.1389 49.5706 55.863 49.5084C58.0874 49.4578 59.7518 51.0308 59.8102 53.2514C59.8354 54.2022 59.8238 55.1569 59.814 56.1077C59.8043 57.0546 60.0863 58.1882 59.6624 58.8941C59.2579 59.5688 58.1127 59.804 57.2883 60.2201C55.8805 60.9318 54.4689 61.6318 53.0611 62.3415C52.5594 62.5943 52.2989 62.987 52.4253 63.5626C52.5536 64.142 52.9639 64.4123 53.5219 64.3812C54.01 64.354 54.5583 64.3404 54.9686 64.1167C57.1871 62.9034 59.3843 61.6512 61.5504 60.3465C61.8985 60.1365 62.2582 59.6096 62.264 59.2246C62.3107 56.2944 62.3398 53.3602 62.2348 50.432C62.1668 48.5517 60.7785 47.1731 58.9099 47.0817C56.6349 46.9709 54.3522 47.0253 52.0714 47.0078C51.7797 47.0059 51.4861 47.0078 51.1108 47.0078C51.1108 46.372 51.1108 45.8334 51.1108 45.1801C48.6103 45.9365 46.1895 45.9092 43.6948 45.1976C43.6929 45.8431 43.6929 46.3584 43.6929 47.0117ZM81.3096 63.477C83.7595 61.0212 85.3598 58.231 86.3184 55.0344C87.2809 51.8203 87.1506 48.5459 87.1331 45.184C86.8803 45.2968 86.7442 45.3512 86.6139 45.4193C83.0867 47.3073 80.7612 50.1908 79.5071 53.9688C79.1804 54.9547 78.844 55.9347 78.5115 56.9185C78.4474 56.9341 78.3832 56.9516 78.319 56.9671C77.0552 51.8922 74.7977 47.5581 69.8278 45.2131C69.3028 52.0458 70.4169 58.301 75.5327 63.4148C75.6571 62.6779 75.7213 62.079 75.8632 61.4976C76.1705 60.2454 77.2477 59.4132 78.4746 59.4365C79.7385 59.4599 80.7846 60.3563 81.0334 61.6571C81.1423 62.2171 81.2065 62.7848 81.3096 63.477ZM47.3873 61.9312C48.1631 61.9312 48.9409 61.9565 49.7167 61.9157C49.9442 61.904 50.1911 61.7368 50.3797 61.5812C51.0058 61.064 51.5425 60.4049 52.2328 60.0121C53.7086 59.1721 55.2661 58.4741 56.773 57.6866C56.9985 57.568 57.2883 57.2899 57.296 57.078C57.3388 55.7772 57.3369 54.4725 57.2883 53.1716C57.261 52.4444 56.7924 52.0186 56.071 52.0186C55.3983 52.0186 54.7216 52.075 54.0527 52.1547C51.9294 52.4094 50.0025 53.2416 48.1514 54.2527C47.607 54.5502 47.1831 54.5502 46.6406 54.2508C44.2918 52.9616 41.8263 52.0439 39.0944 52.0147C37.953 52.003 37.4727 52.4094 37.4533 53.545C37.4338 54.5716 37.4844 55.6002 37.4358 56.6249C37.4086 57.2044 37.5836 57.5193 38.1241 57.7721C39.6427 58.4818 41.136 59.246 42.6235 60.0179C43.0629 60.2454 43.6404 60.4787 43.8271 60.8657C44.4026 62.0576 45.3884 61.9759 46.4131 61.9293C46.7359 61.9196 47.0606 61.9312 47.3873 61.9312ZM56.6155 24.4215C56.0302 23.9879 55.4099 23.529 54.8577 23.1207C54.2394 23.5679 53.6153 24.021 53.0903 24.4021C53.3372 25.2032 53.5725 25.9693 53.7844 26.6537C54.498 26.6537 55.2447 26.6537 55.8961 26.6537C56.1333 25.9129 56.3802 25.1507 56.6155 24.4215Z" fill="black"/>
<path d="M52.3942 33.3096C52.3942 32.4793 52.3942 31.7171 52.3942 30.9082C53.1992 30.9082 53.9614 30.9082 54.7858 30.9082C54.7858 31.6782 54.7858 32.4618 54.7858 33.3096C54.0314 33.3096 53.2497 33.3096 52.3942 33.3096Z" fill="black"/>
<path d="M42.3765 30.9199C42.3765 31.7171 42.3765 32.4832 42.3765 33.3096C41.6007 33.3096 40.8404 33.3096 40.0179 33.3096C40.0179 32.5416 40.0179 31.7599 40.0179 30.9199C40.7549 30.9199 41.5151 30.9199 42.3765 30.9199Z" fill="black"/>
<path d="M48.6007 40.7643C47.7723 40.7643 47.0043 40.7643 46.1896 40.7643C46.1896 39.9729 46.1896 39.2127 46.1896 38.396C46.9829 38.396 47.7646 38.396 48.6007 38.396C48.6007 39.166 48.6007 39.9263 48.6007 40.7643Z" fill="black"/>
</svg>
