<svg width="120" height="100" viewBox="0 0 120 100" fill="none" xmlns="http://www.w3.org/2000/svg">
<rect width="120" height="100" fill="white"/>
<path d="M73.7268 40.7678C73.7268 43.7951 73.7345 46.8244 73.7249 49.8517C73.6999 57.8507 67.3414 64.0304 59.3539 63.8246C52.228 63.6419 46.1349 57.5911 46.0465 50.4671C45.9676 43.9798 45.9676 37.4905 46.0484 31.0032C46.1311 24.3735 51.5029 18.5612 58.096 17.7996C66.5798 16.8187 73.7038 23.1445 73.7249 31.684C73.7326 34.7132 73.7268 37.7405 73.7268 40.7678ZM50.6413 40.7274C50.6413 43.7567 50.6278 46.784 50.6509 49.8132C50.6566 50.5287 50.7105 51.2595 50.8663 51.9558C51.8914 56.541 56.2458 59.7048 60.7675 59.1817C65.572 58.6258 69.0897 54.7619 69.1032 49.9709C69.1224 43.8182 69.1147 37.6655 69.0974 31.5128C69.0955 30.8454 69.0205 30.1646 68.8705 29.5145C67.8146 24.9216 63.4679 21.7866 58.9442 22.3271C54.1417 22.9021 50.6605 26.7699 50.6413 31.5686C50.6316 34.6228 50.6413 37.6751 50.6413 40.7274Z" fill="black"/>
<path d="M57.5383 77.6819C57.5383 76.0682 57.5383 74.5392 57.5383 73.1544C55.5169 72.5966 53.4801 72.2524 51.6184 71.4849C42.9923 67.9249 38.057 61.4664 36.9281 52.1825C36.7453 50.6881 36.7973 49.1591 36.803 47.6474C36.8069 46.3491 37.8474 45.3644 39.111 45.3701C40.3669 45.3759 41.3959 46.3703 41.3998 47.6724C41.4055 49.9803 41.4075 52.2787 41.9748 54.5463C44.1655 63.307 52.7416 69.3174 61.7138 68.3442C71.2689 67.3075 78.3005 59.5123 78.3467 49.9053C78.3505 49.1129 78.3178 48.3167 78.3602 47.5262C78.4236 46.3106 79.4391 45.3759 80.6451 45.3721C81.8433 45.3663 82.8876 46.2991 82.953 47.5089C83.2646 53.3769 82.0549 58.8372 78.4813 63.6205C74.427 69.0462 68.9936 72.1119 62.2389 72.9678C62.2389 74.5046 62.2389 76.0528 62.2389 77.6838C63.7795 77.6838 65.3105 77.6665 66.8414 77.6896C67.8954 77.705 68.7243 78.3704 69.0225 79.3706C69.3033 80.3111 68.9494 81.3593 68.082 81.8824C67.7088 82.1074 67.2338 82.2767 66.8029 82.2786C62.187 82.3055 57.5691 82.3055 52.9531 82.2901C51.653 82.2863 50.6567 81.2554 50.649 80.0014C50.6432 78.7109 51.6472 77.703 52.9974 77.6876C54.4802 77.6665 55.9708 77.6819 57.5383 77.6819Z" fill="black"/>
</svg>
