<svg width="120" height="100" viewBox="0 0 120 100" fill="none" xmlns="http://www.w3.org/2000/svg">
<rect width="120" height="100" fill="white"/>
<path d="M19 29.2035C19.1061 28.9678 19.208 28.7322 19.3206 28.4987C20.1124 26.8768 21.3585 26.0128 23.2202 26.0192C30.4061 26.0383 37.592 26.0277 44.7779 26.0277C61.6695 26.0277 78.5611 26.0531 95.4527 26.0001C97.9407 25.9916 99.7218 26.7282 100.518 29.2056C100.518 43.4012 100.518 57.5988 100.518 71.7944C100.465 71.8814 100.399 71.96 100.363 72.0534C99.6114 74.085 98.3716 74.9681 96.2169 74.9702C89.5087 74.9745 82.8004 74.9723 76.0901 74.9723C58.7484 74.9723 41.4068 74.9469 24.0651 74.9999C21.5772 75.0084 19.7961 74.2697 19 71.7944C19 57.5967 19 43.4012 19 29.2035ZM81.2253 27.9319C80.9323 27.9319 80.7222 27.9319 80.5141 27.9319C61.4954 27.9319 42.4767 27.9319 23.458 27.934C21.7215 27.934 20.9106 28.7704 20.9106 30.5409C20.9106 43.8045 20.9106 57.0703 20.9106 70.3339C20.9106 72.3697 21.5984 73.0639 23.6215 73.0639C42.534 73.0639 61.4466 73.0639 80.3613 73.0639C80.6415 73.0639 80.9238 73.0639 81.2274 73.0639C81.2253 57.9852 81.2253 43.0084 81.2253 27.9319ZM83.1953 73.066C87.5238 73.066 91.7632 73.0681 96.0046 73.066C97.8006 73.0639 98.6073 72.2487 98.6073 70.4379C98.6073 57.1233 98.6073 43.8109 98.6073 30.4963C98.6073 28.6855 97.8621 27.9361 96.0471 27.934C92.0158 27.9298 87.9845 27.9319 83.9553 27.9319C83.7027 27.9319 83.45 27.9319 83.1953 27.9319C83.1953 43.0254 83.1953 57.9979 83.1953 73.066Z" fill="black"/>
<path d="M51.0785 66.8673C43.1475 66.8673 35.2165 66.8673 27.2855 66.8673C26.0245 66.8673 25.8462 66.6953 25.8462 65.4662C25.8462 55.8284 25.8462 46.1927 25.8462 36.555C25.8462 35.3025 26.067 35.0859 27.3301 35.0859C43.2197 35.0859 59.1072 35.0859 74.9968 35.0859C76.2577 35.0859 76.4764 35.3046 76.4764 36.5592C76.4764 46.1694 76.4764 55.7796 76.4764 65.3919C76.4764 66.7272 76.3299 66.8694 74.9522 66.8694C66.9936 66.8673 59.0371 66.8673 51.0785 66.8673ZM74.5106 64.9227C74.5106 55.5864 74.5106 46.3116 74.5106 37.0517C58.9012 37.0517 43.347 37.0517 27.795 37.0517C27.795 46.3689 27.795 55.6246 27.795 64.91C32.2615 64.91 36.6919 64.91 41.2666 64.91C40.9079 64.6659 40.6744 64.5067 40.4409 64.3453C36.4562 61.6068 34.5414 57.7453 34.2952 52.9944C34.2379 51.8969 34.5372 51.6145 35.6177 51.6145C45.7247 51.6124 55.8295 51.6124 65.9364 51.6145C66.9702 51.6145 67.2802 51.9075 67.2292 52.9434C67.0042 57.6307 65.1531 61.471 61.2555 64.2264C60.9647 64.4324 60.6696 64.634 60.2514 64.9249C65.0936 64.9227 69.7724 64.9227 74.5106 64.9227ZM36.2333 53.5527C36.2652 58.4225 40.6616 63.6702 45.731 64.5937C47.9749 65.0034 50.3206 64.8909 52.6218 64.9546C56.823 65.0692 60.1728 63.3476 62.7755 60.1145C64.306 58.2124 65.1616 56.0407 65.3208 53.5548C55.6002 53.5527 45.9497 53.5527 36.2333 53.5527Z" fill="black"/>
<path d="M92.7142 46.2393C92.7014 48.152 91.0987 49.7038 89.1372 49.7038C87.2478 49.7017 85.6918 48.0565 85.713 46.0822C85.73 44.3585 87.4898 42.5604 89.1626 42.5562C91.1709 42.5498 92.7269 44.1653 92.7142 46.2393ZM90.8015 46.2096C90.8121 45.2756 90.0924 44.4816 89.2157 44.4667C88.4005 44.4519 87.6193 45.2607 87.6236 46.112C87.6278 47.0163 88.3199 47.7699 89.169 47.7933C90.0372 47.8166 90.7887 47.0842 90.8015 46.2096Z" fill="black"/>
<path d="M88.995 64.0033C91.258 64.05 92.6166 65.4426 92.555 67.6462C92.4998 69.5355 90.8291 71.0533 88.8655 70.9982C87.0271 70.9472 85.5453 69.268 85.5432 67.3447C85.539 65.7483 87.4326 63.6998 88.995 64.0033ZM89.0926 69.0876C89.9588 69.0685 90.6742 68.2936 90.6423 67.419C90.6084 66.5444 89.7061 65.725 88.84 65.7844C88.1119 65.8332 87.4389 66.6654 87.4687 67.4848C87.4963 68.3764 88.2371 69.1067 89.0926 69.0876Z" fill="black"/>
<path d="M89.3452 31.9102C91.1114 31.8996 92.8628 33.6998 92.8713 35.5382C92.8798 37.3086 91.0775 39.0557 89.2412 39.0536C87.4538 39.0515 85.713 37.2662 85.713 35.4342C85.713 33.6637 87.5089 31.9208 89.3452 31.9102ZM89.273 33.8208C88.4112 33.8187 87.6257 34.6275 87.63 35.5127C87.6342 36.3916 88.3602 37.1282 89.237 37.1452C90.1731 37.1622 90.9374 36.4552 90.9607 35.5509C90.982 34.6147 90.2092 33.8229 89.273 33.8208Z" fill="black"/>
<path d="M92.7121 56.8281C92.7227 58.6007 90.9183 60.35 89.0799 60.3479C87.4113 60.3457 85.5559 58.5647 85.5559 56.9661C85.558 55.0556 87.2797 53.2129 89.0671 53.2066C90.931 53.2023 92.7015 54.9622 92.7121 56.8281ZM90.8015 56.8154C90.7909 55.8792 90.0267 55.0874 89.1584 55.115C88.3114 55.1405 87.4686 55.9854 87.4707 56.8048C87.4729 57.69 88.2732 58.4543 89.186 58.4394C90.0734 58.4245 90.81 57.6837 90.8015 56.8154Z" fill="black"/>
<path d="M50.8429 47.9039C50.6221 47.4773 50.4671 46.9932 50.1657 46.6345C48.8665 45.0933 48.9556 42.8898 50.4077 41.5587C50.811 41.1893 51.2802 41.0492 51.692 41.4059C52.1442 41.7965 52.1463 42.3463 51.8003 42.8409C50.9617 44.0425 50.949 44.242 51.7748 45.4117C52.59 46.5644 52.8553 47.8084 52.3968 49.1628C52.297 49.4579 52.1272 49.736 51.9489 49.9928C51.6113 50.479 51.1655 50.7507 50.6009 50.3728C50.0234 49.9865 50.0744 49.4621 50.378 48.9081C50.5372 48.6215 50.6582 48.3094 50.8429 47.9039Z" fill="black"/>
<path d="M56.4197 42.0635C56.2286 42.3946 56.1119 42.6536 55.9463 42.8765C55.2457 43.8212 55.2521 44.4623 55.9909 45.339C57.0395 46.5851 57.2009 48.3705 56.3772 49.7822C56.0652 50.3171 55.6745 50.7587 54.9719 50.4275C54.4072 50.1622 54.3202 49.555 54.7086 48.8524C55.1714 48.016 55.0971 47.3451 54.4645 46.6149C53.229 45.1904 53.2163 42.7874 54.5155 41.6389C54.8148 41.3735 55.3752 41.295 55.804 41.3205C56.0121 41.3353 56.1968 41.7811 56.4197 42.0635Z" fill="black"/>
<path d="M46.6757 50.5423C45.7268 50.5083 45.281 49.7504 45.6843 49.0732C46.2914 48.0564 46.1407 47.2624 45.368 46.3815C44.3002 45.1629 44.4106 42.9148 45.4593 41.7473C45.9306 41.225 46.7075 41.0234 47.0727 41.3949C47.5715 41.9043 47.4272 42.4075 46.9984 42.9361C46.3063 43.7873 46.353 44.4857 47.0663 45.3306C48.1383 46.6001 48.3039 48.4619 47.4144 49.8396C47.2064 50.1623 46.8434 50.3852 46.6757 50.5423Z" fill="black"/>
</svg>
