<svg width="120" height="100" viewBox="0 0 120 100" fill="none" xmlns="http://www.w3.org/2000/svg">
<rect width="120" height="100" fill="white"/>
<path d="M57.9523 49.1154L55.8749 53.3651C53.7239 57.765 55.2832 63.0404 59.3509 65.1246C59.358 65.1284 59.3653 65.132 59.3725 65.1356C60.4702 65.6938 61.658 65.9748 62.8641 65.9748C63.8252 65.9748 64.7978 65.7966 65.7463 65.438C67.8638 64.6379 69.5981 63.0349 70.6297 60.9252L72.707 56.6756C73.0194 56.0369 72.7665 55.2596 72.1425 54.94C71.5186 54.6202 70.7596 54.879 70.4472 55.5179L68.3699 59.7674C67.6268 61.2872 66.3843 62.4393 64.8712 63.0111C63.3873 63.5717 61.8286 63.501 60.4824 62.8113C60.4766 62.8083 60.471 62.8055 60.4653 62.8027C57.656 61.3506 56.6102 57.6411 58.1346 54.5229L60.212 50.2733C60.5244 49.6344 60.2717 48.8572 59.6475 48.5377C59.0239 48.2173 58.2647 48.4765 57.9523 49.1154ZM51.5546 20.2432L51.8691 21.9479C49.6879 24.9698 48.2958 27.8099 48.3708 31.3639C48.4536 35.2896 50.3012 39.7542 54.3462 45.7727L51.3369 51.9284C49.7828 46.6822 47.6624 39.5376 45.9852 37.1713C43.8075 34.0984 40.3054 32.7028 37.0625 33.6165C34.8856 34.2296 33.1121 35.784 32.0687 37.9934C31.053 40.1444 30.8537 42.6683 31.5073 45.1005C32.5784 49.0858 36.2889 51.5283 39.7792 50.5453C43.2695 49.562 45.2376 45.5198 44.1665 41.5348C43.3911 38.6489 40.6851 36.8847 38.134 37.6034C35.5836 38.3218 34.1393 41.2544 34.9145 44.1406C35.3949 45.9277 37.0964 47.0121 38.7078 46.5582C39.5077 46.3328 40.182 45.7469 40.558 44.9506C40.9119 44.2011 40.983 43.3289 40.7587 42.4941C40.5735 41.8052 39.8775 41.4005 39.2052 41.5904C38.5324 41.78 38.1371 42.492 38.3223 43.1807C38.3834 43.4076 38.3689 43.6423 38.2828 43.8244C38.2406 43.914 38.1638 44.0281 38.0373 44.0637C37.8078 44.1268 37.4658 43.881 37.351 43.454C36.9452 41.9434 37.5971 40.4376 38.8042 40.0975C40.0119 39.7572 41.324 40.7099 41.7299 42.2206C42.4314 44.8306 41.2555 47.4458 39.1087 48.0506C36.9619 48.6547 34.645 47.0238 33.9436 44.4138C33.4523 42.586 33.5943 40.7056 34.3436 39.1191C35.0652 37.5911 36.2687 36.5227 37.7325 36.1104C39.9498 35.4859 42.3862 36.4984 43.9396 38.6902C45.3739 40.7138 47.6044 48.2433 48.9371 52.742C49.3475 54.1274 49.7075 55.3431 49.9969 56.2559C49.7574 58.0759 49.8958 59.9086 50.3751 61.6395C49.3921 61.5395 48.3889 61.6523 47.4205 61.9824C46.159 62.4123 45.0661 63.1733 44.2336 64.1838L42.8618 63.481C40.4333 62.237 37.4687 63.2475 36.2531 65.7333C36.1032 66.0402 36.0782 66.3954 36.1841 66.721C36.2899 67.0467 36.5178 67.3158 36.8175 67.4693L42.4174 70.3385C43.0414 70.6584 43.8005 70.3997 44.1127 69.7607L45.567 66.7861C45.5685 66.7829 45.5701 66.7796 45.5717 66.7765C46.1155 65.6643 47.0555 64.8333 48.2186 64.4369C49.3456 64.0529 50.544 64.1236 51.6057 64.635C52.8251 66.8133 54.6605 68.6614 57.0106 69.8697C57.0161 69.8727 57.0214 69.8754 57.0269 69.8782C59.3179 71.0522 61.846 71.492 64.3442 71.178C65.2657 71.7506 65.9537 72.6346 66.3009 73.7022C66.6881 74.8931 66.6019 76.1613 66.0581 77.2736C66.0562 77.2776 66.0542 77.2816 66.0523 77.2857L64.5988 80.2583C64.4489 80.5651 64.424 80.9203 64.5299 81.2458C64.6357 81.5713 64.8636 81.8405 65.1633 81.994L70.7634 84.8632C70.9438 84.9556 71.1371 85 71.3281 85C71.7155 85 72.0941 84.8173 72.3396 84.4825L72.3398 84.4822C72.3851 84.4201 72.425 84.3541 72.4588 84.285C73.0458 83.0843 73.1397 81.7179 72.7233 80.4372C72.3069 79.1565 71.4316 78.1203 70.2588 77.5193L68.8872 76.8165C69.1785 75.5285 69.1184 74.1766 68.6984 72.8851C68.4001 71.9673 67.9382 71.1366 67.3417 70.4269C70.424 69.2515 72.9134 66.9712 74.3841 63.9628L77.8348 56.9041C78.3641 57.5547 78.7143 58.3449 78.838 59.2012L80.5005 70.7271L76.4606 73.904C76.1948 74.113 76.021 74.4215 75.9775 74.7617C75.9338 75.1018 76.0241 75.4459 76.2282 75.7178L77.4904 77.4001C78.1688 78.3042 79.1536 78.8843 80.2634 79.0332C81.3735 79.1824 82.4708 78.8817 83.3538 78.1871C84.237 77.4928 84.8036 76.4844 84.9491 75.3483C85.0946 74.2123 84.8012 73.0885 84.1227 72.1845L83.0609 70.7688L81.3377 58.8232C81.0713 56.9755 80.1283 55.3277 78.7077 54.1839C78.9218 52.6312 78.6877 51.0434 78.0295 49.6165C78.9798 49.9889 80.0202 50.013 81.0032 49.6781C81.8819 49.3786 82.6296 48.8211 83.166 48.0763L83.9471 48.4766C84.943 48.9871 86.0764 49.0686 87.1384 48.7068C88.2004 48.3448 89.0597 47.5839 89.558 46.5644C90.0563 45.5451 90.1362 44.3848 89.7827 43.2977C89.4291 42.2105 88.686 41.3307 87.6903 40.8205L86.8168 40.3729C87.7169 37.2905 87.2204 34.0943 85.3541 31.1983C82.2834 26.4323 75.9587 23.2238 70.3186 23.5672C66.9083 23.7754 64.1059 25.2544 62.2482 27.7843L61.3682 27.3335C60.3726 26.823 59.2394 26.7415 58.1772 27.1032C57.1152 27.4653 56.2558 28.2261 55.7575 29.2456C55.2592 30.265 55.1793 31.4253 55.5328 32.5124C55.8863 33.5997 56.6295 34.4795 57.6254 34.9896L58.4063 35.3899C58.1458 36.2758 58.1579 37.2225 58.4504 38.1222C58.7777 39.1284 59.4199 39.9666 60.2808 40.5221C58.5098 40.8926 56.9157 41.8734 55.7685 43.307C48.69 32.3861 50.3909 28.1725 54.2369 23.0264L59.1192 22.0825C59.8049 21.9499 60.2558 21.2734 60.1262 20.5714L60.0656 20.2432H83.8375C84.5353 20.2432 85.101 19.6641 85.101 18.9496C85.101 18.2352 84.5353 17.6561 83.8375 17.6561H59.5016C58.7643 15.8155 56.8385 14.6914 54.8571 15.0749C53.4161 15.3534 52.287 16.3621 51.7658 17.6561H31.2635C30.5656 17.6561 30 18.2352 30 18.9496C30 19.6641 30.5656 20.2432 31.2635 20.2432H51.5546ZM53.9846 19.1306C53.9878 19.1069 53.9905 19.0829 53.9924 19.0587C54.0843 18.3542 54.6071 17.756 55.3258 17.617C56.2228 17.4436 57.0894 18.0495 57.2587 18.9673L57.4088 19.7807L54.1571 20.4094C54.157 20.4093 53.9712 19.2824 53.9846 19.1306ZM81.6268 73.1043L82.1193 73.7607C82.3864 74.117 82.5018 74.5614 82.444 75.0124C82.3863 75.4634 82.1628 75.8624 81.8149 76.1359C81.467 76.4094 81.0332 76.5274 80.5924 76.4684C80.1519 76.4094 79.7622 76.1806 79.495 75.8244L79.0024 75.168L81.6268 73.1043ZM67.4247 80.2596L67.9327 79.2205L69.1284 79.8331C69.6977 80.1248 70.1229 80.6295 70.3262 81.2547C70.385 81.4358 70.4231 81.6201 70.4405 81.8049L67.4247 80.2596ZM42.9268 66.4075L42.4188 67.4466L39.401 65.9005C40.0847 65.4712 40.963 65.4012 41.7313 65.795L42.9268 66.4075ZM60.9604 30.0173L59.4793 33.0467L58.7565 32.6764C58.3641 32.4754 58.0708 32.1271 57.9304 31.6955C57.7901 31.264 57.8209 30.8052 58.0173 30.4037C58.2136 30.002 58.5539 29.7016 58.9755 29.558C59.3969 29.4141 59.8453 29.4458 60.2374 29.6468L60.9604 30.0173ZM84.3556 45.7931L85.8367 42.7636L86.5597 43.1341C87.3756 43.5521 87.7071 44.5718 87.2989 45.407C87.1026 45.8087 86.7623 46.1089 86.3407 46.2526C85.9193 46.3959 85.471 46.3644 85.0786 46.1637L84.3556 45.7931ZM79.2694 47.2956L81.7359 42.2505C82.8586 39.9537 81.552 37.1995 78.6293 35.702C76.9989 34.8666 75.3641 34.6777 74.0425 35.073C73.5593 33.7527 72.4317 32.5263 70.8011 31.6909C67.8784 30.1931 64.9421 30.7735 63.8194 33.0702L61.3531 38.1154C61.1244 37.8967 60.9507 37.6202 60.8484 37.3051C60.6874 36.8101 60.7227 36.2837 60.9481 35.8228L63.4683 30.6677C65.1719 27.1827 68.2156 26.2872 70.4691 26.1496C75.1889 25.8609 80.6819 28.6442 83.2456 32.6231C84.4708 34.5244 85.5658 37.538 83.8254 41.0981L81.5339 45.7852C81.5327 45.7875 81.5316 45.7897 81.5306 45.7918C81.5296 45.7941 81.5285 45.7962 81.5275 45.7985L81.305 46.2535C81.0797 46.7144 80.6893 47.0591 80.2059 47.2238C79.8981 47.3287 79.5776 47.3524 79.2694 47.2956ZM76.4808 46.9464C76.2671 47.1395 76.0091 47.2713 75.7346 47.3326C75.6946 47.3379 75.6547 47.3452 75.6151 47.3544C75.2934 47.4018 74.9555 47.3523 74.6438 47.1926C74.4624 47.0997 74.2694 47.0556 74.0794 47.0556C73.6162 47.0556 73.17 47.3173 72.9486 47.7705C71.8202 50.0788 69.0676 51.0168 66.8129 49.8617C65.7264 49.3049 64.9147 48.3425 64.5275 47.1518C64.1403 45.9609 64.2265 44.6927 64.7702 43.5802C65.0826 42.9414 64.8299 42.1643 64.2059 41.8446C63.8951 41.6854 63.6544 41.4386 63.4983 41.148C63.4812 41.1083 63.4623 41.0694 63.4415 41.0317C63.3255 40.7706 63.2744 40.4807 63.2974 40.1904C63.3016 40.1602 63.3049 40.13 63.307 40.0998C63.3307 39.9205 63.3834 39.7421 63.4667 39.5712L66.0788 34.2282C66.6705 33.0173 68.5504 33.4312 69.6699 34.0044C70.7891 34.5778 72.2394 35.8705 71.6474 37.0814C71.335 37.7202 71.5877 38.4973 72.2117 38.817C72.8356 39.1369 73.5948 38.878 73.9072 38.2392C73.9076 38.2382 73.908 38.2373 73.9086 38.2363C74.5022 37.029 76.3798 37.4425 77.498 38.0154C78.6173 38.5889 80.0677 39.8815 79.4758 41.0925L76.8637 46.4354C76.7805 46.6059 76.6727 46.7557 76.547 46.8824C76.5244 46.9031 76.5024 46.9241 76.4808 46.9464ZM57.0744 45.9724C57.9526 44.1758 59.7023 43.036 61.6404 42.95C61.7775 43.132 61.9295 43.3033 62.096 43.4622C61.64 44.9182 61.647 46.4833 62.13 47.9685C62.7304 49.8151 63.9919 51.3088 65.6821 52.1747C68.85 53.7978 72.6511 52.7593 74.6435 49.8911C74.8674 49.9322 75.0926 49.9541 75.3168 49.9575C76.1927 51.2694 76.4686 52.8866 76.0941 54.4009C76.0871 54.4256 76.0808 54.4505 76.0752 54.4753C75.9827 54.8283 75.8548 55.1753 75.6905 55.511L72.1247 62.8051C70.8862 65.3386 68.7466 67.2308 66.1 68.1326C65.5581 68.3173 65.0089 68.4557 64.4568 68.5483C64.4097 68.553 64.3631 68.5605 64.3171 68.5706C62.2229 68.8918 60.0941 68.5533 58.1723 67.5723C58.1675 67.5697 58.1628 67.5672 58.1579 67.5648C54.028 65.4486 51.8706 60.8821 52.524 56.4412C52.5372 56.3828 52.5466 56.3233 52.5516 56.2631C52.7187 55.2454 53.0343 54.2362 53.5084 53.2663L57.0744 45.9724ZM75.267 42.2402C74.6428 41.9207 74.3897 41.1437 74.7018 40.5048C75.0137 39.866 75.7724 39.6069 76.3968 39.9261L76.6007 40.0304C77.2248 40.3499 77.4779 41.1269 77.1659 41.7657C76.9445 42.219 76.4983 42.4813 76.0348 42.4813C75.845 42.4813 75.6522 42.4373 75.4708 42.3446L75.267 42.2402ZM68.1978 45.9037C68.1995 45.9742 68.2225 46.084 68.3222 46.2062C68.549 46.4844 68.941 46.531 69.1399 46.3861C69.7086 45.9722 70.4976 46.109 70.9016 46.6914C71.3058 47.2738 71.1723 48.0814 70.6035 48.4951C70.0815 48.8749 69.4715 49.0582 68.8596 49.0582C67.9419 49.0582 67.0195 48.6458 66.3822 47.864C65.9405 47.3224 65.6881 46.649 65.6715 45.9679C65.6541 45.2536 66.2057 44.6603 66.9033 44.6426C67.6025 44.6212 68.1805 45.1895 68.1978 45.9037ZM70.2667 44.3496C70.0769 44.3496 69.8843 44.3056 69.703 44.213L69.499 44.1087C68.8747 43.7894 68.6215 43.0125 68.9333 42.3735C69.2452 41.7343 70.0041 41.4753 70.6282 41.7943L70.8322 41.8987C71.4565 42.218 71.7097 42.9948 71.3979 43.6338C71.1767 44.0874 70.7302 44.3496 70.2667 44.3496ZM68.2701 38.5028C68.0799 38.5028 67.8867 38.4585 67.7049 38.3654L67.501 38.2607C66.8773 37.9407 66.625 37.1634 66.9377 36.5249C67.2505 35.8861 68.0094 35.6282 68.6334 35.9479L68.8373 36.0526C69.461 36.3727 69.7134 37.1499 69.4006 37.7885C69.179 38.2412 68.7331 38.5028 68.2701 38.5028ZM63.0977 59.0135C62.9073 59.0135 62.714 58.9693 62.5323 58.876L62.3286 58.7714C61.7049 58.451 61.4527 57.6737 61.7657 57.0353C62.0785 56.3969 62.8377 56.1386 63.4615 56.4589L63.6653 56.5635C64.289 56.8838 64.5411 57.6611 64.2282 58.2995C64.0064 58.752 63.5607 59.0135 63.0977 59.0135Z" fill="black"/>
</svg>
