<svg width="120" height="100" viewBox="0 0 120 100" fill="none" xmlns="http://www.w3.org/2000/svg">
<rect width="120" height="100" fill="white"/>
<path d="M73.778 66.4915C78.8471 66.4474 83.4246 65.1552 87.622 62.5438C88.415 62.0503 89.0985 62.0484 89.5958 62.5323C90.0797 63.0046 90.1411 63.694 89.7149 64.4505C84.5037 73.6881 76.685 79.2679 66.1552 80.6293C49.9034 82.7318 34.7441 71.5914 31.5951 55.4682C28.473 39.4775 37.9084 23.7999 53.4805 19.109C54.8131 18.7077 55.8845 19.4566 55.6349 20.6586C55.5581 21.0272 55.2912 21.394 55.0204 21.6762C51.1111 25.7392 48.5958 30.5279 47.8488 36.1193C46.5009 46.1845 49.8112 54.5082 57.699 60.8925C62.386 64.6886 67.8852 66.4205 73.778 66.4915ZM49.2428 23.9842C40.6427 28.122 32.705 38.6634 33.9069 51.9544C35.0148 64.2009 43.7936 74.437 56.0631 77.271C67.6394 79.9438 78.5975 74.7557 83.9661 67.7051C70.7269 71.6854 59.141 68.9224 50.5908 57.7301C42.4341 47.0485 42.6953 35.5125 49.2428 23.9842Z" fill="black"/>
</svg>
