<svg width="120" height="100" viewBox="0 0 120 100" fill="none" xmlns="http://www.w3.org/2000/svg">
<rect width="120" height="100" fill="white"/>
<path d="M39.0861 28.6184C38.9718 27.5199 38.7511 26.5405 38.7988 25.5738C38.8766 24.0276 39.7877 22.8831 41.0052 22.0069C44.5594 19.4465 48.2882 19.4417 52.0852 21.3926C54.8901 22.8339 57.1569 24.9658 58.9379 27.5135C62.4683 32.5646 65.5669 37.8792 67.8924 43.6096C68.6527 45.4812 69.2861 47.3955 69.5433 49.4131C69.5909 49.7941 69.7687 49.9163 70.1385 49.9925C72.6037 50.4973 74.9356 51.3418 76.9738 52.8657C78.9755 54.361 80.3264 56.3119 81.0248 58.7136C81.0629 58.8422 81.1089 58.9692 81.1486 59.0866C81.8249 59.0866 82.4931 58.9787 83.1138 59.1057C86.1219 59.72 87.3505 63.2504 85.3869 65.6029C85.0996 65.9473 85.0679 66.1997 85.2425 66.5918C85.8044 67.857 86.3314 69.1364 86.8648 70.4142C87.114 71.0127 87.0156 71.4095 86.595 71.5857C86.1664 71.7651 85.806 71.5603 85.56 70.9825C84.9726 69.6031 84.3917 68.2221 83.8107 66.849C80.4819 67.849 77.8564 65.2536 78.277 62.3329C77.3865 62.5329 76.4944 62.7773 75.588 62.9281C73.8721 63.2154 72.191 62.9615 70.5544 62.4265C70.1068 62.2805 69.8401 62.3535 69.521 62.6789C68.6496 63.571 67.7511 64.4377 66.8384 65.2901C66.5574 65.5521 66.4748 65.7949 66.5637 66.1696C67.4638 69.9793 68.348 73.7938 69.2385 77.6051C69.4337 78.4416 69.3226 78.8274 68.8432 78.9544C68.3321 79.0893 68.0448 78.7861 67.8432 77.921C66.9193 73.9335 66.0002 69.946 65.0589 65.9616C64.9367 65.4425 65.0271 65.0759 65.4081 64.6854C66.4034 63.6647 67.3511 62.5995 68.286 61.5852C67.1384 60.8486 65.8177 60.001 64.4398 59.1168C63.489 60.2407 62.5556 61.4455 61.5127 62.5456C60.7222 63.3789 60.4317 64.2076 60.5618 65.3917C61.0301 69.6412 61.3587 73.9049 61.7413 78.1638C61.7619 78.4004 61.7809 78.6369 61.7921 78.875C61.8111 79.3195 61.5952 79.6179 61.1587 79.6576C60.6825 79.702 60.4237 79.4068 60.3761 78.9512C60.2967 78.2035 60.2364 77.4543 60.1697 76.705C59.7935 72.4651 59.4237 68.2268 59.0379 63.9885C58.9967 63.5409 59.1125 63.1996 59.4078 62.8551C60.7364 61.3106 62.0413 59.7454 63.4032 58.1295C63.2239 57.9802 63.0651 57.8485 62.9604 57.7612C61.3222 58.8295 59.7142 59.874 58.1157 60.9312C57.9585 61.0344 57.849 61.2185 57.7395 61.3804C56.6521 62.963 55.606 64.5742 54.471 66.1235C53.7631 67.0902 53.3472 68.1252 53.1075 69.2904C52.4677 72.4096 51.7614 75.5129 51.0788 78.6226C50.9454 79.2274 50.6137 79.5179 50.1787 79.4258C49.7327 79.3306 49.5422 78.9496 49.6771 78.3321C50.4788 74.6621 51.2867 70.992 52.1042 67.3252C52.163 67.0648 52.3027 66.8093 52.4535 66.5839C53.236 65.4171 54.0361 64.2615 54.8282 63.1011C54.9345 62.9456 55.0298 62.7837 55.2108 62.4964C54.8964 62.6249 54.7202 62.6916 54.5488 62.7694C50.2629 64.6885 45.8087 65.8394 41.0783 65.5203C39.5877 65.4203 38.1083 65.087 36.6367 64.7981C36.3526 64.7425 36.0113 64.4377 35.9002 64.1663C35.7304 63.7472 36.105 63.5012 36.4447 63.3012C40.8973 60.6851 45.3499 58.0675 49.8009 55.4499C52.5297 53.8451 55.26 52.2434 57.9903 50.6386C58.1236 50.5592 58.2506 50.4671 58.4824 50.3132C57.5426 50.1036 56.7013 49.9227 55.8648 49.729C50.4613 48.4766 45.2563 46.6987 40.4528 43.8747C38.3464 42.6366 36.3685 41.2174 34.689 39.4253C33.6699 38.3379 33.0556 37.0521 33.0032 35.5378C32.9429 33.8298 33.735 32.4948 34.8954 31.3376C35.9891 30.247 37.3003 29.4771 38.6829 28.8168C38.8527 28.7327 39.0274 28.6469 39.0861 28.6184ZM39.8941 29.8502C38.3448 30.5026 36.9114 31.2836 35.7542 32.4868C33.9779 34.333 33.9382 36.6283 35.751 38.4506C36.778 39.484 37.9098 40.4349 39.094 41.2857C42.3815 43.6461 46.0341 45.3145 49.8724 46.5447C54.8076 48.1273 59.7729 49.6258 65.0541 49.3909C65.197 49.3845 65.3383 49.3718 65.6415 49.3528C64.9843 48.9782 64.4779 48.6797 63.962 48.3956C59.0506 45.697 54.2726 42.7842 49.7597 39.4586C46.0563 36.7267 42.4783 33.8504 39.8941 29.8502ZM38.5607 63.7266C38.7067 63.798 38.7543 63.8361 38.8067 63.8456C41.3481 64.2822 43.8927 64.2584 46.4262 63.8107C52.2915 62.7773 57.4077 60.1264 62.0651 56.504C62.9191 55.8404 62.9905 55.85 63.8112 56.5627C64.8335 57.4501 65.897 58.293 66.9844 59.1898C67.6622 58.0961 68.2972 57.1421 68.8607 56.1484C69.8496 54.4054 71.2322 53.1562 73.1561 52.5339C73.1815 52.526 73.1911 52.4704 73.2149 52.426C73.1704 52.3958 73.1292 52.3561 73.0784 52.3371C72.7641 52.2196 72.4513 52.0942 72.1323 51.9926C68.3543 50.783 64.4811 50.6243 60.5666 50.9656C60.2666 50.991 59.9586 51.1338 59.6935 51.2894C52.8201 55.3214 45.9515 59.3629 39.0813 63.4043C38.9305 63.4932 38.7845 63.5885 38.5607 63.7266ZM65.8208 47.6765C65.7573 47.6051 65.6938 47.5337 65.6288 47.4622C60.9317 42.1794 56.2362 36.895 51.5391 31.6122C48.8961 28.6374 46.2515 25.6627 43.5974 22.6974C43.4657 22.5498 43.1609 22.3577 43.0577 22.4117C41.6957 23.1292 40.4655 23.9975 40.2131 25.6706C40.0465 26.7754 40.429 27.7818 40.9386 28.7358C42.0291 30.774 43.5895 32.4329 45.2817 33.9663C51.4391 39.5491 58.5363 43.7462 65.8208 47.6765ZM44.6911 21.7624C52.3868 30.4185 60.0031 38.984 67.6193 47.5495C67.5733 47.04 67.4495 46.586 67.2971 46.1399C65.7812 41.6778 63.5541 37.5585 61.1238 33.5472C59.5792 30.9963 58.1109 28.385 55.9965 26.2246C54.3075 24.4975 52.482 22.9704 50.1946 22.0926C48.4405 21.4212 46.6484 21.2227 44.6911 21.7624ZM68.1273 59.9295C69.3432 60.3978 70.383 60.8899 71.4735 61.2026C74.2657 61.9995 76.9167 61.6646 79.3565 60.0105C79.6422 59.8168 79.8073 59.6327 79.6978 59.239C79.0215 56.8278 77.6326 54.9467 75.5372 53.5864C75.3991 53.4959 75.188 53.3975 75.0547 53.4387C73.6832 53.8753 72.172 54.1467 71.2433 55.3499C70.1496 56.7643 69.221 58.3057 68.1273 59.9295ZM79.7025 63.0535C79.712 64.498 80.8851 65.6553 82.3217 65.6394C83.7583 65.6235 84.906 64.4504 84.8996 63.0043C84.8933 61.5709 83.7123 60.4105 82.2741 60.4248C80.828 60.4391 79.6914 61.6011 79.7025 63.0535Z" fill="black"/>
</svg>
