<svg width="120" height="100" viewBox="0 0 120 100" fill="none" xmlns="http://www.w3.org/2000/svg">
<rect width="120" height="100" fill="white"/>
<path d="M17 56.3735C17.1885 55.5299 17.3141 54.6682 17.5744 53.8492C19.3314 48.3293 23.0135 44.7391 28.6748 43.5342C34.2328 42.3517 38.9966 44.0749 42.8515 48.2665C42.9659 48.3899 43.0692 48.5223 43.1836 48.6457C43.2195 48.6861 43.2756 48.7063 43.3676 48.7669C44.3145 48.3719 45.2861 47.968 46.3385 47.5282C46.0782 46.4916 45.8493 45.4908 45.5621 44.5058C45.5127 44.3375 45.2345 44.1714 45.0348 44.1221C40.4932 43.0473 35.9382 42.033 31.4123 40.9133C29.2986 40.3905 28.069 38.288 28.4527 36.1878C28.8386 34.0763 30.7122 32.5662 32.8933 32.8399C36.0549 33.2349 39.1963 33.7846 42.3444 34.2783C46.6526 34.9559 50.9586 35.6515 55.269 36.3089C55.4979 36.3448 55.8681 36.1833 56.0028 35.9948C57.7799 33.4794 60.219 32.3418 63.2661 32.3912C65.0006 32.4181 66.7374 32.3979 68.4719 32.3957C69.7913 32.3934 71.0164 32.7031 72.1204 33.4525C72.3201 33.5871 72.5692 33.7218 72.7981 33.724C74.8938 33.7442 76.9873 33.7352 79.2716 33.7352C78.8453 32.4787 78.5356 31.2939 78.0218 30.2101C77.8535 29.8534 77.1646 29.6065 76.6889 29.5594C75.6904 29.4607 74.6762 29.5392 73.6687 29.5235C72.7285 29.5101 72.2169 29.0478 72.2259 28.2625C72.2349 27.4928 72.7644 27.0261 73.6978 27.0126C74.7323 26.9969 75.7689 26.9947 76.8056 27.0126C78.6545 27.044 80.0659 28.0785 80.6583 29.8332C81.0308 30.9371 81.3741 32.0523 81.7555 33.2371C83.4676 32.0254 85.3592 32.3867 87.1767 32.4428C88.5163 32.4854 89.4722 33.6029 89.5305 34.9581C89.5709 35.8804 89.5687 36.8071 89.5328 37.7293C89.4744 39.1946 88.4265 40.2312 86.9523 40.2873C86.0099 40.3232 85.0652 40.294 84.0084 40.294C84.3337 41.3397 84.5873 42.2754 84.9441 43.1752C85.0069 43.3367 85.5028 43.431 85.7721 43.3883C88.8461 42.8924 91.7901 43.2851 94.6061 44.6135C100.505 47.3914 103.889 53.9008 102.796 60.3631C101.697 66.8569 96.3227 71.8831 89.7931 72.5316C82.6082 73.2429 76.0202 68.7619 74.0995 61.8575C72.1832 54.9756 75.466 47.7324 81.9328 44.6382C82.4758 44.3779 82.6419 44.1512 82.4018 43.5768C82.146 42.962 81.9867 42.3068 81.7196 41.4586C80.4855 42.1699 79.2447 42.7466 78.1586 43.5342C73.4241 46.9763 70.9222 51.648 70.709 57.5112C70.6058 60.3699 69.3178 62.3041 66.991 62.9727C66.5377 63.1029 66.0575 63.1949 65.5885 63.1949C62.483 63.1926 59.3753 63.1926 56.2698 63.1298C53.1508 63.067 50.2495 61.9585 47.2876 61.1507C46.9421 61.0565 46.5965 60.9645 46.1904 60.8545C46.0513 61.3325 45.9368 61.7543 45.8089 62.1739C43.8096 68.6564 37.4887 73.097 30.9568 72.6079C23.7787 72.0693 18.2184 66.996 17.1593 60.0243C17.1257 59.8089 17.0539 59.6025 17 59.3893C17 58.3885 17 57.381 17 56.3735ZM85.0361 51.9195C84.7354 52.099 84.5155 52.2112 84.3158 52.3503C81.5199 54.3159 80.6426 58.1619 82.3008 61.1709C83.9747 64.2046 87.6188 65.5105 90.8207 64.2226C94.0093 62.9413 95.7684 59.4117 94.8462 56.1155C94.2696 54.0534 92.9681 52.6173 91.0653 51.6435C90.6726 51.4415 90.2934 50.8851 90.2373 50.452C90.1947 50.1087 90.5784 49.5298 90.9195 49.3682C91.2718 49.2022 91.8529 49.3009 92.2478 49.4782C96.0579 51.188 98.1492 55.2875 97.4469 59.589C96.6413 64.5322 91.7295 67.9406 86.6359 67.0925C81.7017 66.2712 78.1631 61.2831 79.0517 56.405C79.5857 53.479 81.125 51.2643 83.6875 49.7474C83.8984 49.624 84.1677 49.2785 84.1251 49.1057C83.9411 48.3271 83.6539 47.5754 83.4025 46.8125C78.6119 48.5716 74.2902 54.9756 76.7921 62.0281C79.11 68.5644 86.4879 71.8203 92.9075 69.177C99.3676 66.5158 102.285 58.9899 99.2958 52.6824C96.3586 46.4826 89.4767 44.8199 85.8528 46.0989C85.891 46.2313 85.9291 46.3637 85.9718 46.4961C87.1206 50.1177 88.274 53.737 89.4116 57.3608C89.6696 58.1843 89.3735 58.8306 88.6846 59.0729C87.9508 59.3309 87.3293 58.9764 87.0264 58.1058C86.8424 57.5785 86.6876 57.0422 86.517 56.5104C86.0301 55.0025 85.5432 53.4969 85.0361 51.9195ZM40.7804 49.817C37.5448 45.9037 31.0533 44.1916 25.6187 47.3353C20.2715 50.4273 18.0815 57.0175 20.5072 62.6945C22.944 68.3939 29.2851 71.367 35.2246 69.5944C40.6189 67.9833 44.6623 62.1784 43.8007 57.1701C43.0422 57.4775 42.2793 57.7378 41.568 58.1013C41.3145 58.2315 41.0587 58.595 41.0228 58.8799C40.5112 63.058 37.3294 66.4687 33.3106 67.1037C29.0922 67.7679 25.0734 65.6676 23.2716 61.8553C21.4765 58.0587 22.4369 53.5934 25.6792 50.802C27.3734 49.3435 29.3614 48.6031 31.603 48.5851C32.4153 48.5784 32.9292 49.0451 32.9628 49.7609C32.9942 50.4498 32.5701 50.9322 31.8117 51.0601C31.6187 51.0937 31.4235 51.1027 31.2283 51.1184C27.324 51.4483 24.4204 54.9442 24.9478 58.6825C25.5132 62.7012 29.0877 65.3086 33.0436 64.5883C35.6061 64.1216 37.9823 61.8149 38.2359 59.5127C38.0407 59.5823 37.8589 59.6361 37.6839 59.7079C36.2119 60.316 34.7512 60.9533 33.2702 61.5344C31.7624 62.1246 30.3397 61.9226 29.1146 60.8456C26.8909 58.8912 27.49 55.4221 30.2747 54.2284C33.4071 52.8843 36.5665 51.6053 39.7146 50.2949C40.0669 50.1491 40.4124 49.983 40.7804 49.817ZM59.75 44.3375C60.1382 47.5821 58.6976 49.6464 56.0678 49.7183C54.9167 49.7497 53.9227 49.3547 53.1261 48.5268C51.9975 47.3532 51.8135 45.9373 52.2084 44.4138C50.8396 44.4138 49.5494 44.4138 48.1762 44.4138C48.3826 45.2597 48.5262 46.0271 48.7686 46.7608C48.8651 47.0525 49.1321 47.3712 49.4081 47.5103C50.9518 48.2844 51.8292 49.4804 51.8068 51.2284C51.7866 52.9382 50.9137 54.1274 49.3744 54.8275C48.5621 55.1978 47.7207 55.5074 46.9062 55.8732C46.7042 55.9629 46.4417 56.1402 46.3991 56.3219C46.067 57.7288 46.4282 58.31 47.8306 58.7027C51.1358 59.6271 54.3984 60.7491 57.9011 60.7064C60.3065 60.6773 62.7119 60.7109 65.1173 60.6975C67.0964 60.6885 68.1353 59.7102 68.1712 57.7176C68.2139 55.3436 68.6379 53.0549 69.448 50.8312C69.5669 50.5036 69.697 50.1782 69.8676 49.7317C69.3223 49.7317 68.9095 49.734 68.4988 49.7317C65.2766 49.7183 63.3492 48.0645 62.7972 44.8782C62.7635 44.6785 62.5032 44.3779 62.3327 44.3666C61.4778 44.3106 60.6184 44.3375 59.75 44.3375ZM63.8653 41.8154C65.4584 41.8154 67.0515 41.8333 68.6447 41.8109C70.6933 41.7817 72.2191 40.2896 72.2079 38.3643C72.1967 36.4615 70.7045 34.9626 68.7053 34.9245C66.6925 34.8863 64.6798 34.8796 62.6693 34.9245C59.7433 34.9918 57.4837 37.119 57.2526 39.9575C57.1494 41.2118 57.6632 41.7974 58.9198 41.8086C60.5668 41.8266 62.216 41.8154 63.8653 41.8154ZM54.7844 38.7974C51.1987 38.2274 47.7005 37.6665 44.2001 37.1145C40.5044 36.5311 36.8088 35.941 33.1087 35.38C31.9172 35.2005 31.1453 35.6672 30.9546 36.5827C30.7504 37.5565 31.2956 38.297 32.4737 38.5999C34.3922 39.0936 36.3421 39.484 38.2314 40.0764C43.5112 41.7324 48.9256 42.0039 54.3962 41.8109C54.5555 41.8064 54.7126 41.7638 54.7844 41.7503C54.7844 40.7563 54.7844 39.8139 54.7844 38.7974ZM49.2869 51.197C49.3071 50.0526 48.2772 49.4647 47.0632 49.9673C41.8485 52.1282 36.6383 54.3025 31.4303 56.479C30.4295 56.8964 30.0682 57.6279 30.4138 58.4469C30.7593 59.2636 31.529 59.5149 32.5298 59.1111C33.645 58.6623 34.7512 58.1911 35.8596 57.7288C39.9098 56.0415 43.96 54.3518 48.0124 52.6734C48.6945 52.3884 49.2734 52.0429 49.2869 51.197ZM74.454 36.2618C74.454 36.4638 74.4338 36.5513 74.4563 36.6253C75.6522 40.3389 72.8025 44.5955 68.2408 44.3442C67.2984 44.2926 66.3515 44.3375 65.4202 44.3375C65.2699 45.805 66.2707 47.0324 67.7269 47.1625C68.6424 47.2455 69.5714 47.1715 70.4936 47.2208C71.0277 47.2478 71.3508 47.075 71.6537 46.6172C73.1593 44.3532 75.0621 42.4683 77.3666 41.0233C78.4975 40.3142 79.7069 39.7308 80.9455 39.0554C80.7009 38.2903 80.4631 37.4623 80.1647 36.659C80.0996 36.4862 79.8213 36.2843 79.6373 36.282C77.9343 36.2484 76.2312 36.2618 74.454 36.2618ZM86.9905 34.9492C85.9561 34.9492 84.9845 34.8886 84.0263 34.9694C83.3195 35.0299 82.8797 35.5169 82.8304 36.2573C82.7832 36.9911 83.1288 37.6037 83.8311 37.6867C84.8611 37.8078 85.9134 37.7181 86.9905 37.7181C86.9905 36.7891 86.9905 35.9342 86.9905 34.9492ZM55.9848 44.3622C55.195 44.3487 54.5443 44.9837 54.5398 45.7758C54.5353 46.5365 55.1277 47.158 55.8906 47.1917C56.6961 47.2276 57.3446 46.6285 57.3693 45.8296C57.3917 45.0263 56.7769 44.3756 55.9848 44.3622Z" fill="black"/>
<path d="M62.593 55.1728C62.6132 57.3471 60.863 59.1355 58.6864 59.1624C56.5256 59.1893 54.7305 57.4211 54.7058 55.2424C54.6812 53.0681 56.4314 51.2909 58.6169 51.2707C60.8047 51.2483 62.5728 52.9828 62.593 55.1728ZM58.6438 53.7973C57.8405 53.8018 57.2212 54.4368 57.2369 55.2356C57.2526 55.9963 57.8607 56.6111 58.6169 56.6291C59.4045 56.6493 60.0552 56.0142 60.0619 55.2177C60.0709 54.4189 59.4471 53.7928 58.6438 53.7973Z" fill="black"/>
</svg>
