<svg width="120" height="100" viewBox="0 0 120 100" fill="none" xmlns="http://www.w3.org/2000/svg">
<rect width="120" height="100" fill="white"/>
<path d="M10 74.5683C10.4709 73.7055 11.231 73.4267 12.1517 73.5661C13.4195 73.7581 14.206 73.2426 14.9951 72.2167C21.187 64.1546 27.4604 56.1531 33.6812 48.112C35.1122 46.2629 36.8377 45.4422 39.1761 46.0419C39.426 46.105 39.8758 45.8367 40.0757 45.5948C43.3847 41.565 46.6674 37.5116 49.958 33.4661C52.2543 30.6411 54.548 27.8135 56.8469 24.9911C58.8697 22.508 61.8393 22.3212 64.1172 24.5781C67.9602 28.3895 71.7795 32.2272 75.6014 36.0597C75.8776 36.3358 76.0881 36.6804 76.3274 36.9934C77.2665 36.5331 78.0293 36.1596 78.7894 35.7861C81.6197 34.392 83.9318 35.0733 85.5679 37.7957C92.4674 49.2878 99.3747 60.7746 106.232 72.293C106.811 73.2662 107.408 73.6661 108.536 73.5898C110.107 73.4872 110.841 74.0501 110.809 75.0733C110.777 76.065 110.072 76.5174 108.549 76.5174C76.4326 76.5174 44.3158 76.5147 12.199 76.5305C11.2836 76.5305 10.5182 76.378 10.0053 75.5573C10 75.2259 10 74.8971 10 74.5683ZM103.525 73.5582C103.276 73.1084 103.115 72.7954 102.936 72.4955C99.7167 67.1243 96.4971 61.7557 93.2749 56.3845C89.8686 50.7056 86.4596 45.0266 83.0507 39.3503C82.1826 37.9036 81.5698 37.7983 80.052 38.4138C78.2502 39.1425 76.8377 40.1025 76.7036 42.2437C76.7009 42.3068 76.6562 42.3647 76.6325 42.4252C76.288 43.2327 75.562 43.6036 74.8202 43.3589C74.0574 43.1064 73.6523 42.4067 73.8312 41.565C73.939 41.0547 74.0679 40.5366 74.2705 40.0578C74.5335 39.4265 74.4099 39.003 73.9101 38.5112C70.0119 34.6603 66.1479 30.7726 62.2734 26.9007C60.9608 25.5908 60.1401 25.6276 58.9617 27.0769C54.1981 32.9295 49.4424 38.7874 44.6841 44.6426C43.9476 45.5474 43.2137 46.4575 42.422 47.436C43.987 48.112 45.4364 48.7038 46.8541 49.3667C47.4012 49.6218 47.7406 49.4903 48.1588 49.1326C50.0079 47.5596 51.886 46.0209 53.7483 44.4663C56.1841 42.4304 58.3147 42.4304 60.7004 44.4979C63.5017 46.9257 66.2952 49.3667 69.0913 51.7998C69.52 52.1733 69.954 52.5389 70.4775 52.9861C70.9615 51.3395 71.3955 49.8665 71.8295 48.3935C72.2398 46.9941 72.8501 46.4891 73.8181 46.7574C74.8044 47.0309 75.0754 47.7911 74.6729 49.1721C74.1889 50.8397 73.747 52.5205 73.192 54.1645C72.9395 54.9168 73.1289 55.335 73.6997 55.8295C79.8074 61.106 85.9335 66.3615 91.9571 71.7354C93.4485 73.0663 94.9057 73.7607 96.9311 73.5977C99.0591 73.4267 101.221 73.5582 103.525 73.5582ZM89.2794 73.5582C89.332 73.474 89.3846 73.3925 89.4346 73.3083C89.2294 73.1584 89.0084 73.0242 88.8164 72.8585C81.8591 66.8113 74.9018 60.7588 67.9444 54.709C64.8248 51.9971 61.6947 49.2957 58.583 46.5759C57.8622 45.9472 57.0547 45.6263 56.2735 46.2445C54.0166 48.0357 51.8255 49.9059 49.6318 51.7288C49.6949 51.9155 49.7186 52.0102 49.7607 52.097C52.9987 59.0465 56.2472 65.9906 59.4668 72.9506C59.7324 73.5266 60.1165 73.5687 60.6373 73.5661C66.3794 73.5556 72.1215 73.5608 77.8662 73.5608C81.6697 73.5582 85.4732 73.5582 89.2794 73.5582ZM29.7936 73.524C38.7763 73.524 47.5591 73.524 56.4313 73.524C56.3024 73.2005 56.213 72.9296 56.092 72.6718C53.0644 66.1721 50.0421 59.6672 46.9804 53.1834C46.7831 52.7625 46.3307 52.3627 45.9019 52.168C43.5741 51.1238 41.2146 50.1427 38.8631 49.1458C37.469 48.5539 36.9955 48.6802 36.0801 49.8586C30.1828 57.4419 24.2856 65.0227 18.3909 72.6087C18.1831 72.8743 18.0016 73.1584 17.7175 73.5582C19.8166 73.5582 21.7394 73.3793 23.6096 73.6056C25.7665 73.866 26.8554 73.0348 27.7945 71.1409C29.5936 67.5031 31.6848 64.0126 33.6628 60.4642C34.2573 59.3963 35.078 59.0807 35.9013 59.5752C36.6667 60.0329 36.8245 60.8404 36.2906 61.811C34.4861 65.0805 32.6685 68.3422 30.8536 71.6065C30.5248 72.1957 30.1986 72.7928 29.7936 73.524Z" fill="black"/>
</svg>
