<svg width="120" height="100" viewBox="0 0 120 100" fill="none" xmlns="http://www.w3.org/2000/svg">
<rect width="120" height="100" fill="white"/>
<path d="M17 48.2672C17.2424 47.1496 17.3972 46.0051 17.7451 44.9234C19.6414 39.0011 23.5484 35.0199 29.4573 33.0541C30.0161 32.8678 30.254 32.6164 30.3819 32.0576C30.5861 31.1622 30.8734 30.2803 31.1898 29.4163C31.6072 28.274 32.5251 27.8162 33.4788 28.2044C34.4012 28.5792 34.7266 29.4814 34.3204 30.5989C32.5879 35.3431 32.5969 40.0783 34.8298 44.6204C38.021 51.1083 43.3329 54.5441 50.5816 54.8089C53.6291 54.9211 56.6834 54.8313 59.7355 54.8291C59.924 54.8291 60.1125 54.8022 60.3032 54.7865C59.9936 52.5827 57.6237 50.3947 55.1596 50.1254C53.9119 49.9885 52.6462 50.0333 51.3872 50.0042C50.1843 49.9772 49.4617 49.387 49.4281 48.3929C49.3944 47.3807 50.1529 46.6245 51.3603 46.6693C52.1704 46.7008 52.6731 46.3641 53.1354 45.7964C55.1439 43.3256 55.6668 40.572 54.464 37.6254C53.2342 34.6115 50.8688 33.0114 47.6417 32.6793C47.5026 32.6658 47.3612 32.6681 47.2221 32.6591C46.1359 32.585 45.4424 31.8893 45.4828 30.9131C45.5255 29.9414 46.2638 29.2726 47.3657 29.3086C50.5681 29.4118 53.297 30.6169 55.4648 32.9845C58.8221 36.6514 59.3831 41.9162 56.9235 46.2295C56.8136 46.4225 56.6946 46.6132 56.5151 46.914C58.3935 47.466 60.0227 48.3794 61.3423 49.7955C62.6551 51.2025 63.4608 52.8677 63.867 54.782C66.6475 54.782 69.4033 54.782 72.3095 54.782C69.6748 51.9992 68.3575 48.7811 68.6515 45.0132C68.9477 41.234 70.6712 38.2134 73.8647 35.8839C72.7157 35.6887 71.7327 35.5316 70.7543 35.3566C65.8979 34.4881 62.7718 30.2556 63.4092 25.3544C63.4787 24.827 63.3418 24.5375 62.9738 24.2143C57.4532 19.3625 51.2503 18.1237 44.3271 20.6686C42.7921 21.2341 41.5197 20.4486 41.688 19.0281C41.7822 18.2314 42.3231 17.8274 43.0165 17.5604C49.3944 15.112 55.5681 15.5227 61.4904 18.9495C62.6933 19.6452 63.7862 20.5317 64.9733 21.3598C67.3005 18.494 70.3234 17.1362 74.042 17.9329C77.7471 18.7251 79.9665 21.1668 80.9607 24.9504C81.1043 24.5218 81.2053 24.2435 81.2928 23.9607C82.5518 19.8876 86.6586 17.1968 90.7363 17.7758C95.2493 18.4177 98.5325 21.9612 98.6334 26.3036C98.7389 30.7538 95.725 34.5307 91.4207 35.3251C90.2986 35.5316 89.1676 35.6999 87.857 35.9154C90.6577 38.0091 92.1119 41.0388 94.2641 43.6689C95.2358 42.6703 96.1581 41.6985 97.1052 40.7493C97.9781 39.874 98.9656 39.7865 99.6904 40.4889C100.436 41.2093 100.352 42.2416 99.457 43.1415C98.436 44.1671 97.4014 45.1815 96.1761 46.3956C97.6505 46.3956 98.8646 46.3956 100.076 46.3956C100.496 46.3956 100.918 46.3821 101.335 46.4068C102.314 46.4606 102.992 47.1474 102.994 48.0585C102.996 48.9539 102.316 49.6631 101.347 49.7416C100.902 49.7775 100.451 49.7528 100.002 49.7551C99.585 49.7573 99.1675 49.7551 98.6267 49.7551C98.7995 50.0446 98.9072 50.2555 99.0441 50.4463C100.195 52.0643 101.347 53.6846 102.511 55.2936C102.971 55.9287 103.194 56.5885 102.787 57.3224C102.406 58.0136 101.778 58.211 101.017 58.2043C98.9813 58.1841 96.9436 58.1976 94.8049 58.1976C94.8049 59.2254 94.8116 60.1702 94.8027 61.1127C94.7914 62.3717 94.1833 63.0854 93.1353 63.0854C92.0985 63.0831 91.4678 62.3538 91.4454 61.1105C91.4319 60.3273 91.4297 59.5441 91.4207 58.7609C91.4207 58.7339 91.405 58.707 91.3691 58.5948C91.1873 58.7384 91.0168 58.8506 90.8731 58.992C89.76 60.0961 88.6627 61.216 87.5406 62.3111C86.7596 63.0719 85.761 63.1011 85.0742 62.4211C84.3696 61.7232 84.392 60.7604 85.1663 59.9592C85.6847 59.4229 86.2434 58.9224 86.7843 58.4063C86.7551 58.3367 86.7282 58.2672 86.699 58.1976C86.4073 58.1976 86.1155 58.1976 85.826 58.1976C74.208 58.1976 62.59 58.2133 50.972 58.1931C40.7522 58.1751 32.2962 51.308 30.1956 41.3058C29.8747 39.782 29.8141 38.2044 29.6211 36.5594C29.372 36.6559 29.0466 36.7659 28.7347 36.9073C23.2051 39.4319 19.6773 45.5675 20.4179 51.3686C21.2504 57.9081 25.9878 63.0113 32.258 64.0638C33.3554 64.2478 34.4842 64.3264 35.5973 64.3309C42.6238 64.3533 49.6502 64.3331 56.6789 64.3466C61.9886 64.3555 66.0056 67.9664 66.6093 73.2447C67.1659 78.0943 63.4855 82.9461 58.6493 83.7092C57.9334 83.8214 57.2041 83.873 56.4792 83.8797C53.7368 83.8999 50.9922 83.8932 48.2476 83.8842C47.0717 83.8797 46.3423 83.2424 46.3244 82.237C46.3064 81.1957 47.0493 80.5314 48.2678 80.5292C51.1516 80.5224 54.0353 80.5516 56.9191 80.518C60.3145 80.4776 62.9289 78.009 63.2745 74.5732C63.5842 71.5122 61.3939 68.5544 58.2588 67.8587C57.6394 67.7218 56.9819 67.7128 56.3401 67.7106C49.3405 67.7016 42.3433 67.7285 35.3437 67.6971C28.6988 67.6679 23.4587 64.9301 19.7581 59.3825C18.3353 57.2281 17.4937 54.8358 17.1571 52.2708C17.1279 52.0531 17.0539 51.8399 17 51.6267C17 50.5069 17 49.387 17 48.2672ZM97.9624 54.8022C97.8704 54.6182 97.8435 54.5396 97.7964 54.4745C94.4952 49.8516 91.212 45.2174 87.8794 40.6169C86.2547 38.3772 84.0128 37.2304 81.2278 37.0958C75.7363 36.831 71.3131 41.611 72.0514 47.0531C72.6641 51.5706 76.2727 54.7954 80.8373 54.8224C86.3512 54.856 91.8673 54.8313 97.3812 54.8313C97.545 54.8313 97.7066 54.8156 97.9624 54.8022ZM83.0971 33.182C83.4158 33.1663 83.5796 33.1752 83.7367 33.1506C86.1335 32.7646 88.5415 32.4324 90.9248 31.9724C93.6424 31.4472 95.4243 29.0258 95.2762 26.2296C95.1348 23.5815 93.0073 21.3957 90.2784 21.0905C87.7044 20.8032 85.1034 22.4661 84.5065 25.0581C83.9006 27.6905 83.5707 30.3858 83.0971 33.182ZM78.8736 33.2852C78.4001 30.4576 78.059 27.7937 77.4868 25.1793C76.9167 22.5694 74.401 20.866 71.7933 21.0837C69.1789 21.3014 66.9841 23.375 66.7215 25.8772C66.4275 28.6847 67.9648 31.234 70.6219 31.8534C73.279 32.4728 76.0034 32.8005 78.8736 33.2852Z" fill="black"/>
<path d="M38.7077 23.4781C38.6897 24.405 37.9626 25.1096 37.0313 25.0984C36.1202 25.0894 35.3751 24.3421 35.3751 23.4377C35.3751 22.5109 36.1942 21.7165 37.1121 21.7568C38.0277 21.7995 38.7279 22.5535 38.7077 23.4781Z" fill="black"/>
<path d="M82.0491 43.7428C82.9558 43.7517 83.6941 44.5013 83.6963 45.4147C83.6986 46.3684 82.9243 47.1202 81.9751 47.0888C81.0774 47.0596 80.3301 46.2719 80.3525 45.3832C80.375 44.4968 81.1627 43.7338 82.0491 43.7428Z" fill="black"/>
<path d="M31.5 34C32.3333 29.1667 36.8 19.2 48 18" stroke="black" stroke-width="3.4" stroke-linecap="round"/>
</svg>
