<svg width="120" height="100" viewBox="0 0 120 100" fill="none" xmlns="http://www.w3.org/2000/svg">
<rect width="120" height="100" fill="white"/>
<path d="M59.6717 58.9775C57.8755 61.3931 55.6393 63.5284 52.9715 65.1929C43.1693 71.313 30.8703 69.9959 22.1273 61.8414C17.5904 57.6072 14.4043 52.5744 13.3394 46.3618C12.5044 41.4747 13.2694 36.7614 14.9844 32.1657C15.2702 31.4007 15.8615 30.9719 16.6853 31.0168C17.5092 31.0616 18.0136 31.5716 18.263 32.3422C19.1149 34.9539 20.3002 37.3975 22.0404 39.5356C23.6209 41.4803 25.504 43.0776 28.0876 43.3382C29.4047 43.4699 30.8422 43.3691 32.0976 42.9683C34.5496 42.1865 36.6429 40.8162 38.2654 38.6865C43.6345 31.6389 52.4083 30.5936 59.3522 36.086C59.596 36.2794 59.8426 36.4643 60.12 36.6773C62.3955 34.8643 64.8839 33.5416 67.7253 33.04C73.5456 32.0088 77.9675 34.2113 81.7113 38.6697C84.4603 41.9427 88.064 44.064 92.6344 43.5288C95.0135 43.2514 96.6865 41.7662 98.0456 39.8999C99.5476 37.8346 100.408 35.4779 101.122 33.0568C101.192 32.8214 101.26 32.5888 101.319 32.3506C101.518 31.5408 102.047 31.0616 102.86 31.0056C103.678 30.9467 104.325 31.3559 104.552 32.1433C105.306 34.7522 106.256 37.3358 106.668 40.0008C107.666 46.4403 106.472 52.496 102.434 57.7417C92.9595 70.052 75.5071 72.3442 64.0348 63.0408C62.5216 61.8106 61.1709 60.3815 59.6717 58.9775ZM16.9095 38.042C16.789 38.0448 16.6685 38.0448 16.548 38.0476C16.548 40.0624 16.4135 42.0912 16.5704 44.0948C17.4952 55.9511 28.4687 65.9355 40.3671 65.6917C48.1321 65.532 53.8738 61.7293 58.08 55.3879C59.1505 53.7738 60.375 53.6925 61.4287 55.2814C68.0027 65.1929 80.7053 68.0624 91.0231 62.839C98.6845 58.9579 103.339 52.9023 103.737 44.0528C103.827 42.0464 103.642 40.054 102.994 38.1121C102.179 39.488 101.495 40.8695 100.604 42.108C98.0091 45.7173 94.5063 47.508 90.0171 46.8775C85.5532 46.2498 81.801 44.1929 78.9567 40.6789C76.6757 37.8599 73.9659 36.0104 70.2025 36.1589C66.9939 36.285 64.273 37.6217 61.8434 39.6309C60.2181 40.9731 59.9239 40.9731 58.279 39.5832C56.1717 37.7982 53.8851 36.313 51.0716 35.9795C46.7674 35.4723 43.5588 37.504 41.0452 40.7265C39.263 43.0104 37.0016 44.5572 34.4263 45.7089C32.4199 46.6028 30.307 47.0232 28.0932 46.7682C24.5176 46.3562 21.7322 44.546 19.5212 41.8138C18.56 40.6201 17.7754 39.2974 16.9095 38.042Z" fill="black"/>
</svg>
