<svg width="120" height="100" viewBox="0 0 120 100" fill="none" xmlns="http://www.w3.org/2000/svg">
<rect width="120" height="100" fill="white"/>
<path d="M97.0001 38.5207C96.5368 39.7149 96.0325 40.8936 95.6162 42.1055C94.2948 45.9542 93.1181 49.8459 92.5552 53.892C92.434 54.7598 92.3676 55.6355 92.3265 56.5112C92.2679 57.7563 91.6111 58.2274 90.4461 57.7993C87.9579 56.8845 85.4169 56.6265 82.8387 57.3126C79.8188 58.1159 77.6902 60.0765 76.103 62.6918C75.3153 63.9896 75.1178 64.0581 73.7046 63.4541C71.4509 62.4924 69.6409 62.9087 68.5717 64.6796C68.4193 64.9318 68.39 65.3149 68.431 65.6198C68.5483 66.4623 68.7848 67.2891 68.8767 68.1335C68.9939 69.1968 68.519 69.6737 67.4595 69.6874C67.0452 69.6933 66.6288 69.6679 66.2164 69.6913C64.9967 69.7637 63.8806 69.5506 62.874 68.3407C62.2543 70.0901 61.6992 71.6538 61.15 73.2195C61.0776 73.4247 61.0542 73.6475 60.9975 73.8586C60.7923 74.6053 60.2293 75.0646 59.5335 75.0588C58.8357 75.0529 58.259 74.6034 58.089 73.841C57.6766 71.9998 57.055 70.2425 56.0914 68.5166C54.7544 70.1174 52.9385 69.6483 51.2458 69.662C50.5851 69.6679 50.1297 69.1147 50.202 68.413C50.2978 67.4728 50.5343 66.5463 50.6574 65.6081C50.6965 65.3032 50.6594 64.9259 50.5069 64.6699C49.6664 63.2645 48.3822 62.7054 46.7697 63.0514C46.1579 63.1824 45.5617 63.4189 44.9773 63.6534C44.1837 63.9721 43.7165 63.8352 43.2337 63.1198C42.6903 62.3126 42.188 61.4662 41.5547 60.7332C38.4566 57.1406 33.869 56.0147 29.1056 57.6273C28.8515 57.7133 28.6032 57.8169 28.3472 57.8931C27.5438 58.1335 26.8186 57.6898 26.7815 56.8611C26.5 50.5828 24.4203 44.756 22.3288 38.9292C21.8988 37.731 22.0454 37.3361 23.2123 36.8182C29.7076 33.9292 36.2068 31.052 42.6962 28.1474C43.3784 27.8424 44.0273 27.4417 44.6371 27.0078C45.8686 26.1321 47.0589 25.2017 48.2728 24.3006C48.7341 23.9566 49.2306 23.9273 49.6938 24.2772C50.1512 24.6232 50.2861 25.0962 50.0867 25.6435C49.4162 27.4984 48.7556 29.3553 48.0695 31.2025C47.8017 31.9218 47.1919 32.2208 46.5703 32C45.9038 31.7635 45.634 31.1517 45.8823 30.3933C46.0621 29.842 46.2673 29.2987 46.4882 28.6732C45.7865 28.9546 45.4561 29.3143 45.505 30.0825C45.722 33.5617 46.1579 36.9765 47.9757 40.0511C48.8201 41.48 49.903 42.6743 51.4217 43.462C51.6895 43.0593 51.9456 42.6743 52.2329 42.2442C50.8783 41.2767 50.0105 40.0003 49.6997 38.3701C49.3478 36.5171 49.6606 34.7306 50.2724 32.9851C50.5011 32.3342 51.0484 32.129 51.6973 32.2658C54.3107 32.817 56.3904 34.1305 57.6433 36.5562C57.8583 36.9745 58.0655 37.0703 58.5405 37.0117C59.2305 36.9257 59.9459 36.9648 60.6437 37.0273C61.0131 37.0605 61.2047 37.0156 61.3826 36.6598C62.6081 34.2204 64.6605 32.8717 67.27 32.2912C68.0518 32.1172 68.5932 32.342 68.8239 33.0105C69.4611 34.8557 69.7797 36.7458 69.3184 38.6848C68.9666 40.1645 68.1339 41.3393 66.8497 42.2384C67.1194 42.6469 67.3696 43.03 67.6492 43.4522C68.6968 42.9694 69.5041 42.2149 70.2078 41.3451C71.8829 39.2771 72.6921 36.8377 73.1202 34.2634C73.3469 32.8972 73.386 31.4996 73.5737 30.1255C73.6812 29.3456 73.3137 28.9605 72.5964 28.6517C72.7645 29.1462 72.9247 29.5704 73.0557 30.0043C73.2551 30.665 72.9658 31.2826 72.3735 31.4957C71.7676 31.7165 71.1284 31.4605 70.8802 30.8076C70.2234 29.0778 69.6038 27.3362 68.9803 25.5946C68.7946 25.0766 68.9431 24.6232 69.3712 24.2909C69.8305 23.9332 70.3251 23.9508 70.7922 24.2889C71.3258 24.674 71.8673 25.0512 72.3696 25.4754C74.3067 27.1075 76.5056 28.2627 78.8219 29.2674C84.4943 31.7283 90.1334 34.2654 95.7765 36.7928C96.2221 36.9921 96.5935 37.3576 97.0001 37.6469C97.0001 37.9362 97.0001 38.2275 97.0001 38.5207ZM47.7743 43.894C47.8174 44.0953 47.8662 44.3807 47.9405 44.6582C48.6324 47.2657 50.247 49.1344 52.614 50.3521C54.168 51.1516 54.9088 52.3576 54.8717 54.1089C54.8306 56.0088 54.8795 57.9107 54.8502 59.8126C54.8423 60.2856 54.7329 60.7743 54.5843 61.2277C53.9295 63.2352 53.2415 65.2328 52.5574 67.2598C53.9862 67.4591 54.1133 67.3946 54.6606 66.302C55.1179 65.3872 55.591 64.4803 56.0249 63.5557C56.3181 62.9322 56.7598 62.6429 57.4596 62.6546C58.8493 62.68 60.2391 62.68 61.6269 62.6546C62.3267 62.6409 62.7665 62.9341 63.0597 63.5577C63.4936 64.4822 63.9686 65.3892 64.4259 66.3039C64.9693 67.3907 65.114 67.463 66.4197 67.2676C66.234 66.5835 66.1343 65.8681 65.8509 65.2328C64.3008 61.7653 64.0604 58.1316 64.1855 54.3924C64.25 52.4436 64.9127 51.1164 66.664 50.2329C68.6988 49.2067 70.1296 47.5746 70.9134 45.4205C71.103 44.8987 71.2027 44.3455 71.3219 43.8881C70.1804 44.5703 69.0565 45.2309 67.9463 45.9131C67.7821 46.0128 67.6198 46.2004 67.5651 46.3803C66.9338 48.4405 65.5186 49.7071 63.5268 50.3717C61.4217 51.0714 59.2579 51.1222 57.096 50.7567C54.4338 50.3052 52.3228 49.0914 51.496 46.2943C51.4549 46.1555 51.3181 46.0148 51.1891 45.9366C50.0574 45.2505 48.9139 44.5761 47.7743 43.894ZM24.7526 38.6985C26.4414 43.2685 27.8702 47.8599 28.7049 52.469C33.4605 45.1997 38.2318 37.9049 43.0207 30.5809C36.9613 33.2744 30.8862 35.9738 24.7526 38.6985ZM94.3359 38.7005C88.1983 35.9718 82.1233 33.2724 76.0658 30.5809C80.8625 37.9147 85.6397 45.2212 90.3856 52.4788C91.2124 47.858 92.6373 43.2958 94.3359 38.7005ZM88.8199 54.9221C85.2233 48.5187 81.2281 42.5101 77.0842 36.5836C77.8797 43.7806 77.4771 50.9268 76.6249 58.2489C80.1862 54.9924 84.2245 54.1226 88.8199 54.9221ZM41.9964 36.5895C37.8526 42.5277 33.8514 48.5206 30.2529 54.9455C32.5379 54.4999 34.6646 54.5272 36.7756 55.055C38.8905 55.5847 40.7181 56.65 42.4636 58.2625C41.6035 50.9229 41.2028 43.7747 41.9964 36.5895ZM51.7481 62.4005C52.0355 61.3646 52.4362 60.4987 52.4889 59.6112C52.5965 57.7407 52.5026 55.8583 52.5319 53.9819C52.5437 53.2528 52.2446 52.7993 51.6172 52.4709C47.1743 50.1566 45.1629 46.3764 45.288 41.4858C45.3232 40.1274 44.8228 39.0582 44.3596 37.8971C43.5347 45.6199 44.1153 53.2821 45.2353 60.9893C47.6258 60.311 49.772 60.4889 51.7481 62.4005ZM73.7926 60.9736C75.0201 55.829 75.6006 41.007 74.639 37.8776C74.3145 38.7982 73.7691 39.7599 73.8415 40.6727C74.2363 45.7743 72.01 50.0413 67.4811 52.4748C66.8536 52.813 66.5467 53.2469 66.5585 53.978C66.5878 55.8544 66.49 57.7367 66.6015 59.6073C66.6542 60.5065 67.0667 61.3841 67.352 62.3947C69.3067 60.483 71.4548 60.3169 73.7926 60.9736ZM59.2774 48.7317C60.4541 48.5656 61.4178 48.5343 62.3169 48.2724C63.0636 48.0554 63.8181 47.6703 64.4162 47.1758C65.2958 46.4487 65.8313 45.2583 65.3094 44.3025C64.508 42.8346 63.431 41.4468 62.2172 40.2916C60.6163 38.7689 58.5034 38.7924 56.8654 40.2818C55.8216 41.2298 55.0652 42.4905 54.1484 43.5851C53.4721 44.3924 53.5718 45.2427 53.9178 46.1144C54.3009 47.08 55.0358 47.7407 56.0034 48.0222C57.1371 48.3525 58.3138 48.5304 59.2774 48.7317ZM53.5093 40.2212C54.2051 39.5586 54.8638 38.9468 55.5011 38.3115C55.6086 38.204 55.7122 37.9558 55.6613 37.8424C54.9694 36.3197 53.7771 35.3737 52.2114 34.8205C51.4901 37.2091 51.9944 39.2106 53.5093 40.2212ZM65.6339 40.1704C67.0901 39.2634 67.6765 36.8846 66.8302 34.8303C65.2058 35.4284 63.9901 36.437 63.4095 37.8424C64.2129 38.6848 64.9146 39.4198 65.6339 40.1704ZM59.5491 70.1644C60.1492 68.9916 60.7121 67.7875 61.3787 66.644C61.6601 66.1593 61.5702 65.8329 61.3689 65.3853C61.1578 64.9201 60.8099 65.008 60.46 65.0041C59.7798 64.9982 59.1015 64.9963 58.4213 65.0041C57.786 65.0119 57.2817 65.8211 57.5671 66.3724C58.2239 67.639 58.8884 68.8997 59.5491 70.1644Z" fill="black"/>
<path d="M59.553 46.2689C59.1386 46.2689 58.7223 46.2963 58.3099 46.263C57.6609 46.2103 57.2133 45.7236 57.2075 45.1137C57.2016 44.5039 57.6453 43.9839 58.2903 43.9527C59.1171 43.9116 59.9479 43.9136 60.7766 43.9507C61.4275 43.98 61.8732 44.4843 61.879 45.0961C61.8849 45.706 61.4393 46.1888 60.7962 46.2689C60.7473 46.2748 60.6984 46.2748 60.6496 46.2748C60.2841 46.2748 59.9185 46.2748 59.553 46.2748C59.553 46.2728 59.553 46.2709 59.553 46.2689Z" fill="black"/>
<path d="M57.1958 43.9604C57.1821 44.5937 56.6367 45.1156 56.0054 45.0999C55.3701 45.0843 54.8521 44.5429 54.8678 43.9096C54.8815 43.2723 55.4229 42.7563 56.0562 42.772C56.6915 42.7837 57.2114 43.3251 57.1958 43.9604Z" fill="black"/>
<path d="M63.042 45.1C62.4067 45.0922 61.8829 44.5586 61.8907 43.9233C61.8985 43.2861 62.4302 42.7642 63.0655 42.7701C63.7007 42.7779 64.2246 43.3115 64.2187 43.9468C64.2128 44.5801 63.6753 45.1059 63.042 45.1Z" fill="black"/>
</svg>
