<svg width="120" height="100" viewBox="0 0 120 100" fill="none" xmlns="http://www.w3.org/2000/svg">
<rect width="120" height="100" fill="white"/>
<path d="M60.3485 86.999C48.0431 86.8324 38.3036 81.683 30.9216 71.9413C26.178 65.68 23.077 58.6292 21.1361 51.0368C20.7764 49.6332 21.215 48.3151 21.4694 46.9883C22.9059 39.477 25.2964 32.3166 29.5137 25.8733C32.7594 20.9125 36.8781 16.9057 42.4397 14.6183C43.8718 14.0284 45.3829 13.5942 46.8917 13.2389C49.5826 12.6073 52.0433 13.252 54.2451 14.8903C55.2759 15.6579 56.2518 16.5022 57.2891 17.2632C59.5129 18.8949 61.1402 18.8532 63.3157 17.1448C64.5 16.2149 65.6273 15.2105 66.851 14.3398C68.6669 13.0503 70.667 12.7213 72.8535 13.3134C79.7113 15.1688 85.0471 19.215 89.3236 24.7701C93.8874 30.6981 96.7099 37.4637 98.6069 44.6483C98.949 45.9444 99.164 47.2734 99.5017 48.5695C99.7649 49.5827 99.721 50.5455 99.4513 51.5543C97.1047 60.3047 93.3172 68.3051 87.1985 75.0664C81.4855 81.3803 74.4413 85.295 65.9804 86.499C64.1184 86.7644 62.2258 86.8389 60.3485 86.999ZM59.048 68.4367C59.048 68.0727 59.048 67.7744 59.048 67.4783C59.048 63.9146 59.0414 60.3486 59.0568 56.7848C59.059 56.3221 58.9734 56.0041 58.4931 55.844C56.1948 55.072 53.9447 54.0873 51.5937 53.5457C46.0057 52.2561 40.4418 52.7693 34.9854 54.3966C32.9086 55.0172 30.8931 55.8484 28.779 56.6094C28.9435 56.8748 28.9895 56.9734 29.0575 57.0524C33.8867 62.6492 39.4155 67.3599 46.168 70.4873C54.4447 74.3208 62.9078 74.834 71.5223 71.7395C77.8691 69.4587 83.2158 65.6076 87.9968 60.9232C89.317 59.6293 90.5517 58.2498 91.8917 56.8397C91.5583 56.6664 91.3741 56.5568 91.1811 56.4734C86.5252 54.458 81.6851 53.1662 76.6081 52.8965C71.6319 52.6311 66.8642 53.4777 62.3705 55.7168C61.8201 55.9909 61.6534 56.3111 61.6578 56.9098C61.6885 60.035 61.6731 63.1623 61.6731 66.2875C61.6731 66.9937 61.6731 67.6976 61.6731 68.4389C60.7827 68.4367 59.9713 68.4367 59.048 68.4367ZM39.3036 40.3805C38.0272 41.7512 36.4636 42.2183 34.6762 42.1569C33.2551 42.1087 31.8318 42.1284 30.4085 42.1613C30.119 42.1679 29.7264 42.2841 29.5641 42.4925C27.7132 44.8654 25.8907 47.2603 24.0814 49.6661C23.9652 49.8218 23.9125 50.1749 24.0068 50.3174C24.9981 51.7846 26.0245 53.2277 26.9039 54.4821C29.79 53.4755 32.448 52.3723 35.2047 51.6201C43.6196 49.3218 51.8634 49.7121 59.8287 53.5391C60.1248 53.6816 60.6007 53.6071 60.9362 53.4842C62.9583 52.7452 64.9145 51.778 66.9826 51.2254C73.6825 49.4358 80.3275 50.1113 86.8695 52.1114C89.1569 52.811 91.3763 53.7277 93.7229 54.5786C94.655 53.2605 95.6221 51.8679 96.6222 50.4995C96.9182 50.0937 96.7823 49.8108 96.5301 49.4819C94.894 47.3217 93.2492 45.1681 91.6439 42.9881C91.157 42.328 90.5912 42.0692 89.7732 42.1284C88.8214 42.1986 87.8564 42.1043 86.9024 42.1526C84.8256 42.2556 82.8627 42.0297 81.3473 40.3301C79.8933 41.999 78.0599 42.1547 76.1102 42.1701C74.1255 42.1876 72.2943 41.9376 70.8622 40.3301C69.395 41.9815 67.5462 42.1635 65.5659 42.1745C63.5789 42.1833 61.7587 41.9201 60.3485 40.3213C58.8813 41.9815 57.0545 42.1613 55.1026 42.1723C53.1179 42.1833 51.2823 41.953 49.9006 40.3827C46.6856 42.9201 42.4178 42.9201 39.3036 40.3805ZM24.8599 43.7075C24.9082 43.7294 24.9564 43.7491 25.0047 43.7711C25.1779 43.5693 25.3578 43.3719 25.5266 43.1658C30.551 36.9396 36.3408 31.606 43.5187 27.9567C53.7495 22.7547 64.1886 22.2459 74.7812 26.8163C82.65 30.2112 88.9157 35.6808 94.3786 42.1723C94.7186 42.5758 95.0497 42.9881 95.4598 43.4881C95.4598 43.2557 95.4796 43.1702 95.4576 43.0978C93.6286 37.1106 91.1285 31.4481 87.3235 26.4347C83.4724 21.3621 78.652 17.6777 72.4478 15.9232C70.7679 15.4473 69.3138 15.7061 67.9717 16.7412C66.976 17.511 66.0725 18.4124 65.0285 19.1054C63.9715 19.8072 62.853 20.5309 61.6556 20.8818C59.2958 21.5726 57.2694 20.5594 55.4184 19.1558C54.3285 18.329 53.2846 17.4386 52.1617 16.6601C50.8217 15.7324 49.3151 15.4539 47.701 15.7631C41.7928 16.897 37.2334 20.1537 33.5643 24.7921C29.8229 29.5226 27.4609 34.9483 25.7131 40.6722C25.406 41.6789 25.1429 42.6964 24.8599 43.7075ZM94.7712 57.7783C94.5782 57.8397 94.5168 57.8419 94.4883 57.8726C94.2865 58.0963 94.0892 58.3244 93.894 58.5525C89.7951 63.3553 85.2006 67.5946 79.731 70.7921C68.2019 77.5293 56.3615 78.3188 44.2425 72.4764C37.4746 69.2131 31.9261 64.3861 27.0399 58.7433C26.7065 58.3595 26.382 57.9691 26.053 57.5831C26.0442 57.8967 26.1232 58.1511 26.2197 58.3968C27.5684 61.7895 29.2176 65.0309 31.2331 68.0771C34.7376 73.3712 39.0865 77.7639 44.7929 80.6807C50.7099 83.7072 57.0062 84.6568 63.5745 84.1305C70.1867 83.6019 76.1322 81.3606 81.321 77.1915C86.7335 72.8448 90.5079 67.2612 93.3852 61.0109C93.8567 59.9736 94.2822 58.9165 94.7712 57.7783ZM59.037 26.4193C56.2957 26.5487 53.7034 26.9435 51.1682 27.7374C51.1682 30.8625 51.1485 33.9022 51.177 36.9396C51.1902 38.341 52.2823 39.4419 53.6684 39.4989C54.6223 39.5406 55.5829 39.5384 56.5369 39.4989C57.8615 39.4463 58.9998 38.4177 59.0195 37.1085C59.0721 33.5842 59.037 30.0533 59.037 26.4193ZM61.6863 26.2461C61.6863 30.0621 61.6534 33.5907 61.7038 37.1194C61.7214 38.387 62.8377 39.4287 64.114 39.4945C65.0943 39.545 66.0834 39.5384 67.0637 39.4989C68.3511 39.4463 69.4959 38.4462 69.52 37.1764C69.5836 34.0316 69.5419 30.8845 69.5419 27.5488C66.9519 27.1211 64.3816 26.6935 61.6863 26.2461ZM72.1912 28.5554C72.1912 31.5073 72.1561 34.2947 72.2065 37.0821C72.2307 38.4177 73.3798 39.4573 74.7417 39.5055C75.6146 39.5362 76.4896 39.5252 77.3625 39.5099C78.9415 39.4814 80.0337 38.398 80.06 36.819C80.0797 35.615 80.0929 34.411 80.0424 33.2091C80.0315 32.9219 79.8209 32.5315 79.5841 32.3845C78.3779 31.6389 77.1541 30.9196 75.8953 30.2682C74.7198 29.6607 73.4917 29.1519 72.1912 28.5554ZM48.5256 28.6278C45.7952 29.6476 43.2907 30.9481 40.9265 32.5183C40.7708 32.6214 40.6743 32.9218 40.6721 33.1346C40.6502 34.3934 40.6392 35.6522 40.6677 36.9089C40.7006 38.3497 41.7818 39.4507 43.2095 39.5033C44.1372 39.5362 45.0671 39.5362 45.9925 39.5033C47.3216 39.4573 48.4773 38.455 48.508 37.1545C48.5716 34.3452 48.5256 31.5314 48.5256 28.6278ZM88.17 39.4967C88.2095 39.4244 88.249 39.352 88.2884 39.2796C86.4791 37.705 84.6698 36.1281 82.6983 34.411C82.6983 35.4746 82.6697 36.24 82.7048 37.0032C82.7619 38.2839 83.7466 39.3849 85.0076 39.4792C86.0559 39.5603 87.1151 39.4967 88.17 39.4967ZM32.4458 39.3037C32.4831 39.3651 32.5182 39.4265 32.5555 39.488C33.6367 39.488 34.7267 39.5735 35.7969 39.4638C36.8539 39.3542 37.6676 38.6984 37.8781 37.6392C38.0689 36.683 38.0163 35.6764 38.0711 34.6917C37.9878 34.6588 37.9044 34.6281 37.8189 34.5952C36.0272 36.1632 34.2354 37.7335 32.4458 39.3037Z" fill="black"/>
</svg>
