<svg width="120" height="100" viewBox="0 0 120 100" fill="none" xmlns="http://www.w3.org/2000/svg">
<rect width="120" height="100" fill="white"/>
<path d="M22 16.879C22.3787 16.1924 22.9803 16 23.7357 16C33.9092 16.0122 49.0807 16.0061 59.2541 16.0142C59.5701 16.0142 59.9853 15.9818 60.1817 16.158C60.5159 16.4577 60.8623 16.8891 60.9251 17.3064C61 17.8066 60.6395 18.2522 60.0825 18.3677C59.724 18.4406 59.3473 18.4548 58.9766 18.4548C49.4716 18.4588 34.9685 18.4588 25.4634 18.4588C25.1474 18.4588 24.8295 18.4588 24.4163 18.4588C24.4163 18.7788 24.4163 19.0178 24.4163 19.2568C24.4163 38.6619 24.4142 58.0671 24.4183 77.4722C24.4183 79.532 25.3986 80.9518 27.1424 81.4035C27.59 81.5189 28.0721 81.5371 28.5379 81.5371C40.8887 81.5432 53.2394 81.5452 65.5902 81.5412C68.2859 81.5412 69.7077 80.1153 69.7158 77.4256C69.7199 75.9167 69.7158 74.4058 69.7179 72.8969C69.7199 71.3698 70.05 71.0923 71.6055 71.0356C73.8517 70.9525 76.1201 70.9707 78.3318 70.6345C82.7471 69.9641 86.4941 67.8577 89.6071 64.6759C92.9712 61.2368 94.9581 57.0888 95.4685 52.311C96.0275 47.1017 94.8224 42.2752 91.7945 37.9774C88.6754 33.5499 84.4444 30.7225 79.1581 29.4931C76.8249 28.9503 74.4492 28.9543 72.0734 28.9584C69.8536 28.9624 69.7158 28.8227 69.7158 26.6109C69.7158 23.9395 69.7158 21.268 69.7158 18.4608C69.3918 18.4608 69.1103 18.4608 68.8267 18.4608C65.9547 18.4608 63.0848 18.4629 60.2128 18.4608C59.0158 18.4608 58.4264 18.0679 58.4061 17.2679C58.3839 16.4517 59.0198 16.0142 60.233 16.0142C63.5992 16.0122 66.9654 16.0122 70.3316 16.0142C71.7939 16.0142 72.1605 16.3889 72.1625 17.8755C72.1645 20.4741 72.1625 23.0726 72.1625 25.6732C72.1625 25.9385 72.1625 26.2038 72.1625 26.5704C80.3592 26.1532 87.284 28.7518 92.5925 35.0345C96.2726 39.3911 98.0934 44.5153 98.0104 50.2147C97.9091 57.0665 95.2842 62.8551 90.1843 67.4587C85.0925 72.0543 79.0083 73.784 72.1645 73.4356C72.1645 74.8271 72.2435 76.1355 72.1402 77.4297C72.0552 78.4727 71.9316 79.5806 71.5043 80.5123C70.4187 82.8779 68.3973 83.9797 65.8393 83.9838C53.3407 84.0061 40.8401 84.0041 28.3415 83.9858C25.0603 83.9818 22.7656 82.0475 22.1033 78.8576C22.0891 78.7907 22.0365 78.73 22.002 78.6672C22 58.0671 22 37.473 22 16.879Z" fill="black"/>
<path d="M69.7159 50.0037C69.7159 44.9565 69.7159 39.9113 69.7159 34.864C69.7159 33.3612 70.05 33.0209 71.5387 33.023C74.1069 33.027 76.667 32.9743 79.1966 33.6468C85.3376 35.2813 90.4962 41.0536 91.3469 47.3687C92.4041 55.213 88.6491 62.1398 81.4975 65.4857C79.5997 66.3748 77.5865 66.865 75.4841 66.9278C74.1251 66.9683 72.7641 66.9683 71.403 66.9703C70.1088 66.9723 69.7199 66.5835 69.7179 65.2933C69.7118 61.8785 69.7159 58.4657 69.7159 55.051C69.7159 53.3679 69.7159 51.6868 69.7159 50.0037ZM72.203 64.471C78.3257 65.1151 83.9421 62.7271 87.207 57.2262C90.1539 52.262 89.7266 45.7869 85.9958 41.009C82.3988 36.4013 77.0903 34.9329 72.203 35.5587C72.203 45.1975 72.203 54.8363 72.203 64.471Z" fill="black"/>
</svg>
