<svg width="120" height="100" viewBox="0 0 120 100" fill="none" xmlns="http://www.w3.org/2000/svg">
<rect width="120" height="100" fill="white"/>
<path d="M79.2808 55.9287C79.9555 58.2726 80.6044 60.4895 81.2321 62.7088C82.0455 65.5817 83.0094 68.4264 83.6183 71.3439C85.3721 79.765 78.2628 88.4471 69.6677 88.4941C64.6226 88.5223 59.5774 88.527 54.5322 88.4941C44.7875 88.4307 37.8804 79.3278 40.4477 69.9075C41.649 65.4994 42.9608 61.1219 44.2209 56.7304C44.2774 56.5376 44.3197 56.3401 44.402 56.011C43.4969 56.058 42.667 56.105 41.8371 56.1473C37.4149 56.373 33.0398 56.1403 28.8198 54.6615C27.776 54.2948 26.7533 53.8152 25.8106 53.2392C22.2607 51.0669 20.8242 47.8085 21.017 43.7178C21.1275 41.3645 22.0491 39.2769 23.0294 37.2151C28.0205 26.6969 35.5271 18.7036 46.6377 14.6976C62.0059 9.15405 75.7496 12.2409 87.7842 23.1611C91.4517 26.49 94.5667 30.3244 97.0751 34.5914C99.0429 37.9368 100.007 41.5831 99.6612 45.5351C99.2686 50.0137 95.4553 55.3433 89.4651 55.9193C86.296 56.2249 83.1457 56.2649 79.9837 55.971C79.8121 55.9522 79.6381 55.9498 79.2808 55.9287ZM76.0482 44.7358C76.8428 47.4841 77.5599 50.0184 78.3333 52.5339C78.4039 52.7666 78.8247 53.0323 79.0903 53.0417C81.9867 53.1381 84.8925 53.3238 87.7818 53.1945C89.3499 53.1263 91.0802 52.8278 92.4085 52.0614C95.4342 50.3146 96.9317 47.4535 96.967 43.9388C96.9976 40.8567 95.9232 38.0614 94.3175 35.4942C91.628 31.1943 88.4307 27.2964 84.5352 24.0286C76.3679 17.1802 67.1028 13.6326 56.3307 15.2219C40.3043 17.5869 29.8919 26.8826 24.219 41.7877C22.7826 45.561 24.4047 49.3836 27.9711 51.2644C28.6412 51.617 29.3464 51.9368 30.0705 52.1507C34.9347 53.5895 39.8952 53.6177 44.8863 53.0793C45.0649 53.0605 45.3283 52.8701 45.3776 52.7079C46.1111 50.2441 46.8164 47.7732 47.524 45.3118C47.4065 45.26 47.3524 45.213 47.3007 45.2177C45.5469 45.3494 43.7931 45.4787 42.0416 45.6268C40.9602 45.7185 40.2361 45.2695 40.1373 44.4067C40.0362 43.5274 40.6099 42.9279 41.7172 42.8339C51.2762 42.0251 60.8493 41.4115 70.4435 41.7125C74.4143 41.837 78.3709 42.4342 82.33 42.8644C83.2233 42.9608 83.7147 43.7084 83.576 44.4725C83.4279 45.2906 82.7155 45.7114 81.7869 45.5704C79.939 45.293 78.0888 45.032 76.0482 44.7358ZM61.792 44.6112C61.792 44.5689 61.792 44.5265 61.7896 44.4842C58.275 44.6488 54.7626 44.8251 51.2456 44.9615C50.719 44.9826 50.4886 45.1519 50.3452 45.6527C47.9613 53.9539 45.5116 62.2363 43.1818 70.5516C41.0378 78.2016 46.7036 85.6307 54.6404 85.68C59.4481 85.7106 64.2582 85.7083 69.0659 85.68C77.0144 85.6354 82.6873 78.2463 80.555 70.5775C78.2017 62.1164 75.6909 53.6976 73.2717 45.2553C73.133 44.7687 72.9261 44.5994 72.4324 44.6018C68.8848 44.6182 65.3372 44.6112 61.792 44.6112Z" fill="black"/>
<path d="M60.9362 21.2731C51.8874 21.6163 43.9882 24.9711 37.603 31.7278C35.6611 33.7849 34.046 36.0818 32.7201 38.5785C32.6378 38.7336 32.5625 38.8935 32.4709 39.0416C32.0124 39.7892 31.3071 40.0408 30.6089 39.7093C29.8801 39.3637 29.5721 38.5644 29.9718 37.7791C30.5149 36.7118 31.072 35.6351 31.7538 34.6547C37.2456 26.732 44.5383 21.3859 54.0197 19.2136C57.0713 18.5154 60.1698 18.3979 63.2848 18.5977C64.1782 18.6541 64.7706 19.263 64.7542 20.0365C64.7377 20.8593 64.0936 21.4118 63.1461 21.4C62.7958 21.3953 62.4432 21.3554 62.0929 21.3342C61.7708 21.313 61.4487 21.2989 60.9362 21.2731Z" fill="black"/>
</svg>
