<svg width="120" height="100" viewBox="0 0 120 100" fill="none" xmlns="http://www.w3.org/2000/svg">
<rect width="120" height="100" fill="white"/>
<path d="M62.1976 14.0021C63.5051 14.2347 64.831 14.3891 66.1138 14.7124C69.894 15.6616 73.0566 17.5352 74.9261 21.1055C75.4409 22.0876 75.688 23.2077 76.0853 24.2536C76.2377 24.6531 76.388 25.1019 76.6763 25.3964C79.8224 28.6063 81.9493 32.3804 82.8634 36.7763C83.2238 38.5058 83.4235 40.3033 83.4276 42.0699C83.4729 56.0152 83.4502 69.9606 83.4585 83.908C83.4585 84.7378 83.2999 85.4605 82.4846 85.8455C81.5334 86.2943 80.4215 85.7014 80.23 84.6472C80.1724 84.328 80.1847 83.9945 80.1847 83.6671C80.1827 69.8618 80.1786 56.0564 80.1847 42.251C80.1868 38.0384 79.11 34.1552 76.7504 30.6467C76.6763 30.5355 76.5898 30.4347 76.3901 30.167C76.3901 30.587 76.3901 30.83 76.3901 31.075C76.3901 36.278 76.4004 41.481 76.388 46.684C76.3736 52.5973 73.9914 57.3021 69.0725 60.6191C65.5352 63.0033 61.5902 63.7858 57.4044 63.0198C49.5226 61.5806 44.1034 54.9919 44.0746 46.8961C44.0561 41.6457 44.0705 36.3954 44.0705 31.145C44.0705 30.8876 44.0705 30.6323 44.0705 30.3749C44.0149 30.3461 43.9593 30.3194 43.9037 30.2905C43.391 31.1759 42.8331 32.0386 42.3739 32.9507C40.9018 35.8703 40.2738 38.9876 40.2758 42.249C40.282 56.0543 40.2779 69.8597 40.2758 83.6651C40.2758 83.9924 40.2841 84.326 40.2305 84.6451C40.0988 85.4214 39.4172 85.9896 38.6575 85.9999C37.8771 86.0082 37.1709 85.4111 37.0474 84.606C37.0041 84.3301 37.0103 84.046 37.0103 83.7639C37.0041 69.9112 37.0124 56.0585 37 42.2078C36.9938 36.3789 38.7728 31.1759 42.5757 26.7676C43.6628 25.5076 44.3485 24.2042 44.8694 22.6456C46.1768 18.7336 49.1088 16.3781 52.9343 15.1427C54.5012 14.6383 56.1731 14.4571 57.7976 14.1256C57.9541 14.0947 58.1044 14.0432 58.2588 14C59.5724 14.0021 60.884 14.0021 62.1976 14.0021ZM49.1973 53.6927C52.3702 50.8019 56.0331 49.2865 60.2745 49.2948C64.5016 49.303 68.1418 50.8534 71.2756 53.6948C72.3154 51.8541 73.0051 49.9886 73.0195 47.9585C73.0669 41.0466 73.0834 34.1346 73.0772 27.2206C73.0731 22.1494 70.2688 19.2957 65.9038 18.0603C62.315 17.0431 58.6912 17.0514 55.0695 17.9162C53.2679 18.3465 51.6125 19.0877 50.2124 20.3231C48.0422 22.2379 47.3648 24.7457 47.369 27.5253C47.3751 33.9452 47.371 40.3671 47.371 46.7869C47.369 49.2248 47.8878 51.5205 49.1973 53.6927ZM69.1693 56.2829C63.7995 50.9481 55.543 51.7552 51.3139 56.3138C56.031 61.245 64.4913 61.1976 69.1693 56.2829Z" fill="black"/>
</svg>
