<svg width="120" height="100" viewBox="0 0 120 100" fill="none" xmlns="http://www.w3.org/2000/svg">
<rect width="120" height="100" fill="white"/>
<path d="M94.2099 33.0154C94.2099 34.0991 94.2099 35.1827 94.2099 36.2663C94.033 37.7383 93.9047 39.2174 93.6717 40.6803C92.2468 49.6781 88.371 57.4749 82.0425 64.0056C80.2473 65.8586 78.2191 67.4858 76.3029 69.2124C76.7436 69.4815 77.3107 69.794 77.8435 70.1588C79.0969 71.0203 79.7976 72.1635 79.7181 73.7511C79.6603 74.8979 79.6802 76.052 79.7145 77.2024C79.7525 78.4775 79.2811 79.5214 78.2841 80.2601C77.4949 80.8453 76.6406 81.378 75.7466 81.7754C72.8587 83.0595 69.7758 83.585 66.6621 83.9481C65.257 84.1124 63.8465 84.2208 62.4396 84.3526C60.5468 84.3526 58.6541 84.3526 56.7613 84.3526C56.5193 84.3147 56.2791 84.2569 56.0353 84.2442C52.6796 84.0582 49.3583 83.641 46.1146 82.7272C44.2652 82.2052 42.4736 81.5496 40.9565 80.3143C39.9704 79.5124 39.4485 78.501 39.4864 77.1988C39.5207 76.0718 39.546 74.9394 39.481 73.8143C39.3816 72.1075 40.1709 70.9246 41.5254 70.0378C42.0095 69.7217 42.5206 69.4454 43.0516 69.133C42.8908 69.0047 42.7716 68.9018 42.647 68.8097C37.0735 64.7298 32.7281 59.597 29.6127 53.4311C26.5442 47.3519 25.009 40.8916 25 34.0792C24.9946 29.7374 28.2888 26.3493 32.6288 26.2138C34.3843 26.1596 36.1416 26.1994 37.8989 26.1976C39.4756 26.1958 41.0522 26.2138 42.6289 26.1921C44.8341 26.1614 46.2013 24.7672 46.2122 22.5728C46.2158 21.6698 46.2519 20.7649 46.2031 19.8655C46.1417 18.7512 46.6203 17.9403 47.5107 17.3641C48.0363 17.0246 48.5943 16.6778 49.1867 16.5135C50.6984 16.0909 52.2281 15.7188 53.7687 15.419C54.8885 15.2023 56.0353 15.1336 57.1713 15C58.7932 15 60.415 15 62.0386 15C63.4853 15.1806 64.9374 15.3215 66.375 15.5527C68.1774 15.8416 69.9546 16.2534 71.5313 17.2413C72.5156 17.8572 73.0881 18.697 73.0068 19.9287C72.9526 20.7595 72.996 21.5975 72.996 22.4319C72.9996 24.8376 74.3505 26.1903 76.7707 26.1976C80.101 26.2084 83.4332 26.165 86.7636 26.2319C89.209 26.2806 91.1469 27.413 92.6477 29.3329C93.4966 30.4219 93.883 31.7042 94.2099 33.0154ZM48.4751 49.5463C47.0935 49.8515 45.8004 49.633 44.6463 48.7733C43.4669 47.8955 42.9414 46.6656 42.8186 45.2262C41.3665 45.116 40.1709 44.5724 39.3004 43.4201C38.419 42.2534 38.2258 40.9314 38.5147 39.5407C35.3632 38.6124 33.9472 35.1628 36.0422 32.2334C34.6949 31.3448 34.005 30.0607 33.9003 28.475C30.066 28.0054 27.1077 30.608 27.2612 34.3934C27.3533 36.6637 27.4454 38.9682 27.8915 41.186C30.7342 55.3257 38.7098 65.4613 51.8091 71.4917C55.0564 72.9871 58.4807 73.4224 62.0296 72.9997C65.3437 72.606 68.3291 71.2984 71.1394 69.617C84.4627 61.6451 91.425 49.8677 91.956 34.3176C92.0824 30.5935 89.0482 27.9639 85.3061 28.4786C85.1941 30.0679 84.4988 31.3502 83.1316 32.2569C84.1231 33.5771 84.4392 35.0057 83.9226 36.5571C83.3989 38.1302 82.2358 39.0585 80.7024 39.5299C81.2732 42.3473 79.6369 44.9192 76.4185 45.2569C76.0555 48.3904 73.6733 50.1369 70.7023 49.5842C69.8643 52.4324 66.8879 54.0018 63.8447 52.3565C63.5648 52.8315 63.283 53.3047 63.0013 53.7833C66.1203 55.5081 67.5327 58.1467 67.4351 61.6541C67.3936 63.1874 67.4369 64.7244 67.4261 66.2577C67.4153 67.7604 66.5285 68.6724 65.0331 68.6796C61.4065 68.6941 57.78 68.6959 54.1534 68.6796C52.6941 68.6724 51.7947 67.7586 51.7838 66.3047C51.7694 64.477 51.7405 62.6474 51.7911 60.8197C51.8723 57.8343 53.2305 55.5731 55.7861 54.0325C55.9306 53.9458 56.0732 53.8555 56.2069 53.7724C55.9035 53.2631 55.6307 52.8026 55.3562 52.342C52.8061 53.8248 49.5606 52.8947 48.4751 49.5463ZM51.6972 44.1967C54.4171 43.868 55.5025 44.4261 57.1533 46.9726C59.512 46.0841 59.7052 46.0841 62.0838 46.9871C63.1656 44.6645 65.0114 43.7687 67.5038 44.204C68.1792 42.0258 69.6403 40.888 71.8564 40.693C72.0298 38.4155 73.2488 36.9888 75.3565 36.3241C75.0242 34.0593 75.4396 33.0046 77.2222 31.3773C76.861 30.3786 76.516 29.4214 76.1566 28.4262C74.6142 28.354 73.2398 27.7273 72.1453 26.5046C71.0581 25.2873 70.7186 23.8045 70.742 22.3109C63.2631 24.527 55.8836 24.536 48.4372 22.2947C48.4932 23.8623 48.1049 25.3325 47.0086 26.5534C45.9124 27.7742 44.5181 28.3594 43.0389 28.4353C42.6687 29.4557 42.3309 30.3948 41.9679 31.3972C43.6241 32.5477 44.2363 34.2453 43.8372 36.335C46.0189 37.0122 47.173 38.4914 47.3554 40.702C49.6039 40.9007 51.0235 42.0547 51.6972 44.1967ZM59.5788 77.5709C60.592 77.5709 61.6088 77.6124 62.6184 77.5636C66.4057 77.3758 70.1695 76.9857 73.7618 75.6817C74.8671 75.2808 75.9254 74.6866 76.9097 74.0364C77.6827 73.5253 77.6755 72.8679 76.9242 72.3225C76.1313 71.7463 75.2229 71.3291 74.3632 70.8487C74.0218 70.6573 73.7238 70.7223 73.368 70.9174C71.8708 71.7427 70.3754 72.5825 68.8276 73.3032C63.711 75.6835 58.4428 76.0737 53.0481 74.3543C50.5015 73.5434 48.1645 72.2881 45.86 70.9571C45.636 70.827 45.2802 70.7024 45.0798 70.7909C44.2183 71.1684 43.3423 71.5513 42.5657 72.075C41.4478 72.8282 41.4171 73.5921 42.5693 74.2549C43.8444 74.9882 45.2098 75.633 46.6131 76.0556C50.8357 77.3289 55.1955 77.6196 59.5788 77.5709ZM41.809 76.5866C41.4297 77.8454 42.0853 78.6112 43.1256 79.1295C43.969 79.5503 44.8251 79.9639 45.7137 80.2637C48.8057 81.304 52.0096 81.7609 55.2533 81.956C60.7581 82.2865 66.2341 82.1366 71.6252 80.82C73.3319 80.4028 75.0097 79.8772 76.4853 78.873C77.484 78.1922 77.6321 77.7497 77.3883 76.6534C75.9326 77.1916 74.4896 77.8165 72.9906 78.2626C69.5627 79.283 66.0264 79.6912 62.4649 79.7995C55.3887 80.0145 48.383 79.7002 41.809 76.5866ZM70.854 19.5495C69.8643 18.688 68.8258 18.39 67.7909 18.1335C63.9729 17.1835 60.0899 17.0968 56.1924 17.3822C54.036 17.5393 51.8976 17.8391 49.8676 18.641C49.3836 18.8325 48.9375 19.1232 48.4733 19.3689C48.4679 19.4664 48.4625 19.5657 48.4571 19.6632C49.2915 20.0064 50.1024 20.4308 50.9639 20.6764C54.2202 21.6029 57.5632 21.7763 60.9261 21.677C63.6767 21.5957 66.4057 21.3501 69.0245 20.4254C69.6169 20.2159 70.1677 19.8818 70.854 19.5495ZM81.9179 35.1086C81.9071 33.8769 80.8939 32.8764 79.6712 32.8926C78.4575 32.9089 77.4461 33.9437 77.4606 35.1574C77.475 36.3873 78.481 37.368 79.7199 37.359C80.9571 37.35 81.9288 36.3548 81.9179 35.1086ZM39.5243 37.359C40.7542 37.3518 41.7548 36.3404 41.744 35.1159C41.7331 33.9022 40.7001 32.8836 39.49 32.8926C38.2619 32.9035 37.2794 33.9094 37.2866 35.1502C37.292 36.3928 38.28 37.3662 39.5243 37.359ZM66.3208 50.7798C67.5327 50.7708 68.5892 49.7901 68.5025 48.5945C68.4339 47.6535 67.5941 46.2574 66.2919 46.3044C65.0855 46.3477 64.0614 47.3465 64.0686 48.5692C64.0759 49.8063 65.0782 50.7888 66.3208 50.7798ZM59.586 48.5728C58.3453 48.5782 57.3682 49.5679 57.3772 50.8087C57.3862 52.0368 58.4012 53.0464 59.6149 53.0356C60.8358 53.0247 61.8309 52.0079 61.8237 50.778C61.8183 49.5409 60.8304 48.5674 59.586 48.5728ZM52.8873 50.7798C54.1281 50.787 55.1305 49.7973 55.1359 48.5638C55.1395 47.3429 54.1064 46.3459 52.9036 46.3044C51.6105 46.2592 50.7562 47.6806 50.6984 48.6017C50.6225 49.7973 51.6737 50.7744 52.8873 50.7798ZM78.5623 40.7363C78.5623 39.6581 77.3757 38.4769 76.3101 38.4914C75.1163 38.5076 74.1302 39.4992 74.1121 40.702C74.0941 41.9301 75.091 42.9397 76.33 42.9505C77.578 42.9596 78.5641 41.9843 78.5623 40.7363ZM42.8601 42.9505C44.0991 42.9469 45.0996 41.9446 45.0924 40.7165C45.0834 39.4938 44.0449 38.4679 42.8402 38.4932C41.7837 38.5149 40.6495 39.6671 40.6423 40.7237C40.6314 41.9699 41.6121 42.9542 42.8601 42.9505ZM47.2904 47.4278C48.3307 47.4404 49.221 46.7595 49.4739 45.7572C49.734 44.7277 49.2518 43.6694 48.3126 43.2016C47.48 42.7862 46.8641 42.9162 46.2501 43.6134C46.0424 43.8482 45.7588 44.0252 45.5818 44.278C45.3814 44.5652 45.1394 44.9047 45.1267 45.2298C45.078 46.4435 46.0713 47.4115 47.2904 47.4278ZM71.972 47.4278C72.0948 47.4097 72.3259 47.4061 72.5354 47.3357C73.3175 47.0738 73.834 46.5392 74.0453 45.7391C74.2386 45.0095 74.0399 44.4297 73.3608 44.0233C73.1387 43.8897 72.9418 43.6639 72.8136 43.4346C72.5716 43.0011 72.1869 42.9614 71.7751 42.9776C70.5723 43.0282 69.6114 44.0595 69.644 45.2497C69.6783 46.4597 70.659 47.4187 71.972 47.4278ZM55.6037 66.4239C58.329 66.4239 60.8737 66.4239 63.6207 66.4239C62.8297 65.6527 62.2572 64.6449 61.4679 64.4282C60.2976 64.1067 58.9069 64.1049 57.7366 64.4282C56.9492 64.6449 56.3803 65.6581 55.6037 66.4239ZM53.9908 64.8129C54.222 64.6359 54.2943 64.5889 54.3557 64.5311C56.2412 62.7702 56.1726 62.7684 56.2737 60.1641C56.3189 58.9992 55.6777 58.4519 54.9174 57.8289C53.5122 59.9961 54.2202 62.3729 53.9908 64.8129ZM64.2023 57.7151C63.8014 58.1648 63.1837 58.5368 63.1331 58.9721C62.9904 60.2165 62.8459 61.5511 63.1602 62.7287C63.3697 63.5143 64.363 64.0886 65.006 64.7587C65.0692 64.719 65.1324 64.6774 65.1974 64.6377C64.9807 62.3657 65.7013 59.9763 64.2023 57.7151ZM56.5771 56.2594C57.2183 56.6983 57.4729 57.6157 58.4915 57.5236C59.9544 57.39 61.6594 58.06 62.5498 56.198C61.0832 54.9608 58.1556 54.9572 56.5771 56.2594ZM36.2247 28.4515C36.2048 29.6724 37.115 30.6152 38.3197 30.6603C39.5478 30.7073 40.5267 29.7627 40.57 28.4515C39.1216 28.4515 37.6731 28.4515 36.2247 28.4515ZM82.9799 28.4497C81.4971 28.4497 80.0649 28.4497 78.6327 28.4497C78.6706 29.7573 79.6495 30.7073 80.8776 30.6621C82.0823 30.617 82.9925 29.6778 82.9799 28.4497ZM58.5259 61.9467C59.2898 61.9467 59.9743 61.9467 60.6534 61.9467C60.6534 61.1953 60.6534 60.491 60.6534 59.783C59.9147 59.783 59.2302 59.783 58.5259 59.783C58.5259 60.5217 58.5259 61.2134 58.5259 61.9467Z" fill="black"/>
</svg>
