<svg width="120" height="100" viewBox="0 0 120 100" fill="none" xmlns="http://www.w3.org/2000/svg">
<rect width="120" height="100" fill="white"/>
<path d="M28 73.2743C28.221 66.9802 31.0155 61.7743 36.6438 58.1518C37.055 57.8888 37.4634 57.6203 37.8914 57.3881C40.6468 55.8859 42.2189 53.5585 42.8511 50.5066C44.3645 43.2055 45.917 35.9156 47.4668 28.6201C48.0822 25.7249 48.6528 22.8156 49.3746 19.9455C50.0291 17.344 51.2264 14.983 53.1342 13.0445C57.3106 8.8037 63.8704 9.02189 67.7783 13.52C70.075 16.1663 71.0652 19.3665 71.7646 22.7121C73.6863 31.921 75.6892 41.1131 77.5691 50.3276C78.246 53.648 80.0251 55.981 82.9456 57.6259C87.6451 60.2722 90.7362 64.208 91.9586 69.509C92.893 73.554 92.4454 77.4675 90.7362 81.2495C88.0899 87.1127 82.7749 88.7044 77.9495 88.4639C75.4151 88.338 72.9954 87.6834 70.7407 86.5029C70.2204 86.2288 69.826 86.2288 69.3197 86.5896C68.4693 87.1939 67.5601 87.7198 66.6454 88.2261C62.3627 90.6066 58.0687 90.5815 53.7888 88.2093C52.9048 87.7198 52.0264 87.2079 51.204 86.626C50.6781 86.254 50.2753 86.2428 49.6963 86.5253C46.5968 88.0331 43.3435 88.7716 39.8692 88.3883C34.8787 87.8373 31.3932 85.2973 29.4546 80.6481C28.5147 78.399 28.0671 76.0548 28 73.2743ZM71.9548 84.6231C74.6346 85.8679 77.1746 86.4162 79.8349 86.198C84.1652 85.8456 87.3262 83.8231 88.9795 79.6662C90.4145 76.0576 90.6075 72.4155 89.4326 68.7174C88.157 64.7032 85.6059 61.6904 81.9581 59.6595C78.274 57.6063 76.0977 54.6075 75.2668 50.4451C73.4793 41.4907 71.5296 32.57 69.6665 23.6325C69.0287 20.575 68.2819 17.5734 66.1866 15.1173C62.883 11.2542 57.5177 11.2682 54.2475 15.1537C52.6587 17.0419 51.7495 19.2602 51.246 21.6379C49.2711 30.9447 47.2374 40.2403 45.4135 49.5779C44.5184 54.1627 42.4343 57.707 38.1908 59.8358C38.0677 59.8973 37.953 59.9812 37.8355 60.054C31.8715 63.7688 29.0322 70.6308 30.7526 77.4255C31.5303 80.5054 32.8702 83.3028 35.8829 84.8497C40.0202 86.9729 44.1519 86.5029 48.5605 84.6371C46.2024 83.0062 44.0652 81.4537 41.8469 80.0299C40.9741 79.4704 40.0146 79.7557 39.2761 80.511C38.6999 81.104 38.1068 81.1264 37.5502 80.5446C36.9991 79.9655 37.2397 79.4088 37.7096 78.8829C39.0356 77.4087 41.3098 77.0619 43.17 78.1668C44.3981 78.8969 45.5506 79.7501 46.7227 80.5669C49.4109 82.4384 52.0097 84.4553 54.7986 86.1644C58.368 88.352 62.1137 88.2904 65.7167 86.1561C67.6608 85.0035 69.4875 83.6468 71.345 82.3545C73.2919 81.0005 75.1773 79.5543 77.1607 78.2591C79.0237 77.0451 81.3343 77.3556 82.7162 78.8382C83.2225 79.3837 83.4939 79.9599 82.884 80.5725C82.3078 81.1544 81.7483 81.0397 81.1581 80.4858C80.2713 79.655 79.3594 79.5012 78.3943 80.1417C76.2767 81.546 74.2206 83.0398 71.9548 84.6231Z" fill="black"/>
</svg>
