<svg width="120" height="100" viewBox="0 0 120 100" fill="none" xmlns="http://www.w3.org/2000/svg">
<rect width="120" height="100" fill="white"/>
<path d="M61.3004 32.4245C60.3729 32.6924 59.5137 32.8754 58.7026 33.1858C53.5568 35.1517 51.7092 41.1418 54.9093 45.4469C56.1528 47.119 57.825 48.2461 59.7022 49.0812C63.3051 50.685 67.1353 51.2061 71.0247 51.2486C77.5931 51.3188 84.1634 51.28 90.7319 51.2837C90.9352 51.2837 91.216 51.3058 91.3287 51.1913C91.5929 50.9197 91.9163 50.5889 91.9625 50.2471C92.0271 49.7778 91.6724 49.4415 91.1717 49.3695C90.9444 49.3381 90.7116 49.351 90.4806 49.351C84.5108 49.351 78.541 49.3584 72.5712 49.3473C69.7553 49.3418 66.9506 49.1884 64.1976 48.5436C61.5905 47.932 59.1146 47.0303 57.1579 45.0958C54.2091 42.1802 54.78 37.5185 58.3349 35.4769C59.534 34.7877 60.8459 34.468 62.2279 34.4108C63.1388 34.3738 63.4456 33.9692 63.3624 33.0675C63.2959 32.358 63.2054 31.6393 63.2571 30.9335C63.4234 28.6534 64.325 26.7744 66.4887 25.7544C68.3992 24.8546 70.3632 25.0911 72.4215 25.6621C71.6972 26.1295 71.045 26.5046 70.4408 26.948C67.1945 29.3352 65.9916 33.1359 67.322 36.737C68.3807 39.6027 71.154 41.5705 74.5445 41.6222C79.9822 41.7035 85.4236 41.6629 90.8631 41.6703C90.9998 41.6703 91.1938 41.6998 91.2659 41.6241C91.532 41.3469 91.92 41.0476 91.9514 40.7261C91.9772 40.4453 91.6354 40.0628 91.362 39.8429C91.1809 39.6988 90.8335 39.7394 90.5601 39.7394C87.2879 39.7339 84.0138 39.7394 80.7397 39.7339C78.6648 39.7302 76.5843 39.8078 74.5186 39.6711C72.0963 39.5103 70.0547 38.5292 69.1715 36.0811C68.255 33.5424 68.7243 31.2125 70.6792 29.2798C71.9171 28.0566 73.4414 27.3046 75.0951 26.8058C76.4254 26.4048 76.6157 25.9909 75.9635 24.7475C74.4909 21.9353 72.294 19.8622 69.4228 18.5264C66.3723 17.1074 63.1536 16.8117 59.8352 17.1111C55.2124 17.5286 50.9793 19.0012 47.478 22.072C44.9375 24.2985 42.5946 26.7614 40.2555 29.2077C37.0775 32.5317 33.7868 35.7134 29.9566 38.289C29.1547 38.8285 28.2881 39.2831 27.5325 39.8799C27.259 40.0942 27.0502 40.6485 27.1278 40.9737C27.1925 41.2527 27.6821 41.5169 28.0313 41.6148C28.2567 41.6776 28.5875 41.4578 28.8369 41.3081C32.4639 39.1168 35.7786 36.5171 38.7533 33.5017C41.2458 30.9741 43.6552 28.3652 46.1329 25.821C49.7155 22.1441 53.9596 19.7347 59.1331 19.1269C62.3166 18.7518 65.4355 18.8719 68.4232 20.1708C70.2487 20.9634 71.7933 22.1201 73.1181 23.8107C70.0602 23.0144 67.1705 22.7963 64.556 24.6532C61.8806 26.5489 61.1397 29.3241 61.3004 32.4245ZM84.703 61.7304C85.867 61.3886 86.9811 61.0578 88.099 60.7363C89.0413 60.4647 89.9781 60.158 90.9352 59.9511C91.6225 59.8033 92.0271 59.4929 91.9976 58.9256C91.9661 58.3344 91.4802 57.8983 90.7707 58.0277C89.6954 58.2254 88.5738 58.4064 87.5946 58.8628C85.6527 59.7682 83.8105 59.818 81.8945 58.8517C79.6071 57.6969 77.268 57.6858 74.9824 58.8351C73.0405 59.8125 71.1707 59.8051 69.2288 58.8277C66.9672 57.6895 64.641 57.6914 62.3795 58.8295C60.4394 59.8051 58.5677 59.8106 56.6277 58.8332C54.3661 57.6932 52.0399 57.6877 49.7784 58.824C47.8383 59.7996 45.9685 59.8162 44.0247 58.8369C41.7392 57.6858 39.4 57.6932 37.1126 58.8462C35.1984 59.8125 33.3581 59.7608 31.4126 58.8665C30.3926 58.3972 29.2231 58.2217 28.0997 58.024C27.4807 57.9131 27.0373 58.3676 27.004 58.9145C26.9708 59.4633 27.3625 59.7977 27.9888 59.9418C28.9884 60.1709 30.012 60.3797 30.9469 60.7825C33.1752 61.7415 35.3887 61.8468 37.556 60.7585C39.5903 59.7349 41.5304 59.7164 43.5665 60.7419C45.7578 61.8449 48.0305 61.8412 50.2218 60.7363C52.2321 59.722 54.1573 59.7257 56.1694 60.7382C58.3866 61.8523 60.6741 61.832 62.8894 60.716C64.8498 59.7275 66.7436 59.7183 68.7077 60.7068C70.973 61.8468 73.2936 61.8375 75.557 60.6938C77.4971 59.7146 79.3595 59.7571 81.318 60.6846C82.3546 61.1761 83.5315 61.3793 84.703 61.7304ZM84.7787 82.197C85.8337 81.9051 86.9276 81.7055 87.9345 81.2953C88.923 80.8944 89.8764 80.486 90.9647 80.4436C91.6576 80.4158 92.0456 79.9687 91.9957 79.3978C91.9458 78.8416 91.5301 78.437 90.8742 78.5478C89.7748 78.7345 88.6237 78.8952 87.6278 79.3571C85.6619 80.2662 83.8013 80.3216 81.8631 79.3442C79.5997 78.2042 77.2772 78.1931 75.0156 79.3257C73.0497 80.3105 71.1651 80.3068 69.1992 79.3183C66.9635 78.1949 64.6521 78.1968 62.4127 79.3183C60.4486 80.305 58.5622 80.3105 56.5963 79.322C54.3587 78.1986 52.0473 78.1894 49.8098 79.3128C47.8439 80.2994 45.9592 80.3142 43.9933 79.3294C41.7318 78.1949 39.4093 78.1986 37.1459 79.3368C35.2058 80.3124 33.3471 80.268 31.3811 79.359C30.3852 78.8989 29.236 78.7308 28.1366 78.546C27.4567 78.4333 27.0151 78.8767 27.0003 79.455C26.9874 80.0001 27.3643 80.4177 28.0221 80.4417C29.1104 80.4823 30.0785 80.8482 31.0486 81.3027C33.1974 82.3078 35.4072 82.343 37.5209 81.2824C39.5829 80.2458 41.5359 80.2255 43.5942 81.2621C45.7394 82.3411 47.9861 82.3596 50.1239 81.2879C52.2136 80.2403 54.1777 80.244 56.2618 81.2842C58.431 82.3688 60.6925 82.3282 62.8543 81.238C64.8442 80.2348 66.7547 80.2292 68.7391 81.2233C71.0099 82.3614 73.3232 82.3226 75.5847 81.1882C77.473 80.2403 79.33 80.2034 81.2109 81.1715C82.3139 81.7351 83.4891 82.0325 84.7787 82.197ZM84.751 71.7854C84.7676 71.8427 84.7843 71.8981 84.8009 71.9554C85.8744 71.6468 86.9497 71.3364 88.0232 71.0278C88.9877 70.7507 89.9411 70.4292 90.9185 70.2112C91.6206 70.0541 92.0179 69.7603 91.9976 69.1931C91.9772 68.5963 91.5061 68.1584 90.7873 68.2896C89.6898 68.4891 88.5517 68.6831 87.5484 69.1395C85.625 70.0153 83.7976 70.0615 81.9093 69.1118C79.596 67.9478 77.2476 67.9459 74.9362 69.11C73.046 70.0615 71.1965 70.0689 69.3064 69.1173C66.9931 67.9515 64.6465 67.9441 62.3333 69.1044C60.4172 70.0671 58.5585 70.056 56.6424 69.0933C54.355 67.9441 52.0196 67.9478 49.7322 69.0989C47.818 70.0615 45.9574 70.0634 44.0414 69.0989C41.7539 67.9478 39.4185 67.9441 37.1292 69.0952C35.2151 70.0578 33.3729 70.0227 31.4273 69.1284C30.4277 68.6684 29.284 68.4873 28.1865 68.2896C27.501 68.1658 27.0502 68.5797 27.0059 69.1525C26.9615 69.7215 27.3606 70.0504 28.0406 70.2056C29.0383 70.4347 30.0545 70.6657 30.9931 71.0592C33.227 71.996 35.4349 72.0847 37.6041 70.989C39.6125 69.9747 41.5415 69.9765 43.5517 70.9872C45.7431 72.0884 48.0138 72.0958 50.207 70.9927C52.2154 69.9839 54.1426 69.9691 56.1547 70.9816C58.3959 72.1087 60.6999 72.0755 62.9375 70.9465C64.8757 69.9691 66.7566 69.9784 68.6929 70.9521C70.984 72.1032 73.3176 72.0773 75.6051 70.9262C77.4952 69.9747 79.3503 69.9525 81.2294 70.9262C82.3306 71.4953 83.5094 71.7743 84.751 71.7854Z" fill="white"/>
<path d="M61.3005 32.4247C61.1397 29.3225 61.8806 26.5491 64.556 24.6497C67.1705 22.7928 70.0602 23.009 73.1181 23.8072C71.7934 22.1184 70.2487 20.9599 68.4232 20.1673C65.4337 18.8684 62.3167 18.7483 59.1331 19.1233C53.9597 19.7331 49.7156 22.1406 46.133 25.8174C43.6534 28.3617 41.2459 30.9706 38.7534 33.4982C35.7786 36.5136 32.4658 39.1133 28.8369 41.3046C28.5875 41.4542 28.2549 41.6741 28.0314 41.6113C27.6822 41.5152 27.1925 41.2492 27.1279 40.9702C27.0521 40.645 27.259 40.0907 27.5325 39.8763C28.2882 39.2814 29.1547 38.825 29.9566 38.2855C33.7887 35.7117 37.0794 32.5282 40.2574 29.2042C42.5965 26.7579 44.9394 24.295 47.4799 22.0667C50.9812 18.9959 55.2124 17.5233 59.8371 17.1057C63.1555 16.8064 66.3741 17.102 69.4246 18.521C72.2959 19.8569 74.4928 21.9281 75.9654 24.7421C76.6176 25.9856 76.4273 26.3995 75.097 26.8004C73.4433 27.2993 71.919 28.0513 70.6811 29.2744C68.7262 31.2071 68.2569 33.537 69.1734 36.0757C70.0566 38.5238 72.0982 39.505 74.5205 39.6657C76.5862 39.8024 78.6667 39.7248 80.7416 39.7285C84.0138 39.7341 87.2879 39.7285 90.562 39.7341C90.8354 39.7341 91.1828 39.6934 91.3638 39.8375C91.6373 40.0574 91.981 40.4399 91.9533 40.7207C91.9218 41.0422 91.5338 41.3415 91.2678 41.6187C91.1957 41.6944 91.0017 41.6649 90.865 41.6649C85.4254 41.6556 79.9841 41.6981 74.5464 41.6168C71.1559 41.567 68.3826 39.5992 67.3239 36.7316C65.9935 33.1324 67.1964 29.3317 70.4427 26.9427C71.0451 26.4992 71.6991 26.1242 72.4234 25.6567C70.3633 25.0858 68.401 24.8493 66.4906 25.7491C64.3269 26.769 63.4234 28.6462 63.259 30.9281C63.2072 31.6339 63.2996 32.3526 63.3643 33.0621C63.4474 33.9638 63.1407 34.3684 62.2298 34.4054C60.8478 34.4627 59.5378 34.7805 58.3368 35.4715C54.7819 37.5132 54.211 42.1748 57.1598 45.0905C59.1165 47.025 61.5924 47.9266 64.1994 48.5382C66.9525 49.183 69.7591 49.3364 72.5731 49.3419C78.5429 49.353 84.5127 49.3456 90.4825 49.3456C90.7135 49.3456 90.9463 49.3327 91.1735 49.3641C91.6743 49.4362 92.029 49.7724 91.9643 50.2418C91.9163 50.5836 91.5948 50.9143 91.3306 51.1859C91.2179 51.3023 90.937 51.2783 90.7338 51.2783C84.1653 51.2746 77.595 51.3134 71.0266 51.2432C67.1372 51.2025 63.307 50.6796 59.7041 49.0759C57.8268 48.2407 56.1547 47.1137 54.9112 45.4415C51.7092 41.1383 53.5587 35.1463 58.7045 33.1804C59.5138 32.8755 60.3748 32.6926 61.3005 32.4247Z" fill="black"/>
<path d="M84.703 61.7307C83.5316 61.3796 82.3546 61.1764 81.3162 60.6849C79.3577 59.7574 77.4953 59.7149 75.5552 60.6942C73.2918 61.836 70.9711 61.8471 68.7059 60.7071C66.7418 59.7167 64.848 59.7278 62.8876 60.7163C60.6722 61.8323 58.3848 61.8526 56.1676 60.7385C54.1555 59.7278 52.2321 59.7241 50.22 60.7367C48.0287 61.8416 45.756 61.8471 43.5647 60.7422C41.5286 59.7167 39.5885 59.7352 37.5542 60.7588C35.3869 61.8489 33.1734 61.7418 30.9451 60.7828C30.0102 60.3801 28.9866 60.1731 27.987 59.9422C27.3607 59.798 26.9689 59.4655 27.0022 58.9149C27.0355 58.3679 27.4789 57.9134 28.0979 58.0243C29.2194 58.2238 30.3908 58.3975 31.4107 58.8668C33.3563 59.7629 35.1966 59.8128 37.1108 58.8465C39.3982 57.6935 41.7374 57.6862 44.0229 58.8373C45.9648 59.8147 47.8365 59.798 49.7766 58.8243C52.0399 57.6862 54.3643 57.6935 56.6259 58.8336C58.5678 59.811 60.4376 59.8054 62.3776 58.8299C64.6392 57.6917 66.9654 57.6898 69.2269 58.828C71.167 59.8054 73.0387 59.811 74.9806 58.8354C77.268 57.6862 79.6053 57.6972 81.8927 58.852C83.8087 59.8184 85.6509 59.7685 87.5928 58.8631C88.5702 58.4067 89.6917 58.2257 90.7689 58.028C91.4784 57.8968 91.9643 58.3328 91.9958 58.9259C92.0253 59.4932 91.6207 59.8036 90.9333 59.9514C89.9762 60.1583 89.0395 60.465 88.0972 60.7367C86.9812 61.0581 85.867 61.3889 84.703 61.7307Z" fill="black"/>
<path d="M84.7787 82.197C83.4872 82.0344 82.3139 81.737 81.2109 81.1697C79.3299 80.2015 77.473 80.2385 75.5847 81.1864C73.3232 82.3208 71.0099 82.3596 68.7391 81.2215C66.7566 80.2274 64.8442 80.233 62.8543 81.2362C60.6925 82.3264 58.431 82.367 56.2618 81.2824C54.1795 80.2404 52.2136 80.2367 50.1239 81.2861C47.9861 82.3578 45.7394 82.3393 43.5942 81.2603C41.5359 80.2256 39.5829 80.244 37.5209 81.2806C35.4091 82.343 33.1974 82.306 31.0486 81.3009C30.0767 80.8464 29.1085 80.4805 28.0221 80.4399C27.3643 80.4159 26.9874 79.9983 27.0003 79.4532C27.0151 78.8749 27.4567 78.4315 28.1348 78.546C29.2342 78.7308 30.3834 78.8989 31.3793 79.359C33.3471 80.2681 35.2058 80.3124 37.144 79.3368C39.4074 78.1987 41.7299 78.195 43.9915 79.3295C45.9574 80.3161 47.842 80.2995 49.8079 79.3128C52.0455 78.1913 54.3569 78.1987 56.5944 79.3221C58.5603 80.3106 60.4449 80.3032 62.4109 79.3184C64.6484 78.195 66.9598 78.195 69.1973 79.3184C71.1633 80.305 73.0479 80.3106 75.0138 79.3258C77.2772 78.1931 79.5979 78.2042 81.8613 79.3442C83.8013 80.3216 85.6601 80.2662 87.626 79.3572C88.6219 78.8971 89.773 78.7345 90.8723 78.5479C91.5282 78.437 91.944 78.8417 91.9939 79.3978C92.0437 79.9687 91.6557 80.4159 90.9629 80.4436C89.8746 80.4861 88.9212 80.8944 87.9327 81.2954C86.9276 81.7037 85.8337 81.9051 84.7787 82.197Z" fill="black"/>
<path d="M84.7511 71.7858C83.5095 71.7766 82.3288 71.4957 81.2276 70.9266C79.3485 69.9529 77.4934 69.9751 75.6033 70.9266C73.3159 72.0777 70.9823 72.1036 68.6912 70.9525C66.7548 69.9788 64.8739 69.9695 62.9357 70.947C60.6963 72.0759 58.3941 72.111 56.1529 70.9821C54.1408 69.9695 52.2137 69.9843 50.2052 70.9932C48.0121 72.0944 45.7413 72.0888 43.55 70.9876C41.5397 69.9769 39.6107 69.9751 37.6023 70.9895C35.4331 72.0851 33.2252 71.9964 30.9914 71.0597C30.0527 70.6661 29.0365 70.4352 28.0388 70.206C27.3588 70.049 26.9579 69.7201 27.0041 69.1529C27.0503 68.5819 27.5011 68.1662 28.1847 68.29C29.2823 68.4877 30.426 68.6706 31.4256 69.1288C33.373 70.0231 35.2133 70.0564 37.1275 69.0956C39.4167 67.9445 41.7522 67.9482 44.0396 69.0993C45.9556 70.0638 47.8162 70.0638 49.7304 69.0993C52.0197 67.9482 54.3551 67.9445 56.6407 69.0937C58.5567 70.0564 60.4173 70.0675 62.3315 69.1048C64.6448 67.9427 66.9913 67.9519 69.3046 69.1178C71.1929 70.0693 73.0443 70.0619 74.9344 69.1104C77.2477 67.9463 79.5961 67.9482 81.9075 69.1122C83.7977 70.0638 85.6232 70.0157 87.5466 69.1399C88.5499 68.6836 89.6881 68.4896 90.7856 68.29C91.5043 68.1588 91.9755 68.5967 91.9958 69.1935C92.0143 69.7608 91.617 70.0545 90.9167 70.2116C89.9393 70.4296 88.9859 70.7511 88.0215 71.0283C86.948 71.3368 85.8726 71.6472 84.7991 71.9558C84.7843 71.8985 84.7677 71.8412 84.7511 71.7858Z" fill="black"/>
</svg>
