<svg width="120" height="100" viewBox="0 0 120 100" fill="none" xmlns="http://www.w3.org/2000/svg">
<rect width="120" height="100" fill="white"/>
<path d="M45.591 80.1074C44.9507 79.9524 44.3027 79.8241 43.6735 79.6347C42.2115 79.1964 40.9185 78.4466 39.7962 77.4104C38.9697 76.6481 38.785 75.6729 39.2687 74.7572C39.7477 73.8493 40.6634 73.4659 41.7591 73.7413C42.8861 74.0231 44.0163 74.2235 45.1668 73.8932C46.4816 73.5159 47.3457 72.6832 47.5914 71.3151C47.7464 70.4511 47.8544 69.5745 47.9076 68.6995C48.1299 65.043 48.2848 64.3746 49.836 61.0186C49.4682 61.1955 49.1958 61.3113 48.936 61.4522C46.8792 62.5683 44.849 63.7375 42.7609 64.7941C41.0579 65.655 39.2374 66.2013 37.2996 66.1262C34.4554 66.015 32.1638 64.7925 30.4264 62.5432C29.8488 61.795 29.8707 60.8605 30.4154 60.1483C30.9946 59.3923 31.8899 59.1982 32.8291 59.5206C33.7057 59.8212 34.601 60.1201 35.5136 60.2501C36.495 60.3909 37.3825 59.9699 38.0102 59.2107C39.3705 57.5671 40.9076 56.1521 42.8861 55.1347C42.7108 55.0126 42.5981 54.9218 42.4744 54.8513C40.0154 53.4332 38.2544 51.4124 37.2307 48.7576C36.531 46.9403 35.4494 46.1874 33.4896 46.1733C33.0795 46.1702 32.671 46.1984 32.2609 46.2219C31.256 46.2813 30.4467 45.7804 30.1399 44.907C29.8222 44.0023 30.1399 43.0615 31.0133 42.5215C34.3866 40.4396 37.7817 40.579 41.1502 42.5184C43.1006 43.6422 44.6205 45.2858 46.2202 46.8386C47.2095 47.7997 48.3193 48.6355 49.3821 49.5215C49.5214 49.6373 49.7014 49.7062 49.9534 49.8486C49.3211 48.9705 48.7169 48.2113 48.2019 47.3958C46.5223 44.7411 45.6176 41.8093 45.2419 38.7053C44.9586 36.3683 44.8537 34.0345 45.3452 31.7022C46.635 25.5772 51.8928 20.7858 58.0977 20.108C58.2276 20.0939 58.3528 20.0376 58.4812 20C59.4971 20 60.5129 20 61.5272 20C61.654 20.0376 61.7793 20.0939 61.9092 20.108C68.0921 20.7842 73.3578 25.5615 74.6523 31.6442C75.1563 34.0157 75.0608 36.3902 74.7587 38.7632C74.2829 42.5137 73.0619 45.9777 70.6936 48.9768C70.4948 49.2288 70.2882 49.4761 70.0847 49.725C70.3054 49.7046 70.4854 49.6358 70.6248 49.5184C71.6876 48.634 72.7551 47.7543 73.796 46.8464C75.294 45.5378 76.6637 44.0524 78.2806 42.9175C81.405 40.7245 84.7907 40.3629 88.2938 42.0926C89.0655 42.4745 89.7073 42.9801 90 43.8316C90 44.1056 90 44.3795 90 44.6534C89.3269 46.0356 88.8949 46.2813 87.3437 46.189C87.0322 46.1702 86.7191 46.1655 86.4076 46.1718C84.5434 46.2109 83.4758 46.9622 82.8075 48.6982C81.7853 51.3513 80.0447 53.3894 77.5935 54.8216C77.4526 54.903 77.3195 54.9985 77.1176 55.13C79.0836 56.1427 80.6113 57.539 81.9591 59.1669C82.629 59.9761 83.5698 60.3941 84.6185 60.2501C85.4356 60.1374 86.2449 59.8759 87.0212 59.5848C87.7929 59.2952 88.5271 59.2201 89.1735 59.7585C89.5163 60.0434 89.7292 60.4848 90 60.8543C90 61.1673 90 61.4804 90 61.7934C89.8513 62.0642 89.7355 62.3616 89.5476 62.6011C87.7898 64.8332 85.4919 66.0448 82.6478 66.1293C80.5644 66.1919 78.6406 65.5329 76.8218 64.5953C74.9152 63.6123 73.0572 62.5338 71.1757 61.5039C70.8862 61.3458 70.5778 61.2221 70.1458 61.0202C71.243 63.0097 71.8488 64.9772 72.0382 67.0669C72.1509 68.3113 72.165 69.5683 72.3153 70.808C72.5532 72.7849 73.735 73.9245 75.7135 74.0247C76.5353 74.0669 77.3806 73.9026 78.1961 73.7398C79.3466 73.5128 80.2623 73.8415 80.7444 74.7604C81.2343 75.6933 81.034 76.6685 80.1684 77.4527C78.9474 78.5609 77.5355 79.3295 75.9405 79.7521C75.4365 79.8851 74.9231 79.9884 74.4143 80.1043C73.555 80.1043 72.6956 80.1043 71.8363 80.1043C71.7674 80.073 71.7001 80.0213 71.6297 80.0135C69.0563 79.7145 67.1905 78.3496 66.0384 76.083C65.2902 74.6117 64.7158 73.0479 64.1037 71.5092C63.4025 69.7467 62.767 67.9372 61.4286 66.5441C59.868 64.9193 60.1341 64.9193 58.5767 66.5441C57.2383 67.9404 56.606 69.7483 55.9 71.5077C55.2614 73.098 54.6525 74.7103 53.8761 76.2333C52.9416 78.0647 51.4436 79.3107 49.4087 79.8241C48.997 79.9274 48.5822 80.0119 48.1674 80.1058C47.3097 80.1074 46.4503 80.1074 45.591 80.1074ZM32.203 61.5305C33.4082 63.2648 36.0505 64.373 38.2622 64.096C40.078 63.8675 41.7168 63.1631 43.3025 62.3037C45.1715 61.291 47.0154 60.2297 48.9031 59.2498C50.0333 58.6644 51.2432 58.2293 52.5424 58.2919C52.8665 58.3075 53.2672 58.5721 53.4707 58.8444C53.7321 59.1935 53.6115 59.6302 53.3 59.9683C53.2077 60.0685 53.1106 60.1655 53.0136 60.2626C51.5547 61.7324 50.5717 63.4761 50.2681 65.5267C50.002 67.3221 49.9112 69.1425 49.6952 70.9457C49.2913 74.3158 46.6961 76.3851 43.3244 76.0439C42.5637 75.9672 41.8108 75.8138 41.0532 75.6948C41.0203 75.7512 40.989 75.8091 40.9561 75.8655C41.6214 76.3069 42.2537 76.8156 42.9597 77.1803C47.2611 79.4015 51.1243 77.9974 52.987 73.5645C53.1075 73.2765 53.2202 72.9853 53.3329 72.6942C53.8432 71.384 54.3144 70.0582 54.87 68.7684C55.8249 66.5551 57.1679 64.6438 59.2685 63.3509C59.7788 63.0363 60.2265 63.03 60.7368 63.3478C62.2849 64.3104 63.5199 65.5877 64.3323 67.2031C65.0852 68.698 65.669 70.2789 66.3452 71.8129C66.9025 73.0792 67.4237 74.3675 68.0796 75.5821C68.6838 76.6998 69.659 77.4902 70.9065 77.8096C73.8054 78.5499 76.4336 77.977 78.7439 76.047C78.8426 75.9641 78.9099 75.842 79.032 75.6854C78.1413 75.8232 77.3587 75.9985 76.5697 76.0549C73.8884 76.2443 70.9566 74.9012 70.4087 71.4685C70.1693 69.9674 70.1066 68.4366 69.9673 66.9198C69.731 64.3637 68.8372 62.1034 66.9964 60.2657C66.8853 60.1546 66.7162 60.0544 66.6849 59.9229C66.5988 59.566 66.4407 59.1387 66.5628 58.8444C66.6739 58.5799 67.0981 58.3905 67.4222 58.2903C67.682 58.2089 68.0029 58.2872 68.2909 58.331C69.9392 58.5877 71.3949 59.3406 72.8365 60.128C74.5818 61.0828 76.3036 62.0861 78.0818 62.9737C79.8318 63.8455 81.682 64.3997 83.6778 64.0209C85.3558 63.7031 86.7411 62.8829 87.9213 61.4272C87.4501 61.6072 87.1292 61.7386 86.8037 61.8529C84.1583 62.7764 81.8025 62.2192 80.2372 60.2407C78.5921 58.1604 76.5118 56.7626 73.9557 56.0817C73.4032 55.9345 73.0322 55.6622 73.0181 55.0564C73.0071 54.5367 73.339 54.1955 73.9714 54.0468C77.4072 53.236 79.7457 51.1745 80.9917 47.8654C81.7524 45.8446 83.1925 44.6268 85.3245 44.295C86.1008 44.1744 86.8991 44.1823 87.6865 44.1322C87.0854 43.7549 86.4468 43.4325 85.7706 43.265C83.0923 42.6029 80.7366 43.4028 78.6735 45.0823C77.3289 46.1765 76.1346 47.4553 74.837 48.6105C73.7741 49.5559 72.7129 50.5202 71.5483 51.3263C70.1583 52.2889 68.5805 52.566 66.9119 52.0729C66.4376 51.9336 66.0932 51.6847 66.0212 51.1807C65.9508 50.697 66.2482 50.4106 66.6004 50.1147C67.3627 49.4792 68.1751 48.8688 68.7996 48.108C72.4452 43.6642 73.5941 38.4345 72.7723 32.909C71.7267 25.8808 65.5595 21.3915 58.5203 22.0991C52.951 22.6579 48.1549 27.1346 47.2376 32.6758C46.707 35.8831 47.0874 39.0387 48.0219 42.1192C49.0096 45.3735 50.6844 48.1863 53.5114 50.2149C53.7743 50.4043 54.0154 50.9005 53.9559 51.1901C53.8902 51.5126 53.5192 51.9117 53.1936 52.0213C51.2511 52.6818 49.4557 52.1841 47.9154 50.9678C46.4957 49.8455 45.1981 48.5635 43.8801 47.316C42.6012 46.1045 41.3443 44.8741 39.7743 44.0351C37.7629 42.9598 35.6732 42.7109 33.5037 43.492C33.0858 43.6422 32.6976 43.8755 32.2953 44.0711C32.7712 44.176 33.1985 44.1698 33.6243 44.1776C36.3244 44.2292 38.1354 45.5331 39.1122 48.0548C39.3846 48.7592 39.7305 49.4542 40.1515 50.0803C41.5681 52.1841 43.5514 53.4833 46.0198 54.0436C46.8119 54.2237 47.2517 54.8451 46.9042 55.4164C46.7086 55.7373 46.2859 56.0112 45.9134 56.1161C43.4809 56.7986 41.4867 58.1212 39.9121 60.0888C38.4876 61.867 36.6578 62.5886 34.4194 62.1581C33.6587 62.0126 32.9277 61.7402 32.203 61.5305Z" fill="black"/>
<path d="M54.211 45.1591C51.9194 45.1638 50.2993 43.1007 50.0442 41.4321C49.9252 40.6557 50.2602 40.0515 50.9677 39.7087C52.3201 39.0544 53.7352 38.9151 55.1878 39.2673C56.5167 39.5898 58.021 41.5605 57.9959 42.927C57.9834 43.6376 57.6328 44.1902 56.9566 44.4109C56.0549 44.7052 55.1267 44.9133 54.211 45.1591ZM55.8577 42.6703C55.4132 41.0111 53.7806 40.6996 52.1683 41.429C52.5455 42.9489 54.0623 43.4717 55.8577 42.6703Z" fill="black"/>
<path d="M66.4611 38.9667C67.264 39.1812 68.0874 39.3393 68.8638 39.6257C69.8891 40.0045 70.2381 40.7856 69.9047 41.8359C69.2207 43.9882 67.4675 45.6365 64.3604 44.835C63.9848 44.738 63.6106 44.6206 63.2475 44.4813C62.2332 44.0931 61.8606 43.3386 62.1627 42.2852C62.5995 40.7621 63.9049 38.9339 66.4611 38.9667ZM67.887 41.4337C66.2169 40.6573 64.4606 41.1018 64.2399 42.6922C65.9633 43.4701 67.4049 42.988 67.887 41.4337Z" fill="black"/>
</svg>
