<svg width="120" height="100" viewBox="0 0 120 100" fill="none" xmlns="http://www.w3.org/2000/svg">
<rect width="120" height="100" fill="white"/>
<path d="M66.3723 82.9233C67.47 84.151 68.4512 85.2464 69.4325 86.3441C69.6219 86.5563 69.8273 86.7548 70.003 86.9808C70.4777 87.5855 70.4526 88.3249 69.9209 88.7357C69.3321 89.1921 68.7411 89.1168 68.2413 88.5896C67.6137 87.9301 67.0181 87.2364 66.4088 86.5586C65.7037 85.7736 64.9597 85.0205 64.3093 84.1944C63.7867 83.5303 63.2185 83.1857 62.3559 83.3569C61.8926 83.4482 61.4065 83.4322 60.8748 83.4687C60.8748 85.162 60.8794 86.7845 60.8725 88.4071C60.8703 89.4043 60.4504 89.9725 59.7155 89.9999C58.9511 90.0296 58.4878 89.4317 58.4832 88.3979C58.4787 86.7754 58.4832 85.1551 58.4832 83.4436C57.6617 83.4025 56.8995 83.3181 56.1418 83.3477C55.8885 83.3569 55.6033 83.617 55.407 83.8315C54.0424 85.3263 52.7005 86.8393 51.345 88.3409C50.674 89.0848 49.994 89.2149 49.428 88.7311C48.8416 88.2313 48.9032 87.4874 49.5901 86.7183C50.6855 85.4951 51.7808 84.2697 52.8876 83.0328C50.868 82.4988 48.8986 82.0903 47.0045 81.4536C40.8315 79.377 35.439 76.1296 31.5847 70.7006C28.335 66.1296 27.0046 60.9813 27 55.4108C26.9932 48.163 29.9781 42.2616 35.1401 37.4214C38.6294 34.1512 42.3286 31.1069 45.9297 27.9554C51.3381 23.2225 55.7607 17.7546 58.4513 11.0043C58.6818 10.427 59.0423 9.89297 59.6631 10.0185C60.1081 10.1075 60.6763 10.5183 60.8406 10.9267C63.7114 18.1061 68.5631 23.7587 74.3298 28.7336C77.6502 31.5976 80.9957 34.441 84.1997 37.4351C87.422 40.4451 89.9961 43.964 91.2695 48.2612C94.2818 58.43 91.4863 71.5084 78.9738 78.5372C75.0897 80.7165 70.9661 82.1862 66.3723 82.9233ZM53.2391 80.4632C53.0862 80.1072 52.9652 79.8288 52.8443 79.5504C52.0045 77.6198 51.1099 75.7097 50.3386 73.7517C48.5289 69.1465 47.235 64.409 46.8562 59.4455C46.4271 53.8043 47.4312 48.3707 49.1998 43.0558C51.2103 37.0061 53.287 30.9792 55.3135 24.9363C55.6991 23.7861 55.9821 22.5995 56.3107 21.431C56.0939 21.4744 56.0004 21.5702 55.9182 21.6752C53.6042 24.6396 51.3199 27.6245 48.9739 30.5638C45.8977 34.4159 42.8146 38.2566 40.4482 42.6153C36.3838 50.0914 35.9753 57.6701 39.7544 65.3788C42.4016 70.7782 46.2537 75.251 50.4595 79.466C51.2468 80.2533 52.1368 80.413 53.2391 80.4632ZM66.192 80.3834C66.2377 80.4587 66.2833 80.5317 66.3289 80.607C67.0341 80.3651 67.9218 80.3195 68.4124 79.8539C72.5201 75.9562 76.2011 71.7001 78.935 66.6887C83.2435 58.7951 83.385 50.8376 79.0445 42.9508C77.4585 40.0686 75.5827 37.3187 73.611 34.6806C70.27 30.2078 66.7488 25.8719 63.2984 21.4812C63.2641 21.4379 63.1911 21.4288 62.9766 21.3329C63.8095 24.0896 64.5375 26.7208 65.4024 29.3087C67.0729 34.3018 68.8917 39.2448 70.5211 44.2516C72.0386 48.9161 72.81 53.7084 72.5452 58.6468C72.2531 64.094 70.8177 69.2561 68.8095 74.2811C67.9903 76.335 67.0683 78.35 66.192 80.3834ZM58.4353 23.1882C58.4056 23.1791 58.376 23.17 58.3463 23.1608C58.2824 23.3662 58.2139 23.5693 58.1523 23.7747C57.5385 25.7898 56.9748 27.8185 56.3062 29.8153C54.4645 35.3196 52.4814 40.7783 50.7379 46.3146C49.1359 51.4035 48.716 56.6363 49.5239 61.9489C50.5211 68.5075 53.0154 74.5413 55.9479 80.4199C56.0688 80.6618 56.4248 80.8923 56.6987 80.931C57.2509 81.0109 57.8214 80.9539 58.433 80.9539C58.4353 61.7025 58.4353 42.4442 58.4353 23.1882ZM61.0095 23.1722C60.9798 23.1859 60.9478 23.2019 60.9182 23.2156C60.9182 42.4556 60.9182 61.6979 60.9182 80.9835C61.3221 80.9835 61.6895 80.9447 62.0455 80.9904C62.9173 81.1022 63.3623 80.7074 63.6977 79.9155C64.5626 77.8708 65.569 75.8877 66.4134 73.8361C68.2983 69.2629 69.6813 64.5505 70.1057 59.5893C70.5644 54.2379 69.6356 49.0758 67.9629 44.0325C66.0802 38.3616 64.0902 32.7249 62.171 27.0654C61.7352 25.7852 61.3928 24.4707 61.0095 23.1722ZM75.5393 33.1973C75.7949 33.5373 76.0733 33.8614 76.3015 34.2174C77.9765 36.8258 79.8136 39.3452 81.2741 42.0699C84.3458 47.8002 85.4685 53.8887 83.9236 60.3264C82.7027 65.4085 80.1742 69.8334 77.0135 73.9228C75.7995 75.4929 74.4941 76.9899 73.1614 78.6011C73.4101 78.544 73.5745 78.528 73.7228 78.4687C82.7574 74.7444 88.7022 68.5007 89.8181 58.4231C90.3749 53.3912 89.5945 48.5898 86.8035 44.2516C83.8893 39.7217 79.7041 36.4675 75.5393 33.1973ZM43.7617 33.1494C43.7046 33.0832 43.6476 33.017 43.5905 32.9508C40.9981 35.3379 38.3327 37.6473 35.8316 40.1233C27.7896 48.0832 28.1639 59.0233 31.8037 66.4423C34.6015 72.1428 39.2957 75.7782 45.0191 78.2177C45.3683 78.366 45.7311 78.4801 46.0871 78.6102C45.811 78.0693 45.4504 77.6746 45.0944 77.2729C42.1985 73.9959 39.6129 70.5021 37.6914 66.5541C35.2519 61.5404 34.1474 56.2985 35.0853 50.7235C35.827 46.3237 37.6253 42.3529 40.0123 38.6332C41.2081 36.7687 42.5089 34.975 43.7617 33.1494Z" fill="black"/>
</svg>
