<svg width="120" height="100" viewBox="0 0 120 100" fill="none" xmlns="http://www.w3.org/2000/svg">
<rect width="120" height="100" fill="white"/>
<g clip-path="url(#clip0_3_15)">
<path d="M108 76.5616C107.471 78.5137 106.576 80.2808 104.644 81.1233C103.627 81.5548 102.468 81.7808 101.349 81.863C99.6003 81.9863 97.8309 81.9247 96.0614 81.8836C95.4513 81.863 95.2072 82.089 95.0242 82.6438C93.8039 86.3219 91.343 88.7055 87.6211 89.7123C82.6992 91.0479 77.1062 88.0069 75.5401 83.0753C75.2351 82.1301 74.8486 81.863 73.8724 81.863C63.8456 81.9041 53.8392 81.9041 43.8125 81.863C43.06 81.863 42.7345 82.089 42.5108 82.8082C41.1482 87.1438 37.2229 89.9795 32.6061 90C28.3147 90.0206 24.2877 87.0205 22.9454 82.726C22.742 82.089 22.4776 81.8425 21.7861 81.863C19.7523 81.9041 17.6982 81.8836 15.6643 81.8836C13.7322 81.8836 12.9797 81.1027 12.9797 79.1507C13 66.2671 13 53.3836 13 40.5205C13 35.1781 16.4779 31.6438 21.7455 31.6233C27.969 31.6027 34.1721 31.6027 40.3956 31.6438C41.1685 31.6438 41.5346 31.4178 41.7583 30.6575C42.3278 28.726 43.0193 26.8151 43.6498 24.8836C44.1379 23.4452 44.7277 23.0137 46.2531 23.0137C47.8394 22.9932 49.4055 22.9932 50.9919 23.0137C52.5172 23.0342 53.1071 23.4658 53.5952 24.9041C54.2663 26.8767 54.9578 28.8493 55.568 30.8425C55.751 31.4589 56.0358 31.6644 56.6866 31.6438C60.3881 31.6027 64.1101 31.6233 67.8116 31.6233C70.5573 31.6233 72.8962 32.5274 74.6656 34.7055C75.7232 36 76.252 37.5 76.4757 39.2466C77.513 39.2466 78.5299 39.2466 79.5265 39.2466C81.5603 39.2466 83.6144 39.2466 85.6483 39.2466C90.9769 39.2671 94.7395 42.2877 96.0004 47.5069C96.5496 49.8082 97.058 52.1301 97.6478 54.411C97.7292 54.7603 98.0546 55.2329 98.3597 55.3151C103.79 56.8767 106.861 60.4726 107.614 66.1233C107.695 66.8014 107.858 67.4589 107.98 68.137C108 70.9315 108 73.7466 108 76.5616ZM22.5997 77.7329C22.681 77.4041 22.7827 77.0753 22.8641 76.7466C24.0233 72.3493 28.1927 69.1644 32.7688 69.1644C37.3652 69.1644 41.5142 72.3288 42.6532 76.7466C42.8769 77.589 43.2023 77.7945 44.0159 77.7945C53.9613 77.774 63.927 77.7534 73.8724 77.7945C74.7876 77.7945 75.1334 77.5274 75.3571 76.6438C76.6791 71.4658 82.4145 68.0959 87.5194 69.4521C91.465 70.5 94.0073 73.0068 95.1666 76.9726C95.2479 77.2808 95.553 77.7329 95.7564 77.7329C97.8919 77.774 100.027 77.774 102.143 77.6712C103.18 77.6096 103.912 76.7877 103.912 75.6986C103.912 72.9247 103.932 70.1301 103.709 67.3767C103.566 65.5685 103.2 63.6986 101.96 62.2397C100.17 60.1233 97.8309 59.1164 95.0852 59.1164C88.5363 59.1164 81.967 59.1164 75.4181 59.1164C73.1402 59.1164 72.4894 58.4589 72.4894 56.1781C72.4894 50.9589 72.4894 45.7397 72.4894 40.5205C72.4894 37.3767 70.842 35.7123 67.7303 35.7123C52.4359 35.7123 37.1212 35.7123 21.8268 35.7123C18.7354 35.7123 17.0677 37.3973 17.0677 40.5205C17.0677 52.5822 17.0677 64.6438 17.0677 76.6849C17.0677 77.0137 17.0677 77.3425 17.0677 77.7329C18.9591 77.7329 20.7489 77.7329 22.5997 77.7329ZM76.5774 54.9452C82.2721 54.9452 87.8855 54.9452 93.5598 54.9452C93.0514 52.7466 92.5429 50.6301 92.0548 48.5137C91.282 45.1233 89.1058 43.3562 85.6686 43.3356C82.9229 43.3151 80.1773 43.3356 77.4113 43.3356C77.1469 43.3356 76.8825 43.3767 76.5774 43.3973C76.5774 47.2603 76.5774 51.0616 76.5774 54.9452ZM26.525 79.6438C26.586 83.0959 29.4333 85.9521 32.7485 85.8699C36.3687 85.7877 39.0533 82.9932 38.972 79.3767C38.9109 76.0069 36.0229 73.1507 32.7485 73.2123C29.2299 73.2945 26.4639 76.1301 26.525 79.6438ZM91.465 79.5205C91.4243 76.0685 88.5566 73.1918 85.1601 73.2123C81.7433 73.2534 78.896 76.1507 78.9366 79.5822C78.9773 83.0548 81.8653 85.9315 85.2212 85.8904C88.6583 85.8288 91.5057 82.9315 91.465 79.5205ZM45.7243 31.5C47.7174 31.5 49.5885 31.5 51.5207 31.5C51.0122 29.9589 50.5241 28.5616 50.036 27.1027C49.2021 27.1027 48.4089 27.0822 47.5954 27.1233C47.4123 27.1233 47.1276 27.3288 47.0666 27.4932C46.6192 28.8082 46.192 30.1233 45.7243 31.5Z" fill="black"/>
<path d="M54.0019 47.8356C55.9544 47.8356 57.7645 47.8356 59.5949 47.8356C61.405 47.8356 62.1372 48.5754 62.1372 50.3836C62.1372 52.6027 62.1576 54.8219 62.1372 57.0411C62.1372 58.8904 61.3237 59.6918 59.4526 59.6918C57.6628 59.6918 55.873 59.6918 54.0019 59.6918C54.0019 61.5822 54.0019 63.3904 54.0019 65.1986C54.0019 67.2534 53.3714 67.911 51.3579 67.911C49.2631 67.911 47.1479 67.911 45.0531 67.911C43.3853 67.911 42.6735 67.2123 42.6532 65.5274C42.6328 63.637 42.6532 61.726 42.6532 59.6918C41.6566 59.6918 40.7414 59.6918 39.8261 59.6918C38.8092 59.6918 37.7923 59.7123 36.7754 59.6918C35.4127 59.6507 34.5585 58.8288 34.5382 57.4726C34.4975 54.9658 34.4975 52.4795 34.5382 49.9726C34.5585 48.6575 35.3111 47.8973 36.633 47.8562C38.2804 47.8151 39.9075 47.8356 41.5549 47.8356C41.8803 47.8356 42.2261 47.8356 42.6532 47.8356C42.6532 46.6849 42.6532 45.637 42.6532 44.5685C42.6532 43.5 42.6328 42.4521 42.6735 41.3836C42.7345 40.1918 43.4667 39.4521 44.626 39.4315C47.0666 39.3904 49.5072 39.3904 51.9477 39.4315C53.2494 39.4521 53.9612 40.2945 53.9816 41.7123C54.0019 43.3767 53.9816 45.0206 53.9816 46.6849C54.0019 47.0343 54.0019 47.3836 54.0019 47.8356ZM38.6262 55.6027C40.3956 55.6027 42.0634 55.6027 43.7311 55.6027C46.0497 55.6027 46.7005 56.2808 46.7005 58.6027C46.7005 60.3082 46.7005 62.0137 46.7005 63.7397C47.8394 63.7397 48.8767 63.7397 49.9343 63.7397C49.9343 61.7877 49.9139 59.9178 49.9343 58.048C49.9546 56.548 50.6258 55.7877 52.0698 55.6438C52.5986 55.5822 53.1274 55.6233 53.6358 55.6233C55.0798 55.6233 56.5239 55.6233 57.9679 55.6233C57.9679 54.3493 57.9679 53.1781 57.9679 51.9658C56.0764 51.9658 54.246 51.9863 52.4359 51.9658C50.7885 51.9452 49.9546 51.0411 49.9139 49.3973C49.9139 48.9658 49.9139 48.5137 49.9139 48.0822C49.9139 46.6027 49.9139 45.1027 49.9139 43.6233C48.775 43.6233 47.7784 43.6233 46.6801 43.6233C46.6801 45.411 46.6801 47.1575 46.6801 48.9041C46.6801 51.226 45.948 51.9863 43.6294 51.9863C41.9617 51.9863 40.3143 51.9863 38.6058 51.9863C38.6262 53.1986 38.6262 54.3493 38.6262 55.6027Z" fill="black"/>
</g>
<defs>
<clipPath id="clip0_3_15">
<rect width="95" height="81" fill="white" transform="translate(13 9)"/>
</clipPath>
</defs>
</svg>
