<svg width="120" height="100" viewBox="0 0 120 100" fill="none" xmlns="http://www.w3.org/2000/svg">
<rect width="120" height="100" fill="white"/>
<g clip-path="url(#clip0_11_121)">
<path d="M97.5641 49.8138H96.2048C95.9169 45.9791 92.7064 42.9464 88.7986 42.9464C87.8436 42.9464 86.9162 43.1245 86.0512 43.4694C85.2052 39.556 81.7163 36.6152 77.5533 36.6152C75.7402 36.6152 73.9869 37.1791 72.523 38.2191C70.4578 36.7445 67.9694 35.9417 65.4173 35.9417C62.7339 35.9417 60.1866 36.795 58.0509 38.4094C56.3466 39.6978 54.9966 41.4342 54.1609 43.3892C53.355 43.0977 52.4995 42.9466 51.6331 42.9466C47.7253 42.9466 44.5147 45.9792 44.2267 49.8139L27.2203 49.8136V19.1199C27.2203 16.5542 29.3077 14.4667 31.8734 14.4667C33.1161 14.4667 34.2845 14.9508 35.1636 15.8297L37.0722 17.7383C36.8475 17.9091 36.6344 18.093 36.4355 18.2919C36.2255 18.5019 36.0358 18.7252 35.8609 18.9577L33.947 17.0441C33.3908 16.4905 32.6545 16.1855 31.8734 16.1855C30.2555 16.1855 28.9391 17.5019 28.9391 19.1199V45.5072C28.9391 46.1544 29.4637 46.6791 30.1109 46.6791C30.7581 46.6791 31.2828 46.1544 31.2828 45.5072V19.1199C31.2828 18.7942 31.5478 18.5292 31.8734 18.5292C32.0328 18.5292 32.178 18.59 32.2917 18.7031L34.7612 21.1727C33.6206 25.0036 35.2473 29.9977 37.5744 32.3247C38.12 32.8574 39.0472 33.307 40.1889 33.3141C40.8592 33.3141 41.5959 33.1816 42.3808 32.9142C44.1305 32.3185 45.9889 31.0955 47.6139 29.4703C51.2892 25.795 52.5163 21.4789 50.4683 19.4308C48.9647 17.9272 46.4086 16.7585 43.7973 16.3806C42.1311 16.1394 40.6011 16.2317 39.2805 16.6319L36.8209 14.1724C35.4992 12.8508 33.7422 12.123 31.8734 12.123C28.0153 12.123 24.8766 15.2617 24.8766 19.1199V49.8138H22.4359C21.0927 49.8138 20 50.9066 20 52.2499V56.1239C20 57.4672 21.0928 58.5599 22.4359 58.5599H24.8375L27.582 72.861C28.5502 77.9058 32.2458 81.8597 36.958 83.3138C36.5644 83.7472 36.2364 84.2478 35.9986 84.8072C35.5608 85.8375 35.6683 87.0102 36.2861 87.9438C36.9039 88.8775 37.9411 89.4349 39.0606 89.4349H80.9389C82.0584 89.4349 83.0956 88.8775 83.7134 87.9438C84.3312 87.01 84.4386 85.8375 84.0008 84.8072C83.7631 84.2477 83.435 83.7472 83.0416 83.3138C87.7538 81.8597 91.4494 77.906 92.4175 72.861L95.162 58.5599H97.5636C98.9069 58.5599 99.9995 57.467 99.9995 56.1239V52.2499C100 50.9066 98.9072 49.8138 97.5641 49.8138ZM51.6328 45.2902C52.5477 45.2902 53.4436 45.5356 54.2239 46.0002C54.5339 46.1849 54.9119 46.2163 55.2484 46.0853C55.5848 45.9544 55.842 45.6756 55.9458 45.33C57.19 41.1824 61.0847 38.2855 65.417 38.2855C67.3434 38.2855 69.2241 38.8531 70.8241 39.8986C70.2984 40.5902 69.6973 41.5549 69.4781 42.5741C69.3419 43.2067 69.7445 43.8302 70.3772 43.9663C70.4603 43.9842 70.5431 43.9927 70.6248 43.9927C71.1652 43.9927 71.6511 43.6167 71.7694 43.0672C71.9777 42.0991 72.9495 40.9545 73.3353 40.5642C74.4992 39.5291 75.9958 38.9589 77.5531 38.9589C81.0458 38.9589 83.8889 41.7936 83.9031 45.283C83.9022 45.3039 83.9016 45.3255 83.9016 45.348C83.9016 45.791 84.1514 46.196 84.547 46.395C84.9427 46.5941 85.4169 46.5528 85.7723 46.2886C86.6512 45.6355 87.6975 45.2903 88.7984 45.2903C91.4131 45.2903 93.5734 47.2731 93.8536 49.8138H46.5777C46.8578 47.273 49.0181 45.2902 51.6328 45.2902ZM45.9566 27.8131C44.6002 29.1695 43.0214 30.2202 41.6252 30.6956C40.5203 31.0719 39.6255 31.0613 39.2316 30.6674C38.8377 30.2735 38.8272 29.3786 39.2034 28.2738C39.6789 26.8775 40.7295 25.2988 42.0859 23.9424C43.4423 22.586 45.0211 21.5353 46.4173 21.0599C47.1122 20.8724 48.055 20.5322 48.8109 21.088C49.6 21.8772 48.8803 24.8894 45.9566 27.8131ZM45.0634 19.0603C43.5441 19.6877 41.9328 20.7811 40.4286 22.2852C38.9245 23.7892 37.8311 25.4005 37.2037 26.9199C36.4703 24.4227 36.5081 21.5336 38.0927 19.9491C39.677 18.3647 42.5661 18.3269 45.0634 19.0603ZM90.1161 72.4192C89.098 77.7244 84.4384 81.5747 79.0366 81.5747H74.2483C73.6011 81.5747 73.0764 82.0994 73.0764 82.7466C73.0764 83.3938 73.6011 83.9185 74.2483 83.9185H79.1156C80.3072 83.9185 81.3781 84.627 81.8441 85.7236C82.0305 86.1625 81.8467 86.518 81.7591 86.6505C81.6714 86.783 81.4161 87.0911 80.9392 87.0911H39.0608C38.5839 87.0911 38.3286 86.783 38.2409 86.6505C38.1533 86.518 37.9695 86.1625 38.1561 85.7236C38.6219 84.6269 39.6928 83.9185 40.8844 83.9185H78.7736C79.4208 83.9185 79.9455 83.3938 79.9455 82.7466C79.9455 82.0994 79.4208 81.5747 78.7736 81.5747H40.9636C35.5617 81.5747 30.902 77.7242 29.8841 72.4192L27.2242 58.5599H35.9528L36.4908 61.5253C36.5934 62.0914 37.0867 62.4883 37.6425 62.4883C37.7119 62.4883 37.7823 62.4821 37.8531 62.4692C38.49 62.3538 38.9125 61.7438 38.797 61.107L38.335 58.56H81.6656L81.2036 61.107C81.088 61.7439 81.5106 62.3538 82.1475 62.4692C82.2183 62.4822 82.2886 62.4883 82.3581 62.4883C82.9138 62.4883 83.407 62.0914 83.5098 61.5253L84.0478 58.5599H92.7764L90.1161 72.4192ZM97.6562 56.1239C97.6562 56.1749 97.6148 56.2161 97.5641 56.2161H22.4359C22.385 56.2161 22.3438 56.1747 22.3438 56.1239V52.2499C22.3438 52.1989 22.3852 52.1575 22.4359 52.1575H97.5641C97.615 52.1575 97.6562 52.1989 97.6562 52.2499V56.1239Z" fill="black"/>
<path d="M84.7389 15.3355H85.9937V16.5903C85.9937 17.2375 86.5184 17.7622 87.1656 17.7622C87.8128 17.7622 88.3375 17.2375 88.3375 16.5903V15.3355H89.5922C90.2394 15.3355 90.764 14.8108 90.764 14.1636C90.764 13.5164 90.2394 12.9917 89.5922 12.9917H88.3375V11.7371C88.3375 11.0899 87.8128 10.5652 87.1656 10.5652C86.5184 10.5652 85.9937 11.0899 85.9937 11.7371V12.9917H84.7389C84.0917 12.9917 83.567 13.5164 83.567 14.1636C83.567 14.8108 84.0917 15.3355 84.7389 15.3355Z" fill="black"/>
<path d="M67.3752 27.972H68.8316V29.4284C68.8316 31.2492 70.3128 32.7306 72.1336 32.7306C73.9544 32.7306 75.4356 31.2494 75.4356 29.4284V27.972H76.892C78.7128 27.972 80.1941 26.4908 80.1941 24.67C80.1941 22.8492 78.7128 21.3678 76.892 21.3678H75.4356V19.9114C75.4356 18.0906 73.9544 16.6094 72.1336 16.6094C70.3128 16.6094 68.8316 18.0906 68.8316 19.9114V21.3678H67.3752C65.5544 21.3678 64.0731 22.8491 64.0731 24.67C64.073 26.4908 65.5544 27.972 67.3752 27.972ZM67.3752 23.7116H70.0034C70.6506 23.7116 71.1753 23.1869 71.1753 22.5397V19.9116C71.1753 19.3831 71.6052 18.9533 72.1336 18.9533C72.662 18.9533 73.0919 19.3831 73.0919 19.9116V22.5398C73.0919 23.187 73.6166 23.7117 74.2637 23.7117H76.892C77.4205 23.7117 77.8503 24.1416 77.8503 24.6702C77.8503 25.1986 77.4205 25.6284 76.892 25.6284H74.2637C73.6166 25.6284 73.0919 26.1531 73.0919 26.8003V29.4286C73.0919 29.957 72.662 30.387 72.1336 30.387C71.6052 30.387 71.1753 29.9572 71.1753 29.4286V26.8003C71.1753 26.1531 70.6506 25.6284 70.0034 25.6284H67.3752C66.8467 25.6284 66.4169 25.1986 66.4169 24.6702C66.4167 24.1416 66.8467 23.7116 67.3752 23.7116Z" fill="black"/>
<path d="M50.7563 30.3636C51.2064 30.8138 51.9363 30.8138 52.3866 30.3636C52.8367 29.9135 52.8367 29.1836 52.3866 28.7333C51.9364 28.283 51.2066 28.2831 50.7563 28.7333C50.3061 29.1836 50.3061 29.9135 50.7563 30.3636Z" fill="black"/>
<path d="M56.0244 34.0016C56.4745 33.5514 56.4745 32.8216 56.0244 32.3714C55.5742 31.9213 54.8444 31.9213 54.3941 32.3714C53.9439 32.8216 53.9439 33.5514 54.3941 34.0016C54.8444 34.4517 55.5742 34.4517 56.0244 34.0016Z" fill="black"/>
<path d="M49.1227 33.1661C48.6725 33.6163 48.6725 34.3461 49.1227 34.7963C49.5728 35.2464 50.3027 35.2464 50.753 34.7963C51.2031 34.3461 51.2031 33.6163 50.753 33.1661C50.3027 32.716 49.5728 32.716 49.1227 33.1661Z" fill="black"/>
<path d="M53.5756 38.7719C54.2123 38.7719 54.7284 38.2558 54.7284 37.6191C54.7284 36.9824 54.2123 36.4663 53.5756 36.4663C52.9389 36.4663 52.4228 36.9824 52.4228 37.6191C52.4228 38.2558 52.9389 38.7719 53.5756 38.7719Z" fill="black"/>
</g>
<defs>
<clipPath id="clip0_11_121">
<rect width="80" height="80" fill="white" transform="translate(20 10)"/>
</clipPath>
</defs>
</svg>
