<svg width="120" height="100" viewBox="0 0 120 100" fill="none" xmlns="http://www.w3.org/2000/svg">
<rect width="120" height="100" fill="white"/>
<path d="M60.1329 82.974C51.2666 82.974 42.4021 82.919 33.5358 83.0015C30.0003 83.0326 27.1462 80.2243 27.159 76.6155C27.2195 58.9068 27.1865 41.1998 27.1865 23.491C27.1865 19.7229 29.7383 17.1601 33.4918 17.1601C51.2226 17.1582 68.9534 17.1582 86.6841 17.1601C90.4413 17.1601 92.9986 19.7192 92.9986 23.4819C93.0004 41.2126 93.0004 58.9434 92.9986 76.6741C92.9986 80.3929 90.4303 82.9721 86.7281 82.9721C77.8636 82.9758 68.9992 82.974 60.1329 82.974ZM90.8113 30.3679C70.2888 30.3679 49.8505 30.3679 29.3756 30.3679C29.3756 30.5511 29.3756 30.6867 29.3756 30.8204C29.3756 46.1312 29.3719 61.4439 29.3793 76.7547C29.3811 79.1399 31.0481 80.7812 33.457 80.7812C51.2134 80.7867 68.9717 80.7849 86.7281 80.7757C87.2007 80.7757 87.6898 80.7043 88.1405 80.5669C89.8038 80.0576 90.8095 78.5848 90.8095 76.6888C90.8132 61.4238 90.8113 46.1569 90.8113 30.8918C90.8113 30.7325 90.8113 30.5749 90.8113 30.3679ZM90.8058 28.0982C90.8058 26.3726 90.8205 24.7276 90.7949 23.0844C90.7894 22.7052 90.6923 22.3131 90.5695 21.9504C90.0071 20.2761 88.5746 19.351 86.5724 19.351C68.9296 19.3492 51.2867 19.351 33.6439 19.351C33.4845 19.351 33.3233 19.3473 33.1639 19.3547C31.2826 19.4316 29.7566 20.6553 29.4929 22.5183C29.3152 23.775 29.4013 25.0683 29.3774 26.3451C29.3665 26.9295 29.3756 27.5138 29.3756 28.1C49.8963 28.0982 70.3181 28.0982 90.8058 28.0982Z" fill="black"/>
<path d="M60.0577 76.3922C51.8069 76.3922 43.558 76.3922 35.3072 76.3922C34.0707 76.3922 33.7684 76.0936 33.7684 74.868C33.7684 61.9789 33.7684 49.0898 33.7684 36.1989C33.7684 35.021 34.0817 34.7114 35.2742 34.7114C51.8198 34.7114 68.3671 34.7114 84.9127 34.7114C86.1016 34.7114 86.4185 35.0247 86.4185 36.2007C86.4185 49.1137 86.4185 62.0247 86.4185 74.9377C86.4185 76.0679 86.0887 76.3922 84.9456 76.3922C76.6491 76.3922 68.3543 76.3922 60.0577 76.3922ZM84.1799 74.1719C84.1799 61.7225 84.1799 49.3298 84.1799 36.9555C68.0814 36.9555 52.0304 36.9555 35.9942 36.9555C35.9942 49.3884 35.9942 61.7646 35.9942 74.1719C52.0652 74.1719 68.0978 74.1719 84.1799 74.1719Z" fill="black"/>
<path d="M60.0541 27.028C57.6085 27.028 55.163 27.0299 52.7174 27.028C51.6696 27.028 51.3215 26.68 51.3197 25.6376C51.3179 24.3352 51.3142 23.0327 51.3215 21.7303C51.3252 20.829 51.7062 20.4534 52.624 20.4534C57.6067 20.4498 62.5876 20.4498 67.5703 20.4534C68.4807 20.4534 68.8618 20.8345 68.8654 21.7376C68.8709 23.0858 68.8728 24.4341 68.8654 25.7824C68.8599 26.6379 68.4661 27.0244 67.5978 27.0262C65.0826 27.0299 62.5693 27.028 60.0541 27.028ZM66.6269 24.8115C66.6269 24.0549 66.6269 23.3625 66.6269 22.6737C62.2432 22.6737 57.9108 22.6737 53.5491 22.6737C53.5491 23.3991 53.5491 24.0915 53.5491 24.8115C57.9199 24.8115 62.2523 24.8115 66.6269 24.8115Z" fill="black"/>
<path d="M40.3449 23.6999C40.3522 25.552 38.9087 27.0193 37.0768 27.0248C35.2339 27.0303 33.7703 25.5776 33.7703 23.7402C33.7703 21.901 35.2248 20.4502 37.0731 20.4502C38.8757 20.4502 40.3375 21.9029 40.3449 23.6999ZM37.0273 22.6448C36.4613 22.6631 35.9465 23.2053 35.9649 23.7659C35.9832 24.3356 36.5254 24.8485 37.086 24.8284C37.6557 24.8082 38.1649 24.2715 38.1503 23.7073C38.132 23.1431 37.5879 22.6265 37.0273 22.6448Z" fill="black"/>
<path d="M49.1215 23.6999C49.1288 25.552 47.6853 27.0193 45.8534 27.0248C44.0105 27.0303 42.5469 25.5776 42.5469 23.7402C42.5469 21.901 44.0014 20.4502 45.8498 20.4502C47.6523 20.4502 49.1142 21.9029 49.1215 23.6999ZM45.8333 24.8302C46.3993 24.8266 46.9232 24.3008 46.9232 23.7348C46.9232 23.1724 46.392 22.643 45.8296 22.6448C45.2672 22.6466 44.7378 23.1779 44.7396 23.7402C44.7415 24.3063 45.2727 24.8339 45.8333 24.8302Z" fill="black"/>
<path d="M77.6419 23.7146C77.6438 25.563 76.1948 27.023 74.3592 27.0248C72.52 27.0266 71.0637 25.5648 71.0673 23.7256C71.071 21.8901 72.5328 20.4465 74.3849 20.4502C76.1838 20.4557 77.6401 21.9139 77.6419 23.7146ZM74.3757 22.6448C73.8151 22.6301 73.2747 23.1504 73.2619 23.7164C73.2491 24.2788 73.7657 24.8192 74.3317 24.8302C74.896 24.8412 75.429 24.3301 75.4455 23.7604C75.4602 23.1999 74.9436 22.6594 74.3757 22.6448Z" fill="black"/>
<path d="M79.8438 23.7532C79.8402 21.9103 81.2892 20.4558 83.1339 20.4522C84.9401 20.4485 86.4074 21.8938 86.4184 23.6891C86.4294 25.5429 84.9914 27.0176 83.1613 27.0268C81.3148 27.0341 79.8475 25.5869 79.8438 23.7532ZM83.1082 22.6449C82.5422 22.6577 82.0238 23.1963 82.0366 23.7587C82.0494 24.3266 82.588 24.845 83.1485 24.8303C83.7182 24.8157 84.2312 24.2826 84.2202 23.7184C84.211 23.1523 83.6706 22.6321 83.1082 22.6449Z" fill="black"/>
<path d="M46.9268 43.455C55.7144 43.455 64.4341 43.455 73.2601 43.455C73.2601 42.4932 73.2583 41.5223 73.2601 40.5514C73.2619 39.4193 73.5843 39.1006 74.7329 39.1006C76.0116 39.0988 77.2921 39.0951 78.5707 39.1024C79.439 39.1079 79.8274 39.4908 79.8365 40.3481C79.8457 41.2842 79.8127 42.2221 79.8567 43.1564C79.8677 43.3872 80.049 43.7023 80.2469 43.8195C81.6593 44.6585 82.3297 46.1112 81.934 47.584C81.5145 49.1393 80.2744 50.0644 78.589 50.0644C66.2532 50.0662 53.9191 50.0662 41.5832 50.0644C39.9071 50.0644 38.6614 49.1265 38.2492 47.5694C37.8609 46.102 38.5387 44.6512 39.9547 43.8103C40.1507 43.6949 40.3229 43.3744 40.3339 43.1417C40.376 42.2075 40.3449 41.2695 40.354 40.3334C40.3614 39.5054 40.7461 39.1097 41.5631 39.1043C42.9571 39.0951 44.3494 39.0933 45.7434 39.1043C46.5202 39.1116 46.9158 39.5128 46.925 40.2913C46.936 41.319 46.9268 42.3467 46.9268 43.455ZM60.0156 47.8753C66.1579 47.8753 72.3002 47.8771 78.4443 47.8735C79.2961 47.8735 79.8255 47.4466 79.8329 46.7853C79.8402 46.1203 79.3108 45.6789 78.4626 45.6789C66.222 45.677 53.9832 45.677 41.7426 45.6789C40.889 45.6789 40.3614 46.1039 40.354 46.767C40.3467 47.432 40.8761 47.8625 41.7243 47.8753C41.8837 47.8771 42.0449 47.8753 42.2042 47.8753C48.1414 47.8753 54.0785 47.8753 60.0156 47.8753ZM44.6956 43.4751C44.6956 42.7222 44.6956 42.0298 44.6956 41.3373C43.9592 41.3373 43.2667 41.3373 42.5944 41.3373C42.5944 42.0792 42.5944 42.7735 42.5944 43.4751C43.3089 43.4751 43.9683 43.4751 44.6956 43.4751ZM75.4822 41.3153C75.4822 42.0682 75.4822 42.7442 75.4822 43.4476C76.2076 43.4476 76.9 43.4476 77.6035 43.4476C77.6035 42.7167 77.6035 42.0243 77.6035 41.3153C76.8817 41.3153 76.2058 41.3153 75.4822 41.3153Z" fill="black"/>
<path d="M60.0247 72.0051C56.8702 72.0051 53.7176 72.0051 50.5631 72.0051C49.605 72.0051 49.1379 71.6515 49.1269 70.9279C49.1159 70.197 49.5922 69.8178 50.5265 69.8178C56.9252 69.816 63.324 69.8398 69.7227 69.794C70.7046 69.7867 71.4282 70.6898 70.8933 71.4299C70.6716 71.7358 70.1477 71.9758 69.7594 71.9813C66.5151 72.0234 63.2708 72.0051 60.0247 72.0051Z" fill="black"/>
<path d="M51.4589 59.9199C51.4223 58.8299 51.8638 57.9286 52.5745 57.1391C53.0252 56.6372 53.3696 56.1132 53.3989 55.3933C53.4227 54.8034 53.9558 54.4133 54.5401 54.4627C55.1447 54.514 55.555 54.8639 55.5403 55.4629C55.5275 56.0418 55.3755 56.6243 55.2198 57.1885C55.1447 57.4615 54.9651 57.7363 54.7636 57.9415C53.3677 59.3575 53.201 60.2753 54.7325 61.9203C55.1135 62.3288 55.282 62.9535 55.4799 63.503C55.5843 63.7906 55.5843 64.1387 55.5477 64.4483C55.4781 65.0455 55.108 65.3935 54.4998 65.4119C53.8898 65.4302 53.4447 65.1004 53.4044 64.5124C53.3549 63.7687 53.0123 63.2283 52.5452 62.708C51.8399 61.9185 51.4131 61.0099 51.4589 59.9199Z" fill="black"/>
<path d="M58.0409 59.9326C58.0134 58.828 58.4384 57.9432 59.1308 57.1702C59.5961 56.6499 59.9534 56.1113 59.9863 55.3658C60.012 54.7851 60.567 54.4004 61.1514 54.4645C61.7541 54.5323 62.1022 54.8876 62.1425 55.4922C62.1992 56.3422 61.9483 57.1152 61.4573 57.804C61.2467 58.1008 61.003 58.3737 60.7722 58.6577C60.0395 59.5608 60.0871 60.299 60.774 61.2498C61.2723 61.9385 61.6717 62.7061 62.0509 63.47C62.1828 63.7338 62.1608 64.0983 62.137 64.4116C62.0912 65.0161 61.7303 65.3623 61.1276 65.4173C60.5451 65.4704 60.0083 65.0784 59.9827 64.4885C59.9534 63.7686 59.6108 63.2447 59.1583 62.7427C58.4311 61.9331 57.9859 61.0098 58.0409 59.9326Z" fill="black"/>
<path d="M64.6228 59.9146C64.588 58.8247 65.0332 57.9234 65.7421 57.1357C66.1946 56.6338 66.5316 56.108 66.5628 55.3881C66.5884 54.8 67.1252 54.4117 67.7095 54.4648C68.314 54.5198 68.7665 54.8843 68.6969 55.4687C68.6035 56.2381 68.336 56.9928 68.0777 57.7292C67.9788 58.015 67.7059 58.2421 67.5007 58.4858C66.5774 59.5849 66.6159 60.2609 67.4732 61.3911C67.9568 62.0305 68.2994 62.7834 68.6475 63.5125C68.7665 63.7616 68.7354 64.095 68.7207 64.3881C68.6896 64.989 68.2426 65.4158 67.6601 65.4158C67.0501 65.4176 66.6086 65.097 66.5701 64.5072C66.5225 63.7634 66.1653 63.2304 65.7109 62.7028C64.8848 61.7429 64.6192 61.0229 64.6228 59.9146Z" fill="black"/>
</svg>
