<svg width="120" height="100" viewBox="0 0 120 100" fill="none" xmlns="http://www.w3.org/2000/svg">
<rect width="120" height="100" fill="white"/>
<path d="M83.9896 22.2221C85.5072 24.6701 86.8489 27.3556 87.7264 30.2572C89.9201 37.523 89.422 44.456 85.1172 50.8994C84.8099 51.3615 85.06 51.6137 85.255 51.9486C87.985 56.6539 88.5636 61.6094 86.7768 66.7472C85.4267 70.6302 82.5272 72.6586 78.4788 73.1524C78.1355 73.1948 77.7582 73.4195 77.5102 73.6717C76.5119 74.6827 75.5602 75.7383 74.5598 76.8107C75.7001 77.7158 76.5034 78.9833 76.7769 80.5538C76.8298 80.8612 76.8447 81.1897 76.7938 81.4949C76.6709 82.2325 76.0965 82.72 75.4394 82.7009C74.7845 82.684 74.2779 82.1689 74.261 81.3593C74.2355 80.166 73.7099 79.263 72.7307 78.6547C72.3746 78.4343 71.8828 78.4322 71.4526 78.3304C71.4081 78.4089 71.3636 78.4894 71.319 78.5678C71.4611 78.801 71.6073 79.0341 71.7472 79.2694C72.3937 80.3546 72.8684 81.4907 72.7391 82.7921C72.648 83.7098 72.1075 84.2376 71.3318 84.1888C70.5539 84.1401 70.1491 83.5742 70.1936 82.6098C70.255 81.3126 69.492 80.4288 68.7714 79.5089C68.7714 80.6747 68.8116 81.7683 68.7523 82.8557C68.7269 83.3135 68.5213 83.7755 68.3347 84.2079C68.0168 84.9434 67.3937 85.2211 66.7387 84.9752C66.035 84.7124 65.8273 84.085 65.9799 83.2923C66.1431 82.4296 66.1749 81.5373 66.2131 80.6556C66.23 80.2359 65.9566 80.1193 65.5264 80.1236C62.1923 80.149 58.8562 80.1596 55.5221 80.1342C55.005 80.1299 54.7443 80.291 54.7655 80.7743C54.7994 81.5797 54.8036 82.4 54.9774 83.1799C55.1703 84.0511 55.0113 84.67 54.3013 84.9625C53.6018 85.2486 52.9533 84.9328 52.6057 84.1104C51.9846 82.6437 51.9444 81.1409 52.4425 79.5725C51.548 80.0388 50.6811 81.5627 50.8253 82.5674C50.9461 83.4131 50.5031 84.1698 49.6553 84.2164C48.8753 84.2609 48.2585 83.5699 48.2288 82.6246C48.178 81.1219 48.8562 79.8692 49.7697 78.4407C49.3289 78.4407 48.9728 78.3432 48.7078 78.4576C47.6078 78.9324 46.9465 79.7738 46.8003 80.9841C46.6498 82.2452 46.2237 82.7645 45.3929 82.7009C44.5239 82.6331 44.1508 81.9888 44.2653 80.7064C44.4137 79.0532 45.2403 77.7772 46.2937 76.94C45.5646 76.0859 44.7676 75.272 44.1169 74.3542C43.4662 73.4386 42.6375 73.1694 41.5629 72.968C37.3556 72.1795 34.827 69.5386 33.8033 65.4373C32.6078 60.6429 33.2607 56.105 35.8105 51.8574C36.0076 51.5289 36.1475 51.2788 35.874 50.874C31.6922 44.6849 31.1369 37.9681 33.0593 30.9185C33.8562 27.9957 35.1174 25.2615 36.724 22.6947C37.0292 22.2072 37.0101 21.919 36.6371 21.4696C35.8613 20.537 35.1301 19.5599 34.4836 18.5341C34.1572 18.0148 33.9622 17.3683 33.8668 16.7558C33.5934 15.0135 35.2827 13.6104 37.0355 14.0979C39.3776 14.7507 41.6901 15.5201 44.0512 16.0924C51.6858 17.9427 59.4306 18.3582 67.2453 17.6757C72.8091 17.1903 78.2266 16.0267 83.5064 14.2208C84.6806 13.8202 85.7213 13.9516 86.5437 14.8991C87.3682 15.8486 87.4042 16.9381 86.7556 17.9872C85.8993 19.3777 84.9731 20.7236 83.9896 22.2221ZM36.5587 16.6413C36.4993 16.7155 36.44 16.7897 36.3806 16.8639C37.1585 17.9215 37.8982 19.011 38.7269 20.0262C39.8567 21.4082 39.9584 22.3047 38.994 23.8244C37.6417 25.9546 36.5311 28.1992 35.7723 30.607C33.9092 36.5311 33.9495 42.3683 37.0652 47.8769C40.8889 54.6361 47.0652 57.6586 54.5874 58.2394C56.5035 58.3877 58.4513 58.0931 60.3759 58.1906C63.1355 58.3305 65.8803 58.3835 68.6166 57.9447C72.6586 57.3004 76.4441 55.9651 79.5704 53.2627C85.5517 48.091 87.3364 41.459 86.0053 33.8541C85.3589 30.164 83.8498 26.8003 81.8786 23.6273C81.0583 22.3069 81.1579 21.3298 82.1668 20.1619C82.3746 19.9224 82.6056 19.6977 82.7879 19.4391C83.3983 18.5701 83.9896 17.6905 84.5873 16.813C68.481 21.8363 52.5188 21.8575 36.5587 16.6413ZM77.7561 57.6226C77.453 57.7455 77.3279 57.79 77.2092 57.8472C72.4933 60.1427 67.5166 61.1283 62.2813 60.8167C61.5692 60.7743 60.8464 60.6366 60.147 60.7107C55.8994 61.1601 51.7409 60.7807 47.6926 59.4178C46.228 58.924 44.8058 58.3072 43.3391 57.737C42.4128 60.0325 42.0864 62.436 42.4276 64.8777C43.4302 72.0714 49.5323 77.5208 56.8447 77.7857C58.2394 77.8366 59.6425 77.6882 61.0414 77.6628C62.6501 77.6331 64.2801 77.8069 65.8634 77.6034C73.6611 76.6051 79.4411 69.2631 78.5848 61.4928C78.4449 60.1999 78.0465 58.9367 77.7561 57.6226ZM41.406 70.3525C39.3162 65.6069 39.2632 60.9375 41.0923 56.3169C39.9669 55.3271 38.905 54.3945 37.7943 53.4195C35.4523 57.7646 35.0347 62.1923 36.9402 66.7196C37.735 68.6081 39.2865 69.7633 41.406 70.3525ZM79.5895 70.3652C81.9125 69.6827 83.4746 68.339 84.2885 66.2173C85.3059 63.5679 85.4903 60.821 84.9371 58.0401C84.6149 56.4187 84.0681 54.8714 83.1673 53.4577C82.0375 54.4433 80.9693 55.3759 79.8926 56.3148C81.7451 60.9905 81.6518 65.6323 79.5895 70.3652Z" fill="black"/>
<path d="M60.5582 27.8556C62.5124 25.7827 64.8545 24.4389 67.6671 23.9408C73.4789 22.915 79.1868 26.071 81.372 31.5733C83.0062 35.6936 83.5848 39.9242 82.0969 44.1993C80.3377 49.2566 76.8807 52.4147 71.3932 52.9064C68.7947 53.1396 66.4462 52.226 64.3246 50.7402C64.1296 50.6046 63.9367 50.4647 63.7417 50.3312C63.7226 50.3185 63.6908 50.3269 63.6633 50.3248C61.2258 52.2027 59.5577 52.2006 57.3365 50.2824C56.8469 50.6046 56.353 50.9522 55.838 51.2638C50.5031 54.4833 44.2187 53.006 40.6366 47.6139C37.5803 43.0145 37.4594 38.0824 39.1084 32.951C40.3039 29.2291 42.4467 26.3147 46.1029 24.7971C51.1877 22.6882 55.7871 23.7458 59.8757 27.3172C60.0537 27.4741 60.2233 27.6415 60.3992 27.8005C60.414 27.8175 60.4437 27.8175 60.5582 27.8556ZM80.3885 38.9259C80.4013 36.8276 79.9011 34.8395 79.1571 32.9022C77.7603 29.2587 75.13 27.012 71.2894 26.4334C67.4848 25.8611 64.3055 27.1858 61.9019 30.2274C60.8655 31.5372 60.1215 31.5436 59.0893 30.2019C55.7553 25.859 49.5641 25.0175 45.1958 28.3092C43.2543 29.7717 42.1415 31.7619 41.4251 34.0383C40.2763 37.6839 40.253 41.2744 41.8999 44.7759C44.5811 50.4732 50.4692 52.0543 55.4268 48.4511C55.8528 48.1417 56.0308 47.8852 55.8719 47.2981C55.414 45.611 55.7065 44.0086 56.654 42.5207C58.3199 39.9094 62.5103 39.9285 64.1656 42.2769C65.2741 43.8496 65.5454 45.5495 65.1342 47.4041C65.0791 47.6521 65.1194 48.0696 65.2826 48.1989C68.9346 51.0984 73.5064 51.2383 76.8659 47.9107C79.3648 45.4414 80.3228 42.3511 80.3885 38.9259ZM62.7943 45.63C62.7625 45.4329 62.7413 45.0323 62.6311 44.6572C62.3322 43.6504 61.5649 43.1205 60.4882 43.1247C59.4157 43.129 58.6145 43.6652 58.3538 44.672C57.9723 46.1557 58.2945 47.5101 59.3649 48.6249C60.0982 49.388 60.8888 49.3689 61.6412 48.6165C62.4064 47.8513 62.7392 46.8933 62.7943 45.63Z" fill="black"/>
<path d="M54.03 37.7219C53.6887 38.8092 53.5213 39.9135 53.0211 40.8355C51.1517 44.2734 47.8621 43.1967 46.3742 41.3039C44.6871 39.1568 45.2 35.3734 47.3556 33.7011C49.1402 32.3171 51.8787 32.7897 53.0105 34.7948C53.5001 35.6638 53.6866 36.7045 54.03 37.7219ZM51.4484 38.0568C51.2301 37.3022 51.1474 36.713 50.8952 36.2085C50.467 35.3607 49.3479 35.2378 48.657 35.897C47.6438 36.8614 47.6841 39.1653 48.729 40.0958C49.3098 40.6129 50.0071 40.6638 50.4713 40.0343C50.9164 39.4281 51.1559 38.6693 51.4484 38.0568Z" fill="black"/>
<path d="M75.4712 38.0361C75.4797 39.2527 75.2021 40.3909 74.509 41.4062C72.9723 43.6571 69.8333 43.6571 68.286 41.4126C66.991 39.5346 66.9804 36.5652 68.2606 34.6682C69.8078 32.3749 72.9808 32.3706 74.528 34.6618C75.1575 35.5944 75.4734 36.7199 75.4712 38.0361ZM73.055 38.0467C72.8748 37.4342 72.7921 36.8153 72.5208 36.2918C71.9782 35.2405 70.8443 35.2235 70.2826 36.2557C69.6467 37.4236 69.6425 38.6572 70.3038 39.8187C70.8655 40.8085 71.9592 40.7915 72.5018 39.7826C72.7794 39.2655 72.8706 38.6487 73.055 38.0467Z" fill="black"/>
</svg>
