<svg width="120" height="100" viewBox="0 0 120 100" fill="none" xmlns="http://www.w3.org/2000/svg">
<rect width="120" height="100" fill="white"/>
<path d="M62.6752 14C64.0683 14.1407 65.4635 14.2529 66.8504 14.4283C72.2312 15.1055 77.4508 16.313 82.136 19.2053C83.9696 20.3373 85.632 21.706 86.5458 23.709C87.0006 24.7043 87.3759 25.8466 87.38 26.9235C87.4351 40.5834 87.4351 54.2433 87.4065 67.9031C87.3984 72.2069 85.4321 75.6438 82.3032 78.4484C77.8505 82.438 72.4759 84.4308 66.6791 85.4058C60.9251 86.3746 55.1976 86.1646 49.5354 84.7327C44.889 83.5578 40.6097 81.6221 37.03 78.3586C34.5457 76.0946 32.7936 73.3654 32.2102 69.9999C32.0634 69.1514 32.0328 68.2743 32.0328 67.4095C32.0246 54.2188 32.0675 41.028 32.0001 27.8373C31.9838 24.6064 33.3463 22.2179 35.7675 20.3047C38.88 17.8428 42.523 16.5231 46.3127 15.5644C49.4763 14.7649 52.6929 14.3039 55.9523 14.1285C56.2257 14.1142 56.4969 14.0428 56.7703 14C58.7386 14 60.7069 14 62.6752 14ZM35.3147 33.2364C35.2983 33.3833 35.2841 33.4526 35.2841 33.524C35.282 44.9586 35.2759 56.3931 35.2881 67.8297C35.2902 70.104 36.0449 72.1416 37.4196 73.9508C39.7061 76.9574 42.7902 78.8706 46.2311 80.2311C53.2049 82.9908 60.3928 83.3824 67.6969 81.9016C72.1843 80.9919 76.3452 79.303 79.8596 76.274C82.6377 73.8774 84.2042 70.9382 84.1858 67.1525C84.1308 56.1402 84.1675 45.1258 84.1675 34.1135C84.1675 33.8442 84.1675 33.575 84.1675 33.1976C83.939 33.3425 83.8289 33.4139 83.7167 33.4832C82.4256 34.2807 81.1528 35.1109 79.8311 35.8574C79.3987 36.1022 79.2579 36.3388 79.2579 36.8181C79.2743 42.5599 79.2681 48.2996 79.2661 54.0413C79.2661 54.3697 79.2681 54.6981 79.2335 55.0245C78.9663 57.5394 76.6247 59.2528 74.1628 58.7388C72.1394 58.3165 70.8197 56.6338 70.8136 54.3983C70.8013 49.4785 70.8095 44.5567 70.8095 39.637C70.8095 39.3657 70.8095 39.0965 70.8095 38.7864C70.4138 38.8435 70.116 38.921 69.8162 38.9231C69.0105 38.9333 68.829 39.3208 68.831 40.102C68.8616 49.5927 68.8514 59.0814 68.8514 68.5721C68.8514 68.8291 68.8575 69.0882 68.8412 69.3452C68.625 72.6821 65.2309 74.5648 62.4325 72.88C60.9251 71.9723 60.3703 70.5609 60.3744 68.8373C60.3907 59.4649 60.3826 50.0925 60.3826 40.718C60.3826 40.4263 60.3826 40.1367 60.3826 39.8369C60.1154 39.8165 59.9767 39.7981 59.838 39.7961C56.601 39.7736 53.3782 39.5717 50.1841 39.0332C45.9129 38.3132 41.7723 37.1914 37.9887 35.0089C37.0872 34.4827 36.2448 33.8565 35.3147 33.2364ZM65.596 53.4417C65.596 48.3098 65.5919 43.1779 65.5981 38.0481C65.6001 36.7773 66.0325 36.2776 67.2788 36.0471C68.729 35.7799 70.1792 35.5168 71.6254 35.2394C73.3041 34.9171 74.0587 35.5311 74.0587 37.2464C74.0608 42.8475 74.0587 48.4464 74.0608 54.0474C74.0608 54.282 74.0465 54.5207 74.0832 54.7491C74.1689 55.255 74.5258 55.6119 74.9929 55.5425C75.3356 55.4916 75.6905 55.1611 75.923 54.8633C76.0678 54.6798 76.0148 54.3248 76.0148 54.0454C76.0189 47.859 76.0311 41.6726 76.0046 35.4882C76.0005 34.4561 76.3962 33.7953 77.3427 33.4261C77.6914 33.2915 78.0321 33.1344 78.3686 32.9692C80.0595 32.139 81.677 31.1987 82.9233 29.7465C84.0573 28.4248 84.5775 26.9358 83.7228 25.2918C83.3435 24.5616 82.7825 23.8844 82.1767 23.3194C80.237 21.5102 77.8505 20.474 75.3825 19.6234C71.1644 18.1712 66.7995 17.5124 62.357 17.3349C55.4608 17.0595 48.6951 17.7102 42.2292 20.3251C40.0672 21.2001 38.0417 22.3179 36.4752 24.1128C35.2657 25.4957 34.9475 27.1397 35.7512 28.5777C36.155 29.2998 36.7037 29.9831 37.3217 30.5338C39.8305 32.7734 42.9044 33.9136 46.0761 34.8029C51.055 36.2021 56.1522 36.6223 61.3065 36.5101C63.1198 36.4714 63.644 37.0078 63.644 38.8395C63.644 48.8442 63.644 58.8509 63.644 68.8557C63.644 69.7511 63.9684 70.2202 64.5823 70.2406C65.2289 70.261 65.5858 69.7674 65.596 68.8393C65.5981 68.6762 65.596 68.511 65.596 68.3478C65.596 63.375 65.596 58.4083 65.596 53.4417Z" fill="black"/>
<path d="M59.7686 20.0376C64.2764 20.058 68.7535 20.3803 73.149 21.4531C75.0439 21.9162 76.8817 22.524 78.491 23.6805C80.9958 25.4816 80.9795 28.3759 78.4461 30.1484C76.5655 31.464 74.4116 32.0759 72.2067 32.5573C67.7418 33.5322 63.2157 33.7811 58.6631 33.7321C55.2854 33.6975 51.9239 33.4527 48.6013 32.8387C46.3188 32.4186 44.0589 31.9005 41.9967 30.7705C40.9748 30.2116 40.0427 29.5426 39.4879 28.4901C38.6027 26.8114 39.1962 24.939 40.9748 23.6703C42.7473 22.4077 44.7789 21.7999 46.8655 21.3206C51.1121 20.3456 55.4261 20.056 59.7686 20.0376ZM59.7564 23.2828C55.3955 23.3378 51.055 23.5948 46.8063 24.682C45.3785 25.0471 43.9691 25.4754 42.7698 26.3974C42.3333 26.7339 42.2354 27.0623 42.7555 27.3683C43.4163 27.7599 44.067 28.1964 44.7789 28.4616C47.6487 29.5365 50.6573 29.975 53.6944 30.2239C59.787 30.7236 65.8592 30.6461 71.8457 29.2795C73.3102 28.945 74.7502 28.3922 76.1148 27.7558C77.3733 27.1684 77.3692 26.6727 76.1454 26.0506C75.0296 25.4836 73.8385 25.0145 72.6289 24.6942C68.4169 23.5765 64.0948 23.3399 59.7564 23.2828Z" fill="black"/>
</svg>
