<svg width="120" height="90" viewBox="0 0 120 90" fill="none" xmlns="http://www.w3.org/2000/svg">
<rect width="120" height="90" fill="white"/>
<path d="M21 60.9759C21.118 60.8501 21.2786 60.676 21.445 60.5076C28.2368 53.712 35.0266 46.9164 41.8202 40.1247C44.6279 37.3151 48.0044 37.3132 50.8023 40.115C52.7528 42.0674 54.5697 42.0171 56.5782 40.1421C62.9791 34.1669 68.1067 27.172 72.9209 19.9198C73.8207 18.5653 74.7901 17.2844 76.1968 16.3962C80.2893 13.8111 85.653 14.9121 88.3639 18.902C91.0516 22.859 90.1325 28.2672 86.2238 31.0787C82.7583 33.5729 79.2057 35.9432 75.7499 38.449C71.5529 41.4908 67.8687 45.1169 64.2736 48.8321C62.9791 50.171 63.0081 52.1815 64.2581 53.5572C64.6141 53.95 65.0127 54.3061 65.3649 54.7027C67.3482 56.9357 67.3521 60.1884 65.3823 62.4329C65.1753 62.669 64.9508 62.8896 64.7302 63.1102C57.9733 69.8709 51.2145 76.6317 44.4615 83.3963C44.2757 83.5821 44.1499 83.8298 44.0242 84.0059C36.2785 76.2583 28.6547 68.6326 21 60.9759ZM57.7237 66.6279C59.7419 64.662 61.8394 62.7328 63.7976 60.6702C64.9257 59.4821 64.7651 57.5317 63.6679 56.2875C63.3487 55.9256 62.9868 55.6025 62.6579 55.2503C60.4675 52.8993 60.4133 49.5228 62.6269 47.2067C66.938 42.6982 71.4987 38.4703 76.6457 34.9119C79.3044 33.0737 81.9708 31.2451 84.612 29.3837C86.9436 27.739 87.9653 25.4596 87.4293 22.6578C86.8875 19.823 85.088 18.0197 82.2571 17.4624C79.523 16.9245 77.2591 17.8765 75.6105 20.1365C74.4457 21.7348 73.3137 23.3602 72.2282 25.0126C68.1551 31.2161 63.3777 36.8217 58.0333 41.9591C56.3905 43.538 54.5291 44.2094 52.2903 43.7044C50.9146 43.3948 49.9006 42.5163 48.9351 41.543C47.3291 39.9235 45.3032 39.937 43.6894 41.543C41.9789 43.2458 40.2742 44.9563 38.5714 46.6649C38.4263 46.81 38.3025 46.9726 38.1902 47.1003C44.7498 53.6598 51.2706 60.1768 57.7237 66.6279ZM40.6302 77.3457C41.7544 78.468 42.8264 79.538 43.8461 80.5558C47.8863 76.5137 51.9595 72.4406 55.9881 68.412C49.4982 61.9202 42.9677 55.3877 36.4739 48.892C32.4376 52.9284 28.3625 57.0034 24.3746 60.9914C28.14 64.7607 31.9364 68.561 35.818 72.4464C38.1941 70.0625 40.6186 67.6283 42.9735 65.2657C43.5385 65.7978 44.0764 66.3029 44.7633 66.9511C42.3156 69.3969 39.8833 71.8252 37.484 74.2207C37.9426 74.6948 38.4398 75.2114 38.9855 75.7765C42.2034 72.5586 45.4077 69.3524 48.5907 66.1693C49.1479 66.7053 49.6781 67.2142 50.247 67.7618C47.0137 70.9855 43.8055 74.182 40.6302 77.3457Z" fill="black"/>
<path d="M81.5219 26.7984C79.5772 26.7868 78.0679 25.2311 78.0931 23.2671C78.1183 21.3747 79.7011 19.8267 81.5876 19.8519C83.4742 19.877 85.0338 21.4521 85.0377 23.3329C85.0416 25.2524 83.4607 26.81 81.5219 26.7984ZM81.5548 24.4726C82.1933 24.4726 82.7138 23.9617 82.7138 23.3329C82.7138 22.7195 82.1662 22.1719 81.5567 22.1758C80.924 22.1796 80.417 22.6943 80.417 23.3329C80.417 23.9869 80.9027 24.4745 81.5548 24.4726Z" fill="black"/>
</svg>
