<svg width="120" height="100" viewBox="0 0 120 100" fill="none" xmlns="http://www.w3.org/2000/svg">
<rect width="120" height="100" fill="white"/>
<path d="M42.4863 88.5931C43.1231 85.6909 43.7393 82.878 44.3715 80.001C44.2799 79.9644 44.163 79.9048 44.0371 79.8659C43.0635 79.5612 42.7016 78.9679 43.0063 77.9738C43.8194 75.2984 44.6738 72.6367 45.5122 69.9704C45.597 69.7001 45.6932 69.4344 45.7825 69.1733C44.4929 68.4952 44.2867 68.0096 44.8204 66.6856C45.897 64.0171 47.008 61.3599 48.1052 58.6891C47.0469 57.8874 46.9232 57.4705 47.5463 56.2496C48.8176 53.7597 50.1187 51.2835 51.4518 48.7157C50.3935 47.9209 50.728 47.0115 51.3762 46.0288C52.8376 43.8138 54.2509 41.5667 55.7215 39.2738C55.5887 39.0768 55.4191 38.8225 55.197 38.4927C53.2064 39.2165 51.2067 39.9472 49.2047 40.6756C44.1378 42.5196 39.071 44.3635 34.0041 46.2075C33.869 46.2556 33.7293 46.361 33.6033 46.3449C33.0902 46.2831 32.4053 46.3518 32.1235 46.0517C31.8097 45.7196 31.6563 44.9706 31.796 44.517C32.6412 41.7935 33.9583 39.3036 35.7862 37.0977C38.2074 34.1749 41.1852 32.0285 44.7082 30.6313C44.8663 30.5671 45.0266 30.5053 45.1824 30.4366C45.2259 30.416 45.2603 30.3747 45.3725 30.2854C42.5527 29.5272 39.7994 28.7873 37.0484 28.0475C35.3945 27.6031 33.7476 27.1381 32.0892 26.7166C31.4203 26.5471 30.9233 26.247 30.8064 25.5232C30.6942 24.8383 31.0653 24.4077 31.5852 24.0274C36.3566 20.5228 41.6708 19.0613 47.5623 19.7371C47.6104 19.7417 47.6631 19.7165 47.7983 19.6844C47.5806 19.4485 47.3997 19.2377 47.205 19.043C44.8617 16.6974 42.5184 14.3518 40.1728 12.0062C39.6436 11.4771 39.055 10.9732 39.3894 10.0913C39.7169 9.23 40.4591 9.20252 41.2219 9.12922C48.0915 8.46723 54.0219 10.5288 58.9719 15.3162C60.0325 16.3401 60.9533 17.5358 61.7894 18.7544C62.6048 19.9432 63.2279 21.2626 63.9563 22.5568C64.0662 22.3255 64.1899 22.0758 64.3068 21.8215C68.2008 13.2478 77.0724 8.1557 86.4227 9.11547C87.2198 9.19794 88.0949 9.12693 88.4384 10.073C88.7958 11.0556 88.0651 11.5939 87.4787 12.178C85.1926 14.4595 82.9089 16.7455 80.6274 19.0316C80.4327 19.2263 80.2541 19.4393 79.9769 19.744C82.9753 19.4439 85.8019 19.547 88.5919 20.296C91.4163 21.0542 93.9886 22.3209 96.2884 24.1053C96.6732 24.4031 96.971 25.0307 96.9985 25.5232C97.0329 26.176 96.4739 26.5311 95.8326 26.7006C91.643 27.8184 87.4558 28.95 83.2685 30.0769C83.0234 30.1434 82.7806 30.219 82.5034 30.3014C83.7312 30.9016 84.9452 31.4078 86.0722 32.0606C90.9535 34.8895 94.2131 39.0493 96.0227 44.375C96.2311 44.9889 96.2769 45.5524 95.7913 46.0471C95.2759 46.5717 94.6804 46.5144 94.0459 46.2831C88.285 44.1803 82.5195 42.0867 76.7563 39.9885C74.1312 39.0333 71.5039 38.0781 68.7597 37.0771C68.3634 38.2178 67.9603 39.3333 67.5869 40.458C67.2914 41.3514 67.099 42.286 66.7302 43.1472C66.5516 43.5641 66.1255 44.052 65.7246 44.1505C65.1978 44.2811 65.0466 44.4895 64.9527 44.9591C64.5312 47.0573 64.0548 49.1464 63.6448 51.2469C63.3813 52.5983 63.2851 52.7518 61.8718 53.1091C61.6657 55.5074 61.4458 57.9469 61.2534 60.391C61.1549 61.6531 60.9395 61.9463 59.8515 62.2327C59.8515 64.7226 59.8355 67.1781 59.8584 69.6314C59.8721 71.0722 59.737 71.3173 58.3008 71.8006C58.681 74.2516 59.0498 76.7323 59.4552 79.2039C59.682 80.5805 59.4369 81.0616 58.0511 81.5014C58.4977 83.2216 58.9261 84.9556 59.398 86.6782C59.9248 88.5977 59.9408 88.5931 61.9016 88.5931C69.2751 88.5931 76.6486 88.5931 84.0221 88.5931C84.3085 88.5931 84.5994 88.5656 84.8788 88.6137C85.6187 88.7466 86.0654 89.2047 86.0654 89.9606C86.0677 90.7188 85.6187 91.1724 84.8811 91.3121C84.6314 91.3602 84.368 91.3327 84.1115 91.335C64.3915 91.335 44.6738 91.335 24.9539 91.335C24.6973 91.335 24.4339 91.3602 24.1843 91.3144C23.4467 91.1747 23 90.7234 23 89.9629C23 89.2047 23.4467 88.7466 24.1843 88.6137C24.4614 88.5634 24.7546 88.5931 25.0409 88.5931C30.527 88.5931 36.0153 88.5931 41.5013 88.5931C41.8174 88.5931 42.129 88.5931 42.4863 88.5931ZM65.5025 29.8341C71.5268 23.8213 77.6084 17.7534 83.6098 11.7657C83.5274 11.7657 83.2708 11.752 83.0143 11.768C75.3796 12.2193 68.6704 17.3205 66.1667 24.5749C65.5506 26.3638 65.0512 28.1666 65.5025 29.8341ZM62.7216 30.4434C62.6071 19.4347 53.0094 11.5733 44.147 11.8413C50.295 17.9962 56.5003 24.2107 62.7216 30.4434ZM59.0773 34.1588C59.0704 34.0901 59.0612 34.0237 59.0544 33.955C56.8302 33.3571 54.6129 32.7341 52.3772 32.1774C51.7564 32.024 51.0693 31.9575 50.4393 32.04C44.3165 32.8394 39.5978 35.8631 36.3154 41.1063C36.0222 41.5736 35.7817 42.0752 35.3968 42.7784C43.4484 39.8487 51.264 37.0038 59.0773 34.1588ZM92.1515 42.6731C91.0887 40.0686 89.4898 37.9154 87.3298 36.2685C82.9387 32.9196 78.2269 30.8351 72.5667 32.9379C71.3321 33.396 70.0173 33.632 68.7368 33.971C68.7391 34.0306 68.7437 34.0924 68.746 34.152C76.5478 36.99 84.3497 39.8327 92.1515 42.6731ZM92.2661 24.8154C92.1012 24.6688 92.0645 24.6253 92.0164 24.5978C91.895 24.5245 91.769 24.4558 91.643 24.3916C87.1007 22.1216 82.3912 21.7208 77.5122 23.0951C76.5524 23.3654 75.7713 23.8396 75.0727 24.5657C73.1508 26.5585 71.1695 28.4941 69.2133 30.4549C69.0323 30.6359 68.8674 30.8306 68.5536 31.1764C76.5616 29.0278 84.3405 26.9411 92.2661 24.8154ZM59.1689 31.1375C59.0635 30.9657 59.0337 30.8809 58.9742 30.8237C56.6538 28.4987 54.338 26.1691 52.0038 23.8579C51.7931 23.6495 51.4839 23.512 51.1975 23.4067C48.0113 22.2407 44.738 22.0277 41.4166 22.6164C39.394 22.9737 37.4698 23.638 35.493 24.7948C43.485 26.9342 51.2823 29.0233 59.1689 31.1375ZM57.0455 88.5679C56.4408 86.1994 55.8727 83.9065 55.2519 81.6274C55.1878 81.3937 54.835 81.1188 54.5831 81.0799C53.4836 80.9173 52.3726 80.8394 51.2685 80.7249C49.9171 80.5851 48.5679 80.4362 47.1317 80.2828C46.5086 83.0911 45.9062 85.7963 45.2923 88.5657C49.3101 88.5679 53.1537 88.5679 57.0455 88.5679ZM45.936 77.4012C49.5506 77.7906 52.9842 78.1616 56.4728 78.5396C56.1292 75.9626 55.8086 73.5667 55.4833 71.1249C53.1766 70.6507 50.87 70.1765 48.4671 69.6818C47.6265 72.2473 46.8041 74.7532 45.936 77.4012ZM56.9218 68.6235C56.9218 66.0809 56.9218 63.7262 56.9218 61.376C54.8373 60.7392 52.8399 60.1299 50.7806 59.5C49.727 61.9555 48.726 64.2919 47.6837 66.7246C50.8929 67.3843 53.8959 68.0005 56.9218 68.6235ZM50.4027 56.5061C53.1812 57.3605 55.8452 58.1806 58.5436 59.0121C58.7909 56.5382 59.0223 54.2499 59.2536 51.9501C57.5105 51.2262 55.8131 50.5207 54.0471 49.7877C52.8307 52.0303 51.6511 54.204 50.4027 56.5061ZM58.1748 40.6023C56.7844 42.7028 55.4466 44.7277 54.0585 46.8237C56.498 47.8361 58.768 48.7776 61.0724 49.7328C61.5878 47.4055 62.0711 45.2157 62.5682 42.9594C61.1549 42.2012 59.7324 41.4384 58.1748 40.6023ZM58.4748 37.6612C60.6647 38.8294 62.5911 39.8579 64.5519 40.907C65.1085 39.2555 65.6284 37.7093 66.1347 36.2089C64.8015 35.4026 63.5486 35.224 62.1879 35.9249C61.4091 36.3258 60.5272 36.5136 59.7141 36.8572C59.3269 37.0175 58.9925 37.3176 58.4748 37.6612Z" fill="black"/>
</svg>
