<svg width="120" height="100" viewBox="0 0 120 100" fill="none" xmlns="http://www.w3.org/2000/svg">
<rect width="120" height="100" fill="white"/>
<path d="M77.4347 80.2794C76.2061 81.848 74.6238 82.937 72.6424 83.4186C69.1592 84.2678 65.6033 82.6972 63.9306 79.5226C63.7065 79.0981 63.4863 78.9251 62.991 78.929C59.8774 78.9546 56.7618 78.9369 53.6482 78.9447C51.3365 78.9506 49.1232 79.4303 47.0357 80.4268C46.7939 80.5428 46.5324 80.8318 46.4774 81.0834C45.6558 84.826 42.6719 86.6875 38.9469 85.7676C37.6575 85.4491 36.5272 84.8457 35.5227 83.9926C34.4397 83.0707 33.335 82.1724 32.2892 81.2092C29.7457 78.8641 28.4778 75.9766 29.0341 72.5091C29.6434 68.7016 33.5178 66.3546 37.2191 67.4515C37.7872 67.6205 38.0801 67.5498 38.3926 67.0328C38.7563 66.4313 39.2516 65.9065 39.745 65.2794C36.425 63.5929 33.8303 61.2498 32.8357 57.517C31.8528 53.8274 32.6371 50.4897 34.9389 47.4272C34.6303 47.0773 34.3296 46.7373 33.9954 46.3559C32.6961 48.1015 31.041 49.1433 28.9437 49.4499C26.9426 49.7428 25.1637 49.1177 23.5007 48.0936C23.0152 47.7948 22.8855 47.2857 23.0997 46.7314C24.1003 44.1505 26.7932 42.3499 29.494 42.4639C29.8341 42.4777 30.1722 42.5406 30.6852 42.5996C30.1958 42.0354 29.7928 41.5735 29.3899 41.1096C28.7058 40.3213 28.7097 39.8024 29.4331 39.0692C30.4159 38.0746 31.389 37.0701 32.4072 36.1129C32.7924 35.7492 33.2917 35.5074 33.8421 35.1399C33.3998 32.8754 33.4824 30.4439 34.3453 28.0969C34.8171 26.8153 35.4323 25.5808 36.0574 24.3641C36.5193 23.4677 37.6928 23.393 38.143 24.2579C39.1121 26.1174 40.2482 27.9121 40.5529 30.0586C40.9047 32.5294 40.3661 34.7821 38.9745 36.8323C38.4791 37.5616 37.9307 38.2535 37.3547 39.0338C37.9268 39.6884 38.4988 40.3469 39.0747 41.0054C39.3165 41.2826 39.5622 41.5558 39.8059 41.831C41.0856 43.2738 41.0875 43.2738 42.8429 42.3971C43.2537 42.1927 43.6606 41.9823 44.1225 41.7465C42.5362 39.1636 41.7637 36.4234 41.8483 33.4553C41.9328 30.5481 42.6247 27.7902 43.9181 25.1543C43.8139 25.0678 43.7294 24.9852 43.6331 24.9184C40.4802 22.7463 39.7155 18.6892 41.8974 15.6915C44.0911 12.6782 48.3802 12.0904 51.3365 14.5102C52.1051 15.1392 52.5769 15.1589 53.4516 14.7382C58.4896 12.3204 63.5296 12.4325 68.487 15.0272C68.9371 15.263 69.1769 15.2198 69.5484 14.8738C71.6045 12.9553 74.553 12.4875 76.9885 13.6433C79.3571 14.7677 80.7979 17.1855 80.68 19.8371C80.5876 21.8854 79.648 23.4422 77.5192 25.0894C77.9674 26.3828 78.5001 27.6467 78.8421 28.9598C80.0942 33.7659 79.705 38.3321 76.7113 42.4875C76.5796 42.6703 76.5993 43.0851 76.7153 43.3052C77.6627 45.1313 78.6691 46.926 79.6166 48.7521C81.9282 53.2063 83.0761 57.9475 83.029 62.9678C83.025 63.3688 83.1607 63.6007 83.4536 63.8897C84.5327 64.9492 85.5706 66.0559 86.577 67.1842C86.8522 67.4928 87.0075 67.6382 87.4655 67.4987C92.187 66.0657 96.6039 69.8968 95.9395 74.8011C95.5699 77.5275 94.3532 79.7625 92.2421 81.5217C91.1118 82.4633 90.0366 83.4756 88.865 84.3601C87.0881 85.7007 85.0752 86.2924 82.8481 85.858C80.6112 85.4236 78.8362 83.5955 78.4804 81.335C78.3723 80.702 78.0952 80.3816 77.4347 80.2794ZM60.6833 45.8685C60.6833 45.9058 60.6833 45.9451 60.6833 45.9825C62.2027 45.9825 63.7242 46.0316 65.2417 45.9726C70.1558 45.7859 73.7766 43.4979 75.9742 39.1007C77.5723 35.9025 77.3797 32.5609 76.4872 29.2035C75.6695 26.1233 73.865 23.5739 72.0232 21.0735C67.4118 14.8168 58.4935 13.5391 52.2447 18.1349C50.1768 19.6563 48.8283 21.7458 47.4249 23.8156C45.6558 26.4241 44.6081 29.2645 44.2483 32.3997C43.4876 39.024 48.0617 45.0468 54.6664 45.8311C56.6438 46.069 58.6744 45.8685 60.6833 45.8685ZM74.7339 44.6812C74.5884 44.7932 74.4882 44.862 74.3958 44.9407C71.6065 47.2602 68.3966 48.3747 64.7719 48.3432C62.246 48.3216 59.7201 48.2882 57.1962 48.3511C52.8029 48.4612 49.0131 47.1029 45.9034 43.95C45.7855 43.8301 45.4965 43.7357 45.3648 43.7966C44.4803 44.2035 43.6174 44.6537 42.6994 45.1156C45.41 48.1958 48.0617 51.2092 50.6879 54.1931C56.119 49.7231 61.6779 49.5128 67.5867 53.5975C67.3017 53.1729 67.1366 52.9272 67.0206 52.7562C67.5494 52.1763 68.0427 51.6377 68.5833 51.046C70.2875 52.8426 71.2173 54.9263 71.2546 57.3499C71.3175 61.4955 70.3367 65.4092 68.4025 69.0751C67.6378 70.5258 66.7945 71.9371 66.0299 73.3878C64.4102 76.4621 66.0063 80.1851 69.3184 81.103C71.6812 81.7596 74.3093 80.7453 75.7305 78.6007C76.2179 77.8675 76.6681 77.1068 77.0946 76.3343C80.4068 70.3331 81.4132 63.9742 80.1453 57.2261C79.2805 52.652 76.9452 48.7383 74.7339 44.6812ZM52.3036 56.0211C52.5474 56.3042 52.7204 56.5086 52.8973 56.7111C55.3249 59.4709 57.7544 62.2307 60.1801 64.9924C60.8248 65.7256 60.8484 66.2799 60.2194 66.9247C59.1245 68.0471 58.0159 69.1577 56.8915 70.2526C56.2173 70.9091 55.5804 70.8619 54.9317 70.1346C53.888 68.965 52.858 67.7817 51.8201 66.6043C51.5331 66.278 51.2382 65.9576 50.9198 65.6018C49.4692 66.9266 47.7649 67.2903 45.8798 67.1527C45.9447 67.4377 45.9722 67.6304 46.0332 67.8151C47.2145 71.432 49.4888 74.1328 52.8304 75.9491C53.6658 76.4031 54.5189 76.637 55.49 76.6036C57.2768 76.5447 59.0675 76.5859 60.8582 76.5859C61.5639 76.5859 62.2676 76.5859 63.0637 76.5859C62.7846 74.1171 63.962 72.1789 65.0844 70.2211C65.4009 69.6687 65.7016 69.1066 66.0122 68.5522C67.7105 65.5094 68.6619 62.2464 68.8644 58.7672C68.8781 58.5175 68.8585 58.1814 68.7111 58.0202C66.4486 55.569 63.9777 53.4245 60.4592 53.0982C57.3279 52.8132 54.629 53.7862 52.3036 56.0211ZM36.5685 49.2789C34.1134 52.3237 34.1232 57.0472 36.7356 60.0547C39.2241 62.9206 42.4753 64.4735 46.2867 64.8077C48.1089 64.9688 49.4456 64.2062 50.3026 62.6611C50.7095 61.926 51.0083 61.0945 51.1714 60.2689C51.5901 58.1303 50.3006 56.6049 48.1286 56.5774C45.6892 56.5479 43.293 56.2118 40.9539 55.5317C39.5563 55.1248 38.1823 54.6373 36.7552 54.1714C37.0206 53.3812 37.2525 52.6933 37.5002 51.9561C38.1076 52.1409 38.66 52.31 39.2143 52.479C39.232 52.4338 39.2516 52.3905 39.2693 52.3453C38.3828 51.3389 37.4963 50.3325 36.5685 49.2789ZM35.6879 69.5253C33.5079 69.5331 31.7723 70.8147 31.3988 72.6782C30.8779 75.2709 31.8017 77.4607 33.6534 79.2494C34.8131 80.3698 36.0771 81.3881 37.3233 82.4141C38.3179 83.2338 39.4934 83.6387 40.7829 83.6427C42.0566 83.6466 43.063 83.0982 43.7117 82.0013C44.3781 80.875 44.3997 79.6858 43.6901 78.5889C42.0802 76.1043 40.4369 73.6394 38.7582 71.2C37.972 70.056 36.7867 69.5665 35.6879 69.5253ZM93.622 74.178C93.6534 72.004 92.6037 70.4275 90.8877 69.7946C89.2169 69.1793 87.263 69.6078 86.2507 71.0388C84.4698 73.5549 82.742 76.1122 81.1203 78.7324C79.9586 80.6096 81.0672 83.0196 83.2216 83.5287C84.8374 83.91 86.2881 83.4048 87.5461 82.4082C88.81 81.4038 90.0366 80.3443 91.2238 79.2514C92.7747 77.8223 93.5335 76.0061 93.622 74.178ZM39.9868 68.7881C42.1392 72 44.1894 75.0645 46.2297 78.1093C47.3895 77.726 48.5964 77.3289 49.8584 76.9122C49.5949 76.7039 49.3846 76.5407 49.1763 76.3736C46.3103 74.0777 44.4135 71.1469 43.523 67.5891C43.3697 66.9797 43.1692 66.6161 42.5205 66.4569C41.8954 66.3035 41.6753 66.7478 41.3883 67.0642C40.8654 67.6421 40.4015 68.2712 39.9868 68.7881ZM45.1034 23.0805C46.6445 20.7512 48.044 18.4061 50.338 16.694C48.9856 15.5166 47.5448 15.0645 45.9192 15.5756C44.2444 16.1024 43.2458 17.3093 43.0532 19.0489C42.8606 20.7551 43.5702 22.0898 45.1034 23.0805ZM76.2474 23.0884C77.7492 22.0662 78.4804 20.7433 78.276 19.0351C78.0637 17.27 77.0494 16.0552 75.3314 15.554C73.7314 15.0861 72.3181 15.5205 71.0207 16.7019C73.3029 18.412 74.7024 20.7531 76.2474 23.0884ZM31.6917 40.1641C33.9404 42.7175 36.1498 45.2277 38.3061 47.6769C38.9646 47.0538 39.5779 46.4719 40.2168 45.8685C37.9897 43.3406 35.7783 40.8305 33.5826 38.336C32.9379 38.9591 32.3403 39.537 31.6917 40.1641ZM39.9671 49.5678C41.1563 50.9222 42.3299 52.2588 43.5112 53.5916C43.5859 53.6761 43.7097 53.7527 43.8179 53.7665C44.9874 53.9277 46.159 54.0771 47.3305 54.2284C47.3561 54.1695 47.3816 54.1085 47.4072 54.0496C45.5476 51.9365 43.6862 49.8214 41.866 47.7516C41.2016 48.3884 40.604 48.9605 39.9671 49.5678ZM52.4884 63.7973C53.6442 65.1084 54.8197 66.4431 55.9106 67.6815C56.5809 67.0662 57.208 66.4942 57.8488 65.9065C56.406 64.2691 54.9809 62.6513 53.5459 61.0237C53.1843 61.9712 52.854 62.8361 52.4884 63.7973ZM37.1031 27.4973C35.8117 30.3613 35.6151 33.1663 36.48 36.105C38.6088 34.043 38.884 30.4262 37.1031 27.4973ZM82.8127 66.2819C82.3587 69.7395 81.4309 72.7981 80.1807 75.7702C81.7257 73.4861 83.2727 71.202 84.9003 68.798C84.3008 68.0766 83.6285 67.2647 82.8127 66.2819ZM31.6425 45.4458C29.1442 44.3529 27.0684 44.8109 25.9834 46.6646C27.7525 47.6553 30.2587 47.1285 31.6425 45.4458Z" fill="black"/>
<path d="M74.7929 31.4328C74.7909 35.0378 71.4886 37.4792 68.3396 36.2526C65.6152 35.1912 63.392 33.4574 62.3679 30.5542C61.906 29.245 61.6544 27.8985 61.9826 26.5147C62.4603 24.5038 63.7164 23.1731 65.6938 22.6345C67.6831 22.0939 69.4463 22.6227 70.8203 24.1697C71.7304 25.1938 72.5697 26.2847 73.3914 27.3816C74.331 28.6357 74.7555 30.0804 74.7929 31.4328ZM64.2117 27.9221C66.6943 26.7938 68.3455 27.0474 69.4718 28.6887C70.5647 30.2809 70.2384 31.9616 68.4811 33.7169C68.5558 33.7759 68.6207 33.8486 68.7013 33.8899C69.633 34.3774 70.553 34.342 71.4002 33.7228C72.3338 33.0407 72.6012 32.0658 72.3791 30.9787C71.8798 28.5354 70.1677 26.8685 68.4497 25.2862C67.6005 24.5038 66.4152 24.669 65.4285 25.3255C64.5243 25.9289 64.1586 26.8135 64.2117 27.9221ZM67.7283 30.6603C67.7165 30.0293 67.1838 29.5084 66.5528 29.5084C65.9218 29.5104 65.3931 30.0352 65.3852 30.6662C65.3774 31.3267 65.9395 31.879 66.5961 31.8535C67.2251 31.8299 67.7381 31.2893 67.7283 30.6603Z" fill="black"/>
<path d="M59.4881 28.091C59.384 30.3987 58.4051 32.6553 56.3175 34.2789C55.2305 35.1242 54.0039 35.9262 52.7105 36.3409C49.3316 37.424 46.1138 34.4814 46.5855 30.896C46.7742 29.4552 47.2971 28.1559 48.2092 27.0178C48.9148 26.1391 49.6048 25.2487 50.3222 24.3779C51.7808 22.6088 53.9862 21.9955 56.0758 22.7562C58.1633 23.5209 59.5098 25.4924 59.4881 28.091ZM52.8658 33.7325C51.0987 31.8572 50.794 30.2788 51.8751 28.6984C52.9897 27.0689 54.5484 26.8251 57.0802 27.8886C57.2119 26.6836 56.6124 25.6025 55.5234 25.0816C54.4207 24.5528 53.1508 24.7356 52.3587 25.6477C51.4446 26.7013 50.4952 27.7549 49.7778 28.9382C49.2922 29.7383 49.0603 30.7466 48.9365 31.6921C48.8087 32.6632 49.3669 33.4357 50.2338 33.9035C51.1282 34.3871 52.0147 34.3124 52.8658 33.7325ZM54.8177 29.5083C54.1887 29.4886 53.6403 29.9977 53.6108 30.6287C53.5813 31.2577 54.0826 31.814 54.7116 31.8533C55.3681 31.8926 55.9441 31.358 55.9558 30.6975C55.9657 30.0665 55.4507 29.5279 54.8177 29.5083Z" fill="black"/>
<path d="M57.0626 40.1503C57.4439 41.0251 57.9078 41.3769 58.5289 41.2531C59.1009 41.1391 59.3938 40.7518 59.4469 40.0501C58.9044 39.826 58.3422 39.6471 57.8331 39.3719C56.7343 38.7783 55.9814 37.8977 55.9736 36.5866C55.9637 35.2755 56.695 34.3654 57.7938 33.7737C59.6474 32.7752 61.5561 32.7614 63.4313 33.7088C64.593 34.2966 65.3813 35.2263 65.3655 36.6023C65.3498 38.0117 64.4869 38.8923 63.3075 39.4938C62.8573 39.7238 62.3561 39.8594 61.8647 40.0422C61.8647 40.7106 62.2047 41.1076 62.8239 41.2511C63.4333 41.3926 63.8834 41.031 64.2982 40.1307C65.0294 40.1307 65.7587 40.1307 66.5469 40.1307C66.4879 41.4595 65.9336 42.4698 64.823 43.1165C63.3959 43.95 62.0101 43.7514 60.7167 42.7863C57.7545 44.4198 54.9239 43.1735 54.8158 40.1523C55.5608 40.1503 56.3077 40.1503 57.0626 40.1503ZM60.6794 35.2303C59.9953 35.4838 59.327 35.647 58.7471 35.9713C58.1732 36.2937 58.1987 36.734 58.6921 37.1507C59.614 37.9311 61.6956 37.937 62.6333 37.1606C63.1365 36.7438 63.1738 36.3035 62.6057 35.9812C62.0298 35.6549 61.3615 35.4878 60.6794 35.2303Z" fill="black"/>
</svg>
