<svg width="120" height="100" viewBox="0 0 120 100" fill="none" xmlns="http://www.w3.org/2000/svg">
<rect width="120" height="100" fill="white"/>
<path d="M59.4432 38.495C59.1296 40.351 58.812 42.207 58.5004 44.063C57.1967 51.846 55.8949 59.629 54.5912 67.41C53.6799 72.84 52.7647 78.2699 51.8555 83.7019C51.6799 84.7512 51.4156 84.9977 50.3545 84.9977C45.7016 84.9997 41.0488 84.9997 36.396 84.9977C35.2717 84.9977 34.9127 84.6466 35.0173 83.5303C35.4177 79.195 35.8437 74.8617 36.2599 70.5284C36.68 66.1694 37.1001 61.8124 37.5202 57.4535C37.9916 52.556 38.467 47.6606 38.9384 42.7632C39.3999 37.9644 39.8614 33.1656 40.323 28.3668C40.7155 24.2781 41.108 20.1893 41.5064 16.1006C41.5853 15.2761 41.9561 15.002 42.9344 15C49.0152 15 55.0961 15 61.1769 15C66.1 15 71.023 15 75.9481 15C77.2341 15 77.4589 15.1893 77.5792 16.4398C78.2676 23.5641 78.95 30.6903 79.6384 37.8145C80.3563 45.2326 81.0841 52.6507 81.7981 60.0688C82.5121 67.4869 83.2123 74.907 83.9204 82.3271C83.9677 82.8163 84.0388 83.3054 84.0565 83.7965C84.0841 84.5815 83.7034 84.9839 82.9066 84.9918C81.5279 85.0076 80.1492 84.9957 78.7705 84.9957C75.4471 84.9957 72.1236 84.9957 68.8002 84.9957C67.6187 84.9957 67.3899 84.7906 67.1986 83.6506C65.595 74.0984 63.9856 64.5481 62.3801 54.9978C61.4767 49.6152 60.5793 44.2326 59.6779 38.85C59.6582 38.7316 59.6325 38.6153 59.6089 38.4989C59.5517 38.4969 59.4984 38.4969 59.4432 38.495ZM76.5871 27.5719C72.3761 27.493 69.8159 25.4832 68.9146 21.43C66.1434 21.43 63.3761 21.43 60.5734 21.43C60.5734 24.8757 60.5734 28.2682 60.5734 31.6607C60.5734 31.71 60.5813 31.7593 60.5911 31.8066C61.7824 38.9072 62.9738 46.0097 64.1651 53.1103C65.526 61.2286 66.887 69.3489 68.2499 77.4672C68.5536 79.2758 68.8633 81.0845 69.169 82.8814C73.4431 82.8814 77.6404 82.8814 81.9086 82.8814C80.1315 64.4337 78.3623 46.0314 76.5871 27.5719ZM49.8949 82.8873C51.1415 75.4514 52.3821 68.0589 53.6207 60.6684C54.9245 52.8874 56.2046 45.1044 57.5438 37.3293C58.1335 33.9092 58.6878 30.4989 58.5103 27.0059C58.4274 25.3865 58.4984 23.7593 58.4945 22.1341C58.4945 21.8994 58.4708 21.6627 58.455 21.4083C55.6385 21.4083 52.889 21.4083 50.1434 21.4083C49.2381 25.5226 46.6405 27.5226 42.4709 27.5779C40.6957 46.0373 38.9265 64.4376 37.1514 82.8873C41.4216 82.8873 45.6188 82.8873 49.8949 82.8873ZM43.2736 19.2564C54.1691 19.2564 64.956 19.2564 75.7922 19.2564C75.7114 18.501 75.6364 17.8027 75.5654 17.1223C64.8298 17.1223 54.1651 17.1223 43.4788 17.1223C43.4078 17.8521 43.3427 18.5306 43.2736 19.2564ZM76.382 25.3925C76.2459 24.0374 76.1157 22.7258 75.9855 21.4339C74.309 21.4339 72.7252 21.4339 71.1374 21.4339C71.4708 23.8836 73.8317 25.6824 76.382 25.3925ZM47.9147 21.3787C46.4078 21.3787 44.9581 21.3688 43.5084 21.3925C43.3466 21.3944 43.0606 21.5779 43.0468 21.7021C42.9009 22.9349 42.8003 24.1735 42.6878 25.4082C45.2953 25.641 47.6365 23.8382 47.9147 21.3787Z" fill="black"/>
</svg>
