<svg width="120" height="100" viewBox="0 0 120 100" fill="none" xmlns="http://www.w3.org/2000/svg">
<rect width="120" height="100" fill="white"/>
<path d="M26 64.5363C26.1101 63.9845 26.208 63.4292 26.3321 62.8792C26.9789 59.991 28.3897 57.5079 30.4612 55.4247C38.1372 47.7049 45.8394 40.0112 53.5329 32.3088C58.05 27.7862 62.5637 23.2601 67.0965 18.7532C67.4182 18.4337 67.8587 18.1543 68.2923 18.0443C68.9408 17.8784 69.4915 18.1909 69.8306 18.7777C70.1697 19.3626 70.1278 19.9528 69.7257 20.4959C69.5457 20.7386 69.3184 20.9499 69.1034 21.1664C57.1532 33.1278 45.2066 45.0926 33.2495 57.0452C31.4087 58.8874 29.9735 60.9584 29.4158 63.541C28.6711 66.9879 29.463 70.1485 31.4786 72.9668C34.2564 76.8521 37.9869 79.0453 42.8781 78.8026C46.0439 78.6454 48.5892 77.1035 50.7848 74.9068C55.6271 70.0612 60.4694 65.2155 65.3117 60.3699C72.4668 53.2088 79.5851 46.0111 86.7891 38.9006C92.5177 33.2465 89.4253 25.9492 83.9939 23.3317C80.5169 21.6571 76.6605 22.284 73.9125 25.0202C66.1211 32.7785 58.3542 40.563 50.596 48.3527C48.5595 50.3975 48.0578 52.7775 49.0612 55.1052C50.1555 57.6441 52.7357 59.4479 55.26 59.42C56.7424 59.4025 58.0116 58.8228 59.1216 57.8729C59.4363 57.6039 59.73 57.3088 60.0219 57.0172C66.5616 50.4743 73.0996 43.9314 79.6341 37.3849C80.1358 36.882 80.6672 36.5101 81.4276 36.7336C82.4852 37.0444 82.9135 38.251 82.2737 39.1503C82.1479 39.3267 81.9888 39.4786 81.8349 39.634C75.2043 46.2712 68.5737 52.905 61.9448 59.5439C60.4257 61.0666 58.6724 62.1789 56.5082 62.4391C52.463 62.9263 49.3461 61.2639 47.1103 57.9916C44.4951 54.1675 44.9339 49.6099 48.1941 46.3271C56.0327 38.4309 63.88 30.5417 71.7868 22.7153C76.7654 17.7876 84.6337 18.2294 89.5197 23.5884C94.3008 28.8304 94.1417 35.9653 89.1298 40.9821C77.1185 53.0045 65.1019 65.0235 53.0941 77.0494C50.6275 79.5185 47.7903 81.3083 44.2871 81.8252C39.5724 82.5202 35.4451 81.118 31.8702 78.0622C28.6344 75.2962 26.6223 71.8144 26.0996 67.5362C26.0892 67.4506 26.035 67.3721 26.0017 67.29C26 66.3698 26 65.453 26 64.5363Z" fill="black"/>
</svg>
