<svg width="120" height="100" viewBox="0 0 120 100" fill="none" xmlns="http://www.w3.org/2000/svg">
<rect width="120" height="100" fill="white"/>
<path d="M52.4071 84.5982C51.5831 84.2355 51.2749 83.6124 51.2868 82.71C51.3226 80.083 51.297 77.4559 51.3004 74.8271C51.3021 73.6489 51.6222 73.2488 52.8379 72.9509C52.688 72.7295 52.562 72.5286 52.4207 72.3363C45.4998 62.8683 38.5822 53.3969 31.6494 43.9391C31.1658 43.2802 30.9683 42.6094 31.0041 41.7972C31.4025 32.8945 35.3644 25.9037 42.4641 20.67C48.0604 16.5464 54.4264 14.6736 61.3439 15.0464C70.6331 15.547 78.2504 19.4493 83.8468 26.9491C87.1089 31.3213 88.7979 36.3081 88.9971 41.7904C89.0277 42.6451 88.8183 43.287 88.3212 43.9646C81.3832 53.419 74.4673 62.8921 67.5481 72.3601C67.4187 72.5372 67.3012 72.7244 67.1701 72.9168C68.459 73.3459 68.7007 73.6915 68.7024 75.0587C68.7024 77.5734 68.6854 80.0881 68.7109 82.6011C68.7195 83.4932 68.4641 84.1861 67.6332 84.5965C62.5578 84.5982 57.4825 84.5982 52.4071 84.5982ZM69.1791 40.3756C71.4061 38.1656 74.0332 36.8308 77.1114 36.5107C80.2203 36.1873 83.0789 36.9585 85.6839 38.7786C84.4682 29.0279 74.927 17.9902 60.0636 17.9204C45.8079 17.8523 35.6759 28.3026 34.2883 38.7718C36.8763 36.9875 39.6872 36.1055 42.825 36.4256C45.968 36.7457 48.5678 38.1895 50.8169 40.3637C53.4065 37.8217 56.4065 36.3677 59.9853 36.3643C63.5879 36.3592 66.5998 37.8439 69.1791 40.3756ZM60.0976 39.2655C57.2424 39.291 54.9899 40.4573 53.0251 42.3148C52.5484 42.766 52.4088 43.1661 52.5774 43.8386C54.1352 50.0922 55.6471 56.3576 57.1743 62.618C57.9779 65.9142 58.7901 69.2069 59.5852 72.5031C59.672 72.8658 59.7895 73.1467 60.1964 72.9424C60.3292 72.876 60.3717 72.5933 60.4194 72.401C61.6402 67.4158 62.8558 62.429 64.0714 57.4405C65.1951 52.8265 66.3222 48.2142 67.4272 43.5951C67.4919 43.3278 67.48 42.9158 67.3199 42.7422C65.3501 40.6088 62.9682 39.3098 60.0976 39.2655ZM56.4831 72.9798C56.5393 72.9594 56.5954 72.9407 56.6533 72.9202C56.6329 72.7466 56.6295 72.5678 56.5886 72.3993C54.2544 62.8257 51.9168 53.2521 49.5757 43.6803C49.5247 43.4692 49.4446 43.2376 49.3067 43.0776C45.069 38.1333 38.6725 38.0022 34.353 42.703C41.7235 52.7924 49.1024 62.887 56.4831 72.9798ZM85.6447 42.686C83.8706 40.8387 81.831 39.5703 79.2805 39.3251C75.8515 38.9948 73.1189 40.4028 70.8596 42.8767C70.6417 43.115 70.4646 43.4368 70.388 43.7484C68.0401 53.3475 65.7059 62.9517 63.3734 72.5542C63.341 72.6836 63.3461 72.8232 63.3342 72.9577C63.3819 72.9781 63.4296 72.9969 63.4755 73.0173C70.8562 62.9176 78.2368 52.8197 85.6447 42.686ZM65.74 75.9559C61.87 75.9559 58.0409 75.9559 54.2221 75.9559C54.2221 77.8849 54.2221 79.7561 54.2221 81.6663C58.0733 81.6663 61.8853 81.6663 65.74 81.6663C65.74 79.7544 65.74 77.8832 65.74 75.9559Z" fill="black"/>
</svg>
