<svg width="120" height="100" viewBox="0 0 120 100" fill="none" xmlns="http://www.w3.org/2000/svg">
<rect width="120" height="100" fill="white"/>
<path d="M18 43.0316C18 41.9807 18 40.9282 18 39.8773C18.0564 39.6996 18.1096 39.5203 18.1693 39.3427C18.6375 37.9631 19.0592 36.5669 19.5905 35.2121C19.9806 34.221 20.824 33.6931 21.8516 33.4407C23.6529 32.9975 25.4708 32.9178 27.2788 33.3096C33.0529 34.5597 37.054 38.076 39.531 43.3106C41.5797 47.642 41.8702 52.0797 39.5941 56.4875C39.4862 56.695 39.4895 57.0237 39.5658 57.2528C40.1901 59.1122 40.8276 60.9667 41.5083 62.8045C41.5929 63.0319 41.9532 63.3009 42.1873 63.3042C45.3682 63.3374 48.5508 63.3324 51.7334 63.3125C51.9558 63.3108 52.2414 63.1581 52.3858 62.9838C52.8723 62.3928 53.3072 61.7602 53.7787 61.1194C50.1446 55.9546 48.9343 49.2457 49.0156 44.2286C49.0887 39.7743 49.4489 35.4114 52.8922 31.925C49.9354 31.0899 47.9349 29.2952 46.7926 26.4497C46.4673 26.8199 46.2664 27.2117 45.9493 27.3678C45.4911 27.5919 44.8735 27.8525 44.4651 27.7064C44.0616 27.5603 43.5769 26.9328 43.5702 26.5094C43.542 24.6069 43.5005 22.6761 43.7811 20.8017C44.304 17.307 46.2979 14.9412 49.8242 14.1377C51.1589 13.8339 52.5568 13.7725 53.9298 13.6961C54.5574 13.6612 54.9558 13.5434 55.336 12.9673C56.9414 10.5318 59.1992 8.98449 62.0465 8.31212C62.4715 8.21084 62.8948 8.10459 63.3198 8C64.2612 8 65.2008 8 66.1421 8C66.2434 8.0415 66.3397 8.10293 66.4443 8.12285C72.4343 9.21194 76.085 13.5749 76.0883 19.6578C76.09 23.3352 76.1 27.0125 76.0767 30.6881C76.0734 31.2161 76.2311 31.5232 76.6711 31.8337C79.168 33.5918 80.8763 35.9543 81.4009 38.9675C81.7247 40.8286 81.6715 42.7577 81.7297 44.657C81.7463 45.2065 81.8874 45.5501 82.3522 45.8722C85.4883 48.0421 88.6095 50.2319 91.719 52.4383C93.3659 53.607 93.5436 55.4565 92.1888 56.944C90.6399 58.6441 88.8303 60.0137 86.6654 60.7957C85.0982 61.3618 83.4563 61.7204 81.7977 62.1852C81.7977 62.4558 81.7977 62.856 81.7977 63.3241C82.1729 63.3241 82.5 63.3241 82.8254 63.3241C88.0234 63.3241 93.2198 63.3191 98.4179 63.3274C100.546 63.3308 102.069 64.3468 102.749 66.1713C102.824 66.3739 102.915 66.5698 102.998 66.769C102.998 67.3219 102.998 67.8764 102.998 68.4292C102.15 71.0208 100.302 71.972 97.6592 71.8824C94.7887 71.7844 91.9116 71.8592 89.0361 71.8625C88.7506 71.8625 88.4667 71.889 88.0749 71.909C88.3289 72.2759 88.4933 72.5249 88.6692 72.7656C91.9033 77.2116 95.1456 81.6526 98.3714 86.1036C99.5319 87.7057 99.2762 89.4439 97.6044 90.4499C96.3161 91.2253 94.9165 91.8345 93.5187 92.4056C92.7433 92.7227 91.8734 92.8091 91.045 93C90.1036 93 89.164 93 88.2226 93C88.1214 92.9585 88.0234 92.8937 87.9188 92.8805C83.5708 92.3409 80.2454 90.1727 77.7153 86.6299C74.6656 82.3549 71.5394 78.1347 68.4614 73.8796C68.1443 73.4413 67.8173 73.2521 67.2545 73.2122C66.6435 73.1674 65.8981 73.0329 65.4814 72.6461C64.5782 71.8044 63.5589 71.8293 62.4831 71.8575C61.7094 71.8774 60.9308 71.811 60.1621 71.8807C59.7322 71.9206 59.249 72.07 58.912 72.3273C57.3332 73.5359 55.233 73.6123 53.699 72.3672C53.2026 71.9637 52.7212 71.8525 52.1185 71.8525C42.3301 71.8641 32.5416 71.8575 22.7531 71.8658C21.4299 71.8675 20.1748 71.6267 19.2866 70.5991C18.7504 69.9748 18.4233 69.1614 18 68.4325C18 67.8797 18 67.3252 18 66.7723C18.8401 64.1758 20.6878 63.2544 23.3292 63.3025C28.1105 63.3905 32.8936 63.3274 37.6749 63.3274C37.9654 63.3274 38.2543 63.3274 38.661 63.3274C38.0418 61.5627 37.4723 59.939 36.9295 58.3917C35.2278 58.3917 33.6257 58.6175 32.1099 58.3519C26.2047 57.3209 22.1654 53.7714 19.6735 48.4571C18.8782 46.7588 18.5445 44.8462 18 43.0316ZM78.8907 61.9628C78.66 61.9096 78.4491 61.8466 78.2333 61.8134C76.183 61.5029 74.2372 60.8521 72.5322 59.6867C68.6308 57.0187 64.726 54.3475 60.9291 51.5351C57.5025 48.9967 56.7023 44.139 58.9187 40.5082C61.4986 36.2813 66.8809 35.1225 71.0613 37.9432C73.4436 39.5502 75.7729 41.2403 78.127 42.8905C78.3562 43.0516 78.5969 43.196 78.9223 43.4052C78.9223 42.9353 78.9156 42.6315 78.9239 42.3277C79.0152 38.4545 77.4929 35.4728 74.0745 33.5387C73.447 33.1834 73.2544 32.6422 73.2561 31.9432C73.2727 27.8492 73.276 23.7552 73.2527 19.6612C73.2477 18.8659 73.1913 18.0491 73.0087 17.2788C71.9113 12.6601 67.3259 9.91918 62.6723 11.0747C61.0454 11.4781 59.6242 12.2401 58.3874 13.6828C59.0448 13.6828 59.5064 13.6712 59.9679 13.6845C63.0808 13.7741 65.5926 15.9125 66.0807 18.9788C66.358 20.722 65.8765 22.3855 65.2556 23.9959C64.1333 26.9046 61.9933 29.0412 59.6973 31.0086C58.6663 31.8918 57.4826 32.6555 56.2557 33.2349C55.3708 33.6532 54.5374 34.065 54.0859 34.9133C53.4417 36.1219 52.6996 37.3488 52.4041 38.6587C51.7085 41.75 51.6703 44.9143 52.0505 48.0637C52.5635 52.3237 53.7771 56.3381 56.4367 59.7929C56.7637 60.2179 57.3099 60.4769 57.7615 60.8056C58.3359 61.224 59.1727 61.5112 59.4449 62.0723C60.0874 63.4005 61.1051 63.4536 62.2905 63.3341C62.4814 63.3142 62.6823 63.3059 62.8699 63.3357C63.3829 63.4204 63.6353 63.1946 63.8826 62.7414C65.3237 60.0934 68.996 59.6236 70.7326 62.0657C71.6191 63.3125 72.5355 63.3739 73.7508 63.3407C75.2151 63.3009 76.6827 63.3341 78.1486 63.3291C78.3877 63.3291 78.6268 63.2959 78.8941 63.276C78.8907 62.8061 78.8907 62.4011 78.8907 61.9628ZM26.6662 44.4577C26.4852 44.1987 26.3391 43.9779 26.1797 43.7671C25.6302 43.0399 25.0458 42.3344 24.5312 41.584C24.078 40.9232 24.2473 40.1114 24.8533 39.6648C25.4493 39.2248 26.193 39.2763 26.721 39.8607C27.1659 40.3504 27.5428 40.9016 27.9562 41.4213C28.2865 41.8363 28.6252 42.2447 29.022 42.7311C29.2926 41.3681 29.8488 40.8601 30.7685 41.0079C31.6683 41.1523 32.0518 41.8778 31.8692 43.0615C31.7679 43.7173 31.6849 44.3747 31.6036 45.0338C31.4674 46.1511 31.5604 46.3653 32.4669 47.0792C32.4951 47.0344 32.5399 46.9945 32.5516 46.9464C32.8072 45.8755 33.3866 45.3874 34.2283 45.5418C35.0601 45.6946 35.4718 46.4118 35.3506 47.456C35.2494 48.3343 35.1647 49.2158 35.0883 50.0957C35.0701 50.3099 35.0352 50.5872 35.1431 50.7366C35.9151 51.7908 36.7219 52.8185 37.6317 54.0022C37.7994 53.3364 37.9422 52.8948 38.0169 52.4416C38.1198 51.8157 38.2294 51.1815 38.2394 50.5506C38.3307 44.574 35.3423 40.3886 30.4149 37.4302C28.2019 36.1003 25.7514 35.6073 23.1532 36.0555C22.5041 36.1684 21.9811 36.3942 21.8018 37.0699C21.4648 38.3433 20.9419 39.6116 20.8721 40.9033C20.5235 47.2552 25.4194 53.8461 31.5671 55.4299C32.7574 55.7371 33.9777 55.9446 35.3407 55.6856C34.5786 54.6911 33.8731 53.8079 33.214 52.8915C32.8819 52.43 32.4984 52.1926 31.9174 52.1494C31.0375 52.083 30.1592 51.9502 29.2893 51.7925C28.5239 51.653 28.0757 51.0404 28.1172 50.3116C28.1604 49.5761 28.69 49.0598 29.4669 49.0067C29.6645 48.9934 29.8654 49.005 30.1094 49.005C29.6894 48.1284 29.1747 47.6304 28.2301 47.6304C27.5461 47.6304 26.8637 47.4477 26.1781 47.3548C25.1521 47.2153 24.6076 46.6907 24.6358 45.8556C24.6657 44.9807 25.2401 44.5374 26.3624 44.5192C26.4354 44.5109 26.5101 44.486 26.6662 44.4577ZM78.6317 46.6924C75.3678 44.4212 72.2234 42.0687 68.9147 39.9802C66.0126 38.149 62.1361 39.6615 60.9026 42.8689C60.0161 45.1716 60.8661 48.233 62.6973 49.3387C67.7459 52.3885 74.6539 51.2778 78.6317 46.6924ZM70.5499 71.8741C70.7957 72.2476 70.9318 72.4751 71.0878 72.6893C74.1592 76.9144 77.2056 81.1579 80.3152 85.3565C83.096 89.1118 86.8563 90.6575 91.4816 89.9967C93.2165 89.7477 94.8036 89.0753 96.2165 87.9746C95.9326 87.5745 95.662 87.2541 95.4577 86.8971C95.0676 86.2132 94.5795 85.9757 93.7278 85.999C88.8319 86.1351 84.8591 84.2325 81.9106 80.3095C79.9682 77.7246 78.1005 75.0832 76.1863 72.4767C76.0169 72.2443 75.7679 71.909 75.5471 71.9023C73.9334 71.8525 72.3164 71.8741 70.5499 71.8741ZM51.9907 66.2062C51.6437 66.1896 51.3714 66.1647 51.1008 66.1647C41.7009 66.163 32.3009 66.163 22.8992 66.1647C22.6236 66.1647 22.3431 66.1647 22.0741 66.2112C21.3137 66.3407 20.8173 66.9284 20.8389 67.6406C20.8622 68.3562 21.3818 68.899 22.1555 69.0003C22.3729 69.0285 22.5971 69.0236 22.8179 69.0236C32.2461 69.0252 41.6743 69.0252 51.1025 69.0219C51.393 69.0219 51.6836 68.9887 51.9907 68.9704C51.9907 68.0208 51.9907 67.1675 51.9907 66.2062ZM71.8449 68.9588C72.0757 68.9854 72.2367 69.0202 72.3977 69.0202C81.1021 69.0236 89.8081 69.0269 98.5125 69.0169C99.5186 69.0153 100.135 68.4707 100.164 67.6456C100.196 66.7972 99.5534 66.2162 98.5241 66.1664C98.3863 66.1597 98.2485 66.163 98.1091 66.163C89.6521 66.163 81.1967 66.163 72.7397 66.1647C72.4475 66.1647 72.1553 66.1946 71.8432 66.2112C71.8449 67.1625 71.8449 68.0158 71.8449 68.9588ZM56.4964 30.1934C57.9242 28.7756 59.3437 27.4325 60.6868 26.0164C62.1776 24.4458 62.9845 22.525 63.28 20.3883C63.529 18.5837 62.3802 16.9318 60.5805 16.6197C59.8002 16.4836 58.9851 16.5217 58.1865 16.5151C56.5047 16.5018 56.3902 16.5085 56.352 18.2052C56.264 22.1 56.2989 25.9964 56.2856 29.8912C56.2839 29.9128 56.3122 29.9344 56.4964 30.1934ZM79.4884 71.8658C79.4336 71.9471 79.3788 72.0285 79.324 72.1098C81.3744 74.7678 83.2985 77.537 85.5149 80.0472C87.3046 82.0743 89.8015 82.9592 92.5275 83.1368C92.5275 83.0206 92.5491 82.9509 92.5242 82.916C89.9326 79.3366 87.3411 75.7589 84.7313 72.1929C84.6084 72.0252 84.3295 71.8841 84.1203 71.8807C82.5763 71.8542 81.0324 71.8658 79.4884 71.8658ZM80.9959 48.3675C78.0125 51.7526 74.2821 53.5888 69.7265 53.8876C74.3783 56.5107 81.5504 54.6845 84.3478 50.7183C83.2404 49.943 82.1347 49.1677 80.9959 48.3675ZM75.4027 57.9501C80.1541 60.3474 86.8912 59.0691 90.1701 54.8256C89.0494 54.0354 87.9305 53.2484 86.7882 52.4432C83.7866 55.8383 80.0728 57.6645 75.4027 57.9501ZM53.3255 20.8831C53.4284 19.3955 53.5247 18.001 53.621 16.6031C49.4722 15.8095 45.5508 19.354 46.5154 23.0994C48.5906 21.8028 50.8418 21.0541 53.3255 20.8831ZM68.986 66.9234C68.986 66.2344 69.001 65.5438 68.9827 64.8548C68.9578 63.9517 68.3701 63.3357 67.5732 63.3407C66.8095 63.3457 66.1903 63.9384 66.1704 64.7884C66.1372 66.1946 66.1355 67.6024 66.172 69.007C66.1936 69.8586 66.8129 70.4297 67.5898 70.4264C68.3817 70.4214 68.9479 69.857 68.9794 68.992C69.006 68.303 68.986 67.6124 68.986 66.9234ZM57.6719 66.8553C57.6719 66.1946 57.6885 65.5322 57.6685 64.8714C57.6403 63.9683 57.0559 63.3457 56.264 63.3407C55.4688 63.3341 54.8661 63.9567 54.8529 64.8532C54.8329 66.2029 54.8346 67.5543 54.8512 68.904C54.8628 69.8155 55.4323 70.4115 56.2491 70.4248C57.0493 70.438 57.6387 69.8304 57.6685 68.9223C57.6901 68.2333 57.6719 67.5443 57.6719 66.8553ZM53.3604 23.624C51.9625 23.986 50.6609 24.323 49.3809 24.6534C49.6598 26.7967 51.3748 28.6179 53.3604 29.008C53.3604 27.2798 53.3604 25.5598 53.3604 23.624ZM60.5606 66.2095C60.5606 67.1724 60.5606 68.0656 60.5606 68.9488C61.5119 68.9488 62.4001 68.9488 63.285 68.9488C63.285 67.9992 63.285 67.1276 63.285 66.2095C62.3685 66.2095 61.4969 66.2095 60.5606 66.2095Z" fill="black"/>
<path d="M60.4942 20.8033C60.4809 21.5885 59.8351 22.2011 59.0432 22.1779C58.2529 22.1546 57.6453 21.5038 57.6802 20.7169C57.7134 19.9682 58.3359 19.3755 59.0863 19.3755C59.87 19.3771 60.5075 20.0246 60.4942 20.8033Z" fill="black"/>
</svg>
