<svg width="120" height="100" viewBox="0 0 120 100" fill="none" xmlns="http://www.w3.org/2000/svg">
<rect width="120" height="100" fill="white"/>
<path d="M22.0038 76.0415C22.3665 75.3556 22.9377 75.1696 23.695 75.1978C25.3825 75.2616 26.9028 75.8085 28.3365 76.6522C29.9075 77.5749 31.6063 77.8549 33.3483 77.4358C34.3536 77.1934 35.3101 76.7011 36.2459 76.2332C38.7565 74.9779 41.3215 74.8764 43.9411 75.784C44.4898 75.9738 45.0122 76.2576 45.5196 76.5451C48.0376 77.9751 50.5482 77.9864 53.0625 76.5507C54.4681 75.7483 55.9527 75.2635 57.5894 75.2015C59.6001 75.1245 61.4323 75.6318 63.1461 76.656C64.7095 77.5899 66.4158 77.853 68.1578 77.4377C69.1425 77.2028 70.0802 76.7255 70.9972 76.2726C73.9794 74.7994 76.971 74.743 79.8856 76.3346C81.8907 77.4302 83.9221 77.9827 86.1432 77.308C86.9606 77.06 87.7273 76.6184 88.4922 76.22C89.8095 75.5379 91.2 75.194 92.6808 75.2072C93.4644 75.2147 93.9943 75.6826 94 76.361C94.0056 77.0036 93.5114 77.5542 92.7729 77.5429C91.2827 77.5223 89.9992 78.0747 88.7233 78.7588C85.6678 80.3974 82.5634 80.4331 79.5323 78.7494C77.7114 77.7384 75.8379 77.2498 73.8065 77.7309C72.9797 77.9263 72.1829 78.3209 71.4238 78.7212C68.3081 80.3636 65.1793 80.4519 62.0975 78.7362C60.0887 77.6181 58.0329 77.1934 55.8268 77.8774C55.0751 78.1104 54.3854 78.5408 53.6732 78.8922C50.7455 80.3354 47.7877 80.4068 44.9145 78.8452C43.0297 77.8211 41.1186 77.2197 39.0008 77.7309C38.1965 77.9244 37.4185 78.3021 36.6819 78.693C33.5249 80.373 30.3736 80.4275 27.2241 78.7137C25.9932 78.0447 24.7417 77.5035 23.3042 77.5561C22.6953 77.5786 22.3383 77.1746 22.0057 76.7443C22.0038 76.5113 22.0038 76.2764 22.0038 76.0415Z" fill="black"/>
<path d="M22.0038 56.7708C22.4566 56.0924 23.0843 55.9552 23.8773 56.0003C25.5685 56.0943 27.0625 56.705 28.4962 57.5299C30.1311 58.4714 31.8844 58.5766 33.6658 58.1726C34.3818 58.011 35.0733 57.6615 35.7235 57.3044C38.9632 55.5286 42.2103 55.4779 45.4218 57.3026C47.2051 58.3154 49.0618 58.6386 51.033 58.1801C51.7264 58.0185 52.401 57.6972 53.0305 57.3495C56.336 55.5211 59.6395 55.4666 62.9206 57.3495C64.6813 58.3605 66.5285 58.6198 68.4716 58.1764C69.1218 58.0279 69.755 57.731 70.3413 57.4003C73.6806 55.5192 77.0142 55.4704 80.361 57.3552C82.881 58.7739 85.4009 58.7683 87.9058 57.3307C89.2927 56.5359 90.7584 56.0398 92.3651 56.0059C92.5981 56.0003 92.8367 55.989 93.0622 56.0379C93.6711 56.1713 93.9793 56.5866 93.9905 57.1936C94.0018 57.7723 93.5452 58.306 92.9401 58.3041C91.2564 58.2985 89.8207 58.975 88.3719 59.7285C85.8369 61.0477 83.1985 61.0571 80.5508 60.0687C79.942 59.8413 79.3801 59.4824 78.7976 59.1855C76.5557 58.0429 74.2631 57.9396 72.0739 59.1911C69.5446 60.6381 66.9194 61.1511 64.1101 60.39C63.1968 60.1438 62.3361 59.6703 61.4868 59.2325C59.1735 58.0354 56.8377 57.9358 54.5752 59.2381C52.091 60.6662 49.5015 61.1266 46.7391 60.4032C45.9142 60.1871 45.1136 59.7981 44.3639 59.379C41.8063 57.9546 39.277 57.9621 36.7589 59.4354C34.4043 60.8147 31.8956 61.0721 29.3024 60.3881C28.3891 60.1476 27.5285 59.6703 26.6829 59.2249C25.6888 58.7006 24.6515 58.3568 23.5353 58.3549C22.8193 58.3549 22.327 58.0937 22 57.4773C22.0038 57.2405 22.0038 57.0056 22.0038 56.7708Z" fill="black"/>
<path d="M22.0038 66.4767C22.327 65.8039 22.8532 65.5953 23.5973 65.6029C25.3957 65.6216 26.9741 66.2662 28.5 67.1325C30.2007 68.1003 32.0234 68.228 33.8725 67.7244C34.628 67.5177 35.3345 67.1099 36.0411 66.7454C39.1248 65.1556 42.2141 65.1368 45.2452 66.8074C46.9064 67.7225 48.6202 68.2844 50.4862 67.871C51.5404 67.638 52.5702 67.1851 53.5323 66.6815C55.8155 65.4845 58.1888 65.3153 60.6223 65.9524C61.5131 66.1854 62.3606 66.642 63.1836 67.078C65.5702 68.3408 67.9548 68.3615 70.2887 67.0291C72.1172 65.9862 74.0301 65.4882 76.1329 65.6198C77.5949 65.71 78.9404 66.1215 80.1844 66.8675C82.0278 67.9744 83.9953 68.3126 86.0549 67.7282C86.9193 67.482 87.7292 67.0141 88.5372 66.5951C89.8564 65.9092 91.2507 65.5878 92.7315 65.6123C93.4813 65.6254 93.9812 66.0764 93.9981 66.7379C94.0131 67.3636 93.5696 67.9123 92.8555 67.9123C91.1925 67.9142 89.7944 68.617 88.3568 69.3349C85.54 70.7405 82.6498 70.7705 79.8518 69.3104C78.1511 68.4235 76.443 67.653 74.5074 68.0307C73.4269 68.2412 72.3464 68.6433 71.3749 69.162C69.2007 70.3233 66.9326 70.6033 64.5705 70.0997C63.7154 69.9174 62.8604 69.5735 62.1031 69.1357C59.3276 67.529 56.6273 67.5741 53.8536 69.1714C51.2811 70.654 48.5469 70.6954 45.7902 69.6863C45.202 69.4702 44.6551 69.1338 44.0952 68.8406C41.7631 67.6211 39.4029 67.5478 37.1178 68.8632C34.6092 70.3064 31.9896 70.7367 29.2141 69.9606C28.3478 69.7182 27.5285 69.2672 26.7242 68.8444C25.732 68.3239 24.7079 67.9631 23.5804 67.9668C22.8607 67.9706 22.2988 67.7357 22.0019 67.0367C22.0038 66.8525 22.0038 66.6646 22.0038 66.4767Z" fill="black"/>
<path d="M53.1959 29.555C53.1959 34.8091 48.8851 39.1312 43.6291 39.1462C38.3543 39.1612 33.9966 34.7941 34.0266 29.523C34.0567 24.2501 38.3825 19.9449 43.6254 19.9675C48.8945 19.9919 53.1959 24.3008 53.1959 29.555ZM50.8414 29.523C50.8244 25.5824 47.5491 22.3221 43.6104 22.3221C39.6453 22.3221 36.3418 25.6426 36.3756 29.5925C36.4075 33.5425 39.6735 36.7935 43.6104 36.7935C47.5754 36.7935 50.8583 33.4918 50.8414 29.523Z" fill="black"/>
<path d="M71.9236 46.1329C72.0758 43.222 72.9515 40.6983 74.8194 38.5749C75.2797 38.0506 75.8153 37.5827 76.3603 37.143C77.0105 36.6187 77.7339 36.6957 78.1549 37.2651C78.5664 37.8213 78.4612 38.4753 77.811 38.9789C75.8585 40.4916 74.7592 42.4948 74.3928 44.9095C74.1673 46.3903 74.3139 47.841 74.81 49.2692C74.9434 49.6506 74.9753 50.1806 74.8137 50.5301C74.4135 51.3964 73.2728 51.3231 72.741 50.4117C71.668 48.5701 70.0519 47.514 67.9999 47.1044C66.5473 46.815 65.1116 46.971 63.706 47.4351C62.6048 47.7997 61.9265 47.5911 61.7047 46.8413C61.4755 46.069 61.8738 45.5428 62.9919 45.1895C65.9422 44.2593 68.8042 44.3852 71.5383 45.9431C71.6323 46.0032 71.7357 46.0445 71.9236 46.1329Z" fill="black"/>
<path d="M84.9743 40.5743C85.166 38.7666 85.7861 37.2257 87.0997 36.0475C87.3797 35.7975 87.8551 35.5983 88.214 35.6359C89.1461 35.7299 89.535 36.8762 88.8529 37.5564C87.4567 38.9508 87.0414 40.5593 87.56 42.4404C87.7066 42.9722 87.545 43.4213 87.0903 43.7295C86.6299 44.0414 86.1488 44.0151 85.7204 43.6712C84.358 42.5719 82.9167 42.4028 81.34 43.1977C80.7218 43.5096 80.0641 43.2521 79.7766 42.6884C79.474 42.0946 79.6883 41.4444 80.3441 41.0855C81.4415 40.486 82.6179 40.2417 83.8656 40.3958C84.2152 40.439 84.5572 40.5067 84.9743 40.5743Z" fill="black"/>
<path d="M44.7792 15.7863C44.7792 16.3726 44.798 16.9589 44.7735 17.5433C44.7453 18.2311 44.2586 18.7159 43.6272 18.7291C43.0034 18.7404 42.4603 18.2668 42.4396 17.5828C42.4039 16.3651 42.4039 15.1455 42.4396 13.9297C42.4584 13.2513 43.0071 12.7684 43.6235 12.7778C44.2474 12.7872 44.7453 13.2795 44.7735 13.9617C44.798 14.5686 44.7792 15.1775 44.7792 15.7863Z" fill="black"/>
<path d="M29.7553 30.7332C29.1934 30.7332 28.6297 30.7501 28.0678 30.7294C27.3406 30.705 26.8276 30.207 26.8257 29.5606C26.8238 28.9161 27.3368 28.3974 28.0622 28.3824C29.2329 28.3598 30.4055 28.3579 31.5762 28.3843C32.294 28.4012 32.8033 28.9424 32.7807 29.5888C32.7601 30.2164 32.2715 30.6994 31.5818 30.7276C30.9749 30.752 30.3641 30.7332 29.7553 30.7332Z" fill="black"/>
<path d="M44.781 43.3385C44.781 43.9248 44.7961 44.5092 44.7773 45.0955C44.7547 45.8247 44.2643 46.3377 43.6159 46.3395C42.9733 46.3433 42.449 45.8341 42.434 45.1087C42.4076 43.938 42.4058 42.7654 42.4358 41.5966C42.4546 40.8599 42.9733 40.3807 43.6366 40.3977C44.3037 40.4146 44.7585 40.9031 44.7773 41.651C44.7923 42.2129 44.781 42.7767 44.781 43.3385Z" fill="black"/>
<path d="M57.3864 28.3767C57.9483 28.3767 58.5102 28.3654 59.072 28.3785C59.8556 28.3973 60.3799 28.8728 60.3856 29.5455C60.3912 30.222 59.8688 30.72 59.0946 30.7294C57.9708 30.7444 56.8471 30.7463 55.7234 30.7294C54.9341 30.7181 54.4455 30.2352 54.4587 29.5323C54.4718 28.8596 54.9435 28.4067 55.7027 28.3804C56.2608 28.3616 56.8246 28.3767 57.3864 28.3767Z" fill="black"/>
<path d="M32.5007 17.207C32.9216 17.4513 33.2599 17.5734 33.4985 17.797C34.2991 18.5506 35.0752 19.3323 35.8381 20.1215C36.4319 20.736 36.4469 21.4238 35.9208 21.9199C35.4153 22.3934 34.7689 22.354 34.1769 21.7752C33.3576 20.9747 32.5063 20.1948 31.7716 19.321C31.5254 19.0279 31.4409 18.4284 31.5574 18.0545C31.6626 17.7219 32.1455 17.5058 32.5007 17.207Z" fill="black"/>
<path d="M54.7199 17.2577C55.0262 17.4851 55.4922 17.6598 55.6219 17.9736C55.7666 18.3232 55.7685 18.9395 55.5486 19.1932C54.6955 20.1817 53.7521 21.0949 52.7938 21.9857C52.3465 22.4028 51.6813 22.307 51.2698 21.8898C50.8695 21.4839 50.7868 20.783 51.1871 20.3583C52.0665 19.4225 52.9873 18.5224 53.9137 17.6316C54.0847 17.4682 54.3629 17.4174 54.7199 17.2577Z" fill="black"/>
<path d="M32.4143 41.8333C32.1437 41.6116 31.7021 41.4161 31.5686 41.0948C31.4315 40.7641 31.4427 40.1759 31.6551 39.9335C32.5345 38.9356 33.4854 37.9942 34.4719 37.1035C34.9154 36.7032 35.4998 36.7934 35.9358 37.2237C36.368 37.6522 36.4808 38.231 36.0711 38.6801C35.1597 39.6798 34.1788 40.6175 33.2016 41.5571C33.0532 41.6999 32.7788 41.7112 32.4143 41.8333Z" fill="black"/>
<path d="M52.0647 36.7408C52.4725 36.9814 52.79 37.0979 53.0137 37.3121C53.8104 38.0675 54.5846 38.8474 55.3476 39.6385C55.9245 40.2361 55.9489 40.9558 55.4434 41.4369C54.9586 41.8991 54.2689 41.8597 53.6995 41.3034C52.8802 40.5029 52.0741 39.6892 51.2735 38.8718C50.8846 38.4753 50.7944 37.9604 51.0838 37.5245C51.3017 37.1937 51.7227 37.0002 52.0647 36.7408Z" fill="black"/>
</svg>
