<svg width="120" height="100" viewBox="0 0 120 100" fill="none" xmlns="http://www.w3.org/2000/svg">
<rect width="120" height="100" fill="white"/>
<path d="M72.17 15C73.4337 15.3137 74.6245 15.7783 75.5623 16.7317C76.7375 17.9277 77.2836 19.382 77.2905 21.0496C77.294 21.9683 77.2905 22.887 77.2905 23.875C78.2681 23.875 79.1851 23.8629 80.1003 23.8767C83.5862 23.9322 86.0892 26.4456 86.1482 29.9384C86.1499 30.0303 86.1482 30.1239 86.1482 30.2158C86.1482 46.6935 86.1464 63.1711 86.1499 79.6488C86.1499 82.2333 85.1203 84.2111 82.7802 85.3898C82.1943 85.6845 81.5217 85.8024 80.8873 86C66.6786 86 52.4682 86 38.2596 86C36.7602 85.6897 35.422 85.1038 34.408 83.887C33.4459 82.7325 33.0056 81.403 33.0039 79.9279C33.0004 63.2647 32.9952 46.6033 33.0091 29.9419C33.0126 26.7836 35.0528 24.61 38.1642 23.9478C40.9515 23.3532 43.6851 22.4952 46.436 21.7343C54.1808 19.5918 61.9239 17.4406 69.6687 15.2929C69.9964 15.2011 70.3222 15.0988 70.6481 15.0017C71.156 15 71.6622 15 72.17 15ZM35.9455 54.9548C35.9455 56.111 35.9455 57.2655 35.9455 58.4216C35.9455 65.4922 35.9489 72.5644 35.942 79.635C35.942 80.7253 36.1986 81.689 37.093 82.4015C37.7863 82.9544 38.5941 83.0532 39.44 83.0532C48.3427 83.0498 57.2455 83.0515 66.1482 83.0515C70.7157 83.0515 75.2815 83.0463 79.849 83.055C81.0294 83.0567 82.1076 82.7551 82.6779 81.6752C83.0159 81.0355 83.1841 80.2295 83.1858 79.498C83.2135 65.3084 83.2066 51.1206 83.2066 36.931C83.2066 34.6671 83.2066 32.4016 83.2066 30.1378C83.2066 29.1792 82.976 28.3142 82.2428 27.633C81.5321 26.9726 80.6706 26.8218 79.7467 26.8218C73.3123 26.8252 66.8762 26.8235 60.4419 26.8235C53.4303 26.8235 46.4187 26.827 39.4071 26.82C38.2942 26.8183 37.3079 27.0679 36.5834 27.9884C36.0356 28.6852 35.9455 29.4981 35.9455 30.344C35.9472 38.5465 35.9455 46.7507 35.9455 54.9548ZM74.3472 23.8577C74.3472 22.8766 74.368 21.9579 74.3437 21.0409C74.2831 18.8065 72.5999 17.5672 70.4366 18.1635C64.2935 19.8587 58.1538 21.5609 52.0141 23.2614C51.4178 23.4261 50.8232 23.5994 50.2287 23.7675C50.2373 23.797 50.246 23.8282 50.2547 23.8577C58.2439 23.8577 66.2383 23.8577 74.3472 23.8577Z" fill="black"/>
<path d="M59.5752 65.2944C50.6395 65.2927 43.328 57.9483 43.3523 49.0022C43.3783 40.0197 50.6828 32.7169 59.6116 32.7516C68.542 32.7863 75.7772 40.0492 75.7998 49.0039C75.8223 57.9517 68.5056 65.2979 59.5752 65.2944ZM63.9139 47.5063C63.7804 44.4018 63.3505 41.4082 62.1094 38.5845C61.7974 37.8738 61.39 37.1874 60.9272 36.5651C60.0952 35.4488 59.1158 35.4488 58.2491 36.5287C57.9059 36.9568 57.6129 37.4335 57.3581 37.9206C56.3649 39.8221 55.8657 41.8779 55.571 43.9875C55.4098 45.1402 55.3197 46.305 55.1931 47.5063C58.1659 47.5063 61.0087 47.5063 63.9139 47.5063ZM63.926 50.5519C60.9861 50.5519 58.1208 50.5519 55.2347 50.5519C55.3578 53.4588 55.7495 56.2669 56.8225 58.9294C57.1969 59.8585 57.717 60.7581 58.315 61.5624C59.0863 62.599 60.0293 62.566 60.8509 61.5711C61.215 61.1308 61.5356 60.6385 61.7939 60.1271C63.295 57.1336 63.737 53.899 63.926 50.5519ZM64.7649 36.8771C65.2434 38.5394 65.8379 40.252 66.2123 42.0131C66.5937 43.8072 66.7584 45.6481 67.0218 47.4941C68.8714 47.4941 70.7625 47.4941 72.6571 47.4941C72.1787 42.3754 68.3774 38.1113 64.7649 36.8771ZM52.1267 47.5132C52.3954 45.629 52.5566 43.8089 52.9362 42.0339C53.3159 40.2589 53.9121 38.5325 54.4166 36.7765C49.8785 38.8965 47.2143 42.4465 46.4481 47.5132C48.3982 47.5132 50.2755 47.5132 52.1267 47.5132ZM72.6779 50.5501C70.7417 50.5501 68.8402 50.5501 66.923 50.5501C66.6821 54.2579 66.1534 57.8564 64.5361 61.3059C68.7847 59.5985 72.1094 55.5475 72.6779 50.5501ZM52.2255 50.5536C50.2651 50.5536 48.3739 50.5536 46.4776 50.5536C47.0687 56.0103 51.0659 60.0647 54.5951 61.2296C52.9778 57.8425 52.4786 54.2475 52.2255 50.5536Z" fill="black"/>
<path d="M59.251 68.342C63.978 68.342 68.7067 68.342 73.4337 68.342C74.7545 68.342 75.4531 68.8447 75.4687 69.7946C75.4843 70.7671 74.758 71.2975 73.4042 71.2975C63.9485 71.2975 54.4946 71.2975 45.0389 71.2905C44.6749 71.2905 44.2953 71.2628 43.9503 71.1571C43.3506 70.9733 42.9571 70.3042 43.0195 69.6958C43.0871 69.0389 43.5412 68.5084 44.1739 68.3992C44.4894 68.3455 44.817 68.3403 45.1377 68.3403C49.8421 68.3368 54.5466 68.3386 59.251 68.3386C59.251 68.3368 59.251 68.3386 59.251 68.342Z" fill="black"/>
<path d="M59.303 74.2355C62.0452 74.2355 64.7875 74.232 67.5297 74.2407C67.8487 74.2424 68.1763 74.2684 68.4848 74.3447C69.1504 74.5094 69.5682 75.1005 69.5457 75.7782C69.5249 76.4248 69.0932 76.9812 68.4553 77.1216C68.1433 77.1909 67.8175 77.2135 67.4968 77.2135C61.9898 77.2187 56.481 77.2169 50.974 77.2169C50.8354 77.2169 50.6967 77.2221 50.5597 77.2135C49.5422 77.1493 48.9061 76.5669 48.9182 75.7123C48.9303 74.8578 49.5769 74.258 50.5909 74.2424C52.1579 74.2182 53.7249 74.2355 55.2919 74.2355C56.6301 74.2355 57.9666 74.2355 59.303 74.2355Z" fill="black"/>
</svg>
