<svg width="120" height="100" viewBox="0 0 120 100" fill="none" xmlns="http://www.w3.org/2000/svg">
<rect width="120" height="100" fill="white"/>
<path d="M78.5544 12C79.3192 12.1797 80.0984 12.3196 80.849 12.5486C84.5636 13.6792 87.4831 15.9833 89.7379 19.0476C95.6056 27.0174 97.4025 35.8667 94.7676 45.4315C93.381 50.4643 93.2601 55.3763 94.6452 60.4028C96.2242 66.1321 96.2528 71.8837 94.2715 77.5495C93.2538 80.4579 91.7527 83.0896 89.3388 85.0868C84.9261 88.7394 79.2524 88.9429 74.1989 85.6275C69.9739 82.8542 67.2038 78.9075 65.3481 74.296C62.6448 67.5855 62.1948 60.7447 64.3272 53.7687C65.7774 49.0236 65.5532 44.2881 64.2604 39.5193C62.5939 33.3717 62.6385 27.2385 65.0937 21.2722C66.6695 17.4431 69.1041 14.3455 73.1287 12.8221C74.0653 12.4675 75.064 12.2703 76.0324 12.0016C76.872 12 77.7132 12 78.5544 12ZM93.4048 36.9464C93.3174 32.5448 92.1741 27.8857 89.7713 23.57C88.0253 20.4326 85.7625 17.75 82.5743 15.9722C77.8324 13.3278 72.4879 14.4218 69.4189 18.7788C68.4362 20.175 67.6014 21.7429 67.0257 23.349C65.1509 28.5694 65.3099 33.8822 66.7745 39.1694C68.1945 44.2993 68.301 49.4196 66.7522 54.5192C64.5498 61.7703 65.3576 68.7368 68.6461 75.46C70.3587 78.9615 72.7455 81.9335 76.1818 83.9165C80.6804 86.5132 85.6274 85.7467 88.9429 81.9431C90.2881 80.399 91.2406 78.6117 91.9069 76.678C93.7213 71.4051 93.6052 66.086 92.1343 60.7749C90.6841 55.5401 90.665 50.3387 92.2488 45.1389C93.0105 42.6407 93.3842 40.0854 93.4048 36.9464Z" fill="black"/>
<path d="M40.5639 12C41.3288 12.1813 42.108 12.3196 42.8585 12.5486C46.5477 13.6697 49.4545 15.9515 51.7014 18.9887C57.604 26.9682 59.4232 35.8349 56.7772 45.4315C55.389 50.4627 55.2792 55.3731 56.6531 60.4044C58.3371 66.5726 58.2926 72.7297 55.8231 78.7214C54.4333 82.091 52.3661 84.9405 49.0013 86.6309C44.5393 88.8746 40.2697 88.2369 36.2148 85.6195C31.9691 82.8781 29.215 78.9059 27.3608 74.2944C24.6623 67.5824 24.2139 60.7431 26.3431 53.7671C27.7361 49.2033 27.6693 44.6125 26.3893 40.0233C24.8404 34.4753 24.6401 28.9018 26.3447 23.3569C27.469 19.698 29.269 16.4365 32.5209 14.1896C34.0856 13.1083 35.8094 12.3959 37.7048 12.1256C37.8209 12.1097 37.9306 12.0429 38.0435 12C38.8815 12 39.7227 12 40.5639 12ZM55.4144 36.8939C55.319 32.5385 54.1852 27.9016 51.8016 23.605C50.0476 20.4421 47.7737 17.7357 44.5552 15.9547C39.7975 13.3214 34.4577 14.4345 31.4062 18.7979C30.441 20.1782 29.6157 21.719 29.0448 23.3028C27.1668 28.5217 27.3084 33.8376 28.7729 39.1249C30.1881 44.2293 30.3408 49.3369 28.7872 54.4031C26.7947 60.8989 27.2305 67.2373 29.7429 73.4691C31.3919 77.559 33.8169 81.0971 37.584 83.5475C41.7518 86.2603 46.3171 86.0504 49.8711 83.018C51.5455 81.5885 52.6634 79.755 53.4887 77.7482C55.7102 72.3465 55.7595 66.7984 54.2472 61.2504C52.7795 55.8661 52.6078 50.5343 54.2456 45.1786C55.0153 42.6551 55.3969 40.0774 55.4144 36.8939Z" fill="black"/>
<path d="M76.7909 25.9693C77.2234 24.2058 77.6225 22.4312 78.1028 20.6804C78.3206 19.8869 79.0314 19.5562 79.7056 19.7868C80.4005 20.0253 80.6693 20.6661 80.4896 21.4691C80.1366 23.0513 79.8074 24.6399 79.4989 26.2301C79.3383 27.0617 78.8724 27.5117 78.1203 27.4561C77.4015 27.4052 76.9324 26.8184 76.7909 25.9693Z" fill="black"/>
<path d="M81.8046 68.085C81.6536 68.7433 81.2115 69.2856 80.6168 69.4048C80.0348 69.5225 79.3892 69.1838 79.2079 68.5859C78.68 66.8463 78.168 65.1003 77.6845 63.3463C77.4953 62.661 77.8165 62.0837 78.4208 61.8325C79.0012 61.5924 79.7359 61.7546 79.9426 62.3413C80.6136 64.2384 81.1924 66.1673 81.8046 68.085Z" fill="black"/>
<path d="M78.4653 30.2949C79.1046 30.349 79.5116 30.7052 79.6945 31.3508C80.1413 32.9346 80.5961 34.5168 81.0525 36.0974C81.3069 36.9799 81.0191 37.6637 80.2797 37.9038C79.5896 38.128 78.9217 37.7543 78.6609 36.9132C78.168 35.3166 77.6782 33.7185 77.2632 32.0998C77.0008 31.0773 77.5589 30.3029 78.4653 30.2949Z" fill="black"/>
<path d="M76.8004 56.4817C76.996 55.0919 77.1662 53.6973 77.3952 52.3139C77.5367 51.46 78.1584 51.0322 78.9169 51.1721C79.6261 51.3025 79.9744 51.8957 79.8885 52.748C79.7231 54.389 79.5753 56.0317 79.4306 57.6743C79.3606 58.4726 78.8311 59.0243 78.1234 59.0037C77.4111 58.983 76.9245 58.4312 76.9038 57.6059C76.8943 57.2354 76.9022 56.8649 76.9022 56.4944C76.8672 56.4928 76.8338 56.4864 76.8004 56.4817Z" fill="black"/>
<path d="M82.0066 74.1242C81.6186 75.727 81.2656 77.3395 80.8283 78.928C80.5818 79.8233 79.8694 80.1843 79.1427 79.9203C78.4462 79.6675 78.2284 78.9996 78.424 78.1314C78.7706 76.5953 79.0584 75.0449 79.3494 73.4961C79.5053 72.6708 80.0109 72.1921 80.7345 72.251C81.4612 72.3098 81.8921 72.8648 81.8683 73.7139C81.8651 73.8379 81.8508 73.9604 81.8412 74.0844C81.8969 74.0987 81.9525 74.1114 82.0066 74.1242Z" fill="black"/>
<path d="M82.0559 43.1594C81.8683 44.5762 81.7077 45.9962 81.4834 47.4067C81.3531 48.232 80.7647 48.6391 80.0189 48.5325C79.2938 48.4292 78.9138 47.8535 78.9917 47.0028C79.1443 45.3347 79.2954 43.6682 79.4337 42.0001C79.4957 41.2607 79.9474 40.7646 80.6248 40.7391C81.2926 40.7153 81.8587 41.186 81.9382 41.8888C81.9843 42.3039 81.9462 42.7268 81.9462 43.1466C81.9828 43.1514 82.0193 43.1562 82.0559 43.1594Z" fill="black"/>
<path d="M84.4459 28.7172C84.8371 27.197 85.1917 25.6673 85.6322 24.1614C85.8802 23.3139 86.5799 22.9608 87.2652 23.1898C88.0031 23.4379 88.2416 24.1264 88.0142 25.0122C87.6851 26.2954 87.3686 27.5866 87.1619 28.8937C86.9901 29.9766 86.5417 30.5888 85.7371 30.5157C84.9357 30.4441 84.5509 29.8415 84.4459 28.7172Z" fill="black"/>
<path d="M89.6982 73.5646C89.2975 75.1563 88.9349 76.7592 88.4817 78.3382C88.2607 79.1111 87.5213 79.4227 86.8439 79.1747C86.1935 78.9361 85.9327 78.2937 86.0997 77.5384C86.4272 76.0548 86.7325 74.5648 87.014 73.0716C87.1524 72.3338 87.6771 71.8297 88.364 71.8727C89.1432 71.922 89.5678 72.523 89.6982 73.5646Z" fill="black"/>
<path d="M88.8045 39.02C88.7934 39.5623 88.5008 40.0011 87.9188 40.1681C87.3145 40.3414 86.688 40.1888 86.4765 39.5877C85.8659 37.8513 85.3046 36.0941 84.8339 34.3147C84.6685 33.6898 85.1154 33.1825 85.7737 33.0092C86.4097 32.8423 86.9695 33.084 87.1746 33.6723C87.7614 35.3658 88.2623 37.088 88.7934 38.8006C88.8077 38.8467 88.7982 38.8992 88.8045 39.02Z" fill="black"/>
<path d="M89.6632 45.293C89.4788 46.5078 89.3213 47.7259 89.1003 48.9344C88.9429 49.7947 88.3084 50.224 87.5817 50.0539C86.8327 49.879 86.5322 49.2636 86.6356 48.4001C86.8105 46.9372 86.9234 45.4663 87.0442 43.9986C87.0951 43.3816 87.3098 42.9014 87.9363 42.6915C88.4976 42.5038 88.9779 42.6676 89.307 43.1272C89.466 43.3498 89.5376 43.6662 89.5646 43.9477C89.606 44.3866 89.5758 44.8334 89.5758 45.2771C89.6044 45.2834 89.633 45.2882 89.6632 45.293Z" fill="black"/>
<path d="M89.4422 68.0865C89.2577 68.7893 88.8491 69.3125 88.2337 69.4015C87.5976 69.4938 87.0792 69.2346 86.8757 68.6319C86.3175 66.9797 85.7864 65.3164 85.3046 63.6404C85.1281 63.0266 85.4541 62.5289 86.0392 62.2697C86.6356 62.0057 87.2939 62.125 87.5197 62.6895C88.2273 64.4609 88.8109 66.2832 89.4422 68.0865Z" fill="black"/>
<path d="M84.4157 57.5722C84.6192 56.2063 84.7894 54.8355 85.039 53.4775C85.2028 52.5839 85.7927 52.1927 86.5544 52.3406C87.2907 52.4821 87.6087 53.1054 87.4974 53.9896C87.3177 55.408 87.1651 56.8312 87.0537 58.2576C86.9806 59.1973 86.5481 59.773 85.788 59.7714C85.0342 59.7698 84.5318 59.1735 84.5143 58.256C84.5095 58.0333 84.5143 57.8107 84.5143 57.5881C84.4809 57.5817 84.4475 57.577 84.4157 57.5722Z" fill="black"/>
<path d="M74.5329 69.7624C74.121 71.4066 73.7489 73.0604 73.2798 74.6887C73.0588 75.4552 72.2939 75.7478 71.6133 75.4806C70.9836 75.2326 70.7451 74.5647 70.9216 73.8125C71.2524 72.4005 71.5529 70.9821 71.8232 69.5573C71.9791 68.7368 72.4688 68.2247 73.1701 68.2788C73.8936 68.3345 74.3738 68.9165 74.5329 69.7624Z" fill="black"/>
<path d="M74.4915 41.8443C74.3039 43.1593 74.1449 44.4807 73.9175 45.7894C73.768 46.6529 73.1224 47.1109 72.4116 46.9614C71.6579 46.8024 71.3271 46.2124 71.4273 45.3219C71.5927 43.8558 71.7342 42.3849 71.863 40.9156C71.9298 40.1507 72.4068 39.6228 73.1001 39.6101C73.7903 39.5974 74.3341 40.1205 74.3866 40.8695C74.4088 41.1891 74.3898 41.5103 74.3898 41.8315C74.4247 41.8347 74.4581 41.8395 74.4915 41.8443Z" fill="black"/>
<path d="M69.2345 54.1216C69.43 52.8336 69.597 51.5392 69.8292 50.2576C69.9834 49.41 70.6401 48.9648 71.3605 49.1206C72.0649 49.2732 72.4132 49.8791 72.3194 50.7155C72.1556 52.1816 72.0029 53.6494 71.8693 55.1171C71.7962 55.9201 71.2953 56.4751 70.5861 56.4703C69.8737 56.4655 69.3648 55.9106 69.3394 55.0996C69.3299 54.78 69.3378 54.4587 69.3378 54.1375C69.3044 54.1328 69.2694 54.128 69.2345 54.1216Z" fill="black"/>
<path d="M69.1931 26.3033C69.6145 24.6607 69.9977 23.0085 70.4748 21.3818C70.6974 20.6233 71.3971 20.3371 72.0602 20.5692C72.763 20.8157 73.0286 21.4629 72.8409 22.25C72.499 23.6843 72.1826 25.1266 71.9011 26.5737C71.7517 27.3401 71.2873 27.8029 70.5622 27.7679C69.8323 27.7313 69.3617 27.1684 69.3744 26.3495C69.3124 26.3351 69.2535 26.3192 69.1931 26.3033Z" fill="black"/>
<path d="M70.9152 30.1358C71.5131 30.1978 71.9218 30.5254 72.1142 31.1376C72.5658 32.5719 73.027 34.003 73.4833 35.4342C73.7378 36.2324 73.4754 36.9019 72.8091 37.169C72.1063 37.4489 71.4034 37.1245 71.1204 36.3008C70.6131 34.8331 70.1154 33.3606 69.6956 31.8659C69.4284 30.9197 70.0279 30.1294 70.9152 30.1358Z" fill="black"/>
<path d="M71.3319 58.8622C71.9186 58.851 72.3559 59.1182 72.5388 59.662C73.0508 61.179 73.5517 62.7024 74.0033 64.2385C74.2355 65.032 73.8411 65.6966 73.1542 65.8716C72.4068 66.0624 71.8248 65.6489 71.5688 64.8173C71.1251 63.3814 70.6354 61.9582 70.1885 60.5223C69.9182 59.6556 70.4668 58.8828 71.3319 58.8622Z" fill="black"/>
<path d="M46.4888 51.8746C49.8902 53.5125 51.183 56.5735 52.0242 59.8652C53.274 64.7549 53.2407 69.6589 51.668 74.4835C51.2832 75.6665 50.6996 76.8178 50.0238 77.8657C47.5558 81.6996 43.167 82.7157 39.2059 80.445C37.2787 79.3398 35.7298 77.8133 34.5436 75.9623C30.3615 69.4411 29.04 62.3919 30.9403 54.8418C31.6241 52.1274 32.9741 49.7565 35.4229 48.0535C35.2703 47.8372 35.116 47.6273 34.9682 47.4142C30.406 40.7976 29.0273 33.5719 30.926 25.7626C31.4825 23.4744 32.5702 21.4263 34.3289 19.7916C35.9143 18.3191 37.4822 18.2014 39.1948 19.4942C40.6339 20.5803 42.1922 21.3945 43.9446 21.8318C44.1593 21.8858 44.3644 21.9812 44.5775 22.0385C47.9041 22.921 50.0142 25.0836 51.2339 28.2449C52.5744 31.721 53.0753 35.3258 52.7906 39.0102C52.6396 40.9677 52.3359 42.9443 51.8175 44.835C51.0017 47.8165 49.4672 50.3703 46.4888 51.8746ZM50.3497 37.6316C50.3211 35.1541 49.9999 32.7736 49.3289 30.425C48.3716 27.0745 46.4014 24.8706 42.8776 24.1423C41.1984 23.7956 39.6846 22.9799 38.2932 21.9622C36.7921 20.8634 36.579 20.8904 35.4007 22.3199C35.3387 22.3963 35.2798 22.4758 35.2194 22.5553C33.4384 24.9501 32.8103 27.7185 32.6783 30.6237C32.4319 36.0653 33.7008 41.1092 36.8239 45.6205C37.9338 47.2218 39.287 48.5862 41.0903 49.4242C43.4182 50.5055 45.7383 50.0364 47.3666 48.0646C47.9709 47.3331 48.4734 46.4824 48.8677 45.6173C50.0301 43.0715 50.2814 40.3412 50.3497 37.6316ZM32.6227 61.0498C32.6561 65.0713 33.5386 68.9131 35.4277 72.4974C36.6028 74.7299 38.0753 76.7335 40.2586 78.1011C41.7708 79.0488 43.388 79.4448 45.1308 78.796C47.0359 78.0868 48.0806 76.5475 48.8629 74.792C49.8091 72.6627 50.1764 70.3999 50.2845 68.0926C50.4706 64.1125 49.9983 60.2547 48.0742 56.6785C47.4413 55.5018 46.5143 54.6415 45.2851 54.1342C44.5345 53.8241 43.7665 53.5395 42.9841 53.3216C41.13 52.8033 39.4381 51.978 37.9036 50.8156C36.9209 50.0714 36.6664 50.0618 35.8507 50.9825C35.2353 51.6774 34.6644 52.4487 34.2399 53.2708C32.9884 55.6973 32.6433 58.3354 32.6227 61.0498Z" fill="black"/>
<path d="M35.2337 31.0183C35.3482 30.996 35.4198 30.969 35.4881 30.9722C36.1767 31.0024 37.0894 30.7877 37.4901 31.1455C37.8575 31.4747 37.6873 32.4192 37.7318 33.0935C37.9545 36.401 38.8354 39.497 40.672 42.2877C40.7913 42.4706 40.9074 42.6551 41.0616 42.8984C40.3985 43.404 39.7625 43.889 39.1312 44.3709C36.7078 41.8298 34.728 35.0319 35.2337 31.0183Z" fill="black"/>
<path d="M38.6398 26.5517C38.4013 27.2831 38.185 27.951 37.9449 28.6904C37.1514 28.5298 36.3691 28.3724 35.4722 28.1911C35.7616 27.272 36.0304 26.4213 36.3325 25.4624C37.1578 25.8536 37.894 26.2002 38.6398 26.5517Z" fill="black"/>
<path d="M35.1733 60.0659C36.0368 60.1057 36.8143 60.1407 37.6889 60.182C37.6237 64.4707 38.554 68.4381 41.0775 72.016C40.4129 72.5232 39.7768 73.0082 39.0724 73.5473C36.1481 69.5003 35.0811 65.0065 35.1733 60.0659Z" fill="black"/>
<path d="M38.6382 55.6815C38.4029 56.4098 38.185 57.0841 37.9449 57.8251C37.1658 57.6645 36.3834 57.5039 35.4706 57.3146C35.7616 56.4019 36.0383 55.5384 36.3405 54.5923C37.1896 54.9946 37.9115 55.3381 38.6382 55.6815Z" fill="black"/>
</svg>
