<svg width="120" height="100" viewBox="0 0 120 100" fill="none" xmlns="http://www.w3.org/2000/svg">
<rect width="120" height="100" fill="white"/>
<path d="M57.1228 88C55.7977 87.8041 54.4616 87.6558 53.1475 87.4049C49.0619 86.623 45.324 85.0758 42.2524 82.1974C38.8937 79.048 37.2411 75.0929 37.0294 70.55C36.7331 64.1816 38.6692 58.5841 43.1156 53.9369C44.748 52.2303 46.3712 50.5128 47.0172 48.1837C47.3908 46.8361 47.6466 45.4225 47.7129 44.0272C47.8803 40.475 49.1649 37.4885 51.8869 35.1649C53.6997 33.6177 55.8014 32.704 58.1884 32.4659C58.4018 32.444 58.6135 32.3964 58.8509 32.3561C58.8859 31.8306 58.9172 31.3508 58.9448 30.9187C57.6657 30.6147 56.4216 30.4335 55.2603 30.0233C48.53 27.6429 44.7572 22.8492 43.78 15.8326C43.7137 15.3529 43.7524 14.8585 43.7247 14.3715C43.6861 13.6848 44.0799 13.2948 44.6302 13C45.267 13 45.9038 13 46.5405 13C47.5141 13.2069 48.5134 13.3351 49.4594 13.6317C55.5032 15.5195 59.4251 19.4856 61.1164 25.5958C61.1624 25.7606 61.2213 25.9199 61.2342 25.9584C62.3624 25.3303 63.4592 24.5997 64.6518 24.0962C65.4616 23.7538 66.402 23.6677 67.2946 23.5798C68.1283 23.4974 68.6896 23.9937 68.7448 24.6931C68.8056 25.4493 68.3344 25.9712 67.4363 26.0371C64.9683 26.2184 63.0893 27.328 62.0145 29.5692C61.6556 30.3181 61.5728 31.1989 61.3778 32.0228C61.2839 32.4183 61.4808 32.5502 61.8655 32.649C66.91 33.9491 69.9521 37.1827 70.9919 42.2456C71.2496 43.5017 71.1962 44.8201 71.3674 46.0981C71.7115 48.6671 72.836 50.8973 74.623 52.7559C76.7892 55.0081 78.7289 57.4122 79.9786 60.2961C82.395 65.8717 82.8109 71.5205 80.3172 77.1766C78.8743 80.4487 76.4229 82.873 73.3348 84.6602C69.9926 86.5956 66.345 87.5148 62.5262 87.8572C62.2906 87.8792 62.0587 87.9506 61.8231 88C60.2588 88 58.6908 88 57.1228 88ZM59.3625 85.5226C63.5513 85.4768 67.5357 84.8414 71.2422 82.9719C74.1832 81.4888 76.572 79.3922 77.9578 76.3636C80.2583 71.3356 79.8534 66.3093 77.7222 61.3344C76.5794 58.6665 74.7519 56.4821 72.7624 54.402C70.9901 52.5508 69.7276 50.3682 69.2031 47.8596C68.8608 46.2227 68.846 44.5198 68.5737 42.8645C67.9884 39.3086 66.01 36.7524 62.6366 35.4634C59.3552 34.2091 56.2615 34.8079 53.5469 37.0234C51.309 38.849 50.3557 41.288 50.1956 44.1481C50.1054 45.7612 49.8238 47.3964 49.3821 48.9509C48.6367 51.5767 46.9049 53.6073 45.0204 55.5336C41.323 59.311 39.525 63.8997 39.4827 69.1475C39.4311 75.6202 42.258 80.3792 48.1748 83.2063C51.7396 84.9055 55.5382 85.4695 59.3625 85.5226ZM46.3031 15.6184C46.9896 23.5212 54.0917 28.2252 59.0165 28.1923C58.5656 21.5876 52.7022 15.9846 46.3031 15.6184Z" fill="black"/>
</svg>
