<svg width="120" height="100" viewBox="0 0 120 100" fill="none" xmlns="http://www.w3.org/2000/svg">
<rect width="120" height="100" fill="white"/>
<path d="M53.7391 55.8284C53.4554 55.9923 53.1781 56.1646 52.8903 56.3222C50.2744 57.7509 47.7595 59.4318 45.0176 60.5558C38.6577 63.1611 32.2369 62.9174 25.9064 60.2491C24.942 59.8415 23.9776 59.4339 23.0195 59.0115C21.7211 58.438 20.9794 57.4484 21.0004 56.0154C21.0214 54.5804 21.7988 53.6202 23.112 53.0866C23.9608 52.742 24.8075 52.3911 25.6669 52.076C26.9884 51.5906 28.1146 50.8342 29.1756 49.9014C31.9785 47.441 35.2183 46.6846 38.8342 47.6932C39.5401 47.8907 40.2293 48.1407 40.9289 48.3592C42.0047 48.6954 42.9397 48.418 43.5847 47.5251C45.068 45.4702 47.0661 44.5752 49.5538 44.737C50.2093 44.779 50.5623 44.5626 50.9111 43.9911C53.7391 39.3604 57.8698 36.6983 63.259 36.047C63.946 35.9651 64.3515 35.7529 64.5343 35.0721C64.6625 34.5952 64.8705 34.135 65.0806 33.6854C66.0702 31.5823 67.6901 30.2649 69.9739 29.7543C70.2681 29.6892 70.6211 29.4896 70.7723 29.2459C73.926 24.1088 78.5357 21.1946 84.4586 20.3794C86.0785 20.1567 87.2404 19.5957 88.0325 18.0893C88.7595 16.7068 89.7344 15.4504 90.621 14.154C91.9426 12.2189 94.1613 11.5088 96.193 12.3471C98.21 13.177 99.311 15.2781 98.9412 17.5493C98.6113 19.5894 97.628 21.2262 95.9787 22.4637C94.281 23.739 92.6212 25.0648 90.871 26.2624C90.0117 26.8507 89.7386 27.5209 89.7029 28.5252C89.5915 31.6411 89.3289 34.7422 88.5179 37.7783C87.5156 41.535 86.0197 45.0773 83.7316 48.2121C81.5108 51.2565 79.5884 54.4712 78.126 57.919C75.8401 63.3103 71.9048 67.0376 66.9715 69.9727C60.1368 74.0404 52.8608 76.8537 44.9882 77.9841C42.0404 78.4064 39.0443 78.5261 36.065 78.6816C34.2392 78.7762 32.8504 77.6458 32.4218 75.9482C32.01 74.3198 32.7306 72.7209 34.3442 71.8868C37.8698 70.0673 41.2273 67.9894 44.3243 65.5101C44.6751 65.2307 44.9672 64.7705 45.0974 64.3398C46.0156 61.2786 47.9738 59.375 51.117 58.6859C51.4889 58.6039 51.8839 58.3644 52.1402 58.0808C52.7474 57.4105 53.2768 56.6731 53.8378 55.9608C53.8084 55.9146 53.7748 55.8705 53.7391 55.8284ZM86.2361 22.8146C86.1857 22.7536 86.1374 22.6927 86.0869 22.6318C85.6016 22.7137 85.1141 22.7977 84.6288 22.8734C79.2354 23.7243 75.1446 26.4431 72.5414 31.2944C72.2389 31.8575 71.8061 32.1138 71.1589 32.1516C69.3457 32.263 68.0599 33.1728 67.3371 34.841C66.9925 35.6331 66.6564 36.4294 66.3727 37.2446C66.0849 38.0724 65.568 38.4128 64.6772 38.4527C59.7208 38.6796 55.8611 40.8773 53.1928 45.071C51.6611 47.4788 52.3923 47.2561 49.2575 47.2246C47.7154 47.2099 46.5241 47.7331 45.6311 49.0084C44.9104 50.0358 43.8767 50.6094 42.6497 50.8994C41.2252 51.2355 39.9667 50.6956 38.6808 50.2606C35.6154 49.2206 32.9533 49.8551 30.535 52.0108C29.5748 52.866 28.4046 53.511 27.2595 54.1182C26.272 54.6413 25.1731 54.9565 24.1436 55.4103C23.8936 55.5217 23.5406 55.8389 23.5616 56.0196C23.5931 56.2802 23.881 56.5974 24.1415 56.7256C25.0071 57.1542 25.9064 57.5198 26.7993 57.8917C33.342 60.6209 39.8364 60.5054 46.1564 57.2929C49.1147 55.7885 51.9091 53.9606 54.777 52.2735C65.0995 46.2035 74.0143 38.501 81.4856 29.145C83.1286 27.086 84.654 24.9282 86.2361 22.8146ZM49.8269 74.3976C50.0265 74.3976 50.0811 74.4081 50.1274 74.3955C56.5251 72.7398 62.4248 70.0043 67.9296 66.3526C71.1631 64.2075 73.634 61.4908 75.277 57.961C77.1553 53.9228 79.2627 50.0169 81.9079 46.3989C84.0447 43.4784 85.3999 40.1357 86.2046 36.608C86.629 34.7465 86.8538 32.8387 87.1669 30.9498C87.0954 30.933 87.024 30.9162 86.9526 30.8994C80.162 50.1031 67.8918 64.6361 49.8269 74.3976ZM47.4191 66.485C47.5179 68.1448 48.436 69.6471 50.2261 70.6136C50.682 70.8594 51.0665 70.8783 51.5288 70.5715C53.2958 69.4055 55.0775 68.2604 56.8802 67.1489C57.3865 66.838 57.5021 66.4514 57.4853 65.9114C57.3991 63.2347 55.1048 61.0538 52.3818 61.0832C49.6441 61.1126 47.4149 63.3754 47.4191 66.485ZM58.7459 57.3286C58.7522 59.541 60.2355 61.5307 62.3744 62.0917C62.7085 62.1799 63.2401 62.0854 63.4817 61.8627C65.0953 60.3709 66.6417 58.8056 68.2406 57.2971C68.7196 56.8454 68.7406 56.3957 68.5557 55.8221C67.7951 53.4669 65.4357 51.9457 63.0783 52.3218C60.5486 52.721 58.7396 54.8136 58.7459 57.3286ZM68.6776 46.0564C68.8478 48.4705 70.7198 50.601 73.0373 50.8994C73.2747 50.9309 73.655 50.7649 73.7895 50.5695C75.2287 48.4516 76.6469 46.3191 78.0252 44.1613C78.1702 43.9344 78.1491 43.4427 77.9979 43.2074C77.2268 42.0035 76.0985 41.2723 74.6845 41.058C74.3546 41.0076 73.8987 41.1211 73.6487 41.3312C72.1674 42.575 70.7198 43.8608 69.2848 45.1593C69.0222 45.3946 68.8772 45.7539 68.6776 46.0564ZM45.1857 68.0944C45.0218 68.1932 44.9273 68.2373 44.8453 68.2982C41.9459 70.4623 38.8972 72.389 35.6658 74.0194C35.5271 74.0908 35.3317 74.1496 35.275 74.2673C35.109 74.6245 34.8317 75.051 34.9136 75.3683C34.9956 75.6855 35.4578 76.1225 35.7582 76.1288C37.1933 76.1541 38.7396 76.3684 40.0465 75.925C42.8304 74.9817 45.4903 73.6727 48.352 72.4478C46.7216 71.2649 45.7383 69.8824 45.1857 68.0944ZM90.0159 23.8042C91.7724 22.4721 93.3629 21.3249 94.8841 20.0916C95.9283 19.2449 96.4283 18.062 96.4872 16.7173C96.5313 15.7172 96.0165 14.965 95.1278 14.6499C94.2432 14.3368 93.3671 14.6099 92.7914 15.4441C91.8711 16.7803 90.9761 18.1334 90.0936 19.4949C89.9865 19.6588 89.9718 19.913 89.9865 20.1189C90.0243 20.6547 90.1462 21.1883 90.1525 21.722C90.1588 22.3397 90.0768 22.9595 90.0159 23.8042ZM84.8284 29.1597C82.0046 32.3912 79.1703 35.6352 76.4347 38.7637C77.5041 39.4906 78.6387 40.2596 79.8048 41.0517C81.8155 37.274 83.511 33.2778 84.8284 29.1597ZM68.0977 51.1221C67.4947 49.9371 66.8896 48.7521 66.2761 47.5461C65.3642 48.2205 64.4124 48.9244 63.3073 49.7417C65.1982 49.727 66.7593 50.1976 68.0977 51.1221ZM54.7728 58.8897C55.4073 59.1817 55.941 59.4276 56.5293 59.6965C56.399 58.8119 56.2772 57.9925 56.1406 57.0828C55.6594 57.7194 55.2413 58.272 54.7728 58.8897ZM69.3688 52.1432C69.8479 52.887 70.3059 53.595 70.8018 54.3619C71.1022 54.0068 71.3964 53.6623 71.701 53.303C70.9026 52.9059 70.1651 52.5382 69.3688 52.1432ZM59.5842 63.6129C59.7313 64.157 59.8132 64.4659 59.9183 64.8546C60.204 64.634 60.4204 64.468 60.7146 64.2411C60.3448 64.0352 60.0612 63.8776 59.5842 63.6129Z" fill="black"/>
<path d="M75.1068 76.1604C75.1194 71.2145 79.8468 67.6049 84.6225 68.918C85.1415 69.0609 85.5134 69.021 85.9777 68.7016C88.7238 66.8065 92.3208 66.9598 94.9093 69.0273C97.4747 71.0737 98.4243 74.532 97.2667 77.5975C96.1048 80.6734 93.0309 82.8081 89.7533 82.3942C88.1418 82.1904 86.898 82.4929 85.4566 83.1233C80.5612 85.26 75.0942 81.5075 75.1068 76.1604ZM95.237 74.9375C95.2433 72.1578 92.9784 69.8908 90.1987 69.8929C87.4526 69.895 85.1961 72.1305 85.173 74.8703C85.1499 77.6521 87.398 79.9402 90.1693 79.9549C92.949 79.9696 95.2328 77.7088 95.237 74.9375ZM83.5153 71.2922C81.5129 70.8006 79.2837 71.8679 78.2437 73.7673C77.1449 75.7738 77.5336 78.2593 79.1892 79.8246C80.8259 81.3731 83.2421 81.6588 85.0469 80.5201C82.3008 76.7066 82.0781 75.3977 83.5153 71.2922Z" fill="black"/>
<path d="M65.0238 87.5061C60.8742 87.5019 57.481 84.0961 57.4873 79.9465C57.4936 75.7969 60.8973 72.4058 65.049 72.4121C69.2028 72.4184 72.5897 75.8158 72.5855 79.9717C72.5792 84.1213 69.1776 87.5103 65.0238 87.5061ZM65.0427 84.989C67.8161 84.9869 70.0789 82.7073 70.0684 79.9318C70.0579 77.1899 67.8119 74.9418 65.07 74.9271C62.2903 74.9124 60.0128 77.171 60.0065 79.9444C59.9981 82.7178 62.2672 84.9911 65.0427 84.989Z" fill="black"/>
<path d="M88.6734 71.6558C89.8941 72.6559 90.4887 72.6538 91.8459 71.5864C92.3712 72.1747 92.9007 72.7714 93.447 73.3828C91.9804 75.4503 88.6755 75.4755 86.877 73.2883C87.461 72.7567 88.0514 72.2209 88.6734 71.6558Z" fill="black"/>
<path d="M66.7068 76.6226C67.2447 77.1793 67.7846 77.7403 68.3309 78.3055C67.2825 80.0116 67.2846 80.1418 68.3645 81.6021C68.3099 81.6777 68.2574 81.7659 68.188 81.8374C67.7153 82.3248 67.2405 82.8081 66.7761 83.2829C64.4965 81.9529 64.4713 78.2677 66.7068 76.6226Z" fill="black"/>
</svg>
