<svg width="120" height="100" viewBox="0 0 120 100" fill="none" xmlns="http://www.w3.org/2000/svg">
<rect width="120" height="100" fill="white"/>
<path d="M96 27.6113C95.6339 29.3401 94.5208 30.5622 93.3116 31.7659C77.1295 47.8944 60.9604 64.0376 44.8042 80.192C44.1571 80.8391 43.4526 81.2329 42.5762 81.4678C37.4065 82.8434 32.2479 84.2578 27.0875 85.663C26.8933 85.7167 26.7121 85.8147 26.5254 85.8923C26.0169 85.8923 25.5085 85.8923 25 85.8923C25 85.3838 25 84.8772 25 84.3688C25.5066 82.6049 26.0299 80.8447 26.5161 79.077C27.5553 75.3033 28.5648 71.5222 29.6205 67.754C29.7444 67.3121 30.0144 66.8591 30.3379 66.5356C46.9046 49.9726 63.4842 33.4226 80.0657 16.8744C82.5673 14.3783 85.8603 14.3764 88.3564 16.8614C90.026 18.5218 91.6623 20.2136 93.3634 21.8407C94.5874 23.0055 95.6487 24.2425 96 25.9491C96 26.5038 96 27.0566 96 27.6113ZM38.1664 72.7499C39.0003 72.7499 39.7584 72.7148 40.5128 72.761C41.0693 72.7943 41.4465 72.6038 41.8366 72.2137C54.4705 59.5816 67.1156 46.9625 79.7606 34.3396C79.9363 34.164 80.1027 33.9809 80.2321 33.846C79.1819 32.7958 78.1742 31.7899 77.1369 30.7527C77.0038 30.8784 76.8337 31.0319 76.6728 31.1927C75.1364 32.7255 73.6017 34.2583 72.0652 35.7911C60.9253 46.9144 49.7834 58.034 38.649 69.1629C38.4382 69.3737 38.2053 69.6732 38.1868 69.945C38.1295 70.8399 38.1664 71.7404 38.1664 72.7499ZM33.0929 67.0496C34.0932 67.2973 35.0898 67.5026 36.0586 67.7984C36.5597 67.9519 36.8555 67.8261 37.205 67.4767C49.826 54.8612 62.458 42.255 75.0864 29.6451C75.2602 29.4713 75.4229 29.2864 75.5135 29.1903C74.737 28.3786 74.0085 27.6187 73.317 26.8976C59.9231 40.2674 46.5311 53.6354 33.0929 67.0496ZM43.8538 77.7181C57.2625 64.3335 70.6656 50.9525 83.9836 37.6548C83.318 36.9633 82.5877 36.2071 81.7316 35.3177C81.5911 35.5193 81.4727 35.756 81.2952 35.9335C68.7353 48.4805 56.1697 61.022 43.6061 73.5653C43.4914 73.6799 43.3417 73.7761 43.2733 73.9129C43.1697 74.12 43.0255 74.377 43.0699 74.5748C43.3084 75.6546 43.6005 76.7196 43.8538 77.7181ZM78.2611 22.1328C81.7686 25.6366 85.3851 29.2476 88.9795 32.8364C90.2886 31.5514 91.7049 30.259 93.0065 28.8593C94.1122 27.6723 94.0919 25.803 92.9603 24.6271C90.8322 22.4157 88.6578 20.2469 86.4483 18.1169C85.3056 17.0131 83.4844 16.8503 82.3196 17.8932C80.8348 19.2244 79.5443 20.7738 78.2611 22.1328ZM41.9586 79.3137C41.6092 77.9196 41.2949 76.5994 40.9306 75.2959C40.8881 75.1462 40.5719 74.9853 40.3778 74.9798C39.3387 74.9483 38.2996 74.9724 37.2604 74.9613C36.3434 74.952 35.9588 74.5656 35.9514 73.654C35.9421 72.6168 35.9625 71.5795 35.9366 70.5423C35.9329 70.3537 35.8146 70.0375 35.687 70.0024C34.3409 69.6326 32.982 69.3071 31.5878 68.9614C31.0054 71.0803 30.4341 73.116 29.9016 75.1628C29.8609 75.3163 30.0384 75.6398 30.1956 75.7156C32.4458 76.7991 34.1043 78.4521 35.1878 80.7004C35.2654 80.8594 35.589 81.0443 35.7406 81.0037C37.7911 80.4712 39.8305 79.8998 41.9586 79.3137ZM87.2285 34.654C83.5768 31.0097 79.9603 27.3987 76.3252 23.7692C75.8907 24.2074 75.4063 24.6973 75.0069 25.0986C78.6401 28.7281 82.2659 32.3502 85.8991 35.9834C86.3096 35.5729 86.7811 35.1014 87.2285 34.654ZM29.1823 77.7347C28.6868 79.5596 28.2116 81.318 27.6995 83.2058C29.6224 82.6807 31.3826 82.1999 33.1724 81.7118C32.3219 79.861 31.0442 78.5667 29.1823 77.7347Z" fill="black"/>
</svg>
