<svg width="120" height="100" viewBox="0 0 120 100" fill="none" xmlns="http://www.w3.org/2000/svg">
<rect width="120" height="100" fill="white"/>
<path d="M72.2902 83.4912C73.7537 83.4912 75.1037 83.4841 76.456 83.4935C80.208 83.5172 83.0734 85.9618 83.6598 89.6334C83.934 91.3498 83.3926 91.9882 81.6525 91.9882C67.3774 91.9882 53.0999 91.9787 38.8247 92C36.9499 92.0024 35.425 91.4042 34.5668 89.6973C33.692 87.9572 33.8315 86.21 34.9734 84.5976C36.8506 81.9497 38.7609 79.3278 40.6168 76.6657C40.8722 76.2992 41.0235 75.746 40.9786 75.3063C40.1487 67.4665 39.7184 59.6079 39.9407 51.7279C40.1629 43.7227 40.8722 35.7671 43.4752 28.1236C45.1301 23.2675 47.0688 18.5059 49.8775 14.1818C50.9579 12.5174 52.2866 10.9712 53.7075 9.581C55.5587 7.76765 57.9796 7.19787 60.5283 7.0371C63.9304 6.8196 67.1055 7.56196 70.0773 9.16963C70.8032 9.56209 71.3706 9.53135 72.12 9.25947C76.9076 7.51704 81.4019 8.05608 85.5157 11.1532C86.1682 11.645 86.8065 12.1746 86.4826 13.1297C86.1611 14.073 85.362 14.1085 84.5251 14.1227C78.5933 14.2338 74.2336 17.4704 72.6827 22.9507C72.5361 23.4684 72.5527 24.128 72.7371 24.6316C76.1723 34.027 77.5743 43.7369 77.3686 53.7068C77.1676 63.4663 75.4961 72.9822 72.652 82.3067C72.5361 82.6637 72.4297 83.0231 72.2902 83.4912ZM48.0972 23.8632C47.4116 25.6742 46.7047 27.3576 46.1325 29.0834C44.2861 34.663 43.4799 40.4317 43.0662 46.2689C42.3711 56.0993 42.7683 65.899 43.9315 75.6727C44.0213 76.4245 43.8842 77.0392 43.4373 77.6563C41.3734 80.4981 39.3425 83.3611 37.2927 86.2124C36.7986 86.9004 36.7348 87.6404 37.0776 88.3827C37.4157 89.1157 38.106 89.1606 38.8177 89.1582C43.4894 89.1488 48.1587 89.1535 52.8304 89.1535C53.1164 89.1535 53.4002 89.1535 53.6815 89.1535C53.698 88.9478 53.717 88.8603 53.7122 88.7752C53.3505 83.8529 54.4451 79.2356 56.6344 74.8452C56.7644 74.5852 56.8826 74.2991 56.9134 74.0154C57.1309 71.9065 57.4619 69.7976 57.4997 67.684C57.5848 63.0123 56.7621 58.5321 54.1638 54.513C53.7193 53.825 53.8895 53.0732 54.4971 52.624C55.1308 52.1558 55.9653 52.2291 56.4547 52.9171C56.9843 53.6571 57.4619 54.4468 57.8543 55.2648C59.923 59.5677 60.5519 64.1448 60.3344 68.8661C60.2635 70.4147 60.0933 71.9562 59.9703 73.5C61.3014 73.6584 61.6489 73.4763 62.1761 72.3652C63.8855 68.7692 65.103 65.029 65.356 61.0311C65.6563 56.2578 64.6562 51.8438 61.7104 47.9523C61.3345 47.4558 61.0555 46.7489 61.046 46.1342C60.9869 42.2119 61.0153 38.2873 61.0153 34.3651C61.0153 32.8094 60.4479 31.5115 59.1216 30.6769C55.5279 28.4167 51.8989 26.2062 48.0972 23.8632ZM49.2675 21.2531C49.5323 21.4281 49.7474 21.577 49.972 21.7142C53.3434 23.7829 56.7053 25.8657 60.0909 27.9084C62.6442 29.4475 63.8925 31.6628 63.8642 34.6464C63.8311 38.2448 63.8429 41.8431 63.8736 45.4415C63.876 45.8434 64.0344 46.3091 64.2708 46.6354C66.5097 49.7231 67.7439 53.1748 68.1221 56.9457C68.7321 63.0147 67.1363 68.6273 64.5238 74.0178C63.8287 75.4528 62.5851 76.4789 61.0295 76.3323C59.0625 76.1479 58.4738 77.2024 58.0435 78.6989C57.9631 78.9826 57.8472 79.2545 57.755 79.5335C56.729 82.6401 56.2325 85.8081 56.6084 89.1558C60.0602 89.1558 63.4528 89.1653 66.8455 89.1322C67.0346 89.1298 67.3018 88.8154 67.3916 88.5908C70.5786 80.5832 72.678 72.2919 73.7797 63.7547C74.6379 57.0947 74.801 50.4134 74.1462 43.7203C73.6024 38.1573 72.4652 32.722 70.6802 27.419C70.5289 26.9675 70.3138 26.8374 69.8622 26.8445C68.1481 26.8658 66.4294 26.7901 64.72 26.8753C63.5426 26.9344 62.8334 26.5135 62.2021 25.5111C59.5991 21.3666 55.658 19.1041 50.9839 17.799C50.4047 18.9646 49.8444 20.0923 49.2675 21.2531ZM52.5585 15.2362C52.6814 15.2977 52.7524 15.345 52.8327 15.371C57.6085 16.903 61.6347 19.4682 64.4694 23.7048C64.5758 23.8632 64.843 23.998 65.0392 24.0027C66.5121 24.0264 67.9874 24.0169 69.5052 24.0169C69.997 21.1349 71.1554 18.5934 72.9924 16.3521C72.1768 15.2646 71.4439 14.1912 70.6069 13.2053C70.127 12.6403 69.5383 12.106 68.8929 11.749C66.4459 10.399 63.8334 9.8056 60.9987 9.82925C56.9748 9.85998 54.5373 12.1036 52.5585 15.2362ZM80.6501 89.118C79.8156 87.3685 78.5862 86.4228 76.8059 86.3448C75.1533 86.2739 73.496 86.314 71.841 86.3353C71.6235 86.3377 71.2878 86.4772 71.2169 86.6427C70.8741 87.4371 70.6046 88.2645 70.2948 89.118C73.7655 89.118 77.1251 89.118 80.6501 89.118ZM80.4113 11.6284C78.5483 10.7938 74.7041 10.9972 73.2643 11.9854C73.8601 12.7774 74.4559 13.5671 74.9405 14.2125C76.8603 13.307 78.6547 12.4583 80.4113 11.6284Z" fill="black"/>
<path d="M63.8997 16.9287C63.1337 16.9523 62.4693 16.3305 62.4457 15.5621C62.422 14.7938 63.0414 14.1365 63.8145 14.1105C64.5829 14.0869 65.2449 14.7087 65.2685 15.477C65.2922 16.2383 64.6657 16.9027 63.8997 16.9287Z" fill="black"/>
</svg>
