<svg width="120" height="100" viewBox="0 0 120 100" fill="none" xmlns="http://www.w3.org/2000/svg">
<rect width="120" height="100" fill="white"/>
<path d="M25.7949 68.2223C24.8346 68.2223 24.0343 68.2353 23.2315 68.2198C21.1844 68.1785 19.5297 66.8955 19.1141 65.0523C18.6778 63.1111 19.5065 61.3221 21.3651 60.3954C21.8659 60.145 21.9769 59.8558 21.9743 59.3525C21.9588 55.6094 21.9795 51.8662 21.9485 48.1257C21.9434 47.6378 21.7833 47.1086 21.5536 46.6724C20.9392 45.503 20.2448 44.3774 19.5891 43.2313C18.9076 42.0438 18.9824 41.7521 20.1492 41.0758C28.7997 36.0755 37.4527 31.0804 46.1032 26.0827C58.4942 18.9243 70.8877 11.7711 83.2787 4.61271C84.8844 3.68597 85.0135 3.71694 85.9583 5.35617C86.6682 6.58494 87.3858 7.80855 88.0828 9.04249C88.6172 9.98988 88.5165 10.3797 87.5743 10.9295C85.4601 12.1635 83.3329 13.3819 81.2136 14.6081C80.9115 14.7836 80.6147 14.9695 80.261 15.1838C80.3591 15.3903 80.4262 15.5607 80.5166 15.7181C86.3661 25.8865 92.2209 36.0548 98.0602 46.2283C98.2434 46.5459 98.3725 46.946 98.3751 47.3074C98.388 51.3086 98.3777 55.3073 98.3519 59.3086C98.3493 59.8455 98.4706 60.1553 99.0075 60.4212C100.809 61.3092 101.63 63.0956 101.22 65.0084C100.827 66.8284 99.2115 68.1423 97.2341 68.212C96.3719 68.243 95.5071 68.2172 94.5339 68.2172C94.5339 68.7361 94.5339 69.1439 94.5339 69.5544C94.5339 76.7179 94.5339 83.8789 94.5339 91.0424C94.5339 92.852 94.3764 93.0017 92.5281 93.0017C91.0128 93.0017 89.4949 93.0069 87.9796 92.9992C86.6785 92.994 86.3791 92.7049 86.3791 91.4064C86.3739 84.1473 86.3765 76.8883 86.3765 69.6267C86.3765 69.2085 86.3765 68.7903 86.3765 68.2946C68.9207 68.2946 51.5191 68.2946 33.96 68.2946C33.96 68.6534 33.96 69.0226 33.96 69.3943C33.96 76.6534 33.96 83.9124 33.96 91.1741C33.96 92.7797 33.7354 92.9992 32.104 92.9992C30.5887 92.9992 29.0708 93.0017 27.5554 92.9992C26.0375 92.9966 25.8026 92.772 25.8026 91.2747C25.8001 84.0467 25.8026 76.8212 25.8026 69.5931C25.7949 69.1826 25.7949 68.767 25.7949 68.2223ZM78.4462 16.206C61.3002 26.1059 44.242 35.9542 26.9514 45.9341C49.9599 45.9341 72.6819 45.9341 95.5381 45.9341C89.8201 35.9929 84.1719 26.1679 78.4462 16.206ZM96.3073 48.1722C72.1604 48.1722 48.0935 48.1722 24.055 48.1722C24.055 52.1425 24.055 56.025 24.055 59.8946C25.9859 59.8946 27.8394 59.8946 29.7574 59.8946C29.7574 58.9549 29.7471 58.0901 29.76 57.2228C29.7729 56.2212 30.0956 55.8804 31.0895 55.8752C33.3147 55.8623 35.5399 55.8598 37.7651 55.8752C38.7461 55.883 39.0636 56.2289 39.0765 57.2383C39.0868 58.1289 39.0791 59.0195 39.0791 59.8868C40.3388 59.8868 41.4488 59.8868 42.5356 59.8868C42.5666 59.7397 42.5898 59.6777 42.5924 59.6158C42.6002 58.9059 42.6002 58.196 42.6079 57.4861C42.6208 56.1592 42.8919 55.8752 44.18 55.8727C46.2762 55.8675 48.3723 55.8675 50.4684 55.8727C51.643 55.8778 51.9605 56.1902 51.976 57.357C51.9863 58.2115 51.9786 59.0659 51.9786 59.9126C53.2306 59.9126 54.3148 59.9126 55.5023 59.9126C55.5023 58.9962 55.4945 58.134 55.5049 57.2718C55.5152 56.2083 55.8301 55.8778 56.8808 55.8727C59.075 55.8598 61.2667 55.8598 63.4609 55.8727C64.5038 55.8778 64.8136 56.2108 64.8239 57.2847C64.8317 58.1469 64.8265 59.0065 64.8265 59.9023C66.0475 59.9023 67.155 59.9023 68.3502 59.9023C68.3502 59.0065 68.3399 58.1727 68.3528 57.3415C68.3682 56.2108 68.6858 55.8778 69.7751 55.8727C71.9694 55.8623 74.161 55.8598 76.3553 55.8727C77.3543 55.8778 77.6899 56.2108 77.7157 57.2073C77.7389 58.0979 77.7209 58.9885 77.7209 59.892C78.9625 59.892 80.0674 59.892 81.2497 59.892C81.2497 58.9523 81.2394 58.0875 81.2523 57.2228C81.2652 56.216 81.5827 55.8804 82.5766 55.8727C84.8018 55.8598 87.027 55.8572 89.2522 55.8727C90.2332 55.8804 90.5559 56.2289 90.5688 57.2357C90.5791 58.1263 90.5714 59.0169 90.5714 59.8971C92.5642 59.8971 94.4177 59.8971 96.3099 59.8971C96.3073 55.9682 96.3073 52.1063 96.3073 48.1722ZM60.1644 66.152C70.6786 66.152 81.1929 66.152 91.7046 66.152C93.4135 66.152 95.1225 66.1572 96.8314 66.1494C98.3467 66.1417 99.2476 65.3931 99.2734 64.1385C99.2992 62.8529 98.3906 62.0682 96.8262 62.032C96.4726 62.0243 96.1163 62.0268 95.7626 62.0268C85.0883 62.032 74.414 62.0449 63.7397 62.0449C50.4529 62.0449 37.1662 62.032 23.8795 62.0294C21.9718 62.0294 21.0166 62.7574 21.0502 64.1436C21.0812 65.4937 22.0079 66.152 23.8846 66.152C35.9762 66.152 48.0703 66.152 60.1644 66.152ZM23.3503 45.663C44.2936 33.5715 65.1234 21.5445 85.997 9.49166C85.3723 8.41261 84.8147 7.44715 84.2261 6.42747C63.306 18.5061 42.4685 30.5357 21.5768 42.5962C22.1757 43.634 22.7384 44.602 23.3503 45.663ZM31.8407 90.8953C31.8407 83.2877 31.8407 75.7937 31.8407 68.2946C30.4802 68.2946 29.1818 68.2946 27.8885 68.2946C27.8885 75.8634 27.8885 83.36 27.8885 90.8953C29.2256 90.8953 30.5035 90.8953 31.8407 90.8953ZM92.4326 90.8953C92.4326 83.2903 92.4326 75.7938 92.4326 68.2972C91.0721 68.2972 89.7737 68.2972 88.4829 68.2972C88.4829 75.866 88.4829 83.3626 88.4829 90.8953C89.8201 90.8953 91.0954 90.8953 92.4326 90.8953ZM31.8587 57.9895C31.8587 58.6606 31.8587 59.2802 31.8587 59.8946C33.6219 59.8946 35.305 59.8946 37.0139 59.8946C37.0139 59.226 37.0139 58.6322 37.0139 57.9895C35.2662 57.9895 33.5806 57.9895 31.8587 57.9895ZM62.7407 59.9101C62.7407 59.2027 62.7407 58.609 62.7407 58.0024C60.9853 58.0024 59.2996 58.0024 57.57 58.0024C57.57 58.6632 57.57 59.257 57.57 59.9101C59.3099 59.9101 60.9956 59.9101 62.7407 59.9101ZM88.4855 58.0075C86.7147 58.0075 85.029 58.0075 83.3097 58.0075C83.3097 58.671 83.3097 59.2647 83.3097 59.9126C85.0522 59.9126 86.7379 59.9126 88.4855 59.9126C88.4855 59.2776 88.4855 58.6813 88.4855 58.0075ZM49.8644 58.0075C48.0961 58.0075 46.4104 58.0075 44.7144 58.0075C44.7144 58.6761 44.7144 59.2724 44.7144 59.9152C46.4491 59.9152 48.1322 59.9152 49.8644 59.9152C49.8644 59.2673 49.8644 58.6735 49.8644 58.0075ZM75.6144 58.0127C73.8358 58.0127 72.1501 58.0127 70.4644 58.0127C70.4644 58.6839 70.4644 59.2802 70.4644 59.9126C72.2017 59.9126 73.8848 59.9126 75.6144 59.9126C75.6144 59.2595 75.6144 58.6632 75.6144 58.0127Z" fill="black"/>
</svg>
