<svg width="120" height="100" viewBox="0 0 120 100" fill="none" xmlns="http://www.w3.org/2000/svg">
<rect width="120" height="100" fill="white"/>
<path d="M111.944 63.0955C111.24 65.0026 110.139 66.5524 108.028 67.0037C107.157 67.1917 106.231 67.1541 105.331 67.1541C104.772 67.1541 104.453 67.2776 104.189 67.8471C102.331 71.8358 99.1665 74.0088 94.7641 74.0007C90.3644 73.9899 87.203 71.8089 85.3738 67.8041C85.0676 67.1326 84.6298 67.1648 84.0953 67.1648C71.968 67.1675 59.838 67.1568 47.7108 67.1783C46.2442 67.1809 44.9066 67.0332 43.9504 65.7386C43.8268 65.572 43.4857 65.4995 43.2439 65.4941C42.2071 65.47 40.9877 65.1557 40.1846 65.5908C39.5131 65.9534 39.3224 67.2105 38.9248 68.0754C37.0769 72.0883 33.0398 74.3552 28.4306 73.9631C24.4097 73.622 20.7621 70.4955 19.6743 66.4584C19.5964 66.1683 19.5239 65.8782 19.4218 65.4834C17.3536 65.4834 15.2854 65.4834 13.2171 65.4834C10.2464 65.4834 9.0028 64.2371 9.00011 61.2691C9.00011 60.431 9.00548 59.593 9.00011 58.755C8.99205 57.651 9.42987 56.77 10.2034 55.9857C10.4855 55.6983 10.6977 55.2041 10.703 54.8038C10.738 51.1536 10.7191 47.5006 10.7245 43.8477C10.7299 40.0335 12.7525 38.0002 16.5451 38.0002C25.0221 37.9975 33.4991 38.0002 41.9761 38.0002C42.3764 38.0002 42.7739 38.0002 43.3353 38.0002C43.3353 37.2105 43.3353 36.4907 43.3353 35.7682C43.3353 34.2935 43.3218 32.8189 43.3406 31.3443C43.3809 28.1587 45.4384 26.0583 48.6401 26.0233C52.4247 25.9804 56.2119 26.0126 59.9992 26.0126C62.8813 26.0126 65.7634 26.0502 68.6428 26.0019C71.6753 25.9508 74.2565 26.95 76.5047 28.9833C80.3054 32.4214 84.1463 35.8165 87.9981 39.1982C88.3661 39.5205 88.914 39.7649 89.3975 39.8052C94.8044 40.2672 100.217 40.6244 105.618 41.1294C108.858 41.4302 110.912 43.3239 111.769 46.4665C111.801 46.5901 111.885 46.6975 111.946 46.813C111.944 52.2387 111.944 57.6671 111.944 63.0955ZM108.482 51.6854C107.087 51.6854 105.777 51.7767 104.485 51.6639C102.204 51.4678 100.429 49.7864 100.053 47.5328C99.9105 46.6814 99.9105 45.7977 99.9293 44.9328C99.94 44.3123 99.7762 44.0598 99.1074 44.0034C92.3951 43.4555 85.6827 43.0606 78.9382 43.1493C71.1649 43.2514 63.3916 43.1815 55.6183 43.1681C52.3548 43.1627 50.2168 41.0085 50.1953 37.7477C50.1846 36.0045 50.1926 34.264 50.1926 32.5208C50.1926 31.527 50.1926 30.5305 50.1926 29.5581C47.6517 29.2143 46.7142 29.593 46.733 32.2952C46.8056 42.3462 46.7626 52.3999 46.7626 62.4509C46.7626 62.843 46.7626 63.2352 46.7626 63.6676C59.3841 63.6676 71.8928 63.6676 84.4311 63.6676C84.474 63.3802 84.517 63.1546 84.5412 62.9236C84.9951 58.6636 87.195 55.6392 91.1837 54.1377C95.1778 52.6362 98.8173 53.5092 101.965 56.3966C102.156 56.5712 102.382 56.8345 102.596 56.8398C104.555 56.8748 106.515 56.8613 108.484 56.8613C108.482 55.1181 108.482 53.5173 108.482 51.6854ZM14.211 55.1879C14.587 55.1879 14.912 55.1879 15.237 55.1879C17.8156 55.1879 20.3941 55.2121 22.9727 55.1691C23.5099 55.1611 24.1008 55.0134 24.5735 54.7555C30.4881 51.5216 37.8182 54.6454 39.5426 61.1616C39.6178 61.4463 39.6984 61.731 39.7682 61.9943C40.9662 61.9943 42.0916 61.9943 43.2493 61.9943C43.2493 55.1262 43.2493 48.3225 43.2493 41.5001C35.8171 41.5001 28.4656 41.5001 21.0226 41.5001C21.1167 43.4662 20.9636 45.3061 19.5292 46.7861C18.06 48.3037 16.1502 48.3413 14.1626 48.3494C14.1626 50.3639 14.1599 52.2656 14.1653 54.17C14.1653 54.4654 14.1895 54.7609 14.211 55.1879ZM29.6098 70.5975C33.44 70.5707 36.486 67.4898 36.4457 63.6784C36.4081 59.9234 33.3165 56.8721 29.5641 56.8828C25.7903 56.8936 22.6584 60.0684 22.7148 63.8234C22.7712 67.5946 25.8521 70.6217 29.6098 70.5975ZM94.7695 70.5948C98.5997 70.5922 101.689 67.4979 101.659 63.6918C101.63 59.9502 98.503 56.8667 94.7534 56.8801C90.9876 56.8936 87.9336 59.9771 87.939 63.759C87.9444 67.5543 90.9849 70.5975 94.7695 70.5948ZM83.3782 39.7031C80.3322 36.993 77.3696 34.5702 74.6648 31.8896C72.062 29.3056 68.9866 29.2734 65.7096 29.534C65.7096 32.9425 65.7096 36.3027 65.7096 39.7031C71.5651 39.7031 77.34 39.7031 83.3782 39.7031ZM53.6414 29.5044C53.6414 32.4563 53.6092 35.3599 53.6629 38.2635C53.679 39.0907 54.3076 39.6709 55.1053 39.6951C57.4314 39.7649 59.7628 39.7193 62.1131 39.7193C62.1131 36.257 62.1131 32.8968 62.1131 29.5044C59.2659 29.5044 56.4993 29.5044 53.6414 29.5044ZM12.4785 62.0131C14.8287 62.0131 17.0903 62.0131 19.3466 62.0131C19.7414 60.9038 20.1255 59.8159 20.5284 58.6797C17.8344 58.6797 15.1806 58.6797 12.4785 58.6797C12.4785 59.7918 12.4785 60.8474 12.4785 62.0131ZM103.37 44.4547C103.37 45.2471 103.316 45.983 103.383 46.7056C103.464 47.5543 103.939 48.1909 104.834 48.2446C106.027 48.3145 107.224 48.2634 108.412 48.2634C108.688 45.7413 106.765 44.2774 103.37 44.4547ZM104.581 60.3424C104.786 61.4678 104.982 62.5637 105.178 63.6488C107.979 64.0947 108.93 63.1385 108.363 60.3424C107.114 60.3424 105.86 60.3424 104.581 60.3424ZM14.2781 44.8012C16.8943 45.1584 18.0251 44.452 17.4449 41.5269C14.6971 41.1106 13.8161 41.9997 14.2781 44.8012Z" fill="black"/>
</svg>
