<svg width="120" height="100" viewBox="0 0 120 100" fill="none" xmlns="http://www.w3.org/2000/svg">
<rect width="120" height="100" fill="white"/>
<path d="M88.156 14C88.5901 14.3364 88.7203 14.7749 88.7203 15.3241C88.7095 38.1066 88.7116 60.8869 88.7095 83.6694C88.7095 84.7439 88.4468 85 87.3485 85C69.0222 85 50.6981 85 32.3718 85C31.2735 85 31.0109 84.7439 31.0109 83.6694C31.0109 60.8869 31.0109 38.1066 31 15.3241C31.0043 14.7749 31.1346 14.3364 31.5687 14C50.4311 14 69.2935 14 88.156 14ZM42.1199 73.8714C53.9887 73.8714 65.7859 73.8714 77.5809 73.8714C77.5809 57.592 77.5809 41.3603 77.5809 25.1286C65.736 25.1286 53.941 25.1286 42.1199 25.1286C42.1199 41.3928 42.1199 57.6072 42.1199 73.8714ZM32.8298 81.844C32.9774 81.7441 33.0404 81.7159 33.0859 81.6703C35.4085 79.3521 37.7353 77.0383 40.0383 74.7027C40.2163 74.5226 40.301 74.1731 40.301 73.9018C40.314 57.6375 40.314 41.3711 40.2945 25.1069C40.2945 24.7857 40.1208 24.3884 39.8951 24.1584C37.7267 21.9487 35.53 19.7673 33.3377 17.5793C33.201 17.4447 33.0469 17.3297 32.832 17.1474C32.8298 38.7512 32.8298 60.2488 32.8298 81.844ZM86.8949 17.1582C86.7473 17.2559 86.6843 17.2863 86.6387 17.3319C84.3162 19.65 81.9893 21.9639 79.6863 24.2994C79.5083 24.4796 79.4237 24.8291 79.4237 25.1004C79.4107 41.3646 79.4107 57.631 79.4302 73.8953C79.4302 74.2165 79.6039 74.6137 79.8296 74.8438C81.998 77.0535 84.1946 79.2349 86.3869 81.4229C86.5237 81.5574 86.6778 81.6725 86.8927 81.8548C86.8949 60.2509 86.8949 38.7534 86.8949 17.1582ZM85.5708 15.8276C68.3971 15.8276 51.3254 15.8276 34.1625 15.8276C34.2863 15.9796 34.347 16.0707 34.423 16.1467C36.7087 18.4345 38.9878 20.7288 41.2951 22.9949C41.4905 23.1859 41.8638 23.2793 42.1547 23.2814C53.9605 23.2945 65.7663 23.2966 77.5744 23.2749C77.913 23.2749 78.3341 23.0883 78.5793 22.8473C80.7738 20.6963 82.9379 18.5148 85.1085 16.3421C85.2474 16.2031 85.3733 16.049 85.5708 15.8276ZM34.1582 83.168C51.3319 83.168 68.4014 83.168 85.5773 83.168C85.3559 82.9271 85.2127 82.7578 85.0564 82.6015C82.9183 80.4613 80.7695 78.3276 78.6445 76.1744C78.3102 75.8358 77.9781 75.6947 77.4984 75.6968C65.7381 75.7099 53.9779 75.7099 42.2176 75.6968C41.7357 75.6968 41.408 75.8466 41.0759 76.1831C38.9509 78.3363 36.8042 80.47 34.6661 82.6124C34.5098 82.7665 34.3688 82.9358 34.1582 83.168Z" fill="black"/>
</svg>
