<svg width="120" height="100" viewBox="0 0 120 100" fill="none" xmlns="http://www.w3.org/2000/svg">
<rect width="120" height="100" fill="white"/>
<path d="M13 51.4802C13.4654 50.6651 14.1806 50.4199 15.1024 50.3449C18.0132 50.1065 20.3358 48.7602 21.689 46.156C23.4259 42.8139 24.9857 39.3809 26.6636 35.8981C25.9189 35.6528 25.2446 35.4076 24.5566 35.2124C20.8603 34.1589 18.7647 31.6478 18.0313 27.9696C17.7861 26.7368 17.7362 25.454 17.6908 24.1916C17.6567 23.2494 18.1607 22.6205 19.0689 22.6023C22.1772 22.5478 25.3059 22.2345 28.3823 22.9111C30.5415 23.3856 32.4328 24.4527 34.1016 25.9489C37.0168 23.733 40.2 22.1686 43.7669 21.5147C45.3925 21.2173 47.0659 21.0379 48.7188 21.0311C60.4615 20.9903 72.202 20.9948 83.9448 21.0152C93.7305 21.0311 101.732 26.7209 104.892 35.948C105.426 37.5033 105.639 39.1698 106 40.7841C106 42.3552 106 43.9264 106 45.4975C105.959 45.6701 105.891 45.8404 105.882 46.0129C105.698 49.4731 104.749 52.7811 103.952 56.1278C103.033 59.9853 103.773 63.5953 106 66.8897C106 67.253 106 67.614 106 67.9773C103.498 71.4511 100.969 74.9044 98.5143 78.4077C97.815 79.4067 97.0158 79.8699 95.7898 79.7904C94.4934 79.7087 93.1878 79.7814 91.8869 79.77C89.1101 79.7428 87.7183 77.3679 89.0738 74.9294C90.2885 72.7384 91.5281 70.5611 92.8109 68.4087C93.1606 67.8229 93.1424 67.4596 92.5953 67.06C90.7426 65.7114 88.9126 64.3309 87.0463 63.0004C86.8487 62.8597 86.381 62.8392 86.1971 62.9755C82.4895 65.7023 78.2801 67.2189 73.8073 68.0545C65.62 69.5825 57.5554 69.2465 49.6837 66.3289C49.0321 66.0883 48.3964 65.8045 47.747 65.5615C46.8774 65.2346 46.614 65.3844 46.4279 66.2994C45.6423 70.2023 44.8567 74.1075 44.0757 78.0104C43.7941 79.4158 43.3718 79.7677 41.9188 79.77C40.2227 79.7746 38.529 79.7746 36.8329 79.77C35.2073 79.7677 34.7055 79.2841 34.701 77.6721C34.6919 73.6239 34.6987 69.5757 34.6964 65.5297C34.6964 64.147 34.6964 64.1243 33.3478 63.9291C27.213 63.0413 21.0805 62.1536 14.9412 61.2999C14.108 61.1841 13.4495 60.9003 13.0023 60.1828C13 57.2812 13 54.3795 13 51.4802ZM16.131 58.3324C22.1181 59.1906 28.0417 60.0534 33.9676 60.8867C36.6014 61.2567 37.7956 62.5713 37.8024 65.2391C37.8115 68.6834 37.8047 72.1277 37.8047 75.5697C37.8047 75.917 37.8047 76.2667 37.8047 76.6481C38.9921 76.6481 40.0434 76.6481 41.1218 76.6481C41.1899 76.437 41.2717 76.244 41.3125 76.0419C41.9937 72.6408 42.6771 69.2397 43.3423 65.834C43.9326 62.8075 46.1509 61.5337 48.9708 62.7257C57.3873 66.2812 66.0378 66.6468 74.8517 64.6556C78.0485 63.9336 81.075 62.7212 83.8767 60.814C81.4087 58.3982 79.9579 55.5443 79.6855 52.0637C80.7299 51.9842 81.713 51.9093 82.7074 51.8344C82.8187 52.427 82.8868 52.9355 83.0094 53.4282C83.6973 56.205 85.2617 58.3574 87.7433 59.7855C90.6949 61.4861 93.4399 63.4409 95.8193 65.8885C96.8682 66.9647 96.9409 67.387 96.2076 68.6698C94.8453 71.056 93.4785 73.4377 92.1139 75.824C91.9709 76.0737 91.8483 76.3371 91.6689 76.689C92.904 76.689 94.0211 76.6504 95.1336 76.7049C95.7285 76.7344 96.0577 76.5074 96.3846 76.0419C98.2805 73.3492 100.19 70.6655 102.136 68.0091C102.515 67.4891 102.504 67.11 102.224 66.5582C101.162 64.4581 100.635 62.2171 100.501 59.8604C100.351 57.2403 101.08 54.7882 101.711 52.2998C102.133 50.6288 102.399 48.9168 102.753 47.1368C99.0729 47.8497 96.4369 45.25 96.7025 42.0328C96.7706 41.2223 96.7502 40.4004 96.6911 39.5875C96.6208 38.6203 95.9737 38.0323 95.1177 38.0504C94.2459 38.0686 93.6714 38.6703 93.6215 39.6511C93.5965 40.1211 93.617 40.5911 93.617 41.0724C92.5158 41.0724 91.5622 41.0724 90.4656 41.0724C90.5337 40.1506 90.4815 39.2606 90.6835 38.4319C91.2443 36.1115 93.3173 34.7424 95.7376 34.9831C97.9513 35.2033 99.67 37.0923 99.7971 39.4945C99.8471 40.4594 99.8017 41.4266 99.8176 42.3938C99.8357 43.4791 100.426 44.1739 101.325 44.1966C102.254 44.217 103.008 43.4564 102.874 42.362C102.642 40.4844 102.49 38.5454 101.886 36.7745C99.2023 28.9278 92.3342 24.119 83.9902 24.1076C72.2157 24.0894 60.4411 24.0962 48.6688 24.1144C47.5245 24.1167 46.3598 24.1734 45.2382 24.3778C38.1975 25.6697 33.1298 29.568 30.0397 36.0116C28.3551 39.5217 26.6749 43.0318 25.0198 46.5533C24.0049 48.7125 22.6176 50.5697 20.5129 51.7299C19.1575 52.4769 17.6658 52.9719 16.14 53.6189C16.131 55.0448 16.131 56.6364 16.131 58.3324ZM31.6086 27.9583C28.5231 25.127 24.661 25.622 20.6764 25.6697C20.9716 26.8299 21.1577 27.897 21.5187 28.9028C22.0568 30.4013 23.1671 31.4207 24.6406 31.9929C25.567 32.3539 26.5319 32.6241 27.4968 32.8647C27.7262 32.9215 28.1371 32.783 28.2756 32.5968C29.3904 31.1006 30.4598 29.5726 31.6086 27.9583Z" fill="black"/>
<path d="M38.5517 37.1582C43.2583 39.3742 47.6017 38.8656 51.7158 35.9072C52.4151 36.5906 53.1212 37.2785 53.8681 38.0074C52.0563 39.7352 49.9221 40.7546 47.5449 41.2359C43.1993 42.1169 39.1125 41.6378 35.5774 38.6862C34.4512 37.744 34.4172 36.8857 35.4412 35.8504C37.2053 34.0658 38.924 32.2268 40.7813 30.5466C43.2243 28.3375 46.1827 27.309 49.5634 27.1909C49.5634 28.224 49.5634 29.2003 49.5634 30.3014C44.5162 30.2379 41.7099 33.8433 38.5517 37.1582Z" fill="black"/>
<path d="M30.0988 50.3244C30.0988 49.3163 30.0988 48.3627 30.0988 47.3569C31.1137 47.3569 32.09 47.3569 33.1117 47.3569C33.1117 48.3491 33.1117 49.3027 33.1117 50.3244C32.1354 50.3244 31.1591 50.3244 30.0988 50.3244Z" fill="black"/>
</svg>
