<svg width="120" height="100" viewBox="0 0 120 100" fill="none" xmlns="http://www.w3.org/2000/svg">
<rect width="120" height="100" fill="white"/>
<path d="M105 48.4177C104.796 49.8585 104.669 51.3144 104.374 52.7362C103.816 55.4211 102.969 58.0606 102.599 60.7663C102.153 64.0278 102.067 67.3404 101.842 70.6322C101.767 71.7402 101.793 72.8558 101.672 73.9581C101.408 76.3612 99.5319 78.0591 97.1042 78.0705C91.188 78.0951 85.2719 78.0894 79.3557 78.0743C77.4706 78.0705 76.3191 76.7696 76.4723 74.894C76.6084 73.2396 77.3893 71.9614 78.762 71.0444C79.2914 70.6909 79.8548 70.3864 80.6414 69.9175C79.0947 68.4314 77.6426 67.0171 76.166 65.6255C75.3454 64.8503 74.3452 64.4154 73.2674 64.0675C70.4332 63.1524 67.6462 62.0917 64.8006 61.2125C62.9817 60.6509 61.0777 60.5375 59.1321 60.6963C58.7294 65.9621 57.1941 70.8459 54.929 75.7392C56.245 75.6049 57.5817 75.5841 58.8618 75.3043C60.1815 75.0169 61.0891 74.1245 61.6204 72.8331C62.6225 70.3959 63.2408 67.902 63.0517 65.2455C63.0063 64.614 63.0687 64.0033 63.7399 63.6705C64.5208 63.2848 65.3811 63.7556 65.4605 64.6726C65.7782 68.2953 65.0729 71.7497 63.2937 74.8902C62.0269 77.127 59.7731 78.0138 57.2716 78.0572C53.2595 78.1253 49.2473 78.0818 45.2351 78.0837C44.2387 78.0837 43.2422 78.1026 42.2477 78.0762C40.5101 78.0289 39.3113 76.677 39.4626 74.9432C39.5742 73.6764 40.0847 72.5892 40.9884 71.6797C41.2021 71.4642 41.463 71.1749 41.48 70.9045C41.6918 67.6997 42.034 64.4967 41.4384 61.29C40.5347 56.4251 38.2071 52.2465 35.2405 48.3818C32.2059 44.4207 28.3884 41.3577 24.07 38.9054C23.5235 38.5953 22.8693 38.4762 22.2624 38.2738C20.9597 37.8409 19.638 37.4589 18.358 36.9711C16.5164 36.2678 15.5559 34.7797 15 32.9759C15 32.4503 15 31.9228 15 31.3972C15.5011 29.8222 16.6601 29.0016 18.1992 28.6196C19.1937 28.3738 20.105 27.99 20.5815 27.0068C20.6817 26.7988 20.6931 26.4491 20.5853 26.2505C19.6361 24.5205 19.8895 22.7942 21.3019 21.6938C22.6292 20.6614 24.7695 20.7409 25.9702 22.2043C26.1006 22.3631 26.4334 22.4955 26.6225 22.4482C29.8292 21.6276 33.087 21.985 36.3277 22.0133C41.6162 22.0587 46.7023 23.3388 51.7752 24.6547C54.3712 25.3278 62.6641 25.672 65.3471 25.6474C68.862 25.6152 72.3788 25.6398 75.8937 25.6398C76.1565 25.6398 76.4231 25.6247 76.684 25.653C77.48 25.7419 78.0227 26.2846 77.9338 26.9558C77.8374 27.6988 77.376 28.094 76.6141 28.0846C71.4334 28.0222 60.5672 28.1394 55.4017 27.8085C52.6639 27.6327 49.9525 26.7648 47.2714 26.052C41.4876 24.511 35.5979 24.269 29.6685 24.4278C26.0987 24.5224 23.688 26.502 21.9069 29.4081C21.8086 29.5688 21.7821 29.7957 21.7784 29.9923C21.7311 32.023 20.7914 33.4902 18.791 34.5207C19.9008 34.9272 20.8349 35.381 21.8218 35.6117C24.9265 36.3358 28.0273 37.1262 31.1735 37.5818C32.6256 37.7917 34.1817 37.285 35.6887 37.1054C35.9212 37.077 36.1538 37.0259 36.3863 37.0316C37.1029 37.0467 37.5605 37.423 37.6475 38.1245C37.7326 38.8033 37.3468 39.31 36.7097 39.4102C34.6412 39.7373 32.5613 39.9869 30.6668 40.2402C39.4966 47.8354 45.5036 57.0018 44.042 69.5035C45.3221 69.1083 46.5567 68.6829 47.8179 68.3596C48.3718 68.2178 48.9826 68.2348 49.5649 68.2669C50.2664 68.3047 50.7032 68.7075 50.7448 69.4373C50.7845 70.1255 50.3061 70.7173 49.5555 70.6757C47.0578 70.5377 45.1632 71.9217 43.1761 73.0789C42.8357 73.2774 42.4935 73.5951 42.3328 73.943C42.1229 74.393 42.0926 74.928 41.9849 75.4253C42.4008 75.4915 42.8168 75.6125 43.2328 75.6163C45.167 75.6371 47.0994 75.6371 49.0336 75.622C51.4405 75.6049 53.0742 74.4478 53.8985 72.1864C55.7212 67.1816 56.9975 62.0879 56.6798 56.686C56.5513 54.5003 56.6571 52.3014 56.659 50.1081C56.6609 48.9075 57.0485 48.3327 57.8616 48.3175C58.7029 48.3005 59.1151 48.8999 59.1151 50.1535C59.117 52.4923 59.1151 54.8331 59.1151 57.172C59.1151 57.4858 59.1151 57.8016 59.1151 58.0738C60.745 58.2175 62.3256 58.1665 63.8061 58.5276C66.3529 59.1478 68.8563 59.9722 71.3426 60.8098C73.4187 61.5112 75.4305 62.4415 77.6634 62.5228C80.2519 62.6173 82.7969 62.3413 85.3494 61.377C84.8578 60.7228 84.4153 60.1253 83.9616 59.5335C82.5227 57.6503 81.0649 55.7822 79.6563 53.8764C79.3992 53.5285 79.1874 53.0236 79.2195 52.6114C79.2876 51.7682 80.3237 51.3654 81.0441 51.8268C81.1897 51.9194 81.3258 52.0461 81.4279 52.1841C84.2376 56.0262 87.5275 59.5373 89.6792 63.835C90.5111 65.497 91.1275 67.2667 91.8687 69.0497C91.9632 69.027 92.1485 68.9741 92.3376 68.9362C92.9899 68.8039 93.5004 68.9911 93.7784 69.6245C94.062 70.273 93.8105 70.7892 93.2641 71.1314C92.4227 71.6589 91.5378 72.1184 90.6813 72.6213C89.5601 73.2793 88.8265 74.202 88.7149 75.603C91.6078 75.603 94.4742 75.6352 97.3387 75.586C98.3275 75.569 99.099 74.7995 99.2218 73.8087C99.3353 72.8841 99.3655 71.9425 99.3655 71.0085C99.3693 65.3117 100.048 59.7301 101.546 54.2035C102.65 50.1289 103.087 45.8955 101.988 41.7112C100.197 34.8875 95.7542 30.6049 88.9721 28.8238C87.0719 28.3247 85.045 28.2283 83.0672 28.1186C80.9931 28.0033 78.9095 28.1035 76.8277 28.0846C75.9882 28.077 75.4815 27.6119 75.4626 26.9161C75.4437 26.2184 75.9353 25.6512 76.7578 25.6625C81.08 25.7211 85.4137 25.343 89.6924 26.4358C97.7811 28.5024 103.72 35.0841 104.813 43.3619C104.851 43.6474 104.934 43.9253 104.994 44.207C105 45.61 105 47.0148 105 48.4177ZM89.6849 70.3411C88.7603 68.0476 87.8414 65.7692 86.9943 63.6705C84.3113 64.2056 81.8836 64.6877 79.4861 65.1661C80.405 66.1984 81.3731 67.2497 82.2939 68.3406C82.6248 68.7339 82.9141 68.8058 83.4189 68.6848C84.3227 68.4692 85.2529 68.3236 86.1794 68.2745C86.8998 68.2348 87.4424 68.8341 87.4065 69.4864C87.3687 70.203 86.9376 70.6871 86.2437 70.6738C83.8576 70.6247 82.0235 71.9463 80.1573 73.1148C79.6109 73.457 79.2819 74.2228 78.9832 74.8562C78.7412 75.3686 79.0248 75.6484 79.6298 75.6333C80.8872 75.6049 82.1464 75.6238 83.4057 75.6257C84.3284 75.6257 85.2511 75.6257 86.2002 75.6257C86.4271 73.2604 87.554 71.5776 89.6849 70.3411ZM19.1067 31.2364C17.8758 31.1457 17.545 31.4123 17.5639 32.473C18.1519 32.0022 18.6303 31.6203 19.1067 31.2364ZM22.5763 24.7493C23.0773 24.3333 23.4687 24.0081 23.9489 23.6091C22.7824 23.3917 22.4874 23.6337 22.5763 24.7493Z" fill="black"/>
<path d="M36.2918 29.3287C36.2767 31.4596 34.3538 33.01 32.2494 32.5903C31.5139 32.4428 31.1093 32.0098 31.1698 31.246C31.2322 30.4651 31.7162 30.1342 32.4763 30.1625C32.5935 30.1663 32.7107 30.1644 32.8261 30.1739C33.4406 30.2193 33.7828 29.9111 33.8093 29.3231C33.8357 28.7237 33.4765 28.4457 32.8885 28.3871C31.8334 28.285 31.3456 27.8331 31.4118 27.0674C31.4798 26.3016 32.0584 25.914 33.0945 25.9443C34.887 25.9991 36.3051 27.4985 36.2918 29.3287Z" fill="black"/>
<path d="M26.0628 30.4084C25.3141 30.3252 24.9227 29.9262 24.9511 29.2455C24.9813 28.5611 25.4086 28.1678 26.1044 28.1999C26.7964 28.2321 27.1784 28.6462 27.1557 29.342C27.1311 30.0548 26.6716 30.3554 26.0628 30.4084Z" fill="black"/>
</svg>
