<svg width="120" height="100" viewBox="0 0 120 100" fill="none" xmlns="http://www.w3.org/2000/svg">
<rect width="120" height="100" fill="white"/>
<path d="M17.7515 74.031C18.0672 72.6841 18.3619 70.9817 18.8763 69.3496C19.6082 67.0299 19.5685 64.8996 18.729 62.5215C16.9775 57.5688 16.7811 52.3659 17.1646 47.1443C17.4803 42.8534 18.266 38.656 19.51 34.5382C19.6105 34.2061 19.5591 33.7922 19.4632 33.4485C18.8342 31.206 18.1958 28.9635 17.513 26.7373C17.1015 25.3951 17.2465 24.1885 18.2332 23.169C19.2271 22.1424 20.4477 21.9881 21.7923 22.3599C24.2663 23.0474 26.7426 23.7255 29.2283 24.3686C29.6235 24.4715 30.1005 24.4691 30.4887 24.3499C41.4907 21.0037 52.7383 19.624 64.2244 20.087C72.5327 20.4214 80.6421 21.8408 88.5599 24.3686C88.9457 24.4925 89.4251 24.4761 89.8249 24.3779C92.2896 23.7699 94.7496 23.1409 97.2002 22.4768C98.5822 22.1027 99.8238 22.257 100.832 23.3163C101.811 24.3452 101.933 25.5565 101.521 26.894C100.836 29.1202 100.193 31.3603 99.576 33.6075C99.4614 34.0261 99.4567 34.5358 99.5806 34.9521C101.391 40.9804 102.232 47.135 101.945 53.4229C101.762 57.4051 101.014 61.2822 99.5736 65.0212C99.4006 65.4725 99.3678 66.0501 99.4707 66.5248C99.9899 68.9146 100.591 71.2881 101.131 73.6732C101.723 76.2828 99.6485 78.3663 97.0529 77.728C94.6467 77.1363 92.2685 76.4185 89.867 75.8035C89.4181 75.6889 88.8732 75.6772 88.4359 75.8175C76.2133 79.7179 63.7006 80.8941 50.9541 79.7927C44.1284 79.2035 37.4336 77.887 30.8722 75.904C30.2455 75.7146 29.4878 75.7099 28.8471 75.8596C26.5181 76.3998 24.2171 77.0685 21.8928 77.6368C19.6901 78.1769 17.7095 76.5892 17.7515 74.031ZM89.1024 73.0886C89.4344 73.1681 89.7478 73.2359 90.0564 73.3201C92.479 73.9795 94.8969 74.646 97.3218 75.3007C98.5167 75.6234 98.9914 75.1604 98.7084 73.9608C98.1332 71.5219 97.572 69.0806 96.9593 66.6511C96.7723 65.9075 96.8097 65.248 97.109 64.5372C98.3647 61.5581 99.0475 58.434 99.3374 55.2234C99.9618 48.3322 99.0288 41.6141 97.0552 35.0105C96.9313 34.5943 96.9242 34.0822 97.0388 33.6613C97.6936 31.2738 98.4255 28.9074 99.0685 26.5175C99.1971 26.0382 99.2556 25.2829 98.9867 25.0233C98.7084 24.7521 97.9672 24.8082 97.4761 24.9274C95.0372 25.5167 92.624 26.2159 90.178 26.7771C89.4812 26.9361 88.6534 26.9314 87.9776 26.7163C82.7046 25.0397 77.331 23.8214 71.8428 23.1316C65.12 22.2874 58.3808 22.1728 51.6276 22.7551C44.5329 23.3677 37.5669 24.6211 30.7786 26.8052C30.2829 26.9642 29.6726 26.9899 29.1698 26.8613C26.5672 26.1995 23.9903 25.4489 21.3901 24.7801C20.9551 24.6679 20.2442 24.6351 20.0408 24.8783C19.7883 25.1847 19.8 25.8488 19.9216 26.3001C20.574 28.718 21.3082 31.1148 21.9863 33.5257C22.0822 33.8717 22.122 34.2903 22.0191 34.6247C20.7306 38.7636 19.9169 42.9914 19.6082 47.3104C19.1826 53.2218 19.6807 59.0139 21.9442 64.5746C22.157 65.0961 22.1757 65.7789 22.0542 66.3377C21.5163 68.8141 20.8943 71.2717 20.3027 73.7363C19.9824 75.0786 20.4173 75.5182 21.7455 75.1744C24.2031 74.5407 26.6561 73.8813 29.1231 73.2827C29.6071 73.1658 30.1894 73.1471 30.657 73.2991C37.6418 75.5533 44.8065 76.837 52.1116 77.424C64.4021 78.4108 76.4377 77.1691 88.1834 73.3482C88.4874 73.25 88.7984 73.1751 89.1024 73.0886Z" fill="black"/>
<path d="M85.6742 32.5042C85.7 33.4091 84.9517 33.9142 83.9743 33.6406C81.7551 33.021 79.5571 32.3194 77.3169 31.7886C69.4085 29.9179 61.3926 29.4339 53.2948 30.0629C47.2127 30.5353 41.2708 31.6951 35.4553 33.5144C34.8263 33.7108 34.2394 33.7669 33.788 33.1846C33.2245 32.4597 33.5846 31.5454 34.6182 31.2485C36.8303 30.6101 39.0447 29.953 41.2872 29.4339C50.4232 27.313 59.6668 26.8804 68.9759 27.8835C74.2723 28.4541 79.4542 29.6046 84.5097 31.2882C85.3679 31.5688 85.6579 31.8822 85.6742 32.5042Z" fill="black"/>
</svg>
