<svg width="120" height="100" viewBox="0 0 120 100" fill="none" xmlns="http://www.w3.org/2000/svg">
<rect width="120" height="100" fill="white"/>
<path d="M62.964 88.9969C63.9832 88.8202 65.0099 88.6847 66.0184 88.4607C74.9682 86.4712 80.3458 80.7951 82.7573 72.121C84.1862 66.9811 84.2532 61.7422 83.6104 56.485C83.1853 53.0087 82.6278 49.5506 81.4578 46.2312C80.0898 42.3526 77.8611 39.0286 74.7976 36.282C74.4 35.9255 74.3452 35.6498 74.5752 35.1867C75.797 32.7234 77.6433 30.9395 80.1599 29.8122C80.5971 29.6157 81.0541 29.2028 81.2446 28.7763C81.5477 28.0984 81.0998 27.422 80.2468 27.1935C78.536 26.735 76.807 26.3404 75.084 25.92C74.8906 25.8727 74.6956 25.8286 74.3772 25.7524C75.3064 24.7668 76.1595 23.8406 77.0355 22.9387C77.9023 22.0475 78.8102 21.1944 79.6663 20.2926C80.425 19.4913 80.1127 18.3274 79.0372 18.1035C75.1815 17.3068 71.335 17.0996 67.5814 18.6154C66.8365 18.9155 66.1327 19.3176 65.2567 19.7488C64.69 17.8019 64.1309 15.8931 63.584 13.9797C63.4591 13.541 63.3555 13.0931 63.29 12.6437C63.1925 11.9658 62.9381 11.3946 62.3547 11C62.05 11 61.7453 11 61.4407 11C58.6529 13.3033 56.8857 16.2557 55.894 19.7488C55.8011 19.7274 55.699 19.729 55.6259 19.6833C52.0018 17.3906 48.0288 17.2291 43.9431 17.7668C43.4404 17.8323 42.9438 17.9375 42.4441 18.0197C41.8332 18.1218 41.3275 18.3518 41.1386 19.013C40.9588 19.6406 41.2589 20.0732 41.6718 20.4952C43.2195 22.0704 44.7551 23.6577 46.2922 25.2436C46.4293 25.3853 46.5451 25.5498 46.7309 25.7783C45.919 25.9382 45.1755 26.0555 44.4489 26.2368C43.2698 26.5308 42.0983 26.8599 40.9284 27.1874C40.2809 27.3687 39.8437 27.777 39.8361 28.4777C39.8285 29.1404 40.2291 29.5258 40.8278 29.7711C43.4815 30.8588 45.4086 32.7142 46.6304 35.3085C46.7842 35.6345 46.8162 35.8646 46.4933 36.1555C42.3375 39.8985 39.8011 44.5478 38.6494 50.0107C37.6409 54.7986 37.0041 59.614 37.2387 64.5147C37.4657 69.2555 38.4407 73.8165 40.7638 78.0088C44.1792 84.1755 49.5339 87.5315 56.38 88.6953C57 88.8004 57.62 88.8979 58.2416 89C59.8152 88.9969 61.3904 88.9969 62.964 88.9969ZM52.6675 48.7737C55.4142 46.8847 58.0191 45.0932 60.583 43.3276C63.1743 45.11 65.7808 46.9014 68.4985 48.7691C65.8722 50.7206 63.258 52.6629 60.5799 54.6524C57.9034 52.6644 55.2999 50.7297 52.6675 48.7737ZM42.0709 53.7262C44.7581 52.5014 47.2824 51.339 49.8249 50.2133C50.0275 50.1234 50.4053 50.2117 50.5988 50.3549C51.5905 51.0999 52.535 51.9103 53.5237 52.6598C55.0303 53.8039 56.5597 54.9175 58.1364 56.0859C57.9323 56.2245 57.7785 56.3433 57.6109 56.4393C55.6975 57.5285 53.7415 58.5507 51.8815 59.7237C50.7252 60.4519 49.895 60.3696 48.8713 59.451C46.6654 57.4798 44.3499 55.6319 42.0709 53.7262ZM79.1286 53.7506C76.4459 55.9534 73.8074 58.1303 71.1461 60.2782C70.9998 60.3955 70.622 60.359 70.4225 60.2569C69.0682 59.5668 67.7215 58.8569 66.3916 58.1181C65.2689 57.4935 64.1751 56.8217 63.0432 56.156C63.1377 56.028 63.1682 55.9564 63.2215 55.9153C65.7046 54.0263 68.1877 52.1343 70.686 50.2651C70.8384 50.1508 71.1628 50.1325 71.3441 50.2133C73.8851 51.3497 76.4155 52.512 79.1286 53.7506ZM44.9516 41.6945C46.9609 38.89 49.3252 36.7816 52.0917 35.4517C54.2107 37.6027 56.2307 39.6532 58.3558 41.8103C55.9656 43.3611 53.4216 45.0186 50.8638 46.6531C50.7252 46.7415 50.3946 46.7354 50.2819 46.6318C48.5056 45.0125 46.7507 43.3687 44.9516 41.6945ZM69.0606 35.4502C71.8712 36.8273 74.2812 38.9068 76.1793 41.6808C74.8129 42.9864 73.5241 44.2432 72.2064 45.4695C70.6647 46.9045 70.6266 46.9365 68.8702 45.8107C66.7679 44.4625 64.7205 43.0305 62.862 41.7783C64.9475 39.6502 66.9492 37.6058 69.0606 35.4502ZM53.4642 31.8337C51.9028 27.2255 48.6427 23.7385 45.1938 20.3017C52.1115 18.7342 59.3887 24.1894 59.084 30.4886C57.2529 30.9273 55.437 31.363 53.4642 31.8337ZM67.6972 31.852C65.7396 31.3813 63.9055 30.941 62.0683 30.4992C62.9732 22.6615 68.8549 19.2003 75.9722 20.3231C72.5293 23.7339 69.2662 27.2057 67.6972 31.852ZM68.5624 62.283C66.3185 63.6997 64.1416 64.9977 62.0546 66.4266C60.9913 67.1548 60.1702 67.1715 59.0992 66.4327C57.0213 64.9977 54.8459 63.7043 52.7041 62.3485C52.8122 62.2023 52.8336 62.1459 52.8732 62.123C55.3304 60.7063 57.783 59.2835 60.257 57.8972C60.452 57.7875 60.8389 57.853 61.0552 57.9779C62.4613 58.7838 63.8369 59.643 65.24 60.4565C66.288 61.0612 67.362 61.6234 68.5624 62.283ZM52.046 74.3923C52.2562 74.2735 52.3339 74.2248 52.4162 74.1851C55.012 72.9314 57.6048 71.667 60.2143 70.4422C60.4489 70.3325 60.842 70.3965 61.0964 70.5168C63.1286 71.4872 65.1409 72.4957 67.1655 73.4813C67.7672 73.7738 68.3857 74.0298 69.0667 74.3329C68.9128 74.4578 68.8473 74.531 68.765 74.5767C66.154 76.0239 63.546 77.4787 60.9197 78.897C60.714 79.0082 60.3332 78.9472 60.1016 78.8299C58.7214 78.1398 57.3489 77.4315 55.9976 76.685C54.6997 75.9721 53.4323 75.2012 52.046 74.3923ZM79.4394 67.0953C76.9517 68.9082 74.5234 70.689 72.0723 72.4363C71.9063 72.5551 71.5361 72.4927 71.3076 72.4013C70.1087 71.9199 68.9143 71.4278 67.7398 70.8886C66.2743 70.2167 64.8317 69.4947 63.351 68.7802C65.9438 67.042 68.439 65.3633 70.9465 63.7028C71.0745 63.6175 71.3335 63.6342 71.4904 63.6997C74.0786 64.795 76.6592 65.9041 79.4394 67.0953ZM57.7632 68.6918C57.7084 68.7528 57.6703 68.8289 57.6094 68.8579C54.9861 70.0659 52.3674 71.2831 49.7274 72.4546C49.5019 72.5551 49.0815 72.4363 48.8545 72.2748C47.0539 70.9998 45.273 69.6958 43.4968 68.3856C42.9194 67.9591 42.3725 67.4884 41.754 66.9902C42.7747 66.5926 43.675 66.2529 44.5677 65.8934C45.4619 65.5354 46.3516 65.1683 47.2367 64.7874C48.1431 64.3959 49.0784 63.6007 49.9331 63.6845C50.8212 63.7713 51.6225 64.7052 52.4695 65.2566C54.2259 66.4022 55.9885 67.5417 57.7632 68.6918ZM57.617 80.5788C54.8901 81.5766 52.372 82.5043 49.8462 83.4092C49.6634 83.4747 49.3801 83.461 49.2186 83.362C46.8254 81.8797 44.9242 79.9161 43.4815 77.4574C45.2867 76.8328 47.0508 76.2112 48.8271 75.6247C48.9947 75.5699 49.2597 75.7024 49.4425 75.8121C50.4434 76.4108 51.4199 77.0521 52.4283 77.6371C54.069 78.5908 55.7265 79.5093 57.617 80.5788ZM63.7455 80.6488C63.7608 80.5711 63.776 80.4935 63.7897 80.4158C64.8972 79.8064 66.0123 79.2123 67.1107 78.5847C68.2334 77.9433 69.4033 77.3568 70.4316 76.586C71.5726 75.7314 72.6055 75.5059 73.9476 76.164C75.1114 76.7353 76.4155 77.0232 77.6951 77.4482C76.2509 79.8917 74.3848 81.8249 72.051 83.3041C71.8621 83.4244 71.5513 83.5113 71.3578 83.4427C68.8123 82.5302 66.2804 81.5857 63.7455 80.6488ZM54.7622 34.3214C58.7123 32.7934 62.4689 32.766 66.4175 34.3229C64.4463 36.2271 62.5588 38.0506 60.5815 39.9594C58.6011 38.0415 56.7182 36.218 54.7622 34.3214ZM80.8927 55.5877C81.3192 58.6954 81.5294 61.7193 81.2948 64.9443C78.6381 63.881 76.123 62.8756 73.5347 61.8412C76.0498 59.7024 78.4309 57.6793 80.8927 55.5877ZM39.8437 64.955C39.7295 61.6934 39.7828 58.6558 40.3007 55.6045C42.7519 57.6915 45.142 59.7298 47.6282 61.8473C45.0186 62.8878 42.5142 63.8886 39.8437 64.955ZM68.1146 85.1824C63.0448 86.7896 58.0786 86.7957 53.0529 85.1748C55.5254 84.1267 57.9216 83.106 60.3271 82.1037C60.4855 82.0366 60.7247 82.0549 60.8892 82.1235C63.2687 83.1213 65.6437 84.1328 68.1146 85.1824ZM60.5708 25.4508C59.8807 24.3996 59.1023 23.2251 58.3391 22.043C58.2522 21.9074 58.1821 21.7124 58.2065 21.5616C58.5965 19.1729 59.5532 17.0371 61.0613 15.1162C61.1375 15.2 61.1878 15.2304 61.203 15.2746C61.852 17.2672 62.5009 19.2582 63.1316 21.2554C63.1803 21.4108 63.1392 21.6499 63.0478 21.7886C62.2115 23.0453 61.3584 24.2899 60.5708 25.4508ZM73.0686 48.2512C74.6392 46.7613 76.0773 45.3964 77.5763 43.9735C78.7691 46.2479 79.5917 48.5726 80.0822 51.2537C77.654 50.2148 75.4131 49.2551 73.0686 48.2512ZM48.1035 48.2481C45.7453 49.252 43.509 50.2041 41.0807 51.2385C41.5865 48.5421 42.406 46.2357 43.5867 43.9705C45.0826 45.3872 46.5131 46.7415 48.1035 48.2481ZM76.6881 28.787C74.6285 30.3149 73.1981 32.0805 72.1713 34.2041C71.565 33.8583 71.0516 33.5308 70.5078 33.2687C70.0797 33.0616 70.0432 32.8041 70.2412 32.4217C70.9039 31.1436 71.5467 29.8533 72.2307 28.5859C72.3237 28.4122 72.6238 28.2264 72.805 28.2462C74.0298 28.3863 75.2501 28.5798 76.6881 28.787ZM48.9901 34.2132C47.9648 32.0394 46.5146 30.3164 44.49 28.7839C45.9388 28.5767 47.1605 28.3924 48.3868 28.2416C48.5407 28.2233 48.7981 28.3467 48.8713 28.4792C49.6741 29.9325 50.451 31.3996 51.2599 32.9123C50.4205 33.3937 49.7457 33.7806 48.9901 34.2132ZM74.8494 73.7647C76.8359 72.2672 78.7264 70.8429 80.716 69.3423C80.4006 71.2968 79.808 73.0518 79.0738 74.764C79.0235 74.8798 78.731 74.9956 78.5985 74.9545C77.3706 74.5873 76.1519 74.1836 74.8494 73.7647ZM40.3449 69.4992C40.4028 69.4657 40.4592 69.4322 40.5171 69.3972C42.4137 70.8276 44.3087 72.2596 46.312 73.7708C44.9044 74.2248 43.5912 74.6467 42.1136 75.1235C41.5057 73.1904 40.9253 71.3456 40.3449 69.4992Z" fill="black"/>
</svg>
