<svg width="120" height="100" viewBox="0 0 120 100" fill="none" xmlns="http://www.w3.org/2000/svg">
<rect width="120" height="100" fill="white"/>
<path d="M26 51.2888C26.1715 50.0794 26.293 48.8611 26.5252 47.6642C28.3027 38.5107 33.2171 31.5151 41.1862 26.7186C46.6919 23.403 52.7264 22.1222 59.12 22.5652C62.6821 22.8117 66.0995 23.6871 69.3525 25.1734C70.4261 25.6646 70.6548 26.2917 70.151 27.3742C66.6461 34.9218 63.1394 42.4693 59.6344 50.0169C59.5273 50.2491 59.429 50.4867 59.2664 50.8547C60.4294 50.4189 61.4655 50.0366 62.4981 49.6453C69.4454 47.0122 76.3927 44.3754 83.3383 41.7405C84.6549 41.2421 85.214 41.4958 85.6838 42.8105C92.0756 60.705 81.0374 79.9517 62.3659 83.4727C45.8934 86.5775 29.764 75.6411 26.5824 59.1883C26.3251 57.8592 26.1911 56.5069 26 55.1671C26 53.8738 26 52.5804 26 51.2888ZM64.9776 32.1153C57.6998 28.948 45.9345 29.952 38.6013 39.5611C31.7504 48.5396 32.699 61.466 40.7861 69.3833C49.0929 77.5151 61.8603 78.2082 70.9406 70.9589C79.853 63.8437 80.748 52.7787 78.3524 46.487C76.909 47.039 75.4656 47.591 74.0418 48.134C74.3937 50.9244 73.1272 53.2271 70.7798 54.1757C68.5325 55.0832 65.9619 54.3793 64.5131 52.4071C64.2023 51.982 63.9522 51.9248 63.4859 52.1088C61.4155 52.9216 59.3361 53.7076 57.2514 54.4847C56.2903 54.8438 55.3632 54.3364 55.3239 53.4075C55.3096 53.0538 55.4614 52.6679 55.615 52.3339C57.664 47.8893 59.7273 43.4537 61.7853 39.0127C62.8553 36.7153 63.9147 34.4144 64.9776 32.1153ZM67.2374 27.2474C57.8748 23.1547 43.4836 24.5678 34.4676 36.1633C25.9875 47.0693 26.9075 62.6557 36.6791 72.8382C46.2346 82.7939 61.8675 84.1569 73.229 75.9269C84.6584 67.6469 86.7324 53.7969 83.3954 44.5827C82.5933 44.8881 81.7912 45.1936 80.9963 45.4973C84.8782 58.472 78.4703 69.9532 69.6669 75.0963C60.1096 80.6806 48.2086 79.5569 39.9518 72.2612C31.7236 64.9906 29.0512 53.1967 33.3939 43.2446C35.5787 38.2356 38.9836 34.2519 43.689 31.4704C50.8453 27.2402 58.3732 26.7722 66.1584 29.5804C66.5264 28.7819 66.8712 28.037 67.2374 27.2474ZM71.4104 49.1183C69.8277 49.7222 68.3057 50.301 66.7533 50.894C67.6072 51.8444 68.7219 52.1159 69.7794 51.6908C70.8191 51.2728 71.4622 50.2956 71.4104 49.1183Z" fill="black"/>
<path d="M65.71 43.3752C65.7386 43.302 65.8154 43.0465 65.9315 42.8107C69.9545 34.5522 73.9793 26.2954 78.0076 18.0404C78.5614 16.9042 79.3135 16.7077 80.3818 17.4062C86.1751 21.197 90.7554 26.1203 94.1335 32.1637C94.7409 33.2516 94.4979 33.9876 93.3618 34.4468C84.8263 37.8927 76.282 41.3191 67.759 44.7954C66.555 45.2849 65.5903 44.4345 65.71 43.3752ZM86.1733 34.4682C83.8277 30.7793 80.9802 27.7281 77.5021 25.1717C75.7514 28.7624 74.0275 32.2995 72.2751 35.892C73.8453 36.2028 75.0726 36.9727 75.9622 38.2697C76.039 38.3804 76.3981 38.3929 76.5767 38.3233C78.2559 37.6694 79.9227 36.987 81.5947 36.3135C83.0953 35.708 84.5959 35.1042 86.1733 34.4682ZM91.2056 32.4299C88.267 27.5548 84.5459 23.5515 79.8816 20.2913C79.4689 21.1398 79.0866 21.924 78.724 22.6726C79.7744 23.5318 80.7801 24.3071 81.7323 25.1414C84.3261 27.4172 86.5359 30.0272 88.3849 32.9408C88.5296 33.1677 88.6064 33.5053 89.0244 33.3231C89.7139 33.023 90.416 32.7515 91.2056 32.4299ZM69.7526 41.0815C70.5387 40.7706 71.1353 40.5402 71.7266 40.3008C72.3144 40.0632 72.8967 39.8167 73.5398 39.5487C72.9217 38.7859 72.1875 38.5019 71.3229 38.5501C71.1585 38.5591 70.9317 38.6877 70.8566 38.827C70.494 39.5076 70.1724 40.2115 69.7526 41.0815Z" fill="black"/>
<path d="M44.7144 41.2046C47.6709 41.201 50.0719 43.6002 50.0665 46.5531C50.0611 49.5024 47.6423 51.8998 44.6912 51.8784C41.7579 51.8587 39.382 49.4828 39.3731 46.562C39.3641 43.6073 41.7561 41.2082 44.7144 41.2046ZM47.3922 46.5656C47.4048 45.0954 46.2204 43.8949 44.7412 43.8806C43.2639 43.8663 42.058 45.0472 42.0455 46.5192C42.0348 47.9929 43.2156 49.1916 44.693 49.2059C46.1703 49.2184 47.3815 48.0322 47.3922 46.5656Z" fill="black"/>
<path d="M63.4377 59.9243C66.3924 59.9225 68.7934 62.3235 68.7862 65.2764C68.7791 68.224 66.3567 70.6213 63.4056 70.5999C60.4723 70.5784 58.0999 68.2007 58.0928 65.28C58.0874 62.3235 60.4794 59.9261 63.4377 59.9243ZM63.4306 62.5968C61.9532 62.6021 60.7635 63.7937 60.767 65.2675C60.7706 66.7395 61.9693 67.9292 63.4449 67.9238C64.9204 67.9185 66.1155 66.7216 66.1102 65.2532C66.1084 63.7847 64.9061 62.5932 63.4306 62.5968Z" fill="black"/>
<path d="M54.1127 41.1817C51.9101 41.2031 50.0915 39.4238 50.0718 37.2301C50.0504 34.9953 51.8457 33.1821 54.0805 33.1821C56.285 33.1821 58.0821 34.9685 58.0892 37.1658C58.0964 39.3667 56.3189 41.162 54.1127 41.1817ZM54.0788 35.8635C53.3463 35.8635 52.755 36.4405 52.7461 37.1658C52.7372 37.8893 53.316 38.4842 54.0448 38.502C54.8022 38.5199 55.4221 37.9143 55.4114 37.1658C55.4025 36.4405 54.8112 35.8635 54.0788 35.8635Z" fill="black"/>
<path d="M48.7392 67.9238C46.5347 67.9291 44.7322 66.1445 44.7233 63.9472C44.7126 61.7178 46.5276 59.9064 48.7588 59.9225C50.9668 59.9385 52.7478 61.7321 52.7425 63.9312C52.7371 66.1302 50.9418 67.9202 48.7392 67.9238ZM48.6999 62.6056C47.971 62.6199 47.3904 63.2148 47.3976 63.9383C47.4065 64.6636 47.9942 65.2424 48.7267 65.2424C49.4859 65.2442 50.0897 64.6261 50.0611 63.8758C50.0361 63.1523 49.4323 62.5896 48.6999 62.6056Z" fill="black"/>
<path d="M42.0419 55.8959C42.0437 56.6194 41.4596 57.2089 40.7289 57.2196C39.9697 57.2303 39.3587 56.623 39.3766 55.8709C39.3927 55.1456 39.9876 54.5757 40.7218 54.5811C41.4524 54.5882 42.0401 55.1724 42.0419 55.8959Z" fill="black"/>
<path d="M51.4349 57.2196C50.7006 57.2357 50.1004 56.6729 50.0736 55.9477C50.045 55.1956 50.647 54.5793 51.4081 54.5811C52.1405 54.5828 52.7318 55.1616 52.7389 55.8851C52.7461 56.6104 52.1655 57.2053 51.4349 57.2196Z" fill="black"/>
<path d="M74.1329 58.5578C74.1437 59.2813 73.5631 59.878 72.8342 59.8958C72.075 59.9137 71.4587 59.3135 71.4676 58.5614C71.4748 57.8361 72.0643 57.2591 72.7967 57.2573C73.5291 57.2555 74.1222 57.8326 74.1329 58.5578Z" fill="black"/>
<path d="M55.4132 71.9469C55.4114 72.6704 54.8255 73.2563 54.0949 73.2653C53.3356 73.2742 52.7282 72.665 52.7479 71.9129C52.7658 71.1877 53.3642 70.6196 54.0966 70.6285C54.8273 70.6357 55.415 71.2252 55.4132 71.9469Z" fill="black"/>
<path d="M79.2492 29.4678C79.9905 29.4714 80.5622 30.0412 80.564 30.779C80.5658 31.5043 79.9798 32.1081 79.2617 32.1206C78.5293 32.1349 77.8844 31.4882 77.9004 30.7576C77.9165 30.0341 78.5132 29.4642 79.2492 29.4678Z" fill="black"/>
</svg>
