<svg width="120" height="100" viewBox="0 0 120 100" fill="none" xmlns="http://www.w3.org/2000/svg">
<rect width="120" height="100" fill="white"/>
<path d="M22.0019 68.4738C22.2917 67.4703 22.5622 66.461 22.8711 65.4652C24.8302 59.1465 28.0711 53.5494 32.4805 48.6392C39.2654 41.083 47.6947 36.286 57.5189 33.8664C57.9775 33.7531 58.2807 33.5689 58.5109 33.1046C59.8963 30.2993 62.9108 28.795 66.0115 29.3034C66.2053 29.3361 66.403 29.3418 66.5104 29.3514C67.2069 27.9257 67.7864 26.5097 68.5559 25.2049C71.0503 20.9797 74.7517 18.0343 78.9692 15.6819C82.3732 13.7823 85.9997 12.418 89.7279 11.3089C89.9812 11.2341 90.2172 11.1036 90.4609 11C90.7621 11 91.0634 11 91.3627 11C93.815 13.433 96.2825 15.8526 98.7021 18.3202C98.9401 18.562 99.0399 19.1357 98.942 19.483C97.4108 24.9094 95.3749 30.117 92.0305 34.7202C89.1964 38.6211 85.6888 41.6624 81.0511 43.2454C80.936 43.2838 80.8266 43.3433 80.6942 43.4028C80.6942 44.4601 80.8324 45.525 80.6654 46.5381C80.2951 48.7735 79.0114 50.4237 76.9928 51.4618C76.5342 51.6978 76.2771 51.9722 76.1524 52.4922C74.3583 59.9102 71.1558 66.6529 66.2418 72.5091C59.8464 80.1306 51.9045 85.3919 42.1839 87.8096C38.9699 88.6097 36.3238 86.8253 35.9055 83.6362C35.6331 81.5543 37.0645 79.3822 39.1215 78.6684C41.4586 77.8587 43.8686 77.1929 46.0905 76.1337C55.1607 71.8106 61.5119 64.903 65.1212 55.5162C65.7487 53.8852 66.19 52.1832 66.71 50.5119C67.04 49.4509 66.7714 48.5279 66.0058 47.7527C64.5072 46.2369 63.0029 44.7287 61.4736 43.2454C61.3047 43.0824 60.9344 42.9979 60.6984 43.0536C46.5012 46.398 36.7863 54.7755 32.0065 68.6696C31.6823 69.6136 31.5153 70.6267 31.0874 71.519C30.1549 73.4685 28.2188 74.3933 26.041 74.0767C24.0531 73.7889 22.5449 72.3095 22.1247 70.2449C22.1055 70.1528 22.0422 70.0703 22 69.982C22.0019 69.4755 22.0019 68.9747 22.0019 68.4738ZM78.5643 45.3293C78.5221 43.6426 77.9177 42.3148 76.7971 41.2019C74.7171 39.1335 72.6525 37.0496 70.5687 34.985C69.7321 34.1561 68.9185 33.2926 68.0033 32.5616C65.718 30.7368 62.3639 31.2932 60.8135 33.6937C59.4742 35.766 59.7773 38.2393 61.6405 40.1332C63.5919 42.1153 65.5625 44.082 67.5427 46.0373C69.024 47.4975 69.4846 49.2321 68.9089 51.1989C68.3467 53.1177 67.7845 55.048 67.0438 56.9016C63.2369 66.4342 56.667 73.4397 47.5009 78.0275C45.0966 79.2306 42.5791 80.1171 39.9811 80.8117C38.6398 81.1705 37.928 82.5003 38.2522 83.807C38.5688 85.0849 39.7739 85.8908 41.1017 85.6759C41.7176 85.5761 42.3278 85.4265 42.9303 85.2576C47.8597 83.8857 52.3516 81.6119 56.4674 78.5936C61.7787 74.6965 66.0365 69.8592 69.2274 64.0932C71.4456 60.081 73.0363 55.8251 74.0494 51.3581C74.2509 50.4678 74.6672 49.9401 75.5499 49.5967C77.5013 48.833 78.4089 47.2692 78.5643 45.3293ZM57.6647 36.261C57.5189 36.2687 57.4403 36.2572 57.3693 36.2764C51.5937 37.7845 46.2095 40.1619 41.3761 43.6772C35.0478 48.2785 30.1434 54.1001 26.9524 61.2592C25.8798 63.6672 25.1679 66.2442 24.4234 68.7828C24.2527 69.3622 24.4848 70.1912 24.8014 70.7534C25.3253 71.684 26.2789 72.0006 27.3362 71.7914C28.5105 71.5593 29.0804 70.7399 29.3682 69.6328C31.1047 62.9304 34.4991 57.1529 39.2692 52.1851C44.5421 46.6935 50.9969 43.2071 58.3133 41.248C58.6126 41.1674 58.91 41.0791 59.3188 40.9621C58.1579 39.5172 57.7415 37.94 57.6647 36.261ZM75.2736 36.4414C76.7242 37.8901 78.1537 39.2908 79.5468 40.728C79.9037 41.0964 80.2011 41.1271 80.6635 40.9582C83.9734 39.7398 86.654 37.6579 88.9009 34.9888C92.6349 30.5545 94.8012 25.3277 96.4552 19.8533C96.5147 19.6557 96.4744 19.3391 96.3478 19.1914C95.7664 18.5102 95.1389 17.8693 94.4731 17.1517C92.7519 18.8844 91.1593 20.5096 89.5322 22.1022C89.1446 22.4821 89.1158 22.7392 89.3653 23.2362C90.4436 25.3833 90.3343 27.5305 88.9354 29.4819C87.4656 31.5312 85.3953 32.3735 82.8931 31.913C82.1007 31.7672 81.3504 31.3969 80.6002 31.1378C78.8522 32.8762 77.0964 34.6262 75.2736 36.4414ZM73.5601 34.7202C75.383 32.8878 77.1463 31.1167 78.9385 29.315C78.9155 29.2651 78.8675 29.1499 78.8099 29.0386C77.4649 26.4886 77.8179 23.6986 79.7271 21.7664C81.6287 19.8438 84.457 19.4408 86.9859 20.7705C87.3678 20.972 87.5558 20.8722 87.813 20.6113C89.3633 19.0436 90.9252 17.4894 92.4814 15.9256C92.5792 15.8277 92.6522 15.7011 92.773 15.538C92.136 14.9201 91.5431 14.308 90.9041 13.7496C90.7391 13.6057 90.3976 13.5213 90.1903 13.5846C84.7122 15.229 79.4873 17.3973 75.0529 21.1313C72.3647 23.3955 70.2502 26.0875 69.0855 29.4474C68.9991 29.6987 69.0145 30.1324 69.1737 30.2974C70.609 31.794 72.0903 33.2504 73.5601 34.7202ZM83.9888 22.2749C81.9433 22.2883 80.2548 23.9922 80.2721 26.0261C80.2874 28.0677 81.9856 29.7601 84.0214 29.764C86.0918 29.7678 87.7842 28.0466 87.7611 25.959C87.7381 23.9059 86.0534 22.2614 83.9888 22.2749Z" fill="black"/>
<path d="M69.239 35.9961C69.6419 36.2379 69.9796 36.3664 70.2195 36.5967C71.2998 37.6405 72.3609 38.7054 73.4124 39.78C74.0245 40.4055 74.0513 41.0675 73.5313 41.5645C73.0574 42.0173 72.3839 41.9751 71.7986 41.4014C70.7068 40.3326 69.6323 39.2465 68.5578 38.1605C68.1702 37.7691 68.0013 37.2663 68.293 36.7962C68.4945 36.472 68.8955 36.2743 69.239 35.9961Z" fill="black"/>
<path d="M77.2173 45.2355C77.177 45.46 77.154 45.7363 77.0772 45.9992C76.8969 46.617 76.4536 46.9029 75.83 46.8146C75.1968 46.7264 74.8111 46.2889 74.8821 45.6749C74.9608 44.9995 74.7958 44.4718 74.4139 43.9326C74.0398 43.4049 74.1818 42.8773 74.6595 42.4666C75.1124 42.079 75.7744 42.1347 76.2119 42.599C76.8911 43.3224 77.2 44.1993 77.2173 45.2355Z" fill="black"/>
</svg>
