<svg width="120" height="100" viewBox="0 0 120 100" fill="none" xmlns="http://www.w3.org/2000/svg">
<rect width="120" height="100" fill="white"/>
<path d="M72.9985 71.953C64.3569 71.953 55.7484 71.953 47.094 71.953C46.7133 74.2195 45.7781 76.1614 44.0635 77.6894C38.7539 82.4191 30.3447 79.7157 28.8627 72.7656C28.6992 71.999 28.3977 71.8866 27.7333 71.8891C23.3256 71.9121 18.9179 71.8789 14.5102 71.9172C13.552 71.9249 13.0282 71.5749 12.7548 70.678C11.9882 68.1458 11.4721 65.5165 12.9081 63.1606C13.7309 61.8089 13.6159 60.6642 13.3859 59.3202C13.0001 57.0486 12.8008 54.7617 13.2531 52.4722C13.7641 49.8736 14.8833 48.8643 17.5432 48.5015C20.0729 48.154 22.5948 47.7758 25.1168 47.3772C25.4669 47.321 25.8502 47.1498 26.1159 46.9173C31.3617 42.3307 37.4558 39.5098 44.2603 38.1734C44.8914 38.0482 45.0907 37.8003 45.1699 37.2101C45.359 35.7869 45.6043 34.3713 45.8547 32.9583C46.2304 30.8502 48.0011 29.358 50.0785 29.3682C52.1175 29.3784 53.9342 30.9192 54.3047 32.9889C54.5296 34.2435 54.7161 35.5083 54.9027 36.7706C54.9768 37.2842 55.1045 37.6036 55.7484 37.67C66.4521 38.7534 75.6994 43.363 84.3359 49.4725C84.9185 49.8838 85.7157 50.1215 86.4363 50.1905C90.407 50.5763 94.388 50.8906 98.2131 52.1375C101.824 53.318 104.913 55.2191 106.484 58.8577C107.057 60.1787 107.353 61.6479 107.588 63.0814C107.846 64.6503 107.941 66.2549 108 67.8468C108.028 68.6287 107.923 69.4515 107.693 70.1976C107.325 71.3909 106.336 71.9454 105.018 71.9402C100.738 71.9198 96.4577 71.9198 92.1803 71.8968C91.6744 71.8943 91.3984 71.9684 91.2732 72.5714C90.338 77.0149 86.6381 80.0658 82.2458 80.0836C77.8278 80.1015 74.0768 77.0046 73.1161 72.5458C73.0752 72.3619 73.042 72.1779 72.9985 71.953ZM105.516 63.5873C103.505 63.5873 101.627 63.595 99.7488 63.5848C98.5606 63.5771 98.2132 63.227 98.2106 62.0389C98.2029 59.8363 98.1595 57.6312 98.2336 55.4286C98.2617 54.5752 97.9321 54.2788 97.186 54.0616C93.4196 52.968 89.5357 52.692 85.662 52.2959C84.8827 52.2167 84.0318 51.9305 83.3982 51.4808C79.7187 48.872 75.9165 46.4829 71.8308 44.5639C63.6976 40.7439 55.2348 38.7304 46.2022 40.0617C39.0784 41.1119 32.7798 43.9839 27.3475 48.7417C26.9438 49.0943 26.3867 49.3805 25.8604 49.4673C22.9653 49.9452 20.0524 50.3284 17.1574 50.8063C16.7051 50.8804 16.0868 51.1768 15.9283 51.5396C15.5246 52.4595 15.3355 53.4764 15.0213 54.5956C16.4752 54.5956 17.6199 54.5956 18.7672 54.5956C19.5848 54.5956 20.0218 54.984 20.0218 55.817C20.0243 57.8279 20.0218 59.8414 20.0218 61.8523C20.0218 62.6751 19.618 63.0942 18.7902 63.0942C17.9929 63.0942 17.1881 63.1555 16.3959 63.0788C15.586 63.0022 15.1516 63.3752 14.8271 64.0396C14.0503 65.6238 14.1832 67.2489 14.5204 68.9072C14.6533 69.5639 14.9318 69.7683 15.6089 69.7632C19.664 69.73 23.7217 69.7351 27.7768 69.7581C28.4156 69.7607 28.6992 69.6457 28.8499 68.9277C29.711 64.8062 33.1171 61.8907 37.3281 61.5713C41.2324 61.2749 45.0626 63.733 46.5063 67.4917C46.7772 68.1969 46.9407 68.9405 47.1579 69.684C55.7765 69.684 64.385 69.684 72.9985 69.684C73.0394 69.5026 73.0675 69.3825 73.0931 69.2573C73.995 64.7627 77.6566 61.6224 82.0797 61.5534C86.5283 61.4844 90.315 64.5532 91.2809 69.0886C91.4291 69.7888 91.8047 69.7479 92.2953 69.7479C96.3504 69.7428 100.408 69.7428 104.463 69.7504C105.662 69.753 105.874 69.6252 105.843 68.4064C105.8 66.8426 105.636 65.2865 105.516 63.5873ZM30.8711 70.8211C30.8762 74.7918 33.9373 77.8734 37.88 77.8734C41.8405 77.8734 44.917 74.7484 44.9144 70.7265C44.9119 66.8656 41.792 63.779 37.8902 63.7713C33.9603 63.7611 30.8685 66.8707 30.8711 70.8211ZM89.2291 70.8492C89.2342 66.8682 86.2012 63.7892 82.2509 63.7687C78.3644 63.7483 75.1934 66.858 75.1858 70.6933C75.1755 74.7356 78.2188 77.8555 82.1793 77.8708C86.122 77.8836 89.224 74.7944 89.2291 70.8492ZM47.3112 37.4656C49.2276 37.4656 50.9881 37.4656 52.8202 37.4656C52.5774 35.9351 52.396 34.5782 52.1328 33.2368C51.954 32.3322 51.1159 31.6577 50.242 31.5938C49.2761 31.5248 48.438 31.9081 48.1953 32.8177C47.7839 34.3662 47.5846 35.9708 47.3112 37.4656ZM105.081 61.3388C104.361 58.7299 102.856 56.8518 100.454 55.4976C100.454 57.5187 100.454 59.407 100.454 61.3388C102.008 61.3388 103.497 61.3388 105.081 61.3388ZM15.241 56.7931C15.4352 58.0707 15.6013 59.2895 15.821 60.4955C15.8517 60.6667 16.1353 60.889 16.3218 60.912C16.8099 60.9708 17.3107 60.9325 17.7987 60.9325C17.7987 59.4684 17.7987 58.1473 17.7987 56.7931C16.9555 56.7931 16.1736 56.7931 15.241 56.7931Z" fill="black"/>
<path d="M51.1414 23.8309C51.1414 24.6895 51.1593 25.5506 51.1338 26.4091C51.1133 27.1016 50.7812 27.5973 50.0351 27.5845C49.2992 27.5717 48.9619 27.0811 48.9542 26.3861C48.9389 24.6665 48.944 22.9468 48.9516 21.2272C48.9542 20.5245 49.294 20.0212 50.0095 20.0007C50.7914 19.9777 51.1261 20.5143 51.1363 21.2528C51.1517 22.1113 51.144 22.9724 51.1414 23.8309Z" fill="black"/>
<path d="M58.6793 21.5132C58.9348 21.7048 59.3589 21.8632 59.4765 22.1469C59.6093 22.4714 59.6298 23.0565 59.4254 23.2737C58.1018 24.6893 56.7348 26.0742 55.2962 27.3722C55.0662 27.5792 54.2256 27.4693 53.9905 27.2113C53.7477 26.9455 53.6941 26.1304 53.9189 25.8826C55.1991 24.4695 56.5814 23.1485 57.9459 21.8121C58.0865 21.6716 58.342 21.6461 58.6793 21.5132Z" fill="black"/>
<path d="M46.5421 26.6541C46.3325 26.9122 46.1562 27.3262 45.8649 27.4335C45.5353 27.5561 44.9604 27.5561 44.7381 27.3492C43.3455 26.0486 41.9836 24.7045 40.706 23.2915C40.4863 23.0462 40.5501 22.2209 40.798 21.9705C41.0458 21.715 41.8814 21.623 42.119 21.8351C43.555 23.1356 44.8965 24.5384 46.2533 25.9259C46.3913 26.0639 46.4143 26.3194 46.5421 26.6541Z" fill="black"/>
<path d="M67.326 56.435C62.9847 56.435 58.6435 56.4375 54.3047 56.4324C52.9045 56.4298 52.6106 56.1386 52.6106 54.7562C52.6055 51.4063 52.6055 48.0539 52.6106 44.7041C52.6132 43.406 52.9812 43.0458 54.2869 43.1429C60.6876 43.6181 66.6693 45.5601 72.2652 48.6084C75.3646 50.2974 78.2826 52.3211 81.2799 54.1992C81.819 54.5365 82.2713 54.9632 82.0337 55.6812C81.796 56.4017 81.1726 56.435 80.5414 56.435C76.1363 56.4324 71.7311 56.435 67.326 56.435ZM77.5084 54.2119C70.4433 49.587 63.1968 46.2116 54.8797 45.3838C54.8797 48.3989 54.8797 51.2837 54.8797 54.2119C62.3689 54.2119 69.7969 54.2119 77.5084 54.2119Z" fill="black"/>
<path d="M40.172 56.435C37.5223 56.435 34.8725 56.4427 32.2228 56.4325C30.9631 56.4274 30.6948 56.1565 30.6846 54.9172C30.6769 53.7035 30.705 52.4898 30.6744 51.2786C30.6565 50.6117 30.8737 50.1441 31.4256 49.743C36.4644 46.0839 42.0603 43.8839 48.2566 43.2196C49.1535 43.1225 49.662 43.5492 49.6671 44.4716C49.6875 48.0131 49.685 51.5572 49.6696 55.0987C49.6645 56.0747 49.271 56.4248 48.2157 56.4299C45.5328 56.4427 42.8524 56.435 40.172 56.435ZM47.4083 45.6342C47.2524 45.6138 47.1579 45.5806 47.071 45.5933C41.9862 46.3062 37.3792 48.2252 33.1938 51.1713C33.02 51.294 32.8667 51.5725 32.8565 51.7846C32.8156 52.5716 32.8412 53.3637 32.8412 54.1865C37.7599 54.1865 42.5867 54.1865 47.4083 54.1865C47.4083 51.2914 47.4083 48.4654 47.4083 45.6342Z" fill="black"/>
<path d="M41.6719 70.8237C41.6719 72.924 40.0238 74.5875 37.9285 74.6028C35.7847 74.6181 34.0881 72.9445 34.0855 70.816C34.0855 68.7335 35.7515 67.0522 37.8365 67.0343C39.9854 67.0164 41.6719 68.6824 41.6719 70.8237ZM39.5102 70.7905C39.4974 69.914 38.7104 69.1679 37.834 69.2011C36.9371 69.2343 36.2395 69.9932 36.2753 70.8978C36.3111 71.7538 37.0368 72.4513 37.8876 72.4437C38.7692 72.4334 39.523 71.6643 39.5102 70.7905Z" fill="black"/>
<path d="M82.164 67.0344C84.3104 67.0139 86.007 68.6825 86.0096 70.816C86.0121 72.9113 84.3589 74.585 82.2688 74.6028C80.1198 74.6207 78.4334 72.9624 78.4283 70.8212C78.4206 68.7285 80.0713 67.0523 82.164 67.0344ZM82.2049 72.4411C83.0941 72.4411 83.83 71.695 83.8249 70.8007C83.8198 69.9371 83.1299 69.2293 82.2713 69.2037C81.3872 69.1782 80.613 69.909 80.59 70.7905C80.567 71.6618 81.331 72.4411 82.2049 72.4411Z" fill="black"/>
</svg>
