<svg width="120" height="100" viewBox="0 0 120 100" fill="none" xmlns="http://www.w3.org/2000/svg">
<rect width="120" height="100" fill="white"/>
<path d="M71.668 14.0015C71.9498 14.0015 72.2297 14.0015 72.5114 14.0015C72.7932 14.5688 73.0581 15.1436 73.3624 15.6996C73.492 15.9363 73.6592 16.265 73.8733 16.327C75.5151 16.7947 76.3792 17.8917 76.584 19.5429C76.909 22.167 77.2283 24.7931 77.5232 27.421C77.6961 28.9689 77.0743 30.1448 75.7669 30.9901C75.5846 31.1084 75.4081 31.4108 75.4175 31.6212C75.517 34.0557 75.6579 36.4883 75.7762 38.9208C75.842 40.2733 75.8871 41.6277 75.9416 42.982C76.0768 42.8562 76.1369 42.7284 76.1651 42.5951C76.7888 39.6421 77.4143 36.6911 78.0286 33.7363C78.1563 33.1221 78.3554 32.583 79.0974 32.5586C79.8338 32.5341 80.1381 33.0207 80.2377 33.6537C80.5833 35.8721 80.9421 38.0887 81.2276 40.3146C81.3911 41.6014 81.4211 42.9069 81.515 44.2518C81.592 44.1673 81.6353 44.1391 81.6484 44.1016C82.629 41.0266 83.6133 37.9553 84.5638 34.8728C84.6296 34.6587 84.5018 34.3018 84.3422 34.1158C83.4029 33.0188 83.1512 31.8053 83.6396 30.4528C83.8932 29.7484 84.1844 29.0571 84.4736 28.3678C84.778 27.6408 85.3002 27.3778 85.9013 27.6201C86.5005 27.8625 86.7053 28.4241 86.4329 29.1417C86.168 29.8405 85.8562 30.5242 85.6101 31.2305C85.349 31.9838 85.689 32.7107 86.3672 32.9699C87.0622 33.2348 87.7741 32.9342 88.1029 32.1979C89.2056 29.7202 90.3007 27.2369 91.3865 24.7518C91.7133 24.0041 91.4635 23.2791 90.8023 22.9485C90.1185 22.6047 89.3709 22.8677 88.9726 23.6134C88.7078 24.1075 86.5137 29.0985 86.2469 29.5925C85.9088 30.2199 85.3321 30.419 84.7817 30.1297C84.2651 29.8574 84.0735 29.2826 84.3478 28.6852C84.6296 28.0691 86.9044 22.9879 87.235 22.3962C87.6783 21.6054 88.3452 20.9573 89.2319 20.8653C90.3834 20.7469 91.2663 20.4614 91.7866 19.3081C92.0026 18.8291 92.615 18.7934 93.0903 19.1071C93.5806 19.4302 93.7365 19.8998 93.4716 20.4501C93.3401 20.7225 93.1823 20.9874 93.0076 21.2353C92.7841 21.5528 92.7409 21.7895 93.0057 22.1576C93.7909 23.2565 93.8398 24.4587 93.2969 25.6872C92.228 28.1029 91.1535 30.5186 90.0884 32.9361C89.5343 34.1928 88.6157 34.978 87.2331 35.132C86.818 35.1771 86.632 35.3518 86.508 35.7369C85.7698 38.0304 84.9658 40.3015 84.267 42.6063C83.7824 44.2049 83.4292 45.8429 82.9802 47.6011C84.1017 46.4214 85.0165 45.2756 86.1136 44.3476C87.6633 43.0365 89.3427 41.8775 90.9807 40.6715C91.4297 40.3409 91.9162 40.3729 92.3257 40.7673C92.7371 41.1656 92.7352 41.6352 92.4722 42.1179C92.3501 42.3433 92.1961 42.5537 92.0815 42.7848C90.4003 46.1528 88.6796 49.5021 87.0678 52.902C86.4442 54.2151 86.0685 55.6464 85.5707 57.044C85.9764 57.2131 86.2545 57.3276 86.5325 57.446C89.0496 58.5186 91.4109 59.8297 93.3326 61.8303C96.7533 65.3899 96.9167 69.7986 93.6331 73.4803C92.585 74.6544 91.3132 75.6612 90.0265 76.5798C88.8393 77.4288 87.4943 78.0581 86.23 78.7775C86.5588 79.3373 86.9382 79.9046 87.2369 80.5095C88.5424 83.1543 86.8049 85.9644 83.85 85.9907C82.0466 86.0076 73.1558 85.9964 71.3505 85.9926C70.477 85.9907 69.9961 85.5963 70.0112 84.9125C70.0262 84.2551 70.4902 83.8869 71.328 83.885C73.1332 83.8813 82.0222 83.8963 83.8274 83.8794C85.2589 83.8643 86.0347 82.6434 85.2945 81.4167C84.6859 80.408 83.9815 79.3899 83.1023 78.6235C80.3353 76.2078 77.0236 75.4771 73.4544 76.0538C70.1013 76.5967 67.3832 78.199 65.7132 81.2796C64.9449 82.696 65.6681 83.8756 67.2799 83.8813C69.3894 83.8888 71.4971 83.8813 73.6066 83.885C74.4857 83.8869 74.9591 84.2701 74.946 84.9576C74.9328 85.6151 74.4688 85.9926 73.6348 85.9926C64.9411 85.9945 56.2475 86.002 47.5539 85.9889C45.1362 85.9851 43.7574 83.6277 44.9503 81.5332C45.3973 80.748 45.9909 80.0455 46.532 79.2828C46.2483 79.1194 45.9327 78.9278 45.6077 78.7531C43.641 77.688 42.234 76.0294 40.8627 74.3256C38.9203 71.9118 36.5271 70.1762 33.5422 69.2238C31.5172 68.5776 29.5298 67.7999 27.5705 66.9734C25.9099 66.2747 24.5593 65.1833 24.0014 63.3537C24.0014 62.8841 24.0014 62.4163 24.0014 61.9467C24.5818 60.397 25.7258 59.3488 27.1347 58.5956C28.2242 58.0133 29.3513 57.476 30.5122 57.0534C31.9981 56.5124 33.5347 56.1048 35.0995 55.6258C34.8384 54.587 34.5716 53.5482 34.318 52.5057C34.1283 51.7299 34.4213 51.1457 35.0563 50.9992C35.6555 50.8602 36.174 51.2284 36.3656 51.9647C36.6474 53.0411 36.9103 54.123 37.1921 55.2482C38.0844 55.0886 38.9034 54.942 39.7675 54.788C38.4563 50.5972 36.5346 46.8328 33.7733 43.5117C34.149 44.7928 35.8922 50.5239 36.3073 51.7863C36.5854 52.6353 36.3881 53.2026 35.7569 53.4299C35.1333 53.6534 34.6167 53.2946 34.3143 52.4813C33.2341 49.5659 30.8334 42.1762 29.7289 39.2683C29.5053 38.6804 29.4527 38.1544 30.02 37.7712C30.5441 37.4162 31.0532 37.5608 31.4759 37.9929C32.7044 39.2477 33.9386 40.495 35.1408 41.7742C35.6536 42.3189 36.0876 42.9388 36.5572 43.523C36.6229 43.4929 36.6906 43.4629 36.7563 43.4328C35.432 39.4412 34.1133 35.4476 32.7702 31.4615C32.7082 31.2793 32.4301 31.084 32.2273 31.052C30.7921 30.8229 29.8604 30.0114 29.3532 28.6739C28.4045 26.1831 27.4634 23.6886 26.5016 21.2015C26.1447 20.2773 26.0301 19.2893 26.5749 18.4928C27.1835 17.6024 27.2455 16.9018 26.6406 16.0152C26.31 15.5305 26.5524 15.0008 27.0671 14.7021C27.5912 14.3997 28.0702 14.5368 28.429 15.0083C28.6112 15.2487 28.7633 15.5211 28.8817 15.7973C29.0639 16.2237 29.3025 16.4059 29.819 16.4284C31.1847 16.4885 32.2874 17.1366 32.8077 18.4196C33.8972 21.1057 34.9267 23.8182 35.9147 26.5419C36.3862 27.8418 36.0481 29.059 35.0788 30.0339C34.7294 30.3852 34.7388 30.6463 34.8759 31.0614C36.1214 34.8859 37.348 38.7161 38.5672 42.5481C38.8114 43.3183 38.9936 44.1072 39.204 44.8886C39.0049 40.9214 38.7118 36.9748 38.4 33.03C38.3493 32.3857 38.4338 31.8222 39.1138 31.6062C39.7919 31.3902 40.2334 31.7602 40.5076 32.3594C41.2872 34.0594 42.125 35.7369 42.8257 37.4688C43.5038 39.1462 44.0373 40.88 44.6704 42.6927C44.7079 42.4917 44.7455 42.3847 44.7455 42.2776C44.7305 38.9265 44.7173 35.5772 44.6741 32.2261C44.6723 32.0364 44.4656 31.7734 44.2834 31.6757C43.0643 31.0145 42.3993 30.002 42.3335 28.6307C42.2002 25.8469 42.095 23.0612 41.9935 20.2773C41.9597 19.34 42.2452 18.4308 42.9854 17.8973C43.8326 17.2869 44.058 16.6707 43.7593 15.6902C43.594 15.1473 43.949 14.6927 44.5351 14.5443C45.1081 14.3997 45.6134 14.6965 45.7843 15.2807C45.8764 15.5925 45.9196 15.9212 45.9647 16.2462C46.0191 16.6425 46.1581 16.8736 46.5977 17.0314C47.9239 17.5048 48.7655 18.4966 48.8556 19.896C49.0435 22.77 49.1468 25.6497 49.2219 28.5293C49.2595 29.9738 48.525 31.0314 47.2401 31.6719C46.9208 31.8316 46.7931 31.9894 46.7987 32.3501C46.8381 35.3255 46.8569 38.3009 46.8832 41.2764C46.8832 41.359 46.9114 41.4417 46.9584 41.7009C47.0899 41.3835 47.1556 41.2219 47.2232 41.0604C48.3015 38.4775 49.6559 36.0543 51.3747 33.8359C51.7185 33.3926 52.0942 33.0958 52.684 33.2498C53.3189 33.4151 53.5368 33.9542 53.349 34.8615C52.3083 39.8488 51.6978 44.8849 51.6414 49.9848C51.6283 51.1927 51.6396 52.4005 51.6396 53.6609C52.421 53.6196 53.0203 53.5896 53.6345 53.5576C53.6909 53.304 53.7529 53.103 53.781 52.8983C54.6451 46.6224 56.0822 40.4799 58.1222 34.4802C58.2518 34.1008 58.1861 33.866 57.9062 33.5654C56.9294 32.5078 56.6532 31.2474 57.2149 29.9212C58.3289 27.2952 59.5029 24.6935 60.677 22.0938C61.1071 21.1414 61.8717 20.4257 62.8917 20.328C64.0207 20.221 64.8096 19.8866 65.3243 18.814C65.5685 18.305 66.1941 18.2824 66.6862 18.6205C67.1427 18.9342 67.2911 19.3907 67.0413 19.9148C66.9098 20.189 66.7614 20.4595 66.5792 20.7C66.3162 21.0456 66.3312 21.3048 66.5942 21.6824C67.3137 22.7155 67.4189 23.8595 66.9135 25.0204C65.8203 27.5281 64.7082 30.0283 63.598 32.5304C63.0852 33.6856 62.2004 34.4483 60.955 34.591C60.3125 34.6643 60.166 34.9799 60.0026 35.4683C58.4341 40.1831 57.2356 44.9919 56.3809 49.8853C56.1742 51.0706 56.0108 52.2615 55.8323 53.4111C60.4647 53.5107 64.9975 53.6065 69.5716 53.7041C69.5603 53.4768 69.5622 53.2233 69.5303 52.9734C69.1189 49.6937 68.5178 46.4477 67.494 43.3013C66.8008 41.1693 65.9705 39.0786 65.1928 36.9748C64.8585 36.0731 65.315 35.2879 66.1734 35.3781C66.4608 35.4081 66.7558 35.5528 67.0075 35.7087C69.2091 37.0724 70.8264 39.0016 72.1921 41.1599C72.735 42.0184 73.2084 42.92 73.7249 43.8179C73.77 43.7484 73.8132 43.7127 73.8132 43.6789C73.6404 39.7004 73.4732 35.7218 73.2722 31.7452C73.2628 31.5404 73.0186 31.2643 72.8139 31.1666C71.5121 30.5524 70.8095 29.5587 70.6499 28.1236C70.3624 25.5407 70.0356 22.9635 69.7144 20.3863C69.5603 19.1465 69.8027 18.0101 70.7945 17.2098C71.328 16.7797 71.4576 16.3871 71.2134 15.8029C70.9091 15.0816 71.0688 14.4861 71.668 14.0015ZM64.6763 78.9522C64.7044 78.909 64.742 78.847 64.7833 78.7926C68.8559 73.3789 77.3617 72.0959 83.1305 76.0463C84.453 76.9517 85.3565 76.8672 86.5945 76.1853C88.952 74.8835 91.2024 73.4747 92.7521 71.1962C93.6989 69.8042 94.1441 68.2883 93.729 66.6034C93.3702 65.1457 92.5399 63.9698 91.4691 62.9517C89.4066 60.9906 86.9082 59.7846 84.267 58.8417C78.7461 56.8712 72.9942 56.1085 67.1859 55.7948C58.4453 55.3234 49.7197 55.5319 41.0374 56.7566C37.3724 57.2732 33.7301 57.9532 30.3056 59.4108C29.0545 59.9443 27.8579 60.6825 26.7703 61.5034C25.8348 62.2078 25.8554 63.1301 26.7552 63.8928C27.4747 64.5014 28.32 65.0161 29.1879 65.3824C30.7583 66.0455 32.3832 66.579 33.993 67.1481C35.896 67.8225 37.8252 68.4931 39.3336 69.8756C40.7612 71.183 42.125 72.5806 43.3705 74.0645C44.7004 75.6481 46.2765 76.8371 48.1362 77.6749C48.3691 77.7801 48.7354 77.7838 48.9665 77.6749C54.4103 75.1221 59.6062 75.5203 64.6763 78.9522ZM63.5623 83.8831C63.4609 83.421 63.335 83.036 63.305 82.6452C63.2768 82.2545 63.2636 81.8281 63.3895 81.4675C63.568 80.9565 63.3764 80.7011 62.9931 80.4287C59.5705 77.9848 55.8267 77.6354 51.8875 78.7738C49.8588 79.3599 48.1099 80.4287 46.9621 82.2714C46.7668 82.5851 46.6278 83.1355 46.7743 83.4079C46.9189 83.6765 47.458 83.8587 47.8262 83.8625C51.1061 83.8963 54.3859 83.8831 57.6658 83.8831C59.6119 83.8831 61.5542 83.8831 63.5623 83.8831ZM79.073 39.9089C78.9565 40.1512 78.9039 40.2263 78.8814 40.3109C77.9929 43.6507 77.1025 46.9887 76.2271 50.3305C76.1651 50.569 76.1632 50.8433 76.2102 51.0875C76.4149 52.1657 76.6366 53.2402 76.8846 54.3109C76.9278 54.495 77.0949 54.7429 77.2546 54.788C77.805 54.9439 78.378 55.0247 79.0072 55.1468C79.4656 50.0675 79.5558 45.0765 79.073 39.9089ZM75.5264 27.8155C75.1676 25.0561 74.8239 22.2948 74.4388 19.5391C74.3279 18.752 73.6385 18.2749 72.9341 18.3801C72.1602 18.4947 71.7056 19.1334 71.8108 20.0369C72.1207 22.708 72.4438 25.3792 72.7725 28.0484C72.8702 28.8392 73.4864 29.3539 74.204 29.2844C74.9309 29.2112 75.4438 28.6063 75.5264 27.8155ZM33.9799 27.4962C33.948 27.3778 33.9085 27.1449 33.8277 26.9289C32.8979 24.4813 31.9756 22.0318 31.0213 19.5936C30.6625 18.675 29.9599 18.3369 29.2085 18.6356C28.4271 18.9455 28.1754 19.71 28.5473 20.6286C29.1353 22.0806 29.7364 23.527 30.2999 24.9885C30.6944 26.0141 31.0119 27.0679 31.4045 28.0935C31.66 28.7622 32.2573 29.0534 32.9298 28.9219C33.5366 28.8036 33.9874 28.2419 33.9799 27.4962ZM60.5117 32.551C61.0865 32.4947 61.481 32.1134 61.7496 31.4935C62.7696 29.1342 63.8178 26.7861 64.866 24.4381C65.2755 23.5195 65.0801 22.7644 64.3062 22.4094C63.583 22.0769 62.8523 22.3868 62.4446 23.2734C61.5166 25.2909 60.6131 27.3196 59.7133 29.3502C59.486 29.8611 59.2662 30.3852 59.1253 30.9243C58.9074 31.7546 59.5649 32.5529 60.5117 32.551ZM47.1199 25.1087C47.0053 23.4988 46.8983 21.9585 46.7874 20.4201C46.7198 19.4771 46.1544 18.8892 45.3673 18.9324C44.5614 18.9774 44.073 19.5992 44.1106 20.5553C44.2139 23.172 44.3229 25.7887 44.4318 28.4053C44.4713 29.3352 44.9634 29.8649 45.7824 29.8686C46.6033 29.8724 47.1049 29.3408 47.118 28.4091C47.1331 27.2858 47.1199 26.1625 47.1199 25.1087ZM68.8897 40.3278C70.2892 44.7872 71.313 49.3349 71.7676 54.0235C72.7669 54.1437 73.7099 54.2583 74.7393 54.3823C73.7531 49.2372 72.2522 44.4171 68.8897 40.3278ZM50.242 39.7661C47.9671 44.1936 46.8889 48.9198 46.6653 53.9728C47.676 53.8995 48.6133 53.8319 49.6164 53.7586C49.3553 49.0306 49.669 44.4002 50.242 39.7661ZM44.4863 54.1907C44.073 48.9104 42.9516 43.8837 40.9942 39.0392C41.3605 44.1654 41.7268 49.2917 42.0968 54.4687C42.929 54.3729 43.6654 54.2865 44.4863 54.1907ZM87.9733 45.4653C84.8888 48.2398 82.5444 51.574 81.2483 55.6746C82.0635 55.9094 82.8149 56.1254 83.4085 56.2964C84.9527 52.6297 86.4648 49.0419 87.9733 45.4653Z" fill="black"/>
<path d="M62.0013 64.7363C69.1245 64.7363 76.2478 64.7363 83.3691 64.7363C83.6264 64.7363 83.9439 64.6518 84.128 64.7701C84.468 64.9899 84.8625 65.281 84.9902 65.6323C85.1668 66.1113 84.8775 66.5584 84.3685 66.7331C84.0904 66.8289 83.7711 66.8401 83.4724 66.8401C69.1565 66.8458 54.8405 66.8439 40.5246 66.8439C40.4081 66.8439 40.2897 66.8476 40.1733 66.842C39.4087 66.8138 38.9335 66.4156 38.9203 65.7938C38.9072 65.1533 39.4012 64.7363 40.209 64.7363C45.8332 64.7325 51.4555 64.7344 57.0797 64.7344C58.7215 64.7363 60.3614 64.7363 62.0013 64.7363Z" fill="black"/>
<path d="M60.692 71.9567C57.461 71.9567 54.2319 71.9567 51.0009 71.9567C50.766 71.9567 50.5312 71.9661 50.3002 71.9417C49.7272 71.8797 49.4079 71.5171 49.3666 70.9724C49.3271 70.4539 49.5976 70.0632 50.1123 69.9205C50.3772 69.8472 50.6665 69.8453 50.9445 69.8434C57.476 69.8397 64.0056 69.8397 70.5371 69.8453C70.8377 69.8453 71.1533 69.8566 71.4332 69.9505C71.9422 70.1214 72.2353 70.561 72.0625 71.0438C71.9347 71.3969 71.5459 71.6862 71.2134 71.921C71.0537 72.0337 70.7588 71.9567 70.524 71.9567C67.246 71.9586 63.9681 71.9567 60.692 71.9567Z" fill="black"/>
<path d="M70.6292 61.6856C68.7112 61.6856 66.7933 61.6893 64.8754 61.6837C64.0488 61.6818 63.5755 61.2967 63.5736 60.6449C63.5717 60.0006 64.0639 59.5798 64.8697 59.578C68.7526 59.5723 72.6335 59.5723 76.5164 59.578C77.3166 59.5798 77.7937 60.0138 77.775 60.6731C77.7562 61.3136 77.3147 61.6799 76.5239 61.6818C74.5571 61.6893 72.5922 61.6856 70.6292 61.6856Z" fill="black"/>
<path d="M50.4354 61.6856C48.8913 61.6856 47.3472 61.6912 45.8012 61.6837C45.0385 61.6799 44.5614 61.2779 44.552 60.6562C44.5426 60.0382 45.0254 59.5836 45.7712 59.5817C48.9063 59.5704 52.0434 59.5723 55.1786 59.5798C55.9338 59.5817 56.4165 60.01 56.4259 60.6261C56.4353 61.2779 55.9563 61.6799 55.1373 61.6818C53.5725 61.6893 52.004 61.6856 50.4354 61.6856Z" fill="black"/>
</svg>
