<svg width="120" height="100" viewBox="0 0 120 100" fill="none" xmlns="http://www.w3.org/2000/svg">
<rect width="120" height="100" fill="white"/>
<path d="M98.2943 80.2004C97.9577 80.8078 97.444 81.0049 96.753 81.0049C72.3332 80.993 47.9134 80.995 23.4936 80.993C22.1873 80.993 21.7313 80.3577 22.1515 79.1271C27.8547 62.3939 33.5638 45.6607 39.2611 28.9235C39.5239 28.1508 39.968 27.7984 40.7884 27.8083C42.8992 27.8322 45.012 27.8103 47.1229 27.8203C48.0588 27.8242 48.5447 28.2345 48.5447 28.9713C48.5447 29.7001 48.0369 30.1183 47.1209 30.1222C45.4322 30.1282 43.7416 30.1501 42.0529 30.1083C41.4854 30.0944 41.2385 30.2676 41.0553 30.8073C36.5907 43.9561 32.1082 57.0989 27.6296 70.2417C26.7654 72.7767 25.8992 75.3117 25.0369 77.8467C24.9513 78.0996 24.8697 78.3544 24.7661 78.6671C48.3615 78.6671 71.8752 78.6671 95.4925 78.6671C95.3969 78.3684 95.3132 78.0976 95.2236 77.8307C89.8868 62.1768 84.5481 46.5229 79.2272 30.861C79.036 30.2975 78.807 30.0884 78.1937 30.1063C76.5051 30.1561 74.8164 30.1282 73.1258 30.1222C72.2177 30.1183 71.7099 29.6901 71.7179 28.9573C71.7258 28.2444 72.1978 27.8302 73.0799 27.8242C75.2406 27.8123 77.4031 27.8322 79.5637 27.8143C80.4121 27.8063 80.7745 28.2643 81.0294 29.0091C86.5255 45.1588 92.0355 61.3046 97.5455 77.4504C97.7765 78.1254 98.0434 78.7906 98.2923 79.4596C98.2943 79.7046 98.2943 79.9535 98.2943 80.2004Z" fill="black"/>
<path d="M65.941 44.0237C62.034 44.0237 58.2425 44.0237 54.3295 44.0237C54.3295 44.5554 54.3534 45.0692 54.3235 45.579C54.2737 46.4591 53.8894 46.8893 53.2104 46.8853C52.4935 46.8813 52.0534 46.3934 52.0534 45.5411C52.0474 36.7972 52.0474 28.0532 52.0534 19.3112C52.0534 18.4808 52.4656 18.0228 53.1606 18.0049C53.8815 17.987 54.3156 18.4709 54.3375 19.3192C54.3494 19.7911 54.3554 20.2611 54.3653 20.733C54.3653 20.753 54.3952 20.7709 54.447 20.8326C58.2206 20.8326 62.032 20.8326 65.947 20.8326C65.947 20.2392 65.9091 19.6717 65.9569 19.1101C66.0226 18.3454 66.4309 17.979 67.09 18.0009C67.769 18.0228 68.2032 18.4629 68.2071 19.2216C68.2211 22.127 68.2151 25.0343 68.2151 27.9397C68.2151 33.6528 68.2151 39.366 68.2151 45.0791C68.2151 45.352 68.231 45.6288 68.1912 45.8976C68.0956 46.5308 67.6854 46.8694 67.0661 46.8674C66.4448 46.8654 66.0147 46.5189 65.9549 45.8856C65.8992 45.2982 65.941 44.7008 65.941 44.0237ZM65.9052 30.17C62.024 30.17 58.2166 30.17 54.3992 30.17C54.3992 31.7153 54.3992 33.2108 54.3992 34.6824C58.2664 34.6824 62.0758 34.6824 65.9052 34.6824C65.9052 33.163 65.9052 31.7033 65.9052 30.17ZM65.8832 37.1198C62.034 37.1198 58.2285 37.1198 54.3992 37.1198C54.3992 38.6591 54.3992 40.1526 54.3992 41.6501C58.2624 41.6501 62.0678 41.6501 65.8832 41.6501C65.8832 40.1127 65.8832 38.6352 65.8832 37.1198ZM65.8872 23.2441C62.038 23.2441 58.2305 23.2441 54.3813 23.2441C54.3813 24.7695 54.3813 26.2451 54.3813 27.7684C58.2285 27.7684 62.038 27.7684 65.8872 27.7684C65.8872 26.2471 65.8872 24.7695 65.8872 23.2441Z" fill="black"/>
<path d="M84.6974 74.9989C83.4887 75.1084 82.4631 74.6404 81.4993 73.9873C80.6769 73.4297 79.8843 72.8263 79.032 72.3205C77.0467 71.1436 75.141 71.3567 73.4125 72.8841C70.2064 75.7197 66.5902 75.7217 63.3742 72.8861C61.3609 71.1118 58.8598 71.1277 56.8505 72.9259C53.7859 75.6699 50.0242 75.6978 46.9775 72.9956C44.8248 71.0879 42.3616 71.0978 40.2268 73.0215C37.3713 75.5963 33.3089 75.648 30.6326 73.1449C29.9575 72.5137 29.8759 71.976 30.3717 71.4085C30.8875 70.819 31.461 70.827 32.1858 71.4304C34.0975 73.0235 35.4815 73.1529 37.6222 71.9023C38.7353 71.2512 39.7907 70.4945 40.9298 69.899C42.6662 68.993 44.4644 69.0089 46.2307 69.8572C46.8321 70.146 47.3976 70.5124 47.9692 70.8609C48.5845 71.2352 49.1699 71.6574 49.7972 72.0099C51.7686 73.119 53.2084 72.9996 54.9169 71.52C55.9644 70.6139 57.0437 69.7935 58.4177 69.4888C60.891 68.9392 63.1013 69.4749 64.9692 71.2213C66.3751 72.5376 67.996 73.0254 69.8341 72.4201C70.4952 72.203 71.1324 71.7848 71.6621 71.3229C74.8363 68.5688 78.5223 68.5668 81.6606 71.3687C83.6002 73.0991 86.0734 73.127 88.0827 71.4403C88.7498 70.8808 89.3591 70.825 89.8052 71.281C90.2353 71.7211 90.2413 72.5635 89.7176 73.1091C89.3472 73.4954 88.9051 73.8877 88.4172 74.0689C87.2224 74.513 85.9838 74.8376 84.7631 75.2119C84.7392 75.1422 84.7193 75.0706 84.6974 74.9989Z" fill="black"/>
<path d="M45.6293 61.3943C44.4345 61.3664 43.5046 61.91 42.6423 62.6886C40.1492 64.9349 36.519 64.9289 34.1154 62.7066C33.522 62.159 33.4304 61.6153 33.8386 61.0757C34.2827 60.4862 34.9239 60.4086 35.5233 60.8666C37.6242 62.4756 39.3228 62.4318 41.3619 60.769C41.9155 60.317 42.5149 59.8968 43.1462 59.5642C44.8248 58.6801 46.4996 58.8394 48.1205 59.7514C48.9848 60.2373 49.8151 60.7829 50.6754 61.2768C52.6687 62.4238 53.9312 62.3103 55.7215 60.8805C56.2233 60.4803 56.745 60.0919 57.2946 59.7614C58.9076 58.7876 60.5863 58.7199 62.263 59.5722C63.1671 60.0322 64.0253 60.5858 64.8995 61.1016C67.1716 62.4417 68.4142 62.3441 70.4534 60.7033C70.9532 60.301 71.4869 59.9267 72.0504 59.62C73.8008 58.6602 75.5373 58.8474 77.2259 59.8032C78.1101 60.303 78.9663 60.8566 79.8445 61.3684C81.5053 62.3342 83.0844 62.2904 84.5899 61.008C85.243 60.4504 85.9181 60.4822 86.3661 61.0099C86.8421 61.5715 86.7266 62.2067 86.0356 62.8161C83.7137 64.8652 80.1572 64.9787 77.8611 62.8699C75.5373 60.7351 74.0497 61.1095 71.8971 62.5532C71.4032 62.8858 70.9014 63.2064 70.3877 63.5071C68.008 64.8951 65.3038 64.6202 63.2188 62.7942C62.958 62.5652 62.6911 62.3422 62.4084 62.141C61.2614 61.3246 60.0208 61.1712 58.7503 61.7786C57.9259 62.1729 57.1453 62.6647 56.3607 63.1407C53.2144 65.0464 51.2628 64.915 48.4551 62.5413C47.6247 61.8383 46.7345 61.3724 45.6293 61.3943Z" fill="black"/>
<path d="M78.6637 53.8511C78.2375 53.6898 77.3872 53.4329 76.5967 53.0485C75.7742 52.6503 75.0175 52.1146 74.217 51.6666C72.8649 50.9098 71.6143 51.0831 70.4355 52.0808C67.7531 54.3469 65.1246 54.3529 62.4582 52.1266C61.1359 51.0214 60.0905 50.8959 58.5571 51.7104C57.7905 52.1186 57.0576 52.5866 56.3129 53.0326C54.3395 54.2175 52.4477 54.0681 50.6236 52.7001C50.5838 52.6702 50.54 52.6443 50.5042 52.6105C48.2739 50.5494 47.0492 50.9616 44.8607 52.3536C44.5461 52.5527 44.2294 52.7498 43.9088 52.935C41.5093 54.325 39.4602 54.094 37.4489 52.2102C36.9232 51.7183 36.8615 51.1448 37.2797 50.6291C37.7237 50.0815 38.347 50.0078 38.9185 50.4379C40.8083 51.8597 42.0808 51.8119 43.8889 50.2527C46.0635 48.3769 49.1301 48.3868 51.3087 50.2806C52.9057 51.6685 53.9273 51.784 55.7613 50.7545C56.4543 50.3662 57.1194 49.9301 57.8044 49.5279C59.6782 48.4286 61.4924 48.5481 63.2368 49.8186C63.6171 50.0954 63.9756 50.404 64.3459 50.6968C65.5925 51.6865 67.2214 51.7004 68.474 50.7266C68.5915 50.635 68.701 50.5335 68.8145 50.4359C71.2141 48.3968 72.9386 48.2574 75.6548 49.8803C76.1864 50.1989 76.7181 50.5195 77.2518 50.8362C78.6756 51.6785 80.0138 51.6307 81.2962 50.5136C81.9275 49.962 82.734 50.0456 83.0486 50.7386C83.2099 51.093 83.2139 51.7681 82.9869 52.0071C81.9454 53.0904 80.6908 53.8252 78.6637 53.8511Z" fill="black"/>
</svg>
