<svg width="120" height="100" viewBox="0 0 120 100" fill="none" xmlns="http://www.w3.org/2000/svg">
<rect width="120" height="100" fill="white"/>
<path d="M59.168 96C58.8706 95.8988 58.5731 95.8017 58.2778 95.6984C56.2254 94.9706 54.9176 93.1059 54.9113 90.8384C54.8986 86.1197 54.907 81.3989 54.907 76.6802C54.907 76.3955 54.907 76.1128 54.907 75.7521C52.4454 75.7521 50.0576 75.7837 47.6719 75.7352C46.8429 75.7184 45.9802 75.6129 45.1997 75.3492C42.6895 74.497 41.021 72.162 41.0189 69.5084C41.0063 55.8776 40.9767 42.2447 41.0337 28.6139C41.059 21.8512 46.2692 16.0631 52.9601 15.1434C53.1394 15.1181 53.3103 15.0485 53.4853 15C57.4847 15 61.4862 15 65.4856 15C66.1015 15.424 66.2745 16.0125 66.2956 16.7529C66.4601 22.5642 71.3496 27.4516 77.1462 27.6478C78.5637 27.6963 78.9075 28.0423 78.9075 29.4471C78.9075 42.6497 78.9096 55.8523 78.9054 69.0548C78.9033 73.0669 76.2286 75.7437 72.2292 75.7479C69.8646 75.75 67.4979 75.7479 65.0131 75.7479C65.0131 76.0601 65.0131 76.3364 65.0131 76.6148C65.0131 81.0424 65.0131 85.47 65.0131 89.8976C65.0131 93.4709 64.0765 94.8082 60.7458 96C60.2206 96 59.6953 96 59.168 96ZM63.7285 17.5587C60.4631 17.5587 57.2274 17.5502 53.9937 17.5692C53.5254 17.5713 53.0529 17.6768 52.591 17.778C47.2205 18.9551 43.5502 23.486 43.5417 29.0189C43.5249 42.3333 43.5354 55.6477 43.5354 68.962C43.5354 71.7042 45.0457 73.2209 47.7774 73.2209C55.909 73.223 64.0385 73.223 72.1702 73.2209C74.8533 73.2209 76.3763 71.6958 76.3763 69.0063C76.3784 56.3522 76.3763 43.6959 76.3763 31.0418C76.3763 30.7591 76.3763 30.4744 76.3763 30.2128C69.1685 28.9577 64.9793 24.7748 63.7285 17.5587ZM62.4881 75.8091C60.75 75.8091 59.111 75.8091 57.4341 75.8091C57.4341 80.8188 57.4299 85.7695 57.4362 90.7223C57.4383 92.3234 58.5078 93.4688 59.9653 93.4666C61.425 93.4645 62.4818 92.3234 62.486 90.716C62.4945 87.5013 62.4881 84.2866 62.4881 81.072C62.4881 79.3338 62.4881 77.5978 62.4881 75.8091Z" fill="black"/>
<path d="M56.1685 49.2519C56.1685 53.6499 56.1685 58.0501 56.1685 62.4481C56.1685 62.6591 56.1791 62.87 56.1643 63.081C56.1137 63.8403 55.6222 64.3466 54.9303 64.3592C54.2089 64.374 53.6942 63.8509 53.6457 63.0514C53.6352 62.8932 53.6415 62.735 53.6415 62.5768C53.6415 53.6478 53.6415 44.7188 53.6436 35.7899C53.6436 35.5262 53.6183 35.252 53.6795 35.0031C53.8377 34.3724 54.2595 33.9927 54.9219 34.0011C55.5821 34.0096 55.9955 34.3935 56.139 35.0326C56.1959 35.2857 56.1685 35.5578 56.1685 35.8194C56.1706 40.2955 56.1685 44.7737 56.1685 49.2519Z" fill="black"/>
<path d="M63.7475 49.1821C63.7475 44.7566 63.7475 40.3312 63.7475 35.9078C63.7475 35.6716 63.7349 35.4332 63.7559 35.197C63.8213 34.4945 64.3276 34.0052 64.9836 33.9925C65.6692 33.9777 66.2007 34.484 66.2661 35.2244C66.283 35.4079 66.2724 35.5935 66.2724 35.777C66.2724 44.706 66.2724 53.635 66.2724 62.564C66.2724 62.8277 66.2999 63.1019 66.2366 63.3508C66.0763 63.9794 65.6628 64.3591 64.9942 64.3506C64.3276 64.3422 63.9205 63.9583 63.777 63.3234C63.7201 63.0723 63.7475 62.7981 63.7475 62.5366C63.7475 58.0858 63.7475 53.6329 63.7475 49.1821Z" fill="black"/>
</svg>
