<svg width="120" height="100" viewBox="0 0 120 100" fill="none" xmlns="http://www.w3.org/2000/svg">
<rect width="120" height="100" fill="white"/>
<g clip-path="url(#clip0_93_1883)">
<path d="M21 22.7552C21.456 22.1287 22.0933 22 22.8489 22C47.6036 22.0131 72.3602 22.0112 97.1149 22.0112C98.6623 22.0112 99 22.3375 99 23.8348C99 41.2783 99 58.7217 99 76.1652C99 77.6625 98.6623 77.9888 97.1149 77.9888C72.3602 77.9888 47.6036 77.9869 22.8489 78C22.0914 78 21.456 77.8713 21 77.2448C21 59.0816 21 40.9184 21 22.7552ZM96.5291 24.4445C72.1388 24.4445 47.8077 24.4445 23.4995 24.4445C23.4995 41.5244 23.4995 58.5521 23.4995 75.5667C47.8726 75.5667 72.1846 75.5667 96.5291 75.5667C96.5291 58.5185 96.5291 41.5076 96.5291 24.4445Z" fill="black"/>
<path d="M89.25 37.5116C89.25 39.3445 89.2538 41.1793 89.2481 43.0122C89.2462 44.2279 88.8398 44.6381 87.6243 44.6381C83.8216 44.6418 80.0171 44.6418 76.2144 44.6381C75.0447 44.6363 74.6269 44.2167 74.6269 43.0532C74.6231 39.337 74.6231 35.619 74.6269 31.9028C74.6288 30.7598 75.0581 30.3514 76.2487 30.3514C80.0514 30.3477 83.856 30.3477 87.6587 30.3514C88.8283 30.3533 89.2443 30.7728 89.2481 31.9364C89.2538 33.7935 89.25 35.6525 89.25 37.5116ZM77.0978 42.2178C80.3739 42.2178 83.5603 42.2178 86.7657 42.2178C86.7657 39.0461 86.7657 35.9136 86.7657 32.7829C83.5126 32.7829 80.3071 32.7829 77.0978 32.7829C77.0978 35.9509 77.0978 39.0648 77.0978 42.2178Z" fill="black"/>
<path d="M61.2193 50.0885C61.2193 55.9882 61.2193 61.8897 61.2193 67.7893C61.2193 68.0373 61.2326 68.2872 61.2021 68.5314C61.1201 69.1878 60.603 69.6483 59.9867 69.639C59.3666 69.6297 58.8743 69.1673 58.7961 68.5035C58.7732 68.3077 58.7827 68.1082 58.7827 67.9087C58.7827 55.9602 58.7827 44.0099 58.7827 32.0614C58.7827 31.8638 58.7732 31.6624 58.798 31.4666C58.8839 30.8121 59.3971 30.3497 60.0153 30.359C60.6354 30.3683 61.1296 30.8289 61.204 31.4946C61.2307 31.7407 61.2174 31.9906 61.2174 32.2367C61.2193 38.1885 61.2193 44.1385 61.2193 50.0885Z" fill="black"/>
<path d="M41.0342 63.6965C37.4281 63.6965 33.8238 63.6965 30.2177 63.6965C29.9887 63.6965 29.7597 63.7077 29.5327 63.6872C28.8134 63.6219 28.3135 63.1203 28.3249 62.4882C28.3363 61.8524 28.8343 61.3806 29.5689 61.321C29.7464 61.3061 29.9238 61.3154 30.1013 61.3154C37.4128 61.3154 44.7263 61.3154 52.0378 61.3154C52.2153 61.3154 52.3946 61.3079 52.5702 61.3247C53.3124 61.3956 53.7741 61.8636 53.7646 62.5236C53.755 63.18 53.2857 63.6312 52.5358 63.6909C52.3336 63.7077 52.1294 63.6965 51.9271 63.6965C48.2943 63.6965 44.6633 63.6965 41.0342 63.6965Z" fill="black"/>
<path d="M40.9579 69.6521C37.3785 69.6521 33.799 69.6521 30.2177 69.6521C30.0154 69.6521 29.8112 69.6615 29.609 69.6465C28.8324 69.5962 28.3134 69.1058 28.3249 68.442C28.3363 67.7801 28.8572 67.3158 29.6452 67.271C29.7979 67.2617 29.9505 67.2673 30.1013 67.2673C37.4128 67.2673 44.7263 67.2673 52.0378 67.2673C52.2153 67.2673 52.3946 67.2598 52.5702 67.2766C53.3124 67.3475 53.7741 67.8155 53.7646 68.4756C53.755 69.1319 53.2857 69.5831 52.5339 69.6428C52.3316 69.6596 52.1275 69.6484 51.9252 69.6484C48.2695 69.6521 44.6137 69.6521 40.9579 69.6521Z" fill="black"/>
<path d="M78.2731 48.2129C81.7457 48.2129 85.2202 48.2129 88.6928 48.2148C88.9466 48.2148 89.2061 48.2017 89.4503 48.2521C90.0685 48.3826 90.4406 48.7779 90.4463 49.397C90.4501 50.016 90.0838 50.415 89.4675 50.553C89.2252 50.6071 88.9638 50.594 88.71 50.594C81.7629 50.5959 74.8158 50.5959 67.8687 50.594C67.6416 50.594 67.4069 50.6108 67.1856 50.5717C66.5311 50.4579 66.1228 50.0664 66.1171 49.4119C66.1133 48.7574 66.514 48.3584 67.1684 48.2409C67.4145 48.1961 67.674 48.2148 67.9278 48.2148C71.3775 48.2129 74.8253 48.2129 78.2731 48.2129Z" fill="black"/>
<path d="M78.2845 56.5514C74.8119 56.5514 71.3374 56.5532 67.8648 56.5495C67.5882 56.5495 67.2981 56.5607 67.0348 56.4936C66.4567 56.3463 66.119 55.9491 66.1171 55.3636C66.1152 54.78 66.451 54.3791 67.0291 54.2299C67.2924 54.1609 67.5824 54.1721 67.8591 54.1721C74.8062 54.1684 81.7533 54.1703 88.7004 54.1703C88.9275 54.1703 89.1622 54.1554 89.3835 54.1945C90.038 54.3101 90.4444 54.7054 90.4463 55.358C90.4482 56.0125 90.0437 56.4097 89.3892 56.5253C89.1431 56.5682 88.8836 56.5514 88.6298 56.5514C85.1801 56.5514 81.7323 56.5514 78.2845 56.5514Z" fill="black"/>
<path d="M70.973 62.5048C69.8339 62.5048 68.6948 62.5142 67.5577 62.5011C66.6628 62.4918 66.1095 62.0275 66.1076 61.3171C66.1037 60.6048 66.6552 60.1293 67.55 60.1256C69.8282 60.1144 72.1045 60.1144 74.3827 60.1256C75.2775 60.1293 75.8309 60.5992 75.8328 61.3077C75.8366 62.02 75.2852 62.4899 74.3903 62.4992C73.2512 62.5142 72.1121 62.5048 70.973 62.5048Z" fill="black"/>
<path d="M31.3797 37.4929C30.8245 37.4929 30.2673 37.506 29.7121 37.4911C28.8745 37.4687 28.3383 37.0063 28.325 36.322C28.3116 35.6339 28.8439 35.1342 29.672 35.1174C30.8092 35.0969 31.9464 35.095 33.0817 35.1193C33.862 35.1361 34.381 35.6246 34.3925 36.2828C34.4058 36.9708 33.8735 37.4594 33.0454 37.4892C32.4921 37.5078 31.9349 37.4929 31.3797 37.4929Z" fill="black"/>
<path d="M39.2693 36.3388C39.2464 36.9709 38.6492 37.5135 38.01 37.4818C37.3632 37.4501 36.8175 36.859 36.8594 36.2344C36.8995 35.6265 37.4567 35.1249 38.0787 35.1324C38.7331 35.1417 39.2903 35.7067 39.2693 36.3388Z" fill="black"/>
<path d="M42.906 35.1344C43.5566 35.1138 44.1367 35.6583 44.1443 36.2923C44.15 36.8927 43.6272 37.4409 43.009 37.48C42.3699 37.5211 41.765 36.9878 41.7326 36.3557C41.7001 35.7254 42.2477 35.1549 42.906 35.1344Z" fill="black"/>
<path d="M49.0194 36.3182C49.0098 36.9522 48.4241 37.5004 47.7811 37.4799C47.1342 37.4594 46.579 36.8795 46.6076 36.253C46.6362 35.6451 47.1838 35.1342 47.8097 35.1323C48.4641 35.1305 49.0289 35.6843 49.0194 36.3182Z" fill="black"/>
<path d="M53.8943 36.3351C53.8753 36.9672 53.28 37.5098 52.6389 37.4818C51.992 37.4539 51.4444 36.8628 51.4826 36.2381C51.5208 35.6284 52.076 35.1249 52.698 35.1324C53.3563 35.1417 53.9134 35.703 53.8943 36.3351Z" fill="black"/>
<path d="M79.5057 62.4936C78.8608 62.4974 78.2865 61.9324 78.2941 61.304C78.3018 60.6682 78.8818 60.1256 79.5324 60.1461C80.1602 60.1647 80.6925 60.6868 80.7059 61.2947C80.7192 61.9231 80.1526 62.4899 79.5057 62.4936Z" fill="black"/>
<path d="M84.3846 60.1446C85.039 60.1483 85.6 60.7095 85.5809 61.3435C85.5637 61.9476 85.0218 62.4753 84.4036 62.4921C83.7587 62.5089 83.1768 61.9588 83.1691 61.3248C83.1615 60.6927 83.7282 60.1408 84.3846 60.1446Z" fill="black"/>
<path d="M89.1928 62.4938C88.5441 62.4584 88.0022 61.8673 88.048 61.2426C88.0919 60.6329 88.649 60.1332 89.271 60.1462C89.9274 60.1593 90.4826 60.7261 90.4578 61.3564C90.4311 61.9866 89.832 62.5274 89.1928 62.4938Z" fill="black"/>
</g>
<defs>
<clipPath id="clip0_93_1883">
<rect width="78" height="56" fill="white" transform="translate(21 22)"/>
</clipPath>
</defs>
</svg>
