<svg width="120" height="100" viewBox="0 0 120 100" fill="none" xmlns="http://www.w3.org/2000/svg">
<rect width="120" height="100" fill="white"/>
<path d="M99 34.098C98.8253 35.6274 98.7136 37.1651 98.4638 38.6824C97.0419 47.3414 93.5381 54.9827 87.477 61.4399C81.8384 67.4482 75.8647 73.0563 68.9972 77.6549C63.0153 81.6625 56.6414 84.8169 49.5403 86.3241C43.981 87.5042 38.4419 87.5875 33.0633 85.4933C26.4477 82.9178 22.3873 78.1729 21.2092 71.1003C21.1381 70.6778 21.0691 70.2573 21 69.8348C21 68.8213 21 67.8077 21 66.7941C21.3331 65.1387 21.5545 63.4528 22.0197 61.836C23.4456 56.888 26.1877 52.6793 29.6793 48.9582C36.368 41.8307 43.3818 35.0425 50.9825 28.8798C57.1431 23.8871 63.584 19.3108 70.874 16.063C74.3169 14.5294 77.8756 13.3858 81.6678 13.071C89.4696 12.423 95.2098 16.2295 97.6289 23.6901C98.3358 25.8696 98.738 28.1059 98.87 30.393C98.8863 30.6673 98.9533 30.9374 98.998 31.2096C99 32.1703 99 33.1331 99 34.098ZM42.3763 84.5671C43.1624 84.5671 43.9485 84.5712 44.7345 84.5651C44.9113 84.563 45.088 84.5285 45.2647 84.5102C50.7124 83.9517 55.7903 82.1967 60.6469 79.743C67.8922 76.0808 74.2397 71.1754 80.0205 65.5389C82.85 62.7805 85.6591 59.9592 88.1372 56.8941C92.7886 51.1438 95.2646 44.4063 96.2518 37.1163C96.8104 32.9849 96.7494 28.8717 95.4901 24.8519C94.2937 21.0394 92.1731 17.9621 88.3403 16.3737C85.4763 15.1875 82.5006 15.2241 79.5066 15.7786C75.1659 16.5829 71.1929 18.3501 67.36 20.4625C61.4249 23.7328 56.0341 27.7769 50.8586 32.1175C43.851 37.9938 37.2821 44.3372 31.0971 51.0605C26.9819 55.5332 24.0265 60.6599 23.5309 66.8733C23.1003 72.2621 24.8126 76.877 29.0334 80.3828C32.8866 83.584 37.4811 84.6199 42.3763 84.5671Z" fill="black"/>
<path d="M62.6863 65.0759C62.6599 66.8471 62.0018 68.1897 60.6328 68.9941C59.5623 69.6237 58.3375 70.0137 57.1493 70.4098C56.4972 70.6271 55.9082 70.1986 55.7477 69.579C55.5609 68.862 55.894 68.2974 56.6293 68.0577C57.3239 67.8322 58.047 67.6575 58.7031 67.3468C59.9543 66.7557 60.3017 66.0508 60.1676 64.6737C60.0965 63.9547 60.4845 63.4245 61.169 63.3006C61.8373 63.1808 62.3593 63.4997 62.5441 64.1882C62.6355 64.5254 62.6558 64.8849 62.6863 65.0759Z" fill="black"/>
<path d="M85.4682 43.1568C85.0924 44.3572 84.7898 45.5252 84.3571 46.6403C84.0646 47.3939 83.2907 47.6275 82.6692 47.3045C82.07 46.9937 81.8323 46.297 82.1756 45.6044C82.9597 44.018 82.9962 42.4662 82.1573 40.8839C81.7917 40.1933 82.0212 39.5514 82.6631 39.2163C83.3273 38.8669 84.0443 39.0578 84.3551 39.8195C84.7877 40.8839 85.0883 41.999 85.4682 43.1568Z" fill="black"/>
<path d="M32.8601 71.9532C33.0592 71.3073 33.3415 70.1312 33.7884 69.0222C34.1154 68.2097 34.7979 68.0168 35.458 68.3478C36.1222 68.681 36.3111 69.3147 35.9232 70.0967C35.1594 71.6343 35.133 73.1476 35.9353 74.6831C36.3091 75.3981 36.1222 76.0603 35.5332 76.4076C34.9827 76.7326 34.3266 76.5803 33.8635 75.9709C33.0856 74.9513 32.9799 73.7366 32.8601 71.9532Z" fill="black"/>
<path d="M77.9324 23.676C77.4469 23.6008 77.0488 23.5033 76.6466 23.4851C75.2654 23.4221 74.0792 23.8893 73.0474 24.8094C72.4035 25.3842 71.723 25.3517 71.2457 24.7891C70.7988 24.261 70.8638 23.6049 71.4529 23.0504C73.3744 21.2467 75.6351 20.6901 78.1822 21.2934C78.8952 21.462 79.2222 21.9942 79.1166 22.634C79.0069 23.3043 78.5052 23.7125 77.9324 23.676Z" fill="black"/>
<path d="M49.7476 45.1841C50.0319 45.2227 50.5926 45.2633 51.1349 45.3831C51.9067 45.5517 52.2927 46.1408 52.1444 46.8233C51.988 47.5464 51.4416 47.9323 50.6677 47.7637C48.9229 47.3818 47.4158 47.7678 46.0935 48.9723C45.5166 49.4983 44.7915 49.4598 44.3263 48.958C43.8287 48.4238 43.8957 47.7495 44.5152 47.1625C45.9025 45.8442 47.564 45.2064 49.7476 45.1841Z" fill="black"/>
</svg>
