<svg width="120" height="100" viewBox="0 0 120 100" fill="none" xmlns="http://www.w3.org/2000/svg">
<rect width="120" height="100" fill="white"/>
<path d="M27.992 43.8258C27.992 42.6294 28.0244 41.4307 27.9688 40.2389C27.9549 39.9444 27.7281 39.5334 27.4758 39.3919C20.4308 35.4763 16.9175 29.3003 15.7302 21.6244C15.7024 21.4577 15.6978 21.2842 15.6932 21.1152C15.6747 20.4029 15.9894 19.8823 16.6884 19.6974C17.4151 19.5056 17.959 19.7841 18.3409 20.4531C21.1691 25.4167 27.8022 27.5743 33.0466 25.0674C35.1319 24.0696 37.0158 22.6564 38.9692 21.3961C40.2491 20.5718 41.4919 19.6905 42.7417 18.8229C47.0164 15.8548 51.7355 15.3525 56.6189 16.7316C58.6417 17.3024 60.3937 17.2841 62.4096 16.7201C67.3647 15.3343 72.1231 15.8959 76.4303 18.9325C78.4947 20.3892 80.5777 21.8253 82.6745 23.2386C84.7112 24.6107 86.8497 25.7569 89.3632 26.0788C93.5985 26.6222 98.556 24.202 100.634 20.5056C101.023 19.8115 101.59 19.4828 102.349 19.7134C103.12 19.9462 103.393 20.5558 103.287 21.3321C102.227 29.1085 98.7065 35.3393 91.6244 39.3074C91.143 39.5768 91.0272 39.8828 91.0157 40.385C90.9532 43.344 91.1337 46.3395 90.7264 49.2551C89.0368 61.3125 82.3551 69.6871 71.0516 74.5159C70.6165 74.7032 70.179 74.9612 69.8434 75.2876C67.0407 78.0183 63.988 80.4384 60.7015 82.5823C59.8683 83.1257 59.181 83.1508 58.3316 82.596C55.022 80.4362 51.9461 77.9977 49.1225 75.2465C48.8055 74.9383 48.3981 74.6849 47.9861 74.5114C36.6455 69.7213 30.0587 61.301 28.235 49.2871C27.9619 47.4948 28.0151 45.6546 27.9156 43.8349C27.9387 43.828 27.9665 43.8258 27.992 43.8258ZM74.9421 69.4679C79.6311 66.5203 83.2346 62.4289 85.6601 57.3009C88.1319 52.0748 88.5045 46.5519 88.1898 40.8622C77.9809 44.2413 68.3599 43.5655 59.4656 37.3622C50.5551 43.6751 40.9295 44.2413 30.8618 40.8942C30.348 47.7231 31.2113 54.2027 34.8496 60.1206C37.2195 63.9723 40.3046 67.1185 44.378 69.6619C44.2113 69.3263 44.1627 69.2053 44.0956 69.0957C42.7486 67.0066 41.8599 64.7372 41.3785 62.3125C41.198 61.4015 41.64 60.6914 42.4339 60.5385C43.2393 60.3832 43.9359 60.865 44.0933 61.7714C44.5192 64.2349 45.5745 66.4313 46.9956 68.4656C50.2219 73.0867 54.4758 76.6507 59.1254 79.79C59.3152 79.9179 59.7943 79.8585 60.0003 79.7055C61.824 78.3585 63.7056 77.0685 65.4044 75.5776C69.8018 71.7168 73.7941 67.5546 74.9722 61.5362C75.1157 60.7987 75.8702 60.406 76.5645 60.5567C77.2681 60.7097 77.724 61.333 77.6291 62.091C77.5643 62.5979 77.4879 63.1184 77.3028 63.591C76.5275 65.5888 75.7082 67.5706 74.9421 69.4679ZM99.336 26.0765C98.9958 26.266 98.8476 26.3436 98.7018 26.4304C93.4088 29.5332 88.0787 29.8369 82.7694 26.5195C80.6008 25.1655 78.5734 23.5924 76.4071 22.234C74.713 21.1723 72.9957 20.0262 71.1256 19.38C67.5938 18.1631 64.0528 18.7933 60.6483 20.1312C59.8336 20.4508 59.1439 20.4463 58.3362 20.122C55.4224 18.9554 52.4044 18.4964 49.2637 18.9828C46.8081 19.3618 44.8362 20.7111 42.8528 22.0353C40.4643 23.6313 38.1499 25.3459 35.6897 26.8254C31.2715 29.4853 26.6704 29.4716 22.0324 27.346C21.2617 26.9921 20.5326 26.5514 19.6717 26.0902C19.7712 26.4099 19.8244 26.6222 19.9031 26.8231C21.4329 30.7068 23.9186 33.8552 27.462 36.1361C31.2761 38.5905 35.5531 39.7161 40.0385 40.0517C46.866 40.5631 53.101 39.022 58.4334 34.5836C59.1972 33.9466 59.7966 33.9808 60.5974 34.5927C61.5532 35.3233 62.4859 36.1064 63.5251 36.7069C68.6932 39.6978 74.2964 40.675 80.2004 39.949C84.1534 39.4627 87.956 38.4261 91.3466 36.2571C95.133 33.837 97.7437 30.499 99.336 26.0765Z" fill="black"/>
<path d="M59.5074 47.0312C61.3243 47.0312 63.1411 47.0266 64.9579 47.0334C65.9878 47.038 66.6127 47.5403 66.6405 48.3577C66.6682 49.2093 66.0248 49.7618 64.9602 49.7641C61.3266 49.7709 57.6929 49.7709 54.0593 49.7641C52.9762 49.7618 52.3698 49.2367 52.3929 48.3577C52.4161 47.5197 53.0086 47.038 54.057 47.0334C55.8738 47.0266 57.6906 47.0312 59.5074 47.0312Z" fill="black"/>
</svg>
