<svg width="120" height="100" viewBox="0 0 120 100" fill="none" xmlns="http://www.w3.org/2000/svg">
<rect width="120" height="100" fill="white"/>
<path d="M92.002 18.5086C92.002 39.6724 92.002 60.8362 92.002 82.002C70.8369 82.002 49.6738 82.002 28.5087 82.002C28.1174 81.6987 28 81.3036 28 80.8067C28.0117 60.267 28.0098 39.7291 28.0117 19.1913C28.0117 18.2523 28.2544 18.0098 29.1936 18.0098C49.7325 18.0098 70.2714 18.0098 90.8084 18C91.3034 18 91.6987 18.1154 92.002 18.5086ZM68.2933 80.3549C73.1301 80.3549 77.9239 80.3549 82.7451 80.3549C82.7451 78.2344 82.7451 76.1471 82.7451 74.0384C77.9121 74.0384 73.1183 74.0384 68.2933 74.0384C68.2933 76.1432 68.2933 78.2168 68.2933 80.3549ZM68.2991 42.9431C68.2991 45.0225 68.2991 47.0315 68.2991 49.0659C73.1301 49.0659 77.9239 49.0659 82.7314 49.0659C82.7314 47.0041 82.7314 44.9834 82.7314 42.9431C77.9004 42.9431 73.1242 42.9431 68.2991 42.9431ZM51.0963 74.056C46.4179 74.056 41.7944 74.056 37.1747 74.056C37.1747 76.1804 37.1747 78.2539 37.1747 80.3373C41.8315 80.3373 46.4551 80.3373 51.0963 80.3373C51.0963 78.2285 51.0963 76.1726 51.0963 74.056ZM68.2952 27.4131C68.2952 29.4553 68.2952 31.4624 68.2952 33.5046C73.1262 33.5046 77.9219 33.5046 82.7529 33.5046C82.7529 31.4584 82.7529 29.4514 82.7529 27.4131C77.92 27.4131 73.1223 27.4131 68.2952 27.4131ZM82.7568 58.5299C77.8867 58.5299 73.091 58.5299 68.3109 58.5299C68.3109 60.5917 68.3109 62.5987 68.3109 64.5862C73.1575 64.5862 77.9571 64.5862 82.7568 64.5862C82.7568 62.5439 82.7568 60.5506 82.7568 58.5299ZM52.7614 74.0384C52.7614 76.1687 52.7614 78.2559 52.7614 80.3392C57.4123 80.3392 62.0183 80.3392 66.6223 80.3392C66.6223 78.2168 66.6223 76.1432 66.6223 74.0384C62.0007 74.0384 57.4123 74.0384 52.7614 74.0384ZM90.3701 35.183C85.6683 35.183 81.0349 35.183 76.3781 35.183C76.3781 37.2331 76.3781 39.244 76.3781 41.2706C81.0604 41.2706 85.7074 41.2706 90.3701 41.2706C90.3701 39.2205 90.3701 37.2252 90.3701 35.183ZM51.0689 49.0738C51.0689 46.9904 51.0689 44.9814 51.0689 42.9568C46.414 42.9568 41.8022 42.9568 37.1943 42.9568C37.1943 45.0225 37.1943 47.0472 37.1943 49.0738C41.8433 49.0738 46.4375 49.0738 51.0689 49.0738ZM43.5964 35.1869C38.9161 35.1869 34.2906 35.1869 29.6553 35.1869C29.6553 37.2389 29.6553 39.2499 29.6553 41.2804C34.318 41.2804 38.9474 41.2804 43.5964 41.2804C43.5964 39.2401 43.5964 37.2448 43.5964 35.1869ZM74.7071 41.2823C74.7071 39.2303 74.7071 37.2233 74.7071 35.1928C70.0484 35.1928 65.4248 35.1928 60.811 35.1928C60.811 37.2507 60.811 39.2577 60.811 41.2823C65.4639 41.2823 70.0758 41.2823 74.7071 41.2823ZM59.1264 41.2882C59.1264 39.2323 59.1264 37.2233 59.1264 35.183C54.4891 35.183 49.8851 35.183 45.2537 35.183C45.2537 37.2311 45.2537 39.242 45.2537 41.2882C49.8753 41.2882 54.4656 41.2882 59.1264 41.2882ZM66.6203 42.9509C61.9655 42.9509 57.3771 42.9509 52.7692 42.9509C52.7692 45.0108 52.7692 47.0335 52.7692 49.0679C57.4104 49.0679 61.9987 49.0679 66.6203 49.0679C66.6203 47.0217 66.6203 45.0108 66.6203 42.9509ZM43.5808 56.8417C43.5808 54.7819 43.5808 52.7748 43.5808 50.7463C38.9181 50.7463 34.2965 50.7463 29.6573 50.7463C29.6573 52.8003 29.6573 54.8053 29.6573 56.8417C34.3024 56.8417 38.9122 56.8417 43.5808 56.8417ZM43.5847 19.6627C38.922 19.6627 34.2945 19.6627 29.6651 19.6627C29.6651 21.7128 29.6651 23.7218 29.6651 25.7151C34.3356 25.7151 38.9631 25.7151 43.5847 25.7151C43.5847 23.667 43.5847 21.6776 43.5847 19.6627ZM60.7973 25.7366C65.4483 25.7366 70.0601 25.7366 74.7032 25.7366C74.7032 23.6944 74.7032 21.6874 74.7032 19.653C70.0542 19.653 65.4424 19.653 60.7973 19.653C60.7973 21.6796 60.7973 23.6709 60.7973 25.7366ZM90.3662 19.6569C85.6644 19.6569 81.033 19.6569 76.3801 19.6569C76.3801 21.7011 76.3801 23.7061 76.3801 25.723C81.0643 25.723 85.7113 25.723 90.3662 25.723C90.3662 23.6827 90.3662 21.6913 90.3662 19.6569ZM37.163 64.6018C41.8296 64.6018 46.4395 64.6018 51.0806 64.6018C51.0806 62.5635 51.0806 60.5584 51.0806 58.524C46.4277 58.524 41.8061 58.524 37.163 58.524C37.163 60.5623 37.163 62.5518 37.163 64.6018ZM37.163 33.5066C41.8257 33.5066 46.4355 33.5066 51.063 33.5066C51.063 31.4487 51.063 29.4299 51.063 27.4229C46.4023 27.4229 41.7944 27.4229 37.163 27.4229C37.163 29.4553 37.163 31.4467 37.163 33.5066ZM90.3682 50.7424C85.6722 50.7424 81.0408 50.7424 76.3801 50.7424C76.3801 52.7924 76.3801 54.7995 76.3801 56.8241C81.0643 56.8241 85.7133 56.8241 90.3682 56.8241C90.3682 54.7838 90.3682 52.7905 90.3682 50.7424ZM60.7934 56.8182C65.4639 56.8182 70.0875 56.8182 74.6895 56.8182C74.6895 54.7584 74.6895 52.7533 74.6895 50.7463C70.0327 50.7463 65.4268 50.7463 60.7934 50.7463C60.7934 52.7866 60.7934 54.7779 60.7934 56.8182ZM29.6436 72.3619C34.3239 72.3619 38.9377 72.3619 43.5827 72.3619C43.5827 70.3197 43.5827 68.3127 43.5827 66.288C38.9181 66.288 34.2887 66.288 29.6436 66.288C29.6436 68.3244 29.6436 70.3178 29.6436 72.3619ZM60.7973 72.3619C65.4483 72.3619 70.0601 72.3619 74.7032 72.3619C74.7032 70.3197 74.7032 68.3127 74.7032 66.2763C70.0542 66.2763 65.4424 66.2763 60.7973 66.2763C60.7973 68.3009 60.7973 70.2943 60.7973 72.3619ZM90.3682 66.2802C85.6663 66.2802 81.0349 66.2802 76.382 66.2802C76.382 68.3225 76.382 70.3295 76.382 72.3483C81.0662 72.3483 85.7113 72.3483 90.3682 72.3483C90.3682 70.308 90.3682 68.3166 90.3682 66.2802ZM45.2518 25.721C49.8753 25.721 54.4969 25.721 59.1087 25.721C59.1087 23.6709 59.1087 21.6639 59.1087 19.6569C54.4676 19.6569 49.8753 19.6569 45.2518 19.6569C45.2518 21.6854 45.2518 23.6768 45.2518 25.721ZM52.7516 33.5026C57.3908 33.5026 61.9928 33.5026 66.6203 33.5026C66.6203 31.4545 66.6203 29.4495 66.6203 27.417C61.9811 27.417 57.3771 27.417 52.7516 27.417C52.7516 29.4592 52.7516 31.4663 52.7516 33.5026ZM45.2459 56.8378C49.9066 56.8378 54.5008 56.8378 59.1244 56.8378C59.1244 54.7936 59.1244 52.7866 59.1244 50.7502C54.4832 50.7502 49.8773 50.7502 45.2459 50.7502C45.2459 52.7963 45.2459 54.7897 45.2459 56.8378ZM52.7457 64.594C57.3869 64.594 61.9968 64.594 66.6125 64.594C66.6125 62.5459 66.6125 60.5369 66.6125 58.5299C61.9635 58.5299 57.3536 58.5299 52.7457 58.5299C52.7457 60.578 52.7457 62.5694 52.7457 64.594ZM59.1146 72.3619C59.1146 70.3021 59.1146 68.2951 59.1146 66.2763C54.4774 66.2763 49.8851 66.2763 45.2557 66.2763C45.2557 68.3146 45.2557 70.3217 45.2557 72.3619C49.8832 72.3619 54.4754 72.3619 59.1146 72.3619ZM90.3408 80.3646C90.3408 78.207 90.3408 76.1217 90.3408 74.0443C88.343 74.0443 86.3962 74.0443 84.4317 74.0443C84.4317 76.1687 84.4317 78.2559 84.4317 80.3646C86.4196 80.3646 88.3665 80.3646 90.3408 80.3646ZM84.4297 42.9451C84.4297 45.0225 84.4297 47.0315 84.4297 49.0542C86.4314 49.0542 88.3919 49.0542 90.3545 49.0542C90.3545 46.9963 90.3545 44.9854 90.3545 42.9451C88.3685 42.9451 86.4236 42.9451 84.4297 42.9451ZM35.4822 80.3666C35.4822 78.2129 35.4822 76.1256 35.4822 74.0501C33.506 74.0501 31.5826 74.0501 29.671 74.0501C29.671 76.1823 29.671 78.2715 29.671 80.3666C31.6276 80.3666 33.5373 80.3666 35.4822 80.3666ZM84.4336 58.5044C84.4336 60.5858 84.4336 62.5889 84.4336 64.5862C86.4392 64.5862 88.3998 64.5862 90.3486 64.5862C90.3486 62.5322 90.3486 60.5271 90.3486 58.5044C88.3606 58.5044 86.4157 58.5044 84.4336 58.5044ZM90.3486 33.5124C90.3486 31.4291 90.3486 29.424 90.3486 27.4307C88.343 27.4307 86.3844 27.4307 84.4356 27.4307C84.4356 29.4866 84.4356 31.4917 84.4356 33.5124C86.4255 33.5124 88.3724 33.5124 90.3486 33.5124ZM29.6397 49.0659C31.6237 49.0659 33.5471 49.0659 35.4783 49.0659C35.4783 47.0041 35.4783 44.9814 35.4783 42.9646C33.5021 42.9646 31.5807 42.9646 29.6397 42.9646C29.6397 45.0108 29.6397 47.0061 29.6397 49.0659ZM35.5057 58.5181C33.5119 58.5181 31.5904 58.5181 29.6573 58.5181C29.6573 60.5662 29.6573 62.5733 29.6573 64.5823C31.6315 64.5823 33.5686 64.5823 35.5057 64.5823C35.5057 62.54 35.5057 60.5486 35.5057 58.5181ZM29.6573 27.3994C29.6573 29.469 29.6573 31.4741 29.6573 33.5085C31.6159 33.5085 33.5393 33.5085 35.4842 33.5085C35.4842 31.4545 35.4842 29.4338 35.4842 27.3994C33.5275 27.3994 31.6178 27.3994 29.6573 27.3994Z" fill="black"/>
<rect x="44" y="33" width="33" height="33" rx="4" fill="white"/>
<path d="M60.4635 66.0664C56.1823 66.0664 51.9002 66.0691 47.619 66.0655C45.7711 66.0636 44.3546 64.8702 44.0415 63.0578C44.0087 62.8684 44.0023 62.6727 44.0023 62.4806C44.0005 53.8536 43.9978 45.2274 44.0032 36.6004C44.0041 34.7543 45.2167 33.3378 47.0282 33.0356C47.2394 33.0001 47.4579 33.0019 47.6736 33.0019C56.2251 33.0001 64.7766 32.9992 73.3281 33.001C75.481 33.001 76.9967 34.513 76.9976 36.6714C77.0012 45.2411 77.0003 53.8108 76.9976 62.3814C76.9967 64.5598 75.4847 66.0655 73.3081 66.0664C69.0269 66.0673 64.7457 66.0664 60.4635 66.0664ZM44.9445 49.535C44.9445 53.8144 44.9427 58.0929 44.9454 62.3723C44.9463 64.03 46.0205 65.1196 47.6654 65.1196C56.2169 65.1233 64.7684 65.1233 73.3199 65.1196C74.9712 65.1187 76.0518 64.0373 76.0527 62.3841C76.0554 53.8144 76.0554 45.2447 76.0527 36.675C76.0518 35.0219 74.9721 33.945 73.3163 33.945C64.7757 33.9423 56.236 33.9432 47.6955 33.9459C47.4697 33.9459 47.2376 33.9495 47.0182 33.9951C45.7519 34.259 44.9472 35.2923 44.9463 36.6623C44.9427 40.9535 44.9445 45.2447 44.9445 49.535Z" fill="black"/>
<path d="M48.2043 49.5306C48.1998 42.9508 53.4077 37.2049 60.5091 37.2095C67.6032 37.214 72.7974 42.9536 72.7929 49.5151C72.7883 56.3279 67.2891 61.9054 60.5045 61.8663C53.4305 61.8253 48.2007 56.1395 48.2043 49.5306ZM58.5146 38.3528C53.5743 39.143 49.0164 43.6381 49.1529 49.7636C49.2949 56.1377 54.2352 60.0984 58.5137 60.7002C58.5137 60.4589 58.5091 60.2213 58.5146 59.9837C58.531 59.2792 58.998 58.7712 59.698 58.7366C60.2305 58.7111 60.7658 58.7111 61.2983 58.7366C61.9984 58.7703 62.4672 59.2782 62.4845 59.981C62.4908 60.2241 62.4854 60.468 62.4854 60.7175C67.4921 59.8854 71.8999 55.4176 71.848 49.4578C71.7943 43.2085 67.0306 39.051 62.4854 38.3565C62.4854 38.6086 62.4917 38.8562 62.4845 39.1029C62.4644 39.7711 62.0056 40.2863 61.3475 40.3228C60.7822 40.3546 60.2114 40.3537 59.6461 40.3218C59.0025 40.2854 58.5401 39.7747 58.5173 39.1302C58.5073 38.8817 58.5146 38.6323 58.5146 38.3528ZM61.5414 38.2072C60.8359 38.2072 60.1641 38.2072 59.4595 38.2072C59.4595 38.5176 59.4549 38.7989 59.4604 39.0802C59.4649 39.3114 59.6161 39.397 59.82 39.3997C60.2733 39.4052 60.7257 39.4052 61.1791 39.3997C61.3839 39.397 61.5341 39.3087 61.5386 39.0793C61.5459 38.7989 61.5414 38.5176 61.5414 38.2072ZM61.5414 60.8722C61.5414 60.5554 61.5423 60.2851 61.5414 60.0147C61.5405 59.7926 61.4203 59.6724 61.2064 59.6697C60.7303 59.6624 60.2533 59.6497 59.7799 59.6815C59.6679 59.6888 59.4923 59.8508 59.4759 59.9619C59.4322 60.2468 59.4613 60.5427 59.4613 60.8513C59.5815 60.8604 59.6689 60.8722 59.7572 60.8722C60.3343 60.8731 60.9096 60.8722 61.5414 60.8722Z" fill="black"/>
<path d="M67.4075 53.4594C67.4148 54.5891 66.5072 55.5076 65.3848 55.5067C64.2869 55.5058 63.3702 54.5827 63.3702 53.4794C63.3702 52.3743 64.276 51.4612 65.3829 51.4503C66.4844 51.4385 67.4002 52.3479 67.4075 53.4594ZM65.403 52.3961C64.8122 52.3925 64.3188 52.8831 64.3179 53.4758C64.317 54.0693 64.8113 54.5645 65.3993 54.559C65.9892 54.5536 66.4781 54.0538 66.4699 53.4621C66.4626 52.8904 65.9728 52.3998 65.403 52.3961Z" fill="black"/>
<path d="M57.6307 53.4557C57.6407 54.5727 56.7195 55.5048 55.6034 55.5048C54.4992 55.5057 53.5953 54.5963 53.5925 53.4812C53.5889 52.367 54.4801 51.4639 55.5952 51.4494C56.6885 51.4357 57.6207 52.3542 57.6307 53.4557ZM55.5898 54.5599C56.1787 54.5699 56.6767 54.082 56.6831 53.4876C56.6894 52.9122 56.217 52.4179 55.6417 52.397C55.0563 52.3761 54.5475 52.8594 54.5302 53.453C54.5129 54.0392 55.0017 54.549 55.5898 54.5599Z" fill="black"/>
<path d="M62.519 45.1041C62.529 46.2211 61.6078 47.1533 60.4917 47.1533C59.3875 47.1542 58.4836 46.2448 58.4808 45.1296C58.4772 44.0154 59.3684 43.1124 60.4835 43.0978C61.5768 43.0842 62.509 44.0027 62.519 45.1041ZM60.4781 46.2084C61.0671 46.2184 61.565 45.7304 61.5714 45.136C61.5777 44.5607 61.1053 44.0664 60.53 44.0454C59.9446 44.0245 59.4358 44.5079 59.4185 45.1014C59.4012 45.6877 59.89 46.1974 60.4781 46.2084Z" fill="black"/>
</svg>
