<svg width="120" height="100" viewBox="0 0 120 100" fill="none" xmlns="http://www.w3.org/2000/svg">
<rect width="120" height="100" fill="white"/>
<path d="M100.736 64.6889C100.439 65.9613 100.266 67.28 99.8241 68.4976C97.7954 74.0737 93.8203 77.499 88.0799 78.8746C76.3883 81.6785 64.5325 82.4726 52.5566 81.7901C45.6954 81.3983 38.9122 80.4524 32.2576 78.7482C25.8809 77.1177 21.7605 73.0183 20.3996 66.5764C19.0388 60.1302 21.1875 54.7606 26.3296 50.6338C26.7215 50.3178 26.8773 50.0081 26.8731 49.511C26.8521 46.5617 26.8415 43.6125 26.8689 40.6633C26.9363 33.3619 31.6129 27.4698 38.6173 25.9172C39.7865 25.6581 41.0125 25.5844 42.2133 25.5591C44.6822 25.5065 47.1532 25.5423 49.6242 25.5423C49.9044 25.5423 50.1825 25.5423 50.3615 25.5423C50.1087 24.5311 49.7169 23.5853 49.6642 22.6225C49.502 19.6818 51.6065 17.3118 54.5389 17.0801C56.0514 16.9622 57.6039 16.861 58.9816 17.7332C59.4662 18.0386 59.898 18.4262 60.431 18.8349C62.0867 16.7915 64.4229 16.8947 66.7486 17.1096C69.1775 17.335 71.0081 19.3974 71.1113 21.8389C71.164 23.0923 71.065 24.3057 70.2982 25.5423C70.7174 25.5423 70.9892 25.5402 71.263 25.5423C74.3365 25.576 77.4184 25.477 80.4814 25.6729C87.4015 26.1153 93.4559 32.2854 93.7887 39.2308C93.953 42.6456 93.8666 46.0751 93.8688 49.4983C93.8688 49.9891 93.9994 50.3115 94.4059 50.6232C97.9197 53.3049 99.9631 56.8587 100.591 61.2362C100.62 61.4426 100.69 61.6407 100.74 61.8429C100.736 62.7929 100.736 63.7409 100.736 64.6889ZM60.3678 34.5521C54.9286 34.5521 49.4915 34.5374 44.0523 34.5563C38.9502 34.5732 35.4617 38.0174 35.2721 43.1175C35.1499 46.4016 33.631 48.8727 30.7766 50.5053C30.1847 50.8444 29.5674 51.1393 28.9755 51.4785C24.2252 54.2107 21.6762 59.5046 22.3587 65.2071C22.976 70.3598 26.8984 74.9816 31.9921 76.3846C37.2164 77.8234 42.5566 78.6681 47.9411 79.2138C54.7769 79.9047 61.6275 79.97 68.4823 79.5592C75.1813 79.1569 81.7959 78.1794 88.3032 76.5321C95.9269 74.6024 100.336 66.4394 97.8207 58.9737C96.5841 55.3041 94.1932 52.6139 90.7194 50.9181C87.2688 49.235 85.5014 46.507 85.4235 42.6498C85.4087 41.8746 85.2486 41.0762 85.0064 40.3347C83.8372 36.7514 80.6815 34.5669 76.6811 34.5542C71.2441 34.5395 65.807 34.5521 60.3678 34.5521ZM91.5979 48.8537C91.6295 48.6241 91.6632 48.4977 91.6632 48.3692C91.661 45.6327 91.6695 42.8942 91.6463 40.1577C91.6294 38.2049 91.1702 36.3427 90.2265 34.6364C87.6986 30.0588 83.7719 27.7837 78.575 27.7668C70.195 27.7394 61.815 27.7584 53.435 27.7584C49.679 27.7584 45.9208 27.7457 42.1648 27.7605C34.579 27.7921 29.0998 33.2797 29.0724 40.8655C29.064 43.2354 29.0703 45.6032 29.0703 47.9731C29.0703 48.2301 29.0703 48.4872 29.0703 48.8706C31.2274 47.91 32.4998 46.3869 32.9253 44.2024C33.0897 43.3576 33.0307 42.4687 33.1592 41.6155C33.9934 36.1278 38.2718 32.3971 43.8143 32.3486C47.7283 32.3149 51.6423 32.3423 55.5563 32.3423C62.6492 32.3423 69.7421 32.3234 76.8349 32.3486C82.43 32.3697 86.7211 36.0878 87.5701 41.6155C87.7007 42.4708 87.6438 43.3576 87.8081 44.2024C88.2294 46.3911 89.5229 47.8994 91.5979 48.8537ZM61.4906 25.5359C63.1695 25.5359 64.7431 25.5991 66.3083 25.5022C66.8876 25.4664 67.5217 25.1589 67.9936 24.7965C68.9247 24.0824 68.9542 22.9996 68.8973 21.9232C68.8236 20.5581 67.8756 19.45 66.5211 19.3131C65.6406 19.2246 64.7389 19.2288 63.8563 19.3131C62.605 19.4332 61.5896 20.4464 61.5074 21.6914C61.4274 22.9427 61.4906 24.2004 61.4906 25.5359ZM59.2365 25.5065C59.2365 24.1919 59.3124 22.9069 59.2155 21.6367C59.1207 20.4127 58.1158 19.4374 56.894 19.3215C56.0409 19.2415 55.1582 19.2352 54.3135 19.3573C52.8557 19.5701 51.8214 20.9394 51.8382 22.4603C51.8551 23.956 52.9653 25.3758 54.4104 25.4791C55.9924 25.5928 57.5892 25.5065 59.2365 25.5065Z" fill="black"/>
</svg>
