<svg width="120" height="100" viewBox="0 0 120 100" fill="none" xmlns="http://www.w3.org/2000/svg">
<rect width="120" height="100" fill="white"/>
<path d="M28.1767 66.2554C25.2972 65.0014 23.0231 63.1589 22.2393 59.9418C21.7666 58.0053 22.0247 56.0905 22.7457 54.2794C24.9692 48.6869 28.3985 43.9722 33.2169 40.3235C33.7306 39.9328 33.8825 39.5686 33.9018 38.9247C33.95 37.4609 33.9741 35.9512 34.3479 34.5501C36.4653 26.6111 40.9678 20.2155 47.3248 15.0957C49.0466 13.709 50.9711 12.6455 53.1633 12.1777C56.9422 11.3722 59.2815 13.4148 59.759 16.0989C59.7831 16.2316 59.882 16.3497 59.935 16.4534C60.9358 16.152 61.8667 15.783 62.8338 15.6045C63.8298 15.4189 64.8643 15.3224 65.8748 15.3586C68.3322 15.4454 70.0951 17.0587 70.5316 19.4776C70.9223 21.6456 70.3531 23.6689 69.5187 25.6151C67.1891 31.0509 63.4005 35.3531 58.8908 39.0742C58.2035 39.641 57.4752 40.1571 56.7276 40.7238C58.1866 42.4746 58.9583 44.4618 59.2236 46.7118C59.6215 46.7118 59.9471 46.7118 60.2751 46.7118C62.8314 46.7118 65.3901 46.7287 67.9464 46.707C70.4014 46.6877 72.8106 47.0132 75.1474 47.7391C76.9995 48.3155 78.8082 49.0366 80.6434 49.6949C84.0269 43.7962 91.0061 43.2294 95.2192 46.7624C97.3341 48.535 98.4965 50.8236 98.6364 53.5704C98.81 56.9973 97.433 59.7513 94.7176 61.8663C96.437 64.6517 97.4813 67.6083 97.8334 70.8423C98.5665 77.5562 95.4603 82.6977 89.1395 85.0635C85.1049 86.5756 80.8846 86.9566 76.6354 86.9711C63.0074 87.0169 49.3819 86.9952 35.7539 86.9928C35.3343 86.9928 34.9098 86.9711 34.4999 86.8963C32.2691 86.4887 31.0272 84.9718 31.3672 82.7315C31.5264 81.6824 32.0666 80.6358 32.6429 79.7194C33.2265 78.7933 34.0682 78.0288 34.8278 77.1558C31.7675 74.4114 30.0215 71.0328 29.872 66.8704C29.2932 66.6654 28.7217 66.4917 28.1767 66.2554ZM40.9196 66.417C38.356 67.0561 35.766 67.6131 32.9323 67.4636C33.0264 68.093 33.0674 68.708 33.2145 69.2988C33.7836 71.5899 35.0521 73.4468 36.7764 75.0336C37.2322 75.4533 37.5337 75.2868 37.9436 75.0288C40.6253 73.3431 43.5554 72.4629 46.7243 72.4002C47.7589 72.3809 48.4124 72.8849 48.4655 73.6976C48.5209 74.532 47.8746 75.1108 46.787 75.1542C42.0554 75.3423 38.2644 77.4163 35.192 80.9324C35.0135 81.135 34.782 81.3327 34.7024 81.5739C34.4806 82.2323 34.114 82.9606 34.2394 83.5683C34.2997 83.8601 35.3439 84.1013 35.9468 84.1061C41.7829 84.1447 47.619 84.1302 53.4526 84.1302C53.7469 84.1302 54.0435 84.1302 54.4462 84.1302C53.9784 80.8215 56.0885 78.897 58.177 77.0208C60.9262 74.5465 64.1553 73.0296 67.8475 72.5593C67.9898 72.5424 68.1248 72.4846 68.3105 72.4339C67.9005 70.3503 67.7703 68.3004 68.3274 66.2506C69.8274 60.7304 76.0084 57.7666 81.6298 60.2047C82.4763 60.5713 82.8115 61.3116 82.5245 62.0182C82.1917 62.8406 81.432 63.0769 80.4023 62.679C76.1265 61.0246 71.9376 63.0866 70.9416 67.343C70.5702 68.9323 70.7197 70.5119 71.1128 72.0746C71.7784 74.7057 71.6168 74.9733 68.9448 75.2193C64.3651 75.6414 60.7719 77.8287 57.8924 81.3183C57.7959 81.434 57.6681 81.5474 57.6344 81.6824C57.468 82.3311 57.1135 83.0426 57.2654 83.6141C57.345 83.9131 58.3361 84.1061 58.9173 84.1085C65.1127 84.135 71.3106 84.1615 77.506 84.0892C80.846 84.0506 84.1692 83.7082 87.3766 82.6615C91.8164 81.2097 94.7296 78.4292 95.1782 73.5601C95.4507 70.6108 94.855 67.8061 93.5286 65.175C91.0833 60.3253 87.2705 56.7633 82.6981 53.9779C77.7736 50.9779 72.4778 49.2416 66.6248 49.4562C64.1674 49.5454 61.7027 49.4707 59.3249 49.4707C56.6963 59.0351 50.086 64.1284 40.9196 66.417ZM52.0274 57.2167C54.1375 54.9329 55.7726 52.3525 56.3176 49.2271C56.8168 46.3718 56.1392 43.8613 53.9422 41.8548C52.8039 40.8154 52.9052 39.9135 54.2316 39.0429C59.2236 35.7607 63.1955 31.5211 66.1063 26.3072C67.0468 24.6215 67.78 22.8418 67.8596 20.8667C67.9464 18.7035 66.8515 17.6882 64.6835 17.939C62.267 18.2187 60.1231 19.2268 58.107 20.5097C52.8087 23.8812 48.533 28.2462 45.5522 33.7977C44.9204 34.9721 44.5418 36.2937 44.1222 37.5694C43.8979 38.2495 43.6181 38.809 42.8705 38.944C38.0546 39.8074 34.3142 42.4674 31.1309 46.0197C28.7675 48.658 26.8527 51.6073 25.5167 54.8919C23.9467 58.7457 25.1549 61.7216 28.9291 63.5014C30.6124 64.2948 32.397 64.6637 35.0545 64.6372C40.9316 63.9692 47.2428 62.3944 52.0274 57.2167ZM41.1728 36.489C41.3778 36.4167 41.59 36.1731 41.6696 35.9609C44.4863 28.456 49.693 22.9527 56.2284 18.5684C56.8217 18.1705 57.4004 17.8932 57.1448 17.0009C56.8626 16.0218 56.6094 14.9269 55.4374 14.8304C54.492 14.7533 53.4454 14.91 52.5628 15.2645C49.6568 16.4293 47.3633 18.484 45.287 20.7606C41.4742 24.9374 38.4477 29.587 37.0441 35.1506C36.9115 35.6739 36.8271 36.2093 36.7523 36.7422C36.6944 37.1522 36.6824 37.5718 36.6486 38.0276C38.2354 37.4922 39.7113 37.0123 41.1728 36.489ZM95.7449 52.3212C95.0021 49.5599 92.4892 47.5341 89.564 47.3412C86.9257 47.1676 84.1909 48.7858 83.1997 51.1708C86.9932 53.3413 90.3477 56.0712 93.0873 59.4981C95.4386 57.9089 96.478 55.0487 95.7449 52.3212Z" fill="black"/>
<path d="M38.8504 51.4095C38.8504 51.0212 38.9058 50.6209 38.8383 50.2447C38.7009 49.4706 38.2137 49.0075 37.4082 49.0317C36.6389 49.0534 36.1783 49.5236 36.1108 50.2712C36.0457 50.9851 36.0481 51.7109 36.0987 52.4272C36.1566 53.252 36.7619 53.8042 37.4902 53.797C38.2209 53.7873 38.7853 53.2278 38.8624 52.4007C38.8938 52.0727 38.8673 51.7423 38.8673 51.4119C38.8624 51.4095 38.8552 51.4095 38.8504 51.4095Z" fill="black"/>
</svg>
