<svg width="120" height="100" viewBox="0 0 120 100" fill="none" xmlns="http://www.w3.org/2000/svg">
<rect width="120" height="100" fill="white"/>
<path d="M12 56.3218C12.9997 54.1527 14.0425 52.0039 14.9815 49.8095C15.751 48.0125 16.4293 46.175 17.0899 44.3324C19.7778 36.8381 25.3156 32.8239 33.2579 32.581C33.9033 32.5607 34.5918 32.3 35.1638 31.976C36.204 31.3838 37.1633 30.6549 38.1681 29.9968C39.1729 29.3387 39.8132 29.3362 40.5751 30.26C41.2179 31.037 41.9241 31.1383 42.734 30.827C44.1742 30.2777 45.5915 29.6728 47.0064 29.0578C49.6892 27.8885 52.3316 26.628 55.0499 25.5524C56.0496 25.1575 57.2089 25.1069 58.3048 25.0284C59.9246 24.912 60.3954 25.3701 60.5599 27.071C61.3774 26.7318 62.1646 26.3851 62.9669 26.0788C63.8198 25.7548 64.6753 25.4207 65.5536 25.1828C67.0924 24.7677 67.5657 25.0259 68.1124 26.3041C71.3977 26.7242 74.6095 26.9874 77.7632 27.5696C85.017 28.9059 90.2461 33.0492 93.6351 39.5665C95.0348 42.2545 96.3787 44.9728 97.7733 47.6658C98.0163 48.1315 98.3327 48.5845 98.7022 48.9566C101.836 52.1254 104.992 55.2714 108.138 58.4276C109.145 59.4375 109.216 59.8399 108.629 61.1079C106.432 65.8536 101.284 67.4026 96.5711 64.7349C94.688 63.6693 93.258 62.1203 91.9976 60.3993C91.3268 59.4805 90.6435 58.5618 90.079 57.5797C89.0464 55.7776 87.6366 54.4185 85.8649 53.3428C85.1157 52.8872 84.6602 52.8391 84.1641 53.5554C84.0578 53.7073 83.9186 53.8338 83.749 54.0237C84.9284 55.6055 86.1383 57.1444 87.2393 58.7541C87.5632 59.2274 87.7708 59.931 87.7126 60.498C87.2823 64.8083 86.771 69.1085 86.2851 73.4112C86.1433 74.6665 85.6548 75.112 84.3691 75.1145C81.0864 75.1196 77.8011 75.1247 74.5184 75.1145C72.8682 75.1095 72.3544 74.135 72.9188 72.5962C73.7895 70.2246 75.1967 68.5871 77.8138 68.2454C78.5452 68.1492 78.73 67.7139 78.7047 66.99C78.649 65.3145 78.6895 65.3145 77.3228 64.7121C75.2018 67.8986 73.1188 71.0978 70.9396 74.2312C70.6232 74.6868 69.8664 75.0614 69.302 75.0766C66.4622 75.1626 63.6199 75.1272 60.7776 75.1095C59.259 75.0993 58.6212 74.0616 59.2564 72.6848C59.2817 72.6266 59.3248 72.5759 59.3425 72.5177C60.0891 70.1133 61.6305 68.6174 64.1717 68.2378C64.5083 68.1872 64.8297 68.0201 65.1562 67.9088C66.3028 67.519 66.4318 67.2709 66.0978 66.1117C65.3233 63.4112 64.5766 60.7005 63.7515 58.0151C63.6148 57.5696 63.1592 57.2102 62.815 56.8457C62.6708 56.6939 62.4354 56.6255 62.2405 56.5218C60.074 55.3575 60.0233 55.3575 57.6822 56.4914C57.8796 57.7164 58.0162 58.9743 58.2896 60.1993C58.8818 62.8518 59.0691 65.4765 58.4212 68.1619C57.9935 69.9386 57.791 71.7711 57.4771 73.5757C57.2848 74.6843 56.7988 75.1095 55.6877 75.112C52.3417 75.1221 48.9932 75.1247 45.6472 75.112C44.0729 75.1044 43.4528 74.0642 44.1337 72.6266C44.2552 72.3709 44.4197 72.1279 44.5083 71.8622C45.1081 70.0728 46.2977 68.9364 48.0491 68.2024C48.6616 67.9467 49.0286 67.071 49.4589 66.4458C49.5298 66.3421 49.4032 66.0232 49.2817 65.8764C48.1883 64.5704 47.0747 63.2821 45.9965 62.0216C45.222 62.3507 44.531 62.824 43.7945 62.9126C42.8758 63.0239 42.4252 62.2874 42.2202 61.2547C41.9393 61.6268 41.7343 61.8799 41.547 62.1482C38.7932 66.0839 36.0294 70.012 33.306 73.968C32.7492 74.7779 32.1063 75.1449 31.1091 75.1297C27.92 75.0842 24.731 75.1044 21.5419 75.1196C20.8028 75.1221 20.1574 75.0006 19.7651 74.292C19.3652 73.5656 19.6816 72.9632 20.0891 72.3633C20.9572 71.0801 21.8178 69.7944 22.6555 68.4934C23.0883 67.8202 23.6477 67.5013 24.4627 67.5089C25.5561 67.519 26.8697 67.8025 27.6847 67.3038C28.4667 66.8255 28.811 65.5321 29.2058 64.5425C30.5346 61.2067 31.8001 57.8429 33.0909 54.4919C33.0225 54.4008 32.9542 54.3071 32.8859 54.216C32.61 54.259 32.2557 54.2059 32.0709 54.3577C29.3475 56.6205 26.042 57.3545 22.6884 57.7898C19.879 58.1543 17.0291 58.1922 14.1994 58.415C13.268 58.4884 12.5416 58.2277 12 57.4608C12 57.0811 12 56.7015 12 56.3218ZM83.3972 72.0444C83.7945 68.4403 84.1565 64.9196 84.5893 61.4091C84.688 60.6144 84.4881 60.0373 84.0097 59.4299C82.8556 57.967 81.7546 56.461 80.651 54.9576C80.0284 54.1097 80.0284 53.4415 80.6966 52.7404C81.6533 51.7331 82.6455 50.7561 83.6427 49.7867C84.202 49.2426 84.8728 49.1059 85.546 49.5412C88.2365 51.2876 91.0003 52.8948 92.643 55.8966C93.587 57.6202 94.9234 59.1515 96.2117 60.66C97.3051 61.9406 98.7933 62.6595 100.479 62.9126C102.721 63.2492 104.807 62.1507 105.594 60.1538C104.159 58.7263 102.694 57.2887 101.253 55.8257C100.795 55.36 100.438 55.5372 100.188 55.9624C100.006 56.2712 99.9677 56.6736 99.8994 57.0406C99.7171 58.0252 98.8439 58.6301 97.9682 58.3365C97.219 58.0859 96.8697 57.5316 96.8799 56.7445C96.9001 55.3043 97.5202 54.1451 98.6642 53.1581C98.0137 52.538 97.419 51.971 96.8267 51.4041C96.2218 50.8245 95.7308 50.9358 95.4625 51.7483C95.3663 52.0419 95.3992 52.3785 95.3106 52.6772C95.0879 53.4263 94.5766 53.8718 93.7819 53.8364C92.9922 53.8009 92.4911 53.3302 92.362 52.5531C92.3013 52.1887 92.3519 51.7938 92.4126 51.4243C92.6379 50.0247 93.4377 49.0123 94.6779 48.2935C94.154 47.2456 93.6655 46.2686 93.134 45.2082C92.0203 45.8763 90.9978 46.4534 90.8054 47.8328C90.6688 48.8072 89.9854 49.3742 89.1502 49.2856C88.2719 49.1945 87.7227 48.4656 87.7986 47.4405C87.8897 46.2231 88.3858 45.1651 89.2641 44.34C90.0158 43.6364 90.8611 43.034 91.6888 42.3658C91.4736 41.9634 91.2484 41.5509 91.0307 41.1332C88.0795 35.4688 83.587 31.728 77.2595 30.5992C73.8907 29.9993 70.4308 29.9082 67.019 29.5387C66.4622 29.4779 65.8016 29.3109 65.427 28.9464C65.0297 28.5617 64.7842 28.5845 64.3792 28.7693C62.8327 29.4779 61.2863 30.1942 59.7272 30.8725C58.5478 31.3863 57.5455 30.751 57.4771 29.4729C57.4544 29.0679 57.4746 28.663 57.4746 28.0935C56.5407 28.3162 55.6751 28.3972 54.9208 28.7288C52.5898 29.7589 50.2865 30.8599 47.9985 31.9836C45.8345 33.0492 43.6452 34.0287 41.1876 34.0768C40.6738 34.0869 40.0436 33.8743 39.6614 33.5427C39.1653 33.1099 38.8489 33.1226 38.3832 33.4997C36.6065 34.9373 34.6854 36.0004 32.281 35.7473C32.0355 35.7219 31.7798 35.7903 31.5267 35.8156C26.0268 36.3522 21.6684 39.9006 20.0132 45.1575C19.8588 45.646 19.9499 45.9118 20.4055 46.1396C21.4457 46.6635 22.4834 46.7749 23.6047 46.38C24.4601 46.0763 25.227 46.4711 25.5308 47.2557C25.8294 48.0277 25.4776 48.8199 24.65 49.1945C24.364 49.3236 24.0577 49.4096 23.754 49.4881C22.0177 49.9335 20.3827 49.5817 18.7578 48.7364C17.8061 50.9384 16.8773 53.0872 15.9003 55.3474C17.0645 55.2841 18.0744 55.2537 19.0767 55.1677C22.162 54.9019 25.2473 54.5628 28.0997 53.2542C28.9299 52.8746 29.6057 52.1608 30.3751 51.6293C30.813 51.3256 31.2711 50.913 31.7596 50.8472C33.5566 50.5992 35.2372 49.1363 35.6194 47.2962C34.2476 46.952 32.853 46.6736 31.5141 46.2256C31.0205 46.0611 30.4181 45.5549 30.3042 45.0968C30.1903 44.6437 30.4915 43.9148 30.8535 43.5453C31.6507 42.7354 31.833 41.852 31.6533 40.7257C30.8864 41.0042 30.1828 41.2674 29.4741 41.5129C28.4212 41.8799 27.6062 41.5787 27.2721 40.7156C26.9431 39.8677 27.3759 39.0705 28.4136 38.6731C29.5905 38.2226 30.775 37.7872 31.9621 37.362C33.2301 36.909 33.959 37.2785 34.3463 38.5516C34.8702 40.2803 34.9689 42.0166 34.3387 43.8262C35.589 44.1426 36.776 44.4286 37.9555 44.75C39.0843 45.0563 39.593 45.8283 39.1248 46.8887C38.444 48.4352 37.5708 49.8956 36.7659 51.3838C36.6444 51.6116 36.4521 51.8014 36.2521 52.0571C38.2187 52.6189 40.0537 53.2087 41.9216 53.6516C43.1668 53.9477 43.8072 54.6184 44.0248 55.8612C44.2071 56.9014 44.5285 57.9189 44.7917 58.9667C46.2521 58.2099 46.7204 58.2175 47.4847 59.0958C49.1653 61.0244 50.851 62.9556 52.4582 64.945C52.7619 65.3195 52.9517 66.0763 52.7846 66.4914C51.957 68.5668 51.1344 70.7055 48.6287 71.3864C48.3554 71.4598 48.1352 71.7255 47.6948 72.0394C50.1929 72.0394 52.3949 72.0394 54.6728 72.0394C55.0398 69.8399 55.4194 67.6658 55.7586 65.4841C55.8446 64.9348 55.8826 64.3527 55.7965 63.806C55.3865 61.151 54.9259 58.5061 54.4931 55.8561C54.3235 54.8209 54.6677 54.2185 55.6573 53.8743C57.0266 53.3985 58.3934 52.8974 59.793 52.5304C60.3144 52.3937 60.9851 52.4721 61.4837 52.6923C62.605 53.1859 63.6629 53.8313 64.7462 54.416C69.9373 57.2153 75.1208 60.0348 80.3321 62.8012C81.3572 63.3454 81.8254 64.0363 81.7444 65.2056C81.666 66.3066 81.7292 67.4177 81.7267 68.5263C81.7242 69.8779 81.4837 70.212 80.1803 70.6574C79.1957 70.9941 78.2061 71.313 77.2241 71.6547C77.0519 71.7154 76.9001 71.8394 76.5457 72.0444C78.9553 72.0444 81.1269 72.0444 83.3972 72.0444ZM35.9408 55.1297C35.7788 55.565 35.632 55.9093 35.5232 56.2687C34.1514 60.8118 32.5088 65.2411 30.1979 69.4071C29.7651 70.1841 29.2362 70.6093 28.3301 70.5688C27.5429 70.5334 26.7507 70.5613 25.9636 70.5613C24.7791 70.5613 24.4728 70.8144 24.1564 72.0799C26.1534 72.0799 28.1402 72.0596 30.1296 72.0925C30.694 72.1026 31.0408 71.9356 31.3673 71.4572C32.7694 69.3919 34.2172 67.3595 35.6472 65.3119C37.3835 62.8265 39.1223 60.3385 40.856 57.8505C41.3951 57.076 41.304 56.6863 40.4991 56.4433C39.0185 56.0004 37.5328 55.5853 35.9408 55.1297ZM63.0909 71.8242C63.1061 71.9078 63.1188 71.9887 63.1339 72.0723C64.9411 72.0723 66.7508 72.0799 68.5579 72.0596C68.7047 72.0571 68.897 71.8976 68.9882 71.7584C70.6586 69.2654 72.3443 66.7799 73.9439 64.2413C74.1539 63.9072 74.0831 62.9834 73.8426 62.8417C71.7647 61.6141 69.6158 60.503 67.3202 59.2654C67.4493 59.7539 67.5252 60.05 67.6088 60.3436C68.2187 62.5 68.8591 64.6488 69.4184 66.8204C69.5399 67.2937 69.55 67.9898 69.2868 68.3289C68.482 69.3616 67.6467 70.4043 66.2496 70.7663C65.179 71.0447 64.1413 71.4648 63.0909 71.8242Z" fill="black"/>
</svg>
