<svg width="120" height="100" viewBox="0 0 120 100" fill="none" xmlns="http://www.w3.org/2000/svg">
<rect width="120" height="100" fill="white"/>
<path d="M105 53.2867C104.765 53.7845 104.549 54.2941 104.293 54.7803C103.436 56.396 102.036 57.178 100.289 57.3118C100.214 58.1267 100.113 58.8946 100.092 59.6673C100.085 59.9138 100.249 60.2027 100.416 60.4094C101.174 61.3464 101.689 62.3891 101.726 63.6008C101.764 64.8572 101.813 66.1254 101.689 67.3724C101.44 69.8828 99.5094 71.8014 97.0037 72.1044C88.1714 73.1729 79.3367 74.2226 70.502 75.2841C60.9417 76.4325 51.3814 77.5855 41.821 78.7316C35.8937 79.4431 29.9663 80.1711 24.0366 80.8498C20.5727 81.2467 17.8556 78.7832 17.8204 75.2865C17.8134 74.5256 17.8486 73.7624 17.8134 73.0015C17.7288 71.2754 18.2337 69.7677 19.3985 68.4902C19.7578 68.0957 19.9269 67.7622 19.6216 67.1939C19.3727 66.7313 19.3774 66.1324 19.2647 65.557C18.6752 65.395 18.0106 65.2776 17.3977 65.0357C15.1432 64.1457 14.3448 61.9617 15.58 59.881C16.0638 59.0661 16.719 58.3028 17.4447 57.6923C18.06 57.1756 18.0576 56.7341 17.9942 55.9991C17.8486 54.2894 17.8063 52.5469 17.9778 50.8443C18.0646 49.9731 18.5555 49.0408 19.1144 48.3363C25.9013 39.7834 32.7187 31.2493 39.576 22.7458C42.4645 19.1621 46.9805 18.0724 51.4002 19.8126C60.5683 23.4244 69.7224 27.0668 78.8811 30.6974C85.1607 33.1867 91.438 35.6737 97.7153 38.1653C100.648 39.3301 101.78 40.9858 101.766 44.1303C101.762 45.2105 101.663 46.2908 101.644 47.3734C101.639 47.5871 101.745 47.8924 101.907 48.0051C103.283 48.9539 104.364 50.1398 105 51.7038C105 52.2322 105 52.7606 105 53.2867ZM99.7161 44.8395C99.9392 42.6743 99.3662 41.0046 97.1352 40.1239C81.6874 34.0298 66.2538 27.9005 50.8154 21.79C46.9312 20.2518 43.4555 21.1653 40.8512 24.4155C34.6772 32.1159 28.515 39.8233 22.3552 47.5331C19.4455 51.1755 19.934 50.0294 19.8894 54.8413C19.8894 54.9 19.8917 54.9587 19.894 55.0174C19.9739 56.9431 21.4792 58.3451 23.4119 58.2747C23.9075 58.2559 24.403 58.1901 24.8985 58.1291C31.0302 57.3964 37.1618 56.659 43.2935 55.9263C49.397 55.1983 55.5005 54.4797 61.6016 53.7493C68.1983 52.9602 74.7926 52.1547 81.3892 51.3657C86.4453 50.7598 91.5038 50.1774 96.5599 49.5621C98.5114 49.3249 99.6903 47.9558 99.7161 45.9808C99.7208 45.6027 99.7161 45.2199 99.7161 44.8395ZM100.616 49.5879C99.0304 51.0862 98.3799 51.408 96.3508 51.6616C93.8521 51.9716 91.3511 52.2628 88.8524 52.561C77.8361 53.8714 66.8174 55.1771 55.8011 56.4899C45.5409 57.7134 35.2761 58.9181 25.0206 60.191C22.907 60.454 20.9908 60.306 19.2882 58.6363C18.6353 59.3878 17.9496 60.0313 17.44 60.7922C16.712 61.8795 17.0407 62.7859 18.3018 63.1664C18.9829 63.3707 19.7766 63.5116 20.4483 63.3613C21.8925 63.0372 23.318 62.5793 24.7012 62.0438C27.3807 61.0059 29.7409 61.4168 31.8544 63.3519C32.3734 63.8263 32.8854 64.3147 33.4537 64.7234C35.1845 65.968 36.7814 65.8999 38.4135 64.5496C39.2026 63.8967 39.9541 63.1946 40.7643 62.5652C44.4982 59.6696 48.723 58.8312 53.2836 61.7855C54.4366 62.5323 55.6038 63.2721 56.8297 63.8873C58.9597 64.9559 60.991 64.6059 62.7053 62.9315C63.3324 62.321 63.8561 61.6047 64.4432 60.9518C66.2937 58.8876 68.5904 57.8707 71.3498 58.3827C72.7988 58.6528 74.1984 59.2281 75.5934 59.733C76.8568 60.1886 78.0615 60.8133 79.3367 61.2266C81.4573 61.9123 83.1787 61.3135 84.522 59.5381C84.9823 58.9322 85.3932 58.2888 85.8441 57.6758C87.1569 55.8957 88.8829 54.6605 91.0928 54.5055C92.8212 54.3834 94.5802 54.6347 96.3203 54.7756C97.6566 54.8836 98.9857 55.1677 100.322 55.203C101.597 55.2358 102.297 54.3364 102.762 53.2444C103.192 52.2346 102.703 51.4808 102.046 50.8068C101.618 50.3794 101.12 50.0154 100.616 49.5879ZM98.8542 61.8184C97.3959 63.3636 95.6228 64.3241 93.7136 65.0075C87.9178 67.0835 81.9199 67.9148 75.7765 67.8115C75.1307 67.7998 74.4403 67.9242 73.8438 68.1638C70.4245 69.5305 67.0241 70.949 63.6189 72.3557C62.1347 72.9686 60.5988 73.295 58.9925 73.1518C54.8852 72.7831 50.7778 72.3956 46.6728 72.0034C45.5714 71.8977 44.463 71.5854 43.3757 71.6441C40.722 71.7873 38.0777 72.2523 35.4264 72.3017C30.5581 72.3909 25.7815 71.8296 21.4041 69.3403C20.4342 70.2773 19.7954 71.3623 19.88 72.8042C19.9363 73.7671 19.8635 74.7393 19.9105 75.7021C19.9903 77.3859 21.3477 78.7363 23.0268 78.8067C23.5787 78.8302 24.1376 78.7668 24.6895 78.701C29.863 78.0881 35.0342 77.4611 40.2053 76.8458C46.3088 76.1178 52.4123 75.3968 58.5135 74.6688C65.1688 73.8727 71.8218 73.0672 78.4748 72.2711C84.4891 71.5502 90.5057 70.8386 96.5199 70.12C97.6894 69.9791 98.772 69.5118 99.2112 68.4057C100.033 66.3344 100.054 64.202 99.1196 62.1237C99.0867 62.0438 99.0069 61.9898 98.8542 61.8184ZM54.8476 65.4349C54.8288 65.3293 54.81 65.2212 54.7912 65.1156C53.4315 64.3241 52.0953 63.4858 50.7003 62.7578C50.0404 62.4125 49.2819 62.1707 48.5445 62.0744C45.926 61.7315 43.7467 62.7836 41.7741 64.3829C40.8183 65.1555 39.9094 65.9892 38.9255 66.7195C37.7724 67.5743 36.4831 67.8467 35.0271 67.5743C33.2001 67.2315 31.8404 66.1841 30.5628 64.9512C29.0293 63.4693 27.2985 63.1452 25.3259 64.0118C24.3654 64.4345 23.3744 64.7962 22.374 65.1132C21.2608 65.4655 21.0307 66.116 21.8831 66.9614C22.3716 67.4475 22.9587 67.8984 23.5881 68.1661C24.7928 68.6757 26.0328 69.1524 27.3032 69.4507C32.2466 70.6178 37.2323 70.5028 42.2179 69.7231C45.6325 69.19 49.0212 68.5254 52.1657 67.0178C53.0957 66.5692 53.9552 65.968 54.8476 65.4349ZM65.1195 63.4458C66.3313 63.8897 67.4139 64.4063 68.5576 64.6881C76.7699 66.7266 84.8226 65.7895 92.7273 63.1476C94.2162 62.6497 95.5853 61.7127 96.9074 60.825C97.7716 60.245 98.2624 59.2986 98.1685 58.169C98.1145 57.5138 97.8468 57.0864 97.1235 56.9924C96.1959 56.8727 95.2823 56.6637 94.3571 56.5251C91.2595 56.0625 88.6692 56.7952 86.9573 59.6485C86.612 60.2215 86.2081 60.7734 85.7572 61.2665C84.003 63.1946 81.8612 64.0095 79.278 63.3402C78.4349 63.1218 77.6106 62.8094 76.7981 62.4877C75.3867 61.9288 74.0176 61.2477 72.5827 60.7616C69.4288 59.6954 67.2049 60.4822 65.1195 63.4458ZM70.1991 67.4546C68.163 66.6491 66.0448 65.8013 63.9101 64.9887C63.7316 64.9206 63.4216 65.0568 63.229 65.186C61.4114 66.4001 59.4739 66.9074 57.3087 66.3132C57.0856 66.2522 56.7146 66.332 56.5572 66.4917C55.0801 67.99 53.2483 68.88 51.325 69.6221C50.799 69.8264 50.2659 70.0143 49.7351 70.2092C52.5016 70.639 55.2421 70.8644 57.9827 71.0734C59.6289 71.2003 61.2493 71.1321 62.8134 70.4816C65.1618 69.5024 67.529 68.5747 69.8867 67.6189C70.0652 67.5485 70.2273 67.4381 70.1991 67.4546Z" fill="black"/>
<path d="M24.4922 50.6279C24.2926 50.3837 23.8159 50.0526 23.7361 49.644C23.6022 48.9629 24.093 48.606 24.7788 48.5238C27.6274 48.1879 30.4736 47.8357 33.3222 47.4952C41.0508 46.5675 48.7794 45.6399 56.5103 44.717C64.5606 43.7565 72.6109 42.8031 80.6589 41.8449C84.7263 41.3611 88.7961 40.8727 92.8635 40.3819C93.7911 40.2691 94.336 40.5463 94.4299 41.2132C94.5238 41.8661 94.0541 42.2935 93.1289 42.4038C83.0754 43.6156 73.0242 44.8344 62.9707 46.0368C52.3936 47.3002 41.814 48.5472 31.2368 49.806C29.0834 50.062 26.9346 50.3297 24.4922 50.6279Z" fill="black"/>
</svg>
