<svg width="120" height="100" viewBox="0 0 120 100" fill="none" xmlns="http://www.w3.org/2000/svg">
<rect width="120" height="100" fill="white"/>
<path d="M34.9758 34.4105C34.5484 31.5283 34.7436 28.7633 35.77 26.1231C38.3262 19.5373 43.1461 15.6482 50.1534 15.0706C57.3168 14.4794 62.7669 17.6152 66.3477 23.8869C66.6599 24.4352 66.9096 24.5464 67.5185 24.3981C74.4048 22.7219 81.496 26.6226 83.863 33.3782C84.0698 33.9695 84.3157 34.1861 84.9733 34.1919C91.1962 34.2427 96.1448 39.1113 96.5058 45.4864C96.8414 51.438 92.2206 56.8491 86.1753 57.5672C85.6211 57.6335 85.0572 57.6335 84.4972 57.6335C68.9156 57.6374 53.3341 57.6413 37.7526 57.6335C31.799 57.6316 27.0728 53.7894 25.9683 48.0914C24.8229 42.1769 28.4231 36.3053 34.2187 34.6349C34.4489 34.5705 34.6772 34.5003 34.9758 34.4105ZM61.0751 55.6334C68.7185 55.6334 76.362 55.6353 84.0054 55.6314C84.5167 55.6314 85.0279 55.6139 85.5372 55.5788C89.4263 55.3056 92.7475 52.7044 93.9944 48.9637C95.2198 45.2873 94.1134 41.1836 91.2157 38.6352C89.1063 36.7794 86.6261 36.0789 83.861 36.1979C82.7605 36.2448 82.5302 36.0321 82.2668 35.0174C80.5086 28.2462 73.5462 24.4645 66.9116 26.6734C65.8598 27.0227 65.5359 26.8841 65.0793 25.8831C62.2147 19.5997 56.1499 16.2434 49.3514 17.1723C41.1869 18.2904 35.45 26.3885 37.0637 34.5198C37.3174 35.8018 37.0793 36.1511 35.8071 36.356C29.0807 37.4409 25.5547 45.2951 29.2408 51.0477C31.2604 54.1991 34.2147 55.6431 37.9282 55.6373C45.6419 55.6256 53.3595 55.6334 61.0751 55.6334Z" fill="black"/>
<path d="M53.6561 76.7099C52.7351 76.7431 52.2238 76.1304 52.3741 75.4981C52.4248 75.2874 52.5243 75.0864 52.6199 74.8913C54.6415 70.7622 56.6651 66.6331 58.6886 62.5041C58.7843 62.309 58.8506 62.0202 59.0106 61.948C59.3755 61.7821 59.8165 61.5811 60.1756 61.6533C60.679 61.7548 60.8527 62.2446 60.759 62.7597C60.7239 62.947 60.6263 63.1246 60.5424 63.2983C58.5033 67.4742 56.47 71.652 54.4054 75.8162C54.2122 76.2104 53.8298 76.5089 53.6561 76.7099Z" fill="black"/>
<path d="M64.5134 71.6011C64.3476 72.0109 64.2637 72.2646 64.1466 72.5007C62.1055 76.6746 60.0644 80.8466 58.0174 85.0166C57.5881 85.8889 56.8056 86.1718 56.3139 85.5825C56.0953 85.321 55.947 84.7571 56.0797 84.482C58.1891 80.0719 60.3454 75.6853 62.4997 71.2967C62.7358 70.8147 63.1924 70.602 63.6549 70.803C64.0002 70.9532 64.2461 71.3396 64.5134 71.6011Z" fill="black"/>
<path d="M69.6416 76.7409C69.0016 76.7779 68.4786 76.1711 68.623 75.5388C68.6718 75.3281 68.7713 75.1271 68.863 74.9281C70.7675 70.7463 72.674 66.5646 74.5844 62.3848C74.6839 62.1643 74.7658 61.8462 74.9415 61.7701C75.3044 61.614 75.8118 61.4189 76.0986 61.5633C76.3894 61.7096 76.5299 62.2326 76.643 62.617C76.6918 62.7809 76.5084 63.019 76.4186 63.218C74.5141 67.3998 72.6077 71.5815 70.7051 75.7652C70.4846 76.2472 70.2563 76.6999 69.6416 76.7409Z" fill="black"/>
<path d="M37.4267 76.7213C36.5252 76.7213 36.0568 76.1574 36.1817 75.5329C36.2247 75.3222 36.3203 75.1193 36.4159 74.9222C38.4531 70.7502 40.4923 66.5802 42.5334 62.4082C42.6075 62.256 42.6641 62.0296 42.787 61.9769C43.1598 61.8189 43.5832 61.5866 43.9442 61.6491C44.4476 61.7349 44.6428 62.213 44.5589 62.734C44.5296 62.9214 44.4457 63.1048 44.3598 63.2785C42.3109 67.4719 40.2659 71.6673 38.1897 75.8471C37.9984 76.2374 37.6023 76.5262 37.4267 76.7213Z" fill="black"/>
<path d="M48.3133 71.5879C48.1494 71.9997 48.0674 72.2533 47.9523 72.4894C45.9131 76.6634 43.872 80.8354 41.827 85.0074C41.4075 85.8621 40.7284 86.1255 40.1605 85.6552C39.6298 85.2162 39.7195 84.7049 39.9966 84.1449C41.4192 81.2666 42.8241 78.3806 44.2369 75.4984C44.9101 74.1227 45.5853 72.747 46.2585 71.3713C46.5063 70.8659 46.9376 70.5966 47.4469 70.8035C47.7923 70.942 48.0401 71.3284 48.3133 71.5879Z" fill="black"/>
<path d="M67.3311 61.6378C68.2209 61.6007 68.781 62.2427 68.5156 62.8983C67.9536 64.2916 67.3194 65.6556 66.6579 67.0059C66.4179 67.4957 65.9144 67.6401 65.4051 67.3884C64.8783 67.1289 64.6597 66.6703 64.9017 66.1142C65.4715 64.8029 66.0549 63.4935 66.6872 62.2115C66.8277 61.9266 67.1945 61.7548 67.3311 61.6378Z" fill="black"/>
<path d="M52.7428 62.4069C52.6609 62.7211 52.6492 62.846 52.5965 62.9533C51.9603 64.2646 51.3457 65.5876 50.6646 66.8755C50.3915 67.3926 49.8665 67.5253 49.3436 67.2326C48.8675 66.9653 48.6567 66.5164 48.9026 65.9915C49.5231 64.6724 50.1358 63.3455 50.8481 62.0791C51.0022 61.8039 51.6052 61.5951 51.9389 61.6634C52.2726 61.7298 52.5243 62.1864 52.7428 62.4069Z" fill="black"/>
<path d="M35.5202 81.0986C35.5065 81.1942 35.5163 81.3015 35.4773 81.3854C34.8197 82.7377 34.1855 84.1017 33.4791 85.4286C33.2215 85.9126 32.7064 86.0043 32.2068 85.7448C31.6975 85.4794 31.5277 84.9954 31.7502 84.5056C32.3512 83.1807 32.9991 81.8752 33.6645 80.5815C33.9045 80.1151 34.3904 79.9414 34.8489 80.1697C35.169 80.3297 35.3817 80.7005 35.6431 80.9756C35.6022 81.0166 35.5612 81.0576 35.5202 81.0986Z" fill="black"/>
<path d="M49.0509 85.8678C48.1748 85.8581 47.6557 85.2005 47.9425 84.5429C48.5338 83.1886 49.1992 81.8617 49.8841 80.5524C50.1437 80.0548 50.6627 79.967 51.1564 80.1953C51.6657 80.4314 51.8843 80.9153 51.6579 81.4129C51.0471 82.7613 50.3895 84.0882 49.6949 85.3937C49.5602 85.6473 49.1856 85.7722 49.0509 85.8678Z" fill="black"/>
<path d="M65.6159 85.9979C64.7046 86.0388 64.168 85.3695 64.4548 84.667C65.0051 83.3206 65.6217 81.9995 66.2598 80.6921C66.5233 80.1536 67.056 80.0482 67.575 80.298C68.0726 80.538 68.2814 81.0063 68.059 81.5234C67.4814 82.8581 66.8765 84.1831 66.2306 85.4886C66.1018 85.75 65.7447 85.8964 65.6159 85.9979Z" fill="black"/>
<path d="M81.1077 70.5005C80.9418 70.9103 80.8579 71.164 80.7409 71.4001C78.6997 75.574 76.6586 79.746 74.6117 83.9161C74.1824 84.7883 73.3999 85.0713 72.9081 84.4819C72.6896 84.2205 72.5413 83.6565 72.674 83.3814C74.7834 78.9713 76.9396 74.5847 79.0939 70.1961C79.33 69.7141 79.7867 69.5014 80.2491 69.7024C80.5945 69.8527 80.8384 70.239 81.1077 70.5005Z" fill="black"/>
<path d="M86.2359 75.6427C85.5958 75.6798 85.0729 75.0729 85.2173 74.4407C85.266 74.2299 85.3656 74.029 85.4573 73.8299C87.3618 69.6482 89.2683 65.4664 91.1786 61.2866C91.2782 61.0661 91.3601 60.7481 91.5357 60.672C91.8987 60.5158 92.406 60.3207 92.6929 60.4651C92.9836 60.6115 93.1241 61.1344 93.2373 61.5188C93.2861 61.6828 93.1027 61.9208 93.0129 62.1199C91.1084 66.3016 89.2019 70.4833 87.2994 74.667C87.0789 75.1471 86.8505 75.5998 86.2359 75.6427Z" fill="black"/>
<path d="M84.3157 60.5372C85.2055 60.5001 85.7656 61.1421 85.5002 61.7978C84.9382 63.191 84.304 64.555 83.6425 65.9053C83.4025 66.3951 82.899 66.5395 82.3897 66.2878C81.8629 66.0283 81.6443 65.5697 81.8863 65.0136C82.4561 63.7023 83.0395 62.3929 83.6718 61.1109C83.8123 60.826 84.1791 60.6543 84.3157 60.5372Z" fill="black"/>
<path d="M82.2102 84.8992C81.299 84.9402 80.7623 84.2709 81.0492 83.5684C81.5995 82.222 82.2161 80.9009 82.8542 79.5935C83.1176 79.0549 83.6503 78.9496 84.1694 79.1993C84.667 79.4394 84.8758 79.9077 84.6533 80.4248C84.0757 81.7595 83.4708 83.0845 82.8249 84.3899C82.6942 84.6495 82.3371 84.7978 82.2102 84.8992Z" fill="black"/>
<path d="M29.2642 75.6427C28.6241 75.6798 28.1012 75.0729 28.2456 74.4407C28.2944 74.2299 28.3939 74.029 28.4856 73.8299C30.3901 69.6482 32.2966 65.4664 34.2069 61.2866C34.3065 61.0661 34.3884 60.7481 34.564 60.672C34.927 60.5158 35.4343 60.3207 35.7212 60.4651C36.0119 60.6115 36.1524 61.1344 36.2656 61.5188C36.3144 61.6828 36.131 61.9208 36.0412 62.1199C34.1367 66.3016 32.2302 70.4833 30.3277 74.667C30.1072 75.1471 29.8769 75.5998 29.2642 75.6427Z" fill="black"/>
<path d="M25.2386 84.8992C24.3273 84.9402 23.7907 84.2709 24.0775 83.5684C24.6278 82.222 25.2444 80.9009 25.8825 79.5935C26.1459 79.0549 26.6787 78.9496 27.1977 79.1993C27.6953 79.4394 27.9041 79.9077 27.6816 80.4248C27.104 81.7595 26.4991 83.0845 25.8532 84.3899C25.7225 84.6495 25.3654 84.7978 25.2386 84.8992Z" fill="black"/>
</svg>
