<svg width="120" height="100" viewBox="0 0 120 100" fill="none" xmlns="http://www.w3.org/2000/svg">
<rect width="120" height="100" fill="white"/>
<path d="M12.4972 69.5395C12.9559 67.9035 13.5862 66.3632 14.9181 65.2153C15.0579 65.0951 15.1806 64.9307 15.3424 64.8694C16.8043 64.3224 16.9637 63.1672 17.0668 61.7764C18.4182 43.3658 30.952 28.2909 48.7961 23.5275C69.819 17.918 92.2744 29.7527 99.5371 50.2508C101.019 54.4352 101.862 58.7301 102.041 63.1598C102.063 63.7117 102.233 64.006 102.731 64.2832C105.681 65.9241 107.099 69.2673 106.268 72.4952C105.441 75.7034 102.571 77.9698 99.1913 77.9796C90.3489 78.0017 81.5066 78.0066 72.6667 77.9772C68.9507 77.9649 65.9681 75.2815 65.4236 71.5778C64.9232 68.166 67.094 64.7517 70.4617 63.6602C71.4403 63.3438 71.6832 62.9464 71.3888 61.9089C70.0177 57.045 66.9272 53.8883 61.9529 52.8115C55.1317 51.3324 48.4601 56.0026 47.4078 62.8925C47.3858 63.0372 47.4054 63.1868 47.4054 63.3389C47.9376 63.5032 48.438 63.6308 48.9188 63.8147C52.1221 65.0338 54.1015 68.4358 53.5374 71.725C52.9217 75.3061 50.0667 77.9453 46.5444 77.9649C37.55 78.014 28.5556 78.009 19.5612 77.9673C16.3554 77.9526 13.5887 75.6642 12.7351 72.5295C12.664 72.267 12.5781 72.0071 12.4996 71.7471C12.4972 71.0088 12.4972 70.2754 12.4972 69.5395ZM35.3744 61.4502C32.3477 57.8888 29.993 56.7654 26.8681 57.6631C22.6321 58.8797 21.0844 62.0119 21.2954 66.2356C20.8539 66.2356 20.5203 66.2356 20.1867 66.2356C17.4347 66.2454 15.4455 68.0801 15.4356 70.6188C15.4258 73.1648 17.4126 75.0436 20.1426 75.0461C28.7347 75.051 37.3293 75.051 45.9214 75.0461C48.7103 75.0436 50.7142 73.1525 50.6799 70.5746C50.6455 68.0409 48.6171 66.1768 45.8822 66.27C45.0875 66.2969 44.8716 66.0394 44.722 65.2987C44.1751 62.5932 42.3624 60.8493 39.7845 60.42C38.1902 60.1551 36.7774 60.7217 35.3744 61.4502ZM74.1948 66.2381C73.6037 66.2381 73.1205 66.2258 72.6373 66.2405C70.236 66.3092 68.3351 68.2224 68.313 70.5893C68.2885 73.0029 70.1845 74.9725 72.6201 75.0436C73.4443 75.0681 74.2709 75.051 75.0974 75.051C83.1083 75.051 91.1216 75.0632 99.1324 75.0436C101.634 75.0363 103.572 73.0519 103.555 70.6114C103.538 68.1733 101.543 66.1792 99.0637 66.2749C98.0752 66.3141 97.7367 66.0419 97.5234 65.0705C96.687 61.2589 92.9195 59.3776 89.385 60.918C88.9999 61.0872 88.6173 61.2638 88.2003 61.4527C85.9977 58.1635 83.0494 56.5324 79.1642 57.8593C75.3329 59.1642 73.9667 62.2155 74.1948 66.2381ZM98.9362 61.0382C96.9617 39.9613 78.2199 23.1694 55.7204 25.3083C35.1488 27.2656 22.1735 43.9937 20.5203 58.1463C21.7074 57.3099 23.0025 56.3067 24.3908 55.4605C24.9132 55.1441 25.1978 54.835 25.367 54.2733C31.2415 34.8447 52.5023 24.1236 71.5433 31.168C83.7485 35.6836 91.2982 44.5039 94.3887 57.1456C94.4598 57.4399 94.6266 57.8544 94.8547 57.9452C96.4245 58.5731 97.7171 59.5591 98.9362 61.0382ZM91.3963 57.3737C87.9673 42.1541 73.589 30.5524 56.4366 32.1197C48.4307 32.8506 41.5923 36.1864 35.9631 41.9333C32.4801 45.4899 29.9685 49.6474 28.4207 54.3518C29.7943 54.5971 31.0428 54.8203 32.3109 55.046C32.4213 54.7835 32.5316 54.5333 32.6297 54.2782C37.4863 41.7837 50.3585 34.1163 63.5644 36.1987C74.8988 37.9868 82.6472 44.4523 86.7041 55.2177C87.175 56.4686 88.3475 56.8709 89.1029 57.7539C89.1544 57.8152 89.3384 57.7857 89.4537 57.7637C90.084 57.6435 90.707 57.5135 91.3963 57.3737ZM83.2824 54.4647C83.1794 54.2292 83.0445 53.8981 82.89 53.5767C75.4825 38.1266 55.5094 33.9568 42.5292 45.1588C39.1272 48.0947 36.6842 51.7102 35.1291 55.929C34.9722 56.3558 34.9991 56.6231 35.3327 57.0401C36.0735 57.9648 36.9099 57.6067 37.8002 57.538C38.5606 57.4791 38.8647 57.148 39.137 56.4735C43.0615 46.7065 53.4466 41.0552 63.7508 43.1548C70.3464 44.499 75.3329 48.1708 78.7104 54.0084C78.9165 54.3616 79.0048 54.7639 79.6204 54.6928C80.8223 54.553 82.0413 54.5358 83.2824 54.4647ZM76.292 55.7818C73.0322 48.9434 64.8987 44.7982 56.7751 45.8676C50.128 46.7408 42.8481 52.5883 41.8547 57.7784C42.9634 58.4603 44.0475 59.125 45.1243 59.7872C47.6114 53.7117 52.0363 49.9932 58.7373 49.6621C65.4531 49.331 70.2507 52.5932 73.329 58.3989C74.3076 57.5331 75.2642 56.6869 76.292 55.7818Z" fill="black"/>
</svg>
