<svg width="120" height="100" viewBox="0 0 120 100" fill="none" xmlns="http://www.w3.org/2000/svg">
<rect width="120" height="100" fill="white"/>
<path d="M56.2499 76.7069C55.3125 75.7575 54.5019 74.9368 53.6591 74.082C52.8002 74.9389 51.9273 75.7716 51.1005 76.6466C50.5876 77.1877 50.66 77.781 51.1227 78.3442C51.5169 78.825 51.5913 79.3399 51.2253 79.8669C50.7586 80.5408 49.8977 80.5488 49.2822 79.8991C47.9989 78.5474 48.0069 76.4032 49.3526 74.9771C50.1793 74.1021 51.0824 73.2975 51.9454 72.4668C51.0161 71.5858 50.1713 70.7852 49.3144 69.9726C48.5339 70.7329 47.6046 71.5737 46.7558 72.4889C46.3032 72.9757 46.4319 73.559 46.8463 74.0659C47.2406 74.5486 47.3049 75.0716 46.9569 75.5966C46.5064 76.2765 45.6314 76.2845 45.0139 75.6348C43.7426 74.2952 43.7547 72.1027 45.0843 70.7108C45.915 69.8398 46.8021 69.0191 47.6006 68.2387C46.7236 67.3536 45.9029 66.5229 45.04 65.6519C44.2475 66.4384 43.3484 67.2732 42.5237 68.1743C42.0228 68.7234 42.1898 69.3269 42.6343 69.88C43.0064 70.3447 43.0266 70.8576 42.6826 71.3444C42.3527 71.811 41.8599 71.9498 41.347 71.7607C41.0614 71.6561 40.7918 71.4148 40.5947 71.1714C39.4502 69.7634 39.5689 67.7258 40.8864 66.366C41.705 65.5212 42.5699 64.7206 43.4409 63.8738C43.2579 63.6666 43.1472 63.5339 43.0286 63.4112C42.3306 62.6911 41.6306 61.973 40.9226 61.2469C39.9933 62.1621 39.1143 62.9888 38.2835 63.8597C37.8269 64.3385 37.8571 64.8916 38.2393 65.4428C38.8045 66.2634 38.7643 66.9111 38.1508 67.3496C37.5252 67.7962 36.8071 67.585 36.2298 66.7884C35.208 65.3724 35.2965 63.5077 36.5195 62.2204C37.3643 61.3313 38.2916 60.5187 39.1525 59.7C38.2091 58.7707 37.3764 57.9501 36.5134 57.1012C35.731 57.8777 34.86 58.7104 34.0273 59.5794C33.5687 60.0581 33.5828 60.6032 33.9609 61.1583C34.508 61.9609 34.4557 62.6508 33.8523 63.0712C33.2147 63.5138 32.5106 63.3026 31.9394 62.4919C30.9216 61.0517 31.0564 59.169 32.3175 57.8636C33.1543 56.9987 34.0414 56.182 34.8922 55.3593C33.9931 54.4642 33.1744 53.6496 32.3598 52.8369C31.4707 53.6898 30.5173 54.5366 29.6524 55.4639C29.2581 55.8863 29.3728 56.4375 29.7167 56.9222C30.2739 57.7067 30.2236 58.4107 29.6141 58.8311C28.9966 59.2575 28.3107 59.0705 27.7395 58.3141C26.6633 56.8961 26.7639 54.947 28.0271 53.6214C28.8578 52.7505 29.7449 51.9358 30.817 50.8919C30.4167 50.6123 30.0667 50.4353 29.8072 50.1698C29.3004 49.6508 29.2762 48.9951 29.759 48.4841C30.467 47.7359 31.173 46.9735 31.9676 46.3238C34.3914 44.3426 37.7565 44.5397 40.0496 46.7945C42.6846 49.3853 45.2834 52.0143 47.8923 54.6332C48.0854 54.8283 48.2282 55.0717 48.3951 55.2949C48.5118 55.3372 48.6305 55.3794 48.7471 55.4217C48.9141 55.1421 49.0308 54.8122 49.254 54.5889C61.9765 41.8544 74.7131 29.1319 87.4315 16.3893C88.5579 15.2609 89.8231 14.7198 91.378 15.1442C93.9064 15.8342 94.8297 18.8674 93.1501 20.8889C92.9107 21.1786 92.6372 21.4401 92.3696 21.7076C79.6914 34.3838 67.0132 47.058 54.3289 59.7262C54.1197 59.9354 53.8301 60.0661 53.4881 60.2914C54.4536 61.2308 55.2341 61.975 55.9984 62.7353C57.9757 64.7045 59.951 66.6778 61.9202 68.6551C64.6698 71.4168 64.6719 74.9811 61.9343 77.7368C61.5259 78.1471 61.1216 78.5595 60.7073 78.9638C59.9308 79.7221 59.3596 79.7181 58.5711 78.9577C58.374 78.7687 58.1748 78.5816 57.9496 78.3664C57.0504 79.2534 56.1493 80.0821 55.3206 80.9813C54.8137 81.5324 54.9887 82.1338 55.4393 82.683C55.8174 83.1456 55.8898 83.7229 55.4694 84.1232C55.1717 84.4068 54.6508 84.5496 54.2183 84.5697C53.9689 84.5818 53.6491 84.274 53.4479 84.0367C52.2591 82.6468 52.3275 80.5931 53.633 79.2333C54.4677 78.3684 55.3628 77.5618 56.2499 76.7069ZM59.7015 76.5158C61.9463 74.5547 62.1958 72.3461 60.3352 70.4835C53.0557 63.1899 45.7702 55.9044 38.4746 48.627C36.604 46.7603 33.8684 47.1123 32.4744 49.2968C41.5461 58.3664 50.6077 67.424 59.7015 76.5158ZM52.0117 58.6239C52.1686 58.4751 52.3336 58.3262 52.4925 58.1693C65.2914 45.3724 78.0903 32.5755 90.8912 19.7766C90.9616 19.7062 91.036 19.6378 91.1044 19.5634C91.6857 18.9378 91.736 18.264 91.2432 17.7531C90.7424 17.2361 90.0021 17.2844 89.3706 17.8778C89.2599 17.9804 89.1573 18.091 89.0507 18.1976C76.3041 30.9402 63.5575 43.6848 50.8129 56.4294C50.6399 56.6024 50.479 56.7854 50.3 56.9785C50.8712 57.5277 51.4103 58.0466 52.0117 58.6239Z" fill="black"/>
</svg>
