<svg width="120" height="100" viewBox="0 0 120 100" fill="none" xmlns="http://www.w3.org/2000/svg">
<rect width="120" height="100" fill="white"/>
<path d="M72.951 85.4637C67.6067 90.852 60.6268 92.2989 54.5132 89.8403C48.3849 87.3774 44.2937 81.537 44.2536 74.9193C44.1437 56.9947 44.0972 39.0701 44.0275 21.1455C44.0169 18.6678 44 16.1901 44 13.7125C44 10.9834 45.8131 9.11619 48.5455 9.09718C56.4299 9.0486 64.3143 9.01691 72.2009 9.00002C74.8889 8.99368 76.7654 10.8377 76.7781 13.5012C76.8647 33.931 76.9556 54.3607 77 74.7883C77.0084 79.2051 75.3305 82.9923 72.951 85.4637ZM75.0812 70.3294C75.0875 70.1203 75.1002 69.8604 75.1002 69.6027C75.0304 51.0276 74.9586 32.4503 74.8846 13.8751C74.8762 11.7924 73.9654 10.8905 71.8818 10.8989C64.2383 10.9264 56.5926 10.9581 48.9491 10.9898C46.7662 10.9982 45.8892 11.8875 45.8977 14.08C45.9695 32.6045 46.0414 51.1269 46.1026 69.6513C46.1026 69.9365 45.9737 70.2216 45.9188 70.4477C55.8044 70.4054 65.4174 70.3674 75.0812 70.3294ZM46.166 72.3804C45.3144 82.9121 53.2073 89.1981 60.967 89.0038C69.6037 88.7863 75.9814 81.3025 75.0495 72.3001C65.4238 72.3254 55.7896 72.3529 46.166 72.3804Z" fill="black"/>
<path d="M67.9521 64.8801C63.8685 69.0023 57.2705 69.0454 53.1416 64.975C49.0041 60.896 48.9458 54.1861 53.0121 50.0811C57.0741 45.9805 63.8146 45.9719 67.9176 50.0617C72.0141 54.1472 72.0292 60.7622 67.9521 64.8801ZM68.9644 56.4652C68.5953 52.2502 64.6261 49.0754 61.6152 49.1056C61.5785 50.0099 61.5419 50.9142 61.5052 51.8379C64.0498 52.425 65.5823 54.0199 66.1737 56.422C67.1406 56.4349 68.0234 56.4501 68.9644 56.4652ZM59.3641 51.8552C59.3857 50.884 59.4051 49.9819 59.4245 49.0797C55.8611 49.1855 52.1401 52.9451 52.0819 56.4242C53.0056 56.4263 53.9294 56.4285 54.8596 56.4306C55.4359 53.953 57.018 52.4422 59.3641 51.8552ZM66.1866 58.4788C65.5995 60.8874 64.2009 62.4348 61.8591 63.0931C61.7124 63.1341 61.5289 63.3672 61.5181 63.5204C61.4706 64.3189 61.4728 65.1196 61.4577 65.9225C65.4377 65.78 68.9903 61.7377 68.8953 58.4982C68.0126 58.4917 67.1298 58.4853 66.1866 58.4788ZM52.0862 58.5651C52.2437 62.5362 56.4072 66.0434 59.6123 65.8836C59.595 65.1628 59.6145 64.4333 59.5389 63.7146C59.513 63.4815 59.2778 63.1945 59.0598 63.0736C58.5482 62.7888 57.9612 62.6398 57.4561 62.3442C56.0036 61.4938 55.2352 60.1385 54.8402 58.5824C53.8884 58.5759 52.9862 58.5716 52.0862 58.5651ZM63.1541 54.7969C61.6606 53.3293 59.2734 53.3573 57.8015 54.8594C56.3424 56.3465 56.3662 58.7723 57.8511 60.2226C59.3339 61.6708 61.775 61.6406 63.2232 60.16C64.6844 58.6666 64.652 56.2666 63.1541 54.7969Z" fill="black"/>
<path d="M66.1699 43.0978C65.0178 44.2712 63.0868 44.3055 61.9024 43.1686C60.7288 42.0424 60.6944 40.0924 61.8316 38.904C62.958 37.7242 64.8976 37.6963 66.0927 38.8375C67.2706 39.968 67.3071 41.9373 66.1699 43.0978ZM64.7388 40.2233C64.3162 39.8243 63.6103 39.8436 63.2155 40.2662C62.8207 40.6888 62.8422 41.4031 63.2605 41.7935C63.6768 42.1818 64.4041 42.1625 64.7903 41.7506C65.183 41.3302 65.1594 40.6201 64.7388 40.2233Z" fill="black"/>
<path d="M48.7113 39.0381C49.6673 37.6713 51.2774 37.6512 52.2603 38.9955C53.2342 40.3298 53.2485 42.6229 52.2907 43.9672C51.3221 45.3265 49.7138 45.3466 48.7363 44.0123C47.7642 42.6855 47.7535 40.4099 48.7113 39.0381ZM51.1381 40.6027C50.8003 40.1296 50.2177 40.1296 49.8746 40.6027C49.5351 41.0708 49.519 41.8869 49.8425 42.3776C50.1784 42.8858 50.8146 42.8883 51.1541 42.3801C51.4776 41.8994 51.4704 41.0683 51.1381 40.6027Z" fill="black"/>
<path d="M59.1189 44.0029C57.9555 45.3431 55.9981 45.3306 54.8562 43.9754C53.7036 42.6076 53.7165 40.3354 54.8841 39.0027C56.0667 37.655 57.9985 37.6675 59.1425 39.0303C60.2951 40.4031 60.2843 42.6602 59.1189 44.0029ZM57.7581 40.606C57.346 40.1275 56.6441 40.135 56.2342 40.621C55.8264 41.107 55.8285 41.9312 56.2406 42.4022C56.6484 42.8706 57.3674 42.8631 57.771 42.3871C58.1766 41.9061 58.1702 41.0845 57.7581 40.606Z" fill="black"/>
<path d="M72.2584 38.8644C73.2349 40.0212 73.2492 41.9506 72.2888 43.1224C71.3356 44.2835 69.7064 44.2943 68.7353 43.1439C67.7642 41.9935 67.7535 40.0362 68.7121 38.8837C69.6831 37.7119 71.2802 37.7055 72.2584 38.8644ZM71.1228 40.2337C70.7723 39.8259 70.1892 39.8323 69.853 40.2487C69.5204 40.6608 69.5293 41.3776 69.8727 41.7768C70.2143 42.1738 70.8152 42.1652 71.146 41.7553C71.484 41.3411 71.4715 40.6414 71.1228 40.2337Z" fill="black"/>
<path d="M47.8659 15.9174C49.0457 14.7134 50.8849 14.692 52.0882 15.8681C53.2829 17.0379 53.3065 18.9211 52.1417 20.0973C50.9684 21.2799 49.0842 21.3034 47.9023 20.1508C46.714 18.9918 46.6969 17.1086 47.8659 15.9174ZM49.232 17.2886C48.8187 17.7299 48.8337 18.3855 49.2662 18.7904C49.6923 19.1889 50.3646 19.1632 50.7735 18.7347C51.1846 18.3041 51.1632 17.6463 50.7286 17.235C50.2918 16.8237 49.6452 16.8451 49.232 17.2886Z" fill="black"/>
<path d="M66.0307 36.0776C64.8329 37.3676 62.946 37.2949 61.8298 35.9199C60.6835 34.5072 60.7307 32.2554 61.935 30.943C63.1435 29.6255 65.1034 29.6981 66.2046 31.1008C67.3294 32.5335 67.2521 34.7627 66.0307 36.0776ZM64.7535 32.5936C64.3456 32.1302 63.6265 32.1402 63.2272 32.6136C62.8194 33.097 62.828 33.9111 63.2465 34.3895C63.6673 34.8729 64.3456 34.8629 64.7599 34.3644C65.1721 33.871 65.1699 33.0645 64.7535 32.5936Z" fill="black"/>
<path d="M47.8811 27.2508C46.6974 26.2632 46.7081 24.6969 47.9025 23.7164C49.0905 22.7413 50.9668 22.7645 52.1483 23.7682C53.317 24.7612 53.2784 26.3114 52.0604 27.3008C50.8896 28.2527 49.0541 28.2295 47.8811 27.2508ZM50.7202 24.8451C50.2828 24.5022 49.6309 24.5201 49.2192 24.8862C48.8117 25.2487 48.8353 25.7935 49.2728 26.1363C49.7124 26.481 50.3514 26.4632 50.7695 26.0917C51.1877 25.7238 51.1662 25.1934 50.7202 24.8451Z" fill="black"/>
<path d="M52.2576 31.8521C53.2394 33.009 53.2483 34.9257 52.279 36.1234C51.3277 37.2997 49.7146 37.2911 48.7311 36.1041C47.769 34.9408 47.7547 33.0734 48.6989 31.9014C49.6503 30.7188 51.2776 30.6973 52.2576 31.8521ZM51.122 34.7562C51.4725 34.3483 51.4815 33.6615 51.1417 33.2429C50.8109 32.8373 50.2154 32.8244 49.8738 33.215C49.5251 33.6164 49.5215 34.3011 49.8649 34.724C50.2154 35.1554 50.7679 35.1683 51.122 34.7562Z" fill="black"/>
<path d="M54.89 27.258C53.6998 26.2685 53.7041 24.711 54.8986 23.7251C56.0866 22.7445 57.9609 22.7606 59.1426 23.7608C60.3135 24.7521 60.2813 26.3006 59.0696 27.2937C57.903 28.2493 56.063 28.2332 54.89 27.258ZM57.7701 24.8842C57.354 24.5199 56.7064 24.5038 56.2711 24.8485C55.8314 25.195 55.8143 25.7326 56.2282 26.097C56.6485 26.4649 57.2854 26.481 57.725 26.1327C58.1668 25.7826 58.1861 25.2486 57.7701 24.8842Z" fill="black"/>
<path d="M68.7627 27.2812C67.7584 26.2992 67.7441 24.7565 68.7305 23.7495C69.7044 22.755 71.2751 22.7496 72.265 23.737C73.2336 24.7029 73.2461 26.2421 72.2954 27.2223C71.3144 28.2365 69.7651 28.2615 68.7627 27.2812ZM71.1071 24.8494C70.7444 24.5119 70.1994 24.5333 69.8545 24.8994C69.5096 25.2672 69.5293 25.7975 69.9009 26.1456C70.2708 26.492 70.7998 26.4724 71.1482 26.0992C71.4895 25.7332 71.4734 25.1904 71.1071 24.8494Z" fill="black"/>
<path d="M66.1432 27.2322C64.9646 28.2399 63.1218 28.2578 61.9067 27.2733C60.7067 26.3012 60.696 24.7413 61.8853 23.7406C63.0382 22.7704 64.8939 22.7507 66.0704 23.6977C67.2811 24.6716 67.3132 26.2333 66.1432 27.2322ZM64.7418 26.1243C65.1746 25.7723 65.1854 25.2327 64.7653 24.8735C64.3453 24.5143 63.6961 24.5072 63.2653 24.8574C62.8325 25.2094 62.8218 25.7455 63.2439 26.1064C63.6682 26.4692 64.3089 26.4781 64.7418 26.1243Z" fill="black"/>
<path d="M54.8553 31.8842C56.0082 30.7124 57.9641 30.7039 59.1278 31.8671C60.2957 33.0324 60.2893 34.9531 59.117 36.1378C57.9835 37.2838 56.092 37.2881 54.9133 36.1464C53.7196 34.9896 53.6917 33.0646 54.8553 31.8842ZM57.7516 34.76C58.1702 34.3479 58.1788 33.6569 57.7688 33.2406C57.3716 32.8349 56.6502 32.8285 56.2423 33.2255C55.8279 33.6311 55.8236 34.3243 56.2358 34.745C56.6523 35.1678 57.3308 35.1742 57.7516 34.76Z" fill="black"/>
<path d="M68.7162 31.0337C69.6658 29.6642 71.304 29.6542 72.2716 31.0112C73.232 32.3557 73.2445 34.5339 72.2984 35.9159C71.3344 37.3229 69.7481 37.3655 68.7501 36.0135C67.7629 34.6766 67.7486 32.4283 68.7162 31.0337ZM71.1109 32.5685C70.7621 32.1203 70.163 32.1554 69.8393 32.6436C69.5102 33.1418 69.5335 33.958 69.8876 34.4187C70.2489 34.8869 70.8086 34.8493 71.1484 34.3386C71.4847 33.8328 71.4668 33.0241 71.1109 32.5685Z" fill="black"/>
<path d="M62.2487 55.7383C63.2497 56.7268 63.2497 58.2687 62.2529 59.2657C61.2624 60.2542 59.7144 60.2436 58.7239 59.2403C57.7587 58.2624 57.7587 56.7564 58.7239 55.77C59.7144 54.7561 61.2434 54.7414 62.2487 55.7383ZM59.8812 56.8514C59.9889 57.3858 59.9572 57.7681 60.1177 57.8864C60.293 58.0153 60.707 57.9857 60.9034 57.8568C61.0238 57.7766 61.0301 57.2866 60.9034 57.1429C60.7555 56.9739 60.405 56.9845 59.8812 56.8514Z" fill="black"/>
</svg>
