<svg width="120" height="100" viewBox="0 0 120 100" fill="none" xmlns="http://www.w3.org/2000/svg">
<rect width="120" height="100" fill="white"/>
<path d="M19.1108 40.5771C20.4946 40.0516 21.6281 39.5837 22.7867 39.1933C23.8777 38.8255 24.4207 37.9497 24.8411 37.0138C25.6443 35.2247 26.9055 33.9185 28.5345 33.1052C28.5345 32.1193 28.5144 31.1985 28.547 30.2801C28.557 29.9798 28.6771 29.6696 28.7997 29.3868C29.7931 27.0697 30.9917 26.7894 32.6658 28.6461C33.6016 29.6846 34.2772 30.9633 35.1806 32.2995C35.7386 32.1168 36.6144 31.9567 37.3676 31.5613C40.2652 30.0449 43.3506 29.3843 46.5861 29.0039C49.794 28.6261 52.9369 27.7378 56.1348 27.2423C58.8699 26.8194 61.6374 26.4616 64.3949 26.4016C66.9348 26.3465 69.4146 26.2139 71.8943 25.5808C75.888 24.5624 79.9067 25.0303 83.8704 25.8586C86.3977 26.389 88.9 27.0672 91.3698 27.8229C93.3541 28.4309 95.0882 29.5469 96.6621 30.9257C97.3578 31.5363 98.2085 31.9717 99.0018 32.4671C104.307 35.7752 106.939 40.5821 107.082 46.8003C107.099 47.5085 107.007 48.1466 106.211 48.3517C105.453 48.5469 105.087 48.0164 104.745 47.4609C104.289 46.7227 103.809 45.9996 103.201 45.3165C103.301 46.1823 103.518 47.0531 103.481 47.9113C103.383 50.1784 103.333 52.468 102.973 54.7001C102.422 58.1007 102.793 61.3487 103.999 64.5341C104.507 65.8754 105.042 67.2066 105.565 68.5403C106.334 70.4971 106.023 72.3989 105.268 74.2756C104.91 75.1639 104.247 75.5568 103.293 75.5493C101.139 75.5343 98.9843 75.5468 96.8273 75.5443C95.1482 75.5418 94.7203 75.1914 94.4301 73.5424C93.3566 73.4874 92.2681 73.4398 91.1821 73.3773C89.7383 73.2947 89.0751 72.2387 89.6482 70.9C90.041 69.9841 90.4789 69.0858 90.9018 68.1825C91.3272 67.2691 91.1996 66.3608 90.4164 65.8153C86.5078 63.0903 85.6145 59.0291 85.3167 54.6776C85.3092 54.585 85.2867 54.4949 85.2491 54.2847C85.0189 54.4348 84.8112 54.5324 84.6511 54.6826C83.7402 55.5384 82.8194 56.3816 81.9461 57.275C77.7072 61.6014 72.585 62.5648 66.8622 61.2811C66.5895 61.2186 66.3142 61.156 66.039 61.101C64.6452 60.8207 63.4641 61.4663 63.2114 62.8501C62.6158 66.0856 61.6824 69.286 62.4406 72.6566C62.8185 74.3306 61.4397 75.8796 59.6656 75.9421C57.7313 76.0122 55.7895 76.0347 53.8602 75.9171C53.2672 75.8821 52.7067 75.3191 52.1312 75.0038C51.8359 74.8411 51.5406 74.5584 51.2378 74.5508C49.8966 74.5183 48.5529 74.5609 47.2116 74.5884C46.2783 74.6084 45.4625 74.3932 44.9996 73.4949C44.5192 72.5615 44.7819 71.7257 45.45 71.0051C46.0381 70.372 46.6486 69.7564 47.2942 69.1859C48.3852 68.2225 48.4603 66.9313 48.165 65.7327C47.5394 63.1929 46.7162 60.7031 45.9355 58.2058C45.8579 57.9556 45.5351 57.7629 45.2974 57.5827C44.0612 56.6369 42.7375 55.7911 41.589 54.7501C39.477 52.8384 37.4226 52.4555 34.9203 53.7918C33.2188 54.7001 31.4521 54.6726 29.633 54.3748C28.7722 54.2347 27.9064 54.107 27.0381 54.027C25.9045 53.9219 24.9061 54.2622 23.9803 54.9453C21.7357 56.6043 20.2143 56.6394 17.8847 55.1855C17.5669 54.9879 17.2366 54.8102 16.9063 54.635C13.866 53.0361 12.79 50.5788 13.6032 47.2182C13.7208 46.7328 13.7233 46.1697 13.6082 45.6843C12.8901 42.6515 12.5823 39.6337 13.9761 36.7085C14.3589 35.9078 14.9094 35.1471 15.53 34.5115C15.8853 34.1487 16.631 33.8059 17.0289 33.946C17.4167 34.0811 17.712 34.8143 17.8271 35.3348C18.1074 36.5784 18.2125 37.8596 18.4802 39.1032C18.6078 39.6863 18.9531 40.2193 19.1108 40.5771ZM30.9742 30.0749C30.4437 31.3136 30.7965 32.2419 31.287 33.1753C31.795 34.1387 31.4096 34.7442 30.3736 35.0095C29.6455 35.1946 28.8898 35.5149 28.3168 35.9854C27.7637 36.4408 27.3634 37.1264 27.0181 37.777C26.0196 39.6638 24.8461 41.2802 22.4889 41.548C22.086 41.593 21.6781 41.8758 21.3328 42.1285C19.3935 43.5548 17.7896 43.1695 16.7811 40.9499C16.3958 40.0992 16.1581 39.1783 15.8153 38.1824C15.7177 38.3876 15.6576 38.4877 15.6226 38.5953C14.9945 40.6372 15.1747 42.6865 15.7102 44.6909C16.0179 45.8469 16.068 46.9104 15.7452 48.0765C15.1747 50.1334 15.8828 51.5497 17.7921 52.5681C18.1774 52.7733 18.5678 52.971 18.9381 53.1987C20.6797 54.2697 21.1076 54.2647 22.7992 53.021C23.9452 52.1753 25.2114 51.6948 26.6352 51.7774C27.6912 51.8375 28.7446 51.9801 29.7931 52.1277C31.1594 52.3204 32.4931 52.4931 33.8193 51.8274C37.5027 49.9807 40.3178 50.4412 43.273 53.2938C44.8445 54.8102 46.6411 55.9713 48.7405 56.6143C49.281 56.7795 49.8491 56.8546 50.5572 57.0047C49.5563 54.6726 48.9657 52.4555 49.1784 50.1009C49.3961 47.6961 50.3745 45.6668 52.2588 44.1128C52.8518 43.6249 53.4724 43.5548 53.9829 44.1904C54.4633 44.791 54.2681 45.3665 53.7076 45.8244C52.0286 47.1932 51.378 49.0099 51.403 51.1143C51.4355 53.8994 52.4665 56.3941 54.0229 58.6012C55.1589 60.2102 55.8271 61.9292 56.2299 63.7935C56.9731 67.2166 56.7879 70.4921 54.5509 73.4023C54.5058 73.4623 54.5184 73.5674 54.4958 73.7151C56.1499 73.7151 57.7688 73.7226 59.3853 73.7101C60.0059 73.7051 60.3337 73.3773 60.1936 72.7442C59.7281 70.6322 59.8082 68.5278 60.2436 66.4284C60.6015 64.6943 60.6915 62.8176 61.4472 61.2686C62.6884 58.7213 63.6267 56.2615 62.9136 53.3814C62.8335 53.0586 63.3039 52.408 63.6768 52.2103C64.2373 51.915 64.7828 52.2453 65.013 52.8584C65.1631 53.2613 65.2833 53.7042 65.2933 54.1296C65.3258 55.641 65.3058 57.1523 65.3058 58.6963C66.0189 58.8289 66.9348 58.984 67.8456 59.1767C72.645 60.1951 76.8864 59.2518 80.3871 55.6485C80.9952 55.0204 81.6133 54.3973 82.2664 53.8218C83.1072 53.0786 83.9404 52.3104 84.8713 51.6973C85.4418 51.322 85.5869 50.9717 85.4943 50.3411C85.1565 48.0315 85.3467 45.7343 85.7996 43.4547C85.9498 42.6965 86.3101 42.111 87.1759 42.2862C88.0242 42.4563 88.1143 43.0869 88.0217 43.8776C87.8265 45.5467 87.5863 47.2307 87.6338 48.8998C87.7339 52.5331 88.9776 55.5559 92.4032 57.4351C93.249 57.898 94.0422 58.8914 94.355 59.8123C95.1482 62.1444 96.2492 64.2789 97.603 66.3133C98.6139 67.8322 98.734 69.4487 98.0134 71.1252C97.7231 71.8008 97.4328 72.4739 97.1451 73.1421C97.2927 73.2196 97.3427 73.2722 97.3953 73.2722C98.674 73.2822 99.9551 73.2922 101.234 73.2947C103.486 73.2972 103.856 72.9143 103.739 70.6097C103.716 70.1518 103.578 69.6864 103.421 69.2535C103.068 68.2876 102.668 67.3392 102.282 66.3858C100.726 62.5248 99.9126 58.5611 100.783 54.4048C101.759 49.738 101.361 45.2264 99.4197 40.8624C99.1344 40.2193 98.9717 39.5887 99.6574 39.1057C100.351 38.6178 100.909 39.0031 101.389 39.4936C102.277 40.3994 103.138 41.3303 104.016 42.2536C104.031 42.1886 104.069 42.1235 104.054 42.0735C103.981 41.8358 103.901 41.598 103.814 41.3653C102.6 38.1524 100.323 35.8828 97.4378 34.1387C96.6646 33.6707 95.9415 33.1277 95.1758 32.6473C93.7845 31.774 92.4683 30.6755 90.9569 30.1175C88.6022 29.2467 86.1299 28.6436 83.6702 28.1131C79.9317 27.3074 76.1307 26.8169 72.3498 27.7728C69.7799 28.4209 67.22 28.7387 64.5726 28.6136C61.4347 28.4635 58.3369 28.8638 55.3166 29.7246C52.0911 30.6455 48.8081 31.1759 45.4675 31.4162C43.4582 31.5613 41.5564 32.1043 39.7097 32.9301C38.3235 33.5506 36.8546 33.9835 35.4333 34.5315C35.1831 34.6266 34.8553 34.8243 34.7902 35.042C34.5725 35.7927 34.1396 36.2356 33.3689 36.0329C32.5431 35.8152 32.4606 35.1746 32.6082 34.3914C32.931 32.7124 32.2429 31.3711 30.9742 30.0749ZM47.2467 72.2838C48.7455 72.2838 50.0292 72.1787 51.2854 72.3138C52.5816 72.4514 53.1596 71.7333 53.6175 70.7624C53.8152 70.3445 53.9278 69.8841 54.0504 69.4336C54.626 67.2842 54.2756 65.2098 53.7602 63.0803C53.0945 60.3353 51.4956 59.1392 48.6054 59.0541C48.6455 59.2393 48.673 59.4194 48.723 59.5921C49.2735 61.4738 49.9792 63.3255 50.3445 65.2423C50.7974 67.6195 50.4746 69.8615 48.1475 71.3154C47.8447 71.5005 47.6445 71.8459 47.2467 72.2838ZM87.834 56.8421C87.9641 59.5671 89.1852 61.9593 91.3472 63.6258C93.3791 65.1897 93.8595 67.0765 92.8161 69.3936C92.5684 69.9441 92.3106 70.4921 92.0028 71.1652C93.0363 71.2128 93.9071 71.2153 94.7679 71.3029C95.3434 71.3604 95.5761 71.1102 95.8063 70.6247C96.3669 69.4462 96.3318 68.3777 95.5736 67.2842C94.1648 65.2548 93.0288 63.0878 92.3081 60.7031C92.1455 60.1626 91.65 59.6571 91.1871 59.2868C90.1036 58.421 88.9475 57.6453 87.834 56.8421Z" fill="black"/>
<path d="M30.2585 42.9592C30.8929 42.9592 31.4071 42.445 31.4071 41.8107C31.4071 41.1763 30.8929 40.6621 30.2585 40.6621C29.6242 40.6621 29.11 41.1763 29.11 41.8107C29.11 42.445 29.6242 42.9592 30.2585 42.9592Z" fill="black"/>
</svg>
