<svg width="120" height="100" viewBox="0 0 120 100" fill="none" xmlns="http://www.w3.org/2000/svg">
<rect width="120" height="100" fill="white"/>
<path d="M92.8409 78H86.2004C85.5599 78 85.0409 77.4887 85.0409 76.8577V68.4319H14.5097V76.8577C14.5097 77.4887 13.9907 78 13.3501 78H6.15955C5.51901 78 5 77.4887 5 76.8577V24.1423C5 23.5113 5.51901 23 6.15955 23H13.3501C13.9907 23 14.5097 23.5113 14.5097 24.1423V39.8086C15.3682 39.2275 16.4062 38.8866 17.5245 38.8866H31.9006C34.8417 38.8866 37.2345 41.2438 37.2345 44.141V45.6653C37.2345 46.7664 36.889 47.7894 36.2985 48.6351H85.0404V38.2241C85.0404 37.5931 85.5594 37.0818 86.1999 37.0818H92.8404C93.481 37.0818 94 37.5931 94 38.2241V76.8582C94.0005 77.4887 93.4815 78 92.8409 78ZM87.3595 75.7155H91.6809V39.3664H87.3595V75.7155ZM7.3191 75.7155H12.1906V25.2845H7.3191V75.7155ZM14.5097 66.1474H85.0404V62.1134H14.5097V66.1474ZM14.5097 59.8289H85.0404V50.9201H14.5097V59.8289ZM17.5245 48.6356H31.9006C33.5629 48.6356 34.9154 47.3033 34.9154 45.6657V44.1415C34.9154 42.5039 33.5629 41.1716 31.9006 41.1716H17.5245C15.8622 41.1716 14.5097 42.5039 14.5097 44.1415V45.6657C14.5097 47.3033 15.8622 48.6356 17.5245 48.6356Z" fill="#000002"/>
</svg>
