<svg width="120" height="100" viewBox="0 0 120 100" fill="none" xmlns="http://www.w3.org/2000/svg">
<rect width="120" height="100" fill="white"/>
<path d="M43.7455 36.8971C37.2317 36.4489 31.1745 37.1854 26.0166 41.253C19.026 46.7621 19.4342 57.2008 26.87 62.6613C28.5656 63.9059 30.538 64.8307 32.4847 65.6728C38.0538 68.0819 43.4544 70.768 48.2413 74.5558C50.4307 76.2885 52.4088 78.2295 53.856 80.6501C54.0758 81.0154 54.2727 81.3951 54.4497 81.7833C54.758 82.4455 54.5639 83.1078 53.9416 83.299C53.4878 83.4389 52.5772 83.2647 52.3945 82.9393C49.149 77.1705 43.7027 74.042 38.1594 71.0848C35.3106 69.5662 32.2792 68.3931 29.3505 67.0201C24.2325 64.6166 20.4732 60.9658 19.1373 55.3026C17.2363 47.2416 21.0527 40.0256 28.911 36.6116C32.382 35.1045 36.0043 34.3309 39.7978 34.3395C47.2051 34.3566 54.6124 34.3452 62.0197 34.3452C62.3879 34.3452 62.759 34.3452 63.1529 34.3452C62.0882 33.1349 61.1263 32.0131 60.1329 30.9199C58.4973 29.1273 56.445 28.7648 54.1728 29.29C52.4316 29.6925 52.1062 29.4698 51.9407 27.7086C51.7123 25.2538 50.248 23.7666 48.0329 22.9902C45.6323 22.1481 43.403 22.3993 41.5647 24.3632C40.5229 25.4764 39.6294 25.2795 39.1556 23.8494C39.1099 23.7152 39.0642 23.5811 39.0186 23.4441C37.9938 20.4583 34.6912 18.7885 31.694 19.7418C30.2297 20.2071 29.1365 21.1605 28.4371 22.5021C28.0147 23.3128 27.6208 24.1862 27.4466 25.0768C26.7501 28.6449 25.2601 31.7448 22.4399 34.3481C22.9081 34.3481 23.3762 34.3167 23.8415 34.3566C24.6122 34.4223 25.1431 34.8076 25.1031 35.6411C25.0689 36.4061 24.5608 36.8 23.83 36.8029C20.9099 36.8229 17.9898 36.8229 15.0697 36.8C14.3333 36.7972 13.8395 36.3747 13.8081 35.6211C13.7795 34.8562 14.2676 34.3509 14.987 34.3795C17.6844 34.4851 19.7939 33.2805 21.6464 31.505C23.5161 29.7153 24.4266 27.4431 24.9518 24.9398C25.203 23.7381 25.6341 22.5278 26.2164 21.4459C29.2421 15.8398 36.8549 15.5115 40.4401 20.7894C40.5971 21.0206 40.7512 21.2547 40.9482 21.5544C43.5143 19.9103 46.2118 19.6848 49.0148 20.7266C51.8122 21.7656 53.6191 23.7267 54.3013 26.5697C55.3546 26.6239 56.3137 26.6096 57.2556 26.7324C59.3736 27.0064 61.1291 28.0255 62.348 29.7524C64.5117 32.8209 67.5973 34.0369 71.1425 34.2424C73.9114 34.4023 76.6944 34.3081 79.4747 34.3309C79.8286 34.3338 80.2739 34.231 80.5194 34.4023C80.9333 34.6906 81.4128 35.1131 81.5185 35.5612C81.6812 36.2463 81.1474 36.663 80.4709 36.7801C80.1597 36.8343 79.8315 36.8057 79.5118 36.8057C70.8228 36.8057 62.131 36.7829 53.4421 36.8172C50.0938 36.8314 46.9939 37.8276 44.1509 39.5803C42.2812 40.7335 41.3849 42.4119 41.7303 44.6326C42.0814 46.8934 43.4544 48.332 45.6437 48.7573C48.4668 49.3054 51.3327 49.6222 54.1785 50.0618C67.5174 52.1227 80.1369 56.1275 91.3178 63.943C97.5947 68.3303 102.741 73.7766 106.384 80.5673C106.618 81.0069 106.972 81.4522 106.997 81.9089C107.026 82.3627 106.829 83.0821 106.512 83.2362C106.121 83.4275 105.496 83.1877 104.993 83.0564C104.842 83.0164 104.742 82.7281 104.645 82.5397C100.466 74.3132 94.0381 68.2561 86.2397 63.5434C77.6107 58.3283 68.2167 55.1399 58.3575 53.293C54.2014 52.5138 49.9739 52.1056 45.8207 51.3235C41.5191 50.5128 39.0757 47.5271 39.2127 43.5565C39.2954 41.1645 40.3687 39.2634 42.3069 37.859C42.7322 37.5707 43.1661 37.291 43.7455 36.8971Z" fill="black"/>
<path d="M66.7181 83.507C66.5383 83.3586 66.0559 83.1531 65.8875 82.7963C62.1824 75.1007 55.7342 70.4251 48.3412 66.7742C46.9568 66.0892 46.5714 65.4555 47.0167 64.6648C47.4249 63.9398 48.1185 63.9369 49.4544 64.602C54.3584 67.0397 58.9711 69.8884 62.7447 73.9332C64.8456 76.1882 66.5782 78.6973 67.917 81.4746C68.4393 82.5593 67.9912 83.507 66.7181 83.507Z" fill="black"/>
<path d="M86.0427 83.5759C85.7773 83.3361 85.3091 83.0849 85.1036 82.6995C81.9152 76.6681 77.251 72.0296 71.6078 68.3074C70.8856 67.8307 70.526 67.217 71.074 66.4349C71.585 65.707 72.2558 65.8041 72.9408 66.2551C78.8552 70.1571 83.762 75.0039 87.1046 81.3208C87.6612 82.3713 87.4842 83.162 86.6564 83.4417C86.528 83.4845 86.3853 83.5016 86.0427 83.5759Z" fill="black"/>
<path d="M30.0127 43.6851C30.3638 43.9391 30.8691 44.1132 30.9747 44.4244C31.1146 44.8325 31.0603 45.4034 30.8748 45.8059C30.5208 46.5709 29.9385 47.2331 29.5846 47.9981C28.557 50.2132 28.8053 52.3769 30.4295 54.1552C31.537 55.3683 32.97 56.2903 34.2744 57.3179C34.6056 57.5777 35.145 57.6661 35.342 57.9858C35.6046 58.4112 35.8587 59.1048 35.6788 59.4616C35.499 59.8184 34.6227 60.2066 34.3144 60.0525C30.7578 58.2941 27.5436 56.1048 26.7044 51.8716C26.1336 48.9972 27.1754 46.4796 29.0308 44.2873C29.2363 44.0419 29.6046 43.9277 30.0127 43.6851Z" fill="black"/>
<path d="M63.6582 63.9915C62.1196 63.3549 60.7524 62.864 59.4764 62.196C59.1995 62.0505 59.0425 61.1656 59.2195 60.8145C59.3936 60.4662 60.1301 60.0923 60.4898 60.1922C61.7429 60.5462 62.9731 61.0314 64.132 61.6223C64.4574 61.7879 64.7086 62.5329 64.6316 62.9411C64.5545 63.3378 64.0093 63.6375 63.6582 63.9915Z" fill="black"/>
</svg>
