<svg width="120" height="100" viewBox="0 0 120 100" fill="none" xmlns="http://www.w3.org/2000/svg">
<rect width="120" height="100" fill="white"/>
<path d="M24.0131 86.4434C23.2401 86.1588 23.0007 85.6025 23.0007 84.7907C23.0169 65.9574 23.0137 47.1241 23.0137 28.294C23.0137 26.9809 23.3339 26.6542 24.6632 26.6639C29.0133 26.6866 33.3634 26.7189 37.7168 26.7448C37.83 26.7448 37.9464 26.7254 38.0532 26.7157C38.0532 26.1432 38.0564 25.6031 38.0499 25.0662C38.0499 24.9756 38.0467 24.8495 37.9885 24.801C37.2672 24.1864 37.5712 23.4684 37.7718 22.7601C38.2504 21.0945 38.7259 19.4288 39.2143 17.7664C39.5248 16.7087 39.9614 16.4726 41.0125 16.7637C42.0637 17.0581 43.1116 17.3588 44.2404 17.679C44.2404 15.5412 45.1169 14.0113 47.2644 13.5456C48.7554 13.2222 50.0589 13.7203 50.958 14.9881C52.0221 16.4856 51.8862 18.0089 50.8286 19.5711C51.6825 19.8201 52.4943 20.0433 53.2964 20.2891C55.693 21.0265 57.1517 22.9445 56.9511 25.2505C56.8671 26.2079 56.5469 27.1458 56.3205 28.1485C56.5404 28.294 56.7927 28.4622 57.0805 28.6498C58.3031 27.4563 59.5062 26.279 60.7159 25.1017C61.5827 24.2576 62.029 24.2673 62.8828 25.1017C63.6623 25.865 64.4677 26.6025 65.2633 27.3561C66.1657 25.6613 67.6114 24.8268 69.6264 25.2699C71.0527 25.5837 72.1588 26.8709 72.3658 28.3231C72.5987 29.9564 71.8321 31.3019 69.9821 32.366C70.574 32.9708 71.1432 33.5594 71.7157 34.1448C72.6278 35.0763 73.2132 36.1469 73.2682 37.4826C73.3264 38.9251 72.8154 40.1315 71.8257 41.1503C71.2629 41.7293 70.6775 42.2888 70.0986 42.8516C69.6781 43.2623 69.2188 43.4887 68.6205 43.1912C68.5073 43.133 68.3068 43.1621 68.1806 43.2267C67.7408 43.4467 67.3138 43.6957 66.8578 43.9512C66.8578 43.9545 66.8287 44.0094 66.8449 44.0418C69.1347 48.3952 71.6931 52.5383 75.5581 55.7338C80.2672 59.6246 85.6135 61.976 91.6907 62.6325C92.6804 62.7393 93.6798 62.7942 94.676 62.8298C95.3002 62.8525 95.7821 63.053 96.0797 63.619C96.0797 71.2293 96.0797 78.8396 96.0797 86.4531C95.698 86.4531 95.3196 86.4531 94.938 86.4531C94.152 86.1911 93.8997 85.651 93.903 84.8263C93.9321 79.9554 93.9192 75.0846 93.9192 70.2137C93.9192 69.9356 93.9192 69.6607 93.9192 69.3793C92.4184 69.2499 91.0148 69.1302 89.5399 69.0041C89.5399 69.3728 89.5399 69.6542 89.5399 69.9356C89.5399 74.9002 89.5238 79.8681 89.5529 84.8327C89.5561 85.6575 89.3135 86.2009 88.5146 86.4531C88.4661 86.4531 88.4209 86.4531 88.3723 86.4531C87.5993 86.1653 87.3568 85.6057 87.3632 84.7939C87.3956 81.9186 87.3762 79.0434 87.3762 76.1648C87.3762 73.8361 87.3826 71.5074 87.3665 69.1755C87.3665 68.9491 87.2727 68.5642 87.1401 68.5254C85.8269 68.1373 84.4977 67.8074 83.1037 67.4452C83.1037 67.7848 83.1037 68.0661 83.1037 68.3475C83.1037 73.8394 83.0907 79.328 83.1166 84.8198C83.1198 85.6413 82.8773 86.1879 82.0913 86.4531C82.0428 86.4531 81.9975 86.4531 81.949 86.4531C81.1728 86.175 80.872 85.6284 80.9367 84.8101C80.9852 84.1956 80.9464 83.5746 80.9464 82.9568C80.9464 77.7076 80.9496 72.4551 80.9367 67.2058C80.9367 66.9568 80.8558 66.5719 80.6909 66.4846C79.3939 65.8118 78.0679 65.1941 76.6739 64.5246C76.6739 64.8416 76.6739 65.0938 76.6739 65.3493C76.6739 71.8341 76.6642 78.3189 76.6868 84.8069C76.6901 85.6187 76.4507 86.175 75.6713 86.4531C75.6227 86.4531 75.5775 86.4531 75.5289 86.4531C74.743 86.1879 74.5004 85.6413 74.5037 84.8198C74.5295 77.8078 74.5134 70.7959 74.5263 63.7839C74.5263 63.315 74.4002 63.0142 74.0088 62.7231C72.9027 61.9048 71.8386 61.0283 70.7551 60.1777C70.616 60.0677 70.4705 59.9707 70.2441 59.8122C70.2441 60.1777 70.2441 60.4332 70.2441 60.692C70.2441 68.7259 70.2344 76.7599 70.257 84.7939C70.2603 85.6057 70.0177 86.162 69.2512 86.4531C69.2027 86.4531 69.1574 86.4531 69.1089 86.4531C68.3132 86.2009 68.0674 85.6543 68.0674 84.8295C68.0901 76.5044 68.0513 68.1826 68.1095 59.8575C68.1192 58.3341 67.9639 57.0048 66.7155 55.9925C66.5344 55.847 66.4115 55.6303 66.2724 55.4362C65.4832 54.356 64.6941 53.2725 63.8143 52.0628C63.8143 52.4607 63.8143 52.7162 63.8143 52.9684C63.8143 59.2947 63.8143 65.621 63.8143 71.9473C63.8143 73.0955 63.4715 73.6194 62.7276 73.6227C61.9772 73.6259 61.6441 73.1181 61.6441 71.9635C61.6441 64.9709 61.6441 57.9784 61.6441 50.9891C61.6441 47.7871 61.657 47.7774 59.7326 45.2126C59.0437 44.2973 58.2772 43.4402 57.5463 42.554C57.4913 42.5799 57.4363 42.609 57.3813 42.6349C57.3813 42.913 57.3813 43.1912 57.3813 43.4693C57.3813 57.1924 57.3813 70.9123 57.3781 84.6355C57.3781 84.988 57.3587 85.3567 57.2552 85.6866C57.1032 86.175 56.7021 86.3884 56.1976 86.3496C55.693 86.3108 55.3469 86.0359 55.2596 85.5281C55.2046 85.2014 55.2046 84.8651 55.2046 84.5352C55.2014 70.1458 55.2014 55.7596 55.2014 41.3703C55.2014 41.1568 55.2402 40.9336 55.1885 40.7299C55.1367 40.5196 55.0494 40.2706 54.8941 40.138C54.2731 39.6205 53.636 39.1224 52.9762 38.6567C52.352 38.2168 51.6922 37.8255 50.9418 37.3436C50.9418 37.7996 50.9418 38.081 50.9418 38.3656C50.9418 53.7511 50.9418 69.1399 50.9386 84.5255C50.9386 84.878 50.9257 85.2403 50.8545 85.5863C50.7478 86.0941 50.3758 86.3464 49.8713 86.3561C49.3344 86.3658 48.9463 86.107 48.8331 85.5669C48.7619 85.2209 48.7522 84.8586 48.7522 84.5061C48.749 68.7162 48.749 52.9232 48.749 37.1333C48.749 36.9199 48.7716 36.6999 48.7393 36.4929C48.7166 36.3474 48.6455 36.1372 48.5387 36.0919C47.2418 35.5453 45.9319 35.0213 44.5023 34.4424C44.5023 34.9372 44.5023 35.2413 44.5023 35.5453C44.5023 51.8591 44.5023 68.1729 44.4991 84.4867C44.4991 84.8424 44.4926 85.2014 44.4279 85.5508C44.3342 86.0585 43.9784 86.327 43.4738 86.3529C42.9402 86.3787 42.5359 86.1426 42.4065 85.6057C42.3257 85.2661 42.3127 84.9007 42.3127 84.5481C42.3095 67.9853 42.3095 51.4322 42.3095 34.8823C42.3095 34.5782 42.3095 34.271 42.3095 33.8732C40.8864 33.6629 39.5151 33.4624 38.0467 33.2425C38.0467 33.7147 38.0467 34.0413 38.0467 34.3712C38.0467 51.0893 38.0467 67.8074 38.0467 84.5255C38.0467 84.8327 38.0499 85.1465 38.0079 85.4505C37.9335 85.9939 37.5939 86.3011 37.057 86.3399C36.5201 86.382 36.1158 86.1394 35.9767 85.6122C35.8894 85.2726 35.8797 84.9071 35.8797 84.5546C35.8765 67.7395 35.8765 50.9276 35.8765 34.1125C35.8765 33.8149 35.8765 33.5174 35.8765 33.2457C34.3952 33.2457 33.0271 33.2457 31.6072 33.2457C31.6072 33.5594 31.6072 33.8182 31.6072 34.0769C31.6072 36.0757 31.6169 38.0713 31.6007 40.0701C31.5943 40.8431 31.1479 41.3153 30.5075 41.2959C29.8995 41.2797 29.4629 40.814 29.4499 40.0895C29.4273 38.7828 29.4435 37.4729 29.4435 36.1663C29.4435 35.1992 29.4435 34.2289 29.4435 33.2522C27.9848 33.2522 26.6005 33.2522 25.1742 33.2522C25.1742 33.6177 25.1742 33.9249 25.1742 34.2322C25.1742 51.0699 25.1709 67.9077 25.1871 84.7454C25.1871 85.5766 24.9898 86.175 24.1554 86.4434C24.1069 86.4434 24.0616 86.4434 24.0131 86.4434ZM25.2065 31.0108C25.5623 31.0108 25.8437 31.0108 26.1251 31.0108C29.1459 31.0108 32.1667 31.0205 35.1843 31.0076C39.1431 30.9914 43.0049 31.5671 46.7178 32.9546C54.603 35.9011 60.441 41.1633 64.4224 48.5763C69.5002 58.0366 77.2884 64.0233 87.7837 66.3843C89.7598 66.8306 91.8007 66.9827 93.8803 67.2802C93.8803 66.4134 93.8803 65.7374 93.8803 65.013C93.5019 64.9742 93.1526 64.9289 92.8001 64.9062C89.4267 64.7057 86.1698 63.9715 83.0454 62.7069C75.6098 59.6958 70.0533 54.5888 66.3047 47.5122C63.7011 42.5961 60.2113 38.4529 55.6671 35.2316C50.2367 31.3892 44.1983 29.2061 37.5454 28.9376C33.6286 28.7791 29.699 28.8535 25.779 28.8277C25.5979 28.8277 25.4135 28.8632 25.2065 28.8826C25.2065 29.5845 25.2065 30.2443 25.2065 31.0108ZM69.1638 40.7072C69.4582 40.4226 69.6846 40.2124 69.9045 39.9989C71.5249 38.4173 71.5475 37.0719 69.9821 35.4709C67.6567 33.0937 65.328 30.7197 63.0057 28.3393C62.6079 27.9318 62.2295 27.5113 61.8382 27.0908C60.8194 28.1614 59.862 29.164 58.8788 30.1958C62.2489 33.6435 65.687 37.1527 69.1638 40.7072ZM54.244 27.2396C54.3766 26.7868 54.4931 26.4052 54.603 26.0203C55.1399 24.1347 54.4478 22.8927 52.5428 22.3429C49.1015 21.3467 45.657 20.357 42.2125 19.3673C41.8567 19.2638 41.4944 19.1733 41.0934 19.0633C40.6988 20.4444 40.3236 21.7575 39.9355 23.1288C44.7287 24.5034 49.4443 25.8586 54.244 27.2396ZM47.9663 18.6655C48.8234 18.6687 49.4896 18.0057 49.4961 17.1421C49.5026 16.3433 48.8201 15.6544 48.0148 15.6382C47.1545 15.622 46.472 16.2721 46.4494 17.1292C46.43 17.9669 47.1157 18.6623 47.9663 18.6655ZM68.6981 27.3269C67.8604 27.3205 67.1456 28.0223 67.1521 28.8471C67.1553 29.6427 67.841 30.3381 68.6399 30.3607C69.4711 30.3834 70.2021 29.6945 70.2247 28.8697C70.2441 28.0547 69.5326 27.3334 68.6981 27.3269ZM55.3211 32.3724C55.6218 31.7612 55.8903 31.2113 56.162 30.655C55.6607 30.3284 55.2176 30.0373 54.8133 29.7721C54.3993 30.3381 54.0403 30.8265 53.6522 31.3569C54.1988 31.69 54.7357 32.0167 55.3211 32.3724ZM60.5542 36.2698C61.3757 37.0622 62.1519 37.8093 62.9508 38.5791C63.0607 38.4303 63.2224 38.2071 63.3842 37.9807C62.6338 37.2627 61.9061 36.5673 61.1557 35.8525C60.9972 35.9625 60.7838 36.1081 60.5542 36.2698ZM44.5444 27.7248C45.6214 28.045 46.6564 28.349 47.7657 28.6789C47.7981 28.3005 47.8272 27.9867 47.8563 27.6601C46.8634 27.3787 45.9351 27.1135 44.981 26.8418C44.8225 27.162 44.6899 27.4304 44.5444 27.7248ZM42.8237 26.2305C42.1542 26.0332 41.5009 25.8392 40.8443 25.6516C40.6471 25.5966 40.4433 25.5578 40.2363 25.5093C40.1716 26.2855 40.508 26.8289 41.1387 27.0326C41.7823 27.2396 42.3871 26.9679 42.8237 26.2305ZM50.0459 28.3555C49.9715 29.1834 50.4017 29.7688 51.1456 29.8982C51.7892 30.0082 52.3261 29.6815 52.5363 29.012C51.7924 28.7985 51.0518 28.5819 50.3079 28.3716C50.2238 28.349 50.1332 28.3619 50.0459 28.3555ZM57.7856 32.3369C57.3522 33.029 57.446 33.7438 58.0346 34.1966C58.5748 34.6138 59.1666 34.5912 59.6518 34.1254C59.0405 33.5433 58.4292 32.9579 57.7856 32.3369ZM64.8913 39.6237C64.4968 40.3741 64.5873 41.021 65.1469 41.4705C65.6676 41.891 66.2433 41.8845 66.7899 41.4544C66.1657 40.856 65.5447 40.2544 64.8913 39.6237Z" fill="black"/>
<path d="M30.4331 86.4428C29.6699 86.1129 29.4273 85.4887 29.4305 84.5896C29.4467 69.8509 29.4435 55.1122 29.4435 40.3702C29.4435 40.105 29.4305 39.8333 29.4823 39.5778C29.6116 38.9277 29.9868 38.5364 30.5949 38.5817C31.19 38.6237 31.5425 39.0248 31.5943 39.7072C31.6072 39.8916 31.6104 40.0792 31.6104 40.2635C31.6104 55.0572 31.604 69.8476 31.6234 84.6413C31.6234 85.5598 31.3776 86.1679 30.5787 86.4428C30.5302 86.4428 30.4817 86.4428 30.4331 86.4428Z" fill="black"/>
<path d="M62.6856 86.4433C61.8802 86.0616 61.6183 85.1981 61.6312 83.8882C61.6668 79.8453 61.6247 75.7992 61.6668 71.7563C61.6732 71.1192 61.8705 70.3333 62.1519 69.9063C62.3557 69.5991 62.9605 69.5279 63.1804 69.7899C63.4909 70.1618 63.7594 70.9219 63.7852 71.5461C63.8661 73.312 63.8143 75.0974 63.8143 76.873C63.8143 79.1791 63.7852 81.4851 63.8273 83.7879C63.8499 85.0655 63.5912 85.9646 62.8311 86.4465C62.7794 86.4433 62.7341 86.4433 62.6856 86.4433Z" fill="black"/>
<path d="M27.3735 16.5151C28.9 16.7189 30.4751 16.9291 32.0502 17.1394C32.9914 17.2655 33.9294 17.3949 34.8706 17.5242C35.0581 17.5501 35.2457 17.5792 35.4301 17.6277C36.0866 17.8024 36.4036 18.2649 36.3001 18.8826C36.2063 19.4325 35.7082 19.8271 35.0937 19.7462C32.4351 19.4001 29.7798 19.0379 27.1276 18.6562C26.4678 18.5624 26.0668 18.0288 26.1735 17.4596C26.2867 16.8386 26.6878 16.5248 27.3735 16.5151Z" fill="black"/>
<path d="M27.6517 20.3406C30.0936 20.6705 32.7036 21.0133 35.3072 21.3788C36.0091 21.479 36.381 21.9803 36.3034 22.6143C36.2322 23.2061 35.7665 23.5943 35.0744 23.5134C33.0982 23.2805 31.1253 22.9991 29.1524 22.7372C28.5185 22.6531 27.8813 22.5819 27.2506 22.4784C26.5002 22.3555 26.0733 21.8477 26.1671 21.2332C26.2577 20.6284 26.7493 20.292 27.6517 20.3406Z" fill="black"/>
</svg>
