<svg width="120" height="100" viewBox="0 0 120 100" fill="none" xmlns="http://www.w3.org/2000/svg">
<rect width="120" height="100" fill="white"/>
<path d="M34.7043 65.9573C32.9865 65.4036 32.2377 64.206 31.9147 62.4965C30.9226 57.2634 30.7904 51.9946 31.2645 46.7216C31.4574 44.5822 32.0971 42.4763 32.6089 40.3747C33.2004 37.95 33.5758 35.5086 33.5696 33.0084C33.5612 29.189 33.5654 25.3695 33.5675 21.55C33.5675 20.3377 33.8947 20.0042 35.0839 20.0021C41.0512 20 47.0163 19.9979 52.9815 20.0042C56.1004 20.0084 58.1832 22.0555 58.2524 25.1912C58.3279 28.5471 58.8271 31.8129 60.4191 34.8164C62.9507 39.5923 66.9527 42.0631 72.3431 42.3274C74.8999 42.4533 77.4798 42.4407 80.0051 42.7972C85.4648 43.567 88.5606 46.8894 89.4793 52.3742C89.989 55.4155 89.5548 58.3604 89.0703 61.3283C89.0158 61.6639 88.978 62.0015 88.9193 62.3371C88.46 64.9967 87.5098 65.863 84.7433 66.0706C86.1255 68.8183 86.3583 71.6163 85.125 74.452C84.3175 76.3104 83.015 77.7409 81.2615 78.7539C77.7462 80.7822 73.3541 80.2977 70.338 77.55C67.7161 75.161 66.0927 70.7542 68.4733 66.1629C67.8378 65.8462 67.1079 65.6364 66.594 65.1834C66.0906 64.7408 65.7319 64.0843 65.4425 63.4614C65.1174 62.7629 64.6979 62.3812 63.8988 62.3875C61.5706 62.4085 59.2424 62.4022 56.9142 62.3896C56.241 62.3854 55.7082 62.6098 55.4943 63.2663C54.8273 65.3092 53.3989 66.1629 51.3077 66.0329C51.205 66.0266 51.1022 66.0496 50.8924 66.0664C52.2873 68.8036 52.5222 71.5764 51.314 74.3975C50.5275 76.2349 49.2606 77.6632 47.5491 78.6889C44.1533 80.7234 39.7864 80.3606 36.7871 77.8059C33.3955 74.9093 32.6865 70.987 34.7043 65.9573ZM55.834 24.0649C55.3034 22.7728 54.4267 22.2023 53.036 22.2002C47.5155 22.196 41.9971 22.1981 36.4766 22.2002C36.2522 22.2002 36.0278 22.2317 35.7677 22.2506C35.7677 25.9232 35.7509 29.5287 35.7719 33.1364C35.7929 36.7692 34.9916 40.2656 33.9135 43.7369C34.2345 43.8019 34.3855 43.8397 34.5386 43.8607C40.1283 44.5969 44.6777 49.054 45.4579 54.6353C45.5544 55.3232 45.7767 55.468 46.4228 55.468C59.8423 55.4491 73.2639 55.4533 86.6834 55.4533C86.9582 55.4533 87.2351 55.4533 87.5035 55.4533C87.7867 48.9805 83.7239 44.4437 78.0251 44.8423C78.0629 45.5093 78.1216 46.1783 78.1363 46.8495C78.151 47.5711 77.7294 48.064 77.1148 48.1059C76.473 48.15 76.0053 47.6738 75.9465 46.9146C75.8899 46.1616 75.8375 45.4086 75.7788 44.5822C74.3105 44.5822 72.8864 44.5822 71.458 44.5822C71.3405 45.31 71.2399 46.0084 71.1119 46.7006C70.9714 47.4536 70.4365 47.8773 69.8199 47.7514C69.1802 47.6214 68.8488 47.0635 68.9599 46.3063C69.0606 45.6141 69.1592 44.9241 69.2578 44.2466C68.0433 43.8502 66.9107 43.4789 65.7844 43.1098C65.7529 43.1265 65.7215 43.1349 65.711 43.1538C65.4257 43.6509 65.1468 44.1522 64.8594 44.6493C64.4336 45.3813 63.84 45.6036 63.2486 45.2576C62.6948 44.9325 62.5711 44.3179 62.9297 43.6111C63.2087 43.0615 63.5023 42.5183 63.7792 41.9897C62.9822 41.3458 62.2586 40.7627 61.5035 40.1524C60.8784 40.6725 60.2828 41.1801 59.6766 41.673C59.0033 42.2204 58.3867 42.2267 57.9441 41.7087C57.5099 41.2011 57.619 40.5509 58.2461 40.0034C58.8355 39.4917 59.4396 38.9967 60.0311 38.4996C59.4165 37.5075 58.8313 36.5636 58.2251 35.5883C57.3484 36.0707 56.5115 36.5531 55.6558 36.9957C54.9447 37.3627 54.2295 37.1425 54.0177 36.4986C53.8079 35.861 54.0449 35.3827 54.6343 35.0618C55.5677 34.5521 56.4927 34.0299 57.4092 33.516C57.1638 32.6812 56.9436 31.9345 56.7045 31.1228C56.4297 31.169 56.1801 31.2046 55.9305 31.2508C55.1859 31.3913 54.4476 31.5717 53.6967 31.6681C53.1074 31.7437 52.6774 31.4521 52.541 30.8501C52.4173 30.2985 52.6228 29.8622 53.1388 29.621C53.3716 29.512 53.6401 29.4805 53.8939 29.4239C54.6993 29.2498 55.5068 29.0799 56.3123 28.91C56.2263 27.985 56.1508 27.1586 56.0669 26.2546C54.9489 26.3721 53.8897 26.5021 52.8263 26.5923C51.9433 26.6678 51.3895 26.2609 51.3581 25.5687C51.3287 24.9143 51.8153 24.4865 52.6606 24.4005C53.703 24.3019 54.7413 24.1844 55.834 24.0649ZM87.3924 57.6997C69.3815 57.6997 51.4462 57.6997 33.4416 57.6997C33.6891 59.321 33.9135 60.892 34.1694 62.4588C34.396 63.8473 35.8411 64.3612 36.9528 63.4677C40.0297 60.9948 44.3169 60.5963 47.5575 62.7797C48.86 63.6564 50.0975 63.9081 51.5531 63.841C52.7592 63.7865 52.9563 63.6921 53.401 62.5553C53.9841 61.0619 55.1775 60.2103 56.7674 60.1998C59.2005 60.1852 61.6335 60.1852 64.0666 60.1998C65.6376 60.2103 66.81 61.0325 67.3973 62.4861C67.9846 63.9438 69.6353 64.3801 70.8665 63.4026C73.998 60.9172 78.4593 60.6613 81.6894 62.9475C82.6605 63.6355 83.5792 63.9522 84.7097 63.8326C84.8125 63.8221 84.9195 63.8326 85.0243 63.8305C86.0919 63.8179 86.4988 63.4928 86.6666 62.4546C86.9141 60.9067 87.1407 59.3567 87.3924 57.6997ZM35.7006 70.6556C35.6859 74.5695 38.8551 77.7786 42.7438 77.7891C46.6933 77.7975 49.8878 74.6219 49.8962 70.6766C49.9066 66.7817 46.7332 63.6145 42.8047 63.5935C38.8971 63.5725 35.7153 66.7376 35.7006 70.6556ZM83.726 70.7333C83.7973 66.8572 80.6407 63.6522 76.6974 63.5935C72.8402 63.5369 69.5934 66.6747 69.5283 70.5214C69.4633 74.4499 72.5696 77.7157 76.4416 77.787C80.4351 77.8604 83.6526 74.7457 83.726 70.7333ZM43.2661 55.4071C43.092 50.6984 38.5783 46.1427 33.5444 46.0441C33.0515 49.1399 33.3304 52.2589 33.2507 55.4071C36.6381 55.4071 39.9228 55.4071 43.2661 55.4071Z" fill="black"/>
<path d="M45.8711 70.6955C45.8669 72.4511 44.4847 73.804 42.7208 73.7788C41.0344 73.7557 39.6795 72.3525 39.692 70.6368C39.7046 68.9568 41.1183 67.5745 42.8172 67.585C44.5183 67.5997 45.8753 68.9798 45.8711 70.6955ZM43.7737 70.9976C43.7884 70.8717 43.803 70.7459 43.8177 70.62C43.5094 70.3453 43.2409 69.9321 42.8823 69.8293C42.3705 69.6825 41.9783 70.0453 41.9111 70.5802C41.8419 71.1213 42.1398 71.5534 42.6788 71.5282C43.0522 71.5094 43.4087 71.1843 43.7737 70.9976Z" fill="black"/>
<path d="M76.6282 73.7831C74.9398 73.8062 73.5659 72.4428 73.5303 70.7103C73.4967 69.0386 74.8936 67.6103 76.5842 67.5872C78.2852 67.5641 79.6905 68.9254 79.722 70.6264C79.7555 72.3652 78.388 73.76 76.6282 73.7831ZM76.9093 71.585C77.0666 71.35 77.4399 71.0249 77.4903 70.6579C77.5616 70.1356 77.1526 69.7916 76.6114 69.8021C76.0661 69.8126 75.7473 70.1545 75.7557 70.704C75.762 71.2619 76.1017 71.5388 76.9093 71.585Z" fill="black"/>
</svg>
