<svg width="120" height="100" viewBox="0 0 120 100" fill="none" xmlns="http://www.w3.org/2000/svg">
<rect width="120" height="100" fill="white"/>
<path d="M61.3902 57.1517C61.8492 57.1517 62.1796 57.1517 62.5078 57.1517C72.7167 57.1517 82.9256 57.1451 93.1345 57.1695C93.6245 57.1695 94.2121 57.2981 94.5824 57.5863C95.2011 58.0653 95.0348 58.7349 94.7088 59.3891C92.334 64.1277 89.4957 68.5691 86.1807 72.7045C85.959 72.9817 85.7394 73.2611 85.4578 73.6115C87.2517 74.3476 88.9037 75.2412 90.8417 75.2301C90.9237 75.2301 91.008 75.2324 91.09 75.2368C92.0501 75.2789 92.6511 75.8155 92.6222 76.6094C92.5956 77.3788 91.9881 77.9908 91.0922 77.8666C89.5733 77.656 87.9724 77.5229 86.5931 76.9242C83.4489 75.5628 80.4377 75.4985 77.2978 76.8821C74.0205 78.3279 70.6634 78.2768 67.3972 76.8134C64.4015 75.4718 61.5055 75.5095 58.5165 76.8599C55.2214 78.3478 51.8399 78.3234 48.5493 76.8222C45.5248 75.443 42.5956 75.5228 39.591 76.8799C36.4024 78.319 33.1406 78.2902 29.9343 76.9198C28.4664 76.2923 26.9984 75.8133 25.3864 75.7912C24.5349 75.7801 23.9806 75.188 24.0005 74.4518C24.0205 73.6824 24.6458 73.0571 25.5261 73.1901C27.0982 73.4296 28.6859 73.7001 30.1937 74.1835C31.91 74.7335 33.5686 75.4275 35.4223 75.2368C35.6418 75.2146 35.8636 75.1969 36.0809 75.1614C36.1829 75.1437 36.2805 75.0882 36.4667 75.0128C35.6507 74.0882 34.8635 73.2101 34.0941 72.3143C31.3312 69.1035 28.6371 65.8373 26.6037 62.0965C26.0671 61.1076 25.637 60.0499 25.2533 58.9877C24.8986 58.0076 25.4862 57.2205 26.5217 57.1517C26.77 57.1362 27.0206 57.1473 27.269 57.1473C37.3958 57.1473 47.5204 57.1473 57.6473 57.1473C57.9732 57.1473 58.3014 57.1473 58.736 57.1473C58.736 56.6972 58.736 56.3202 58.736 55.9433C58.736 42.191 58.736 28.4387 58.7382 14.6842C58.7382 14.325 58.7294 13.9613 58.7848 13.6088C58.8957 12.9258 59.4788 12.438 60.1219 12.5023C60.796 12.5688 61.2594 12.9302 61.3525 13.6354C61.3991 13.9901 61.3902 14.3538 61.3902 14.713C61.3925 28.4653 61.3924 42.2176 61.3924 55.9721C61.3902 56.3313 61.3902 56.6883 61.3902 57.1517ZM28.4131 59.8414C28.6437 60.296 28.8211 60.6929 29.0384 61.0654C31.7658 65.7641 35.3403 69.7998 38.9968 73.7667C39.1431 73.9241 39.54 73.9995 39.7551 73.9241C42.9792 72.7977 46.1501 72.8354 49.2744 74.2678C52.1947 75.6071 55.0973 75.5361 58.0109 74.2301C61.3193 72.7467 64.6587 72.7245 67.9626 74.2168C70.9716 75.5761 73.9185 75.4896 76.9519 74.239C78.2801 73.6913 79.7458 73.3786 81.1783 73.2123C81.9965 73.117 82.5508 72.8775 83.0741 72.2921C86.3647 68.6223 88.9303 64.4669 91.2851 60.1674C91.3317 60.0831 91.3228 59.9678 91.345 59.8414C70.3773 59.8414 49.4518 59.8414 28.4131 59.8414Z" fill="black"/>
<path d="M63.9736 33.2639C63.9736 26.9554 63.978 20.6447 63.9691 14.3362C63.9691 13.64 64.0046 12.9836 64.7363 12.651C65.4836 12.3117 66.1843 12.4093 66.8251 12.9393C77.5662 21.7933 84.6707 32.8847 87.4802 46.5993C87.8904 48.6038 88.1143 50.6505 87.7374 52.6994C87.5134 53.9167 87.3205 54.0431 86.1054 54.0431C79.3822 54.0387 72.6591 54.0409 65.9359 54.0409C64.3261 54.0409 63.9736 53.6905 63.9736 52.1095C63.9736 45.8277 63.9736 39.5458 63.9736 33.2639ZM66.6766 16.2654C66.6766 28.0863 66.6766 39.6943 66.6766 51.3246C72.872 51.3246 79.0208 51.3246 85.2871 51.3246C83.8148 37.1244 77.2314 25.7536 66.6766 16.2654Z" fill="black"/>
<path d="M55.7957 36.916C55.7957 41.9783 55.7957 47.0406 55.7957 52.1007C55.7957 53.6573 55.4254 54.0387 53.9132 54.0387C48.8242 54.0409 43.7353 54.0409 38.6486 54.0387C36.857 54.0387 36.3425 53.1983 37.1585 51.6151C42.4492 41.384 47.7466 31.1552 53.0329 20.9241C53.3854 20.2434 53.7868 19.6735 54.6649 19.7999C55.421 19.9086 55.7935 20.4984 55.7957 21.5649C55.7979 26.268 55.7979 30.9689 55.7979 35.672C55.7957 36.0867 55.7957 36.5013 55.7957 36.916ZM53.075 51.3401C53.075 43.1291 53.075 35.0312 53.075 26.931C53.0306 26.92 52.9863 26.9066 52.9419 26.8956C48.7422 35.0157 44.5402 43.1335 40.2961 51.3401C44.6467 51.3401 48.8398 51.3401 53.075 51.3401Z" fill="black"/>
<path d="M32.3224 81.9424C33.4067 82.3149 34.5752 82.5366 35.5575 83.0888C38.0854 84.5123 40.4846 84.4946 43.0191 83.0821C45.5292 81.6829 48.1989 81.663 50.709 83.06C53.3034 84.5057 55.7336 84.4769 58.3213 83.04C60.7782 81.6763 63.4036 81.6719 65.8582 83.0333C68.477 84.4879 70.9294 84.4924 73.546 83.0333C75.9696 81.6829 78.5351 81.7428 81.0186 82.9868C82.2891 83.6232 83.5508 84.1886 85.0121 84.2263C85.7483 84.2463 86.2339 84.8671 86.2161 85.5612C86.1984 86.2552 85.6884 86.8029 84.9478 86.845C83.593 86.9226 82.3047 86.6388 81.125 85.9603C79.7303 85.1554 78.2624 84.5811 76.6326 84.8361C75.8055 84.9647 74.9584 85.233 74.2245 85.6299C71.2332 87.242 68.2641 87.2974 65.2884 85.6632C63.1464 84.488 61.0398 84.4946 58.8978 85.6698C55.9199 87.3018 52.9397 87.2597 49.9706 85.6055C47.8929 84.4503 45.8197 84.4724 43.742 85.6432C40.7773 87.3129 37.8193 87.2663 34.8169 85.6632C33.9876 85.2197 33.0164 84.8893 32.0895 84.825C30.9143 84.7452 30.3378 84.0711 30.411 83.3194C30.493 82.479 31.1161 82.0666 32.3224 81.9424Z" fill="black"/>
</svg>
