<svg width="120" height="100" viewBox="0 0 120 100" fill="none" xmlns="http://www.w3.org/2000/svg">
<rect width="120" height="100" fill="white"/>
<path d="M84.3327 27.3071C84.4069 28.3017 84.4792 29.2202 84.5437 30.1386C84.616 31.1607 84.4265 31.3834 83.3829 31.4616C82.6579 31.5163 81.931 31.5437 81.1024 31.5906C81.1728 32.5423 81.249 33.4529 81.3037 34.3655C81.3721 35.4852 81.1357 35.7256 79.9925 35.7725C79.2968 35.8018 78.6011 35.835 77.8507 35.8702C77.9347 36.9176 78.0246 37.8596 78.0793 38.8034C78.1321 39.7141 77.8644 39.9896 76.9694 40.0365C76.1955 40.0775 75.4236 40.1283 74.6009 40.1772C74.6889 41.1914 74.7827 42.1314 74.8471 43.0733C74.9097 43.982 74.6693 44.2477 73.747 44.32C72.9751 44.3806 72.1993 44.4158 71.3648 44.4646C71.4371 45.3303 71.4879 46.1511 71.5778 46.9679C71.7244 48.3222 71.5173 48.5782 70.1826 48.6583C69.5553 48.6954 68.928 48.7618 68.2284 48.8224C68.3046 49.8405 68.3867 50.802 68.4433 51.7674C68.4981 52.6741 68.2499 52.9633 67.3314 53.0043C66.583 53.0376 65.8326 53.0122 64.9767 53.0122C65.0626 54.1104 65.1506 55.0464 65.2072 55.9844C65.2678 56.985 65.0099 57.2468 64.023 57.2937C63.2765 57.3289 62.5281 57.3797 61.7366 57.4266C61.8246 58.4506 61.9184 59.3925 61.9809 60.3344C62.0395 61.2138 61.807 61.4815 60.9433 61.5675C60.1948 61.6437 59.4444 61.6965 58.6022 61.7688C58.6745 62.7517 58.7409 63.6878 58.8113 64.6258C58.8875 65.6282 58.6627 65.8862 57.6583 65.9468C56.9314 65.9898 56.2044 66.0406 55.3758 66.0933C55.4462 67.0528 55.5185 67.9869 55.5791 68.923C55.6436 69.8922 55.4599 70.115 54.4926 70.2928C53.6093 70.455 52.726 70.6211 51.7528 70.8029C51.8173 73.1791 50.3673 74.7288 48.8001 76.253C46.3183 78.6684 43.8873 81.1326 41.4524 83.5948C41.0166 84.0345 40.5789 84.2514 39.9594 84.0853C39.1856 83.8782 38.3902 83.7492 37.6262 83.5167C36.3305 83.1239 35.6603 82.2406 35.6739 80.859C35.6818 80.0793 35.6427 79.2996 35.6427 78.5199C35.6446 77.5682 35.2772 76.8549 34.4506 76.3312C32.8091 75.2955 31.4334 73.9706 30.7514 72.1219C30.3234 70.967 30.1261 69.7261 29.8251 68.5224C29.8017 68.4286 29.7958 68.3289 29.7743 68.2351C29.3815 66.4979 29.1255 66.3161 27.3785 66.703C25.6921 67.0782 24.0252 67.5355 22.3368 67.8931C21.4163 68.0885 20.4862 68.0123 19.6615 67.4671C18.9697 67.0118 18.8368 66.5956 19.1866 65.8608C20.8184 62.439 23.1751 59.6465 26.3721 57.579C26.8157 57.2918 27.2476 56.9576 27.6111 56.5746C30.4211 53.6297 33.2215 50.675 36.0101 47.7085C36.9891 46.667 38.1166 45.9205 39.5471 45.6586C39.8129 45.6098 40.0806 45.4241 40.2897 45.2385C51.4226 35.3445 62.5515 25.4506 73.6649 15.5352C74.3 14.9685 74.8256 14.8356 75.6132 15.2147C79.4297 17.0496 83.2716 18.8318 87.1017 20.6355C88.1277 21.1182 88.1921 21.3488 87.7095 22.3689C87.6118 22.5721 87.6 22.8359 87.6118 23.0685C87.6665 24.0416 87.7486 25.0129 87.813 25.986C87.8658 26.7736 87.5649 27.1097 86.7793 27.1585C86.0035 27.2093 85.2257 27.2543 84.3327 27.3071ZM82.7615 29.738C82.6794 28.7961 82.6189 27.948 82.5309 27.1019C82.4039 25.9079 82.6638 25.5952 83.8422 25.5503C84.5418 25.5229 85.2394 25.4819 86.0054 25.4447C85.9429 24.4227 85.855 23.4788 85.8413 22.533C85.8354 22.0992 85.6771 21.8999 85.298 21.7221C82.0111 20.1919 78.7301 18.6501 75.4588 17.0887C75.0133 16.8757 74.7397 16.9383 74.3762 17.2626C63.8628 26.6348 53.3376 35.9953 42.8106 45.3518C42.6542 45.4906 42.451 45.5766 42.2692 45.686C43.8521 46.3152 44.8214 47.3607 45.7027 48.5215C46.4101 49.4517 47.1332 50.3721 47.8543 51.2925C49.058 52.8285 50.0038 54.5012 50.2618 56.4613C50.6956 59.7423 51.0767 63.0312 51.4597 66.3181C51.5633 67.1974 51.5965 68.0866 51.6649 69.0285C52.4231 68.8839 53.0836 68.7588 53.8047 68.624C53.7128 67.6078 53.6269 66.6425 53.5409 65.6771C53.4568 64.7196 53.7422 64.3737 54.7095 64.3365C55.4579 64.3092 56.2103 64.3307 57.0349 64.3307C56.9333 63.1914 56.8415 62.226 56.7633 61.2587C56.7008 60.481 57.0115 60.1273 57.7814 60.0628C58.5514 60.0003 59.3213 59.9358 60.1616 59.8654C60.0834 58.8668 59.9955 57.9269 59.9388 56.985C59.8782 55.9903 60.142 55.7187 61.123 55.6737C61.8695 55.6405 62.616 55.5897 63.4016 55.5467C63.3156 54.4641 63.216 53.4753 63.1632 52.4826C63.1241 51.7673 63.4211 51.4645 64.1403 51.4117C64.961 51.3511 65.7818 51.3042 66.6514 51.2495C66.5634 50.2529 66.4696 49.3129 66.3993 48.3691C66.3328 47.4838 66.5986 47.1712 67.4917 47.0852C68.2342 47.0148 68.9807 46.9699 69.7878 46.9093C69.7136 45.9068 69.6373 44.9903 69.5768 44.0718C69.5064 43.0146 69.7096 42.7841 70.7864 42.7098C71.5094 42.6609 72.2325 42.6375 73.0278 42.5984C72.9516 41.6272 72.8695 40.7341 72.8148 39.8391C72.7464 38.7135 72.9907 38.4614 74.1104 38.4165C74.8276 38.3872 75.5428 38.3403 76.262 38.3012C76.2248 37.7325 76.2014 37.2948 76.1662 36.859C76.131 36.4213 76.0724 35.9875 76.0451 35.5497C75.9747 34.4378 76.1857 34.2072 77.2801 34.1466C78.0227 34.1056 78.7633 34.047 79.5254 33.9942C79.4375 33.0093 79.3476 32.1124 79.2772 31.2154C79.1971 30.2149 79.4355 29.9256 80.4185 29.8514C81.165 29.7986 81.9173 29.7791 82.7615 29.738ZM21.047 66.0425C21.0802 66.1383 21.1135 66.2321 21.1467 66.3278C22.1843 66.1168 23.2239 65.9175 24.2597 65.6947C25.565 65.4152 26.8567 65.0361 28.1758 64.8466C29.7704 64.6179 30.7221 65.2921 31.2126 66.8262C31.367 67.3108 31.494 67.813 31.5663 68.3152C31.9473 70.969 32.8248 73.3316 35.2831 74.7796C36.8308 75.6922 37.4698 77.064 37.4073 78.815C37.3975 79.0827 37.4112 79.3504 37.4131 79.6181C37.4288 81.8146 37.5011 81.9162 39.6663 82.2504C39.9457 82.2934 40.3503 82.1683 40.5515 81.9709C43.2932 79.2683 46.0115 76.5403 48.7297 73.8162C49.6384 72.9036 50.0918 71.8015 49.9804 70.5098C49.6521 66.7265 49.3199 62.9432 48.9603 59.1619C48.6867 56.2834 47.78 53.6609 45.7985 51.4703C45.1126 50.7141 44.5283 49.8659 43.8795 49.0745C42.0328 46.8233 39.4103 46.7139 37.3838 48.8341C34.521 51.8279 31.6894 54.851 28.8246 57.8429C28.4103 58.2767 27.9276 58.6675 27.4215 58.9899C24.6388 60.7585 22.5752 63.1582 21.047 66.0425Z" fill="black"/>
<path d="M45.9392 68.5618C45.8923 68.9722 45.8571 69.6073 45.7399 70.2248C45.4213 71.923 44.1511 73.0837 42.5135 73.2205C40.8662 73.3573 39.3087 72.3841 38.7381 70.8013C38.4821 70.0939 38.3003 69.3591 38.1284 68.6263C37.507 65.9764 36.2876 63.6139 34.7203 61.4154C33.9289 60.3055 33.7315 59.1095 34.1751 57.8158C34.9118 55.676 36.9383 54.783 38.9863 55.7347C40.7216 56.5417 41.9312 57.9468 43.0294 59.4534C44.9582 62.0974 45.7926 65.1029 45.9392 68.5618ZM44.1765 68.5833C44.028 64.546 42.7363 61.2493 39.9848 58.5995C39.4357 58.0699 38.7674 57.6243 38.0815 57.2824C37.2412 56.8642 36.5045 57.1612 36.0355 57.9702C35.5841 58.7519 35.5704 59.5277 36.096 60.3015C37.4503 62.2987 38.7322 64.3369 39.3966 66.6917C39.7132 67.8153 39.9966 68.9468 40.3366 70.0626C40.616 70.9811 41.427 71.5263 42.3201 71.4716C43.1819 71.4188 43.8052 70.8736 44.0065 69.9239C44.1159 69.404 44.1413 68.8666 44.1765 68.5833Z" fill="black"/>
</svg>
