<svg width="120" height="100" viewBox="0 0 120 100" fill="none" xmlns="http://www.w3.org/2000/svg">
<rect width="120" height="100" fill="white"/>
<path d="M49.5251 17C50.1933 17.1481 50.877 17.2428 51.5262 17.4512C56.2552 18.9649 58.9658 22.2318 59.8303 27.0847C59.9681 27.8631 60.1317 28.6364 60.2815 29.401C62.6098 29.3924 63.8515 30.2138 64.1787 31.9497C64.4835 33.5702 63.557 34.8567 61.5059 35.6024C61.5593 35.902 61.6161 36.212 61.6833 36.5822C62.751 36.5461 63.774 36.7579 64.4404 37.6448C64.8107 38.139 65.112 38.7642 65.2119 39.3686C65.4496 40.8118 64.6212 41.9604 62.9146 42.7371C62.9663 43.054 63.0214 43.3863 63.0834 43.7532C63.3331 43.7979 63.5828 43.8324 63.8273 43.8875C65.1086 44.1768 66.0317 45.1498 66.2504 46.4311C66.4553 47.6314 65.8784 48.9144 64.7573 49.5429C64.3474 49.7737 64.2958 50.0096 64.375 50.4109C65.2274 54.7041 66.0678 58.9974 66.9151 63.2923C67.0753 64.1017 67.5592 64.5185 68.2084 64.4272C68.8749 64.3342 69.2245 63.8193 69.1573 62.9927C68.93 60.1667 68.7044 57.3424 68.4512 54.5199C68.434 54.3321 68.2205 54.0824 68.0362 54.0032C66.7791 53.4659 66.0816 52.3104 66.3227 51.0894C66.5759 49.803 67.6177 48.9763 69.0144 48.9746C73.6968 48.9695 78.381 48.9712 83.0634 48.9729C84.5496 48.9729 85.6122 49.8047 85.8464 51.1342C86.0651 52.381 85.3607 53.4608 84.0175 54.0308C83.8246 54.1134 83.6438 54.42 83.6094 54.6456C83.1874 57.4681 82.8 60.2959 82.3918 63.1219C81.9268 66.3508 81.5497 69.5953 80.9556 72.8002C79.8448 78.7949 74.3771 83.0898 68.155 82.9986C62.1293 82.909 56.777 78.3764 55.8401 72.4402C55.0032 67.1413 54.2885 61.8234 53.5222 56.5124C52.7627 51.2444 52.0067 45.9764 51.249 40.7084C50.5463 35.8228 49.8472 30.9371 49.1411 26.0515C48.9431 24.6807 47.8047 23.8799 46.5372 24.3535C44.481 25.1215 42.3749 25.3368 40.2102 25.2438C39.8881 25.23 39.5644 25.2679 39.2441 25.2421C37.4376 25.0991 35.7499 25.5538 34.0174 26.0308C32.7155 26.389 31.2465 26.3442 29.8792 26.2065C28.2432 26.0429 26.6364 25.5951 25.0193 25.261C24.2633 25.1043 24.0067 24.7874 24.0016 24.0176C23.9964 23.0929 24.005 22.1698 23.9998 21.245C23.9964 20.6509 24.2633 20.2238 24.8471 20.117C27.3924 19.6521 29.8981 18.8203 32.5312 19.0786C33.4336 19.1682 34.3636 19.3369 35.1988 19.6745C37.0311 20.415 38.7395 20.0998 40.2963 19.1113C41.8169 18.1469 43.3479 17.2962 45.1423 17C46.6027 17 48.063 17 49.5251 17ZM37.4307 23.1824C37.8664 23.1824 38.2297 23.1824 38.5931 23.1824C41.1642 23.1841 43.7009 23.21 46.2169 22.3282C48.4815 21.5343 50.7892 23.2169 51.1766 25.6295C51.3764 26.8798 51.5348 28.137 51.7157 29.3889C52.4682 34.6362 53.2242 39.8818 53.9768 45.1291C54.7277 50.354 55.4751 55.5807 56.2276 60.8056C56.7787 64.6287 57.2575 68.4639 57.9136 72.2698C58.7919 77.3638 63.4433 81.0267 68.7216 80.9303C73.8484 80.8373 78.3035 76.9195 79.0509 71.8392C79.4763 68.9512 79.8947 66.0632 80.3063 63.1735C80.7351 60.1805 81.1536 57.184 81.579 54.1599C77.8867 54.1599 74.2238 54.1599 70.5212 54.1599C70.535 54.4751 70.5384 54.7506 70.5626 55.0244C70.7778 57.6352 71 60.2459 71.2135 62.8566C71.3668 64.7303 70.2491 66.2079 68.4891 66.4697C66.7825 66.7245 65.2447 65.5569 64.8847 63.7211C64.0151 59.2798 63.1574 54.835 62.2671 50.3971C62.2103 50.1147 61.9399 49.8581 61.7281 49.6273C61.3268 49.1933 60.7999 48.8437 60.5002 48.3512C60.2143 47.8811 59.9354 47.8845 59.4997 48.0051C60.0197 50.9327 60.5329 53.8276 61.0496 56.719C61.1994 57.5542 60.9204 58.1053 60.2694 58.2276C59.6529 58.343 59.1845 57.9383 59.0416 57.1358C57.3418 47.6538 55.6438 38.1718 53.9475 28.688C53.8201 27.9716 54.1576 27.424 54.7776 27.3207C55.3614 27.2242 55.8401 27.6083 55.9728 28.3057C56.1674 29.3321 56.3499 30.3619 56.5445 31.4314C56.9061 31.4314 57.2265 31.4314 57.545 31.4314C58.3458 31.4297 58.5318 31.2075 58.3803 30.4222C58.1719 29.3476 57.9532 28.2765 57.7534 27.2001C57.0784 23.5871 55.0945 21.0332 51.6554 19.6538C50.0383 19.0063 48.3386 19.0752 46.6406 19.0442C44.9202 19.0132 43.384 19.4575 42.0029 20.4873C40.9731 21.2554 39.7986 21.7203 38.5432 21.9821C38.1746 22.0596 37.7992 22.1044 37.429 22.1629C37.4307 22.5246 37.4307 22.8208 37.4307 23.1824ZM31.622 24.3931C31.6306 24.3207 31.6375 24.2484 31.6461 24.1778C32.8326 24.412 33.8986 24.0021 34.9577 23.5854C35.123 23.52 35.2901 23.2926 35.328 23.1135C35.39 22.8259 35.3658 22.5142 35.3349 22.2163C35.3194 22.0716 35.2332 21.8409 35.1316 21.8116C34.274 21.5619 33.4181 21.2502 32.5398 21.1451C30.6593 20.9195 28.8356 21.4104 27.0084 21.7754C25.9923 21.9787 25.9321 22.0372 26.0767 23.0619C26.0957 23.1996 26.2662 23.4011 26.3936 23.427C28.1329 23.7645 29.8774 24.0762 31.622 24.3931ZM76.0837 52.0624C78.3999 52.0624 80.7179 52.0607 83.0342 52.0641C83.4044 52.0641 83.7764 52.0245 83.7919 51.5733C83.8091 51.0791 83.4251 51.0257 83.0255 51.0274C81.4378 51.0326 79.8517 51.0291 78.2639 51.0291C75.2398 51.0291 72.2141 51.0308 69.19 51.0274C68.8077 51.0274 68.3927 51.0274 68.3686 51.5182C68.3445 52.0142 68.7388 52.0624 69.1349 52.0624C71.4512 52.0607 73.7674 52.0624 76.0837 52.0624ZM56.9182 33.5513C57.223 35.2579 57.5244 36.9404 57.8309 38.6574C58.1409 38.6574 58.3958 38.6574 58.6507 38.6574C59.2121 38.6557 59.8492 38.0288 59.7287 37.476C59.4842 36.3549 59.4842 35.1977 58.642 34.1937C58.1202 33.5702 57.688 33.4273 56.9182 33.5513ZM59.1225 45.911C59.5548 45.8645 60.0576 45.9592 60.2677 45.7525C60.6414 45.3874 61.0926 44.8191 61.0547 44.3748C60.9772 43.4742 61.022 42.4168 59.9887 41.864C59.7976 41.7624 59.6254 41.5316 59.553 41.3215C59.3085 40.6137 58.8108 40.6413 58.2098 40.7825C58.5112 42.4736 58.8074 44.1337 59.1225 45.911ZM62.1517 32.4801C62.1586 31.9222 61.6954 31.4503 61.1374 31.4434C60.5777 31.4365 60.1076 31.8981 60.1007 32.4578C60.0938 33.0157 60.557 33.4893 61.115 33.4945C61.6712 33.5014 62.1448 33.0364 62.1517 32.4801ZM62.1707 38.6608C61.611 38.6522 61.1391 39.112 61.1305 39.6734C61.1219 40.2314 61.5834 40.705 62.1414 40.7136C62.6976 40.7222 63.1729 40.259 63.1815 39.701C63.1919 39.143 62.7304 38.6695 62.1707 38.6608ZM64.2148 46.9322C64.2303 46.3759 63.774 45.8955 63.2143 45.88C62.6563 45.8645 62.1776 46.3191 62.1621 46.8788C62.1466 47.4368 62.6029 47.9172 63.1609 47.931C63.7171 47.9482 64.1993 47.4902 64.2148 46.9322Z" fill="black"/>
<path d="M76.6022 63.2855C76.8777 61.355 77.1516 59.4245 77.4271 57.494C77.4943 57.0273 77.5511 56.5589 77.632 56.0939C77.7388 55.4826 78.1934 55.1123 78.7462 55.164C79.3283 55.2174 79.7554 55.7064 79.671 56.3385C79.3438 58.7598 78.996 61.1776 78.6309 63.5937C78.5465 64.1517 78.0264 64.4944 77.5046 64.4273C76.9501 64.3566 76.5815 63.89 76.6022 63.2855Z" fill="black"/>
</svg>
