<svg width="120" height="100" viewBox="0 0 120 100" fill="none" xmlns="http://www.w3.org/2000/svg">
<rect width="120" height="100" fill="white"/>
<path d="M24 32.735C24.0411 32.681 24.0982 32.6322 24.1196 32.5713C24.757 30.8258 25.8461 30.0471 27.7421 30.0088C28.6437 29.9913 29.5471 30.0053 30.4505 30.0053C50.2643 30.0053 70.0799 30.0035 89.8937 30.0105C90.4597 30.0105 91.0489 30.0175 91.588 30.1638C93.0377 30.5558 93.8287 31.5679 94.1143 32.9789C95.0409 37.5673 95.9657 42.1558 96.8816 46.7477C96.9584 47.1309 96.9941 47.5281 96.9941 47.9201C97.0012 52.0939 97.0012 56.2678 96.9977 60.4399C96.9959 63.14 95.3855 64.7078 92.6128 64.7165C91.9719 64.7182 91.3292 64.7357 90.6882 64.7095C90.2972 64.6938 90.1062 64.7949 89.9973 65.2025C89.2742 67.9375 87.4889 69.6446 84.6841 70.3362C81.2455 71.1846 77.3302 68.9287 76.4804 65.5631C76.3179 64.9186 76.0805 64.6938 75.3681 64.6973C67.9553 64.7269 53.4012 64.7165 45.9884 64.7113C45.6599 64.7113 45.2457 64.76 45.0225 64.5928C44.7065 64.3559 44.3834 63.9605 44.3316 63.5964C44.2602 63.1051 44.6369 62.7341 45.1796 62.654C45.4599 62.6121 45.7474 62.6243 46.033 62.6243C53.469 62.6226 68.0482 62.6156 75.4842 62.6383C76.0716 62.64 76.3001 62.4763 76.4393 61.9241C77.1981 58.933 79.9993 56.8217 83.1648 56.8043C86.2998 56.7869 89.1564 58.9208 89.9509 61.8718C90.0169 62.1139 90.0901 62.3543 90.1651 62.6139C91.181 62.6139 92.1558 62.6487 93.1252 62.6034C94.0411 62.5616 94.8142 61.8822 94.8302 61.0287C94.8731 58.6682 94.8445 56.3061 94.8445 53.876C93.5858 53.7854 92.3611 53.7209 91.1399 53.6077C87.3996 53.2593 83.6861 52.7733 80.1743 51.3692C79.453 51.0818 78.7674 50.7038 78.0872 50.3275C76.8143 49.622 76.2322 48.5124 76.2304 47.1066C76.2233 43.5128 76.2162 39.919 76.234 36.3253C76.2412 34.9752 77.0285 34.2558 78.4336 34.254C82.7345 34.2505 87.0336 34.2523 91.3345 34.2523C91.5916 34.2523 91.8505 34.2523 92.1094 34.2523C92.013 32.5085 91.5827 32.0974 89.9152 32.0974C69.3408 32.0974 48.7646 32.0974 28.1902 32.0974C26.4888 32.0974 26.1335 32.4423 26.1335 34.0903C26.1335 42.971 26.1335 51.85 26.1335 60.7308C26.1335 62.2219 26.5459 62.6209 28.0867 62.6226C28.9883 62.6243 29.8881 62.6226 30.6826 62.6226C31.1289 61.6697 31.4288 60.7203 31.9698 59.9295C33.6659 57.4471 36.119 56.4158 39.1041 56.9593C41.966 57.4819 43.8174 59.2327 44.5726 61.999C44.7136 62.5129 44.935 62.6609 45.4456 62.6331C46.108 62.5947 46.7757 62.6156 47.4399 62.6313C48.0701 62.647 48.4754 62.9466 48.5361 63.5842C48.5932 64.1817 48.1986 64.6416 47.5184 64.6904C46.7864 64.7426 46.0455 64.7339 45.31 64.706C44.8725 64.6886 44.7083 64.8315 44.5958 65.253C43.8852 67.8991 42.1588 69.5871 39.4504 70.2979C35.9333 71.2211 32.0144 69.0245 31.1039 65.577C30.9218 64.8872 30.6576 64.6398 29.9184 64.6973C29.0222 64.767 28.1117 64.7478 27.2136 64.6747C25.4908 64.5353 24.5267 63.4762 24 61.9537C24 52.2141 24 42.4746 24 32.735ZM78.3693 36.3444C78.3693 36.6859 78.3693 36.9367 78.3693 37.1858C78.3693 40.0357 78.3693 42.8857 78.3693 45.7356C78.3693 48.258 78.5193 48.4758 80.9081 49.4217C80.9295 49.4304 80.9527 49.4356 80.9759 49.4443C83.7932 50.5644 86.7604 51.0487 89.7598 51.3675C91.4274 51.5452 93.1038 51.6532 94.7624 51.7925C94.7624 50.1516 94.9659 48.5542 94.7213 47.0264C94.1857 43.6922 93.3948 40.3963 92.7682 37.0743C92.6485 36.4368 92.3843 36.3288 91.7987 36.3322C88.1655 36.3549 84.5323 36.3444 80.9009 36.3444C80.0939 36.3444 79.2888 36.3444 78.3693 36.3444ZM32.941 63.6748C32.9535 66.286 35.1102 68.3939 37.7883 68.4113C40.4752 68.4287 42.6908 66.2704 42.6819 63.6434C42.673 61.0234 40.427 58.8581 37.7561 58.8964C35.0888 58.9348 32.9285 61.0774 32.941 63.6748ZM88.0566 63.6608C88.0566 61.0583 85.8928 58.9226 83.2255 58.8964C80.5528 58.8703 78.314 61.0409 78.3157 63.6591C78.3157 66.2651 80.4653 68.3764 83.154 68.4095C85.8374 68.4444 88.0566 66.2947 88.0566 63.6608Z" fill="black"/>
<path d="M39.3558 49.3191C36.5314 49.3191 33.7052 49.3226 30.8808 49.3174C29.365 49.3156 28.7276 48.6902 28.7259 47.2008C28.7223 43.5862 28.7205 39.9732 28.7259 36.3586C28.7276 34.8848 29.3811 34.256 30.8986 34.2542C36.5725 34.2525 42.2463 34.2525 47.9202 34.2542C49.4324 34.2542 50.0715 34.8848 50.0733 36.3743C50.0769 39.9889 50.0787 43.6018 50.0733 47.2165C50.0715 48.7007 49.4341 49.3139 47.9023 49.3156C45.0529 49.3226 42.2053 49.3191 39.3558 49.3191ZM30.9165 36.3743C30.9165 40.0185 30.9165 43.5966 30.9165 47.1834C33.3999 47.1834 35.8333 47.1834 38.2739 47.1834C38.2739 43.5566 38.2739 39.9802 38.2739 36.3743C35.8066 36.3743 33.391 36.3743 30.9165 36.3743ZM47.8952 36.3812C45.4242 36.3812 42.9908 36.3812 40.5163 36.3812C40.5163 39.9959 40.5163 43.5722 40.5163 47.1904C42.989 47.1904 45.4225 47.1904 47.8952 47.1904C47.8952 43.5757 47.8952 39.9976 47.8952 36.3812Z" fill="black"/>
<path d="M62.8689 49.3188C60.0409 49.3188 57.2147 49.3223 54.3867 49.3171C52.8334 49.3153 52.2318 48.7248 52.23 47.2093C52.2282 43.5929 52.2264 39.9747 52.23 36.3583C52.2318 34.8567 52.8495 34.2557 54.3974 34.2557C60.0516 34.254 65.7076 34.254 71.3618 34.2557C72.9347 34.2557 73.556 34.8584 73.5596 36.4036C73.5649 39.9974 73.5649 43.5911 73.5596 47.1849C73.556 48.7265 72.94 49.3153 71.3511 49.3171C68.5231 49.3206 65.6951 49.3188 62.8689 49.3188ZM54.392 47.1831C56.8897 47.1831 59.3214 47.1831 61.8084 47.1831C61.8084 46.4428 61.8012 45.7512 61.8102 45.0596C61.8191 44.4116 61.8012 43.7601 61.8726 43.119C61.9351 42.5598 62.3493 42.2498 62.9117 42.2672C63.5027 42.2846 63.8776 42.6208 63.9312 43.2253C63.9526 43.4779 63.9472 43.734 63.9472 43.99C63.949 45.0492 63.9472 46.1083 63.9472 47.1918C66.4735 47.1918 68.9069 47.1918 71.3761 47.1918C71.3761 43.5685 71.3761 39.9869 71.3761 36.3844C68.8962 36.3844 66.461 36.3844 63.9401 36.3844C63.9401 37.0865 63.9669 37.7536 63.9329 38.4191C63.8972 39.1351 63.3759 39.5409 62.6957 39.4225C62.0298 39.3058 61.8352 38.8198 61.8155 38.2484C61.7941 37.6317 61.8102 37.015 61.8102 36.3931C59.2803 36.3931 56.8469 36.3931 54.392 36.3931C54.392 39.9991 54.392 43.5615 54.392 47.1831Z" fill="black"/>
<path d="M78.3193 55.5082C77.9248 55.4908 77.5695 55.4943 77.2178 55.456C76.6108 55.3863 76.2715 55.0257 76.2751 54.4386C76.2805 53.8533 76.6125 53.4701 77.2285 53.4405C77.9105 53.4056 78.5996 53.4056 79.2816 53.4422C79.9012 53.4753 80.2207 53.869 80.2225 54.4508C80.2225 54.9996 79.919 55.3671 79.3388 55.4438C78.9888 55.4891 78.6336 55.4891 78.3193 55.5082Z" fill="black"/>
</svg>
