<svg width="120" height="100" viewBox="0 0 120 100" fill="none" xmlns="http://www.w3.org/2000/svg">
<rect width="120" height="100" fill="white"/>
<path d="M64.6573 67.5577C63.2478 65.641 61.8677 63.7592 60.4417 61.8186C59.0156 63.7555 57.6245 65.6465 56.2242 67.5466C56.645 68.0906 57.0953 68.607 57.4738 69.173C59.657 72.4367 59.5816 76.6688 57.3011 79.8976C55.0702 83.0547 51.0842 84.5708 47.3666 83.6777C43.4781 82.7423 40.6114 79.6018 40.0876 75.7041C39.2533 69.478 44.4962 64.1764 50.7057 64.9849C51.189 65.0474 51.3801 64.8967 51.5712 64.4741C52.8944 61.554 54.2359 58.6413 55.5994 55.7414C55.8107 55.2912 55.785 54.9696 55.5149 54.5543C52.196 49.464 49.1161 44.2358 46.6518 38.6677C45.099 35.1595 43.7905 31.5724 43.2062 27.7611C42.8294 25.2949 42.7229 22.8214 43.5535 20.4159C44.2279 18.457 45.3415 16.8564 47.5228 16.1305C51.8322 25.6478 56.1434 35.1687 60.5152 44.8239C64.8998 35.1963 69.2294 25.69 73.6416 16C74.3069 16.43 74.9905 16.7516 75.5216 17.2404C77.3004 18.8796 77.9087 21.0518 78.0686 23.3691C78.3442 27.3917 77.3004 31.1865 75.9277 34.9059C73.728 40.8673 70.626 46.3712 67.2778 51.7464C66.6714 52.7185 66.0263 53.6667 65.4346 54.6462C65.3133 54.8447 65.238 55.1828 65.3225 55.3776C66.7008 58.5733 68.1084 61.7561 69.5124 64.9408C69.5308 64.9813 69.5694 65.0107 69.6319 65.086C72.3296 64.6468 74.8435 65.1871 77.0763 66.8355C78.8698 68.1604 80.0643 69.9099 80.634 72.0783C81.7605 76.3693 79.7611 80.8128 75.7476 82.9279C71.8499 84.9825 67.061 84.0122 64.1354 80.6327C61.3917 77.4609 60.6769 71.8762 64.6573 67.5577ZM74.4337 18.9201C67.0426 35.075 59.6809 51.1693 52.321 67.2545C47.8371 65.6594 43.9614 68.1935 42.6163 71.2716C41.0873 74.7742 42.2506 78.7564 45.4003 80.7687C48.6291 82.8287 52.7859 82.2296 55.3072 79.3335C56.5146 77.9479 57.1247 76.3142 57.143 74.4875C57.1724 71.6336 55.8493 69.4615 53.5578 67.8315C53.736 67.5999 53.861 67.4364 53.9859 67.2747C59.0983 60.6756 63.8946 53.8578 68.0827 46.6284C71.0266 41.5473 73.6766 36.3246 75.2478 30.6279C75.9902 27.9393 76.457 25.2104 76.0049 22.4098C75.8009 21.1381 75.4609 19.9106 74.4337 18.9201ZM46.6205 18.7933C46.2622 19.3979 45.8947 19.815 45.7495 20.3001C45.4169 21.4101 45.0346 22.5403 44.9556 23.6815C44.7149 27.1528 45.6356 30.4478 46.7841 33.6765C49.0646 40.0772 52.4037 45.9393 56.0055 51.6637C56.2683 52.0826 56.5385 52.4961 56.8582 52.9941C57.0071 52.6964 57.1118 52.4998 57.2037 52.2995C57.8855 50.8 58.5489 49.2912 59.2545 47.8027C59.4493 47.3929 59.4456 47.0676 59.2582 46.6542C56.2224 39.9926 53.2012 33.3219 50.1783 26.6548C49.0169 24.0913 47.8591 21.5295 46.6205 18.7933ZM67.3972 67.905C67.0848 68.1806 66.811 68.4195 66.5409 68.6621C64.3449 70.6339 63.5142 73.0854 64.0435 75.9742C64.7675 79.9105 68.8012 82.621 72.7136 81.8823C77.4475 80.9892 79.6122 76.5825 78.9562 73.0982C78.0741 68.4232 73.796 65.8009 69.2073 67.1001C68.713 67.2397 68.476 67.1956 68.2793 66.6921C67.9632 65.8836 67.5663 65.1062 67.2043 64.3142C66.098 61.9013 64.9899 59.4903 63.8487 57.0021C63.1008 58.0955 62.3969 59.1246 61.6821 60.1721C63.5841 62.743 65.4622 65.2845 67.3972 67.905Z" fill="black"/>
<path d="M49.5976 68.8461C52.7528 68.881 55.1271 71.3049 55.1032 74.4675C55.0793 77.5217 52.5691 79.9327 49.4597 79.8868C46.3706 79.8409 43.9486 77.3398 44.0147 74.2617C44.0809 71.1909 46.5342 68.8112 49.5976 68.8461ZM49.4009 77.9572C51.494 77.9609 53.1112 76.3879 53.1002 74.3591C53.091 72.4056 51.5051 70.7867 49.5957 70.7811C47.5596 70.7738 45.959 72.3358 45.9388 74.3517C45.9185 76.307 47.5008 77.9536 49.4009 77.9572Z" fill="black"/>
<path d="M61.7336 54.1999C61.7299 54.72 61.3348 55.1133 60.8202 55.1114C60.3094 55.1096 59.9088 54.7053 59.9106 54.1926C59.9124 53.6762 60.3057 53.2866 60.8276 53.2866C61.3458 53.2866 61.7372 53.6799 61.7336 54.1999Z" fill="black"/>
<path d="M71.5063 79.8883C68.4539 79.8956 65.962 77.3982 65.962 74.3293C65.9602 71.2843 68.4318 68.8641 71.5651 68.8439C74.6046 68.8237 77.0909 71.288 77.0983 74.322C77.1038 77.4534 74.6634 79.8809 71.5063 79.8883ZM71.5283 70.7789C69.5602 70.7569 67.9246 72.3557 67.9081 74.322C67.8916 76.2607 69.562 77.9275 71.5522 77.9569C73.4928 77.9844 75.1283 76.3783 75.1724 74.3992C75.2128 72.4714 73.5332 70.8028 71.5283 70.7789Z" fill="black"/>
</svg>
