<svg width="120" height="100" viewBox="0 0 120 100" fill="none" xmlns="http://www.w3.org/2000/svg">
<rect width="120" height="100" fill="white"/>
<path d="M30.2638 89.9999C28.9241 89.5362 27.8853 88.6767 27.1454 87.4916C24.3877 83.0809 23.3489 78.3137 24.4063 73.1858C24.9421 70.5806 26.3292 68.5092 28.7036 67.1633C28.92 67.0417 29.0766 66.6419 29.0869 66.3637C29.1385 64.9766 29.1014 63.5874 29.155 62.2003C29.2353 60.131 29.8743 58.2204 30.9357 56.4479C31.4984 55.508 32.1291 55.2483 32.7886 55.6626C33.4275 56.0645 33.4956 56.7158 32.9267 57.6124C31.2428 60.2711 31.3459 63.2143 31.4613 66.1493C32.7247 66.1493 33.9222 66.1493 35.2392 66.1493C35.2516 65.904 35.266 65.6114 35.2784 65.3208C35.3258 64.0903 35.2104 62.8269 35.4494 61.6335C36.2265 57.734 40.3074 55.5142 44.0564 56.8498C44.178 56.8931 44.31 56.9219 44.413 56.992C45.3632 57.6515 46.1216 57.3692 46.7296 56.4994C46.8595 56.3139 46.9316 56.0192 46.8925 55.8007C46.8162 55.3761 46.5318 54.968 46.5338 54.5538C46.538 53.7046 46.0495 53.449 45.359 53.2182C42.3375 52.2103 39.4417 52.4494 36.6531 53.987C36.4965 54.0735 36.3481 54.1786 36.1873 54.259C35.5422 54.5826 34.9053 54.4239 34.5776 53.8654C34.2437 53.2986 34.3962 52.672 35.0249 52.2722C36.7912 51.1468 38.7224 50.4997 40.8123 50.341C42.8384 50.1884 44.8025 50.4832 46.5194 51.1819C47.5232 49.8813 48.4671 48.655 49.4276 47.4122C45.9856 46.0519 42.4756 46.0107 38.9574 47.6059C38.2484 47.9274 37.4507 48.183 36.684 48.2139C34.7507 48.2923 33.0627 46.9443 32.5846 45.1079C32.0899 43.2035 32.8937 41.2414 34.6374 40.3139C37.8588 38.6011 41.3111 37.8262 44.9551 37.9169C47.2078 37.9725 49.3884 38.4259 51.5216 39.137C51.8802 39.2566 52.2471 39.3555 52.6923 39.4874C52.9231 36.5133 54.3288 34.3533 56.9175 33.0012C55.2336 29.5263 56.7959 25.8988 60.3574 24.588C59.5412 22.4774 59.5845 20.4184 61.0107 18.5635C62.4349 16.7085 64.3723 16.0366 66.7281 16.3458C67.2455 13.3387 68.9252 11.3766 72.0312 11.0385C74.587 10.7624 76.477 11.9846 77.7919 14.2497C79.4655 13.5798 81.1473 13.586 82.7611 14.4269C84.3523 15.2534 85.3437 16.5849 85.7703 18.3223C86.6421 18.4233 87.4892 18.4563 88.3075 18.6294C91.7329 19.3549 93.895 21.719 94.4185 25.5031C94.9688 29.4809 94.1918 33.2465 92.038 36.6431C91.4836 37.517 90.6323 38.3105 89.7378 38.8361C88.3116 39.677 87.178 39.0484 86.8297 37.4305C86.6854 36.7544 86.6133 36.0598 86.469 35.3838C86.1701 33.9905 85.3086 33.028 84.0101 32.5272C80.7805 31.2823 79.0821 28.9718 78.9564 25.5093C78.9544 25.433 78.9276 25.3588 78.9028 25.2393C77.1406 24.7858 75.7824 23.7677 74.9724 22.2301C73.7667 22.3703 72.6331 22.5001 71.5799 22.6238C71.1161 23.5925 70.7802 24.7384 70.0918 25.602C69.3993 26.4697 68.3564 27.0571 67.3547 27.8589C68.311 30.361 67.8205 32.758 65.6234 34.7202C66.0397 35.4724 66.5241 36.1732 66.8291 36.944C67.1362 37.719 67.2681 38.564 67.4928 39.4317C68.7047 39.0979 69.9454 38.698 71.213 38.4177C76.1163 37.3295 80.8176 37.9746 85.2962 40.2129C87.4294 41.2785 88.2559 43.7641 87.2316 45.8561C86.1949 47.9748 83.7257 48.8652 81.5266 47.7894C78.0413 46.0869 74.5169 46.0024 70.91 47.2968C70.7925 47.34 70.6792 47.3978 70.6689 47.4019C71.6108 48.62 72.5568 49.8442 73.5812 51.1674C75.2424 50.4976 77.1715 50.2214 79.1708 50.3162C85.1746 50.6006 90.5375 55.811 90.9147 61.8066C91.0095 63.3195 90.9539 64.8405 91.0116 66.3554C91.0219 66.6336 91.1785 67.0335 91.3929 67.1572C94.3505 68.841 95.6325 71.5534 95.9849 74.7666C96.4322 78.8372 95.5913 82.6914 93.6868 86.3065C92.8191 87.9533 91.6855 89.3548 89.8368 89.9937C89.4246 89.9937 89.0144 89.9937 88.6022 89.9937C87.955 89.5671 87.5428 88.9776 87.4088 88.2109C87.3243 87.7307 87.2728 87.2443 87.1986 86.762C87.0214 85.616 86.7678 84.501 85.8012 83.5034C85.1746 84.0847 84.5501 84.6082 83.9957 85.1956C83.5217 85.6985 83.1589 86.3044 82.689 86.8135C81.7285 87.8585 80.6032 87.9244 79.7169 86.8197C79.1295 86.086 78.6782 85.1544 78.4515 84.2413C77.9197 82.1081 78.2041 79.9543 78.6143 77.819C78.6741 77.5099 78.6658 77.1554 78.5751 76.8545C77.4745 73.1961 78.7771 69.5047 81.9614 67.4086C82.3489 67.153 82.5303 66.8995 82.5159 66.4275C82.4829 65.3496 82.5241 64.2676 82.5014 63.1876C82.4231 59.5477 79.0306 57.666 75.8483 59.4859C75.8483 59.5333 75.8318 59.5889 75.8504 59.6281C77.3158 62.8743 76.6769 65.7721 74.4324 68.4288C74.2015 68.703 74.0408 69.0925 73.9831 69.4511C73.6286 71.6503 72.9484 73.7423 71.9179 75.7126C71.079 77.3203 70.0897 78.8248 68.5213 79.8265C66.3881 81.1868 64.8876 80.449 64.6506 77.9571C64.5269 76.6545 64.4465 75.3437 63.686 74.1936C63.3975 73.7587 63.0821 73.6083 62.5483 73.633C61.087 73.7031 59.6195 73.7587 58.1603 73.6907C56.7196 73.6248 56.5444 73.6598 55.9921 75.0201C55.8766 75.3045 55.7695 75.5993 55.7241 75.9002C55.6025 76.7122 55.5118 77.5284 55.4191 78.3446C55.2047 80.1954 54.0073 80.9993 52.3419 80.1769C51.3423 79.6822 50.4025 78.8928 49.6914 78.0251C47.7066 75.6075 46.7358 72.7179 46.1402 69.6799C46.0371 69.1585 45.7857 68.6205 45.4621 68.198C44.5532 67.017 43.8338 65.7577 43.5824 64.2799C43.3 62.6187 43.5371 61.0152 44.3079 59.5147C41.0803 57.6618 37.6775 59.5498 37.6033 63.1834C37.5806 64.2634 37.6218 65.3434 37.5888 66.4234C37.5744 66.8954 37.7517 67.151 38.1412 67.4065C41.3255 69.5026 42.6261 73.1858 41.5275 76.8524C41.4368 77.1533 41.4636 77.4975 41.4842 77.819C41.5976 79.6328 41.814 81.4445 41.8181 83.2582C41.8202 84.5525 41.3956 85.7974 40.4723 86.7847C39.4479 87.8791 38.3638 87.8729 37.3621 86.7579C36.8819 86.224 36.5026 85.5975 36.008 85.0781C35.4762 84.5216 34.8641 84.0414 34.2705 83.5137C33.2853 84.6123 33.0318 85.7789 32.8814 86.9887C32.7391 88.1347 32.6299 89.2992 31.5005 89.9917C31.0862 89.9999 30.676 89.9999 30.2638 89.9999ZM60.6789 54.5064C57.7975 54.5043 55.5881 54.797 53.4446 55.4833C50.9363 56.2871 48.6341 57.4537 46.9914 59.6054C45.3446 61.7634 45.3776 64.282 47.0347 66.4337C48.226 67.9816 49.8006 69.0472 51.5773 69.7788C57.1318 72.0646 62.7276 72.0728 68.3069 69.8716C70.166 69.1378 71.8169 68.0475 73.0597 66.4337C74.7354 64.2572 74.7312 61.7263 73.0618 59.5415C72.1219 58.3131 70.908 57.4166 69.558 56.6973C66.588 55.1144 63.3789 54.5455 60.6789 54.5064ZM30.3937 87.6668C30.4843 87.2773 30.5359 87.133 30.5482 86.9846C30.8492 83.4437 32.5701 81.0261 35.9812 79.7812C38.1927 78.9732 39.6416 76.6834 39.5922 74.342C39.5386 71.8255 38.3514 69.9643 36.0657 68.9173C32.2486 67.1716 27.704 69.2883 26.7373 73.3589C25.645 77.9592 26.6157 82.2647 29.1034 86.2405C29.4085 86.7249 29.8784 87.1041 30.3937 87.6668ZM89.6575 87.4339C89.7378 87.4772 89.8203 87.5184 89.9007 87.5617C90.4386 86.8609 91.0734 86.2158 91.5 85.4532C93.3632 82.106 94.1176 78.5033 93.658 74.6965C93.2107 70.9887 91.1744 68.9359 87.6356 68.4515C84.3214 67.9981 81.4771 69.82 80.6795 72.9116C79.9086 75.9022 81.5534 78.8125 84.6243 80.0017C87.0296 80.9333 88.6269 82.6357 89.2308 85.1853C89.4081 85.9231 89.5173 86.6816 89.6575 87.4339ZM71.0996 54.7949C71.6211 53.3748 71.45 52.0475 70.539 50.9139C69.9372 50.1658 69.2261 49.43 68.41 48.9436C63.9333 46.2724 59.1805 46.091 54.3102 47.6574C52.4759 48.2469 50.8312 49.1971 49.6357 50.7697C48.7062 51.9919 48.4527 53.3295 49.003 54.7908C56.3878 51.2973 63.7046 51.2952 71.0996 54.7949ZM89.0907 36.6926C89.5152 36.1629 89.8821 35.8043 90.1336 35.3756C91.9102 32.3541 92.6419 29.0914 92.0978 25.6206C91.6072 22.4877 89.5523 20.7874 86.4319 20.7235C85.9826 20.7152 85.7703 20.8142 85.6178 21.2882C85.0139 23.1658 83.7608 24.4561 81.8687 25.0579C81.3823 25.2125 81.2318 25.4433 81.2834 25.9359C81.5018 28.0609 82.6045 29.5015 84.5852 30.2683C86.8688 31.1504 88.3095 32.7436 88.7918 35.1653C88.8825 35.6085 88.967 36.0537 89.0907 36.6926ZM51.9008 46.1116C54.4957 44.908 57.2019 44.3824 59.9988 44.3762C62.8245 44.3701 65.5574 44.8915 68.2698 46.0313C68.2245 45.3903 68.2286 44.6978 67.9071 44.2258C67.4289 43.525 66.8209 42.7872 66.0892 42.41C64.8752 41.7855 63.5252 41.4145 62.2206 40.9775C61.4745 40.7282 61.1076 40.25 61.2601 39.5637C61.4003 38.933 61.9279 38.597 62.6781 38.7289C63.4304 38.8608 64.1745 39.0504 65.0339 39.238C64.8567 37.5892 64.1312 36.3257 62.7833 35.4642C61.0767 34.376 59.2898 34.3203 57.5317 35.3323C56.0642 36.1773 55.2563 37.4737 55.0625 39.2627C55.7118 39.0979 56.2456 38.9495 56.7876 38.8258C58.016 38.5476 58.6508 38.7743 58.8343 39.541C59.0342 40.3737 58.5725 40.8168 57.2926 41.0909C55.6376 41.4454 54.0856 42.039 52.8613 43.2653C52.109 44.0217 51.635 44.8997 51.9008 46.1116ZM88.6166 66.1514C88.6166 64.7746 88.697 63.3895 88.6022 62.0169C88.124 55.102 80.3889 50.5512 74.1088 53.4717C73.9274 53.5562 73.7234 53.7458 73.6719 53.9272C73.4596 54.6836 73.2988 55.4565 73.1236 56.2109C73.8223 57.3383 74.6776 57.5238 75.9638 56.926C77.6683 56.1325 79.4861 56.2747 81.1721 57.1486C83.5753 58.3976 84.7851 60.4113 84.816 63.1216C84.8284 64.1377 84.8181 65.1559 84.8181 66.1514C86.1392 66.1514 87.3388 66.1514 88.6166 66.1514ZM51.1073 41.4557C49.1658 40.7488 47.0759 40.2933 44.9056 40.2335C41.7377 40.1469 38.7389 40.823 35.907 42.2472C35.1506 42.6285 34.7219 43.2426 34.759 44.0959C34.792 44.875 35.1753 45.5593 35.9317 45.7365C36.5047 45.8705 37.2323 45.8355 37.762 45.5923C40.396 44.3824 43.129 43.8404 46.0062 44.1866C47.1686 44.3268 48.3105 44.6359 49.3163 44.8379C49.9057 43.7291 50.4849 42.6346 51.1073 41.4557ZM70.8111 44.8936C70.8317 44.8874 71.0048 44.8482 71.1738 44.7946C75.0033 43.6239 78.7215 43.8939 82.3366 45.6273C83.5485 46.2085 84.6738 45.8726 85.1623 44.8235C85.6466 43.7847 85.1767 42.7398 83.9627 42.14C81.3617 40.8559 78.6019 40.2273 75.7102 40.2191C73.3606 40.2129 71.0852 40.6622 68.9912 41.464C69.6012 42.614 70.1907 43.7249 70.8111 44.8936ZM62.1443 22.0426C62.1402 23.442 62.7152 24.2644 64.0137 24.757C64.3476 24.8848 64.6506 25.1012 64.9886 25.2104C65.3864 25.3361 65.8254 25.5113 66.2149 25.4516C68.0513 25.1713 69.2632 23.4564 69.0283 21.5685C68.8077 19.8063 67.1774 18.4584 65.407 18.5779C63.5685 18.7036 62.1485 20.2103 62.1443 22.0426ZM72.8021 13.314C70.9162 13.3078 69.5209 14.53 69.1313 16.084C68.7129 17.7576 70.3989 18.2852 70.8132 19.491C70.8894 19.7156 71.1821 19.8702 71.3861 20.0433C71.4397 20.0887 71.5304 20.0887 71.6046 20.1093C73.0041 20.4823 74.2139 20.1237 75.1538 19.052C76.1225 17.9472 76.2873 16.6529 75.6814 15.3214C75.0816 14.0106 73.9851 13.3882 72.8021 13.314ZM79.9066 23.036C81.5224 23.0236 82.7673 22.1868 83.3053 20.9296C83.8453 19.6662 83.5732 18.1204 82.588 17.1537C81.5431 16.1294 80.2982 15.8161 78.9173 16.3458C78.6596 16.4447 78.3628 16.8157 78.3381 17.0857C78.2289 18.2976 77.8208 19.3652 77.12 20.3545C76.984 20.5462 76.9489 20.9461 77.0541 21.1542C77.7012 22.3991 78.775 22.9948 79.9066 23.036ZM65.6069 30.2744C65.4853 28.774 64.6382 27.4982 63.3088 26.9603C61.9836 26.4244 60.479 26.7562 59.4876 27.8032C58.5045 28.842 58.2675 30.3775 58.8734 31.6677C59.0898 32.1253 59.3619 32.3149 59.9266 32.3458C60.8623 32.3973 61.8104 32.5705 62.707 32.8446C63.8426 33.195 64.1868 33.1888 64.8278 32.1541C65.1823 31.5873 65.3534 30.9072 65.6069 30.2744ZM48.836 71.1577C49.7182 73.767 50.6663 76.2897 52.9458 78.019C53.3415 76.3351 53.7105 74.7563 54.0753 73.1961C52.4615 72.5654 50.7075 71.8832 48.836 71.1577ZM66.0294 73.1899C66.4004 74.7955 66.7611 76.3639 67.1486 78.0375C69.424 76.2361 70.4319 73.767 71.2336 71.168C69.3993 71.8811 67.6453 72.5633 66.0294 73.1899ZM39.52 80.3335C38.4565 80.9972 37.459 81.6196 36.5088 82.2132C37.3044 83.1077 38.1123 84.0146 38.9718 84.9792C39.7076 83.456 39.6437 81.9144 39.52 80.3335ZM81.1226 84.9957C82.0109 83.9919 82.8209 83.0747 83.5814 82.2153C82.5963 81.597 81.6131 80.9807 80.5805 80.3335C80.4466 81.8979 80.4074 83.4313 81.1226 84.9957Z" fill="black"/>
<path d="M50.8065 63.4886C50.8065 63.1547 50.7653 62.8146 50.8148 62.489C50.9137 61.85 51.3136 61.4626 51.9669 61.4729C52.6162 61.4811 53.0366 61.8665 53.0881 62.5158C53.1417 63.1794 53.1294 63.8493 53.0964 64.515C53.0613 65.1704 52.5523 65.6403 51.9422 65.6115C51.2868 65.5806 50.8993 65.2034 50.8148 64.5645C50.7674 64.212 50.8065 63.8472 50.8065 63.4886C50.8045 63.4886 50.8065 63.4886 50.8065 63.4886Z" fill="black"/>
<path d="M66.9961 63.5293C66.9961 63.1954 66.9652 62.8594 67.0044 62.5297C67.0786 61.8804 67.4681 61.4909 68.1173 61.4723C68.7707 61.4538 69.2118 61.8351 69.2736 62.474C69.3416 63.1851 69.3457 63.9147 69.2695 64.6237C69.2015 65.2585 68.7521 65.6336 68.0947 65.6027C67.4434 65.5718 67.0662 65.174 67.0002 64.5268C66.9693 64.1991 66.9961 63.8632 66.9961 63.5293Z" fill="black"/>
<path d="M31.1752 58.1966C31.811 56.8173 33.831 53.8078 36.8247 52.8038" stroke="black" stroke-width="2.1" stroke-linecap="round"/>
</svg>
