<svg width="120" height="100" viewBox="0 0 120 100" fill="none" xmlns="http://www.w3.org/2000/svg">
<g clip-path="url(#clip0_11_126)">
<rect width="120" height="100" fill="white"/>
<path d="M84.9206 38.8283C79.8699 33.809 73.6341 30.8114 68.2377 30.8084C68.151 29.7156 67.8838 28.6725 67.4624 27.7103C67.5112 27.6693 67.5597 27.6275 67.6057 27.5815L71.3552 23.8552C72.2427 22.9732 72.2427 21.5433 71.3552 20.6613C70.4675 19.7796 69.0292 19.7796 68.1415 20.6613L64.7043 24.0773C63.0157 22.6945 60.8537 21.8631 58.5001 21.8631C56.1464 21.8631 53.9846 22.6945 52.2959 24.0773L48.8586 20.6616C47.9709 19.7798 46.5326 19.7798 45.6449 20.6616C44.7574 21.5435 44.7574 22.9734 45.6449 23.8554L49.3944 27.5817C49.4404 27.6275 49.4889 27.6695 49.5377 27.7106C49.116 28.6727 48.8491 29.7158 48.7624 30.8086C43.366 30.8116 37.1303 33.8093 32.0795 38.8286C23.8132 47.044 21.5369 57.6531 26.898 62.9811C28.7875 64.8587 31.4197 65.8513 34.5101 65.8513C37.8386 65.8513 41.4868 64.71 44.9795 62.6588V65.7315C44.9795 72.3709 49.8511 77.8974 56.2277 78.975V83.7417C56.2277 84.9889 57.245 86 58.5001 86C59.7551 86 60.7724 84.9889 60.7724 83.7417V78.975C67.149 77.8974 72.0206 72.3709 72.0206 65.7315V62.6588C75.5133 64.71 79.1615 65.8513 82.49 65.8513C82.4902 65.8513 82.4902 65.8513 82.4905 65.8513C85.5804 65.8513 88.2123 64.8589 90.1021 62.9811C95.4629 57.6529 93.1869 47.0438 84.9206 38.8283ZM58.5001 36.7656C58.0229 35.6134 57.2799 34.5707 56.3824 33.6786C55.4998 32.8017 54.4537 32.1206 53.2763 31.6405C53.276 31.6181 53.2737 31.5964 53.2737 31.574C53.2737 28.7099 55.6181 26.38 58.5001 26.38C61.382 26.38 63.7264 28.7099 63.7264 31.574C63.7264 31.5964 63.7241 31.6184 63.7238 31.6408C62.5464 32.1206 61.5003 32.8019 60.6177 33.6788C59.7202 34.5707 58.9772 35.6134 58.5001 36.7656ZM58.5001 46.2204C59.0223 47.9542 59.8036 49.7253 60.8307 51.4773C60.0815 51.6036 59.2995 51.6731 58.5001 51.6731C57.7006 51.6731 56.9189 51.6036 56.1694 51.4773C57.1965 49.7256 57.9778 47.9542 58.5001 46.2204ZM30.1118 59.787C26.6715 56.3678 29.0445 48.2324 35.2933 42.022C39.4498 37.8911 44.6139 35.3248 48.7703 35.3248C50.6557 35.3248 52.1353 35.8455 53.1687 36.8722C56.6089 40.2915 54.236 48.4268 47.9872 54.6373C43.8307 58.7681 38.6666 61.3342 34.5101 61.3342C32.6246 61.3344 31.1449 60.814 30.1118 59.787ZM67.4759 65.7312C67.4759 70.6498 63.4492 74.6516 58.5001 74.6516C53.5509 74.6516 49.5242 70.6498 49.5242 65.7312V64.9741C51.8956 66.4701 55.024 67.3685 58.5001 67.3685C61.9761 67.3685 65.1045 66.4701 67.4759 64.9741V65.7312ZM58.5001 62.852C54.5526 62.852 51.0079 61.1973 49.8904 59.0632C50.3346 58.6672 50.7723 58.2571 51.2007 57.8314C51.9697 57.0669 52.6866 56.2819 53.3506 55.4823C54.9306 55.9383 56.6663 56.19 58.4998 56.19C60.3335 56.19 62.0699 55.9392 63.65 55.4832C64.3137 56.2826 65.0304 57.0674 65.7992 57.8314C66.2276 58.2571 66.6653 58.6672 67.1095 59.0632C65.9922 61.197 62.4475 62.852 58.5001 62.852ZM86.8883 59.787C85.8552 60.8138 84.3755 61.3346 82.4902 61.3344C78.3335 61.3344 73.1694 58.7683 69.0129 54.6375C62.7639 48.4271 60.3909 40.2917 63.8314 36.8725C64.8646 35.8457 66.3442 35.3251 68.2298 35.3251C72.3863 35.3251 77.5503 37.8911 81.7068 42.0222C87.9559 48.2326 90.3286 56.3678 86.8883 59.787Z" fill="black"/>
</g>
<defs>
<clipPath id="clip0_11_126">
<rect width="120" height="100" fill="white"/>
</clipPath>
</defs>
</svg>
