<svg width="120" height="100" viewBox="0 0 120 100" fill="none" xmlns="http://www.w3.org/2000/svg">
<g clip-path="url(#clip0_93_2070)">
<rect width="120" height="100" fill="white"/>
<path d="M57.2394 49.2202C57.5462 48.8542 57.679 48.6712 57.8369 48.5134C64.5931 41.7517 71.3369 34.9775 78.1236 28.2463C79.3956 26.9851 80.5187 25.6647 81.195 23.9963C81.4982 23.2464 82.0113 22.71 82.6876 22.2507C84.5588 20.9841 86.3869 19.6547 88.2347 18.3541C88.947 17.8518 89.1748 17.8733 89.7937 18.4868C90.4145 19.1022 91.0227 19.7265 91.647 20.3365C92.0668 20.7473 92.1134 21.1689 91.7725 21.6497C90.2853 23.7505 88.8142 25.8603 87.309 27.9467C87.1117 28.2212 86.7888 28.4526 86.4748 28.5854C84.5068 29.4232 82.9226 30.731 81.4228 32.2506C74.8478 38.9082 68.2099 45.503 61.5899 52.1158C61.4016 52.3041 61.1683 52.4494 60.9226 52.6432C61.2921 53.0325 61.5774 53.3088 61.8375 53.6084C62.53 54.4085 62.5749 55.4975 61.9631 56.3281C61.2006 57.3651 60.0973 57.7597 59.1016 57.252C58.6083 57.0009 58.1705 57.0278 57.6915 57.1659C55.5979 57.7669 54.0856 59.7224 53.9636 62.1533C53.8721 63.9796 53.1545 65.4525 51.8753 66.7245C47.6522 70.9207 43.4506 75.1402 39.2382 79.349C37.4747 81.1107 35.4062 81.9198 32.9502 81.1125C29.05 79.828 27.7242 74.8155 30.4027 71.6221C30.5606 71.4338 30.7292 71.2526 30.9032 71.0785C35.1909 66.7873 39.484 62.5013 43.7681 58.2065C44.9648 57.008 46.4018 56.4017 48.0828 56.3066C50.4598 56.172 52.3705 54.5736 52.8836 52.2413C52.9715 51.8449 52.9051 51.3569 52.7526 50.9748C52.3382 49.936 52.6414 48.874 53.6729 48.0828C54.5071 47.4423 55.6392 47.4782 56.4393 48.2102C56.712 48.4649 56.9129 48.804 57.2394 49.2202ZM45.4151 58.9348C46.208 61.3047 46.0035 62.1461 44.2149 63.9348C41.6207 66.5289 39.0283 69.1249 36.4324 71.7172C35.2286 72.9192 33.8418 73.2027 32.2523 72.5658C32.0801 72.4976 31.7267 72.5784 31.6119 72.7165C30.7292 73.775 30.4117 75.0128 30.6987 76.3566C31.0539 78.016 32.0335 79.1875 33.6947 79.645C35.3327 80.0953 36.7051 79.5212 37.8945 78.4107C37.1123 76.5378 37.2558 75.1851 38.4184 74.0118C41.2511 71.1503 44.1054 68.3104 46.9579 65.4669C47.8675 64.5591 48.9798 64.2685 50.2248 64.5053C50.6087 64.5788 50.9747 64.7528 51.3622 64.8856C52.0045 64.0926 52.2682 63.2046 52.3418 62.2143C52.5696 59.1411 53.9815 56.8825 56.9291 55.7199C57.0026 55.6912 57.06 55.6249 56.9937 55.6751C56.1128 54.7924 55.2391 53.9187 54.3726 53.0504C54.4085 53.0074 54.3672 53.0361 54.3547 53.0756C53.2836 56.0895 51.1667 57.7203 47.9626 57.9374C47.0135 58.0019 46.1273 58.271 45.4151 58.9348ZM59.8892 51.6045C60.1224 51.3479 60.2965 51.1434 60.4866 50.9532C67.4941 43.9422 74.5105 36.9401 81.5036 29.9147C82.3199 29.0949 83.1684 28.3611 84.2502 27.9377C85.5024 27.448 86.4138 26.6138 87.1296 25.4692C87.9351 24.1811 88.8698 22.9755 89.7435 21.7322C89.8799 21.5385 90.0001 21.3339 90.079 21.212C89.6215 20.7617 89.2161 20.3616 88.7873 19.9382C87.1296 21.1079 85.4127 22.283 83.7443 23.5209C83.2832 23.8635 82.8311 24.3353 82.5997 24.8502C81.8247 26.5743 80.6873 27.9808 79.3507 29.3048C72.5478 36.0467 65.7951 42.8353 59.0173 49.6023C58.8325 49.7871 58.5778 49.9037 58.3894 50.0311C58.9599 50.6303 59.3869 51.0788 59.8892 51.6045ZM33.2337 71.1844C34.0517 71.4356 34.7173 71.1611 35.3075 70.5673C37.5501 68.3194 39.7962 66.075 42.0405 63.8307C42.5931 63.2764 43.1582 62.7346 43.6928 62.1641C44.283 61.5344 44.396 60.8562 44.0893 60.3342C40.4887 63.933 36.8737 67.5461 33.2337 71.1844ZM50.0131 66.1306C49.2345 65.9154 48.5815 66.1163 48.0164 66.6832C46.9292 67.7758 45.8366 68.8647 44.7477 69.9555C43.0577 71.6455 41.3677 73.3372 39.676 75.0272C39.0983 75.6031 38.8615 76.2615 39.1001 77.0437C42.742 73.4 46.3551 69.7869 50.0131 66.1306ZM60.8705 55.0902C60.7198 54.857 60.6427 54.6973 60.5279 54.57C60.3036 54.3224 60.0578 54.0928 59.821 53.856C58.384 52.4171 56.9452 50.9819 55.51 49.5413C55.1602 49.1897 54.8265 49.1754 54.4677 49.5306C54.1501 49.8445 54.0515 50.1639 54.4013 50.5137C56.1074 52.2216 57.8064 53.9349 59.5322 55.6195C59.6775 55.7612 60.0525 55.8222 60.2355 55.7379C60.4848 55.6195 60.6517 55.3253 60.8705 55.0902Z" fill="black"/>
</g>
<defs>
<clipPath id="clip0_93_2070">
<rect width="120" height="100" fill="white"/>
</clipPath>
</defs>
</svg>
