<svg width="120" height="100" viewBox="0 0 120 100" fill="none" xmlns="http://www.w3.org/2000/svg">
<rect width="120" height="100" fill="white"/>
<path d="M82.9564 64.9988C82.825 66.1813 82.7138 67.3739 82.5724 68.5564C82.4511 69.5267 82.3096 70.4969 82.1581 71.4671C82.0368 72.215 81.6326 72.397 80.9454 72.023C77.4591 70.1634 75.5594 67.2526 75.236 63.311C75.1349 62.1386 75.0036 60.9764 74.852 59.804C74.7206 58.7327 74.2255 57.813 73.2857 57.2874C72.0023 56.5698 70.6583 55.9634 69.3346 55.3166C69.1224 55.2155 68.8899 55.165 68.607 55.0741C68.7182 54.6597 68.8293 54.2756 68.9506 53.8511C70.9817 54.3969 72.8209 55.2054 74.4882 56.5294C75.2865 55.8118 76.0848 55.0943 76.9236 54.3262C77.2166 54.6496 77.4794 54.9326 77.7926 55.2863C76.9842 56.0241 76.196 56.7518 75.5392 57.3582C75.8827 58.7327 76.1859 59.996 76.5093 61.2897C77.2469 60.7641 78.0149 60.2083 78.8537 59.6221C79.0962 59.9556 79.3286 60.2891 79.6115 60.6631C78.7122 61.32 77.8532 61.9769 76.964 62.5833C76.6305 62.8158 76.4991 63.0584 76.58 63.4525C76.7316 64.1903 76.8629 64.9281 77.0246 65.767C77.8431 65.3324 78.5404 64.9584 79.3084 64.5542C79.5105 64.918 79.7126 65.2717 79.9349 65.676C79.1265 66.1207 78.3787 66.5351 77.5804 66.9697C78.3585 68.5059 79.5206 69.5974 81.0263 70.5272C81.1779 69.2841 81.3395 68.1218 81.4406 66.9596C81.7235 63.8669 81.7438 60.7945 81.3193 57.7018C80.7433 53.5884 78.3181 51.1324 74.559 49.768C72.548 49.0403 70.052 48.6462 68.2836 48.7978C68.1927 49.3739 68.1118 49.9702 68.0007 50.5564C67.3843 53.74 65.8584 56.3879 63.4331 58.5811C60.442 61.2796 57.2791 63.7052 53.6816 65.5446C53.5907 65.5951 53.4997 65.6558 53.3583 65.7366C54.6214 67.4447 55.1065 69.3751 54.682 71.4267C54.4092 72.7305 53.9949 74.0444 53.429 75.2572C51.9435 78.4307 49.7204 81.0887 47.2446 83.5447C47.1133 83.6761 46.992 83.8277 46.8606 83.9692C46.6383 83.9692 46.4261 83.9692 46.2038 83.9692C45.3448 82.9585 44.5263 81.9276 44.2333 80.5834C43.8695 78.9562 44.0817 77.3695 44.587 75.8231C45.1124 74.2162 45.7693 72.6395 46.2543 71.0123C46.4665 70.3049 46.4463 69.5166 46.4261 68.7687C46.416 68.3644 46.1735 68.1319 45.6177 68.2128C42.2223 68.6979 38.9988 68.2734 36.1693 66.1813C32.5719 63.5334 31.3593 59.8242 31.6119 55.5086C31.6321 55.1145 31.6321 54.7102 31.7433 54.3464C31.9049 53.8006 31.5917 53.5783 31.1875 53.5378C30.5913 53.4873 29.9445 53.4368 29.3887 53.5985C27.873 54.0533 26.3875 54.6294 24.8818 55.1347C23.0932 55.7512 21.2743 56.1555 19.3745 55.7108C18.1821 55.4278 17.1716 54.8012 16.2924 53.9623C15.9589 53.6389 15.8781 53.2852 16.2217 52.9415C19.233 49.8893 22.4768 47.1807 26.5997 45.7456C29.0654 44.8865 31.5007 44.7248 34.1988 46.5541C34.9769 45.2604 35.7247 43.9364 36.5432 42.663C38.2409 40.0353 40.2215 37.6299 42.4649 35.4569C43.1924 34.7494 44.0817 34.2239 44.8901 33.5872C45.0518 33.4659 45.264 33.2233 45.2337 33.0717C44.8194 30.8988 44.1423 28.8269 42.8994 26.9572C42.0202 25.6231 40.7773 25.1278 39.2716 24.9661C37.675 24.8044 36.0582 24.6629 34.4919 24.3294C31.3997 23.6624 29.3483 21.641 27.8932 18.9223C27.6001 18.3665 27.7618 17.9319 28.358 17.8409C33.5016 17.0122 38.6451 16.527 43.8089 17.6893C47.8408 18.5888 50.0842 21.3681 51.4585 25.0268C52.1759 26.937 52.5195 28.928 52.5296 30.9695C52.5296 31.1616 52.5498 31.3536 52.5599 31.6063C54.9347 31.5658 57.2083 31.9297 59.4517 32.7887C59.9064 31.0706 60.6542 29.5647 61.6849 28.2003C63.231 26.1385 65.1813 24.8246 67.8289 24.7236C70.9716 24.6124 73.4575 26.0273 74.5387 28.5338C75.8322 31.5254 75.236 34.9617 73.0432 37.1346C71.4668 38.6911 69.6377 39.8331 67.4853 40.4092C67.4045 40.4294 67.3337 40.4698 67.2731 40.5002C67.5561 41.6624 67.8895 42.7843 68.0815 43.9364C68.2735 45.0684 68.3241 46.2206 68.4352 47.3626C69.6175 47.4839 70.8301 47.5547 72.0226 47.7366C74.0638 48.0499 75.9636 48.7776 77.7421 49.8489C80.3998 51.4457 81.9054 53.8006 82.4511 56.8124C82.6633 58.005 82.8048 59.2178 82.9867 60.4104C82.9564 61.9466 82.9564 63.4727 82.9564 64.9988ZM67.0912 46.9988C66.97 45.9578 66.9194 44.9168 66.7274 43.8859C65.9392 39.7017 63.9081 36.3766 59.9468 34.4665C56.8041 32.9606 53.4896 32.6068 50.0741 33.1627C47.6185 33.567 45.3549 34.4361 43.5461 36.1947C40.1811 39.4693 37.3516 43.1481 35.3104 47.4031C33.643 50.8798 32.5315 54.4879 33.0064 58.4295C33.451 62.1993 36.1794 65.484 39.8274 66.5755C42.9398 67.5053 45.9916 67.0606 49.0029 66.0803C53.6311 64.5744 57.6125 61.9466 61.2504 58.7731C62.6752 57.53 64.1304 56.297 65.1005 54.6294C66.4546 52.2745 67.0104 49.7074 67.0912 46.9988ZM51.1452 31.586C51.4282 29.5344 50.5793 25.8252 49.3263 23.5209C47.9318 20.9437 45.8501 19.367 42.9499 18.8111C40.4034 18.326 37.8468 18.2149 35.2801 18.3766C33.3601 18.4978 31.4401 18.7202 29.3988 18.9021C30.3689 20.4687 31.4704 21.641 33.0266 22.4091C33.4712 21.6006 33.8957 20.8426 34.3302 20.0442C34.7445 20.2766 35.0881 20.4788 35.4519 20.6809C35.0375 21.449 34.6637 22.1464 34.2291 22.965C35.0476 23.1166 35.7651 23.248 36.4725 23.3996C36.8565 23.4805 37.1091 23.3592 37.3415 23.0155C37.9478 22.1262 38.6047 21.257 39.2615 20.3474C39.6455 20.6203 39.9689 20.8527 40.3125 21.1054C39.7162 21.9341 39.1605 22.7224 38.6249 23.4602C39.979 23.7938 41.2522 24.1071 42.6164 24.4406C43.2228 23.7735 43.9402 22.9852 44.6779 22.1868C45.0215 22.5001 45.3145 22.773 45.6379 23.0661C44.88 23.9049 44.1726 24.7034 43.435 25.5119C45.1528 27.6343 45.9714 30.1105 46.5271 32.6574C48.1036 32.2935 49.6193 31.9398 51.1452 31.586ZM68.3847 26.0476C66.7881 26.0476 65.4643 26.4215 64.5043 27.1896C62.6247 28.6854 61.402 30.6259 60.7856 32.9504C60.7452 33.1223 60.8967 33.4558 61.0483 33.5467C63.3725 34.8101 65.151 36.599 66.4142 38.9235C66.495 39.0751 66.8386 39.2267 67.0104 39.1863C69.284 38.5799 71.2444 37.4277 72.6794 35.558C74.2962 33.4457 74.2558 31.111 73.1644 28.7764C72.1741 26.6337 70.1935 26.2194 68.3847 26.0476ZM52.1456 66.3633C50.5692 66.909 49.0737 67.4245 47.669 67.9096C47.7398 68.7585 47.8004 69.5974 47.8711 70.4565C48.7806 70.4565 49.7507 70.4565 50.7511 70.4565C50.7511 70.881 50.7511 71.265 50.7511 71.7501C49.6294 71.7501 48.528 71.7501 47.4467 71.7501C47.0122 72.9225 46.608 73.9938 46.1735 75.146C47.285 75.0854 48.3158 75.0247 49.397 74.9641C49.4172 75.429 49.4476 75.8231 49.4678 76.2476C48.1743 76.3386 46.9617 76.4295 45.7389 76.5205C45.1528 78.5924 45.1124 80.5329 46.6181 82.3723C47.4265 81.4526 48.2349 80.6036 48.9726 79.694C50.8016 77.4503 52.4185 75.0854 53.2067 72.2555C53.7827 70.1331 53.6311 68.1218 52.1456 66.3633ZM32.0565 52.2947C32.5517 50.8595 33.067 49.3638 33.6329 47.7063C32.9559 47.3727 32.2687 46.9482 31.5209 46.7057C29.9142 46.1902 28.3277 46.4732 26.7917 47.0493C23.2549 48.3834 20.385 50.6877 17.7172 53.2953C17.697 53.3256 17.7071 53.3862 17.697 53.4469C19.2633 54.7405 21.0621 54.7911 22.9416 54.3767C23.3458 54.2857 23.4974 54.1038 23.5176 53.6793C23.558 52.6181 23.6591 51.567 23.7298 50.4654C24.2048 50.5058 24.5989 50.5462 25.0132 50.5867C24.9526 51.6883 24.8919 52.6889 24.8313 53.7804C25.8418 53.4064 26.7412 53.0325 27.6709 52.7293C28.0852 52.5979 28.1963 52.3857 28.1862 51.9814C28.1559 51.0516 28.1761 50.1319 28.1761 49.2122C28.742 49.2122 29.126 49.2122 29.5302 49.2122C29.5302 50.2228 29.5302 51.183 29.5302 52.0724C30.3892 52.1532 31.2077 52.224 32.0565 52.2947Z" fill="black"/>
<path d="M35.9066 55.6197C36.1794 55.4782 36.3512 55.3974 36.5129 55.3064C39.0392 53.8005 41.5655 52.2946 44.0716 50.7685C44.3242 50.6169 44.5667 50.3339 44.6577 50.061C45.1629 48.6258 45.5974 47.1604 46.1027 45.7252C46.2341 45.3412 46.133 45.1289 45.8703 44.8763C44.688 43.714 43.5158 42.5416 42.3436 41.3692C41.7777 40.8032 41.7676 40.591 42.2829 39.9947C42.6972 39.5197 43.1318 39.0649 43.5461 38.5798C46.4766 35.194 50.3166 34.3552 54.5506 34.7392C55.6622 34.8403 56.7839 35.1233 57.855 35.477C61.0281 36.5281 63.231 38.6303 64.3729 41.7836C65.6866 45.4119 65.727 49.0402 64.2213 52.618C63.8474 53.5074 63.3422 54.4069 62.6752 55.0941C58.8352 59.0762 54.4597 62.3103 49.2454 64.2609C46.5776 65.2514 43.829 65.7567 40.9794 65.1604C37.6345 64.453 35.1386 61.7242 34.6737 58.3081C34.2695 55.3367 34.9668 52.5574 36.0682 49.8387C37.1495 47.1806 38.6249 44.7449 40.3731 42.4001C40.5549 42.5214 40.7267 42.6326 40.8884 42.7538C41.0501 42.865 41.1916 42.9964 41.4038 43.1581C38.7562 46.8976 36.4927 50.8291 35.9066 55.6197ZM42.6568 64.079C42.7175 64.0285 42.9297 63.9375 43.0307 63.7657C44.7082 60.9662 46.3755 58.1565 48.0227 55.3367C48.1136 55.1851 48.0631 54.8213 47.9418 54.6899C47.093 53.7904 46.2139 52.9111 45.3145 52.0621C45.1831 51.9408 44.8294 51.8802 44.6779 51.9611C41.8484 53.6287 39.0291 55.3064 36.2198 57.0144C36.0581 57.1054 35.9167 57.3884 35.9268 57.5703C36.0986 61.0975 39.019 63.978 42.6568 64.079ZM55.6723 36.2249C54.8235 38.3675 53.9746 40.4798 53.1561 42.6123C53.0955 42.7741 53.2269 43.1076 53.3683 43.2491C54.4799 44.3911 55.6218 45.4928 56.7334 46.6247C57.0163 46.9077 57.2386 46.9279 57.5822 46.7864C58.8453 46.2609 60.1186 45.7656 61.3919 45.2603C62.17 44.947 62.9582 44.6337 63.716 44.3305C62.9177 39.6005 59.9367 37.0233 55.6723 36.2249ZM49.3161 54.1037C49.4677 54.0633 49.5486 54.043 49.6294 54.0127C51.1351 53.5175 52.6509 53.0425 54.1565 52.527C54.3384 52.4664 54.5304 52.2441 54.6113 52.0419C55.0862 50.8089 55.5511 49.5557 55.9755 48.3024C56.0462 48.1003 55.9654 47.7365 55.8138 47.5849C54.6921 46.4226 53.5502 45.2805 52.3881 44.1688C52.2365 44.0172 51.8728 43.9363 51.6707 44.0071C50.4378 44.4215 49.205 44.8661 47.9924 45.3513C47.7498 45.4422 47.4972 45.705 47.4063 45.9476C46.901 47.3827 46.4261 48.828 45.9814 50.2833C45.9208 50.4956 45.9915 50.8493 46.1431 51.0009C47.0627 51.9611 48.0126 52.8909 48.9625 53.8207C49.0736 53.942 49.2151 54.0329 49.3161 54.1037ZM58.3401 57.2772C57.1881 56.1351 56.0866 55.0234 54.9548 53.942C54.8336 53.8207 54.5102 53.8106 54.3283 53.8611C52.853 54.3159 51.3877 54.7909 49.9326 55.3064C49.6799 55.3974 49.4172 55.6298 49.2757 55.8623C47.7397 58.4193 46.224 60.9763 44.6981 63.5434C44.6172 63.6747 44.5667 63.8264 44.4859 63.9982C48.8109 63.7253 54.5506 60.5821 58.3401 57.2772ZM54.3283 36.043C50.1145 35.3658 45.8197 37.2255 43.5259 40.6719C44.6475 41.7937 45.7591 42.9257 46.901 44.0273C47.0223 44.1385 47.3456 44.1486 47.5275 44.0778C48.7806 43.6432 50.0336 43.2086 51.2664 42.7134C51.5393 42.6022 51.8222 42.3091 51.9435 42.0262C52.5094 40.7022 53.0146 39.3681 53.5401 38.034C53.8029 37.3771 54.0656 36.7201 54.3283 36.043ZM63.9586 45.7454C63.8676 45.7454 63.7969 45.7353 63.7464 45.7555C61.7253 46.554 59.7043 47.3423 57.6832 48.1609C57.5115 48.2317 57.3498 48.4338 57.279 48.6157C56.794 49.8993 56.3292 51.1828 55.8744 52.4765C55.8239 52.6382 55.8037 52.901 55.8946 52.9919C57.0264 54.1542 58.1885 55.2963 59.3001 56.408C63.0794 53.7904 64.3224 50.1216 63.9586 45.7454Z" fill="black"/>
<path d="M67.5661 27.1797C67.7581 27.5941 67.9299 27.9377 68.132 28.3521C67.4247 28.6856 66.7476 29.009 66.0302 29.3526C65.8382 28.9383 65.6664 28.5744 65.4744 28.1803C66.1716 27.8366 66.8386 27.5233 67.5661 27.1797Z" fill="black"/>
<path d="M72.8309 32.374C72.4874 33.1118 72.1741 33.7688 71.8305 34.4863C71.4263 34.2943 71.0625 34.1225 70.6583 33.9305C70.9918 33.223 71.3152 32.556 71.6587 31.8384C72.0528 32.0203 72.3964 32.182 72.8309 32.374Z" fill="black"/>
</svg>
