<svg width="120" height="100" viewBox="0 0 120 100" fill="none" xmlns="http://www.w3.org/2000/svg">
<rect width="120" height="100" fill="white"/>
<path d="M34.2864 55.6367C33.6093 53.2901 32.9298 51.0648 32.345 48.8153C32.1848 48.2013 32.1703 47.4806 32.3232 46.8667C32.6483 45.5611 33.8156 44.7457 35.1406 44.7142C36.5675 44.6802 37.7396 45.4592 38.1739 46.8424C38.8073 48.8614 39.3752 50.8998 39.9721 52.9285C40.0571 53.2149 40.142 53.5013 40.2633 53.9065C41.6563 53.5085 43.0104 53.1251 44.362 52.732C46.944 51.9821 49.5236 51.2177 52.1105 50.4824C52.5837 50.3465 52.8458 50.1621 52.9962 49.6307C54.5396 44.1779 60.7568 42.4064 64.9769 46.1775C65.1831 46.3619 65.5762 46.5293 65.8141 46.4614C69.7672 45.3403 73.7106 44.1803 77.6564 43.0276C77.7365 43.0033 77.8044 42.933 77.9257 42.8505C77.2608 40.5402 76.5619 38.2324 75.9407 35.9028C75.3559 33.7139 77.0424 31.7677 79.2823 32.0225C80.7043 32.1851 81.5488 33.066 81.9419 34.408C82.5292 36.41 83.1067 38.4145 83.6891 40.4165C83.7547 40.6422 83.842 40.863 83.9561 41.1857C85.2301 40.8217 86.4726 40.4723 87.7102 40.1131C92.0904 38.8367 96.4706 37.5578 100.853 36.279C102.283 35.8616 102.566 36.0193 102.991 37.4729C103.26 38.4023 103.523 39.3317 103.787 40.2636C104.139 41.5036 103.964 41.8361 102.751 42.1904C95.6722 44.2531 88.5911 46.3109 81.51 48.3736C77.0133 49.6841 72.519 51.0066 68.0127 52.2903C67.4108 52.4626 67.1997 52.6932 67.207 53.3362C67.2458 56.2725 67.2118 59.2113 67.2385 62.1476C67.241 62.4509 67.389 62.9363 67.6001 63.0261C69.3182 63.7492 70.1409 65.0815 70.3666 66.9136C72.7253 66.9136 75.0525 66.9136 77.3797 66.9136C79.2871 66.9136 81.1945 66.9136 83.1019 66.9136C84.2764 66.9136 84.7739 67.2364 84.7569 67.9741C84.7399 68.6827 84.2813 68.9715 83.1383 68.9715C71.0873 68.9739 59.0387 68.9715 46.9877 68.9715C43.6267 68.9715 40.2658 68.9715 36.9048 68.9715C36.633 68.9715 36.2908 69.0588 36.104 68.9278C35.7521 68.6803 35.2595 68.309 35.2522 67.9814C35.2449 67.6392 35.6987 67.234 36.0384 66.9622C36.2083 66.8263 36.565 66.9161 36.8368 66.9161C40.7414 66.9136 44.6484 66.9161 48.5529 66.9161C48.883 66.9161 49.213 66.9161 49.5794 66.9161C49.8075 65.0499 50.6545 63.691 52.4308 63.0115C52.5716 62.9581 52.7099 62.6912 52.7123 62.5237C52.7317 60.6503 52.7244 58.7745 52.7244 56.77C50.7078 57.3549 48.7786 57.9106 46.8494 58.4711C37.5915 61.1648 28.3361 63.8584 19.0782 66.5521C17.6902 66.9549 17.3844 66.7874 16.9791 65.4115C16.7219 64.5427 16.4695 63.6716 16.2171 62.8004C15.7779 61.291 15.9259 61.007 17.4014 60.5775C22.6528 59.0487 27.9066 57.5271 33.1604 56.0008C33.505 55.894 33.8423 55.7775 34.2864 55.6367ZM65.0739 62.7276C65.0739 58.641 65.154 54.6467 65.0157 50.6596C64.9841 49.7302 64.3799 48.677 63.7392 47.9441C62.2978 46.2915 60.3928 45.8499 58.2913 46.5439C56.2893 47.2064 54.8963 48.9657 54.8575 51.1061C54.7871 54.8602 54.8308 58.6143 54.8284 62.3708C54.8284 62.4825 54.8793 62.5917 54.9133 62.73C58.2986 62.7276 61.6474 62.7276 65.0739 62.7276ZM101.081 38.3659C89.5229 41.7293 78.081 45.0612 66.61 48.4003C66.8163 49.1016 67.0007 49.7229 67.1949 50.3854C78.7023 47.0341 90.1418 43.7022 101.652 40.351C101.455 39.6642 101.283 39.0648 101.081 38.3659ZM18.2871 62.4728C18.4982 63.1911 18.673 63.7832 18.8598 64.4166C19.1899 64.334 19.4228 64.2855 19.6485 64.22C30.1221 61.1769 40.5958 58.1338 51.0694 55.0883C52.8409 54.5739 52.8385 54.569 52.6953 52.7077C52.6905 52.6592 52.6322 52.6179 52.5521 52.5039C41.1879 55.809 29.7945 59.1239 18.2871 62.4728ZM68.1316 66.8724C68.1243 65.6493 67.4084 64.9019 66.1562 64.8801C64.4308 64.8485 62.7055 64.8679 60.9801 64.8679C58.6189 64.8679 56.2577 64.8534 53.8965 64.8752C52.557 64.8873 51.8387 65.5935 51.8144 66.8724C57.2527 66.8724 62.6933 66.8724 68.1316 66.8724ZM79.9448 42.3603C80.6534 42.1516 81.2527 41.9744 81.9249 41.7779C81.2455 39.4337 80.5975 37.1453 79.9084 34.869C79.7288 34.2794 79.2677 33.9857 78.6295 34.1726C77.9767 34.3643 77.7971 34.8739 77.9621 35.4612C78.5931 37.7277 79.258 39.987 79.9448 42.3603ZM38.2734 54.4962C37.5697 52.1059 36.9145 49.8151 36.2156 47.5364C36.0312 46.937 35.5434 46.6749 34.9222 46.8933C34.3567 47.0923 34.1116 47.5388 34.2767 48.1164C34.9246 50.4072 35.5968 52.6907 36.2835 55.0592C36.9436 54.8723 37.5406 54.7049 38.2734 54.4962Z" fill="black"/>
<path d="M56.8838 51.3873C56.8935 49.6595 58.2695 48.32 60.0191 48.3321C61.7105 48.3442 63.0598 49.6959 63.0646 51.3849C63.0695 53.0982 61.6741 54.5129 59.973 54.5153C58.2816 54.5178 56.8741 53.0957 56.8838 51.3873ZM59.7571 52.5643C59.9051 52.5643 60.0531 52.5643 60.2036 52.5643C60.4705 52.1712 60.9631 51.7635 60.9389 51.3873C60.917 51.0355 60.3953 50.5258 60.0094 50.4312C59.4052 50.2856 58.9198 50.7879 58.9926 51.38C59.0436 51.7999 59.4877 52.1712 59.7571 52.5643Z" fill="black"/>
</svg>
