<svg width="120" height="100" viewBox="0 0 120 100" fill="none" xmlns="http://www.w3.org/2000/svg">
<rect width="120" height="100" fill="white"/>
<path d="M93.6998 76.0949C93.1714 76.6781 92.6492 76.6297 91.9649 76.2675C90.6954 75.5959 89.3963 74.9453 88.0446 74.4716C86.1266 73.7999 84.2675 74.1768 82.8926 75.6612C81.6399 77.0149 80.644 78.6067 79.5492 80.1036C79.3491 80.3752 79.2186 80.6995 79.0649 81.0048C78.8207 81.4911 78.5554 81.9669 77.8901 81.8154C77.2837 81.6785 77.21 81.1732 77.1469 80.6574C76.8521 78.2256 76.6731 75.798 77.2521 73.3746C77.6774 71.5998 78.4901 70.0333 79.7176 68.6922C80.0503 68.3279 80.1492 68.0226 80.0439 67.5089C78.7175 61.1147 74.2371 57.8912 68.4345 56.1437C66.2512 55.4868 63.9289 55.2952 61.6698 54.891C61.5919 54.9836 61.5119 55.0763 61.434 55.1689C61.8529 56.3353 62.274 57.5017 62.6888 58.6702C62.9499 59.4072 63.3183 60.1293 63.4278 60.8894C63.6131 62.1905 62.6846 62.9759 61.4318 62.5906C60.6423 62.3463 59.8633 61.9716 59.1811 61.5042C56.4314 59.6219 54.2102 57.2196 52.6122 54.2951C52.1974 53.5351 51.7321 53.4698 50.9973 53.6467C51.3426 55.9879 52.1005 58.1249 53.5575 59.9988C53.987 60.5504 54.3765 61.1652 54.6292 61.8116C55.0439 62.8769 54.5071 63.8054 53.3764 63.9612C52.6943 64.0539 51.9468 64.0244 51.2815 63.8517C47.9254 62.9822 45.022 61.2873 42.6934 58.7145C41.8976 57.8344 41.327 56.7522 40.5859 55.6658C39.3942 55.8153 38.0278 56.0321 36.6529 56.1458C33.9916 56.3669 31.3935 56.1458 29.0775 54.6383C28.5154 54.272 27.7048 53.9878 27.8016 53.1014C27.9027 52.1876 28.7996 52.3308 29.3849 52.0676C29.526 52.0044 29.6755 51.9539 29.8692 51.8781C29.7365 51.3202 29.3934 50.6654 30.1303 50.3138C30.9535 49.92 31.284 50.6401 31.6862 51.1686C31.922 51.0696 32.1346 50.9812 32.3999 50.8696C32.1536 50.2885 31.7262 49.6484 32.4862 49.2189C33.2274 48.7978 33.6358 49.3768 34.0232 49.9727C34.2443 49.8506 34.4317 49.7453 34.6485 49.6232C34.3138 49.021 33.9011 48.421 34.6338 47.9283C35.3791 47.4272 35.7497 48.1199 36.2466 48.6357C37.173 47.8335 38.0699 47.0545 39.0994 46.1618C36.8929 45.4649 34.8549 45.5049 32.7305 45.8271C32.7873 45.9934 32.8126 46.1092 32.8631 46.2145C33.1137 46.7619 32.9979 47.2061 32.4526 47.4651C31.9178 47.7177 31.4841 47.4609 31.2967 46.9766C30.9556 46.1008 30.4503 46.2587 29.8018 46.6503C30.0587 47.2461 30.665 47.9472 29.8208 48.4273C28.768 49.0273 28.5722 47.8525 28.0185 47.3346C27.789 47.4461 27.5658 47.5556 27.2942 47.6883C27.6079 48.3515 28.3848 49.0421 27.4606 49.6232C26.4878 50.238 26.2184 49.1389 25.6562 48.5957C24.6056 49.9179 23.5971 49.2842 22.578 48.5599C19.5757 46.4313 16.7797 44.0543 14.2447 41.3762C13.9752 41.0898 13.7162 40.7908 13.4762 40.4792C12.8067 39.6202 12.8362 39.3676 13.6089 38.618C15.7564 36.5357 18.1966 34.8661 20.8516 33.506C26.3699 30.6784 32.2715 29.2278 38.4131 28.6572C42.3229 28.2951 46.2285 28.3372 50.1298 28.7835C50.2056 28.7919 50.2835 28.7709 50.3951 28.7583C50.5888 28.2572 50.7573 27.735 50.9846 27.2381C52.8922 23.0567 55.9366 20.1659 60.5033 19.1574C61.5982 18.9153 62.8088 18.9848 63.9331 19.149C65.4259 19.368 65.7964 20.4776 64.8658 21.6671C64.2363 22.4735 63.5162 23.2083 62.872 24.0021C61.2508 26.0022 60.7623 28.2319 61.5455 30.7184C61.7013 31.2111 61.9624 31.4827 62.4614 31.668C68.0956 33.7608 73.1613 36.7589 77.3111 41.1719C82.1578 46.3239 84.8696 52.4697 85.6423 59.4619C85.9034 61.8221 85.9034 64.2118 86.0276 66.6878C86.3013 66.7236 86.714 66.7636 87.1182 66.8373C89.1626 67.2078 90.7375 68.2942 91.647 70.1491C92.3355 71.5534 92.8113 73.063 93.3819 74.5242C93.4851 74.7853 93.5946 75.0443 93.7019 75.3053C93.6998 75.5706 93.6998 75.8317 93.6998 76.0949ZM15.1079 39.6265C15.2069 39.7739 15.2764 39.9171 15.3795 40.0266C17.9166 42.7426 20.761 45.1007 23.7803 47.2567C24.1782 47.5409 24.4161 47.3451 24.7572 47.1703C26.3384 46.3597 27.8795 45.4249 29.5428 44.8375C33.0105 43.6142 36.5561 43.3869 40.1079 44.627C40.388 44.7259 40.7838 44.6754 41.0701 44.5575C48.8876 41.313 56.7557 41.3677 64.6405 44.2396C72.0096 46.924 77.9596 51.5833 82.9221 57.5817C83.1558 57.8639 83.3979 58.1418 83.6358 58.4197C83.48 57.0617 83.2274 55.7753 82.8673 54.5204C80.4082 45.9871 74.9593 39.9171 67.2576 35.7525C61.2592 32.5101 54.7955 30.8405 48.0223 30.3394C39.5458 29.712 31.3135 30.7542 23.4771 34.2029C20.4094 35.5546 17.5818 37.2958 15.1079 39.6265ZM51.4121 51.596C51.3657 51.0443 51.2857 50.3453 51.252 49.6442C51.2226 49.04 51.4857 48.5768 52.1405 48.5936C52.7869 48.6105 52.9532 49.0821 53.0269 49.6779C53.1301 50.5285 53.2101 51.4212 53.5407 52.196C55.0166 55.6574 57.5241 58.2597 60.6065 60.3441C60.8907 60.5378 61.2171 60.6704 61.7308 60.9378C61.5097 60.3841 61.4108 60.0619 61.2571 59.7693C59.7222 56.849 59.4212 53.7351 59.7686 50.5096C59.8338 49.8948 59.9917 49.4084 60.7181 49.4168C61.3076 49.4253 61.5792 49.8779 61.5266 50.6885C61.4718 51.5181 61.4213 52.3476 61.3666 53.2066C62.0214 53.2803 62.5646 53.3456 63.1078 53.4003C66.2007 53.714 69.2514 54.2151 72.0748 55.6047C75.1467 57.1185 77.9911 58.9187 79.7744 61.9905C80.8272 63.8012 81.4377 65.7698 81.9157 67.7973C82.0757 68.4753 81.9367 68.9343 81.4504 69.408C79.9534 70.8671 79.0565 72.6588 78.7828 74.7263C78.6501 75.7243 78.667 76.7433 78.6143 77.7519C78.6923 77.7855 78.7701 77.8213 78.8481 77.855C81.7809 72.9304 85.6549 70.825 91.2301 73.8421C89.9837 69.2901 88.0404 68.3595 85.1054 68.4458C84.2822 68.4711 84.0253 68.1426 84.0485 67.3278C84.0695 66.513 84.0695 65.6961 84.1538 64.8876C84.3475 63.0222 83.9938 61.3589 82.5978 60.0009C82.2441 59.6556 81.9831 59.2156 81.6651 58.8324C74.8898 50.718 66.6197 45.1744 55.863 44.0332C50.8604 43.5027 46.0263 44.2922 41.4154 46.3429C41.1628 46.4545 40.9291 46.6566 40.7438 46.8671C39.0384 48.7957 37.0487 50.3727 34.798 51.6023C33.5095 52.3055 32.1578 52.8992 30.7956 53.5625C30.9303 53.634 31.0377 53.7056 31.1556 53.7477C31.4756 53.8635 31.7957 53.9835 32.1241 54.072C34.3854 54.6762 36.6677 54.5204 38.9205 54.0972C43.0914 53.3161 47.2412 52.4381 51.4121 51.596ZM63.3036 20.8502C58.659 20.027 53.1806 24.6716 52.3258 28.9793C54.7555 29.5225 57.1852 30.0657 59.678 30.6237C58.6485 26.5707 60.5665 23.6062 63.3036 20.8502ZM42.5797 55.1921C43.544 58.3586 50.233 62.8264 53.0122 62.1274C50.8752 59.7419 49.6709 56.9691 49.2182 53.7562C46.9633 54.2446 44.7989 54.712 42.5797 55.1921Z" fill="black"/>
<path d="M41.4786 37.8539C41.4344 38.8877 41.0954 39.7972 40.3522 40.5426C39.9501 40.9447 39.4995 41.1131 39.0363 40.7005C38.5815 40.2983 38.651 39.8478 39.0195 39.3846C39.948 38.2181 39.9437 37.4602 39.0173 36.3085C38.6447 35.8474 38.5815 35.3969 39.0426 34.9968C39.47 34.6242 39.9185 34.7315 40.3059 35.1084C41.0828 35.8579 41.4407 36.7886 41.4786 37.8539Z" fill="black"/>
<path d="M37.8678 37.8644C37.8151 38.8981 37.4762 39.8077 36.733 40.5488C36.3287 40.953 35.8739 41.1088 35.4149 40.692C34.9686 40.2856 35.0381 39.8372 35.4149 39.3761C36.335 38.2518 36.3245 37.4664 35.396 36.3C35.0507 35.8684 34.9707 35.4368 35.3792 35.0389C35.8171 34.6157 36.274 34.7188 36.7014 35.1104C37.3898 35.7463 37.8741 36.8748 37.8678 37.8644Z" fill="black"/>
<path d="M45.083 37.8706C45.0599 38.917 44.6914 39.8434 43.9145 40.5929C43.525 40.9698 43.0829 41.0856 42.6555 40.7045C42.2028 40.3003 42.2639 39.8539 42.6302 39.3886C43.565 38.2032 43.565 37.4727 42.6344 36.3147C42.2639 35.8536 42.1944 35.4051 42.6534 35.0009C43.0787 34.6261 43.5292 34.7293 43.9166 35.104C44.6914 35.8515 45.062 36.7779 45.083 37.8706Z" fill="black"/>
<path d="M26.3783 39.8179C26.052 40.039 25.7467 40.3948 25.3972 40.4475C24.8603 40.5275 24.5129 40.1338 24.5298 39.5842C24.5466 39.0368 24.913 38.6621 25.4477 38.7757C25.7951 38.8494 26.0773 39.2221 26.3889 39.4621C26.3868 39.58 26.3825 39.6979 26.3783 39.8179Z" fill="black"/>
</svg>
