<svg width="120" height="100" viewBox="0 0 120 100" fill="none" xmlns="http://www.w3.org/2000/svg">
<rect width="120" height="100" fill="white"/>
<path d="M47.2183 84C47.142 83.961 47.0692 83.906 46.9894 83.8829C44.899 83.2902 43.7349 81.8014 43.703 79.6098C43.6763 77.7945 43.6781 75.9791 43.7083 74.1638C43.7172 73.6598 43.5539 73.4433 43.0836 73.257C41.2896 72.5472 40.1397 71.2252 39.7671 69.3282C39.437 67.6442 38.5284 66.583 36.8941 66.0205C34.3299 65.1386 32.5483 62.2798 33.5811 59.3305C34.062 57.9588 33.7088 56.777 32.7027 55.7478C30.4277 53.4214 30.433 50.4916 32.7151 48.151C33.7212 47.1182 34.014 45.9524 33.5846 44.5611C32.7151 41.7432 34.0282 38.8933 36.7965 37.9493C38.8141 37.2625 39.6357 35.8411 39.9072 33.9193C39.9303 33.756 39.7245 33.5112 39.563 33.3763C37.8878 31.9922 36.9527 30.2318 36.8 28.058C36.7308 27.0714 37.0449 26.7342 38.0511 26.7325C40.3988 26.7307 42.7465 26.7325 45.0924 26.7325C45.332 26.7325 45.5715 26.7325 45.8111 26.7325C45.9087 26.1611 45.9602 25.6358 46.0932 25.1301C46.7782 22.5339 49.0265 20.763 51.7842 20.6742C52.2313 20.66 52.4265 20.4986 52.6395 20.1366C54.2099 17.4588 56.5683 16.0161 59.6666 16.0001C62.7933 15.9842 65.1801 17.4215 66.7683 20.1206C66.9972 20.5092 67.2225 20.6583 67.6821 20.676C70.8869 20.8056 73.2932 23.1621 73.5274 26.3527C73.5345 26.4592 73.5505 26.5639 73.57 26.7325C74.0971 26.7325 74.601 26.7325 75.1068 26.7325C77.2096 26.7325 79.3142 26.7307 81.417 26.7342C82.3717 26.736 82.6787 27.0785 82.6148 28.0438C82.4728 30.2176 81.5447 31.9922 79.8536 33.3532C79.5324 33.6123 79.3798 33.8288 79.5803 34.2298C79.6762 34.4215 79.6904 34.6557 79.7312 34.8722C80.0062 36.3291 80.8509 37.2962 82.2475 37.7736C83.5961 38.235 84.6786 39.0353 85.4043 40.2721C86.1585 41.5586 86.3715 42.9339 85.8852 44.3571C85.3653 45.8849 85.6883 47.1466 86.8275 48.2894C88.9516 50.4242 88.9356 53.5119 86.8098 55.6466C85.7592 56.7007 85.3848 57.8754 85.8249 59.3288C86.7157 62.2638 85.3564 64.9842 82.4639 66.0453C81.4454 66.418 80.5794 66.945 80.1003 67.9423C79.8927 68.3753 79.7773 68.858 79.6673 69.3282C79.2183 71.2358 78.0951 72.5703 76.2762 73.2854C75.8592 73.4487 75.7012 73.6385 75.7101 74.0946C75.7403 75.6438 75.7207 77.1947 75.7207 78.7438C75.7207 81.8457 75.0322 82.8732 72.1983 83.9982C71.7103 83.9982 71.2241 83.9982 70.7361 83.9982C67.9022 82.8767 67.2137 81.8493 67.2137 78.7456C67.2137 78.2931 67.2137 77.8424 67.2137 77.3189C65.3682 77.9666 63.6557 77.9613 62.0196 77.0971C60.4634 76.2755 58.9799 76.3376 57.3846 77.0687C56.4902 77.4786 55.445 77.6436 54.4513 77.7306C53.7361 77.7927 52.9944 77.5425 52.1657 77.4183C52.1657 78.3322 52.2296 79.2407 52.1515 80.1386C52.0042 81.8617 51.0513 83.0329 49.4773 83.7108C49.2182 83.8225 48.9449 83.9042 48.677 84C48.1943 84 47.7063 84 47.2183 84ZM41.68 34.638C41.6623 34.6806 41.6161 34.7587 41.6019 34.8421C41.2009 37.3406 39.7635 38.8809 37.3785 39.7131C35.5774 40.3413 34.7895 42.1762 35.3574 43.9791C36.0264 46.1032 35.5756 47.9398 33.991 49.5085C32.5057 50.9796 32.4968 52.9209 33.9732 54.3831C35.5774 55.9714 36.0193 57.8186 35.3627 59.9765C35.2083 60.4875 35.1391 61.0784 35.2278 61.5984C35.4763 63.0428 36.4292 63.9035 37.7831 64.3755C39.8079 65.0835 41.0696 66.4872 41.4972 68.5918C41.9302 70.7212 43.6231 72.0361 45.8022 71.8551C48.0541 71.6688 49.8606 72.4691 51.266 74.233C52.6217 75.9348 54.6908 76.4068 56.618 75.4113C58.7084 74.3324 60.7508 74.3413 62.8377 75.4273C64.7009 76.3962 66.7984 75.9454 68.0938 74.3093C69.5436 72.478 71.3838 71.6546 73.7191 71.8534C75.6888 72.0219 77.5006 70.7727 77.8431 68.9485C78.292 66.5617 79.63 65.0551 81.9156 64.2602C83.8108 63.6 84.6413 61.7882 84.0504 59.8771C83.3991 57.7743 83.864 55.9554 85.4292 54.4098C86.9127 52.944 86.934 50.9849 85.4629 49.5334C83.8552 47.9487 83.4044 46.105 84.0646 43.9454C84.2207 43.4343 84.2882 42.8434 84.2012 42.3235C83.9581 40.8755 82.9999 40.0095 81.653 39.5357C79.5732 38.8046 78.3222 37.3654 77.907 35.197C77.8661 34.9876 77.7952 34.7835 77.7561 34.638C75.2115 35.0248 72.7324 35.401 70.2179 35.7843C70.2179 37.4346 70.2534 39.0051 70.2108 40.5738C70.1079 44.3997 66.9404 47.6187 63.1163 47.7322C60.8378 47.7997 58.5557 47.7464 56.2755 47.7411C56.0324 47.7411 55.7875 47.7198 55.5497 47.6772C51.8303 47.0313 49.2661 44.0501 49.204 40.2757C49.1791 38.7957 49.2004 37.314 49.2004 35.779C46.6735 35.3975 44.1927 35.0195 41.68 34.638ZM59.7039 30.3561C60.8396 30.3809 61.8883 30.0775 62.8678 29.5167C63.8261 28.9666 63.9148 28.979 64.708 29.6995C65.6237 30.53 66.7079 30.9345 67.9359 30.7926C70.3084 30.5211 71.9499 28.4413 71.65 26.1469C71.3465 23.8293 69.2721 22.2713 66.8907 22.5943C66.2235 22.6848 65.81 22.4754 65.5385 21.8365C64.4525 19.2866 62.5023 17.8687 59.7323 17.8634C56.9356 17.8581 54.9677 19.2777 53.8745 21.8578C53.6172 22.4647 53.218 22.6599 52.5738 22.6085C51.9882 22.5623 51.3707 22.5481 50.8064 22.6865C49.1579 23.0876 47.9529 24.548 47.7702 26.2409C47.5856 27.9391 48.519 29.6125 50.0753 30.3773C51.6156 31.1333 53.4362 30.8689 54.7032 29.7048C55.4965 28.9755 55.6012 28.9648 56.5434 29.5078C57.5194 30.0739 58.5682 30.3791 59.7039 30.3561ZM60.6692 45.9027C61.3311 45.9027 61.9273 45.9062 62.5236 45.9027C65.9626 45.8761 68.3476 43.4893 68.3653 40.0379C68.3778 37.7807 68.3689 35.5235 68.3653 33.2645C68.3653 33.0569 68.3423 32.851 68.3298 32.6452C66.4826 32.7676 65.3788 32.4571 63.9272 31.4918C63.7569 31.3782 63.4268 31.3569 63.2369 31.4403C60.8733 32.4837 58.5256 32.489 56.169 31.4225C56.0146 31.3533 55.7484 31.3036 55.642 31.3853C54.2987 32.4127 52.7832 32.8102 51.085 32.6452C51.0743 32.8901 51.0584 33.0853 51.0584 33.2822C51.0566 35.5182 51.0885 37.7541 51.0513 39.9882C50.9892 43.7324 54.0041 46.6586 58.7456 45.798C58.7456 45.1432 58.7456 44.4866 58.7456 43.8992C58.1228 43.6455 57.5265 43.4645 56.9924 43.1717C56.3465 42.8203 55.894 42.2756 55.8567 41.4894C55.8336 40.9819 56.0643 40.6288 56.5683 40.5152C57.0687 40.4034 57.3846 40.6359 57.6472 41.0724C57.8211 41.3617 58.0997 41.6704 58.4014 41.7876C59.2727 42.1265 60.1901 42.1265 61.0578 41.7716C61.3418 41.6545 61.6062 41.367 61.7623 41.0902C62.009 40.6501 62.316 40.3857 62.8182 40.4922C63.3452 40.6022 63.6007 40.9695 63.5652 41.5107C63.5155 42.2933 63.0613 42.8345 62.4118 43.1841C61.8759 43.4716 61.2814 43.6526 60.6692 43.8992C60.6692 44.5044 60.6692 45.1592 60.6692 45.9027ZM70.225 33.8767C72.1256 33.6052 73.916 33.3515 75.7048 33.0941C75.9887 33.0533 76.2744 33.009 76.553 32.9451C78.6753 32.4535 80.3381 30.7039 80.6486 28.5957C78.2601 28.5957 75.8787 28.5904 73.4973 28.6099C73.3589 28.6117 73.1601 28.7927 73.0962 28.9364C72.5461 30.191 71.6997 31.1723 70.5232 31.8804C70.383 31.9655 70.2517 32.1749 70.2375 32.3364C70.2002 32.8173 70.225 33.3018 70.225 33.8767ZM38.768 28.5939C39.0981 30.7855 40.8744 32.5937 43.0659 32.977C44.2619 33.1864 45.4668 33.339 46.6682 33.5147C47.488 33.6336 48.3079 33.7454 49.1933 33.8714C49.1933 33.4757 49.1667 33.1669 49.1987 32.8652C49.259 32.308 49.0957 31.9496 48.5687 31.6426C47.5714 31.0623 46.8545 30.1768 46.4215 29.1086C46.2476 28.6791 46.0116 28.5762 45.5822 28.5851C44.3666 28.6135 43.1511 28.5957 41.9355 28.5957C40.885 28.5939 39.8309 28.5939 38.768 28.5939ZM45.6159 73.7539C45.5946 73.942 45.5627 74.091 45.5627 74.2419C45.5591 76.0324 45.5449 77.8229 45.5662 79.6134C45.584 81.0791 46.567 82.1154 47.9104 82.1385C49.2821 82.1616 50.3006 81.1182 50.3379 79.6293C50.3592 78.8113 50.2758 77.9861 50.361 77.1787C50.455 76.295 50.0984 75.665 49.534 75.0635C48.4605 73.9225 47.1668 73.5143 45.6159 73.7539ZM73.8167 73.7876C72.2356 73.4806 70.8337 73.9526 69.8346 75.1398C69.5436 75.484 69.1408 75.8815 69.116 76.2755C69.0361 77.5514 69.045 78.8397 69.1372 80.1156C69.2207 81.2761 70.2978 82.1385 71.4708 82.1385C72.6419 82.1367 73.751 81.2708 73.7954 80.112C73.8735 78.0181 73.8167 75.9206 73.8167 73.7876Z" fill="black"/>
<path d="M63.5351 35.2412C64.0976 35.4595 64.63 35.6085 65.102 35.8676C65.5669 36.1249 65.6894 36.5792 65.4303 37.069C65.1836 37.5321 64.74 37.6901 64.3034 37.4753C63.748 37.2021 63.2813 37.2305 62.733 37.4842C62.2805 37.6936 61.8369 37.5055 61.6168 37.0459C61.4039 36.5987 61.4802 36.1285 61.9309 35.8854C62.4242 35.6192 62.9761 35.4613 63.5351 35.2412Z" fill="black"/>
<path d="M57.9045 36.4817C57.8903 37.2785 57.2887 37.7487 56.6996 37.4826C56.1193 37.2217 55.6402 37.2306 55.067 37.4843C54.6252 37.6795 54.1904 37.4826 53.9686 37.0088C53.7468 36.5332 53.903 36.1499 54.3075 35.8536C55.1877 35.2112 56.6464 35.2023 57.4822 35.8748C57.7004 36.0523 57.8193 36.354 57.9045 36.4817Z" fill="black"/>
</svg>
