<svg width="120" height="100" viewBox="0 0 120 100" fill="none" xmlns="http://www.w3.org/2000/svg">
<rect width="120" height="100" fill="white"/>
<path d="M26 58.2466C26.7168 56.7101 27.3484 55.1276 28.168 53.6462C29.3354 51.5349 29.7701 49.2516 29.9653 46.9115C30.1072 45.2171 30.0398 43.5068 30.132 41.8072C30.1746 41.0212 30.274 40.2104 30.5241 39.4688C30.9641 38.1702 32.2663 37.7302 33.2705 38.6439C34.2002 39.4901 34.8761 40.615 35.678 41.6049C36.2866 42.3572 36.8224 43.2052 37.5551 43.8155C41.8273 47.3816 46.637 44.9847 48.4307 41.9474C47.0203 39.6676 46.8287 37.3061 48.0777 34.8951C49.1847 32.7572 51.8424 32.3545 53.5509 34.0648C54.5054 35.0193 55.4227 36.011 56.3328 37.0081C57.8781 38.7006 59.6345 40.1235 61.5914 41.3157C66.6425 44.3921 71.7858 47.3124 77.495 48.973C80.6034 49.8778 83.8217 50.4154 87.001 51.0683C88.9259 51.4639 90.6966 52.1239 92.0893 53.5752C93.0314 54.5563 93.6275 55.7131 93.906 57.0526C94.1242 58.1029 93.9859 59.1106 93.2425 59.8415C92.2578 60.8085 91.2182 61.7878 90.0348 62.4691C86.3162 64.6123 82.358 66.1824 78.0787 66.7998C77.0533 66.9471 76.0065 66.9985 74.9704 67.0003C63.5714 67.0145 52.1742 67.0677 40.777 66.9754C37.1045 66.9453 33.5473 66.0759 30.2491 64.355C29.9546 64.2024 29.6707 64.0303 29.3922 63.8511C27.8167 62.8363 26.4506 61.6476 26.0035 59.7085C26 59.2206 26 58.7345 26 58.2466ZM61.6606 44.0072C60.864 43.5139 60.1224 43.0562 59.3436 42.5754C58.7705 43.3383 58.2294 44.0622 57.683 44.7807C57.1294 45.5081 56.5067 45.6678 55.9319 45.2384C55.357 44.8091 55.3304 44.1597 55.8662 43.4341C56.4144 42.6925 56.968 41.9544 57.5109 41.2235C55.9993 39.5984 53.9253 39.4458 52.3356 40.8633C51.7644 41.3725 51.3049 42.0112 50.8134 42.6056C50.2067 43.3365 49.6815 44.1455 49.0109 44.8108C46.2219 47.5785 42.9663 48.6537 39.1377 47.3C36.8437 46.4892 35.0784 45.0042 33.8187 42.9178C33.4408 42.2915 33.0221 41.6883 32.6212 41.0745C32.536 41.0975 32.4491 41.1206 32.3639 41.1454C32.3639 42.1993 32.3976 43.2567 32.3568 44.3088C32.2362 47.4189 32.245 50.5538 30.7743 53.5025C31.5762 53.8715 32.3444 54.2494 33.1321 54.5829C36.2671 55.9082 39.4925 57.0295 42.9308 56.8893C45.3224 56.7918 47.7122 56.3464 50.0736 55.8994C53.629 55.2269 57.172 55.0407 60.7629 55.5516C64.384 56.0661 67.9217 56.9284 71.4309 57.929C75.8025 59.1762 80.2095 59.5204 84.6733 58.4985C86.9265 57.984 89.0555 57.1484 91.0727 55.949C90.1608 54.6113 88.949 53.7775 87.4055 53.4705C86.0181 53.1938 84.6183 52.9809 83.2256 52.7325C79.7979 52.1239 76.4642 51.1836 73.2406 49.8725C72.8361 49.7075 72.6072 49.759 72.3677 50.1209C72.0129 50.6549 71.6101 51.157 71.218 51.6644C70.7213 52.3067 70.1039 52.4486 69.5539 52.0601C68.9844 51.6591 68.9223 50.9849 69.4049 50.3143C69.7739 49.7998 70.1553 49.2959 70.5581 48.7513C69.6958 48.3397 68.9028 47.96 68.0689 47.5626C67.5828 48.2066 67.1286 48.8275 66.6531 49.4325C66.1581 50.0641 65.5248 50.1812 64.9836 49.7643C64.4425 49.3491 64.3893 48.7193 64.8577 48.0629C65.2285 47.5448 65.6152 47.041 66.0215 46.4963C65.2019 46.0403 64.4354 45.6163 63.6353 45.171C63.1119 45.8629 62.6293 46.5211 62.1255 47.1634C61.6252 47.7985 60.9989 47.9156 60.456 47.5005C59.9113 47.0871 59.8545 46.4484 60.3229 45.7991C60.7452 45.21 61.1887 44.637 61.6606 44.0072ZM29.708 55.5836C29.3141 56.3731 28.8972 57.1732 28.5158 57.9911C28.0616 58.9669 28.1698 59.8841 28.9753 60.5973C29.763 61.2946 30.6093 61.9723 31.5354 62.4584C34.4663 63.9931 37.6616 64.6956 40.9313 64.7169C51.9294 64.7914 62.9274 64.7205 73.9254 64.7613C76.9947 64.7719 79.9558 64.3461 82.8317 63.2781C85.1754 62.407 87.5137 61.5234 89.5859 60.0917C90.2016 59.6659 90.7445 59.1319 91.3211 58.6493C91.2838 58.5996 91.2466 58.5499 91.2075 58.5003C91.1117 58.5411 91.0141 58.5748 90.9219 58.6227C85.2339 61.4897 79.2674 62.0362 73.1058 60.6665C70.1323 60.0048 67.2013 59.1478 64.2332 58.4612C59.7037 57.4127 55.1495 57.1342 50.5508 58.1153C48.4573 58.5624 46.3372 58.9633 44.21 59.1496C40.8036 59.4477 37.5232 58.6777 34.3457 57.4996C32.7986 56.9213 31.2923 56.24 29.708 55.5836ZM53.833 37.6486C53.1322 36.9123 52.5166 36.2186 51.8495 35.5817C51.3811 35.1328 50.707 35.186 50.2989 35.6189C49.4313 36.5415 49.2699 38.8426 50.0257 39.9372C51.0103 38.7592 52.2806 38.046 53.833 37.6486Z" fill="black"/>
</svg>
