<svg width="120" height="100" viewBox="0 0 120 100" fill="none" xmlns="http://www.w3.org/2000/svg">
<rect width="120" height="100" fill="white"/>
<path d="M59.915 66.1829C59.3652 68.7139 58.7978 71.2409 58.2774 73.7758C58.1302 74.4886 57.7689 74.9402 57.1425 75.2877C52.9504 77.6164 48.4246 78.6061 43.6729 78.5903C38.3949 78.5727 33.3409 77.4201 28.4635 75.4173C27.4366 74.9971 27.0164 74.3865 27.0066 73.2594C26.9379 64.0839 27.3993 54.9359 28.7521 45.8606C29.4649 41.0755 30.3995 36.3101 31.5305 31.6075C32.312 28.3598 33.5981 25.2359 34.6643 22.0609C34.892 21.3796 35.3927 21.0418 36.0996 21.0065C36.3195 20.9947 36.5414 21.0026 36.7613 21.0026C52.2691 21.0026 67.7749 21.0026 83.2827 21.0026C84.7927 21.0026 85.101 21.1989 85.5526 22.6441C86.8308 26.7262 88.2858 30.7651 89.3048 34.9121C90.856 41.2169 91.6355 47.6651 92.2226 54.1329C92.8018 60.5064 93.0237 66.8918 93.0021 73.2908C92.9982 74.3845 92.5878 74.9952 91.5864 75.4016C85.7391 77.7853 79.6993 79.0027 73.3729 78.4549C69.6737 78.1328 66.1727 77.1079 62.9035 75.3113C62.2555 74.9539 61.8766 74.4925 61.7254 73.7464C61.2345 71.3254 60.6886 68.9142 60.1624 66.501C60.1389 66.393 60.1015 66.287 60.0701 66.179C60.021 66.179 59.968 66.181 59.915 66.1829ZM35.057 30.0111C34.9784 30.2232 34.8842 30.4235 34.8312 30.6355C34.1577 33.3648 33.3723 36.0725 32.8461 38.8293C30.7471 49.8073 29.9047 60.905 29.8792 72.0735C29.8772 72.692 30.0756 72.9669 30.6352 73.1769C34.1636 74.4984 37.7941 75.3682 41.5523 75.6313C46.2254 75.9573 50.7395 75.327 54.9493 73.1495C55.2399 72.9983 55.5285 72.6232 55.5992 72.3051C56.5967 67.8401 57.5549 63.3672 58.5229 58.8963C58.7408 57.893 59.1885 57.4453 59.9798 57.4335C60.8045 57.4217 61.2659 57.8733 61.4937 58.9179C62.4578 63.3653 63.4297 67.8107 64.3702 72.262C64.4684 72.7234 64.6628 72.9806 65.0731 73.1848C68.3502 74.8243 71.8355 75.594 75.4798 75.6804C80.2668 75.7923 84.8634 74.8302 89.3421 73.1927C89.9371 72.9747 90.1393 72.6998 90.1373 72.046C90.0981 62.1106 89.4364 52.2243 87.8027 42.4166C87.143 38.4582 86.4597 34.5056 85.2168 30.6748C85.042 30.1348 84.8064 29.9719 84.2468 29.9738C76.9229 29.9935 69.599 29.9876 62.2732 29.9876C62.016 29.9876 61.7607 29.9876 61.4642 29.9876C61.4642 30.3783 61.4642 30.6454 61.4642 30.9144C61.4642 34.7609 61.4642 38.6074 61.4623 42.4539C61.4623 42.7229 61.474 42.9978 61.423 43.2589C61.2875 43.9619 60.7142 44.4351 60.0289 44.4449C59.3181 44.4567 58.7133 43.9619 58.5838 43.2295C58.5386 42.9664 58.5504 42.6935 58.5504 42.4245C58.5484 38.5544 58.5504 34.6823 58.5484 30.8123C58.5484 30.5531 58.5268 30.2959 58.5131 30.0151C50.6512 30.0111 42.8678 30.0111 35.057 30.0111ZM49.53 27.0757C51.2363 27.0757 52.864 27.0757 54.5114 27.0757C54.5114 26.0036 54.5114 24.9747 54.5114 23.9655C52.8208 23.9655 51.1931 23.9655 49.53 23.9655C49.53 25.0042 49.53 25.9977 49.53 27.0757ZM65.4717 27.0718C67.1721 27.0718 68.7979 27.0718 70.4728 27.0718C70.4728 26.0154 70.4728 25.0022 70.4728 23.9655C68.792 23.9655 67.1446 23.9655 65.4717 23.9655C65.4717 25.0101 65.4717 26.0076 65.4717 27.0718ZM46.573 23.9576C44.8824 23.9576 43.237 23.9576 41.5562 23.9576C41.5562 25.0062 41.5562 26.0154 41.5562 27.0678C43.2448 27.0678 44.8902 27.0678 46.573 27.0678C46.573 26.0291 46.573 25.0395 46.573 23.9576ZM73.4338 27.0541C75.1676 27.0541 76.811 27.0541 78.4466 27.0541C78.4466 25.982 78.4466 24.9708 78.4466 23.9734C76.7443 23.9734 75.0988 23.9734 73.4338 23.9734C73.4338 25.0219 73.4338 26.0154 73.4338 27.0541ZM57.5097 27.06C59.2258 27.06 60.8516 27.06 62.4774 27.06C62.4774 25.9899 62.4774 24.9747 62.4774 23.9675C60.7927 23.9675 59.163 23.9675 57.5097 23.9675C57.5097 25.014 57.5097 26.0115 57.5097 27.06ZM36.0368 27.0443C36.9596 27.0443 37.7745 27.0443 38.5952 27.0443C38.5952 25.9801 38.5952 24.9865 38.5952 23.9557C38.0749 23.9557 37.5958 23.9557 37.0774 23.9557C36.7358 24.9689 36.3961 25.9781 36.0368 27.0443ZM81.4194 27.0737C82.3049 27.0737 83.1001 27.0737 83.9837 27.0737C83.6499 26.0704 83.3456 25.1259 83.0098 24.1933C82.9666 24.0735 82.7762 23.9439 82.6426 23.9321C82.2421 23.8987 81.8356 23.9203 81.4194 23.9203C81.4194 25.0238 81.4194 26.0154 81.4194 27.0737Z" fill="black"/>
<path d="M50.5864 40.4138C50.6453 38.8097 51.2402 37.1544 52.275 35.6995C53.0506 34.6097 53.9695 33.6162 54.8963 32.6482C55.5972 31.9177 56.524 31.9393 57.1013 32.5677C57.7002 33.2195 57.5981 34.0403 56.8539 34.7648C56.3807 35.2243 55.8996 35.6838 55.4794 36.1903C54.3013 37.6139 53.4649 39.1788 53.4629 41.105C53.4609 42.0416 52.8307 42.6208 52.0079 42.611C51.1499 42.5992 50.608 41.9827 50.5883 40.995C50.5844 40.8694 50.5864 40.7476 50.5864 40.4138Z" fill="black"/>
<path d="M69.4203 40.6885C69.4203 40.8849 69.4361 41.0812 69.4184 41.2756C69.3497 42.0218 68.8077 42.5578 68.0911 42.6049C67.339 42.654 66.7048 42.169 66.5831 41.4013C66.4908 40.824 66.5144 40.2232 66.3828 39.6557C65.943 37.7727 64.7904 36.3236 63.4395 35.0101C63.2647 34.8392 63.0664 34.69 62.9054 34.5054C62.389 33.9144 62.3949 33.131 62.9054 32.5714C63.3806 32.0491 64.217 31.892 64.7708 32.3593C67.3606 34.5467 69.1906 37.1758 69.4203 40.6885Z" fill="black"/>
</svg>
