<svg width="120" height="100" viewBox="0 0 120 100" fill="none" xmlns="http://www.w3.org/2000/svg">
<rect width="120" height="100" fill="white"/>
<path d="M92.0069 35.9908C89.9925 38.0001 87.9798 40.0128 85.9621 42.0188C82.7361 45.2215 78.1667 45.2148 74.9424 42.0022C74.6486 41.7084 74.3766 41.393 74.153 41.1527C67.7377 47.5679 61.3725 53.9315 54.8354 60.4686C54.9105 60.5086 55.1575 60.5737 55.3144 60.7289C57.4439 62.8384 59.5618 64.9612 61.6796 67.0807C62.3605 67.7633 62.3722 68.1589 61.7096 68.8164C59.1979 71.3097 56.8248 73.9633 54.1395 76.2547C47.1535 82.2177 39.2546 83.4844 30.6347 80.3268C30.1457 80.1483 29.8436 79.8462 29.6667 79.3572C26.3957 70.3268 27.921 62.2109 34.4047 55.1114C36.5793 52.7315 38.9475 50.5286 41.2305 48.2489C41.8347 47.6447 42.2502 47.6531 42.8744 48.2756C44.9973 50.3934 47.1151 52.5129 49.2329 54.6357C49.3931 54.796 49.53 54.9812 49.6285 55.0964C56.0504 48.6728 62.4156 42.3059 68.8726 35.8456C68.5722 35.5669 68.16 35.2197 67.7861 34.8376C64.8722 31.8619 64.8555 27.2507 67.7694 24.2701C69.8322 22.1622 71.9317 20.0895 74.0145 18C74.2648 18 74.5135 18 74.7638 18C80.5115 23.7477 86.2592 29.4937 92.0069 35.2414C92.0069 35.4918 92.0069 35.7404 92.0069 35.9908ZM41.9732 50.0045C41.9081 50.063 41.7996 50.1531 41.6995 50.2532C39.7118 52.2409 37.6591 54.1685 35.7499 56.2295C29.9154 62.5263 28.3666 69.791 31.0085 77.9603C31.1854 78.5094 31.4791 78.8098 32.0299 78.9884C40.1992 81.6336 47.4672 80.0832 53.769 74.257C55.8318 72.3511 57.7577 70.2967 59.7437 68.3074C59.8538 68.1972 59.9439 68.0654 60.0124 67.982C57.8395 65.809 55.7066 63.6762 53.542 61.5116C52.6258 62.4295 51.6896 63.3741 50.7466 64.3104C49.1762 65.8691 47.0851 65.9142 45.583 64.4239C44.0894 62.9419 44.1278 60.8274 45.6832 59.2636C46.6228 58.319 47.569 57.3828 48.4619 56.4932C46.2907 54.3203 44.1461 52.1758 41.9732 50.0045ZM74.3265 20.2013C74.2481 20.273 74.1246 20.3782 74.0095 20.4933C72.404 22.0972 70.7935 23.6943 69.198 25.3065C66.718 27.8148 66.703 31.2578 69.178 33.7628C71.5178 36.1326 73.8759 38.4841 76.2424 40.8272C78.7208 43.2789 82.1604 43.2822 84.6587 40.8506C85.5232 40.0095 86.366 39.1433 87.2222 38.2922C88.105 37.416 88.9929 36.5432 89.839 35.7071C84.6404 30.5101 79.4951 25.3682 74.3265 20.2013ZM70.1326 37.3175C70.0158 37.4294 69.8489 37.5812 69.6903 37.7398C63.3886 44.0382 57.0885 50.3383 50.7883 56.6384C49.4783 57.9485 48.1648 59.2553 46.8598 60.5704C46.3557 61.0794 46.1555 61.6852 46.3641 62.3961C46.571 63.1054 47.0533 63.5277 47.7576 63.6779C48.5036 63.8364 49.0777 63.5076 49.5951 62.9903C57.1719 55.4068 64.7537 47.8266 72.3355 40.2465C72.4674 40.1146 72.5892 39.9761 72.691 39.8693C71.8349 39.0165 70.9988 38.182 70.1326 37.3175Z" fill="black"/>
<path d="M33.4167 70.777C33.6637 69.3152 33.9007 67.7782 34.1944 66.2513C34.3229 65.5854 34.7851 65.2717 35.2758 65.3835C35.8231 65.5087 36.0784 65.986 35.8899 66.6702C35.1556 69.3168 35.1339 71.9652 35.7781 74.6302C35.9416 75.3094 35.6946 75.75 35.1673 75.8551C34.6233 75.9636 34.2061 75.6899 34.0826 75.0107C33.8356 73.644 33.647 72.2656 33.4167 70.777Z" fill="black"/>
<path d="M70.0191 29.4919C70.0642 28.7208 70.3028 28.0216 70.8519 27.4608C71.7831 26.5079 72.7244 25.5649 73.674 24.6304C74.163 24.1497 74.6103 24.1364 75.0909 24.6137C78.5288 28.0366 81.9584 31.4679 85.3847 34.9025C85.877 35.3964 85.8787 35.8203 85.3964 36.3143C84.4651 37.2673 83.5339 38.2219 82.5642 39.1348C81.3393 40.288 79.5335 40.2897 78.3336 39.1098C75.8386 36.6581 73.3769 34.1731 70.907 31.6948C70.3028 31.0923 70.0358 30.3413 70.0191 29.4919ZM83.5005 35.6468C80.4547 32.6044 77.404 29.5553 74.3616 26.5162C73.6173 27.2355 72.7978 27.9682 72.0535 28.7692C71.6112 29.2449 71.6797 29.9074 72.1219 30.4198C72.4073 30.7486 72.7294 31.0473 73.0365 31.356C75.1376 33.4589 77.2371 35.5617 79.3433 37.6611C79.9941 38.3104 80.6984 38.4422 81.2809 37.9132C82.0736 37.1905 82.7879 36.3811 83.5005 35.6468Z" fill="black"/>
</svg>
