<svg width="120" height="100" viewBox="0 0 120 100" fill="none" xmlns="http://www.w3.org/2000/svg">
<rect width="120" height="100" fill="white"/>
<path d="M55.1059 91.5541C53.6667 91.182 52.3461 90.6178 51.3342 89.4546C50.1547 88.1013 49.7949 86.5129 49.7969 84.7733C49.8051 72.2072 49.801 59.6411 49.801 47.075C49.801 45.9384 49.801 45.9323 48.6644 45.7851C41.1374 44.8202 35.485 41.0342 31.7236 34.4598C29.9062 31.281 29.0722 27.8139 29.0006 24.1649C28.9802 23.1244 29.4606 22.6767 30.5849 22.6767C35.5627 22.6706 40.5405 22.6747 45.5183 22.6747C45.8126 22.6747 46.1091 22.6747 46.4709 22.6747C46.4709 21.8529 46.4709 21.0842 46.4709 20.2256C45.322 20.2256 44.1854 20.2318 43.0508 20.2236C42.3906 20.2195 41.8754 19.9742 41.7139 19.2771C41.5177 18.4287 42.0778 17.795 43.0672 17.7848C44.9438 17.7643 46.8205 17.7787 48.6971 17.7787C49.9216 17.7787 51.1461 17.7684 52.3686 17.7827C53.4153 17.795 53.8527 18.2161 53.8752 19.271C53.8998 20.3769 53.8814 21.4849 53.8814 22.6338C54.7256 22.6338 55.4738 22.6338 56.3304 22.6338C56.3304 22.2863 56.3304 21.9714 56.3304 21.6546C56.3304 18.4451 56.3181 15.2356 56.3365 12.0261C56.3488 9.94708 57.3464 8.57947 59.1188 8.11746C61.2428 7.56551 63.4465 9.01898 63.5937 11.2145C63.7265 13.1913 63.6632 15.1824 63.6754 17.1674C63.6856 18.9602 63.6775 20.7551 63.6775 22.6113C64.4952 22.6113 65.2618 22.6113 66.1245 22.6113C66.1245 21.5667 66.1183 20.5425 66.1265 19.5163C66.1367 18.1548 66.517 17.7807 67.8846 17.7807C70.7956 17.7787 73.7046 17.7807 76.6156 17.7807C76.7792 17.7807 76.9427 17.7725 77.1042 17.7868C77.8728 17.8543 78.3512 18.3429 78.3328 19.0359C78.3164 19.6941 77.8544 20.1827 77.1205 20.2134C76.2252 20.2522 75.3257 20.2256 74.4282 20.2277C74.1359 20.2277 73.8415 20.2277 73.5124 20.2277C73.5124 21.0699 73.5124 21.8222 73.5124 22.6767C73.8252 22.6767 74.1175 22.6767 74.4078 22.6767C79.359 22.6767 84.3082 22.6747 89.2594 22.6767C90.6556 22.6767 91.0481 23.0917 90.9991 24.492C90.6515 34.374 84.0997 42.641 74.5448 45.1922C73.3693 45.507 72.1489 45.6808 70.9366 45.8076C70.3091 45.873 70.1864 46.104 70.1966 46.6661C70.2273 48.2157 70.2068 49.7673 70.2068 51.3168C70.2068 62.4683 70.2007 73.6198 70.213 84.7733C70.215 86.5784 69.8164 88.2117 68.5653 89.5793C67.5697 90.6689 66.2839 91.1984 64.8999 91.5561C61.6353 91.5541 58.3706 91.5541 55.1059 91.5541ZM67.7537 45.9343C67.3244 45.9343 67.0076 45.9343 66.6887 45.9343C63.3422 45.9343 53.863 45.9363 50.5185 45.9323C50.1935 45.9323 49.8623 45.9241 49.5455 45.8648C48.922 45.7503 48.6092 45.3292 48.6072 44.7118C48.6051 44.0945 48.9158 43.6733 49.5393 43.5548C49.8562 43.4955 50.1874 43.4873 50.5124 43.4873C54.4026 43.4832 64.4257 43.4914 68.3159 43.4791C69.2399 43.4771 70.1741 43.4873 71.0859 43.3647C78.1202 42.4263 83.2963 38.7896 86.5569 32.4953C87.7364 30.22 88.3701 27.7628 88.4887 25.1789C69.4566 25.1789 50.4858 25.1789 31.4946 25.1789C31.556 25.7779 31.5866 26.3216 31.6704 26.8572C33.1382 36.269 41.1272 43.1561 50.2344 43.4383C51.9884 43.4934 52.25 43.7899 52.25 45.5357C52.25 58.5106 52.25 71.4876 52.2521 84.4625C52.2521 84.8693 52.2541 85.2802 52.2909 85.685C52.4729 87.6639 53.9038 89.0601 55.8929 89.0908C58.6404 89.1316 61.3879 89.1235 64.1354 89.0908C65.4458 89.0744 66.5783 88.5184 67.1568 87.3388C67.535 86.5702 67.7272 85.6319 67.7292 84.7671C67.764 72.1724 67.7537 59.5777 67.7537 46.981C67.7537 46.6845 67.7537 46.3861 67.7537 45.9343ZM61.1589 22.646C61.1589 20.1766 61.1589 17.7807 61.1589 15.3787C60.3433 15.3787 59.5951 15.3787 58.8469 15.3787C58.8469 17.8257 58.8469 20.2236 58.8469 22.646C59.638 22.646 60.3637 22.646 61.1589 22.646ZM51.3874 20.2829C50.5737 20.2829 49.8071 20.2829 49.0324 20.2829C49.0324 21.0904 49.0324 21.8406 49.0324 22.6133C49.846 22.6133 50.6126 22.6133 51.3874 22.6133C51.3874 21.8059 51.3874 21.0577 51.3874 20.2829ZM70.9734 20.2665C70.1557 20.2665 69.4096 20.2665 68.6307 20.2665C68.6307 21.074 68.6307 21.8406 68.6307 22.6297C69.4362 22.6297 70.1823 22.6297 70.9734 22.6297C70.9734 21.8406 70.9734 21.0924 70.9734 20.2665ZM58.7958 12.8172C59.6503 12.8172 60.4148 12.8172 61.21 12.8172C61.1835 11.9934 61.4635 11.1164 60.6009 10.6544C60.284 10.4847 59.7218 10.4847 59.405 10.6564C58.5402 11.1184 58.8203 11.9954 58.7958 12.8172Z" fill="black"/>
</svg>
