<svg width="120" height="100" viewBox="0 0 120 100" fill="none" xmlns="http://www.w3.org/2000/svg">
<rect width="120" height="100" fill="white"/>
<path d="M90.839 42.0226C95.5909 43.5 97.7323 46.2442 97.3539 50.3186C97.0479 53.6066 94.2222 56.4822 90.9613 56.8244C86.7737 57.264 84.0136 55.1498 82.5565 50.4568C75.1987 57.8124 67.8136 65.1975 60.4557 72.5554C65.1011 73.9535 67.2312 76.7045 66.8369 80.874C66.5265 84.153 63.7302 86.9697 60.4104 87.3482C56.3587 87.8104 53.5307 85.6305 52.0192 80.8197C51.8153 80.9874 51.6294 81.1324 51.455 81.2887C46.5263 85.7325 40.7275 88.1617 34.1559 88.9117C28.6743 89.5372 25.1438 86.7839 22.5311 82.3923C21.1714 80.1059 20.4078 77.586 20.0746 74.9596C19.7483 72.3967 20.4735 70.1035 22.6126 68.592C24.5138 67.2483 26.5782 66.0994 28.6698 65.0661C31.6134 63.6113 34.3077 61.8505 36.6304 59.5256C47.6231 48.5284 58.6179 37.5312 69.6106 26.5318C71.8721 24.2703 73.6034 21.6485 75.0015 18.7751C75.9147 16.9011 76.9209 15.0611 78.0403 13.3049C79.7738 10.5879 82.3322 9.59988 85.4956 10.1437C88.7134 10.6966 91.7137 11.7753 94.3219 13.8011C97.9929 16.6541 99.638 20.2209 98.8494 24.9909C97.7935 31.3902 95.3937 37.0644 90.9387 41.8186C90.9001 41.8617 90.8888 41.9229 90.839 42.0226ZM91.4553 17.7599C91.4553 17.3362 91.4712 16.9124 91.4531 16.4909C91.4032 15.4146 90.9976 14.5829 89.8759 14.2589C88.1197 13.7536 86.3862 13.1213 84.5982 12.7769C82.9259 12.4551 81.419 13.0556 80.4944 14.5512C79.3841 16.3482 78.3213 18.1837 77.3899 20.0758C75.9034 23.0942 74.0974 25.8724 71.718 28.254C60.5735 39.4166 49.4223 50.5701 38.2643 61.7168C35.8215 64.1574 32.9572 65.9861 29.8617 67.5066C28.0194 68.4108 26.2383 69.4577 24.498 70.5476C23.0364 71.4631 22.454 72.961 22.7871 74.5925C23.1678 76.4598 23.8431 78.2658 24.3824 80.0991C24.6204 80.9148 25.2254 81.2661 25.9958 81.3862C26.4672 81.4587 26.9521 81.5199 27.428 81.4927C34.8199 81.0757 41.1036 78.2613 46.3495 72.9814C58.5409 60.7084 70.7753 48.4785 83.0415 36.2804C88.2035 31.1478 90.9681 24.9864 91.4553 17.7599ZM27.5436 84.3139C28.9598 85.601 30.4622 86.4531 32.3657 86.333C38.1827 85.9681 43.5351 84.2323 48.0808 80.5296C50.3514 78.6805 52.384 76.5323 54.4643 74.4566C65.9146 63.0334 77.3854 51.6306 88.7655 40.1395C93.6035 35.2539 95.8696 29.1604 96.3319 22.3578C96.461 20.4475 95.6022 18.9496 94.263 17.4767C94.1587 18.4307 94.0862 19.2329 93.9842 20.0351C93.1617 26.4752 90.7528 32.2513 86.1731 36.8809C73.2884 49.9084 60.3084 62.8408 47.3307 75.7754C43.1113 79.9835 37.9765 82.5305 32.1346 83.6432C30.6526 83.9242 29.1434 84.0828 27.5436 84.3139ZM94.6708 49.4824C94.6731 46.8719 92.6042 44.7826 90.0073 44.7713C87.4014 44.76 85.3053 46.8289 85.2849 49.4303C85.2645 52.0861 87.3492 54.189 89.9937 54.1777C92.6065 54.1686 94.6686 52.0974 94.6708 49.4824ZM59.4632 84.6787C62.0691 84.6856 64.1426 82.6461 64.1766 80.0379C64.2106 77.4025 62.1303 75.295 59.4904 75.2882C56.8912 75.2837 54.7906 77.3481 54.7702 79.9291C54.7543 82.5645 56.8346 84.672 59.4632 84.6787Z" fill="black"/>
</svg>
