<svg width="120" height="100" viewBox="0 0 120 100" fill="none" xmlns="http://www.w3.org/2000/svg">
<rect width="120" height="100" fill="white"/>
<path d="M115.922 38.306C115.922 40.1598 115.082 41.9461 113.515 43.631C108.27 49.2854 94.8965 53.7827 77.8447 55.6618V53.8587C77.8447 52.1104 76.4259 50.6958 74.6818 50.6958H52.343C50.599 50.6958 49.1801 52.1104 49.1801 53.8587V56.2742C28.788 54.9735 12.3612 50.0497 6.40702 43.631C4.84034 41.9461 4 40.1598 4 38.306C4 28.1965 29.0541 20 59.961 20C90.868 20 115.922 28.1965 115.922 38.306Z" stroke="black" stroke-width="2" stroke-miterlimit="10"/>
<path d="M113.515 43.631C108.27 49.2854 94.8965 53.7827 77.8447 55.6619V53.8587C77.8447 52.1105 76.4258 50.6958 74.6818 50.6958H52.343C50.599 50.6958 49.1801 52.1105 49.1801 53.8587V56.2742C28.788 54.9736 12.3612 50.0497 6.40698 43.631C13.3789 36.1186 34.7169 30.65 59.961 30.65C85.2051 30.65 106.543 36.1186 113.515 43.631Z" stroke="black" stroke-width="2" stroke-miterlimit="10"/>
<path d="M49.1801 56.2742V66.92C23.4335 65.2773 4 57.8578 4 48.956V38.306C4 40.1599 4.84034 41.9461 6.40702 43.631C12.3612 50.0497 28.788 54.9736 49.1801 56.2742Z" stroke="black" stroke-width="2" stroke-miterlimit="10"/>
<path d="M115.922 38.306V48.956C115.922 57.0216 99.9808 63.8669 77.8447 66.3077V55.6619C94.8965 53.7827 108.27 49.2854 113.515 43.631C115.082 41.9461 115.922 40.1599 115.922 38.306Z" stroke="black" stroke-width="2" stroke-miterlimit="10"/>
<path d="M4 50.1003V48.9559" stroke="black" stroke-width="2" stroke-miterlimit="10"/>
<path d="M115.922 50.6957V48.9559" stroke="black" stroke-width="2" stroke-miterlimit="10"/>
<path d="M77.8448 53.8587V68.8371C77.8448 70.5811 76.4259 72 74.6819 72H52.3431C50.5991 72 49.1802 70.5811 49.1802 68.8371V53.8587C49.1802 52.1104 50.5991 50.6958 52.3431 50.6958H74.6819C76.4259 50.6958 77.8448 52.1104 77.8448 53.8587Z" stroke="black" stroke-width="2" stroke-miterlimit="10"/>
<path d="M71.0967 69.0947H55.9283C53.9477 69.0947 52.3473 67.49 52.3473 65.5137V57.1863C52.3473 55.2058 53.952 53.6053 55.9283 53.6053H71.0967C73.0772 53.6053 74.6776 55.21 74.6776 57.1863V65.5095C74.6819 67.49 73.0772 69.0947 71.0967 69.0947Z" stroke="black" stroke-width="2" stroke-miterlimit="10"/>
<path d="M63.5125 61.3458H77.0044" stroke="black" stroke-width="2" stroke-miterlimit="10"/>
</svg>
