<svg width="120" height="100" viewBox="0 0 120 100" fill="none" xmlns="http://www.w3.org/2000/svg">
<rect width="120" height="100" fill="white"/>
<path d="M37.3006 64.1095C36.0507 63.7293 34.9015 63.5717 33.9436 63.0549C30.6496 61.2777 30.0005 56.9375 32.6054 54.2107C33.2125 53.5742 33.263 53.0847 33.0046 52.3095C31.5697 48.024 30.9416 43.6103 31.0214 39.0916C31.2189 27.8105 38.6724 17.1366 49.214 13.0464C65.0285 6.91008 82.2505 15.0463 87.5066 31.1381C89.036 35.8207 89.2376 40.6125 88.4624 45.4296C88.0654 47.9001 87.3722 50.3264 86.744 52.7528C86.6012 53.3011 86.7167 53.5952 87.0802 53.9649C89.5843 56.5216 89.454 60.284 86.8092 62.5066C85.7714 63.3784 84.7945 63.702 82.5908 63.87C82.5908 64.1326 82.5908 64.4078 82.5908 64.6809C82.5908 66.8573 82.6055 69.0316 82.5866 71.208C82.5572 75.0376 80.9985 78.1005 77.8746 80.3189C75.1836 82.2306 72.4736 84.1129 69.7363 85.9574C63.6336 90.0665 56.01 90.0055 49.9598 85.8313C47.3737 84.0457 44.7919 82.2537 42.2101 80.4597C38.935 78.1825 37.2985 75.046 37.3027 71.0525C37.3048 68.9286 37.3027 66.8069 37.3027 64.683C37.3006 64.4309 37.3006 64.1746 37.3006 64.1095ZM68.7721 72.3613C68.8393 72.3802 68.9065 72.397 68.9737 72.4159C69.1166 71.9852 69.3014 71.563 69.3918 71.1218C69.9863 68.2039 71.5219 65.9456 73.9882 64.2671C76.7738 62.3722 79.8094 61.347 83.1832 61.3008C84.5739 61.2819 85.5865 60.5907 86.1159 59.3072C86.6474 58.0152 86.3512 56.843 85.3953 55.8367C85.0886 55.5132 84.7819 55.1876 84.45 54.8935C83.8723 54.3788 83.7631 53.8053 83.9983 53.0574C84.5403 51.3369 85.1075 49.6164 85.4899 47.8559C86.5529 42.9633 86.8134 38.0454 85.471 33.1527C80.7884 16.0946 61.661 8.23986 46.4557 17.2605C38.8279 21.7855 34.5717 28.6655 33.6663 37.516C33.1642 42.4381 33.9709 47.2257 35.4919 51.9062C36.2418 54.2107 36.4561 53.8998 34.6305 55.6939C33.5949 56.7106 33.244 57.8955 33.7524 59.2736C34.223 60.5487 35.3868 61.1705 36.9015 61.3386C38.6052 61.5277 40.3656 61.7041 41.9622 62.2734C46.357 63.8448 49.7182 66.5065 50.5648 71.4663C50.6215 71.7962 50.8337 72.1008 50.9744 72.418C51.0207 72.4033 51.0669 72.3886 51.1152 72.3739C51.1341 72.0546 51.1509 71.7352 51.1677 71.4348C52.0353 71.4348 52.8294 71.4348 53.6823 71.4348C53.6823 72.2709 53.6823 73.0482 53.6823 73.8381C54.5352 73.8381 55.3293 73.8381 56.2095 73.8381C56.2095 72.9915 56.2095 72.1953 56.2095 71.418C57.0729 71.418 57.8481 71.418 58.7094 71.418C58.7094 72.2562 58.7094 73.0524 58.7094 73.8276C59.5917 73.8276 60.3879 73.8276 61.2366 73.8276C61.2366 72.9873 61.2366 72.21 61.2366 71.4306C62.0895 71.4306 62.8857 71.4306 63.7365 71.4306C63.7365 72.2625 63.7365 73.0398 63.7365 73.8444C64.5894 73.8444 65.3835 73.8444 66.2637 73.8444C66.2637 73.002 66.2637 72.2079 66.2637 71.4075C67.1293 71.4075 67.9065 71.4075 68.7237 71.4075C68.7405 71.7478 68.7552 72.0546 68.7721 72.3613ZM79.9586 64.141C78.9355 64.5696 77.9272 64.9246 76.9797 65.3973C74.2109 66.7838 72.2971 68.8446 71.753 72.0273C71.4883 73.5776 70.5094 74.6973 69.2153 75.5691C68.9884 75.7204 68.791 76.0754 68.7742 76.3485C68.7174 77.1972 68.7531 78.0522 68.7531 78.882C67.8519 78.882 67.0746 78.882 66.2154 78.882C66.2154 78.0438 66.2154 77.2476 66.2154 76.4746C65.3331 76.4746 64.5369 76.4746 63.6882 76.4746C63.6882 77.3149 63.6882 78.0921 63.6882 78.8715C62.8353 78.8715 62.0391 78.8715 61.1883 78.8715C61.1883 78.0396 61.1883 77.2623 61.1883 76.4577C60.3354 76.4577 59.5413 76.4577 58.6611 76.4577C58.6611 77.3001 58.6611 78.0963 58.6611 78.8883C57.7977 78.8883 57.0225 78.8883 56.1612 78.8883C56.1612 78.0564 56.1612 77.2581 56.1612 76.4683C55.2789 76.4683 54.4848 76.4683 53.634 76.4683C53.634 77.3023 53.634 78.0795 53.634 78.8757C52.7811 78.8757 51.987 78.8757 51.1404 78.8757C51.1404 78.0438 51.111 77.2602 51.1509 76.4809C51.1761 76.0061 51.0249 75.7372 50.611 75.4809C49.2812 74.6616 48.4514 73.4642 48.088 71.9327C47.9136 71.1974 47.7225 70.4538 47.4305 69.7605C46.4494 67.435 44.4768 66.1535 42.3298 65.1032C41.5672 64.7292 40.7374 64.4897 39.8173 64.1431C39.8173 64.5654 39.8173 64.8217 39.8173 65.0758C39.8173 67.0674 39.8278 69.0589 39.8152 71.0504C39.7942 74.17 41.0652 76.6132 43.6281 78.3862C46.1889 80.1614 48.7455 81.9428 51.3148 83.7054C56.6276 87.3523 62.9698 87.4321 68.3351 83.8608C71.1039 82.0184 73.8202 80.1005 76.5364 78.1846C78.446 76.838 79.759 74.9956 79.9166 72.6659C80.1014 69.9055 79.9586 67.1241 79.9586 64.141Z" fill="black"/>
<path d="M46.5082 57.6726C45.3507 57.5067 44.1449 57.492 43.042 57.1475C40.0295 56.2084 38.3069 53.3325 38.5884 49.9356C38.7627 47.8201 39.3678 45.8328 40.4391 43.9904C42.8802 39.791 48.3737 38.6293 52.2811 41.5052C53.1235 42.1249 53.947 42.7783 54.7369 43.4652C59.0729 47.2277 58.0057 54.1707 52.7412 56.4668C50.7602 57.3344 48.6762 57.6201 46.5082 57.6726ZM46.6028 55.0677C48.3254 55.0992 50.0018 54.8828 51.6026 54.2274C55.2369 52.7401 56.0688 48.089 53.1592 45.4483C52.3672 44.7299 51.5227 44.0555 50.6488 43.44C48.5649 41.9737 45.794 42.0787 43.8949 43.7782C41.7815 45.671 41.145 48.2213 41.0925 50.9397C41.0547 52.8598 42.3781 54.49 44.2688 54.887C45.023 55.0467 45.8213 55.0131 46.6028 55.0677Z" fill="black"/>
<path d="M73.1752 57.5297C71.2846 57.6116 69.3561 57.3448 67.4969 56.618C61.8228 54.3954 60.6757 47.1078 65.3982 43.255C66.1692 42.6269 66.9381 41.9904 67.749 41.4148C71.3182 38.8792 76.3138 39.6207 78.8767 43.1626C80.801 45.8222 81.6791 48.8515 81.1812 52.1328C80.7149 55.2 78.0175 57.4352 74.921 57.5234C74.3706 57.5423 73.8202 57.5297 73.1752 57.5297ZM73.0849 55.0172C73.7425 55.0172 74.213 55.0256 74.6836 55.0151C77.068 54.971 78.8305 53.1769 78.8095 50.7926C78.7927 48.7863 78.2591 46.9167 77.236 45.194C75.5407 42.337 71.8182 41.5639 69.1271 43.5197C68.3246 44.1038 67.5431 44.7256 66.7995 45.3831C63.7933 48.0364 64.6231 52.7526 68.3477 54.2462C69.9317 54.8806 71.5787 55.0886 73.0849 55.0172Z" fill="black"/>
<path d="M59.9215 55.549C60.4341 55.3873 60.9698 55.0638 61.4887 55.0911C62.1757 55.1268 62.3941 55.7738 62.5307 56.3956C62.6819 57.0847 62.9004 57.759 63.0454 58.4502C63.3311 59.8199 63.9508 60.9963 64.9255 62.0068C65.8184 62.9311 66.2721 64.0655 66.2259 65.3575C66.1755 66.7524 65.5138 67.8091 64.2722 68.4519C63.0559 69.08 61.8458 68.9897 60.6883 68.267C60.4467 68.1158 60.2282 67.9225 59.9699 67.7271C59.8963 67.7691 59.8018 67.809 59.7262 67.87C58.2556 69.0485 56.6402 69.1808 55.2369 68.2334C53.8525 67.2986 53.2937 65.5759 53.8903 63.8428C54.0898 63.2609 54.3839 62.6517 54.8041 62.2189C56.0015 60.9858 56.6801 59.5321 56.9931 57.8704C57.0897 57.3578 57.2725 56.862 57.3754 56.3494C57.5036 55.7129 57.7599 55.1016 58.4489 55.0806C58.9468 55.0659 59.4552 55.3894 59.9215 55.549ZM59.0602 59.9522C58.617 61.4101 57.7893 62.6895 56.7263 63.8428C56.4595 64.1327 56.3019 64.5655 56.2074 64.9604C56.0645 65.5675 56.3103 66.0654 56.9175 66.2755C57.4994 66.4772 57.9363 66.2146 58.222 65.6957C58.4237 65.3302 58.5897 64.9436 58.7976 64.5802C59.3816 63.5634 60.5119 63.5697 61.0959 64.5928C61.3164 64.9793 61.4803 65.3974 61.7114 65.7755C62.0013 66.2482 62.4382 66.4688 62.9844 66.2713C63.5117 66.078 63.7827 65.66 63.6966 65.1012C63.642 64.7482 63.5622 64.3365 63.3437 64.0823C62.2408 62.8176 61.2534 61.4921 60.8312 59.9543C60.1904 59.9522 59.6842 59.9522 59.0602 59.9522Z" fill="black"/>
<path d="M38.9329 39.764C38.6892 39.0372 38.4455 38.3019 38.2102 37.5982C38.2753 37.5078 38.2963 37.4469 38.3363 37.428C41.0168 36.1402 41.75 34.0185 40.4286 31.3652C39.8593 30.2245 39.2879 29.0838 38.6997 27.9074C39.4497 27.5313 40.145 27.1805 40.958 26.7729C42.0819 29.4556 44.1532 31.7622 43.4453 34.9806C42.939 37.283 41.0042 39.4006 38.9329 39.764Z" fill="black"/>
<path d="M78.9439 26.7686C79.7337 27.1635 80.4291 27.5122 81.1896 27.8925C80.6896 28.9029 80.2106 29.8798 79.7232 30.8545C78.1162 34.0771 78.5909 35.7346 81.6917 37.5559C81.4522 38.2807 81.2085 39.0181 80.9669 39.747C78.9901 39.4655 76.9628 37.3396 76.465 35.0771C76.1499 33.6506 76.2696 32.2641 76.8935 30.9428C77.5364 29.5752 78.2254 28.2265 78.9439 26.7686Z" fill="black"/>
</svg>
