<svg width="120" height="100" viewBox="0 0 120 100" fill="none" xmlns="http://www.w3.org/2000/svg">
<rect width="120" height="100" fill="white"/>
<path d="M97 84.0181C96.5486 84.182 96.0972 84.4875 95.6458 84.4875C71.8694 84.5099 48.0931 84.5077 24.3168 84.5077C24.2202 84.5077 24.1236 84.5099 24.027 84.5032C23.3376 84.4583 22.9625 84.1259 23.003 83.5577C23.0479 82.9356 23.4364 82.6886 24.027 82.6886C25.1836 82.6908 26.3402 82.6886 27.4968 82.6863C27.7573 82.6863 28.0178 82.6863 28.3525 82.6863C28.3704 82.3001 28.3974 81.9722 28.3974 81.6465C28.3996 63.5049 28.3996 45.3633 28.3996 27.2217C28.3996 26.9567 28.4064 26.6917 28.3996 26.4267C28.3817 25.7529 28.6961 25.3824 29.3451 25.1713C33.5987 23.7923 37.8455 22.3865 42.0946 20.9918C43.6262 20.4887 45.1578 19.9902 46.6895 19.4894C48.0347 19.0492 48.4277 19.3411 48.4277 20.7874C48.4277 31.5336 48.4277 42.2776 48.4277 53.0237C48.4277 62.5639 48.4277 72.1041 48.4277 81.6443C48.4277 81.9272 48.4277 82.2125 48.4277 82.5359C49.4428 82.5359 50.3951 82.5359 51.4596 82.5359C51.4596 82.2417 51.4596 81.9407 51.4596 81.6398C51.4596 59.9565 51.4596 38.2733 51.4596 16.59C51.4596 15.1145 51.5741 15 53.081 15C58.5249 15 63.9687 15 69.4125 15C70.9958 15 71.1126 15.1168 71.1126 16.6686C71.1126 38.3272 71.1126 59.9857 71.1126 81.6443C71.1126 81.9564 71.1126 82.2664 71.1126 82.6302C72.0581 82.6302 72.9564 82.6302 73.958 82.6302C73.958 82.2821 73.958 81.952 73.958 81.6241C73.958 63.4106 73.958 45.1971 73.958 26.9836C73.958 25.4879 73.958 25.4902 75.3954 25.0185C81.0144 23.1725 86.6356 21.3264 92.2546 19.4804C93.5662 19.0492 93.9637 19.3389 93.9637 20.7358C93.9637 41.0221 93.9637 61.3063 93.9637 81.5926C93.9637 81.8801 93.9637 82.1675 93.9637 82.4842C94.9631 82.8233 96.178 82.1181 96.9978 83.1467C97 83.4387 97 83.7284 97 84.0181ZM69.2171 82.5561C69.2171 60.6213 69.2171 38.7606 69.2171 16.8618C63.9126 16.8618 58.6529 16.8618 53.3618 16.8618C53.3618 38.7808 53.3618 60.6572 53.3618 82.5561C58.6663 82.5561 63.9126 82.5561 69.2171 82.5561ZM92.2007 82.5516C92.2007 62.1507 92.2007 41.8329 92.2007 21.4589C91.9335 21.5398 91.7066 21.6027 91.4821 21.6745C86.5211 23.287 81.5646 24.9085 76.5969 26.5008C76.0466 26.6782 75.8737 26.9207 75.876 27.5069C75.8939 45.5946 75.8917 63.6801 75.8917 81.7678C75.8917 82.0238 75.8917 82.2776 75.8917 82.5538C81.3714 82.5516 86.7546 82.5516 92.2007 82.5516ZM46.539 21.4724C46.3414 21.5196 46.2246 21.542 46.1123 21.578C40.9919 23.2488 35.8782 24.931 30.7487 26.5726C30.1806 26.7545 30.2345 27.0959 30.2345 27.5002C30.2345 45.5901 30.2345 63.6801 30.2345 81.7723C30.2345 82.0261 30.2345 82.2821 30.2345 82.5426C35.7277 82.5426 41.1131 82.5426 46.5368 82.5426C46.539 62.1866 46.539 41.8666 46.539 21.4724Z" fill="black"/>
<path d="M66.0573 54.5509C66.0573 55.1281 66.0708 55.7052 66.0528 56.2824C66.0371 56.8461 65.7339 57.2099 65.1679 57.2211C64.6042 57.2324 64.2472 56.8708 64.2314 56.3228C64.1933 55.0966 64.1955 53.8704 64.2292 52.6442C64.2427 52.0962 64.5571 51.7459 65.1545 51.7571C65.7474 51.7683 66.0303 52.1187 66.0528 52.6734C66.0775 53.2977 66.0573 53.9243 66.0573 54.5509Z" fill="black"/>
<path d="M58.2531 54.461C58.2531 55.0629 58.2643 55.6648 58.2508 56.2689C58.2374 56.8326 57.9454 57.2009 57.3772 57.2234C56.7664 57.2481 56.4295 56.8708 56.4183 56.2824C56.3936 55.0786 56.3913 53.8726 56.4205 52.6689C56.434 52.1254 56.7282 51.7548 57.3278 51.7593C57.9611 51.7616 58.2351 52.1411 58.2508 52.7273C58.2666 53.3044 58.2531 53.8816 58.2531 54.461Z" fill="black"/>
<path d="M58.2532 64.8863C58.2532 65.4635 58.2644 66.0406 58.2509 66.6178C58.2375 67.168 57.9927 67.5543 57.402 67.5835C56.7822 67.6149 56.4386 67.2421 56.4206 66.6672C56.3824 65.4657 56.3892 64.262 56.4161 63.0605C56.4296 62.4743 56.7552 62.1082 57.3796 62.1352C57.9657 62.1599 58.2352 62.5282 58.2487 63.0829C58.2666 63.6848 58.2532 64.2867 58.2532 64.8863Z" fill="black"/>
<path d="M58.2531 23.6776C58.2531 24.2548 58.2688 24.8319 58.2486 25.4091C58.2284 25.9571 57.9813 26.3344 57.3795 26.3523C56.7911 26.3703 56.4475 26.02 56.4295 25.481C56.3868 24.2323 56.3958 22.9791 56.4295 21.7305C56.443 21.2027 56.8045 20.8816 57.3323 20.8883C57.8938 20.895 58.2239 21.2319 58.2441 21.8001C58.2666 22.4244 58.2486 23.051 58.2486 23.6753C58.2508 23.6776 58.2508 23.6776 58.2531 23.6776Z" fill="black"/>
<path d="M58.2532 75.1381C58.2532 75.74 58.2666 76.3418 58.2487 76.9415C58.2329 77.5029 57.9365 77.869 57.3638 77.878C56.7979 77.8892 56.4408 77.5366 56.4251 76.9864C56.3891 75.7602 56.3914 74.534 56.4228 73.3078C56.4363 72.762 56.7485 72.4094 57.3458 72.4207C57.9387 72.4319 58.2217 72.78 58.2464 73.3347C58.2711 73.9343 58.2509 74.5362 58.2532 75.1381Z" fill="black"/>
<path d="M66.0573 75.143C66.0573 75.7426 66.0708 76.3445 66.0528 76.9441C66.0393 77.4651 65.7788 77.8334 65.2398 77.8716C64.6739 77.912 64.2719 77.5707 64.2472 77.0407C64.191 75.7718 64.2 74.4962 64.2404 73.2273C64.2562 72.7085 64.6065 72.4098 65.159 72.4233C65.7114 72.4368 66.0124 72.7489 66.0416 73.2722C66.0775 73.8943 66.0505 74.5209 66.0505 75.1452C66.055 75.143 66.055 75.143 66.0573 75.143Z" fill="black"/>
<path d="M58.2532 44.2453C58.2532 44.8224 58.2644 45.4018 58.2509 45.979C58.2374 46.5382 57.9545 46.9065 57.3773 46.929C56.7597 46.9537 56.4296 46.5831 56.4161 45.9947C56.3914 44.791 56.3914 43.5872 56.4183 42.3835C56.4318 41.8333 56.735 41.4694 57.3256 41.4717C57.9477 41.4739 58.2374 41.8467 58.2509 42.4396C58.2644 43.0415 58.2532 43.6434 58.2532 44.2453Z" fill="black"/>
<path d="M66.0596 44.2379C66.0596 44.8151 66.0708 45.3923 66.0573 45.9695C66.0439 46.5264 65.7744 46.9037 65.1949 46.9262C64.5818 46.9486 64.2427 46.5668 64.227 45.9919C64.1933 44.7904 64.1978 43.5867 64.2247 42.3874C64.236 41.8394 64.5392 41.4734 65.1298 41.4756C65.7519 41.4778 66.0416 41.8462 66.0573 42.439C66.0708 43.0364 66.0596 43.6361 66.0596 44.2379Z" fill="black"/>
<path d="M66.0596 23.6708C66.0596 24.248 66.0753 24.8229 66.0551 25.4001C66.0371 25.9436 65.7968 26.3344 65.1949 26.3478C64.6133 26.3613 64.2607 25.993 64.2405 25.472C64.1888 24.2256 64.2023 22.9746 64.236 21.7282C64.2494 21.2027 64.611 20.8816 65.1388 20.8883C65.698 20.895 66.0304 21.2319 66.0506 21.8001C66.073 22.4244 66.0551 23.0488 66.0551 23.6731C66.0573 23.6708 66.0573 23.6708 66.0596 23.6708Z" fill="black"/>
<path d="M58.2531 33.9479C58.2531 34.525 58.2666 35.1044 58.2486 35.6816C58.2329 36.2296 57.9858 36.6069 57.3884 36.6361C56.7551 36.6675 56.434 36.3037 56.4183 35.7198C56.3868 34.516 56.3891 33.3123 56.4183 32.1085C56.4317 31.5201 56.7664 31.1541 57.3862 31.1833C57.9679 31.2102 58.2374 31.5853 58.2508 32.14C58.2643 32.7441 58.2531 33.346 58.2531 33.9479Z" fill="black"/>
<path d="M66.0595 64.8927C66.0595 65.4699 66.0708 66.0448 66.0573 66.622C66.0438 67.17 65.799 67.5585 65.2061 67.5832C64.629 67.6057 64.2629 67.2441 64.2427 66.7186C64.1955 65.4497 64.2045 64.1741 64.2517 62.9052C64.2719 62.373 64.6627 62.1102 65.1972 62.1349C65.7047 62.1596 66.0124 62.456 66.0393 62.9501C66.0775 63.5969 66.0483 64.246 66.0483 64.895C66.0528 64.8927 66.0551 64.8927 66.0595 64.8927Z" fill="black"/>
<path d="M66.0596 33.9522C66.0596 34.5294 66.073 35.1065 66.0551 35.6837C66.0371 36.2317 65.7946 36.6135 65.1949 36.6359C64.5661 36.6584 64.2427 36.2744 64.227 35.7062C64.1911 34.5047 64.2 33.3032 64.2248 32.1016C64.236 31.5469 64.5549 31.1809 65.1298 31.1831C65.7362 31.1854 66.0461 31.5559 66.0573 32.1511C66.0708 32.7484 66.0596 33.3503 66.0596 33.9522Z" fill="black"/>
<path d="M62.1833 33.9951C62.1833 34.5723 62.1923 35.1495 62.1788 35.7266C62.1676 36.2993 61.8734 36.6272 61.2872 36.6362C60.6943 36.6452 60.3911 36.3061 60.3822 35.7424C60.3642 34.5162 60.3664 33.2899 60.3844 32.0615C60.3934 31.4821 60.737 31.1699 61.3074 31.1856C61.8846 31.2013 62.1743 31.5472 62.1788 32.1199C62.1878 32.7442 62.1833 33.3685 62.1833 33.9951Z" fill="black"/>
<path d="M62.1833 44.2045C62.1833 44.8064 62.1878 45.4083 62.181 46.0101C62.1743 46.5895 61.8666 46.9197 61.2939 46.9287C60.7213 46.9376 60.3911 46.6142 60.3844 46.0371C60.3709 44.8109 60.3687 43.5824 60.3866 42.3562C60.3956 41.7835 60.719 41.4624 61.3052 41.4781C61.8913 41.4938 62.1743 41.8307 62.181 42.4034C62.19 43.003 62.1833 43.6049 62.1833 44.2045Z" fill="black"/>
<path d="M62.1833 54.497C62.1833 55.0989 62.1878 55.7008 62.1811 56.3027C62.1766 56.8866 61.8509 57.2167 61.2917 57.2234C60.7258 57.2302 60.3911 56.8978 60.3867 56.3206C60.3732 55.0922 60.3687 53.866 60.3911 52.6375C60.4024 52.0693 60.7213 51.7459 61.3119 51.7639C61.9048 51.7819 62.1743 52.1277 62.1833 52.6937C62.19 53.2933 62.1833 53.8952 62.1833 54.497Z" fill="black"/>
<path d="M62.1833 23.6285C62.1833 24.2304 62.1923 24.83 62.181 25.4319C62.1698 25.9978 61.8981 26.3459 61.3052 26.3504C60.719 26.3549 60.4024 26.0091 60.3911 25.4544C60.3642 24.2304 60.3732 23.0042 60.3889 21.778C60.3956 21.1963 60.746 20.8774 61.3074 20.8931C61.8689 20.9066 62.181 21.2457 62.1833 21.8251C62.1855 22.427 62.1833 23.0266 62.1833 23.6285Z" fill="black"/>
<path d="M62.1833 75.154C62.1833 75.7536 62.1878 76.3555 62.1811 76.9551C62.1743 77.5323 61.8689 77.8759 61.3007 77.8759C60.7392 77.8782 60.3956 77.5413 60.3867 76.9731C60.3664 75.7491 60.3664 74.5229 60.3889 73.299C60.4001 72.7308 60.719 72.4096 61.3097 72.4254C61.9003 72.4411 62.1721 72.7869 62.1811 73.3506C62.19 73.9525 62.1833 74.5521 62.1833 75.154Z" fill="black"/>
<path d="M62.1833 64.8637C62.1833 65.4633 62.1878 66.0652 62.181 66.6648C62.1743 67.1971 61.9228 67.5452 61.3748 67.5811C60.8111 67.617 60.4181 67.3296 60.4023 66.7591C60.3664 65.488 60.3754 64.2169 60.4001 62.9457C60.4113 62.391 60.7752 62.1283 61.3074 62.1395C61.8419 62.1507 62.1608 62.4427 62.1765 62.9907C62.1945 63.615 62.181 64.2393 62.181 64.8637C62.1788 64.8637 62.181 64.8637 62.1833 64.8637Z" fill="black"/>
<path d="M84.8659 44.2471C84.8659 44.8489 84.8772 45.4486 84.8637 46.0504C84.8502 46.5939 84.5448 46.9083 84.0125 46.9263C83.4847 46.9443 83.1007 46.6591 83.085 46.1246C83.0491 44.8287 83.0513 43.5329 83.0872 42.2371C83.103 41.6846 83.5005 41.4488 84.0327 41.478C84.538 41.5072 84.839 41.7946 84.8569 42.3C84.8816 42.9467 84.8637 43.598 84.8637 44.2471C84.8637 44.2471 84.8637 44.2471 84.8659 44.2471Z" fill="black"/>
<path d="M84.8659 54.5015C84.8659 55.1034 84.8704 55.703 84.8659 56.3049C84.8614 56.8484 84.5672 57.1852 84.0417 57.2167C83.4847 57.2504 83.0917 56.9359 83.076 56.37C83.0423 55.0966 83.0468 53.8233 83.0805 52.5499C83.0962 52.0086 83.4578 51.7391 84.0013 51.7594C84.5515 51.7796 84.8434 52.0895 84.8614 52.624C84.8794 53.2506 84.8636 53.8772 84.8659 54.5015Z" fill="black"/>
<path d="M80.938 54.5038C80.938 55.081 80.9514 55.6582 80.9357 56.2354C80.92 56.8238 80.6236 57.2325 80.0194 57.2235C79.4265 57.2145 79.1054 56.8125 79.0964 56.2286C79.0784 55.0496 79.0762 53.8705 79.1009 52.6937C79.1121 52.148 79.3839 51.7774 79.9835 51.7617C80.6168 51.746 80.9065 52.1188 80.9335 52.7027C80.9582 53.3001 80.938 53.902 80.938 54.5038Z" fill="black"/>
<path d="M80.9403 64.8707C80.9403 65.4479 80.9537 66.0228 80.9358 66.6C80.92 67.1367 80.7022 67.5522 80.1048 67.5814C79.4917 67.6106 79.1301 67.2378 79.1099 66.6719C79.065 65.4501 79.0785 64.2239 79.1054 63C79.1167 62.4767 79.4356 62.1488 79.9768 62.1353C80.5517 62.1196 80.8886 62.4385 80.9223 63C80.9582 63.622 80.9313 64.2486 80.9313 64.8707C80.9335 64.8707 80.9358 64.8707 80.9403 64.8707Z" fill="black"/>
<path d="M80.9402 75.1266C80.9402 75.7038 80.9492 76.2787 80.938 76.8559C80.9267 77.4331 80.6775 77.8665 80.0599 77.8732C79.467 77.88 79.1166 77.487 79.1009 76.912C79.0695 75.7128 79.074 74.5113 79.1032 73.312C79.1166 72.7618 79.4288 72.4182 80.0217 72.4204C80.6168 72.4227 80.8998 72.7797 80.929 73.3277C80.9604 73.9251 80.9357 74.527 80.9357 75.1289C80.938 75.1266 80.938 75.1266 80.9402 75.1266Z" fill="black"/>
<path d="M80.938 33.8918C80.938 34.4937 80.9582 35.0956 80.9313 35.6952C80.9088 36.2365 80.6595 36.625 80.0577 36.6362C79.4333 36.6474 79.1144 36.2701 79.1009 35.693C79.0717 34.4915 79.0762 33.29 79.1009 32.0885C79.1122 31.527 79.4445 31.1812 80.015 31.1812C80.5854 31.1812 80.9021 31.5315 80.929 32.0907C80.956 32.6903 80.9358 33.2922 80.9358 33.8941C80.9358 33.8918 80.9358 33.8918 80.938 33.8918Z" fill="black"/>
<path d="M84.8659 33.95C84.8659 34.5496 84.8794 35.1515 84.8614 35.7511C84.848 36.2856 84.5695 36.6113 84.0193 36.6315C83.4825 36.6539 83.103 36.3732 83.085 35.8432C83.0446 34.5496 83.0491 33.2515 83.0828 31.958C83.0962 31.4055 83.496 31.1562 84.0193 31.1854C84.556 31.2146 84.8502 31.5335 84.8592 32.0747C84.8749 32.6991 84.8659 33.3234 84.8659 33.95Z" fill="black"/>
<path d="M79.0919 44.1864C79.0919 43.5845 79.0717 42.9827 79.0987 42.383C79.1234 41.8283 79.4153 41.4757 80.0037 41.4712C80.5876 41.4667 80.9133 41.8059 80.9268 42.3628C80.9537 43.589 80.9515 44.8152 80.9268 46.0415C80.9155 46.5625 80.6146 46.9106 80.0711 46.9263C79.5029 46.9443 79.1526 46.6119 79.1121 46.0617C79.065 45.4396 79.1009 44.813 79.1009 44.1887C79.0964 44.1864 79.0942 44.1864 79.0919 44.1864Z" fill="black"/>
<path d="M84.8682 75.1385C84.8682 75.7381 84.8727 76.3377 84.8659 76.9396C84.8615 77.4696 84.6099 77.8312 84.0709 77.8716C83.5095 77.9143 83.103 77.5931 83.0828 77.0474C83.0356 75.7561 83.0468 74.458 83.0895 73.1666C83.1075 72.6142 83.5162 72.3941 84.0485 72.43C84.5628 72.466 84.8368 72.7691 84.8547 73.2677C84.8772 73.8898 84.8592 74.5164 84.8592 75.1385C84.8637 75.1385 84.8659 75.1385 84.8682 75.1385Z" fill="black"/>
<path d="M84.8659 64.837C84.8659 65.4613 84.8771 66.0857 84.8636 66.7077C84.8524 67.2063 84.5964 67.5297 84.0866 67.5746C83.5566 67.6195 83.1321 67.3478 83.1097 66.838C83.0535 65.4995 83.0647 64.1565 83.1074 62.818C83.1254 62.2947 83.5543 62.1128 84.0394 62.1398C84.5066 62.1667 84.8232 62.4228 84.8479 62.8966C84.8839 63.5412 84.8569 64.1902 84.8569 64.8392C84.8591 64.837 84.8614 64.837 84.8659 64.837Z" fill="black"/>
<path d="M87.0084 33.8336C87.0084 33.2565 87.0017 32.6815 87.0107 32.1044C87.0174 31.5272 87.3228 31.1948 87.8933 31.1858C88.4659 31.1746 88.7983 31.498 88.805 32.0729C88.8208 33.2969 88.8253 34.5231 88.805 35.7471C88.7961 36.3108 88.4929 36.6544 87.9 36.6342C87.3251 36.6139 87.0286 36.2726 87.0129 35.7089C86.9972 35.0823 87.0084 34.458 87.0084 33.8336Z" fill="black"/>
<path d="M87.0084 44.1887C87.0084 43.5891 87.0017 42.9872 87.0107 42.3876C87.0196 41.8149 87.3161 41.487 87.8978 41.4758C88.4839 41.4668 88.7983 41.7947 88.8051 42.3629C88.823 43.5868 88.8208 44.813 88.8051 46.037C88.7983 46.6119 88.4682 46.9443 87.8955 46.9218C87.3341 46.9016 87.0219 46.5558 87.0107 45.9876C86.9972 45.3902 87.0084 44.7883 87.0084 44.1887Z" fill="black"/>
<path d="M88.8073 54.4702C88.8073 55.0945 88.8185 55.7188 88.8051 56.3432C88.7938 56.8889 88.4749 57.2145 87.9517 57.219C87.4037 57.2235 87.0309 56.9091 87.0197 56.3319C86.9994 55.1057 87.0017 53.8795 87.0152 52.6556C87.0219 52.0829 87.3318 51.764 87.9157 51.7617C88.466 51.7595 88.7736 52.0582 88.7983 52.5972C88.8253 53.2215 88.8051 53.8458 88.8051 54.4702C88.8051 54.4702 88.8051 54.4702 88.8073 54.4702Z" fill="black"/>
<path d="M87.0129 64.8591C87.0129 64.2348 86.9994 63.6127 87.0174 62.9884C87.0331 62.4404 87.352 62.1507 87.8843 62.1372C88.4143 62.1237 88.7803 62.3865 88.7916 62.939C88.8163 64.2078 88.8163 65.479 88.7961 66.7478C88.7893 67.2913 88.4569 67.5968 87.9179 67.5788C87.3947 67.5631 87.0556 67.2532 87.0241 66.7276C86.9859 66.1078 87.0151 65.4812 87.0151 64.8591C87.0151 64.8591 87.0151 64.8591 87.0129 64.8591Z" fill="black"/>
<path d="M87.0107 75.1091C87.0107 74.5095 86.9994 73.9098 87.0152 73.3102C87.0286 72.778 87.2981 72.4523 87.8506 72.4254C88.4278 72.3962 88.7871 72.6836 88.7983 73.2608C88.823 74.5319 88.8163 75.8031 88.7938 77.0719C88.7848 77.5885 88.4412 77.8759 87.9561 77.8737C87.4463 77.8737 87.0713 77.575 87.0331 77.0472C86.986 76.4027 87.0219 75.7536 87.0219 75.1046C87.0174 75.1091 87.0129 75.1091 87.0107 75.1091Z" fill="black"/>
<path d="M33.5493 54.3917C33.5493 53.8617 33.5358 53.3339 33.5516 52.8039C33.5718 52.101 33.8839 51.7529 34.4701 51.7574C35.1102 51.7641 35.3797 52.1571 35.3886 52.732C35.4088 53.9111 35.4066 55.0901 35.3886 56.2669C35.3797 56.8194 35.0855 57.2124 34.515 57.2214C33.9199 57.2304 33.583 56.8598 33.5583 56.2669C33.5336 55.6426 33.5538 55.016 33.5538 54.3917C33.5516 54.3917 33.5493 54.3917 33.5493 54.3917Z" fill="black"/>
<path d="M39.3277 54.4565C39.3277 55.0583 39.33 55.658 39.3277 56.2599C39.3255 56.8303 39.0358 57.1919 38.4698 57.2188C37.9062 57.2435 37.5356 56.8999 37.5199 56.3474C37.4839 55.0988 37.4862 53.8479 37.5221 52.5992C37.5378 52.0355 37.8972 51.7301 38.4833 51.7638C39.0358 51.7974 39.3075 52.1231 39.321 52.6531C39.339 53.2527 39.3255 53.8546 39.3255 54.4565H39.3277Z" fill="black"/>
<path d="M33.5515 64.7535C33.5515 64.201 33.5425 63.6485 33.5537 63.0961C33.565 62.4964 33.8704 62.1349 34.479 62.1304C35.0584 62.1281 35.3728 62.4875 35.3841 63.0422C35.4065 64.2661 35.4065 65.4901 35.3796 66.7141C35.3683 67.2328 35.0652 67.5832 34.5172 67.5832C33.9512 67.5832 33.6099 67.2396 33.5717 66.6961C33.5245 66.0516 33.5605 65.4003 33.5605 64.7535C33.556 64.7535 33.5537 64.7535 33.5515 64.7535Z" fill="black"/>
<path d="M35.3953 75.1605C35.3953 75.7376 35.4087 76.3126 35.3908 76.8897C35.3728 77.4692 35.0966 77.8936 34.4835 77.8757C33.8996 77.8599 33.5649 77.4669 33.556 76.8808C33.538 75.704 33.538 74.5272 33.556 73.3526C33.5649 72.8001 33.8434 72.4431 34.4363 72.4251C35.0719 72.4049 35.3571 72.7844 35.384 73.3616C35.4132 73.9612 35.3908 74.5608 35.3908 75.1627C35.393 75.1605 35.393 75.1605 35.3953 75.1605Z" fill="black"/>
<path d="M39.3254 75.165C39.3254 75.7646 39.3322 76.3642 39.3232 76.9661C39.3142 77.5029 39.029 77.8442 38.499 77.8734C37.978 77.9026 37.567 77.6062 37.549 77.0896C37.5018 75.7736 37.5086 74.453 37.5513 73.137C37.567 72.6272 37.96 72.4049 38.4608 72.4251C38.9706 72.4431 39.2828 72.7215 39.3097 73.2223C39.3457 73.8691 39.3187 74.5182 39.3187 75.165C39.3209 75.165 39.3232 75.165 39.3254 75.165Z" fill="black"/>
<path d="M35.393 33.9029C35.393 34.5048 35.4155 35.1066 35.3863 35.704C35.3616 36.2453 35.1011 36.6338 34.5014 36.6338C33.8838 36.6338 33.5694 36.2632 33.5582 35.6793C33.5357 34.4778 33.5402 33.2763 33.5604 32.0748C33.5694 31.5021 33.9198 31.181 34.4812 31.1787C35.0135 31.1765 35.3436 31.4999 35.375 32.0276C35.411 32.6497 35.384 33.2763 35.384 33.9006C35.3863 33.9029 35.3885 33.9029 35.393 33.9029Z" fill="black"/>
<path d="M33.5515 44.1458C33.5515 43.5687 33.5403 42.9915 33.556 42.4143C33.5717 41.8574 33.8389 41.4958 34.4273 41.4733C35.0562 41.4486 35.3728 41.8169 35.3841 42.4009C35.411 43.6024 35.4065 44.8039 35.3841 46.0054C35.3728 46.5623 35.0562 46.9329 34.4857 46.9262C33.8884 46.9172 33.5717 46.5399 33.556 45.947C33.538 45.3496 33.5515 44.7477 33.5515 44.1458Z" fill="black"/>
<path d="M39.3254 44.2472C39.3254 44.8243 39.3299 45.4015 39.3254 45.9787C39.321 46.5491 39.0357 46.9017 38.4608 46.9242C37.8881 46.9466 37.531 46.6053 37.5176 46.0528C37.4839 44.8041 37.4861 43.5532 37.5221 42.3068C37.5378 41.7386 37.9083 41.4422 38.4878 41.4803C39.0335 41.5163 39.3097 41.8419 39.3232 42.3764C39.3367 42.9985 39.3254 43.6228 39.3254 44.2472Z" fill="black"/>
<path d="M39.3255 33.9142C39.3255 34.5138 39.3345 35.1157 39.3233 35.7153C39.312 36.2431 39.0605 36.589 38.5103 36.6294C37.9331 36.6698 37.5513 36.3644 37.5311 35.8097C37.4885 34.5385 37.4952 33.2652 37.5289 31.994C37.5424 31.4573 37.9107 31.1653 38.4429 31.1856C39.0111 31.2058 39.3165 31.5404 39.3255 32.1153C39.3345 32.7127 39.3278 33.3146 39.3255 33.9142Z" fill="black"/>
<path d="M39.3254 64.8792C39.3254 65.4788 39.3344 66.0784 39.3232 66.6781C39.3119 67.2103 39.0424 67.5494 38.499 67.5786C37.9667 67.6078 37.567 67.3091 37.549 66.7993C37.4996 65.4833 37.5108 64.165 37.5512 62.849C37.567 62.3324 37.9712 62.1168 38.463 62.137C38.9616 62.1572 39.2872 62.429 39.3119 62.9365C39.3434 63.5833 39.3209 64.2324 39.3209 64.8792C39.3209 64.8792 39.3232 64.8792 39.3254 64.8792Z" fill="black"/>
<path d="M43.2691 54.481C43.2691 55.0581 43.2646 55.6353 43.2691 56.2125C43.2736 56.8099 43.0064 57.1849 42.3955 57.2276C41.8498 57.2658 41.4792 56.8525 41.468 56.181C41.45 55.0514 41.45 53.9217 41.4657 52.7921C41.477 52.0735 41.7824 51.7456 42.3798 51.7613C43.0693 51.7815 43.2691 52.2194 43.2691 52.8235C43.2691 53.3738 43.2691 53.9285 43.2691 54.481Z" fill="black"/>
<path d="M43.2624 33.9524C43.2624 34.5521 43.2736 35.1539 43.2601 35.7536C43.2466 36.2881 42.9727 36.6205 42.4224 36.6339C41.8542 36.6474 41.4927 36.3487 41.4837 35.7738C41.459 34.5251 41.468 33.2764 41.4814 32.0278C41.4882 31.4708 41.834 31.1901 42.3596 31.1856C42.8828 31.1811 43.2377 31.4484 43.2534 32.0076C43.2736 32.6544 43.2579 33.3034 43.2579 33.9524C43.2556 33.9524 43.2579 33.9524 43.2624 33.9524Z" fill="black"/>
<path d="M43.2602 44.2538C43.2602 44.8535 43.2669 45.4553 43.2579 46.055C43.2489 46.6052 42.939 46.9174 42.4068 46.9263C41.8521 46.9353 41.486 46.6277 41.477 46.0482C41.459 44.7996 41.4613 43.5509 41.4792 42.3022C41.4882 41.7498 41.8318 41.478 42.3663 41.478C42.9053 41.478 43.231 41.7588 43.2489 42.309C43.2692 42.9558 43.2534 43.6048 43.2534 44.2538C43.2579 44.2538 43.2579 44.2538 43.2602 44.2538Z" fill="black"/>
<path d="M43.2601 75.1918C43.2601 75.7915 43.2669 76.3911 43.2579 76.9907C43.2511 77.5387 42.9457 77.8688 42.4202 77.8756C41.8767 77.8823 41.4927 77.5612 41.4792 76.9952C41.4523 75.7488 41.459 74.5001 41.4792 73.2537C41.4882 72.708 41.8206 72.4273 42.3618 72.4273C42.903 72.425 43.2287 72.7057 43.2489 73.2515C43.2736 73.8983 43.2556 74.5451 43.2556 75.1941C43.2579 75.1918 43.2579 75.1918 43.2601 75.1918Z" fill="black"/>
<path d="M43.2668 64.884C43.2668 65.4589 43.2691 66.0339 43.2668 66.6088C43.2646 67.1635 43.0333 67.5633 42.4426 67.579C41.8497 67.5947 41.4859 67.2511 41.4747 66.6537C41.4522 65.432 41.4612 64.208 41.4769 62.9863C41.4837 62.4361 41.8115 62.1464 42.3438 62.1374C42.9142 62.1284 43.2444 62.4294 43.2578 63.0133C43.2713 63.6354 43.2601 64.2597 43.2601 64.8818C43.2623 64.884 43.2646 64.884 43.2668 64.884Z" fill="black"/>
</svg>
