<svg width="120" height="100" viewBox="0 0 120 100" fill="none" xmlns="http://www.w3.org/2000/svg">
<rect width="120" height="100" fill="white"/>
<path d="M72.3056 11.6216C72.8446 11.7473 73.3958 11.8407 73.9246 12.0029C78.8405 13.5202 81.6107 16.9503 82.6501 21.8633C82.8535 22.8187 82.8982 23.8228 82.9023 24.8045C82.9267 30.0177 82.9063 35.2288 82.9186 40.4419C82.9206 41.5758 82.703 42.6043 81.7816 43.4603C82.9572 44.7727 82.9531 46.365 82.9165 47.9715C82.8982 48.8052 82.8941 49.643 82.9165 50.4767C82.9552 51.9615 82.5606 53.276 81.3972 54.3815C82.8026 55.6229 82.9796 57.2497 82.9186 58.9617C82.886 59.8461 82.8921 60.7326 82.9186 61.619C82.9633 63.1505 82.6196 64.5299 81.3952 65.6638C82.7803 66.895 82.9857 68.4935 82.9206 70.1872C82.8901 70.9966 82.8921 71.808 82.9206 72.6153C82.9775 74.2381 82.7253 75.7472 81.4419 76.9075C83.4962 79.226 83.2358 81.8265 82.2779 84.358C81.2609 87.0478 79.166 88.6665 76.3124 89.2223C75.6961 89.342 75.0534 89.3704 74.4208 89.3704C64.7781 89.3785 55.1353 89.3805 45.4925 89.3744C39.9744 89.3724 36.1934 84.9382 37.1493 79.4978C37.308 78.5972 37.8937 77.7716 38.3432 76.7797C37.0639 75.6438 36.9541 73.9216 37.0212 72.1406C37.0497 71.3576 37.0476 70.5706 37.0212 69.7876C36.9703 68.2358 37.2775 66.8159 38.5548 65.6658C37.1086 64.3899 36.9561 62.7306 37.0212 60.9963C37.0537 60.1362 37.0497 59.2741 37.0212 58.4161C36.9724 56.8826 37.3242 55.5032 38.5466 54.3713C37.1595 53.1461 36.9561 51.5498 37.0192 49.858C37.0517 48.998 37.0436 48.1379 37.0212 47.2778C36.9825 45.9025 37.1717 44.6003 38.1663 43.4684C37.068 42.4927 37.011 41.2249 37.0171 39.9105C37.0375 34.7987 37.0009 29.687 37.0334 24.5773C37.0619 20.0762 38.7561 16.3621 42.4579 13.6724C43.8714 12.6439 45.466 12.009 47.205 11.7555C47.3515 11.7331 47.4918 11.6682 47.6342 11.6236C55.8573 11.6216 64.0804 11.6216 72.3056 11.6216ZM44.5813 31.6323C44.5813 29.7499 44.5365 28.0602 44.5914 26.3746C44.7175 22.4941 47.7928 18.9605 51.643 18.4717C53.5935 18.2242 55.5909 18.3378 57.5678 18.3094C58.4017 18.2972 58.9021 18.7415 58.9102 19.4271C58.9204 20.1452 58.4139 20.5752 57.5231 20.5793C56.077 20.5874 54.6288 20.5752 53.1827 20.5833C49.6742 20.6036 46.9508 23.2386 46.8633 26.7356C46.8186 28.5308 46.8653 30.3301 46.8348 32.1252C46.8267 32.5695 46.9996 32.7581 47.3901 32.8737C48.2403 33.1212 49.0762 33.4235 49.9325 33.6466C54.6247 34.8718 59.3922 35.1274 64.2025 34.675C67.471 34.3667 70.6622 33.6892 73.709 32.4173C74.1361 32.2388 74.3273 32.0198 74.3171 31.5268C74.2805 29.9081 74.3314 28.2874 74.2866 26.6687C74.191 23.2649 71.4595 20.6117 68.0506 20.5833C66.5781 20.5711 65.1075 20.5874 63.635 20.5793C62.8031 20.5752 62.2885 20.1472 62.2662 19.4758C62.2438 18.776 62.7787 18.3114 63.6431 18.3054C65.1401 18.2972 66.6371 18.2891 68.136 18.3074C72.273 18.3561 75.7754 21.3054 76.4161 25.3867C76.6215 26.6991 76.5443 28.0582 76.587 29.3949C76.6012 29.8351 76.589 30.2753 76.589 30.7783C79.6439 28.9162 80.9009 26.123 80.5653 23.1432C80.0162 18.2851 76.1334 13.7697 70.53 13.8671C63.4519 13.9908 56.3678 13.9847 49.2877 13.8711C43.3487 13.7778 38.9799 19.135 39.3602 24.8532C39.5778 28.1251 41.809 29.969 44.5813 31.6323ZM58.7821 78.1002C58.4587 78.1002 58.1841 78.1002 57.9115 78.1002C55.8553 78.1002 47.445 78.1084 45.3887 78.0942C44.565 78.0881 44.0463 77.6276 44.0382 76.9602C44.0321 76.2929 44.5487 75.8344 45.3725 75.8263C46.8959 75.8142 54.7732 75.8223 56.2966 75.8223C57.1021 75.8223 57.9095 75.8223 58.7536 75.8223C58.7536 72.7755 58.7536 69.814 58.7536 66.8342C58.5888 66.8139 58.4912 66.7916 58.3916 66.7916C52.8329 66.7896 47.2742 66.7754 41.7155 66.7977C40.188 66.8038 39.3419 67.6942 39.3134 69.242C39.289 70.5584 39.2992 71.8749 39.3093 73.1893C39.3216 74.9906 40.1697 75.8182 41.9921 75.8223C43.6172 75.8263 45.2402 75.8121 46.8653 75.8324C47.6525 75.8426 48.1528 76.3781 48.0837 77.0637C48.0186 77.7067 47.5386 78.0901 46.7209 78.0962C44.9941 78.1104 43.2694 78.082 41.5426 78.1144C40.308 78.1367 39.5046 78.8974 39.3439 80.1003C38.8171 84.0497 41.4612 87.0904 45.4355 87.0965C49.6233 87.1005 53.8112 87.0985 57.999 87.0985C58.2471 87.0985 58.4932 87.0985 58.7841 87.0985C58.7821 84.0923 58.7821 81.1652 58.7821 78.1002ZM70.054 75.8223C72.7185 75.8223 75.3829 75.8263 78.0473 75.8203C79.7456 75.8162 80.6141 74.946 80.6243 73.238C80.6324 71.9479 80.6324 70.6578 80.6243 69.3657C80.6121 67.6598 79.7558 66.7916 78.0412 66.7875C72.6351 66.7774 67.231 66.7916 61.8248 66.7713C61.2451 66.7693 61.0946 66.9539 61.0987 67.5097C61.1231 70.0391 61.1251 72.5707 61.0987 75.1002C61.0926 75.6641 61.2573 75.8365 61.8309 75.8324C64.5726 75.8061 67.3143 75.8223 70.054 75.8223ZM61.176 44.2453C61.176 47.3001 61.176 50.2434 61.176 53.2334C61.4404 53.2334 61.6397 53.2334 61.839 53.2334C67.2696 53.2334 72.6981 53.2354 78.1287 53.2313C79.7294 53.2313 80.608 52.353 80.6243 50.7343C80.6365 49.4949 80.6284 48.2555 80.6263 47.0161C80.6243 45.0222 79.8575 44.2473 77.8826 44.2453C72.6046 44.2432 67.3265 44.2453 62.0506 44.2453C61.776 44.2453 61.5014 44.2453 61.176 44.2453ZM58.7821 44.294C58.5461 44.2757 58.3488 44.2453 58.1516 44.2453C52.6701 44.2432 47.1908 44.2372 41.7094 44.2473C40.2165 44.2493 39.3521 45.0932 39.3154 46.5983C39.2829 47.9898 39.289 49.3813 39.3114 50.7729C39.3378 52.3895 40.2165 53.2293 41.8436 53.2313C47.2477 53.2334 52.6518 53.2313 58.056 53.2313C58.296 53.2313 58.536 53.2313 58.778 53.2313C58.7821 50.1846 58.7821 47.2596 58.7821 44.294ZM61.1679 55.5113C61.1679 58.5459 61.1679 61.4912 61.1679 64.4751C61.4445 64.4893 61.6682 64.5075 61.8919 64.5075C67.296 64.5096 72.7022 64.5116 78.1063 64.5075C79.7701 64.5055 80.6141 63.6515 80.6263 61.9679C80.6365 60.7285 80.6304 59.4891 80.6284 58.2477C80.6243 56.3308 79.8128 55.5134 77.9049 55.5113C73.3124 55.5093 68.7198 55.5113 64.1252 55.5113C63.1652 55.5113 62.2031 55.5113 61.1679 55.5113ZM58.7821 55.5438C58.5075 55.5316 58.2838 55.5113 58.06 55.5113C52.6803 55.5093 47.3006 55.5073 41.9209 55.5113C40.1656 55.5134 39.3236 56.3613 39.3093 58.1301C39.2992 59.3958 39.2992 60.6596 39.3093 61.9253C39.3236 63.6962 40.1514 64.5075 41.9412 64.5075C47.2701 64.5096 52.599 64.5075 57.9278 64.5075C58.1983 64.5075 58.4688 64.5075 58.7821 64.5075C58.7821 61.4872 58.7821 58.5601 58.7821 55.5438ZM61.1536 87.0985C61.4546 87.0985 61.7028 87.0985 61.9529 87.0985C66.1164 87.0985 70.2778 87.1005 74.4412 87.0985C78.2039 87.0965 80.6141 84.6846 80.6284 80.9218C80.6365 78.8873 79.8656 78.1043 77.848 78.1023C72.568 78.1002 67.2899 78.1023 62.0099 78.1023C61.7394 78.1023 61.4668 78.1023 61.1536 78.1023C61.1536 81.1226 61.1536 84.0497 61.1536 87.0985ZM80.6284 30.5146C75.0615 35.7298 68.1991 36.7055 61.1699 37.1984C61.1699 38.7847 61.1699 40.3364 61.1699 41.9653C61.475 41.9653 61.7231 41.9653 61.9712 41.9653C67.7028 41.9653 73.4344 41.9653 79.168 41.9653C80.3619 41.9653 80.6243 41.6996 80.6263 40.4764C80.6304 38.4277 80.6284 36.3789 80.6284 34.3302C80.6284 33.1009 80.6284 31.8696 80.6284 30.5146ZM39.3093 30.4944C39.3093 30.8433 39.3093 31.04 39.3093 31.2388C39.3093 34.3241 39.3073 37.4114 39.3114 40.4967C39.3134 41.7097 39.5738 41.9673 40.786 41.9673C46.5196 41.9693 52.2512 41.9673 57.9848 41.9673C58.2309 41.9673 58.479 41.9673 58.776 41.9673C58.776 40.3263 58.776 38.7745 58.776 37.237C58.6966 37.1964 58.6539 37.1558 58.6071 37.1538C57.7224 37.0929 56.8336 37.0666 55.9509 36.9773C49.8633 36.3546 44.0341 35.0523 39.3093 30.4944Z" fill="black"/>
</svg>
