<svg width="120" height="100" viewBox="0 0 120 100" fill="none" xmlns="http://www.w3.org/2000/svg">
<rect width="120" height="100" fill="white"/>
<path d="M29.0052 48.1882C29.1627 47.0152 29.2703 45.8317 29.4881 44.6691C31.2253 35.3796 36.1666 28.2681 44.215 23.3582C49.4502 20.1672 55.1997 18.7397 61.3167 19.0388C70.0893 19.4666 77.4396 23.0014 83.2784 29.5592C87.6765 34.4979 90.2508 40.3104 90.8491 46.8892C91.7414 56.6879 88.6737 65.1482 81.7065 72.1101C77.0617 76.7523 71.4171 79.5365 64.9407 80.6203C63.9094 80.7935 62.8676 80.8854 61.8284 81.0166C60.616 81.0166 59.4063 81.0166 58.1939 81.0166C58.0391 80.9825 57.8843 80.9274 57.7268 80.9169C52.8747 80.5757 48.3375 79.1875 44.1966 76.65C36.164 71.727 31.2201 64.6286 29.4828 55.3417C29.265 54.1792 29.1575 52.9957 29 51.8226C29.0052 50.6129 29.0052 49.4005 29.0052 48.1882ZM59.9915 77.6498C75.2353 77.6786 87.6477 65.2899 87.6581 50.033C87.6686 34.7708 75.3009 22.382 60.0387 22.3637C44.7844 22.3453 32.3694 34.7393 32.3721 49.9805C32.3747 65.2584 44.7135 77.6209 59.9915 77.6498Z" fill="black"/>
<path d="M43.7951 58.4227C43.9578 58.2915 44.0313 58.2259 44.1126 58.1708C44.9419 57.6355 45.7711 57.1001 46.6108 56.5596C49.9094 61.1807 54.3023 63.8075 60.0151 63.797C65.7122 63.7839 70.1339 61.2017 73.4273 56.5622C74.3431 57.1553 75.2511 57.7431 76.2404 58.3807C72.4458 63.7944 67.3418 66.8647 60.7971 67.1324C53.5938 67.4289 48.0358 64.23 43.7951 58.4227Z" fill="black"/>
<path d="M46.5531 43.1105C46.5453 41.2657 48.0253 39.7594 49.8701 39.7384C51.6886 39.7201 53.2212 41.2395 53.2317 43.0738C53.2421 44.9133 51.7516 46.4222 49.9068 46.438C48.0699 46.4563 46.561 44.9579 46.5531 43.1105Z" fill="black"/>
<path d="M73.9652 43.0975C73.9626 44.9476 72.4668 46.446 70.6273 46.4407C68.7903 46.4355 67.2814 44.9213 67.2867 43.0897C67.2893 41.258 68.8113 39.736 70.6378 39.7412C72.4721 39.7438 73.9652 41.2501 73.9652 43.0975Z" fill="black"/>
</svg>
