<svg width="120" height="100" viewBox="0 0 120 100" fill="none" xmlns="http://www.w3.org/2000/svg">
<rect width="120" height="100" fill="white"/>
<path d="M28.8381 40.2879C30.031 40.1158 31.1302 39.9552 32.3173 39.7851C32.734 37.709 33.1699 35.545 33.6058 33.3811C33.6344 33.2415 33.6516 33.0981 33.688 32.9605C33.9288 32.0773 34.0321 31.3547 33.1584 30.5862C32.0611 29.6227 32.0592 27.8927 32.843 26.6253C33.6191 25.3674 35.137 24.7423 36.5516 25.0998C38.0351 25.4725 39.0941 26.7208 39.184 28.2043C39.2757 29.7145 38.4155 31.1368 36.9741 31.6032C36.3375 31.8097 36.1578 32.1691 36.0489 32.7387C35.6073 35.0538 35.1542 37.3669 34.6629 39.6723C34.5425 40.2382 34.6858 40.4714 35.202 40.7505C38.0714 42.3028 40.9064 43.9181 43.7547 45.5105C43.9612 45.6271 44.1696 45.7399 44.4487 45.8928C44.5175 45.6749 44.5863 45.4876 44.6322 45.2964C45.8537 40.307 47.9661 35.7553 51.4797 31.9703C54.9704 28.2081 59.3806 26.3634 64.502 26.1569C68.287 26.004 71.879 26.6272 75.062 28.7816C76.2166 29.5635 77.2068 30.5862 78.2946 31.4694C78.545 31.672 78.8853 31.8288 79.2026 31.8651C79.8392 31.9416 80.4987 31.846 81.1257 31.953C83.0469 32.2819 84.2456 33.4747 84.8439 35.2526C85.7386 35.3214 86.6026 35.3195 87.4418 35.4628C90.9918 36.0765 93.6184 39.8176 92.8729 43.1554C92.5192 44.7382 91.5653 45.8374 90.0704 46.4338C89.6651 46.5963 89.537 46.7856 89.5485 47.2042C89.5772 48.1811 89.5657 49.1599 89.5561 50.1367C89.537 52.1554 88.4378 53.7593 86.5472 54.4877C86.1935 54.6234 86.0693 54.8088 85.9584 55.1739C85.6066 56.3248 85.1612 57.4469 84.7139 58.6876C85.513 59.2477 86.4612 59.9148 87.4113 60.5801C88.6404 61.4423 89.8773 62.2949 91.0988 63.1666C92.7276 64.3289 93.3622 66.1507 92.7792 67.9323C92.2038 69.6891 90.6362 70.7998 88.6844 70.7998C78.241 70.8036 67.7957 70.903 57.3543 70.7711C47.9107 70.6526 40.2526 66.7165 34.4087 59.2916C32.994 57.4947 31.6062 55.6729 30.2393 53.8396C29.0484 52.2434 27.5038 51.3965 25.5003 51.3277C24.0131 51.2761 22.9081 50.5382 22.3213 49.1618C21.7191 47.7548 21.9714 46.4281 23.0114 45.3193C24.1029 44.1551 25.2805 43.0693 26.3835 41.9166C26.567 41.7235 26.697 41.3355 26.6416 41.0812C26.1828 38.9402 25.6877 36.8067 25.1601 34.681C25.097 34.4306 24.8121 34.1285 24.5655 34.0482C22.9769 33.5359 21.9676 32.192 22.023 30.569C22.0766 29.032 23.1853 27.7015 24.707 27.3517C26.2076 27.0057 27.7829 27.7378 28.5055 29.1181C29.2567 30.5537 28.9298 32.1805 27.6834 33.3428C27.5229 33.4919 27.3489 33.7825 27.3891 33.9641C27.8498 36.0784 28.3506 38.185 28.8381 40.2879ZM73.7716 30.6684C73.632 30.5786 73.5345 30.5117 73.4332 30.4505C70.6881 28.7663 67.6696 28.319 64.5134 28.4471C59.9885 28.6325 56.0639 30.2498 53.0588 33.643C48.5645 38.7184 46.3909 44.7726 46.0889 51.5131C46.0774 51.7807 46.28 52.1401 46.4961 52.3237C52.0896 57.0837 58.5242 60.0544 65.7809 61.1612C68.1226 61.5187 70.5065 61.5856 72.8712 61.7844C72.9247 61.7214 72.9782 61.6602 73.0318 61.5971C67.4784 51.1423 67.4421 40.8403 73.7716 30.6684ZM72.4602 68.5135C77.8014 68.5135 83.1444 68.5154 88.4856 68.5135C89.646 68.5135 90.317 68.0891 90.6075 67.1906C90.8886 66.3227 90.5674 65.581 89.6039 64.9043C87.5757 63.4801 85.534 62.0712 83.5191 60.6298C83.11 60.3373 82.852 60.3029 82.418 60.6317C80.0533 62.4287 77.3846 63.5164 74.4215 63.8108C71.2941 64.1224 68.1838 63.8815 65.0907 63.3749C57.2205 62.0865 50.3156 58.764 44.355 53.4821C44.0319 53.1954 43.8102 52.6276 43.8044 52.186C43.793 51.0945 43.9211 49.9991 44.0186 48.9075C44.0491 48.5558 44.0644 48.2901 43.684 48.0798C40.5393 46.3344 37.4233 44.5337 34.2634 42.8189C32.1338 41.6643 29.5989 42.0562 27.8402 43.7269C26.8022 44.7114 25.81 45.7437 24.7949 46.7531C24.3705 47.1737 24.1679 47.6535 24.4164 48.2384C24.6573 48.81 25.1142 49.0337 25.7202 49.0566C28.2856 49.1465 30.3464 50.2227 31.9063 52.2606C33.3687 54.1722 34.8082 56.1049 36.3031 57.9917C41.7724 64.8871 48.9258 68.4045 57.7232 68.502C62.6343 68.5574 67.5472 68.5135 72.4602 68.5135ZM75.4596 61.3314C77.7134 60.8649 79.7111 59.911 81.4832 58.483C82.5556 57.6189 83.2649 56.5159 83.6319 55.1873C83.8384 54.4418 83.7734 53.8167 83.2955 53.1285C79.4071 47.533 77.2986 41.3125 77.0348 34.5032C76.9908 33.3505 76.3886 32.7751 75.6125 32.127C72.896 36.26 71.4814 40.7409 71.2539 45.608C70.992 51.2722 72.8215 56.3802 75.4596 61.3314ZM79.3039 34.2184C79.5677 40.7868 81.5979 46.6824 85.2798 52.0293C85.5092 52.3619 85.7099 52.4001 86.0406 52.2109C86.8339 51.7578 87.2488 51.0792 87.266 50.175C87.2851 49.1752 87.2201 48.1715 87.2889 47.1756C87.3424 46.3937 87.0844 45.8565 86.5204 45.3174C84.0257 42.9336 82.7583 39.9954 82.6799 36.5372C82.6703 36.1262 82.5633 35.6712 82.3607 35.3176C81.6839 34.1381 80.5618 34.0693 79.3039 34.2184ZM85.123 37.6517C85.123 37.7989 85.1077 37.9193 85.1249 38.0359C85.4996 40.5612 86.8033 42.5589 88.6749 44.2201C88.8106 44.3406 89.17 44.3157 89.3726 44.2316C90.3629 43.8187 90.8541 42.7616 90.6649 41.5553C90.252 38.9306 88.0994 37.3936 85.123 37.6517ZM35.7831 29.5864C36.3987 29.5711 36.9015 29.0531 36.8976 28.4375C36.8938 27.822 36.3834 27.3096 35.7678 27.3058C35.1236 27.302 34.5941 27.8468 34.6189 28.4891C34.6419 29.1047 35.1695 29.5998 35.7831 29.5864ZM25.4621 31.8747C26.0757 31.8708 26.5881 31.3604 26.5938 30.7449C26.5995 30.1312 26.0949 29.6094 25.4812 29.5941C24.8389 29.5769 24.2979 30.1179 24.3151 30.7602C24.3304 31.3757 24.8485 31.8785 25.4621 31.8747Z" fill="black"/>
</svg>
