<svg width="120" height="100" viewBox="0 0 120 100" fill="none" xmlns="http://www.w3.org/2000/svg">
<rect width="120" height="100" fill="white"/>
<path d="M55.5022 88.9577C55.0243 88.8292 54.5362 88.7288 54.0703 88.5661C53.273 88.2869 52.7789 87.7266 52.6644 86.8731C52.554 86.0476 52.8251 85.4873 53.7048 85.186C55.1689 84.6819 56.6651 84.2742 58.1553 83.8545C61.0513 83.0391 63.9293 82.1835 66.4618 80.4825C67.8898 79.5245 69.0566 78.3456 69.3941 76.5642C69.4583 76.2227 69.4824 75.8673 69.4724 75.5198C69.4342 74.0276 68.7875 73.3729 67.2953 73.3347C65.1524 73.2805 63.1561 73.9171 61.1658 74.6281C58.32 75.6463 55.5063 76.8152 52.5881 77.5563C45.1994 79.4321 38.0838 76.775 33.9707 70.8343C26.7868 60.4592 33.3621 45.9669 45.8702 44.5851C49.0353 44.2356 52.1282 44.7036 55.1709 45.4527C58.8602 46.3605 62.4933 47.4932 66.1827 48.401C67.9701 48.8408 69.8238 49.1642 71.6595 49.2344C75.7967 49.3951 79.1065 46.1115 79.1024 42.0506C79.0984 38.0198 75.8248 34.8406 71.7177 34.8406C68.9984 34.8406 66.4157 35.4812 63.8871 36.4191C60.7019 37.602 57.4483 38.4456 54.0161 38.4536C48.5513 38.4656 44.0807 34.704 43.1609 29.3176C43.1227 29.0987 43.0002 28.8175 42.8275 28.709C40.8955 27.502 40.299 25.7889 40.771 23.6078C41.3132 21.0974 42.3395 18.852 44.2856 17.1228C44.8178 16.6489 45.4765 16.3014 46.1132 15.962C46.7177 15.6407 46.8442 15.1607 46.3662 14.6365C46.1975 14.4517 46.0067 14.287 45.84 14.1003C45.3199 13.5178 45.3018 12.843 45.7878 12.355C46.2538 11.885 46.8743 11.881 47.4789 12.347C47.5933 12.4353 47.7018 12.5337 47.7962 12.6141C47.8866 12.5799 47.9388 12.5719 47.9749 12.5438C48.8044 11.875 49.435 11.8328 49.9411 12.4152C50.4271 12.9756 50.3207 13.6082 49.6218 14.3232C49.4651 14.4838 49.2462 14.6184 49.1619 14.8132C49.0012 15.1908 48.7984 15.6487 49.3627 15.8797C52.1001 16.9983 53.4758 19.2758 54.4238 21.8846C54.721 22.7 54.8756 23.5777 55.0062 24.4393C55.2311 25.9114 54.7511 27.1506 53.6124 28.1266C53.4798 28.2391 53.3553 28.3596 53.2288 28.4801C53.2147 28.4941 53.2167 28.5263 53.1806 28.6729C53.4798 28.7251 53.7771 28.8215 54.0723 28.8235C55.8457 28.8316 57.5488 28.4419 59.2117 27.8575C62.1158 26.8352 65.0199 25.8451 68.1007 25.4414C74.2422 24.6381 79.7752 25.8511 84.1012 30.5286C88.6522 35.4491 89.9536 41.2773 87.7404 47.5976C85.5392 53.8838 80.908 57.5792 74.3406 58.7079C71.0228 59.2782 67.7372 58.6958 64.5218 57.9005C60.8324 56.9887 57.1973 55.862 53.51 54.9522C51.7466 54.5184 49.917 54.1971 48.1055 54.1288C43.7413 53.9661 40.3733 57.5089 40.6344 61.7967C40.8894 65.9761 44.7515 69.0228 49.0153 68.4685C51.4815 68.1471 53.7469 67.2253 56.0224 66.3155C59.051 65.1045 62.1218 64.0983 65.3994 63.7609C71.3361 63.1483 76.4896 66.6389 77.6464 72.3265C78.5984 77.008 76.8953 80.7938 73.224 83.7179C69.9905 86.2926 66.1867 87.57 62.1901 88.3552C60.969 88.5942 59.7359 88.7669 58.5088 88.9678C57.5066 88.9577 56.5044 88.9577 55.5022 88.9577ZM34.6173 67.4201C35.4809 68.6291 36.1919 69.8844 37.1439 70.9167C41.3032 75.4254 46.4928 76.6264 52.2909 75.1463C55.0403 74.4433 57.6873 73.3307 60.3625 72.3567C62.658 71.5232 64.9757 70.8363 67.452 70.9267C70.109 71.0231 71.7699 72.6961 71.8784 75.3531C71.9567 77.2671 71.3663 78.9501 70.1392 80.4142C69.0767 81.6815 67.7492 82.6133 66.3032 83.3845C63.9916 84.6157 61.5233 85.421 59.0088 86.1079C58.6654 86.2023 58.328 86.3208 57.9886 86.4292C60.7923 86.2485 63.5076 85.6942 66.1345 84.7482C68.9221 83.746 71.539 82.4306 73.4509 80.0808C75.6882 77.3314 76.1843 74.2345 74.6901 71.0131C73.1798 67.7615 70.4826 66.1468 66.8916 66.1147C64.3832 66.0926 61.9752 66.681 59.6314 67.5205C57.2073 68.3881 54.8214 69.3682 52.3793 70.1836C50.2464 70.8946 48.0332 71.1978 45.7939 70.6917C40.6806 69.5389 37.5074 64.7631 38.371 59.5594C39.1944 54.5968 43.9964 51.0841 49.188 51.7549C51.365 52.0361 53.5361 52.4619 55.6689 52.9861C59.4547 53.9139 63.1902 55.0587 66.986 55.9404C69.7776 56.5891 72.6355 56.7959 75.4693 56.0267C79.8295 54.8418 82.9505 52.1707 84.9909 48.0937C84.2539 47.8266 83.7799 47.3848 83.9566 46.6135C84.1836 45.6194 85.0331 45.6495 85.8806 45.6355C86.0112 44.8562 86.1377 44.1031 86.2723 43.3038C85.2902 43.1772 83.9848 43.5307 83.9587 42.0887C83.9305 40.5784 85.2681 40.9279 86.2823 40.8034C86.1357 39.988 85.9991 39.2188 85.8606 38.4476C84.997 38.4797 84.2378 38.4576 83.9747 37.5659C83.7257 36.7224 84.3161 36.3087 85.1034 35.8889C84.2077 34.6558 83.4626 33.3925 82.4925 32.3341C78.6445 28.1306 73.7622 27.0923 68.3055 27.8374C65.4537 28.227 62.7645 29.1509 60.0733 30.0948C58.075 30.7957 56.0284 31.2416 53.9016 31.2235C52.3833 31.2094 51.2566 30.5085 50.5978 29.1469C50.0777 28.0744 50.1199 27.2349 51.3831 26.7067C52.1141 26.4014 52.7287 25.8813 52.6363 24.9414C52.4034 22.5615 51.4996 20.4828 49.7182 18.8581C48.4188 17.6731 47.2198 17.6952 45.9144 18.8862C44.3579 20.3041 43.5023 22.1156 43.1288 24.1681C42.8637 25.6262 43.1227 26.1966 44.4503 26.8091C45.1271 27.1224 45.4002 27.5723 45.4805 28.3013C45.9907 32.9888 49.5153 36.0837 54.235 36.0335C57.125 36.0034 59.8845 35.3165 62.5757 34.3204C65.6726 33.1736 68.8257 32.3602 72.1636 32.4305C77.1503 32.537 81.3799 36.7244 81.5065 41.7111C81.6571 47.7302 76.5438 52.3856 70.5207 51.5802C67.9741 51.2388 65.4336 50.7246 62.9553 50.0518C58.9506 48.9633 55.0102 47.6418 50.875 47.0755C47.4367 46.6035 44.1289 46.8927 41.034 48.5817C38.2284 50.1121 36.1397 52.3213 34.764 55.2455C35.4368 55.5347 35.9288 55.9323 35.7822 56.6794C35.5753 57.7218 34.7037 57.7057 33.8441 57.7037C33.7136 58.503 33.5891 59.2561 33.4545 60.0756C34.4788 60.1318 35.7581 59.8406 35.7701 61.2766C35.7822 62.7688 34.4486 62.4354 33.4364 62.5217C33.5931 63.3693 33.7337 64.1385 33.8763 64.9077C34.7599 64.8595 35.5111 64.9057 35.7601 65.7994C35.983 66.6208 35.4428 67.0425 34.6173 67.4201Z" fill="black"/>
</svg>
