<svg width="120" height="100" viewBox="0 0 120 100" fill="none" xmlns="http://www.w3.org/2000/svg">
<rect width="120" height="100" fill="white"/>
<path d="M95 47.701C94.9611 47.7547 94.9055 47.8029 94.8852 47.864C94.2313 49.8016 92.9994 50.7297 90.9544 50.6871C90.2319 50.6723 89.9448 50.8871 89.7096 51.5836C87.6719 57.5724 81.9721 61.6292 75.6017 61.6736C73.5215 61.6884 71.4431 61.6755 69.3628 61.6755C69.1128 61.6755 68.8627 61.6755 68.6293 61.6755C68.4941 62.1812 68.4144 62.635 68.2551 63.0574C67.6772 64.5782 66.2582 65.5803 64.6189 65.5896C61.4994 65.6081 58.38 65.6118 55.2606 65.5896C53.3785 65.5766 51.8151 64.2373 51.4317 62.3868C51.3891 62.183 51.3483 61.9793 51.2872 61.6755C51.0371 61.6755 50.7704 61.6773 50.5036 61.6755C47.7324 61.6514 44.9409 61.8237 42.1919 61.5606C35.9345 60.9642 31.6629 57.5632 29.353 51.7448C29.0381 50.952 28.7435 50.663 27.8729 50.6797C25.7501 50.7186 24.1237 49.1959 24.007 47.2175C23.8791 45.0558 25.5278 43.2497 27.7284 43.2812C28.5379 43.2923 28.7898 43.0385 28.9936 42.2846C30.6626 36.0754 34.812 32.2835 40.8156 30.3644C42.8995 29.6976 45.0539 29.4679 47.2397 29.4697C55.4199 29.4753 63.6001 29.4734 71.7802 29.4716C76.6539 29.4697 81.083 30.7701 84.8526 33.9618C87.5867 36.2773 89.3131 39.2189 90.1393 42.6977C90.1819 42.8737 90.2338 43.0478 90.2801 43.2164C90.8729 43.2497 91.4378 43.2201 91.975 43.3257C93.6292 43.6498 94.5313 44.7724 95 46.3154C95 46.7767 95 47.2398 95 47.701ZM53.6156 35.7846C52.6079 35.7846 51.8281 35.7623 51.0482 35.7883C48.7438 35.8661 46.4098 35.7679 44.1388 36.092C39.1633 36.8034 35.6826 40.2284 34.8731 44.9002C34.0525 49.6405 36.9274 54.1825 41.5825 55.0809C43.6849 55.4866 45.8967 55.3292 48.0547 55.4255C48.14 55.1161 48.1974 54.9439 48.2344 54.766C49.0791 50.7945 49.9127 46.8193 50.7704 42.8496C51.3001 40.4026 51.5484 37.8426 53.6156 35.7846ZM71.7191 55.3329C73.1028 55.3329 74.4014 55.4162 75.6832 55.3069C76.7484 55.2162 77.8542 55.0439 78.8397 54.6512C83.2854 52.8766 85.3638 47.9251 83.6782 43.1163C82.2148 38.941 78.999 36.7608 74.8163 36.1013C72.3748 35.7179 69.8482 35.8698 67.3586 35.7846C66.977 35.7716 66.5954 35.7827 66.0378 35.7827C67.1918 37.0609 67.8643 38.4057 68.2088 39.908C68.7756 42.3809 69.3332 44.8557 69.8945 47.3305C70.5002 49.985 71.106 52.6358 71.7191 55.3329ZM59.9416 63.5019C61.4198 63.5019 62.898 63.5131 64.3781 63.4982C65.8433 63.4834 66.6621 62.4387 66.3471 61.0031C65.3005 56.2257 64.2521 51.4484 63.2018 46.6711C62.8054 44.8687 62.4164 43.0645 61.9959 41.2676C61.7291 40.1303 60.8585 39.4523 59.7637 39.4671C58.7079 39.4819 57.865 40.1747 57.5946 41.2676C57.4946 41.6696 57.426 42.0808 57.3427 42.4884C56.0812 48.6124 54.8141 54.7364 53.5601 60.8604C53.2174 62.535 54.0139 63.4982 55.7163 63.5019C57.1241 63.5038 58.5319 63.5019 59.9416 63.5019ZM58.5764 35.3048C55.8682 35.9253 53.9731 37.9018 53.4026 40.5934C52.2541 46.0116 51.089 51.4243 49.9535 56.8444C49.859 57.2964 49.6997 57.4502 49.2384 57.4446C47.2045 57.4205 45.1706 57.4668 43.1385 57.4205C40.0431 57.3483 37.4424 56.1183 35.3955 53.8121C31.1887 49.0699 31.8796 41.4084 36.8681 37.1776C39.6449 34.8213 42.9181 33.7636 46.5099 33.7062C50.2758 33.645 54.0417 33.6895 57.8076 33.6876C58.0503 33.6876 58.2929 33.6876 58.5374 33.6876C58.5374 32.9393 58.5374 32.302 58.5374 31.6241C58.3226 31.6111 58.1429 31.5889 57.9632 31.5889C54.2436 31.587 50.5221 31.5648 46.8025 31.6037C45.6522 31.6148 44.4889 31.7074 43.3589 31.9112C35.9549 33.2486 31.235 38.6261 30.5774 45.2058C29.8494 52.5043 35.3177 59.1284 42.6495 59.5008C45.3225 59.636 48.0084 59.5174 50.6889 59.5712C51.3613 59.5841 51.5854 59.3711 51.7188 58.7339C52.9451 52.8618 54.2195 46.9989 55.4477 41.125C55.7903 39.4819 56.6554 38.3168 58.1966 37.6407C58.3615 37.5684 58.5449 37.335 58.5578 37.1627C58.6023 36.5663 58.5764 35.9661 58.5764 35.3048ZM60.7066 35.127C60.7066 35.8105 60.6807 36.4533 60.7251 37.0923C60.7362 37.2516 60.9511 37.4758 61.1197 37.5351C62.772 38.1112 63.7297 39.2633 64.1132 40.9583C65.4691 46.9452 66.851 52.9266 68.2014 58.9154C68.307 59.3804 68.457 59.5693 68.9609 59.5637C71.2023 59.5378 73.4437 59.573 75.6869 59.5471C78.9897 59.5063 81.8813 58.3634 84.2987 56.1164C89.5984 51.1872 89.9133 42.6773 84.9989 37.0683C81.7702 33.3857 77.5745 31.7463 72.7768 31.6222C68.9201 31.5222 65.0579 31.5944 61.1993 31.5944C61.0474 31.5944 60.8937 31.637 60.7437 31.6574C60.7437 32.3391 60.7437 32.9782 60.7437 33.6524C60.9585 33.6673 61.1364 33.6895 61.316 33.6895C64.7596 33.6913 68.2033 33.6673 71.6469 33.7043C72.8435 33.7173 74.055 33.7858 75.2312 33.9951C81.0589 35.0306 85.9066 39.2096 86.3549 45.8356C86.7235 51.2817 82.7797 56.5258 77.3763 57.2427C75.0793 57.5483 72.7212 57.3983 70.3891 57.4094C70.2261 57.4094 69.9667 57.0556 69.913 56.8278C68.6515 51.3873 67.3975 45.9449 66.1767 40.4952C65.5154 37.5406 63.55 35.9587 60.7066 35.127ZM28.4583 45.38C27.4913 45.2799 26.7226 45.4133 26.2854 46.2654C25.9686 46.8822 26.0613 47.488 26.5021 48.0085C27.0486 48.6568 27.7692 48.6383 28.4583 48.5253C28.4583 47.4528 28.4583 46.4432 28.4583 45.38ZM90.5413 48.5401C91.3434 48.6383 92.114 48.6291 92.6197 47.8455C92.9939 47.2675 92.9939 46.6581 92.6086 46.0876C92.1177 45.3633 91.3971 45.2688 90.5394 45.4003C90.5413 46.4432 90.5413 47.4528 90.5413 48.5401Z" fill="black"/>
<path d="M77.2503 85.0101C76.1 84.697 74.9108 84.484 73.8067 84.0524C68.9109 82.1407 65.684 77.419 65.6136 72.173C65.6025 71.3227 65.6117 70.4706 65.6117 69.5315C64.9152 69.5315 64.2817 69.5315 63.6075 69.5315C63.6075 68.8072 63.6075 68.17 63.6075 67.4753C67.4252 67.4753 71.2208 67.4753 75.0627 67.4753C75.0627 68.144 75.0627 68.7998 75.0627 69.5278C74.4977 69.5278 73.9753 69.5278 73.2455 69.5278C73.3733 70.9504 73.3084 72.3378 73.6511 73.616C74.3199 76.1075 76.8687 77.6024 79.4102 77.2171C81.9369 76.8355 83.8541 74.67 83.8856 72.0693C83.9227 69.0647 83.8967 66.0601 83.8967 63.0536C83.8967 62.8036 83.8967 62.5554 83.8967 62.2627C84.6118 62.2627 85.2657 62.2627 85.9585 62.2627C85.9714 62.4479 85.9918 62.6054 85.9918 62.761C85.9918 65.8823 86.014 69.0017 85.9825 72.123C85.951 75.1609 84.0394 77.8487 81.2256 78.9009C78.3544 79.9753 75.172 79.2047 73.1251 76.9133C71.8728 75.5129 71.2504 73.8605 71.2504 71.9785C71.2504 71.1986 71.2504 70.4169 71.2504 69.587C70.0593 69.587 68.9405 69.587 67.7753 69.587C67.3937 73.6938 68.1995 77.3949 71.456 80.1827C74.7089 82.9687 78.4637 83.6912 82.4648 82.1722C86.4327 80.6662 88.7259 77.6561 89.4132 73.4622C89.5206 72.8065 89.5076 72.1248 89.5076 71.4561C89.5151 66.8788 89.5113 62.3016 89.5113 57.7262C89.5113 57.4557 89.5113 57.1853 89.5113 56.8926C90.2505 56.8926 90.8914 56.8926 91.636 56.8926C91.636 57.163 91.636 57.4075 91.636 57.6521C91.636 62.2979 91.6009 66.9455 91.6435 71.5913C91.7157 79.1584 86.0585 84.2654 80.2623 84.8989C80.179 84.9082 80.1012 84.973 80.0215 85.0119C79.099 85.0101 78.1747 85.0101 77.2503 85.0101Z" fill="black"/>
<path d="M83.9597 14.0205C86.5142 14.0205 89.0279 14.0205 91.5897 14.0205C91.5897 21.2356 91.5897 28.4284 91.5897 35.6657C90.921 35.6657 90.2838 35.6657 89.5391 35.6657C89.5391 29.1731 89.5391 22.6768 89.5391 16.1378C88.3165 16.1378 87.1977 16.1378 86.0048 16.1378C86.0048 20.7725 86.0048 25.3812 86.0048 30.0289C85.2953 30.0289 84.6581 30.0289 83.9597 30.0289C83.9597 24.7218 83.9597 19.4036 83.9597 14.0205Z" fill="black"/>
<path d="M24.0015 18.5293C24.0164 16.0175 26.1003 13.9761 28.6251 14.0002C31.1073 14.0243 33.1431 16.0842 33.1413 18.5719C33.1394 21.0819 31.0592 23.151 28.5473 23.1418C26.0355 23.1307 23.9849 21.0523 24.0015 18.5293ZM28.5918 16.1008C27.2543 16.0842 26.1077 17.2178 26.1022 18.559C26.0966 19.8982 27.2414 21.0412 28.5788 21.0338C29.894 21.0263 31.0054 19.9279 31.0351 18.609C31.0647 17.2752 29.9366 16.1175 28.5918 16.1008Z" fill="black"/>
<path d="M40.2043 27.3389C38.2426 27.3278 36.6329 25.707 36.6459 23.7546C36.657 21.7947 38.2686 20.1998 40.2377 20.2017C42.2457 20.2017 43.8498 21.8207 43.8239 23.8212C43.798 25.7866 42.1882 27.3519 40.2043 27.3389ZM40.2358 22.3115C39.4282 22.3115 38.7909 22.9339 38.7724 23.7397C38.7539 24.5696 39.4096 25.2383 40.2395 25.2365C41.0323 25.2346 41.6918 24.5937 41.714 23.8046C41.7381 22.9932 41.0601 22.3097 40.2358 22.3115Z" fill="black"/>
</svg>
