<svg width="120" height="100" viewBox="0 0 120 100" fill="none" xmlns="http://www.w3.org/2000/svg">
<rect width="120" height="100" fill="white"/>
<path d="M59.8071 84.4548C59.4519 84.27 59.075 84.1177 58.7488 83.893C57.8154 83.2515 57.4294 82.3272 57.4331 81.2145C57.4385 79.7031 57.4349 78.1898 57.4349 76.5298C57.0543 76.7418 56.7716 76.8959 56.4925 77.0572C55.4359 77.6661 54.3866 78.2877 53.3229 78.8857C51.7099 79.7901 49.8868 79.3316 49.026 77.8219C48.1633 76.3087 48.6962 74.5236 50.3073 73.5849C52.5128 72.3018 54.731 71.0405 56.9274 69.7411C57.154 69.607 57.4077 69.2862 57.4113 69.0488C57.4457 66.653 57.4331 64.2572 57.4294 61.8596C57.4294 61.7563 57.395 61.6512 57.3624 61.4609C57.125 61.6167 56.9401 61.7273 56.7661 61.8541C55.5791 62.7186 54.3903 63.5812 53.2123 64.4584C52.7846 64.7773 52.3479 64.973 51.8404 64.6903C51.3475 64.4149 51.3167 63.9509 51.3729 63.4489C51.5613 61.7436 51.7353 60.0383 51.9256 58.2423C51.69 58.3601 51.5142 58.4362 51.3493 58.5305C49.3721 59.6686 47.404 60.8193 45.4178 61.9411C45.0354 62.1568 44.894 62.396 44.8977 62.8418C44.9194 65.4859 44.9267 68.1318 44.8958 70.7759C44.8777 72.271 43.7777 73.4327 42.259 73.6737C40.8926 73.8893 39.4681 73.034 39.0133 71.6711C38.8737 71.2525 38.823 70.7868 38.8157 70.3428C38.7922 68.8748 38.8067 67.4069 38.8067 65.8465C38.5928 65.939 38.4333 65.9897 38.292 66.0713C37.0977 66.7563 35.9107 67.4576 34.711 68.1336C33.0999 69.0416 31.2695 68.5831 30.4105 67.0771C29.5478 65.5638 30.0788 63.7824 31.6845 62.84C32.9694 62.0861 34.2615 61.3431 35.55 60.5928C35.5863 60.5711 35.6116 60.5312 35.6932 60.4442C34.6892 59.8588 33.7015 59.2825 32.712 58.7062C32.3025 58.467 31.8802 58.2477 31.4815 57.9922C30.0245 57.0625 29.5805 55.2956 30.4268 53.8494C31.2695 52.4123 33.0564 51.9012 34.5515 52.7385C36.8168 54.0071 39.0622 55.3137 41.2967 56.6366C41.728 56.8922 42.0361 56.8795 42.4547 56.6312C44.5515 55.3898 46.6664 54.1792 48.8756 52.9016C47.3515 52.2256 45.918 51.5949 44.4881 50.9534C43.9245 50.7015 43.2249 50.5692 43.2104 49.7446C43.1959 48.9128 43.8864 48.7642 44.4537 48.5123C45.8944 47.8689 47.3388 47.2346 48.8683 46.5587C48.4859 46.3303 48.1833 46.1455 47.877 45.9679C46.0593 44.9168 44.2326 43.8783 42.4257 42.8073C42.0289 42.5717 41.7335 42.559 41.3293 42.7982C39.1111 44.1067 36.8857 45.4006 34.6421 46.662C32.6432 47.7856 30.3253 46.662 30.0371 44.422C29.8722 43.1389 30.4032 42.1168 31.5105 41.4463C32.6685 40.7449 33.8538 40.0853 35.0263 39.4057C35.2365 39.2825 35.4413 39.1483 35.7385 38.9635C34.3086 38.1353 32.9476 37.3578 31.5975 36.5623C30.4558 35.8917 29.8831 34.875 30.0353 33.563C30.2854 31.3466 32.5816 30.1777 34.5515 31.2433C35.7421 31.8884 36.902 32.5916 38.0763 33.2658C38.2702 33.3763 38.4678 33.4778 38.745 33.6282C38.7668 33.3854 38.7994 33.2005 38.7994 33.0157C38.8048 31.6148 38.7777 30.2121 38.8103 28.8112C38.8483 27.1657 40.0027 25.9315 41.6066 25.7558C43.031 25.5999 44.4337 26.5858 44.8052 28.0356C44.8922 28.3799 44.9013 28.7514 44.9031 29.1102C44.9103 31.6202 44.8977 34.1284 44.923 36.6384C44.9267 36.8975 45.0771 37.2727 45.28 37.3941C47.375 38.6427 49.4935 39.8515 51.6066 41.0693C51.6809 41.1128 51.7661 41.1364 51.9274 41.2034C51.7679 39.7319 51.6157 38.3292 51.4653 36.9247C51.4236 36.5423 51.3094 36.1454 51.3747 35.7812C51.4399 35.4187 51.6085 34.9185 51.8785 34.7917C52.1884 34.6467 52.7466 34.7174 53.0456 34.9167C54.3395 35.7848 55.5773 36.7344 56.8386 37.6532C56.98 37.7565 57.1304 37.8471 57.3823 38.0139C57.4041 37.6913 57.4312 37.4611 57.4312 37.231C57.4349 35.0381 57.4186 32.8453 57.4439 30.6525C57.4494 30.1595 57.2953 29.8841 56.864 29.6394C54.6404 28.3872 52.4312 27.1113 50.2275 25.8228C48.8901 25.0417 48.3283 23.6119 48.7668 22.2291C49.354 20.3788 51.4218 19.5397 53.1634 20.4821C54.374 21.1381 55.5519 21.854 56.7462 22.5408C56.9365 22.6495 57.134 22.742 57.4312 22.8942C57.4312 22.2436 57.4294 21.6872 57.4312 21.1309C57.4367 20.0236 57.395 18.9127 57.4657 17.809C57.5708 16.1907 58.8883 15.0018 60.4795 15C62.0724 14.9982 63.4063 16.1798 63.4969 17.7999C63.5766 19.1972 63.5295 20.6017 63.5367 22.0026C63.5386 22.2672 63.5367 22.5317 63.5367 22.9341C64.8742 22.162 66.0938 21.4444 67.328 20.7557C67.7575 20.5165 68.2106 20.2664 68.6836 20.1668C70.1696 19.8496 71.5977 20.647 72.1359 22.0261C72.676 23.4107 72.1794 24.9547 70.8619 25.7394C68.6491 27.057 66.4182 28.3418 64.1765 29.6068C63.7035 29.8732 63.515 30.1595 63.5241 30.7123C63.5567 32.9051 63.5367 35.0979 63.5386 37.2908C63.5386 37.5046 63.5585 37.7185 63.5766 38.061C64.6023 37.3107 65.5266 36.6347 66.449 35.9588C66.8876 35.638 67.3316 35.3281 67.7593 34.9947C68.1797 34.6648 68.6219 34.4782 69.1294 34.7609C69.6223 35.0363 69.6531 35.5003 69.5969 36.0023C69.4248 37.5517 69.2653 39.103 69.1004 40.6525C69.0841 40.8084 69.0714 40.9624 69.0496 41.2089C69.2816 41.0947 69.4574 41.0168 69.6223 40.9226C71.5995 39.7863 73.5694 38.6355 75.5575 37.5173C75.9435 37.2998 76.0794 37.057 76.0739 36.6148C76.0504 34.0831 76.0576 31.5514 76.0649 29.0196C76.0703 27.1186 77.3661 25.734 79.1131 25.7431C80.8656 25.7521 82.1523 27.1349 82.1649 29.0359C82.174 30.3245 82.1649 31.613 82.1686 32.9015C82.1686 33.1172 82.1885 33.3328 82.2048 33.6554C83.5894 32.858 84.9015 32.1186 86.1954 31.352C86.9729 30.8917 87.7938 30.7032 88.6637 30.9406C89.9395 31.2904 90.7242 32.1403 90.9182 33.4542C91.103 34.7101 90.6445 35.7449 89.5789 36.4245C88.439 37.1531 87.2429 37.7964 86.0722 38.4778C85.8203 38.6246 85.572 38.7768 85.2313 38.9816C86.1465 39.5126 87.0001 40.0074 87.8536 40.5039C88.381 40.8102 88.9156 41.1056 89.4357 41.4227C90.9327 42.3379 91.4075 44.1357 90.5503 45.6018C89.7112 47.0353 87.9171 47.55 86.4238 46.7127C84.1584 45.4441 81.9149 44.1339 79.6785 42.8127C79.2545 42.5626 78.9464 42.5699 78.5223 42.8218C76.4273 44.065 74.3088 45.272 72.0997 46.5496C73.5187 47.1803 74.8489 47.7693 76.1772 48.3582C76.4871 48.496 76.8496 48.5703 77.0924 48.7841C77.3715 49.0288 77.7304 49.4039 77.7159 49.7066C77.6995 50.0473 77.3806 50.5203 77.0671 50.6743C75.5883 51.3974 74.066 52.0317 72.56 52.6986C72.4367 52.753 72.3208 52.8218 72.1468 52.9125C72.4132 53.0756 72.6361 53.2187 72.8644 53.351C74.7021 54.413 76.5596 55.4424 78.3701 56.5497C78.9409 56.8976 79.3342 56.8541 79.8815 56.5261C82.0127 55.2503 84.1657 54.0107 86.3295 52.791C88.3266 51.6656 90.6445 52.7856 90.9345 55.0292C91.103 56.3431 90.543 57.367 89.4104 58.0466C88.2668 58.7316 87.1052 59.3822 85.9526 60.0509C85.7405 60.1742 85.5357 60.3065 85.2403 60.4895C86.672 61.3177 88.0349 62.0934 89.3832 62.8908C90.5213 63.5631 91.0939 64.5816 90.9399 65.8937C90.6789 68.1119 88.3846 69.2735 86.4147 68.2079C85.2422 67.5754 84.1022 66.885 82.946 66.2217C82.734 66.1003 82.5183 65.9861 82.1704 65.7922C82.1704 66.1872 82.1704 66.4863 82.1704 66.7853C82.1704 68.0068 82.1794 69.2264 82.1686 70.4479C82.1523 72.3362 80.8329 73.7262 79.0859 73.7099C77.3588 73.6936 76.0758 72.3272 76.0703 70.4696C76.0613 67.9143 76.0758 65.3609 76.054 62.8056C76.0522 62.5573 75.9344 62.193 75.7495 62.0843C73.593 60.8066 71.4146 59.5671 69.2399 58.322C69.2073 58.3039 69.1529 58.3202 69.0551 58.3202C69.2037 59.7048 69.3505 61.0894 69.4991 62.4739C69.5389 62.8563 69.6586 63.2532 69.5933 63.6157C69.5244 63.998 69.365 64.5145 69.0822 64.6668C68.7941 64.8226 68.2196 64.7338 67.9188 64.5327C66.6085 63.6501 65.3508 62.686 64.075 61.7527C63.9499 61.662 63.8195 61.5787 63.6074 61.4337C63.5802 61.6947 63.544 61.8795 63.544 62.0625C63.5404 64.3224 63.5567 66.5841 63.5295 68.844C63.5241 69.3188 63.6926 69.5689 64.0931 69.7955C66.3512 71.0785 68.6038 72.3707 70.8383 73.6936C72.0072 74.3859 72.4947 75.466 72.2918 76.8035C72.1069 78.0304 71.3693 78.8477 70.1914 79.221C69.307 79.5019 68.4552 79.3606 67.6506 78.8894C66.3294 78.1173 65.001 77.3598 63.5422 76.5189C63.5422 77.1043 63.5422 77.5664 63.5422 78.0285C63.5422 78.8658 63.4914 79.7049 63.5531 80.5367C63.6944 82.4305 63.0003 83.7807 61.1681 84.4548C60.7114 84.4548 60.2602 84.4548 59.8071 84.4548ZM53.6201 37.8272C53.7995 39.538 53.959 41.0857 54.1257 42.6333C54.1837 43.1661 54.2199 43.6826 53.6744 44.0143C53.1597 44.3278 52.7266 44.0741 52.288 43.8204C49.4917 42.2038 46.7045 40.5746 43.89 38.9907C43.1506 38.5739 42.8426 38.0646 42.8552 37.2038C42.9006 34.4473 42.877 31.6873 42.8679 28.9308C42.8661 28.2386 42.4638 27.7982 41.8839 27.7855C41.3112 27.7746 40.8835 28.2241 40.8418 28.8928C40.8291 29.0957 40.8382 29.2987 40.8382 29.5035C40.8382 31.4481 40.8509 33.3926 40.831 35.3354C40.8219 36.2814 40.0897 36.7072 39.2507 36.2868C39.0694 36.1962 38.8955 36.0874 38.7197 35.986C37.0379 35.0146 35.3597 34.036 33.6725 33.0755C33.0709 32.733 32.4891 32.8671 32.1901 33.3691C31.882 33.8837 32.0451 34.4329 32.6269 34.8116C32.7773 34.9113 32.9386 34.9947 33.0944 35.0853C34.7182 36.0222 36.342 36.9591 37.9621 37.8979C39.1256 38.5721 39.1202 39.3858 37.9476 40.0672C36.9708 40.6344 35.9904 41.1926 35.0118 41.7562C34.209 42.2183 33.4007 42.6696 32.6105 43.1516C32.0524 43.4905 31.8947 44.0396 32.1665 44.538C32.4493 45.0563 33.0256 45.2031 33.6272 44.9023C33.8085 44.8117 33.9806 44.7029 34.1564 44.6014C36.4435 43.2803 38.7396 41.9737 41.014 40.6308C41.612 40.2774 42.1249 40.2738 42.7157 40.6308C43.9517 41.3774 45.2148 42.0824 46.4671 42.8055C48.109 43.7533 49.7672 44.6776 51.3819 45.6725C51.7136 45.8773 52.0162 46.3231 52.0923 46.7055C52.1992 47.2383 51.7389 47.5264 51.2732 47.724C50.6498 47.9885 50.0336 48.2694 49.4138 48.5431C48.5765 48.9128 47.7411 49.2843 46.7842 49.7084C47.0996 49.866 47.2898 49.9693 47.4856 50.0581C48.7233 50.6073 49.9593 51.1582 51.2025 51.6982C51.6791 51.9048 52.1032 52.1477 52.1213 52.7457C52.1394 53.3039 51.777 53.583 51.3421 53.8313C48.4443 55.4967 45.5446 57.1604 42.6613 58.8476C42.0796 59.1883 41.5885 59.1611 41.0212 58.824C39.2923 57.7983 37.5453 56.807 35.8037 55.803C35.0408 55.3626 34.2869 54.9041 33.5076 54.4964C32.9966 54.2282 32.413 54.4275 32.1684 54.9077C31.9038 55.4279 32.0379 55.8737 32.4855 56.2253C32.6269 56.3358 32.7918 56.4156 32.9494 56.5062C34.5913 57.454 36.2351 58.4018 37.8788 59.3496C39.1383 60.0763 39.1492 60.8646 37.9078 61.5859C37.5562 61.7907 37.2046 61.9937 36.853 62.1967C35.4649 62.9995 34.073 63.7933 32.6903 64.607C32.0487 64.9839 31.8711 65.5457 32.1847 66.0785C32.4946 66.6041 33.069 66.7074 33.7269 66.3522C33.8664 66.2779 34.0006 66.1945 34.1383 66.1166C35.7421 65.1905 37.3732 64.3079 38.9371 63.3203C39.9665 62.6715 40.9343 63.1245 40.8563 64.4529C40.7675 65.939 40.8364 67.4359 40.8364 68.9274C40.8364 69.4928 40.8165 70.0582 40.8473 70.6218C40.8817 71.2471 41.3293 71.6766 41.8766 71.6693C42.4348 71.6621 42.8335 71.2326 42.8679 70.5965C42.8788 70.3935 42.8716 70.1905 42.8716 69.9857C42.8716 67.3181 42.877 64.6505 42.8679 61.9828C42.8661 61.4192 43.022 60.9824 43.5421 60.6852C46.5396 58.9654 49.5189 57.2184 52.5327 55.5257C52.8444 55.3518 53.4117 55.3373 53.7052 55.513C53.9662 55.6689 54.1329 56.189 54.1293 56.546C54.1202 57.3561 53.9807 58.1644 53.8973 58.9726C53.8122 59.8081 53.7288 60.6435 53.6327 61.6204C55.0282 60.6037 56.2895 59.6975 57.5364 58.7679C57.9586 58.4543 58.3809 58.2133 58.9028 58.4598C59.4428 58.7153 59.4737 59.2227 59.4737 59.7356C59.4718 63.0357 59.461 66.3377 59.4827 69.6378C59.4882 70.3554 59.2272 70.8049 58.5983 71.1601C56.2569 72.4794 53.939 73.8404 51.6121 75.1851C51.5142 75.2413 51.4145 75.2938 51.3185 75.3536C50.7041 75.7324 50.5066 76.3069 50.8129 76.8306C51.1046 77.329 51.6954 77.4686 52.2953 77.1279C54.0623 76.1239 55.8183 75.0999 57.5798 74.0869C58.785 73.3946 59.4682 73.7969 59.4718 75.2014C59.4773 77.1007 59.4718 78.9999 59.4737 80.8992C59.4755 81.9322 59.8144 82.4269 60.5048 82.416C61.1917 82.4052 61.5052 81.9231 61.507 80.8684C61.5088 78.9238 61.5106 76.9792 61.507 75.0365C61.507 74.5345 61.5777 74.0035 62.1123 73.8748C62.4784 73.786 62.9677 73.8658 63.303 74.0506C65.1025 75.0419 66.8713 76.0894 68.6509 77.117C69.1022 77.3779 69.6132 77.4649 69.9503 77.0499C70.1678 76.7817 70.2693 76.2997 70.204 75.9553C70.1533 75.6925 69.7927 75.4388 69.5154 75.2757C67.1576 73.8948 64.7981 72.5175 62.415 71.1818C61.7607 70.8139 61.4925 70.3554 61.4979 69.6106C61.5233 66.3558 61.5088 63.0992 61.5088 59.8443C61.5088 59.6631 61.5052 59.4819 61.5288 59.3025C61.6375 58.4888 62.3624 58.1227 63.0782 58.525C63.2939 58.6464 63.486 58.8059 63.6872 58.9527C64.8669 59.8117 66.0467 60.6725 67.299 61.5859C67.299 61.3521 67.3099 61.2253 67.2972 61.0984C67.1504 59.6595 67.0036 58.2224 66.8477 56.7834C66.7916 56.2706 66.7771 55.7794 67.2791 55.4569C67.7847 55.1325 68.2232 55.3662 68.6672 55.6236C71.5415 57.2854 74.4121 58.9509 77.2954 60.5964C77.8735 60.9263 78.1164 61.363 78.1127 62.0245C78.0946 64.7139 78.1055 67.4051 78.1055 70.0945C78.1055 70.2975 78.1 70.5022 78.1145 70.7052C78.1562 71.296 78.5096 71.6258 79.0678 71.6603C79.6042 71.6929 79.9649 71.383 80.0953 70.8592C80.1479 70.6436 80.1388 70.4116 80.1388 70.1869C80.1425 68.1753 80.1298 66.1637 80.1461 64.1503C80.1533 63.1662 80.8909 62.744 81.7644 63.1898C81.9257 63.2713 82.0798 63.3674 82.2356 63.458C83.9373 64.4402 85.6336 65.4333 87.3408 66.4029C87.9297 66.7382 88.5278 66.5714 88.8087 66.055C89.0805 65.5548 88.9174 65.0238 88.3719 64.6595C88.2215 64.5598 88.062 64.4747 87.9044 64.384C86.2824 63.4453 84.6586 62.5102 83.0366 61.5696C81.8587 60.8864 81.8478 60.0781 83.0076 59.4076C83.8286 58.9328 84.6514 58.4616 85.4741 57.9886C86.4129 57.4467 87.3553 56.9121 88.2868 56.3576C88.9192 55.9806 89.1023 55.4061 88.7906 54.8806C88.4861 54.3659 87.8971 54.2626 87.252 54.6105C87.1523 54.6649 87.0544 54.7211 86.9566 54.7773C84.6097 56.131 82.2592 57.4812 79.9177 58.8458C79.4302 59.1303 78.9717 59.2336 78.4552 58.9346C75.465 57.2021 72.4639 55.4913 69.4936 53.7262C69.1874 53.5431 68.8775 53.0466 68.8992 52.7185C68.921 52.3887 69.2943 51.9592 69.6241 51.7961C70.9181 51.1564 72.2555 50.6073 73.5748 50.0201C73.747 49.944 73.9083 49.8461 74.1765 49.7066C72.647 49.0306 71.2316 48.3981 69.809 47.7765C69.3396 47.5717 68.8956 47.3579 68.8503 46.7598C68.8013 46.1255 69.2381 45.8501 69.7039 45.5819C72.5237 43.9617 75.3509 42.356 78.149 40.6978C78.8485 40.2828 79.4049 40.2991 80.0899 40.7069C82.4187 42.0915 84.7728 43.4343 87.1287 44.7754C87.4096 44.9349 87.8083 45.1216 88.0602 45.0328C88.3901 44.9168 88.7471 44.5887 88.8776 44.2644C89.0823 43.7569 88.7434 43.3691 88.294 43.1099C86.5144 42.0824 84.7329 41.0567 82.9569 40.0255C81.8732 39.3966 81.8786 38.5648 82.9696 37.9305C84.6097 36.9773 86.2552 36.0331 87.8971 35.0835C88.111 34.9584 88.3393 34.846 88.5278 34.6884C88.97 34.3205 89.0696 33.8566 88.7688 33.3618C88.4807 32.8888 88.0258 32.7982 87.5256 32.9685C87.3371 33.032 87.1668 33.1588 86.991 33.2603C85.2693 34.2534 83.5513 35.2538 81.8242 36.236C81.1011 36.6474 80.4089 36.4517 80.2023 35.7884C80.1298 35.5583 80.1425 35.2973 80.1425 35.0508C80.1388 33.0392 80.1497 31.0276 80.1352 29.0142C80.128 28.0555 79.3541 27.5136 78.6202 27.9268C78.1617 28.186 78.1 28.6155 78.1 29.0939C78.1073 31.8522 78.0892 34.6105 78.1127 37.3687C78.1182 38.0809 77.8898 38.5721 77.2392 38.9001C76.5959 39.2263 75.9833 39.6159 75.3581 39.9766C73.0692 41.2977 70.7912 42.6351 68.4806 43.9164C68.1616 44.094 67.5871 44.1429 67.3099 43.969C67.0326 43.795 66.9075 43.2767 66.8477 42.8889C66.7916 42.521 66.9057 42.1277 66.9456 41.7453C67.0761 40.4949 67.2066 39.2462 67.3534 37.8381C65.9924 38.833 64.7564 39.7283 63.5295 40.6362C63.0782 40.9697 62.6234 41.285 62.0471 40.9878C61.4889 40.7015 61.5052 40.1542 61.5052 39.6268C61.507 36.5296 61.5523 33.4307 61.4816 30.3353C61.4563 29.2135 61.8242 28.5684 62.8118 28.0356C65.117 26.796 67.3624 25.4422 69.6277 24.1265C70.2657 23.755 70.465 23.1914 70.1841 22.6622C69.8941 22.1167 69.2689 21.9953 68.5948 22.3813C66.8314 23.3926 65.0844 24.4292 63.3066 25.4151C62.984 25.5945 62.5237 25.6978 62.1739 25.6216C61.6031 25.4966 61.5034 24.9656 61.5034 24.4328C61.507 22.4212 61.5197 20.4078 61.4889 18.3962C61.4834 18.0392 61.3856 17.5807 61.15 17.3614C60.9271 17.153 60.3762 17.0315 60.1351 17.1675C59.827 17.3414 59.519 17.8018 59.5027 18.1533C59.4338 19.643 59.4718 21.1363 59.47 22.6278C59.4682 23.3291 59.499 24.0323 59.4483 24.73C59.3867 25.5655 58.6926 25.937 57.9369 25.5782C57.7339 25.4821 57.5418 25.3589 57.3461 25.2465C55.6643 24.277 53.9825 23.3056 52.2989 22.3342C51.8694 22.0859 51.3855 22.0098 51.0539 22.3904C50.8346 22.6405 50.6751 23.1026 50.7513 23.4034C50.831 23.7152 51.1826 24.0214 51.4907 24.2027C53.8647 25.5999 56.2496 26.979 58.6473 28.3346C59.2272 28.6626 59.4809 29.0867 59.4773 29.7518C59.461 33.0972 59.4682 36.4426 59.47 39.7899C59.47 40.2846 59.412 40.7594 58.9064 41.0023C58.4171 41.2361 58.0003 41.0458 57.5925 40.7413C56.3258 39.7899 55.0463 38.8674 53.6201 37.8272Z" fill="black"/>
<path d="M60.1931 42.9468C64.0315 42.9413 67.0507 45.7558 67.2555 49.2843C67.4675 52.9523 64.8107 56.0802 61.1427 56.4844C57.6723 56.8649 54.3848 54.3586 53.8303 50.8555C53.7197 50.1541 53.7433 49.4147 53.8121 48.7043C53.8756 48.0447 54.3413 47.733 54.9339 47.8054C55.5066 47.8743 55.8618 48.3183 55.7857 48.9744C55.6353 50.2665 55.8854 51.4463 56.6501 52.5046C58.1561 54.5905 61.0557 55.098 63.1616 53.6464C65.3109 52.1639 65.8763 49.2734 64.441 47.1095C63.0184 44.9656 60.1587 44.3404 57.9803 45.7014C57.7882 45.821 57.6143 45.9678 57.4222 46.0856C56.9129 46.3955 56.3584 46.3067 56.0322 45.8772C55.6969 45.435 55.7803 44.8207 56.2623 44.4365C57.4856 43.456 58.8919 42.974 60.1931 42.9468Z" fill="black"/>
</svg>
