<svg width="120" height="100" viewBox="0 0 120 100" fill="none" xmlns="http://www.w3.org/2000/svg">
<rect width="120" height="100" fill="white"/>
<path d="M68.7466 14C70.9121 15.0163 71.3512 15.793 71.1045 18.2192C71.0101 19.1445 70.8911 20.0663 70.7844 20.9917C70.3891 24.387 69.9938 27.7822 69.602 31.1775C69.5845 31.3349 69.6002 31.4976 69.6002 31.746C70.4171 31.746 71.2235 31.7407 72.0316 31.7477C73.7249 31.76 74.61 32.6469 74.6188 34.3366C74.6205 34.592 74.6188 34.8491 74.6188 35.1045C74.6153 36.8433 73.9471 37.5884 72.2083 37.7931C72.1453 37.8001 72.0841 37.8316 72.0894 37.8298C72.4672 39.1295 72.9482 40.3907 73.1896 41.6974C73.7057 44.5032 73.2754 47.2075 71.9372 49.7404C71.6853 50.2162 71.6731 50.4908 72.0894 50.9194C73.5325 52.4045 73.8911 54.2167 73.4835 56.2161C73.4415 56.4225 73.41 56.7023 73.5115 56.8563C74.4998 58.3361 75.5161 59.7967 76.5797 61.3413C77.561 60.7868 78.6752 60.1728 79.765 59.5186C79.9242 59.4242 80.0029 59.1373 80.0484 58.9239C80.337 57.5595 80.5959 56.1898 80.8845 54.8254C81.0455 54.068 81.53 53.6937 82.1317 53.8109C82.7685 53.9333 83.0693 54.4896 82.9189 55.275C82.7492 56.1566 82.576 57.0399 82.3766 58.0632C83.3947 57.4912 84.2815 56.991 85.1702 56.4959C85.6302 56.2388 86.099 56.1671 86.5346 56.5362C87.1153 57.0277 87.0033 57.8271 86.2634 58.2732C85.3696 58.8119 84.4495 59.3087 83.4157 59.8964C84.2448 60.2026 84.9672 60.4684 85.6897 60.7378C85.9293 60.827 86.176 60.9005 86.3999 61.0195C86.9246 61.2976 87.131 61.7454 86.9124 62.3034C86.699 62.8509 86.2459 63.1063 85.6774 62.9226C84.5282 62.5535 83.3684 62.1932 82.2629 61.7104C81.3708 61.3203 80.6326 61.3326 79.8157 61.8976C78.9779 62.4766 78.049 62.9209 77.2059 63.3984C78.9131 71.9644 76.4747 78.8757 68.8218 83.2715C62.7834 86.7402 56.4757 86.3956 50.7574 82.4021C44.1698 77.7999 42.1722 71.27 43.8182 63.4124C42.6602 62.7582 41.4393 62.0515 40.1956 61.385C40.0329 61.2976 39.7443 61.3798 39.5378 61.4515C38.2207 61.9098 36.9122 62.3891 35.6003 62.8614C35.0091 63.0731 34.4861 63.0136 34.145 62.4328C33.8056 61.8573 34.0785 61.2119 34.7922 60.9302C35.6755 60.5821 36.5746 60.276 37.5944 59.9052C36.7338 59.4154 35.9782 58.9868 35.2242 58.5565C35.0021 58.4288 34.7712 58.3134 34.57 58.1595C34.0995 57.8026 33.9683 57.3408 34.2517 56.8073C34.5123 56.3158 35.0825 56.1338 35.6423 56.4137C36.391 56.7881 37.1082 57.2201 37.8411 57.6259C38.0597 57.7466 38.2836 57.8621 38.6247 58.044C38.4288 57.0417 38.2557 56.1601 38.086 55.2785C37.9338 54.4931 38.2347 53.9368 38.8714 53.8144C39.4731 53.6989 39.9577 54.0732 40.1186 54.8289C40.4037 56.1688 40.6416 57.521 40.9565 58.8539C41.0299 59.167 41.2731 59.5221 41.5425 59.6918C42.5045 60.2953 43.5121 60.8288 44.5442 61.4113C44.6474 61.2609 44.7383 61.1384 44.8205 61.0107C45.6584 59.704 46.5051 58.4026 47.3184 57.0802C47.4654 56.8405 47.5633 56.4907 47.5126 56.2231C47.1103 54.11 47.5266 52.2435 49.1097 50.7235C49.414 50.4313 49.3056 50.2109 49.1569 49.9345C47.6456 47.113 47.2397 44.1271 47.9394 41.0169C48.1808 39.9447 48.6111 38.9144 48.9645 37.8386C48.6444 37.7896 48.2945 37.7774 47.9692 37.6794C46.6572 37.2858 46.1517 36.0054 46.4018 33.7839C46.5295 32.6486 47.4164 31.8265 48.6234 31.7617C49.2269 31.7285 49.8338 31.753 50.4391 31.7512C50.7382 31.7512 51.0373 31.7512 51.4152 31.7512C51.4029 31.4591 51.4064 31.2142 51.3784 30.9728C50.8869 26.7239 50.3761 22.475 49.9021 18.2244C49.6327 15.7947 50.0927 15.0163 52.26 14C57.7544 14 63.2505 14 68.7466 14ZM48.7126 58.7437C43.9232 64.4917 44.1034 73.586 50.0228 79.1503C56.1678 84.928 65.486 84.7723 71.2742 78.8932C77.1639 72.9108 76.7493 63.9372 72.2818 58.7559C70.9926 60.353 69.3676 61.4795 67.4399 62.1565C63.8627 63.4107 60.1981 63.5121 56.4932 62.9174C53.4408 62.4293 50.7487 61.2416 48.7126 58.7437ZM60.5094 37.7844C57.7176 37.7844 54.9259 37.7739 52.1341 37.8001C51.8647 37.8018 51.4834 37.9593 51.3469 38.1692C47.182 44.6659 51.3592 53.566 59.0436 54.5123C63.4307 55.0528 67.0026 53.468 69.4533 49.8173C71.9092 46.1614 71.9179 42.2904 69.8294 38.4071C69.5775 37.9365 69.2888 37.7634 68.7448 37.7686C66.0003 37.8019 63.254 37.7844 60.5094 37.7844ZM53.579 31.7023C58.2074 31.7023 62.7992 31.7023 67.4382 31.7023C67.5221 30.9134 67.6026 30.1629 67.6918 29.3181C67.3647 29.3181 67.1163 29.3181 66.8661 29.3181C64.7478 29.3181 56.6313 29.3216 54.5129 29.3146C54.2138 29.3128 53.9007 29.3023 53.6173 29.2184C53.1345 29.0767 52.9106 28.7058 52.9351 28.2073C52.9596 27.707 53.2325 27.3799 53.7188 27.2715C53.9654 27.2172 54.2278 27.226 54.4832 27.2242C56.7642 27.2207 65.0452 27.212 67.3245 27.2312C67.7793 27.2347 67.9839 27.1193 68.0364 26.633C68.3618 23.5823 68.7203 20.5351 69.0579 17.4862C69.1681 16.4944 68.8165 16.0973 67.823 16.0956C62.9356 16.0903 58.0483 16.0903 53.1609 16.0956C52.2023 16.0973 51.835 16.4997 51.9364 17.4337C52.1883 19.7445 52.4507 22.0535 52.7148 24.3625C52.8233 25.3018 52.9475 26.2412 53.0699 27.2295C54.0005 27.2295 54.8611 27.205 55.7183 27.2365C56.4495 27.2645 56.857 27.7595 56.7538 28.4242C56.6506 29.0819 56.1766 29.2901 55.5976 29.3076C54.8612 29.3303 54.123 29.3128 53.3778 29.3128C53.3778 29.6312 53.3586 29.8603 53.3813 30.086C53.4373 30.616 53.5107 31.1425 53.579 31.7023ZM50.6472 52.1946C49.7359 53.0219 49.3476 54.0575 49.5015 55.2172C49.8076 57.5262 51.298 58.9309 53.2903 59.7565C57.9363 61.6789 62.6697 61.6789 67.3612 59.9192C69.1944 59.2317 70.6602 58.0178 71.3232 56.0586C71.8217 54.5805 71.4422 53.0849 70.3541 52.2156C64.8878 58.3589 55.8005 58.0877 50.6472 52.1946ZM48.5412 35.6241C56.5457 35.6241 64.5099 35.6241 72.469 35.6241C72.469 35.0101 72.469 34.4643 72.469 33.8398C72.1471 33.8398 71.8742 33.8398 71.6013 33.8398C64.4085 33.8398 57.2174 33.8398 50.0245 33.8398C48.3452 33.8398 48.3452 33.8398 48.5412 35.6241Z" fill="black"/>
<path d="M60.5251 68.5919C59.563 68.6041 58.6902 67.74 58.6989 66.7814C58.7059 65.8613 59.5595 65.0024 60.4814 64.9884C61.426 64.9745 62.3163 65.8613 62.3093 66.8059C62.2988 67.7347 61.4557 68.5796 60.5251 68.5919Z" fill="black"/>
<path d="M60.4867 74.3504C59.5368 74.3434 58.7077 73.5283 58.6954 72.5889C58.6832 71.6286 59.5438 70.7767 60.5164 70.7837C61.461 70.7907 62.2954 71.6129 62.3076 72.5487C62.3199 73.5143 61.468 74.3574 60.4867 74.3504Z" fill="black"/>
<path d="M60.5059 76.5527C61.4733 76.5545 62.3304 77.4239 62.3077 78.3824C62.2867 79.3025 61.4173 80.1527 60.5007 80.1509C59.5823 80.1492 58.7165 79.299 58.699 78.3772C58.678 77.4169 59.5369 76.551 60.5059 76.5527Z" fill="black"/>
<path d="M60.4815 48.0998C58.5223 48.0893 56.9288 46.5027 56.9148 44.5506C56.9008 42.595 58.5608 40.9419 60.5252 40.9542C62.4651 40.9664 64.0796 42.5827 64.0936 44.5226C64.1059 46.487 62.4668 48.1103 60.4815 48.0998ZM60.5339 45.9972C61.3386 45.9832 61.9928 45.315 61.984 44.5209C61.9753 43.7459 61.2791 43.0568 60.5042 43.055C59.696 43.0533 58.9911 43.7809 59.0261 44.5838C59.0611 45.3937 59.7205 46.013 60.5339 45.9972Z" fill="black"/>
<path d="M60.5304 51.4266C58.8511 51.3531 57.387 50.8318 56.3427 49.4412C55.8529 48.7905 55.8722 48.166 56.3567 47.7654C56.8658 47.3456 57.4028 47.461 57.9678 48.1083C59.3899 49.7368 61.6167 49.7298 63.0493 48.0925C63.5898 47.475 64.1058 47.3561 64.6096 47.7322C65.1186 48.1117 65.1606 48.7485 64.6883 49.3974C63.6633 50.8073 62.2027 51.3356 60.5304 51.4266Z" fill="black"/>
<path d="M55.811 39.5618C56.5632 39.5461 57.2437 40.2213 57.2384 40.9787C57.2332 41.7221 56.6104 42.3466 55.8618 42.3588C55.0956 42.3711 54.4799 41.7903 54.4501 41.0294C54.4204 40.244 55.0379 39.5793 55.811 39.5618Z" fill="black"/>
<path d="M66.5565 40.9664C66.5583 41.7308 65.9653 42.3412 65.2043 42.3587C64.4259 42.3762 63.7612 41.736 63.7612 40.9716C63.7612 40.2212 64.4539 39.5425 65.2009 39.5635C65.9478 39.5827 66.5548 40.2107 66.5565 40.9664Z" fill="black"/>
</svg>
