<svg width="120" height="100" viewBox="0 0 120 100" fill="none" xmlns="http://www.w3.org/2000/svg">
<rect width="120" height="100" fill="white"/>
<g clip-path="url(#clip0_97_2263)">
<path d="M24 51.5764C24 50.1892 24 48.8034 24 47.4162C24.04 47.2176 24.1038 47.019 24.1171 46.8189C24.4624 41.8673 25.7727 37.1766 28.1694 32.8386C33.6921 22.8405 42.0783 16.7181 53.3148 14.5602C54.6695 14.3009 56.0509 14.1838 57.419 14C58.8063 14 60.1922 14 61.5795 14C62.0805 14.0578 62.5815 14.1186 63.0825 14.1749C70.6239 15.0182 77.31 17.8549 82.972 22.9191C90.4482 29.6047 94.456 38.0125 94.9526 48.0268C95.2712 54.4353 93.9536 60.5562 90.8143 66.1585C84.2956 77.7957 74.3071 84.1152 60.9837 84.9348C54.5806 85.329 48.474 83.9181 42.8461 80.8221C32.8354 75.3147 26.7169 66.9143 24.5588 55.6743C24.2994 54.3227 24.1823 52.9428 24 51.5764ZM60.6858 30.6866C60.6858 32.6044 60.6976 34.5222 60.6769 36.4385C60.6724 36.892 60.794 37.2018 61.163 37.4938C64.4742 40.12 67.7751 42.761 71.0641 45.4154C71.4316 45.7118 71.737 45.7652 72.1846 45.6125C76.0724 44.2965 79.9646 42.9967 83.8658 41.7221C84.3712 41.5561 84.595 41.2953 84.7091 40.7884C85.4028 37.7294 86.1394 34.6808 86.8213 31.6188C86.8939 31.2913 86.8183 30.8319 86.6301 30.5606C83.2655 25.7454 78.9212 22.0728 73.6075 19.5637C73.3214 19.4288 72.8842 19.411 72.5907 19.5252C68.8111 21.0043 65.0478 22.5249 61.2697 24.0084C60.794 24.1952 60.6694 24.453 60.6754 24.9317C60.7006 26.8525 60.6858 28.7703 60.6858 30.6866ZM58.3113 30.6911C58.3113 28.751 58.3009 26.811 58.3202 24.871C58.3246 24.4471 58.2149 24.2144 57.791 24.0484C53.9477 22.5471 50.1148 21.0161 46.2699 19.5163C46.0283 19.4229 45.6711 19.4318 45.4384 19.5415C40.0521 22.0699 35.6752 25.8032 32.2766 30.6792C32.1313 30.8867 32.0809 31.2439 32.1387 31.4958C32.8502 34.62 33.6002 37.7368 34.3101 40.861C34.4154 41.3249 34.6229 41.5517 35.0735 41.6999C38.9939 42.9863 42.9083 44.2905 46.8154 45.6125C47.2645 45.7652 47.5698 45.7074 47.9359 45.4125C51.2249 42.7596 54.5228 40.12 57.834 37.4938C58.2016 37.2018 58.3261 36.8935 58.3217 36.44C58.2994 34.5252 58.3113 32.6074 58.3113 30.6911ZM43.4567 69.4902C43.5635 69.3983 43.771 69.2723 43.9058 69.0915C45.8253 66.5482 47.7418 64.002 49.6345 61.4396C49.7842 61.238 49.8598 60.8823 49.8005 60.6407C48.8164 56.6095 47.8144 52.5812 46.7813 48.5619C46.7131 48.2951 46.4152 47.975 46.1543 47.886C42.225 46.5507 38.2824 45.2568 34.3502 43.9334C33.9855 43.8103 33.781 43.8533 33.5305 44.1557C31.2968 46.8634 29.0395 49.5519 26.8073 52.2611C26.6561 52.4449 26.5627 52.7591 26.5879 52.9962C27.1037 58.013 28.7208 62.6534 31.3576 66.9514C31.6807 67.4775 32.0483 67.7176 32.6471 67.8021C34.611 68.0792 36.569 68.4112 38.5285 68.7195C40.1248 68.9699 41.7211 69.2189 43.4567 69.4902ZM92.4566 52.6687C92.4239 52.6138 92.3409 52.4301 92.2164 52.2804C89.9591 49.5637 87.6913 46.856 85.4398 44.1349C85.2116 43.8592 85.0219 43.8103 84.6795 43.9259C80.725 45.2554 76.7631 46.5581 72.813 47.8964C72.5685 47.9794 72.2869 48.2758 72.2231 48.5233C71.1871 52.5649 70.1777 56.6124 69.1861 60.6644C69.1313 60.8882 69.201 61.2158 69.3388 61.401C71.2731 63.9902 73.2221 66.5675 75.1935 69.127C75.3357 69.3123 75.7033 69.4546 75.936 69.419C79.4933 68.881 83.0461 68.3075 86.6019 67.7547C87.0199 67.6894 87.3178 67.5427 87.512 67.1411C88.5554 64.9876 89.7278 62.8875 90.6409 60.6807C91.671 58.1834 92.1809 55.5202 92.4566 52.6687ZM59.4837 62.52C57.1048 62.52 54.7244 62.5066 52.3455 62.5378C52.0594 62.5422 51.677 62.723 51.5051 62.9483C49.6241 65.4056 47.7862 67.894 45.9098 70.3557C45.6178 70.7381 45.6296 70.9885 45.8846 71.3813C48.0011 74.6581 50.1073 77.9424 52.1794 81.2474C52.4937 81.7483 52.8657 81.9707 53.423 82.0714C57.9141 82.8836 62.3843 82.8139 66.8294 81.775C67.1392 81.7024 67.492 81.4416 67.6521 81.1659C69.5389 77.9128 71.3857 74.6344 73.2681 71.3783C73.4934 70.987 73.4504 70.7514 73.191 70.4135C71.2938 67.9399 69.4114 65.4545 67.5439 62.9587C67.2934 62.6237 67.034 62.5081 66.6249 62.5111C64.243 62.5289 61.8626 62.52 59.4837 62.52ZM59.5252 39.2041C59.4096 39.2767 59.3295 39.3197 59.2599 39.3745C55.9576 42.0126 52.6626 44.6581 49.3485 47.2799C48.9838 47.5674 49.0609 47.8505 49.1454 48.1869C49.6938 50.3789 50.2393 52.5723 50.7892 54.7643C51.2383 56.5517 51.6918 58.3361 52.1454 60.1339C57.0633 60.1339 61.9323 60.1339 66.8013 60.1339C66.8487 60.0316 66.9021 59.9516 66.9243 59.8641C67.9174 55.9055 68.9134 51.9469 69.8768 47.9809C69.9272 47.7734 69.7553 47.4147 69.5715 47.2636C68.0033 45.9712 66.4115 44.7085 64.824 43.4383C63.0617 42.0289 61.2949 40.6194 59.5252 39.2041ZM49.1469 18.0446C49.3529 18.1542 49.43 18.2061 49.5145 18.2402C52.7101 19.5074 55.9012 20.7805 59.1072 22.0224C59.3666 22.1232 59.7401 22.0817 60.0114 21.978C61.9263 21.2369 63.828 20.4633 65.7326 19.7C67.0503 19.1724 68.3665 18.6463 69.8561 18.0505C62.8705 15.8363 56.0806 15.8422 49.1469 18.0446ZM49.0743 80.9243C49.0446 80.7806 49.0476 80.7302 49.0253 80.6946C47.2171 77.8564 45.4132 75.0153 43.5827 72.1905C43.4597 71.9993 43.1559 71.8615 42.9143 71.82C40.9844 71.4895 39.0487 71.1842 37.1144 70.8774C36.0799 70.7129 35.0423 70.5632 33.8195 70.3779C38.0038 75.4036 43.0151 78.8598 49.0743 80.9243ZM85.1553 70.4105C84.847 70.4327 84.7106 70.4313 84.5757 70.4535C81.7996 70.8952 79.0205 71.325 76.2503 71.8022C75.9494 71.8541 75.5907 72.1134 75.4351 72.3787C73.9884 74.8419 72.5803 77.3288 71.1619 79.8098C71.0315 80.0395 70.9129 80.2752 70.7113 80.6561C76.4919 78.5011 81.2126 75.1576 85.1553 70.4105ZM92.6152 48.9679C92.4788 43.6295 91.2545 38.7402 88.7555 34.0035C88.674 34.2851 88.6325 34.4066 88.6029 34.5296C88.0515 36.8639 87.5164 39.2011 86.9413 41.5294C86.8331 41.9681 86.9384 42.2542 87.2126 42.5787C88.8519 44.5203 90.4704 46.4766 92.0993 48.427C92.2253 48.5782 92.3706 48.713 92.6152 48.9679ZM30.3216 34.1932C27.7499 38.7491 26.5094 43.634 26.3908 48.8924C26.5301 48.8034 26.5968 48.7812 26.6353 48.7338C28.4125 46.6085 30.1911 44.4832 31.9549 42.3461C32.0646 42.2127 32.1283 41.9637 32.0898 41.7962C31.5132 39.2574 30.9159 36.726 30.3216 34.1932Z" fill="black"/>
</g>
<defs>
<clipPath id="clip0_97_2263">
<rect width="71" height="71" fill="white" transform="translate(24 14)"/>
</clipPath>
</defs>
</svg>
