<svg width="120" height="100" viewBox="0 0 120 100" fill="none" xmlns="http://www.w3.org/2000/svg">
<rect width="120" height="100" fill="white"/>
<path d="M19.0014 58.725C19.1362 58.5235 19.2945 58.3332 19.4029 58.1179C20.7687 55.3975 22.1427 52.6813 23.4765 49.9456C23.8281 49.2245 24.3157 48.9286 25.1077 48.948C26.6318 48.9841 28.1573 48.9591 29.6828 48.9578C29.9302 48.9578 30.1775 48.9578 30.4581 48.9578C30.4581 47.3266 30.4581 45.79 30.4581 44.163C30.1858 44.163 29.9399 44.163 29.6954 44.163C28.0545 44.163 26.4137 44.1714 24.7728 44.1589C24.0101 44.1533 23.5919 43.7643 23.5905 43.0154C23.5794 37.7233 23.5794 32.4312 23.5905 27.1391C23.5919 26.393 24.0142 26.011 24.7812 26.0068C33.0458 25.9971 35.3105 25.9984 37.5752 26.0068C38.3213 26.0096 38.7798 26.425 38.7728 27.0516C38.7659 27.6782 38.3101 28.0728 37.5529 28.0756C35.8662 28.0825 34.1796 28.0783 26.4915 28.0783C26.2428 28.0783 25.9941 28.0783 25.7079 28.0783C25.7079 32.7577 25.7079 37.369 25.7079 42.0331C44.8839 42.0331 64.0516 42.0331 83.2722 42.0331C83.2722 37.4163 83.2722 32.7883 83.2722 28.0783C82.9679 28.0783 82.6761 28.0783 82.383 28.0783C67.1305 28.0783 51.878 28.0783 36.6255 28.0783C35.5015 28.0783 34.9861 27.7491 34.9902 27.0349C34.9944 26.3236 35.5057 26.0026 36.6366 26.0026C52.3518 26.0026 68.0655 26.0026 83.7807 26.0026C85.1422 26.0026 85.4132 26.268 85.4132 27.6046C85.4132 32.6188 85.4146 37.6344 85.4132 42.6486C85.4132 43.849 85.0992 44.1603 83.896 44.1617C82.3482 44.163 80.7991 44.1603 79.2513 44.163C79.0262 44.163 78.8026 44.1825 78.5427 44.1936C78.5427 45.7761 78.5427 47.3141 78.5427 48.9202C78.8012 48.9327 79.0485 48.9536 79.2972 48.955C80.8922 48.9578 82.4858 48.9661 84.0808 48.9522C84.7338 48.9466 85.1492 49.2162 85.4423 49.808C86.8706 52.7035 88.3308 55.5823 89.7605 58.4777C89.9064 58.7736 89.9786 59.1349 89.9842 59.4669C90.0092 60.8063 89.9981 62.147 89.9939 63.4878C89.9911 64.4812 89.6563 64.8257 88.6712 64.8271C86.3371 64.8327 84.003 64.8285 81.6688 64.8285C81.4187 64.8285 81.17 64.8285 80.8755 64.8285C80.8755 67.2043 80.8755 69.5218 80.8755 71.9171C81.2617 71.9171 81.6258 71.8948 81.987 71.9212C82.6858 71.9726 83.1026 72.3978 83.086 73.0091C83.0693 73.6079 82.6942 74.0067 81.9939 74.0108C78.9665 74.0303 75.9391 74.0289 72.913 74.0067C72.2447 74.0011 71.8404 73.5551 71.8418 72.9771C71.8432 72.4047 72.2572 71.981 72.9144 71.924C73.277 71.892 73.6452 71.9184 74.0593 71.9184C74.0593 69.5385 74.0593 67.221 74.0593 64.8674C61.0075 64.8674 47.9878 64.8674 34.9277 64.8674C34.9277 67.2085 34.9277 69.5093 34.9277 71.9157C35.2987 71.9157 35.6599 71.8962 36.0184 71.9198C36.72 71.9657 37.1563 72.3853 37.1563 72.9813C37.1563 73.5829 36.7353 74.0094 36.0114 74.0136C33.0298 74.0331 30.0496 74.0331 27.0681 74.0164C26.3178 74.0122 25.9246 73.6274 25.9107 73.0049C25.8954 72.3714 26.3359 71.956 27.0833 71.9171C27.4057 71.9004 27.7294 71.9143 28.1087 71.9143C28.1087 69.5676 28.1087 67.2488 28.1087 64.8285C27.8794 64.8285 27.6349 64.8285 27.3918 64.8285C25.0813 64.8285 22.7694 64.8132 20.4588 64.8382C19.8253 64.8452 19.3251 64.6993 19 64.1296C19.0014 62.3304 19.0014 60.5284 19.0014 58.725ZM87.2582 58.1512C86.1662 55.9713 85.102 53.9039 84.0988 51.806C83.8321 51.2474 83.5334 51.0613 82.9081 51.0613C63.9669 51.0807 45.0242 51.0779 26.083 51.0779C25.9441 51.0779 25.7871 51.0362 25.6717 51.0877C25.4661 51.178 25.198 51.278 25.1077 51.4531C24.0156 53.5885 22.9514 55.7379 21.8829 57.8844C21.8468 57.9567 21.8468 58.0484 21.826 58.1512C43.6238 58.1512 65.3827 58.1512 87.2582 58.1512ZM37.2229 44.1742C37.2229 45.7539 37.2229 47.3239 37.2229 48.9063C48.7686 48.9063 60.2823 48.9063 71.7793 48.9063C71.7793 47.2975 71.7793 45.7414 71.7793 44.1742C60.242 44.1742 48.7616 44.1742 37.2229 44.1742ZM87.889 60.2964C65.5952 60.2964 43.357 60.2964 21.1341 60.2964C21.1341 61.1411 21.1341 61.9344 21.1341 62.7153C43.4126 62.7153 65.6341 62.7153 87.889 62.7153C87.889 61.9011 87.889 61.1231 87.889 60.2964ZM32.7158 71.8823C32.7158 69.5009 32.7158 67.2015 32.7158 64.8674C31.9044 64.8674 31.132 64.8674 30.3136 64.8674C30.3136 67.2154 30.3136 69.5315 30.3136 71.8823C31.1292 71.8823 31.9017 71.8823 32.7158 71.8823ZM76.292 64.8563C76.292 67.2321 76.292 69.5482 76.292 71.8726C77.1131 71.8726 77.8856 71.8726 78.6775 71.8726C78.6775 69.5135 78.6775 67.1974 78.6775 64.8563C77.8717 64.8563 77.1145 64.8563 76.292 64.8563ZM35.0528 44.2006C34.1941 44.2006 33.4189 44.2006 32.6283 44.2006C32.6283 45.79 32.6283 47.3419 32.6283 48.9008C33.4661 48.9008 34.2566 48.9008 35.0528 48.9008C35.0528 47.3086 35.0528 45.7719 35.0528 44.2006ZM73.9467 48.9022C74.7942 48.9022 75.5848 48.9022 76.3614 48.9022C76.3614 47.2933 76.3614 45.7414 76.3614 44.1992C75.5292 44.1992 74.7539 44.1992 73.9467 44.1992C73.9467 45.7719 73.9467 47.3086 73.9467 48.9022Z" fill="black"/>
<path d="M37.1618 35.0987C37.1535 36.9313 35.5904 38.4791 33.7884 38.4374C31.9308 38.3957 30.4845 36.8938 30.5025 35.0265C30.5192 33.2134 32.017 31.724 33.8259 31.7212C35.6488 31.7198 37.1701 33.2606 37.1618 35.0987ZM33.8884 33.8719C33.1951 33.8441 32.6324 34.3415 32.5922 35.0154C32.5519 35.6712 33.0951 36.263 33.7606 36.2894C34.4428 36.3172 35.0138 35.8143 35.0625 35.1432C35.1083 34.4958 34.5567 33.8983 33.8884 33.8719Z" fill="black"/>
<path d="M78.4983 35.0529C78.508 36.9119 77.0297 38.4235 75.186 38.4388C73.3687 38.4541 71.8349 36.9133 71.8377 35.0752C71.839 33.2426 73.3896 31.6962 75.1985 31.724C77.02 31.7504 78.4899 33.2342 78.4983 35.0529ZM75.1819 33.8706C74.5052 33.8678 73.9356 34.4152 73.93 35.0724C73.9245 35.7254 74.4955 36.2881 75.1666 36.2909C75.8432 36.2936 76.4059 35.7504 76.4114 35.0877C76.4156 34.4208 75.8626 33.8734 75.1819 33.8706Z" fill="black"/>
</svg>
