<svg width="120" height="100" viewBox="0 0 120 100" fill="none" xmlns="http://www.w3.org/2000/svg">
<rect width="120" height="100" fill="white"/>
<path d="M66.7845 89C65.6894 88.6827 64.5632 88.4442 63.5067 88.0297C61.9604 87.4244 60.7168 86.3569 59.6016 85.1353C55.2068 80.3223 50.8083 75.5147 46.3915 70.7201C46.0943 70.3972 45.6798 70.1258 45.2671 69.9735C43.1871 69.205 41.0887 68.4878 38.9977 67.7468C33.8527 65.9217 31.6516 60.8501 33.8454 55.8646C34.6799 53.968 35.5365 52.0824 36.3619 50.184C36.483 49.907 36.5545 49.575 36.5362 49.2742C36.0721 41.7484 35.5952 34.2244 35.1165 26.6985C34.9 23.2648 34.6708 19.8312 34.447 16.3975C34.4286 16.1297 34.4121 15.8619 34.4085 15.5923C34.3938 14.5192 34.8744 14.0075 35.9511 14.0038C38.9537 13.9965 41.9563 14.002 44.9608 14.002C48.9888 14.002 53.0167 14.002 57.0447 14.002C58.6643 14.002 58.9835 14.3358 59.0293 15.9848C59.321 26.4032 59.6108 36.8198 59.9189 47.2364C59.9923 49.7053 60.8452 51.8954 62.4043 53.8176C67.0156 59.5056 71.6287 65.1899 76.2216 70.8906C79.1747 74.5554 79.7928 78.5926 77.755 82.8572C76.1335 86.2505 73.3272 88.2186 69.6092 88.8643C69.4459 88.8918 69.29 88.9541 69.1305 88.9982C68.3472 89 67.5659 89 66.7845 89ZM37.9504 29.692C37.9504 30.0919 37.9339 30.4092 37.9522 30.7228C38.3319 36.7373 38.7226 42.7517 39.0876 48.768C39.1151 49.2284 39.3169 49.3751 39.7021 49.5164C47.2444 52.3191 50.8707 60.2759 48.0405 67.8238C47.8717 68.2732 47.9212 68.5575 48.2514 68.917C52.615 73.6585 56.9622 78.4165 61.3148 83.169C61.489 83.3597 61.6706 83.5432 61.9109 83.7945C62.6061 80.7111 64.0643 78.1964 66.3883 76.2154C68.7012 74.2436 71.4049 73.1926 74.5249 72.9853C74.3488 72.734 74.2369 72.5543 74.1049 72.391C69.5303 66.7379 64.9466 61.0903 60.3867 55.4262C59.8089 54.7091 59.3008 53.9222 58.8423 53.1224C57.4978 50.7746 57.3235 48.1792 57.2648 45.5471C57.1493 40.4222 56.9823 35.3011 56.8338 30.1762C56.8283 30.0148 56.7897 29.8534 56.7659 29.6902C50.48 29.692 44.2399 29.692 37.9504 29.692ZM38.4108 51.8843C37.5487 53.9313 36.5857 55.9563 35.8373 58.0565C34.9679 60.4961 36.1913 63.5867 38.541 64.6781C40.7622 65.7089 43.1174 66.45 45.4047 67.3157C48.2459 61.2811 44.8801 53.7754 38.4108 51.8843ZM67.9419 86.5476C73.2245 86.4101 77.2157 81.5035 76.1482 76.3768C76.0217 75.7642 75.7612 75.5588 75.1339 75.5569C69.7743 75.5312 65.0181 79.6876 64.3248 85.0161C64.2697 85.4343 64.367 85.6672 64.776 85.7663C65.8307 86.0249 66.8854 86.2872 67.9419 86.5476ZM45.7495 27.0269C45.7495 23.5235 45.7495 20.0953 45.7495 16.6671C44.5389 16.6671 43.3815 16.6671 42.1984 16.6671C42.4112 20.1558 42.6203 23.5803 42.8313 27.0269C43.8401 27.0269 44.7645 27.0269 45.7495 27.0269ZM48.4202 16.6359C48.4202 20.1522 48.4202 23.5785 48.4202 26.9975C49.4877 26.9975 50.5002 26.9975 51.4998 26.9975C51.4998 23.5125 51.4998 20.0843 51.4998 16.6359C50.4561 16.6359 49.4602 16.6359 48.4202 16.6359ZM40.2303 27.0122C40.0175 23.5308 39.8084 20.0935 39.5993 16.6579C38.7006 16.6579 37.9082 16.6579 37.0699 16.6579C37.29 20.1375 37.5083 23.5602 37.7266 27.0122C38.5813 27.0122 39.3756 27.0122 40.2303 27.0122ZM56.4669 16.6561C55.647 16.6561 54.9298 16.6561 54.1906 16.6561C54.1906 20.1283 54.1906 23.551 54.1906 26.9902C55.0601 26.9902 55.891 26.9902 56.7494 26.9902C56.654 23.5253 56.5623 20.1228 56.4669 16.6561Z" fill="black"/>
</svg>
