<svg width="120" height="100" viewBox="0 0 120 100" fill="none" xmlns="http://www.w3.org/2000/svg">
<rect width="120" height="100" fill="white"/>
<path d="M33.338 50.0095C36.5667 49.5857 39.6 49.1894 42.6357 48.7906C46.2071 48.322 49.781 47.8783 53.3448 47.3599C54.0936 47.2502 54.8931 47.0009 55.5125 46.5872C61.7668 42.4171 67.9907 38.2022 74.2222 33.9972C77.1056 32.0505 80.2557 32.2848 83.0909 34.3113C85.9236 36.3377 88.9467 38.1075 91.8861 39.9943C92.6806 40.5028 93.4395 41.0736 94.2695 41.5148C94.6401 41.7117 95.1605 41.7541 95.5945 41.7042C98.2293 41.3902 100.859 41.0287 103.491 40.6873C103.577 40.6748 103.671 40.7147 104.027 40.777C103.118 42.8483 102.357 44.9122 101.339 46.8464C97.6708 53.8181 92.6069 59.541 85.5277 63.3771C80.8471 65.9145 75.806 67.2879 70.4731 67.3079C53.6316 67.3702 36.7875 67.3328 19.9435 67.3378C18.8063 67.3378 17.8849 66.9465 17.3494 65.942C16.7554 64.8303 16.6945 63.6887 17.3824 62.5695C18.5424 60.6826 19.677 58.7783 20.8649 56.9114C21.4791 55.9493 21.9157 54.9747 21.9995 53.8081C22.101 52.3899 22.3726 50.9816 22.5909 49.4187C21.6924 49.4187 20.8852 49.4237 20.0806 49.4187C17.2681 49.3938 15.169 46.2257 16.2731 43.6958C16.8696 42.3274 17.4509 40.954 18.0195 39.5731C18.4865 38.4365 19.3546 37.6089 20.5374 37.5566C22.8371 37.4544 25.185 37.3522 27.4416 37.6987C31.2845 38.2894 34.1198 41.936 33.9472 45.7447C33.8837 47.1231 33.5614 48.4915 33.338 50.0095ZM26.0201 56.0963C26.1597 56.1088 26.2562 56.1337 26.345 56.1212C31.8531 55.3685 37.3637 54.6132 42.8718 53.853C44.1663 53.6735 45.2984 54.359 45.4786 55.4408C45.6715 56.6048 44.8212 57.6392 43.4911 57.8137C36.9145 58.6811 30.3327 59.5386 23.756 60.4134C23.5047 60.4458 23.1722 60.548 23.0478 60.7275C22.5097 61.5177 22.035 62.3502 21.4309 63.3397C21.9411 63.3397 22.2762 63.3397 22.6112 63.3397C37.9678 63.3397 53.3245 63.3721 68.6811 63.3073C71.194 63.2973 73.7526 63.068 76.2071 62.5571C83.9387 60.9419 89.8631 56.5874 94.4497 50.3858C95.5691 48.8704 96.5286 47.2402 97.6886 45.473C97.1327 45.5328 96.8865 45.5528 96.6428 45.5852C94.5132 45.8618 92.3811 46.146 90.2514 46.4202C85.1444 47.0832 80.0348 47.7412 74.9278 48.4018C69.9147 49.0498 64.899 49.6954 59.8859 50.3435C54.8094 51.0015 49.7353 51.662 44.6588 52.3176C39.1431 53.0305 33.6325 53.7807 28.1066 54.4188C26.9314 54.5559 26.4034 55.1267 26.0201 56.0963ZM63.8482 45.3783C63.8685 45.4356 63.8913 45.4929 63.9116 45.5503C71.9859 44.5283 80.0602 43.5064 88.3579 42.4545C87.9314 42.1529 87.6954 41.9709 87.4415 41.8114C85.0606 40.286 82.6696 38.7755 80.2963 37.24C78.9002 36.3377 77.5651 36.3303 76.1614 37.2625C72.3134 39.8149 68.4399 42.3299 64.5767 44.8598C64.3279 45.0218 64.0919 45.2063 63.8482 45.3783ZM24.9033 45.4231C26.2943 45.4231 27.6878 45.4107 29.0788 45.4281C29.7692 45.4381 29.9697 45.1988 29.787 44.5183C29.3402 42.8633 27.9315 41.6294 26.1141 41.5173C24.7916 41.435 23.459 41.4575 22.1315 41.4998C21.87 41.5073 21.5096 41.774 21.3827 42.0133C20.9486 42.8359 20.6161 43.7132 20.2049 44.5482C19.8623 45.2462 20.1415 45.4331 20.8243 45.4256C22.1823 45.4132 23.5428 45.4231 24.9033 45.4231ZM26.3349 50.4831C28.2437 50.5379 28.896 50.2712 28.8935 49.4461C28.1726 49.4461 27.4543 49.4461 26.6902 49.4461C26.5735 49.7901 26.4593 50.1266 26.3349 50.4831Z" fill="black"/>
</svg>
