<svg width="120" height="100" viewBox="0 0 120 100" fill="none" xmlns="http://www.w3.org/2000/svg">
<rect width="120" height="100" fill="white"/>
<g clip-path="url(#clip0_87_371)">
<path d="M72.4123 58.1084C72.862 61.6772 72.4312 64.9121 70.8296 67.9258C68.8224 71.7013 65.8357 74.2642 61.4681 74.8987C58.143 75.3808 55.1543 74.4395 52.6363 72.2794C48.481 68.7168 47.0181 64.0898 47.4952 58.7616C47.5058 58.6322 47.5226 58.5049 47.5331 58.3755C47.5352 58.3526 47.5163 58.3275 47.4175 58.0708C46.2594 59.5568 45.0929 60.8862 44.1134 62.3388C40.9544 67.0159 39.1826 72.246 38.283 77.76C37.8269 80.5525 37.6314 83.3867 37.3288 86.2042C37.2426 87.0139 36.7844 87.5023 36.0551 87.4981C35.3236 87.4919 34.7835 86.9743 34.8192 86.1833C35.2185 77.2883 36.9147 68.746 41.8603 61.1096C43.6615 58.3275 45.8853 55.917 48.5546 53.9218C48.7416 53.7819 48.9602 53.6358 49.059 53.4417C50.1246 51.3276 51.6421 49.6016 53.559 48.245C53.3173 47.5166 52.9305 47.3831 52.2327 47.6335C50.2423 48.3473 48.2183 48.9734 46.2194 49.6705C45.8768 49.7894 45.5258 50.0378 45.301 50.3216C44.2669 51.6323 43.3147 53.0097 42.2449 54.2912C41.9423 54.6543 41.3411 54.9653 40.8724 54.9695C36.3872 55.0196 31.9019 55.0029 27.4166 54.9966C26.5338 54.9945 26.0126 54.5312 25.9979 53.7799C25.9811 52.9889 26.5107 52.5214 27.4397 52.5047C27.5974 52.5026 27.755 52.5047 27.9126 52.5047C31.7421 52.5047 35.5717 52.4859 39.4012 52.5214C40.1515 52.5276 40.6517 52.3544 41.0868 51.7053C41.8414 50.5804 42.6611 49.491 43.5438 48.4642C43.9411 48.0008 44.5086 47.5876 45.0824 47.381C47.2914 46.5858 49.534 45.8825 51.7682 45.1416C51.7451 44.2859 51.3731 43.856 50.5471 43.5909C45.7444 42.0528 40.9628 40.4436 36.1686 38.8784C35.4771 38.653 35.0147 38.2794 34.6847 37.6157C32.3538 32.9365 29.9913 28.2699 27.6394 23.597C27.57 23.4572 27.4944 23.3194 27.4313 23.1775C27.0782 22.3949 27.2779 21.7041 27.9505 21.3743C28.6231 21.0446 29.3167 21.2888 29.7076 22.0568C31.2545 25.0976 32.7825 28.1468 34.3169 31.1918C35.1135 32.7717 35.8932 34.362 36.715 35.9294C36.8559 36.1965 37.127 36.4866 37.4023 36.5784C41.8834 38.0915 46.3729 39.5754 50.8624 41.0635C50.9338 41.0865 51.0158 41.0739 51.0683 41.0781C51.2386 40.1264 51.434 39.1914 51.5496 38.2481C51.5728 38.054 51.3395 37.7597 51.144 37.6199C49.3427 36.3176 47.5331 35.0257 45.7087 33.7588C45.2001 33.4061 44.9205 32.9908 44.8386 32.3668C44.2942 28.2177 43.7225 24.0708 43.1613 19.9238C42.9175 18.1206 42.6674 16.3174 42.4341 14.5142C42.3878 14.1552 42.329 13.7712 42.4131 13.431C42.556 12.8446 42.9869 12.5065 43.6195 12.5127C44.3257 12.5211 44.7608 12.9051 44.8659 13.5771C45.0992 15.0923 45.2946 16.6138 45.4985 18.1352C46.087 22.541 46.665 26.9488 47.2703 31.3546C47.304 31.6008 47.4952 31.8909 47.7012 32.0412C49.328 33.2246 50.9758 34.3808 52.6111 35.5391C53.2857 34.794 53.9667 34.0865 54.5826 33.3289C54.7066 33.1766 54.6435 32.8071 54.5636 32.5713C53.8112 30.3173 53.9352 28.1196 54.9504 25.97C55.3665 25.0893 56.037 24.7783 56.7621 25.1227C57.4578 25.4524 57.6722 26.1349 57.275 26.9906C56.6255 28.391 56.4721 29.8289 56.8462 31.3233C56.8819 31.4673 56.9681 31.6008 57.0543 31.7949C59.0132 31.0958 60.9595 31.0415 62.9436 31.82C63.5258 30.3006 63.4333 28.8689 62.8952 27.4372C62.8133 27.218 62.7061 27.0073 62.6283 26.7881C62.3614 26.0472 62.6283 25.3814 63.2988 25.106C63.9314 24.8451 64.5935 25.0893 64.9361 25.7717C66.0269 27.9464 66.2056 30.2025 65.4216 32.5066C65.2598 32.9825 65.264 33.2642 65.6675 33.6378C66.275 34.1992 66.7689 34.8817 67.3511 35.5579C69.0304 34.3662 70.7413 33.1724 72.4186 31.9327C72.6224 31.7824 72.7002 31.3963 72.7401 31.1062C73.5304 25.3376 74.3039 19.5649 75.0921 13.7963C75.2182 12.8738 75.7646 12.4188 76.5381 12.519C77.3116 12.6192 77.7193 13.2432 77.5932 14.2262C77.2317 17.0103 76.8555 19.7923 76.4772 22.5765C76.0316 25.8489 75.5671 29.1173 75.1404 32.3897C75.0584 33.0179 74.7621 33.4228 74.2577 33.7734C72.4333 35.0445 70.6362 36.3509 68.8118 37.6199C68.465 37.862 68.3516 38.0644 68.4566 38.5027C68.6563 39.3312 68.753 40.1869 68.9085 41.1386C69.6883 40.8798 70.4891 40.6106 71.292 40.3456C74.9912 39.1267 78.6946 37.9225 82.3812 36.6724C82.7448 36.5492 83.1252 36.1923 83.3018 35.8438C85.5759 31.3942 87.8143 26.9259 90.0633 22.4638C90.181 22.2321 90.284 21.9858 90.4416 21.7813C90.862 21.2303 91.4211 21.0947 92.0411 21.3931C92.6464 21.6832 92.8209 22.2133 92.6842 22.8353C92.6296 23.0836 92.4867 23.3153 92.369 23.5469C90.0171 28.2198 87.6525 32.8885 85.3216 37.5719C84.9664 38.2856 84.4662 38.6738 83.7158 38.9159C78.9699 40.4583 74.2429 42.0528 69.4949 43.5867C68.7089 43.8413 68.2086 44.1982 68.2149 45.1353C70.2453 45.8115 72.3093 46.542 74.4027 47.1764C75.4284 47.4874 76.2165 47.982 76.8135 48.8878C77.5155 49.9522 78.3583 50.9248 79.1002 51.9662C79.3882 52.3711 79.695 52.5234 80.2016 52.5214C84.2938 52.5005 88.386 52.5172 92.4762 52.5026C93.1887 52.5005 93.7225 52.7175 93.9411 53.4167C94.2102 54.2724 93.5649 55.0008 92.5434 55.0029C89.4475 55.0091 86.3536 55.0049 83.2576 55.0049C81.8935 55.0049 80.5295 54.9799 79.1654 55.0154C78.4886 55.0321 78.0304 54.7733 77.6437 54.2453C76.6873 52.9409 75.7205 51.6427 74.7137 50.378C74.4573 50.0545 74.0622 49.7706 73.6712 49.6329C71.6976 48.9421 69.6946 48.3368 67.7273 47.6335C67.061 47.3956 66.6953 47.5292 66.4221 48.2033C66.5755 48.3327 66.7626 48.4621 66.9139 48.6249C67.9963 49.7832 69.2154 50.8517 70.1045 52.1415C70.8275 53.1892 71.6304 54.0658 72.5972 54.8755C76.9774 58.5404 79.8611 63.2321 81.8452 68.506C83.6906 73.4106 84.6448 78.5051 85.0126 83.7185C85.0694 84.5241 85.1408 85.3276 85.1598 86.1332C85.1787 86.9513 84.7037 87.4689 83.9785 87.5044C83.2156 87.542 82.7006 87.0473 82.6523 86.1896C82.3475 80.7966 81.6098 75.4809 79.8106 70.3552C78.3415 66.1665 76.288 62.3013 73.2572 58.9975C73.0323 58.7428 72.7969 58.507 72.4123 58.1084ZM49.9039 60.3833C49.9796 63.5138 50.7299 66.2019 52.5144 68.5499C56.4006 73.6673 63.1159 73.8447 67.1871 68.8733C69.7303 65.7699 70.4996 62.1468 69.827 58.2399C69.2679 54.9862 67.7315 52.2834 64.9802 50.33C64.5767 50.044 64.2719 50.0107 63.7948 50.2674C61.3168 51.5905 58.782 51.6385 56.2934 50.3091C55.7344 50.0107 55.3686 50.0607 54.9041 50.4009C51.4467 52.9429 50.0889 56.4888 49.9039 60.3833ZM66.2834 41.3995C66.2876 39.6047 65.739 37.7994 64.8289 36.4908C62.3761 32.9553 57.9139 32.8552 55.3098 36.28C53.0167 39.2937 53.2059 43.929 55.7365 46.7507C58.0926 49.3762 61.8527 49.3908 64.2236 46.7736C65.6381 45.2084 66.2077 43.3279 66.2834 41.3995Z" fill="black"/>
</g>
<defs>
<clipPath id="clip0_87_371">
<rect width="68" height="75" fill="white" transform="translate(26 12.5)"/>
</clipPath>
</defs>
</svg>
