<svg width="120" height="100" viewBox="0 0 120 100" fill="none" xmlns="http://www.w3.org/2000/svg">
<rect width="120" height="100" fill="white"/>
<path d="M61.2504 10.4756C62.4159 10.9956 63.6843 11.3638 64.7258 12.0648C67.3885 13.8559 68.932 16.5185 69.8916 19.4786C71.8278 25.4487 71.664 31.3668 69.0517 37.131C68.029 39.3901 66.5591 41.3267 64.4465 42.7371C64.2239 42.8848 64.0328 43.2676 64.0391 43.5338C64.2092 49.2127 64.4108 54.8916 64.6082 60.5705C64.7825 65.5816 64.9568 70.5907 65.1353 75.6019C65.2256 78.1709 65.3054 80.742 65.4209 83.3089C65.5091 85.2643 65.0156 86.9784 63.4344 88.2577C61.8069 89.5745 59.959 89.8719 58.0292 89.1168C56.135 88.3763 54.8499 86.9451 54.705 84.9148C54.5538 82.7972 54.7008 80.6546 54.7722 78.5224C54.9423 73.4614 55.1523 68.4003 55.3287 63.3371C55.5554 56.8116 55.757 50.284 55.9943 43.7564C56.0153 43.1968 55.841 42.891 55.3728 42.5832C53.2224 41.1749 51.7735 39.1509 50.8201 36.8481C48.0944 30.2623 48.0713 23.6535 51.1057 17.1384C52.246 14.69 53.907 12.6244 56.3975 11.3701C57.1451 10.9956 57.9704 10.7689 58.7578 10.4756C59.5894 10.4756 60.421 10.4756 61.2504 10.4756ZM61.431 43.979C61.2399 44.0019 61.116 44.0185 60.9922 44.0331C60.1753 44.1225 59.5558 43.7148 59.4235 43.0013C59.3038 42.3606 59.77 41.7781 60.5281 41.5514C61.242 41.3392 61.9875 41.1707 62.6406 40.8337C64.2827 39.985 65.4062 38.5955 66.2609 37.0124C68.8039 32.3112 69.1399 27.3209 68.0332 22.1974C67.4221 19.3684 66.2504 16.7827 64.0874 14.7379C61.7754 12.5558 58.8481 12.4122 56.3471 14.378C54.999 15.4368 54.0351 16.8097 53.3232 18.3407C51.0343 23.2687 50.8285 28.3672 52.3027 33.5261C53.2182 36.7316 54.7491 39.5773 57.9389 41.2103C58.2643 41.3767 58.4953 41.9321 58.5646 42.3398C58.6612 42.9118 58.5709 43.5172 58.5499 44.1079C58.3546 49.6828 58.1594 55.2577 57.9599 60.8326C57.7751 65.9706 57.5777 71.1087 57.395 76.2467C57.3047 78.7908 57.2249 81.3349 57.164 83.8789C57.1262 85.4328 57.9557 86.5727 59.2933 86.8869C61.2714 87.3528 62.9094 85.9778 62.8443 83.8415C62.7057 79.2172 62.5251 74.593 62.3676 69.9688C62.0904 61.7978 61.8174 53.6289 61.5381 45.458C61.5213 44.9775 61.4688 44.4969 61.431 43.979Z" fill="black"/>
<path d="M59.8476 14.8157C61.9433 14.9717 63.5665 16.1741 64.7068 17.9464C65.4901 19.1633 66.0339 20.5404 66.603 21.88C66.9285 22.6476 66.5736 23.3361 65.8848 23.5878C65.173 23.8479 64.5661 23.4755 64.2007 22.6497C63.703 21.5285 63.2284 20.3885 62.6027 19.338C61.9034 18.1627 60.8282 17.443 59.4066 17.2662C58.5792 17.1622 58.1991 16.6379 58.2789 15.8974C58.3545 15.2005 58.9005 14.7887 59.8476 14.8157Z" fill="black"/>
<path d="M67.4725 27.3632C67.4746 28.3908 67.1071 28.9255 66.3511 28.9962C65.4671 29.0794 65.0009 28.5614 64.9337 27.4173C64.8602 26.1817 65.2886 25.4994 66.1558 25.4786C67 25.4557 67.4704 26.1297 67.4725 27.3632Z" fill="black"/>
</svg>
