<svg width="120" height="100" viewBox="0 0 120 100" fill="none" xmlns="http://www.w3.org/2000/svg">
<rect width="120" height="100" fill="white"/>
<path d="M96.2495 19.8296C96.2495 39.9442 96.2495 60.0588 96.2495 80.1734C95.6157 81.7633 94.4091 82.2872 92.7372 82.2852C70.9097 82.2589 49.0823 82.269 27.2527 82.2629C26.5011 82.2629 25.7495 82.1962 25.0182 82.1618C24.8902 81.9393 24.8171 81.7067 24.6607 81.559C23.9842 80.9117 23.7506 80.1289 23.7506 79.2105C23.7608 59.7311 23.7567 40.2517 23.7628 20.7723C23.7628 20.4243 23.775 20.0623 23.8704 19.7305C24.2544 18.3813 25.2823 17.734 26.9805 17.734C48.9035 17.734 70.8244 17.7421 92.7474 17.7158C94.4151 17.7138 95.636 18.2134 96.2495 19.8296ZM93.8606 41.4027C87.937 41.4027 82.054 41.4027 76.1325 41.4027C76.1325 44.273 76.1325 47.1008 76.1325 49.9651C82.054 49.9651 87.939 49.9651 93.8606 49.9651C93.8606 47.1008 93.8606 44.273 93.8606 41.4027ZM56.3628 49.9469C62.1909 49.9469 67.952 49.9469 73.6887 49.9469C73.6887 47.0604 73.6887 44.2305 73.6887 41.3946C67.8931 41.3946 62.1483 41.3946 56.3628 41.3946C56.3628 44.2588 56.3628 47.0887 56.3628 49.9469ZM93.8606 30.5787C87.9289 30.5787 82.05 30.5787 76.1345 30.5787C76.1345 33.3924 76.1345 36.1677 76.1345 38.9733C82.0601 38.9733 87.939 38.9733 93.8606 38.9733C93.8606 36.1758 93.8606 33.4147 93.8606 30.5787ZM36.8288 41.3986C36.8288 44.3074 36.8288 47.1352 36.8288 49.9631C42.5574 49.9631 48.2352 49.9631 53.9353 49.9631C53.9353 47.0948 53.9353 44.2649 53.9353 41.3986C48.2128 41.3986 42.5371 41.3986 36.8288 41.3986ZM36.8065 38.9531C42.5614 38.9531 48.2514 38.9531 53.9414 38.9531C53.9414 36.1353 53.9414 33.3742 53.9414 30.5848C48.2108 30.5848 42.5208 30.5848 36.8065 30.5848C36.8065 33.3904 36.8065 36.1515 36.8065 38.9531ZM76.1325 28.1352C82.0703 28.1352 87.9654 28.1352 93.9012 28.1352C93.9012 25.7261 93.9032 23.3796 93.9012 21.0332C93.9012 20.1068 93.887 20.0946 92.9485 20.0946C87.5977 20.0946 82.247 20.0946 76.8983 20.0946C76.6485 20.0946 76.3966 20.0946 76.1345 20.0946C76.1325 22.8335 76.1325 25.4752 76.1325 28.1352ZM73.7192 20.1513C67.887 20.1513 62.1239 20.1513 56.3669 20.1513C56.3669 22.8517 56.3669 25.4955 56.3669 28.1392C62.1747 28.1392 67.9357 28.1392 73.7192 28.1392C73.7192 25.453 73.7192 22.8274 73.7192 20.1513ZM93.8748 52.3823C87.9329 52.3823 82.054 52.3823 76.1467 52.3823C76.1467 55.0362 76.1467 57.6456 76.1467 60.257C82.0845 60.257 87.9675 60.257 93.8748 60.257C93.8748 57.6315 93.8748 55.0524 93.8748 52.3823ZM36.8024 28.1372C42.5574 28.1372 48.2473 28.1372 53.9292 28.1372C53.9292 25.4348 53.9292 22.793 53.9292 20.1533C48.1864 20.1533 42.4985 20.1533 36.8024 20.1533C36.8024 22.8375 36.8024 25.4611 36.8024 28.1372ZM73.707 52.3965C67.887 52.3965 62.128 52.3965 56.3608 52.3965C56.3608 55.0484 56.3608 57.6436 56.3608 60.2672C62.1584 60.2672 67.9154 60.2672 73.707 60.2672C73.707 57.6355 73.707 55.0403 73.707 52.3965ZM36.8349 52.3621C36.8349 55.0504 36.8349 57.6638 36.8349 60.2631C42.5655 60.2631 48.2412 60.2631 53.917 60.2631C53.917 57.6072 53.917 54.9958 53.917 52.3621C48.1945 52.3621 42.5371 52.3621 36.8349 52.3621ZM76.1325 70.1404C82.0703 70.1404 87.9654 70.1404 93.8443 70.1404C93.8443 67.6261 93.8443 65.1744 93.8443 62.7188C87.9085 62.7188 82.0297 62.7188 76.1325 62.7188C76.1325 65.2169 76.1325 67.6685 76.1325 70.1404ZM56.3445 70.1485C62.1686 70.1485 67.9317 70.1485 73.6968 70.1485C73.6968 67.6382 73.6968 65.1845 73.6968 62.7228C67.8931 62.7228 62.13 62.7228 56.3445 62.7228C56.3445 65.2108 56.3445 67.6483 56.3445 70.1485ZM76.1406 79.8214C76.3214 79.8396 76.4575 79.8639 76.5956 79.8639C82.1353 79.8659 87.6729 79.8599 93.2126 79.876C93.7407 79.8781 93.9134 79.696 93.9093 79.1822C93.891 77.117 93.9012 75.0517 93.8971 72.9864C93.8971 72.855 93.8585 72.7255 93.8403 72.6001C87.9085 72.6001 82.0276 72.6001 76.1406 72.6001C76.1406 75.0274 76.1406 77.4082 76.1406 79.8214ZM36.8166 70.1404C42.5614 70.1404 48.2514 70.1404 53.9251 70.1404C53.9251 67.6261 53.9251 65.1744 53.9251 62.7046C48.1966 62.7046 42.5249 62.7046 36.8166 62.7046C36.8166 65.1906 36.8166 67.6443 36.8166 70.1404ZM73.7049 72.592C67.8768 72.592 62.13 72.592 56.3831 72.592C56.3831 75.0315 56.3831 77.4285 56.3831 79.8214C62.1889 79.8214 67.9337 79.8214 73.7049 79.8214C73.7049 77.3921 73.7049 75.0092 73.7049 72.592ZM36.839 72.5799C36.839 74.991 36.839 77.4082 36.839 79.8113C36.9426 79.8356 36.9872 79.8558 37.034 79.8558C42.5086 79.8599 47.9833 79.8578 53.4579 79.874C53.9373 79.876 53.9881 79.6495 53.9881 79.2692C53.9779 77.1776 53.984 75.0861 53.98 72.9945C53.98 72.863 53.9475 72.7316 53.9272 72.5799C48.2148 72.5799 42.5553 72.5799 36.839 72.5799ZM56.373 30.5747C56.373 33.4106 56.373 36.1899 56.373 38.9531C62.1869 38.9531 67.95 38.9531 73.7029 38.9531C73.7029 36.1333 73.7029 33.3702 73.7029 30.5747C67.9175 30.5747 62.1726 30.5747 56.373 30.5747ZM26.1436 49.9489C28.9226 49.9489 31.6609 49.9489 34.385 49.9489C34.385 47.0685 34.385 44.2447 34.385 41.4087C31.6081 41.4087 28.8901 41.4087 26.1436 41.4087C26.1436 44.2831 26.1436 47.1089 26.1436 49.9489ZM34.385 38.9854C34.385 36.1434 34.385 33.3661 34.385 30.5888C31.604 30.5888 28.8819 30.5888 26.1619 30.5888C26.1619 33.4106 26.1619 36.1879 26.1619 38.9854C28.9205 38.9854 31.6243 38.9854 34.385 38.9854ZM34.4155 52.3823C31.6304 52.3823 28.9083 52.3823 26.1598 52.3823C26.1598 55.0362 26.1598 57.6456 26.1598 60.257C28.9408 60.257 31.665 60.257 34.4155 60.257C34.4155 57.6315 34.4155 55.0524 34.4155 52.3823ZM26.1456 70.1404C28.9266 70.1404 31.6629 70.1404 34.387 70.1404C34.387 67.6261 34.387 65.1765 34.387 62.7168C31.6101 62.7168 28.888 62.7168 26.1456 62.7168C26.1456 65.2149 26.1456 67.6665 26.1456 70.1404ZM26.1091 72.5778C26.1091 74.8939 26.1091 77.1433 26.1091 79.3926C26.1091 79.8841 26.4483 79.868 26.7936 79.868C28.3964 79.8639 29.9992 79.8659 31.602 79.8659C32.5161 79.8659 33.4303 79.8659 34.385 79.8659C34.385 77.3921 34.385 74.9971 34.385 72.5778C31.6243 72.5778 28.9205 72.5778 26.1091 72.5778Z" fill="black"/>
<path d="M71.9964 36.8572C67.31 36.8572 62.719 36.8572 58.0752 36.8572C58.0752 35.2854 58.0752 33.7279 58.0752 32.0894C58.2844 32.0753 58.5079 32.0449 58.7313 32.0449C62.9038 32.0429 67.0764 32.053 71.2489 32.0308C71.8238 32.0288 72.0289 32.1724 72.0086 32.7711C71.966 34.1041 71.9964 35.4412 71.9964 36.8572Z" fill="black"/>
</svg>
