<svg width="120" height="100" viewBox="0 0 120 100" fill="none" xmlns="http://www.w3.org/2000/svg">
<rect width="120" height="100" fill="white"/>
<path d="M93.1937 12.09C94.1322 12.6303 94.3235 13.3826 94.1296 14.4529C93.1188 19.9622 90.5955 24.7139 87.0511 28.9745C86.3712 29.794 85.531 29.9 84.6184 29.3028C83.7937 28.7625 82.9871 28.1963 82.0874 27.5862C81.9374 27.8576 81.7978 28.1032 81.666 28.3514C78.9721 33.3643 76.361 38.4263 73.5534 43.3745C71.5291 46.9448 68.9981 50.1764 66.0535 53.059C65.9319 53.1779 65.8182 53.3072 65.7044 53.4287C66.5576 55.2461 67.4573 57.0222 68.238 58.8474C69.7478 62.3686 70.6837 66.0112 70.5493 69.8969C70.3192 76.5256 65.1667 82.358 58.6156 83.3171C55.0143 83.8445 51.5345 83.3171 48.1607 82.0477C47.4808 81.7918 47.1912 81.9211 46.8215 82.5053C45.4203 84.708 43.5098 86.3548 41.0693 87.301C37.7756 88.5756 34.8232 87.7845 32.1707 85.618C29.9164 83.7773 28.3057 81.4221 26.9692 78.8653C26.6046 78.1672 26.2763 77.4485 25.9376 76.7376C25.6765 76.1843 25.7877 75.6905 26.3125 75.3958C26.8735 75.0778 27.2199 75.4242 27.494 75.9077C28.8693 78.3223 30.4903 80.5483 32.5999 82.3864C33.7995 83.4309 35.0999 84.3073 36.6562 84.7468C38.7244 85.3311 40.5988 84.8838 42.1706 83.4852C43.1142 82.6475 43.8691 81.5979 44.6809 80.6801C43.2358 79.6538 41.8138 78.8291 40.6169 77.7562C37.4163 74.8865 34.6423 71.6627 33.0937 67.5598C32.8688 66.9678 32.7033 66.3292 32.6516 65.6984C32.4344 63.0614 33.6935 61.3836 36.3899 60.6364C38.6908 60.0005 40.8883 60.3908 43.0031 61.3758C45.7952 62.6814 48.0289 64.6023 49.2595 67.4848C50.1721 69.6229 50.2936 71.9031 50.0118 74.1756C49.805 75.8508 49.3758 77.5002 49.0139 79.3254C50.0738 79.5788 51.2424 79.9226 52.4368 80.1295C55.2444 80.6207 58.0365 80.6 60.7588 79.6253C64.2593 78.3715 66.4309 75.9025 67.3125 72.309C68.3569 68.0458 67.7029 63.9301 66.069 59.9384C65.4201 58.3536 64.6109 56.8309 63.8637 55.2539C62.8063 55.9209 61.9041 56.562 60.9398 57.0894C57.5737 58.9327 54.081 59.1473 50.5392 57.6763C45.821 55.7141 42.3283 52.4721 40.4178 47.6635C39.818 46.1563 39.5414 44.5947 39.8361 42.9583C40.1386 41.2701 41.0951 40.0757 42.5791 39.3208C45.516 37.8239 48.5537 37.7955 51.6095 38.9097C54.4507 39.949 56.8292 41.7199 58.8121 43.9562C60.7045 46.089 62.4289 48.3744 64.298 50.6753C64.9961 49.8687 65.8828 49.0078 66.5757 48.0125C68.3078 45.5254 70.0839 43.0539 71.5989 40.435C74.3341 35.6988 76.8884 30.8566 79.5305 26.066C79.7193 25.7222 79.7529 25.4869 79.4607 25.1612C79.0781 24.732 78.8222 24.1917 78.4421 23.7548C78.3051 23.5971 77.9613 23.5221 77.7338 23.5531C76.953 23.6565 76.4515 23.3075 76.1205 22.656C75.7819 21.9865 75.8724 21.2626 76.5083 20.7946C77.757 19.8794 79.0109 18.9384 80.3682 18.2094C84.2719 16.1153 88.2274 14.122 92.1622 12.0874C92.5009 12.09 92.8473 12.09 93.1937 12.09ZM62.3151 52.803C59.6704 49.0156 56.93 45.6004 53.3675 42.9505C51.4725 41.5389 49.3189 40.8228 46.912 41.1124C44.637 41.3864 43.2021 42.904 43.0832 45.1842C42.9979 46.8336 43.5305 48.3227 44.5387 49.5818C46.607 52.1645 49.1716 54.1474 52.2429 55.4012C54.2413 56.2156 56.3121 56.2932 58.2666 55.2952C59.6368 54.5946 60.901 53.682 62.3151 52.803ZM46.0589 77.9423C47.0439 75.3002 47.5997 72.6399 47.0516 69.8788C46.8551 68.8887 46.4622 67.8675 45.9063 67.0324C43.9958 64.1679 40.9866 63.5009 37.8299 63.4363C36.1831 63.4027 35.6635 64.3308 36.0926 65.9828C36.9044 69.1239 38.6857 71.6963 40.8547 74.0334C42.3387 75.6311 44.0579 76.9315 46.0589 77.9423ZM85.1975 25.9626C87.0356 24.0081 89.6286 19.0366 89.8691 16.8495C86.6504 18.685 83.4989 20.4818 80.1381 22.3975C81.4436 23.1602 82.5269 23.822 83.6385 24.4373C84.2849 24.7915 85.001 25.0345 85.1975 25.9626Z" fill="black"/>
</svg>
