<svg width="120" height="100" viewBox="0 0 120 100" fill="none" xmlns="http://www.w3.org/2000/svg">
<rect width="120" height="100" fill="white"/>
<path d="M45.4411 26.7588C45.5532 25.5208 45.6141 24.3146 45.7749 23.123C46.6082 17.0064 49.8266 12.5007 55.138 9.45702C58.2322 7.68542 61.5919 6.68631 65.1174 6.2428C66.9934 6.00642 67.6707 6.98848 66.9691 8.76495C65.8069 11.7014 66.1651 14.5452 67.6659 17.2672C69.2057 20.0574 71.5251 22.1068 74.1783 23.7687C77.4431 25.8133 80.8345 27.6628 84.0701 29.7537C89.3643 33.1775 94.0861 37.2568 97.6919 42.5033C101.176 47.5696 103.108 53.1792 103.615 59.2982C104.061 64.6788 103.72 69.979 102.002 75.1354C99.2561 83.3695 93.6232 88.7721 85.5636 91.7255C81.8042 93.1048 77.8987 93.7944 73.8835 93.792C63.4265 93.7847 52.972 93.7871 42.515 93.7774C40.2492 93.7749 38.3464 92.0862 38.1393 89.9393C37.9151 87.6072 39.3721 85.4774 41.6355 85.1216C42.8805 84.9267 44.1791 85.0875 45.7189 85.0875C41.4771 80.4161 39.8959 75.1061 40.7218 68.9677C39.3014 68.9677 37.9468 68.9677 36.5897 68.9677C35.7394 68.9677 34.8867 68.9555 34.0364 68.9701C32.862 68.9896 32.3285 69.5403 32.2797 70.7052C32.2456 71.4898 32.2944 72.3037 32.1019 73.0519C31.5464 75.2353 29.4608 76.5585 27.2389 76.2393C25.146 75.9395 23.5477 74.0924 23.5355 71.9212C23.5209 69.1846 23.5648 66.448 23.5209 63.7114C23.4893 61.8252 24.3396 60.5386 25.8306 59.442C27.4825 58.226 29.1076 56.9223 30.5134 55.4406C31.3028 54.6072 31.7437 53.3742 32.136 52.2484C32.5258 51.125 32.2335 50.4694 31.1298 50.06C29.6046 49.4947 28.0088 49.1072 26.4275 48.7149C24.4005 48.2105 22.3417 47.8328 20.3268 47.282C19.4984 47.0554 18.6969 46.6046 17.983 46.1099C16.2191 44.8915 16.0168 43.0809 16.3287 41.146C17.0864 36.4526 19.5374 32.6828 22.8266 29.3954C24.973 27.251 27.4386 25.5379 30.26 24.3901C30.8691 24.1416 30.93 23.7102 31.0177 23.1912C31.6926 19.2386 33.4273 15.9683 37.0136 13.8799C37.9005 13.3633 38.6387 13.4169 39.4111 14.1017C41.9376 16.3436 43.2971 19.1972 43.7527 22.4869C44.1157 25.0798 44.2546 25.6012 45.4411 26.7588ZM37.92 16.7213C37.3572 17.2428 36.8066 17.6741 36.351 18.1883C34.6528 20.1183 33.9633 22.4577 33.7733 24.9579C33.7026 25.8815 33.3103 26.3786 32.46 26.6856C28.1208 28.2599 24.7123 31.0501 22.1005 34.8223C20.6143 36.9668 19.5399 39.294 19.2012 41.9136C19.0501 43.0906 19.2889 43.6097 20.339 44.1214C20.8531 44.3724 21.3964 44.5966 21.9519 44.7233C23.633 45.1132 25.3263 45.4544 27.0171 45.8077C29.1222 46.2488 31.2613 46.5924 33.1203 47.7865C34.531 48.693 35.2765 49.9504 35.2107 51.6708C35.1376 53.5301 34.4433 55.1507 33.3834 56.6347C31.8217 58.8254 29.741 60.4362 27.5337 61.9203C27.0756 62.2273 26.5274 62.817 26.5104 63.2922C26.4154 66.1775 26.4397 69.0676 26.4763 71.9553C26.486 72.7497 27.1926 73.337 27.9137 73.3345C28.6325 73.3321 29.2684 72.7448 29.3536 71.948C29.3999 71.5264 29.3731 71.0975 29.3731 70.671C29.3804 67.8686 31.1882 66.0532 33.9828 66.0483C36.4411 66.0434 38.897 66.0483 41.3553 66.0483C41.4625 65.7656 41.5429 65.5366 41.633 65.3124C43.531 60.6165 46.7714 57.3974 51.8025 56.2619C55.652 55.3943 59.4041 56.0645 63.0879 57.2634C64.1526 57.6095 64.6179 58.3795 64.3158 59.2348C64.0259 60.0536 63.2438 60.329 62.201 60.0658C60.6759 59.6808 59.1531 59.2178 57.5987 59.0155C54.2974 58.5891 51.0765 58.8693 48.3307 61.0186C44.3642 64.1183 43.207 68.4194 43.4993 73.1883C43.8112 78.2741 46.2354 82.2291 50.4138 85.1143C51.0619 85.5603 51.4176 86.1183 51.1934 86.8859C50.9547 87.7023 50.3188 87.9557 49.4953 87.946C47.2148 87.9216 44.9368 87.9216 42.6563 87.946C41.6866 87.9557 41.0166 88.6185 41.0459 89.4422C41.0751 90.2391 41.7159 90.8093 42.6515 90.8605C42.8342 90.8702 43.0169 90.8629 43.1996 90.8629C52.743 90.8629 62.2863 90.8702 71.8321 90.841C72.3559 90.8385 72.9748 90.6338 73.3889 90.317C76.5977 87.868 78.9147 84.6952 80.5641 81.0423C82.752 76.2003 83.7728 71.1048 83.3318 65.7973C82.886 60.424 80.4082 55.9743 76.6878 52.1631C73.099 48.4883 68.8305 45.7736 64.2866 43.4659C61.1778 41.8868 57.9593 40.51 54.9187 38.8115C49.7097 35.9019 45.2486 32.0979 41.9084 27.0804C41.3602 26.2568 41.0361 25.4185 40.9874 24.3852C40.8656 21.5609 40.0543 18.9584 37.92 16.7213ZM63.6117 9.3961C62.2157 9.82255 60.9171 10.1393 59.6769 10.6097C54.7944 12.4592 51.0375 15.5029 49.3442 20.6447C48.4452 23.3739 48.4086 26.1788 48.5865 29.0226C48.6669 30.3044 49.2224 31.1159 50.158 31.9054C53.5982 34.815 57.4452 37.0228 61.5383 38.8602C66.5646 41.1168 71.3838 43.7339 75.6718 47.2406C80.0841 50.8496 83.556 55.1409 85.3053 60.6604C86.6575 64.9298 86.6526 69.2674 85.8925 73.6318C84.8351 79.7094 82.5157 85.2021 78.3275 89.8175C78.157 90.0051 78.0035 90.2122 77.7793 90.4876C78.0595 90.4876 78.213 90.5144 78.3567 90.4827C79.7504 90.1879 81.1635 89.9613 82.5278 89.5714C90.356 87.3294 96.118 82.7165 98.9637 74.9039C100.684 70.1812 101.076 65.2758 100.745 60.2778C100.223 52.453 97.2656 45.7176 91.9128 40.0104C87.4104 35.2122 81.9675 31.6958 76.315 28.4353C74.0614 27.134 71.7931 25.7816 69.7855 24.144C65.2222 20.4205 62.5226 15.7831 63.6117 9.3961Z" fill="black"/>
<path d="M29.366 36.8499C28.5498 36.8474 27.9285 36.2285 27.9187 35.4121C27.909 34.5568 28.5668 33.9159 29.422 33.9427C30.2333 33.9671 30.8375 34.608 30.8229 35.4243C30.8107 36.2382 30.1797 36.8523 29.366 36.8499Z" fill="black"/>
</svg>
