<svg width="120" height="100" viewBox="0 0 120 100" fill="none" xmlns="http://www.w3.org/2000/svg">
<rect width="120" height="100" fill="white"/>
<path d="M35.2991 77.7688C35.5771 76.1288 35.8775 74.3078 36.1923 72.4889C36.8771 68.5259 37.5618 64.5609 38.2588 60.5999C38.3692 59.9659 38.1893 59.5065 37.7151 59.0513C33.7027 55.1899 29.6984 51.3184 25.7207 47.4204C23.6154 45.3576 23.4335 42.1588 25.222 39.8745C26.3442 38.4417 27.8854 37.8524 29.6453 37.6085C35.015 36.8647 40.3785 36.0781 45.7461 35.3221C46.343 35.2388 46.5924 34.8547 46.8274 34.3791C49.2741 29.4285 51.7147 24.4757 54.1901 19.5393C55.8294 16.2733 59.7703 15.2247 62.6585 17.3606C63.4986 17.9825 64.2017 18.9235 64.6821 19.8644C67.1308 24.6444 69.4978 29.4671 71.8628 34.2877C72.1878 34.9502 72.5905 35.253 73.3488 35.3587C78.9188 36.131 84.4888 36.9134 90.0445 37.7894C92.2561 38.1389 93.7667 39.5127 94.4494 41.6507C95.1402 43.8172 94.6742 45.7926 93.0574 47.39C89.6214 50.7859 86.1301 54.127 82.6614 57.4905C82.1136 58.0209 81.5883 58.5798 81.0057 59.0696C80.4927 59.5025 80.3803 59.9984 80.4906 60.6243C80.9873 63.4147 81.4677 66.2071 81.9501 68.9994C82.4243 71.741 82.9639 74.4745 83.3503 77.2303C83.6589 79.4313 82.8638 81.2949 81.0344 82.6057C79.2152 83.9084 77.1998 84.134 75.1864 83.1179C71.4642 81.238 67.7849 79.2768 64.0873 77.3481C62.8016 76.6775 61.5036 76.0312 60.2383 75.324C59.6394 74.9886 59.1448 74.9947 58.5336 75.3179C53.6341 77.905 48.7284 80.486 43.8002 83.0203C40.2702 84.8372 36.2598 82.9329 35.434 79.0919C35.3543 78.7261 35.3563 78.3419 35.2991 77.7688ZM40.2497 77.9599C40.2313 78.5777 40.7955 78.9699 41.4291 78.72C41.6172 78.6468 41.7971 78.5452 41.9769 78.4517C46.8233 75.9235 51.6698 73.3974 56.5141 70.861C58.4171 69.8652 60.314 69.8591 62.217 70.8407C63.1204 71.3061 64.0178 71.7837 64.9192 72.2552C68.9746 74.3749 73.0258 76.5007 77.0935 78.594C77.3796 78.7423 77.8681 78.7748 78.1257 78.6265C78.3444 78.5005 78.5059 78.0147 78.4568 77.7262C77.5493 72.3385 76.6336 66.9509 75.6586 61.5754C75.2354 59.2403 75.7914 57.2995 77.5227 55.6411C81.4329 51.8935 85.3146 48.1155 89.1839 44.3273C89.4762 44.0407 89.7644 43.5652 89.746 43.1932C89.7154 42.6018 89.0838 42.5795 88.6136 42.5104C83.5526 41.7767 78.4977 40.9638 73.4203 40.3582C70.4606 40.0046 68.4595 38.714 67.184 35.9826C64.9989 31.3043 62.6278 26.7092 60.3058 22.0959C60.1218 21.7321 59.6701 21.2139 59.4044 21.2464C59.0405 21.2931 58.6399 21.7443 58.4273 22.1203C57.8305 23.1791 57.3215 24.2847 56.7819 25.374C54.9014 29.1622 53.0106 32.9464 51.1465 36.7447C50.2164 38.6389 48.7345 39.7851 46.6516 40.1306C45.1452 40.3805 43.6306 40.5695 42.118 40.789C38.0871 41.3703 34.0563 41.9393 30.0316 42.5531C29.6596 42.61 29.0913 42.9026 29.0423 43.1648C28.9789 43.5042 29.259 44.0082 29.5431 44.2948C31.119 45.882 32.742 47.4245 34.3486 48.9813C36.6686 51.229 38.9865 53.4767 41.3085 55.7204C42.815 57.1755 43.5181 58.9091 43.1604 61.0064C42.5186 64.7723 41.8706 68.5361 41.2247 72.2999C40.9018 74.1676 40.5788 76.0373 40.2497 77.9599Z" fill="black"/>
</svg>
