<svg width="120" height="100" viewBox="0 0 120 100" fill="none" xmlns="http://www.w3.org/2000/svg">
<rect width="120" height="100" fill="white"/>
<path d="M21 64.0656C21.2545 65.1122 21.4405 66.1817 21.775 67.2024C23.883 73.6303 29.742 77.8805 36.5278 77.9422C44.1032 78.0121 50.8189 72.2326 51.9398 64.8587C53.0297 57.6896 49.0698 50.9203 42.8388 48.2402C42.7017 48.1817 42.5712 48.1053 42.3477 47.9931C42.749 46.7595 43.1488 45.5276 43.5501 44.294C43.6203 44.2387 43.6905 44.1835 43.7606 44.1266C43.8895 44.3411 43.9858 44.5865 44.1522 44.7653C49.4075 50.3888 54.6776 56.0009 59.9231 61.6341C60.4893 62.242 61.0978 62.5085 61.9234 62.4874C63.5713 62.4484 65.2225 62.476 66.8704 62.476C67.1412 62.476 67.4137 62.476 67.5801 62.476C67.9048 64.1062 68.0957 65.6648 68.533 67.1503C70.2217 72.899 75.632 77.1978 81.6101 77.8983C89.6604 78.841 97.9505 73.1558 98.9229 63.8656C99.7713 55.7555 93.5109 47.9818 85.4036 47.0651C82.9888 46.7921 80.6508 46.9952 78.3617 47.777C77.9472 47.9184 77.7351 47.8501 77.5279 47.4552C76.5816 45.643 75.5912 43.8519 74.658 42.0316C74.5405 41.8041 74.5682 41.3929 74.7004 41.1653C75.9893 38.9338 77.3256 36.7299 78.6227 34.5033C78.843 34.1262 79.091 33.9881 79.5233 33.9978C80.7666 34.0238 82.0099 34.032 83.2532 33.9995C85.2388 33.9474 86.8214 32.7057 87.2032 30.9472C87.5883 29.174 86.7252 27.3553 85.0626 26.606C84.5225 26.3623 83.896 26.2014 83.307 26.1949C79.9068 26.1558 76.5049 26.1185 73.108 26.1916C69.8986 26.2615 68.0664 29.4633 69.6637 32.0963C70.4729 33.429 71.7276 33.9783 73.2466 34.0027C74.0771 34.0173 74.9076 34.006 75.8327 34.006C75.6712 34.3115 75.5667 34.5309 75.4427 34.7406C74.4132 36.4796 73.3918 38.2252 72.3313 39.9447C72.1926 40.169 71.8435 40.3982 71.5906 40.3998C62.811 40.4226 54.0314 40.4177 45.2519 40.4161C45.1524 40.4161 45.0545 40.3933 44.8864 40.3706C44.9517 40.1121 44.9957 39.8732 45.0708 39.6441C46.7481 34.5439 48.4384 29.4487 50.0977 24.342C50.2772 23.7911 50.5317 23.6058 51.1142 23.6172C53.1178 23.6545 55.123 23.6448 57.1282 23.6237C58.13 23.6123 58.7435 23.0516 58.7027 22.2665C58.6652 21.5433 58.1039 21.0183 57.2473 21.0118C54.6841 20.9923 52.1225 21.0021 49.5593 21.0053C48.7223 21.0069 48.2981 21.4864 48.0517 22.2438C46.8655 25.8877 45.6581 29.5234 44.4573 33.1608C42.9171 37.827 41.3785 42.4916 39.835 47.1691C38.8577 47.0879 37.9081 46.9513 36.9569 46.9367C28.8593 46.8067 22.3151 52.3912 21.1501 60.3908C21.1338 60.5062 21.0555 60.6135 21.0065 60.7256C21 61.8405 21 62.9539 21 64.0656ZM38.9409 49.7988C38.8528 50.08 38.781 50.3157 38.7043 50.5497C37.6422 53.7824 36.5784 57.0151 35.5146 60.2478C35.1165 61.4586 35.3498 62.1591 36.2423 62.4338C37.0597 62.6857 37.6373 62.2387 38.0289 61.0425C38.4531 59.7488 38.8691 58.4518 39.295 57.1597C40.0194 54.964 40.7503 52.7698 41.478 50.5757C46.2863 52.2059 51.0114 58.3072 49.1367 65.7428C47.4072 72.6064 40.3082 76.6972 33.2206 74.9452C26.5604 73.2988 22.227 66.0695 23.9369 59.427C25.8132 52.1425 32.8404 48.5522 38.9409 49.7988ZM70.5203 62.476C70.8662 62.476 71.168 62.476 71.4698 62.476C75.2486 62.476 79.0273 62.4793 82.8077 62.4744C84.5715 62.4728 85.1099 61.5935 84.2908 60.0625C82.6609 57.0135 81.026 53.966 79.3961 50.917C79.2949 50.7269 79.2117 50.527 79.1187 50.3287C83.8927 48.4921 90.2624 49.8411 93.9482 54.912C97.1118 59.2677 97.4871 65.6291 93.4897 70.5943C90.0438 74.8737 83.9972 76.6095 78.5199 74.4284C73.121 72.2797 70.2054 66.7781 70.5203 62.476ZM61.0571 58.9914C56.0709 53.667 51.1713 48.4368 46.1884 43.1157C54.3512 43.1157 62.3607 43.1157 70.4697 43.1157C67.3158 48.4368 64.2174 53.6621 61.0571 58.9914ZM75.4379 49.0967C71.3703 51.6305 68.9262 55.2175 68.0207 59.7764C66.531 59.7764 65.1328 59.7764 63.6415 59.7764C66.7285 54.5739 69.7648 49.4575 72.8518 44.2566C73.7394 45.9209 74.5796 47.4925 75.4379 49.0967ZM81.1664 59.7959C77.6291 59.7959 74.1995 59.7959 70.6981 59.7959C71.54 56.1521 73.5126 53.407 76.6828 51.4144C78.1936 54.2375 79.662 56.9842 81.1664 59.7959ZM78.174 31.3519C76.5522 31.3519 74.9288 31.3584 73.307 31.3486C72.3019 31.3421 71.7293 30.887 71.7113 30.1134C71.6934 29.3381 72.2758 28.8343 73.2597 28.8311C76.5555 28.8213 79.8513 28.8213 83.1471 28.8311C84.1016 28.8343 84.64 29.2991 84.6531 30.0663C84.6677 30.8545 84.1081 31.3389 83.1177 31.347C81.4698 31.36 79.8219 31.3519 78.174 31.3519Z" fill="black"/>
</svg>
