<svg width="120" height="100" viewBox="0 0 120 100" fill="none" xmlns="http://www.w3.org/2000/svg">
<rect width="120" height="100" fill="white"/>
<path d="M22.6687 50.0429C22.6687 48.0362 22.6813 46.0295 22.6667 44.0207C22.6185 37.0969 26.5362 32.0378 33.1858 30.3466C37.0679 29.3602 40.994 29.3559 44.941 29.6247C52.5209 30.1391 59.8388 29.2734 66.6895 25.6516C69.5095 24.1635 72.409 22.8448 75.583 22.2521C78.7842 21.6552 81.977 21.7568 85.1782 22.1929C87.466 22.504 89.6909 23.0353 91.7419 24.153C95.4124 26.1533 97.254 29.2945 97.3021 33.473C97.3524 37.698 97.3419 41.9252 97.3063 46.1502C97.2728 50.244 95.7749 53.8784 93.6254 57.2504C88.7858 64.8432 82.0482 70.1922 73.9886 73.9282C68.927 76.2736 63.5826 77.4568 58.0454 77.9014C54.2576 78.2041 50.4782 78.3141 46.6988 77.876C39.5966 77.0504 33.0769 74.8596 28.0446 69.4174C24.5668 65.656 22.5451 61.2532 22.6687 55.9888C22.7148 54.0097 22.6771 52.0284 22.6771 50.0471C22.675 50.0429 22.6708 50.0429 22.6687 50.0429ZM52.4203 63.2387C52.4266 63.3043 52.4329 63.3699 52.4412 63.4376C55.9965 63.0672 59.5958 62.9402 63.0987 62.284C73.71 60.29 82.4714 54.9664 89.4123 46.637C92.096 43.4153 94.1386 39.8232 94.9096 35.5982C95.7644 30.9138 93.7699 27.1566 89.3389 25.5437C84.8472 23.9095 80.2067 23.6767 75.5243 24.5678C72.7505 25.0949 70.2385 26.3501 67.7517 27.6308C62.4827 30.3423 56.9162 31.8875 50.9936 31.932C47.7819 31.9574 44.5702 31.8092 41.3564 31.7394C38.3899 31.6759 35.4568 31.896 32.6264 32.8761C29.442 33.9768 26.9321 35.8797 25.7212 39.1692C24.6213 42.1622 24.5731 45.2506 25.5557 48.2542C27.303 53.6011 30.9483 57.3224 35.8549 59.8286C41.0631 62.4872 46.6736 63.2154 52.4203 63.2387ZM24.9041 52.5068C24.9041 54.0922 24.8958 55.4385 24.9062 56.7847C24.9272 59.6868 25.7987 62.3306 27.3155 64.7733C30.5817 70.0313 35.4463 73.0011 41.2391 74.5569C48.555 76.5212 55.9483 76.2228 63.3124 74.9316C70.9404 73.5938 77.6403 70.1456 83.5923 65.2009C87.6294 61.848 91.0108 57.9426 93.3509 53.1651C95.0374 49.719 95.2804 46.0824 95.0269 42.1665C94.6896 42.7676 94.4445 43.2248 94.1826 43.6715C93.904 44.1477 93.6275 44.6282 93.3174 45.0833C87.0847 54.2594 78.5369 60.2033 68.0827 63.4461C63.8885 64.7458 59.5518 65.1776 55.1878 65.4083C49.747 65.6941 44.3858 65.2919 39.165 63.6218C34.0573 61.9856 29.6955 59.2296 26.4608 54.8246C25.9559 54.1345 25.5054 53.4043 24.9041 52.5068Z" fill="black"/>
<path d="M45.1777 51.3595C43.4933 50.2715 41.9409 49.2491 40.3613 48.2754C40.1476 48.1441 39.7642 48.1695 39.5044 48.2606C37.6314 48.9146 35.7732 49.6047 33.9086 50.2778C33.0308 50.5932 32.4002 50.371 32.155 49.6767C31.9288 49.0353 32.2807 48.4807 33.1418 48.1632C34.3653 47.7102 35.5951 47.2763 36.8228 46.8296C37.0595 46.7429 37.2879 46.637 37.6273 46.4952C37.0888 46.1396 36.6468 45.8708 36.2278 45.5681C35.6412 45.1468 35.4945 44.5287 35.8297 43.9911C36.1586 43.4598 36.8018 43.3137 37.4115 43.6863C38.26 44.2049 39.077 44.7785 39.9297 45.2865C40.1392 45.4114 40.4786 45.477 40.6986 45.3987C43.3551 44.4631 46.0011 43.4979 48.7833 42.4903C48.4732 42.2744 48.2574 42.1157 48.0333 41.9696C45.9655 40.6339 43.8998 39.294 41.8257 37.969C41.3313 37.6536 40.9919 37.2133 41.2119 36.6629C41.3543 36.3094 41.7587 35.9348 42.1169 35.8353C42.4186 35.7506 42.8627 35.9898 43.1791 36.1888C45.6973 37.789 48.2114 39.3999 50.7023 41.0467C51.2345 41.3981 51.6807 41.4785 52.2862 41.2457C54.3519 40.4519 56.4385 39.7153 58.6844 38.894C57.7479 38.2822 56.933 37.7552 56.1222 37.2217C55.6194 36.8915 55.3114 36.4597 55.5356 35.8247C55.7933 35.0923 56.5475 34.8573 57.2807 35.3124C58.4812 36.0596 59.6502 36.8577 60.8507 37.6006C61.0853 37.7446 61.4519 37.8652 61.6866 37.7848C63.9513 37.0016 66.1993 36.1718 68.6128 35.2976C68.022 34.8997 67.538 34.5758 67.0562 34.2477C66.3774 33.7841 66.1783 33.1428 66.5324 32.5776C66.8907 32.0061 67.538 31.9151 68.2503 32.3638C69.1156 32.9057 69.9536 33.4963 70.8377 34.0001C71.1059 34.1546 71.529 34.2096 71.8203 34.1165C72.9369 33.7609 74.0284 33.3185 75.1346 32.9247C75.9621 32.6305 76.5739 32.8782 76.7981 33.5661C77.0117 34.2202 76.6954 34.743 75.8804 35.0542C75.2058 35.3103 74.5229 35.5495 73.6786 35.8543C74.7763 36.5655 75.8385 37.099 76.7101 37.8568C78.1514 39.1078 79.5384 39.1628 81.2395 38.3732C83.102 37.5075 85.0965 36.9233 87.0344 36.2248C87.9101 35.9094 88.5449 36.1422 88.7795 36.8407C88.9911 37.4736 88.6287 38.0409 87.7697 38.3542C85.6391 39.1332 83.5022 39.8973 81.2228 40.7186C82.4085 41.487 83.4959 42.1919 84.5832 42.8967C85.6286 43.5741 85.8947 44.171 85.4463 44.8314C85.0231 45.4559 84.3967 45.4432 83.3911 44.7933C81.9393 43.8556 80.4937 42.9094 79.0293 41.9929C78.8114 41.8553 78.4678 41.7389 78.2499 41.8151C75.9621 42.6152 73.689 43.4556 71.2818 44.3319C72.5347 45.1468 73.6848 45.8983 74.8371 46.6434C75.8469 47.2974 76.8672 47.9409 77.8728 48.6035C78.5265 49.0353 78.7066 49.6513 78.3777 50.2143C78.0195 50.8261 77.4035 50.9425 76.6849 50.4853C74.1918 48.8914 71.6987 47.2974 69.2266 45.6697C68.7783 45.3733 68.4095 45.35 67.9235 45.5321C65.994 46.256 64.0498 46.9418 62.114 47.6446C61.9275 47.7123 61.7494 47.8034 61.431 47.9431C62.5979 48.7009 63.7502 49.2872 64.7055 50.1064C66.1532 51.3489 67.582 51.5204 69.2245 50.5975C69.786 50.2821 70.4375 50.1191 71.0556 49.9137C71.7993 49.6682 72.3817 49.9095 72.6185 50.5276C72.8489 51.1309 72.5472 51.7278 71.8244 52.0136C71.0262 52.3268 70.2134 52.6041 69.3188 52.9301C69.5451 53.1439 69.7441 53.2984 69.9012 53.4868C70.2616 53.9229 70.3076 54.4118 69.9641 54.8669C69.6351 55.303 69.191 55.4914 68.6505 55.2395C68.485 55.1633 68.3048 55.0892 68.177 54.9664C67.119 53.9567 65.9961 53.9017 64.7223 54.5685C63.989 54.9516 63.1657 55.1675 62.3759 55.4385C61.5609 55.7157 61.0036 55.4998 60.748 54.8373C60.4966 54.1853 60.8004 53.6392 61.607 53.3344C62.4031 53.0317 63.2076 52.7502 64.1692 52.4009C63.0211 51.6537 61.9191 51.0885 61.0015 50.3032C59.4784 49.0035 58.0119 48.8871 56.1997 49.7486C54.3309 50.6398 52.3092 51.2028 50.2414 51.9501C52.2317 53.2392 54.1193 54.4626 56.007 55.6861C56.2919 55.8703 56.5999 56.0333 56.8492 56.2619C57.3247 56.6937 57.3855 57.2335 57.0168 57.7521C56.6732 58.2368 56.1683 58.3828 55.634 58.078C54.9993 57.7161 54.3896 57.3054 53.7737 56.9075C51.9007 55.703 50.0215 54.5134 48.1695 53.2773C47.7442 52.9936 47.3985 52.9703 46.9397 53.1418C44.7629 53.9525 42.5841 54.7547 40.3864 55.5041C40.0156 55.6311 39.4835 55.6078 39.1524 55.4215C38.8906 55.2755 38.6475 54.7293 38.7167 54.4393C38.8047 54.0753 39.1566 53.6371 39.5023 53.4953C41.1448 52.8285 42.825 52.2506 44.4906 51.6389C44.6854 51.5754 44.8719 51.4886 45.1777 51.3595ZM56.338 47.3525C55.435 46.7619 54.662 46.2433 53.8742 45.7459C52.9713 45.1744 52.0955 44.2642 51.136 44.1583C50.1786 44.0525 49.1311 44.7489 48.1276 45.1109C46.3614 45.7501 44.6016 46.4021 42.7077 47.0964C43.8872 47.8626 45.0143 48.4447 45.9634 49.2449C47.2623 50.3371 48.49 50.371 50.0047 49.7021C52.018 48.813 54.1277 48.159 56.338 47.3525ZM76.1926 40.1534C74.4558 39.0358 72.8594 38.0007 71.2525 36.9825C71.1226 36.9 70.8963 36.8704 70.7539 36.9212C68.4535 37.7446 66.1595 38.5849 63.7292 39.4697C64.7747 40.145 65.797 40.653 66.6351 41.379C68.133 42.6766 69.5995 42.8459 71.3845 41.9527C72.8615 41.216 74.4872 40.7779 76.1926 40.1534ZM53.8407 43.0534C55.2129 43.9424 56.4888 44.6706 57.6516 45.5533C58.5859 46.2624 59.4156 46.347 60.4924 45.8919C62.3319 45.1151 64.2362 44.4949 66.2433 43.7625C64.5275 42.6554 62.9289 41.6182 61.32 40.5979C61.1859 40.5133 60.9575 40.4773 60.813 40.5281C58.5336 41.3388 56.2626 42.1707 53.8407 43.0534Z" fill="black"/>
<path d="M86.9128 30.5345C86.7326 30.7165 86.477 31.1674 86.102 31.3156C84.1892 32.0691 82.2534 32.7592 80.3134 33.4408C79.5885 33.6948 79.0019 33.3963 78.7987 32.755C78.6039 32.139 78.8741 31.5865 79.5655 31.3304C81.4929 30.6192 83.4266 29.9164 85.3687 29.2433C86.1753 28.9639 86.9253 29.4952 86.9128 30.5345Z" fill="black"/>
<path d="M31.0281 39.7686C31.3989 39.9083 31.6084 39.9506 31.7802 40.0564C32.4443 40.4692 33.1084 40.882 33.7495 41.3286C34.334 41.735 34.4786 42.3722 34.156 42.8971C33.827 43.4326 33.2027 43.5829 32.591 43.2188C31.8975 42.8061 31.1768 42.4081 30.5797 41.8768C30.2969 41.6249 30.1021 41.0323 30.1859 40.6703C30.2697 40.3104 30.7536 40.0437 31.0281 39.7686Z" fill="black"/>
<path d="M52.6465 73.4561C50.3001 73.1048 47.7756 72.7491 45.2636 72.3364C44.3586 72.1861 44.0045 71.659 44.1512 70.9393C44.2936 70.2429 44.8677 69.9635 45.7706 70.1731C50.6604 71.3076 55.5523 71.1531 60.4463 70.2154C61.6489 69.9847 62.2082 70.1794 62.3633 70.9541C62.5204 71.7331 62.1203 72.2327 60.9324 72.402C58.2549 72.7872 55.5628 73.0899 52.6465 73.4561Z" fill="black"/>
<path d="M71.7741 68.564C71.6316 68.7164 71.4053 69.1651 71.0596 69.2942C69.5512 69.8637 68.0177 70.3696 66.4757 70.8374C65.8682 71.0215 65.3821 70.6892 65.1978 70.0901C65.0155 69.4953 65.2103 68.9492 65.82 68.7312C67.364 68.1808 68.9185 67.6559 70.4856 67.1754C71.1414 66.9743 71.7824 67.5754 71.7741 68.564Z" fill="black"/>
</svg>
