<svg width="120" height="100" viewBox="0 0 120 100" fill="none" xmlns="http://www.w3.org/2000/svg">
<rect width="120" height="100" fill="white"/>
<path d="M31.0788 49.9342C31.0788 39.231 31.0788 28.5278 31.0788 17.8246C31.0788 14.071 33.2873 11.834 37.0279 11.834C52.3245 11.8288 67.6211 11.8288 82.9177 11.834C86.6713 11.8366 88.8798 14.0633 88.8798 17.8142C88.8824 39.2854 88.8824 60.7541 88.8798 82.2254C88.8798 85.9089 86.6453 88.1641 82.9774 88.1641C67.647 88.1693 52.3193 88.1693 36.989 88.1641C33.3159 88.1641 31.0762 85.9141 31.0762 82.2357C31.0762 71.4677 31.0788 60.7023 31.0788 49.9342ZM33.7876 49.999C33.7876 60.6375 33.7876 71.2759 33.7876 81.9117C33.7876 84.5039 34.7001 85.4293 37.2716 85.4293C52.4049 85.4319 67.5408 85.4319 82.6741 85.4293C85.2559 85.4293 86.171 84.5065 86.171 81.9195C86.171 60.6426 86.171 39.3684 86.171 18.0916C86.171 15.489 85.2766 14.5921 82.687 14.5921C67.5537 14.5921 52.4178 14.5921 37.2845 14.5921C34.6897 14.5921 33.7876 15.4968 33.7876 18.0838C33.7876 28.7222 33.7876 39.3606 33.7876 49.999Z" fill="black"/>
<path d="M18.2888 35.869C19.5097 35.8457 20.2045 36.8981 19.7819 37.7769C19.6445 38.0594 19.4086 38.3005 19.1935 38.5364C13.7576 44.5452 13.7965 53.1305 19.2894 59.0926C20.08 59.9506 20.1526 60.6765 19.5046 61.2882C18.9083 61.8533 18.0892 61.7678 17.3815 61.029C14.8515 58.3901 13.2366 55.2587 12.6819 51.6556C11.8057 45.9449 13.3507 40.9187 17.2597 36.6493C17.5941 36.289 18.0529 36.0453 18.2888 35.869Z" fill="black"/>
<path d="M107.557 47.7828C107.432 53.3871 105.895 57.4232 102.764 60.8293C102.525 61.0886 102.268 61.3659 101.96 61.5137C101.34 61.8118 100.744 61.6926 100.317 61.1326C99.7903 60.4431 99.9873 59.8028 100.545 59.2274C102.497 57.2054 103.834 54.8336 104.415 52.0858C105.483 47.0388 104.275 42.5621 100.884 38.6738C100.778 38.5519 100.661 38.4379 100.555 38.316C99.8888 37.5539 99.8577 36.8359 100.459 36.2604C101.066 35.6798 101.807 35.7264 102.507 36.4419C104.342 38.316 105.768 40.4779 106.514 42.9898C107.072 44.8614 107.352 46.8133 107.557 47.7828Z" fill="black"/>
<path d="M17.835 48.698C17.8687 45.494 18.9574 42.7048 21.1426 40.3537C21.8607 39.5812 22.6435 39.4516 23.2605 39.9726C23.9059 40.517 23.8645 41.3491 23.1542 42.1838C19.634 46.3106 19.634 51.298 23.1568 55.3651C23.8437 56.1584 23.8956 56.9464 23.2916 57.5011C22.6332 58.1077 21.8892 57.9936 21.1064 57.1615C18.9885 54.9167 17.8142 51.8708 17.835 48.698Z" fill="black"/>
<path d="M102.23 48.7264C102.123 51.9537 101.042 54.7533 98.8675 57.0992C98.5124 57.4803 97.9032 57.7914 97.3977 57.8121C97.0504 57.8276 96.4542 57.3377 96.3712 56.9826C96.2675 56.5315 96.4205 55.855 96.7238 55.5024C97.9965 54.0249 98.9245 52.4099 99.2512 50.471C99.7411 47.5703 99.0697 44.9703 97.2344 42.6736C97.0322 42.4222 96.8041 42.1915 96.6045 41.9374C96.0913 41.2842 96.0627 40.5947 96.6745 40.0321C97.2837 39.4722 97.9913 39.5293 98.5798 40.1125C100.081 41.5952 101.128 43.3657 101.659 45.4006C101.944 46.4867 102.048 47.6169 102.23 48.7264Z" fill="black"/>
<path d="M26.2545 43.2285C26.6822 43.6018 27.2602 43.8662 27.3587 44.255C27.478 44.7268 27.3587 45.4293 27.058 45.8078C26.1767 46.912 25.692 48.107 26.0134 49.4757C26.1897 50.2301 26.5889 50.9663 27.0269 51.6169C27.6387 52.5268 27.7061 53.1878 27.0477 53.7477C26.4126 54.2895 25.6323 54.1547 24.9428 53.3874C22.5735 50.7563 22.6098 46.5595 25.0465 44.0684C25.342 43.7625 25.7568 43.5681 26.2545 43.2285Z" fill="black"/>
<path d="M96.7911 48.7602C96.716 50.5644 96.1586 52.1431 94.9481 53.4573C94.2974 54.165 93.5224 54.2687 92.908 53.745C92.2703 53.2007 92.2625 52.4956 92.8873 51.6998C94.4607 49.6934 94.4556 47.8555 92.8691 45.8284C92.2548 45.0456 92.2625 44.3198 92.8899 43.778C93.5198 43.231 94.2274 43.3218 94.9222 44.058C96.1742 45.3904 96.7237 47.0001 96.7911 48.7602Z" fill="black"/>
<path d="M59.9403 46.8598C69.0208 46.7664 76.4138 54.1154 76.4993 63.3151C76.5823 72.3334 69.2826 79.7834 60.2591 79.8923C51.0231 80.0037 43.5342 72.7326 43.4616 63.5847C43.3865 54.3046 50.6265 46.9557 59.9403 46.8598ZM60.0077 49.5816C52.2855 49.5945 46.1627 55.7225 46.1783 63.4266C46.1938 71.0995 52.3607 77.1938 60.0984 77.186C67.6806 77.1782 73.7956 70.9673 73.7853 63.284C73.7749 55.7199 67.5899 49.5686 60.0077 49.5816Z" fill="black"/>
<path d="M50.2376 30.5444C50.2635 25.1293 54.5769 20.8366 59.9895 20.834C65.3838 20.8314 69.7439 25.1941 69.7206 30.5651C69.6947 36.0451 65.3916 40.3248 59.9143 40.3196C54.5329 40.3118 50.2117 35.9466 50.2376 30.5444ZM60.0594 23.5688C56.1297 23.5299 52.9905 26.5809 52.9594 30.4718C52.9257 34.4146 55.9664 37.5641 59.8443 37.603C63.7948 37.6419 66.9573 34.6064 66.9962 30.7388C67.0377 26.7416 64.0074 23.6076 60.0594 23.5688Z" fill="black"/>
<path d="M39.6562 82.0047C39.3995 82.0047 39.1351 82.0384 38.8837 81.9996C38.1371 81.8803 37.7535 81.38 37.725 80.6698C37.6835 79.708 38.4923 79.2596 40.0554 79.3192C41.0611 79.3555 41.6366 79.9102 41.5796 80.7812C41.52 81.6548 40.9575 82.0151 39.6562 82.0047Z" fill="black"/>
<path d="M80.2997 82.0056C80.043 82.0056 79.7812 82.0341 79.5272 82.0004C78.6173 81.8785 78.0859 80.9376 78.4851 80.1158C78.9725 79.1075 79.9264 79.3278 80.7766 79.3226C81.461 79.3174 81.9457 79.6311 82.1635 80.2999C82.4979 81.3342 81.7591 82.0159 80.2997 82.0056Z" fill="black"/>
<path d="M39.6797 18.7709C40.4418 18.6983 41.235 18.7657 41.4476 19.5797C41.5694 20.0437 41.3387 21.0132 41.0846 21.0806C40.237 21.3087 39.2882 21.3502 38.4199 21.205C38.1269 21.1558 37.7277 20.3159 37.7822 19.8882C37.9196 18.8461 38.775 18.6698 39.6797 18.7709Z" fill="black"/>
<path d="M80.1621 21.4593C79.4622 21.5163 78.6638 21.4204 78.4772 20.5313C78.3839 20.0854 78.6327 19.1808 78.879 19.1211C79.7344 18.9138 80.6754 18.8775 81.549 19.0123C81.8341 19.0563 82.1815 19.8107 82.1944 20.2513C82.2203 21.0834 81.5127 21.4619 80.1621 21.4593Z" fill="black"/>
<path d="M50.6369 63.3234C50.6577 58.1182 54.8415 53.9914 60.0544 54.0355C65.2285 54.077 69.3475 58.2271 69.3216 63.3778C69.2956 68.6504 65.1325 72.759 59.8522 72.7175C54.7041 72.6787 50.6136 68.5104 50.6369 63.3234ZM60 56.7573C56.319 56.7444 53.3795 59.6295 53.3536 63.2819C53.3276 67.0173 56.2283 69.9957 59.9041 70.0087C63.6368 70.0216 66.5971 67.1158 66.6023 63.4297C66.6101 59.6969 63.7146 56.7703 60 56.7573Z" fill="black"/>
<path d="M59.9843 34.9379C57.558 34.9249 55.606 32.9678 55.619 30.5622C55.632 28.1645 57.6409 26.184 60.0283 26.2177C62.4287 26.2488 64.3858 28.263 64.347 30.6556C64.3081 33.0197 62.3432 34.9483 59.9843 34.9379ZM61.5914 30.6219C61.6096 29.6679 60.9175 28.9629 59.9687 28.968C59.0588 28.9732 58.3849 29.6342 58.3667 30.5441C58.3486 31.5006 59.0329 32.1979 59.9895 32.1953C60.9045 32.1902 61.5733 31.5317 61.5914 30.6219Z" fill="black"/>
</svg>
