<svg width="120" height="100" viewBox="0 0 120 100" fill="none" xmlns="http://www.w3.org/2000/svg">
<rect width="120" height="100" fill="white"/>
<path d="M98.9089 57.0193C98.6532 57.8378 98.4603 58.6828 98.1295 59.4708C96.5201 63.2764 92.4832 65.4307 88.2677 64.775C84.3547 64.1662 81.2007 60.7617 80.8191 56.7362C80.3747 52.053 83.2546 48.0214 87.8354 46.9138C88.0303 46.8669 88.2271 46.8181 88.4179 46.7712C89.1831 41.353 86.6826 36.7492 82.0856 35.4827C78.0873 34.3812 73.8516 36.735 72.3537 40.9702C71.9559 42.0942 71.7387 43.3423 71.7327 44.5335C71.6799 52.839 71.7205 61.1445 71.6982 69.45C71.6839 74.7543 69.8512 79.301 65.9828 82.9885C60.5415 88.1767 51.7879 88.5554 45.9629 83.8193C41.8652 80.4881 39.6834 76.1572 39.3465 70.8937C39.2775 69.8084 39.3363 68.717 39.3363 67.7458C39.1618 67.5971 39.1273 67.5442 39.0887 67.5381C36.6167 67.2225 35.5552 65.337 35.4314 63.0239C35.3624 61.733 35.4192 60.4359 35.4192 59.1532C25.7645 55.8749 20.6357 49.4406 21.1228 38.879C21.5896 38.879 22.0097 38.879 22.4278 38.879C22.8276 38.879 23.2254 38.879 23.7125 38.879C23.7125 38.541 23.7125 38.2702 23.7125 37.9994C23.7125 32.8174 23.7694 27.6353 23.6922 22.4553C23.6435 19.1893 25.6792 16.3652 28.6708 15.6688C28.9123 15.6118 29.1721 15.345 29.2959 15.1068C30.2093 13.3496 32.0257 12.4985 33.8666 13.0035C35.612 13.4819 36.8846 15.2534 36.7445 17.0086C36.5883 18.9633 35.1635 20.5006 33.2049 20.6839C31.6117 20.8345 30.3189 20.187 29.5009 18.7963C29.2006 18.2873 28.9489 18.2547 28.4922 18.4991C27.1486 19.2178 26.353 20.3499 26.3409 21.8526C26.2942 27.4887 26.3226 33.1228 26.3226 38.8404C27.6033 38.8404 28.8555 38.8404 30.2255 38.8404C30.2255 39.7444 30.2153 40.5731 30.2275 41.3998C30.2661 43.8962 31.0333 46.1359 32.661 48.0398C35.0377 50.8232 38.1551 51.9736 41.713 51.8168C45.5469 51.6499 48.6806 50.0576 50.7487 46.6796C51.7818 44.9916 52.1978 43.1306 52.2425 41.1718C52.2587 40.4408 52.2445 39.7078 52.2445 38.9096C53.103 38.9096 53.9047 38.9096 54.8018 38.9096C54.816 38.6082 54.8363 38.3659 54.8343 38.1257C54.8038 32.8174 54.7775 27.5091 54.7369 22.2008C54.7227 20.2176 53.8357 18.9531 51.9888 18.2873C51.8812 18.4563 51.7635 18.6375 51.6499 18.8228C50.7305 20.3174 48.8754 21.0219 47.2314 20.5006C45.4738 19.9427 44.4245 18.3932 44.5138 16.4833C44.5889 14.8808 45.8696 13.3639 47.4506 13.0096C49.2184 12.6105 50.972 13.4351 51.8122 15.0111C51.9604 15.2901 52.2364 15.6016 52.5185 15.6912C55.6583 16.6869 57.3895 19.0203 57.4017 22.3983C57.422 27.6557 57.422 32.9131 57.4322 38.1705C57.4322 38.37 57.4322 38.5716 57.4322 38.8587C58.2968 38.8587 59.1147 38.8587 59.9204 38.8587C60.8784 45.9405 57.2434 55.881 45.7255 59.1104C45.7255 60.4095 45.8249 61.737 45.691 63.0422C45.5956 63.9748 45.3013 64.9298 44.8893 65.7727C44.3251 66.9272 43.2007 67.3894 41.9789 67.534C41.232 74.6097 44.6579 81.1234 50.8198 83.6258C55.8491 85.6701 61.8222 84.1064 65.3435 79.9159C67.9596 76.8026 69.0922 73.1986 69.0881 69.1752C69.08 60.9959 69.0901 52.8186 69.084 44.6394C69.082 41.2634 70.1597 38.3028 72.5222 35.8859C77.5657 30.7303 85.6922 31.7728 89.3739 38.0096C90.5368 39.9786 91.1092 42.1023 91.1457 44.3787C91.1579 45.1627 91.1477 45.9486 91.1477 46.7733C92.7775 47.0685 94.2347 47.6671 95.4951 48.6913C97.1431 50.0332 98.2148 51.7354 98.6795 53.8184C98.7262 54.0281 98.8318 54.2256 98.9089 54.4292C98.9089 55.2926 98.9089 56.1559 98.9089 57.0193ZM23.745 41.5037C23.7349 50.0311 31.423 57.5711 41.6156 57.0254C50.8928 56.5285 57.5093 49.2085 57.3692 41.5159C56.5513 41.5159 55.7314 41.5159 54.9134 41.5159C54.5684 49.0273 49.1088 53.7817 42.6831 54.4028C39.2247 54.7367 35.9692 54.02 33.1075 51.9879C29.5293 49.4488 27.7514 45.8835 27.5708 41.5037C26.2658 41.5037 25.0338 41.5037 23.745 41.5037ZM89.7818 62.2379C93.3377 62.2685 96.3171 59.4016 96.2907 55.8138C96.2643 52.2322 93.6157 49.3897 89.8528 49.3063C86.3579 49.2289 83.4292 52.1691 83.3927 55.7059C83.3541 59.3059 86.1915 62.2074 89.7818 62.2379ZM37.9156 59.6479C37.9927 60.9959 38.013 62.3112 38.1592 63.6103C38.2647 64.549 38.7031 64.8483 39.6529 64.8626C40.2841 64.8727 40.9194 64.8422 41.5486 64.8707C42.3442 64.9074 42.8556 64.5062 42.9409 63.7732C43.1012 62.4029 43.1438 61.0203 43.2352 59.6479C41.4065 59.6479 39.7463 59.6479 37.9156 59.6479ZM34.0513 16.7337C34.035 16.0333 33.487 15.51 32.7787 15.514C32.0724 15.5202 31.5427 16.0536 31.5427 16.7602C31.5427 17.4973 32.109 18.045 32.8457 18.0165C33.5459 17.9921 34.0675 17.4362 34.0513 16.7337ZM49.6 16.75C49.5939 16.0496 49.054 15.5161 48.3497 15.5161C47.6434 15.5161 47.1015 16.0455 47.0914 16.7459C47.0812 17.4769 47.6455 18.0348 48.3822 18.0206C49.0763 18.0063 49.6061 17.4525 49.6 16.75Z" fill="black"/>
<path d="M85.952 55.8038C85.9357 53.6516 87.6974 51.8618 89.8305 51.8618C91.9251 51.8618 93.6989 53.617 93.7314 55.7224C93.7639 57.8665 92.0347 59.6481 89.8752 59.697C87.7603 59.7418 85.9682 57.9642 85.952 55.8038ZM89.8508 57.0378C90.5409 57.0316 91.0909 56.4758 91.0929 55.7835C91.0949 55.0891 90.549 54.5373 89.8528 54.5312C89.1161 54.5231 88.5498 55.0952 88.5722 55.8222C88.5945 56.5165 89.1486 57.0439 89.8508 57.0378Z" fill="black"/>
</svg>
