<svg width="120" height="100" viewBox="0 0 120 100" fill="none" xmlns="http://www.w3.org/2000/svg">
<rect width="120" height="100" fill="white"/>
<path d="M94.1255 61.9563C94.1255 63.2215 94.1255 64.3458 94.1255 65.6014C95.3353 65.6014 96.5142 65.599 97.6907 65.6014C98.0176 65.6014 98.4114 65.5012 98.6572 65.6468C99.0175 65.8616 99.4757 66.2244 99.5258 66.5777C99.6046 67.122 99.1726 67.4848 98.5593 67.4848C97.2802 67.4848 95.9988 67.4848 94.7197 67.4872C94.5455 67.4872 94.3736 67.5039 94.1469 67.5135C94.1469 68.6975 94.1469 69.8409 94.1469 71.1204C95.3306 71.1204 96.507 71.1204 97.6835 71.1204C97.9222 71.1204 98.1608 71.1204 98.397 71.1227C99.0461 71.1299 99.5568 71.3973 99.5521 72.0847C99.5473 72.7627 99.0652 73.0324 98.3947 73.0252C97.001 73.0061 95.605 73.0205 94.0897 73.0205C94.0897 74.257 94.0897 75.4338 94.0897 76.613C94.0897 76.8804 94.0873 77.1501 94.0897 77.4175C94.0944 78.0524 93.7794 78.4869 93.1566 78.5012C92.5242 78.5155 92.1949 78.0644 92.1877 77.4485C92.1686 76.021 92.183 74.5912 92.183 73.0921C90.9969 73.0921 89.8515 73.0921 88.5581 73.0921C88.5581 74.3143 88.5581 75.5794 88.5581 76.847C88.5581 78.0286 88.2407 78.6086 87.5821 78.5108C86.6108 78.3675 86.6514 77.587 86.6561 76.8565C86.6609 75.6128 86.6585 74.3692 86.6585 73.0754C85.4272 73.0754 84.2817 73.0754 83.0265 73.0754C83.0265 74.448 83.0074 75.8086 83.0336 77.1668C83.048 77.8734 82.8952 78.4988 82.0934 78.4988C81.2892 78.4988 81.1341 77.8472 81.1365 77.1597C81.1436 75.8229 81.1389 74.4838 81.1389 73.0873C79.9314 73.0873 78.7835 73.0873 77.4949 73.0873C77.4949 74.2403 77.4949 75.4195 77.4949 76.5963C77.4949 76.8947 77.4901 77.1931 77.4949 77.4891C77.5044 78.1002 77.1751 78.4821 76.6024 78.506C76.013 78.5322 75.6646 78.136 75.6502 77.5464C75.624 76.4149 75.6335 75.2834 75.6311 74.1519C75.6288 73.801 75.6311 73.4525 75.6311 73.0682C74.3735 73.0682 73.2257 73.0682 71.9705 73.0682C71.9705 74.467 71.9561 75.8277 71.9776 77.1883C71.9896 77.8925 71.8344 78.5155 71.0231 78.5036C70.2714 78.4917 70.1091 77.8877 70.1139 77.2217C70.1282 75.8587 70.1186 74.4957 70.1186 73.0802C68.8777 73.0802 67.7299 73.0802 66.4484 73.0802C66.4484 74.2283 66.4484 75.3789 66.4484 76.5295C66.4484 76.8565 66.446 77.1835 66.4436 77.513C66.4365 78.1193 66.1072 78.506 65.5297 78.5084C64.9522 78.5108 64.6109 78.1288 64.6085 77.5225C64.6014 76.4197 64.6038 75.3192 64.6014 74.2164C64.6014 73.8631 64.6014 73.5098 64.6014 73.0945C63.3652 73.0945 62.1983 73.0945 60.9311 73.0945C60.9311 74.5172 60.9765 75.9112 60.9025 77.3005C60.881 77.6968 60.5994 78.2148 60.2749 78.4248C59.7332 78.7757 59.1032 78.2482 59.0913 77.4676C59.0674 76.0401 59.0841 74.6127 59.0841 73.1064C57.9983 73.1064 56.9531 73.1064 55.9675 73.1064C55.9675 75.6248 55.9675 78.1145 55.9675 80.43C60.5875 81.7715 65.0285 83.125 69.5077 84.3329C71.9872 85.0012 74.469 84.4212 76.9126 83.865C79.4613 83.2825 82.0003 82.4972 84.6397 82.7478C86.0619 82.8839 87.4556 83.3756 88.8397 83.7838C89.5102 83.982 89.9231 84.5191 89.546 85.2376C89.1857 85.9274 88.5843 85.7747 87.9997 85.4787C85.7207 84.3257 83.3272 84.4785 80.9313 84.9272C78.8599 85.3163 76.8172 85.851 74.7458 86.233C71.3405 86.8632 68.0807 86.1638 64.8519 85.0848C62.3224 84.2398 59.7499 83.5236 57.1893 82.7693C56.86 82.6714 56.4949 82.6905 55.9508 82.6356C55.9508 83.6883 56.02 84.6671 55.9389 85.6338C55.6501 89.0068 51.9704 90.6992 49.1712 88.7681C48.0997 88.0281 47.4768 87.0112 47.4864 85.6911C47.5126 81.645 47.5651 77.5965 47.6081 73.5504C47.6105 73.4096 47.6081 73.2663 47.6081 73.0754C46.5271 73.0754 45.5033 73.0754 44.3913 73.0754C44.3913 74.3095 44.3913 75.4911 44.3913 76.6751C44.3913 76.9735 44.4104 77.2743 44.3698 77.5679C44.2934 78.1384 43.9641 78.5394 43.3699 78.494C42.7972 78.4511 42.4869 78.0644 42.4869 77.4581C42.4917 76.0306 42.4893 74.6007 42.4893 73.0992C41.2914 73.0992 40.1268 73.0992 38.8644 73.0992C38.8644 74.5076 38.905 75.9017 38.8382 77.2886C38.8191 77.6681 38.5471 78.105 38.2583 78.3747C38.108 78.5155 37.5591 78.463 37.3897 78.2959C37.1487 78.0596 36.9864 77.6395 36.9745 77.2934C36.9291 75.9017 36.9554 74.51 36.9554 73.0706C35.7264 73.0706 34.5833 73.0706 33.34 73.0706C33.34 74.4981 33.3543 75.8897 33.3352 77.279C33.3209 78.2339 32.6694 78.7972 32.0251 78.3795C31.7221 78.1814 31.4691 77.6801 31.4524 77.3053C31.3856 75.916 31.4262 74.5196 31.4262 73.0754C30.2067 73.0754 29.0637 73.0754 27.8132 73.0754C27.8132 74.4885 27.8681 75.8826 27.7798 77.2671C27.7535 77.6777 27.4242 78.2243 27.0734 78.4224C26.4935 78.7519 25.9137 78.1766 25.9017 77.3172C25.8826 75.9232 25.897 74.5291 25.897 73.0229C24.4413 73.0229 23.05 73.0611 21.6635 72.999C21.2793 72.9823 20.7687 72.7627 20.5658 72.4643C20.1506 71.8532 20.678 71.1609 21.5538 71.1418C22.9522 71.1132 24.3506 71.1347 25.8206 71.1347C25.8206 69.922 25.8206 68.7548 25.8206 67.4968C24.4747 67.4968 23.1431 67.4824 21.8115 67.5015C21.1314 67.5111 20.5205 67.4419 20.4489 66.5968C20.394 65.9523 20.8808 65.6205 21.8449 65.6134C23.1526 65.6062 24.458 65.611 25.8301 65.611C25.8301 64.4007 25.8301 63.2525 25.8301 61.9659C24.7348 61.9659 23.6156 61.9659 22.4964 61.9659C22.1695 61.9659 21.8401 61.9563 21.5132 61.9659C20.8737 61.9802 20.456 61.6914 20.4537 61.0397C20.4513 60.3761 20.9047 60.1111 21.5204 60.1064C22.6229 60.0968 23.723 60.1016 24.8255 60.0992C25.1476 60.0992 25.4674 60.0992 25.8421 60.0992C25.8421 58.8579 25.8421 57.7121 25.8421 56.4398C24.6775 56.4398 23.5273 56.4398 22.3771 56.4398C22.0501 56.4398 21.6683 56.5424 21.4082 56.4088C21.0407 56.2202 20.573 55.9003 20.4895 55.5542C20.3534 54.9884 20.783 54.6113 21.3867 54.5994C22.5179 54.5755 23.649 54.5874 24.7801 54.5826C25.1047 54.5826 25.4268 54.5826 25.8206 54.5826C25.8206 53.3485 25.8206 52.1836 25.8206 50.9137C24.4031 50.9137 23.0095 50.9614 21.623 50.8827C21.2364 50.8612 20.7066 50.5628 20.5276 50.2358C20.2031 49.6414 20.7066 49.0924 21.5204 49.0804C22.9426 49.0613 24.3625 49.0756 25.8373 49.0756C25.8373 47.8368 25.8373 46.6886 25.8373 45.4162C24.6775 45.4162 23.5249 45.4186 22.3747 45.4139C22.0167 45.4139 21.5967 45.5141 21.3199 45.359C20.9643 45.1608 20.5491 44.7861 20.4823 44.4256C20.3868 43.9124 20.7949 43.5567 21.37 43.5543C22.8257 43.5472 24.2838 43.5519 25.8158 43.5519C25.8158 42.3369 25.8158 41.172 25.8158 39.8997C24.6155 39.8997 23.4342 39.9021 22.253 39.8973C21.926 39.8973 21.5251 39.9904 21.2913 39.8376C20.9452 39.6132 20.4918 39.1907 20.5085 38.878C20.5252 38.5749 21.067 38.076 21.4034 38.0545C22.852 37.9638 24.31 38.0163 25.8301 38.0163C25.8301 36.818 25.8301 35.6746 25.8301 34.3784C24.9973 34.3784 24.1501 34.3784 23.3006 34.3784C22.7947 34.3784 22.2888 34.3736 21.7829 34.3784C21.0956 34.3855 20.4584 34.2351 20.4584 33.4116C20.4584 32.5785 21.0908 32.4615 21.7829 32.4711C23.1168 32.4902 24.4508 32.4759 25.8373 32.4759C25.8373 31.2585 25.8373 30.115 25.8373 28.8523C24.6393 28.8523 23.4605 28.8523 22.2816 28.8523C21.9833 28.8523 21.6826 28.8714 21.3891 28.838C20.8164 28.7687 20.425 28.4608 20.4513 27.8521C20.4775 27.2482 20.8713 26.9569 21.4607 26.9545C22.8877 26.9474 24.3148 26.9522 25.8182 26.9522C25.8182 25.7706 25.8182 24.6271 25.8182 23.3333C24.9806 23.3333 24.1024 23.3333 23.2242 23.3333C22.778 23.3333 22.3317 23.3238 21.8855 23.3357C21.1815 23.3548 20.4751 23.2808 20.4584 22.3952C20.4417 21.512 21.129 21.407 21.8449 21.4141C23.1502 21.4285 24.458 21.4189 25.8277 21.4189C25.8277 20.2182 25.8277 19.0748 25.8277 17.8001C24.4532 17.8001 23.0643 17.8383 21.6802 17.7762C21.2937 17.7595 20.7758 17.5494 20.5682 17.2534C20.1267 16.6209 20.6875 15.9 21.5967 15.8856C22.9904 15.8642 24.384 15.8809 25.8898 15.8809C25.8898 14.7184 25.8898 13.6275 25.8898 12.5366C25.8898 12.2382 25.8946 11.9398 25.8898 11.6438C25.8779 10.9587 26.1237 10.424 26.8777 10.4383C27.5746 10.4455 27.8108 10.9587 27.8084 11.6056C27.8037 12.7084 27.8084 13.8089 27.8084 14.9117C27.8084 15.2006 27.8084 15.4894 27.8084 15.826C29.0446 15.826 30.1852 15.826 31.4214 15.826C31.4214 14.4486 31.4333 13.1166 31.4166 11.7846C31.4095 11.0972 31.5192 10.5004 32.3449 10.424C32.9821 10.3643 33.3329 10.8775 33.3376 11.8181C33.3424 13.1262 33.34 14.4319 33.34 15.8069C34.5356 15.8069 35.6787 15.8069 36.9554 15.8069C36.9554 14.6181 36.9554 13.4102 36.9554 12.2024C36.9554 11.935 36.9482 11.6653 36.9601 11.3979C36.9888 10.8012 37.3085 10.4312 37.9027 10.4264C38.5065 10.424 38.831 10.8346 38.8501 11.4051C38.8859 12.4459 38.8644 13.489 38.8668 14.5322C38.8668 14.9427 38.8668 15.3533 38.8668 15.8188C40.091 15.8188 41.2341 15.8188 42.4893 15.8188C42.4893 14.4462 42.5037 13.0856 42.4822 11.7273C42.4726 11.0184 42.6301 10.4168 43.4558 10.4335C44.229 10.4503 44.3722 11.0613 44.3722 11.713C44.3698 13.0522 44.3722 14.3913 44.3722 15.8021C45.5892 15.8021 46.7562 15.8021 48.0185 15.8021C48.0185 14.42 48.0329 13.0593 48.0114 11.6987C48.0018 11.0303 48.1331 10.455 48.9134 10.4359C49.6914 10.4192 49.8799 10.9897 49.8799 11.6557C49.8799 13.0211 49.8799 14.3866 49.8799 15.814C51.1065 15.814 52.2519 15.814 53.5406 15.814C53.5406 14.7136 53.5406 13.594 53.5406 12.4769C53.5406 12.1499 53.5477 11.8228 53.5406 11.4934C53.5287 10.8537 53.815 10.4335 54.4713 10.4383C55.1347 10.4431 55.3876 10.8966 55.39 11.5173C55.3924 12.6201 55.3924 13.7206 55.3924 14.8234C55.3924 15.1433 55.3924 15.4631 55.3924 15.8307C56.6429 15.8307 57.7907 15.8307 59.0626 15.8307C59.0626 14.6563 59.0626 13.5057 59.0626 12.3551C59.0626 12.0281 59.0602 11.6987 59.0722 11.3717C59.096 10.7606 59.4612 10.3405 60.0219 10.4717C60.3632 10.5505 60.8214 11.0423 60.8524 11.3836C60.9574 12.5366 60.8954 13.7039 60.8977 14.864C60.8977 15.1576 60.8977 15.4512 60.8977 15.8116C62.1052 15.8116 63.2483 15.8116 64.5584 15.8116C64.5584 14.778 64.556 13.7253 64.5584 12.6702C64.5608 12.2239 64.4534 11.7297 64.6109 11.3454C64.7613 10.9802 65.155 10.5338 65.5058 10.4694C66.0666 10.3667 66.4198 10.794 66.4198 11.4099C66.4222 12.7204 66.4222 14.0309 66.4246 15.3414C66.4246 15.4846 66.4436 15.6278 66.458 15.826C67.6416 15.826 68.7847 15.826 70.0685 15.826C70.0685 14.7279 70.0685 13.6394 70.0685 12.5533C70.0685 12.1952 70.0566 11.8372 70.0781 11.4815C70.1139 10.8728 70.3883 10.4192 71.0493 10.4407C71.6984 10.4622 71.9633 10.8895 71.9561 11.5268C71.9442 12.7466 71.9538 13.9688 71.9538 15.1886C71.9538 15.3915 71.9538 15.592 71.9538 15.8355C73.1851 15.8355 74.3306 15.8355 75.5858 15.8355C75.5858 14.6157 75.5858 13.4365 75.5858 12.2549C75.5858 11.9565 75.5667 11.6557 75.6049 11.3621C75.6765 10.7916 75.9867 10.4001 76.5976 10.4359C77.199 10.4717 77.4854 10.8561 77.4854 11.4528C77.4854 12.8803 77.4854 14.3078 77.4854 15.8069C78.669 15.8069 79.8097 15.8069 81.1102 15.8069C81.1102 14.6062 81.1102 13.372 81.1102 12.1379C81.1102 10.9277 81.3871 10.4312 82.0624 10.4192C82.7497 10.4073 83.0217 10.8847 83.0217 12.1069C83.0217 13.3243 83.0217 14.5393 83.0217 15.8188C84.2244 15.8188 85.3675 15.8188 86.637 15.8188C86.637 14.6396 86.637 13.4628 86.637 12.2835C86.637 11.9852 86.6204 11.6868 86.649 11.3908C86.7039 10.8107 87.0189 10.424 87.6179 10.4335C88.2144 10.4455 88.5366 10.837 88.5461 11.4218C88.5652 12.5533 88.5533 13.6848 88.5533 14.8162C88.5533 15.1361 88.5533 15.456 88.5533 15.8284C89.7775 15.8284 90.9206 15.8284 92.1663 15.8284C92.1663 14.4653 92.1758 13.1333 92.1615 11.8037C92.1543 11.121 92.2617 10.5195 93.0826 10.4312C93.7245 10.3619 94.0777 10.8704 94.0825 11.8109C94.0873 13.119 94.0849 14.4271 94.0849 15.8904C95.3544 15.8904 96.5906 15.8904 97.8243 15.8904C99.0414 15.8904 99.5282 16.1602 99.5401 16.8381C99.552 17.528 99.0724 17.8049 97.8553 17.8049C96.6383 17.8049 95.4236 17.8049 94.1469 17.8049C94.1469 19.0103 94.1469 20.1537 94.1469 21.4213C95.3234 21.4213 96.5023 21.4213 97.6811 21.4213C97.9794 21.4213 98.2777 21.4046 98.5736 21.4308C99.1583 21.481 99.5401 21.8008 99.5258 22.3976C99.5115 22.9896 99.1297 23.3119 98.5331 23.3166C97.4019 23.3262 96.2708 23.3166 95.1397 23.3166C94.8199 23.3166 94.5001 23.3166 94.1422 23.3166C94.1422 24.5603 94.1422 25.7061 94.1422 26.945C95.543 26.945 96.9032 26.9617 98.2634 26.9378C98.9364 26.9259 99.5258 27.0858 99.5544 27.8306C99.5855 28.6327 98.9793 28.8451 98.273 28.8427C96.9127 28.838 95.5501 28.8403 94.1446 28.8403C94.1446 30.0816 94.1446 31.2274 94.1446 32.4759C95.5286 32.4759 96.8889 32.495 98.2491 32.4687C98.965 32.4544 99.5688 32.6263 99.5592 33.4283C99.5497 34.1731 98.9483 34.3641 98.2849 34.3617C96.9223 34.3545 95.5597 34.3593 94.1493 34.3593C94.1493 35.5982 94.1493 36.7464 94.1493 38.0044C95.5263 38.0044 96.8865 38.0211 98.2443 37.9972C98.9507 37.9853 99.5688 38.1404 99.5592 38.952C99.5497 39.704 98.9459 39.8782 98.2825 39.8734C96.9199 39.8639 95.5549 39.8711 94.1469 39.8711C94.1469 41.1147 94.1469 42.2629 94.1469 43.5305C95.3473 43.5305 96.5261 43.5305 97.7074 43.5305C97.9747 43.5305 98.2443 43.5376 98.5116 43.5328C99.1583 43.5209 99.5688 43.8503 99.564 44.4781C99.5592 45.063 99.1488 45.3757 98.5546 45.3804C97.4234 45.3876 96.2923 45.3876 95.1611 45.39C94.8414 45.39 94.5216 45.39 94.1517 45.39C94.1517 46.636 94.1517 47.7842 94.1517 49.0565C95.2566 49.0565 96.3472 49.0565 97.4377 49.0565C97.7647 49.0565 98.094 49.0661 98.4209 49.0565C99.0843 49.0375 99.5783 49.3144 99.564 50.0042C99.5497 50.6989 99.0318 50.9232 98.3803 50.9137C97.2802 50.8994 96.1777 50.9065 95.0752 50.9137C94.7841 50.9161 94.493 50.9376 94.1541 50.9543C94.1541 52.155 94.1541 53.3032 94.1541 54.5779C95.3425 54.5779 96.5238 54.5755 97.705 54.5779C98.0319 54.5779 98.4233 54.4776 98.6715 54.6208C99.0318 54.8285 99.2848 55.2176 99.5855 55.5279C99.2728 55.8263 98.9817 56.3539 98.6476 56.3825C97.4353 56.4899 96.2111 56.4302 94.9893 56.4326C94.7292 56.4326 94.4691 56.4326 94.1565 56.4326C94.1565 57.6691 94.1565 58.8173 94.1565 60.0896C95.3115 60.0896 96.4641 60.0896 97.6143 60.0896C97.9413 60.0896 98.2706 60.0849 98.5951 60.104C99.1869 60.1374 99.5807 60.462 99.5664 61.0493C99.5497 61.6245 99.1774 61.9563 98.5641 61.954C97.3447 61.9516 96.1228 61.9563 94.9034 61.9563C94.6576 61.9563 94.4285 61.9563 94.1255 61.9563ZM27.8418 71.0535C49.3167 71.0535 70.7009 71.0535 92.1042 71.0535C92.1042 53.2865 92.1042 35.5862 92.1042 17.8693C70.6508 17.8693 49.2451 17.8693 27.8418 17.8693C27.8418 35.6268 27.8418 53.3056 27.8418 71.0535ZM53.9534 80.6854C53.9534 78.093 53.9534 75.5866 53.9534 73.073C52.3784 73.073 50.9657 73.073 49.5052 73.073C49.4838 73.2878 49.4527 73.4597 49.448 73.6316C49.3812 76.7228 49.3048 79.8117 49.2642 82.903C49.2499 83.8817 49.2642 84.87 49.3812 85.8391C49.5172 86.9634 50.4455 87.6557 51.6554 87.6796C52.8485 87.701 53.889 87.0231 54.0131 85.937C54.1372 84.8628 54.0393 83.7623 54.0393 82.6786C53.1826 82.576 52.5312 82.5998 52.5884 83.7504C52.6027 84.0178 52.0014 84.5644 51.7365 84.5334C51.3809 84.4904 50.8344 84.0369 50.7987 83.7146C50.6793 82.6285 50.6865 81.5137 50.7891 80.4252C50.8201 80.1053 51.3141 79.6279 51.6315 79.5993C51.9369 79.5706 52.3068 80.0075 52.6051 80.2844C52.7054 80.3775 52.6767 80.6066 52.7125 80.7928C53.1707 80.7546 53.5812 80.7188 53.9534 80.6854Z" fill="black"/>
<path d="M59.9718 68.0433C52.827 68.0433 45.6846 68.0433 38.5399 68.0433C37.2656 68.0433 37.1248 67.912 36.9887 66.6373C36.7095 63.9972 34.7837 62.1281 32.1253 61.9205C31.1445 61.8441 30.8725 61.5648 30.8725 60.5885C30.8701 49.8394 30.8773 39.0904 30.8582 28.3414C30.8558 27.4223 31.2519 27.081 32.1134 26.9831C34.9937 26.6609 36.6618 24.9756 37.0054 22.1063C37.1343 21.0393 37.3324 20.8579 38.4373 20.8579C52.8151 20.8555 67.1905 20.8555 81.5684 20.8579C82.6327 20.8579 82.8689 21.0775 82.9763 22.1326C83.2579 24.892 85.0262 26.6704 87.7992 26.9879C88.9327 27.1168 89.095 27.2982 89.095 28.4583C89.095 39.1167 89.095 49.7774 89.095 60.4357C89.095 61.6101 88.8778 61.8417 87.7276 61.9229C85.2505 62.0947 83.215 64.0975 82.9907 66.5777C82.8713 67.8906 82.7138 68.0409 81.4037 68.0409C74.2589 68.0433 67.1166 68.0433 59.9718 68.0433ZM60.0171 22.758C53.2613 22.758 46.5055 22.7651 39.7498 22.7461C39.1174 22.7437 38.8525 22.8988 38.6711 23.5672C37.9528 26.2145 36.2203 27.9475 33.5715 28.6612C32.8985 28.8427 32.7529 29.1172 32.7553 29.745C32.772 39.5678 32.7696 49.3931 32.7577 59.2159C32.7577 59.7983 32.8699 60.0585 33.5237 60.2352C36.2394 60.9632 38.0053 62.7249 38.7021 65.4677C38.8501 66.0501 39.0768 66.2148 39.6543 66.2148C53.2255 66.2005 66.7944 66.2005 80.3657 66.2148C80.9074 66.2148 81.1269 66.0621 81.2629 65.513C81.9454 62.7655 83.6994 60.9919 86.4103 60.2519C87.088 60.0681 87.2336 59.8055 87.2336 59.1801C87.2193 49.3859 87.2169 39.5917 87.236 29.7975C87.2384 29.1315 87.088 28.845 86.3745 28.6517C83.7615 27.9451 82.0409 26.2264 81.3202 23.6197C81.1269 22.9275 80.8787 22.7413 80.1962 22.7437C73.4667 22.7675 66.7419 22.758 60.0171 22.758Z" fill="black"/>
<path d="M80.1485 44.0485C80.1485 44.9246 80.1485 45.6932 80.1485 46.6099C80.5947 46.6099 81.0267 46.5908 81.4562 46.6147C82.0719 46.6481 82.4943 46.9465 82.4704 47.6077C82.4489 48.2188 82.0337 48.4885 81.461 48.5172C81.0505 48.5363 80.6401 48.5219 80.1151 48.5219C80.1151 49.2739 80.1318 49.9494 80.1127 50.6226C80.065 52.21 79.2393 53.0216 77.6595 53.0478C76.9818 53.0598 76.3017 53.0502 75.5165 53.0502C75.5165 53.6017 75.6311 54.1101 75.4831 54.5207C75.3471 54.8955 74.9343 55.4063 74.6288 55.4182C74.3162 55.4278 73.8533 54.9599 73.6981 54.5971C73.5239 54.1913 73.6194 53.6685 73.5955 53.1242C72.7484 53.1242 71.9394 53.1242 71.0278 53.1242C71.0278 53.5873 71.0469 54.0289 71.023 54.4658C70.9896 55.0435 70.6818 55.4612 70.0947 55.4707C69.46 55.4803 69.1402 55.053 69.1187 54.4276C69.1044 54.0146 69.1163 53.5993 69.1163 53.0502C68.4147 53.0502 67.7728 53.055 67.1309 53.0502C65.3506 53.0335 64.6037 52.2816 64.5822 50.4817C64.5751 49.8635 64.5822 49.2452 64.5822 48.5243C64.167 48.5243 63.8496 48.5148 63.5298 48.5267C62.8354 48.5554 62.1983 48.393 62.1815 47.5886C62.1648 46.7865 62.7853 46.586 63.4869 46.6075C63.8114 46.617 64.136 46.6099 64.5202 46.6099C64.5202 45.7529 64.5202 44.9628 64.5202 44.0676C64.0883 44.0438 63.6587 44.0271 63.2292 43.996C62.6254 43.9507 62.1553 43.6809 62.1744 43.0269C62.1935 42.3919 62.623 42.0983 63.2626 42.1198C63.6706 42.1341 64.0787 42.1222 64.5822 42.1222C64.5822 41.3488 64.5703 40.6708 64.5846 39.9929C64.618 38.3721 65.4509 37.5509 67.0879 37.5199C67.7346 37.5079 68.3813 37.5175 69.1211 37.5175C69.1211 36.9828 69.0925 36.5412 69.1283 36.1067C69.176 35.5314 69.5029 35.0612 70.0876 35.1972C70.4479 35.2808 70.8417 35.7105 70.992 36.0805C71.1471 36.4576 71.0254 36.9518 71.0254 37.4554C71.9108 37.4554 72.7245 37.4554 73.6504 37.4554C73.6504 36.9852 73.6194 36.5436 73.6576 36.1091C73.7101 35.5458 73.9869 35.1352 74.6217 35.1638C75.235 35.1901 75.5118 35.5696 75.5213 36.1616C75.5285 36.5722 75.5237 36.9852 75.5237 37.5199C76.2587 37.5199 76.9317 37.5079 77.6046 37.5223C79.2178 37.5533 80.0745 38.4031 80.1175 40.0144C80.1342 40.6899 80.1198 41.3655 80.1198 42.1246C80.6615 42.1246 81.1436 42.0124 81.5278 42.158C81.9001 42.2988 82.406 42.6951 82.4203 42.9982C82.4346 43.3109 81.9836 43.7812 81.628 43.9387C81.2223 44.1106 80.6997 44.0175 80.1485 44.0485ZM75.5189 39.5847C75.5189 39.9284 75.5094 40.2841 75.5213 40.6398C75.5452 41.2986 75.3137 41.7832 74.5954 41.7904C73.8676 41.7975 73.6552 41.2748 73.6385 40.6446C73.6265 40.265 73.6361 39.8879 73.6361 39.4773C72.7221 39.4773 71.906 39.4773 71.0278 39.4773C71.0278 39.9452 71.0469 40.3605 71.023 40.7711C70.9872 41.387 70.6889 41.8095 70.0303 41.7904C69.4218 41.7713 69.1402 41.3679 69.1187 40.7878C69.102 40.3533 69.1163 39.9189 69.1163 39.4248C68.3193 39.4248 67.6368 39.3913 66.9614 39.4463C66.7777 39.4606 66.4746 39.7232 66.4627 39.8902C66.4078 40.6159 66.4388 41.3464 66.4388 42.115C66.9901 42.115 67.4053 42.1222 67.8205 42.1126C68.4338 42.0983 68.8109 42.4253 68.8467 42.9958C68.8825 43.5878 68.4768 43.9149 67.9017 43.9722C67.4387 44.0199 66.9734 44.0223 66.477 44.0462C66.477 44.9151 66.477 45.7076 66.477 46.6051C66.9567 46.6051 67.3934 46.5908 67.8301 46.6075C68.4123 46.629 68.83 46.9393 68.849 47.5194C68.8705 48.1496 68.4481 48.4837 67.8253 48.51C67.391 48.5291 66.9543 48.5148 66.4388 48.5148C66.4388 49.3025 66.3983 49.9852 66.4651 50.656C66.4842 50.8517 66.7992 51.1549 67.002 51.174C67.6726 51.2408 68.3527 51.1979 69.1187 51.1979C69.1187 50.7252 69.1259 50.3457 69.1163 49.9661C69.102 49.3121 69.3645 48.7988 70.0446 48.7845C70.7796 48.7702 71.0445 49.3121 71.0373 49.9948C71.0326 50.3695 71.0373 50.7443 71.0373 51.1525C71.9465 51.1525 72.7364 51.1525 73.5931 51.1525C73.6218 50.613 73.5287 50.0688 73.7101 49.6343C73.8604 49.2739 74.3401 48.8132 74.6503 48.8275C74.9558 48.8442 75.359 49.3622 75.4903 49.7394C75.6359 50.1547 75.5237 50.6584 75.5237 51.1931C76.316 51.1931 76.9985 51.2265 77.6714 51.1716C77.8623 51.1573 78.175 50.9019 78.1869 50.7372C78.2442 50.0091 78.2108 49.2763 78.2108 48.5076C77.6977 48.5076 77.3135 48.51 76.9269 48.5076C76.3088 48.5005 75.8554 48.2355 75.8435 47.5814C75.8292 46.8749 76.304 46.6027 76.9579 46.5956C77.3588 46.5908 77.7621 46.5956 78.175 46.5956C78.175 45.6694 78.175 44.8769 78.175 44.0318C77.6667 44.008 77.1965 44.0104 76.7312 43.9578C76.1465 43.891 75.7122 43.5234 75.8769 42.9553C75.9747 42.6115 76.4448 42.2678 76.8195 42.1389C77.2323 41.998 77.7287 42.1078 78.1845 42.1078C78.1821 38.8638 78.7787 39.4534 75.6836 39.4439C75.655 39.4558 75.6335 39.4892 75.5189 39.5847Z" fill="black"/>
<path d="M55.4901 61.2256C55.6954 61.2352 56.0533 61.1516 56.2633 61.2901C56.5974 61.5073 57.0437 61.8701 57.0508 62.1805C57.058 62.4932 56.6165 62.8488 56.3111 63.1186C56.1894 63.226 55.9101 63.1639 55.7025 63.1639C53.025 63.1663 50.3499 63.1592 47.6724 63.1687C46.9899 63.1711 46.3241 63.0541 46.2979 62.2568C46.2692 61.3975 46.9446 61.228 47.67 61.2543C47.7559 61.2567 47.8442 61.2328 48.0423 61.2065C48.1473 59.9342 48.2094 58.638 48.3716 57.3562C48.9229 52.9663 49.5195 48.5836 50.0779 44.1938C50.3165 42.308 50.5194 40.4174 50.6983 38.5245C50.7628 37.8489 50.8654 37.1853 51.6624 37.1734C52.5239 37.1591 52.5907 37.8465 52.6742 38.5555C53.0537 41.8306 53.4928 45.0961 53.9032 48.3664C54.4282 52.6083 54.9484 56.8525 55.4901 61.2256ZM53.5858 61.2256C52.9988 56.3297 52.4284 51.5556 51.8557 46.7814C51.7746 46.7885 51.6958 46.7957 51.6147 46.8029C50.9203 51.5794 50.1447 56.3464 49.9681 61.2256C51.147 61.2256 52.2089 61.2256 53.5858 61.2256Z" fill="black"/>
<path d="M59.1054 30.1696C59.912 29.3318 60.5683 28.6467 61.2317 27.9664C61.6851 27.5033 62.2125 27.3362 62.7136 27.8351C63.2267 28.3459 63.0167 28.8615 62.5537 29.3079C61.8689 29.9667 61.184 30.6232 60.2533 31.5159C61.0169 32.1748 61.7114 32.7572 62.3867 33.3635C62.9069 33.8314 63.3436 34.3828 62.685 35.0202C62.0216 35.6647 61.5037 35.1586 61.0289 34.6669C60.4299 34.0486 59.8309 33.4304 59.0529 32.6283C58.3943 33.3492 57.7858 34.0224 57.1677 34.6908C56.6928 35.204 56.1464 35.6623 55.5164 34.9939C54.9031 34.3423 55.3708 33.8075 55.8719 33.3254C56.4924 32.731 57.1081 32.127 57.855 31.4038C57.1176 30.6972 56.4423 30.0407 55.7598 29.3962C55.2801 28.9427 54.9723 28.4199 55.5092 27.8589C56.0867 27.2574 56.6308 27.5749 57.1104 28.0809C57.7404 28.7445 58.3752 29.4058 59.1054 30.1696Z" fill="black"/>
<path d="M40.8594 45.8508C41.6016 45.044 42.2387 44.3398 42.8878 43.6476C43.346 43.1558 43.8949 42.9123 44.4318 43.459C44.9783 44.0152 44.6824 44.5451 44.2027 44.9986C43.5345 45.6312 42.8639 46.2614 41.9524 47.1208C42.6468 47.7032 43.2601 48.1639 43.8113 48.6915C44.8017 49.6367 44.9329 50.1022 44.4461 50.6131C43.9712 51.112 43.4033 50.9568 42.5132 50.0402C41.9786 49.4887 41.4775 48.8991 40.8666 48.2212C40.0743 49.0543 39.4228 49.7394 38.7713 50.4269C38.3012 50.921 37.7643 51.1406 37.2274 50.5916C36.7167 50.0712 36.9601 49.558 37.4183 49.1187C38.1055 48.4599 38.7928 47.8035 39.6304 47.0014C38.8596 46.2877 38.1676 45.6503 37.4803 45.0058C37.003 44.5594 36.6737 44.0343 37.2297 43.4709C37.812 42.8789 38.3561 43.1868 38.8334 43.7001C39.4586 44.3756 40.091 45.0392 40.8594 45.8508Z" fill="black"/>
</svg>
