<svg width="120" height="100" viewBox="0 0 120 100" fill="none" xmlns="http://www.w3.org/2000/svg">
<rect width="120" height="100" fill="white"/>
<path d="M74.0217 84.5079C64.6775 84.5079 55.3333 84.5079 45.9891 84.5079C45.6002 84.2163 45.1699 83.9679 44.8296 83.6295C38.6739 77.4917 32.5345 71.3394 26.377 65.2034C25.7631 64.5914 25.4912 63.9218 25.493 63.0488C25.5128 54.3551 25.5128 45.6631 25.4912 36.9711C25.4894 36.0675 25.7919 35.3925 26.4202 34.7661C32.5453 28.6643 38.6595 22.5498 44.763 16.4246C45.4093 15.7766 46.1097 15.4922 47.0351 15.4958C55.6609 15.5192 64.2868 15.5228 72.9108 15.4922C73.9173 15.4886 74.6536 15.8216 75.3486 16.5182C81.3062 22.503 87.2872 28.4663 93.2502 34.4475C93.7165 34.9155 94.091 35.4753 94.5087 35.9919C94.5087 45.3355 94.5087 54.6791 94.5087 64.0226C94.0766 64.5536 93.6877 65.1278 93.2052 65.6102C87.3502 71.4852 81.4844 77.3495 75.6097 83.2048C75.1271 83.6853 74.5528 84.0759 74.0217 84.5079ZM29.5422 50.0064C29.5422 54.0041 29.5494 58.0018 29.5332 61.9995C29.5314 62.4405 29.6664 62.7429 29.9743 63.0524C35.6528 68.7133 41.317 74.3868 47.0009 80.0404C47.235 80.2744 47.6473 80.4508 47.9767 80.4508C55.994 80.4742 64.0131 80.4742 72.0304 80.4508C72.3599 80.449 72.7722 80.2762 73.0062 80.0422C78.692 74.3886 84.3543 68.7151 90.0329 63.0542C90.3425 62.7464 90.474 62.4423 90.474 62.0013C90.4614 54.0059 90.4614 46.0123 90.474 38.0169C90.474 37.5777 90.3461 37.2717 90.0365 36.9639C84.3579 31.303 78.6938 25.6296 73.0098 19.9759C72.7758 19.7419 72.3635 19.5673 72.034 19.5655C64.0167 19.5439 55.9976 19.5439 47.9803 19.5655C47.6509 19.5673 47.2386 19.7419 47.0045 19.9741C41.3188 25.6278 35.6546 31.3012 29.9779 36.9621C29.67 37.2699 29.5332 37.5723 29.535 38.0133C29.5494 42.011 29.5422 46.0087 29.5422 50.0064Z" fill="black"/>
<path d="M57.1768 50.0047C57.1768 45.53 60.7866 41.9229 65.2625 41.9229C69.7383 41.9229 73.3446 45.5318 73.3446 50.0065C73.3446 54.4793 69.7347 58.0883 65.2589 58.0883C60.7866 58.0901 57.1768 54.4775 57.1768 50.0047ZM70.6493 50.0281C70.6637 47.0887 68.2062 44.621 65.2643 44.6174C62.3494 44.6138 59.9062 47.0293 59.8702 49.9507C59.8324 52.8828 62.2756 55.3685 65.2211 55.3973C68.1539 55.4243 70.6349 52.971 70.6493 50.0281Z" fill="black"/>
<path d="M39.8947 58.1004C37.7396 58.0374 35.8689 57.3048 34.3548 55.7388C33.9047 55.2726 33.7805 54.7237 34.0811 54.1333C34.3512 53.6023 34.8247 53.2999 35.4026 53.4151C35.7699 53.4889 36.1336 53.7373 36.4253 53.9911C37.7054 55.0998 39.1475 55.6344 40.8309 55.2474C41.2486 55.152 41.6681 54.9037 41.9976 54.6211C42.9248 53.8255 42.887 52.7977 41.9076 52.0615C41.5205 51.7699 41.0614 51.5557 40.6113 51.3667C39.477 50.8898 38.3211 50.4596 37.1851 49.9844C34.3314 48.791 33.7769 45.1587 36.1552 43.1499C37.6874 41.8558 39.5058 41.6272 41.3584 42.1312C42.3955 42.412 43.3731 42.9771 44.3111 43.5279C45.0151 43.9401 45.1231 44.8023 44.7036 45.4125C44.2643 46.0497 43.4505 46.1847 42.7412 45.7077C41.5691 44.9211 40.3358 44.3685 38.8937 44.7555C38.5012 44.8599 38.0853 45.0741 37.8008 45.3585C37.0824 46.0767 37.3147 47.0774 38.2545 47.4716C39.432 47.9648 40.6275 48.413 41.7977 48.9242C42.3883 49.1834 42.9806 49.4786 43.4991 49.8584C46.0053 51.6907 46.0143 55.0207 43.537 56.9052C42.4621 57.7188 41.2468 58.1166 39.8947 58.1004Z" fill="black"/>
<path d="M78.3157 52.1784C78.3157 53.7948 78.3301 55.2078 78.3103 56.6189C78.2977 57.5441 77.6765 58.1417 76.8411 58.0877C76.2362 58.0481 75.7411 57.6197 75.6348 57.0149C75.5934 56.7737 75.5898 56.5235 75.5898 56.2769C75.588 52.1046 75.5862 47.9324 75.588 43.7601C75.588 42.3237 75.9913 41.9079 77.4227 41.9277C78.899 41.9493 80.4042 41.8413 81.8463 42.0843C84.3615 42.5091 86.0431 44.8184 85.9063 47.3366C85.7676 49.8673 83.8574 51.9211 81.3278 52.1622C80.3592 52.2558 79.3707 52.1784 78.3157 52.1784ZM78.3463 49.4929C79.2177 49.4929 80.0225 49.5163 80.8237 49.4875C82.0263 49.4461 83.0526 48.5227 83.1894 47.3996C83.3389 46.1684 82.5899 44.9858 81.3314 44.7518C80.3628 44.5718 79.3509 44.6258 78.3463 44.5736C78.3463 46.2782 78.3463 47.8406 78.3463 49.4929Z" fill="black"/>
<path d="M53.126 44.6138C53.126 48.5395 53.126 52.3536 53.126 56.1677C53.126 56.3927 53.1386 56.6177 53.1188 56.8409C53.0504 57.5897 52.4526 58.1153 51.7127 58.0901C50.9727 58.0631 50.4398 57.5285 50.4344 56.7275C50.4182 54.5279 50.4254 52.3302 50.4254 50.1306C50.4254 48.3181 50.4254 46.5055 50.4254 44.6138C49.6314 44.6138 48.8986 44.621 48.1658 44.612C47.3214 44.6012 46.7021 44.0306 46.6967 43.2764C46.6913 42.524 47.3142 41.9301 48.1514 41.9283C50.5748 41.9211 52.9982 41.9211 55.4216 41.9283C56.2624 41.9319 56.8817 42.524 56.8727 43.28C56.8637 44.0396 56.2497 44.603 55.3999 44.612C54.6636 44.621 53.929 44.6138 53.126 44.6138Z" fill="black"/>
</svg>
