<svg width="120" height="100" viewBox="0 0 120 100" fill="none" xmlns="http://www.w3.org/2000/svg">
<rect width="120" height="100" fill="white"/>
<path d="M94.1203 15.1919C94.6703 15.5171 94.8082 16.0041 94.8082 16.6256C94.7946 27.6356 94.798 38.6473 94.798 49.6573C94.798 49.8378 94.8167 50.0251 94.7827 50.2005C94.6737 50.7624 94.3298 51.0876 93.7474 51.0723C93.1992 51.057 92.8706 50.7369 92.7803 50.2022C92.7394 49.9587 92.7616 49.705 92.7616 49.4564C92.7616 39.0117 92.7616 28.5687 92.7616 18.124C92.7616 17.8567 92.7616 17.5877 92.7616 17.2761C70.909 17.2761 49.1092 17.2761 27.2719 17.2761C27.2719 35.4564 27.2719 53.6145 27.2719 71.817C49.0785 71.817 70.8613 71.817 92.7616 71.817C92.7616 71.565 92.7616 71.3061 92.7616 71.0473C92.7616 65.8812 92.7616 53.8086 92.7616 48.6425C92.7616 48.416 92.7429 48.1844 92.782 47.9648C92.8808 47.4233 93.2451 47.1253 93.7764 47.1236C94.3076 47.1202 94.6737 47.4165 94.7759 47.958C94.8185 48.1776 94.7963 48.4092 94.7963 48.6357C94.7963 57.8782 94.7963 74.0305 94.7963 83.2748C94.7963 84.5314 94.5324 84.7988 93.2979 84.7988C71.0963 84.7988 48.8946 84.7971 26.693 84.809C26.0561 84.809 25.53 84.7085 25.1912 84.1228C25.1929 61.156 25.1929 38.191 25.1929 15.1919C48.1693 15.1919 71.1439 15.1919 94.1203 15.1919ZM92.7292 73.9675C70.8698 73.9675 49.07 73.9675 27.2668 73.9675C27.2668 76.9082 27.2668 79.7995 27.2668 82.7214C49.0989 82.7214 70.8988 82.7214 92.7292 82.7214C92.7292 79.7927 92.7292 76.9014 92.7292 73.9675Z" fill="black"/>
<path d="M44.6771 66.2558C44.6771 66.9131 44.6874 67.5891 44.6737 68.2634C44.6584 69.0654 44.2804 69.5353 43.6725 69.5507C43.034 69.566 42.622 69.0654 42.61 68.2412C42.6015 67.5874 42.6083 66.9318 42.6083 66.2592C38.4043 65.4232 35.8707 62.9423 35.0296 58.6735C34.3434 58.6735 33.647 58.6888 32.9523 58.6701C32.232 58.6496 31.7757 58.2972 31.7433 57.725C31.711 57.1563 31.9783 56.7357 32.5572 56.6557C33.114 56.5791 33.6912 56.5365 34.2463 56.5961C34.9223 56.6693 35.1096 56.3748 35.2492 55.772C36.0376 52.3852 38.1694 50.2534 41.4777 49.2675C41.8234 49.1653 42.1827 49.1091 42.6083 49.0155C42.6083 48.3463 42.6015 47.672 42.61 46.9977C42.6203 46.2059 43.0017 45.7257 43.6163 45.7002C44.2583 45.6746 44.6584 46.1548 44.6737 46.9977C44.6857 47.6515 44.6754 48.3071 44.6754 48.8094C45.9082 49.3271 47.1086 49.688 48.1626 50.3027C50.3012 51.5474 51.6072 53.4647 52.0907 55.8997C52.1929 56.4173 52.3802 56.637 52.9251 56.5893C53.441 56.5433 53.9688 56.5569 54.4865 56.5978C55.1829 56.6523 55.5796 57.078 55.5575 57.6705C55.5353 58.2291 55.1318 58.6309 54.4677 58.6615C53.7475 58.6956 53.0238 58.6701 52.2815 58.6701C51.4437 62.8946 48.9441 65.4147 44.6771 66.2558ZM44.7248 64.0695C47.771 63.7511 50.1173 60.6521 50.0185 58.7228C48.5202 58.5645 48.0213 58.3159 48.0775 57.6433C48.1847 56.3833 49.2506 56.654 50.0407 56.5348C49.9828 53.9398 46.94 51.1541 44.7061 51.2614C44.6107 52.0378 44.8985 53.068 43.6538 53.1872C42.9761 53.2519 42.7497 52.8041 42.5505 51.2103C40.0781 51.3091 37.4338 53.9432 37.2295 56.5416C37.9838 56.6761 39.1195 56.3169 39.1706 57.5565C39.2302 58.9595 37.9668 58.5424 37.1835 58.7331C37.7488 61.6209 39.7784 63.6319 42.5641 64.0831C42.7122 63.2913 42.3121 62.1556 43.6845 62.0841C44.3877 62.0466 44.5648 62.4263 44.7248 64.0695Z" fill="black"/>
<path d="M77.3845 49.0313C79.2302 49.319 80.8239 50.0154 82.1606 51.2533C83.4734 52.4691 84.4098 53.925 84.7248 55.6958C84.8577 56.4399 85.1539 56.6817 85.8725 56.5932C86.3169 56.5387 86.78 56.5642 87.2295 56.6085C87.8749 56.6715 88.2767 57.1023 88.2631 57.6489C88.2512 58.1955 87.8323 58.6229 87.1887 58.6637C86.557 58.7029 85.9202 58.6757 85.2867 58.6808C85.1778 58.6825 85.0688 58.708 84.9717 58.7216C84.1493 63.2067 80.9891 65.6689 77.3845 66.2325C77.3845 66.9561 77.3981 67.6968 77.3793 68.4375C77.3674 68.9603 77.1325 69.4285 76.5961 69.4779C76.2522 69.5103 75.8112 69.3281 75.5438 69.0931C75.3548 68.9279 75.3395 68.5159 75.3259 68.2094C75.2952 67.5572 75.3174 66.9034 75.3174 66.258C71.0589 65.422 68.5542 62.907 67.7165 58.6757C67.0047 58.6757 66.3032 58.6978 65.6051 58.6705C64.7503 58.6365 64.2923 58.0746 64.4813 57.3492C64.6175 56.8248 65.016 56.6323 65.4944 56.6034C66.058 56.5693 66.6284 56.5574 67.192 56.5932C67.6211 56.6204 67.7982 56.4467 67.8731 56.05C68.3839 53.312 69.9044 51.2874 72.3427 50.0001C73.2469 49.5234 74.2719 49.2748 75.3191 48.8933C75.3191 48.2786 75.302 47.5788 75.3242 46.879C75.348 46.14 75.7686 45.687 76.3662 45.7041C76.9622 45.7211 77.3657 46.1911 77.3811 46.9232C77.3964 47.5958 77.3845 48.2752 77.3845 49.0313ZM77.4134 51.2091C77.3249 51.9906 77.6126 53.1025 76.4037 53.1604C75.0586 53.2251 75.4161 51.9957 75.268 51.221C72.6748 51.3453 70.0083 54.1463 69.9504 56.5336C70.7354 56.6596 71.9068 56.382 71.8881 57.6404C71.8711 58.8766 70.7149 58.6109 69.9198 58.7131C70.0917 61.2792 72.891 64.0325 75.2731 64.0257C75.4314 62.4217 75.6051 62.0505 76.3066 62.0863C77.6807 62.1561 77.2823 63.2901 77.427 64.0836C80.2212 63.6477 82.5403 61.3166 82.7701 58.7063C82.0209 58.5939 80.9346 58.9311 80.8273 57.763C80.6911 56.2884 82.0192 56.7277 82.8076 56.5132C82.2508 53.6372 79.884 51.3164 77.4134 51.2091Z" fill="black"/>
<path d="M85.0925 30.4295C85.668 30.4295 86.344 30.4193 87.02 30.4312C87.7981 30.4448 88.2698 30.8535 88.263 31.4801C88.2562 32.076 87.8049 32.4643 87.0609 32.4881C86.4053 32.5085 85.5897 32.2753 85.1385 32.5835C84.7196 32.8695 84.7077 33.7311 84.4812 34.3271C83.3132 37.4005 81.1303 39.2923 77.8969 39.9513C77.7436 39.9819 77.5955 40.0449 77.3843 40.1113C77.3843 40.7754 77.3929 41.4514 77.3826 42.1257C77.369 42.9141 76.9791 43.3738 76.3457 43.3738C75.6987 43.3755 75.3411 42.9498 75.319 42.1274C75.3053 41.6302 75.2883 41.1296 75.3241 40.6341C75.353 40.2169 75.2015 40.0313 74.7962 39.9445C70.9787 39.1152 68.6682 36.7773 67.8457 32.9615C67.8168 32.8304 67.764 32.7043 67.6959 32.4915C67.0404 32.4915 66.3695 32.5017 65.6986 32.4898C64.8762 32.4745 64.4437 32.122 64.4335 31.4835C64.4233 30.8296 64.8984 30.4397 65.7344 30.4312C66.3882 30.4244 67.0421 30.4295 67.558 30.4295C68.0313 29.2563 68.36 28.1171 68.927 27.1108C70.1648 24.9091 72.0821 23.535 74.5715 23.0463C75.2049 22.922 75.3888 22.6649 75.3275 22.0604C75.2781 21.5683 75.3104 21.0643 75.336 20.5688C75.3666 19.9609 75.7055 19.6051 76.3133 19.5591C76.8735 19.5165 77.3281 19.9405 77.3707 20.5722C77.4116 21.158 77.4082 21.7505 77.3775 22.338C77.3571 22.7586 77.4916 22.905 77.9224 22.9901C80.6093 23.518 82.6542 24.9841 83.9347 27.4054C84.4131 28.3078 84.6788 29.3261 85.0925 30.4295ZM75.2849 37.8518C75.3837 37.0787 75.0874 35.9447 76.3133 35.926C77.6057 35.9055 77.3162 37.0992 77.4252 37.9011C80.0593 37.6679 82.7836 34.889 82.7411 32.5341C81.1303 32.3859 80.7676 32.2157 80.8017 31.5056C80.8698 30.1264 82.0089 30.5367 82.799 30.3869C82.3716 27.5978 80.0882 25.3246 77.4184 25.03C77.289 25.7912 77.6653 26.9252 76.4223 26.9916C75.0091 27.0665 75.4296 25.8014 75.273 25.0147C72.077 25.3995 69.8532 28.5718 69.969 30.3852C71.4759 30.5282 71.9697 30.77 71.9118 31.4511C71.8028 32.7197 70.7438 32.4421 69.9486 32.5119C69.9162 34.9298 72.9726 37.9727 75.2849 37.8518Z" fill="black"/>
<path d="M34.8576 30.4317C35.348 29.2295 35.68 28.0921 36.247 27.0892C37.4764 24.913 39.3749 23.5474 41.837 23.0587C42.4892 22.9293 42.6901 22.6603 42.6169 22.0354C42.5641 21.5893 42.5896 21.1295 42.6135 20.6783C42.6475 19.9887 43.0562 19.5579 43.6419 19.5528C44.2242 19.5477 44.6329 19.9734 44.6652 20.6664C44.6908 21.2317 44.6925 21.7987 44.6703 22.364C44.655 22.7523 44.7878 22.9021 45.188 22.9787C47.9055 23.5015 49.9624 24.988 51.2581 27.4263C51.7383 28.3305 51.9937 29.3555 52.3921 30.4317C52.9404 30.4317 53.6147 30.4249 54.2872 30.4334C55.079 30.4436 55.5507 30.825 55.5626 31.4482C55.5762 32.0902 55.1369 32.4716 54.3315 32.492C53.6981 32.509 53.0647 32.5022 52.4296 32.509C52.387 32.509 52.3445 32.5363 52.2678 32.5601C51.4539 36.7506 48.9254 39.2741 44.6754 40.1033C44.6754 40.7844 44.6857 41.4383 44.6737 42.0921C44.6567 42.952 44.2838 43.3964 43.6164 43.3777C42.9915 43.359 42.622 42.8975 42.6083 42.0989C42.5964 41.4655 42.5947 40.8321 42.5879 40.1987C42.5879 40.1782 42.5709 40.1561 42.559 40.1272C41.8575 39.916 41.1236 39.7628 40.4459 39.4784C37.6756 38.3137 35.8877 36.2772 35.2492 33.323C35.1062 32.6572 34.8576 32.4069 34.1901 32.4869C33.744 32.5397 33.2843 32.5107 32.8331 32.4869C32.1537 32.4528 31.7161 32.0306 31.728 31.455C31.7399 30.871 32.1775 30.4606 32.8654 30.4385C33.5857 30.4146 34.3059 30.4317 34.8576 30.4317ZM37.1835 30.3806C38.8334 30.5458 39.1706 30.6854 39.1876 31.3375C39.2268 32.8257 37.9753 32.3626 37.1852 32.5482C37.725 35.4344 40.0798 37.762 42.5896 37.8931C42.6509 37.0809 42.4023 35.9384 43.647 35.9265C44.9053 35.9145 44.6107 37.0894 44.7078 37.8727C47.3623 37.7739 50.1003 34.7822 50.0203 32.5124C49.2319 32.4511 48.1115 32.7048 48.1047 31.4874C48.0962 30.229 49.2404 30.4794 50.0509 30.4027C50.0509 27.9814 47.4202 25.3336 44.7231 25.0339C44.5614 25.7917 44.9802 26.9802 43.6708 26.9955C42.3104 27.0125 42.7258 25.7917 42.559 25.0118C39.7427 25.4869 37.7318 27.4927 37.1835 30.3806Z" fill="black"/>
<path d="M59.9539 81.5343C58.2546 81.5343 56.5553 81.5377 54.856 81.5326C53.9059 81.5309 53.5194 81.1699 53.5024 80.2419C53.4853 79.3139 53.4819 78.3842 53.5041 77.4545C53.5245 76.5912 53.9042 76.2251 54.7743 76.2234C58.2631 76.2166 61.7537 76.2166 65.2426 76.2234C66.1041 76.2251 66.4736 76.598 66.4924 77.4732C66.5128 78.4012 66.5111 79.3309 66.4924 80.2606C66.4736 81.158 66.0854 81.5291 65.1881 81.5326C63.4428 81.5394 61.6975 81.5343 59.9539 81.5343ZM55.6376 78.2973C55.6376 78.7179 55.6376 79.0721 55.6376 79.4535C58.5628 79.4535 61.4455 79.4535 64.3435 79.4535C64.3435 79.0448 64.3435 78.6787 64.3435 78.2973C61.4234 78.2973 58.556 78.2973 55.6376 78.2973Z" fill="black"/>
<path d="M39.305 75.1421C41.0827 75.1455 42.4806 76.5469 42.4823 78.328C42.4823 80.0988 41.0725 81.5223 39.3102 81.5308C37.5308 81.5376 36.0648 80.0682 36.0818 78.2973C36.0971 76.5401 37.5308 75.1387 39.305 75.1421ZM39.2676 77.1888C38.6767 77.2041 38.1523 77.7473 38.1591 78.3399C38.1642 78.9324 38.6989 79.4705 39.2846 79.4756C39.901 79.4807 40.4476 78.9103 40.4237 78.2888C40.3999 77.6945 39.8516 77.1735 39.2676 77.1888Z" fill="black"/>
<path d="M80.7456 75.1422C82.5011 75.1558 83.9263 76.6015 83.9144 78.3553C83.9007 80.0972 82.4466 81.5343 80.6945 81.5309C78.9016 81.5275 77.4849 80.0768 77.5139 78.2719C77.5411 76.4942 78.951 75.1286 80.7456 75.1422ZM79.569 78.3042C79.5554 78.9002 80.0577 79.4382 80.6588 79.4689C81.2649 79.5012 81.8388 78.941 81.8336 78.3229C81.8285 77.7287 81.299 77.194 80.7082 77.1889C80.1224 77.1838 79.5844 77.7116 79.569 78.3042Z" fill="black"/>
<path d="M48.0058 75.1421C49.78 75.1404 51.1933 76.5384 51.2086 78.3109C51.2239 80.0665 49.797 81.5172 48.0449 81.5308C46.2656 81.5444 44.7791 80.075 44.7894 78.316C44.8013 76.5673 46.2435 75.1438 48.0058 75.1421ZM49.1313 78.3024C49.1177 77.6945 48.5983 77.1837 48.0007 77.1888C47.369 77.1956 46.8667 77.7405 46.8956 78.3892C46.9246 79.0005 47.4592 79.4994 48.0535 79.4671C48.6596 79.4364 49.1449 78.912 49.1313 78.3024Z" fill="black"/>
<path d="M72.0362 75.1422C73.7849 75.1593 75.2288 76.6288 75.2016 78.3656C75.1743 80.1092 73.7151 81.5378 71.9647 81.531C70.2092 81.5242 68.7806 80.087 68.7824 78.3298C68.7858 76.5351 70.2262 75.1252 72.0362 75.1422ZM72.009 77.189C71.413 77.1719 70.8835 77.6793 70.8614 78.2872C70.8392 78.9241 71.3654 79.4775 71.9903 79.4723C72.5896 79.4689 73.0987 78.9513 73.1038 78.34C73.1089 77.7236 72.6152 77.206 72.009 77.189Z" fill="black"/>
</svg>
