<svg width="120" height="100" viewBox="0 0 120 100" fill="none" xmlns="http://www.w3.org/2000/svg">
<rect width="120" height="100" fill="white"/>
<path d="M58.564 86.6104C57.8204 86.3979 57.0574 86.2289 56.3283 85.9682C53.3536 84.8913 50.9151 83.0129 48.7034 80.8109C46.0861 78.2081 43.9469 75.2335 42.0975 72.0513C39.4609 67.5217 37.0223 62.8957 35.3563 57.9074C33.9897 53.8125 33.193 49.621 33.4151 45.2846C33.5889 41.9285 34.3229 38.7415 36.5201 36.0469C38.1088 34.1009 40.1949 33.0917 42.6286 32.7005C42.9039 32.657 43.1791 32.6088 43.464 32.5605C42.7832 32.0631 42.083 31.6478 41.5035 31.107C40.4556 30.1315 40.5764 28.9823 41.8415 28.3062C42.986 27.6929 44.1932 27.1424 45.4342 26.7658C48.3895 25.8773 51.3786 25.0998 54.3629 24.2934C55.0727 24.1002 55.6474 24.3224 56.1254 24.9163C56.8643 25.8338 57.6562 26.7078 58.5882 27.5336C58.5882 26.2346 58.5399 24.9308 58.5978 23.6318C58.7089 21.029 59.0083 18.4504 60.2831 16.1084C61.2151 14.3941 62.6203 13.3801 64.6388 13.3897C65.4839 13.3945 66.0537 13.9016 66.0875 14.6549C66.1164 15.3503 65.5949 15.9442 64.7837 15.9635C63.1853 16.007 62.5382 17.0887 62.1519 18.3635C61.2296 21.4154 61.2875 24.559 61.3551 27.9344C61.9539 27.2921 62.4175 26.8092 62.8618 26.3119C63.2722 25.8483 63.6827 25.3847 64.0593 24.8922C64.5229 24.2837 65.1217 24.1002 65.8315 24.303C69.2794 25.2833 72.732 26.2539 76.1654 27.2776C76.909 27.4998 77.6141 27.8764 78.2901 28.2676C79.5022 28.9678 79.7001 29.9915 78.7971 31.0587C78.3143 31.6285 77.6913 32.0824 77.1119 32.6088C77.7396 32.7633 78.3963 32.8937 79.0386 33.082C82.2691 34.0478 84.2248 36.3415 85.4079 39.3596C86.6345 42.4839 86.7745 45.7579 86.5089 49.0657C85.9777 55.6475 83.5005 61.5919 80.4969 67.3672C78.3481 71.4911 76.0254 75.5088 72.9445 79.0242C70.3466 81.994 67.4347 84.563 63.6634 85.9633C62.939 86.2338 62.1761 86.3931 61.4276 86.6056C60.4715 86.6104 59.5202 86.6104 58.564 86.6104ZM71.6987 34.8977C71.829 35.2647 71.8966 35.4916 71.9884 35.7041C72.7803 37.5391 73.6254 39.3499 74.3497 41.2042C74.9389 42.7012 75.4942 44.2271 75.866 45.7868C76.3006 47.6073 74.9823 48.6745 73.2536 47.9454C72.2298 47.5156 71.2447 46.9554 70.3369 46.3084C67.116 44.0195 63.9289 41.6823 60.7515 39.3306C60.2348 38.9491 59.8872 38.9781 59.385 39.3499C56.2075 41.7016 53.0253 44.0484 49.7947 46.3325C48.8531 46.9989 47.8101 47.5639 46.738 47.9985C45.188 48.6262 44.0001 47.617 44.2367 45.9703C44.3091 45.4536 44.3767 44.9176 44.5699 44.4444C45.5695 42.0058 46.6077 39.5817 47.6314 37.1528C47.926 36.4477 48.2253 35.7475 48.5537 34.9749C47.0664 35.0425 45.6998 35.0329 44.3574 35.1874C43.2129 35.3226 42.0202 35.4916 40.9675 35.9262C38.5531 36.921 37.3507 39.0022 36.6794 41.3974C35.5978 45.275 35.9358 49.1719 36.7519 53.0543C37.7177 57.6563 39.6202 61.9009 41.7788 66.0489C43.5606 69.4726 45.4874 72.8094 47.9115 75.8323C50.2293 78.72 52.8708 81.2358 56.1737 82.9742C58.7475 84.3312 61.3165 84.307 63.8855 82.9404C66.0054 81.8105 67.8742 80.3473 69.5691 78.6572C72.4375 75.784 74.6926 72.4617 76.6531 68.9318C79.8547 63.1757 82.7424 57.299 83.6743 50.6689C84.1138 47.5301 84.191 44.3961 83.2929 41.3249C82.443 38.4228 80.8349 36.0952 77.6768 35.4723C75.7549 35.086 73.7606 35.0812 71.6987 34.8977ZM75.6777 30.035C75.6825 29.9287 75.6873 29.8225 75.6922 29.7162C72.4906 28.8374 69.2939 27.9537 66.0826 27.1038C65.8943 27.0555 65.5804 27.2535 65.4114 27.4225C64.1897 28.6491 62.9825 29.8949 61.7849 31.1553C61.6449 31.305 61.5386 31.5609 61.5483 31.7637C61.5676 32.4059 61.6835 33.0434 61.698 33.6808C61.7125 34.3955 61.2151 34.9315 60.5535 34.9942C59.863 35.0618 59.2932 34.6707 59.1532 33.956C59.018 33.28 58.9745 32.5894 58.8586 31.9086C58.82 31.6961 58.7282 31.4547 58.5834 31.305C57.3278 30.006 56.0385 28.7456 54.8023 27.4273C54.4933 27.099 54.2373 27.0072 53.8269 27.1231C52.4555 27.4998 51.0696 27.833 49.6982 28.2289C47.9598 28.7311 46.2358 29.2768 44.3091 29.8659C44.6616 30.0205 44.7823 30.0929 44.9175 30.1315C46.936 30.6627 48.9545 31.2084 50.9778 31.7058C52.4893 32.0776 52.8225 32.7778 52.1319 34.183C50.7605 36.9789 49.4036 39.7797 48.066 42.5901C47.7328 43.2855 47.4962 44.0243 47.1437 44.9176C47.5107 44.6955 47.699 44.5989 47.8728 44.4782C49.732 43.1503 51.5863 41.8127 53.4454 40.4847C55.3045 39.1568 57.154 37.8191 59.0324 36.5202C59.6892 36.0663 60.428 36.1097 61.1282 36.5009C61.5193 36.723 61.9153 36.9451 62.2775 37.2107C64.6581 38.9588 67.0194 40.7261 69.4049 42.4646C70.5252 43.2806 71.6745 44.0533 72.8141 44.8452C72.8576 44.8066 72.9059 44.7631 72.9493 44.7245C72.6306 43.9132 72.3506 43.0827 71.9787 42.2955C70.6701 39.5479 69.3373 36.8147 67.9997 34.0864C67.372 32.8067 67.7052 32.0534 69.091 31.7299C70.0182 31.5174 70.955 31.3436 71.8725 31.107C73.1425 30.7738 74.4077 30.3971 75.6777 30.035Z" fill="black"/>
<path d="M70.8535 66.2421C70.8921 65.8896 70.9018 65.4357 71.008 65.0059C71.1577 64.3974 71.6358 64.1029 72.2298 64.1125C72.8189 64.1174 73.3501 64.4119 73.4225 65.03C73.5191 65.8461 73.5239 66.6815 73.4611 67.5024C73.408 68.1881 72.901 68.531 72.2442 68.5793C71.631 68.6227 71.095 68.164 70.9598 67.4831C70.8825 67.1016 70.8921 66.7201 70.8535 66.2421Z" fill="black"/>
<path d="M52.9963 68.2561C52.977 68.6328 52.9963 69.0191 52.9287 69.3909C52.8032 70.0525 52.243 70.4919 51.6008 70.4388C50.9344 70.3809 50.466 70.0235 50.4129 69.3378C50.3549 68.6086 50.3404 67.8698 50.4032 67.1407C50.4708 66.3873 50.9827 65.9817 51.6877 65.9914C52.3637 66.001 52.8804 66.4694 52.9577 67.1889C52.9963 67.5415 52.9625 67.8988 52.9625 68.2561C52.977 68.2561 52.9867 68.2561 52.9963 68.2561Z" fill="black"/>
<path d="M59.2689 75.6588C59.3076 75.3546 59.3124 74.92 59.4186 74.5144C59.5731 73.9156 60.0271 73.6066 60.6355 73.6114C61.2681 73.621 61.7751 73.9494 61.8476 74.5917C61.9345 75.3836 61.9345 76.1948 61.8717 76.9916C61.8186 77.6773 61.3309 78.0202 60.6548 78.0588C60.0029 78.0926 59.4911 77.6821 59.3607 76.982C59.2834 76.5956 59.3027 76.1852 59.2689 75.6588Z" fill="black"/>
<path d="M72.0367 55.131C71.9884 55.5753 71.9836 56.034 71.8821 56.4686C71.7373 57.0819 71.2544 57.3909 70.6749 57.3861C70.0665 57.3813 69.5256 57.0674 69.4484 56.4107C69.3615 55.638 69.3373 54.8509 69.4049 54.0783C69.4677 53.3588 70.0713 52.8856 70.6991 52.9049C71.3365 52.9242 71.8725 53.4264 71.9691 54.1362C72.0125 54.4646 71.9787 54.7978 71.9787 55.131C71.9932 55.131 72.0125 55.131 72.0367 55.131Z" fill="black"/>
<path d="M50.2824 56.6134C50.2437 57.0142 50.2292 57.4199 50.1568 57.8158C50.0313 58.4677 49.5532 58.8106 48.9448 58.8203C48.3025 58.8299 47.752 58.4822 47.6892 57.7965C47.6168 56.9804 47.6216 56.1402 47.7037 55.3241C47.7713 54.6626 48.3267 54.3535 48.9303 54.3535C49.5387 54.3583 50.0313 54.6867 50.152 55.3434C50.2292 55.7587 50.2389 56.1885 50.2824 56.6134Z" fill="black"/>
<path d="M41.6677 46.8686C41.6339 47.2404 41.6146 47.6413 41.5518 48.0372C41.4407 48.6988 40.9771 49.0271 40.359 49.0513C39.7361 49.0754 39.1808 48.7712 39.1035 48.129C39.0021 47.2936 38.9973 46.4244 39.0842 45.5841C39.147 44.9612 39.7892 44.5218 40.3687 44.5894C41.0206 44.6618 41.4745 45.0095 41.5711 45.7C41.6194 46.0767 41.6339 46.4533 41.6677 46.8686Z" fill="black"/>
<path d="M77.0249 46.83C77.0249 46.4727 76.9959 46.1154 77.0297 45.7629C77.0925 45.0868 77.6816 44.5749 78.3287 44.5846C78.9516 44.5943 79.5311 45.0868 79.5745 45.7291C79.6228 46.463 79.6228 47.2019 79.5745 47.9359C79.5311 48.5878 78.9661 49.061 78.3287 49.0707C77.6671 49.0803 77.0925 48.5781 77.0297 47.9021C76.9959 47.5447 77.0249 47.1874 77.0249 46.83Z" fill="black"/>
<path d="M60.1576 61.8722C60.1576 61.539 60.1286 61.2058 60.1624 60.8774C60.2396 60.1483 60.8239 59.6123 61.4855 59.6268C62.1277 59.6412 62.6782 60.1386 62.7314 60.8533C62.7845 61.539 62.7845 62.2295 62.7314 62.9152C62.6782 63.6299 62.1181 64.1225 61.4758 64.1321C60.8095 64.1369 60.2396 63.6058 60.1624 62.8718C60.1286 62.5386 60.1576 62.2054 60.1576 61.8722Z" fill="black"/>
<path d="M57.5837 48.665C57.5837 48.3318 57.5547 47.9986 57.5885 47.6702C57.6658 46.9797 58.2259 46.4678 58.8682 46.4581C59.5056 46.4485 60.0947 46.9507 60.143 47.6509C60.1961 48.3559 60.1913 49.0754 60.143 49.7804C60.0947 50.4613 59.5636 50.9297 58.931 50.9587C58.3032 50.9877 57.6899 50.4855 57.603 49.8094C57.5547 49.4376 57.5934 49.0513 57.5934 48.6698C57.5885 48.665 57.5885 48.665 57.5837 48.665Z" fill="black"/>
</svg>
