<svg width="120" height="100" viewBox="0 0 120 100" fill="none" xmlns="http://www.w3.org/2000/svg">
<rect width="120" height="100" fill="white"/>
<path d="M63.3378 17.3699C66.7614 14.6973 70.6009 15.3971 74.311 15.2834C74.3662 15.0644 74.4192 14.8884 74.4553 14.7081C74.7588 13.2398 75.9007 12.2459 77.3631 12.2438C82.6332 12.233 87.9033 12.2288 93.1734 12.2459C95.4402 12.2524 97.3037 14.1543 97.3398 16.4447C97.3547 17.4085 97.3525 18.3723 97.3398 19.3362C97.3292 20.2077 96.9514 20.579 96.0769 20.622C94.6337 20.6907 94.6337 20.6907 94.1986 22.0602C93.651 23.7839 92.4029 24.7735 90.6116 24.7907C87.4597 24.8207 84.3078 24.8186 81.1581 24.7928C79.3115 24.7778 78.0317 23.7388 77.4968 21.9357C77.1148 20.6477 77.1148 20.6477 75.8625 20.6263C74.7334 20.6069 74.398 20.2742 74.3747 19.1344C74.3641 18.6342 74.3726 18.1319 74.3726 17.4128C72.0081 17.5609 69.7434 17.6511 67.4936 17.8722C66.8123 17.9387 66.148 18.3273 65.5091 18.6364C63.9979 19.3684 63.272 20.3966 63.2848 22.3028C63.3803 37.9408 63.3378 53.5809 63.3378 69.2211C63.3378 69.5409 63.3378 69.8608 63.3378 70.2428C64.3969 70.3695 64.5943 71.0607 64.6304 72.0117C64.7981 76.4787 65.0273 80.9415 65.2417 85.5224C65.5431 85.5224 65.8232 85.5224 66.1034 85.5224C67.9839 85.5224 69.8644 85.5181 71.7449 85.5245C72.5727 85.5288 73.0163 85.9109 73.0354 86.6064C73.0566 87.3405 72.6003 87.7634 71.7407 87.7634C63.9024 87.7677 56.062 87.7677 48.2237 87.7634C47.4108 87.7634 46.9693 87.3513 46.9651 86.6493C46.9608 85.9431 47.4023 85.5288 48.211 85.5245C50.3547 85.5159 52.4984 85.5224 54.7227 85.5224C54.78 84.7603 54.8501 84.0262 54.884 83.2899C55.0581 79.4926 55.2448 75.6952 55.3743 71.8957C55.404 70.9856 55.6757 70.3953 56.6605 70.23C56.6605 69.923 56.6605 69.6332 56.6605 69.3456C56.6605 53.2782 56.6563 37.2109 56.6754 21.1414C56.6754 20.5103 56.4801 20.0896 56.0259 19.7011C54.7206 18.5848 53.2561 17.7713 51.539 17.6833C49.6182 17.5845 47.6867 17.6618 45.6258 17.6618C45.6258 18.119 45.6364 18.6428 45.6237 19.1644C45.5982 20.2506 45.248 20.5984 44.1804 20.6198C43.7602 20.6284 43.3378 20.622 42.8942 20.622C42.7244 21.1779 42.5801 21.6888 42.4124 22.1911C41.8754 23.7861 40.6316 24.7649 38.9655 24.7821C35.7606 24.8164 32.5556 24.8164 29.3528 24.7842C27.5508 24.7671 26.3092 23.741 25.7595 21.9486C25.3626 20.652 25.3626 20.652 24.0466 20.6198C23.0194 20.5941 22.6628 20.2377 22.6564 19.2181C22.6501 18.3101 22.6458 17.3999 22.6564 16.4898C22.684 14.1478 24.5412 12.2502 26.8568 12.2438C32.0484 12.2288 37.2378 12.2373 42.4294 12.2395C44.1464 12.2416 45.231 13.1668 45.5749 14.8991C45.5961 15.0022 45.6322 15.1009 45.681 15.2769C49.3826 15.3993 53.2455 14.6909 56.6627 17.357C56.6627 16.6679 56.6584 16.1764 56.6627 15.6869C56.6839 13.7099 58.0932 12.2438 59.978 12.2373C61.903 12.2309 63.3187 13.697 63.3378 15.7234C63.3421 16.1957 63.3378 16.6679 63.3378 17.3699ZM61.1156 70.2407C61.1156 69.8844 61.1156 69.5946 61.1156 69.3048C61.1156 51.6361 61.1156 33.9674 61.1156 16.2987C61.1156 16.1377 61.1198 15.9767 61.1135 15.8179C61.0859 15.0322 60.6529 14.5063 60.0204 14.4913C59.3646 14.4762 58.9061 15.0236 58.8828 15.8522C58.8785 15.9853 58.8828 16.1205 58.8828 16.2536C58.8828 33.9481 58.8828 51.6447 58.8828 69.3391C58.8828 69.6268 58.8828 69.9123 58.8828 70.2386C59.6447 70.2407 60.3239 70.2407 61.1156 70.2407ZM43.342 18.3208C43.342 17.3527 43.3484 16.4726 43.3399 15.5925C43.3314 14.7317 43.1043 14.4934 42.2638 14.4848C40.9415 14.4741 39.6192 14.4827 38.2969 14.4827C34.6208 14.4827 30.9426 14.4784 27.2664 14.4848C26.0566 14.487 25.2437 14.9743 25.023 15.9853C24.8574 16.7409 24.8978 17.5416 24.8447 18.3208C31.0826 18.3208 37.1614 18.3208 43.342 18.3208ZM95.1261 18.3294C95.1261 17.8786 95.1261 17.5073 95.1261 17.138C95.1218 15.2426 94.362 14.4848 92.4666 14.4827C89.8475 14.4805 87.2284 14.4827 84.6114 14.4827C82.3361 14.4827 80.0608 14.4848 77.7876 14.4805C77.2825 14.4805 76.737 14.5321 76.6967 15.1438C76.6266 16.1957 76.6776 17.2561 76.6776 18.3294C82.8624 18.3294 88.9391 18.3294 95.1261 18.3294ZM62.3997 72.6556C60.7399 72.6556 59.1948 72.6556 57.5987 72.6556C57.4076 76.9553 57.2209 81.1927 57.032 85.4708C59.0356 85.4708 60.9776 85.4708 62.9685 85.4708C62.7775 81.1819 62.5907 76.9445 62.3997 72.6556ZM40.4279 20.6778C36.1914 20.6778 31.9995 20.6778 27.7971 20.6778C28.09 22.2298 28.4423 22.5324 29.9047 22.5324C32.7382 22.5324 35.5717 22.5346 38.4052 22.5324C39.806 22.5303 40.2071 22.1718 40.4279 20.6778ZM92.2056 20.6821C87.9733 20.6821 83.7793 20.6821 79.579 20.6821C79.7764 22.1353 80.1966 22.5303 81.5041 22.5324C84.3651 22.5346 87.2241 22.5346 90.0852 22.5324C91.5518 22.5324 91.8999 22.2341 92.2056 20.6821Z" fill="black"/>
</svg>
