<svg width="120" height="100" viewBox="0 0 120 100" fill="none" xmlns="http://www.w3.org/2000/svg">
<rect width="120" height="100" fill="white"/>
<path d="M98.5539 49.2934C97.2137 51.5044 95.3491 53.1023 92.9801 54.1334C92.723 54.246 92.51 54.4993 92.3231 54.7244C91.1617 56.1374 90.0185 57.5645 88.8631 58.9835C87.0347 61.2307 84.7742 62.8768 82.0536 63.8778C79.5902 64.7863 77.1188 65.6787 74.6514 66.5792C74.6273 66.5872 74.6032 66.5913 74.5791 66.5993C73.7613 66.8767 73.1384 66.6495 72.9013 65.9883C72.6723 65.3451 73.0199 64.7762 73.8477 64.4707C75.7726 63.7652 77.6794 62.9994 79.6344 62.3824C83.0703 61.301 85.9115 59.4277 87.9991 56.465C88.1116 56.3062 88.2242 56.1474 88.4593 55.8178C87.3682 56.2057 86.458 56.5233 85.5538 56.8529C76.7391 60.0609 67.9263 63.2728 59.1075 66.4686C58.5711 66.6636 58.2375 66.953 58.0165 67.4817C57.5765 68.5309 57.0701 69.5519 56.5055 70.768C57.5001 70.4122 58.3139 70.1268 59.1256 69.8313C62.1355 68.7379 71.5712 65.2954 74.5791 64.1999C74.7197 64.1477 74.8604 64.0934 75.003 64.0492C75.6741 63.8462 76.2608 64.0974 76.4879 64.6823C76.7129 65.2632 76.4537 65.8903 75.7987 66.1436C74.4224 66.6782 66.6022 69.5137 65.2158 70.0203C62.0431 71.176 58.8644 72.3177 55.7038 73.5035C55.3803 73.6241 55.0588 73.9498 54.89 74.2613C53.9658 75.9778 53.1781 77.7727 52.1715 79.437C51.0704 81.26 49.471 82.6469 47.7088 83.8408C45.8482 85.1011 44.0037 86.3834 42.1512 87.6557C41.8498 87.6557 41.5504 87.6557 41.249 87.6557C40.6884 87.1914 40.5598 86.5603 40.4975 85.8689C40.3006 83.7062 40.0675 81.5454 39.8365 79.2722C39.0548 79.5475 38.3616 79.8128 37.6544 80.0359C36.702 80.3354 35.7475 80.649 34.7751 80.8721C33.9512 81.061 33.3906 80.7013 33.2661 80.042C33.1375 79.3586 33.5313 78.9063 34.323 78.6611C36.0409 78.1265 37.7448 77.5516 39.4507 76.9768C39.6154 76.9205 39.8405 76.7697 39.8706 76.627C40.0916 75.5557 40.2705 74.4764 40.4855 73.2724C36.0148 74.9005 31.6044 76.5064 27.194 78.1104C27.202 78.1647 27.2101 78.2189 27.2181 78.2752C27.8691 78.3998 28.5221 78.5184 29.1711 78.6531C29.9266 78.8119 30.3526 79.3305 30.2541 79.9455C30.1477 80.6188 29.579 81.0188 28.7914 80.8741C26.6977 80.4922 24.608 80.0942 22.5264 79.6601C21.5238 79.451 21.2525 78.5446 21.9256 77.6984C23.1573 76.1487 24.4272 74.6291 25.6529 73.0734C25.9543 72.6895 26.2074 72.2413 26.3742 71.783C27.0775 69.8554 27.7144 67.9038 28.4217 65.9782C29.3198 63.5301 30.7846 61.4598 32.7457 59.7473C33.5574 59.0378 34.3812 58.3423 35.2171 57.665C35.7978 57.1946 36.4729 57.2529 36.8828 57.7675C37.2786 58.2639 37.2103 58.875 36.6758 59.3714C35.3537 60.5955 33.9412 61.7332 32.7155 63.0457C31.092 64.7843 30.3486 67.0073 29.6373 69.4052C29.9266 69.1901 30.1014 69.0736 30.2602 68.9389C36.7502 63.4939 43.2422 58.0529 49.7161 52.5918C50.1019 52.2662 50.4294 51.82 50.6525 51.3657C51.4783 49.6814 52.2498 47.9689 53.0415 46.2644C53.142 46.0473 53.2264 45.8242 53.1982 45.5207C51.7636 46.7207 50.327 47.9166 48.8963 49.1186C46.3044 51.2934 38.5364 57.8031 35.9465 59.9799C35.8882 60.0282 35.8319 60.0764 35.7717 60.1226C35.0764 60.6694 34.4335 60.6613 33.9894 60.1005C33.5715 59.5739 33.69 58.9408 34.323 58.4001C35.1809 57.6685 36.0449 56.9429 36.9089 56.2193C41.3253 52.5149 50.9237 44.4836 55.3301 40.7651C55.6234 40.5179 55.8726 40.1742 56.0353 39.8265C58.0708 35.501 60.1102 31.1776 62.1014 26.83C63.4838 23.809 65.5172 21.3729 68.298 19.5539C69.7447 18.6072 71.1794 17.6424 72.5879 16.6414C72.9978 16.35 73.3715 15.946 73.6347 15.5159C74.8363 13.5501 76.3493 11.924 78.4309 10.8768C79.2105 10.4849 79.8655 10.6236 80.1749 11.2447C80.4864 11.8658 80.2312 12.4728 79.4456 12.8808C77.7919 13.737 76.5422 15.0073 75.638 16.6153C75.4571 16.9369 75.3587 17.3691 75.3888 17.7369C75.6058 20.2272 75.867 22.7116 76.1202 25.2502C77.591 25.015 79.0437 24.7838 80.4944 24.5507C80.8159 24.4984 81.1354 24.416 81.4569 24.3939C82.9096 24.2914 84.1754 23.7829 85.4091 22.9789C87.2577 21.7729 89.3634 21.3187 91.5797 21.4694C91.8288 21.4855 92.082 21.5096 92.3211 21.5759C92.946 21.7508 93.2333 22.193 93.1389 22.8221C93.0485 23.4191 92.6546 23.7286 92.0438 23.7507C91.1457 23.7829 90.2435 23.7708 89.3514 23.8693C88.8129 23.9276 88.2844 24.1306 87.7701 24.3195C86.1807 24.9024 84.9229 25.7667 84.5572 27.6139C84.3402 28.7093 83.8319 29.7424 83.4963 30.8178C82.4334 34.2227 80.4643 36.9743 77.7015 39.2235C74.2817 42.0073 70.9282 44.8755 67.5626 47.7257C67.2512 47.989 66.984 48.3487 66.8071 48.7186C65.5393 51.3838 64.3016 54.0611 62.9694 56.9152C63.6807 56.668 64.2353 56.4851 64.7818 56.2861C68.9671 54.7626 73.1585 53.2631 77.3298 51.7014C80.7195 50.4331 84.1353 50.4874 87.6013 51.2893C88.8189 51.5727 90.0506 51.8079 91.2883 51.9948C91.6982 52.0571 92.1865 51.9989 92.5602 51.826C94.0893 51.1205 95.3551 50.0813 96.2794 48.6482C97.0027 47.5267 97.7261 47.5025 98.562 48.5457C98.5539 48.7909 98.5539 49.0422 98.5539 49.2934ZM71.2959 20.3277C68.1815 22.0865 65.7503 24.3135 64.2634 27.5134C57.3354 42.4254 50.3973 57.3353 43.415 72.2232C41.7312 75.813 41.9522 79.4792 42.5751 83.3584C42.7379 83.0228 42.8484 82.8097 42.9488 82.5886C49.8487 67.3329 59.7807 45.5464 66.6826 30.2928C66.7951 30.0415 66.8895 29.7742 67.0543 29.5571C67.4119 29.0848 67.8922 28.9199 68.4447 29.2013C68.9792 29.4747 69.1902 29.9289 69.0274 30.5159C68.9611 30.755 68.8426 30.9802 68.7361 31.2073C61.798 46.0891 51.8279 67.4997 44.8898 82.3796C44.7833 82.6087 44.6949 82.8439 44.5623 83.1675C47.8696 81.3063 50.2807 78.8501 51.842 75.4673C58.6213 60.7885 65.4991 46.1559 72.2905 31.4831C72.9335 30.0942 73.3434 28.5646 73.6387 27.0551C74.0024 25.1919 73.7231 23.3065 73.4077 21.2383C73.1143 21.8533 72.9073 22.2754 72.7084 22.7015C71.2396 25.8552 69.7749 29.0108 68.3 32.1624C67.9323 32.9483 67.3075 33.2217 66.6826 32.9081C66.0436 32.5865 65.8949 31.9896 66.2767 31.1655C67.8379 27.8068 69.4072 24.4502 70.9724 21.0935C71.0749 20.8805 71.1593 20.6554 71.2959 20.3277ZM59.7244 63.8637C69.1158 60.4448 78.3003 57.1002 87.6837 53.6832C84.4628 52.7988 81.4709 52.6079 78.4912 53.6872C73.0158 55.6691 67.5466 57.669 62.0813 59.6749C61.8462 59.7614 61.5709 59.9382 61.4665 60.1473C60.8898 61.309 60.3593 62.4949 59.7244 63.8637ZM26.3099 75.9537C26.541 75.9155 26.6394 75.9155 26.7299 75.8833C31.6164 74.1025 36.503 72.3217 41.3876 70.5348C41.5464 70.4765 41.7634 70.4062 41.8256 70.2795C42.4325 69.0394 43.0111 67.7852 43.6541 66.4124C43.3929 66.4847 43.2985 66.5048 43.21 66.537C39.9208 67.7349 36.6296 68.9289 33.3424 70.1308C30.3526 71.2202 28.1605 73.2744 26.3099 75.9537ZM81.7442 28.7535C81.5433 28.8761 81.4529 28.9163 81.3805 28.9766C78.5193 31.3765 75.6541 33.7724 72.8049 36.1864C72.5678 36.3874 72.395 36.6889 72.2604 36.9743C71.4426 38.6928 70.6449 40.4194 69.8432 42.146C69.7226 42.4053 69.6242 42.6746 69.4494 43.1007C69.7086 42.9218 69.8151 42.8615 69.9075 42.7831C72.3628 40.7189 74.8302 38.6667 77.2675 36.5804C79.6385 34.5483 80.9043 31.861 81.7442 28.7535ZM37.0455 66.1913C37.0697 66.2315 37.0918 66.2737 37.1159 66.3139C37.3469 66.2435 37.582 66.1812 37.8071 66.0988C39.4728 65.4958 41.1103 64.7863 42.8122 64.314C44.4337 63.8637 45.4705 63.0155 46.0291 61.3915C46.5193 59.9684 47.2728 58.6338 47.9098 57.261C47.8696 57.2308 47.8294 57.2007 47.7892 57.1705C44.2087 60.1774 40.6261 63.1843 37.0455 66.1913ZM80.2011 27.0149C80.179 26.9546 80.1549 26.8943 80.1328 26.834C78.8609 27.0933 77.589 27.3425 76.3211 27.6219C76.1383 27.6621 75.8851 27.8269 75.8389 27.9857C75.5154 29.1013 75.2381 30.2289 74.9186 31.4489C76.725 29.9334 78.463 28.4741 80.2011 27.0149Z" fill="black"/>
<path d="M28.0005 79.6037C29.0005 79.8314 31.9101 80.6112 35.5854 79.4463" stroke="black" stroke-width="2.3"/>
</svg>
