<svg width="120" height="100" viewBox="0 0 120 100" fill="none" xmlns="http://www.w3.org/2000/svg">
<rect width="120" height="100" fill="white"/>
<path d="M12.3958 64.0786C12.8306 62.368 13.4442 60.7191 13.3821 58.8799C13.2703 55.429 13.3449 51.9731 13.3498 48.5197C13.3573 44.9921 15.6131 42.7253 19.1409 42.6981C20.5669 42.6882 21.9929 42.6808 23.419 42.7005C25.9754 42.7351 27.8411 44.0503 28.7454 46.4209C28.9516 46.9623 29.1578 47.5061 29.3566 48.0277C31.7341 47.2762 34.0297 46.4407 36.3848 45.8375C39.0754 45.1478 41.8132 44.646 44.541 44.1096C45.1845 43.9835 45.418 43.7511 45.3857 43.0886C45.3286 41.9812 45.3658 40.8688 45.3708 39.7588C45.3857 37.1434 46.8167 35.6998 49.4551 35.6701C51.4997 35.6479 53.5468 35.6577 55.5915 35.6503C55.6511 35.6503 55.7132 35.6256 55.9244 35.5786C55.9244 35.2894 55.9244 34.9656 55.9244 34.6442C55.9244 31.0672 55.9219 27.4902 55.9244 23.9132C55.9293 18.6997 59.4397 15.177 64.7041 15.0905C64.9476 15.0856 65.191 15.0633 65.4842 15.046C65.5165 14.8161 65.5538 14.6109 65.5761 14.4058C65.7376 12.8212 66.9847 11.6223 68.5921 11.553C69.4592 11.516 70.3287 11.5382 71.1957 11.5456C73.1733 11.5605 74.5571 12.7495 74.6068 14.69C74.6838 17.6787 74.6838 20.6723 74.6043 23.6635C74.5546 25.5348 73.2453 26.7016 71.3547 26.7758C70.7038 26.8005 70.0505 26.7412 69.402 26.7906C67.3872 26.9439 65.5836 25.918 65.5165 23.3471C64.1948 22.9812 64.0805 23.0628 64.0805 24.3927C64.0805 27.7843 64.0805 31.1784 64.0805 34.5701C64.0805 34.9013 64.0805 35.2326 64.0805 35.6676C65.4395 35.6676 66.6991 35.6676 67.9611 35.6676C68.612 35.6676 69.2629 35.6676 69.9138 35.6676C73.3721 35.6676 74.6341 36.916 74.6341 40.3348C74.6341 41.3137 74.6341 42.2927 74.6341 43.2642C77.4539 43.6152 80.1891 43.8871 82.9021 44.3098C88.4919 45.1849 93.9351 46.5495 98.802 49.5777C104.593 53.1819 107.475 58.43 107.604 65.2058C107.723 71.4427 105.617 76.6785 100.576 80.5596C96.8294 83.4444 92.4693 84.9919 87.9254 86.0771C82.7927 87.3032 77.5706 87.9188 72.3063 88.1289C67.8493 88.3069 63.3874 88.5046 58.928 88.4626C48.9284 88.3712 39.1375 86.9819 29.7491 83.3653C29.6075 83.3109 29.4535 83.2862 29.2125 83.2269C29.051 83.6595 28.8945 84.0822 28.7355 84.5C27.8511 86.8064 26.04 88.1067 23.568 88.161C21.988 88.1956 20.4054 88.2006 18.8254 88.1635C15.6205 88.0844 13.3697 85.8002 13.3498 82.6138C13.33 79.2519 13.2579 75.8874 13.3796 72.5304C13.4467 70.6542 12.8107 68.9781 12.3909 67.2279C12.3958 66.1773 12.3958 65.1292 12.3958 64.0786ZM15.5038 66.9956C15.5535 67.2897 15.5783 67.5889 15.6528 67.8781C16.2541 70.2265 17.618 72.1102 19.3371 73.759C22.8625 77.1408 27.1554 79.2444 31.6745 80.9254C40.1785 84.0847 49.0377 85.3256 58.0584 85.5061C65.5885 85.6569 73.1137 85.3948 80.5941 84.4209C85.0163 83.8449 89.3614 82.9105 93.5153 81.2097C94.1761 80.9403 94.4345 80.6263 94.432 79.8748C94.3997 70.407 94.3997 60.9416 94.432 51.4737C94.4345 50.7148 94.1637 50.4182 93.5004 50.1463C88.1466 47.9561 82.512 46.9895 76.798 46.5297C72.1398 46.1564 67.4593 45.9933 62.7862 45.8721C55.1169 45.6744 47.5049 46.2528 40.007 47.9734C34.0992 49.328 28.41 51.2562 23.2674 54.5316C20.3383 56.398 17.7298 58.608 16.2441 61.8488C15.8839 62.6325 15.6901 63.4927 15.4094 64.348C16.2168 64.2937 16.8205 64.2195 17.4267 64.2195C21.4861 64.2096 25.5456 64.2146 29.6075 64.2146C29.9181 64.2146 30.2286 64.2146 30.5367 64.2442C31.3391 64.3208 31.7838 64.8276 31.8484 65.5692C31.913 66.3207 31.5205 66.8794 30.7602 67.0821C30.4373 67.1686 30.087 67.1785 29.7516 67.1785C25.5679 67.1834 21.3843 67.1884 17.2006 67.176C16.6764 67.1711 16.1572 67.0673 15.5038 66.9956ZM97.4281 52.2228C97.4281 61.2382 97.4281 70.1227 97.4281 79.1283C102.056 76.1643 104.384 72.0237 104.628 66.7063C104.909 60.6276 102.822 55.6836 97.4281 52.2228ZM71.6355 43.1529C71.6355 42.0306 71.6429 40.9578 71.633 39.8849C71.6255 38.7651 71.5311 38.6711 70.4132 38.6687C66.5425 38.6637 62.6719 38.6662 58.8013 38.6662C55.6734 38.6662 52.5456 38.6687 49.4178 38.6637C48.8762 38.6637 48.3918 38.7181 48.3843 39.4078C48.3719 40.7575 48.3818 42.1097 48.3818 43.5484C56.1355 42.6091 63.8296 42.8044 71.6355 43.1529ZM16.346 56.2151C17.7795 55.0409 19.0564 53.8691 20.465 52.8779C21.8985 51.8693 23.4388 51.0016 24.9717 50.1438C26.6735 49.1945 26.6909 49.2316 25.9431 47.39C25.5058 46.3171 24.7456 45.6892 23.5481 45.6843C21.9706 45.6769 20.3905 45.6521 18.8129 45.6942C17.3844 45.7337 16.4106 46.5569 16.3683 47.9585C16.2864 50.6876 16.346 53.4192 16.346 56.2151ZM16.3559 74.953C16.3559 77.7934 16.2888 80.3989 16.3832 82.997C16.4329 84.3764 17.4714 85.1773 18.8825 85.1946C20.3061 85.2119 21.7271 85.202 23.1506 85.1996C24.9667 85.1971 26.1642 84.1292 26.3406 82.3048C26.358 82.1194 26.1344 81.8154 25.9456 81.7214C22.4625 80.0083 19.2254 77.9491 16.3559 74.953ZM65.5165 18.1707C61.9142 17.5625 58.9255 20.0024 58.8932 23.5572C58.8584 27.3171 58.8832 31.0796 58.8857 34.842C58.8857 35.0818 58.9155 35.3215 58.9329 35.5984C59.6683 35.5984 60.3565 35.5984 61.1217 35.5984C61.1217 35.2029 61.1217 34.8692 61.1217 34.5354C61.1217 30.867 61.1142 27.1985 61.1241 23.53C61.1291 21.6191 62.4582 20.2966 64.3886 20.2472C64.7488 20.2373 65.1115 20.2447 65.514 20.2447C65.5165 19.4957 65.5165 18.8579 65.5165 18.1707ZM68.6021 14.5244C68.6021 17.6614 68.6021 20.6946 68.6021 23.7475C69.6207 23.7475 70.5697 23.7475 71.5386 23.7475C71.5386 20.6427 71.5386 17.5897 71.5386 14.5244C70.5175 14.5244 69.5958 14.5244 68.6021 14.5244Z" fill="black"/>
<path d="M44.1707 72.4585C40.397 72.456 37.3189 69.3857 37.3363 65.6456C37.3536 61.8955 40.4268 58.892 44.2328 58.9019C47.9594 58.9118 51.0152 61.9524 51.0301 65.6604C51.045 69.3931 47.947 72.4609 44.1707 72.4585ZM44.1384 69.4896C46.28 69.5044 47.9892 67.858 48.0364 65.737C48.0836 63.6531 46.3595 61.8782 44.2577 61.8485C42.1037 61.8189 40.3125 63.5443 40.3001 65.6629C40.2877 67.7468 42.0218 69.4747 44.1384 69.4896Z" fill="black"/>
<path d="M63.6407 72.4587C59.8819 72.3771 56.8659 69.3192 56.9106 65.6334C56.9553 61.7647 60.103 58.8205 64.1028 58.9046C67.7002 58.9812 70.6541 62.1479 70.5895 65.8609C70.5224 69.5368 67.3623 72.5378 63.6407 72.4587ZM63.7277 69.4898C65.8667 69.4997 67.5934 67.8335 67.6281 65.7298C67.6629 63.6187 65.8841 61.8438 63.7401 61.8488C61.616 61.8512 59.9167 63.547 59.9092 65.6705C59.9042 67.7989 61.5837 69.4799 63.7277 69.4898Z" fill="black"/>
<path d="M76.527 65.7173C76.5072 61.9598 79.5058 58.9168 83.2472 58.9019C87.093 58.8846 90.1264 61.8486 90.1414 65.6382C90.1563 69.4377 87.1303 72.4684 83.3292 72.461C79.5604 72.456 76.5494 69.4698 76.527 65.7173ZM83.3292 69.4871C85.4857 69.4871 87.1651 67.8358 87.1725 65.7049C87.18 63.5765 85.5006 61.8659 83.3839 61.8461C81.2076 61.8263 79.4959 63.5246 79.5008 65.695C79.5058 67.8383 81.1728 69.4871 83.3292 69.4871Z" fill="black"/>
<path d="M34.201 54.9989C33.4308 54.9766 32.8172 54.3092 32.8644 53.5404C32.9091 52.8112 33.5476 52.2302 34.278 52.25C35.0084 52.2723 35.622 52.8927 35.6245 53.617C35.6295 54.3784 34.9686 55.0211 34.201 54.9989Z" fill="black"/>
<path d="M40.6952 52.2521C41.4604 52.262 42.1038 52.9319 42.0666 53.6834C42.0293 54.4077 41.3983 55.0034 40.6704 54.9985C39.8952 54.9936 39.294 54.3558 39.3214 53.5672C39.3487 52.8256 39.9574 52.2422 40.6952 52.2521Z" fill="black"/>
<path d="M48.4762 53.5898C48.4935 54.3759 47.8774 55.0088 47.1048 54.9989C46.3769 54.989 45.7458 54.3784 45.7235 53.6615C45.6986 52.9199 46.3669 52.25 47.1271 52.2524C47.8675 52.2549 48.4612 52.8433 48.4762 53.5898Z" fill="black"/>
<path d="M54.9554 53.607C54.9653 54.3585 54.2995 55.0111 53.5368 54.9987C52.7989 54.9864 52.2077 54.3882 52.1977 53.6416C52.1903 52.8975 52.7642 52.2845 53.4995 52.2523C54.2622 52.2177 54.9454 52.8555 54.9554 53.607Z" fill="black"/>
<path d="M66.4854 52.2526C67.2605 52.2774 67.8543 52.9374 67.8046 53.7185C67.7599 54.4552 67.1263 55.0262 66.391 54.9991C65.6631 54.9719 65.0469 54.3415 65.0469 53.6246C65.0469 52.8756 65.7252 52.2279 66.4854 52.2526Z" fill="black"/>
<path d="M72.8502 54.999C72.0751 54.9817 71.4888 54.339 71.5285 53.5454C71.5633 52.8088 72.1869 52.2303 72.9223 52.2526C73.6403 52.2748 74.2763 52.9101 74.2812 53.6171C74.2862 54.3612 73.6129 55.0138 72.8502 54.999Z" fill="black"/>
<path d="M79.3667 52.2526C80.1418 52.2774 80.7256 52.93 80.6759 53.7186C80.6312 54.4577 80.0051 55.0263 79.2698 54.9991C78.5468 54.9719 77.9282 54.339 77.9282 53.6246C77.9307 52.8731 78.6089 52.2279 79.3667 52.2526Z" fill="black"/>
<path d="M85.7217 52.2526C86.4522 52.2303 87.0931 52.8113 87.1403 53.5405C87.1875 54.3068 86.5739 54.9767 85.8037 54.999C85.0361 55.0212 84.3777 54.3835 84.3802 53.6196C84.3827 52.8928 84.9889 52.2748 85.7217 52.2526Z" fill="black"/>
<path d="M35.6246 77.7315C35.6246 78.4657 35.0308 79.0615 34.283 79.0812C33.488 79.101 32.8595 78.5003 32.8644 77.7241C32.8694 76.9948 33.4731 76.3694 34.1985 76.3447C34.9389 76.315 35.6246 76.9825 35.6246 77.7315Z" fill="black"/>
<path d="M74.2788 77.7638C74.2564 78.5251 73.5931 79.116 72.8056 79.0789C72.0478 79.0443 71.5087 78.4609 71.5261 77.6945C71.5435 76.9554 72.1472 76.3498 72.8726 76.3423C73.608 76.3349 74.2987 77.0345 74.2788 77.7638Z" fill="black"/>
<path d="M87.1403 77.7761C87.1155 78.5498 86.4671 79.1209 85.6671 79.0764C84.9292 79.0343 84.3504 78.404 84.3802 77.6772C84.41 76.9653 85.0584 76.3374 85.7665 76.3399C86.5167 76.3423 87.1652 77.0197 87.1403 77.7761Z" fill="black"/>
<path d="M42.0665 77.7564C42.0491 78.5351 41.4131 79.1135 40.6106 79.0789C39.8455 79.0468 39.3088 78.4733 39.3213 77.702C39.3337 76.9728 39.9473 76.3523 40.6628 76.3424C41.4032 76.3325 42.0814 77.0148 42.0665 77.7564Z" fill="black"/>
<path d="M47.1595 79.0788C46.3794 79.0961 45.7186 78.4757 45.7236 77.7242C45.7261 77.032 46.3745 76.367 47.0776 76.3423C47.8328 76.3126 48.4787 76.9529 48.4787 77.734C48.4762 78.4979 47.9247 79.0615 47.1595 79.0788Z" fill="black"/>
<path d="M54.953 77.7613C54.9331 78.5202 54.2723 79.116 53.4847 79.0789C52.7295 79.0443 52.1779 78.4535 52.1978 77.697C52.2152 76.9604 52.8239 76.3498 53.5493 76.3423C54.2872 76.3349 54.9704 77.0246 54.953 77.7613Z" fill="black"/>
<path d="M66.4032 76.342C67.1212 76.3173 67.7622 76.9156 67.8044 77.6473C67.8491 78.4408 67.2703 79.0662 66.4753 79.0811C65.73 79.0959 65.099 78.5323 65.0517 77.8104C65.0045 77.0787 65.6604 76.3668 66.4032 76.342Z" fill="black"/>
<path d="M80.6834 77.6871C80.7033 78.4559 80.1691 79.0393 79.4089 79.0788C78.6139 79.1184 77.963 78.5399 77.9382 77.7711C77.9133 77.0345 78.5866 76.3423 79.3269 76.3423C80.0399 76.3448 80.6635 76.9603 80.6834 77.6871Z" fill="black"/>
<path d="M61.3725 53.6267C61.37 54.3683 60.7614 54.9863 60.021 54.9962C59.2434 55.0086 58.6049 54.3559 58.6323 53.5748C58.6571 52.8307 59.2856 52.235 60.026 52.2498C60.7663 52.2646 61.375 52.8876 61.3725 53.6267Z" fill="black"/>
<path d="M61.3676 77.7243C61.3701 78.4955 60.8037 79.0666 60.0285 79.0789C59.2137 79.0938 58.6075 78.4881 58.6323 77.6872C58.6547 76.9604 59.3056 76.3325 60.0211 76.3424C60.7416 76.3548 61.3676 76.9975 61.3676 77.7243Z" fill="black"/>
</svg>
