<svg width="120" height="100" viewBox="0 0 120 100" fill="none" xmlns="http://www.w3.org/2000/svg">
<rect width="120" height="100" fill="white"/>
<path d="M19.961 48.4511C20.5351 47.2879 32.8164 27.0436 33.1276 26.538C35.4202 22.8175 39.3941 20.5964 43.7578 20.5964C44.3803 20.5964 44.9917 20.6436 45.5902 20.732L45.5928 20.7278C46.6503 19.0142 48.4806 17.991 50.4887 17.991C53.6592 17.991 56.2389 20.5705 56.2389 23.7412V33.7885H63.6633V23.7412C63.6633 20.5706 66.2428 17.991 69.4135 17.991C71.418 17.991 73.2448 19.0104 74.3116 20.732C74.9099 20.6436 75.5217 20.5964 76.1444 20.5964C80.5081 20.5964 84.482 22.8176 86.7747 26.5383C86.8063 26.5896 89.2135 30.6201 91.5244 34.4941C91.9216 35.1601 91.7036 36.0221 91.0378 36.4193C90.3719 36.8164 89.5099 36.5989 89.1127 35.9328C87.2111 32.7451 86.748 31.9723 86.6944 31.8853C84.9171 29.0008 79.526 23.4046 76.1442 23.4046C70.8105 23.4046 66.4715 27.7438 66.4715 33.0773V46.9153C69.8358 41.4287 75.8887 37.7608 82.7826 37.7608C85.896 37.7608 88.8377 38.5093 91.4378 39.8349C90.7701 38.7145 90.0646 37.5308 89.3567 36.3438C88.9596 35.6776 89.1776 34.8157 89.8437 34.4186C90.5098 34.0215 91.3716 34.2395 91.7689 34.9056C94.7523 39.9093 99.4481 47.4172 100.041 48.6567C101.234 51.1487 101.902 53.9378 101.902 56.8805C101.902 67.423 93.3252 76 82.7826 76C72.2401 76 63.6633 67.423 63.6633 56.8805V53.1496H56.2389V56.8805C56.2389 67.423 47.6619 76 37.1195 76C26.577 76 18 67.423 18 56.8805C17.9998 53.8567 18.7056 50.9952 19.961 48.4511ZM66.4715 25.2005C67.7687 23.6104 69.4491 22.3457 71.3708 21.5471C70.8392 21.0703 70.15 20.7992 69.4134 20.7992C67.7912 20.7992 66.4715 22.1189 66.4715 23.7411V25.2005ZM82.7826 73.1914C91.7767 73.1914 99.0939 65.8744 99.0939 56.8803C99.0939 47.8862 91.7767 40.569 82.7826 40.569C73.7886 40.569 66.4715 47.8862 66.4715 56.8803C66.4715 65.8744 73.7887 73.1914 82.7826 73.1914ZM63.6634 44.9496V36.5966H56.2391V44.9496H63.6634ZM56.2389 50.3413H63.6633V47.7581H56.2389V50.3413ZM53.4306 23.7412C53.4306 22.1191 52.111 20.7994 50.4888 20.7994C49.7499 20.7994 49.0584 21.0722 48.5296 21.5467C50.4519 22.3452 52.1331 23.6103 53.4306 25.2007V23.7412ZM53.4306 33.0781C53.4306 27.7444 49.0915 23.4046 43.758 23.4046C40.376 23.4046 37.296 25.1269 35.5187 28.0112C35.3502 28.2847 31.8407 34.1702 28.4643 39.8349C31.0646 38.5092 34.0063 37.7606 37.1197 37.7606C44.0136 37.7606 50.0665 41.4287 53.4308 46.9151L53.4306 33.0781ZM37.1194 73.1914C46.1134 73.1914 53.4305 65.8742 53.4305 56.8801C53.4305 47.886 46.1133 40.5689 37.1194 40.5689C28.1253 40.5689 20.8081 47.886 20.8081 56.8801C20.8081 65.8742 28.1254 73.1914 37.1194 73.1914Z" fill="black"/>
<path d="M24.8092 52.4556C25.0717 51.7261 25.8757 51.347 26.6055 51.6094C27.3351 51.8717 27.7141 52.676 27.4518 53.4057C27.0523 54.5173 26.8495 55.6863 26.8495 56.8803C26.8495 62.5432 31.4565 67.1503 37.1195 67.1503C42.7824 67.1503 47.3895 62.5432 47.3895 56.8803C47.3895 51.2174 42.7824 46.6103 37.1195 46.6103C34.2775 46.6103 31.5366 47.8043 29.5993 49.8859C29.071 50.4536 28.1826 50.4855 27.6147 49.9572C27.047 49.4289 27.0151 48.5406 27.5434 47.9726C30.0098 45.3221 33.5003 43.8019 37.1195 43.8019C44.331 43.8019 50.1978 49.6686 50.1978 56.8801C50.1978 64.0916 44.331 69.9584 37.1195 69.9584C29.908 69.9584 24.0413 64.0916 24.0413 56.8801C24.0411 55.3617 24.2995 53.8729 24.8092 52.4556Z" fill="black"/>
<path d="M82.7827 43.8022C89.9942 43.8022 95.8609 49.669 95.8609 56.8805C95.8609 64.092 89.9942 69.9588 82.7827 69.9588C75.5712 69.9588 69.7044 64.092 69.7044 56.8805C69.7044 49.669 75.5713 43.8022 82.7827 43.8022ZM82.7827 67.1503C88.4456 67.1503 93.0527 62.5434 93.0527 56.8803C93.0527 51.2174 88.4457 46.6103 82.7827 46.6103C77.1196 46.6103 72.5127 51.2173 72.5127 56.8803C72.5127 62.5434 77.1199 67.1503 82.7827 67.1503Z" fill="black"/>
<path d="M37.0783 44C44.2898 44 50.1565 49.8668 50.1565 57.0783C50.1565 64.2897 44.2898 70.1565 37.0783 70.1565C29.8668 70.1565 24 64.2897 24 57.0783C24 49.8668 29.8669 44 37.0783 44ZM37.0783 67.3481C42.7412 67.3481 47.3483 62.7412 47.3483 57.0781C47.3483 51.4152 42.7413 46.8081 37.0783 46.8081C31.4152 46.8081 26.8083 51.415 26.8083 57.0781C26.8083 62.7412 31.4155 67.3481 37.0783 67.3481Z" fill="black"/>
</svg>
