<svg width="120" height="100" viewBox="0 0 120 100" fill="none" xmlns="http://www.w3.org/2000/svg">
<rect width="120" height="100" fill="white"/>
<path d="M102.85 61.2677C102.363 62.6198 101.647 63.7651 100.274 64.4016C100.089 64.4861 100.011 64.9643 100.011 65.261C99.9965 71.5988 100.005 77.9366 99.9965 84.2744C99.9929 86.4193 98.7854 88.0807 96.8375 88.5949C96.2794 88.7423 95.6801 88.7855 95.1005 88.7855C71.6978 88.7944 48.2934 88.7801 24.8907 88.807C21.3525 88.8106 19.9304 86.2971 19.9697 83.8429C20.0681 77.6759 19.9966 71.5053 20.0109 65.3347C20.0127 64.7899 19.925 64.4555 19.3723 64.1571C17.9073 63.3678 17.1595 62.0624 17.1578 60.3796C17.1506 49.7824 17.147 39.1817 17.156 28.5809C17.1578 25.8948 19.0235 24.122 21.8444 24.1166C27.5077 24.104 33.1692 24.113 38.8325 24.113C39.1634 24.113 39.4961 24.113 39.9236 24.113C39.9397 23.7714 39.9594 23.4765 39.9666 23.1816C40.0077 21.3046 39.988 19.4257 40.0972 17.554C40.2778 14.4238 43.2204 11.4877 46.315 11.3079C47.7889 11.2234 49.2665 11.2019 50.744 11.2001C57.8848 11.1893 65.0257 11.1947 72.1683 11.1929C73.9929 11.1929 75.7065 11.5471 77.1858 12.7103C79.1821 14.2782 80.0139 16.389 80.03 18.8755C80.0407 20.5818 80.0318 22.2881 80.0318 24.113C80.42 24.113 80.7437 24.113 81.0675 24.113C86.5072 24.113 91.9469 24.1705 97.3848 24.0878C100.064 24.0465 101.995 24.9239 102.85 27.6136C102.85 38.8328 102.85 50.0503 102.85 61.2677ZM65.6947 66.3578C66.1168 66.3254 66.4209 66.32 66.7214 66.2768C71.7676 65.572 76.8138 64.8547 81.8599 64.1553C87.3211 63.3983 92.7859 62.6648 98.247 61.906C99.6262 61.7136 99.9982 61.2534 99.9982 59.8402C100 49.5756 100 39.3129 99.9982 29.0484C99.9982 27.5255 99.5278 27.0562 97.9966 27.0562C72.6674 27.0544 47.3382 27.0544 22.0089 27.0562C20.476 27.0562 20.0037 27.5237 20.0037 29.0448C20.0019 39.3093 20.0019 49.572 20.0037 59.8366C20.0037 61.2498 20.3794 61.7136 21.7514 61.9078C25.4738 62.4346 29.1981 62.9398 32.9223 63.4559C38.8808 64.2811 44.8374 65.1082 50.7959 65.9298C51.9353 66.0863 53.0784 66.2211 54.3109 66.3793C54.3109 65.5289 54.2894 64.8313 54.3144 64.1355C54.3967 61.9923 56.0442 60.2321 58.1621 60.1009C59.3552 60.0271 60.5609 60.0218 61.7558 60.0937C63.9846 60.2267 65.6178 61.9689 65.6947 64.2146C65.7144 64.8834 65.6947 65.5523 65.6947 66.3578ZM22.8568 64.9805C22.8568 65.3311 22.8568 65.5792 22.8568 65.8292C22.8568 71.8289 22.855 77.8287 22.8586 83.8303C22.8586 85.4107 23.3183 85.862 24.9086 85.862C48.3077 85.862 71.7068 85.862 95.1077 85.862C96.6926 85.862 97.1415 85.4125 97.1415 83.8141C97.1433 77.8143 97.1433 71.8146 97.1398 65.813C97.1398 65.5487 97.1111 65.2862 97.0932 64.9877C86.5895 66.4459 76.1752 67.8914 65.6893 69.346C65.6893 70.6836 65.7233 71.9422 65.6822 73.199C65.6106 75.3961 63.8451 77.1671 61.6646 77.2498C60.7183 77.2857 59.7684 77.2803 58.8204 77.2696C56.037 77.2372 54.3234 75.4986 54.2948 72.6812C54.284 71.5916 54.293 70.5038 54.293 69.3442C43.8125 67.8878 33.3964 66.4423 22.8568 64.9805ZM77.0946 24.0788C77.0946 22.0885 77.1268 20.1844 77.0857 18.284C77.0356 15.9449 75.245 14.1487 72.9035 14.1415C64.3137 14.1181 55.724 14.1181 47.136 14.1397C44.7104 14.1451 42.9485 15.9503 42.9038 18.4081C42.8734 20.1179 42.893 21.8278 42.8984 23.5376C42.8984 23.721 42.9538 23.9026 42.9807 24.0626C43.8983 24.0626 44.7534 24.0626 45.6978 24.0626C45.6978 22.4229 45.6961 20.8299 45.6978 19.2369C45.6996 17.3239 46.0556 16.9589 47.9303 16.9589C55.8224 16.9571 63.7145 16.9589 71.6066 16.9589C74.1306 16.9589 74.3005 17.1315 74.3005 19.699C74.3005 21.1482 74.3005 22.5973 74.3005 24.077C75.2718 24.0788 76.1287 24.0788 77.0946 24.0788ZM48.6279 24.0519C56.257 24.0519 63.7986 24.0519 71.3401 24.0519C71.3401 22.6333 71.3401 21.2758 71.3401 19.9201C63.7395 19.9201 56.1962 19.9201 48.6279 19.9201C48.6279 21.3154 48.6279 22.653 48.6279 24.0519ZM57.1497 68.5908C57.1497 69.9645 57.1353 71.3363 57.155 72.7099C57.1711 73.8175 57.7131 74.3641 58.8025 74.3928C59.611 74.4144 60.4196 74.4162 61.2263 74.391C62.2727 74.3605 62.8344 73.8157 62.8434 72.7657C62.863 70.0202 62.8648 67.2747 62.8416 64.5274C62.8326 63.4828 62.2566 62.9596 61.1995 62.9416C60.4464 62.9273 59.6951 62.9344 58.942 62.9398C57.6809 62.9506 57.164 63.4595 57.1532 64.7234C57.1407 66.0143 57.1497 67.3035 57.1497 68.5908Z" fill="black"/>
</svg>
