<svg width="120" height="100" viewBox="0 0 120 100" fill="none" xmlns="http://www.w3.org/2000/svg">
<rect width="120" height="100" fill="white"/>
<path d="M62.0687 8.00168C62.9518 8.43782 63.2404 9.14518 63.2187 10.1216C63.1666 12.4216 63.2057 14.7216 63.2013 17.0238C63.1992 18.2216 62.5981 18.9181 61.5805 18.9181C60.5672 18.9181 59.964 18.2194 59.9618 17.0216C59.9574 14.7216 59.9965 12.4194 59.9444 10.1194C59.9227 9.14301 60.2113 8.43565 61.0944 7.99951C61.4199 8.00168 61.7432 8.00168 62.0687 8.00168Z" fill="black"/>
<path d="M20.0022 49.0935C20.4362 48.2082 21.1479 47.9218 22.1221 47.9435C24.4482 47.9956 26.7764 47.9565 29.1046 47.9609C30.2329 47.963 30.9186 48.5858 30.9186 49.5796C30.9186 50.5733 30.2329 51.1961 29.1046 51.2004C26.7764 51.2069 24.4482 51.1679 22.1221 51.2199C21.1457 51.2416 20.4362 50.9531 20 50.0699C20.0022 49.7423 20.0022 49.419 20.0022 49.0935Z" fill="black"/>
<path d="M61.5479 23.7155C75.7972 23.6634 87.3689 35.1982 87.4448 49.5256C87.5186 63.7878 75.8753 75.455 61.5762 75.4463C47.2944 75.4376 35.7357 63.8811 35.7183 49.5928C35.701 35.3241 47.2358 23.7676 61.5479 23.7155ZM61.5675 72.172C74.0418 72.1785 84.1684 62.065 84.1727 49.5928C84.177 37.112 74.0722 26.9941 61.5957 26.9876C49.1192 26.9811 38.997 37.0925 38.9904 49.5625C38.9861 62.0411 49.0975 72.1655 61.5675 72.172Z" fill="black"/>
<path d="M97.9467 69.4687C97.8057 70.7619 96.6058 71.606 95.5426 71.0288C93.1927 69.7529 90.884 68.399 88.5883 67.0233C87.8527 66.5828 87.703 65.6628 88.1022 64.9424C88.5145 64.1982 89.4367 63.8228 90.1874 64.2394C92.5243 65.5391 94.8439 66.8757 97.1287 68.2666C97.5041 68.4944 97.6777 69.0586 97.9467 69.4687Z" fill="black"/>
<path d="M96.0437 27.9663C96.9897 28.014 97.504 28.4024 97.7448 29.1076C97.9922 29.8237 97.7166 30.5701 97.0201 30.9976C95.9634 31.6442 94.8785 32.2474 93.8066 32.8679C92.7108 33.5015 91.6216 34.1481 90.5171 34.7687C89.5689 35.3025 88.6098 35.0898 88.1216 34.2718C87.6291 33.4473 87.9177 32.4947 88.8637 31.9436C90.9576 30.722 93.0602 29.5091 95.1671 28.3113C95.486 28.1269 95.8549 28.0379 96.0437 27.9663Z" fill="black"/>
<path d="M83.1919 84.1084C83.155 84.9807 82.7753 85.5188 82.0615 85.7358C81.3606 85.9506 80.6554 85.8074 80.2648 85.1521C78.8935 82.8543 77.5504 80.5413 76.2485 78.2043C75.8254 77.4471 76.1834 76.5292 76.9211 76.1083C77.6567 75.6874 78.6049 75.8609 79.0628 76.6291C80.4167 78.9052 81.7208 81.2096 83.0292 83.5117C83.1442 83.7135 83.1572 83.9739 83.1919 84.1084Z" fill="black"/>
<path d="M41.7526 13.1855C42.1757 13.5132 42.7399 13.7562 43.0003 14.1837C44.3195 16.3535 45.578 18.5624 46.8235 20.7756C47.3247 21.6674 47.0296 22.6308 46.2051 23.0713C45.4044 23.4987 44.5018 23.2383 43.9876 22.3617C42.7139 20.1963 41.4467 18.0243 40.2207 15.8306C39.5568 14.6458 40.3227 13.3439 41.7526 13.1855Z" fill="black"/>
<path d="M81.4451 13.1958C82.7557 13.3542 83.6019 14.5563 83.0269 15.6195C81.7532 17.9716 80.3993 20.2803 79.0236 22.5738C78.5679 23.3332 77.5937 23.4678 76.8711 23.0229C76.1508 22.5781 75.8405 21.6711 76.2723 20.903C77.5525 18.616 78.8565 16.342 80.2192 14.1028C80.4644 13.6992 81.0285 13.4931 81.4451 13.1958Z" fill="black"/>
<path d="M27.2213 27.99C27.3384 28.0334 27.6335 28.1006 27.883 28.2438C30.042 29.4763 32.1967 30.7174 34.347 31.9629C35.0196 32.3535 35.3711 32.9415 35.2344 33.7226C35.1129 34.4257 34.6594 34.9226 33.9564 35.018C33.5615 35.0723 33.0776 34.9833 32.7304 34.788C30.5367 33.5621 28.3626 32.2992 26.1949 31.0277C25.4507 30.5916 25.1751 29.83 25.4181 29.0814C25.6394 28.4001 26.2947 27.9574 27.2213 27.99Z" fill="black"/>
<path d="M27.1778 71.1759C26.2534 71.1889 25.5981 70.718 25.4028 70.0345C25.1945 69.3055 25.4636 68.5656 26.1666 68.149C27.7007 67.2398 29.2521 66.361 30.797 65.4692C31.4523 65.0917 32.0989 64.6946 32.7672 64.3409C33.6742 63.8614 34.6203 64.1261 35.0672 64.9485C35.499 65.7448 35.243 66.6626 34.3707 67.1747C32.2052 68.4484 30.0224 69.696 27.8396 70.9415C27.5922 71.0826 27.2928 71.1368 27.1778 71.1759Z" fill="black"/>
<path d="M41.6963 85.9354C40.4161 85.8117 39.5569 84.6118 40.1297 83.5508C41.4012 81.1987 42.7574 78.8922 44.1287 76.5943C44.567 75.8609 45.487 75.7025 46.2095 76.0909C46.9538 76.4945 47.3444 77.4189 46.9278 78.1696C45.615 80.5326 44.261 82.8716 42.8615 85.1803C42.6424 85.5383 42.0934 85.6902 41.6963 85.9354Z" fill="black"/>
<path d="M97.6798 51.203C96.4365 51.203 95.1954 51.2138 93.9521 51.2008C92.9084 51.1899 92.2335 50.5325 92.2422 49.5647C92.2509 48.6057 92.9279 47.9677 93.9868 47.9634C96.4712 47.9547 98.9557 47.9526 101.44 47.9634C102.484 47.9677 103.163 48.636 103.154 49.5973C103.146 50.552 102.46 51.1899 101.405 51.1986C100.164 51.2095 98.9231 51.203 97.6798 51.203Z" fill="black"/>
<path d="M59.9595 85.7207C59.9595 84.5056 59.9551 83.2905 59.9617 82.0754C59.9682 80.9449 60.5735 80.2571 61.5586 80.2462C62.5546 80.2354 63.1969 80.9189 63.2012 82.0298C63.2077 84.4882 63.2099 86.9445 63.2012 89.4029C63.1969 90.4618 62.5589 91.1474 61.6064 91.1583C60.6169 91.1691 59.9725 90.4769 59.9638 89.3682C59.9551 88.1509 59.9595 86.9358 59.9595 85.7207Z" fill="black"/>
</svg>
