<svg width="120" height="100" viewBox="0 0 120 100" fill="none" xmlns="http://www.w3.org/2000/svg">
<rect width="120" height="100" fill="white"/>
<path d="M46.8133 45.7918C49.2764 44.0957 51.7879 42.8542 54.5039 42.0433C58.8716 40.7385 63.3249 40.5002 67.8487 40.9046C72.2691 41.3002 76.4828 42.5963 80.7536 43.6608C84.4483 44.5809 88.2001 44.9591 92.0003 44.4148C92.46 44.3493 92.9086 44.2203 93.3616 44.1219C94.558 43.8662 95.2375 44.5722 94.9033 45.7416C93.7025 49.9338 91.9036 53.8571 89.5174 57.5138C89.3283 57.8023 89.1436 58.093 88.8665 58.5214C91.4747 57.9466 93.7861 57.0679 96.0117 55.951C96.28 55.8155 96.5483 55.6778 96.8122 55.5336C97.3422 55.2429 97.8722 55.1992 98.334 55.6254C98.7981 56.056 98.7563 56.5783 98.5254 57.1291C97.1772 60.3618 95.5059 63.4174 93.4298 66.248C87.7031 74.0531 80.0169 79.1371 70.8924 82.1818C64.6577 84.2626 58.2272 85.2265 51.6538 85.091C45.5576 84.9664 39.5868 84.0659 33.981 81.5305C29.4418 79.4781 25.7186 76.4487 23.4754 71.9286C20.9089 66.755 21.5203 61.6339 24.0516 56.6199C25.3953 53.9599 27.2602 51.6867 29.3737 49.5993C33.1343 45.8836 36.7366 42.0324 39.6329 37.5888C41.0998 35.3441 42.4215 33.0119 42.7866 30.3038C42.8922 29.517 42.8592 28.6471 42.6261 27.8952C42.0807 26.1313 40.141 25.2264 38.2057 25.8231C36.3385 26.4002 34.7595 27.4056 33.6951 29.1389C31.3859 32.9092 27.9266 35.3441 23.9878 37.1867C23.7151 37.3134 23.4336 37.4205 23.1587 37.5451C22.5495 37.8205 21.969 37.838 21.5357 37.2588C21.1289 36.7167 21.3202 36.2097 21.6765 35.6873C22.8157 34.0217 23.9416 32.3475 25.028 30.6492C25.4085 30.0569 25.6504 29.3793 25.9715 28.7476C26.8336 27.0515 27.1261 25.3292 26.7236 23.4079C26.4861 22.2735 26.6379 21.0145 26.8292 19.8474C27.1019 18.1993 28.1465 17.0824 29.7167 16.4486C32.767 15.2202 35.9383 14.7678 39.2107 14.9273C41.9069 15.0585 44.48 15.6246 46.7584 17.1371C49.9252 19.2397 51.4976 22.2976 52.1002 25.9608C52.9227 30.9464 51.7549 35.5889 49.7009 40.074C48.841 41.9515 47.8404 43.7679 46.8133 45.7918ZM95.0198 59.1815C92.5721 59.8504 90.1662 60.5629 87.7273 61.1443C86.9729 61.3235 86.4583 61.6514 85.9833 62.2109C84.136 64.3879 82.0423 66.3092 79.7222 67.979C74.3055 71.8805 68.2336 74.0007 61.5854 74.5318C56.6921 74.9209 51.8319 74.7766 47.0882 73.3581C44.315 72.5297 41.7706 71.2532 39.9188 68.9648C37.0995 65.4829 36.7124 61.5618 38.0429 57.398C39.0699 54.1806 40.8337 51.3195 42.4677 48.3928C44.326 45.064 46.2679 41.7679 47.9063 38.332C49.8328 34.2906 50.5828 30 49.6371 25.5281C48.8036 21.585 46.5318 18.9425 42.6019 17.7906C40.5214 17.1808 38.3706 17.0125 36.2484 17.2923C34.3637 17.5393 32.5053 18.0529 30.6778 18.5928C30.1258 18.7567 29.5188 19.3162 29.2879 19.8474C28.6919 21.2069 28.8679 22.656 29.1581 24.068C31.7532 24.1489 31.839 24.1795 33.4884 25.622C34.577 25.0297 35.5952 24.3806 36.6904 23.9019C38.2387 23.2221 39.8573 23.0735 41.4869 23.7074C44.2689 24.7871 45.6873 27.587 45.1068 30.8066C44.5636 33.8185 43.1605 36.4545 41.5045 38.9746C38.5773 43.4269 34.9882 47.3262 31.2078 51.0594C29.4682 52.7752 27.8628 54.5959 26.6489 56.7248C24.1792 61.0591 23.2555 65.5791 25.2986 70.3287C26.882 74.0094 29.7365 76.5733 33.1585 78.5339C37.6449 81.1043 42.5997 82.0966 47.6798 82.5315C53.4813 83.0277 59.2432 82.6299 64.9282 81.3971C73.2851 79.583 80.7514 76.0094 86.9839 70.0883C90.3223 66.908 92.99 63.2426 95.0198 59.1815ZM92.1499 46.8126C91.7474 46.8322 91.4747 46.8344 91.2064 46.8628C87.1973 47.2934 83.2695 46.7601 79.4165 45.7219C75.2402 44.5962 71.0815 43.4509 66.7337 43.1602C61.6601 42.8214 56.6987 43.2455 52.0386 45.4137C46.2679 48.0978 42.0521 52.2637 40.1739 58.4428C38.5839 63.671 40.6578 68.0665 45.661 70.3221C46.3317 70.6238 47.0267 70.8926 47.7326 71.0915C53.875 72.8248 60.0789 72.8138 66.2719 71.4893C75.2182 69.5768 82.0247 64.5322 87.0917 57.0548C89.2249 53.9052 90.9051 50.5305 92.1499 46.8126ZM26.5873 33.095C28.461 31.895 30.062 30.3344 31.3595 28.4591C32.0721 27.4318 31.6674 26.551 30.3853 26.4176C29.9103 26.3674 29.3693 26.2122 29.0944 26.9204C28.2939 28.9859 27.4318 31.0273 26.5873 33.095Z" fill="black"/>
<path d="M34.3065 21.128C34.3065 21.7837 33.7809 22.3061 33.1146 22.3148C32.457 22.3214 31.8984 21.8033 31.8742 21.1629C31.85 20.5138 32.468 19.893 33.119 19.9105C33.7633 19.9258 34.3065 20.4832 34.3065 21.128Z" fill="black"/>
<path d="M65.4935 65.7956C61.4953 65.7365 57.6555 65.1442 54.0708 63.3738C53.7036 63.1924 53.3429 62.9956 52.9998 62.7727C52.3489 62.3509 52.1663 61.7454 52.4852 61.1728C52.8173 60.5761 53.4617 60.4908 54.2028 60.7837C56.0237 61.5072 57.8227 62.353 59.7118 62.8186C63.3449 63.7126 67.0461 63.5945 70.7298 63.0044C71.0267 62.9563 71.3236 62.8929 71.6227 62.8667C72.3748 62.8033 72.907 63.1924 72.9906 63.8503C73.0697 64.471 72.6343 65.0349 71.902 65.1551C70.7408 65.3453 69.5774 65.5245 68.4074 65.6426C67.4244 65.7409 66.4347 65.7497 65.4935 65.7956Z" fill="black"/>
<path d="M71.3344 58.6499C68.3721 58.7046 65.5021 58.2062 62.7223 57.1964C61.8075 56.8642 61.4622 56.3353 61.6931 55.6315C61.913 54.9626 62.5684 54.7244 63.4723 55.0195C69.0846 56.8555 74.664 56.803 80.2192 54.7681C81.0813 54.4534 81.752 54.7025 81.9983 55.3823C82.2403 56.0511 81.8664 56.6544 80.9889 56.9691C77.8704 58.0904 74.6618 58.7111 71.3344 58.6499Z" fill="black"/>
</svg>
