<svg width="120" height="100" viewBox="0 0 120 100" fill="none" xmlns="http://www.w3.org/2000/svg">
<rect width="120" height="100" fill="white"/>
<path d="M41.5559 79.3643C40.0148 79.3643 38.5084 79.3837 37.0019 79.3605C34.7298 79.3257 32.8828 77.8119 32.4557 75.5829C32.321 74.8831 32.373 74.1426 32.3807 73.4215C32.3864 73.0213 32.2864 72.7894 31.9035 72.5767C30.2701 71.67 29.4082 70.2452 29.5063 68.37C29.691 64.8321 29.9334 61.2981 30.197 57.7661C30.601 52.3569 31.461 47.0115 32.6904 41.7318C33.3446 38.9247 34.0583 36.1234 34.9241 33.3763C36.6595 27.8627 40.5035 24.6786 46.0983 23.538C47.5297 23.2461 48.9514 22.9135 50.3828 22.6274C50.8773 22.5288 51.1678 22.3374 51.2602 21.7845C51.391 21.0054 51.6122 20.2379 51.8239 19.4743C52.3857 17.4444 54.1056 16.0583 56.1989 16.0273C58.7423 15.9906 61.2877 15.9945 63.8311 16.0254C65.9243 16.0525 67.6616 17.4251 68.2273 19.4472C68.4601 20.2805 68.6159 21.135 68.8737 21.9605C68.9449 22.1905 69.2296 22.4573 69.4624 22.5153C71.4402 22.9947 73.4526 23.3389 75.4074 23.8937C80.4076 25.3146 83.6783 28.5857 85.204 33.5696C87.2645 40.2992 88.7228 47.1681 89.4943 54.1645C89.9272 58.089 90.1331 62.0405 90.4044 65.9805C90.4852 67.152 90.566 68.3468 90.4217 69.5028C90.2504 70.8909 89.3943 71.9291 88.1534 72.5748C87.7647 72.7778 87.6628 73.0117 87.6685 73.4138C87.6782 74.1349 87.7282 74.8753 87.5935 75.5752C87.1664 77.8119 85.329 79.3218 83.053 79.3585C81.5466 79.3837 80.0382 79.3624 78.5434 79.3624C78.4375 79.8689 78.3798 80.3213 78.2471 80.7485C77.643 82.6837 75.8787 83.9848 73.7816 83.9887C64.6141 84.0003 55.4466 84.0041 46.2791 83.9887C43.6837 83.9848 41.8118 82.1579 41.5559 79.3643ZM80.0229 70.0886C82.0584 70.0886 83.9765 70.1234 85.8908 70.0751C86.9509 70.048 87.48 69.3888 87.4338 68.31C87.3915 67.3221 87.3318 66.3362 87.2568 65.3502C86.9663 61.5553 86.7758 57.7487 86.3429 53.9692C85.583 47.313 84.1785 40.7767 82.1892 34.3796C80.9906 30.5286 78.4318 28.0096 74.53 26.9598C72.4503 26.3992 70.3513 25.9178 68.2523 25.4345C67.9502 25.3649 67.5808 25.419 67.2807 25.5273C62.4459 27.2749 57.6187 27.2672 52.7801 25.537C52.4434 25.4152 52.022 25.392 51.6719 25.4693C49.8961 25.8617 48.1376 26.3257 46.3618 26.7201C42.3158 27.6229 39.3511 29.8848 38.0235 33.8731C36.1612 39.4699 34.8875 45.229 34.1045 51.079C33.6255 54.6574 33.3138 58.2591 32.9925 61.8549C32.7982 64.0144 32.7154 66.1835 32.6096 68.3506C32.5596 69.3868 33.1079 69.99 34.1391 70.048C34.8337 70.0867 35.5301 70.0616 36.2266 70.0635C37.4695 70.0654 38.7123 70.0635 40.0225 70.0635C40.0225 69.6942 40.0225 69.41 40.0225 69.1239C40.0225 60.2735 40.0206 51.4231 40.0244 42.5727C40.0244 41.4302 40.6439 40.7342 41.6097 40.7458C42.5409 40.7593 43.1354 41.4495 43.147 42.5495C43.1566 43.5374 43.17 44.5272 43.1393 45.5151C43.1239 45.9888 43.2566 46.3136 43.6337 46.6209C45.1055 47.8196 46.5504 49.0549 48.0068 50.2728C48.9399 51.0519 49.8769 51.8252 50.8119 52.6024C53.515 50.3405 56.1489 48.1308 58.7885 45.9308C59.737 45.1401 60.3103 45.1439 61.2723 45.9404C62.6248 47.0598 63.9638 48.1927 65.3106 49.3178C66.615 50.4101 67.9194 51.5005 69.245 52.6082C71.7403 50.5164 74.1914 48.4691 76.6252 46.3986C76.7887 46.2594 76.8753 45.9462 76.8811 45.7123C76.908 44.5794 76.8695 43.4446 76.9042 42.3117C76.933 41.3799 77.5929 40.7458 78.451 40.7439C79.311 40.7419 79.9478 41.3702 80.0152 42.3001C80.0325 42.5399 80.0209 42.7815 80.0209 43.0232C80.0209 51.7286 80.0209 60.434 80.0209 69.1394C80.0229 69.4294 80.0229 69.7136 80.0229 70.0886ZM60.0333 56.668C59.8024 56.8575 59.6331 56.9909 59.4676 57.1301C57.0185 59.1832 54.5732 61.2421 52.1163 63.2875C51.0793 64.1516 50.5368 64.1458 49.5171 63.301C48.4435 62.4117 47.3777 61.5127 46.308 60.6176C45.3018 59.7767 44.2955 58.9396 43.1874 58.0155C43.17 58.3905 43.1527 58.6187 43.1527 58.8487C43.1508 63.4769 43.1508 68.107 43.1527 72.7352C43.1527 74.1852 43.6472 74.6917 45.094 74.6917C55.0503 74.6955 65.0085 74.6955 74.9649 74.6917C76.4059 74.6917 76.8945 74.1813 76.8945 72.7236C76.8965 68.0954 76.8965 63.4653 76.8926 58.8371C76.8926 58.609 76.8695 58.3828 76.8522 58.058C76.5829 58.2668 76.3943 58.4041 76.2154 58.5529C74.2588 60.1846 72.3098 61.8259 70.3474 63.4479C69.5894 64.0743 68.9314 64.0743 68.1965 63.502C67.931 63.2952 67.6789 63.0729 67.4211 62.8563C64.9739 60.8071 62.5247 58.7559 60.0333 56.668ZM43.1508 50.2612C43.1508 50.9649 43.2181 51.5005 43.1373 52.0108C42.9199 53.397 43.4567 54.3056 44.5668 55.1524C46.7005 56.7802 48.711 58.5742 50.8023 60.3238C51.1062 60.0744 51.3833 59.8501 51.6565 59.6201C54.0325 57.6288 56.4086 55.6357 58.7846 53.6464C59.7081 52.8731 60.3392 52.875 61.2703 53.6541C62.1727 54.41 63.0731 55.1698 63.9773 55.9257C65.7242 57.3872 67.4731 58.8468 69.2489 60.3315C71.7327 58.2475 74.1799 56.1982 76.6175 54.1374C76.7483 54.0272 76.8772 53.8281 76.8792 53.6676C76.9022 52.5927 76.8907 51.5179 76.8907 50.3134C76.6348 50.5068 76.4867 50.6112 76.3462 50.7272C74.3723 52.3762 72.4041 54.0291 70.4263 55.6743C69.5625 56.3935 68.9103 56.3896 68.0503 55.6743C67.1441 54.9223 66.2456 54.1606 65.3433 53.4047C63.5791 51.9258 61.8129 50.4488 60.0333 48.9582C59.8813 49.08 59.7697 49.1651 59.6619 49.256C57.1551 51.3535 54.6482 53.4492 52.1413 55.5467C51.0793 56.436 50.5194 56.4283 49.4344 55.5197C47.395 53.8068 45.3499 52.0998 43.1508 50.2612ZM44.7207 77.8119C44.7015 78.0304 44.6823 78.1947 44.6746 78.359C44.6053 79.9733 44.7323 80.8935 47.091 80.8781C55.8045 80.822 64.5179 80.8549 73.2314 80.8549C73.495 80.8549 73.7624 80.8684 74.0221 80.8394C74.657 80.7717 75.1457 80.4218 75.2688 79.809C75.3977 79.1671 75.3554 78.4924 75.3881 77.81C65.1067 77.8119 54.9541 77.8119 44.7207 77.8119ZM65.9493 22.7744C65.7339 21.8947 65.5626 21.0731 65.3241 20.2708C65.1201 19.5864 64.6411 19.1669 63.8984 19.165C61.3319 19.1572 58.7654 19.1553 56.1989 19.1688C55.5236 19.1727 55.0368 19.5478 54.856 20.1761C54.6136 21.019 54.4712 21.8909 54.2807 22.784C58.2151 23.9962 62.0611 24.0058 65.9493 22.7744ZM40.9614 76.2073C40.5766 75.1615 40.2187 74.189 39.859 73.2147C38.4507 73.2147 36.9808 73.2147 35.5051 73.2147C35.5051 73.841 35.4551 74.4191 35.5186 74.9855C35.5975 75.6873 36.0669 76.1609 36.748 76.1899C38.1736 76.2499 39.6031 76.2073 40.9614 76.2073ZM84.5922 73.1953C83.0357 73.1953 81.5601 73.1953 80.2037 73.1953C79.8131 74.2354 79.4438 75.2195 79.0667 76.2228C80.1864 76.2228 81.335 76.2228 82.4816 76.2228C84.1574 76.2228 84.5903 75.782 84.5903 74.0788C84.5922 73.7966 84.5922 73.5124 84.5922 73.1953Z" fill="black"/>
</svg>
