<svg width="120" height="100" viewBox="0 0 120 100" fill="none" xmlns="http://www.w3.org/2000/svg">
<rect width="120" height="100" fill="white"/>
<path d="M24.5874 81.8131C24.9224 81.2631 25.4136 81.0723 26.0471 81.1087C26.6858 81.1452 27.328 81.1174 28.0119 81.1174C28.2132 79.202 28.4076 77.3526 28.6003 75.5014C29.0897 70.8031 29.5774 66.1066 30.0651 61.4084C30.5459 56.7795 31.0232 52.1507 31.5023 47.5218C31.9917 42.801 32.4846 38.0802 32.9741 33.3612C33.4097 29.1452 33.8419 24.9276 34.2776 20.7117C34.3175 20.3213 34.3574 19.9309 34.4181 19.5458C34.6542 18.0485 35.8639 16.9381 37.3896 16.8167C37.6638 16.7941 37.9415 16.7993 38.2175 16.7993C52.7431 16.7993 67.2705 16.7993 81.7962 16.7993C84.2573 16.7993 85.4029 17.7709 85.6788 20.2328C86.144 24.4002 86.5501 28.5727 86.9823 32.7435C87.4717 37.4643 87.9647 42.1851 88.4524 46.9059C88.9332 51.5573 89.4105 56.2105 89.893 60.8619C90.3772 65.5358 90.8667 70.2115 91.3527 74.8855C91.5644 76.924 91.7744 78.9643 91.9949 81.1157C92.5173 81.1157 93.0362 81.1157 93.5552 81.1157C93.8086 81.1157 94.0637 81.1052 94.3154 81.1209C94.9715 81.1608 95.4037 81.5667 95.4141 82.1358C95.4245 82.7031 94.9958 83.175 94.3484 83.1802C92.158 83.2028 89.9676 83.2028 87.7772 83.182C87.1212 83.175 86.7046 82.7222 86.7063 82.1462C86.7098 81.5702 87.1316 81.1486 87.7876 81.1243C88.4732 81.1 89.1588 81.1191 89.9051 81.1191C87.9803 62.5517 86.0641 44.0693 84.1445 25.5591C81.9854 25.5591 79.8956 25.5591 77.7278 25.5591C77.7157 25.8037 77.6931 26.0466 77.6931 26.2895C77.6914 35.5333 77.6948 44.7789 77.6827 54.0227C77.6827 54.4564 77.7729 54.7167 78.1964 54.937C79.3975 55.5651 79.8922 56.6425 79.9043 57.9576C79.9165 59.3611 79.9078 60.7664 79.9078 62.2863C80.3348 62.2863 80.7183 62.2741 81.1002 62.2897C81.7059 62.314 82.0531 62.6766 82.0895 63.2439C82.1259 63.8182 81.8014 64.212 81.2147 64.3023C80.8103 64.3647 80.3972 64.3595 79.9616 64.3873C79.8384 65.1541 79.8175 65.7388 80.6767 66.2055C81.8482 66.8405 82.3325 68.2632 82.0131 69.5644C81.6782 70.9228 80.7999 71.7521 79.4253 72.0332C79.1337 72.0922 78.8299 72.1113 78.5314 72.1113C74.3121 72.1165 70.0927 72.1182 65.8733 72.113C64.2401 72.1113 63.0286 71.3462 62.5201 70.0293C61.9716 68.6101 62.4975 66.9741 63.7732 66.1326C64.615 65.5792 64.6532 65.4786 64.4258 64.3994C63.6361 64.2207 62.3708 64.6926 62.3569 63.3168C62.343 61.9098 63.6152 62.4077 64.5178 62.2151C64.5178 61.5229 64.516 60.8167 64.5178 60.1106C64.5213 59.2813 64.5108 58.4503 64.5403 57.621C64.5837 56.3874 65.1895 55.4766 66.2638 54.9006C66.6162 54.7115 66.7464 54.505 66.7464 54.106C66.7359 44.7928 66.7377 35.4795 66.7359 26.1646C66.7359 25.9842 66.7134 25.8037 66.6995 25.5765C62.2371 25.5765 57.8026 25.5765 53.2742 25.5765C53.2742 25.8367 53.2742 26.0831 53.2742 26.3294C53.2742 35.5507 53.2777 44.7719 53.2638 53.9932C53.2638 54.4668 53.4027 54.7236 53.8262 54.9526C54.8242 55.4939 55.4143 56.3579 55.456 57.5082C55.5046 58.8198 55.4855 60.1349 55.4941 61.4483C55.4959 61.6964 55.4941 61.9427 55.4941 62.2082C56.3637 62.4251 57.6915 61.8872 57.655 63.3411C57.622 64.703 56.3463 64.2068 55.541 64.4168C55.4403 65.1507 55.3848 65.7319 56.2405 66.1795C57.412 66.7919 57.8997 68.2042 57.6394 69.5245C57.3964 70.7615 56.355 71.7834 55.0706 72.028C54.8224 72.0748 54.5673 72.1113 54.3156 72.1113C49.9817 72.1165 45.6461 72.1269 41.3121 72.1095C39.6077 72.1026 38.3043 71.0755 37.9866 69.5418C37.702 68.1608 38.1133 66.9515 39.2988 66.2367C40.1024 65.7527 40.2187 65.2201 40.0347 64.4029C39.238 64.2311 37.9328 64.6718 37.9398 63.2908C37.9467 61.9306 39.2276 62.4025 40.0972 62.2238C40.0972 60.966 40.1284 59.7272 40.0903 58.4902C40.0399 56.8611 40.5085 55.5442 42.0602 54.767C42.1939 54.6993 42.2963 54.4478 42.3032 54.276C42.3327 53.6774 42.3154 53.0771 42.3154 52.4786C42.3154 43.7882 42.3154 35.0961 42.3154 26.4058C42.3154 26.1351 42.3154 25.8662 42.3154 25.5643C40.1441 25.5643 38.0526 25.5643 35.8622 25.5643C33.9495 44.0363 32.0334 62.5187 30.1051 81.1174C30.775 81.1174 31.4068 81.1105 32.0386 81.1191C32.8422 81.1313 33.316 81.5303 33.3039 82.1722C33.2917 82.7916 32.837 83.1872 32.0698 83.1907C29.994 83.2011 27.9199 83.1855 25.844 83.2011C25.273 83.2045 24.8964 82.9339 24.5857 82.5054C24.5874 82.2729 24.5874 82.0439 24.5874 81.8131ZM44.4363 23.406C46.6909 23.406 48.9126 23.406 51.1463 23.406C51.2991 22.5576 50.8947 21.3015 52.2294 21.2877C53.637 21.2738 53.1423 22.601 53.3176 23.3974C57.8078 23.3974 62.2423 23.3974 66.7411 23.3974C66.7411 23.0296 66.7273 22.7086 66.7446 22.3911C66.7811 21.6867 67.1924 21.2408 67.7791 21.246C68.3275 21.2512 68.7493 21.6832 68.8066 22.3408C68.8378 22.6947 68.8118 23.0538 68.8118 23.4078C71.1341 23.4078 73.3384 23.4078 75.5721 23.4078C75.7249 22.5715 75.2701 21.2981 76.6222 21.2877C77.9968 21.2773 77.5872 22.5681 77.733 23.4008C79.8175 23.4008 81.8569 23.4008 83.9137 23.4008C83.8685 22.896 83.8304 22.4379 83.7852 21.9799C83.7401 21.5219 83.6898 21.0639 83.6446 20.6041C83.5006 19.1537 83.1934 18.8761 81.7267 18.8761C67.248 18.8761 52.7692 18.8761 38.2904 18.8761C38.037 18.8761 37.7801 18.8639 37.5302 18.8969C37.0043 18.968 36.586 19.2456 36.5079 19.7817C36.3326 20.9771 36.2198 22.1812 36.0809 23.3956C38.2105 23.3956 40.2482 23.3956 42.2876 23.3956C42.4039 22.5334 42.0411 21.331 43.3203 21.2877C44.7418 21.2408 44.2905 22.5472 44.4363 23.406ZM44.4363 25.5487C44.4363 35.2089 44.4363 44.8066 44.4363 54.4564C46.684 54.4564 48.9039 54.4564 51.1342 54.4564C51.1342 44.8032 51.1342 35.1881 51.1342 25.5487C48.89 25.5487 46.7048 25.5487 44.4363 25.5487ZM68.8777 25.547C68.8777 35.2228 68.8777 44.8361 68.8777 54.4599C71.1393 54.4599 73.3401 54.4599 75.5548 54.4599C75.5548 44.798 75.5548 35.1829 75.5548 25.547C73.3141 25.547 71.1306 25.547 68.8777 25.547ZM53.3194 65.5618C53.3541 65.4629 53.3975 65.4005 53.3975 65.338C53.4027 62.8276 53.4166 60.3171 53.3957 57.8083C53.3888 57.0207 52.9861 56.6338 52.1756 56.6268C49.343 56.6026 46.5087 56.5921 43.6761 56.6112C42.5358 56.6199 42.1869 57.0259 42.1852 58.1918C42.18 60.4489 42.1817 62.7061 42.1852 64.9633C42.1852 65.1611 42.2164 65.3588 42.232 65.5618C45.9706 65.5618 49.6467 65.5618 53.3194 65.5618ZM77.8285 65.5636C77.8285 62.9473 77.8441 60.4142 77.8198 57.8829C77.8111 57.0363 77.3824 56.6286 76.5146 56.6216C73.682 56.5991 70.8477 56.5921 68.0151 56.6147C66.9286 56.6234 66.611 56.9981 66.604 58.1137C66.5954 59.6335 66.6023 61.1551 66.6023 62.6749C66.6023 63.6308 66.6023 64.5868 66.6023 65.5636C70.3895 65.5636 74.0639 65.5636 77.8285 65.5636ZM47.8191 67.6924C45.6565 67.6924 43.4921 67.6837 41.3295 67.6976C40.4947 67.7028 39.9792 68.1712 39.9826 68.853C39.9861 69.5297 40.5155 70.0259 41.3382 70.0293C45.6426 70.0415 49.9453 70.0415 54.2497 70.0293C55.1262 70.0276 55.6295 69.5401 55.6087 68.8097C55.5879 68.0983 55.1297 67.7028 54.2393 67.6958C52.0992 67.6819 49.9592 67.6906 47.8191 67.6924ZM72.2536 67.6941C70.0667 67.6941 67.8815 67.6837 65.6946 67.6993C64.8719 67.7045 64.4171 68.1261 64.4015 68.8166C64.3859 69.5227 64.8719 70.0224 65.6998 70.0259C70.0267 70.0415 74.3537 70.0415 78.6807 70.0276C79.4999 70.0259 80.0293 69.521 80.0275 68.8444C80.0258 68.1625 79.5121 67.701 78.6737 67.6958C76.5354 67.6837 74.3954 67.6924 72.2536 67.6941Z" fill="black"/>
</svg>
