<svg width="120" height="100" viewBox="0 0 120 100" fill="none" xmlns="http://www.w3.org/2000/svg">
<rect width="120" height="100" fill="white"/>
<path d="M98.7147 13.2492C98.4663 14.4447 98.2261 15.6423 97.9676 16.8378C97.3073 19.8954 95.8453 22.4743 93.6119 24.6978C79.7798 38.4749 65.9839 52.2883 52.1719 66.0876C51.9599 66.2997 51.6994 66.4632 51.4611 66.651C51.4672 66.752 51.4753 66.851 51.4813 66.952C51.8529 67.1054 52.2143 67.3478 52.6 67.4003C55.3927 67.7739 57.4645 69.86 57.6139 72.4975C57.7694 75.238 56.0793 77.5221 53.4118 78.1723C50.2879 78.9337 47.1863 76.7506 46.7804 73.4406C46.7097 72.861 46.5078 72.4713 46.108 72.0956C45.6314 71.6493 45.1993 71.1546 44.5894 70.5123C44.333 70.8597 44.1553 71.1727 43.913 71.4171C40.9446 74.3979 37.9904 77.3948 34.9715 80.3231C34.392 80.8845 34.3173 81.5167 34.1779 82.1891C33.9982 83.0555 33.558 83.4433 32.8836 83.3221C32.1284 83.1868 31.7265 82.6658 31.9466 81.8155C32.1304 81.1027 31.886 80.6907 31.3974 80.2565C30.8138 79.7395 30.2423 79.1962 29.7456 78.5985C29.2832 78.0411 28.8005 77.8997 28.1059 78.0855C26.652 78.4773 25.289 79.0205 24.2006 80.101C23.4777 80.8179 23.3081 81.4197 23.9663 82.1629C25.1921 83.5483 26.543 84.8307 27.904 86.0868C28.433 86.5755 29.0913 86.4927 29.6931 86.008C30.4261 85.4184 31.0561 85.4789 31.5064 86.107C31.9345 86.7048 31.7871 87.2682 31.0601 87.8438C29.7456 88.8818 28.322 89.001 26.9105 88.1568C24.8488 86.9229 23.1829 85.2346 21.9087 83.207C20.8869 81.5833 21.1414 79.9111 22.5246 78.5318C24.1683 76.892 26.2199 76.0599 28.4855 75.6964C28.742 75.656 29.055 75.5955 29.2246 75.4258C32.5807 72.0876 35.9206 68.7291 39.3352 65.3061C38.6971 64.68 38.0732 64.0338 37.4068 63.438C37.2493 63.2966 36.9484 63.2926 36.7081 63.2663C33.9599 62.9654 31.8759 60.8046 31.7104 58.0722C31.5529 55.4488 33.3157 53.1345 35.9569 52.5003C39.1454 51.735 42.1885 53.9988 42.6085 57.4158C42.655 57.7935 42.8791 58.1489 43.0225 58.5144C43.1477 58.567 43.2729 58.6174 43.4001 58.6699C43.5556 58.4094 43.6666 58.1004 43.8766 57.8924C55.5381 46.2197 73.4823 28.2802 85.1519 16.6156C85.3659 16.4015 85.5658 16.1713 85.8001 15.9835C86.313 15.5755 86.836 15.6139 87.2903 16.0663C87.7386 16.5126 87.8093 17.0397 87.4135 17.5607C87.2176 17.8192 86.9692 18.0393 86.737 18.2716C75.0675 29.9362 57.1212 47.8736 45.4497 59.5383C45.2558 59.7322 45.07 59.9342 44.9267 60.0836C46.6047 61.7598 48.2524 63.4057 49.9285 65.0779C50.0617 64.9526 50.2475 64.7891 50.4232 64.6134C64.3765 50.6646 78.3158 36.7098 92.2853 22.7833C94.7549 20.3195 95.7988 17.2983 96.2168 13.7419C94.975 14.0065 93.824 14.1923 92.7053 14.5053C90.476 15.1273 88.5516 16.2724 87.0149 18.0334C86.6514 18.4514 86.2879 18.8816 85.8558 19.2209C85.5146 19.4894 85.0643 19.7843 84.6685 19.7782C84.202 19.7702 83.6407 19.546 83.3216 19.2188C83.1904 19.0855 83.5155 18.3908 83.7578 18.0374C84.0364 17.6295 84.4746 17.3326 84.8058 16.9529C87.4975 13.8813 90.9182 12.197 94.9164 11.5911C95.3324 11.5285 95.7342 11.3872 96.1441 11.2842C97.0003 11.2842 97.8565 11.2842 98.7147 11.2842C98.7147 11.9385 98.7147 12.5948 98.7147 13.2492ZM40.1066 58.0984C40.1833 58.0641 40.2601 58.0277 40.3388 57.9934C40.2621 57.5774 40.2338 57.1432 40.0985 56.7474C39.5796 55.2489 37.9904 54.3704 36.49 54.7178C34.8403 55.1015 33.8124 56.5757 34.0184 58.264C34.2042 59.7827 35.65 60.956 37.2533 60.9924C37.7359 61.0025 38.3478 61.1398 38.6689 61.4548C41.9987 64.7123 45.2901 68.0102 48.5553 71.3302C48.8481 71.6291 49.038 72.1704 49.0319 72.5985C49.0097 74.5009 50.296 75.9751 52.1033 76.0054C53.9267 76.0357 55.3503 74.6564 55.3462 72.8631C55.3422 71.0516 53.8984 69.7348 52.0083 69.7106C51.5358 69.7045 50.9482 69.4965 50.6171 69.1734C47.3276 65.9462 44.0745 62.6827 40.8376 59.403C40.5024 59.0577 40.3469 58.5367 40.1066 58.0984ZM35.2118 76.69C34.6 76.0357 33.9538 75.3471 33.3924 74.7493C32.6715 75.4521 31.9587 76.1508 31.2621 76.8294C31.884 77.4696 32.5322 78.136 33.1501 78.7721C33.865 78.0512 34.5677 77.3383 35.2118 76.69ZM42.9397 69.0785C42.2592 68.3737 41.6191 67.7133 41.0012 67.0711C40.2944 67.79 39.5998 68.4949 38.9516 69.1532C39.5755 69.7853 40.2358 70.4558 40.884 71.1121C41.5605 70.4457 42.2531 69.7591 42.9397 69.0785ZM37.2513 70.9062C36.5143 71.6352 35.8095 72.3319 35.2219 72.9115C35.8297 73.5578 36.4719 74.2404 37.0676 74.8725C37.7541 74.2161 38.4568 73.5436 39.2706 72.7641C38.7234 72.2592 38.1923 71.7685 37.6592 71.2798C37.4956 71.1263 37.3301 70.9768 37.2513 70.9062Z" fill="black"/>
<path d="M52.8021 58.5084C52.4083 58.1954 51.9883 58.0136 51.851 57.7067C51.7117 57.3936 51.8026 56.9453 51.8874 56.5778C51.9298 56.3859 52.1681 56.2344 52.3276 56.0749C63.7588 44.6445 75.1921 33.2141 86.6254 21.7836C87.4553 20.9536 88.2368 20.9193 88.6568 21.7594C88.8143 22.0765 88.7335 22.5632 88.6366 22.9408C88.576 23.1771 88.2893 23.3588 88.0934 23.5547C76.749 34.8943 65.4046 46.2358 54.0521 57.5673C53.7128 57.9005 53.2827 58.1469 52.8021 58.5084Z" fill="black"/>
<path d="M37.001 58.9955C36.3689 58.9329 35.9388 58.3937 35.9994 57.7353C36.06 57.081 36.5971 56.6367 37.2332 56.7175C37.8248 56.7922 38.259 57.3294 38.2125 57.9292C38.1641 58.5714 37.6148 59.054 37.001 58.9955Z" fill="black"/>
<path d="M53.216 72.8552C53.224 73.5398 52.7616 74.0225 52.1074 74.0104C51.4895 74.0003 51.0311 73.5297 51.019 72.8936C51.0068 72.2231 51.4814 71.7445 52.1457 71.7525C52.7919 71.7606 53.2079 72.1908 53.216 72.8552Z" fill="black"/>
<path d="M30.3144 86.8929C31.28 86.0066 33.1732 83.7589 33.0212 81.8594" stroke="black" stroke-width="2.3"/>
</svg>
