<svg width="120" height="100" viewBox="0 0 120 100" fill="none" xmlns="http://www.w3.org/2000/svg">
<rect width="120" height="100" fill="white"/>
<path d="M96.3159 36.4688C93.3278 40.2446 90.3415 44.0204 87.3495 47.7943C86.3893 49.0054 85.7498 49.0593 84.5227 48.0735C83.1208 46.9471 81.7131 45.8304 80.3055 44.7097C80.1614 44.5961 80.0059 44.496 79.7178 44.2919C79.7178 44.7367 79.7178 45.0351 79.7178 45.3336C79.7178 56.4781 79.7178 67.6246 79.7159 78.7691C79.7159 79.0811 79.7197 79.3968 79.6756 79.703C79.5661 80.4789 79.0514 80.9449 78.2794 80.993C78.1124 81.0027 77.9434 80.9969 77.7763 80.9969C65.6067 80.9969 53.4351 80.9969 41.2655 80.9969C39.7752 80.9969 39.3143 80.529 39.3124 79.0021C39.3105 67.7844 39.3105 56.5667 39.3105 45.3509C39.3105 45.0505 39.3105 44.7502 39.3105 44.2611C38.2869 45.0717 37.4112 45.761 36.5394 46.4542C35.7693 47.0665 35.0088 47.6884 34.2349 48.293C33.3323 48.9958 32.591 48.9226 31.8728 48.0235C28.9595 44.3651 26.052 40.7009 23.156 37.0291C22.4474 36.1318 22.5434 35.3944 23.446 34.6743C28.3565 30.7521 33.2151 26.7683 38.2159 22.9733C39.4641 22.0259 41.1349 21.5581 42.677 21.0921C45.9801 20.0966 49.385 19.6172 52.8206 19.3072C56.9091 18.9375 61.0034 18.899 65.0862 19.2052C69.9545 19.571 74.7862 20.2256 79.3395 22.1453C80.0789 22.4572 80.7894 22.8924 81.4212 23.3911C86.011 27.0167 90.5777 30.6693 95.1425 34.3258C95.565 34.6627 95.9241 35.0805 96.3121 35.4599C96.3159 35.7968 96.3159 36.1318 96.3159 36.4688ZM76.7911 78.0702C76.7911 77.7236 76.7911 77.4618 76.7911 77.198C76.7911 65.7896 76.7873 54.3813 76.7969 42.973C76.7969 42.0411 76.8295 41.1053 76.9332 40.1791C77.1368 38.3442 77.3903 36.515 77.6438 34.6877C77.759 33.8521 78.3812 33.365 79.1955 33.4208C79.9848 33.4728 80.509 34.0697 80.4994 34.9265C80.4956 35.2134 80.4553 35.5003 80.4188 35.7853C80.2286 37.2833 80.027 38.7813 79.8503 40.2812C79.833 40.4372 79.9099 40.6701 80.027 40.7645C81.884 42.2625 83.7526 43.7432 85.6557 45.2566C88.0697 42.2105 90.4414 39.2164 92.8265 36.2069C92.6383 36.0452 92.5346 35.947 92.4232 35.8584C89.3122 33.3765 86.203 30.8946 83.0901 28.4165C81.7016 27.3132 80.413 26.0309 78.8882 25.1683C76.3974 23.7589 73.5764 23.2602 70.7053 22.7884C70.9185 25.3782 69.7797 27.2439 67.819 28.6803C63.4961 31.8458 55.9412 31.9497 51.5166 28.9056C49.9246 27.8119 48.7167 26.4256 48.3768 24.4482C48.2846 23.9148 48.3057 23.3622 48.2673 22.669C46.2893 23.1812 44.3477 23.5933 42.4696 24.2075C41.3327 24.5791 40.1862 25.1144 39.2375 25.8345C36.0919 28.2278 33.0327 30.7367 29.9408 33.2013C28.7079 34.1833 27.4789 35.171 26.196 36.1973C28.6138 39.2453 30.9913 42.2452 33.3841 45.2604C35.268 43.7586 37.1097 42.301 38.9283 40.8184C39.082 40.6932 39.1742 40.3755 39.1511 40.1637C38.9629 38.4231 38.7094 36.6902 38.5423 34.9496C38.4598 34.0889 39.0244 33.4882 39.8117 33.4227C40.6548 33.3534 41.2655 33.8559 41.3941 34.7359C41.4748 35.2808 41.5439 35.8295 41.6131 36.3764C41.8282 38.0631 42.218 39.7498 42.2238 41.4384C42.2737 53.4224 42.243 65.4084 42.241 77.3924C42.241 77.6196 42.2679 77.8468 42.2814 78.0721C53.8134 78.0702 65.2552 78.0702 76.7911 78.0702ZM60.0048 28.2259C60.6443 28.1335 61.7754 28.0603 62.8586 27.7927C64.5466 27.3749 66.129 26.6894 67.2313 25.2376C67.7806 24.5117 68.0168 23.6953 67.6788 22.8096C67.6039 22.6171 67.3562 22.3841 67.1622 22.359C66.0964 22.2262 65.0267 22.101 63.9551 22.0664C60.0836 21.9432 56.212 21.8777 52.352 22.3205C51.4321 22.4264 51.0788 22.7981 51.219 23.7377C51.29 24.219 51.4475 24.7582 51.749 25.1163C52.2483 25.7113 52.8379 26.2697 53.4908 26.6836C55.321 27.8447 57.3969 28.1604 60.0048 28.2259Z" fill="black"/>
</svg>
