<svg width="120" height="100" viewBox="0 0 120 100" fill="none" xmlns="http://www.w3.org/2000/svg">
<rect width="120" height="100" fill="white"/>
<path d="M105.186 35.9629C104.687 37.2382 104.041 38.4211 102.682 38.9532C101.983 39.2281 101.219 39.338 100.363 39.5535C100.363 39.8569 100.363 40.2285 100.363 40.6001C100.363 50.6923 100.363 60.7845 100.361 70.8767C100.361 71.2263 100.348 71.5781 100.292 71.9233C100.164 72.7258 99.6756 73.1766 98.8533 73.1832C97.2353 73.2008 95.6172 73.2095 94.0013 73.1788C93.1525 73.1634 92.6419 72.6555 92.5093 71.7408C91.729 66.3077 90.9619 60.8724 90.1861 55.4371C89.8899 53.3571 89.5804 51.2793 89.2665 49.14C69.7768 49.14 50.296 49.14 30.7378 49.14C30.373 51.6399 29.9995 54.1421 29.6414 56.6487C28.923 61.6772 28.2156 66.7101 27.4928 71.7386C27.3535 72.7126 26.8142 73.1766 25.8261 73.1898C24.3274 73.2073 22.8265 73.2095 21.3256 73.1898C20.2756 73.1766 19.7716 72.7016 19.6567 71.6638C19.6257 71.3736 19.6412 71.079 19.6412 70.7865C19.6412 60.7229 19.6412 50.6593 19.6412 40.5979C19.6412 40.2505 19.6412 39.9031 19.6412 39.4875C19.2544 39.4237 18.9184 39.3556 18.5802 39.3116C16.4692 39.0412 14.8843 37.3371 14.8379 35.2176C14.8047 33.784 14.8003 32.3504 14.8401 30.9168C14.8998 28.7247 16.6925 26.9437 18.8963 26.8382C19.2478 26.8206 19.6014 26.8162 19.9551 26.8162C46.6598 26.8162 73.3622 26.8272 100.067 26.7964C102.58 26.7942 104.304 27.7023 105.113 30.1253C105.12 30.1451 105.162 30.1539 105.189 30.1693C105.186 32.0997 105.186 34.0302 105.186 35.9629ZM60.0021 29.7339C46.7371 29.7339 33.4721 29.7339 20.2071 29.7361C19.8247 29.7361 19.4423 29.7405 19.0621 29.7757C18.2751 29.8504 17.8154 30.288 17.7999 31.0795C17.7734 32.4252 17.7822 33.7708 17.7977 35.1164C17.8043 35.831 18.211 36.2598 18.8963 36.3939C19.2676 36.4664 19.6523 36.4818 20.0325 36.4818C46.6797 36.4862 73.3268 36.4862 99.974 36.4818C100.354 36.4818 100.739 36.4664 101.11 36.3939C101.798 36.2598 102.2 35.8266 102.207 35.1142C102.22 33.7686 102.229 32.423 102.202 31.0773C102.187 30.2858 101.723 29.8504 100.938 29.7757C100.558 29.7405 100.175 29.7361 99.7928 29.7361C86.5322 29.7339 73.2672 29.7339 60.0021 29.7339ZM87.885 39.4721C69.2286 39.4721 50.6917 39.4721 32.1193 39.4721C31.8032 41.706 31.4937 43.885 31.1821 46.0749C50.4662 46.0749 69.6133 46.0749 88.8355 46.0749C88.5127 43.8344 88.2011 41.6731 87.885 39.4721ZM22.6253 70.2808C23.1028 70.2808 23.5162 70.2347 23.9163 70.2918C24.5816 70.3842 24.7806 70.0588 24.8601 69.4739C25.3332 66.0329 25.8195 62.594 26.3124 59.1552C27.0463 54.041 27.789 48.9289 28.5251 43.8146C28.7307 42.3832 28.9274 40.9497 29.133 39.4743C26.9114 39.4743 24.7872 39.4743 22.6253 39.4743C22.6253 49.7336 22.6253 59.9314 22.6253 70.2808ZM97.3833 39.4743C95.1795 39.4743 93.0508 39.4743 90.8647 39.4743C92.3479 49.7864 93.8179 60.0259 95.2834 70.2127C96.0858 70.2127 96.718 70.2127 97.3833 70.2127C97.3833 59.9512 97.3833 49.7534 97.3833 39.4743Z" fill="black"/>
</svg>
