<svg width="120" height="100" viewBox="0 0 120 100" fill="none" xmlns="http://www.w3.org/2000/svg">
<rect width="120" height="100" fill="white"/>
<path d="M100.045 46.8876C99.4869 48.3041 99.0638 49.7932 98.3469 51.1252C96.2392 55.0426 93.1462 58.1525 89.9102 61.1308C89.5556 61.4569 89.1933 61.84 89.0013 62.2703C87.1365 66.4587 84.1551 69.6747 80.3805 72.1619C73.9829 76.3779 66.8821 77.9888 59.2956 77.6882C53.8892 77.4741 48.7453 76.2069 43.9677 73.6334C39.1725 71.046 35.2744 67.5216 33.01 62.4451C32.4321 61.1485 31.9796 59.7536 31.7367 58.3568C31.0942 54.6654 29.3038 51.636 26.5556 49.2137C24.8847 47.7403 23.0121 46.4849 21.161 45.2315C19.7134 44.2512 19.541 43.32 20.7947 42.098C22.2716 40.6599 23.7643 39.2356 25.2295 37.7858C25.8759 37.1453 26.5615 36.9469 27.488 37.1001C30.1344 37.5402 32.581 38.5382 35.0256 39.5735C35.6426 39.8348 36.3008 40.0195 36.9551 40.1629C37.8679 40.3633 38.6808 40.0863 39.4565 39.5637C40.9863 38.5284 42.5554 37.55 44.0911 36.5245C44.3575 36.3477 44.6082 36.0884 44.763 35.8114C45.1547 35.1061 45.4897 34.3674 45.8462 33.6425C47.3232 30.6328 49.7208 29.1004 53.0782 29.1122C54.0106 29.1141 54.943 29.1122 55.9636 29.1122C55.9636 28.458 55.9636 27.8902 55.9636 27.3244C55.9636 23.9768 57.6697 22.2912 61.0272 22.2774C62.4081 22.2715 63.6657 22.5662 64.6667 23.5839C65.5345 24.466 65.9105 25.5543 65.9282 26.7763C65.9399 27.5268 65.9301 28.2772 65.9301 29.1338C67.1329 29.1338 68.2494 29.1004 69.362 29.1397C72.4041 29.2477 74.647 30.7192 75.9143 33.4441C76.7762 35.3006 77.7713 36.8801 79.7536 37.6758C80.3197 37.9036 80.7977 38.3535 81.1816 38.6129C82.6743 37.7406 84.0278 36.8015 85.4989 36.1179C89.5282 34.2476 94.1628 35.1159 97.2421 38.2455C98.6916 39.7189 99.4967 41.5401 99.8709 43.5636C99.9022 43.7345 99.9845 43.8976 100.043 44.0646C100.045 45.0056 100.045 45.9466 100.045 46.8876ZM24.3833 43.4005C24.3911 43.4064 24.5595 43.5204 24.7143 43.652C26.4635 45.1313 28.3303 46.4928 29.9287 48.1194C32.3988 50.6361 34.0971 53.632 34.6926 57.1879C35.0315 59.2075 35.6975 61.1249 36.7768 62.8812C39.7738 67.7573 44.24 70.7395 49.4955 72.6137C55.7834 74.8573 62.226 75.1618 68.7176 73.6844C74.5921 72.3466 79.7478 69.6983 83.6948 64.9676C88.3079 59.4393 88.5077 51.6714 84.1904 45.9329C82.0083 43.0332 79.2287 40.8957 76.0651 39.2121C75.8281 39.0863 75.5206 39.0451 75.2464 39.0451C65.7088 39.0372 56.1693 39.0352 46.6317 39.049C46.3124 39.049 45.952 39.1394 45.6836 39.3064C44.2693 40.1845 42.8844 41.1118 41.478 42.0018C40.9315 42.3475 40.3771 42.7051 39.7856 42.9565C37.8209 43.7934 35.9227 43.3239 34.0266 42.6226C31.9365 41.8485 29.8229 41.1295 27.7113 40.4144C27.5096 40.3456 27.153 40.379 27.0238 40.5126C26.1227 41.4477 25.2647 42.4241 24.3833 43.4005ZM90.4841 56.1585C92.9229 53.5927 95.1207 51.1036 96.3841 47.9446C97.1736 45.9702 97.0345 43.9899 96.1079 42.1059C93.6731 37.1532 87.2618 37.5461 83.9044 40.8584C85.9984 42.819 87.6947 45.0842 88.8798 47.7049C90.0669 50.3237 90.6056 53.0898 90.4841 56.1585ZM73.5108 35.8664C72.8566 33.7171 71.3267 32.3203 69.456 32.3066C63.7793 32.2693 58.1026 32.2673 52.4259 32.3085C50.5161 32.3223 48.6454 34.0826 48.4632 35.8664C56.7941 35.8664 65.1251 35.8664 73.5108 35.8664ZM59.1878 29.1102C60.2809 29.1102 61.2661 29.1358 62.2475 29.0866C62.4199 29.0788 62.7039 28.7743 62.7176 28.5916C62.7686 27.9177 62.747 27.236 62.7118 26.5602C62.6785 25.9237 62.32 25.5052 61.6775 25.5229C60.8215 25.5465 59.8088 25.1084 59.2466 26.2007C59.2015 26.2891 59.1917 26.403 59.1917 26.5072C59.1859 27.3382 59.1878 28.1672 59.1878 29.1102Z" fill="black"/>
<path d="M62.4533 70.6508C61.9342 70.6508 61.4093 70.6959 60.8961 70.6409C59.9852 70.5447 59.4191 69.9435 59.3897 69.1321C59.3623 68.3247 59.8814 67.6548 60.7864 67.533C61.8147 67.3955 62.8588 67.3955 63.8931 67.2992C67.1624 66.9986 70.2612 66.1008 73.1681 64.5566C73.4208 64.4231 73.6637 64.2718 73.9243 64.1519C74.8528 63.7237 75.7283 63.9712 76.1456 64.7727C76.5609 65.5684 76.2964 66.4918 75.3738 66.9436C73.7676 67.7294 72.1515 68.5251 70.4728 69.1282C67.8911 70.0535 65.1977 70.5034 62.4533 70.6508Z" fill="black"/>
<path d="M78.5863 61.4346C79.4619 61.4365 80.1024 62.0809 80.1142 62.9709C80.124 63.8648 79.4031 64.6034 78.5471 64.5759C77.7146 64.5484 77.0545 63.8333 77.0662 62.9728C77.078 62.0848 77.7224 61.4326 78.5863 61.4346Z" fill="black"/>
</svg>
