<svg width="120" height="100" viewBox="0 0 120 100" fill="none" xmlns="http://www.w3.org/2000/svg">
<rect width="120" height="100" fill="white"/>
<path d="M37.2482 86.6732C36.4246 86.3814 35.5613 86.173 34.7873 85.7839C33.0527 84.9144 31.8064 83.5506 31.2527 81.6706C30.3596 78.6373 29.4765 75.596 28.7025 72.5289C28.1349 70.2738 28.8236 68.245 30.2406 66.4464C30.3735 66.2777 30.5184 66.1208 30.6236 65.9997C30.1552 65.1719 29.5678 64.4215 29.28 63.5679C28.381 60.8999 28.6648 58.2516 29.7682 55.6987C31.1693 52.453 33.6441 50.1601 36.6468 48.4688C38.7704 47.2717 41.0427 46.3426 43.3071 45.2647C39.5146 40.3256 38.9232 34.7552 41.0526 28.7362C38.2008 27.8012 36.3412 25.9491 35.8411 22.9693C35.472 20.7718 36.1209 18.8164 37.6153 17.1647C40.1675 14.3438 45.2441 13.7363 48.4989 17.8317C56.1673 11.8266 63.8497 11.8226 71.5301 17.8417C73.7807 15.1398 76.5889 14.1393 79.8892 15.4376C82.6002 16.5037 84.1641 18.6814 84.2415 21.6115C84.3367 25.2205 82.3998 27.5312 78.9783 28.7462C81.084 34.6937 80.5382 40.278 76.6424 45.3461C78.2063 45.9933 79.7722 46.563 81.2685 47.2777C84.563 48.8519 87.5161 50.8926 89.4649 54.0749C91.2868 57.0506 91.9358 60.2567 90.7728 63.6433C90.487 64.4751 89.9015 65.2037 89.4272 66.0295C90.8462 67.5839 91.7174 69.4777 91.4475 71.6852C91.2789 73.0669 90.8164 74.4148 90.4552 75.7707C90.0008 77.472 89.4947 79.1574 89.0442 80.8587C88.2246 83.9436 86.2618 85.8176 83.1599 86.5184C83.0269 86.5482 82.9038 86.6196 82.7748 86.6712C81.9631 86.6712 81.1515 86.6712 80.3417 86.6712C80.1016 86.5918 79.8634 86.5025 79.6193 86.435C75.5747 85.2916 71.5321 84.1402 67.4796 83.0225C67.0231 82.8974 66.4892 82.8538 66.0328 82.955C61.9187 83.8722 57.8205 83.8543 53.7184 82.8895C53.4584 82.828 53.1527 82.8558 52.8928 82.9292C50.5351 83.5843 48.1833 84.2593 45.8316 84.9263C43.7835 85.5079 41.7353 86.0896 39.6853 86.6712C38.8716 86.6732 38.0599 86.6732 37.2482 86.6732ZM74.8662 47.5397C64.9035 54.9166 55.0758 54.8967 45.0278 47.4464C43.9363 49.1556 42.7038 50.8827 41.6818 52.7269C39.9175 55.9151 38.951 59.3594 38.8537 63.024C38.8438 63.4091 38.8339 63.7347 39.3399 63.9054C41.8584 64.761 43.4123 66.5218 44.105 69.0827C44.7559 71.4927 45.4307 73.8987 46.1312 76.2948C46.2265 76.6223 46.4766 76.9757 46.7584 77.1703C50.1401 79.5167 53.8989 80.8071 57.9991 81.1267C63.5858 81.5634 68.7299 80.3009 73.3619 77.1067C73.606 76.938 73.8064 76.6144 73.8898 76.3246C74.5844 73.9265 75.2651 71.5225 75.9101 69.1105C76.5948 66.5457 78.1448 64.7908 80.6533 63.9074C81.0264 63.7764 81.203 63.5997 81.1713 63.1947C81.1137 62.4582 81.1316 61.7118 81.0304 60.9832C80.3219 55.8575 78.113 51.4187 74.8662 47.5397ZM61.2519 50.5611C65.0683 50.311 68.5473 49.1993 71.5678 46.9084C76.5035 43.1644 78.7818 38.2313 77.4085 32.0693C76.0232 25.8617 72.57 20.9544 67.035 17.7166C62.5319 15.0823 57.8324 15.0207 53.2758 17.5518C47.9293 20.5216 44.5832 25.1669 42.8686 30.9834C41.7592 34.7493 42.0172 38.4338 43.9779 41.9058C45.9348 45.3679 48.8799 47.6906 52.5216 49.1715C54.5162 49.9814 56.5901 50.442 58.7632 50.5452C58.7632 45.9119 58.7632 41.3202 58.7632 36.8595C57.8027 36.4665 56.862 36.2163 56.0681 35.728C54.3852 34.6937 54.3872 32.8197 56.0106 31.6961C57.2589 30.8306 58.6918 30.644 60.1663 30.6599C61.5714 30.6757 62.9209 30.908 64.0899 31.7517C65.5525 32.8078 65.6001 34.5031 64.1633 35.585C63.681 35.9483 63.0817 36.1687 62.5121 36.397C62.1033 36.5598 61.6587 36.6292 61.2499 36.7364C61.2519 41.3778 61.2519 45.9496 61.2519 50.5611ZM36.6845 65.7536C35.9066 65.9461 35.1008 66.0633 34.3566 66.3452C32.1676 67.175 30.2664 69.6544 31.1813 72.6421C31.9473 75.1434 32.6618 77.6626 33.2849 80.2016C33.9855 83.0563 36.3174 84.3903 38.814 84.2513C42.0549 84.0727 45.0853 81.1307 43.9343 77.3727C43.1464 74.8039 42.4816 72.1994 41.7373 69.6167C41.0447 67.2107 39.2189 65.8667 36.6845 65.7536ZM83.3286 65.8786C80.7883 65.8647 78.9704 67.2087 78.2678 69.6624C77.5415 72.1994 76.9044 74.7642 76.1165 77.2834C75.2592 80.0249 76.5512 82.3396 78.6647 83.5287C81.8004 85.2935 85.6624 83.8781 86.617 80.5669C87.389 77.8929 88.1551 75.2169 88.8398 72.521C89.0323 71.7627 89.1057 70.8912 88.939 70.1368C88.3714 67.5462 86.1149 65.8945 83.3286 65.8786ZM79.1688 48.9234C80.2068 51.2122 81.3578 53.4833 82.2767 55.8456C83.2134 58.2516 83.5568 60.8105 83.5667 63.3039C84.5947 63.5659 85.5493 63.7545 86.4662 64.0602C87.5597 64.4255 87.6054 64.4493 88.2345 63.419C88.3575 63.2185 88.4687 63.0041 88.5461 62.7818C89.195 60.9693 89.0323 59.1529 88.3992 57.396C86.7857 52.9116 83.0289 50.7616 79.1688 48.9234ZM40.9375 49.0325C38.5779 49.9537 36.4464 51.1944 34.6325 52.9135C32.247 55.1766 30.953 57.9142 31.2071 61.275C31.2884 62.351 31.598 63.3356 32.3859 64.1079C32.5129 64.2329 32.7689 64.354 32.9198 64.3123C34.0728 63.9848 35.214 63.6156 36.4543 63.2284C36.4781 58.1444 38.2385 53.4535 40.9375 49.0325ZM46.7207 19.5747C45.645 17.9786 44.2121 17.2064 42.289 17.3454C40.0723 17.5062 38.304 19.3702 38.1412 21.7802C38.0063 23.7614 39.6039 25.9014 41.5647 26.3163C41.7453 26.354 42.0866 26.2151 42.164 26.0622C43.3647 23.688 44.8829 21.538 46.7207 19.5747ZM73.3401 19.6184C75.152 21.5499 76.6623 23.7058 77.8709 26.0761C77.9483 26.227 78.3413 26.3362 78.5397 26.2846C80.7922 25.7089 82.1517 23.4934 81.7845 21.0517C81.5206 19.3067 79.925 17.6967 78.1388 17.3751C76.1979 17.0277 74.253 17.929 73.3401 19.6184ZM62.6292 33.713C61.3055 32.8336 58.5687 32.8515 57.4494 33.7051C58.5786 34.5627 61.2281 34.5825 62.6292 33.713ZM49.3185 81.4324C48.3143 80.9044 47.4649 80.4597 46.6095 80.011C46.3495 80.8071 46.1015 81.5614 45.8216 82.419C46.9826 82.0915 48.0682 81.7858 49.3185 81.4324ZM74.1994 82.427C73.9136 81.5455 73.6636 80.7813 73.4095 79.9991C72.5165 80.4736 71.673 80.9202 70.7085 81.4324C71.933 81.7798 73.0106 82.0875 74.1994 82.427Z" fill="black"/>
<path d="M50.6939 30.3875C50.7058 31.39 49.8445 32.2536 48.8344 32.2556C47.8401 32.2556 47.0065 31.4476 46.9847 30.463C46.9629 29.4505 47.7964 28.5691 48.7947 28.5473C49.781 28.5254 50.684 29.4009 50.6939 30.3875Z" fill="black"/>
<path d="M71.2086 28.5455C72.2089 28.5574 73.0503 29.4329 73.0344 30.4453C73.0186 31.4598 72.1573 32.2776 71.1292 32.2538C70.1588 32.23 69.3252 31.3724 69.3272 30.4017C69.3292 29.413 70.2203 28.5336 71.2086 28.5455Z" fill="black"/>
</svg>
