<svg width="120" height="100" viewBox="0 0 120 100" fill="none" xmlns="http://www.w3.org/2000/svg">
<rect width="120" height="100" fill="white"/>
<g clip-path="url(#clip0_3_16)">
<path d="M97 69.6513C97 69.9409 97 70.2305 97 70.5202C96.044 72.2 94.6391 73.2716 92.4809 73.5757C92.901 73.8219 93.1182 74.0391 93.3789 74.0971C94.1176 74.2564 94.6101 74.6329 94.7115 75.4004C94.8129 76.2113 94.3928 76.7616 93.7121 77.0802C92.6403 77.5581 91.5539 78.0505 90.4386 78.3836C86.6293 79.5566 82.7475 80.0924 78.7499 79.6434C78.4747 79.6145 78.1995 79.6145 77.8663 79.6C77.9243 79.9186 77.9532 80.1213 77.9967 80.3386C78.3153 81.8881 78.6485 83.4521 78.9526 85.0016C79.1989 86.2904 78.605 87 77.3014 87C65.7575 87 54.228 87 42.6841 87C41.4095 87 40.8156 86.2759 41.0474 85.045C41.3081 83.6693 41.6123 82.308 41.8875 80.9468C41.9744 80.5123 42.0468 80.0779 42.1337 79.571C41.395 79.6434 40.7722 79.7303 40.1493 79.7738C36.1372 79.991 32.2265 79.3538 28.4461 78.036C27.5625 77.7319 26.7225 77.283 25.9258 76.8196C25.3609 76.4865 25.1871 75.8928 25.332 75.2411C25.4623 74.6474 25.8824 74.3143 26.4473 74.1405C26.7659 74.0391 27.0556 73.8654 27.5336 73.6337C27.1135 73.5323 26.9252 73.4744 26.7369 73.4309C25.2016 73.0689 24.0284 72.229 23.2462 70.8387C22.7248 69.9119 23.1738 68.8114 24.2022 68.681C25.3175 68.5362 26.1576 67.9859 26.8383 67.1894C27.8088 66.0309 28.7502 64.829 29.6338 63.598C31.5602 60.9335 33.2693 58.0806 35.6158 55.7202C37.296 54.0113 39.1789 52.6211 41.6267 52.2301C42.0178 52.1722 42.4089 52.1288 42.6841 52.0998C42.1771 50.782 41.5978 49.5221 41.2212 48.2188C40.5549 45.9452 40.7142 43.5992 40.6708 41.2532C40.6563 40.8188 40.5404 40.3554 40.3666 39.9644C39.7148 38.5162 39.7293 37.0826 40.2797 35.62C40.468 35.0986 40.6563 34.5339 40.6708 33.9836C40.7722 30.2908 41.6412 26.8442 43.8573 23.8176C44.2774 23.2384 44.7409 22.6881 45.2623 22.0509C45.045 21.8771 44.8422 21.7468 44.6829 21.5875C43.22 20.1538 43.191 18.2278 44.6395 16.7941C45.0595 16.3742 45.552 16.0121 46.0734 15.708C48.1591 14.4771 50.4911 13.9558 52.852 13.5937C54.4163 13.3476 55.9951 13.2027 57.5739 13C59.2106 13 60.8473 13 62.4841 13C62.7448 13.0434 63.0055 13.1014 63.2662 13.1159C65.8879 13.2896 68.4805 13.6806 71.0008 14.4337C72.623 14.926 74.1873 15.5487 75.4185 16.7796C76.8814 18.2278 76.8524 20.1538 75.375 21.5585C75.1867 21.7323 74.9115 21.8192 74.7957 21.8771C75.7227 23.2384 76.5483 24.31 77.229 25.4685C78.8368 28.1765 79.3292 31.1742 79.4016 34.2587C79.4161 34.6642 79.5465 35.0986 79.7058 35.4751C80.2707 36.793 80.4445 38.1687 79.8507 39.472C79.4306 40.3988 79.3437 41.2967 79.3727 42.2669C79.3872 42.7014 79.3727 43.1358 79.3727 43.5703C79.3582 46.4955 78.9382 49.3194 77.3449 51.8681C77.3014 51.9405 77.3159 52.0274 77.3014 52.1288C79.6913 52.2157 81.7191 53.128 83.3559 54.7499C84.7174 56.0967 86.0354 57.5159 87.1942 59.0364C89.0482 61.4403 90.7283 63.9601 92.5244 66.393C93.2631 67.3922 94.1176 68.3769 95.4647 68.5796C96.1599 68.6955 96.6379 69.0431 97 69.6513ZM55.5896 59.1088C54.764 59.1088 53.9673 59.1088 53.1707 59.1088C50.6215 59.1088 49.0716 60.3977 48.5502 62.8885C47.3625 68.6086 46.1748 74.3288 44.9871 80.0489C44.7119 81.3812 44.4512 82.7135 44.176 84.0603C54.7495 84.0603 65.2505 84.0603 75.7516 84.0603C75.7371 83.8865 75.7516 83.7706 75.7227 83.6548C74.2742 76.6313 72.8258 69.6223 71.3484 62.5988C70.9573 60.7307 69.7841 59.4708 67.8722 59.1957C66.7279 59.0219 65.5257 59.1667 64.367 59.1667C63.7732 61.6286 62.1799 63.0188 59.9783 63.0188C57.7912 63.0333 56.1979 61.6286 55.5896 59.1088ZM50.7228 21.4427C52.1133 21.6744 53.3879 21.964 54.6626 22.0943C56.3862 22.2681 58.1243 22.3115 59.8479 22.4274C60.8328 22.4998 61.4702 23.137 61.4122 23.9624C61.3543 24.7879 60.7315 25.3092 59.761 25.3092C55.8937 25.2802 52.0699 24.9037 48.3764 23.6873C47.9853 23.5569 47.7391 23.6004 47.5218 23.9335C46.6383 25.2078 45.6099 26.4243 44.8712 27.7855C43.6256 30.0881 43.5531 32.6513 43.5242 35.3593C45.4361 35.6779 47.2756 36.0544 49.1296 36.2716C50.578 36.4454 52.0554 36.5033 53.5038 36.0834C55.8648 35.3883 57.8346 34.027 59.7465 32.5644C61.3688 31.319 62.962 30.0301 64.5698 28.7703C65.5402 28.0172 66.2355 28.0607 67.0176 28.973C67.6549 29.7115 68.2198 30.537 68.7412 31.3624C69.5958 32.6947 70.3635 34.0849 71.2325 35.4172C71.7395 36.1847 72.4782 36.735 73.4052 36.8364C74.3466 36.9378 75.3171 36.8509 76.331 36.8509C76.5483 34.3456 76.4903 31.8693 75.7516 29.4798C74.6943 25.9319 72.3913 23.3687 69.3351 21.3992C66.6265 19.647 63.8166 19.4442 60.8908 20.6462C60.268 20.9068 59.732 20.8924 59.0947 20.6462C56.2413 19.5311 53.4749 19.4587 50.7228 21.4427ZM65.5692 31.5941C64.1497 32.7237 62.8027 33.8098 61.4412 34.8814C59.3989 36.4744 57.2552 37.8791 54.7784 38.719C52.2292 39.5879 49.6365 39.2838 47.0583 38.9362C45.6389 38.7479 44.2484 38.3714 42.8434 38.0818C42.9303 39.0376 43.3649 39.4286 44.596 39.7037C45.6389 39.9354 45.9865 40.3264 46.001 41.3836C46.0155 42.18 46.001 42.9765 46.001 43.773C46.03 45.7714 46.8266 47.3789 48.5647 48.407C50.5345 49.5656 52.5189 50.6951 54.5177 51.8102C57.907 53.7217 61.3833 53.91 64.8595 52.0998C67.1335 50.9123 69.3641 49.609 71.5657 48.2767C72.9706 47.4368 73.7383 46.119 73.8832 44.4826C73.9556 43.6427 73.9411 42.8027 73.9411 41.9628C73.9411 41.1953 73.8832 40.4278 74.448 40.0078C73.3762 39.7037 72.203 39.5155 71.1601 39.0521C69.6827 38.4004 68.7412 37.1115 67.9301 35.7503C67.148 34.3746 66.3803 33.0133 65.5692 31.5941ZM29.7786 75.4149C33.3128 76.8051 38.5126 77.283 42.264 76.5734C42.7131 76.4865 42.8434 76.2548 42.9158 75.8638C43.6835 72.0697 44.4801 68.2755 45.2478 64.4959C45.7692 61.9182 46.1313 59.2681 48.5647 57.6317C46.6962 55.1409 42.3654 53.9969 39.6714 56.0967C38.3968 57.0959 37.1801 58.2254 36.1372 59.4708C34.8771 60.9479 33.8197 62.5988 32.7044 64.1918C31.1257 66.4509 29.6048 68.7534 27.4612 70.6215C28.2143 70.607 28.9241 70.5202 29.6338 70.3609C30.3001 70.216 30.8794 70.2595 31.3284 70.8098C31.7485 71.3456 31.7485 71.9249 31.4298 72.5041C30.8939 73.4888 30.3435 74.4301 29.7786 75.4149ZM90.2069 75.4438C89.642 74.4446 89.0337 73.5033 88.5557 72.4896C88.3674 72.0986 88.3674 71.5339 88.4978 71.1284C88.7295 70.4043 89.4682 70.2016 90.3807 70.4043C91.076 70.5636 91.7857 70.636 92.2492 70.7229C91.8291 70.1871 91.3512 69.6223 90.9166 69.0141C88.9902 66.4074 87.1073 63.7573 85.1374 61.1796C84.0076 59.717 82.8054 58.2978 81.4874 57.009C80.0969 55.6333 78.3878 54.8513 76.331 55.0685C74.3611 55.2712 72.7244 56.0822 71.4208 57.5883C73.5066 59.4129 73.9266 60.7162 74.3322 62.6567C75.2447 67.0881 76.1572 71.5049 77.0987 75.9217C77.1566 76.1679 77.4173 76.501 77.6346 76.5444C81.9219 77.3554 86.1223 76.7761 90.2069 75.4438ZM59.9928 15.7515C57.5739 15.9977 55.155 16.1859 52.7506 16.5335C50.7953 16.8086 48.8833 17.3299 47.1742 18.3871C46.2762 18.9519 46.2617 19.4877 47.1742 19.9076C47.377 20.009 47.7825 19.8352 48.0143 19.6759C51.5484 17.1127 55.3578 16.1859 59.5872 17.692C59.8624 17.7933 60.2535 17.7209 60.5576 17.6341C62.3247 17.1127 64.1353 16.7652 65.9748 17.0403C68.2488 17.3734 70.2621 18.4305 72.1016 19.8063C72.7244 20.2841 73.0141 19.8207 73.3472 19.4877C73.7818 19.0532 73.3762 18.7346 73.0576 18.5898C71.9423 18.0395 70.827 17.4458 69.6538 17.0838C66.5107 16.1425 63.2662 15.9252 59.9928 15.7515ZM75.6792 48.3781C74.9115 49.0877 74.1294 50.0724 73.13 50.6661C70.3925 52.3025 67.5535 53.7796 64.7581 55.3292C64.5988 55.416 64.4829 55.6188 64.3525 55.7636C70.5373 55.0975 74.6218 52.1867 75.6792 48.3781ZM44.2918 48.1898C45.4506 52.737 50.549 55.3871 55.7199 55.865C55.4882 55.6188 55.3723 55.4305 55.213 55.3436C54.8074 55.1264 54.3729 54.9961 53.9673 54.7789C51.9975 53.6638 50.0711 52.4908 48.0867 51.4192C46.5948 50.5937 45.2333 49.6524 44.2918 48.1898ZM58.5443 56.2125C58.5443 57.1393 58.4864 58.0517 58.5588 58.9495C58.6168 59.6446 59.2685 60.1225 59.9638 60.137C60.6735 60.1515 61.3543 59.6736 61.4122 58.993C61.4846 58.0661 61.4267 57.1393 61.4267 56.227C60.9342 56.227 60.4852 56.227 60.0362 56.227C59.5727 56.2125 59.0947 56.2125 58.5443 56.2125Z" fill="black"/>
<path d="M54.5032 77.0657C54.9812 75.7334 54.3294 74.6184 53.359 73.5757C52.9679 73.1557 52.6348 72.6779 52.3016 72.2C51.6933 71.3021 52.0119 70.2884 53.0548 69.9409C54.0832 69.5933 55.1405 69.3327 56.1544 68.9996C56.4441 68.8982 56.7483 68.681 56.9221 68.4348C57.5449 67.6094 58.0953 66.726 58.6892 65.8861C59.4279 64.8579 60.5142 64.8434 61.2529 65.8716C61.8178 66.6536 62.3102 67.4935 62.9041 68.2465C63.1793 68.5941 63.5849 68.8982 64.0049 69.0575C64.9029 69.3906 65.8444 69.6078 66.7569 69.8974C67.9881 70.2884 68.3212 71.3311 67.5391 72.3738C66.8293 73.315 65.8299 74.155 65.4823 75.2121C65.1347 76.2693 65.4533 77.5436 65.4678 78.7166C65.4823 80.1068 64.6132 80.7295 63.2807 80.2951C62.1654 79.9186 61.0501 79.2524 59.9348 79.2379C58.8485 79.2379 57.7622 79.9186 56.6614 80.2806C55.3433 80.7295 54.4743 80.1068 54.4743 78.7166C54.5032 78.2387 54.5032 77.7319 54.5032 77.0657ZM64.3091 72.0552C62.1654 71.8814 60.8184 70.9256 59.9928 69.1299C59.1816 70.9546 57.7912 71.8669 55.9082 72.0552C56.4586 72.8806 57.1249 73.5467 57.3711 74.3287C57.6173 75.1107 57.429 76.0086 57.429 76.9064C58.385 76.6313 59.1816 76.2113 59.9783 76.2113C60.8039 76.2113 61.6295 76.6313 62.6144 76.9064C62.1364 75.0094 62.6723 73.4454 64.3091 72.0552Z" fill="black"/>
<path d="M67.8143 23.5135C67.7708 24.31 67.1335 24.8893 66.3369 24.8603C65.5547 24.8313 64.9319 24.1507 64.9609 23.3832C64.9898 22.5722 65.6851 21.9495 66.5107 22.0075C67.2928 22.0654 67.8577 22.7026 67.8143 23.5135Z" fill="black"/>
<path d="M59.9493 50.449C58.9354 50.449 58.0663 50.0724 57.3421 49.3918C56.7628 48.8415 56.7048 48.0306 57.1683 47.4368C57.6318 46.8431 58.4284 46.6983 59.0947 47.1762C59.7175 47.6251 60.239 47.6251 60.8618 47.1762C61.5281 46.6983 62.3247 46.8431 62.7882 47.4223C63.2807 48.045 63.1938 48.856 62.5709 49.4208C61.8467 50.1159 60.9632 50.4634 59.9493 50.449Z" fill="black"/>
<path d="M52.1423 43.9612C51.505 43.9467 50.6939 43.6426 49.9986 43.0199C49.3179 42.4262 49.2165 41.6152 49.7089 40.9636C50.1869 40.3409 50.9691 40.225 51.6933 40.7319C52.2727 41.1373 52.7651 41.1518 53.3445 40.7319C54.0687 40.225 54.8653 40.3409 55.3433 40.9346C55.8503 41.5718 55.7489 42.3828 55.0826 42.991C54.3729 43.6571 53.4169 44.0047 52.1423 43.9612Z" fill="black"/>
<path d="M67.4521 43.9757C66.4382 43.9757 65.5692 43.6426 64.8305 42.9475C64.2076 42.3683 64.1497 41.5428 64.6422 40.9346C65.1202 40.3554 65.9023 40.2395 66.5831 40.7174C67.1769 41.1374 67.6839 41.1518 68.2922 40.7319C69.0019 40.225 69.7986 40.3554 70.2765 40.9925C70.7545 41.6152 70.6531 42.4117 70.0158 42.991C69.2916 43.6571 68.4226 43.9757 67.4521 43.9757Z" fill="black"/>
</g>
<defs>
<clipPath id="clip0_3_16">
<rect width="74" height="74" fill="white" transform="translate(23 13)"/>
</clipPath>
</defs>
</svg>
