<svg width="120" height="100" viewBox="0 0 120 100" fill="none" xmlns="http://www.w3.org/2000/svg">
<rect width="120" height="100" fill="white"/>
<path d="M46.2331 25.6134H42.0766V29.8566H46.2331V25.6134Z" fill="black"/>
<path d="M87.4618 84.9427L91 82.7611L81.5907 67.5047C83.3183 66.5523 84.9222 65.3489 86.3563 63.9149L89.7376 60.5336L72.2848 43.0808C70.0165 40.8125 67.0542 39.4855 63.8778 39.3009L60.2326 33.1622L58.756 25.4196C55.4596 10.1687 33.5385 12.2414 33.1565 27.8392V31.0913H29V35.2478H35.2365C37.0195 35.2072 38.5569 36.848 38.4037 38.6235L37.3295 55.3823C36.5027 65.277 43.3852 75.0018 52.8757 77.6522V85.8747H57.0322V78.4385C57.6948 78.4976 58.3647 78.5289 59.0403 78.5289H61.1905V85.8747H65.3469V78.5289H83.5065L87.4618 84.9427ZM77.9732 54.6496C74.3538 58.1268 68.1284 58.005 64.6474 54.3782L62.2296 51.9604L59.2894 54.9006L61.7073 57.3202C66.7349 62.5601 75.7473 62.6819 80.9152 57.5916L83.8591 60.5354L83.418 60.9765C77.0781 67.5841 65.6699 67.5841 59.33 60.9765L56.8605 58.507C53.4349 55.2199 53.4368 49.3082 56.8605 46.021C60.1477 42.5973 66.0594 42.5973 69.3465 46.021L77.9732 54.6496ZM37.3148 31.394V27.8392C37.5769 17.2561 52.442 15.8645 54.6715 26.1984L55.8565 32.4091L42.1966 36.1337C41.8662 35.1278 41.3181 34.1921 40.5816 33.4076C39.6865 32.4516 38.5514 31.7631 37.3148 31.394ZM59.0384 74.3706C49.1548 74.5976 40.6204 65.4966 41.4768 55.6499L42.455 40.3732L57.2795 36.3312L59.354 39.8251C57.3238 40.4341 55.4615 41.5397 53.9203 43.0808C48.8816 47.9147 48.8835 56.6115 53.9203 61.4453L56.3899 63.913C61.8383 69.4759 70.3376 71.5154 77.7259 69.1566L80.9411 74.3688H59.0384V74.3706Z" fill="black"/>
</svg>
