<svg width="120" height="100" viewBox="0 0 120 100" fill="none" xmlns="http://www.w3.org/2000/svg">
<rect width="120" height="100" fill="white"/>
<path d="M26.9774 36.6677C27.0533 36.3193 27.1293 35.9709 27.2052 35.6242C27.8934 32.4967 29.706 30.0469 32.0502 27.9407C35.803 24.5714 40.2619 22.4477 45.0487 20.9349C50.4752 19.22 56.0472 18.4246 61.737 18.6744C69.4366 19.0116 76.7533 20.7901 83.4351 24.7034C86.4933 26.4947 89.209 28.6836 91.1234 31.7029C92.8989 34.5042 93.5192 37.5045 92.6 40.7385C92.0378 42.7175 90.3851 44.6471 87.3948 44.725C84.3689 44.8046 81.3285 44.8252 78.3091 44.6423C75.0926 44.4466 72.8842 41.1839 73.6645 38.0851C73.7824 37.6142 73.9068 37.1449 74.0425 36.6136C64.7177 32.2517 55.3896 32.1388 45.9711 36.5452C46.0939 37.0431 46.2167 37.5458 46.3411 38.0501C47.1327 41.2953 44.6577 44.5628 41.2667 44.6423C38.3669 44.7091 35.4622 44.6996 32.5623 44.6407C29.9952 44.5882 27.979 42.9179 27.37 40.4824C27.2327 39.932 27.1099 39.3784 26.9806 38.8264C26.9774 38.1058 26.9774 37.3867 26.9774 36.6677ZM36.858 40.7433C36.858 40.7449 36.858 40.7465 36.858 40.7465C38.1698 40.7465 39.48 40.7528 40.7918 40.7449C42.1149 40.7369 42.7433 39.9193 42.4154 38.6451C42.2037 37.8274 41.9824 37.0113 41.7756 36.1921C41.4848 35.0372 41.8483 34.2115 42.9339 33.6643C49.6691 30.2759 56.7435 28.6327 64.3332 29.6778C68.8583 30.2998 73.1362 31.6742 77.1718 33.7804C78.1653 34.299 78.5239 35.1485 78.2477 36.2382C78.0296 37.0972 77.7743 37.9483 77.5579 38.8089C77.2703 39.9543 77.8987 40.8228 79.0991 40.8387C81.7857 40.8737 84.4723 40.8642 87.1589 40.8483C87.9021 40.8435 88.5854 40.5365 88.7276 39.7793C88.9085 38.8153 89.0572 37.8003 88.9473 36.8395C88.7147 34.8065 87.5483 33.1903 86.1638 31.7331C83.7712 29.2181 80.8406 27.473 77.6596 26.1288C70.4916 23.0967 63.0133 22.0087 55.2556 22.804C50.1343 23.329 45.2248 24.6144 40.6108 26.8892C37.6237 28.3591 34.8919 30.1741 32.8418 32.8323C31.3361 34.7842 30.5219 36.9222 31.1729 39.4086C31.4233 40.3663 31.9177 40.7369 32.9242 40.7417C34.236 40.7481 35.5478 40.7433 36.858 40.7433Z" fill="black"/>
<path d="M52.9064 46.0672C52.9064 45.1429 52.8999 44.3189 52.908 43.4949C52.9193 42.3734 53.6754 41.5446 54.7222 41.4921C55.8499 41.4348 56.6932 42.1236 56.8353 43.2642C56.8919 43.724 56.8644 44.1932 56.8692 44.6577C56.8741 45.1 56.8709 45.5406 56.8709 46.0242C58.9646 46.0242 61.0131 46.0242 63.1278 46.0242C63.1278 45.1795 63.1052 44.3587 63.1326 43.541C63.173 42.3113 63.9856 41.4905 65.1197 41.4873C66.1957 41.4841 67.047 42.2795 67.0874 43.3422C67.1052 43.786 67.0923 44.2314 67.0939 44.6752C67.0939 45.1143 67.0939 45.5549 67.0939 46.0672C68.4073 46.0672 69.669 46.0815 70.9292 46.0608C71.5721 46.0513 72.1149 46.2517 72.5479 46.7035C74.8355 49.0865 77.1602 51.4392 79.3897 53.8731C82.5318 57.3029 84.5819 61.3228 85.4947 65.8454C85.8857 67.7813 86.0424 69.7794 86.128 71.7567C86.233 74.1652 86.1555 76.58 86.1522 78.9932C86.1506 80.6317 85.4075 81.3698 83.7645 81.3698C67.9259 81.3698 52.0873 81.3698 36.2487 81.3698C34.5928 81.3698 33.8303 80.6381 33.8432 79.0139C33.869 75.7559 33.8286 72.4948 33.9789 69.2417C34.1065 66.4642 34.8497 63.7869 35.9288 61.213C37.3149 57.9058 39.365 55.0344 41.8691 52.4621C43.6543 50.6295 45.4362 48.7938 47.1987 46.9405C47.7819 46.3281 48.4378 46.0258 49.3021 46.0576C50.4815 46.1006 51.6592 46.0672 52.9064 46.0672ZM37.8044 77.4104C52.643 77.4104 67.3944 77.4104 82.2976 77.4104C82.178 74.3847 82.2087 71.3956 81.9083 68.4399C81.4511 63.9444 79.5738 59.9817 76.5431 56.5966C74.6109 54.4395 72.5592 52.3858 70.543 50.3034C70.375 50.13 70.0729 49.9869 69.8338 49.9869C63.278 49.9694 56.7238 49.971 50.1681 49.9853C49.9435 49.9853 49.6559 50.0982 49.5041 50.2573C47.3053 52.5496 45.0549 54.7974 42.9612 57.1788C40.8869 59.5395 39.5524 62.325 38.6784 65.3315C37.5282 69.2878 37.8755 73.3348 37.8044 77.4104Z" fill="black"/>
<path d="M59.9795 74.2641C54.2783 74.2562 49.6708 69.6986 49.6837 64.0783C49.6967 58.5106 54.3316 53.953 59.9892 53.9482C65.6758 53.9435 70.3156 58.5138 70.314 64.1197C70.3124 69.7336 65.6904 74.2705 59.9795 74.2641ZM59.9989 70.3572C63.4932 70.3588 66.3414 67.5558 66.3414 64.1133C66.3414 60.6757 63.49 57.8648 60.0021 57.8648C56.5158 57.8648 53.6595 60.6773 53.6579 64.1118C53.6563 67.551 56.5029 70.3556 59.9989 70.3572Z" fill="black"/>
</svg>
