<svg width="120" height="100" viewBox="0 0 120 100" fill="none" xmlns="http://www.w3.org/2000/svg">
<rect width="120" height="100" fill="white"/>
<path d="M25.499 37.7344C25.6358 37.3601 25.7456 36.9733 25.9148 36.6134C26.9121 34.4812 28.6276 33.4501 30.9534 33.4465C37.3329 33.4339 43.7107 33.4411 50.0903 33.4411C50.3585 33.4411 50.625 33.4411 50.9346 33.4411C51.4404 30.7583 52.8841 28.7879 55.3754 27.5284C55.2494 27.3053 55.1414 27.0947 55.0172 26.8932C53.9768 25.2162 52.9327 23.541 51.8958 21.8622C51.4512 21.1406 51.5358 20.4947 52.1064 20.1618C52.6735 19.8307 53.2333 20.0232 53.6725 20.725C54.8606 22.6269 56.0469 24.5324 57.217 26.4452C57.4132 26.7655 57.613 26.8698 58.0144 26.868C59.5823 26.8572 61.1538 26.9004 62.7199 26.9778C63.1177 26.9976 63.3175 26.904 63.5155 26.5711C64.6352 24.68 65.7765 22.8014 66.9141 20.9211C67.042 20.7106 67.1644 20.4857 67.3372 20.3183C67.7206 19.9494 68.1796 19.8901 68.626 20.1906C69.0599 20.4821 69.2417 20.9031 69.0365 21.4177C68.9465 21.6444 68.8151 21.8568 68.6891 22.0673C67.546 23.9692 66.3975 25.8694 65.3138 27.6687C66.1581 28.536 67.087 29.2738 67.7296 30.2095C68.374 31.1469 68.7323 32.2805 69.2705 33.4411C69.3533 33.4411 69.6215 33.4411 69.8879 33.4411C76.2891 33.4411 82.6903 33.4339 89.0915 33.4447C91.8349 33.4483 93.9032 35.1271 94.4252 37.7452C94.49 38.0727 94.4972 38.4146 94.4972 38.7493C94.5008 50.7187 94.5026 62.6881 94.499 74.6575C94.499 77.666 92.3551 79.8721 89.3291 79.9962C89.1275 80.0052 88.9241 79.9998 88.7225 79.9998C69.5855 79.9998 50.4485 79.9998 31.3116 79.9998C28.2172 79.9998 26.5215 78.7637 25.589 75.8289C25.5764 75.7911 25.5314 75.7641 25.5008 75.7335C25.499 63.0642 25.499 50.3984 25.499 37.7344ZM60.0413 35.5716C50.3621 35.5716 40.6847 35.5716 31.0056 35.5716C28.8562 35.5716 27.6232 36.7951 27.6214 38.949C27.6178 50.8032 27.6178 62.6575 27.6214 74.5117C27.6214 76.6386 28.8796 77.8856 31.0236 77.8874C50.3369 77.891 69.6485 77.891 88.9619 77.8874C91.1418 77.8874 92.3803 76.644 92.3803 74.4596C92.3839 62.6269 92.3839 50.796 92.3803 38.9634C92.3803 36.779 91.149 35.5716 88.9421 35.5716C79.3079 35.5698 69.6737 35.5716 60.0413 35.5716ZM66.8907 33.4087C66.4029 31.4726 65.3498 30.0475 63.5353 29.4069C61.3266 28.6278 59.0135 28.7304 56.7777 29.2828C54.8858 29.7506 53.2999 31.7317 53.1955 33.4087C57.7318 33.4087 62.2645 33.4087 66.8907 33.4087Z" fill="black"/>
<path d="M53.9803 74.1104C47.1993 74.1104 40.4183 74.1104 33.6391 74.1104C31.344 74.1104 30.0479 72.8292 30.0479 70.535C30.0425 61.3096 30.0425 52.0825 30.0479 42.8571C30.0497 40.5971 31.344 39.2962 33.5923 39.2962C47.1759 39.2926 60.7595 39.2926 74.3432 39.2962C76.6131 39.2962 77.9146 40.6223 77.9146 42.9111C77.9164 52.1149 77.9164 61.3186 77.9146 70.5206C77.9146 72.7932 76.5969 74.1104 74.3216 74.1104C67.5424 74.1122 60.7613 74.1104 53.9803 74.1104ZM54.0055 71.9907C60.7181 71.9907 67.4325 71.9907 74.1452 71.9907C75.5024 71.9907 75.7833 71.7028 75.7833 70.3263C75.7833 61.2575 75.7833 52.1886 75.7833 43.1198C75.7833 41.6911 75.479 41.387 74.0462 41.387C60.6641 41.387 47.2821 41.387 33.9001 41.387C32.4636 41.387 32.1396 41.7037 32.1396 43.1144C32.1396 52.1832 32.1396 61.2521 32.1396 70.3209C32.1396 71.6884 32.4402 71.9907 33.7957 71.9907C40.5335 71.9907 47.2695 71.9907 54.0055 71.9907Z" fill="black"/>
<path d="M81.6696 52.8433C81.72 50.864 83.2969 49.4101 85.3382 49.4587C87.1653 49.5037 88.7242 51.1645 88.6684 53.0071C88.6108 54.9378 86.9907 56.4888 85.0718 56.4475C83.1493 56.4079 81.621 54.7902 81.6696 52.8433ZM85.169 51.5802C84.3986 51.5748 83.7901 52.1578 83.7721 52.9153C83.7559 53.6674 84.3553 54.2972 85.1096 54.317C85.8818 54.3386 86.5497 53.698 86.5479 52.9387C86.5479 52.1883 85.934 51.5856 85.169 51.5802Z" fill="black"/>
<path d="M85.1619 40.2822C87.0988 40.284 88.6901 41.8747 88.6703 43.7892C88.6505 45.6983 87.0142 47.3052 85.1169 47.2782C83.2196 47.253 81.6733 45.6839 81.6679 43.7766C81.6607 41.8171 83.198 40.2786 85.1619 40.2822ZM85.1331 42.3983C84.368 42.4073 83.7686 43.0155 83.774 43.7748C83.7794 44.5251 84.3986 45.1459 85.1475 45.1495C85.9071 45.1549 86.575 44.4766 86.5498 43.7262C86.5228 42.9759 85.8981 42.3893 85.1331 42.3983Z" fill="black"/>
<path d="M85.1565 63.2099C85.9198 63.2099 86.683 63.1991 87.4462 63.2135C88.1699 63.2261 88.6613 63.6814 88.6469 64.2968C88.6325 64.887 88.1573 65.3296 87.4678 65.3368C85.9198 65.3512 84.3699 65.353 82.8218 65.3368C82.1125 65.3296 81.6805 64.9067 81.6751 64.2842C81.6697 63.631 82.1089 63.2261 82.8686 63.2135C83.63 63.2009 84.3933 63.2099 85.1565 63.2099Z" fill="black"/>
<path d="M85.115 71.1865C84.3751 71.1865 83.6353 71.199 82.8955 71.1847C82.1088 71.1685 81.6804 70.7942 81.6732 70.1518C81.666 69.5004 82.0908 69.1028 82.8685 69.0956C84.3932 69.083 85.9178 69.0812 87.4425 69.0956C88.2004 69.1028 88.663 69.531 88.6486 70.1572C88.6342 70.7564 88.1878 71.1631 87.4677 71.1811C86.6847 71.2008 85.8998 71.1847 85.115 71.1865Z" fill="black"/>
</svg>
