<svg width="120" height="100" viewBox="0 0 120 100" fill="none" xmlns="http://www.w3.org/2000/svg">
<rect width="120" height="100" fill="white"/>
<path d="M22.5017 81.5333C22.9131 80.9184 23.2363 80.2174 23.7476 79.7005C27.5579 75.8412 31.4896 72.0993 35.2214 68.1655C40.497 62.6066 44.7147 56.3525 47.1027 48.9784C47.377 48.1286 47.0988 47.3923 46.9911 46.6169C46.3426 41.9822 46.9578 37.4865 48.7679 33.2159C53.0875 23.0261 60.5218 16.2668 71.2806 13.3454C72.7283 12.9518 74.2583 12.8676 75.751 12.6385C76.037 12.5955 76.325 12.5465 76.611 12.4995C77.2457 12.4995 77.8824 12.4995 78.5171 12.4995C79.8394 12.6992 81.1755 12.8285 82.4782 13.1104C90.416 14.8218 96.34 21.3872 97.2999 29.3742C98.1188 36.198 96.391 42.4012 92.7218 48.0835C88.2474 55.0132 82.1119 59.8574 74.1427 62.2208C70.2012 63.3898 66.1911 63.6561 62.1321 62.8298C61.8226 62.7671 61.4582 62.8572 61.1428 62.9531C55.4206 64.6567 50.3899 67.5761 45.8333 71.4237C43.6667 73.2526 41.5353 75.103 39.5449 77.1217C36.4752 80.2331 33.3663 83.3092 30.275 86.3991C28.7999 87.8735 27.8752 87.8676 26.3825 86.3756C25.5009 85.4964 24.59 84.6427 23.7516 83.7224C23.2716 83.1957 22.9131 82.5593 22.4998 81.9719C22.5017 81.827 22.5017 81.6801 22.5017 81.5333ZM48.2468 43.7973C48.3212 44.5042 48.38 45.775 48.6033 47.0183C49.5711 52.4089 52.3137 56.6384 57.121 59.3542C62.2066 62.2267 67.6486 62.4127 73.1593 60.9265C81.0325 58.804 87.0681 54.0929 91.4523 47.2925C95.0726 41.6748 96.8239 35.5441 95.6681 28.8377C94.6494 22.9204 91.4543 18.4971 85.9907 15.8948C81.1657 13.596 76.1174 13.5784 71.0475 14.9432C64.0931 16.8151 58.5609 20.8272 54.2393 26.5154C50.4937 31.4438 48.3506 36.9793 48.2468 43.7973ZM36.6358 68.9624C36.628 68.9664 36.5594 68.9938 36.5124 69.0408C32.4691 73.0783 28.4316 77.1198 24.3843 81.1534C23.9494 81.5861 24.0239 81.9366 24.4274 82.3322C25.4735 83.3582 26.502 84.3999 27.5402 85.4357C28.2729 86.168 28.3885 86.168 29.1329 85.424C32.9843 81.5744 36.8357 77.7248 40.6851 73.8753C40.8496 73.7108 40.9966 73.5287 41.0925 73.4229C39.5802 71.9094 38.1188 70.4447 36.6358 68.9624ZM46.1742 65.0698C49.3575 63.1059 52.7838 61.839 56.214 60.764C54.9113 59.7008 53.5615 58.7609 52.4175 57.6174C51.2773 56.4797 50.3429 55.1365 49.3046 53.8677C48.2487 57.3256 46.9343 60.7405 45.0615 63.8382C45.467 64.2866 45.8078 64.6625 46.1742 65.0698ZM42.362 72.3303C44.0134 71.0126 45.6609 69.6967 47.1968 68.471C45.3142 66.5619 43.4766 64.6978 41.6176 62.8122C40.3285 64.4315 39.0141 66.0802 37.727 67.6956C39.2922 69.2601 40.7909 70.758 42.362 72.3303ZM48.1861 51.0637C46.3838 54.5785 44.5933 58.0717 42.8106 61.5472C43.1279 61.8566 43.5393 62.26 43.9723 62.6829C44.033 62.5928 44.1172 62.4812 44.1878 62.3598C46.0527 59.1055 47.2712 55.5947 48.2723 51.9997C48.3565 51.7001 48.2154 51.3379 48.1861 51.0637ZM59.0585 62.0681C59.0487 61.9976 59.0369 61.9271 59.0271 61.8566C58.698 61.8409 58.3356 61.7254 58.0457 61.8233C55.5852 62.6555 53.1188 63.4779 50.6916 64.4041C49.526 64.8485 48.4407 65.5084 47.0929 66.182C47.5533 66.5521 47.8569 66.7929 48.1547 67.0396C48.284 67.1454 48.4055 67.2628 48.572 67.4097C51.7945 65.0855 55.3285 63.3839 59.0585 62.0681Z" fill="black"/>
<path d="M93.4741 32.3678C93.3526 37.915 91.6561 42.681 88.5962 46.9476C84.304 52.9334 78.7033 57.0924 71.4198 58.7019C66.4165 59.8082 61.5837 59.3892 57.2523 56.3934C53.4225 53.746 51.4106 49.9591 50.9698 45.3792C50.2744 38.1324 52.9112 31.9742 57.509 26.568C61.282 22.131 65.9444 18.9727 71.6157 17.4434C76.2291 16.2 80.8014 16.1726 85.1719 18.3598C89.7089 20.6311 92.2575 24.4102 93.1704 29.3465C93.237 29.7048 93.286 30.069 93.3193 30.4313C93.3859 31.1636 93.4369 31.894 93.4741 32.3678ZM87.3581 21.6023C86.0906 20.4627 84.6116 19.6012 82.9582 19.0373C82.8309 18.9942 82.6076 19.0294 82.5174 19.1176C80.9738 20.637 79.4457 22.1721 77.9687 23.6485C79.2283 24.9134 80.4468 26.1372 81.6281 27.3238C83.5028 25.4519 85.4148 23.5428 87.3581 21.6023ZM82.8603 28.4771C84.0788 29.6853 85.2992 30.8934 86.5628 32.1446C87.9732 30.7289 89.4542 29.2486 90.9196 27.7526C91.0351 27.6352 91.139 27.3865 91.0939 27.2533C90.518 25.5909 89.6971 24.0676 88.5335 22.8046C86.5921 24.745 84.6998 26.6385 82.8603 28.4771ZM57.5834 44.0105C56.1945 45.4027 54.7958 46.7988 53.4088 48.2086C53.2952 48.3241 53.1796 48.5611 53.2227 48.6883C53.7927 50.3586 54.6449 51.8643 55.7831 53.0999C57.6324 51.2515 59.4366 49.45 61.2095 47.6799C60.0439 46.4992 58.8293 45.2695 57.5834 44.0105ZM57.0016 54.3139C58.2103 55.4045 59.6051 56.1682 61.1076 56.7693C61.5641 56.9514 61.852 56.8633 62.1792 56.5089C62.8394 55.7922 63.5466 55.1186 64.242 54.4353C64.8787 53.8087 65.5251 53.1919 66.0815 52.6574C64.7709 51.3435 63.5583 50.1275 62.379 48.9449C60.6355 50.6817 58.845 52.4713 57.0016 54.3139ZM68.4382 23.7347C69.6175 24.9154 70.8379 26.1353 72.0094 27.3082C73.1926 26.1314 74.4288 24.8997 75.5944 23.7386C74.4053 22.5501 73.1848 21.3282 72.0133 20.1573C70.836 21.336 69.6175 22.554 68.4382 23.7347ZM62.4299 46.5266C63.623 45.3361 64.8434 44.1182 66.0208 42.9434C64.8297 41.7509 63.6112 40.531 62.4143 39.3327C61.2565 40.5056 60.0321 41.747 58.8509 42.9414C60.0223 44.1143 61.2448 45.3381 62.4299 46.5266ZM76.8442 24.9174C75.6414 26.1177 74.4053 27.3512 73.2828 28.4713C74.4817 29.6657 75.7119 30.8934 76.8677 32.0447C78.0176 30.8973 79.2322 29.6813 80.4272 28.4889C79.2479 27.316 78.0255 26.0961 76.8442 24.9174ZM76.7874 51.3219C78.0078 50.1001 79.2244 48.8822 80.4115 47.6956C79.2322 46.5168 78.0118 45.295 76.8579 44.1437C75.6688 45.34 74.4366 46.5775 73.2416 47.7778C74.3935 48.9292 75.5983 50.1334 76.7874 51.3219ZM75.5513 42.9884C74.3524 41.7901 73.1221 40.5584 72.0212 39.458C70.8693 40.6054 69.6527 41.8175 68.5244 42.9414C69.6743 44.0928 70.8889 45.3068 72.0603 46.4796C73.2279 45.3107 74.4484 44.0908 75.5513 42.9884ZM68.4558 33.2627C69.6763 34.4845 70.8908 35.7005 72.0349 36.8479C73.1985 35.6848 74.4151 34.4688 75.5787 33.3057C74.4151 32.1309 73.2005 30.9071 72.0114 29.7068C70.8262 30.8914 69.6214 32.0956 68.4558 33.2627ZM78.049 33.2607C79.2733 34.4845 80.4938 35.7024 81.5987 36.8068C82.7643 35.6515 83.9847 34.4395 85.1033 33.3312C83.9455 32.1681 82.7329 30.9502 81.5497 29.7616C80.3998 30.9091 79.195 32.1133 78.049 33.2607ZM54.0827 38.0756C55.2777 39.2622 56.5079 40.486 57.6715 41.6412C58.8293 40.4899 60.0517 39.2739 61.2036 38.1304C60.0125 36.9438 58.7921 35.7279 57.6089 34.5472C56.4393 35.7161 55.2228 36.9321 54.0827 38.0756ZM58.8509 33.3253C60.0263 34.4982 61.2448 35.7142 62.4319 36.8988C63.6034 35.7259 64.818 34.51 65.9914 33.3331C64.8062 32.1524 63.5877 30.9365 62.4045 29.7577C61.2428 30.9247 60.0263 32.1446 58.8509 33.3253ZM76.8187 34.5432C75.6394 35.724 74.4229 36.9399 73.2671 38.0952C74.4503 39.27 75.6845 40.4958 76.8442 41.6471C78.0039 40.486 79.2224 39.2681 80.3684 38.1206C79.2028 36.9438 77.9902 35.724 76.8187 34.5432ZM89.9597 38.1383C88.7882 36.9654 87.5716 35.7455 86.4256 34.5981C85.2581 35.7631 84.0415 36.9771 82.8838 38.1343C84.0513 39.2955 85.2718 40.5075 86.4315 41.6608C87.5951 40.4997 88.8136 39.2818 89.9597 38.1383ZM63.6602 38.0619C64.8865 39.2896 66.1031 40.5056 67.2256 41.6295C68.3931 40.4684 69.6155 39.2544 70.7263 38.15C69.5626 36.9771 68.3481 35.7572 67.1609 34.5609C66.009 35.7102 64.8062 36.9164 63.6602 38.0619ZM81.6672 39.3268C80.4625 40.5291 79.24 41.7489 78.1097 42.8787C79.2714 44.0497 80.4997 45.2872 81.5869 46.3817C82.7604 45.2226 83.9828 44.0144 85.168 42.8455C84.0219 41.6941 82.8211 40.4879 81.6672 39.3268ZM63.6778 47.6976C64.8473 48.8704 66.0619 50.0864 67.2314 51.2573C68.4009 50.0825 69.6155 48.8665 70.7752 47.7015C69.6077 46.5325 68.3912 45.3146 67.2256 44.1476C66.0502 45.3244 64.8336 46.5423 63.6778 47.6976ZM71.9937 56.0683C73.1966 54.868 74.417 53.6521 75.5611 52.5105C74.3915 51.3396 73.173 50.1197 72.0447 48.9879C70.8771 50.1569 69.6606 51.3729 68.4715 52.5634C69.6214 53.7069 70.8281 54.9091 71.9937 56.0683ZM70.8105 28.5163C69.6253 27.3395 68.4029 26.1274 67.2256 24.9565C66.0443 26.1333 64.8219 27.3473 63.6641 28.4987C64.8454 29.6794 66.0619 30.8953 67.2471 32.078C68.4127 30.913 69.6292 29.697 70.8105 28.5163ZM80.868 18.4636C78.4036 17.9662 75.994 18.0465 73.5884 18.5282C73.412 18.5634 73.273 18.7729 73.1809 18.8493C74.4484 20.122 75.6629 21.3419 76.8207 22.505C78.1215 21.2068 79.4595 19.8695 80.868 18.4636ZM91.6698 29.4327C90.3123 30.7916 88.9802 32.125 87.8008 33.3077C88.9292 34.4551 90.134 35.6789 91.4132 36.9791C92.0773 34.4649 92.0969 31.941 91.6698 29.4327ZM52.6742 46.6833C54.0004 45.3577 55.2385 44.1202 56.3022 43.0569C55.1072 41.8566 53.8848 40.627 52.7055 39.4443C52.2432 41.7391 52.1629 44.173 52.6742 46.6833ZM67.2373 53.8165C66.0658 54.9875 64.8513 56.1975 63.6171 57.4292C65.9933 57.8972 68.4049 57.8032 70.7537 57.3274C69.5607 56.1368 68.3657 54.9424 67.2373 53.8165ZM66.1481 23.6427C65.6388 23.1864 65.1353 22.7361 64.5417 22.2054C63.2331 23.2589 61.8638 24.3632 60.5904 25.3893C61.3094 26.1274 61.9108 26.7462 62.4672 27.318C63.6426 26.1451 64.8473 24.9428 66.1481 23.6427ZM57.5854 32.2092C58.8352 30.96 60.0596 29.7362 61.2408 28.5555C60.6727 27.9622 60.0713 27.3317 59.3661 26.5935C58.273 28.0013 57.2073 29.3759 56.1514 30.7367C56.7018 31.3007 57.1544 31.7667 57.5854 32.2092ZM86.5157 44.0849C85.2502 45.3459 84.0278 46.5619 82.8426 47.7406C83.3676 48.2869 83.9358 48.8783 84.5489 49.5166C86.0064 48.0109 87.2739 46.4091 88.224 44.5627C88.2925 44.7291 88.224 44.8329 87.8655 45.3263C87.4776 44.9602 86.8409 44.3943 86.5157 44.0849ZM81.6966 48.9605C80.4605 50.1921 79.244 51.4061 78.0176 52.628C78.3605 52.9981 78.766 53.4367 79.2557 53.9653C80.5839 52.9413 82.0179 51.833 83.4852 50.7012C82.7858 50.0218 82.2001 49.452 81.6966 48.9605ZM70.3403 19.4739C70.3286 19.425 70.3168 19.376 70.3051 19.3251C68.8711 19.9869 67.4391 20.6488 66.0795 21.2773C66.5301 21.7805 66.8945 22.1878 67.2393 22.5735C68.2756 21.5377 69.308 20.5058 70.3403 19.4739ZM88.7431 44.1162C89.4013 42.6908 90.0145 41.3671 90.7001 39.8829C89.5541 41.0166 88.5648 41.9976 87.6422 42.9101C87.9517 43.2508 88.2906 43.6209 88.7431 44.1162ZM53.5361 36.1156C54.5215 35.1307 55.4755 34.179 56.3962 33.2607C56.1122 32.9474 55.7713 32.5754 55.3384 32.0996C54.7154 33.4898 54.1258 34.8037 53.5361 36.1156ZM76.9226 53.6579C75.9842 54.588 75.1105 55.4535 74.2387 56.3189C74.2446 56.3464 74.2525 56.3757 74.2583 56.4031C75.469 55.847 76.6796 55.291 77.9412 54.7133C77.5201 54.2767 77.2007 53.9458 76.9226 53.6579Z" fill="black"/>
</svg>
