<svg width="120" height="100" viewBox="0 0 120 100" fill="none" xmlns="http://www.w3.org/2000/svg">
<rect width="120" height="100" fill="white"/>
<path d="M108.509 66.0374C107.587 67.389 106.312 66.8489 104.972 66.6223C104.545 67.8212 104.114 69.0358 103.681 70.2479C103.534 70.6563 103.403 71.0726 103.229 71.4731C102.847 72.3479 102.123 72.7088 101.353 72.4374C100.519 72.145 100.126 71.4125 100.412 70.4718C100.767 69.3151 101.211 68.1848 101.612 67.0412C101.743 66.6671 101.855 66.285 102.005 65.8187C98.062 64.4907 94.7124 62.2985 91.7558 59.4871C91.6783 59.5477 91.6007 59.6057 91.5232 59.6663C92.6353 61.6292 93.6698 63.6396 94.8835 65.542C95.8031 66.9833 96.9392 68.2902 97.9952 69.6471C98.4309 70.2084 98.8265 70.7564 98.4657 71.5073C98.0967 72.2794 97.4311 72.4006 96.6532 72.3953C93.5896 72.3768 90.5261 72.361 87.4652 72.4032C86.4146 72.419 85.8399 71.9816 85.479 71.0515C84.6556 68.9357 83.7814 66.841 82.926 64.7384C82.8137 64.4617 82.6774 64.1982 82.4822 63.7767C81.6428 66.2745 80.8649 68.5958 80.0843 70.9171C79.6192 72.3031 79.2823 72.5534 77.8415 72.5534C60.0322 72.556 42.2203 72.5534 24.411 72.5586C23.6117 72.5586 22.8926 72.4612 22.4809 71.676C22.0693 70.8934 22.5505 70.3401 22.9381 69.7209C25.2344 66.0453 27.504 62.3565 29.7816 58.6677C29.8885 58.4938 29.9607 58.2988 29.9875 58.0643C26.5416 61.7004 22.7215 64.7779 17.8108 66.4563C18.1449 67.5155 18.4577 68.5141 18.7731 69.5154C18.8667 69.8105 18.9736 70.1056 19.0512 70.406C19.3212 71.4599 18.9389 72.2267 18.0273 72.4822C17.2387 72.7062 16.5249 72.2662 16.1908 71.2939C15.7283 69.9449 15.3032 68.5826 14.8408 67.1624C14.3302 67.2178 13.8383 67.2916 13.3411 67.3232C12.2985 67.3864 11.5847 66.8647 11.4992 66.0005C11.4137 65.1178 12.0044 64.4933 13.0497 64.3669C13.2956 64.3379 13.5389 64.301 13.8891 64.2536C13.7314 63.7266 13.5763 63.2655 13.4534 62.7939C13.2154 61.8717 13.6218 61.0575 14.4157 60.8335C15.2712 60.5911 15.9929 60.9758 16.3431 61.9006C16.541 62.4197 16.6853 62.9599 16.9286 63.7319C18.4229 62.9757 19.9226 62.3486 21.2807 61.5054C25.0794 59.1498 28.036 55.9221 30.6237 52.3519C31.431 51.24 32.1448 50.0622 32.9387 48.9424C35.898 44.7582 37.1759 39.9839 38.0259 35.0514C38.4991 32.3006 38.5152 32.3033 41.3034 32.024C48.048 31.3442 54.806 30.754 61.5373 29.9582C67.512 29.2521 73.4573 28.3193 79.416 27.4736C80.5094 27.3181 81.1135 27.6923 81.4183 28.7963C82.8618 34.0344 84.0408 39.3647 85.8185 44.4895C88.457 52.099 92.9935 58.3594 100.561 62.0403C101.096 62.3011 101.663 62.4961 102.219 62.7148C102.449 62.8044 102.687 62.8782 103.005 62.9888C103.211 62.4461 103.39 61.9244 103.604 61.4185C103.989 60.5121 104.75 60.1326 105.55 60.4251C106.368 60.7229 106.702 61.4553 106.429 62.4013C106.309 62.8176 106.159 63.2233 106.071 63.4947C106.921 63.9927 107.715 64.4591 108.509 64.9255C108.509 65.2891 108.509 65.6632 108.509 66.0374ZM77.9778 30.8514C73.2461 31.4706 68.6321 32.1135 64.0073 32.6695C59.6874 33.1886 55.3594 33.6339 51.0313 34.0818C48.0186 34.3927 45.0032 34.6667 41.9877 34.9249C41.3702 34.9776 41.0253 35.1305 40.9719 35.8287C40.9157 36.5665 40.6939 37.291 40.5308 38.0183C38.0767 49.0636 33.6418 59.2816 27.357 68.7302C27.1966 68.9726 27.0469 69.2255 26.8678 69.5154C27.0683 69.5496 27.1297 69.5681 27.1912 69.5681C39.6352 69.5707 52.0766 69.5681 64.5206 69.5892C65.082 69.5892 65.2985 69.3415 65.475 68.9015C67.4158 64.0849 69.4287 59.2948 71.2947 54.4493C74.2352 46.8029 76.2108 38.8799 77.9778 30.8514ZM80.1084 36.3082C77.0368 47.762 73.5642 58.8679 68.5733 69.5813C71.3508 69.5813 73.9385 69.5549 76.5235 69.5997C77.1838 69.6102 77.4431 69.3968 77.6383 68.7934C78.6728 65.6026 79.7448 62.425 80.8409 59.2526C80.9852 58.8363 81.2472 58.3805 81.5947 58.1249C82.4208 57.511 83.4099 57.9457 83.8804 59.0892C85.086 62.0218 86.2756 64.9623 87.4679 67.9002C88.0827 69.4179 88.08 69.4205 89.7027 69.4205C91.034 69.4205 92.3626 69.4205 93.7901 69.4205C86.9145 59.2394 83.4767 47.8885 80.1084 36.3082Z" fill="black"/>
<path d="M51.7822 57.2138C49.3816 57.2138 46.9837 57.2191 44.5831 57.2112C42.6931 57.2059 42.0943 56.4049 42.6316 54.6053C43.2438 52.5527 43.8587 50.5002 44.4682 48.445C44.8852 47.0459 45.1418 46.8087 46.6522 46.7481C51.6673 46.5479 56.6823 46.3661 61.6973 46.1974C63.1943 46.1474 63.8333 46.98 63.4189 48.4002C62.7078 50.8453 61.9807 53.2852 61.2402 55.7225C60.89 56.8818 60.4329 57.2033 59.1657 57.2085C56.7063 57.2191 54.2443 57.2112 51.7822 57.2138ZM45.9732 54.0309C46.0588 54.1205 46.0775 54.16 46.0989 54.16C50.0981 54.1811 54.0973 54.2048 58.0938 54.1969C58.2916 54.1969 58.6017 53.9413 58.6658 53.7437C59.1417 52.2761 59.5667 50.7926 60.0399 49.2144C55.8509 49.3698 51.7635 49.5174 47.6788 49.6939C47.489 49.7018 47.1976 49.9179 47.1414 50.0944C46.7191 51.4145 46.3448 52.7503 45.9732 54.0309Z" fill="black"/>
</svg>
