<svg width="120" height="100" viewBox="0 0 120 100" fill="none" xmlns="http://www.w3.org/2000/svg">
<rect width="120" height="100" fill="white"/>
<path d="M60.4443 12C60.9133 12.463 60.904 13.0463 60.8854 13.6435C60.8715 14.2083 60.8808 14.7778 60.8808 15.3287C62.5429 15.8102 62.8447 16.1991 62.8215 17.9167C62.8076 18.838 63.0212 19.8009 62.3758 20.6343C62.2644 20.7778 62.3294 21.0648 62.3386 21.287C62.5987 27.8565 62.7379 34.4398 63.1744 41C63.4994 45.9213 64.2144 50.8194 64.7344 55.7268C64.7947 56.2778 65.013 56.3981 65.5283 56.4167C65.844 56.4306 66.2898 56.6435 66.4198 56.8935C66.5451 57.1481 66.4708 57.7037 66.2665 57.8796C65.078 58.912 65.2219 60.0324 65.6862 61.3796C66.6148 64.0833 67.3808 66.8426 68.198 69.5833C68.3234 70.0093 68.4766 70.2546 68.9966 70.2176C69.693 70.1667 70.0319 70.5787 70.0644 71.2593C70.0691 71.3333 70.0784 71.4074 70.0644 71.4815C69.7394 73.7037 70.5148 75.588 71.6662 77.4583C73.4352 80.3426 75.0184 83.338 76.6806 86.2917C77.3259 87.4398 76.9963 87.9907 75.6638 87.9907C73.7556 87.9907 71.8427 87.9907 69.9344 87.9907C68.9919 87.9907 68.7551 87.7639 68.6855 86.8333C68.3605 82.4537 65.663 79.3935 61.4054 78.5648C56.6604 77.6435 51.6925 81.4398 51.3535 86.25C51.335 86.4954 51.3303 86.7454 51.3117 86.9907C51.2607 87.6667 50.931 88.0093 50.2114 88C48.201 87.9815 46.1953 87.9954 44.1849 87.9907C43.0659 87.9861 42.7038 87.3889 43.2517 86.412C45.2992 82.7731 47.3421 79.1343 49.4174 75.5093C49.7842 74.8657 49.9932 74.2269 49.9467 73.4815C49.9003 72.7685 49.9235 72.0463 49.9421 71.3287C49.9607 70.5463 50.2578 70.1991 51.0146 70.2222C51.5346 70.2361 51.6832 70 51.8085 69.5787C52.7603 66.3889 53.7121 63.1991 54.7057 60.0231C54.8589 59.5278 54.7986 59.1852 54.4643 58.8194C54.1811 58.5093 53.9118 58.1806 53.6703 57.838C53.1875 57.1435 53.545 56.3935 54.3993 56.3981C54.975 56.4028 55.1793 56.2546 55.2814 55.6435C56.1636 50.3472 56.665 45.0139 56.9018 39.6574C57.1711 33.5556 57.4125 27.4537 57.6447 21.3519C57.6586 20.9861 57.4218 20.6111 57.4079 20.2407C57.3615 18.9815 57.2082 17.6898 57.4172 16.4676C57.5007 15.9676 58.4108 15.6111 59.1397 15.0324C59.3486 14.2407 58.6893 13.0093 59.5529 12C59.8501 12 60.1472 12 60.4443 12ZM63.0304 56.3472C61.0944 44.8241 61.0897 33.2037 60.5326 21.6157C60.1333 21.6157 59.8036 21.6157 59.46 21.6157C58.9029 33.2361 58.8936 44.838 56.9622 56.3472C59.0097 56.3472 60.9829 56.3472 63.0304 56.3472ZM45.392 86.2037C46.8499 86.2037 48.1824 86.2037 49.5103 86.2037C50.4853 79.5417 55.6204 76.9398 59.2047 76.7222C61.7722 76.5648 64.1215 77.1898 66.1923 78.7222C68.7087 80.5833 70.083 83.1204 70.4591 86.1944C71.8473 86.1944 73.1752 86.1944 74.4938 86.1944C74.4938 86.1111 74.5123 86.0556 74.4891 86.0185C72.6134 82.6806 70.747 79.338 68.8434 76.0185C68.7319 75.8241 68.3744 75.6759 68.1284 75.6759C62.6962 75.6574 57.2686 75.6574 51.8364 75.6806C51.5857 75.6806 51.2375 75.8982 51.1028 76.1157C50.4946 77.1019 49.9514 78.1296 49.3803 79.1389C48.071 81.463 46.7571 83.7824 45.392 86.2037ZM56.1682 58.1667C56.8693 58.8333 56.7254 59.4583 56.5164 60.1204C55.8989 62.0694 55.3186 64.0324 54.7243 65.9907C54.3064 67.3704 53.8886 68.75 53.4475 70.2037C54.0139 70.2037 54.4875 70.1713 54.9518 70.213C55.4625 70.2593 55.6204 70.0417 55.7039 69.5602C56.1218 67.1806 56.5907 64.8102 57.0272 62.4306C57.1479 61.7639 57.5007 61.4352 58.1879 61.4398C59.3533 61.4491 60.5186 61.4398 61.684 61.4444C62.5754 61.4491 62.8122 61.6574 62.9747 62.5278C63.3508 64.5139 63.7222 66.5 64.1122 68.4861C64.479 70.3472 64.4883 70.3426 66.4012 70.1713C66.4244 70.1713 66.4476 70.1528 66.4987 70.1343C66.4476 69.9259 66.4058 69.713 66.3408 69.5046C65.4494 66.5556 64.5487 63.6111 63.6619 60.6574C63.4158 59.838 62.8726 59.0093 63.8197 58.162C61.2058 58.1667 58.7775 58.1667 56.1682 58.1667ZM51.7343 73.8565C57.2825 73.8565 62.7519 73.8565 68.2351 73.8565C68.2351 73.2083 68.2351 72.6065 68.2351 72.0139C62.7054 72.0139 57.2361 72.0139 51.7343 72.0139C51.7343 72.6389 51.7343 73.2222 51.7343 73.8565ZM61.3219 63.25C60.3979 63.25 59.5436 63.25 58.6754 63.25C58.2436 65.5741 57.8165 67.8611 57.3893 70.1667C59.1954 70.1667 60.8715 70.1667 62.6172 70.1667C62.1808 67.838 61.7536 65.5648 61.3219 63.25ZM61.0247 17.25C60.3097 17.25 59.6365 17.25 58.9679 17.25C58.9679 17.9907 58.9679 18.6713 58.9679 19.3704C59.6829 19.3704 60.3561 19.3704 61.0247 19.3704C61.0247 18.6296 61.0247 17.9444 61.0247 17.25Z" fill="black"/>
</svg>
