<svg width="120" height="100" viewBox="0 0 120 100" fill="none" xmlns="http://www.w3.org/2000/svg">
<rect width="120" height="100" fill="white"/>
<path d="M63.3131 86.3691C61.8413 85.9412 60.3175 85.6333 58.9043 85.0596C55.4887 83.6789 52.6168 81.449 49.9305 78.976C44.9162 74.3639 40.8265 68.9933 37.0788 63.3472C36.268 62.1285 35.5028 60.8775 34.6921 59.6037C30.8368 61.0719 27.9878 63.6973 25.6466 67.0681C25.0084 66.6467 24.3865 66.2383 23.6279 65.7359C24.4126 64.7506 25.1224 63.7588 25.9397 62.8578C28.0855 60.4885 30.5926 58.6119 33.6175 57.4613C33.8129 57.3868 34.0506 57.0788 34.0506 56.8779C34.0734 52.3533 34.0669 47.8286 34.0636 43.304C34.0636 43.2132 34.0343 43.1225 34.0115 43.0026C33.6501 42.9734 33.305 42.9442 32.9338 42.9118C32.9338 42.1372 32.9338 41.4112 32.9338 40.6268C33.2887 40.6009 33.6306 40.5782 34.0408 40.5458C34.0408 39.0192 34.0408 37.5153 34.0408 35.9498C41.1424 35.9498 48.1722 35.9498 55.2901 35.9498C55.2901 37.4343 55.2901 38.9576 55.2901 40.536C55.7166 40.562 56.0617 40.5847 56.4622 40.6106C56.4622 41.369 56.4622 42.1112 56.4622 42.9118C56.1008 42.9377 55.7557 42.9637 55.3682 42.9961C55.3682 43.291 55.3682 43.5633 55.3682 43.9392C60.3337 43.4271 65.2244 42.5942 70.1964 41.2653C69.6461 41.0676 69.2391 40.9282 68.8419 40.7759C65.3221 39.4114 62.7074 36.9578 60.5747 33.9338C59.0932 31.8303 57.9242 29.5615 57.0581 27.1436C56.8693 26.6186 56.6218 26.4922 56.0943 26.4954C52.8643 26.5149 50.0445 27.7724 47.3192 29.3184C44.9292 30.6765 42.8323 32.4202 40.8591 34.3552C40.3153 33.7815 39.7943 33.237 39.1594 32.5693C40.5563 31.4252 41.9531 30.1838 43.4509 29.0818C46.1665 27.0885 49.1426 25.5846 52.3889 24.622C52.6103 24.5572 52.9164 24.2525 52.9196 24.0516C52.9587 22.1588 52.9424 20.2659 52.9424 18.3083C52.5582 18.2856 52.2131 18.2629 51.8158 18.2402C51.8158 17.4883 51.8158 16.746 51.8158 15.952C52.174 15.9196 52.5191 15.8904 52.9392 15.8547C52.9392 15.1028 52.9392 14.38 52.9392 13.6216C57.6996 13.6216 62.3753 13.6216 67.1259 13.6216C67.1259 14.3541 67.1259 15.0769 67.1259 15.8482C67.5362 15.8839 67.8781 15.9163 68.2623 15.952C68.2623 16.7201 68.2623 17.4623 68.2623 18.2467C67.9106 18.2629 67.585 18.2759 67.1845 18.2953C67.1845 20.6095 67.1845 22.9172 67.1845 25.2638C66.898 25.3221 66.6798 25.3675 66.3705 25.4323C68.0702 27.6784 70.0662 29.3865 72.9967 29.9148C72.9967 28.7837 72.9967 27.6881 72.9967 26.5537C78.5385 26.5537 83.999 26.5537 89.5311 26.5537C89.5311 28.0706 89.5311 29.5777 89.5311 31.1497C89.9381 31.1789 90.2832 31.2048 90.674 31.234C90.674 31.9859 90.674 32.7314 90.674 33.5157C90.319 33.5481 89.9739 33.5805 89.5571 33.6194C89.5571 34.1866 89.5571 34.7247 89.5571 35.2659C89.5571 37.3273 89.5701 39.3887 89.5473 41.45C89.5408 41.9362 89.6483 42.1761 90.1693 42.3543C92.6927 43.2067 94.731 44.7398 96.3721 46.9341C95.7437 47.404 95.1446 47.8545 94.578 48.2824C93.751 47.5142 92.9988 46.7234 92.1522 46.046C90.026 44.3509 87.5351 43.9328 84.8911 44.1467C84.7609 44.1564 84.5818 44.2763 84.5265 44.393C83.6896 46.1659 82.1691 47.2128 80.5182 48.0912C77.4542 49.7182 74.1428 50.697 70.763 51.3517C66.8752 52.1037 62.9419 52.6288 59.028 53.2543C58.8685 53.2802 58.7122 53.3224 58.4452 53.3807C58.6601 53.7016 58.8327 53.9706 59.015 54.2331C62.2744 58.9717 65.804 63.4931 69.988 67.4667C72.3878 69.7485 74.9698 71.7936 77.9915 73.2197C79.9061 74.124 81.9021 74.6815 84.0413 74.6037C84.2302 74.5972 84.4223 74.6102 84.6111 74.6232C84.6534 74.6264 84.6958 74.6588 84.8683 74.7398C84.8683 78.5806 84.8683 82.4797 84.8683 86.3788C77.6919 86.3691 70.5025 86.3691 63.3131 86.3691ZM63.5507 77.1091C61.9943 76.6392 60.4835 76.2956 59.0639 75.7316C55.3161 74.2375 52.2163 71.7645 49.3282 69.0225C44.6199 64.5497 40.7093 59.4319 37.1341 54.0387C36.9518 53.7632 36.7597 53.4941 36.4601 53.0566C36.4601 54.7096 36.4471 56.1292 36.4731 57.5488C36.4764 57.7887 36.5936 58.0479 36.7206 58.2619C39.5794 63.0296 42.7704 67.5607 46.3716 71.8001C49.3314 75.2844 52.5224 78.532 56.3776 81.0536C58.5559 82.4797 60.871 83.6044 63.5507 83.9252C63.5507 81.6078 63.5507 79.3196 63.5507 77.1091ZM82.397 41.0093C80.9903 41.6251 79.6033 42.3511 78.138 42.8502C72.1371 44.8954 65.8854 45.5922 59.6109 46.127C58.1977 46.2469 56.7846 46.3377 55.2282 46.4511C55.3356 47.2841 55.3128 48.0814 55.5603 48.788C55.8045 49.4848 56.3027 50.1039 56.7325 50.7262C56.8497 50.8947 57.1395 51.0568 57.3316 51.0406C62.346 50.5641 67.3148 49.7928 72.2022 48.5579C74.9405 47.8643 77.6626 47.0961 80.1307 45.6733C82.296 44.4222 82.7389 43.4401 82.397 41.0093ZM53.0075 54.6772C53.1085 54.8522 53.1378 54.917 53.1801 54.9753C57.9014 61.1757 62.9256 67.1005 68.8679 72.1923C71.577 74.513 74.4489 76.6067 77.7473 78.0426C79.2223 78.6843 80.7396 79.2029 82.4133 79.2904C82.4133 78.4866 82.4133 77.7411 82.4133 76.973C82.2309 76.9276 82.0714 76.8887 81.9118 76.8466C80.5671 76.4771 79.1767 76.2243 77.8906 75.7122C74.1461 74.218 71.056 71.7385 68.1711 68.9965C63.4856 64.5432 59.5946 59.4449 56.0292 54.0808C55.8403 53.7956 55.6482 53.5103 55.4561 53.2284C55.404 53.2446 55.3487 53.2608 55.2966 53.277C55.2966 53.7307 55.2966 54.1813 55.2966 54.6772C54.5119 54.6772 53.8085 54.6772 53.0075 54.6772ZM82.4067 83.9479C82.4067 83.1474 82.4067 82.4246 82.4067 81.7115C76.9202 81.7115 71.4826 81.7115 66.0156 81.7115C66.0156 82.47 66.0156 83.1895 66.0156 83.9479C71.4956 83.9479 76.9333 83.9479 82.4067 83.9479ZM45.8767 43.0123C48.182 43.9004 49.3835 45.3913 49.4421 47.6763C49.4747 48.9792 49.4486 50.2822 49.4486 51.5851C49.4486 51.812 49.4486 52.0356 49.4486 52.2463C50.6697 52.2463 51.7767 52.2463 52.8806 52.2463C52.8806 49.1316 52.8806 46.0687 52.8806 43.0123C50.5752 43.0123 48.3318 43.0123 45.8767 43.0123ZM72.9478 33.4736C73.1106 32.3651 73.1106 32.3684 72.1045 32.148C71.8505 32.0929 71.5998 32.0248 71.3491 31.9535C68.4284 31.1205 66.2435 29.286 64.4885 26.9038C63.0102 24.8975 61.7111 22.7875 61.1575 20.3081C61.0208 19.6858 60.3175 19.3454 59.689 19.5399C59.0736 19.7311 58.7578 20.3081 59.0573 20.9401C59.917 22.7519 60.6821 24.6317 61.7632 26.3074C64.3615 30.3426 67.9562 32.9712 72.9478 33.4736ZM36.4601 42.9993C36.4601 43.6897 36.535 44.3541 36.4471 44.9991C36.1117 47.5077 36.8573 49.6534 38.3877 51.6337C38.8468 52.2269 39.2506 52.4084 39.993 52.2106C39.993 51.9611 39.993 51.7083 39.993 51.4522C39.9962 50.1525 39.9669 48.8496 40.006 47.5531C40.0711 45.508 41.0903 44.0916 42.9593 43.2618C43.083 43.2067 43.1937 43.129 43.4184 42.9993C41.0317 42.9993 38.785 42.9993 36.4601 42.9993ZM72.9967 35.8656C70.4374 35.6516 68.0507 34.9224 65.8691 33.5903C63.6973 32.2679 61.9357 30.4982 60.3305 28.3915C61.2129 33.1495 68.8061 39.5994 72.9934 39.2461C72.9967 38.1441 72.9967 37.0388 72.9967 35.8656ZM65.9733 74.6783C65.9733 76.1919 65.9733 77.7152 65.9733 79.2483C68.9298 79.2483 71.7854 79.2483 74.641 79.2483C71.8505 77.7347 69.5029 75.6701 67.1064 73.6703C66.9143 73.5115 66.5854 73.4596 66.3184 73.4563C64.368 73.4401 62.4176 73.4466 60.4672 73.4499C60.3305 73.4499 60.1937 73.4855 60.0537 73.505C60.0472 73.5665 60.0407 73.6281 60.0342 73.6865C60.9915 73.9393 61.9357 74.2569 62.906 74.4222C63.8829 74.5875 64.8825 74.594 65.9733 74.6783ZM47.0489 52.2657C47.0489 50.7197 47.0554 49.258 47.0489 47.793C47.0424 46.3604 46.1111 45.3329 44.7859 45.2811C43.4672 45.2325 42.4057 46.2761 42.3699 47.7249C42.3373 49.0019 42.3601 50.2822 42.3634 51.5624C42.3634 51.7893 42.3862 52.0162 42.3992 52.2657C43.9686 52.2657 45.4599 52.2657 47.0489 52.2657ZM48.2764 39.3952C48.2374 39.003 48.2048 38.6594 48.169 38.3029C47.3973 38.3029 46.6744 38.3029 45.9288 38.3029C45.8995 38.6918 45.8767 39.0322 45.8507 39.3757C45.0562 39.3757 44.3138 39.3757 43.5486 39.3757C43.516 38.9803 43.4835 38.64 43.4574 38.3094C42.6662 38.3094 41.9434 38.3094 41.2042 38.3094C41.1782 38.7048 41.1554 39.0484 41.1358 39.3725C40.3251 39.3725 39.5827 39.3725 38.824 39.3725C38.798 38.99 38.7719 38.6659 38.7459 38.2997C37.9872 38.2997 37.2644 38.2997 36.5089 38.2997C36.5089 39.0646 36.5089 39.8035 36.5089 40.5458C41.9955 40.5458 47.4299 40.5458 52.874 40.5458C52.874 39.7679 52.874 39.0289 52.874 38.3223C52.0828 38.3223 51.36 38.3223 50.6339 38.3223C50.6111 38.7113 50.5915 39.0354 50.5687 39.3952C49.8101 39.3952 49.0807 39.3952 48.2764 39.3952ZM55.3259 15.9973C55.3259 17.4072 55.3259 18.7296 55.3259 20.052C55.3259 21.3938 55.3259 22.7324 55.3259 24.0645C55.7654 24.0645 56.1041 24.0645 56.4818 24.0645C56.4818 22.9431 56.4753 21.88 56.4818 20.8169C56.4981 18.8398 57.8331 17.2808 59.6239 17.1317C61.6655 16.96 63.1372 18.1462 63.5996 20.1881C63.7917 21.0308 64.2215 21.8184 64.5439 22.6287C64.596 22.6093 64.6513 22.5898 64.7034 22.5704C64.7034 20.3891 64.7034 18.2046 64.7034 15.9973C61.5808 15.9973 58.5006 15.9973 55.3259 15.9973ZM75.4387 31.1529C79.3753 31.1529 83.237 31.1529 87.1313 31.1529C87.1313 30.388 87.1313 29.6652 87.1313 28.9133C86.3694 28.9133 85.6303 28.9133 84.8814 28.9133C84.8521 29.3152 84.826 29.6588 84.8 29.9829C83.9729 29.9829 83.2273 29.9829 82.4458 29.9829C82.4458 29.5939 82.4458 29.2666 82.4458 28.9101C81.6611 28.9101 80.922 28.9101 80.1633 28.9101C80.134 29.3087 80.108 29.6523 80.0819 29.9861C79.2614 29.9861 78.5157 29.9861 77.7701 29.9861C77.744 29.5842 77.7212 29.2407 77.7017 28.9101C76.9105 28.9101 76.1876 28.9101 75.4387 28.9101C75.4387 29.6717 75.4387 30.3751 75.4387 31.1529ZM55.4463 61.691C54.8537 60.9585 54.4109 60.3524 53.8965 59.8079C53.6848 59.5843 53.3234 59.3833 53.0238 59.3801C50.1943 59.3476 47.3647 59.3606 44.5352 59.3639C44.3659 59.3639 44.1933 59.3995 43.9328 59.4287C44.5189 60.1547 45.0301 60.8062 45.5674 61.4349C45.6748 61.5614 45.88 61.678 46.0395 61.678C49.1067 61.6975 52.174 61.691 55.4463 61.691ZM47.7978 64.0538C48.5076 64.8025 49.0481 65.4345 49.657 65.992C49.8882 66.2059 50.2659 66.3647 50.5785 66.368C53.3331 66.3971 56.0878 66.3842 58.8424 66.3809C59.0346 66.3809 59.2267 66.3453 59.3602 66.3291C58.4224 64.4395 56.9441 63.6908 54.8928 64.0376C54.3393 64.1316 53.7564 64.0505 53.1866 64.0505C51.4576 64.0538 49.7319 64.0538 47.7978 64.0538ZM52.7926 68.7567C52.7666 68.8118 52.7438 68.8669 52.7177 68.9187C53.4569 69.5022 54.17 70.1245 54.9482 70.6495C55.3128 70.8958 55.8045 71.0676 56.2408 71.0741C58.6178 71.1162 60.9947 71.0936 63.3717 71.0903C63.5963 71.0903 63.821 71.0676 64.1499 71.0514C63.3749 70.2768 62.6977 69.5864 62.0009 68.9155C61.8967 68.815 61.7045 68.7567 61.5548 68.7567C58.6373 68.7567 55.7166 68.7567 52.7926 68.7567ZM51.6921 56.9881C51.1581 56.2653 50.712 55.7111 50.3245 55.118C50.0868 54.7517 49.8101 54.6512 49.3868 54.6545C46.6517 54.6739 43.9133 54.6642 41.1782 54.6642C40.9796 54.6642 40.7809 54.6869 40.4846 54.7063C40.9535 55.3675 41.3866 55.9282 41.7643 56.5246C41.9987 56.8973 42.282 56.9978 42.7053 56.9946C45.0366 56.9784 47.368 56.9849 49.6994 56.9849C50.3082 56.9881 50.9204 56.9881 51.6921 56.9881ZM82.5402 33.6C84.2888 34.514 84.9204 35.9369 84.8553 37.7908C84.8097 39.084 84.8456 40.3805 84.8456 41.7029C85.6531 41.7029 86.3759 41.7029 87.1216 41.7029C87.1216 38.9835 87.1216 36.2999 87.1216 33.6C85.5619 33.6 84.0511 33.6 82.5402 33.6ZM80.0298 33.6194C78.5125 33.6194 76.9919 33.6194 75.4485 33.6194C75.4485 35.5285 75.4485 37.3824 75.4485 39.2655C75.5559 39.2363 75.6276 39.2331 75.6829 39.2007C76.7835 38.5881 77.7147 37.9464 77.8092 36.4522C77.8971 35.1298 78.8413 34.2385 80.0298 33.6194ZM78.278 40.2443C79.4502 39.9915 81.1271 39.1197 81.7979 38.3645C82.0714 38.0566 82.2993 37.6676 82.4133 37.2787C82.5891 36.6823 82.0974 36.0341 81.4755 35.9142C80.9122 35.8072 80.2154 36.1799 80.1828 36.7504C80.0982 38.1992 79.4209 39.2979 78.278 40.2443Z" fill="black"/>
<path d="M62.3816 80.4827C61.5969 80.4827 60.8545 80.4827 60.0731 80.4827C60.0731 79.7016 60.0731 78.9626 60.0731 78.1782C60.8382 78.1782 61.5806 78.1782 62.3816 78.1782C62.3816 78.9237 62.3816 79.6627 62.3816 80.4827Z" fill="black"/>
<path d="M57.6798 75.8452C57.6798 76.6166 57.6798 77.3361 57.6798 78.1043C56.9016 78.1043 56.1559 78.1043 55.3647 78.1043C55.3647 77.3523 55.3647 76.6101 55.3647 75.8452C56.1494 75.8452 56.895 75.8452 57.6798 75.8452Z" fill="black"/>
</svg>
