<svg width="120" height="100" viewBox="0 0 120 100" fill="none" xmlns="http://www.w3.org/2000/svg">
<rect width="120" height="100" fill="white"/>
<path d="M90.6753 11.3618C90.7996 11.7789 91.0301 12.1986 91.0301 12.6157C91.0483 37.5396 91.0457 62.4635 91.0431 87.3875C91.0431 88.4817 90.8747 88.6388 89.7557 88.6388C69.9189 88.6388 50.0821 88.6388 30.2426 88.6388C29.1236 88.6388 28.9552 88.4843 28.9552 87.3875C28.9578 62.4661 28.9552 37.5396 28.9734 12.6157C28.9734 12.1986 29.2039 11.7789 29.3283 11.3618C49.7764 11.3618 70.2271 11.3618 90.6753 11.3618ZM30.5742 87.0476C50.2323 87.0476 69.8282 87.0476 89.4034 87.0476C89.4034 62.3091 89.4034 37.6246 89.4034 12.9427C69.7635 12.9427 50.1883 12.9427 30.5742 12.9427C30.5742 37.6555 30.5742 62.3219 30.5742 87.0476Z" fill="black"/>
<path d="M36.6122 49.9426C36.6122 40.0322 36.6122 30.1245 36.6122 20.2141C36.6122 18.9756 36.7081 18.8804 37.9514 18.8804C52.6516 18.8804 67.3544 18.8804 82.0546 18.8804C83.2927 18.8804 83.3912 18.9808 83.3912 20.2193C83.3912 40.0889 83.3912 59.9585 83.3912 79.8281C83.3912 81.0073 83.2772 81.1258 82.0882 81.1258C67.3621 81.1258 52.6361 81.1258 37.9074 81.1258C36.721 81.1258 36.6122 81.0125 36.6122 79.8255C36.6122 69.8637 36.6122 59.9018 36.6122 49.9426ZM49.7012 69.1247C51.3254 68.8646 51.3176 68.8724 52.3563 70.0722C53.5712 71.4755 54.9467 72.6856 56.6226 73.5276C56.8713 73.6512 57.1303 73.7516 57.3816 73.87C57.8375 74.0837 58.1664 74.3927 57.9359 74.9308C57.695 75.4947 57.2236 75.5102 56.7262 75.2965C56.3325 75.1265 55.9621 74.9102 55.5683 74.7403C55.3715 74.6553 55.1202 74.5343 54.9389 74.5858C53.2293 75.0621 51.1751 75.0956 50.898 77.5236C50.8928 77.5726 50.872 77.6215 50.8513 77.6678C50.6467 78.1158 50.354 78.4686 49.8048 78.2652C49.2401 78.0566 49.1572 77.6292 49.3774 77.0988C49.6857 76.3573 49.9188 75.5797 50.2918 74.8716C50.4783 74.5189 50.8539 74.1842 51.2243 74.0271C51.9185 73.731 52.6723 73.5714 53.4391 73.3448C52.2657 72.078 52.2993 72.1604 50.9187 72.7526C49.6831 73.283 48.8878 73.9267 49.1831 75.4123C49.2738 75.8681 48.9733 76.244 48.4423 76.2697C47.8621 76.2955 47.6264 75.9247 47.603 75.4149C47.5745 74.8124 47.616 74.2073 47.5875 73.6048C47.559 73.0049 47.7921 72.6135 48.3413 72.3458C49.2479 71.9055 50.1286 71.4163 51.0741 70.9193C50.8876 70.703 50.7322 70.5228 50.5483 70.3091C49.1857 71.3055 47.6782 71.7433 46.0825 71.9827C43.7771 72.3277 41.596 71.0094 41.0495 68.7565C40.8293 67.8528 40.7879 66.8512 40.9122 65.9268C41.3163 62.8834 43.7046 61.645 46.3364 61.9668C46.6058 62.0003 46.971 62.4689 47.0047 62.7701C47.028 62.9684 46.5695 63.2748 46.2742 63.4396C46.1032 63.5348 45.8287 63.4344 45.6033 63.4396C44.0828 63.473 42.9534 64.1425 42.6581 65.4556C42.4509 66.38 42.456 67.3944 42.5778 68.342C42.6892 69.2071 43.2901 69.8559 44.1398 70.2138C44.1682 70.1598 44.1916 70.134 44.1864 70.116C44.1242 69.874 44.0491 69.6371 43.9947 69.3951C43.6191 67.7034 43.9144 66.1997 45.2666 65.0025C45.6629 64.6523 46.0981 64.5879 46.4633 65.0153C46.8 65.4093 46.6964 65.811 46.326 66.1431C45.0697 67.2683 45.2717 68.8183 45.9426 70.0774C46.0152 70.2138 46.2587 70.376 46.3882 70.3503C47.0202 70.2216 47.6419 70.0362 48.2973 69.8611C48.2118 69.5238 48.1341 69.2869 48.0926 69.0449C47.8284 67.5309 48.0149 66.1379 49.2168 65.0256C49.6468 64.6266 50.1053 64.4206 50.7322 64.6008C51.4549 64.8094 52.2035 64.9252 53.022 65.0977C53.3769 60.5635 55.4751 56.8919 58.8814 53.7223C58.454 53.676 58.1872 53.6502 57.923 53.6168C55.4777 53.3258 53.2733 52.4787 51.4367 50.8077C50.872 50.2927 50.3255 49.7546 50.6596 48.6964C47.3906 50.4601 46.2742 53.385 45.4116 56.498C46.2146 56.7503 46.9399 56.9769 47.5564 57.1726C47.8284 55.7358 48.0745 54.33 48.3698 52.9345C48.4786 52.4169 48.8231 52.059 49.4189 52.2521C49.9525 52.4247 50.0535 52.8289 49.8903 53.3438C49.7686 53.7249 49.6779 54.1189 49.6028 54.5128C49.0821 57.2987 48.9966 60.0177 50.8669 62.4303C51.1622 62.8113 51.0948 63.2053 50.7244 63.4962C50.3099 63.8206 49.8515 63.7357 49.6054 63.3186C49.0744 62.4174 48.4423 61.5136 48.1807 60.5275C47.7662 58.9697 46.7094 58.4162 45.3106 58.1407C44.7718 58.0351 44.3703 58.1407 43.9714 58.5681C43.3031 59.2864 42.4923 59.8787 41.8447 60.6125C40.7153 61.8896 39.6196 63.2027 38.6094 64.5751C38.2959 64.9973 38.1872 65.6539 38.1846 66.2023C38.1509 70.3786 38.1664 74.5523 38.1664 78.7286C38.1664 78.9964 38.1664 79.2616 38.1664 79.532C52.7811 79.532 67.2896 79.532 81.8111 79.532C81.9665 75.1033 81.9069 70.7674 80.705 66.483C79.2207 61.1995 77.493 56.0242 74.9052 51.1604C74.6462 50.6712 74.3897 50.5064 73.8406 50.6918C72.934 50.9982 71.9807 51.1682 71.0871 51.508C63.8522 54.2527 59.4823 59.2272 58.8814 67.1061C58.814 67.9969 60.1273 69.1427 61.0184 68.9805C63.0544 68.6072 65.0827 68.1823 67.1264 67.8708C69.2246 67.5515 71.0896 68.0768 72.5661 69.6783C72.9262 70.0671 73.1412 70.5125 72.7008 70.9373C72.2346 71.3879 71.7839 71.1871 71.4031 70.7468C70.7477 69.9924 69.8981 69.3925 68.9241 69.462C66.6343 69.6268 64.3599 69.9718 61.8758 70.2705C62.2203 70.6541 62.3628 70.8266 62.5208 70.9811C62.9197 71.3725 63.1813 71.8256 62.7125 72.2865C62.2126 72.7809 61.7592 72.4874 61.3577 72.0522C58.656 69.135 55.3093 67.3223 51.4678 66.3594C50.1934 66.0401 49.7245 66.3388 49.5846 67.6596C49.5225 68.1386 49.652 68.6329 49.7012 69.1247ZM81.7877 33.6725C81.7877 29.2233 81.7877 24.8384 81.7877 20.4767C67.2197 20.4767 52.7112 20.4767 38.2027 20.4767C38.2027 24.9028 38.2027 29.2696 38.2027 33.6622C42.083 33.6622 45.9167 33.6622 49.7712 33.6622C50.0198 31.726 50.7166 29.9983 51.8305 28.4354C51.9444 28.2758 52.0092 28.0749 52.0662 27.8844C53.2629 23.7596 57.1044 21.5968 61.3059 22.794C64.8547 23.8059 66.8104 26.3781 67.7222 29.7949C68.0564 31.0462 68.1574 32.3594 68.3672 33.6725C72.8304 33.6725 77.2806 33.6725 81.7877 33.6725ZM38.2312 35.2792C38.2312 44.242 38.2312 53.1095 38.2312 61.9333C39.8242 60.3988 41.3914 58.8668 42.9845 57.3657C43.5362 56.8456 43.8548 56.2456 44.0698 55.5221C44.3962 54.4201 44.7718 53.3181 45.264 52.2805C46.4607 49.7649 48.1833 47.7694 51.0093 46.9584C51.1699 46.912 51.3124 46.5619 51.3383 46.3379C51.4549 45.3182 51.5326 44.2961 51.6025 43.2739C51.6155 43.0962 51.5248 42.9057 51.4549 42.7332C51.0197 41.6466 50.4446 40.5935 50.1727 39.4683C49.8463 38.1166 49.7763 36.703 49.5898 35.2817C45.8209 35.2792 42.039 35.2792 38.2312 35.2792ZM68.5071 35.2869C68.792 37.3519 69.1158 39.3576 69.323 41.3763C69.4085 42.2079 69.7789 42.728 70.3877 43.243C72.2216 44.793 73.9261 46.4563 75.1902 48.5393C77.9774 53.1327 79.8683 58.0892 81.4044 63.2027C81.508 63.5529 81.6246 63.8979 81.7903 64.4231C81.7903 54.5849 81.7903 44.9475 81.7903 35.2869C77.3453 35.2869 72.9573 35.2869 68.5071 35.2869ZM71.7994 46.6288C70.7322 45.671 69.6365 44.7157 68.577 43.7193C68.2999 43.4593 68.002 43.0962 67.9527 42.746C67.4528 39.2186 66.9736 35.686 66.5514 32.1482C66.2949 30.0034 65.694 28.0312 64.2201 26.3833C62.2229 24.1535 59.1145 23.4274 56.5086 24.6479C55.9465 24.9105 55.4621 25.3328 54.9415 25.6804C55.76 25.7164 56.4775 25.58 57.2002 25.5671C57.954 25.5516 58.7182 25.5928 59.4616 25.7138C62.1504 26.1516 63.6942 27.8921 63.8315 30.5828C63.8807 31.5354 63.9118 32.4907 63.9455 33.4459C64.1139 38.3174 64.2796 43.1915 64.4506 48.063C64.4687 48.5985 64.5231 49.1341 64.5542 49.6207C66.971 48.6243 69.3153 47.6562 71.7994 46.6288ZM53.8199 31.7852C54.47 32.0246 55.5062 31.538 55.5502 32.6143C55.5916 33.6519 54.5892 33.2966 53.9545 33.482C54.0374 34.4501 54.0219 35.4182 54.2317 36.3348C54.4234 37.1639 54.7083 38.0599 55.2212 38.7139C56.9438 40.9128 60.7361 40.7815 62.3939 38.5363C62.5104 38.3792 62.5208 38.114 62.5156 37.9029C62.4431 35.4646 62.3576 33.0262 62.2799 30.5905C62.2307 29.0739 61.438 27.9694 59.99 27.4595C58.6923 27.0012 57.3349 26.9369 56.032 27.2767C55.2575 27.4801 54.5711 28.0286 53.8639 28.4586C53.7266 28.541 53.6126 28.7907 53.6204 28.9581C53.667 29.9056 53.7499 30.8505 53.8199 31.7852ZM58.0913 41.8371C58.1198 42.2388 58.1172 42.5426 58.1664 42.8362C58.3037 43.6292 58.0292 44.1544 57.2909 44.5458C56.5604 44.9346 55.8585 45.4109 55.2264 45.9439C54.3068 46.7241 53.408 47.5429 52.5972 48.4337C51.9652 49.1289 52.0403 49.3092 52.7604 49.9014C54.1592 51.0523 55.7807 51.6986 57.5603 51.9895C59.3243 52.2753 61.0495 52.35 62.4638 50.9931C62.684 50.7819 62.9145 50.4395 62.9094 50.164C62.8705 47.6999 62.785 45.2359 62.7021 42.7744C62.6788 42.056 62.6166 41.3402 62.5674 40.5137C61.2101 41.5204 59.7699 41.9607 58.0913 41.8371ZM73.579 49.08C73.3096 48.22 72.82 47.9909 72.0222 48.3333C71.4471 48.5805 70.8254 48.7273 70.2374 48.9487C65.9375 50.5554 61.9483 52.6744 58.757 56.0422C56.3636 58.5681 54.8715 61.5265 54.6591 65.0411C54.6436 65.2831 54.7109 65.6719 54.8689 65.7543C55.6305 66.1585 56.4335 66.483 57.2469 66.8434C58.3633 56.9511 64.3418 51.5492 73.579 49.08ZM52.1983 31.3346C52.1439 31.3217 52.0895 31.3114 52.0351 31.2986C51.947 31.5251 51.846 31.7466 51.7735 31.9783C50.9446 34.6406 51.2632 37.2901 51.8875 39.9292C52.0973 40.8098 52.4055 41.6415 53.1878 42.2465C53.3743 42.3907 53.3277 42.9186 53.2785 43.2533C53.1645 44.0386 52.9832 44.811 52.7941 45.756C54.1048 44.8368 55.2005 44.0824 56.2807 43.3048C56.7651 42.9546 56.5993 41.5745 56.0501 41.3042C53.7655 40.179 52.6801 38.32 52.5532 35.825C52.4806 34.3213 52.32 32.828 52.1983 31.3346Z" fill="black"/>
<path d="M64.7253 66.0167C65.1449 63.5423 65.5154 61.2894 65.9117 59.039C66.1267 57.8212 66.6991 56.7655 67.5255 55.8514C68.9191 54.304 70.696 53.686 72.7528 53.7478C73.2656 53.7633 73.6024 54.0156 73.6024 54.51C73.6024 54.994 73.289 55.2927 72.7631 55.2798C69.5459 55.1974 67.6083 57.3088 67.2535 60.4088C67.0462 62.2266 66.668 64.0238 66.3676 65.8313C66.2821 66.3437 66.0153 66.7402 65.4713 66.6089C65.1579 66.5342 64.9144 66.1763 64.7253 66.0167Z" fill="black"/>
<path d="M56.6409 69.812C56.9698 69.9948 57.2056 70.0849 57.3921 70.2369C58.9048 71.4522 60.4072 72.6803 61.9148 73.9033C62.3318 74.2432 62.5727 74.6552 62.179 75.1289C61.793 75.595 61.3397 75.474 60.9175 75.1264C59.3944 73.8827 57.8583 72.6571 56.3611 71.3826C56.1409 71.1947 55.9881 70.775 56.0244 70.4892C56.0554 70.2472 56.4077 70.0489 56.6409 69.812Z" fill="black"/>
<path d="M58.6017 33.232C58.6017 33.9426 58.6042 34.5915 58.6017 35.2377C58.5991 35.7862 58.3608 36.211 57.7805 36.2033C57.2003 36.1956 56.9853 35.7604 56.9879 35.212C56.9931 34.334 56.9879 33.456 56.9905 32.578C56.9931 31.906 57.2961 31.5507 58.0111 31.5893C58.6146 31.6227 59.2233 31.6099 59.8269 31.6433C60.3501 31.6717 60.8009 31.8468 60.775 32.475C60.7491 33.0904 60.3191 33.25 59.7751 33.2346C59.4254 33.2243 59.0731 33.232 58.6017 33.232Z" fill="black"/>
</svg>
