<svg width="120" height="100" viewBox="0 0 120 100" fill="none" xmlns="http://www.w3.org/2000/svg">
<rect width="120" height="100" fill="white"/>
<path d="M106.967 56.0502C105.293 58.4545 101.139 58.5051 98.8672 56.1768C97.0664 54.3316 96.48 51.9687 95.9671 49.5667C95.3093 46.4906 94.6907 43.3961 93.1774 40.5938C92.5633 39.4572 91.7951 38.4035 91.1121 37.3359C91.1121 39.6597 91.073 41.8845 91.1213 44.1047C91.2225 48.7683 92.7657 52.9994 95.4013 56.7704C96.4271 58.2359 96.6777 59.6003 96.4869 61.2798C96.0062 65.5339 95.6359 69.7995 95.2196 74.0582C95.1046 75.2385 94.6401 75.6802 93.451 75.6871C91.2777 75.6986 89.1066 75.6986 86.9332 75.6871C85.3716 75.6779 84.8104 74.9141 85.2842 73.4439C85.5464 72.6317 85.7304 71.762 86.1582 71.0442C86.5974 70.3103 87.223 69.6408 87.8992 69.1116C88.3361 68.7711 88.4787 68.5479 88.3591 68.0118C87.5657 64.4641 85.4406 61.9677 82.1702 60.1571C81.9218 61.6802 81.6711 63.1618 81.4457 64.6458C81.3538 65.2486 81.2066 65.879 81.2848 66.468C81.6412 69.1185 80.466 71.1408 78.909 73.1379C76.6574 76.0276 77.4992 75.6595 73.9137 75.6871C72.4441 75.6986 70.9768 75.7055 69.5071 75.6848C68.0582 75.6641 67.4557 74.638 68.164 73.3956C68.693 72.4661 69.2588 71.5573 69.8245 70.6508C70.5812 69.4406 71.669 68.7228 73.1846 68.4996C72.4878 63.27 71.7932 58.0473 71.0803 52.6934C65.3444 54.8469 59.3808 55.9743 53.2287 56.5886C53.6105 59.1102 53.9716 61.5191 54.3395 63.928C54.5419 65.2555 54.788 66.5808 54.9467 67.9129C54.9973 68.3454 54.9214 68.8378 54.7581 69.245C54.0544 71.0028 53.2885 72.733 52.5663 74.4838C52.2214 75.3167 51.6602 75.717 50.7333 75.7009C48.744 75.6687 46.7546 75.6986 44.7675 75.6871C43.2174 75.6779 42.5941 74.6748 43.3301 73.3173C43.9832 72.1141 44.4731 70.6508 45.4736 69.8501C46.6833 68.8815 46.4142 68.1038 46.0117 67.0225C45.1677 64.7655 44.3857 62.4831 43.5739 60.2123C43.4727 59.9293 43.3416 59.6555 43.1691 59.246C42.5251 60.4838 41.9502 61.6203 41.3453 62.7408C39.2179 66.6866 36.8353 70.4506 33.5856 73.5911C32.9508 74.2054 32.2654 74.7806 31.5456 75.2937C31.2213 75.5261 30.7613 75.6618 30.3588 75.671C28.5857 75.7101 26.8102 75.7032 25.0347 75.6848C23.4846 75.6687 22.9027 74.7231 23.5604 73.3104C23.9215 72.5351 24.2987 71.7666 24.6897 71.0074C25.3083 69.811 26.2375 69.0011 27.5576 68.6146C27.8704 68.5226 28.2361 68.2074 28.3557 67.906C30.7498 61.8504 32.024 55.6085 31.1201 49.0789C30.8579 47.1946 30.306 45.3494 29.915 43.6055C28.4776 43.5226 27.2954 43.4122 26.111 43.3938C24.393 43.3685 23.0085 44.1668 21.7781 45.2919C20.1681 46.7621 19.0987 46.9277 17.4267 45.5197C15.9203 44.2497 14.6117 42.7335 13.3122 41.2403C13.0271 40.9113 12.9558 40.1566 13.1168 39.7172C14.0482 37.168 15.0095 34.6256 16.0951 32.1408C17.2036 29.6031 19.1815 28.0041 21.9091 27.4105C22.9142 27.1919 23.7858 26.8514 24.4873 26.0162C24.9427 25.4732 25.6257 25.0982 26.2536 24.7301C27.4265 24.0422 28.0268 24.148 28.8179 25.2593C29.1859 25.7769 29.57 25.9357 30.1749 25.938C32.6403 25.9426 34.8942 26.8284 37.148 27.6912C39.7952 28.7058 42.4262 29.771 45.0987 30.7189C47.7872 31.6738 50.5678 31.5173 53.3506 31.1929C58.1136 30.6361 62.8812 30.107 67.6512 29.5962C71.7357 29.1567 75.8341 29.0302 79.9278 29.4282C85.1002 29.9321 89.769 31.5794 93.2671 35.6817C95.7486 38.5921 97.0572 42.0617 97.9519 45.7152C98.4003 47.5535 98.7798 49.4079 99.2605 51.237C99.4514 51.9641 99.7826 52.6727 100.148 53.3353C100.854 54.6122 102.043 55.1023 103.444 55.1138C103.725 55.1161 104.079 55.0195 104.277 54.8377C105.484 53.7219 105.79 53.6988 106.967 54.7618C106.967 55.192 106.967 55.62 106.967 56.0502ZM88.6512 48.0528C88.2073 48.4117 87.8302 48.7131 87.453 49.0191C86.2893 49.9647 85.1439 50.931 83.9595 51.8536C83.2419 52.4127 82.4209 52.3069 81.9264 51.6696C81.4526 51.0622 81.5584 50.3329 82.2116 49.7116C82.345 49.5851 82.4945 49.477 82.6371 49.3619C84.3436 47.97 86.0639 46.5918 87.7451 45.1723C88.0073 44.9514 88.2418 44.5373 88.251 44.206C88.2947 42.5241 88.2763 40.8377 88.2464 39.1558C88.1982 36.4156 86.5123 33.8066 83.9043 33.0634C81.6412 32.4169 79.254 32.2098 76.892 31.8026C76.4044 33.8434 75.9767 35.6219 75.5512 37.4026C75.0544 39.4802 74.5783 41.5624 74.0632 43.6377C73.755 44.8755 72.4441 45.3954 71.7472 44.5073C71.416 44.0863 71.3332 43.3018 71.4367 42.7381C71.7334 41.1183 72.1865 39.5308 72.5683 37.9272C73.0328 35.9808 73.4859 34.0297 74.008 31.8187C67.911 32.4123 61.9912 32.9875 55.9471 33.5742C56.3542 35.0513 56.713 36.365 57.0741 37.6787C57.3662 38.7371 57.695 39.7885 57.9388 40.8584C58.1366 41.728 57.7318 42.4091 57.012 42.6069C56.253 42.8186 55.5654 42.3953 55.2618 41.521C55.2112 41.3783 55.1951 41.2219 55.1514 41.0769C54.4867 38.7348 53.8198 36.3926 53.139 33.9952C50.2136 34.414 47.3663 34.3058 44.5513 33.5098C44.4524 33.7628 44.3765 33.9262 44.3259 34.0965C43.1024 38.1573 41.8812 42.2204 40.6576 46.2835C40.1747 47.8895 39.7124 49.5046 39.1903 51.099C38.9166 51.9365 38.2014 52.2747 37.4631 52.0308C36.7272 51.7869 36.3707 51.0944 36.5639 50.273C36.6122 50.066 36.6789 49.8612 36.741 49.6564C38.3486 44.3072 39.9562 38.9602 41.5592 33.6087C41.6535 33.2958 41.7133 32.9737 41.8007 32.6102C40.4645 32.0718 39.1811 31.5564 37.7828 30.9927C37.7828 31.5495 37.7851 31.9429 37.7828 32.3341C37.7759 33.374 37.792 34.4163 37.7483 35.4562C37.7138 36.2408 37.2377 36.6963 36.465 36.7446C35.6692 36.7929 35.2139 36.3213 35.0437 35.5827C34.977 35.2905 35 34.973 35 34.6693C34.9954 33.0795 34.9977 31.492 34.9977 29.7802C33.5166 29.396 32.063 29.0187 30.4853 28.6092C30.5244 29.0187 30.5428 29.2258 30.5612 29.4305C30.6716 30.6062 30.2945 31.2619 29.4274 31.3977C28.6523 31.5196 28.0843 30.9582 27.8083 29.8838C27.6082 29.1038 27.3414 28.34 27.0815 27.5002C25.9891 28.172 25.4302 29.0463 24.9772 30.0425C24.4689 31.1653 23.542 31.2941 22.606 30.4912C22.4335 30.3439 22.0816 30.2749 21.8585 30.3393C20.3498 30.7696 19.2873 31.798 18.6709 33.1762C17.7119 35.3182 16.8931 37.5223 16.0307 39.708C15.964 39.8759 15.9433 40.175 16.0422 40.2809C17.1093 41.4404 18.2018 42.5724 19.3563 43.7826C21.9321 41.1091 24.8622 40.2072 28.2867 40.7755C29.179 40.9228 29.8759 40.4097 30.3105 39.6206C30.5589 39.1673 30.7337 38.6726 30.9729 38.2125C31.3593 37.4671 32.0446 37.1772 32.7185 37.4486C33.4476 37.7408 33.7994 38.4633 33.5028 39.2524C33.2452 39.9335 32.9554 40.626 32.5437 41.2196C32.178 41.7464 32.2102 42.1698 32.3781 42.7427C32.9117 44.5856 33.5419 46.4262 33.8247 48.3128C34.9678 55.9191 33.4292 63.1388 30.4554 70.1262C30.1128 70.9315 29.5539 71.2812 28.6799 71.2927C27.691 71.3065 27.2172 71.8058 27.0378 72.9032C27.6243 72.9032 28.2108 72.8503 28.7811 72.9147C29.7701 73.0275 30.5175 72.6731 31.2374 72.0059C34.3537 69.1116 36.7226 65.6466 38.5924 61.8872C40.7772 57.4905 42.6562 52.9442 44.7215 48.4853C44.9791 47.9286 45.4621 47.3534 45.991 47.0796C46.6465 46.7414 47.4514 46.6539 48.2058 46.555C48.9625 46.4561 49.519 46.8265 49.7283 47.5789C49.9422 48.3542 49.5765 48.8903 48.8866 49.1963C48.5853 49.3297 48.2311 49.3366 47.9137 49.4425C47.663 49.5253 47.2973 49.6127 47.2192 49.7968C46.6074 51.2324 46.0508 52.6911 45.4299 54.2625C53.6243 53.9542 61.5312 53.1145 69.1369 50.1994C66.9129 49.5782 64.6935 48.9593 62.4374 48.7361C59.8293 48.4784 57.1845 48.5751 54.5557 48.5061C53.714 48.483 53.1873 47.993 53.1459 47.2452C53.1022 46.4446 53.6059 45.8326 54.4476 45.7728C60.1214 45.3701 65.6848 45.8533 71.0205 47.9723C72.5775 48.5912 74.0126 49.3205 74.944 50.9195C75.5535 51.9641 76.5677 52.8453 77.5682 53.57C80.2659 55.5233 83.0855 57.3087 85.7948 59.246C89.2768 61.7331 90.9672 65.2509 91.3674 69.4429C91.48 70.6163 91.1121 71.0764 89.9529 71.272C89.0422 71.4261 88.5891 71.9415 88.4695 72.8986C89.6011 72.8986 90.6682 72.8664 91.7353 72.9101C92.3655 72.9377 92.5886 72.7123 92.6438 72.0933C92.9888 68.2258 93.3728 64.3605 93.7247 60.493C93.7615 60.0788 93.8167 59.575 93.6281 59.246C92.8991 57.9805 92.0757 56.768 91.2754 55.5187C91.0339 55.6729 90.8039 55.8201 90.5762 55.9674C90.3186 56.133 90.0725 56.3171 89.8058 56.4643C89.0836 56.8624 88.2809 56.6829 87.8739 56.0502C87.4875 55.4497 87.6301 54.6767 88.2671 54.1774C88.6995 53.8392 89.217 53.6022 89.6149 53.2318C89.8195 53.0408 89.9989 52.6221 89.9345 52.3759C89.562 50.9656 89.1135 49.5736 88.6512 48.0528ZM71.9151 72.7928C74.7876 73.3358 75.4914 73.0689 77.0898 70.8394C77.3221 70.5173 77.6096 70.2228 77.7775 69.8708C78.0304 69.3394 78.3156 68.7826 78.3846 68.212C78.6031 66.3944 78.6721 64.5584 78.9067 62.7454C79.093 61.3074 79.4403 59.8902 79.7001 58.5373C77.8281 57.1937 76.0135 55.8892 74.0747 54.4972C74.7899 59.522 75.4868 64.4434 76.1906 69.3624C76.3538 70.5104 75.8249 71.2007 74.6818 71.2766C74.4082 71.295 74.1322 71.2789 73.8562 71.2812C72.7477 71.2927 72.3176 71.6286 71.9151 72.7928ZM45.4345 57.0556C45.5725 57.4652 45.6621 57.7482 45.761 58.0266C47.0582 61.6779 48.3622 65.3268 49.6524 68.9804C50.1308 70.3356 49.7536 71.0028 48.3392 71.2766C47.4399 71.4514 47.0582 72.0358 46.7845 72.9009C47.7964 72.9009 48.6865 72.9492 49.5673 72.8733C49.8709 72.848 50.278 72.5788 50.416 72.3073C50.8851 71.3847 51.2163 70.3908 51.6717 69.4613C52.0972 68.5939 52.1432 67.7472 51.9684 66.8039C51.6395 65.0346 51.4233 63.2424 51.1496 61.4616C50.915 59.9316 50.6713 58.4016 50.4275 56.8348C48.7279 56.9107 47.1272 56.982 45.4345 57.0556Z" fill="black"/>
<path d="M79.6012 43.0235C79.6472 42.8625 79.7162 42.5657 79.8151 42.2804C80.3671 40.6952 80.9121 39.1077 81.4848 37.5293C81.8528 36.5193 82.5519 36.1374 83.3868 36.4365C84.1342 36.7057 84.4447 37.4741 84.1181 38.4381C83.5225 40.2005 82.8992 41.956 82.2599 43.7046C81.9793 44.4707 81.3767 44.8181 80.5856 44.6157C79.8841 44.4339 79.5391 43.9139 79.6012 43.0235Z" fill="black"/>
<path d="M65.6157 35.3433C66.7012 35.3663 67.4188 36.1646 67.1612 36.9768C66.5379 38.9531 65.8411 40.9065 65.1028 42.8414C64.8245 43.5684 64.1438 43.7755 63.417 43.5247C62.7201 43.2832 62.3407 42.6919 62.5615 42.0062C63.21 40.0069 63.9161 38.0259 64.6934 36.0726C64.8406 35.7045 65.4041 35.502 65.6157 35.3433Z" fill="black"/>
<path d="M48.7048 37.1016C48.9026 37.2925 49.4706 37.5916 49.6362 38.0403C50.087 39.2666 50.4159 40.5435 50.6965 41.8227C50.8598 42.5681 50.4711 43.1502 49.7282 43.3688C48.9854 43.5874 48.3322 43.3228 48.0907 42.5866C47.6653 41.2843 47.3042 39.9568 47.0144 38.6178C46.8396 37.8079 47.5112 37.1292 48.7048 37.1016Z" fill="black"/>
</svg>
