<svg width="120" height="100" viewBox="0 0 120 100" fill="none" xmlns="http://www.w3.org/2000/svg">
<rect width="120" height="100" fill="white"/>
<path d="M50.6019 17.187C51.0112 17.383 51.4393 17.553 51.83 17.782C53.2803 18.6296 54.0734 20.464 53.7038 22.0577C53.2897 23.8473 51.8534 25.0915 50.127 25.2804C49.5445 25.3441 48.9035 25.5236 48.4357 25.8588C47.7292 26.3617 47.5093 27.1526 47.7877 28.0262C48.0591 28.8808 48.6509 29.3483 49.5211 29.5089C49.8439 29.5679 50.2673 29.6198 50.4334 29.8394C50.6299 30.0967 50.7492 30.6091 50.6182 30.8688C50.4779 31.1544 50.0194 31.4378 49.6919 31.4448C47.7901 31.485 46.0075 29.8748 45.7923 28.012C45.542 25.8446 46.8567 23.9205 48.9035 23.4719C49.231 23.3987 49.5726 23.3798 49.9094 23.3468C50.9715 23.2429 51.7996 22.3929 51.8627 21.3352C51.9212 20.3625 51.2077 19.4417 50.2065 19.1985C50.1247 19.1797 50.0428 19.1466 49.9586 19.1442C49.4673 19.123 49.0205 19.012 48.8544 18.4714C48.6907 17.9331 48.962 17.5388 49.3293 17.1894C49.755 17.187 50.1785 17.187 50.6019 17.187Z" fill="black"/>
<path d="M71.9383 17.187C72.8669 17.5459 73.7676 17.9402 74.3781 18.7995C75.2764 20.065 75.4823 21.4249 74.86 22.8439C74.2307 24.2746 73.1149 25.1175 71.5429 25.2568C69.9896 25.3937 69.1241 26.1445 69.1218 27.4076C69.1194 28.4889 69.8867 29.3436 70.9511 29.5112C71.2879 29.5632 71.7254 29.6576 71.8985 29.8961C72.0833 30.151 72.1441 30.6681 72.0061 30.9372C71.8704 31.2017 71.4143 31.4448 71.0985 31.4472C69.0258 31.459 67.4094 29.8488 67.1778 27.613C66.9883 25.7833 68.4363 23.8756 70.3382 23.4672C70.647 23.4011 70.9651 23.3751 71.2809 23.3468C72.378 23.2523 73.1898 22.4449 73.2529 21.3754C73.3161 20.2822 72.6424 19.411 71.5476 19.1726C71.4868 19.1584 71.4236 19.1395 71.3604 19.1372C70.8739 19.1065 70.4341 19.0144 70.282 18.443C70.137 17.8859 70.385 17.5057 70.7967 17.187C71.1756 17.187 71.5569 17.187 71.9383 17.187Z" fill="black"/>
<path d="M61.2688 17.187C61.5167 17.2885 61.7647 17.3901 62.0127 17.4939C63.732 18.214 64.7122 20.0272 64.4315 21.968C64.1835 23.6796 62.5975 25.1198 60.7986 25.2638C59.4652 25.3701 58.6909 25.9226 58.4569 26.9307C58.1692 28.1773 58.988 29.3436 60.2652 29.5041C61.1331 29.6127 61.4372 29.8937 61.4115 30.5595C61.3881 31.1804 60.981 31.5039 60.2863 31.459C58.1318 31.315 56.4709 29.5797 56.4522 27.4525C56.4335 25.2922 58.1107 23.5285 60.3494 23.3586C61.6945 23.257 62.5343 22.4638 62.5507 21.2856C62.5671 20.1571 61.8255 19.3095 60.6184 19.1466C60.1202 19.0781 59.7014 18.9695 59.5541 18.4218C59.3997 17.8504 59.6968 17.4892 60.1249 17.1917C60.5085 17.187 60.8875 17.187 61.2688 17.187Z" fill="black"/>
<path d="M85.0991 79.2967C85.071 79.6343 85.05 79.9483 85.0219 80.2647C84.8862 81.7757 83.7821 82.8098 82.299 82.8122C79.803 82.8145 77.3046 82.8145 74.8086 82.8122C73.0635 82.8122 72.0085 81.7828 71.95 80.0239C71.943 79.7925 71.95 79.5611 71.95 79.2849C63.4701 79.2849 55.0394 79.2849 46.5992 79.2849C46.5337 79.7831 46.5174 80.2741 46.3981 80.7392C46.0565 82.0921 45.1044 82.8098 43.7243 82.8098C41.2283 82.8122 38.7299 82.8122 36.2339 82.8098C34.5473 82.8098 33.5835 81.8985 33.4431 80.1726C33.4197 79.8799 33.3917 79.5871 33.3613 79.24C32.2899 79.24 31.2559 79.2471 30.2243 79.2377C29.3073 79.2306 29.0196 78.9355 29.0196 78.0029C29.0172 68.9463 28.9938 59.892 29.0266 50.8354C29.0546 43.3063 34.2829 36.8845 41.5253 35.4419C42.5757 35.2318 43.6681 35.1492 44.7395 35.1468C54.8756 35.1255 65.0117 35.1232 75.1502 35.1373C82.7154 35.1468 89.0595 40.3362 90.6479 47.8228C90.8725 48.8781 90.9707 49.9807 90.9731 51.062C90.9988 60.01 90.9871 68.9604 90.9871 77.9085C90.9871 78.9733 90.7321 79.2353 89.6865 79.24C88.2267 79.2471 86.767 79.2448 85.305 79.2495C85.2629 79.2518 85.2208 79.2684 85.0991 79.2967ZM88.9636 77.2757C88.9636 77.0845 88.9636 76.9405 88.9636 76.7941C88.9636 68.1223 88.994 59.4505 88.9309 50.7811C88.9215 49.355 88.6782 47.8676 88.2244 46.5195C86.25 40.6502 81.1878 37.0757 74.9888 37.0686C64.9579 37.0544 54.9271 37.0592 44.8962 37.071C42.8704 37.0733 40.8867 37.3921 39.048 38.2892C33.7121 40.891 30.9939 45.2422 30.9424 51.1848C30.8699 59.6842 30.9237 68.186 30.9261 76.6855C30.9261 76.872 30.9424 77.0585 30.9541 77.2757C50.286 77.2757 69.5757 77.2757 88.9636 77.2757ZM44.4845 79.2825C41.4177 79.2825 38.4071 79.2825 35.4034 79.2825C35.2397 80.6165 35.4713 80.8856 36.7392 80.8856C39.02 80.8856 41.3008 80.888 43.5792 80.8856C44.3746 80.8856 44.5758 80.6519 44.5149 79.835C44.5056 79.6674 44.4962 79.4974 44.4845 79.2825ZM73.7981 79.2825C73.8144 79.6367 73.7443 79.9932 73.8682 80.2529C73.9922 80.5126 74.308 80.8549 74.5466 80.8597C77.1245 80.9022 79.7024 80.8904 82.2803 80.8833C82.7856 80.8809 82.9844 80.5409 82.9891 80.0853C82.9914 79.8161 82.9236 79.5493 82.8885 79.2825C79.8474 79.2825 76.8555 79.2825 73.7981 79.2825Z" fill="black"/>
<path d="M59.9403 39.8712C64.8691 39.8712 69.7957 39.8712 74.7245 39.8712C75.8638 39.8712 76.0907 40.1026 76.0953 41.2642C76.0977 42.0976 76.1094 42.9286 76.0907 43.7621C76.0719 44.6757 75.7491 44.9945 74.8532 44.9945C64.8925 44.9968 54.9319 44.9968 44.9689 44.9945C44.0495 44.9945 43.7525 44.6899 43.7478 43.7715C43.7431 42.8743 43.7431 41.9795 43.7478 41.0824C43.7525 40.1592 44.0355 39.8736 44.9665 39.8736C49.9562 39.8688 54.9482 39.8712 59.9403 39.8712ZM45.68 43.0089C55.1752 43.0089 64.6212 43.0089 74.0859 43.0089C74.0859 42.5934 74.0859 42.2203 74.0859 41.8308C64.6001 41.8308 55.1541 41.8308 45.68 41.8308C45.68 42.2251 45.68 42.5816 45.68 43.0089Z" fill="black"/>
<path d="M85.8162 63.2464C85.8045 64.8094 84.5694 66.0347 83.0138 66.0182C81.5073 66.004 80.2885 64.7598 80.2838 63.2299C80.2791 61.6882 81.547 60.3991 83.0606 60.4038C84.5881 60.4085 85.8279 61.6882 85.8162 63.2464ZM83.0278 62.3965C82.5459 62.4083 82.195 62.7837 82.2278 63.2677C82.2605 63.78 82.5904 64.0279 83.0512 64.0704C83.484 64.1129 83.8957 63.6596 83.8887 63.211C83.884 62.7364 83.5097 62.3847 83.0278 62.3965Z" fill="black"/>
<path d="M82.106 54.3717C82.106 53.7744 82.0897 53.1747 82.1107 52.5798C82.1318 51.9919 82.471 51.6708 83.0254 51.659C83.6079 51.6472 83.9892 51.9824 83.9985 52.5892C84.0196 53.7839 84.0172 54.9809 84.0009 56.1755C83.9915 56.7728 83.5891 57.1577 83.0488 57.1553C82.5084 57.1529 82.1411 56.7681 82.106 56.1661C82.1037 56.1236 82.1037 56.0811 82.1037 56.0386C82.1037 55.4837 82.1037 54.9289 82.1037 54.3741C82.1037 54.3717 82.106 54.3717 82.106 54.3717Z" fill="black"/>
</svg>
