<svg width="120" height="100" viewBox="0 0 120 100" fill="none" xmlns="http://www.w3.org/2000/svg">
<rect width="120" height="100" fill="white"/>
<path d="M25.8181 53.9885C25.8824 53.7854 25.9555 53.584 26.0091 53.3773C27.0013 49.5987 31.3558 47.924 34.6716 50.0474C34.8001 50.1304 34.925 50.2187 35.1873 50.3971C35.1873 50.0756 35.1784 49.853 35.1891 49.6305C35.2462 48.4451 35.1356 47.2209 35.4015 46.0832C36.3456 42.0325 41.0694 40.2766 44.5387 42.6084C44.6815 42.7038 44.8225 42.801 45.0295 42.9405C45.0759 42.0484 45.0652 41.2199 45.174 40.4073C45.5434 37.6532 47.0729 35.7242 49.6695 34.7473C52.2518 33.7757 54.6485 34.2774 56.7722 36.0298C56.8383 36.0845 56.9079 36.1375 57.097 36.2895C56.9935 32.4083 58.4391 29.4335 62.1796 28.1333C65.9309 26.8278 68.9522 28.1616 71.2437 31.2937C71.6952 30.58 72.0896 29.8468 72.5875 29.1897C74.5898 26.5505 77.24 24.9606 80.554 24.4801C80.6575 24.4642 80.7557 24.4041 80.8556 24.3652C81.7461 24.3652 82.6366 24.3652 83.5272 24.3652C84.1321 24.5013 84.7443 24.609 85.3385 24.7751C88.4813 25.6478 90.8798 27.485 92.6091 30.3132C92.0398 30.6418 91.4901 30.9562 90.8941 31.3007C90.7495 31.1082 90.6156 30.9439 90.4979 30.769C88.1618 27.3171 83.9769 25.6813 79.8866 26.6264C75.889 27.5503 72.8088 30.981 72.3234 35.0794C72.2609 35.6023 72.2805 36.1358 72.2805 36.664C72.2787 42.6367 72.2787 48.6112 72.2787 54.5839C72.2787 54.8418 72.2787 55.0997 72.2787 55.3947C71.5845 55.3947 70.9706 55.3947 70.2711 55.3947C70.255 55.1315 70.2229 54.8594 70.2229 54.5856C70.2193 48.2154 70.2264 41.8453 70.2175 35.4751C70.2139 32.6521 68.6988 30.5817 66.1522 29.8786C62.7311 28.9335 59.2332 31.4049 59.2029 34.9221C59.1404 42.2834 59.1779 49.6464 59.1743 57.0076C59.1743 57.2902 59.1743 57.5711 59.1743 57.8979C58.473 57.8979 57.8412 57.8979 57.1113 57.8979C57.1113 57.6329 57.1113 57.3768 57.1113 57.1206C57.1113 51.874 57.122 46.6291 57.106 41.3824C57.097 38.6443 55.3713 36.7117 52.648 36.3195C50.0853 35.9503 47.403 38.0507 47.1799 40.6104C47.1442 41.0274 47.1371 41.4478 47.1371 41.8647C47.1353 48.0141 47.1353 54.1634 47.1353 60.3128C47.1353 60.5954 47.1353 60.8781 47.1353 61.2067C46.4393 61.2067 45.8076 61.2067 45.0777 61.2067C45.0777 60.947 45.0777 60.6926 45.0777 60.4365C45.0777 56.1384 45.0848 51.8404 45.0741 47.5424C45.0687 45.4331 43.716 43.9174 41.6066 43.603C39.6043 43.3044 37.5377 44.859 37.2932 46.857C37.245 47.2491 37.2307 47.6484 37.2307 48.0441C37.2271 53.2024 37.2271 58.359 37.2271 63.5173C37.2271 63.7964 37.2271 64.0773 37.2271 64.3918C36.5276 64.3918 35.9119 64.3918 35.1856 64.3918C35.1856 64.1621 35.1856 63.9307 35.1856 63.6993C35.1856 60.7014 35.1963 57.7036 35.1802 54.7058C35.1695 52.835 33.831 51.4005 31.9072 51.1444C30.2225 50.92 28.5218 52.0312 28.0364 53.7165C27.9097 54.1546 27.8669 54.628 27.8686 55.0856C27.8865 59.956 27.8901 64.8281 27.9704 69.6985C28.0007 71.5675 28.222 73.433 28.3648 75.3974C27.7473 75.4716 27.1227 75.5475 26.407 75.6341C26.3035 74.6219 26.1822 73.6485 26.109 72.6734C26.0269 71.5746 25.9948 70.474 25.9305 69.3734C25.9163 69.1367 25.8574 68.9035 25.8181 68.6686C25.8181 63.7752 25.8181 58.8819 25.8181 53.9885Z" fill="black"/>
<path d="M91.8079 32.8075C92.2755 32.6609 92.859 32.4772 93.6353 32.2334C93.8299 33.3357 94.1725 34.3833 94.1725 35.4326C94.1743 42.1755 94.2403 48.9202 93.9994 55.6579C93.8477 59.8729 93.1981 64.072 92.7609 68.2781C92.5378 70.4209 92.2933 72.5602 92.056 74.7013C92.0238 74.9945 91.9757 75.2843 91.9275 75.634C91.2672 75.5846 90.6533 75.5386 89.9519 75.4856C90.009 74.7402 90.0376 74.0106 90.1268 73.2881C90.4962 70.3185 90.9013 67.3524 91.2618 64.3829C91.8846 59.244 92.163 54.0874 92.1738 48.9185C92.1827 44.8289 92.2023 40.7393 92.1595 36.6498C92.1434 35.4061 91.9364 34.1642 91.8079 32.8075Z" fill="black"/>
<path d="M79.3405 42.4864C79.3405 43.1912 79.3405 43.7989 79.3405 44.4367C77.8628 44.5656 76.4601 44.5603 75.3412 43.4315C74.7648 42.8485 74.3365 42.1684 74.3079 41.3417C74.2329 39.2554 74.0009 37.1532 74.5738 35.0987C75.5821 31.4808 79.08 29.1136 82.9365 29.4051C86.479 29.6736 89.6591 32.6467 90.0518 36.2063C90.2284 37.8192 90.2284 39.462 90.1642 41.0873C90.0892 43.0004 88.5009 44.4402 86.5682 44.472C84.921 44.4985 83.2738 44.4773 81.6266 44.4737C81.5641 44.4737 81.5017 44.4437 81.4035 44.419C81.4035 43.8078 81.4035 43.2001 81.4035 42.4899C81.9675 42.4899 82.5368 42.4899 83.106 42.4899C84.2196 42.4899 85.3332 42.5023 86.4451 42.4846C87.3249 42.4722 88.0655 41.9546 88.0798 41.1473C88.1101 39.4143 88.2207 37.6425 87.9138 35.9554C87.4141 33.2067 84.7871 31.2917 82.0835 31.3836C79.196 31.4825 76.7582 33.5105 76.3816 36.3688C76.1764 37.9304 76.287 39.538 76.3299 41.1226C76.3495 41.8663 77.0848 42.4457 77.8932 42.4846C78.3518 42.504 78.8176 42.4864 79.3405 42.4864Z" fill="black"/>
<path d="M68.2688 35.8549C68.2688 36.3389 68.2795 36.823 68.267 37.307C68.2152 39.3544 66.7304 40.8754 64.7727 40.9002C62.7472 40.9249 61.216 39.4675 61.1357 37.3918C61.0946 36.3372 61.1107 35.279 61.1392 34.2226C61.1446 34.0212 61.2838 33.7562 61.4462 33.6343C62.8774 32.5603 66.4609 32.555 67.9333 33.6255C68.0992 33.7456 68.2366 34.0018 68.2527 34.2067C68.2973 34.7526 68.2688 35.3055 68.2688 35.8549ZM63.188 36.4449C63.1897 36.4449 63.1915 36.4449 63.1933 36.4449C63.1933 36.7735 63.1808 37.1038 63.1951 37.4324C63.2362 38.2768 63.8572 38.8969 64.6656 38.9146C65.4955 38.9322 66.1486 38.3069 66.1968 37.4271C66.2165 37.0544 66.2075 36.6816 66.2075 36.3089C66.2075 34.8303 66.2075 34.8303 64.7263 34.8215C63.188 34.8126 63.188 34.8126 63.188 36.3142C63.188 36.3566 63.188 36.4008 63.188 36.4449Z" fill="black"/>
<path d="M49.0896 42.1138C49.0896 42.0697 49.0896 42.0255 49.0896 41.9813C49.0896 40.2007 49.4483 39.7625 51.2544 39.5011C52.2537 39.3562 53.2549 39.4039 54.199 39.8297C54.8325 40.1159 55.2358 40.5381 55.1734 41.3083C55.1145 42.0308 55.2001 42.7675 55.1198 43.4864C54.9271 45.1947 53.6386 46.2617 51.9325 46.1946C50.3852 46.1327 49.1717 44.8732 49.095 43.2391C49.0771 42.8646 49.0932 42.4901 49.0932 42.1156C49.0914 42.1138 49.0914 42.1138 49.0896 42.1138ZM51.1687 41.5273C51.1687 42.211 51.1384 42.7816 51.1776 43.3486C51.2151 43.8892 51.5827 44.1878 52.1074 44.1931C52.6642 44.1984 53.0425 43.891 53.0818 43.3204C53.1193 42.7551 53.0907 42.1845 53.0907 41.5273C52.4411 41.5273 51.8397 41.5273 51.1687 41.5273Z" fill="black"/>
<path d="M38.3645 48.1585C38.3645 48.1197 38.3645 48.0808 38.3645 48.042C38.3645 46.4757 38.68 46.0903 40.2686 45.8604C41.1477 45.733 42.0283 45.7749 42.8587 46.1494C43.416 46.4011 43.7707 46.7725 43.7158 47.45C43.664 48.0855 43.7393 48.7335 43.6687 49.3659C43.4992 50.8685 42.3658 51.807 40.8651 51.748C39.5042 51.6936 38.4367 50.5857 38.3692 49.1483C38.3535 48.8189 38.3677 48.4895 38.3677 48.1601C38.3661 48.1585 38.3661 48.1585 38.3645 48.1585ZM40.1933 47.6427C40.1933 48.244 40.1666 48.7459 40.2011 49.2447C40.2341 49.7202 40.5575 49.9828 41.019 49.9874C41.5087 49.9921 41.8415 49.7217 41.8761 49.2198C41.909 48.7226 41.8839 48.2207 41.8839 47.6427C41.3125 47.6427 40.7835 47.6427 40.1933 47.6427Z" fill="black"/>
<path d="M29.356 55.2243C29.356 55.1939 29.356 55.1636 29.356 55.1332C29.356 53.9077 29.6028 53.6062 30.8457 53.4263C31.5335 53.3266 32.2225 53.3594 32.8721 53.6524C33.3081 53.8494 33.5857 54.1399 33.5427 54.67C33.5022 55.1672 33.5611 55.6741 33.5059 56.1689C33.3732 57.3445 32.4865 58.0788 31.3124 58.0326C30.2476 57.9901 29.4125 57.1233 29.3597 55.9987C29.3474 55.741 29.3585 55.4833 29.3585 55.2256C29.3572 55.2243 29.3572 55.2243 29.356 55.2243ZM30.7868 54.8207C30.7868 55.2912 30.7659 55.6839 30.7929 56.0741C30.8187 56.4461 31.0717 56.6516 31.4328 56.6552C31.8159 56.6589 32.0763 56.4473 32.1033 56.0547C32.1291 55.6656 32.1095 55.273 32.1095 54.8207C31.6624 54.8207 31.2485 54.8207 30.7868 54.8207Z" fill="black"/>
<path d="M90.3085 28.9121C91.4471 30.3416 93.4816 32.183 93.2018 37.0567" stroke="black" stroke-width="2"/>
<path d="M77.9521 49.7239C77.9521 49.0791 77.9521 48.4714 77.9521 47.8213C80.7915 47.8213 83.6022 47.8213 86.4523 47.8213C86.4523 48.4519 86.4523 49.0596 86.4523 49.7239C83.6451 49.7239 80.8343 49.7239 77.9521 49.7239Z" fill="black"/>
<path d="M78.9265 44.4916C78.9265 43.8132 78.9265 43.1719 78.9265 42.4883C80.77 42.4883 82.5939 42.4883 84.4445 42.4883C84.4445 43.1525 84.4445 43.7938 84.4445 44.4916C82.6225 44.4916 80.7968 44.4916 78.9265 44.4916Z" fill="black"/>
<path d="M80.2311 53.7043C80.2311 53.0365 80.2311 52.4306 80.2311 51.7505C80.9021 51.7505 81.541 51.7505 82.1781 51.7505C82.8206 51.7505 83.463 51.7505 84.1608 51.7505C84.1608 52.4076 84.1608 53.0312 84.1608 53.7043C82.8741 53.7043 81.5767 53.7043 80.2311 53.7043Z" fill="black"/>
</svg>
