<svg width="120" height="100" viewBox="0 0 120 100" fill="none" xmlns="http://www.w3.org/2000/svg">
<rect width="120" height="100" fill="white"/>
<path d="M98.7394 81.596H92.7091V57.5615C92.7091 57.5581 92.7091 52.5173 92.7091 52.5173C92.7091 48.1149 89.1274 44.5332 84.7251 44.5332H65.1223V33.0713C65.1223 31.4495 63.8027 30.1298 62.1809 30.1298H61.7606V26.3479C61.7606 25.6517 61.1962 25.0873 60.5 25.0873C59.8038 25.0873 59.2394 25.6517 59.2394 26.3479V30.1298H58.8191C57.1973 30.1298 55.8777 31.4495 55.8777 33.0713V44.5332H35.196C30.7936 44.5332 27.2119 48.1149 27.2119 52.5173V81.596H22.2606C21.5644 81.596 21 82.1604 21 82.8566C21 83.5528 21.5644 84.1173 22.2606 84.1173H22.9906L23.7176 86.6616C24.2524 88.5337 26.1965 90.0002 28.1436 90.0002H92.8564C94.8035 90.0002 96.7476 88.5337 97.2824 86.6617L98.0094 84.1173H98.7394C99.4356 84.1173 100 83.5528 100 82.8566C100 82.1604 99.4356 81.596 98.7394 81.596ZM58.3989 33.0713C58.3989 32.8436 58.5914 32.6511 58.8191 32.6511H62.1809C62.4086 32.6511 62.6011 32.8436 62.6011 33.0713V44.5332H58.3989V33.0713ZM35.196 47.0545H84.7251C87.7372 47.0545 90.1879 49.5052 90.1879 52.5173V56.3832C87.9081 56.689 86.5786 57.802 85.3882 58.804C84.1186 59.8725 83.1159 60.7164 80.9514 60.7164C78.787 60.7164 77.7844 59.8725 76.5146 58.804C75.1197 57.6299 73.5385 56.299 70.4543 56.299C67.3705 56.299 65.7896 57.6297 64.3947 58.804C63.1253 59.8725 62.1227 60.7164 59.9588 60.7164C57.7947 60.7164 56.7922 59.8725 55.5227 58.804C54.1277 57.6299 52.5467 56.299 49.4629 56.299C46.379 56.299 44.7982 57.6297 43.4032 58.804C42.6576 59.4316 41.9533 60.0246 41.0413 60.3707C40.5518 60.5564 40.2281 61.0256 40.2281 61.5493V70.1696C40.2281 70.8648 39.6627 71.4302 38.9675 71.4302C38.2724 71.4302 37.7068 70.8648 37.7068 70.1696V61.5907C37.7245 61.0593 37.4038 60.5645 36.8941 60.371C35.9819 60.0248 35.2775 59.4318 34.5319 58.804C33.3416 57.802 32.0124 56.689 29.733 56.3832V52.5173C29.7332 49.5052 32.1837 47.0545 35.196 47.0545ZM29.7332 58.9361C31.0833 59.2007 31.9154 59.897 32.9083 60.7329C33.559 61.2805 34.2774 61.8853 35.1859 62.3613V70.1696C35.1859 72.255 36.8824 73.9515 38.9678 73.9515C41.0532 73.9515 42.7497 72.255 42.7497 70.1696L42.7499 62.3613C43.6582 61.8853 44.3768 61.2805 45.0273 60.7329C46.2966 59.6644 47.2993 58.8204 49.4632 58.8204C51.6273 58.8204 52.6299 59.6644 53.8993 60.7329C55.2942 61.907 56.8752 63.2379 59.9591 63.2379C63.043 63.2379 64.624 61.9072 66.0187 60.7329C67.2881 59.6644 68.2907 58.8204 70.4547 58.8204C72.6191 58.8204 73.6219 59.6644 74.8914 60.7331C76.2864 61.9072 77.8676 63.2379 80.9518 63.2379C84.0359 63.2379 85.617 61.9072 87.0121 60.7331C88.0053 59.8972 88.8376 59.2007 90.1882 58.9361V81.596H29.7332V58.9361ZM94.8581 85.969C94.6324 86.7592 93.6782 87.479 92.8564 87.479H28.1436C27.3217 87.479 26.3676 86.7592 26.1419 85.969L25.6128 84.1173H95.3872L94.8581 85.969Z" fill="black"/>
<path d="M55.4577 27.0602C55.7566 27.0602 56.0566 26.9547 56.297 26.74C56.8164 26.2763 56.8614 25.4794 56.3978 24.96C55.4981 23.9523 55.0027 22.6555 55.0027 21.3082C55.0027 18.3559 57.2381 15.2739 60.5001 13.6516C63.7622 15.2737 65.9975 18.3558 65.9975 21.3082C65.9975 22.6555 65.502 23.9523 64.6024 24.96C64.1387 25.4792 64.1837 26.2763 64.7031 26.7398C65.2221 27.2034 66.0192 27.1585 66.4829 26.6392C67.7957 25.1689 68.5186 23.2758 68.5186 21.3082C68.5186 17.2346 65.4289 13.0391 61.0049 11.1056C60.683 10.9649 60.3171 10.9651 59.9952 11.1056C55.5712 13.0391 52.4815 17.2345 52.4815 21.308C52.4815 23.2756 53.2044 25.1688 54.5171 26.639C54.7661 26.9182 55.1111 27.0604 55.4577 27.0602Z" fill="black"/>
</svg>
