<svg width="120" height="100" viewBox="0 0 120 100" fill="none" xmlns="http://www.w3.org/2000/svg">
<rect width="120" height="100" fill="white"/>
<path d="M44.6379 85.0004C43.9915 84.5688 43.8193 84.0226 43.9274 83.2092C44.2058 81.1167 44.4624 79.0122 44.535 76.9043C44.6936 72.2672 42.7982 68.5873 39.2269 65.7379C37.8328 64.6266 36.4555 63.4896 35.1323 62.2943C32.0099 59.4758 30.4065 55.8952 30.1145 51.6862C30.1044 51.5526 30.0875 51.4191 30.0656 51.1947C29.8141 51.1947 29.5761 51.1982 29.3381 51.1947C28.2124 51.1742 27.7989 50.7547 27.7989 49.6177C27.7972 40.7082 27.7989 31.7987 27.7989 22.8893C27.7989 22.6204 27.7989 22.3533 27.7989 21.992C27.3854 21.992 27.0326 22.0108 26.6816 21.9886C25.9373 21.9406 25.5204 21.5211 25.5119 20.7728C25.4951 19.2916 25.4984 17.8104 25.5086 16.3292C25.5136 15.4387 25.9491 15.0055 26.8503 15.0038C30.1297 14.9969 33.4091 15.0004 36.6868 15.0004C40.5045 15.0004 44.3223 14.9987 48.1401 15.0004C49.254 15.0004 49.6388 15.3822 49.6456 16.5073C49.654 17.8292 49.6523 19.1512 49.6456 20.4714C49.6388 21.6118 49.2743 21.98 48.1569 21.9988C47.9156 22.0023 47.6742 21.9988 47.389 21.9988C47.389 23.1769 47.389 24.2814 47.389 25.463C47.8261 25.4818 48.265 25.4972 48.7055 25.5229C50.562 25.6308 51.9545 27.1462 51.9376 29.035C51.919 30.9391 50.4473 32.4511 48.5688 32.4922C48.1907 32.5008 47.8126 32.4939 47.3907 32.4939C47.3907 37.9359 47.3907 43.3213 47.3907 48.7546C48.1164 48.7546 48.8236 48.7546 49.6338 48.7546C49.6338 47.8179 49.6338 46.871 49.6338 45.9241C49.6338 44.5062 49.9899 44.1398 51.3806 44.1398C64.3175 44.1398 77.2527 44.1603 90.1895 44.1192C92.333 44.1124 93.8301 44.847 94.5001 46.9909C94.5001 47.4464 94.5001 47.9019 94.5001 48.3573C94.1693 49.2632 93.7777 50.1707 92.8815 50.6023C92.2925 50.8865 92.1507 51.2906 92.0883 51.8574C91.8165 54.3421 90.9456 56.6144 89.5971 58.6898C87.2848 62.2515 84.0797 64.666 80.1489 66.1095C79.7084 66.2705 79.5126 66.4554 79.5379 66.9657C79.6004 68.2602 79.597 69.5582 79.6172 70.8545C79.6848 75.1714 80.5236 79.281 82.7396 83.0363C83.2409 83.8856 83.0941 84.3 82.2401 84.9986C69.7032 85.0004 57.1714 85.0004 44.6379 85.0004ZM32.393 51.1965C32.5129 52.0424 32.5939 52.7873 32.7238 53.5219C33.296 56.7274 35.0648 59.1795 37.4733 61.2224C39.1087 62.6094 40.7914 63.9451 42.3695 65.3954C44.4117 67.2739 45.7535 69.6027 46.4084 72.3425C47.0751 75.132 47.0278 77.9351 46.697 80.7537C46.6244 81.3718 46.5535 81.99 46.4742 82.6664C50.3291 82.6664 54.076 82.6698 57.8229 82.6527C57.9697 82.6527 58.1739 82.4746 58.255 82.3274C59.2558 80.4865 59.9883 78.5413 60.417 76.4796C61.0651 73.358 61.0195 70.1918 61.0871 67.029C61.0972 66.5119 60.9503 66.2824 60.466 66.1095C58.2009 65.3013 56.1486 64.1043 54.3325 62.5067C51.2371 59.7857 49.2675 56.4123 48.6076 52.2838C48.4337 51.1982 48.427 51.1982 47.3282 51.1982C42.6581 51.1982 37.9864 51.1982 33.3163 51.1982C33.0496 51.1965 32.7846 51.1965 32.393 51.1965ZM89.7845 51.2513C76.8138 51.2513 63.8803 51.2513 50.903 51.2513C50.9755 51.7598 51.0127 52.2153 51.1089 52.6571C51.2287 53.2102 51.357 53.7684 51.5528 54.2976C53.6794 60.01 57.9376 63.231 63.6154 64.6043C67.4956 65.5427 71.4754 65.3852 75.4012 64.9023C80.24 64.3047 84.2468 62.0529 87.2021 58.0545C88.6823 56.0527 89.5482 53.789 89.7845 51.2513ZM45.0092 48.7683C45.0092 39.8178 45.0092 30.946 45.0092 22.0588C40.0269 22.0588 35.0834 22.0588 30.1398 22.0588C30.1398 30.9888 30.1398 39.8623 30.1398 48.7683C35.1104 48.7683 40.0387 48.7683 45.0092 48.7683ZM60.7833 82.6287C67.2255 82.6287 73.4973 82.6287 79.8839 82.6287C78.6687 80.1663 77.8653 77.6372 77.6037 74.9847C77.3438 72.3528 77.283 69.7003 77.1345 67.065C72.6214 67.7003 68.0914 67.6934 63.4635 67.0564C63.4483 72.3939 63.3588 77.6988 60.7833 82.6287ZM51.9545 48.8026C52.2886 48.8026 52.5519 48.8026 52.8152 48.8026C65.3622 48.8026 77.9092 48.8026 90.4562 48.8026C90.6807 48.8026 90.9068 48.8077 91.1296 48.7854C91.7355 48.7255 92.1777 48.2375 92.171 47.6553C92.1642 47.0919 91.7575 46.633 91.1752 46.5594C90.9085 46.5251 90.6385 46.5268 90.3684 46.5268C77.8653 46.5251 65.3639 46.5251 52.8608 46.5251C52.6819 46.5251 52.4844 46.4806 52.3275 46.5422C52.1806 46.6005 51.9798 46.7666 51.9713 46.895C51.9342 47.5012 51.9545 48.1108 51.9545 48.8026ZM27.8174 19.6135C34.3492 19.6135 40.8185 19.6135 47.2877 19.6135C47.2877 18.8378 47.2877 18.1032 47.2877 17.3874C40.7678 17.3874 34.3002 17.3874 27.8174 17.3874C27.8174 18.146 27.8174 18.8464 27.8174 19.6135ZM47.4008 27.8603C47.4008 28.6719 47.4008 29.4048 47.4008 30.1617C48.1755 30.1429 49.0008 30.3792 49.4346 29.5624C49.5932 29.2627 49.5916 28.7284 49.4295 28.4305C48.9873 27.6137 48.1637 27.8723 47.4008 27.8603Z" fill="black"/>
</svg>
