<svg width="120" height="100" viewBox="0 0 120 100" fill="none" xmlns="http://www.w3.org/2000/svg">
<rect width="120" height="100" fill="white"/>
<path d="M45.4299 18.0005C46.4975 18.0005 47.5651 18.0005 48.6327 18.0005C48.7654 18.0412 48.898 18.0897 49.0323 18.1242C50.4963 18.4858 51.9851 18.7692 53.4199 19.2263C54.543 19.5849 55.5782 20.2236 56.6921 20.6244C59.3965 21.5982 62.013 21.2945 64.6048 20.0718C66.0041 19.4111 67.4944 18.9383 68.9693 18.4592C69.7175 18.2165 70.5198 18.1477 71.2989 18.0005C72.3665 18.0005 73.434 18.0005 74.5016 18.0005C74.6158 18.0381 74.7284 18.0976 74.8457 18.1085C77.0719 18.3277 79.187 18.9492 81.1663 19.9935C86.6138 22.8664 90.0125 27.322 91.1418 33.4842C91.3161 34.4377 91.384 35.4115 91.4997 36.3759C91.4997 36.5841 91.4997 36.7923 91.4997 37.0006C91.4642 37.2229 91.418 37.4436 91.3948 37.6659C91.1727 39.8155 91.0415 41.9807 90.716 44.1131C89.8737 49.6193 88.6796 55.0488 87.1029 60.3906C85.6619 65.2752 84.0096 70.0753 81.5489 74.5451C80.3734 76.6806 79.0358 78.7018 77.149 80.2736C75.597 81.5668 73.8691 82.3073 71.8064 81.8752C70.1943 81.5386 68.9261 80.6102 67.7999 79.4564C66.1507 77.7656 64.9473 75.7585 63.9014 73.6512C63.2117 72.2593 62.5916 70.8331 61.9251 69.4303C61.6366 68.8213 61.1691 68.3986 60.5057 68.2405C59.3487 67.9618 58.44 68.4784 57.8599 69.7153C57.0855 71.3654 56.3542 73.0406 55.5057 74.6516C54.5862 76.3972 53.5263 78.0615 52.127 79.4658C50.7231 80.8748 49.1511 81.9676 47.0822 81.9958C44.9085 82.024 43.2624 80.8936 41.8183 79.3985C39.6045 77.1049 38.108 74.3322 36.8028 71.4499C34.4193 66.1817 32.7654 60.663 31.3908 55.0519C30.2878 50.5524 29.4099 46.0059 28.8391 41.4046C28.546 39.028 28.3454 36.6452 28.6571 34.2435C29.6028 26.9526 34.8728 20.7262 41.8399 18.7676C43.0155 18.4373 44.2327 18.2525 45.4299 18.0005ZM31.8028 37.453C31.8938 38.5317 31.9586 40.0535 32.1591 41.5564C32.8287 46.5867 33.8716 51.5434 35.1984 56.4374C36.7658 62.216 38.5662 67.9086 41.3787 73.2144C42.2565 74.8708 43.2546 76.4473 44.6956 77.6732C46.2306 78.9805 47.7255 79.0337 49.1433 77.6168C50.1986 76.5616 51.2029 75.3858 51.9496 74.0958C53.1406 72.0417 54.0802 69.8374 55.157 67.7144C56.9435 64.1918 61.9883 63.7503 64.2654 66.9629C64.9489 67.9273 65.3623 69.0906 65.8761 70.174C67.0085 72.5599 68.2026 74.9005 69.9675 76.8904C71.99 79.1699 73.8984 79.2701 75.9009 76.9984C76.916 75.8461 77.7923 74.5326 78.5437 73.1846C80.5276 69.6245 81.913 65.7966 83.1303 61.9108C85.4614 54.4679 87.2618 46.9014 88.0224 39.1141C88.2306 36.9771 88.2059 34.8306 87.6135 32.7327C86.3022 28.0892 83.4435 24.7686 79.1561 22.7521C76.3576 21.4354 73.4016 21.0612 70.3331 21.5951C68.4247 21.927 66.7231 22.7818 64.9736 23.5427C62.735 24.5149 60.4024 24.756 57.9926 24.41C56.3233 24.1705 54.8145 23.5004 53.3042 22.7959C49.5275 21.0346 45.6768 20.8937 41.7721 22.3435C38.3703 23.6038 35.7507 25.8457 33.8793 28.9753C32.406 31.4364 31.775 34.1433 31.8028 37.453Z" fill="black"/>
<path d="M83.8893 37.4923C83.4542 40.4075 83.1272 43.343 82.5579 46.2315C81.8606 49.7697 80.9596 53.2673 80.1481 56.782C80.0093 57.3832 79.7948 57.939 79.2194 58.2537C78.6285 58.5762 78.0253 58.5903 77.4838 58.1723C76.9438 57.7558 76.6522 57.1844 76.8219 56.4799C77.2863 54.5652 77.7954 52.663 78.2505 50.7467C79.2255 46.6432 79.9815 42.5007 80.3965 38.297C80.4551 37.6974 80.4243 37.0868 80.5091 36.4935C80.6156 35.7436 81.2126 35.1909 81.8945 35.1111C82.6566 35.0218 83.3509 35.3803 83.6162 36.1209C83.7643 36.5342 83.7366 37.0133 83.789 37.4626C83.823 37.4735 83.8553 37.4829 83.8893 37.4923Z" fill="black"/>
<path d="M36.1919 36.3086C36.3338 30.8932 40.6582 26.2716 45.9884 25.8645C46.5284 25.8238 47.1115 25.8082 47.616 25.971C48.3164 26.198 48.7206 27.0638 48.5941 27.7339C48.4491 28.5057 47.8135 29.0897 47.0004 29.1257C44.5012 29.2353 42.4339 30.2012 40.9266 32.2647C40.0118 33.5172 39.5412 34.9293 39.4857 36.4965C39.4394 37.8194 38.614 38.5756 37.5063 38.383C36.6208 38.2296 36.161 37.5047 36.1919 36.3086Z" fill="black"/>
</svg>
