<svg width="120" height="100" viewBox="0 0 120 100" fill="none" xmlns="http://www.w3.org/2000/svg">
<rect width="120" height="100" fill="white"/>
<path d="M94.1201 30.4099C93.7553 31.5191 92.9705 32.3149 92.1661 33.1143C88.5285 36.7303 84.8998 40.3588 81.2854 43.998C80.3867 44.9024 79.3581 45.5202 78.1337 45.8888C74.0637 47.1155 70.0026 48.3671 65.9504 49.649C65.4467 49.8075 64.9396 50.1226 64.5658 50.4947C53.7973 61.2413 43.043 72.0004 32.2941 82.7648C31.4577 83.6016 30.5323 84.1837 29.3061 84.1143C27.9002 84.036 26.8573 83.3576 26.2523 82.0935C25.6436 80.8259 25.7931 79.5903 26.6117 78.4508C26.8182 78.1642 27.078 77.9149 27.3289 77.6639C37.9426 67.0455 48.5599 56.4324 59.1664 45.8069C60.1007 44.8704 61.1614 44.2312 62.4285 43.8502C66.18 42.7232 69.9189 41.5481 73.7256 40.3731C73.569 40.1968 73.4497 40.0508 73.318 39.9173C71.7182 38.3131 70.1218 36.7054 68.5077 35.1173C68.3013 34.9143 68.0058 34.7487 67.7247 34.6829C65.1602 34.0757 64.1102 31.0419 65.7831 29.0069C66.1479 28.5618 66.575 28.1665 66.9826 27.7588C69.289 25.4478 71.5865 23.1297 73.916 20.8419C74.425 20.3434 74.6278 19.8823 74.3128 19.2057C74.11 18.7677 74.005 18.2834 73.8555 17.8205C73.5156 16.7754 73.5796 16.5422 74.4001 15.8799C75.8665 15.8799 77.3311 15.8799 78.7975 15.8799C80.5148 16.4585 81.8531 17.4377 82.3354 19.3588C83.0828 19.1274 83.5171 19.5689 83.9655 20.0211C85.7914 21.8603 87.6405 23.6763 89.4503 25.5333C89.8668 25.9588 90.2743 26.1725 90.8794 26.1689C91.3012 26.1671 91.7443 26.3291 92.1411 26.5018C93.2125 26.9683 93.7321 27.9084 94.1201 28.9428C94.1201 29.4324 94.1201 29.9202 94.1201 30.4099ZM91.8297 29.8757C91.8546 28.8146 90.9061 28.1594 90.1088 28.5315C89.817 28.6668 89.5589 28.9018 89.3276 29.1333C85.3661 33.0858 81.4278 37.0615 77.4361 40.9837C76.8595 41.5499 76.08 42.011 75.3112 42.2603C71.2056 43.5885 67.0626 44.8081 62.957 46.1327C62.2078 46.3748 61.4408 46.8164 60.8856 47.3701C50.1989 58.0099 39.5443 68.6799 28.8879 79.3464C28.701 79.5333 28.5159 79.7327 28.3825 79.9588C28.0746 80.4787 28.1422 80.9897 28.5533 81.4205C28.9858 81.8728 29.5143 81.9654 30.0607 81.6413C30.3223 81.4846 30.5501 81.2603 30.7672 81.0431C41.509 70.3036 52.249 59.5642 62.9837 48.8176C63.6262 48.1731 64.3541 47.7262 65.2279 47.4591C69.3779 46.1932 73.5263 44.922 77.6585 43.6045C78.2921 43.4033 78.9488 43.0526 79.4168 42.5915C83.4014 38.6621 87.3468 34.6935 91.2905 30.7232C91.5556 30.4544 91.7087 30.0698 91.8297 29.8757ZM76.4057 18.1125C76.4537 18.3084 76.4644 18.3956 76.4947 18.4757C77.1282 20.0834 76.6851 21.3653 75.4607 22.5475C72.9532 24.9707 70.5151 27.465 68.0521 29.9327C67.8813 30.1054 67.7104 30.2817 67.5681 30.4775C67.1854 31.0045 67.2282 31.6935 67.6499 32.1173C68.0735 32.5428 68.7711 32.5944 69.2925 32.2205C69.4883 32.0799 69.6609 31.9018 69.8335 31.7291C72.9443 28.6205 76.0515 25.5084 79.1605 22.398C79.3492 22.2093 79.5432 22.0241 79.7051 21.814C80.7159 20.4894 80.0504 18.6004 78.4184 18.2585C77.7956 18.125 77.1407 18.1588 76.4057 18.1125ZM87.7989 27.3386C86.0833 25.6241 84.3695 23.9113 82.7056 22.2484C82.1895 22.7327 81.6111 23.2757 81.1075 23.7493C82.8337 25.471 84.5475 27.182 86.247 28.8787C86.7471 28.382 87.3095 27.8229 87.7989 27.3386ZM84.398 30.7125C82.6913 29.0033 80.99 27.3012 79.3261 25.6348C78.7939 26.1653 78.2209 26.7386 77.6888 27.271C79.367 28.9464 81.0736 30.6502 82.7928 32.3665C83.3142 31.8288 83.8677 31.2573 84.398 30.7125ZM72.4958 32.4093C71.9353 32.9594 71.3676 33.5167 70.8355 34.0401C72.5457 35.7511 74.2523 37.4585 75.8771 39.0823C76.4377 38.5713 77.0339 38.0265 77.598 37.5137C75.8932 35.8081 74.2025 34.1167 72.4958 32.4093ZM81.0416 34.0971C79.3314 32.3861 77.623 30.6787 75.9821 29.0372C75.4091 29.5713 74.8183 30.125 74.3217 30.5861C76.0373 32.3024 77.7404 34.0063 79.4239 35.6888C79.9258 35.1938 80.4917 34.6366 81.0416 34.0971Z" fill="black"/>
</svg>
