<svg width="120" height="100" viewBox="0 0 120 100" fill="none" xmlns="http://www.w3.org/2000/svg">
<rect width="120" height="100" fill="white"/>
<path d="M81.6589 83.6155C80.4832 83.3919 79.2878 83.239 78.1367 82.9249C76.341 82.4365 74.8085 81.5486 74.1984 79.6296C73.4897 77.3982 74.5092 75.2144 76.8228 73.9515C77.3161 73.6819 77.8374 73.4615 78.3274 73.228C77.8127 72.7002 77.3145 72.1871 76.7883 71.6461C76.6683 71.7547 76.5614 71.8566 76.4479 71.952C75.6981 72.5801 75.0091 72.5769 74.2954 71.8911C73.4124 71.041 72.559 70.1629 71.6924 69.298C71.5411 69.1467 71.3816 69.0053 71.3158 68.9444C70.4114 69.4772 69.6254 70.1152 68.7259 70.4392C66.5603 71.2202 64.5936 70.6973 62.918 69.1434C55.0414 61.8407 47.1747 54.5298 39.3031 47.2222C35.3599 43.5602 31.4167 39.8998 27.48 36.2296C27.087 35.8629 26.7483 35.437 26.3849 35.0374C26.3849 34.7315 26.3849 34.424 26.3849 34.1182C26.9802 33.4867 27.559 32.8389 28.1707 32.2239C33.1646 27.2217 38.1619 22.2277 43.1592 17.2304C44.3069 16.0827 44.9499 16.104 46.05 17.2896C57.0492 29.139 68.0517 40.9851 79.051 52.8328C80.9963 54.9278 81.3268 57.4601 79.9373 59.8066C79.6396 60.3082 79.2318 60.7439 78.8339 61.2603C79.7728 62.1943 80.7036 63.1464 81.6639 64.0672C82.2674 64.6444 82.611 65.2627 82.2246 66.0421C83.9167 66.8248 85.6071 67.5352 87.2284 68.3771C89.2198 69.4114 91.0253 70.7039 92.3836 72.5489C94.7136 75.7143 93.8799 81.4696 88.6508 82.9562C87.651 83.2406 86.6151 83.3985 85.5972 83.6155C84.285 83.6155 82.9728 83.6155 81.6589 83.6155ZM72.212 49.6115C64.8353 41.6675 57.411 33.6742 50.0754 25.7746C45.2936 30.5581 40.5413 35.3104 35.7677 40.0856C43.6887 47.4409 51.6803 54.862 59.6062 62.2222C63.8355 57.9912 68.0057 53.8195 72.212 49.6115ZM61.8524 64.304C62.7536 65.1443 63.6908 66.024 64.6331 66.8988C66.2166 68.3689 67.6735 68.3409 69.2077 66.8084C71.7434 64.2744 74.2773 61.7404 76.8113 59.2031C77.0119 59.0025 77.2093 58.7953 77.3819 58.5717C78.1137 57.6245 78.2041 56.2597 77.451 55.3438C76.4446 54.1187 75.3314 52.9808 74.3053 51.8495C70.1269 56.0279 66.0061 60.1503 61.8524 64.304ZM44.621 19.9026C39.6928 24.8324 34.8107 29.7178 29.8973 34.6312C31.0845 35.7346 32.3096 36.8709 33.4968 37.9742C38.3395 33.1283 43.1296 28.3333 47.9591 23.5021C46.8656 22.3214 45.7392 21.1079 44.621 19.9026ZM78.6251 69.6005C79.2466 70.1596 79.8008 70.5395 80.202 71.041C81.1015 72.1641 82.1473 72.8005 83.6289 72.4206C83.6503 72.4157 83.6717 72.4173 83.6947 72.4173C84.5448 72.4289 85.1565 72.9682 85.196 73.7427C85.2371 74.5386 84.6435 75.1487 83.7637 75.2111C83.1537 75.2539 82.5387 75.2687 81.9319 75.3443C80.3845 75.5367 78.8619 75.8245 77.5875 76.8177C76.54 77.635 76.5433 78.8353 77.6171 79.6246C77.9772 79.8894 78.4162 80.0719 78.8438 80.215C80.5293 80.779 82.2871 80.8366 84.0301 80.7576C85.3489 80.6984 86.6924 80.5504 87.9668 80.2216C91.0565 79.4224 91.466 75.7143 89.889 73.9598C89.3661 73.3777 88.8087 72.8054 88.1838 72.3401C85.8291 70.5872 83.157 69.4591 80.3928 68.5366C80.2234 68.4807 79.9603 68.5136 79.8156 68.6139C79.4423 68.8721 79.1102 69.1911 78.6251 69.6005ZM73.3598 66.7722C74.0636 67.4793 74.7674 68.1847 75.4399 68.8606C76.5614 67.7342 77.7289 66.5634 78.8388 65.4485C78.1597 64.7595 77.4493 64.0376 76.7735 63.3519C75.6405 64.4865 74.4747 65.6557 73.3598 66.7722Z" fill="black"/>
</svg>
