<svg width="120" height="100" viewBox="0 0 120 100" fill="none" xmlns="http://www.w3.org/2000/svg">
<rect width="120" height="100" fill="white"/>
<path d="M73.9064 85.2648C73.7115 85.163 73.5167 85.0595 73.3219 84.9577C72.2046 84.366 71.6115 83.0739 71.9115 81.8853C72.2339 80.6053 73.3046 79.7583 74.6012 79.7583C75.8892 79.7583 76.9754 80.6174 77.2926 81.8871C77.5875 83.0688 76.984 84.3764 75.8736 84.9595C75.6788 85.063 75.4823 85.163 75.2857 85.2648C74.8253 85.2648 74.365 85.2648 73.9064 85.2648Z" fill="black"/>
<path d="M88.4943 14.7358C88.4943 16.6058 88.4943 18.3706 88.4943 20.1664C88.3598 20.1958 88.2546 20.2389 88.1477 20.2406C81.4734 20.3476 74.9992 21.6604 68.6301 23.5476C60.4919 25.9576 52.6866 29.1439 45.514 33.7412C42.8243 35.4663 40.2467 37.3519 38.238 39.886C37.7725 40.4726 37.3811 41.1367 37.069 41.8181C36.6638 42.7014 36.8069 43.262 37.6897 43.6295C38.8587 44.1177 40.0898 44.5628 41.3346 44.7439C45.9313 45.4115 50.4866 44.8198 55.0125 44.0245C59.573 43.2241 64.0437 42.0476 68.4145 40.5157C72.6405 39.0338 76.7561 37.3001 80.3648 34.5779C81.2321 33.9241 81.9941 33.1306 82.8045 32.4008C82.7735 32.2939 82.7424 32.1869 82.7114 32.08C81.6338 31.9937 80.5545 31.8091 79.4786 31.8385C75.5078 31.9437 71.6663 32.8114 67.9197 34.0776C65.9714 34.7366 64.0127 35.4249 62.1747 36.3341C60.0333 37.3933 57.8143 38.1075 55.4798 38.4853C52.6814 38.9372 49.8727 39.3323 47.0692 39.7515C47.0399 39.6738 47.0106 39.5945 46.9813 39.5169C47.1572 39.3564 47.3244 39.1856 47.5106 39.0373C54.4263 33.4514 62.1747 29.5406 70.8335 27.4826C74.1198 26.7028 77.4475 26.1456 80.8389 26.3388C82.0838 26.4096 83.3562 26.6183 84.539 27.003C88.5408 28.3003 89.696 32.1766 87.1839 35.5578C85.3787 37.9884 82.9838 39.7014 80.4044 41.1868C74.456 44.6128 68.0025 46.7088 61.3782 48.3321C55.6643 49.7346 49.8848 50.6989 43.9726 50.5213C41.145 50.4367 38.3397 50.1348 35.7362 48.8979C33.4862 47.8249 31.8655 46.1999 31.4396 43.6364C31.093 41.5525 31.7689 39.6997 32.8396 37.9591C34.3414 35.5164 36.3931 33.5825 38.6346 31.8454C44.4847 27.3101 51.0521 24.0824 57.8953 21.3757C63.9972 18.9623 70.268 17.1096 76.7182 15.8986C80.37 15.212 84.0528 14.7393 87.7805 14.7358C88.0046 14.7358 88.2288 14.7358 88.4943 14.7358Z" fill="black"/>
<path d="M47.4698 59.7804C47.5491 57.9207 47.6267 56.1422 47.706 54.2929C54.3613 54.2756 60.9063 53.627 67.3547 52.1037C73.8169 50.577 79.9481 48.2568 85.6275 44.6582C86.6448 46.2073 87.6345 47.7151 88.6517 49.2642C83.1688 52.8628 77.1894 55.24 70.9203 56.9133C63.2684 58.9575 55.47 59.8994 47.4698 59.7804Z" fill="black"/>
<path d="M54.4971 69.3795C54.4971 67.5509 54.4971 65.7706 54.4971 63.9386C64.3732 63.6884 73.9045 62.2118 82.8633 57.8628C83.6978 59.5137 84.5116 61.1215 85.3237 62.7258C80.177 66.2778 62.4077 70.1058 54.4971 69.3795Z" fill="black"/>
<path d="M78.8442 70.3223C79.5753 71.7817 80.3753 73.3774 81.2218 75.0663C76.1993 77.4141 70.8889 78.1956 65.4043 78.4061C65.4043 76.5257 65.4043 74.7454 65.4043 72.9875C67.6784 72.7115 69.9681 72.5683 72.201 72.1267C74.4062 71.692 76.5545 70.9571 78.8442 70.3223Z" fill="black"/>
</svg>
