<svg width="120" height="100" viewBox="0 0 120 100" fill="none" xmlns="http://www.w3.org/2000/svg">
<rect width="120" height="100" fill="white"/>
<path d="M29.6123 25.0853C29.6488 24.9938 29.6979 24.9055 29.7217 24.8124C30.2371 22.8503 31.6436 21.7392 33.6432 21.7376C41.7922 21.7344 49.9412 21.736 58.0917 21.7392C58.623 21.7392 59.1669 21.7264 59.6838 21.8243C61.5724 22.1823 62.8758 23.8105 62.8299 25.6923C62.7839 27.5885 61.4281 29.1138 59.5173 29.4237C59.4792 29.4302 59.4444 29.451 59.3476 29.488C59.4047 29.6822 59.4507 29.8862 59.5221 30.0788C61.5867 35.652 63.6576 41.2219 65.7111 46.7998C65.8728 47.2382 66.0679 47.41 66.5547 47.4019C68.7699 47.3698 70.9852 47.3875 73.2004 47.3875C73.4145 47.3875 73.627 47.3875 73.9029 47.3875C73.9029 47.0856 73.9029 46.8496 73.9029 46.6152C73.9029 42.3089 73.9029 38.0026 73.9029 33.6963C73.9029 32.4423 74.3342 32.0104 75.5885 32.004C76.6034 31.9992 76.4258 32.0602 76.5066 31.1546C76.7461 28.4668 79.3641 25.8239 82.0186 25.5831C82.2342 25.5638 82.4547 25.5622 82.6703 25.5799C83.5329 25.6505 84.0943 26.1884 84.0705 26.9093C84.0451 27.6543 83.4917 28.1473 82.6291 28.1954C80.5899 28.3094 79.0517 29.8942 79.0279 32.004C79.3308 32.004 79.6384 32.0008 79.9445 32.004C81.0894 32.0184 81.5286 32.4487 81.5302 33.6032C81.5365 36.6876 81.5334 39.772 81.5334 42.8564C81.5334 44.3352 81.5334 45.814 81.5334 47.3875C82.2295 47.3875 82.8765 47.3522 83.5187 47.3971C84.3036 47.4517 85.1107 47.471 85.8592 47.6829C88.5501 48.4456 90.3753 50.9231 90.3816 53.7474C90.3927 58.834 90.3864 63.9223 90.3832 69.0089C90.3832 69.9803 89.8901 70.4813 88.9244 70.4941C88.1347 70.5037 87.345 70.4957 86.5109 70.4957C86.2509 71.8814 85.7958 73.1723 84.968 74.2898C82.7179 77.326 79.6955 78.6378 76.0325 77.9089C72.2966 77.1639 69.9703 74.7378 69.057 70.9838C68.9555 70.568 68.8032 70.4893 68.4338 70.4893C64.4378 70.4989 60.4418 70.4989 56.4474 70.4877C56.0937 70.4861 55.8908 70.5808 55.7037 70.9116C53.3267 75.1247 49.7461 77.5637 45.0001 78.1626C37.7391 79.0842 30.754 73.6443 29.7297 66.3403C29.7106 66.2071 29.652 66.0786 29.6123 65.9486C29.6123 64.7459 29.6123 63.5449 29.6123 62.3423C29.6472 62.2492 29.7011 62.1609 29.7138 62.0645C30.0072 59.9933 30.7445 58.097 31.872 56.3485C31.9354 56.249 32.0194 56.135 32.0194 56.0274C32.0305 54.8232 32.0258 53.6189 32.0258 52.3826C31.9354 52.4404 31.8577 52.4934 31.7768 52.5432C31.095 52.9622 30.4099 52.8691 29.9865 52.3007C29.5743 51.7484 29.6472 51.0869 30.2054 50.5297C30.5558 50.1781 30.892 49.7895 31.3027 49.5262C32.0099 49.075 32.1431 48.4697 32.1384 47.6685C32.1066 41.7052 32.1225 35.7419 32.113 29.7786C32.113 29.5682 32.0575 29.2295 31.9275 29.1684C30.6462 28.5599 29.9612 27.5018 29.6123 26.1659C29.6123 25.8063 29.6123 25.445 29.6123 25.0853ZM43.5476 52.5512C37.2555 52.5239 32.0591 57.747 32.1653 64.2514C32.2716 70.7622 37.636 75.8392 44.0376 75.5759C50.1695 75.3238 55.1344 70.0285 54.9235 63.5481C54.7284 57.5848 49.5067 52.4484 43.5476 52.5512ZM62.3494 67.8577C62.5524 67.8689 62.7252 67.8866 62.8996 67.8866C64.7391 67.8882 66.5769 67.8753 68.4163 67.8978C68.8318 67.9026 68.9602 67.7806 69.0633 67.3583C69.891 63.9624 71.935 61.6423 75.2666 60.6612C78.5015 59.7075 81.4033 60.4894 83.8707 62.8047C85.32 64.1647 86.1478 65.8908 86.4982 67.8416C86.9533 67.8416 87.3751 67.8416 87.789 67.8416C87.789 64.0041 87.789 60.2149 87.789 56.3838C87.4988 56.3838 87.2641 56.3838 87.0279 56.3838C84.8523 56.3838 82.6782 56.3919 80.5026 56.3806C79.4339 56.3742 78.9962 55.9118 78.993 54.8392C78.9915 53.9577 78.993 53.0778 78.993 52.1964C78.993 51.4642 78.993 50.7304 78.993 50.0159C71.5227 50.0159 64.1301 50.0159 56.7011 50.0159C61.6025 55.0142 63.4705 60.9342 62.3494 67.8577ZM63.1866 47.357C63.1391 47.1948 63.1137 47.0824 63.0741 46.9765C60.9698 41.2925 58.8624 35.6102 56.7693 29.9231C56.6329 29.5538 56.441 29.4542 56.0731 29.4558C52.4942 29.4687 48.9136 29.4623 45.3347 29.4655C45.1666 29.4655 44.9985 29.4944 44.8447 29.5072C44.8447 34.6404 44.8447 39.7158 44.8447 44.796C45.0397 44.8297 45.1935 44.8699 45.3505 44.8827C48.0256 45.1123 50.5215 45.9248 52.8747 47.2221C53.1015 47.3474 53.4012 47.3827 53.6676 47.3843C56.6345 47.3955 59.6013 47.3923 62.5666 47.3907C62.7585 47.3875 62.9488 47.3698 63.1866 47.357ZM42.233 29.5072C39.6975 29.5072 37.2206 29.5072 34.7247 29.5072C34.7247 35.371 34.7247 41.1898 34.7247 47.0872C37.1048 45.8316 39.588 45.1171 42.233 44.8972C42.233 39.7656 42.233 34.6661 42.233 29.5072ZM57.0039 67.8882C57.8301 67.8882 58.5992 67.9074 59.3667 67.8705C59.5078 67.8641 59.7282 67.6586 59.7615 67.5092C60.234 65.4588 60.3102 63.3796 59.9581 61.3115C59.1431 56.5171 56.6868 52.7407 52.6432 50.1636C46.9759 46.551 41.1405 46.3888 35.2733 49.7654C35.0624 49.8875 34.7421 50.0769 34.731 50.2503C34.6771 51.1928 34.7056 52.1402 34.7056 53.1533C40.0971 48.7876 46.4605 49.2709 50.7753 52.0856C56.4854 55.8122 58.4755 61.1381 57.0039 67.8882ZM84.0356 69.1662C84.0372 65.6788 81.2241 62.816 77.7863 62.8079C74.2613 62.7983 71.4133 65.629 71.3943 69.1582C71.3753 72.6649 74.2089 75.5679 77.6579 75.5775C81.2226 75.5887 84.034 72.7612 84.0356 69.1662ZM46.0847 24.3467C41.9111 24.3467 37.7391 24.3451 33.5655 24.3483C32.7108 24.3499 32.1939 24.8108 32.1717 25.5638C32.1495 26.3345 32.6886 26.8579 33.5417 26.8884C33.6606 26.8933 33.7796 26.89 33.8969 26.89C42.0047 26.89 50.114 26.89 58.2218 26.89C58.42 26.89 58.6515 26.9495 58.8085 26.866C59.1748 26.6701 59.6315 26.4806 59.8265 26.1531C60.3339 25.3021 59.6648 24.3516 58.6023 24.3499C54.4303 24.3435 50.2583 24.3467 46.0847 24.3467ZM76.5035 34.6019C76.5035 38.8712 76.5035 43.0908 76.5035 47.3506C77.328 47.3506 78.1288 47.3506 78.9566 47.3506C78.9566 43.0924 78.9566 38.86 78.9566 34.6019C78.1399 34.6019 77.355 34.6019 76.5035 34.6019ZM87.7985 53.7891C87.8017 51.9956 86.614 50.39 84.9458 50.1074C83.8517 49.9212 82.7195 49.9677 81.5698 49.9083C81.5698 51.2699 81.5698 52.5191 81.5698 53.7891C83.6566 53.7891 85.7054 53.7891 87.7985 53.7891Z" fill="black"/>
<path d="M43.5047 58.9356C46.3384 58.9275 48.5964 61.1995 48.6012 64.0623C48.6059 66.8963 46.359 69.1875 43.5729 69.1923C40.7329 69.1955 38.4732 66.9284 38.4701 64.072C38.4669 61.2445 40.7218 58.9436 43.5047 58.9356ZM46.0514 64.0736C46.0466 62.6542 44.9128 61.5014 43.5301 61.5062C42.1616 61.511 40.9945 62.7056 41.0104 64.0864C41.0262 65.4881 42.1838 66.6265 43.576 66.6105C44.9493 66.596 46.0561 65.4608 46.0514 64.0736Z" fill="black"/>
<path d="M71.3801 55.1127C70.9852 55.1127 70.5888 55.1272 70.1939 55.1095C69.3979 55.0742 68.8604 54.5315 68.8667 53.7945C68.873 53.08 69.3963 52.5373 70.1606 52.5116C70.99 52.4843 71.8209 52.4827 72.6502 52.5132C73.4129 52.5421 73.9235 53.1009 73.9172 53.8202C73.9109 54.5363 73.3892 55.0645 72.6233 55.1063C72.211 55.1304 71.7955 55.1127 71.3801 55.1127Z" fill="black"/>
<path d="M71.4087 60.2038C70.9346 60.2038 70.4573 60.2408 69.9879 60.1958C69.2886 60.1284 68.8478 59.5857 68.8684 58.8936C68.889 58.2128 69.3869 57.683 70.0751 57.6669C70.9631 57.6461 71.8543 57.6445 72.7423 57.6685C73.4035 57.6878 73.8824 58.2048 73.9157 58.8631C73.9506 59.5616 73.5224 60.1187 72.8279 60.191C72.3585 60.2392 71.8812 60.2006 71.4087 60.2006C71.4087 60.2006 71.4087 60.2022 71.4087 60.2038Z" fill="black"/>
<path d="M77.745 65.3496C79.854 65.3577 81.5317 67.0741 81.5238 69.216C81.5158 71.3499 79.8191 73.0422 77.699 73.0358C75.6043 73.0294 73.8902 71.2808 73.9044 69.1678C73.9203 67.0468 75.6344 65.3416 77.745 65.3496ZM77.7418 67.9347C77.0441 67.9267 76.5002 68.4565 76.486 69.1598C76.4717 69.8936 77.0172 70.4555 77.7371 70.4491C78.4158 70.4427 78.9835 69.8727 78.985 69.1935C78.9866 68.5175 78.4205 67.9427 77.7418 67.9347Z" fill="black"/>
</svg>
