<svg width="120" height="100" viewBox="0 0 120 100" fill="none" xmlns="http://www.w3.org/2000/svg">
<rect width="120" height="100" fill="white"/>
<path d="M64.865 66.2892C64.865 68.857 64.865 71.4976 64.865 74.2337C65.8047 74.2337 66.746 74.1819 67.6792 74.2514C68.3714 74.3032 69.0959 74.4018 69.7267 74.6686C71.7775 75.5354 72.7932 77.5098 72.5506 80.0016C64.1954 80.0016 55.837 80.0016 47.4802 80.0016C47.0047 76.8387 49.2075 74.245 52.3597 74.2353C53.2654 74.232 54.1712 74.2353 55.1205 74.2353C55.1205 71.5332 55.1205 68.8635 55.1205 66.2795C53.4078 65.8186 51.7241 65.3658 50.0405 64.9131C49.9822 64.8969 49.9256 64.8775 49.869 64.8565C48.3973 64.3067 48.3843 64.3067 48.394 62.7608C48.3956 62.3857 48.2857 62.1819 47.9444 62.0202C46.9255 61.5383 45.9114 61.0419 44.92 60.505C44.7275 60.4016 44.5302 60.0975 44.527 59.8841C44.4979 57.8272 44.4979 55.7688 44.527 53.7119C44.5302 53.5001 44.7356 53.2009 44.9297 53.0958C45.9033 52.5686 46.8964 52.0771 47.8991 51.6065C48.2533 51.44 48.4248 51.2524 48.394 50.8352C48.3439 50.135 48.5962 49.2828 48.2776 48.767C47.9606 48.2512 47.1018 48.0684 46.4791 47.7418C45.8386 47.4055 44.9523 47.2244 44.624 46.6956C44.2957 46.1668 44.514 45.2936 44.5108 44.5708C44.5043 43.1187 44.5189 41.665 44.5011 40.2129C44.4962 39.8652 44.5933 39.668 44.9184 39.5143C45.9195 39.0422 46.898 38.5199 47.8991 38.0477C48.2533 37.8811 48.4215 37.6919 48.3924 37.2747C48.3423 36.5746 48.593 35.7224 48.276 35.2066C47.959 34.6907 47.1018 34.5048 46.4759 34.183C45.9567 33.9162 45.4117 33.693 44.9167 33.3874C44.7259 33.2694 44.5302 32.9783 44.527 32.7648C44.4979 30.7274 44.5173 28.6899 44.5011 26.6525C44.4979 26.3048 44.5965 26.1091 44.92 25.9555C45.9211 25.4817 46.8996 24.9594 47.9007 24.4889C48.2565 24.3223 48.3989 24.1283 48.394 23.7159C48.3746 22.1911 48.3876 22.1797 49.8254 21.6542C53.8914 20.1698 58.1029 19.8124 62.3872 20.0792C65.072 20.2458 67.7018 20.7147 70.2281 21.672C71.6174 22.1991 71.6384 22.1959 71.6109 23.6464C71.6012 24.0975 71.7484 24.3223 72.1527 24.5083C73.1393 24.9627 74.0968 25.4817 75.0785 25.9474C75.3971 26.0994 75.5071 26.287 75.5055 26.6411C75.4877 28.6786 75.486 30.7161 75.5071 32.7535C75.5103 33.1206 75.3728 33.2888 75.0639 33.4359C74.0838 33.9048 73.1247 34.4207 72.1382 34.8767C71.7613 35.0513 71.5786 35.247 71.6141 35.6868C71.6691 36.3838 71.4346 37.2246 71.7484 37.7469C72.0492 38.2466 72.8967 38.4148 73.5016 38.7317C74.1582 39.0761 75.0558 39.2718 75.4003 39.8151C75.7303 40.3358 75.4941 41.2203 75.4957 41.9464C75.5006 43.358 75.4763 44.7713 75.5087 46.183C75.52 46.639 75.3615 46.8573 74.9588 47.0432C73.9722 47.4976 73.0164 48.0199 72.033 48.4824C71.7079 48.636 71.598 48.8301 71.6158 49.1777C71.6562 49.8973 71.4233 50.7608 71.7468 51.2993C72.0557 51.8135 72.9274 51.9865 73.5501 52.3132C74.1889 52.6479 75.0607 52.8387 75.3971 53.3675C75.7189 53.8736 75.4925 54.7339 75.4941 55.4373C75.499 56.8894 75.478 58.3431 75.5071 59.7952C75.5152 60.2043 75.3777 60.3999 75.017 60.5697C73.9965 61.0484 72.9889 61.5545 71.9975 62.0897C71.8195 62.1851 71.6465 62.4649 71.6384 62.667C71.5689 64.3212 71.598 64.3795 69.992 64.8872C68.3326 65.4144 66.6295 65.8138 64.865 66.2892ZM50.3381 23.4329C50.3381 36.6926 50.3381 49.797 50.3381 62.9791C56.7977 65.0732 63.2347 65.0845 69.6944 62.9759C69.6944 62.6282 69.6944 62.3873 69.6944 62.1463C69.6944 49.6645 69.6944 37.181 69.6944 24.6991C69.6944 23.4992 69.696 23.496 68.5121 23.1451C64.0887 21.8337 59.5892 21.6267 55.0542 22.3366C53.4563 22.5872 51.8956 23.0643 50.3381 23.4329ZM57.1422 66.4282C57.1422 69.0236 57.1422 71.6124 57.1422 74.1835C59.0895 74.1835 60.9915 74.1835 62.8821 74.1835C62.8821 71.5591 62.8821 68.9831 62.8821 66.4282C60.9591 66.4282 59.0701 66.4282 57.1422 66.4282ZM70.4254 78.0854C69.958 76.8387 68.9439 76.1692 67.5708 76.1676C64.404 76.1628 61.2357 76.166 58.0689 76.166C56.1524 76.166 54.2358 76.1563 52.3193 76.1692C51.0044 76.1789 49.8626 77.0036 49.6329 78.0854C56.5503 78.0854 63.4611 78.0854 70.4254 78.0854ZM48.3439 32.9201C48.3439 30.7274 48.3439 28.6252 48.3439 26.4568C47.7455 26.7511 47.1956 26.9969 46.678 27.296C46.5503 27.3704 46.4581 27.6146 46.4548 27.7828C46.437 29.0521 46.437 30.3231 46.4548 31.5941C46.4565 31.7623 46.5486 32.0065 46.678 32.0808C47.1972 32.3784 47.7455 32.6242 48.3439 32.9201ZM71.6513 32.9362C72.2675 32.6306 72.811 32.38 73.3334 32.0857C73.4531 32.0178 73.5549 31.8059 73.5582 31.6588C73.576 30.3522 73.5744 29.0457 73.5598 27.7375C73.5582 27.5855 73.4725 27.364 73.3544 27.2993C72.8174 26.9985 72.2578 26.7414 71.653 26.4422C71.6513 28.6301 71.6513 30.7355 71.6513 32.9362ZM48.3584 40.0108C47.7519 40.3083 47.1875 40.5638 46.6489 40.8629C46.5341 40.9276 46.4565 41.1556 46.4548 41.3092C46.4403 42.5996 46.4403 43.89 46.4548 45.1804C46.4565 45.334 46.5357 45.5604 46.6505 45.6251C47.1891 45.9259 47.7536 46.1814 48.3584 46.4773C48.3584 44.2959 48.3584 42.1921 48.3584 40.0108ZM71.6481 39.9914C71.6481 42.1921 71.6481 44.2975 71.6481 46.4983C72.2708 46.1878 72.8449 45.9162 73.3997 45.6089C73.5 45.5523 73.5582 45.3421 73.5598 45.2031C73.5711 43.8965 73.576 42.5899 73.5549 41.2834C73.5517 41.1265 73.4207 40.905 73.2849 40.8274C72.7851 40.5363 72.2562 40.2954 71.6481 39.9914ZM48.3374 60.028C48.3374 57.8305 48.3374 55.7316 48.3374 53.5696C47.7536 53.859 47.2231 54.1 46.7201 54.3878C46.5842 54.4654 46.4597 54.6902 46.4565 54.8487C46.4354 56.1585 46.437 57.4699 46.4548 58.7797C46.4565 58.9252 46.5664 59.1338 46.6877 59.2001C47.2101 59.4928 47.7568 59.7418 48.3374 60.028ZM71.661 53.5599C71.661 55.7688 71.661 57.8677 71.661 60.0474C72.2546 59.7515 72.7997 59.5041 73.3156 59.2049C73.4466 59.1289 73.5533 58.8929 73.5549 58.7295C73.5744 57.4424 73.5727 56.1552 73.5566 54.8697C73.5549 54.7161 73.4805 54.4864 73.3657 54.4218C72.832 54.1178 72.2692 53.8607 71.661 53.5599Z" fill="black"/>
<path d="M88.1514 53.8366C87.8861 54.4737 87.6565 55.0267 87.3993 55.6428C83.5112 54.0323 79.6571 52.4346 75.7561 50.8192C76.0052 50.2161 76.2381 49.6485 76.5017 49.0098C80.3882 50.6203 84.2374 52.2147 88.1514 53.8366Z" fill="black"/>
<path d="M31.8923 32.6568C32.1463 32.0472 32.3808 31.4796 32.6428 30.8506C36.5389 32.4644 40.3914 34.062 44.2892 35.6758C44.0353 36.2854 43.7992 36.853 43.5372 37.482C39.6394 35.8682 35.7853 34.2706 31.8923 32.6568Z" fill="black"/>
<path d="M88.14 32.6496C84.2212 34.2731 80.4011 35.8578 76.4984 37.4749C76.2445 36.8733 76.0003 36.2944 75.7383 35.6719C79.615 34.0645 83.4562 32.4718 87.388 30.8418C87.6387 31.4433 87.8796 32.0206 88.14 32.6496Z" fill="black"/>
<path d="M32.6492 55.6477C32.3889 55.0252 32.1576 54.4754 31.8923 53.8447C35.7642 52.239 39.6151 50.6414 43.5388 49.0146C43.7862 49.6049 44.0224 50.1692 44.2941 50.8193C40.4238 52.4234 36.5745 54.0194 32.6492 55.6477Z" fill="black"/>
<path d="M30 44.1715C30 43.5425 30 42.9604 30 42.3281C34.1598 42.3281 38.318 42.3281 42.523 42.3281C42.523 42.9103 42.523 43.5199 42.523 44.1715C38.373 44.1715 34.2164 44.1715 30 44.1715Z" fill="black"/>
<path d="M90 42.3213C90 42.9552 90 43.5518 90 44.1793C85.8159 44.1793 81.6577 44.1793 77.4705 44.1793C77.4705 43.5567 77.4705 42.9616 77.4705 42.3213C81.6319 42.3213 85.7884 42.3213 90 42.3213Z" fill="black"/>
<path d="M59.9774 35.4941C56.7751 35.4876 54.1938 32.8891 54.197 29.6728C54.2003 26.4403 56.8074 23.866 60.0647 23.879C63.259 23.8919 65.8241 26.5018 65.8144 29.7294C65.8047 32.9295 63.2007 35.5006 59.9774 35.4941ZM63.8784 29.6873C63.8784 27.5949 62.1333 25.8356 60.0372 25.8145C57.9266 25.7935 56.1346 27.5706 56.133 29.6857C56.1314 31.7749 57.8813 33.5375 59.9742 33.5601C62.0832 33.5812 63.8784 31.8008 63.8784 29.6873Z" fill="black"/>
<path d="M59.9871 49.0517C56.7815 49.0469 54.1954 46.4531 54.197 43.2401C54.1986 40.0044 56.7993 37.4252 60.055 37.4366C63.2525 37.4479 65.8208 40.0529 65.8144 43.2773C65.8079 46.479 63.2072 49.0566 59.9871 49.0517ZM63.8784 43.2207C63.8622 41.125 62.1074 39.377 60.013 39.3721C57.8991 39.3673 56.1184 41.1541 56.133 43.266C56.1475 45.3568 57.9088 47.1113 59.9984 47.1161C62.1107 47.1226 63.8946 45.3309 63.8784 43.2207Z" fill="black"/>
<path d="M54.197 56.7686C54.2035 53.5668 56.8042 50.9893 60.0227 50.9941C63.2574 50.9974 65.8273 53.604 65.8144 56.864C65.8014 60.056 63.1878 62.6206 59.9596 62.6093C56.7637 62.598 54.1906 59.9913 54.197 56.7686ZM63.8784 56.8284C63.8978 54.7408 62.164 52.9685 60.0647 52.9281C57.959 52.8877 56.1524 54.6535 56.133 56.7718C56.1136 58.8788 57.8975 60.6753 60.0081 60.6737C62.0977 60.6721 63.859 58.9225 63.8784 56.8284Z" fill="black"/>
</svg>
