<svg width="120" height="100" viewBox="0 0 120 100" fill="none" xmlns="http://www.w3.org/2000/svg">
<rect width="120" height="100" fill="white"/>
<path d="M18.9465 24.3209C19.0408 24.1031 19.1372 23.8874 19.2314 23.6697C19.9233 22.0718 21.1163 21.1769 22.8642 21.0756C23.1833 21.0562 23.5046 21.0605 23.8259 21.0605C40.7944 21.0626 57.7629 21.0928 74.7292 21.0411C79.238 21.0281 82.5987 22.8373 85.0663 26.6217C89.6822 33.6988 94.3944 40.7134 99.0467 47.7689C102.307 52.7134 101.531 58.7619 97.1554 62.5463C95.2041 64.2347 92.9058 65.08 90.3354 65.1597C89.8299 65.1748 89.3244 65.1619 88.9325 65.1619C88.382 66.5571 87.8594 67.8789 87.3174 69.2503C87.9043 69.2503 88.5641 69.2503 89.2216 69.2503C91.6527 69.2503 94.086 69.246 96.5171 69.2525C99.3702 69.2589 101.049 70.9517 101.045 73.8131C101.045 74.404 101.088 75.0099 100.981 75.5835C100.623 77.5069 99.0532 78.8266 97.0954 78.9172C96.7484 78.9323 96.4014 78.9301 96.0544 78.9301C72.0582 78.9301 48.062 78.9107 24.0658 78.9581C21.5426 78.9603 19.7819 78.1452 18.9465 75.6676C18.9465 74.5916 18.9465 73.5156 18.9465 72.4374C19.8954 69.8864 21.8253 69.2007 24.3785 69.218C35.0882 69.2891 45.798 69.2482 56.5077 69.2482C56.8054 69.2482 57.1032 69.2482 57.3259 69.2482C56.8761 68.1333 56.3085 67.1544 56.1072 66.1042C55.9401 65.2287 55.5909 65.1468 54.8541 65.149C43.5039 65.1705 32.1516 65.1576 20.8015 65.177C19.9661 65.1792 19.3449 64.9549 18.9465 64.2023C18.9465 50.9107 18.9465 37.6168 18.9465 24.3209ZM25.7751 49.9748C25.7751 49.5759 25.7751 49.2589 25.7751 48.9398C25.7751 43.4497 25.7665 37.9619 25.7793 32.4718C25.7858 29.6017 27.4779 27.9198 30.3288 27.9155C33.1883 27.909 36.0478 27.9133 38.9073 27.9155C41.9425 27.9176 43.611 29.5996 43.611 32.6594C43.6132 38.0956 43.611 43.5295 43.611 48.9657C43.611 49.2805 43.611 49.5975 43.611 49.9985C44.0009 49.9985 44.3136 49.9985 44.6285 49.9985C54.5692 49.9985 64.51 49.9985 74.4508 49.9985C74.7185 49.9985 74.9884 49.9791 75.2519 50.0136C75.9159 50.0977 76.4064 50.6692 76.4214 51.3419C76.4364 52.0492 75.9351 52.6465 75.2304 52.7285C74.9391 52.7608 74.6436 52.7457 74.3501 52.7457C64.435 52.7457 54.5221 52.7457 44.607 52.7457C44.2965 52.7457 43.9837 52.7457 43.6132 52.7457C43.6132 53.1144 43.6153 53.3797 43.6132 53.6449C43.5982 56.5905 41.9596 58.253 39.0487 58.2573C36.0821 58.2638 33.1155 58.2724 30.1489 58.2552C27.4672 58.2401 25.8265 56.5797 25.7772 53.8735C25.7708 53.5112 25.7772 53.1489 25.7772 52.7996C24.3378 52.7996 23.0398 52.7996 21.7396 52.7996C21.7396 56.0126 21.7396 59.1694 21.7396 62.3953C22.1402 62.3953 22.4829 62.3953 22.8256 62.3953C36.534 62.3953 50.2425 62.3953 63.9531 62.3953C72.5573 62.3953 81.1636 62.4039 89.7678 62.391C92.8737 62.3867 95.3712 61.1446 97.044 58.4643C98.1236 56.7328 98.5455 54.8352 98.1493 52.7457C94.8442 52.7457 91.6142 52.7457 88.3841 52.7457C86.2465 52.7457 84.1088 52.7565 81.9711 52.7392C80.9473 52.7306 80.2769 51.8638 80.5874 50.9624C80.8402 50.2293 81.4035 49.9878 82.1596 49.9921C86.8355 50.0093 91.5135 50.0007 96.1894 49.9985C96.4678 49.9985 96.7484 49.9748 97.1683 49.9554C96.3757 48.75 95.6325 47.6783 94.9578 46.5613C94.6365 46.0309 94.2595 45.8735 93.6597 45.8756C87.1654 45.8972 80.6731 45.895 74.1787 45.8864C71.2443 45.8821 69.5928 44.2303 69.5843 41.3063C69.5757 38.3457 69.5736 35.3872 69.5864 32.4265C69.5993 29.6061 71.285 27.9241 74.0952 27.9176C76.6077 27.9112 79.1181 27.9176 81.6306 27.9133C81.9005 27.9133 82.1703 27.8875 82.5645 27.8659C80.7867 25.1942 78.4562 23.8379 75.4254 23.8357C58.1634 23.8228 40.8993 23.8292 23.6353 23.8292C22.108 23.8292 21.6904 24.2519 21.6882 25.7915C21.6882 33.5672 21.6882 41.343 21.6882 49.1209C21.6882 49.4034 21.6882 49.6837 21.6882 49.9748C23.0891 49.9748 24.3699 49.9748 25.7751 49.9748ZM59.9177 76.1614C72.0239 76.1614 84.1302 76.1614 96.2365 76.1614C96.5042 76.1614 96.8127 76.2433 97.029 76.1377C97.436 75.9371 97.9522 75.7085 98.1364 75.3463C99.0339 73.5889 98.1064 72.0773 96.198 72.0773C72.0646 72.0773 47.9335 72.0773 23.8002 72.0773C23.5067 72.0773 23.1962 72.0277 22.922 72.1053C22.605 72.1937 22.2044 72.3188 22.0374 72.5646C21.4462 73.4315 21.5511 74.4298 21.8532 75.3506C22.1123 76.142 22.8663 76.1678 23.5967 76.1678C35.7051 76.1592 47.8114 76.1614 59.9177 76.1614ZM28.551 43.0508C28.551 46.6282 28.5489 50.2055 28.5532 53.7808C28.5553 55.0163 29.018 55.4886 30.2389 55.4907C33.2033 55.495 36.1678 55.495 39.1322 55.4907C40.3253 55.4886 40.8029 55.0357 40.8029 53.8541C40.8094 46.6993 40.8094 39.5468 40.8029 32.392C40.8029 31.1759 40.366 30.7446 39.1601 30.7403C36.1956 30.7338 33.2312 30.7338 30.2667 30.7403C28.9644 30.7424 28.551 31.1672 28.551 32.4805C28.5489 36.0061 28.551 39.5274 28.551 43.0508ZM92.5352 43.0745C92.456 42.8848 92.4367 42.8072 92.3939 42.7446C89.8342 38.874 87.281 34.9991 84.6957 31.1457C84.5436 30.9214 84.1367 30.7597 83.8453 30.7575C80.5575 30.7317 77.2717 30.736 73.9838 30.7424C72.7908 30.7446 72.3388 31.2039 72.3367 32.3942C72.3324 35.3268 72.3345 38.2594 72.3345 41.1942C72.3345 42.6691 72.7265 43.0724 74.1638 43.0745C77.6915 43.0767 81.2193 43.0745 84.7471 43.0745C87.311 43.0745 89.8771 43.0745 92.5352 43.0745ZM68.0442 65.2201C64.917 65.2201 61.8433 65.2201 58.7589 65.2201C59.2301 67.8099 61.1964 69.3646 63.7796 69.2374C65.9387 69.1317 67.8493 67.3527 68.0442 65.2201ZM76.5627 65.2007C76.9097 67.7387 79.0367 69.3969 81.6863 69.2266C83.779 69.0929 85.7645 67.1673 85.8052 65.2007C82.7251 65.2007 79.6471 65.2007 76.5627 65.2007ZM75.0205 69.218C74.5943 67.9673 74.1873 66.7382 73.7482 65.522C73.6947 65.3711 73.4698 65.1899 73.3177 65.1835C72.523 65.149 71.7284 65.1684 71.1543 65.1684C70.576 66.6196 70.0576 67.9199 69.5393 69.2201C71.3578 69.218 73.2491 69.218 75.0205 69.218Z" fill="black"/>
<path d="M65.4675 36.9121C65.4675 38.4992 65.4846 40.0863 65.4632 41.6733C65.4289 44 63.9424 45.7423 61.6377 45.8243C58.277 45.9429 54.9034 45.9472 51.5427 45.8286C49.1887 45.7445 47.6744 43.9289 47.6679 41.5375C47.6594 38.4431 47.6594 35.3488 47.6679 32.2566C47.6765 29.7617 49.3943 27.959 51.8747 27.9267C54.9998 27.8857 58.127 27.8879 61.2521 27.9245C63.7539 27.9547 65.4375 29.7035 65.4654 32.2307C65.4825 33.7898 65.4675 35.3509 65.4675 36.9121ZM56.5313 43.0749C58.1056 43.0749 59.6821 43.0857 61.2564 43.0706C62.1775 43.062 62.7172 42.5531 62.7237 41.6324C62.7408 38.4884 62.7408 35.3423 62.7258 32.1984C62.7215 31.2625 62.2053 30.7515 61.2779 30.7472C58.1549 30.7321 55.0319 30.7342 51.909 30.7472C50.9687 30.7515 50.4503 31.2259 50.4417 32.179C50.4139 35.3229 50.4139 38.469 50.4396 41.6129C50.4482 42.6049 50.9751 43.0642 51.9668 43.0706C53.4876 43.0836 55.0084 43.0749 56.5313 43.0749Z" fill="black"/>
<path d="M34.6834 36.2431C34.0151 36.2431 33.3468 36.269 32.6785 36.2366C31.841 36.1957 31.2927 35.6415 31.2756 34.8803C31.2563 34.0932 31.7489 33.4959 32.6014 33.4657C33.9894 33.414 35.3795 33.4161 36.7675 33.4657C37.5943 33.4959 38.1426 34.1407 38.1148 34.8803C38.087 35.6242 37.5129 36.1957 36.6861 36.2366C36.0221 36.269 35.3517 36.2431 34.6834 36.2431Z" fill="black"/>
<path d="M34.6578 41.7462C33.9895 41.7462 33.3212 41.7699 32.655 41.7397C31.824 41.7031 31.2842 41.1424 31.2756 40.3683C31.2671 39.5748 31.7747 39.0119 32.625 38.9882C33.9873 38.9537 35.3496 38.9559 36.7119 38.9861C37.543 39.0055 38.1084 39.592 38.1127 40.3403C38.1191 41.1208 37.5258 41.7117 36.6605 41.744C35.9943 41.7656 35.326 41.7462 34.6578 41.7462Z" fill="black"/>
</svg>
