<svg width="120" height="100" viewBox="0 0 120 100" fill="none" xmlns="http://www.w3.org/2000/svg">
<rect width="120" height="100" fill="white"/>
<path d="M67.9317 13.7714C68.3645 14.1174 68.7746 14.4879 68.5837 15.1212C68.3853 15.7772 67.8618 15.8925 67.2495 15.9265C65.6015 16.0211 64.1368 16.5882 62.8858 17.6941C62.1298 18.3615 61.7651 18.335 60.9789 17.6733C58.7507 15.7942 56.2523 15.3953 53.5914 16.5164C50.9531 17.628 49.4866 19.6942 49.3014 22.5639C49.2504 23.3674 49.4224 24.2049 49.6057 25.0007C49.857 26.0896 49.7323 26.4261 48.691 26.8345C45.7277 27.9933 44.0117 30.6513 44.1534 33.8651C44.2781 36.6913 46.3646 39.355 49.1578 40.1414C51.5333 40.8106 53.7275 40.372 55.6703 38.82C56.5887 38.0846 56.8061 38.0808 57.7378 38.8408C60.463 41.0602 64.4109 40.9373 67.0076 38.5893C67.5783 38.0732 68.5043 37.7953 68.8086 37.1791C69.111 36.5666 68.7424 35.6591 68.8294 34.9011C69.2622 31.1353 72.817 27.6795 77.6569 28.4584C76.9199 27.6587 76.0751 27.188 75.1623 26.825C74.1569 26.4243 73.9793 26.0745 74.2835 25.0423C75.1548 22.0875 74.1739 19.146 71.6869 17.2593C71.016 16.7508 70.8478 16.1685 71.2163 15.6335C71.6037 15.0702 72.2689 15.004 72.9455 15.5239C75.9164 17.8075 77.1127 20.819 76.6137 24.5281C76.5835 24.7474 76.695 25.1236 76.8538 25.2087C78.6642 26.1615 80.0193 27.5547 80.9642 29.3582C81.6616 29.0917 82.3192 28.7798 83.0072 28.5869C87.9529 27.2088 92.9384 31.6173 92.1862 36.6705C92.1541 36.8879 92.258 37.2603 92.4187 37.3549C94.456 38.544 95.6995 40.2775 96.1285 42.5971C96.1398 42.6633 96.1946 42.72 96.2305 42.7824C96.2305 43.4894 96.2305 44.1983 96.2305 44.9054C96.1228 45.2872 96.0264 45.6748 95.9055 46.0529C94.5183 50.4085 89.3117 52.4842 85.3166 50.2553C84.9424 50.0474 84.691 50.0342 84.3055 50.2383C82.0055 51.4577 79.6621 51.4955 77.3319 50.3291C76.9482 50.1362 76.7196 50.1552 76.4058 50.4217C74.2552 52.2441 72.3275 54.2631 70.6909 56.5695C68.9182 59.0668 68.5818 61.772 69.2319 64.7079C70.6172 70.9766 71.9514 77.2549 73.3065 83.5293C73.3462 83.7108 73.4029 83.8885 73.4633 84.1078C75.4382 84.1078 77.3924 84.1021 79.3484 84.1096C80.1138 84.1134 80.5579 84.5274 80.5352 85.1948C80.5144 85.7714 80.195 86.1079 79.6413 86.2099C79.4353 86.2478 79.218 86.2232 79.0063 86.2232C67.2854 86.2232 55.5663 86.2232 43.8454 86.2213C43.5657 86.2213 43.2614 86.2459 43.01 86.1513C42.4866 85.9547 42.2333 85.5275 42.341 84.9698C42.4488 84.4216 42.8154 84.1115 43.3899 84.1096C45.1343 84.104 46.8805 84.1059 48.6248 84.1059C49.4715 84.1059 50.3182 84.1059 51.1894 84.1059C52.1589 80.7257 53.117 77.3834 54.0752 74.043C54.7102 71.8292 56.0766 65.4811 56.7267 63.2711C56.9875 62.3826 58.0364 62.3429 58.6884 62.7815C59.2156 63.1369 58.2102 67.4491 58.0383 68.0389C56.6246 72.9163 55.228 77.8012 53.8295 82.6824C53.701 83.1304 53.5876 83.5803 53.4534 84.0756C59.3895 84.0756 65.2538 84.0756 71.2163 84.0756C70.9952 82.9281 70.8005 81.8052 70.5605 80.6936C69.4228 75.4551 68.3191 70.2072 67.1115 64.9839C66.1798 60.9534 67.1285 57.4334 69.7025 54.2858C70.5359 53.2668 71.4072 52.28 72.2576 51.2838C71.4034 51.1004 70.4849 51.0493 69.7044 50.6958C68.854 50.3121 68.2964 50.4482 67.686 51.0701C66.5653 52.2139 65.3879 53.3028 64.2616 54.4389C63.5132 55.1932 63.1919 55.2556 62.3112 54.6582C61.2 53.9058 60.0888 53.1477 58.9813 52.3916C58.008 51.7261 57.9154 51.3386 58.4975 50.2724C59.724 48.0303 60.6293 45.6653 61.217 43.1775C61.2586 42.9979 61.2775 42.8126 61.3115 42.6103C60.7823 42.374 60.4478 42.4497 60.1303 42.962C58.7961 45.1171 57.1784 47.0472 55.3433 48.7959C54.6667 49.4406 54.3379 49.4954 53.5234 49.0662C52.3762 48.4651 51.2196 47.8828 50.0951 47.242C49.4564 46.879 48.8592 46.6011 48.1335 47C47.918 47.1191 47.6421 47.1304 47.2868 47.2155C48.7722 48.3951 50.1613 49.5559 51.6089 50.6353C54.1017 52.4974 56.1994 54.6847 57.5526 57.5242C58.4143 59.3352 58.9 61.237 58.8603 63.2541C58.8471 63.9593 58.4087 64.4149 57.7945 64.4205C57.1803 64.4262 56.7418 63.9876 56.7286 63.2674C56.6549 59.2029 54.7518 56.0477 51.7431 53.5258C48.8176 51.0739 45.7825 48.7505 42.7946 46.3723C42.7039 46.3005 42.6056 46.24 42.5187 46.1795C40.007 47.5444 37.5275 47.5936 35.0329 46.172C34.8496 46.068 34.466 46.1814 34.2411 46.31C30.3498 48.535 25.2812 46.4877 24.0415 42.1774C23.1797 39.1773 24.41 35.9956 27.1106 34.3453C27.5188 34.0957 27.6436 33.8651 27.5812 33.3963C27.1087 29.8384 29.7697 26.377 33.3509 25.7985C35.0594 25.5225 36.6318 25.825 38.0926 26.7135C38.4385 26.9233 38.6671 26.9498 39.0319 26.7305C40.8934 25.6189 42.8664 25.411 44.9434 26.0726C45.1985 26.1539 45.5595 26.0688 45.8146 25.9422C46.3192 25.6945 46.7822 25.3656 47.3057 25.0442C47.2509 24.4052 47.1507 23.7341 47.1432 23.0611C47.0959 18.5656 50.3106 14.7072 54.7348 13.9151C54.8935 13.8867 55.0428 13.8187 55.1978 13.7695C55.9991 13.7695 56.8023 13.7695 57.6036 13.7695C59.0607 14.1344 60.4818 14.5805 61.7065 15.5031C61.8048 15.5768 62.0467 15.5919 62.1374 15.522C63.3979 14.5673 64.8777 14.1495 66.3744 13.7714C66.8942 13.7714 67.412 13.7714 67.9317 13.7714ZM88.8072 49.0266C89.9278 49.0114 90.9465 48.7487 91.8347 48.1153C93.4449 46.9678 94.163 45.3553 94.0383 43.4138C93.9041 41.2851 92.7589 39.8257 90.8104 38.992C89.7124 38.5213 89.6557 38.2642 89.8693 37.0959C90.0242 36.2395 90.1017 35.2886 89.8938 34.4606C88.9376 30.6494 84.5417 29.2543 81.4953 31.7459C81.0682 32.0956 80.6448 32.3868 80.0968 32.1315C79.8057 31.9954 79.5676 31.744 79.3049 31.5474C77.4887 30.1881 75.0678 30.1314 73.2328 31.4075C71.3656 32.7043 70.534 35.0391 71.1709 37.1961C71.4733 38.2226 71.307 38.5477 70.2695 38.9674C68.1358 39.8276 66.7222 41.9978 66.9622 44.1397C67.1909 46.1814 68.1679 47.7599 70.0975 48.588C72.0422 49.4217 73.8715 49.1003 75.5327 47.8015C76.3151 47.189 76.6175 47.189 77.3905 47.8091C79.3654 49.3933 81.8524 49.4425 83.92 47.9414C84.6287 47.4253 84.9783 47.4197 85.6908 47.9471C86.6281 48.6447 87.6732 49.0114 88.8072 49.0266ZM50.5582 42.599C46.9788 42.2209 44.3896 40.4666 42.8872 37.2755C41.3753 34.0655 41.7382 30.9424 43.7169 27.9706C42.0991 27.7154 40.7441 28.0066 39.5554 28.9839C38.7087 29.6796 38.4574 29.6702 37.5918 28.9783C35.8626 27.5982 33.6873 27.4735 31.875 28.6512C30.0588 29.8309 29.2953 31.8744 29.8679 34.0144C30.1495 35.0674 29.9927 35.3888 28.9778 35.8104C27.0634 36.6025 26.005 38.0506 25.9597 40.1017C25.9162 42.0621 26.7402 43.6539 28.5469 44.5462C30.3725 45.4479 32.1547 45.2513 33.7894 44.0074C34.6682 43.3382 34.8609 43.3287 35.7511 44.0282C37.4217 45.3383 39.7765 45.4309 41.4906 44.2531C42.5792 43.5064 42.5792 43.5064 43.7131 44.2721C45.9941 45.8071 49.2844 45.0471 50.5582 42.599ZM62.9897 52.5239C64.2843 51.3064 65.5486 50.1173 66.8318 48.9093C65.1196 47.0113 64.5148 44.7806 64.9684 42.0942C64.3806 42.512 63.5869 42.1434 63.4055 43.1208C62.9311 45.6502 62.0315 48.0435 60.8844 50.3442C60.7937 50.5238 60.7332 50.7185 60.6614 50.9C60.7786 51.0002 60.8447 51.0682 60.9222 51.1212C61.6006 51.5825 62.2829 52.0437 62.9897 52.5239ZM51.3292 45.463C51.5333 45.5746 51.8149 45.7428 52.1097 45.8865C52.7977 46.2249 53.5555 46.9036 54.164 46.7882C54.7858 46.671 55.3017 45.809 55.7893 45.2135C56.6889 44.1114 57.5337 42.9657 58.4087 41.8277C57.8379 41.478 57.4089 41.1868 56.9535 40.9524C56.8079 40.8768 56.5642 40.8957 56.4035 40.9638C55.3754 41.408 54.3549 41.8712 53.34 42.3438C53.1889 42.4137 53.0301 42.5366 52.9451 42.6765C52.4083 43.5783 51.8924 44.4876 51.3292 45.463Z" fill="black"/>
<path d="M66.3516 14.896C70.2111 14.5858 71.648 15.8967 72.9047 16.8959" stroke="black" stroke-width="2.4"/>
</svg>
