<svg width="120" height="100" viewBox="0 0 120 100" fill="none" xmlns="http://www.w3.org/2000/svg">
<rect width="120" height="100" fill="white"/>
<path d="M41.5458 79.107C38.4009 77.9271 36.0916 75.926 35.1564 72.5495C35.1007 72.3506 34.9741 72.1262 34.8121 72.0089C31.8292 69.8599 31.5338 66.8558 32.2107 63.583C32.3795 62.7652 32.837 62.0138 33.0852 61.2079C33.1831 60.8866 33.1966 60.4225 33.0362 60.1521C31.365 57.3401 31.4967 54.4329 32.5568 51.4899C32.7577 50.9306 32.7796 50.5684 32.4234 50.038C30.4889 47.1682 30.948 43.5078 33.5426 40.8011C34.1638 40.1517 34.8492 39.56 35.5346 38.9786C36.2149 38.3988 36.1727 37.2445 35.386 36.799C32.2428 35.0173 29.6043 32.7017 27.7559 29.5479C27.4875 29.0889 27.2579 28.5924 27.1077 28.0841C26.9085 27.4108 27.4537 26.5642 28.3079 26.1408C29.6567 25.4727 31.0848 25.5152 32.5146 25.7413C35.4789 26.2088 38.433 25.9181 41.7062 25.7719C40.4182 23.5005 39.2467 21.4247 38.0633 19.3539C37.9097 19.0853 37.6902 18.8574 37.513 18.6024C37.0589 17.9479 37.1652 17.3052 37.6312 16.7255C38.0836 16.161 38.6845 16.0063 39.3716 16.2647C43.2052 17.7064 47.049 19.1278 50.8708 20.6001C53.673 21.6797 56.2591 23.1316 58.3439 25.4251C59.0647 23.6892 59.7518 22.0248 60.4473 20.3655C61.661 17.4769 63.3558 14.8808 65.2887 12.4394C65.6162 12.0263 66.0483 11.6829 66.4771 11.3717C67.1017 10.9195 67.7769 10.8464 68.4319 11.3394C69.8026 12.3714 71.1987 13.3711 72.5255 14.4575C73.4185 15.1885 73.4658 16.1474 72.6116 16.9567C70.6213 18.837 69.0818 21.0523 67.6689 23.3747C67.5119 23.6331 67.36 23.8933 67.2047 24.1534C67.2553 24.2027 67.3043 24.252 67.3549 24.2996C68.0403 23.679 68.7256 23.0585 69.4093 22.4362C70.3259 21.6015 71.2442 20.7701 72.1575 19.9319C72.6825 19.4508 73.275 19.2859 73.9469 19.5477C74.639 19.818 74.9057 20.3978 74.9361 21.0931C75.0407 23.4903 75.1268 25.8892 75.2281 28.4785C76.4689 28.4785 77.8109 28.4122 79.1461 28.4904C83.839 28.7676 88.1082 30.466 92.2102 32.632C92.5968 32.836 92.8618 33.5296 92.926 34.0295C93.0137 34.7078 92.5411 35.189 91.8962 35.41C90.1693 36.0033 88.4374 36.5797 86.7088 37.1662C86.4994 37.2376 86.2969 37.3244 85.966 37.4519C86.5011 37.7902 86.9603 38.0469 87.3823 38.3529C88.9894 39.5209 88.8999 40.8181 87.1629 41.7158C87.0126 41.794 86.8624 41.8722 86.7104 41.9453C85.5288 42.5098 84.2712 42.9892 84.5193 44.7319C84.5649 45.0532 84.3893 45.5037 84.1614 45.7519C83.4271 46.551 83.6618 47.3603 83.9285 48.2461C84.3336 49.5977 84.3471 50.968 83.996 52.3553C83.9167 52.6664 84.0517 53.117 84.2391 53.4009C85.3887 55.1333 86.096 56.9746 85.6183 59.0827C85.1236 61.2657 83.736 62.7822 81.8302 63.8227C81.3322 64.0948 81.1145 64.2648 81.187 64.9329C81.4976 67.8062 80.7178 70.3054 78.4456 72.2265C78.2245 72.4135 78.0489 72.7689 78.0219 73.0613C77.7011 76.5432 75.77 78.8129 72.4327 79.6306C72.1474 79.7003 71.8435 79.9316 71.6679 80.1747C70.1706 82.2454 68.2682 83.9133 65.7225 84.1105C64.0091 84.2431 63.2984 85.0932 62.4122 86.2918C59.9949 89.5611 55.7274 89.9012 52.7007 87.1758C52.2685 86.7865 51.909 86.7219 51.3637 86.8494C47.2785 87.81 42.8997 85.3431 41.8784 81.4974C41.6775 80.7408 41.6572 79.9384 41.5458 79.107ZM55.3425 33.1607C54.9036 32.632 54.5964 32.1933 54.2216 31.8244C53.3978 31.0151 52.5167 30.262 51.7131 29.4323C51.546 29.2606 51.6169 28.8543 51.5781 28.555C51.8634 28.6009 52.2415 28.5431 52.4171 28.7064C53.7253 29.9339 54.9931 31.2039 56.2777 32.4671C57.721 31.1325 57.9455 28.9971 56.7858 27.2476C55.4083 25.1684 53.354 23.9902 51.1409 23.1333C47.947 21.8973 44.6907 20.8279 41.458 19.6939C41.3449 19.6548 41.2082 19.6888 40.982 19.6888C42.243 22.1829 43.4297 24.6124 44.6907 27.0028C46.0142 29.5105 48.0365 31.3161 50.5636 32.53C52.0119 33.227 53.5059 33.817 55.3425 33.1607ZM58.2258 40.9967C58.2258 42.3211 58.663 43.8138 59.3787 44.9291C60.5165 46.6989 62.3751 47.5099 64.129 46.9999C65.6618 46.5544 67.4005 44.0977 67.3583 42.4214C67.3245 41.0086 67.5676 39.6722 68.312 38.4413C68.4268 38.2526 68.4302 37.8905 68.3289 37.6899C67.6267 36.3043 66.5379 35.3794 64.9815 35.1329C61.5226 34.5854 58.2258 37.457 58.2258 40.9967ZM72.9846 22.6777C72.8715 22.6539 72.7601 22.6301 72.647 22.6062C72.5542 22.6607 72.4495 22.7032 72.3685 22.7746C72.0933 23.016 71.8199 23.2591 71.5582 23.5141C68.6767 26.316 65.7276 28.9767 61.6458 29.9424C60.4 30.2365 59.2386 30.9114 58.3996 31.9672C57.8831 32.6184 57.4239 33.3154 56.9394 33.9938C57.6349 34.4868 58.3777 35.0105 59.063 35.4967C60.1164 35.1159 60.1282 34.3355 59.9476 33.4769C59.924 33.3664 59.8463 33.2389 59.8784 33.1505C59.9662 32.9142 60.0995 32.6932 60.2143 32.4671C60.4405 32.6235 60.7764 32.7323 60.8693 32.9465C61.0162 33.2882 61.0026 33.7031 61.0617 34.1145C61.9615 34.089 61.634 33.4939 61.6813 33.0434C61.71 32.7714 61.9497 32.5232 62.0948 32.2647C62.2907 32.4654 62.5304 32.6388 62.6688 32.8734C62.7886 33.0757 62.792 33.3477 62.8562 33.6351C64.7384 33.4616 66.4231 33.9088 67.8596 35.0785C68.3104 35.4457 68.6378 35.3607 69.0531 35.1227C71.1295 33.9258 72.3162 32.059 72.5981 29.7417C72.8817 27.4074 72.8682 25.034 72.9846 22.6777ZM89.3084 33.7167C89.3253 33.7422 89.305 33.6776 89.2628 33.6555C84.5429 31.2073 79.5091 30.3776 74.2524 30.7397C74.0532 30.7533 73.7443 30.9454 73.697 31.1154C73.1636 33.0247 72.1187 34.582 70.6483 35.9166C70.9252 35.8061 71.2003 35.6973 71.4772 35.5868C72.0765 35.3488 72.6605 35.0564 73.2801 34.8983C73.5181 34.8371 73.8321 35.0819 74.1123 35.1856C73.935 35.4202 73.7983 35.716 73.5687 35.8724C73.2936 36.0578 72.9391 36.1224 72.62 36.2397C74.8685 36.4947 76.7389 37.2785 77.9662 39.2778C78.3511 39.1231 78.7106 39.0296 79.0195 38.8477C80.3261 38.0809 81.5685 37.1883 82.9241 36.5287C85.0072 35.512 87.1662 34.65 89.3084 33.7167ZM52.8965 47.7598C54.6858 47.8023 57.0002 45.7962 57.2433 43.9821C57.2602 43.8512 57.2163 43.705 57.1825 43.5724C56.5984 41.3112 56.8398 39.1554 57.9641 37.0999C58.0569 36.9299 58.0671 36.5865 57.959 36.4488C56.7402 34.9017 54.4056 34.5786 52.7986 35.7041C49.8714 37.7528 48.5463 42.2412 49.917 45.5462C50.464 46.8638 51.3637 47.7598 52.8965 47.7598ZM37.5349 35.3369C39.0424 33.4412 40.9955 32.9414 43.2288 33.2015C43.423 33.2236 43.7116 33.176 43.8214 33.0451C44.4527 32.2936 45.0435 31.5082 45.6529 30.7278C45.2984 30.2756 44.6299 29.5445 44.1134 28.7183C43.7656 28.1623 43.4061 27.9362 42.7697 28.0059C38.6491 28.4547 34.5318 28.3306 30.418 27.909C30.1985 27.8869 29.8018 27.9906 29.7664 28.1147C29.7039 28.3408 29.785 28.6689 29.92 28.8798C31.7853 31.7904 34.4289 33.7745 37.5349 35.3369ZM54.2672 62.9285C51.6895 63.4028 51.4278 65.2662 51.5258 67.342C51.5325 67.4831 51.5291 67.6259 51.5393 67.7671C51.7705 70.8851 54.122 72.7485 56.9276 72.0089C58.7997 71.5159 59.929 70.166 60.8997 68.5712C61.5124 67.563 60.6549 66.8235 60.7764 65.9224C57.3024 66.6144 56.2929 66.1298 54.2672 62.9285ZM68.7256 42.2293C68.6784 42.2412 68.6311 42.2531 68.5855 42.2667C68.8505 43.3854 69.0058 44.5483 69.4059 45.6159C70.1689 47.6544 72.988 48.3209 74.4178 46.8043C75.5202 45.6346 76.3929 44.2847 76.7238 42.6458C77.2673 39.9613 76.241 38.4022 73.567 37.8956C70.9421 37.3992 69.1156 38.659 68.778 41.2126C68.7341 41.5492 68.7425 41.8909 68.7256 42.2293ZM47.157 63.4742C46.4497 64.2937 45.815 65.2747 44.9507 65.9615C44.083 66.6518 43.7437 67.4746 43.6542 68.4794C43.5918 69.1799 43.558 69.8939 43.6188 70.5927C43.6981 71.4887 44.0661 72.2656 44.8021 72.8488C47.1536 74.7138 49.8816 73.1004 50.9282 71.0823C51.016 70.914 50.913 70.6029 50.8218 70.3921C50.1111 68.7582 50.0217 67.0615 50.2715 65.324C50.3188 64.9992 50.3796 64.6762 50.4167 64.4586C49.2823 64.1169 48.2475 63.804 47.157 63.4742ZM53.2628 53.6185C51.86 54.3003 51.7942 54.302 50.1787 54.2067C49.9778 54.1948 49.6756 54.3121 49.5726 54.4703C48.4112 56.2639 47.0861 57.8807 45.0621 58.8668C45.2647 59.2256 45.4284 59.5503 45.6225 59.8546C47.6786 63.0407 50.4251 63.6374 53.4856 61.5428C53.7135 61.3864 53.9363 61.0277 53.938 60.7625C53.9566 58.8634 54.5035 57.1582 55.6413 55.6808C54.8412 54.9854 54.0596 54.3088 53.2628 53.6185ZM72.247 51.9898C73.3864 53.2802 75.1657 54.2577 76.8993 54.5111C78.8389 54.7933 80.8275 53.8446 81.5196 52.2805C82.286 50.548 82.0007 48.8819 81.209 47.2209C79.6931 47.5592 78.27 47.3518 76.852 46.9097C76.6191 46.8366 76.2494 46.9846 76.0249 47.1461C75.2838 47.6816 74.5799 48.2699 73.8675 48.8428C73.7274 48.955 73.5535 49.0672 73.4826 49.2202C73.0707 50.1043 72.6842 51.002 72.247 51.9898ZM54.4698 52.697C55.5485 54.1353 57.1876 55.0925 59.3348 54.8426C61.4365 54.5978 62.8595 53.3618 63.707 51.4389C63.8167 51.189 63.9939 50.8031 63.891 50.6501C63.3204 49.7983 63.2343 48.5249 61.8366 48.3566C61.2862 48.2903 60.7207 47.957 60.2582 47.6119C59.4648 47.0203 58.7474 46.3232 58.0975 45.7588C57.2517 46.6411 56.379 47.5439 55.5215 48.4603C55.4016 48.5895 55.3307 48.7867 55.2902 48.9652C55.0252 50.1264 54.777 51.2927 54.4698 52.697ZM55.194 60.4718C55.5282 61.5088 55.6987 62.4116 56.1005 63.1954C56.8618 64.6864 58.4992 65.2049 59.9982 64.4705C61.953 63.5116 63.0739 61.8795 63.4284 59.739C63.4808 59.4194 63.2951 58.9858 63.0841 58.7087C62.4882 57.9266 61.7944 57.2177 61.1934 56.439C60.9199 56.0837 60.7039 55.9596 60.2295 56.0412C59.4344 56.1789 58.6022 56.269 57.8071 56.1823C57.1116 56.1058 56.6812 56.3472 56.4617 56.9015C55.9874 58.0916 55.5991 59.3157 55.194 60.4718ZM46.8143 32.0233C45.6445 32.7884 44.3801 34.4681 43.7572 36.0322C43.1917 37.4519 43.3403 38.8018 44.0172 40.1211C44.7836 41.6138 46.2049 42.2888 47.5638 41.7736C47.8103 41.6801 48.0416 41.3656 48.1428 41.0987C48.5429 40.048 48.7421 38.8902 49.2924 37.9347C50.0099 36.6885 50.9906 35.5936 51.7385 34.5939C50.2479 33.8153 48.5936 32.9516 46.8143 32.0233ZM37.697 40.388C36.0224 41.1871 34.3394 42.9671 33.8262 44.5721C33.6152 45.2283 33.443 45.9696 33.5291 46.636C33.887 49.409 36.171 51.1567 38.958 50.8881C39.1656 50.8677 39.4475 50.8133 39.5539 50.6705C40.0974 49.936 40.5937 49.1658 41.1019 48.4161C40.7997 48.1491 40.5397 47.9349 40.2983 47.702C38.9192 46.381 38.0346 44.7999 38.5647 42.8668C38.8483 41.8314 38.5208 41.25 37.854 40.6498C37.7746 40.575 37.7358 40.4543 37.697 40.388ZM46.3045 49.4328C45.0807 49.3392 43.953 49.2304 42.822 49.1845C42.5907 49.1743 42.2447 49.3375 42.1299 49.528C41.4125 50.7249 40.6123 51.8997 40.0958 53.185C39.5522 54.5383 40.008 55.8066 41.1339 56.7536C42.3679 57.7923 43.9108 58.0287 45.1769 57.1718C46.0868 56.5563 46.8818 55.7216 47.5908 54.8681C48.5885 53.6678 48.521 53.6321 47.6685 52.3978C47.3832 51.9847 47.157 51.5222 46.9511 51.0615C46.6894 50.4766 46.475 49.8697 46.3045 49.4328ZM62.1944 55.5499C62.7161 56.2027 63.2866 57.0443 63.9855 57.7583C65.471 59.2766 67.3937 59.4942 69.3114 58.4622C70.986 57.5611 71.9549 55.5669 71.6392 53.678C71.5177 52.9486 71.0889 52.7038 70.3968 52.9894C68.648 53.7103 67.0561 53.3499 65.5605 52.2941C65.39 52.1734 65.211 52.0663 65.1908 52.0527C64.2016 53.2088 63.2782 54.285 62.1944 55.5499ZM55.0809 79.2736C54.5609 79.6544 54.1288 80.0166 53.6561 80.3107C52.1318 81.2611 52.1233 81.2543 52.6517 83.0207C52.7243 83.2638 52.8036 83.5052 52.9015 83.7399C53.7253 85.7154 55.4252 86.8154 57.3851 86.6488C59.3247 86.4856 61.3065 84.7923 61.7471 82.9238C61.8653 82.4206 60.7477 81.0519 60.2515 81.1455C58.1954 81.5331 56.4769 80.9754 55.0809 79.2736ZM64.7266 60.1878C64.6202 61.5956 64.1121 63.1155 62.895 64.1985C61.8906 65.091 62.0341 66.0703 62.3075 67.1091C62.5878 68.1734 63.6546 68.8398 64.7147 68.5712C65.3714 68.4046 66.0517 68.1071 66.5767 67.6872C68.3374 66.2777 69.1493 64.3192 69.4718 62.1294C69.5511 61.5871 68.6649 60.3629 68.2361 60.3459C67.0831 60.2983 65.9302 60.2422 64.7266 60.1878ZM42.4219 40.2588C41.951 40.5631 41.5458 40.7705 41.2031 41.0545C40.4519 41.6784 39.77 42.3874 39.8105 43.4551C39.8729 45.0804 40.4705 46.4286 41.9932 47.2039C43.6559 48.0522 45.371 48.4552 46.9899 47.2192C47.5723 46.7754 48.1175 46.041 48.2762 45.3456C48.4298 44.6758 48.0618 43.8852 47.9234 43.1439C45.3592 43.603 43.6441 42.486 42.4219 40.2588ZM38.8128 52.5032C37.5079 52.1853 36.2723 51.8861 34.9623 51.5664C34.0761 53.5267 33.6253 55.6043 34.3462 57.8025C34.7851 59.1405 36.1777 60.0977 37.6582 60.1317C39.0627 60.164 40.1548 59.4755 40.6326 58.2565C38.6508 56.0293 38.4262 55.3101 38.8128 52.5032ZM66.9852 13.9729C63.1482 18.4732 61.4567 23.9222 59.3753 29.3252C60.3055 28.9699 61.06 28.6825 61.6931 28.4411C61.6931 27.8852 61.6931 27.4023 61.6931 26.9195C62.029 27.0011 62.3649 27.0844 62.9068 27.217C62.7583 26.8328 62.5776 26.486 62.4983 26.1153C62.4493 25.8841 62.4865 25.5645 62.6198 25.3894C62.6924 25.2942 63.0655 25.3758 63.2697 25.4608C63.3812 25.5084 63.4217 25.7277 63.4639 25.811C65.5183 22.6675 67.4798 19.665 69.4515 16.6507C68.2074 16.2715 67.5997 15.1834 66.9852 13.9729ZM55.2379 73.874C55.2868 74.6016 55.253 75.5656 55.4387 76.4837C55.6936 77.7554 56.2625 78.8656 57.5049 79.5184C59.7484 80.6983 62.4021 78.8435 63.3305 77.0158C63.3913 76.8968 63.339 76.6945 63.29 76.5483C63.1178 76.0467 62.9439 75.5435 62.7279 75.059C62.6502 74.8838 62.478 74.7138 62.3075 74.622C61.2829 74.0627 60.2515 73.5186 59.2116 72.9916C59.0208 72.8947 58.7558 72.8148 58.5651 72.8675C57.5235 73.1565 56.4972 73.488 55.2379 73.874ZM35.6055 61.3949C34.6146 62.9829 33.9714 64.6881 34.1351 66.6382C34.3039 68.6613 35.7017 70.4006 37.5518 70.761C39.1471 71.0721 40.6106 70.5485 41.7805 69.5539C42.2498 69.1544 42.2177 68.1581 42.3983 67.4916C41.6606 67.308 41.0343 67.24 40.4823 67.0003C38.6305 66.1927 37.6936 64.5946 37.2074 62.7397C36.9694 61.837 36.5896 61.3524 35.6055 61.3949ZM46.183 75.0641C46.4261 76.0467 46.5577 76.9121 46.8565 77.7129C47.574 79.6272 49.5524 80.5606 51.4532 79.821C52.3512 79.4725 53.1632 78.8724 53.965 78.3164C54.1575 78.1838 54.2537 77.7622 54.2301 77.4885C54.1693 76.788 53.83 76.0671 53.9363 75.4075C54.2047 73.7515 53.5633 72.7587 52.0727 72.2027C52.0457 72.1925 52.0187 72.1857 51.963 72.1704C50.5787 73.9981 48.8822 75.2732 46.183 75.0641ZM69.7587 59.8495C70.5386 60.703 71.148 61.4867 71.8756 62.1379C73.3543 63.4623 74.8331 63.3025 76.1194 61.7911C77.6184 60.028 77.48 58.01 77.1171 56.0752C75.7312 55.5941 74.4482 55.1486 73.1298 54.6913C72.9289 56.8896 71.9971 58.6985 69.7587 59.8495ZM45.9517 62.6105C45.2157 61.5224 44.6401 60.3902 43.7893 59.5333C43.3892 59.1303 42.4624 59.2596 41.7737 59.1474C40.9888 60.4548 39.7463 61.1229 38.3722 61.5616C38.4718 62.7431 39.1538 64.2733 39.8983 65.0247C40.9145 66.0516 42.0944 66.2029 43.3436 65.4957C44.5726 64.8003 45.263 63.6391 45.9517 62.6105ZM68.9738 70.0673C67.1641 73.908 67.0797 73.9913 64.1425 74.8413C64.1847 75.0012 64.2033 75.1729 64.2725 75.3225C65.0034 76.9274 67.3971 77.5429 69.0177 76.5568C70.2314 75.8172 71.0062 74.7036 71.7692 73.5322C72.5795 72.2877 72.5677 71.169 71.7304 70.069C70.8138 70.0673 69.9242 70.0673 68.9738 70.0673ZM77.4766 62.7822C76.7221 63.2855 75.9878 63.7768 75.2501 64.2699C75.4999 66.1774 75.0239 67.8249 73.5029 69.1068C73.3527 69.2343 73.2531 69.5284 73.2699 69.7341C73.3797 71.0177 74.4685 71.5788 75.8426 71.0721C77.3483 70.5162 78.2582 69.406 78.7292 67.8878C79.396 65.7575 78.8896 63.7292 77.4766 62.7822ZM51.5646 84.3451C51.3131 83.3777 51.0717 82.458 50.8235 81.4991C48.2424 81.7014 46.5814 80.3838 45.5314 78.1787C43.9108 78.5119 43.7741 78.7075 43.948 80.3328C44.2856 83.4865 48.4686 85.7222 51.5646 84.3451ZM45.0942 76.6962C45.0418 76.181 45.0081 75.6489 44.927 75.1253C44.8865 74.8668 44.8308 74.5064 44.6553 74.3908C43.4213 73.5849 42.557 72.507 42.2362 71.2438C40.6376 71.7216 39.1336 72.1704 37.621 72.6227C38.2794 75.3446 42.5232 78.1073 45.0942 76.6962ZM64.3788 48.4586C65.2651 50.6739 66.9768 52.0816 68.5821 51.9745C70.2972 51.8605 71.5177 50.8507 71.9988 49.0706C69.9427 48.7187 68.6378 47.4249 67.8309 45.4374C66.9278 46.7958 65.9589 47.9587 64.3788 48.4586ZM78.5334 56.0956C78.8659 57.7141 78.8052 59.3871 78.2751 61.0447C78.2126 61.2385 78.3663 61.6823 78.5182 61.7367C79.0466 61.9271 79.6863 62.2212 80.1607 62.075C81.8707 61.5462 82.9443 60.2592 83.3832 58.5557C83.8053 56.9134 83.0828 55.5465 82.1594 54.4873C80.9153 55.0364 79.7792 55.5414 78.5334 56.0956ZM77.4024 45.57C78.2565 45.9866 79.3588 46.1379 80.4882 45.9917C81.3744 45.8778 81.9399 45.3133 82.232 44.4683C82.7249 43.0402 82.1189 41.9776 81.1735 40.9644C80.3531 40.0854 79.4905 40.014 78.4946 40.5529C78.422 40.592 78.3443 40.6192 78.4895 40.5563C78.1164 42.2752 77.7754 43.8495 77.4024 45.57ZM49.1658 47.141C47.4085 48.7102 47.3461 49.1743 48.5395 51.2927C49.2958 52.6341 50.4336 53.1731 51.6777 52.7786C52.937 52.3791 53.9279 50.7283 53.8199 49.1369C51.9393 49.346 50.3255 48.8428 49.1658 47.141ZM62.1792 80.819C62.6907 81.5773 63.7238 82.1485 64.9696 82.0091C67.2063 81.7592 68.7712 80.4365 70.0541 78.4218C68.1399 78.279 66.3893 78.1481 65.0051 78.0427C64.0496 78.9812 63.155 79.8618 62.1792 80.819ZM68.388 68.3485C69.8364 68.8721 71.3742 68.9827 72.7483 67.898C73.8557 67.0224 74.0346 65.7762 73.8304 64.5589C72.7331 64.0727 71.7304 63.6272 70.9016 63.26C70.0795 64.9244 69.2506 66.6008 68.388 68.3485ZM60.1046 71.9239C61.4382 72.9644 62.8005 73.8315 64.5189 73.3044C66.3049 72.757 67.1371 71.334 67.5912 69.3975C67.1827 69.3975 66.8282 69.2989 66.5649 69.4145C65.0507 70.0826 63.5584 70.5672 62.1674 69.3414C61.4652 70.2204 60.8203 71.0279 60.1046 71.9239ZM42.5114 34.6075C40.7659 34.2726 39.1234 35.0564 38.4853 36.6358C37.9029 38.0775 38.3672 39.5209 39.7041 40.4577C40.3304 40.0242 40.9651 39.6127 41.5644 39.1537C41.7366 39.0228 41.8801 38.7712 41.9155 38.5536C42.1316 37.2632 42.3105 35.9676 42.5114 34.6075ZM75.6451 72.6312C75.1133 72.604 74.6407 72.553 74.1714 72.5683C73.9941 72.5734 73.746 72.6839 73.6565 72.8267C72.7264 74.3109 71.8216 75.8104 70.937 77.2623C73.3138 77.9118 75.8578 75.5588 75.6451 72.6312ZM81.5027 39.0908C81.4943 39.22 81.4858 39.3492 81.4774 39.4784C81.7103 39.5005 81.9467 39.5515 82.1779 39.5362C82.7502 39.4971 83.0085 39.6672 82.9021 40.3132C82.8599 40.5682 83.0811 40.8657 83.2009 41.2007C84.0787 40.7518 84.8181 40.371 85.782 39.878C84.1969 39.373 82.9106 38.7933 81.5027 39.0908ZM68.3509 13.8811C68.6598 15.095 69.3502 15.6459 70.4205 15.6476C69.6895 15.0236 69.021 14.4524 68.3509 13.8811Z" fill="black"/>
<path d="M50.0234 26.532C50.0234 26.9655 50.0807 27.3191 50.0014 27.6388C49.9541 27.8292 49.7161 28.0468 49.5237 28.0995C49.4123 28.1301 49.1017 27.87 49.0831 27.7153C48.9717 26.7887 48.894 25.857 48.8687 24.9253C48.8653 24.7621 49.1962 24.4374 49.3262 24.4612C49.5304 24.4986 49.809 24.74 49.8512 24.9389C49.9676 25.4881 49.9795 26.061 50.0234 26.532Z" fill="black"/>
<path d="M48.6796 25.1141C48.3809 25.3793 48.1918 25.5459 48.0044 25.7125C47.6938 25.2569 47.3478 24.8199 47.1047 24.332C47.0574 24.2368 47.4035 23.941 47.5689 23.7386C47.9149 24.1671 48.2627 24.5972 48.6796 25.1141Z" fill="black"/>
<path d="M50.8606 27.1166C51.0936 27.4736 51.3131 27.6725 51.3299 27.8867C51.3418 28.0279 50.9873 28.3475 50.918 28.3169C50.7053 28.22 50.4639 28.0177 50.4066 27.8085C50.3694 27.6691 50.6294 27.4498 50.8606 27.1166Z" fill="black"/>
<path d="M63.4672 41.9384C63.29 41.7922 63.0638 41.697 63.0317 41.5559C62.9895 41.3723 63.0385 41.034 63.1566 40.971C63.7913 40.631 64.4531 40.3335 65.1266 40.0802C65.2583 40.0309 65.5486 40.1992 65.6482 40.3471C65.7242 40.4593 65.6736 40.8095 65.574 40.8656C64.8987 41.2448 64.1948 41.5746 63.4672 41.9384Z" fill="black"/>
<path d="M65.0017 36.8705C65.3224 37.4163 65.6499 37.9603 65.9386 38.5231C65.947 38.5401 65.4288 38.8886 65.4035 38.8597C64.9916 38.3955 64.5831 37.9178 64.2657 37.3891C64.1847 37.253 64.4176 36.9266 64.5071 36.6886C64.6708 36.7481 64.8363 36.8093 65.0017 36.8705Z" fill="black"/>
<path d="M66.9818 38.6335C66.6408 38.1489 66.3927 37.8752 66.2576 37.5505C66.2222 37.4672 66.651 37.0694 66.6847 37.0915C66.9582 37.2768 67.2536 37.491 67.4055 37.7715C67.4697 37.8922 67.2097 38.1898 66.9818 38.6335Z" fill="black"/>
<path d="M67.2789 30.1582C67.4275 30.25 67.6486 30.3095 67.6824 30.4234C67.7381 30.6155 67.755 30.9437 67.6435 31.0372C66.7624 31.7716 65.8609 32.484 64.9274 33.1487C64.8008 33.2389 64.4598 33.0212 64.2184 32.9447C64.2893 32.7237 64.2944 32.4228 64.4429 32.2987C65.2414 31.6356 66.0753 31.0168 66.9008 30.3877C67.0088 30.3044 67.1337 30.2449 67.2789 30.1582Z" fill="black"/>
<path d="M69.2422 30.1974C68.8792 30.4524 68.6412 30.7568 68.4639 30.7245C67.657 30.5714 67.9322 29.7877 67.7752 29.2742C67.7347 29.1382 68.0909 28.8798 68.2664 28.6775C68.5602 29.1348 68.8539 29.5922 69.2422 30.1974Z" fill="black"/>
<path d="M70.8003 27.0707C70.6737 26.865 70.3901 26.5692 70.4475 26.4689C70.6905 26.0387 71.0349 25.6664 71.3405 25.2737C71.5008 25.4573 71.8334 25.7055 71.7946 25.8109C71.6241 26.2666 71.3438 26.6814 71.1024 27.1115C71.0012 27.0979 70.8999 27.0843 70.8003 27.0707Z" fill="black"/>
<path d="M69.4734 27.0216C69.6777 27.4364 69.941 27.8343 70.0541 28.2729C70.0896 28.4089 69.7199 28.652 69.5359 28.8459C69.2877 28.4514 68.994 28.0757 68.8218 27.6507C68.7695 27.5197 69.0514 27.2528 69.1814 27.0471C69.2776 27.0386 69.3755 27.0301 69.4734 27.0216Z" fill="black"/>
<path d="M67.6621 32.8325C67.9069 33.198 68.1382 33.397 68.1466 33.6044C68.1533 33.7574 67.8681 33.9223 67.7128 34.0804C67.544 33.8985 67.2975 33.7387 67.2367 33.5245C67.1996 33.3902 67.4393 33.1742 67.6621 32.8325Z" fill="black"/>
<path d="M76.3878 35.4746C76.008 35.7296 75.8088 35.8639 75.6079 35.9982C75.2787 35.427 74.9276 34.8676 74.6474 34.2726C74.6153 34.2029 74.9664 33.9496 75.1403 33.7812C75.5286 34.3066 75.9151 34.8319 76.3878 35.4746Z" fill="black"/>
<path d="M82.2893 34.3832C82.0547 34.0568 81.734 33.7983 81.7779 33.6419C82.0074 32.8122 82.7789 33.1217 83.3343 33.0333C83.5183 33.0044 83.9605 33.3631 83.9386 33.4702C83.7428 34.4053 82.8194 33.7643 82.2893 34.3832Z" fill="black"/>
<path d="M76.6089 33.1759C76.9921 33.8441 77.2909 34.2912 77.4901 34.7774C77.5273 34.8675 77.1761 35.1209 77.0056 35.2994C76.6832 34.8777 76.3253 34.4765 76.0637 34.0192C76.0097 33.9257 76.3101 33.6247 76.6089 33.1759Z" fill="black"/>
<path d="M78.7714 35.0173C78.5131 34.6586 78.2801 34.4648 78.2514 34.2455C78.2346 34.1095 78.5283 33.9344 78.6836 33.7762C78.8592 33.9531 79.1174 34.1027 79.1799 34.3135C79.2204 34.4512 78.9807 34.6739 78.7714 35.0173Z" fill="black"/>
<path d="M80.5236 35.7943C80.2215 36.0374 80.0121 36.3146 79.8906 36.2789C79.683 36.2193 79.4635 35.9898 79.3859 35.779C79.3504 35.6821 79.6509 35.3217 79.7775 35.3319C79.9902 35.3523 80.1877 35.5716 80.5236 35.7943Z" fill="black"/>
<path d="M78.6211 36.7582C78.2717 36.9656 78.0539 37.1951 77.9121 37.1543C77.7214 37.0999 77.4817 36.8466 77.4665 36.6613C77.453 36.5133 77.7619 36.1937 77.8953 36.209C78.1012 36.2362 78.2802 36.4844 78.6211 36.7582Z" fill="black"/>
<path d="M80.4932 34.6228C80.2907 34.2572 80.1067 34.0515 80.0797 33.8254C80.0661 33.7115 80.4088 33.4242 80.4645 33.4548C80.6755 33.5687 80.9153 33.7523 80.9794 33.9631C81.0182 34.0838 80.7397 34.3032 80.4932 34.6228Z" fill="black"/>
<path d="M54.7584 35.3761C54.8614 35.4764 55.1315 35.6175 55.1484 35.7858C55.1686 35.9762 55.0133 36.2687 54.8462 36.3809C54.2115 36.8076 53.5514 37.202 52.8745 37.5557C52.6939 37.6509 52.3461 37.6458 52.206 37.5285C52.0896 37.4299 52.071 37.0388 52.1723 36.8841C52.7412 36.0069 53.6173 35.5988 54.7584 35.3761Z" fill="black"/>
<path d="M51.2185 42.0763C51.1831 42.3178 51.205 42.6255 51.0818 42.8516C51.0092 42.9825 50.5348 43.0522 50.5264 43.0335C50.3728 42.6493 50.182 42.2515 50.1685 41.8502C50.1601 41.5799 50.3964 41.2875 50.5737 41.0444C50.5973 41.0121 51.0092 41.1617 51.097 41.313C51.2135 41.5085 51.1814 41.7907 51.2185 42.0763Z" fill="black"/>
<path d="M51.9883 39.5259C51.7266 39.1451 51.5122 38.9564 51.4785 38.7405C51.4582 38.6062 51.7131 38.4294 51.8448 38.2712C52.0305 38.4379 52.2904 38.5756 52.3732 38.7847C52.4238 38.9088 52.1976 39.1468 51.9883 39.5259Z" fill="black"/>
<path d="M51.7671 40.0617C51.4295 40.2538 51.1915 40.4833 51.0733 40.4323C50.8657 40.3439 50.7307 40.0821 50.5652 39.8934C50.7357 39.7437 50.9298 39.4547 51.07 39.4802C51.2776 39.5142 51.4447 39.7743 51.7671 40.0617Z" fill="black"/>
<path d="M36.5778 31.0509C36.252 31.1733 35.9566 31.3994 35.7219 31.3484C35.1834 31.2311 34.6584 31.0118 34.1655 30.7585C34.0051 30.6769 33.8718 30.3538 33.8954 30.1617C33.914 30.0155 34.2415 29.7656 34.3596 29.8013C35.0214 30.0002 35.6662 30.2603 36.3043 30.529C36.3972 30.5664 36.4292 30.7551 36.5778 31.0509Z" fill="black"/>
<path d="M41.2571 31.2362C40.9803 31.3093 40.6106 31.5303 40.4435 31.4266C39.9759 31.1342 39.5437 30.7466 39.1909 30.3198C38.8567 29.9152 39.2179 29.4443 39.5437 29.5905C40.192 29.8795 40.7288 30.4235 41.3112 30.8622C41.2943 30.9846 41.2757 31.1104 41.2571 31.2362Z" fill="black"/>
<path d="M37.5248 29.7843C38.0819 29.7707 38.963 30.8877 38.8719 31.3144C38.8668 31.3416 38.8702 31.3858 38.855 31.3943C38.6828 31.498 38.384 31.7123 38.3536 31.6783C37.9384 31.2243 37.5434 30.75 37.1973 30.2416C37.1568 30.1821 37.4421 29.8965 37.5248 29.7843Z" fill="black"/>
<path d="M75.7514 41.369C75.4661 42.435 75.2382 43.3887 74.9377 44.3187C74.8803 44.4972 74.5427 44.5856 74.3334 44.7149C74.2152 44.4938 73.9654 44.2507 73.9975 44.0552C74.1612 43.064 74.3722 42.0762 74.6322 41.1055C74.6828 40.9133 75.1319 40.6328 75.2078 40.6838C75.4408 40.8351 75.5775 41.1293 75.7514 41.369Z" fill="black"/>
<path d="M75.3615 39.9714C75.0323 40.172 74.7909 40.4168 74.6744 40.3658C74.4651 40.2757 74.33 40.0088 74.1629 39.8167C74.3334 39.6739 74.5242 39.3985 74.671 39.4206C74.877 39.4529 75.0492 39.7045 75.3615 39.9714Z" fill="black"/>
<path d="M74.0296 46.1363C73.7662 46.3675 73.5248 46.6413 73.4792 46.6124C73.2514 46.4627 73.0741 46.2315 72.8783 46.0309C73.0285 45.8881 73.2108 45.6076 73.3206 45.6348C73.5434 45.6858 73.7257 45.9051 74.0296 46.1363Z" fill="black"/>
<path d="M52.9184 58.8669C52.9268 60.1046 51.8076 61.5786 50.7712 61.8132C50.5787 61.8558 50.1786 61.7197 50.1567 61.6109C50.1145 61.3916 50.2006 61.0669 50.3559 60.9088C50.6057 60.6555 50.9839 60.533 51.2573 60.2967C51.811 59.8173 52.0305 59.2375 51.7857 58.481C51.6979 58.2107 51.86 57.8604 51.9072 57.5459C52.1875 57.7431 52.5318 57.8927 52.726 58.1546C52.8931 58.3824 52.888 58.7394 52.9184 58.8669Z" fill="black"/>
<path d="M80.873 51.3505C80.4915 51.8095 80.2214 52.1325 79.953 52.4556C79.791 52.2413 79.4686 52.0033 79.4956 51.818C79.5614 51.3675 79.4213 50.6789 80.1556 50.6534C80.3447 50.6466 80.5456 51.0172 80.873 51.3505Z" fill="black"/>
<path d="M55.9401 51.3234C56.173 51.0599 56.3199 50.7487 56.5056 50.7232C56.6896 50.6977 56.9816 50.917 57.1032 51.1075C57.3226 51.4526 57.4796 51.8487 57.6028 52.2415C57.6653 52.4404 57.6602 52.8382 57.5775 52.8705C57.3631 52.9555 56.9614 52.9878 56.8635 52.862C56.5191 52.4132 56.2692 51.8912 55.9401 51.3234Z" fill="black"/>
<path d="M58.6596 51.6038C59.0039 52.1427 59.4783 52.6425 59.6488 53.2325C59.7737 53.6626 59.2487 53.8513 58.9094 53.564C58.5363 53.2495 58.2224 52.8228 58.0063 52.3824C57.927 52.2209 58.1987 51.8843 58.3101 51.6276C58.4266 51.6208 58.5431 51.6123 58.6596 51.6038Z" fill="black"/>
<path d="M58.9449 64.5061C58.6359 64.1423 58.4773 63.9536 58.3169 63.7666C58.8554 63.3806 59.3871 62.9828 59.9493 62.6343C59.9915 62.6071 60.2514 62.9386 60.4118 63.1018C59.956 63.5387 59.5002 63.974 58.9449 64.5061Z" fill="black"/>
<path d="M42.7325 56.4713C42.4878 56.3115 41.9999 56.031 41.5644 55.6807C41.4614 55.5974 41.453 55.1928 41.5492 55.1078C41.7011 54.9735 42.0218 54.88 42.1991 54.9514C43.5479 55.4937 43.953 55.4189 44.9321 54.4243C45.2731 54.0775 45.631 53.3311 46.183 53.9211C46.7232 54.4991 45.9635 54.8307 45.6158 55.1673C44.9034 55.8575 44.1151 56.4305 42.7325 56.4713Z" fill="black"/>
<path d="M46.8801 52.561C47.13 52.9266 47.3629 53.1221 47.3714 53.3261C47.3781 53.4791 47.0945 53.644 46.9409 53.8038C46.7755 53.6236 46.5341 53.4655 46.4733 53.2547C46.4328 53.1204 46.6641 52.9079 46.8801 52.561Z" fill="black"/>
<path d="M55.3999 84.8176C55.1737 84.4453 54.9576 84.2379 54.9475 84.0203C54.9407 83.8809 55.3138 83.5748 55.3915 83.6105C55.5974 83.7091 55.8236 83.9319 55.8709 84.1427C55.9013 84.2838 55.6396 84.4912 55.3999 84.8176Z" fill="black"/>
<path d="M55.0623 81.8579C55.4185 81.6777 55.6649 81.4533 55.7966 81.5077C55.9958 81.5893 56.1697 81.8494 56.2389 82.0704C56.2625 82.1435 55.9046 82.4666 55.7797 82.436C55.5636 82.3833 55.3931 82.1435 55.0623 81.8579Z" fill="black"/>
<path d="M53.8722 82.8507C53.6105 82.4597 53.381 82.2624 53.3759 82.0584C53.3725 81.9037 53.6527 81.7405 53.8064 81.5807C53.96 81.7507 54.1963 81.9037 54.2402 82.0992C54.2756 82.2539 54.0748 82.4631 53.8722 82.8507Z" fill="black"/>
<path d="M65.6584 19.7858C65.8576 20.8246 65.1283 21.5114 64.6843 22.2969C64.6253 22.4023 64.2623 22.4176 64.0952 22.3462C63.9703 22.2918 63.8234 21.9789 63.8741 21.8684C64.1847 21.1816 64.5172 20.4981 64.9207 19.864C65.0034 19.7348 65.4187 19.8215 65.682 19.8096L65.6584 19.7858Z" fill="black"/>
<path d="M65.682 19.8078C65.5993 19.4627 65.4659 19.1209 65.4524 18.7741C65.444 18.5378 65.6043 18.2964 65.6887 18.0566C65.9183 18.1518 66.2019 18.1961 66.364 18.3593C66.5277 18.5242 66.6408 18.8064 66.656 19.0444C66.6763 19.3725 66.5851 19.7075 66.5412 20.039C66.2475 19.9557 65.9538 19.8724 65.6601 19.7874C65.6584 19.7857 65.682 19.8078 65.682 19.8078Z" fill="black"/>
<path d="M67.3059 18.7112C67.1084 18.5939 66.9295 18.5531 66.8907 18.4545C66.6915 17.9428 66.4197 17.4225 66.3842 16.8921C66.3539 16.4551 66.889 16.2307 67.1388 16.5691C67.4663 17.0128 67.598 17.6231 67.7313 18.1808C67.7634 18.31 67.4646 18.5208 67.3059 18.7112Z" fill="black"/>
<path d="M60.7899 75.1677C61.2677 75.569 61.6188 75.8631 61.9699 76.1572C61.7505 76.3119 61.4652 76.6417 61.3217 76.5873C60.8997 76.4275 60.5334 76.1181 60.1468 75.8665C60.3223 75.6761 60.4979 75.4857 60.7899 75.1677Z" fill="black"/>
<path d="M60.8338 78.5816C60.4034 78.2348 60.108 77.9968 59.8109 77.7587C60.0134 77.5734 60.2278 77.2198 60.4152 77.2351C60.8051 77.2657 61.4179 77.1756 61.4128 77.837C61.4128 78.041 61.109 78.2433 60.8338 78.5816Z" fill="black"/>
<path d="M35.2611 64.9005C35.7996 65.2983 36.252 65.635 36.7061 65.9699C36.5255 66.1331 36.2739 66.4697 36.176 66.4289C35.6527 66.213 35.1682 65.9019 34.6702 65.6248C34.8306 65.4293 34.9893 65.2354 35.2611 64.9005Z" fill="black"/>
<path d="M36.7483 64.02C36.3415 64.3516 36.095 64.6695 35.9735 64.627C35.624 64.5046 35.3235 64.2359 35.0045 64.0251C35.1665 63.8483 35.3522 63.5083 35.4873 63.527C35.8435 63.578 36.1811 63.7837 36.7483 64.02Z" fill="black"/>
<path d="M37.7071 68.2057C37.3779 68.3961 37.1365 68.6342 37.0116 68.5832C36.8074 68.5016 36.6217 68.2482 36.5508 68.0289C36.5254 67.949 36.8799 67.6124 37.0065 67.6413C37.2192 67.6906 37.3914 67.9354 37.7071 68.2057Z" fill="black"/>
<path d="M39.5285 68.3536C39.196 68.5644 38.9495 68.8228 38.8314 68.7735C38.6288 68.6885 38.4566 68.4267 38.3756 68.2023C38.3486 68.1258 38.6778 67.7976 38.7774 67.8248C39.0036 67.8877 39.1909 68.1003 39.5285 68.3536Z" fill="black"/>
<path d="M37.8287 70.2205C37.5619 69.8601 37.3273 69.673 37.2986 69.4588C37.28 69.3211 37.5636 69.1426 37.7122 68.9828C37.8844 69.1528 38.1359 69.299 38.2 69.503C38.2439 69.6407 38.0245 69.8635 37.8287 70.2205Z" fill="black"/>
<path d="M49.8731 78.5135C48.9818 78.5135 47.866 77.7944 47.5959 77.0446C47.5385 76.8865 47.6195 76.5482 47.7377 76.4836C47.9166 76.3867 48.2914 76.3612 48.3977 76.4768C48.9463 77.0701 49.4865 77.5921 50.393 77.5003C50.518 77.4884 50.7577 77.8318 50.7948 78.0375C50.8151 78.1497 50.545 78.3656 50.366 78.4523C50.2006 78.5322 49.9828 78.5033 49.8731 78.5135Z" fill="black"/>
<path d="M72.669 59.6438C72.934 60.0008 73.2919 60.414 73.5586 60.8798C73.6329 61.009 73.4894 61.4034 73.3425 61.4816C73.1838 61.5667 72.8074 61.502 72.6993 61.3643C72.4309 61.0192 72.2604 60.5976 72.1001 60.2949C71.7625 60.1708 71.4654 60.062 71.1666 59.9515C71.283 59.6608 71.3995 59.3701 71.5177 59.081C71.5278 59.0572 71.5531 59.0385 71.5717 59.0181C71.8789 58.6645 72.1997 58.1256 72.701 58.5081C72.8817 58.6458 72.6892 59.2783 72.669 59.6438Z" fill="black"/>
<path d="M81.7576 57.5527C81.6377 56.9814 81.4757 56.4136 81.42 55.8372C81.3947 55.5788 81.5871 55.3017 81.6816 55.0314C81.9264 55.1963 82.34 55.3238 82.3856 55.5329C82.5544 56.3167 82.6523 57.1259 82.6624 57.9284C82.6658 58.1664 82.291 58.4078 82.0901 58.6476C81.9399 58.3721 81.7829 58.1001 81.6462 57.8179C81.6158 57.755 81.6614 57.653 81.6715 57.5697C81.7002 57.5646 81.7289 57.5578 81.7576 57.5527Z" fill="black"/>
<path d="M81.4537 56.9984C81.1431 57.2976 80.949 57.483 80.7566 57.67C80.5557 57.3894 80.2738 57.1327 80.1877 56.8199C80.1489 56.6771 80.4915 56.4272 80.662 56.2249C80.8882 56.4459 81.1144 56.6686 81.4537 56.9984Z" fill="black"/>
<path d="M66.0635 70.4006C66.288 70.7526 66.5159 70.9583 66.5227 71.1708C66.5277 71.3153 66.2222 71.4683 66.0551 71.6179C65.8913 71.4275 65.6465 71.2575 65.5925 71.0399C65.5605 70.9107 65.8289 70.705 66.0635 70.4006Z" fill="black"/>
<path d="M64.8599 72.8352C64.6388 72.4612 64.4379 72.2554 64.4143 72.031C64.4008 71.8984 64.6692 71.7369 64.8093 71.5873C64.9899 71.7692 65.2499 71.9256 65.3224 72.1432C65.3647 72.269 65.0979 72.4952 64.8599 72.8352Z" fill="black"/>
</svg>
