<svg width="120" height="100" viewBox="0 0 120 100" fill="none" xmlns="http://www.w3.org/2000/svg">
<rect width="120" height="100" fill="white"/>
<path d="M12.0774 67.6675C12.2332 67.0228 12.3743 66.3757 12.545 65.7358C13.2798 62.9647 14.7767 60.6534 16.8352 58.6366C25.9723 49.681 35.0896 40.7035 44.2068 31.7261C44.9244 31.0181 45.6369 30.2931 46.2653 29.5121C48.6579 26.5367 49.8554 23.1233 49.9865 19.3449C50.0137 18.5372 50.1399 17.7976 50.9984 17.4813C51.8743 17.1578 52.5126 17.5932 53.1213 18.1942C57.0601 22.0893 61.0163 25.9698 64.9651 29.8527C65.0739 29.9598 65.1828 30.0668 65.2917 30.1763C65.7964 30.6799 65.9424 31.2881 65.6925 31.9329C65.4352 32.5922 64.8933 32.8914 64.1684 32.906C58.9232 33.0131 54.586 35.0543 50.9959 38.7888C49.0686 40.796 47.0348 42.7034 45.0481 44.6594C44.8328 44.8711 44.6299 45.0949 44.4543 45.2774C46.869 47.6544 49.2393 49.99 51.7431 52.4569C52.144 52.0069 52.5868 51.5446 52.9852 51.0459C53.1188 50.8804 53.2227 50.6128 53.1905 50.4133C53.0668 49.6323 53.4083 49.0898 53.9452 48.5667C56.882 45.7032 59.8015 42.8226 62.7235 39.9445C63.2876 39.3897 63.8418 38.9299 64.7523 39.1757C64.9601 39.2316 65.3238 38.9178 65.544 38.7037C72.0338 32.3367 78.5136 25.9625 84.9984 19.5882C87.4948 17.131 90.5083 15.8367 94.0315 15.7929C99.1729 15.7321 103.854 18.761 105.873 23.386C107.909 28.0451 106.957 33.4169 103.332 37.0469C98.965 41.4212 94.5264 45.7299 90.1199 50.0654C87.9377 52.2112 85.7505 54.3546 83.5832 56.515C83.3753 56.7243 83.1403 57.0722 83.1774 57.3203C83.2937 58.1427 82.9424 58.7047 82.3832 59.2472C79.4464 62.1108 76.5244 64.9889 73.6073 67.8719C73.0803 68.3925 72.541 68.7551 71.7319 68.6139C71.4944 68.5726 71.1455 68.7453 70.955 68.9278C69.7575 70.0664 68.5353 71.1904 67.4318 72.4142C66.8949 73.0102 66.6228 73.8301 66.1749 74.5113C65.6628 75.2899 65.1556 76.0927 64.5197 76.7739C63.3742 78.0026 62.1396 79.1533 60.9322 80.3284C59.8559 81.377 59.1038 81.3697 58.0176 80.3041C56.115 78.4405 54.2148 76.5744 52.3221 74.7011C51.2929 73.6841 51.3027 72.9324 52.3394 71.9008C53.1856 71.059 54.0812 70.261 54.8829 69.3803C56.1793 67.9571 57.6737 66.8403 59.4749 66.1032C59.9128 65.9231 60.3087 65.5947 60.66 65.2663C61.5755 64.4099 62.4513 63.5072 63.3544 62.6363C63.8987 62.1108 64.4381 61.6655 64.2847 60.7337C64.2154 60.3055 64.7028 59.7873 64.928 59.3324C64.1956 58.6001 63.4088 57.8094 62.5849 56.9846C62.006 57.5174 61.3676 58.0064 60.4126 57.6999C60.2543 57.6488 59.9302 58.0137 59.7174 58.2205C52.4235 65.3855 45.1347 72.5528 37.8458 79.7226C34.8174 82.7005 31.1606 84.226 26.8828 84.2065C19.6409 84.1773 13.3837 78.8395 12.258 71.8011C12.2308 71.6308 12.1392 71.4702 12.0749 71.3047C12.0774 70.0956 12.0774 68.8816 12.0774 67.6675ZM52.8912 22.5564C51.6838 27.5974 50.1448 30.3271 46.4262 33.9838C37.2198 43.0391 27.9887 52.0701 18.8145 61.1571C15.3828 64.5558 14.3783 68.665 15.9197 73.2097C18.6908 81.3843 29.1714 83.7199 35.4879 77.5719C42.8807 70.3802 50.2042 63.1204 57.555 55.8898C57.7034 55.7438 57.8222 55.5711 57.8766 55.5078C57.0824 54.6758 56.3253 53.8826 55.5336 53.053C55.2738 53.2939 55.0264 53.5128 54.7913 53.7415C50.0978 58.3519 45.4093 62.9647 40.7183 67.5775C38.0783 70.1734 35.4409 72.7742 32.796 75.3653C30.5569 77.5573 27.8897 78.4843 24.7822 77.7447C21.6548 77.0002 19.5766 75.0441 18.7106 71.9884C17.8323 68.884 18.6784 66.1713 20.9745 63.9111C30.5891 54.4422 40.2111 44.9806 49.8455 35.5311C52.3642 33.0617 55.3727 31.4001 58.8118 30.4999C59.3784 30.3515 59.9475 30.2055 60.5289 30.0571C57.9607 27.5366 55.4569 25.0745 52.8912 22.5564ZM80.8492 54.7293C81.0199 54.5711 81.1585 54.4519 81.2896 54.323C87.7719 47.9512 94.2517 41.5794 100.729 35.2027C101.033 34.9035 101.325 34.5872 101.598 34.2587C104.346 30.9208 104.47 26.196 101.899 22.7802C98.3119 18.0117 91.5945 17.586 87.1905 21.8922C80.7354 28.2032 74.31 34.5458 67.8747 40.8787C67.6867 41.0636 67.5234 41.2728 67.3997 41.4139C68.2285 42.2557 68.9955 43.0367 69.9109 43.9661C70.1287 43.6765 70.2994 43.3773 70.5369 43.1413C76.9029 36.8692 83.2764 30.6069 89.6498 24.3422C89.9987 23.9991 90.3426 23.6439 90.7335 23.352C92.698 21.8825 94.8431 21.6027 97.0797 22.6197C100.979 24.3884 101.763 29.2785 98.6409 32.3611C92.26 38.6623 85.8594 44.9392 79.4637 51.2235C79.1 51.5811 78.6992 51.8998 78.3058 52.2428C79.2187 53.1357 80.003 53.9021 80.8492 54.7293ZM80.0624 46.1752C80.2406 46.0121 80.3791 45.8929 80.5078 45.7664C85.7678 40.594 91.0279 35.4241 96.2855 30.2493C96.4587 30.079 96.6344 29.9014 96.7803 29.7092C97.488 28.7701 97.5943 27.7458 97.0723 26.7118C96.5453 25.6681 95.6422 25.1742 94.4447 25.1864C93.507 25.1937 92.8266 25.6511 92.1932 26.2739C86.9851 31.4098 81.7646 36.5359 76.5491 41.667C76.3611 41.8519 76.1928 42.0562 76.0592 42.2071C77.4052 43.5403 78.7066 44.8298 80.0624 46.1752ZM42.2523 47.759C39.3105 50.6493 36.4033 53.508 33.5704 56.2937C35.8516 58.5344 38.2194 60.8627 40.4882 63.0912C43.3508 60.2788 46.2653 57.4177 49.1651 54.5663C46.8765 52.311 44.526 49.9948 42.2523 47.759ZM31.7989 71.896C29.3544 69.4898 26.9891 67.1615 24.562 64.7748C23.9509 65.4147 23.216 66.0691 22.6173 66.8282C21.0041 68.8767 21.2862 71.7305 23.2185 73.4992C25.1212 75.2436 28.0926 75.2947 30.0423 73.5941C30.6831 73.0321 31.2719 72.4093 31.7989 71.896ZM60.952 53.7513C63.3272 51.4473 65.7296 49.1166 68.0231 46.8953C66.7489 45.6448 65.4277 44.3505 64.2154 43.1608C61.9144 45.4234 59.5467 47.7517 57.2209 50.0362C58.4729 51.2818 59.7867 52.5883 60.952 53.7513ZM31.0864 58.6925C29.7973 59.9576 28.4786 61.2519 27.1846 62.5219C29.4831 64.7821 31.8509 67.1128 34.1865 69.4071C35.4928 68.1274 36.8165 66.8282 38.1229 65.546C35.7774 63.2615 33.3997 60.9454 31.0864 58.6925ZM72.0709 64.6483C74.4535 62.3127 76.8237 59.9844 79.0703 57.7826C77.8184 56.5418 76.5021 55.2402 75.317 54.0651C73.0086 56.335 70.6408 58.6633 68.3151 60.9454C69.5398 62.1545 70.8412 63.4367 72.0709 64.6483ZM77.7021 48.6859C76.225 47.2213 74.9137 45.9197 73.5578 44.5719C73.2115 44.9271 72.7785 45.3188 72.4123 45.764C72.2416 45.9708 72.0783 46.2919 72.1105 46.5377C72.2045 47.2846 71.8977 47.8052 71.3831 48.304C69.4532 50.1773 67.5432 52.0701 65.6257 53.9581C65.3981 54.1843 65.1853 54.4252 65.0047 54.6198C65.8434 55.4665 66.6129 56.245 67.5407 57.1841C67.7312 56.9238 67.897 56.6197 68.1345 56.3861C70.0421 54.4909 71.9719 52.6175 73.877 50.7198C74.3867 50.2114 74.931 49.9218 75.6807 50.0192C75.9083 50.0484 76.2027 49.9437 76.3932 49.8026C76.8782 49.4328 77.3235 49.0119 77.7021 48.6859ZM55.5608 73.1732C56.9513 74.5649 58.2378 75.8543 59.5961 77.2143C60.8827 75.7132 62.7111 74.6427 63.5672 72.6988C63.7626 72.256 63.8171 71.9616 63.4088 71.5967C62.6567 70.9252 61.9392 70.2148 61.2538 69.4776C60.8951 69.0908 60.6056 69.0981 60.1405 69.2927C58.1512 70.1223 57.0651 71.9324 55.5608 73.1732ZM65.7494 69.3998C66.8256 68.3415 67.8846 67.3026 68.8743 66.3294C68.132 65.585 67.3452 64.7967 66.6153 64.062C65.5886 65.0692 64.5296 66.1056 63.4855 67.1299C64.2327 67.8792 65.022 68.6675 65.7494 69.3998Z" fill="black"/>
</svg>
