<svg width="120" height="100" viewBox="0 0 120 100" fill="none" xmlns="http://www.w3.org/2000/svg">
<rect width="120" height="100" fill="white"/>
<path d="M103.998 62.1234C103.173 64.5803 101.441 65.5564 98.9284 65.4532C96.9058 65.3687 94.8785 65.4368 92.8141 65.4368C92.6469 65.9882 92.5145 66.5185 92.3264 67.0277C91.0585 70.4185 87.7401 72.629 84.1919 72.46C80.6157 72.2887 77.4738 69.7239 76.5728 66.2017C76.4521 65.7324 76.3801 65.4227 75.7763 65.425C67.6348 65.4438 59.4955 65.4391 51.354 65.4415C51.2402 65.4415 51.1287 65.472 51.0219 65.4884C49.7888 72.5562 40.6023 75.2806 35.7815 68.6914C34.1746 70.9652 32.0103 72.2934 29.2492 72.4483C27.1175 72.5679 25.1994 71.8921 23.5483 70.5077C20.3205 67.8044 19.2755 62.6796 22.645 58.4886C22.3849 58.4558 22.1782 58.4088 21.9715 58.4065C20.6386 58.3994 19.3057 58.4159 17.9727 58.3994C16.1104 58.3783 15.0027 57.2496 15.0027 55.3888C15.0027 49.0038 15.0027 42.6212 15.005 36.2409C15.005 34.2628 16.0964 33.1669 18.0819 33.1669C34.2767 33.1646 50.4692 33.1505 66.6641 33.1904C68.1131 33.1927 69.2394 32.8079 70.1915 31.7097C70.9346 30.8532 71.7822 30.0906 72.5763 29.2763C73.7374 28.0866 75.1447 27.5305 76.7911 27.5352C80.2395 27.5422 83.6856 27.5422 87.134 27.5352C87.8888 27.5328 88.5343 27.8309 88.6086 28.5864C88.6528 29.037 88.3253 29.6095 88.0025 29.9826C87.8121 30.2009 87.3059 30.1915 86.939 30.1962C85.0859 30.215 83.2305 30.2056 81.3774 30.2056C81.0639 30.2056 80.7527 30.2056 80.3905 30.2056C80.3905 33.0942 80.3905 35.8866 80.3905 38.7376C81.324 38.7376 82.2366 38.7376 83.2769 38.7376C83.2769 37.8929 83.27 37.0528 83.2792 36.2151C83.3001 34.2721 84.3869 33.1716 86.3004 33.1669C89.5747 33.1599 92.8466 33.1622 96.1209 33.1669C98.3641 33.1693 99.8317 34.2675 100.477 36.4544C101.622 40.3427 102.746 44.2356 103.884 48.1262C103.898 48.1731 103.961 48.206 104 48.2459C103.998 52.871 103.998 57.496 103.998 62.1234ZM101.355 54.1733C101.028 54.1733 100.795 54.1756 100.565 54.1733C99.2117 54.1616 98.6288 53.7626 98.6149 52.8404C98.6009 51.8971 99.1792 51.4818 100.521 51.463C100.798 51.4583 101.072 51.4278 101.52 51.3997C101.369 50.1607 101.223 49.0109 101.095 47.8611C101.03 47.2721 100.714 47.1148 100.154 47.1219C97.9252 47.15 95.6936 47.1477 93.4643 47.1242C92.8907 47.1172 92.2986 47.0703 91.7505 46.913C90.0577 46.4297 88.8966 44.8809 88.8734 43.0647C88.8432 40.6994 88.8664 38.334 88.8664 35.9077C87.8446 35.9077 86.9088 35.9077 85.9126 35.9077C85.9126 36.2878 85.9126 36.607 85.9126 36.9261C85.9126 38.8292 85.9172 40.7322 85.9103 42.6329C85.9056 43.6443 85.411 44.2638 84.6168 44.2826C83.8017 44.3037 83.3094 43.7194 83.2839 42.6939C83.2746 42.3232 83.2816 41.9524 83.2816 41.5465C82.2505 41.5465 81.3402 41.5465 80.344 41.5465C80.344 41.9149 80.344 42.2317 80.344 42.5461C80.344 45.5028 80.3672 48.4594 80.3371 51.4137C80.3045 54.6473 78.203 57.3435 75.1168 58.139C74.5339 58.2892 73.9186 58.3807 73.3171 58.383C66.9729 58.4018 49.97 58.3971 43.6281 58.3924C42.5948 58.3924 41.9376 57.8339 41.9469 57.022C41.9562 56.2336 42.5762 55.7291 43.5747 55.6986C43.8069 55.6915 44.0391 55.6962 44.269 55.6962C50.2649 55.6962 66.9195 55.7032 72.9154 55.6939C76.0224 55.6892 77.6967 53.9973 77.6991 50.867C77.706 44.3107 77.7014 37.7544 77.6991 31.1982C77.6991 30.8884 77.6712 30.5787 77.6549 30.2713C76.2384 30.053 75.1098 30.3604 74.1856 31.3953C73.5261 32.1321 72.7551 32.7704 72.1119 33.5213C70.6373 35.2389 68.8051 35.8748 66.5666 35.8702C50.6643 35.8256 34.7621 35.8467 18.8621 35.8467C18.465 35.8467 18.068 35.8467 17.6546 35.8467C17.6546 42.5109 17.6546 49.0531 17.6546 55.6986C18.0703 55.6986 18.4395 55.6986 18.8087 55.6986C26.6577 55.6986 34.5089 55.6915 42.3579 55.7009C46.6168 55.7056 49.7238 58.0662 50.8036 62.1117C50.9337 62.5951 51.1334 62.7617 51.6303 62.7593C59.6534 62.7453 67.6766 62.7453 75.6997 62.7593C76.2384 62.7593 76.4242 62.574 76.5635 62.0507C77.3693 59.0213 79.2874 57.0337 82.2319 56.0552C82.5594 55.9473 82.8961 55.8675 83.2792 55.7619C83.2792 55.4123 83.2792 55.0931 83.2792 54.774C83.2792 52.7841 83.27 45.1179 83.2862 43.128C83.2932 42.1707 83.8064 41.584 84.5797 41.5817C85.3437 41.5793 85.894 42.1941 85.9056 43.1163C85.9219 44.2873 85.9103 51.1322 85.9103 52.3031C85.9103 53.4623 85.9103 54.6238 85.9103 55.6915C86.8136 56.0411 87.5822 56.372 88.3741 56.6395C88.9616 56.8366 89.5723 57.076 90.1761 57.083C93.5641 57.1253 96.9545 57.1041 100.343 57.1041C100.675 57.1041 101.007 57.1041 101.36 57.1041C101.355 56.0693 101.355 55.1706 101.355 54.1733ZM84.6098 58.4018C81.4656 58.3901 78.9623 60.8797 78.9484 64.0265C78.9368 67.2155 81.4703 69.806 84.589 69.792C87.6774 69.7779 90.2272 67.2037 90.2365 64.0922C90.2504 60.9736 87.7169 58.4135 84.6098 58.4018ZM28.9125 58.4041C25.7404 58.3854 23.1837 60.9173 23.1814 64.0781C23.1791 67.1849 25.7195 69.7591 28.815 69.7943C31.8895 69.8272 34.4648 67.253 34.4811 64.1321C34.495 60.9619 32.0265 58.4229 28.9125 58.4041ZM42.7712 58.4018C39.6572 58.4065 37.14 60.9314 37.126 64.0664C37.1121 67.2108 39.7269 69.8342 42.8293 69.7896C45.948 69.745 48.4072 67.2084 48.4002 64.0499C48.3932 60.8891 45.9108 58.3994 42.7712 58.4018ZM91.4742 35.8702C91.4742 38.2191 91.4672 40.4694 91.4765 42.7197C91.4812 43.8954 92.0013 44.414 93.188 44.421C95.2733 44.4327 97.3586 44.428 99.4439 44.421C99.625 44.421 99.8085 44.3623 100.052 44.3224C99.2976 41.7905 98.6102 39.3219 97.7952 36.8956C97.6488 36.4615 96.994 35.9499 96.5435 35.9171C94.9017 35.7998 93.2507 35.8702 91.4742 35.8702ZM101.383 59.8543C98.1412 59.8543 95.0085 59.8543 91.8388 59.8543C92.1801 60.8281 92.5029 61.7456 92.8466 62.7265C95.2036 62.7265 97.5954 62.75 99.9873 62.7148C100.835 62.703 101.283 62.1305 101.374 61.3092C101.425 60.8539 101.383 60.387 101.383 59.8543ZM36.6152 58.4487C36.0091 58.4487 35.5702 58.4487 35.0105 58.4487C35.3055 58.8429 35.533 59.1527 35.8117 59.5258C36.0764 59.1691 36.3086 58.8594 36.6152 58.4487Z" fill="black"/>
<path d="M45.1538 65.2564C45.0447 64.8833 45.0424 64.6369 44.9216 64.5078C44.0856 63.6279 43.2752 62.7151 42.3533 61.9337C41.8656 61.5207 41.2317 61.7295 40.809 62.2293C40.3864 62.7292 40.326 63.3486 40.7463 63.8367C41.4476 64.6486 42.1907 65.4418 43.0221 66.1082C43.3216 66.3475 43.9834 66.3452 44.3736 66.188C44.7242 66.0495 44.9309 65.5427 45.1538 65.2564Z" fill="white"/>
<path d="M66.4132 45.7659C66.4132 47.0799 66.4248 48.3917 66.4085 49.7057C66.3969 50.6983 65.8675 51.3249 65.0826 51.3343C64.2977 51.3436 63.7497 50.7241 63.7427 49.7269C63.7241 47.1011 63.7264 44.4729 63.7427 41.8471C63.7497 40.8545 64.2907 40.221 65.064 40.2139C65.8628 40.2069 66.4039 40.871 66.4132 41.9128C66.4225 43.1987 66.4132 44.4823 66.4132 45.7659Z" fill="black"/>
<path d="M49.7981 45.7612C49.7981 44.4777 49.7888 43.1917 49.8005 41.9082C49.8097 40.8687 50.3508 40.2046 51.152 40.214C51.9252 40.2234 52.457 40.8546 52.464 41.8542C52.4802 44.48 52.4826 47.1081 52.4617 49.7339C52.4547 50.7336 51.902 51.3484 51.1171 51.3343C50.3346 51.3202 49.8097 50.689 49.8005 49.6987C49.7888 48.387 49.7981 47.0729 49.7981 45.7612Z" fill="black"/>
<path d="M56.7646 45.7636C56.7646 44.48 56.7553 43.1941 56.7669 41.9105C56.7785 40.8663 57.3196 40.2046 58.1184 40.214C58.9149 40.2234 59.4374 40.8827 59.4421 41.9387C59.4513 44.5082 59.4537 47.0753 59.4421 49.6448C59.4374 50.7007 58.8987 51.346 58.0906 51.3343C57.2824 51.3226 56.7762 50.6796 56.7669 49.6143C56.7576 48.3307 56.7646 47.0471 56.7646 45.7636Z" fill="black"/>
<path d="M24.57 45.7827C24.57 47.1249 24.5793 48.4671 24.5676 49.8117C24.5584 50.7527 24.0382 51.3464 23.2649 51.3393C22.4963 51.3346 21.9668 50.7292 21.9645 49.7976C21.9552 47.1132 21.9552 44.4264 21.9645 41.7419C21.9668 40.8174 22.5102 40.2072 23.2765 40.2119C24.0428 40.2166 24.5584 40.8174 24.5676 41.756C24.5793 43.0982 24.57 44.4404 24.57 45.7827Z" fill="black"/>
<path d="M31.5366 45.7631C31.5366 47.0771 31.5459 48.3889 31.5343 49.7029C31.5273 50.7331 31.0467 51.3291 30.2502 51.3361C29.4583 51.3455 28.9219 50.7166 28.9195 49.7311C28.9126 47.0748 28.9103 44.4185 28.9195 41.7645C28.9219 40.84 29.4583 40.2252 30.22 40.2111C30.9816 40.1994 31.5204 40.8024 31.532 41.7364C31.5482 43.0763 31.5366 44.4185 31.5366 45.7631Z" fill="black"/>
<path d="M42.8362 45.7966C42.8362 44.4825 42.8269 43.1708 42.8385 41.8567C42.8478 40.8688 43.3703 40.2282 44.1506 40.2141C44.9285 40.2 45.4765 40.8242 45.4812 41.8191C45.4974 44.4754 45.4974 47.1294 45.4788 49.7857C45.4719 50.7431 44.9494 51.325 44.1877 51.3344C43.4005 51.3438 42.8501 50.7102 42.8408 49.7364C42.8246 48.4224 42.8362 47.1083 42.8362 45.7966Z" fill="black"/>
<path d="M73.3774 45.7395C73.3774 47.0231 73.3821 48.3066 73.3751 49.5925C73.3681 50.6626 72.8828 51.3055 72.077 51.336C71.2666 51.3665 70.7278 50.733 70.7209 49.6676C70.7069 47.07 70.7069 44.4724 70.7209 41.8747C70.7255 40.8587 71.2294 40.2415 72.0027 40.2157C72.8062 40.1875 73.3635 40.8563 73.3728 41.8888C73.3867 43.17 73.3774 44.4536 73.3774 45.7395Z" fill="black"/>
<path d="M38.5078 45.8362C38.5078 47.1502 38.5217 48.462 38.5031 49.776C38.4892 50.7428 37.9992 51.3177 37.2283 51.3342C36.4387 51.3506 35.8814 50.717 35.8791 49.7432C35.8698 47.0869 35.8675 44.4329 35.8791 41.7766C35.8837 40.8544 36.4201 40.2326 37.1725 40.2115C37.9296 40.1904 38.4869 40.7934 38.5008 41.7227C38.524 43.093 38.5078 44.4658 38.5078 45.8362Z" fill="black"/>
<path d="M83.3071 61.7715C84.3985 61.7879 86.9343 64.2401 86.8461 65.0262C86.7973 65.4556 86.4954 66.0211 86.1448 66.2041C85.7918 66.3872 85.1044 66.3402 84.7956 66.0962C83.9828 65.4509 83.2374 64.6929 82.5942 63.874C82.3527 63.5666 82.3155 62.9049 82.4688 62.5224C82.622 62.1422 83.1352 61.9146 83.3071 61.7715Z" fill="black"/>
<path d="M31.1556 62.8346C31.1208 63.9164 28.6616 66.4506 27.893 66.3521C27.468 66.2981 26.9107 65.9978 26.7319 65.6458C26.5554 65.2938 26.6134 64.6039 26.8573 64.2942C27.5005 63.4752 28.2506 62.7196 29.061 62.072C29.3652 61.8303 30.0247 61.7974 30.4032 61.9593C30.7818 62.1213 31.0047 62.6445 31.1556 62.8346Z" fill="black"/>
<path d="M45.1538 65.256C44.9309 65.5423 44.7242 66.0468 44.3736 66.1899C43.9834 66.3471 43.3216 66.3518 43.0221 66.1101C42.1907 65.4437 41.4476 64.6506 40.7463 63.8387C40.326 63.3506 40.3864 62.7334 40.809 62.2313C41.2317 61.7315 41.8679 61.5226 42.3533 61.9356C43.2729 62.7147 44.0856 63.6298 44.9216 64.5098C45.0447 64.6389 45.0447 64.8852 45.1538 65.256Z" fill="black"/>
</svg>
