<svg width="120" height="100" viewBox="0 0 120 100" fill="none" xmlns="http://www.w3.org/2000/svg">
<rect width="120" height="100" fill="white"/>
<path d="M99 43.7482C98.1273 44.507 98.0011 44.5172 96.868 43.9109C87.7113 39.004 76.3493 40.3874 68.6899 47.345C68.4844 47.5321 68.2993 47.7396 68.045 47.996C68.2688 48.1099 68.4539 48.2177 68.6492 48.3032C77.7449 52.3556 80.2085 64.0085 73.3974 71.259C69.7152 75.1772 65.8967 78.9774 61.9968 82.68C54.5612 89.7413 42.8005 87.2329 38.7582 77.8097C38.7195 77.7181 38.6788 77.6246 38.689 77.651C37.3137 79.0262 35.91 80.4279 34.4636 81.8744C34.4392 81.8479 34.5511 81.9741 34.667 82.0961C35.9731 83.4673 35.9772 85.1375 34.665 86.4924C33.9937 87.1841 33.3121 87.8676 32.6184 88.5369C31.9776 89.1534 31.4629 89.1574 30.8363 88.5329C27.7095 85.4162 24.5867 82.2934 21.4721 79.1646C20.8455 78.536 20.8496 78.0213 21.464 77.3845C22.0987 76.7274 22.7517 76.0886 23.4027 75.4457C24.8532 74.0095 26.4848 73.9932 27.9597 75.3929C28.0512 75.4803 28.1448 75.5658 28.3767 75.7814C32.9887 71.1512 37.5965 66.523 42.1637 61.9396C40.7254 60.4972 39.3847 59.1525 37.9322 57.6938C37.21 58.4567 36.4736 59.2542 35.7168 60.0272C35.1146 60.6396 34.4514 60.7067 33.9835 60.2429C33.5074 59.7689 33.5746 59.1301 34.1869 58.5177C39.1386 53.564 44.0902 48.6124 49.046 43.6607C49.6644 43.0423 50.293 42.9812 50.7691 43.4695C51.2268 43.9394 51.1516 44.5986 50.5433 45.2028C49.7906 45.9514 49.0236 46.6879 48.277 47.4141C49.6827 48.8117 51.0295 50.1524 52.4291 51.5439C52.5776 51.4096 52.7648 51.251 52.9357 51.078C55.8428 48.173 58.7601 45.276 61.655 42.3546C66.8223 37.1385 69.2615 30.836 68.9788 23.5143C68.8363 19.8199 67.8151 16.331 66.0615 13.0658C65.4918 12.0038 65.502 11.8838 66.2547 11.0029C66.5599 11.0029 66.863 11.0029 67.1682 11.0029C67.5486 11.3691 67.9351 11.7312 68.3074 12.1035C78.1517 21.9458 87.9961 31.7901 97.8384 41.6365C98.229 42.0271 98.6094 42.432 98.9939 42.8307C99 43.1379 99 43.443 99 43.7482ZM39.812 72.5041C39.8587 73.151 39.8811 73.5823 39.9238 74.0115C39.9442 74.2129 40.0012 74.4082 40.0418 74.6076C41.0122 79.2032 43.7078 82.383 48.1264 83.8884C52.5512 85.3959 56.7379 84.6086 60.1618 81.4166C64.2224 77.6307 68.1243 73.6636 71.955 69.6417C74.7157 66.7427 75.6576 63.1276 74.8866 59.2155C73.9752 54.5995 71.2105 51.3873 66.7369 49.9103C62.2084 48.413 58.0074 49.3122 54.5388 52.6018C50.6389 56.3023 46.8753 60.1513 43.1198 64.0004C40.7783 66.3989 39.7733 69.3793 39.812 72.5041ZM92.8847 39.9317C85.27 32.3171 77.6716 24.7207 70.0977 17.1488C70.1363 17.3217 70.1851 17.5638 70.2462 17.8018C72.3395 26.1468 70.9318 33.8611 65.8275 40.778C64.2285 42.9446 62.1677 44.7735 60.3184 46.755C60.1475 46.9381 59.9746 47.1212 59.8383 47.2656C61.6265 47.2656 63.3659 47.29 65.1012 47.2453C65.4471 47.2371 65.8682 47.0439 66.1184 46.7977C71.3285 41.6813 77.5618 38.9979 84.8733 38.8433C87.6014 38.7864 90.2705 39.1709 92.8847 39.9317ZM32.8056 80.1431C34.4351 78.5116 36.0524 76.9064 37.6413 75.2749C37.7939 75.1182 37.8203 74.7927 37.8223 74.5445C37.8325 73.1306 37.8081 71.7188 37.8183 70.3049C37.8203 69.9774 37.9098 69.6498 37.9444 69.426C35.3038 72.0707 32.651 74.7297 30.0327 77.352C30.8831 78.2064 31.8087 79.1381 32.8056 80.1431ZM31.8413 86.2869C32.2543 85.8678 32.7242 85.406 33.1758 84.928C33.5705 84.5109 33.5868 84.0695 33.1718 83.6544C30.8953 81.3739 28.6168 79.0934 26.3342 76.819C25.9152 76.4019 25.4798 76.4507 25.0607 76.8413C24.5806 77.2889 24.1005 77.7365 23.6814 78.1291C26.4421 80.8897 29.1274 83.5751 31.8413 86.2869ZM48.0532 55.7876C48.9259 54.9332 49.8434 54.034 50.7182 53.1775C49.3816 51.847 48.0268 50.4982 46.7471 49.2227C45.8846 50.0792 44.9752 50.9824 44.1004 51.8511C45.3983 53.1429 46.739 54.4775 48.0532 55.7876ZM46.3891 57.5331C45.0545 56.2006 43.7017 54.8477 42.42 53.5661C41.5534 54.4307 40.6338 55.3461 39.8628 56.1151C41.1607 57.4192 42.5095 58.772 43.8258 60.0944C44.6456 59.2766 45.5387 58.3835 46.3891 57.5331Z" fill="black"/>
<path d="M70.8729 61.5598C70.8729 63.7712 70.108 65.6875 68.5578 67.252C65.0058 70.8386 61.4619 74.4333 57.8427 77.9528C55.3811 80.3452 52.411 80.9738 49.2129 79.7145C45.9803 78.4431 44.2674 75.9143 44.0843 72.4661C43.9581 70.1021 44.8675 68.0678 46.556 66.3874C50.0226 62.931 53.4831 59.4664 56.9415 56.0019C58.0014 54.9399 59.2261 54.1771 60.6868 53.7844C65.8297 52.4011 70.8587 56.2358 70.8729 61.5598ZM56.4634 76.2825C53.6641 73.4853 50.8954 70.7185 48.1225 67.9457C45.6426 69.9312 45.4249 73.9023 47.7055 76.366C50.0674 78.9191 54.0161 78.8784 56.4634 76.2825ZM66.8184 65.9317C68.631 64.2004 69.2759 61.8487 68.4764 59.6088C67.6647 57.3364 66.025 55.9632 63.6366 55.6418C61.588 55.3672 59.8263 56.0283 58.449 57.5806C61.2707 60.3982 64.0333 63.1527 66.8184 65.9317ZM54.2236 61.8934C56.968 64.648 59.7347 67.4229 62.4343 70.1306C63.303 69.2741 64.2164 68.377 65.0424 67.5632C62.3082 64.8229 59.5455 62.0501 56.7991 59.2976C55.9508 60.152 55.0597 61.0492 54.2236 61.8934ZM49.8253 66.2572C52.6144 69.0443 55.3852 71.813 58.0828 74.5065C58.9637 73.6379 59.8812 72.7346 60.7356 71.8924C57.9912 69.146 55.2184 66.3752 52.4679 63.6247C51.6176 64.469 50.7224 65.362 49.8253 66.2572Z" fill="black"/>
</svg>
