<svg width="120" height="100" viewBox="0 0 120 100" fill="none" xmlns="http://www.w3.org/2000/svg">
<rect width="120" height="100" fill="white"/>
<path d="M60.5166 17C61.0996 17.3977 61.3118 17.9469 61.279 18.6477C61.2394 19.4999 61.2704 20.3539 61.2704 21.1579C63.0851 21.4127 64.8394 21.5746 66.5592 21.9155C78.8187 24.3431 88.7667 33.7023 91.4852 45.8851C91.8251 47.4071 91.9648 48.9738 92.1666 50.5234C92.2718 51.3274 92.0096 51.8181 91.4663 52.0195C90.8746 52.2382 90.3536 52.0161 89.9017 51.336C88.3768 49.0513 86.262 47.6912 83.5451 47.2435C79.6432 46.6013 75.6999 48.5709 73.8904 52.0763C73.7455 52.357 73.5816 52.6566 73.3488 52.8597C72.7398 53.3866 71.9136 53.1386 71.5099 52.3036C70.4629 50.1411 68.9414 48.4074 66.9128 47.1178C65.2189 46.04 63.3749 45.3961 61.2739 45.1878C61.2739 45.5029 61.2739 45.7732 61.2739 46.0435C61.2739 55.58 61.279 65.1166 61.2704 74.6514C61.267 78.6199 58.7364 81.8481 54.9363 82.7778C50.0304 83.9761 44.9969 80.1591 44.9072 75.1713C44.89 74.2605 45.2626 73.7406 45.9698 73.6838C46.7374 73.6218 47.2015 74.0625 47.2549 75.0129C47.4257 78.0793 49.5992 79.9663 51.7416 80.488C55.2071 81.3316 58.7192 78.7559 58.8589 75.2023C58.921 73.6373 58.8882 72.0671 58.8882 70.4986C58.8899 62.3584 58.8899 54.2181 58.8899 46.0779C58.8899 45.8042 58.8899 45.5321 58.8899 45.1964C57.3323 45.2584 55.9454 45.6699 54.6206 46.2845C51.9348 47.531 49.9252 49.48 48.5745 52.1245C48.3796 52.505 48.0001 52.8976 47.6137 53.0508C47.0065 53.2919 46.5753 52.9596 46.1751 52.19C44.8607 49.6625 42.82 48.0527 40.0462 47.3812C36.2685 46.4687 32.3338 48.0045 30.1759 51.2258C30.1034 51.3326 30.0362 51.4428 29.9637 51.5478C29.6066 52.0574 29.1047 52.2055 28.5458 52.0058C27.9955 51.8095 27.7747 51.3481 27.8075 50.7747C27.9558 48.2146 28.3784 45.6974 29.2202 43.2767C32.9686 32.4919 40.4447 25.6085 51.3742 22.3993C53.6512 21.7313 55.9954 21.4351 58.3604 21.2802C58.507 21.2698 58.6536 21.2561 58.8813 21.2388C58.8813 20.3849 58.9106 19.5533 58.8727 18.7252C58.8399 18.0124 59.0193 17.427 59.6127 17C59.9146 17 60.2147 17 60.5166 17ZM71.3374 47.5827C71.177 46.1175 71.0459 44.6489 70.8527 43.1872C70.3128 39.1153 69.3865 35.1382 67.7443 31.3556C66.7214 29.0003 65.488 26.769 63.4991 25.0559C61.2325 23.1035 58.7278 23.1207 56.4629 25.0834C55.2623 26.125 54.3394 27.3853 53.5546 28.7524C51.7658 31.8704 50.6963 35.2535 49.9235 38.74C49.2749 41.6703 48.8661 44.6334 48.6867 47.7583C51.8054 44.5094 55.5004 42.7963 59.9215 42.7774C64.3771 42.7533 68.1048 44.4406 71.3374 47.5827ZM73.7162 48.2008C78.6738 43.9637 83.8487 43.6469 89.2824 47.1195C87.5005 36.3141 77.8906 26.3609 66.0918 24.2587C69.0035 27.5541 70.5612 31.4813 71.7186 35.5944C72.8761 39.7059 73.4574 43.9172 73.7162 48.2008ZM30.7192 47.1178C36.1495 43.6417 41.3244 43.9688 46.2527 48.175C46.2734 48.1113 46.3027 48.0562 46.3079 47.9993C46.6132 45.4047 46.8202 42.7929 47.2446 40.2172C47.9156 36.1454 49.0524 32.1906 51.0119 28.5303C51.8158 27.0289 52.8301 25.6395 53.6908 24.288C41.8506 26.4436 32.4339 36.5569 30.7192 47.1178Z" fill="black"/>
</svg>
