<svg width="120" height="100" viewBox="0 0 120 100" fill="none" xmlns="http://www.w3.org/2000/svg">
<rect width="120" height="100" fill="white"/>
<path d="M24 48.793C24.1333 47.8659 24.2254 46.9294 24.4075 46.0119C25.001 43.0071 25.6301 40.008 26.2329 37.0051C26.3212 36.5691 26.385 36.1217 26.3888 35.6781C26.4057 33.6685 26.4264 31.6571 26.3832 29.6476C26.3606 28.5765 26.785 27.7803 27.5813 27.1395C29.2133 25.8258 31.1589 25.2096 33.127 24.6826C37.3224 23.5622 41.6155 23.0466 45.9292 22.656C51.3453 22.1669 56.7746 21.8788 62.2076 22.0494C66.8612 22.1954 71.5205 22.4456 76.1572 22.8646C80.6719 23.2722 85.1791 23.8921 89.4552 25.5414C90.49 25.9414 91.4684 26.5348 92.398 27.1528C93.2394 27.7139 93.6769 28.5746 93.5962 29.6457C93.2563 34.1235 94.0075 38.4667 95.0404 42.8023C95.7408 45.7427 96.0094 48.7588 95.9963 51.8015C95.9662 59.1097 95.9756 66.4198 96 73.728C96.0038 74.5868 95.6883 75.0702 94.9239 75.4152C88.736 78.2115 82.2532 79.2883 75.5018 78.9338C72.2942 78.765 69.1167 78.4162 65.9673 77.7754C65.3044 77.6408 64.9476 77.2882 64.771 76.6569C64.2827 74.9109 63.7794 73.1706 63.31 71.5327C61.0921 71.5327 58.938 71.5327 56.675 71.5327C56.2506 73.0379 55.7492 74.6797 55.3342 76.3422C55.1013 77.2731 54.5811 77.7072 53.6627 77.874C49.4824 78.6361 45.2738 79.0646 41.0258 78.9887C35.4613 78.8883 30.126 77.7205 25.0554 75.3849C24.6704 75.2067 24.3512 74.8844 24 74.6285C24 66.0179 24 57.4054 24 48.793ZM28.2104 39.2743C27.4254 41.5473 26.432 47.646 26.4095 51.1267C26.3644 58.3647 26.3907 65.6046 26.4132 72.8446C26.4132 73.0664 26.6442 73.4076 26.847 73.4891C28.1278 74.001 29.4142 74.5071 30.7307 74.9166C37.944 77.1612 45.2438 76.7536 52.5585 75.565C52.7801 75.529 53.0618 75.2408 53.135 75.0114C53.5388 73.7318 53.8599 72.4237 54.2693 71.1459C54.4215 70.6701 54.2468 70.5374 53.8956 70.2777C52.7876 69.4587 51.6458 68.6492 50.688 67.6672C49.3359 66.2795 48.534 64.5297 48.102 62.6321C48.0138 62.2453 47.9912 61.7031 48.1959 61.4245C48.4288 61.106 48.9434 60.8463 49.3434 60.8349C49.9781 60.8178 50.2824 61.3316 50.4232 61.9458C51.1988 65.3089 53.1294 67.6558 56.4271 68.7364C58.215 69.3222 60.0535 69.3829 61.9109 69.1137C64.2264 68.7781 66.1945 67.7961 67.6875 65.9478C68.6491 64.7572 69.2782 63.3979 69.5805 61.887C69.6913 61.3354 69.9937 60.9353 70.5834 60.8444C71.1261 60.759 71.6163 60.9278 71.8116 61.4377C71.9524 61.8036 71.9675 62.2794 71.8754 62.6681C71.3552 64.8539 70.3411 66.7895 68.6979 68.3175C67.7608 69.1895 66.6866 69.9099 65.6142 70.7459C65.9861 72.0673 66.4105 73.4891 66.7767 74.9261C66.8988 75.4038 67.1655 75.5555 67.5936 75.6237C70.9045 76.1489 74.2304 76.4598 77.5845 76.5204C82.9255 76.6171 88.0486 75.6351 92.9896 73.601C93.4497 73.4114 93.5999 73.1725 93.5999 72.6701C93.5812 66.1885 93.5699 59.705 93.5943 53.2234C93.6093 49.4243 93.1793 45.6782 92.4487 41.9625C92.2703 41.0544 92.0262 40.1578 91.8159 39.2629C86.257 42.0649 80.2757 42.4744 74.3638 43.2327C74.3037 44.3777 74.2886 45.4905 74.1797 46.5939C73.8699 49.7674 73.5356 52.9371 73.1825 56.1068C73.1036 56.8102 72.4764 57.2443 71.8266 57.1552C71.1956 57.068 70.7956 56.5599 70.8106 55.8452C70.8144 55.6329 70.8388 55.4206 70.8613 55.2082C71.1712 52.249 71.5073 49.2916 71.7815 46.3285C71.8698 45.3768 71.7947 44.41 71.7947 43.4033C63.9241 43.9777 56.0234 43.9872 48.0157 43.3825C48.1903 45.7882 48.3236 48.0953 48.5321 50.3949C48.6974 52.2053 48.9772 54.0044 49.165 55.813C49.242 56.5637 48.7856 57.0869 48.1208 57.1571C47.4673 57.2272 46.8738 56.7855 46.795 56.0708C46.4475 52.9257 46.1114 49.7788 45.8034 46.6299C45.6945 45.5076 45.6738 44.3777 45.6118 43.227C39.683 42.463 33.7017 42.0668 28.2104 39.2743ZM91.1924 32.2695C88.6458 33.5719 86.0411 34.2202 83.3969 34.7112C76.5629 35.9833 69.6481 36.406 62.7165 36.552C56.4365 36.6847 50.1584 36.4781 43.9198 35.7122C40.4455 35.2856 36.9863 34.6752 33.5533 33.9908C31.9476 33.6704 30.4152 32.9785 28.7964 32.4363C28.7964 33.5927 28.8245 34.7889 28.7851 35.9852C28.7663 36.5804 28.9748 36.988 29.4724 37.2648C29.7579 37.4241 30.0377 37.6231 30.3457 37.7122C32.5411 38.3473 34.7158 39.1018 36.9506 39.5473C43.6324 40.8781 50.412 41.3142 57.2046 41.354C61.909 41.3824 66.6171 41.2004 71.3158 40.9824C76.1816 40.7568 81.0118 40.1464 85.7481 38.9672C87.3031 38.5805 88.8073 37.9643 90.2947 37.3539C90.6722 37.1985 91.1191 36.6771 91.1511 36.2923C91.2581 35.0032 91.1924 33.7008 91.1924 32.2695ZM60.339 24.3016C55.3511 24.5689 50.7425 24.7679 46.1433 25.0769C42.0568 25.3518 37.9966 25.9111 34.0303 26.9575C32.4397 27.3765 30.896 28.0211 29.3879 28.6959C28.6255 29.0372 28.6311 29.5699 29.3861 29.9017C30.8753 30.5576 32.4284 31.0694 33.9608 31.6211C34.1205 31.678 34.3345 31.6249 34.5148 31.5851C41.3751 30.0363 48.3481 29.4827 55.3492 29.3841C60.3803 29.314 65.4152 29.4694 70.4463 29.6438C74.8445 29.7974 79.2071 30.3491 83.5396 31.1567C84.6382 31.3614 85.7256 31.9131 86.8974 31.4088C88.1594 30.8647 89.4646 30.4192 90.7022 29.8258C91.322 29.5282 91.3107 29.1471 90.7191 28.7737C90.0919 28.3756 89.4158 28.0267 88.7172 27.7803C84.5631 26.3054 80.2325 25.6438 75.8793 25.2646C70.589 24.8039 65.2781 24.5954 60.339 24.3016ZM41.3657 32.933C53.7905 34.5311 66.2096 34.5292 78.6268 32.933C66.2058 31.3443 53.7829 31.3386 41.3657 32.933Z" fill="black"/>
</svg>
