<svg width="120" height="100" viewBox="0 0 120 100" fill="none" xmlns="http://www.w3.org/2000/svg">
<rect width="120" height="100" fill="white"/>
<path d="M69.2886 35.1921C69.5885 35.1921 69.8194 35.1921 70.0504 35.1921C73.8142 35.1921 77.578 35.2041 81.3401 35.1802C81.9984 35.1768 82.412 35.4104 82.7618 35.9527C85.7105 40.5214 88.685 45.0714 91.6285 49.6435C91.8439 49.9777 91.9818 50.4262 91.9835 50.8219C92.0059 56.0557 91.999 61.2895 91.999 66.525C91.999 67.5704 91.6854 67.8722 90.6066 67.8722C89.5312 67.8739 88.4558 67.8876 87.3804 67.8654C86.9565 67.8569 86.7669 67.9285 86.6618 68.4128C85.938 71.7076 82.9997 74.0047 79.5926 74.0013C76.2269 73.9979 73.2868 71.6974 72.5716 68.435C72.4562 67.9097 72.2373 67.8654 71.8047 67.8671C65.3956 67.8756 58.9881 67.8739 52.5789 67.8739C51.0727 67.8739 49.5682 67.8859 48.0637 67.8654C47.6708 67.8603 47.533 67.966 47.4433 68.3736C46.7213 71.6974 43.7812 74.0099 40.3397 74.0013C36.9533 73.9928 34.027 71.6581 33.3204 68.3514C33.2274 67.92 33.0481 67.862 32.6811 67.8671C31.5419 67.8824 30.4011 67.8756 29.2619 67.8722C28.3571 67.8688 27.9987 67.5294 27.9987 66.6546C27.9987 54.2923 27.997 41.9301 28.0021 29.5678C28.0021 27.5657 29.5773 26.0036 31.5971 26.0019C42.9523 25.9968 54.3075 25.9968 65.661 26.0019C67.7238 26.0019 69.2783 27.5521 69.2869 29.6019C69.2955 31.4318 69.2886 33.26 69.2886 35.1921ZM30.0598 53.5317C42.499 53.5317 54.8469 53.5317 67.2292 53.5317C67.2292 53.2759 67.2292 53.0662 67.2292 52.8547C67.2292 45.2624 67.2292 37.6683 67.2292 30.076C67.2292 28.5804 66.6829 28.0381 65.1784 28.0381C54.1713 28.0381 43.166 28.0381 32.1589 28.0381C30.5958 28.0381 30.0598 28.5616 30.0598 30.0914C30.0598 37.6632 30.0598 45.2351 30.0598 52.8069C30.0598 53.0372 30.0598 53.2674 30.0598 53.5317ZM30.0719 65.8343C31.0042 65.8343 31.8814 65.8172 32.7569 65.8428C33.1446 65.8548 33.2429 65.7081 33.3204 65.3466C34.0235 62.0774 36.9464 59.7239 40.2828 59.7069C43.745 59.6881 46.6954 61.958 47.4261 65.2732C47.5416 65.7985 47.7639 65.8411 48.1947 65.8394C54.3213 65.8309 60.4495 65.8343 66.5761 65.8326C66.7829 65.8326 66.9879 65.8138 67.1792 65.8053C67.1792 62.3775 67.1792 59.0094 67.1792 55.6669C54.7797 55.6669 42.4318 55.6669 30.0719 55.6669C30.0719 59.0571 30.0719 62.3946 30.0719 65.8343ZM81.6882 38.2567C81.4176 37.5183 81.0592 37.1943 80.2578 37.2079C76.8404 37.2625 73.4195 37.2318 70.0004 37.2318C69.7746 37.2318 69.5471 37.2318 69.3386 37.2318C69.3386 46.8194 69.3386 56.3166 69.3386 65.836C70.2709 65.836 71.1533 65.8582 72.0322 65.8172C72.2028 65.8087 72.4372 65.5921 72.5113 65.4182C72.7422 64.8725 72.8525 64.2756 73.111 63.7452C74.4397 61.0064 77.397 59.3914 80.3991 59.7291C83.4788 60.0752 86.0052 62.3263 86.6963 65.321C86.7394 65.5069 86.9065 65.8053 87.0254 65.8104C87.9819 65.8513 88.9418 65.8326 89.8896 65.8326C89.8896 63.7418 89.8896 61.7346 89.8896 59.7018C89.1951 59.7018 88.5523 59.7052 87.9078 59.7018C86.1345 59.6898 84.7833 58.3716 84.7782 56.656C84.773 54.9063 86.1276 53.588 87.9388 53.5795C88.5954 53.5761 89.2537 53.5795 89.9069 53.5795C89.9069 52.8547 89.9069 52.2237 89.9069 51.5313C89.6243 51.5313 89.3726 51.5313 89.121 51.5313C83.982 51.5313 78.8412 51.5313 73.7021 51.5313C72.7181 51.5313 72.3889 51.2073 72.3889 50.2352C72.3872 46.6829 72.3872 43.129 72.3889 39.5767C72.3889 38.5705 72.7095 38.2601 73.7452 38.2601C76.3699 38.255 78.9929 38.2567 81.6882 38.2567ZM89.0521 49.4661C87.0823 46.4357 85.1832 43.5024 83.2599 40.5845C83.1513 40.4208 82.8428 40.31 82.6257 40.3083C80.9265 40.2861 79.229 40.2963 77.5297 40.2963C76.525 40.2963 75.5203 40.2963 74.4897 40.2963C74.4897 43.3865 74.4897 46.4152 74.4897 49.4678C79.3324 49.4661 84.1371 49.4661 89.0521 49.4661ZM40.3948 61.7448C37.5719 61.7414 35.2196 64.0692 35.223 66.8592C35.2265 69.6236 37.5564 71.9446 40.3414 71.9617C43.1866 71.9787 45.5597 69.6322 45.5459 66.8132C45.5321 64.0556 43.1866 61.7482 40.3948 61.7448ZM79.596 61.7448C76.7697 61.7602 74.4311 64.0982 74.4535 66.8865C74.4759 69.6543 76.8197 71.9634 79.6012 71.96C82.4534 71.9566 84.8109 69.598 84.7764 66.7842C84.742 64.0249 82.3827 61.7295 79.596 61.7448ZM89.9258 55.6242C89.1831 55.6242 88.4972 55.5901 87.8182 55.6345C87.2615 55.672 86.8979 56.0267 86.86 56.5809C86.8238 57.1079 87.1237 57.5411 87.6424 57.5973C88.3938 57.6775 89.1607 57.6178 89.9258 57.6178C89.9258 56.9425 89.9258 56.3268 89.9258 55.6242Z" fill="black"/>
<path d="M58.935 59.7019C57.6442 59.7019 56.3534 59.7036 55.0643 59.7002C54.2457 59.6984 53.8011 59.3267 53.8097 58.6667C53.8183 58.0306 54.2526 57.6656 55.0298 57.6656C57.6545 57.6622 60.2775 57.6622 62.9021 57.6656C63.6794 57.6673 64.1154 58.0306 64.124 58.6667C64.1343 59.3267 63.688 59.7002 62.8694 59.7019C61.5596 59.7036 60.2482 59.7019 58.935 59.7019Z" fill="black"/>
<path d="M61.5146 62.7643C61.02 62.7643 60.5254 62.7763 60.0308 62.7609C59.3777 62.7405 58.964 62.3244 58.9727 61.7275C58.9813 61.1579 59.3863 60.7418 60.0015 60.7315C61.0338 60.7145 62.0661 60.7145 63.0984 60.7315C63.7119 60.7418 64.1186 61.1613 64.1255 61.7309C64.1324 62.3278 63.7171 62.7422 63.0622 62.7609C62.5469 62.7763 62.0299 62.7643 61.5146 62.7643Z" fill="black"/>
<path d="M74.9395 55.6156C74.4449 55.6156 73.9503 55.6275 73.4557 55.6122C72.8009 55.5934 72.3855 55.1807 72.3924 54.5838C72.3993 54.0125 72.8009 53.5947 73.4161 53.5828C74.4484 53.564 75.4807 53.5657 76.513 53.5828C77.1282 53.593 77.5349 54.0074 77.5453 54.577C77.5556 55.1739 77.1403 55.5832 76.4888 55.6156C76.4682 55.6173 76.4458 55.6156 76.4251 55.6156C75.9287 55.6156 75.4341 55.6156 74.9395 55.6156Z" fill="black"/>
<path d="M79.5995 69.9133C77.8744 69.9082 76.5112 68.5405 76.5215 66.8215C76.5302 65.1178 77.914 63.7825 79.6632 63.7911C81.3521 63.7996 82.7118 65.1656 82.7101 66.8488C82.7067 68.5661 81.3349 69.9168 79.5995 69.9133ZM80.6421 66.8317C80.6318 66.3065 80.1234 65.8222 79.5943 65.8341C79.0618 65.846 78.5741 66.3491 78.5861 66.871C78.5999 67.3996 79.1049 67.8822 79.6339 67.8686C80.1699 67.855 80.6524 67.3587 80.6421 66.8317Z" fill="black"/>
<path d="M40.369 69.9133C38.6439 69.9082 37.2807 68.5405 37.2911 66.8215C37.2997 65.1178 38.6835 63.7825 40.4328 63.7911C42.1216 63.7996 43.4814 65.1656 43.4797 66.8488C43.4745 68.5661 42.1027 69.9168 40.369 69.9133ZM41.4099 66.8317C41.3996 66.3065 40.8912 65.8222 40.3621 65.8341C39.8296 65.846 39.3419 66.3491 39.3539 66.871C39.366 67.3996 39.8727 67.8822 40.4017 67.8686C40.9377 67.855 41.4202 67.3587 41.4099 66.8317Z" fill="black"/>
</svg>
