<svg width="120" height="100" viewBox="0 0 120 100" fill="none" xmlns="http://www.w3.org/2000/svg">
<rect width="120" height="100" fill="white"/>
<path d="M51.7752 88.2462C51.4937 87.8831 51.1131 87.5618 50.9427 87.1508C47.5454 78.9603 44.6793 70.5942 42.8083 61.9069C42.0115 58.2097 41.4407 54.4766 41.4426 50.6817C41.4426 49.7399 42.1423 45.0291 42.5288 44.1732C42.8677 43.417 43.1115 42.9621 43.8013 43.0498C44.4534 43.1317 45.0936 43.6624 44.7586 44.4864C44.4891 45.7255 43.718 50.8553 43.7597 52.1921C43.8826 56.1846 44.6635 60.0833 45.5951 63.9501C47.3631 71.3006 49.8228 78.4216 52.6473 85.4209C52.8435 85.9058 53.0912 86.0195 53.5749 86.0175C57.9275 85.9996 62.2781 85.9976 66.6308 86.0195C67.1401 86.0215 67.3621 85.8599 67.5326 85.387C69.0429 81.187 72.1607 71.7535 73.6909 67.5615C73.792 67.2841 73.8713 66.9769 74.0477 66.7534C74.4124 66.2965 74.9099 66.1568 75.4331 66.4681C75.9584 66.7813 76.1605 67.2482 75.9504 67.8667C75.2964 69.7922 73.1141 76.981 72.4124 78.8885C71.3917 81.6579 70.3174 84.4073 69.2233 87.1468C69.0588 87.5578 68.6763 87.8811 68.3948 88.2442C62.8549 88.2462 57.315 88.2462 51.7752 88.2462Z" fill="black"/>
<path d="M68.0004 19.2073C67.3365 19.2073 66.6725 19.2212 66.0085 19.2033C65.1383 19.1813 64.6626 18.7603 64.6626 18.048C64.6626 17.3337 65.1383 16.9187 66.0085 16.8948C66.5516 16.8808 67.0966 16.9028 67.6397 16.8888C69.0371 16.8569 68.6407 17.1163 69.1263 15.7794C69.3205 15.2447 69.489 14.7 69.6674 14.1573C69.6733 14.1373 69.6575 14.1094 69.6436 14.0476C63.2851 14.0476 56.9187 14.0476 50.4691 14.0476C50.7584 14.9215 51.0161 15.7874 51.3511 16.6234C51.4125 16.7771 51.7871 16.8768 52.017 16.8768C54.9089 16.8928 62.7579 16.8868 65.6497 16.8888C65.8955 16.8888 66.1492 16.8768 66.389 16.9227C66.9955 17.0384 67.3801 17.4175 67.3801 18.044C67.3801 18.6705 66.9936 19.0477 66.389 19.1634C66.1492 19.2093 65.8975 19.2013 65.6517 19.2013C63.081 19.2033 55.5531 19.2033 52.9823 19.2033C52.7128 19.2033 52.4452 19.2033 52.138 19.2033C52.4432 20.7656 52.8178 22.252 53.0041 23.7644C53.2202 25.5103 53.4045 27.282 53.3569 29.0359C53.2975 31.2805 52.1498 33.1481 50.8357 34.8919C49.702 36.3983 48.4493 37.8229 47.4206 39.3992C46.4514 40.8836 45.6943 42.5118 44.8677 44.088C44.511 44.7684 43.9718 45.0657 43.3832 44.8263C42.7707 44.5768 42.5289 43.9922 42.7529 43.2859C42.8123 43.0964 42.8956 42.9168 42.9689 42.7312C43.8787 40.4766 45.1908 38.4714 46.6714 36.5619C47.7199 35.2092 48.7665 33.8544 49.7615 32.4637C50.9229 30.8416 51.2658 29.0199 51.1172 27.0247C50.7743 22.4176 49.5851 18.0261 47.8825 13.7722C47.379 12.5212 48.0489 11.743 49.2322 11.753C56.4747 11.8089 63.7192 11.8089 70.9617 11.753C72.1806 11.743 72.7634 12.595 72.2996 13.7323C70.7397 17.5572 69.709 21.5337 69.1421 25.6399C68.7219 28.6907 69.3106 31.3763 71.2927 33.7905C72.801 35.6282 74.2479 37.5336 75.5383 39.5289C78.1031 43.5014 78.9633 47.9309 78.6719 52.6277C78.3389 58.0129 77.1556 63.2344 75.7662 68.4201C75.5402 69.2621 74.9932 69.6471 74.3351 69.4716C73.6275 69.284 73.3897 68.7074 73.5859 67.8075C74.4144 63.9786 75.3599 60.1697 76.01 56.3109C76.7552 51.8815 76.7909 47.452 74.9456 43.1981C73.8039 40.5644 72.0003 38.3896 70.3016 36.131C69.2928 34.7902 68.3315 33.3875 67.5525 31.903C66.387 29.6803 66.6824 27.2501 66.9975 24.8818C67.2473 23.0162 67.6476 21.1706 68.0004 19.2073Z" fill="black"/>
</svg>
