<svg width="120" height="100" viewBox="0 0 120 100" fill="none" xmlns="http://www.w3.org/2000/svg">
<rect width="120" height="100" fill="white"/>
<path d="M99.1292 43.8239C98.6515 46.2493 97.0491 47.9241 95.3479 49.583C90.8168 54.0046 75.1856 69.5351 70.6786 73.9807C70.3824 74.2721 70.0377 74.5796 69.6567 74.7033C69.0137 74.9109 68.395 74.7293 67.9999 74.1404C67.5988 73.5395 67.623 72.9167 68.0684 72.3378C68.2357 72.1222 68.4433 71.9366 68.6388 71.7429C73.563 66.8642 89.6437 50.9344 94.5719 46.0617C95.9828 44.6663 96.4524 43.0514 95.8095 41.157C95.7792 41.0691 95.7147 40.9933 95.7006 40.9713C82.0992 54.4418 68.5058 67.9042 54.9265 81.3507C56.0452 82.1532 58.2503 81.8837 59.6048 80.664C60.2921 80.0452 60.9331 79.3745 61.5902 78.7217C64.2045 76.1346 66.8127 73.5395 69.437 70.9624C69.7132 70.6909 70.0558 70.4155 70.4166 70.3117C71.0717 70.124 71.6804 70.3276 72.0553 70.9265C72.4202 71.5074 72.3919 72.1122 71.9767 72.6712C71.8276 72.8688 71.6401 73.0405 71.4627 73.2161C68.4937 76.1566 65.4562 79.0331 62.5758 82.0574C59.891 84.874 56.0412 85.6765 52.4836 83.6084C50.7885 85.2334 49.0833 86.8683 47.378 88.5012C47.0253 88.5012 46.6746 88.5012 46.3218 88.5012C45.0359 87.519 44.9855 86.7245 46.1425 85.5787C62.2251 69.6489 78.3098 53.7191 94.3945 37.7913C95.5817 36.6156 96.3577 36.6795 97.4421 37.975C98.329 39.035 98.7543 40.2946 99.1272 41.5821C99.1292 42.3307 99.1292 43.0773 99.1292 43.8239Z" fill="black"/>
<path d="M60.1835 34.9153C64.7227 30.4119 69.2135 25.9583 73.7668 21.4409C73.3254 21.0117 72.8396 20.5546 72.372 20.0795C71.6565 19.3528 71.596 18.4505 72.2047 17.8257C72.8356 17.177 73.7668 17.2189 74.5328 17.9655C74.9963 18.4186 75.4237 18.9077 75.8228 19.3349C76.7258 18.4366 77.5501 17.6161 78.4632 16.7078C78.0198 16.3026 77.4816 15.8515 76.9938 15.3544C76.3226 14.6697 76.3126 13.7574 76.9213 13.1566C77.528 12.5577 78.4511 12.5717 79.1425 13.2364C79.6444 13.7195 80.0959 14.2525 80.6582 14.8594C81.4504 14.0369 82.1256 13.3023 82.8371 12.6016C83.7018 11.7512 84.4658 11.7552 85.3244 12.5976C86.7898 14.0329 88.2491 15.4762 89.6983 16.9274C90.4925 17.7219 90.4864 18.5384 89.7064 19.3428C89.3577 19.7022 89.0009 20.0535 88.6401 20.3988C88.2793 20.7442 87.9084 21.0816 87.3602 21.5886C87.9306 22.0717 88.4708 22.4769 88.9465 22.944C89.7326 23.7126 89.7709 24.6009 89.1017 25.2477C88.4345 25.8924 87.5738 25.8206 86.7716 25.048C86.3403 24.6308 85.913 24.2076 85.4816 23.7904C85.4474 23.7585 85.3929 23.7465 85.3647 23.7325C84.5524 24.547 83.7442 25.3574 82.7767 26.3276C83.2483 26.7288 83.7885 27.1361 84.2662 27.6072C85.0281 28.3617 85.0543 29.292 84.3892 29.9148C83.728 30.5336 82.8795 30.4757 82.1196 29.7292C81.656 29.274 81.2266 28.7869 80.8396 28.3737C76.2622 32.9091 71.7613 37.3707 67.3491 41.7444C67.9336 43.1537 68.7318 44.585 69.1228 46.1201C70.0641 49.827 69.2458 53.2445 66.7706 56.181C65.6136 57.5524 64.2692 58.7701 62.9772 60.0257C62.2959 60.6864 61.5138 60.7204 60.8265 60.0536C59.1273 58.4068 56.3317 58.5205 54.7938 60.1495C53.147 61.8941 53.1208 64.4952 54.7675 66.3816C55.5597 67.2899 55.6141 67.781 54.9429 68.7791C53.5541 70.8492 52.3125 73.045 50.7121 74.9434C45.6186 80.9859 36.2218 81.3752 30.5095 75.8896C28.9031 74.3465 27.3188 72.7815 25.7647 71.1885C19.9114 65.1839 20.766 55.3466 27.5929 50.4658C29.4029 49.1723 31.3218 48.0244 33.2084 46.8367C34.0107 46.3317 34.5105 46.4375 35.3672 47.1701C37.3969 48.9068 40.3337 48.7491 41.9724 46.8167C43.3228 45.2258 43.3128 43.0519 41.9522 41.409C41.0432 40.3131 41.0714 39.7282 42.0973 38.7161C43.2019 37.6262 44.2621 36.4863 45.4332 35.4723C49.531 31.919 55.3057 31.6196 59.7905 34.6698C59.9134 34.7536 60.0424 34.8275 60.1835 34.9153ZM58.0389 37.1531C57.7688 36.9754 57.5894 36.8437 57.3979 36.7339C54.1971 34.9033 50.1175 35.3225 47.3863 37.7839C46.699 38.4027 46.0762 39.0914 45.3909 39.7142C45.0079 40.0635 44.9132 40.3251 45.1933 40.8401C46.0742 42.457 46.2576 44.1877 45.7678 45.9723C44.4617 50.7333 38.834 52.8872 34.4984 50.2862C34.2082 50.1125 33.9844 49.8909 33.5733 50.1704C32.249 51.0707 30.8562 51.8731 29.54 52.7854C24.5977 56.2149 23.4065 63.1877 26.9781 67.8948C27.1797 67.7051 27.3792 67.5235 27.5727 67.3338C28.9595 65.9604 30.3362 64.579 31.733 63.2156C32.5594 62.4092 33.3515 62.4092 34.1699 63.2096C35.6373 64.6429 37.0946 66.0882 38.5438 67.5394C39.4105 68.4078 39.3944 69.1664 38.5055 70.0547C37.1792 71.3801 35.8449 72.7016 34.5045 74.0132C34.2828 74.2307 34.0066 74.3944 33.7365 74.5961C38.2334 78.0655 45.1631 77.1572 48.6481 72.7336C49.7567 71.3263 50.6456 69.7512 51.6675 68.276C51.9255 67.9027 51.9013 67.6512 51.6615 67.2859C50.9238 66.1561 50.563 64.9064 50.5105 63.555C50.3291 58.9437 54.2294 55.3366 58.8411 55.9474C59.859 56.0812 60.8366 56.5203 61.8767 56.8317C64.2631 54.7397 66.4783 52.4341 66.4259 48.8349C66.3997 47.0563 65.9522 45.4394 64.8739 43.9322C62.1185 46.665 59.4377 49.326 56.7529 51.9829C55.6947 53.031 54.9873 53.0369 53.9411 52.0049C52.766 50.8451 51.6272 49.6454 50.4118 48.5295C48.7207 46.9744 48.7449 46.2758 50.3856 44.7107C52.9535 42.2534 55.4448 39.7222 58.0389 37.1531ZM75.9276 23.7784C68.2783 31.3561 60.5826 38.9796 52.9333 46.5572C53.7376 47.3537 54.566 48.1722 55.3561 48.9527C63.0074 41.3751 70.699 33.7555 78.3503 26.1759C77.5622 25.3994 76.7358 24.5809 75.9276 23.7784ZM84.1231 15.7736C82.1841 17.7 80.2269 19.6443 78.2778 21.5806C79.0316 22.3292 79.8439 23.1377 80.5998 23.8882C82.561 21.9619 84.5303 20.0276 86.4693 18.1232C85.6973 17.3506 84.8911 16.5422 84.1231 15.7736ZM31.5052 72.4821C32.7791 71.2185 34.0651 69.9429 35.3188 68.6992C34.571 67.9546 33.7587 67.1482 32.9988 66.3936C31.7269 67.6552 30.439 68.9348 29.1832 70.1844C29.9492 70.941 30.7594 71.7435 31.5052 72.4821Z" fill="black"/>
<path d="M77.0965 66.9943C77.0944 67.8447 76.4313 68.4874 75.5706 68.4755C74.716 68.4655 74.069 67.7987 74.0891 66.9484C74.1093 66.1359 74.7583 65.5051 75.5787 65.4971C76.4333 65.4911 77.0985 66.1479 77.0965 66.9943Z" fill="black"/>
<path d="M39.5414 56.1035C39.8961 56.3091 40.3093 56.4529 40.5956 56.7283C42.1234 58.1995 43.6291 59.6947 45.1226 61.1998C45.8221 61.9045 45.8402 62.7569 45.2214 63.3877C44.5925 64.0285 43.6916 64.0105 42.9619 63.2959C41.4441 61.8127 39.9425 60.3155 38.4388 58.8204C37.9531 58.3393 37.7636 57.7664 38.0539 57.1236C38.3199 56.5327 38.7916 56.1973 39.5414 56.1035Z" fill="black"/>
</svg>
