<svg width="120" height="100" viewBox="0 0 120 100" fill="none" xmlns="http://www.w3.org/2000/svg">
<rect width="120" height="100" fill="white"/>
<path d="M80.3074 18C81.2037 18.4307 82.1855 18.7441 82.977 19.3202C84.2611 20.2569 84.8725 21.6436 84.9669 23.2387C84.9843 23.5329 84.9808 23.8288 84.9808 24.1229C84.9808 40.8738 84.9721 57.6264 84.9948 74.3773C84.9966 76.0004 84.5371 77.2558 83.0224 78.0087C82.8879 78.0753 82.8005 78.3361 82.7813 78.5165C82.7166 79.0995 82.7673 79.7071 82.638 80.2726C82.2956 81.7627 80.987 82.7344 79.3902 82.7362C74.9736 82.7432 70.5588 82.7379 66.1422 82.7397C58.0882 82.7397 50.0342 82.7011 41.9802 82.7677C40.027 82.7834 38.1157 81.5841 38.2293 79.0225C38.2555 78.4237 38.1227 78.056 37.5444 77.7338C36.5206 77.1648 36.0175 76.1983 36.014 75.0094C36.007 72.0592 36.0087 69.1089 36.0087 66.1604C36.0087 52.0866 36.0157 38.0111 36 23.9356C35.9983 21.922 36.6447 20.2359 38.3044 19.0786C39.0067 18.5883 39.8837 18.3519 40.6821 18C53.8917 18 67.0996 18 80.3074 18ZM38.1541 33.576C38.1437 33.8124 38.1244 34.0173 38.1244 34.2221C38.1227 47.6673 38.1227 61.1143 38.1244 74.5594C38.1244 75.7851 38.5175 76.1703 39.7545 76.1703C53.572 76.1703 67.3913 76.1703 81.2089 76.1703C82.4878 76.1703 82.8669 75.7956 82.8669 74.5244C82.8686 61.1002 82.8669 47.6761 82.8669 34.2501C82.8669 34.0278 82.8669 33.8072 82.8669 33.576C67.912 33.576 53.0514 33.576 38.1541 33.576ZM82.8669 31.3804C82.8669 28.8206 82.811 26.3343 82.8826 23.8515C82.9473 21.5964 81.2177 20.0958 79.1509 20.1046C66.7257 20.1484 54.2971 20.1501 41.8702 20.1011C39.7579 20.0923 38.0284 21.6034 38.1052 23.8813C38.1821 26.175 38.1209 28.4739 38.1244 30.7711C38.1244 30.9724 38.1472 31.1738 38.1594 31.3804C53.0776 31.3804 67.9364 31.3804 82.8669 31.3804ZM40.4026 78.3169C40.1807 79.9225 40.469 80.6473 42.265 80.6403C54.4613 80.5983 66.6593 80.6193 78.8556 80.6176C79.1072 80.6176 79.4007 80.6894 79.6034 80.5843C79.951 80.404 80.3913 80.1746 80.5206 79.8542C80.7023 79.4024 80.6376 78.8509 80.6813 78.3151C67.18 78.3169 53.8079 78.3169 40.4026 78.3169Z" fill="black" stroke="black" stroke-width="0.5"/>
<path d="M51.0248 22.4472C48.6907 22.4472 46.3566 22.442 44.0225 22.449C42.7646 22.4525 41.8299 23.0285 41.6797 24.1246C41.5329 25.1944 41.5312 26.3167 41.678 27.3848C41.8317 28.5071 42.7402 29.0604 44.0749 29.0621C48.7012 29.0709 53.3257 29.0656 57.9519 29.0639C58.1616 29.0639 58.3712 29.0394 58.5791 29.0096C59.5295 28.8713 60.258 28.1972 60.3699 27.2447C60.4555 26.5163 60.445 25.7739 60.4432 25.0385C60.4397 23.2964 59.5819 22.4507 57.8349 22.4472C55.5654 22.4455 53.296 22.4472 51.0248 22.4472ZM72.8579 25.7407C72.8527 27.5703 74.287 29.0306 76.1075 29.0464C77.8999 29.0604 79.4042 27.5756 79.4147 25.7792C79.4251 23.9968 77.9296 22.4752 76.1459 22.456C74.3621 22.4367 72.8631 23.9337 72.8579 25.7407ZM70.4644 25.7774C70.4679 23.96 69.0091 22.4717 67.2096 22.456C65.4364 22.4402 63.9164 23.9547 63.9094 25.7442C63.9024 27.5511 65.3665 29.0289 67.1764 29.0446C68.9829 29.0604 70.4609 27.5914 70.4644 25.7774Z" fill="white" stroke="black" stroke-width="0.5"/>
<path d="M60.4869 72.6786C50.6649 72.6576 42.6826 64.6472 42.7053 54.8211C42.728 45.0739 50.5444 37.0074 60.5341 37.0127C70.3911 37.0197 78.3175 45.0809 78.2861 54.8982C78.2546 64.7032 70.2496 72.6996 60.4869 72.6786ZM76.1651 54.8281C76.1512 46.1664 69.0825 39.0858 60.4782 39.1155C51.839 39.1435 44.8175 46.2207 44.8245 54.8649C44.8315 63.3953 51.687 70.5513 60.5149 70.5565C69.1874 70.5618 76.1774 63.4846 76.1651 54.8281Z" fill="black" stroke="black" stroke-width="0.5"/>
<path d="M51.0248 22.4472C53.296 22.4472 55.5655 22.4455 57.8367 22.4472C59.5837 22.449 60.4415 23.2964 60.445 25.0385C60.4468 25.7739 60.4573 26.5163 60.3716 27.2447C60.2598 28.1972 59.5313 28.8713 58.5809 29.0096C58.373 29.0394 58.1634 29.0639 57.9537 29.0639C53.3275 29.0674 48.703 29.0709 44.0767 29.0621C42.742 29.0604 41.8335 28.5071 41.6798 27.3848C41.533 26.3149 41.5347 25.1944 41.6815 24.1246C41.8317 23.0303 42.7682 22.4542 44.0243 22.449C46.3567 22.442 48.6907 22.4472 51.0248 22.4472ZM43.7483 24.6183C43.7483 25.408 43.7483 26.1521 43.7483 26.9208C43.9597 26.933 44.1239 26.9488 44.2899 26.9488C48.7641 26.9505 53.2366 26.9505 57.7109 26.9505C57.7947 26.9505 57.9048 26.9838 57.9572 26.9418C58.097 26.8367 58.3119 26.7054 58.3206 26.5723C58.359 25.9455 58.3381 25.3152 58.3381 24.6166" fill="black"/>
<path d="M43.7483 24.6183C43.7483 25.408 43.7483 26.1521 43.7483 26.9208C43.9597 26.933 44.1239 26.9488 44.2899 26.9488C48.7641 26.9505 53.2366 26.9505 57.7109 26.9505C57.7947 26.9505 57.9048 26.9838 57.9572 26.9418C58.097 26.8367 58.3119 26.7054 58.3206 26.5723C58.359 25.9455 58.3381 25.3152 58.3381 24.6166M51.0248 22.4472C53.296 22.4472 55.5655 22.4455 57.8367 22.4472C59.5837 22.449 60.4415 23.2964 60.445 25.0385C60.4468 25.7739 60.4573 26.5163 60.3716 27.2447C60.2598 28.1972 59.5313 28.8713 58.5809 29.0096C58.373 29.0394 58.1634 29.0639 57.9537 29.0639C53.3275 29.0674 48.703 29.0709 44.0767 29.0621C42.742 29.0604 41.8335 28.5071 41.6798 27.3848C41.533 26.3149 41.5347 25.1944 41.6815 24.1246C41.8317 23.0303 42.7682 22.4542 44.0243 22.449C46.3567 22.442 48.6907 22.4472 51.0248 22.4472Z" stroke="black" stroke-width="0.5"/>
<path d="M72.858 25.741C72.8632 23.934 74.3622 22.4353 76.1459 22.4563C77.9297 22.4755 79.4269 23.9971 79.4147 25.7795C79.4025 27.5742 77.8983 29.0607 76.1075 29.0467C74.2871 29.0309 72.8527 27.5724 72.858 25.741ZM74.9824 25.7515C74.9789 26.4081 75.4698 26.9158 76.1162 26.9193C76.7417 26.9228 77.2815 26.3923 77.285 25.7672C77.2885 25.1492 76.7469 24.5924 76.1337 24.5836C75.5118 24.5784 74.9859 25.1106 74.9824 25.7515Z" fill="black" stroke="black" stroke-width="0.5"/>
<path d="M70.4645 25.7778C70.461 27.5935 68.9829 29.0608 67.1765 29.0468C65.3665 29.031 63.9025 27.5515 63.9094 25.7463C63.9164 23.9569 65.4364 22.4424 67.2097 22.4581C69.0091 22.4721 70.4679 23.9604 70.4645 25.7778ZM68.3383 25.7446C68.3313 25.1037 67.7984 24.5715 67.1765 24.5872C66.5475 24.6012 66.0304 25.1423 66.0374 25.7778C66.0444 26.4134 66.5737 26.9282 67.2097 26.9212C67.8543 26.9124 68.3453 26.3994 68.3383 25.7446Z" fill="black" stroke="black" stroke-width="0.5"/>
<path d="M60.5201 41.4992C67.87 41.5324 73.8328 47.5013 73.8433 54.8393C73.8555 62.2088 67.7932 68.2372 60.4065 68.1987C53.1178 68.1602 47.1585 62.1633 47.1463 54.8533C47.1341 47.5135 53.1894 41.4659 60.5201 41.4992ZM60.4642 43.6178C54.2516 43.6615 49.2043 48.7409 49.262 54.8936C49.3196 61.1128 54.3722 66.1116 60.5568 66.0731C66.7239 66.0328 71.738 60.9885 71.7276 54.8323C71.7171 48.6481 66.6209 43.5757 60.4642 43.6178Z" fill="black" stroke="black" stroke-width="0.5"/>
<path d="M69.3498 54.5641C69.3358 54.7182 69.4074 55.0596 69.2712 55.1997C68.9881 55.4904 68.616 55.8143 68.2439 55.8668C67.8019 55.9281 67.4053 55.6024 67.3162 55.0981C67.2131 54.5204 67.1904 53.9268 67.0664 53.3542C66.4269 50.4022 63.7941 48.2013 60.7874 48.0928C60.2004 48.0718 59.685 47.9387 59.5033 47.3049C59.2849 46.5432 59.823 45.9287 60.7088 45.9654C63.4884 46.0757 65.7648 47.2208 67.4909 49.4077C68.6562 50.882 69.2659 52.5786 69.3498 54.5641Z" fill="black" stroke="black" stroke-width="0.5"/>
</svg>
