<svg width="120" height="100" viewBox="0 0 120 100" fill="none" xmlns="http://www.w3.org/2000/svg">
<rect width="120" height="100" fill="white"/>
<path d="M53.356 80.9984C52.4407 80.8787 51.5239 80.7687 50.6103 80.6361C44.223 79.7142 38.5166 77.2138 33.5119 73.1477C32.2005 72.0835 30.9958 70.8818 29.7895 69.6947C28.7126 68.6353 28.7514 67.6795 29.8202 66.612C43.0685 53.361 56.3167 40.1116 69.5666 26.8606C71.9193 24.5074 74.2721 22.1541 76.6265 19.8009C77.7099 18.7188 78.6364 18.7431 79.7554 19.8138C83.8998 23.7779 87.0627 28.3858 88.9837 33.8136C90.017 36.7313 90.6719 39.7299 90.8886 42.8207C90.9015 42.9986 90.9613 43.1717 91.0002 43.3479C91.0002 44.8408 91.0002 46.3336 91.0002 47.828C90.9597 48.0431 90.9096 48.2582 90.8805 48.475C90.6962 49.8093 90.591 51.1598 90.3242 52.4763C88.5779 61.1065 84.0922 68.0579 77.2409 73.5052C72.5661 77.2219 67.2558 79.5557 61.3553 80.5196C60.1862 80.7105 59.0091 80.8415 57.8351 81C56.341 80.9984 54.8485 80.9984 53.356 80.9984ZM39.4059 62.292C39.4771 62.3325 39.587 62.3875 39.6857 62.457C41.3609 63.6393 42.9521 64.9736 44.7275 65.9796C49.4686 68.666 54.5687 69.5701 59.9405 68.459C66.2355 67.157 71.1787 63.7363 74.8655 58.5317C78.2775 53.7152 79.7683 48.3294 79.1199 42.4293C78.6397 38.0673 76.9418 34.1662 74.3659 30.6371C73.8986 29.9967 73.3908 29.3837 72.9154 28.7756C61.7273 39.9661 50.607 51.0886 39.4059 62.292ZM36.9432 64.9122C35.7822 66.0718 34.6778 67.1748 33.5733 68.2779C40.934 75.797 52.7706 79.3616 64.1835 76.1722C75.1679 73.1024 85.0689 63.1945 86.9447 50.5824C88.4986 40.1326 85.4813 31.1046 78.3114 23.4917C77.3509 24.454 76.4632 25.3435 75.5544 26.2541C77.1536 28.0623 78.5847 30.0808 79.7311 32.2917C82.5803 37.7826 83.6136 43.5857 82.472 49.6847C81.2366 56.2852 77.9411 61.7405 72.8588 66.0993C68.5996 69.7513 63.6758 71.959 58.0696 72.4862C52.9792 72.965 48.1831 71.8765 43.6555 69.5313C41.1911 68.252 38.9467 66.6573 36.9432 64.9122Z" fill="black"/>
<path d="M71.963 41.2965C71.963 42.2378 71.1254 43.0773 70.1843 43.0805C69.2448 43.0837 68.404 42.2459 68.4007 41.303C68.3975 40.3552 69.2108 39.5417 70.1794 39.5255C71.1189 39.5126 71.963 40.3504 71.963 41.2965Z" fill="black"/>
<path d="M58.9767 50.6727C59.0382 49.6926 59.8645 48.9211 60.8136 48.9583C61.758 48.9955 62.5762 49.8737 62.5261 50.8005C62.4759 51.7531 61.606 52.5634 60.6827 52.5165C59.727 52.4696 58.9185 51.5962 58.9767 50.6727Z" fill="black"/>
<path d="M49.5446 60.1762C49.5543 59.2106 50.3628 58.3922 51.312 58.3906C52.2515 58.389 53.0908 59.2268 53.094 60.1681C53.0972 61.111 52.2645 61.9488 51.3201 61.9537C50.3726 61.9585 49.5349 61.1191 49.5446 60.1762Z" fill="black"/>
<path d="M71.2466 49.588C72.2168 49.5783 73.0237 50.3708 73.0334 51.3396C73.0415 52.2906 72.2265 53.1219 71.2741 53.13C70.3314 53.1381 69.4954 52.3165 69.4824 51.3671C69.4711 50.4177 70.2829 49.5977 71.2466 49.588Z" fill="black"/>
<path d="M61.8195 59.0577C62.8107 59.0641 63.5739 59.8372 63.5658 60.8254C63.5561 61.7942 62.7493 62.5932 61.7904 62.5835C60.8379 62.5738 60.023 61.7457 60.0327 60.7963C60.0391 59.8308 60.8396 59.0512 61.8195 59.0577Z" fill="black"/>
</svg>
