<svg width="120" height="100" viewBox="0 0 120 100" fill="none" xmlns="http://www.w3.org/2000/svg">
<rect width="120" height="100" fill="white"/>
<path d="M47.952 18C49.0462 18.291 50.1487 18.5521 51.2313 18.8813C54.1697 19.7743 56.9218 21.0448 59.3147 23.0087C61.5314 24.8279 63.1212 27.0829 63.9776 29.9497C64.1222 29.7519 64.2187 29.6388 64.2952 29.5124C66.9276 25.2104 70.8155 22.9289 75.7727 22.3469C78.8956 21.9794 81.9787 22.2188 85.0418 22.8624C86.5018 23.1684 87.1304 24.0746 86.9508 25.5546C86.5284 29.0418 85.6255 32.3826 83.9176 35.4723C82.6954 37.6823 81.1056 39.5697 78.9522 40.94C78.8856 40.9832 78.8308 41.0431 78.7692 41.0963C83.9276 46.3894 83.6366 53.5782 80.798 58.1246C79.0553 60.915 76.644 62.8839 73.531 63.9648C70.443 65.0374 67.3516 64.9609 64.222 63.8949C64.375 64.7397 64.5529 65.5196 64.6527 66.3078C65.7253 74.832 58.776 82.227 50.187 81.7148C49.3888 81.6666 48.6105 81.5186 47.789 81.6832C47.3617 81.768 46.7564 81.5801 46.4088 81.2974C45.8152 80.8151 45.431 80.9315 44.864 81.3306C43.7049 82.1471 42.1202 81.6965 41.5631 80.421C41.3885 80.0236 41.3303 79.5314 41.3702 79.0957C41.4217 78.5403 41.297 78.2426 40.7516 78.0164C39.654 77.5608 39.2633 76.8208 39.3098 75.6052C39.3165 75.4339 39.2599 75.2377 39.1701 75.0897C35.7761 69.5489 36.8121 62.4947 41.2687 58.1063C41.3269 58.0498 41.3702 57.9783 41.4134 57.9217C36.1785 54.8137 33.5495 50.2839 34.0633 44.1727C34.4873 39.0858 38.0926 33.9008 44.4399 32.188C44.3551 31.3549 44.2587 30.5168 44.1838 29.6754C43.9045 26.4776 44.2952 23.3496 45.1134 20.2566C45.3828 19.2472 45.8285 18.4257 46.8312 18C47.2054 18 47.5779 18 47.952 18ZM56.3664 56.4534C56.25 56.5232 56.1585 56.5681 56.077 56.628C52.4319 59.2853 48.4259 60.0386 44.0541 58.9311C43.833 58.8746 43.4854 58.9843 43.3058 59.1423C40.7832 61.3673 39.4428 64.1793 39.2932 67.5334C39.1967 69.7102 39.7106 71.7556 40.7898 73.6347C41.4384 73.6263 41.4051 73.2289 41.3569 72.8132C41.2322 71.7489 41.5531 70.8742 42.5242 70.3404C43.4688 69.8216 44.3717 69.9962 45.1832 70.658C45.5059 70.9208 45.7586 70.964 46.1012 70.6796C46.9243 69.9962 47.8456 69.8133 48.8117 70.3554C49.7796 70.8991 50.0988 71.7838 49.9409 72.8414C49.8694 73.322 50.0423 73.5465 50.478 73.7145C51.4658 74.0936 52.0262 74.8419 52.0228 75.9012C52.0195 76.9638 51.4408 77.7088 50.458 78.0763C49.9908 78.2509 49.8594 78.512 49.9475 78.9626C49.9824 79.1406 49.9824 79.3252 50.0024 79.548C50.2285 79.5679 50.4298 79.5979 50.6326 79.6045C58.4118 79.854 64.3018 72.3875 62.2398 64.8827C61.8623 63.5108 61.3901 62.1954 60.0547 61.4172C59.8269 61.2841 59.6457 61.0696 59.4494 60.8834C58.1258 59.6212 57.1263 58.1346 56.3664 56.4534ZM59.4528 45.6111C59.4478 39.1573 54.2378 33.9424 47.789 33.9341C41.3402 33.9258 36.117 39.1357 36.107 45.5878C36.0971 52.0566 41.3502 57.3247 47.8007 57.3114C54.2345 57.2965 59.4578 52.0533 59.4528 45.6111ZM68.9497 62.5929C76.072 62.6045 81.5363 56.4534 80.5718 49.3926C79.9599 44.9193 77.4821 41.7282 73.2866 40.0819C69.1193 38.4456 65.1982 39.139 61.6395 41.8729C61.252 42.1705 61.1889 42.4549 61.2803 42.9205C62.1101 47.2109 61.129 51.0572 58.3569 54.4329C58.0925 54.7555 58.0559 54.9917 58.2072 55.3658C59.9649 59.7127 64.2237 62.5862 68.9497 62.5929ZM69.2108 37.0787C69.3654 37.1169 69.422 37.1402 69.4802 37.1419C72.0943 37.22 74.4772 38.0132 76.669 39.43C76.8236 39.5298 77.1412 39.5215 77.3142 39.43C78.5581 38.7699 79.5874 37.8436 80.4737 36.7577C82.4742 34.3116 83.5751 31.448 84.2868 28.4149C84.5479 27.2974 84.7092 26.1566 84.922 24.9926C81.2536 24.2393 77.7066 24.0098 74.1364 24.798C71.1098 25.4665 68.7186 27.0879 66.8494 29.5373C65.574 31.2102 64.7392 33.0927 64.1322 35.0848C63.8146 36.1242 63.5602 37.1834 63.2625 38.2909C64.3018 37.98 65.1982 37.659 66.1211 37.4562C66.585 37.3531 66.8129 37.1502 67.0191 36.7428C68.9248 32.9463 71.8665 30.2857 75.8458 28.7857C76.6324 28.4897 77.2277 28.6959 77.4506 29.3195C77.675 29.9514 77.3657 30.4669 76.5725 30.7795C76.3214 30.8777 76.0687 30.9675 75.8226 31.0772C72.9889 32.3477 70.8055 34.3265 69.2108 37.0787ZM47.38 20.1152C46.2858 23.9932 45.7619 27.8561 46.5851 31.8538C49.9741 31.611 52.9956 32.4641 55.7827 34.3698C55.7727 34.1985 55.7827 34.1336 55.7644 34.0804C55.6696 33.8077 55.5732 33.5333 55.4667 33.2639C54.5671 30.9907 53.1985 29.0435 51.4175 27.3722C50.8555 26.8451 50.8139 26.2614 51.2479 25.7858C51.6636 25.3302 52.2889 25.3218 52.8493 25.8124C53.3149 26.2215 53.7739 26.6472 54.1813 27.1128C56.5776 29.8466 57.7898 33.1492 58.7876 36.5781C59.1435 37.7987 59.8236 38.9245 60.3574 40.0936C60.4505 40.0919 60.5453 40.0886 60.6384 40.0869C60.7582 39.7876 60.9128 39.4982 60.991 39.1873C61.4582 37.3447 61.9106 35.4989 62.3612 33.6531C62.4194 33.4169 62.5009 33.1642 62.471 32.9314C62.027 29.5889 60.6085 26.7702 57.9445 24.6434C54.8714 22.1939 51.2912 20.9201 47.38 20.1152ZM47.794 72.138C46.3207 73.4151 44.9371 73.3669 43.6218 72.133C43.4788 72.9861 43.532 73.8226 43.1844 74.4279C42.8252 75.0498 42.0736 75.4456 41.5481 75.8929C42.0686 76.3286 42.8169 76.7044 43.1611 77.3097C43.517 77.9366 43.4821 78.7864 43.6367 79.6444C44.9571 78.354 46.3589 78.4172 47.6843 79.6361C47.8256 78.7964 47.7708 77.9566 48.1216 77.3513C48.4808 76.7293 49.2358 76.3369 49.8926 75.7798C48.1399 75.2593 47.4881 74.0138 47.794 72.138Z" fill="black"/>
<path d="M47.8206 42.0093C47.6643 42.4533 47.9021 42.7393 48.4425 42.9521C49.3771 43.3213 49.8926 44.0713 49.8976 45.074C49.9026 46.0768 49.3987 46.8384 48.4642 47.2076C47.9237 47.4204 47.7375 47.6848 47.8189 48.2635C47.962 49.2812 47.5911 50.1143 46.6749 50.6199C45.7386 51.137 44.819 50.9973 44.0142 50.3255C43.6251 50.0013 43.369 50.0778 42.9998 50.3538C41.8308 51.2285 40.384 51.0955 39.669 49.973C39.3713 49.5057 39.2649 48.8538 39.2549 48.2818C39.2449 47.743 39.1934 47.4254 38.6213 47.2092C37.6834 46.8567 37.1663 46.1 37.1613 45.0956C37.1563 44.063 37.6884 43.3047 38.6496 42.9355C39.1851 42.731 39.2948 42.435 39.2466 41.9078C39.2083 41.4888 39.2483 41.0215 39.4029 40.634C39.945 39.2804 41.6029 38.8181 42.8318 39.7045C43.3457 40.0753 43.6783 40.1534 44.2071 39.7227C44.9654 39.1041 45.865 39.0775 46.7131 39.5664C47.5895 40.072 47.937 40.8801 47.8206 42.0093ZM45.5873 48.6543C45.702 47.9791 45.6505 47.141 46.0014 46.5391C46.3639 45.9171 47.1172 45.5263 47.6393 45.0857C47.1205 44.655 46.3689 44.2808 46.023 43.6755C45.6655 43.0503 45.702 42.2005 45.5773 41.5187C44.9537 41.7515 44.257 42.2188 43.5602 42.2155C42.8418 42.2138 42.1234 41.7548 41.4666 41.5187C41.3552 42.1822 41.41 43.0187 41.0608 43.624C40.7 44.2476 39.9467 44.645 39.4145 45.0973C39.9217 45.5147 40.6767 45.8839 41.0276 46.4892C41.3884 47.1128 41.3552 47.9625 41.4832 48.6593C42.1101 48.4215 42.8069 47.9492 43.502 47.9509C44.2187 47.9525 44.9354 48.4148 45.5873 48.6543Z" fill="black"/>
<path d="M75.4534 49.3877C75.1824 49.968 75.5998 50.1909 76.1336 50.422C77.0332 50.8128 77.5155 51.5478 77.5105 52.5273C77.5055 53.5034 77.0365 54.2567 76.1219 54.6192C75.5399 54.8504 75.3703 55.1663 75.4468 55.7783C75.5715 56.7727 75.1741 57.5759 74.2844 58.0631C73.3715 58.562 72.4718 58.4406 71.677 57.7937C71.2862 57.4745 71.0168 57.4645 70.6177 57.7921C69.8062 58.4572 68.8832 58.5736 67.957 58.0365C67.0574 57.5127 66.7015 56.6862 66.8561 55.6619C66.931 55.163 66.8229 54.8753 66.3007 54.6791C65.3429 54.3199 64.7858 53.5799 64.7808 52.5439C64.7742 51.4846 65.3196 50.7313 66.3107 50.3538C66.7747 50.1776 66.9459 49.9331 66.8645 49.4292C66.6948 48.3899 67.0374 47.5335 67.9686 46.9997C68.8982 46.4676 69.8178 46.5923 70.6276 47.2591C71.0351 47.595 71.3144 47.5418 71.6952 47.2359C72.4968 46.5923 73.3947 46.4826 74.3027 46.9914C75.1874 47.4886 75.5299 48.2935 75.4534 49.3877ZM68.9481 56.1341C69.743 55.8514 70.463 55.3941 71.1797 55.3975C71.8898 55.4008 72.5965 55.8681 73.1885 56.0892C73.3166 55.3892 73.2783 54.551 73.6342 53.9457C73.9951 53.3321 74.7467 52.9463 75.2472 52.5289C74.7051 52.0666 73.9651 51.6808 73.6176 51.0722C73.2717 50.4636 73.3199 49.6321 73.1952 48.8988C72.8776 48.9736 69.3721 48.9753 69.1011 48.8971C68.9764 49.6288 69.0263 50.4669 68.6737 51.0689C68.3095 51.6925 67.5529 52.0866 66.8828 52.6536C68.6854 53.1309 69.2956 54.4014 68.9481 56.1341Z" fill="black"/>
</svg>
