<svg width="120" height="100" viewBox="0 0 120 100" fill="none" xmlns="http://www.w3.org/2000/svg">
<rect width="120" height="100" fill="white"/>
<path d="M97.9914 74.6291C97.5254 75.9605 97.0535 77.2919 96.5996 78.6273C96.5514 78.7699 96.5975 78.9546 96.6277 79.1133C96.9229 80.6274 97.2603 82.1335 97.5094 83.6537C97.6781 84.6879 97.7584 85.7421 97.8187 86.7904C97.8548 87.429 97.3808 87.9149 96.7904 87.9752C96.222 88.0334 95.7078 87.6117 95.5833 86.9791C95.5552 86.8326 95.5311 86.6839 95.515 86.5333C95.3463 84.967 95.1917 83.3966 95.0089 81.8323C94.7659 79.7498 93.7557 78.1092 91.8979 77.1533C87.3649 74.8199 82.7878 72.5728 78.2267 70.2915C78.1846 70.2714 78.1283 70.2775 78.0158 70.2634C77.3631 72.0808 77.3631 73.9182 77.9114 75.7597C78.9819 79.3542 82.117 81.8724 85.8747 82.1857C86.1499 82.2078 86.425 82.2279 86.6982 82.262C87.373 82.3423 87.7405 82.742 87.7546 83.4087C87.7787 84.5352 87.7787 85.6638 87.7546 86.7904C87.7405 87.4752 87.2505 87.9671 86.6419 87.9792C86.0032 87.9932 85.5273 87.4932 85.5052 86.7522C85.4871 86.1518 85.5413 85.5453 85.475 84.9509C85.4529 84.7501 85.1939 84.485 84.985 84.4107C83.7438 83.9689 82.4303 83.6938 81.2453 83.1416C78.777 81.9889 76.375 80.6977 73.9448 79.4647C73.7279 79.3542 73.503 79.2599 73.1917 79.1153C73.1917 80.8965 73.1917 82.5893 73.1917 84.2822C73.1917 85.1096 73.2037 85.9369 73.1856 86.7623C73.1696 87.5013 72.7679 87.9531 72.0368 87.9712C70.6852 88.0033 69.3295 88.0073 67.9779 87.9691C67.1926 87.9471 66.8391 87.4631 66.8371 86.5173C66.8311 83.2601 66.813 80.0029 66.8512 76.7477C66.8592 76.0749 66.6523 75.7396 66.0518 75.4404C61.4887 73.1611 56.9437 70.8417 52.3947 68.5364C52.1537 68.4139 51.9067 68.3014 51.5793 68.1448C51.5652 68.4661 51.5431 68.7252 51.5431 68.9862C51.5411 74.7978 51.5431 80.6113 51.5411 86.4229C51.5411 87.6157 51.1736 87.9812 49.9706 87.9852C48.8679 87.9892 47.7653 87.9912 46.6627 87.9852C45.5722 87.9792 45.1785 87.5896 45.1685 86.4871C45.1564 85.1598 45.1464 83.8304 45.1765 82.505C45.1866 82.019 45.06 81.7419 44.584 81.5351C42.4551 80.6033 40.3503 79.6133 38.2194 78.6855C37.9242 78.557 37.4783 78.555 37.1851 78.6815C35.0301 79.6173 32.9032 80.6153 30.7502 81.5572C30.2963 81.756 30.1939 82.0251 30.2019 82.4769C30.226 83.8545 30.218 85.2321 30.2079 86.6096C30.2019 87.5715 29.8022 87.9732 28.8342 87.9832C27.6814 87.9953 26.5285 87.9892 25.3757 87.9852C24.2269 87.9812 23.8574 87.6137 23.8574 86.449C23.8533 80.1615 23.8554 73.872 23.8554 67.5845C23.8554 57.088 23.8533 46.5895 23.8614 36.0929C23.8614 35.6411 23.8051 35.3358 23.3271 35.0848C21.5899 34.1771 20.7062 32.2935 21.0878 30.4962C21.5075 28.5182 23.1022 27.1246 25.1749 27.0302C26.6249 26.9639 28.081 26.996 29.5331 27.0161C30.3465 27.0282 30.8124 27.4921 30.8004 28.1909C30.7883 28.8877 30.3365 29.2974 29.4849 29.3134C28.0067 29.3416 26.5285 29.3074 25.0524 29.3677C24.1566 29.4038 23.5079 30.0765 23.3231 30.9842C23.1685 31.7513 23.5501 32.6389 24.2912 33.0124C24.6547 33.1952 25.0965 33.2916 25.5063 33.2976C27.5608 33.3257 29.6154 33.3096 31.67 33.3096C36.8316 33.3096 41.9932 33.3096 47.1548 33.3096C47.4259 33.3096 47.6971 33.3096 48.1489 33.3096C47.8537 33.0827 47.677 32.9743 47.5324 32.8337C46.5121 31.8477 45.4637 30.8858 44.5017 29.8456C44.1824 29.5002 43.9333 29.3074 43.4553 29.3094C40.5733 29.3295 32.4151 29.3195 29.5331 29.3175C29.2841 29.3175 29.029 29.3235 28.784 29.2833C28.1955 29.1869 27.828 28.8355 27.7938 28.2331C27.7577 27.5884 28.1252 27.2009 28.7297 27.0543C28.9687 26.996 29.2278 27.0101 29.4769 27.0101C31.9331 27.0081 39.6655 27.0081 42.1217 27.0081C42.3929 27.0081 42.664 27.0081 42.7885 27.0081C42.6982 25.3835 42.4692 23.8192 42.5515 22.2709C42.8187 17.2024 47.2552 12.68 52.3003 12.0856C54.8329 11.7864 57.1586 12.2804 59.402 13.4271C70.0204 18.8571 80.6509 24.265 91.2673 29.695C95.5873 31.9059 97.8488 35.4583 97.8126 40.318C97.7865 43.6375 96.3927 46.4147 93.8963 48.6177C93.2375 49.2 92.5888 49.202 92.1188 48.6538C91.677 48.1377 91.7493 47.5052 92.3719 46.9449C94.1794 45.3183 95.2519 43.3242 95.4789 40.8883C95.8344 37.0568 93.9947 33.6771 90.5101 31.8758C86.3788 29.7392 82.2295 27.6386 78.0861 25.5241C71.4484 22.1363 64.8146 18.7426 58.1709 15.3669C52.7522 12.6158 46.5101 15.379 45.0118 21.1724C44.0217 24.9979 45.6384 29.2191 49.1411 31.1208C53.8849 33.6952 58.7453 36.0568 63.5714 38.4786C63.8124 38.5991 64.2483 38.4886 64.5254 38.3501C68.9057 36.1532 73.276 33.9342 77.6483 31.7192C77.8491 31.6168 78.046 31.5063 78.2528 31.42C78.9417 31.1328 79.5583 31.3437 79.8415 31.9501C80.1066 32.5184 79.9037 33.1148 79.253 33.4502C77.2768 34.4703 75.2884 35.4664 73.3021 36.4704C65.4935 40.4205 57.6728 44.3484 49.8802 48.3265C46.5643 50.0193 44.7628 52.7725 44.7789 56.5257C44.7949 60.2669 46.5924 63.01 49.9063 64.7129C54.6421 67.1468 59.402 69.5344 64.1519 71.9442C67.8754 73.8319 71.599 75.7235 75.3226 77.6112C75.5857 77.7457 75.8568 77.8642 76.3107 78.0751C74.8888 74.5628 74.8285 71.2112 76.5095 67.95C78.1866 64.6988 80.8919 62.763 84.5592 61.9276C84.2158 61.7328 83.9547 61.5702 83.6835 61.4316C76.3469 57.7105 69.0082 53.9935 61.6695 50.2744C61.4245 50.1499 61.1634 50.0434 60.9465 49.8788C60.4825 49.5233 60.2877 49.0635 60.5568 48.4952C60.8199 47.9409 61.2778 47.7441 61.8583 47.8767C62.1214 47.9369 62.3684 48.0735 62.6134 48.198C67.0078 50.423 71.4062 52.642 75.7865 54.8951C76.3388 55.1783 76.7485 55.1662 77.2948 54.8851C80.9381 53.0034 88.7557 48.7459 92.411 46.8864C92.9352 46.6193 93.4474 46.4807 93.9515 46.8884C94.6182 47.4266 94.4516 48.4025 93.592 48.8463C91.4149 49.9689 85.0734 53.4874 82.8882 54.5959C81.6631 55.2164 80.436 55.8349 79.1064 56.5076C79.3715 56.6643 79.5603 56.7908 79.7631 56.8932C83.6434 58.8612 87.5216 60.8271 91.4058 62.7891C94.9707 64.5904 97.18 67.4058 97.8649 71.3739C97.8809 71.4623 97.9532 71.5426 98.0014 71.6269C97.9914 72.625 97.9914 73.627 97.9914 74.6291ZM45.1584 68.8256C45.1584 67.7994 45.1283 66.7712 45.1705 65.7471C45.1946 65.1949 45.0219 64.9057 44.4977 64.6768C42.415 63.7691 40.3624 62.7871 38.2777 61.8874C37.9423 61.7429 37.4361 61.7449 37.1007 61.8895C34.9678 62.8092 32.865 63.7972 30.7442 64.741C30.3485 64.9157 30.1858 65.1286 30.1919 65.5804C30.218 67.707 30.2139 69.8357 30.1939 71.9623C30.1898 72.376 30.3204 72.5788 30.7 72.7475C32.867 73.7114 35.018 74.7154 37.1891 75.6693C37.4663 75.7918 37.886 75.7998 38.1592 75.6814C40.3343 74.7335 42.4973 73.7555 44.6423 72.7434C44.8813 72.631 45.1223 72.2474 45.1363 71.9763C45.1906 70.9301 45.1564 69.8758 45.1584 68.8256ZM30.2019 51.8769C30.2019 52.9793 30.1738 54.0818 30.224 55.1823C30.236 55.4313 30.459 55.7847 30.6799 55.8891C32.851 56.9093 35.0361 57.8973 37.2313 58.8612C37.4884 58.9736 37.876 58.9817 38.1351 58.8732C39.4486 58.321 40.744 57.7306 42.0294 57.1141C42.2242 57.0197 42.4411 56.7245 42.4431 56.5197C42.4812 53.8469 43.3208 51.4732 44.9676 49.3687C45.4075 48.8064 45.2267 48.2 44.6021 47.9168C42.4652 46.9429 40.3302 45.9629 38.1772 45.0231C37.9021 44.9026 37.4823 44.9026 37.2052 45.0231C35.0522 45.9629 32.9233 46.9549 30.7763 47.9068C30.3565 48.0935 30.1718 48.3164 30.1898 48.7984C30.23 49.8226 30.2019 50.8507 30.2019 51.8769ZM79.0662 68.1127C79.1847 68.189 79.2651 68.2512 79.3514 68.2974C84.519 70.9944 89.8895 73.3017 94.8964 76.2999C96.6899 72.4462 94.8522 67.3034 90.8395 65.0884C86.8749 62.8996 81.5948 64.237 79.0662 68.1127ZM27.8942 85.6538C27.8942 68.94 27.8942 52.3026 27.8942 35.6491C27.2857 35.6491 26.7254 35.6491 26.167 35.6491C26.167 52.3428 26.167 68.9802 26.167 85.6538C26.7555 85.6538 27.2977 85.6538 27.8942 85.6538ZM30.2019 35.6351C30.2019 36.6291 30.1718 37.5307 30.222 38.4264C30.234 38.6513 30.459 38.9666 30.6698 39.065C32.861 40.0911 35.0662 41.0872 37.2775 42.0671C37.5004 42.1655 37.8338 42.1997 38.0467 42.1053C40.282 41.1153 42.5053 40.0991 44.7246 39.071C44.8994 38.9907 45.1283 38.7818 45.1343 38.6232C45.1725 37.6332 45.1524 36.6431 45.1524 35.633C40.1214 35.6351 35.2068 35.6351 30.2019 35.6351ZM51.6034 35.4202C51.6034 38.6854 51.6034 41.7478 51.6034 44.8845C54.859 43.2399 58.0544 41.6233 61.3301 39.9686C61.0589 39.816 60.8701 39.7015 60.6733 39.6031C58.2934 38.3942 55.9235 37.1693 53.5254 35.9945C52.9691 35.7214 52.3244 35.629 51.6034 35.4202ZM47.5002 66.0202C47.5002 72.5989 47.5002 79.0952 47.5002 85.6417C48.0787 85.6417 48.641 85.6417 49.2054 85.6417C49.2355 85.5373 49.2716 85.469 49.2716 85.4007C49.2757 79.3904 49.2797 73.38 49.2696 67.3697C49.2696 67.197 49.1853 66.948 49.0567 66.8656C48.5808 66.5664 48.0686 66.3214 47.5002 66.0202ZM49.2797 35.6431C48.637 35.6431 48.0786 35.6431 47.5183 35.6431C47.5183 39.4405 47.5183 43.1877 47.5183 47.0071C47.8979 46.7943 48.1811 46.5754 48.5024 46.469C49.1612 46.2521 49.3058 45.8324 49.2957 45.1697C49.2556 42.3222 49.2797 39.4746 49.2797 36.6271C49.2797 36.3098 49.2797 35.9925 49.2797 35.6431ZM70.9322 85.6497C70.9322 83.1416 70.9362 80.6937 70.9222 78.2458C70.9222 78.1032 70.8137 77.8963 70.6932 77.8301C70.2052 77.557 69.695 77.326 69.1548 77.0609C69.1548 79.9808 69.1548 82.7962 69.1548 85.6477C69.7392 85.6497 70.2815 85.6497 70.9322 85.6497ZM40.4568 77.1714C42.0936 77.9124 43.5698 78.5811 45.0962 79.2719C45.0962 77.8019 45.0962 76.4665 45.0962 75.0608C43.5537 75.7637 42.0896 76.4304 40.4568 77.1714ZM34.9236 43.5311C33.2848 42.786 31.7885 42.1053 30.2541 41.4064C30.2541 42.8583 30.2541 44.2118 30.2541 45.6456C31.8026 44.9468 33.2747 44.2801 34.9236 43.5311ZM40.4548 43.529C42.1057 44.2761 43.5778 44.9428 45.1082 45.6356C45.1082 44.1817 45.1082 42.8503 45.1082 41.4205C43.5698 42.1173 42.1077 42.778 40.4548 43.529ZM30.232 79.304C31.8066 78.5871 33.2888 77.9104 34.9216 77.1674C33.2687 76.4183 31.7825 75.7456 30.232 75.0448C30.232 76.4947 30.232 77.8381 30.232 79.304ZM34.9317 60.3492C33.2506 59.5881 31.7684 58.9174 30.2501 58.2306C30.2501 59.6805 30.2501 61.034 30.2501 62.4698C31.7925 61.771 33.2607 61.1063 34.9317 60.3492ZM43.6983 61.8152C43.3509 60.8934 43.0556 60.1143 42.7504 59.305C42.0374 59.6323 41.3365 59.9556 40.4688 60.3532C41.6397 60.8834 42.6138 61.3232 43.6983 61.8152Z" fill="black"/>
</svg>
