<svg width="120" height="100" viewBox="0 0 120 100" fill="none" xmlns="http://www.w3.org/2000/svg">
<rect width="120" height="100" fill="white"/>
<path d="M16.0021 46.7439C16.2938 46.508 16.2432 46.1392 16.3466 45.8346C17.1805 43.3723 18.7379 41.4872 21.1912 40.6283C26.0772 38.9173 31.0642 37.6323 36.3154 37.6483C44.1647 37.6712 51.3271 39.8472 57.8601 44.1671C60.782 46.1003 63.596 48.2258 66.8693 49.5749C70.4896 51.0661 74.2155 52.1014 78.1757 51.8952C81.9361 51.7005 85.4691 48.3564 85.9813 44.6412C86.0572 44.0892 85.917 43.7891 85.4714 43.4479C81.4032 40.3305 79.3588 36.1824 79.2577 31.0792C79.2347 29.9408 79.7286 29.4712 80.8404 29.4323C84.6973 29.2972 88.1751 30.3508 91.2188 32.7329C91.5794 33.0146 91.7678 32.9345 92.0756 32.694C95.156 30.2981 98.6706 29.272 102.555 29.4346C103.499 29.4735 104.014 29.9866 104 30.9578C103.933 36.061 101.928 40.2343 97.8735 43.37C97.313 43.8029 97.1109 44.2083 97.1132 44.9046C97.1292 60.6838 88.0258 74.2276 73.3863 80.2355C72.5984 80.5585 71.7967 80.87 70.9766 81.0968C70.4414 81.2433 70.2599 81.4839 70.2392 82.0336C70.1611 84.1706 70.0394 86.3076 69.6397 88.4149C69.4306 89.5258 68.7828 89.9564 67.6618 89.6792C63.8234 88.7241 60.6947 86.594 58.0346 83.7514C57.4581 83.1376 56.8907 82.9085 56.0614 82.8604C46.1448 82.2832 36.83 79.6056 28.3743 74.3787C21.3038 70.0085 17.3183 63.5218 16.1766 55.3035C16.1583 55.1683 16.1881 55.0126 15.9998 54.9668C16.0021 52.2273 16.0021 49.4856 16.0021 46.7439ZM35.5574 40.4496C30.9746 40.4794 26.64 41.7185 22.3582 43.157C20.463 43.7937 19.3375 45.223 18.8987 47.1814C18.6368 48.3426 18.8252 49.5177 18.7448 50.6812C18.7058 51.231 18.8597 51.4096 19.4385 51.389C21.0396 51.3295 22.6384 51.3363 24.2028 51.799C27.5359 52.7885 29.9432 54.866 31.5811 57.8986C33.5911 61.6252 36.2833 64.7586 39.7726 67.2003C43.7489 69.981 48.1777 71.4881 52.9948 71.8935C53.8194 71.9623 54.2697 72.3562 54.5683 73.1006C55.2459 74.7933 56.0752 76.4127 57.0515 77.9565C59.344 81.5755 62.2315 84.544 66.233 86.287C67.1059 86.6672 67.1335 86.6283 67.2254 85.664C67.4275 83.5865 67.4574 81.5022 67.4321 79.4178C67.4069 77.5305 67.2507 75.6591 66.9176 73.7992C66.7269 72.7342 67.2346 72.0035 68.1488 71.9462C68.4911 71.9256 68.838 71.9394 69.1779 71.976C73.8962 72.4707 78.3457 71.5362 82.4989 69.319C84.8397 68.0707 87.1184 66.6689 88.6299 64.3715C89.6636 62.798 90.5549 61.1465 91.3267 59.4287C93.6009 54.3712 94.5036 49.0527 94.3704 43.5395C94.352 42.7355 94.6185 42.1812 95.3168 41.7827C96.0381 41.3704 96.6767 40.8367 97.2785 40.2641C99.3276 38.308 100.554 35.9144 101.076 33.1452C101.202 32.4695 101.172 32.158 100.258 32.2725C97.4026 32.6275 94.947 33.7453 92.8543 35.6922C91.9286 36.5512 91.3405 36.5512 90.4148 35.6922C88.2256 33.6583 85.6391 32.5245 82.662 32.2405C82.2416 32.2015 82.0648 32.2748 82.1521 32.7192C82.1957 32.9413 82.1957 33.175 82.2416 33.3972C82.9928 37.007 84.881 39.8495 88.0166 41.8308C88.6345 42.2201 88.8918 42.7195 88.8918 43.4547C88.878 49.8956 82.9009 55.3172 76.3955 54.7538C72.6719 54.4331 69.0861 53.565 65.6473 52.0807C62.3716 50.6675 59.4841 48.6221 56.553 46.6454C50.2061 42.3622 43.2022 40.319 35.5574 40.4496ZM55.0025 80.0156C54.4856 79.1178 54.0124 78.3436 53.5874 77.5419C53.1487 76.715 52.7214 75.8744 52.3539 75.0132C52.1632 74.5665 51.8255 74.5665 51.4603 74.5116C50.53 74.3719 49.5882 74.2757 48.6739 74.0626C40.1378 72.0791 33.7013 67.2873 29.3827 59.676C28.8475 58.7346 28.3238 57.7864 27.5703 56.9893C25.4294 54.724 22.7395 54.0002 19.7142 54.1032C19.0296 54.1262 18.8367 54.3048 18.9332 54.9713C19.898 61.6046 22.9462 67.0606 28.3812 71.0186C32.9157 74.3215 38.0911 76.3692 43.4549 77.9404C47.19 79.0353 51.0078 79.6927 55.0025 80.0156ZM79.2462 73.955C79.0877 73.758 78.9384 73.7878 78.8143 73.8221C76.0509 74.6215 73.2346 74.972 70.361 74.8414C69.9015 74.8208 69.9337 75.0636 69.9613 75.3682C70.0486 76.36 70.1267 77.3518 70.2162 78.4192C73.4621 77.3884 76.4529 75.895 79.2462 73.955Z" fill="#0E0D0D"/>
<path d="M45.1777 10.2383C46.2987 10.2681 47.6976 11.0171 48.5246 12.6387C49.3309 14.2215 49.2022 15.7904 48.1501 17.2243C47.0429 18.7337 45.4832 19.2422 43.6891 18.9147C42.8185 18.7566 42.1937 18.9903 41.6125 19.5789C40.7902 20.4127 39.9448 21.2258 39.1294 22.0641C38.6378 22.568 38.0842 22.7467 37.4295 22.465C36.7955 22.1901 36.5911 21.6679 36.6232 21.0059C36.7082 19.3064 36.4349 17.5908 36.954 15.9096C37.9808 12.5906 41.0566 10.2589 45.1777 10.2383ZM39.4073 17.5976C39.5015 17.6068 39.5406 17.6228 39.5566 17.6091C39.7588 17.4579 39.9586 17.3022 40.1539 17.1441C41.2841 16.2325 42.5704 15.8615 43.997 16.1592C44.8101 16.3287 45.4763 16.1982 45.961 15.5041C46.3607 14.9292 46.3354 14.3314 45.9518 13.7473C45.4993 13.0602 44.8308 12.9227 44.0751 13.0327C41.5712 13.3992 40.0551 14.872 39.4073 17.5976Z" fill="#0E0D0D"/>
<path d="M38.0039 31.7892C38.0039 32.3595 37.9878 32.9298 38.0085 33.5002C38.0315 34.153 37.7375 34.6202 37.1586 34.8493C36.5912 35.0715 36.0422 34.9707 35.5874 34.508C34.7466 33.6536 33.8829 32.8176 33.0468 31.9587C32.4679 31.3654 31.8316 31.1364 30.9702 31.2761C28.526 31.6769 26.415 30.4103 25.7948 28.2572C25.1906 26.1614 26.2312 23.8274 28.1907 22.9708C29.7917 22.2699 31.3928 22.5653 32.9388 23.1517C35.9756 24.3038 37.981 27.2563 38.0016 30.5042C38.0062 30.9325 38.0039 31.3608 38.0039 31.7892ZM35.0406 30.0003C35.0705 29.7941 35.1027 29.6911 35.0981 29.5903C34.9763 27.3433 31.9809 24.9887 29.7803 25.4033C28.9303 25.5636 28.3262 26.2966 28.3905 27.0868C28.464 27.9869 29.2014 28.626 30.1455 28.5779C30.5406 28.5573 30.9311 28.4428 31.3285 28.4244C32.7757 28.3626 33.9679 28.9581 35.0406 30.0003Z" fill="#0E0D0D"/>
<path d="M40.7534 31.3729C40.5421 28.8579 41.3346 26.4369 43.4824 24.5884C45.2925 23.0309 47.3967 22.2246 49.8087 22.756C52.0369 23.2462 53.4266 25.3947 53.1073 27.6577C52.7972 29.8589 50.7643 31.4851 48.4878 31.3546C48.2305 31.3408 47.9664 31.3385 47.7206 31.2767C46.9419 31.0774 46.3285 31.3454 45.791 31.8905C44.987 32.7037 44.1578 33.4893 43.3721 34.3185C42.8737 34.8453 42.3109 35.127 41.6171 34.8613C40.9096 34.5887 40.7006 33.9932 40.7488 33.2648C40.781 32.7243 40.7534 32.1814 40.7534 31.3729ZM43.5169 29.9871C43.6639 29.9551 43.7718 29.9642 43.8201 29.9138C45.1202 28.6518 46.6249 28.1868 48.435 28.5579C49.4802 28.7732 50.3508 27.9921 50.3691 27.0072C50.3852 26.0543 49.5192 25.3031 48.4671 25.3786C45.8898 25.5619 43.9786 27.3622 43.5169 29.9871Z" fill="#0E0D0D"/>
<path d="M39.3478 54.1214C37.0461 54.1145 35.2451 52.2913 35.2543 49.9802C35.2612 47.6965 37.1081 45.8825 39.4121 45.8916C41.7023 45.9008 43.5124 47.7378 43.5055 50.0443C43.4964 52.3371 41.6724 54.1283 39.3478 54.1214ZM40.7444 50.0512C40.7697 49.3594 40.1219 48.6746 39.4167 48.6494C38.7207 48.6242 38.0338 49.2701 38.0108 49.9733C37.9879 50.6742 38.6265 51.3476 39.3386 51.3705C40.0461 51.3934 40.7191 50.7612 40.7444 50.0512Z" fill="#0E0D0D"/>
</svg>
