<svg width="120" height="100" viewBox="0 0 120 100" fill="none" xmlns="http://www.w3.org/2000/svg">
<rect width="120" height="100" fill="white"/>
<path d="M23.0006 46.983C23.3193 46.2047 23.2758 45.3631 23.3935 44.554C25.4758 30.2786 35.9505 18.1425 49.9795 14.4592C64.7853 10.5731 77.536 14.4845 87.8712 25.7698C92.8125 31.1655 95.6861 37.6615 96.6403 44.9124C97.9983 55.2384 95.5104 64.6088 89.0808 72.828C83.5619 79.8816 76.3355 84.307 67.59 86.2311C66.0926 86.5605 64.5716 86.8193 63.0271 86.8609C62.9112 86.8646 62.7809 86.841 62.7429 87.0003C60.8163 87.0003 58.8898 87.0003 56.9614 87.0003C56.9234 86.841 56.793 86.8646 56.6771 86.8555C54.5188 86.6745 52.4022 86.2799 50.3108 85.7188C36.28 81.9522 25.4993 69.9429 23.3935 55.481C23.2758 54.6701 23.3193 53.8303 23.0006 53.052C23.0006 51.0284 23.0006 49.0066 23.0006 46.983ZM26.1113 49.946C26.0443 68.4659 41.0891 83.8382 59.9237 83.8925C78.4504 83.9468 93.8283 68.9166 93.8845 50.089C93.9388 31.5691 78.903 16.1968 60.0685 16.1406C41.5418 16.0882 26.1548 31.1184 26.1113 49.946Z" fill="#0B0A0A"/>
<path d="M87.7427 49.995C87.7482 65.2768 75.2926 77.7495 60.0197 77.7549C44.7322 77.7604 32.2549 65.3094 32.2495 50.0402C32.2441 34.7276 44.7214 22.2676 60.045 22.2803C75.2799 22.293 87.7373 34.7584 87.7427 49.995ZM59.9762 74.6399C73.4928 74.7033 84.5487 63.722 84.6139 50.0547C84.6773 36.6716 73.8767 25.4532 60.0504 25.4043C46.5483 25.3555 35.3964 36.2553 35.3693 50.0167C35.3439 63.5754 46.3582 74.5766 59.9762 74.6399Z" fill="#0B0A0A"/>
<path d="M60.657 28.5625C62.158 28.5752 64.3109 28.8883 66.4131 29.5272C67.2261 29.7752 67.7077 30.3761 67.6407 31.1779C67.4108 33.8839 66.6412 36.4016 64.836 38.503C61.9118 41.9076 57.2783 41.6325 54.6927 37.9492C53.2876 35.9491 52.5959 33.7174 52.3551 31.3209C52.2664 30.4377 52.719 29.7897 53.5827 29.529C55.6614 28.8992 57.7889 28.5697 60.657 28.5625ZM60.0051 31.663C58.6598 31.7065 57.3272 31.8603 56.0054 32.1065C55.6885 32.1662 55.6107 32.3146 55.6795 32.6042C55.9855 33.9219 56.4436 35.178 57.2946 36.2459C58.926 38.2894 61.135 38.2731 62.7356 36.2043C63.5559 35.1455 64.0103 33.9147 64.3127 32.6205C64.3924 32.2766 64.2674 32.159 63.9361 32.0956C62.6342 31.8513 61.3251 31.7137 60.0051 31.663Z" fill="#0B0A0A"/>
<path d="M60.0178 71.5829C57.8396 71.601 55.7374 71.2752 53.6787 70.6598C52.7697 70.3883 52.2772 69.8018 52.3533 68.9421C52.5868 66.2868 53.3437 63.8143 55.0874 61.7347C58.0152 58.2414 62.7229 58.4966 65.3248 62.2451C66.7028 64.2306 67.3926 66.4388 67.6371 68.8099C67.7312 69.7276 67.2822 70.3756 66.3714 70.6471C64.291 71.2661 62.1671 71.6082 60.0178 71.5829ZM60.0087 68.5004C61.3233 68.4063 62.6414 68.3285 63.9379 68.0588C64.2439 67.9954 64.4014 67.8868 64.3145 67.5285C64.0085 66.2615 63.5685 65.0524 62.7754 64.0044C61.1603 61.8704 58.8916 61.8523 57.2511 63.9664C56.4291 65.0252 55.9873 66.2615 55.6776 67.552C55.5871 67.9321 55.7989 68.0027 56.0832 68.0624C57.376 68.3339 58.6924 68.4117 60.0087 68.5004Z" fill="#0B0A0A"/>
<path d="M51.7231 57.2239C51.6271 59.0882 50.883 60.786 49.8961 62.4005C49.2298 63.4902 48.4349 64.4838 47.6075 65.454C46.7836 66.4224 45.8547 66.4676 44.9476 65.5825C41.9166 62.6214 39.923 59.0738 38.9453 54.9542C38.6954 53.9044 39.0231 53.222 40.0099 52.8057C42.9685 51.5586 45.9507 51.3215 48.9256 52.7297C50.7797 53.6094 51.6561 55.1406 51.7231 57.2239ZM46.1626 62.3173C47.2109 60.9091 48.1434 59.4973 48.5182 57.7977C48.779 56.6122 48.3408 55.7814 47.2019 55.3434C45.6918 54.7623 44.1545 54.8148 42.601 55.1786C42.3131 55.2456 42.2714 55.3325 42.3547 55.5931C43.1514 58.0891 44.3881 60.3317 46.1626 62.3173Z" fill="#0B0A0A"/>
<path d="M44.7847 48.4617C43.108 48.4708 41.4947 48.1812 39.972 47.4499C39.0504 47.0065 38.6973 46.4056 38.9254 45.4209C39.8977 41.2199 41.9329 37.609 45.0328 34.608C45.8114 33.855 46.7366 33.8568 47.4392 34.6478C49.1575 36.5791 50.6314 38.6624 51.4172 41.1729C52.4456 44.458 50.7816 47.3685 47.421 48.1396C46.5501 48.3368 45.6774 48.4635 44.7847 48.4617ZM46.1572 37.9619C44.3972 39.9403 43.1986 42.1304 42.3928 44.5449C42.286 44.8635 42.2751 45.0426 42.7097 45.1331C44.0007 45.4028 45.279 45.468 46.5628 45.1368C48.3861 44.668 48.9275 43.7413 48.3843 41.9421C47.9425 40.4778 47.1187 39.2144 46.1572 37.9619Z" fill="#0B0A0A"/>
<path d="M74.6027 48.4675C73.8676 48.4766 72.5168 48.2594 71.2584 47.6783C68.738 46.5163 67.7059 43.9878 68.5605 41.213C69.3409 38.6754 70.8293 36.5686 72.5748 34.6264C73.3099 33.8065 74.1899 33.85 75.03 34.6735C77.9434 37.5315 79.9315 40.9271 80.9346 44.8891C81.3511 46.5362 81.1102 47.0032 79.544 47.6747C78.3798 48.1707 76.6089 48.5037 74.6027 48.4675ZM73.8477 37.9768C72.6146 39.499 71.7781 41.0918 71.4866 42.4384C71.215 43.6964 71.6658 44.5434 72.8862 44.9778C74.3583 45.5027 75.8521 45.4539 77.3604 45.119C77.7189 45.0394 77.7008 44.8692 77.6157 44.6086C76.819 42.1633 75.6113 39.9515 73.8477 37.9768Z" fill="#0B0A0A"/>
<path d="M68.2709 56.9977C68.2835 54.6158 69.7339 52.7297 72.0117 52.0582C74.7404 51.2546 77.4147 51.4066 80.0166 52.5867C80.9401 53.0049 81.2932 53.6275 81.0668 54.6103C80.0963 58.8113 78.0611 62.4205 74.9631 65.4214C74.1827 66.1762 73.2538 66.1816 72.5567 65.3925C70.8438 63.4594 69.3428 61.3888 68.5823 58.8693C68.3849 58.2177 68.3288 57.5498 68.2709 56.9977ZM75.3415 54.6302C74.7639 54.6918 74.2823 54.7244 73.8079 54.8022C73.5037 54.8529 73.2031 54.9524 72.9134 55.0592C71.6369 55.5262 71.2078 56.3208 71.5011 57.6403C71.8524 59.224 72.7251 60.5399 73.6431 61.8358C73.8115 62.0748 73.9093 62.0132 74.0686 61.825C75.6837 59.9154 76.8643 57.767 77.6284 55.385C77.728 55.0755 77.6338 54.9578 77.3133 54.918C76.6217 54.8348 75.9372 54.7189 75.3415 54.6302Z" fill="#0B0A0A"/>
<path d="M66.1867 50.022C66.0473 53.5606 63.4526 56.1959 59.9743 56.176C56.391 56.1561 53.8452 53.4122 53.8235 49.9768C53.8018 46.6138 56.6445 43.8499 59.9816 43.8282C63.3168 43.8083 66.1939 46.679 66.1867 50.022ZM60.0395 46.9722C58.3284 46.9595 56.9559 48.2989 56.9487 49.9913C56.9415 51.6655 58.2687 53.0393 59.9164 53.0628C61.6347 53.0882 63.0253 51.7596 63.0434 50.08C63.0615 48.3659 61.727 46.9849 60.0395 46.9722Z" fill="#0B0A0A"/>
</svg>
