<svg width="120" height="100" viewBox="0 0 120 100" fill="none" xmlns="http://www.w3.org/2000/svg">
<rect width="120" height="100" fill="white"/>
<path d="M44.4382 87.2664C44.3678 87.1746 44.3124 87.0615 44.2249 86.9953C43.6832 86.5918 43.5681 86.0347 43.7536 85.4434C43.9392 84.8564 44.4339 84.5917 45.0289 84.5191C45.0758 84.5127 45.1249 84.5169 45.1739 84.5148C46.5452 84.4401 46.5047 84.4358 46.6348 83.0739C46.927 80.0619 47.266 77.0541 47.5817 74.0443C47.8952 71.0579 48.2023 68.0715 48.5136 65.0851C48.8314 62.0517 49.1534 59.0183 49.4712 55.985C49.5501 55.225 49.6204 54.463 49.5714 53.6432C48.6032 54.8344 47.635 56.0255 46.6689 57.2188C45.9374 58.1218 45.2145 59.0333 44.4766 59.9298C43.583 61.0121 42.8558 61.0527 41.8791 60.0793C40.1452 58.3502 38.4157 56.619 36.6904 54.8813C35.7371 53.9229 35.7649 53.1843 36.8098 52.3304C42.9646 47.3075 49.1235 42.2932 55.2825 37.2767C55.4873 37.1102 55.6899 36.9395 55.9543 36.7217C54.2781 35.3619 52.636 34.0278 50.9917 32.6957C46.3064 28.896 41.6189 25.1027 36.9378 21.303C35.7371 20.3296 35.6987 19.6252 36.7736 18.5472C38.4669 16.848 40.1623 15.1488 41.862 13.4538C42.8494 12.4698 43.5894 12.4975 44.4659 13.5734C49.4818 19.7362 54.4977 25.8968 59.4881 32.0788C59.9167 32.6104 60.0873 32.589 60.5032 32.0724C65.4338 25.9673 70.39 19.8813 75.3376 13.789C75.4741 13.6203 75.6042 13.4432 75.7556 13.2852C76.3954 12.6213 77.1568 12.5295 77.8072 13.1635C79.75 15.057 81.6736 16.976 83.5589 18.9271C84.2626 19.655 84.1091 20.4257 83.2091 21.1621C81.036 22.9403 78.8458 24.7014 76.6641 26.471C72.4693 29.8716 68.2766 33.2742 64.0284 36.7196C65.5617 37.9684 67.078 39.2043 68.5922 40.4382C73.3799 44.3382 78.1719 48.234 82.9575 52.1383C84.3053 53.2377 84.3245 53.8482 83.0876 55.0863C81.4604 56.715 79.8353 58.3459 78.2081 59.9747C77.1013 61.0804 76.4082 61.042 75.4102 59.8124C73.8704 57.9126 72.3371 56.0042 70.793 54.1065C70.6502 53.9314 70.5329 53.5749 70.2791 53.6881C69.9635 53.8268 70.2812 54.0979 70.3004 54.3114C70.4902 56.2155 70.6885 58.1175 70.8869 60.0195C71.2068 63.0763 71.5352 66.1353 71.853 69.1922C72.1643 72.1786 72.4714 75.165 72.7785 78.1514C72.9811 80.1259 73.188 82.1005 73.382 84.0772C73.414 84.4124 73.5548 84.5426 73.8917 84.5148C74.1796 84.4892 74.4739 84.4999 74.764 84.5127C75.4528 84.5426 75.9945 84.8243 76.2014 85.516C76.4082 86.2119 76.131 86.7413 75.5253 87.1148C75.4741 87.1469 75.4421 87.213 75.4016 87.2643C65.0819 87.2664 54.76 87.2664 44.4382 87.2664ZM49.2494 84.5127C50.7977 84.5127 52.3203 84.4892 53.8409 84.5255C54.3911 84.5383 54.5702 84.4166 54.5702 83.8232C54.5681 81.1335 54.4636 78.4417 54.6193 75.752C54.8027 72.5735 58.2127 70.1912 61.2837 71.0728C63.8428 71.8093 65.357 73.7988 65.3677 76.4778C65.3783 78.9519 65.3783 81.4238 65.3634 83.8979C65.3613 84.3163 65.3847 84.549 65.9221 84.5298C67.2039 84.4828 68.4898 84.5148 69.7737 84.5148C70.6757 84.5148 70.6757 84.5148 70.5968 83.6353C70.5904 83.5628 70.5798 83.4902 70.5734 83.4176C70.2002 79.9509 69.8227 76.4863 69.458 73.0196C69.0955 69.5529 68.75 66.0841 68.3917 62.6174C67.9695 58.5487 67.5387 54.48 67.1143 50.4114C67.0546 49.8329 66.9373 49.3077 66.5363 48.8232C64.457 46.3 62.4055 43.7533 60.3646 41.2003C60.0788 40.8416 59.9444 40.7947 59.6309 41.1853C57.4855 43.8729 55.3167 46.5412 53.1499 49.2138C52.9921 49.4081 52.8876 49.598 52.862 49.8563C52.7319 51.2055 52.5784 52.5524 52.4398 53.9015C51.9407 58.7664 51.4524 63.6314 50.9448 68.4941C50.3925 73.8095 49.8209 79.1248 49.2494 84.5127ZM57.2723 33.714C57.1678 33.5838 57.0782 33.4728 56.9886 33.3618C52.4419 27.7625 47.893 22.1676 43.3591 16.5619C43.0755 16.2097 42.9304 16.2631 42.6532 16.5491C41.7276 17.5076 40.7957 18.4596 39.8253 19.3711C39.4351 19.7383 39.5588 19.8941 39.9021 20.1716C44.4211 23.8177 48.9273 27.4786 53.4378 31.1353C54.5297 32.0148 55.6195 32.8985 56.7135 33.7759C56.8116 33.8549 56.8969 34.0256 57.0654 33.936C57.1422 33.8976 57.1891 33.8058 57.2723 33.714ZM62.9663 34.0107C63.1028 33.9104 63.2393 33.8122 63.3715 33.7076C68.9782 29.1629 74.5784 24.616 80.1936 20.0841C80.522 19.8194 80.4751 19.6871 80.2128 19.4309C79.2595 18.5002 78.302 17.5716 77.3935 16.5961C77.0053 16.1798 76.8433 16.2972 76.5404 16.6729C72.9918 21.0639 69.426 25.4379 65.8688 29.8182C64.8921 31.02 63.9132 32.224 62.9408 33.4301C62.8448 33.5496 62.6529 33.6563 62.7893 33.8591C62.8277 33.9168 62.896 33.9531 62.9663 34.0107ZM42.9965 57.317C43.0819 57.2444 43.1245 57.2209 43.1544 57.1847C47.7373 51.5214 52.3203 45.8581 56.9012 40.1948C56.963 40.1201 57.0291 40.0475 57.0761 39.9622C57.1272 39.8704 57.2403 39.7871 57.1102 39.6569C56.9758 39.5224 56.8735 39.5374 56.7412 39.6526C56.5962 39.7807 56.4363 39.8917 56.287 40.0134C53.3973 42.3658 50.5055 44.7182 47.6158 47.0706C45.0439 49.1626 42.4698 51.2524 39.9085 53.3572C39.7464 53.4895 39.2687 53.5771 39.6739 53.9805C40.7893 55.0884 41.894 56.207 42.9965 57.317ZM80.5306 53.7393C80.3877 53.6134 80.2832 53.513 80.1701 53.4234C74.6339 48.9192 69.0997 44.4129 63.5528 39.9216C63.3737 39.7764 63.1924 39.3025 62.8746 39.6548C62.6507 39.9024 63.0197 40.0988 63.1625 40.2759C64.9625 42.5238 66.7773 44.7609 68.5879 46.998C71.2665 50.3089 73.945 53.6219 76.6257 56.9285C76.7665 57.1035 76.8561 57.4515 77.2037 57.095C78.2956 55.9658 79.4109 54.8621 80.5306 53.7393ZM62.6187 80.0854C62.6187 79.6008 62.6187 79.1184 62.6187 78.6338C62.6166 77.812 62.6401 76.988 62.6081 76.1661C62.5569 74.7893 61.401 73.6856 60.0127 73.6515C58.6542 73.6195 57.4045 74.6526 57.3725 76.006C57.3043 78.7149 57.3426 81.4238 57.3149 84.1348C57.3107 84.5703 57.5602 84.5127 57.8267 84.5127C59.2535 84.5106 60.6781 84.4977 62.1048 84.5212C62.5078 84.5276 62.6379 84.4209 62.6294 84.0046C62.6017 82.6982 62.6187 81.3918 62.6187 80.0854ZM59.9999 35.4836C59.3281 35.458 58.699 36.0621 58.6798 36.7537C58.6606 37.4454 59.2471 38.0644 59.9359 38.0815C60.6098 38.0986 61.2432 37.4966 61.2624 36.8156C61.2837 36.1582 60.6717 35.5092 59.9999 35.4836Z" fill="#0B0A0A"/>
<path d="M65.4037 61.3299C65.4101 64.3334 62.9747 66.7754 59.9698 66.7797C56.9884 66.7818 54.5082 64.3163 54.4997 61.3427C54.4911 58.4054 57.0097 55.8779 59.957 55.8673C62.9128 55.8523 65.3952 58.3435 65.4037 61.3299ZM62.6377 61.3427C62.6398 59.8335 61.4093 58.5975 59.9336 58.6252C58.4876 58.653 57.2614 59.8954 57.2571 61.3341C57.2529 62.8241 58.4812 64.0238 59.9954 64.0131C61.4925 64.0003 62.6377 62.8434 62.6377 61.3427Z" fill="#0B0A0A"/>
</svg>
