<svg width="120" height="100" viewBox="0 0 120 100" fill="none" xmlns="http://www.w3.org/2000/svg">
<rect width="120" height="100" fill="white"/>
<path d="M50.8732 90.5831C50.3904 90.2378 49.7922 90.098 49.3414 89.687C48.4206 88.8481 48.0126 87.8122 48.0147 86.5877C48.019 79.4041 48.0168 72.2204 48.0168 65.0368C48.0168 58.1709 48.051 51.3029 48.0019 44.437C47.9784 41.0941 48.959 38.1791 51.2257 35.6857C52.3666 34.4315 53.4391 33.116 54.565 31.847C55.3362 30.9764 55.7357 30.0019 55.7101 28.8261C55.6759 27.1102 55.6973 25.3921 55.7037 23.6762C55.708 22.6953 56.1459 22.1361 56.9044 22.1107C57.6948 22.0852 58.2418 22.6699 58.1606 23.6783C58.0922 24.5575 58.4276 24.6952 59.216 24.6655C60.8268 24.6019 60.829 24.6464 60.829 23.0661C60.829 21.2167 60.8076 19.3673 60.8418 17.52C60.8525 16.9861 60.6816 16.8061 60.171 16.8823C60.0406 16.9014 59.906 16.8844 59.7715 16.8844C59.2929 16.8887 58.7203 16.7319 58.3593 16.9395C57.932 17.1831 58.2348 24.2778 58.1621 24.7312C58.0425 25.4769 57.5874 25.9027 56.8931 25.8878C56.2116 25.873 55.7095 25.4239 55.6988 24.6655C55.6689 22.5259 55.6546 13.9144 55.7251 11.7769C55.7721 10.3596 56.8787 9.42962 58.3123 9.42115C59.0857 9.41691 59.8569 9.41691 60.6303 9.42115C62.2561 9.42962 63.2966 10.4528 63.3051 12.1095C63.3201 15.2532 63.3094 18.3949 63.3094 21.5387C63.3094 23.9685 63.3329 26.3984 63.3008 28.8282C63.2859 30.0019 63.6747 30.9764 64.4481 31.847C65.6958 33.2558 66.9114 34.69 68.142 36.1136C70.0519 38.3274 70.992 40.9034 70.9941 43.8036C71.0026 58.0649 71.0005 72.3263 70.9962 86.5899C70.9962 88.4986 70.1096 89.7336 68.283 90.4391C68.2253 90.4624 68.1868 90.5365 68.1398 90.5852C62.3822 90.5831 56.6266 90.5831 50.8732 90.5831ZM50.4844 64.6385C50.4844 71.9027 50.4823 79.1668 50.4865 86.4331C50.4865 87.755 50.9352 88.202 52.247 88.202C57.0966 88.2041 61.9442 88.2041 66.7939 88.202C68.0309 88.202 68.518 87.7486 68.5201 86.5581C68.5287 81.3276 68.5158 76.0972 68.5372 70.8667C68.5393 70.3498 68.3663 70.2587 67.9006 70.2736C66.8366 70.3053 58.5326 70.3011 57.4686 70.2757C56.6995 70.2587 56.1654 69.7249 56.1718 69.0512C56.1782 68.3966 56.6696 67.9115 57.4195 67.8734C58.0305 67.8416 65.8795 67.8607 66.4926 67.8607C68.5714 67.8607 68.5522 67.8607 68.5393 65.793C68.5372 65.2825 68.377 65.1681 67.9048 65.1956C67.2404 65.2338 66.5738 65.219 65.9073 65.202C63.8349 65.149 62.2305 63.5962 62.1215 61.554C62.0211 59.658 63.5059 57.959 65.5227 57.7366C66.3388 57.6455 67.172 57.6667 67.9967 57.6815C68.424 57.69 68.5393 57.5438 68.5329 57.1371C68.5116 55.7643 68.5073 54.3894 68.5351 53.0167C68.5436 52.5761 68.3706 52.4998 67.9796 52.5019C64.8903 52.5146 61.7989 52.5167 58.7096 52.4998C58.2866 52.4977 58.1755 52.6184 58.1755 53.0336C58.1884 60.3253 58.1884 67.6149 58.1734 74.9066C58.1713 75.4108 58.34 75.5188 58.8143 75.5125C60.6517 75.4871 67.1787 75.4977 69.016 75.504C69.9902 75.5061 70.5735 75.9743 70.5521 76.7158C70.5307 77.4551 69.9454 77.8979 68.9669 77.9C67.1018 77.9042 60.5491 77.9021 58.684 77.9C56.6736 77.8979 55.7016 76.9361 55.6994 74.9405C55.6973 67.6488 55.6973 60.3592 55.6994 53.0675C55.6994 51.0232 56.6758 50.0487 58.7182 50.0487C61.7818 50.0466 64.8455 50.0382 67.9091 50.0593C68.3983 50.0636 68.5415 49.9365 68.5351 49.445C68.5052 47.5426 68.5137 45.6403 68.5244 43.74C68.5372 41.3059 67.6677 39.2214 66.0568 37.408C64.8604 36.0606 63.711 34.673 62.5146 33.3257C61.331 31.9911 60.8204 30.434 60.8226 28.68C60.8247 27.0593 60.814 27.1081 59.154 27.0403C58.3465 27.0064 58.0965 27.2203 58.1649 28.0254C58.3614 30.3408 57.5731 32.3025 55.943 33.9824C54.9666 34.9887 54.1291 36.1284 53.172 37.1537C51.2856 39.1705 50.4438 41.5199 50.4652 44.276C50.5207 51.0614 50.4844 57.851 50.4844 64.6385ZM66.984 60.1326C66.6123 60.1326 66.2406 60.1156 65.8688 60.1368C65.1104 60.1792 64.6254 60.6622 64.5976 61.3761C64.5699 62.1048 64.9993 62.6472 65.7449 62.7277C66.2961 62.787 66.858 62.7637 67.4135 62.7679C68.5223 62.7721 68.5223 62.77 68.5223 61.696C68.5244 60.1262 68.5244 60.1262 66.984 60.1326ZM60.8268 13.1856C60.8268 11.8044 60.8268 11.8044 59.577 11.8044C58.182 11.8044 58.182 11.8044 58.182 13.2005C58.182 14.4969 58.1819 14.4969 59.5108 14.4969C60.8268 14.4948 60.8268 14.4948 60.8268 13.1856Z" fill="#181616"/>
</svg>
