<svg width="120" height="100" viewBox="0 0 120 100" fill="none" xmlns="http://www.w3.org/2000/svg">
<rect width="120" height="100" fill="white"/>
<path d="M46.6457 83.0001C46.4036 82.7011 46.0276 82.5204 45.9104 82.1094C45.7223 81.4504 46.0211 80.8587 46.7861 80.4809C49.7018 79.038 52.6124 77.5876 55.541 76.1702C56.0046 75.9463 56.1708 75.7007 56.1682 75.1829C56.145 70.5707 56.1515 65.9586 56.1605 61.3464C56.1618 60.9761 56.1309 60.7649 55.6788 60.6377C48.2736 58.5473 43.7686 53.785 42.2657 46.3024C41.6952 43.4626 42.1253 40.68 42.7834 37.9013C44.2593 31.6694 45.6901 25.4262 47.1454 19.1892C47.3566 18.2821 47.7353 18.0034 48.6715 18.0021C50.727 18.0009 52.7837 17.9996 54.8391 18.0021C55.729 18.0034 56.2777 18.4869 56.2828 19.2592C56.288 20.0379 55.7419 20.5366 54.8623 20.5392C53.2344 20.5443 51.6066 20.5595 49.98 20.5277C49.5615 20.5188 49.4365 20.6868 49.358 21.029C47.9529 27.1273 46.5427 33.2255 45.1376 39.3237C45.0913 39.5222 45.0217 39.7233 45.2278 39.9052C46.8479 41.3289 48.5325 42.6585 50.6626 43.2629C52.0664 43.6611 53.4096 43.343 54.7194 42.8125C56.2828 42.1801 57.7291 41.32 59.2179 40.5426C60.9539 39.6355 62.7041 38.7677 64.6707 38.4344C66.5085 38.1227 68.2819 38.4217 70.0488 38.8988C71.7617 39.3619 73.3728 40.0795 74.9942 40.7729C75.0406 40.7907 75.0869 40.8085 75.1346 40.8264C75.1372 40.7729 75.1385 40.7195 75.141 40.6673C73.6497 34.1365 72.1532 27.6056 70.6734 21.0723C70.5768 20.6448 70.4056 20.5175 69.9574 20.5277C68.4377 20.5621 56.0197 20.5455 54.5 20.5391C53.6281 20.5353 53.0821 20.0251 53.0962 19.2439C53.1091 18.4957 53.65 18.0046 54.4897 18.0034C56.5026 17.9983 69.4126 17.9996 71.4243 18.0034C72.2639 18.0047 72.6722 18.3202 72.8641 19.1409C74.1919 24.846 75.5171 30.5511 76.8372 36.2587C77.2312 37.9624 77.6987 39.6545 77.8855 41.3976C78.4328 46.5136 77.0175 51.0533 73.6574 54.9695C71.1821 57.8539 68.0526 59.7445 64.3281 60.6479C63.9804 60.7319 63.8542 60.8616 63.8555 61.2357C63.8709 65.9535 63.8709 70.6712 63.8542 75.3877C63.8529 75.7758 64.0087 75.9272 64.3243 76.0824C67.2992 77.538 70.269 79.0062 73.2363 80.477C73.9794 80.846 74.2756 81.4008 74.1236 82.0496C74.0219 82.4873 73.6368 82.6947 73.3728 83.0001C64.4633 83.0001 55.5552 83.0001 46.6457 83.0001ZM44.607 42.8303C44.5568 44.1738 44.7152 45.4042 44.9676 46.6243C46.6135 54.57 54.9473 60.0015 62.945 58.3386C69.8968 56.8945 74.859 51.2912 75.3922 44.3023C75.4153 44.0021 75.3381 43.8494 75.0676 43.712C73.4939 42.9092 71.8943 42.161 70.2046 41.6356C68.5562 41.1215 66.8923 40.6431 65.1176 40.965C63.9302 41.1813 62.829 41.6228 61.7563 42.1394C59.9185 43.0262 58.158 44.0606 56.315 44.9411C52.9782 46.534 49.7997 46.2973 46.7333 44.282C46.0456 43.8303 45.372 43.3545 44.607 42.8303ZM67.1331 80.4503C67.1421 80.4172 67.1511 80.3854 67.1588 80.3524C65.5464 79.5533 63.9456 78.7301 62.3178 77.9642C61.5888 77.6219 61.2707 77.1474 61.281 76.3382C61.3132 73.59 61.2939 70.8417 61.2939 68.0935C61.2939 65.9586 61.2797 63.8223 61.3055 61.6886C61.3106 61.2344 61.1857 61.1097 60.7401 61.1517C60.2739 61.1963 59.7948 61.2052 59.3299 61.1505C58.8032 61.0894 58.713 61.2866 58.7143 61.765C58.7323 66.6482 58.7156 71.5313 58.7349 76.4158C58.7375 77.1436 58.4529 77.6054 57.8051 77.9184C56.2777 78.6576 54.7619 79.421 53.2409 80.1755C53.1057 80.2429 52.9344 80.2658 52.8726 80.4516C57.6402 80.4503 62.3873 80.4503 67.1331 80.4503Z" fill="#090808"/>
</svg>
