<svg width="120" height="100" viewBox="0 0 120 100" fill="none" xmlns="http://www.w3.org/2000/svg">
<rect width="120" height="100" fill="white"/>
<path d="M47.025 87.6659C46.9821 87.6152 46.949 87.5373 46.8945 87.5178C45.3183 86.9506 44.6091 85.754 44.4045 84.1599C44.2779 83.1757 44.0947 82.1993 43.9408 81.217C43.8843 80.8624 43.7518 80.6402 43.3485 80.5291C42.0606 80.1763 41.293 79.2994 41.0475 77.9917C40.463 74.8754 39.8863 71.7552 39.3271 68.6331C39.2726 68.3252 39.1596 68.0933 38.955 67.875C35.1908 63.8642 32.8918 59.1207 32.2216 53.6755C31.2747 45.9969 33.3633 39.17 38.4796 33.3487C39.2239 32.5029 39.409 31.5947 39.5902 30.6086C40.0831 27.9425 40.5487 25.2706 41.0573 22.6085C41.295 21.3651 42.0451 20.4959 43.2706 20.1607C43.7791 20.0223 43.896 19.7417 43.9642 19.311C44.1473 18.1397 44.3285 16.9645 44.5506 15.801C44.8701 14.1386 46.2613 13.0044 47.9602 13.0024C54.302 12.9985 60.6419 13.0005 66.9837 13.0005C69.2808 13.0005 70.5804 14.1328 70.9213 16.4149C71.0714 17.4205 71.235 18.4262 71.3948 19.4298C71.4493 19.7728 71.5584 20.0223 71.9734 20.1295C73.2691 20.4686 74.0426 21.3495 74.29 22.6533C74.8804 25.7695 75.4668 28.8877 76.0065 32.0118C76.1292 32.7251 76.7079 33.0252 77.0761 33.5124C77.2261 33.7112 77.4268 33.5144 77.5905 33.4208C78.0328 33.1694 78.4672 32.9024 78.9173 32.6705C80.4545 31.8793 82.1983 32.3178 83.1277 33.7677C83.7024 34.6642 84.2324 35.5919 84.7272 36.5332C85.5222 38.0475 85.0429 39.7995 83.605 40.7486C83.0419 41.1189 82.1886 41.3489 81.9742 41.8556C81.7794 42.3174 82.3191 43.06 82.4438 43.6973C82.5665 44.3209 82.814 44.5704 83.4939 44.5216C84.209 44.469 84.9454 44.3969 85.6624 44.6132C87.0789 45.042 87.9849 46.2133 87.9907 47.6808C87.9985 49.4542 88.0024 51.2277 87.9907 53.0031C87.979 54.7571 86.5996 56.1389 84.8578 56.1662C84.1544 56.1779 83.3069 55.9479 82.7886 56.2636C82.2665 56.5793 82.4087 57.5479 82.1067 58.1716C81.8223 58.7582 81.9918 59.0505 82.5548 59.3039C85.1559 60.4771 85.9196 62.6306 84.1116 65.2246C83.7803 65.7001 83.5368 66.2341 83.2329 66.7291C82.2373 68.3467 80.4994 68.8261 78.8277 67.951C78.6134 67.838 78.4166 67.6587 78.1906 67.61C77.7483 67.5184 77.4249 66.6453 76.854 67.38C76.5364 67.7873 76.0981 68.066 75.9948 68.676C75.461 71.802 74.8745 74.9202 74.2822 78.0345C74.0465 79.2799 73.3041 80.1491 72.0825 80.4979C71.5896 80.6382 71.4376 80.8916 71.3733 81.332C71.2272 82.3396 71.0441 83.3394 70.9077 84.3489C70.6817 86.0327 69.7153 87.0871 68.1625 87.6639C61.1193 87.6659 54.0721 87.6659 47.025 87.6659ZM80.9942 50.3546C81.0196 37.5408 70.4985 27.0051 57.6727 27.0012C44.8799 26.9973 34.4037 37.4492 34.3452 50.2728C34.2868 63.0691 44.7825 73.6145 57.6259 73.6651C70.4206 73.7139 80.9689 63.1919 80.9942 50.3546ZM42.16 29.7413C52.5563 22.9144 62.8299 22.9105 73.1171 29.7024C73.1171 29.5952 73.1385 29.449 73.1132 29.3126C72.7606 27.3598 72.4118 25.4051 72.0436 23.4543C71.8565 22.4701 71.6617 22.3356 70.6115 22.3356C61.9882 22.3356 53.3668 22.3356 44.7435 22.3356C44.5974 22.3356 44.4513 22.3298 44.3071 22.3376C43.7849 22.3668 43.4498 22.6026 43.3582 23.1522C43.2511 23.7973 43.1089 24.4346 42.992 25.0777C42.7133 26.6231 42.4406 28.1705 42.16 29.7413ZM42.1366 70.7847C42.536 73.0259 42.8965 75.0976 43.2803 77.1653C43.4712 78.1943 43.6641 78.3327 44.7513 78.3327C51.8666 78.3327 58.9819 78.3327 66.0992 78.3327C67.6287 78.3327 69.16 78.3347 70.6895 78.3327C71.6578 78.3308 71.8546 78.1768 72.0475 77.2102C72.2092 76.4033 72.3495 75.5926 72.4936 74.7819C72.7216 73.5014 72.9476 72.221 73.1989 70.7925C68.5054 74.2128 63.4125 75.9902 57.7311 75.9999C52.0166 76.0116 46.8925 74.2479 42.1366 70.7847ZM57.5947 20.0009C61.2381 20.0009 64.8815 19.9931 68.5229 20.0125C68.9769 20.0145 69.123 19.9151 69.0334 19.4552C68.8327 18.434 68.6574 17.4069 68.4859 16.3798C68.3651 15.6529 67.9014 15.3411 67.2156 15.3411C60.8523 15.3352 54.4891 15.3352 48.1258 15.3411C47.401 15.3411 46.951 15.6919 46.838 16.4481C46.6977 17.3816 46.5496 18.3151 46.3489 19.2369C46.2262 19.8001 46.2749 20.0242 46.9568 20.0184C50.5028 19.9814 54.0488 20.0009 57.5947 20.0009ZM57.6649 80.6655C54.0468 80.6655 50.4268 80.6694 46.8087 80.6597C46.4483 80.6597 46.2028 80.6636 46.2944 81.143C46.497 82.1895 46.6743 83.24 46.8516 84.2904C46.9744 85.0173 47.442 85.3253 48.1258 85.3253C54.4891 85.3311 60.8523 85.3311 67.2137 85.3253C67.8975 85.3253 68.3632 85.0096 68.484 84.2846C68.6476 83.3062 68.8132 82.3279 69.0022 81.3535C69.0957 80.874 69.086 80.6402 68.447 80.648C64.8542 80.685 61.2595 80.6655 57.6649 80.6655ZM85.6585 50.3761C85.6585 49.8421 85.6585 49.31 85.6585 48.776C85.6585 46.8915 85.5748 46.8291 83.7083 46.8213C83.2075 46.8194 83.1062 46.9675 83.1686 47.4274C83.3887 49.0917 83.4063 50.7658 83.2504 52.4321C83.116 53.8665 83.0731 53.8607 84.4954 53.8334C85.3507 53.8158 85.6507 53.5118 85.6585 52.6309C85.6644 51.8786 85.6585 51.1283 85.6585 50.3761ZM80.211 65.971C80.7858 66.0119 81.0371 65.8073 81.2202 65.4935C81.5242 64.9732 81.8184 64.445 82.1321 63.9305C83.1257 62.3012 82.9387 62.2428 81.3332 61.3112C81.0741 61.1611 80.9358 61.1572 80.7897 61.4652C80.2285 62.6442 79.5797 63.7746 78.8335 64.8465C78.7712 64.9361 78.5822 65.0862 78.7946 65.1973C79.3226 65.476 79.7824 65.895 80.211 65.971ZM82.7438 38.0455C82.7555 37.8116 82.6328 37.6265 82.5256 37.4394C82.2392 36.9347 81.9528 36.4338 81.6606 35.931C80.7507 34.3602 80.6942 34.3465 79.1141 35.282C79.0927 35.2937 79.0712 35.3034 79.0478 35.3112C78.6777 35.4418 78.6874 35.6309 78.9017 35.931C79.4901 36.7573 79.9986 37.6382 80.4662 38.5405C80.9942 39.5578 80.9903 39.5539 82.0093 38.9556C82.3736 38.7413 82.7107 38.521 82.7438 38.0455Z" fill="#0B0A0A"/>
<path d="M57.6609 70.1665C46.6957 70.1645 37.8366 61.2874 37.8405 50.3074C37.8464 39.343 46.723 30.4951 57.7116 30.501C68.6651 30.5068 77.5067 39.3976 77.495 50.3951C77.4833 61.3147 68.6028 70.1665 57.6609 70.1665ZM75.0576 51.5001C74.3075 51.5001 73.5574 51.5177 72.8092 51.4943C72.1234 51.4748 71.6695 50.9973 71.6656 50.3425C71.6597 49.6857 72.1098 49.1985 72.7898 49.1712C73.3723 49.1478 73.9568 49.1361 74.5374 49.1751C74.9894 49.2063 75.1024 49.0874 75.0518 48.6216C74.5257 43.691 72.3105 39.6802 68.4528 36.5971C65.7972 34.4747 62.75 33.2586 59.3521 32.9449C58.9332 32.9059 58.8027 32.9936 58.8299 33.4184C58.865 33.9992 58.8533 34.5839 58.8338 35.1666C58.8124 35.8565 58.3487 36.3184 57.7018 36.332C57.0199 36.3476 56.5309 35.8779 56.5075 35.1549C56.49 34.6209 56.4744 34.083 56.5134 33.551C56.5465 33.0735 56.4705 32.8845 55.9055 32.9429C52.8758 33.2547 50.1053 34.2623 47.6406 36.0397C43.3368 39.1423 40.8624 43.3324 40.2857 48.6294C40.2331 49.1206 40.387 49.1966 40.8137 49.1712C41.3709 49.1381 41.9301 49.1498 42.4892 49.1673C43.214 49.1888 43.6855 49.6721 43.6738 50.3542C43.6621 51.0071 43.2043 51.4709 42.5165 51.4943C41.9593 51.5138 41.3962 51.5274 40.841 51.4904C40.3675 51.4573 40.235 51.582 40.2896 52.0809C40.8293 57.0408 43.0776 61.0594 46.9763 64.1347C49.624 66.2239 52.6537 67.4166 56.0263 67.7226C56.412 67.7577 56.5309 67.6739 56.5095 67.2821C56.4783 66.7014 56.49 66.1167 56.5036 65.534C56.5231 64.7993 56.9907 64.3296 57.6746 64.3335C58.3565 64.3374 58.8143 64.8071 58.8319 65.5476C58.8455 66.0816 58.8553 66.6176 58.828 67.1516C58.8066 67.5823 58.8592 67.785 59.3969 67.7265C60.6555 67.5881 61.8849 67.3426 63.0851 66.9547C69.8361 64.7603 74.8258 58.3407 75.0576 51.5001Z" fill="#0D0C0C"/>
<path d="M51.9835 43.3294C52.2992 43.3158 52.5856 43.5731 52.8642 43.8517C54.3215 45.3115 55.7945 46.7556 57.2284 48.2387C57.5967 48.6187 57.7837 48.568 58.1266 48.2211C60.7549 45.5648 63.4047 42.9299 66.0427 40.2833C66.483 39.8429 66.9682 39.6733 67.5468 39.9696C68.0359 40.221 68.2151 40.6458 68.1586 41.1798C68.1235 41.5131 67.9209 41.7528 67.6949 41.9769C64.675 44.9957 61.659 48.0204 58.6332 51.0353C57.9571 51.7077 57.3687 51.6979 56.6829 51.0158C54.8242 49.1683 52.9791 47.3071 51.1224 45.4576C50.7074 45.0425 50.5242 44.5845 50.7756 44.0193C50.984 43.5497 51.3581 43.3314 51.9835 43.3294Z" fill="#0B0A0A"/>
</svg>
