<svg width="120" height="100" viewBox="0 0 120 100" fill="none" xmlns="http://www.w3.org/2000/svg">
<rect width="120" height="100" fill="white"/>
<path d="M69.8491 14.8302C70.92 14.7719 71.5224 15.0738 71.7922 15.7796C72.0976 16.5812 71.7964 17.237 71.1417 17.6764C68.9831 19.1276 67.8264 21.1597 67.2366 23.6581C66.7388 25.7631 65.9648 27.8035 65.3143 29.8752C65.0633 30.6747 65.0675 30.6768 65.8644 30.5102C67.7637 30.1125 69.5981 31.2327 69.9913 33.0316C70.4013 34.8992 69.322 36.8584 67.4206 37.0708C66.1698 37.2124 65.7557 37.7995 65.2662 38.7427C64.5802 40.0648 63.4799 40.9955 61.9907 41.439C61.2481 41.6597 61.3444 42.3593 61.4176 42.9318C61.5389 43.9062 61.7439 44.8702 61.8903 45.8426C62.0827 47.1272 61.7669 48.3098 61.0913 49.4029C60.8194 49.8443 60.5746 50.3148 60.24 50.7021C58.9599 52.1825 58.483 53.8752 58.7465 55.7969C58.918 57.0358 59.1753 58.2538 60.1898 59.1053C61.7962 60.4566 62.9989 62.0577 63.7163 64.0461C64.2141 65.4223 65.2056 66.4592 66.3957 67.3066C67.9624 68.4226 69.5353 69.5303 71.0727 70.6858C72.7293 71.9309 74.6327 72.5118 76.6428 72.6867C79.6862 72.949 82.376 74.0442 84.8463 75.7785C85.4822 76.2241 86.1954 76.5614 86.8334 77.007C88.2724 78.0168 89.8496 78.6893 91.548 79.1473C93.2882 79.6158 93.8865 80.8879 93.2548 82.5682C92.6628 84.1401 92.0646 85.7079 91.456 87.2716C91.0042 88.4333 90.2574 88.9351 89.0129 88.9414C88.2034 88.9455 87.396 88.9539 86.5866 88.9393C85.7666 88.9247 85.1538 88.4084 85.0492 87.6755C84.9404 86.9051 85.3316 86.2638 86.1034 85.9807C86.346 85.8911 86.5949 85.8037 86.8501 85.7641C87.2308 85.7038 87.3563 85.4747 87.3918 85.1249C87.4358 84.6877 87.5069 84.2526 87.578 83.8195C87.783 82.5702 87.7809 82.5807 86.7141 81.9352C85.5721 81.244 84.3108 80.9837 83.0077 80.8463C79.5377 80.4799 76.0676 80.1301 72.6017 79.7345C71.4074 79.5991 70.2799 79.1806 69.2299 78.5893C64.5634 75.9638 59.9032 73.33 55.6969 69.9904C55.3936 69.7489 55.0987 69.7239 54.7556 69.7905C50.292 70.6712 45.8242 71.5165 41.2916 71.9621C40.9485 71.9954 40.8 72.1287 40.7436 72.4785C40.206 75.7994 39.635 79.114 39.1121 82.437C38.9217 83.6446 39.0451 84.873 39.0326 86.0931C39.0138 87.7817 37.8801 88.9393 36.2026 88.9435C33.4897 88.9518 30.7789 88.9476 28.066 88.9435C27.1373 88.9414 26.583 88.5187 26.5098 87.7712C26.4324 86.9884 26.8298 86.497 27.7585 86.2784C29.5009 85.8682 31.2432 85.4477 32.9981 85.0895C33.4416 85 33.6068 84.8001 33.7114 84.4191C34.0795 83.0845 34.251 81.727 34.1737 80.3445C33.9582 76.5614 33.749 72.7804 33.5106 68.9993C33.3956 67.1671 33.9896 66.2198 35.7487 65.5702C39.9299 64.0232 44.1049 62.4658 48.2882 60.9251C48.7128 60.7689 48.8613 60.6794 48.7965 60.0985C48.7003 59.224 48.922 58.2996 49.0935 57.4126C49.401 55.8282 49.4302 54.2187 49.6269 52.6259C49.6729 52.247 49.4574 51.9826 49.2943 51.6973C48.6229 50.5189 48.0058 49.3384 48.079 47.9142C48.1899 45.7135 49.2608 44.1436 51.2019 43.1629C52.4046 42.555 53.6491 42.0324 54.8769 41.4723C55.1551 41.3453 55.5379 41.2808 55.5463 40.9185C55.5525 40.6062 55.1635 40.6312 54.9543 40.5125C53.3166 39.588 52.6849 38.0577 53.327 36.3192C53.5027 35.8424 53.4337 35.5134 53.1806 35.1116C52.6138 34.208 52.6305 34.0851 53.4902 33.4751C54.2285 32.9525 54.7452 32.3237 55.0861 31.4638C55.996 29.1735 57.7509 28.0326 60.2295 28.0451C60.5809 28.0471 60.7252 27.9264 60.8528 27.6203C62.0158 24.8303 63.2122 22.0549 64.3647 19.2629C64.7057 18.4342 64.5969 17.5202 64.668 16.6478C64.7454 15.688 64.9943 14.8281 65.5047 14.0202C65.9188 13.3623 66.2953 12.6815 66.7137 12.0277C67.3014 11.1074 68.2615 10.818 69.2132 11.2448C70.098 11.6425 70.4828 12.5503 70.2026 13.5913C70.0896 13.9744 69.9767 14.3679 69.8491 14.8302ZM54.0298 68.6246C53.601 68.0686 53.2078 67.5898 52.8564 67.0817C52.7581 66.9402 52.4464 66.6549 52.8564 66.5404C53.1973 66.4446 53.5738 65.895 53.9252 66.4092C54.7305 67.5918 55.8098 68.4809 56.9226 69.3366C61.0306 72.4951 65.5235 75.0477 70.0436 77.5545C71.4868 78.3541 73.087 78.5623 74.7038 78.6705C74.8942 78.683 75.1012 78.7601 75.1933 78.4519C75.6513 76.9341 76.4713 75.5787 77.2285 74.1878C77.1343 74.1316 77.0737 74.0733 77.0026 74.0588C76.8248 74.0213 76.6449 73.9984 76.4629 73.9755C74.3252 73.7027 72.2879 73.1655 70.5142 71.8663C68.8367 70.6379 67.1404 69.4366 65.4566 68.2165C64.0301 67.1838 62.9466 65.8616 62.3693 64.2043C61.746 62.4137 60.5453 61.0958 59.1397 59.909C58.9745 59.7695 58.8176 59.6904 58.5813 59.7133C55.9897 59.9673 53.3981 60.2109 50.8045 60.4462C50.4489 60.4774 50.2104 60.6065 50.133 60.9646C50.0034 61.5684 49.585 61.8162 49.0286 62.0202C44.6989 63.6026 40.3796 65.2141 36.0561 66.8194C35.0312 67.2004 34.7572 67.5981 34.7844 68.6787C34.7991 69.2492 34.753 69.8405 34.8911 70.3839C35.0563 71.0418 34.5334 71.8851 35.322 72.3577C35.9453 72.7325 36.6711 72.8866 37.3823 73.0427C37.6625 73.1052 37.9449 73.1489 38.2294 73.1864C39.3066 73.3321 39.3359 73.305 39.4635 72.1349C39.0723 72.1349 38.6854 72.1391 38.2963 72.1328C37.9951 72.1287 37.6291 72.1953 37.7525 71.6727C37.8341 71.3292 37.5642 70.7962 38.311 70.8607C39.3798 70.9523 40.4486 70.7962 41.507 70.6712C45.6883 70.1819 49.8318 69.4532 54.0298 68.6246ZM54.6427 42.9776C53.5341 43.4982 52.4318 43.9375 51.4048 44.5121C49.5076 45.5719 48.8237 47.8705 49.7607 49.8297C50.0055 50.3419 50.2816 50.8437 50.5786 51.3288C50.863 51.791 50.9551 52.2699 50.9049 52.805C50.7271 54.7392 50.5911 56.6797 50.2083 58.5869C50.0891 59.1803 50.2627 59.2365 50.7585 59.1886C53.0363 58.9617 55.3162 58.7431 57.5982 58.5473C58.0939 58.5036 58.1629 58.3121 57.9538 57.9206C57.4957 57.067 57.4434 56.1488 57.4831 55.2077C57.5082 54.6122 57.5229 54.0126 57.479 53.4192C57.4329 52.8133 57.6254 52.324 57.958 51.8327C58.6712 50.7833 59.3552 49.7111 60.0329 48.6388C60.6395 47.681 60.7775 46.6483 60.5182 45.4782C59.0101 47.9038 57.8094 48.5305 56.1047 47.8351C54.3938 47.1355 53.9984 45.8634 54.6427 42.9776ZM57.2677 46.7628C58.2466 46.7649 58.7779 46.2944 59.1711 45.0493C61.5347 37.5643 63.9673 30.1021 66.2096 22.5817C66.8747 20.3497 67.8536 18.5133 69.7591 17.1642C70.0833 16.9331 70.7276 16.6686 70.5163 16.2439C70.349 15.9045 69.7549 16.273 69.3617 16.3542C68.4142 16.552 68.0732 16.2293 68.3326 15.3111C68.5355 14.5907 68.753 13.8745 68.9727 13.1583C69.071 12.8376 68.9831 12.6003 68.6945 12.44C68.41 12.2817 68.0774 12.2817 67.9226 12.5524C67.1341 13.9265 65.9899 15.1279 65.923 16.8581C65.8791 17.9824 65.8393 19.1047 65.375 20.1998C63.4026 24.8345 61.4176 29.465 59.6062 34.1663C58.3156 37.5164 56.9602 40.8414 55.6529 44.1832C55.1279 45.524 55.9207 46.7587 57.2677 46.7628ZM87.9148 87.688C87.9148 87.69 87.9148 87.69 87.9148 87.6921C88.0967 87.6921 88.2808 87.6921 88.4628 87.6921C89.8391 87.6921 89.9144 87.6401 90.3997 86.3804C90.9477 84.9584 91.5061 83.5405 92.0479 82.1184C92.4139 81.1586 92.1671 80.6839 91.1694 80.3674C89.814 79.9385 88.4398 79.5991 87.2224 78.783C85.6495 77.7294 84.0034 76.7821 82.3865 75.7931C81.3637 75.1664 80.3032 74.6396 79.1068 74.4189C78.8223 74.3669 78.6466 74.3419 78.4772 74.6355C77.789 75.8243 77.1427 77.0299 76.5926 78.2916C76.3897 78.7559 76.5215 78.9141 77.0067 78.9579C78.6654 79.1078 80.322 79.2972 81.9807 79.4471C84.0912 79.6387 86.1515 79.9302 87.965 81.1898C88.8163 81.7811 89.3789 82.3516 88.9669 83.4655C88.7995 83.9173 88.7472 84.4295 88.7326 84.9167C88.6908 86.193 88.1783 87.0175 86.7957 87.0967C86.7225 87.1008 86.6493 87.1487 86.5782 87.182C86.4611 87.2341 86.3084 87.2778 86.3314 87.4381C86.3565 87.6109 86.4945 87.688 86.666 87.6901C87.0802 87.6901 87.4985 87.688 87.9148 87.688ZM35.0626 73.6881C35.1588 75.3538 35.2425 76.9299 35.345 78.5061C35.4872 80.7339 35.5541 82.945 34.843 85.1229C34.6066 85.8474 34.2259 86.1514 33.5127 86.2971C31.6197 86.6823 29.7393 87.1341 27.8547 87.5589C30.5425 87.6921 33.2136 87.6963 35.8825 87.6901C37.2024 87.688 37.7462 87.1133 37.7755 85.785C37.8048 84.4399 37.6584 83.0866 37.8822 81.7478C38.2503 79.5554 38.6184 77.363 39.0033 75.1727C39.087 74.6938 39.0012 74.4606 38.4448 74.4564C37.3174 74.4481 36.2486 74.1129 35.0626 73.6881ZM56.4833 31.3951C56.0169 32.6027 55.6237 33.727 54.4795 34.3162C54.262 34.4287 54.3477 34.6286 54.4774 34.7785C55.0213 35.4072 54.8602 36.0215 54.5444 36.7065C53.9901 37.9141 54.5067 38.6594 55.6383 39.3965C55.9562 39.6026 56.1131 39.5297 56.2533 39.1675C56.9226 37.4102 57.6107 35.6613 58.3177 33.9186C58.4202 33.6666 58.4369 33.498 58.2487 33.2981C57.6839 32.6985 57.1297 32.0926 56.4833 31.3951ZM64.6032 32.103C63.7707 34.7472 62.9591 37.3165 62.1266 39.9607C64.6283 38.878 65.8749 34.9034 64.6032 32.103ZM65.9439 31.8032C66.3121 32.9025 66.4668 33.9935 66.3999 35.1137C66.3434 36.0319 66.5045 36.1422 67.4018 35.8008C67.6152 35.7196 67.8222 35.5967 68 35.451C68.7572 34.8284 68.9873 33.7957 68.5815 32.9254C68.1423 31.9843 67.3056 31.6116 65.9439 31.8032ZM59.0101 32.18C59.4033 31.1661 59.7589 30.252 60.1375 29.2797C59.1397 29.3026 58.3554 29.6087 57.6191 30.0688C57.3472 30.2375 57.2468 30.3811 57.5313 30.6539C58.0186 31.1182 58.4704 31.6179 59.0101 32.18Z" fill="#161414" stroke="black" stroke-width="0.8"/>
</svg>
