<svg width="120" height="100" viewBox="0 0 120 100" fill="none" xmlns="http://www.w3.org/2000/svg">
<rect width="120" height="100" fill="white"/>
<path d="M25 63.5411C25.4059 62.4328 25.8101 61.3228 26.2211 60.2146C26.2999 60.0012 26.3752 59.7757 26.5054 59.5967C26.8256 59.1579 27.264 59.0116 27.7675 59.2422C28.3258 59.4986 28.5262 59.9702 28.355 60.5467C28.122 61.3314 27.8395 62.1007 27.5706 62.8975C28.6547 62.6841 30.5573 61.1645 30.9067 60.0975C31.4616 58.4059 32.1569 56.7607 32.7477 55.0793C33.2564 53.6303 34.1743 52.3551 34.51 50.8338C34.5579 50.6187 34.6658 50.4156 34.7943 50.0783C33.092 50.7288 31.8983 51.782 31.0437 53.2327C30.8022 53.6441 30.6413 54.1018 30.4289 54.5321C30.1343 55.1275 29.5589 55.3598 29.0109 55.1206C28.5022 54.8986 28.2368 54.3152 28.4646 53.7318C29.7815 50.3605 32.1912 48.2782 35.7533 47.6105C36.3459 47.4986 36.8528 47.342 37.3289 46.9238C39.1991 45.2855 41.4323 44.53 43.8796 44.3166C50.211 43.7608 56.539 43.1808 62.8704 42.6318C63.4853 42.5785 63.8141 42.3393 64.0675 41.7628C65.1088 39.3999 66.2031 37.0629 67.2838 34.719C67.3985 34.4712 67.515 34.2131 67.6879 34.0083C68.0168 33.6193 68.4569 33.504 68.9193 33.7381C69.392 33.9773 69.6283 34.38 69.4947 34.9255C69.4348 35.1665 69.3286 35.3988 69.2258 35.6259C68.3233 37.5998 67.4156 39.5703 66.5114 41.5442C66.4172 41.749 66.335 41.9572 66.1929 42.2928C66.9789 42.224 67.6691 42.181 68.3507 42.0846C68.4757 42.0674 68.6059 41.8488 68.6744 41.6957C71.2433 35.9133 73.807 30.1276 76.3639 24.3384C76.5163 23.9925 76.5934 23.6121 76.7321 23.1561C75.124 23.8428 74.1341 24.9872 73.4508 26.431C72.9336 27.5255 72.4438 28.6338 71.9317 29.73C71.5704 30.501 71.0292 30.766 70.4212 30.4907C69.8218 30.2188 69.6454 29.6044 69.9914 28.8438C70.5856 27.5324 71.1542 26.2073 71.8187 24.9321C72.9439 22.7758 74.7181 21.3973 77.0541 20.733C77.376 20.6418 77.6997 20.4198 77.9309 20.172C78.6245 19.432 79.4431 19.0069 80.457 19.0001C81.1455 18.9949 81.6729 19.3184 81.8699 19.9741C82.0017 20.4147 82.2329 20.4852 82.6114 20.4646C82.906 20.4491 83.2057 20.4577 83.4985 20.4921C84.4456 20.6057 85.1803 21.3956 84.9268 22.2974C84.5466 23.6569 84.9988 24.5019 86.0178 25.3727C86.8895 26.1178 87.7458 26.5704 88.8915 26.536C90.1434 26.4981 91.3987 26.5171 92.6506 26.5308C94.1936 26.5463 95.0397 27.3707 94.9986 28.9178C94.9592 30.3737 95.0071 31.8726 94.6732 33.27C94.2091 35.2078 91.9998 36.4967 90.1228 36.23C89.6159 36.1577 89.1878 35.9013 89.1741 35.4074C89.1638 35.0357 89.4035 34.6175 89.633 34.2939C89.7409 34.1442 90.0886 34.1305 90.3301 34.1184C91.9553 34.0392 92.8304 33.1478 92.8493 31.5129C92.8595 30.5991 92.851 29.6853 92.851 28.6631C92.4725 28.6631 92.1403 28.6631 91.8097 28.6631C90.6931 28.6631 89.5765 28.651 88.4599 28.6648C86.8723 28.6837 85.5965 28.028 84.5466 26.8767C83.925 26.1953 83.216 25.7117 82.2603 25.648C81.8493 25.6205 81.6044 25.7323 81.3766 26.1023C81.1437 26.4809 80.8201 26.8337 80.4621 27.097C79.4911 27.8129 78.5509 27.7166 77.6295 26.8389C77.4959 27.1142 77.3623 27.3707 77.2459 27.6357C74.9801 32.7537 72.7024 37.8649 70.464 42.995C70.1232 43.7763 69.6882 44.2409 68.8045 44.2392C68.2925 44.2392 67.7787 44.3321 67.1793 44.3923C67.5526 45.7674 67.9054 47.0615 68.2582 48.3539C68.325 48.5966 68.4124 48.8341 68.4586 49.0802C68.5785 49.7221 68.2565 50.259 67.6777 50.4173C67.1468 50.5619 66.6073 50.2676 66.4155 49.6446C66.0747 48.5312 65.7818 47.4022 65.4667 46.2802C65.3143 45.7329 65.1585 45.1874 64.9889 44.5851C64.2953 44.6453 63.6257 44.7038 62.879 44.7692C63.0845 46.1408 63.2797 47.4659 63.4818 48.791C63.6325 49.7857 63.7987 50.7787 63.9442 51.7751C64.0778 52.6855 63.7421 53.2586 63.0451 53.3498C62.4183 53.4307 61.9456 52.9557 61.8121 52.0763C61.4781 49.9062 61.1544 47.7344 60.8239 45.5626C60.7965 45.3853 60.7554 45.2098 60.7091 44.9723C59.9402 45.0394 59.2004 45.1048 58.3903 45.1771C58.4348 45.9618 58.4691 46.707 58.5187 47.4504C58.666 49.6429 58.8167 51.8354 58.9692 54.0278C59.0308 54.9072 58.678 55.4424 57.9998 55.4889C57.3234 55.5354 56.9021 55.0621 56.8421 54.1793C56.6589 51.4619 56.4756 48.7429 56.2924 46.0255C56.2804 45.8448 56.2513 45.6658 56.2187 45.3905C55.4858 45.449 54.7733 45.5058 53.9667 45.5695C53.8365 46.7776 53.7064 47.9719 53.5797 49.1679C53.4581 50.3055 53.3604 51.4464 53.2149 52.5805C53.1138 53.3704 52.6531 53.7525 52.0041 53.6681C51.3892 53.589 51.0416 53.1364 51.1135 52.3585C51.2968 50.3295 51.5177 48.3057 51.7232 46.2785C51.7369 46.146 51.7455 46.0135 51.7643 45.7897C50.9354 45.8586 50.1459 45.9033 49.365 46.0066C49.2451 46.0221 49.0995 46.2871 49.067 46.4557C48.8255 47.7602 48.6097 49.0681 48.3854 50.376C48.3614 50.512 48.3477 50.6479 48.3169 50.7822C48.1525 51.5084 47.6798 51.9197 47.1095 51.8388C46.4536 51.7459 46.0888 51.1935 46.2121 50.3915C46.3971 49.1937 46.6197 48.0029 46.8235 46.8068C46.8509 46.6502 46.8629 46.4902 46.8937 46.2303C46.3286 46.2785 45.7942 46.294 45.2719 46.3869C45.1452 46.4093 45.0099 46.6657 44.9653 46.8378C44.6913 47.8755 44.4499 48.9235 44.181 49.963C43.9737 50.7632 43.4411 51.1573 42.8383 50.9904C42.2046 50.8148 41.9272 50.2555 42.1105 49.4415C42.3143 48.5346 42.5489 47.6346 42.7749 46.7122C39.1237 47.1355 36.1404 50.3261 35.9212 54.1775C35.7824 56.6195 35.839 59.077 35.8766 61.5259C35.8938 62.5912 35.7516 63.5205 34.8611 64.214C33.7547 65.0745 33.5013 66.2137 33.5612 67.5922C33.6657 70.0376 33.5903 72.4916 33.5903 74.9422C33.5903 75.1901 33.5903 75.4396 33.5903 75.7631C34.0647 75.6995 34.4809 75.6444 34.9929 75.5773C34.9929 75.3209 34.9929 75.0782 34.9929 74.8356C34.9929 73.1645 34.9929 71.4918 34.9929 69.8208C34.9929 68.0964 35.5598 67.5371 37.2981 67.5354C37.7091 67.5354 38.1184 67.5491 38.5277 67.5302C38.7315 67.5216 38.9336 67.4545 39.295 67.3805C38.7024 66.7472 38.2212 66.2412 37.7485 65.725C37.1902 65.114 37.1422 64.479 37.6115 64.0316C38.091 63.5721 38.6904 63.653 39.2933 64.2381C39.8002 64.7303 40.3225 65.2052 40.8825 65.7301C41.249 65.3859 41.6755 64.985 42.1379 64.5478C41.124 63.4637 40.1427 62.4173 39.1614 61.3676C39.0055 61.2006 38.8343 61.0423 38.711 60.853C38.3856 60.3539 38.3753 59.848 38.8343 59.4298C39.2881 59.0151 39.8087 59.0133 40.2489 59.435C40.8586 60.0184 41.422 60.6499 42.0043 61.2643C42.554 61.8443 43.1003 62.4259 43.7151 63.0765C44.3265 62.5086 44.9208 61.9579 45.575 61.3521C44.9551 60.5949 44.3522 59.86 43.7511 59.1235C43.6073 58.9462 43.448 58.7776 43.3298 58.5848C43.0198 58.0737 43.0438 57.5729 43.4891 57.1547C43.8933 56.7761 44.5543 56.8054 44.9619 57.2597C45.6315 58.0083 46.296 58.769 46.8851 59.5813C47.2499 60.0838 47.5942 60.1147 48.1473 59.953C51.9647 58.843 55.8403 58.2647 59.8203 58.8361C60.0806 58.874 60.3906 58.9359 60.5721 59.1028C62.0844 60.483 63.9579 60.9752 65.8932 61.1817C67.8815 61.3951 69.8886 61.4313 71.8889 61.5293C72.4113 61.5552 72.9387 61.4949 73.4611 61.5259C74.3944 61.581 74.7575 61.9802 74.7712 62.9181C74.8226 66.5131 74.8722 70.1082 74.9202 73.7032C74.927 74.2023 74.9219 74.703 74.9219 75.3105C75.535 75.166 76.0591 75.0593 76.5711 74.9095C76.6876 74.8751 76.8297 74.703 76.8434 74.5809C77.0404 72.6758 77.2168 70.769 77.4017 68.8398C77.126 68.7968 76.9171 68.7968 76.7321 68.7297C76.2594 68.5576 75.9015 68.1928 76.0231 67.6989C76.1122 67.334 76.4855 66.7524 76.7167 66.761C77.7631 66.7971 77.811 66.1397 77.8504 65.4083C77.8573 65.2724 77.8795 65.1381 77.9018 64.9454C77.6175 64.9299 77.3504 64.9282 77.0849 64.8972C76.4684 64.8249 76.0128 64.3723 76.0437 63.8251C76.0779 63.2227 76.429 62.8631 77.0198 62.7632C77.4326 62.6927 78.1296 62.765 78.2118 62.5688C78.4738 61.9355 78.5098 61.2093 78.6485 60.4262C78.0765 60.4262 77.6004 60.4503 77.1277 60.4211C76.4581 60.378 76.018 59.9203 76.0351 59.3386C76.0539 58.7535 76.5043 58.3405 77.1808 58.306C77.4994 58.2906 77.8196 58.3009 78.1381 58.3009C78.4327 58.3009 78.7273 58.3009 79.0938 58.3009C79.265 57.6297 79.4329 56.9792 79.623 56.2358C78.7204 56.2358 77.9052 56.2358 77.09 56.2358C76.816 56.2358 76.542 56.2513 76.2697 56.2289C75.5453 56.1704 75.1034 55.7401 75.1154 55.1258C75.1274 54.5114 75.5864 54.0829 76.3108 54.0708C77.4274 54.0519 78.5457 54.0381 79.6606 54.0777C80.1676 54.0949 80.4022 53.9521 80.4519 53.4272C80.5289 52.6167 80.6591 51.8095 80.7738 50.9422C79.1537 50.7856 77.6364 50.672 76.131 50.4689C75.7285 50.4139 75.2524 50.1695 75.0161 49.8563C74.8483 49.6326 74.8859 49.0096 75.0812 48.8117C75.3552 48.5312 75.8655 48.3384 76.2646 48.3556C77.6055 48.4176 78.9413 48.5897 80.2789 48.717C80.4347 48.7325 80.5923 48.7188 80.8457 48.7188C80.9023 47.903 80.9776 47.0942 80.9913 46.2836C80.993 46.1769 80.6848 46.0014 80.4998 45.9687C79.1109 45.7175 77.7117 45.523 76.3297 45.2408C75.9426 45.1616 75.4853 44.9258 75.2798 44.6161C75.1171 44.3717 75.1839 43.852 75.3329 43.5439C75.571 43.0535 76.0882 43.019 76.5917 43.1051C78.0046 43.3477 79.4192 43.5887 80.832 43.8296C80.9194 43.8451 81.0102 43.8468 81.1626 43.8606C81.2277 42.9416 81.2927 42.0398 81.3595 41.0847C80.3885 40.9178 79.474 40.7612 78.5612 40.6011C78.3145 40.5581 78.0628 40.5271 77.8265 40.4514C77.239 40.2621 76.9821 39.8319 77.0883 39.233C77.1894 38.6548 77.5884 38.3381 78.1604 38.4001C79.0647 38.4982 79.9603 38.6703 80.8594 38.8097C81.0376 38.8372 81.2174 38.8561 81.4982 38.8923C81.5393 38.3863 81.5959 37.8958 81.6147 37.4037C81.6404 36.7755 81.8956 36.3109 82.4659 36.0286C82.9145 35.8066 83.3478 35.5502 83.8085 35.3558C84.3891 35.1114 84.9525 35.3213 85.194 35.8514C85.4492 36.4158 85.3242 36.9992 84.7761 37.1971C83.7075 37.5844 83.6818 38.3743 83.6304 39.3053C83.3958 43.5336 83.1218 47.7602 82.8152 51.9851C82.7467 52.9368 82.5909 53.9056 82.2997 54.8108C81.0478 58.7053 80.3542 62.7099 79.8576 66.7541C79.5545 69.2288 79.3318 71.7138 79.0355 74.1902C78.9516 74.8941 79.0681 75.4017 79.724 75.7889C80.2892 76.1228 80.7841 76.5789 81.3064 76.985C81.9058 77.4514 82.137 78.0537 81.9521 78.8023C81.8099 79.3788 81.6866 79.9605 81.5256 80.5318C81.3253 81.2408 80.8577 81.7072 80.1145 81.7227C78.431 81.7554 76.7441 81.7709 75.0606 81.7175C74.2403 81.6917 73.7334 81.1686 73.5621 80.3563C73.1579 78.434 72.7795 76.5186 72.7966 74.5241C72.824 71.182 72.7161 67.8383 72.663 64.4945C72.6596 64.2312 72.6339 63.9679 72.6185 63.7029C72.5534 63.6874 72.4866 63.6719 72.4215 63.6547C72.3428 63.8044 72.2212 63.9472 72.192 64.1056C71.4745 67.9019 70.762 71.7 70.0719 75.5033C70.0393 75.6823 70.1832 76.023 70.3305 76.0849C72.0859 76.8267 72.3684 78.1002 71.9043 79.8314C71.483 81.4009 71.1628 81.7674 69.5375 81.7674C68.3987 81.7674 67.2581 81.7778 66.1192 81.764C64.6498 81.7485 64.0453 81.0137 64.1669 79.532C64.6036 74.216 65.0163 68.9001 65.4359 63.5824C65.441 63.5187 65.4119 63.4533 65.3982 63.3879C64.4494 63.1332 63.4784 62.956 62.5776 62.6049C61.6339 62.2366 60.7571 61.6946 59.8443 61.2419C59.5686 61.1043 59.2689 60.9184 58.9794 60.9167C57.2069 60.9081 55.4344 60.9219 53.6636 60.9941C53.4033 61.0045 53.0727 61.3056 52.9169 61.5603C51.492 63.875 50.0671 66.1931 48.7108 68.549C48.2398 69.3682 47.6747 69.8431 46.7225 69.8208C46.4279 69.8139 46.1316 69.8741 45.8353 69.8707C45.462 69.8672 45.3113 70.0152 45.3147 70.4024C45.3284 72.0046 45.3061 73.6085 45.337 75.2107C45.3404 75.4327 45.563 75.653 45.688 75.8716C45.6983 75.8888 45.724 75.8991 45.7463 75.9077C47.6061 76.5961 48.1011 78.126 48.2621 79.9123C48.3819 81.2495 47.8185 81.9757 46.481 81.9894C44.9773 82.0049 43.472 82.0015 41.9683 81.9912C40.653 81.9808 40.0588 81.3768 40.0571 80.0465C40.0502 76.794 40.0554 73.5431 40.0554 70.2906C40.0554 70.0393 40.0554 69.7898 40.0554 69.5953C39.1014 69.6538 38.1835 69.7089 37.2056 69.7691C37.1936 69.9481 37.1662 70.1443 37.1662 70.3422C37.1628 72.0373 37.1765 73.7324 37.1542 75.4258C37.1491 75.8354 37.2467 76.1245 37.6098 76.3259C39.1425 77.1743 39.1939 78.7403 39.3755 80.1945C39.4731 80.9707 38.8 81.678 37.9951 81.7055C36.3116 81.7606 34.6247 81.7692 32.9413 81.7021C31.9754 81.6642 31.4496 80.9603 31.441 79.9174C31.4291 78.2464 31.4376 76.5737 31.4376 74.9027C31.4376 71.8566 31.4445 68.8106 31.4325 65.7663C31.4291 65.0848 31.6311 64.5444 32.1209 64.0505C33.7479 62.4156 33.7359 62.4019 33.7359 60.0579C33.7359 59.7258 33.7359 59.3919 33.7359 59.0598C33.6897 59.0478 33.6434 59.0357 33.5972 59.0237C33.4859 59.3076 33.3454 59.5847 33.2701 59.8773C32.6416 62.3244 30.9238 63.7717 28.79 64.8404C28.4851 64.9936 28.1751 65.1381 27.8652 65.2827C26.4745 65.9366 25.846 65.7663 25.0034 64.5065C25 64.183 25 63.8629 25 63.5411ZM50.2983 61.7083C50.2504 61.6412 50.2024 61.5724 50.1545 61.5052C49.204 61.8959 48.1011 62.0972 47.3321 62.7168C45.6658 64.0557 44.157 65.5942 42.6174 67.0845C42.393 67.3013 42.2338 67.7006 42.2286 68.0172C42.1961 70.3044 42.2098 72.5915 42.2132 74.8769C42.2132 75.0782 42.2338 75.2796 42.2457 75.5342C42.578 75.4723 42.8606 75.4207 43.1774 75.3622C43.1774 73.3039 43.174 71.2939 43.1791 69.2838C43.1808 68.2496 43.5148 67.8968 44.5475 67.8142C45.1366 67.7677 45.7292 67.7384 46.3149 67.661C46.5118 67.6352 46.7721 67.5337 46.8663 67.3822C48.024 65.5012 49.1578 63.6031 50.2983 61.7083ZM66.645 75.4929C67.8986 75.4086 67.8883 75.4069 68.0784 74.3743C68.4586 72.311 68.8508 70.2476 69.2361 68.1859C69.5118 66.7111 69.7841 65.2362 70.0736 63.6719C69.2087 63.6719 68.4261 63.6719 67.5732 63.6719C67.2666 67.5853 66.9584 71.5107 66.645 75.4929ZM79.6658 79.5905C79.6298 79.1568 79.748 78.613 79.5322 78.3721C79.0527 77.8386 78.4122 77.4496 77.823 77.0211C77.7134 76.9403 77.5216 76.9041 77.3897 76.9351C76.6653 77.1072 75.946 77.3068 75.1719 77.5116C75.3244 78.2327 75.4665 78.9107 75.6087 79.5888C76.9513 79.5905 78.2221 79.5905 79.6658 79.5905ZM42.2457 79.8004C43.537 79.8004 44.7667 79.8004 46.0032 79.8004C45.7514 77.7749 44.5543 77.145 42.2457 77.7938C42.2457 78.4392 42.2457 79.0948 42.2457 79.8004ZM66.3401 79.5681C67.491 79.5681 68.5922 79.5681 69.7841 79.5681C69.7841 79.1224 69.9434 78.4856 69.7533 78.3514C69.2139 77.9728 68.7463 77.3447 67.9191 77.5082C66.4737 77.7955 66.4703 77.7732 66.3418 79.2222C66.3316 79.3134 66.3401 79.4046 66.3401 79.5681ZM33.6297 79.575C33.8626 79.587 34.063 79.606 34.2617 79.606C35.1882 79.6094 36.1164 79.6077 37.0446 79.6077C36.9915 77.7904 35.6763 77.2999 33.6297 78.0589C33.6297 78.551 33.6297 79.0449 33.6297 79.575ZM79.8524 21.5161C79.7874 21.492 79.724 21.4662 79.6589 21.4421C79.5373 21.6451 79.3781 21.8344 79.3027 22.053C79.1177 22.5916 79.0201 23.1647 78.7992 23.6879C78.4995 24.4003 78.8163 24.8306 79.4089 25.3262C79.9672 24.0372 79.6726 22.7465 79.8524 21.5161ZM81.8956 23.397C82.6525 23.6276 82.7553 23.5192 82.6285 22.6501C82.4162 22.6501 82.2021 22.6501 81.9435 22.6501C81.9264 22.9238 81.911 23.1647 81.8956 23.397Z" fill="black"/>
<path d="M91.5 35L84 36.5" stroke="black" stroke-width="2"/>
<path d="M71.5 28L67 38" stroke="black" stroke-width="2"/>
<path d="M30 52.5L26.5 62.5" stroke="black" stroke-width="2"/>
<circle cx="81.5" cy="30.5" r="0.5" fill="black"/>
</svg>
