<svg width="120" height="100" viewBox="0 0 120 100" fill="none" xmlns="http://www.w3.org/2000/svg">
<rect width="120" height="100" fill="white"/>
<path d="M101.307 22.2669H95.713V21.6931C95.713 21.2269 95.5209 20.7814 95.1819 20.4617C94.8425 20.1416 94.3849 19.9765 93.9218 20.0027L60.5 21.9401L27.0782 20.0027C26.6126 19.9765 26.157 20.1416 25.8181 20.4617C25.4792 20.7816 25.287 21.2271 25.287 21.6931V22.2669H19.6932C18.7582 22.2669 18 23.0251 18 23.9601V78.0452C18 78.9802 18.7582 79.7384 19.6932 79.7384H101.307C102.242 79.7384 103 78.9802 103 78.0452V23.9601C103 23.0251 102.242 22.2669 101.307 22.2669ZM62.1932 25.2343L92.3266 23.4875V69.9702L62.1932 71.7169V25.2343ZM28.6734 23.4874L58.8068 25.2343V71.7169L28.6734 69.97V23.4874ZM99.6135 76.352H21.3865V25.6533H25.287V71.5679C25.287 72.465 25.9866 73.2064 26.8822 73.2583L60.402 75.2016C60.4346 75.2034 60.467 75.2043 60.4993 75.2043C60.4995 75.2043 60.4997 75.2043 60.4998 75.2043H60.5H60.5002C60.5003 75.2043 60.5005 75.2043 60.5007 75.2043C60.5332 75.2043 60.5657 75.2033 60.598 75.2016L94.1178 73.2583C95.0134 73.2063 95.713 72.4648 95.713 71.5679V25.6533H99.6135V76.352Z" fill="black"/>
<path d="M54.2826 29.3947L42.4617 28.7094C41.5277 28.6541 40.7275 29.3684 40.6732 30.3017C40.6192 31.2354 41.3322 32.0361 42.2655 32.0903L54.0864 32.7755C54.1198 32.7776 54.1531 32.7784 54.186 32.7784C55.0763 32.7784 55.8226 32.0835 55.875 31.1832C55.9291 30.2496 55.2161 29.4487 54.2826 29.3947Z" fill="black"/>
<path d="M33.6832 31.5927L36.5981 31.7617C36.6315 31.7637 36.6648 31.7646 36.6977 31.7646C37.588 31.7646 38.3343 31.0697 38.3867 30.1694C38.4407 29.2357 37.7278 28.435 36.7944 28.381L33.8795 28.212C32.9412 28.1578 32.1453 28.871 32.0909 29.8043C32.0367 30.7378 32.7496 31.5387 33.6832 31.5927Z" fill="black"/>
<path d="M54.2826 37.1673L33.8792 35.9846C32.941 35.9306 32.145 36.6436 32.0906 37.5769C32.0366 38.5105 32.7495 39.3113 33.683 39.3654L54.0863 40.5482C54.1197 40.5502 54.1531 40.551 54.1859 40.551C55.0762 40.551 55.8226 39.8561 55.8749 38.9558C55.9291 38.0222 55.2162 37.2213 54.2826 37.1673Z" fill="black"/>
<path d="M54.2826 45.1019L33.8792 43.9192C32.941 43.8655 32.145 44.5782 32.0906 45.5115C32.0366 46.4452 32.7495 47.2459 33.683 47.3001L54.0863 48.4828C54.1197 48.4848 54.1531 48.4857 54.1859 48.4857C55.0762 48.4857 55.8226 47.7908 55.8749 46.8905C55.9291 45.9569 55.2162 45.1561 54.2826 45.1019Z" fill="black"/>
<path d="M54.2826 52.8749L33.8792 51.6922C32.941 51.6385 32.145 52.3512 32.0906 53.2845C32.0366 54.2181 32.7495 55.0189 33.683 55.073L54.0863 56.2558C54.1197 56.2578 54.1531 56.2586 54.1859 56.2586C55.0762 56.2586 55.8226 55.5637 55.8749 54.6634C55.9291 53.7298 55.2162 52.9289 54.2826 52.8749Z" fill="black"/>
<path d="M87.4445 51.692L74.8138 52.4242C73.8802 52.4782 73.1673 53.2791 73.2215 54.2127C73.2738 55.1129 74.02 55.8079 74.9105 55.8079C74.9434 55.8079 74.9767 55.8071 75.0101 55.805L87.6407 55.0729C88.5744 55.0189 89.2872 54.218 89.233 53.2843C89.1787 52.351 88.3849 51.6373 87.4445 51.692Z" fill="black"/>
<path d="M69.794 52.7152L67.0411 52.8747C66.1077 52.9287 65.3946 53.7296 65.4488 54.6633C65.5011 55.5634 66.2473 56.2585 67.1378 56.2585C67.1707 56.2585 67.204 56.2576 67.2374 56.2556L69.9902 56.0961C70.9237 56.0421 71.6367 55.2412 71.5825 54.3075C71.5282 53.3742 70.73 52.6605 69.794 52.7152Z" fill="black"/>
<path d="M87.4445 43.9192L67.0411 45.1019C66.1075 45.156 65.3946 45.9569 65.4488 46.8905C65.5011 47.7906 66.2473 48.4857 67.1378 48.4857C67.1707 48.4857 67.204 48.4848 67.2374 48.4828L87.6408 47.3001C88.5744 47.2461 89.2873 46.4452 89.2331 45.5115C89.1787 44.5782 88.3849 43.8655 87.4445 43.9192Z" fill="black"/>
<path d="M87.4445 35.9846L67.0411 37.1673C66.1075 37.2213 65.3946 38.0222 65.4488 38.9559C65.5011 39.856 66.2473 40.5511 67.1378 40.5511C67.1707 40.5511 67.204 40.5502 67.2374 40.5482L87.6408 39.3655C88.5744 39.3115 89.2873 38.5106 89.2331 37.5769C89.1787 36.6434 88.3849 35.9291 87.4445 35.9846Z" fill="black"/>
<path d="M87.4445 28.2118L67.0411 29.3945C66.1075 29.4485 65.3946 30.2494 65.4488 31.1831C65.5011 32.0832 66.2473 32.7783 67.1378 32.7783C67.1707 32.7783 67.204 32.7774 67.2374 32.7754L87.6408 31.5927C88.5744 31.5387 89.2873 30.7378 89.2331 29.8041C89.1787 28.8708 88.3849 28.1571 87.4445 28.2118Z" fill="black"/>
</svg>
