<svg width="120" height="100" viewBox="0 0 120 100" fill="none" xmlns="http://www.w3.org/2000/svg">
<g clip-path="url(#clip0_37_1738)">
<rect width="120" height="100" fill="white"/>
<path d="M41.0346 42.301C39.9592 41.8714 38.739 42.3945 38.3092 43.47C36.5441 47.8863 33.836 54.8165 30.8796 62.483C30.463 63.5634 31.001 64.7771 32.0817 65.1938C32.6512 65.4136 33.258 65.3678 33.7653 65.1171C34.2201 64.8923 34.5955 64.5027 34.7927 63.9916C37.7431 56.3402 40.4443 49.4277 42.2035 45.0261C42.6332 43.9511 42.1099 42.7308 41.0346 42.301Z" fill="black"/>
<path d="M44.1884 36.0955C43.1998 35.4924 41.9096 35.8049 41.3064 36.7935L41.2461 36.8934C40.6494 37.886 40.9706 39.1744 41.963 39.7707C42.5986 40.1528 43.3552 40.1588 43.9741 39.853C44.3217 39.6812 44.6258 39.411 44.8404 39.0538L44.8865 38.9777C45.4895 37.9892 45.177 36.6987 44.1884 36.0955Z" fill="black"/>
<path d="M104.629 35.3274C101.983 34.4316 68.1098 24.4589 58.1521 21.8134C53.0788 20.4649 48.1019 20.8006 44.138 22.7591C40.1751 24.7174 36.8846 28.4667 34.8732 33.3161C32.317 39.4792 17.6894 77.5121 17.3741 78.444C16.5815 80.7851 16.7479 83.2949 17.8428 85.5107C18.9378 87.7265 20.8301 89.3835 23.1714 90.176C25.5122 90.9685 28.0218 90.8019 30.2374 89.7071C31.7145 88.9772 32.9711 87.8665 33.8713 86.4954L33.8705 86.4949C33.8915 86.4635 33.9117 86.4313 33.9312 86.3984C34.0974 86.1177 49.1925 60.7823 51.9494 56.5333C54.8139 52.1186 57.7315 50.6424 57.8431 50.5868C57.8925 50.5655 57.8942 50.5635 57.9411 50.5388C58.0624 50.4789 60.9737 49.0747 66.2208 49.4814C73.0478 50.0105 100.939 53.3146 101.003 53.3178L101.003 53.3224C102.639 53.4404 104.284 53.1168 105.762 52.3871C107.977 51.2925 109.634 49.4 110.426 47.0592C111.219 44.7181 111.052 42.2084 109.957 39.9926C108.863 37.7768 106.97 36.1199 104.629 35.3274ZM30.3413 84.231C29.8521 84.9615 29.1749 85.5543 28.3797 85.9472C27.1684 86.5458 25.7961 86.6367 24.5162 86.2037C23.2361 85.7702 22.2015 84.8642 21.6028 83.6527C21.0042 82.4414 20.9132 81.069 21.3464 79.7885C21.4509 79.4799 21.7194 78.7487 22.1152 77.6904L32.1955 81.1034C31.1954 82.7882 30.518 83.9321 30.3413 84.231ZM34.3868 77.418L23.598 73.765C24.0324 72.6216 24.5155 71.3551 25.0349 69.9964L36.4975 73.8773C35.7557 75.1198 35.0452 76.3116 34.3868 77.418ZM66.5446 45.3007C60.3999 44.8241 56.7521 46.4489 56.0834 46.7794C56.0499 46.7957 56.0292 46.8059 55.9965 46.8223C55.3218 47.1557 51.7862 49.0808 48.4314 54.2511C46.5654 57.1273 42.5055 63.8406 38.6992 70.1948L26.5366 66.0769C30.7517 55.1008 36.3523 40.6964 38.7469 34.923C40.3458 31.0685 42.9876 28.0055 45.9955 26.5191C49.0043 25.0326 53.0425 24.7949 57.0752 25.8666C63.1129 27.4707 77.9627 31.7739 89.2444 35.0943L85.1274 47.2551C77.7399 46.4151 69.99 45.5675 66.5446 45.3007ZM89.3901 47.7431L93.2701 36.2823C94.6656 36.6951 95.9645 37.0809 97.1367 37.4304L93.4846 48.2177C92.1975 48.0678 90.8206 47.9078 89.3901 47.7431ZM106.454 45.7143C106.021 46.9945 105.115 48.0288 103.904 48.6273C103.109 49.02 102.226 49.1981 101.349 49.1425L101.3 49.1367C100.555 49.0483 99.3183 48.9016 97.7435 48.7162L101.156 38.637C102.234 38.9644 102.976 39.195 103.284 39.2995C104.565 39.7327 105.599 40.6388 106.198 41.8503C106.796 43.0618 106.887 44.4345 106.454 45.7143Z" fill="black"/>
</g>
<defs>
<clipPath id="clip0_37_1738">
<rect width="120" height="100" fill="white"/>
</clipPath>
</defs>
</svg>
