<svg width="120" height="100" viewBox="0 0 120 100" fill="none" xmlns="http://www.w3.org/2000/svg">
<rect width="120" height="100" fill="white"/>
<path d="M49.8184 78C48.9433 76.431 47.5022 76.1265 45.9507 76.0666C44.1561 75.9965 42.4653 76.3883 40.8695 77.2112C40.4498 77.4285 40.0182 77.6253 39.5457 77.8528C38.9747 76.0752 37.8634 75.0486 36.0841 74.6123C34.3593 74.1897 32.9199 74.8741 31.3123 75.5345C31.2545 74.9117 31.212 74.3608 31.1526 73.8099C30.9452 71.8903 30.2332 71.1477 28.3265 70.8928C27.3188 70.7576 26.3076 70.6567 25.2438 70.5335C25.1929 69.8594 25.1283 69.2144 25.0994 68.5659C25.0212 66.8601 24.35 65.4367 23.1757 64.2168C22.9718 64.0063 22.8443 63.6316 22.8409 63.3305C22.8035 60.54 22.9973 57.7307 22.7509 54.9607C22.1629 48.3514 24.6695 43.0766 29.2034 38.5444C33.8308 33.9181 39.2568 30.5031 45.1758 27.858C53.6573 24.0683 62.4804 21.7671 71.8389 22.0186C75.3345 22.1127 78.7842 22.5028 82.0368 23.9554C85.4457 25.4781 88.0526 27.964 90.3399 30.8504C91.9985 32.9445 93.6758 35.025 95.3259 37.126C95.455 37.2903 95.5553 37.6102 95.4856 37.7796C94.3215 40.5804 95.0743 42.9551 97.0337 45.0784C97.1102 45.1605 97.1731 45.2546 97.3362 45.4599C94.2094 46.8338 92.9722 49.0837 94.3181 52.3396C93.0946 52.988 91.9101 53.5286 90.8174 54.2181C89.4919 55.0548 88.7119 56.273 88.7901 57.924C88.853 59.2619 88.8649 59.2893 87.592 59.794C85.5953 60.5862 83.7481 61.5956 82.2237 63.156C81.3129 64.0902 80.628 65.139 80.2439 66.3999C80.1641 66.6634 79.8718 67.0124 79.6339 67.0501C76.6753 67.5137 74.3233 69.0655 72.2059 71.0913C71.934 71.3513 71.4956 71.5447 71.12 71.5737C67.7128 71.8389 64.5401 72.6721 61.957 75.1136C61.7497 75.3104 61.296 75.2933 60.9561 75.2916C59.3179 75.2813 57.6695 75.1136 56.0432 75.242C53.6046 75.4319 51.9817 76.2377 49.8184 78ZM61.4319 71.365C61.3656 71.3804 61.2977 71.3958 61.2314 71.4112C60.708 69.7824 60.1829 68.1519 59.7241 66.725C62.4634 65.565 65.0363 64.4768 67.655 63.3682C68.6508 65.488 69.6841 67.6882 70.7615 69.9809C72.7939 67.6386 75.0626 65.9328 78.2557 65.553C77.1715 64.2373 76.2011 63.0551 75.2257 61.8797C74.7788 61.3407 74.2894 61.3441 73.7354 61.7376C73.0658 62.2133 72.4099 62.7317 71.6774 63.0858C70.8838 63.4691 70.6799 64.0337 70.826 64.8173C70.9569 65.5239 71.1098 66.2271 71.2526 66.932C71.205 66.9474 71.1574 66.9628 71.1098 66.9782C70.4284 65.5273 69.7469 64.0782 69.1488 62.8036C71.2883 61.469 73.3411 60.1893 75.3905 58.9129C76.5002 61.0396 77.6184 63.1834 78.8063 65.4606C80.5362 61.9772 83.3351 59.9343 86.6013 58.3278C85.3302 57.4535 84.1593 56.6596 83.002 55.8435C82.5126 55.4979 82.0538 55.5236 81.5949 55.864C80.9781 56.3192 80.3697 56.7845 79.7613 57.2499C78.6329 58.1088 78.5429 58.3723 78.9388 59.7803C79.1496 60.528 79.3841 61.2689 79.6084 62.0131C79.5421 62.0371 79.4741 62.061 79.4079 62.085C78.7332 60.5297 78.0586 58.9745 77.4706 57.6212C79.5353 55.7049 81.4777 53.9033 83.381 52.136C84.5654 53.8845 85.7533 55.6399 87.0482 57.551C87.3048 54.1206 89.9949 53.0958 92.3231 51.5286C90.9466 50.656 89.6771 49.8142 88.3618 49.0529C88.1375 48.9228 87.6277 49.0323 87.4051 49.2188C86.8885 49.6534 86.4976 50.2385 85.9963 50.6954C85.5171 51.1316 85.4746 51.5679 85.7074 52.136C86.0711 53.0239 86.3855 53.9341 86.7219 54.8341C86.654 54.8683 86.5877 54.9042 86.5197 54.9384C85.5953 53.5611 84.6691 52.1839 83.9282 51.0803C85.3726 48.9913 86.6523 47.1401 87.8962 45.3419C89.2489 47.1127 90.6662 48.969 92.0852 50.8254C92.2211 48.5054 92.6476 46.4386 94.8449 45.1331C93.6741 44.057 92.5882 43.0629 91.5074 42.0638C91.1284 41.713 90.8089 41.8174 90.4775 42.1459C89.3305 43.2854 89.1877 44.122 89.9541 45.5797C90.4351 46.495 90.9551 47.3916 91.4564 48.2966C91.4156 48.3206 91.3748 48.3463 91.3323 48.3702C90.26 46.9108 89.1877 45.4497 88.214 44.1237C88.8649 42.305 89.4732 40.6043 90.0867 38.89C91.4071 40.4161 92.7394 41.956 94.07 43.4941C93.6265 42.0963 92.8703 40.707 93.3614 39.3246C93.8797 37.8634 93.307 36.9874 92.4403 36.0533C92.1514 35.7419 91.9169 35.3809 91.6467 35.0507C91.4853 34.8539 91.3051 34.6726 91.0196 34.3612C90.7223 36.2569 91.6773 37.6479 92.165 39.2647C90.3637 37.4939 90.2804 37.3159 89.8488 35.0627C89.7366 34.4792 89.6041 33.8787 89.3594 33.3432C87.6872 29.6955 85.1891 26.8605 81.425 25.2933C78.339 24.0067 75.0932 23.5738 71.7896 23.5208C66.5419 23.4369 61.4013 24.2394 56.3389 25.5636C47.2541 27.9401 38.9238 31.8359 31.8459 38.1594C29.0521 40.654 26.5778 43.4291 25.1657 46.9929C23.92 50.1325 24.1851 53.1351 26.3484 55.7563C27.436 57.0754 28.7021 58.3415 30.1227 59.2654C34.31 61.9909 38.9459 63.5084 43.9505 63.7394C55.0508 64.2544 65.1824 61.2073 74.3828 55.0548C79.6594 51.5252 83.9469 47.0357 86.4161 41.0167C86.4246 40.9961 86.4874 40.9961 86.5282 40.9859C86.173 42.9432 84.7269 46.0143 82.9018 48.1615C73.6453 59.0447 62.0216 65.0534 47.6568 65.2964C43.06 65.3751 38.5533 64.7934 34.259 63.0379C30.0089 61.2996 26.6458 58.5776 24.7867 54.2267C24.6576 53.9256 24.5352 53.621 24.4095 53.3182C24.2701 53.5492 24.2667 53.7579 24.2701 53.9649C24.3109 56.9556 24.3466 59.9463 24.4061 62.937C24.4112 63.1577 24.5522 63.4126 24.7034 63.5889C25.6007 64.6274 26.153 65.8285 26.4113 67.1698C26.5388 67.8302 26.6203 68.4992 26.6968 68.9902C28.3843 69.4317 29.9358 69.8372 31.4007 70.2187C30.828 67.5377 30.0701 64.7472 27.8864 62.5486C27.0792 61.7376 26.5626 60.6341 25.9117 59.6657C25.9865 59.6144 26.0595 59.5631 26.1343 59.5117C26.2465 59.6332 26.3518 59.7615 26.4708 59.8762C27.8456 61.1867 29.183 62.5435 30.6257 63.7719C31.0642 64.1449 31.3701 64.4477 31.4635 65.0158C31.9173 67.7361 32.3982 70.4531 32.8502 73.0639C33.9752 73.0639 35.2191 72.8638 36.3611 73.1204C37.5167 73.3805 38.5703 74.0922 39.5542 74.5525C38.8031 71.5652 36.7945 69.2811 33.9956 67.3803C35.6593 67.7584 37.0477 68.0749 38.4989 68.4051C39.1413 70.7405 39.8091 73.1752 40.4294 75.4319C42.0659 75.1222 43.5783 74.6517 45.1044 74.5986C46.6015 74.5473 48.114 74.9186 49.6264 75.1051C49.0231 74.1675 48.3298 73.194 47.7435 72.1554C46.9754 70.7953 45.8691 70.1434 44.3244 69.9928C43.32 69.8953 42.3446 69.5104 41.3556 69.2537C41.3743 69.1288 41.393 69.0022 41.4116 68.8773C43.5647 68.8773 45.7178 68.8773 47.9338 68.8773C48.6663 71.0177 49.4395 73.2727 50.228 75.5756C53.2664 73.6662 56.5598 73.2624 60.1574 73.5789C59.3774 72.3539 58.6603 71.2401 57.9584 70.1177C57.469 69.3341 56.7739 69.0382 55.8699 69.1083C54.7976 69.1921 53.7202 69.2777 52.6462 69.2725C51.8441 69.2691 51.042 69.122 50.0563 69.0193C52.879 68.3418 55.4501 67.7259 58.0587 67.0997C58.8914 69.2229 59.7495 71.4095 60.64 73.6799C63.6071 71.9382 66.5334 70.3008 70.0222 69.9278C68.9686 68.7439 67.8691 67.7156 66.8155 66.6429C66.2241 66.0389 65.592 65.8952 64.8137 66.1706C64.0133 66.4547 63.2163 66.7832 62.3887 66.9457C61.4285 67.1339 61.1005 67.7207 61.1447 68.5796C61.194 69.5104 61.3334 70.436 61.4319 71.365Z" fill="black"/>
</svg>
