<svg width="120" height="100" viewBox="0 0 120 100" fill="none" xmlns="http://www.w3.org/2000/svg">
<rect width="120" height="100" fill="white"/>
<path d="M77.7693 33.3563C77.7951 33.3361 77.8209 33.316 77.8495 33.2958C77.8209 33.316 77.7951 33.3361 77.7693 33.3563ZM17.5659 48.3577C17.5745 48.2885 17.586 48.2193 17.5946 48.1473C17.6032 48.0926 17.6089 48.0378 17.6175 47.9831C17.6003 48.1098 17.5831 48.2338 17.5659 48.3577ZM17.7895 46.7008C17.7924 46.6777 17.7981 46.6547 17.801 46.6316C17.8038 46.6114 17.8067 46.5913 17.8096 46.5711C17.8038 46.6143 17.7952 46.6575 17.7895 46.7008ZM101.709 68.9953C101.7 69.0674 101.683 69.1365 101.675 69.2057C101.66 69.321 101.646 69.4362 101.632 69.5515C101.66 69.3671 101.683 69.1798 101.709 68.9953ZM102.996 49.3115C103.019 51.5014 102.939 53.677 102.778 55.8612C102.612 58.0743 102.449 60.293 102.36 62.5118C102.265 64.7566 101.978 66.984 101.677 69.2057C101.485 70.6032 101.23 71.9864 100.998 73.3753C100.774 74.7181 100.611 76.0667 100.393 77.4095C100.287 78.0665 100.124 78.7062 99.9746 79.3545C99.8285 79.9568 99.7052 80.5619 99.5274 81.1526C99.3554 81.7433 99.1089 82.3168 98.8796 82.8815C98.332 84.2243 97.5724 85.3971 96.42 86.3135C96.1304 86.6045 95.7893 86.8033 95.3908 86.9157C94.978 87.0281 94.5623 87.0281 94.1495 86.9157C93.688 86.7918 93.3039 86.4892 92.9513 86.1031C90.4028 85.0024 88.0177 83.6365 85.6527 82.1871C84.2623 81.3341 82.8634 80.4927 81.496 79.6023C80.8194 79.1615 80.1716 78.6745 79.495 78.2336C78.8758 77.8302 78.3397 77.3345 77.7578 76.8793C77.0985 76.3635 76.4821 75.7929 75.8486 75.2454C75.1118 74.6057 74.3407 73.9977 73.6011 73.358C72.8529 72.7068 72.1305 72.0267 71.4339 71.3179C70.8663 70.7416 70.3101 70.122 69.6823 69.6062C69.6479 69.612 69.6164 69.6264 69.582 69.6322C68.6274 69.7734 67.6699 69.9462 66.7038 69.9981C64.6914 70.099 62.6733 70.1624 60.658 70.1393C59.5343 70.122 58.4105 70.099 57.2868 70.073C56.2204 70.0385 55.1568 69.9088 54.1019 69.7878C53.3852 69.7042 52.6886 69.6149 52.0006 69.4103C51.5935 69.2921 51.1779 69.197 50.7593 69.1077C50.3637 69.0184 49.9624 68.9262 49.5668 68.8253C49.4722 69.0357 49.3575 69.2431 49.197 69.4247C48.9504 69.7042 48.7039 69.9924 48.466 70.2719C47.7436 71.0989 47.0298 71.923 46.2471 72.6866C45.476 73.4445 44.6418 74.1187 43.7933 74.7873C41.9815 76.1963 40.1612 77.6025 38.2892 78.9338C36.5835 80.1412 34.68 81.0748 32.8339 82.0459C30.8215 83.1063 28.7976 84.1581 26.7823 85.2041C26.5071 85.3481 26.2147 85.4288 25.9194 85.4634C25.5152 85.6132 25.0795 85.6795 24.6495 85.5354C24.0676 85.3395 23.4369 85.1464 22.918 84.8093C22.3361 84.4376 21.9347 83.9938 21.5535 83.4146C21.0059 82.5674 20.6419 81.5935 20.2635 80.6627C19.8564 79.6686 19.4981 78.6457 19.2401 77.5997C18.9821 76.5392 18.7699 75.4702 18.5578 74.3982C18.3571 73.3465 18.1106 72.3149 17.9214 71.2631C17.7207 70.122 17.6089 68.9665 17.5028 67.8139C17.3079 65.7248 17.2248 63.6299 17.1216 61.5321C17.0155 59.3738 16.9696 57.2069 17.0212 55.0486C17.0757 52.7319 17.2964 50.4439 17.5974 48.1502C17.6662 47.643 17.735 47.1359 17.801 46.6287C18.079 44.456 18.3657 42.292 18.7527 40.1366C19.0881 38.2838 19.5755 36.4453 20.1345 34.6415C20.6877 32.8434 21.2123 31.0395 21.9118 29.2933C22.2873 28.3539 22.6055 27.3944 23.0757 26.4953C23.2907 26.0833 23.4971 25.6654 23.6978 25.2447C23.9042 24.8125 24.1622 24.4869 24.4574 24.1036C24.7355 23.7492 25.2343 23.5792 25.7016 23.5043C25.9366 23.3141 26.2061 23.1642 26.5014 23.0836C26.6963 23.0288 26.9113 23 27.1321 23C27.5219 23 27.9233 23.0951 28.2214 23.3083C28.6371 23.5994 29.0441 23.9048 29.4655 24.1901C30.4431 24.8644 31.4436 25.5041 32.4096 26.1899C33.3155 26.8353 34.2042 27.5039 35.0986 28.1666C35.9701 28.8063 36.8301 29.4633 37.7044 30.1059C38.5759 30.7456 39.476 31.3479 40.3418 31.9933C41.3193 32.7224 42.3255 33.46 43.2085 34.3014C44.0685 35.1169 44.8912 35.9583 45.6967 36.8286C46.4449 37.6325 47.1903 38.4451 47.9557 39.2318C48.337 39.6237 48.7154 40.0184 49.1597 40.4363C50.3666 39.8974 51.5964 39.422 52.9093 39.1943C53.9929 39.0041 55.088 38.8572 56.1888 38.7506C57.8916 38.5863 59.6059 38.4883 61.3202 38.4883C61.6413 38.4883 61.9652 38.4912 62.2863 38.4999C64.2586 38.546 66.2308 38.6785 68.1601 39.0963C68.9915 39.2721 69.8887 39.4998 70.7057 39.86C70.9924 39.5459 71.2619 39.2174 71.5572 38.9091C72.1678 38.2693 72.7698 37.6296 73.4004 37.0101C74.7965 35.6615 76.3159 34.483 77.8495 33.2987C80.1716 31.5035 82.5366 29.7544 85.0392 28.23C87.6536 26.6336 90.4658 25.4032 93.3211 24.3255C93.4931 24.2592 93.6851 24.2304 93.8801 24.2304C94.0406 24.2304 94.2011 24.265 94.3588 24.2996C94.419 24.2564 94.4591 24.1901 94.5222 24.1526C94.8691 23.948 95.2503 23.8529 95.6316 23.8529C96.4056 23.8529 97.1653 24.2506 97.5724 24.9566C98.0167 25.7115 98.3435 26.5126 98.6789 27.3166C99.215 28.5816 99.7539 29.8495 100.256 31.1289C100.714 32.3132 100.921 33.5551 101.15 34.7971C101.379 36.0217 101.758 37.2061 102.016 38.4249C102.311 39.7908 102.48 41.2056 102.603 42.5946C102.804 44.8335 102.973 47.0696 102.996 49.3115ZM46.2557 66.7708C46.2414 66.7304 46.207 66.6872 46.1955 66.6497C46.1726 66.5691 46.1927 66.4826 46.1783 66.3991C45.8716 66.0158 45.7225 65.5922 45.6767 65.0908C45.6652 64.9439 45.6537 64.8056 45.6423 64.6586C45.6337 64.5606 45.6394 64.4598 45.6337 64.3589C44.8826 64.82 44.1344 65.2868 43.3633 65.7132C41.6633 66.6469 39.8372 67.3586 38.0484 68.0905C37.5123 68.3038 36.7699 68.1366 36.294 67.86C35.7866 67.5574 35.4053 67.0618 35.2477 66.4884C35.0843 65.8977 35.1703 65.258 35.477 64.7249C35.8009 64.1745 36.2596 63.8979 36.8358 63.6731C38.0742 63.2005 39.3241 62.7568 40.551 62.2727C41.391 61.8693 42.2252 61.4313 43.0164 60.9414C43.8047 60.4515 44.5357 59.881 45.3355 59.4142C45.4215 59.3623 45.5247 59.3767 45.6136 59.3393C45.6107 58.7457 45.6165 58.1521 45.6222 57.5556C45.4129 57.6103 45.2094 57.6852 44.9858 57.6824C42.7555 57.642 40.5252 57.8005 38.2949 57.8063C36.9046 57.8063 35.7465 56.6364 35.7465 55.2388C35.7465 53.8557 36.9046 52.6598 38.2949 52.6771C39.7082 52.6944 41.1158 52.729 42.5233 52.6944C43.3518 52.6713 44.1659 52.6051 44.9887 52.5417C45.0345 52.5388 45.0833 52.5359 45.1291 52.5359C45.3527 52.5359 45.5563 52.6195 45.7627 52.6858C45.7971 52.1238 45.8315 51.5591 45.8659 50.9972C45.3069 51.1326 44.702 51.0807 44.1946 50.7551C42.7756 49.8388 41.3193 48.9599 39.7856 48.251C38.9916 47.9312 38.186 47.6574 37.3805 47.3779C36.1277 46.9399 35.3079 45.7095 35.6748 44.3609C35.9529 43.3582 36.9648 42.5312 38.0169 42.5312C38.2376 42.5312 38.4612 42.5686 38.6762 42.6464C40.5654 43.3322 42.4029 44.0786 44.1029 45.1534C44.8023 45.5971 45.4989 46.0438 46.1898 46.4991C46.2758 45.6404 46.3905 44.7874 46.5109 43.9345C46.4421 43.8451 46.3446 43.7846 46.2901 43.6809C46.2127 43.5311 46.1267 43.3927 46.0321 43.2573C44.9801 41.9865 43.7818 40.8138 42.6466 39.6179C41.4655 38.3788 40.2185 37.2233 38.8712 36.1543C37.9366 35.4454 36.9877 34.7596 36.036 34.0767C35.0097 33.3361 34.0092 32.5552 32.9744 31.8204C31.8334 30.9992 30.6839 30.1895 29.5085 29.4201C28.9782 29.0714 28.4192 28.7804 27.8831 28.4433C27.671 28.3107 27.4646 28.1666 27.2553 28.0283C26.983 28.5268 26.7393 29.0426 26.5157 29.5555C25.5582 31.9415 24.8186 34.4109 24.1048 36.8804C22.0723 43.9604 21.2181 51.4899 21.2955 58.8465C21.3012 59.345 21.3098 59.8435 21.3213 60.3392C21.4073 63.5002 21.5879 66.6872 21.9577 69.8339C22.0752 70.5715 22.23 71.3063 22.3647 72.0411C22.5425 72.9575 22.7059 73.8738 22.8951 74.7815C23.0671 75.6402 23.2649 76.5018 23.5086 77.3432C23.6834 77.9281 23.8984 78.4987 24.1306 79.0635C24.4288 79.7551 24.7384 80.4351 25.1426 81.069C25.1798 81.0806 25.2171 81.0921 25.2515 81.1065C26.6562 80.4265 28.0781 79.7781 29.4971 79.1153C30.2338 78.7667 30.962 78.3892 31.693 78.0261C32.4096 77.6659 33.1292 77.3173 33.8286 76.9138C35.2477 76.0984 36.5835 75.1878 37.8907 74.1994C39.1206 73.2802 40.3532 72.3667 41.5744 71.4302C43.3117 70.0413 44.7966 68.4334 46.2557 66.7708ZM67.2715 65.4136C68.0082 65.3041 68.722 65.1686 69.4186 64.9093C69.5247 64.8603 69.6307 64.8084 69.7339 64.7595C69.7511 64.7508 69.7712 64.7479 69.7884 64.7393C70.0894 61.5494 70.141 58.3278 70.1209 55.1351C70.1095 53.36 70.1668 51.5908 70.0493 49.8215C69.9289 48.0465 69.7339 46.2772 69.5619 44.5021C69.3957 44.4128 69.2208 44.335 69.0746 44.2053C68.9628 44.1391 68.8424 44.0814 68.722 44.0238C67.6241 43.6146 66.4688 43.4072 65.3192 43.24C63.711 43.0758 62.0942 43.0556 60.4803 43.0614C58.8806 43.0614 57.2925 43.1276 55.6986 43.289C54.357 43.4965 53.0469 43.7962 51.777 44.2918C51.4445 44.4445 51.1177 44.6116 50.7908 44.7759C50.6561 45.6231 50.5242 46.4702 50.4067 47.3203C50.2003 49.0608 50.0914 50.807 49.971 52.5503C49.8706 54.1236 49.7531 55.697 49.7302 57.2761C49.7072 58.786 49.6786 60.2988 49.713 61.8087C49.7302 62.6185 49.733 63.4311 49.776 64.2408C51.0718 64.7479 52.4363 65.1773 53.8066 65.3876C56.1831 65.6873 58.5768 65.8083 60.9733 65.7766C62.1573 65.7593 63.3383 65.6988 64.5223 65.6297C65.4482 65.5778 66.3627 65.5173 67.2715 65.4136ZM98.8079 48.0234C98.7678 46.9111 98.6502 45.8046 98.5442 44.6923C98.4553 43.6636 98.3922 42.6378 98.2718 41.6177C98.16 40.7792 98.0482 39.9378 97.8418 39.1136C97.6068 38.1743 97.3344 37.2435 97.1768 36.2868C97.0191 35.359 96.893 34.4167 96.6464 33.5061C96.4372 32.7425 96.1132 32.0049 95.8008 31.2729C95.4997 30.5842 95.1643 29.91 94.8404 29.2242C94.7458 29.0253 94.6369 28.8351 94.5451 28.6363C94.5308 28.6421 94.5222 28.6507 94.5107 28.6536C93.4386 29.0455 92.3722 29.4316 91.3115 29.8581C90.2652 30.3134 89.236 30.7888 88.2356 31.3392C87.0459 31.9962 85.8992 32.7368 84.7812 33.5033C82.8089 34.8489 80.8825 36.2638 78.9905 37.719C77.9441 38.5517 76.9494 39.4364 75.9862 40.37C75.1577 41.1682 74.3436 41.9894 73.5982 42.8741C73.7731 43.1997 73.8906 43.5483 73.9222 43.946C73.9451 44.2486 73.968 44.554 73.9881 44.8566C74.0168 45.2629 74.0397 45.6721 74.0626 46.0784C74.4984 45.7643 74.9284 45.4386 75.3813 45.1563C75.9891 44.7788 76.5825 44.3523 77.2131 44.0209C78.0445 43.5772 78.8787 43.1334 79.7272 42.7127C80.1142 42.5168 80.507 42.3957 80.9169 42.3957C81.1061 42.3957 81.2982 42.4217 81.4931 42.4764C82.0693 42.6349 82.5652 43.021 82.8691 43.5368C83.4625 44.554 83.1701 46.1504 82.0406 46.695C81.1921 47.1042 80.3407 47.5278 79.4979 47.9485C78.8557 48.2626 78.2451 48.6631 77.6259 49.0204C77.0784 49.3345 76.5538 49.712 76.0321 50.0664C75.5218 50.418 75.0144 50.7666 74.5127 51.1355C74.4955 51.1499 74.4783 51.1643 74.4611 51.1787C74.4382 51.1989 74.4124 51.2104 74.3894 51.2306C74.4009 51.6801 74.3923 52.1325 74.4009 52.582C76.7975 52.6252 79.1911 52.7232 81.5877 52.6858C82.8605 52.6627 83.9241 53.7692 83.9241 55.0342C83.9241 56.2416 82.8634 57.4662 81.5877 57.3769C79.2026 57.2069 76.7946 57.3337 74.4066 57.3654C74.3923 58.1031 74.3522 58.8379 74.3264 59.5755C74.5557 59.6822 74.7707 59.8262 74.9886 60.002C76.0693 60.7512 77.2131 61.3246 78.4057 61.8606C79.3689 62.2583 80.3464 62.6357 81.3268 63.0017C81.8572 63.1977 82.2929 63.4685 82.5853 63.9728C82.8691 64.4627 82.9494 65.0563 82.7974 65.6009C82.6512 66.134 82.2986 66.5892 81.8314 66.8716C81.3842 67.1367 80.7134 67.2751 80.2117 67.0849C78.7583 66.5287 77.3278 65.9121 75.9145 65.2637C75.2982 64.9842 74.6876 64.6845 74.0942 64.3589C74.0626 64.8113 74.0512 65.2637 73.991 65.7132C73.9136 66.2953 73.8132 66.8716 73.7186 67.4508C74.7994 68.6438 76.0005 69.7244 77.2332 70.7358C78.6952 71.9345 80.0942 73.2053 81.5705 74.3838C83.4654 75.7699 85.4835 76.983 87.4931 78.1904C89.5055 79.3977 91.5667 80.487 93.7023 81.4523C93.9231 81.5445 94.1438 81.6367 94.3645 81.7318C94.5337 81.4552 94.6999 81.1757 94.8404 80.8817C95.2303 79.8761 95.5169 78.8445 95.8065 77.8014C96.1362 76.594 96.3884 75.352 96.6006 74.1216C96.8127 72.8797 97.0478 71.6492 97.2943 70.4131C97.5064 69.3498 97.6698 68.2836 97.8189 67.2059C98.0712 65.1052 98.2174 63.0017 98.3521 60.8895C98.4926 58.7485 98.6416 56.6133 98.7878 54.4752C98.9254 52.3313 98.8882 50.1759 98.8079 48.0234Z" fill="#111918"/>
</svg>
