<svg width="120" height="100" viewBox="0 0 120 100" fill="none" xmlns="http://www.w3.org/2000/svg">
<rect width="120" height="100" fill="white"/>
<path d="M102 55.6653C101.58 57.5677 100.842 59.3146 99.2056 60.4478C98.2645 61.1008 97.1784 61.5366 96.1783 62.0597C100.165 67.2319 96.0619 74.6946 89.3547 73.8365C91.4088 80.2959 84.8635 85.7228 78.9371 82.5812C78.6875 85.8356 77.2202 88.273 74.1575 89.3909C71.11 90.5019 68.4621 89.5994 66.2309 87.2406C64.8479 90.3498 62.5796 92.1018 59.2234 91.9958C56.1236 91.8984 54.0323 90.1806 52.7438 87.2475C50.5126 89.5977 47.8496 90.5327 44.7885 89.4046C41.7444 88.2816 40.2653 85.8783 40.0376 82.5726C37.1436 84.0101 34.3591 83.9298 31.8732 81.8308C29.389 79.7335 28.7936 76.9713 29.6538 73.8434C23.1 74.8159 18.7909 67.3909 22.9077 61.9383C19.8315 61.1264 17.7402 59.2736 17.155 56.043C16.5681 52.7988 17.8549 50.3101 20.5685 48.4299C17.9224 46.5737 16.5428 44.0969 17.1365 40.8254C17.7251 37.588 19.8028 35.7164 22.9111 34.9421C18.8044 29.6553 22.8672 22.1824 29.6858 23.0353C28.8139 19.9193 29.3806 17.1469 31.8479 15.0428C34.3237 12.9301 37.1166 12.8293 39.8049 14.1659C40.299 12.8481 40.6026 11.4482 41.3008 10.2944C43.522 6.61948 48.5326 5.92381 51.7977 8.6894C52.1215 8.9646 52.6157 9.1133 53.0457 9.15945C53.7844 9.23637 54.5383 9.16971 55.2854 9.19193C56.9179 9.23979 58.1542 10.0175 58.9131 11.4533C59.188 11.9729 59.4781 12.0891 59.9958 12.0806C61.6267 12.055 63.2575 12.0703 64.8665 12.0703C66.698 8.30824 69.3644 6.61606 72.6835 7.08098C76.1307 7.563 78.1275 9.82265 78.9657 14.2582C81.8514 12.8156 84.6662 12.9028 87.1504 15.0291C89.611 17.1349 90.1996 19.9039 89.2906 23.0251C96.2508 22.1858 100.118 29.775 96.1614 34.8071C97.1632 35.3267 98.246 35.7625 99.1904 36.4069C100.84 37.5351 101.558 39.2973 102.002 41.1912C102.002 41.8082 102.002 42.4253 102.002 43.0423C101.567 44.8456 100.852 46.4865 99.3692 47.6779C99.0572 47.9274 98.7384 48.1684 98.5445 48.3171C99.3675 49.235 100.246 50.023 100.88 50.9785C101.403 51.7647 101.639 52.7493 102.002 53.6449C102 54.3184 102 54.9918 102 55.6653ZM89.2248 59.4274C86.6765 55.8379 87.1521 51.1784 91.2149 48.3992C89.358 47.2112 88.1471 45.5635 87.7643 43.3808C87.3831 41.2049 87.965 39.2358 89.3007 37.4205C87.0846 36.8958 85.4082 35.7489 84.3204 33.8259C83.2377 31.9116 83.1618 29.8638 83.7858 27.7478C79.7786 28.3084 75.6821 25.7548 75.3212 20.5757C73.0511 21.7346 70.7676 21.8884 68.479 20.6936C66.1904 19.4971 65.02 17.4973 64.6068 14.9641C62.9034 14.9641 61.2742 14.9556 59.6434 14.9778C59.4663 14.9795 59.1998 15.1163 59.1273 15.2667C58.112 17.381 56.3445 18.0237 54.1841 17.8887C53.6326 17.8545 53.2903 18.0391 52.9546 18.5092C51.5734 20.4509 49.6693 21.5346 47.3048 21.473C46.0686 21.4406 44.8425 21.0338 43.5962 20.7927C43.5135 22.8422 42.6922 24.7036 41.0107 26.1342C39.3327 27.5615 37.3662 28.0093 35.2058 27.7546C36.4201 31.8876 34.5936 36.0753 29.706 37.4667C31.03 39.2375 31.5865 41.2134 31.2054 43.3893C30.8242 45.5669 29.6099 47.2129 27.6822 48.4385C29.647 49.6692 30.8411 51.3306 31.2172 53.5133C31.5916 55.6926 30.9912 57.66 29.6639 59.4428C31.9002 59.9231 33.5665 61.0939 34.6543 63.0151C35.7353 64.9244 35.8399 66.9772 35.1822 69.1275C37.4505 68.8232 39.4086 69.3223 41.0782 70.7701C42.7344 72.2059 43.4984 74.0946 43.5979 76.3628C45.6267 75.2775 47.6236 75.0296 49.6946 75.7971C51.7538 76.5594 53.1199 78.0533 53.9952 80.1472C55.5165 78.4293 57.321 77.5303 59.5236 77.532C61.7211 77.5337 63.4953 78.4943 64.9997 80.1352C65.8801 77.9901 67.2816 76.5235 69.3509 75.7714C71.4152 75.0193 73.4104 75.3219 75.3752 76.3338C75.419 73.9733 76.1509 72.035 77.8881 70.5889C79.5948 69.1702 81.5933 68.7566 83.7824 69.1019C82.4771 64.6851 84.7252 60.5435 89.2248 59.4274ZM51.5177 82.5795C51.5144 80.2053 49.59 78.2362 47.2627 78.2242C44.8847 78.2106 42.9165 80.1848 42.9182 82.5812C42.9216 84.9776 44.8982 86.962 47.261 86.9415C49.5917 86.9176 51.5211 84.94 51.5177 82.5795ZM24.1287 66.6046C24.1389 68.9856 26.0581 70.9445 28.3923 70.9547C30.7534 70.965 32.7451 68.9617 32.7384 66.5841C32.7317 64.2014 30.8343 62.2716 28.4665 62.2408C26.0969 62.2101 24.1186 64.2014 24.1287 66.6046ZM59.5219 80.4138C57.1827 80.3933 55.2247 82.3367 55.1876 84.7143C55.1522 87.109 57.1271 89.1379 59.4933 89.1345C61.824 89.1311 63.777 87.1535 63.7888 84.7844C63.8023 82.4222 61.8611 80.4343 59.5219 80.4138ZM94.8493 30.2228C94.8308 27.8384 92.9233 25.9103 90.5656 25.8949C88.218 25.8795 86.2329 27.8948 86.2414 30.2809C86.2498 32.6448 88.191 34.5985 90.5268 34.5985C92.9166 34.6002 94.8679 32.6226 94.8493 30.2228ZM51.5194 14.2377C51.5009 11.8516 49.5631 9.89444 47.2289 9.90299C44.8897 9.91153 42.9266 11.8926 42.9283 14.2411C42.93 16.6512 44.9167 18.6527 47.2728 18.6186C49.6255 18.5827 51.538 16.6102 51.5194 14.2377ZM36.4234 16.2393C34.0235 16.2512 32.1093 18.21 32.1313 20.6304C32.1532 22.996 34.0927 24.9258 36.4454 24.9223C38.8368 24.9189 40.7477 22.9584 40.7291 20.5244C40.7089 18.1417 38.7862 16.2273 36.4234 16.2393ZM32.7418 30.3561C32.7991 27.9597 30.8681 25.9342 28.485 25.8881C26.1964 25.8436 24.2131 27.7597 24.1422 30.0861C24.068 32.4978 25.9434 34.5028 28.3552 34.5883C30.6707 34.6703 32.6861 32.7252 32.7418 30.3561ZM82.5226 24.9121C84.9276 24.9104 86.8519 22.9618 86.835 20.5483C86.8181 18.1724 84.8837 16.229 82.5445 16.241C80.1261 16.2529 78.2355 18.1759 78.249 20.6099C78.2625 23.008 80.1564 24.9155 82.5226 24.9121ZM36.4369 80.6018C38.8419 80.5967 40.7477 78.6498 40.7274 76.221C40.7072 73.8365 38.8098 71.9341 36.4319 71.9153C34.0809 71.8965 32.0908 73.9288 32.1262 76.3116C32.1616 78.696 34.0826 80.607 36.4369 80.6018ZM67.4721 82.5538C67.462 84.9741 69.4049 86.9552 71.7694 86.9381C74.1069 86.921 76.0413 84.9724 76.0649 82.6085C76.0885 80.2634 74.1322 78.2379 71.8284 78.2259C69.4352 78.2123 67.4806 80.154 67.4721 82.5538ZM82.4602 80.5967C84.8652 80.6309 86.8148 78.7233 86.8502 76.3064C86.8839 73.9545 84.9529 71.9478 82.6255 71.9136C80.2576 71.8794 78.3046 73.7682 78.2557 76.1372C78.2051 78.5883 80.0687 80.5642 82.4602 80.5967ZM24.2856 37.7761C21.8874 37.7162 19.9344 39.5998 19.8703 42.039C19.8079 44.3926 21.7103 46.3925 24.063 46.4438C26.4477 46.4968 28.4041 44.6354 28.4547 42.2646C28.5086 39.7913 26.6922 37.8359 24.2856 37.7761ZM94.7987 46.4489C97.202 46.4455 99.128 44.4832 99.0977 42.0697C99.0673 39.6751 97.1649 37.7726 94.8004 37.7709C92.3904 37.7692 90.5082 39.6973 90.5217 42.1518C90.5369 44.5516 92.4275 46.4523 94.7987 46.4489ZM24.1372 59.0753C26.5168 59.089 28.431 57.2019 28.4563 54.8192C28.4816 52.3596 26.6197 50.4247 24.2131 50.4076C21.8452 50.3922 19.9108 52.2878 19.877 54.6585C19.8399 57.0788 21.7524 59.0616 24.1372 59.0753ZM90.4998 70.953C92.8289 70.9803 94.7667 69.066 94.8341 66.6713C94.8982 64.345 92.8542 62.2443 90.5335 62.2528C88.1859 62.2614 86.2498 64.2185 86.2498 66.5858C86.2464 68.9549 88.1657 70.9256 90.4998 70.953ZM94.7279 59.0736C97.1396 59.1146 99.0521 57.2173 99.0909 54.7491C99.1263 52.4125 97.2374 50.452 94.9117 50.411C92.4983 50.3683 90.5774 52.204 90.5268 54.6055C90.4745 57.084 92.3061 59.0325 94.7279 59.0736ZM67.6256 15.0513C67.8145 17.0682 69.6461 18.6801 71.7576 18.745C73.8843 18.81 75.758 17.234 76.1509 15.0479C76.5338 12.9181 75.2622 10.773 73.213 10.091C71.2668 9.44319 68.9934 10.3149 68.1771 12.0191C69.2177 12.4464 69.5617 12.8874 69.4791 13.6924C69.3965 14.4975 68.9849 14.8052 67.6256 15.0513ZM54.4219 14.918C55.1893 15.0223 55.9971 15.0599 56.3496 14.2411C56.5351 13.8087 56.5199 13.1062 56.2872 12.7096C55.7947 11.8652 54.9026 12.0464 54.1183 12.1233C54.2246 13.0856 54.3224 13.9899 54.4219 14.918Z" fill="black"/>
</svg>
