<svg width="120" height="100" viewBox="0 0 120 100" fill="none" xmlns="http://www.w3.org/2000/svg">
<rect width="120" height="100" fill="white"/>
<path d="M48.0903 48.6248C47.6366 50.6995 45.7858 52.2578 43.5771 52.2578C42.9882 52.2578 42.5108 52.7351 42.5108 53.3241C42.5108 53.9131 42.9882 54.3903 43.5771 54.3903C46.957 54.3903 49.7646 51.8943 50.2542 48.6487C52.3236 48.4249 54.2339 47.5028 55.7128 45.9934C56.1249 45.5728 56.1179 44.8976 55.6973 44.4856C55.2767 44.0737 54.6016 44.0803 54.1894 44.5009C52.8816 45.8359 51.1324 46.5711 49.2639 46.5711C45.4618 46.5711 42.3687 43.4779 42.3687 39.6759C42.3687 39.0869 41.8913 38.6096 41.3024 38.6096C40.7135 38.6096 40.2361 39.0869 40.2361 39.6759C40.2361 44.2558 43.6651 48.0473 48.0903 48.6248Z" fill="black"/>
<path d="M52.6048 57.8735C52.6048 57.2845 52.1274 56.8073 51.5386 56.8073C46.5607 56.8073 42.5108 60.8571 42.5108 65.835C42.5108 65.8864 42.5127 65.938 42.5135 65.9896C42.117 65.9362 41.7133 65.906 41.3024 65.906C40.7135 65.906 40.2361 66.3833 40.2361 66.9723C40.2361 67.5613 40.7135 68.0386 41.3024 68.0386C45.1044 68.0386 48.1976 71.1317 48.1976 74.9338C48.1976 75.5228 48.675 76 49.2639 76C49.8527 76 50.3301 75.5228 50.3301 74.9338C50.3301 71.1505 47.9897 67.9054 44.6816 66.5647C44.6563 66.3232 44.6434 66.0788 44.6434 65.835C44.6434 62.0329 47.7365 58.9398 51.5386 58.9398C52.1274 58.9398 52.6048 58.4625 52.6048 57.8735Z" fill="black"/>
<path d="M89 48.7747C89 46.3472 88.0304 44.0467 86.3166 42.3549C86.588 41.4866 86.7253 40.5883 86.7253 39.6759C86.7253 35.2866 83.576 31.6208 79.4187 30.8147C79.7364 30.0226 79.9012 29.1736 79.9012 28.3024C79.9012 25.522 78.2118 23.1293 75.8059 22.0952C71.7974 18.9026 67.4134 17 64.0494 17C62.1795 17 60.5212 17.9195 59.5 19.3293C58.4788 17.9195 56.8205 17 54.9506 17C51.5866 17 47.2026 18.9026 43.1941 22.0952C40.7882 23.1293 39.0988 25.522 39.0988 28.3024C39.0988 29.1736 39.2636 30.0226 39.5813 30.8147C35.424 31.6208 32.2747 35.2866 32.2747 39.6759C32.2747 40.5883 32.4119 41.4864 32.6834 42.3549C30.9696 44.0467 30 46.3472 30 48.7747C30 50.6724 30.5899 52.4343 31.5941 53.8892C30.5505 55.3979 30 57.1578 30 59.0108C30 62.2932 31.7895 65.3007 34.6228 66.8864C34.574 67.2919 34.5494 67.701 34.5494 68.1096C34.5494 72.5373 37.4376 76.452 41.628 77.7861C43.4507 80.9055 46.7709 82.8241 50.4012 82.8241C54.3812 82.8241 57.8322 80.5237 59.5 77.1837C61.1678 80.5237 64.6188 82.8241 68.5988 82.8241C72.2291 82.8241 75.5493 80.9055 77.372 77.7861C81.5624 76.4518 84.4506 72.5372 84.4506 68.1096C84.4506 67.701 84.426 67.2919 84.3772 66.8864C87.2105 65.3007 89 62.2932 89 59.0108C89 57.1578 88.4495 55.3979 87.4059 53.8892C88.4101 52.4343 89 50.6724 89 48.7747ZM50.4012 80.6916C47.4115 80.6916 44.6873 79.0433 43.2915 76.3901C43.1532 76.1272 42.9118 75.934 42.625 75.8568C39.1258 74.9151 36.6819 71.7294 36.6819 68.1096C36.6819 67.568 36.7365 67.0255 36.8441 66.4969C36.9439 66.0068 36.6896 65.5131 36.2325 65.3098C33.7419 64.2026 32.1325 61.73 32.1325 59.0108C32.1325 57.7741 32.4533 56.592 33.0653 55.5449C34.657 56.9483 36.7439 57.8024 39.0277 57.8024C39.6166 57.8024 40.094 57.3251 40.094 56.7361C40.094 56.1471 39.6166 55.6699 39.0277 55.6699C35.2257 55.6699 32.1325 52.5767 32.1325 48.7747C32.1325 46.728 33.0356 44.7991 34.6102 43.483C34.9657 43.1859 35.0886 42.6933 34.9145 42.2641C34.5778 41.4344 34.4072 40.5636 34.4072 39.6759C34.4072 35.8739 37.5004 32.7807 41.3024 32.7807C45.1044 32.7807 48.1976 35.8739 48.1976 39.6759C48.1976 40.2649 48.675 40.7422 49.2639 40.7422C49.8527 40.7422 50.3301 40.2649 50.3301 39.6759C50.3301 34.8931 46.5908 30.9691 41.8823 30.6688C41.4555 29.9554 41.2313 29.1442 41.2313 28.3024C41.2313 26.4018 42.3852 24.766 44.0289 24.0574C44.0925 24.0385 44.1547 24.0137 44.2149 23.9825C44.7241 23.7888 45.2756 23.6819 45.8518 23.6819C47.637 23.6819 49.2307 24.6801 50.0111 26.2872C50.2684 26.817 50.9065 27.038 51.4361 26.7805C51.9658 26.5233 52.1867 25.8854 51.9294 25.3557C51.0385 23.5213 49.3526 22.2028 47.411 21.7358C50.1324 20.0753 52.8115 19.1325 54.9506 19.1325C56.8712 19.1325 58.4337 20.695 58.4337 22.6157V36.4133C57.4757 35.6532 56.2657 35.1976 54.9506 35.1976C54.3617 35.1976 53.8843 35.6749 53.8843 36.2639C53.8843 36.8529 54.3617 37.3301 54.9506 37.3301C56.8712 37.3301 58.4337 38.8926 58.4337 40.8133V66.4433C57.108 64.7328 55.2391 63.442 53.0406 62.8512C52.472 62.699 51.887 63.0356 51.7342 63.6043C51.5813 64.1731 51.9186 64.758 52.4872 64.9107C55.9884 65.8514 58.4337 69.0376 58.4337 72.659C58.4337 77.0882 54.8303 80.6916 50.4012 80.6916ZM82.7675 65.3099C82.3104 65.5132 82.0561 66.0068 82.1559 66.497C82.2635 67.0256 82.3181 67.5681 82.3181 68.1098C82.3181 71.7295 79.8742 74.9152 76.375 75.857C76.0882 75.9342 75.8467 76.1274 75.7085 76.3903C74.3127 79.0433 71.5885 80.6916 68.5988 80.6916C64.1697 80.6916 60.5663 77.0882 60.5663 72.659C60.5663 72.3592 60.5523 72.0619 60.5263 71.7675C60.5516 71.6764 60.5663 71.5807 60.5663 71.4815V36.2639C60.5663 34.3432 62.1288 32.7807 64.0494 32.7807C64.6383 32.7807 65.1157 32.3035 65.1157 31.7145C65.1157 31.1255 64.6383 30.6482 64.0494 30.6482C62.7343 30.6482 61.5243 31.1038 60.5663 31.8639V22.6157C60.5663 20.695 62.1288 19.1325 64.0494 19.1325C66.1885 19.1325 68.8676 20.0753 71.589 21.7358C69.6474 22.2027 67.9615 23.5213 67.0706 25.3557C66.8133 25.8855 67.0342 26.5235 67.5639 26.7805C68.0937 27.0378 68.7316 26.817 68.9889 26.2872C69.7693 24.6801 71.363 23.6819 73.1482 23.6819C73.7244 23.6819 74.276 23.7888 74.7851 23.9825C74.8451 24.0137 74.9074 24.0383 74.9707 24.0573C76.6147 24.7658 77.7687 26.4016 77.7687 28.3024C77.7687 29.1442 77.5445 29.9554 77.1177 30.6688C72.4092 30.9691 68.6699 34.8931 68.6699 39.6759C68.6699 40.2649 69.1473 40.7422 69.7361 40.7422C70.325 40.7422 70.8024 40.2649 70.8024 39.6759C70.8024 35.8739 73.8956 32.7807 77.6976 32.7807C81.4996 32.7807 84.5928 35.8739 84.5928 39.6759C84.5928 40.5636 84.4222 41.4344 84.0857 42.2641C83.9115 42.6934 84.0345 43.1859 84.3899 43.483C85.9644 44.7991 86.8675 46.728 86.8675 48.7747C86.8675 52.5767 83.7743 55.6699 79.9723 55.6699C79.3834 55.6699 78.906 56.1471 78.906 56.7361C78.906 57.3251 79.3834 57.8024 79.9723 57.8024C82.2561 57.8024 84.343 56.9483 85.9347 55.5449C86.5469 56.592 86.8675 57.7741 86.8675 59.0108C86.8675 61.73 85.2581 64.2026 82.7675 65.3099Z" fill="black"/>
<path d="M77.6976 51.1205C75.4889 51.1205 73.6381 49.5622 73.1844 47.4875C77.6096 46.91 81.0386 43.1185 81.0386 38.5386C81.0386 37.9496 80.5611 37.4723 79.9723 37.4723C79.3834 37.4723 78.906 37.9496 78.906 38.5386C78.906 42.3406 75.8129 45.4337 72.0108 45.4337C70.1423 45.4337 68.3931 44.6986 67.0853 43.3636C66.6733 42.9431 65.9981 42.9361 65.5774 43.3483C65.1567 43.7604 65.1498 44.4354 65.5619 44.8561C67.0408 46.3655 68.9511 47.2876 71.0205 47.5114C71.5101 50.757 74.3177 53.253 77.6976 53.253C78.2864 53.253 78.7639 52.7758 78.7639 52.1867C78.7639 51.5977 78.2864 51.1205 77.6976 51.1205Z" fill="black"/>
<path d="M74.2855 63.6313C73.8747 63.6313 73.4709 63.6614 73.0744 63.7149C73.0752 63.6633 73.0771 63.6116 73.0771 63.5602C73.0771 58.5823 69.0273 54.5325 64.0494 54.5325C63.4605 54.5325 62.9831 55.0097 62.9831 55.5987C62.9831 56.1877 63.4605 56.665 64.0494 56.665C67.8514 56.665 70.9446 59.7582 70.9446 63.5602C70.9446 63.8039 70.9316 64.0484 70.9063 64.2899C67.5982 65.6306 65.2578 68.8757 65.2578 72.659C65.2578 73.248 65.7352 73.7252 66.3241 73.7252C66.913 73.7252 67.3904 73.248 67.3904 72.659C67.3904 68.857 70.4835 65.7638 74.2855 65.7638C74.8744 65.7638 75.3518 65.2865 75.3518 64.6975C75.3518 64.1085 74.8744 63.6313 74.2855 63.6313Z" fill="black"/>
</svg>
