<svg width="120" height="100" viewBox="0 0 120 100" fill="none" xmlns="http://www.w3.org/2000/svg">
<rect width="120" height="100" fill="white"/>
<path d="M25.02 56.2653C25.3496 54.8245 25.798 53.4198 26.7147 52.2096C26.7922 52.1069 26.7147 51.8296 26.6301 51.6693C25.0512 48.5236 25.2313 45.4866 27.1704 42.5583C27.2254 42.4511 27.2563 42.3332 27.261 42.2128C27.2657 42.0924 27.2439 41.9724 27.1974 41.8613C25.3658 38.1892 25.9619 34.3964 28.8597 31.477C30.1401 30.1875 31.4278 28.9089 32.7317 27.605C38.7685 33.6081 44.7716 39.5831 50.7412 45.5298C51.4003 44.9733 52.0127 44.379 52.6988 43.8874C54.4155 42.6336 56.4892 41.9639 58.6149 41.9766C61.1759 41.9766 63.7368 41.9766 66.2978 41.9766H66.9281C66.9822 42.0666 67.0254 42.1044 67.0254 42.1404C67.0092 45.1931 67.0776 48.2511 66.9407 51.2983C66.8219 53.9169 65.608 56.105 63.7296 57.9186C63.6324 58.0122 63.5261 58.0987 63.4235 58.1833C69.4494 64.1769 75.4634 70.1608 81.4654 76.1352C81.2169 76.4197 81.1052 76.571 80.9647 76.7061C79.8241 77.8515 78.6835 78.9957 77.5429 80.1387C74.5533 83.1319 70.7515 83.7172 67.0128 81.7595C66.9335 81.7181 66.8471 81.6911 66.7426 81.6479C65.5277 82.5714 64.0969 83.169 62.586 83.384C60.7599 83.6361 59.067 83.2831 57.4371 82.4835C57.239 82.3863 56.8968 82.2728 56.7798 82.3647C55.5857 83.2651 54.2098 83.6956 52.7889 84.0395H50.5071C47.2654 83.5569 45.2285 81.2463 43.0925 78.9843C41.8769 80.7366 40.7315 82.3881 39.5879 84.0395H37.0252C36.9041 83.987 36.7788 83.9449 36.6506 83.9135C31.2477 83.013 27.6044 79.9514 25.726 74.8277C25.3982 73.9272 25.256 72.9727 25.0272 72.0416V69.4843L30.1023 65.9292C29.1514 65.0035 28.2599 64.1571 27.3919 63.2854C26.4183 62.2872 25.711 61.0605 25.3352 59.7177C25.2217 59.3377 25.1299 58.9487 25.0272 58.5651L25.02 56.2653ZM75.5889 76.2558C75.4412 76.0992 75.2899 75.9335 75.1332 75.775L62.4672 63.0891C61.5307 62.1526 60.6158 61.1909 59.6433 60.2922C58.9868 59.6576 58.1871 59.1905 57.3118 58.9303C56.4366 58.6701 55.5116 58.6245 54.615 58.7974C53.4582 59.0052 52.3868 59.5452 51.5318 60.3516L48.6809 57.526C48.6857 57.4995 48.6983 57.4751 48.7169 57.4557C50.9411 55.0767 50.8438 51.3469 48.2072 48.7805C43.1646 43.8784 38.2498 38.8519 33.2792 33.8777C33.1117 33.7102 32.9352 33.5535 32.7587 33.3896C31.5971 34.4612 30.4805 35.4913 30.2644 37.1482C29.9582 39.5003 31.4134 40.9302 33.0306 42.3854C32.2995 43.0949 31.5899 43.7253 30.9542 44.4078C29.1838 46.279 29.2018 48.9102 30.992 50.7616C31.4422 51.228 31.9555 51.6315 32.5336 52.1483C31.7141 52.9371 30.9956 53.5891 30.331 54.2752C28.7984 55.8763 28.5517 58.34 29.9564 59.9951C31.0226 61.2557 32.3607 62.2733 33.6106 63.4313L38.0103 60.3282L40.3515 63.6348C40.0814 63.8329 39.8851 63.9788 39.6852 64.121C36.3336 66.4965 32.9874 68.8791 29.6251 71.2366C29.4618 71.327 29.3326 71.4684 29.2572 71.6391C29.1817 71.8098 29.1642 72.0005 29.2072 72.1821C29.7475 75.91 33.1441 79.312 36.8973 79.8721C37.3331 79.937 37.5853 79.8073 37.8374 79.4435C39.2944 77.34 40.7819 75.2563 42.2587 73.1672C43.3069 71.6868 44.3532 70.2046 45.4158 68.7008L48.7241 71.0511L45.4518 75.6975C46.4081 76.6358 47.3248 77.5273 48.2307 78.4296C50.336 80.5259 52.9708 80.5385 55.0743 78.4476C55.6578 77.8659 56.2179 77.2608 56.8212 76.6322C57.3075 77.1221 57.6983 77.5201 58.0963 77.9127C60.1584 79.9424 62.7877 79.9388 64.8408 77.8983C65.4369 77.3058 66.0186 76.6935 66.6147 76.0811C69.9843 80.4863 73.7393 78.8816 75.5889 76.2558ZM54.3143 54.6949C56.2827 54.5292 58.1071 54.7543 59.8468 55.5449C60.0017 55.6151 60.3168 55.4747 60.4897 55.3414C61.6441 54.4409 62.5464 53.3045 62.7391 51.862C62.9588 50.2267 62.9066 48.5554 62.9678 46.8986C62.9786 46.6194 62.9678 46.3403 62.9678 46.0377C61.3073 46.0377 59.7567 45.9585 58.2169 46.0593C57.3159 46.1079 56.4373 46.3585 55.6461 46.7924C54.8549 47.2263 54.1714 47.8325 53.6461 48.5662C53.574 48.6682 53.525 48.7847 53.5026 48.9076C53.4802 49.0305 53.4849 49.1567 53.5164 49.2776C54.2582 50.9832 54.5336 52.8552 54.3143 54.7021V54.6949Z" fill="black"/>
<path d="M56.7923 32.4783L53.9486 29.622C57.2354 26.1462 55.827 20.2066 50.4962 18.964C50.7159 17.6745 50.9339 16.3814 51.1536 15.0938C54.8527 15.3639 60.5185 19.5025 59.6919 26.7153C62.9084 26.3659 65.7737 27.1709 68.1816 29.3717C69.8925 30.9349 70.9424 32.8745 71.3818 35.2482L67.4198 35.9451C66.8398 33.5445 65.5053 31.7904 63.1173 31.0304C60.7292 30.2704 58.6113 30.8467 56.7923 32.4783Z" fill="black"/>
<path d="M94.0001 57.9689L90.0866 58.628C89.4959 56.1841 88.129 54.4498 85.7355 53.7078C83.3727 52.9767 81.2656 53.5584 79.4844 55.1486L76.6173 52.3211C78.2238 50.504 78.8397 48.377 78.0743 45.9998C77.3089 43.6225 75.5962 42.2178 73.1559 41.6775C73.3846 40.3394 73.6025 39.0643 73.8186 37.7947C78.6019 37.7676 82.6883 43.2984 82.3839 49.4216C85.8652 49.0722 88.907 50.0195 91.3599 52.5822C92.8132 54.0914 93.8344 56.1805 94.0001 57.9689Z" fill="black"/>
<path d="M93.9532 32.2424L90.0127 32.9195C89.5553 31.0465 88.5054 29.658 86.645 29.0619C84.7846 28.4658 83.1079 28.9106 81.6942 30.1713L78.8505 27.3114C80.0679 25.9481 80.538 24.275 79.9635 22.4182C79.389 20.5614 78.0382 19.4556 76.0968 18.9964C76.3219 17.6745 76.5398 16.3814 76.7722 15.0163C79.1296 15.4503 80.9918 16.5759 82.4091 18.4255C83.8265 20.2751 84.3902 22.3642 84.2101 24.7378C87.3041 24.6082 89.9317 25.5627 91.9542 27.9201C93.0223 29.1386 93.7164 30.6393 93.9532 32.2424Z" fill="black"/>
</svg>
