<svg width="120" height="100" viewBox="0 0 120 100" fill="none" xmlns="http://www.w3.org/2000/svg">
<rect width="120" height="100" fill="white"/>
<path d="M69.6314 41.7949C69.6314 44.0804 67.7542 46.1875 64.5902 47.8793V79H25.0412V47.8793C21.8772 46.1875 20 44.0804 20 41.7949C20 41.0897 20.1784 40.4033 20.5182 39.7393C20.5182 39.7393 20.5182 39.7376 20.5199 39.7358C20.5216 39.7341 20.5216 39.7307 20.5233 39.729C22.8724 35.1596 32.857 31.7279 44.8148 31.7279C46.8773 31.7279 48.8797 31.8291 50.7946 32.023C61.6131 33.1075 69.6314 37.0711 69.6314 41.7949Z" stroke="black" stroke-width="3" stroke-miterlimit="10"/>
<path d="M99.9559 30.067C99.9559 32.3525 98.0787 34.4596 94.9146 36.1514V67.2721C94.9146 67.2721 65.6386 78.5933 64.5902 79V47.8794C67.7542 46.1875 69.6314 44.0804 69.6314 41.7949C69.6314 37.0711 61.6131 33.1075 50.7946 32.0231C48.8797 31.8292 46.8773 31.7279 44.8148 31.7279C32.857 31.7279 22.8724 35.1597 20.5233 39.729C20.6795 39.3584 25.4496 28.7029 60.4035 21.9664C64.525 20.731 69.6228 20 75.1393 20C88.8456 20 99.9559 24.5076 99.9559 30.067Z" stroke="black" stroke-width="3" stroke-miterlimit="10"/>
<path d="M60.4201 21.9629C60.4145 21.9647 60.409 21.9647 60.4034 21.9666" stroke="black" stroke-width="3" stroke-miterlimit="10"/>
<path d="M31.009 47.0884C31.3103 47.0884 31.5546 46.8441 31.5546 46.5427C31.5546 46.2414 31.3103 45.9971 31.009 45.9971C30.7076 45.9971 30.4633 46.2414 30.4633 46.5427C30.4633 46.8441 30.7076 47.0884 31.009 47.0884Z" fill="black"/>
<path d="M34.94 53.4748C35.2414 53.4748 35.4857 53.2305 35.4857 52.9292C35.4857 52.6278 35.2414 52.3835 34.94 52.3835C34.6387 52.3835 34.3944 52.6278 34.3944 52.9292C34.3944 53.2305 34.6387 53.4748 34.94 53.4748Z" fill="black"/>
<path d="M41.6284 44.8182C41.9298 44.8182 42.1741 44.5739 42.1741 44.2726C42.1741 43.9712 41.9298 43.7269 41.6284 43.7269C41.3271 43.7269 41.0828 43.9712 41.0828 44.2726C41.0828 44.5739 41.3271 44.8182 41.6284 44.8182Z" fill="black"/>
<path d="M30.4633 39.7392C30.7647 39.7392 31.009 39.4949 31.009 39.1936C31.009 38.8922 30.7647 38.6479 30.4633 38.6479C30.162 38.6479 29.9177 38.8922 29.9177 39.1936C29.9177 39.4949 30.162 39.7392 30.4633 39.7392Z" fill="black"/>
<path d="M49.7342 73.1472C50.0356 73.1472 50.2799 72.9029 50.2799 72.6016C50.2799 72.3002 50.0356 72.0559 49.7342 72.0559C49.4329 72.0559 49.1886 72.3002 49.1886 72.6016C49.1886 72.9029 49.4329 73.1472 49.7342 73.1472Z" fill="black"/>
<path d="M46.5856 75.3332C46.887 75.3332 47.1313 75.0889 47.1313 74.7876C47.1313 74.4862 46.887 74.2419 46.5856 74.2419C46.2843 74.2419 46.04 74.4862 46.04 74.7876C46.04 75.0889 46.2843 75.3332 46.5856 75.3332Z" fill="black"/>
<path d="M49.7342 58.667C50.0356 58.667 50.2799 58.4227 50.2799 58.1213C50.2799 57.82 50.0356 57.5757 49.7342 57.5757C49.4329 57.5757 49.1886 57.82 49.1886 58.1213C49.1886 58.4227 49.4329 58.667 49.7342 58.667Z" fill="black"/>
<path d="M42.7215 67.1177C43.0228 67.1177 43.2671 66.8734 43.2671 66.572C43.2671 66.2707 43.0228 66.0264 42.7215 66.0264C42.4201 66.0264 42.1758 66.2707 42.1758 66.572C42.1758 66.8734 42.4201 67.1177 42.7215 67.1177Z" fill="black"/>
<path d="M58.7923 76.373C59.0936 76.373 59.3379 76.1287 59.3379 75.8274C59.3379 75.526 59.0936 75.2817 58.7923 75.2817C58.4909 75.2817 58.2466 75.526 58.2466 75.8274C58.2466 76.1287 58.4909 76.373 58.7923 76.373Z" fill="black"/>
<path d="M56.3437 41.5135C56.6451 41.5135 56.8894 41.2692 56.8894 40.9679C56.8894 40.6665 56.6451 40.4222 56.3437 40.4222C56.0424 40.4222 55.7981 40.6665 55.7981 40.9679C55.7981 41.2692 56.0424 41.5135 56.3437 41.5135Z" fill="black"/>
<path d="M59.3379 55.9096C59.6393 55.9096 59.8836 55.6654 59.8836 55.364C59.8836 55.0627 59.6393 54.8184 59.3379 54.8184C59.0366 54.8184 58.7923 55.0627 58.7923 55.364C58.7923 55.6654 59.0366 55.9096 59.3379 55.9096Z" fill="black"/>
<path d="M31.009 67.1177C31.3103 67.1177 31.5546 66.8734 31.5546 66.572C31.5546 66.2707 31.3103 66.0264 31.009 66.0264C30.7076 66.0264 30.4633 66.2707 30.4633 66.572C30.4633 66.8734 30.7076 67.1177 31.009 67.1177Z" fill="black"/>
<path d="M29.9177 74.2402C30.219 74.2402 30.4633 73.9959 30.4633 73.6946C30.4633 73.3932 30.219 73.1489 29.9177 73.1489C29.6163 73.1489 29.372 73.3932 29.372 73.6946C29.372 73.9959 29.6163 74.2402 29.9177 74.2402Z" fill="black"/>
</svg>
