<svg width="120" height="100" viewBox="0 0 120 100" fill="none" xmlns="http://www.w3.org/2000/svg">
<rect width="120" height="100" fill="white"/>
<path d="M107.194 50.1313C107.681 50.1313 108.077 49.7359 108.077 49.2482C108.077 48.7605 107.681 48.3651 107.194 48.3651H102.209V45.9353C103.814 46.2956 105.482 46.487 107.194 46.487C107.681 46.487 108.077 46.0916 108.077 45.6039C108.077 45.1162 107.681 44.7208 107.194 44.7208C95.6252 44.7208 86.2139 35.3093 86.2139 23.7411C86.2139 23.2534 85.8185 22.858 85.3308 22.858H84.4989V19.8831C84.4989 19.3954 84.1035 19 83.6158 19C83.1282 19 82.7328 19.3954 82.7328 19.8831V22.8582H81.9011C81.4134 22.8582 81.018 23.2536 81.018 23.7413C81.018 35.3095 71.6065 44.7211 60.0383 44.7211C48.47 44.7211 39.0585 35.3095 39.0585 23.7413C39.0585 23.2536 38.6631 22.8582 38.1754 22.8582H37.3438V19.8831C37.3438 19.3954 36.9484 19 36.4607 19C35.973 19 35.5776 19.3954 35.5776 19.8831V22.8582H34.7459C34.2583 22.8582 33.8628 23.2536 33.8628 23.7413C33.8628 35.3095 24.4513 44.7211 12.8831 44.7211C12.3954 44.7211 12 45.1165 12 45.6042C12 46.0918 12.3954 46.4872 12.8831 46.4872C14.5961 46.4872 16.2647 46.2956 17.8703 45.9351V48.3653H12.8831C12.3954 48.3653 12 48.7608 12 49.2484C12 49.7361 12.3954 50.1315 12.8831 50.1315H33.8628V52.0081H12.8831C12.3954 52.0081 12 52.4035 12 52.8912C12 53.3789 12.3954 53.7743 12.8831 53.7743H33.8628V65.2986H33.2467C32.759 65.2986 32.3636 65.694 32.3636 66.1817V72.511C31.5595 72.5284 30.7502 72.2463 30.1236 71.6595C28.2294 69.8851 25.2618 69.8851 23.3673 71.6592C22.15 72.7998 20.243 72.7993 19.0259 71.6592C18.67 71.3259 18.1112 71.3442 17.7776 71.7003C17.4442 72.0562 17.4626 72.6152 17.8185 72.9486C19.7127 74.7227 22.6803 74.7225 24.5747 72.9483C25.7919 71.8083 27.6989 71.808 28.9162 72.9486C30.8107 74.7227 33.7783 74.7225 35.6725 72.9483C36.8899 71.8083 38.7967 71.808 40.0138 72.9486C41.9084 74.7227 44.8758 74.7225 46.7701 72.9483C47.9874 71.8083 49.8942 71.808 51.1116 72.9486C53.006 74.7227 55.9736 74.7225 57.8676 72.9483C59.0847 71.8085 60.9918 71.8078 62.2091 72.9486C64.1038 74.7225 67.071 74.7227 68.9654 72.9483C70.1827 71.808 72.0896 71.8083 73.3069 72.9486C75.2013 74.7227 78.169 74.7225 80.063 72.9483C81.2805 71.808 83.1873 71.8083 84.4044 72.9486C86.2989 74.7227 89.2665 74.7225 91.1607 72.9483C92.3783 71.808 94.2851 71.8083 95.5022 72.9486C96.4493 73.8356 97.6649 74.2789 98.8805 74.2789C100.096 74.2789 101.311 73.8354 102.259 72.9486C102.614 72.615 102.633 72.0562 102.299 71.7003C101.966 71.3447 101.407 71.3265 101.051 71.6592C99.8342 72.7998 97.9274 72.7995 96.7096 71.6595C94.8156 69.8851 91.8476 69.8849 89.9533 71.6592C89.3268 72.2465 88.5174 72.5289 87.7134 72.5114V66.1817C87.7134 65.694 87.318 65.2986 86.8303 65.2986H86.2139V53.7743H107.194C107.681 53.7743 108.077 53.3789 108.077 52.8912C108.077 52.4035 107.681 52.0081 107.194 52.0081H86.2139V50.1315H107.194V50.1313ZM100.442 48.3651H96.3381V43.7252C97.6353 44.4327 99.0085 45.0178 100.442 45.4642V48.3651ZM94.5721 42.6546V48.3651H90.4675V39.1386C91.6901 40.4657 93.0678 41.6475 94.5721 42.6546ZM88.7013 36.9704V48.3651H86.2139V32.5274C86.8775 34.1066 87.7147 35.5957 88.7013 36.9704ZM81.018 52.0079H39.0585V50.1313H81.018V52.0079ZM35.629 24.6242H37.2923V65.2977H35.629V24.6242ZM66.7908 48.3651V45.4637C68.2245 45.0173 69.5977 44.4321 70.895 43.7245V48.3651H66.7908ZM65.0246 48.3651H60.9205V46.4683C62.3246 46.4144 63.6962 46.2334 65.0246 45.9351V48.3651ZM59.1543 48.3651H55.0523V45.9351C56.3798 46.2334 57.7511 46.4144 59.1543 46.4683V48.3651ZM53.2862 48.3651H49.182V43.7245C50.4793 44.4321 51.8525 45.0171 53.2862 45.464V48.3651ZM82.7842 24.6242H84.4475V65.2977H82.7842V24.6242ZM81.018 48.3651H78.5312V36.9693C79.5174 35.5946 80.3544 34.1061 81.018 32.5274V48.3651ZM76.7651 39.1377V48.3653H72.6609V42.654C74.1652 41.6466 75.5426 40.4648 76.7651 39.1377ZM47.4156 42.654V48.3651H43.3112V39.1375C44.5339 40.4648 45.9115 41.6468 47.4156 42.654ZM41.5451 36.9691V48.3651H39.0585V32.5274C39.7221 34.1061 40.5591 35.5946 41.5451 36.9691ZM29.611 39.1366V48.3653H25.5068V42.6533C27.011 41.6457 28.3886 40.4637 29.611 39.1366ZM19.6365 45.4637C21.0702 45.0171 22.4434 44.4319 23.7407 43.7241V48.3651H19.6365V45.4637ZM31.3772 48.3651V36.9678C32.3629 35.5935 33.1994 34.1055 33.8628 32.5274V48.3651H31.3772ZM34.4649 71.659C34.3587 71.7586 34.2454 71.8462 34.1295 71.9284V67.0648H38.7922V70.4214C37.2819 70.1286 35.6602 70.5399 34.4649 71.659ZM85.6118 71.6592C84.417 70.5399 82.795 70.1282 81.2845 70.4214V67.0648H85.947V71.9286C85.8311 71.8465 85.718 71.7588 85.6118 71.6592ZM80.4014 65.2986C79.9137 65.2986 79.5183 65.694 79.5183 66.1817V71.142C79.2869 71.2941 79.0637 71.4641 78.8556 71.6592C77.6387 72.7998 75.7316 72.7995 74.5141 71.6595C72.6203 69.8851 69.6522 69.8849 67.7578 71.6592C66.5404 72.7998 64.6336 72.7991 63.4163 71.6595C61.5223 69.8849 58.5545 69.8853 56.6602 71.6592C55.4429 72.7998 53.5359 72.7991 52.3187 71.6595C50.4247 69.8851 47.4569 69.8851 45.5624 71.6592C44.3453 72.7993 42.4383 72.7993 41.221 71.6595C41.0128 71.4643 40.7896 71.2945 40.5584 71.1424V66.1817C40.5584 65.694 40.163 65.2986 39.6753 65.2986H39.0585V53.7743H81.018V65.2986H80.4014Z" fill="black"/>
<path d="M101.051 78.3802C99.834 79.5205 97.9272 79.5207 96.7094 78.3804C94.8154 76.6059 91.8474 76.6061 89.9531 78.3802C88.7362 79.5205 86.8294 79.5207 85.6117 78.3804C83.7179 76.6059 80.7496 76.6061 78.8554 78.3802C77.6385 79.5205 75.7314 79.5207 74.5139 78.3804C72.6201 76.6059 69.652 76.6061 67.7576 78.3802C66.5402 79.5207 64.6334 79.5201 63.4161 78.3804C61.5221 76.6059 58.5543 76.6065 56.66 78.3802C55.4427 79.5205 53.5357 79.5203 52.3185 78.3804C50.4245 76.6061 47.4567 76.6063 45.5623 78.3802C44.3451 79.5203 42.4381 79.5201 41.2208 78.3804C39.3268 76.6061 36.3591 76.6063 34.4645 78.3802C33.2474 79.5203 31.3403 79.5201 30.123 78.3804C28.2288 76.6061 25.2612 76.6063 23.3667 78.3802C22.1494 79.5205 20.2423 79.5205 19.0252 78.3802C18.6693 78.0468 18.1106 78.0652 17.777 78.4213C17.4436 78.7772 17.4619 79.3359 17.8178 79.6695C19.712 81.4434 22.6797 81.4436 24.5741 79.6693C25.7912 78.5294 27.6983 78.5288 28.9156 79.6695C30.81 81.4434 33.7777 81.4436 35.6719 79.6693C36.8892 78.529 38.796 78.5292 40.0131 79.6695C41.9078 81.4434 44.8752 81.4436 46.7694 79.6693C47.9868 78.5294 49.8936 78.5288 51.1109 79.6695C53.0054 81.4434 55.973 81.4436 57.867 79.6693C59.0841 78.5292 60.9911 78.529 62.2085 79.6695C64.1029 81.4432 67.0701 81.4439 68.9648 79.6693C70.1821 78.5292 72.0889 78.529 73.3063 79.6695C75.2007 81.4436 78.1683 81.4434 80.0623 79.6693C81.2799 78.5292 83.1867 78.529 84.4038 79.6695C86.2983 81.4436 89.2659 81.4434 91.1601 79.6693C92.3777 78.5292 94.2845 78.529 95.5016 79.6695C96.4487 80.5564 97.6643 80.9999 98.8798 80.9999C100.095 80.9999 101.311 80.5564 102.258 79.6695C102.614 79.3359 102.632 78.7772 102.299 78.4213C101.966 78.0656 101.407 78.0475 101.051 78.3802Z" fill="black"/>
</svg>
