<svg width="120" height="100" viewBox="0 0 120 100" fill="none" xmlns="http://www.w3.org/2000/svg">
<rect width="120" height="100" fill="white"/>
<path d="M53.3196 32.0187C53.4805 32.0804 53.6454 32.1112 53.8076 32.1112C54.3426 32.1112 54.8495 31.7868 55.0573 31.2571C55.3268 30.5679 54.9849 29.7902 54.2971 29.5207C52.2992 28.7404 51.3083 26.4784 52.09 24.4805C52.8704 22.4827 55.1311 21.4918 57.1302 22.2735C57.8235 22.539 58.5985 22.2024 58.868 21.5119C59.1375 20.8214 58.7956 20.045 58.1077 19.7755C54.7261 18.4575 50.9128 20.1308 49.592 23.5057C48.2713 26.8806 49.9447 30.7007 53.3196 32.0187Z" fill="black"/>
<path d="M92.4064 36.2464C91.7279 36.544 91.4196 37.3351 91.7159 38.0123C92.1342 38.9643 92.1543 40.0222 91.7762 40.9889C91.3981 41.957 90.666 42.72 89.714 43.137C88.762 43.554 87.7054 43.5754 86.736 43.1973C85.7679 42.8192 85.005 42.0857 84.588 41.1337C84.2916 40.4566 83.5046 40.1482 82.8221 40.4432C82.1436 40.7409 81.8352 41.5306 82.1315 42.2091C82.8355 43.8168 84.124 45.0544 85.7585 45.6939C86.5349 45.997 87.3447 46.1485 88.1533 46.1485C89.0489 46.1485 89.9433 45.9621 90.7894 45.592C92.397 44.8881 93.6346 43.5995 94.2742 41.9637C94.9138 40.3279 94.8762 38.5419 94.1723 36.9342C93.876 36.2584 93.0889 35.9514 92.4064 36.2464Z" fill="black"/>
<path d="M73.6776 32.5229C73.034 32.8876 72.806 33.7055 73.1708 34.3505C73.6816 35.2542 73.8103 36.3054 73.5328 37.3057C73.2539 38.3073 72.6022 39.14 71.6972 39.6522C70.7921 40.1644 69.7409 40.2904 68.742 40.0142C67.7403 39.7353 66.9077 39.0836 66.3955 38.1786C66.0321 37.5336 65.2115 37.307 64.5693 37.6717C63.9257 38.0364 63.6977 38.8544 64.0624 39.4993C65.2692 41.6353 67.5003 42.8367 69.7945 42.8367C70.8886 42.8367 71.9989 42.5631 73.0166 41.9879C74.5451 41.1244 75.6459 39.7179 76.1166 38.0257C76.5872 36.3336 76.3687 34.561 75.5052 33.0324C75.1405 32.3861 74.3212 32.1582 73.6776 32.5229Z" fill="black"/>
<path d="M62.2349 34.9431C63.156 35.3883 64.1281 35.5988 65.0882 35.5988C67.5299 35.5988 69.8804 34.2325 71.0147 31.8901C71.3365 31.2237 71.0576 30.4218 70.3912 30.0987C69.7208 29.7755 68.9217 30.0571 68.5998 30.7222C67.6653 32.6543 65.3336 33.4615 63.4028 32.5296C61.4719 31.5951 60.6607 29.262 61.5953 27.3325C61.9171 26.6661 61.6382 25.8643 60.9718 25.5412C60.3027 25.218 59.5036 25.4996 59.1804 26.1647C57.6036 29.4256 58.9726 33.3636 62.2349 34.9431Z" fill="black"/>
<path d="M52.2644 42.5725C53.1078 42.9412 54.0008 43.1262 54.8951 43.1262C55.705 43.1262 56.5175 42.9747 57.2939 42.6703C58.9297 42.0294 60.2169 40.7918 60.9182 39.1828C61.2159 38.5043 60.9048 37.7133 60.2263 37.4169C59.5425 37.1206 58.7568 37.433 58.4618 38.1088C58.0448 39.0608 57.2832 39.7942 56.3151 40.1737C55.3483 40.5532 54.2918 40.5344 53.3371 40.116C51.3714 39.2566 50.4717 36.9584 51.3298 34.9927C51.6275 34.3142 51.3164 33.5231 50.638 33.2268C49.9528 32.9318 49.1684 33.2429 48.8734 33.9187C47.424 37.2373 48.9458 41.1203 52.2644 42.5725Z" fill="black"/>
<path d="M69.1723 28.4641C69.3855 28.4842 69.5987 28.4936 69.8119 28.4936C71.3338 28.4936 72.7953 27.9707 73.9833 26.9905C76.7776 24.6843 77.1758 20.5331 74.8696 17.7387C74.3976 17.1689 73.5556 17.0844 72.9817 17.5577C72.4105 18.0297 72.33 18.8744 72.8007 19.4456C74.167 21.1002 73.931 23.558 72.2751 24.923C71.4746 25.584 70.4756 25.8991 69.4271 25.7945C68.3933 25.6953 67.4588 25.1992 66.7977 24.3974C66.3257 23.8275 65.4837 23.743 64.9098 24.2163C64.3386 24.6883 64.2582 25.5331 64.7288 26.1042C65.8457 27.4585 67.4239 28.2965 69.1723 28.4641Z" fill="black"/>
<path d="M41.6906 40.572C41.9695 39.8855 41.6383 39.1037 40.9518 38.8249C40.2679 38.5486 39.4835 38.8758 39.2046 39.5637C38.3988 41.5508 36.1288 42.5135 34.1363 41.7063C32.1491 40.8991 31.1878 38.6264 31.9936 36.6379C32.2712 35.9514 31.9413 35.1697 31.2548 34.8908C30.567 34.6133 29.7852 34.9431 29.5077 35.6296C28.1454 38.9884 29.7692 42.8286 33.1266 44.1909C33.9338 44.5181 34.7678 44.6723 35.5897 44.6723C38.1883 44.6723 40.6541 43.1236 41.6906 40.572Z" fill="black"/>
<path d="M97.7993 36.7398C98.5931 34.2673 97.9415 31.5267 96.0401 29.6575C94.6819 28.3247 92.8556 27.59 90.9664 27.6141C90.6513 26.7774 90.1565 26.0185 89.5049 25.3789C87.7846 23.6894 85.3228 23.2041 83.148 23.8651C83.152 23.7471 83.1775 23.6331 83.1775 23.5151C83.1775 18.2872 78.8573 14.0341 73.5489 14.0341C72.5419 14.0341 71.5564 14.1869 70.6044 14.4913C69.0892 12.9158 66.9654 12 64.7449 12C62.2738 12 59.9662 13.1156 58.4483 14.9793C57.1906 14.3585 55.8096 14.0354 54.3883 14.0354C49.3655 14.0354 45.2786 18.0606 45.2786 23.0083C45.2786 23.0257 45.2786 23.0432 45.2786 23.0606C43.8721 23.723 42.7015 24.7313 41.8206 25.9421C39.2944 25.0021 36.4103 25.5358 34.4138 27.4156C31.9091 26.6299 29.1228 27.2601 27.2242 29.1252C25.8673 30.458 25.1284 32.2601 25.1338 34.1158C24.2864 34.4242 23.5168 34.9083 22.8678 35.5452C21.6637 36.7264 21 38.3006 21 39.978C21 41.6554 21.6637 43.2295 22.8678 44.4135C23.5623 45.0946 24.387 45.5988 25.2974 45.9005C25.3081 47.8366 26.0885 49.7152 27.4991 51.1003C28.9002 52.4773 30.7586 53.2308 32.6881 53.2536C32.7914 54.5449 33.3545 55.7838 34.3065 56.7184C35.3912 57.783 36.8152 58.3167 38.2419 58.3167C38.7809 58.3167 39.3132 58.2161 39.8334 58.0632C45.347 58.2174 52.8517 70.344 53.8385 84.4966C53.9605 86.2423 55.4314 87.61 57.1853 87.61H63.8895C65.6004 87.61 67.0391 86.3255 67.2322 84.6213L67.3341 83.68C69.171 66.662 72.9978 57.9251 78.7071 57.6637C79.828 58.2684 81.0603 58.6036 82.3046 58.6036C84.222 58.6036 86.1394 57.8862 87.5995 56.4529C88.1037 55.9581 88.5274 55.403 88.868 54.7943C90.5226 54.7849 92.1343 54.1386 93.3196 52.9747C94.6296 51.6889 95.2879 49.923 95.1726 48.1437C96.1072 47.7978 96.9573 47.2587 97.676 46.5535C99.0262 45.2274 99.769 43.4628 99.769 41.583C99.7677 39.7634 99.0718 38.0512 97.7993 36.7398ZM47.1129 25.2059C47.7162 25.0021 48.0917 24.4014 48.0139 23.7699C47.9831 23.5192 47.9616 23.2657 47.9616 23.0056C47.9616 19.5369 50.8444 16.7144 54.3896 16.7144C55.7184 16.7144 56.9962 17.1126 58.089 17.8662C58.3987 18.0807 58.7876 18.1531 59.1536 18.0686C59.521 17.9842 59.8361 17.7482 60.0198 17.4183C60.9678 15.7289 62.7806 14.679 64.7463 14.679C66.4679 14.679 68.101 15.4983 69.1147 16.8713C69.4861 17.3754 70.1566 17.5538 70.7291 17.3044C71.6275 16.9128 72.5768 16.7144 73.5502 16.7144C77.3797 16.7144 80.4971 19.7648 80.4971 23.5138C80.4971 24.4323 80.2973 25.3266 79.9232 26.178C79.9219 26.1821 79.9192 26.1834 79.9179 26.1874L79.816 26.4315C79.8133 26.4355 79.812 26.4409 79.8106 26.4449C79.8106 26.4449 79.8106 26.4449 79.8106 26.4462L79.8079 26.4516C79.7838 26.5025 79.7838 26.5562 79.7664 26.6085C79.7288 26.7211 79.6846 26.8324 79.6765 26.9477C79.6752 26.9758 79.6859 27.0013 79.6859 27.0295C79.6859 27.1689 79.694 27.3097 79.7369 27.4411C79.7503 27.484 79.7825 27.5175 79.7999 27.5591C79.8482 27.6704 79.8951 27.783 79.9715 27.8796C80.0774 28.011 80.2088 28.1236 80.3657 28.2094C81.0965 28.613 81.5322 29.3304 81.5322 30.1295C81.5322 30.9327 81.0697 31.6742 80.3282 32.0684C79.9956 32.244 79.753 32.5511 79.6578 32.9144C79.5639 33.2778 79.6256 33.664 79.828 33.9791C80.2652 34.6575 80.4971 35.4379 80.4971 36.2344C80.4971 37.9439 79.4566 39.4819 77.8449 40.1523C77.1759 40.4312 76.85 41.1914 77.1088 41.8699C77.2952 42.3566 77.389 42.8581 77.389 43.3582C77.389 45.7047 75.4354 47.6141 73.0327 47.6141C72.7859 47.6141 72.5419 47.5872 72.2979 47.5443C72.2469 47.5363 72.1973 47.5242 72.1477 47.5148C71.909 47.4652 71.6704 47.4009 71.4371 47.3097H71.4357C70.5414 46.9611 69.7704 46.3309 69.2716 45.4929C69.0329 45.0946 68.6065 44.8479 68.1426 44.8385C67.6438 44.8385 67.2429 45.0625 66.9935 45.4526C66.2681 46.5763 65.2477 47.4331 64.0705 47.9761C63.8975 48.0565 63.7232 48.133 63.5462 48.1987C63.4591 48.2309 63.3679 48.2563 63.2794 48.2845C63.1118 48.3381 62.9442 48.3931 62.7725 48.4347C62.6559 48.4628 62.5366 48.4789 62.4172 48.5017C62.2671 48.5299 62.1182 48.5634 61.9667 48.5808C61.7052 48.6117 61.4398 48.6277 61.1716 48.6304C60.9718 48.6318 60.7707 48.617 60.5709 48.6009C60.5065 48.5956 60.4408 48.5956 60.3765 48.5889C60.1579 48.5647 59.9394 48.5258 59.7221 48.4816C59.6806 48.4735 59.6363 48.4682 59.5948 48.4588C59.3588 48.4052 59.1255 48.3381 58.8948 48.2604C58.8747 48.2537 58.8546 48.2483 58.8345 48.2416C58.5851 48.1544 58.3384 48.0552 58.097 47.9386C57.0592 47.4438 56.1434 46.7036 55.4569 45.7557C55.2451 45.4634 54.9246 45.2676 54.5666 45.2153C54.5009 45.2059 54.4365 45.2006 54.3708 45.2006C54.0785 45.2006 53.7916 45.2958 53.5569 45.4768C53.211 45.7409 52.8342 45.9434 52.4454 46.1163C52.436 46.1204 52.4266 46.119 52.4172 46.1231C52.0659 46.2773 51.712 46.3912 51.3566 46.4703C51.3446 46.473 51.3325 46.477 51.3204 46.4797C50.9624 46.5575 50.6031 46.5977 50.2451 46.5977C47.2711 46.5977 44.8536 44.2325 44.8536 41.3242C44.8536 40.2113 45.2102 39.1426 45.8847 38.2322C46.1032 37.9386 46.1917 37.5685 46.13 37.2078C46.0697 36.8471 45.8632 36.528 45.5602 36.3228C43.8198 35.1443 42.782 33.2094 42.782 31.1472C42.782 30.8415 42.8101 30.5411 42.8544 30.2448C42.8651 30.1684 42.8825 30.0933 42.8959 30.0182C42.9388 29.793 42.9925 29.5704 43.0595 29.3518C43.0836 29.2754 43.1051 29.199 43.1319 29.1225C43.215 28.8865 43.3116 28.6573 43.4215 28.4333C43.443 28.3891 43.4591 28.3435 43.4832 28.2993C44.222 26.8793 45.5012 25.7503 47.1129 25.2059ZM66.248 49.8425C66.9318 49.4162 67.5687 48.9147 68.1305 48.3234C68.695 48.8651 69.3588 49.2861 70.0681 49.6146C70.1069 49.6629 70.1445 49.7098 70.1968 49.7621C70.418 49.9793 70.6567 50.1764 70.9101 50.3521C69.2515 52.2842 67.7685 54.5529 66.543 56.7519C66.6248 54.1735 66.4719 51.8256 66.248 49.8425ZM57.546 63.9522C55.3148 58.8222 52.4843 55.1027 50.2679 52.6905C50.6943 52.4987 51.0925 52.24 51.4357 51.9034C52.1772 51.174 52.5889 50.1952 52.6143 49.1828C52.92 49.0166 53.2271 48.7967 53.5342 48.5714C53.7246 48.487 53.9176 48.4078 54.1013 48.3086C54.765 49.0059 55.5307 49.5945 56.362 50.0624C57.432 54.2378 57.621 59.6763 57.546 63.9522ZM36.1837 54.8063C35.4596 54.0943 35.1821 53.086 35.4422 52.1086C35.5615 51.6567 35.4382 51.174 35.115 50.8361C34.8589 50.5693 34.5076 50.4231 34.1456 50.4231C34.0504 50.4231 33.9525 50.4339 33.8573 50.454C32.2188 50.8133 30.5481 50.34 29.3749 49.1882C28.2834 48.1155 27.7847 46.5803 28.0434 45.0812C28.1065 44.7192 28.0166 44.3491 27.7981 44.0541C27.5795 43.7605 27.2497 43.5688 26.8849 43.5232C26.063 43.4226 25.3229 43.0686 24.745 42.5001C24.0598 41.8243 23.6817 40.9286 23.6817 39.978C23.6817 39.0273 24.0598 38.1316 24.7476 37.4572C25.2961 36.9182 25.9973 36.5696 26.775 36.4502C27.1343 36.3953 27.4548 36.1968 27.6653 35.9005C27.8745 35.6042 27.9563 35.2354 27.8879 34.8788C27.6264 33.4789 28.081 32.0429 29.104 31.0373C30.4435 29.7205 32.4923 29.3867 34.2019 30.2059C34.7584 30.4728 35.4368 30.3212 35.8284 29.8345C35.9383 29.6964 36.0536 29.561 36.185 29.4323C37.3489 28.2872 39.0263 27.8957 40.5615 28.3368C40.5481 28.3757 40.5441 28.4173 40.532 28.4561C40.4301 28.7726 40.3564 29.0984 40.2907 29.4269C40.2665 29.5449 40.2317 29.6602 40.2129 29.7795C40.1432 30.2274 40.1016 30.6833 40.1016 31.1459C40.1016 33.6693 41.1823 36.0547 43.0407 37.7428C42.4709 38.849 42.1746 40.0651 42.1746 41.3215C42.1746 41.5924 42.1893 41.8592 42.2161 42.1233C42.2255 42.2158 42.2443 42.3057 42.2577 42.3982C42.2805 42.5671 42.3019 42.7374 42.3368 42.9037C42.3582 43.0096 42.3904 43.1115 42.4159 43.2148C42.4521 43.3623 42.4856 43.5124 42.5312 43.6559C42.5661 43.7659 42.609 43.8704 42.6479 43.9777C42.6961 44.1118 42.7417 44.2472 42.7967 44.3773C42.8436 44.4872 42.8986 44.5905 42.9496 44.6977C43.0086 44.8211 43.0649 44.9458 43.1306 45.0651C43.1882 45.1711 43.2539 45.2703 43.3156 45.3735C43.3853 45.4888 43.4524 45.6041 43.5261 45.7154C43.5945 45.816 43.6682 45.9112 43.7407 46.0077C43.8198 46.1137 43.8962 46.2209 43.9807 46.3242C44.0584 46.4194 44.1429 46.5079 44.226 46.5991C44.3132 46.6956 44.399 46.7935 44.4915 46.886C44.5787 46.9731 44.6725 47.0549 44.7637 47.1394C44.8589 47.2266 44.9541 47.3164 45.0533 47.3982C45.1485 47.4773 45.2491 47.551 45.3483 47.6261C45.4516 47.7039 45.5535 47.783 45.6607 47.8568C45.764 47.9278 45.8713 47.9922 45.9785 48.0579C46.0885 48.1263 46.1984 48.1947 46.3124 48.2577C46.4223 48.318 46.535 48.373 46.6476 48.4293C46.7656 48.487 46.8836 48.546 47.0043 48.5982C47.1196 48.6479 47.2376 48.6921 47.3556 48.7364C47.4803 48.7833 47.605 48.8316 47.7323 48.8718C47.853 48.9107 47.9764 48.9442 48.0997 48.9777C48.2298 49.0126 48.3585 49.0474 48.4899 49.0769C48.616 49.1051 48.7433 49.1265 48.8721 49.148C49.0061 49.1708 49.1402 49.1922 49.277 49.2097C49.407 49.2258 49.5385 49.2351 49.6699 49.2445C49.7557 49.2499 49.8388 49.2633 49.9246 49.2673C49.8871 49.5368 49.761 49.7876 49.5599 49.9874C49.2086 50.332 48.687 50.454 48.1976 50.3092C47.8409 50.2046 47.4588 50.2515 47.141 50.4379C46.8219 50.6243 46.594 50.9353 46.5108 51.296C46.4518 51.5548 46.3566 51.8002 46.2293 52.0281C46.0992 52.2614 45.9383 52.4746 45.7452 52.6623C44.9193 53.4749 43.6843 53.7203 42.5929 53.2872C41.9319 53.023 41.1783 53.326 40.8806 53.9723C40.7372 54.2847 40.5401 54.565 40.2987 54.8023C40.0145 55.0812 39.6658 55.2984 39.2649 55.4459C39.2596 55.4473 39.2569 55.4526 39.2515 55.454C38.2151 55.8307 37.011 55.6175 36.1837 54.8063ZM64.6658 83.3931L64.5653 84.3196C64.525 84.6669 64.2341 84.9283 63.8868 84.9283H57.1826C56.8299 84.9283 56.5363 84.6561 56.5122 84.3102C55.6165 71.4623 49.4097 59.2217 42.8436 56.119C42.9469 56.1351 43.0501 56.1378 43.1534 56.1472C43.2472 56.1566 43.3411 56.1686 43.4336 56.1727C43.5623 56.178 43.6897 56.174 43.8171 56.1713C43.9083 56.1686 43.9994 56.1713 44.0893 56.1646C44.2167 56.1552 44.3427 56.1351 44.4687 56.1177C44.5586 56.1056 44.6484 56.0976 44.7382 56.0801C44.8629 56.056 44.985 56.0225 45.1083 55.9903C45.1968 55.9675 45.2853 55.9501 45.3725 55.9219C45.4958 55.883 45.6152 55.8334 45.7358 55.7865C45.8176 55.7543 45.9021 55.7275 45.9825 55.6913C46.1139 55.6323 46.2386 55.5626 46.366 55.4942C46.4317 55.458 46.5001 55.4285 46.5645 55.3909C46.7213 55.2984 46.8702 55.1925 47.019 55.0839C47.0485 55.0611 47.082 55.0437 47.1115 55.0209C47.2885 54.8841 47.4588 54.738 47.621 54.5784C47.7525 54.4497 47.8758 54.3156 47.9925 54.1748C50.6151 56.9758 55.0788 62.7454 57.2242 71.3201C57.381 71.953 57.975 72.3754 58.6226 72.3325C59.273 72.2842 59.7945 71.776 59.8589 71.127C59.9099 70.6135 60.9785 59.51 59.3641 51.1512C59.4593 51.1686 59.5572 51.1727 59.6524 51.1874C59.8669 51.2209 60.0815 51.2518 60.3 51.2705C60.4462 51.2826 60.5923 51.2866 60.7385 51.2933C60.8672 51.2987 60.9933 51.3134 61.122 51.3134C61.1971 51.3134 61.2695 51.3041 61.3432 51.3027C61.4947 51.2987 61.6462 51.2907 61.7978 51.2799C61.9989 51.2665 62.2 51.2477 62.3985 51.2209C62.5406 51.2022 62.68 51.1807 62.8208 51.1566C63.038 51.1177 63.2539 51.0721 63.4671 51.0185C63.5368 51.001 63.6092 50.993 63.679 50.9729C64.0463 54.8694 64.0557 60.0812 62.5969 65.2703C62.4011 65.9635 62.79 66.6875 63.4751 66.9088C64.1603 67.1327 64.8978 66.7707 65.1458 66.0962C65.178 66.0091 68.1024 58.1263 72.3421 52.7951C72.3555 52.8165 72.377 52.834 72.3917 52.8568C72.5406 53.0834 72.7095 53.2979 72.9066 53.4937C72.912 53.499 72.9147 53.5057 72.92 53.5111C73.0984 53.6854 73.2928 53.8396 73.4966 53.9764C73.5033 53.9804 73.5087 53.9871 73.5154 53.9924C73.6186 54.0608 73.7312 54.1064 73.8398 54.1654C73.9552 54.2271 74.0651 54.2995 74.1858 54.3491C74.2475 54.3746 74.3132 54.3853 74.3748 54.4081C74.5505 54.4711 74.7248 54.5341 74.9085 54.573C75.1566 54.6253 75.4086 54.6548 75.6634 54.6602C75.8082 54.9351 75.9704 55.1992 76.1488 55.4513C67.3314 58.6827 65.3563 76.9905 64.6658 83.3931ZM95.7961 44.6401C95.1498 45.2756 94.3266 45.6926 93.4201 45.8482C93.0434 45.9125 92.7122 46.1351 92.5084 46.4609C92.3046 46.7868 92.2523 47.1823 92.3609 47.5497C92.7269 48.798 92.3743 50.1429 91.4397 51.0614C90.6111 51.8726 89.415 52.244 88.2552 52.067C87.6411 51.9691 87.0297 52.3164 86.7991 52.9023C86.5564 53.5232 86.1944 54.0729 85.7184 54.5382C84.0839 56.1445 81.5591 56.3537 79.6886 55.1697C79.6873 55.1684 79.6859 55.167 79.6846 55.1657C79.3775 54.9699 79.1161 54.7648 78.8841 54.5368C78.3759 54.038 77.9978 53.4427 77.7564 52.7669C77.7001 52.6114 77.6143 52.4786 77.5137 52.358C77.4856 52.3244 77.4507 52.299 77.4199 52.2681C77.3408 52.1917 77.259 52.1247 77.1651 52.0697C77.1195 52.0429 77.074 52.0214 77.0257 52.0013C76.9332 51.9611 76.8393 51.9329 76.7387 51.9141C76.6851 51.9034 76.6342 51.8927 76.5778 51.8887C76.5497 51.8873 76.5215 51.8753 76.4934 51.8753C76.3767 51.8753 76.2587 51.89 76.1421 51.9222C76.1407 51.9222 76.138 51.9222 76.1354 51.9222C76.079 51.9383 76.0214 51.9383 75.9651 51.9463C75.6044 52 75.2491 51.9168 74.9621 51.713C74.9072 51.6728 74.8482 51.6393 74.7985 51.591C74.7047 51.4998 74.6309 51.3939 74.5706 51.2813C74.5559 51.2531 74.5478 51.2209 74.5344 51.1914C74.4969 51.1043 74.4647 51.0131 74.4472 50.9179C74.411 50.7208 74.4151 50.5143 74.4781 50.3078C74.4955 50.2515 74.5089 50.1938 74.5183 50.1362C74.934 50.0477 75.3349 49.919 75.7197 49.7608C75.8297 49.7152 75.9289 49.6521 76.0361 49.6025C76.3164 49.4711 76.5913 49.3317 76.85 49.1668C76.9828 49.0823 77.1021 48.9844 77.2282 48.8919C77.444 48.7323 77.6532 48.5687 77.849 48.3877C77.971 48.2738 78.0836 48.1544 78.1962 48.0324C78.3732 47.8434 78.5382 47.6476 78.6923 47.4398C78.7929 47.3057 78.8881 47.1702 78.9779 47.0295C79.1187 46.8082 79.2421 46.5776 79.3574 46.3403C79.4285 46.1941 79.5036 46.052 79.5639 45.9005C79.6712 45.6336 79.7503 45.3574 79.824 45.0759C79.8602 44.9391 79.9085 44.809 79.9353 44.6682C80.0184 44.2419 80.0707 43.8047 80.0707 43.3542C80.0707 42.9225 80.0292 42.4934 79.946 42.0697C81.9399 40.808 83.1775 38.6251 83.1775 36.2317C83.1775 35.3454 83.0045 34.4738 82.672 33.6573C83.4 32.9734 83.9029 32.0885 84.1093 31.119C84.1777 30.7959 84.2139 30.4634 84.2139 30.1255C84.2139 29.8023 84.1764 29.4846 84.1134 29.1748C84.0933 29.0743 84.0557 28.9817 84.0289 28.8825C83.9726 28.676 83.9136 28.4709 83.8318 28.2738C83.7849 28.1625 83.7245 28.0592 83.6695 27.952C83.5811 27.779 83.4912 27.6087 83.3826 27.4478C83.3102 27.3406 83.2284 27.2413 83.148 27.1394C83.0769 27.0496 83.0192 26.9517 82.9415 26.8672C84.3735 25.8965 86.3579 26.0399 87.6264 27.2883C88.1721 27.8233 88.5234 28.5044 88.6441 29.2566C88.7004 29.6133 88.8975 29.9311 89.1925 30.1402C89.4861 30.3481 89.8548 30.4285 90.2061 30.3655C91.6516 30.1054 93.1305 30.5546 94.1616 31.5682C95.4877 32.8715 95.8256 34.86 95.005 36.5159C94.7194 37.0898 94.8803 37.7844 95.3885 38.1745C95.5293 38.2832 95.6674 38.3971 95.7975 38.5245C96.6288 39.3424 97.0873 40.4272 97.0873 41.5803C97.086 42.7374 96.6274 43.8222 95.7961 44.6401Z" fill="black"/>
</svg>
