<svg width="120" height="100" viewBox="0 0 120 100" fill="none" xmlns="http://www.w3.org/2000/svg">
<rect width="120" height="100" fill="white"/>
<path d="M18 67.3074C18.4771 66.7203 18.8739 66.0448 19.4431 65.559C24.1121 61.5796 28.7963 57.6198 33.5089 53.6911C36.2862 51.3767 39.4436 49.8622 43.1601 49.6725C43.7008 49.6446 44.2449 49.6692 44.8476 49.6692C45.0116 48.0794 45.6344 46.7578 47.1997 46.0758C48.7415 45.4052 50.1913 45.6489 51.6143 46.6859C52.3509 45.7699 53.0858 44.8589 53.8174 43.9462C54.8771 42.6247 55.3509 42.5609 56.8342 43.6747C57.0066 43.449 57.1656 43.1759 57.3849 42.9616C68.4457 32.1471 79.5115 21.339 90.5774 10.531C92.2046 8.94124 94.0545 8.57977 95.8089 9.49243C98.0941 10.6815 98.7118 13.5961 97.0896 15.5703C96.8452 15.8663 96.569 16.1395 96.2944 16.4094C85.2671 27.183 74.2398 37.9567 63.2075 48.7254C63.0066 48.9217 62.7504 49.064 62.5445 49.2129C63.6561 50.7732 63.5975 51.1314 62.1762 52.1994C61.2705 52.8815 60.3648 53.5652 59.4642 54.2456C61.3911 57.7719 60.3347 60.0454 56.4056 60.9008C56.3018 62.0817 56.2867 63.2773 56.0741 64.437C55.5468 67.3123 54.1204 69.7837 52.1986 71.9771C48.1707 76.5764 44.1126 81.1495 40.0513 85.721C39.6311 86.1937 39.1037 86.5764 38.6266 87C37.741 87 36.8554 87 35.9698 87C34.9001 86.5028 33.7851 86.0808 32.7673 85.4969C25.8783 81.5469 20.8058 76.0611 18 68.6813C18 68.2234 18 67.7654 18 67.3074ZM31.1283 81.6009C33.1021 82.6068 34.8582 83.5227 36.6378 84.3929C37.0362 84.5875 37.4732 84.7118 37.8934 84.2342C42.0853 79.4714 46.3492 74.7674 50.4876 69.9604C52.6271 67.4759 53.7203 64.5318 53.6199 61.2345C53.5881 60.2008 53.3169 59.3045 52.4631 58.5325C50.6868 56.9263 48.9709 55.2498 47.3269 53.5161C46.5217 52.6672 45.5976 52.4039 44.4994 52.3417C41.0239 52.1455 38.0457 53.3934 35.4659 55.5115C30.6227 59.4877 25.8666 63.5652 21.0653 67.5904C20.7238 67.8766 20.6016 68.14 20.7572 68.5734C21.4654 70.5541 22.6306 72.2764 23.9481 74.1622C26.3554 71.771 28.6858 69.4566 30.919 67.2404C31.5586 67.8112 32.183 68.3689 32.9112 69.0199C30.4369 71.4291 27.991 73.8122 25.3075 76.4242C26.558 77.579 27.8186 78.7419 29.1261 79.949C32.9397 76.2231 36.6562 72.592 40.3894 68.9447C41.0122 69.5711 41.6048 70.1665 42.2209 70.7864C38.6149 74.3045 34.9871 77.8407 31.1283 81.6009ZM60.708 47.4709C60.8553 47.3368 60.9909 47.2207 61.1182 47.0964C72.2777 36.1952 83.439 25.2939 94.5952 14.3894C94.7961 14.1931 94.992 13.9789 95.1326 13.7417C95.4892 13.1349 95.3871 12.5445 94.8982 12.0652C94.3859 11.5631 93.7582 11.4535 93.122 11.8477C92.819 12.0358 92.5528 12.2893 92.2967 12.5395C81.2643 23.3116 70.232 34.0869 59.2013 44.8622C59.0038 45.0552 58.818 45.2596 58.6187 45.4673C59.3202 46.1396 59.9848 46.7775 60.708 47.4709ZM57.9273 56.9607C57.6277 56.4994 57.4653 56.1183 57.1891 55.8452C54.8152 53.4932 52.4262 51.1543 50.0289 48.8252C49.3325 48.1497 48.5289 48.1105 47.953 48.6666C47.3705 49.2276 47.4475 49.9489 48.1774 50.6636C49.7761 52.2289 51.3783 53.7892 52.9804 55.3512C53.8275 56.1772 54.6712 57.0048 55.5217 57.8275C55.9603 58.2528 56.5261 58.3706 57.0183 58.0598C57.3833 57.8259 57.6026 57.3679 57.9273 56.9607ZM55.3609 46.2541C54.7867 46.9639 54.1673 47.7294 53.5881 48.4458C54.9508 49.7739 56.2465 51.0398 57.6009 52.3597C58.3375 51.8036 59.1293 51.2066 59.871 50.6456C58.3542 49.1687 56.876 47.7294 55.3609 46.2541Z" fill="black"/>
</svg>
