<svg width="120" height="100" viewBox="0 0 120 100" fill="none" xmlns="http://www.w3.org/2000/svg">
<rect width="120" height="100" fill="white"/>
<path d="M59.8365 11C44.2831 11 31.6296 23.6535 31.6296 39.2068V47.2764C31.6296 47.9988 32.2153 48.5845 32.9377 48.5845H35.216V49.6098C35.216 51.1148 35.8739 52.5495 37.1271 53.8543C37.1282 53.8659 37.1282 53.8771 37.1297 53.8888L40.4849 80.2196C40.5835 84.3508 47.3023 90 59.8365 90C72.3707 90 79.0895 84.3508 79.1881 80.2196L82.5433 53.8888C82.5448 53.8768 82.545 53.8649 82.5461 53.8529C83.7998 52.5471 84.457 51.1111 84.457 49.6078V48.5847H86.7353C87.4577 48.5847 88.0434 47.999 88.0434 47.2766V39.2069C88.0433 23.6535 75.3897 11 59.8365 11ZM80.4038 45.3035C79.7274 41.8839 71.4715 38.2615 59.8365 38.2615C48.2015 38.2615 39.9455 41.8839 39.2692 45.3035C38.3338 44.4235 37.8325 43.5066 37.8325 42.614C37.8325 38.8222 46.8693 34.5973 59.8365 34.5973C72.8037 34.5973 81.8405 38.8222 81.8405 42.614C81.8405 43.5068 81.3392 44.4237 80.4038 45.3035ZM46.3614 48.563C43.3234 47.4332 42.0272 46.2026 41.8501 45.7544C42.0272 45.306 43.3234 44.0754 46.3614 42.9458C48.8986 42.0024 53.2956 40.8779 59.8363 40.8779C66.3771 40.8779 70.7743 42.0024 73.3112 42.9458C76.3492 44.0755 77.6455 45.3062 77.8226 45.7544C77.6455 46.2027 76.3492 47.4334 73.3112 48.563C70.7741 49.5063 66.3771 50.6308 59.8363 50.6308C53.2956 50.6308 48.8986 49.5061 46.3614 48.563ZM76.5834 79.9626C76.5764 80.0174 76.5729 80.0726 76.5729 80.1279C76.5729 81.207 75.3588 82.9854 72.6467 84.5261C70.352 85.8296 66.2667 87.3835 59.8365 87.3835C53.4063 87.3835 49.321 85.8296 47.0263 84.5261C44.3142 82.9854 43.1001 81.207 43.1001 80.1279C43.1001 80.0726 43.0966 80.0174 43.0896 79.9626L40.0446 56.0658C40.8837 56.5489 41.825 57.0013 42.8664 57.418C47.4206 59.2396 53.4472 60.2428 59.8365 60.2428C63.6033 60.2428 73.2499 58.1273 76.5984 57.4533C77.3066 57.3107 77.7653 56.621 77.6227 55.9128C77.4801 55.2044 76.7904 54.7462 76.0821 54.8885C72.9031 55.5285 63.4305 57.6266 59.8365 57.6266C46.8692 57.6266 37.8325 53.4018 37.8325 49.6078V47.5246C39.0885 48.6079 40.7779 49.5869 42.8664 50.4223C46.9946 52.0735 52.3341 53.0494 58.0556 53.218C58.1369 53.2206 58.2185 53.2229 58.3002 53.2252C58.4592 53.2293 58.6178 53.2339 58.7772 53.2366C59.1272 53.2433 59.4802 53.2469 59.8367 53.2469C60.1931 53.2469 60.546 53.2432 60.8961 53.2366C61.0555 53.2339 61.2141 53.2293 61.3731 53.2252C61.4548 53.2229 61.5364 53.2206 61.6177 53.218C67.3392 53.0494 72.6788 52.0735 76.8069 50.4223C78.8954 49.5869 80.5849 48.6079 81.8408 47.5246V49.6098C81.8408 51.4535 79.7418 53.3776 76.0821 54.8885C75.4142 55.1642 75.0964 55.9291 75.3721 56.5968C75.5802 57.1012 76.0678 57.406 76.5816 57.406C76.7481 57.406 76.9171 57.3742 77.0803 57.3068C78.0137 56.9215 78.8635 56.506 79.6286 56.0652L76.5834 79.9626ZM85.427 45.9683H84.4568V42.614C84.4568 39.5521 81.74 36.779 76.8066 34.8058C72.2525 32.9842 66.2258 31.981 59.8365 31.981C53.4472 31.981 47.4204 32.9842 42.8664 34.8058C37.933 36.7792 35.2162 39.5521 35.2162 42.614V45.9683H34.246V39.2068C34.2459 25.0961 45.7258 13.6163 59.8365 13.6163C73.9472 13.6163 85.427 25.0961 85.427 39.2068V45.9683Z" fill="black"/>
</svg>
