<svg width="120" height="100" viewBox="0 0 120 100" fill="none" xmlns="http://www.w3.org/2000/svg">
<rect width="120" height="100" fill="white"/>
<path d="M58.1519 46.9409C58.1519 46.333 58.1519 45.8392 58.1519 45.2151C57.848 45.2015 57.5278 45.1798 57.2076 45.1744C55.84 45.1445 55.5714 44.8732 55.5714 43.473C55.5686 39.9835 55.5714 36.4966 55.5714 33.0071C55.5714 31.0886 55.6419 31.0181 57.5631 30.9801C57.7286 30.9774 57.8941 30.9611 58.1383 30.9475C58.2441 29.2706 58.6566 27.5665 56.8874 26.4051C56.5564 26.188 56.1765 25.8787 56.0652 25.5341C55.935 25.1271 55.916 24.5138 56.1439 24.218C56.323 23.9901 57.118 23.9168 57.3541 24.1149C58.3093 24.9181 59.1749 25.8299 60.0188 26.7524C60.2114 26.9641 60.2277 27.382 60.2359 27.7049C60.263 28.7496 60.2467 29.7943 60.2467 30.896C60.5452 30.9312 60.7677 30.9746 60.9929 30.9774C62.8245 31.0126 62.8897 31.075 62.8897 32.8687C62.8897 36.3229 62.8897 39.7772 62.8897 43.2315C62.8897 45.0061 62.7621 45.1337 61.0065 45.1717C60.8057 45.1771 60.6049 45.1988 60.3254 45.2178C60.3254 45.8582 60.3254 46.4796 60.3254 47.2393C62.1082 47.508 63.9343 47.7739 65.7551 48.0642C67.6573 48.3682 69.5757 48.6097 71.448 49.0492C73.5537 49.5431 74.5251 50.7642 74.4166 52.916C74.346 54.3161 74.886 55.0054 76.0311 55.6593C78.9373 57.32 81.7756 59.1028 84.6166 60.8774C85.1539 61.2139 85.5175 61.2193 86.0466 60.8584C88.7303 59.0268 91.4411 57.2413 94.1464 55.4395C95.4109 54.5983 95.8424 54.7177 96.4556 56.0908C99.8909 63.7781 103.313 71.4709 106.772 79.1446C107.036 79.728 107.491 80.2816 107.988 80.6913C109.29 81.7713 110.696 82.7237 111.988 83.8146C112.33 84.1022 112.62 84.7453 112.538 85.1442C112.476 85.4454 111.784 85.8117 111.372 85.8144C105.787 85.8578 100.2 85.866 94.6131 85.809C93.8805 85.8008 93.061 85.5159 92.4342 85.117C89.8917 83.5025 87.4034 81.8066 84.9097 80.1188C83.732 79.3237 83.1568 78.1949 83.1649 76.7595C83.1785 74.0514 83.1812 71.3406 83.1513 68.6326C83.1486 68.3124 83.0184 67.8429 82.7877 67.6991C80.0986 66.0113 77.3797 64.3696 74.5523 62.6493C74.5143 63.0129 74.4709 63.2571 74.4681 63.5013C74.4302 65.2678 73.3963 66.4129 71.6353 66.5784C70.9976 66.6381 70.3491 66.6246 69.7087 66.6246C65.0035 66.6273 60.2983 66.6273 55.5903 66.6273C55.2213 66.6273 54.855 66.6273 54.4018 66.6273C54.4018 67.5472 54.4018 68.3992 54.4018 69.3679C54.7844 69.3679 55.1453 69.3679 55.5089 69.3679C60.3498 69.3679 65.1907 69.3354 70.0316 69.3788C74.5387 69.4195 77.8654 72.4532 78.3973 76.9087C78.8966 81.1065 75.6567 85.2961 71.4534 85.8605C70.7859 85.9501 70.1048 85.9935 69.4292 85.9935C52.2663 86.0017 35.1007 86.0016 17.9379 85.9962C13.2869 85.9962 9.93577 83.337 9.13257 79.0442C8.24254 74.2875 11.9492 69.5226 16.7955 69.4113C21.9376 69.2947 27.0851 69.3706 32.2326 69.3625C32.6287 69.3625 33.0276 69.3625 33.4916 69.3625C33.4916 68.4263 33.4916 67.6014 33.4916 66.6219C33.0629 66.6219 32.6694 66.6219 32.276 66.6219C26.9955 66.6219 21.7123 66.6381 16.4319 66.6029C15.6748 66.5974 14.8743 66.4563 14.177 66.1714C13.1675 65.7562 12.6004 64.9042 12.6004 63.7727C12.5923 58.6252 12.5706 53.4777 12.614 48.3302C12.6303 46.5854 13.7184 45.6058 15.4659 45.5787C16.9203 45.557 18.3775 45.5733 19.8319 45.5733C21.5251 45.5705 21.6391 45.4593 21.6391 43.8122C21.6391 38.7651 21.6364 33.7207 21.6418 28.6736C21.6418 26.3074 22.7462 25.1813 25.1124 25.1786C30.6994 25.1678 36.2838 25.165 41.8709 25.1786C44.4487 25.1868 45.9927 26.454 46.4703 28.9938C47.4173 34.0463 48.3399 39.1043 49.2272 44.1677C49.4117 45.2259 49.8622 45.7605 50.9693 45.8934C53.3463 46.1811 55.7097 46.5773 58.1519 46.9409ZM72.433 54.5359C72.433 54.1018 72.433 53.8331 72.433 53.5645C72.4412 51.5945 72.1508 51.2255 70.2432 50.8049C70.0126 50.7533 69.7765 50.7235 69.5431 50.6882C63.256 49.7548 56.9688 48.8159 50.6816 47.8906C48.5787 47.5812 47.6181 46.6858 47.2491 44.6317C46.3509 39.6388 45.4527 34.6487 44.5546 29.6559C44.2262 27.8324 43.518 27.211 41.681 27.2083C36.197 27.2029 30.7157 27.2029 25.2317 27.2083C23.8696 27.2083 23.6715 27.42 23.6715 28.8174C23.6688 33.9296 23.6742 39.0419 23.6688 44.1568C23.6661 46.4823 22.5779 47.5785 20.2606 47.5948C18.7383 47.6057 17.2134 47.603 15.6911 47.5948C15.1267 47.5921 14.6545 47.7061 14.6383 48.3926C14.6193 49.1958 14.6328 49.999 14.6328 50.908C15.0697 50.908 15.398 50.908 15.7291 50.908C17.2866 50.908 18.8442 50.9161 20.399 50.9053C21.0882 50.8999 21.6391 51.0708 21.6581 51.874C21.6798 52.7342 21.1072 52.9458 20.3773 52.9404C20.0381 52.9377 19.7016 52.9404 19.3625 52.9404C17.8103 52.9404 16.2609 52.9404 14.7387 52.9404C14.4999 53.6541 14.7169 53.9091 15.3682 53.901C17.0614 53.882 18.7519 53.8983 20.4451 53.8956C21.1398 53.8928 21.6689 54.1045 21.6608 54.9104C21.6526 55.719 21.091 55.9171 20.418 55.9225C18.7248 55.9334 17.0343 55.909 15.3411 55.9524C15.105 55.9578 14.8743 56.2482 14.6383 56.4055C14.8825 56.5521 15.1213 56.8207 15.3682 56.8261C17.0261 56.8641 18.6841 56.8478 20.342 56.8478C21.0557 56.8478 21.6608 57.0188 21.6554 57.8871C21.6499 58.769 21.0313 58.8884 20.3203 58.883C18.6624 58.8721 17.0044 58.8965 15.3438 58.8748C14.6654 58.8667 14.5053 59.1543 14.7414 59.8544C15.0426 59.8544 15.3763 59.8544 15.7074 59.8544C17.2975 59.8544 18.8903 59.8408 20.4804 59.8625C21.4084 59.8761 21.9566 60.4948 21.5794 61.1921C21.3921 61.5368 20.8087 61.8407 20.3909 61.857C18.505 61.9275 16.6164 61.8868 14.6165 61.8868C14.6165 62.3535 14.6138 62.7144 14.6165 63.078C14.622 64.3154 14.8553 64.5569 16.0845 64.6003C16.2881 64.6084 16.4916 64.603 16.6951 64.603C34.5987 64.603 52.5051 64.603 70.4088 64.6003C70.8131 64.6003 71.2554 64.6573 71.6135 64.5162C71.9337 64.3886 72.3489 64.0495 72.3869 63.7564C72.4954 62.9722 72.4249 62.1636 72.4249 61.2844C71.9256 61.2844 71.5593 61.2844 71.1957 61.2844C67.2367 61.2844 63.275 61.2898 59.316 61.2817C57.1723 61.279 55.6365 59.8924 55.6012 57.9495C55.5659 55.9714 57.1099 54.5495 59.3268 54.5441C63.2858 54.5359 67.2475 54.5414 71.2065 54.5414C71.5728 54.5359 71.9365 54.5359 72.433 54.5359ZM43.7242 71.403C42.7094 71.403 41.6945 71.403 40.6797 71.403C32.9299 71.403 25.1802 71.3786 17.4304 71.4139C13.0753 71.4356 10.1094 75.3647 11.2925 79.4458C12.112 82.2706 14.5623 83.9692 17.8782 83.9692C35.1034 83.9747 52.3287 83.972 69.554 83.9665C70.1265 83.9665 70.7072 83.9258 71.2716 83.8363C74.46 83.3234 76.7882 80.1513 76.3486 76.9467C75.8873 73.5765 73.3719 71.4166 69.8172 71.4085C61.1177 71.3922 52.421 71.403 43.7242 71.403ZM85.1973 69.1617C85.1973 71.6581 85.238 73.9836 85.1783 76.309C85.1512 77.4107 85.5338 78.1515 86.4618 78.7485C88.7086 80.1921 90.8902 81.7442 93.1479 83.1688C93.7394 83.5405 94.5182 83.782 95.2128 83.7929C99.3075 83.8498 103.402 83.82 107.5 83.82C107.784 83.82 108.069 83.82 108.59 83.82C108.243 83.5188 108.116 83.3641 107.953 83.2719C106.08 82.1865 104.878 80.5828 104.249 78.5287C104.23 78.4663 104.203 78.3849 104.154 78.3523C103.836 78.1298 103.522 77.758 103.185 77.7336C102.073 77.6549 100.955 77.7119 99.8366 77.6956C99.1664 77.6848 98.7105 77.3619 98.7241 76.6536C98.7377 75.9454 99.1935 75.6605 99.8773 75.6687C100.849 75.6795 101.817 75.6714 102.808 75.6714C102.363 73.6444 102.314 73.6064 100.458 73.6064C99.7145 73.6064 98.9683 73.6064 98.2248 73.6064C97.5112 73.6064 96.8925 73.4137 96.9006 72.5671C96.9088 71.7097 97.5274 71.5604 98.2465 71.5713C99.1691 71.5876 100.092 71.574 101.117 71.574C100.925 71.1181 100.784 70.8793 100.721 70.6215C100.493 69.6664 99.9099 69.3625 98.952 69.4547C98.081 69.5389 97.1937 69.4602 96.3145 69.4765C95.6117 69.4873 95.0771 69.2648 95.0717 68.4806C95.0663 67.6991 95.6117 67.4522 96.3009 67.4468C97.2452 67.4386 98.1868 67.444 99.1528 67.444C98.6698 65.4035 98.6373 65.3764 96.8002 65.3764C96.0214 65.3764 95.2427 65.3628 94.4639 65.3791C93.7475 65.3926 93.2374 65.1349 93.2455 64.3615C93.2537 63.5855 93.7991 63.3467 94.4883 63.3467C95.4272 63.3467 96.3688 63.3467 97.4623 63.3467C96.5587 61.3224 95.7148 59.4338 94.8248 57.4394C92.2795 59.1353 89.8455 60.7553 87.2786 62.4648C88.3694 63.1404 89.3571 63.7076 90.296 64.3479C91.7884 65.3655 92.2008 67.3138 91.2972 68.8415C90.4018 70.3611 88.4752 70.9336 86.8715 70.1358C86.3641 69.8808 85.8838 69.5633 85.1973 69.1617ZM66.2055 56.5683C63.8719 56.5683 61.5356 56.5575 59.202 56.5738C58.2333 56.5792 57.62 57.13 57.6309 57.917C57.6418 58.6957 58.2713 59.2167 59.2346 59.2439C59.4706 59.252 59.7094 59.2466 59.9455 59.2466C63.7688 59.2466 67.5921 59.271 71.4155 59.2303C72.4032 59.2194 73.2362 59.4419 74.0801 59.9656C78.3919 62.6357 82.7307 65.2597 87.0642 67.8945C87.3518 68.0709 87.6395 68.2717 87.9542 68.3693C88.6 68.5674 89.1889 68.4182 89.5335 67.7995C89.8862 67.1646 89.7804 66.554 89.2106 66.071C89.0315 65.9191 88.8171 65.8078 88.6163 65.6857C83.8541 62.7823 79.0947 59.8707 74.3162 56.9917C73.9092 56.7447 73.38 56.5955 72.9052 56.5873C70.672 56.5439 68.4388 56.5683 66.2055 56.5683ZM52.2446 66.7005C46.6711 66.7005 41.1735 66.7005 35.6489 66.7005C35.6489 67.6014 35.6489 68.4318 35.6489 69.3001C41.2088 69.3001 46.7064 69.3001 52.2446 69.3001C52.2446 68.4263 52.2446 67.6204 52.2446 66.7005ZM57.6662 33.0613C57.6662 36.4559 57.6662 39.7447 57.6662 43.0606C58.7516 43.0606 59.7718 43.0606 60.7975 43.0606C60.7975 39.6877 60.7975 36.3962 60.7975 33.0613C59.7366 33.0613 58.738 33.0613 57.6662 33.0613Z" fill="black"/>
<path d="M24.5968 35.8073C24.5968 33.9459 24.5914 32.0844 24.5995 30.2229C24.6049 28.9096 24.8492 28.6545 26.1245 28.6518C31.3344 28.6464 36.547 28.6627 41.757 28.6356C42.761 28.6301 43.2033 29.029 43.3769 30.014C44.2724 35.1425 45.2167 40.2629 46.1474 45.386C46.4323 46.9544 45.9873 47.4021 44.4352 47.0765C38.2837 45.7876 32.1403 44.4715 25.9834 43.2125C24.9631 43.0035 24.5534 42.5368 24.5832 41.4948C24.6375 39.6008 24.5968 37.7041 24.5968 35.8073ZM26.7432 30.7412C26.6943 30.9149 26.6455 31.0099 26.6455 31.1075C26.6374 34.2878 26.6482 37.4653 26.6211 40.6455C26.6156 41.2696 26.9765 41.3293 27.4378 41.427C31.1716 42.2085 34.9027 43.0089 38.6337 43.7986C40.3677 44.1649 42.107 44.5176 43.8843 44.884C43.8979 44.6506 43.9223 44.5529 43.9061 44.4634C43.13 40.1761 42.3268 35.8914 41.5914 31.596C41.4666 30.8633 41.2088 30.6652 40.4925 30.668C36.1997 30.6978 31.9043 30.6815 27.6115 30.687C27.3157 30.6842 27.02 30.7222 26.7432 30.7412Z" fill="black"/>
<path d="M35.3884 62.0984C32.2787 62.0984 29.1663 62.1038 26.0567 62.0957C24.8682 62.093 24.6077 61.8515 24.6049 60.6738C24.5941 56.514 24.5941 52.3515 24.6049 48.1918C24.6077 47.0087 25.0581 46.6396 26.1923 46.8974C32.4822 48.3193 38.7667 49.7656 45.0566 51.182C45.933 51.3801 46.2776 51.8414 46.2641 52.7423C46.2261 55.3798 46.2586 58.02 46.2478 60.6576C46.2424 61.8461 45.9954 62.093 44.8205 62.0957C41.6783 62.1011 38.5333 62.0984 35.3884 62.0984ZM44.2181 60.0145C44.2181 57.8165 44.2398 55.6891 44.1855 53.5645C44.1801 53.3474 43.7568 53.0163 43.4773 52.9485C39.9281 52.11 36.368 51.3068 32.8106 50.4982C30.789 50.0369 28.7647 49.5811 26.6862 49.1089C26.6862 52.821 26.6862 56.3919 26.6862 60.0145C32.5148 60.0145 38.2864 60.0145 44.2181 60.0145Z" fill="black"/>
<path d="M43.7703 81.7876C38.1534 81.7876 32.5365 81.7903 26.9195 81.7876C25.5248 81.7876 25.2806 81.5379 25.2779 80.1242C25.2751 78.431 25.2724 76.7378 25.2806 75.0472C25.286 73.8777 25.5628 73.5657 26.6889 73.5657C38.0259 73.5575 49.3601 73.5575 60.6971 73.5657C61.7961 73.5657 62.0647 73.8587 62.0729 74.9686C62.0837 76.7622 62.0837 78.5558 62.0729 80.3521C62.0675 81.4891 61.7717 81.7849 60.6239 81.7849C55.0069 81.7903 49.39 81.7876 43.7703 81.7876ZM27.3618 79.6982C38.2837 79.6982 49.1241 79.6982 59.9971 79.6982C59.9971 78.3251 59.9971 77.02 59.9971 75.6524C49.1051 75.6524 38.2592 75.6524 27.3618 75.6524C27.3618 77.0064 27.3618 78.3116 27.3618 79.6982Z" fill="black"/>
<path d="M17.3463 73.4382C19.7071 73.4707 21.5794 75.3919 21.5333 77.7363C21.4871 80.0781 19.5199 81.9884 17.2161 81.9287C14.8526 81.869 13.0265 79.975 13.0482 77.6007C13.0672 75.2426 14.9639 73.4056 17.3463 73.4382ZM15.0833 77.5735C15.0426 78.8407 15.9869 79.861 17.2378 79.8963C18.4127 79.9289 19.4439 78.9601 19.4981 77.7662C19.5551 76.5207 18.5837 75.4923 17.3273 75.4706C16.0873 75.4516 15.1213 76.3552 15.0833 77.5735Z" fill="black"/>
<path d="M65.8528 77.6197C65.8664 75.2888 67.7279 73.4382 70.0587 73.4382C72.4521 73.4382 74.3271 75.2943 74.3325 77.6713C74.3379 80.0185 72.3924 81.9586 70.0642 81.9342C67.7061 81.9098 65.8365 79.994 65.8528 77.6197ZM70.0642 75.4706C68.835 75.4815 67.8934 76.4204 67.888 77.6469C67.8798 78.9032 68.8757 79.9099 70.1157 79.8991C71.3015 79.8882 72.2892 78.8951 72.3028 77.6984C72.3164 76.4421 71.3287 75.4598 70.0642 75.4706Z" fill="black"/>
</svg>
