<svg width="120" height="100" viewBox="0 0 120 100" fill="none" xmlns="http://www.w3.org/2000/svg">
<rect width="120" height="100" fill="white"/>
<path d="M26.8896 61.4854C23.6781 61.4854 21.0651 64.0981 21.0651 67.3098C21.0651 70.5216 23.6779 73.1343 26.8896 73.1343C30.1014 73.1343 32.7143 70.5216 32.7143 67.3098C32.7143 64.0981 30.1011 61.4854 26.8896 61.4854ZM26.8896 69.6451C25.6021 69.6451 24.5544 68.5976 24.5544 67.3098C24.5544 66.0221 25.6018 64.9746 26.8896 64.9746C28.1774 64.9746 29.2251 66.0221 29.2251 67.3098C29.2251 68.5976 28.1771 69.6451 26.8896 69.6451Z" fill="black"/>
<path d="M87.4753 61.4854C84.2636 61.4854 81.6506 64.0981 81.6506 67.3098C81.6506 70.5216 84.2636 73.1343 87.4753 73.1343C90.6868 73.1343 93.2998 70.5216 93.2998 67.3098C93.2998 64.0981 90.6871 61.4854 87.4753 61.4854ZM87.4753 69.6451C86.1876 69.6451 85.1399 68.5976 85.1399 67.3098C85.1399 66.0221 86.1876 64.9746 87.4753 64.9746C88.7629 64.9746 89.8106 66.0221 89.8106 67.3098C89.8106 68.5976 88.7631 69.6451 87.4753 69.6451Z" fill="black"/>
<path d="M101.982 18H17.5905C12.8538 18 9 21.8526 9 26.5882V67.9568C9 68.9203 9.78113 69.7014 10.7446 69.7014H15.4463C16.5531 75.0041 21.2633 79 26.8899 79C32.5164 79 37.2264 75.0041 38.3332 69.7014H76.032C77.1388 75.0041 81.8488 79 87.4753 79C93.1019 79 97.8119 75.0041 98.9187 69.7014H108.825C109.789 69.7014 110.57 68.9203 110.57 67.9568V26.5882C110.57 21.8526 106.717 18 101.982 18ZM15.2525 66.2121H12.4893V64.3768H15.5724C15.4181 64.9716 15.3114 65.585 15.2525 66.2121ZM26.8896 75.5107C22.3675 75.5107 18.6885 71.8319 18.6885 67.3098C18.6885 62.7878 22.3675 59.1089 26.8896 59.1089C31.4117 59.1089 35.0905 62.7878 35.0905 67.3098C35.0905 71.8319 31.4117 75.5107 26.8896 75.5107ZM87.4753 75.5107C82.9533 75.5107 79.2744 71.8319 79.2744 67.3098C79.2744 62.7878 82.9533 59.1089 87.4753 59.1089C91.9974 59.1089 95.6762 62.7878 95.6762 67.3098C95.6762 71.8319 91.9974 75.5107 87.4753 75.5107ZM107.08 66.2121H99.1124C99.0538 65.585 98.9468 64.9716 98.7926 64.3768H107.08V66.2121ZM107.08 54.4671H104.173C103.209 54.4671 102.428 55.2482 102.428 56.2117C102.428 57.1752 103.209 57.9563 104.173 57.9563H107.08V60.8873H97.2364C95.1433 57.717 91.5505 55.6197 87.4753 55.6197C83.4001 55.6197 79.8074 57.717 77.7143 60.8875H44.9718C44.0083 60.8875 43.2272 61.6687 43.2272 62.6322C43.2272 63.5957 44.0083 64.3768 44.9718 64.3768H76.1581C76.0038 64.9716 75.8971 65.585 75.8382 66.2121H38.5267C37.9715 60.279 32.9653 55.6195 26.8896 55.6195C22.8144 55.6195 19.2214 57.7167 17.1283 60.8873H12.4893V26.588C12.4893 23.7763 14.7777 21.489 17.5905 21.489H101.982C104.18 21.489 106.059 22.8884 106.773 24.8433H97.6502C94.6411 24.8433 92.193 27.2914 92.193 30.3005V46.9163C92.193 49.9255 94.6411 52.3735 97.6502 52.3735H107.08V54.4671ZM107.08 48.8845H97.6502C96.5651 48.8845 95.6823 48.0017 95.6823 46.9166V30.3008C95.6823 29.2156 96.5651 28.3328 97.6502 28.3328H107.08V48.8845Z" fill="black"/>
<path d="M84.6423 24.8435H21.9126C18.9034 24.8435 16.4554 27.2916 16.4554 30.3007V46.9165C16.4554 49.9256 18.9034 52.3737 21.9126 52.3737H84.6423C87.6514 52.3737 90.0995 49.9256 90.0995 46.9165V30.3007C90.0995 27.2916 87.6514 24.8435 84.6423 24.8435ZM40.0869 48.8844H21.9126C20.8274 48.8844 19.9446 48.0017 19.9446 46.9165V30.3007C19.9446 29.2155 20.8274 28.3328 21.9126 28.3328H40.0869V48.8844ZM63.8138 48.8844H43.5762V28.3328H63.8138V48.8844ZM86.6103 46.9165C86.6103 48.0017 85.7275 48.8844 84.6423 48.8844H67.3031V28.3328H84.6423C85.7275 28.3328 86.6103 29.2155 86.6103 30.3007V46.9165Z" fill="black"/>
<path d="M41.5438 61.182C40.8897 60.7507 40.0046 60.8054 39.4163 61.3278C38.8859 61.7987 38.6956 62.5675 38.9392 63.2323C39.199 63.9415 39.9059 64.4107 40.6615 64.3737C41.3933 64.3379 42.0374 63.8306 42.2472 63.1299C42.4633 62.4083 42.1744 61.5972 41.5438 61.182Z" fill="black"/>
<path d="M41.5661 61.1967C41.5735 61.2017 41.5716 61.2003 41.5661 61.1967V61.1967Z" fill="black"/>
<path d="M41.5446 61.1826C41.4954 61.1501 41.5199 61.1662 41.5446 61.1826V61.1826Z" fill="black"/>
<path d="M41.5438 61.182C41.5537 61.1884 41.5623 61.1941 41.5675 61.1976C41.5631 61.1949 41.5559 61.1899 41.5438 61.182Z" fill="black"/>
</svg>
