<svg width="120" height="100" viewBox="0 0 120 100" fill="none" xmlns="http://www.w3.org/2000/svg">
<rect width="120" height="100" fill="white"/>
<path d="M114.997 73.9593C114.437 74.7412 113.683 75 112.719 75C77.9108 74.9829 43.1029 74.9858 8.295 74.9801C7.90815 74.9801 7.50708 74.9716 7.14014 74.8664C6.36075 74.6474 5.94831 74.0759 6.00519 73.2797C6.06493 72.4437 6.55418 71.912 7.4189 71.8125C7.8342 71.7641 8.25518 71.7698 8.50549 71.7585C8.23242 69.3643 7.74033 67.0212 7.73179 64.6782C7.68344 52.0618 18.4669 42.03 31.0622 42.8205C36.4895 43.1617 41.1573 45.2062 45.0628 48.9596C45.8564 49.7216 46.6414 49.9462 47.7394 49.7899C51.4116 49.2695 54.9445 49.841 58.2924 51.4647C58.7049 51.6665 59.1116 51.8826 59.6749 52.1698C60.2238 50.7282 60.7814 49.3349 61.2621 47.9132C61.3303 47.7113 61.063 47.3445 60.8752 47.1142C59.4644 45.3825 58.0307 43.6679 56.6113 41.9419C55.7495 40.8898 55.7096 39.9828 56.4748 39.3288C57.2713 38.6463 58.1929 38.8624 59.1003 39.9515C60.2494 41.3306 61.3958 42.7153 62.6587 44.2394C63.1167 43.0224 63.5092 41.9789 63.9074 40.9353C64.4138 39.6017 65.1903 39.107 66.183 39.4851C67.1558 39.8548 67.3976 40.7306 66.8856 42.0983C65.4833 45.846 64.0781 49.5908 62.6616 53.3328C62.4767 53.8219 62.3885 54.1688 62.8664 54.6266C67.6593 59.2188 69.6334 64.7977 68.6378 71.3916C68.6236 71.4883 68.6634 71.5935 68.6833 71.7385C73.6754 71.7385 78.6589 71.7385 83.7704 71.7385C83.6282 71.2893 83.523 70.9253 83.3978 70.5699C81.0369 63.9702 78.6731 57.3705 76.3122 50.768C76.2297 50.5348 76.133 50.3045 76.0733 50.0657C75.8201 49.0904 76.2184 48.2629 77.0575 47.9956C77.9336 47.7198 78.7158 48.0866 79.0827 49.0534C79.7739 50.8732 80.4111 52.7129 81.0739 54.5441C81.1905 54.8711 81.3185 55.1924 81.4863 55.6332C82.9626 54.5271 84.3763 53.4693 85.79 52.4115C86.0745 52.1983 86.3532 51.9793 86.6434 51.7774C87.5764 51.1234 88.5264 51.2031 89.0868 51.9765C89.6358 52.7385 89.4822 53.6058 88.5947 54.2882C86.8795 55.6076 85.1529 56.9127 83.4007 58.1781C82.8062 58.6046 82.5985 58.96 82.8858 59.7278C84.2625 63.4072 85.5852 67.1094 86.8652 70.8258C87.1355 71.6106 87.5166 71.8409 88.3102 71.8125C90.0454 71.7528 91.789 71.7584 93.5242 71.8096C94.2637 71.8324 94.6534 71.6134 94.9521 70.9083C96.07 68.2667 97.2533 65.6535 98.4195 63.0319C98.9685 61.8035 99.7906 61.3713 100.718 61.8035C101.662 62.2414 101.881 63.1086 101.335 64.3512C100.408 66.4582 99.4663 68.5596 98.5361 70.6637C98.3968 70.9793 98.2801 71.3007 98.1095 71.7272C98.5276 71.7528 98.8291 71.7897 99.1306 71.7897C100.906 71.7954 102.706 71.5992 104.447 71.8409C106.694 72.1537 107.619 71.0419 108.435 69.2136C113.387 58.1041 106.987 45.5332 94.9549 42.9456C92.8358 42.4907 91.5046 41.3192 90.7536 39.3288C88.6516 33.7613 83.4291 31.1623 77.7288 32.8542C75.7376 33.4456 74.0196 33.1215 72.3499 31.8391C61.7997 23.7494 46.8406 26.5161 39.8062 37.8217C39.7123 37.9724 39.6213 38.126 39.5246 38.271C38.8789 39.2321 37.9999 39.4908 37.1807 38.9591C36.4042 38.4558 36.2477 37.5772 36.7995 36.6275C38.4778 33.7414 40.651 31.2818 43.3077 29.2601C52.5267 22.2452 65.031 22.2424 74.2471 29.2771C75.0976 29.9283 75.8941 30.0591 76.9067 29.7577C84.0606 27.6364 91.0381 31.1026 93.6892 38.0975C94.0675 39.0956 94.6506 39.6358 95.7087 39.8662C106.449 42.2007 113.615 51.368 113.265 62.3381C113.171 65.2754 112.46 68.0819 111.2 70.7433C111.066 71.0277 110.944 71.3177 110.736 71.7897C111.527 71.7897 112.215 71.8352 112.895 71.7784C113.854 71.7016 114.548 72.0513 115 72.893C114.997 73.2484 114.997 73.6039 114.997 73.9593ZM65.2671 71.7471C67.8129 61.3173 58.6508 51.3708 48.0438 52.9632C46.0043 53.2703 44.3772 52.7527 42.9209 51.3282C39.5957 48.0838 35.5992 46.3237 30.9456 46.0109C17.6363 45.1152 7.57819 58.1411 11.8222 70.7746C12.0725 71.5224 12.3911 71.8182 13.2216 71.8125C19.3231 71.7727 25.4273 71.7926 31.5287 71.7926C31.8701 71.7926 32.2114 71.7926 32.7348 71.7926C32.3849 70.6239 32.018 69.6315 31.8018 68.6079C31.6226 67.7691 31.1845 67.388 30.3824 67.1492C27.7683 66.3729 25.1742 65.5341 22.5828 64.6839C21.5929 64.3598 21.1606 63.5607 21.4052 62.7219C21.6726 61.8177 22.4861 61.3969 23.5215 61.6471C23.8657 61.7296 24.1956 61.866 24.5313 61.9712C26.403 62.5627 28.2775 63.1513 30.2885 63.7854C30.2003 63.4214 30.1605 63.2224 30.1036 63.029C29.4921 60.959 28.8606 58.8918 28.2689 56.8161C28.0101 55.9061 28.4254 55.0958 29.2076 54.8228C30.0638 54.5214 30.9115 54.9251 31.2784 55.8237C31.3836 56.0853 31.4462 56.3639 31.5287 56.6369C32.9538 61.3855 34.3903 66.1284 35.7841 70.8827C35.9889 71.5822 36.279 71.8438 37.0271 71.8125C38.5148 71.7471 40.0081 71.7499 41.4958 71.8125C42.241 71.8438 42.6364 71.5736 42.9891 70.9395C44.8409 67.6297 46.7182 64.337 48.6326 61.0642C48.9 60.6092 49.3579 60.0718 49.8159 59.9723C50.308 59.8671 51.0305 60.086 51.4202 60.4301C52.0516 60.9903 51.8895 61.7751 51.4884 62.4802C49.9211 65.2185 48.3567 67.9539 46.795 70.695C46.613 71.0163 46.4509 71.349 46.2461 71.7471C52.6689 71.7471 58.9381 71.7471 65.2671 71.7471Z" fill="black"/>
</svg>
