<svg width="120" height="100" viewBox="0 0 120 100" fill="none" xmlns="http://www.w3.org/2000/svg">
<rect width="120" height="100" fill="white"/>
<path d="M37.7712 62.317H37.7528C36.8075 62.317 36.0501 63.0834 36.0501 64.0289C36.0501 64.9744 36.8256 65.7408 37.7709 65.7408C38.7162 65.7408 39.4828 64.9744 39.4828 64.0289C39.4828 63.0834 38.7165 62.317 37.7712 62.317Z" fill="black"/>
<path d="M24.9895 31.2758H24.9712C24.0259 31.2758 23.2685 32.0421 23.2685 32.9876C23.2685 33.9332 24.044 34.6995 24.9893 34.6995C25.9346 34.6995 26.7012 33.9332 26.7012 32.9876C26.7012 32.0421 25.9348 31.2758 24.9895 31.2758Z" fill="black"/>
<path d="M35.9452 31.2758H35.9268C34.9815 31.2758 34.2241 32.0421 34.2241 32.9876C34.2241 33.9332 34.9997 34.6995 35.945 34.6995C36.8903 34.6995 37.6569 33.9332 37.6569 32.9876C37.6569 32.0421 36.8905 31.2758 35.9452 31.2758Z" fill="black"/>
<path d="M41.423 36.7538H41.4046C40.4593 36.7538 39.7019 37.5201 39.7019 38.4657C39.7019 39.4112 40.4774 40.1776 41.4228 40.1776C42.3681 40.1776 43.1346 39.4112 43.1346 38.4657C43.1346 37.5201 42.3683 36.7538 41.423 36.7538Z" fill="black"/>
<path d="M30.4491 36.7538H30.4307C29.4854 36.7538 28.728 37.5201 28.728 38.4657C28.728 39.4112 29.5036 40.1776 30.4489 40.1776C31.3942 40.1776 32.1608 39.4112 32.1608 38.4657C32.1608 37.5201 31.3944 36.7538 30.4491 36.7538Z" fill="black"/>
<path d="M35.936 42.2407H35.9177C34.9724 42.2407 34.215 43.0071 34.215 43.9526C34.215 44.8979 34.9905 45.6645 35.9358 45.6645C36.8811 45.6645 37.6477 44.8981 37.6477 43.9526C37.6479 43.0071 36.8813 42.2407 35.936 42.2407Z" fill="black"/>
<path d="M34.101 55.0131H34.0826C33.1373 55.0131 32.3799 55.7794 32.3799 56.7249C32.3799 57.6705 33.1555 58.4368 34.1008 58.4368C35.0461 58.4368 35.8127 57.6705 35.8127 56.7249C35.8127 55.7794 35.0463 55.0131 34.101 55.0131Z" fill="black"/>
<path d="M112.288 15.6455C109.915 13.7421 105.72 13.4927 99.4634 14.8832C85.1243 18.0697 68.6233 36.6893 63.5263 42.8012C67.2767 28.3639 76.9252 21.713 77.0496 21.6287C77.8342 21.1038 78.0458 20.0424 77.5218 19.2566C76.9973 18.4697 75.9344 18.2574 75.1479 18.7819C74.6897 19.0874 64.1566 26.2687 60.1328 42.2535C59.9782 42.24 59.8221 42.2317 59.6641 42.2317C59.5059 42.2317 59.35 42.2398 59.1954 42.2535C55.1714 26.2687 44.6385 19.0874 44.1803 18.7819C43.3951 18.2585 42.3354 18.4703 41.8101 19.2546C41.2846 20.0389 41.4951 21.1017 42.2781 21.6287C42.3044 21.6462 44.9244 23.4285 47.9331 27.1096C50.5211 30.2763 53.9058 35.5025 55.8024 42.8021C50.706 36.6908 34.2043 18.07 19.8646 14.8834C13.6079 13.4929 9.41306 13.7425 7.04008 15.6457C6.10951 16.3922 5 17.7896 5 20.2061C5 23.4183 6.23976 25.9627 7.55213 28.6566C8.72634 31.067 9.9407 33.5591 10.501 36.9212C11.2496 41.4124 12.3903 45.0044 13.8915 47.5969C15.1541 49.7779 17.5285 51.1328 20.0875 51.1328H22.0144C19.5353 52.9719 17.7814 55.4916 17.7814 58.5509C17.7814 62.0564 20.5748 68.4795 24.2791 73.4913C29.2879 80.2681 35.37 84 41.4044 84C42.9424 84 45.258 83.0259 53.3111 71.3939C55.0042 68.9484 56.6275 66.4908 57.952 64.445V76.8104C57.952 77.7557 58.7184 78.5223 59.6639 78.5223C60.6094 78.5223 61.3758 77.7559 61.3758 76.8104V64.4448C62.7005 66.4908 64.3238 68.9482 66.0167 71.3937C74.0696 83.0257 76.3851 83.9998 77.9234 83.9998C83.9578 83.9998 90.0398 80.2679 95.0487 73.491C98.753 68.4792 101.546 62.0564 101.546 58.5507C101.546 55.4912 99.7927 52.9717 97.3134 51.1328H99.2403C101.799 51.1328 104.174 49.7779 105.436 47.5969C106.937 45.004 108.078 41.4122 108.827 36.921C109.387 33.5591 110.601 31.0668 111.776 28.6564C113.088 25.9627 114.328 23.4181 114.328 20.2061C114.328 17.7896 113.219 16.3922 112.288 15.6455ZM20.0877 47.7092V47.7094C18.7461 47.7094 17.5072 47.0091 16.8544 45.8816C16.5544 45.3638 16.2149 44.6867 15.8643 43.8281C16.7989 43.8157 17.5533 43.0551 17.5533 42.1175C17.5533 41.1722 16.7869 40.4056 15.8414 40.4056H14.7377C14.4404 39.2848 14.1579 37.9976 13.9075 36.5255H15.8414C16.7867 36.5255 17.5533 35.7591 17.5533 34.8136C17.5533 33.8681 16.7869 33.1017 15.8414 33.1017H13.1099C12.6735 31.6764 12.1503 30.4012 11.6126 29.2217H12.1896C13.1349 29.2217 13.9015 28.4553 13.9015 27.5098C13.9015 26.5642 13.1351 25.7979 12.1896 25.7979H9.97614C9.0934 23.9147 8.42355 22.1661 8.42355 20.2059C8.42355 19.0575 8.85681 18.5771 9.18245 18.3157C10.0208 17.6433 12.4266 16.7373 19.1219 18.225C33.7988 21.4865 52.0485 43.5823 54.411 46.5081C54.3384 46.8592 54.3004 47.2226 54.3004 47.5948V47.7088H20.0877V47.7092ZM27.0324 71.4561C23.0571 66.0779 21.2051 60.5758 21.2051 58.5509C21.2051 55.836 23.8489 53.4705 27.089 52.1776C25.6406 54.6473 24.5514 58.676 26.8007 64.4243C29.0274 70.1149 32.3607 73.6529 35.0392 76.4956C36.3306 77.8663 37.4323 79.0358 38.0556 80.0943C33.0218 78.6468 29.1092 74.2662 27.0324 71.4561ZM41.8197 80.2476C41.2385 78.0822 39.5078 76.2456 37.5309 74.1476C35.0552 71.5199 31.974 68.2497 29.989 63.1768C28.5226 59.4298 28.5771 56.2513 30.1508 53.7302C31.0389 52.307 32.1954 51.4689 32.729 51.1332H54.3004V54.8993C54.3004 56.896 55.3977 58.6399 57.0204 59.5634C49.999 70.7777 44.084 78.4988 41.8197 80.2476ZM61.6043 54.8991C61.6043 55.9688 60.7339 56.8392 59.6641 56.8392C58.5943 56.8392 57.724 55.9688 57.724 54.8991V47.5952C57.724 46.5254 58.5943 45.6551 59.6641 45.6551C60.7339 45.6551 61.6043 46.5254 61.6043 47.5952V54.8991ZM77.5083 80.2478C75.244 78.4988 69.329 70.7775 62.3076 59.5634C63.9303 58.6399 65.0276 56.896 65.0276 54.8993V51.1332H86.5979C87.1373 51.4723 88.2908 52.3098 89.1774 53.7302C90.7511 56.2513 90.8056 59.4296 89.3392 63.1768C87.3543 68.2497 84.273 71.5199 81.7971 74.1476C79.8202 76.2458 78.0898 78.0826 77.5083 80.2478ZM98.1231 58.5509C98.1231 60.5758 96.2711 66.0779 92.2958 71.4561C90.219 74.2659 86.3065 78.6463 81.2727 80.0939C81.896 79.0352 82.998 77.8657 84.2892 76.4952C86.9676 73.6525 90.301 70.1145 92.5277 64.4238C94.7768 58.6758 93.6878 54.6471 92.2394 52.1772C95.4793 53.4705 98.1231 55.8362 98.1231 58.5509ZM109.352 25.7983H107.139C106.193 25.7983 105.427 26.5647 105.427 27.5102C105.427 28.4555 106.193 29.2221 107.139 29.2221H107.716C107.178 30.4016 106.655 31.6768 106.218 33.1022H103.487C102.541 33.1022 101.775 33.8685 101.775 34.814C101.775 35.7593 102.541 36.5259 103.487 36.5259H105.421C105.17 37.998 104.888 39.2852 104.59 40.406H103.487C102.541 40.406 101.775 41.1724 101.775 42.1179C101.775 43.0555 102.529 43.8163 103.464 43.8285C103.113 44.6871 102.773 45.3644 102.474 45.882C101.821 47.0093 100.582 47.7097 99.2403 47.7097H65.0278V47.5956C65.0278 47.2234 64.9894 46.86 64.917 46.509C67.2784 43.5832 85.5181 21.4899 100.206 18.2258C106.901 16.7382 109.307 17.644 110.146 18.3166C110.471 18.578 110.904 19.0582 110.904 20.2068C110.904 22.1666 110.235 23.915 109.352 25.7983Z" fill="black"/>
<path d="M81.5571 62.317C80.6118 62.317 79.8452 63.0834 79.8452 64.0289C79.8452 64.9744 80.6116 65.7408 81.5571 65.7408H81.5754C82.5207 65.7408 83.2781 64.9744 83.2781 64.0289C83.2781 63.0834 82.5026 62.317 81.5571 62.317Z" fill="black"/>
<path d="M94.3387 31.2758C93.3934 31.2758 92.6268 32.0421 92.6268 32.9876C92.6268 33.9332 93.3932 34.6995 94.3387 34.6995H94.3568C95.3022 34.6995 96.0595 33.9332 96.0595 32.9876C96.0595 32.0421 95.2842 31.2758 94.3387 31.2758Z" fill="black"/>
<path d="M83.383 31.2758C82.4377 31.2758 81.6711 32.0421 81.6711 32.9876C81.6711 33.9332 82.4375 34.6995 83.383 34.6995H83.4012C84.3465 34.6995 85.1039 33.9332 85.1039 32.9876C85.1039 32.0421 84.3285 31.2758 83.383 31.2758Z" fill="black"/>
<path d="M77.9052 36.7538C76.9599 36.7538 76.1933 37.5201 76.1933 38.4657C76.1933 39.4112 76.9597 40.1776 77.9052 40.1776H77.9235C78.8688 40.1776 79.6262 39.4112 79.6262 38.4657C79.6262 37.5201 78.8505 36.7538 77.9052 36.7538Z" fill="black"/>
<path d="M88.879 36.7538C87.9337 36.7538 87.1672 37.5201 87.1672 38.4657C87.1672 39.4112 87.9335 40.1776 88.879 40.1776H88.8974C89.8427 40.1776 90.6001 39.4112 90.6001 38.4657C90.6001 37.5201 89.8246 36.7538 88.879 36.7538Z" fill="black"/>
<path d="M83.3922 42.2407C82.4469 42.2407 81.6803 43.0071 81.6803 43.9526C81.6803 44.8979 82.4467 45.6645 83.3922 45.6645H83.4103C84.3556 45.6645 85.113 44.8981 85.113 43.9526C85.1133 43.0071 84.3375 42.2407 83.3922 42.2407Z" fill="black"/>
<path d="M85.2273 55.0131C84.282 55.0131 83.5154 55.7794 83.5154 56.7249C83.5154 57.6705 84.2818 58.4368 85.2273 58.4368H85.2457C86.191 58.4368 86.9484 57.6705 86.9484 56.7249C86.9484 55.7794 86.1726 55.0131 85.2273 55.0131Z" fill="black"/>
</svg>
