<svg width="120" height="100" viewBox="0 0 120 100" fill="none" xmlns="http://www.w3.org/2000/svg">
<rect width="120" height="100" fill="white"/>
<path d="M45.8696 89.9435C45.5824 89.5402 45.1431 89.1727 45.0417 88.7271C44.8728 87.9985 45.538 87.4304 46.4862 87.4072C47.6435 87.3776 48.8092 87.4072 50.0088 87.4072V71.7817C48.8747 71.5896 47.7259 71.4586 46.6087 71.1968C39.929 69.6277 35.038 65.7482 31.9061 59.664C30.2547 56.4583 29.6105 53.016 29.6169 49.4301C29.6169 45.3775 29.6063 41.3248 29.6169 37.2722C29.6169 34.8943 30.4616 32.8796 32.4193 31.4436C34.5142 29.9019 36.833 29.5873 39.2131 30.5988C41.6417 31.6379 43.2424 33.5153 43.348 36.1952C43.5212 40.63 43.4726 45.0649 43.4853 49.4998C43.4853 50.9971 43.6965 52.4268 44.4399 53.7488C45.6542 55.9261 47.483 57.2481 50.051 57.7613V56.8088C50.051 44.701 50.051 32.5931 50.051 20.4852C50.051 15.8181 53.0308 12.0379 57.5353 10.8933C62.9818 9.51426 68.6204 13.2902 69.4039 18.8549C69.4964 19.5183 69.5436 20.1872 69.5454 20.8569C69.5538 29.0382 69.5538 37.2208 69.5454 45.4049V46.4397C71.0168 46.2534 72.3917 45.6066 73.4734 44.5919C75.3086 42.9404 76.1237 40.8518 76.1089 38.3915C76.0836 34.3389 76.1089 30.2863 76.1089 26.2337C76.1089 24.2929 76.563 22.4957 77.9357 21.0449C79.8553 19.0175 82.2058 18.2699 84.8921 19.0344C87.6945 19.8306 89.4072 21.7397 89.8422 24.6519C89.974 25.7526 90.0213 26.8617 89.9837 27.9696C89.9647 32.1764 90.0956 36.3916 89.8338 40.5857C89.4684 46.4714 86.8328 51.3561 82.3853 55.2017C78.9449 58.2199 74.6127 60.0315 70.048 60.3609C69.9234 60.3715 69.7988 60.4032 69.6129 60.437V87.3945C70.4872 87.3945 71.3805 87.3945 72.2717 87.3945C72.6582 87.3945 73.0468 87.3945 73.4311 87.4347C73.6915 87.4421 73.9418 87.5366 74.1421 87.7032C74.3423 87.8698 74.4809 88.0987 74.5356 88.3533C74.6919 88.9214 74.4913 89.3564 74.0436 89.7049L73.7416 89.9393L45.8696 89.9435ZM69.5623 49.1408C69.5623 49.8292 69.5791 50.4965 69.5623 51.1639C69.5348 51.9643 69.0596 52.4775 68.3564 52.5134C67.6532 52.5493 67.1421 52.091 67.0259 51.2948C66.9945 51.0144 66.9839 50.7321 66.9943 50.4501C66.9943 42.1154 66.9943 33.7793 66.9943 25.4417C66.9943 23.558 67.064 21.6679 66.933 19.7926C66.7366 16.9733 65.2224 14.9353 62.6692 13.8224C60.2068 12.7475 57.7655 13.0199 55.5713 14.6312C53.4595 16.1898 52.6296 18.3565 52.6338 20.952C52.6577 34.5268 52.6612 48.1024 52.6443 61.6787C52.6443 61.9364 52.657 62.1961 52.6338 62.4517C52.5493 63.3534 52.0446 63.8497 51.2759 63.8096C50.5431 63.7715 50.0911 63.2478 50.0721 62.382C50.0573 61.7188 50.0721 61.0557 50.0721 60.4116C44.2836 59.3092 40.9384 55.2777 40.9363 49.4955C40.9363 45.3648 40.9469 41.2361 40.9363 37.1075C40.9258 34.6155 39.0969 32.6832 36.7464 32.6283C34.2334 32.5692 32.2609 34.3938 32.2419 36.9132C32.2081 41.4551 32.2123 45.9969 32.2546 50.5388C32.264 51.6735 32.3799 52.8047 32.6009 53.9177C34.3368 62.534 41.9648 68.9329 50.7627 69.199C52.279 69.2454 52.6528 69.6213 52.6633 71.1714V87.3375H67.0238V86.3492C67.0238 77.4964 67.0238 68.6443 67.0238 59.7929C67.0238 58.4159 67.4462 57.9302 68.688 57.8922C72.3309 57.8056 75.7098 56.8152 78.7403 54.7899C83.9016 51.3413 86.9596 46.4946 87.3503 40.3133C87.6649 35.3251 87.4558 30.3032 87.4136 25.2981C87.4009 23.8346 86.6048 22.7006 85.3546 21.953C82.398 20.1811 78.7741 22.2402 78.7445 25.731C78.7107 29.9653 78.7445 34.1974 78.7255 38.4295C78.7421 39.2538 78.6634 40.0772 78.4911 40.8835C77.3296 45.5358 74.2949 48.1862 69.5623 49.1386V49.1408Z" fill="black"/>
<path d="M81.8194 32.5016C81.8194 32.0644 81.7898 31.6252 81.8194 31.1901C81.8722 30.546 82.4529 30.0012 83.0569 30.0455C83.7031 30.0941 84.2311 30.4087 84.2712 31.112C84.3293 32.0875 84.3293 33.0656 84.2712 34.0411C84.2269 34.7296 83.7327 35.0717 83.0611 35.097C82.7478 35.1086 82.4424 34.9971 82.2104 34.7863C81.9783 34.5755 81.8379 34.2823 81.8194 33.9693C81.7877 33.4836 81.8194 32.9915 81.8194 32.5016Z" fill="black"/>
<path d="M37.8087 47.7406C37.8087 48.1798 37.8319 48.617 37.8087 49.0541C37.8095 49.2156 37.7784 49.3756 37.717 49.525C37.6557 49.6743 37.5654 49.8101 37.4513 49.9243C37.3372 50.0386 37.2017 50.1292 37.0524 50.1908C36.9032 50.2524 36.7432 50.2838 36.5817 50.2832C36.4265 50.2944 36.2707 50.2742 36.1234 50.2238C35.9762 50.1735 35.8406 50.094 35.7247 49.9902C35.6089 49.8863 35.5151 49.7602 35.449 49.6194C35.3829 49.4785 35.3458 49.3258 35.34 49.1703C35.2861 48.2207 35.2861 47.2689 35.34 46.3193C35.3695 46.0088 35.5177 45.7217 35.7538 45.5179C35.9899 45.3141 36.2956 45.2093 36.6071 45.2254C36.9184 45.2442 37.2118 45.3772 37.4312 45.5989C37.6506 45.8207 37.7805 46.1155 37.796 46.427C37.8319 46.862 37.8087 47.3034 37.8087 47.7406Z" fill="black"/>
<path d="M57.6494 30.0667C57.6494 30.5038 57.6747 30.9431 57.6494 31.3802C57.6336 31.7056 57.4932 32.0123 57.2573 32.2369C57.0213 32.4614 56.708 32.5865 56.3823 32.5861C56.0696 32.5828 55.7699 32.4603 55.5442 32.2437C55.3186 32.0271 55.1841 31.7327 55.168 31.4204C55.1279 30.5207 55.1257 29.6169 55.168 28.7193C55.1674 28.5574 55.2 28.3972 55.2637 28.2483C55.3274 28.0995 55.4209 27.9653 55.5384 27.8539C55.6559 27.7425 55.7949 27.6564 55.9469 27.6007C56.099 27.5451 56.2608 27.5211 56.4224 27.5304C57.1088 27.5304 57.6008 28.0119 57.6494 28.7552C57.6789 29.1903 57.6494 29.6295 57.6494 30.0667Z" fill="black"/>
<path d="M64.458 38.4422C64.4833 38.9304 64.4833 39.4196 64.458 39.9078C64.3841 40.5878 63.9554 40.9637 63.2711 40.9933C63.1161 41.0089 62.9595 40.993 62.8108 40.9465C62.6621 40.8999 62.5244 40.8237 62.406 40.7225C62.2876 40.6212 62.1909 40.497 62.1218 40.3574C62.0527 40.2177 62.0126 40.0655 62.004 39.9099C61.9544 38.9595 61.9544 38.0072 62.004 37.0568C62.0289 36.7438 62.1755 36.453 62.4124 36.2469C62.6494 36.0408 62.9577 35.9358 63.2711 35.9545C63.9047 36.0284 64.3988 36.3515 64.4622 37.0547C64.4918 37.513 64.458 37.9797 64.458 38.4422Z" fill="black"/>
<path d="M61.0515 80.6705C61.0515 81.133 61.0832 81.5976 61.0515 82.0559C61.0309 82.3669 60.8904 82.6578 60.6595 82.8674C60.4287 83.077 60.1256 83.1888 59.814 83.1793C59.5018 83.1891 59.1983 83.0756 58.9691 82.8634C58.7399 82.6512 58.6034 82.3573 58.5891 82.0453C58.549 81.1224 58.5469 80.1953 58.5891 79.2703C58.595 79.1155 58.6318 78.9635 58.6974 78.8231C58.7629 78.6827 58.8559 78.5569 58.9708 78.4529C59.0857 78.349 59.2203 78.2692 59.3665 78.2181C59.5128 78.1669 59.6678 78.1456 59.8224 78.1553C60.1342 78.1459 60.4373 78.2581 60.6679 78.4681C60.8984 78.6782 61.0383 78.9696 61.0579 79.2809C61.0652 79.332 61.0694 79.3835 61.0705 79.4351V80.6705H61.0515Z" fill="black"/>
</svg>
