<svg width="120" height="100" viewBox="0 0 120 100" fill="none" xmlns="http://www.w3.org/2000/svg">
<rect width="120" height="100" fill="white"/>
<g clip-path="url(#clip0_3_17)">
<path d="M106 64.8348C105.415 66.5348 105.032 68.3254 104.245 69.9121C102.692 73.0173 99.9236 74.8986 96.8629 76.236C87.2984 80.3839 78.3864 79.1826 70.3297 72.496C67.269 69.9347 65.5136 66.4668 64.6809 62.5455C64.3659 61.0722 64.1183 59.5989 63.7808 58.1256C63.6907 57.7629 63.3982 57.4456 63.0831 56.9016C61.7103 58.8736 60.495 60.5736 59.3473 62.3415C59.2123 62.5229 59.4148 63.0215 59.5498 63.2935C62.1604 68.1668 64.771 73.04 67.3815 77.9359C68.4393 79.9079 68.3042 80.7919 66.7514 82.3559C65.1535 83.9652 63.6007 85.5745 61.9804 87.1384C60.3375 88.7251 57.907 88.0678 57.3669 85.9371C57.0968 84.8718 57.4794 83.9878 58.222 83.2398C59.3023 82.1519 60.36 81.0412 61.4627 79.9759C61.9128 79.5452 61.9579 79.2506 61.6653 78.6839C59.0547 73.9013 56.5342 69.0961 53.9011 64.3135C53.0909 62.8402 53.1134 61.5709 54.1262 60.2109C55.4314 58.4656 56.6467 56.6296 57.9295 54.771C57.0293 54.3403 56.2416 53.9324 55.4089 53.5924C55.2289 53.5244 54.8913 53.6377 54.7338 53.7737C52.8659 55.5643 50.998 57.355 49.1751 59.1683C48.9725 59.3723 48.8375 59.7349 48.815 60.0296C48.0273 66.6935 47.2622 73.38 46.4745 80.0439C46.2944 81.5399 45.1917 82.5372 43.6839 82.5598C41.951 82.5825 40.2181 82.5825 38.4627 82.5598C36.8649 82.5372 35.6946 81.3585 35.6946 79.8399C35.6946 78.3213 36.8649 77.1879 38.4853 77.1426C39.408 77.1199 40.3307 77.1426 41.3659 77.1426C41.5684 75.42 41.771 73.72 41.9735 72.02C42.5136 67.3508 43.0087 62.6815 43.6389 58.0123C43.7514 57.219 44.3365 56.4256 44.8541 55.791C46.317 54.023 47.8698 52.3457 49.4001 50.6457C49.2426 50.4644 48.7475 50.2831 48.0273 50.5324C44.404 51.8924 40.7808 53.207 37.1575 54.5217C36.5723 54.7257 36.2573 55.0883 36.0097 55.655C34.1418 60.2562 32.2289 64.8348 30.316 69.4134C29.5733 71.204 28.8757 71.68 26.9853 71.68C25.4549 71.68 23.9246 71.7027 22.3943 71.68C20.7064 71.6574 19.5136 70.5467 19.4911 69.0054C19.4686 67.4188 20.6839 66.2855 22.4168 66.2628C23.2494 66.2628 24.1046 66.2175 24.9373 66.2855C25.5899 66.3308 25.8825 66.0815 26.1076 65.4921C27.8854 61.0949 29.7308 56.7203 31.5312 52.3004C32.0263 51.0991 32.769 50.3284 34.0068 49.8978C36.7974 48.9231 39.5655 47.8805 42.4011 46.8378C41.8385 45.9538 41.2984 45.1152 40.7808 44.3218C34.0068 45.1152 28.1555 43.0979 23.0019 38.7233C21.2915 37.2726 21.2915 35.55 22.9794 34.054C23.4745 33.6234 23.9696 33.1927 24.5097 32.7167C21.5841 31.1527 18.6359 29.6341 15.6878 28.0928C14.3825 27.4128 13.7749 26.2342 14.0674 25.0102C14.4725 23.2649 16.2729 22.3809 17.9383 23.1969C19.8287 24.1035 21.6741 25.1235 23.5195 26.0755C24.9148 26.8008 26.3101 27.5035 27.8179 28.1155C27.6379 27.8435 27.4804 27.5715 27.3003 27.3221C24.8698 23.6955 22.4168 20.0916 20.0087 16.465C18.8385 14.6744 19.5136 12.6344 21.4265 12.0904C22.5518 11.7731 23.632 12.2037 24.4197 13.3597C25.8825 15.4904 27.3228 17.6436 28.7631 19.7969C30.496 22.3582 32.2514 24.9195 33.9393 27.5261C34.4569 28.3195 34.952 28.5688 35.8972 28.4328C38.1702 28.0928 40.3757 28.3421 42.4011 29.5208C43.9539 30.4048 45.1242 31.6741 45.8669 33.2607C47.0596 33.1474 48.2074 33.034 49.4676 32.9207C50.0528 28.5461 50.6379 24.1035 51.268 19.4796C50.4804 19.8649 49.8502 20.1596 49.2201 20.4769C47.9373 21.1116 46.6545 21.7689 45.3717 22.4036C43.8864 23.1289 42.8737 22.9702 41.7035 21.8142C40.0156 20.1369 38.3502 18.4596 36.6849 16.7597C35.4921 15.5357 35.4471 13.9037 36.5498 12.7931C37.6526 11.6824 39.2504 11.7051 40.4882 12.9064C41.6359 14.017 42.7612 15.1504 43.8414 16.3063C44.2465 16.737 44.5616 16.7823 45.0792 16.5103C47.6898 15.173 50.3228 13.881 52.9334 12.5211C54.0586 11.9544 55.1389 11.7277 56.2191 12.5437C57.2768 13.3371 57.4119 14.4477 57.2318 15.6943C56.3766 21.9956 55.544 28.2968 54.7338 34.598C54.7113 34.8247 54.9363 35.1873 55.1614 35.3233C55.8815 35.7313 56.6692 36.0713 57.5019 36.4567C57.6369 36.094 57.7494 35.754 57.862 35.4367C59.4823 30.2461 61.0802 25.0329 62.7005 19.8423C63.3532 17.7796 64.5234 17.0997 66.5939 17.6436C69.407 18.3916 72.1976 19.1623 75.0107 19.8649C75.4833 19.9783 76.0684 19.9103 76.5185 19.7063C77.7788 19.1396 78.9715 18.437 80.1868 17.825C81.6946 17.077 83.27 17.5303 83.9676 18.8903C84.6878 20.2729 84.1702 21.8142 82.6849 22.6302C80.9745 23.5595 79.2191 24.4209 77.5087 25.3275C76.6761 25.7582 75.8659 25.7355 74.9882 25.4862C72.4451 24.7835 69.9021 24.1262 67.2915 23.4462C67.2015 23.6955 67.089 23.9449 67.0215 24.1942C65.5811 28.7955 64.1858 33.3967 62.723 37.9753C62.498 38.6779 62.633 38.9726 63.3081 39.2446C64.2984 39.6526 65.2661 40.1513 66.3013 40.6726C66.5038 40.4006 66.7064 40.1513 66.8864 39.8793C69.1594 36.5473 71.4324 33.238 73.7279 29.9061C74.8982 28.2061 76.1134 27.8888 77.9588 28.8181C80.952 30.3141 83.9451 31.8554 86.9608 33.3287C87.4334 33.5554 87.9735 33.6687 88.4911 33.6914C89.7514 33.7367 91.0117 33.6914 92.2719 33.714C93.9598 33.7367 95.1301 34.87 95.1301 36.434C95.1301 37.9753 93.9373 39.1086 92.2494 39.1313C90.6066 39.1539 88.9637 39.1766 87.2984 39.1086C86.6457 39.0859 85.9481 38.8593 85.3404 38.5646C82.6173 37.25 79.9393 35.8673 77.1487 34.462C75.2357 37.25 73.3678 39.9926 71.4099 42.8259C73.1203 42.6219 74.6956 42.3952 76.2935 42.2819C80.6819 41.9646 84.9804 42.2366 88.9862 44.2992C89.5264 44.5712 90.044 44.8658 90.5166 45.2285C94.1849 47.9258 97.8982 50.5777 101.476 53.411C104.042 55.4283 105.415 58.1936 105.91 61.4349C105.932 61.6162 106.022 61.7749 106.067 61.9335C106 62.9082 106 63.8828 106 64.8348ZM92.677 53.547C89.1663 61.3442 83.5626 66.6935 75.8209 69.8214C75.9559 69.9801 75.9784 70.0254 76.0234 70.0707C82.1222 74.4 91.9569 74.128 97.7631 69.4361C101.386 66.5121 101.611 60.8456 98.1232 57.7403C96.4578 56.2443 94.5674 54.975 92.677 53.547ZM69.4295 58.8736C69.7671 60.9362 70.2397 62.9082 71.0948 64.7895C71.3649 65.3788 71.635 65.5148 72.2426 65.3108C77.8013 63.5655 82.2348 60.3016 85.4755 55.4737C86.5557 53.887 87.3434 52.0737 88.2886 50.3284C84.4177 47.5858 80.2543 47.4725 76.0009 47.7445C76.9686 54.2043 75.1232 57.3096 69.4295 58.8736ZM71.1173 50.6911C71.0723 49.4444 70.3297 48.6284 69.1819 48.0844C64.2083 45.7272 59.2348 43.3245 54.2837 40.9672C52.7083 40.2193 51.1555 39.4486 49.5802 38.7233C47.8248 37.93 46.0019 38.9273 45.7093 40.7859C45.5293 41.9872 46.1594 43.0752 47.4872 43.7099C52.5058 46.1125 57.5244 48.5151 62.543 50.9177C64.1183 51.6657 65.6487 52.459 67.2465 53.1617C69.0919 53.9777 71.0723 52.731 71.1173 50.6911ZM28.9657 36.366C31.9813 38.2926 35.1995 39.1313 38.6428 39.1086C39.8581 39.1086 40.8258 38.1566 41.0733 36.9553C41.3209 35.7993 40.8483 34.802 39.6555 34.2354C39.0479 33.9407 38.3502 33.7367 37.6976 33.7367C34.5919 33.7594 31.7113 34.6434 28.9657 36.366Z" fill="black"/>
</g>
<defs>
<clipPath id="clip0_3_17">
<rect width="92" height="76" fill="white" transform="translate(14 12)"/>
</clipPath>
</defs>
</svg>
