<svg width="120" height="100" viewBox="0 0 120 100" fill="none" xmlns="http://www.w3.org/2000/svg">
<rect width="120" height="100" fill="white"/>
<path d="M96.2181 53.7067H93.2487V26.2436C93.2487 21.8413 89.667 18.2596 85.2647 18.2596H83.6591C82.6644 15.4389 78.6105 13.5458 78.0913 13.3133C77.7635 13.1666 77.3887 13.1666 77.0609 13.3133C76.5417 13.5458 72.4878 15.4389 71.4931 18.2596H68.837C67.75 14.2374 61.7585 11.4429 61.015 11.1101C60.6874 10.9633 60.3124 10.9633 59.9848 11.1101C59.2414 11.4429 53.25 14.2374 52.1628 18.2596H49.5067C48.512 15.4389 44.4581 13.5458 43.9389 13.3133C43.6111 13.1666 43.2363 13.1666 42.9085 13.3133C42.3893 13.5458 38.3355 15.4389 37.3407 18.2596H35.7352C31.3329 18.2596 27.7511 21.8413 27.7511 26.2436V53.7067H24.7819C22.6965 53.7067 21 55.4033 21 57.4886C21 59.5739 22.6965 61.2705 24.7819 61.2705H47.6497C48.2353 64.1441 50.782 66.3131 53.826 66.3131H56.0486V72.4715C53.2344 73.9299 51.3345 76.655 50.9281 79.7789H46.5948C44.2504 79.7789 41.6679 81.457 40.7157 83.5994L39.0522 87.3427H36.5097C35.8135 87.3427 35.2491 87.907 35.2491 88.6033C35.2491 89.2997 35.8135 89.864 36.5097 89.864H39.8644C39.8753 89.864 81.1247 89.864 81.1247 89.864C81.1356 89.864 84.4903 89.864 84.4903 89.864C85.1865 89.864 85.7509 89.2997 85.7509 88.6033C85.7509 87.907 85.1865 87.3427 84.4903 87.3427H81.9478L80.2843 83.5994C79.3321 81.457 76.7496 79.7789 74.4052 79.7789H70.0719C69.6655 76.655 67.7656 73.9298 64.9514 72.4714V66.3131H67.174C70.218 66.3131 72.7647 64.1441 73.3503 61.2705H96.2181C98.3035 61.2705 100 59.5739 100 57.4886C100 55.4033 98.3035 53.7067 96.2181 53.7067ZM77.5761 15.8635C78.7161 16.4501 80.0454 17.3588 80.7857 18.2596H74.3669C75.1069 17.3586 76.4365 16.4498 77.5761 15.8635ZM60.5008 13.657C62.1383 14.4765 65.1442 16.312 66.1475 18.2596H54.8542C55.8597 16.316 58.8649 14.478 60.5008 13.657ZM43.4237 15.8635C44.5637 16.4501 45.8931 17.3588 46.6333 18.2596H40.2145C40.9546 17.3586 42.2843 16.4498 43.4237 15.8635ZM35.7353 20.7808H85.2647C88.2767 20.7808 90.7274 23.2313 90.7274 26.2436V30.1096C88.4477 30.4153 87.1181 31.5284 85.9277 32.5303C84.6582 33.5988 83.6552 34.443 81.491 34.443C79.3267 34.443 78.3239 33.599 77.0542 32.5303C75.6593 31.3562 74.0781 30.0255 70.9939 30.0255C67.91 30.0255 66.3292 31.3562 64.9343 32.5305C63.6649 33.5988 62.6623 34.443 60.4983 34.443C58.3342 34.443 57.3316 33.599 56.062 32.5303C54.6673 31.3562 53.0863 30.0255 50.0022 30.0255C46.9184 30.0255 45.3375 31.3562 43.9428 32.5303C43.1972 33.1581 42.4929 33.7511 41.5808 34.0972C41.0912 34.2829 40.7677 34.7521 40.7677 35.2758V42.2152C40.7677 42.9104 40.2022 43.4759 39.507 43.4759C38.812 43.4759 38.2464 42.9104 38.2464 42.2152C38.2464 39.9173 38.2464 35.5859 38.2469 35.2962C38.2556 34.7729 37.9366 34.2883 37.4337 34.0974C36.5215 33.7511 35.817 33.1581 35.0714 32.5305C33.8812 31.5284 32.552 30.4155 30.2726 30.1096V26.2436C30.2726 23.2313 32.7233 20.7808 35.7353 20.7808ZM30.2726 32.6624C31.6226 32.927 32.4548 33.6234 33.4477 34.4591C34.0984 35.0069 34.8169 35.6117 35.7256 36.0877L35.7253 42.215C35.7253 44.3003 37.4217 45.997 39.5072 45.997C41.5926 45.997 43.2891 44.3003 43.2891 42.215V36.0877C44.1976 35.6117 44.9162 35.0067 45.5668 34.4591C46.8362 33.3907 47.8388 32.5466 50.0026 32.5466C52.1667 32.5466 53.1693 33.3906 54.4387 34.4593C55.8336 35.6333 57.4146 36.9641 60.4985 36.9641C63.5823 36.9641 65.1632 35.6333 66.5581 34.4591C67.8275 33.3907 68.8301 32.5466 70.9941 32.5466C73.1585 32.5466 74.1613 33.3906 75.4308 34.4593C76.8258 35.6333 78.4069 36.9641 81.4911 36.9641C84.5753 36.9641 86.1565 35.6333 87.5515 34.4593C88.5447 33.6234 89.377 32.9268 90.7276 32.6623V53.7064H30.2726V32.6624ZM63.2112 74.4408C65.501 75.3829 67.0994 77.4043 67.5214 79.7787H60.5104C59.8142 79.7787 59.2498 80.343 59.2498 81.0393C59.2498 81.7357 59.8142 82.3 60.5104 82.3H74.4053C75.7598 82.3 77.4304 83.3856 77.9805 84.6233L79.189 87.3425H41.8111L43.0197 84.6233C43.5698 83.3856 45.2404 82.3 46.5948 82.3H55.4679C56.1641 82.3 56.7285 81.7357 56.7285 81.0393C56.7285 80.343 56.1641 79.7787 55.4679 79.7787H53.4787C53.9008 77.4045 55.4991 75.3831 57.789 74.4408C58.2616 74.2465 58.5699 73.786 58.5699 73.275V66.3129H62.4303V73.275C62.4301 73.7861 62.7386 74.2465 63.2112 74.4408ZM67.174 63.7918H53.826C52.1826 63.7918 50.7813 62.7377 50.2609 61.2705H70.7391C70.2187 62.7377 68.8175 63.7918 67.174 63.7918ZM96.2181 58.7492H24.7819C24.0867 58.7492 23.5213 58.1838 23.5213 57.4886C23.5213 56.7934 24.0867 56.228 24.7819 56.228H96.2181C96.9133 56.228 97.4787 56.7934 97.4787 57.4886C97.4787 58.1838 96.9133 58.7492 96.2181 58.7492Z" fill="black"/>
<path d="M77.844 49.7019C78.5402 49.7019 79.1047 49.1375 79.1047 48.4413C79.1047 47.7451 78.5402 47.1807 77.844 47.1807C77.1478 47.1807 76.5834 47.7451 76.5834 48.4413C76.5834 49.1375 77.1478 49.7019 77.844 49.7019Z" fill="black"/>
<path d="M82.8866 44.6593C83.5828 44.6593 84.1473 44.0949 84.1473 43.3987C84.1473 42.7025 83.5828 42.1381 82.8866 42.1381C82.1904 42.1381 81.626 42.7025 81.626 43.3987C81.626 44.0949 82.1904 44.6593 82.8866 44.6593Z" fill="black"/>
</svg>
