<svg width="120" height="100" viewBox="0 0 120 100" fill="none" xmlns="http://www.w3.org/2000/svg">
<rect width="120" height="100" fill="white"/>
<path d="M41.4572 42.4843H35.1256C33.4706 42.4843 32.1243 43.8306 32.1243 45.4856V48.4509C32.1243 50.1059 33.4706 51.4522 35.1256 51.4522H41.457C43.112 51.4522 44.4583 50.1059 44.4583 48.4509V45.4856C44.4585 43.8308 43.1122 42.4843 41.4572 42.4843ZM42.3116 48.4511C42.3116 48.9223 41.9284 49.3055 41.4572 49.3055H35.1256C34.6544 49.3055 34.2711 48.9221 34.2711 48.4511V45.4858C34.2711 45.0146 34.6544 44.6314 35.1256 44.6314H41.457C41.9282 44.6314 42.3114 45.0148 42.3114 45.4858V48.4511H42.3116Z" fill="black"/>
<path d="M41.4572 52.675H35.1256C33.4706 52.675 32.1243 54.0214 32.1243 55.6764V58.6417C32.1243 60.2967 33.4706 61.643 35.1256 61.643H41.457C43.112 61.643 44.4583 60.2967 44.4583 58.6417V55.6764C44.4585 54.0216 43.1122 52.675 41.4572 52.675ZM42.3116 58.6417C42.3116 59.1129 41.9284 59.4961 41.4572 59.4961H35.1256C34.6544 59.4961 34.2711 59.1127 34.2711 58.6417V55.6764C34.2711 55.2051 34.6544 54.8219 35.1256 54.8219H41.457C41.9282 54.8219 42.3114 55.2054 42.3114 55.6764V58.6417H42.3116Z" fill="black"/>
<path d="M41.4572 62.8655H35.1256C33.4706 62.8655 32.1243 64.2118 32.1243 65.8668V68.8321C32.1243 70.4871 33.4706 71.8334 35.1256 71.8334H41.457C43.112 71.8334 44.4583 70.4871 44.4583 68.8321V65.8668C44.4585 64.212 43.1122 62.8655 41.4572 62.8655ZM42.3116 68.8323C42.3116 69.3035 41.9284 69.6868 41.4572 69.6868H35.1256C34.6544 69.6868 34.2711 69.3033 34.2711 68.8323V65.867C34.2711 65.3958 34.6544 65.0126 35.1256 65.0126H41.457C41.9282 65.0126 42.3114 65.396 42.3114 65.867V68.8323H42.3116Z" fill="black"/>
<path d="M41.4572 73.339H35.1256C33.4706 73.339 32.1243 74.6853 32.1243 76.3403V79.3056C32.1243 80.9606 33.4706 82.3069 35.1256 82.3069H41.457C43.112 82.3069 44.4583 80.9606 44.4583 79.3056V76.3403C44.4585 74.6853 43.1122 73.339 41.4572 73.339ZM42.3116 79.3056C42.3116 79.7768 41.9284 80.1601 41.4572 80.1601H35.1256C34.6544 80.1601 34.2711 79.7766 34.2711 79.3056V76.3403C34.2711 75.8691 34.6544 75.4859 35.1256 75.4859H41.457C41.9282 75.4859 42.3114 75.8693 42.3114 76.3403V79.3056H42.3116Z" fill="black"/>
<path d="M55.9295 42.4843H49.5981C47.9431 42.4843 46.5968 43.8306 46.5968 45.4856V48.4509C46.5968 50.1059 47.9431 51.4522 49.5981 51.4522H55.9295C57.5845 51.4522 58.9308 50.1059 58.9308 48.4509V45.4856C58.9308 43.8308 57.5845 42.4843 55.9295 42.4843ZM56.784 48.4511C56.784 48.9223 56.4007 49.3055 55.9295 49.3055H49.5981C49.1269 49.3055 48.7437 48.9221 48.7437 48.4511V45.4858C48.7437 45.0146 49.1269 44.6314 49.5981 44.6314H55.9295C56.4007 44.6314 56.784 45.0148 56.784 45.4858V48.4511Z" fill="black"/>
<path d="M55.9295 52.675H49.5981C47.9431 52.675 46.5968 54.0214 46.5968 55.6764V58.6417C46.5968 60.2967 47.9431 61.643 49.5981 61.643H55.9295C57.5845 61.643 58.9308 60.2967 58.9308 58.6417V55.6764C58.9308 54.0216 57.5845 52.675 55.9295 52.675ZM56.784 58.6417C56.784 59.1129 56.4007 59.4961 55.9295 59.4961H49.5981C49.1269 59.4961 48.7437 59.1127 48.7437 58.6417V55.6764C48.7437 55.2051 49.1269 54.8219 49.5981 54.8219H55.9295C56.4007 54.8219 56.784 55.2054 56.784 55.6764V58.6417Z" fill="black"/>
<path d="M55.9295 62.8655H49.5981C47.9431 62.8655 46.5968 64.2118 46.5968 65.8668V68.8321C46.5968 70.4871 47.9431 71.8334 49.5981 71.8334H55.9295C57.5845 71.8334 58.9308 70.4871 58.9308 68.8321V65.8668C58.9308 64.212 57.5845 62.8655 55.9295 62.8655ZM56.784 68.8323C56.784 69.3035 56.4007 69.6868 55.9295 69.6868H49.5981C49.1269 69.6868 48.7437 69.3033 48.7437 68.8323V65.867C48.7437 65.3958 49.1269 65.0126 49.5981 65.0126H55.9295C56.4007 65.0126 56.784 65.396 56.784 65.867V68.8323Z" fill="black"/>
<path d="M55.9295 73.339H49.5981C47.9431 73.339 46.5968 74.6853 46.5968 76.3403V79.3056C46.5968 80.9606 47.9431 82.3069 49.5981 82.3069H55.9295C57.5845 82.3069 58.9308 80.9606 58.9308 79.3056V76.3403C58.9308 74.6853 57.5845 73.339 55.9295 73.339ZM56.784 79.3056C56.784 79.7768 56.4007 80.1601 55.9295 80.1601H49.5981C49.1269 80.1601 48.7437 79.7766 48.7437 79.3056V76.3403C48.7437 75.8691 49.1269 75.4859 49.5981 75.4859H55.9295C56.4007 75.4859 56.784 75.8693 56.784 76.3403V79.3056Z" fill="black"/>
<path d="M70.402 42.4843H64.0707C62.4156 42.4843 61.0693 43.8306 61.0693 45.4856V48.4509C61.0693 50.1059 62.4156 51.4522 64.0707 51.4522H70.402C72.0571 51.4522 73.4034 50.1059 73.4034 48.4509V45.4856C73.4034 43.8308 72.0571 42.4843 70.402 42.4843ZM71.2565 48.4511C71.2565 48.9223 70.8733 49.3055 70.402 49.3055H64.0707C63.5994 49.3055 63.2162 48.9221 63.2162 48.4511V45.4858C63.2162 45.0146 63.5994 44.6314 64.0707 44.6314H70.402C70.8733 44.6314 71.2565 45.0148 71.2565 45.4858V48.4511Z" fill="black"/>
<path d="M70.402 52.675H64.0707C62.4156 52.675 61.0693 54.0214 61.0693 55.6764V58.6417C61.0693 60.2967 62.4156 61.643 64.0707 61.643H70.402C72.0571 61.643 73.4034 60.2967 73.4034 58.6417V55.6764C73.4034 54.0216 72.0571 52.675 70.402 52.675ZM71.2565 58.6417C71.2565 59.1129 70.8733 59.4961 70.402 59.4961H64.0707C63.5994 59.4961 63.2162 59.1127 63.2162 58.6417V55.6764C63.2162 55.2051 63.5994 54.8219 64.0707 54.8219H70.402C70.8733 54.8219 71.2565 55.2054 71.2565 55.6764V58.6417Z" fill="black"/>
<path d="M70.402 62.8655H64.0707C62.4156 62.8655 61.0693 64.2118 61.0693 65.8668V68.8321C61.0693 70.4871 62.4156 71.8334 64.0707 71.8334H70.402C72.0571 71.8334 73.4034 70.4871 73.4034 68.8321V65.8668C73.4034 64.212 72.0571 62.8655 70.402 62.8655ZM71.2565 68.8323C71.2565 69.3035 70.8733 69.6868 70.402 69.6868H64.0707C63.5994 69.6868 63.2162 69.3033 63.2162 68.8323V65.867C63.2162 65.3958 63.5994 65.0126 64.0707 65.0126H70.402C70.8733 65.0126 71.2565 65.396 71.2565 65.867V68.8323Z" fill="black"/>
<path d="M70.402 73.339H64.0707C62.4156 73.339 61.0693 74.6853 61.0693 76.3403V79.3056C61.0693 80.9606 62.4156 82.3069 64.0707 82.3069H70.402C72.0571 82.3069 73.4034 80.9606 73.4034 79.3056V76.3403C73.4034 74.6853 72.0571 73.339 70.402 73.339ZM71.2565 79.3056C71.2565 79.7768 70.8733 80.1601 70.402 80.1601H64.0707C63.5994 80.1601 63.2162 79.7766 63.2162 79.3056V76.3403C63.2162 75.8691 63.5994 75.4859 64.0707 75.4859H70.402C70.8733 75.4859 71.2565 75.8693 71.2565 76.3403V79.3056Z" fill="black"/>
<path d="M84.8745 42.4843H78.5431C76.8881 42.4843 75.5417 43.8306 75.5417 45.4856V48.4509C75.5417 50.1059 76.8881 51.4522 78.5431 51.4522H84.8745C86.5295 51.4522 87.8758 50.1059 87.8758 48.4509V45.4856C87.8758 43.8308 86.5295 42.4843 84.8745 42.4843ZM85.7289 48.4511C85.7289 48.9223 85.3457 49.3055 84.8745 49.3055H78.5431C78.0719 49.3055 77.6886 48.9221 77.6886 48.4511V45.4858C77.6886 45.0146 78.0719 44.6314 78.5431 44.6314H84.8745C85.3457 44.6314 85.7289 45.0148 85.7289 45.4858V48.4511Z" fill="black"/>
<path d="M84.8745 52.675H78.5431C76.8881 52.675 75.5417 54.0214 75.5417 55.6764V58.6417C75.5417 60.2967 76.8881 61.643 78.5431 61.643H84.8745C86.5295 61.643 87.8758 60.2967 87.8758 58.6417V55.6764C87.8758 54.0216 86.5295 52.675 84.8745 52.675ZM85.7289 58.6417C85.7289 59.1129 85.3457 59.4961 84.8745 59.4961H78.5431C78.0719 59.4961 77.6886 59.1127 77.6886 58.6417V55.6764C77.6886 55.2051 78.0719 54.8219 78.5431 54.8219H84.8745C85.3457 54.8219 85.7289 55.2054 85.7289 55.6764V58.6417Z" fill="black"/>
<path d="M84.8745 62.8655H78.5431C76.8881 62.8655 75.5417 64.2118 75.5417 65.8668V68.8321C75.5417 70.4871 76.8881 71.8334 78.5431 71.8334H84.8745C86.5295 71.8334 87.8758 70.4871 87.8758 68.8321V65.8668C87.8758 64.212 86.5295 62.8655 84.8745 62.8655ZM85.7289 68.8323C85.7289 69.3035 85.3457 69.6868 84.8745 69.6868H78.5431C78.0719 69.6868 77.6886 69.3033 77.6886 68.8323V65.867C77.6886 65.3958 78.0719 65.0126 78.5431 65.0126H84.8745C85.3457 65.0126 85.7289 65.396 85.7289 65.867V68.8323Z" fill="black"/>
<path d="M84.8745 73.339H78.5431C76.8881 73.339 75.5417 74.6853 75.5417 76.3403V79.3056C75.5417 80.9606 76.8881 82.3069 78.5431 82.3069H84.8745C86.5295 82.3069 87.8758 80.9606 87.8758 79.3056V76.3403C87.8758 74.6853 86.5295 73.339 84.8745 73.339ZM85.7289 79.3056C85.7289 79.7768 85.3457 80.1601 84.8745 80.1601H78.5431C78.0719 80.1601 77.6886 79.7766 77.6886 79.3056V76.3403C77.6886 75.8691 78.0719 75.4859 78.5431 75.4859H84.8745C85.3457 75.4859 85.7289 75.8693 85.7289 76.3403V79.3056Z" fill="black"/>
<path d="M87.3702 9H32.6301C27.32 9 23 13.32 23 18.6301V81.8012C23 87.1113 27.32 91.4312 32.6301 91.4312H87.3702C92.6801 91.4312 97 87.1113 97 81.8012V18.6301C97 13.32 92.6801 9 87.3702 9ZM93.7797 81.8012C93.7797 85.3354 90.9042 88.2109 87.3702 88.2109H32.6301C29.0956 88.2109 26.2203 85.3354 26.2203 81.8012V18.6301C26.2203 15.0956 29.0956 12.2203 32.6301 12.2203H87.3702C90.9044 12.2203 93.7797 15.0956 93.7797 18.6301V81.8012Z" fill="black"/>
<path d="M87.3701 38.1906H32.63C29.9836 38.1906 27.8304 40.3437 27.8304 42.9901V81.8012C27.8304 84.4477 29.9836 86.6008 32.63 86.6008H87.3701C90.0166 86.6008 92.1695 84.4477 92.1695 81.8012V42.9901C92.1695 40.3437 90.0166 38.1906 87.3701 38.1906ZM90.0226 81.8012C90.0226 83.2639 88.8326 84.4539 87.3701 84.4539H32.63C31.1673 84.4539 29.9773 83.2639 29.9773 81.8012V42.9901C29.9773 41.5275 31.1673 40.3374 32.63 40.3374H87.3701C88.8328 40.3374 90.0226 41.5275 90.0226 42.9901V81.8012Z" fill="black"/>
<path d="M87.3701 13.8202H32.63C29.9836 13.8202 27.8304 15.9733 27.8304 18.6198V31.2542C27.8304 33.9008 29.9836 36.0537 32.63 36.0537H87.3701C90.0166 36.0537 92.1695 33.9006 92.1695 31.2542V18.6198C92.1695 15.9733 90.0166 13.8202 87.3701 13.8202ZM90.0226 31.2542C90.0226 32.7168 88.8326 33.9068 87.3701 33.9068H32.63C31.1673 33.9068 29.9773 32.7168 29.9773 31.2542V18.6198C29.9773 17.1571 31.1673 15.9671 32.63 15.9671H87.3701C88.8328 15.9671 90.0226 17.1571 90.0226 18.6198V31.2542Z" fill="black"/>
<path d="M86.8023 18.1139H33.1977C32.6047 18.1139 32.1243 18.5946 32.1243 19.1873V30.6865C32.1243 31.2792 32.6047 31.7599 33.1977 31.7599H86.8025C87.3955 31.7599 87.876 31.2792 87.876 30.6865V19.1873C87.8758 18.5946 87.3953 18.1139 86.8023 18.1139ZM85.7289 29.613H34.2711V20.2608H85.7291V29.613H85.7289Z" fill="black"/>
<path d="M79.8631 27.8663H83.0729C83.5472 27.8663 83.9317 27.4818 83.9317 27.0076V22.8664C83.9317 22.3922 83.5472 22.0077 83.0729 22.0077H79.8631C79.3889 22.0077 79.0044 22.3922 79.0044 22.8664V27.0076C79.0044 27.4818 79.3889 27.8663 79.8631 27.8663ZM80.7219 23.7252H82.2142V26.1488H80.7219V23.7252Z" fill="black"/>
</svg>
