<svg width="120" height="100" viewBox="0 0 120 100" fill="none" xmlns="http://www.w3.org/2000/svg">
<rect width="120" height="100" fill="white"/>
<path d="M89.9451 21.6579V21.2691C89.9451 20.3924 89.6045 19.571 88.9887 18.9585C88.3708 18.3404 87.5494 18 86.676 18C84.8734 18 83.4069 19.4666 83.4069 21.2691V21.6579H76.6541V21.2691C76.6541 20.3924 76.3135 19.571 75.6976 18.9585C75.0798 18.3404 74.2584 18 73.385 18C71.5824 18 70.1159 19.4666 70.1159 21.2691V21.6579H63.3631V21.2691C63.3631 20.3926 63.0227 19.5712 62.4066 18.9583C61.7884 18.3402 60.9672 18 60.094 18C58.2915 18 56.8249 19.4666 56.8249 21.2691V21.6579H50.0719V21.2691C50.0719 20.3926 49.7313 19.571 49.1154 18.9583C48.4974 18.3402 47.6762 18 46.8028 18C45.0003 18 43.5337 19.4666 43.5337 21.2691V21.6579H36.7809V21.2691C36.7809 20.3926 36.4403 19.571 35.8244 18.9583C35.2064 18.3402 34.3852 18 33.512 18C31.7095 18 30.2429 19.4666 30.2429 21.2691V21.6579H23.676V22.8814L19 78.0847H23.676V81H100.51V21.6579H89.9451ZM85.9622 21.2691C85.9622 20.8756 86.2823 20.5554 86.6758 20.5554C86.8666 20.5554 87.046 20.6299 87.1838 20.7679C87.3165 20.8998 87.3895 21.0778 87.3895 21.2693V21.6581H85.9622V21.2691ZM72.6711 21.2691C72.6711 20.8756 72.9913 20.5554 73.3848 20.5554C73.6292 20.5554 73.7946 20.6695 73.8928 20.7679C74.0255 20.8998 74.0985 21.0778 74.0985 21.2693V21.6581H72.6711V21.2691ZM59.3801 21.2691C59.3801 20.8756 59.7003 20.5554 60.0938 20.5554C60.3384 20.5554 60.5038 20.6695 60.6018 20.7675C60.7345 20.8995 60.8075 21.0776 60.8075 21.2691V21.6579H59.3801V21.2691ZM46.0891 21.2691C46.0891 20.8756 46.4093 20.5554 46.8028 20.5554C47.0472 20.5554 47.2127 20.6695 47.3108 20.7677C47.4435 20.8997 47.5165 21.0778 47.5165 21.2693V21.6581H46.0891V21.2691ZM32.7981 21.2691C32.7981 20.8756 33.1182 20.5554 33.5118 20.5554C33.7562 20.5554 33.9217 20.6695 34.0197 20.7677C34.1524 20.8997 34.2255 21.0778 34.2255 21.2693V21.6581H32.7981V21.2691ZM21.781 75.5293L23.676 53.1578V75.5293H21.781ZM97.9552 78.4446H26.2314V24.2133H34.2253V25.8728C32.8503 26.3916 31.8677 27.7173 31.8677 29.2717C31.8677 31.276 33.4984 32.9069 35.503 32.9069C37.5075 32.9069 39.1382 31.2762 39.1382 29.2717C39.1382 27.7175 38.1559 26.3916 36.7807 25.8728V24.2133H47.5163V25.8728C46.1413 26.3916 45.1588 27.7173 45.1588 29.2717C45.1588 31.276 46.7895 32.9069 48.794 32.9069C50.7983 32.9069 52.4291 31.2762 52.4291 29.2717C52.4291 27.7175 51.4467 26.3918 50.0717 25.873V24.2135H60.8073V25.873C59.4323 26.3918 58.4498 27.7175 58.4498 29.2719C58.4498 31.2762 60.0805 32.9071 62.085 32.9071C64.0895 32.9071 65.7201 31.2764 65.7201 29.2719C65.7201 27.7177 64.7377 26.3919 63.3627 25.873V24.2135H74.0983V25.873C72.7233 26.3918 71.7408 27.7175 71.7408 29.2719C71.7408 31.2762 73.3717 32.9071 75.376 32.9071C77.3804 32.9071 79.0111 31.2764 79.0111 29.2719C79.0111 27.7177 78.0287 26.3919 76.6537 25.873V24.2135H87.3893V25.873C86.0144 26.3918 85.0318 27.7175 85.0318 29.2719C85.0318 31.2762 86.6627 32.9071 88.667 32.9071C90.6714 32.9071 92.3021 31.2764 92.3021 29.2719C92.3021 27.7177 91.3197 26.3919 89.9447 25.873V24.2135H97.9548V78.4446H97.9552ZM36.5828 29.2717C36.5828 29.8671 36.0984 30.3515 35.503 30.3515C34.9076 30.3515 34.4231 29.8671 34.4231 29.2717C34.4231 28.6763 34.9076 28.192 35.503 28.192C36.0984 28.192 36.5828 28.6763 36.5828 29.2717ZM49.8738 29.2717C49.8738 29.8671 49.3896 30.3515 48.7942 30.3515C48.1988 30.3515 47.7143 29.8671 47.7143 29.2717C47.7143 28.6763 48.1988 28.192 48.7942 28.192C49.3896 28.192 49.8738 28.6763 49.8738 29.2717ZM63.1649 29.2717C63.1649 29.8671 62.6806 30.3515 62.0852 30.3515C61.4898 30.3515 61.0055 29.8671 61.0055 29.2717C61.0055 28.6763 61.4898 28.192 62.0852 28.192C62.6806 28.192 63.1649 28.6763 63.1649 29.2717ZM76.4559 29.2717C76.4559 29.8671 75.9716 30.3515 75.3762 30.3515C74.7808 30.3515 74.2964 29.8671 74.2964 29.2717C74.2964 28.6763 74.7808 28.192 75.3762 28.192C75.9716 28.192 76.4559 28.6763 76.4559 29.2717ZM89.7471 29.2717C89.7471 29.8671 89.2628 30.3515 88.6674 30.3515C88.072 30.3515 87.5876 29.8671 87.5876 29.2717C87.5876 28.6763 88.072 28.192 88.6674 28.192C89.2628 28.192 89.7471 28.6763 89.7471 29.2717Z" fill="black"/>
<path d="M31.0913 73.5215H93.0952V38.0782H31.0913V73.5215ZM33.6467 40.6337H90.5398V70.9661H33.6467V40.6337Z" fill="black"/>
<path d="M40.0072 43.7528H35.9916V47.7684H40.0072V43.7528Z" fill="black"/>
<path d="M47.5365 43.7528H43.5209V47.7684H47.5365V43.7528Z" fill="black"/>
<path d="M55.0659 43.7528H51.0503V47.7684H55.0659V43.7528Z" fill="black"/>
<path d="M62.5952 43.7528H58.5796V47.7684H62.5952V43.7528Z" fill="black"/>
<path d="M70.1246 43.7528H66.109V47.7684H70.1246V43.7528Z" fill="black"/>
<path d="M88.1951 43.7528H84.1794V47.7684H88.1951V43.7528Z" fill="black"/>
<path d="M81.0764 43.7528H77.0608V47.7684H81.0764V43.7528Z" fill="black"/>
<path d="M40.0072 50.4456H35.9916V54.4612H40.0072V50.4456Z" fill="black"/>
<path d="M47.5365 50.4456H43.5209V54.4612H47.5365V50.4456Z" fill="black"/>
<path d="M55.0659 50.4456H51.0503V54.4612H55.0659V50.4456Z" fill="black"/>
<path d="M62.5952 50.4456H58.5796V54.4612H62.5952V50.4456Z" fill="black"/>
<path d="M70.1246 50.4456H66.109V54.4612H70.1246V50.4456Z" fill="black"/>
<path d="M88.1951 50.4456H84.1794V54.4612H88.1951V50.4456Z" fill="black"/>
<path d="M81.0764 50.4456H77.0608V54.4612H81.0764V50.4456Z" fill="black"/>
<path d="M40.0072 57.1382H35.9916V61.1538H40.0072V57.1382Z" fill="black"/>
<path d="M47.5365 57.1382H43.5209V61.1538H47.5365V57.1382Z" fill="black"/>
<path d="M55.0659 57.1382H51.0503V61.1538H55.0659V57.1382Z" fill="black"/>
<path d="M62.5952 57.1382H58.5796V61.1538H62.5952V57.1382Z" fill="black"/>
<path d="M70.1246 57.1382H66.109V61.1538H70.1246V57.1382Z" fill="black"/>
<path d="M88.1951 57.1382H84.1794V61.1538H88.1951V57.1382Z" fill="black"/>
<path d="M81.0764 57.1382H77.0608V61.1538H81.0764V57.1382Z" fill="black"/>
<path d="M40.0072 63.8309H35.9916V67.8466H40.0072V63.8309Z" fill="black"/>
<path d="M47.5365 63.8309H43.5209V67.8466H47.5365V63.8309Z" fill="black"/>
<path d="M55.0659 63.8309H51.0503V67.8466H55.0659V63.8309Z" fill="black"/>
<path d="M62.5952 63.8309H58.5796V67.8466H62.5952V63.8309Z" fill="black"/>
<path d="M70.1246 63.8309H66.109V67.8466H70.1246V63.8309Z" fill="black"/>
<path d="M88.1951 63.8309H84.1794V67.8466H88.1951V63.8309Z" fill="black"/>
<path d="M81.0764 63.8309H77.0608V67.8466H81.0764V63.8309Z" fill="black"/>
</svg>
