<svg width="120" height="100" viewBox="0 0 120 100" fill="none" xmlns="http://www.w3.org/2000/svg">
<rect width="120" height="100" fill="white"/>
<path d="M93.4986 65.6721C93.7958 66.2293 93.9767 66.9194 93.985 67.5514C94.0307 71.1187 94.0079 74.688 94.0058 78.2553C94.0058 79.6668 93.6628 80.0222 92.27 80.0721C91.2181 80.1096 90.8127 80.4588 90.5944 81.5398C92.2242 81.5398 93.8478 81.5398 95.5649 81.5398C95.6418 80.544 95.7271 79.5628 95.7936 78.5796C96.1262 73.6132 96.465 68.6469 96.7665 63.6786C96.7873 63.3355 96.6002 62.9385 96.4089 62.6308C95.5836 61.2962 94.5276 60.0822 94.3072 58.4482C94.2324 57.9036 94.1846 57.3485 94.1825 56.7997C94.1721 52.7065 94.0245 48.605 94.2199 44.5201C94.4195 40.3729 92.7086 37.2547 89.6943 34.6852C88.4117 33.5918 87.0792 32.5503 85.6967 31.5878C82.7968 29.5672 80.2565 27.1682 77.8554 24.5863C76.4876 23.1145 74.9804 21.7612 73.4483 20.4599C72.4131 19.5805 71.093 19.2812 69.7376 19.2188C68.1453 19.146 66.9229 19.8861 66.0914 21.1438C63.8213 24.5738 60.6303 26.9686 57.2917 29.2179C55.5725 30.3758 53.8554 31.54 52.1259 32.6833C50.205 33.9556 48.7935 35.6249 47.9121 37.7702C46.671 40.7928 44.5485 41.878 41.0312 41.3811C38.4347 41.0132 36.0295 38.5414 35.7468 35.918C35.6657 35.1779 35.6242 34.4295 35.6221 33.6853C35.6096 30.3114 35.62 26.9354 35.6138 23.5615C35.6138 22.9025 35.751 22.2705 34.9402 21.8132C34.2958 21.4515 34.4725 20.5077 35.171 19.9006C35.9568 19.2188 36.7654 18.564 37.6261 17.8426C36.6511 17.2876 35.7822 17.4809 34.9194 17.8114C34.5328 17.959 34.1752 18.2397 33.7823 18.2916C33.3811 18.3436 32.8614 18.3145 32.5558 18.0962C31.5559 17.379 29.9739 17.3229 28.9283 18.0879C28.9054 18.1045 28.8805 18.1191 28.8659 18.142C27.3338 20.3705 24.912 20.5118 22.565 20.8257C21.5277 20.965 20.4987 21.1937 19.9831 22.2206C19.6796 22.8276 19.559 23.5261 19.3013 24.3639C19.8896 24.3639 20.2118 24.3639 20.534 24.3639C23.5213 24.3639 26.5085 24.3597 29.4958 24.366C31.0133 24.368 31.3501 24.7069 31.3522 26.2265C31.3563 29.6295 31.3875 33.0326 31.3439 36.4335C31.2919 40.5745 33.0797 43.7884 36.2437 46.2954C39.4534 48.8358 43.1994 49.9438 47.2365 50.1932C47.9266 50.2369 48.623 50.2369 49.3028 50.3388C50.4524 50.5092 51.2777 51.4343 51.3837 52.5943C51.4107 52.8957 51.4107 53.2013 51.4107 53.5069C51.4128 61.6954 51.4128 69.8818 51.4107 78.0702C51.4107 79.7728 51.232 79.962 49.5481 80.0721C48.6314 80.1324 48.2031 80.5378 48.0368 81.5315C49.6645 81.5315 51.286 81.5315 52.999 81.5315C53.1029 80.2156 53.2193 78.9038 53.3108 77.5921C53.8887 69.4286 54.4583 61.263 55.0341 53.0974C55.1339 51.69 55.2358 50.2847 55.348 48.8773C55.4208 47.9689 55.9176 47.4658 56.6764 47.5053C57.4393 47.5448 57.8655 48.077 57.826 49.0208C57.7823 50.0373 57.695 51.0539 57.616 52.2159C59.2583 52.1265 60.8403 52.1598 62.3807 51.9311C65.3264 51.4946 68.2492 50.9063 71.1824 50.3824C71.2905 50.3637 71.4007 50.3429 71.5088 50.3221C72.3902 50.1662 72.966 50.4676 73.1407 51.1724C73.3194 51.8916 72.9744 52.4862 72.1241 52.7003C70.4922 53.114 68.8521 53.5048 67.2015 53.8249C65.8232 54.091 64.4242 54.2428 62.9669 54.4569C63.0085 54.6918 63.0334 54.9038 63.0854 55.1076C63.6758 57.3797 64.208 59.6685 64.8773 61.9178C65.7567 64.8739 66.2411 67.8819 66.4427 70.9544C66.6922 74.7337 67.0352 78.5068 67.3345 82.2819C67.4385 83.5978 67.0227 84.0531 65.7006 84.0572C63.3224 84.0635 60.9421 84.0656 58.564 84.0572C57.1961 84.0531 56.7034 83.3775 57.1005 82.0824C57.2065 81.7394 57.3395 81.4047 57.4372 81.0596C57.9071 79.3841 58.803 78.1097 60.6948 77.669C59.8445 72.4553 58.6201 67.3789 56.8884 62.3918C56.7637 64.0444 56.6327 65.695 56.5163 67.3498C56.1629 72.3431 55.8199 77.3343 55.4603 82.3277C55.3563 83.7537 55.0113 84.0593 53.6122 84.0614C51.2881 84.0635 48.966 84.0676 46.6419 84.0593C45.1909 84.0552 44.7024 83.3733 45.168 81.9784C45.43 81.1947 45.7002 80.4089 46.0474 79.6605C46.4735 78.7417 47.2198 78.0952 48.1969 77.8499C48.833 77.6898 48.9515 77.3759 48.9286 76.8063C48.8912 75.8667 48.9182 74.925 48.9182 73.9854C48.9182 67.2645 48.9182 60.5416 48.9182 53.8208C48.9182 53.4965 48.9182 53.1701 48.9182 52.8084C47.6481 52.7045 46.4611 52.6608 45.2907 52.5007C40.3867 51.823 36.0212 50.0082 32.6099 46.2871C30.1153 43.566 28.8368 40.3542 28.8555 36.6393C28.8701 33.7082 28.8576 30.775 28.8576 27.8438C28.8576 27.5466 28.8576 27.2493 28.8576 26.8585C28.1259 26.8585 27.4939 26.8585 26.864 26.8585C24.7062 26.8585 22.5463 26.7982 20.3926 26.8793C18.8107 26.9375 17.659 26.4323 17 24.9584C17 24.2392 17 23.5199 17 22.8006C17.4303 21.3995 18.0165 20.0524 19.3719 19.3477C20.2825 18.8737 21.326 18.643 22.3239 18.354C22.7978 18.2168 23.3009 18.1648 23.7957 18.1233C24.9931 18.0235 25.9764 17.6098 26.8079 16.6618C27.8681 15.452 29.3378 15.0466 30.9239 15.0404C32.7492 15.032 34.5744 14.9884 36.3996 15.0029C38.0169 15.0154 39.3369 15.7077 40.3618 16.9425C40.9563 17.6597 40.8961 18.2771 40.2308 18.9153C40.1518 18.9922 40.0749 19.0795 39.9793 19.1315C38.3474 20.015 37.9899 21.3787 38.0585 23.1769C38.2019 26.9603 38.0896 30.7542 38.1063 34.5439C38.1187 37.5706 40.3202 39.4104 43.2971 38.9343C44.2139 38.7867 44.8812 38.3107 45.2948 37.4979C45.6441 36.8098 45.9206 36.0843 46.2802 35.4003C47.3342 33.3964 48.9037 31.8788 50.7518 30.592C54.107 28.2554 57.4684 25.923 60.7259 23.4554C61.8256 22.6239 62.7673 21.4868 63.5282 20.3227C66.715 15.4478 71.9329 16.111 75.5043 18.8488C76.4439 19.568 77.3482 20.3663 78.1298 21.2519C81.4248 24.9813 85.1043 28.2575 89.1975 31.093C91.3657 32.5939 93.3156 34.3776 94.7064 36.658C95.3051 37.6392 95.804 38.7057 96.1636 39.795C96.4068 40.533 96.7623 41.0215 97.4047 41.4248C99.6186 42.8197 100.689 44.8527 100.654 47.4762C100.633 48.9979 100.685 50.5196 100.639 52.0392C100.602 53.3198 100.718 54.4985 101.689 55.488C102.186 55.9952 102.049 56.6293 101.55 57.1199C101.055 57.6063 100.33 57.5585 99.7683 56.9972C98.7019 55.9308 98.1676 54.6294 98.1634 53.1202C98.1572 51.1848 98.1634 49.2474 98.1593 47.312C98.1551 46.0709 97.7851 44.9775 96.7415 44.0482C96.7103 44.3268 96.6667 44.5222 96.6667 44.7176C96.6625 48.8399 96.6729 52.9601 96.6584 57.0825C96.6542 58.1551 96.9536 59.1218 97.6271 59.9263C98.9783 61.5353 99.4045 63.2753 99.2049 65.4185C98.6707 71.1706 98.3859 76.9477 97.9951 82.7122C97.9327 83.6248 97.4795 84.051 96.544 84.0572C94.0266 84.0718 91.5091 84.076 88.9917 84.0572C87.84 84.0489 87.3203 83.3359 87.6571 82.2487C87.9107 81.4338 88.1955 80.623 88.526 79.8372C88.9709 78.7812 89.7962 78.091 90.8896 77.8021C91.4073 77.6649 91.5237 77.4341 91.5216 76.9435C91.5029 73.8731 91.6318 70.7964 91.4488 67.7364C91.3823 66.6201 90.5965 65.5474 90.0644 64.2773C89.9251 64.5828 89.8814 64.6286 89.8897 64.666C90.2993 66.5681 89.5696 68.2291 88.8482 69.9213C87.0501 74.1371 85.308 78.3779 83.5452 82.6083C82.9693 83.9886 82.8654 84.0614 81.4061 84.0614C79.5518 84.0614 77.6995 84.0697 75.8452 84.0593C74.4815 84.051 73.9867 83.3692 74.3942 82.0782C74.5854 81.4733 74.7767 80.8663 74.997 80.2696C75.5271 78.8332 76.552 77.9767 78.0488 77.6254C78.3502 77.5547 78.7244 77.2553 78.8325 76.9726C80.3708 72.9979 81.8156 68.9733 82.0713 64.6868C82.1752 62.9302 81.9528 61.0779 81.4809 59.3796C80.6618 56.4339 79.531 53.5755 78.5269 50.6818C78.5019 50.6111 78.4271 50.555 78.3481 50.4593C78.1236 50.5383 77.897 50.6256 77.6683 50.6984C76.9886 50.9187 76.4585 50.7088 76.1321 50.0872C75.8327 49.5155 76.078 48.8191 76.6954 48.4595C77.1466 48.1955 77.6455 48.0126 78.0987 47.7506C79.2462 47.0896 80.3978 46.4285 81.5058 45.7051C81.722 45.5637 81.8634 45.1209 81.8343 44.8382C81.7761 44.2395 81.5744 43.6553 81.4456 43.0608C81.2335 42.0713 81.5869 41.3707 82.3582 41.2294C83.1045 41.0922 83.6657 41.5537 83.8799 42.5099C84.4058 44.8548 84.8278 47.2268 85.4764 49.5363C85.9358 51.1703 86.5636 52.7876 87.3473 54.2948L93.4986 65.6721ZM77.263 81.5731C78.4333 81.5731 79.5372 81.5481 80.639 81.5855C81.1358 81.6022 81.3666 81.4255 81.5516 80.9743C83.4537 76.3552 85.3828 71.7485 87.2891 67.1315C87.4201 66.8113 87.4928 66.4392 87.4825 66.0941C87.4284 64.4082 87.2663 62.7244 87.2808 61.0405C87.2933 59.7413 86.9108 58.6353 86.258 57.5419C84.5804 54.7292 83.2001 51.7898 82.67 48.5156C82.6513 48.3971 82.5577 48.289 82.4767 48.129C81.8468 48.5135 81.2668 48.869 80.6473 49.2474C80.7845 49.5925 80.9113 49.8648 81.0048 50.1475C82.0484 53.2865 83.2042 56.3964 84.0815 59.5812C84.5285 61.2027 84.7114 62.978 84.595 64.6556C84.2561 69.5803 82.6305 74.1995 80.8406 78.7604C80.4831 79.673 79.9717 80.147 78.9323 80.0929C77.9469 80.041 77.5498 80.4443 77.263 81.5731ZM57.3375 54.7812C57.4185 55.3279 57.4019 55.9391 57.6035 56.4671C59.5847 61.633 61.1292 66.9215 62.2248 72.3431C62.6177 74.2909 62.9835 76.245 63.2974 78.2074C63.5178 79.5878 63.0958 80.0306 61.7134 80.0763C61.493 80.0846 61.2644 80.0825 61.0586 80.1491C60.3996 80.3611 60.0233 80.7997 60.0046 81.5169C61.6198 81.5169 63.1831 81.5169 64.763 81.5169C64.763 81.3506 64.7713 81.2404 64.7609 81.1323C64.4844 77.7459 64.2308 74.3575 63.9211 70.9731C63.7569 69.1895 63.6321 67.3872 63.2434 65.6472C62.6031 62.768 61.7716 59.9304 61.0024 57.0804C60.7841 56.2696 60.7322 55.145 60.1834 54.7625C59.6117 54.3613 58.5369 54.6793 57.6805 54.6856C57.6347 54.6835 57.5828 54.7126 57.3375 54.7812Z" fill="black"/>
<path d="M30.1153 21.6531C29.1881 21.6531 28.5957 21.1459 28.6206 20.3767C28.6456 19.6408 29.2318 19.1648 30.1153 19.1648C31.0341 19.1648 31.6328 19.6824 31.6079 20.4578C31.583 21.2 31.0154 21.6531 30.1153 21.6531Z" fill="black"/>
</svg>
