<svg width="120" height="100" viewBox="0 0 120 100" fill="none" xmlns="http://www.w3.org/2000/svg">
<rect width="120" height="100" fill="white"/>
<path d="M69.38 36.0972C58.4977 36.0972 49.6439 44.9508 49.6439 55.8333C49.6439 66.7158 58.4973 75.5693 69.38 75.5693C71.5678 75.5693 73.719 75.2127 75.7739 74.5094C76.5482 74.2445 76.9611 73.402 76.6962 72.6275C76.4312 71.8532 75.5887 71.4398 74.8142 71.7053C73.0689 72.3024 71.2407 72.6056 69.3802 72.6056C60.1321 72.6056 52.6081 65.0817 52.6081 55.8335C52.6081 46.5852 60.1321 39.0614 69.3802 39.0614C78.6284 39.0614 86.1523 46.5852 86.1523 55.8335C86.1523 61.1863 83.6861 66.0929 79.3861 69.2947C78.7297 69.7838 78.5937 70.712 79.0826 71.3684C79.5716 72.0247 80.4998 72.16 81.1562 71.6717C86.1403 67.9603 89.116 62.0393 89.116 55.8333C89.1161 44.9508 80.2623 36.0972 69.38 36.0972Z" fill="black"/>
<path d="M69.3799 41.9312C66.5669 41.9312 63.8557 42.7687 61.5396 44.3535C60.8641 44.8157 60.6911 45.7379 61.1533 46.4134C61.6155 47.0888 62.5377 47.2621 63.2132 46.7996C65.0342 45.5538 67.1667 44.8952 69.3797 44.8952C75.4109 44.8952 80.3177 49.802 80.3177 55.8332C80.3177 61.8644 75.4107 66.7711 69.3797 66.7711C63.3487 66.7711 58.4417 61.8644 58.4417 55.8332C58.4417 54.0234 58.8933 52.23 59.7474 50.6468C60.1363 49.9266 59.8676 49.0277 59.1471 48.6389C58.4273 48.2502 57.5278 48.519 57.1392 49.2393C56.0524 51.2533 55.4778 53.5333 55.4778 55.8332C55.4778 63.4986 61.7142 69.735 69.3797 69.735C77.0451 69.735 83.2815 63.4985 83.2815 55.8332C83.2815 48.1679 77.0451 41.9312 69.3799 41.9312Z" fill="black"/>
<path d="M33.0836 34.0254C29.2921 34.0254 26.2074 37.1098 26.2074 40.9016C26.2074 44.6934 29.2921 47.7778 33.0836 47.7778C36.8751 47.7778 39.9598 44.6934 39.9598 40.9016C39.9598 37.1098 36.8751 34.0254 33.0836 34.0254ZM33.0836 44.8138C30.9264 44.8138 29.1714 43.0586 29.1714 40.9016C29.1714 38.7446 30.9266 36.9894 33.0836 36.9894C35.2407 36.9894 36.9958 38.7446 36.9958 40.9016C36.9958 43.0586 35.2408 44.8138 33.0836 44.8138Z" fill="black"/>
<path d="M36.6236 66.2277H29.5437C27.1464 66.2277 25.196 68.1778 25.196 70.5753C25.196 72.9727 27.1466 74.9229 29.5437 74.9229H36.6236C39.0209 74.9229 40.971 72.9727 40.971 70.5753C40.971 68.1778 39.0209 66.2277 36.6236 66.2277ZM36.6236 71.959H29.5437C28.7808 71.959 28.1599 71.3381 28.1599 70.5753C28.1599 69.8124 28.7808 69.1915 29.5437 69.1915H36.6236C37.3864 69.1915 38.0072 69.8124 38.0072 70.5753C38.0072 71.3383 37.3866 71.959 36.6236 71.959Z" fill="black"/>
<path d="M94.2464 28.0088H93.8287C93.1485 28.0088 92.7169 27.1487 91.8941 25.1864C90.5273 21.9265 88.4614 17 80.9049 17H69.8844C62.3275 17 60.2619 21.9267 58.895 25.1866C58.0722 27.1489 57.6404 28.0088 56.9604 28.0088H49.9055V25.2375C49.9055 22.5544 47.7224 20.3713 45.0393 20.3713H36.468C33.7849 20.3713 31.6018 22.5544 31.6018 25.2375V28.0087H24.7539C20.4787 28.0089 17.0002 31.4872 17.0002 35.7628V47.3459C17.0002 48.1645 17.6637 48.8279 18.4822 48.8279C19.3006 48.8279 19.9642 48.1645 19.9642 47.3459V35.7628C19.9642 33.1216 22.1131 30.9729 24.7541 30.9729H88.9643C89.7828 30.9729 90.4463 30.3095 90.4463 29.4909C90.4463 28.6722 89.7828 28.0088 88.9643 28.0088H60.8802C61.1548 27.4615 61.3955 26.8877 61.6282 26.3326C62.9411 23.2015 64.2986 19.964 69.8842 19.964H80.9047C86.4903 19.964 87.8478 23.2017 89.1607 26.3326C89.3934 26.8879 89.6341 27.4617 89.9089 28.0088H84.8921C84.0736 28.0088 83.41 28.6722 83.41 29.4909C83.41 30.3095 84.0736 30.9729 84.8921 30.9729H94.2464C96.8877 30.9729 99.0363 33.1218 99.0363 35.7628V75.9031C99.0363 78.5443 96.8874 80.693 94.2464 80.693H24.7539C22.1128 80.693 19.964 78.5441 19.964 75.9031V43.2737C19.964 42.455 19.3005 41.7916 18.482 41.7916C17.6636 41.7916 17 42.455 17 43.2737V75.903C17 80.1785 20.4785 83.6567 24.7539 83.6567H94.2462C98.5218 83.6567 102 80.1782 102 75.903V35.7628C102 31.4872 98.5218 28.0088 94.2464 28.0088ZM46.9415 28.0087H34.5656V25.2375C34.5656 24.1885 35.4191 23.3353 36.4679 23.3353H45.0391C46.088 23.3353 46.9413 24.1885 46.9413 25.2375L46.9415 28.0087Z" fill="black"/>
</svg>
