<svg width="120" height="100" viewBox="0 0 120 100" fill="none" xmlns="http://www.w3.org/2000/svg">
<rect width="120" height="100" fill="white"/>
<path d="M24.7748 32.5367C25.1056 32.1912 25.4291 31.8402 25.7654 31.5039C29.1653 28.0948 32.5616 24.682 35.9762 21.2876C36.1985 21.0653 36.5459 20.9017 36.8583 20.8466C41.122 20.1059 45.3893 19.3892 49.6567 18.6706C49.8588 18.6376 50.0683 18.6431 50.2742 18.6431C56.7395 18.6412 63.2067 18.5953 69.6702 18.6761C71.2543 18.6964 72.8367 19.1135 74.4172 19.3745C77.3099 19.8505 80.2007 20.3338 83.0879 20.8429C83.4223 20.9017 83.7917 21.0763 84.0288 21.3115C87.6088 24.864 91.1705 28.4366 94.7376 32.002C95.3367 32.6011 95.3753 33.0826 94.8993 33.7607C92.4128 37.3058 89.9281 40.8527 87.4489 44.4015C86.9068 45.1771 86.3279 45.2689 85.5395 44.7011C83.7734 43.4275 82.0017 42.1649 80.2301 40.8968C80.1253 40.8215 80.0114 40.7572 79.8001 40.623C79.8001 40.9226 79.8001 41.1174 79.8001 41.3122C79.8074 48.7865 79.8203 56.2608 79.8221 63.735C79.8239 68.4802 79.8129 73.2254 79.8001 77.9705C79.7945 79.9517 78.3537 81.3705 76.3524 81.3705C65.4616 81.3723 54.5709 81.3723 43.6802 81.3705C41.5888 81.3705 40.1829 79.9664 40.1829 77.8805C40.1829 65.775 40.1829 53.6695 40.1847 41.564C40.1847 41.292 40.1847 41.0218 40.1847 40.6634C39.9881 40.7719 39.8502 40.8325 39.7308 40.9189C37.9591 42.1833 36.1875 43.4495 34.4214 44.7194C33.6477 45.2763 33.0725 45.1642 32.5174 44.3739C29.9409 40.7002 27.3569 37.032 24.7748 33.3619C24.7748 33.0862 24.7748 32.8106 24.7748 32.5367ZM92.4587 32.9484C92.354 32.7922 92.3264 32.7316 92.2823 32.6856C89.1397 29.5375 85.9989 26.3893 82.8434 23.2541C82.6652 23.0777 82.384 22.9527 82.1322 22.9086C79.4711 22.4455 76.8045 21.9989 74.1397 21.5541C73.0848 21.3777 72.0299 21.216 70.975 21.0487C69.9109 27.5453 64.6622 30.6677 60.1578 30.7541C55.8592 30.8368 50.1418 27.9331 49.0079 21.0984C48.9013 21.0984 48.7874 21.0837 48.679 21.1002C45.0181 21.703 41.359 22.3076 37.7 22.9178C37.5695 22.9398 37.4188 22.9876 37.3288 23.074C36.6286 23.7466 35.9431 24.4321 35.1198 25.2426C35.5443 25.2426 35.7667 25.2426 35.989 25.2426C38.878 25.2426 41.767 25.2352 44.656 25.2462C46.3339 25.2518 47.7233 26.4886 47.9108 28.1077C48.1111 29.8297 47.115 31.3073 45.4426 31.7263C45.0714 31.82 44.6744 31.8366 44.2885 31.8402C42.9009 31.8531 41.5134 31.8457 40.1057 31.8457C40.7452 34.6649 38.6942 36.4071 36.4062 36.273C34.3497 36.1535 32.2804 36.2472 30.2184 36.2491C30.0291 36.2491 29.8398 36.2766 29.5696 36.2969C31.027 38.3772 32.4274 40.3749 33.8535 42.4112C36.0864 40.8141 38.2513 39.2778 40.3997 37.7156C40.8426 37.394 41.2672 37.2102 41.7872 37.4583C42.3257 37.7175 42.3956 38.1916 42.3937 38.7301C42.3809 41.3214 42.3882 43.9108 42.3882 46.5021C42.3882 46.7429 42.3882 46.9836 42.3882 47.2519C42.7447 47.2519 42.9965 47.2519 43.2465 47.2519C46.617 47.2519 49.9875 47.2446 53.358 47.2556C55.5063 47.2629 57.0207 49.1301 56.6145 51.2399C56.5906 51.3612 56.587 51.4862 56.5704 51.6553C56.9949 51.6553 57.3607 51.6534 57.7245 51.6553C59.6083 51.6681 61.0803 53.0979 61.0932 54.9265C61.1061 56.7845 59.6267 58.2492 57.7117 58.2566C55.7397 58.2639 53.7678 58.2584 51.7958 58.2584C51.5551 58.2584 51.3143 58.2584 51.0644 58.2584C51.0736 58.4165 51.0699 58.4863 51.0828 58.5525C51.5294 60.8424 50.0371 62.6544 47.6976 62.6599C46.8485 62.6618 46.0013 62.6599 45.1522 62.6599C44.2444 62.6599 43.3365 62.6599 42.4415 62.6599C42.4415 67.1166 42.4415 71.4795 42.4415 75.8369C47.2804 75.8369 52.0642 75.8369 56.8553 75.8369C56.8479 75.734 56.8571 75.6623 56.8387 75.598C56.2764 73.6297 57.8238 71.3527 60.4077 71.4446C63.0174 71.5365 65.6344 71.4648 68.2477 71.4648C68.4848 71.4648 68.7219 71.4648 68.9001 71.4648C68.9001 70.6856 68.9001 70.0037 68.9001 69.2631C67.8728 69.2631 66.7995 69.2649 65.7263 69.2631C63.7415 69.2576 62.24 67.8388 62.2363 65.9643C62.2326 64.0897 63.7323 62.6618 65.7153 62.6618C69.4294 62.6599 73.1436 62.6618 76.8578 62.6618C77.0985 62.6618 77.3374 62.6618 77.5616 62.6618C77.5616 57.8376 77.5616 53.1237 77.5616 48.3546C77.2749 48.3546 77.0268 48.3546 76.7787 48.3546C73.7519 48.3546 70.7269 48.3601 67.7001 48.3528C66.0056 48.3472 64.5868 47.1269 64.3939 45.5373C64.177 43.7509 65.2007 42.2605 66.9411 41.8378C67.2204 41.7698 67.5108 41.7367 67.7276 41.7C67.7276 40.9722 67.7276 40.2922 67.7276 39.5516C67.5255 39.5516 67.2774 39.5516 67.0293 39.5516C64.7137 39.5516 62.398 39.5626 60.0824 39.5424C59.6561 39.5387 59.2095 39.4689 58.8088 39.3274C57.2945 38.7944 56.4399 37.2727 56.7027 35.6536C56.9563 34.0915 58.3512 32.9503 60.0365 32.9503C70.5376 32.9466 81.0369 32.9484 91.538 32.9484C91.8063 32.9484 92.0783 32.9484 92.4587 32.9484ZM86.1368 42.4112C87.8404 39.978 89.4962 37.6109 91.2201 35.1501C90.9095 35.1501 90.7496 35.1501 90.5916 35.1501C80.4874 35.1501 70.3814 35.1501 60.2772 35.1501C60.1173 35.1501 59.9538 35.1409 59.7976 35.1648C59.1305 35.2714 58.7133 35.8889 58.9007 36.5339C59.0919 37.1974 59.6101 37.3554 60.2405 37.3536C63.769 37.3462 67.2976 37.3481 70.8261 37.3518C71.5704 37.3518 72.0648 37.7836 72.0832 38.4232C72.0997 39.015 71.6531 39.4597 70.9474 39.5516C70.2564 39.6435 69.8687 40.0404 69.8723 40.6561C69.876 41.2736 70.2564 41.6522 70.9621 41.7477C71.6605 41.8415 72.1089 42.2991 72.0813 42.8908C72.0519 43.5249 71.5539 43.9457 70.8096 43.9513C69.7786 43.9568 68.7476 43.9347 67.7166 43.9586C66.8565 43.9788 66.3309 44.7213 66.6397 45.4601C66.8767 46.028 67.3619 46.1603 67.9335 46.1584C70.6368 46.1492 73.3402 46.1548 76.0455 46.1548C76.5435 46.1548 77.0397 46.1548 77.5984 46.1548C77.5984 45.8368 77.5984 45.5906 77.5984 45.3443C77.5984 43.1224 77.6057 40.8987 77.5929 38.6768C77.5892 38.1567 77.6848 37.7156 78.1865 37.4675C78.7029 37.2139 79.1311 37.3867 79.5758 37.7101C81.7224 39.2686 83.8891 40.805 86.1368 42.4112ZM42.4011 60.4546C44.2866 60.4546 46.1152 60.473 47.942 60.4436C48.5558 60.4344 48.9748 59.94 48.9785 59.3666C48.984 58.7932 48.5834 58.3613 47.9585 58.2658C47.0893 58.1335 46.7346 57.7696 46.7842 57.0602C46.8301 56.3931 47.2841 56.0586 48.1515 56.0586C51.2923 56.0568 54.4331 56.0623 57.5738 56.0549C58.3843 56.0531 58.8787 55.623 58.8824 54.9596C58.886 54.2925 58.3917 53.8643 57.5849 53.8588C56.2323 53.8514 54.8797 53.8606 53.527 53.8551C52.7864 53.8514 52.3362 53.4839 52.2884 52.8609C52.2351 52.179 52.6155 51.7582 53.3837 51.6534C54.0876 51.556 54.5194 51.0966 54.4809 50.4864C54.4386 49.8487 53.9644 49.4591 53.1797 49.4591C49.7412 49.4536 46.3009 49.4554 42.8624 49.4591C42.7117 49.4591 42.561 49.4959 42.3992 49.5179C42.4011 53.1567 42.4011 56.7533 42.4011 60.4546ZM77.5984 64.8634C77.3301 64.8634 77.1298 64.8634 76.9294 64.8634C73.241 64.8634 69.5526 64.8616 65.8641 64.8634C64.9562 64.8634 64.427 65.2861 64.4435 65.9827C64.46 66.6535 64.9765 67.0596 65.8421 67.0614C67.8802 67.0651 69.9201 67.0614 71.9582 67.0633C72.7393 67.0651 73.2024 67.4363 73.2465 68.0832C73.2906 68.7375 72.8845 69.162 72.1144 69.2668C71.4841 69.3513 71.0669 69.7648 71.0467 70.3235C71.0246 70.9024 71.4583 71.3619 72.1089 71.4611C72.3074 71.4923 72.5261 71.5107 72.6933 71.6063C73.1638 71.8764 73.3421 72.3083 73.2042 72.8339C73.0499 73.4239 72.6345 73.6683 72.0299 73.6683C68.2036 73.6609 64.3773 73.6646 60.5511 73.6646C60.3452 73.6646 60.1357 73.6481 59.9336 73.6756C59.3308 73.762 58.9706 74.1332 58.9504 74.7287C58.9301 75.3297 59.283 75.7119 59.8711 75.8387C60.0696 75.881 60.2809 75.8626 60.4867 75.8626C65.9395 75.8644 71.3922 75.8626 76.8449 75.8626C77.0856 75.8626 77.3264 75.8626 77.5947 75.8626C77.5947 75.6219 77.5947 75.4859 77.5947 75.3499C77.5984 71.8967 77.5984 68.4379 77.5984 64.8634ZM51.3199 20.8778C51.5863 24.3898 54.8686 28.5892 60.1449 28.5396C64.4692 28.4991 68.5987 24.7868 68.652 20.8778C62.8887 20.8778 57.1254 20.8778 51.3199 20.8778ZM27.2191 33.1726C27.6271 33.5071 27.9524 34.0051 28.2887 34.0125C31.174 34.0731 34.0612 34.0566 36.9483 34.0364C37.5787 34.0327 37.9977 33.5824 38.0271 33.0072C38.0584 32.3971 37.6596 31.945 37.0035 31.8513C36.2408 31.7428 35.7832 31.2999 35.8144 30.7008C35.8475 30.0484 36.3547 29.6477 37.1597 29.6459C39.6113 29.6441 42.0629 29.6514 44.5145 29.6404C45.2699 29.6367 45.7348 29.1901 45.7311 28.534C45.7275 27.8798 45.2607 27.4479 44.4998 27.4461C40.7875 27.4387 37.077 27.4387 33.3647 27.4516C33.157 27.4516 32.8887 27.5122 32.7508 27.6482C30.9443 29.4346 29.1543 31.2356 27.2191 33.1726ZM77.5653 78.1231C65.8274 78.1231 54.128 78.1231 42.4176 78.1231C42.6271 78.9832 42.8881 79.1706 43.8603 79.1706C52.2277 79.1706 60.597 79.1706 68.9645 79.1706C71.394 79.1706 73.8254 79.1743 76.255 79.1688C77.0948 79.167 77.3595 78.9538 77.5653 78.1231Z" fill="black"/>
<path d="M59.9446 24.1381C59.577 24.1381 59.2095 24.1639 58.8456 24.1326C58.206 24.0793 57.7705 23.5905 57.7962 22.995C57.8219 22.4217 58.2502 21.9769 58.8676 21.953C59.623 21.9255 60.3802 21.9236 61.1355 21.9549C61.7475 21.9806 62.1738 22.4455 62.1849 23.0171C62.1977 23.5868 61.7805 24.0499 61.1814 24.1326C61.1355 24.1381 61.0895 24.14 61.0436 24.14C60.676 24.14 60.3103 24.14 59.9428 24.14C59.9446 24.14 59.9446 24.1381 59.9446 24.1381Z" fill="black"/>
</svg>
