<svg width="120" height="100" viewBox="0 0 120 100" fill="none" xmlns="http://www.w3.org/2000/svg">
<rect width="120" height="100" fill="white"/>
<path d="M96.4365 64.7268H79.9374C80.5768 64.1557 81.2048 63.4726 81.7788 62.6527C84.4062 58.9192 85.2358 53.388 83.8529 46.6123C83.8529 46.1974 83.5763 45.7826 83.1615 45.6444C82.7467 45.5061 82.3318 45.5061 81.917 45.6444C80.6725 46.3358 76.939 47.7185 74.8647 46.3358C73.6202 45.5061 72.9287 43.7084 73.0671 40.8046C73.0671 39.8367 73.6202 37.9008 75.1413 36.2414C79.5662 31.2635 79.428 23.3815 75.0031 18.1269C74.3116 17.159 73.482 16.3293 72.5141 15.223C72.2375 14.8082 71.6844 14.67 71.2696 14.8082C70.8547 14.9464 70.4399 15.223 70.3017 15.6379C70.3017 15.6379 69.472 17.712 67.9509 19.3714C66.7064 20.7541 65.0471 20.6159 63.9408 20.0628C62.8345 19.5098 61.7283 18.2653 62.0049 16.4675C62.2815 14.5316 63.1111 12.4574 64.4939 9.96844C64.6321 9.69183 64.6321 9.13877 64.4939 8.72394C64.2172 8.30911 63.8024 8.0325 63.3876 8.0325C63.2494 8.0325 58.2712 7.47944 53.708 10.9363C50.8042 13.1489 49.1449 16.8824 49.5597 20.7541C49.6979 22.69 49.9745 24.3494 50.5276 25.7321C50.6658 26.2851 50.8042 26.9766 50.5276 27.668C50.3894 27.9446 49.9745 28.9125 48.0386 28.9125C47.9004 28.9125 47.762 28.9125 47.762 28.9125C47.762 28.9125 47.0706 29.0507 46.3793 28.4977C45.6878 27.8062 45.273 26.5617 45.273 24.7642C45.273 24.2111 44.9964 23.7963 44.5816 23.5197C44.1667 23.3815 43.6137 23.3815 43.1988 23.6579C42.9222 23.7961 38.4973 27.115 38.4973 31.9547C38.4973 35.2734 40.4332 38.3156 44.5816 41.2194C45.4112 41.6343 48.0386 43.5702 48.0386 45.5061V45.6444C48.1768 46.1974 48.1768 47.8569 47.3472 48.8248C46.9323 49.2396 46.2409 49.5163 45.273 49.5163C45.1348 49.5163 45.1348 49.5163 44.9964 49.5163C44.7198 49.5163 39.1887 50.3459 38.2207 45.0913C38.0825 44.5383 37.6676 44.1234 37.1144 43.985C36.5614 43.985 36.0081 44.1233 35.7317 44.6765C35.5935 45.0913 30.8919 53.1115 33.7957 59.8872C34.6369 61.85 36.0478 63.457 37.9722 64.727H24.5312C21.489 64.727 19 67.7692 19 71.6409C19 75.5128 21.489 78.5549 24.5312 78.5549H32.9463C32.8699 79.0051 32.828 79.4666 32.828 79.9376C32.828 84.5007 36.5615 88.2344 41.1248 88.2344C44.548 88.2344 47.504 86.1335 48.7676 83.1576L50.837 82.0915C51.2233 87.1158 55.3511 91 60.4841 91C65.5937 91 69.7074 87.1512 70.1259 82.16L72.2424 83.2503C73.5277 86.1765 76.4561 88.2344 79.843 88.2344C84.4062 88.2344 88.1398 84.5009 88.1398 79.9376C88.1398 79.4666 88.098 79.005 88.0215 78.5549H96.4366C99.4788 78.5549 101.968 75.5126 101.968 71.6409C101.968 67.769 99.4787 64.7268 96.4365 64.7268ZM36.2851 58.5043C34.9024 55.1857 35.8702 51.3138 36.8381 48.6866C39.0507 52.0052 43.0606 52.5585 45.4114 52.1436C47.4856 52.1436 48.7301 51.314 49.4215 50.4843C51.0808 48.5484 50.9426 45.7828 50.8042 45.2297C50.8042 41.3578 46.5175 38.8688 46.1027 38.5922C42.9222 36.3797 41.2629 34.0291 41.2629 31.6783C41.2629 30.019 42.0926 28.6361 42.9222 27.53C43.3371 28.7745 43.8901 29.7425 44.7198 30.4338C46.1025 31.6783 47.6236 31.5401 48.1768 31.5401C51.3573 31.5401 52.74 29.7425 53.1548 28.6362C53.7079 27.3917 53.7079 26.0089 53.1548 24.6261C52.74 23.3816 52.4634 21.9987 52.3252 20.3394C52.0485 17.4356 53.1548 14.67 55.3674 13.0107C57.4415 11.4895 59.5157 10.9365 61.0368 10.7981C60.0689 12.734 59.5157 14.5316 59.2393 16.1909C58.8244 18.9565 60.2071 21.4455 62.6963 22.69C65.1853 23.7963 68.0891 23.3815 69.8868 21.3073C70.7165 20.4776 71.408 19.5098 71.8228 18.6799C72.0994 19.0948 72.5142 19.3714 72.7907 19.7862C76.3859 24.0729 76.3859 30.2954 72.9289 34.3055C71.2696 36.2414 70.1633 38.5922 70.1633 40.6664C70.1633 44.5383 71.1312 47.1655 73.3437 48.5484C75.9711 50.2077 79.428 49.378 81.5022 48.6866C82.1936 53.9412 81.6404 58.0895 79.5662 60.9935C77.6303 63.8973 74.7264 64.5888 74.1734 64.727H66.7978C69.2265 61.8286 69.5076 57.659 67.3977 54.4944L60.4837 44.2617L53.5698 54.4944C51.296 57.7047 51.61 61.9499 54.1362 64.727H45.4114C40.71 63.7589 37.6678 61.6848 36.2851 58.5043ZM71.5462 79.7994L69.8868 78.9697L69.8674 78.9115C69.747 78.432 69.5916 77.9672 69.4036 77.5202L66.8446 69.8432L72.1206 71.8004L75.295 73.0096C73.2877 74.3345 71.8836 76.5054 71.6004 79.0045C71.5468 79.2674 71.5462 79.4967 71.5462 79.7994ZM64.2174 63.0675C62.5581 64.7268 60.4839 64.5886 60.4839 64.5886H60.3457C57.8567 64.5886 56.6122 63.2059 56.4738 63.0675C54.6763 61.27 54.3996 58.2277 55.9208 56.0152L60.4839 49.2395L64.7706 56.0152C66.2916 58.2277 66.0151 61.27 64.2174 63.0675ZM57.2363 68.5239C57.5074 68.2799 57.7183 67.8867 57.7183 67.4924H60.3457H60.7605H63.2495C63.2495 67.769 63.3533 68.0455 63.5088 68.2702L64.9981 72.7383C63.6541 72.0376 62.1207 71.6408 60.4839 71.6408C58.7789 71.6408 57.1854 72.0703 55.802 72.8266L57.2363 68.5239ZM21.7658 71.6409C21.7658 69.4285 23.0103 67.4926 24.5314 67.4926C26.0525 67.4926 27.297 69.4285 27.297 71.6409C27.297 73.8535 26.0525 75.7893 24.5314 75.7893C23.0103 75.7893 21.7658 73.8533 21.7658 71.6409ZM33.9343 75.7893H28.9664C29.5654 74.7887 29.9509 73.5731 30.0408 72.2404C30.0431 72.2075 30.0448 72.1744 30.0468 72.1413C30.0502 72.0795 30.054 72.0177 30.0562 71.9553C30.0601 71.8505 30.0624 71.7457 30.0624 71.6408C30.0624 71.5358 30.06 71.431 30.0562 71.3263C30.054 71.264 30.0502 71.2022 30.0468 71.1403C30.0448 71.1071 30.0431 71.0742 30.0408 71.0411C29.9509 69.7083 29.5654 68.4928 28.9664 67.4923H44.9966C45.1348 67.4923 45.1348 67.4923 45.2732 67.4923H52.3462L41.353 71.6406C41.2769 71.6406 41.201 71.6406 41.1248 71.6406C40.9982 71.6406 40.8724 71.6446 40.7472 71.6502C40.7153 71.6516 40.6835 71.6533 40.6517 71.6551C40.5313 71.662 40.4115 71.6706 40.2925 71.6826C40.2822 71.6836 40.2718 71.6849 40.2614 71.6859C40.1492 71.6978 40.0378 71.7124 39.927 71.7287C39.885 71.7348 39.8431 71.7414 39.8014 71.7482C39.7179 71.7619 39.6349 71.7768 39.5522 71.793C39.4734 71.8083 39.3953 71.8251 39.3172 71.8426C39.2658 71.8543 39.2144 71.8656 39.1635 71.8783C39.0881 71.8968 39.0131 71.9164 38.9385 71.937C38.9314 71.939 38.9245 71.9411 38.9174 71.9431C36.9913 72.4785 35.3409 73.6935 34.2463 75.3128C34.1378 75.4682 34.0335 75.6268 33.9343 75.7893ZM41.1248 85.4688C38.0826 85.4688 35.5936 82.9798 35.5936 79.9376C35.5936 79.2722 35.7127 78.6331 35.9307 78.041C36.0129 77.9476 36.0874 77.8441 36.1469 77.7252C36.4508 76.9652 36.9044 76.3181 37.4645 75.8013C38.2866 75.0724 39.3251 74.584 40.4682 74.4471C40.5214 74.441 40.5744 74.4345 40.628 74.4301C40.6767 74.4256 40.7258 74.4219 40.7749 74.4189C40.8072 74.4169 40.8402 74.4169 40.8726 74.4154C41.026 74.4976 41.2018 74.5449 41.4013 74.5449C44.3051 74.8215 46.5177 77.1723 46.5177 80.0761C46.5177 80.6292 46.5177 81.1824 46.2411 81.8737C46.2196 81.9595 46.2071 82.045 46.199 82.1304C45.3458 84.0895 43.389 85.4688 41.1248 85.4688ZM49.4162 79.728C49.3811 78.3374 49.0006 77.0293 48.3559 75.8865C48.3139 75.8092 48.2688 75.7341 48.2244 75.6584C48.2207 75.652 48.217 75.6456 48.2131 75.6393C47.6272 74.6469 46.846 73.8044 45.9032 73.1681C45.8333 73.1187 45.7633 73.0695 45.692 73.0222L54.123 69.8432L51.564 77.5202C51.376 77.9672 51.2207 78.432 51.1003 78.9115L51.0808 78.9697L49.4215 79.7994C49.4203 79.7753 49.4175 79.7519 49.4162 79.728ZM60.4839 88.2344C56.612 88.2344 53.57 85.1922 53.57 81.3205C53.57 77.4486 56.6122 74.4065 60.4839 74.4065C64.3556 74.4065 67.3978 77.4487 67.3978 81.3205C67.3978 85.1922 64.3558 88.2344 60.4839 88.2344ZM79.843 85.4688C77.5871 85.4688 75.6365 84.0994 74.7783 82.1515C74.7787 82.0142 74.7615 81.8748 74.7268 81.7353C74.5886 81.4587 74.4502 81.1822 74.4502 80.9056C74.3843 80.7079 74.3503 80.542 74.3322 80.3921C74.3199 80.242 74.3119 80.0908 74.3119 79.9376C74.3119 79.9374 74.3119 79.9374 74.3119 79.9372C74.3121 79.661 74.4502 79.5226 74.4502 79.1079C74.636 77.8689 75.1836 76.7972 75.9792 75.9906C76.9123 75.0767 78.1646 74.4881 79.5483 74.4144C79.553 74.4143 79.5578 74.4138 79.5626 74.4135C79.6555 74.4087 79.7491 74.4064 79.8432 74.4064C79.9722 74.4064 80.1 74.4121 80.227 74.4214C80.2448 74.4227 80.2626 74.424 80.2804 74.4255C81.9666 74.5654 83.4564 75.5061 84.4307 76.8576C85.0258 77.7394 85.3742 78.7998 85.3742 79.9376C85.3742 82.9798 82.8852 85.4688 79.843 85.4688ZM80.4367 71.6647C80.4112 71.6627 80.3857 71.6605 80.36 71.6587C80.3036 71.6553 80.2471 71.6521 80.1904 71.6497C80.1353 71.6472 80.0799 71.6454 80.0247 71.6441L68.6077 67.4924H74.3118C74.45 67.4924 74.45 67.4924 74.45 67.4924H92.0013C91.4023 68.4929 91.0168 69.7086 90.9268 71.0413C90.9245 71.0742 90.9227 71.1073 90.9209 71.1404C90.9174 71.2024 90.9137 71.264 90.9115 71.3264C90.9076 71.4312 90.9053 71.536 90.9053 71.6409C90.9053 71.7459 90.9077 71.8507 90.9115 71.9554C90.9137 72.0177 90.9174 72.0795 90.9209 72.1414C90.9229 72.1745 90.9245 72.2075 90.9268 72.2406C91.0168 73.5734 91.4023 74.7889 92.0013 75.7894H87.0334C86.9386 75.6344 86.8391 75.4827 86.735 75.3344C85.3468 73.2665 83.0547 71.8523 80.4367 71.6647ZM96.4365 75.7893C94.9154 75.7893 93.6709 73.8533 93.6709 71.6409C93.6709 69.4285 94.9154 67.4926 96.4365 67.4926C97.9576 67.4926 99.2021 69.4285 99.2021 71.6409C99.2021 73.8533 97.9576 75.7893 96.4365 75.7893Z" fill="black"/>
</svg>
