<svg width="120" height="100" viewBox="0 0 120 100" fill="none" xmlns="http://www.w3.org/2000/svg">
<rect width="120" height="100" fill="white"/>
<path d="M73.027 82.5745H72.9374V50.6233C74.6027 50.0607 75.8056 48.4846 75.8056 46.6318V38.027C75.8056 34.9133 73.2724 32.3801 70.1587 32.3801H61.4644V29.203C64.7279 28.5729 67.2009 25.6964 67.2009 22.2516C67.2009 18.8873 62.2673 10.3412 61.2783 8.66203C61.0366 8.25187 60.596 8 60.1199 8C59.6437 8 59.2031 8.25187 58.9615 8.66203C57.9724 10.3412 53.0389 18.8873 53.0389 22.2516C53.0389 25.6964 55.5118 28.5729 58.7754 29.203V32.3801H50.081C46.9673 32.3801 44.4341 34.9133 44.4341 38.027V45.1976C44.4341 47.0505 45.637 48.6266 47.3024 49.1892V82.5745H47.2127C44.8898 82.5745 43 84.4643 43 86.7873C43 89.1102 44.8898 91 47.2127 91H73.027C75.3499 91 77.2397 89.1102 77.2397 86.7873C77.2397 84.4643 75.3499 82.5745 73.027 82.5745ZM55.7279 22.2516C55.7279 21.2796 56.9433 17.7316 60.1201 12.0448C63.2966 17.7305 64.5119 21.2789 64.5119 22.2516C64.5119 24.2045 63.2303 25.8631 61.4644 26.4323V23.6857C61.4644 22.9432 60.8626 22.3413 60.1199 22.3413C59.3772 22.3413 58.7754 22.9432 58.7754 23.6857V26.4323C57.0094 25.8631 55.7279 24.2045 55.7279 22.2516ZM65.8153 82.5745L70.2484 80.3579V82.5745H65.8153ZM47.1231 38.027C47.1231 36.396 48.45 35.0691 50.081 35.0691H70.1587C71.7897 35.0691 73.1166 36.396 73.1166 38.027V46.6318C73.1166 47.472 72.4331 48.1555 71.5929 48.1555C70.7527 48.1555 70.0691 47.472 70.0691 46.6318V42.3294C70.0691 40.0065 68.1793 38.1166 65.8564 38.1166C63.5334 38.1166 61.6436 40.0065 61.6436 42.3294V50.9341C61.6436 51.7743 60.9601 52.4579 60.1199 52.4579C59.2797 52.4579 58.5961 51.7743 58.5961 50.9341V45.1976C58.5961 42.8747 56.7063 40.9849 54.3834 40.9849C52.0604 40.9849 50.1706 42.8747 50.1706 45.1976C50.1706 46.0378 49.4871 46.7214 48.6469 46.7214C47.8067 46.7214 47.1231 46.0378 47.1231 45.1976V38.027ZM64.3326 45.8905V42.3294C64.3326 41.4892 65.0162 40.8056 65.8564 40.8056C66.6966 40.8056 67.3801 41.4892 67.3801 42.3294V44.3667L64.3326 45.8905ZM49.9914 53.0611V49.1892C51.6567 48.6266 52.8596 47.0505 52.8596 45.1976C52.8596 44.3574 53.5432 43.6739 54.3834 43.6739C55.2236 43.6739 55.9071 44.3574 55.9071 45.1976V50.1032L49.9914 53.0611ZM49.9914 81.8817L53.5021 80.1263C54.1661 79.7943 54.4354 78.9867 54.1034 78.3225C53.7715 77.6583 52.9643 77.3891 52.2994 77.7213L49.9914 78.8754V73.2771L53.5501 71.4977C54.2141 71.1657 54.4834 70.3581 54.1514 69.6939C53.8194 69.0297 53.0122 68.7605 52.3475 69.0927L49.9914 70.2706V64.6723L53.5505 62.8928C54.2145 62.5608 54.4838 61.7532 54.1518 61.089C53.8199 60.4248 53.0127 60.1556 52.3478 60.4877L49.9914 61.6659V56.0676L56.3815 52.8725C57.0842 54.2224 58.4957 55.147 60.1199 55.147C62.4428 55.147 64.3326 53.2572 64.3326 50.9343V48.8969L67.4413 47.3425C67.7037 48.8794 68.8006 50.1342 70.2484 50.6233V51.5374L65.2549 54.0342C64.5909 54.3662 64.3217 55.1738 64.6537 55.8379C64.8891 56.3091 65.3641 56.5814 65.8573 56.5814C66.0593 56.5814 66.2644 56.5356 66.4576 56.4392L70.2484 54.5436V60.1419L65.2549 62.6387C64.5909 62.9707 64.3217 63.7783 64.6537 64.4425C64.8891 64.9136 65.3641 65.1859 65.8573 65.1859C66.0593 65.1859 66.2644 65.1402 66.4576 65.0438L70.2484 63.1484V68.7467L65.2549 71.2435C64.5909 71.5755 64.3217 72.3831 64.6537 73.0473C64.8891 73.5184 65.3641 73.7907 65.8573 73.7907C66.0593 73.7907 66.2644 73.745 66.4576 73.6485L70.2484 71.7531V77.3514L59.8024 82.5745H49.9914V81.8817ZM73.027 88.311H47.2127C46.3725 88.311 45.689 87.6275 45.689 86.7873C45.689 85.947 46.3725 85.2635 47.2127 85.2635H60.1172C60.1184 85.2635 60.1197 85.2637 60.1209 85.2637C60.1226 85.2637 60.124 85.2635 60.1256 85.2635H73.027C73.8672 85.2635 74.5508 85.947 74.5508 86.7873C74.5508 87.6275 73.8672 88.311 73.027 88.311Z" fill="black"/>
<path d="M58.149 69.0402C58.351 69.0402 58.5561 68.9945 58.7494 68.898L61.4383 67.5535C62.1023 67.2215 62.3716 66.414 62.0396 65.7498C61.7078 65.0856 60.9004 64.8163 60.2357 65.1485L57.5467 66.493C56.8827 66.825 56.6134 67.6326 56.9454 68.2968C57.1808 68.7679 57.6558 69.0402 58.149 69.0402Z" fill="black"/>
<path d="M57.9698 60.5251C58.1718 60.5251 58.3769 60.4793 58.57 60.3829L61.3486 58.9936C62.0128 58.6614 62.282 57.854 61.9498 57.1896C61.6178 56.5255 60.8102 56.2564 60.1461 56.5884L57.3674 57.9777C56.7033 58.3099 56.434 59.1173 56.7662 59.7816C57.0016 60.2528 57.4766 60.5251 57.9698 60.5251Z" fill="black"/>
<path d="M61.7967 75.979C62.4607 75.647 62.7299 74.8394 62.3979 74.1752C62.0661 73.511 61.2587 73.2418 60.594 73.5739L57.905 74.9184C57.241 75.2504 56.9718 76.058 57.3038 76.7222C57.5391 77.1933 58.0142 77.4656 58.5073 77.4656C58.7094 77.4656 58.9145 77.4199 59.1077 77.3235L61.7967 75.979Z" fill="black"/>
</svg>
