<svg width="120" height="100" viewBox="0 0 120 100" fill="none" xmlns="http://www.w3.org/2000/svg">
<rect width="120" height="100" fill="white"/>
<path d="M110.158 36.5831C109.73 38.0347 109.221 39.5046 107.897 40.3408C106.938 40.9461 105.781 41.5677 104.698 41.594C98.2609 41.7438 92.1684 43.5214 86.0576 45.2484C84.6485 45.6473 83.2415 46.0583 81.8222 46.4146C81.2485 46.5584 81.0477 46.8114 81.0498 47.4148C81.07 54.9686 81.0559 62.5225 81.0822 70.0763C81.0842 70.4833 81.2748 70.9692 81.5384 71.285C87.27 78.189 83.6105 88.2615 74.7869 89.8305C67.6948 91.0939 61.0853 84.9856 61.7706 77.8043C61.7888 77.612 61.7726 77.4176 61.7726 77.1402C54.2608 77.1402 46.7552 77.1402 39.1116 77.1402C39.1116 79.2236 39.1116 81.317 39.1116 83.5076C38.623 83.5076 38.2722 83.5076 37.9215 83.5076C34.27 83.5076 30.6185 83.5218 26.9671 83.4955C26.3 83.4914 25.9432 83.617 25.7182 84.3458C24.5564 88.1076 21.0266 90.3205 17.0102 89.8852C13.3263 89.4864 10.4351 86.4049 10.0357 82.4548C9.67278 78.8672 12.1118 75.3626 15.7592 74.2248C15.9721 74.158 16.1789 74.0729 16.4587 73.9717C16.4587 71.279 16.4587 68.5862 16.4587 65.77C17.5231 65.77 18.5125 65.77 19.654 65.77C18.768 64.3224 18.2692 62.974 16.9027 61.9495C13.8291 59.6475 12.7566 56.3109 13.4358 52.5755C14.2001 48.3744 16.7912 45.7019 20.9374 44.6167C22.0971 44.3131 23.3014 44.1774 24.6355 43.9365C21.791 41.6912 19.6155 39.0409 18.18 35.7914C16.7385 32.5257 16.3452 29.1122 16.4729 25.5226C17.5191 25.5226 18.543 25.5226 19.7493 25.5226C19.7493 26.4458 19.7027 27.3832 19.7574 28.3145C20.1386 34.9512 23.3217 39.7961 29.1993 42.8736C29.5886 43.078 30.132 43.1631 30.5658 43.0882C39.6915 41.4786 48.4947 38.6097 57.4075 36.1741C68.5525 33.1311 79.6873 30.0476 90.7715 26.794C93.6768 25.9417 96.4139 24.4657 99.1632 23.1396C101.543 21.9896 103.774 21.8519 105.947 23.5061C107.202 24.4596 107.822 25.7959 108.2 27.284C108.84 29.8006 109.505 32.3131 110.158 34.8257C110.158 35.4108 110.158 35.9959 110.158 36.5831ZM50.36 48.1031C50.36 49.7208 50.36 51.2352 50.36 52.863C47.6351 52.863 45.0115 52.863 42.2684 52.863C42.2684 55.0699 42.2684 57.1653 42.2684 59.3357C39.5455 59.3357 36.9483 59.3357 34.2457 59.3357C34.2457 60.9574 34.2457 62.5022 34.2457 64.1523C31.5208 64.1523 28.8993 64.1523 26.1358 64.1523C26.1358 65.8287 26.1358 67.3978 26.1358 69.0478C23.9198 69.0478 21.8457 69.0478 19.7736 69.0478C19.7736 70.6817 19.7736 72.2244 19.7736 73.8158C20.0636 73.834 20.2866 73.8624 20.5076 73.8624C34.3592 73.8644 48.2089 73.8603 62.0605 73.8786C62.6485 73.8786 62.9141 73.6437 63.1898 73.1821C65.5234 69.2645 68.9823 67.2824 73.5522 67.4706C74.9836 67.5294 76.3967 67.9829 77.8058 68.2521C77.8058 61.6134 77.8058 54.8876 77.8058 48.1031C68.6782 48.1031 59.6012 48.1031 50.36 48.1031ZM41.8609 49.6479C41.8487 48.4635 40.4355 45.3254 39.6083 44.72C39.4178 44.5803 39.0548 44.5904 38.7953 44.6451C37.7451 44.8698 36.7151 45.1998 35.6588 45.38C31.3282 46.117 26.9894 46.8114 22.6526 47.5261C19.2465 48.0869 17.1197 50.0407 16.5723 53.2416C16.2093 55.3594 16.7791 57.2443 18.3057 58.8923C18.4193 58.6615 18.4862 58.5502 18.5328 58.4287C20.8198 52.3609 27.7314 50.9862 32.2405 55.6995C32.4068 55.8736 32.6501 56.0822 32.8609 56.0842C34.9026 56.1125 36.9463 56.1024 39.1157 56.1024C39.1157 53.8976 39.1157 51.8062 39.1157 49.6479C40.1172 49.6479 40.989 49.6479 41.8609 49.6479ZM81.0437 78.768C81.1045 74.3462 77.4956 70.6716 73.0352 70.6169C68.6863 70.5622 65.0024 74.2005 64.9517 78.604C64.899 83.0298 68.52 86.7126 72.9683 86.7572C77.3273 86.7977 80.9829 83.1857 81.0437 78.768ZM98.4008 38.8608C100.511 38.715 102.464 38.632 104.402 38.4295C106.178 38.2433 107.212 36.8868 106.825 35.1152C106.249 32.4832 105.57 29.8674 104.81 27.282C104.327 25.64 102.671 25.0488 101.103 25.806C100.4 26.1462 99.7268 26.545 99.0273 26.8932C97.8757 27.4662 96.712 28.0189 95.4955 28.6081C97.7541 31.7017 98.8002 35.0444 98.4008 38.8608ZM13.2573 81.8738C13.235 84.5422 15.4024 86.745 18.0604 86.7551C20.6576 86.7653 22.8635 84.6009 22.9061 81.9973C22.9486 79.345 20.8036 77.126 18.1375 77.0673C15.5078 77.0086 13.2796 79.2033 13.2573 81.8738ZM80.2854 33.1939C82.3656 36.1053 83.0772 39.2718 82.8603 42.7804C84.8959 42.2196 86.7409 41.7317 88.5676 41.1789C88.7643 41.1182 88.9387 40.689 88.9691 40.4136C89.3158 37.2876 88.4379 34.5038 86.5118 32.0459C86.3475 31.8353 85.9076 31.6592 85.6602 31.722C83.9308 32.1572 82.2176 32.6573 80.2854 33.1939ZM73.2907 44.7463C73.7691 41.3632 72.8892 38.4295 70.7563 35.8319C68.6457 36.4231 66.5858 36.9981 64.4083 37.6075C65.8945 39.8245 66.9325 42.1163 67.0907 44.7463C69.1952 44.7463 71.2328 44.7463 73.2907 44.7463ZM30.8882 60.9433C30.9713 58.5826 29.2642 56.5782 26.961 56.1712C24.6618 55.7663 22.3059 57.1755 21.57 59.3965C20.9516 61.2632 21.5781 63.5591 22.9649 64.2333C22.9649 63.1319 22.9649 62.073 22.9649 60.9412C25.6472 60.9433 28.2444 60.9433 30.8882 60.9433ZM35.7926 77.1119C32.0256 77.1119 28.3721 77.1119 24.6274 77.1119C25.0126 77.9096 25.4891 78.5939 25.6736 79.3491C25.8864 80.2197 26.3467 80.3432 27.1191 80.329C29.4913 80.2865 31.8654 80.3148 34.2396 80.3148C34.7465 80.3148 35.2554 80.3148 35.7926 80.3148C35.7926 79.181 35.7926 78.1849 35.7926 77.1119ZM89.4942 30.6449C91.5216 33.5178 92.4786 36.6195 92.1968 40.199C93.1761 39.9601 93.9951 39.7982 94.7838 39.5431C94.9724 39.4823 95.1569 39.1341 95.1873 38.8992C95.6171 35.6234 94.6257 32.7484 92.6408 30.1772C92.507 30.0051 92.1481 29.8634 91.9434 29.9119C91.1668 30.0942 90.4065 30.3614 89.4942 30.6449ZM76.6319 44.5094C77.5058 44.2705 78.2417 44.1268 78.925 43.8514C79.2048 43.7401 79.5292 43.3655 79.5616 43.078C79.8373 40.6404 79.5596 38.2939 78.3269 36.1053C77.1591 34.032 77.1814 34.0179 74.939 34.6617C74.6997 34.7305 74.4666 34.8216 74.0996 34.9492C76.1474 37.812 76.8408 40.9927 76.6319 44.5094ZM57.148 44.7969C57.2412 44.7139 57.3345 44.6329 57.4277 44.5499C56.6553 43.2137 55.893 41.8734 55.0941 40.5533C55.011 40.4157 54.6927 40.3023 54.5285 40.3468C52.72 40.8327 50.9196 41.351 49.0847 41.8693C49.5673 42.7723 49.9728 43.5862 50.437 44.3637C50.5587 44.5661 50.8669 44.7767 51.0919 44.7807C53.1133 44.8091 55.1306 44.7969 57.148 44.7969ZM63.8021 44.7544C63.6744 42.4038 62.5491 40.5351 61.2414 38.7474C61.1603 38.6381 60.8927 38.5834 60.7406 38.6219C59.9317 38.8284 59.1308 39.0713 58.3867 39.2839C59.2221 41.1344 60.029 42.9181 60.8582 44.7544C61.7463 44.7544 62.7458 44.7544 63.8021 44.7544ZM43.0327 43.5457C43.8843 45.5865 44.6973 47.5403 45.561 49.6095C45.9219 49.6095 46.4896 49.6095 47.1546 49.6095C47.1546 48.1133 47.3046 46.6434 47.0958 45.2241C46.9802 44.4305 46.2848 43.7138 45.8144 42.9869C45.7495 42.8877 45.4576 42.8655 45.2974 42.9059C44.5189 43.1044 43.7484 43.3392 43.0327 43.5457Z" fill="black"/>
<path d="M13.8818 20.5866C12.6248 20.5866 11.3678 20.5866 10.054 20.5866C10.054 19.5216 10.054 18.5296 10.054 17.4201C11.3353 17.4201 12.6126 17.4201 13.8899 17.4201C13.9386 17.333 13.9893 17.2459 14.0379 17.1589C13.0546 16.3328 12.0733 15.5088 11.0352 14.6382C12.0287 13.7211 12.7647 13.0428 13.5615 12.3079C14.3339 13.1704 15.1936 14.1301 16.0512 15.0877C16.1729 15.0128 16.2945 14.9359 16.4141 14.8609C16.4141 13.5915 16.4141 12.3241 16.4141 11C17.5394 11 18.5328 11 19.6865 11C19.6865 12.2735 19.6865 13.5389 19.6865 15.0189C20.7326 13.9175 21.5963 13.0064 22.4925 12.0609C23.344 12.9619 24.0556 13.711 24.9356 14.6423C24.0273 15.4137 23.046 16.2498 22.0626 17.084C22.1194 17.1832 22.1742 17.2824 22.2309 17.3816C23.5062 17.3816 24.7795 17.3816 26.1095 17.3816C26.1095 18.5012 26.1095 19.4913 26.1095 20.5663C24.7997 20.5663 23.5427 20.5663 22.2512 20.5663C23.2224 21.4936 24.1408 22.3703 25.0126 23.2004C24.0273 24.162 23.2953 24.8747 22.604 25.5489C21.6328 24.5568 20.5319 23.4312 19.3621 22.2366C20.6495 21.277 21.8619 19.9954 21.2679 18.0639C21.0428 17.333 20.3251 16.7236 19.7534 16.1365C19.064 15.4278 16.9433 15.7012 16.0877 16.3652C15.0071 17.2034 14.8205 18.234 14.8205 19.5115C14.8205 21.0077 16.2722 21.3296 16.7426 22.2933C15.6234 23.4008 14.5063 24.5062 13.3891 25.6117C12.7991 24.9901 12.1078 24.2673 11.3191 23.4372C12.199 22.6578 13.1621 21.8054 14.1251 20.951C14.044 20.8295 13.9629 20.708 13.8818 20.5866Z" fill="black"/>
<path d="M63.3155 51.2819C64.459 51.2819 65.4261 51.2819 66.5351 51.2819C66.5351 52.1383 66.5675 52.9724 66.525 53.8005C66.4905 54.4423 66.6426 54.8229 67.2832 55.1651C69.4121 56.307 70.2819 58.7851 69.4506 61.0243C68.6498 63.1805 66.3101 64.5046 64.0454 64.0835C61.7766 63.6624 60.0574 61.6216 60.0918 59.2994C60.1202 57.4246 61.0001 55.9972 62.6505 55.1104C63.1594 54.8371 63.354 54.5455 63.3277 53.9847C63.2851 53.1141 63.3155 52.2415 63.3155 51.2819ZM66.525 59.3398C66.5331 58.4956 65.7586 57.7161 64.9152 57.7222C64.0819 57.7282 63.3844 58.4166 63.354 59.2629C63.3216 60.1578 64.0089 60.9008 64.8868 60.9251C65.7383 60.9474 66.5148 60.1963 66.525 59.3398Z" fill="black"/>
<path d="M55.2969 51.3041C56.3795 51.3041 57.3771 51.3041 58.4253 51.3041C58.4253 52.3528 58.4253 53.3469 58.4253 54.424C57.3933 54.424 56.3755 54.424 55.2969 54.424C55.2969 53.3732 55.2969 52.3326 55.2969 51.3041Z" fill="black"/>
<path d="M71.4841 51.2879C72.4979 51.2879 73.4629 51.2879 74.5132 51.2879C74.5132 52.3144 74.5132 53.3307 74.5132 54.4281C73.542 54.4281 72.5567 54.4281 71.4841 54.4281C71.4841 53.4259 71.4841 52.4095 71.4841 51.2879Z" fill="black"/>
<path d="M72.9967 83.4955C70.3184 83.4935 68.1227 81.3029 68.149 78.6587C68.1754 76.0348 70.3286 73.8928 72.9541 73.8766C75.6385 73.8604 77.8343 76.0085 77.8505 78.6668C77.8687 81.313 75.673 83.4955 72.9967 83.4955ZM73.0008 77.0856C72.1371 77.0856 71.4031 77.8387 71.4173 78.7093C71.4295 79.5414 72.129 80.2561 72.9541 80.2845C73.8199 80.3148 74.566 79.59 74.5781 78.7073C74.5903 77.8246 73.8726 77.0876 73.0008 77.0856Z" fill="black"/>
<path d="M19.658 80.3877C19.658 81.4324 19.658 82.3941 19.658 83.4307C18.6017 83.4307 17.588 83.4307 16.5134 83.4307C16.5134 82.4366 16.5134 81.4486 16.5134 80.3877C17.5292 80.3877 18.549 80.3877 19.658 80.3877Z" fill="black"/>
</svg>
