<svg width="120" height="100" viewBox="0 0 120 100" fill="none" xmlns="http://www.w3.org/2000/svg">
<rect width="120" height="100" fill="white"/>
<path d="M101.727 11.4079L98.7544 8.43529C97.782 7.46275 96.571 6.94896 95.3417 7.00401C94.2224 7.05906 93.1949 7.57285 92.4427 8.45364L85.4153 15.2614C85.1401 15.5183 84.9933 15.8853 84.9933 16.2523V22.9866L77.3421 30.6385C75.5807 26.6015 73.489 23.0233 71.5624 20.1424C66.6267 12.7291 61.7461 8.16004 61.5443 7.97654L60.6085 7.11411L59.6728 7.97654C59.4709 8.16004 54.5353 12.7291 49.5446 20.1424C44.9025 27.0236 39.3797 37.7031 39.3797 49.6121C39.3797 55.3005 40.6457 60.6953 42.4622 65.5213L33.9853 73.9989H27.2515C26.8845 73.9989 26.5176 74.1457 26.2607 74.421L19.4535 81.4489C18.5728 82.2196 18.0407 83.2472 18.004 84.3482C17.949 85.5776 18.4627 86.7703 19.4352 87.7612L22.4076 90.7339C23.2516 91.578 24.3341 92 25.4534 92C26.5359 92 27.6368 91.6147 28.5909 90.8256C28.6276 90.7889 28.6643 90.7522 28.701 90.7339L35.5449 83.6509C35.8018 83.394 35.9302 83.0453 35.9302 82.6967V75.9623L43.5814 68.3105C45.3979 72.4392 47.5446 76.0724 49.5262 78.99C54.5169 86.3483 59.4526 90.8623 59.6728 91.0458L60.6085 91.8899L61.5259 91.0458C61.7278 90.8623 66.6084 86.3483 71.5441 78.99C76.1311 72.1639 81.5805 61.5394 81.5805 49.6488C81.5805 43.8686 80.2962 38.3637 78.443 33.446L86.9199 24.9684H93.6536C94.0023 24.9684 94.3509 24.8216 94.6077 24.5831L101.69 17.7386C101.727 17.7019 101.764 17.6652 101.782 17.6285C103.433 15.6651 103.397 13.0594 101.727 11.4079ZM33.2147 82.1095L26.8111 88.7337C26.0038 89.376 25.013 89.3943 24.3892 88.7704L21.4168 85.7978C20.9948 85.3757 20.7746 84.8987 20.7929 84.4583C20.8113 84.0913 20.9948 83.761 21.325 83.4857C21.3617 83.449 21.3984 83.4123 21.4351 83.394L27.8753 76.733H33.2147V82.1095ZM42.1502 49.5938C42.1502 38.4188 47.3978 28.2714 51.8014 21.7205C55.3609 16.4358 58.9572 12.564 60.6269 10.8942C62.2599 12.564 65.7827 16.3807 69.3056 21.6471C71.3055 24.6565 73.489 28.4365 75.2687 32.712L68.2047 39.7766C67.9111 38.8041 67.5809 37.905 67.1955 37.0609C65.5259 33.3542 63.1956 31.3174 60.6269 31.3174C55.416 31.3174 51.4895 39.1711 51.4895 49.5754C51.4895 51.7774 51.6913 53.9243 52.0399 55.9244L44.6272 63.3377C43.141 59.1173 42.1502 54.4564 42.1502 49.5938ZM66.535 45.3733C66.7001 46.6945 66.7919 48.1074 66.7919 49.5938C66.7919 58.3466 63.5442 64.8791 60.6452 64.8791C58.5352 64.8791 56.2417 61.7963 55.0674 56.8419L66.535 45.3733ZM54.4802 53.5206C54.3334 52.2912 54.2601 50.97 54.2601 49.5938C54.2601 40.4556 57.6178 34.0882 60.6452 34.0882C62.6452 34.0882 64.7919 37.226 65.9479 42.052L54.4802 53.5206ZM78.8833 49.5938C78.8833 60.7687 73.6908 70.8611 69.3423 77.3569C65.8194 82.6049 62.2599 86.4217 60.6269 88.0732C58.9755 86.4217 55.3793 82.6049 51.8014 77.3569C49.7464 74.3292 47.5079 70.5308 45.7098 66.1819L52.8105 59.0806C53.1225 60.0898 53.4711 61.044 53.8747 61.9248C55.5811 65.5947 57.9664 67.6315 60.6269 67.6315C65.6176 67.6315 69.5258 59.7045 69.5258 49.5938C69.5258 47.2817 69.3239 45.0247 68.9386 42.9328L76.3329 35.5379C77.8558 39.8867 78.8833 44.6393 78.8833 49.5938ZM99.7452 15.7752L93.1215 22.1792H87.7455V16.8395L94.4059 10.3987C94.4426 10.362 94.4793 10.3253 94.4977 10.2886C94.7729 9.95832 95.1031 9.77482 95.4701 9.75647C95.9105 9.73812 96.3875 9.95832 96.8095 10.3804L99.7819 13.353C100.406 13.9769 100.387 14.9678 99.7452 15.7752Z" fill="black"/>
</svg>
