<svg width="120" height="100" viewBox="0 0 120 100" fill="none" xmlns="http://www.w3.org/2000/svg">
<rect width="120" height="100" fill="white"/>
<path d="M18 27.8713C18.6988 26.1762 19.9966 25.6392 21.7437 25.6895C24.9549 25.7734 28.1662 25.6895 31.3608 25.7231C32.043 25.7399 32.1761 25.5217 32.1595 24.8839C32.1095 23.8601 32.1428 22.8196 32.1595 21.7958C32.1761 20.5371 32.6919 20 33.9231 20C56.352 20 78.7975 20 101.226 20C102.474 20 102.99 20.5203 102.99 21.779C103.007 25.2699 103.106 28.7608 102.042 32.151C99.8287 39.2336 95.3363 44.1846 88.5311 46.9874C85.6692 48.1622 82.6743 48.565 79.6128 48.565C79.0138 48.565 78.8973 48.7329 78.8973 49.3035C78.9306 51.7874 78.914 54.2713 78.914 56.7552C78.914 58.8699 77.7825 59.9944 75.6861 60.0112C74.5879 60.0112 73.4731 60.028 72.375 60.0112C71.9424 59.9944 71.8093 60.1287 71.8093 60.565C71.8259 63.049 71.8425 65.5329 71.8093 68.0168C71.8093 68.5538 72.0422 68.5706 72.4582 68.5706C74.3882 68.6042 76.335 68.4196 78.265 68.6713C81.859 69.1245 84.3381 71.7762 84.5711 75.4014C84.6376 76.4252 84.621 77.4657 84.5877 78.4895C84.5711 79.4126 84.0553 79.9161 83.1402 79.9832C82.8906 80 82.641 80 82.3914 80C67.816 80 53.2406 80 38.6652 80C36.785 80 36.4522 79.6476 36.4522 77.751C36.4522 76.4755 36.3524 75.1832 36.7018 73.9245C37.6502 70.6182 40.2791 68.621 43.7566 68.5706C45.3539 68.5538 46.9678 68.5538 48.5651 68.5706C49.0643 68.5874 49.214 68.4531 49.214 67.9161C49.1808 65.4825 49.1808 63.0657 49.214 60.6322C49.214 60.1119 49.0809 59.9608 48.5651 59.9776C47.4004 60.0112 46.2357 60.0112 45.0877 59.9776C43.3073 59.9441 42.126 58.7692 42.1093 56.9734C42.0927 54.4056 42.0927 51.8378 42.126 49.2699C42.126 48.6825 41.9929 48.5315 41.4105 48.5315C39.4139 48.565 37.4339 48.5483 35.4373 48.5483C33.3242 48.5315 32.226 47.407 32.1927 45.2755C32.1927 45.2252 32.1927 45.158 32.1927 45.1077C32.1428 44.3692 32.5089 43.3455 32.043 42.9594C31.5937 42.5902 30.6287 42.842 29.88 42.8252C28.1163 42.7916 26.3359 42.9091 24.5723 42.758C21.5607 42.5399 19.2313 40.6434 18.3328 37.7902C18.2496 37.5385 18.2829 37.2364 18 37.0685C18 34.014 18 30.9427 18 27.8713ZM100.195 23.7259C100.195 22.9706 99.9951 22.8364 99.2796 22.8364C88.7141 22.8531 78.1486 22.8531 67.5831 22.8531C56.9843 22.8531 46.3855 22.8531 35.8033 22.8364C35.1544 22.8364 34.988 22.9874 34.988 23.6587C35.0047 30.6909 35.0213 37.7231 34.988 44.7552C34.988 45.5776 35.2043 45.7455 35.9863 45.7455C50.3787 45.7119 64.7545 45.7287 79.1469 45.7287C80.5612 45.7287 81.9755 45.7119 83.3565 45.4601C90.6442 44.1678 95.7356 40.0559 98.6973 33.242C99.9951 30.2042 100.228 26.9818 100.195 23.7259ZM75.1869 48.565C70.3284 48.6154 65.4533 48.5818 60.5948 48.5818C55.6199 48.5818 50.645 48.5986 45.67 48.565C45.0544 48.565 44.888 48.7161 44.9046 49.3371C44.9379 51.7035 44.9379 54.0699 44.9046 56.4531C44.9046 56.9734 45.0045 57.158 45.5702 57.158C55.5201 57.1413 65.47 57.1413 75.4365 57.158C75.9856 57.158 76.1187 57.007 76.1187 56.4699C76.0854 54.1538 76.0854 51.8378 76.1187 49.5217C76.1187 48.8 75.9689 48.565 75.1869 48.565ZM76.934 71.4238C65.9858 71.4238 55.0209 71.4238 44.0727 71.4238C40.9613 71.4238 39.2808 73.1692 39.2475 76.2909C39.2309 76.979 39.3973 77.1636 40.0961 77.1469C46.9013 77.1133 53.7065 77.1301 60.5116 77.1301C67.2669 77.1301 74.0056 77.1301 80.7608 77.1301C80.9605 77.1301 81.1435 77.1133 81.3432 77.1301C81.676 77.1636 81.7425 77.0126 81.7758 76.7105C82.0254 73.5049 80.1452 71.4238 76.934 71.4238ZM68.2153 59.9944C65.6696 60.028 63.1405 60.0112 60.5948 60.0112C57.9493 60.0112 55.2871 60.028 52.6416 59.9944C52.1258 59.9944 52.0093 60.1287 52.0093 60.6489C52.0426 63.0657 52.026 65.4993 52.0093 67.9161C52.0093 68.4028 52.0759 68.5874 52.6249 68.5874C57.8661 68.5706 63.1239 68.5706 68.3651 68.5874C68.8809 68.5874 68.9973 68.4364 68.9973 67.9329C68.9641 65.5329 68.9474 63.1329 68.9973 60.7496C69.014 60.0783 68.781 59.9944 68.2153 59.9944ZM31.4939 28.5427C29.8301 28.5594 28.1828 28.5594 26.519 28.5594C24.8052 28.5594 23.0914 28.5594 21.3776 28.5594C21.0282 28.5594 20.8119 28.5762 20.8286 29.0294C20.8452 31.3119 20.7786 33.5944 20.8618 35.8937C20.945 38.1594 22.559 39.8378 24.8052 39.9552C27.1013 40.0559 29.3974 39.9888 31.6769 40.0224C32.2094 40.0392 32.1595 39.7203 32.1595 39.3846C32.1595 35.9776 32.1428 32.5874 32.1761 29.1804C32.1761 28.6098 31.9598 28.5427 31.4939 28.5427Z" fill="black"/>
</svg>
