<svg width="120" height="100" viewBox="0 0 120 100" fill="none" xmlns="http://www.w3.org/2000/svg">
<rect width="120" height="100" fill="white"/>
<path d="M30.6207 61.4091C27.9216 61.4091 25.7258 63.6048 25.7258 66.3039C25.7258 69.003 27.9216 71.1987 30.6207 71.1987C33.3198 71.1987 35.5155 69.0028 35.5155 66.3039C35.5155 63.605 33.3198 61.4091 30.6207 61.4091ZM30.6207 68.2664C29.5384 68.2664 28.6582 67.3859 28.6582 66.3039C28.6582 65.2219 29.5384 64.3414 30.6207 64.3414C31.7029 64.3414 32.5832 65.2217 32.5832 66.3039C32.5832 67.3861 31.7029 68.2664 30.6207 68.2664Z" fill="black"/>
<path d="M81.7918 61.4091C79.0927 61.4091 76.8967 63.6048 76.8967 66.3039C76.8967 69.003 79.0927 71.1987 81.7918 71.1987C84.4907 71.1987 86.6864 69.0028 86.6864 66.3039C86.6864 63.605 84.4907 61.4091 81.7918 61.4091ZM81.7918 68.2664C80.7095 68.2664 79.8291 67.3859 79.8291 66.3039C79.8291 65.2219 80.7095 64.3414 81.7918 64.3414C82.8738 64.3414 83.7541 65.2217 83.7541 66.3039C83.7541 67.3861 82.8738 68.2664 81.7918 68.2664Z" fill="black"/>
<path d="M91.9992 44.4623L78.9177 42.9678L71.936 31.6185C69.8042 28.1529 65.9521 26 61.8832 26H38.1321C31.3047 26 25.2705 30.5975 23.4582 37.1806L23.2728 37.854C22.3722 41.1251 19.7844 43.7289 16.5189 44.6496C13.8583 45.3999 12 47.8544 12 50.6188V66.8467C12 67.6565 12.6565 68.3129 13.4662 68.3129H21.0036C21.9336 72.7697 25.892 76.1281 30.6207 76.1281C35.3493 76.1281 39.3078 72.7697 40.2377 68.3129H72.1747C73.1046 72.7697 77.0631 76.1281 81.7918 76.1281C86.5204 76.1281 90.4789 72.7697 91.4088 68.3129H99.3216C100.067 68.3129 100.694 67.7536 100.778 67.0129L101.927 56.9486C102.631 50.7705 98.178 45.1692 91.9992 44.4623ZM20.841 65.3806H14.9323V63.5991H21.178C21.0132 64.1734 20.8984 64.7687 20.841 65.3806ZM30.6207 73.1958C26.8204 73.1958 23.7287 70.1042 23.7287 66.3039C23.7287 62.5036 26.8204 59.4117 30.6207 59.4117C34.421 59.4117 37.5126 62.5036 37.5126 66.3039C37.5126 70.1042 34.421 73.1958 30.6207 73.1958ZM81.7918 73.1958C77.9915 73.1958 74.8998 70.1042 74.8998 66.3039C74.8998 62.5036 77.9915 59.4117 81.7918 59.4117C85.592 59.4117 88.6837 62.5036 88.6837 66.3039C88.6837 70.1042 85.592 73.1958 81.7918 73.1958ZM98.013 65.3806H91.5713C91.514 64.7687 91.399 64.1734 91.2342 63.5991H98.2163L98.013 65.3806ZM99.0129 56.6162L98.5508 60.6668H89.8304C88.0515 58.1371 85.1123 56.4794 81.7918 56.4794C78.471 56.4794 75.532 58.1371 73.7529 60.6668H47.662C46.8523 60.6668 46.1958 61.3232 46.1958 62.1329C46.1958 62.9426 46.8523 63.5991 47.662 63.5991H72.3491C72.1843 64.1734 72.0695 64.7687 72.012 65.3806H40.4004C39.9334 60.3948 35.7264 56.4794 30.6207 56.4794C27.2999 56.4794 24.3609 58.1371 22.5818 60.6668H14.9323V50.6188C14.9323 49.1615 15.9121 47.8673 17.3147 47.4719C21.5623 46.2743 24.9284 42.8873 26.1 38.6323L26.2853 37.9588C27.7484 32.6443 32.6201 28.9323 38.1321 28.9323H61.8832C64.9412 28.9323 67.8362 30.5504 69.4382 33.1549L76.7937 45.1117C77.0297 45.4953 77.4288 45.749 77.8761 45.8003L91.6661 47.3757C94.7943 47.7336 97.3241 49.787 98.4437 52.5124H93.8667C93.057 52.5124 92.4005 53.1688 92.4005 53.9785C92.4005 54.7882 93.057 55.4447 93.8667 55.4447H99.0624C99.0726 55.8308 99.0579 56.2217 99.0129 56.6162Z" fill="black"/>
<path d="M61.96 48.1377H58.8791C58.0694 48.1377 57.413 48.7941 57.413 49.6039C57.413 50.4136 58.0694 51.07 58.8791 51.07H61.96C62.7697 51.07 63.4262 50.4136 63.4262 49.6039C63.4262 48.7941 62.7699 48.1377 61.96 48.1377Z" fill="black"/>
<path d="M42.2707 49.6039C42.2707 48.7941 41.6142 48.1377 40.8045 48.1377H37.7236C36.9139 48.1377 36.2574 48.7941 36.2574 49.6039C36.2574 50.4136 36.9139 51.07 37.7236 51.07H40.8045C41.6142 51.07 42.2707 50.4136 42.2707 49.6039Z" fill="black"/>
<path d="M44.0867 61.5715C44.0699 61.5319 44.076 61.5467 44.0842 61.5663C43.8258 60.9608 43.1742 60.581 42.5179 60.6828C41.9219 60.7755 41.4384 61.224 41.3034 61.812C41.0109 63.0846 42.4863 64.0726 43.5593 63.3425C44.1256 62.9574 44.3471 62.2102 44.0887 61.577C44.0971 61.5972 44.1039 61.6132 44.0867 61.5715Z" fill="black"/>
<path d="M67.9125 34.0956C66.6357 32.0162 64.3256 30.7244 61.8834 30.7244H38.1315C33.4228 30.7244 29.262 33.8946 28.0129 38.435L27.8285 39.1071C27.346 40.8579 26.6032 43.8653 26.5717 43.9926C26.4636 44.4301 26.5629 44.893 26.8407 45.248C27.1187 45.6028 27.5443 45.8102 27.9951 45.8102H72.4961C73.0272 45.8102 73.5169 45.523 73.7759 45.0593C74.0352 44.5956 74.0232 44.0281 73.7449 43.5758L67.9125 34.0956ZM34.5394 42.8773H29.8739C30.1212 41.9014 30.4232 40.7289 30.6559 39.8842L30.8404 39.2115C31.3995 37.1794 32.7689 35.5287 34.5394 34.5692V42.8773ZM50.971 33.6565V42.8775H37.4718V33.686C37.6897 33.6669 37.9097 33.6565 38.1315 33.6565H50.971ZM53.9034 42.8775V33.6565H61.8834C63.3136 33.6565 64.6662 34.4126 65.4143 35.6309L69.8728 42.8775H53.9034Z" fill="black"/>
</svg>
