<svg width="120" height="100" viewBox="0 0 120 100" fill="none" xmlns="http://www.w3.org/2000/svg">
<rect width="120" height="100" fill="white"/>
<path d="M97.1258 46.1939C99.8067 42.7578 98.6455 39.5364 97.7295 38.4121C95.7261 35.3991 92.9608 33.5419 89.5101 32.8921C89.2373 32.8407 88.9592 32.8236 88.6837 32.7893C89.0396 32.4901 89.3809 32.1896 89.7025 31.8865C92.0184 29.6945 93.1295 27.3524 93.0043 24.9245C92.8118 21.2089 89.7302 18.8008 89.5984 18.6993L89.5365 18.6545C84.1074 14.9679 78.0127 19.4295 77.7557 19.622L77.5237 19.8434C77.4288 19.9594 77.3379 20.0951 77.2443 20.2151C76.6485 17.1585 74.997 14.728 72.3279 12.9935C71.7019 12.4926 67.7068 9.54016 63.0449 11.9087C62.4676 12.2026 61.9456 12.5822 61.4527 12.9987C60.0872 12.6125 58.5688 12.4966 57.0636 13.0291C55.0179 13.754 53.6788 15.4951 53.4811 17.6884C53.2702 20.02 54.4459 22.2778 56.4744 23.4417C58.3315 24.5067 60.5564 26.4785 62.6231 30.0939C61.3934 30.0096 60.2045 30.14 59.0815 30.5447C52.3845 32.9501 25.8968 71.7563 21.198 84.3582C20.8026 85.4206 21.0082 86.5317 21.7371 87.2619C22.2208 87.7456 22.8732 88 23.5691 88C23.9211 88 24.2835 87.9354 24.6407 87.8023C37.3323 83.0705 76.2966 56.7147 78.6625 50.1257C78.9854 49.2255 79.1383 48.2817 79.1502 47.3103C82.7643 49.0805 84.6755 50.8032 85.6719 52.1713C87.1244 54.1642 89.4666 55.3953 91.8022 55.3953C91.8272 55.3953 91.8523 55.3953 91.8773 55.3953C93.8241 55.3729 95.5521 54.4792 96.6197 52.9437C98.2066 50.6582 97.6438 48.1908 96.7976 46.5775C96.9097 46.4483 97.0257 46.3231 97.1258 46.1939ZM95.5969 39.9569C95.7471 40.1533 96.9795 41.9116 95.2015 44.3684C95.1461 44.3025 95.0881 44.2432 95.0314 44.1786C94.9352 44.0679 94.839 43.9612 94.7415 43.8531C94.4923 43.575 94.2419 43.3074 93.9875 43.0504C93.9098 42.9713 93.832 42.8922 93.7542 42.8158C89.6287 38.7746 84.9259 37.5027 80.658 37.5027C79.1449 37.5027 77.6858 37.6622 76.3269 37.9113C76.4732 37.8454 76.6248 37.7795 76.7737 37.7149C76.9807 37.624 77.1876 37.533 77.3998 37.4434C77.6278 37.3472 77.8585 37.2536 78.0931 37.1613C78.2882 37.0835 78.4885 37.0084 78.6876 36.9333C79.054 36.7962 79.4257 36.6631 79.8039 36.5366C80.0399 36.4575 80.2758 36.3784 80.5144 36.3059C80.745 36.2347 80.9797 36.1675 81.2129 36.1016C81.4726 36.0291 81.7336 35.9619 81.9959 35.8973C82.2529 35.834 82.5112 35.7721 82.7709 35.7167C83.1347 35.639 83.4998 35.5704 83.8662 35.5124C84.0639 35.4808 84.2616 35.4544 84.4593 35.4294C86.0067 35.229 87.5554 35.2093 89.0277 35.4847C91.7903 36.0054 93.919 37.4407 95.5969 39.9569ZM79.4547 21.6491C80.2218 21.1259 84.4751 18.4449 88.0167 20.8095C88.2527 21.0033 90.2522 22.7207 90.3721 25.0616C90.4551 26.6828 89.6208 28.3356 87.8902 29.974C86.8766 30.9335 85.6429 31.8825 84.2221 32.7959C84.0468 32.8183 83.8728 32.8539 83.6975 32.8803C83.3284 32.9356 82.9607 32.991 82.5956 33.0622C82.3425 33.1122 82.0947 33.1716 81.8443 33.2282C81.5556 33.2941 81.2683 33.3587 80.9836 33.4339C80.7187 33.5024 80.4577 33.5762 80.1967 33.6527C79.9344 33.7291 79.6748 33.8069 79.4164 33.8886C79.1489 33.9743 78.8839 34.0599 78.6217 34.1509C78.3857 34.2326 78.1551 34.317 77.9244 34.4026C77.6529 34.5028 77.3814 34.6017 77.1164 34.7071C76.9372 34.7783 76.7645 34.8521 76.5879 34.9246C75.4425 35.3978 74.3762 35.8947 73.4206 36.3823C73.4074 36.3889 73.3916 36.3968 73.3784 36.4034C74.1864 34.9061 75.0352 33.1307 75.7575 31.2156C75.8023 31.0956 75.8511 30.9796 75.8946 30.8584C76.0185 30.517 76.1318 30.169 76.2465 29.8197C76.3085 29.6299 76.3744 29.4415 76.4324 29.249C76.5339 28.9182 76.6222 28.5847 76.7118 28.2486C76.7685 28.0351 76.8265 27.8229 76.8779 27.6081C76.957 27.2772 77.0255 26.9451 77.0914 26.6116C77.1349 26.3902 77.1771 26.1701 77.214 25.9473C77.2693 25.6165 77.3141 25.2856 77.3524 24.9548C77.3655 24.8388 77.3893 24.7241 77.4011 24.6082C78.0799 23.4918 78.7548 22.519 79.4547 21.6491ZM64.2891 14.2351C67.6488 12.5625 70.5762 14.9626 70.6949 15.0615C70.741 15.101 70.7885 15.1366 70.8385 15.1696C72.9593 16.5311 74.2128 18.3619 74.6688 20.7647C74.8639 21.7902 74.8929 22.8657 74.8125 23.9597L74.8032 24.0783C74.6319 26.1542 74.0401 28.2934 73.2888 30.2824C73.3428 29.0184 73.2822 27.7161 73.0687 26.406C73.0621 26.3651 73.0529 26.3256 73.0463 26.286C72.9975 26.0027 72.9435 25.7193 72.8802 25.4346C72.842 25.2606 72.7972 25.0866 72.7524 24.914C72.7155 24.7716 72.6785 24.6279 72.6364 24.4856C72.5691 24.2497 72.4967 24.015 72.4176 23.7804C72.3965 23.7172 72.3728 23.6526 72.3503 23.5893C71.7045 21.7453 70.6817 19.9396 69.162 18.2525C69.1198 18.2064 69.0776 18.1589 69.0354 18.1128C68.818 17.8769 68.5952 17.6436 68.358 17.4142C68.2433 17.3022 68.1207 17.1915 68.0008 17.0808C67.8176 16.912 67.6383 16.742 67.4432 16.5773C67.0887 16.2728 66.7183 15.9723 66.3242 15.6783C66.3216 15.6757 66.3123 15.6678 66.3084 15.6652C66.2029 15.5729 65.971 15.3818 65.6401 15.134C65.6375 15.1327 65.6362 15.13 65.6335 15.1287C65.2961 14.877 64.8572 14.5751 64.3353 14.2654C64.3181 14.2535 64.3049 14.2443 64.2891 14.2351ZM57.7872 21.1549C56.6484 20.5024 55.9893 19.2345 56.1066 17.9256C56.1567 17.3786 56.4348 16.0487 57.944 15.5149C58.3697 15.3633 58.8087 15.2987 59.2476 15.2987C59.9461 15.2987 60.6447 15.4675 61.3024 15.7113C61.3024 15.7113 61.3051 15.7126 61.3064 15.7126C61.3235 15.7192 61.3393 15.7271 61.3565 15.7337C61.5832 15.8194 61.8059 15.9116 62.0194 16.0131C62.1249 16.0632 62.2237 16.1159 62.3265 16.1673C62.4979 16.2556 62.6679 16.3453 62.8261 16.4362C62.888 16.4718 62.95 16.5074 63.0093 16.543C63.7158 16.9687 64.2601 17.3905 64.5277 17.608C64.5791 17.6515 64.6107 17.6791 64.6173 17.6831C64.6476 17.7108 64.6793 17.7358 64.7122 17.7609C65.2869 18.1866 65.8154 18.6361 66.3071 19.1026C66.4468 19.2358 66.5615 19.3742 66.6933 19.5086C67.0294 19.8513 67.3562 20.1993 67.6502 20.5617C67.7793 20.7212 67.8901 20.8833 68.0087 21.0441C68.2776 21.4079 68.5333 21.7796 68.7613 22.1632C68.8509 22.3134 68.9366 22.465 69.0183 22.6166C69.2661 23.0739 69.4915 23.5432 69.6826 24.0269C69.7129 24.102 69.7472 24.1772 69.7762 24.2523C70.7028 26.725 70.9137 29.5311 70.3917 32.6588C70.0293 34.8257 69.365 36.7936 68.7349 38.3146C68.5122 37.5132 68.2762 36.7567 68.0364 36.0225C67.9968 35.8999 67.9546 35.7826 67.9138 35.6614C67.6897 34.9931 67.4577 34.3512 67.2218 33.737C67.1809 33.6329 67.1427 33.5274 67.1019 33.4233C64.2654 26.2465 60.6526 22.7972 57.7872 21.1549ZM76.1819 49.2334C75.4715 51.2091 70.5183 55.5165 63.8384 60.5093C63.7263 60.4632 63.6156 60.4118 63.4878 60.3973C61.3354 60.1614 58.5477 59.0489 57.1716 57.0956C56.7525 56.4998 55.9274 56.3588 55.3343 56.7779C54.7385 57.1971 54.5962 58.0195 55.0166 58.6153C56.4783 60.6873 58.8601 61.9447 61.0296 62.5747C56.8382 65.6128 52.1696 68.8078 47.5235 71.8327C47.3271 71.6601 47.0938 71.527 46.8144 71.4953C45.4634 71.3477 43.7182 70.6584 42.8681 69.4537C42.449 68.8592 41.6278 68.7155 41.0307 69.1373C40.4363 69.5565 40.2939 70.3789 40.7144 70.9747C41.6819 72.3468 43.2029 73.2101 44.6448 73.6886C36.1118 79.1242 28.0479 83.719 23.7207 85.3323C23.6917 85.3428 23.6654 85.3507 23.6456 85.3586C23.6509 85.3362 23.6588 85.3099 23.6693 85.2809C24.733 82.4286 26.7088 78.5851 29.2038 74.2804C29.2513 74.3278 29.2816 74.3858 29.337 74.4267C30.2833 75.1213 31.289 75.725 32.325 76.2192C32.5082 76.3062 32.7019 76.3484 32.8931 76.3484C33.3847 76.3484 33.8566 76.0716 34.0833 75.5984C34.397 74.9407 34.1189 74.1538 33.4625 73.8415C32.5741 73.417 31.7108 72.8991 30.8962 72.302C30.7684 72.2084 30.626 72.1517 30.4823 72.1109C33.5679 66.9533 37.273 61.287 41.0241 55.8961C41.5263 57.2023 42.3554 58.523 43.5891 59.3943C43.8197 59.5577 44.0847 59.6355 44.3483 59.6355C44.7621 59.6355 45.1694 59.4417 45.4264 59.0779C45.8456 58.4835 45.7046 57.661 45.1101 57.2406C43.9041 56.3891 43.2161 54.6453 43.0684 53.293C43.0605 53.2179 43.0223 53.1559 43.0025 53.0847C45.9207 48.9843 48.7954 45.1487 51.3603 41.9432C51.989 44.1154 53.2478 46.505 55.3237 47.9694C55.5544 48.1328 55.8193 48.2106 56.0829 48.2106C56.4968 48.2106 56.9054 48.0168 57.1611 47.653C57.5802 47.0573 57.4392 46.2361 56.8448 45.8157C54.8914 44.437 53.779 41.6493 53.543 39.4995C53.5364 39.4429 53.5061 39.3967 53.4929 39.3427C56.4599 35.8129 58.8113 33.447 59.9778 33.0279C60.6236 32.7959 61.2932 32.6799 61.9931 32.6799C62.6547 32.6799 63.3454 32.7841 64.0703 32.9923C64.6503 34.3025 65.1801 35.726 65.6625 37.2417C65.6942 37.3406 65.7258 37.4381 65.7561 37.5383C65.9552 38.1789 66.1436 38.8405 66.3255 39.514C66.3664 39.6656 66.4086 39.8093 66.4494 39.9635C66.6577 40.7636 66.8567 41.5821 67.0399 42.4256C67.0518 42.481 67.0794 42.5298 67.0979 42.5838C67.1164 42.6352 67.1295 42.6892 67.1546 42.738C67.1612 42.7525 67.1664 42.767 67.1744 42.7815C67.1968 42.8224 67.2284 42.854 67.2547 42.8909C67.2613 42.9001 67.2679 42.9094 67.2758 42.9186C67.3062 42.9594 67.3312 43.0042 67.3655 43.0412C67.3734 43.0491 67.3786 43.0583 67.3866 43.0662H67.3879C67.3918 43.0702 67.3958 43.0728 67.3997 43.0754C67.4366 43.1123 67.4815 43.14 67.5236 43.173C67.5329 43.1809 67.5421 43.1875 67.5513 43.1954C67.5856 43.2217 67.6159 43.2534 67.6528 43.2758C67.6673 43.285 67.6831 43.2903 67.6989 43.2982C67.7292 43.3153 67.7622 43.3272 67.7938 43.3417C67.8241 43.3549 67.8531 43.3628 67.8835 43.3746C67.9243 43.3891 67.9599 43.4128 68.0021 43.4234C68.76 43.6158 69.4968 43.8149 70.2164 44.0192C70.3799 44.0653 70.5314 44.1127 70.6909 44.1589C71.255 44.3223 71.8113 44.4884 72.3503 44.6584C72.4887 44.7019 72.6192 44.7454 72.755 44.7902C73.3165 44.9721 73.8674 45.1566 74.3986 45.3451C74.4909 45.3781 74.5818 45.4097 74.6728 45.4427C75.283 45.6628 75.8761 45.8855 76.4442 46.1135C76.4455 46.1135 76.4469 46.1149 76.4482 46.1149C76.6208 47.2286 76.5339 48.2541 76.1819 49.2334ZM94.4541 51.4372C93.7081 52.5114 92.6247 52.7486 91.847 52.7565C91.8312 52.7565 91.8154 52.7565 91.7996 52.7565C90.293 52.7565 88.7654 51.9393 87.8006 50.616C85.9764 48.1143 82.7208 45.8908 78.1261 43.9612C78.1182 43.9572 78.1129 43.9493 78.1037 43.9453C78.0523 43.9243 77.9969 43.9045 77.9455 43.8834C77.5461 43.7173 77.1283 43.5552 76.7078 43.3944C76.3441 43.2547 75.975 43.1163 75.5967 42.9792C75.2118 42.8408 74.8243 42.7024 74.4223 42.5667C73.8714 42.3795 73.3007 42.1989 72.722 42.0197C72.5046 41.9524 72.3069 41.8813 72.0854 41.8154C72.1922 41.7732 72.3134 41.7323 72.4242 41.6902C72.4637 41.6796 72.5046 41.6888 72.5428 41.6756C76.6551 40.1757 83.6909 38.7245 89.7922 42.9581C90.1072 43.1782 90.4169 43.4313 90.7267 43.683C90.8756 43.803 91.0272 43.9058 91.1748 44.0337C92.1106 44.8469 93.0188 45.813 93.8847 46.9505L94.0521 47.1733C94.0574 47.1798 94.0653 47.1825 94.0693 47.1891C94.5174 47.802 95.6667 49.6921 94.4541 51.4372Z" fill="black"/>
<path d="M74.2207 48.7536C71.5239 47.7255 69.021 45.8776 66.7842 43.2612C66.311 42.7076 65.4794 42.643 64.9258 43.1162C64.3722 43.5894 64.3076 44.4211 64.7808 44.9747C67.3075 47.9298 70.1677 50.0307 73.2822 51.2183C73.4364 51.2763 73.5946 51.3053 73.7515 51.3053C74.2826 51.3053 74.7822 50.9811 74.9838 50.4552C75.2422 49.775 74.9008 49.0132 74.2207 48.7536Z" fill="black"/>
</svg>
