<svg width="120" height="100" viewBox="0 0 120 100" fill="none" xmlns="http://www.w3.org/2000/svg">
<rect width="120" height="100" fill="white"/>
<path d="M22.5111 43.3424C23.152 43.3424 23.6717 42.8226 23.6717 42.1818V40.4409C23.6717 39.8 23.152 39.2803 22.5111 39.2803C21.8703 39.2803 21.3505 39.8 21.3505 40.4409V42.1818C21.3505 42.8228 21.8703 43.3424 22.5111 43.3424Z" fill="black"/>
<path d="M31.2157 43.3424C31.8565 43.3424 32.3763 42.8226 32.3763 42.1818V40.4409C32.3763 39.8 31.8565 39.2803 31.2157 39.2803C30.5748 39.2803 30.0551 39.8 30.0551 40.4409V42.1818C30.0551 42.8228 30.5748 43.3424 31.2157 43.3424Z" fill="black"/>
<path d="M22.5111 48.952C21.8703 48.952 21.3505 49.4718 21.3505 50.1126V51.8535C21.3505 52.4944 21.8703 53.0142 22.5111 53.0142C23.152 53.0142 23.6717 52.4944 23.6717 51.8535V50.1126C23.6717 49.4718 23.152 48.952 22.5111 48.952Z" fill="black"/>
<path d="M31.2157 48.952C30.5748 48.952 30.0551 49.4718 30.0551 50.1126V51.8535C30.0551 52.4944 30.5748 53.0142 31.2157 53.0142C31.8565 53.0142 32.3763 52.4944 32.3763 51.8535V50.1126C32.3763 49.4718 31.8565 48.952 31.2157 48.952Z" fill="black"/>
<path d="M42.3382 54.5616C41.6973 54.5616 41.1776 55.0814 41.1776 55.7223V57.4632C41.1776 58.104 41.6973 58.6238 42.3382 58.6238C42.979 58.6238 43.4988 58.104 43.4988 57.4632V55.7223C43.4988 55.0814 42.979 54.5616 42.3382 54.5616Z" fill="black"/>
<path d="M50.9943 54.5616C50.3535 54.5616 49.8337 55.0814 49.8337 55.7223V57.4632C49.8337 58.104 50.3535 58.6238 50.9943 58.6238C51.6352 58.6238 52.155 58.104 52.155 57.4632V55.7223C52.155 55.0814 51.6352 54.5616 50.9943 54.5616Z" fill="black"/>
<path d="M68.3068 58.6238C68.9476 58.6238 69.4674 58.104 69.4674 57.4632V55.7223C69.4674 55.0814 68.9476 54.5616 68.3068 54.5616C67.6659 54.5616 67.1462 55.0814 67.1462 55.7223V57.4632C67.1462 58.1042 67.6659 58.6238 68.3068 58.6238Z" fill="black"/>
<path d="M59.6506 54.5616C59.0097 54.5616 58.49 55.0814 58.49 55.7223V57.4632C58.49 58.104 59.0097 58.6238 59.6506 58.6238C60.2916 58.6238 60.8112 58.104 60.8112 57.4632V55.7223C60.8112 55.0814 60.2916 54.5616 59.6506 54.5616Z" fill="black"/>
<path d="M76.963 58.6238C77.6038 58.6238 78.1236 58.104 78.1236 57.4632V55.7223C78.1236 55.0814 77.6038 54.5616 76.963 54.5616C76.3221 54.5616 75.8024 55.0814 75.8024 55.7223V57.4632C75.8024 58.1042 76.3221 58.6238 76.963 58.6238Z" fill="black"/>
<path d="M42.3382 61.9121C41.6973 61.9121 41.1776 62.4319 41.1776 63.0727V64.8136C41.1776 65.4545 41.6973 65.9742 42.3382 65.9742C42.979 65.9742 43.4988 65.4545 43.4988 64.8136V63.0727C43.4988 62.4319 42.979 61.9121 42.3382 61.9121Z" fill="black"/>
<path d="M50.9943 61.9121C50.3535 61.9121 49.8337 62.4319 49.8337 63.0727V64.8136C49.8337 65.4545 50.3535 65.9742 50.9943 65.9742C51.6352 65.9742 52.155 65.4545 52.155 64.8136V63.0727C52.155 62.4319 51.6352 61.9121 50.9943 61.9121Z" fill="black"/>
<path d="M68.3068 65.9742C68.9476 65.9742 69.4674 65.4545 69.4674 64.8136V63.0727C69.4674 62.4319 68.9476 61.9121 68.3068 61.9121C67.6659 61.9121 67.1462 62.4319 67.1462 63.0727V64.8136C67.1462 65.4547 67.6659 65.9742 68.3068 65.9742Z" fill="black"/>
<path d="M76.963 65.9742C77.6038 65.9742 78.1236 65.4545 78.1236 64.8136V63.0727C78.1236 62.4319 77.6038 61.9121 76.963 61.9121C76.3221 61.9121 75.8024 62.4319 75.8024 63.0727V64.8136C75.8024 65.4547 76.3221 65.9742 76.963 65.9742Z" fill="black"/>
<path d="M42.3382 48.5652C42.979 48.5652 43.4988 48.0454 43.4988 47.4046V45.6637C43.4988 45.0228 42.979 44.5031 42.3382 44.5031C41.6973 44.5031 41.1776 45.0228 41.1776 45.6637V47.4046C41.1776 48.0456 41.6973 48.5652 42.3382 48.5652Z" fill="black"/>
<path d="M50.9943 48.5652C51.6352 48.5652 52.155 48.0454 52.155 47.4046V45.6637C52.155 45.0228 51.6352 44.5031 50.9943 44.5031C50.3535 44.5031 49.8337 45.0228 49.8337 45.6637V47.4046C49.8337 48.0456 50.3535 48.5652 50.9943 48.5652Z" fill="black"/>
<path d="M68.3068 48.5652C68.9476 48.5652 69.4674 48.0454 69.4674 47.4046V45.6637C69.4674 45.0228 68.9476 44.5031 68.3068 44.5031C67.6659 44.5031 67.1462 45.0228 67.1462 45.6637V47.4046C67.1462 48.0456 67.6659 48.5652 68.3068 48.5652Z" fill="black"/>
<path d="M59.6506 48.5652C60.2916 48.5652 60.8112 48.0454 60.8112 47.4046V45.6637C60.8112 45.0228 60.2916 44.5031 59.6506 44.5031C59.0097 44.5031 58.49 45.0228 58.49 45.6637V47.4046C58.49 48.0456 59.0097 48.5652 59.6506 48.5652Z" fill="black"/>
<path d="M76.963 48.5652C77.6038 48.5652 78.1236 48.0454 78.1236 47.4046V45.6637C78.1236 45.0228 77.6038 44.5031 76.963 44.5031C76.3221 44.5031 75.8024 45.0228 75.8024 45.6637V47.4046C75.8024 48.0456 76.3221 48.5652 76.963 48.5652Z" fill="black"/>
<path d="M53.7024 29.9954V28.2545C53.7024 27.6136 53.1827 27.0939 52.5418 27.0939C51.901 27.0939 51.3812 27.6136 51.3812 28.2545V29.9954C51.3812 30.6362 51.901 31.156 52.5418 31.156C53.1827 31.156 53.7024 30.6364 53.7024 29.9954Z" fill="black"/>
<path d="M66.7593 31.156C67.4002 31.156 67.9199 30.6362 67.9199 29.9954V28.2545C67.9199 27.6136 67.4002 27.0939 66.7593 27.0939C66.1185 27.0939 65.5987 27.6136 65.5987 28.2545V29.9954C65.5987 30.6364 66.1185 31.156 66.7593 31.156Z" fill="black"/>
<path d="M104.141 29.6085H100.372L93.5349 9.78225C93.3736 9.31414 92.9329 9 92.4377 9C91.9425 9 91.5019 9.31414 91.3406 9.78225L84.5036 29.6085H80.7349C80.0941 29.6085 79.5743 30.1283 79.5743 30.7691V37.1525C79.5743 37.7933 80.0941 38.3131 80.7349 38.3131H82.089V41.2146H72.1271V25.5464H73.5779C74.2187 25.5464 74.7385 25.0266 74.7385 24.3858V15.8747C74.7385 15.2338 74.2187 14.7141 73.5779 14.7141H69.1289C68.488 14.7141 67.9683 15.2338 67.9683 15.8747V17.4221H66.2273V15.8747C66.2273 15.2338 65.7076 14.7141 65.0667 14.7141H54.2344C53.5936 14.7141 53.0738 15.2338 53.0738 15.8747V17.4221H51.3329V15.8747C51.3329 15.2338 50.8133 14.7141 50.1723 14.7141H45.7233C45.0824 14.7141 44.5627 15.2338 44.5627 15.8747V24.3858C44.5627 25.0266 45.0824 25.5464 45.7233 25.5464H47.174V41.2146H37.2122V38.3131H38.5662C39.207 38.3131 39.7268 37.7933 39.7268 37.1525V30.7691C39.7268 30.1283 39.207 29.6085 38.5662 29.6085H34.7977L27.9606 9.78225C27.7992 9.31414 27.3584 9 26.8634 9C26.3682 9 25.9276 9.31414 25.7662 9.78225L18.9291 29.6085H15.1606C14.5198 29.6085 14 30.1283 14 30.7691V37.1525C14 37.7933 14.5198 38.3131 15.1606 38.3131H16.5146V44.5204C15.9659 44.6127 15.5475 45.0887 15.5475 45.6636C15.5475 46.2385 15.9659 46.7145 16.5146 46.8068V75.8394C16.5146 76.4802 17.0344 77 17.6753 77H35.7614H36.0515H83.2496H83.5397H101.626C102.267 77 102.786 76.4802 102.786 75.8394V46.8068C103.335 46.7145 103.754 46.2385 103.754 45.6636C103.754 45.0887 103.335 44.6127 102.786 44.5204V38.3131H104.141C104.781 38.3131 105.301 37.7933 105.301 37.1525V30.7691C105.301 30.1283 104.782 29.6085 104.141 29.6085ZM92.4377 13.7208L97.9166 29.6087H86.9589L92.4377 13.7208ZM62.939 74.6788H56.3622V68.8757C56.3622 67.0625 57.8373 65.5874 59.6506 65.5874C61.464 65.5874 62.939 67.0625 62.939 68.8757V74.6788ZM59.6506 63.2661C56.5574 63.2661 54.041 65.7827 54.041 68.8757V74.6788H37.2122V51.8535H82.089V74.6788H65.2602V68.8757C65.2602 65.7827 62.7438 63.2661 59.6506 63.2661ZM46.8839 17.0353H49.0117V18.5828C49.0117 19.2236 49.5314 19.7434 50.1723 19.7434H54.2344C54.8754 19.7434 55.395 19.2236 55.395 18.5828V17.0353H63.9061V18.5828C63.9061 19.2236 64.4259 19.7434 65.0667 19.7434H69.1289C69.7697 19.7434 70.2895 19.2236 70.2895 18.5828V17.0353H72.4173V23.2252H70.9665H48.3346H46.8839V17.0353ZM49.4953 25.5464H69.8059V41.2146H66.1647C64.9093 36.8581 63.055 32.6153 60.6462 28.5907C60.4367 28.2404 60.0585 28.026 59.6504 28.026C59.2422 28.026 58.8641 28.2404 58.6546 28.5907C56.2459 32.6149 54.3919 36.8577 53.1365 41.2146H49.4953V25.5464ZM63.744 41.2146H55.5571C56.5634 37.8947 57.935 34.6459 59.6506 31.5195C61.3661 34.6463 62.7378 37.8949 63.744 41.2146ZM82.089 43.5358V44.5204C81.5404 44.6127 81.1218 45.0887 81.1218 45.6636C81.1218 46.2385 81.5404 46.7145 82.089 46.8068V49.5323H37.2122V46.8068C37.7609 46.7145 38.1793 46.2385 38.1793 45.6636C38.1793 45.0887 37.7609 44.6127 37.2122 44.5204V43.5358H82.089ZM26.8634 13.7208L32.3422 29.6087H21.3846L26.8634 13.7208ZM16.3212 31.9297H37.4056V35.9919H36.0515H17.6753H16.3212V31.9297ZM34.8909 38.3131V44.503H18.8359V38.3131H34.8909ZM18.8359 74.6788V46.8242H34.8909V74.6788H18.8359ZM84.4102 74.6788V46.8242H100.465V74.6788H84.4102ZM100.465 44.503H84.4102V38.3131H100.465V44.503ZM102.98 35.9919H101.626H83.2496H81.8955V31.9297H102.98V35.9919Z" fill="black"/>
<path d="M88.0855 43.3424C88.7263 43.3424 89.2461 42.8226 89.2461 42.1818V40.4409C89.2461 39.8 88.7263 39.2803 88.0855 39.2803C87.4446 39.2803 86.9249 39.8 86.9249 40.4409V42.1818C86.9249 42.8228 87.4446 43.3424 88.0855 43.3424Z" fill="black"/>
<path d="M96.79 43.3424C97.4309 43.3424 97.9506 42.8226 97.9506 42.1818V40.4409C97.9506 39.8 97.4309 39.2803 96.79 39.2803C96.1492 39.2803 95.6294 39.8 95.6294 40.4409V42.1818C95.6294 42.8228 96.1492 43.3424 96.79 43.3424Z" fill="black"/>
<path d="M88.0855 48.952C87.4446 48.952 86.9249 49.4718 86.9249 50.1126V51.8535C86.9249 52.4944 87.4446 53.0142 88.0855 53.0142C88.7263 53.0142 89.2461 52.4944 89.2461 51.8535V50.1126C89.2461 49.4718 88.7265 48.952 88.0855 48.952Z" fill="black"/>
<path d="M96.79 48.952C96.1492 48.952 95.6294 49.4718 95.6294 50.1126V51.8535C95.6294 52.4944 96.1492 53.0142 96.79 53.0142C97.4309 53.0142 97.9506 52.4944 97.9506 51.8535V50.1126C97.9506 49.4718 97.431 48.952 96.79 48.952Z" fill="black"/>
</svg>
