<svg width="120" height="100" viewBox="0 0 120 100" fill="none" xmlns="http://www.w3.org/2000/svg">
<g clip-path="url(#clip0_101_2385)">
<rect width="120" height="100" fill="white"/>
<path d="M77.9082 76.3298C78.4223 76.4198 78.8722 76.4712 79.3055 76.5814C81.621 77.1745 83.3139 79.2935 83.3984 81.686C83.4278 82.5031 82.9908 82.9897 82.1626 82.9897C74.7867 82.9916 67.4088 82.9842 60.0328 82.9824C57.7045 82.9824 55.3781 82.9916 53.0498 82.9934C51.983 82.9952 51.7645 82.8336 51.4229 81.8017C51.243 81.26 51.0685 80.7165 50.8831 80.1528C49.6639 80.3768 48.4648 80.7 47.2474 80.7991C43.7293 81.0893 40.8979 79.7488 38.968 76.8073C37.0382 73.8712 36.9629 70.7441 38.5916 67.6208C39.0213 66.7982 39.0617 66.0857 38.531 65.3145C38.1436 64.749 37.8039 64.1485 37.477 63.5444C36.4745 61.6936 37.1025 59.4387 38.8891 58.4086C40.6628 57.3858 42.8901 57.9404 44.0102 59.6939C45.2074 61.5724 46.1365 63.5353 46.0631 65.847C46.0117 67.4665 45.5214 68.9465 44.7649 70.3567C44.4362 70.9718 44.1718 71.5906 44.3885 72.3196C44.6547 73.2138 45.4259 73.9208 46.3532 73.84C47.5504 73.7353 48.7347 73.4672 49.7906 73.2928C49.9925 71.9487 50.0917 70.7148 50.3763 69.5231C50.795 67.7714 51.7534 66.2712 52.9984 64.995C54.1515 63.8144 54.7758 62.6502 54.4012 60.8471C54.0211 59.0219 54.539 57.1692 55.4387 55.4799C57.4493 51.7028 59.4471 47.9203 61.4632 44.1138C61.3843 44.022 61.32 43.9302 61.2411 43.8549C58.9017 41.5836 58.1177 38.8531 58.9109 35.7022C59.067 35.0834 58.9734 34.663 58.6043 34.1507C56.1658 30.7684 54.8952 26.984 54.8236 22.803C54.8144 22.2668 54.8897 21.7949 55.4167 21.5177C55.9492 21.2367 56.3788 21.4681 56.8085 21.7766C58.9109 23.2859 61.0226 24.7806 63.1176 26.2991C63.4684 26.5525 63.7254 26.6204 64.1478 26.3891C65.6534 25.5609 67.2821 25.2488 68.9898 25.5132C69.4801 25.5885 69.7206 25.4471 69.9354 25.0046C71.0886 22.6396 72.2766 20.2911 73.4462 17.9334C73.6794 17.4652 73.942 17.0392 74.5296 17.0025C75.1521 16.9639 75.4532 17.3862 75.747 17.8508C77.9835 21.3689 79.0631 25.2102 79.0246 29.3766C79.0209 29.7456 79.1605 30.1276 79.2872 30.4856C79.748 31.7948 80.3981 33.0618 80.6698 34.4059C81.1564 36.8076 80.4825 39.0258 79.1164 41.0474C78.997 41.2237 78.9309 41.6019 79.0356 41.7415C80.6331 43.8972 81.3143 46.3485 81.4943 48.9871C81.6136 50.7241 81.7789 52.4575 81.9533 54.189C82.2912 57.5474 81.7238 60.7534 80.4256 63.8529C80.3118 64.1228 80.2603 64.4864 80.3393 64.7618C81.4612 68.6564 80.8241 72.2333 78.4701 75.5183C78.2883 75.7716 78.1157 76.0305 77.9082 76.3298ZM66.9186 80.7955C66.9186 80.465 66.9186 80.2171 66.9186 79.9692C66.9186 77.9751 66.7882 75.9718 66.9498 73.9905C67.1701 71.2803 66.5605 68.8767 65.1081 66.5852C64.0945 64.9858 63.3049 63.2433 62.4364 61.5558C62.1114 60.9224 62.3024 60.3219 62.8661 60.0226C63.4243 59.727 64.0082 59.9198 64.3718 60.5368C64.5572 60.8526 64.7188 61.1813 64.8896 61.5063C65.9105 63.4453 66.9314 65.3843 67.9982 67.4078C68.1672 67.1158 68.2976 66.9065 68.4132 66.6898C69.5755 64.5084 70.7342 62.3252 71.8965 60.1438C72.0581 59.8408 72.1976 59.5195 72.4033 59.2496C72.7668 58.7685 73.2626 58.6345 73.7988 58.9356C74.3258 59.2312 74.4984 59.7031 74.289 60.2815C74.2193 60.4743 74.1128 60.6524 74.0155 60.8342C72.4804 63.7244 70.9362 66.609 69.4213 69.5084C69.2395 69.8554 69.1349 70.2833 69.133 70.6744C69.1091 73.7904 69.1202 76.9064 69.1202 80.0224C69.1202 80.263 69.1202 80.5054 69.1202 80.7165C69.2634 80.7587 69.3056 80.7808 69.3479 80.7808C70.1503 80.7863 70.9508 80.79 71.7533 80.79C72.9009 80.7918 72.956 80.7441 73.0882 79.5964C73.1084 79.4165 73.1378 79.2163 73.0863 79.0511C72.6897 77.7731 72.9798 76.5171 73.1414 75.2465C73.3434 73.6417 73.7694 72.1378 74.5479 70.6982C75.7213 68.526 76.7697 66.2859 77.8843 64.0788C79.3386 61.1959 80.0455 58.1479 79.8215 54.9198C79.6599 52.5897 79.4175 50.2651 79.177 47.9423C78.9897 46.1318 78.3507 44.4903 77.2306 43.0287C72.9651 46.1116 68.3618 46.9361 63.349 45.3404C63.3141 45.3863 63.2645 45.4341 63.2333 45.4928C61.208 49.3139 59.0964 53.0928 57.1959 56.9745C56.1713 59.066 56.1677 61.3282 57.33 63.4545C58.9219 66.3667 60.5488 69.2587 62.15 72.1654C62.3226 72.4812 62.4731 72.8301 62.5374 73.1808C62.7431 74.3064 62.9506 75.4356 63.0626 76.5722C63.1232 77.1874 62.9689 77.8227 62.9487 78.4488C62.9285 79.0786 62.9175 79.714 62.9873 80.3383C63.0056 80.5072 63.3306 80.7624 63.5216 80.7698C64.6123 80.8175 65.7104 80.7955 66.9186 80.7955ZM74.6875 20.427C74.5278 20.7318 74.4194 20.9282 74.3184 21.1284C73.3159 23.1335 72.317 25.1405 71.3089 27.1437C70.9343 27.8874 70.523 28.1261 69.8344 27.9205C67.855 27.3292 66.0354 27.6432 64.3516 28.8165C63.8338 29.1764 63.3417 29.1654 62.833 28.7926C62.0214 28.1959 61.1988 27.6156 60.378 27.0299C59.3424 26.2918 58.3068 25.5573 57.1959 24.7695C57.2125 25.0248 57.2069 25.1625 57.2308 25.2947C57.688 27.9755 58.5767 30.5187 60.2697 32.6431C61.2723 33.9028 61.4082 35.0173 61.0042 36.5249C60.1467 39.7364 62.2638 43.0103 65.4735 43.664C68.7015 44.3195 71.7569 43.8292 74.5994 42.1399C76.0004 41.3063 77.2104 40.267 77.9155 38.7558C78.8759 36.6993 78.9163 34.6079 77.8494 32.6046C77.1205 31.2348 76.7624 29.8595 76.7642 28.2969C76.7716 25.5554 76.0334 22.9627 74.6875 20.427ZM50.3286 75.4264C49.2709 75.6156 48.2206 75.8231 47.163 75.9883C45.3965 76.2656 43.9368 75.6817 42.9067 74.2329C41.8894 72.8025 41.86 71.2583 42.6331 69.6883C42.9452 69.053 43.2831 68.4214 43.5108 67.7548C44.427 65.074 43.5016 62.7659 41.95 60.6267C41.5038 60.0134 40.5967 59.94 39.9541 60.3348C39.2802 60.7479 38.9864 61.5834 39.3298 62.305C39.5923 62.8614 39.91 63.3975 40.257 63.9062C41.3679 65.5257 41.3716 67.1011 40.437 68.8565C38.3805 72.7199 40.6059 77.4536 44.8641 78.4782C47.0638 79.007 49.1057 78.2432 51.1769 77.7125C51.2063 77.7052 51.2228 77.6391 51.2448 77.5987C50.9455 76.8881 50.6462 76.1793 50.3286 75.4264ZM60.637 80.7477C60.637 80.0371 60.4827 79.31 60.67 78.6857C61.0409 77.4554 60.771 76.2913 60.6223 75.0959C60.4919 74.0383 60.1834 73.0688 59.6399 72.136C58.4188 70.0427 57.2712 67.9054 56.0924 65.7864C55.9859 65.5955 55.8647 65.4137 55.7453 65.219C52.3851 68.4728 51.2063 72.0368 52.9029 75.7772C57.1721 74.0897 60.6241 76.7871 59.7262 80.7459C60.0677 80.7477 60.3982 80.7477 60.637 80.7477ZM55.3395 80.7955C55.659 80.7955 55.9785 80.7955 56.298 80.7955C57.3832 80.7955 57.6586 80.5164 57.6623 79.4165C57.666 78.4011 56.915 77.5895 55.8922 77.5013C54.2635 77.36 53.2444 77.9402 53.0737 79.1043C52.9029 80.2795 53.3436 80.7955 54.5169 80.7955C54.7923 80.7955 55.0659 80.7955 55.3395 80.7955ZM80.9893 80.7698C80.5394 79.6662 79.8215 78.9189 78.7473 78.7481C77.6162 78.5682 76.4521 78.5994 75.3357 78.5406C75.2769 79.3522 75.2255 80.0481 75.1723 80.7698C77.0837 80.7698 78.9934 80.7698 80.9893 80.7698ZM75.3357 76.0397C77.3537 73.548 78.9254 71.0379 78.5288 67.775C77.4381 70.4761 75.3228 72.775 75.3357 76.0397Z" fill="black"/>
<path d="M71.621 40.7683C70.9031 40.4598 70.1796 40.6544 69.4525 41.1814C68.9604 41.5376 68.4334 41.3246 68.0753 40.8454C67.7357 40.3937 67.8054 39.7033 68.3067 39.3874C68.8447 39.0477 69.0026 38.686 68.8796 38.058C68.7529 37.4025 69.1716 36.9049 69.761 36.8094C70.3339 36.7158 70.9233 37.0738 70.9912 37.7257C71.061 38.3904 71.4154 38.5171 71.9607 38.596C72.6126 38.6915 73.0074 39.213 72.9431 39.7877C72.8807 40.3753 72.3757 40.794 71.621 40.7683Z" fill="black"/>
<path d="M71.3273 32.913C71.3383 31.9931 72.0893 31.2696 73.0019 31.2953C73.8814 31.321 74.5994 32.0555 74.603 32.9332C74.6067 33.8348 73.8483 34.5913 72.9468 34.5876C72.0324 34.5821 71.3144 33.8403 71.3273 32.913Z" fill="black"/>
<path d="M63.3545 35.4102C63.3545 34.4866 64.0871 33.7577 65.0071 33.7687C65.8829 33.7797 66.6156 34.5068 66.6358 35.3845C66.656 36.2806 65.8995 37.0573 64.9997 37.0628C64.0798 37.0683 63.3545 36.3393 63.3545 35.4102Z" fill="black"/>
</g>
<defs>
<clipPath id="clip0_101_2385">
<rect width="120" height="100" fill="white"/>
</clipPath>
</defs>
</svg>
