<svg width="120" height="100" viewBox="0 0 120 100" fill="none" xmlns="http://www.w3.org/2000/svg">
<g clip-path="url(#clip0_77_479)">
<rect width="120" height="100" fill="white"/>
<path d="M54.0974 66.2012C53.0211 65.2789 52.0512 64.4291 51.0564 63.6111C50.857 63.4479 50.5692 63.3482 50.3086 63.312C44.9925 62.5801 39.6719 61.8572 34.3535 61.1389C30.4061 60.6063 26.4519 60.1191 22.5112 59.5458C18.301 58.934 16.5946 55.1316 18.8675 51.5286C19.4408 50.62 19.9982 49.7022 20.601 48.8139C22.4818 46.0312 25.9103 45.0682 28.9785 46.4459C35.5205 49.3827 42.0625 52.3149 48.5955 55.2676C49.1733 55.5282 49.5722 55.6573 50.1545 55.1497C50.5987 54.7645 51.3306 54.6875 51.9515 54.5357C52.2642 54.4586 52.6132 54.5221 52.944 54.5221C52.944 53.1081 52.7718 51.762 52.9825 50.4817C53.336 48.3426 54.605 46.6997 56.4767 45.6143C57.1226 45.2404 57.2789 44.837 57.2767 44.1459C57.2517 37.0215 57.3061 29.8971 57.2381 22.7727C57.2132 20.1147 58.8742 19.6977 60.8819 20.1011C61.7249 20.271 62.2778 21.0551 62.3027 21.9909C62.3299 23.065 62.314 24.1391 62.314 25.2132C62.314 31.5173 62.3208 37.8214 62.3027 44.1278C62.3004 44.7509 62.4319 45.118 63.0437 45.4398C66.0439 47.0192 67.5962 50.3707 66.9753 53.7425C66.9345 53.9623 66.8982 54.1844 66.8393 54.5266C68.174 54.4518 69.4294 54.5764 70.3267 55.6777C74.9336 53.6088 79.4905 51.5649 84.0453 49.5187C86.3362 48.4899 88.6249 47.4498 90.9204 46.4278C93.9161 45.0931 97.3083 46.0312 99.1778 48.7323C99.8531 49.7067 100.472 50.7219 101.102 51.728C103.166 55.0364 101.525 58.8479 97.6845 59.4665C94.0611 60.0512 90.4105 60.4749 86.7713 60.9689C81.0609 61.7439 75.3482 62.5075 69.6424 63.3052C69.2685 63.3573 68.8946 63.6134 68.5819 63.8536C67.6052 64.6082 66.6558 65.399 65.5658 66.2827C65.9963 68.1069 66.4745 70.1305 66.9526 72.154C67.2902 73.5816 67.646 75.007 67.9678 76.4391C68.4867 78.7414 67.0319 80.7989 64.6707 80.8714C61.5073 80.9689 58.3372 80.9689 55.1715 80.8714C52.8126 80.7989 51.3669 78.7595 51.8699 76.4368C52.5928 73.099 53.3292 69.7634 54.0589 66.4255C54.0906 66.2918 54.1065 66.1558 54.0974 66.2012ZM70.3381 61.8096C71.7045 61.6306 73.2386 61.4334 74.7727 61.2272C80.0321 60.518 85.2893 59.8087 90.5488 59.0949C92.9258 58.7709 95.3165 58.5239 97.6732 58.0843C100.188 57.6152 101.41 55.05 100.207 52.8973C99.52 51.6669 98.7541 50.4727 97.9292 49.3306C96.5266 47.3863 93.9342 46.5977 91.8155 47.5382C85.0083 50.5542 78.2238 53.6247 71.4371 56.6861C71.2467 56.7722 71.0156 56.9943 70.9861 57.1824C70.7482 58.6938 70.5556 60.2143 70.3381 61.8096ZM49.5722 61.8073C49.3274 60.3911 49.0056 59.0224 48.8923 57.6378C48.8425 57.0215 48.6703 56.7722 48.1468 56.5388C41.6071 53.6179 35.0764 50.6766 28.5411 47.7421C25.8921 46.5524 23.1842 47.3478 21.5867 49.7861C20.9998 50.6834 20.4265 51.5898 19.8622 52.503C18.378 54.8982 19.4634 57.5177 22.2234 58.1069C23.3247 58.3426 24.4532 58.44 25.5726 58.5918C32.1169 59.4756 38.6612 60.3571 45.2055 61.2386C46.7056 61.438 48.208 61.6283 49.5722 61.8073ZM59.9302 55.8839C57.3605 55.8839 54.7931 55.8771 52.2234 55.8862C50.7981 55.8907 50.1772 56.5592 50.2248 57.9959C50.3335 61.3065 52.6902 64.3498 55.9284 65.186C58.2805 65.7933 60.7029 65.6709 63.0777 65.365C66.6694 64.9005 69.4928 61.6419 69.6197 58.0117C69.6718 56.5434 69.0442 55.8885 67.5531 55.8862C65.0129 55.8794 62.4704 55.8839 59.9302 55.8839ZM55.3936 66.7201C54.6866 69.9356 53.9524 73.2644 53.2227 76.5955C52.8466 78.3108 53.762 79.5232 55.516 79.5436C58.455 79.5753 61.394 79.5753 64.3308 79.5436C66.087 79.5232 67.0138 78.295 66.615 76.5955C66.053 74.2071 65.4774 71.8209 64.9086 69.4348C64.682 68.4853 64.4532 67.5381 64.2583 66.7224C61.2717 66.7201 58.4097 66.7201 55.3936 66.7201ZM59.9279 54.5266C61.5368 54.5266 63.1457 54.5107 64.7523 54.5357C65.2259 54.5424 65.5137 54.4269 65.5454 53.9148C65.5907 53.1307 65.7312 52.3399 65.6746 51.5626C65.4706 48.712 63.1343 46.242 60.5057 46.0176C56.4586 45.6755 53.3043 49.598 54.2492 53.7629C54.3784 54.3294 54.5688 54.5583 55.1874 54.5402C56.7668 54.4949 58.3485 54.5266 59.9279 54.5266ZM60.9272 44.6558C60.9408 44.3816 60.9567 44.189 60.9567 43.9941C60.959 36.8153 60.959 29.6388 60.9567 22.46C60.9567 22.2901 61.0065 22.0838 60.9295 21.9592C60.7958 21.7394 60.6123 21.4675 60.3924 21.3972C59.196 21.0188 58.6227 21.4562 58.6204 22.7002C58.6181 29.709 58.6204 36.7179 58.6204 43.7267C58.6204 44.0281 58.6204 44.3317 58.6204 44.6558C59.4339 44.6558 60.1341 44.6558 60.9272 44.6558Z" fill="black"/>
</g>
<defs>
<clipPath id="clip0_77_479">
<rect width="120" height="100" fill="white"/>
</clipPath>
</defs>
</svg>
