<svg width="120" height="100" viewBox="0 0 120 100" fill="none" xmlns="http://www.w3.org/2000/svg">
<rect width="120" height="100" fill="white"/>
<path d="M76.6887 3H43.4652C39.3496 3 36 6.34943 36 10.4652V89.5348C36 93.6504 39.3496 97 43.4652 97H76.6887C80.8041 97 84.1537 93.6506 84.1537 89.5348V10.4652C84.1536 6.34943 80.8041 3 76.6887 3ZM81.8416 89.5348C81.8416 92.3757 79.5294 94.6878 76.6887 94.6878H43.4652C40.6243 94.6878 38.3122 92.3757 38.3122 89.5348V10.4652C38.3122 7.62431 40.6243 5.31216 43.4652 5.31216H76.6887C79.5294 5.31216 81.8416 7.62431 81.8416 10.4652V89.5348Z" fill="black"/>
<path d="M78.7942 15.5811H40.692C40.2666 15.5811 39.9213 15.9263 39.9213 16.3517V79.4416C39.9213 79.8672 40.2666 80.2123 40.692 80.2123H78.7942C79.2196 80.2123 79.5649 79.867 79.5649 79.4416V16.3519C79.5651 15.9249 79.2196 15.5811 78.7942 15.5811ZM78.0236 78.6695H41.4628V17.1225H78.0236V78.6695Z" fill="black"/>
<path d="M53.8742 12.882C54.4557 12.882 54.927 12.4107 54.927 11.8292C54.927 11.2478 54.4557 10.7765 53.8742 10.7765C53.2928 10.7765 52.8215 11.2478 52.8215 11.8292C52.8215 12.4107 53.2928 12.882 53.8742 12.882Z" fill="black"/>
<path d="M56.9216 12.6H63.2321C63.6575 12.6 64.0028 12.2548 64.0028 11.8294C64.0028 11.4038 63.6574 11.0587 63.2321 11.0587H56.9216C56.4962 11.0587 56.1509 11.404 56.1509 11.8294C56.1509 12.2548 56.4962 12.6 56.9216 12.6Z" fill="black"/>
<path d="M72.5622 88.8428H72.0799V88.5514L71.2475 89.0322L72.0799 89.5131V89.2294H72.5606C73.3886 89.2294 73.6288 89.2756 73.6288 89.5887C73.6288 89.9201 73.5271 89.9478 73.0092 89.9478H72.1937C72.0873 89.9478 72.0011 90.0342 72.0011 90.1404C72.0011 90.2468 72.0873 90.3331 72.1937 90.3331H73.0092C73.4333 90.3331 74.014 90.3331 74.014 89.5887C74.0142 88.8443 73.2775 88.8428 72.5622 88.8428Z" fill="black"/>
<path d="M48.2218 88.1335H45.6323C45.5259 88.1335 45.4396 88.2199 45.4396 88.3262V90.8495C45.4396 90.9557 45.526 91.0421 45.6323 91.0421H48.2218C48.3282 91.0421 48.4145 90.9557 48.4145 90.8495V88.3262C48.4146 88.2201 48.3282 88.1335 48.2218 88.1335ZM48.0292 90.657H45.825V89.5225H46.8269V88.5206H48.0276V90.657H48.0292Z" fill="black"/>
<path d="M59.6854 88.1768C59.6082 88.1152 59.502 88.1197 59.431 88.1861L58.0915 89.447C58.0345 89.501 58.0161 89.5843 58.0453 89.6583C58.073 89.7323 58.1455 89.78 58.224 89.78H58.4645V90.9283C58.4645 91.0347 58.5508 91.121 58.6572 91.121H59.2876C59.394 91.121 59.4802 91.0347 59.4802 90.9283V90.2333H59.6867V90.9283C59.6867 91.0347 59.7731 91.121 59.8793 91.121H60.6485C60.7549 91.121 60.8412 91.0347 60.8412 90.9283V89.8185H61.1603C61.2419 89.8185 61.3143 89.7677 61.342 89.6905C61.3697 89.6135 61.3452 89.5287 61.2819 89.4763L59.6854 88.1768ZM60.4561 89.6273V90.7372H60.0723V90.0421C60.0723 89.9357 59.986 89.8495 59.8796 89.8495H59.2879C59.1815 89.8495 59.0953 89.9357 59.0953 90.0421V90.7372H58.8501V89.5888C58.8501 89.4979 58.7884 89.4223 58.7036 89.4023L59.5731 88.5838L60.6228 89.4378C60.5285 89.4486 60.4561 89.5303 60.4561 89.6273Z" fill="black"/>
</svg>
