<svg width="120" height="100" viewBox="0 0 120 100" fill="none" xmlns="http://www.w3.org/2000/svg">
<rect width="120" height="100" fill="white"/>
<path d="M94.6728 18.487L91.5131 15.3273C91.0853 14.8995 90.3944 14.8898 89.9553 15.3057L83.1674 21.7273L80.8635 19.4236C80.4271 18.9873 79.7199 18.9873 79.2836 19.4236C78.8473 19.8598 78.8473 20.5672 79.2836 21.0034L81.5437 23.2635L79.9199 24.7995L77.7038 22.5834C77.2675 22.1472 76.5602 22.147 76.1238 22.5834C75.6876 23.0197 75.6876 23.7271 76.1238 24.1633L78.2962 26.3357L66.379 37.6098C62.2584 35.4133 57.3848 35.3471 53.2462 37.3558L34.3062 18.4162C32.1282 16.2381 28.5844 16.2381 26.4066 18.4162L25.3533 19.4694C25.1437 19.6788 25.026 19.9631 25.026 20.2593C25.026 20.5556 25.1437 20.8399 25.3533 21.0493L44.0791 39.7751C44.2972 39.9931 44.5832 40.1024 44.8691 40.1024C45.1549 40.1024 45.441 39.9934 45.659 39.7751C46.0953 39.3388 46.0953 38.6314 45.659 38.1953L34.043 26.5791L36.6762 23.9459L51.2559 38.5256C51.2036 38.5622 51.1504 38.5971 51.0983 38.6345L47.4189 41.2802C46.9192 41.6396 46.8042 42.3356 47.162 42.8366C48.2313 44.3336 47.8874 46.427 46.3953 47.5029L41.5633 50.9869C40.0646 52.0674 37.9655 51.7277 36.8847 50.2287C36.5242 49.729 35.8268 49.6151 35.3264 49.9751L32.602 51.934C31.797 52.5127 31.0345 53.1606 30.3353 53.8597C23.486 60.709 23.2319 71.6924 29.5702 78.8501L29.282 79.1383C28.8457 79.5746 28.8457 80.282 29.282 80.7181C29.5001 80.9362 29.7861 81.0454 30.072 81.0454C30.3578 81.0454 30.6439 80.9365 30.8619 80.7181L31.1501 80.4299C34.5902 83.4763 38.9137 85.0007 43.2378 85.0007C47.9105 85.0007 52.5834 83.2221 56.1405 79.6648C56.8396 78.9656 57.4874 78.2031 58.0662 77.3981L60.0252 74.6737C60.385 74.1732 60.2715 73.4758 59.7716 73.1154C58.2726 72.0346 57.9325 69.9358 59.0133 68.4368L62.4975 63.6048C63.5733 62.1124 65.6667 61.7687 67.1636 62.8381C67.6643 63.1958 68.3603 63.0812 68.72 62.5812L71.3654 58.9018C71.4028 58.8498 71.4376 58.7965 71.4743 58.7442L82.8939 70.1639L80.2609 72.797L71.8044 64.3405C71.368 63.9043 70.6608 63.9043 70.2245 64.3405C69.7882 64.7768 69.7882 65.4842 70.2245 65.9203L85.7895 81.4854C85.7919 81.4877 88.9505 84.6464 88.9505 84.6464C89.1687 84.8644 89.4547 84.9737 89.7406 84.9737C90.0265 84.9737 90.3125 84.8646 90.5307 84.6464C90.967 84.2101 90.967 83.5027 90.5307 83.0666L88.1608 80.6966L88.4241 80.4333C90.6018 78.2554 90.6018 74.7117 88.4241 72.5338L85.2651 69.3747C85.2636 69.3732 72.6442 56.7538 72.6442 56.7538C74.653 52.615 74.5867 47.7416 72.3901 43.621L83.6644 31.7038L85.8367 33.8761C86.0549 34.0942 86.3409 34.2034 86.6268 34.2034C86.9127 34.2034 87.1987 34.0945 87.4169 33.8761C87.8532 33.4399 87.8532 32.7325 87.4169 32.2963L85.2006 30.08L86.7366 28.4564L88.9966 30.7164C89.2148 30.9345 89.5008 31.0437 89.7867 31.0437C90.0726 31.0437 90.3586 30.9347 90.5768 30.7164C91.0131 30.2801 91.0131 29.5727 90.5768 29.1366L88.2729 26.8327L94.6945 20.0447C95.1102 19.6054 95.1005 18.9148 94.6728 18.487ZM32.4629 24.9992L27.7232 20.2593L27.9866 19.996C29.2932 18.6894 31.4196 18.6892 32.7264 19.996L35.0963 22.3659L32.4629 24.9992ZM84.4743 71.7442L86.8441 74.114C88.1508 75.4207 88.1508 77.547 86.8441 78.8538L86.5809 79.117L81.8412 74.3773L84.4743 71.7442ZM69.5514 57.5976L67.4909 60.4637C65.1261 59.4099 62.2556 60.1203 60.6851 62.2981L57.2011 67.13C55.6232 69.3184 55.8625 72.2739 57.6252 74.1841L56.2522 76.0936C55.7436 76.8008 55.1747 77.4707 54.5607 78.0847C48.3174 84.3281 38.1588 84.3282 31.9152 78.0847C25.6718 71.8416 25.6718 61.6828 31.9151 55.4395C32.5291 54.8255 33.199 54.2563 33.9063 53.748L35.8157 52.3751C37.726 54.1378 40.6817 54.377 42.8699 52.7992L47.7018 49.3151C49.8797 47.7449 50.59 44.8743 49.5363 42.5095L52.4022 40.4487C56.0119 37.8535 60.6769 37.4317 64.6496 39.2457L50.9186 52.2355C50.6995 52.4429 50.5736 52.7298 50.5693 53.0314C50.5651 53.3331 50.6831 53.6236 50.8965 53.8369L56.1628 59.1032C56.3724 59.3129 56.6567 59.4305 56.9528 59.4305C56.958 59.4305 56.9632 59.4305 56.9682 59.4304C57.2698 59.4261 57.5571 59.3002 57.7642 59.081L70.7542 45.3501C72.5686 49.3231 72.1468 53.9881 69.5514 57.5976ZM56.9309 56.7113L53.289 53.0693L76.6292 30.9886L79.0116 33.3711L56.9309 56.7113ZM80.5477 31.7471L78.2528 29.4523L86.3714 21.7719L88.2282 23.6287L80.5477 31.7471ZM89.7643 22.0048L87.9951 20.2357L90.7012 17.6756L92.3242 19.2987L89.7643 22.0048Z" fill="black"/>
<path d="M49.3169 65.9497L44.0504 60.6833C43.6141 60.247 42.9067 60.247 42.4706 60.6833C38.7476 64.4063 37.1269 66.5703 35.5598 68.6632C34.5163 70.0567 33.5306 71.3729 31.9435 73.1531C31.533 73.6137 31.5734 74.3199 32.0339 74.7305C32.4945 75.141 33.2007 75.1006 33.6113 74.6401C35.262 72.7888 36.3226 71.3723 37.3481 70.0027C38.8177 68.0402 40.212 66.1782 43.2647 63.0576L46.9427 66.7356C43.8219 69.7883 41.9601 71.1824 39.9976 72.652C38.6279 73.6777 37.2115 74.7383 35.3602 76.389C34.8996 76.7996 34.8592 77.5059 35.2698 77.9664C35.4906 78.214 35.7967 78.3402 36.1041 78.3402C36.3686 78.3402 36.6343 78.2468 36.8472 78.0569C38.6274 76.4697 39.9435 75.4841 41.3369 74.4406C43.4297 72.8734 45.594 71.2528 49.3167 67.5298C49.7531 67.0933 49.7531 66.3859 49.3169 65.9497Z" fill="black"/>
<path d="M54.5832 60.6833L49.3168 55.4168C48.8806 54.9805 48.1732 54.9805 47.737 55.4168C47.3008 55.8531 47.3008 56.5605 47.737 56.9966L53.0034 62.2631C53.2214 62.4811 53.5074 62.5904 53.7933 62.5904C54.0792 62.5904 54.3652 62.4814 54.5833 62.2631C55.0194 61.8268 55.0194 61.1194 54.5832 60.6833Z" fill="black"/>
</svg>
