<svg width="120" height="100" viewBox="0 0 120 100" fill="none" xmlns="http://www.w3.org/2000/svg">
<rect width="120" height="100" fill="white"/>
<path d="M85.6667 50H79V37.7733C81.3 37.1267 83 35.032 83 32.528V15.472C83 12.4547 80.5453 10 77.5293 10H43.1373C40.1213 10 37.6667 12.4547 37.6667 15.472V32.5293C37.6667 35.0333 39.3667 37.1267 41.6667 37.7747V50H35V58H39V88.6667C39 89.404 39.5973 90 40.3333 90C41.0693 90 41.6667 89.404 41.6667 88.6667V66H44.3333V86C44.3333 86.7373 44.9307 87.3333 45.6667 87.3333C46.4027 87.3333 47 86.7373 47 86V66H73.6667V86C73.6667 86.7373 74.264 87.3333 75 87.3333C75.736 87.3333 76.3333 86.7373 76.3333 86V66H79V88.6667C79 89.404 79.5973 90 80.3333 90C81.0693 90 81.6667 89.404 81.6667 88.6667V58H85.6667V50ZM40.3333 32.528V15.472C40.3333 13.924 41.5907 12.6667 43.1373 12.6667H77.5293C79.076 12.6667 80.3333 13.924 80.3333 15.472V32.5293C80.3333 34.076 79.076 35.3333 77.5293 35.3333H43.1373C41.5907 35.3333 40.3333 34.076 40.3333 32.528ZM44.3333 38H76.3333V50H44.3333V38ZM41.6667 63.3333V58H44.3333V63.3333H41.6667ZM47 63.3333V58H73.6667V63.3333H47ZM79 63.3333H76.3333V58H79V63.3333ZM83 55.3333H37.6667V52.6667H83V55.3333Z" fill="black"/>
<path d="M53.6666 24.6667H67C69.2053 24.6667 71 22.872 71 20.6667C71 18.4614 69.2053 16.6667 67 16.6667H53.6666C51.4613 16.6667 49.6666 18.4614 49.6666 20.6667C49.6666 22.872 51.4613 24.6667 53.6666 24.6667ZM53.6666 19.3334H67C67.7346 19.3334 68.3333 19.9307 68.3333 20.6667C68.3333 21.4027 67.7346 22 67 22H53.6666C52.932 22 52.3333 21.4027 52.3333 20.6667C52.3333 19.9307 52.932 19.3334 53.6666 19.3334Z" fill="black"/>
</svg>
