<svg width="120" height="100" viewBox="0 0 120 100" fill="none" xmlns="http://www.w3.org/2000/svg">
<rect width="120" height="100" fill="white"/>
<path d="M99.3448 47.8496C99.5719 47.6085 99.7119 47.2845 99.7119 46.9273C99.7119 46.1832 99.1088 45.58 98.3647 45.58H98.0473C97.0604 43.8875 97.2745 41.2781 98.2471 40.5487C98.7109 40.2006 98.9003 39.595 98.7168 39.0448C98.5333 38.4945 98.0186 38.1236 97.4387 38.1236H84.5289C83.9488 38.1236 83.4343 38.4945 83.2508 39.0449C83.0673 39.5952 83.2568 40.2008 83.7207 40.5487C84.6933 41.2781 84.9076 43.8874 83.9207 45.58H83.6033C82.8593 45.58 82.256 46.183 82.256 46.9273C82.256 47.2845 82.3962 47.6085 82.623 47.8496C82.1916 48.9134 81.9673 50.0545 81.9673 51.2305C81.9673 54.6822 83.9177 57.6854 86.7733 59.2C84.8386 61.38 82.0694 62.6431 79.0964 62.6431C73.6384 62.6431 69.1649 58.4142 68.8429 52.9882C68.9557 52.4193 69.0162 51.8318 69.0162 51.2303C69.0162 50.0545 68.7919 48.9133 68.3607 47.8495C68.5878 47.6082 68.7276 47.2844 68.7276 46.9271C68.7276 46.183 68.1245 45.5799 67.3804 45.5799H67.063C66.6 44.7858 66.401 43.7907 66.4211 42.8818H68.4061C71.2031 42.8818 73.4788 40.6061 73.4788 37.809C73.4788 35.1854 71.4769 33.0206 68.9202 32.762C69.0068 30.8267 70.6036 29.2779 72.5601 29.2779C74.5718 29.2779 76.2084 30.9143 76.2084 32.9262V35.4348C76.2084 37.5611 77.9382 39.291 80.0645 39.291C82.1906 39.291 83.9203 37.5611 83.9203 35.4348C83.9203 34.6907 83.3172 34.0875 82.5731 34.0875C81.8289 34.0875 81.2258 34.6905 81.2258 35.4348C81.2258 36.0752 80.7048 36.5964 80.0645 36.5964C79.4241 36.5964 78.903 36.0753 78.903 35.4348V32.9262C78.903 29.4287 76.0576 26.5835 72.5603 26.5835C69.1265 26.5835 66.3234 29.3266 66.2223 32.7363H63.177C63.3313 32.2662 63.4168 31.7512 63.4168 31.2075C63.4168 30.0745 63.0496 29.0636 62.4472 28.3316C63.0496 27.5995 63.4168 26.5884 63.4168 25.4556C63.4168 24.3226 63.0496 23.3118 62.4472 22.5795C63.0496 21.8476 63.4168 20.8366 63.4168 19.7037C63.4168 18.9549 63.2557 18.2599 62.9731 17.663C66.3887 16.4433 68.8403 13.1768 68.8403 9.34727C68.8403 8.60298 68.2371 8 67.493 8H52.5322C51.7882 8 51.1849 8.60298 51.1849 9.34727C51.1849 13.1768 53.6365 16.4432 57.0521 17.663C56.7695 18.2599 56.6084 18.9549 56.6084 19.7037C56.6084 20.8366 56.9756 21.8476 57.578 22.5795C56.9756 23.3116 56.6084 24.3228 56.6084 25.4556C56.6084 26.5886 56.9756 27.5995 57.578 28.3316C56.9756 29.0636 56.6084 30.0745 56.6084 31.2075C56.6084 31.751 56.6937 32.2662 56.8482 32.7363H53.8029C53.7017 29.3268 50.8988 26.5835 47.4649 26.5835C43.9675 26.5835 41.1224 29.4289 41.1224 32.9262V35.4348C41.1224 36.0752 40.6012 36.5964 39.9609 36.5964C39.3205 36.5964 38.7996 36.0753 38.7996 35.4348C38.7996 34.6907 38.1964 34.0875 37.4523 34.0875C36.7083 34.0875 36.105 34.6905 36.105 35.4348C36.105 37.5611 37.8347 39.291 39.9609 39.291C42.0872 39.291 43.8169 37.5611 43.8169 35.4348V32.9262C43.8169 30.9145 45.4536 29.2779 47.4651 29.2779C49.4214 29.2779 51.0184 30.8267 51.1052 32.762C48.5487 33.0204 46.5465 35.1853 46.5465 37.809C46.5465 40.606 48.8221 42.8818 51.6192 42.8818H53.5787C53.5988 43.7908 53.3998 44.786 52.9369 45.5799H52.6193C51.8754 45.5799 51.272 46.1828 51.272 46.9271C51.272 47.2844 51.4122 47.6085 51.6392 47.8498C51.2081 48.9134 50.9837 50.0543 50.9837 51.2305C50.9837 51.8322 51.0439 52.4195 51.1569 52.9884C50.8351 58.4144 46.3614 62.6433 40.9035 62.6433C37.9306 62.6433 35.1614 61.3802 33.2265 59.2002C36.0823 57.6854 38.0327 54.6822 38.0327 51.2307C38.0327 50.0548 37.8084 48.9136 37.377 47.8498C37.604 47.6085 37.744 47.2847 37.744 46.9275C37.744 46.1833 37.1408 45.5802 36.3967 45.5802H36.0793C35.0924 43.8877 35.3067 41.2783 36.2793 40.5488C36.7432 40.2008 36.9326 39.5952 36.7492 39.0451C36.5657 38.4948 36.051 38.1237 35.4711 38.1237H22.5618C21.9819 38.1237 21.4672 38.4946 21.2837 39.0449C21.1002 39.5952 21.2896 40.201 21.7534 40.5488C22.7262 41.2783 22.9401 43.8877 21.9532 45.5802H21.6358C20.8919 45.5802 20.2886 46.1832 20.2886 46.9275C20.2886 47.2847 20.4287 47.6088 20.6555 47.8498C20.2243 48.9136 20 50.0545 20 51.2307C20 56.2024 24.0448 60.2468 29.0164 60.2468C29.5243 60.2468 30.0219 60.2025 30.5071 60.1215C32.2737 62.4936 34.7581 64.1605 37.56 64.903C37.1402 65.4852 36.7434 66.1814 36.3755 66.9942C35.4859 68.959 34.8884 71.3297 34.8884 72.8931C34.8884 75.067 36.0479 76.9753 37.7807 78.0318C37.2785 78.6671 36.8073 79.4608 36.3755 80.4146C35.4859 82.3793 34.8884 84.7497 34.8884 86.3133C34.8884 89.6301 37.5868 92.3282 40.9036 92.3282C44.2204 92.3282 46.9189 89.6299 46.9189 86.3133C46.9189 84.7497 46.3212 82.3793 45.4318 80.4146C45 79.4608 44.5288 78.6669 44.0266 78.0318C45.7594 76.9751 46.9189 75.0668 46.9189 72.8931C46.9189 71.3296 46.3212 68.959 45.4318 66.9942C45.0636 66.1811 44.6668 65.4844 44.2466 64.9022C48.2995 63.8293 51.5743 60.8515 53.0396 56.9554C54.4238 58.6356 56.4037 59.8076 58.6529 60.146V63.1968C57.5351 63.803 56.5154 65.0852 55.651 66.9942C54.7614 68.959 54.1639 71.3297 54.1639 72.8931C54.1639 75.067 55.3234 76.9753 57.0563 78.0318C56.5542 78.6671 56.0829 79.4608 55.651 80.4146C54.7614 82.3793 54.1639 84.7497 54.1639 86.3133C54.1639 89.6301 56.8624 92.3282 60.1792 92.3282C63.496 92.3282 66.1943 89.6301 66.1943 86.3133C66.1943 84.7497 65.5966 82.3793 64.7072 80.4146C64.2754 79.4608 63.8041 78.6669 63.3021 78.0318C65.0348 76.9751 66.1943 75.0668 66.1943 72.8931C66.1943 71.3296 65.5966 68.9592 64.7072 66.9942C63.7516 64.8832 62.6058 63.5402 61.3473 63.0292V60.1459C63.5965 59.8074 65.5762 58.6356 66.9605 56.9552C68.4621 60.9482 71.8644 63.9779 76.0571 64.9794C75.6572 65.5462 75.2785 66.2164 74.9264 66.9942C74.0368 68.959 73.4393 71.3297 73.4393 72.8931C73.4393 75.067 74.5988 76.9751 76.3316 78.0318C75.8296 78.6671 75.3582 79.4608 74.9264 80.4146C74.0368 82.3793 73.4393 84.7497 73.4393 86.3133C73.4393 89.6301 76.1378 92.3282 79.4546 92.3282C82.7714 92.3282 85.4699 89.6301 85.4699 86.3133C85.4699 84.7497 84.8722 82.3793 83.9828 80.4146C83.5509 79.4608 83.0797 78.6669 82.5775 78.0318C84.3104 76.9751 85.4699 75.0668 85.4699 72.8931C85.4699 71.3296 84.8722 68.959 83.9828 66.9942C83.5979 66.144 83.182 65.4185 82.7404 64.8208C85.4196 64.0413 87.7896 62.4084 89.4928 60.1215C89.9781 60.2025 90.4757 60.2468 90.9837 60.2468C95.9554 60.2468 100 56.2021 100 51.2307C100 50.0545 99.7758 48.9134 99.3448 47.8496ZM24.9722 40.8181H33.0613C32.6105 42.2998 32.6738 44.0616 33.1626 45.58H24.8708C25.3596 44.0616 25.4232 42.2998 24.9722 40.8181ZM29.0167 57.5523C25.5307 57.5523 22.6947 54.7163 22.6947 51.2305C22.6947 50.1853 22.9472 49.1794 23.4283 48.2744H34.6049C35.086 49.1796 35.3386 50.1853 35.3386 51.2305C35.3388 54.7163 32.5026 57.5523 29.0167 57.5523ZM44.2247 86.3133C44.2247 88.1441 42.735 89.6337 40.9038 89.6337C39.0726 89.6337 37.5829 88.144 37.5829 86.3133C37.5829 85.3033 38.0113 83.3345 38.8302 81.5258C39.6998 79.6051 40.5466 78.9079 40.9036 78.9079C41.2607 78.9079 42.1075 79.6051 42.9771 81.5258C43.7962 83.3345 44.2247 85.3033 44.2247 86.3133ZM40.904 76.2133C39.0728 76.2133 37.5831 74.7238 37.5831 72.8931C37.5831 71.883 38.0115 69.9143 38.8304 68.1055C39.7 66.1849 40.5467 65.4877 40.9038 65.4877C41.2609 65.4877 42.1076 66.1849 42.9773 68.1055C43.7962 69.9143 44.2246 71.883 44.2246 72.8931C44.2247 74.7238 42.735 76.2133 40.904 76.2133ZM54.0288 10.6947H65.9972C65.3813 13.4304 62.932 15.481 60.013 15.481C57.094 15.481 54.6445 13.4304 54.0288 10.6947ZM60.013 26.8396C59.7628 26.8396 59.3035 26.3142 59.3035 25.4557C59.3035 24.5973 59.763 24.0719 60.013 24.0719C60.2632 24.0719 60.7225 24.5973 60.7225 25.4557C60.7225 26.3142 60.2632 26.8396 60.013 26.8396ZM60.7225 31.2075C60.7225 32.0659 60.263 32.5915 60.013 32.5915C59.7628 32.5915 59.3035 32.0659 59.3035 31.2075C59.3035 30.3491 59.763 29.8237 60.013 29.8237C60.2632 29.8237 60.7225 30.3491 60.7225 31.2075ZM60.013 21.0877C59.7628 21.0877 59.3035 20.5622 59.3035 19.7038C59.3035 18.8454 59.763 18.32 60.013 18.32C60.2632 18.32 60.7225 18.8454 60.7225 19.7038C60.7225 20.5624 60.2632 21.0877 60.013 21.0877ZM63.5001 86.3133C63.5001 88.1441 62.0104 89.6337 60.1794 89.6337C58.3482 89.6337 56.8584 88.144 56.8584 86.3133C56.8584 85.3033 57.2868 83.3346 58.1057 81.5258C58.9754 79.6051 59.8223 78.9079 60.1794 78.9079C60.5364 78.9079 61.3832 79.6051 62.2526 81.5258C63.0715 83.3345 63.5001 85.3033 63.5001 86.3133ZM62.2528 68.1055C63.0717 69.9143 63.5001 71.883 63.5001 72.8931C63.5001 74.7239 62.0104 76.2133 60.1794 76.2133C58.3482 76.2133 56.8584 74.7238 56.8584 72.8931C56.8584 71.883 57.2868 69.9143 58.1057 68.1055C58.9754 66.1849 59.8223 65.4877 60.1794 65.4877C60.5364 65.4875 61.3832 66.1847 62.2528 68.1055ZM60.0003 57.5523C56.5144 57.5523 53.6784 54.7163 53.6784 51.2305C53.6784 50.1853 53.9309 49.1794 54.4119 48.2744H65.5884C66.0695 49.1794 66.322 50.1851 66.322 51.2305C66.3223 54.7163 63.4863 57.5523 60.0003 57.5523ZM55.9559 40.8181H64.0446C63.5938 42.2998 63.6572 44.0616 64.1459 45.58H55.8541C56.3431 44.0616 56.4067 42.2998 55.9559 40.8181ZM53.5456 38.1237C52.9657 38.1237 52.451 38.4946 52.2675 39.0449C52.1372 39.4358 52.1982 39.8531 52.4088 40.1876H51.6196C50.3082 40.1876 49.2414 39.1208 49.2414 37.8093C49.2414 36.4978 50.3082 35.431 51.6196 35.431H68.4068C69.7181 35.431 70.7849 36.4978 70.7849 37.8093C70.7849 39.1208 69.7181 40.1876 68.4068 40.1876H67.5922C67.8028 39.8531 67.8638 39.4359 67.7335 39.0453C67.55 38.495 67.0353 38.1239 66.4554 38.1239H53.5456V38.1237ZM82.7757 86.3133C82.7757 88.1441 81.2859 89.6337 79.4547 89.6337C77.6236 89.6337 76.1338 88.144 76.1338 86.3133C76.1338 85.3032 76.5622 83.3345 77.3811 81.5258C78.2508 79.6051 79.0975 78.9079 79.4546 78.9079C79.8117 78.9079 80.6584 79.6051 81.528 81.5258C82.3471 83.3345 82.7757 85.3033 82.7757 86.3133ZM82.7757 72.8931C82.7757 74.7239 81.2859 76.2133 79.4547 76.2133C77.6236 76.2133 76.1338 74.7238 76.1338 72.8931C76.1338 71.883 76.5622 69.9143 77.3811 68.1055C78.2506 66.1849 79.0975 65.4877 79.4546 65.4877C79.8117 65.4877 80.6584 66.1849 81.528 68.1055C82.3471 69.9141 82.7757 71.883 82.7757 72.8931ZM86.9395 40.8181H95.0284C94.5776 42.2998 94.6412 44.0616 95.1299 45.58H86.8381C87.3269 44.0615 87.3905 42.2996 86.9395 40.8181ZM90.984 57.5523C87.498 57.5523 84.662 54.7163 84.662 51.2305C84.662 50.1855 84.9148 49.1796 85.3958 48.2744H96.5722C97.0533 49.1794 97.3058 50.1851 97.3058 51.2305C97.3058 54.7163 94.4698 57.5523 90.984 57.5523Z" fill="black"/>
</svg>
