<svg width="120" height="100" viewBox="0 0 120 100" fill="none" xmlns="http://www.w3.org/2000/svg">
<rect width="120" height="100" fill="white"/>
<path d="M99.8327 61.2041L99.5778 61.1202C99.5776 61.1202 99.5774 61.12 99.5772 61.12L78.592 54.2114V29.4257C78.592 28.8957 78.3656 28.4198 78.006 28.0853C78.0003 28.0793 77.9963 28.0736 77.9897 28.0677L61.8323 13.4277V7.92461H64.3517C65.3639 7.92461 66.1843 7.10415 66.1843 6.09197C66.1843 5.07979 65.3639 4.25933 64.3517 4.25933H61.8323V1.83264C61.8325 0.820456 61.012 0 59.9998 0C58.9876 0 58.1672 0.820456 58.1672 1.83264V4.25933H55.6479C54.6358 4.25933 53.8153 5.07979 53.8153 6.09197C53.8153 7.10415 54.6358 7.92461 55.6479 7.92461H58.1672V13.4288L42.0454 28.0689C42.0414 28.0725 42.0398 28.0763 42.0364 28.0799C41.6736 28.4146 41.4449 28.8928 41.4449 29.4256V54.2121L20.5148 61.1197C20.5144 61.1199 20.5139 61.1199 20.5135 61.12L20.2585 61.2041C19.5074 61.4521 19 62.1536 19 62.9446V90.1674C19 91.1795 19.8205 92 20.8326 92H99.2601C100.272 92 101.093 91.1795 101.093 90.1674V62.9446C101.093 62.1536 100.585 61.4516 99.8327 61.2041ZM41.4447 88.3351H22.6649V64.6935H41.4445V88.3351H41.4447ZM41.4447 61.028H32.4879L41.4447 58.0722V61.028ZM60.0013 16.7146L72.0073 27.5933H48.0214L60.0013 16.7146ZM67.5056 88.3351H52.5309V79.183C52.5309 75.1203 55.3818 71.8149 58.8861 71.8149H61.1504C64.6546 71.8149 67.5056 75.1203 67.5056 79.183V88.3351ZM74.9267 88.3351H71.171V79.183C71.171 73.0991 66.6758 68.1496 61.1505 68.1496H58.8863C53.3609 68.1496 48.8658 73.0991 48.8658 79.183V88.3351H45.1101V62.8609V31.2586H74.9269V88.3351H74.9267ZM78.592 58.0702L87.5767 61.0282H78.592V58.0702ZM97.4272 88.3351H78.592V64.6935H97.4271V88.3351H97.4272Z" fill="black"/>
<path d="M59.9998 38.5193C57.3739 38.5193 55.2372 40.6558 55.2372 43.2819V56.2784C55.2372 57.2904 56.0576 58.111 57.0698 58.111H62.9295C63.9416 58.111 64.7621 57.2906 64.7621 56.2784V43.2819C64.7623 40.6558 62.626 38.5193 59.9998 38.5193ZM61.097 54.4456H58.9026V43.2819C58.9026 42.6769 59.395 42.1847 59.9998 42.1847C60.6048 42.1847 61.0968 42.6771 61.0968 43.2819V54.4456H61.097Z" fill="black"/>
<path d="M84.2595 83.335H83.8892C82.877 83.335 82.0565 84.1554 82.0565 85.1676C82.0565 86.1798 82.877 87.0002 83.8892 87.0002H84.2595C85.2717 87.0002 86.0921 86.1798 86.0921 85.1676C86.0923 84.1554 85.2717 83.335 84.2595 83.335Z" fill="black"/>
<path d="M94.2596 83.335H90.0002C88.9881 83.335 88.1676 84.1554 88.1676 85.1676C88.1676 86.1798 88.9881 87.0002 90.0002 87.0002H94.2596C95.2718 87.0002 96.0922 86.1798 96.0922 85.1676C96.0924 84.1554 95.2718 83.335 94.2596 83.335Z" fill="black"/>
</svg>
