<svg width="120" height="100" viewBox="0 0 120 100" fill="none" xmlns="http://www.w3.org/2000/svg">
<rect width="120" height="100" fill="white"/>
<g clip-path="url(#clip0_3_18)">
<path d="M46.5759 12C45.7637 12.3507 45.399 13.0187 45.2333 13.8704C44.7691 16.225 44.1724 18.5463 43.758 20.9009C42.6142 27.4305 46.6091 33.4089 53.0241 34.8451C55.2785 35.3461 57.5328 35.8304 59.7706 36.3147C61.3122 36.6486 62.0084 36.1811 62.34 34.6113C62.8704 32.0729 63.55 29.568 63.9147 26.9963C64.7932 20.7005 60.8481 15.0727 54.6817 13.6366C52.4108 13.1022 50.1398 12.6513 47.8523 12.1503C47.7197 12.1169 47.5871 12.0501 47.4545 12C47.1561 12 46.8577 12 46.5759 12ZM48.1341 15.6906C48.4159 15.7073 48.5651 15.7073 48.7143 15.7407C50.4382 16.1081 52.1621 16.4755 53.8861 16.8763C58.7429 18.0286 61.5277 22.4039 60.5497 27.347C60.2514 28.8165 59.9198 30.2861 59.5883 31.7557C59.5054 32.1063 59.4225 32.4403 59.3397 32.8244C57.2345 32.3568 55.2122 31.9728 53.223 31.4551C49.3773 30.4531 46.6257 26.8961 46.8909 22.9049C47.0567 20.4834 47.7031 18.0954 48.1341 15.6906Z" fill="black"/>
<path d="M87.7845 60.2786C87.7348 55.6027 87.0552 51.0604 84.9334 46.8521C81.9994 41.024 77.3083 37.7174 70.827 37.0495C68.3571 36.799 65.9039 39.8992 63.5169 40.467C61.4117 40.9679 59.3728 40.9345 57.2676 40.467C54.0187 39.7489 50.7532 36.6988 47.4876 37.4503C42.7303 38.5524 39.1498 41.2578 36.6302 45.4494C34.7737 48.5221 33.8122 51.8954 33.3481 55.4358C32.5193 61.5979 33.2155 67.5764 35.5527 73.321C37.3761 77.8466 39.9786 81.8045 43.9735 84.6935C48.1341 87.6994 52.7589 88.668 57.7318 87.5491C59.5883 87.1316 61.3454 87.165 63.1688 87.5491C69.1362 88.8183 74.3577 87.2151 78.7836 83.0736C83.1763 78.9655 85.6296 73.7218 86.906 67.9104C87.453 65.4054 87.6519 62.8337 88 60.2953C87.9337 60.2953 87.8508 60.2953 87.7845 60.2786ZM36.2821 60.646C36.3318 59.594 36.3484 58.8592 36.3981 58.1077C36.6634 53.9829 37.575 50.0418 39.8626 46.5349C41.487 44.0466 43.6585 42.243 46.4599 41.2077C49.8249 39.9552 53.2396 43.0387 56.6875 43.7234C58.5937 44.1075 60.4834 44.4749 62.4394 44.0741C64.0142 43.7401 65.6221 42.4562 67.23 42.3059C70.0148 42.0387 72.7167 40.4061 75.2694 41.5918C79.198 43.412 81.5353 46.6517 82.9277 50.643C84.6847 55.6528 84.8837 60.813 83.9388 66.0066C82.994 71.1 81.0546 75.7592 77.5238 79.6168C73.6284 83.8752 68.8876 85.5619 63.2185 84.1925C61.3122 83.7416 59.4557 83.7249 57.5494 84.1925C56.4885 84.443 55.3779 84.61 54.2839 84.6434C49.8249 84.7603 46.1781 82.8899 43.2607 79.6168C38.3873 74.1393 36.4976 67.543 36.2821 60.646Z" fill="black"/>
</g>
<defs>
<clipPath id="clip0_3_18">
<rect width="55" height="76" fill="white" transform="matrix(-1 0 0 1 88 12)"/>
</clipPath>
</defs>
</svg>
