<svg width="120" height="100" viewBox="0 0 120 100" fill="none" xmlns="http://www.w3.org/2000/svg">
<rect width="120" height="100" fill="white"/>
<path d="M105.596 32.6916L102.508 29.6037C102.446 29.4888 102.367 29.3809 102.272 29.2855L82.5477 9.55724C82.4523 9.46178 82.3444 9.38292 82.2296 9.32066L79.3152 6.4057C78.7744 5.86477 77.9002 5.86477 77.3594 6.4057C76.8186 6.94664 76.8186 7.82099 77.3594 8.36192L80.0843 11.0874C79.9888 11.6878 79.8353 12.6064 79.6265 13.7312C78.2502 21.1493 75.1906 27.0249 69.9967 32.2212L64.28 37.939L62.0794 35.7366C61.5385 35.1956 60.6644 35.1956 60.1235 35.7366L39.8737 55.9905C39.3329 56.5314 39.3329 57.4058 39.8737 57.9467L42.0744 60.1478L35.691 66.5325L35.0533 65.8947C34.5125 65.3538 33.6383 65.3538 33.0975 65.8947C32.5567 66.4357 32.5567 67.31 33.0975 67.851L33.8721 68.6257L24.9796 78.8149C24.9726 78.8232 24.963 78.8288 24.9547 78.8371L23.5563 80.4377L23.4899 80.5207C22.7568 81.503 22.8564 82.8975 23.7223 83.7636L28.2439 88.2861C28.7128 88.7551 29.3338 89 29.9742 89C30.5206 89 31.0794 88.8215 31.5677 88.4521L33.1666 87.0535L43.3759 78.1343L44.1602 78.9187C44.4299 79.1885 44.784 79.324 45.1381 79.324C45.4922 79.324 45.8463 79.1885 46.116 78.9187C46.6568 78.3778 46.6568 77.5034 46.116 76.9625L45.4701 76.3164L45.5973 76.1891C45.8505 76.4202 46.1755 76.5585 46.5213 76.5585H49.2877C49.6556 76.5585 50.0069 76.4132 50.2656 76.1531L51.6488 74.7697C51.9088 74.5096 52.054 74.1596 52.054 73.7916V71.0246C52.054 70.6788 51.9157 70.355 51.6847 70.1005L52.5133 69.2718C52.7664 69.5028 53.0914 69.6412 53.4372 69.6412H56.2036C56.5715 69.6412 56.9229 69.4959 57.1815 69.2358L58.5647 67.8523C58.8247 67.5923 58.97 67.2422 58.97 66.8742V64.1073C58.97 63.7614 58.8316 63.4377 58.6007 63.1831L59.4292 62.3545C59.6823 62.5855 60.0074 62.7238 60.3531 62.7238H63.1195C63.4874 62.7238 63.8388 62.5786 64.0974 62.3185L65.4806 60.935C65.7407 60.6749 65.8859 60.3249 65.8859 59.9569V57.19C65.8859 56.8441 65.7476 56.5204 65.5166 56.2658L66.3451 55.4371C66.5982 55.6682 66.9233 55.8065 67.2691 55.8065H70.0354C70.4034 55.8065 70.7547 55.6612 71.0134 55.4011L72.3965 54.0177C72.6566 53.7576 72.8018 53.4076 72.8018 53.0396V50.2726C72.8018 49.9268 72.6635 49.603 72.4325 49.3485L73.261 48.5198C73.5142 48.7508 73.8392 48.8892 74.185 48.8892H76.9514C77.3193 48.8892 77.6706 48.7439 77.9293 48.4838L79.3125 47.1003C79.5725 46.8403 79.7177 46.4902 79.7177 46.1222V43.3553C79.7177 43.0094 79.5794 42.6857 79.3484 42.4312L79.7758 42.0037C85.1329 36.6455 90.9547 33.5327 98.0975 32.2087C99.2207 31.9998 100.139 31.8463 100.739 31.7508L103.637 34.6492C103.907 34.9189 104.261 35.0545 104.615 35.0545C104.969 35.0545 105.323 34.9189 105.593 34.6492C106.135 34.1082 106.135 33.2325 105.596 32.6916ZM61.1015 38.6709L62.3256 39.8953L57.1193 45.1026L55.8951 43.8783L61.1015 38.6709ZM53.9393 45.8345L55.1634 47.0588L50.8949 51.3282L49.6708 50.1039L53.9393 45.8345ZM42.8074 56.9686L47.715 52.0601L48.9377 53.2831L44.0302 58.1916L42.8074 56.9686ZM44.0316 62.1054L45.7426 63.8168C46.0123 64.0865 46.3664 64.2221 46.7205 64.2221C47.0746 64.2221 47.4287 64.0865 47.6984 63.8168C48.2392 63.2758 48.2392 62.4015 47.6984 61.8605L45.9874 60.1492L50.8949 55.2407L53.8217 58.1681C54.0915 58.4379 54.4456 58.5734 54.7997 58.5734C55.1538 58.5734 55.5079 58.4379 55.7776 58.1681C56.3184 57.6271 56.3184 56.7528 55.7776 56.2119L52.8521 53.2858L57.1206 49.0165L60.0461 51.9425C60.3158 52.2123 60.6699 52.3478 61.024 52.3478C61.3781 52.3478 61.7322 52.2123 62.0019 51.9425C62.5427 51.4016 62.5427 50.5272 62.0019 49.9863L59.0765 47.0602L64.2828 41.8529L65.9924 43.5628C66.5332 44.1038 67.4074 44.1038 67.9482 43.5628C68.489 43.0219 68.489 42.1475 67.9482 41.6066L66.2386 39.8966L70.9774 35.1569L73.196 37.376L76.4078 40.5884H74.1892C73.8212 40.5884 73.4699 40.7336 73.2112 40.9937L71.8281 42.3772C71.568 42.6373 71.4228 42.9873 71.4228 43.3553V46.1222C71.4228 46.2218 71.4338 46.3228 71.4546 46.4183L70.3342 47.5389C70.2388 47.5168 70.1378 47.5071 70.0382 47.5071H67.2718C66.9039 47.5071 66.5526 47.6524 66.2939 47.9124L64.9107 49.2959C64.6507 49.556 64.5055 49.906 64.5055 50.274V53.041C64.5055 53.1406 64.5165 53.2416 64.5373 53.337L63.4169 54.4576C63.3215 54.4355 63.2205 54.4258 63.1209 54.4258H60.3545C59.9866 54.4258 59.6353 54.5711 59.3766 54.8312L57.9934 56.2146C57.7334 56.4747 57.5882 56.8247 57.5882 57.1927V59.9597C57.5882 60.0593 57.5992 60.1603 57.62 60.2557L56.4996 61.3763C56.4042 61.3542 56.3032 61.3445 56.2036 61.3445H53.4372C53.0693 61.3445 52.718 61.4898 52.4593 61.7499L51.0761 63.1333C50.8161 63.3934 50.6709 63.7434 50.6709 64.1114V66.8784C50.6709 66.978 50.6819 67.079 50.7027 67.1744L49.5823 68.2951C49.4868 68.2729 49.3859 68.2632 49.2863 68.2632H46.5199C46.152 68.2632 45.8007 68.4085 45.542 68.6686L44.1588 70.0521C43.8988 70.3121 43.7535 70.6622 43.7535 71.0302V73.7971C43.7535 73.8967 43.7646 73.9977 43.7854 74.0932L43.5848 74.2938L37.7159 68.4237L44.0316 62.1054ZM25.8703 81.9983L27.0433 80.6535C27.6062 80.0144 28.385 79.6436 29.2356 79.616C30.0987 79.5966 30.8954 79.9037 31.5013 80.5097C32.1071 81.1156 32.4225 81.9194 32.3948 82.773C32.3658 83.628 31.9951 84.4097 31.3491 84.9727L30.013 86.1445L25.8703 81.9983ZM35.0796 81.716C34.8804 80.5277 34.3202 79.414 33.4585 78.5521C32.5995 77.6929 31.4819 77.1202 30.3007 76.9223L35.8307 70.5847L41.4215 76.1767L35.0796 81.716ZM49.2904 73.2174L48.7178 73.7902H47.0967L46.5697 73.2631L46.5241 71.596L47.0967 71.0232H48.7164L48.7607 71.0675C48.7621 71.0689 48.7634 71.0689 48.7648 71.0703L49.2904 71.596V73.2174ZM56.2064 66.3001L55.6337 66.8728H54.0126L53.4856 66.3457L53.44 64.6787L54.0126 64.1059H55.6323L55.6766 64.1502C55.678 64.1516 55.6794 64.1516 55.6807 64.153L56.2064 64.6787V66.3001ZM63.1223 59.3828L62.5496 59.9555H60.9286L60.4016 59.4284L60.3559 57.7613L60.9286 57.1886H62.5483L62.5925 57.2329C62.5939 57.2342 62.5953 57.2342 62.5967 57.2356L63.1223 57.7613V59.3828ZM70.0382 52.4654L69.4656 53.0382H67.8445L67.3175 52.5111L67.2718 50.844L67.8445 50.2713H69.4642L69.5085 50.3155C69.5098 50.3169 69.5112 50.3169 69.5126 50.3183L70.0382 50.844V52.4654ZM76.9541 45.5481L76.3815 46.1209H74.7604L74.2334 45.5938L74.1878 43.9267L74.7604 43.3539H76.3801L76.4244 43.3982C76.4258 43.3996 76.4271 43.3996 76.4285 43.401L76.9541 43.9267V45.5481ZM97.5954 29.4874C90.3171 30.8377 84.3168 33.8966 78.8145 39.0832L72.9152 33.1841C77.8823 27.866 80.9709 21.6543 82.3472 14.2375C82.3956 13.9774 82.4398 13.7284 82.4827 13.489L98.3437 29.3519C98.1044 29.3934 97.8568 29.439 97.5954 29.4874Z" fill="black"/>
</svg>
