<svg width="120" height="100" viewBox="0 0 120 100" fill="none" xmlns="http://www.w3.org/2000/svg">
<rect width="120" height="100" fill="white"/>
<path d="M82.6275 27.3725C76.5833 21.3285 68.5476 18 60 18C51.4524 18 43.4167 21.3285 37.3725 27.3725C31.3287 33.4167 28 41.4524 28 50C28 58.5476 31.3287 66.5833 37.3725 72.6275C43.4167 78.6715 51.4524 82 60 82C68.5476 82 76.5833 78.6715 82.6275 72.6275C88.6714 66.5833 92 58.5476 92 50C92 41.4524 88.6714 33.4167 82.6275 27.3725ZM81.2102 71.2101C75.5448 76.8757 68.0121 79.9958 60 79.9958C51.9879 79.9958 44.4552 76.8757 38.7896 71.2101C33.1243 65.5448 30.0042 58.0121 30.0042 50C30.0042 41.9879 33.1243 34.4552 38.7896 28.7899C44.4552 23.1243 51.9879 20.0042 60 20.0042C68.0121 20.0042 75.5448 23.1243 81.2102 28.7899C86.8757 34.4552 89.9958 41.9879 89.9958 50C89.9958 58.0121 86.8757 65.5448 81.2102 71.2101ZM61.002 30.7599H58.9979V25.4154H61.002V30.7599ZM58.9979 69.2401H61.002V74.5845H58.9979V69.2401ZM40.7599 51.002H35.4154V48.9979H40.7598V51.002H40.7599ZM84.5846 48.9979V51.002H79.2402V48.9979H84.5846ZM48.443 31.9878L46.8396 29.2108L48.5753 28.2086L50.1786 30.9856L48.443 31.9878ZM71.5553 68.0139L73.1587 70.7909L71.423 71.7929L69.8196 69.0159L71.5553 68.0139ZM40.9842 59.8216L41.9863 61.5572L39.2093 63.1606L38.2072 61.4249L40.9842 59.8216ZM79.0151 40.1776L78.013 38.4419L80.7901 36.8386L81.7921 38.5742L79.0151 40.1776ZM71.5558 31.9868L69.8201 30.9847L71.4235 28.2077L73.1591 29.2098L71.5558 31.9868ZM48.4435 68.0141L50.1791 69.0162L48.5758 71.7933L46.8402 70.7911L48.4435 68.0141ZM79.0163 59.8222L81.7934 61.4256L80.7912 63.1612L78.0142 61.5579L79.0163 59.8222ZM39.2106 36.8405L41.9876 38.4438L40.9854 40.1795L38.2084 38.5761L39.2106 36.8405ZM63.1399 50C63.1399 48.6191 62.2433 47.4444 61.002 47.025V32.8977H58.9979V47.0249C57.7565 47.4442 56.8601 48.6189 56.8601 49.9999C56.8601 51.7312 58.2687 53.1398 60 53.1398C60.7948 53.1398 61.521 52.8422 62.0748 52.3537L74.3212 59.419L75.3227 57.683L63.0783 50.6188C63.1184 50.4189 63.1399 50.2119 63.1399 50ZM60 51.1357C59.3738 51.1357 58.8643 50.6262 58.8643 50C58.8643 49.3738 59.3738 48.8643 60 48.8643C60.6262 48.8643 61.1357 49.3738 61.1357 50C61.1357 50.6262 60.6262 51.1357 60 51.1357ZM60 23.3444C45.3021 23.3444 33.3444 35.3021 33.3444 50C33.3444 64.6979 45.302 76.6556 60 76.6556C74.6979 76.6556 86.6556 64.6979 86.6556 50C86.6556 35.3021 74.6979 23.3444 60 23.3444ZM60 74.6514C46.4072 74.6514 35.3486 63.5927 35.3486 50C35.3486 36.4073 46.4072 25.3486 60 25.3486C73.5928 25.3486 84.6514 36.4073 84.6514 50C84.6514 63.5927 73.5928 74.6514 60 74.6514Z" fill="black"/>
</svg>
