<svg width="120" height="100" viewBox="0 0 120 100" fill="none" xmlns="http://www.w3.org/2000/svg">
<rect width="120" height="100" fill="white"/>
<path d="M96.9158 38.8253H92.8695C91.8473 32.0202 88.542 25.7674 83.4356 21.0525C77.8124 15.8598 70.4977 13 62.8387 13C55.1685 13 47.8456 15.867 42.219 21.0736C37.051 25.8554 33.7341 32.2109 32.7657 39.1189C28.6802 39.8356 24.9371 41.8668 22.0833 44.9453C18.8049 48.4812 17 53.0855 17 57.9095C17 68.4329 25.5615 76.9941 36.0842 76.9941C39.3048 76.9941 42.3998 76.2058 45.1745 74.6947C48.0619 81.7947 54.9617 86.5425 62.8387 86.5425C69.7496 86.5425 75.9686 82.9175 79.3736 76.9944H96.9158C107.439 76.9944 116 68.4329 116 57.9099C116 47.3868 107.439 38.8253 96.9158 38.8253ZM96.9158 72.7394H78.0944C77.2804 72.7394 76.5375 73.2042 76.1813 73.9361C73.6748 79.0873 68.5622 82.2871 62.8387 82.2871C55.9456 82.2871 50.0159 77.6093 48.4178 70.9111C48.2509 70.2111 47.7413 69.6428 47.0638 69.401C46.3876 69.1596 45.6333 69.275 45.0593 69.7124C42.4598 71.6925 39.3566 72.7391 36.0842 72.7391C27.907 72.7391 21.2547 66.0864 21.2547 57.9092C21.2547 50.2442 27.2335 43.7548 34.8658 43.1344C35.9038 43.05 36.7278 42.227 36.8139 41.189C37.3515 34.6828 40.297 28.6479 45.1082 24.1963C49.946 19.72 56.2428 17.2547 62.8384 17.2547C69.4244 17.2547 75.7139 19.7134 80.5488 24.1778C85.356 28.6172 88.3074 34.6386 88.8576 41.1322C88.9513 42.2336 89.8722 43.08 90.9779 43.08H96.9158C105.093 43.08 111.745 49.7323 111.745 57.9092C111.745 66.0861 105.093 72.7394 96.9158 72.7394Z" fill="black"/>
<path d="M36.0842 64.2293C32.5998 64.2293 29.7651 61.3943 29.7651 57.9095C29.7651 56.7342 28.8128 55.782 27.6375 55.782C26.4623 55.782 25.51 56.7342 25.51 57.9095C25.51 63.7405 30.2539 68.484 36.0842 68.484C37.2595 68.484 38.2118 67.5318 38.2118 66.3565C38.2118 65.1813 37.2595 64.2293 36.0842 64.2293Z" fill="black"/>
<path d="M77.6623 27.3044C73.6158 23.5676 68.3514 21.51 62.8387 21.51C61.6635 21.51 60.7112 22.4623 60.7112 23.6375C60.7112 24.8128 61.6635 25.765 62.8387 25.765C67.2781 25.765 71.5176 27.4218 74.7758 30.4304C78.0182 33.4247 80.0079 37.4805 80.3786 41.8519C80.4729 42.9615 81.4025 43.7997 82.4962 43.7997C82.5566 43.7997 82.6176 43.797 82.6786 43.7924C83.8496 43.6928 84.7181 42.6634 84.6188 41.4927C84.1573 36.0598 81.6871 31.0211 77.6623 27.3044Z" fill="black"/>
</svg>
