<svg width="120" height="100" viewBox="0 0 120 100" fill="none" xmlns="http://www.w3.org/2000/svg">
<rect width="120" height="100" fill="white"/>
<path d="M83.2451 39.5853C82.2818 39.5853 81.3408 39.7119 80.4298 39.9567V39.5C80.4298 37.289 78.6311 35.4902 76.4201 35.4902H30.0097C27.7987 35.4902 26 37.289 26 39.5V58.6101C26 64.1708 28.5998 69.5822 32.8251 72.8985V74.9902C32.8251 77.2012 34.6238 79 36.8348 79H69.595C71.806 79 73.6048 77.2012 73.6048 74.9902V72.8985C76.5899 70.5557 78.7621 67.1665 79.7809 63.418C80.891 63.7936 82.0511 63.9848 83.2451 63.9848C89.2195 63.9848 94.0799 59.1244 94.0799 53.1501V50.42C94.0799 44.4457 89.2195 39.5853 83.2451 39.5853ZM80.4298 50.42C80.4298 48.8677 81.6928 47.6047 83.2451 47.6047C84.7975 47.6047 86.0605 48.8677 86.0605 50.42V53.1501C86.0605 54.7024 84.7975 55.9654 83.2451 55.9654C81.6928 55.9654 80.4298 54.7024 80.4298 53.1501V50.42ZM69.595 76.4406H36.8348C36.035 76.4406 35.3844 75.79 35.3844 74.9902V73.5399H71.0454V74.9902C71.0454 75.79 70.3948 76.4406 69.595 76.4406ZM77.8704 58.6101C77.8704 63.4521 75.5924 68.1524 71.9007 70.9805H34.5291C30.8374 68.1522 28.5594 63.4521 28.5594 58.6101V39.5C28.5594 38.7002 29.21 38.0496 30.0097 38.0496H76.4201C77.2198 38.0496 77.8704 38.7002 77.8704 39.5V50.42V53.1501V58.6101ZM91.5205 53.1501C91.5205 57.7131 87.8082 61.4254 83.2451 61.4254C82.2188 61.4254 81.2263 61.2396 80.2848 60.8777C80.3795 60.1278 80.4298 59.3706 80.4298 58.6101V57.7261C81.2492 58.232 82.2135 58.5248 83.2451 58.5248C86.2088 58.5248 88.6199 56.1137 88.6199 53.1501V50.42C88.6199 47.4564 86.2088 45.0453 83.2451 45.0453C82.2135 45.0453 81.2492 45.3381 80.4298 45.844V42.6376C81.328 42.3117 82.2714 42.1447 83.2451 42.1447C87.8082 42.1447 91.5205 45.857 91.5205 50.42V53.1501Z" fill="black"/>
<path d="M52.3505 25.3636C50.9492 26.6476 49.2052 28.2455 49.2052 31.3099C49.2052 32.0167 49.778 32.5896 50.4849 32.5896C51.1918 32.5896 51.7646 32.0167 51.7646 31.3099C51.7646 29.3716 52.7861 28.4357 54.0793 27.2507C55.4807 25.9668 57.2246 24.3689 57.2246 21.3044C57.2246 18.2384 55.4808 16.6397 54.0796 15.3548C52.7861 14.1692 51.7646 13.2322 51.7646 11.2921C51.7646 9.35169 52.7863 8.41495 54.0796 7.22893C55.4808 5.94445 57.2246 4.34568 57.2246 1.2797C57.2246 0.572963 56.6518 0 55.9449 0C55.238 0 54.6652 0.572963 54.6652 1.2797C54.6652 3.21989 53.6437 4.15663 52.3502 5.34265C50.949 6.6273 49.2052 8.22607 49.2052 11.2921C49.2052 14.358 50.949 15.9568 52.3502 17.2415C53.6435 18.4275 54.6652 19.3642 54.6652 21.3046C54.6652 23.2427 53.6437 24.1788 52.3505 25.3636Z" fill="black"/>
<path d="M60.5406 25.3637C59.1392 26.6477 57.3952 28.2456 57.3952 31.31C57.3952 32.0168 57.968 32.5897 58.6749 32.5897C59.3819 32.5897 59.9546 32.0168 59.9546 31.31C59.9546 29.3717 60.9762 28.4358 62.2694 27.2508C63.6707 25.967 65.4147 24.369 65.4147 21.3045C65.4147 18.2385 63.6709 16.6397 62.2697 15.3549C60.9762 14.1693 59.9546 13.2323 59.9546 11.2921C59.9546 10.5854 59.3819 10.0125 58.6749 10.0125C57.968 10.0125 57.3952 10.5854 57.3952 11.2921C57.3952 14.3581 59.1391 15.9569 60.5402 17.2415C61.8336 18.4276 62.8553 19.3643 62.8553 21.3047C62.8553 23.2428 61.8338 24.1789 60.5406 25.3637Z" fill="black"/>
<path d="M44.1604 25.3637C42.7591 26.6477 41.0151 28.2456 41.0151 31.31C41.0151 32.0168 41.5879 32.5897 42.2948 32.5897C43.0017 32.5897 43.5745 32.0168 43.5745 31.31C43.5745 29.3717 44.5961 28.4358 45.8892 27.2508C47.2906 25.967 49.0346 24.369 49.0346 21.3045C49.0346 18.2385 47.2908 16.6397 45.8896 15.3549C44.5961 14.1693 43.5745 13.2323 43.5745 11.2921C43.5745 10.5854 43.0017 10.0125 42.2948 10.0125C41.5879 10.0125 41.0151 10.5854 41.0151 11.2921C41.0151 14.3581 42.7589 15.9569 44.1601 17.2415C45.4535 18.4276 46.4752 19.3643 46.4752 21.3047C46.4752 23.2428 45.4536 24.1789 44.1604 25.3637Z" fill="black"/>
</svg>
