<svg width="120" height="100" viewBox="0 0 120 100" fill="none" xmlns="http://www.w3.org/2000/svg">
<rect width="120" height="100" fill="white"/>
<path d="M61.4644 29.3314V26.6655C64.1774 26.1416 66.2333 23.7503 66.2333 20.8866C66.2333 17.6408 63.5925 15 60.3467 15C57.1008 15 54.46 17.6408 54.46 20.8866C54.46 23.7503 56.5159 26.1416 59.2289 26.6655V29.3314C44.6664 29.9199 33 41.9489 33 56.6533C33 71.7323 45.2677 84 60.3467 84C75.4256 84 87.6933 71.7323 87.6933 56.6533C87.6933 41.9489 76.0269 29.9199 61.4644 29.3314ZM56.6955 20.8866C56.6955 18.8734 58.3334 17.2354 60.3467 17.2354C62.3599 17.2354 63.9978 18.8734 63.9978 20.8866C63.9978 22.5101 62.9324 23.8889 61.4644 24.3621V23.2711C61.4644 22.6538 60.9639 22.1533 60.3467 22.1533C59.7294 22.1533 59.2289 22.6538 59.2289 23.2711V24.3621C57.7609 23.8889 56.6955 22.5101 56.6955 20.8866ZM60.3467 81.7646C46.5003 81.7646 35.2354 70.4997 35.2354 56.6533C35.2354 42.807 46.5003 31.5421 60.3467 31.5421C74.193 31.5421 85.4579 42.807 85.4579 56.6533C85.4579 70.4997 74.193 81.7646 60.3467 81.7646Z" fill="black"/>
<path d="M60.3467 34.0757C47.8972 34.0757 37.7689 44.2039 37.7689 56.6534C37.7689 69.1029 47.8972 79.2312 60.3467 79.2312C72.7962 79.2312 82.9244 69.1029 82.9244 56.6534C82.9244 44.2039 72.7962 34.0757 60.3467 34.0757ZM60.3467 76.9958C49.1299 76.9958 40.0043 67.8702 40.0043 56.6534C40.0043 45.4367 49.1299 36.3111 60.3467 36.3111C71.5634 36.3111 80.689 45.4367 80.689 56.6534C80.689 67.8702 71.5634 76.9958 60.3467 76.9958Z" fill="black"/>
<path d="M56.8445 56.6533C56.8445 58.5844 58.4155 60.1554 60.3467 60.1554C62.2778 60.1554 63.8488 58.5844 63.8488 56.6533C63.8488 54.7222 62.2778 53.1511 60.3467 53.1511C58.4155 53.1511 56.8445 54.7222 56.8445 56.6533ZM60.3467 55.3865C61.0451 55.3865 61.6134 55.9548 61.6134 56.6533C61.6134 57.3518 61.0451 57.92 60.3467 57.92C59.6482 57.92 59.0799 57.3518 59.0799 56.6533C59.0799 55.9548 59.6482 55.3865 60.3467 55.3865Z" fill="black"/>
<path d="M71.8285 43.7038L57.3291 49.9178C55.6508 50.6371 54.3303 51.9576 53.611 53.6358L47.397 68.1352C47.217 68.5553 47.3109 69.0426 47.634 69.3659C47.848 69.5799 48.1338 69.6933 48.4246 69.6933C48.573 69.6933 48.7226 69.6638 48.8647 69.603L63.364 63.3889C65.0424 62.6697 66.3629 61.3493 67.0821 59.671L73.2962 45.1714C73.4762 44.7513 73.3823 44.264 73.0592 43.9408C72.7361 43.6178 72.2488 43.5239 71.8285 43.7038ZM65.0275 58.7904C64.5354 59.9388 63.6318 60.8422 62.4836 61.3343L50.5525 66.4476L55.6658 54.5164C56.1579 53.368 57.0613 52.4646 58.2098 51.9725L70.1409 46.8592L65.0275 58.7904Z" fill="black"/>
<path d="M60.3467 43.4644C60.9639 43.4644 61.4644 42.9639 61.4644 42.3466V39.9622C61.4644 39.3449 60.9639 38.8445 60.3467 38.8445C59.7294 38.8445 59.2289 39.3449 59.2289 39.9622V42.3466C59.2289 42.9639 59.7294 43.4644 60.3467 43.4644Z" fill="black"/>
<path d="M60.3467 69.8423C59.7294 69.8423 59.2289 70.3427 59.2289 70.96V73.3444C59.2289 73.9617 59.7294 74.4622 60.3467 74.4622C60.9639 74.4622 61.4644 73.9617 61.4644 73.3444V70.96C61.4644 70.3427 60.9639 69.8423 60.3467 69.8423Z" fill="black"/>
<path d="M46.04 55.5356H43.6555C43.0383 55.5356 42.5378 56.0361 42.5378 56.6534C42.5378 57.2706 43.0383 57.7711 43.6555 57.7711H46.04C46.6572 57.7711 47.1577 57.2706 47.1577 56.6534C47.1577 56.0361 46.6572 55.5356 46.04 55.5356Z" fill="black"/>
<path d="M77.0378 55.5356H74.6533C74.0361 55.5356 73.5356 56.0361 73.5356 56.6534C73.5356 57.2706 74.0361 57.7711 74.6533 57.7711H77.0378C77.6551 57.7711 78.1555 57.2706 78.1555 56.6534C78.1555 56.0361 77.6551 55.5356 77.0378 55.5356Z" fill="black"/>
</svg>
