<svg width="120" height="100" viewBox="0 0 120 100" fill="none" xmlns="http://www.w3.org/2000/svg">
<rect width="120" height="100" fill="white"/>
<path d="M44.5124 59.8847L43.9787 64.9251C43.9356 65.3318 44.0672 65.7376 44.3409 66.0417C44.6143 66.3457 45.0042 66.5192 45.4132 66.5192H60.6642C61.073 66.5192 61.4628 66.3455 61.7365 66.0417C62.01 65.7376 62.1415 65.3318 62.0986 64.9251L61.565 59.8847H80.5615C83.5182 59.8847 85.9235 57.4793 85.9235 54.5227V17.362C85.9233 14.4053 83.5178 12 80.5613 12H24.362C21.4053 12 19 14.4053 19 17.362V54.5227C19 57.4793 21.4053 59.8847 24.362 59.8847H44.5124ZM59.0608 63.6346H47.0162L47.4131 59.8847H58.6637L59.0608 63.6346ZM24.362 14.8848H80.5613C81.9273 14.8848 83.0385 15.996 83.0385 17.362V50.0769H21.8848V17.362C21.8848 15.996 22.996 14.8848 24.362 14.8848ZM21.8848 54.5227V52.9616H83.0383V54.5227C83.0383 55.8887 81.9271 56.9999 80.5611 56.9999H24.362C22.996 56.9999 21.8848 55.8887 21.8848 54.5227Z" fill="black"/>
<path d="M80.5214 76.2101C80.783 75.7793 80.8009 75.2433 80.5684 74.7962L77.7196 69.3154C77.4713 68.8378 76.978 68.5382 76.4397 68.5382H28.4835C27.9454 68.5382 27.4519 68.8378 27.2036 69.3154L24.3549 74.7962C24.1225 75.2433 24.1402 75.7793 24.4018 76.2101C24.6633 76.6409 25.1309 76.9038 25.6347 76.9038H79.2885C79.7924 76.904 80.2599 76.6409 80.5214 76.2101ZM28.01 74.0192L29.3593 71.4232H75.5637L76.9132 74.0192H28.01Z" fill="black"/>
<path d="M83.0385 79.4999H80.7307C77.3905 79.4999 74.6729 82.2173 74.6729 85.5577C74.6729 86.3543 75.3187 87.0001 76.1153 87.0001H87.6537C88.4503 87.0001 89.0961 86.3543 89.0961 85.5577C89.0963 82.2175 86.3789 79.4999 83.0385 79.4999ZM77.905 84.1153C78.431 83.0889 79.5003 82.3846 80.7307 82.3846H83.0385C84.269 82.3846 85.3382 83.0889 85.8644 84.1153H77.905Z" fill="black"/>
</svg>
