<svg width="120" height="100" viewBox="0 0 120 100" fill="none" xmlns="http://www.w3.org/2000/svg">
<rect width="120" height="100" fill="white"/>
<path d="M83.8951 26.1049C77.379 19.5887 68.7153 16 59.5 16C50.2847 16 41.6209 19.5887 35.1049 26.1049C28.5887 32.6209 25 41.2847 25 50.5C25 59.7153 28.5887 68.379 35.1049 74.8951C41.6209 81.4113 50.2847 85 59.5 85C68.7153 85 77.379 81.4113 83.8951 74.8951C90.4113 68.379 94 59.7153 94 50.5C94 41.2847 90.4113 32.6209 83.8951 26.1049ZM82.446 73.446C76.3169 79.5751 68.1679 82.9505 59.5 82.9505C50.8321 82.9505 42.6831 79.5751 36.554 73.4459C30.4249 67.3169 27.0495 59.1679 27.0495 50.5C27.0495 41.8321 30.4249 33.6831 36.5541 27.5541C42.6831 21.4249 50.8321 18.0495 59.5 18.0495C68.1679 18.0495 76.3169 21.4249 82.446 27.5541C88.5751 33.6831 91.9505 41.832 91.9505 50.5C91.9505 59.168 88.5751 67.3169 82.446 73.446Z" fill="black"/>
<path d="M85.8118 59.0452C84.4604 63.2306 82.19 66.938 79.0637 70.0643L80.5131 71.5133C83.8711 68.1553 86.3099 64.1722 87.7619 59.6749L85.8118 59.0452Z" fill="black"/>
<path d="M88.0935 42.4222C86.7259 37.5507 84.1047 33.0773 80.5135 29.4861L79.0642 30.9354C85.7777 37.6487 88.5564 47.2127 86.4973 56.5194L88.4986 56.9621C89.5585 52.1701 89.4185 47.1423 88.0935 42.4222Z" fill="black"/>
<path d="M59.5 47.2769C57.7228 47.2769 56.2769 48.7228 56.2769 50.5C56.2769 52.2773 57.7228 53.7232 59.5 53.7232C61.2773 53.7232 62.7232 52.2773 62.7232 50.5C62.7232 48.7228 61.2773 47.2769 59.5 47.2769ZM59.5 51.6737C58.8529 51.6737 58.3264 51.1472 58.3264 50.5C58.3264 49.8529 58.8529 49.3264 59.5 49.3264C60.1472 49.3264 60.6737 49.8529 60.6737 50.5C60.6737 51.1472 60.1472 51.6737 59.5 51.6737Z" fill="black"/>
<path d="M42.0304 47.2769C40.2532 47.2769 38.8073 48.7228 38.8073 50.5C38.8073 52.2773 40.2532 53.7232 42.0304 53.7232C43.8077 53.7232 45.2536 52.2773 45.2536 50.5C45.2535 48.7228 43.8076 47.2769 42.0304 47.2769ZM42.0304 51.6737C41.3833 51.6737 40.8568 51.1472 40.8568 50.5C40.8568 49.8529 41.3833 49.3264 42.0304 49.3264C42.6776 49.3264 43.2041 49.8529 43.2041 50.5C43.2041 51.1472 42.6775 51.6737 42.0304 51.6737Z" fill="black"/>
<path d="M68.2348 29.8074C66.4575 29.8074 65.0116 31.2533 65.0116 33.0306C65.0116 34.8079 66.4575 36.2538 68.2348 36.2538C70.0121 36.2538 71.458 34.8079 71.458 33.0306C71.458 31.2533 70.0119 29.8074 68.2348 29.8074ZM68.2348 34.2041C67.5876 34.2041 67.0611 33.6776 67.0611 33.0304C67.0611 32.3833 67.5876 31.8568 68.2348 31.8568C68.8819 31.8568 69.4085 32.3833 69.4085 33.0304C69.4085 33.6776 68.8819 34.2041 68.2348 34.2041Z" fill="black"/>
<path d="M76.9695 47.2769C75.1922 47.2769 73.7463 48.7228 73.7463 50.5C73.7463 52.2773 75.1922 53.7232 76.9695 53.7232C78.7468 53.7232 80.1927 52.2773 80.1927 50.5C80.1927 48.7228 78.747 47.2769 76.9695 47.2769ZM76.9695 51.6737C76.3224 51.6737 75.7959 51.1472 75.7959 50.5C75.7959 49.8529 76.3222 49.3264 76.9695 49.3264C77.6167 49.3264 78.1432 49.8529 78.1432 50.5C78.1432 51.1472 77.6168 51.6737 76.9695 51.6737Z" fill="black"/>
<path d="M50.7652 29.8074C48.9879 29.8074 47.542 31.2533 47.542 33.0306C47.542 34.8079 48.9879 36.2538 50.7652 36.2538C52.5425 36.2538 53.9884 34.8079 53.9884 33.0306C53.9884 31.2533 52.5425 29.8074 50.7652 29.8074ZM50.7652 34.2041C50.118 34.2041 49.5915 33.6776 49.5915 33.0304C49.5915 32.3833 50.118 31.8568 50.7652 31.8568C51.4123 31.8568 51.9389 32.3833 51.9389 33.0304C51.9389 33.6776 51.4125 34.2041 50.7652 34.2041Z" fill="black"/>
<path d="M68.2348 64.7463C66.4575 64.7463 65.0116 66.1922 65.0116 67.9695C65.0116 69.7468 66.4575 71.1927 68.2348 71.1927C70.0121 71.1927 71.458 69.7468 71.458 67.9695C71.458 66.1922 70.0119 64.7463 68.2348 64.7463ZM68.2348 69.1431C67.5876 69.1431 67.0611 68.6167 67.0611 67.9694C67.0611 67.3222 67.5876 66.7957 68.2348 66.7957C68.8819 66.7957 69.4085 67.3221 69.4085 67.9694C69.4085 68.6167 68.8819 69.1431 68.2348 69.1431Z" fill="black"/>
<path d="M50.7652 64.7463C48.9879 64.7463 47.542 66.1922 47.542 67.9695C47.542 69.7468 48.9879 71.1927 50.7652 71.1927C52.5425 71.1927 53.9884 69.7468 53.9884 67.9695C53.9884 66.1922 52.5425 64.7463 50.7652 64.7463ZM50.7652 69.1431C50.118 69.1431 49.5915 68.6167 49.5915 67.9694C49.5915 67.3222 50.118 66.7957 50.7652 66.7957C51.4123 66.7957 51.9389 67.3221 51.9389 67.9694C51.9389 68.6167 51.4125 69.1431 50.7652 69.1431Z" fill="black"/>
</svg>
