<svg width="120" height="100" viewBox="0 0 120 100" fill="none" xmlns="http://www.w3.org/2000/svg">
<rect width="120" height="100" fill="white"/>
<path d="M93.667 15.6906C92.6857 14.8313 91.4896 14.2737 90.2065 14.0775C90.1881 14.0748 90.1696 14.0724 90.1487 14.07C89.8224 14.0228 89.493 13.999 89.1694 13.999H30.8295C27.0631 13.999 23.9991 17.0631 23.9991 20.8294V79.1692C23.9991 81.2151 24.9051 83.136 26.4835 84.4387C26.5349 84.4813 26.5878 84.5222 26.6408 84.5631L26.6727 84.5882C26.6947 84.6056 26.7166 84.623 26.7421 84.6422C27.9298 85.5303 29.3432 85.9998 30.8297 85.9998H43.9797C44.6031 85.9998 45.1082 85.4945 45.1082 84.8712C45.1082 84.248 50.6234 83.7425 50 83.7425L30.8297 83.7427C29.8343 83.7427 28.8883 83.4287 28.0983 82.8376L28.0177 82.7743C27.9855 82.7495 27.9533 82.7251 27.9211 82.6985C26.863 81.8255 26.2562 80.5391 26.2562 79.1692V20.8294C26.2562 18.3075 28.3079 16.2559 30.8298 16.2559H89.1695C89.3878 16.2559 89.6112 16.2724 89.831 16.3042C89.8466 16.3064 89.8625 16.3085 89.8801 16.3105C90.731 16.4431 91.5258 16.8155 92.18 17.3883C93.1734 18.2583 93.7431 19.5124 93.7431 20.8291V79.169C93.7431 79.7867 93.6223 80.3857 93.3841 80.9489C92.6662 82.646 91.0119 83.7426 89.1695 83.7426L37.4408 83.7424C36.8174 83.7424 46.3122 84.2477 46.3122 84.8709C46.3122 85.4942 36.8174 85.9995 37.4408 85.9995L89.1695 85.9996C91.9206 85.9996 94.3908 84.3623 95.4627 81.8281C95.8193 80.9853 96 80.0906 96 79.169V20.8294C96 18.8623 95.1495 16.9892 93.667 15.6906Z" fill="black"/>
<path d="M86.7917 18.4128C84.2334 18.4128 82.1521 20.4941 82.1521 23.0521C82.1521 25.6104 84.2334 27.6917 86.7917 27.6917C89.3499 27.6917 91.4312 25.6104 91.4312 23.0521C91.4312 20.4941 89.3499 18.4128 86.7917 18.4128ZM86.7917 25.4346C85.4781 25.4346 84.4092 24.3659 84.4092 23.0521C84.4092 21.7385 85.4781 20.6698 86.7917 20.6698C88.1052 20.6698 89.1742 21.7385 89.1742 23.0521C89.1742 24.3659 88.1054 25.4346 86.7917 25.4346Z" fill="black"/>
<path d="M82.1522 76.9032C82.1522 79.4615 84.2335 81.5428 86.7918 81.5428C89.3501 81.5428 91.4313 79.4615 91.4313 76.9032C91.4313 74.3449 89.3501 72.2637 86.7918 72.2637C84.2334 72.2637 82.1522 74.3449 82.1522 76.9032ZM89.1741 76.9031C89.1741 78.2168 88.1054 79.2856 86.7916 79.2856C85.478 79.2856 84.4091 78.2168 84.4091 76.9031C84.4091 75.5894 85.478 74.5206 86.7916 74.5206C88.1052 74.5206 89.1741 75.5894 89.1741 76.9031Z" fill="black"/>
<path d="M33.4242 27.6917C35.9825 27.6917 38.0638 25.6104 38.0638 23.0521C38.0638 20.494 35.9825 18.4128 33.4242 18.4128C30.8659 18.4128 28.7847 20.4941 28.7847 23.0521C28.7847 25.6104 30.8659 27.6917 33.4242 27.6917ZM33.4242 20.6698C34.7378 20.6698 35.8067 21.7385 35.8067 23.0521C35.8067 24.3659 34.7378 25.4346 33.4242 25.4346C32.1106 25.4346 31.0417 24.3659 31.0417 23.0521C31.0417 21.7385 32.1105 20.6698 33.4242 20.6698Z" fill="black"/>
<path d="M33.4242 81.5425C35.9825 81.5425 38.0638 79.4613 38.0638 76.903C38.0638 74.3447 35.9825 72.2634 33.4242 72.2634C30.8659 72.2634 28.7847 74.3447 28.7847 76.903C28.7847 79.4613 30.8659 81.5425 33.4242 81.5425ZM33.4242 74.5208C34.7378 74.5208 35.8067 75.5895 35.8067 76.9033C35.8067 78.217 34.7378 79.2858 33.4242 79.2858C32.1106 79.2858 31.0417 78.217 31.0417 76.9033C31.0417 75.5895 32.1105 74.5208 33.4242 74.5208Z" fill="black"/>
<path d="M60.2638 77.8634C75.774 77.8634 88.3923 65.2451 88.3923 49.7351C88.3923 45.2482 87.362 40.9564 85.3302 36.9794C85.0466 36.4242 84.367 36.2046 83.8119 36.4878C83.257 36.7713 83.0369 37.4511 83.3203 38.0062C85.1881 41.6622 86.1351 45.6084 86.1351 49.7351C86.1351 64.0006 74.5291 75.6064 60.2635 75.6064C45.9979 75.6064 34.3923 64.0004 34.3923 49.735C34.3923 35.4695 45.9982 23.8637 60.2638 23.8637C68.8593 23.8637 76.8772 28.1322 81.7115 35.2818C82.0605 35.798 82.7618 35.9336 83.2785 35.5846C83.7949 35.2355 83.9303 34.5339 83.5813 34.0176C78.3268 26.2462 69.6099 21.6067 60.2638 21.6067C44.7537 21.6067 32.1354 34.225 32.1354 49.735C32.1354 65.245 44.7538 77.8634 60.2638 77.8634Z" fill="black"/>
<path d="M76.7925 32.8867C76.7741 32.8688 76.7555 32.8514 76.7371 32.8334C76.6406 32.7393 76.5436 32.6458 76.4456 32.5534C76.4284 32.5372 76.4111 32.5213 76.394 32.5053C73.081 29.402 68.8762 27.2407 64.2101 26.4523C64.1839 26.4478 64.1576 26.4436 64.1313 26.4392C63.9959 26.4169 63.8602 26.3949 63.7241 26.375C63.6681 26.3667 63.6118 26.3594 63.5557 26.3513C63.4399 26.335 63.3241 26.3186 63.2078 26.3041C63.0866 26.2889 62.965 26.2757 62.8435 26.2623C61.996 26.1698 61.1357 26.1208 60.2638 26.1208C53.4016 26.1208 47.2145 29.064 42.896 33.7531C42.8935 33.7559 42.8909 33.7587 42.8881 33.7615C42.7961 33.8614 42.7054 33.9623 42.6153 34.0639C42.5839 34.0989 42.5527 34.134 42.5216 34.1693C42.4463 34.2553 42.3714 34.3416 42.2973 34.4287C42.2523 34.4814 42.2076 34.5343 42.1632 34.5873C42.0986 34.6643 42.0344 34.7415 41.9708 34.8193C41.9175 34.8844 41.8649 34.9504 41.8122 35.0162C41.7561 35.0865 41.6997 35.1565 41.6443 35.2276C41.5851 35.3032 41.527 35.3799 41.4688 35.4562C41.4195 35.5209 41.3698 35.5852 41.3211 35.6503C41.3166 35.6563 41.312 35.6622 41.3076 35.6681C41.3061 35.6702 41.3049 35.6725 41.3034 35.6746C39.4776 38.1301 38.1175 40.9511 37.3533 44.0056C37.3401 44.0586 37.3273 44.1115 37.3145 44.1645C37.264 44.3727 37.2161 44.5818 37.1711 44.792C37.1633 44.8277 37.1552 44.8633 37.1477 44.899C37.0963 45.145 37.0487 45.3922 37.0051 45.641C36.9991 45.6753 36.9939 45.7097 36.988 45.744C36.9517 45.9561 36.9185 46.169 36.888 46.3829C36.88 46.439 36.8721 46.4951 36.8644 46.5512C36.8326 46.7858 36.8035 47.0214 36.7787 47.258C36.7777 47.2689 36.7762 47.2795 36.7751 47.2904C36.7495 47.5379 36.7284 47.7868 36.7107 48.0365C36.7064 48.0964 36.7031 48.1565 36.6993 48.2164C36.687 48.4075 36.6772 48.5992 36.6695 48.7914C36.6668 48.8598 36.6637 48.9278 36.6616 48.9962C36.6538 49.2419 36.6489 49.4882 36.6489 49.7356C36.6489 49.9368 36.6516 50.1375 36.6567 50.3379C36.6575 50.3769 36.6599 50.4155 36.661 50.4545C36.6658 50.6172 36.6714 50.7797 36.6797 50.942C36.6813 50.97 36.6834 50.9977 36.6848 51.0257C36.6941 51.1992 36.7048 51.3725 36.7177 51.5455C36.7187 51.5591 36.7202 51.5727 36.7212 51.5862C36.7357 51.7733 36.7521 51.9599 36.7711 52.1459C36.7713 52.1472 36.7714 52.1483 36.7716 52.1496C36.8713 53.1303 37.0323 54.1001 37.2535 55.0562C37.2562 55.0682 37.2594 55.08 37.2621 55.0919C37.3028 55.2666 37.3452 55.4408 37.3899 55.6146C37.3983 55.6475 37.4075 55.68 37.416 55.7129C37.4556 55.864 37.4961 56.0149 37.5387 56.1652C37.5558 56.2255 37.5742 56.2854 37.5918 56.3457C37.6274 56.4671 37.6627 56.5886 37.7003 56.7096C37.7287 56.8015 37.7589 56.8926 37.7886 56.9842C37.8171 57.0725 37.845 57.1611 37.8748 57.2493C37.9168 57.3739 37.9607 57.4973 38.0044 57.6211C38.024 57.6762 38.0428 57.7313 38.0626 57.7863C38.1189 57.941 38.1773 58.0946 38.2367 58.2479C38.2463 58.2725 38.2554 58.2974 38.265 58.322C38.3335 58.4966 38.4041 58.6704 38.4765 58.8431C38.4785 58.8478 38.4803 58.8526 38.4823 58.8573C38.4823 58.8575 38.4824 58.8576 38.4826 58.8579C39.6052 61.5283 41.2044 63.9506 43.1741 66.0171C43.1761 66.0192 43.1778 66.0214 43.1798 66.0235C43.3069 66.1569 43.4357 66.2881 43.5658 66.4183C43.5839 66.4364 43.6025 66.4541 43.6208 66.4723C43.7282 66.5792 43.8364 66.685 43.9458 66.7897C43.9926 66.8345 44.0401 66.8785 44.0874 66.923C44.167 66.9978 44.2466 67.0726 44.3273 67.1463C44.3931 67.2065 44.4593 67.266 44.5257 67.3253C44.5862 67.3793 44.6465 67.4333 44.7074 67.4868C44.7907 67.5599 44.8746 67.6322 44.9588 67.704C44.9991 67.7382 45.0391 67.7722 45.0795 67.806C45.1831 67.8933 45.2876 67.9798 45.3928 68.0653C45.4053 68.0756 45.418 68.0855 45.4304 68.0957C48.2422 70.3716 51.5845 72.0156 55.2405 72.8107C55.2505 72.8129 55.2603 72.8151 55.2703 72.8172C55.4142 72.8482 55.5583 72.8781 55.7029 72.9067C55.7451 72.915 55.7871 72.923 55.8291 72.9308C55.9535 72.9545 56.0778 72.978 56.2027 72.9996C56.2704 73.0116 56.3384 73.0223 56.4064 73.0335C56.5125 73.0509 56.6185 73.0691 56.7251 73.0851C56.8591 73.1054 56.9935 73.1238 57.128 73.1416C58.1541 73.2785 59.2004 73.3502 60.2632 73.3502C62.792 73.3502 65.2286 72.949 67.5144 72.2098C67.5277 72.2055 67.5412 72.2011 67.5547 72.1968C68.2888 71.9578 69.0071 71.684 69.708 71.3771C69.7169 71.3731 69.7256 71.3693 69.7345 71.3655C70.4425 71.0542 71.1326 70.7094 71.8025 70.3326C71.8086 70.3292 71.8148 70.3262 71.8208 70.3228C71.8264 70.3197 71.8319 70.3164 71.8374 70.3132C71.8378 70.3129 71.8381 70.3128 71.8387 70.3125C79.0189 66.2573 83.878 58.5542 83.878 49.7363C83.8781 43.1484 81.1659 37.1835 76.8008 32.8961C76.798 32.8926 76.7956 32.8895 76.7925 32.8867ZM63.221 41.8875C63.2694 41.7947 63.3185 41.7023 63.3652 41.6084C63.3707 41.5974 63.3742 41.5859 63.3794 41.5747C64.5345 39.2337 65.1506 36.6413 65.1506 33.9927C65.1506 32.1992 64.8781 30.4495 64.3389 28.7693C68.2621 29.5361 71.9368 31.4145 74.8766 34.1752C74.8173 39.0894 72.3687 43.6082 68.2857 46.3492C68.0718 46.3583 67.8569 46.3628 67.6443 46.3628H67.644C67.4763 46.3628 67.3086 46.3589 67.1409 46.3532C67.1163 46.3524 67.0915 46.3525 67.0666 46.3514C66.9416 46.3466 66.817 46.3379 66.6923 46.3299C66.5986 46.3238 66.5052 46.3179 66.4117 46.3102C66.3078 46.3016 66.2039 46.2912 66.1002 46.2804C65.9799 46.2677 65.8595 46.2537 65.7395 46.2381C65.6543 46.2271 65.5691 46.2163 65.4842 46.2038C65.4484 46.1985 65.413 46.1917 65.3773 46.1862C65.3725 46.179 65.3673 46.172 65.3625 46.1648C65.3393 46.1302 65.3154 46.0962 65.2916 46.062C65.2599 46.0164 65.2279 45.9712 65.1952 45.9264C65.17 45.8923 65.1447 45.8585 65.1189 45.825C65.0862 45.7823 65.053 45.74 65.0192 45.6982C64.9917 45.6639 64.964 45.6299 64.9357 45.5962C64.9035 45.558 64.8707 45.5206 64.8376 45.483C64.8059 45.447 64.7747 45.4109 64.7422 45.3757C64.718 45.3494 64.693 45.3241 64.6684 45.2983C63.9783 44.5726 63.1223 44.0066 62.1607 43.6633C62.1843 43.6287 62.2063 43.593 62.2296 43.5583C62.2905 43.4681 62.3501 43.377 62.4093 43.2853C62.4581 43.2098 62.5074 43.1346 62.5549 43.0582C62.6197 42.9541 62.6826 42.8487 62.7453 42.7432C62.7829 42.6798 62.8219 42.6173 62.8587 42.5536C62.9539 42.3885 63.0461 42.2216 63.136 42.0532C63.1648 41.9984 63.1924 41.9428 63.221 41.8875ZM63.5619 51.9336C63.5604 51.9358 63.559 51.9381 63.5574 51.9405C63.5164 52.0069 63.4729 52.0713 63.4286 52.1347C63.4133 52.1566 63.3978 52.1786 63.3819 52.2002C63.3517 52.2418 63.3202 52.2822 63.2887 52.3226C63.2279 52.3998 63.1654 52.4754 63.0993 52.5481C63.0988 52.5485 63.0986 52.549 63.098 52.5495C63.055 52.5969 63.0107 52.6432 62.9654 52.6886C62.9616 52.6924 62.9579 52.6963 62.954 52.7C62.6279 53.025 62.2485 53.2965 61.8303 53.5006C61.8227 53.5044 61.8152 53.5083 61.8073 53.512C61.7601 53.5348 61.7121 53.5559 61.6639 53.577C61.6342 53.5897 61.6045 53.6023 61.5747 53.6142C61.5362 53.6298 61.4977 53.6456 61.4586 53.6601C61.3864 53.6866 61.3141 53.7122 61.2406 53.735C61.236 53.7366 61.2312 53.7375 61.2264 53.7391C61.1482 53.7629 61.069 53.7844 60.9893 53.8036C60.9779 53.8065 60.9662 53.8088 60.9547 53.8117C60.8737 53.8305 60.7921 53.8474 60.7097 53.8613C60.708 53.8616 60.7064 53.8619 60.7047 53.8621C60.4342 53.9077 60.1567 53.9274 59.875 53.9192C58.5739 53.8813 57.3672 53.2319 56.6103 52.1909C56.6088 52.1888 56.6074 52.1867 56.6058 52.1846C56.5539 52.1129 56.504 52.0391 56.4563 51.9637C56.4548 51.9614 56.4534 51.9592 56.452 51.9569C56.4045 51.8813 56.3593 51.8038 56.3164 51.7248C56.305 51.7034 56.2949 51.6812 56.2821 51.6606C56.2814 51.6591 56.2806 51.6578 56.2799 51.6563C55.6086 50.3584 55.6669 48.7868 56.4367 47.5362C56.4381 47.5341 56.4393 47.532 56.4407 47.5299C56.4818 47.4635 56.5252 47.3991 56.5695 47.3357C56.5853 47.313 56.6013 47.2905 56.6175 47.2683C56.6459 47.2291 56.6757 47.191 56.7054 47.1528C57.2499 46.4597 58.0077 45.9423 58.8795 45.7C58.912 45.6912 58.9443 45.6816 58.9771 45.6736C59.0134 45.6644 59.0501 45.6564 59.0866 45.6483C59.1384 45.6369 59.1901 45.6262 59.2423 45.6166C59.2673 45.6121 59.2922 45.6074 59.3174 45.6033C59.5802 45.5607 59.8495 45.5421 60.123 45.5503C60.1232 45.5503 60.1235 45.5503 60.1236 45.5503C61.4247 45.5881 62.6315 46.2376 63.3883 47.2787C63.3898 47.2807 63.3911 47.2828 63.3926 47.2847C63.4446 47.3566 63.4946 47.4304 63.5424 47.506C63.5438 47.5082 63.5452 47.5103 63.5466 47.5124C63.5953 47.5898 63.6414 47.6688 63.685 47.7497C63.6851 47.7498 63.6851 47.7501 63.6853 47.7502C64.3916 49.0602 64.3442 50.6627 63.5619 51.9336ZM60.2638 28.3778C60.7862 28.3778 61.304 28.3975 61.8172 28.4346C62.5309 30.2007 62.8932 32.0672 62.8932 33.9931C62.8932 34.8642 62.8158 35.728 62.6661 36.576C61.6583 33.4552 59.7749 30.6856 57.2125 28.5966C58.2095 28.4534 59.228 28.3778 60.2638 28.3778ZM54.2439 29.2432C58.3064 31.7759 60.8844 36.0706 61.2104 40.863C61.2031 40.877 61.1962 40.8914 61.1889 40.9056C61.0879 41.0976 60.9831 41.2872 60.8743 41.4742C60.8677 41.4854 60.8618 41.4973 60.855 41.5085C60.7331 41.7166 60.6062 41.9217 60.4747 42.1233C60.4688 42.1322 60.4625 42.1408 60.4569 42.1495C60.3361 42.3338 60.2111 42.5153 60.0824 42.6937C60.0406 42.7518 59.9962 42.8082 59.9534 42.8657C59.8588 42.9931 59.7635 43.1198 59.6649 43.244C59.6493 43.2635 59.6328 43.2827 59.6171 43.3022C59.4489 43.3122 59.2825 43.3292 59.118 43.3517C59.107 43.3532 59.096 43.3544 59.0852 43.3559C59.0233 43.3648 58.9619 43.375 58.9006 43.3856C58.8595 43.3926 58.8184 43.3999 58.7775 43.4077C58.732 43.4165 58.6864 43.4255 58.6411 43.4354C58.5725 43.45 58.5043 43.4659 58.4365 43.4828C58.416 43.4878 58.3953 43.4926 58.3749 43.4978C57.4302 43.7412 56.5586 44.1941 55.8208 44.8246C55.8021 44.786 55.7819 44.7481 55.7629 44.7096C55.7161 44.6141 55.668 44.519 55.6193 44.4244C55.5773 44.3426 55.5359 44.2606 55.4926 44.1796C55.4355 44.0726 55.3762 43.9667 55.3168 43.8609C55.2768 43.7898 55.238 43.718 55.197 43.6474C55.1052 43.489 55.0106 43.3319 54.9137 43.1763C54.8799 43.1223 54.8449 43.0693 54.8107 43.0157C54.7556 42.9294 54.7015 42.8424 54.6448 42.757C54.6379 42.7466 54.6296 42.7376 54.6224 42.7275C53.1726 40.5569 51.2356 38.7272 48.9421 37.4032C47.4789 36.5583 45.9249 35.9419 44.3031 35.5613C46.9608 32.5759 50.4222 30.3693 54.2439 29.2432ZM42.7322 37.5521C44.5222 37.8376 46.2288 38.4428 47.8133 39.3578C48.5711 39.7954 49.2838 40.2969 49.946 40.8535C48.7655 40.6005 47.5589 40.4704 46.3515 40.4704C44.3802 40.4704 42.4183 40.8175 40.5645 41.4853C41.1497 40.0932 41.879 38.7766 42.7322 37.5521ZM39.9099 56.206C39.9039 56.1885 39.8978 56.1708 39.8922 56.1528C39.8236 55.9358 39.7589 55.718 39.6973 55.4992C39.6772 55.4276 39.6582 55.3556 39.6389 55.2837C39.5942 55.1181 39.5517 54.9519 39.5112 54.7851C39.4935 54.7124 39.4748 54.6401 39.4579 54.5671C39.41 54.3608 39.366 54.1538 39.3243 53.946C39.3061 53.8548 39.2888 53.7631 39.2715 53.6714C39.2415 53.5116 39.2135 53.3511 39.1874 53.1902C39.1732 53.1037 39.1587 53.0175 39.1456 52.9306C39.1155 52.7307 39.0888 52.53 39.0643 52.3287C39.0541 52.2448 39.0446 52.1606 39.0355 52.0763C39.0137 51.8768 38.9942 51.6769 38.9778 51.4764C38.9743 51.4335 38.9703 51.3908 38.967 51.3477C38.95 51.1199 38.9375 50.8914 38.9278 50.6623C38.925 50.5971 38.9226 50.5317 38.9203 50.4663C38.9122 50.223 38.9065 49.9792 38.9065 49.7347C38.9065 49.5256 38.9103 49.3165 38.9165 49.1081C38.9184 49.0455 38.9213 48.9831 38.9236 48.9207C38.9292 48.7717 38.9361 48.623 38.9448 48.4742C38.9489 48.4057 38.9532 48.3372 38.9579 48.2687C38.9683 48.1171 38.9802 47.9657 38.9939 47.8145C38.9989 47.7573 39.0037 47.6999 39.0092 47.6428C39.05 47.2265 39.1026 46.8122 39.1675 46.4001C39.1761 46.3459 39.1854 46.2919 39.1946 46.2379C39.2199 46.0853 39.2464 45.9332 39.275 45.7813C39.2869 45.7183 39.2989 45.6553 39.3113 45.5926C39.3416 45.4382 39.374 45.2843 39.408 45.1308C39.419 45.0808 39.4294 45.0305 39.4408 44.9806C39.4868 44.7785 39.5356 44.5771 39.5876 44.3766C39.5889 44.3718 39.5903 44.367 39.5915 44.3621C41.6838 43.2911 44.0109 42.7269 46.3522 42.7269C48.6192 42.7269 50.8841 43.253 52.9221 44.2503C52.9298 44.2625 52.938 44.2742 52.9457 44.2863C53.0677 44.4792 53.1858 44.6742 53.2984 44.872C53.2997 44.8741 53.3008 44.876 53.3021 44.8781C53.4222 45.0889 53.5369 45.3023 53.6463 45.5183C53.649 45.5235 53.6513 45.529 53.6541 45.5342C53.7555 45.7349 53.8518 45.938 53.944 46.1427C53.9733 46.2075 53.9997 46.2736 54.028 46.3389C54.091 46.4847 54.1533 46.6308 54.2115 46.7785C54.2209 46.8024 54.2292 46.8266 54.2387 46.8506C54.2382 46.8516 54.2378 46.8526 54.2372 46.8536C53.8019 47.7211 53.5551 48.6992 53.5551 49.7343C53.5551 50.1317 53.5932 50.5203 53.6624 50.8979C53.5999 50.8931 53.5375 50.8911 53.4749 50.8869C53.4253 50.8837 53.3755 50.881 53.3258 50.8782C52.6942 50.842 52.0626 50.8413 51.4336 50.8755C51.3822 50.8782 51.3309 50.8796 51.2796 50.8827C51.2731 50.8831 51.2669 50.8847 51.2605 50.8851C48.6434 51.0541 46.0803 51.8231 43.7916 53.1445C42.3421 53.9815 41.0427 55.007 39.9099 56.206ZM43.1311 62.4731C42.2328 61.2682 41.4589 59.9655 40.8276 58.5845C41.9676 57.1832 43.3405 56.0116 44.9195 55.0999C45.6738 54.6646 46.4626 54.2992 47.2744 54.0035C45.1328 56.3756 43.6924 59.3044 43.1311 62.4731ZM56.7794 57.5796C56.7306 57.6735 56.6808 57.7668 56.6337 57.8616C56.6282 57.8725 56.6245 57.8843 56.6193 57.8956C55.4644 60.2366 54.8483 62.8289 54.8483 65.4773C54.8483 67.2283 55.1084 68.9382 55.6234 70.5835C55.6224 70.5832 55.6213 70.5831 55.6203 70.5828C51.9325 69.7577 48.4979 67.9472 45.7122 65.3529C45.6976 65.3394 45.6828 65.3257 45.6683 65.3121C45.4891 65.1442 45.3122 64.9733 45.1386 64.7991C45.3513 60.0815 47.7797 55.7621 51.713 53.1209C51.9834 53.1094 52.2533 53.1058 52.5229 53.1088C52.6448 53.1103 52.7666 53.1129 52.8886 53.1174C52.9719 53.1203 53.055 53.1237 53.1383 53.1281C53.3048 53.1371 53.4713 53.1487 53.6375 53.1631C53.6949 53.168 53.7521 53.1734 53.8095 53.1788C53.9955 53.1973 54.1813 53.2188 54.3665 53.2441C54.4049 53.2493 54.4433 53.2548 54.4818 53.2604C54.5286 53.2671 54.5749 53.2761 54.6217 53.2835C54.6265 53.2908 54.6319 53.2978 54.6366 53.3051C54.6597 53.3396 54.6835 53.3733 54.7071 53.4071C54.739 53.4529 54.7712 53.4986 54.8041 53.5433C54.8291 53.5772 54.8543 53.6107 54.8799 53.6442C54.9128 53.6872 54.9463 53.7298 54.9803 53.7719C55.0077 53.8059 55.0353 53.8398 55.0634 53.8732C55.0959 53.9118 55.129 53.9495 55.1623 53.9873C55.1937 54.023 55.2247 54.0587 55.2568 54.0936C55.2818 54.1208 55.3076 54.1469 55.3329 54.1733C56.0225 54.8981 56.8779 55.4633 57.8386 55.8062C57.8149 55.8408 57.7931 55.8763 57.7697 55.9111C57.7088 56.0014 57.6491 56.0926 57.5899 56.1843C57.5411 56.2597 57.4922 56.3349 57.4445 56.411C57.3791 56.5159 57.3159 56.6221 57.2527 56.7284C57.2157 56.7908 57.1773 56.8524 57.1411 56.9153C57.0456 57.0808 56.9532 57.2481 56.863 57.4169C56.8346 57.471 56.8073 57.5255 56.7794 57.5796ZM60.2637 71.0923C59.5553 71.0924 58.8549 71.057 58.1637 70.9891C57.462 69.2353 57.1053 67.3845 57.1053 65.4771C57.1053 64.6064 57.1828 63.743 57.3323 62.8953C58.3497 66.047 60.2597 68.8389 62.8602 70.9341C62.0088 71.0379 61.1426 71.0923 60.2637 71.0923ZM70.7052 68.3598C69.9512 68.7842 69.1734 69.1618 68.3763 69.4903C68.3721 69.4921 68.3683 69.4936 68.3646 69.495C68.1694 69.5753 67.9731 69.6527 67.7757 69.7272C67.7719 69.7288 67.7682 69.73 67.7644 69.7316C67.1668 69.9566 66.5592 70.1543 65.9437 70.3243C65.9365 70.3263 65.9292 70.3283 65.9219 70.3302C61.7626 67.8117 59.1191 63.4679 58.7888 58.6072C58.7961 58.5928 58.803 58.5783 58.8104 58.564C58.9113 58.3723 59.0159 58.1829 59.1246 57.9961C59.1312 57.9848 59.1373 57.9729 59.144 57.9616C59.2659 57.7534 59.3928 57.5485 59.5243 57.3469C59.5303 57.3377 59.5368 57.3289 59.5428 57.3197C59.6635 57.1355 59.7883 56.9544 59.917 56.7761C59.9586 56.7183 60.0027 56.6622 60.0453 56.6049C60.1402 56.4772 60.236 56.35 60.3348 56.2255C60.3503 56.206 60.3667 56.1871 60.3824 56.1676C60.5514 56.1576 60.7183 56.1404 60.8835 56.1178C60.8937 56.1164 60.9037 56.1154 60.9138 56.1139C60.9764 56.105 61.0384 56.0946 61.1004 56.0839C61.1408 56.077 61.1808 56.07 61.2209 56.0624C61.2675 56.0534 61.3137 56.0441 61.36 56.0343C61.4272 56.0199 61.494 56.0043 61.5607 55.9877C61.5823 55.9822 61.6043 55.9773 61.6258 55.9718C62.5702 55.7284 63.4413 55.2756 64.1787 54.6453C64.1977 54.6848 64.2184 54.7232 64.2379 54.7627C64.2833 54.8555 64.3302 54.9478 64.3774 55.0397C64.4207 55.1244 64.4638 55.2093 64.5085 55.2932C64.5619 55.3933 64.6175 55.4923 64.6729 55.5913C64.7231 55.6811 64.7731 55.7711 64.8249 55.8599C64.9093 56.0046 64.9955 56.1485 65.0842 56.2909C65.1202 56.3487 65.1578 56.4054 65.1945 56.4627C65.2478 56.5463 65.3001 56.6304 65.3551 56.7129C65.3617 56.7231 65.37 56.7318 65.3769 56.7416C66.8267 58.9126 68.7639 60.7426 71.0576 62.0667C72.6117 62.9639 74.264 63.6032 75.9897 63.976C74.4827 65.7128 72.7115 67.183 70.7052 68.3598ZM77.7467 61.9881C75.7838 61.7406 73.9149 61.1107 72.1854 60.1124C71.4279 59.6751 70.7153 59.1735 70.0533 58.6173C71.2348 58.8706 72.4426 59.0009 73.6511 59.0009C73.6511 59.0009 73.6512 59.0009 73.6515 59.0009C75.8482 59.0009 78.0265 58.5703 80.0607 57.7463C79.4487 59.2529 78.6699 60.6747 77.7467 61.9881ZM80.3258 43.0105C81.6233 46.7913 81.8338 50.9129 80.9127 54.8392C78.6911 56.0859 76.1847 56.744 73.6515 56.744C73.6513 56.744 73.6508 56.744 73.6508 56.744C71.3825 56.7439 69.1164 56.2175 67.0772 55.2195C67.0694 55.2074 67.0614 55.1958 67.0537 55.1838C66.9318 54.9908 66.8136 54.7956 66.701 54.5978C66.6997 54.5956 66.6985 54.5937 66.6972 54.5916C66.5772 54.3808 66.4625 54.1673 66.3531 53.9513C66.3503 53.9457 66.3479 53.9402 66.3451 53.9346C66.2438 53.734 66.1475 53.5311 66.0554 53.3265C66.0266 53.2621 66 53.1963 65.972 53.1314C65.9088 52.9852 65.8464 52.8387 65.7879 52.6907C65.7785 52.667 65.7702 52.6426 65.7608 52.6186C65.7612 52.6177 65.7615 52.6169 65.762 52.616C66.1977 51.7482 66.4444 50.7702 66.4444 49.7349C66.4444 49.3375 66.4062 48.9489 66.3372 48.5713C66.3673 48.5736 66.3974 48.5744 66.4275 48.5765C66.5725 48.5868 66.7177 48.5954 66.8631 48.602C66.9621 48.6065 67.0611 48.6096 67.1601 48.6124C67.2372 48.6145 67.3143 48.6159 67.3912 48.617C67.7844 48.623 68.1767 48.6148 68.5685 48.5936C68.6189 48.5909 68.6696 48.5896 68.7198 48.5865C68.7262 48.5861 68.7322 48.5847 68.7385 48.5841C71.356 48.4152 73.9189 47.6464 76.2078 46.3248C77.7613 45.4283 79.1403 44.3177 80.3258 43.0105ZM79.5011 40.4622C78.3019 42.0503 76.8185 43.3663 75.0795 44.3705C74.327 44.8049 73.5401 45.1697 72.7299 45.465C75.0009 42.9526 76.4779 39.8192 76.96 36.4331C77.949 37.6718 78.804 39.0218 79.5011 40.4622Z" fill="black"/>
<path d="M59.9993 46.9263C58.4505 46.9263 57.1907 48.1863 57.1907 49.735C57.1907 51.2837 58.4505 52.5437 59.9993 52.5437C61.5481 52.5437 62.8081 51.2837 62.8081 49.735C62.8081 48.1863 61.5483 46.9263 59.9993 46.9263ZM59.9993 50.2868C59.6952 50.2868 59.4477 50.0393 59.4477 49.735C59.4477 49.4308 59.6952 49.1832 59.9993 49.1832C60.3036 49.1832 60.5512 49.4307 60.5512 49.735C60.5512 50.0392 60.3036 50.2868 59.9993 50.2868Z" fill="black"/>
</svg>
