<svg width="120" height="100" viewBox="0 0 120 100" fill="none" xmlns="http://www.w3.org/2000/svg">
<rect width="120" height="100" fill="white"/>
<path d="M78.8493 36.4841C79.1483 36.7831 79.5408 36.9334 79.9333 36.9334C80.3259 36.9334 80.7184 36.7831 81.0174 36.4841L82.4281 35.0734C83.092 35.4 83.8081 35.584 84.5333 35.584C85.2586 35.584 85.9747 35.4 86.6386 35.075L88.0493 36.4856C88.3483 36.7831 88.7408 36.9334 89.1333 36.9334C89.5259 36.9334 89.9184 36.7831 90.2174 36.4841C90.8169 35.8846 90.8169 34.9155 90.2174 34.316L88.8067 32.9053C89.4584 31.5774 89.4584 30.0226 88.8067 28.6932L90.2174 27.2826C90.8169 26.683 90.8169 25.714 90.2174 25.1144C89.6179 24.5149 88.6488 24.5149 88.0493 25.1144L86.6386 26.5251C85.3107 25.8734 83.7559 25.8734 82.4265 26.5251L81.0159 25.1144C80.4163 24.5149 79.4473 24.5149 78.8477 25.1144C78.2482 25.714 78.2482 26.683 78.8477 27.2826L80.2584 28.6932C79.6052 30.0211 79.6052 31.5759 80.2584 32.9053L78.8477 34.316C78.2497 34.9155 78.2497 35.8846 78.8493 36.4841ZM85.7477 29.5841C86.4178 30.2542 86.4178 31.3459 85.7477 32.016C85.0761 32.6876 83.9875 32.6876 83.3159 32.016C82.6458 31.3444 82.6458 30.2557 83.3159 29.5841C83.6517 29.2483 84.0917 29.0812 84.5318 29.0812C84.9719 29.0812 85.4135 29.2483 85.7477 29.5841Z" fill="black"/>
<path d="M54.3159 36.484C54.6149 36.783 55.0075 36.9332 55.4 36.9332C55.7925 36.9332 56.1851 36.783 56.4841 36.484L57.8947 35.0733C58.5587 35.3999 59.2747 35.5839 60 35.5839C60.7253 35.5839 61.4413 35.3999 62.1053 35.0748L63.5159 36.4855C63.8149 36.783 64.2075 36.9332 64.6 36.9332C64.9925 36.9332 65.3851 36.783 65.6841 36.484C66.2836 35.8844 66.2836 34.9154 65.6841 34.3158L64.2749 32.9067C64.9281 31.5788 64.9281 30.0225 64.2749 28.6946L65.6841 27.2855C66.2836 26.686 66.2836 25.7169 65.6841 25.1174C65.0845 24.5178 64.1155 24.5178 63.5159 25.1174L62.1053 26.528C60.7774 25.8764 59.2226 25.8764 57.8932 26.528L56.4825 25.1174C55.883 24.5178 54.9139 24.5178 54.3144 25.1174C53.7149 25.7169 53.7149 26.686 54.3144 27.2855L55.7251 28.6962C55.0719 30.024 55.0719 31.5788 55.7251 32.9082L54.3144 34.3189C53.7164 34.9154 53.7164 35.8844 54.3159 36.484ZM61.2159 29.584C61.886 30.2556 61.886 31.3442 61.2159 32.0158C60.5443 32.6874 59.4557 32.6874 58.7841 32.0158C58.114 31.3442 58.114 30.2556 58.7841 29.584C59.1199 29.2482 59.5599 29.081 60 29.081C60.4401 29.081 60.8801 29.2482 61.2159 29.584Z" fill="black"/>
<path d="M29.7826 36.484C30.0816 36.783 30.4741 36.9332 30.8667 36.9332C31.2592 36.9332 31.6517 36.783 31.9507 36.484L33.3614 35.0733C34.0253 35.3999 34.7414 35.5839 35.4667 35.5839C36.1919 35.5839 36.908 35.3999 37.5719 35.0748L38.9826 36.4855C39.2816 36.783 39.6741 36.9332 40.0667 36.9332C40.4592 36.9332 40.8517 36.783 41.1507 36.484C41.7503 35.8844 41.7503 34.9154 41.1507 34.3158L39.7416 32.9067C40.3948 31.5788 40.3948 30.0225 39.7416 28.6946L41.1507 27.2855C41.7503 26.686 41.7503 25.7169 41.1507 25.1174C40.5512 24.5178 39.5821 24.5178 38.9826 25.1174L37.5719 26.528C36.2441 25.8764 34.6893 25.8764 33.3599 26.528L31.9492 25.1174C31.3497 24.5178 30.3806 24.5178 29.7811 25.1174C29.1815 25.7169 29.1815 26.686 29.7811 27.2855L31.1917 28.6962C30.5385 30.024 30.5385 31.5788 31.1917 32.9082L29.7811 34.3189C29.1831 34.9154 29.1831 35.8844 29.7826 36.484ZM36.6826 29.584C37.3527 30.2556 37.3527 31.3442 36.6826 32.0158C36.011 32.6874 34.9223 32.6874 34.2507 32.0158C33.5807 31.3442 33.5807 30.2556 34.2507 29.584C34.5865 29.2482 35.0266 29.081 35.4667 29.081C35.9067 29.081 36.3468 29.2482 36.6826 29.584Z" fill="black"/>
<path d="M106 40C106 37.7399 104.758 35.7833 102.933 34.7192V25.7553C102.933 20.9269 99.0049 17 94.1765 17H25.822C20.9951 17 17.0667 20.9284 17.0667 25.7553V34.7192C15.242 35.7833 14 37.7399 14 40V70.6667H15.5333V75.2667H24.7333V70.6667H26.2667H93.7333H95.2667V75.2667H104.467V70.6667H106V40ZM26.2667 50.7333V46.1333H93.7333V50.7333H26.2667ZM96.8 53.8V50.7333V43.0667V40C96.8 38.3087 98.1754 36.9333 99.8667 36.9333C100.038 36.9333 100.206 36.9563 100.37 36.9839C100.537 37.0161 100.708 37.0637 100.888 37.1265L101.129 37.2124C102.19 37.6954 102.933 38.7595 102.933 40V67.6H96.8V53.8ZM20.1333 25.7553C20.1333 22.6197 22.6863 20.0667 25.822 20.0667H94.1765C97.3137 20.0667 99.8667 22.6197 99.8667 25.7553V33.8667C96.4841 33.8667 93.7333 36.6175 93.7333 40V43.0667H26.2667V40C26.2667 36.6175 23.5159 33.8667 20.1333 33.8667V25.7553ZM17.0667 40C17.0667 38.7595 17.8103 37.6939 18.8714 37.2124L19.1106 37.1281C19.2915 37.0637 19.4633 37.0177 19.6304 36.9855C19.7945 36.9563 19.9616 36.9333 20.1333 36.9333C21.8246 36.9333 23.2 38.3087 23.2 40V43.0667V50.7333V53.8V67.6H17.0667V40ZM21.6667 72.2H18.6V70.6667H21.6667V72.2ZM26.2667 53.8H58.4667V67.6H26.2667V53.8ZM93.7333 67.6H61.5333V53.8H93.7333V67.6ZM101.4 72.2H98.3333V70.6667H101.4V72.2Z" fill="black"/>
</svg>
