<svg width="120" height="100" viewBox="0 0 120 100" fill="none" xmlns="http://www.w3.org/2000/svg">
<rect width="120" height="100" fill="white"/>
<g clip-path="url(#clip0_3_19)">
<path d="M26.0009 48.4213C26.0011 48.3209 26.011 48.2201 26.0337 48.12C26.1145 47.7696 26.3275 47.4704 26.6334 47.2791C26.8477 47.1456 27.0943 47.0742 27.3463 47.0742C27.8139 47.0742 28.2425 47.3101 28.4905 47.7076C29.9311 50.0242 32.3057 51.5511 34.0442 52.4244C35.0468 52.9298 36.8374 53.5829 36.9864 53.63C38.485 52.7221 40.0352 52.026 41.6018 51.5633C43.1867 51.0956 44.8052 50.8584 46.4116 50.8584H46.4318C48.2094 50.8584 50.0031 51.1414 51.7658 51.698C53.1647 52.1387 54.5514 52.7546 55.887 53.5268C57.2737 54.3313 58.3114 55.1319 58.9367 55.6628C60.2089 55.2936 61.5256 55.1063 62.8517 55.1063H62.8557C64.2788 55.1076 65.7289 55.3192 67.1669 55.7356C68.3029 56.0658 69.443 56.5267 70.5549 57.1048C70.9282 57.3002 71.2988 57.5091 71.6559 57.7247C71.7986 56.1616 71.9024 54.6346 71.9681 53.1536C71.4808 53.2317 70.9817 53.2734 70.4727 53.2734C65.271 53.2734 61.0391 49.0415 61.0391 43.8398C61.0391 38.8394 64.9505 34.7374 69.874 34.4273C69.8498 34.362 68.6897 31.7972 68.3258 31.246C68.1439 30.9684 67.997 30.777 67.9054 30.6652C67.4472 30.4792 66.1804 30.0466 64.2707 30.0466C62.6805 30.0479 60.88 30.3889 59.1726 30.9738C58.4556 31.2204 57.4341 31.5735 56.3223 31.5762H56.3128C55.294 31.5762 54.3736 31.3053 53.6499 30.7945C52.8803 30.2582 52.3143 29.4145 52.0556 28.42C51.972 28.1046 51.9289 27.7731 51.9289 27.4321C51.9087 26.5113 52.4275 25.5063 52.4478 25.4726C52.3413 25.3918 52.2375 25.3082 52.1378 25.222C51.7604 24.8945 51.4693 24.5589 51.2456 24.1964C50.9519 23.718 50.7969 23.1951 50.7969 22.6816C50.8036 21.8434 51.0597 20.9917 51.6014 20.0012C52.2591 18.822 53.251 17.6401 54.3938 16.6724C54.9652 16.1927 55.5298 15.8059 56.0716 15.5242C56.5756 15.2695 57.1902 15.0081 57.9394 15C58.9219 15 61.911 15 65.4782 16.0458C67.3434 16.5916 69.1398 17.3544 70.819 18.3152C72.8203 19.4594 74.676 20.8987 76.335 22.5927C76.6449 22.749 77.1233 23.0199 77.6422 23.4229C78.1287 23.8042 78.5262 24.2045 78.8564 24.6479C79.2944 25.2354 79.5828 25.8702 79.7149 26.5346C80.0141 28.0601 81.0747 30.8929 82.4156 33.7513C82.5692 34.0774 82.5854 34.4426 82.4627 34.7809C82.3401 35.1205 82.0935 35.39 81.7674 35.5437C81.5868 35.6272 81.3941 35.6704 81.196 35.6704C80.6758 35.6704 80.196 35.3658 79.975 34.8941C78.4764 31.6826 77.4454 28.9011 77.0721 27.0629C77.0182 26.7906 76.8942 26.5265 76.6934 26.257C76.3417 25.7772 75.8121 25.4106 75.6018 25.2759C75.4159 25.1546 75.1629 25.0216 75.0591 24.969C75.0559 24.9675 75.0548 24.967 75.0547 24.967C74.8923 24.8965 74.6883 24.7653 74.5655 24.6384C71.7893 21.7558 68.4768 19.7357 64.7209 18.6319C61.5175 17.6953 58.8262 17.6953 57.9435 17.6953C57.9327 17.6953 57.4172 17.7795 56.3398 18.5632C55.5932 19.1521 54.8318 19.9688 54.3048 20.7478C53.7536 21.5361 53.4747 22.3299 53.4922 22.6776C53.4922 22.6803 53.6775 22.9962 54.2496 23.4498C54.4381 23.5788 54.6593 23.7044 54.8751 23.8091C55.3693 23.7301 56.3855 23.3739 56.8396 21.8005C57.0462 21.0853 57.7932 20.6735 58.5082 20.8796C59.2232 21.086 59.6356 21.833 59.4291 22.5481C58.6037 25.4073 56.4196 26.3513 55.0615 26.5037C54.9071 26.623 54.8187 26.7373 54.7629 26.8528C54.6376 27.1122 54.6416 27.3723 54.6416 27.5785C54.7871 28.0973 54.9183 28.3981 55.2049 28.5926C55.4769 28.7772 55.8558 28.8796 56.3289 28.881C56.9811 28.881 57.6246 28.6592 58.4211 28.3817C60.4089 27.6998 62.3798 27.3514 64.2666 27.3514H64.2706C65.5697 27.3514 66.7988 27.5131 67.9228 27.8298C68.7758 28.0697 69.2623 28.3163 69.3499 28.3635C69.4618 28.4214 69.5682 28.4996 69.6585 28.5872C69.7151 28.6411 71.0493 29.9416 72.3188 33.2703C72.4943 33.7293 72.6599 34.208 72.8173 34.7015C76.8884 35.7466 79.9062 39.4473 79.9062 43.8398C79.9062 47.5224 77.784 50.7168 74.6994 52.2697C74.6145 54.8148 74.3897 57.6371 74.0772 60.4308C74.0443 60.5544 73.288 63.5451 75.7598 65.0623C76.3941 65.4517 76.5926 66.2816 76.2033 66.9159C75.9489 67.3303 75.5066 67.5587 75.0535 67.5587C74.813 67.5587 74.5697 67.4943 74.3497 67.3594C71.4924 65.6054 71.0628 62.6235 71.2884 60.709C70.8197 60.3718 70.0888 59.8903 69.1533 59.4147C67.7086 58.6789 65.4459 57.8016 62.8665 57.8016H62.8557C61.5619 57.8016 60.2857 58.0212 59.062 58.4525C58.5863 58.6209 58.0244 58.4943 57.6659 58.1398C57.6659 58.1398 57.6645 58.1398 57.6645 58.1385L57.6632 58.1371C57.6524 58.1263 56.4382 56.9445 54.4423 55.8057C52.6445 54.7788 49.7983 53.5537 46.4412 53.5537H46.4318C43.5004 53.5578 40.7206 54.4289 37.9332 56.2146C37.718 56.3581 37.4606 56.4404 37.1869 56.4404C37.0764 56.4404 36.9659 56.427 36.8581 56.4L36.85 56.3973C36.5373 56.3164 34.873 55.8596 32.8299 54.83C31.2348 54.0215 29.8548 53.0923 28.6953 52.0531V81.3047H46.9129L49.2727 75.2874C49.4088 74.9424 49.6837 74.6648 50.0287 74.5273C50.3683 74.3926 50.7672 74.4033 51.0987 74.5583C51.0987 74.5583 51.1203 74.5691 51.1729 74.5934C51.5286 74.7551 53.4248 75.6081 55.8775 76.4154C57.5918 76.9828 60.8996 77.9355 63.5976 77.9355C66.0503 77.9355 69.2908 77.4052 72.6289 76.8541C76.4589 76.226 80.9345 75.5448 85.7888 75.3764C87.0461 75.344 88.8803 74.7227 90.2495 73.867C90.9112 73.4586 91.4988 72.9802 91.8613 72.553C92.023 72.3643 92.1524 72.1716 92.2265 72.0112C92.2979 71.8576 92.3047 71.7673 92.3047 71.7363V71.6784C92.3033 69.0572 92.019 66.1813 91.4611 63.1288C90.3924 57.2948 88.4275 51.4137 85.623 45.6484C85.2982 44.98 85.5772 44.1714 86.2456 43.8466C86.4316 43.7563 86.6297 43.7105 86.8345 43.7105C87.3547 43.7105 87.8197 44.0016 88.0474 44.4692C89.6336 47.7305 90.9786 51.0795 92.0446 54.423C92.9206 57.1682 93.616 59.9336 94.1119 62.6423C94.7035 65.8605 95.0013 68.9009 95 71.6784V71.7363C95 72.2013 94.8895 72.6756 94.6725 73.1446C94.3585 73.8131 93.8787 74.4209 93.1618 75.0597C92.2508 75.8629 91.077 76.5812 89.7697 77.1337C88.3951 77.7105 87.0866 78.0245 85.8831 78.069C81.1811 78.2334 76.6314 78.9274 72.8903 79.542C72.8831 79.5432 72.8788 79.5438 72.8723 79.5449C72.8784 79.544 72.8841 79.543 72.8902 79.542C69.6221 80.081 66.2961 80.6282 63.5995 80.6309C61.1023 80.6255 58.1361 80.0285 54.5311 78.8075C53.1713 78.3425 52.0083 77.8803 51.2711 77.573L49.0866 83.1442C48.8858 83.6563 48.3817 84 47.8319 84H27.3475C26.9931 84 26.6454 83.8558 26.3947 83.6051C26.1441 83.3545 26 83.0068 26 82.6523V48.4219C26.0003 48.4217 26.0005 48.4215 26.0009 48.4213ZM77.2109 43.8398C77.2109 40.1244 74.1881 37.1016 70.4727 37.1016C66.7572 37.1016 63.7344 40.1244 63.7344 43.8398C63.7344 47.5553 66.7572 50.5781 70.4727 50.5781C74.1881 50.5781 77.2109 47.5553 77.2109 43.8398ZM72.8515 79.5483C72.8213 79.5531 72.8042 79.556 72.7972 79.5572C72.8061 79.5557 72.8265 79.5523 72.8515 79.5483Z" fill="black"/>
<path d="M83.9778 41.0583C83.2335 41.0583 82.6301 40.4549 82.6301 39.7106C82.6301 38.9663 83.2335 38.363 83.9778 38.363C84.7221 38.363 85.3254 38.9663 85.3254 39.7106C85.3254 40.4549 84.7221 41.0583 83.9778 41.0583Z" fill="black"/>
</g>
<defs>
<clipPath id="clip0_3_19">
<rect width="69" height="69" fill="white" transform="matrix(-1 0 0 1 95 15)"/>
</clipPath>
</defs>
</svg>
