<svg width="120" height="100" viewBox="0 0 120 100" fill="none" xmlns="http://www.w3.org/2000/svg">
<rect width="120" height="100" fill="white"/>
<path d="M112 59.8584C111.473 58.174 110.66 56.7117 109.045 55.7984C108.843 55.6836 108.818 55.1496 108.818 54.8102C108.806 49.5325 108.841 44.2523 108.801 38.9746C108.741 30.6899 103.129 23.8601 95.1238 22.3304C93.8936 22.0958 92.6184 22.016 91.3632 22.016C76.8876 21.996 62.4119 21.9985 47.9362 22.0035C35.5966 22.0085 25.7623 29.1702 21.9344 40.9185C21.7423 41.5074 21.5327 42.0888 21.3306 42.6727C21.2233 42.6877 21.116 42.7027 21.0061 42.7176C20.7317 41.7868 20.3823 40.871 20.2076 39.9228C20.0454 39.027 19.7111 38.3333 18.8302 38.0288C17.9942 37.7418 17.2781 38.0064 16.6517 38.6127C14.2187 40.9734 13.5051 43.8181 14.2512 47.077C14.2886 47.2367 14.3335 47.394 14.4408 47.7982C13.802 47.7982 13.2306 47.8656 12.6816 47.7857C10.9997 47.5412 10.0465 48.2948 10.004 49.9667C9.90672 53.7946 11.5637 56.3224 15.0647 57.8221C15.3716 57.9544 15.6311 58.4784 15.6885 58.8552C16.0528 61.2084 16.3049 63.5815 16.6966 65.9296C16.9562 67.4867 17.8071 68.7519 19.0548 69.7375C19.4715 70.0669 19.8483 70.4487 20.2825 70.7532C21.8047 71.8187 22.5982 73.2086 22.5732 75.1226C22.5533 76.8045 23.4342 78.0721 24.8216 79.0004C27.4542 80.7596 30.4936 80.7796 33.1337 79.0503C34.6334 78.0696 35.3945 76.6947 35.5018 74.908C35.5492 74.1144 35.7339 73.3284 36.0083 72.5548C37.5729 75.6067 36.9266 78.8507 37.1188 82.177C36.6771 82.177 36.2953 82.177 35.9135 82.177C28.2452 82.177 20.5745 82.177 12.9062 82.177C12.5418 82.177 12.1725 82.1595 11.8132 82.2094C10.7626 82.3542 10.0215 83.1677 10.0065 84.1458C9.99156 85.1116 10.7302 85.95 11.7683 86.1222C12.0602 86.1696 12.3647 86.1621 12.6616 86.1621C28.1329 86.1646 43.6043 86.1646 59.0756 86.1646C59.2428 86.1646 59.4075 86.1721 59.5747 86.1621C60.8598 86.0897 61.7332 85.2538 61.7057 84.1284C61.6783 83.0279 60.8398 82.2169 59.5896 82.192C57.7306 82.1545 55.8715 82.182 54.0125 82.182C53.6506 82.182 53.2913 82.182 52.7922 82.182C52.8621 78.379 52.2782 74.591 54.3693 71.105C55.2502 69.6377 55.8715 68.0157 56.6676 66.4936C56.8098 66.2216 57.2315 65.9321 57.5235 65.9296C61.9053 65.8947 66.2872 65.8997 70.6716 65.9196C70.9161 65.9196 71.2929 66.0644 71.3878 66.2515C72.4508 68.3426 73.5063 70.4412 74.492 72.5723C75.288 74.2941 75.4178 76.1507 75.3879 78.0247C75.3654 79.3772 75.3829 80.7297 75.3829 82.1845C74.6966 82.1845 74.1052 82.1595 73.5188 82.1895C72.2811 82.2544 71.4377 83.0629 71.4277 84.1583C71.4177 85.2463 72.2636 86.0698 73.4889 86.1621C73.686 86.1771 73.8881 86.1671 74.0853 86.1671C85.8385 86.1671 97.5917 86.1596 109.345 86.1796C110.603 86.1821 111.536 85.8078 111.998 84.5726C111.998 84.2407 111.998 83.9088 111.998 83.5769C111.379 82.4615 110.415 82.152 109.178 82.1645C104.432 82.2094 99.6878 82.182 94.9416 82.182C94.0508 82.182 93.1599 82.182 92.1468 82.182C92.1468 81.7153 92.1443 81.3286 92.1468 80.9393C92.1742 76.0284 92.2516 71.115 92.2117 66.2041C92.1892 63.3045 93.2173 60.9863 95.4731 59.1796C97.4894 57.5651 99.1563 55.6262 100.387 53.3629C104.496 45.8044 104.172 38.3657 99.5057 31.1765C98.4252 29.5096 96.9354 28.1097 95.6653 26.6225C95.7227 26.6349 95.8774 26.6624 96.0296 26.7098C101.123 28.3093 104.679 33.073 104.791 38.755C104.901 44.1949 104.826 49.6398 104.801 55.0822C104.798 55.3792 104.599 55.7909 104.359 55.9506C102.143 57.4229 101.297 59.5365 101.739 62.0543C102.056 63.8634 102.637 65.6451 103.286 67.3719C103.878 68.944 104.896 70.3165 106.787 70.324C108.726 70.3314 109.739 68.9315 110.363 67.327C111.012 65.6676 111.463 63.9408 112 62.2489C112 61.4504 112 60.6544 112 59.8584ZM85.7112 82.1346C85.7112 81.0641 85.6663 80.1033 85.7187 79.1476C85.9533 74.903 84.9701 71.0127 82.612 67.4368C81.9732 66.4686 81.5963 65.2683 81.3393 64.1205C80.728 61.4055 80.2663 58.6556 79.7348 55.9207C79.4578 54.4858 78.5245 53.7048 77.3717 53.9194C76.1489 54.1439 75.5501 55.222 75.827 56.6867C76.1415 58.3487 76.4484 60.0106 76.7653 61.6725C77.2918 64.4399 77.6162 67.3095 79.3006 69.6677C82.0206 73.4756 81.8609 77.7552 81.6637 82.1271C80.9151 82.1271 80.2014 82.1271 79.373 82.1271C79.373 80.9617 79.3256 79.8388 79.3805 78.7234C79.5876 74.6784 78.5595 71.0027 76.371 67.5815C75.6748 66.4936 75.2506 65.1735 74.9562 63.8984C74.3373 61.2183 73.9181 58.4934 73.3441 55.8009C73.2294 55.2594 72.8975 54.678 72.4932 54.2987C71.8843 53.7272 71.0783 53.7397 70.3672 54.1814C69.5462 54.6904 69.2642 55.4765 69.4389 56.4172C69.7683 58.2014 70.1076 59.9831 70.457 61.8472C66.1674 61.8472 62.0027 61.8472 57.7156 61.8472C58.0375 60.0879 58.3469 58.4036 58.6564 56.7167C58.9334 55.2095 58.3794 54.1689 57.1691 53.9194C55.9913 53.6773 55.0805 54.4434 54.7661 55.9781C54.4991 57.2781 54.272 58.5832 54.015 59.8858C53.4311 62.8353 53.1042 65.8498 51.3499 68.4574C49.416 71.3296 48.6998 74.5686 48.7897 78.0072C48.8246 79.3597 48.7946 80.7147 48.7946 82.0922C48.1184 82.0922 47.547 82.0922 47.0154 82.0922C47.0154 79.996 46.8383 77.9573 47.0728 75.966C47.2575 74.3914 47.6842 72.7245 48.4727 71.3695C50.0997 68.5722 51.2726 65.6776 51.7542 62.4785C52.0661 60.4148 52.5502 58.3761 52.8621 56.3099C53.0867 54.8302 52.0336 53.7073 50.7136 53.9069C49.7005 54.0591 49.1615 54.7229 48.9718 55.6986C48.6574 57.3256 48.3605 58.9575 48.0361 60.5845C47.552 63.015 47.3548 65.5453 45.9275 67.6839C43.6891 71.0351 42.7683 74.7233 42.9131 78.7184C42.953 79.8363 42.918 80.9568 42.918 82.167C42.5188 82.167 42.2268 82.172 41.9349 82.1645C41.6778 82.1595 41.4208 82.1446 41.1962 82.1346C41.1413 82.0073 41.0989 81.9524 41.0939 81.8925C41.0814 81.6604 41.074 81.4284 41.074 81.1963C41.1064 77.3459 41.2886 73.4756 39.3896 69.9047C39.3022 69.74 39.4869 69.3907 39.6092 69.1586C40.1681 68.0856 41.0216 67.085 41.2686 65.9471C41.7851 63.5615 41.9723 61.106 42.3341 58.6855C42.389 58.3162 42.5737 57.7722 42.8432 57.6599C46.3292 56.2001 47.7491 53.5051 47.6767 49.8544C47.6468 48.2973 46.8383 47.5562 45.2837 47.6685C44.7147 47.7109 44.1408 47.6759 43.5045 47.6759C43.6068 47.2642 43.6966 46.9822 43.749 46.6903C44.298 43.576 43.6317 40.8386 41.2836 38.6003C40.6198 37.9664 39.8787 37.7094 39.0153 38.0213C38.1743 38.3258 37.8449 39.0295 37.7027 39.8679C37.5979 40.4843 37.4931 41.1181 37.2635 41.6945C36.6297 43.2866 34.6184 44.8013 33.4032 44.5018C30.7456 43.843 28.1005 43.6833 25.423 44.3022C25.3381 44.3222 25.2383 44.2648 25.0736 44.2248C25.3032 43.4812 25.5178 42.7576 25.7523 42.0414C29.0088 32.0349 37.4706 25.9287 47.9762 25.9612C48.6499 25.9637 48.9169 26.2382 49.2713 26.7522C50.3942 28.3817 51.4123 30.1684 52.8496 31.476C57.7181 35.9028 63.4225 37.0831 69.6759 35.0144C73.9655 33.597 77.0947 30.7398 79.1684 26.7198C79.3256 26.4178 79.6799 26.0261 79.9644 26.0086C84.6856 25.7191 89.085 26.6399 92.8505 29.6918C94.6871 31.179 96.2192 32.9308 97.2548 35.0768C97.1276 35.1691 97.0802 35.229 97.0228 35.2415C96.4713 35.3488 95.9173 35.4561 95.3608 35.5509C90.0482 36.4492 86.2427 39.2765 84.1441 44.2997C81.9632 49.52 84.1366 55.0273 89.2721 57.2332C89.8361 57.4753 90.4375 57.625 91.1761 57.8671C88.4187 60.9014 88.1742 64.5023 88.2191 68.2204C88.269 72.5024 88.1891 76.787 88.1642 81.0715C88.1617 81.4209 88.1292 81.7678 88.1118 82.1296C87.2758 82.1346 86.5547 82.1346 85.7112 82.1346ZM14.2636 51.9355C17.1159 50.7403 19.4041 51.5762 20.7267 54.2587C21.2357 55.2918 22.2838 55.7135 23.2969 55.2968C24.3025 54.8826 24.8116 53.8121 24.3599 52.754C23.9133 51.711 23.3094 50.7353 22.7679 49.7246C26.5085 47.2991 31.8436 47.2592 34.9827 49.6148C34.4338 50.603 33.8274 51.5463 33.3682 52.5594C32.8442 53.7098 33.3208 54.8576 34.3739 55.2943C35.4519 55.741 36.48 55.2444 37.0489 54.0965C37.3359 53.5176 37.6728 52.9112 38.1419 52.4895C39.719 51.0771 41.5281 51.0347 43.482 51.8307C42.9979 53.2756 41.8999 53.8645 40.51 54.104C38.5087 54.4484 38.0346 55.1296 38.3814 57.0835C38.4089 57.2457 38.4289 57.4154 38.4114 57.5751C38.1594 59.8783 37.9223 62.184 37.6378 64.4848C37.5255 65.4006 37.0564 66.1217 36.3278 66.7431C35.1449 67.7512 34.062 68.8741 32.9116 69.9197C32.7194 70.0944 32.395 70.2042 32.1305 70.2067C30.0394 70.2291 27.9483 70.2291 25.8596 70.2042C25.6001 70.2017 25.2882 70.0669 25.0936 69.8923C23.9682 68.8692 22.9126 67.7612 21.7473 66.7855C20.9238 66.0968 20.4597 65.2808 20.3524 64.2527C20.0854 61.7174 19.8159 59.1821 19.6038 56.6418C19.4715 55.0697 19.0348 54.5183 17.5026 54.2537C17.1433 54.1914 16.774 54.144 16.4346 54.0192C15.4115 53.6474 14.5506 53.0884 14.2636 51.9355ZM98.7496 39.0794C99.7976 43.7707 98.9891 48.0702 96.5312 52.1526C95.6428 53.6274 94.5873 54.1514 92.9004 53.9892C90.8816 53.7971 89.2447 53.0884 88.1592 51.3466C86.6744 48.9611 87.2559 46.6279 88.511 44.3895C90.7394 40.4194 94.5848 39.4986 98.7496 39.0794ZM74.8863 26.0211C73.0921 29.6144 68.3584 32.1522 63.7694 31.9725C59.3351 31.8004 55.9339 29.7866 53.3537 26.0211C60.6252 26.0211 67.7121 26.0211 74.8863 26.0211ZM106.81 65.6327C106.093 63.8959 105.617 62.3712 105.654 60.7392C105.669 60.0455 105.991 59.3443 106.772 59.3169C107.626 59.2894 107.962 60.0206 107.977 60.7467C108.01 62.3762 107.531 63.9009 106.81 65.6327ZM31.4368 74.2367C31.6514 75.0377 31.342 75.4919 30.7132 75.8512C29.4555 76.5699 28.2253 76.52 27.0974 75.6691C26.743 75.3996 26.6207 74.8231 26.3138 74.2367C28.2153 74.2367 29.7974 74.2367 31.4368 74.2367ZM18.7204 47.6859C18.4209 46.8001 18.1664 46.0539 17.9144 45.3078C17.9693 45.2829 18.0217 45.2604 18.0766 45.2355C18.6006 45.7894 19.1246 46.3434 19.6886 46.9373C19.4266 47.1369 19.1521 47.349 18.7204 47.6859ZM38.3166 46.8999C38.8506 46.3484 39.3422 45.8418 39.8313 45.3353C39.8812 45.3502 39.9311 45.3652 39.9835 45.3827C39.7414 46.0864 39.4994 46.7876 39.2149 47.616C38.7832 47.2717 38.5137 47.0571 38.3166 46.8999Z" fill="black"/>
<path d="M64.5479 84.2008C64.5654 85.2713 65.4637 86.1522 66.5243 86.1447C67.5723 86.1347 68.4906 85.2189 68.4981 84.1758C68.5056 83.0928 67.5299 82.1471 66.4469 82.187C65.3739 82.2269 64.533 83.1203 64.5479 84.2008Z" fill="black"/>
<path d="M32.8592 62.4287C32.8742 63.5017 33.7675 64.3875 34.8305 64.3826C35.8786 64.3776 36.8044 63.4643 36.8218 62.4187C36.8393 61.3282 35.8911 60.4099 34.7731 60.4374C33.6727 60.4623 32.8442 61.3282 32.8592 62.4287Z" fill="black"/>
<path d="M23.252 60.4348C22.1615 60.4348 21.2857 61.2957 21.2782 62.3762C21.2707 63.4442 22.1416 64.3501 23.2071 64.38C24.2851 64.4124 25.2658 63.4467 25.2508 62.3687C25.2358 61.3182 24.325 60.4348 23.252 60.4348Z" fill="black"/>
</svg>
