<svg width="120" height="100" viewBox="0 0 120 100" fill="none" xmlns="http://www.w3.org/2000/svg">
<rect width="120" height="100" fill="white"/>
<path d="M84.4779 54.3791C94.8023 53.719 103 45.1109 103 34.6228H100.448C100.448 43.7216 93.3651 51.1966 84.4237 51.8255C84.1736 49.2329 83.0517 46.8931 81.3569 45.099C83.4473 42.564 84.1385 39.8525 84.3659 38.3349C89.7201 37.7529 93.9016 33.206 93.9016 27.6996C93.9016 21.7999 89.1018 17 83.202 17H81.926V26.4236H72.5023V27.6996C72.5023 33.1193 76.5537 37.6076 81.7864 38.3028C81.56 39.5379 80.9652 41.5508 79.4111 43.4479C77.5947 42.2279 75.411 41.5149 73.0634 41.5149H67.5131V38.7582C69.1491 38.2203 70.3341 36.6791 70.3341 34.8655C70.3341 32.6063 68.4962 30.7682 66.237 30.7682C63.9778 30.7682 62.1398 32.6061 62.1398 34.8655C62.1398 36.6792 63.3248 38.2205 64.961 38.7582V41.515H55.0394V38.7582C56.6756 38.2205 57.8606 36.6792 57.8606 34.8655C57.8606 32.6063 56.0227 30.7682 53.7633 30.7682C51.5043 30.7682 49.6662 32.6061 49.6662 34.8655C49.6662 36.6791 50.8512 38.2203 52.4873 38.7582V41.515H46.9371C44.5899 41.515 42.4063 42.2277 40.5902 43.4472C39.0513 41.5622 38.4525 39.5424 38.2207 38.302C43.45 37.6037 47.4979 33.1169 47.4979 27.6996V26.4236H38.0742V17.0002H36.7981C30.8984 17.0002 26.0985 21.8 26.0985 27.6998C26.0985 33.2065 30.2803 37.7532 35.6346 38.3351C35.8621 39.8525 36.5532 42.564 38.6434 45.0988C36.9486 46.8929 35.8264 49.2327 35.5767 51.8255C26.635 51.1966 19.5521 43.7218 19.5521 34.6228H17C17 45.1109 25.1981 53.719 35.5221 54.3791V56.5917H18.2761V59.1437H35.5221V61.6369C28.1363 62.2854 22.3231 68.5011 22.3231 76.0524H24.875C24.875 69.9034 29.5543 64.8276 35.5385 64.1964C35.9526 75.0016 44.8707 83.6648 55.7752 83.6648H64.2242C75.1291 83.6648 84.0471 75.0016 84.461 64.1964C90.4453 64.8276 95.1245 69.9034 95.1245 76.0524H97.6764C97.6764 68.5012 91.8632 62.2854 84.4774 61.6369V59.1437H101.723V56.5917H84.4779V54.3791ZM75.154 28.9758H84.4779V19.6521C88.3664 20.2665 91.3495 23.6413 91.3495 27.6998C91.3495 32.1924 87.6947 35.8476 83.2019 35.8476C79.1432 35.8476 75.7682 32.8645 75.154 28.9758ZM28.6506 27.6998C28.6506 23.6413 31.6336 20.2663 35.5223 19.6521V28.9758H44.8462C44.2319 32.8645 40.8571 35.8476 36.7983 35.8476C32.3055 35.8476 28.6506 32.1924 28.6506 27.6998ZM64.6917 34.8657C64.6917 34.0136 65.3851 33.3205 66.2369 33.3205C67.0888 33.3205 67.7818 34.0137 67.7818 34.8657C67.7818 35.7176 67.0886 36.4108 66.2369 36.4108C65.3847 36.411 64.6917 35.7178 64.6917 34.8657ZM52.2182 34.8657C52.2182 34.0136 52.9114 33.3205 53.7632 33.3205C54.6153 33.3205 55.3083 34.0137 55.3083 34.8657C55.3083 35.7176 54.6151 36.4108 53.7632 36.4108C52.9114 36.411 52.2182 35.7178 52.2182 34.8657ZM81.926 63.4116H81.9258C81.9258 73.1723 73.9849 81.113 64.2244 81.113H55.7756C46.0151 81.113 38.0742 73.1723 38.0742 63.4116V52.9297C38.0742 48.043 42.0499 44.0672 46.9369 44.0672H73.0634C77.9503 44.0672 81.9261 48.0428 81.9261 52.9297V63.4116H81.926Z" fill="black"/>
<path d="M65.1539 75.9751C64.8472 75.9976 64.5345 76.009 64.2246 76.009H55.7756V78.561H64.2246C64.5965 78.561 64.972 78.5472 65.3406 78.5203L65.1539 75.9751Z" fill="black"/>
<path d="M76.8219 63.4116C76.8217 68.8504 73.3502 73.657 68.1831 75.3722L68.987 77.7943C75.1998 75.7323 79.374 69.9523 79.374 63.4118H76.8219V63.4116Z" fill="black"/>
</svg>
