<svg width="120" height="100" viewBox="0 0 120 100" fill="none" xmlns="http://www.w3.org/2000/svg">
<rect width="120" height="100" fill="white"/>
<path d="M69.4986 26.5358C69.4976 26.5252 69.4953 26.5152 69.4939 26.5048C69.4892 26.4693 69.4837 26.4343 69.4761 26.3998C69.4733 26.3877 69.4699 26.3761 69.4669 26.3643C69.4588 26.3317 69.4497 26.2993 69.4394 26.2678C69.4351 26.255 69.4301 26.2427 69.4255 26.2299C69.4144 26.1998 69.4025 26.1703 69.3891 26.1413C69.3862 26.135 69.3843 26.1285 69.3814 26.1222L63.0171 12.7883C62.9813 12.7133 62.9384 12.642 62.8887 12.5754C62.1439 11.574 61.0011 11 59.7533 11C58.5055 11 57.3627 11.574 56.6179 12.5752C56.5683 12.642 56.5254 12.7132 56.4896 12.7881L50.1251 26.1222C50.122 26.1285 50.1202 26.135 50.1173 26.1413C50.104 26.1702 50.092 26.1998 50.0809 26.2299C50.0762 26.2425 50.0713 26.255 50.067 26.2678C50.0563 26.2995 50.0475 26.3317 50.0395 26.3643C50.0364 26.376 50.033 26.3879 50.0302 26.3998C50.0227 26.4343 50.0173 26.4693 50.0125 26.5048C50.0111 26.5153 50.0089 26.5255 50.0077 26.5358C50.0028 26.5812 50 26.6272 50 26.6739V80.4037V84.3081C50 87.4467 52.5535 90 55.692 90H63.814C66.9526 90 69.5061 87.4467 69.5061 84.3081V80.4037V26.6738C69.5064 26.6272 69.5036 26.5811 69.4986 26.5358ZM58.7388 14.0228C58.9944 13.7287 59.3586 13.5619 59.7533 13.5619C60.1481 13.5619 60.5122 13.7287 60.7679 14.0228L66.1947 25.393H53.312L58.7388 14.0228ZM66.9446 84.308C66.9446 86.0338 65.5403 87.4381 63.8144 87.4381H55.6922C53.9662 87.4381 52.5619 86.0338 52.5619 84.308V81.6845H66.9444V84.308H66.9446ZM66.9446 79.1225H52.5619V74.077H66.9444V79.1225H66.9446ZM66.9446 66.9865H52.5619V40.0911H66.9444V66.9865H66.9446ZM66.9446 33.0003H52.5619V27.9548H66.9444V33.0003H66.9446Z" fill="black"/>
<path d="M59.7537 61.9825C61.8458 61.9825 63.5418 58.2021 63.5418 53.5386C63.5418 48.8752 61.8458 45.0947 59.7537 45.0947C57.6616 45.0947 55.9655 48.8752 55.9655 53.5386C55.9655 58.2021 57.6616 61.9825 59.7537 61.9825Z" fill="black"/>
</svg>
