<svg width="120" height="100" viewBox="0 0 120 100" fill="none" xmlns="http://www.w3.org/2000/svg">
<rect width="120" height="100" fill="white"/>
<g clip-path="url(#clip0_53_2674)">
<path d="M11 45.3524C11.1937 44.4137 11.3729 43.4702 11.5788 42.5339C13.4435 34.071 21.0768 27.3375 29.7175 26.5492C30.7734 26.4522 31.8389 26.3988 32.8996 26.3964C45.2383 26.3867 57.5794 26.3843 69.9181 26.4037C70.6131 26.4037 71.1217 26.2072 71.6423 25.756C75.5825 22.3505 82.0485 24.1285 83.6807 29.0888C83.9398 29.8723 84.3443 30.1997 85.095 30.4059C90.9604 32.0019 96.8186 33.632 102.677 35.2547C107.443 36.5742 109.998 39.9288 110 44.8722C110 45.5489 110 46.2281 109.995 46.9048C109.976 50.2813 108.026 52.2509 104.641 52.263C99.1967 52.28 93.7502 52.2678 88.3062 52.2678C84.4072 52.2678 80.5083 52.2678 76.6117 52.2678C76.3599 52.2678 76.108 52.2678 75.8222 52.2678C75.7859 52.4619 75.752 52.5783 75.7423 52.6972C75.6212 54.4242 74.9674 55.0742 73.2625 55.0815C70.3298 55.0961 67.3995 55.0888 64.4668 55.0839C63.2753 55.0839 62.0814 55.0937 60.8923 55.0597C59.2431 55.0112 57.9088 54.2738 56.9255 52.9834C56.5042 52.4279 56.0682 52.2363 55.3926 52.2509C53.3995 52.2921 51.4064 52.2654 49.3528 52.2654C49.3262 52.508 49.2995 52.6875 49.2898 52.8694C49.2027 54.3247 48.4979 55.0573 47.0401 55.0815C45.1075 55.1155 43.1726 55.1179 41.24 55.0864C38.6052 55.0451 35.9704 54.9481 33.3331 54.9117C33.1127 54.9093 32.8294 55.1373 32.672 55.3362C29.2816 59.6465 31.9648 66.4358 37.3871 67.2677C38.0531 67.3696 38.7311 67.3987 39.4068 67.4254C41.9569 67.5224 43.7877 69.4362 43.6957 71.9297C43.6085 74.2947 41.6638 76.0508 39.1913 75.9975C25.9493 75.7161 14.9401 66.8821 11.8016 53.9755C11.4383 52.4789 11.2615 50.9386 11 49.4178C11 48.0643 11 46.7084 11 45.3524ZM39.5594 71.823C39.5594 71.7139 39.5594 71.6047 39.5569 71.4956C39.2203 71.4956 38.8813 71.5028 38.5447 71.4956C29.623 71.2942 24.1839 61.6816 28.7101 53.9924C29.3954 52.8281 29.6327 51.9379 29.4269 50.5335C29.0588 48.0061 29.1242 45.384 29.2864 42.8201C29.4414 40.3654 31.4684 38.3788 33.7618 37.9932C36.3675 37.5541 38.8304 38.7718 39.9057 41.1392C40.2714 41.9421 40.3924 42.8565 40.6467 43.7952C42.7875 43.9844 44.9743 44.6199 46.316 46.3809C47.6649 48.1516 49.2438 48.365 51.1546 48.2025C51.8908 48.1395 52.6367 48.1928 53.3777 48.1928C54.1067 48.1928 54.8356 48.1928 55.6687 48.1928C55.6687 46.4052 55.6105 44.763 55.6832 43.1233C55.7946 40.5813 57.841 38.3473 60.2869 37.9883C63.0791 37.5784 65.6292 39.0192 66.5277 41.5709C66.7698 42.2598 66.8667 42.9972 67.0386 43.7637C67.4358 43.834 67.879 43.9019 68.3149 43.9917C70.5526 44.4501 72.3979 45.5805 73.7565 47.4021C74.2263 48.0327 74.7082 48.2074 75.442 48.2074C85.0442 48.188 94.6463 48.1952 104.248 48.1928C104.539 48.1928 104.883 48.2801 105.106 48.154C105.425 47.9745 105.866 47.6543 105.888 47.3657C105.978 46.1941 105.924 45.0129 105.924 43.851C105.764 43.8389 105.718 43.8219 105.704 43.8364C104.958 44.5447 104.224 45.2651 103.469 45.9613C102.437 46.9121 101.505 46.9218 100.497 45.954C99.9644 45.4422 99.5018 44.8576 98.8916 44.1785C98.2474 44.8867 97.763 45.498 97.2012 46.0243C96.2616 46.9048 95.3171 46.9048 94.3775 46.0195C93.8181 45.4931 93.3361 44.8819 92.7113 44.1906C92.0647 44.8964 91.578 45.5028 91.0137 46.0268C90.0741 46.9024 89.1248 46.9 88.1876 46.0171C87.6281 45.4907 87.1462 44.8795 86.5238 44.1857C85.899 44.8722 85.4292 45.4495 84.8964 45.9613C83.9156 46.9 82.9639 46.9267 82 46.0171C81.0144 45.0881 80.0554 44.1299 79.1327 43.1379C78.3021 42.2428 78.3093 41.1974 79.0673 40.4552C79.8181 39.7202 80.8618 39.7493 81.7433 40.591C82.3003 41.1222 82.7871 41.7286 83.3901 42.3956C84.0391 41.7043 84.5404 41.1125 85.1023 40.5861C86.0467 39.7008 86.9839 39.6984 87.926 40.5886C88.4854 41.1173 88.9746 41.7237 89.6139 42.4247C90.2412 41.731 90.7279 41.1222 91.2849 40.591C92.2221 39.7008 93.169 39.7008 94.1062 40.5861C94.6657 41.1149 95.1524 41.7237 95.7651 42.3981C96.4069 41.7116 96.9057 41.1198 97.4676 40.5934C98.4096 39.7057 99.3541 39.6984 100.289 40.5837C100.848 41.1125 101.338 41.7189 101.747 42.1676C102.522 41.4448 103.185 40.8263 103.972 40.0937C103.117 39.7639 102.364 39.3976 101.572 39.1744C95.0677 37.3528 88.5581 35.5457 82.0412 33.7702C80.8594 33.4476 80.1959 32.7854 80.099 31.5702C79.9634 29.8771 79.1158 28.6983 77.4908 28.2253C75.9118 27.7669 74.5702 28.2762 73.5482 29.5691C73.0251 30.2313 72.3495 30.4811 71.5188 30.469C69.8115 30.4447 68.1018 30.4981 66.3969 30.4447C65.6849 30.4229 65.186 30.6388 64.7211 31.1627C64.1229 31.837 63.4763 32.4725 62.8079 33.0789C62.0741 33.7435 61.1272 33.7751 60.4273 33.2342C59.7154 32.6835 59.5386 31.9073 59.9139 30.9832C59.9721 30.8425 60.0302 30.7018 60.0932 30.5514C58.9864 30.2725 58.1219 30.4884 57.4099 31.3907C56.9134 32.0189 56.3032 32.5647 55.7001 33.0959C54.9833 33.7241 54.0752 33.7678 53.3922 33.2778C52.6609 32.7539 52.4599 31.9025 52.8425 30.9565C52.8982 30.8183 52.9442 30.6751 52.9951 30.5296C51.8859 30.2798 51.0141 30.4932 50.3094 31.4052C49.8396 32.0141 49.2511 32.5356 48.6772 33.0522C47.9288 33.7217 47.0062 33.7775 46.2918 33.2584C45.5556 32.7224 45.3739 31.9001 45.7759 30.9323C45.8316 30.7988 45.868 30.6582 45.9091 30.5393C44.7394 30.2191 43.8797 30.5708 43.1556 31.4732C42.6737 32.0723 42.0925 32.6011 41.5113 33.108C40.8017 33.729 39.8839 33.7605 39.2058 33.256C38.4793 32.7175 38.2831 31.9316 38.644 31.0147C38.7069 30.8546 38.7505 30.6897 38.8111 30.5102C37.1788 30.3913 37.1837 30.3962 36.1254 31.4441C35.5078 32.0553 34.9072 32.6932 34.234 33.2366C33.5583 33.7823 32.781 33.7508 32.0956 33.2269C31.449 32.7345 31.2141 32.0553 31.4757 31.2524C31.5507 31.0196 31.6476 30.7964 31.7421 30.549C24.8886 30.4253 18.2458 35.1916 16.0323 41.8111C14.2814 47.0455 14.9353 52.1902 17.1245 57.0802C20.9751 65.6765 27.7171 70.5568 37.0456 71.806C37.8617 71.92 38.7166 71.823 39.5594 71.823ZM44.7709 51.0114C44.0396 49.425 42.9595 48.479 41.4701 48.1007C40.6152 47.8823 39.6926 47.9066 38.7989 47.8702C37.2587 47.8072 36.4983 47.1037 36.4136 45.5659C36.3821 44.9886 36.4184 44.4065 36.399 43.8267C36.3603 42.6673 35.7984 42.0051 34.8612 41.993C33.8829 41.9784 33.2629 42.6746 33.2508 43.868C33.2338 45.6387 33.2314 47.4094 33.2508 49.18C33.2653 50.4511 33.815 50.9944 35.0913 51.0065C37.1812 51.0235 39.2688 51.0114 41.3587 51.0114C42.4412 51.0114 43.5213 51.0114 44.7709 51.0114ZM71.2307 50.992C70.4315 49.425 69.3635 48.4524 67.8475 48.0812C67.1089 47.9018 66.3218 47.8848 65.5566 47.8726C63.5635 47.8387 62.8466 47.1304 62.8394 45.1099C62.837 44.5617 62.8612 44.0111 62.82 43.4678C62.7522 42.5945 62.1468 42.0221 61.3258 41.9978C60.4637 41.9712 59.7565 42.5509 59.7372 43.4629C59.6911 45.4907 59.6936 47.5234 59.7347 49.5512C59.7517 50.4025 60.2699 50.9701 61.1345 50.9798C64.4377 51.0114 67.7458 50.992 71.2307 50.992Z" fill="black"/>
<path d="M76.4495 34.0832C75.2168 34.0517 74.0495 32.834 74.0956 31.6285C74.144 30.3818 75.3597 29.2272 76.556 29.2951C77.779 29.363 78.8712 30.4982 78.8615 31.694C78.8518 32.9214 77.6482 34.1148 76.4495 34.0832Z" fill="black"/>
</g>
<defs>
<clipPath id="clip0_53_2674">
<rect width="99" height="52" fill="white" transform="translate(11 24)"/>
</clipPath>
</defs>
</svg>
