<svg width="120" height="100" viewBox="0 0 120 100" fill="none" xmlns="http://www.w3.org/2000/svg">
<rect width="120" height="100" fill="white"/>
<path d="M60.3181 55.071C57.0747 55.071 54.4362 57.7098 54.4362 60.9529C54.4362 64.1963 57.0747 66.835 60.3181 66.835C63.5612 66.835 66.1999 64.1963 66.1999 60.9529C66.1999 57.7096 63.5612 55.071 60.3181 55.071ZM60.3181 63.5898C58.8642 63.5898 57.6814 62.407 57.6814 60.9529C57.6814 59.4991 58.8642 58.3162 60.3181 58.3162C61.7719 58.3162 62.9548 59.4991 62.9548 60.9529C62.9548 62.407 61.7719 63.5898 60.3181 63.5898Z" fill="black"/>
<path d="M94.6363 60.9529C94.6363 58.589 93.5857 56.6119 92.0583 55.7813V39.3297C93.6147 37.8769 94.4923 35.8702 94.4923 33.7075C94.4923 29.4577 91.0348 26.0002 86.7851 26.0002C82.5353 26.0002 79.0778 29.4577 79.0778 33.7075C79.0778 35.5954 79.7465 37.3642 80.9517 38.7497L73.6839 48.1795L66.1669 38.732C67.3627 37.3494 68.0253 35.5874 68.0253 33.7075C68.0253 29.4577 64.5678 26.0002 60.3181 26.0002C56.0683 26.0002 52.6108 29.4577 52.6108 33.7075C52.6108 35.6051 53.2866 37.3828 54.5035 38.7714L47.2506 48.5667L39.6845 38.7495C40.8894 37.364 41.5582 35.5952 41.5582 33.7073C41.5582 29.4575 38.1006 26 33.8509 26C29.6011 26 26.1436 29.4575 26.1436 33.7073C26.1436 35.87 27.0212 37.8767 28.5777 39.3295V55.7813C27.0502 56.6117 26 58.5888 26 60.9529C26 63.317 27.0504 65.2939 28.5777 66.1245V71.9725C28.5777 72.8685 29.3042 73.5951 30.2003 73.5951H90.4357C91.3317 73.5951 92.0583 72.8685 92.0583 71.9725V66.1245C93.5859 65.2939 94.6363 63.317 94.6363 60.9529ZM90.4302 63.8796C89.7177 63.8796 88.8895 62.601 88.8895 60.9527C88.8895 59.3046 89.7177 58.0258 90.4302 58.0258C91.1427 58.0258 91.9708 59.3046 91.9708 60.9527C91.9708 62.6012 91.1427 63.8796 90.4302 63.8796ZM30.2059 58.026C30.9185 58.026 31.7466 59.3048 31.7466 60.9529C31.7466 62.6012 30.9185 63.8798 30.2059 63.8798C29.4934 63.8798 28.6653 62.6012 28.6653 60.9529C28.6653 59.3048 29.4934 58.026 30.2059 58.026ZM31.8228 70.3499V66.1302C33.3566 65.3037 34.4121 63.3227 34.4121 60.9529C34.4121 58.5831 33.3564 56.6023 31.8228 55.7756V38.5754C31.8228 38.0651 31.5827 37.5846 31.1748 37.2782C30.0398 36.4255 29.3888 35.1242 29.3888 33.7077C29.3888 31.2472 31.3904 29.2456 33.8509 29.2456C36.3113 29.2456 38.313 31.2472 38.313 33.7077C38.313 35.1244 37.6621 36.4257 36.5271 37.2782C36.1803 37.5386 35.9521 37.9272 35.8937 38.3572C35.8353 38.7872 35.9515 39.2224 36.2164 39.566L45.6467 51.8015C45.9539 52.2001 46.4285 52.4335 46.9317 52.4335H47.6078C48.1219 52.4335 48.6056 52.1897 48.9117 51.7766L57.9714 39.5411C58.5022 38.8245 58.3549 37.8136 57.6418 37.2782C56.5068 36.4257 55.856 35.1242 55.856 33.7077C55.856 31.2472 57.8576 29.2456 60.3181 29.2456C62.7785 29.2456 64.7802 31.2472 64.7802 33.7077C64.7802 35.1244 64.1293 36.4257 62.9943 37.2782C62.6436 37.5412 62.4149 37.9349 62.3593 38.3696C62.3035 38.8042 62.4258 39.2429 62.6988 39.5857L72.4347 51.8214C72.7426 52.2084 73.2099 52.4339 73.7044 52.4339C73.7086 52.4339 73.7127 52.4339 73.717 52.4339C74.2157 52.4299 74.6846 52.197 74.9891 51.8019L84.4191 39.5664C84.6842 39.2228 84.8002 38.7874 84.742 38.3576C84.6836 37.9276 84.4556 37.539 84.1086 37.2786C82.9736 36.4259 82.3225 35.1246 82.3225 33.7081C82.3225 31.2476 84.3242 29.246 86.7846 29.246C89.2451 29.246 91.2467 31.2476 91.2467 33.7081C91.2467 35.1248 90.5957 36.4261 89.4605 37.2786C89.0524 37.585 88.8127 38.0655 88.8127 38.5758V55.7762C87.2789 56.603 86.2232 58.5837 86.2232 60.9533C86.2232 63.3235 87.2789 65.3039 88.8127 66.1308V70.3503L31.8228 70.3499Z" fill="black"/>
</svg>
