<svg width="120" height="100" viewBox="0 0 120 100" fill="none" xmlns="http://www.w3.org/2000/svg">
<rect width="120" height="100" fill="white"/>
<g clip-path="url(#clip0_53_2820)">
<path d="M13 74.4892C13.478 73.6547 14.2139 73.4411 15.1422 73.3113C16.4335 73.1297 17.7188 72.7444 18.9447 72.2792C20.1745 71.812 21.3269 71.1412 22.5746 70.5283C22.5051 70.3626 22.4317 70.167 22.3445 69.9773C19.3453 63.4989 16.3442 57.0225 13.3392 50.5461C13.2519 50.3584 13.113 50.1947 12.998 50.021C12.998 49.6477 12.998 49.2744 12.998 48.9011C13.5415 48.0626 14.325 47.831 15.291 47.8489C17.578 47.8909 19.869 47.829 22.156 47.8809C22.888 47.8969 23.241 47.6453 23.5584 46.9985C27.3589 39.2863 31.205 31.598 34.9935 23.8799C35.5311 22.7838 36.2214 22.3466 37.4452 22.3506C48.0215 22.3885 58.5978 22.3726 69.174 22.3726C69.543 22.3726 69.9119 22.3726 70.3384 22.3726C70.7589 20.7115 71.1556 19.0865 71.586 17.4694C71.8776 16.3733 72.3279 16.0199 73.4228 16.012C75.3409 15.998 77.257 15.994 79.1751 16.012C80.6528 16.0259 81.2856 16.8624 80.9444 18.3298C80.6369 19.6514 80.3037 20.9691 79.9725 22.3306C81.5672 22.3306 83.0727 22.3306 84.612 22.3306C85.0067 20.7315 85.3836 19.1623 85.7823 17.5971C86.0937 16.3753 86.5598 16.014 87.8154 16.008C89.5788 16 91.3402 16.002 93.1035 16.006C95.0196 16.01 95.5949 16.7686 95.1248 18.6632C94.8272 19.8631 94.5317 21.0649 94.2381 22.2548C94.369 22.3107 94.4226 22.3546 94.4801 22.3546C95.5631 22.3626 96.6442 22.3686 97.7272 22.3706C99.6433 22.3746 100.078 22.8058 100.08 24.7224C100.082 32.0373 100.08 39.3522 100.08 46.6651C100.08 47.0284 100.08 47.3938 100.08 47.8609C100.534 47.8609 100.869 47.8609 101.202 47.8609C102.841 47.8609 104.481 47.833 106.12 47.8729C107.566 47.9068 108.186 48.7214 107.905 50.1388C106.786 55.7767 105.661 61.4146 104.543 67.0525C104.158 68.9891 103.787 70.9296 103.386 72.9879C104.38 73.1217 105.257 73.2714 106.141 73.3533C107.316 73.4611 108.026 74.068 107.994 75.0123C107.962 75.9706 107.218 76.5515 106.044 76.5435C103.791 76.5276 101.752 75.8129 99.8059 74.7088C96.5847 72.8801 93.3297 72.8761 90.1024 74.7048C85.693 77.2004 81.2955 77.2183 76.8821 74.7228C73.6568 72.8981 70.4118 72.8761 67.1746 74.6849C62.7295 77.1684 58.2943 77.1784 53.8491 74.6849C50.6457 72.8881 47.4284 72.8901 44.2269 74.6809C39.8175 77.1485 35.4081 77.1984 30.9868 74.7308C27.6524 72.8701 24.3359 72.8861 21.0314 74.8047C19.2362 75.8468 17.3162 76.4377 15.2334 76.5515C14.2298 76.6074 13.4919 76.31 12.998 75.4276C13 75.1121 13 74.8007 13 74.4892ZM104.483 51.1191C75.3448 51.1191 46.2958 51.1191 17.1674 51.1191C17.2805 51.4185 17.3499 51.6501 17.451 51.8697C20.1764 57.7572 22.8959 63.6446 25.649 69.5201C25.7859 69.8136 26.1906 70.161 26.4802 70.171C28.6978 70.2448 30.715 70.9196 32.6311 72.0077C34.9638 73.3333 37.4452 73.7585 40.0476 72.9999C40.8986 72.7523 41.7336 72.385 42.5152 71.9618C46.8591 69.61 51.1912 69.576 55.5153 71.9737C57.8936 73.2914 60.3869 73.7845 63.0151 72.9919C64.0981 72.6645 65.1216 72.1215 66.1432 71.6164C70.0706 69.6739 74.0159 69.58 77.8739 71.6843C80.3017 73.0079 82.7613 73.7665 85.5066 73.1536C86.2226 72.9939 86.9744 72.7943 87.5913 72.4169C91.6694 69.9214 95.8944 69.4283 100.462 71.3848C101.815 64.575 103.142 57.883 104.483 51.1191ZM96.8564 47.801C96.8564 44.6427 96.8564 41.5183 96.8564 38.2921C96.4101 38.2921 96.0174 38.2921 95.6226 38.2921C74.7161 38.2921 53.8075 38.306 32.9009 38.2561C31.7346 38.2541 31.1871 38.5815 30.713 39.6217C29.6082 42.0513 28.3606 44.4131 27.1724 46.8048C27.0236 47.1043 26.8967 47.4117 26.7221 47.801C50.1419 47.801 73.4704 47.801 96.8564 47.801ZM96.8485 35.0658C96.8485 31.9095 96.8485 28.7871 96.8485 25.5529C96.5093 25.5529 96.18 25.5529 95.8507 25.5529C76.8067 25.5529 57.7627 25.5589 38.7186 25.5329C37.953 25.5329 37.592 25.7825 37.2687 26.4573C35.904 29.3042 34.4758 32.1211 33.012 35.0658C54.3787 35.0658 75.5809 35.0658 96.8485 35.0658ZM74.4106 19.2282C74.1567 20.2384 73.9048 21.2466 73.6568 22.2388C73.7759 22.3027 73.8254 22.3526 73.877 22.3546C76.8523 22.5083 76.9535 22.4205 77.3899 19.2282C76.3882 19.2282 75.4401 19.2282 74.4106 19.2282ZM89.0551 19.2122C88.8806 19.2202 88.6168 19.4458 88.5672 19.6195C88.3212 20.478 88.1308 21.3524 87.9027 22.3047C88.95 22.3047 89.914 22.3047 90.9474 22.3047C91.1954 21.3145 91.4473 20.3023 91.725 19.1923C90.7729 19.1943 89.912 19.1703 89.0551 19.2122Z" fill="black"/>
<path d="M13 81.7742C13.7736 83.3334 15.2097 83.0758 16.4057 82.7704C18.1493 82.3272 19.8611 81.6604 21.4955 80.8937C23.7746 79.8257 26.0775 79.4144 28.5113 80.0932C29.277 80.3068 30.0407 80.6063 30.7329 80.9956C35.301 83.565 39.8394 83.551 44.4015 80.9756C46.6291 79.7179 49.0192 79.3825 51.4768 80.1032C52.5618 80.4206 53.5973 80.9437 54.6168 81.4507C58.574 83.4232 62.545 83.4851 66.4427 81.4008C68.7833 80.1491 71.1675 79.3106 73.8036 79.9395C75.0434 80.2349 76.2513 80.7839 77.3879 81.3829C80.8552 83.2036 84.4017 83.4092 88.0455 82.0796C88.8528 81.7861 89.5986 81.323 90.3643 80.9217C93.411 79.3246 96.4776 79.2766 99.4965 80.9237C101.563 82.0517 103.674 82.9241 106.07 82.9081C107.244 82.9002 107.98 82.3232 107.994 81.3609C108.008 80.4485 107.312 79.7578 106.207 79.7398C104.455 79.7119 102.888 79.1688 101.375 78.3184C97.0865 75.9107 92.7703 75.9167 88.4898 78.3323C85.1297 80.2289 81.8073 80.2309 78.4491 78.3343C74.2004 75.9326 69.904 75.9007 65.6453 78.2744C62.2515 80.167 58.9013 80.221 55.5015 78.3403C51.1714 75.9466 46.8334 75.9706 42.5092 78.3643C39.2106 80.191 35.9119 80.205 32.6133 78.3763C28.1126 75.8807 23.6477 75.9885 19.2085 78.542C17.8974 79.2966 16.4891 79.7258 14.9716 79.7199C14.083 79.7159 13.4443 80.1012 12.9921 80.8438C13 81.1513 13 81.4627 13 81.7742Z" fill="black"/>
<path d="M81.0912 58.9969C81.109 61.5843 78.9827 63.7664 76.3942 63.8103C73.7917 63.8562 71.6098 61.6602 71.6158 59.0069C71.6237 56.3697 73.7104 54.2754 76.3366 54.2694C78.941 54.2654 81.0714 56.3836 81.0912 58.9969ZM76.3049 60.6001C77.1479 60.624 77.9215 59.8674 77.9175 59.0189C77.9136 58.1904 77.2173 57.4837 76.3842 57.4657C75.4936 57.4457 74.7875 58.1405 74.7895 59.0309C74.7915 59.8694 75.4738 60.5761 76.3049 60.6001Z" fill="black"/>
<path d="M47.8489 63.8104C45.2882 63.8203 43.1142 61.6502 43.0845 59.0589C43.0547 56.4276 45.2307 54.2515 47.8728 54.2714C50.501 54.2914 52.5678 56.3936 52.5619 59.0369C52.5539 61.6562 50.4375 63.8024 47.8489 63.8104ZM46.2621 59.0549C46.28 59.8634 47.0139 60.5941 47.8192 60.6041C48.6424 60.6161 49.3604 59.9233 49.3882 59.0888C49.4199 58.1884 48.7475 57.4777 47.8549 57.4677C46.9762 57.4577 46.2423 58.1904 46.2621 59.0549Z" fill="black"/>
<path d="M95.343 59.0369C95.3291 61.6342 93.1829 63.7964 90.6043 63.8103C87.99 63.8243 85.8339 61.6183 85.8696 58.967C85.9053 56.3237 88.0059 54.2495 90.6281 54.2714C93.2345 54.2914 95.3569 56.4375 95.343 59.0369ZM92.1515 58.971C92.1197 58.1225 91.4354 57.4637 90.5865 57.4677C89.6919 57.4717 89.0214 58.1744 89.0492 59.0788C89.073 59.9173 89.7752 60.6061 90.6023 60.6001C91.4612 60.5961 92.1832 59.8374 92.1515 58.971Z" fill="black"/>
<path d="M62.1463 63.8103C59.5558 63.8622 57.3482 61.6522 57.3521 59.0129C57.3561 56.3936 59.4686 54.2734 62.0809 54.2694C64.6952 54.2654 66.8077 56.3697 66.8216 58.993C66.8355 61.6043 64.7448 63.7584 62.1463 63.8103ZM63.6538 59.0788C63.6856 58.2084 62.9735 57.4697 62.0968 57.4657C61.222 57.4617 60.4941 58.1984 60.5179 59.0648C60.5397 59.8814 61.2716 60.6041 62.0809 60.6081C62.8941 60.6121 63.6241 59.9013 63.6538 59.0788Z" fill="black"/>
<path d="M33.5972 63.8103C30.9967 63.8183 28.789 61.5723 28.8406 58.967C28.8942 56.3317 31.0086 54.2534 33.619 54.2714C36.2353 54.2894 38.3239 56.4076 38.314 59.0369C38.3061 61.6502 36.1797 63.8023 33.5972 63.8103ZM32.0302 59.0648C32.05 59.8993 32.7522 60.5941 33.5793 60.6001C34.4104 60.6041 35.1086 59.9193 35.1304 59.0788C35.1562 58.1744 34.4838 57.4737 33.5912 57.4697C32.7065 57.4657 32.0083 58.1784 32.0302 59.0648Z" fill="black"/>
<path d="M36.0468 44.6806C36.3245 44.6646 36.6022 44.6666 36.8779 44.6327C37.7309 44.5309 38.2367 44.0437 38.2863 43.1833C38.3339 42.3308 37.9213 41.7079 37.0664 41.5901C36.3444 41.4903 35.5906 41.4903 34.8686 41.5881C34.0593 41.6979 33.5376 42.4107 33.615 43.1713C33.7003 44.0138 34.1724 44.5309 35.0293 44.6307C35.3665 44.6706 35.7076 44.6666 36.0468 44.6806Z" fill="black"/>
<path d="M83.4675 44.6666C83.6519 44.6666 83.8384 44.6746 84.0229 44.6646C85.1594 44.6127 85.8061 44.0357 85.8061 43.0835C85.8061 42.1471 85.1475 41.5402 84.0229 41.4863C83.5329 41.4624 83.0311 41.4624 82.5471 41.5342C81.6327 41.668 81.0634 42.3528 81.115 43.1773C81.1646 43.9878 81.7418 44.5528 82.6364 44.6427C82.9101 44.6706 83.1898 44.6467 83.4675 44.6467C83.4675 44.6546 83.4675 44.6606 83.4675 44.6666Z" fill="black"/>
<path d="M59.7561 44.6686C59.9109 44.6686 60.0656 44.6746 60.2183 44.6686C61.3767 44.6247 62.0233 44.0837 62.0491 43.1354C62.0769 42.1531 61.4084 41.5362 60.2243 41.4863C59.7641 41.4664 59.294 41.4624 58.8397 41.5242C57.9174 41.65 57.3362 42.3088 57.36 43.1314C57.3838 43.9739 57.9868 44.5668 58.925 44.6506C59.2007 44.6746 59.4804 44.6546 59.7561 44.6546C59.7561 44.6586 59.7561 44.6626 59.7561 44.6686Z" fill="black"/>
<path d="M43.9691 44.6906C44.3063 44.6646 44.6515 44.6726 44.9807 44.6047C45.7385 44.449 46.1709 43.9519 46.2125 43.1833C46.2581 42.3727 45.8753 41.7518 45.074 41.6121C44.3579 41.4883 43.6002 41.4803 42.8762 41.5642C41.9896 41.668 41.5056 42.3328 41.5472 43.1713C41.5869 43.9998 42.1363 44.5528 43.0428 44.6427C43.3483 44.6726 43.6577 44.6467 43.9671 44.6467C43.9671 44.6626 43.9672 44.6766 43.9691 44.6906Z" fill="black"/>
<path d="M91.4057 44.6686C93.0024 44.6686 93.7423 44.1576 93.7304 43.0655C93.7185 41.9934 92.9508 41.4764 91.368 41.4784C91.2133 41.4784 91.0585 41.4724 90.9058 41.4803C89.7078 41.5362 89.0413 42.1212 89.0512 43.1034C89.0611 44.0877 89.7177 44.6327 90.9435 44.6686C91.0962 44.6726 91.2509 44.6686 91.4057 44.6686Z" fill="black"/>
<path d="M67.6348 44.6667C67.8193 44.6667 68.0058 44.6746 68.1902 44.6647C69.3228 44.6128 69.9774 44.0318 69.9774 43.0835C69.9774 42.1512 69.309 41.5403 68.1882 41.4864C67.6983 41.4624 67.1965 41.4624 66.7125 41.5323C65.7782 41.668 65.2566 42.3109 65.3002 43.1773C65.3438 44.0058 65.8953 44.5529 66.8037 44.6427C67.0775 44.6706 67.3571 44.6467 67.6348 44.6467C67.6348 44.6547 67.6348 44.6607 67.6348 44.6667Z" fill="black"/>
<path d="M51.824 44.6706C53.3989 44.6686 54.1844 44.1276 54.1626 43.0595C54.1408 41.9994 53.3513 41.4784 51.7704 41.4804C51.7089 41.4804 51.6475 41.4804 51.586 41.4804C50.1935 41.4963 49.4199 42.0853 49.4398 43.1134C49.4596 44.1156 50.1895 44.6547 51.5463 44.6706C51.6395 44.6706 51.7327 44.6686 51.824 44.6706Z" fill="black"/>
<path d="M75.3468 44.6706C77.138 44.6666 77.8878 44.1615 77.9135 43.1174C77.9393 42.0473 77.134 41.4764 75.5829 41.4823C75.2159 41.4843 74.839 41.4943 74.482 41.5682C73.6767 41.7359 73.163 42.3907 73.1947 43.1454C73.2284 43.924 73.7798 44.5189 74.5951 44.6267C74.9303 44.6726 75.2734 44.6666 75.3468 44.6706Z" fill="black"/>
<path d="M91.4017 31.9175C92.9964 31.9175 93.7422 31.4064 93.7323 30.3183C93.7224 29.2442 92.9607 28.7332 91.3699 28.7332C91.3084 28.7332 91.2469 28.7332 91.1854 28.7332C89.7712 28.7411 89.0392 29.2942 89.0472 30.3483C89.0571 31.3984 89.7672 31.9115 91.2172 31.9155C91.2787 31.9175 91.3402 31.9175 91.4017 31.9175Z" fill="black"/>
<path d="M67.6586 31.9175C69.2495 31.9175 69.9953 31.4004 69.9794 30.3104C69.9635 29.2383 69.2038 28.7352 67.6091 28.7352C67.3929 28.7352 67.1766 28.7252 66.9604 28.7412C65.9211 28.8151 65.2824 29.4399 65.2962 30.3603C65.3081 31.2866 65.9508 31.8716 67.012 31.9155C67.2262 31.9235 67.4424 31.9175 67.6586 31.9175Z" fill="black"/>
<path d="M43.8699 31.9135C44.1159 31.9135 44.3638 31.9275 44.6098 31.9115C45.5837 31.8496 46.2204 31.2307 46.2264 30.3463C46.2323 29.5058 45.6393 28.851 44.7229 28.7591C44.2032 28.7072 43.6736 28.7132 43.1519 28.7492C42.1224 28.821 41.5036 29.4858 41.5472 30.4182C41.5889 31.3086 42.2117 31.8676 43.2213 31.9155C43.4375 31.9255 43.6537 31.9175 43.8699 31.9175C43.8699 31.9155 43.8699 31.9135 43.8699 31.9135Z" fill="black"/>
<path d="M75.5432 31.9075C77.132 31.9195 77.9116 31.4024 77.9195 30.3443C77.9274 29.2822 77.1281 28.7352 75.5611 28.7392C75.2219 28.7392 74.8767 28.7272 74.5475 28.7871C73.7064 28.9408 73.1511 29.6376 73.2006 30.4202C73.2522 31.2267 73.8532 31.8257 74.7121 31.9035C74.9858 31.9275 75.2655 31.9075 75.5432 31.9075Z" fill="black"/>
<path d="M51.7605 31.9175C53.3711 31.9175 54.1308 31.4304 54.1626 30.3723C54.1943 29.2842 53.381 28.7332 51.7426 28.7352C51.6197 28.7352 51.4967 28.7332 51.3717 28.7352C50.1855 28.7632 49.4616 29.3461 49.4358 30.2964C49.41 31.2747 50.1598 31.8995 51.3896 31.9175C51.5125 31.9195 51.6375 31.9175 51.7605 31.9175Z" fill="black"/>
<path d="M83.4953 31.9175C83.65 31.9175 83.8047 31.9215 83.9575 31.9175C85.1337 31.8915 85.826 31.2866 85.8101 30.3064C85.7942 29.3661 85.1178 28.7751 83.9932 28.7392C83.5627 28.7252 83.1263 28.7132 82.6979 28.7512C81.7438 28.835 81.0952 29.5118 81.1111 30.3643C81.1269 31.2307 81.7855 31.8556 82.7534 31.9135C82.9994 31.9275 83.2473 31.9155 83.4933 31.9155C83.4953 31.9155 83.4953 31.9175 83.4953 31.9175Z" fill="black"/>
<path d="M59.7522 31.9175C59.9366 31.9175 60.1231 31.9235 60.3076 31.9175C61.3767 31.8775 62.0213 31.3106 62.0511 30.3902C62.0809 29.4379 61.4164 28.7951 60.3215 28.7412C59.891 28.7212 59.4566 28.7152 59.0262 28.7451C58.0086 28.813 57.3342 29.4838 57.358 30.3762C57.3818 31.2766 58.0582 31.8755 59.1036 31.9175C59.3198 31.9235 59.536 31.9155 59.7522 31.9175Z" fill="black"/>
</g>
<defs>
<clipPath id="clip0_53_2820">
<rect width="95" height="67" fill="white" transform="translate(13 16)"/>
</clipPath>
</defs>
</svg>
