<svg width="120" height="100" viewBox="0 0 120 100" fill="none" xmlns="http://www.w3.org/2000/svg">
<rect width="120" height="100" fill="white"/>
<path d="M35.2593 30.5906C36.5838 30.5906 37.6576 29.5168 37.6576 28.1923C37.6576 26.8677 36.5838 25.7939 35.2593 25.7939C33.9347 25.7939 32.861 26.8677 32.861 28.1923C32.861 29.5168 33.9347 30.5906 35.2593 30.5906Z" fill="black"/>
<path d="M25.1889 30.5906C26.5134 30.5906 27.5872 29.5168 27.5872 28.1923C27.5872 26.8677 26.5134 25.7939 25.1889 25.7939C23.8643 25.7939 22.7905 26.8677 22.7905 28.1923C22.7905 29.5168 23.8643 30.5906 25.1889 30.5906Z" fill="black"/>
<path d="M45.3297 30.5906C46.6543 30.5906 47.728 29.5168 47.728 28.1923C47.728 26.8677 46.6543 25.7939 45.3297 25.7939C44.0052 25.7939 42.9314 26.8677 42.9314 28.1923C42.9314 29.5168 44.0052 30.5906 45.3297 30.5906Z" fill="black"/>
<path d="M55.4081 30.5906C56.7326 30.5906 57.8064 29.5168 57.8064 28.1923C57.8064 26.8677 56.7326 25.7939 55.4081 25.7939C54.0835 25.7939 53.0098 26.8677 53.0098 28.1923C53.0098 29.5168 54.0835 30.5906 55.4081 30.5906Z" fill="black"/>
<path d="M75.5427 30.5906C76.8673 30.5906 77.9411 29.5168 77.9411 28.1923C77.9411 26.8677 76.8673 25.7939 75.5427 25.7939C74.2182 25.7939 73.1444 26.8677 73.1444 28.1923C73.1444 29.5168 74.2182 30.5906 75.5427 30.5906Z" fill="black"/>
<path d="M65.4723 30.5906C66.7969 30.5906 67.8706 29.5168 67.8706 28.1923C67.8706 26.8677 66.7969 25.7939 65.4723 25.7939C64.1477 25.7939 63.074 26.8677 63.074 28.1923C63.074 29.5168 64.1477 30.5906 65.4723 30.5906Z" fill="black"/>
<path d="M105.292 31.2417C102.437 26.9697 96.5972 23.5905 88.5635 25.9296C88.5635 25.888 88.5652 25.8368 88.5652 25.7951C88.5652 23.1471 86.418 21 83.7701 21H16.7951C14.1473 20.9985 12 23.1458 12 25.7936C12 38.8353 14.7039 66.3122 35.9793 74.8307V78.5476H64.7522V74.7668C71.0435 72.2084 75.7107 68.0147 79.1395 62.9908C79.2324 63.9525 79.4741 64.962 79.9316 66.0356C80.3204 66.9491 81.2052 67.4948 82.1381 67.4948C82.4516 67.4948 82.7701 67.434 83.0789 67.3028C84.2966 66.786 84.863 65.3764 84.3429 64.1573C83.8565 63.0116 83.738 62.1525 83.9956 61.6052C84.6277 60.2421 87.8357 59.2676 90.9412 58.3267C95.1429 57.0499 99.8997 55.6052 103.197 52.1876C108.696 46.4754 109.581 37.6673 105.292 31.2417ZM16.7951 25.7936C18.8848 25.7936 21.8048 25.7936 25.1888 25.7936C28.2079 25.7936 31.5952 25.7936 35.2593 25.7936C38.4802 25.7936 41.8738 25.7936 45.3298 25.7936C48.6739 25.7936 52.0657 25.7936 55.4018 25.7936C58.8642 25.7936 62.2641 25.7936 65.4722 25.7936C69.1602 25.7936 72.5459 25.7936 75.5427 25.7936C78.914 25.7936 81.7828 25.7936 83.7699 25.7936C83.7699 27.4785 83.6851 29.0209 83.6163 30.5888H75.5427H65.4722H55.4018H45.3298H35.2593H25.1888H16.9489C16.8801 29.0194 16.7951 27.4785 16.7951 25.7936ZM50.2834 72.6771C38.045 72.6771 20.2641 67.0003 17.2768 35.3858H83.2899C80.3026 67.0003 62.5219 72.6771 50.2834 72.6771ZM99.7427 48.8594C97.317 51.3794 93.1907 52.6323 89.5475 53.7378C87.0611 54.4946 84.7171 55.2755 82.8324 56.3987C86.6741 47.8419 88.0308 38.3217 88.4148 30.9762C93.9317 28.813 98.6181 29.8881 101.303 33.9042C103.85 37.7234 104.173 44.2627 99.7427 48.8594Z" fill="black"/>
</svg>
