<svg width="120" height="100" viewBox="0 0 120 100" fill="none" xmlns="http://www.w3.org/2000/svg">
<rect width="120" height="100" fill="white"/>
<path d="M16.0737 41.9832C16.0737 42.0017 16.0737 42.0017 16.0737 41.9832C16.0553 42.0385 16.0369 42.057 16.0369 42.0938C16.0369 42.0938 16.0369 42.0938 16.0369 42.1123C16.0184 42.1491 16.0184 42.186 16.0184 42.2229C16.0184 42.2413 16.0184 42.2413 16.0184 42.2598C16.0184 42.2966 16 42.3151 16 42.3519C16 42.3888 16 42.4441 16 42.481C16 42.5178 16 42.5731 16 42.61C16 42.6469 16 42.6653 16.0184 42.7022C16.0184 42.7206 16.0184 42.7206 16.0184 42.739C16.0184 42.7759 16.0369 42.8128 16.0369 42.8496C16.0369 42.8496 16.0369 42.8497 16.0369 42.8681C16.0553 42.905 16.0553 42.9418 16.0737 42.9787C16.0737 42.9787 16.0737 42.9787 16.0737 42.9971C16.0922 43.034 16.1106 43.0709 16.1106 43.0893V43.1077C16.129 43.1446 16.1475 43.163 16.1659 43.1999C16.1659 43.1999 16.1659 43.2183 16.1843 43.2183C16.2028 43.2368 16.2212 43.2736 16.2396 43.2921L16.2581 43.3105C16.2765 43.3474 16.3134 43.3658 16.3503 43.4027L55.5967 82.6492C55.6336 82.686 55.6705 82.7229 55.7073 82.7413L55.7258 82.7598C55.7811 82.7966 55.8179 82.8335 55.8732 82.8519C55.8732 82.8519 55.8917 82.8519 55.8917 82.8704C55.947 82.9072 56.0023 82.9257 56.0576 82.9441C56.076 82.9441 56.076 82.9441 56.0944 82.9625C56.1497 82.981 56.2235 82.9994 56.2788 83.0178H56.2972C56.371 83.0363 56.4263 83.0363 56.5 83.0363C56.5737 83.0363 56.629 83.0363 56.7028 83.0178H56.7212C56.7765 82.9994 56.8503 82.981 56.9056 82.9625C56.924 82.9625 56.924 82.9625 56.9424 82.9441C56.9977 82.9257 57.053 82.8888 57.1083 82.8704C57.1083 82.8704 57.1268 82.8704 57.1268 82.8519C57.1821 82.8151 57.2374 82.7966 57.2742 82.7413C57.2742 82.7413 57.2742 82.7413 57.2927 82.7229C57.3295 82.686 57.3664 82.6676 57.4033 82.6307L96.6497 43.3842C96.6866 43.3474 96.705 43.3289 96.7419 43.2921L96.7604 43.2736C96.7788 43.2552 96.7972 43.2183 96.8157 43.1999C96.8157 43.1999 96.8157 43.1815 96.8341 43.1815C96.8525 43.1446 96.871 43.1262 96.8894 43.0893V43.0709C96.9078 43.034 96.9263 43.0156 96.9263 42.9787C96.9263 42.9787 96.9263 42.9787 96.9263 42.9603C96.9447 42.9234 96.9447 42.8865 96.9631 42.8496C96.9631 42.8496 96.9631 42.8497 96.9631 42.8312C96.9816 42.7943 96.9816 42.7575 96.9816 42.7206C96.9816 42.7022 96.9816 42.7022 96.9816 42.6837C96.9816 42.6469 97 42.6284 97 42.5916C97 42.5547 97 42.4994 97 42.4625C97 42.4257 97 42.3704 97 42.3335C97 42.2966 97 42.2782 96.9816 42.2413C96.9816 42.2229 96.9816 42.2229 96.9816 42.2045C96.9816 42.1676 96.9631 42.1307 96.9631 42.0938C96.9631 42.0938 96.9631 42.0938 96.9631 42.0754C96.9447 42.0385 96.9447 42.0017 96.9263 41.9648C96.9263 41.9648 96.9263 41.9648 96.9263 41.9464C96.9078 41.9095 96.8894 41.8726 96.8894 41.8542V41.8358C96.871 41.7989 96.8525 41.7805 96.8341 41.7436C96.8341 41.7436 96.8341 41.7252 96.8157 41.7252C96.7972 41.7067 96.7788 41.6699 96.7604 41.6514L96.7419 41.633C96.7235 41.5961 96.6866 41.5777 96.6497 41.5408L79.7087 24.5998C79.469 24.3601 79.1372 24.2126 78.8054 24.2126H34.1946H34.1761C34.1577 24.2126 34.1208 24.2126 34.1024 24.2126C34.084 24.2126 34.0655 24.2126 34.0471 24.2126C34.0287 24.2126 33.9918 24.2126 33.9734 24.2311C33.9549 24.2311 33.9365 24.2311 33.9181 24.2495C33.8996 24.2495 33.8628 24.2679 33.8443 24.2679C33.8259 24.2679 33.8075 24.2679 33.789 24.2864C33.7706 24.2864 33.7337 24.3048 33.7153 24.3048C33.6969 24.3048 33.6784 24.3233 33.66 24.3233C33.6416 24.3417 33.6231 24.3417 33.6047 24.3601C33.5863 24.3601 33.5678 24.3786 33.5494 24.397C33.531 24.4154 33.5125 24.4154 33.4941 24.4339C33.4756 24.4523 33.4572 24.4523 33.4388 24.4707L33.4203 24.4892L33.4019 24.5076C33.3835 24.526 33.365 24.5445 33.3466 24.5445C33.3282 24.5629 33.3097 24.5813 33.2913 24.5813L33.2729 24.5998L16.3503 41.5777C16.3134 41.6146 16.2949 41.633 16.2581 41.6699L16.2396 41.6883C16.2212 41.7067 16.2028 41.7436 16.1843 41.762C16.1843 41.762 16.1843 41.7805 16.1659 41.7805C16.1475 41.8173 16.129 41.8358 16.1106 41.8726V41.8911C16.0922 41.9279 16.0737 41.9648 16.0737 41.9832ZM34.0655 27.5124L44.2412 41.1906H20.3689L34.0655 27.5124ZM64.1318 43.7714L56.4631 76.234L48.4442 43.7714H64.1318ZM49.0157 41.1906L56.4631 28.176L63.5787 41.1906H49.0157ZM66.7863 43.7714H92.6311L58.8043 77.5982L66.7863 43.7714ZM58.6752 26.8303H75.8006L65.9383 40.103L58.6752 26.8303ZM46.6561 40.1398L36.7754 26.8303H54.2879L46.6561 40.1398ZM45.7897 43.7714L54.1404 77.5244L20.3689 43.7714H45.7897ZM92.6311 41.1906H68.3348L78.6948 27.2543L92.6311 41.1906Z" fill="#333333"/>
<path d="M79.3954 9.37329C78.8977 8.87557 78.0681 8.87557 77.5704 9.37329L75.8929 11.0508L74.2154 9.37329C73.7176 8.87557 72.8881 8.87557 72.3904 9.37329C71.8927 9.87102 71.8927 10.7006 72.3904 11.1983L74.0679 12.8758L72.3904 14.5533C71.8927 15.051 71.8927 15.8806 72.3904 16.3783C72.6485 16.6364 72.9803 16.7654 73.2937 16.7654C73.607 16.7654 73.9573 16.6364 74.1969 16.3783L75.8745 14.7008L77.552 16.3783C77.81 16.6364 78.1419 16.7654 78.4552 16.7654C78.7871 16.7654 79.1189 16.6364 79.3585 16.3783C79.8562 15.8806 79.8562 15.051 79.3585 14.5533L77.681 12.8758L79.3585 11.1983C79.9115 10.6821 79.9115 9.87102 79.3954 9.37329Z" fill="#333333"/>
<path d="M41.5682 9.37329C41.0705 8.87557 40.241 8.87557 39.7433 9.37329L38.0657 11.0508L36.3882 9.37329C35.8905 8.87557 35.061 8.87557 34.5632 9.37329C34.0655 9.87102 34.0655 10.7006 34.5632 11.1983L36.2408 12.8758L34.5632 14.5533C34.0655 15.051 34.0655 15.8806 34.5632 16.3783C34.8213 16.6364 35.1531 16.7654 35.4665 16.7654C35.7799 16.7654 36.1301 16.6364 36.3698 16.3783L38.0473 14.7008L39.7248 16.3783C39.9829 16.6364 40.3147 16.7654 40.6281 16.7654C40.9415 16.7654 41.2917 16.6364 41.5314 16.3783C42.0291 15.8806 42.0291 15.051 41.5314 14.5533L39.8539 12.8758L41.5314 11.1983C42.066 10.6821 42.066 9.87102 41.5682 9.37329Z" fill="#333333"/>
<path d="M93.2026 22.351V19.973C93.2026 19.2541 92.6311 18.6826 91.9122 18.6826C91.1932 18.6826 90.6218 19.2541 90.6218 19.973V22.351H88.2438C87.5248 22.351 86.9534 22.9225 86.9534 23.6414C86.9534 24.3604 87.5248 24.9318 88.2438 24.9318H90.6218V27.3098C90.6218 28.0288 91.1932 28.6002 91.9122 28.6002C92.6311 28.6002 93.2026 28.0288 93.2026 27.3098V24.9318H95.5806C96.2995 24.9318 96.871 24.3604 96.871 23.6414C96.871 22.9225 96.2995 22.351 95.5806 22.351H93.2026Z" fill="#333333"/>
<path d="M17.4194 24.9318H19.7974V27.3098C19.7974 28.0288 20.3689 28.6002 21.0878 28.6002C21.8068 28.6002 22.3782 28.0288 22.3782 27.3098V24.9318H24.7562C25.4752 24.9318 26.0466 24.3604 26.0466 23.6414C26.0466 22.9225 25.4752 22.351 24.7562 22.351H22.3782V19.973C22.3782 19.2541 21.8068 18.6826 21.0878 18.6826C20.3689 18.6826 19.7974 19.2541 19.7974 19.973V22.351H17.4194C16.7005 22.351 16.129 22.9225 16.129 23.6414C16.129 24.3604 16.7005 24.9318 17.4194 24.9318Z" fill="#333333"/>
</svg>
