<svg width="120" height="100" viewBox="0 0 120 100" fill="none" xmlns="http://www.w3.org/2000/svg">
<rect width="120" height="100" fill="white"/>
<path d="M97.5085 9H23.3729C22.6137 9 22 9.61368 22 10.3729V24.1017V88.6271C22 89.3863 22.6137 90 23.3729 90H97.5085C98.2677 90 98.8814 89.3863 98.8814 88.6271V24.1017V10.3729C98.8814 9.61368 98.2677 9 97.5085 9ZM24.7458 11.7458H96.1356V22.7288H24.7458V11.7458ZM24.7458 87.2542V25.4746H96.1356V87.2542H24.7458Z" fill="black"/>
<path d="M34.356 13.1187H28.8645C28.1053 13.1187 27.4916 13.7323 27.4916 14.4915V19.9831C27.4916 20.7423 28.1053 21.3559 28.8645 21.3559H34.356C35.1152 21.3559 35.7289 20.7423 35.7289 19.9831V14.4915C35.7289 13.7323 35.1152 13.1187 34.356 13.1187ZM32.9831 18.6102H30.2373V15.8644H32.9831V18.6102Z" fill="black"/>
<path d="M43.9661 13.1187H38.4746C37.7154 13.1187 37.1017 13.7323 37.1017 14.4915V19.9831C37.1017 20.7423 37.7154 21.3559 38.4746 21.3559H43.9661C44.7253 21.3559 45.339 20.7423 45.339 19.9831V14.4915C45.339 13.7323 44.7253 13.1187 43.9661 13.1187ZM42.5932 18.6102H39.8474V15.8644H42.5932V18.6102Z" fill="black"/>
<path d="M93.3898 13.1187H60.4406C59.6814 13.1187 59.0677 13.7323 59.0677 14.4915V19.9831C59.0677 20.7423 59.6814 21.3559 60.4406 21.3559H93.3898C94.149 21.3559 94.7627 20.7423 94.7627 19.9831V14.4915C94.7627 13.7323 94.149 13.1187 93.3898 13.1187ZM92.0169 18.6102H61.8135V15.8644H92.0169V18.6102Z" fill="black"/>
<path d="M90.644 32.3389H30.2373C29.4781 32.3389 28.8644 32.9525 28.8644 33.7117V61.3094V67.7057V81.7626C28.8644 82.5218 29.4781 83.1355 30.2373 83.1355H46.5993H52.5919H58.9552H64.9478H71.3111H77.3038H83.6671H89.6597H90.644C91.4032 83.1355 92.0169 82.5218 92.0169 81.7626V33.7117C92.0169 32.9525 91.4032 32.3389 90.644 32.3389ZM89.2712 35.0846V52.9321H86.5254V47.4406C86.5254 44.8884 84.7695 42.7577 82.4067 42.144V39.2033H83.7796C84.5388 39.2033 85.1525 38.5896 85.1525 37.8304C85.1525 37.0712 84.5388 36.4575 83.7796 36.4575H78.2881C77.5289 36.4575 76.9152 37.0712 76.9152 37.8304C76.9152 38.5896 77.5289 39.2033 78.2881 39.2033H79.661V42.144C77.2983 42.7577 75.5423 44.8884 75.5423 47.4406V52.9321H72.7966V47.4406C72.7966 44.8884 71.0407 42.7577 68.6779 42.144V39.2033H70.0508C70.81 39.2033 71.4237 38.5896 71.4237 37.8304C71.4237 37.0712 70.81 36.4575 70.0508 36.4575H64.5593C63.8001 36.4575 63.1864 37.0712 63.1864 37.8304C63.1864 38.5896 63.8001 39.2033 64.5593 39.2033H65.9322V42.144C63.5694 42.7577 61.8135 44.8884 61.8135 47.4406V52.9321H59.0678V47.4406C59.0678 44.8884 57.3119 42.7577 54.9491 42.144V39.2033H56.322C57.0812 39.2033 57.6949 38.5896 57.6949 37.8304C57.6949 37.0712 57.0812 36.4575 56.322 36.4575H50.8305C50.0713 36.4575 49.4576 37.0712 49.4576 37.8304C49.4576 38.5896 50.0713 39.2033 50.8305 39.2033H52.2034V42.144C49.8406 42.7577 48.0847 44.8884 48.0847 47.4406V52.9321H45.339V47.4406C45.339 44.8884 43.583 42.7577 41.2203 42.144V39.2033H42.5932C43.3524 39.2033 43.9661 38.5896 43.9661 37.8304C43.9661 37.0712 43.3524 36.4575 42.5932 36.4575H37.1017C36.3425 36.4575 35.7288 37.0712 35.7288 37.8304C35.7288 38.5896 36.3425 39.2033 37.1017 39.2033H38.4745V42.144C36.1118 42.7577 34.3559 44.8884 34.3559 47.4406V52.9321H31.6101V35.0846H89.2712ZM81.0339 44.6948C82.5482 44.6948 83.7796 45.9263 83.7796 47.4406V52.9321H78.2881V47.4406C78.2881 45.9263 79.5196 44.6948 81.0339 44.6948ZM67.3051 44.6948C68.8193 44.6948 70.0508 45.9263 70.0508 47.4406V52.9321H64.5593V47.4406C64.5593 45.9263 65.7908 44.6948 67.3051 44.6948ZM53.5762 44.6948C55.0905 44.6948 56.322 45.9263 56.322 47.4406V52.9321H50.8305V47.4406C50.8305 45.9263 52.062 44.6948 53.5762 44.6948ZM39.8474 44.6948C41.3617 44.6948 42.5932 45.9263 42.5932 47.4406V52.9321H37.1017V47.4406C37.1017 45.9263 38.3331 44.6948 39.8474 44.6948ZM42.8431 62.3102C43.0133 62.3803 43.178 62.4613 43.3442 62.5368C43.594 62.6507 43.8439 62.7674 44.0869 62.8951C44.2269 62.9678 44.3642 63.0447 44.5015 63.1216C44.8104 63.296 45.1138 63.4786 45.409 63.6735C45.468 63.712 45.5284 63.749 45.5874 63.7888C46.6281 64.4986 47.5658 65.3429 48.3977 66.2834C48.6572 66.5758 48.903 66.8778 49.1363 67.1867C49.1858 67.2512 49.2338 67.3158 49.2819 67.3817C49.5056 67.6878 49.7171 68.0008 49.9161 68.3207C49.9656 68.4017 50.015 68.4827 50.0644 68.5637C50.2498 68.8754 50.4255 69.1911 50.5875 69.5137C50.6383 69.6153 50.6877 69.7197 50.7371 69.8226C50.884 70.1329 51.0227 70.4446 51.149 70.7631C51.2012 70.8949 51.2465 71.028 51.2945 71.1612C51.403 71.4605 51.5059 71.7612 51.5952 72.0659C51.646 72.2389 51.6858 72.4146 51.7297 72.5904C51.7984 72.8636 51.8684 73.1354 51.9219 73.4127C51.9233 73.4168 51.9233 73.421 51.9247 73.4251C51.9713 73.6667 52.0015 73.9125 52.0372 74.1568C52.062 74.3312 52.0908 74.5042 52.11 74.6799C52.1169 74.7458 52.1265 74.8103 52.132 74.8762C52.1745 75.3375 52.2034 75.8002 52.2034 76.2711C52.2034 76.8793 52.1484 77.4943 52.0674 78.1094C52.051 78.2315 52.0372 78.3551 52.018 78.4773C51.9233 79.0717 51.7942 79.6676 51.624 80.2634C51.6116 80.306 51.5965 80.3472 51.5842 80.3897H48.7176C49.1899 79.069 49.4576 77.6796 49.4576 76.2711C49.4576 69.4575 43.9153 63.9151 37.1017 63.9151C35.1618 63.9151 33.3029 64.3654 31.6101 65.2125V62.2155C33.3729 61.5208 35.2167 61.1694 37.1017 61.1694C39.1349 61.1694 41.072 61.5785 42.8431 62.3102ZM47.0551 61.4645C47.0207 61.4412 46.9905 61.4124 46.9548 61.389C47.7854 61.2435 48.6215 61.1694 49.4576 61.1694C51.4908 61.1694 53.428 61.5785 55.199 62.3102C55.3692 62.3803 55.534 62.4613 55.7001 62.5368C55.95 62.6507 56.1998 62.7674 56.4428 62.8951C56.5829 62.9678 56.7201 63.0447 56.8574 63.1216C57.1663 63.296 57.4697 63.4786 57.7649 63.6735C57.8239 63.712 57.8843 63.749 57.9434 63.7888C58.984 64.4986 59.9217 65.3429 60.7537 66.2834C61.0131 66.5758 61.2589 66.8778 61.4923 67.1867C61.5417 67.2512 61.5898 67.3158 61.6378 67.3817C61.8616 67.6878 62.073 68.0008 62.2721 68.3207C62.3215 68.4017 62.3709 68.4827 62.4203 68.5637C62.6057 68.8754 62.7814 69.1911 62.9434 69.5137C62.9942 69.6153 63.0436 69.7197 63.0931 69.8226C63.24 70.1329 63.3786 70.4446 63.5049 70.7631C63.5571 70.8949 63.6024 71.028 63.6504 71.1612C63.7589 71.4605 63.8619 71.7612 63.9511 72.0659C64.0019 72.2389 64.0417 72.4146 64.0856 72.5904C64.1543 72.8636 64.2243 73.1354 64.2779 73.4127C64.2792 73.4168 64.2792 73.421 64.2806 73.4251C64.3273 73.6667 64.3575 73.9125 64.3932 74.1568C64.4179 74.3312 64.4467 74.5042 64.4659 74.6799C64.4728 74.7458 64.4824 74.8103 64.4879 74.8762C64.5305 75.3375 64.5593 75.8002 64.5593 76.2711C64.5593 76.8793 64.5044 77.4943 64.4234 78.1094C64.4069 78.2315 64.3932 78.3551 64.374 78.4773C64.2792 79.0717 64.1502 79.6676 63.9799 80.2634C63.9676 80.306 63.9525 80.3472 63.9401 80.3897H61.0735C61.5458 79.069 61.8135 77.6796 61.8135 76.2711C61.8135 69.6359 56.554 64.2227 49.9875 63.9426C49.9532 63.9069 49.9161 63.8753 49.8818 63.8396C49.702 63.6543 49.5139 63.4799 49.3258 63.3028C49.054 63.0475 48.7863 62.788 48.498 62.5491C48.0353 62.1647 47.5548 61.8009 47.0551 61.4645ZM59.411 61.4645C59.3767 61.4412 59.3465 61.4124 59.3108 61.389C60.1414 61.2435 60.9774 61.1694 61.8135 61.1694C63.8468 61.1694 65.7839 61.5785 67.5549 62.3102C67.7252 62.3803 67.8899 62.4613 68.056 62.5368C68.3059 62.6507 68.5558 62.7674 68.7988 62.8951C68.9388 62.9678 69.0761 63.0447 69.2134 63.1216C69.5223 63.296 69.8257 63.4786 70.1208 63.6735C70.1799 63.712 70.2403 63.749 70.2993 63.7888C71.34 64.4986 72.2776 65.3429 73.1096 66.2834C73.3691 66.5758 73.6148 66.8778 73.8482 67.1867C73.8976 67.2512 73.9457 67.3158 73.9937 67.3817C74.2175 67.6878 74.4289 68.0008 74.628 68.3207C74.6774 68.4017 74.7269 68.4827 74.7763 68.5637C74.9616 68.8754 75.1373 69.1911 75.2993 69.5137C75.3501 69.6153 75.3996 69.7197 75.449 69.8226C75.5959 70.1329 75.7345 70.4446 75.8609 70.7631C75.913 70.8949 75.9583 71.028 76.0064 71.1612C76.1148 71.4605 76.2178 71.7612 76.307 72.0659C76.3578 72.2389 76.3976 72.4146 76.4416 72.5904C76.5102 72.8636 76.5802 73.1354 76.6338 73.4127C76.6352 73.4168 76.6352 73.421 76.6365 73.4251C76.6832 73.6667 76.7134 73.9125 76.7491 74.1568C76.7738 74.3312 76.8026 74.5042 76.8219 74.6799C76.8287 74.7458 76.8383 74.8103 76.8438 74.8762C76.8864 75.3375 76.9152 75.8002 76.9152 76.2711C76.9152 76.8793 76.8603 77.4943 76.7793 78.1094C76.7628 78.2315 76.7491 78.3551 76.7299 78.4773C76.6352 79.0717 76.5061 79.6676 76.3359 80.2634C76.3235 80.306 76.3084 80.3472 76.2961 80.3897H73.4295C73.9017 79.069 74.1695 77.6796 74.1695 76.2711C74.1695 69.6359 68.91 64.2227 62.3435 63.9426C62.3091 63.9069 62.2721 63.8753 62.2378 63.8396C62.0579 63.6543 61.8698 63.4799 61.6817 63.3028C61.4099 63.0475 61.1422 62.788 60.8539 62.5491C60.3912 62.1647 59.9107 61.8009 59.411 61.4645ZM31.6101 80.3897V68.3907C33.226 67.2567 35.1124 66.6609 37.1017 66.6609C42.3996 66.6609 46.7118 70.9731 46.7118 76.2711C46.7118 77.6961 46.3906 79.1047 45.7742 80.3897H31.6101ZM54.4384 80.3897C54.4631 80.2895 54.4714 80.1879 54.4947 80.0863C54.6059 79.6003 54.6965 79.1143 54.7652 78.6283C54.7899 78.4567 54.8146 78.2837 54.8338 78.1121C54.9024 77.4971 54.9491 76.8834 54.9491 76.2711C54.9491 75.7356 54.9162 75.2043 54.8681 74.6744C54.8544 74.522 54.8393 74.3696 54.8214 74.2172L54.8201 74.2076C54.8091 74.1156 54.8036 74.0223 54.7912 73.9289C54.7459 73.5857 54.6855 73.2452 54.6196 72.9061C54.5867 72.7359 54.551 72.5684 54.5139 72.4009C54.4974 72.3268 54.4769 72.2513 54.4604 72.1771C54.4151 71.9863 54.3725 71.7941 54.3217 71.606C54.2915 71.4948 54.2572 71.3864 54.2242 71.2765C54.1611 71.0596 54.0924 70.8441 54.0211 70.6299C53.9675 70.472 53.914 70.3155 53.8563 70.159C53.7726 69.9284 53.6888 69.6977 53.5955 69.4712C53.5035 69.2502 53.3978 69.0387 53.2989 68.8218C53.1987 68.6049 53.1026 68.3866 52.9941 68.1738C52.8294 67.8498 52.6509 67.5368 52.467 67.2252C52.4477 67.1922 52.4313 67.1579 52.412 67.1249C56.2698 68.3743 59.0678 72.0028 59.0678 76.2711C59.0678 77.6961 58.7465 79.1047 58.1301 80.3897H54.4384ZM66.7943 80.3897C66.8191 80.2895 66.8273 80.1879 66.8506 80.0863C66.9618 79.6003 67.0524 79.1143 67.1211 78.6283C67.1458 78.4567 67.1705 78.2837 67.1897 78.1121C67.2584 77.4971 67.3051 76.8834 67.3051 76.2711C67.3051 75.7356 67.2721 75.2043 67.2241 74.6744C67.2103 74.522 67.1952 74.3696 67.1774 74.2172L67.176 74.2076C67.165 74.1156 67.1595 74.0223 67.1472 73.9289C67.1019 73.5857 67.0415 73.2452 66.9756 72.9061C66.9426 72.7359 66.9069 72.5684 66.8699 72.4009C66.8534 72.3268 66.8328 72.2513 66.8163 72.1771C66.771 71.9863 66.7284 71.7941 66.6776 71.606C66.6474 71.4948 66.6131 71.3864 66.5802 71.2765C66.517 71.0596 66.4484 70.8441 66.377 70.6299C66.3234 70.472 66.2699 70.3155 66.2122 70.159C66.1285 69.9284 66.0448 69.6977 65.9514 69.4712C65.8594 69.2502 65.7537 69.0387 65.6549 68.8218C65.5546 68.6049 65.4585 68.3866 65.3501 68.1738C65.1853 67.8498 65.0069 67.5368 64.8229 67.2252C64.8037 67.1922 64.7872 67.1579 64.768 67.1249C68.6258 68.3743 71.4237 72.0028 71.4237 76.2711C71.4237 77.6961 71.1024 79.1047 70.486 80.3897H66.7943ZM79.1503 80.3897C79.175 80.2895 79.1832 80.1879 79.2066 80.0863C79.3178 79.6003 79.4084 79.1143 79.477 78.6283C79.5017 78.4567 79.5264 78.2837 79.5457 78.1121C79.6143 77.4971 79.661 76.8834 79.661 76.2711C79.661 75.7356 79.628 75.2043 79.58 74.6744C79.5663 74.522 79.5512 74.3696 79.5333 74.2172L79.5319 74.2076C79.521 74.1156 79.5155 74.0223 79.5031 73.9289C79.4578 73.5857 79.3974 73.2452 79.3315 72.9061C79.2985 72.7359 79.2629 72.5684 79.2258 72.4009C79.2093 72.3268 79.1887 72.2513 79.1722 72.1771C79.1269 71.9863 79.0844 71.7941 79.0336 71.606C79.0034 71.4948 78.9691 71.3864 78.9361 71.2765C78.873 71.0596 78.8043 70.8441 78.7329 70.6299C78.6794 70.472 78.6258 70.3155 78.5682 70.159C78.4844 69.9284 78.4007 69.6977 78.3073 69.4712C78.2153 69.2502 78.1096 69.0387 78.0108 68.8218C77.9106 68.6049 77.8145 68.3866 77.706 68.1738C77.5413 67.8498 77.3628 67.5368 77.1788 67.2252C77.1596 67.1922 77.1431 67.1579 77.1239 67.1249C80.9817 68.3743 83.7796 72.0028 83.7796 76.2711C83.7796 77.6961 83.4584 79.1047 82.842 80.3897H79.1503ZM88.6643 80.3897H85.7854C86.2577 79.069 86.5254 77.6796 86.5254 76.2711C86.5254 69.6359 81.2659 64.2227 74.6994 63.9426C74.6651 63.9069 74.628 63.8753 74.5937 63.8396C74.4138 63.6543 74.2257 63.4799 74.0377 63.3028C73.7658 63.0475 73.4981 62.788 73.2098 62.5491C72.7472 62.1647 72.2666 61.8009 71.7669 61.4645C71.7326 61.4412 71.7024 61.4124 71.6667 61.389C72.4973 61.2435 73.3334 61.1694 74.1695 61.1694C82.496 61.1694 89.2712 67.9445 89.2712 76.2711C89.2712 77.6302 89.068 79.0113 88.6643 80.3897ZM74.1695 58.4236C72.1005 58.4236 70.0398 58.819 68.0341 59.5645C66.0928 58.8396 64.0033 58.4236 61.8135 58.4236C59.7446 58.4236 57.6839 58.819 55.6781 59.5645C53.7369 58.8396 51.6473 58.4236 49.4576 58.4236C47.3887 58.4236 45.328 58.819 43.3222 59.5645C41.3809 58.8396 39.2914 58.4236 37.1017 58.4236C35.2249 58.4236 33.3867 58.7243 31.6101 59.3064V55.6778H35.7288H43.9661H49.4576H57.6949H63.1864H71.4237H76.9152H85.1525H89.2712V66.8037C86.1094 61.7803 80.53 58.4236 74.1695 58.4236Z" fill="black"/>
</svg>
