<svg width="120" height="100" viewBox="0 0 120 100" fill="none" xmlns="http://www.w3.org/2000/svg">
<rect width="120" height="100" fill="white"/>
<path d="M52.0297 41.0265C47.4501 41.0265 43.0632 41.1039 38.6814 40.9904C36.886 40.9439 36.8962 42.2597 36.597 43.3278C32.8592 56.5988 29.1468 69.875 25.4294 83.1512C25.3127 83.564 25.3584 84.1264 25.0997 84.3741C24.5063 84.9417 23.776 85.3544 23.1015 85.8291C22.8429 85.1016 22.3002 84.338 22.3915 83.6569C22.5791 82.2276 23.0964 80.8396 23.5022 79.3639C21.9553 78.5951 21.1236 79.0337 20.7585 80.659C20.4744 81.9128 20.2107 83.2028 19.6833 84.3534C19.3942 84.9778 18.5625 85.339 17.9742 85.8188C17.6597 85.0552 16.9649 84.2141 17.1019 83.5485C17.7003 80.7158 18.5422 77.9346 19.2877 75.169C14.8805 72.8883 14.3176 71.6655 15.6057 66.9855C18.243 57.4037 20.9106 47.8323 23.5935 38.266C24.694 34.3394 25.4699 33.6376 29.375 33.4519C30.7647 33.3848 31.2465 32.8121 31.6065 31.5892C32.844 27.3994 34.1778 23.2406 35.4711 19.0715C36.668 15.2223 38.1793 14.0252 42.0489 14.0149C50.914 13.9994 59.7842 13.9891 68.6543 14.02C74.1773 14.0407 76.9768 17.7558 75.6581 23.22C74.8771 26.4604 74.0708 29.6904 73.1934 33.2661C74.3345 33.3229 75.222 33.4003 76.1044 33.4003C83.7929 33.4106 91.4764 33.4003 99.1649 33.4158C100.174 33.4158 101.209 33.4209 102.188 33.6325C104.247 34.0814 105.144 35.5468 104.977 37.6055C104.82 39.5611 103.694 40.8201 101.756 40.9594C99.6568 41.1091 97.5369 41.0162 95.422 41.0162C84.4421 41.0162 73.4571 41.0523 62.4772 40.9801C60.7883 40.9697 59.9921 41.3258 59.5661 43.1833C56.5231 56.3615 53.3331 69.5087 50.209 82.5939C50.4626 82.8055 50.5691 82.9396 50.7061 83.0119C51.7102 83.5124 53.5918 84.0077 53.5867 84.4876C53.5664 86.6547 51.6747 85.8343 50.4981 85.8704C47.2929 85.9736 44.0775 85.9788 40.8723 85.8446C40.1572 85.8137 39.4725 85.0448 38.7777 84.6114C39.4117 84.1109 40.0507 83.6156 40.6745 83.1048C41.3034 82.5939 42.3177 82.1708 42.4749 81.531C45.741 68.389 48.9107 55.2263 52.0855 42.0636C52.1413 41.8366 52.0652 41.5683 52.0297 41.0265ZM37.1143 23.5915C38.1387 23.6534 38.798 23.7308 39.4624 23.7308C49.7425 23.736 60.0276 23.7411 70.3076 23.7308C72.6761 23.7308 73.6194 22.6008 73.1528 20.2273C72.7116 17.9776 71.2408 16.8321 69.0245 16.827C59.9211 16.796 50.8227 16.8115 41.7192 16.8115C39.9848 16.8115 38.8639 17.6113 38.3974 19.3553C38.0474 20.6607 37.6163 21.9455 37.1143 23.5915ZM34.2691 33.4106C35.3798 33.4106 36.2876 33.4106 37.2005 33.4106C46.2329 33.4106 55.2654 33.4106 64.2978 33.4106C70.3482 33.4106 70.3482 33.4106 71.6313 27.4665C71.682 27.2395 71.6161 26.9867 71.5958 26.5687C70.6322 26.5687 69.7143 26.5687 68.7963 26.5687C59.7639 26.5687 50.7314 26.5687 41.6989 26.5687C35.5319 26.5635 35.5319 26.5635 34.2691 33.4106ZM32.7273 37.2392C32.8136 37.492 32.9049 37.75 32.9911 38.0028C33.3055 38.0699 33.6149 38.1989 33.9293 38.1989C56.0515 38.2092 78.1736 38.2196 100.291 38.1834C100.965 38.1834 101.635 37.7139 102.309 37.4611C102.274 37.1979 102.233 36.9348 102.198 36.6768C101.259 36.5581 100.326 36.3414 99.388 36.3414C83.8487 36.3207 68.3145 36.3259 52.7752 36.3259C46.8669 36.3259 40.9534 36.2949 35.0451 36.3672C34.2691 36.3775 33.4982 36.9348 32.7273 37.2392ZM30.0648 36.6149C27.5087 35.7893 26.8139 37.1618 26.3067 39.0193C23.634 48.7507 20.9157 58.477 18.2176 68.2032C18.0807 68.6986 17.7155 69.2919 17.8677 69.6686C18.177 70.4374 18.7653 71.0927 19.237 71.7945C19.7137 71.3301 20.3629 70.9482 20.6266 70.3807C21.0475 69.4622 21.2149 68.4199 21.4888 67.4344C24.3339 57.2231 27.174 47.0119 30.0648 36.6149ZM45.2338 82.6713C45.5483 82.8777 45.8627 83.0841 46.1771 83.2957C46.6539 82.5681 47.3791 81.9025 47.5718 81.1028C49.6765 72.5375 51.695 63.9515 53.7388 55.3708C54.8546 50.6702 55.9703 45.9748 57.0861 41.2742C56.7869 41.1194 56.4876 40.9646 56.1884 40.8098C55.7218 41.5425 55.0219 42.2184 54.8191 43.0182C53.1049 49.824 51.482 56.6504 49.8388 63.4768C48.3021 69.8802 46.7705 76.2783 45.2338 82.6713ZM28.944 59.7566C25.7793 59.1426 26.3372 61.4232 25.8097 62.9144C28.7766 63.7658 28.4013 61.5367 28.944 59.7566ZM32.4839 46.8829C29.3548 46.1708 29.9938 48.5908 29.3548 49.9943C32.3166 50.9179 32.0528 48.7249 32.4839 46.8829ZM27.5899 56.4131C30.7494 57.3831 30.08 54.86 30.7596 53.4874C27.9094 52.4864 28.0869 54.5916 27.5899 56.4131ZM27.1283 66.4231C24.5469 65.9639 24.2883 66.2631 24.3491 69.5087C27.1486 70.1588 26.464 67.7285 27.1283 66.4231ZM25.4294 72.7077C22.2241 72.0008 22.7313 74.2815 22.2394 75.7933C25.2164 76.753 24.7092 74.364 25.4294 72.7077ZM30.9422 42.8737C33.7417 44.2514 33.9344 42.8892 33.9648 41.3567C33.7467 41.1194 33.5337 40.8872 33.3157 40.6498C32.5245 41.3928 31.7333 42.1359 30.9422 42.8737Z" fill="black"/>
</svg>
