<svg width="120" height="100" viewBox="0 0 120 100" fill="none" xmlns="http://www.w3.org/2000/svg">
<rect width="120" height="100" fill="white"/>
<g clip-path="url(#clip0_11_101)">
<path d="M53.6112 88C52.6937 87.6234 52.4316 86.889 52.4316 85.9663C52.4503 79.3754 52.4316 72.7846 52.4316 66.1937C52.4316 64.9509 52.8997 64.2918 53.7985 64.2164C54.6036 64.16 55.259 64.6684 55.3713 65.4781C55.4088 65.7794 55.4088 66.0807 55.4088 66.382C55.4088 72.2385 55.4088 78.1137 55.4088 83.9702C55.4088 84.2715 55.4088 84.5728 55.4088 84.9306C56.2326 84.9306 57.0003 84.9306 57.8991 84.9306C57.8991 84.6669 57.8991 84.3845 57.8991 84.102C57.8991 76.193 57.8991 68.2651 57.8804 60.3561C57.8804 59.5275 58.105 58.8684 58.6668 58.247C60.0336 56.7029 60.9886 54.9516 61.232 52.8425C61.1009 53.0873 60.9511 53.3509 60.8201 53.5958C60.4268 54.4431 59.8464 54.8009 59.06 54.6315C58.311 54.4808 57.8991 53.897 57.8991 52.9555C57.8804 51.6562 57.8991 50.3568 57.8991 49.0386C57.8991 45.6491 57.974 42.2783 57.8616 38.8887C57.8055 37.3069 58.311 36.403 59.7902 35.7816C60.7452 35.3862 61.6439 34.6894 62.3929 33.955C63.7223 32.618 63.8347 30.9044 63.5725 29.0401C61.4941 29.831 59.397 30.4901 57.7306 32.0154C57.019 32.6745 56.2888 32.6933 55.6147 32.0342C53.967 30.4901 51.8699 29.831 49.8102 29.0401C49.1923 31.3563 50.0911 33.6914 52.1133 34.9907C52.8061 35.4427 53.5363 35.8193 54.2853 36.1582C55.053 36.516 55.4275 37.0621 55.4088 37.9095C55.39 40.1316 55.4088 42.3725 55.39 44.5945C55.39 45.5549 54.9594 46.1387 54.2291 46.2705C53.4614 46.4211 52.881 46.0822 52.4878 45.216C52.3567 44.9523 52.2069 44.7075 52.0758 44.4439C52.001 44.4815 51.9073 44.5192 51.8324 44.538C52.2444 45.5737 52.6189 46.6471 53.1057 47.6452C53.4053 48.2666 53.7798 48.9068 54.2853 49.3776C55.259 50.3192 55.5586 51.3925 55.4462 52.6919C55.3713 53.6334 55.4462 54.5938 55.4275 55.5542C55.4088 56.5711 54.8658 57.2113 54.0044 57.249C53.1431 57.2866 52.4878 56.6087 52.4503 55.5918C52.4129 54.6503 52.4129 53.6899 52.4503 52.7295C52.4691 52.1458 52.3005 51.6938 51.9448 51.2419C50.1473 49.001 49.0051 46.4965 48.8927 43.5777C48.874 42.8621 48.9489 42.1277 49.08 41.4121C49.3234 40.1881 50.1098 39.755 51.2894 40.1316C51.6452 40.2446 51.9822 40.3952 52.4503 40.5835C52.4503 39.9621 52.5065 39.3972 52.4316 38.8511C52.3942 38.6251 52.0758 38.418 51.8512 38.2861C50.2783 37.4199 48.874 36.3842 47.8816 34.8401C46.6084 32.844 46.6084 30.6219 46.8143 28.381C46.8518 28.0609 46.908 27.7408 46.9454 27.4206C47.1514 26.1778 47.3948 25.9142 48.5744 25.5752C48.668 24.0876 48.6868 22.5811 48.8553 21.0934C48.9489 20.2649 49.1923 19.4363 49.4919 18.6454C49.754 17.9298 50.2783 17.459 51.1396 17.4779C51.3269 17.4779 51.5703 17.2331 51.6826 17.0259C52.4316 15.7266 53.1057 14.3896 53.9295 13.1467C54.3977 12.4312 55.0904 11.8662 55.7645 11.3013C56.345 10.8305 57.0939 10.7929 57.6182 11.3013C58.4983 12.1675 59.3596 13.0714 60.0711 14.0695C60.7077 14.9545 61.1384 15.9902 61.6439 16.9694C61.8124 17.2896 61.9435 17.5155 62.3929 17.4967C63.2355 17.459 63.6661 18.0805 63.9657 18.7772C64.6398 20.4155 64.6585 22.148 64.7334 23.8616C64.7521 24.4077 64.7334 24.9538 64.7334 25.5752C66.0816 25.6882 66.4186 26.6109 66.456 27.7219C66.5122 29.1719 66.6995 30.6408 66.5122 32.0531C66.119 34.9907 64.2091 36.855 61.7188 38.1543C61.1009 38.4745 60.895 38.8511 60.9137 39.529C60.9511 42.5984 60.9324 45.6867 60.9324 48.8692C61.3818 48.6997 61.7563 48.549 62.1308 48.4172C63.2542 48.0594 64.0593 48.5114 64.3028 49.6789C64.8645 52.3529 64.2279 54.8386 62.9733 57.2113C62.5989 57.9081 62.2056 58.6425 61.6626 59.2074C61.026 59.9041 60.895 60.6385 60.895 61.5236C60.9137 69.6398 60.895 77.7559 60.9137 85.8721C60.9137 86.8137 60.6515 87.5292 59.7341 87.9059C57.7118 88 55.6709 88 53.6112 88ZM57.9553 20.9616C58.2736 20.6227 58.7417 20.1142 59.191 19.5869C59.2847 19.474 59.3596 19.1915 59.2847 19.0785C58.4983 17.5344 57.6931 15.9902 56.8692 14.4649C56.7382 14.4649 56.6258 14.4649 56.4948 14.4649C55.6896 15.9902 54.8658 17.5344 54.0793 19.0785C54.0232 19.1915 54.0419 19.4551 54.1168 19.5493C54.6036 20.1142 55.1092 20.6415 55.4275 20.9804C56.3637 20.9616 57.0752 20.9616 57.9553 20.9616ZM56.7007 24.5395C56.2701 25.5187 55.8956 26.2531 55.596 27.0252C55.1279 28.2492 54.9781 27.9103 56.1577 28.6635C56.6071 28.946 57.9365 28.5505 58.1238 28.0609C58.1612 27.9667 58.1238 27.8161 58.0863 27.7031C57.6557 26.7051 57.2063 25.7259 56.7007 24.5395ZM52.4129 26.7427C52.8248 25.82 53.2367 24.9161 53.63 23.9934C53.6861 23.8616 53.6861 23.6356 53.6112 23.5415C53.0682 22.8635 52.5065 22.2045 51.9448 21.5454C51.8512 21.5642 51.7575 21.583 51.6639 21.6019C51.6639 23.0142 51.6826 24.4265 51.6452 25.8388C51.6265 26.3849 51.7575 26.7239 52.4129 26.7427ZM61.7001 21.6395C61.6065 21.6207 61.4941 21.6019 61.4005 21.5642C60.8575 22.2045 60.3145 22.8447 59.7902 23.5038C59.7153 23.6168 59.6779 23.8428 59.7341 23.9557C60.1273 24.8973 60.5579 25.82 61.0447 26.8934C61.3069 26.6486 61.6814 26.4603 61.7001 26.2531C61.7375 24.7278 61.7001 23.1837 61.7001 21.6395Z" fill="black"/>
<path d="M36.1228 88C35.2802 87.5481 35.0368 86.8137 35.0555 85.8721C35.0929 83.763 35.0555 81.6728 35.0742 79.5637C35.0929 78.415 35.8045 77.7748 36.8156 77.9254C37.5833 78.0384 38.0514 78.6598 38.0514 79.639C38.0701 81.3903 38.0514 83.1416 38.0514 84.9494C38.6505 84.9494 39.1935 84.9494 39.8489 84.9494C39.8489 84.6858 39.8489 84.4221 39.8489 84.1397C39.8489 81.1832 39.8863 78.2267 39.8302 75.2703C39.8114 74.1216 40.111 73.2177 40.86 72.3326C41.5528 71.5417 42.0209 70.5625 42.4515 69.5645C42.1707 69.6774 41.8898 69.8469 41.5902 69.9222C40.7102 70.1106 39.8676 69.395 39.8676 68.3969C39.8489 63.8963 39.8489 59.3769 39.8676 54.8763C39.8676 54.1984 40.2421 53.7652 40.8225 53.4639C41.4217 53.1626 42.0209 52.8614 42.6013 52.5224C44.4363 51.4302 45.1291 49.7919 44.867 47.5698C43.1818 48.1348 41.5528 48.6997 40.2234 49.8672C39.2497 50.7334 38.6505 50.7523 37.6956 49.8861C36.3662 48.6997 34.6997 48.1536 33.052 47.5698C32.6962 50.0555 33.5763 51.8633 36.0104 52.9178C37.6394 53.6146 38.2199 54.5938 38.0701 56.3074C37.939 57.7951 38.0514 59.3204 38.0326 60.808C38.0139 62.4652 36.9092 63.1054 35.3176 62.4087C35.8793 63.2937 36.3287 64.2541 37.0028 65.0262C37.7705 65.9112 38.1824 66.834 38.0514 68.0203C37.9765 68.6982 38.0514 69.3761 38.0326 70.0541C37.9952 71.0521 37.396 71.6735 36.5347 71.6735C35.6547 71.6735 34.9993 71.0333 35.0742 70.0352C35.224 68.3593 34.7559 67.0034 33.7635 65.6288C32.2656 63.5197 31.5915 61.0717 32.0409 58.4542C32.303 56.8912 33.052 56.5146 34.5499 57.0418C34.681 57.0983 34.8308 57.136 34.9806 57.1737C35.2053 55.9873 35.2053 55.9873 34.2129 55.4224C30.7115 53.3698 29.4569 50.3757 30.2246 45.988C30.3557 45.1783 30.5617 44.4816 31.4604 44.1991C31.6102 44.1614 31.6851 43.766 31.7038 43.5212C31.8536 42.0712 31.8911 40.6212 32.1345 39.19C32.3217 38.1355 32.715 37.0621 34.1005 37.0056C34.2316 37.0056 34.3814 36.7043 34.4938 36.5349C35.224 35.3109 35.9542 34.1057 36.6845 32.8816C36.7594 32.7498 36.8717 32.6557 36.9654 32.5427C38.3509 30.9797 39.5867 30.9232 40.86 32.5427C41.8149 33.7667 42.5452 35.1979 43.369 36.516C43.5001 36.7232 43.7061 37.0056 43.8933 37.0056C44.7733 37.081 45.3351 37.6082 45.4849 38.3803C45.7845 39.9433 45.9717 41.5251 46.1402 43.1069C46.1964 43.6718 46.084 44.1991 46.8517 44.4251C47.1513 44.5192 47.4509 44.99 47.5258 45.3289C47.8628 46.9108 48.0126 48.4926 47.6943 50.0932C47.2075 52.6354 45.5972 54.2925 43.4252 55.4789C42.9758 55.7237 42.7886 55.9873 42.7886 56.5146C42.826 59.1132 42.8073 61.7119 42.8073 64.4424C43.1069 64.3483 43.3316 64.2729 43.5563 64.1976C44.7546 63.7833 45.5598 64.2541 45.8032 65.5158C46.2526 67.8132 45.6908 69.9411 44.661 71.9748C44.3427 72.6151 43.9682 73.2742 43.5001 73.8014C42.9384 74.4229 42.7886 75.1008 42.7886 75.9105C42.826 79.2624 42.7886 82.6332 42.8073 85.9851C42.8073 86.9455 42.5264 87.6422 41.609 88C39.8114 88 37.9765 88 36.1228 88ZM39.0999 34.8966C39.0063 34.9154 38.9127 34.9342 38.819 34.9342C38.3135 35.8193 37.7518 36.6855 37.3211 37.6082C36.647 39.0394 36.6283 38.531 37.602 39.6985C37.8641 40.0186 38.1263 40.2069 38.5382 39.9621C38.6693 39.8868 38.9127 39.8491 39.0437 39.9244C40.0174 40.3952 40.3919 39.5855 40.86 39.0394C40.9723 38.9076 41.0285 38.6063 40.9536 38.4556C40.3732 37.2504 39.7365 36.0641 39.0999 34.8966ZM37.8828 46.2705C38.9688 47.1179 39.025 47.1179 40.0361 46.2517C39.6991 45.4796 39.3808 44.7075 38.9501 43.7471C38.5195 44.7264 38.2011 45.4796 37.8828 46.2705ZM34.7933 44.99C34.887 45.0277 34.9806 45.0465 35.0742 45.0841C35.43 44.3121 35.9917 43.54 36.0479 42.7491C36.0853 42.2407 35.3551 41.6757 34.9619 41.1485C34.9057 41.1861 34.8495 41.2238 34.7933 41.2614C34.7933 42.4855 34.7933 43.7283 34.7933 44.99ZM43.1818 41.1296C41.7775 42.1842 41.6839 42.5043 42.2643 43.8225C42.3766 44.1049 42.4703 44.3874 42.6201 44.651C42.695 44.8017 42.8822 44.877 43.0133 45.0088C43.0694 44.8582 43.1818 44.7075 43.1818 44.5569C43.1818 43.4458 43.1818 42.3536 43.1818 41.1296Z" fill="black"/>
<path d="M72.6163 39.6985C73.3091 38.3991 72.8971 37.5894 71.8486 36.6855C68.6467 33.9738 68.2535 30.4713 69.5268 26.6486C69.6391 26.3096 69.7702 25.9895 69.8825 25.6694C70.2945 24.5395 70.6128 24.2947 71.8111 24.2194C72.1107 22.9765 72.3728 21.696 72.7661 20.472C73.0469 19.5493 73.4589 18.6454 73.927 17.798C74.3389 17.0448 74.9755 16.5363 75.9679 16.8C76.1177 16.8376 76.4173 16.574 76.5671 16.4045C77.7467 15.124 78.814 13.7117 80.1059 12.563C82.0533 10.8494 83.364 11.113 84.5061 13.448C85.2738 15.011 85.7419 16.7058 86.3037 18.3629C86.416 18.7207 86.5096 18.909 86.9216 19.0597C87.3522 19.2292 87.8765 19.6246 88.0076 20.0389C88.251 20.8486 88.4008 21.7525 88.3446 22.6187C88.251 24.2194 87.9701 25.8012 87.7642 27.4583C88.9625 27.8161 89.0936 28.7953 88.9438 29.9252C88.8127 30.9232 88.7565 31.9213 88.5506 32.9005C87.8016 36.29 85.536 38.2108 82.3529 39.1524C81.6039 39.3783 81.2856 39.7173 81.1545 40.4894C80.649 43.2952 80.0685 46.0822 79.5068 48.888C79.4693 49.0763 79.4693 49.2646 79.4506 49.5282C79.9187 49.4529 80.3306 49.3776 80.7426 49.3399C81.9222 49.2458 82.5775 49.8484 82.5588 51.0536C82.5401 53.4074 81.735 55.5353 80.3306 57.3808C79.5442 58.3977 78.5518 59.2639 77.6905 60.2243C77.4284 60.5256 77.1662 60.8833 77.0913 61.26C75.4436 69.4703 73.8146 77.6994 72.1669 85.9098C71.9047 87.2656 71.2681 87.6799 69.9387 87.4162C68.3846 87.0961 66.8118 86.7948 65.2576 86.4747C64.078 86.2299 63.6099 85.5331 63.8346 84.3656C65.1266 77.8689 66.4185 71.3534 67.7105 64.8567C67.7667 64.5931 67.8229 64.3106 67.9165 64.0658C68.1973 63.3125 68.9089 62.9171 69.6204 63.0866C70.3881 63.2749 70.8936 63.9716 70.7438 64.8002C70.5191 66.1372 70.2383 67.4554 69.9761 68.7735C69.0025 73.6508 68.0288 78.5468 67.0739 83.4241C67.0552 83.4994 67.0739 83.5747 67.0552 83.763C67.8041 83.9325 68.5718 84.0832 69.4144 84.2715C69.7327 82.7461 70.0323 81.2585 70.3319 79.7709C71.6426 73.1423 72.9533 66.5138 74.2453 59.8853C74.3763 59.1697 74.7321 58.6613 75.3125 58.2282C76.6607 57.2113 77.8029 55.9873 78.608 54.4808C78.7765 54.1607 78.9076 53.8217 78.9263 53.4074C78.7204 53.6711 78.5144 53.9347 78.3084 54.1983C77.8216 54.8198 77.2037 55.0081 76.5296 54.7444C75.8368 54.462 75.4811 53.7841 75.6496 52.9555C76.0802 50.7146 76.5296 48.4925 76.9603 46.2517C77.4846 43.5776 78.0463 40.9036 78.5518 38.2296C78.7204 37.3258 79.1885 36.8173 80.0685 36.6102C81.5852 36.2712 83.0644 35.8381 84.2253 34.7082C85.3862 33.5784 85.7607 32.1472 85.8917 30.4901C83.6823 30.8667 81.529 31.0739 79.6378 32.2602C78.814 32.7686 78.0463 32.7122 77.522 31.9777C76.2113 30.0758 74.2453 29.0401 72.3916 27.8349C71.2868 29.718 71.7549 32.4674 73.4776 34.1245C74.058 34.6894 74.7134 35.2167 75.3687 35.7063C76.0615 36.2147 76.3237 36.8361 76.1551 37.6647C75.7058 39.8679 75.2751 42.09 74.8257 44.2932C74.6385 45.1971 74.0767 45.6679 73.2903 45.6491C72.5414 45.6302 72.0358 45.1595 71.8298 44.2932C71.7549 44.0108 71.68 43.7283 71.5677 43.2952C71.343 44.3497 71.6052 45.988 72.2043 47.4945C72.3916 47.9653 72.5601 48.4549 72.841 48.8503C73.5337 49.8295 73.6274 50.8464 73.3278 51.9763C73.0656 52.9367 72.9346 53.9347 72.7286 54.9139C72.5226 55.9308 71.7924 56.5334 70.9873 56.3827C70.051 56.2133 69.508 55.3847 69.8076 54.3113C70.3881 52.2399 70.3881 50.3568 69.377 48.2854C68.1412 45.762 68.085 42.9562 69.0399 40.2257C69.6017 38.6063 70.5379 38.3238 71.9796 39.2465C72.2043 39.416 72.4103 39.5666 72.6163 39.6985ZM82.1469 14.9169C82.0345 14.898 81.9222 14.8792 81.8286 14.8604C80.9485 15.8772 80.1247 16.9129 79.2072 17.8921C78.4582 18.6831 78.2335 19.4363 79.0574 20.3214C79.2821 20.5662 79.4131 20.9051 79.6004 21.2441C80.4055 20.9428 81.1358 20.9993 81.6975 21.6772C82.3154 21.2252 82.8771 20.8298 83.4201 20.3967C83.5512 20.3025 83.6635 20.0577 83.6261 19.9071C83.1393 18.2311 82.6337 16.574 82.1469 14.9169ZM80.8175 28.4563C80.5553 27.2888 80.2932 26.159 80.0311 25.0103C79.9562 25.0103 79.8813 24.9914 79.8251 24.9914C79.151 25.9518 78.4769 26.9122 77.8029 27.8726C79.4319 29.3791 78.7578 29.2472 80.8175 28.4563ZM75.3687 26.0648C75.9492 25.2551 76.5483 24.4265 77.1101 23.5791C77.185 23.4661 77.2037 23.2402 77.1288 23.1083C76.7356 22.3363 76.3049 21.583 75.8743 20.8298C75.7994 20.8298 75.7245 20.8486 75.6496 20.8486C75.35 22.2609 75.0879 23.6544 74.7508 25.0668C74.6385 25.6505 74.7883 25.933 75.3687 26.0648ZM84.5998 27.6843C84.8806 26.046 85.1615 24.4642 85.4423 22.8824C85.3675 22.8447 85.2926 22.807 85.2177 22.7694C84.5436 23.2966 83.8695 23.8239 83.2142 24.3888C83.1205 24.483 83.0644 24.709 83.1018 24.8408C83.3078 25.82 83.5325 26.7804 83.7759 27.7784C84.0193 27.7596 84.244 27.7219 84.5998 27.6843Z" fill="black"/>
<path d="M36.5348 76.8709C35.7484 76.8521 35.0743 76.1553 35.093 75.3456C35.093 74.4982 35.8046 73.8203 36.6471 73.8579C37.4336 73.8956 38.0889 74.6112 38.0702 75.4021C38.014 76.2118 37.3025 76.8897 36.5348 76.8709Z" fill="black"/>
<path d="M55.4275 59.9795C55.4275 60.808 54.7535 61.4671 53.967 61.4671C53.1806 61.4671 52.4878 60.7892 52.4691 59.9795C52.4504 59.1509 53.1806 58.4353 53.9858 58.4542C54.7909 58.473 55.4275 59.1509 55.4275 59.9795Z" fill="black"/>
<path d="M68.9651 58.9626C68.9651 58.1152 69.5643 57.4749 70.4069 57.4749C71.2494 57.4561 71.8673 58.0775 71.8861 58.9249C71.9048 59.8099 71.2494 60.4879 70.4256 60.4879C69.6204 60.469 68.9651 59.7911 68.9651 58.9626Z" fill="black"/>
</g>
<defs>
<clipPath id="clip0_11_101">
<rect width="59" height="77" fill="white" transform="translate(30 11)"/>
</clipPath>
</defs>
</svg>
