<svg width="120" height="100" viewBox="0 0 120 100" fill="none" xmlns="http://www.w3.org/2000/svg">
<rect width="120" height="100" fill="white"/>
<path d="M12.1715 24.612C12.4227 24.0904 12.9172 23.73 13.4888 23.6519L22.7512 22.3884C23.9477 22.2253 24.9095 21.3597 25.2024 20.1836C25.3182 19.7184 25.621 19.3226 26.0387 19.0906C26.3686 18.9074 34.193 14.6502 40.7884 18.8344C46.33 22.35 51.7475 32.5243 52.9492 34.8778C55.8679 36.5355 63.0888 39.9306 67.7307 39.1716C73.0352 38.3042 79.0567 35.9872 87.3167 35.0313C90.9574 34.6096 94.5766 35.1388 97.7831 36.5611C100.004 37.5462 101.796 38.8205 103.14 40.3678C103.714 40.8572 105.666 42.6372 107.156 45.3874C109.498 49.7098 109.611 54.3564 107.484 58.8251C106.605 60.6717 106.226 62.4934 106.357 64.2398C106.429 65.1913 105.719 66.0212 104.771 66.0931C104.727 66.0965 104.683 66.0981 104.64 66.0981C103.749 66.0981 102.995 65.4076 102.926 64.5004C102.749 62.1437 103.238 59.7326 104.38 57.334C105.348 55.2992 105.642 53.4092 105.532 51.7112C104.988 54.6347 103.787 58.2717 101.551 62.7823C101.044 63.8064 101.21 65.0174 101.974 65.8675L104.15 68.2869C104.669 68.8638 104.74 69.7185 104.324 70.3742C103.128 72.2598 100.048 77.883 100.158 81.2145C100.173 81.6824 99.9994 82.1367 99.6752 82.4733C99.3511 82.8099 98.905 83 98.4386 83H91.401C90.4053 83 89.476 82.6037 88.7847 81.884C88.0933 81.1642 87.7323 80.2175 87.7678 79.2181C87.8474 76.9893 89.6488 75.2434 91.8692 75.2434H92.3536L94.3871 71.364C94.8245 70.353 94.586 69.172 93.7863 68.4124C91.7591 66.4861 89.9451 64.3511 88.3677 62.0527C85.2513 62.3096 88.9515 63.3302 80.6683 66.3103C78.5435 67.0748 76.7523 67.748 75.1716 68.3419C69.7809 70.3676 66.9694 71.4239 63.1479 71.4838C62.7376 74.974 62.032 78.1399 61.5586 80.0249C61.1188 81.7766 59.5551 83 57.7554 83H52.2179C50.2251 83 48.5623 81.4992 48.3503 79.5093C48.1191 77.3415 49.6223 75.3616 51.7725 75.0017C52.2744 74.9176 52.7382 74.8213 53.1609 74.7137C53.2146 73.6843 53.0857 72.2667 52.8765 70.8541C44.6869 67.9397 38.3744 61.2131 35.9697 52.8183L33.3413 43.6408C31.3184 42.1794 29.7301 40.2086 28.7273 37.9056L27.9804 36.1913C27.6643 35.4655 26.9273 35.002 26.1346 35.0391L24.2888 35.1248C20.2072 35.3137 16.3653 33.2353 14.2783 29.6988L12.2405 26.2448C11.9462 25.7466 11.9205 25.1333 12.1715 24.612ZM17.2381 27.9372C18.6744 30.3718 21.3119 31.803 24.1298 31.6728L25.9756 31.5871C28.1779 31.4862 30.249 32.7792 31.1321 34.8064L31.879 36.5207C32.4036 37.7252 33.1429 38.8072 34.0549 39.7253C33.8714 38.7452 33.94 37.7163 34.2854 36.7359C34.8472 35.1423 35.5052 33.7374 36.034 32.6084C36.3292 31.9779 36.5843 31.4334 36.7347 31.0408C37.0898 30.114 36.4081 28.7272 36.14 28.3125C35.6186 27.5193 35.8333 26.4507 36.6217 25.9229C37.4119 25.3935 38.4803 25.6082 39.0072 26.4021C39.2143 26.7141 41.0001 29.5297 39.9461 32.2817C39.7509 32.7911 39.4712 33.3883 39.1476 34.0797C38.6512 35.1395 38.0337 36.4581 37.5288 37.8895C37.2387 38.7125 37.4176 39.5854 38.0069 40.2243C38.5829 40.8484 39.4144 41.0885 40.2294 40.8669C41.3086 40.5736 44.8218 39.3451 44.7257 35.8563C44.6993 34.9022 45.4478 34.1076 46.3976 34.0811C47.3505 34.0572 48.1386 34.8064 48.165 35.7604C48.2753 39.7578 45.5794 42.9925 41.1283 44.2027C40.6356 44.3368 40.1355 44.402 39.6403 44.402C38.6953 44.402 37.7683 44.1629 36.9412 43.7111L39.276 51.8635C41.1755 58.4954 45.8712 63.9336 52.0464 66.79C51.9287 66.3686 51.817 66.0313 51.7206 65.8168C51.2789 65.3047 51.1614 64.5559 51.4819 63.9119C51.9071 63.0581 52.9398 62.7121 53.7901 63.139C54.3198 63.4048 55.1201 63.8066 56.0709 69.0806C56.4115 70.9696 56.9028 74.4441 56.3668 76.4905C56.2222 77.042 55.8165 77.4862 55.2818 77.6779C54.4468 77.9774 53.4564 78.2242 52.3377 78.4115C51.9826 78.4709 51.7339 78.7919 51.7711 79.1421C51.7957 79.3718 51.9876 79.545 52.2177 79.545H57.7552C57.9763 79.545 58.1683 79.3955 58.222 79.181C58.973 76.19 61.2636 65.9938 59.2049 60.3655C58.8771 59.4697 59.3345 58.4767 60.2265 58.1477C61.1195 57.8183 62.107 58.2781 62.4346 59.1739C63.362 61.7098 63.5767 64.8701 63.4349 68.0178C66.5274 67.9012 69.0171 66.9656 73.9655 65.1061C75.5568 64.5082 77.3601 63.8306 79.5074 63.0579C87.0322 60.3505 81.9235 59.2045 86.2989 58.7682C83.5383 54.1228 83.4624 53.2076 83.4195 52.6939C83.3406 51.743 84.0443 50.9076 84.9912 50.8284C85.9259 50.75 86.7476 51.4371 86.845 52.369C86.8829 52.5358 87.232 53.7247 90.1839 58.5366C91.84 61.2359 93.8476 63.7143 96.1508 65.9028C98.0281 67.6862 98.571 70.4722 97.5019 72.8348C97.4879 72.8652 97.4734 72.8954 97.458 72.9249L94.9144 77.7772C94.6167 78.3447 94.0306 78.7002 93.392 78.7002H91.8689C91.5102 78.7002 91.2189 78.9824 91.206 79.3427C91.204 79.3978 91.2223 79.4457 91.2604 79.4854C91.2985 79.525 91.3457 79.5452 91.4006 79.5452H96.8277C97.3528 75.8615 99.5681 71.6656 100.738 69.6501L99.4206 68.185C97.701 66.273 97.3282 63.5479 98.4708 61.2431C102.052 54.0179 103.305 48.0217 101.907 44.7921C100.974 42.6374 99.119 40.9321 96.393 39.7232C93.7457 38.5491 90.7427 38.1144 87.71 38.4653C81.2842 39.209 73.663 41.7037 68.2833 42.5833C67.6459 42.6877 66.9859 42.7351 66.3109 42.7351C59.4595 42.7349 51.1495 37.8312 50.7657 37.6022C50.4797 37.4317 50.2489 37.1813 50.1014 36.8818C50.0439 36.7647 44.2823 25.1396 38.9506 21.7572C34.9495 19.2194 29.9545 21.0805 28.28 21.8362C28.2642 21.8765 28.2453 21.9152 28.2286 21.9551L29.7531 22.5126C30.646 22.8391 31.1062 23.8307 30.7812 24.7274C30.5268 25.4292 29.8673 25.8646 29.1642 25.8646C28.9688 25.8646 28.7702 25.831 28.5761 25.7598L25.9144 24.7864C25.123 25.3193 24.206 25.6782 23.2137 25.8135L16.5226 26.7263L17.2381 27.9372Z" fill="black"/>
</svg>
