<svg width="120" height="100" viewBox="0 0 120 100" fill="none" xmlns="http://www.w3.org/2000/svg">
<rect width="120" height="100" fill="white"/>
<path d="M106.079 81.1242C104.771 76.5467 99.6497 67.5879 98.7543 66.0393C98.4912 64.7568 97.1859 59.1191 93.3548 52.1827C89.4656 45.1416 82.1256 35.4098 69.1943 28.7762C67.6843 24.7379 69.9104 22.8559 72.7507 20.9966C73.3634 20.5954 73.8477 20.2785 74.2081 19.9181C74.5946 19.5316 74.7351 18.9624 74.5724 18.4405C74.4102 17.9185 73.9715 17.5296 73.4339 17.4305C66.2654 16.1097 60.9871 18.0778 57.8229 19.9613C55.4355 21.3823 53.863 22.9641 53.0955 23.8387C48.2771 23.3539 43.5315 23.7765 38.9834 25.1265C28.7594 28.1613 22.9127 34.6492 20.8736 37.2978C19.0302 39.6924 17.9935 42.5698 17.8759 45.6186L17.8746 45.6537C17.831 46.8987 17.4559 48.0924 16.7898 49.1056C12.849 55.0978 13.8025 58.1363 15.2965 59.6304C18.0994 62.433 22.1958 59.5238 25.4872 57.1859C27.1594 55.9984 28.8887 54.7704 29.9721 54.5583C30.3504 54.4843 30.8116 54.3766 31.3955 54.24C32.7563 53.9222 34.732 53.4615 37.2522 53.0703C37.7966 53.7372 38.7496 54.8577 39.9116 56.0262C42.4487 58.577 44.6796 60.0422 46.5429 60.3808C46.6304 60.3967 46.7187 60.4046 46.8062 60.4046C47.148 60.4046 47.4823 60.2855 47.7491 60.0628C48.0842 59.7832 48.2777 59.3694 48.2777 58.9331C48.2777 57.4985 48.1143 54.2628 48.0085 52.3224C48.7631 52.3328 49.5375 52.3567 50.3307 52.3952C51.5677 53.5345 52.8752 54.4366 53.8624 55.0484C57.0493 57.0233 60.6801 58.3504 62.8967 58.3504C63.6429 58.3504 64.2709 57.7918 64.358 57.0508C64.4449 56.3125 64.4068 55.5381 64.2505 54.7307C72.5573 57.1761 80.4419 61.4789 87.7416 67.5524C86.2057 69.0641 84.4078 71.0461 82.9761 73.2335C81.0357 76.1978 80.2417 78.8398 80.6161 81.0859C80.6895 81.5254 80.9577 81.908 81.3461 82.1263C81.7344 82.3447 82.2006 82.3755 82.6142 82.2101C83.2694 81.9482 83.9783 81.5373 84.7992 81.0616C88.7687 78.7616 94.7676 75.2851 103.729 82.6645C103.999 82.8872 104.331 83 104.664 83C104.944 83 105.225 82.9203 105.471 82.7593C106.009 82.4061 106.256 81.7436 106.079 81.1242ZM68.8388 19.9422C68.9445 19.9422 69.0501 19.943 69.1572 19.9448C68.3539 20.5987 67.5454 21.4017 66.9233 22.3927C66.0125 23.8436 65.6415 25.4465 65.8097 27.1827C62.787 25.896 59.7505 24.9598 56.7301 24.3739C58.8598 22.5187 62.8869 19.9422 68.8388 19.9422ZM40.739 52.6267C42.0771 52.4943 43.5201 52.3944 45.0622 52.3463C45.1262 53.5184 45.2152 55.2289 45.2739 56.6919C43.7848 55.7486 42.1061 54.1423 40.739 52.6267ZM83.749 78.2691C84.5632 75.5659 87.1196 72.0746 90.9364 68.576C91.2457 68.2925 91.4191 67.8905 91.4134 67.471C91.4077 67.0515 91.2231 66.6544 90.9062 66.3795C82.3365 58.9456 72.9444 53.8861 62.9807 51.3302C62.2579 49.9784 61.2644 48.5558 59.9938 47.0655C57.7081 44.3841 55.3659 42.4664 55.2672 42.386C54.637 41.8726 53.7102 41.9671 53.1969 42.5973C52.6837 43.2273 52.7782 44.1541 53.4082 44.6676C53.4302 44.6854 55.64 46.4948 57.754 48.9749C59.7595 51.3275 60.976 53.4364 61.3432 55.1745C59.7621 54.7815 57.5876 53.8949 55.4122 52.5467C52.2269 50.5727 50.1094 48.278 49.6026 46.2513C49.4054 45.4628 48.6063 44.9831 47.8182 45.1806C47.0297 45.3776 46.5504 46.1767 46.7475 46.9651C46.9602 47.8158 47.324 48.6217 47.7846 49.3765C39.6407 49.2945 33.7387 50.6704 30.7259 51.3742C30.1706 51.5039 29.7323 51.6063 29.4063 51.6701C27.7009 52.004 25.7976 53.3556 23.7827 54.7864C21.3941 56.4828 18.422 58.594 17.3768 57.5493C16.4025 56.575 17.1194 53.9591 19.2481 50.7226C20.2109 49.2584 20.7528 47.5413 20.815 45.763L20.8162 45.7325C20.9099 43.2969 21.7359 41.0012 23.2049 39.0934C25.0691 36.6718 30.4204 30.7382 39.8202 27.9481C48.6391 25.3304 57.909 26.4071 67.373 31.1486C79.899 37.4248 86.9839 46.7696 90.7216 53.5039C94.7925 60.8382 95.8985 66.7668 95.9087 66.8243C95.9391 66.9942 95.9993 67.1577 96.0862 67.3068C96.1296 67.3809 99.3258 72.8723 101.509 77.5669C93.4007 73.0489 87.3592 76.1912 83.749 78.2691Z" fill="black"/>
<path d="M49.166 28.59C46.7224 28.5431 44.2825 28.7503 41.9136 29.2059C41.1155 29.3593 40.593 30.1307 40.7464 30.9287C40.8818 31.6328 41.4985 32.1225 42.1899 32.1225C42.2821 32.1225 42.3755 32.1139 42.4692 32.0958C44.6368 31.6789 46.8703 31.4898 49.1097 31.5324C49.9175 31.5453 50.5936 30.9018 50.6091 30.0893C50.6246 29.2769 49.9785 28.6055 49.166 28.59Z" fill="black"/>
<path d="M66.2344 32.8771C62.6036 31.1338 58.9259 29.9056 55.3033 29.2268C54.5048 29.0773 53.7357 29.6033 53.586 30.402C53.4363 31.2007 53.9625 31.9696 54.7612 32.1193C58.1305 32.7507 61.5622 33.8983 64.9607 35.53C76.4127 41.0292 82.8796 49.2171 86.2879 55.1176C86.5606 55.5894 87.0548 55.8533 87.5634 55.8533C87.8129 55.8533 88.0662 55.7895 88.298 55.6557C89.0017 55.2492 89.2426 54.3493 88.8361 53.6455C85.2202 47.386 78.3639 38.7016 66.2344 32.8771Z" fill="black"/>
<path d="M25.6163 46.9762C26.5065 46.9762 27.2281 46.2546 27.2281 45.3644C27.2281 44.4743 26.5065 43.7527 25.6163 43.7527C24.7262 43.7527 24.0046 44.4743 24.0046 45.3644C24.0046 46.2546 24.7262 46.9762 25.6163 46.9762Z" fill="black"/>
</svg>
