<svg width="120" height="100" viewBox="0 0 120 100" fill="none" xmlns="http://www.w3.org/2000/svg">
<rect width="120" height="100" fill="white"/>
<path d="M43.4106 45.6409L37.7116 47.1828C37.008 47.3729 36.5921 48.0976 36.7822 48.8013C36.942 49.3901 37.474 49.7769 38.0561 49.7769C38.1697 49.7769 38.2858 49.7623 38.402 49.7307L44.101 48.1887C44.8047 47.9986 45.2205 47.2739 45.0304 46.5703C44.8403 45.8653 44.1129 45.4415 43.4106 45.6409Z" fill="black"/>
<path d="M59.3657 57.0892L55.4053 55.7691C54.7122 55.5354 53.9664 55.9116 53.7353 56.6034C53.5043 57.2951 53.8779 58.0437 54.5697 58.2734L58.53 59.5935C58.6687 59.6397 58.8099 59.6621 58.9472 59.6621C59.5003 59.6621 60.0152 59.3123 60.2 58.7592C60.431 58.0674 60.0574 57.3189 59.3657 57.0892Z" fill="black"/>
<path d="M84.4706 42.2744C83.7419 42.2744 83.1505 42.8645 83.1505 43.5945V48.8751C83.1505 49.6051 83.7419 50.1952 84.4706 50.1952C85.1993 50.1952 85.7908 49.6051 85.7908 48.8751V43.5945C85.7908 42.8645 85.1993 42.2744 84.4706 42.2744Z" fill="black"/>
<path d="M52.3425 28.1187C52.6026 28.4092 52.963 28.557 53.3247 28.557C53.6389 28.557 53.9544 28.4448 54.2066 28.2191C54.7491 27.7319 54.7927 26.8963 54.3056 26.355L51.5148 23.2488C51.0277 22.7075 50.1934 22.6626 49.6508 23.1484C49.1082 23.6356 49.0647 24.4712 49.5518 25.0125L52.3425 28.1187Z" fill="black"/>
<path d="M83.041 35.0759L87.0013 36.396C87.14 36.4422 87.2812 36.4647 87.4185 36.4647C87.9716 36.4647 88.4865 36.1148 88.6713 35.5617C88.9023 34.8699 88.5287 34.1214 87.837 33.8917L83.8766 32.5716C83.1835 32.3366 82.4376 32.7142 82.2066 33.4059C81.9756 34.099 82.3492 34.8475 83.041 35.0759Z" fill="black"/>
<path d="M69.2032 51.4467C68.46 51.3926 67.8501 51.9576 67.8065 52.685L67.6956 54.5477C67.652 55.2764 68.2065 55.9008 68.9339 55.9444C68.9616 55.9457 68.988 55.947 69.0144 55.947C69.7075 55.947 70.2897 55.4071 70.3306 54.7061L70.4415 52.8434C70.485 52.1147 69.9306 51.4889 69.2032 51.4467Z" fill="black"/>
<path d="M78.4772 58.6152C78.7346 58.8726 79.0726 59.002 79.4105 59.002C79.7485 59.002 80.0864 58.8726 80.3438 58.6152C80.86 58.099 80.86 57.2647 80.3438 56.7485L79.0237 55.4284C78.5075 54.9122 77.6732 54.9122 77.157 55.4284C76.6409 55.9446 76.6409 56.7789 77.157 57.2951L78.4772 58.6152Z" fill="black"/>
<path d="M41.8396 56.0871C41.3234 55.5709 40.4891 55.5709 39.9729 56.0871C39.4568 56.6033 39.4568 57.4376 39.9729 57.9537L41.2931 59.2739C41.5505 59.5313 41.8885 59.6607 42.2264 59.6607C42.5644 59.6607 42.9023 59.5313 43.1597 59.2739C43.6759 58.7577 43.6759 57.9234 43.1597 57.4072L41.8396 56.0871Z" fill="black"/>
<path d="M79.4488 29.9166C79.4686 29.9166 79.4884 29.9166 79.5082 29.9153C80.2369 29.8836 80.8006 29.2671 80.7689 28.5384L80.6871 26.6731C80.6554 25.943 80.0257 25.3754 79.3102 25.4124C78.5815 25.444 78.0178 26.0605 78.0495 26.7893L78.1313 28.6546C78.163 29.3635 78.7478 29.9166 79.4488 29.9166Z" fill="black"/>
<path d="M38.6791 36.8014C38.7861 36.8014 38.893 36.7882 39.0012 36.7618C39.7088 36.5849 40.1379 35.8681 39.9623 35.1618L38.6422 29.8813C38.4653 29.1724 37.7458 28.7447 37.0408 28.9202C36.3332 29.0971 35.9042 29.814 36.0798 30.5202L37.3999 35.8008C37.5491 36.4014 38.0877 36.8014 38.6791 36.8014Z" fill="black"/>
<path d="M31.9386 40.5478C31.4224 40.0316 30.5881 40.0316 30.0719 40.5478C29.5557 41.0639 29.5557 41.8983 30.0719 42.4144L31.392 43.7346C31.6495 43.992 31.9874 44.1214 32.3254 44.1214C32.6633 44.1214 33.0013 43.992 33.2587 43.7346C33.7749 43.2184 33.7749 42.3841 33.2587 41.8679L31.9386 40.5478Z" fill="black"/>
<path d="M69.4554 29.2568C69.7128 29.5142 70.0508 29.6436 70.3887 29.6436C70.7267 29.6436 71.0646 29.5142 71.3221 29.2568C71.8382 28.7406 71.8382 27.9063 71.3221 27.3901L70.0019 26.07C69.4858 25.5538 68.6514 25.5538 68.1353 26.07C67.6191 26.5862 67.6191 27.4205 68.1353 27.9367L69.4554 29.2568Z" fill="black"/>
<path d="M98.9947 46.87L98.9921 43.7241C98.9921 43.5525 98.9538 43.3888 98.8851 43.2383C98.8812 43.0772 98.864 42.9188 98.8561 42.7578C98.8455 42.5281 98.8337 42.297 98.8152 42.0686C98.7954 41.831 98.7677 41.5947 98.7386 41.3584C98.7109 41.1287 98.6845 40.899 98.6488 40.6719C98.6132 40.4396 98.5683 40.2099 98.5247 39.9789C98.4812 39.7492 98.4376 39.5208 98.3861 39.2937C98.3347 39.068 98.2752 38.8449 98.2172 38.6205C98.1578 38.3921 98.0984 38.165 98.031 37.9393C97.965 37.7188 97.8911 37.501 97.8172 37.2832C97.7419 37.0574 97.6667 36.8317 97.5835 36.6086C97.503 36.3947 97.4158 36.1822 97.3287 35.971C97.2376 35.7479 97.1465 35.5248 97.0475 35.3043C96.9538 35.0957 96.8521 34.8911 96.7518 34.6838C96.6449 34.4634 96.5393 34.2442 96.4244 34.0264C96.3175 33.8244 96.204 33.6251 96.0918 33.4257C95.969 33.2092 95.8488 32.9914 95.7181 32.7776C95.5993 32.5809 95.4726 32.3881 95.3472 32.1941C95.2099 31.9815 95.0752 31.7703 94.9314 31.5604C94.7993 31.369 94.6594 31.1815 94.5221 30.9927C94.3716 30.7868 94.2224 30.5795 94.064 30.3749C93.9215 30.1901 93.771 30.0106 93.6218 29.8284C93.4568 29.6251 93.2917 29.4231 93.1201 29.2238C92.967 29.0482 92.8073 28.8752 92.6488 28.701C92.468 28.5016 92.2884 28.3023 92.101 28.1082C91.9373 27.938 91.767 27.7729 91.598 27.6053C91.4053 27.4139 91.2139 27.2211 91.0145 27.0337C90.8389 26.8686 90.6554 26.7076 90.4746 26.5452C90.27 26.3617 90.068 26.1769 89.8568 25.996C89.6706 25.8376 89.4766 25.6832 89.2851 25.5274C89.0686 25.3505 88.8548 25.1723 88.6317 24.9993C88.435 24.8475 88.2317 24.6997 88.031 24.5505C87.8026 24.3815 87.5769 24.2112 87.3432 24.0462C87.136 23.8997 86.9221 23.7584 86.7096 23.6158C86.4719 23.4548 86.2356 23.2924 85.9927 23.1366C85.7776 22.998 85.5545 22.866 85.334 22.73C85.0845 22.5769 84.8363 22.4211 84.5815 22.2733C84.3558 22.1413 84.1234 22.0158 83.8924 21.8878C83.635 21.7439 83.3789 21.5987 83.1162 21.4587C82.8772 21.332 82.6317 21.2132 82.3888 21.0904C82.1248 20.9571 81.8634 20.8224 81.5941 20.6931C81.3459 20.5743 81.0911 20.462 80.8376 20.3472C80.5657 20.2231 80.2964 20.0977 80.0205 19.9789C79.7591 19.8667 79.4924 19.7624 79.2271 19.6541C78.9512 19.5419 78.6779 19.4257 78.3967 19.3175C78.1248 19.2132 77.8475 19.1168 77.5729 19.0165C77.2904 18.9135 77.0106 18.8079 76.7254 18.7102C76.4403 18.6139 76.1498 18.5241 75.862 18.4317C75.5782 18.3406 75.2983 18.2469 75.0119 18.1611C74.7162 18.0726 74.4139 17.9921 74.1142 17.9089C73.8264 17.8284 73.5413 17.7439 73.2495 17.6686C72.9432 17.5894 72.6317 17.5195 72.3215 17.4442C72.031 17.3743 71.7446 17.3017 71.4515 17.237C71.1267 17.1657 70.7967 17.1036 70.4693 17.0376C70.1842 16.9809 69.9016 16.9188 69.6139 16.866C69.2746 16.804 68.9287 16.7525 68.5868 16.697C68.3043 16.6508 68.0257 16.6007 67.7419 16.5597C67.3868 16.5083 67.0251 16.4673 66.666 16.4224C66.3888 16.3881 66.1142 16.3485 65.8356 16.3182C65.4475 16.2759 65.0528 16.2455 64.6607 16.2112C64.4073 16.1888 64.1551 16.1611 63.9003 16.1426C63.4436 16.1096 62.9815 16.0884 62.5195 16.0673C62.3241 16.0581 62.1314 16.0436 61.936 16.0356C61.2759 16.0119 60.6119 16 59.9439 16C38.4706 16 21 28.437 21 43.7228C21 44.8224 21.1017 52.3036 21.1017 52.3036C21.1017 52.3525 21.1135 52.3987 21.1162 52.4462L21.1228 56.1809C21.1228 71.402 38.1749 83.3267 59.9452 83.3267C81.4805 83.3267 99 70.9096 99 55.6449L98.9934 47.7914C98.9974 47.4746 98.9987 47.171 98.9947 46.87ZM96.2502 43.7254C96.2502 43.9683 96.266 44.3314 96.2871 44.7855C96.3109 45.3148 96.3452 46.0607 96.3545 46.9148V47.695C96.3307 50.235 96.0337 53.3809 94.7003 54.833C94.2409 55.3333 93.6997 55.5789 92.9987 55.6079C92.8442 55.5947 92.6858 55.5247 92.6053 55.4469C92.468 55.3148 92.3901 55.134 92.3901 54.9465C92.3901 54.2165 91.7987 53.6264 91.07 53.6264C90.3413 53.6264 89.7498 54.2165 89.7498 54.9465V58.9069C89.7498 59.2647 89.4475 59.567 89.0898 59.567C88.732 59.567 88.4297 59.2647 88.4297 58.9069C88.4297 58.1769 87.8383 57.5868 87.1096 57.5868C86.3809 57.5868 85.7894 58.1769 85.7894 58.9069V64.1875C85.7894 64.5452 85.4871 64.8475 85.1294 64.8475C84.7716 64.8475 84.4693 64.5452 84.4693 64.1875V62.8673C84.4693 62.1373 83.8779 61.5472 83.1492 61.5472C82.4205 61.5472 81.829 62.1373 81.829 62.8673C81.829 63.2251 81.5267 63.5274 81.169 63.5274C80.8112 63.5274 80.5089 63.2251 80.5089 62.8673C80.5089 62.1373 79.9175 61.5472 79.1888 61.5472C78.4601 61.5472 77.8686 62.1373 77.8686 62.8673V69.468C77.8686 69.8257 77.5663 70.128 77.2086 70.128C76.8508 70.128 76.5485 69.8257 76.5485 69.468V64.8475C76.5485 64.1175 75.9571 63.5274 75.2284 63.5274C74.4997 63.5274 73.9082 64.1175 73.9082 64.8475C73.9082 65.5762 73.3155 66.1677 72.5881 66.1677C71.8607 66.1677 71.268 65.5762 71.268 64.8475C71.268 64.1175 70.6766 63.5274 69.9479 63.5274C69.2191 63.5274 68.6277 64.1175 68.6277 64.8475V69.468C68.6277 69.8257 68.3254 70.128 67.9677 70.128C67.6099 70.128 67.3076 69.8257 67.3076 69.468V67.4878C67.3076 66.7578 66.7162 66.1677 65.9875 66.1677C65.2587 66.1677 64.6673 66.7578 64.6673 67.4878C64.6673 68.2165 64.0746 68.8079 63.3472 68.8079C62.6198 68.8079 62.0271 68.2165 62.0271 67.4878C62.0271 66.7578 61.4356 66.1677 60.7069 66.1677C59.9782 66.1677 59.3868 66.7578 59.3868 67.4878V72.7683C59.3868 73.497 58.7941 74.0884 58.0667 74.0884C57.3393 74.0884 56.7465 73.497 56.7465 72.7683V68.1479C56.7465 67.4178 56.1551 66.8277 55.4264 66.8277C54.6977 66.8277 54.1063 67.4178 54.1063 68.1479C54.1063 68.5056 53.804 68.8079 53.4462 68.8079C53.0885 68.8079 52.7861 68.5056 52.7861 68.1479C52.7861 67.4178 52.1947 66.8277 51.466 66.8277C50.7373 66.8277 50.1459 67.4178 50.1459 68.1479V70.128C50.1459 70.8568 49.5531 71.4482 48.8257 71.4482C48.0984 71.4482 47.5056 70.8568 47.5056 70.128V65.5076C47.5056 64.7776 46.9142 64.1875 46.1855 64.1875C45.4568 64.1875 44.8653 64.7776 44.8653 65.5076C44.8653 65.8653 44.563 66.1677 44.2053 66.1677C43.8475 66.1677 43.5452 65.8653 43.5452 65.5076C43.5452 64.7776 42.9538 64.1875 42.2251 64.1875C41.4964 64.1875 40.905 64.7776 40.905 65.5076V68.1479C40.905 68.5056 40.6026 68.8079 40.2449 68.8079C39.8871 68.8079 39.5848 68.5056 39.5848 68.1479V61.5472C39.5848 60.8172 38.9934 60.2271 38.2647 60.2271C37.536 60.2271 36.9446 60.8172 36.9446 61.5472C36.9446 61.9049 36.6422 62.2073 36.2845 62.2073C35.9267 62.2073 35.6244 61.9049 35.6244 61.5472C35.6244 60.8172 35.033 60.2271 34.3043 60.2271C33.5756 60.2271 32.9842 60.8172 32.9842 61.5472V64.1875C32.9842 64.5452 32.6818 64.8475 32.3241 64.8475C31.9663 64.8475 31.664 64.5452 31.664 64.1875V58.9069C31.664 58.1769 31.0726 57.5868 30.3439 57.5868C29.6152 57.5868 29.0238 58.1769 29.0238 58.9069C29.0238 59.2647 28.7215 59.567 28.3637 59.567C28.0059 59.567 27.7036 59.2647 27.7036 58.9069V52.5426C27.7036 52.2125 27.5584 51.8706 27.3353 51.6277C26.9855 51.2475 26.4442 51.1063 25.9518 51.266C25.4594 51.4271 25.1069 51.8614 25.0502 52.3776C25.0145 52.7089 24.7294 52.9677 24.4033 52.9677C24.0693 52.9677 23.7947 52.7023 23.7578 52.3617C23.7512 48.6983 23.7432 43.7267 23.7432 43.7267C23.7432 29.8957 39.9835 18.6442 59.9452 18.6442C79.965 18.6429 96.2502 29.8957 96.2502 43.7254ZM59.9465 80.6891C39.6574 80.6891 23.7644 69.9261 23.7644 56.1835C23.7644 56.1835 23.7644 55.938 23.763 55.5406C23.9703 55.5815 24.1842 55.6053 24.4033 55.6053C24.629 55.6053 24.8495 55.5815 25.0634 55.538V58.9056C25.0634 60.7261 26.5446 62.2059 28.3637 62.2059C28.5894 62.2059 28.8099 62.1822 29.0238 62.1399V64.1861C29.0238 66.0066 30.505 67.4865 32.3241 67.4865C33.9452 67.4865 35.297 66.3115 35.5729 64.7683C36.0152 64.8647 36.501 64.8673 36.9446 64.7802V68.1465C36.9446 69.967 38.4257 71.4469 40.2449 71.4469C41.866 71.4469 43.2178 70.2719 43.4937 68.7287C43.9347 68.8251 44.4218 68.829 44.8653 68.7406V70.1267C44.8653 72.3102 46.6422 74.0871 48.8257 74.0871C50.5881 74.0871 52.0851 72.9307 52.5974 71.336C53.0766 71.4653 53.6165 71.4785 54.1063 71.3809V72.767C54.1063 74.9505 55.8832 76.7274 58.0667 76.7274C60.2502 76.7274 62.0271 74.9505 62.0271 72.767V71.2211C62.9921 71.5617 64.1604 71.4944 65.0726 71.0508C65.6337 72.0713 66.7215 72.767 67.9677 72.767C69.7868 72.767 71.268 71.2871 71.268 69.4667V68.5809C72.0944 68.8726 73.0818 68.8726 73.9082 68.5809V69.4667C73.9082 71.2871 75.3894 72.767 77.2086 72.767C79.0277 72.767 80.5089 71.2871 80.5089 69.4667V66.1003C81.1109 66.2205 81.7776 66.1663 82.3413 65.9511C82.9274 66.8726 83.9584 67.4865 85.1294 67.4865C86.9485 67.4865 88.4297 66.0066 88.4297 64.1861V62.1399C88.6436 62.1822 88.864 62.2059 89.0898 62.2059C90.9089 62.2059 92.3901 60.7261 92.3901 58.9056V58.1914C92.6211 58.2363 92.8574 58.2482 93.103 58.2442C94.3584 58.1954 95.429 57.7333 96.3148 56.9148C95.3512 70.1373 79.4066 80.6891 59.9465 80.6891Z" fill="black"/>
<path d="M46.1868 42.4052C46.1868 43.324 46.4152 44.2481 46.8548 45.1564C46.8693 45.1933 46.8667 45.233 46.8851 45.2686C48.7888 49.0838 54.3439 51.6462 60.7096 51.6462C67.0752 51.6462 72.6303 49.0838 74.534 45.2686C74.5511 45.233 74.5498 45.1933 74.5643 45.1564C75.0039 44.2481 75.231 43.324 75.231 42.4052C75.231 37.2237 68.8521 33.1643 60.7096 33.1643C52.567 33.1643 46.1868 37.2237 46.1868 42.4052ZM50.0693 45.2858C50.101 45.2739 50.134 45.2646 50.1657 45.2528C50.868 44.9927 51.594 44.7656 52.336 44.561C52.4416 44.532 52.5445 44.499 52.6501 44.4712C53.3921 44.2759 54.1538 44.1135 54.9287 43.9749C55.0805 43.9471 55.231 43.9207 55.3841 43.8957C56.1604 43.7689 56.9485 43.666 57.7498 43.596C57.8805 43.5841 58.0138 43.5775 58.1445 43.5669C58.9894 43.5023 59.8435 43.4613 60.7096 43.4613C61.5742 43.4613 62.4284 43.5036 63.2746 43.5669C63.4066 43.5775 63.5386 43.5841 63.6693 43.596C64.4706 43.666 65.2587 43.7689 66.035 43.8957C66.1868 43.9207 66.3386 43.9471 66.4904 43.9749C67.264 44.1135 68.0257 44.2772 68.7676 44.4712C68.8746 44.499 68.9775 44.532 69.0832 44.561C69.8251 44.7656 70.5511 44.994 71.2521 45.2528C71.2838 45.2646 71.3168 45.2739 71.3485 45.2858C69.3525 47.5247 65.2468 49.0059 60.7096 49.0059C56.1696 49.0059 52.064 47.526 50.0693 45.2858ZM60.7082 35.8046C67.1478 35.8046 72.5894 38.8277 72.5894 42.4052C72.5894 42.5755 72.5762 42.7445 72.5485 42.9161C72.5379 42.9122 72.5261 42.9095 72.5155 42.9056C71.7076 42.5953 70.8693 42.3247 70.0138 42.0818C69.8871 42.0462 69.7617 42.0079 69.635 41.9735C68.8059 41.7504 67.9584 41.5603 67.0937 41.4019C66.9393 41.3742 66.7848 41.3478 66.6303 41.3214C65.7577 41.1735 64.8719 41.0547 63.9716 40.9729C63.8449 40.961 63.7168 40.9557 63.5888 40.9452C62.6396 40.8699 61.6812 40.8224 60.7096 40.8224C59.7393 40.8224 58.7808 40.8699 57.8317 40.9452C57.7036 40.9557 57.5756 40.961 57.4488 40.9729C56.5485 41.0547 55.664 41.1735 54.7914 41.3214C54.6356 41.3478 54.4812 41.3742 54.3254 41.4033C53.462 41.5617 52.6145 41.7518 51.7868 41.9749C51.6574 42.0092 51.5307 42.0488 51.4026 42.0844C50.5485 42.326 49.7129 42.5953 48.9063 42.9056C48.8944 42.9095 48.8825 42.9122 48.8706 42.9174C48.8429 42.7458 48.8297 42.5768 48.8297 42.4066C48.827 38.8277 54.2673 35.8046 60.7082 35.8046Z" fill="black"/>
</svg>
