<svg width="120" height="100" viewBox="0 0 120 100" fill="none" xmlns="http://www.w3.org/2000/svg">
<rect width="120" height="100" fill="white"/>
<path d="M84.2171 13H35.3509C34.6048 13 34 13.6048 34 14.3509V87.6491C34 88.3955 34.6045 89 35.3506 89H84.2168C84.963 89 85.5675 88.3952 85.5675 87.6491V14.3509C85.5678 13.6048 84.963 13 84.2171 13ZM36.7016 16.2885L58.4331 24.2983V77.7014L36.7016 85.7112V16.2885ZM82.8662 86.2984H42.9216L60.2512 79.9111C60.7822 79.7155 61.1347 79.2092 61.1347 78.6438V23.3565C61.1347 22.7908 60.7819 22.2848 60.2512 22.0889L42.9219 15.7016H82.8662V86.2984Z" fill="black"/>
<path d="M54.0472 46.3164C52.1216 46.3164 50.613 48.3737 50.613 51.0003C50.613 53.6267 52.1216 55.6843 54.0472 55.6843C55.9731 55.6843 57.4815 53.627 57.4815 51.0003C57.4815 48.3737 55.9731 46.3164 54.0472 46.3164ZM54.0469 52.9818C53.871 52.9382 53.3146 52.2536 53.3146 51.0003C53.3146 49.7471 53.871 49.0628 54.0469 49.0186C54.2232 49.0631 54.7799 49.7486 54.7799 51.0003C54.7799 52.2518 54.2232 52.9373 54.0469 52.9818Z" fill="black"/>
</svg>
