<svg width="120" height="100" viewBox="0 0 120 100" fill="none" xmlns="http://www.w3.org/2000/svg">
<rect width="120" height="100" fill="white"/>
<path d="M20 17.7521C20.7065 16.9116 20.9413 16.8437 21.9991 17.2144C37.0081 22.4879 52.0171 27.7632 67.0261 33.0406C68.1344 33.4307 68.3033 33.6694 68.3033 34.8514C68.3071 37.8482 68.3343 40.8449 68.2955 43.8417C68.2644 46.2465 69.1806 48.1291 71.102 49.5732C73.3321 51.2482 75.5273 52.9698 77.7399 54.668C77.9166 54.8039 78.1068 54.9184 78.4057 55.1203C78.4057 54.7185 78.4057 54.4448 78.4057 54.1731C78.4076 52.1313 78.4018 50.0914 78.4154 48.0496C78.4193 47.3605 78.7686 46.9238 79.4751 46.854C80.1369 46.788 80.6105 47.2208 80.7115 47.9622C80.7425 48.1912 80.7309 48.4261 80.7309 48.659C80.7328 51.2171 80.7134 53.7752 80.7542 56.3314C80.76 56.6749 80.9832 57.1097 81.2491 57.3407C82.0468 58.0355 82.9183 58.6411 83.7509 59.2971C84.4865 59.8755 84.634 60.5102 84.1954 61.0886C83.7645 61.6592 83.0697 61.698 82.3496 61.1448C78.0058 57.8123 73.6524 54.4914 69.3378 51.124C67.03 49.3228 65.9567 46.8947 65.9781 43.9678C65.9955 41.6465 65.9819 39.3252 65.9819 36.771C61.0986 40.7925 56.3589 44.6937 51.4407 48.7425C53.1273 48.7425 54.5908 48.6415 56.0368 48.7599C61.71 49.2277 66.4827 51.5859 70.3529 55.7685C70.7449 56.1917 70.8944 56.6652 70.6421 57.1854C70.3684 57.7502 69.8618 57.8783 69.2679 57.8007C65.3531 57.2883 61.4363 56.7856 57.5196 56.2732C55.2934 55.982 53.0808 55.6346 50.8332 56.1994C46.2158 57.3601 42.7299 61.3603 42.2835 66.0961C42.1981 66.9947 42.1962 67.9069 42.0428 68.792C40.9598 75.0204 34.2637 78.3141 28.6623 75.3969C28.5536 75.3406 28.439 75.2901 28.1188 75.1349C29.4076 76.8196 30.8846 77.8812 32.6527 78.5101C39.0907 80.7984 45.7422 76.3363 46.0508 69.5082C46.1905 66.4047 47.3726 63.9553 50.2276 62.5306C50.9729 62.158 51.8328 61.9872 52.6576 61.8183C53.0555 61.7368 53.2496 61.6048 53.3175 61.2225C53.3758 60.8925 53.4554 60.5645 53.5543 60.2462C53.7931 59.4854 54.3423 59.1399 55.0081 59.3068C55.6175 59.4601 55.963 60.0191 55.7961 60.7761C55.4972 62.1366 55.1381 63.4817 54.8023 64.8345C54.1851 67.313 53.564 69.7896 52.9488 72.2662C52.9119 72.4118 52.8944 72.5593 52.8537 72.7844C54.8353 71.8023 56.454 70.5679 57.4031 68.5785C58.1582 66.9947 58.9733 65.4401 59.7516 63.8699C60.0428 63.2837 60.4504 62.8858 61.1491 63.0295C61.8071 63.1653 62.0594 63.6234 62.0555 64.2813C62.0555 64.4327 62.2088 64.6618 62.3486 64.7239C65.3453 66.0437 68.3266 67.4023 71.3621 68.629C73.1672 69.3587 75.1139 69.2248 77.1674 69.1744C77.1674 68.3728 77.1654 67.5848 77.1674 66.7967C77.1693 66.3057 77.1518 65.8127 77.1868 65.3255C77.2295 64.7064 77.573 64.3143 78.2038 64.2561C78.8715 64.194 79.283 64.5356 79.4324 65.18C79.4829 65.4032 79.4906 65.64 79.4926 65.8709C79.4984 66.9811 79.5236 68.0933 79.4887 69.2035C79.4479 70.531 79.9273 71.6102 80.8764 72.5185C81.2471 72.8718 81.5538 73.291 81.8896 73.6811C81.9556 73.6443 82.0216 73.6074 82.0876 73.5686C82.1031 73.3551 82.1341 73.1435 82.1341 72.93C82.138 70.5272 82.1322 68.1243 82.138 65.7215C82.14 64.7413 82.5631 64.2231 83.3162 64.2406C84.0343 64.258 84.4399 64.7685 84.4593 65.7021C84.4749 66.4241 84.4788 67.148 84.4904 67.8701C84.4904 67.8837 84.5273 67.8972 84.603 67.9535C86.9359 66.3639 88.2926 64.1765 88.5876 61.3389C88.7487 59.7843 88.4013 58.3131 87.8326 56.8826C86.9068 54.5594 85.9771 52.2361 85.0474 49.9128C84.4361 48.3834 84.4225 47.7817 84.9504 46.2892C84.0498 45.5982 83.1997 44.8529 82.2506 44.2667C81.8876 44.0435 81.2976 44.1794 80.8104 44.1619C80.3718 44.1464 79.9312 44.1716 79.4945 44.1328C78.8365 44.0746 78.4484 43.6961 78.4309 43.0304C78.4134 42.4015 78.755 42.0114 79.3742 41.8969C79.7002 41.8367 80.036 41.8231 80.496 41.7766C79.9002 40.9245 79.3625 40.121 78.7764 39.3543C78.6716 39.2165 78.361 39.199 78.1436 39.1932C77.3945 39.1719 76.6453 39.1952 75.8961 39.1758C75.209 39.1583 74.7704 38.8206 74.7044 38.1121C74.6442 37.4483 75.0693 36.9748 75.8204 36.8855C76.1736 36.8428 76.5346 36.8777 77.082 36.8777C76.4376 35.9636 75.9116 35.1775 75.3371 34.4302C75.2265 34.2866 74.9334 34.2303 74.7238 34.2245C73.8969 34.2012 73.0701 34.2284 72.2452 34.209C71.4611 34.1896 71.0147 33.7956 70.9778 33.1395C70.9371 32.4447 71.3757 31.9847 72.1754 31.9012C72.4063 31.878 72.6392 31.8896 72.8722 31.8896C77.8312 31.8896 82.7921 31.9207 87.7511 31.876C89.956 31.8566 91.8639 32.4311 93.4127 34.0615C93.5932 34.2517 93.9445 34.3371 94.2279 34.3643C94.8936 34.4283 95.573 34.3759 96.2348 34.4632C97.9253 34.6884 99.2083 36.0373 99.3286 37.7356C99.3927 38.6362 99.3752 39.5445 99.3402 40.447C99.3286 40.7343 99.2122 41.0875 99.0181 41.2836C98.4552 41.8464 97.8904 42.4695 97.2033 42.8324C96.5822 43.1585 96.0795 42.6985 95.7146 41.6931C94.0668 41.6931 92.3957 41.6562 90.7265 41.7086C89.9036 41.7339 89.4785 42.256 89.4378 43.0731C89.4184 43.4535 89.4339 43.8378 89.4339 44.2823C89.7677 44.2978 90.0433 44.3211 90.317 44.3211C92.0735 44.3269 93.83 44.3056 95.5865 44.3386C96.3804 44.3541 96.8734 44.8568 96.8637 45.5089C96.854 46.163 96.3551 46.6308 95.5535 46.6385C93.2807 46.6599 91.0079 46.6443 88.7332 46.6502C87.0563 46.6541 86.5555 47.4129 87.1785 48.9831C88.2072 51.5704 89.2903 54.1401 90.251 56.7526C91.959 61.4049 90.4664 66.3969 86.538 69.4344C86.4973 69.4655 86.4624 69.5082 86.4158 69.5295C84.6243 70.304 84.3021 71.7189 84.4283 73.5259C84.5797 75.7113 84.4632 77.9162 84.4632 80.1113C84.4632 80.3617 84.4632 80.6102 84.4632 80.9498C85.9073 80.3501 87.3047 80.1269 88.6925 80.6761C89.4242 80.9653 90.1229 81.3788 90.7673 81.8329C91.3728 82.2599 91.4272 82.9451 91.0235 83.4672C90.6236 83.9854 89.9657 84.0863 89.3776 83.6341C88.378 82.8655 87.3163 82.4676 86.0606 82.8577C85.8413 82.9257 85.5948 82.9897 85.4259 83.1314C83.7703 84.523 81.8197 83.8088 79.9914 83.8728C79.4052 83.8942 79.0326 83.3837 79.0539 82.7471C79.0753 82.0775 79.4712 81.6874 80.1175 81.6369C80.7542 81.5864 81.3985 81.6252 82.074 81.6252C82.2661 79.1176 82.3612 76.7672 80.1369 75.0068C79.0733 74.1644 78.1223 73.1551 77.5905 71.8334C77.5226 71.6645 77.148 71.55 76.9073 71.5326C75.4147 71.4316 73.9008 71.4918 72.4335 71.2492C71.1544 71.0357 69.8929 70.5815 68.6876 70.0788C66.1197 69.0074 63.5946 67.8332 60.8657 66.6201C59.4624 70.9095 56.6598 73.9257 52.4558 75.6511C53.4379 77.6134 54.3443 79.4262 55.2487 81.2351C55.9281 80.9906 56.5569 80.6956 57.2188 80.5364C59.0898 80.088 60.7396 80.6063 62.1914 81.8155C62.7465 82.2774 62.8357 82.9645 62.4514 83.4652C62.0536 83.9815 61.3956 84.0844 60.8056 83.6341C59.806 82.8713 58.7443 82.4637 57.4866 82.8577C57.2673 82.9257 57.0111 82.9839 56.8539 83.1333C55.9339 84.0009 54.8101 83.9912 53.663 83.9446C52.9915 83.9175 52.318 83.964 51.6484 83.9272C50.9205 83.8883 50.4547 83.3915 50.4702 82.7471C50.4858 82.0988 50.9574 81.6582 51.6988 81.6194C52.0307 81.602 52.3646 81.6175 52.8129 81.6175C52.5858 81.14 52.4073 80.748 52.2151 80.3637C51.627 79.1875 51.0913 77.9802 50.4275 76.8467C49.8589 75.8763 49.8414 74.9563 50.1248 73.8946C50.9749 70.7077 51.7435 67.4974 52.5761 64.1649C51.0118 64.4521 49.8356 65.2207 49.1912 66.5308C48.7409 67.4489 48.4905 68.53 48.4148 69.5567C48.048 74.5642 45.6704 78.252 41.1287 80.321C36.7267 82.3259 32.4373 81.7766 28.5691 78.8575C25.5083 76.5478 23.9012 73.3764 23.7634 69.5451C23.6683 66.888 23.7537 64.2231 23.7091 61.5621C23.7032 61.1778 23.5072 60.7178 23.2452 60.4345C22.1932 59.2971 21.085 58.2218 20 57.1252C20 56.8147 20 56.5061 20 56.1955C20.1126 55.9743 20.2504 55.7627 20.3377 55.5317C21.4596 52.566 22.5814 49.5984 23.6877 46.6269C23.9032 46.0465 24.2156 45.5963 24.8814 45.5924C25.5471 45.5885 25.8674 46.0271 26.0847 46.6114C27.2454 49.7284 28.4099 52.8436 29.6016 55.951C29.8811 56.6788 29.7395 57.232 29.1882 57.7618C28.2566 58.6566 27.3502 59.5766 26.4535 60.5063C26.273 60.6945 26.0692 60.9721 26.0692 61.2069C26.077 63.5302 26.0071 65.8612 26.1915 68.1728C26.4186 71.0376 28.8117 73.4948 31.6027 74.0091C34.5471 74.5526 37.4972 73.1765 38.9374 70.6805C39.7506 69.2733 39.8302 67.742 39.9486 66.199C40.5542 58.3286 47.5725 52.634 55.4021 53.6588C58.6511 54.0838 61.9022 54.5089 65.1532 54.9281C65.3861 54.9572 65.6248 54.932 65.8616 54.932C65.1066 54.2837 64.3322 53.7306 63.4995 53.2842C59.2082 50.9784 54.6335 50.5378 49.8919 51.3103C48.7487 51.4966 47.6229 51.6907 46.7282 52.5816C46.2585 53.0493 45.5287 52.9018 45.1366 52.4341C44.7388 51.9624 44.7562 51.2986 45.2783 50.8425C45.7209 50.4582 45.9751 50.0895 45.8742 49.4664C45.5966 47.739 45.1522 46.0446 44.1526 44.6161C41.907 41.3981 39.1917 38.8807 34.8576 39.168C34.2268 39.2107 33.8173 38.8342 33.7067 38.2344C33.596 37.6269 33.8891 37.1883 34.4714 36.9631C34.6577 36.8913 34.8499 36.835 35.0653 36.7632C34.6266 34.1935 33.4699 31.9905 32.0064 29.9409C29.0873 25.8534 25.3588 22.6082 21.3218 19.6813C20.8501 19.3397 20.4386 18.9127 20 18.5265C20 18.2683 20 18.0102 20 17.7521ZM41.3422 38.4673C46.637 42.7897 46.6447 43.8203 48.1217 48.4552C53.1409 44.3211 58.1407 40.2025 63.1405 36.0858C61.2093 36.1635 59.3673 36.3789 57.5235 36.5846C56.7355 36.6739 56.1746 36.2993 56.0775 35.6394C55.9746 34.9523 56.3686 34.4341 57.1528 34.308C57.9427 34.1818 58.7404 34.1139 59.5343 34.0168C60.2213 33.9314 60.9065 33.8383 61.5936 33.747C61.5916 33.6946 61.5897 33.6403 61.5897 33.5879C50.3635 29.644 39.1392 25.7001 27.915 21.7542C32.2005 25.9796 36.1464 30.366 37.4429 36.4895C37.6991 36.4895 37.9301 36.5128 38.1552 36.4857C41.9244 36.049 45.6917 35.6045 49.461 35.1658C50.3324 35.0649 51.2039 34.9485 52.0793 34.8902C52.7935 34.8437 53.2846 35.2493 53.3389 35.8704C53.3991 36.5691 53.0711 37 52.384 37.1514C52.2074 37.1902 52.0288 37.2271 51.8502 37.2465C49.4144 37.524 46.9766 37.7938 44.5408 38.0733C43.5005 38.1956 42.4621 38.3295 41.3422 38.4673ZM87.1009 44.2376C87.1009 43.9834 87.1164 43.8029 87.099 43.6262C86.8622 41.2913 88.4304 39.201 91.4524 39.333C93.0246 39.4009 94.6025 39.3446 96.1766 39.3446C96.4464 39.3446 96.7181 39.3446 97.0306 39.3446C97.0306 38.9914 97.0306 38.7623 97.0306 38.5333C97.0286 37.1708 96.5822 36.7147 95.2333 36.6992C94.8451 36.6953 94.455 36.6603 94.0726 36.7069C93.1158 36.8234 92.384 36.4915 91.7688 35.752C90.8313 34.6224 89.5872 34.1915 88.1315 34.207C85.0591 34.2362 81.9866 34.2167 78.9142 34.2167C78.6793 34.2167 78.4425 34.2167 78.0641 34.2167C78.6463 35.0533 79.0869 35.7559 79.6051 36.3925C79.7973 36.6273 80.168 36.8195 80.4727 36.8408C81.3209 36.901 82.1768 36.8447 83.027 36.868C83.9159 36.8913 84.4652 37.3785 84.438 38.0733C84.4108 38.7546 83.8984 39.1641 83.0289 39.1855C82.5883 39.1971 82.1458 39.1874 81.4956 39.1874C83.1803 41.2836 84.077 43.8533 87.1009 44.2376ZM24.893 50.0506C24.0992 52.1585 23.3694 54.078 22.661 56.0053C22.6028 56.1664 22.6163 56.4479 22.7192 56.5585C23.4121 57.3038 24.1361 58.018 24.9144 58.806C25.6577 58.0355 26.3293 57.364 26.9678 56.6594C27.0921 56.5216 27.1852 56.2324 27.1289 56.0733C26.4244 54.1188 25.6888 52.1759 24.893 50.0506Z" fill="black"/>
<path d="M89.5057 37.9238C88.8827 37.9238 88.3683 37.4231 88.3567 36.8059C88.3451 36.1945 88.8536 35.6607 89.4669 35.6413C90.0958 35.62 90.6703 36.1828 90.6586 36.8098C90.6489 37.4211 90.1287 37.9238 89.5057 37.9238Z" fill="black"/>
</svg>
