<svg width="120" height="100" viewBox="0 0 120 100" fill="none" xmlns="http://www.w3.org/2000/svg">
<rect width="120" height="100" fill="white"/>
<path d="M34.3778 77.1076C33.9001 77.1076 33.506 77.1281 33.1137 77.1039C32.4538 77.063 32.0579 76.6559 32.0077 75.9942C31.9947 75.8101 32.0021 75.6242 32.0021 75.4383C32.0021 56.5184 32.0021 37.6004 32.0021 18.6804C32.004 17.2974 32.2977 17 33.6621 17C51.1209 17 68.5798 17 86.0386 17C87.3547 17 87.6614 17.3123 87.6614 18.647C87.6614 37.5204 87.6614 56.392 87.6614 75.2655C87.6614 76.8809 87.4476 77.0946 85.8174 77.1114C85.6575 77.1132 85.4958 77.1262 85.2671 77.1374C85.0441 78.4609 84.8228 79.7789 84.5998 81.0968C84.5068 81.6452 84.4176 82.1936 84.3228 82.742C84.2094 83.4037 83.8246 83.7811 83.1443 83.7867C81.7073 83.7978 80.2685 83.8016 78.8316 83.7848C78.1196 83.7755 77.7646 83.4372 77.6363 82.6862C77.3538 81.0429 77.0842 79.3978 76.8054 77.7527C76.7719 77.5501 76.7218 77.3512 76.6771 77.1355C65.4438 77.1355 54.2495 77.1355 42.9696 77.1355C42.7466 78.4479 42.5254 79.764 42.3023 81.0783C42.2094 81.6266 42.1257 82.175 42.0235 82.7215C41.8896 83.4465 41.5216 83.7774 40.7929 83.7848C39.4024 83.7997 38.0101 83.796 36.6196 83.7867C35.8408 83.7811 35.469 83.4651 35.337 82.7029C35.0526 81.0597 34.783 79.4145 34.5061 77.7713C34.4726 77.5687 34.428 77.366 34.3778 77.1076ZM85.3861 74.8547C85.3861 56.2861 85.3861 37.7751 85.3861 19.2827C68.3084 19.2827 51.2808 19.2827 34.2681 19.2827C34.2681 37.8346 34.2681 56.3288 34.2681 74.8547C51.3161 74.8547 68.3269 74.8547 85.3861 74.8547ZM40.6943 77.156C39.2965 77.156 38.0119 77.156 36.6642 77.156C36.9171 78.658 37.1606 80.1042 37.4022 81.53C38.3112 81.53 39.1161 81.53 39.9675 81.53C40.211 80.0726 40.449 78.6375 40.6943 77.156ZM82.9937 77.1597C81.5939 77.1597 80.3094 77.1597 78.9673 77.1597C79.2164 78.6505 79.4562 80.0837 79.696 81.5281C80.5753 81.5281 81.3988 81.5281 82.2687 81.5281C82.5122 80.067 82.7502 78.6319 82.9937 77.1597Z" fill="black"/>
<path d="M59.9024 21.4521C67.1373 21.4521 74.3721 21.4521 81.6088 21.4521C82.8859 21.4521 83.2094 21.7756 83.2094 23.0527C83.2094 27.2036 83.2112 31.3545 83.2094 35.5055C83.2094 36.6877 82.8599 37.0353 81.6776 37.0353C67.115 37.0353 52.5505 37.0353 37.9878 37.0353C36.8056 37.0353 36.4579 36.6877 36.4579 35.5036C36.4561 31.3285 36.4561 27.1553 36.4579 22.9802C36.4579 21.796 36.8037 21.4521 37.9897 21.4521C45.2933 21.4521 52.5969 21.4521 59.9024 21.4521ZM80.9266 34.7861C80.9266 31.0422 80.9266 27.3728 80.9266 23.7144C66.8287 23.7144 52.7884 23.7144 38.7258 23.7144C38.7258 27.4211 38.7258 31.0924 38.7258 34.7861C52.8107 34.7861 66.8529 34.7861 80.9266 34.7861Z" fill="black"/>
<path d="M59.8336 54.8473C52.5746 54.8473 45.3174 54.8473 38.0584 54.8473C36.7795 54.8473 36.4579 54.5239 36.456 53.2487C36.456 49.0978 36.4542 44.9468 36.456 40.7959C36.456 39.6118 36.8018 39.2642 37.9859 39.2642C52.5486 39.2642 67.1131 39.2642 81.6757 39.2642C82.8598 39.2642 83.2074 39.6118 83.2093 40.7922C83.2112 44.9673 83.2112 49.1405 83.2093 53.3156C83.2093 54.4997 82.8598 54.8473 81.6794 54.8473C74.3962 54.8492 67.1149 54.8473 59.8336 54.8473ZM80.9507 41.5376C66.8379 41.5376 52.7791 41.5376 38.7388 41.5376C38.7388 45.2573 38.7388 48.9267 38.7388 52.5851C52.8367 52.5851 66.877 52.5851 80.9507 52.5851C80.9507 48.8951 80.9507 45.2424 80.9507 41.5376Z" fill="black"/>
<path d="M59.8317 57.0744C67.0907 57.0744 74.3479 57.0744 81.6069 57.0744C82.8839 57.0744 83.2074 57.3978 83.2074 58.6749C83.2074 62.8258 83.2093 66.9767 83.2074 71.1277C83.2074 72.3099 82.8579 72.6576 81.6757 72.6576C67.113 72.6576 52.5485 72.6576 37.9859 72.6576C36.8036 72.6576 36.456 72.3099 36.456 71.1258C36.4541 66.9507 36.4541 62.7775 36.456 58.6024C36.456 57.4183 36.8017 57.0725 37.9877 57.0725C45.269 57.0744 52.5504 57.0744 59.8317 57.0744ZM38.7146 70.3841C52.8255 70.3841 66.8825 70.3841 80.9265 70.3841C80.9265 66.6663 80.9265 62.995 80.9265 59.3348C66.8305 59.3348 52.7883 59.3348 38.7146 59.3348C38.7146 63.0247 38.7146 66.6793 38.7146 70.3841Z" fill="black"/>
<path d="M54.3257 25.9189C58.0193 25.9189 61.6535 25.9189 65.3434 25.9189C65.3434 26.6328 65.3434 27.3354 65.3434 28.0846C61.6888 28.0846 58.0193 28.0846 54.3257 28.0846C54.3257 27.3615 54.3257 26.6439 54.3257 25.9189Z" fill="black"/>
<path d="M65.3656 43.7627C65.3656 44.5007 65.3656 45.1866 65.3656 45.906C61.6813 45.906 58.0286 45.906 54.3219 45.906C54.3219 45.2164 54.3219 44.5137 54.3219 43.7627C57.9746 43.7627 61.6441 43.7627 65.3656 43.7627Z" fill="black"/>
<path d="M54.2979 63.7031C54.2979 62.9707 54.2979 62.2847 54.2979 61.5635C57.9803 61.5635 61.6312 61.5635 65.3416 61.5635C65.3416 62.2476 65.3416 62.9502 65.3416 63.7031C61.6926 63.7031 58.025 63.7031 54.2979 63.7031Z" fill="black"/>
</svg>
