<svg width="120" height="100" viewBox="0 0 120 100" fill="none" xmlns="http://www.w3.org/2000/svg">
<rect width="120" height="100" fill="white"/>
<path d="M45.9775 59.0845C46.8045 59.0845 47.5576 59.1072 48.3069 59.0675C48.4659 59.0599 48.7175 58.8461 48.7497 58.6909C49.4082 55.5043 50.0421 52.314 50.6722 49.1218C50.7025 48.9685 50.6798 48.7944 50.642 48.6392C50.0156 46.0998 49.3836 43.5604 48.7346 40.951C48.1934 40.951 47.6541 40.9226 47.1186 40.9548C40.7625 41.3427 35.6515 36.3604 36.0186 29.8208C36.1132 28.1499 35.9789 26.4582 36.1662 24.8006C36.7074 19.9735 40.9971 16.0641 45.8527 16.0357C55.1058 15.9808 64.3589 15.996 73.612 16.0357C75.7049 16.0452 77.2943 17.1067 78.3408 18.9157C78.5603 19.2961 78.7836 19.4399 79.2169 19.4266C80.2784 19.3945 81.3419 19.4134 82.4034 19.4172C83.7507 19.4209 84.7706 20.0265 85.4121 21.1902C85.6316 21.5876 85.8568 21.7087 86.2826 21.6917C87.083 21.6595 87.8872 21.6822 88.6895 21.6822C91.1154 21.6822 92.2772 22.6435 92.737 25.0826C94.4438 25.0826 96.1639 25.0618 97.884 25.0958C98.3381 25.1053 98.8206 25.2112 99.2388 25.3929C100.556 25.9681 101.846 26.6039 103.152 27.2057C103.638 27.429 103.988 27.7412 104 28.3126C104.011 28.8879 103.661 29.2077 103.194 29.4537C101.839 30.169 100.495 30.9088 99.1272 31.5976C98.7847 31.7698 98.3684 31.8587 97.9824 31.8644C96.2396 31.8928 94.4949 31.8758 92.7219 31.8758C92.5043 33.6223 91.6433 34.7955 89.9138 35.2099C89.7094 35.2591 89.4937 35.278 89.2837 35.2724C88.6271 35.2572 88.1975 34.8598 88.1445 34.2486C88.0897 33.6034 88.4719 33.136 89.1474 33.0206C90.1465 32.8522 90.402 32.5664 90.4039 31.5844C90.4077 29.5067 90.4096 27.429 90.4039 25.3513C90.4001 24.3295 90.016 23.9529 88.9866 23.9491C87.9761 23.9453 86.9657 23.9472 85.8738 23.9472C85.8738 24.2519 85.8738 24.5035 85.8738 24.7552C85.8738 27.7071 85.8738 30.6572 85.8738 33.6091C85.8738 36.2166 84.5549 37.5468 81.9701 37.5468C81.0032 37.5468 80.0343 37.5241 79.0674 37.5639C78.8441 37.5733 78.5395 37.7493 78.4278 37.9404C77.2281 39.9765 75.4589 40.9643 73.1049 40.9491C71.2656 40.9378 69.4245 40.9472 67.5057 40.9472C67.114 42.4989 66.7223 44.0411 66.3344 45.5851C66.0581 46.6827 65.7894 47.7821 65.5056 48.8758C65.2748 49.767 64.9682 50.0073 64.0713 50.013C62.9643 50.0187 61.8555 50.0149 60.6917 50.0149C60.1676 51.962 59.6453 53.8902 59.1306 55.8203C58.3056 58.918 57.473 62.0137 56.6801 65.1208C56.578 65.5219 56.6101 66.0026 56.7255 66.4037C56.9678 67.2458 56.8221 67.7813 56.1465 68.0575C55.488 68.3281 54.9695 68.0292 54.5949 67.2571C54.1824 66.4094 54.1521 65.6014 54.4075 64.6761C55.7983 59.6313 57.1305 54.5715 58.4589 49.5097C58.5667 49.101 58.561 48.6203 58.4626 48.2078C57.8401 45.5946 57.174 42.9909 56.5288 40.3814C56.2468 39.2404 56.6934 38.6841 57.8874 38.6841C62.9397 38.6822 67.9901 38.6841 73.0425 38.6822C75.4759 38.6803 76.8156 37.3482 76.8175 34.9223C76.8213 30.625 76.8213 26.3277 76.8175 22.0304C76.8156 19.6102 75.474 18.2818 73.0368 18.2799C64.2075 18.2799 55.3802 18.2761 46.5509 18.2799C41.6954 18.2818 38.2969 21.6614 38.2988 26.5112C38.2988 28.3259 38.2288 30.1576 38.4369 31.9552C38.8646 35.6641 42.07 38.5119 45.8054 38.6614C46.9842 38.7087 48.165 38.6746 49.3458 38.6822C50.2257 38.6879 50.5492 38.9225 50.7593 39.7532C51.4935 42.6559 52.2523 45.553 52.9164 48.4708C53.0489 49.0518 52.854 49.7254 52.7329 50.3404C52.0914 53.6253 51.4291 56.9084 50.7649 60.1896C50.5871 61.0676 50.2465 61.3438 49.359 61.3495C48.2047 61.3571 47.0523 61.3514 45.8205 61.3514C45.6029 64.3695 45.3891 67.3461 45.1677 70.4191C45.5102 70.4191 45.7864 70.4191 46.0608 70.4191C51.2777 70.4191 56.4947 70.4172 61.7116 70.4191C66.5899 70.421 70.0016 73.8214 70.013 78.6882C70.0167 79.9863 70.0167 81.2863 70.013 82.5844C70.0092 83.61 69.6194 84.0168 68.6146 84.0168C60.423 84.0206 52.2314 84.0244 44.0418 84.013C42.0171 84.0111 40.5638 82.5409 40.5525 80.5199C40.5392 78.3003 40.5449 76.0807 40.5525 73.8611C40.5562 72.5744 41.1163 71.5525 42.2328 70.947C42.8099 70.6348 42.9234 70.2507 42.9651 69.6698C43.5517 61.2871 44.1572 52.9063 44.7646 44.5255C44.8308 43.6077 45.2774 43.1574 45.9889 43.2104C46.7155 43.2633 47.0826 43.8443 47.0145 44.7715C46.6663 49.5059 46.3276 54.2365 45.9775 59.0845ZM60.9472 81.7537C60.9472 81.1122 60.9472 80.5502 60.9472 79.9882C60.9453 78.6712 60.6331 78.3533 59.3331 78.3533C55.0395 78.3514 50.7441 78.3533 46.4506 78.3514C45.5121 78.3514 45.0579 77.9843 45.0522 77.2407C45.0466 76.4989 45.5196 76.0883 46.4279 76.0883C50.8633 76.0845 55.2988 76.0769 59.7361 76.0902C61.7495 76.0958 63.1933 77.5718 63.2122 79.5946C63.2198 80.2948 63.2141 80.9949 63.2141 81.7045C64.7657 81.7045 66.236 81.7045 67.7479 81.7045C67.7479 80.5502 67.7612 79.4451 67.746 78.3382C67.7025 75.1403 65.2653 72.6974 62.0674 72.6898C56.1219 72.6747 50.1746 72.6841 44.2291 72.686C43.1997 72.686 42.8213 73.0645 42.8194 74.0938C42.8137 76.1469 42.8156 78.2 42.8194 80.2531C42.8213 81.4074 43.1713 81.7518 44.3559 81.7518C48.7686 81.7537 53.1814 81.7518 57.5922 81.7518C58.6727 81.7537 59.7569 81.7537 60.9472 81.7537ZM79.1336 21.6841C79.1336 26.2596 79.1336 30.7461 79.1336 35.2799C80.2841 35.2799 81.3892 35.3007 82.4924 35.2724C83.1698 35.2553 83.5956 34.8334 83.5993 34.1427C83.6145 30.3714 83.6145 26.6002 83.5993 22.8289C83.5975 22.1325 83.1755 21.7068 82.5037 21.6917C81.3987 21.6652 80.2936 21.6841 79.1336 21.6841ZM60.6955 47.7253C61.6378 47.7253 62.5291 47.7253 63.4639 47.7253C64.0259 45.4811 64.5822 43.252 65.1518 40.9794C63.0778 40.9794 61.0796 40.9794 59.0114 40.9794C59.5791 43.2539 60.1354 45.4849 60.6955 47.7253ZM92.7049 29.6164C93.967 29.6164 95.1743 29.5237 96.3588 29.6391C97.8518 29.7848 99.0496 29.2039 100.285 28.36C99.4962 28.0118 98.7676 27.463 97.9994 27.4006C96.2547 27.2587 94.4893 27.3552 92.703 27.3552C92.7049 28.1272 92.7049 28.8254 92.7049 29.6164Z" fill="black"/>
<path d="M50.8066 22.8155C52.2466 22.8155 53.6848 22.808 55.1248 22.8174C57.2327 22.8307 58.6708 24.2763 58.6803 26.3862C58.6879 27.8262 58.6935 29.2643 58.6784 30.7043C58.6614 32.4433 57.4674 33.8284 55.77 34.1104C54.9147 34.2523 54.3149 33.9117 54.1843 33.2116C54.0537 32.5114 54.4776 32.0251 55.3651 31.8737C56.0501 31.7583 56.4077 31.3609 56.4115 30.6684C56.4172 29.2057 56.4266 27.743 56.4077 26.2802C56.3982 25.5158 55.9801 25.0938 55.2137 25.09C52.241 25.0768 49.2682 25.0768 46.2955 25.09C45.5348 25.0938 45.1109 25.5196 45.0996 26.284C45.0788 27.7467 45.0788 29.2095 45.0996 30.6722C45.1109 31.4612 45.5481 31.8643 46.3636 31.8737C47.7317 31.887 49.0998 31.8737 50.4679 31.8794C51.3743 31.8832 51.8663 32.2938 51.8625 33.0167C51.8568 33.7376 51.3611 34.1388 50.4528 34.1426C49.0847 34.1482 47.7166 34.152 46.3485 34.1426C44.2992 34.1274 42.844 32.6666 42.827 30.604C42.8156 29.1886 42.8156 27.7732 42.827 26.3559C42.844 24.2915 44.2916 22.8345 46.3485 22.8193C47.8339 22.8061 49.3193 22.8155 50.8066 22.8155Z" fill="black"/>
<path d="M66.5387 25.0825C65.1025 25.0825 63.6663 25.0901 62.2301 25.0807C61.3748 25.075 60.9244 24.6644 60.9377 23.934C60.9509 23.249 61.4088 22.8251 62.2074 22.8213C65.1517 22.8118 68.0942 22.8118 71.0385 22.8213C71.8446 22.8232 72.2836 23.2357 72.2893 23.9396C72.295 24.6492 71.8598 25.0731 71.0612 25.0807C69.5531 25.0901 68.045 25.0807 66.5387 25.0825Z" fill="black"/>
<path d="M66.6089 27.3495C68.0451 27.3495 69.4813 27.3438 70.9175 27.3513C71.8372 27.3551 72.2932 27.7449 72.2856 28.4962C72.278 29.2417 71.8239 29.6145 70.8929 29.6145C68.0205 29.6183 65.1461 29.6183 62.2737 29.6145C61.3976 29.6126 60.9472 29.2341 60.934 28.5151C60.9207 27.7714 61.3957 27.357 62.2983 27.3513C63.7364 27.3438 65.1726 27.3495 66.6089 27.3495Z" fill="black"/>
<path d="M66.5388 34.1446C65.1253 34.1446 63.7099 34.1503 62.2964 34.1427C61.4543 34.137 60.9661 33.7113 60.968 33.0092C60.9699 32.3072 61.4543 31.8833 62.2983 31.8815C65.1745 31.8758 68.0507 31.8758 70.9251 31.8815C71.7709 31.8833 72.2553 32.3091 72.2534 33.0111C72.2534 33.7113 71.7633 34.1389 70.9213 34.1427C69.4624 34.1503 67.9996 34.1446 66.5388 34.1446Z" fill="black"/>
</svg>
