<svg width="120" height="100" viewBox="0 0 120 100" fill="none" xmlns="http://www.w3.org/2000/svg">
<rect width="120" height="100" fill="white"/>
<path d="M57.4738 85.3501C56.066 85.2124 54.6549 85.0937 53.2488 84.9319C47.7572 84.3055 42.4291 83.0801 37.5003 80.4815C35.2372 79.2871 33.1841 77.8122 31.6473 75.7058C30.6164 74.2929 30.0141 72.7371 30.0123 70.9886C29.9986 62.0344 29.9934 53.0802 30.0123 44.1261C30.0175 41.3174 31.4201 39.1611 33.4233 37.3437C35.9617 35.0411 38.9734 33.5438 42.1951 32.5113C44.5407 31.7609 46.9656 31.2601 49.3543 30.6492C49.5298 30.6044 49.7054 30.558 49.8809 30.5132C49.9549 30.4289 50.0289 30.3446 50.1046 30.262C49.8792 30.1466 49.6055 30.0795 49.4334 29.9074C46.3959 26.8923 43.367 23.8651 40.3416 20.8328C39.1283 19.6161 38.8306 18.1825 39.4863 16.8333C40.3743 15.0125 42.7027 14.4273 44.3359 15.6286C44.6285 15.8437 44.8935 16.1018 45.1517 16.3617C49.4455 20.6504 53.7393 24.939 58.0193 29.2414C58.3515 29.5753 58.6768 29.7525 59.1552 29.7061C59.6319 29.6596 60.131 29.6114 60.5939 29.6975C62.0137 29.9625 62.9465 29.3206 63.9068 28.3345C67.8891 24.2523 71.954 20.2528 75.9793 16.2154C76.9362 15.2568 78.0256 14.7698 79.3903 15.1192C81.6327 15.6905 82.5793 18.3529 81.1956 20.2115C80.9925 20.4851 80.7516 20.7347 80.5089 20.9773C77.5489 23.9426 74.5836 26.9061 71.6184 29.8679C71.4429 30.0434 71.2415 30.1966 70.9025 30.4908C71.7716 30.6647 72.4479 30.7886 73.1208 30.9348C77.3905 31.8625 81.5243 33.1566 85.2278 35.5574C87.4496 36.9978 89.4253 38.7136 90.389 41.2624C90.7607 42.245 90.9586 43.3533 90.9638 44.4049C91.0085 53.1301 90.9724 61.8554 90.9999 70.5807C91.0085 73.1226 90.0173 75.1998 88.2929 76.9724C85.6908 79.6485 82.4278 81.2301 78.9738 82.4554C74.2154 84.142 69.2848 84.9508 64.2578 85.2313C64.01 85.2451 63.7674 85.3105 63.5213 85.3535C61.5043 85.3501 59.489 85.3501 57.4738 85.3501ZM66.9443 34.5059C67.6877 34.616 68.2505 34.702 68.8132 34.7812C73.2981 35.4231 77.6521 36.5091 81.6878 38.6448C83.1506 39.4192 84.5239 40.3141 85.5755 41.6375C86.6786 43.0264 86.7612 44.4857 85.7665 45.9382C84.8802 47.2341 83.6583 48.1566 82.3314 48.9448C77.998 51.5193 73.2 52.6431 68.2797 53.3109C63.5901 53.9493 58.8798 53.9855 54.1678 53.4778C49.7587 53.0028 45.4511 52.1096 41.3604 50.3387C39.3744 49.4783 37.5192 48.4061 35.9669 46.8676C34.3647 45.2808 34.0945 43.7079 35.1993 42.0798C36.2147 40.5826 37.6689 39.5844 39.2264 38.7343C39.7358 38.4572 40.228 38.5966 40.5412 39.0922C40.8561 39.5913 40.7443 40.0629 40.2917 40.4311C40.0628 40.617 39.7771 40.734 39.5499 40.9233C38.7118 41.6238 37.8272 42.2846 37.0769 43.0694C36.3765 43.8042 36.435 44.2087 37.0597 44.9969C37.2438 45.2292 37.4314 45.4787 37.6689 45.6439C38.7944 46.4218 39.8735 47.303 41.0868 47.9122C45.594 50.1701 50.4643 51.0839 55.4345 51.5331C59.2292 51.8756 63.0256 51.8308 66.8152 51.4075C70.9713 50.9411 75.0345 50.0995 78.8843 48.413C80.5898 47.6661 82.2161 46.7798 83.5344 45.4288C84.6737 44.2603 84.7184 43.5702 83.4655 42.5135C82.3917 41.6066 81.2111 40.7805 79.9703 40.1231C76.7641 38.4262 73.2757 37.5726 69.7185 36.9858C68.2918 36.75 66.8531 36.5968 65.4195 36.4058C65.3954 36.4609 65.3713 36.5159 65.3455 36.5727C65.7654 36.9858 66.218 37.3713 66.5966 37.817C67.0286 38.3247 67.5019 38.4968 68.1885 38.5037C70.4172 38.5226 72.0934 39.5758 73.0881 41.5704C74.0329 43.4652 73.8694 45.3583 72.7026 47.1085C71.2863 49.2322 68.6756 50.029 66.2077 49.1737C63.9911 48.4044 62.5076 46.0897 62.6384 43.627C62.6487 43.4342 62.6436 43.1778 62.5317 43.0539C61.8932 42.3466 61.2221 41.6685 60.482 40.8992C59.8332 41.5859 59.3015 42.1831 58.7284 42.739C58.4238 43.035 58.324 43.3241 58.3394 43.7595C58.4117 45.8143 57.5822 47.4751 55.875 48.6006C54.1678 49.7261 52.304 49.862 50.4523 48.9603C48.0584 47.7934 46.8485 45.2017 47.4595 42.7252C48.1031 40.1128 50.3783 38.4159 53.1352 38.483C53.3366 38.4882 53.6085 38.5329 53.7273 38.4245C54.3881 37.8222 55.0111 37.1785 55.6479 36.5486C55.6134 36.4832 55.5773 36.4178 55.5429 36.3525C53.2884 36.7225 51.0185 37.0167 48.7864 37.4883C47.0465 37.8549 45.3565 38.4486 43.6407 38.9305C42.923 39.1318 42.3155 38.7945 42.2364 38.1509C42.1555 37.4866 42.541 37.1579 43.1209 36.9496C45.7988 35.9893 48.5471 35.3199 51.3575 34.8914C52.1956 34.764 53.0354 34.6453 54.0405 34.4973C53.2901 33.7607 52.6826 33.1411 52.0424 32.5594C51.9048 32.4355 51.6328 32.3787 51.4401 32.4063C47.7813 32.9277 44.212 33.8054 40.7994 35.2407C38.316 36.2853 35.9875 37.5829 34.0927 39.5534C31.4631 42.2881 31.4493 45.668 34.0514 48.4164C35.621 50.0754 37.5312 51.2423 39.5654 52.2025C44.7077 54.6326 50.2027 55.6376 55.8234 56.0747C59.4598 56.357 63.0979 56.3105 66.7292 55.9388C71.6907 55.4294 76.5524 54.5104 81.1027 52.366C83.5206 51.2268 85.7975 49.8792 87.4874 47.7315C89.3495 45.3634 89.3547 42.665 87.5184 40.2969C86.3327 38.767 84.8148 37.6397 83.1489 36.7001C78.8998 34.3045 74.2653 33.1205 69.4896 32.396C69.3192 32.3701 69.0766 32.4424 68.9509 32.5577C68.3159 33.1428 67.7049 33.759 66.9443 34.5059ZM32.0672 70.5102C32.0689 71.6443 32.2771 72.7234 32.8485 73.7284C33.8501 75.4941 35.3422 76.7573 37.0236 77.8157C40.882 80.244 45.1706 81.502 49.6021 82.3212C54.6239 83.2488 59.6921 83.4914 64.7862 83.1369C70.2485 82.7566 75.5887 81.7894 80.6397 79.5814C83.2608 78.4352 85.7045 77.012 87.5081 74.7059C88.4753 73.4703 88.9881 72.078 88.8986 70.3828C88.7351 70.5274 88.6474 70.5911 88.5751 70.6702C86.8042 72.6098 84.6479 74.0175 82.3228 75.1878C77.7124 77.5076 72.7474 78.5265 67.6671 78.9997C61.0293 79.6193 54.407 79.4747 47.8364 78.1909C43.4634 77.3373 39.2987 75.9347 35.6106 73.3722C34.3801 72.5203 33.2718 71.4929 32.0672 70.5102ZM58.9693 77.1996C56.7424 71.3483 54.5223 65.5177 52.2386 59.5235C49.9274 64.9102 47.6935 70.1161 45.4546 75.3341C48.7296 76.3735 56.2674 77.413 58.9693 77.1996ZM62.0068 77.2512C66.6311 77.1187 71.097 76.5835 75.5508 75.3513C73.2895 70.0868 71.0591 64.8912 68.753 59.5235C66.4624 65.5435 64.2492 71.3621 62.0068 77.2512ZM53.9252 58.1657C56.0764 63.8105 58.2482 69.5103 60.4201 75.2101C60.4734 75.2067 60.5268 75.2033 60.5801 75.1998C62.7537 69.4931 64.9273 63.7881 67.0665 58.1674C62.6918 58.1657 58.3343 58.1657 53.9252 58.1657ZM44.2396 72.9282C46.4734 67.7291 48.6315 62.7039 50.8188 57.6115C46.7952 56.9541 42.9282 56.011 39.1214 54.278C40.8389 60.5441 42.5117 66.6346 44.2396 72.9282ZM76.666 72.7234C76.7142 72.7251 76.7624 72.7251 76.8123 72.7268C78.4851 66.6329 80.1561 60.5406 81.8685 54.3056C78.0497 55.956 74.1999 56.9627 70.1831 57.6115C72.3636 62.697 74.5148 67.7102 76.666 72.7234ZM37.2335 55.197C37.0614 55.5085 36.9478 55.703 36.8463 55.9026C35.4558 58.6304 34.1237 61.3891 32.6506 64.0721C32.0362 65.1907 32.0655 66.1768 32.5938 67.2352C32.8278 67.7033 33.0791 68.1714 33.3889 68.5913C34.7983 70.4981 36.7241 71.7665 38.7927 72.8249C39.9544 73.4203 41.1728 73.9057 42.5393 74.5183C40.7408 67.9666 39.0027 61.6403 37.2335 55.197ZM78.4937 74.3772C81.218 73.6578 85.0351 71.424 86.8576 69.5C87.7163 68.593 88.3892 67.5708 88.7265 66.3472C88.9038 65.707 88.8814 65.1408 88.5544 64.5178C87.0589 61.6644 85.6168 58.7835 84.1539 55.9147C84.049 55.7082 83.9319 55.5085 83.7616 55.1936C81.9872 61.6541 80.2542 67.9683 78.4937 74.3772ZM65.0151 39.1507C65.0392 39.1783 64.9566 39.075 64.8619 38.9821C57.756 31.8745 50.6484 24.7686 43.5409 17.6645C43.3963 17.5199 43.2448 17.3736 43.0728 17.2652C42.5324 16.9227 42.0109 17.0071 41.5721 17.4373C41.1453 17.8555 41.1074 18.3752 41.4051 18.8812C41.5531 19.1325 41.7734 19.3459 41.9834 19.5541C48.9585 26.5326 55.9353 33.5094 62.9138 40.4862C63.0859 40.6583 63.2666 40.8218 63.4438 40.9905C63.4008 40.9216 63.3578 40.8545 63.3165 40.7857C63.8723 40.2522 64.4265 39.7169 65.0151 39.1507ZM63.6951 34.8449C63.8173 34.7365 63.8896 34.678 63.9532 34.6143C69.0352 29.534 74.1173 24.452 79.1958 19.37C79.3249 19.2409 79.4574 19.1084 79.5521 18.9552C79.8791 18.4286 79.8653 17.8916 79.435 17.4459C79.0082 17.0036 78.4747 16.9159 77.9395 17.2669C77.6934 17.4287 77.4783 17.6404 77.2701 17.8503C72.3481 22.7671 67.4279 27.6857 62.5076 32.6059C62.3338 32.7797 62.1669 32.9639 62.0189 33.1205C62.5885 33.7039 63.1255 34.2563 63.6951 34.8449ZM52.7635 47.4544C54.7065 47.4923 56.2536 46.0071 56.3121 44.0486C56.3689 42.1796 54.777 40.5688 52.8478 40.543C50.972 40.5189 49.3921 42.0695 49.3698 43.9591C49.3474 45.8539 50.8636 47.4165 52.7635 47.4544ZM68.1386 47.4561C70.0472 47.463 71.6029 45.9382 71.6253 44.0366C71.6477 42.116 70.0799 40.543 68.1421 40.5413C66.2765 40.5396 64.7208 42.1005 64.6864 44.009C64.6519 45.8728 66.2318 47.4492 68.1386 47.4561ZM32.1205 49.5316C32.1205 53.1525 32.1205 56.7889 32.1205 60.6284C33.5197 57.8817 34.8242 55.3192 36.1011 52.8135C34.7433 51.6931 33.4302 50.6107 32.1205 49.5316ZM88.8745 60.6267C88.8745 56.7597 88.8745 53.1164 88.8745 49.5299C87.5563 50.6175 86.2432 51.7 84.8922 52.8135C86.1761 55.333 87.4806 57.8921 88.8745 60.6267ZM56.0161 39.1266C56.6047 39.7273 57.1416 40.278 57.6803 40.8287C58.0245 40.4897 58.5081 40.0147 58.9142 39.6171C58.3515 39.0268 57.8077 38.4555 57.2793 37.9013C56.8164 38.3522 56.3448 38.81 56.0161 39.1266Z" fill="black"/>
</svg>
