<svg width="120" height="100" viewBox="0 0 120 100" fill="none" xmlns="http://www.w3.org/2000/svg">
<rect width="120" height="100" fill="white"/>
<path d="M27.5471 30.8581C29.403 30.5951 33.86 29.5137 36.1835 28.9438C37.1571 25.4794 39.2803 22.4492 42.2041 20.3512C45.1045 18.0008 48.6201 16.5347 52.3311 16.128C54.6869 15.8158 57.0833 16.0766 59.3169 16.8881C61.5505 17.6996 63.5554 19.038 65.1614 20.7896C67.1647 23.1134 68.6714 25.8226 69.5887 28.7503C70.5059 31.6781 70.8145 34.7626 70.4953 37.814C69.8249 40.5279 68.5004 43.0364 66.6374 45.1206C64.5769 47.7802 64.5039 48.2186 65.1761 48.7885C67.6311 51.0536 76.3259 50.0452 79.5554 47.6925C86.2044 42.8409 90.413 41.3796 93.1895 42.9579C96.7552 44.9452 96.5067 51.3166 95.8491 58.2286C94.3878 74.4493 78.4156 84.7516 64.4162 85H63.4517C46.0474 85 32.574 76.4659 31.931 64.9215C31.5073 57.0888 35.7159 52.6464 38.7846 49.4169C40.0502 48.3156 41.0495 46.9416 41.7073 45.3983C41.7845 45.0213 41.7841 44.6325 41.7063 44.2557C41.6284 43.8788 41.4746 43.5218 41.2543 43.2063C40.898 43.3313 40.5312 43.4243 40.1583 43.4839C39.366 43.6148 38.5647 43.6833 37.7617 43.6885C35.1755 43.5898 32.646 42.9013 30.3666 41.6755C28.0871 40.4496 26.1181 38.719 24.6098 36.6157C24.2657 36.0934 24.0597 35.4923 24.0112 34.8687C23.9626 34.2451 24.0731 33.6194 24.3322 33.0501C24.6341 32.4389 25.0887 31.9161 25.6519 31.532C26.2151 31.148 26.8679 30.9159 27.5471 30.8581ZM27.8686 33.7808C32.4661 34.7316 37.1622 35.1193 41.8534 34.9352C40.9766 32.9917 39.4276 31.4573 38.3755 31.4573H38.2878C37.3818 31.6765 30.5428 33.4008 27.9563 33.7662L27.8686 33.7808ZM41.0205 51.4481C38.0101 54.6192 34.6053 58.214 34.9706 64.79C35.5259 74.7854 48.4878 82.4135 64.4746 82.092C80.7829 81.7851 91.9913 69.3347 92.9265 58.0241C93.248 54.3854 93.9202 46.7865 91.7136 45.5444C90.8222 45.0475 88.2795 44.9599 81.236 50.1037C77.3342 53.0263 66.915 54.4877 63.1448 50.9805C60.3975 48.4378 62.5749 45.6321 64.3285 43.3816C65.8887 41.6599 67.0159 39.5909 67.6165 37.3464C67.8413 34.7438 67.5504 32.1224 66.7605 29.6323C65.9706 27.1423 64.6973 24.8326 63.0133 22.8355C61.7117 21.4034 60.078 20.3133 58.256 19.6609C56.434 19.0086 54.4797 18.8141 52.5649 19.0945C49.4072 19.4401 46.4174 20.6938 43.9577 22.704C41.8831 24.2459 40.2585 26.3144 39.2523 28.6954C42.0434 29.353 44.5422 32.7432 45.1998 36.075C45.2082 36.1869 45.2082 36.2993 45.1998 36.4111C45.4002 37.3546 45.3721 38.3322 45.1179 39.2626C44.8637 40.193 44.3908 41.0491 43.7385 41.7596C44.1728 42.3748 44.4816 43.0697 44.6471 43.8044C44.8126 44.5391 44.8316 45.2992 44.703 46.0412C44.2354 47.9848 42.7156 49.5922 40.962 51.4335L41.0205 51.4481ZM39.8368 40.6344C40.5644 40.608 41.2536 40.3012 41.7602 39.7782C42.2668 39.2553 42.5515 38.5567 42.5548 37.8286C41.8388 37.8286 40.8743 37.9309 39.6322 37.9309C36.0053 37.9075 32.3872 37.5702 28.8184 36.9226C30.2336 38.3463 31.9605 39.4215 33.8626 40.0631C35.7647 40.7047 37.7899 40.8953 39.7783 40.6197L39.8368 40.6344Z" fill="black"/>
<path d="M48.3563 30.259C47.1457 30.259 46.1643 29.2776 46.1643 28.067C46.1643 26.8564 47.1457 25.875 48.3563 25.875C49.5669 25.875 50.5483 26.8564 50.5483 28.067C50.5483 29.2776 49.5669 30.259 48.3563 30.259Z" fill="black"/>
<path d="M49.3354 59.193C49.7079 59.2543 50.0423 59.4575 50.2684 59.7598C50.4945 60.0622 50.5948 60.4404 50.5483 60.8151C50.3869 62.0576 50.4855 63.3201 50.8376 64.5225C51.1898 65.7249 51.7879 66.8411 52.5941 67.8002C54.6546 70.0068 57.9425 71.1758 62.4726 71.0297C65.6366 70.9412 68.7194 70.0085 71.4018 68.3281C74.0842 66.6478 76.2686 64.2809 77.7288 61.4727C73.6283 60.0179 69.1795 59.8597 64.9861 61.0197C64.8036 61.1101 64.6043 61.1614 64.4008 61.1702C64.1974 61.1791 63.9943 61.1453 63.8047 61.0711C63.6151 60.9969 63.443 60.8838 63.2996 60.7392C63.1563 60.5946 63.0447 60.4217 62.972 60.2314C62.8994 60.0412 62.8674 59.8378 62.8779 59.6345C62.8885 59.4311 62.9414 59.2322 63.0334 59.0505C63.1253 58.8688 63.2542 58.7083 63.4118 58.5793C63.5694 58.4504 63.7523 58.3558 63.9486 58.3016C64.2262 58.1847 70.9921 55.6712 80.3007 59.2807C80.4824 59.35 80.6483 59.4549 80.7889 59.5892C80.9295 59.7236 81.0419 59.8846 81.1194 60.0628C81.197 60.2411 81.2382 60.4331 81.2407 60.6275C81.2431 60.8219 81.2067 61.0148 81.1337 61.195C80.9145 61.7211 75.8291 73.8062 62.5165 73.9523H62.1658C56.9489 73.9523 53.0179 72.491 50.4752 69.7437C49.394 68.4771 48.5887 66.9991 48.1107 65.4039C47.6326 63.8087 47.4923 62.1314 47.6987 60.479C47.7204 60.2865 47.7801 60.1003 47.8744 59.9311C47.9687 59.762 48.0957 59.6132 48.248 59.4936C48.4003 59.3739 48.5748 59.2857 48.7615 59.2341C48.9482 59.1825 49.1432 59.1686 49.3354 59.193Z" fill="black"/>
</svg>
