<svg width="120" height="100" viewBox="0 0 120 100" fill="none" xmlns="http://www.w3.org/2000/svg">
<rect width="120" height="100" fill="white"/>
<path d="M25 60.3852C25.2842 58.8583 26.212 57.7438 27.2905 56.6979C29.04 54.9997 30.7741 53.2862 32.4568 51.523C33.7544 50.162 35.2848 49.5218 37.1524 49.5988C38.0614 49.6365 38.9756 49.6194 39.8863 49.6023C41.5742 49.5697 43.0053 50.1329 44.1539 51.3826C44.5066 51.7678 44.8643 52.1478 45.1862 52.4936C47.8995 49.3558 50.3868 46.1323 53.2404 43.277C56.0958 40.4182 59.3175 37.9274 62.5153 35.1559C62.1558 34.8358 61.7312 34.4712 61.3221 34.0912C60.117 32.9699 59.5777 31.5696 59.6051 29.9348C59.6257 28.6372 59.6085 27.3379 59.6616 26.042C59.7147 24.753 60.3138 23.6916 61.2126 22.7929C63.2719 20.7284 65.3398 18.6725 67.3992 16.608C68.4845 15.5193 69.7855 14.98 71.3262 15.0006C72.4646 15.016 73.6047 15.0108 74.743 15.0023C76.2324 14.9903 77.5043 15.5056 78.5553 16.5566C83.518 21.5159 88.4807 26.4768 93.4399 31.4395C94.5098 32.5094 95.02 33.8036 94.9994 35.3168C94.984 36.433 94.984 37.5491 94.9994 38.6652C95.02 40.2059 94.4841 41.5086 93.3954 42.5939C91.3309 44.6533 89.2698 46.7161 87.2105 48.7806C86.2553 49.7375 85.1169 50.323 83.7594 50.3606C82.3266 50.4 80.8886 50.4 79.4558 50.3606C78.0692 50.323 76.9154 49.7187 75.9602 48.7258C75.5664 48.3167 75.1881 47.8921 74.6626 47.3238C69.8471 54.113 64.133 59.8391 57.2907 64.6786C57.8659 65.1904 58.3195 65.567 58.7423 65.9761C59.6736 66.8783 60.295 67.9602 60.3327 69.2749C60.3772 70.8429 60.372 72.4161 60.3241 73.9842C60.2864 75.2493 59.6839 76.2935 58.8057 77.1751C56.7326 79.2567 54.6442 81.3246 52.5745 83.4114C51.7443 84.2485 50.7309 84.7175 49.6062 84.9914C47.8293 84.9914 46.0524 84.9914 44.2738 84.9914C42.7468 84.6405 41.6409 83.6699 40.5693 82.5897C36.1989 78.1799 31.808 73.7908 27.3983 69.4221C26.3216 68.3488 25.3509 67.2429 25 65.7159C25 63.939 25 62.1621 25 60.3852ZM92.293 37.912C92.293 36.849 92.2844 35.9913 92.2964 35.1337C92.3067 34.4318 92.0533 33.8515 91.5603 33.3602C86.5822 28.3873 81.6178 23.4006 76.609 18.4585C76.1998 18.0545 75.5082 17.7892 74.9228 17.7395C73.656 17.6317 72.3704 17.6402 71.1019 17.7378C70.5336 17.7806 69.8591 18.0169 69.4585 18.4003C67.2708 20.4939 65.1532 22.6594 63.0134 24.8026C62.5221 25.2939 62.2979 25.8897 62.3116 26.5898C62.3287 27.5228 62.3869 28.4643 62.2979 29.3887C62.1695 30.7376 62.6967 31.6997 63.6434 32.6327C68.3784 37.3009 73.0654 42.017 77.7542 46.7298C78.4064 47.3854 79.1237 47.7261 80.0601 47.6884C81.106 47.6439 82.1554 47.6473 83.2013 47.6884C84.1137 47.7244 84.8139 47.3871 85.4438 46.7469C87.2464 44.9118 89.0781 43.1024 90.8961 41.2826C91.0502 41.1286 91.1922 40.9608 91.372 40.764C89.2613 38.6652 87.1951 36.611 85.1323 34.5534C84.2233 33.6478 84.0932 32.8963 84.7231 32.2543C85.3668 31.5987 86.1029 31.7202 87.0187 32.6344C88.7255 34.3394 90.4305 36.0461 92.293 37.912ZM27.7047 62.0782C27.7047 63.1191 27.7184 63.9527 27.7013 64.7864C27.6859 65.5379 27.9529 66.1473 28.4836 66.678C33.4326 71.615 38.3747 76.5588 43.3151 81.5061C43.8441 82.0368 44.4535 82.3021 45.2067 82.2901C46.3913 82.273 47.5759 82.2713 48.7588 82.2901C49.512 82.3038 50.13 82.0487 50.6573 81.5198C52.7474 79.4227 54.841 77.3326 56.9363 75.239C57.4448 74.7306 57.6964 74.1297 57.6861 73.4022C57.669 72.1953 57.6707 70.9884 57.6861 69.7816C57.6947 69.0797 57.4602 68.4908 56.9706 67.9995C51.9788 63.0078 46.987 58.0177 41.9953 53.026C41.504 52.5347 40.9151 52.2984 40.2132 52.307C39.0526 52.3207 37.8903 52.3361 36.7296 52.3019C35.8703 52.2762 35.1992 52.5912 34.6052 53.1937C32.765 55.0562 30.9059 56.8999 29.0554 58.7538C28.9167 58.8925 28.7952 59.0466 28.636 59.2263C30.7364 61.3199 32.8009 63.3758 34.8637 65.4335C35.771 66.3373 35.9028 67.094 35.2763 67.7325C34.6326 68.3881 33.8948 68.2683 32.9807 67.3542C31.2739 65.6526 29.5689 63.9459 27.7047 62.0782ZM55.5515 62.626C62.2243 57.9424 67.9401 52.218 72.6409 45.5435C69.9225 42.8302 67.1698 40.0826 64.4445 37.3625C57.77 42.0393 52.0695 47.7791 47.3654 54.44C50.0787 57.1567 52.8296 59.9076 55.5515 62.626Z" fill="black"/>
<path d="M82.8384 31.6654C82.1314 31.6808 81.4724 31.0303 81.4775 30.3182C81.4826 29.6317 82.1006 29.0052 82.7888 28.9898C83.4735 28.9744 84.1086 29.5718 84.1446 30.2685C84.1822 30.9824 83.5591 31.6483 82.8384 31.6654Z" fill="black"/>
<path d="M37.1833 68.3264C37.8937 68.3264 38.5408 68.9906 38.5202 69.6976C38.4997 70.3875 37.8697 71.002 37.185 71.0003C36.466 71.0003 35.8292 70.3447 35.8497 69.6291C35.8703 68.9376 36.4951 68.3264 37.1833 68.3264Z" fill="black"/>
</svg>
