<svg width="31" height="31" viewBox="0 0 31 31" fill="none" xmlns="http://www.w3.org/2000/svg">
<path d="M26.8917 14.3648C26.8917 14.9516 26.8917 15.5384 26.8917 16.1252C26.8062 16.3356 26.8207 16.5614 26.7895 16.7804C26.4569 19.1045 25.5239 21.1559 23.9556 22.9019C22.1018 24.9659 19.7973 26.2196 17.0499 26.6503C16.7644 26.6951 16.4707 26.6834 16.1933 26.7779C15.6065 26.7779 15.0196 26.7779 14.4328 26.7779C14.3934 26.7119 14.326 26.7367 14.2699 26.7309C13.8282 26.6865 13.3889 26.6245 12.9554 26.5295C10.1559 25.9156 7.86821 24.4768 6.13839 22.1974C4.22079 19.6696 3.4751 16.8039 3.88821 13.6612C4.21807 11.1525 5.28954 8.98075 7.06189 7.17325C9.22247 4.96942 11.8591 3.79805 14.9418 3.67635C17.192 3.58767 19.3059 4.11657 21.2276 5.29382C24.3226 7.18954 26.1773 9.93766 26.7664 13.5296C26.8121 13.8074 26.8003 14.0938 26.8917 14.3648ZM18.4725 14.2652C18.4725 14.2643 18.4725 14.2639 18.4725 14.263C17.8481 14.263 17.2236 14.263 16.5992 14.263C16.2942 14.263 16.2942 14.263 16.2942 13.9612C16.2942 12.7202 16.2915 11.4787 16.2961 10.2376C16.297 9.91775 16.2065 9.64222 15.9581 9.43636C15.6526 9.18299 15.3042 9.13277 14.9441 9.29248C14.5735 9.45717 14.3794 9.75804 14.378 10.1661C14.3744 11.4298 14.3762 12.6939 14.3762 13.9576C14.3762 14.263 14.3762 14.263 14.0748 14.263C12.8337 14.263 11.5921 14.2657 10.351 14.2612C10.0311 14.2598 9.75594 14.3499 9.54916 14.5987C9.29532 14.9041 9.2451 15.2525 9.40482 15.6122C9.56907 15.9823 9.87042 16.1773 10.2786 16.1786C11.5423 16.1822 12.8065 16.1804 14.0703 16.1809C14.3762 16.1809 14.3762 16.1809 14.3762 16.4817C14.3762 17.7305 14.378 18.9792 14.3757 20.2279C14.3748 20.6641 14.5617 20.9849 14.9603 21.16C15.5997 21.4409 16.2875 20.9758 16.2915 20.2546C16.2997 18.9756 16.2974 17.697 16.2902 16.418C16.2893 16.2329 16.3372 16.175 16.5277 16.1764C17.7689 16.1845 19.0105 16.1809 20.2516 16.18C20.3865 16.18 20.5222 16.1849 20.6548 16.1456C21.1177 16.0094 21.3964 15.5809 21.3407 15.0873C21.2901 14.6381 20.9054 14.2757 20.4358 14.2671C19.7819 14.2566 19.1272 14.2652 18.4725 14.2652Z" fill="#2196F2"/>
<path d="M18.4717 14.2651C19.1264 14.2651 19.7807 14.2561 20.4354 14.2683C20.9051 14.2769 21.2897 14.6389 21.3404 15.0886C21.396 15.5822 21.1173 16.0107 20.6544 16.1468C20.5219 16.1857 20.3866 16.1808 20.2513 16.1812C19.0101 16.1817 17.7685 16.1857 16.5274 16.1776C16.3369 16.1762 16.2885 16.2346 16.2898 16.4192C16.2971 17.6982 16.2989 18.9768 16.2912 20.2559C16.2867 20.9771 15.5989 21.4422 14.96 21.1612C14.5618 20.9861 14.3745 20.6653 14.3754 20.2292C14.3777 18.9805 14.3758 17.7317 14.3758 16.483C14.3758 16.1821 14.3758 16.1821 14.07 16.1821C12.8062 16.1817 11.542 16.1839 10.2782 16.1799C9.87008 16.1785 9.56918 15.9835 9.40448 15.6134C9.24475 15.2537 9.29498 14.9053 9.54882 14.5999C9.75515 14.3516 10.0307 14.2615 10.3506 14.2624C11.5918 14.2669 12.8334 14.2642 14.0745 14.2642C14.3754 14.2642 14.3758 14.2642 14.3758 13.9588C14.3763 12.6952 14.3745 11.4311 14.3777 10.1674C14.379 9.75929 14.5731 9.45842 14.9437 9.29373C15.3034 9.13357 15.6518 9.18379 15.9577 9.43761C16.2061 9.64392 16.2971 9.91945 16.2957 10.2389C16.2912 11.4799 16.2939 12.7214 16.2939 13.9625C16.2939 14.2642 16.2939 14.2642 16.5989 14.2642C17.2233 14.2642 17.8477 14.2642 18.4721 14.2642C18.4717 14.2638 18.4717 14.2647 18.4717 14.2651Z" fill="#F9F9F9"/>
</svg>
