<svg width="31" height="31" viewBox="0 0 31 31" fill="none" xmlns="http://www.w3.org/2000/svg">
<path d="M25.344 7.58027C25.4023 6.85003 25.4607 6.11944 25.5187 5.38917C25.556 4.92141 25.3379 4.65786 24.8836 4.62003C22.2906 4.40408 19.6975 4.18814 17.1045 3.9722C16.0944 3.88807 15.084 3.80323 14.0738 3.72015C13.7117 3.69035 13.4259 3.93461 13.3959 4.30107C13.3345 5.05758 13.2767 5.81405 13.2177 6.57041C13.2156 6.5877 13.2136 6.60498 13.2122 6.62232C12.9783 9.58408 12.744 12.5458 12.5107 15.5073C12.4841 15.845 12.7432 16.1455 13.0819 16.1737C16.7117 16.4764 20.3412 16.7786 23.9711 17.0806C24.3216 17.1098 24.6132 16.8534 24.6418 16.4914C24.7131 15.5922 24.7842 14.6927 24.8549 13.7935C25.0181 11.7226 25.181 9.65124 25.344 7.58027Z" fill="#FEFEFE"/>
<path d="M25.3443 7.57988C25.1814 9.65085 25.0184 11.7222 24.8552 13.7931C24.7845 14.6923 24.7135 15.5918 24.6421 16.491C24.6135 16.8527 24.3216 17.1093 23.9714 17.0802C20.3415 16.7782 16.712 16.476 13.0822 16.1733C12.7435 16.1451 12.4844 15.8447 12.5111 15.5069C12.744 12.5451 12.9783 9.58332 13.2125 6.62193C13.2139 6.60459 13.2163 6.58734 13.218 6.57003C13.2557 6.57422 13.2934 6.57945 13.3312 6.5826C17.2978 6.91293 21.264 7.24323 25.2306 7.57356C25.2684 7.57671 25.3064 7.57777 25.3443 7.57988ZM18.7437 13.7198C20.2722 13.8471 21.8008 13.9744 23.329 14.1016C23.5461 14.1197 23.6129 14.0621 23.6306 13.8419C23.7686 12.0952 23.9065 10.3486 24.0445 8.60187C24.0626 8.37265 24.0079 8.30771 23.7816 8.28887C20.7374 8.03535 17.6932 7.78183 14.6486 7.52828C14.4223 7.50944 14.3585 7.56416 14.3404 7.79372C14.2027 9.53624 14.0651 11.2784 13.9275 13.0209C13.9087 13.2588 13.9615 13.3215 14.1959 13.341C15.7119 13.4673 17.2276 13.5935 18.7437 13.7198ZM19.8088 15.0623C20.9411 15.1566 22.0739 15.2509 23.2062 15.3452C23.2441 15.3483 23.2821 15.3536 23.3198 15.3533C23.4355 15.3521 23.514 15.279 23.525 15.1661C23.536 15.0484 23.4669 14.9596 23.3467 14.9401C23.3091 14.9342 23.2711 14.9328 23.2333 14.9296C20.9597 14.7403 18.6866 14.5499 16.4127 14.3648C16.2915 14.355 16.2558 14.3241 16.274 14.1979C16.2985 14.0251 16.2242 13.9246 16.0909 13.9163C15.963 13.9085 15.8761 13.9934 15.8764 14.1613C15.8768 14.302 15.823 14.317 15.7032 14.3057C15.1566 14.2539 14.6089 14.2111 14.0614 14.1665C13.8958 14.1531 13.803 14.2441 13.8176 14.3986C13.8282 14.5108 13.8983 14.57 14.0404 14.5819C14.5625 14.6261 15.0847 14.6692 15.6064 14.7126C15.8128 14.7298 15.8128 14.7298 15.8117 14.9367C15.8111 15.0609 15.8849 15.1512 15.9949 15.1618C16.1052 15.172 16.1952 15.0961 16.2147 14.9745C16.2187 14.949 16.2232 14.9225 16.2208 14.8968C16.2114 14.7871 16.2558 14.7636 16.3608 14.773C17.5098 14.8722 18.6591 14.9665 19.8088 15.0623Z" fill="#EDF4F7"/>
<path d="M25.3439 7.57993C25.306 7.57782 25.268 7.57675 25.2302 7.5736C21.2637 7.24328 17.2974 6.91297 13.3309 6.58265C13.2931 6.5795 13.2554 6.57427 13.2177 6.57008C13.2767 5.81371 13.3344 5.05724 13.3959 4.30073C13.4259 3.93427 13.7117 3.69001 14.0734 3.71978C15.0836 3.80252 16.094 3.88771 17.1042 3.97183C19.6972 4.18777 22.2902 4.40372 24.8833 4.61966C25.3375 4.65749 25.5557 4.92104 25.5184 5.38881C25.4607 6.1191 25.4023 6.84969 25.3439 7.57993ZM22.3789 6.50052C23.0395 6.55553 23.7 6.61124 24.3607 6.66521C24.5269 6.6787 24.6067 6.61031 24.6214 6.44189C24.6429 6.19131 24.6626 5.94095 24.6808 5.69009C24.6937 5.51385 24.6268 5.43428 24.4526 5.41977C23.1359 5.30942 21.8187 5.19973 20.5019 5.09077C20.3273 5.07622 20.2489 5.14404 20.2343 5.32014C20.2138 5.56208 20.195 5.8038 20.1766 6.0459C20.1613 6.24778 20.2229 6.32062 20.4225 6.33725C21.0746 6.3919 21.7267 6.44621 22.3789 6.50052ZM15.3519 5.29122C15.3789 4.95734 15.1259 4.64515 14.8039 4.61589C14.4717 4.58579 14.1666 4.8466 14.1392 5.1843C14.1122 5.51818 14.3656 5.83074 14.6873 5.85963C15.0197 5.8901 15.3245 5.62926 15.3519 5.29122ZM17.9287 6.12992C18.2539 6.15769 18.5576 5.89746 18.5861 5.56684C18.6154 5.22582 18.361 4.91283 18.0318 4.88506C17.7066 4.85728 17.4025 5.11783 17.3744 5.44813C17.3454 5.78919 17.5995 6.1018 17.9287 6.12992ZM16.9692 5.42626C16.9966 5.09275 16.7432 4.78019 16.4222 4.75067C16.0901 4.72022 15.7847 4.98065 15.7571 5.31763C15.7298 5.6501 15.9847 5.96523 16.3039 5.99461C16.6354 6.02465 16.9416 5.76323 16.9692 5.42626Z" fill="#33658A"/>
<path d="M18.7429 13.72C17.2272 13.5938 15.7112 13.4675 14.1955 13.3413C13.9611 13.3218 13.9083 13.2587 13.9271 13.0212C14.0647 11.2787 14.2023 9.53649 14.3399 7.79397C14.3581 7.56441 14.4216 7.50965 14.6482 7.52853C17.6924 7.78205 20.7366 8.03557 23.7812 8.28911C24.0075 8.30796 24.0622 8.3729 24.0441 8.60211C23.9061 10.3488 23.7681 12.0955 23.6302 13.8422C23.6128 14.0624 23.546 14.12 23.3285 14.1019C21.7997 13.9745 20.2715 13.8473 18.7429 13.72ZM17.9742 10.7302C17.9479 11.0631 17.9227 11.3958 17.8947 11.7285C17.8866 11.8217 17.9028 11.9016 17.982 11.9567C18.0616 12.0122 18.1393 11.9967 18.2206 11.9536C18.7597 11.6658 19.3003 11.381 19.8391 11.0925C20.041 10.9844 20.0526 10.8206 19.8693 10.6797C19.386 10.3088 18.9003 9.941 18.4174 9.56987C18.344 9.5135 18.2716 9.48304 18.1841 9.52741C18.0963 9.57176 18.0577 9.64324 18.051 9.74496C18.0288 10.0737 18.0001 10.4018 17.9742 10.7302Z" fill="#FE6B6B"/>
<path d="M19.8078 15.0621C18.6586 14.9664 17.5092 14.8721 16.3599 14.7726C16.2549 14.7635 16.2105 14.7867 16.2199 14.8963C16.2219 14.922 16.2178 14.9485 16.2138 14.974C16.1943 15.0953 16.1043 15.1715 15.994 15.1613C15.884 15.1511 15.8102 15.0605 15.8108 14.9363C15.8119 14.7294 15.8119 14.7294 15.6055 14.7122C15.0834 14.6687 14.5613 14.6256 14.0396 14.5814C13.8974 14.5692 13.8273 14.51 13.8167 14.3981C13.8021 14.2437 13.895 14.1526 14.0605 14.166C14.608 14.2103 15.1554 14.253 15.7023 14.3052C15.8221 14.3166 15.8759 14.3019 15.8755 14.1608C15.8752 13.9929 15.9621 13.908 16.09 13.9159C16.2233 13.9242 16.2976 14.0246 16.2731 14.1974C16.2549 14.3237 16.2906 14.3546 16.4118 14.3643C18.6857 14.5495 20.9588 14.7398 23.2324 14.9292C23.2702 14.9323 23.3086 14.9334 23.3458 14.9397C23.466 14.9591 23.5354 15.048 23.5241 15.1657C23.5135 15.2786 23.4346 15.3516 23.3189 15.3528C23.2812 15.3531 23.2432 15.3479 23.2054 15.3447C22.0726 15.2508 20.9402 15.1565 19.8078 15.0621Z" fill="#33658A"/>
<path d="M22.3788 6.50054C21.7267 6.44623 21.0745 6.39226 20.4224 6.33761C20.2225 6.32096 20.1609 6.24777 20.1765 6.04627C20.195 5.80416 20.2137 5.56244 20.2342 5.3205C20.2491 5.14443 20.3272 5.07659 20.5018 5.09113C21.8187 5.20009 23.1358 5.30978 24.4525 5.42013C24.6268 5.43465 24.6939 5.51424 24.6807 5.69045C24.6622 5.94128 24.6428 6.19168 24.6213 6.44225C24.6066 6.61067 24.5268 6.67906 24.3606 6.66557C23.7 6.61091 23.0394 6.55555 22.3788 6.50054Z" fill="#DAE8ED"/>
<path d="M15.3506 5.29095C15.3232 5.62899 15.0184 5.88949 14.686 5.85971C14.3644 5.83048 14.111 5.51827 14.1381 5.18439C14.1654 4.84669 14.4702 4.58585 14.8026 4.61598C15.1246 4.64489 15.3776 4.95707 15.3506 5.29095Z" fill="#5A90B7"/>
<path d="M17.9286 6.13014C17.5994 6.10202 17.3454 5.78941 17.3744 5.44801C17.4025 5.11771 17.7065 4.8575 18.0317 4.88493C18.3609 4.91304 18.6152 5.22568 18.5859 5.56671C18.5574 5.89733 18.2537 6.15791 17.9286 6.13014Z" fill="#5A90B7"/>
<path d="M16.9695 5.42614C16.9419 5.76311 16.6357 6.02454 16.3043 5.99449C15.9851 5.96546 15.7303 5.64999 15.7576 5.31753C15.7852 4.98055 16.0906 4.72046 16.4227 4.75056C16.7436 4.78007 16.9966 5.0926 16.9695 5.42614Z" fill="#5A90B7"/>
<path d="M17.9751 10.73C18.0011 10.4016 18.0297 10.0734 18.0513 9.74464C18.0579 9.64292 18.0966 9.57109 18.1844 9.52709C18.2718 9.48306 18.3442 9.51318 18.4176 9.56955C18.9008 9.9407 19.3864 10.3085 19.8693 10.6793C20.0529 10.8203 20.0414 10.9837 19.8391 11.0922C19.3003 11.3806 18.7598 11.6655 18.2208 11.9532C18.1399 11.9964 18.0622 12.0119 17.9823 11.9564C17.903 11.9013 17.8869 11.8214 17.8949 11.7282C17.9236 11.3958 17.9488 11.0628 17.9751 10.73Z" fill="#DAE7EC"/>
<path d="M5.34125 9.28826C6.68512 9.13353 8.02898 8.9788 9.37285 8.82406C9.57736 10.6934 9.7819 12.5631 9.98641 14.4325C9.86633 14.4474 9.74606 14.4638 9.62587 14.4776C8.9766 14.5527 8.32713 14.6261 7.67801 14.7026C7.46257 14.7281 7.31582 14.8926 7.31304 15.101C7.31037 15.3007 7.46097 15.4756 7.66192 15.4999C7.71259 15.506 7.76539 15.4995 7.81686 15.4936C8.56963 15.4087 9.32198 15.3232 10.0747 15.238C10.1035 15.5014 10.1323 15.7651 10.1611 16.0285C10.041 16.0434 9.92072 16.0598 9.80052 16.0736C9.15125 16.1487 8.50178 16.2221 7.85266 16.2986C7.63722 16.3241 7.49047 16.4886 7.48769 16.697C7.48502 16.8967 7.63562 17.0716 7.83657 17.0959C7.88724 17.102 7.94005 17.0955 7.99151 17.0896C8.74428 17.0047 9.49663 16.9192 10.2494 16.834C10.2781 17.0974 10.3069 17.3611 10.3357 17.6245C10.2156 17.6394 10.0954 17.6558 9.97517 17.6696C9.3259 17.7448 8.67643 17.8181 8.02731 17.8946C7.81188 17.9202 7.66512 18.0846 7.66234 18.293C7.65967 18.4927 7.81027 18.6676 8.01122 18.6919C8.06189 18.698 8.1147 18.6915 8.16616 18.6856C8.91893 18.6007 9.67128 18.5152 10.424 18.43C10.4528 18.6934 10.4816 18.9571 10.5104 19.2205C10.3903 19.2354 10.27 19.2518 10.1498 19.2656C9.50055 19.3408 8.85108 19.4141 8.20197 19.4906C7.98653 19.5162 7.83977 19.6806 7.837 19.889C7.83433 20.0887 7.98492 20.2636 8.18587 20.288C8.23654 20.294 8.28935 20.2876 8.34081 20.2816C9.09358 20.1968 9.84593 20.1112 10.5987 20.026C10.6861 20.8301 10.7736 21.6342 10.8611 22.4383C10.8139 22.4452 10.7669 22.4535 10.7196 22.4589C9.50562 22.599 8.29196 22.7388 7.07791 22.8782C6.30565 22.9671 5.76734 22.5245 5.68046 21.7289C5.37277 18.9115 5.06504 16.0937 4.75734 13.2763C4.66056 12.3901 4.56106 11.5046 4.46808 10.618C4.41736 10.144 4.58784 9.76446 4.95779 9.47891C5.07359 9.38963 5.21263 9.34986 5.34125 9.28826Z" fill="#6492C6"/>
<path d="M14.8018 11.837C14.8081 11.8812 14.815 11.9251 14.8198 11.9695C15.1354 14.8595 15.4514 17.7497 15.7667 20.6397C15.8437 21.3453 15.3973 21.9201 14.711 21.9991C13.475 22.1418 12.2388 22.2837 11.0027 22.426C10.9554 22.4315 10.9078 22.4341 10.8603 22.4381C10.7728 21.634 10.6854 20.8299 10.5979 20.0258L10.5943 20.0183C10.8607 19.9891 11.1275 19.963 11.3934 19.9292C11.6008 19.9028 11.7393 19.7076 11.7154 19.489C11.6915 19.27 11.5147 19.1118 11.3065 19.1333C11.0399 19.1607 10.7741 19.196 10.508 19.2281L10.5099 19.22C10.4811 18.9566 10.4523 18.6928 10.4236 18.4294L10.4199 18.4219C11.2072 18.3327 11.9947 18.2456 12.7819 18.1521C12.9814 18.1284 13.1151 17.9277 13.0918 17.714C13.0685 17.5004 12.8948 17.3354 12.6951 17.3576C11.9077 17.4454 11.1209 17.5396 10.3336 17.6317L10.3355 17.6236C10.3068 17.3602 10.278 17.0964 10.2492 16.833L10.2456 16.8255C11.0329 16.7363 11.8204 16.6492 12.6075 16.5557C12.8071 16.532 12.9408 16.3312 12.9174 16.1176C12.8941 15.904 12.7205 15.739 12.5208 15.7612C11.7333 15.849 10.9466 15.9432 10.1593 16.0353L10.1612 16.0272C10.1324 15.7638 10.1036 15.5 10.0749 15.2366L10.0712 15.2291C10.8585 15.1399 11.646 15.0528 12.4328 14.9593C12.6324 14.9356 12.7661 14.7349 12.7428 14.5212C12.7194 14.3076 12.5458 14.1426 12.3461 14.1649C11.5586 14.2527 10.7719 14.3468 9.98495 14.4389L9.98686 14.4308C9.78235 12.5614 9.57781 10.6917 9.37331 8.82231C9.89034 8.76278 10.407 8.70329 10.9241 8.64376C11.0238 9.5566 11.1231 10.4698 11.2235 11.3826C11.2798 11.8951 11.6439 12.1959 12.1402 12.1391C13.0275 12.0402 13.9148 11.9384 14.8018 11.837Z" fill="#467BB7"/>
<path d="M14.8004 11.8369C13.9135 11.9383 13.0263 12.0401 12.1394 12.1412C11.6434 12.1975 11.2791 11.8972 11.2228 11.3846C11.1228 10.4718 11.023 9.55865 10.9233 8.64581C10.9579 8.64184 10.9924 8.63786 11.0266 8.63392C11.1397 8.68065 11.2359 8.7538 11.3304 8.83147C12.4208 9.72957 13.5125 10.6265 14.6045 11.5226C14.7058 11.6052 14.7922 11.6946 14.8004 11.8369Z" fill="#6492C6"/>
<path d="M10.073 15.2377C9.32039 15.3233 8.56814 15.4088 7.81543 15.4933C7.76398 15.4992 7.71118 15.5057 7.66052 15.4996C7.45959 15.4752 7.30902 15.3004 7.31169 15.1007C7.31446 14.8923 7.46154 14.7278 7.6766 14.7023C8.32563 14.6258 8.975 14.5524 9.62418 14.4773C9.74436 14.4635 9.86465 14.4475 9.98467 14.4322L9.98276 14.4404C10.0115 14.7038 10.0403 14.9668 10.069 15.2302L10.073 15.2377Z" fill="#7CACE2"/>
<path d="M10.2478 16.834C9.49519 16.9196 8.74295 17.0051 7.99024 17.0896C7.93878 17.0955 7.88599 17.102 7.83532 17.0959C7.6344 17.0716 7.48382 16.8967 7.48649 16.697C7.48926 16.4886 7.63634 16.3241 7.8514 16.2986C8.50043 16.2221 9.14981 16.1488 9.79899 16.0737C9.91916 16.0598 10.0395 16.0438 10.1595 16.0285L10.1576 16.0367C10.1863 16.3001 10.2151 16.5631 10.2438 16.8265L10.2478 16.834Z" fill="#7CACE2"/>
<path d="M10.4216 18.4295C9.66902 18.5151 8.91677 18.6006 8.16407 18.6851C8.11261 18.6911 8.05982 18.6975 8.00915 18.6914C7.80823 18.6671 7.65765 18.4922 7.66032 18.2925C7.66309 18.0841 7.81017 17.9196 8.02523 17.8941C8.67426 17.8176 9.32363 17.7443 9.97282 17.6692C10.093 17.6553 10.2133 17.6393 10.3333 17.6241L10.3314 17.6322C10.3602 17.8956 10.3889 18.1587 10.4177 18.4221L10.4216 18.4295Z" fill="#7CACE2"/>
<path d="M10.5957 20.0254C9.84309 20.111 9.09085 20.1965 8.33814 20.281C8.28668 20.2869 8.23389 20.2934 8.18323 20.2873C7.9823 20.263 7.83172 20.0881 7.83439 19.8884C7.83716 19.68 7.98424 19.5155 8.1993 19.49C8.84833 19.4135 9.49771 19.3402 10.1469 19.2651C10.2671 19.2512 10.3874 19.2352 10.5074 19.22L10.5055 19.2281C10.5342 19.4915 10.563 19.7545 10.5917 20.0179L10.5957 20.0254Z" fill="#7CACE2"/>
<path d="M10.0711 15.2306C10.0423 14.9672 10.0136 14.7041 9.98485 14.4407C10.7717 14.3487 11.5583 14.2545 12.346 14.1667C12.546 14.1444 12.7196 14.3094 12.7426 14.5231C12.7659 14.7367 12.6322 14.9371 12.4327 14.9612C11.6457 15.0543 10.8582 15.141 10.0711 15.2306Z" fill="#568ECC"/>
<path d="M10.2454 16.8265C10.2167 16.5631 10.1879 16.3001 10.1592 16.0367C10.946 15.9446 11.7326 15.8504 12.5203 15.7626C12.7203 15.7403 12.8939 15.9053 12.9169 16.119C12.9403 16.3326 12.8065 16.5331 12.6071 16.5571C11.82 16.6502 11.0326 16.7373 10.2454 16.8265Z" fill="#568ECC"/>
<path d="M10.4199 18.4224C10.3911 18.159 10.3624 17.8959 10.3336 17.6325C11.1205 17.5405 11.9071 17.4463 12.6947 17.3585C12.8948 17.3362 13.0684 17.5012 13.0914 17.7149C13.1147 17.9285 12.981 18.1289 12.7815 18.153C11.9944 18.2461 11.207 18.3328 10.4199 18.4224Z" fill="#568ECC"/>
<path d="M10.594 20.0177C10.5652 19.7543 10.5365 19.4913 10.5078 19.2279C10.7738 19.1958 11.0396 19.1605 11.3062 19.1331C11.5144 19.1116 11.6914 19.2698 11.715 19.4888C11.7389 19.7074 11.6003 19.9022 11.3931 19.929C11.1272 19.9625 10.8604 19.9885 10.594 20.0177Z" fill="#568ECC"/>
<path d="M13.8413 24.0324C14.01 21.7334 14.1787 19.4342 14.3474 17.1352C14.3759 17.1332 14.3975 17.1205 14.3997 17.0899C14.4073 16.983 14.4595 16.8919 14.4999 16.7976C14.7281 16.2625 15.3438 15.8825 15.9104 15.9263C19.2737 16.1863 22.6367 16.4467 26 16.7061C26.1062 16.7143 26.2092 16.7385 26.3077 16.7746C26.8477 16.9726 27.1828 17.359 27.3074 17.9332C27.3149 17.9672 27.3114 18.0043 27.3569 18.0112C27.211 19.9991 27.0652 21.987 26.9193 23.9749C25.7263 22.5559 24.5337 21.1367 23.3402 19.718C22.9263 19.2259 22.3692 19.1836 21.8884 19.6064C20.9895 20.3965 20.0909 21.1869 19.1923 21.9772C18.9776 21.774 18.8045 21.533 18.613 21.3086C18.1838 20.8054 17.6354 20.7599 17.1426 21.1932C16.09 22.1188 15.0384 23.0445 13.9861 23.9699C13.9479 24.0035 13.907 24.0343 13.8674 24.0663C13.8588 24.0549 13.8499 24.0435 13.8413 24.0324ZM16.8858 19.8922C17.4853 19.9404 17.9998 19.4912 18.047 18.8785C18.0943 18.2654 17.6544 17.7332 17.0598 17.6843C16.4591 17.6347 15.9341 18.0928 15.8888 18.7061C15.8436 19.3155 16.2878 19.8441 16.8858 19.8922Z" fill="#EBEEF0"/>
<path d="M19.1919 21.9773C20.0905 21.187 20.9891 20.3966 21.8879 19.6065C22.3687 19.184 22.9256 19.226 23.3398 19.718C24.5333 21.1365 25.7259 22.5557 26.9188 23.9749C26.8814 24.4848 26.844 24.9947 26.8066 25.5046C26.7604 25.5426 26.7601 25.6019 26.7429 25.6526C26.5403 26.2517 25.9468 26.6953 25.3307 26.6612C24.5324 26.617 23.7357 26.5407 22.9382 26.4782C22.9067 26.4376 22.8766 26.3961 22.8437 26.3567C21.656 24.9428 20.4678 23.5292 19.2804 22.1151C19.2456 22.0735 19.1965 22.0399 19.1919 21.9773Z" fill="#388E3C"/>
<path d="M22.9382 26.4785C22.8875 26.4762 22.8367 26.4754 22.7862 26.4715C20.2705 26.2771 17.7551 26.0781 15.2391 25.8905C14.5125 25.8364 13.7834 25.1772 13.8508 24.2473C13.8553 24.1868 13.8615 24.1266 13.8672 24.0661C13.9068 24.0342 13.9477 24.0034 13.9859 23.9697C15.0379 23.0444 16.0898 22.1187 17.1421 21.1936C17.6352 20.76 18.1835 20.8058 18.6125 21.3089C18.804 21.5334 18.9771 21.7741 19.1918 21.9776C19.1961 22.0404 19.2455 22.074 19.2803 22.1154C20.4677 23.5298 21.6559 24.9431 22.8436 26.357C22.8765 26.3961 22.9067 26.4379 22.9382 26.4785Z" fill="#4CAE50"/>
<path d="M16.8852 19.8921C16.2873 19.8441 15.8431 19.3155 15.8883 18.7061C15.9338 18.0928 16.4586 17.6347 17.0592 17.6843C17.6537 17.7334 18.0933 18.2653 18.0462 18.8785C17.999 19.4911 17.4846 19.9406 16.8852 19.8921Z" fill="#FEC108"/>
</svg>
