<svg width="31" height="31" viewBox="0 0 31 31" fill="none" xmlns="http://www.w3.org/2000/svg">
<path d="M27.4439 11.2259C27.3483 11.5296 27.2997 11.8474 27.1652 12.1403C26.9842 12.5332 26.7451 12.8861 26.4409 13.1908C24.3874 15.2484 22.331 17.3032 20.2753 19.3586C20.2436 19.3903 20.2069 19.4163 20.1724 19.4445C19.5561 18.831 18.9398 18.217 18.323 17.6035C17.4992 16.7836 16.6748 15.9637 15.8511 15.1438C15.8499 15.1308 15.8494 15.1184 15.8494 15.1054C15.9161 15.0455 15.9862 14.9895 16.0495 14.9261C18.803 12.1736 21.5553 9.42052 24.3093 6.66911C24.3812 6.5973 24.4354 6.49496 24.5564 6.48761C25.3157 7.24473 26.126 7.95378 26.7993 8.79232C27.138 9.21357 27.3302 9.70945 27.4037 10.2483C27.4071 10.2749 27.4303 10.2986 27.4445 10.3235C27.4439 10.6243 27.4439 10.9251 27.4439 11.2259Z" fill="#5393CE"/>
<path d="M15.85 15.106C15.85 15.119 15.8505 15.1314 15.8517 15.1444C15.7923 15.2117 15.7369 15.283 15.6736 15.3463C13.5856 17.4362 11.4964 19.5243 9.40786 21.6141C9.15909 21.8629 9.16248 21.8002 9.41521 22.0546C9.98796 22.6302 10.563 23.203 11.1368 23.7775C12.089 24.7297 13.6432 24.9937 14.8628 24.4306C15.0918 24.3248 15.2795 24.1416 15.5328 24.0879C15.1528 24.4792 14.7734 24.871 14.3935 25.2623C13.7936 25.8815 13.1349 26.4079 12.2693 26.6069C12.1851 26.6324 12.0833 26.5764 12.0115 26.6612C11.6954 26.6612 11.38 26.6612 11.0639 26.6612C10.931 26.5747 10.771 26.5781 10.6252 26.5351C10.1666 26.4011 9.74258 26.1959 9.3909 25.8758C8.65476 25.2058 7.96555 24.4877 7.27237 23.7735C7.32609 23.7113 7.37641 23.6463 7.43464 23.5881C7.97007 23.0509 8.50267 22.5115 9.04545 21.9817C9.16701 21.8629 9.16531 21.7973 9.04488 21.6786C8.39694 21.0425 7.75692 20.3968 7.11519 19.7544C7.0677 19.7069 7.01682 19.6606 6.97667 19.6069C6.11275 18.4658 6.02907 16.9974 6.7573 15.7721C6.79575 15.7071 6.8325 15.6415 6.82402 15.5612C6.99759 15.3848 7.17004 15.2078 7.34474 15.0325C8.69434 13.6822 10.0445 12.3325 11.3947 10.9829C11.4472 10.9303 11.5043 10.8811 11.5598 10.8307C12.5899 11.8604 13.6195 12.8906 14.6508 13.9192C15.0477 14.3167 15.4497 14.7102 15.85 15.106Z" fill="#E55739"/>
<path d="M15.8465 15.1064C15.4462 14.7112 15.0448 14.3171 14.6462 13.9196C13.6149 12.8911 12.5853 11.8608 11.5552 10.8312C11.6049 10.7752 11.6513 10.7164 11.7039 10.6638C13.7065 8.66049 15.7097 6.65772 17.7117 4.65382C18.2223 4.14324 18.8109 3.77118 19.5272 3.63039C20.6207 3.41552 21.6039 3.66092 22.4396 4.39712C23.1831 5.05245 23.8581 5.7813 24.553 6.48753C24.432 6.49544 24.3777 6.59722 24.3059 6.66903C21.5519 9.42043 18.7996 12.1741 16.0461 14.9261C15.9833 14.99 15.9132 15.0465 15.8465 15.1064Z" fill="#669FD5"/>
<path d="M6.82099 15.5612C6.82947 15.6409 6.79272 15.7071 6.75428 15.7721C6.02661 16.998 6.10973 18.4664 6.97365 19.6069C7.01436 19.6606 7.06468 19.7064 7.11217 19.7545C7.75446 20.3968 8.39392 21.042 9.04186 21.6786C9.16229 21.7968 9.16398 21.863 9.04242 21.9817C8.50021 22.5115 7.96704 23.051 7.43162 23.5881C7.37395 23.6464 7.32363 23.7114 7.26935 23.7736C6.57165 23.0713 5.84965 22.3911 5.18079 21.6623C4.04039 20.4194 4.05904 18.4585 5.18814 17.2044C5.7066 16.6288 6.25899 16.0899 6.82099 15.5612Z" fill="#F26C52"/>
<path d="M15.5303 24.0876C15.277 24.1419 15.0893 24.3245 14.8603 24.4302C13.6413 24.9928 12.0865 24.7293 11.1343 23.7772C10.5605 23.2032 9.98545 22.6299 9.41271 22.0543C9.15998 21.7998 9.15658 21.8626 9.40536 21.6138C11.4934 19.524 13.5825 17.4358 15.671 15.346C15.7344 15.2826 15.7898 15.2114 15.8491 15.1441C16.6729 15.964 17.4973 16.7839 18.321 17.6037C18.9373 18.2172 19.5536 18.8313 20.1704 19.4448C19.9669 19.654 19.7656 19.8649 19.5593 20.0713C18.2866 21.3463 17.0122 22.6203 15.7383 23.8942C15.7016 23.9309 15.6609 23.9632 15.6219 23.9977C15.606 24.0129 15.5902 24.0288 15.5744 24.044C15.5591 24.0593 15.545 24.0734 15.5303 24.0876Z" fill="#CF4729"/>
<path d="M15.5754 24.0444C15.5913 24.0292 15.6071 24.0133 15.6229 23.998C15.6071 24.0133 15.5913 24.0286 15.5754 24.0444Z" fill="#E55739"/>
</svg>
