<svg width="26" height="26" viewBox="0 0 26 26" fill="none" xmlns="http://www.w3.org/2000/svg">
<path d="M13.2213 3.45511C16.4271 3.45511 19.6334 3.45606 22.8392 3.45129C22.9698 3.45129 22.9956 3.47706 22.9956 3.60778C22.9913 10.0176 22.9913 16.4275 22.9956 22.8373C22.9956 22.9681 22.9703 22.9938 22.8392 22.9938C19.6334 22.989 16.4271 22.99 13.2213 22.99C13.2213 22.6107 13.2213 22.2309 13.2213 21.8516C13.9962 21.8497 14.7711 21.845 15.5465 21.8478C15.668 21.8483 15.7072 21.8192 15.7072 21.6913C15.7029 20.135 15.7029 18.5792 15.7072 17.0229C15.7077 16.8931 15.6637 16.865 15.5436 16.8659C14.8385 16.8707 14.133 16.8688 13.4279 16.8674C13.359 16.8674 13.2883 16.8822 13.2213 16.8502C13.2213 16.4719 13.2218 16.0935 13.2218 15.7152C13.9842 15.7118 14.7472 15.7032 15.5096 15.7085C15.6685 15.7094 15.7086 15.6689 15.7077 15.51C15.7015 13.9909 15.701 12.4718 15.7082 10.9528C15.7091 10.7781 15.6637 10.7338 15.49 10.7352C14.7338 10.7419 13.9775 10.7323 13.2213 10.7285C13.2208 10.3502 13.2203 9.97183 13.2198 9.59349C13.2859 9.55819 13.3571 9.57488 13.4255 9.57488C14.1244 9.57345 14.8232 9.57107 15.5221 9.57679C15.656 9.57775 15.7082 9.55389 15.7072 9.40217C15.701 7.85875 15.7015 6.31533 15.7072 4.77191C15.7077 4.62592 15.6661 4.5949 15.5269 4.59586C14.7582 4.60063 13.9895 4.5949 13.2208 4.593C13.2213 4.2137 13.2213 3.83441 13.2213 3.45511ZM19.3736 4.59968C18.5983 4.59968 17.8229 4.60302 17.047 4.59634C16.9078 4.5949 16.8638 4.62735 16.8643 4.77334C16.8696 6.31104 16.87 7.84873 16.8643 9.38643C16.8638 9.53815 16.9078 9.57727 17.0566 9.57679C18.5949 9.57154 20.1332 9.57154 21.6716 9.57679C21.816 9.57727 21.85 9.53672 21.8495 9.39549C21.8443 7.85159 21.8447 6.30722 21.8495 4.76332C21.85 4.62878 21.8136 4.59443 21.6807 4.59586C20.912 4.60302 20.1428 4.59968 19.3736 4.59968ZM21.8471 13.2218C21.8471 12.4528 21.8433 11.6837 21.8505 10.9146C21.8519 10.7719 21.8151 10.7357 21.6721 10.7361C20.1332 10.7414 18.5949 10.7414 17.0561 10.7361C16.9083 10.7357 16.8643 10.7729 16.8648 10.9246C16.8705 12.4561 16.8705 13.9881 16.8648 15.52C16.8643 15.6722 16.9097 15.708 17.0566 15.7075C18.5954 15.7023 20.1337 15.7023 21.6725 15.7075C21.816 15.708 21.8519 15.6708 21.8505 15.5286C21.8433 14.76 21.8471 13.9909 21.8471 13.2218ZM21.8471 19.3707C21.8471 18.5887 21.8457 17.8073 21.8486 17.0253C21.849 16.9218 21.8395 16.8645 21.7089 16.865C20.1447 16.8693 18.581 16.8688 17.0169 16.8655C16.8983 16.865 16.8662 16.906 16.8662 17.0196C16.8691 18.5768 16.8696 20.1341 16.8653 21.6909C16.8648 21.8211 16.9107 21.8469 17.0298 21.8464C18.581 21.8431 20.1323 21.8421 21.6835 21.8473C21.8203 21.8478 21.851 21.8082 21.85 21.677C21.8438 20.9089 21.8471 20.1398 21.8471 19.3707Z" fill="#00A9EF" stroke="#00A9EF" stroke-width="0.732061"/>
<path d="M13.2214 21.8517C13.2214 22.231 13.2214 22.6108 13.2214 22.9901C9.96444 22.9901 6.70792 22.9901 3.45093 22.9901C3.45093 16.4781 3.45093 9.96667 3.45093 3.4552C6.70792 3.4552 9.96444 3.4552 13.2214 3.4552C13.2214 3.8345 13.2214 4.21427 13.2214 4.59356C12.4527 4.59547 11.6841 4.60215 10.9159 4.59643C10.7647 4.59547 10.7269 4.63793 10.7274 4.78631C10.7326 6.31685 10.7341 7.84739 10.726 9.37793C10.725 9.56352 10.7886 9.5931 10.9527 9.59167C11.7085 9.58595 12.4642 9.59215 13.2205 9.59406C13.221 9.9724 13.2214 10.3507 13.2219 10.7291C12.459 10.7305 11.6955 10.7358 10.9326 10.7296C10.7814 10.7281 10.726 10.7577 10.7264 10.9242C10.7331 12.4562 10.7331 13.9886 10.7264 15.5206C10.7255 15.6876 10.7814 15.7157 10.9326 15.7148C11.6955 15.7086 12.459 15.7143 13.2219 15.7157C13.2219 16.0941 13.2214 16.4724 13.2214 16.8508C12.459 16.8527 11.6965 16.8584 10.9345 16.8531C10.7838 16.8522 10.7264 16.8813 10.7269 17.0478C10.7336 18.585 10.7326 20.1222 10.7274 21.6595C10.7269 21.8069 10.7633 21.8508 10.9154 21.8498C11.6841 21.8427 12.4527 21.8493 13.2214 21.8517ZM4.59607 7.09977C4.59607 7.86886 4.59941 8.63747 4.5932 9.40656C4.59224 9.54301 4.6195 9.59167 4.76875 9.59119C6.31329 9.58547 7.85832 9.58595 9.40287 9.59024C9.54398 9.59072 9.58894 9.54873 9.58847 9.40608C9.58416 7.8617 9.58368 6.31781 9.58942 4.77343C9.5899 4.62648 9.54494 4.59595 9.40622 4.59643C7.86167 4.6012 6.31664 4.60167 4.77209 4.59643C4.63051 4.59595 4.59128 4.62982 4.59272 4.77391C4.59989 5.5492 4.59607 6.32448 4.59607 7.09977ZM4.59607 19.346C4.59607 20.1213 4.60037 20.8971 4.59224 21.6723C4.5908 21.8188 4.63338 21.8489 4.77305 21.8484C6.31808 21.8431 7.86311 21.8431 9.40765 21.8484C9.54972 21.8489 9.58942 21.8131 9.58894 21.6695C9.58368 20.1313 9.58368 18.5931 9.58894 17.0554C9.58942 16.8942 9.53776 16.8527 9.3823 16.8531C7.85019 16.8584 6.3176 16.8589 4.78549 16.8522C4.61663 16.8512 4.59128 16.909 4.59272 17.0588C4.59989 17.8207 4.59607 18.5831 4.59607 19.346ZM7.08294 15.711C7.8521 15.711 8.62175 15.7067 9.39091 15.7148C9.55211 15.7167 9.5899 15.6661 9.58942 15.5111C9.58368 13.9858 9.58368 12.4605 9.58942 10.9347C9.5899 10.7816 9.5569 10.7281 9.39235 10.7291C7.85354 10.7353 6.31521 10.7343 4.7764 10.73C4.64103 10.7296 4.59176 10.7544 4.59224 10.9051C4.59846 12.4495 4.59846 13.9939 4.59224 15.5383C4.59176 15.6866 4.6372 15.7153 4.77496 15.7143C5.54413 15.7076 6.31329 15.711 7.08294 15.711Z" fill="#00C2FE" stroke="#00C2FE" stroke-width="0.732061" stroke-linejoin="round"/>
</svg>
