<svg width="31" height="31" viewBox="0 0 31 31" fill="none" xmlns="http://www.w3.org/2000/svg">
<path d="M12.5622 14.4328C12.5622 14.4328 12.5347 8.92718 12.5622 6.17439C12.5622 5.54675 12.4797 4.86956 12.936 4.29148C13.1522 4.02979 13.4408 3.83793 13.7656 3.73997C14.0903 3.64202 14.4367 3.64235 14.7613 3.74092C15.0838 3.83505 15.3681 4.02909 15.5736 4.29518C15.7791 4.56126 15.895 4.88571 15.9048 5.22192C15.9048 8.32707 15.9048 11.4304 15.9048 14.5319V14.9668H15.9708C16.1962 14.207 16.4161 13.4418 16.6416 12.6765L18.5218 6.13034C18.6098 5.81916 18.795 5.54437 19.0502 5.34622C19.3055 5.14807 19.6174 5.03699 19.9403 5.02923C20.2188 4.98666 20.5037 5.02347 20.7623 5.13544C21.0209 5.24741 21.2429 5.43001 21.4027 5.66237C21.289 5.81562 21.217 5.99586 21.1938 6.1854C20.3526 9.35661 19.5444 12.5278 18.6868 15.6935C18.5378 16.5382 18.4843 17.397 18.5273 18.2536C18.5273 18.4188 18.5713 18.573 18.3019 18.639C17.3871 18.8433 16.5348 19.2651 15.8171 19.8688C15.0994 20.4725 14.5373 21.2404 14.1785 22.1075C13.8408 22.8248 13.6734 23.6105 13.6892 24.4034C13.6892 24.6786 13.8486 24.7888 14.1125 24.7888C14.3764 24.7888 14.4149 24.6401 14.4314 24.4199C14.438 23.6759 14.6056 22.9421 14.9226 22.2692C15.2396 21.5963 15.6985 21.0002 16.2677 20.5219C17.1332 19.7193 18.2713 19.2764 19.451 19.2832C19.6012 19.3003 19.7533 19.2796 19.8935 19.2228C20.0337 19.1661 20.1575 19.0752 20.2536 18.9583C20.8917 18.3885 21.4667 17.7517 21.969 17.0589C22.9201 15.9138 23.9702 15.1815 25.4656 15.1815C25.7398 15.1742 26.0085 15.2592 26.2288 15.4229C26.4491 15.5866 26.6082 15.8195 26.6806 16.0844C26.6222 16.1198 26.567 16.1604 26.5157 16.2056C25.1632 17.5544 23.8547 18.9583 22.5408 20.3347C21.2268 21.7111 19.7918 23.1481 18.4119 24.552C18.3415 24.615 18.2661 24.672 18.1865 24.7227C16.8338 25.6909 15.1707 26.1225 13.5188 25.9339C12.6872 25.8647 11.8794 25.6216 11.1474 25.2205C10.4154 24.8194 9.77548 24.2691 9.26894 23.6051C8.36684 22.4655 7.90433 21.0389 7.96594 19.586C7.95913 19.1095 7.91316 18.6344 7.8285 18.1655C7.5591 16.5139 6.72893 15.1044 5.88226 13.7005C5.272 12.704 4.68922 11.669 4.10095 10.6449C4.20516 10.4822 4.34388 10.3445 4.50726 10.2415C4.67064 10.1386 4.85466 10.073 5.04624 10.0493C5.23781 10.0257 5.43224 10.0446 5.61569 10.1047C5.79915 10.1648 5.96712 10.2647 6.10767 10.3972C6.52991 10.8602 6.87517 11.3881 7.13027 11.9608C7.812 13.1224 8.47175 14.2951 9.14249 15.4623C9.16997 15.5174 9.23595 15.5559 9.28543 15.6054C9.3679 15.7871 9.47236 15.9688 9.70327 15.8862C9.80109 15.8524 9.88494 15.787 9.94165 15.7003C9.99837 15.6137 10.0247 15.5106 10.0166 15.4072C10.0131 15.2568 9.99285 15.1072 9.95617 14.9613C9.31292 12.5719 8.66967 10.188 8.04841 7.80404C7.95597 7.58411 7.90999 7.34741 7.91338 7.10882C7.91676 6.87023 7.96943 6.63492 8.06807 6.41771C8.16671 6.2005 8.30918 6.00609 8.48652 5.84673C8.66386 5.68736 8.87223 5.56648 9.0985 5.49169C9.42039 5.52639 9.72256 5.664 9.96022 5.88415C10.1979 6.1043 10.3584 6.39527 10.418 6.71393C11.1107 9.28504 12.4797 14.4217 12.4797 14.4217L12.5347 14.4603L12.5622 14.4328Z" fill="#FEE4CC"/>
<path d="M4.101 10.6448C4.68927 11.6689 5.27205 12.7039 5.87681 13.7225C6.71798 15.1264 7.55366 16.5358 7.82305 18.1875C7.9081 18.649 7.95591 19.1167 7.96599 19.5859C7.9084 21.1536 8.45128 22.6841 9.48353 23.8642C10.5158 25.0442 11.9594 25.7846 13.5188 25.9338C15.1713 26.1176 16.8333 25.6844 18.1865 24.7171C18.2664 24.6647 18.3418 24.6058 18.4119 24.5409C19.7919 23.137 21.1608 21.7496 22.5408 20.3236C23.9208 18.8977 25.1633 17.5433 26.5158 16.1945C26.567 16.1493 26.6222 16.1087 26.6807 16.0733C26.776 16.2925 26.8018 16.5357 26.7546 16.7701C26.7074 17.0044 26.5895 17.2186 26.4168 17.3837C25.3777 18.4848 24.3276 19.5859 23.283 20.687C22.0185 22.0249 20.7815 23.3958 19.484 24.7061C18.3926 25.8596 16.9146 26.5693 15.3331 26.6991C14.0333 26.8592 12.7152 26.7752 11.4461 26.4514C10.3867 26.0871 9.4437 25.4458 8.71485 24.594C7.98601 23.7422 7.49779 22.7107 7.30075 21.6064C7.1798 20.665 7.22928 19.707 7.03686 18.7656C6.72473 17.4219 6.1795 16.1436 5.42599 14.9887C4.89453 14.0895 4.37956 13.1811 3.88109 12.2635C3.70946 12.0148 3.63686 11.7109 3.67755 11.4114C3.71824 11.112 3.86928 10.8385 4.101 10.6448Z" fill="#F8CFAE"/>
<path d="M20.2755 18.9525C20.179 19.0671 20.0558 19.1562 19.9168 19.2119C19.7778 19.2676 19.6272 19.2881 19.4783 19.2718C18.2974 19.2669 17.1583 19.7094 16.2896 20.5106C15.7204 20.9888 15.2615 21.5849 14.9445 22.2578C14.6275 22.9307 14.4599 23.6645 14.4533 24.4085C14.4533 24.6287 14.3983 24.7829 14.1344 24.7774C13.8705 24.7719 13.7221 24.6673 13.7111 24.3975C13.6954 23.6029 13.8628 22.8154 14.2004 22.0962C14.5584 21.229 15.1202 20.4614 15.8381 19.8584C16.556 19.2555 17.4088 18.8351 18.3238 18.6332C18.5932 18.5616 18.5437 18.4074 18.5492 18.2423C18.5062 17.3856 18.5596 16.5268 18.7086 15.6822C19.5553 12.5164 20.358 9.34523 21.2157 6.17953C21.2321 5.97996 21.3045 5.78911 21.4246 5.62897C21.5896 5.85509 21.6999 6.11656 21.7466 6.39271C21.7934 6.66886 21.7754 6.95211 21.694 7.22008C21.2816 8.78366 20.8583 10.3417 20.4405 11.9053C20.0776 13.2707 19.6873 14.6251 19.3409 15.996C19.2133 16.7771 19.1985 17.5725 19.2969 18.3579C19.3464 18.7708 19.7148 18.947 20.2755 18.9525Z" fill="#F8CFAE"/>
<path d="M9.10407 5.49681C8.07597 5.99782 7.75159 6.65849 8.07597 7.79815C8.69723 10.1876 9.34597 12.577 9.98922 14.9554C10.0211 15.1021 10.0395 15.2513 10.0442 15.4014C10.0553 15.5052 10.0302 15.6096 9.97305 15.697C9.91591 15.7843 9.83031 15.8491 9.73082 15.8803C9.49991 15.9684 9.39545 15.7812 9.31299 15.5996C9.15355 14.6416 8.84567 13.7277 8.60376 12.7917C8.13095 11.0574 7.66913 9.31769 7.19631 7.58893C6.91592 6.5704 7.7406 5.27108 8.93913 5.4858C8.99411 5.49681 9.04909 5.49131 9.10407 5.49681Z" fill="#F8CFAE"/>
</svg>
