<svg width="31" height="31" viewBox="0 0 31 31" fill="none" xmlns="http://www.w3.org/2000/svg">
<path d="M18.5671 18.0557C18.241 17.6911 18.0815 17.2269 17.8202 16.8235C17.7735 16.7514 17.7352 16.6741 17.6931 16.5991C17.7698 16.5777 17.8582 16.5979 17.9215 16.5306C18.0024 16.5108 18.0408 16.4398 18.0966 16.3895C18.3295 16.8091 18.5624 17.2288 18.7954 17.6484C18.8089 17.6731 18.8329 17.675 18.8584 17.6704C18.8715 17.7168 18.8845 17.7629 18.8976 17.8093C18.8314 17.8502 18.8207 17.9132 18.8231 17.9812C18.7379 18.0062 18.6523 18.031 18.5671 18.0557Z" fill="#DDE0E0"/>
<path d="M6.23118 10.7307C6.65808 10.9672 7.06061 11.2408 7.47316 11.4991C8.65028 12.2367 9.82373 12.9801 10.9991 13.7201C11.309 13.9152 11.6214 14.1076 11.9325 14.3011C12.234 14.5026 12.5379 14.7011 12.8554 14.8783C13.1633 15.0764 13.4694 15.2769 13.7791 15.4725C14.9163 16.1907 16.0551 16.907 17.193 17.6246C17.205 17.6323 17.215 17.6431 17.2258 17.6524C14.5219 18.436 11.8177 19.2198 9.11379 20.0034C9.0759 20.0144 9.0385 20.0257 9.0004 20.0359C8.90689 20.0618 8.8492 20.0272 8.8242 19.9371C8.81153 19.8907 8.7982 19.8449 8.78514 19.7985C9.01776 19.7311 9.09807 19.6453 9.06448 19.5C9.02994 19.3513 8.90437 19.3144 8.66797 19.3829C8.6263 19.2351 8.58463 19.0873 8.54296 18.9395C8.67442 18.9014 8.80661 18.8659 8.93714 18.8245C9.06945 18.7821 9.13327 18.6771 9.10578 18.5592C9.07784 18.4383 8.95981 18.3743 8.82048 18.4107C8.68798 18.4451 8.55735 18.4861 8.42589 18.5242C8.38422 18.3764 8.34255 18.2286 8.30088 18.0808C8.34331 18.0685 8.38685 18.0587 8.42797 18.0432C8.54328 18.0002 8.61087 17.8736 8.5673 17.7612C8.52415 17.6503 8.43594 17.6005 8.31121 17.629C8.26805 17.6388 8.22614 17.6529 8.18371 17.6652C8.14204 17.5174 8.10037 17.3696 8.0587 17.2218C8.30419 17.1506 8.35598 17.0915 8.31389 16.9306C8.26947 16.76 8.19129 16.7342 7.94152 16.8062C7.89985 16.6583 7.85818 16.5105 7.81652 16.3627C7.94798 16.3246 8.08017 16.2891 8.21069 16.2477C8.343 16.2053 8.40693 16.1007 8.37934 15.9824C8.35139 15.8615 8.23337 15.7975 8.09404 15.8339C7.96153 15.8683 7.83091 15.9094 7.69944 15.9475C7.65778 15.7997 7.61611 15.6519 7.57444 15.5041C7.80516 15.4372 7.87817 15.3415 7.82096 15.1822C7.76948 15.0388 7.69529 15.0199 7.45726 15.0884C7.41559 14.9406 7.37392 14.7928 7.33225 14.645C7.54972 14.582 7.62441 14.4966 7.58734 14.3535C7.54783 14.2003 7.43936 14.1644 7.21508 14.2294C7.17341 14.0816 7.13174 13.9338 7.09007 13.786C7.22229 13.7477 7.35535 13.7123 7.48652 13.6703C7.62024 13.6271 7.66296 13.5446 7.62865 13.4127C7.59193 13.2723 7.51044 13.2202 7.36987 13.2565C7.2365 13.2907 7.10522 13.3324 6.973 13.3707C6.93133 13.2229 6.88966 13.0751 6.84761 12.9274C7.04148 12.8708 7.15539 12.7428 7.12584 12.6148C7.09573 12.4832 6.92209 12.427 6.72244 12.4848C6.55905 11.8995 6.39512 11.3151 6.23118 10.7307ZM9.18472 16.3361C9.35515 16.9406 9.52559 17.5452 9.69603 18.1497C9.74866 18.3364 9.75892 18.3423 9.95024 18.2868C11.0126 17.9793 12.0745 17.6711 13.1368 17.3633C13.1697 17.3537 13.2049 17.3475 13.2349 17.332C13.3213 17.2881 13.337 17.2291 13.2616 17.1636C13.2291 17.1354 13.19 17.1146 13.1532 17.0916C11.7238 16.1904 10.2944 15.2892 8.86482 14.3888C8.80951 14.3539 8.7535 14.2948 8.6812 14.3494C8.61406 14.4005 8.65867 14.4658 8.67427 14.5225C8.84347 15.1271 9.01428 15.7315 9.18472 16.3361Z" fill="#B6E446"/>
<path d="M8.85472 19.816C8.86768 19.8614 8.88091 19.9063 8.89349 19.9518C8.91792 20.0403 8.97555 20.0741 9.06835 20.0487C9.10606 20.0383 9.14328 20.0276 9.18088 20.0168C11.8643 19.2486 14.548 18.4802 17.2314 17.712C17.3464 17.773 17.364 17.8787 17.3486 17.99C17.3326 18.1022 17.2607 18.1781 17.1473 18.2126C17.1148 18.2227 17.0822 18.2324 17.0491 18.2419C14.3593 19.0119 11.6696 19.782 8.9798 20.5521C8.9516 20.5602 8.92361 20.569 8.89537 20.5755C8.70832 20.6212 8.57787 20.556 8.52309 20.3812C8.47808 20.2377 8.44199 20.0913 8.40225 19.9463C8.55243 19.9025 8.70358 19.8593 8.85472 19.816Z" fill="#AAD541"/>
<path d="M12.6422 6.31807C12.7129 6.29917 12.7863 6.2867 12.8545 6.26014C13.2667 6.09869 13.8047 6.42432 13.7915 6.97211C13.7819 7.35886 13.7633 7.74543 13.7496 8.13216C13.7478 8.17948 13.7538 8.22693 13.7561 8.27426C13.7503 8.29556 13.7448 8.31674 13.739 8.33841C13.3344 8.45567 12.93 8.57366 12.5253 8.69055C12.3119 8.75199 12.1976 8.71512 12.0772 8.53604C11.7905 8.10957 11.5094 7.67987 11.2206 7.2548C11.1549 7.15787 11.1073 7.04445 11.0019 6.97661C11.0842 6.82317 11.2193 6.73802 11.3823 6.68798C11.4614 6.66386 11.5397 6.63836 11.6185 6.61313C11.9597 6.51466 12.3009 6.41618 12.6422 6.31807ZM12.6203 8.18587C12.8578 8.11583 12.9985 7.87067 12.9328 7.64053C12.8664 7.4078 12.6231 7.27912 12.3822 7.34892C12.1441 7.41833 12.0008 7.66585 12.0675 7.8937C12.1346 8.12303 12.385 8.25525 12.6203 8.18587Z" fill="#F0F1F1"/>
<path d="M13.7528 8.36982C13.7588 8.34839 13.7643 8.32707 13.7701 8.30527C13.8913 8.48202 13.9917 8.67001 14.0891 8.86048C14.096 9.00017 13.9848 9.0749 13.9027 9.16017C13.8332 9.23295 13.8214 9.30075 13.8628 9.3826C13.8909 9.43808 13.9212 9.49253 13.9522 9.54639C14.4409 10.4044 14.9292 11.2626 15.4182 12.1202C16.0358 13.2026 16.6544 14.284 17.2724 15.3664C17.4884 15.7452 17.7033 16.1244 17.9191 16.5037C17.8559 16.571 17.7667 16.5509 17.6896 16.5723C17.4843 16.5526 17.3578 16.4374 17.2616 16.2655C16.8101 15.4615 16.3523 14.6614 15.8965 13.8598C15.8824 13.8349 15.8633 13.8127 15.8464 13.7894C15.7782 13.667 15.7096 13.5446 15.6415 13.4222C15.563 13.2855 15.4849 13.1482 15.4064 13.0115C14.8025 11.9467 14.1965 10.8834 13.5959 9.817C13.4478 9.55421 13.275 9.30461 13.164 9.02227C13.5639 8.92745 13.738 8.73475 13.7528 8.36982Z" fill="#D83926"/>
<path d="M17.9126 16.5091C17.6973 16.1301 17.4822 15.7506 17.2657 15.3718C16.6478 14.2898 16.029 13.208 15.4113 12.1255C14.9219 11.268 14.4335 10.4098 13.9451 9.55161C13.9145 9.49764 13.8838 9.4433 13.8557 9.38781C13.8143 9.30596 13.826 9.23778 13.8957 9.16537C13.9777 9.07972 14.0889 9.00499 14.0821 8.86567C14.4747 9.54941 14.8685 10.2328 15.2593 10.9175C16.1968 12.5607 17.1312 14.2051 18.0711 15.8468C18.1719 16.023 18.183 16.1892 18.0881 16.368C18.0324 16.4182 17.9939 16.4893 17.9126 16.5091Z" fill="#EE5329"/>
<path d="M12.8359 14.8861C12.516 14.7082 12.21 14.5093 11.9062 14.3066C11.8802 13.4939 11.8554 12.6808 11.8286 11.8682C11.7957 10.8676 11.7611 9.86704 11.7274 8.86625C12.041 9.24392 12.2061 9.298 12.6327 9.16273C12.6549 9.32005 12.6577 9.47894 12.6515 9.63802C12.5655 9.66085 12.4786 9.70526 12.394 9.70235C12.2275 9.69612 12.1934 9.76954 12.2006 9.9131C12.2218 10.3487 12.2353 10.7845 12.25 11.2203C12.279 12.0873 12.3068 12.9547 12.3347 13.822C12.3367 13.8906 12.3356 13.9698 12.3926 14.008C12.5268 14.0984 12.6498 14.2093 12.8118 14.2554C12.8215 14.3802 12.831 14.5054 12.8406 14.6301C12.8388 14.7155 12.8373 14.8008 12.8359 14.8861Z" fill="#D83926"/>
<path d="M12.5933 9.15516C12.1702 9.28979 12.006 9.23606 11.6952 8.86C11.5197 8.59331 11.3428 8.32743 11.1693 8.05934C11.0663 7.90019 10.94 7.7542 10.893 7.56279C10.8412 7.35154 10.8679 7.15561 11.0036 6.97612C11.109 7.04367 11.1566 7.15723 11.2224 7.25427C11.5116 7.67986 11.7931 8.11045 12.08 8.53706C12.2006 8.71636 12.3151 8.75365 12.5286 8.69178C12.9338 8.57476 13.3387 8.45701 13.7437 8.33925C13.7289 8.70233 13.5565 8.89404 13.1601 8.98812C12.9711 9.04408 12.7824 9.09956 12.5933 9.15516Z" fill="#DDE0E0"/>
<path d="M12.6298 6.30243C12.2869 6.40131 11.9439 6.49981 11.601 6.59869C11.4502 6.07008 11.2925 5.54345 11.1527 5.01164C11.0991 4.80709 11.2269 4.68736 11.5199 4.62141C11.6371 5.03685 11.7566 5.45164 11.8708 5.86797C11.9032 5.98551 11.9661 6.02351 12.0864 5.98507C12.227 5.93994 12.3697 5.90224 12.5115 5.8612C12.5577 6.00605 12.6094 6.1501 12.6298 6.30243Z" fill="#D83C2A"/>
<path d="M14.7932 14.092C14.8202 14.1946 14.8496 14.2965 14.8738 14.3995C14.9334 14.653 14.7958 14.8726 14.5339 14.9448C14.3185 14.1859 14.1031 13.4271 13.8877 12.6683C14.1463 12.5902 14.3796 12.7035 14.4621 12.9504C14.4955 13.0507 14.5245 13.1528 14.5554 13.2542C14.6347 13.5335 14.7139 13.8127 14.7932 14.092Z" fill="#EE5329"/>
<path d="M13.8993 12.665C14.1148 13.4239 14.3304 14.1829 14.5459 14.9418C14.3305 14.9957 14.127 14.9072 14.0395 14.7088C13.9875 14.5913 13.9547 14.4658 13.9135 14.3439C13.8462 14.0619 13.7672 13.7837 13.6762 13.5086C13.6471 13.3784 13.6075 13.2492 13.5909 13.1175C13.5646 12.9111 13.6951 12.7306 13.8993 12.665Z" fill="#D83C2A"/>
<path d="M12.5094 5.8624C12.3673 5.90348 12.2239 5.94133 12.0833 5.9864C11.9629 6.02525 11.8998 5.98721 11.8673 5.86917C11.7524 5.45251 11.633 5.03716 11.5155 4.62127C11.619 4.58971 11.7213 4.55332 11.8261 4.52782C11.996 4.48593 12.1441 4.56372 12.1921 4.72793C12.3016 5.10515 12.4038 5.48445 12.5094 5.8624Z" fill="#EE5329"/>
<path d="M6.23819 10.6641C6.40377 11.2513 6.56886 11.8382 6.73444 12.4253C6.58102 12.4696 6.42749 12.5134 6.27406 12.5577C6.1256 12.0396 5.97713 11.5216 5.82894 11.0031C5.7948 10.8842 5.82804 10.7824 5.92668 10.704C6.02175 10.6291 6.12479 10.5926 6.23819 10.6641Z" fill="#AAD541"/>
<path d="M14.7831 14.0953C14.7049 13.8181 14.6268 13.5409 14.5486 13.2637C14.6791 13.2263 14.81 13.1887 14.9406 13.1517C14.9677 13.2478 14.9975 13.3431 15.0216 13.4401C15.0496 13.5527 15.1174 13.5826 15.2277 13.5475C15.3669 13.5031 15.5077 13.4631 15.648 13.4213C15.7154 13.5429 15.7832 13.6644 15.8506 13.786C15.4949 13.889 15.1392 13.9921 14.7831 14.0953Z" fill="#DDE0E0"/>
<path d="M13.683 13.5053C13.7727 13.7783 13.8505 14.0544 13.9168 14.3343C13.5616 14.4348 13.206 14.5354 12.8508 14.6359C12.8412 14.512 12.8319 14.3875 12.8223 14.2636C12.8284 14.2518 12.8348 14.24 12.8409 14.2282C12.9766 14.1889 13.1116 14.147 13.2481 14.1106C13.3604 14.0809 13.4015 14.0194 13.3667 13.9092C13.337 13.8138 13.3121 13.7171 13.2851 13.6214C13.418 13.5821 13.5503 13.5437 13.683 13.5053Z" fill="#DDE0E0"/>
<path d="M7.3672 14.6063C7.40883 14.754 7.45046 14.9017 7.4921 15.0494C7.34033 15.0934 7.18818 15.1375 7.03631 15.1811C6.99478 15.0338 6.95314 14.8861 6.91124 14.7389C7.06339 14.6948 7.21515 14.6508 7.3672 14.6063Z" fill="#AAD541"/>
<path d="M8.11329 17.2022C8.15493 17.3499 8.19656 17.4976 8.23819 17.6453C8.08604 17.6894 7.93427 17.7334 7.78202 17.7771C7.74049 17.6298 7.69886 17.4821 7.65733 17.3348C7.80948 17.2907 7.96114 17.2463 8.11329 17.2022Z" fill="#AAD541"/>
<path d="M7.6128 15.4718C7.65444 15.6194 7.69607 15.7671 7.7377 15.9148C7.58593 15.9588 7.43416 16.0028 7.28191 16.0465C7.24028 15.8988 7.19837 15.7516 7.15674 15.6039C7.30899 15.5602 7.46066 15.5159 7.6128 15.4718Z" fill="#AAD541"/>
<path d="M6.86963 12.8756C6.91126 13.0232 6.95289 13.1709 6.99491 13.3185C6.84276 13.3626 6.69088 13.4062 6.53874 13.4503C6.4971 13.3026 6.45595 13.1552 6.41432 13.0075C6.56619 12.9639 6.71786 12.9195 6.86963 12.8756Z" fill="#AAD541"/>
<path d="M8.36123 18.0676C8.40286 18.2153 8.44449 18.363 8.48613 18.5106C8.33398 18.5547 8.18173 18.5985 8.02996 18.6425C7.98843 18.4951 7.9468 18.3475 7.90489 18.2003C8.05693 18.1558 8.20908 18.1117 8.36123 18.0676Z" fill="#AAD541"/>
<path d="M6.86563 12.8717C6.71386 12.9157 6.56219 12.96 6.41042 13.004C6.36879 12.8563 6.32716 12.7087 6.28552 12.561C6.43729 12.517 6.58917 12.4734 6.74094 12.4294C6.78247 12.5767 6.824 12.724 6.86563 12.8717Z" fill="#9EC53D"/>
<path d="M8.61001 18.9317C8.65164 19.0794 8.69327 19.2271 8.73491 19.3748C8.58276 19.4189 8.43051 19.4626 8.27836 19.5067C8.23683 19.3594 8.1952 19.2117 8.15367 19.0644C8.30571 19.0199 8.45786 18.9758 8.61001 18.9317Z" fill="#AAD541"/>
<path d="M7.11597 13.7414C7.1576 13.8891 7.19923 14.0368 7.24087 14.1844C7.0891 14.2284 6.93695 14.2725 6.78507 14.3162C6.74344 14.1685 6.70191 14.0212 6.66028 13.8735C6.81215 13.8299 6.9643 13.7858 7.11597 13.7414Z" fill="#AAD541"/>
<path d="M7.86244 16.3368C7.90407 16.4845 7.9457 16.6322 7.98734 16.7799C7.83557 16.8238 7.68342 16.8679 7.53155 16.9116C7.48991 16.7639 7.44801 16.6167 7.40637 16.469C7.55862 16.4253 7.71029 16.3809 7.86244 16.3368Z" fill="#AAD541"/>
<path d="M7.53334 16.9142C7.68505 16.8702 7.83714 16.8261 7.98896 16.7825C8.02797 16.9209 8.06698 17.0593 8.10599 17.1977C7.9539 17.2417 7.80219 17.2857 7.6502 17.3302C7.61108 17.1914 7.57245 17.0529 7.53334 16.9142Z" fill="#9EC53D"/>
<path d="M7.11248 13.7368C6.96076 13.7808 6.80867 13.8248 6.65706 13.8692C6.61805 13.7308 6.57894 13.5921 6.53955 13.4538C6.69164 13.4097 6.84346 13.3661 6.99555 13.322C7.03446 13.46 7.07347 13.5984 7.11248 13.7368Z" fill="#9EC53D"/>
<path d="M8.35747 18.063C8.20538 18.1071 8.05339 18.1515 7.9013 18.1956C7.86218 18.0568 7.82355 17.9184 7.78444 17.7796C7.93653 17.7355 8.08824 17.6916 8.24044 17.6479C8.27945 17.7862 8.31846 17.9246 8.35747 18.063Z" fill="#9EC53D"/>
<path d="M8.6049 18.9285C8.45281 18.9725 8.30082 19.017 8.14873 19.0611C8.10962 18.9223 8.07099 18.7838 8.03187 18.6451C8.18396 18.601 8.33578 18.5574 8.48787 18.5133C8.52688 18.6517 8.56589 18.7901 8.6049 18.9285Z" fill="#9EC53D"/>
<path d="M7.85845 16.3327C7.70636 16.3768 7.55464 16.4208 7.40266 16.4652C7.36365 16.3269 7.32491 16.188 7.2859 16.0496C7.43761 16.0057 7.58933 15.9617 7.74152 15.918C7.78043 16.056 7.81944 16.1944 7.85845 16.3327Z" fill="#9EC53D"/>
<path d="M7.61101 15.4685C7.45892 15.5126 7.30721 15.5566 7.15522 15.601C7.11621 15.4627 7.0771 15.3239 7.03809 15.1855C7.1898 15.1416 7.34189 15.0975 7.49371 15.0539C7.53299 15.1918 7.572 15.3302 7.61101 15.4685Z" fill="#9EC53D"/>
<path d="M8.27905 19.5098C8.43114 19.4657 8.58334 19.422 8.73543 19.3779C8.77444 19.5163 8.81345 19.6546 8.85246 19.793C8.70037 19.8371 8.54876 19.8814 8.39667 19.9255C8.35718 19.7869 8.31806 19.6481 8.27905 19.5098Z" fill="#9EC53D"/>
<path d="M6.79078 14.32C6.9425 14.276 7.09459 14.232 7.24641 14.1884C7.28542 14.3267 7.32443 14.4651 7.36344 14.6035C7.21135 14.6476 7.05963 14.6915 6.90764 14.736C6.86853 14.5973 6.82979 14.4584 6.79078 14.32Z" fill="#9EC53D"/>
<path d="M7.85618 16.3367C7.81723 16.1986 7.77828 16.0605 7.73933 15.9224C7.87041 15.8844 8.00065 15.8435 8.13277 15.8092C8.27169 15.773 8.389 15.8368 8.41724 15.9572C8.44476 16.0751 8.38113 16.1798 8.2491 16.2216C8.11906 16.2633 7.98725 16.2987 7.85618 16.3367Z" fill="#AAD541"/>
<path d="M8.60337 18.9317C8.56442 18.7936 8.52547 18.6555 8.48652 18.5174C8.6176 18.4794 8.74784 18.4385 8.87996 18.4042C9.01888 18.368 9.13657 18.4317 9.16443 18.5523C9.19195 18.6701 9.12794 18.7749 8.99629 18.8167C8.86625 18.8583 8.73445 18.8937 8.60337 18.9317Z" fill="#AAD541"/>
<path d="M7.10815 13.7413C7.0692 13.6031 7.03024 13.465 6.99128 13.3269C7.12314 13.2887 7.25417 13.2475 7.38707 13.213C7.52773 13.177 7.6089 13.2286 7.64515 13.3687C7.67938 13.5003 7.63678 13.5825 7.50342 13.6255C7.37281 13.6682 7.24001 13.7031 7.10815 13.7413Z" fill="#AAD541"/>
<path d="M6.86174 12.8756C6.82003 12.7277 6.77842 12.5801 6.73682 12.4326C6.93627 12.3748 7.11045 12.431 7.14059 12.5626C7.16941 12.691 7.0554 12.8191 6.86174 12.8756Z" fill="#AAD541"/>
<path d="M8.85102 19.7971C8.81193 19.6585 8.77285 19.5199 8.73376 19.3813C8.97029 19.3127 9.09604 19.3501 9.13049 19.4985C9.16411 19.6439 9.08375 19.7297 8.85102 19.7971Z" fill="#AAD541"/>
<path d="M8.3528 18.0657C8.31371 17.927 8.27462 17.7884 8.23553 17.6497C8.27799 17.6374 8.31993 17.6233 8.36312 17.6136C8.48794 17.585 8.5762 17.6348 8.61939 17.7458C8.66299 17.8583 8.59526 17.9846 8.47997 18.028C8.43873 18.0432 8.39526 18.0533 8.3528 18.0657Z" fill="#AAD541"/>
<path d="M8.10498 17.2018C8.06588 17.0632 8.02677 16.9245 7.98767 16.7858C8.23797 16.7133 8.31596 16.7396 8.36043 16.9104C8.40257 17.0715 8.35073 17.1306 8.10498 17.2018Z" fill="#AAD541"/>
<path d="M7.6084 15.4718C7.56929 15.3331 7.53019 15.1945 7.49109 15.0558C7.72925 14.9868 7.80363 15.0061 7.85517 15.1496C7.91255 15.3095 7.83936 15.4049 7.6084 15.4718Z" fill="#AAD541"/>
<path d="M7.36072 14.6055C7.32162 14.4668 7.28251 14.3281 7.24341 14.1895C7.46792 14.1244 7.57661 14.1607 7.61607 14.3137C7.65329 14.4573 7.57841 14.5424 7.36072 14.6055Z" fill="#AAD541"/>
<path d="M12.623 8.1877C12.3876 8.25714 12.1368 8.12442 12.0698 7.89523C12.003 7.66716 12.1461 7.41951 12.3848 7.34994C12.6258 7.2797 12.8693 7.40889 12.9358 7.64184C13.0016 7.87221 12.8609 8.11797 12.623 8.1877Z" fill="#EE5329"/>
<path d="M14.9397 13.1502C15.098 13.104 15.2563 13.0581 15.4146 13.0118C15.4921 13.1477 15.5694 13.284 15.647 13.4198C15.5071 13.4615 15.3662 13.5012 15.2271 13.5459C15.1164 13.5811 15.0491 13.5511 15.021 13.4385C14.9962 13.3417 14.9668 13.2463 14.9397 13.1502Z" fill="#F0F1F1"/>
<path d="M12.6504 9.6398C12.6733 10.2082 12.6986 10.7762 12.719 11.3445C12.7465 12.1058 12.7708 12.8673 12.7972 13.629C12.7985 13.6672 12.8061 13.7057 12.8106 13.7438C12.8039 13.9039 12.8074 14.0638 12.8295 14.222C12.8234 14.2338 12.8168 14.2458 12.8107 14.2576C12.6485 14.2115 12.5255 14.1006 12.3913 14.0101C12.3346 13.9718 12.3357 13.8926 12.3332 13.8241C12.3054 12.9566 12.2777 12.0895 12.2486 11.222C12.2338 10.7861 12.2206 10.3497 12.1991 9.91455C12.1919 9.77098 12.2265 9.69781 12.3926 9.70377C12.4774 9.70706 12.5643 9.66264 12.6504 9.6398Z" fill="#EE5329"/>
<path d="M12.8407 14.2253C12.8188 14.0678 12.8154 13.9092 12.8221 13.7502C12.9765 13.7062 13.1309 13.6623 13.2854 13.6183C13.3125 13.7144 13.3369 13.8113 13.367 13.9061C13.4017 14.0164 13.3602 14.078 13.2484 14.1076C13.1113 14.1437 12.9763 14.1856 12.8407 14.2253Z" fill="#F0F1F1"/>
<path d="M23.9827 9.34988C24.5071 9.54491 25.0324 9.73853 25.556 9.93556C25.7251 9.99918 25.8037 10.1731 25.7472 10.3406C25.7387 10.3659 25.729 10.3905 25.7197 10.4156C24.655 13.2896 23.5902 16.1638 22.5253 19.0376C22.5103 19.0782 22.4929 19.118 22.4767 19.1578C22.4351 19.1415 22.3938 19.1246 22.352 19.109C21.8346 18.9158 21.3169 18.723 20.7995 18.5297C20.6592 18.4774 20.6284 18.4106 20.6791 18.2723C20.686 18.2535 20.6931 18.235 20.7001 18.2162L20.7005 18.2161C20.8548 18.2734 21.0087 18.3313 21.1634 18.3876C21.2617 18.4234 21.3561 18.3899 21.3866 18.3106C21.4183 18.2283 21.3724 18.147 21.2688 18.1072C21.1151 18.0481 20.9608 17.9912 20.8068 17.9331L20.8063 17.9321C20.8428 17.8342 20.8792 17.736 20.9158 17.6381L20.9176 17.6371C21.0045 17.6689 21.0913 17.701 21.1782 17.7325C21.294 17.7743 21.3546 17.7518 21.3912 17.654C21.4233 17.5681 21.3819 17.4911 21.279 17.4501C21.193 17.416 21.1059 17.385 21.0189 17.3525C21.0538 17.2591 21.0887 17.1658 21.1236 17.0724L21.1239 17.0722C21.3389 17.1521 21.5538 17.2323 21.769 17.3117C21.885 17.3544 21.9772 17.3243 22.0066 17.2355C22.0349 17.1496 21.986 17.0732 21.8742 17.0309C21.6596 16.95 21.4447 16.8698 21.23 16.7892L21.2296 16.7885C21.2636 16.6951 21.2977 16.6017 21.3317 16.5082C21.4213 16.5414 21.5092 16.579 21.6004 16.6065C21.7123 16.6405 21.784 16.6039 21.816 16.5072C21.8449 16.4204 21.8037 16.3463 21.7009 16.3059C21.6152 16.2723 21.5287 16.2411 21.4425 16.209C21.4777 16.1157 21.5125 16.0226 21.5476 15.9293L21.548 15.9292C21.7023 15.9865 21.8565 16.0442 22.0113 16.1005C22.1159 16.1384 22.2034 16.1074 22.2333 16.0245C22.2622 15.9448 22.2123 15.8566 22.1148 15.8194C21.961 15.7606 21.8066 15.7036 21.6524 15.6458L21.6522 15.6454C21.6866 15.5519 21.7209 15.4583 21.7551 15.3646C21.8381 15.3956 21.921 15.4271 22.0042 15.457C22.1164 15.4974 22.1961 15.4709 22.232 15.3834C22.2719 15.2861 22.2374 15.2111 22.1238 15.1627C22.0394 15.1267 21.9518 15.0974 21.8657 15.0653C21.901 14.9724 21.936 14.8793 21.9713 14.7864L21.972 14.7861C22.1938 14.8682 22.4156 14.9504 22.6373 15.0328C22.676 15.0472 22.7131 15.0628 22.7554 15.0429C22.8138 15.0153 22.8599 14.9789 22.8597 14.9098C22.8594 14.8304 22.8171 14.779 22.7407 14.7507C22.5189 14.6686 22.2975 14.5852 22.076 14.5023L22.0757 14.5022C22.1101 14.4086 22.1446 14.3154 22.179 14.2218C22.2722 14.2563 22.3645 14.2941 22.459 14.3245C22.5523 14.3548 22.6334 14.3126 22.6602 14.2276C22.6886 14.1375 22.6581 14.0819 22.5558 14.0417C22.4663 14.0066 22.3765 13.9734 22.2866 13.9393L22.2859 13.9379C22.3223 13.8397 22.3586 13.7417 22.3948 13.6434L22.3958 13.6429C22.5531 13.701 22.7104 13.7591 22.8676 13.8175C22.9063 13.8319 22.9437 13.8484 22.9853 13.8271C23.0378 13.8005 23.0884 13.7723 23.0824 13.703C23.0756 13.6238 23.0401 13.562 22.9603 13.5317C22.8065 13.4735 22.6527 13.4164 22.4988 13.3587C22.5333 13.2655 22.5678 13.1723 22.6026 13.0791C22.6928 13.1125 22.7821 13.1478 22.8729 13.1785C22.969 13.2109 23.0506 13.1755 23.0801 13.0932C23.1144 12.9985 23.0846 12.94 22.9785 12.8984C22.889 12.8633 22.799 12.8304 22.7092 12.7963L22.7087 12.7952C22.7452 12.6973 22.7816 12.5991 22.8182 12.5012L22.8199 12.5004C23.0412 12.5824 23.2628 12.6645 23.4841 12.7464C23.5225 12.7608 23.5595 12.7766 23.6017 12.7569C23.66 12.7296 23.7069 12.6935 23.706 12.6244C23.7052 12.5394 23.6482 12.4896 23.5748 12.4611C23.3577 12.3773 23.1392 12.2975 22.9212 12.2159C22.9561 12.1225 22.991 12.0291 23.0259 11.9358L23.0263 11.9356C23.1221 11.9711 23.2175 12.0084 23.3142 12.0413C23.3935 12.0683 23.4726 12.0299 23.5017 11.9552C23.5377 11.8637 23.5121 11.7996 23.4187 11.7617C23.3241 11.723 23.2278 11.6888 23.1319 11.6527L23.1316 11.652C23.1656 11.5586 23.1996 11.4652 23.2337 11.3718C23.381 11.4267 23.5284 11.4823 23.6761 11.5362C23.7818 11.5748 23.9014 11.535 23.9268 11.4546C23.9514 11.3762 23.8878 11.276 23.7869 11.2378C23.6399 11.1819 23.4921 11.1276 23.3449 11.0724C23.38 10.9791 23.4148 10.886 23.45 10.7927L23.4503 10.7925C23.5402 10.8258 23.6301 10.8596 23.7204 10.8918C23.8158 10.926 23.8952 10.8932 23.9265 10.8087C23.9578 10.7242 23.9189 10.6476 23.8242 10.6108C23.7349 10.5761 23.6446 10.543 23.555 10.5093L23.5548 10.5089C23.5892 10.4153 23.6235 10.3218 23.6576 10.2281C23.8602 10.3036 24.0631 10.3782 24.2649 10.4549C24.3073 10.471 24.3507 10.484 24.3946 10.4796C24.4604 10.473 24.5242 10.4555 24.5445 10.3826C24.5645 10.3096 24.5338 10.2537 24.472 10.2104C24.4326 10.1828 24.3914 10.1601 24.3459 10.1434C24.1589 10.0751 23.9729 10.0048 23.7865 9.93501C23.7993 9.90128 23.814 9.86797 23.8244 9.83336C23.8749 9.6725 23.965 9.52297 23.9827 9.34988Z" fill="#B3E2F4"/>
<path d="M20.6959 18.2371C20.689 18.2556 20.682 18.2737 20.6752 18.2922C20.6255 18.4281 20.6557 18.4939 20.7936 18.5456C21.3022 18.7359 21.811 18.9256 22.3196 19.1159C22.3607 19.1312 22.4014 19.1478 22.4422 19.1639C22.3735 19.38 22.2156 19.4572 22.0012 19.3774C21.486 19.1855 20.9709 18.9931 20.4563 18.8004C20.251 18.7234 20.1819 18.5755 20.2559 18.3746C20.2888 18.2855 20.3236 18.1971 20.3575 18.1085C20.4702 18.1511 20.583 18.1941 20.6959 18.2371Z" fill="#83D2EF"/>
<path d="M24.0189 9.35319C24.0013 9.5259 23.9121 9.67465 23.8622 9.83672C23.8516 9.8711 23.8374 9.90414 23.8246 9.938C23.8176 9.93566 23.8108 9.93367 23.8038 9.93133C23.6912 9.88916 23.5786 9.84724 23.466 9.80507C23.4957 9.72044 23.5244 9.63568 23.555 9.55168C23.6352 9.33335 23.7982 9.26397 24.0189 9.35319Z" fill="#83D2EF"/>
<path d="M22.8456 12.5105C22.8095 12.6077 22.7736 12.7052 22.7375 12.8024C22.6228 12.7609 22.5083 12.7191 22.3938 12.6773C22.4306 12.5772 22.4674 12.4774 22.5043 12.3774C22.618 12.422 22.7318 12.4661 22.8456 12.5105Z" fill="#82D2EF"/>
<path d="M21.4315 15.2505C21.468 15.1523 21.5041 15.0543 21.5406 14.9561C21.6537 14.9979 21.7666 15.04 21.8797 15.0818C21.8432 15.1809 21.8069 15.2803 21.7704 15.3793C21.6578 15.3362 21.5448 15.2933 21.4315 15.2505Z" fill="#4EB9E8"/>
<path d="M22.9292 11.2484C22.9653 11.1504 23.0013 11.052 23.0374 10.9539C23.1507 10.9959 23.2638 11.0377 23.3771 11.0796C23.3406 11.1787 23.3041 11.278 23.2673 11.3769C23.1547 11.3339 23.042 11.291 22.9292 11.2484Z" fill="#4EB9E8"/>
<path d="M22.4149 13.6557C22.379 13.7532 22.3431 13.8505 22.3074 13.9482C22.1926 13.9065 22.078 13.865 21.963 13.8236C21.9999 13.7235 22.0369 13.6238 22.0737 13.5238C22.1873 13.5675 22.301 13.6115 22.4149 13.6557Z" fill="#82D2EF"/>
<path d="M21.0041 16.3965C21.0404 16.2982 21.0762 16.2 21.1125 16.1017C21.2258 16.1436 21.3391 16.1856 21.4523 16.2277C21.4158 16.3268 21.3793 16.4261 21.3428 16.5251C21.2298 16.4822 21.1168 16.4393 21.0041 16.3965Z" fill="#4EB9E8"/>
<path d="M20.9196 17.6593C20.8835 17.7565 20.8475 17.8541 20.8114 17.9513C20.6969 17.9095 20.5823 17.8679 20.468 17.8262C20.5049 17.7262 20.5414 17.6263 20.5782 17.5262C20.6919 17.5705 20.8057 17.6149 20.9196 17.6593Z" fill="#82D2EF"/>
<path d="M23.4664 9.80751C23.5785 9.84955 23.6907 9.89135 23.8028 9.93339C23.7672 10.0325 23.7318 10.1317 23.6962 10.2307C23.5832 10.1878 23.4702 10.1449 23.3573 10.102C23.3937 10.004 23.4301 9.90581 23.4664 9.80751Z" fill="#4EB9E8"/>
<path d="M23.1439 10.6663C23.178 10.574 23.2119 10.4819 23.2459 10.3896C23.3598 10.4315 23.4739 10.4734 23.5878 10.5153L23.588 10.5156C23.5534 10.6094 23.5192 10.703 23.4847 10.7966L23.4844 10.7967C23.3709 10.753 23.2575 10.7097 23.1439 10.6663Z" fill="#4CB7E8"/>
<path d="M22.9277 11.2513C23.0404 11.2942 23.153 11.337 23.2657 11.3798C23.2321 11.4725 23.1985 11.5652 23.1649 11.658C23.0507 11.6163 22.9362 11.5745 22.8219 11.5328C22.8572 11.4387 22.8924 11.3448 22.9277 11.2513Z" fill="#82D2EF"/>
<path d="M21.4308 15.2532C21.5438 15.2961 21.6567 15.339 21.7696 15.3819C21.7357 15.4748 21.7017 15.5677 21.6678 15.6606C21.5539 15.6187 21.4397 15.5768 21.3259 15.5349C21.3611 15.4408 21.396 15.3469 21.4308 15.2532Z" fill="#82D2EF"/>
<path d="M21.3228 15.5363C21.4367 15.5782 21.5508 15.6201 21.6647 15.662L21.6649 15.6623C21.6303 15.7561 21.5961 15.8497 21.5615 15.9435L21.5612 15.9437C21.4476 15.9002 21.3341 15.8565 21.2208 15.8132C21.2549 15.7206 21.2889 15.6283 21.3228 15.5363Z" fill="#4CB7E8"/>
<path d="M22.8199 11.5353C22.9342 11.577 23.0487 11.6188 23.1629 11.6605L23.1632 11.6612C23.1284 11.7549 23.0936 11.8486 23.0589 11.942L23.0585 11.9422C22.9452 11.8988 22.8316 11.8554 22.7183 11.8121C22.7522 11.72 22.7862 11.6277 22.8199 11.5353Z" fill="#4CB7E8"/>
<path d="M22.7139 11.8145C22.8272 11.8578 22.9405 11.9011 23.0541 11.9446C23.0197 12.0373 22.9852 12.13 22.9508 12.2227C22.8375 12.1808 22.7242 12.1389 22.6109 12.0969C22.6454 12.0026 22.6798 11.9084 22.7139 11.8145Z" fill="#82D2EF"/>
<path d="M22.6089 12.1C22.7222 12.1419 22.8355 12.1838 22.9487 12.2257C22.9152 12.3199 22.882 12.4139 22.8485 12.508L22.8467 12.5088C22.7329 12.4644 22.6193 12.4204 22.5054 12.376C22.5399 12.2839 22.5744 12.1921 22.6089 12.1Z" fill="#4CB7E8"/>
<path d="M21.22 15.8162C21.3336 15.8597 21.4471 15.9034 21.5604 15.9467C21.5257 16.0393 21.4914 16.1317 21.4566 16.2243C21.3434 16.1824 21.2301 16.1405 21.1169 16.0984C21.1513 16.0042 21.1856 15.9104 21.22 15.8162Z" fill="#82D2EF"/>
<path d="M22.3894 12.6814C22.5039 12.7232 22.6185 12.7647 22.733 12.8065L22.7335 12.8076C22.6984 12.9012 22.6633 12.9947 22.6283 13.0883C22.5149 13.045 22.4016 13.0016 22.2883 12.9583C22.322 12.8659 22.3557 12.7738 22.3894 12.6814Z" fill="#4CB7E8"/>
<path d="M22.2855 12.9612C22.3989 13.0045 22.5122 13.0479 22.6255 13.0912C22.5914 13.1838 22.5573 13.2763 22.523 13.3688C22.4093 13.327 22.2958 13.285 22.1819 13.2431C22.2165 13.1493 22.2511 13.0553 22.2855 12.9612Z" fill="#82D2EF"/>
<path d="M21.0029 16.3983C21.1155 16.4412 21.2285 16.4841 21.3412 16.5266C21.3076 16.6194 21.274 16.7121 21.2404 16.8048C21.1262 16.7631 21.012 16.7214 20.8976 16.6794C20.9326 16.5858 20.9677 16.4922 21.0029 16.3983Z" fill="#82D2EF"/>
<path d="M20.8941 16.6827C21.0084 16.7244 21.1226 16.7661 21.237 16.8081L21.2373 16.8088C21.2025 16.9025 21.1677 16.9962 21.133 17.0896L21.1326 17.0898C21.0193 17.0464 20.9057 17.003 20.7924 16.9596C20.8264 16.8673 20.8604 16.7751 20.8941 16.6827Z" fill="#4CB7E8"/>
<path d="M22.1806 13.2451C22.2942 13.2869 22.4077 13.3289 22.5216 13.3708C22.4876 13.4647 22.4538 13.5588 22.42 13.6529C22.42 13.6529 22.4187 13.6532 22.419 13.6533C22.3053 13.6093 22.1915 13.5655 22.0779 13.5215C22.1118 13.4294 22.1461 13.3372 22.1806 13.2451Z" fill="#4CB7E8"/>
<path d="M20.7897 16.9616C20.903 17.005 21.0166 17.0484 21.13 17.0917C21.0955 17.1844 21.0611 17.2771 21.0266 17.3698C20.9133 17.3279 20.8 17.286 20.6867 17.2441C20.721 17.1496 20.7554 17.0555 20.7897 16.9616Z" fill="#82D2EF"/>
<path d="M20.6851 17.2466C20.7983 17.2885 20.9116 17.3305 21.0249 17.3724C20.9916 17.4666 20.9582 17.5605 20.9249 17.6548C20.9249 17.6548 20.9232 17.6556 20.9231 17.6558C20.8092 17.6114 20.6954 17.5671 20.5816 17.5227C20.6161 17.4306 20.6505 17.3387 20.6851 17.2466Z" fill="#4CB7E8"/>
<path d="M21.9622 13.8271C22.077 13.8687 22.1916 13.9103 22.3065 13.9517C22.3065 13.9517 22.3074 13.9532 22.3071 13.9531C22.2716 14.0465 22.2362 14.14 22.2008 14.2331C22.0878 14.1902 21.975 14.147 21.8618 14.104C21.8955 14.0119 21.9289 13.9197 21.9622 13.8271Z" fill="#4CB7E8"/>
<path d="M21.8584 14.1069C21.9714 14.1498 22.0842 14.1929 22.1974 14.2359C22.1634 14.3288 22.1293 14.4214 22.0954 14.5142C21.9815 14.4724 21.8676 14.4305 21.7538 14.3884C21.7886 14.2947 21.8235 14.2008 21.8584 14.1069Z" fill="#82D2EF"/>
<path d="M21.751 14.3912C21.8649 14.433 21.9788 14.4749 22.0926 14.517L22.0928 14.5171C22.0588 14.6111 22.0245 14.7049 21.9904 14.7989L21.9897 14.7992C21.876 14.7554 21.7625 14.7117 21.6488 14.6677C21.6828 14.5754 21.717 14.4835 21.751 14.3912Z" fill="#4CB7E8"/>
<path d="M20.4662 17.8286C20.5807 17.8703 20.6953 17.9119 20.8095 17.9536L20.81 17.9546C20.7749 18.0482 20.7399 18.1418 20.7048 18.2354L20.7045 18.2356C20.5911 18.1922 20.4778 18.1489 20.3644 18.1058C20.3987 18.0133 20.4325 17.9209 20.4662 17.8286Z" fill="#4CB7E8"/>
<path d="M23.142 10.6686C23.2556 10.7121 23.3688 10.7557 23.4824 10.7991C23.4477 10.8917 23.4133 10.9842 23.3786 11.0768C23.2654 11.0349 23.1523 10.993 23.039 10.9511C23.0735 10.8567 23.1076 10.7628 23.142 10.6686Z" fill="#82D2EF"/>
<path d="M21.6465 14.6699C21.7602 14.7137 21.8737 14.7574 21.9874 14.8014C21.9525 14.8937 21.9179 14.986 21.8831 15.0783C21.77 15.0365 21.6571 14.9944 21.5441 14.9526C21.5782 14.8584 21.6123 14.7641 21.6465 14.6699Z" fill="#82D2EF"/>
<path d="M23.591 10.5123C23.4771 10.4705 23.3632 10.4286 23.249 10.3867C23.2839 10.2927 23.3189 10.1988 23.3539 10.1052C23.4668 10.1481 23.5798 10.191 23.6927 10.2339C23.6588 10.3265 23.6249 10.4194 23.591 10.5123Z" fill="#82D2EF"/>
<path d="M23.6925 10.2266C23.728 10.1282 23.7632 10.0296 23.7987 9.93118C23.8054 9.9334 23.8125 9.93547 23.8194 9.93778C24.0027 10.0063 24.1858 10.076 24.3698 10.1434C24.4148 10.1599 24.4554 10.1822 24.4939 10.2095C24.5544 10.2521 24.5849 10.3071 24.5652 10.3794C24.5455 10.4514 24.4825 10.4686 24.4177 10.4751C24.3745 10.4795 24.3319 10.4666 24.2901 10.4507C24.0911 10.3746 23.8915 10.3011 23.6925 10.2266Z" fill="#82D2EF"/>
<path d="M21.9884 14.795C22.0224 14.7016 22.0565 14.6083 22.0905 14.515C22.3084 14.5967 22.5261 14.679 22.7443 14.76C22.8195 14.7879 22.8611 14.8386 22.8614 14.9169C22.8615 14.9853 22.8165 15.0211 22.7588 15.0482C22.7172 15.0678 22.6807 15.0524 22.6426 15.0382C22.4248 14.957 22.2066 14.876 21.9884 14.795Z" fill="#82D2EF"/>
<path d="M21.1308 17.0855C21.1655 16.9924 21.2002 16.8993 21.2348 16.8065C21.4461 16.8858 21.6574 16.9651 21.8685 17.0449C21.9787 17.0867 22.0268 17.1621 21.9988 17.2466C21.9699 17.3343 21.8791 17.3642 21.765 17.3218C21.5537 17.2434 21.3423 17.1643 21.1308 17.0855Z" fill="#82D2EF"/>
<path d="M22.845 12.5034C22.8784 12.4098 22.9115 12.3164 22.9449 12.2229C23.1594 12.3031 23.3744 12.3818 23.5878 12.4647C23.6598 12.4927 23.7159 12.5416 23.7169 12.6258C23.7175 12.6938 23.6716 12.7295 23.6143 12.7565C23.5728 12.7758 23.5364 12.7603 23.4986 12.7461C23.2806 12.6652 23.0627 12.5842 22.845 12.5034Z" fill="#83D2EF"/>
<path d="M23.2655 11.3732C23.3018 11.2746 23.3383 11.1758 23.375 11.0772C23.52 11.1316 23.6656 11.1855 23.8103 11.2408C23.9099 11.2787 23.9726 11.3777 23.9481 11.4551C23.923 11.5349 23.8052 11.5742 23.7011 11.5358C23.5554 11.4824 23.4105 11.4276 23.2655 11.3732Z" fill="#83D2EF"/>
<path d="M21.5603 15.9408C21.5947 15.8477 21.6289 15.7542 21.6633 15.6608C21.8151 15.7179 21.9672 15.7743 22.1187 15.8324C22.2147 15.8692 22.2636 15.956 22.2353 16.0351C22.2059 16.1171 22.1194 16.1476 22.0167 16.1103C21.8641 16.0545 21.7123 15.9974 21.5603 15.9408Z" fill="#82D2EF"/>
<path d="M20.7039 18.2317C20.7388 18.1385 20.7738 18.0454 20.8088 17.9522C20.9605 18.0095 21.1123 18.0658 21.2637 18.1242C21.3657 18.1635 21.411 18.2436 21.3797 18.3252C21.3496 18.4036 21.2567 18.4367 21.1599 18.4013C21.0073 18.3456 20.8558 18.2886 20.7039 18.2317Z" fill="#82D2EF"/>
<path d="M22.417 13.6496C22.4507 13.5559 22.4846 13.4624 22.5183 13.3687C22.6699 13.4257 22.8214 13.4822 22.9727 13.5397C23.0514 13.5694 23.0863 13.6307 23.093 13.709C23.0989 13.7775 23.049 13.8053 22.9974 13.8317C22.9564 13.8527 22.9197 13.8361 22.8815 13.8221C22.7267 13.7644 22.5718 13.707 22.417 13.6496Z" fill="#82D2EF"/>
<path d="M21.7689 15.3755C21.8053 15.2766 21.8416 15.1773 21.8781 15.0784C21.9631 15.1103 22.0494 15.1395 22.1327 15.175C22.2449 15.223 22.2788 15.2974 22.2395 15.3938C22.2042 15.481 22.1253 15.5071 22.0148 15.4668C21.9323 15.4373 21.8506 15.4061 21.7689 15.3755Z" fill="#83D2EF"/>
<path d="M21.341 16.5215C21.3774 16.4226 21.414 16.3234 21.4504 16.2245C21.5355 16.2564 21.6208 16.2873 21.7053 16.3206C21.8067 16.3606 21.8474 16.4341 21.8189 16.5202C21.787 16.6163 21.7163 16.6523 21.6062 16.6186C21.5163 16.5914 21.4291 16.5542 21.341 16.5215Z" fill="#83D2EF"/>
<path d="M23.0531 11.9385C23.0879 11.845 23.1227 11.7514 23.1574 11.6581C23.2516 11.694 23.3469 11.7278 23.4402 11.7661C23.5322 11.804 23.5573 11.8671 23.5221 11.958C23.4934 12.032 23.4153 12.0701 23.3371 12.0433C23.2415 12.0106 23.1476 11.9737 23.0531 11.9385Z" fill="#82D2EF"/>
<path d="M22.627 13.0841C22.6621 12.9907 22.6971 12.8972 22.7321 12.8037C22.8207 12.8375 22.9097 12.8703 22.9977 12.905C23.1025 12.9462 23.1318 13.0042 23.098 13.0981C23.0687 13.1799 22.9884 13.2148 22.8937 13.1827C22.8041 13.1522 22.7159 13.1172 22.627 13.0841Z" fill="#82D2EF"/>
<path d="M20.923 17.6528C20.9563 17.5587 20.9897 17.4649 21.023 17.3707C21.1085 17.4028 21.1946 17.4339 21.2795 17.4675C21.3811 17.5078 21.422 17.5845 21.3901 17.6695C21.3541 17.7663 21.2943 17.7888 21.1801 17.7474C21.0946 17.7162 21.0087 17.6843 20.923 17.6528Z" fill="#82D2EF"/>
<path d="M22.1968 14.2297C22.2324 14.1365 22.2676 14.0431 22.3031 13.9501C22.3917 13.9839 22.4806 14.0169 22.5687 14.0513C22.6696 14.0911 22.6997 14.1462 22.6717 14.2356C22.6452 14.3201 22.565 14.3615 22.4732 14.3317C22.3798 14.3014 22.2887 14.2642 22.1968 14.2297Z" fill="#83D2EF"/>
<path d="M23.4837 10.7938C23.5181 10.7004 23.5524 10.6066 23.5868 10.5132C23.6753 10.5467 23.7642 10.5795 23.8523 10.6139C23.9458 10.6504 23.9842 10.7261 23.9532 10.8101C23.9224 10.8938 23.844 10.9263 23.7499 10.8925C23.661 10.8603 23.5727 10.8266 23.4837 10.7938Z" fill="#82D2EF"/>
<path d="M17.8892 9.92604C17.9352 9.91932 17.9809 9.91263 18.0269 9.90591C18.1632 9.92028 18.2943 9.90111 18.4201 9.84838C18.4529 9.84358 18.4855 9.83882 18.5183 9.83401C18.5443 9.99138 18.5495 10.1498 18.5556 10.3084C18.5604 10.4351 18.6333 10.5195 18.7342 10.5174C18.8611 10.5146 18.9229 10.4389 18.913 10.302C18.9019 10.1472 18.8926 9.99218 18.8826 9.83753C19.091 9.83011 19.2992 9.83481 19.5072 9.85923C19.5048 9.89672 19.5016 9.93459 19.4997 9.97228C19.4927 10.1162 19.4566 10.2582 19.4727 10.4035C19.4847 10.5126 19.5463 10.5699 19.6446 10.5693C19.7377 10.5689 19.7966 10.5055 19.8085 10.4205C19.8333 10.2478 19.8412 10.072 19.856 9.89736C20.0658 9.93447 20.2747 9.97479 20.4803 10.035C20.4432 10.1774 20.4053 10.3199 20.3689 10.4628C20.3337 10.6016 20.3854 10.7034 20.5031 10.7295C20.5928 10.7496 20.6753 10.6931 20.7073 10.5804C20.7485 10.4354 20.7839 10.2887 20.822 10.1428C21.0198 10.2098 21.2143 10.2854 21.4002 10.3845C21.4067 10.4401 21.3769 10.4827 21.3558 10.5283C21.3088 10.6294 21.2577 10.7285 21.2145 10.8316C21.174 10.9281 21.2105 11.0375 21.2913 11.0837C21.3591 11.1221 21.4753 11.102 21.512 11.0294C21.5907 10.8733 21.6751 10.7195 21.7272 10.5496C21.9131 10.6574 22.0996 10.7637 22.2681 10.9008C22.2659 10.9489 22.2368 10.9825 22.2118 11.0182C22.0884 11.1946 21.963 11.3696 21.8421 11.5479C21.7639 11.6631 21.8079 11.7979 21.9332 11.8398C22.0302 11.8723 22.0925 11.8139 22.1429 11.7444C22.2727 11.5645 22.3985 11.3816 22.5258 11.1998C22.5434 11.1747 22.5596 11.1493 22.5598 11.1164C22.676 11.2048 22.7929 11.2926 22.9086 11.3823C22.9603 11.4226 23.0005 11.4738 23.0284 11.535C23.1081 11.7112 23.0626 11.861 22.9599 12.0068C20.9331 14.8976 18.9077 17.7892 16.8821 20.6809C16.8667 20.7028 16.8515 20.7256 16.8346 20.7464C16.6972 20.9175 16.4797 20.9471 16.3001 20.8147C16.1826 20.7281 16.0696 20.6347 15.9544 20.5443C15.9657 20.5376 15.9807 20.534 15.988 20.524C16.1336 20.3181 16.2829 20.1152 16.4213 19.9042C16.4881 19.8025 16.4589 19.7035 16.3676 19.6443C16.2827 19.5889 16.1952 19.6087 16.1274 19.7039C16.0045 19.8763 15.884 20.0506 15.7621 20.224C15.737 20.2594 15.7155 20.2989 15.6721 20.3153C15.4971 20.1874 15.3451 20.0318 15.1924 19.8772C15.3333 19.777 15.448 19.6463 15.5637 19.5186C15.6182 19.4583 15.606 19.3737 15.5657 19.3056C15.5281 19.242 15.4664 19.222 15.3922 19.234C15.3281 19.2445 15.2891 19.2859 15.2447 19.3262C15.1447 19.417 15.0675 19.5346 14.9454 19.5992C14.8 19.4413 14.6734 19.2677 14.5528 19.0893C14.685 19.0002 14.8179 18.9121 14.9487 18.8213C15.0144 18.7756 15.0272 18.7068 15.0086 18.6291C14.9925 18.5625 14.9536 18.5162 14.8885 18.5021C14.8203 18.4873 14.7584 18.5051 14.7007 18.5453C14.5861 18.6248 14.4694 18.7012 14.3537 18.7789C14.2379 18.5905 14.1394 18.3926 14.0432 18.1934C14.2001 18.1334 14.3553 18.0693 14.503 17.9883C14.5698 17.9518 14.6024 17.8869 14.5925 17.8085C14.5834 17.7386 14.5385 17.687 14.4759 17.6629C14.4099 17.6374 14.3465 17.6616 14.2852 17.6886C14.1588 17.7445 14.0317 17.7994 13.9049 17.8545C13.8217 17.6526 13.7543 17.4456 13.6997 17.2342C13.8364 17.1996 13.9726 17.1619 14.1102 17.1308C14.2417 17.1009 14.3044 17.0141 14.2749 16.8913C14.2483 16.7796 14.1465 16.732 14.0196 16.7688C13.8777 16.8101 13.7354 16.8498 13.5883 16.8696C13.5818 16.8284 13.5754 16.7874 13.5689 16.7462C13.5792 16.6113 13.5599 16.4808 13.5077 16.3552C13.5001 16.307 13.4926 16.2592 13.4851 16.2111C13.6591 16.2053 13.8332 16.204 14.0065 16.1919C14.0977 16.1853 14.1645 16.0841 14.1535 15.9929C14.1424 15.9 14.0607 15.8245 13.9653 15.8275C13.8043 15.8325 13.6436 15.8425 13.4828 15.8505C13.4756 15.633 13.4765 15.4158 13.4919 15.1989C13.6349 15.194 13.7764 15.2222 13.9166 15.2459C14.0375 15.2665 14.132 15.1854 14.1423 15.0765C14.1519 14.978 14.0839 14.9027 13.9612 14.8824C13.8172 14.8585 13.6728 14.8388 13.5286 14.8174C13.554 14.6003 13.5999 14.3874 13.6433 14.1743C13.7891 14.2218 13.9343 14.2721 14.0809 14.3161C14.1796 14.3456 14.2677 14.2911 14.2967 14.1915C14.3241 14.0969 14.2795 14.0092 14.1784 13.9731C14.0307 13.9201 13.8839 13.8634 13.7297 13.8342C13.7424 13.8034 13.7559 13.773 13.7671 13.7416C13.8281 13.5706 13.8803 13.3959 13.9638 13.2349C14.1031 13.2648 14.2153 13.3601 14.3445 13.4143C14.4486 13.4582 14.5368 13.4349 14.5826 13.3446C14.6298 13.2514 14.5985 13.1493 14.4968 13.0919C14.3709 13.0206 14.2417 12.956 14.114 12.8883C14.2221 12.7057 14.3132 12.5118 14.4405 12.3421C14.4744 12.3645 14.5093 12.3849 14.5417 12.4097C14.7063 12.5361 14.8705 12.6632 15.0342 12.7905C15.0909 12.8349 15.1509 12.8598 15.2199 12.8334C15.283 12.8093 15.3224 12.7639 15.3322 12.691C15.3429 12.609 15.3071 12.5515 15.2479 12.5033C15.0522 12.3449 14.8433 12.2047 14.6564 12.0341C14.7734 11.8566 14.9213 11.7064 15.0564 11.5449C15.1487 11.6453 15.2412 11.7457 15.3333 11.8464C15.4253 11.9466 15.523 11.9613 15.6026 11.8861C15.6819 11.8112 15.6738 11.7111 15.5887 11.604C15.5037 11.4972 15.3908 11.4161 15.3261 11.2911C15.4688 11.1386 15.6369 11.0181 15.7983 10.8893C15.8796 11.0135 15.9599 11.1385 16.0429 11.2616C16.1192 11.3748 16.2105 11.4017 16.2954 11.34C16.3858 11.2742 16.3963 11.1697 16.3261 11.0579C16.2489 10.9353 16.1739 10.8116 16.0976 10.6885C16.2692 10.5731 16.4503 10.4755 16.6351 10.384C16.7005 10.5286 16.7639 10.6743 16.8322 10.8173C16.8806 10.9188 16.9719 10.9592 17.053 10.9231C17.1514 10.8792 17.1854 10.7786 17.145 10.6667C17.0922 10.5202 17.012 10.3854 16.9708 10.2342C17.1634 10.1549 17.3602 10.0889 17.5602 10.0316C17.601 10.1955 17.6396 10.3597 17.6827 10.523C17.708 10.6192 17.8015 10.6792 17.8896 10.6624C17.976 10.6458 18.0473 10.5555 18.0254 10.4673C17.9809 10.2862 17.952 10.1017 17.8892 9.92604ZM15.8819 16.084C15.9425 16.4552 16.0736 16.8439 16.2574 17.2161C16.303 17.3082 16.3253 17.2861 16.3707 17.2212C17.4667 15.6545 18.5639 14.0887 19.6611 12.5226C19.7254 12.4308 19.7253 12.43 19.6121 12.4038C19.1084 12.2862 18.6098 12.2984 18.117 12.4355C16.5918 12.8592 15.6258 14.4156 15.8819 16.084ZM18.6616 16.526C18.6705 16.6049 18.7101 16.6534 18.7826 16.6773C18.8747 16.7075 18.9408 16.6649 18.9888 16.5957C19.2847 16.1693 19.5961 15.7547 19.8749 15.3154C19.9437 15.2071 19.9278 15.1231 19.835 15.0551C19.7505 14.9929 19.6598 15.0141 19.5882 15.1146C19.4944 15.2464 19.4 15.3775 19.3105 15.5127C19.2677 15.5775 19.2305 15.5885 19.1666 15.5357C19.0404 15.4316 18.9095 15.3337 18.7793 15.2349C18.6827 15.1618 18.5715 15.1691 18.5128 15.2488C18.4516 15.3318 18.4771 15.4498 18.5764 15.5281C18.7021 15.6273 18.8275 15.7274 18.9566 15.821C19.0236 15.8697 19.0351 15.9105 18.9838 15.979C18.8849 16.1111 18.7937 16.249 18.6982 16.3837C18.6674 16.4273 18.647 16.4719 18.6616 16.526Z" fill="#EFC31A"/>
<path d="M13.4983 16.0858C13.5316 16.0024 13.4799 15.9121 13.5122 15.8288C13.6725 15.8208 13.8329 15.8108 13.9935 15.8058C14.0887 15.8029 14.1702 15.8782 14.1812 15.9708C14.1923 16.0617 14.1255 16.1626 14.0346 16.1692C13.8618 16.1816 13.688 16.1826 13.5144 16.1883C13.5091 16.1543 13.5037 16.1201 13.4983 16.0858Z" fill="#F19C1F"/>
<path d="M17.5339 10.0077C17.6007 9.95058 17.6986 9.97544 17.7647 9.91704C17.7976 9.91222 17.8303 9.90745 17.8632 9.90264C17.9261 10.0786 17.9551 10.2635 18.0002 10.444C18.0222 10.5326 17.9507 10.6231 17.864 10.6395C17.7758 10.6563 17.682 10.5959 17.6564 10.4999C17.6135 10.3365 17.5745 10.172 17.5339 10.0077Z" fill="#F19C1F"/>
<path d="M18.5649 9.80582C18.6597 9.8379 18.7567 9.78625 18.8515 9.82058C18.8616 9.97578 18.8708 10.1308 18.882 10.2859C18.8919 10.423 18.8297 10.4989 18.7027 10.5017C18.6014 10.5038 18.5283 10.4192 18.5235 10.2923C18.5174 10.1334 18.5122 9.9747 18.4861 9.81705C18.5125 9.81348 18.5386 9.80967 18.5649 9.80582Z" fill="#F19C1F"/>
<path d="M13.734 17.2144C13.6778 17.1365 13.6946 17.0314 13.6389 16.9534C13.6335 16.9191 13.6282 16.8851 13.6228 16.8508C13.7696 16.831 13.9116 16.7915 14.0531 16.7503C14.1798 16.7135 14.2813 16.7607 14.3079 16.8724C14.3371 16.9949 14.2748 17.0815 14.1435 17.1113C14.0063 17.1423 13.8704 17.1799 13.734 17.2144Z" fill="#F19C1F"/>
<path d="M18.3885 9.82803C18.2634 9.87959 18.133 9.89834 17.9974 9.88428C18.1278 9.86553 18.2582 9.84678 18.3885 9.82803Z" fill="#FAEEC2"/>
<path d="M13.5399 16.3339C13.5928 16.4602 13.6126 16.5912 13.6026 16.7265C13.5817 16.5956 13.5608 16.4648 13.5399 16.3339Z" fill="#FAEEC2"/>
<path d="M18.66 16.5333C18.6453 16.4789 18.666 16.4343 18.6966 16.3913C18.7921 16.2566 18.8832 16.1184 18.9821 15.9867C19.0334 15.9181 19.0219 15.877 18.9549 15.8286C18.8258 15.7347 18.7003 15.6349 18.5748 15.5357C18.4758 15.4574 18.45 15.3391 18.5112 15.2564C18.5701 15.1767 18.681 15.1694 18.7777 15.2425C18.9078 15.341 19.0387 15.4392 19.1649 15.5433C19.2287 15.5959 19.266 15.5848 19.3088 15.5203C19.3983 15.3854 19.4927 15.254 19.5865 15.1222C19.6581 15.0217 19.7488 15.0006 19.8332 15.0628C19.9258 15.1308 19.9417 15.2151 19.8732 15.323C19.5944 15.7624 19.283 16.1769 18.9872 16.6033C18.9392 16.6725 18.8731 16.7154 18.781 16.685C18.7082 16.661 18.6689 16.6122 18.66 16.5333Z" fill="#E47E25"/>
<path d="M22.2277 10.9071C22.3365 10.9618 22.4274 11.043 22.5196 11.1224C22.5194 11.1553 22.5033 11.1808 22.4857 11.2058C22.3584 11.3876 22.2326 11.5706 22.1028 11.7505C22.0524 11.8203 21.9901 11.8784 21.8931 11.8459C21.7678 11.804 21.7238 11.6692 21.8019 11.554C21.9228 11.3757 22.0483 11.2006 22.1716 11.0242C22.1964 10.9888 22.2253 10.9553 22.2277 10.9071Z" fill="#F19C1F"/>
<path d="M15.9957 20.5499C15.8965 20.4806 15.7952 20.4138 15.7137 20.3206C15.7569 20.3044 15.7786 20.2649 15.8036 20.2292C15.9253 20.0559 16.046 19.8816 16.1688 19.7092C16.2367 19.6141 16.3241 19.5943 16.409 19.6496C16.5002 19.7088 16.5294 19.8078 16.4626 19.9095C16.3244 20.1207 16.1751 20.3237 16.0295 20.5292C16.0223 20.5395 16.0071 20.5434 15.9957 20.5499Z" fill="#F19C1F"/>
<path d="M14.4415 12.3113C14.4775 12.1811 14.5496 12.0783 14.6571 12.0032C14.8441 12.1736 15.0528 12.3138 15.2486 12.4725C15.3079 12.5206 15.3438 12.5781 15.3328 12.6602C15.3232 12.733 15.2839 12.7784 15.2205 12.8026C15.1516 12.829 15.0918 12.804 15.0349 12.7597C14.8711 12.6321 14.707 12.505 14.5424 12.3789C14.5106 12.354 14.4754 12.3336 14.4415 12.3113Z" fill="#F19C20"/>
<path d="M19.4706 9.8441C19.5892 9.83099 19.705 9.85377 19.8205 9.88253C19.8056 10.0574 19.7974 10.2335 19.7729 10.4064C19.7606 10.4915 19.7019 10.5548 19.6086 10.5555C19.5101 10.5561 19.4483 10.4986 19.4363 10.3894C19.4202 10.2438 19.4564 10.1017 19.4634 9.95755C19.465 9.91957 19.4682 9.88191 19.4706 9.8441Z" fill="#F19C20"/>
<path d="M14.0811 18.1799C14.0216 18.0727 13.966 17.964 13.9428 17.8417C14.0693 17.7867 14.1962 17.7319 14.3223 17.6761C14.3835 17.6492 14.4468 17.625 14.5128 17.6505C14.5752 17.6745 14.6203 17.726 14.6291 17.7957C14.6392 17.874 14.6065 17.9389 14.5398 17.9753C14.3926 18.056 14.2377 18.12 14.0811 18.1799Z" fill="#F19C1F"/>
<path d="M21.3595 10.3835C21.4788 10.4156 21.5816 10.485 21.6867 10.5487C21.6346 10.7187 21.5501 10.8726 21.4714 11.0288C21.4346 11.1014 21.3184 11.1215 21.2506 11.083C21.1697 11.0372 21.1329 10.9277 21.1737 10.8308C21.2169 10.728 21.2678 10.6285 21.3151 10.5273C21.3362 10.4817 21.366 10.4391 21.3595 10.3835Z" fill="#F19C1F"/>
<path d="M15.2343 19.8777C15.1456 19.7914 15.0539 19.7081 14.9878 19.6C15.1098 19.5355 15.1869 19.4177 15.2868 19.3272C15.3312 19.287 15.3701 19.2453 15.4342 19.2351C15.5081 19.2231 15.57 19.243 15.6076 19.3067C15.6477 19.3745 15.66 19.4592 15.6055 19.5195C15.4896 19.6469 15.3751 19.7775 15.2343 19.8777Z" fill="#F19C1F"/>
<path d="M14.5929 19.0813C14.5123 18.9877 14.4476 18.8831 14.394 18.771C14.5096 18.6934 14.6262 18.6171 14.7407 18.5377C14.7982 18.4975 14.8601 18.4797 14.9282 18.4945C14.9929 18.5086 15.0321 18.5549 15.0482 18.6214C15.0668 18.699 15.0539 18.7677 14.9883 18.8133C14.8577 18.9043 14.7249 18.992 14.5929 19.0813Z" fill="#F19D20"/>
<path d="M16.6166 10.359C16.7157 10.2786 16.828 10.2295 16.9526 10.2088C16.9939 10.3602 17.0742 10.4952 17.1271 10.6418C17.1676 10.7539 17.1336 10.8546 17.035 10.8986C16.9537 10.935 16.8626 10.8945 16.8138 10.7927C16.7456 10.6497 16.6821 10.5038 16.6166 10.359Z" fill="#F19C20"/>
<path d="M13.5144 15.1715C13.4953 15.0406 13.5073 14.9136 13.5508 14.7907C13.6947 14.8121 13.8391 14.8317 13.9826 14.8556C14.1052 14.8761 14.1731 14.9513 14.1635 15.0493C14.1529 15.1578 14.0588 15.239 13.9381 15.2184C13.7981 15.1948 13.6572 15.1666 13.5144 15.1715Z" fill="#F19C20"/>
<path d="M20.4414 10.029C20.56 10.048 20.674 10.0837 20.7835 10.1369C20.7456 10.2829 20.71 10.43 20.6687 10.5749C20.6367 10.6877 20.5541 10.7442 20.4643 10.7241C20.3467 10.6977 20.2947 10.5961 20.3299 10.4572C20.3664 10.3142 20.4043 10.1718 20.4414 10.029Z" fill="#F19C20"/>
<path d="M15.7846 10.8591C15.8675 10.765 15.9651 10.6945 16.0842 10.6582C16.1603 10.7816 16.2357 10.9054 16.3129 11.0279C16.3832 11.1395 16.373 11.2443 16.2822 11.3102C16.1972 11.3722 16.1058 11.345 16.0294 11.2318C15.9463 11.1085 15.8662 10.9834 15.7846 10.8591Z" fill="#F19C20"/>
<path d="M13.6584 14.1441C13.6614 14.0231 13.6991 13.9125 13.7447 13.8044C13.8985 13.8336 14.0453 13.8903 14.1929 13.9431C14.2938 13.9792 14.3384 14.0668 14.311 14.1613C14.2821 14.2608 14.1941 14.3155 14.0955 14.2858C13.949 14.2418 13.804 14.1917 13.6584 14.1441Z" fill="#F19C20"/>
<path d="M13.9716 13.2058C13.9783 13.069 14.0483 12.9635 14.1219 12.8593C14.2496 12.927 14.3784 12.9919 14.5044 13.0629C14.6061 13.1203 14.6376 13.2222 14.5902 13.3154C14.5445 13.4056 14.4563 13.4289 14.3522 13.3851C14.2229 13.3307 14.1108 13.2357 13.9716 13.2058Z" fill="#F19C20"/>
<path d="M15.05 11.5148C15.1213 11.4087 15.1987 11.3095 15.3198 11.2606C15.3843 11.3857 15.4975 11.4668 15.5826 11.5736C15.6676 11.6808 15.6761 11.7811 15.5964 11.8558C15.5168 11.9308 15.4191 11.9164 15.327 11.8161C15.235 11.7157 15.1423 11.6152 15.05 11.5148Z" fill="#F19C20"/>
<path d="M25.858 15.3406C25.8562 15.4094 25.853 15.4782 25.853 15.547C25.8525 19.2243 25.8512 22.9012 25.858 26.5785C25.8585 26.7374 25.8065 26.7782 25.575 26.7779C22.3179 26.7718 19.0609 26.7737 15.8043 26.7737C15.7286 26.7737 15.6529 26.7705 15.5773 26.7689C15.5764 23.9131 15.575 21.0573 15.5741 18.2018C16.6785 18.2006 17.7828 18.1968 18.8872 18.1996C19.0932 18.1999 19.2924 18.1862 19.4806 18.1315C20.0695 17.9599 20.3963 17.595 20.3403 17.175C20.2655 16.613 19.6684 16.2908 18.8872 16.2914C17.7828 16.2924 16.6785 16.2892 15.5741 16.2879C15.5741 15.972 15.5741 15.6562 15.5741 15.3403L15.5777 15.3378C15.956 15.3381 16.3343 15.3387 16.7122 15.339C19.761 15.339 22.8097 15.34 25.858 15.3406Z" fill="#467BB7"/>
<path d="M15.5752 15.3401C15.5752 15.656 15.5752 15.9719 15.5752 16.2877L15.5793 16.2966C14.4507 16.2951 13.3222 16.2865 12.1941 16.2957C11.706 16.2995 11.2862 16.4281 11.0132 16.7332C10.4571 17.3554 11.0351 18.1498 12.0132 18.1864C13.1987 18.2307 14.3906 18.1947 15.5793 18.1934L15.5752 18.2023C15.5761 21.0581 15.5774 23.9139 15.5784 26.7694C15.5104 26.771 15.4421 26.7742 15.3742 26.7742C12.1021 26.7745 8.82952 26.7729 5.55742 26.7777C5.3505 26.778 5.29489 26.7417 5.29489 26.5952C5.30127 22.9125 5.2999 19.2298 5.29945 15.5471C5.29945 15.4783 5.29626 15.4096 5.29443 15.3408C8.72149 15.3408 12.1481 15.3405 15.5752 15.3401ZM10.7926 22.9625C11.6331 22.9625 12.4731 22.9597 13.3135 22.9651C13.4808 22.966 13.541 22.9348 13.5341 22.8138C13.5214 22.5922 13.525 22.3696 13.5332 22.1477C13.5369 22.0484 13.4991 22.0076 13.3441 22.0076C11.6486 22.0108 9.95258 22.0105 8.25705 22.0079C8.12122 22.0076 8.06835 22.036 8.072 22.1343C8.0802 22.3563 8.08613 22.5788 8.07018 22.8005C8.06015 22.9393 8.13763 22.9663 8.31812 22.9651C9.14219 22.959 9.96762 22.9625 10.7926 22.9625ZM10.7903 24.8682C11.6308 24.8682 12.4708 24.8656 13.3113 24.8704C13.4754 24.8714 13.5414 24.8443 13.5341 24.7211C13.5209 24.4995 13.5255 24.2769 13.5328 24.055C13.536 23.9575 13.5041 23.913 13.3464 23.9133C11.6508 23.9165 9.95485 23.9165 8.25933 23.9133C8.10254 23.913 8.06835 23.9563 8.07154 24.0543C8.07929 24.2763 8.08339 24.4988 8.07018 24.7205C8.06288 24.8427 8.12715 24.8714 8.29214 24.8704C9.12487 24.8656 9.95759 24.8682 10.7903 24.8682Z" fill="#84B2E8"/>
<path d="M15.5741 16.287C16.6785 16.2883 17.7828 16.2918 18.8872 16.2905C19.6684 16.2899 20.2655 16.6118 20.3403 17.1741C20.3963 17.5941 20.0695 17.9589 19.4806 18.1306C19.2919 18.1857 19.0932 18.1993 18.8872 18.1987C17.7828 18.1962 16.6785 18.1997 15.5741 18.2009L15.5782 18.192C15.5782 17.5597 15.5782 16.9273 15.5782 16.2953L15.5741 16.287Z" fill="#568ECC"/>
<path d="M15.5788 16.2956C15.5788 16.928 15.5788 17.5603 15.5788 18.1924C14.3896 18.1937 13.1982 18.2296 12.0127 18.1854C11.035 18.1488 10.4566 17.3543 11.0127 16.7322C11.2852 16.4271 11.7055 16.2985 12.1936 16.2947C13.3222 16.2854 14.4507 16.294 15.5788 16.2956Z" fill="#9CC4F2"/>
<path d="M10.7927 22.962C9.96769 22.962 9.14226 22.9588 8.31729 22.9645C8.1368 22.9658 8.05931 22.9387 8.06934 22.7999C8.08529 22.5783 8.07937 22.3557 8.07116 22.1338C8.06752 22.0351 8.12084 22.0071 8.25621 22.0074C9.95174 22.0096 11.6477 22.0103 13.3432 22.0071C13.4982 22.0068 13.536 22.0475 13.5324 22.1472C13.5242 22.3691 13.521 22.5917 13.5333 22.8133C13.5401 22.9343 13.48 22.9655 13.3127 22.9645C12.4736 22.9591 11.6331 22.962 10.7927 22.962Z" fill="#9CC4F2"/>
<path d="M10.7903 24.8682C9.95755 24.8682 9.12482 24.8654 8.2921 24.8705C8.12711 24.8714 8.06284 24.8428 8.07013 24.7205C8.08335 24.4989 8.07925 24.2763 8.0715 24.0544C8.06831 23.9563 8.10204 23.913 8.25929 23.9133C9.95481 23.9165 11.6508 23.9165 13.3463 23.9133C13.5045 23.913 13.5364 23.9576 13.5327 24.055C13.5254 24.277 13.5209 24.4995 13.5341 24.7211C13.5414 24.8444 13.4753 24.8714 13.3112 24.8705C12.4708 24.8657 11.6307 24.8682 10.7903 24.8682Z" fill="#9CC4F2"/>
</svg>
