<svg width="31" height="31" viewBox="0 0 31 31" fill="none" xmlns="http://www.w3.org/2000/svg">
<path d="M27.115 13.5551C26.9658 13.7314 26.8256 13.9167 26.6628 14.0794C25.6047 15.1459 24.5376 16.208 23.475 17.2701C22.9866 17.7627 22.6791 17.7582 22.1817 17.2611C22.0642 17.1435 21.9421 17.0306 21.8245 16.9176C20.8614 15.9504 19.8937 14.9832 18.9306 14.0116C18.5688 13.65 18.2116 13.2839 17.8544 12.9224C17.9132 12.8546 17.9719 12.7868 18.0352 12.7235C19.4234 11.336 20.8071 9.95309 22.1953 8.56562C22.2586 8.50235 22.3129 8.43004 22.3716 8.36224C22.4395 8.421 22.5118 8.47523 22.5751 8.5385C23.9407 9.89886 25.3063 11.2637 26.6628 12.6286C26.8256 12.7913 26.9613 12.9766 27.1105 13.1529C27.115 13.2839 27.115 13.4195 27.115 13.5551Z" fill="#00C1F3"/>
<path d="M22.3765 8.35794C22.3177 8.42573 22.2635 8.49805 22.2002 8.56132C20.812 9.94879 19.4283 11.3317 18.0401 12.7192C17.9768 12.7825 17.918 12.8503 17.8592 12.9181C17.8457 12.9181 17.8321 12.9181 17.8231 12.9136C17.8005 12.8819 17.7824 12.8503 17.7552 12.8232C16.5117 11.5758 15.2637 10.3329 14.0202 9.09009C13.975 9.0449 13.9117 9.01778 13.8575 8.97711C13.7218 8.82797 13.5952 8.6743 13.455 8.52968C13.0707 8.13649 13.0707 7.76589 13.455 7.37722C14.5719 6.26092 15.6843 5.14461 16.8057 4.03282C16.9458 3.89272 17.1222 3.78877 17.2804 3.66675C17.3844 3.66675 17.493 3.66675 17.597 3.66675C17.7552 3.78877 17.9316 3.89272 18.0718 4.0283C19.4554 5.40222 20.8346 6.78517 22.2137 8.16813C22.268 8.23592 22.3222 8.29919 22.3765 8.35794Z" fill="#AFE2FA"/>
<path d="M17.8198 12.913C17.8334 12.9175 17.847 12.9175 17.856 12.9175C18.2132 13.2791 18.5705 13.6452 18.9322 14.0067C19.8953 14.9739 20.863 15.9456 21.8261 16.9127C21.4644 17.6133 21.1027 18.3093 20.7409 19.0098C19.8592 20.7317 18.9729 22.4536 18.1092 24.1845C17.9284 24.5461 17.6751 24.7224 17.2863 24.7856C14.745 25.1833 12.2083 25.5946 9.66705 25.9968C8.15677 26.2364 6.6465 26.4804 5.13622 26.72C5.06839 26.729 5.00057 26.7245 4.93274 26.729C5.08196 26.607 5.24474 26.4985 5.38492 26.3629C8.31956 23.4343 11.2497 20.5057 14.1753 17.5771C14.2883 17.4641 14.3923 17.4008 14.5596 17.3918C15.0209 17.3782 15.3419 17.1252 15.5047 16.7094C15.672 16.28 15.5996 15.8687 15.2605 15.5343C15.256 15.5208 15.256 15.5072 15.2515 15.4936C15.8845 14.8654 16.5176 14.2417 17.1506 13.609C17.3767 13.3785 17.5983 13.1435 17.8198 12.913Z" fill="#FBA92D"/>
<path d="M17.8195 12.9136C17.5979 13.144 17.3764 13.3791 17.1503 13.605C16.5172 14.2332 15.8842 14.8614 15.2511 15.4896C15.2014 15.458 15.1562 15.4218 15.1064 15.3902C14.7492 15.1642 14.3694 15.1326 13.9941 15.3224C13.6323 15.5032 13.4198 15.8105 13.4017 16.2173C13.3972 16.3845 13.3339 16.493 13.2254 16.6059C10.2953 19.521 7.36965 22.4451 4.44858 25.3737C4.30388 25.5183 4.18179 25.6946 4.05066 25.8573C4.15014 25.2155 4.2451 24.5692 4.3491 23.9275C4.53449 22.7343 4.72441 21.5457 4.91432 20.3571C5.08163 19.2995 5.25346 18.242 5.42528 17.1844C5.6152 15.9958 5.81868 14.8072 5.99051 13.6141C6.05381 13.1576 6.23921 12.8638 6.66878 12.6469C9.02011 11.4718 11.3579 10.2697 13.7002 9.07653C13.7544 9.04942 13.8042 9.01778 13.8584 8.98615C13.9127 9.0223 13.976 9.04942 14.0212 9.09913C15.2692 10.342 16.5127 11.5894 17.7562 12.8322C17.7788 12.8503 17.8014 12.8864 17.8195 12.9136Z" fill="#FFE080"/>
<path d="M15.2578 15.5305C15.6014 15.8694 15.6738 16.2762 15.5019 16.7055C15.3392 17.1213 15.0181 17.3744 14.5569 17.388C14.3896 17.3925 14.2811 17.4603 14.1725 17.5733C11.2469 20.5019 8.31682 23.4305 5.3867 26.3591C5.25105 26.4947 5.08827 26.6031 4.93453 26.7251C4.6587 26.8336 4.43261 26.7749 4.22913 26.5489C4.28339 26.4856 4.33313 26.4223 4.39191 26.3636C7.94604 22.8113 11.5002 19.259 15.0543 15.7067C15.1176 15.6434 15.1899 15.5892 15.2578 15.5305Z" fill="#DB226E"/>
<path d="M15.2588 15.5308C15.1909 15.5896 15.1186 15.6438 15.0553 15.7071C11.5012 19.2594 7.94703 22.8117 4.3929 26.364C4.33412 26.4227 4.28438 26.486 4.23012 26.5492C4.02664 26.3549 3.9362 26.1335 4.04925 25.8578C4.18038 25.6951 4.29794 25.5233 4.44716 25.3742C7.36824 22.4456 10.2938 19.5215 13.224 16.6019C13.337 16.4889 13.3958 16.385 13.4003 16.2133C13.4139 15.8065 13.6264 15.4992 13.9927 15.3184C14.3725 15.1286 14.7478 15.1647 15.105 15.3862C15.1548 15.4178 15.2045 15.454 15.2497 15.4856C15.2542 15.5037 15.2588 15.5173 15.2588 15.5308Z" fill="#EE2B79"/>
</svg>
