<svg width="31" height="31" viewBox="0 0 31 31" fill="none" xmlns="http://www.w3.org/2000/svg">
<path d="M24.7769 13.8241C24.6048 13.4323 24.2809 13.2235 24.009 12.9571C22.1186 11.106 20.2203 9.26523 18.3262 7.41955C18.1429 7.2409 17.9499 7.15541 17.7202 7.2842C17.4933 7.41078 17.4144 7.63218 17.4154 7.91714C17.4186 8.85258 17.4135 9.78803 17.42 10.7235C17.4209 10.8797 17.3824 10.9197 17.2544 10.9147C16.7862 10.8983 16.3185 10.918 15.8526 10.9734C15.8526 12.6168 15.8531 14.2603 15.8531 15.9032C16.3301 15.8303 16.8098 15.8331 17.2896 15.8281C17.4288 15.8265 17.4177 15.9142 17.4177 16.021C17.4168 16.9367 17.4209 17.8519 17.4149 18.7676C17.4131 19.0548 17.4678 19.2953 17.6924 19.4444C17.9211 19.5962 18.1239 19.5091 18.3239 19.3529C19.9489 18.0837 21.5752 16.8162 23.2011 15.5486C23.6113 15.2292 24.0182 14.9031 24.434 14.5946C24.5871 14.4806 24.692 14.331 24.7778 14.1523C24.7769 14.0427 24.7769 13.9337 24.7769 13.8241Z" fill="#FEABB6"/>
<path d="M15.8522 15.9035C15.8522 14.2601 15.8517 12.6166 15.8517 10.9737C13.8476 11.2187 12.0761 12.1174 10.5374 13.6458C8.87113 15.3013 7.78303 17.3875 7.26473 19.8859C7.08144 20.7704 6.99375 21.6691 7.00024 22.5799C7.0021 22.8846 7.15801 23.1284 7.39465 23.2024C7.63083 23.2758 7.87769 23.1427 8.00018 22.8566C8.3287 22.0878 8.69852 21.3485 9.12727 20.652C10.2339 18.8529 11.6046 17.4396 13.3711 16.6033C14.1692 16.2247 15.0012 16.0175 15.8522 15.9035Z" fill="#FB8EA3"/>
</svg>
