<svg width="31" height="31" viewBox="0 0 31 31" fill="none" xmlns="http://www.w3.org/2000/svg">
<path d="M10.4393 21.0805C9.59478 21.3342 8.7844 21.6803 7.95783 21.9832C6.89312 22.3736 5.83321 22.7784 4.7703 23.1743C4.4302 23.3008 4.31383 23.2606 4.11108 22.965C4.11108 17.4299 4.11108 11.8948 4.11108 6.35969C4.23165 6.06221 4.4338 5.86369 4.74511 5.75034C6.01136 5.28733 7.27402 4.81413 8.53427 4.33433C9.11071 4.11482 9.69915 3.9271 10.2594 3.66681C10.3344 3.66681 10.4088 3.66681 10.4837 3.66681C10.4202 3.76937 10.4393 3.88392 10.4393 3.99487C10.4393 9.6901 10.4393 15.3853 10.4393 21.0805Z" fill="#7AC5FB"/>
<path d="M10.4391 21.0805C10.4391 15.3853 10.4391 9.69004 10.4397 3.99481C10.4397 3.88386 10.4205 3.76931 10.4841 3.66675C10.5291 3.66675 10.5741 3.66675 10.6185 3.66675C11.523 4.00981 12.427 4.35346 13.3327 4.69472C14.4334 5.10975 15.5353 5.52237 16.6372 5.9344C16.6774 5.9494 16.7236 5.9482 16.7668 5.95479C16.7674 7.73545 16.7674 9.51551 16.768 11.2962C16.7188 11.3118 16.6696 11.331 16.6192 11.3423C15.1532 11.6716 13.9434 12.4219 13.0142 13.5974C11.8134 15.1166 11.4085 16.8541 11.7558 18.7481C11.9855 20.0009 12.5685 21.0919 13.4815 21.9951C13.5427 22.0557 13.6321 22.1025 13.6207 22.2116C13.0988 22.0623 12.6039 21.8398 12.0923 21.6616C11.5416 21.4679 11.0096 21.2184 10.4391 21.0805Z" fill="#67AFE2"/>
<path d="M23.1267 13.8062C22.8748 13.5333 22.6486 13.2388 22.3823 12.9779C21.4723 12.0861 20.3824 11.5415 19.1408 11.301C18.4066 11.1589 17.6646 11.1523 16.9256 11.2908C16.8752 11.3004 16.8212 11.2944 16.769 11.2956C16.769 9.51497 16.769 7.73491 16.7684 5.95425C17.9939 5.5932 19.1642 5.07982 20.3644 4.6486C21.0735 4.3937 21.7747 4.11602 22.4813 3.85273C22.8868 3.70159 23.1345 3.86832 23.1351 4.29535C23.1369 7.42844 23.1357 10.5615 23.1357 13.6946C23.1351 13.7318 23.1297 13.769 23.1267 13.8062Z" fill="#97D4FF"/>
<path d="M24.1429 22.6028C24.48 22.4301 24.57 22.4433 24.8327 22.7053C25.4673 23.3393 26.1044 23.9708 26.7342 24.6095C27.1031 24.9838 27.1913 25.5014 26.9795 25.953C26.769 26.4028 26.3179 26.6733 25.82 26.6403C25.5339 26.6217 25.282 26.512 25.0786 26.3098C24.4098 25.6465 23.747 24.9778 23.0788 24.3145C22.8808 24.1184 22.9246 23.915 23.038 23.7027C23.4303 23.3609 23.792 22.9872 24.1429 22.6028Z" fill="#925353"/>
<path fill-rule="evenodd" clip-rule="evenodd" d="M13.5224 22.0281C13.576 22.0744 13.6309 22.1218 13.6218 22.2087L13.6236 22.2015C13.6644 22.1991 13.6992 22.2075 13.7166 22.2495C13.7456 22.2711 13.7749 22.2923 13.8041 22.3136C13.865 22.3577 13.9258 22.4018 13.9841 22.4492C15.0045 23.2775 16.1741 23.7513 17.4794 23.849C19.0389 23.966 20.4636 23.563 21.7334 22.6388C21.7441 22.6309 21.7544 22.6223 21.7647 22.6137C21.799 22.5851 21.8334 22.5565 21.8826 22.5549C22.2562 22.9476 22.6346 23.335 23.0339 23.7013C23.4273 23.3595 23.789 22.9858 24.1398 22.6014C23.861 22.2774 23.5541 21.9807 23.247 21.6839C23.1639 21.6035 23.0807 21.5232 22.9981 21.4422C22.9988 21.4414 22.9996 21.4406 23.0003 21.4399C23.0037 21.3807 23.0384 21.3402 23.073 21.2998C23.0868 21.2837 23.1006 21.2676 23.1124 21.2503C24.3499 19.4589 24.636 17.5277 23.9672 15.4549C23.7752 14.8594 23.4591 14.328 23.1268 13.8038C23.0297 13.6983 22.9362 13.5896 22.8426 13.4808C22.6942 13.3083 22.5458 13.1356 22.3824 12.9756C21.4725 12.0838 20.382 11.5392 19.1409 11.2987C18.4067 11.1565 17.6647 11.1499 16.9257 11.2885C16.8908 11.2951 16.8548 11.2943 16.8188 11.2936C16.8022 11.2932 16.7856 11.2929 16.7692 11.2933C16.7531 11.2983 16.7372 11.3037 16.7212 11.3091C16.6878 11.3205 16.6545 11.3317 16.6204 11.3395C15.1544 11.6693 13.9439 12.4196 13.0154 13.5945C11.8145 15.1137 11.4096 16.8518 11.7569 18.7452C11.9867 19.9987 12.5697 21.089 13.4827 21.9922C13.4951 22.0045 13.5087 22.0163 13.5224 22.0281ZM13.8486 19.8229H13.8492L13.8036 19.7773C13.4953 19.3053 13.3507 18.7728 13.2703 18.2264C13.0748 16.8979 13.3927 15.6894 14.2079 14.6279C14.9979 13.5993 16.0488 12.999 17.3372 12.8178C18.2969 12.6829 19.2069 12.84 20.0743 13.2629C20.1099 13.2803 20.1428 13.3029 20.1758 13.3255C20.1916 13.3364 20.2075 13.3473 20.2236 13.3576C20.2311 13.3651 20.2388 13.3726 20.2464 13.3801C20.2541 13.3876 20.2617 13.3951 20.2692 13.4026V13.402C20.5517 13.4788 20.7749 13.6629 20.9866 13.8446C21.9721 14.6897 22.5648 15.7446 22.6979 17.0551C22.8173 18.2282 22.539 19.2933 21.875 20.2493C21.1456 21.2995 20.1372 21.9574 18.8764 22.1961C17.4296 22.4702 16.1183 22.1272 14.9757 21.2173C14.5066 20.8443 14.0717 20.4107 13.8486 19.8229Z" fill="#594F4F"/>
<path d="M13.6233 22.2044C13.6635 22.202 13.6989 22.2104 13.7163 22.2524C13.6797 22.247 13.6383 22.2512 13.6233 22.2044Z" fill="#71C185"/>
<path d="M13.8058 19.7803C13.4975 19.3083 13.3529 18.7763 13.2725 18.2294C13.077 16.9009 13.3949 15.6924 14.2101 14.6309C14.9994 13.6023 16.0504 13.002 17.3394 12.8208C18.2985 12.6859 19.2091 12.843 20.0765 13.2658C20.1292 13.2916 20.176 13.3288 20.2258 13.3606C20.2408 13.3756 20.2564 13.3906 20.2714 13.4056V13.405C20.305 13.5033 20.332 13.6041 20.3722 13.6989C20.7177 14.5115 20.8448 15.3578 20.7069 16.228C20.5137 17.4497 19.9577 18.4813 18.9752 19.2538C17.7965 20.1804 16.4678 20.4964 14.9928 20.1984C14.5952 20.118 14.2335 19.9423 13.8502 19.8253H13.8508C13.8358 19.8109 13.8208 19.7959 13.8058 19.7803Z" fill="#E2F2FF"/>
<path d="M13.8479 19.8254C14.2312 19.9423 14.5935 20.118 14.9906 20.1984C16.4656 20.4959 17.7942 20.1804 18.9729 19.2538C19.9554 18.4813 20.5109 17.4497 20.7046 16.2281C20.8426 15.3584 20.7148 14.5116 20.3699 13.6989C20.3297 13.6035 20.3021 13.5028 20.2691 13.405C20.5517 13.4818 20.7754 13.6659 20.9865 13.8476C21.9721 14.6927 22.5647 15.7477 22.6979 17.0581C22.8166 18.2312 22.5389 19.2964 21.8749 20.2524C21.1455 21.3025 20.1378 21.9605 18.8763 22.1992C17.4295 22.4732 16.1183 22.1302 14.9756 21.2204C14.5059 20.8467 14.071 20.4131 13.8479 19.8254Z" fill="#DEEEFE"/>
<path d="M13.7559 22.3463C13.7673 22.2372 13.6779 22.1904 13.6167 22.1298C12.7038 21.2266 12.1207 20.1362 11.891 18.8827C11.5437 16.9893 11.9486 15.2513 13.1494 13.7321C14.078 12.5572 15.2884 11.8069 16.7544 11.477C16.8048 11.4656 16.8534 11.4464 16.9032 11.4309C16.9554 11.4297 17.0088 11.4357 17.0598 11.4261C17.7988 11.2875 18.5408 11.2941 19.275 11.4363C20.516 11.6768 21.6065 12.2213 22.5165 13.1132C22.7828 13.374 23.0095 13.6685 23.2609 13.9414C23.5932 14.4656 23.9093 14.997 24.1012 15.5925C24.77 17.6653 24.4839 19.5965 23.2465 21.3879C23.2051 21.4485 23.1391 21.4947 23.1343 21.5774C22.7858 21.9715 22.4019 22.3301 22.021 22.6924C21.9544 22.6924 21.9148 22.7415 21.8674 22.7763C20.5976 23.7005 19.173 24.1036 17.6134 23.9866C16.3082 23.8889 15.1385 23.4151 14.1182 22.5868C14.0318 22.5166 13.94 22.4537 13.8506 22.3871C13.8332 22.3451 13.7985 22.3367 13.7577 22.3391L13.7559 22.3463ZM13.9832 19.9605C14.2063 20.5483 14.6406 20.9819 15.1097 21.3549C16.2524 22.2647 17.5636 22.6078 19.0104 22.3337C20.2713 22.095 21.2796 21.4371 22.009 20.3869C22.673 19.4309 22.9513 18.3658 22.832 17.1927C22.6988 15.8822 22.1062 14.8272 21.1206 13.9822C20.9089 13.8005 20.6858 13.6163 20.4032 13.5396C20.3882 13.5246 20.3726 13.5102 20.3577 13.4952C20.3079 13.4634 20.2611 13.4262 20.2083 13.4004C19.3409 12.9776 18.431 12.8205 17.4712 12.9554C16.1828 13.1365 15.1319 13.7369 14.3419 14.7655C13.5267 15.827 13.2088 17.0355 13.4044 18.364C13.4847 18.9103 13.6293 19.4429 13.9376 19.9149C13.9532 19.9305 13.9682 19.9455 13.9832 19.9605Z" fill="#768C8C"/>
<path d="M24.2772 22.7374C24.6143 22.5646 24.7043 22.5778 24.967 22.8399C25.6016 23.4739 26.2386 24.1054 26.8685 24.7441C27.2374 25.1184 27.3255 25.636 27.1138 26.0876C26.9033 26.5374 26.4522 26.8079 25.9543 26.7749C25.6682 26.7563 25.4163 26.6465 25.2129 26.4444C24.5441 25.7811 23.8813 25.1124 23.2131 24.4491C23.0151 24.2529 23.0589 24.0496 23.1723 23.8373C23.5646 23.4955 23.9263 23.1218 24.2772 22.7374Z" fill="#EFC41B"/>
<path d="M24.2741 22.7373C23.9232 23.1217 23.5616 23.4954 23.1681 23.8372C22.7687 23.4708 22.3902 23.0833 22.0166 22.6905C22.3974 22.3288 22.7813 21.9696 23.1297 21.5756C23.5184 21.9564 23.919 22.3246 24.2741 22.7373Z" fill="#6B8183"/>
<path d="M13.9407 19.9146C13.6323 19.4426 13.4878 18.9106 13.4074 18.3637C13.2119 17.0352 13.5298 15.8267 14.345 14.7652C15.1343 13.7366 16.1852 13.1362 17.4743 12.9551C18.4334 12.8202 19.344 12.9773 20.2113 13.4001C20.2641 13.4259 20.3109 13.4631 20.3607 13.4949C20.3757 13.5099 20.3913 13.5249 20.4063 13.5399V13.5393C20.4399 13.6376 20.4669 13.7384 20.5071 13.8331C20.8526 14.6458 20.9797 15.4921 20.8418 16.3623C20.6486 17.584 20.0926 18.6156 19.11 19.388C17.9314 20.3146 16.6027 20.6307 15.1277 20.3326C14.73 20.2523 14.3683 20.0765 13.985 19.9596H13.9856C13.9707 19.9452 13.9557 19.9302 13.9407 19.9146Z" fill="white"/>
<path d="M20.2707 13.4061C20.2554 13.3908 20.2394 13.3754 20.2241 13.3601C20.2401 13.3748 20.2554 13.3901 20.2707 13.4061Z" fill="#90B9E0"/>
<path d="M18.2827 14.389C18.2827 16.9314 18.2827 20.8992 18.2827 20.8992" stroke="#768C8C" stroke-width="0.951679" stroke-linecap="round"/>
<path d="M21.3467 17.6442C18.8039 17.6442 14.8355 17.6442 14.8355 17.6442" stroke="#768C8C" stroke-width="0.951679" stroke-linecap="round"/>
<path d="M13.8062 19.7805C13.8215 19.7958 13.8368 19.8117 13.8521 19.8271C13.8368 19.8117 13.8215 19.7964 13.8062 19.7805Z" fill="#90B9E0"/>
</svg>
