<svg width="31" height="31" viewBox="0 0 31 31" fill="none" xmlns="http://www.w3.org/2000/svg">
<path d="M8.84791 19.0385C9.22105 19.0565 9.59892 19.0611 9.97206 19.1017C10.1941 19.1243 10.3594 19.3413 10.3641 19.5448C10.3688 19.7618 10.2129 19.9516 9.96733 20.0059C9.88232 20.024 9.7973 20.0466 9.71228 20.0466C9.13131 20.0511 8.55035 20.0511 7.96938 20.0466C7.61514 20.0466 7.37897 19.8703 7.36008 19.6081C7.33646 19.2826 7.56318 19.0656 7.95049 19.0611C8.24806 19.0565 8.54562 19.0611 8.84319 19.0611C8.84791 19.052 8.84791 19.0475 8.84791 19.0385Z" fill="#CFDADE"/>
<path d="M12.9066 18.9653C13.2798 18.9834 13.6576 18.9879 14.0308 19.0286C14.2528 19.0512 14.4181 19.2682 14.4228 19.4717C14.4275 19.6886 14.2717 19.8785 14.0261 19.9328C13.941 19.9508 13.856 19.9735 13.771 19.9735C13.19 19.978 12.6091 19.978 12.0281 19.9735C11.6739 19.9735 11.4377 19.7971 11.4188 19.5349C11.3952 19.2095 11.6219 18.9925 12.0092 18.9879C12.3068 18.9834 12.6043 18.9879 12.9019 18.9879C12.9066 18.9789 12.9066 18.9744 12.9066 18.9653Z" fill="#CFDADE"/>
<path d="M16.8195 18.9653C17.1926 18.9834 17.5705 18.9879 17.9436 19.0286C18.1656 19.0512 18.3309 19.2682 18.3356 19.4717C18.3404 19.6886 18.1845 19.8785 17.9389 19.9328C17.8539 19.9508 17.7689 19.9735 17.6838 19.9735C17.1029 19.978 16.5219 19.978 15.9409 19.9735C15.5867 19.9735 15.3505 19.7971 15.3316 19.5349C15.308 19.2095 15.5347 18.9925 15.922 18.9879C16.2196 18.9834 16.5172 18.9879 16.8147 18.9879C16.8195 18.9789 16.8195 18.9744 16.8195 18.9653Z" fill="#CFDADE"/>
<path d="M8.84175 4.62236C8.52056 4.62236 8.19938 4.62236 7.8782 4.62236C7.58535 4.62236 7.37753 4.45509 7.36336 4.21098C7.34446 3.92165 7.5334 3.68657 7.83569 3.67753C8.52529 3.66397 9.21489 3.66397 9.90449 3.67753C10.1595 3.68205 10.3815 3.95781 10.3626 4.18837C10.339 4.43249 10.1265 4.61784 9.85253 4.61784C9.51245 4.62236 9.1771 4.62236 8.84175 4.62236Z" fill="#CED9DD"/>
<path d="M16.8978 4.62277C16.5861 4.62277 16.2696 4.60921 15.9579 4.62729C15.6084 4.6499 15.4194 4.42838 15.3958 4.17522C15.3675 3.88589 15.6084 3.68246 15.9626 3.67794C16.5011 3.67342 17.0442 3.67794 17.5827 3.67794C17.6913 3.67794 17.8047 3.6689 17.9133 3.68246C18.2156 3.70959 18.4093 3.92658 18.3951 4.21139C18.3809 4.4555 18.1778 4.62729 17.885 4.62729C17.5544 4.62277 17.2285 4.62277 16.8978 4.62277Z" fill="#CED9DD"/>
<path d="M4.34573 11.8597C4.34573 11.5523 4.34573 11.2449 4.34573 10.933C4.34573 10.6346 4.53938 10.4176 4.80861 10.4041C5.08256 10.3905 5.32817 10.6256 5.33289 10.9285C5.34234 11.4303 5.33762 11.9366 5.33762 12.4384C5.33762 12.565 5.34706 12.6961 5.33289 12.8226C5.30455 13.1165 5.07311 13.2973 4.77082 13.2792C4.51577 13.2657 4.34573 13.0668 4.34573 12.782C4.341 12.4791 4.34573 12.1717 4.34573 11.8597Z" fill="#CED9DD"/>
<path d="M21.414 11.8691C21.414 12.1766 21.414 12.484 21.414 12.7959C21.414 13.0762 21.2345 13.2751 20.9794 13.2887C20.6866 13.3022 20.4363 13.1304 20.4315 12.8501C20.4126 12.1946 20.4126 11.5437 20.4315 10.8881C20.4363 10.6124 20.7102 10.3863 20.9605 10.4225C21.2723 10.4677 21.4423 10.6757 21.4234 10.9514C21.3951 11.2498 21.414 11.5617 21.414 11.8691Z" fill="#CED9DD"/>
<path d="M4.34481 15.6987C4.34481 15.3913 4.34481 15.0839 4.34481 14.7765C4.34481 14.4827 4.52429 14.2883 4.7888 14.2792C5.10053 14.2702 5.32725 14.4646 5.33198 14.772C5.34142 15.3054 5.3367 15.8344 5.33198 16.3678C5.33198 16.517 5.32725 16.6662 5.28947 16.8108C5.23279 17.0324 4.9919 17.1725 4.77935 17.1454C4.52902 17.1092 4.34953 16.9284 4.34953 16.6888C4.34009 16.3542 4.34481 16.0242 4.34481 15.6987Z" fill="#CED9DD"/>
<path d="M20.4185 15.6987C20.4185 15.3913 20.4185 15.0839 20.4185 14.7765C20.4185 14.4827 20.598 14.2883 20.8625 14.2792C21.1743 14.2702 21.401 14.4646 21.4057 14.772C21.4152 15.3054 21.4104 15.8344 21.4057 16.3678C21.4057 16.517 21.401 16.6662 21.3632 16.8108C21.3065 17.0324 21.0656 17.1725 20.8531 17.1454C20.6027 17.1092 20.4233 16.9284 20.4233 16.6888C20.4138 16.3542 20.4185 16.0242 20.4185 15.6987Z" fill="#CED9DD"/>
<path d="M12.8574 4.62236C12.5362 4.62236 12.2151 4.62688 11.8939 4.62236C11.6152 4.61784 11.3932 4.42345 11.3743 4.17029C11.3601 3.93069 11.5774 3.68205 11.8561 3.67753C12.5362 3.66397 13.2211 3.66397 13.9013 3.67753C14.1658 3.68205 14.4019 3.93973 14.3878 4.16577C14.3736 4.41893 14.1516 4.61784 13.8729 4.61784C13.5281 4.62236 13.1928 4.62236 12.8574 4.62236Z" fill="#CED9DD"/>
<path d="M4.34573 7.99441C4.34573 7.68701 4.34573 7.3796 4.34573 7.07219C4.34573 6.78738 4.55828 6.57039 4.8275 6.56135C5.06839 6.55683 5.32817 6.78286 5.33289 7.03602C5.34234 7.68248 5.34234 8.32895 5.33289 8.97089C5.32817 9.22857 5.06839 9.45009 4.8275 9.44557C4.55828 9.43652 4.34573 9.21953 4.34573 8.93925C4.341 8.62279 4.34573 8.30634 4.34573 7.99441Z" fill="#CED9DD"/>
<path d="M21.4128 8.01721C21.4128 8.32462 21.4128 8.63203 21.4128 8.93944C21.4128 9.21972 21.2003 9.44124 20.9311 9.44576C20.6902 9.4548 20.4304 9.22876 20.4257 8.97108C20.4162 8.32462 20.4162 7.67815 20.4257 7.03621C20.4304 6.78305 20.6902 6.5525 20.9311 6.56154C21.2003 6.57058 21.4128 6.78757 21.4128 7.06786C21.4128 7.38431 21.4128 7.70076 21.4128 8.01721Z" fill="#CED9DD"/>
<path d="M4.34583 19.0807C4.34583 18.9225 4.34583 18.7642 4.34583 18.606C4.35055 18.3393 4.55837 18.1268 4.81815 18.1133C5.05904 18.0997 5.30938 18.3257 5.33299 18.5789C5.34716 18.7281 5.29521 18.927 5.3755 19.0084C5.4558 19.0897 5.66835 19.04 5.81949 19.0626C6.15012 19.1033 6.33433 19.2932 6.32488 19.578C6.31544 19.8356 6.11234 20.03 5.79115 20.0436C5.48414 20.0572 5.17712 20.0617 4.87483 20.0436C4.52059 20.0255 4.34583 19.8311 4.34583 19.4876C4.34583 19.3519 4.34583 19.2163 4.34583 19.0807Z" fill="#CED9DD"/>
<path d="M20.3926 19.9764C20.2273 19.9764 20.062 19.9764 19.8967 19.9764C19.618 19.9719 19.396 19.7729 19.3818 19.5243C19.3677 19.2938 19.6038 19.0542 19.8683 19.0315C20.0242 19.018 20.232 19.0677 20.317 18.9909C20.4021 18.914 20.3501 18.7106 20.3737 18.5659C20.4162 18.2495 20.6146 18.0732 20.9122 18.0822C21.1814 18.0912 21.3845 18.2856 21.3987 18.593C21.4128 18.8869 21.4176 19.1807 21.3987 19.4701C21.3798 19.8091 21.1767 19.9764 20.8177 19.9764C20.676 19.9764 20.5343 19.9764 20.3926 19.9764Z" fill="#CED9DD"/>
<path d="M4.3455 4.63174C4.3455 4.48256 4.3455 4.32885 4.3455 4.17967C4.35023 3.88582 4.54388 3.68239 4.85562 3.67335C5.1768 3.6643 5.49798 3.6643 5.81917 3.67335C6.13091 3.68691 6.33401 3.89938 6.32456 4.18419C6.31984 4.44639 6.11674 4.61818 5.81444 4.6227C5.35629 4.62722 5.35629 4.62722 5.33739 5.06573C5.3185 5.47711 4.94064 5.72575 4.60528 5.52232C4.4872 5.44999 4.39274 5.28724 4.35495 5.15162C4.31244 4.98888 4.3455 4.80805 4.3455 4.63174Z" fill="#CED9DD"/>
<path d="M21.4118 4.6588C21.4118 4.79442 21.3976 4.93005 21.4165 5.06567C21.4495 5.34143 21.2701 5.54938 20.9583 5.59459C20.7174 5.63076 20.4765 5.41376 20.4293 5.15156C20.4246 5.1154 20.4246 5.07471 20.4246 5.03854C20.4151 4.62716 20.4151 4.62716 19.9664 4.62264C19.6405 4.61812 19.4374 4.45085 19.4327 4.17961C19.428 3.8948 19.6264 3.68233 19.9428 3.67328C20.264 3.66424 20.5852 3.66424 20.9064 3.67328C21.2181 3.68233 21.407 3.88576 21.4118 4.18413C21.4118 4.34235 21.4118 4.50058 21.4118 4.6588Z" fill="#CED9DD"/>
<path d="M13.7745 26.7745C13.4911 26.657 13.3824 26.4535 13.3824 26.1552C13.3919 24.2112 13.3871 22.2719 13.3871 20.3279C13.3871 20.2375 13.3824 20.1471 13.3777 20.0567C13.3777 19.7222 13.3777 19.3876 13.3777 19.0531C13.3824 18.9537 13.3871 18.8587 13.3871 18.7593C13.3871 15.2467 13.3871 11.7386 13.3871 8.22598C13.3871 8.12652 13.3824 8.03159 13.3966 7.93213C13.4438 7.5976 13.8217 7.42129 14.1241 7.59308C14.2091 7.6428 14.2894 7.71062 14.3603 7.77843C18.6402 11.8697 22.9154 15.9609 27.1858 20.0612C27.3039 20.1742 27.4031 20.3415 27.4362 20.4952C27.4834 20.7122 27.3181 20.9066 27.0913 20.9608C26.9874 20.988 26.874 20.9925 26.7654 20.9925C24.4648 20.9925 22.1643 20.997 19.859 20.988C19.6936 20.988 19.585 21.0332 19.4763 21.1507C17.7993 22.9093 16.1176 24.6678 14.4311 26.4219C14.3083 26.553 14.1477 26.6524 14.006 26.77C13.9304 26.7745 13.8548 26.7745 13.7745 26.7745Z" fill="#ACDAF5"/>
</svg>
