<svg width="31" height="31" viewBox="0 0 31 31" fill="none" xmlns="http://www.w3.org/2000/svg">
<path d="M15.3871 7.02695C15.7456 9.44172 16.104 11.8565 16.4625 14.2713C16.3892 14.4858 16.2654 14.6379 16.0214 14.674C12.0598 15.2578 8.09899 15.8439 4.13794 16.431C4.02354 16.4479 3.92163 16.4277 3.81681 16.381C3.71607 16.336 3.67663 16.2357 3.59724 16.1738C3.23946 13.7589 2.88167 11.344 2.52384 8.9288C2.5619 8.92421 2.60006 8.9203 2.63796 8.9147C6.84967 8.29187 11.0614 7.66905 15.2731 7.04623C15.3114 7.04125 15.3494 7.03357 15.3871 7.02695ZM10.9427 10.7146C10.9452 10.7295 10.9537 10.7355 10.9684 10.7316C11.2 10.6984 11.4315 10.6665 11.663 10.6323C12.7399 10.4724 13.817 10.3117 14.8937 10.1511C14.9089 10.1506 14.9145 10.1421 14.9124 10.1276C14.8039 9.39354 14.6951 8.65989 14.5866 7.92585C14.5831 7.9115 14.5748 7.90477 14.5596 7.90944C13.2525 8.10273 11.945 8.29607 10.6379 8.48937C10.622 8.48896 10.6157 8.49785 10.6158 8.5127C10.725 9.24664 10.8338 9.98063 10.9427 10.7146ZM4.00989 12.6732C4.15819 13.6732 4.30856 14.6732 4.45212 15.6739C4.46851 15.789 4.5062 15.8077 4.61475 15.7909C5.5005 15.6554 6.38691 15.5244 7.27397 15.3977C7.3844 15.382 7.41158 15.3507 7.39443 15.2374C7.09406 13.2376 6.79742 11.2374 6.50455 9.23686C6.48787 9.12209 6.45041 9.10273 6.34187 9.11947C5.45612 9.25495 4.56971 9.38604 3.68265 9.51272C3.57154 9.52846 3.54519 9.56071 3.56224 9.67335C3.71499 10.673 3.86159 11.6732 4.00989 12.6732ZM7.53467 12.1506C7.68297 13.1506 7.83329 14.1502 7.97685 15.1509C7.99284 15.2634 8.0265 15.2874 8.13809 15.2702C9.02345 15.1345 9.90991 15.0037 10.7966 14.8768C10.904 14.8616 10.9366 14.8346 10.9194 14.7182C10.6191 12.7188 10.3225 10.7188 10.0293 8.7184C10.013 8.60667 9.97956 8.58154 9.86797 8.59873C8.9826 8.7345 8.09629 8.86626 7.20932 8.9912C7.08467 9.00894 7.07316 9.05491 7.08961 9.16348C7.24068 10.1589 7.38698 11.1547 7.53467 12.1506ZM13.5293 14.4706C14.1493 14.3789 14.7691 14.2855 15.3897 14.1972C15.4822 14.1842 15.5182 14.1637 15.5017 14.0568C15.3384 12.9864 15.1802 11.915 15.0244 10.8435C15.0117 10.7554 14.9849 10.7335 14.8956 10.7467C13.6434 10.9346 12.3905 11.1202 11.1374 11.3024C11.0456 11.3156 11.0311 11.3482 11.0441 11.4338C11.2057 12.5044 11.3649 13.5758 11.5204 14.6473C11.534 14.7414 11.5616 14.7647 11.657 14.7499C12.2804 14.6532 12.9052 14.5629 13.5293 14.4706Z" fill="#F0F3F4"/>
<path d="M15.3852 7.0281C15.3474 7.03472 15.3098 7.04202 15.2719 7.04762C11.0602 7.67044 6.84846 8.29327 2.63675 8.91609C2.59885 8.92169 2.56069 8.92561 2.52263 8.9302C2.44693 8.42439 2.37055 7.91868 2.29615 7.41233C2.25649 7.14258 2.41923 6.91759 2.68737 6.86687C2.71662 6.86116 2.74621 6.85782 2.776 6.85342C6.6946 6.27394 10.6132 5.69446 14.5318 5.11464C14.6861 5.09182 14.8303 5.10093 14.9667 5.19488C15.0857 5.27688 15.1421 5.38889 15.1622 5.5225C15.2384 6.02444 15.3111 6.52654 15.3852 7.0281ZM13.5462 6.31204C13.53 6.18682 13.4267 6.10596 13.3054 6.12286C13.1865 6.13975 13.1006 6.25067 13.116 6.36665C13.1308 6.47824 13.2416 6.56942 13.3461 6.55569C13.4822 6.53833 13.5628 6.4403 13.5462 6.31204ZM12.7606 6.42129C12.7409 6.29313 12.6438 6.22104 12.5165 6.23952C12.4061 6.2555 12.3138 6.37981 12.331 6.48862C12.3481 6.5971 12.4743 6.68738 12.5837 6.66947C12.7102 6.64833 12.7804 6.55012 12.7606 6.42129ZM13.9009 6.25784C13.9179 6.3653 14.0339 6.45501 14.1354 6.43931C14.2605 6.42012 14.3506 6.30028 14.3268 6.18414C14.3033 6.06936 14.1869 5.99112 14.0691 6.01096C13.9685 6.02757 13.8841 6.1514 13.9009 6.25784Z" fill="#788D9A"/>
<path d="M3.59585 16.1743C3.67526 16.2363 3.71472 16.3368 3.81547 16.3818C3.9203 16.4286 4.02222 16.4488 4.13662 16.4319C8.09782 15.845 12.0588 15.2588 16.0204 14.6746C16.2644 14.6385 16.3878 14.4863 16.4614 14.2715C16.4739 14.3558 16.4868 14.4405 16.499 14.5249C16.5384 14.7999 16.3807 15.022 16.1081 15.0748C16.0788 15.0805 16.0492 15.0838 16.0194 15.0882C12.1004 15.6678 8.18072 16.2455 4.26254 16.8309C3.94443 16.8783 3.63887 16.7046 3.6215 16.3519C3.61852 16.2921 3.6046 16.2332 3.59585 16.1743Z" fill="#E5E9E9"/>
<path d="M4.00787 12.6753C3.8596 11.6754 3.7133 10.6748 3.56029 9.67548C3.5429 9.56289 3.56958 9.53059 3.68068 9.51485C4.56766 9.3885 5.45389 9.25708 6.33952 9.1216C6.44839 9.10481 6.4855 9.12422 6.50217 9.23899C6.79505 11.2398 7.09165 13.2401 7.39193 15.2395C7.40907 15.3528 7.38186 15.3838 7.27149 15.3998C6.3845 15.5261 5.49827 15.6576 4.61264 15.793C4.50412 15.8098 4.46643 15.7912 4.45004 15.676C4.3065 14.6753 4.1562 13.6757 4.00787 12.6753Z" fill="#FAD984"/>
<path d="M7.53112 12.1504C7.38348 11.1549 7.23714 10.1588 7.08611 9.16369C7.06966 9.05512 7.08146 9.00876 7.20581 8.99141C8.09266 8.86649 8.97884 8.73475 9.86408 8.599C9.97566 8.58181 10.0091 8.60695 10.0253 8.71867C10.3186 10.7191 10.6148 12.7191 10.9155 14.7184C10.933 14.8345 10.9004 14.8614 10.7927 14.877C9.90615 15.004 9.01981 15.1347 8.13457 15.2704C8.023 15.2876 7.98934 15.2635 7.97336 15.1511C7.82941 14.1501 7.67942 13.1504 7.53112 12.1504Z" fill="#60C3AC"/>
<path d="M13.5273 14.47C12.9029 14.5624 12.2785 14.6526 11.655 14.7493C11.5593 14.7642 11.532 14.7409 11.5184 14.6467C11.363 13.5752 11.2037 12.5039 11.0422 11.4332C11.0292 11.3477 11.044 11.315 11.1355 11.3019C12.3885 11.1197 13.6415 10.9344 14.8936 10.7461C14.9829 10.7326 15.0098 10.7549 15.0225 10.8429C15.1783 11.9144 15.3365 12.9859 15.4997 14.0563C15.5159 14.1632 15.4802 14.1836 15.3877 14.1966C14.7672 14.2849 14.1474 14.3783 13.5273 14.47Z" fill="#F1786B"/>
<path d="M10.6359 8.48885C11.943 8.29556 13.2504 8.10221 14.5575 7.90892C14.5667 7.91449 14.5754 7.91977 14.5845 7.92533C14.693 8.65937 14.8018 9.39303 14.9104 10.1271C14.9042 10.1349 14.8978 10.1428 14.8917 10.1506C13.8149 10.3108 12.7379 10.4719 11.661 10.6318C11.4295 10.666 11.198 10.6982 10.9663 10.7311C10.9579 10.7254 10.9491 10.7198 10.9406 10.7141C10.8318 9.98011 10.7227 9.24651 10.6138 8.51252C10.6212 8.50416 10.6287 8.49648 10.6359 8.48885Z" fill="#42B2E0"/>
<path d="M10.6359 8.48941C10.6284 8.49707 10.6213 8.50502 10.6138 8.51268C10.6136 8.49753 10.62 8.489 10.6359 8.48941Z" fill="#87CCE8"/>
<path d="M14.5876 7.92708C14.5785 7.92152 14.5698 7.91625 14.5607 7.9107C14.5759 7.90604 14.5841 7.91276 14.5876 7.92708Z" fill="#87CCE8"/>
<path d="M10.9404 10.7156C10.9489 10.7213 10.9576 10.7269 10.966 10.7326C10.9514 10.7364 10.943 10.7304 10.9404 10.7156Z" fill="#65C0E6"/>
<path d="M14.8928 10.1506C14.8989 10.1428 14.9053 10.1349 14.9114 10.1271C14.9138 10.1416 14.9082 10.15 14.8928 10.1506Z" fill="#65C0E6"/>
<path d="M13.5503 6.3112C13.5669 6.43929 13.4863 6.53742 13.3499 6.55516C13.2454 6.56888 13.1347 6.47757 13.1199 6.36585C13.1044 6.24972 13.1906 6.13863 13.3092 6.12179C13.4311 6.10479 13.5345 6.18611 13.5503 6.3112Z" fill="#FAD984"/>
<path d="M12.7625 6.42113C12.7823 6.55012 12.7122 6.64844 12.5856 6.66924C12.4762 6.68715 12.35 6.59673 12.3329 6.48812C12.3157 6.37917 12.4083 6.25502 12.5183 6.23876C12.6456 6.22062 12.7428 6.29315 12.7625 6.42113Z" fill="#60C3AC"/>
<path d="M13.902 6.25717C13.8852 6.15059 13.9696 6.02696 14.0701 6.01002C14.1882 5.99047 14.3047 6.06882 14.3279 6.18346C14.3516 6.2994 14.2615 6.41937 14.1365 6.43891C14.0347 6.45465 13.919 6.36443 13.902 6.25717Z" fill="#F1786B"/>
<path d="M14.9371 14.7662C15.2002 14.8339 15.453 14.9415 15.7095 15.033C16.7446 15.4022 17.7787 15.7758 18.8127 16.1487C19.7792 16.4973 20.7456 16.8479 21.7123 17.196C22.7339 17.5639 23.7559 17.9318 24.7782 18.2975C25.0362 18.3898 25.0329 18.3845 25.0915 18.1681C25.3065 17.3763 25.5245 16.5857 25.7412 15.7944C25.6845 15.7736 25.6395 15.7971 25.5931 15.8087C25.1552 15.9169 24.6992 15.9783 24.2429 16.0369C23.7957 16.0943 23.3416 16.1308 22.8851 16.1585C22.0059 16.2118 21.1167 16.1964 20.217 16.1167C20.1732 16.1127 20.1299 16.1111 20.0893 16.0855L20.0901 16.0856C20.0785 16.0884 20.0675 16.0911 20.0559 16.0939C20.0134 16.0899 19.9747 16.1 19.9282 16.0813C19.6382 15.9656 19.346 15.8551 19.0555 15.7402C18.7857 15.6334 18.5177 15.5215 18.2475 15.4147C17.8947 15.2756 17.5405 15.1409 17.1878 15.0018C16.9179 14.8952 16.6499 14.7823 16.3799 14.676C15.9356 14.5008 15.4905 14.3286 15.0459 14.1549C14.985 14.3466 14.9244 14.538 14.8636 14.7297C14.8889 14.742 14.9128 14.754 14.9371 14.7662Z" fill="#E9BB37"/>
<path d="M15.0483 14.1548C15.4931 14.3283 15.9385 14.5007 16.3824 14.676C16.6523 14.7825 16.92 14.895 17.1903 15.0017C17.543 15.1409 17.8972 15.2755 18.2499 15.4147C18.5199 15.5213 18.7879 15.6332 19.058 15.7402C19.3484 15.8551 19.6403 15.9654 19.9307 16.0812C19.9772 16.0999 20.0159 16.0898 20.0584 16.0939C20.0699 16.0911 20.081 16.0883 20.0926 16.0855L20.0918 16.0854C20.1384 16.0498 20.2015 16.0404 20.2575 16.0193C21.4931 15.5562 22.5501 14.8921 23.4077 14.0036C23.5564 13.8497 23.5553 13.8488 23.7368 14.032C23.7459 14.0413 23.7567 14.0496 23.7658 14.0589C24.4387 14.7221 25.2411 15.2312 26.0684 15.7099C26.1796 15.4921 26.2332 15.2514 26.3115 15.0208C26.4795 14.5267 26.6383 14.0294 26.8012 13.5334C26.9859 12.9708 27.1704 12.4078 27.3562 11.8454C27.5383 11.2934 27.7229 10.7423 27.9046 10.1905C28.0492 9.75104 28.1894 9.30972 28.3371 8.87145C28.3605 8.80161 28.332 8.78005 28.2614 8.75224C27.4961 8.45117 26.7317 8.14756 25.9665 7.84554C25.1553 7.52543 24.3435 7.20733 23.5328 6.88711C22.9475 6.65577 22.3634 6.42109 21.7785 6.18964C21.1183 5.92837 20.4567 5.67002 19.7965 5.40875C19.2156 5.17899 18.6349 4.94731 18.0545 4.71675C17.9792 4.68693 17.9033 4.65912 17.8288 4.62772C17.6701 4.56072 17.6668 4.56405 17.6221 4.69316C17.4438 5.2069 17.2627 5.71961 17.0833 6.23313C16.8854 6.79872 16.6894 7.36528 16.4908 7.93054C16.3155 8.42952 16.1366 8.92741 15.9613 9.4264C15.7859 9.92538 15.6133 10.4254 15.4378 10.9246C15.2857 11.3574 15.1308 11.789 14.9782 12.2218C14.7885 12.759 14.6006 13.2968 14.4092 13.8332C14.3893 13.8889 14.4177 13.9057 14.4729 13.9271C14.6648 14.0005 14.8564 14.0784 15.0483 14.1548ZM26.14 10.6956C26.1375 10.7554 26.0951 10.7583 26.0113 10.7246C25.6734 10.5896 25.3326 10.4623 24.9936 10.3304C24.4412 10.1149 23.8895 9.89709 23.3373 9.68203C22.7807 9.46512 22.2231 9.25102 21.6665 9.03412C21.1181 8.82031 20.5707 8.60369 20.0224 8.39057C19.4029 8.14975 18.7828 7.91024 18.1622 7.67249C18.079 7.64069 18.0452 7.60483 18.0736 7.53248C18.1044 7.45346 18.1307 7.37216 18.1562 7.29106C18.1731 7.23723 18.2029 7.22865 18.2699 7.25494C18.7964 7.46309 19.324 7.66843 19.8511 7.87387C20.3826 8.08116 20.9144 8.28765 21.446 8.49467C22.0112 8.71457 22.576 8.93432 23.1412 9.15422C23.6896 9.36734 24.2382 9.58062 24.7867 9.79347C25.2475 9.97225 25.7081 10.1513 26.1689 10.3291C26.2326 10.3538 26.2543 10.3839 26.2329 10.4378C26.2014 10.5165 26.1752 10.5976 26.14 10.6956ZM17.549 10.1564C17.5433 10.0968 17.5928 10.0845 17.6867 10.121C18.3481 10.3782 19.0103 10.6329 19.6717 10.8894C20.2829 11.1265 20.8935 11.3655 21.505 11.602C22.1162 11.8384 22.7285 12.0717 23.3401 12.3079C23.9473 12.5426 24.5532 12.7813 25.1611 13.0136C25.4274 13.1154 25.4288 13.1101 25.3545 13.3272C25.2921 13.5091 25.2909 13.5122 25.0719 13.4285C24.25 13.1143 23.4284 12.7989 22.6075 12.4819C21.7824 12.163 20.9586 11.8399 20.1334 11.521C19.3085 11.2023 18.4825 10.8867 17.6574 10.5686C17.4529 10.4898 17.4537 10.4873 17.5029 10.314C17.5152 10.271 17.5278 10.2283 17.549 10.1564ZM25.7349 11.6988C25.8328 11.7231 25.8434 11.7705 25.8072 11.8439C25.7713 11.916 25.7484 11.9954 25.7274 12.0741C25.7139 12.125 25.692 12.1405 25.6296 12.1149C25.4799 12.0534 25.3289 11.9962 25.1786 11.9367C24.6066 11.7104 24.0352 11.4827 23.4628 11.2578C22.8154 11.0033 22.1664 10.752 21.519 10.4975C20.9507 10.274 20.3832 10.0483 19.8155 9.82382C19.7155 9.78427 19.5749 9.76678 19.5251 9.70165C19.4659 9.62453 19.5526 9.52943 19.5819 9.44395C19.6331 9.29389 19.631 9.29717 19.8148 9.37048C20.2322 9.53646 20.6507 9.69771 21.0685 9.8622C21.6407 10.0873 22.2128 10.3137 22.7851 10.5388C23.2823 10.7345 23.7798 10.9288 24.2768 11.1241C24.7611 11.3147 25.2455 11.506 25.7349 11.6988Z" fill="#FFD959"/>
<path d="M26.0667 15.7104C25.2392 15.2312 24.437 14.7226 23.7641 14.0593C23.7546 14.0499 23.7442 14.0417 23.7351 14.0325C23.5536 13.8492 23.5547 13.8501 23.406 14.004C22.5483 14.8925 21.4912 15.5569 20.2557 16.0198C20.1998 16.0408 20.1365 16.0498 20.0901 16.0859C20.1306 16.1115 20.174 16.113 20.2177 16.1171C21.1176 16.1965 22.0066 16.2121 22.8858 16.1588C23.3423 16.1312 23.7964 16.0947 24.2436 16.0372C24.6999 15.9786 25.1559 15.9173 25.5939 15.8091C25.6402 15.7975 25.6852 15.774 25.742 15.7948C25.8483 15.7629 25.9672 15.7569 26.0667 15.7104Z" fill="#DEAD31"/>
<path d="M20.0907 16.0862C20.0792 16.0891 20.0681 16.0918 20.0566 16.0946C20.0681 16.0918 20.0792 16.0891 20.0907 16.0862Z" fill="#DEAD31"/>
<path d="M26.136 10.6952C26.1709 10.5969 26.1975 10.5158 26.2287 10.4369C26.2502 10.383 26.2285 10.3529 26.1648 10.3282C25.7038 10.1507 25.2432 9.97163 24.7826 9.79259C24.2341 9.57974 23.6854 9.36646 23.137 9.15334C22.5719 8.93344 22.007 8.7137 21.4418 8.49379C20.9101 8.28704 20.3784 8.08028 19.847 7.87299C19.3195 7.66739 18.7921 7.46248 18.2657 7.25406C18.1989 7.2275 18.1689 7.23635 18.152 7.29018C18.1264 7.37154 18.1006 7.45274 18.0694 7.5316C18.0411 7.60395 18.0749 7.63981 18.1581 7.67161C18.7788 7.9091 19.3988 8.14887 20.0182 8.3897C20.5669 8.60297 21.114 8.81943 21.6624 9.03324C22.2189 9.25015 22.7765 9.46424 23.3331 9.68115C23.8856 9.89638 24.4372 10.1144 24.9894 10.3295C25.3282 10.4617 25.6693 10.5887 26.0071 10.7237C26.0911 10.7579 26.1335 10.7549 26.136 10.6952Z" fill="#FFFEFB"/>
<path d="M17.5486 10.1574C17.5272 10.2296 17.5144 10.2719 17.5025 10.315C17.4533 10.4883 17.4526 10.4906 17.657 10.5696C18.4821 10.8878 19.3082 11.2031 20.133 11.5221C20.9581 11.8409 21.782 12.1641 22.6071 12.4829C23.4278 12.8002 24.2496 13.1153 25.0714 13.4295C25.2905 13.5132 25.2915 13.5104 25.354 13.3282C25.4284 13.1112 25.4267 13.1163 25.1607 13.0147C24.5528 12.7823 23.9469 12.5436 23.3397 12.3089C22.7284 12.0729 22.1162 11.8393 21.5046 11.6031C20.8931 11.3666 20.2825 11.1275 19.6713 10.8905C19.0095 10.634 18.3476 10.3792 17.6862 10.122C17.5926 10.0853 17.5429 10.0978 17.5486 10.1574Z" fill="#FFFEFB"/>
<path d="M25.7332 11.7002C25.2439 11.5075 24.7594 11.3161 24.2746 11.1256C23.7773 10.9302 23.28 10.7357 22.783 10.5404C22.2107 10.3152 21.6388 10.0886 21.0663 9.86377C20.6485 9.69954 20.2296 9.53813 19.8127 9.37205C19.6287 9.299 19.6309 9.29545 19.5797 9.44551C19.5505 9.53099 19.4641 9.62626 19.5229 9.70321C19.5728 9.76834 19.7134 9.78584 19.8134 9.82538C20.3811 10.0499 20.9486 10.2756 21.5169 10.499C22.1643 10.7535 22.8132 11.0049 23.4606 11.2594C24.033 11.4843 24.6048 11.7121 25.1765 11.9383C25.3268 11.9977 25.4778 12.0549 25.6274 12.1164C25.6902 12.1423 25.7123 12.1265 25.7253 12.0757C25.7459 11.9968 25.7692 11.9176 25.8051 11.8454C25.8418 11.7717 25.8311 11.7245 25.7332 11.7002Z" fill="#FFFEFB"/>
<path d="M22.0517 18.4797C22.0026 18.698 21.9636 18.9192 21.9022 19.1344C21.5828 20.2575 20.8972 21.0933 19.8612 21.6487C19.5984 21.7895 19.3218 21.8988 19.0309 21.9711C18.8465 21.6024 18.6692 21.2308 18.5117 20.8499C18.7377 20.798 18.9372 20.685 19.1411 20.5828C19.6051 20.3493 20.0002 20.0226 20.3241 19.628C20.8474 18.9907 21.1727 18.2648 21.2514 17.4334C21.3009 16.9113 21.2425 16.4089 21.112 15.9065C21.0539 15.6823 20.9313 15.4819 20.8852 15.2548C21.4096 15.7716 21.7444 16.3922 21.931 17.0977C21.9794 17.2811 21.9749 17.4749 22.0514 17.6516C22.0517 17.9277 22.0517 18.2037 22.0517 18.4797Z" fill="#D6667E"/>
<path d="M18.912 26.5008C18.4449 26.6242 17.9669 26.682 17.487 26.7276C16.8711 26.7857 16.2529 26.792 15.6377 26.7494C14.7334 26.6872 13.8352 26.5742 12.9947 26.2014C12.7847 26.1084 12.586 25.9969 12.4214 25.8342C12.21 25.626 12.1808 25.4826 12.3037 25.217C12.6452 24.4793 12.9898 23.7427 13.3313 23.005C13.3531 22.9579 13.3939 22.9138 13.3755 22.8542L13.3737 22.8553C13.3988 22.8612 13.401 22.8427 13.4055 22.8268C13.665 22.2762 13.9263 21.7271 14.1823 21.175C14.3143 20.8904 14.4627 20.6133 14.5681 20.3173C14.5887 20.2839 14.6127 20.2524 14.6288 20.2172C15.0914 19.2205 15.5526 18.2235 16.0156 17.2272C16.0902 17.0664 16.2008 16.9478 16.3968 16.9445C16.5003 17.0401 16.5371 17.1701 16.5697 17.2976C16.8036 18.209 17.0334 19.1212 17.2659 20.0331C17.6685 21.6144 18.0726 23.1954 18.4753 24.7768C18.6219 25.3511 18.7666 25.9261 18.912 26.5008Z" fill="#89C0FF"/>
<path d="M16.3957 16.9461C16.1997 16.9495 16.0891 17.068 16.0145 17.2288C15.5515 18.2252 15.0904 19.2222 14.6277 20.2189C14.6112 20.2541 14.5872 20.286 14.567 20.3189C14.3196 19.9751 14.1486 19.5957 14.0271 19.1926C13.8952 18.755 13.8599 18.3067 13.8697 17.8532C13.8944 17.4434 13.984 17.0462 14.1164 16.6579C14.3151 16.1755 14.5756 15.7316 14.9351 15.3459C15.5087 14.7305 16.2019 14.3107 17.0286 14.135C18.4832 13.8257 19.7559 14.1891 20.839 15.1984C20.8458 15.2047 20.8491 15.2151 20.854 15.2232C20.8645 15.2336 20.8746 15.2444 20.8851 15.2547L20.8844 15.2533C20.9305 15.4804 21.0527 15.6805 21.1112 15.905C21.2417 16.4074 21.3001 16.9102 21.2507 17.4319C21.1715 18.2633 20.8465 18.9892 20.3232 19.6264C19.9992 20.0207 19.6041 20.3478 19.14 20.5813C18.936 20.6839 18.7366 20.7969 18.5105 20.8484C18.4828 20.7962 18.4528 20.7454 18.4281 20.6921C17.8908 19.539 17.354 18.386 16.8179 17.2325C16.7335 17.0543 16.6147 16.9291 16.3957 16.9461Z" fill="#EC718B"/>
<path d="M10.8591 24.2494C10.5093 24.0823 10.1824 23.8748 9.84616 23.684C8.83993 23.113 7.83671 22.5369 6.83124 21.9644C6.76451 21.9266 6.72852 21.8888 6.72852 21.8058C6.73151 20.2886 6.73077 18.771 6.73151 17.2533C6.73151 17.2385 6.73451 17.224 6.73601 17.2092C7.4172 17.5935 8.09914 17.9762 8.77957 18.3619C9.47351 18.755 10.1659 19.1511 10.8595 19.5457C10.8591 21.1137 10.8591 22.6814 10.8591 24.2494Z" fill="#6EB3CF"/>
<path d="M10.858 19.545C10.1648 19.1504 9.47236 18.7547 8.77842 18.3612C8.09799 17.9759 7.41605 17.5928 6.73486 17.2085C6.90919 17.0437 7.13188 16.9536 7.3362 16.8366C8.46389 16.1885 9.59495 15.5472 10.7226 14.8991C10.825 14.8402 10.9015 14.8343 11.0083 14.8958C12.0018 15.4682 12.999 16.034 13.9955 16.6013C14.0337 16.6231 14.0757 16.6391 14.1158 16.658C13.9835 17.0463 13.8939 17.4435 13.8691 17.8532C13.8287 17.8721 13.787 17.8881 13.7484 17.9099C13.2195 18.2101 12.6905 18.5102 12.1626 18.8121C11.7379 19.0552 11.3142 19.3001 10.8902 19.5443C10.8793 19.545 10.8688 19.545 10.858 19.545Z" fill="#7BC6E4"/>
<path d="M10.8885 19.5434C11.3124 19.2993 11.736 19.054 12.1607 18.8113C12.6885 18.5093 13.2174 18.2092 13.7463 17.9091C13.7849 17.8872 13.8269 17.8713 13.867 17.8524C13.8572 18.3059 13.8925 18.7539 14.0244 19.1918C14.1459 19.595 14.3168 19.9744 14.5642 20.3182C14.4588 20.6146 14.3104 20.8918 14.1785 21.1759C13.9224 21.7276 13.6608 22.2771 13.4018 22.8277C13.3913 22.8373 13.3808 22.847 13.3699 22.8562L13.3718 22.8551C13.0045 23.0281 12.6637 23.2486 12.3095 23.445C11.8338 23.7092 11.3608 23.9782 10.887 24.2449C10.8877 22.678 10.8881 21.1107 10.8885 19.5434Z" fill="#629EB6"/>
<path d="M16.4005 16.9445C16.6195 16.9274 16.7383 17.0527 16.8215 17.2316C17.3576 18.385 17.8945 19.5381 18.4317 20.6911C18.4564 20.7445 18.4864 20.7956 18.5142 20.8475C18.6716 21.2284 18.849 21.6 19.0334 21.9687C19.2647 22.4741 19.4945 22.9806 19.7277 23.4852C20.0025 24.0799 20.2736 24.676 20.5604 25.2648C20.6477 25.4445 20.6136 25.5879 20.5056 25.729C20.2897 26.0117 19.9767 26.1551 19.6569 26.2818C19.4169 26.3767 19.1725 26.4604 18.9157 26.5008C18.7702 25.9262 18.6255 25.3511 18.4793 24.7768C18.0763 23.1955 17.6725 21.6145 17.2699 20.0331C17.0375 19.1213 16.808 18.2091 16.5737 17.2976C16.5407 17.1701 16.5044 17.0401 16.4005 16.9445Z" fill="#7AA0CC"/>
<path d="M10.8938 19.5452C10.8934 21.1124 10.8931 22.6797 10.8923 24.247C10.8833 24.2663 10.8736 24.2692 10.8616 24.2492C10.8616 22.6812 10.8616 21.1136 10.8619 19.5455C10.8728 19.5455 10.8833 19.5455 10.8938 19.5452Z" fill="#82B0C7"/>
<path d="M20.8879 15.2538C20.8775 15.2435 20.8674 15.2328 20.8569 15.2224C20.8674 15.2328 20.8779 15.2435 20.8879 15.2538Z" fill="#D6667E"/>
<path d="M13.3746 22.8579C13.3851 22.8483 13.3956 22.8386 13.4064 22.8294C13.4019 22.8453 13.3993 22.8638 13.3746 22.8579Z" fill="white"/>
</svg>
