<svg width="31" height="31" viewBox="0 0 31 31" fill="none" xmlns="http://www.w3.org/2000/svg">
<path d="M26.7807 6.60266C26.6404 6.95978 26.5364 7.3395 26.3555 7.67402C26.0932 8.15319 25.6589 8.4651 25.1614 8.6866C24.7227 8.85386 24.2703 8.88551 23.809 8.85838C23.3115 8.75441 22.8501 8.56907 22.4611 8.22551C21.9817 7.80059 21.7103 7.26265 21.5882 6.64334C21.5655 6.17773 21.5972 5.72116 21.76 5.28268C22.1038 4.52323 22.6647 4.00338 23.4698 3.76831C24.8719 3.36147 26.3374 4.21584 26.6947 5.63528C26.7173 5.71664 26.749 5.79801 26.7761 5.87938C26.7807 6.11897 26.7807 6.35855 26.7807 6.60266Z" fill="#709EDC"/>
<path d="M25.1607 21.7557C26.0472 22.1626 26.59 22.8361 26.7528 23.8035C26.7528 23.8171 26.7709 23.8261 26.78 23.8352C26.78 24.0928 26.78 24.346 26.78 24.6037C26.7528 24.6715 26.7166 24.7347 26.6986 24.8026C26.5086 25.5394 26.0789 26.0999 25.405 26.4525C25.12 26.6017 24.7898 26.6695 24.4777 26.7735C24.2651 26.7735 24.0571 26.7735 23.8445 26.7735C23.4872 26.6334 23.1072 26.5339 22.777 26.3486C22.2976 26.0864 21.99 25.6524 21.7639 25.1597C21.5965 24.7212 21.5649 24.2646 21.592 23.799C21.696 23.2927 21.886 22.8271 22.2433 22.4383C22.6685 21.9682 23.2022 21.706 23.8128 21.584C24.2697 21.5614 24.722 21.5885 25.1607 21.7557Z" fill="#709EDC"/>
<path d="M8.72012 25.1412C8.64323 25.2678 8.57086 25.3989 8.48944 25.5255C8.07332 26.1809 7.48532 26.5878 6.72544 26.7324C6.68473 26.7415 6.64402 26.7595 6.60331 26.7776C6.39073 26.7776 6.18267 26.7776 5.97008 26.7776C5.6806 26.6827 5.36851 26.633 5.10165 26.4928C4.17894 25.9956 3.66783 25.2135 3.67688 24.1648C3.6814 23.1296 4.17442 22.3521 5.09713 21.8548C5.16949 21.8141 5.23282 21.7689 5.30066 21.7237C5.7394 21.6017 6.18719 21.5565 6.64402 21.5836C7.15965 21.6876 7.62553 21.8865 8.01904 22.2481C8.4804 22.6685 8.73821 23.1974 8.85581 23.7986C8.88747 24.2552 8.84224 24.7027 8.72012 25.1412Z" fill="#2EC5F4"/>
<path d="M5.30066 8.7187C5.11521 8.60569 4.92524 8.50172 4.74884 8.37514C3.88493 7.74227 3.49142 6.68448 3.74019 5.67641C4.00253 4.6141 4.80764 3.87726 5.8977 3.70548C6.98325 3.5337 8.07331 4.08972 8.5799 5.07519C8.6206 5.15203 8.67488 5.22436 8.72011 5.30121C8.84223 5.7397 8.89199 6.18723 8.86033 6.6438C8.7563 7.15009 8.56633 7.61118 8.21353 8.00446C7.78383 8.47007 7.25463 8.73678 6.64401 8.85431C6.18718 8.89048 5.7394 8.84075 5.30066 8.7187Z" fill="#2EC5F4"/>
<path d="M5.30018 8.71814C5.73886 8.84019 6.18658 8.88992 6.64335 8.85827C6.64335 13.103 6.64335 17.3432 6.64335 21.588C6.18658 21.5563 5.73886 21.6015 5.30018 21.7281C5.29566 21.6513 5.29114 21.5789 5.29114 21.5021C5.29114 17.3161 5.29114 13.1301 5.29114 8.94416C5.29114 8.86732 5.29566 8.79047 5.30018 8.71814Z" fill="#8AD4E5"/>
<path d="M21.7644 5.28302C21.6015 5.72151 21.5654 6.17808 21.5925 6.64369C20.5793 6.64369 19.5616 6.64821 18.5485 6.64369C17.4448 6.64369 16.3367 6.63917 15.233 6.63465C15.233 6.18712 15.2285 5.73959 15.2285 5.29206C15.8301 5.28754 16.4317 5.28302 17.0332 5.28302C18.6073 5.28302 20.1858 5.28302 21.7644 5.28302Z" fill="#2ABFCA"/>
<path d="M15.2249 5.29169C15.2249 5.73922 15.2294 6.18675 15.2294 6.63428C13.1036 6.63428 10.9823 6.6388 8.8564 6.6388C8.88806 6.18223 8.83831 5.7347 8.71619 5.29621C9.01019 5.29169 9.29966 5.28717 9.59367 5.28717C11.4707 5.29169 13.3478 5.29169 15.2249 5.29169Z" fill="#8AD4E5"/>
<path d="M21.5888 23.7986C21.5662 24.2643 21.5979 24.7208 21.7607 25.1593C19.6711 25.1593 17.5814 25.1593 15.4917 25.1593C15.4013 25.1593 15.3108 25.1548 15.2203 25.1503C15.2203 24.7027 15.2249 24.2552 15.2249 23.8077C17.3507 23.8032 19.472 23.8032 21.5888 23.7986Z" fill="#2ABFCA"/>
<path d="M15.2294 23.8032C15.2294 24.2507 15.2249 24.6982 15.2249 25.1458C13.0945 25.1458 10.9642 25.1458 8.82926 25.1503C8.79308 25.1503 8.75689 25.1457 8.71619 25.1412C8.83831 24.7027 8.88806 24.2552 8.8564 23.7986C9.73388 23.7986 10.6114 23.7986 11.4888 23.7986C12.7372 23.7986 13.9856 23.8032 15.2294 23.8032Z" fill="#8AD4E5"/>
<path d="M25.1621 21.7548C24.7235 21.5875 24.2712 21.5604 23.8099 21.583C23.8099 17.3428 23.8099 13.098 23.8099 8.85781C24.2712 8.88042 24.7235 8.85329 25.1621 8.68604C25.1621 13.0393 25.1621 17.397 25.1621 21.7548Z" fill="#2DBFCA"/>
<path d="M15.2241 20.4893C14.618 20.4893 14.0074 20.4893 13.3877 20.4893C13.3877 20.0418 13.3877 19.6033 13.3877 19.1467C13.7632 19.1467 14.1386 19.1467 14.5276 19.1467C14.5276 16.57 14.5276 14.0114 14.5276 11.4393C13.4013 11.4393 12.2705 11.4393 11.1172 11.4393C11.1172 11.81 11.1172 12.1716 11.1172 12.5468C10.6603 12.5468 10.2261 12.5468 9.77832 12.5468C9.77832 11.7331 9.77832 10.9194 9.77832 10.0967C9.79189 10.0922 9.8145 10.0786 9.8326 10.0786C11.6283 10.0786 13.4285 10.0831 15.2241 10.0831C15.2241 13.5503 15.2241 17.0221 15.2241 20.4893Z" fill="#D1DDFB"/>
<path d="M15.2231 20.4895C15.2231 17.0223 15.2231 13.5506 15.2231 10.0834C17.0369 10.0834 18.8461 10.0834 20.6735 10.0834C20.6735 10.9061 20.6735 11.7198 20.6735 12.5516C20.2347 12.5516 19.796 12.5516 19.3392 12.5516C19.3392 12.1899 19.3392 11.8238 19.3392 11.444C18.1903 11.444 17.0595 11.444 15.9152 11.444C15.9152 13.9981 15.9152 16.5522 15.9152 19.1289C16.2906 19.1289 16.6705 19.1289 17.064 19.1289C17.064 19.59 17.064 20.0285 17.064 20.4941C16.4534 20.4895 15.8383 20.4895 15.2231 20.4895Z" fill="#ABD4FF"/>
</svg>
