<svg width="31" height="31" viewBox="0 0 31 31" fill="none" xmlns="http://www.w3.org/2000/svg">
<path d="M6.66755 13.8241C6.8397 13.4323 7.16358 13.2235 7.43549 12.9571C9.32587 11.106 11.2241 9.26523 13.1182 7.41955C13.3015 7.2409 13.4945 7.15541 13.7242 7.2842C13.9511 7.41078 14.03 7.63218 14.0291 7.91714C14.0258 8.85258 14.0309 9.78803 14.0244 10.7235C14.0235 10.8797 14.062 10.9197 14.1901 10.9147C14.6583 10.8983 15.126 10.918 15.5919 10.9734C15.5919 12.6168 15.5914 14.2603 15.5914 15.9032C15.1144 15.8303 14.6346 15.8331 14.1548 15.8281C14.0156 15.8265 14.0268 15.9142 14.0268 16.021C14.0277 16.9367 14.0235 17.8519 14.0295 18.7676C14.0314 19.0548 13.9766 19.2953 13.7521 19.4444C13.5233 19.5962 13.3205 19.5091 13.1205 19.3529C11.4956 18.0837 9.86923 16.8162 8.24333 15.5486C7.83315 15.2292 7.42621 14.9031 7.01046 14.5946C6.85733 14.4806 6.75247 14.331 6.66663 14.1523C6.66755 14.0427 6.66755 13.9337 6.66755 13.8241Z" fill="#FEABB6"/>
<path d="M15.5923 15.9035C15.5923 14.2601 15.5927 12.6166 15.5927 10.9737C17.5968 11.2187 19.3684 12.1174 20.9071 13.6458C22.5733 15.3013 23.6614 17.3875 24.1797 19.8859C24.363 20.7704 24.4507 21.6691 24.4442 22.5799C24.4424 22.8846 24.2865 23.1284 24.0498 23.2024C23.8136 23.2758 23.5668 23.1427 23.4443 22.8566C23.1158 22.0878 22.7459 21.3485 22.3172 20.652C21.2105 18.8529 19.8398 17.4396 18.0734 16.6033C17.2753 16.2247 16.4433 16.0175 15.5923 15.9035Z" fill="#FB8EA3"/>
</svg>
