<svg width="30" height="29" viewBox="0 0 30 29" fill="none" xmlns="http://www.w3.org/2000/svg">
<path d="M4.39972 13.7094C4.39972 14.2494 4.39972 14.7894 4.39972 15.3294C4.47841 15.523 4.46509 15.7307 4.49382 15.9322C4.79985 18.0709 5.65839 19.9586 7.10152 21.5652C8.80737 23.4645 10.9279 24.6181 13.4561 25.0145C13.7188 25.0557 13.9891 25.0449 14.2443 25.1319C14.7843 25.1319 15.3243 25.1319 15.8644 25.1319C15.9006 25.0711 15.9626 25.094 16.0143 25.0886C16.4206 25.0478 16.8249 24.9908 17.2238 24.9033C19.7999 24.3384 21.905 23.0144 23.4968 20.917C25.2613 18.5909 25.9475 15.9539 25.5674 13.062C25.2638 10.7535 24.2779 8.75508 22.647 7.09184C20.6588 5.06389 18.2327 3.986 15.396 3.87401C13.3254 3.79241 11.3801 4.2791 9.61179 5.3624C6.76385 7.10683 5.05716 9.63562 4.51505 12.9409C4.473 13.1965 4.48382 13.46 4.39972 13.7094ZM12.147 13.6178C12.147 13.617 12.147 13.6166 12.147 13.6158C12.7216 13.6158 13.2962 13.6158 13.8708 13.6158C14.1514 13.6158 14.1514 13.6158 14.1514 13.3381C14.1514 12.1961 14.1539 11.0536 14.1498 9.91165C14.1489 9.61731 14.2322 9.36376 14.4608 9.17433C14.7418 8.94118 15.0624 8.89497 15.3939 9.04193C15.7349 9.19348 15.9135 9.47034 15.9147 9.84587C15.9181 11.0087 15.9164 12.1719 15.9164 13.3347C15.9164 13.6158 15.9164 13.6158 16.1937 13.6158C17.3358 13.6158 18.4783 13.6183 19.6204 13.6141C19.9148 13.6128 20.1679 13.6957 20.3582 13.9247C20.5918 14.2057 20.638 14.5263 20.491 14.8573C20.3399 15.1978 20.0626 15.3773 19.687 15.3785C18.5241 15.3818 17.3608 15.3802 16.1979 15.3806C15.9164 15.3806 15.9164 15.3806 15.9164 15.6574C15.9164 16.8065 15.9147 17.9556 15.9168 19.1047C15.9177 19.506 15.7457 19.8012 15.3789 19.9623C14.7906 20.2209 14.1577 19.7929 14.1539 19.1292C14.1464 17.9523 14.1485 16.7757 14.1552 15.5987C14.156 15.4285 14.1119 15.3752 13.9366 15.3764C12.7945 15.3839 11.652 15.3806 10.5099 15.3798C10.3858 15.3798 10.2609 15.3843 10.1389 15.3481C9.71297 15.2228 9.45649 14.8285 9.5077 14.3743C9.55433 13.9609 9.90825 13.6274 10.3404 13.6195C10.9421 13.6099 11.5446 13.6178 12.147 13.6178Z" fill="#4184B9"/>
<path d="M12.1513 13.6181C11.5489 13.6181 10.9468 13.6098 10.3443 13.621C9.91213 13.629 9.55822 13.962 9.51158 14.3759C9.46037 14.8301 9.71685 15.2243 10.1428 15.3497C10.2648 15.3855 10.3893 15.3809 10.5138 15.3813C11.6559 15.3817 12.7984 15.3855 13.9405 15.378C14.1158 15.3767 14.1603 15.4304 14.1591 15.6003C14.1524 16.7773 14.1507 17.9538 14.1578 19.1308C14.162 19.7944 14.7949 20.2224 15.3828 19.9639C15.7492 19.8027 15.9215 19.5076 15.9207 19.1062C15.9186 17.9571 15.9203 16.8081 15.9203 15.659C15.9203 15.3821 15.9203 15.3821 16.2018 15.3821C17.3647 15.3817 18.528 15.3838 19.6909 15.38C20.0665 15.3788 20.3434 15.1994 20.4949 14.8588C20.6419 14.5278 20.5957 14.2072 20.3621 13.9262C20.1722 13.6977 19.9187 13.6148 19.6243 13.6156C18.4822 13.6198 17.3397 13.6173 16.1976 13.6173C15.9207 13.6173 15.9203 13.6173 15.9203 13.3363C15.9199 12.1735 15.9215 11.0102 15.9186 9.84742C15.9174 9.47189 15.7388 9.19503 15.3978 9.04348C15.0667 8.8961 14.7461 8.94231 14.4647 9.17588C14.2361 9.36572 14.1524 9.61927 14.1537 9.9132C14.1578 11.0552 14.1553 12.1976 14.1553 13.3396C14.1553 13.6173 14.1553 13.6173 13.8747 13.6173C13.3001 13.6173 12.7255 13.6173 12.1509 13.6173C12.1513 13.6169 12.1513 13.6177 12.1513 13.6181Z" fill="#F9F9F9"/>
</svg>
