<svg width="30" height="30" viewBox="0 0 30 30" fill="none" xmlns="http://www.w3.org/2000/svg">
<path d="M19.4988 5C19.7969 5.06294 20.0993 5.11083 20.3926 5.19119C22.9105 5.87954 24.5148 7.50007 25.0785 10.0358C25.5345 12.0802 24.9993 13.9347 23.6139 15.5188C22.7007 16.5626 21.5493 17.2244 20.1955 17.5035C18.6787 17.8162 17.2268 17.6096 15.8655 16.8516C15.6921 16.755 15.5552 16.7447 15.3759 16.8199C14.7457 17.0831 14.1092 17.3345 13.4759 17.5835C13.0868 17.7347 12.6945 17.5478 12.6165 17.1544C12.5857 16.9992 12.6245 16.8132 12.6822 16.6604C12.9241 16.0215 13.1822 15.389 13.4426 14.7572C13.4905 14.6409 13.4767 14.5557 13.4189 14.4477C12.2116 12.1895 12.2797 9.95382 13.6675 7.81515C14.6753 6.25993 16.1557 5.35625 17.9994 5.07481C18.0932 5.05533 18.1857 5.03035 18.2765 5H19.4988ZM18.8861 10.0567C19.4981 10.0567 20.11 10.0603 20.722 10.0536C20.8394 10.0527 20.9556 10.0296 21.0644 9.98549C21.189 9.93137 21.2917 9.83678 21.3558 9.71702C21.42 9.59726 21.4418 9.45936 21.4178 9.32564C21.349 8.98997 21.1055 8.79443 20.7374 8.79364C19.5198 8.79127 18.3025 8.79127 17.0855 8.79364C16.6706 8.79364 16.3769 9.06162 16.3785 9.42697C16.3801 9.79232 16.675 10.0548 17.091 10.0555C17.6887 10.0579 18.2872 10.0567 18.8861 10.0567ZM18.2745 12.5853C18.6755 12.5853 19.0769 12.5877 19.4783 12.5853C19.8796 12.5829 20.169 12.3114 20.167 11.952C20.165 11.5926 19.8757 11.325 19.4727 11.3234C18.6705 11.3202 17.8679 11.3202 17.0649 11.3234C16.6663 11.3254 16.3761 11.5985 16.3785 11.9567C16.3809 12.315 16.6714 12.5821 17.0704 12.5845C17.4694 12.5869 17.8732 12.5853 18.2745 12.5853Z" fill="#778998"/>
<path d="M5 10.9233C5.02692 10.8442 5.06017 10.7694 5.07917 10.6898C5.34516 9.63055 6.3197 8.81593 7.411 8.79733C8.81937 8.77516 10.2285 8.7902 11.6373 8.78941C11.67 8.79224 11.7025 8.79713 11.7347 8.80406C11.6686 9.04868 11.5977 9.28618 11.5399 9.52724C11.1267 11.2527 11.3044 12.9191 12.0371 14.5321C12.0722 14.6186 12.0753 14.7147 12.0458 14.8033C11.8479 15.3325 11.6143 15.8491 11.4334 16.3838C10.998 17.6639 11.948 18.9369 13.2986 18.8902C13.5484 18.8815 13.8025 18.8016 14.0408 18.7161C14.4797 18.5577 14.9116 18.3768 15.3395 18.1936C15.4032 18.1632 15.4731 18.1482 15.5436 18.1497C15.6141 18.1512 15.6833 18.1692 15.7456 18.2023C16.7977 18.6958 17.9518 18.9331 19.1133 18.8946C19.8305 18.8737 20.541 18.7502 21.2231 18.5276C21.2849 18.5075 21.3482 18.4928 21.4115 18.475C21.6178 20.1114 20.4291 21.4279 18.8762 21.4295C16.9274 21.4313 14.9789 21.4307 13.0306 21.4275C12.8942 21.4216 12.7608 21.4695 12.6593 21.5609C11.3235 22.7128 9.98522 23.8616 8.64441 25.0074C8.42116 25.1994 8.1801 25.2876 7.90263 25.1594C7.62515 25.0311 7.5254 24.7964 7.52698 24.4991C7.53094 23.5579 7.52698 22.6166 7.52698 21.6753V21.454C7.31284 21.418 7.10344 21.4018 6.90474 21.346C5.94604 21.0771 5.33553 20.4594 5.07323 19.4931C5.05542 19.4266 5.02454 19.3632 5 19.2983V10.9233Z" fill="#498CC7"/>
<path d="M18.8877 10.0563C18.2888 10.0563 17.6903 10.0563 17.0914 10.0563C16.6766 10.0563 16.3817 9.79343 16.3789 9.42768C16.3762 9.06194 16.671 8.79435 17.0859 8.79435C18.3032 8.79251 19.5205 8.79251 20.7378 8.79435C21.1059 8.79435 21.3494 8.99227 21.4182 9.32635C21.4425 9.46005 21.4209 9.59803 21.357 9.71794C21.2931 9.83784 21.1905 9.93265 21.066 9.98699C20.9571 10.0311 20.841 10.0542 20.7236 10.0551C20.1116 10.0598 19.4997 10.0563 18.8877 10.0563Z" fill="#FAFBFB"/>
<path d="M18.2749 12.5881C17.8736 12.5881 17.4722 12.5901 17.0708 12.5881C16.6695 12.5861 16.3809 12.3197 16.3789 11.9603C16.3769 11.6009 16.6667 11.327 17.0653 11.327C17.868 11.3233 18.6706 11.3233 19.4731 11.327C19.8761 11.327 20.1654 11.5954 20.1674 11.9556C20.1694 12.3158 19.8781 12.5861 19.4787 12.5889C19.0793 12.5917 18.6759 12.5881 18.2749 12.5881Z" fill="#FAFBFA"/>
</svg>
