<svg width="30" height="30" viewBox="0 0 30 30" fill="none" xmlns="http://www.w3.org/2000/svg">
<path d="M15.4057 9.36787C15.4057 10.0626 15.4078 10.7573 15.4035 11.4524C15.4035 11.5687 15.4421 11.6393 15.5278 11.7236C16.1724 12.3575 16.8052 13.0032 17.447 13.6403C17.5028 13.687 17.5731 13.7125 17.6458 13.7124C18.5682 13.7167 19.4905 13.7124 20.4129 13.7167C21.2095 13.7217 21.8643 14.2349 22.0476 14.9974C22.0846 15.1607 22.1026 15.3277 22.1012 15.4951C22.1063 16.5792 22.1045 17.6632 22.1052 18.7473L21.7876 18.7523L21.4274 18.7466C21.4274 17.6553 21.4274 16.5639 21.4274 15.4724C21.4274 14.8047 21.0219 14.3941 20.357 14.392C19.4876 14.3884 18.6182 14.3941 17.7488 14.3873C17.674 14.3824 17.5992 14.3953 17.5303 14.4249C17.4614 14.4545 17.4006 14.5 17.3527 14.5576C16.9478 14.9898 16.5193 15.4029 16.0997 15.8229C15.9301 15.9925 15.7619 16.1636 15.5904 16.3314C15.2721 16.6429 14.864 16.6505 14.5521 16.3386C13.9251 15.7112 13.3049 15.0781 12.6775 14.4492C12.639 14.4107 12.5627 14.3938 12.5036 14.3934C11.592 14.3898 10.6809 14.3876 9.76932 14.3934C9.11385 14.3967 8.70868 14.8036 8.704 15.4645C8.69859 16.2503 8.704 17.0358 8.704 17.8213V18.739L8.04564 18.7509C8.04426 18.7425 8.04159 18.7343 8.03772 18.7267C8.03772 17.6175 8.03195 16.5082 8.03772 15.3993C8.04348 14.4456 8.77747 13.7214 9.73043 13.7181C10.6114 13.7145 11.4926 13.7131 12.3739 13.7203C12.5461 13.7203 12.6592 13.6789 12.7845 13.5442C13.2048 13.0922 13.6507 12.664 14.0886 12.2289C14.2799 12.0391 14.4805 11.8583 14.6674 11.6645C14.7086 11.6108 14.7301 11.5446 14.7282 11.4769C14.7329 10.7753 14.7315 10.0723 14.7318 9.37255L15.0578 9.35742L15.4057 9.36787Z" fill="#FEFDFB"/>
<path d="M15.4049 9.36813L15.0566 9.35552V4.00512C16.422 4.00512 17.7877 3.9936 19.1534 4.00512C19.8265 4.0098 20.4027 4.58605 20.4142 5.25917C20.4296 6.20516 20.4296 7.15152 20.4142 8.09824C20.4038 8.78792 19.8124 9.35588 19.1235 9.35876C17.9494 9.36381 16.7753 9.36093 15.6012 9.36165C15.5364 9.36201 15.4705 9.36597 15.4049 9.36813Z" fill="#009980"/>
<path d="M15.057 4.00576V9.35616L14.7329 9.37129C13.547 9.36865 12.3613 9.36553 11.1757 9.36193C11.0209 9.36616 10.8661 9.35287 10.7143 9.32231C10.4278 9.25235 10.1725 9.0893 9.98861 8.85871C9.80469 8.62812 9.70246 8.34302 9.69797 8.04809C9.69256 7.13763 9.69112 6.22681 9.69797 5.31635C9.70373 4.59605 10.3131 3.99964 11.0334 4C12.3744 4.00048 13.7156 4.0024 15.057 4.00576Z" fill="#00B094"/>
<path d="M8.03507 18.7246C8.03894 18.7322 8.04161 18.7403 8.04299 18.7487C8.04119 18.8568 8.03759 18.9648 8.03759 19.0729C8.03759 21.1949 8.03759 23.3167 8.03759 25.4382C7.09651 25.4382 6.15508 25.4609 5.21473 25.4382C4.56646 25.4216 4.01074 24.7993 4.0093 24.1449C4.00642 22.8195 4.02803 21.4942 4.0003 20.1695C3.98589 19.4852 4.49407 18.7214 5.42758 18.7333C6.22495 18.7433 7.02232 18.7354 7.8197 18.7333C7.89173 18.7333 7.9634 18.7275 8.03507 18.7246Z" fill="#009DC3"/>
<path d="M8.03809 25.4396C8.03809 23.3178 8.03809 21.1961 8.03809 19.0743C8.03809 18.9663 8.04169 18.8582 8.04349 18.7502L8.70184 18.7383C9.37821 18.7415 10.0549 18.7383 10.7313 18.7491C11.03 18.7489 11.3198 18.8507 11.5527 19.0378C11.7856 19.2249 11.9475 19.4859 12.0116 19.7777C12.0409 19.9182 12.0542 20.0616 12.0512 20.2052C12.0541 21.4571 12.0541 22.7088 12.0512 23.9605C12.0512 24.8969 11.5031 25.445 10.5689 25.4439C9.72611 25.443 8.88252 25.4415 8.03809 25.4396Z" fill="#0086AF"/>
<path d="M21.4267 18.748L21.7869 18.7538C21.7833 19.3589 21.7779 19.9639 21.7768 20.569C21.7732 22.193 21.7714 23.8168 21.7714 25.4404C20.3668 25.5095 18.9496 24.4579 18.5463 23.0493C17.9999 21.1405 19.1488 19.2209 21.09 18.8024C21.2013 18.7776 21.3147 18.7661 21.4267 18.748Z" fill="#F04A53"/>
<path d="M21.7715 25.44C21.7729 23.8162 21.7746 22.1923 21.7765 20.5682C21.7765 19.9632 21.783 19.3581 21.7866 18.7531L22.1043 18.748C22.7965 18.8431 23.43 19.083 23.9518 19.5566C24.9628 20.4746 25.3442 21.6188 24.9963 22.9377C24.6484 24.2566 23.762 25.068 22.4284 25.3723C22.217 25.4213 21.9915 25.4191 21.7715 25.44Z" fill="#ED1F25"/>
</svg>
