<svg width="30" height="30" viewBox="0 0 30 30" fill="none" xmlns="http://www.w3.org/2000/svg">
<path d="M26.228 11.2356C26.1351 11.5222 26.0879 11.8221 25.9572 12.0985C25.7814 12.4694 25.549 12.8024 25.2535 13.09C23.2583 15.032 21.2604 16.9712 19.263 18.911C19.2323 18.9409 19.1966 18.9655 19.1631 18.9921C18.5643 18.4131 17.9655 17.8336 17.3662 17.2546C16.5658 16.4808 15.7649 15.707 14.9645 14.9332C14.9634 14.921 14.9629 14.9092 14.9629 14.897C15.0277 14.8404 15.0958 14.7876 15.1574 14.7278C17.8326 12.13 20.5067 9.53169 23.1825 6.93497C23.2523 6.8672 23.305 6.77061 23.4226 6.76367C24.1603 7.47822 24.9475 8.14741 25.6017 8.93881C25.9308 9.33637 26.1176 9.80438 26.189 10.3129C26.1923 10.338 26.2148 10.3604 26.2285 10.3839C26.228 10.6678 26.228 10.9517 26.228 11.2356Z" fill="#5393CE"/>
<path d="M14.9615 14.8982C14.9615 14.9104 14.9621 14.9222 14.9632 14.9345C14.9055 14.998 14.8516 15.0652 14.7901 15.125C12.7615 17.0973 10.7317 19.0681 8.70246 21.0404C8.46076 21.2752 8.46405 21.216 8.7096 21.4561C9.26607 21.9994 9.82474 22.54 10.3823 23.0822C11.3074 23.9808 12.8175 24.23 14.0024 23.6985C14.2249 23.5987 14.4072 23.4258 14.6533 23.3751C14.2842 23.7444 13.9156 24.1142 13.5464 24.4835C12.9636 25.0678 12.3236 25.5647 11.4826 25.7525C11.4008 25.7765 11.3019 25.7237 11.2321 25.8037C10.925 25.8037 10.6185 25.8037 10.3114 25.8037C10.1824 25.7221 10.0269 25.7253 9.88517 25.6847C9.43966 25.5583 9.02767 25.3646 8.68598 25.0625C7.97076 24.4301 7.30113 23.7524 6.62765 23.0784C6.67983 23.0197 6.72872 22.9583 6.78531 22.9034C7.30552 22.3964 7.82299 21.8873 8.35034 21.3873C8.46845 21.2752 8.4668 21.2133 8.34979 21.1013C7.72026 20.5009 7.09842 19.8915 6.47493 19.2853C6.42879 19.2404 6.37935 19.1967 6.34035 19.146C5.50097 18.0691 5.41967 16.6832 6.12721 15.5268C6.16456 15.4654 6.20027 15.4035 6.19203 15.3278C6.36067 15.1613 6.52822 14.9942 6.69796 14.8288C8.00921 13.5545 9.32101 12.2806 10.6328 11.0068C10.6839 10.9572 10.7394 10.9108 10.7932 10.8633C11.7941 11.835 12.7944 12.8073 13.7964 13.778C14.182 14.1532 14.5726 14.5246 14.9615 14.8982Z" fill="#E55739"/>
<path d="M14.9604 14.9015C14.5715 14.5285 14.1815 14.1565 13.7942 13.7814C12.7922 12.8107 11.7919 11.8384 10.791 10.8666C10.8394 10.8138 10.8844 10.7583 10.9355 10.7086C12.8812 8.81794 14.8275 6.92777 16.7727 5.03654C17.2687 4.55465 17.8406 4.20352 18.5366 4.07064C19.599 3.86785 20.5542 4.09945 21.3661 4.79426C22.0885 5.41275 22.7444 6.10062 23.4195 6.76715C23.302 6.77462 23.2492 6.87067 23.1795 6.93845C20.5037 9.53516 17.8296 12.134 15.1543 14.7313C15.0934 14.7916 15.0252 14.8449 14.9604 14.9015Z" fill="#669FD5"/>
<path d="M6.19233 15.332C6.20057 15.4073 6.16486 15.4697 6.12751 15.5311C5.42052 16.688 5.50127 18.0739 6.34065 19.1503C6.3802 19.201 6.42909 19.2442 6.47523 19.2895C7.09927 19.8958 7.72056 20.5047 8.35009 21.1055C8.4671 21.2171 8.46875 21.2795 8.35064 21.3916C7.82383 21.8916 7.30582 22.4007 6.7856 22.9077C6.72957 22.9626 6.68068 23.024 6.62794 23.0827C5.95007 22.4199 5.24858 21.7779 4.59872 21.0901C3.49073 19.9171 3.50886 18.0664 4.60587 16.8828C5.1096 16.3396 5.64629 15.831 6.19233 15.332Z" fill="#F26C52"/>
<path d="M14.6545 23.3801C14.4084 23.4313 14.226 23.6037 14.0035 23.7035C12.8192 24.2345 11.3085 23.9858 10.3834 23.0871C9.82586 22.5455 9.2672 22.0044 8.71073 21.4611C8.46518 21.221 8.46188 21.2802 8.70358 21.0454C10.7323 19.0731 12.762 17.1023 14.7912 15.13C14.8528 15.0702 14.9066 15.003 14.9643 14.9395C15.7647 15.7132 16.5656 16.487 17.366 17.2608C17.9647 17.8398 18.5635 18.4194 19.1628 18.9984C18.965 19.1958 18.7695 19.3949 18.569 19.5896C17.3324 20.793 16.0943 21.9953 14.8566 23.1976C14.8209 23.2323 14.7814 23.2627 14.7435 23.2953C14.7281 23.3097 14.7127 23.3246 14.6973 23.339C14.6825 23.3534 14.6687 23.3668 14.6545 23.3801Z" fill="#CF4729"/>
<path d="M14.6992 23.3371C14.7147 23.3225 14.7302 23.3075 14.7457 23.293C14.7302 23.3075 14.7147 23.322 14.6992 23.3371Z" fill="#E55739"/>
</svg>
