<svg width="28" height="28" viewBox="0 0 28 28" fill="none" xmlns="http://www.w3.org/2000/svg">
<path d="M13.9945 3.73625V3.40119C14.1795 3.40119 14.3295 3.5512 14.3295 3.73625H13.9945ZM12.6165 3.73629L12.6165 4.07135L12.6165 3.73629ZM13.9949 4.87748L14.33 4.87706C14.3302 5.06195 14.1807 5.21208 13.9958 5.21254L13.9949 4.87748ZM13.3782 4.87956L13.3769 4.5445L13.3782 4.87956ZM11.6821 4.88035L11.68 5.21541L11.6798 5.2154L11.6821 4.88035ZM11.5012 5.05692L11.1662 5.05817L11.1662 5.05802L11.5012 5.05692ZM11.5012 9.7008L11.8363 9.70215L11.8363 9.70291L11.5012 9.7008ZM11.6869 9.87593L11.6896 10.211L11.6893 10.211L11.6869 9.87593ZM13.5683 9.87355L13.5675 10.2086L13.5683 9.87355ZM13.7896 9.87402V10.2091L13.7889 10.2091L13.7896 9.87402ZM13.8399 9.87205L13.8595 10.2065L13.8594 10.2065L13.8399 9.87205ZM13.9959 9.89268L14.1539 9.59723C14.263 9.65559 14.3311 9.76935 14.331 9.89311L13.9959 9.89268ZM13.9945 11.031L14.3295 11.0315C14.3293 11.2157 14.1804 11.3652 13.9962 11.3661L13.9945 11.031ZM13.4009 11.0348L13.4032 11.3699L13.4009 11.0348ZM11.719 11.0377L11.7218 10.7027L11.722 10.7027L11.719 11.0377ZM11.5003 11.2559L11.8353 11.2541L11.8353 11.2544L11.5003 11.2559ZM11.5008 15.8266L11.8358 15.828L11.8358 15.8286L11.5008 15.8266ZM11.6994 16.0257L11.7017 16.3607L11.7014 16.3607L11.6994 16.0257ZM13.3632 16.0288L13.3653 15.6938L13.3632 16.0288ZM13.994 16.0324L13.9954 15.6973C14.1799 15.6981 14.329 15.8479 14.329 16.0324H13.994ZM13.9945 17.1707H14.3295C14.3295 17.2998 14.2553 17.4175 14.1388 17.4731L13.9945 17.1707ZM13.8372 17.1897L13.8543 16.855H13.8543L13.8372 17.1897ZM13.7872 17.188L13.7865 16.8529H13.7872V17.188ZM13.646 17.1882L13.6453 16.8532H13.6453L13.646 17.1882ZM11.6653 17.1865L11.663 17.5216L11.6626 17.5216L11.6653 17.1865ZM11.5012 17.3439L11.8363 17.3427L11.8363 17.343L11.5012 17.3439ZM11.5012 22.0261H11.1662L11.1662 22.0252L11.5012 22.0261ZM11.6624 22.1831L11.6611 21.848H11.6612L11.6624 22.1831ZM13.3587 22.1849L13.3599 21.8498H13.3599L13.3587 22.1849ZM13.9945 22.1869L13.9953 21.8518C14.18 21.8523 14.3295 22.0022 14.3295 22.1869H13.9945ZM13.9945 23.3286H14.3295C14.3295 23.5136 14.1795 23.6637 13.9945 23.6637V23.3286ZM12.6161 23.3286L12.6161 23.6636L12.6161 23.3286ZM4.34826 23.3324L4.34876 23.6675H4.34826V23.3324ZM4.19138 23.1755H3.85632V23.1752L4.19138 23.1755ZM4.19138 3.88937L3.85632 3.8896V3.88937H4.19138ZM4.34826 3.73242V3.39736L4.34876 3.39736L4.34826 3.73242ZM8.40723 4.8846L8.40687 5.21966L8.40723 4.8846ZM7.26537 4.88457L7.26501 4.54951L7.26537 4.88457ZM5.5102 4.88035L5.50708 5.2154L5.50659 5.21539L5.5102 4.88035ZM5.34085 5.04831L5.6759 5.04711V5.04727L5.34085 5.04831ZM5.34085 9.6941L5.00579 9.69297V9.69296L5.34085 9.6941ZM5.51931 9.87593L5.52045 10.211H5.52042L5.51931 9.87593ZM10.1479 9.87593L10.1468 10.211H10.1467L10.1479 9.87593ZM10.3407 9.68501L10.6758 9.68376L10.6758 9.68396L10.3407 9.68501ZM10.3407 5.05836L10.6758 5.05945L10.6758 5.0595L10.3407 5.05836ZM10.1575 4.88083L10.1609 5.21587L10.1604 5.21588L10.1575 4.88083ZM5.34376 12.9346L5.67882 12.935L5.34376 12.9346ZM5.34376 14.1289L5.67882 14.1284L5.34376 14.1289ZM5.33989 15.8453L5.67493 15.8484L5.67493 15.8487L5.33989 15.8453ZM5.51835 16.0247L5.5195 16.3598L5.51947 16.3598L5.51835 16.0247ZM10.1479 16.0247L10.1468 16.3598L10.1467 16.3598L10.1479 16.0247ZM10.3403 15.8367L10.6753 15.8354L10.6753 15.8356L10.3403 15.8367ZM10.3403 11.2277L10.6753 11.2288L10.6753 11.229L10.3403 11.2277ZM10.1484 11.0387L10.1472 10.7036H10.1473L10.1484 11.0387ZM5.51883 11.0387L5.51995 10.7036H5.51998L5.51883 11.0387ZM5.33989 11.2177L5.67493 11.2143L5.67493 11.2145L5.33989 11.2177ZM5.34343 19.1107L5.67848 19.1108L5.34343 19.1107ZM5.3437 20.2987L5.00864 20.2991V20.2991L5.3437 20.2987ZM5.34037 22.0118L5.00532 22.0093L5.00532 22.009L5.34037 22.0118ZM5.50732 22.1826L5.50615 21.8475H5.50619L5.50732 22.1826ZM10.1747 22.1816L10.1755 21.8466L10.1761 21.8466L10.1747 22.1816ZM10.3398 22.0256L10.0047 22.0269L10.0047 22.0266L10.3398 22.0256ZM10.3388 17.3406H10.6739L10.6739 17.3412L10.3388 17.3406ZM10.1877 17.186L10.189 17.5211L10.1884 17.5211L10.1877 17.186ZM5.48189 17.1856L5.48097 17.5206L5.48067 17.5206L5.48189 17.1856ZM5.34181 17.3463L5.67686 17.3448L5.67686 17.3451L5.34181 17.3463ZM13.9967 22.1867H13.6616C13.6616 22.0021 13.811 21.8522 13.9956 21.8516L13.9967 22.1867ZM13.9967 23.3284V23.6635C13.8116 23.6635 13.6616 23.5135 13.6616 23.3284H13.9967ZM14.5443 22.1845L14.5428 21.8495L14.5443 22.1845ZM16.3095 22.1848L16.3074 22.5198L16.3064 22.5198L16.3095 22.1848ZM16.498 21.9939L16.8331 21.9927V21.9928L16.498 21.9939ZM16.4985 17.3686L16.8336 17.3696L16.8336 17.3701L16.4985 17.3686ZM16.2903 17.1734L16.288 16.8384L16.2882 16.8384L16.2903 17.1734ZM14.5887 17.173L14.59 16.838H14.59L14.5887 17.173ZM13.9967 17.171L13.9958 17.5061C13.8111 17.5056 13.6616 17.3557 13.6616 17.171H13.9967ZM13.9962 16.0327H13.6611C13.6611 15.8479 13.8107 15.698 13.9956 15.6976L13.9962 16.0327ZM14.6038 16.0309L14.6027 15.6959H14.6027L14.6038 16.0309ZM16.2922 16.0317L16.2901 16.3668L16.2895 16.3668L16.2922 16.0317ZM16.499 15.837L16.1639 15.8389L16.1639 15.8384L16.499 15.837ZM16.499 11.227L16.8341 11.228L16.8341 11.2285L16.499 11.227ZM16.2922 11.0318L16.2954 11.3669L16.295 11.3669L16.2922 11.0318ZM14.5701 11.0329L14.5691 11.368H14.5691L14.5701 11.0329ZM13.9962 11.0313L13.9956 11.3664C13.8106 11.366 13.6609 11.2159 13.6611 11.0309L13.9962 11.0313ZM13.9976 9.89298L13.6626 9.89255C13.6628 9.708 13.8122 9.55839 13.9968 9.55792L13.9976 9.89298ZM14.6001 9.89085L14.6014 10.2259L14.6001 9.89085ZM16.2721 9.89058L16.2746 9.55554L16.275 9.55554L16.2721 9.89058ZM16.4995 9.67622L16.8345 9.67444L16.8345 9.67449L16.4995 9.67622ZM16.498 5.07109L16.8331 5.07217V5.07225L16.498 5.07109ZM16.309 4.88065L16.3065 4.5456L16.3069 4.5456L16.309 4.88065ZM14.6392 4.88011L14.6406 4.54506L14.6392 4.88011ZM13.9967 4.87778L13.9958 5.21284C13.8111 5.21238 13.6616 5.0625 13.6616 4.87778H13.9967ZM13.9967 3.73607H13.6616C13.6616 3.55102 13.8116 3.40101 13.9967 3.40101V3.73607ZM23.7959 3.73607V3.40101C23.9809 3.40101 24.131 3.55102 24.131 3.73607H23.7959ZM23.7959 23.3284H24.131C24.131 23.5135 23.9809 23.6635 23.7959 23.6635V23.3284ZM22.6469 7.99126L22.982 7.99163L22.6469 7.99126ZM22.6469 6.78937L22.9819 6.78894L22.6469 6.78937ZM22.6508 5.05865L22.3157 5.05555L22.3157 5.05532L22.6508 5.05865ZM22.4708 4.88065L22.4697 4.54559L22.4697 4.54559L22.4708 4.88065ZM17.8231 4.88065L17.8221 5.21571L17.8219 5.21571L17.8231 4.88065ZM17.6394 5.05817L17.3043 5.05942L17.3043 5.05926L17.6394 5.05817ZM17.6403 9.70445L17.9754 9.70538L17.9754 9.70557L17.6403 9.70445ZM17.8265 9.88915L17.8253 9.55409L17.8255 9.55409L17.8265 9.88915ZM22.4742 9.89011L22.4731 10.2252L22.473 10.2252L22.4742 9.89011ZM22.6503 9.70493L22.9853 9.70222L22.9853 9.70258L22.6503 9.70493ZM22.6468 20.2735L22.3118 20.273L22.6468 20.2735ZM22.6469 19.0812L22.9819 19.0808L22.6469 19.0812ZM22.6508 17.3797L22.3157 17.3765L22.3157 17.3764L22.6508 17.3797ZM22.4574 17.1725L22.4593 17.5075L22.4589 17.5075L22.4574 17.1725ZM17.8471 17.1734L17.8481 16.8384L17.8482 16.8384L17.8471 17.1734ZM17.6398 17.3763L17.3048 17.3774L17.3048 17.3773L17.6398 17.3763ZM17.6398 22.0039L17.3048 22.0028V22.0028L17.6398 22.0039ZM17.8217 22.1834L17.8228 22.5184H17.8228L17.8217 22.1834ZM22.4699 22.1834L22.471 21.8483H22.471L22.4699 22.1834ZM22.6512 22.0068L22.9863 22.0033L22.9863 22.0035L22.6512 22.0068ZM19.5581 16.0273L19.5576 16.3624H19.5576L19.5581 16.0273ZM20.7321 16.0275L20.7317 15.6924H20.7317L20.7321 16.0275ZM22.468 16.0312L22.4656 16.3663L22.4651 16.3663L22.468 16.0312ZM22.6512 15.8547L22.9863 15.8533L22.9863 15.8536L22.6512 15.8547ZM22.6512 11.2079L22.9863 11.209L22.9863 11.2093L22.6512 11.2079ZM22.4665 11.0323L22.4677 11.3674L22.4675 11.3674L22.4665 11.0323ZM17.837 11.0313L17.8357 11.3664L17.8351 11.3664L17.837 11.0313ZM17.6394 11.2376L17.3043 11.2388L17.3043 11.2386L17.6394 11.2376ZM17.6394 15.8274L17.3043 15.8264L17.3043 15.8261L17.6394 15.8274ZM17.8384 16.0317L17.8345 15.6967L17.8349 15.6967L17.8384 16.0317ZM13.9945 4.07131C13.5352 4.07131 13.0758 4.07133 12.6165 4.07135L12.6165 3.40123C13.0758 3.40121 13.5351 3.40119 13.9945 3.40119V4.07131ZM13.6599 4.8779C13.6594 4.49725 13.6594 4.11663 13.6594 3.73625H14.3295C14.3295 4.1167 14.3295 4.4969 14.33 4.87706L13.6599 4.8779ZM13.3769 4.5445C13.5825 4.54372 13.7883 4.54294 13.9941 4.54242L13.9958 5.21254C13.7904 5.21305 13.5851 5.21383 13.3795 5.21461L13.3769 4.5445ZM11.6842 4.5453C12.2476 4.5488 12.8113 4.54665 13.3769 4.5445L13.3795 5.21461C12.8144 5.21676 12.2473 5.21893 11.68 5.21541L11.6842 4.5453ZM11.1662 5.05802C11.1659 4.98166 11.1688 4.80065 11.3106 4.66837C11.4457 4.5423 11.6209 4.54487 11.6844 4.5453L11.6798 5.2154C11.6537 5.21522 11.6534 5.21708 11.6654 5.2145C11.6805 5.21124 11.7242 5.19894 11.7677 5.15837C11.8124 5.1167 11.8289 5.07144 11.8342 5.05069C11.8384 5.03436 11.8362 5.03138 11.8363 5.05582L11.1662 5.05802ZM11.1662 9.69945C11.1724 8.15246 11.1719 6.60537 11.1662 5.05817L11.8363 5.05567C11.842 6.60439 11.8425 8.15323 11.8363 9.70215L11.1662 9.69945ZM11.6893 10.211C11.6339 10.2114 11.4641 10.2164 11.3283 10.1028C11.1741 9.97373 11.1656 9.78845 11.1662 9.69869L11.8363 9.70291C11.8361 9.72545 11.8386 9.71926 11.8327 9.69899C11.8252 9.67317 11.8049 9.62776 11.7583 9.58879C11.7149 9.55246 11.6739 9.54314 11.6632 9.54112C11.6547 9.53951 11.6573 9.54108 11.6845 9.54088L11.6893 10.211ZM13.5675 10.2086C12.9401 10.2072 12.3147 10.2059 11.6896 10.211L11.6841 9.54089C12.3133 9.53573 12.9422 9.53711 13.569 9.53849L13.5675 10.2086ZM13.7889 10.2091C13.7151 10.2089 13.6413 10.2088 13.5675 10.2086L13.569 9.53849C13.6428 9.53865 13.7165 9.53881 13.7903 9.53896L13.7889 10.2091ZM13.8594 10.2065C13.8443 10.2074 13.8177 10.2091 13.7896 10.2091V9.53896C13.7948 9.53896 13.8017 9.53865 13.8203 9.53757L13.8594 10.2065ZM13.8379 10.1881C13.8498 10.1945 13.8614 10.1988 13.8714 10.2014C13.8811 10.204 13.8881 10.2048 13.8909 10.205C13.8934 10.2052 13.8929 10.205 13.8872 10.2052C13.8809 10.2053 13.8736 10.2057 13.8595 10.2065L13.8203 9.53757C13.8588 9.53531 14.0079 9.51911 14.1539 9.59723L13.8379 10.1881ZM13.6594 11.0306L13.6608 9.89226L14.331 9.89311L14.3295 11.0315L13.6594 11.0306ZM13.3985 10.6998C13.5963 10.6984 13.7945 10.697 13.9928 10.696L13.9962 11.3661C13.7987 11.3671 13.6011 11.3685 13.4032 11.3699L13.3985 10.6998ZM11.722 10.7027C12.2795 10.7076 12.8375 10.7037 13.3985 10.6998L13.4032 11.3699C12.8431 11.3738 12.2798 11.3778 11.7161 11.3728L11.722 10.7027ZM11.1652 11.2578C11.1647 11.1707 11.1673 10.9826 11.3078 10.843C11.448 10.7036 11.6358 10.702 11.7218 10.7027L11.7163 11.3728C11.6834 11.3725 11.6784 11.375 11.6874 11.3729C11.7001 11.3699 11.7405 11.3577 11.7802 11.3183C11.8199 11.2788 11.8324 11.2384 11.8355 11.2254C11.8377 11.2163 11.8351 11.2212 11.8353 11.2541L11.1652 11.2578ZM11.1657 15.8252C11.1719 14.3025 11.1724 12.78 11.1652 11.2575L11.8353 11.2544C11.8425 12.779 11.842 14.3036 11.8358 15.828L11.1657 15.8252ZM11.7014 16.3607C11.6233 16.3612 11.4397 16.3603 11.3026 16.2228C11.166 16.0856 11.1652 15.9024 11.1657 15.8246L11.8358 15.8286C11.8356 15.858 11.8379 15.8601 11.8352 15.8487C11.8317 15.8336 11.8185 15.7911 11.7773 15.7497C11.7361 15.7083 11.6934 15.6949 11.6779 15.6913C11.6662 15.6885 11.6681 15.6908 11.6974 15.6906L11.7014 16.3607ZM13.3611 16.3639C12.8061 16.3604 12.2536 16.3569 11.7017 16.3607L11.6971 15.6906C12.2541 15.6868 12.811 15.6903 13.3653 15.6938L13.3611 16.3639ZM13.9925 16.3674C13.7819 16.3665 13.5713 16.3652 13.3611 16.3639L13.3653 15.6938C13.5756 15.6951 13.7856 15.6964 13.9954 15.6973L13.9925 16.3674ZM13.6592 16.6018C13.659 16.412 13.6589 16.2222 13.6589 16.0324H14.329C14.329 16.222 14.3292 16.4116 14.3293 16.6013L13.6592 16.6018ZM13.6594 17.1707C13.6594 16.9811 13.6593 16.7915 13.6592 16.6018L14.3293 16.6013C14.3294 16.791 14.3295 16.9809 14.3295 17.1707H13.6594ZM13.8543 16.855C13.8611 16.8554 13.8664 16.8557 13.8715 16.8559C13.8764 16.8561 13.8802 16.8562 13.8834 16.8563C13.8898 16.8564 13.8917 16.8562 13.8908 16.8563C13.8897 16.8564 13.8848 16.8568 13.8774 16.8586C13.8697 16.8604 13.8603 16.8635 13.8501 16.8684L14.1388 17.4731C13.9994 17.5396 13.8603 17.5263 13.8201 17.5243L13.8543 16.855ZM13.7872 16.8529C13.8138 16.8529 13.8391 16.8543 13.8543 16.855L13.8201 17.5243C13.8019 17.5234 13.7938 17.523 13.7872 17.523V16.8529ZM13.6453 16.8532L13.7865 16.8529L13.7879 17.523L13.6466 17.5233L13.6453 16.8532ZM11.6676 16.8515C12.3259 16.8559 12.9849 16.8546 13.6453 16.8532L13.6467 17.5233C12.9868 17.5247 12.3248 17.526 11.663 17.5216L11.6676 16.8515ZM11.1662 17.3452C11.1659 17.2647 11.1736 17.092 11.3149 16.966C11.4455 16.8496 11.6085 16.851 11.668 16.8515L11.6626 17.5216C11.6424 17.5214 11.6454 17.523 11.6595 17.5199C11.6762 17.5163 11.7183 17.5041 11.7609 17.4661C11.8053 17.4266 11.8246 17.382 11.832 17.3559C11.8381 17.3345 11.8362 17.3258 11.8363 17.3427L11.1662 17.3452ZM11.1662 22.0252C11.1705 20.4649 11.1705 18.9051 11.1662 17.3449L11.8363 17.343C11.8406 18.9045 11.8406 20.4655 11.8363 22.027L11.1662 22.0252ZM11.6637 22.5181C11.6042 22.5183 11.4385 22.5193 11.3082 22.3984C11.171 22.2711 11.1662 22.0992 11.1662 22.0261H11.8363C11.8363 22.0446 11.8381 22.0373 11.8328 22.0177C11.8263 21.9936 11.8084 21.9484 11.7641 21.9073C11.7209 21.8672 11.6773 21.8539 11.6592 21.8498C11.6442 21.8465 11.6406 21.8481 11.6611 21.848L11.6637 22.5181ZM13.3576 22.5199C12.7921 22.518 12.2279 22.516 11.6637 22.5181L11.6612 21.848C12.2282 21.8459 12.7948 21.8479 13.3599 21.8498L13.3576 22.5199ZM13.9936 22.5219C13.7815 22.5214 13.5695 22.5207 13.3576 22.5199L13.3599 21.8498C13.5718 21.8506 13.7836 21.8513 13.9953 21.8518L13.9936 22.5219ZM13.6594 23.3286V22.1869H14.3295V23.3286H13.6594ZM12.6161 22.9935C13.0756 22.9935 13.535 22.9935 13.9945 22.9935V23.6637C13.535 23.6637 13.0755 23.6636 12.6161 23.6636L12.6161 22.9935ZM4.34776 22.9974C7.10386 22.9933 9.86026 22.9934 12.6161 22.9935L12.6161 23.6636C9.86015 23.6635 7.10426 23.6634 4.34876 23.6675L4.34776 22.9974ZM4.52644 23.1755C4.52644 23.202 4.52818 23.1999 4.52513 23.1856C4.5213 23.1676 4.50683 23.1157 4.45776 23.0665C4.40865 23.0173 4.35674 23.0026 4.33848 22.9987C4.324 22.9956 4.32177 22.9974 4.34826 22.9974V23.6675C4.30902 23.6675 4.25432 23.666 4.1981 23.654C4.13811 23.6411 4.05519 23.6118 3.98329 23.5397C3.91144 23.4677 3.8824 23.3848 3.86968 23.325C3.85776 23.269 3.85632 23.2145 3.85632 23.1755H4.52644ZM4.52644 3.88915C4.53076 10.318 4.53076 16.7468 4.52644 23.1757L3.85632 23.1752C3.86064 16.7467 3.86064 10.3181 3.85632 3.8896L4.52644 3.88915ZM4.34826 4.06748C4.32196 4.06748 4.32425 4.06923 4.33876 4.06612C4.35703 4.0622 4.40868 4.0476 4.45763 3.99865C4.50657 3.94971 4.52117 3.89807 4.52508 3.87982C4.52819 3.86533 4.52644 3.86306 4.52644 3.88937H3.85632C3.85632 3.85013 3.85781 3.79546 3.86987 3.73925C3.88274 3.67929 3.91199 3.5966 3.98378 3.52481C4.05558 3.45301 4.13827 3.42376 4.19823 3.4109C4.25443 3.39885 4.30907 3.39736 4.34826 3.39736V4.06748ZM12.6165 4.07135C9.86052 4.07146 7.10399 4.07158 4.34776 4.06748L4.34876 3.39736C7.10439 3.40146 9.86041 3.40135 12.6165 3.40123L12.6165 4.07135ZM7.824 4.54912C8.01862 4.54912 8.21321 4.54933 8.40759 4.54954L8.40687 5.21966C8.21242 5.21945 8.0182 5.21924 7.824 5.21924V4.54912ZM7.26501 4.54951C7.45119 4.54932 7.63758 4.54912 7.824 4.54912V5.21924C7.63799 5.21924 7.45195 5.21943 7.26572 5.21963L7.26501 4.54951ZM5.51332 4.54531C6.09614 4.55073 6.67953 4.55013 7.26501 4.54951L7.26572 5.21963C6.68081 5.22024 6.09395 5.22086 5.50708 5.2154L5.51332 4.54531ZM5.00579 5.0495C5.00554 4.98031 5.00684 4.80564 5.14039 4.6743C5.27307 4.54382 5.44691 4.54459 5.5138 4.54531L5.50659 5.21539C5.48417 5.21515 5.4874 5.21705 5.50304 5.21342C5.52234 5.20895 5.56719 5.19445 5.61027 5.15208C5.65349 5.10957 5.66889 5.06464 5.67378 5.04466C5.67775 5.02849 5.67583 5.02486 5.6759 5.04711L5.00579 5.0495ZM5.00579 9.69296C5.01106 8.14535 5.01059 6.59717 5.00579 5.04935L5.6759 5.04727C5.6807 6.59633 5.68118 8.14598 5.6759 9.69524L5.00579 9.69296ZM5.52042 10.211C5.44456 10.2112 5.26576 10.2084 5.13327 10.0697C5.00521 9.93566 5.00556 9.76093 5.00579 9.69297L5.6759 9.69524C5.67582 9.72084 5.67775 9.72069 5.67489 9.70811C5.67129 9.69225 5.65835 9.64927 5.61786 9.60688C5.5766 9.56368 5.53237 9.54786 5.51239 9.54281C5.49664 9.53883 5.494 9.54096 5.51821 9.54088L5.52042 10.211ZM10.1467 10.211C8.60464 10.2057 7.06255 10.2057 5.52045 10.211L5.51817 9.54088C7.06178 9.53561 8.6054 9.53561 10.149 9.54088L10.1467 10.211ZM10.6758 9.68396C10.6761 9.76663 10.6712 9.94471 10.5339 10.0781C10.3993 10.2087 10.2238 10.2112 10.1468 10.211L10.149 9.54088C10.175 9.54096 10.1755 9.53887 10.1633 9.54178C10.1477 9.54551 10.107 9.55852 10.067 9.59735C10.0265 9.63664 10.0118 9.67808 10.0071 9.69621C10.0035 9.71038 10.0058 9.71134 10.0057 9.68607L10.6758 9.68396ZM10.6758 5.0595C10.6705 6.60103 10.67 8.14244 10.6758 9.68376L10.0057 9.68626C9.99992 8.14314 10.0004 6.60012 10.0057 5.05721L10.6758 5.0595ZM10.154 4.54579C10.2207 4.54511 10.394 4.5433 10.529 4.66803C10.6713 4.79945 10.6761 4.97915 10.6758 5.05945L10.0057 5.05726C10.0058 5.03389 10.0036 5.03748 10.008 5.05438C10.0137 5.07571 10.0305 5.11986 10.0743 5.16026C10.1168 5.19952 10.1592 5.2116 10.1743 5.21487C10.1864 5.21748 10.1862 5.21561 10.1609 5.21587L10.154 4.54579ZM8.40759 4.54954C8.99114 4.55017 9.57286 4.55079 10.1546 4.54579L10.1604 5.21588C9.57485 5.22092 8.98988 5.22029 8.40687 5.21966L8.40759 4.54954ZM5.00819 13.5317C5.00819 13.3324 5.00844 13.1331 5.0087 12.9341L5.67882 12.935C5.67856 13.1341 5.6783 13.3329 5.6783 13.5317H5.00819ZM5.0087 14.1293C5.00844 13.9303 5.00819 13.731 5.00819 13.5317H5.6783C5.6783 13.7305 5.67856 13.9293 5.67882 14.1284L5.0087 14.1293ZM5.00484 15.8421C5.01016 15.2723 5.00943 14.7019 5.0087 14.1293L5.67882 14.1284C5.67955 14.7004 5.68029 15.2744 5.67493 15.8484L5.00484 15.8421ZM5.51947 16.3598C5.44841 16.36 5.26997 16.3593 5.13642 16.2243C5.00319 16.0896 5.00414 15.9115 5.00485 15.8419L5.67493 15.8487C5.67467 15.8739 5.6767 15.8725 5.67344 15.8584C5.66933 15.8405 5.65524 15.7959 5.6128 15.753C5.57031 15.7101 5.52578 15.6954 5.50772 15.6911C5.49342 15.6877 5.49202 15.6897 5.51724 15.6897L5.51947 16.3598ZM10.1467 16.3598C8.60416 16.3545 7.06207 16.3545 5.5195 16.3598L5.51721 15.6897C7.06131 15.6844 8.60492 15.6844 10.149 15.6897L10.1467 16.3598ZM10.6753 15.8356C10.6756 15.9193 10.6702 16.0993 10.5291 16.2321C10.394 16.3593 10.2193 16.36 10.1468 16.3598L10.149 15.6897C10.1757 15.6897 10.177 15.6877 10.1658 15.6903C10.1515 15.6935 10.1107 15.7057 10.0698 15.7441C10.028 15.7835 10.0121 15.8259 10.007 15.8455C10.003 15.8609 10.0053 15.8627 10.0052 15.8377L10.6753 15.8356ZM10.6753 11.229C10.6696 12.7641 10.6696 14.2998 10.6753 15.8354L10.0052 15.8379C9.99944 14.3006 9.99944 12.7633 10.0052 11.2265L10.6753 11.229ZM10.1473 10.7036C10.2214 10.7034 10.3971 10.7048 10.532 10.8341C10.671 10.9674 10.6756 11.1467 10.6753 11.2288L10.0052 11.2267C10.0053 11.2013 10.003 11.2026 10.0068 11.2172C10.0116 11.2359 10.0268 11.2781 10.0682 11.3178C10.1089 11.3568 10.15 11.3695 10.165 11.373C10.1768 11.3757 10.1759 11.3737 10.1494 11.3738L10.1473 10.7036ZM5.51998 10.7036C7.06255 10.7089 8.60464 10.7089 10.1472 10.7036L10.1495 11.3738C8.6054 11.379 7.06178 11.379 5.51769 11.3738L5.51998 10.7036ZM5.00485 11.221C5.00413 11.1503 5.00362 10.9716 5.13841 10.8371C5.2722 10.7037 5.45003 10.7034 5.51995 10.7036L5.51772 11.3738C5.4923 11.3737 5.49334 11.3757 5.50718 11.3724C5.52464 11.3683 5.56899 11.3541 5.61164 11.3116C5.65449 11.2688 5.66899 11.2241 5.67332 11.2056C5.67674 11.191 5.67468 11.1893 5.67493 11.2143L5.00485 11.221ZM5.0087 12.9341C5.00943 12.3615 5.01016 11.791 5.00484 11.2208L5.67493 11.2145C5.68029 11.7889 5.67955 12.363 5.67882 12.935L5.0087 12.9341ZM5.00819 19.6987C5.00819 19.5026 5.00828 19.3065 5.00837 19.1105L5.67848 19.1108C5.67839 19.3068 5.6783 19.5027 5.6783 19.6987H5.00819ZM5.00864 20.2991C5.00841 20.0991 5.00819 19.8989 5.00819 19.6987H5.6783C5.6783 19.8985 5.67853 20.0983 5.67875 20.2983L5.00864 20.2991ZM5.00532 22.009C5.00993 21.4402 5.00928 20.8706 5.00864 20.2991L5.67875 20.2983C5.6794 20.8693 5.68005 21.442 5.67542 22.0145L5.00532 22.009ZM5.50849 22.5176C5.43522 22.5179 5.25824 22.515 5.12775 22.376C5.00282 22.2429 5.00487 22.0713 5.00532 22.0093L5.67542 22.0142C5.67525 22.0376 5.67702 22.0358 5.67399 22.0221C5.67026 22.0051 5.65724 21.961 5.61631 21.9174C5.57442 21.8727 5.52888 21.8558 5.50685 21.8501C5.48915 21.8456 5.48436 21.8476 5.50615 21.8475L5.50849 22.5176ZM10.174 22.5167C8.61853 22.5133 7.0634 22.5124 5.50845 22.5176L5.50619 21.8475C7.06285 21.8423 8.61934 21.8432 10.1755 21.8466L10.174 22.5167ZM10.6748 22.0244C10.6751 22.1074 10.6661 22.2816 10.5209 22.4066C10.3906 22.5189 10.2294 22.5169 10.1734 22.5167L10.1761 21.8466C10.1971 21.8466 10.1953 21.8452 10.1827 21.8478C10.1677 21.8509 10.1263 21.8621 10.0836 21.8989C10.0383 21.9379 10.0177 21.9828 10.0096 22.0106C10.0029 22.0333 10.0048 22.0432 10.0047 22.0269L10.6748 22.0244ZM10.6739 17.3412C10.671 18.9027 10.6705 20.464 10.6748 22.0247L10.0047 22.0266C10.0004 20.4645 10.0009 18.9021 10.0038 17.34L10.6739 17.3412ZM10.1863 16.851C10.265 16.8507 10.4286 16.8592 10.5524 16.9914C10.6703 17.1173 10.6739 17.2748 10.6739 17.3406H10.0038C10.0038 17.3249 10.0023 17.331 10.0065 17.3481C10.0114 17.3681 10.0255 17.4091 10.0633 17.4494C10.102 17.4908 10.1447 17.5091 10.1705 17.5164C10.1924 17.5226 10.2024 17.521 10.189 17.5211L10.1863 16.851ZM5.48281 16.8505C7.0509 16.8548 8.61862 16.8543 10.187 16.851L10.1884 17.5211C8.61925 17.5244 7.0504 17.5249 5.48097 17.5206L5.48281 16.8505ZM5.00675 17.3479C5.00662 17.3205 5.00675 17.276 5.01344 17.2296C5.02027 17.1822 5.03687 17.1093 5.08626 17.0373C5.20188 16.8687 5.38534 16.8501 5.48311 16.8505L5.48067 17.5206C5.4687 17.5206 5.4866 17.5225 5.51799 17.5112C5.55672 17.4973 5.6038 17.4675 5.63885 17.4164C5.66953 17.3716 5.67564 17.3325 5.67671 17.3251C5.67764 17.3186 5.67675 17.3203 5.67686 17.3448L5.00675 17.3479ZM5.00837 19.1105C5.00864 18.5223 5.00891 17.935 5.00675 17.3476L5.67686 17.3451C5.67903 17.9342 5.67875 18.5228 5.67848 19.1108L5.00837 19.1105ZM14.3317 22.1867V23.3284H13.6616V22.1867H14.3317ZM14.5458 22.5196C14.3633 22.5204 14.1805 22.5212 13.9977 22.5218L13.9956 21.8516C14.1779 21.8511 14.3602 21.8503 14.5428 21.8495L14.5458 22.5196ZM16.3064 22.5198C15.7207 22.5144 15.1346 22.517 14.5458 22.5196L14.5428 21.8495C15.1308 21.8469 15.7215 21.8442 16.3126 21.8497L16.3064 22.5198ZM16.8331 21.9928C16.8333 22.0654 16.8326 22.2417 16.7032 22.3769C16.5694 22.5166 16.389 22.5204 16.3074 22.5198L16.3116 21.8497C16.3372 21.8499 16.3358 21.8476 16.3211 21.8514C16.3021 21.8562 16.2593 21.8715 16.2192 21.9134C16.1798 21.9545 16.1672 21.9961 16.1637 22.011C16.161 22.0227 16.1631 22.0217 16.163 21.995L16.8331 21.9928ZM16.8336 17.3701C16.8269 18.9107 16.8278 20.4516 16.8331 21.9927L16.163 21.995C16.1577 20.4527 16.1567 18.91 16.1635 17.3672L16.8336 17.3701ZM16.2882 16.8384C16.3551 16.8379 16.529 16.8351 16.6674 16.952C16.823 17.0834 16.8339 17.2713 16.8336 17.3696L16.1635 17.3677C16.1635 17.3416 16.1608 17.3445 16.1659 17.3619C16.1726 17.3847 16.1914 17.4272 16.2351 17.464C16.2759 17.4985 16.3139 17.5072 16.3223 17.5089C16.3285 17.5101 16.3229 17.5083 16.2924 17.5085L16.2882 16.8384ZM14.59 16.838C15.1576 16.8401 15.7231 16.8423 16.288 16.8384L16.2926 17.5085C15.7235 17.5124 15.1545 17.5102 14.5874 17.5081L14.59 16.838ZM13.9975 16.836C14.1951 16.8365 14.3927 16.8372 14.59 16.838L14.5874 17.5081C14.39 17.5073 14.1929 17.5066 13.9958 17.5061L13.9975 16.836ZM14.3315 16.6016C14.3316 16.7913 14.3317 16.9812 14.3317 17.171H13.6616C13.6616 16.9814 13.6615 16.7918 13.6614 16.6021L14.3315 16.6016ZM14.3312 16.0327C14.3312 16.2223 14.3314 16.4119 14.3315 16.6016L13.6614 16.6021C13.6612 16.4123 13.6611 16.2225 13.6611 16.0327H14.3312ZM14.605 16.366C14.4024 16.3667 14.1996 16.3673 13.9968 16.3677L13.9956 15.6976C14.1978 15.6972 14.4001 15.6965 14.6027 15.6959L14.605 16.366ZM16.2895 16.3668C15.7291 16.3622 15.1681 16.3641 14.6049 16.366L14.6027 15.6959C15.1652 15.694 15.73 15.6921 16.295 15.6967L16.2895 16.3668ZM16.8341 15.835C16.8346 15.931 16.8256 16.1206 16.6696 16.253C16.5307 16.3708 16.3552 16.3672 16.2901 16.3668L16.2943 15.6967C16.3254 15.6968 16.3312 15.6951 16.3251 15.6962C16.3168 15.6979 16.2778 15.7066 16.2361 15.742C16.1915 15.7798 16.1728 15.8233 16.1663 15.846C16.1614 15.8632 16.1641 15.8657 16.1639 15.8389L16.8341 15.835ZM16.8341 11.2285C16.8273 12.764 16.8273 14.3 16.8341 15.8355L16.1639 15.8384C16.1572 14.301 16.1572 12.763 16.1639 11.2256L16.8341 11.2285ZM16.2891 10.6968C16.3561 10.6961 16.5317 10.6927 16.6707 10.8119C16.8249 10.944 16.8343 11.1323 16.8341 11.228L16.1639 11.2261C16.164 11.1993 16.1613 11.2015 16.1661 11.2182C16.1724 11.2401 16.1906 11.283 16.2346 11.3207C16.276 11.3562 16.315 11.3653 16.3242 11.3671C16.3311 11.3684 16.3258 11.3666 16.2954 11.3669L16.2891 10.6968ZM14.5712 10.6978C15.1455 10.6996 15.7178 10.7014 16.2895 10.6968L16.295 11.3669C15.7188 11.3715 15.1428 11.3697 14.5691 11.368L14.5712 10.6978ZM13.9968 10.6963C14.1883 10.6966 14.3799 10.6972 14.5712 10.6978L14.5691 11.368C14.3777 11.3674 14.1866 11.3668 13.9956 11.3664L13.9968 10.6963ZM14.3327 9.8934L14.3312 11.0318L13.6611 11.0309L13.6626 9.89255L14.3327 9.8934ZM14.6014 10.2259C14.4007 10.2267 14.1996 10.2275 13.9985 10.228L13.9968 9.55792C14.1973 9.55741 14.3979 9.55661 14.5987 9.5558L14.6014 10.2259ZM16.2695 10.2256C15.7145 10.2214 15.1592 10.2237 14.6014 10.2259L14.5987 9.5558C15.1559 9.55355 15.7151 9.5513 16.2746 9.55554L16.2695 10.2256ZM16.8345 9.67449C16.8351 9.7811 16.8236 9.97599 16.6631 10.1105C16.5205 10.23 16.3401 10.2263 16.2692 10.2256L16.275 9.55554C16.3096 9.55584 16.3185 9.55397 16.3151 9.55461C16.3095 9.55567 16.2727 9.56334 16.2326 9.59693C16.1895 9.6331 16.1717 9.67452 16.1658 9.69484C16.1615 9.70967 16.1646 9.70901 16.1644 9.67794L16.8345 9.67449ZM16.8331 5.07225C16.8278 6.60677 16.8264 8.14075 16.8345 9.67444L16.1644 9.678C16.1563 8.1416 16.1577 6.6055 16.163 5.06994L16.8331 5.07225ZM16.3069 4.5456C16.3869 4.54509 16.5664 4.54818 16.7006 4.68595C16.8319 4.82083 16.8333 4.99779 16.8331 5.07217L16.163 5.07001C16.1631 5.04349 16.161 5.04289 16.1639 5.05509C16.1675 5.07072 16.1806 5.1125 16.2205 5.15346C16.2609 5.19492 16.3035 5.2097 16.3217 5.21423C16.3359 5.21777 16.3369 5.21554 16.3111 5.2157L16.3069 4.5456ZM14.6406 4.54506C15.1977 4.5474 15.7524 4.54973 16.3065 4.5456L16.3115 5.2157C15.7528 5.21986 15.1942 5.21751 14.6378 5.21517L14.6406 4.54506ZM13.9975 4.54272C14.212 4.54325 14.4265 4.54416 14.6406 4.54506L14.6378 5.21517C14.4236 5.21427 14.2097 5.21337 13.9958 5.21284L13.9975 4.54272ZM14.3317 3.73607V4.87778H13.6616V3.73607H14.3317ZM23.7959 4.07113H13.9967V3.40101H23.7959V4.07113ZM23.4608 23.3284V3.73607H24.131V23.3284H23.4608ZM13.9967 22.9934H23.7959V23.6635H13.9967V22.9934ZM22.9825 7.39136C22.9825 7.59157 22.9822 7.79172 22.982 7.99163L22.3119 7.99088C22.3121 7.7909 22.3123 7.59113 22.3123 7.39136H22.9825ZM22.9819 6.78894C22.9822 6.98957 22.9825 7.19045 22.9825 7.39136H22.3123C22.3123 7.19094 22.3121 6.99049 22.3118 6.78979L22.9819 6.78894ZM22.9858 5.06175C22.9805 5.6366 22.9812 6.21174 22.9819 6.78894L22.3118 6.78979C22.3111 6.21318 22.3103 5.63451 22.3157 5.05555L22.9858 5.06175ZM22.4697 4.54559C22.5367 4.54537 22.7132 4.54457 22.8475 4.6744C22.9859 4.80823 22.9865 4.98836 22.9858 5.06199L22.3157 5.05532C22.316 5.03072 22.3138 5.03321 22.3176 5.04885C22.3224 5.06869 22.3379 5.11385 22.3817 5.15616C22.4247 5.19775 22.4686 5.21099 22.4848 5.21465C22.4976 5.21756 22.4978 5.21562 22.472 5.21571L22.4697 4.54559ZM17.8241 4.54559C19.3726 4.55038 20.9214 4.55085 22.4697 4.54559L22.472 5.21571C20.9221 5.22097 19.3718 5.22049 17.8221 5.21571L17.8241 4.54559ZM17.3043 5.05926C17.304 4.97779 17.3093 4.79722 17.4534 4.6661C17.588 4.54371 17.7602 4.54537 17.8242 4.54559L17.8219 5.21571C17.7959 5.21562 17.7949 5.21742 17.806 5.21505C17.8198 5.21208 17.8618 5.20053 17.9043 5.16183C17.9485 5.12161 17.9659 5.07721 17.9719 5.05509C17.9766 5.03766 17.9743 5.03368 17.9744 5.05708L17.3043 5.05926ZM17.3053 9.70351C17.3096 8.15514 17.31 6.60745 17.3043 5.05942L17.9744 5.05693C17.9802 6.60673 17.9797 8.15592 17.9754 9.70538L17.3053 9.70351ZM17.8276 10.2242C17.7462 10.2245 17.5767 10.2186 17.4455 10.0898C17.3125 9.95937 17.305 9.78826 17.3053 9.70332L17.9754 9.70557C17.9753 9.72677 17.9773 9.72365 17.9732 9.70796C17.9681 9.6886 17.9531 9.64902 17.9148 9.61143C17.8767 9.57412 17.8376 9.56031 17.8199 9.55583C17.8056 9.55219 17.8035 9.55417 17.8253 9.55409L17.8276 10.2242ZM22.473 10.2252C20.9248 10.2194 19.3759 10.2199 17.8274 10.2242L17.8255 9.55409C19.3752 9.54978 20.9255 9.5493 22.4754 9.55505L22.473 10.2252ZM22.9853 9.70258C22.9857 9.76258 22.9893 9.93345 22.8716 10.0688C22.7417 10.2182 22.5589 10.2254 22.4731 10.2252L22.4753 9.55505C22.4982 9.55512 22.493 9.55279 22.4742 9.55811C22.4502 9.56487 22.4053 9.58378 22.3659 9.62919C22.3285 9.6722 22.3181 9.71362 22.3157 9.72589C22.3137 9.73568 22.3154 9.73387 22.3152 9.70727L22.9853 9.70258ZM22.982 7.99163C22.9814 8.56311 22.9807 9.13266 22.9853 9.70222L22.3152 9.70763C22.3106 9.13448 22.3112 8.56184 22.3119 7.99088L22.982 7.99163ZM22.9825 19.6736C22.9825 19.8738 22.9822 20.074 22.9819 20.274L22.3118 20.273C22.312 20.073 22.3123 19.8733 22.3123 19.6736H22.9825ZM22.9819 19.0808C22.9822 19.2782 22.9825 19.4759 22.9825 19.6736H22.3123C22.3123 19.4764 22.3121 19.2791 22.3118 19.0817L22.9819 19.0808ZM22.9858 17.3828C22.9805 17.9476 22.9812 18.513 22.9819 19.0808L22.3118 19.0817C22.3111 18.5145 22.3103 17.9455 22.3157 17.3765L22.9858 17.3828ZM22.4555 16.8374C22.5529 16.8369 22.7448 16.8464 22.8766 17.0061C22.9389 17.0816 22.9636 17.1634 22.9746 17.2238C22.9852 17.2822 22.9862 17.3394 22.9858 17.3829L22.3157 17.3764C22.316 17.3447 22.3143 17.3384 22.3153 17.3437C22.3167 17.3511 22.3247 17.3902 22.3597 17.4326C22.3975 17.4785 22.4417 17.498 22.4654 17.5049C22.4833 17.5102 22.4863 17.5074 22.4593 17.5075L22.4555 16.8374ZM17.8482 16.8384C19.3842 16.8436 20.9204 16.8441 22.456 16.8374L22.4589 17.5075C20.9212 17.5142 19.3832 17.5137 17.8459 17.5085L17.8482 16.8384ZM17.3048 17.3773C17.3045 17.2833 17.3135 17.1037 17.4548 16.9704C17.5907 16.8422 17.7654 16.8381 17.8481 16.8384L17.8461 17.5085C17.8188 17.5084 17.8162 17.5106 17.8263 17.5082C17.8395 17.505 17.877 17.4934 17.9148 17.4577C17.9535 17.4212 17.9685 17.3822 17.9735 17.364C17.9773 17.35 17.9748 17.3495 17.9749 17.3753L17.3048 17.3773ZM17.3048 22.0028C17.31 20.4608 17.31 18.9189 17.3048 17.3774L17.9749 17.3752C17.9802 18.9181 17.9802 20.4616 17.9749 22.0051L17.3048 22.0028ZM17.8228 22.5184C17.7523 22.5186 17.5773 22.518 17.4437 22.3881C17.3071 22.2555 17.3045 22.078 17.3048 22.0028L17.9749 22.005C17.9748 22.0292 17.9769 22.0269 17.9731 22.0117C17.9683 21.9924 17.953 21.9487 17.9106 21.9075C17.8687 21.8668 17.8259 21.8534 17.8092 21.8495C17.796 21.8464 17.7954 21.8484 17.8205 21.8483L17.8228 22.5184ZM22.4687 22.5184C20.9199 22.5131 19.3711 22.5131 17.8228 22.5184L17.8205 21.8483C19.3704 21.843 20.9207 21.843 22.471 21.8483L22.4687 22.5184ZM22.9863 22.0035C22.987 22.0809 22.9849 22.2637 22.8408 22.3966C22.7058 22.5212 22.5309 22.5186 22.4687 22.5184L22.471 21.8483C22.4978 21.8484 22.4987 21.8466 22.4876 21.8489C22.4735 21.8519 22.4301 21.8638 22.3864 21.9041C22.3411 21.9459 22.3241 21.9918 22.3185 22.0136C22.3142 22.0307 22.3164 22.0343 22.3162 22.0101L22.9863 22.0035ZM22.9819 20.274C22.9811 20.8521 22.9802 21.428 22.9863 22.0033L22.3162 22.0103C22.3101 21.4303 22.3109 20.8504 22.3118 20.273L22.9819 20.274ZM20.1532 16.3629C19.9546 16.3629 19.756 16.3627 19.5576 16.3624L19.5586 15.6923C19.757 15.6925 19.9552 15.6928 20.1532 15.6928V16.3629ZM20.7324 16.3625C20.5395 16.3627 20.3464 16.3629 20.1532 16.3629V15.6928C20.346 15.6928 20.5388 15.6926 20.7317 15.6924L20.7324 16.3625ZM22.4651 16.3663C21.8884 16.3613 21.3115 16.3619 20.7324 16.3625L20.7317 15.6924C21.3102 15.6918 21.8904 15.6911 22.4709 15.6962L22.4651 16.3663ZM22.9863 15.8536C22.9865 15.935 22.9815 16.1174 22.8353 16.2485C22.6998 16.3701 22.5267 16.3667 22.4656 16.3663L22.4703 15.6962C22.4969 15.6964 22.498 15.6946 22.4873 15.6968C22.4739 15.6996 22.4313 15.7107 22.3879 15.7497C22.3426 15.7903 22.3248 15.8355 22.3187 15.8579C22.314 15.8756 22.3163 15.8796 22.3162 15.8557L22.9863 15.8536ZM22.9863 11.2093C22.9801 12.7573 22.9801 14.3053 22.9863 15.8533L22.3162 15.856C22.3099 14.3062 22.3099 12.7564 22.3162 11.2066L22.9863 11.2093ZM22.4653 10.6972C22.5215 10.697 22.6925 10.6927 22.8279 10.8087C22.9794 10.9385 22.9866 11.1229 22.9863 11.209L22.3162 11.2068C22.3162 11.1835 22.3139 11.1888 22.3193 11.208C22.3263 11.2325 22.3457 11.278 22.392 11.3177C22.4356 11.355 22.4772 11.3649 22.4886 11.3671C22.4975 11.3689 22.4951 11.3673 22.4677 11.3674L22.4653 10.6972ZM17.8384 10.6963C19.3807 10.7025 20.9227 10.7015 22.4656 10.6972L22.4675 11.3674C20.9237 11.3717 19.38 11.3726 17.8357 11.3664L17.8384 10.6963ZM17.3043 11.2386C17.3041 11.1674 17.3033 10.9917 17.4256 10.854C17.5589 10.704 17.7448 10.6957 17.8389 10.6963L17.8351 11.3664C17.8084 11.3662 17.81 11.3689 17.8259 11.3644C17.8467 11.3587 17.8888 11.3415 17.9266 11.299C17.9626 11.2585 17.9725 11.2198 17.9747 11.2096C17.9763 11.202 17.9743 11.2067 17.9744 11.2365L17.3043 11.2386ZM17.3043 15.8261C17.31 14.2972 17.31 12.7683 17.3043 11.2388L17.9744 11.2363C17.9802 12.7674 17.9802 14.298 17.9744 15.8286L17.3043 15.8261ZM17.8424 16.3667C17.751 16.3678 17.5674 16.3617 17.4326 16.2167C17.3055 16.0799 17.3041 15.9033 17.3043 15.8264L17.9744 15.8284C17.9743 15.8571 17.9764 15.8605 17.9743 15.8513C17.9716 15.8392 17.9604 15.8002 17.9235 15.7605C17.8853 15.7194 17.8439 15.7036 17.8243 15.6984C17.8093 15.6945 17.8082 15.697 17.8345 15.6967L17.8424 16.3667ZM19.5576 16.3624C18.9841 16.3615 18.4127 16.3607 17.842 16.3667L17.8349 15.6967C18.4103 15.6906 18.9857 15.6914 19.5586 15.6923L19.5576 16.3624Z" fill="#00C2FE"/>
</svg>
