<svg width="30" height="30" viewBox="0 0 30 30" fill="none" xmlns="http://www.w3.org/2000/svg">
<path d="M12.4707 14.2488C12.4707 14.2488 12.4446 9.00771 12.4707 6.38717C12.4707 5.78968 12.3922 5.14503 12.8266 4.59472C13.0324 4.34561 13.3072 4.16295 13.6163 4.06971C13.9255 3.97646 14.2552 3.97677 14.5642 4.07061C14.8712 4.16022 15.1419 4.34493 15.3375 4.59824C15.5331 4.85154 15.6435 5.1604 15.6528 5.48046C15.6528 8.43643 15.6528 11.3907 15.6528 14.3431V14.7572H15.7156C15.9302 14.0339 16.1396 13.3054 16.3542 12.5769L18.1441 6.34524C18.2278 6.04901 18.4041 5.78742 18.6471 5.59879C18.8901 5.41016 19.187 5.30441 19.4944 5.29702C19.7595 5.2565 20.0307 5.29154 20.2769 5.39813C20.5231 5.50472 20.7344 5.67855 20.8866 5.89975C20.7783 6.04564 20.7097 6.21722 20.6877 6.39765C19.8869 9.41652 19.1176 12.4354 18.3011 15.449C18.1593 16.2531 18.1083 17.0706 18.1493 17.8861C18.1493 18.0433 18.1912 18.1901 17.9347 18.253C17.0638 18.4474 16.2525 18.849 15.5693 19.4237C14.886 19.9984 14.351 20.7294 14.0094 21.5549C13.688 22.2377 13.5286 22.9857 13.5436 23.7404C13.5436 24.0025 13.6954 24.1073 13.9466 24.1073C14.1979 24.1073 14.2345 23.9658 14.2502 23.7561C14.2565 23.0478 14.416 22.3494 14.7178 21.7088C15.0195 21.0682 15.4564 20.5007 15.9983 20.0454C16.8222 19.2813 17.9056 18.8597 19.0286 18.8662C19.1716 18.8825 19.3164 18.8628 19.4499 18.8088C19.5833 18.7547 19.7012 18.6682 19.7927 18.557C20.4001 18.0145 20.9475 17.4083 21.4256 16.7488C22.3311 15.6586 23.3307 14.9616 24.7543 14.9616C25.0153 14.9546 25.2711 15.0355 25.4808 15.1914C25.6905 15.3472 25.842 15.5689 25.9109 15.8211C25.8553 15.8548 25.8028 15.8934 25.7539 15.9364C24.4664 17.2205 23.2208 18.557 21.9699 19.8672C20.7191 21.1775 19.3531 22.5454 18.0394 23.8819C17.9724 23.9418 17.9007 23.9962 17.8248 24.0444C16.5372 24.9661 14.954 25.3769 13.3814 25.1974C12.5898 25.1315 11.8208 24.9002 11.1239 24.5183C10.4271 24.1364 9.81793 23.6126 9.33572 22.9804C8.47696 21.8956 8.03668 20.5375 8.09533 19.1545C8.08884 18.7009 8.04508 18.2486 7.96448 17.8023C7.70803 16.2299 6.91774 14.8882 6.11174 13.5517C5.5308 12.6031 4.97602 11.6178 4.41602 10.6429C4.51521 10.488 4.64727 10.3569 4.8028 10.2589C4.95833 10.1609 5.13351 10.0985 5.31589 10.0759C5.49826 10.0534 5.68335 10.0714 5.85799 10.1287C6.03263 10.1859 6.19253 10.281 6.32633 10.4071C6.72828 10.8479 7.05695 11.3504 7.2998 11.8955C7.94878 13.0014 8.57683 14.1178 9.21535 15.2289C9.24151 15.2813 9.30432 15.318 9.35142 15.3651C9.42993 15.5381 9.52937 15.7111 9.74919 15.6324C9.84231 15.6002 9.92213 15.538 9.97612 15.4555C10.0301 15.373 10.0552 15.2748 10.0475 15.1765C10.0442 15.0333 10.0249 14.8909 9.98994 14.7519C9.37759 12.4773 8.76525 10.2079 8.17383 7.93853C8.08583 7.72917 8.04206 7.50383 8.04528 7.27671C8.0485 7.04958 8.09864 6.82558 8.19254 6.6188C8.28644 6.41203 8.42207 6.22696 8.5909 6.07525C8.75972 5.92353 8.95807 5.80846 9.17348 5.73727C9.4799 5.7703 9.76755 5.9013 9.9938 6.11088C10.22 6.32045 10.3729 6.59744 10.4296 6.90079C11.089 9.34838 12.3922 14.2383 12.3922 14.2383L12.4446 14.275L12.4707 14.2488Z" fill="#FEE4CC"/>
<path d="M4.41655 10.6406C4.97656 11.6155 5.53134 12.6008 6.10705 13.5704C6.90781 14.9069 7.70334 16.2486 7.95979 17.8209C8.04076 18.2603 8.08626 18.7055 8.09587 19.1521C8.04104 20.6446 8.55784 22.1015 9.5405 23.2249C10.5232 24.3482 11.8974 25.0531 13.3819 25.1951C14.955 25.3701 16.5372 24.9576 17.8254 24.0368C17.9014 23.987 17.9732 23.9309 18.04 23.8691C19.3536 22.5326 20.6568 21.2119 21.9705 19.8545C23.2842 18.497 24.467 17.2077 25.7545 15.9236C25.8033 15.8806 25.8558 15.842 25.9115 15.8083C26.0022 16.017 26.0268 16.2485 25.9819 16.4716C25.9369 16.6947 25.8247 16.8986 25.6603 17.0557C24.6711 18.1039 23.6714 19.1521 22.677 20.2004C21.4733 21.4739 20.2957 22.779 19.0605 24.0264C18.0216 25.1244 16.6146 25.8 15.1091 25.9236C13.8717 26.076 12.6169 25.996 11.4088 25.6878C10.4002 25.341 9.50258 24.7306 8.80875 23.9196C8.11492 23.1087 7.65016 22.1268 7.46259 21.0756C7.34744 20.1794 7.39455 19.2675 7.21137 18.3712C6.91424 17.0921 6.3952 15.8752 5.67788 14.7758C5.17196 13.9198 4.68173 13.055 4.20721 12.1815C4.04382 11.9448 3.97471 11.6555 4.01344 11.3704C4.05218 11.0853 4.19596 10.825 4.41655 10.6406Z" fill="#F8CFAE"/>
<path d="M19.8116 18.5545C19.7197 18.6636 19.6024 18.7484 19.47 18.8015C19.3377 18.8545 19.1944 18.8741 19.0527 18.8585C17.9285 18.8539 16.8441 19.2751 16.0171 20.0377C15.4753 20.493 15.0384 21.0605 14.7366 21.7011C14.4348 22.3417 14.2753 23.0402 14.269 23.7484C14.269 23.9581 14.2167 24.1048 13.9655 24.0996C13.7143 24.0943 13.573 23.9948 13.5625 23.738C13.5475 22.9815 13.7069 22.2319 14.0283 21.5472C14.3691 20.7217 14.9039 19.9909 15.5873 19.4169C16.2708 18.843 17.0825 18.4428 17.9536 18.2505C18.21 18.1824 18.1629 18.0357 18.1682 17.8784C18.1272 17.0629 18.1781 16.2454 18.3199 15.4413C19.1259 12.4277 19.8901 9.40883 20.7065 6.3952C20.7222 6.20522 20.7911 6.02354 20.9054 5.87109C21.0625 6.08636 21.1675 6.33527 21.212 6.59815C21.2565 6.86103 21.2393 7.13067 21.1619 7.38577C20.7693 8.87424 20.3663 10.3575 19.9686 11.8459C19.6231 13.1457 19.2516 14.435 18.9218 15.7401C18.8003 16.4836 18.7862 17.2409 18.88 17.9885C18.9271 18.3816 19.2777 18.5493 19.8116 18.5545Z" fill="#F8CFAE"/>
<path d="M9.17994 5.74186C8.20123 6.2188 7.89244 6.84773 8.20123 7.93263C8.79265 10.2073 9.41023 12.4819 10.0226 14.746C10.0529 14.8857 10.0704 15.0278 10.0749 15.1706C10.0855 15.2694 10.0616 15.3688 10.0072 15.452C9.95278 15.5351 9.8713 15.5968 9.77659 15.6265C9.55677 15.7104 9.45733 15.5322 9.37882 15.3592C9.22705 14.4473 8.93396 13.5773 8.70367 12.6863C8.25357 11.0354 7.81394 9.37917 7.36384 7.73347C7.09692 6.76387 7.88198 5.52697 9.02293 5.73138C9.07527 5.74186 9.1276 5.73662 9.17994 5.74186Z" fill="#F8CFAE"/>
</svg>
