<svg width="30" height="30" viewBox="0 0 30 30" fill="none" xmlns="http://www.w3.org/2000/svg">
<path d="M18.2357 17.5154C17.9187 17.1609 17.7636 16.7095 17.5095 16.3173C17.4641 16.2472 17.4269 16.172 17.3859 16.0991C17.4604 16.0783 17.5464 16.0979 17.608 16.0325C17.6866 16.0132 17.724 15.9442 17.7782 15.8953C18.0047 16.3033 18.2312 16.7114 18.4577 17.1194C18.4708 17.1433 18.4942 17.1452 18.5189 17.1408C18.5317 17.1859 18.5443 17.2307 18.5571 17.2759C18.4927 17.3156 18.4823 17.3768 18.4846 17.443C18.4018 17.4673 18.3186 17.4914 18.2357 17.5154Z" fill="#DDE0E0"/>
<path d="M6.2422 10.3937C6.65729 10.6236 7.04867 10.8897 7.4498 11.1408C8.59435 11.858 9.73532 12.5808 10.8782 13.3004C11.1795 13.49 11.4832 13.6771 11.7857 13.8652C12.0789 14.0612 12.3743 14.2541 12.6831 14.4265C12.9825 14.6191 13.2801 14.8141 13.5812 15.0043C14.6869 15.7026 15.7942 16.399 16.9006 17.0968C16.9123 17.1043 16.922 17.1147 16.9325 17.1238C14.3035 17.8857 11.6741 18.6478 9.04502 19.4098C9.00819 19.4204 8.97182 19.4314 8.93478 19.4413C8.84386 19.4665 8.78776 19.4329 8.76345 19.3453C8.75113 19.3001 8.73817 19.2556 8.72548 19.2105C8.95165 19.145 9.02975 19.0616 8.99708 18.9203C8.9635 18.7757 8.8414 18.7398 8.61154 18.8064C8.57103 18.6627 8.53051 18.519 8.49 18.3753C8.61782 18.3382 8.74635 18.3037 8.87326 18.2634C9.00191 18.2222 9.06397 18.1201 9.03724 18.0055C9.01007 17.8879 8.89531 17.8257 8.75984 17.8611C8.631 17.8945 8.50399 17.9345 8.37617 17.9715C8.33565 17.8278 8.29513 17.6841 8.25462 17.5404C8.29587 17.5284 8.33821 17.5189 8.37819 17.5038C8.49031 17.4619 8.55603 17.3389 8.51366 17.2296C8.47171 17.1217 8.38594 17.0733 8.26466 17.1011C8.22269 17.1105 8.18194 17.1243 8.14069 17.1362C8.10017 16.9925 8.05965 16.8488 8.01914 16.7051C8.25784 16.6359 8.30819 16.5785 8.26727 16.422C8.22408 16.2561 8.14806 16.231 7.90521 16.301C7.86469 16.1573 7.82417 16.0136 7.78366 15.8698C7.91148 15.8328 8.04002 15.7983 8.16693 15.758C8.29558 15.7168 8.35773 15.615 8.3309 15.5001C8.30373 15.3825 8.18897 15.3203 8.0535 15.3557C7.92466 15.3891 7.79765 15.429 7.66983 15.4661C7.62931 15.3224 7.5888 15.1786 7.54828 15.0349C7.77262 14.9699 7.84361 14.8769 7.78798 14.722C7.73793 14.5826 7.66579 14.5641 7.43435 14.6308C7.39383 14.4871 7.35332 14.3434 7.3128 14.1997C7.52424 14.1384 7.59688 14.0554 7.56083 13.9162C7.52241 13.7672 7.41694 13.7323 7.19887 13.7955C7.15835 13.6518 7.11784 13.5081 7.07732 13.3644C7.20588 13.3271 7.33525 13.2928 7.4628 13.2519C7.59282 13.2099 7.63436 13.1297 7.60099 13.0015C7.56529 12.8649 7.48605 12.8142 7.34937 12.8496C7.2197 12.8829 7.09205 12.9234 6.96349 12.9606C6.92298 12.8169 6.88246 12.6732 6.84158 12.5296C7.03008 12.4746 7.14083 12.3501 7.1121 12.2256C7.08282 12.0977 6.91399 12.043 6.71986 12.0993C6.561 11.5301 6.4016 10.9619 6.2422 10.3937ZM9.11399 15.8439C9.27971 16.4317 9.44543 17.0195 9.61115 17.6073C9.66233 17.7889 9.6723 17.7946 9.85832 17.7406C10.8913 17.4416 11.9238 17.142 12.9567 16.8427C12.9887 16.8334 13.0229 16.8274 13.0521 16.8123C13.1361 16.7696 13.1514 16.7122 13.078 16.6485C13.0464 16.6211 13.0084 16.6009 12.9726 16.5786C11.5828 15.7023 10.193 14.826 8.80295 13.9505C8.74916 13.9166 8.69471 13.8592 8.62441 13.9123C8.55913 13.962 8.6025 14.0254 8.61767 14.0806C8.78218 14.6684 8.94827 15.2561 9.11399 15.8439Z" fill="#B6E446"/>
<path d="M8.79593 19.2282C8.80853 19.2724 8.82139 19.3161 8.83362 19.3603C8.85738 19.4463 8.91341 19.4792 9.00365 19.4545C9.04031 19.4444 9.0765 19.434 9.11305 19.4235C11.7222 18.6766 14.3316 17.9295 16.9407 17.1825C17.0526 17.2418 17.0697 17.3446 17.0547 17.4528C17.0391 17.5619 16.9693 17.6357 16.859 17.6692C16.8274 17.679 16.7957 17.6885 16.7635 17.6977C14.1482 18.4464 11.5329 19.1952 8.91755 19.944C8.89013 19.9518 8.86291 19.9604 8.83546 19.9667C8.65358 20.0111 8.52674 19.9478 8.47348 19.7778C8.42972 19.6383 8.39463 19.4959 8.35598 19.355C8.50201 19.3124 8.64897 19.2703 8.79593 19.2282Z" fill="#AAD541"/>
<path d="M12.4767 6.10586C12.5454 6.08748 12.6168 6.07536 12.6831 6.04953C13.0839 5.89255 13.607 6.20917 13.5942 6.7418C13.5848 7.11784 13.5667 7.49371 13.5534 7.86974C13.5517 7.91575 13.5575 7.96189 13.5598 8.00791C13.5541 8.02861 13.5487 8.04921 13.5432 8.07028C13.1497 8.18429 12.7565 8.29902 12.363 8.41268C12.1556 8.47241 12.0444 8.43656 11.9273 8.26244C11.6486 7.84777 11.3753 7.42997 11.0945 7.01666C11.0305 6.92242 10.9843 6.81214 10.8818 6.74618C10.9618 6.59698 11.0932 6.51419 11.2517 6.46553C11.3286 6.44208 11.4047 6.41729 11.4813 6.39276C11.8131 6.29701 12.1448 6.20125 12.4767 6.10586ZM12.4554 7.92196C12.6863 7.85386 12.8231 7.61549 12.7592 7.39172C12.6947 7.16543 12.4581 7.04031 12.2239 7.10818C11.9924 7.17567 11.853 7.41634 11.9179 7.63788C11.9831 7.86087 12.2266 7.98943 12.4554 7.92196Z" fill="#F0F1F1"/>
<path d="M13.5544 8.09709C13.5601 8.07625 13.5655 8.05552 13.5712 8.03432C13.689 8.20619 13.7867 8.38897 13.8813 8.57417C13.888 8.70999 13.78 8.78265 13.7001 8.86556C13.6325 8.93633 13.621 9.00226 13.6613 9.08184C13.6886 9.13579 13.7181 9.18873 13.7482 9.24109C14.2234 10.0754 14.6982 10.9098 15.1736 11.7436C15.7741 12.7961 16.3756 13.8476 16.9765 14.9C17.1866 15.2684 17.3956 15.637 17.6054 16.0058C17.5439 16.0713 17.4571 16.0517 17.3822 16.0725C17.1826 16.0534 17.0596 15.9413 16.966 15.7742C16.527 14.9925 16.0819 14.2145 15.6387 13.4351C15.625 13.4109 15.6064 13.3893 15.59 13.3666C15.5237 13.2476 15.457 13.1287 15.3907 13.0097C15.3145 12.8767 15.2385 12.7432 15.1622 12.6102C14.575 11.575 13.9858 10.5411 13.4017 9.50422C13.2578 9.2487 13.0897 9.006 12.9818 8.73148C13.3706 8.63929 13.5399 8.45192 13.5544 8.09709Z" fill="#D83926"/>
<path d="M17.6016 16.0094C17.3922 15.6408 17.1831 15.2718 16.9726 14.9035C16.3717 13.8514 15.7701 12.7996 15.1695 11.747C14.6936 10.9133 14.2188 10.0788 13.7439 9.2444C13.7142 9.19193 13.6843 9.13909 13.657 9.08514C13.6167 9.00556 13.6281 8.93927 13.6958 8.86886C13.7756 8.78558 13.8837 8.71292 13.8771 8.57746C14.2588 9.24227 14.6417 9.90676 15.0217 10.5725C15.9332 12.1702 16.8418 13.7691 17.7557 15.3653C17.8537 15.5367 17.8645 15.6983 17.7722 15.8721C17.7181 15.921 17.6806 15.9901 17.6016 16.0094Z" fill="#EE5329"/>
<path d="M12.6647 14.4318C12.3536 14.2587 12.0561 14.0654 11.7608 13.8683C11.7355 13.078 11.7113 12.2875 11.6853 11.4974C11.6533 10.5245 11.6197 9.5516 11.5868 8.57851C11.8918 8.94573 12.0524 8.99831 12.4671 8.86679C12.4887 9.01975 12.4915 9.17424 12.4854 9.32892C12.4018 9.35112 12.3173 9.3943 12.235 9.39147C12.0732 9.38541 12.04 9.4568 12.047 9.59638C12.0676 10.0199 12.0807 10.4436 12.0951 10.8674C12.1232 11.7104 12.1503 12.5538 12.1773 13.3971C12.1793 13.4638 12.1782 13.5408 12.2337 13.578C12.3641 13.6659 12.4837 13.7737 12.6413 13.8185C12.6507 13.9398 12.6599 14.0615 12.6693 14.1828C12.6675 14.2659 12.6661 14.3488 12.6647 14.4318Z" fill="#D83926"/>
<path d="M12.426 8.86313C12.0146 8.99404 11.855 8.94179 11.5528 8.57614C11.3822 8.31684 11.2101 8.05831 11.0415 7.79765C10.9413 7.6429 10.8185 7.50094 10.7728 7.31484C10.7224 7.10944 10.7483 6.91892 10.8803 6.74441C10.9828 6.81009 11.0291 6.9205 11.0931 7.01486C11.3742 7.42866 11.6479 7.84734 11.9269 8.26214C12.0442 8.43648 12.1555 8.47273 12.3631 8.41257C12.7571 8.2988 13.1508 8.1843 13.5445 8.06981C13.5302 8.42283 13.3626 8.60924 12.9771 8.70071C12.7934 8.75513 12.6099 8.80907 12.426 8.86313Z" fill="#DDE0E0"/>
<path d="M12.4674 6.08557C12.134 6.18172 11.8004 6.2775 11.467 6.37364C11.3204 5.85966 11.1671 5.3476 11.0311 4.83052C10.979 4.63163 11.1032 4.51522 11.3881 4.45109C11.5021 4.85503 11.6183 5.25834 11.7294 5.66314C11.7608 5.77743 11.822 5.81438 11.939 5.777C12.0757 5.73312 12.2145 5.69646 12.3523 5.65656C12.3972 5.7974 12.4475 5.93746 12.4674 6.08557Z" fill="#D83C2A"/>
<path d="M14.566 13.6617C14.5923 13.7615 14.6208 13.8605 14.6444 13.9607C14.7023 14.2072 14.5686 14.4207 14.3139 14.4909C14.1045 13.753 13.895 13.0152 13.6856 12.2774C13.937 12.2015 14.1638 12.3117 14.244 12.5517C14.2766 12.6493 14.3047 12.7485 14.3347 12.8471C14.4118 13.1187 14.4889 13.3902 14.566 13.6617Z" fill="#EE5329"/>
<path d="M13.7001 12.271C13.9096 13.0089 14.1192 13.7468 14.3288 14.4848C14.1194 14.5372 13.9215 14.4512 13.8364 14.2583C13.7858 14.144 13.754 14.0219 13.7139 13.9034C13.6485 13.6293 13.5717 13.3588 13.4832 13.0913C13.4549 12.9647 13.4164 12.839 13.4002 12.7109C13.3747 12.5103 13.5015 12.3348 13.7001 12.271Z" fill="#D83C2A"/>
<path d="M12.3465 5.6586C12.2083 5.69855 12.0688 5.73535 11.9322 5.77917C11.8151 5.81695 11.7537 5.77996 11.7221 5.66519C11.6104 5.26006 11.4943 4.85621 11.38 4.45183C11.4807 4.42114 11.5801 4.38576 11.6821 4.36096C11.8473 4.32023 11.9912 4.39588 12.038 4.55554C12.1444 4.92231 12.2438 5.29112 12.3465 5.6586Z" fill="#EE5329"/>
<path d="M6.24785 10.3304C6.40885 10.9013 6.56937 11.472 6.73037 12.0429C6.58119 12.0859 6.43191 12.1285 6.28273 12.1715C6.13837 11.6678 5.99401 11.1642 5.84993 10.66C5.81673 10.5443 5.84905 10.4454 5.94496 10.3692C6.0374 10.2964 6.13759 10.2608 6.24785 10.3304Z" fill="#AAD541"/>
<path d="M14.5601 13.666C14.484 13.3965 14.408 13.127 14.332 12.8574C14.4589 12.821 14.5862 12.7846 14.7132 12.7485C14.7396 12.842 14.7685 12.9347 14.7919 13.0289C14.8192 13.1384 14.8851 13.1676 14.9923 13.1334C15.1277 13.0903 15.2646 13.0514 15.401 13.0107C15.4666 13.1289 15.5325 13.247 15.598 13.3653C15.2522 13.4655 14.9063 13.5657 14.5601 13.666Z" fill="#DDE0E0"/>
<path d="M13.4878 13.0909C13.575 13.3563 13.6507 13.6248 13.7151 13.8969C13.3697 13.9946 13.024 14.0925 12.6786 14.1902C12.6693 14.0697 12.6602 13.9487 12.6509 13.8282C12.6568 13.8167 12.6631 13.8052 12.669 13.7938C12.8009 13.7555 12.9322 13.7148 13.0649 13.6794C13.1741 13.6505 13.2141 13.5907 13.1802 13.4835C13.1513 13.3909 13.1272 13.2968 13.1009 13.2037C13.2301 13.1655 13.3587 13.1282 13.4878 13.0909Z" fill="#DDE0E0"/>
<path d="M7.34872 14.1605C7.3892 14.3041 7.42968 14.4477 7.47016 14.5913C7.32259 14.6341 7.17465 14.677 7.02698 14.7194C6.9866 14.5761 6.94612 14.4326 6.90537 14.2894C7.05331 14.2465 7.20088 14.2038 7.34872 14.1605Z" fill="#AAD541"/>
<path d="M8.07235 16.6859C8.11283 16.8295 8.15331 16.9731 8.19379 17.1167C8.04585 17.1596 7.89829 17.2024 7.75025 17.2449C7.70987 17.1016 7.66939 16.958 7.62901 16.8148C7.77694 16.7719 7.92441 16.7288 8.07235 16.6859Z" fill="#AAD541"/>
<path d="M7.58602 15.0023C7.6265 15.1459 7.66698 15.2895 7.70746 15.4331C7.55989 15.4759 7.41232 15.5187 7.26429 15.5612C7.22381 15.4176 7.18306 15.2745 7.14258 15.1309C7.29062 15.0883 7.43808 15.0452 7.58602 15.0023Z" fill="#AAD541"/>
<path d="M6.863 12.477C6.90348 12.6206 6.94396 12.7642 6.98481 12.9077C6.83687 12.9506 6.6892 12.993 6.54126 13.0359C6.50078 12.8923 6.46077 12.749 6.42029 12.6054C6.56796 12.563 6.71543 12.5198 6.863 12.477Z" fill="#AAD541"/>
<path d="M8.31393 17.5276C8.35441 17.6712 8.39489 17.8148 8.43537 17.9584C8.28743 18.0013 8.13939 18.0438 7.99183 18.0866C7.95145 17.9433 7.91097 17.7997 7.87022 17.6566C8.01805 17.6134 8.16599 17.5705 8.31393 17.5276Z" fill="#AAD541"/>
<path d="M6.86093 12.4759C6.71336 12.5187 6.56589 12.5618 6.41832 12.6046C6.37784 12.461 6.33736 12.3174 6.29688 12.1738C6.44445 12.1311 6.59212 12.0886 6.73969 12.0459C6.78007 12.1891 6.82045 12.3323 6.86093 12.4759Z" fill="#9EC53D"/>
<path d="M8.55807 18.3694C8.59855 18.513 8.63903 18.6566 8.67951 18.8002C8.53157 18.8431 8.38353 18.8856 8.2356 18.9285C8.19522 18.7852 8.15474 18.6416 8.11436 18.4984C8.26219 18.4552 8.41013 18.4123 8.55807 18.3694Z" fill="#AAD541"/>
<path d="M7.10323 13.3188C7.14371 13.4624 7.18419 13.606 7.22468 13.7496C7.07711 13.7924 6.92917 13.8353 6.7815 13.8777C6.74102 13.7341 6.70064 13.5909 6.66016 13.4473C6.80783 13.4049 6.95576 13.362 7.10323 13.3188Z" fill="#AAD541"/>
<path d="M7.82723 15.8441C7.86771 15.9877 7.90819 16.1313 7.94867 16.2749C7.8011 16.3177 7.65317 16.3606 7.5055 16.403C7.46502 16.2594 7.42427 16.1163 7.38379 15.9727C7.53183 15.9301 7.67929 15.887 7.82723 15.8441Z" fill="#AAD541"/>
<path d="M7.50623 16.4042C7.65374 16.3614 7.80162 16.3186 7.94924 16.2762C7.98717 16.4107 8.0251 16.5453 8.06303 16.6798C7.91515 16.7227 7.76763 16.7654 7.61985 16.8087C7.58182 16.6737 7.54426 16.5391 7.50623 16.4042Z" fill="#9EC53D"/>
<path d="M7.09906 13.3123C6.95155 13.355 6.80366 13.3979 6.65625 13.441C6.61832 13.3065 6.58029 13.1715 6.54199 13.0371C6.68987 12.9942 6.83749 12.9519 6.98537 12.909C7.0232 13.0432 7.06113 13.1777 7.09906 13.3123Z" fill="#9EC53D"/>
<path d="M8.30852 17.5215C8.16063 17.5644 8.01285 17.6076 7.86497 17.6504C7.82694 17.5155 7.78938 17.3809 7.75134 17.246C7.89923 17.2031 8.04674 17.1604 8.19472 17.1179C8.23265 17.2524 8.27058 17.387 8.30852 17.5215Z" fill="#9EC53D"/>
<path d="M8.54973 18.3594C8.40184 18.4023 8.25406 18.4455 8.10618 18.4883C8.06815 18.3534 8.03059 18.2188 7.99256 18.0839C8.14044 18.041 8.28805 17.9986 8.43594 17.9558C8.47387 18.0903 8.5118 18.2248 8.54973 18.3594Z" fill="#9EC53D"/>
<path d="M7.82562 15.8377C7.67774 15.8805 7.53023 15.9233 7.38245 15.9665C7.34452 15.8319 7.30685 15.6969 7.26892 15.5624C7.41644 15.5196 7.56395 15.4769 7.71193 15.4344C7.74976 15.5686 7.78769 15.7031 7.82562 15.8377Z" fill="#9EC53D"/>
<path d="M7.58539 14.9959C7.43751 15.0387 7.28999 15.0815 7.14221 15.1247C7.10428 14.9902 7.06625 14.8552 7.02832 14.7207C7.17583 14.6779 7.32372 14.6351 7.47133 14.5927C7.50953 14.7268 7.54746 14.8613 7.58539 14.9959Z" fill="#9EC53D"/>
<path d="M8.2334 18.9258C8.38128 18.8829 8.52926 18.8404 8.67715 18.7976C8.71508 18.9321 8.75301 19.0666 8.79094 19.2012C8.64306 19.2441 8.49564 19.2872 8.34776 19.33C8.30936 19.1952 8.27133 19.0603 8.2334 18.9258Z" fill="#9EC53D"/>
<path d="M6.78748 13.8827C6.93499 13.84 7.08288 13.7971 7.23049 13.7547C7.26842 13.8892 7.30635 14.0238 7.34428 14.1583C7.1964 14.2012 7.04889 14.2439 6.9011 14.2872C6.86307 14.1523 6.82541 14.0173 6.78748 13.8827Z" fill="#9EC53D"/>
<path d="M7.8229 15.8453C7.78503 15.711 7.74716 15.5768 7.70929 15.4425C7.83674 15.4056 7.96338 15.3658 8.09184 15.3324C8.22692 15.2972 8.34098 15.3593 8.36844 15.4764C8.39519 15.591 8.33332 15.6928 8.20495 15.7335C8.07851 15.774 7.95035 15.8084 7.8229 15.8453Z" fill="#AAD541"/>
<path d="M8.54947 18.3668C8.5116 18.2325 8.47372 18.0982 8.43585 17.964C8.5633 17.9271 8.68994 17.8873 8.81841 17.8539C8.95348 17.8187 9.06791 17.8807 9.095 17.9979C9.12176 18.1125 9.05952 18.2144 8.93151 18.2549C8.80507 18.2955 8.67692 18.3299 8.54947 18.3668Z" fill="#AAD541"/>
<path d="M7.09636 13.32C7.05849 13.1857 7.02061 13.0514 6.98273 12.9171C7.11094 12.88 7.23834 12.8399 7.36756 12.8064C7.50433 12.7714 7.58325 12.8216 7.6185 12.9578C7.65178 13.0857 7.61035 13.1657 7.48069 13.2075C7.35369 13.249 7.22457 13.2829 7.09636 13.32Z" fill="#AAD541"/>
<path d="M6.85487 12.4776C6.81431 12.3338 6.77385 12.1903 6.7334 12.0469C6.92733 11.9907 7.09669 12.0453 7.126 12.1733C7.15402 12.2982 7.04317 12.4227 6.85487 12.4776Z" fill="#AAD541"/>
<path d="M8.79076 19.209C8.75276 19.0743 8.71476 18.9395 8.67676 18.8047C8.90674 18.738 9.029 18.7743 9.0625 18.9186C9.09519 19.06 9.01706 19.1435 8.79076 19.209Z" fill="#AAD541"/>
<path d="M8.3056 17.5222C8.2676 17.3874 8.22959 17.2526 8.19158 17.1178C8.23287 17.1058 8.27364 17.0921 8.31564 17.0826C8.437 17.0549 8.52282 17.1033 8.56481 17.2112C8.60721 17.3206 8.54135 17.4434 8.42925 17.4856C8.38915 17.5003 8.34689 17.5102 8.3056 17.5222Z" fill="#AAD541"/>
<path d="M8.06426 16.6838C8.02624 16.549 7.98822 16.4141 7.9502 16.2793C8.19357 16.2088 8.2694 16.2344 8.31264 16.4005C8.35361 16.5571 8.30321 16.6146 8.06426 16.6838Z" fill="#AAD541"/>
<path d="M7.58184 15.0041C7.54381 14.8693 7.50579 14.7344 7.46777 14.5996C7.69934 14.5325 7.77166 14.5513 7.82177 14.6908C7.87757 14.8463 7.8064 14.939 7.58184 15.0041Z" fill="#AAD541"/>
<path d="M7.34063 14.1584C7.30261 14.0236 7.26458 13.8887 7.22656 13.7539C7.44486 13.6907 7.55054 13.7259 7.58891 13.8747C7.6251 14.0144 7.55229 14.0971 7.34063 14.1584Z" fill="#AAD541"/>
<path d="M12.4558 7.91903C12.2268 7.98655 11.983 7.85749 11.9178 7.63465C11.8529 7.41289 11.992 7.1721 12.2241 7.10445C12.4584 7.03616 12.6953 7.16177 12.7599 7.38828C12.8239 7.61227 12.687 7.85123 12.4558 7.91903Z" fill="#EE5329"/>
<path d="M14.7113 12.7487C14.8652 12.7037 15.0192 12.6591 15.173 12.6142C15.2485 12.7462 15.3236 12.8788 15.399 13.0108C15.263 13.0514 15.1259 13.0899 14.9907 13.1334C14.8831 13.1677 14.8176 13.1385 14.7903 13.029C14.7662 12.9349 14.7376 12.8421 14.7113 12.7487Z" fill="#F0F1F1"/>
<path d="M12.4825 9.33255C12.5048 9.88517 12.5294 10.4375 12.5492 10.99C12.576 11.7303 12.5996 12.4707 12.6253 13.2113C12.6265 13.2485 12.6339 13.2859 12.6384 13.323C12.6318 13.4786 12.6353 13.6341 12.6567 13.7879C12.6507 13.7994 12.6444 13.811 12.6384 13.8225C12.4807 13.7777 12.3611 13.6698 12.2306 13.5819C12.1755 13.5446 12.1766 13.4676 12.1742 13.401C12.1471 12.5576 12.1202 11.7145 12.0919 10.8709C12.0775 10.4471 12.0647 10.0228 12.0437 9.59969C12.0368 9.46009 12.0704 9.38894 12.2319 9.39475C12.3143 9.39794 12.3989 9.35475 12.4825 9.33255Z" fill="#EE5329"/>
<path d="M12.6706 13.7913C12.6493 13.6381 12.646 13.484 12.6525 13.3293C12.8026 13.2866 12.9528 13.2439 13.103 13.2011C13.1293 13.2946 13.1531 13.3888 13.1823 13.481C13.2161 13.5882 13.1758 13.6481 13.067 13.6769C12.9337 13.712 12.8025 13.7528 12.6706 13.7913Z" fill="#F0F1F1"/>
<path d="M23.5053 9.05424C24.0152 9.24387 24.5259 9.43213 25.0351 9.62371C25.1995 9.68558 25.2759 9.85468 25.221 10.0175C25.2127 10.0422 25.2033 10.0661 25.1942 10.0905C24.159 12.8849 23.1237 15.6795 22.0882 18.4738C22.0736 18.5133 22.0567 18.5519 22.0409 18.5907C22.0006 18.5748 21.9604 18.5584 21.9197 18.5433C21.4166 18.3554 20.9133 18.1679 20.4102 17.98C20.2738 17.9291 20.2439 17.8641 20.2931 17.7297C20.2999 17.7114 20.3068 17.6935 20.3136 17.6752L20.3139 17.675C20.464 17.7308 20.6136 17.7871 20.764 17.8418C20.8596 17.8767 20.9514 17.844 20.9811 17.7669C21.0119 17.6869 20.9672 17.6078 20.8665 17.5691C20.717 17.5117 20.5671 17.4564 20.4173 17.3999L20.4168 17.3989C20.4523 17.3037 20.4877 17.2082 20.5233 17.113L20.5251 17.112C20.6095 17.143 20.6939 17.1742 20.7784 17.2049C20.891 17.2455 20.9499 17.2236 20.9855 17.1285C21.0167 17.045 20.9765 16.9701 20.8765 16.9303C20.7928 16.8971 20.7081 16.8669 20.6235 16.8354C20.6575 16.7446 20.6914 16.6538 20.7253 16.563L20.7257 16.5628C20.9347 16.6405 21.1437 16.7185 21.3529 16.7957C21.4657 16.8372 21.5553 16.808 21.5839 16.7216C21.6114 16.6381 21.5639 16.5638 21.4552 16.5227C21.2465 16.444 21.0375 16.3661 20.8287 16.2876L20.8284 16.287C20.8615 16.1961 20.8946 16.1053 20.9277 16.0145C21.0148 16.0467 21.1003 16.0833 21.1889 16.11C21.2977 16.1431 21.3674 16.1075 21.3986 16.0134C21.4267 15.9291 21.3866 15.857 21.2866 15.8178C21.2034 15.785 21.1192 15.7548 21.0354 15.7235C21.0696 15.6328 21.1035 15.5423 21.1376 15.4516L21.138 15.4514C21.2881 15.5071 21.438 15.5633 21.5884 15.618C21.6901 15.6549 21.7752 15.6248 21.8043 15.5441C21.8324 15.4666 21.7839 15.3809 21.6891 15.3447C21.5396 15.2875 21.3894 15.2321 21.2395 15.1759L21.2393 15.1755C21.2727 15.0846 21.3061 14.9936 21.3393 14.9025C21.4201 14.9326 21.5007 14.9632 21.5816 14.9923C21.6906 15.0316 21.7681 15.0059 21.8031 14.9207C21.8418 14.8262 21.8083 14.7532 21.6978 14.7062C21.6158 14.6711 21.5306 14.6427 21.4468 14.6115C21.4812 14.5211 21.5153 14.4306 21.5496 14.3403L21.5503 14.34C21.7659 14.4199 21.9816 14.4997 22.1972 14.5799C22.2348 14.5939 22.2709 14.609 22.312 14.5897C22.3688 14.5629 22.4136 14.5275 22.4134 14.4603C22.4131 14.3831 22.372 14.3331 22.2976 14.3056C22.082 14.2257 21.8668 14.1446 21.6514 14.064L21.6511 14.0639C21.6845 13.9729 21.7181 13.8823 21.7515 13.7913C21.8422 13.8248 21.9319 13.8616 22.0238 13.8912C22.1145 13.9206 22.1934 13.8796 22.2194 13.7969C22.247 13.7093 22.2174 13.6553 22.1179 13.6162C22.0309 13.5821 21.9435 13.5498 21.8561 13.5167L21.8555 13.5153C21.8909 13.4198 21.9262 13.3245 21.9613 13.2289L21.9623 13.2285C22.1153 13.2849 22.2682 13.3414 22.4211 13.3982C22.4587 13.4122 22.495 13.4282 22.5355 13.4076C22.5865 13.3817 22.6358 13.3543 22.6299 13.2869C22.6233 13.2099 22.5888 13.1498 22.5112 13.1203C22.3617 13.0637 22.2121 13.0082 22.0624 12.9521C22.096 12.8615 22.1296 12.7708 22.1634 12.6803C22.2511 12.7127 22.338 12.747 22.4263 12.7769C22.5197 12.8084 22.599 12.7739 22.6277 12.694C22.661 12.6018 22.6321 12.545 22.5289 12.5046C22.4419 12.4705 22.3544 12.4384 22.267 12.4052L22.2665 12.4042C22.3021 12.309 22.3375 12.2135 22.373 12.1183L22.3747 12.1176C22.5899 12.1973 22.8053 12.2771 23.0205 12.3568C23.0578 12.3707 23.0938 12.3861 23.1349 12.367C23.1915 12.3404 23.2371 12.3053 23.2363 12.2381C23.2355 12.1555 23.1801 12.1071 23.1087 12.0793C22.8976 11.9978 22.6851 11.9202 22.4732 11.8409C22.5071 11.7501 22.5411 11.6594 22.575 11.5686L22.5753 11.5684C22.6685 11.6029 22.7613 11.6391 22.8553 11.6712C22.9324 11.6974 23.0093 11.6601 23.0376 11.5875C23.0726 11.4985 23.0477 11.4362 22.9569 11.3993C22.8649 11.3616 22.7713 11.3284 22.6781 11.2933L22.6778 11.2927C22.7108 11.2018 22.7439 11.111 22.777 11.0202C22.9202 11.0736 23.0635 11.1276 23.2071 11.18C23.31 11.2176 23.4263 11.1789 23.451 11.1007C23.4749 11.0245 23.4131 10.9271 23.3149 10.8899C23.172 10.8355 23.0283 10.7827 22.8851 10.7291C22.9193 10.6384 22.9531 10.5478 22.9873 10.4571L22.9876 10.457C23.075 10.4893 23.1625 10.5222 23.2502 10.5535C23.343 10.5867 23.4202 10.5548 23.4506 10.4727C23.4811 10.3906 23.4433 10.316 23.3512 10.2803C23.2643 10.2465 23.1766 10.2143 23.0894 10.1815L23.0892 10.1812C23.1227 10.0902 23.1561 9.99923 23.1892 9.90816C23.3862 9.9816 23.5834 10.0541 23.7797 10.1286C23.821 10.1443 23.8631 10.157 23.9058 10.1527C23.9698 10.1463 24.0318 10.1292 24.0515 10.0584C24.071 9.98741 24.0411 9.93302 23.9811 9.89093C23.9427 9.86415 23.9027 9.842 23.8584 9.82578C23.6766 9.75935 23.4958 9.69107 23.3145 9.62318C23.327 9.59038 23.3412 9.55799 23.3514 9.52435C23.4005 9.36793 23.4881 9.22254 23.5053 9.05424Z" fill="#B3E2F4"/>
<path d="M20.3063 17.6964C20.2996 17.7144 20.2928 17.732 20.2862 17.75C20.2379 17.8821 20.2672 17.9461 20.4013 17.9964C20.8958 18.1814 21.3906 18.3659 21.8851 18.5509C21.9251 18.5658 21.9646 18.5819 22.0043 18.5975C21.9375 18.8076 21.784 18.8827 21.5755 18.8051C21.0745 18.6186 20.5737 18.4315 20.0734 18.2441C19.8737 18.1693 19.8065 18.0254 19.8785 17.8301C19.9105 17.7435 19.9443 17.6575 19.9773 17.5713C20.0869 17.6128 20.1966 17.6546 20.3063 17.6964Z" fill="#83D2EF"/>
<path d="M23.5378 9.05495C23.5207 9.22288 23.434 9.36751 23.3855 9.52509C23.3752 9.55852 23.3614 9.59065 23.3489 9.62357C23.3421 9.6213 23.3355 9.61936 23.3287 9.61709C23.2192 9.57608 23.1097 9.53532 23.0002 9.49432C23.0292 9.41203 23.057 9.32961 23.0868 9.24794C23.1648 9.03565 23.3232 8.9682 23.5378 9.05495Z" fill="#83D2EF"/>
<path d="M22.3993 12.1236C22.3642 12.2181 22.3292 12.3129 22.2941 12.4074C22.1827 12.367 22.0713 12.3264 21.9599 12.2857C21.9958 12.1884 22.0315 12.0914 22.0674 11.9941C22.178 12.0376 22.2886 12.0804 22.3993 12.1236Z" fill="#82D2EF"/>
<path d="M21.0239 14.7916C21.0593 14.6961 21.0945 14.6008 21.1299 14.5053C21.2399 14.546 21.3497 14.5869 21.4597 14.6276C21.4242 14.7239 21.3889 14.8205 21.3534 14.9168C21.2439 14.8749 21.134 14.8332 21.0239 14.7916Z" fill="#4EB9E8"/>
<path d="M22.4782 10.9011C22.5133 10.8057 22.5483 10.7101 22.5834 10.6147C22.6936 10.6555 22.8036 10.6962 22.9138 10.7369C22.8783 10.8333 22.8427 10.9298 22.807 11.026C22.6975 10.9841 22.5879 10.9425 22.4782 10.9011Z" fill="#4EB9E8"/>
<path d="M21.9785 13.2397C21.9435 13.3345 21.9087 13.4291 21.874 13.5241C21.7623 13.4836 21.6508 13.4432 21.539 13.4029C21.5749 13.3056 21.6109 13.2087 21.6467 13.1114C21.7571 13.1539 21.8677 13.1968 21.9785 13.2397Z" fill="#82D2EF"/>
<path d="M20.6071 15.9069C20.6423 15.8114 20.6772 15.7159 20.7124 15.6204C20.8226 15.6611 20.9328 15.7019 21.0429 15.7429C21.0074 15.8392 20.9719 15.9357 20.9364 16.0321C20.8265 15.9903 20.7167 15.9486 20.6071 15.9069Z" fill="#4EB9E8"/>
<path d="M20.5243 17.1333C20.4892 17.2278 20.4542 17.3227 20.4191 17.4172C20.3077 17.3765 20.1963 17.3361 20.0852 17.2956C20.121 17.1983 20.1565 17.1012 20.1924 17.0039C20.3028 17.047 20.4136 17.0901 20.5243 17.1333Z" fill="#82D2EF"/>
<path d="M23.0014 9.49652C23.1104 9.5374 23.2195 9.57804 23.3285 9.61892C23.2939 9.71526 23.2595 9.81169 23.2248 9.90803C23.115 9.8663 23.0052 9.82456 22.8953 9.78283C22.9307 9.68758 22.9662 9.5921 23.0014 9.49652Z" fill="#4EB9E8"/>
<path d="M22.6901 10.3336C22.7232 10.2439 22.7562 10.1544 22.7892 10.0647C22.9 10.1054 23.011 10.1462 23.1217 10.1869L23.1219 10.1872C23.0882 10.2784 23.055 10.3694 23.0215 10.4604L23.0211 10.4605C22.9108 10.418 22.8006 10.3759 22.6901 10.3336Z" fill="#4CB7E8"/>
<path d="M22.4783 10.9049C22.5878 10.9466 22.6974 10.9882 22.8069 11.0298C22.7743 11.12 22.7416 11.2102 22.709 11.3003C22.5979 11.2598 22.4866 11.2191 22.3755 11.1786C22.4098 11.0871 22.4439 10.9959 22.4783 10.9049Z" fill="#82D2EF"/>
<path d="M21.0235 14.7953C21.1332 14.837 21.243 14.8787 21.3528 14.9205C21.3198 15.0108 21.2868 15.1011 21.2538 15.1914C21.1431 15.1507 21.0321 15.1099 20.9214 15.0692C20.9557 14.9777 20.9896 14.8864 21.0235 14.7953Z" fill="#82D2EF"/>
<path d="M20.9181 15.0686C21.0289 15.1093 21.1399 15.1501 21.2506 15.1908L21.2508 15.1911C21.2172 15.2823 21.1839 15.3733 21.1503 15.4645L21.15 15.4647C21.0395 15.4224 20.9291 15.3799 20.8189 15.3378C20.8521 15.2478 20.8852 15.1581 20.9181 15.0686Z" fill="#4CB7E8"/>
<path d="M22.372 11.1787C22.4831 11.2192 22.5944 11.2599 22.7054 11.3004L22.7058 11.3011C22.6719 11.3922 22.6381 11.4833 22.6043 11.5741L22.604 11.5743C22.4938 11.5321 22.3833 11.4899 22.2731 11.4477C22.3061 11.3582 22.3392 11.2685 22.372 11.1787Z" fill="#4CB7E8"/>
<path d="M22.2705 11.4512C22.3807 11.4933 22.4909 11.5355 22.6014 11.5777C22.5679 11.6678 22.5344 11.758 22.5009 11.8481C22.3907 11.8073 22.2806 11.7666 22.1704 11.7258C22.204 11.6341 22.2374 11.5425 22.2705 11.4512Z" fill="#82D2EF"/>
<path d="M22.1679 11.7247C22.2781 11.7654 22.3882 11.8062 22.4984 11.8469C22.4658 11.9385 22.4335 12.0299 22.4009 12.1214L22.3992 12.1222C22.2885 12.079 22.178 12.0362 22.0673 11.9931C22.1009 11.9035 22.1344 11.8142 22.1679 11.7247Z" fill="#4CB7E8"/>
<path d="M20.8164 15.3398C20.9269 15.3821 21.0372 15.4246 21.1474 15.4667C21.1137 15.5567 21.0803 15.6466 21.0465 15.7367C20.9364 15.6959 20.8262 15.6552 20.7162 15.6142C20.7496 15.5226 20.783 15.4314 20.8164 15.3398Z" fill="#82D2EF"/>
<path d="M21.9549 12.2922C22.0662 12.3328 22.1776 12.3732 22.2889 12.4139L22.2894 12.4149C22.2553 12.5059 22.2212 12.5969 22.1871 12.6879C22.0769 12.6457 21.9667 12.6036 21.8565 12.5614C21.8893 12.4716 21.9221 12.382 21.9549 12.2922Z" fill="#4CB7E8"/>
<path d="M21.8525 12.5645C21.9627 12.6066 22.0729 12.6487 22.1832 12.6909C22.15 12.7809 22.1168 12.8709 22.0834 12.9607C21.9729 12.9201 21.8625 12.8793 21.7518 12.8386C21.7854 12.7474 21.8191 12.656 21.8525 12.5645Z" fill="#82D2EF"/>
<path d="M20.607 15.9049C20.7165 15.9465 20.8263 15.9882 20.9359 16.0296C20.9033 16.1197 20.8706 16.2099 20.8379 16.3001C20.7269 16.2595 20.6158 16.219 20.5046 16.1781C20.5387 16.0871 20.5728 15.9961 20.607 15.9049Z" fill="#82D2EF"/>
<path d="M20.501 16.1823C20.612 16.2229 20.7231 16.2634 20.8343 16.3043L20.8347 16.305C20.8008 16.3961 20.767 16.4872 20.7332 16.578L20.7329 16.5782C20.6227 16.536 20.5122 16.4938 20.402 16.4516C20.4351 16.3619 20.4682 16.2722 20.501 16.1823Z" fill="#4CB7E8"/>
<path d="M21.7539 12.8421C21.8644 12.8827 21.9748 12.9235 22.0856 12.9642C22.0525 13.0556 22.0196 13.147 21.9867 13.2385C21.9867 13.2385 21.9855 13.2389 21.9857 13.2389C21.8752 13.1961 21.7646 13.1536 21.6541 13.1107C21.6871 13.0212 21.7204 12.9316 21.7539 12.8421Z" fill="#4CB7E8"/>
<path d="M20.3994 16.457C20.5096 16.4992 20.6201 16.5414 20.7303 16.5836C20.6968 16.6737 20.6633 16.7638 20.6298 16.854C20.5196 16.8132 20.4095 16.7725 20.2993 16.7317C20.3326 16.6398 20.3661 16.5483 20.3994 16.457Z" fill="#82D2EF"/>
<path d="M20.2968 16.7305C20.407 16.7713 20.5171 16.812 20.6273 16.8528C20.5949 16.9444 20.5624 17.0357 20.53 17.1274C20.53 17.1274 20.5284 17.1281 20.5283 17.1284C20.4176 17.0852 20.3069 17.0421 20.1963 16.9989C20.2298 16.9094 20.2633 16.8201 20.2968 16.7305Z" fill="#4CB7E8"/>
<path d="M21.5376 13.4062C21.6493 13.4467 21.7607 13.4871 21.8724 13.5273C21.8724 13.5273 21.8733 13.5288 21.8731 13.5287C21.8385 13.6195 21.8041 13.7104 21.7696 13.801C21.6598 13.7593 21.5501 13.7173 21.4401 13.6755C21.4728 13.5859 21.5053 13.4962 21.5376 13.4062Z" fill="#4CB7E8"/>
<path d="M21.4363 13.678C21.5461 13.7197 21.6558 13.7617 21.7658 13.8035C21.7328 13.8938 21.6997 13.9838 21.6667 14.0741C21.5559 14.0334 21.4452 13.9927 21.3346 13.9518C21.3684 13.8607 21.4023 13.7694 21.4363 13.678Z" fill="#82D2EF"/>
<path d="M21.3364 13.9552C21.4472 13.9958 21.5579 14.0365 21.6686 14.0775L21.6688 14.0776C21.6357 14.1689 21.6024 14.2602 21.5692 14.3516L21.5686 14.3519C21.458 14.3093 21.3476 14.2668 21.2371 14.224C21.2702 14.1343 21.3034 14.0449 21.3364 13.9552Z" fill="#4CB7E8"/>
<path d="M20.0838 17.2981C20.1951 17.3387 20.3065 17.3791 20.4176 17.4196L20.4181 17.4207C20.384 17.5117 20.3499 17.6027 20.3158 17.6937L20.3155 17.6938C20.2052 17.6517 20.095 17.6095 19.9848 17.5676C20.0182 17.4777 20.051 17.3879 20.0838 17.2981Z" fill="#4CB7E8"/>
<path d="M22.6875 10.3379C22.798 10.3801 22.9081 10.4225 23.0185 10.4648C22.9848 10.5548 22.9514 10.6447 22.9176 10.7347C22.8075 10.694 22.6976 10.6533 22.5874 10.6126C22.6209 10.5208 22.6541 10.4294 22.6875 10.3379Z" fill="#82D2EF"/>
<path d="M21.2334 14.2246C21.344 14.2672 21.4544 14.3097 21.5649 14.3525C21.531 14.4422 21.4973 14.532 21.4634 14.6217C21.3535 14.581 21.2437 14.5401 21.1338 14.4995C21.167 14.4078 21.2002 14.3162 21.2334 14.2246Z" fill="#82D2EF"/>
<path d="M23.1211 10.1833C23.0104 10.1426 22.8996 10.102 22.7887 10.0612C22.8226 9.96982 22.8565 9.87848 22.8906 9.78748C23.0004 9.8292 23.1102 9.87092 23.22 9.91264C23.1871 10.0027 23.1541 10.093 23.1211 10.1833Z" fill="#82D2EF"/>
<path d="M23.2224 9.90762C23.2569 9.81189 23.2912 9.71608 23.3257 9.62035C23.3322 9.62251 23.3391 9.62452 23.3458 9.62677C23.524 9.69342 23.7021 9.76113 23.881 9.82667C23.9248 9.84277 23.9642 9.86438 24.0016 9.89095C24.0605 9.93239 24.0901 9.98591 24.0709 10.0562C24.0518 10.1262 23.9906 10.1429 23.9276 10.1492C23.8855 10.1535 23.8441 10.141 23.8035 10.1255C23.61 10.0515 23.4159 9.97999 23.2224 9.90762Z" fill="#82D2EF"/>
<path d="M21.5658 14.3484C21.5988 14.2577 21.6321 14.167 21.665 14.0762C21.8769 14.1557 22.0886 14.2357 22.3008 14.3145C22.3739 14.3415 22.4144 14.3909 22.4146 14.467C22.4147 14.5335 22.371 14.5683 22.3149 14.5946C22.2744 14.6137 22.239 14.5988 22.2019 14.5849C21.9901 14.506 21.778 14.4272 21.5658 14.3484Z" fill="#82D2EF"/>
<path d="M20.7307 16.5743C20.7644 16.4838 20.7982 16.3933 20.8318 16.303C21.0373 16.3801 21.2427 16.4572 21.448 16.5348C21.5552 16.5754 21.602 16.6487 21.5747 16.731C21.5465 16.8162 21.4583 16.8453 21.3474 16.8041C21.1419 16.7278 20.9364 16.6509 20.7307 16.5743Z" fill="#82D2EF"/>
<path d="M22.3988 12.1189C22.4313 12.0279 22.4635 11.9371 22.4959 11.8461C22.7045 11.9241 22.9135 12.0006 23.121 12.0812C23.191 12.1085 23.2456 12.156 23.2466 12.2378C23.2471 12.304 23.2025 12.3387 23.1468 12.3649C23.1064 12.3838 23.071 12.3686 23.0343 12.3548C22.8224 12.2762 22.6105 12.1975 22.3988 12.1189Z" fill="#83D2EF"/>
<path d="M22.8068 11.0204C22.8422 10.9246 22.8777 10.8284 22.9133 10.7326C23.0543 10.7855 23.1958 10.8379 23.3365 10.8917C23.4334 10.9285 23.4944 11.0248 23.4705 11.1001C23.4461 11.1776 23.3316 11.2159 23.2304 11.1785C23.0887 11.1266 22.9479 11.0733 22.8068 11.0204Z" fill="#83D2EF"/>
<path d="M21.1479 15.4617C21.1813 15.3711 21.2145 15.2802 21.248 15.1895C21.3957 15.245 21.5435 15.2998 21.6908 15.3563C21.7841 15.3921 21.8317 15.4765 21.8042 15.5533C21.7756 15.6331 21.6915 15.6628 21.5916 15.6264C21.4433 15.5723 21.2956 15.5167 21.1479 15.4617Z" fill="#82D2EF"/>
<path d="M20.3174 17.6884C20.3514 17.5978 20.3854 17.5072 20.4195 17.4166C20.567 17.4723 20.7146 17.5271 20.8618 17.5838C20.9609 17.622 21.005 17.6999 20.9746 17.7793C20.9454 17.8555 20.855 17.8877 20.7609 17.8533C20.6125 17.7991 20.4651 17.7437 20.3174 17.6884Z" fill="#82D2EF"/>
<path d="M21.9806 13.236C22.0133 13.1449 22.0463 13.054 22.0791 12.9629C22.2265 13.0183 22.3738 13.0732 22.5209 13.1291C22.5974 13.158 22.6314 13.2176 22.6378 13.2938C22.6436 13.3603 22.5951 13.3874 22.5449 13.413C22.505 13.4335 22.4694 13.4174 22.4322 13.4037C22.2817 13.3477 22.1311 13.2918 21.9806 13.236Z" fill="#82D2EF"/>
<path d="M21.3525 14.9128C21.3879 14.8167 21.4232 14.7202 21.4586 14.624C21.5413 14.655 21.6252 14.6834 21.7063 14.7179C21.8153 14.7646 21.8483 14.8369 21.8101 14.9307C21.7758 15.0154 21.6991 15.0408 21.5916 15.0016C21.5114 14.973 21.4319 14.9426 21.3525 14.9128Z" fill="#83D2EF"/>
<path d="M20.9354 16.0254C20.9709 15.9292 21.0064 15.8328 21.0419 15.7366C21.1245 15.7676 21.2076 15.7977 21.2897 15.8301C21.3883 15.869 21.4279 15.9405 21.4001 16.0241C21.3691 16.1176 21.3004 16.1526 21.1933 16.1199C21.1059 16.0934 21.0212 16.0573 20.9354 16.0254Z" fill="#83D2EF"/>
<path d="M22.6015 11.5718C22.6353 11.4809 22.6691 11.3899 22.7029 11.2992C22.7945 11.3341 22.8871 11.3669 22.9779 11.4042C23.0674 11.441 23.0918 11.5024 23.0575 11.5907C23.0296 11.6627 22.9537 11.6997 22.8777 11.6737C22.7847 11.6419 22.6934 11.606 22.6015 11.5718Z" fill="#82D2EF"/>
<path d="M22.1845 12.6853C22.2185 12.5944 22.2526 12.5035 22.2866 12.4127C22.3728 12.4455 22.4593 12.4774 22.5449 12.5111C22.6467 12.5512 22.6752 12.6075 22.6424 12.6989C22.614 12.7784 22.5358 12.8123 22.4437 12.7811C22.3566 12.7515 22.2709 12.7174 22.1845 12.6853Z" fill="#82D2EF"/>
<path d="M20.5277 17.1281C20.5601 17.0365 20.5926 16.9454 20.6249 16.8538C20.708 16.885 20.7918 16.9153 20.8744 16.9479C20.9731 16.9871 21.0129 17.0617 20.9819 17.1443C20.9469 17.2385 20.8887 17.2603 20.7777 17.2201C20.6945 17.1898 20.611 17.1587 20.5277 17.1281Z" fill="#82D2EF"/>
<path d="M21.7676 13.7983C21.8021 13.7076 21.8364 13.6169 21.8709 13.5264C21.9571 13.5593 22.0435 13.5914 22.1292 13.6249C22.2273 13.6636 22.2565 13.7171 22.2293 13.804C22.2035 13.8861 22.1256 13.9265 22.0363 13.8974C21.9455 13.868 21.8569 13.8318 21.7676 13.7983Z" fill="#83D2EF"/>
<path d="M23.0189 10.4583C23.0523 10.3675 23.0857 10.2764 23.1191 10.1855C23.2052 10.2181 23.2917 10.2499 23.3773 10.2834C23.4682 10.3189 23.5055 10.3925 23.4754 10.4742C23.4454 10.5555 23.3693 10.5872 23.2778 10.5543C23.1913 10.523 23.1054 10.4902 23.0189 10.4583Z" fill="#82D2EF"/>
<path d="M17.5806 9.60997C17.6253 9.60343 17.6697 9.59693 17.7144 9.5904C17.8469 9.60437 17.9744 9.58573 18.0967 9.53446C18.1286 9.52979 18.1603 9.52516 18.1922 9.52049C18.2175 9.6735 18.2226 9.82756 18.2285 9.98177C18.2331 10.105 18.304 10.187 18.4022 10.185C18.5256 10.1823 18.5856 10.1087 18.576 9.97551C18.5652 9.82502 18.5562 9.67428 18.5465 9.52391C18.7491 9.51669 18.9515 9.52127 19.1538 9.54501C19.1514 9.58146 19.1483 9.61829 19.1464 9.65493C19.1396 9.79486 19.1046 9.93291 19.1202 10.0742C19.1319 10.1803 19.1918 10.236 19.2873 10.2355C19.3779 10.2351 19.4351 10.1734 19.4467 10.0907C19.4708 9.92281 19.4785 9.75185 19.4929 9.58209C19.6969 9.61817 19.9 9.65737 20.0999 9.71592C20.0638 9.85438 20.027 9.99296 19.9916 10.1319C19.9574 10.2668 20.0076 10.3658 20.1221 10.3912C20.2093 10.4107 20.2895 10.3558 20.3207 10.2462C20.3607 10.1052 20.3951 9.96263 20.4321 9.82074C20.6244 9.88587 20.8136 9.95939 20.9943 10.0557C21.0007 10.1098 20.9717 10.1512 20.9512 10.1955C20.9055 10.2938 20.8558 10.3903 20.8138 10.4905C20.7744 10.5843 20.8099 10.6907 20.8885 10.7355C20.9544 10.7729 21.0674 10.7534 21.1031 10.6828C21.1796 10.531 21.2617 10.3815 21.3123 10.2163C21.4931 10.3211 21.6744 10.4245 21.8382 10.5578C21.8361 10.6046 21.8078 10.6372 21.7834 10.6719C21.6635 10.8434 21.5415 11.0136 21.424 11.187C21.348 11.299 21.3908 11.43 21.5126 11.4707C21.6069 11.5023 21.6675 11.4456 21.7165 11.378C21.8427 11.2031 21.965 11.0252 22.0888 10.8485C22.1059 10.8241 22.1216 10.7994 22.1218 10.7673C22.2348 10.8534 22.3485 10.9387 22.461 11.0259C22.5112 11.0651 22.5504 11.1149 22.5775 11.1744C22.655 11.3457 22.6107 11.4914 22.5109 11.6332C20.5402 14.4439 18.5708 17.2555 16.6013 20.0672C16.5863 20.0885 16.5715 20.1106 16.5551 20.1308C16.4215 20.2972 16.21 20.326 16.0354 20.1972C15.9211 20.113 15.8113 20.0222 15.6993 19.9344C15.7103 19.9278 15.7249 19.9243 15.732 19.9145C15.8736 19.7144 16.0187 19.5171 16.1532 19.3119C16.2182 19.213 16.1898 19.1168 16.1011 19.0592C16.0185 19.0054 15.9334 19.0247 15.8675 19.1172C15.748 19.2848 15.6308 19.4543 15.5123 19.6229C15.4879 19.6573 15.467 19.6957 15.4248 19.7117C15.2546 19.5873 15.1068 19.436 14.9584 19.2857C15.0954 19.1883 15.2069 19.0612 15.3194 18.937C15.3723 18.8784 15.3605 18.7962 15.3214 18.7299C15.2848 18.668 15.2248 18.6486 15.1527 18.6603C15.0903 18.6705 15.0524 18.7108 15.0092 18.7499C14.912 18.8382 14.8369 18.9526 14.7182 19.0154C14.5769 18.8618 14.4538 18.6931 14.3365 18.5196C14.465 18.433 14.5942 18.3473 14.7214 18.259C14.7853 18.2146 14.7978 18.1477 14.7797 18.0721C14.764 18.0074 14.7262 17.9624 14.6629 17.9487C14.5966 17.9343 14.5364 17.9516 14.4803 17.9907C14.3689 18.068 14.2554 18.1423 14.1429 18.2178C14.0303 18.0346 13.9346 17.8422 13.841 17.6485C13.9935 17.5901 14.1445 17.5278 14.2881 17.4491C14.3531 17.4136 14.3847 17.3505 14.3751 17.2742C14.3663 17.2063 14.3226 17.1561 14.2617 17.1327C14.1975 17.1079 14.1359 17.1314 14.0762 17.1577C13.9534 17.212 13.8298 17.2654 13.7065 17.319C13.6256 17.1227 13.5601 16.9214 13.507 16.7158C13.6399 16.6822 13.7724 16.6456 13.9061 16.6153C14.034 16.5862 14.0949 16.5018 14.0663 16.3824C14.0404 16.2738 13.9414 16.2275 13.818 16.2634C13.6801 16.3035 13.5417 16.3421 13.3987 16.3614C13.3924 16.3213 13.3861 16.2814 13.3798 16.2413C13.3899 16.1102 13.371 15.9833 13.3203 15.8611C13.3129 15.8144 13.3056 15.7678 13.2983 15.721C13.4675 15.7154 13.6368 15.7142 13.8053 15.7024C13.8939 15.696 13.959 15.5976 13.9482 15.5089C13.9375 15.4186 13.858 15.3452 13.7652 15.3481C13.6087 15.3529 13.4524 15.3626 13.2961 15.3705C13.2891 15.159 13.29 14.9477 13.305 14.7369C13.444 14.7321 13.5815 14.7596 13.7179 14.7826C13.8354 14.8026 13.9273 14.7238 13.9373 14.6178C13.9466 14.5221 13.8806 14.4489 13.7612 14.4292C13.6212 14.4059 13.4808 14.3868 13.3407 14.366C13.3653 14.1548 13.4099 13.9478 13.4522 13.7406C13.5939 13.7869 13.7351 13.8357 13.8777 13.8786C13.9736 13.9072 14.0593 13.8542 14.0875 13.7573C14.1141 13.6654 14.0707 13.5801 13.9725 13.545C13.8288 13.4935 13.6861 13.4384 13.5362 13.41C13.5485 13.38 13.5616 13.3505 13.5725 13.3199C13.6319 13.1537 13.6826 12.9838 13.7638 12.8272C13.8993 12.8564 14.0084 12.949 14.1339 13.0017C14.2352 13.0443 14.321 13.0217 14.3655 12.9339C14.4114 12.8433 14.3809 12.7441 14.282 12.6882C14.1596 12.6189 14.034 12.556 13.9098 12.4903C14.015 12.3127 14.1035 12.1242 14.2273 11.9592C14.2603 11.9809 14.2942 12.0008 14.3257 12.0249C14.4858 12.1478 14.6454 12.2713 14.8046 12.3952C14.8597 12.4383 14.9181 12.4625 14.9851 12.4369C15.0465 12.4134 15.0847 12.3692 15.0943 12.2984C15.1048 12.2186 15.0699 12.1627 15.0124 12.1159C14.8221 11.9619 14.6189 11.8256 14.4372 11.6596C14.551 11.4871 14.6948 11.3411 14.8261 11.184C14.9159 11.2817 15.0059 11.3793 15.0954 11.4772C15.1849 11.5746 15.2798 11.5889 15.3572 11.5157C15.4344 11.4429 15.4264 11.3456 15.3437 11.2415C15.2611 11.1376 15.1513 11.0588 15.0884 10.9373C15.2271 10.789 15.3906 10.6718 15.5475 10.5465C15.6266 10.6674 15.7046 10.7888 15.7853 10.9086C15.8595 11.0186 15.9483 11.0447 16.0308 10.9848C16.1188 10.9208 16.129 10.8192 16.0607 10.7105C15.9856 10.5913 15.9127 10.471 15.8385 10.3514C16.0054 10.2392 16.1815 10.1442 16.3611 10.0553C16.4247 10.1959 16.4863 10.3375 16.5528 10.4766C16.5999 10.5753 16.6886 10.6145 16.7675 10.5795C16.8632 10.5368 16.8962 10.4389 16.8569 10.3301C16.8056 10.1877 16.7276 10.0567 16.6876 9.90963C16.8748 9.83246 17.0662 9.76837 17.2607 9.71256C17.3003 9.87196 17.3379 10.0316 17.3797 10.1904C17.4043 10.2839 17.4952 10.3423 17.581 10.3259C17.6649 10.3098 17.7342 10.222 17.7129 10.1362C17.6697 9.96013 17.6415 9.78073 17.5806 9.60997ZM15.6288 15.5975C15.6877 15.9584 15.8151 16.3363 15.9939 16.6983C16.0382 16.7878 16.0599 16.7663 16.1041 16.7032C17.1697 15.1798 18.2366 13.6574 19.3034 12.1347C19.3659 12.0454 19.3658 12.0446 19.2557 12.0191C18.766 11.9048 18.2812 11.9167 17.802 12.0499C16.319 12.4619 15.3798 13.9752 15.6288 15.5975ZM18.3316 16.0273C18.3402 16.1039 18.3787 16.1511 18.4492 16.1744C18.5387 16.2037 18.603 16.1623 18.6497 16.095C18.9374 15.6804 19.2402 15.2773 19.5113 14.8501C19.5782 14.7449 19.5627 14.6632 19.4724 14.5971C19.3903 14.5366 19.3021 14.5572 19.2325 14.6549C19.1413 14.7831 19.0495 14.9106 18.9625 15.042C18.9209 15.105 18.8847 15.1157 18.8226 15.0644C18.6998 14.9631 18.5726 14.8679 18.446 14.7719C18.352 14.7008 18.2439 14.7079 18.1869 14.7854C18.1274 14.8661 18.1522 14.9809 18.2488 15.057C18.371 15.1534 18.4928 15.2507 18.6184 15.3418C18.6835 15.3891 18.6947 15.4288 18.6448 15.4954C18.5487 15.6238 18.46 15.758 18.3671 15.8889C18.3372 15.9313 18.3173 15.9746 18.3316 16.0273Z" fill="#EFC31A"/>
<path d="M13.3114 15.5998C13.3438 15.5187 13.2936 15.4308 13.3249 15.3499C13.4808 15.3421 13.6367 15.3324 13.7929 15.3276C13.8855 15.3247 13.9647 15.3979 13.9755 15.488C13.9862 15.5764 13.9213 15.6745 13.8329 15.6809C13.6649 15.6929 13.4959 15.6939 13.3271 15.6995C13.3219 15.6664 13.3167 15.6331 13.3114 15.5998Z" fill="#F19C1F"/>
<path d="M17.2341 9.69083C17.299 9.63531 17.3943 9.65948 17.4585 9.6027C17.4905 9.59802 17.5223 9.59338 17.5543 9.5887C17.6155 9.75979 17.6437 9.93952 17.6875 10.1151C17.7089 10.2013 17.6393 10.2892 17.5551 10.3051C17.4693 10.3215 17.3781 10.2627 17.3532 10.1694C17.3115 10.0105 17.2736 9.85056 17.2341 9.69083Z" fill="#F19C1F"/>
<path d="M18.2353 9.49336C18.3274 9.52455 18.4217 9.47434 18.5139 9.50771C18.5237 9.65861 18.5327 9.80936 18.5435 9.96011C18.5532 10.0935 18.4927 10.1673 18.3692 10.17C18.2708 10.172 18.1997 10.0898 18.195 9.96638C18.1891 9.81189 18.184 9.65756 18.1586 9.50428C18.1843 9.50081 18.2097 9.4971 18.2353 9.49336Z" fill="#F19C1F"/>
<path d="M13.5409 16.6989C13.4863 16.6231 13.5026 16.5209 13.4485 16.4451C13.4432 16.4118 13.4381 16.3787 13.4328 16.3454C13.5755 16.3261 13.7136 16.2877 13.8512 16.2476C13.9744 16.2119 14.0731 16.2578 14.099 16.3663C14.1273 16.4855 14.0667 16.5696 13.9391 16.5987C13.8057 16.6288 13.6735 16.6653 13.5409 16.6989Z" fill="#F19C1F"/>
<path d="M18.0649 9.51757C17.9432 9.5677 17.8164 9.58594 17.6846 9.57227C17.8113 9.55403 17.9381 9.5358 18.0649 9.51757Z" fill="#FAEEC2"/>
<path d="M13.3496 15.8418C13.401 15.9646 13.4203 16.0919 13.4105 16.2235C13.3902 16.0963 13.3699 15.969 13.3496 15.8418Z" fill="#FAEEC2"/>
<path d="M18.3308 16.0346C18.3165 15.9817 18.3366 15.9383 18.3663 15.8965C18.4592 15.7656 18.5478 15.6312 18.644 15.5031C18.6939 15.4364 18.6827 15.3965 18.6175 15.3494C18.492 15.2581 18.3699 15.1611 18.248 15.0646C18.1517 14.9884 18.1266 14.8734 18.1861 14.7931C18.2434 14.7155 18.3512 14.7084 18.4452 14.7795C18.5717 14.8753 18.699 14.9707 18.8217 15.072C18.8838 15.1231 18.92 15.1123 18.9616 15.0496C19.0487 14.9185 19.1404 14.7907 19.2316 14.6625C19.3012 14.5648 19.3894 14.5443 19.4715 14.6047C19.5615 14.6709 19.577 14.7528 19.5104 14.8578C19.2393 15.285 18.9365 15.6881 18.6489 16.1027C18.6022 16.1699 18.538 16.2116 18.4484 16.182C18.3777 16.1587 18.3394 16.1113 18.3308 16.0346Z" fill="#E47E25"/>
<path d="M21.7973 10.5649C21.9031 10.618 21.9914 10.697 22.0811 10.7741C22.0809 10.8062 22.0652 10.8309 22.0481 10.8553C21.9243 11.032 21.802 11.2099 21.6758 11.3849C21.6269 11.4527 21.5662 11.5092 21.4719 11.4776C21.3501 11.4369 21.3073 11.3058 21.3833 11.1938C21.5008 11.0204 21.6228 10.8502 21.7428 10.6787C21.7669 10.6442 21.7949 10.6117 21.7973 10.5649Z" fill="#F19C1F"/>
<path d="M15.7398 19.9403C15.6433 19.873 15.5449 19.8081 15.4656 19.7174C15.5076 19.7017 15.5287 19.6633 15.5531 19.6286C15.6713 19.46 15.7887 19.2906 15.9081 19.1229C15.9741 19.0304 16.0591 19.0112 16.1417 19.065C16.2304 19.1226 16.2588 19.2188 16.1938 19.3177C16.0594 19.523 15.9143 19.7204 15.7727 19.9202C15.7657 19.9303 15.7508 19.9341 15.7398 19.9403Z" fill="#F19C1F"/>
<path d="M14.2287 11.9308C14.2637 11.8042 14.3337 11.7043 14.4383 11.6313C14.6202 11.7969 14.8231 11.9333 15.0134 12.0876C15.0711 12.1344 15.106 12.1903 15.0953 12.27C15.086 12.3409 15.0477 12.385 14.9861 12.4085C14.9191 12.4342 14.8609 12.4099 14.8056 12.3668C14.6464 12.2427 14.4868 12.1192 14.3268 11.9966C14.2958 11.9724 14.2616 11.9525 14.2287 11.9308Z" fill="#F19C20"/>
<path d="M19.1152 9.53213C19.2305 9.51939 19.3431 9.54154 19.4554 9.5695C19.4409 9.73951 19.433 9.91076 19.4091 10.0789C19.3972 10.1617 19.3401 10.2231 19.2493 10.2238C19.1536 10.2244 19.0935 10.1685 19.0819 10.0623C19.0662 9.92082 19.1013 9.78258 19.1081 9.64244C19.1097 9.60552 19.1128 9.5689 19.1152 9.53213Z" fill="#F19C20"/>
<path d="M13.8783 17.6372C13.8205 17.5329 13.7664 17.4272 13.7438 17.3083C13.8669 17.2548 13.9902 17.2015 14.1129 17.1473C14.1724 17.1211 14.2339 17.0976 14.2981 17.1224C14.3588 17.1457 14.4027 17.1958 14.4112 17.2636C14.4211 17.3397 14.3892 17.4028 14.3244 17.4382C14.1812 17.5167 14.0306 17.5789 13.8783 17.6372Z" fill="#F19C1F"/>
<path d="M20.9546 10.0556C21.0706 10.0868 21.1705 10.1543 21.2728 10.2162C21.2221 10.3816 21.14 10.5312 21.0634 10.6831C21.0277 10.7537 20.9147 10.7732 20.8487 10.7358C20.7701 10.6912 20.7343 10.5848 20.7739 10.4906C20.816 10.3906 20.8654 10.2939 20.9114 10.1955C20.9319 10.1512 20.961 10.1097 20.9546 10.0556Z" fill="#F19C1F"/>
<path d="M15.0001 19.2872C14.9139 19.2034 14.8247 19.1224 14.7605 19.0173C14.8791 18.9545 14.954 18.84 15.0512 18.752C15.0944 18.7129 15.1321 18.6724 15.1945 18.6624C15.2663 18.6508 15.3265 18.6702 15.3631 18.732C15.4021 18.7979 15.414 18.8804 15.3611 18.939C15.2484 19.0629 15.137 19.1898 15.0001 19.2872Z" fill="#F19C1F"/>
<path d="M14.3745 18.5116C14.2961 18.4207 14.2331 18.319 14.1811 18.2099C14.2935 18.1345 14.4068 18.0603 14.5181 17.9831C14.5741 17.944 14.6343 17.9267 14.7005 17.9411C14.7634 17.9548 14.8015 17.9998 14.8171 18.0644C14.8352 18.1399 14.8227 18.2068 14.759 18.2511C14.6319 18.3396 14.5028 18.4248 14.3745 18.5116Z" fill="#F19D20"/>
<path d="M16.3422 10.0317C16.4386 9.95349 16.5478 9.90575 16.669 9.88557C16.7091 10.0328 16.7872 10.164 16.8386 10.3066C16.878 10.4156 16.8449 10.5135 16.749 10.5563C16.67 10.5917 16.5814 10.5523 16.534 10.4533C16.4677 10.3143 16.4059 10.1724 16.3422 10.0317Z" fill="#F19C20"/>
<path d="M13.3255 14.7104C13.3068 14.5831 13.3185 14.4597 13.3608 14.3402C13.5007 14.3609 13.6412 14.38 13.7807 14.4033C13.8999 14.4232 13.9659 14.4963 13.9565 14.5916C13.9462 14.6971 13.8548 14.776 13.7374 14.7561C13.6013 14.7331 13.4643 14.7056 13.3255 14.7104Z" fill="#F19C20"/>
<path d="M20.0613 9.7117C20.1767 9.73014 20.2875 9.76485 20.394 9.81662C20.3571 9.95861 20.3225 10.1016 20.2824 10.2425C20.2512 10.3521 20.1709 10.4071 20.0836 10.3876C19.9692 10.3619 19.9187 10.2631 19.9529 10.128C19.9884 9.98899 20.0253 9.85055 20.0613 9.7117Z" fill="#F19C20"/>
<path d="M15.5351 10.5204C15.6157 10.429 15.7106 10.3603 15.8264 10.3251C15.9004 10.4451 15.9737 10.5655 16.0489 10.6845C16.1171 10.7931 16.1072 10.895 16.0189 10.9591C15.9363 11.0193 15.8475 10.9929 15.7732 10.8828C15.6924 10.7629 15.6145 10.6413 15.5351 10.5204Z" fill="#F19C20"/>
<path d="M13.4677 13.7132C13.4706 13.5956 13.5073 13.488 13.5516 13.3829C13.7011 13.4113 13.8439 13.4664 13.9873 13.5178C14.0855 13.5529 14.1288 13.6381 14.1023 13.7299C14.0741 13.8267 13.9885 13.8799 13.8927 13.851C13.7503 13.8082 13.6093 13.7594 13.4677 13.7132Z" fill="#F19C20"/>
<path d="M13.769 12.7986C13.7756 12.6656 13.8436 12.563 13.9152 12.4618C14.0393 12.5275 14.1646 12.5907 14.2871 12.6597C14.386 12.7155 14.4166 12.8146 14.3705 12.9052C14.3261 12.9929 14.2403 13.0156 14.1391 12.973C14.0134 12.9201 13.9044 12.8277 13.769 12.7986Z" fill="#F19C20"/>
<path d="M14.8201 11.1572C14.8894 11.054 14.9647 10.9577 15.0824 10.9101C15.1451 11.0317 15.2552 11.1105 15.3379 11.2144C15.4206 11.3186 15.4289 11.4162 15.3514 11.4888C15.2739 11.5617 15.179 11.5477 15.0895 11.4503C14.9999 11.3525 14.9099 11.2549 14.8201 11.1572Z" fill="#F19C20"/>
<path fill-rule="evenodd" clip-rule="evenodd" d="M15.335 14.8794V14.877H15.3337C12.0019 14.8773 8.67063 14.8776 5.33887 14.8776C5.3394 14.8976 5.34005 14.9177 5.3407 14.9378C5.34222 14.9846 5.34374 15.0314 5.34374 15.0782C5.34379 15.4551 5.34385 15.832 5.3439 16.209C5.34438 19.4128 5.34486 22.6167 5.33931 25.8205C5.33931 25.9629 5.39338 25.9982 5.59458 25.9979C8.04188 25.9943 10.4894 25.9944 12.9369 25.9945C13.6711 25.9945 14.4054 25.9946 15.1396 25.9945C15.1837 25.9945 15.228 25.9931 15.2722 25.9917C15.2942 25.9911 15.3161 25.9904 15.3381 25.9899C15.3381 25.9905 15.3381 25.9911 15.3381 25.9917C15.3626 25.9922 15.3871 25.9929 15.4116 25.9936C15.4607 25.995 15.5097 25.9964 15.5588 25.9964C16.1717 25.9964 16.7846 25.9963 17.3975 25.9962C19.9512 25.9959 22.5051 25.9956 25.059 26.0004C25.2841 26.0007 25.3347 25.9611 25.3342 25.8066C25.3282 22.5889 25.3287 19.3714 25.3292 16.1537C25.3293 15.7959 25.3293 15.4382 25.3294 15.0804C25.3294 15.0335 25.3309 14.9867 25.3324 14.9399C25.333 14.9198 25.3337 14.8998 25.3342 14.8797C24.5934 14.8796 23.8526 14.8794 23.1118 14.8792C20.8885 14.8787 18.665 14.8782 16.4416 14.8782C16.258 14.878 16.0744 14.8778 15.8907 14.8776C15.7067 14.8773 15.5226 14.8771 15.3385 14.877L15.335 14.8794ZM15.3362 15.8008L15.339 15.807C15.0295 15.8065 14.72 15.8056 14.4105 15.8046C13.6227 15.8021 12.8351 15.7996 12.0476 15.806C11.573 15.8098 11.1648 15.9348 10.8993 16.2314C10.3587 16.8364 10.9206 17.6088 11.8717 17.6444C12.6763 17.6745 13.484 17.6665 14.2916 17.6585C14.6408 17.6551 14.9901 17.6516 15.339 17.6512L15.335 17.6599C15.335 17.6605 15.335 17.6611 15.335 17.6618C15.6312 17.6614 15.9274 17.6609 16.2237 17.6604C17.0012 17.659 17.7788 17.6576 18.5564 17.6596C18.7567 17.6599 18.9503 17.6466 19.1334 17.5933C19.706 17.4265 20.0237 17.0717 19.9692 16.6633C19.8965 16.1169 19.316 15.8036 18.5564 15.8042C17.8217 15.8048 17.0869 15.8036 16.3522 15.8023C16.0135 15.8018 15.6749 15.8012 15.3362 15.8008ZM11.3152 22.288C11.1051 22.2882 10.895 22.2883 10.6848 22.2883C10.4696 22.2883 10.2544 22.2881 10.0391 22.2879C9.45213 22.2872 8.86514 22.2865 8.27886 22.2908C8.10337 22.2921 8.02803 22.2657 8.03778 22.1308C8.05329 21.9153 8.04753 21.6989 8.03955 21.4831C8.03601 21.3874 8.08741 21.3599 8.21948 21.3602C9.86807 21.3627 11.5171 21.363 13.1657 21.3599C13.3164 21.3599 13.3532 21.3995 13.3496 21.4961C13.3416 21.7119 13.3381 21.9283 13.3505 22.1438C13.3572 22.2614 13.2987 22.2917 13.136 22.2908C12.529 22.2869 11.9222 22.2874 11.3152 22.288ZM11.3152 24.1409C11.1043 24.1411 10.8935 24.1413 10.6826 24.1413C10.4737 24.1413 10.2648 24.1411 10.0559 24.1409C9.45512 24.1405 8.85436 24.14 8.2536 24.1434C8.09317 24.1444 8.03069 24.1165 8.03778 23.9976C8.05063 23.7821 8.04664 23.5657 8.03911 23.3499C8.03601 23.2546 8.06924 23.2125 8.22169 23.2128C9.87029 23.2159 11.5193 23.2159 13.1679 23.2128C13.3213 23.2125 13.3523 23.2558 13.3492 23.3506C13.3421 23.5664 13.3377 23.7828 13.3505 23.9982C13.3576 24.1181 13.2933 24.1444 13.1338 24.1434C12.5275 24.14 11.9214 24.1405 11.3152 24.1409Z" fill="url(#paint0_linear_1073_2413)"/>
<path d="M15.333 15.7988C16.4068 15.8001 17.4806 15.8035 18.5544 15.8022C19.314 15.8016 19.8946 16.1146 19.9672 16.6614C20.0218 17.0697 19.704 17.4245 19.1314 17.5914C18.948 17.6449 18.7547 17.6583 18.5544 17.6576C17.4806 17.6552 16.4068 17.6586 15.333 17.6598L15.337 17.6511C15.337 17.0363 15.337 16.4214 15.337 15.8069L15.333 15.7988Z" fill="#568ECC"/>
<path d="M15.338 15.8078C15.338 16.4226 15.338 17.0375 15.338 17.652C14.1817 17.6533 13.0233 17.6882 11.8706 17.6452C10.92 17.6096 10.3576 16.8372 10.8983 16.2322C11.1633 15.9356 11.5719 15.8105 12.0465 15.8068C13.1438 15.7979 14.2411 15.8062 15.338 15.8078Z" fill="#9CC4F2"/>
<path d="M10.6849 22.2918C9.88277 22.2918 9.08019 22.2887 8.27805 22.2942C8.10256 22.2955 8.02722 22.2692 8.03697 22.1342C8.05248 21.9187 8.04672 21.7023 8.03874 21.4865C8.0352 21.3905 8.08705 21.3633 8.21867 21.3636C9.86726 21.3658 11.5163 21.3664 13.1649 21.3633C13.3156 21.363 13.3524 21.4026 13.3488 21.4995C13.3408 21.7153 13.3377 21.9317 13.3497 22.1472C13.3563 22.2648 13.2978 22.2952 13.1352 22.2942C12.3193 22.289 11.5021 22.2918 10.6849 22.2918Z" fill="#9CC4F2"/>
<path d="M10.6815 24.1433C9.87184 24.1433 9.06217 24.1405 8.2525 24.1455C8.09207 24.1464 8.02958 24.1186 8.03667 23.9997C8.04952 23.7842 8.04553 23.5678 8.038 23.352C8.0349 23.2566 8.06769 23.2145 8.22059 23.2148C9.86918 23.2179 11.5182 23.2179 13.1668 23.2148C13.3206 23.2145 13.3516 23.2579 13.3481 23.3526C13.341 23.5684 13.3366 23.7848 13.3494 24.0003C13.3565 24.1201 13.2922 24.1464 13.1327 24.1455C12.3155 24.1408 11.4987 24.1433 10.6815 24.1433Z" fill="#9CC4F2"/>
<defs>
<linearGradient id="paint0_linear_1073_2413" x1="15.3365" y1="14.877" x2="15.3365" y2="26.0004" gradientUnits="userSpaceOnUse">
<stop stop-color="#84B2E8"/>
<stop offset="1" stop-color="#41566F"/>
</linearGradient>
</defs>
</svg>
