<svg width="30" height="30" viewBox="0 0 30 30" fill="none" xmlns="http://www.w3.org/2000/svg">
<path d="M23.8437 7.51176C23.8983 6.8287 23.9529 6.14532 24.0072 5.46224C24.042 5.0247 23.838 4.77817 23.4131 4.74279C20.9876 4.5408 18.5621 4.33881 16.1366 4.13682C15.1918 4.05813 14.2466 3.97877 13.3017 3.90106C12.963 3.87318 12.6957 4.10166 12.6677 4.44444C12.6102 5.15207 12.5562 5.85966 12.5009 6.56715C12.499 6.58332 12.4971 6.59948 12.4958 6.6157C12.277 9.38609 12.0578 12.1565 11.8397 14.9266C11.8147 15.2425 12.0571 15.5236 12.3739 15.5499C15.7692 15.833 19.1642 16.1158 22.5595 16.3982C22.8874 16.4255 23.1601 16.1857 23.1869 15.8471C23.2536 15.006 23.3201 14.1646 23.3862 13.3235C23.5389 11.3864 23.6913 9.44891 23.8437 7.51176Z" fill="#FEFEFE"/>
<path d="M23.8443 7.5131C23.6919 9.45025 23.5395 11.3877 23.3868 13.3249C23.3207 14.166 23.2543 15.0074 23.1875 15.8484C23.1608 16.1867 22.8878 16.4268 22.5602 16.3995C19.1648 16.1171 15.7698 15.8344 12.3746 15.5513C12.0577 15.5249 11.8154 15.2438 11.8403 14.9279C12.0582 12.1574 12.2773 9.38708 12.4965 6.61704C12.4978 6.60082 12.5 6.58468 12.5016 6.56849C12.5369 6.57241 12.5721 6.5773 12.6075 6.58025C16.3177 6.88923 20.0277 7.19819 23.7379 7.50718C23.7733 7.51012 23.8089 7.51112 23.8443 7.5131ZM17.6702 13.2563C19.1 13.3753 20.5298 13.4944 21.9592 13.6134C22.1623 13.6303 22.2248 13.5765 22.2414 13.3705C22.3704 11.7367 22.4995 10.1029 22.6285 8.46905C22.6455 8.25464 22.5943 8.1939 22.3827 8.17627C19.5351 7.93913 16.6876 7.702 13.8397 7.46483C13.6281 7.4472 13.5684 7.49839 13.5514 7.71312C13.4227 9.34305 13.294 10.9727 13.1652 12.6026C13.1476 12.8251 13.1971 12.8837 13.4163 12.902C14.8344 13.0201 16.2521 13.1382 17.6702 13.2563ZM18.6665 14.512C19.7257 14.6002 20.7852 14.6884 21.8444 14.7767C21.8798 14.7796 21.9154 14.7845 21.9507 14.7842C22.0589 14.7831 22.1323 14.7148 22.1426 14.6092C22.1529 14.499 22.0882 14.4159 21.9758 14.3978C21.9406 14.3922 21.9051 14.3909 21.8697 14.3879C19.7431 14.2108 17.6168 14.0328 15.4899 13.8596C15.3765 13.8505 15.3431 13.8216 15.3601 13.7035C15.383 13.5418 15.3135 13.4479 15.1888 13.4401C15.0692 13.4327 14.9879 13.5122 14.9882 13.6692C14.9886 13.8009 14.9382 13.8149 14.8262 13.8043C14.3149 13.7558 13.8026 13.7158 13.2904 13.6741C13.1356 13.6616 13.0488 13.7467 13.0625 13.8912C13.0723 13.9962 13.1379 14.0516 13.2709 14.0627C13.7592 14.104 14.2476 14.1443 14.7357 14.185C14.9287 14.201 14.9287 14.201 14.9277 14.3946C14.9271 14.5108 14.9961 14.5952 15.099 14.6051C15.2023 14.6146 15.2864 14.5436 15.3046 14.4299C15.3084 14.406 15.3126 14.3812 15.3103 14.3572C15.3016 14.2546 15.3431 14.2326 15.4413 14.2414C16.516 14.3342 17.5911 14.4224 18.6665 14.512Z" fill="#EDF4F7"/>
<path d="M23.8437 7.5119C23.8082 7.50992 23.7727 7.50892 23.7373 7.50598C20.027 7.19699 16.3171 6.88803 12.6068 6.57905C12.5715 6.5761 12.5362 6.57121 12.5009 6.56729C12.5562 5.8598 12.6102 5.15221 12.6676 4.44458C12.6957 4.1018 12.963 3.87332 13.3014 3.90117C14.2463 3.97856 15.1914 4.05824 16.1363 4.13693C18.5618 4.33892 20.9873 4.54091 23.4128 4.7429C23.8376 4.77829 24.0417 5.02481 24.0068 5.46235C23.9529 6.14546 23.8983 6.82884 23.8437 7.5119ZM21.0702 6.50223C21.6881 6.55369 22.3059 6.6058 22.9239 6.65628C23.0794 6.6689 23.1541 6.60492 23.1678 6.44739C23.1879 6.213 23.2064 5.97881 23.2233 5.74417C23.2354 5.57931 23.1729 5.50489 23.0099 5.49132C21.7783 5.38809 20.5462 5.28549 19.3145 5.18357C19.1512 5.16997 19.0778 5.2334 19.0642 5.39812C19.045 5.62442 19.0275 5.85053 19.0102 6.07699C18.9959 6.26582 19.0535 6.33396 19.2402 6.34951C19.8502 6.40063 20.4602 6.45143 21.0702 6.50223ZM14.4972 5.37107C14.5226 5.05876 14.2858 4.76675 13.9846 4.73938C13.674 4.71122 13.3886 4.95518 13.363 5.27106C13.3377 5.58337 13.5747 5.87573 13.8756 5.90275C14.1865 5.93126 14.4716 5.68727 14.4972 5.37107ZM16.9076 6.15557C17.2117 6.18156 17.4958 5.93814 17.5225 5.62888C17.5499 5.30989 17.312 5.01713 17.004 4.99115C16.6998 4.96517 16.4154 5.20888 16.3891 5.51784C16.362 5.83686 16.5996 6.12927 16.9076 6.15557ZM16.0101 5.49738C16.0357 5.18542 15.7987 4.89306 15.4984 4.86544C15.1878 4.83696 14.9021 5.08057 14.8762 5.39577C14.8507 5.70676 15.0891 6.00152 15.3878 6.02901C15.6978 6.05711 15.9842 5.81258 16.0101 5.49738Z" fill="#33658A"/>
<path d="M17.6684 13.255C16.2506 13.137 14.8326 13.0189 13.4148 12.9008C13.1956 12.8825 13.1462 12.8236 13.1637 12.6014C13.2925 10.9715 13.4212 9.34185 13.5499 7.71193C13.5669 7.4972 13.6263 7.44598 13.8382 7.46364C16.6858 7.70077 19.5333 7.93791 22.3811 8.17508C22.5928 8.1927 22.644 8.25345 22.627 8.46785C22.498 10.1017 22.3689 11.7355 22.2399 13.3693C22.2236 13.5753 22.1611 13.6292 21.9577 13.6122C20.5276 13.4931 19.0982 13.3741 17.6684 13.255ZM16.9493 10.4584C16.9248 10.7698 16.9011 11.081 16.875 11.3922C16.8674 11.4794 16.8825 11.5542 16.9567 11.6057C17.0311 11.6576 17.1038 11.6431 17.1798 11.6027C17.6841 11.3336 18.1897 11.0672 18.6937 10.7973C18.8826 10.6962 18.8935 10.543 18.722 10.4112C18.2699 10.0643 17.8156 9.72023 17.3639 9.37308C17.2952 9.32035 17.2275 9.29186 17.1457 9.33336C17.0636 9.37485 17.0274 9.44171 17.0212 9.53685C17.0004 9.84431 16.9736 10.1513 16.9493 10.4584Z" fill="#FE6B6B"/>
<path d="M18.6656 14.5093C17.5906 14.4198 16.5155 14.3316 15.4405 14.2384C15.3422 14.2299 15.3008 14.2516 15.3095 14.3542C15.3115 14.3782 15.3076 14.403 15.3038 14.4269C15.2856 14.5403 15.2014 14.6116 15.0982 14.6021C14.9953 14.5925 14.9263 14.5077 14.9269 14.3916C14.9279 14.198 14.9279 14.198 14.7349 14.182C14.2465 14.1413 13.7581 14.1009 13.2701 14.0596C13.1371 14.0482 13.0715 13.9928 13.0617 13.8882C13.048 13.7437 13.1348 13.6585 13.2896 13.6711C13.8018 13.7125 14.3138 13.7525 14.8254 13.8013C14.9374 13.8119 14.9878 13.7982 14.9874 13.6662C14.9871 13.5092 15.0684 13.4297 15.188 13.4371C15.3127 13.4448 15.3822 13.5388 15.3593 13.7005C15.3423 13.8185 15.3756 13.8474 15.4891 13.8566C17.616 14.0298 19.7423 14.2078 21.8689 14.3849C21.9043 14.3879 21.9402 14.3889 21.975 14.3947C22.0874 14.4129 22.1524 14.496 22.1418 14.6062C22.1318 14.7118 22.0581 14.7801 21.9499 14.7812C21.9145 14.7815 21.879 14.7766 21.8436 14.7736C20.7841 14.6857 19.7249 14.5975 18.6656 14.5093Z" fill="#33658A"/>
<path d="M21.0705 6.50227C20.4605 6.45147 19.8504 6.40099 19.2404 6.34987C19.0534 6.3343 18.9959 6.26584 19.0104 6.07735C19.0277 5.8509 19.0452 5.62479 19.0644 5.39849C19.0784 5.23379 19.1514 5.17033 19.3147 5.18393C20.5465 5.28586 21.7785 5.38846 23.0101 5.49168C23.1731 5.50525 23.236 5.5797 23.2236 5.74453C23.2063 5.97915 23.1881 6.21337 23.168 6.44775C23.1543 6.60529 23.0796 6.66926 22.9242 6.65665C22.3062 6.60551 21.6884 6.55373 21.0705 6.50227Z" fill="#DAE8ED"/>
<path d="M14.4966 5.37073C14.471 5.68693 14.1859 5.9306 13.8749 5.90274C13.5741 5.8754 13.3371 5.58337 13.3624 5.27106C13.388 4.95518 13.6731 4.71119 13.984 4.73937C14.2852 4.76641 14.5219 5.05842 14.4966 5.37073Z" fill="#5A90B7"/>
<path d="M16.9076 6.15553C16.5997 6.12924 16.3621 5.83682 16.3892 5.51748C16.4155 5.20852 16.6999 4.96513 17.0041 4.99079C17.312 5.01708 17.5499 5.30952 17.5225 5.62851C17.4958 5.93777 17.2117 6.18151 16.9076 6.15553Z" fill="#5A90B7"/>
<path d="M16.0099 5.49635C15.984 5.81156 15.6976 6.05609 15.3876 6.02799C15.089 6.00083 14.8507 5.70575 14.8762 5.39476C14.902 5.07956 15.1877 4.83627 15.4983 4.86443C15.7985 4.89204 16.0351 5.18437 16.0099 5.49635Z" fill="#5A90B7"/>
<path d="M16.951 10.4575C16.9752 10.1503 17.002 9.84338 17.0222 9.53587C17.0284 9.44072 17.0646 9.37354 17.1467 9.33238C17.2284 9.29119 17.2962 9.31936 17.3648 9.37209C17.8168 9.71926 18.271 10.0633 18.7227 10.4101C18.8945 10.542 18.8837 10.6949 18.6945 10.7963C18.1905 11.0662 17.6849 11.3326 17.1807 11.6018C17.1051 11.6421 17.0324 11.6567 16.9576 11.6047C16.8835 11.5532 16.8684 11.4785 16.8759 11.3913C16.9027 11.0804 16.9264 10.7689 16.951 10.4575Z" fill="#DAE7EC"/>
<path d="M5.13404 9.11021C6.39108 8.96548 7.64811 8.82074 8.90515 8.67601C9.09644 10.4246 9.28776 12.1735 9.47905 13.9221C9.36674 13.936 9.25424 13.9513 9.14182 13.9643C8.5345 14.0345 7.92699 14.1031 7.31982 14.1747C7.1183 14.1986 6.98103 14.3524 6.97843 14.5473C6.97593 14.7341 7.11679 14.8977 7.30476 14.9205C7.35216 14.9262 7.40155 14.9201 7.44969 14.9146C8.15382 14.8352 8.85756 14.7552 9.56166 14.6755C9.58857 14.9218 9.61551 15.1686 9.64242 15.4149C9.5301 15.4289 9.41761 15.4442 9.30518 15.4571C8.69786 15.5274 8.09036 15.596 7.48318 15.6676C7.28166 15.6915 7.14439 15.8453 7.1418 16.0402C7.1393 16.227 7.28016 16.3906 7.46813 16.4134C7.51553 16.419 7.56492 16.413 7.61306 16.4075C8.31719 16.3281 9.02093 16.2481 9.72503 16.1684C9.75193 16.4147 9.77888 16.6614 9.80578 16.9078C9.69347 16.9218 9.58097 16.9371 9.46855 16.95C8.86123 17.0203 8.25372 17.0889 7.64655 17.1605C7.44503 17.1844 7.30776 17.3382 7.30516 17.5331C7.30266 17.7199 7.44353 17.8835 7.6315 17.9063C7.67889 17.9119 7.72828 17.9059 7.77642 17.9004C8.48056 17.821 9.18429 17.741 9.88839 17.6612C9.9153 17.9076 9.94224 18.1543 9.96915 18.4007C9.85683 18.4147 9.74434 18.43 9.63191 18.4429C9.02459 18.5132 8.41709 18.5818 7.80991 18.6534C7.6084 18.6772 7.47112 18.8311 7.46853 19.026C7.46603 19.2128 7.60689 19.3764 7.79486 19.3992C7.84226 19.4048 7.89165 19.3988 7.93979 19.3932C8.64392 19.3139 9.34766 19.2338 10.0518 19.1541C10.1336 19.9063 10.2154 20.6584 10.2972 21.4106C10.2531 21.417 10.2091 21.4247 10.1649 21.4298C9.02933 21.5609 7.89409 21.6916 6.75849 21.8221C6.03613 21.9052 5.5326 21.4912 5.45134 20.747C5.16353 18.1117 4.87568 15.4759 4.58786 12.8406C4.49734 12.0116 4.40426 11.1833 4.31729 10.354C4.26985 9.91068 4.42932 9.55564 4.77536 9.28854C4.88368 9.20503 5.01374 9.16784 5.13404 9.11021Z" fill="#6492C6"/>
<path d="M13.9827 11.4935C13.9885 11.5349 13.995 11.5759 13.9995 11.6175C14.2947 14.3207 14.5903 17.0242 14.8852 19.7275C14.9573 20.3875 14.5397 20.9251 13.8978 20.999C12.7416 21.1325 11.5853 21.2652 10.4291 21.3984C10.3848 21.4035 10.3402 21.4059 10.2958 21.4097C10.214 20.6575 10.1322 19.9054 10.0504 19.1532L10.047 19.1462C10.2962 19.1189 10.5458 19.0945 10.7945 19.0628C10.9885 19.0381 11.118 18.8556 11.0957 18.6511C11.0733 18.4463 10.908 18.2983 10.7132 18.3184C10.4638 18.3441 10.2152 18.3771 9.96629 18.4071L9.96808 18.3995C9.94117 18.1531 9.91422 17.9064 9.88732 17.66L9.88393 17.653C10.6203 17.5695 11.357 17.4881 12.0933 17.4006C12.2799 17.3784 12.405 17.1906 12.3831 16.9908C12.3613 16.791 12.1989 16.6366 12.0121 16.6575C11.2755 16.7396 10.5396 16.8277 9.80321 16.9138L9.805 16.9062C9.77809 16.6598 9.75115 16.4131 9.72424 16.1667L9.72085 16.1597C10.4573 16.0763 11.1939 15.9948 11.9302 15.9073C12.1168 15.8852 12.2419 15.6974 12.2201 15.4976C12.1982 15.2977 12.0358 15.1434 11.849 15.1642C11.1125 15.2463 10.3766 15.3344 9.64013 15.4206L9.64192 15.4129C9.61501 15.1666 9.58807 14.9199 9.56116 14.6735L9.55778 14.6665C10.2942 14.583 11.0308 14.5016 11.7668 14.4141C11.9534 14.392 12.0785 14.2042 12.0567 14.0043C12.0348 13.8045 11.8724 13.6502 11.6856 13.671C10.9491 13.7531 10.2132 13.8412 9.47705 13.9273L9.47884 13.9197C9.28755 12.1711 9.09622 10.4222 8.90494 8.67364C9.38856 8.61796 9.87186 8.56231 10.3555 8.50663C10.4487 9.36048 10.5417 10.2147 10.6356 11.0685C10.6883 11.5479 11.0288 11.8292 11.4931 11.7761C12.323 11.6836 13.153 11.5884 13.9827 11.4935Z" fill="#467BB7"/>
<path d="M13.982 11.4947C13.1524 11.5895 12.3226 11.6847 11.4929 11.7793C11.029 11.832 10.6883 11.5511 10.6356 11.0716C10.542 10.2178 10.4487 9.36362 10.3555 8.50977C10.3878 8.50605 10.4201 8.50233 10.4521 8.49865C10.5579 8.54235 10.6478 8.61078 10.7362 8.68342C11.7562 9.5235 12.7774 10.3624 13.7988 11.2007C13.8936 11.2779 13.9743 11.3616 13.982 11.4947Z" fill="#6492C6"/>
<path d="M9.56044 14.6739C8.85647 14.754 8.15284 14.834 7.44876 14.913C7.40063 14.9186 7.35125 14.9246 7.30386 14.9189C7.11592 14.8961 6.97507 14.7325 6.97756 14.5457C6.98016 14.3508 7.11773 14.197 7.3189 14.1731C7.92599 14.1015 8.53341 14.033 9.14064 13.9627C9.25305 13.9498 9.36557 13.9348 9.47783 13.9205L9.47605 13.9281C9.50295 14.1745 9.52982 14.4206 9.55673 14.6669L9.56044 14.6739Z" fill="#7CACE2"/>
<path d="M9.72352 16.1661C9.01956 16.2461 8.31592 16.3262 7.61185 16.4052C7.56372 16.4107 7.51433 16.4168 7.46694 16.4111C7.279 16.3883 7.13816 16.2247 7.14065 16.0379C7.14324 15.843 7.28082 15.6892 7.48198 15.6653C8.08907 15.5937 8.69649 15.5251 9.30373 15.4549C9.41614 15.4419 9.52865 15.427 9.64092 15.4127L9.63913 15.4203C9.66604 15.6667 9.69291 15.9127 9.71982 16.1591L9.72352 16.1661Z" fill="#7CACE2"/>
<path d="M9.88661 17.6602C9.18265 17.7403 8.47901 17.8203 7.77494 17.8993C7.72681 17.9049 7.67742 17.9109 7.63003 17.9052C7.44209 17.8824 7.30124 17.7189 7.30374 17.5321C7.30633 17.3372 7.4439 17.1833 7.64507 17.1595C8.25216 17.0879 8.85958 17.0193 9.46681 16.949C9.57922 16.9361 9.69174 16.9211 9.804 16.9068L9.80222 16.9145C9.82913 17.1608 9.856 17.4069 9.8829 17.6533L9.88661 17.6602Z" fill="#7CACE2"/>
<path d="M10.0497 19.1524C9.34573 19.2325 8.64209 19.3125 7.93802 19.3915C7.88989 19.3971 7.84051 19.4031 7.79312 19.3974C7.60517 19.3746 7.46433 19.2111 7.46682 19.0243C7.46941 18.8294 7.60699 18.6755 7.80816 18.6516C8.41525 18.5801 9.02266 18.5115 9.6299 18.4412C9.74231 18.4283 9.85482 18.4133 9.96709 18.399L9.9653 18.4066C9.99221 18.653 10.0191 18.8991 10.046 19.1454L10.0497 19.1524Z" fill="#7CACE2"/>
<path d="M9.55855 14.6676C9.53164 14.4212 9.50477 14.1752 9.47787 13.9288C10.2139 13.8427 10.9497 13.7546 11.6864 13.6725C11.8735 13.6516 12.0359 13.8059 12.0574 14.0058C12.0793 14.2056 11.9542 14.3931 11.7676 14.4156C11.0314 14.5027 10.2948 14.5838 9.55855 14.6676Z" fill="#568ECC"/>
<path d="M9.72164 16.1617C9.69473 15.9153 9.66786 15.6693 9.64095 15.4229C10.377 15.3368 11.1128 15.2487 11.8495 15.1666C12.0366 15.1457 12.199 15.3001 12.2205 15.5C12.2424 15.6998 12.1173 15.8872 11.9307 15.9097C11.1945 15.9969 10.4579 16.0783 9.72164 16.1617Z" fill="#568ECC"/>
<path d="M9.88472 17.6539C9.85782 17.4075 9.83095 17.1615 9.80404 16.9151C10.54 16.829 11.2758 16.7409 12.0126 16.6588C12.1997 16.6379 12.3621 16.7923 12.3836 16.9921C12.4054 17.192 12.2804 17.3794 12.0938 17.4019C11.3575 17.4891 10.621 17.5702 9.88472 17.6539Z" fill="#568ECC"/>
<path d="M10.0469 19.1448C10.02 18.8985 9.99313 18.6524 9.96622 18.406C10.2151 18.376 10.4637 18.343 10.7131 18.3174C10.9078 18.2973 11.0734 18.4452 11.0955 18.6501C11.1178 18.8546 10.9882 19.0368 10.7944 19.0618C10.5456 19.0932 10.2961 19.1175 10.0469 19.1448Z" fill="#568ECC"/>
<path d="M13.0852 22.902C13.243 20.7516 13.4008 18.6009 13.5586 16.4505C13.5853 16.4486 13.6055 16.4368 13.6076 16.4081C13.6147 16.3081 13.6635 16.2229 13.7012 16.1347C13.9148 15.6341 14.4906 15.2787 15.0206 15.3197C18.1666 15.5628 21.3123 15.8064 24.4583 16.0491C24.5576 16.0568 24.6539 16.0794 24.7461 16.1131C25.2512 16.2984 25.5646 16.6598 25.6813 17.1969C25.6882 17.2287 25.685 17.2634 25.7275 17.2699C25.5911 19.1293 25.4546 20.9888 25.3182 22.8482C24.2023 21.5209 23.0867 20.1934 21.9704 18.8663C21.5832 18.4061 21.0621 18.3665 20.6123 18.762C19.7716 19.501 18.931 20.2403 18.0905 20.9796C17.8897 20.7895 17.7277 20.5641 17.5486 20.3542C17.1471 19.8835 16.6342 19.8409 16.1732 20.2463C15.1886 21.1121 14.205 21.9779 13.2207 22.8435C13.1849 22.875 13.1467 22.9038 13.1096 22.9337C13.1016 22.923 13.0933 22.9124 13.0852 22.902ZM15.933 19.0293C16.4938 19.0744 16.975 18.6542 17.0192 18.0811C17.0634 17.5076 16.652 17.0098 16.0958 16.9641C15.5339 16.9177 15.0428 17.3462 15.0004 17.9198C14.9581 18.4899 15.3737 18.9843 15.933 19.0293Z" fill="#EBEEF0"/>
<path d="M18.0904 20.9781C18.931 20.2388 19.7715 19.4995 20.6123 18.7604C21.062 18.3652 21.5829 18.4045 21.9703 18.8648C23.0867 20.1916 24.2023 21.5191 25.3181 22.8466C25.2831 23.3236 25.2481 23.8005 25.2131 24.2775C25.1699 24.313 25.1697 24.3685 25.1535 24.4159C24.964 24.9762 24.4089 25.3912 23.8326 25.3593C23.0859 25.3179 22.3406 25.2466 21.5947 25.1881C21.5653 25.1502 21.537 25.1113 21.5063 25.0745C20.3953 23.752 19.2839 22.4297 18.1732 21.107C18.1407 21.068 18.0947 21.0366 18.0904 20.9781Z" fill="#388E3C" fill-opacity="0.47"/>
<path d="M21.5941 25.1911C21.5467 25.1889 21.4992 25.1881 21.4519 25.1845C19.0987 25.0027 16.7459 24.8165 14.3925 24.641C13.7128 24.5904 13.0308 23.9739 13.0939 23.104C13.0981 23.0474 13.1039 22.9911 13.1092 22.9346C13.1463 22.9047 13.1845 22.8759 13.2202 22.8444C14.2043 21.9788 15.1882 21.113 16.1725 20.2476C16.6338 19.842 17.1467 19.8849 17.5479 20.3555C17.727 20.5654 17.889 20.7907 18.0898 20.981C18.0938 21.0397 18.14 21.0712 18.1726 21.1099C19.2832 22.4328 20.3947 23.7549 21.5057 25.0774C21.5364 25.114 21.5646 25.1531 21.5941 25.1911Z" fill="#4CAE50" fill-opacity="0.63"/>
<path d="M15.9317 19.0308C15.3724 18.9858 14.957 18.4914 14.9993 17.9213C15.0418 17.3477 15.5327 16.9192 16.0945 16.9656C16.6506 17.0115 17.0618 17.5091 17.0178 18.0826C16.9736 18.6557 16.4924 19.0761 15.9317 19.0308Z" fill="#FEC108"/>
</svg>
