<svg width="30" height="30" viewBox="0 0 30 30" fill="none" xmlns="http://www.w3.org/2000/svg">
<path d="M18.4173 17.3706C17.1826 18.0908 16.2812 19.0782 15.8068 20.4128C15.3324 21.7474 15.4097 23.0841 15.9527 24.4059C15.8918 24.4118 15.8363 24.4183 15.7806 24.422C14.6901 24.4949 13.5983 24.5192 12.5054 24.4949C11.7203 24.4763 10.9345 24.4428 10.1513 24.3855C8.723 24.2779 7.32316 24.0227 5.96452 23.5629C5.58602 23.4345 5.20388 23.3146 4.83013 23.1738C4.59814 23.0882 4.39164 22.9452 4.22994 22.7581C4.07711 22.5819 3.99524 22.3551 4.00021 22.1218C4.00021 21.4779 4.18691 20.8821 4.49904 20.3264C5.15539 19.1595 6.10344 18.3001 7.28268 17.6835C8.00722 17.305 8.76165 16.998 9.52885 16.719C9.88182 16.5907 10.237 16.4681 10.5896 16.338C10.6556 16.3135 10.692 16.3277 10.7376 16.3744C11.189 16.8484 11.7145 17.2105 12.3464 17.3972C13.1143 17.6238 13.8558 17.5516 14.5707 17.1806C14.9582 16.9775 15.3118 16.7154 15.6187 16.4036C15.6308 16.3908 15.6457 16.3809 15.6621 16.3746C15.6786 16.3683 15.6963 16.3657 15.7138 16.3671C16.5518 16.6698 17.3887 16.9751 18.2247 17.2831C18.2845 17.3083 18.3432 17.3382 18.4173 17.3706Z" fill="#C7D0D6"/>
<path d="M13.3356 5.0625C14.2855 5.10626 15.2496 5.46615 15.9975 6.29461C16.3931 6.73218 16.6462 7.25798 16.8117 7.8239C16.9457 8.29731 17.0273 8.78396 17.0553 9.27516C17.0804 9.65073 17.0917 10.027 17.1133 10.4026C17.1145 10.4418 17.1272 10.4799 17.1497 10.512C17.347 10.7702 17.398 11.0659 17.3805 11.3806C17.3594 11.7656 17.2598 12.1368 17.1377 12.4975C17.0174 12.8502 16.8738 13.1946 16.7078 13.5283C16.4011 14.142 16.0959 14.7619 15.7473 15.3529C15.4108 15.9246 14.9172 16.3877 14.3252 16.6871C13.5081 17.1072 12.7004 17.0682 11.9124 16.608C11.2977 16.2489 10.8327 15.7402 10.4863 15.1225C10.0356 14.3177 9.61121 13.4984 9.28887 12.6331C9.1153 12.1656 8.98075 11.6796 9.00226 11.1684C9.00945 10.9363 9.08632 10.7118 9.22287 10.524C9.24925 10.4849 9.26496 10.4395 9.26845 10.3924C9.31111 9.8418 9.33336 9.28938 9.39498 8.74133C9.46003 8.12115 9.64086 7.51868 9.92808 6.96518C10.327 6.20491 10.9491 5.69879 11.729 5.36989C12.2184 5.1635 12.7223 5.0625 13.3356 5.0625Z" fill="#C7D0D6"/>
<path d="M21.0328 27.0619C18.3964 27.0689 16.2447 24.9368 16.2152 22.3012C16.2077 21.6668 16.3255 21.0371 16.562 20.4483C16.7985 19.8596 17.1489 19.3233 17.5932 18.8703C18.0374 18.4173 18.5668 18.0565 19.1509 17.8087C19.735 17.5608 20.3622 17.4307 20.9967 17.4259C21.6312 17.4211 22.2603 17.5417 22.8481 17.7807C23.4359 18.0197 23.9706 18.3724 24.4217 18.8186C24.8728 19.2648 25.2313 19.7957 25.4766 20.3809C25.722 20.966 25.8494 21.5938 25.8515 22.2283C25.8609 24.9033 23.6862 27.0703 21.0328 27.0619ZM21.6118 18.9776L21.5721 18.9444C21.4832 18.8626 21.3757 18.8036 21.259 18.7726C21.1422 18.7415 21.0197 18.7393 20.9019 18.7661L20.8479 18.7752C20.5314 18.8036 20.1974 19.1595 20.1781 19.4895C20.1781 19.5019 20.1762 19.5143 20.1751 19.526C20.1699 19.5615 20.1665 19.5973 20.1649 19.6332C20.1649 20.1721 20.1649 20.7113 20.1649 21.2507C20.1649 21.37 20.1649 21.3696 20.0486 21.3696C19.5138 21.3696 18.9778 21.3696 18.4406 21.3696C18.3928 21.372 18.3452 21.3771 18.298 21.3849L18.2429 21.39L17.9567 21.5074C17.9523 21.5074 17.9494 21.5074 17.9487 21.5129L17.852 21.5833C17.8496 21.5827 17.847 21.583 17.8448 21.5842C17.8425 21.5854 17.8408 21.5874 17.84 21.5898L17.813 21.6146L17.8181 21.6208L17.8127 21.615C17.6654 21.7418 17.5743 21.9218 17.5592 22.1156L17.5538 22.1521C17.5538 22.2185 17.5538 22.2845 17.5538 22.3508C17.556 22.3625 17.5578 22.3745 17.5596 22.3873L17.6748 22.6969L17.7047 22.7439C17.7044 22.7448 17.7043 22.7457 17.7043 22.7467C17.7044 22.7476 17.7047 22.7485 17.7052 22.7494C17.7057 22.7502 17.7064 22.7509 17.7072 22.7514C17.708 22.7519 17.7089 22.7522 17.7098 22.7523L17.7605 22.8146C17.7604 22.8158 17.7606 22.817 17.7609 22.8181C17.7613 22.8193 17.7619 22.8203 17.7627 22.8212C17.7635 22.8221 17.7644 22.8228 17.7655 22.8233C17.7666 22.8238 17.7677 22.8241 17.7689 22.8241C17.8646 22.9458 17.9982 23.032 18.1485 23.0692L18.185 23.0768L18.3498 23.1071L18.5321 23.1122C18.5645 23.1151 18.5974 23.1213 18.6298 23.1213H20.0402C20.162 23.1213 20.162 23.1213 20.162 23.2471C20.162 23.7843 20.162 24.3213 20.162 24.8581C20.162 24.8905 20.1686 24.9233 20.1719 24.9558L20.1755 24.9923C20.1795 25.016 20.1839 25.0393 20.1883 25.063L20.1981 25.0995L20.2167 25.1491C20.2211 25.1629 20.2251 25.1771 20.2295 25.191L20.3914 25.4455L20.4278 25.4845L20.476 25.5268C20.6922 25.7602 21.1553 25.8094 21.4444 25.63H21.4466C21.4547 25.6253 21.463 25.6209 21.4714 25.6165C21.474 25.6168 21.4766 25.616 21.4787 25.6145C21.4808 25.6129 21.4822 25.6107 21.4827 25.6081L21.501 25.595L21.6527 25.4732L21.7187 25.3941C21.7235 25.3941 21.7253 25.3915 21.7241 25.3864C21.7431 25.3635 21.7704 25.3438 21.7796 25.3175C21.827 25.1822 21.8693 25.0451 21.913 24.9088C21.9177 24.9299 21.9225 24.9511 21.9269 24.9718H21.9378V24.8727C21.9378 24.3359 21.94 23.7992 21.9378 23.2624C21.9378 23.1735 21.9644 23.153 22.0501 23.153C22.5869 23.1567 23.1232 23.1556 23.6596 23.153C23.6948 23.1475 23.7289 23.1368 23.761 23.1213C23.8102 23.1075 23.8598 23.0936 23.9094 23.0805C24.2321 22.994 24.5045 22.6611 24.5194 22.3348V22.1718C24.5001 21.9246 24.4035 21.7185 24.1964 21.572L24.177 21.5523C24.0318 21.4314 23.8474 21.368 23.6585 21.374H22.0038C21.952 21.374 21.8919 21.3842 21.9134 21.2978C21.9241 21.2746 21.9316 21.2501 21.9356 21.2248C21.9371 20.6657 21.9371 20.1066 21.9356 19.5475C21.9356 19.5238 21.913 19.5001 21.8992 19.4768C21.8878 19.4425 21.8762 19.4086 21.8656 19.3739C21.8251 19.2456 21.7723 19.1245 21.6647 19.0363L21.6096 18.9808L21.6118 18.9776Z" fill="#498CC7"/>
</svg>
