<svg width="30" height="30" viewBox="0 0 30 30" fill="none" xmlns="http://www.w3.org/2000/svg">
<path d="M25.9955 13.4141C25.8534 13.5819 25.72 13.7583 25.565 13.9132C24.5578 14.9286 23.5419 15.9396 22.5303 16.9507C22.0654 17.4196 21.7727 17.4153 21.2992 16.9421C21.1873 16.8302 21.071 16.7227 20.9591 16.6151C20.0422 15.6944 19.1211 14.7737 18.2042 13.8487C17.8598 13.5045 17.5198 13.156 17.1797 12.8118C17.2356 12.7473 17.2916 12.6827 17.3519 12.6225C18.6734 11.3017 19.9906 9.98514 21.3121 8.66431C21.3724 8.60408 21.424 8.53524 21.48 8.4707C21.5445 8.52663 21.6134 8.57826 21.6737 8.6385C22.9737 9.93351 24.2737 11.2328 25.565 12.5321C25.72 12.687 25.8491 12.8634 25.9912 13.0312C25.9955 13.156 25.9955 13.2851 25.9955 13.4141Z" fill="#00C1F3"/>
<path d="M21.4842 8.46586C21.4282 8.5304 21.3766 8.59924 21.3163 8.65947C19.9948 9.9803 18.6776 11.2968 17.3561 12.6177C17.2958 12.6779 17.2399 12.7424 17.1839 12.807C17.171 12.807 17.1581 12.807 17.1495 12.8027C17.1279 12.7725 17.1107 12.7424 17.0849 12.7166C15.9011 11.5292 14.7131 10.346 13.5293 9.16285C13.4862 9.11983 13.426 9.09401 13.3743 9.05529C13.2452 8.91331 13.1247 8.76703 12.9912 8.62935C12.6253 8.25505 12.6253 7.90225 12.9912 7.53225C14.0545 6.46956 15.1134 5.40688 16.1809 4.34849C16.3144 4.21512 16.4822 4.11616 16.6329 4C16.7319 4 16.8352 4 16.9342 4C17.0849 4.11616 17.2528 4.21512 17.3862 4.34419C18.7034 5.65211 20.0163 6.96864 21.3292 8.28517C21.3809 8.3497 21.4325 8.40993 21.4842 8.46586Z" fill="#AFE2FA"/>
<path d="M17.1451 12.7988C17.158 12.8031 17.1709 12.8031 17.1795 12.8031C17.5196 13.1473 17.8596 13.4958 18.204 13.84C19.1209 14.7607 20.042 15.6857 20.9589 16.6064C20.6146 17.2733 20.2702 17.9359 19.9258 18.6027C19.0864 20.2419 18.2427 21.8811 17.4205 23.529C17.2484 23.8731 17.0073 24.0409 16.6371 24.1012C14.2179 24.4798 11.803 24.8713 9.38387 25.2542C7.94613 25.4822 6.5084 25.7146 5.07066 25.9426C5.00609 25.9512 4.94152 25.9469 4.87695 25.9512C5.019 25.835 5.17397 25.7318 5.30741 25.6027C8.1011 22.8148 10.8905 20.0268 13.6755 17.2389C13.7832 17.1313 13.8822 17.0711 14.0414 17.0625C14.4805 17.0496 14.7861 16.8086 14.9411 16.4128C15.1004 16.0041 15.0315 15.6126 14.7087 15.2942C14.7043 15.2813 14.7043 15.2684 14.7 15.2555C15.3027 14.6575 15.9053 14.0637 16.508 13.4614C16.7232 13.242 16.9341 13.0182 17.1451 12.7988Z" fill="#FBA92D"/>
<path d="M17.1475 12.8013C16.9366 13.0207 16.7257 13.2444 16.5105 13.4595C15.9078 14.0576 15.3052 14.6556 14.7025 15.2536C14.6552 15.2235 14.6121 15.1891 14.5648 15.159C14.2247 14.9438 13.8631 14.9137 13.5058 15.0944C13.1615 15.2665 12.9592 15.5591 12.9419 15.9463C12.9376 16.1055 12.8774 16.2087 12.7741 16.3163C9.98469 19.0913 7.19961 21.875 4.41884 24.6629C4.2811 24.8006 4.16487 24.9684 4.04004 25.1233C4.13474 24.5123 4.22514 23.8971 4.32414 23.2861C4.50063 22.1503 4.68142 21.0188 4.86222 19.8873C5.02149 18.8805 5.18506 17.8738 5.34864 16.867C5.52943 15.7355 5.72314 14.604 5.88671 13.4681C5.94698 13.0336 6.12346 12.7539 6.5324 12.5474C8.77079 11.4288 10.9963 10.2844 13.226 9.14855C13.2777 9.12273 13.3251 9.09262 13.3767 9.0625C13.4284 9.09692 13.4886 9.12273 13.5317 9.17006C14.7197 10.3532 15.9035 11.5407 17.0873 12.7238C17.1088 12.741 17.1303 12.7754 17.1475 12.8013Z" fill="#FFE080"/>
<path d="M14.7069 15.2969C15.0341 15.6196 15.1029 16.0068 14.9394 16.4155C14.7844 16.8113 14.4788 17.0522 14.0397 17.0652C13.8804 17.0695 13.7771 17.134 13.6738 17.2415C10.8887 20.0295 8.09936 22.8174 5.30998 25.6054C5.18085 25.7344 5.02588 25.8377 4.87952 25.9539C4.61694 26.0571 4.40171 26.0012 4.20801 25.7861C4.25966 25.7258 4.30701 25.6656 4.36297 25.6097C7.74639 22.228 11.1298 18.8463 14.5132 15.4647C14.5735 15.4044 14.6423 15.3528 14.7069 15.2969Z" fill="#DB226E"/>
<path d="M14.7082 15.2937C14.6436 15.3496 14.5748 15.4013 14.5145 15.4615C11.1311 18.8432 7.74768 22.2248 4.36426 25.6065C4.3083 25.6624 4.26095 25.7227 4.2093 25.7829C4.01559 25.5979 3.9295 25.3871 4.03711 25.1246C4.16195 24.9697 4.27387 24.8063 4.41592 24.6643C7.19669 21.8763 9.98176 19.0927 12.7711 16.3134C12.8788 16.2058 12.9347 16.1069 12.939 15.9434C12.9519 15.5562 13.1543 15.2636 13.5029 15.0915C13.8645 14.9108 14.2218 14.9452 14.5619 15.156C14.6092 15.1861 14.6566 15.2206 14.6996 15.2507C14.7039 15.2679 14.7082 15.2808 14.7082 15.2937Z" fill="#EE2B79"/>
</svg>
