<svg width="30" height="30" viewBox="0 0 30 30" fill="none" xmlns="http://www.w3.org/2000/svg">
<path d="M5.01224 9.19883C5.0542 8.56244 4.9269 7.77935 5.07056 7.00831C5.28747 5.83899 6.28097 5.02331 7.48285 5.01622C8.75016 5.00842 10.0175 5.01268 11.2848 5.0148C11.8502 5.01551 12.2427 5.35213 12.2498 5.83191C12.257 6.32656 11.9056 6.67098 11.3146 6.67949C10.1426 6.6972 8.96991 6.68586 7.79719 6.68728C6.88689 6.68799 6.66714 6.90697 6.66714 7.81337C6.66714 8.96993 6.66927 10.1265 6.66572 11.2823C6.66429 11.8883 6.34142 12.2518 5.82582 12.2426C5.32516 12.2341 5.01509 11.8713 5.01224 11.2852C5.01011 10.6367 5.01224 9.98759 5.01224 9.19883Z" fill="#617E8C"/>
<path d="M24.9873 9.3821C24.9873 10.0546 24.9951 10.7272 24.9844 11.3997C24.978 11.8129 24.7405 12.1133 24.375 12.2189C24.0613 12.3096 23.6965 12.1807 23.4903 11.9121C23.3438 11.7207 23.3317 11.4996 23.3324 11.2729C23.3338 10.0929 23.3338 8.91296 23.3324 7.73301C23.331 6.94142 23.0806 6.68771 22.2998 6.687C21.2102 6.68559 20.1207 6.68771 19.0312 6.68559C18.8541 6.68488 18.6756 6.67992 18.5 6.65866C18.0427 6.60196 17.7376 6.25613 17.7504 5.82242C17.7632 5.40359 18.1074 5.02515 18.5469 5.02161C19.9444 5.00885 21.3439 4.97342 22.7385 5.03578C23.9973 5.09177 24.9631 6.17817 24.9859 7.43678C24.9965 8.08381 24.9873 8.73295 24.9873 9.3821Z" fill="#617E8C"/>
<path d="M5.01131 20.6344C5.01131 19.9853 5.00775 19.3361 5.01202 18.6877C5.01557 18.1151 5.34769 17.7522 5.85262 17.7579C6.3412 17.7635 6.66194 18.1165 6.66407 18.6749C6.66905 19.8782 6.66478 21.0823 6.6662 22.2856C6.66692 23.0503 6.92507 23.3125 7.68105 23.3139C8.78265 23.316 9.88426 23.3132 10.9852 23.3153C11.1509 23.3153 11.3173 23.3203 11.4815 23.3401C11.9474 23.3954 12.2503 23.7242 12.2489 24.1615C12.2475 24.5924 11.8926 24.9779 11.4339 24.9814C10.0485 24.9935 8.66104 25.0247 7.27781 24.9694C6.0233 24.9191 5.03904 23.8341 5.01415 22.5818C5.00135 21.9327 5.01202 21.2835 5.01131 20.6344Z" fill="#617E8C"/>
<path d="M24.9879 20.7941C24.9459 21.4319 25.0725 22.2143 24.9303 22.9853C24.7169 24.1426 23.7333 24.9696 22.5578 24.981C21.2549 24.9937 19.952 24.988 18.6499 24.9824C18.14 24.9803 17.7609 24.6287 17.7503 24.1717C17.7396 23.7117 18.0589 23.3475 18.5745 23.3361C19.829 23.3078 21.0842 23.3177 22.3395 23.3106C22.5635 23.3092 22.7896 23.3191 22.9859 23.1767C23.2761 22.9655 23.3337 22.6615 23.3337 22.3312C23.333 21.0924 23.3351 19.8537 23.333 18.6142C23.3322 18.262 23.4773 17.9948 23.7924 17.8382C24.0932 17.688 24.3926 17.7248 24.6607 17.9247C24.9075 18.1089 24.99 18.3733 24.9886 18.6716C24.9864 19.3335 24.9879 19.9947 24.9879 20.7941Z" fill="#617E8C"/>
<path fill-rule="evenodd" clip-rule="evenodd" d="M7.92701 11.0888C7.92701 10.8668 7.9267 10.6448 7.9264 10.4228C7.92566 9.88976 7.92492 9.35662 7.92843 8.82384C7.93199 8.26965 8.27975 7.92311 8.83873 7.92098C10.1651 7.91673 11.4907 7.91744 12.817 7.92027C13.3661 7.92169 13.7337 8.23634 13.7401 8.77848C13.7572 10.3354 13.7579 11.8924 13.7387 13.4494C13.7323 13.9795 13.371 14.2892 12.8426 14.2906C11.5049 14.2941 10.1672 14.2941 8.82878 14.2906C8.25771 14.2892 7.93128 13.9596 7.92843 13.3884C7.92539 12.8412 7.92597 12.2937 7.92655 11.746C7.92678 11.527 7.92701 11.3079 7.92701 11.0888ZM12.0576 10.7689V10.7689V10.7688V10.7688V10.7688V10.7688V10.7688C12.056 10.4675 12.0544 10.166 12.0625 9.86488C12.0675 9.67071 12.0084 9.59346 11.8029 9.597C11.1529 9.60692 10.5022 9.60834 9.85215 9.59629C9.62885 9.59204 9.57195 9.67708 9.57409 9.88614C9.58333 10.711 9.58333 11.5352 9.57409 12.3601C9.57195 12.5727 9.64165 12.6528 9.85927 12.65C10.5093 12.6401 11.16 12.6394 11.81 12.6507C12.0255 12.6542 12.066 12.5607 12.0618 12.375C12.0552 12.0818 12.0565 11.7889 12.0578 11.4962V11.4961V11.496V11.496V11.4959V11.4959C12.0584 11.3762 12.0589 11.2566 12.0589 11.137C12.0589 11.0144 12.0583 10.8918 12.0576 10.7692V10.7692V10.7691V10.769V10.7689ZM12.082 16.7757L11.1582 16.7759C10.3884 16.7762 9.61856 16.7765 8.84903 16.775C8.30001 16.7743 7.93446 16.449 7.92593 15.9643C7.91739 15.4625 8.28009 15.1344 8.85259 15.1337L9.85196 15.1326C11.2953 15.1308 12.7386 15.129 14.1814 15.1394C14.4737 15.1415 14.5619 15.0664 14.5597 14.768C14.5473 13.2711 14.5501 11.7743 14.5529 10.2774V10.2772L14.5541 9.63577C14.5548 9.14394 14.8499 8.75488 15.2482 8.70102C15.7822 8.62874 16.2274 8.97032 16.231 9.51458C16.2438 11.6619 16.2431 13.8092 16.231 15.9565C16.2282 16.4582 15.8633 16.7729 15.3506 16.7743C14.5583 16.7769 13.766 16.7764 12.9737 16.776C12.6765 16.7758 12.3792 16.7757 12.082 16.7757ZM22.0774 19.7626C22.0771 19.5557 22.0768 19.3488 22.0768 19.1418C22.0768 18.9537 22.0772 18.7656 22.0776 18.5774C22.0786 18.0934 22.0796 17.609 22.074 17.1242C22.069 16.5927 21.7398 16.2681 21.2106 16.2646C20.6189 16.261 20.0265 16.2603 19.4348 16.2653C18.9456 16.2695 18.5964 16.6111 18.5928 17.076C18.59 17.5373 18.9448 17.8931 19.4256 17.9044C19.6624 17.9101 19.8999 17.9158 20.1361 17.903C20.3395 17.8917 20.4355 17.9413 20.4305 18.1723C20.417 18.8208 20.4184 19.4699 20.4298 20.1183C20.4333 20.3352 20.3608 20.4054 20.1446 20.4018C19.5173 20.3905 18.8894 20.3855 18.2621 20.4039C17.9933 20.4117 17.9158 20.3253 17.9236 20.0631C17.9414 19.4742 17.94 18.8838 17.9257 18.2942C17.9122 17.7195 17.5694 17.3439 17.0887 17.341C16.5823 17.3382 16.2459 17.7223 16.2445 18.314L16.2445 18.3151C16.2424 19.2587 16.2403 20.2016 16.2452 21.1452C16.2488 21.7292 16.5909 22.0764 17.1669 22.0778C18.4933 22.0814 19.8189 22.0814 21.1452 22.0778C21.7269 22.0764 22.0726 21.7327 22.0761 21.1587C22.0786 20.6932 22.078 20.2281 22.0774 19.7629V19.7628V19.7627V19.7626V19.7626ZM11.4378 17.3951H11.4379H11.4382C11.9228 17.3944 12.4075 17.3937 12.8919 17.3972C13.4231 17.4014 13.7524 17.7217 13.7574 18.2582C13.7659 19.2369 13.7666 20.2156 13.7574 21.195C13.7524 21.7279 13.394 22.0752 12.8578 22.0766C11.52 22.0815 10.1823 22.0808 8.84462 22.0766C8.2707 22.0752 7.93005 21.7251 7.92791 21.144C7.92507 20.2007 7.92507 19.2567 7.92791 18.3135C7.93005 17.7161 8.24723 17.3986 8.84319 17.3958C9.28486 17.3943 9.72652 17.3948 10.1684 17.3953H10.1686H10.1687H10.1689C10.39 17.3955 10.6111 17.3958 10.8323 17.3958C11.0341 17.3958 11.2359 17.3955 11.4377 17.3951H11.4378H11.4378ZM10.7434 19.0378C10.6334 19.0537 10.5006 19.0378 10.3619 19.0213C10.1063 18.9907 9.83057 18.9577 9.63971 19.1171C9.49522 19.238 9.52429 19.4941 9.55393 19.7551C9.56878 19.8859 9.58377 20.0179 9.57712 20.1348C9.57677 20.1408 9.57695 20.1467 9.57712 20.1525C9.5773 20.1584 9.57748 20.1642 9.57712 20.1702C9.56219 20.3346 9.63188 20.402 9.80185 20.4005C10.4867 20.3949 11.1716 20.3949 11.8564 20.3998C12.0328 20.4013 12.0783 20.3176 12.0748 20.161C12.0684 19.8669 12.0655 19.5728 12.0762 19.2787C12.0826 19.0952 12.0136 19.0293 11.8301 19.0349C11.6021 19.0418 11.3735 19.0405 11.1136 19.0391C10.9974 19.0384 10.8749 19.0378 10.7434 19.0378ZM17.0126 9.96169L17.0126 9.96267C17.0131 10.131 17.0136 10.2994 17.0136 10.4677C17.0136 10.6371 17.0132 10.8066 17.0129 10.9761V10.9761V10.9761V10.9764C17.0121 11.3492 17.0113 11.722 17.0143 12.0941C17.0193 12.6526 17.3272 12.9927 17.8798 12.9998C18.98 13.0147 20.0808 13.0154 21.181 12.9998C21.7471 12.992 22.0721 12.6398 22.0743 12.0764C22.0785 10.9921 22.0785 9.90714 22.0743 8.82287C22.0721 8.2701 21.7229 7.92355 21.164 7.92143C20.0752 7.91718 18.9871 7.91647 17.8983 7.92143C17.3514 7.92355 17.0214 8.25592 17.015 8.80586C17.0105 9.19083 17.0116 9.57615 17.0126 9.96157V9.96163V9.96169ZM19.5852 11.3167H19.514C19.0893 11.3167 18.876 11.3167 18.7688 11.21C18.6606 11.1024 18.6606 10.886 18.6606 10.4514C18.6606 9.59958 18.6606 9.59958 19.5318 9.59958C19.9828 9.59958 20.2063 9.59958 20.317 9.71131C20.4258 9.82105 20.4258 10.0386 20.4258 10.4698C20.4258 11.3167 20.4258 11.3167 19.5852 11.3167ZM20.1483 13.7789L20.1486 13.7789H20.1487C20.565 13.7775 20.9812 13.7762 21.3971 13.7815C21.9461 13.7886 22.2939 14.1274 22.2825 14.6241C22.2711 15.1039 21.9219 15.4228 21.3893 15.4257C20.5373 15.4299 19.6846 15.4335 18.8326 15.4228C18.61 15.42 18.5239 15.4703 18.5218 15.7127C18.5161 16.2343 18.1648 16.5702 17.684 16.5595C17.1997 16.5489 16.8882 16.2038 16.8847 15.6709C16.8826 15.3286 16.8818 14.987 16.8847 14.6447C16.8897 14.1019 17.1905 13.79 17.7402 13.7815C18.1632 13.7757 18.5865 13.7772 19.0096 13.7787H19.0097C19.202 13.7794 19.3942 13.7801 19.5864 13.7801C19.7737 13.7801 19.961 13.7795 20.1483 13.7789ZM14.1851 18.922C14.1858 19.0192 14.1865 19.1165 14.1865 19.2137C14.1865 19.3111 14.186 19.4085 14.1855 19.5059C14.1844 19.7146 14.1833 19.9234 14.1872 20.1321C14.1972 20.6006 14.5051 20.9422 14.9574 20.996C15.3649 21.0449 15.7859 20.7494 15.8329 20.2944C15.9076 19.5694 15.9211 18.8353 15.8229 18.111C15.7639 17.6737 15.3664 17.3959 14.9624 17.4377C14.5229 17.4831 14.2029 17.8162 14.1886 18.2591C14.1817 18.4801 14.1834 18.701 14.1851 18.922Z" fill="#7CA5C9"/>
</svg>
