<svg width="30" height="30" viewBox="0 0 30 30" fill="none" xmlns="http://www.w3.org/2000/svg">
<path d="M15.3671 15.8038L25.3867 15.6488C24.4195 12.4139 23.4612 9.20963 22.5035 6.00538L22.4617 6C22.0612 6.93157 21.6606 7.86313 21.25 8.81515C21.1903 8.77479 21.1458 8.74734 21.1045 8.71559C20.0939 7.9374 18.9952 7.31044 17.769 6.90304C16.5009 6.47304 15.149 6.32406 13.8133 6.46713C12.1956 6.63512 10.6615 7.24648 9.3918 8.22909C7.98447 9.30542 7.00613 10.6778 6.44732 12.324C6.03726 13.5317 5.92138 14.7716 6.04897 16.0374C6.20775 17.6072 6.73982 19.0586 7.5265 20.431C8.27696 21.7403 9.23023 22.9006 10.3122 23.9678C10.3225 23.9785 10.335 23.9871 10.3489 23.9931C10.3628 23.999 10.3778 24.0021 10.393 24.0022C10.3579 23.9323 10.3256 23.8607 10.2882 23.7918C9.76442 22.8393 9.35541 21.8319 9.06922 20.7894C8.7756 19.7028 8.64301 18.5985 8.74441 17.4775C8.85583 16.2397 9.22968 15.0929 10.0175 14.094C10.6955 13.233 11.5674 12.641 12.655 12.3628C13.4606 12.1561 14.2707 12.1717 15.0757 12.3628C16.0184 12.5845 16.8513 13.0204 17.6163 13.5876C17.6423 13.6045 17.6693 13.6199 17.6971 13.6339L15.351 15.7737L15.3671 15.8038Z" fill="url(#paint0_linear_1073_2577)"/>
<path d="M22.4041 13.4565V6L25.3867 15.6935H15.6932L22.4041 13.4565Z" fill="white" fill-opacity="0.69"/>
<defs>
<linearGradient id="paint0_linear_1073_2577" x1="3.76971" y1="21.0687" x2="23.4764" y2="5.53539" gradientUnits="userSpaceOnUse">
<stop stop-color="white" stop-opacity="0"/>
<stop offset="1" stop-color="#6EC9FC"/>
</linearGradient>
</defs>
</svg>
