<svg width="31" height="30" viewBox="0 0 31 30" fill="none" xmlns="http://www.w3.org/2000/svg">
<path d="M10.0593 20.5768C9.25531 20.8183 8.48387 21.1478 7.69703 21.4361C6.68349 21.8078 5.67452 22.1931 4.66269 22.5699C4.33893 22.6904 4.22816 22.6521 4.03516 22.3707C4.03516 17.1016 4.03516 11.8325 4.03516 6.56346C4.14993 6.28028 4.34236 6.0913 4.63871 5.9834C5.84411 5.54264 7.04608 5.09218 8.24576 4.63544C8.7945 4.42648 9.35466 4.24778 9.88798 4C9.95936 4 10.0302 4 10.1015 4C10.041 4.09763 10.0593 4.20668 10.0593 4.3123C10.0593 9.73381 10.0593 15.1553 10.0593 20.5768Z" fill="#7AC5FB"/>
<path d="M10.0596 20.5768C10.0596 15.1553 10.0596 9.73381 10.0602 4.3123C10.0602 4.20668 10.0419 4.09763 10.1025 4C10.1453 4 10.1881 4 10.2304 4C11.0914 4.32657 11.952 4.65371 12.8142 4.97857C13.862 5.37365 14.9109 5.76645 15.9599 6.15867C15.9981 6.17294 16.0421 6.1718 16.0832 6.17808C16.0838 7.87316 16.0838 9.56767 16.0843 11.2627C16.0375 11.2776 15.9907 11.2959 15.9427 11.3067C14.5472 11.6201 13.3955 12.3344 12.511 13.4534C11.3678 14.8995 10.9824 16.5535 11.313 18.3565C11.5317 19.5492 12.0867 20.5877 12.9558 21.4475C13.014 21.5052 13.0991 21.5497 13.0883 21.6536C12.5915 21.5114 12.1204 21.2996 11.6333 21.1301C11.1091 20.9457 10.6027 20.7081 10.0596 20.5768Z" fill="#67AFE2"/>
<path d="M22.1337 13.6502C21.8939 13.3904 21.6786 13.1101 21.4251 12.8618C20.5589 12.0128 19.5214 11.4944 18.3394 11.2654C17.6405 11.1301 16.9341 11.1239 16.2307 11.2557C16.1827 11.2649 16.1313 11.2592 16.0816 11.2603C16.0816 9.56523 16.0816 7.87072 16.0811 6.17564C17.2476 5.83194 18.3617 5.34323 19.5042 4.93273C20.1792 4.69009 20.8467 4.42575 21.5193 4.17511C21.9053 4.03124 22.1412 4.18996 22.1417 4.59646C22.1434 7.57897 22.1423 10.5615 22.1423 13.544C22.1417 13.5794 22.1366 13.6148 22.1337 13.6502Z" fill="#97D4FF"/>
<path d="M23.1025 22.0252C23.4234 21.8608 23.5091 21.8733 23.7592 22.1228C24.3633 22.7263 24.9697 23.3275 25.5693 23.9355C25.9204 24.2918 26.0044 24.7845 25.8028 25.2144C25.6024 25.6426 25.173 25.9001 24.699 25.8687C24.4267 25.851 24.1868 25.7465 23.9933 25.5541C23.3566 24.9226 22.7256 24.2861 22.0895 23.6546C21.9011 23.4679 21.9428 23.2744 22.0507 23.0723C22.4241 22.7468 22.7685 22.3912 23.1025 22.0252Z" fill="#925353"/>
<path fill-rule="evenodd" clip-rule="evenodd" d="M12.9928 21.4771C13.0439 21.5212 13.0961 21.5663 13.0875 21.6491L13.0892 21.6422C13.128 21.6399 13.1611 21.6479 13.1777 21.6879C13.2053 21.7084 13.2332 21.7286 13.261 21.7488C13.3189 21.7909 13.3768 21.8329 13.4324 21.878C14.4037 22.6664 15.5171 23.1175 16.7596 23.2105C18.2443 23.3219 19.6004 22.9382 20.8092 22.0584C20.8194 22.0509 20.8292 22.0428 20.839 22.0346C20.8722 22.0069 20.9055 21.9791 20.9537 21.9785C20.9536 21.9785 20.9535 21.9786 20.9535 21.9786C21.3092 22.3526 21.6694 22.7214 22.0497 23.0702C22.4242 22.7448 22.7685 22.3891 23.1025 22.0232C22.8371 21.7147 22.5449 21.4324 22.2526 21.1498C22.1729 21.0728 22.0933 20.9958 22.0142 20.9183C22.0145 20.9179 22.0148 20.9175 22.0152 20.9171C22.0184 20.8608 22.0515 20.8223 22.0844 20.7838C22.0976 20.7685 22.1107 20.7532 22.122 20.7367C23.3 19.0314 23.5723 17.193 22.9356 15.2199C22.7529 14.6529 22.452 14.1471 22.1357 13.6481C22.0432 13.5477 21.9542 13.4442 21.8651 13.3406C21.7239 13.1763 21.5826 13.012 21.427 12.8597C20.5608 12.0107 19.5227 11.4923 18.3413 11.2633C17.6424 11.128 16.9361 11.1218 16.2326 11.2536C16.1994 11.2599 16.1651 11.2592 16.1308 11.2585C16.115 11.2582 16.0992 11.2578 16.0836 11.2582C16.0683 11.263 16.0531 11.2681 16.0379 11.2733C16.0061 11.2841 15.9744 11.2948 15.942 11.3022C14.5464 11.6162 13.3941 12.3304 12.5102 13.4488C11.367 14.895 10.9816 16.5495 11.3122 18.352C11.5309 19.5452 12.0859 20.5831 12.955 21.443C12.9669 21.4547 12.9798 21.4659 12.9928 21.4771ZM13.3033 19.3779H13.3039L13.2605 19.3345C12.967 18.8852 12.8294 18.3782 12.7529 17.8581C12.5667 16.5935 12.8694 15.4431 13.6454 14.4326C14.3974 13.4534 15.3978 12.8819 16.6243 12.7095C17.5379 12.581 18.4041 12.7306 19.2298 13.1331C19.2637 13.1497 19.2951 13.1712 19.3264 13.1928C19.3415 13.2031 19.3566 13.2135 19.372 13.2233C19.3791 13.2305 19.3864 13.2376 19.3937 13.2448C19.401 13.2519 19.4083 13.259 19.4154 13.2662V13.2656C19.6843 13.3387 19.8967 13.5139 20.0983 13.6869C21.0365 14.4914 21.6006 15.4956 21.7274 16.7431C21.841 17.8598 21.5761 18.8738 20.944 19.7838C20.2496 20.7835 19.2898 21.4098 18.0895 21.6371C16.7122 21.898 15.464 21.5714 14.3762 20.7053C13.9297 20.3502 13.5157 19.9374 13.3033 19.3779Z" fill="#594F4F"/>
<path d="M13.0908 21.6488C13.1294 21.6465 13.1633 21.6545 13.18 21.6948C13.1449 21.6896 13.1052 21.6937 13.0908 21.6488Z" fill="#71C185"/>
<path d="M13.265 19.3437C12.9715 18.8944 12.8339 18.3879 12.7574 17.8673C12.5712 16.6027 12.8739 15.4522 13.6499 14.4417C14.4013 13.4626 15.4017 12.8911 16.6288 12.7187C17.5418 12.5902 18.4086 12.7398 19.2343 13.1423C19.2846 13.1668 19.3291 13.2022 19.3765 13.2325C19.3908 13.2468 19.4056 13.261 19.4199 13.2753V13.2747C19.4519 13.3684 19.4776 13.4643 19.5158 13.5545C19.8447 14.3281 19.9658 15.1337 19.8344 15.9621C19.6506 17.1251 19.1213 18.1071 18.1859 18.8424C17.0639 19.7245 15.7991 20.0254 14.395 19.7416C14.0164 19.6651 13.6721 19.4978 13.3073 19.3865H13.3078C13.2936 19.3728 13.2793 19.3585 13.265 19.3437Z" fill="#E2F2FF"/>
<path d="M13.3047 19.3813C13.6696 19.4926 14.0145 19.6599 14.3925 19.7364C15.7966 20.0196 17.0613 19.7193 18.1834 18.8372C19.1187 18.1018 19.6474 17.1199 19.8319 15.9569C19.9632 15.129 19.8416 14.3229 19.5133 13.5493C19.475 13.4585 19.4487 13.3626 19.4173 13.2695C19.6863 13.3426 19.8993 13.5179 20.1002 13.6909C21.0384 14.4953 21.6026 15.4996 21.7293 16.747C21.8424 17.8638 21.578 18.8777 20.9459 19.7878C20.2516 20.7875 19.2923 21.4138 18.0914 21.641C16.7142 21.9019 15.466 21.5754 14.3782 20.7093C13.9311 20.3536 13.5171 19.9408 13.3047 19.3813Z" fill="#DEEEFE"/>
<path d="M13.2135 21.7799C13.2243 21.676 13.1392 21.6315 13.081 21.5738C12.2119 20.714 11.6569 19.6761 11.4382 18.4828C11.1076 16.6804 11.493 15.0259 12.6362 13.5797C13.5201 12.4613 14.6724 11.747 16.0679 11.433C16.1159 11.4222 16.1621 11.4039 16.2095 11.3891C16.2592 11.3879 16.31 11.3936 16.3586 11.3845C17.0621 11.2526 17.7684 11.2589 18.4673 11.3942C19.6487 11.6231 20.6868 12.1415 21.553 12.9905C21.8066 13.2389 22.0224 13.5192 22.2616 13.779C22.578 14.2779 22.8789 14.7838 23.0616 15.3507C23.6983 17.3238 23.4259 19.1622 22.2479 20.8676C22.2085 20.9252 22.1457 20.9692 22.1412 21.048C21.8094 21.4231 21.444 21.7645 21.0814 22.1093C21.018 22.1093 20.9803 22.1562 20.9352 22.1893C19.7264 23.0691 18.3702 23.4527 16.8856 23.3414C15.6431 23.2483 14.5296 22.7973 13.5583 22.0089C13.4761 21.9421 13.3888 21.8821 13.3037 21.8187C13.2871 21.7788 13.254 21.7708 13.2152 21.7731L13.2135 21.7799ZM13.4299 19.5088C13.6423 20.0683 14.0557 20.4811 14.5022 20.8362C15.59 21.7023 16.8382 22.0288 18.2155 21.7679C19.4157 21.5407 20.3756 20.9144 21.07 19.9147C21.7021 19.0046 21.967 17.9907 21.8534 16.8739C21.7266 15.6265 21.1625 14.6222 20.2243 13.8178C20.0227 13.6448 19.8103 13.4695 19.5414 13.3964C19.5271 13.3822 19.5122 13.3685 19.498 13.3542C19.4506 13.3239 19.406 13.2885 19.3558 13.264C18.5301 12.8615 17.6639 12.7119 16.7503 12.8404C15.5238 13.0128 14.5234 13.5843 13.7713 14.5634C12.9953 15.574 12.6927 16.7244 12.8789 17.989C12.9554 18.5091 13.093 19.0161 13.3865 19.4654C13.4013 19.4802 13.4156 19.4945 13.4299 19.5088Z" fill="#768C8C"/>
<path d="M23.2324 22.1541C23.5533 21.9897 23.6389 22.0022 23.889 22.2517C24.4932 22.8552 25.0996 23.4564 25.6991 24.0644C26.0503 24.4207 26.1342 24.9134 25.9327 25.3433C25.7323 25.7715 25.3029 26.029 24.8289 25.9976C24.5565 25.9799 24.3167 25.8754 24.1232 25.683C23.4865 25.0515 22.8555 24.415 22.2194 23.7835C22.031 23.5968 22.0727 23.4033 22.1806 23.2012C22.554 22.8757 22.8983 22.5201 23.2324 22.1541Z" fill="#EFC41B"/>
<path d="M23.2281 22.1528C22.8941 22.5187 22.5498 22.8744 22.1753 23.1998C21.795 22.851 21.4348 22.4822 21.0791 22.1082C21.4416 21.764 21.807 21.422 22.1387 21.0469C22.5087 21.4094 22.8901 21.76 23.2281 22.1528Z" fill="#6B8183"/>
<path d="M13.392 19.4687C13.0985 19.0194 12.9608 18.5129 12.8843 17.9923C12.6982 16.7277 13.0008 15.5772 13.7768 14.5667C14.5283 13.5876 15.5287 13.0161 16.7558 12.8437C17.6688 12.7152 18.5356 12.8648 19.3613 13.2673C19.4115 13.2918 19.4561 13.3272 19.5034 13.3575C19.5177 13.3718 19.5326 13.386 19.5468 13.4003V13.3997C19.5788 13.4934 19.6045 13.5893 19.6428 13.6795C19.9717 14.4531 20.0927 15.2587 19.9614 16.0871C19.7775 17.2501 19.2482 18.2321 18.3129 18.9674C17.1909 19.8495 15.9261 20.1504 14.522 19.8666C14.1434 19.7901 13.7991 19.6228 13.4342 19.5115H13.4348C13.4205 19.4978 13.4062 19.4835 13.392 19.4687Z" fill="white"/>
<path d="M19.4206 13.2725C19.4053 13.2572 19.3894 13.2419 19.374 13.2266C19.39 13.2413 19.4053 13.2566 19.4206 13.2725Z" fill="#90B9E0"/>
<path d="M17.5273 14.209C17.5273 16.6292 17.5273 20.4063 17.5273 20.4063" stroke="#768C8C" stroke-width="0.912652" stroke-linecap="round"/>
<path d="M20.4453 17.3105C18.0248 17.3105 14.2471 17.3105 14.2471 17.3105" stroke="#768C8C" stroke-width="0.912652" stroke-linecap="round"/>
<path d="M13.2666 19.3379C13.2819 19.3532 13.2973 19.3692 13.3126 19.3845C13.2973 19.3692 13.2819 19.3538 13.2666 19.3379Z" fill="#90B9E0"/>
</svg>
