<svg width="30" height="30" viewBox="0 0 30 30" fill="none" xmlns="http://www.w3.org/2000/svg">
<path opacity="0.55" d="M24 18.4602C23.4564 17.9523 22.9096 17.4485 22.3702 16.9366C21.3773 15.9924 20.3868 15.0427 19.3988 14.0877C19.3603 14.0558 19.3205 14.0266 19.2796 14V16.9764C19.1629 16.9838 19.0684 16.9953 18.9787 16.9953C15.576 16.9953 12.1734 16.9953 8.77097 16.9953C7.93444 16.9953 7.47369 16.5083 7.3618 15.4926H5V15.9647C5.06492 16.2756 5.11558 16.5933 5.19792 16.8968C5.72147 18.8244 7.03036 20.0027 8.65592 20.0047C12.0756 20.0088 15.495 20.0088 18.9143 20.0047H19.2769V23C19.392 22.8982 19.4727 22.8321 19.5492 22.7585C20.5314 21.8143 21.5115 20.8667 22.4958 19.9258C22.993 19.4537 23.4986 18.9917 24 18.525V18.4602Z" fill="#C7D0D6"/>
<path opacity="0.55" d="M5 11.5472C5.54361 12.0537 6.09092 12.5576 6.63083 13.0683C7.62305 14.0114 8.61053 14.9632 9.60064 15.9104C9.62861 15.9367 9.66081 15.9549 9.72361 16V13.0292C9.84342 13.0211 9.93472 13.0097 10.0281 13.0097C13.4203 13.0097 16.8124 13.0097 20.2042 13.0097C21.064 13.0097 21.5268 13.49 21.6387 14.5119H24V14.0403C23.933 13.719 23.8823 13.3903 23.7958 13.0777C23.2711 11.182 21.9675 10.0085 20.3715 10.0058C16.9441 10.0004 13.5166 10.0004 10.0888 10.0058H9.72467V7C8.63005 8.04753 7.57925 9.05464 6.52475 10.0604C6.0202 10.54 5.50825 11.0082 5 11.4798V11.5472Z" fill="url(#paint0_linear_1073_2561)"/>
<defs>
<linearGradient id="paint0_linear_1073_2561" x1="5.5" y1="11" x2="24.5" y2="11" gradientUnits="userSpaceOnUse">
<stop stop-color="white"/>
<stop offset="0.231716" stop-color="white"/>
<stop offset="1" stop-color="#C7D2D6"/>
</linearGradient>
</defs>
</svg>
