<svg width="30" height="30" viewBox="0 0 30 30" fill="none" xmlns="http://www.w3.org/2000/svg">
<path fill-rule="evenodd" clip-rule="evenodd" d="M21.8119 23.6545C21.8123 23.761 21.8127 23.8675 21.8135 23.9739L21.8147 23.9739C22.4705 23.9732 23.1271 23.9725 23.7829 23.9725C23.7839 23.8606 23.7842 23.7487 23.7845 23.6369V23.6369V23.6369C23.7851 23.3882 23.7857 23.1397 23.7936 22.8915C23.8035 22.5862 23.6589 22.469 23.3551 22.4779C22.9623 22.4899 22.5687 22.4913 22.1767 22.4772C21.8904 22.4667 21.7922 22.5921 21.8014 22.8564C21.8101 23.1219 21.811 23.3882 21.8119 23.6544V23.6544V23.6545ZM6.21547 23.6266C6.2159 23.7412 6.21633 23.8558 6.2173 23.9705L6.21769 23.9705H6.21777H6.21785C6.87464 23.9713 7.53067 23.972 8.1867 23.972C8.18757 23.8621 8.18819 23.7521 8.18881 23.642C8.19037 23.3672 8.19192 23.0922 8.19736 22.8172C8.20192 22.588 8.11057 22.4715 7.86164 22.4767C7.4437 22.485 7.025 22.485 6.60707 22.4767C6.30941 22.4708 6.19979 22.6141 6.2074 22.8896C6.21363 23.1354 6.21455 23.381 6.21547 23.6266ZM6.21678 23.9727L8.18618 23.9749C8.26535 24.3243 8.13822 24.4609 7.76216 24.4295C7.38913 24.3989 7.00926 24.3974 6.63624 24.4295C6.25408 24.4631 6.14294 24.3146 6.21678 23.9727ZM23.781 23.9727L21.8116 23.9749C21.7325 24.3243 21.8588 24.4609 22.2349 24.4295C22.6079 24.3982 22.9878 24.3967 23.3608 24.4295C23.7437 24.4631 23.8549 24.3146 23.781 23.9727Z" fill="#637AA8"/>
<path fill-rule="evenodd" clip-rule="evenodd" d="M19.9115 7.95631C19.9132 6.80688 19.9149 5.65744 19.9168 4.50781L8.85938 4.51229C8.86039 5.28647 8.86132 6.06064 8.86225 6.83482C8.86411 8.38308 8.86597 9.93135 8.86851 11.4796C8.86927 12.1881 9.17987 12.4874 9.91221 12.4874C12.8758 12.4882 15.8402 12.4882 18.8046 12.4874C19.5849 12.4867 19.9046 12.1702 19.9061 11.4005C19.9081 10.2523 19.9098 9.10431 19.9115 7.95631ZM17.4696 7.85231C17.4702 8.07947 17.4709 8.30665 17.4709 8.53383C17.4709 8.78212 17.4709 9.03049 17.471 9.27891C17.4712 9.77593 17.4714 10.2732 17.4709 10.7704C17.4693 11.2415 17.4099 11.2975 16.9174 11.2982C16.7448 11.2985 16.5722 11.2978 16.3997 11.2971C16.0401 11.2956 15.6806 11.2941 15.321 11.3012C15.2367 11.3026 15.1663 11.2939 15.1084 11.2743C15.1656 11.293 15.2349 11.3012 15.3176 11.2996C15.6772 11.2926 16.0367 11.294 16.3963 11.2955C16.5688 11.2962 16.7414 11.2969 16.914 11.2966C17.4073 11.2951 17.4667 11.2399 17.4674 10.7688C17.4691 10.2366 17.4688 9.704 17.4684 9.17155C17.4683 8.95866 17.4682 8.7458 17.4682 8.533C17.4682 8.29916 17.4675 8.06532 17.4669 7.83148C17.4653 7.27027 17.4637 6.70906 17.4712 6.14785C17.4742 5.929 17.4172 5.79576 17.2814 5.73233C17.4196 5.79512 17.4777 5.92875 17.4747 6.14942C17.4665 6.71676 17.4681 7.28448 17.4696 7.85231Z" fill="#E7E7E7"/>
<path fill-rule="evenodd" clip-rule="evenodd" d="M9.30492 25.5323C8.99025 25.5334 8.67564 25.5349 8.36105 25.5363C7.53556 25.5402 6.71025 25.5441 5.88454 25.5398C5.40494 25.5368 5.06465 25.2061 5.00755 24.7254C4.99811 24.6447 4.99961 24.5629 5.00111 24.4811C5.00167 24.4508 5.00222 24.4204 5.00222 24.3902V5.68447C5.00222 4.77893 5.28085 4.50272 6.19742 4.50421C6.72989 4.50511 7.26237 4.50681 7.79467 4.50851C8.14897 4.50965 8.50319 4.51078 8.85729 4.51168L8.86017 6.83412C8.86203 8.38241 8.86389 9.93071 8.86643 11.479C8.86795 12.1875 9.17778 12.4868 9.91013 12.4868C12.8745 12.4876 15.8389 12.4876 18.8025 12.4868C19.5828 12.4868 19.9025 12.1695 19.9041 11.3999C19.906 10.251 19.9077 9.10225 19.9094 7.95353C19.9111 6.80482 19.9128 5.6561 19.9147 4.5072C20.0921 4.50879 20.2751 4.49646 20.4581 4.48413C20.876 4.45599 21.2936 4.42785 21.6436 4.56542C21.9882 4.70146 22.2626 5.01178 22.5362 5.3212C22.65 5.44988 22.7636 5.5784 22.8822 5.69417C23.1373 5.94323 23.3912 6.19359 23.645 6.44394L23.6451 6.44404L23.6452 6.44408C24.0258 6.81951 24.4064 7.1949 24.7914 7.56571C24.9383 7.70755 25 7.85238 25 8.05543C24.9972 11.4329 24.9967 14.8104 24.9962 18.1877V18.1878V18.188V18.1964C24.9959 20.3089 24.9956 22.4212 24.9947 24.5335C24.9947 25.2031 24.6445 25.5421 23.9654 25.5413C23.203 25.5408 22.4409 25.5377 21.6786 25.5346H21.6781H21.6776H21.677C21.3502 25.5333 21.0233 25.532 20.6963 25.5309V25.5316L18.5573 25.5351H18.5565H18.5557H18.5549C16.7751 25.538 14.9954 25.541 13.2153 25.5421C12.3133 25.5421 11.4114 25.5388 10.5091 25.5356C10.1078 25.5342 9.70638 25.5328 9.30492 25.5316L9.30492 25.5323ZM9.30592 20.1772L9.30621 19.2604H9.30592L9.30568 19.2588L9.30592 20.1772ZM9.25098 18.4987C9.25601 18.2862 9.28077 18.0744 9.33181 17.8636C9.42697 17.4687 9.67438 17.2619 10.0832 17.2612C13.3604 17.2567 16.6377 17.2567 19.915 17.2612C20.3245 17.2619 20.5712 17.4695 20.6679 17.8629C20.7024 18.0036 20.7243 18.1447 20.7364 18.2861C20.7244 18.1438 20.7023 18.0018 20.6676 17.8603C20.5709 17.4661 20.3243 17.2593 19.9147 17.2586C16.6375 17.2541 13.3602 17.2541 10.0829 17.2586C9.67413 17.2593 9.42672 17.4661 9.33156 17.861C9.28066 18.0727 9.25595 18.2854 9.25098 18.4987ZM23.7812 23.9721C23.7822 23.8602 23.7824 23.7484 23.7827 23.6366C23.7834 23.3881 23.784 23.1398 23.7919 22.8911C23.8018 22.5851 23.6571 22.4679 23.3534 22.4776C22.9606 22.4895 22.567 22.491 22.1749 22.4768C21.8887 22.4664 21.7905 22.5925 21.7996 22.8561C21.8083 23.1222 21.8093 23.3883 21.8102 23.6544C21.8106 23.7608 21.8109 23.8672 21.8118 23.9736C21.7326 24.323 21.859 24.4596 22.2358 24.4282C22.6089 24.3969 22.9887 24.3961 23.3617 24.4282C23.7439 24.4626 23.8551 24.314 23.7812 23.9721ZM8.1889 23.9743C8.18977 23.8643 8.19039 23.7543 8.19101 23.6443C8.19256 23.3692 8.19412 23.0941 8.19955 22.8195C8.20412 22.5903 8.11201 22.4738 7.86383 22.4791C7.4459 22.4873 7.0272 22.4873 6.60926 22.4791C6.31161 22.4731 6.20198 22.6164 6.2096 22.8919C6.21633 23.157 6.21727 23.4226 6.21822 23.6883L6.21822 23.6883L6.21822 23.6884L6.21822 23.6884C6.21856 23.7832 6.21889 23.878 6.21949 23.9729C6.14565 24.3148 6.2568 24.4633 6.63971 24.4297C7.01274 24.3969 7.39261 24.3984 7.76563 24.4297C8.14094 24.4603 8.26807 24.3237 8.1889 23.9743ZM10.1733 23.9402C10.1846 23.8273 10.2777 23.7713 10.3834 23.722C10.485 23.6744 10.5903 23.6762 10.6958 23.678C10.716 23.6784 10.7362 23.6787 10.7564 23.6787C13.5751 23.678 16.3937 23.678 19.2124 23.678H19.2339C19.2453 23.678 19.2568 23.6778 19.2682 23.6776C19.2948 23.6771 19.3215 23.6766 19.3481 23.6787L19.3715 23.6804C19.5845 23.6953 19.8237 23.712 19.8178 23.9878C19.8174 24.0072 19.8159 24.0254 19.8134 24.0423C19.8158 24.0261 19.8172 24.0088 19.8175 23.9903C19.8227 23.7145 19.5841 23.6978 19.3712 23.6829L19.3478 23.6812C19.3212 23.6791 19.2946 23.6796 19.2679 23.6801C19.2565 23.6803 19.2451 23.6805 19.2337 23.6805C16.4078 23.6805 13.582 23.6805 10.7562 23.6812C10.7361 23.6812 10.7161 23.6809 10.696 23.6805H10.6959C10.5907 23.6787 10.4848 23.6769 10.3831 23.7245C10.2782 23.7734 10.1857 23.8289 10.1733 23.9402ZM11.1637 20.4694H12.055L11.1663 20.4698C11.1032 20.4698 11.04 20.4696 10.9768 20.4695H10.9767H10.9766C10.7868 20.4689 10.5966 20.4683 10.4065 20.4728C10.2299 20.4773 10.1682 20.5855 10.172 20.746C10.1755 20.8818 10.2362 20.9639 10.3628 20.9845C10.2345 20.9646 10.173 20.8823 10.1695 20.7456C10.1657 20.5844 10.2273 20.4761 10.404 20.4724C10.5983 20.4684 10.7932 20.4688 10.9881 20.4692H10.9881H10.9881H10.9882L11.1637 20.4694ZM19.6389 20.4776L19.6465 20.4787L19.6415 20.478C19.5577 20.4681 19.4729 20.4685 19.3884 20.4689L19.3377 20.4691H18.3479L19.3352 20.4687L19.3858 20.4685C19.4705 20.4681 19.5558 20.4677 19.6389 20.4776ZM19.7686 22.5136C19.6967 22.6083 19.5603 22.6326 19.412 22.6326C16.4728 22.6311 13.5335 22.6311 10.5942 22.6326C10.3659 22.6326 10.1694 22.5781 10.1801 22.3161C10.1826 22.2599 10.1952 22.2184 10.2152 22.1878C10.1948 22.2185 10.1819 22.2603 10.1794 22.3171C10.168 22.5784 10.3651 22.6336 10.5935 22.6336C13.5328 22.6321 16.472 22.6321 19.4113 22.6336C19.5601 22.6336 19.6969 22.6091 19.7686 22.5136Z" fill="#637AA8"/>
<circle cx="14.5" cy="19.6289" r="3.5" fill="#E7E7E7"/>
</svg>
