<svg width="23" height="22" viewBox="0 0 23 22" fill="none" xmlns="http://www.w3.org/2000/svg">
<path d="M5.29599 14.6348C5.65123 14.652 6.01096 14.6563 6.3662 14.695C6.57755 14.7165 6.73493 14.9231 6.73943 15.1168C6.74392 15.3234 6.59553 15.5041 6.36171 15.5558C6.28076 15.573 6.19982 15.5945 6.11888 15.5945C5.56579 15.5988 5.0127 15.5988 4.4596 15.5945C4.12235 15.5945 3.89752 15.4267 3.87953 15.1771C3.85705 14.8672 4.07289 14.6606 4.44162 14.6563C4.72491 14.652 5.0082 14.6563 5.29149 14.6563C5.29599 14.6477 5.29599 14.6434 5.29599 14.6348Z" fill="#CFDADE"/>
<path d="M9.15927 14.5625C9.51451 14.5797 9.87424 14.584 10.2295 14.6228C10.4408 14.6443 10.5982 14.8509 10.6027 15.0445C10.6072 15.2511 10.4588 15.4319 10.225 15.4835C10.144 15.5007 10.0631 15.5223 9.98216 15.5223C9.42907 15.5266 8.87598 15.5266 8.32288 15.5223C7.98563 15.5223 7.7608 15.3544 7.74281 15.1048C7.72033 14.7949 7.93617 14.5883 8.3049 14.584C8.58819 14.5797 8.87148 14.584 9.15477 14.584C9.15927 14.5754 9.15927 14.5711 9.15927 14.5625Z" fill="#CFDADE"/>
<path d="M12.8809 14.5625C13.2362 14.5797 13.5959 14.584 13.9512 14.6228C14.1625 14.6443 14.3199 14.8509 14.3244 15.0445C14.3289 15.2511 14.1805 15.4319 13.9467 15.4835C13.8657 15.5007 13.7848 15.5223 13.7038 15.5223C13.1508 15.5266 12.5977 15.5266 12.0446 15.5223C11.7073 15.5223 11.4825 15.3544 11.4645 15.1048C11.442 14.7949 11.6578 14.5883 12.0266 14.584C12.3099 14.5797 12.5932 14.584 12.8765 14.584C12.8809 14.5754 12.8809 14.5711 12.8809 14.5625Z" fill="#CFDADE"/>
<path d="M5.28956 0.909187C4.98378 0.909187 4.67801 0.909187 4.37223 0.909187C4.09344 0.909187 3.89558 0.749945 3.88209 0.517537C3.86411 0.242091 4.04398 0.0182913 4.33176 0.00968365C4.98828 -0.00322788 5.6448 -0.00322788 6.30132 0.00968365C6.54414 0.0139875 6.75548 0.276522 6.73749 0.496018C6.71501 0.728426 6.51266 0.904883 6.25185 0.904883C5.92809 0.909187 5.60882 0.909187 5.28956 0.909187Z" fill="#CED9DD"/>
<path d="M12.9604 0.910127C12.6636 0.910127 12.3624 0.897215 12.0656 0.914431C11.7328 0.93595 11.553 0.725062 11.5305 0.484046C11.5035 0.2086 11.7328 0.014927 12.0701 0.0106232C12.5827 0.00631933 13.0998 0.0106232 13.6124 0.0106232C13.7159 0.0106232 13.8238 0.00201548 13.9272 0.014927C14.215 0.0407501 14.3994 0.247335 14.3859 0.518477C14.3724 0.750885 14.179 0.914431 13.9002 0.914431C13.5855 0.910127 13.2752 0.910127 12.9604 0.910127Z" fill="#CED9DD"/>
<path d="M1.01079 7.80043C1.01079 7.50777 1.01079 7.21511 1.01079 6.91814C1.01079 6.63409 1.19515 6.42751 1.45146 6.41459C1.71227 6.40168 1.9461 6.62548 1.9506 6.91384C1.95959 7.39157 1.95509 7.8736 1.95509 8.35132C1.95509 8.47183 1.96409 8.59664 1.9506 8.71715C1.92362 8.9969 1.70328 9.16906 1.41549 9.15184C1.17267 9.13893 1.01079 8.94956 1.01079 8.67842C1.00629 8.39006 1.01079 8.0974 1.01079 7.80043Z" fill="#CED9DD"/>
<path d="M17.2584 7.81055C17.2584 8.10321 17.2584 8.39587 17.2584 8.69284C17.2584 8.95968 17.0875 9.14904 16.8447 9.16196C16.5659 9.17487 16.3276 9.01132 16.3231 8.74448C16.3051 8.12043 16.3051 7.50067 16.3231 6.87661C16.3276 6.61408 16.5884 6.39889 16.8267 6.43332C17.1235 6.47636 17.2854 6.67433 17.2674 6.93687C17.2404 7.22092 17.2584 7.51789 17.2584 7.81055Z" fill="#CED9DD"/>
<path d="M1.00991 11.4533C1.00991 11.1606 1.00991 10.8679 1.00991 10.5753C1.00991 10.2955 1.18079 10.1105 1.4326 10.1019C1.72938 10.0932 1.94523 10.2783 1.94972 10.571C1.95872 11.0788 1.95422 11.5824 1.94972 12.0902C1.94972 12.2323 1.94523 12.3743 1.90925 12.512C1.85529 12.7229 1.62596 12.8563 1.42361 12.8305C1.18528 12.7961 1.01441 12.6239 1.01441 12.3958C1.00542 12.0773 1.00991 11.7631 1.00991 11.4533Z" fill="#CED9DD"/>
<path d="M16.3107 11.4533C16.3107 11.1606 16.3107 10.8679 16.3107 10.5753C16.3107 10.2955 16.4816 10.1105 16.7334 10.1019C17.0302 10.0932 17.246 10.2783 17.2505 10.571C17.2595 11.0788 17.255 11.5824 17.2505 12.0902C17.2505 12.2323 17.246 12.3743 17.21 12.512C17.1561 12.7229 16.9267 12.8563 16.7244 12.8305C16.4861 12.7961 16.3152 12.6239 16.3152 12.3958C16.3062 12.0773 16.3107 11.7631 16.3107 11.4533Z" fill="#CED9DD"/>
<path d="M9.1118 0.909187C8.80603 0.909187 8.50025 0.913491 8.19448 0.909187C7.92917 0.904883 7.71783 0.719818 7.69984 0.478803C7.68635 0.250699 7.8932 0.0139875 8.15851 0.00968365C8.80603 -0.00322788 9.45805 -0.00322788 10.1056 0.00968365C10.3574 0.0139875 10.5822 0.259307 10.5687 0.474499C10.5552 0.715514 10.3439 0.904883 10.0786 0.904883C9.75034 0.909187 9.43107 0.909187 9.1118 0.909187Z" fill="#CED9DD"/>
<path d="M1.01079 4.12219C1.01079 3.82953 1.01079 3.53687 1.01079 3.24421C1.01079 2.97307 1.21314 2.76648 1.46945 2.75788C1.69878 2.75357 1.9461 2.96876 1.9506 3.20978C1.95959 3.82523 1.95959 4.44068 1.9506 5.05183C1.9461 5.29714 1.69878 5.50803 1.46945 5.50373C1.21314 5.49512 1.01079 5.28854 1.01079 5.0217C1.00629 4.72043 1.01079 4.41916 1.01079 4.12219Z" fill="#CED9DD"/>
<path d="M17.2561 4.1439C17.2561 4.43656 17.2561 4.72922 17.2561 5.02188C17.2561 5.28872 17.0538 5.49961 16.7975 5.50391C16.5681 5.51252 16.3208 5.29733 16.3163 5.05201C16.3073 4.43656 16.3073 3.82111 16.3163 3.20996C16.3208 2.96895 16.5681 2.74945 16.7975 2.75806C17.0538 2.76667 17.2561 2.97325 17.2561 3.24009C17.2561 3.54136 17.2561 3.84263 17.2561 4.1439Z" fill="#CED9DD"/>
<path d="M1.00879 14.6735C1.00879 14.5229 1.00879 14.3723 1.00879 14.2216C1.01329 13.9677 1.21114 13.7654 1.45846 13.7525C1.68779 13.7396 1.92611 13.9548 1.9486 14.1958C1.96209 14.3378 1.91262 14.5272 1.98907 14.6047C2.06551 14.6821 2.26786 14.6348 2.41176 14.6563C2.72653 14.695 2.9019 14.8758 2.8929 15.147C2.88391 15.3923 2.69055 15.5773 2.38478 15.5902C2.09249 15.6032 1.80021 15.6075 1.51242 15.5902C1.17517 15.573 1.00879 15.388 1.00879 15.0609C1.00879 14.9318 1.00879 14.8026 1.00879 14.6735Z" fill="#CED9DD"/>
<path d="M16.2851 15.5312C16.1278 15.5312 15.9704 15.5312 15.813 15.5312C15.5477 15.5269 15.3363 15.3376 15.3228 15.1009C15.3094 14.8814 15.5342 14.6533 15.786 14.6317C15.9344 14.6188 16.1322 14.6662 16.2132 14.593C16.2941 14.5198 16.2447 14.3262 16.2671 14.1885C16.3076 13.8872 16.4965 13.7193 16.7798 13.7279C17.0361 13.7365 17.2294 13.9216 17.2429 14.2143C17.2564 14.494 17.2609 14.7738 17.2429 15.0492C17.2249 15.372 17.0316 15.5312 16.6898 15.5312C16.5549 15.5312 16.42 15.5312 16.2851 15.5312Z" fill="#CED9DD"/>
<path d="M1.00873 0.918871C1.00873 0.776844 1.00873 0.630513 1.00873 0.488486C1.01323 0.208736 1.19759 0.0150635 1.49438 0.00645577C1.80015 -0.00215192 2.10593 -0.00215192 2.4117 0.00645577C2.70848 0.0193673 2.90184 0.221648 2.89285 0.49279C2.88835 0.742413 2.69499 0.905959 2.4072 0.910263C1.97103 0.914567 1.97103 0.914567 1.95304 1.33204C1.93505 1.72369 1.57532 1.9604 1.25605 1.76673C1.14363 1.69787 1.0537 1.54293 1.01773 1.41381C0.977256 1.25888 1.00873 1.08672 1.00873 0.918871Z" fill="#CED9DD"/>
<path d="M17.2563 0.944694C17.2563 1.07381 17.2428 1.20292 17.2608 1.33204C17.2922 1.59457 17.1214 1.79255 16.8246 1.83559C16.5953 1.87002 16.3659 1.66344 16.321 1.41381C16.3165 1.37938 16.3165 1.34065 16.3165 1.30622C16.3075 0.914567 16.3075 0.914567 15.8803 0.910263C15.57 0.905959 15.3766 0.746717 15.3721 0.488486C15.3677 0.217344 15.5565 0.0150635 15.8578 0.00645577C16.1636 -0.00215192 16.4693 -0.00215192 16.7751 0.00645577C17.0719 0.0150635 17.2518 0.208736 17.2563 0.49279C17.2563 0.643425 17.2563 0.794059 17.2563 0.944694Z" fill="#CED9DD"/>
<path d="M9.9852 22.0006C9.71536 21.8887 9.61192 21.695 9.61192 21.4109C9.62091 19.5603 9.61642 17.7139 9.61642 15.8633C9.61642 15.7772 9.61192 15.6911 9.60742 15.605C9.60742 15.2866 9.60742 14.9681 9.60742 14.6496C9.61192 14.5549 9.61642 14.4645 9.61642 14.3698C9.61642 11.0258 9.61642 7.68597 9.61642 4.34189C9.61642 4.2472 9.61192 4.15682 9.62541 4.06214C9.67038 3.74365 10.0302 3.5758 10.318 3.73935C10.399 3.78669 10.4754 3.85125 10.5429 3.91581C14.6175 7.81079 18.6875 11.7058 22.7531 15.6094C22.8656 15.7169 22.96 15.8762 22.9915 16.0225C23.0365 16.2291 22.8791 16.4142 22.6632 16.4658C22.5642 16.4916 22.4563 16.4959 22.3529 16.4959C20.1627 16.4959 17.9725 16.5002 15.7778 16.4916C15.6204 16.4916 15.5169 16.5347 15.4135 16.6466C13.8169 18.3208 12.2159 19.995 10.6103 21.6649C10.4934 21.7897 10.3405 21.8844 10.2056 21.9963C10.1336 22.0006 10.0617 22.0006 9.9852 22.0006Z" fill="#ACDAF5"/>
</svg>
