<svg width="30" height="30" viewBox="0 0 30 30" fill="none" xmlns="http://www.w3.org/2000/svg">
<path d="M19.38 14.9806C19.38 17.2358 17.5519 19.064 15.2967 19.064C13.0415 19.064 11.2134 17.2358 11.2134 14.9806C11.2134 12.7255 13.0415 10.8973 15.2967 10.8973C17.5519 10.8973 19.38 12.7255 19.38 14.9806Z" stroke="url(#paint0_linear_1073_2652)" stroke-width="1.83333"/>
<path d="M7.61967 7.67509C8.25684 7.88639 8.90087 8.07908 9.52825 8.31651C9.85483 8.43963 10.0932 8.41089 10.3885 8.20971C10.8996 7.86124 11.4496 7.56633 11.9989 7.27796C12.2706 7.13557 12.4443 6.97946 12.4914 6.65124C12.5698 6.10486 12.6975 5.56501 12.8147 5.0245C12.9453 4.41509 13.382 4.03135 14.0182 4.01633C14.9241 3.99456 15.8304 3.99456 16.737 4.01633C17.3843 4.03135 17.786 4.38178 17.9346 5.02157C18.063 5.57415 18.1413 6.1398 18.2939 6.6852C18.3507 6.88867 18.5185 7.10585 18.6975 7.22211C19.2733 7.59605 19.87 7.9406 20.4764 8.26262C20.6436 8.35178 20.8902 8.38803 21.0702 8.33839C21.5894 8.19469 22.0927 7.99384 22.6028 7.81585C23.3377 7.56209 23.937 7.78025 24.337 8.45726C24.7371 9.13428 25.131 9.81064 25.5193 10.4922C25.9164 11.1898 25.8194 11.7695 25.2221 12.3064C24.7998 12.6859 24.3583 13.0455 23.9543 13.4436C23.8295 13.5664 23.743 13.7846 23.7381 13.9619C23.7188 14.6503 23.7211 15.3411 23.756 16.0289C23.7661 16.23 23.8631 16.4724 24.0033 16.6131C24.3841 16.9952 24.8125 17.3287 25.2172 17.6879C25.8076 18.2121 25.9171 18.7797 25.5349 19.4662C25.1267 20.1986 24.7051 20.9236 24.2701 21.6413C23.9327 22.2004 23.3847 22.4012 22.7759 22.2092C22.1838 22.0221 21.6002 21.8055 21.0019 21.6416C20.8038 21.5959 20.596 21.6205 20.4141 21.7112C19.8311 22.0221 19.2606 22.3581 18.7076 22.7174C18.5355 22.8294 18.3673 23.0325 18.3157 23.2262C18.1629 23.7853 18.0757 24.3621 17.9516 24.9297C17.7958 25.642 17.3637 25.9901 16.6312 25.9953C15.8062 26.0009 14.981 26.0022 14.1557 25.9953C13.3784 25.9881 12.9248 25.5796 12.7948 24.8229C12.6968 24.251 12.5903 23.6798 12.446 23.1178C12.4061 22.963 12.2402 22.8095 12.0933 22.7187C11.5083 22.3575 10.914 22.0093 10.3085 21.6841C10.1481 21.6046 9.9648 21.5847 9.79115 21.6279C9.17063 21.8101 8.56155 22.0364 7.9443 22.2334C7.43711 22.3967 6.87407 22.2174 6.5919 21.7608C6.10202 20.9678 5.62585 20.1638 5.18202 19.3441C4.86556 18.7598 4.96484 18.2719 5.4557 17.8026C5.88549 17.3914 6.35904 17.0259 6.77936 16.6059C6.91947 16.4662 7.01614 16.2225 7.0243 16.022C7.05206 15.361 7.01352 14.6974 7.03541 14.0357C7.04488 13.749 6.96323 13.5458 6.74866 13.3655C6.35676 13.0341 5.97628 12.6872 5.59254 12.3456C4.93937 11.764 4.84139 11.2248 5.27085 10.4759C5.67354 9.77145 6.08471 9.07158 6.49523 8.37268C6.74017 7.95171 7.10236 7.73028 7.61967 7.67509ZM8.86397 13.2519L8.8029 13.2885C8.80238 13.3291 8.79888 13.3696 8.79245 13.4096C8.54261 14.5393 8.556 15.6592 8.87964 16.7771C8.90936 16.8803 8.78689 17.069 8.68369 17.1618C8.19381 17.6063 7.68858 18.0364 7.18139 18.4613C6.87962 18.7137 6.83553 18.9838 7.05076 19.3134C7.19805 19.5394 7.32248 19.7804 7.46062 20.0126C7.72189 20.4554 7.91295 20.527 8.39564 20.3614C8.94464 20.1729 9.49526 19.9881 10.039 19.7856C10.3196 19.6811 10.5364 19.7059 10.7712 19.9188C11.546 20.6218 12.4644 21.148 13.4626 21.461C13.734 21.5472 13.8546 21.7099 13.9019 21.9763C14.0097 22.5877 14.1305 23.1975 14.2491 23.8069C14.3212 24.1756 14.5371 24.3748 14.9258 24.3689C15.2099 24.3644 15.494 24.3715 15.7778 24.3689C16.2929 24.3617 16.4395 24.2194 16.5371 23.7223C16.6645 23.0743 16.8007 22.427 16.9702 21.7895C17.0091 21.6426 17.1815 21.4538 17.3223 21.4238C18.3396 21.2069 19.1511 20.6266 19.9193 19.9809C20.221 19.7275 20.4973 19.6955 20.8448 19.8281C21.3618 20.024 21.886 20.2046 22.4105 20.3833C22.8403 20.5279 23.0607 20.4447 23.2955 20.0586C23.4569 19.7928 23.6058 19.5198 23.7619 19.251C23.9291 18.9633 23.8925 18.7183 23.6332 18.4969C23.1515 18.0824 22.693 17.6396 22.1962 17.2461C21.8945 17.0073 21.8579 16.7833 21.9373 16.4106C22.0646 15.811 22.1061 15.1882 22.1264 14.5733C22.1401 14.1582 22.0731 13.7369 22.0078 13.3237C21.9627 13.0412 22.0764 12.8649 22.2743 12.6957C22.7364 12.3002 23.1861 11.8904 23.6486 11.4955C23.8981 11.2829 23.9232 11.0451 23.7717 10.7747C23.5996 10.4684 23.4203 10.1656 23.2439 9.86028C23.0676 9.55492 22.8311 9.46838 22.4928 9.58987C21.8968 9.80542 21.287 9.98373 20.6966 10.2104C20.4608 10.3008 20.3047 10.2858 20.1172 10.116C19.288 9.35995 18.3588 8.76654 17.2687 8.45988C16.9829 8.37921 16.9036 8.18652 16.8585 7.92656C16.755 7.32891 16.642 6.73223 16.5117 6.1398C16.4463 5.83705 16.2546 5.63522 15.9163 5.63294C15.5646 5.63032 15.2132 5.62804 14.8614 5.63294C14.5303 5.63718 14.3294 5.81746 14.2618 6.13196C14.14 6.6999 14.0133 7.26783 13.9251 7.84132C13.8761 8.1604 13.7419 8.34524 13.4352 8.4589C12.4003 8.84296 11.446 9.36224 10.6422 10.1425C10.5243 10.2571 10.2415 10.2989 10.0736 10.2476C9.45476 10.0595 8.85058 9.82305 8.24476 9.59444C7.93842 9.47916 7.71536 9.58073 7.5537 9.83873C7.38159 10.1134 7.23495 10.4041 7.0599 10.6768C6.83782 11.0223 6.89073 11.3005 7.20164 11.5641C7.67552 11.9664 8.14319 12.3773 8.59617 12.8028C8.71374 12.9198 8.77448 13.1 8.86397 13.2519Z" fill="#C7D0D6"/>
<path d="M15.4063 18.3008C13.6845 18.4076 12.0839 16.8132 12.1097 15.0232C12.1371 13.144 13.5431 11.7061 15.4177 11.707C17.2985 11.707 18.7815 13.1822 18.7489 15.0542C18.7116 17.0043 17.0379 18.423 15.4063 18.3008ZM15.3935 16.8377C16.4076 16.8459 17.3103 16.0059 17.2796 15.0046C17.2502 14.0558 16.5611 13.1871 15.4445 13.1561C14.4422 13.1283 13.5689 13.9915 13.5633 14.9964C13.5581 15.9915 14.3909 16.8296 15.3935 16.8374V16.8377Z" fill="#C7D0D6"/>
<defs>
<linearGradient id="paint0_linear_1073_2652" x1="12.0996" y1="10.4167" x2="16.6829" y2="19.5833" gradientUnits="userSpaceOnUse">
<stop stop-color="#2E8388"/>
<stop offset="1" stop-color="#A24598"/>
</linearGradient>
</defs>
</svg>
