<svg width="30" height="30" viewBox="0 0 30 30" fill="none" xmlns="http://www.w3.org/2000/svg">
<path d="M14.8612 6.99823C15.1965 9.25698 15.5318 11.5157 15.8671 13.7745C15.7985 13.9751 15.6827 14.1174 15.4545 14.1512C11.7489 14.6972 8.04397 15.2454 4.33888 15.7946C4.23187 15.8105 4.13654 15.7916 4.0385 15.7478C3.94427 15.7058 3.90738 15.6119 3.83311 15.554C3.49845 13.2952 3.16379 11.0364 2.82907 8.7772C2.86467 8.77291 2.90036 8.76925 2.93582 8.76401C6.87538 8.18143 10.8149 7.59885 14.7545 7.01627C14.7904 7.01162 14.8259 7.00443 14.8612 6.99823ZM10.7039 10.4476C10.7063 10.4615 10.7143 10.4671 10.7279 10.4635C10.9446 10.4324 11.1612 10.4026 11.3777 10.3706C12.385 10.221 13.3925 10.0707 14.3997 9.92051C14.4138 9.92003 14.4191 9.91213 14.4171 9.89852C14.3156 9.21191 14.2138 8.52567 14.1123 7.83906C14.1091 7.82563 14.1013 7.81934 14.0871 7.8237C12.8645 8.00451 11.6415 8.18536 10.4189 8.36616C10.4039 8.36578 10.398 8.37409 10.3981 8.38798C10.5003 9.0745 10.6021 9.76106 10.7039 10.4476ZM4.2191 12.2797C4.35781 13.215 4.49847 14.1504 4.63276 15.0864C4.64808 15.1941 4.68334 15.2116 4.78487 15.1959C5.61339 15.0692 6.44252 14.9466 7.27227 14.8281C7.37557 14.8134 7.40098 14.7841 7.38494 14.6781C7.10398 12.8076 6.82651 10.9366 6.55256 9.06535C6.53696 8.958 6.50192 8.93989 6.4004 8.95555C5.57188 9.08228 4.74274 9.20489 3.913 9.32339C3.80907 9.33811 3.78443 9.36828 3.80038 9.47364C3.94325 10.4087 4.08038 11.3443 4.2191 12.2797ZM7.51612 11.7908C7.65484 12.7262 7.79545 13.6612 7.92973 14.5973C7.94468 14.7024 7.97617 14.725 8.08055 14.7089C8.90871 14.5819 9.73788 14.4596 10.5673 14.3408C10.6677 14.3266 10.6983 14.3014 10.6821 14.1925C10.4012 12.3223 10.1238 10.4516 9.84951 8.58039C9.83434 8.47589 9.80303 8.45238 9.69865 8.46846C8.87049 8.59545 8.04146 8.7187 7.2118 8.83556C7.0952 8.85216 7.08443 8.89516 7.09982 8.99672C7.24113 9.92781 7.37797 10.8592 7.51612 11.7908ZM13.1234 13.9609C13.7034 13.8751 14.2831 13.7878 14.8636 13.7052C14.9501 13.693 14.9838 13.6738 14.9683 13.5739C14.8156 12.5726 14.6676 11.5704 14.5219 10.5681C14.51 10.4858 14.485 10.4652 14.4014 10.4776C13.2301 10.6534 12.0582 10.827 10.8861 10.9974C10.8002 11.0098 10.7866 11.0403 10.7988 11.1203C10.9499 12.1218 11.0989 13.1239 11.2443 14.1262C11.257 14.2142 11.2829 14.236 11.3721 14.2221C11.9552 14.1317 12.5396 14.0472 13.1234 13.9609Z" fill="#F0F3F4"/>
<path d="M14.8595 6.99965C14.8242 7.00584 14.789 7.01267 14.7535 7.01791C10.814 7.60049 6.87442 8.18307 2.93486 8.76564C2.8994 8.77089 2.86371 8.77455 2.82811 8.77884C2.7573 8.30572 2.68586 7.83269 2.61626 7.35906C2.57917 7.10673 2.7314 6.89628 2.98221 6.84884C3.00957 6.8435 3.03725 6.84038 3.06511 6.83626C6.7305 6.29422 10.3959 5.75219 14.0613 5.20984C14.2056 5.18849 14.3405 5.19701 14.4681 5.28489C14.5794 5.36159 14.6321 5.46636 14.651 5.59134C14.7222 6.06085 14.7903 6.5305 14.8595 6.99965ZM13.1393 6.32986C13.1242 6.21273 13.0276 6.13709 12.9141 6.1529C12.8029 6.1687 12.7225 6.27246 12.737 6.38095C12.7509 6.48532 12.8544 6.57061 12.9522 6.55777C13.0795 6.54153 13.1549 6.44984 13.1393 6.32986ZM12.4046 6.43205C12.3861 6.31218 12.2953 6.24475 12.1762 6.26203C12.0729 6.27698 11.9866 6.39325 12.0027 6.49503C12.0187 6.5965 12.1367 6.68095 12.239 6.6642C12.3574 6.64442 12.4231 6.55255 12.4046 6.43205ZM13.4712 6.27917C13.4871 6.37968 13.5956 6.46359 13.6905 6.44891C13.8075 6.43096 13.8918 6.31886 13.8696 6.21023C13.8475 6.10286 13.7386 6.02968 13.6285 6.04824C13.5344 6.06377 13.4555 6.1796 13.4712 6.27917Z" fill="#788D9A"/>
<path d="M3.83146 15.5542C3.90574 15.6122 3.94265 15.7062 4.03689 15.7483C4.13494 15.7921 4.23028 15.811 4.33729 15.7952C8.04253 15.2462 11.7475 14.6979 15.4532 14.1515C15.6814 14.1177 15.7968 13.9753 15.8657 13.7743C15.8774 13.8532 15.8895 13.9324 15.9009 14.0114C15.9377 14.2686 15.7902 14.4763 15.5352 14.5257C15.5078 14.5311 15.4801 14.5342 15.4523 14.5383C11.7865 15.0805 8.12007 15.6208 4.45507 16.1684C4.15752 16.2127 3.8717 16.0503 3.85546 15.7204C3.85266 15.6644 3.83964 15.6093 3.83146 15.5542Z" fill="#E5E9E9"/>
<path d="M4.21736 12.2825C4.07866 11.3471 3.94182 10.4111 3.79869 9.47644C3.78243 9.37113 3.80739 9.34091 3.91131 9.32619C4.74097 9.20801 5.56994 9.08509 6.39834 8.95836C6.50017 8.94265 6.53489 8.96081 6.55049 9.06816C6.82444 10.9397 7.10188 12.8107 7.38275 14.6809C7.39879 14.7869 7.37333 14.8159 7.27009 14.8309C6.44042 14.9491 5.61145 15.072 4.78305 15.1987C4.68154 15.2144 4.64628 15.1969 4.63096 15.0892C4.49669 14.1532 4.3561 13.2181 4.21736 12.2825Z" fill="#FAD984"/>
<path d="M7.51308 11.7887C7.37498 10.8574 7.23809 9.9257 7.09682 8.99493C7.08144 8.89337 7.09248 8.85001 7.20879 8.83378C8.03833 8.71693 8.86725 8.5937 9.69529 8.46672C9.79966 8.45064 9.83096 8.47415 9.84614 8.57866C10.1204 10.4498 10.3975 12.3206 10.6787 14.1908C10.6952 14.2993 10.6646 14.3245 10.5639 14.3391C9.73464 14.4578 8.90558 14.5801 8.07754 14.7071C7.97317 14.7231 7.94169 14.7006 7.92674 14.5954C7.79209 13.6592 7.6518 12.724 7.51308 11.7887Z" fill="#60C3AC"/>
<path d="M13.1221 13.9598C12.538 14.0462 11.9539 14.1306 11.3708 14.2211C11.2813 14.235 11.2557 14.2132 11.243 14.1252C11.0976 13.1229 10.9486 12.1208 10.7975 11.1193C10.7853 11.0393 10.7993 11.0087 10.8848 10.9964C12.0569 10.826 13.2289 10.6527 14.4001 10.4766C14.4836 10.4639 14.5087 10.4848 14.5206 10.5671C14.6664 11.5694 14.8143 12.5716 14.967 13.5728C14.9822 13.6728 14.9488 13.692 14.8623 13.7041C14.2818 13.7867 13.7021 13.8741 13.1221 13.9598Z" fill="#F1786B"/>
<path d="M10.417 8.36568C11.6396 8.18487 12.8626 8.00402 14.0852 7.82322C14.0938 7.82843 14.1019 7.83336 14.1105 7.83857C14.212 8.52518 14.3137 9.21143 14.4152 9.89804C14.4095 9.90535 14.4035 9.91271 14.3978 9.92003C13.3906 10.0699 12.3831 10.2205 11.3759 10.3701C11.1593 10.4022 10.9428 10.4322 10.7261 10.463C10.7182 10.4577 10.71 10.4524 10.702 10.4471C10.6002 9.76058 10.4981 9.07438 10.3963 8.38782C10.4033 8.38 10.4103 8.37281 10.417 8.36568Z" fill="#42B2E0"/>
<path d="M10.4171 8.36618C10.4101 8.3734 10.4034 8.38089 10.3964 8.38811C10.3962 8.37383 10.4022 8.36579 10.4171 8.36618Z" fill="#87CCE8"/>
<path d="M14.1133 7.84005C14.1047 7.83481 14.0965 7.82985 14.0879 7.82461C14.1022 7.82022 14.11 7.82656 14.1133 7.84005Z" fill="#87CCE8"/>
<path d="M10.7021 10.4473C10.7097 10.4524 10.7176 10.4574 10.7252 10.4625C10.712 10.466 10.7044 10.4606 10.7021 10.4473Z" fill="#65C0E6"/>
<path d="M14.3982 9.9186C14.4037 9.91159 14.4094 9.90453 14.4149 9.89752C14.4172 9.91053 14.4121 9.9181 14.3982 9.9186Z" fill="#65C0E6"/>
<path d="M13.1429 6.32829C13.1584 6.4481 13.083 6.53989 12.9555 6.55649C12.8577 6.56932 12.7542 6.48391 12.7403 6.37941C12.7258 6.27078 12.8065 6.16687 12.9173 6.15112C13.0314 6.13522 13.1281 6.21128 13.1429 6.32829Z" fill="#FAD984"/>
<path d="M12.4056 6.4315C12.4242 6.55216 12.3586 6.64413 12.2401 6.66358C12.1378 6.68033 12.0198 6.59576 12.0038 6.49417C11.9877 6.39226 12.0743 6.27613 12.1772 6.26092C12.2963 6.24395 12.3872 6.3118 12.4056 6.4315Z" fill="#60C3AC"/>
<path d="M13.4716 6.27772C13.4558 6.17802 13.5348 6.06239 13.6288 6.04654C13.7393 6.02825 13.8482 6.10154 13.8699 6.20877C13.8922 6.31722 13.8079 6.42944 13.6909 6.44771C13.5957 6.46244 13.4874 6.37804 13.4716 6.27772Z" fill="#F1786B"/>
<path d="M14.4443 14.2286C14.6905 14.292 14.9269 14.3926 15.1668 14.4782C16.135 14.8235 17.1023 15.173 18.0695 15.5218C18.9736 15.8479 19.8775 16.1758 20.7818 16.5014C21.7373 16.8456 22.6933 17.1897 23.6495 17.5317C23.8909 17.6181 23.8877 17.6131 23.9426 17.4108C24.1437 16.6701 24.3476 15.9306 24.5503 15.1904C24.4973 15.1709 24.4551 15.1929 24.4118 15.2038C24.0022 15.305 23.5756 15.3624 23.1488 15.4172C22.7305 15.471 22.3058 15.5051 21.8788 15.5309C21.0564 15.5808 20.2246 15.5664 19.383 15.4919C19.3421 15.4881 19.3015 15.4867 19.2636 15.4627L19.2644 15.4627C19.2536 15.4654 19.2432 15.4679 19.2324 15.4706C19.1926 15.4668 19.1564 15.4762 19.113 15.4587C18.8417 15.3505 18.5683 15.2472 18.2966 15.1397C18.0443 15.0398 17.7936 14.9351 17.5408 14.8353C17.2109 14.7051 16.8795 14.5792 16.5496 14.449C16.2971 14.3493 16.0465 14.2437 15.7939 14.1443C15.3783 13.9804 14.962 13.8193 14.5461 13.6568C14.4892 13.8361 14.4324 14.0152 14.3755 14.1945C14.3993 14.206 14.4216 14.2173 14.4443 14.2286Z" fill="#E9BB37"/>
<path d="M14.5487 13.6569C14.9648 13.8192 15.3814 13.9804 15.7966 14.1444C16.0491 14.2441 16.2995 14.3492 16.5523 14.4491C16.8822 14.5793 17.2135 14.7052 17.5435 14.8354C17.796 14.935 18.0467 15.0397 18.2993 15.1398C18.571 15.2473 18.844 15.3505 19.1156 15.4588C19.1591 15.4763 19.1953 15.4669 19.2351 15.4707C19.2459 15.468 19.2562 15.4655 19.267 15.4628L19.2663 15.4628C19.31 15.4295 19.369 15.4206 19.4213 15.4009C20.5771 14.9678 21.5658 14.3465 22.368 13.5154C22.5071 13.3715 22.506 13.3706 22.6758 13.5421C22.6843 13.5507 22.6944 13.5585 22.703 13.5672C23.3324 14.1876 24.0829 14.6637 24.8568 15.1115C24.9608 14.9078 25.0108 14.6826 25.0842 14.4669C25.2413 14.0048 25.3898 13.5396 25.5422 13.0756C25.7149 12.5494 25.8875 12.0227 26.0613 11.4967C26.2317 10.9804 26.4043 10.4649 26.5743 9.94875C26.7095 9.53768 26.8407 9.12488 26.9788 8.71493C27.0007 8.6496 26.9741 8.62943 26.908 8.60342C26.1922 8.32181 25.4772 8.03781 24.7614 7.75531C24.0027 7.45588 23.2433 7.15834 22.485 6.85881C21.9375 6.64242 21.3912 6.4229 20.8441 6.20641C20.2265 5.96202 19.6077 5.72036 18.9901 5.47598C18.4468 5.26106 17.9036 5.04435 17.3606 4.82869C17.2902 4.80079 17.2192 4.77479 17.1495 4.74541C17.0011 4.68274 16.9981 4.68585 16.9562 4.80662C16.7894 5.28717 16.6201 5.76675 16.4522 6.24709C16.2671 6.77613 16.0838 7.30608 15.898 7.83481C15.734 8.30155 15.5667 8.76727 15.4027 9.23402C15.2387 9.70076 15.0772 10.1685 14.9131 10.6355C14.7708 11.0402 14.6259 11.444 14.4832 11.8488C14.3057 12.3513 14.1299 12.8543 13.9509 13.3561C13.9323 13.4081 13.9588 13.4239 14.0105 13.4439C14.19 13.5126 14.3692 13.5855 14.5487 13.6569ZM24.9237 10.4212C24.9214 10.4771 24.8817 10.4799 24.8033 10.4483C24.4873 10.322 24.1684 10.203 23.8514 10.0796C23.3347 9.878 22.8186 9.6743 22.3021 9.47313C21.7815 9.27024 21.2599 9.06998 20.7393 8.86708C20.2264 8.66709 19.7143 8.46447 19.2014 8.26512C18.622 8.03986 18.0419 7.81583 17.4615 7.59344C17.3836 7.5637 17.352 7.53016 17.3785 7.46248C17.4074 7.38856 17.432 7.31251 17.4558 7.23666C17.4716 7.1863 17.4995 7.17828 17.5621 7.20287C18.0547 7.39757 18.5482 7.58964 19.0412 7.78181C19.5383 7.9757 20.0358 8.16885 20.533 8.3625C21.0617 8.56819 21.59 8.77373 22.1187 8.97943C22.6316 9.17877 23.1448 9.37827 23.6579 9.57737C24.0889 9.7446 24.5197 9.91207 24.9508 10.0784C25.0104 10.1015 25.0307 10.1297 25.0106 10.1801C24.9811 10.2537 24.9566 10.3295 24.9237 10.4212ZM16.8878 9.91681C16.8825 9.86111 16.9288 9.84961 17.0166 9.88371C17.6353 10.1243 18.2547 10.3626 18.8734 10.6025C19.4451 10.8242 20.0163 11.0479 20.5882 11.2691C21.1599 11.4902 21.7327 11.7083 22.3048 11.9293C22.8727 12.1488 23.4395 12.3721 24.0081 12.5895C24.2572 12.6846 24.2585 12.6797 24.1889 12.8827C24.1306 13.0529 24.1295 13.0558 23.9246 12.9775C23.1559 12.6836 22.3873 12.3886 21.6195 12.092C20.8477 11.7938 20.0771 11.4915 19.3052 11.1933C18.5337 10.8952 17.7611 10.6 16.9893 10.3024C16.7979 10.2287 16.7987 10.2264 16.8447 10.0642C16.8562 10.0241 16.868 9.9841 16.8878 9.91681ZM24.5448 11.3596C24.6364 11.3823 24.6462 11.4266 24.6125 11.4953C24.5789 11.5628 24.5574 11.637 24.5378 11.7106C24.5252 11.7583 24.5046 11.7728 24.4463 11.7488C24.3063 11.6912 24.165 11.6377 24.0245 11.5821C23.4894 11.3704 22.9549 11.1574 22.4195 10.9471C21.8139 10.709 21.2069 10.474 20.6013 10.2359C20.0698 10.0269 19.5389 9.81575 19.0079 9.60576C18.9144 9.56877 18.7828 9.5524 18.7362 9.49148C18.6809 9.41935 18.762 9.33039 18.7893 9.25044C18.8372 9.11007 18.8353 9.11314 19.0072 9.18172C19.3976 9.33697 19.7892 9.4878 20.1799 9.64166C20.7152 9.85224 21.2503 10.064 21.7856 10.2745C22.2506 10.4576 22.716 10.6393 23.1809 10.822C23.6339 11.0003 24.087 11.1792 24.5448 11.3596Z" fill="url(#paint0_linear_1073_2341)"/>
<path d="M24.8548 15.1119C24.0808 14.6637 23.3304 14.1879 22.701 13.5675C22.6922 13.5587 22.6824 13.551 22.6739 13.5424C22.5041 13.371 22.5052 13.3718 22.3661 13.5158C21.5638 14.3469 20.575 14.9684 19.4193 15.4013C19.367 15.421 19.3078 15.4294 19.2644 15.4631C19.3023 15.4871 19.3429 15.4886 19.3838 15.4923C20.2255 15.5666 21.0571 15.5813 21.8795 15.5314C22.3065 15.5055 22.7312 15.4714 23.1495 15.4176C23.5763 15.3628 24.0029 15.3055 24.4126 15.2042C24.4559 15.1934 24.498 15.1714 24.5511 15.1909C24.6505 15.1611 24.7617 15.1554 24.8548 15.1119Z" fill="#DEAD31"/>
<path d="M19.2646 15.4629C19.2538 15.4656 19.2434 15.4681 19.2325 15.4708C19.2434 15.4681 19.2538 15.4656 19.2646 15.4629Z" fill="#DEAD31"/>
<path d="M24.9192 10.4195C24.9518 10.3276 24.9768 10.2517 25.0059 10.1779C25.026 10.1275 25.0057 10.0993 24.9461 10.0763C24.5149 9.91017 24.0841 9.74269 23.6532 9.57521C23.1402 9.37611 22.6269 9.17662 22.114 8.97727C21.5854 8.77158 21.057 8.56603 20.5283 8.36034C20.031 8.16694 19.5336 7.97355 19.0365 7.77965C18.5432 7.58734 18.0499 7.39566 17.5575 7.20072C17.495 7.17587 17.4669 7.18415 17.4511 7.2345C17.4272 7.3106 17.403 7.38655 17.3738 7.46033C17.3473 7.528 17.3789 7.56154 17.4568 7.59128C18.0374 7.81343 18.6173 8.0377 19.1967 8.26297C19.7099 8.46247 20.2217 8.66494 20.7346 8.86493C21.2553 9.06782 21.7768 9.26808 22.2974 9.47098C22.8143 9.67229 23.3302 9.87624 23.8467 10.0774C24.1636 10.2011 24.4826 10.3199 24.7986 10.4461C24.8772 10.4781 24.9169 10.4754 24.9192 10.4195Z" fill="#FFFEFB"/>
<path d="M16.8873 9.91742C16.8673 9.98495 16.8553 10.0245 16.8441 10.0648C16.7982 10.227 16.7975 10.2291 16.9887 10.303C17.7605 10.6006 18.5332 10.8956 19.3047 11.1939C20.0765 11.4921 20.8471 11.7944 21.6189 12.0927C22.3866 12.3894 23.1553 12.6842 23.924 12.9781C24.1289 13.0564 24.1299 13.0538 24.1884 12.8833C24.2579 12.6803 24.2563 12.6851 24.0075 12.5901C23.4389 12.3727 22.8721 12.1494 22.3042 11.9299C21.7324 11.7091 21.1598 11.4907 20.5877 11.2697C20.0157 11.0485 19.4445 10.8249 18.8728 10.6031C18.2537 10.3633 17.6347 10.1249 17.016 9.88432C16.9284 9.84996 16.882 9.86171 16.8873 9.91742Z" fill="#FFFEFB"/>
<path d="M24.5427 11.3598C24.085 11.1794 23.6319 11.0005 23.1784 10.8223C22.7132 10.6394 22.248 10.4575 21.7831 10.2748C21.2478 10.0642 20.7129 9.85228 20.1774 9.64195C19.7866 9.48834 19.3948 9.33735 19.0048 9.182C18.8327 9.11367 18.8348 9.11036 18.7869 9.25072C18.7595 9.33068 18.6787 9.41979 18.7338 9.49177C18.7804 9.55269 18.9119 9.56905 19.0054 9.60604C19.5365 9.81603 20.0673 10.0272 20.5989 10.2362C21.2044 10.4742 21.8115 10.7093 22.417 10.9474C22.9524 11.1577 23.4872 11.3708 24.022 11.5824C24.1626 11.638 24.3038 11.6915 24.4438 11.7491C24.5025 11.7732 24.5232 11.7585 24.5353 11.7109C24.5547 11.6372 24.5764 11.5631 24.61 11.4956C24.6443 11.4266 24.6343 11.3825 24.5427 11.3598Z" fill="#FFFEFB"/>
<path d="M21.0945 17.7099C21.0485 17.9141 21.0121 18.121 20.9546 18.3223C20.6559 19.3728 20.0146 20.1547 19.0454 20.6742C18.7997 20.8059 18.5409 20.9081 18.2688 20.9757C18.0963 20.6309 17.9305 20.2833 17.7832 19.927C17.9946 19.8785 18.1812 19.7728 18.3719 19.6771C18.806 19.4588 19.1755 19.1531 19.4785 18.784C19.9679 18.1879 20.2723 17.5089 20.3459 16.7312C20.3922 16.2429 20.3375 15.7729 20.2155 15.303C20.1611 15.0933 20.0465 14.9058 20.0033 14.6934C20.4939 15.1768 20.807 15.7573 20.9816 16.4172C21.0268 16.5888 21.0226 16.77 21.0941 16.9353C21.0945 17.1935 21.0945 17.4517 21.0945 17.7099Z" fill="#D6667E"/>
<path d="M18.1584 25.2123C17.7215 25.3277 17.2744 25.3818 16.8255 25.4244C16.2494 25.4788 15.6711 25.4847 15.0957 25.4448C14.2498 25.3866 13.4096 25.2809 12.6234 24.9322C12.427 24.8453 12.2412 24.7409 12.0872 24.5888C11.8895 24.394 11.8621 24.2599 11.9771 24.0114C12.2966 23.3214 12.6189 22.6324 12.9383 21.9424C12.9587 21.8983 12.9969 21.8571 12.9797 21.8013L12.9779 21.8023C13.0014 21.8079 13.0035 21.7906 13.0078 21.7757C13.2504 21.2606 13.4948 20.747 13.7343 20.2306C13.8578 19.9645 13.9966 19.7052 14.0952 19.4283C14.1145 19.3971 14.1369 19.3677 14.152 19.3347C14.5847 18.4024 15.0161 17.4698 15.4491 16.5379C15.5189 16.3875 15.6224 16.2766 15.8058 16.2734C15.9026 16.3629 15.9369 16.4845 15.9674 16.6037C16.1862 17.4563 16.4012 18.3096 16.6186 19.1625C16.9952 20.6417 17.3733 22.1205 17.7499 23.5997C17.887 24.1369 18.0224 24.6747 18.1584 25.2123Z" fill="#89C0FF"/>
<path d="M15.8037 16.2745C15.6203 16.2776 15.5169 16.3885 15.4471 16.5389C15.014 17.4709 14.5827 18.4035 14.1499 19.3358C14.1345 19.3687 14.1121 19.3985 14.0931 19.4294C13.8617 19.1077 13.7018 18.7528 13.5882 18.3758C13.4647 17.9665 13.4318 17.5471 13.4409 17.1229C13.464 16.7396 13.5478 16.3681 13.6716 16.0049C13.8575 15.5536 14.1012 15.1384 14.4375 14.7776C14.974 14.202 15.6224 13.8093 16.3956 13.645C17.7563 13.3556 18.9468 13.6956 19.9599 14.6397C19.9662 14.6456 19.9693 14.6553 19.9739 14.6629C19.9837 14.6726 19.9932 14.6827 20.003 14.6924L20.0023 14.691C20.0454 14.9034 20.1598 15.0906 20.2145 15.3006C20.3365 15.7706 20.3912 16.2409 20.3449 16.7288C20.2709 17.5066 19.9669 18.1855 19.4773 18.7816C19.1744 19.1504 18.8048 19.4564 18.3706 19.6747C18.1799 19.7707 17.9933 19.8764 17.7818 19.9246C17.7559 19.8757 17.7278 19.8283 17.7047 19.7784C17.2022 18.6998 16.7 17.6213 16.1986 16.5424C16.1197 16.3757 16.0085 16.2585 15.8037 16.2745Z" fill="url(#paint1_linear_1073_2341)"/>
<path d="M10.6254 23.1067C10.2982 22.9504 9.99246 22.7564 9.67791 22.5779C8.7367 22.0438 7.79831 21.5049 6.8578 20.9694C6.79538 20.9341 6.76172 20.8987 6.76172 20.8211C6.76452 19.4019 6.76382 17.9823 6.76452 16.5627C6.76452 16.5489 6.76733 16.5353 6.76873 16.5215C7.4059 16.8809 8.04378 17.2389 8.68025 17.5997C9.32934 17.9674 9.97703 18.3379 10.6258 18.707C10.6254 20.1737 10.6254 21.64 10.6254 23.1067Z" fill="#6EB3CF"/>
<path d="M10.6243 18.706C9.97588 18.3369 9.32819 17.9667 8.67909 17.5987C8.04262 17.2382 7.40475 16.8799 6.76758 16.5205C6.93064 16.3662 7.13894 16.282 7.33006 16.1725C8.38488 15.5663 9.44286 14.9664 10.4977 14.3603C10.5934 14.3052 10.6649 14.2996 10.7649 14.3571C11.6942 14.8926 12.627 15.4218 13.559 15.9524C13.5948 15.9729 13.6341 15.9878 13.6716 16.0055C13.5478 16.3687 13.464 16.7402 13.4409 17.1235C13.403 17.1412 13.3641 17.1561 13.328 17.1765C12.8332 17.4573 12.3384 17.738 11.8446 18.0204C11.4473 18.2478 11.051 18.4769 10.6544 18.7053C10.6443 18.706 10.6344 18.706 10.6243 18.706Z" fill="#7BC6E4"/>
<path d="M10.6528 18.7029C11.0493 18.4745 11.4455 18.245 11.8428 18.018C12.3365 17.7356 12.8312 17.4548 13.3259 17.1741C13.362 17.1537 13.4013 17.1388 13.4388 17.1211C13.4297 17.5453 13.4627 17.9643 13.5861 18.374C13.6997 18.751 13.8596 19.1059 14.091 19.4275C13.9924 19.7048 13.8536 19.964 13.7302 20.2299C13.4907 20.7459 13.246 21.2599 13.0037 21.7749C12.9939 21.7839 12.9841 21.7929 12.9739 21.8016L12.9756 21.8005C12.632 21.9624 12.3133 22.1686 11.982 22.3523C11.537 22.5994 11.0946 22.851 10.6514 23.1005C10.6521 21.6349 10.6524 20.1689 10.6528 18.7029Z" fill="#629EB6"/>
<path d="M15.8086 16.2729C16.0134 16.257 16.1245 16.3741 16.2024 16.5415C16.7039 17.6204 17.206 18.699 17.7085 19.7775C17.7317 19.8274 17.7597 19.8752 17.7857 19.9237C17.933 20.28 18.0988 20.6276 18.2714 20.9725C18.4877 21.4452 18.7027 21.919 18.9208 22.391C19.1779 22.9473 19.4314 23.5049 19.6997 24.0556C19.7814 24.2237 19.7494 24.3578 19.6485 24.4899C19.4465 24.7543 19.1537 24.8884 18.8545 25.007C18.6301 25.0957 18.4015 25.174 18.1613 25.2118C18.0252 24.6742 17.8898 24.1364 17.7531 23.5992C17.3761 22.12 16.9984 20.6412 16.6218 19.162C16.4044 18.3091 16.1898 17.4558 15.9706 16.6032C15.9397 16.484 15.9057 16.3624 15.8086 16.2729Z" fill="#7AA0CC"/>
<path d="M10.6581 18.7051C10.6577 20.1711 10.6574 21.6371 10.6567 23.1031C10.6483 23.1211 10.6391 23.1239 10.6279 23.1052C10.6279 21.6385 10.6279 20.1721 10.6283 18.7054C10.6384 18.7054 10.6483 18.7054 10.6581 18.7051Z" fill="#82B0C7"/>
<path d="M20.0068 14.6917C19.9969 14.682 19.9874 14.6719 19.9775 14.6621C19.9874 14.6719 19.9973 14.682 20.0068 14.6917Z" fill="#D6667E"/>
<path d="M12.9785 21.8042C12.9884 21.7951 12.9982 21.7861 13.0084 21.7773C13.0042 21.7923 13.0017 21.8097 12.9785 21.8042Z" fill="white"/>
<defs>
<linearGradient id="paint0_linear_1073_2341" x1="23.5029" y1="6.49805" x2="18.1227" y2="15.5103" gradientUnits="userSpaceOnUse">
<stop stop-color="#FFD959"/>
<stop offset="1" stop-color="#BF7F51"/>
</linearGradient>
<linearGradient id="paint1_linear_1073_2341" x1="19.502" y1="13.502" x2="16.002" y2="20.002" gradientUnits="userSpaceOnUse">
<stop stop-color="#B44F64"/>
<stop offset="1" stop-color="#EC718B"/>
</linearGradient>
</defs>
</svg>
