<svg width="30" height="30" viewBox="0 0 30 30" fill="none" xmlns="http://www.w3.org/2000/svg">
<rect x="10" y="8" width="10" height="11" fill="white"/>
<path d="M8.49229 22.9872C7.26788 22.9872 6.04347 22.9872 4.81906 22.9747C3.2215 22.9747 2.00875 21.6927 2.00875 19.9709C1.99708 15.66 1.99708 11.3492 2.00875 7.03833C2.00875 5.29137 3.18651 4.00943 4.79574 4.00943C11.5825 3.99686 18.3809 3.99686 25.1793 4.00943C26.7535 4.00943 27.9663 5.26623 27.9779 6.97549C28.0012 11.324 28.0129 15.6852 27.9779 20.0337C27.9663 21.7556 26.7185 22.9747 25.0976 22.9872C23.8966 22.9872 22.6838 22.9872 21.4827 22.9872C17.1565 22.9872 12.8185 22.9872 8.49229 22.9872ZM15.0341 6.03289C11.7341 6.03289 8.43399 6.03289 5.13391 6.03289C4.15438 6.03289 3.87452 6.32195 3.87452 7.35253C3.87452 11.4497 3.87452 15.5469 3.87452 19.6567C3.87452 20.6873 4.15438 20.9763 5.13391 20.9763C11.6991 20.9763 18.2526 20.9763 24.8178 20.9763C25.8789 20.9763 26.1355 20.6998 26.1355 19.5184C26.1355 15.4589 26.1355 11.3995 26.1355 7.33997C26.1355 6.33452 25.8556 6.02032 24.9344 6.02032C21.6343 6.02032 18.3342 6.03289 15.0341 6.03289Z" fill="#3A6984"/>
<path d="M22 24C21.785 25.2566 20.963 25.9782 19.6856 25.9907C16.5619 26.0031 13.4255 26.0031 10.3017 25.9907C9.01174 25.9907 8.11382 25.2068 8 24.0124C12.6667 24 17.3333 24 22 24Z" fill="url(#paint0_linear_1073_2320)"/>
<path d="M21.9498 24C17.3166 24 12.6834 24 8.05022 24C8.03767 23.6709 8.01256 23.3291 8 23C12.6709 23 17.3291 23 22 23C21.9749 23.3291 21.9623 23.6709 21.9498 24Z" fill="#232323"/>
<path d="M15.0337 6.03125C18.3337 6.03125 21.6338 6.03125 24.9339 6.03125C25.8551 6.03125 26.135 6.34545 26.135 7.3509C26.135 11.4104 26.135 15.4699 26.135 19.5294C26.135 20.6982 25.8784 20.9873 24.8173 20.9873C18.2521 20.9873 11.6986 20.9873 5.13342 20.9873C4.15389 20.9873 3.87402 20.6982 3.87402 19.6676C3.87402 15.5704 3.87402 11.4732 3.87402 7.36347C3.87402 6.33288 4.15389 6.04382 5.13342 6.04382C8.4335 6.03125 11.7336 6.03125 15.0337 6.03125ZM13.8792 12.5164C14.0774 12.7175 14.0308 12.8557 14.0308 12.9688C14.0308 14.2382 14.0308 15.5201 14.0425 16.7895C14.0541 17.5436 14.3923 17.9584 14.9754 17.9709C15.5701 17.9835 15.8966 17.5687 15.9082 16.8147C15.9199 16.0983 15.9082 15.3945 15.9082 14.6781C15.9082 13.9743 15.9082 13.283 15.9082 12.5792C15.9665 12.5415 16.0365 12.5038 16.0948 12.4661C16.3747 12.8054 16.6312 13.1699 16.9344 13.4841C17.3309 13.8989 17.879 13.8989 18.2404 13.5344C18.6369 13.1448 18.6719 12.5415 18.2521 12.0765C17.4008 11.1339 16.5379 10.2039 15.6634 9.28638C15.2552 8.85907 14.7071 8.85907 14.3107 9.27381C13.4361 10.1913 12.5732 11.1213 11.7219 12.0639C11.3371 12.4912 11.3371 13.0819 11.6869 13.4716C12.0484 13.8863 12.6082 13.8989 13.0396 13.4716C13.3311 13.2076 13.5877 12.8683 13.8792 12.5164Z" fill="#67969C"/>
<defs>
<linearGradient id="paint0_linear_1073_2320" x1="15" y1="24" x2="15" y2="26" gradientUnits="userSpaceOnUse">
<stop stop-color="#3A6984" stop-opacity="0.71"/>
<stop offset="1" stop-color="#697F8C"/>
</linearGradient>
</defs>
</svg>
