<svg width="30" height="30" viewBox="0 0 30 30" fill="none" xmlns="http://www.w3.org/2000/svg">
<path d="M26.4742 6.44167C26.3351 6.79616 26.2318 7.17309 26.0522 7.50515C25.7918 7.98079 25.3608 8.29041 24.8669 8.51029C24.4314 8.67632 23.9824 8.70773 23.5244 8.68081C23.0305 8.5776 22.5726 8.39362 22.1865 8.05259C21.7105 7.63079 21.4411 7.09681 21.3199 6.48205C21.2975 6.01987 21.3289 5.56665 21.4905 5.13139C21.8318 4.37753 22.3885 3.8615 23.1877 3.62816C24.5795 3.22431 26.0342 4.0724 26.3889 5.4814C26.4114 5.56217 26.4428 5.64294 26.4698 5.72371C26.4742 5.96153 26.4742 6.19936 26.4742 6.44167Z" fill="#709EDC"/>
<path d="M24.8665 21.484C25.7465 21.8878 26.2852 22.5564 26.4469 23.5167C26.4469 23.5302 26.4648 23.5391 26.4738 23.5481C26.4738 23.8039 26.4738 24.0552 26.4738 24.311C26.4469 24.3783 26.411 24.4411 26.393 24.5084C26.2044 25.2398 25.7779 25.7962 25.1089 26.1462C24.826 26.2943 24.4983 26.3616 24.1885 26.4648C23.9775 26.4648 23.7709 26.4648 23.5599 26.4648C23.2052 26.3257 22.8281 26.227 22.5003 26.043C22.0244 25.7828 21.7191 25.352 21.4946 24.8629C21.3285 24.4276 21.297 23.9744 21.324 23.5122C21.4272 23.0097 21.6158 22.5475 21.9705 22.1616C22.3926 21.6949 22.9224 21.4346 23.5285 21.3135C23.982 21.291 24.4309 21.318 24.8665 21.484Z" fill="#709EDC"/>
<path d="M8.54632 24.8456C8.46999 24.9713 8.39815 25.1014 8.31734 25.2271C7.90427 25.8777 7.32059 26.2816 6.5663 26.4252C6.52589 26.4341 6.48548 26.4521 6.44508 26.47C6.23405 26.47 6.02752 26.47 5.8165 26.47C5.52915 26.3758 5.21935 26.3264 4.95445 26.1873C4.03853 25.6937 3.53118 24.9174 3.54016 23.8764C3.54465 22.8488 4.03404 22.077 4.94996 21.5834C5.0218 21.543 5.08466 21.4982 5.152 21.4533C5.58752 21.3321 6.03201 21.2873 6.48548 21.3142C6.99733 21.4174 7.45978 21.6148 7.85039 21.9738C8.30836 22.3911 8.56428 22.9161 8.68101 23.5129C8.71244 23.9661 8.66754 24.4104 8.54632 24.8456Z" fill="#2EC5F4"/>
<path d="M5.15229 8.54221C4.96821 8.43003 4.77963 8.32682 4.60453 8.20118C3.74697 7.57296 3.35636 6.52294 3.6033 5.52229C3.86371 4.46778 4.6629 3.73636 5.74495 3.56585C6.82251 3.39533 7.90455 3.94726 8.40742 4.92548C8.44782 5.00177 8.5017 5.07356 8.5466 5.14985C8.66783 5.58511 8.71721 6.02935 8.68579 6.48256C8.58252 6.98513 8.39395 7.44283 8.04374 7.83322C7.61721 8.29541 7.0919 8.56016 6.48577 8.67682C6.0323 8.71272 5.5878 8.66336 5.15229 8.54221Z" fill="#2EC5F4"/>
<path d="M5.15156 8.54102C5.58701 8.66217 6.03144 8.71153 6.48485 8.68012C6.48485 12.8936 6.48485 17.1027 6.48485 21.3162C6.03144 21.2848 5.58701 21.3297 5.15156 21.4553C5.14707 21.379 5.14258 21.3072 5.14258 21.231C5.14258 17.0758 5.14258 12.9206 5.14258 8.76538C5.14258 8.68909 5.14707 8.61281 5.15156 8.54102Z" fill="#8AD4E5"/>
<path d="M21.4946 5.13281C21.333 5.56808 21.2971 6.02129 21.324 6.48347C20.3183 6.48347 19.3081 6.48796 18.3024 6.48347C17.2069 6.48347 16.1068 6.47899 15.0113 6.4745C15.0113 6.03026 15.0068 5.58602 15.0068 5.14179C15.604 5.1373 16.2011 5.13281 16.7983 5.13281C18.3607 5.13281 19.9277 5.13281 21.4946 5.13281Z" fill="#2ABFCA"/>
<path d="M15.0038 5.14121C15.0038 5.58544 15.0083 6.02968 15.0083 6.47392C12.8981 6.47392 10.7924 6.47841 8.68215 6.47841C8.71358 6.02519 8.66419 5.58096 8.54297 5.14569C8.83481 5.14121 9.12216 5.13672 9.414 5.13672C11.2773 5.14121 13.1406 5.14121 15.0038 5.14121Z" fill="#8AD4E5"/>
<path d="M21.3207 23.5117C21.2983 23.9739 21.3297 24.4271 21.4913 24.8624C19.417 24.8624 17.3427 24.8624 15.2684 24.8624C15.1786 24.8624 15.0888 24.8579 14.999 24.8534C14.999 24.4092 15.0035 23.9649 15.0035 23.5207C17.1137 23.5162 19.2195 23.5162 21.3207 23.5117Z" fill="#2ABFCA"/>
<path d="M15.0083 23.5162C15.0083 23.9604 15.0038 24.4047 15.0038 24.8489C12.8891 24.8489 10.7744 24.8489 8.65521 24.8534C8.6193 24.8534 8.58338 24.8489 8.54297 24.8444C8.66419 24.4092 8.71358 23.9649 8.68215 23.5117C9.55318 23.5117 10.4242 23.5117 11.2952 23.5117C12.5344 23.5117 13.7736 23.5162 15.0083 23.5162Z" fill="#8AD4E5"/>
<path d="M24.8677 21.4824C24.4322 21.3164 23.9833 21.2895 23.5254 21.3119C23.5254 17.1029 23.5254 12.8893 23.5254 8.68028C23.9833 8.70272 24.4322 8.67579 24.8677 8.50977C24.8677 12.831 24.8677 17.1567 24.8677 21.4824Z" fill="#2DBFCA"/>
<path d="M15.0024 20.2267C14.4008 20.2267 13.7947 20.2267 13.1796 20.2267C13.1796 19.7825 13.1796 19.3472 13.1796 18.894C13.5522 18.894 13.9249 18.894 14.311 18.894C14.311 16.3363 14.311 13.7965 14.311 11.2432C13.193 11.2432 12.0706 11.2432 10.9257 11.2432C10.9257 11.6112 10.9257 11.9702 10.9257 12.3426C10.4722 12.3426 10.0412 12.3426 9.59668 12.3426C9.59668 11.5349 9.59668 10.7272 9.59668 9.91053C9.61015 9.90604 9.6326 9.89258 9.65056 9.89258C11.433 9.89258 13.22 9.89707 15.0024 9.89707C15.0024 13.3388 15.0024 16.785 15.0024 20.2267Z" fill="#D1DDFB"/>
<path d="M15.002 20.2261C15.002 16.7844 15.002 13.3382 15.002 9.89648C16.8024 9.89648 18.5983 9.89648 20.4122 9.89648C20.4122 10.7132 20.4122 11.5209 20.4122 12.3465C19.9767 12.3465 19.5412 12.3465 19.0877 12.3465C19.0877 11.9875 19.0877 11.6241 19.0877 11.2471C17.9473 11.2471 16.8248 11.2471 15.6889 11.2471C15.6889 13.7824 15.6889 16.3177 15.6889 18.8755C16.0616 18.8755 16.4387 18.8755 16.8293 18.8755C16.8293 19.3332 16.8293 19.7684 16.8293 20.2306C16.2232 20.2261 15.6126 20.2261 15.002 20.2261Z" fill="#ABD4FF"/>
</svg>
