<svg width="30" height="30" viewBox="0 0 30 30" fill="none" xmlns="http://www.w3.org/2000/svg">
<path d="M15.0206 15.8038L5.00098 15.6488C5.96817 12.4139 6.92645 9.20963 7.88417 6.00538L7.92596 6C8.32654 6.93157 8.72713 7.86313 9.13774 8.81515C9.19735 8.77479 9.24192 8.74734 9.28315 8.71559C10.2938 7.9374 11.3925 7.31044 12.6187 6.90304C13.8868 6.47304 15.2387 6.32406 16.5744 6.46713C18.1921 6.63512 19.7262 7.24648 20.9959 8.22909C22.4032 9.30542 23.3816 10.6778 23.9404 12.324C24.3504 13.5317 24.4663 14.7716 24.3387 16.0374C24.1799 17.6072 23.6479 19.0586 22.8612 20.431C22.1107 21.7403 21.1575 22.9006 20.0755 23.9678C20.0652 23.9785 20.0527 23.9871 20.0388 23.9931C20.0249 23.999 20.0099 24.0021 19.9947 24.0022C20.0298 23.9323 20.0621 23.8607 20.0995 23.7918C20.6233 22.8393 21.0323 21.8319 21.3185 20.7894C21.6121 19.7028 21.7447 18.5985 21.6433 17.4775C21.5319 16.2397 21.158 15.0929 20.3702 14.094C19.6922 13.233 18.8203 12.641 17.7327 12.3628C16.9271 12.1561 16.117 12.1717 15.312 12.3628C14.3693 12.5845 13.5364 13.0204 12.7714 13.5876C12.7454 13.6045 12.7184 13.6199 12.6906 13.6339L15.0367 15.7737L15.0206 15.8038Z" fill="url(#paint0_linear_1073_2569)"/>
<path d="M7.9836 13.4565V6L5.00098 15.6935H14.6945L7.9836 13.4565Z" fill="white" fill-opacity="0.69"/>
<defs>
<linearGradient id="paint0_linear_1073_2569" x1="26.618" y1="21.0687" x2="6.91126" y2="5.53539" gradientUnits="userSpaceOnUse">
<stop stop-color="white" stop-opacity="0"/>
<stop offset="1" stop-color="#6EC9FC"/>
</linearGradient>
</defs>
</svg>
