<svg width="20" height="20" viewBox="0 0 20 20" fill="none" xmlns="http://www.w3.org/2000/svg">
<path opacity="0.8" d="M14.168 5.0013H18.3346V6.66797H16.668V17.5013C16.668 17.7223 16.5802 17.9343 16.4239 18.0906C16.2676 18.2468 16.0556 18.3346 15.8346 18.3346H4.16797C3.94695 18.3346 3.73499 18.2468 3.57871 18.0906C3.42243 17.9343 3.33464 17.7223 3.33464 17.5013V6.66797H1.66797V5.0013H5.83464V2.5013C5.83464 2.28029 5.92243 2.06833 6.07871 1.91205C6.23499 1.75577 6.44695 1.66797 6.66797 1.66797H13.3346C13.5556 1.66797 13.7676 1.75577 13.9239 1.91205C14.0802 2.06833 14.168 2.28029 14.168 2.5013V5.0013ZM15.0013 6.66797H5.0013V16.668H15.0013V6.66797ZM7.5013 9.16797H9.16797V14.168H7.5013V9.16797ZM10.8346 9.16797H12.5013V14.168H10.8346V9.16797ZM7.5013 3.33464V5.0013H12.5013V3.33464H7.5013Z" fill="black"/>
</svg>
