<svg width="21" height="20" viewBox="0 0 21 20" fill="none" xmlns="http://www.w3.org/2000/svg">
<path d="M11.4927 13.5116L8.36105 11.9095C7.9522 12.3195 7.42133 12.6047 6.83743 12.7279C6.25354 12.8512 5.64362 12.8069 5.08693 12.6007C4.53024 12.3945 4.05254 12.0361 3.71589 11.5719C3.37924 11.1077 3.19922 10.5592 3.19922 9.99775C3.19922 9.4363 3.37924 8.88784 3.71589 8.42363C4.05254 7.95943 4.53024 7.60094 5.08693 7.39477C5.64362 7.1886 6.25354 7.14427 6.83743 7.26755C7.42133 7.39082 7.9522 7.676 8.36105 8.08603L11.4934 6.48389C11.3156 5.8235 11.4006 5.12493 11.7325 4.51914C12.0645 3.91335 12.6205 3.44192 13.2965 3.19321C13.9725 2.94451 14.7219 2.93562 15.4044 3.16819C16.0868 3.40077 16.6554 3.85885 17.0036 4.45657C17.3518 5.05429 17.4556 5.75061 17.2956 6.41501C17.1357 7.07941 16.7229 7.66628 16.1347 8.0656C15.5465 8.46493 14.8232 8.6493 14.1004 8.58415C13.3777 8.51901 12.705 8.20882 12.2086 7.71173L9.07627 9.31386C9.19649 9.76257 9.19649 10.2322 9.07627 10.6809L12.2079 12.2831C12.7043 11.786 13.3769 11.4758 14.0997 11.4106C14.8224 11.3455 15.5457 11.5299 16.1339 11.9292C16.7222 12.3285 17.1349 12.9154 17.2949 13.5798C17.4549 14.2442 17.351 14.9405 17.0028 15.5382C16.6547 16.1359 16.0861 16.594 15.4036 16.8266C14.7212 17.0592 13.9717 17.0503 13.2958 16.8016C12.6198 16.5529 12.0637 16.0814 11.7318 15.4757C11.3998 14.8699 11.3148 14.1713 11.4927 13.5109V13.5116ZM6.18257 11.3966C6.57816 11.3966 6.95756 11.2492 7.23729 10.9868C7.51702 10.7244 7.67417 10.3685 7.67417 9.9974C7.67417 9.62629 7.51702 9.27039 7.23729 9.00798C6.95756 8.74557 6.57816 8.59815 6.18257 8.59815C5.78697 8.59815 5.40758 8.74557 5.12785 9.00798C4.84812 9.27039 4.69097 9.62629 4.69097 9.9974C4.69097 10.3685 4.84812 10.7244 5.12785 10.9868C5.40758 11.2492 5.78697 11.3966 6.18257 11.3966ZM14.3864 7.1989C14.782 7.1989 15.1613 7.05148 15.4411 6.78908C15.7208 6.52667 15.878 6.17076 15.878 5.79966C15.878 5.42856 15.7208 5.07265 15.4411 4.81024C15.1613 4.54783 14.782 4.40041 14.3864 4.40041C13.9908 4.40041 13.6114 4.54783 13.3316 4.81024C13.0519 5.07265 12.8948 5.42856 12.8948 5.79966C12.8948 6.17076 13.0519 6.52667 13.3316 6.78908C13.6114 7.05148 13.9908 7.1989 14.3864 7.1989ZM14.3864 15.5944C14.782 15.5944 15.1613 15.447 15.4411 15.1846C15.7208 14.9221 15.878 14.5662 15.878 14.1951C15.878 13.824 15.7208 13.4681 15.4411 13.2057C15.1613 12.9433 14.782 12.7959 14.3864 12.7959C13.9908 12.7959 13.6114 12.9433 13.3316 13.2057C13.0519 13.4681 12.8948 13.824 12.8948 14.1951C12.8948 14.5662 13.0519 14.9221 13.3316 15.1846C13.6114 15.447 13.9908 15.5944 14.3864 15.5944Z" fill="black"/>
</svg>
