<svg width="48" height="48" viewBox="0 0 48 48" fill="none" xmlns="http://www.w3.org/2000/svg">
<path d="M38.4355 11.8474C38.433 12.3599 38.5078 12.8728 38.4415 13.3865C38.3518 14.0758 38.1556 14.7297 37.8389 15.3389C35.7011 19.452 33.5577 23.5621 31.4155 27.6727C31.3825 27.736 31.3392 27.7929 31.3003 27.8523C30.0847 27.1854 28.8689 26.5176 27.6524 25.8509C26.0277 24.9597 24.402 24.0687 22.7772 23.1775C22.7694 23.158 22.7628 23.139 22.7567 23.1189C22.8294 22.996 22.909 22.8776 22.975 22.7509C25.8445 17.2458 28.7121 11.7403 31.5829 6.23663C31.6577 6.09302 31.6919 5.91023 31.871 5.84378C33.3693 6.6674 34.9219 7.39362 36.3286 8.38212C37.0358 8.87854 37.557 9.55691 37.9191 10.3557C37.9366 10.3952 37.9827 10.4213 38.0156 10.4533C38.155 10.9182 38.2953 11.3828 38.4355 11.8474Z" fill="#5393CE"/>
<path d="M22.7557 23.1173C22.7618 23.1374 22.7684 23.1564 22.7762 23.1759C22.718 23.3069 22.6677 23.4422 22.6017 23.5688C20.4269 27.7474 18.2496 31.9239 16.074 36.1027C15.8148 36.6003 15.7906 36.5018 16.2905 36.7797C17.4227 37.4079 18.5571 38.0308 19.6905 38.6568C21.5706 39.6939 24.038 39.394 25.6148 37.9688C25.9109 37.7012 26.1086 37.3328 26.4656 37.1345C26.075 37.9118 25.6855 38.6898 25.2949 39.4672C24.6788 40.6966 23.9308 41.8096 22.718 42.5112C22.6028 42.5888 22.4232 42.5487 22.3544 42.7124C21.8777 42.8563 21.4019 43 20.9252 43.1439C20.6844 43.0708 20.4447 43.1489 20.2046 43.149C19.4505 43.1508 18.7153 43.0269 18.0356 42.6927C16.6129 41.993 15.2385 41.1977 13.86 40.4104C13.912 40.2898 13.9576 40.1665 14.0182 40.05C14.5753 38.9765 15.1271 37.9009 15.6987 36.8354C15.8267 36.5967 15.7936 36.4961 15.5566 36.3676C14.2827 35.6801 13.0162 34.9742 11.7488 34.2743C11.655 34.2226 11.5567 34.1742 11.4711 34.1095C9.63597 32.7405 8.82504 30.5106 9.35205 28.2865C9.37972 28.1686 9.40457 28.0505 9.35434 27.9304C9.53387 27.5788 9.71144 27.227 9.89321 26.8767C11.2992 24.1766 12.7062 21.4772 14.1133 18.7778C14.1681 18.6726 14.2313 18.5707 14.2914 18.4677C16.3252 19.5889 18.3585 20.7113 20.3936 21.8303C21.1776 22.2635 21.9674 22.6883 22.7557 23.1173Z" fill="#E55739"/>
<path d="M22.7493 23.1209C21.9612 22.6927 21.172 22.2668 20.3854 21.8343C18.3504 20.7154 16.3171 19.593 14.2832 18.4717C14.3322 18.3626 14.3747 18.2507 14.4295 18.1455C16.5158 14.1394 18.6033 10.134 20.6886 6.12726C21.2205 5.10617 21.9348 4.26351 22.9496 3.71986C24.4987 2.89007 26.0961 2.82138 27.6997 3.57793C29.1267 4.25156 30.4848 5.06987 31.8622 5.84424C31.6834 5.91156 31.6489 6.09348 31.5741 6.23708C28.7033 11.7407 25.836 17.2471 22.9662 22.7514C22.9014 22.8787 22.822 22.9979 22.7493 23.1209Z" fill="#669FD5"/>
<path d="M9.34968 27.9337C9.39965 28.0529 9.37506 28.1718 9.3474 28.2898C8.82149 30.5145 9.63158 32.7447 11.4664 34.1128C11.5529 34.1772 11.6501 34.225 11.7442 34.2776C13.0124 34.9773 14.2777 35.6825 15.5519 36.3709C15.7886 36.4985 15.8221 36.6 15.6941 36.8387C15.1233 37.9039 14.5707 38.9798 14.0136 40.0533C13.9538 40.1695 13.9082 40.2929 13.8553 40.4136C12.4755 39.6467 11.0694 38.9248 9.72068 38.1037C7.42112 36.7034 6.53489 33.6662 7.65307 31.2151C8.16666 30.0899 8.74855 29.0061 9.34968 27.9337Z" fill="#F26C52"/>
<path d="M26.46 37.1357C26.1032 37.3349 25.9053 37.7024 25.6092 37.97C24.033 39.394 21.565 39.6951 19.6849 38.6579C18.5517 38.0328 17.4171 37.4091 16.2849 36.7809C15.785 36.503 15.8092 36.6014 16.0684 36.1039C18.2432 31.9253 20.4205 27.7488 22.5961 23.57C22.6621 23.4433 22.7124 23.3081 22.7706 23.1771C24.3954 24.0683 26.0211 24.9593 27.6458 25.8505C28.8614 26.5174 30.0773 27.1852 31.2937 27.8519C31.0843 28.2677 30.8791 28.6851 30.664 29.0978C29.339 31.6467 28.0109 34.1946 26.6836 36.7423C26.6453 36.8158 26.5989 36.8841 26.5562 36.9551C26.5394 36.9859 26.5229 37.0176 26.5062 37.0484C26.4903 37.0789 26.4755 37.1072 26.46 37.1357Z" fill="#CF4729"/>
<path d="M26.5099 37.0521C26.5267 37.0213 26.5432 36.9896 26.5599 36.9588C26.5432 36.9896 26.5264 37.0204 26.5099 37.0521Z" fill="#E55739"/>
</svg>
