<svg width="48" height="48" viewBox="0 0 48 48" fill="none" xmlns="http://www.w3.org/2000/svg">
<path d="M42.1634 9.79044C42.2091 8.52478 42.2548 7.25851 42.2999 5.99283C42.3291 5.1821 41.9214 4.74473 41.1131 4.7163C36.4986 4.55401 31.8841 4.39171 27.2696 4.22942C25.472 4.1662 23.6739 4.10175 21.8762 4.04033C21.2319 4.01827 20.7445 4.46327 20.7203 5.09846C20.6712 6.40974 20.6287 7.72065 20.5838 9.03148C20.5816 9.06148 20.5793 9.09149 20.5783 9.12154C20.3977 14.2547 20.2166 19.3878 20.0373 24.5204C20.0167 25.1058 20.4998 25.6036 21.1026 25.6248C27.5622 25.8526 34.0211 26.0797 40.4807 26.3063C41.1045 26.3283 41.6011 25.8619 41.6232 25.2345C41.6786 23.6761 41.7334 22.1171 41.7876 20.5587C41.9133 16.9695 42.0383 13.3797 42.1634 9.79044Z" fill="#FEFEFE"/>
<path d="M42.1646 9.79033C42.0395 13.3795 41.9145 16.9694 41.7889 20.5586C41.7346 22.117 41.6798 23.676 41.6244 25.2344C41.6024 25.8612 41.1051 26.3281 40.4819 26.3062C34.0223 26.0796 27.5634 25.8524 21.1038 25.6247C20.501 25.6034 20.0179 25.1057 20.0385 24.5203C20.2172 19.3871 20.3983 14.2539 20.5795 9.12142C20.5805 9.09137 20.5834 9.06138 20.585 9.03136C20.6523 9.03553 20.7195 9.0415 20.7868 9.04387C27.8455 9.29213 34.9037 9.54037 41.9624 9.78863C42.0298 9.791 42.0972 9.78976 42.1646 9.79033ZM30.9475 20.9282C33.6676 21.0239 36.3877 21.1196 39.1073 21.2152C39.4937 21.2288 39.6075 21.1239 39.6215 20.7423C39.728 17.715 39.8345 14.6878 39.9409 11.6606C39.9549 11.2633 39.8528 11.1556 39.4501 11.1414C34.0327 10.9509 28.6153 10.7604 23.1973 10.5698C22.7946 10.5557 22.6858 10.6553 22.6718 11.0532C22.5656 14.0732 22.4594 17.0927 22.3532 20.1127C22.3387 20.525 22.4373 20.6289 22.8544 20.6436C25.5523 20.7385 28.2496 20.8334 30.9475 20.9282ZM32.942 23.1599C34.9571 23.2307 36.9729 23.3016 38.9881 23.3725C39.0554 23.3749 39.1232 23.3809 39.1901 23.3772C39.3951 23.3658 39.5285 23.2332 39.539 23.0374C39.5492 22.8332 39.4196 22.6854 39.205 22.6616C39.1379 22.6545 39.0705 22.6551 39.0031 22.6527C34.9572 22.5104 30.9119 22.3664 26.8657 22.2313C26.65 22.2243 26.5843 22.1738 26.6065 21.9544C26.6363 21.654 26.4966 21.4866 26.2596 21.4831C26.0323 21.4799 25.8849 21.6335 25.8987 21.9235C25.9106 22.1664 25.8163 22.1968 25.603 22.1869C24.6298 22.1418 23.6554 22.1123 22.6811 22.0799C22.3866 22.0701 22.2292 22.2349 22.2674 22.5004C22.2949 22.6933 22.4239 22.7899 22.6769 22.7988C23.606 22.8327 24.5352 22.8648 25.4637 22.8974C25.8309 22.9104 25.8309 22.9104 25.8454 23.2677C25.8541 23.4822 25.9921 23.6321 26.1879 23.6414C26.3844 23.6501 26.5379 23.5117 26.5628 23.3002C26.5679 23.2558 26.5738 23.2097 26.5675 23.1655C26.5423 22.9769 26.619 22.9327 26.8059 22.9404C28.8509 23.0184 30.8962 23.0879 32.942 23.1599Z" fill="#EDF4F7"/>
<path d="M42.1634 9.7907C42.096 9.79014 42.0285 9.79138 41.9612 9.78901C34.9025 9.54075 27.8443 9.2925 20.7856 9.04424C20.7183 9.04188 20.6511 9.0359 20.5838 9.03173C20.6287 7.72091 20.6712 6.41 20.7203 5.09872C20.7445 4.46352 21.2319 4.01853 21.8756 4.04056C23.6733 4.10138 25.4714 4.16643 27.269 4.22965C31.8835 4.39195 36.498 4.55424 41.1125 4.71654C41.9208 4.74497 42.3284 5.18233 42.2993 5.99306C42.2548 7.25877 42.2091 8.52504 42.1634 9.7907ZM36.821 8.16765C37.9965 8.20899 39.1721 8.25154 40.3477 8.29108C40.6434 8.30088 40.7796 8.17629 40.7922 7.88429C40.8105 7.44987 40.8258 7.01595 40.8381 6.58132C40.847 6.27595 40.7223 6.14399 40.4121 6.13309C38.0689 6.04947 35.725 5.96703 33.3816 5.88582C33.0709 5.87489 32.9372 5.99836 32.9253 6.30362C32.9081 6.72304 32.894 7.14196 32.8804 7.5615C32.8693 7.91132 32.9842 8.0321 33.3394 8.04459C34.4999 8.08601 35.6605 8.12683 36.821 8.16765ZM24.2666 6.65018C24.2882 6.07146 23.8148 5.55295 23.2416 5.52858C22.6503 5.50357 22.13 5.9787 22.1082 6.56404C22.0866 7.14276 22.5606 7.66188 23.1332 7.68563C23.725 7.71126 24.2448 7.23611 24.2666 6.65018ZM28.9016 7.88911C29.4803 7.91067 29.9982 7.43666 30.0226 6.86345C30.0476 6.27222 29.5719 5.75243 28.9859 5.73122C28.4072 5.70966 27.8887 6.18425 27.8649 6.75688C27.8405 7.34813 28.3157 7.8673 28.9016 7.88911ZM27.1448 6.75201C27.1669 6.17391 26.693 5.65478 26.1216 5.62987C25.5304 5.60427 25.0094 6.07877 24.9871 6.66288C24.965 7.23918 25.4418 7.76262 26.0102 7.78742C26.6002 7.81239 27.1224 7.33612 27.1448 6.75201Z" fill="#33658A"/>
<path d="M30.945 20.927C28.2477 20.8322 25.5498 20.7373 22.8525 20.6424C22.4354 20.6277 22.3368 20.5232 22.3512 20.1115C22.4575 17.0915 22.5637 14.072 22.6699 11.052C22.6839 10.6542 22.7921 10.5545 23.1953 10.5686C28.6128 10.7592 34.0302 10.9497 39.4482 11.1403C39.8509 11.1544 39.953 11.2621 39.939 11.6594C39.8326 14.6866 39.7261 17.7139 39.6196 20.7411C39.6062 21.1227 39.4924 21.2277 39.1053 21.214C36.3846 21.1184 33.6651 21.0227 30.945 20.927ZM29.3456 15.827C29.3253 16.4039 29.3068 16.9803 29.2835 17.5572C29.2766 17.7188 29.3115 17.8555 29.4564 17.9442C29.6019 18.0336 29.7385 18.0004 29.8791 17.9193C30.8122 17.3787 31.7481 16.843 32.6806 16.3011C33.0301 16.098 33.0377 15.8142 32.7016 15.5858C31.8153 14.9847 30.9252 14.389 30.0395 13.7874C29.9049 13.696 29.7742 13.6493 29.6226 13.733C29.4704 13.8167 29.4076 13.9433 29.4038 14.1195C29.3904 14.6888 29.3656 15.2578 29.3456 15.827Z" fill="#FE6B6B"/>
<path d="M32.9394 23.1605C30.8942 23.0886 28.8489 23.0191 26.8033 22.9405C26.6164 22.9333 26.5397 22.977 26.5649 23.1656C26.5706 23.2097 26.5654 23.2559 26.5602 23.3002C26.5353 23.5112 26.3818 23.6502 26.1853 23.6415C25.9895 23.6328 25.8516 23.4823 25.8429 23.2678C25.8284 22.9104 25.8284 22.9104 25.4611 22.8975C24.532 22.8648 23.6028 22.8328 22.6743 22.7989C22.4213 22.7894 22.2923 22.6928 22.2648 22.5005C22.2266 22.235 22.384 22.0702 22.6785 22.08C23.6529 22.1118 24.6266 22.1413 25.6005 22.187C25.8137 22.1969 25.9081 22.1671 25.8962 21.9236C25.8823 21.6336 26.0297 21.48 26.257 21.4831C26.494 21.4867 26.6337 21.654 26.6039 21.9545C26.5818 22.1739 26.6474 22.2244 26.8632 22.2314C30.9094 22.3664 34.9546 22.5105 39.0006 22.6528C39.0679 22.6552 39.1359 22.654 39.2024 22.6617C39.417 22.6855 39.5472 22.8333 39.5364 23.0375C39.5265 23.2334 39.3925 23.3658 39.1875 23.3773C39.1206 23.3809 39.0528 23.375 38.9855 23.3726C36.9697 23.3023 34.9545 23.2314 32.9394 23.1605Z" fill="#33658A"/>
<path d="M36.8196 8.1688C35.6591 8.12798 34.4985 8.08776 33.338 8.04635C32.9822 8.03383 32.8674 7.91245 32.879 7.56325C32.8926 7.14371 32.9067 6.72479 32.9239 6.30538C32.9364 6.00013 33.0695 5.87664 33.3803 5.88757C35.7236 5.96878 38.0675 6.05122 40.4108 6.13484C40.7209 6.14574 40.8462 6.27772 40.8367 6.58307C40.8238 7.01768 40.8091 7.45162 40.7909 7.88604C40.7782 8.17804 40.642 8.30263 40.3463 8.29283C39.1707 8.25209 37.9952 8.21014 36.8196 8.1688Z" fill="#DAE8ED"/>
<path d="M24.2652 6.65175C24.2434 7.23768 23.7237 7.71223 23.1318 7.6878C22.5592 7.66345 22.0852 7.14492 22.1068 6.5662C22.1285 5.98087 22.6483 5.50572 23.2402 5.53075C23.8134 5.55452 24.2868 6.07302 24.2652 6.65175Z" fill="#5A90B7"/>
<path d="M28.9016 7.88802C28.3157 7.86621 27.8405 7.34704 27.8649 6.75518C27.8887 6.18255 28.4072 5.70856 28.986 5.72952C29.5719 5.75133 30.0477 6.27052 30.0227 6.86176C29.9983 7.43496 29.4803 7.90958 28.9016 7.88802Z" fill="#5A90B7"/>
<path d="M27.1435 6.75058C27.1211 7.33469 26.5989 7.81096 26.0089 7.786C25.4405 7.76179 24.9637 7.23775 24.9858 6.66146C25.0081 6.07735 25.529 5.60344 26.1203 5.62845C26.6917 5.65336 27.165 6.17246 27.1435 6.75058Z" fill="#5A90B7"/>
<path d="M29.3493 15.8301C29.3693 15.2609 29.3942 14.6919 29.4064 14.1225C29.4102 13.9463 29.473 13.8192 29.6252 13.7361C29.7767 13.6529 29.9075 13.699 30.0421 13.7904C30.9283 14.3921 29.6143 14.899 30.5 15.5C30.8368 15.7285 30.8292 16.0116 30.4791 16.2153C29.5465 16.7572 30.8148 17.3817 29.8817 17.9224C29.7416 18.0035 29.6051 18.0366 29.459 17.9472C29.3141 17.8585 29.2792 17.7219 29.2861 17.5602C29.3105 16.984 29.329 16.407 29.3493 15.8301Z" fill="#DAE7EC"/>
<path d="M2.82324 14.0057C5.22334 14.008 7.62344 14.0104 10.0235 14.0127C10.021 17.2643 10.0184 20.5165 10.0159 23.7681C9.80119 23.7697 9.58591 23.7738 9.37126 23.7736C8.21161 23.7731 7.05196 23.7695 5.89231 23.7714C5.5074 23.7723 5.21663 24.0255 5.17125 24.3829C5.12774 24.7253 5.35934 25.0557 5.70901 25.1377C5.7972 25.1582 5.89157 25.1577 5.98348 25.1577C7.32756 25.1621 8.67102 25.1653 10.0151 25.1691C10.0147 25.6273 10.0142 26.086 10.0138 26.5442C9.79909 26.5458 9.58382 26.5499 9.36916 26.5497C8.20951 26.5492 7.04986 26.5456 5.89021 26.5476C5.50531 26.5484 5.21453 26.8016 5.16915 27.159C5.12564 27.5015 5.35724 27.8318 5.70691 27.9138C5.7951 27.9343 5.88947 27.9338 5.98138 27.9339C7.32546 27.9383 8.66892 27.9414 10.013 27.9452C10.0126 28.4034 10.0121 28.8621 10.0117 29.3203C9.797 29.3219 9.58172 29.3261 9.36706 29.3258C8.20741 29.3253 7.04776 29.3217 5.88811 29.3237C5.50321 29.3245 5.21243 29.5778 5.16705 29.9351C5.12354 30.2776 5.35515 30.608 5.70481 30.6899C5.793 30.7104 5.88737 30.7099 5.97928 30.71C7.32336 30.7144 8.66682 30.7175 10.0109 30.7213C10.0105 31.1795 10.01 31.6383 10.0096 32.0964C9.7949 32.0981 9.57962 32.1022 9.36496 32.102C8.20531 32.1014 7.04567 32.0978 5.88601 32.0998C5.50111 32.1007 5.21033 32.3539 5.16495 32.7112C5.12144 33.0537 5.35305 33.3841 5.70271 33.466C5.7909 33.4865 5.88528 33.486 5.97718 33.4861C7.32126 33.4905 8.66472 33.4937 10.0088 33.4975C10.0068 34.896 10.0048 36.2946 10.0028 37.6932C9.91834 37.6955 9.83383 37.7004 9.74932 37.7003C7.58115 37.6988 5.4136 37.6967 3.24542 37.694C1.86618 37.6926 1.00285 36.8249 1.0042 35.4412C1.00899 30.5406 1.01379 25.6395 1.01858 20.7389C1.02009 19.1975 1.01666 17.6568 1.02496 16.1154C1.02761 15.2912 1.40202 14.6733 2.10994 14.2566C2.33151 14.1264 2.58445 14.0858 2.82324 14.0057Z" fill="#6492C6"/>
<path d="M19.0106 20.2687C19.0129 20.346 19.0166 20.4227 19.0165 20.5C19.0116 25.5267 19.0073 30.554 19.0017 35.5807C19.0005 36.808 18.1016 37.7061 16.8759 37.7049C14.6683 37.7033 12.4606 37.7006 10.253 37.6984C10.1685 37.6983 10.084 37.6933 9.99945 37.6907C10.0014 36.2922 10.0034 34.8936 10.0054 33.495L10.0005 33.4814C10.4761 33.4844 10.9516 33.4929 11.4272 33.4878C11.7979 33.4838 12.0801 33.1762 12.0805 32.7959C12.0809 32.4151 11.7999 32.1081 11.4286 32.1034C10.953 32.0974 10.4774 32.105 10.0018 32.107L10.0068 32.0934C10.0072 31.6352 10.0077 31.1764 10.0081 30.7183L10.0032 30.7047C11.409 30.7085 12.8147 30.7161 14.2211 30.7125C14.5776 30.7116 14.8524 30.3935 14.8528 30.0219C14.8532 29.6503 14.579 29.3322 14.2225 29.3306C12.8167 29.3243 11.4109 29.3291 10.0045 29.3302L10.0095 29.3166C10.0099 28.8585 10.0104 28.3997 10.0108 27.9416L10.0059 27.928C11.4117 27.9318 12.8174 27.9394 14.2238 27.9358C14.5804 27.9349 14.8552 27.6168 14.8555 27.2452C14.8559 26.8736 14.5817 26.5555 14.2252 26.5539C12.8194 26.5476 11.4136 26.5524 10.0073 26.5535L10.0122 26.5399C10.0127 26.0818 10.0131 25.623 10.0136 25.1648L10.0086 25.1512C11.4144 25.1551 12.8202 25.1626 14.2259 25.1591C14.5825 25.1582 14.8573 24.84 14.8576 24.4684C14.858 24.0968 14.5838 23.7788 14.2273 23.7772C12.8215 23.7709 11.4157 23.7757 10.01 23.7768L10.0149 23.7632C10.0175 20.5116 10.0201 17.2594 10.0226 14.0078C10.946 14.0087 11.8688 14.0096 12.7922 14.0105C12.7906 15.5983 12.7885 17.1867 12.7882 18.7744C12.7879 19.666 13.3715 20.2552 14.2579 20.2567C15.8419 20.2638 17.4265 20.266 19.0106 20.2687Z" fill="#467BB7"/>
<path d="M19.0113 20.2701C17.4273 20.2673 15.8427 20.2652 14.2586 20.2618C13.3729 20.2597 12.7887 19.6711 12.7889 18.7795C12.7899 17.1918 12.7914 15.6034 12.793 14.0156C12.8547 14.0157 12.9163 14.0157 12.9774 14.0158C13.1679 14.1186 13.3232 14.2635 13.4748 14.4157C15.2237 16.1758 16.975 17.9341 18.7269 19.6911C18.8896 19.8533 19.0245 20.0241 19.0113 20.2701Z" fill="#6492C6"/>
<path d="M10.0125 25.1675C8.66839 25.1643 7.32493 25.1612 5.98085 25.1561C5.88894 25.1561 5.79456 25.1566 5.70638 25.1361C5.35671 25.0541 5.1251 24.7237 5.16862 24.3812C5.214 24.0239 5.50539 23.7707 5.88968 23.7698C7.04933 23.7679 8.20898 23.7715 9.36862 23.772C9.58328 23.7722 9.79856 23.7687 10.0132 23.7665L10.0083 23.7801C10.0078 24.2382 10.0074 24.6957 10.0069 25.1539L10.0125 25.1675Z" fill="#7CACE2"/>
<path d="M10.0086 27.9448C8.66448 27.9417 7.32102 27.9385 5.97694 27.9335C5.88503 27.9334 5.79066 27.9339 5.70247 27.9134C5.3528 27.8315 5.1212 27.5011 5.16471 27.1586C5.21009 26.8013 5.50148 26.5481 5.88577 26.5472C7.04542 26.5452 8.20507 26.5488 9.36472 26.5494C9.57938 26.5496 9.79466 26.5461 10.0093 26.5438L10.0044 26.5574C10.0039 27.0156 10.0035 27.4731 10.003 27.9312L10.0086 27.9448Z" fill="#7CACE2"/>
<path d="M10.0086 30.7183C8.66448 30.7151 7.32102 30.7119 5.97694 30.7069C5.88503 30.7068 5.79066 30.7074 5.70247 30.6869C5.3528 30.6049 5.1212 30.2745 5.16471 29.932C5.21009 29.5747 5.50148 29.3215 5.88577 29.3206C7.04542 29.3187 8.20507 29.3223 9.36472 29.3228C9.57938 29.323 9.79466 29.3195 10.0093 29.3172L10.0044 29.3308C10.0039 29.789 10.0035 30.2465 10.003 30.7047L10.0086 30.7183Z" fill="#7CACE2"/>
<path d="M10.0047 33.4956C8.66058 33.4925 7.31711 33.4893 5.97304 33.4843C5.88113 33.4842 5.78675 33.4847 5.69856 33.4642C5.3489 33.3823 5.11729 33.0519 5.16081 32.7094C5.20618 32.352 5.49758 32.0988 5.88187 32.098C7.04152 32.096 8.20116 32.0996 9.36081 32.1001C9.57547 32.1003 9.79075 32.0969 10.0054 32.0946L10.0005 32.1082C10 32.5663 9.99957 33.0239 9.99912 33.482L10.0047 33.4956Z" fill="#7CACE2"/>
<path d="M10.0104 25.1528C10.0108 24.6947 10.0113 24.2372 10.0117 23.779C11.4175 23.7779 12.8233 23.7731 14.2296 23.7794C14.5868 23.781 14.861 24.0991 14.86 24.4707C14.8596 24.8423 14.5848 25.1598 14.2283 25.1613C12.8219 25.1643 11.4161 25.1561 10.0104 25.1528Z" fill="#568ECC"/>
<path d="M10.0065 27.9302C10.0069 27.472 10.0074 27.0145 10.0078 26.5564C11.4136 26.5553 12.8193 26.5504 14.2257 26.5568C14.5829 26.5584 14.857 26.8764 14.8561 27.248C14.8557 27.6196 14.5809 27.9371 14.2244 27.9386C12.818 27.9416 11.4122 27.934 10.0065 27.9302Z" fill="#568ECC"/>
<path d="M10.0026 30.7075C10.003 30.2494 10.0035 29.7919 10.0039 29.3337C11.4097 29.3326 12.8154 29.3278 14.2218 29.3341C14.579 29.3357 14.8531 29.6538 14.8522 30.0254C14.8518 30.397 14.577 30.7145 14.2205 30.716C12.8141 30.7189 11.4083 30.7108 10.0026 30.7075Z" fill="#568ECC"/>
<path d="M10.0026 33.4823C10.003 33.0241 10.0035 32.5666 10.0039 32.1084C10.4795 32.1064 10.9551 32.0989 11.4306 32.1049C11.802 32.1096 12.0836 32.4165 12.0826 32.7974C12.0822 33.1776 11.8 33.4846 11.4293 33.4892C10.9537 33.4937 10.4781 33.4852 10.0026 33.4823Z" fill="#568ECC"/>
<path d="M20.9798 43.8053C20.7058 39.8297 20.4317 35.8536 20.1577 31.8779C20.2073 31.8673 20.2421 31.84 20.2384 31.787C20.2253 31.6023 20.2943 31.4332 20.3418 31.2615C20.61 30.2879 21.5971 29.4811 22.6032 29.4118C28.5752 28.9997 34.5468 28.5886 40.5188 28.1756C40.7073 28.1626 40.8941 28.1777 41.0761 28.2144C42.0737 28.4157 42.7582 28.9912 43.1196 29.9417C43.1411 29.998 43.1442 30.0624 43.2258 30.0626C43.4627 33.5003 43.6997 36.938 43.9366 40.3757C41.4892 38.2522 39.0423 36.1283 36.594 34.0053C35.7449 33.2691 34.7559 33.3386 34.0163 34.1844C32.6335 35.7649 31.2512 37.3458 29.8689 38.9267C29.4413 38.6338 29.0775 38.2655 28.6855 37.9304C27.8068 37.179 26.8322 37.2408 26.0741 38.1077C24.4549 39.9592 22.8375 41.8105 21.2187 43.6615C21.1599 43.7288 21.0958 43.7919 21.0341 43.8567C21.0161 43.8394 20.9977 43.8222 20.9798 43.8053ZM25.3003 35.9474C26.3653 35.8772 27.1575 34.9777 27.0885 33.9177C27.0195 32.8567 26.1148 32.0584 25.0582 32.1263C23.9908 32.1944 23.1822 33.1117 23.2549 34.1724C23.3266 35.2264 24.238 36.0175 25.3003 35.9474Z" fill="#EBEEF0"/>
<path d="M29.7828 37.6474C31.1471 35.8055 32.5114 33.9636 33.8762 32.1221C34.6063 31.1373 35.5948 31.067 36.454 31.9428C38.93 34.4679 41.4047 36.9946 43.8798 39.5213C43.9513 40.5588 44.0228 41.5962 44.0944 42.6337C44.0235 42.723 44.039 42.8426 44.0223 42.9494C43.828 44.2124 42.9059 45.271 41.8155 45.3738C40.4027 45.5068 38.9841 45.5748 37.5679 45.6708C37.5016 45.5978 37.4376 45.5226 37.3693 45.4524C34.9047 42.935 32.4393 40.4183 29.9752 37.9004C29.903 37.8262 29.8077 37.7722 29.7828 37.6474Z" fill="#388E3C"/>
<path d="M37.565 45.6709C37.4754 45.6803 37.3861 45.6929 37.2964 45.6991C32.8294 46.0075 28.3617 46.3063 23.896 46.6286C22.6065 46.7217 21.1488 45.5845 21.0157 43.6733C21.0071 43.5488 21.0017 43.4247 20.9954 43.3001C21.0563 43.2239 21.1196 43.1498 21.1776 43.0707C22.7735 40.8932 24.3688 38.7153 25.9651 36.5383C26.7132 35.518 27.6878 35.4578 28.5766 36.3615C28.9732 36.7646 29.3422 37.2062 29.7739 37.5602C29.7985 37.6867 29.8943 37.7413 29.9665 37.8158C32.4325 40.3616 34.8998 42.9053 37.3662 45.45C37.4345 45.5205 37.4987 45.5971 37.565 45.6709Z" fill="#4CAE50"/>
<path d="M25.2984 35.9456C24.2361 36.0157 23.3247 35.2246 23.2529 34.1706C23.1807 33.1099 23.9889 32.1926 25.0563 32.1245C26.1129 32.057 27.0171 32.855 27.0866 33.9159C27.1555 34.9759 26.3634 35.8758 25.2984 35.9456Z" fill="#FEC108"/>
</svg>
