<svg width="48" height="53" viewBox="0 0 48 53" fill="none" xmlns="http://www.w3.org/2000/svg">
<path d="M25.0389 23.8519C24.4562 23.2221 24.1711 22.4202 23.7042 21.7234C23.6207 21.5989 23.5523 21.4653 23.4769 21.3357C23.614 21.2988 23.7721 21.3337 23.8852 21.2174C24.0297 21.1832 24.0984 21.0606 24.198 20.9737C24.6143 21.6986 25.0306 22.4235 25.4469 23.1484C25.4711 23.1909 25.514 23.1942 25.5595 23.1863C25.5829 23.2666 25.6062 23.3461 25.6296 23.4264C25.5112 23.497 25.4922 23.6057 25.4964 23.7232C25.3442 23.7665 25.1912 23.8093 25.0389 23.8519Z" fill="#DDE0E0"/>
<path d="M2.9937 11.2016C3.75655 11.6102 4.47586 12.0828 5.21307 12.529C7.31656 13.803 9.41348 15.0872 11.5138 16.3655C12.0676 16.7025 12.6259 17.0348 13.1818 17.3691C13.7205 17.7172 14.2635 18.06 14.831 18.3662C15.3812 18.7083 15.9282 19.0548 16.4815 19.3926C18.5138 20.6333 20.5486 21.8705 22.5821 23.1101C22.6035 23.1235 22.6214 23.142 22.6407 23.1581C17.809 24.5118 12.9766 25.8656 8.14482 27.2193C8.07712 27.2383 8.01029 27.2577 7.94221 27.2754C7.77511 27.3201 7.67202 27.2604 7.62734 27.1047C7.60469 27.0245 7.58088 26.9454 7.55755 26.8654C7.97322 26.7489 8.11675 26.6008 8.05671 26.3497C7.99499 26.0929 7.77061 26.0291 7.34816 26.1474C7.2737 25.8921 7.19924 25.6368 7.12477 25.3815C7.35969 25.3157 7.59592 25.2543 7.82916 25.1828C8.06559 25.1096 8.17964 24.9281 8.13052 24.7246C8.08058 24.5157 7.86967 24.4052 7.6207 24.468C7.38392 24.5274 7.15049 24.5984 6.91557 24.6642C6.84111 24.4089 6.76665 24.1535 6.69219 23.8982C6.76801 23.877 6.84582 23.86 6.91929 23.8332C7.12535 23.7589 7.24613 23.5402 7.16827 23.3461C7.09116 23.1545 6.93354 23.0685 6.71064 23.1178C6.63351 23.1346 6.55862 23.159 6.4828 23.1803C6.40834 22.9249 6.33388 22.6696 6.25941 22.4143C6.69811 22.2914 6.79064 22.1893 6.71544 21.9114C6.63606 21.6166 6.49636 21.572 6.05003 21.6963C5.97556 21.441 5.9011 21.1857 5.82664 20.9304C6.06156 20.8646 6.29778 20.8032 6.53102 20.7317C6.76746 20.6585 6.88169 20.4777 6.83239 20.2735C6.78245 20.0646 6.57154 19.9541 6.32257 20.0169C6.08578 20.0763 5.85236 20.1473 5.61744 20.2131C5.54298 19.9578 5.46852 19.7024 5.39405 19.4471C5.80635 19.3316 5.93682 19.1663 5.83459 18.8911C5.74259 18.6435 5.61001 18.6107 5.18467 18.7292C5.1102 18.4738 5.03574 18.2185 4.96128 17.9632C5.34988 17.8543 5.48336 17.7069 5.41712 17.4597C5.34651 17.1949 5.15268 17.133 4.75189 17.2453C4.67743 16.9899 4.60297 16.7346 4.52851 16.4793C4.76478 16.4131 5.00255 16.352 5.23695 16.2794C5.47591 16.2049 5.55225 16.0624 5.49093 15.8345C5.42531 15.5919 5.27969 15.5019 5.0285 15.5647C4.79017 15.6238 4.55558 15.6958 4.31931 15.762C4.24485 15.5067 4.17038 15.2513 4.09524 14.9962C4.44168 14.8985 4.64523 14.6774 4.59243 14.4562C4.53862 14.229 4.22833 14.1318 3.87156 14.2317C3.57959 13.2206 3.28664 12.2111 2.9937 11.2016ZM8.27158 20.8843C8.57614 21.9286 8.88071 22.9729 9.18527 24.0172C9.27933 24.3397 9.29765 24.3498 9.63953 24.254C11.538 23.7228 13.4355 23.1905 15.3338 22.6587C15.3927 22.6422 15.4555 22.6315 15.5092 22.6047C15.6635 22.5289 15.6916 22.4269 15.5569 22.3138C15.4987 22.265 15.4289 22.2292 15.3632 22.1895C12.8089 20.6327 10.2545 19.0759 7.69993 17.5206C7.60109 17.4604 7.50101 17.3583 7.37181 17.4526C7.25183 17.5409 7.33155 17.6535 7.35942 17.7516C7.66177 18.7959 7.96701 19.84 8.27158 20.8843Z" fill="#B6E446"/>
<path d="M7.68386 26.8951C7.70701 26.9735 7.73065 27.0511 7.75313 27.1297C7.79679 27.2825 7.89978 27.3409 8.06561 27.297C8.13299 27.279 8.1995 27.2606 8.26669 27.242C13.0618 25.915 17.8576 24.5877 22.6527 23.2606C22.8582 23.3659 22.8896 23.5486 22.8621 23.7408C22.8335 23.9346 22.7051 24.0658 22.5025 24.1253C22.4444 24.1427 22.3861 24.1596 22.327 24.1759C17.5205 25.5061 12.7139 26.8364 7.90737 28.1666C7.85698 28.1806 7.80696 28.1958 7.7565 28.207C7.42224 28.2859 7.18914 28.1733 7.09125 27.8713C7.01082 27.6235 6.94633 27.3706 6.87531 27.1202C7.14368 27.0446 7.41377 26.9698 7.68386 26.8951Z" fill="#AAD541"/>
<path d="M14.4511 3.57929C14.5776 3.54663 14.7087 3.52508 14.8306 3.4792C15.5673 3.20028 16.5289 3.76275 16.5052 4.70904C16.488 5.37712 16.4547 6.04489 16.4302 6.71294C16.427 6.79468 16.4378 6.87665 16.4419 6.95841C16.4314 6.99519 16.4216 7.03179 16.4113 7.06922C15.6882 7.2718 14.9655 7.47565 14.2422 7.67759C13.8608 7.78373 13.6566 7.72004 13.4413 7.4107C12.929 6.67402 12.4266 5.93176 11.9106 5.1975C11.793 5.03006 11.7081 4.83414 11.5197 4.71697C11.6668 4.4519 11.9082 4.3048 12.1996 4.21835C12.3409 4.17667 12.4809 4.13263 12.6217 4.08904C13.2314 3.91891 13.8412 3.74878 14.4511 3.57929ZM14.4119 6.80579C14.8364 6.68478 15.0879 6.26127 14.9705 5.86373C14.8518 5.46171 14.4171 5.23942 13.9866 5.36002C13.561 5.47994 13.3048 5.90752 13.424 6.30111C13.5439 6.69726 13.9914 6.92565 14.4119 6.80579Z" fill="#F0F1F1"/>
<path d="M16.4351 7.12147C16.4457 7.08445 16.4556 7.04762 16.466 7.00996C16.6826 7.31528 16.862 7.64002 17.036 7.96904C17.0483 8.21034 16.8496 8.33945 16.7028 8.48675C16.5786 8.61249 16.5575 8.72962 16.6314 8.87101C16.6817 8.96685 16.7358 9.0609 16.7912 9.15394C17.6645 10.6361 18.5371 12.1185 19.4109 13.5999C20.5145 15.4697 21.6199 17.3378 22.7242 19.2075C23.1103 19.8618 23.4944 20.5168 23.88 21.172C23.767 21.2883 23.6075 21.2535 23.4698 21.2905C23.1029 21.2566 22.8768 21.0575 22.7048 20.7606C21.8981 19.3718 21.0799 17.9896 20.2655 16.605C20.2404 16.562 20.2062 16.5236 20.1759 16.4833C20.0541 16.2719 19.9316 16.0606 19.8098 15.8491C19.6696 15.6129 19.5299 15.3758 19.3898 15.1395C18.3106 13.3004 17.2277 11.4636 16.1544 9.62145C15.8898 9.1675 15.5809 8.73634 15.3826 8.24862C16.0973 8.08479 16.4084 7.75188 16.4351 7.12147Z" fill="#D83926"/>
<path d="M23.87 21.181C23.4852 20.5262 23.1009 19.8706 22.714 19.2164C21.6097 17.3473 20.5041 15.4786 19.4003 13.6086C18.5257 12.1274 17.653 10.645 16.7802 9.16256C16.7256 9.06933 16.6707 8.97546 16.6205 8.87962C16.5465 8.73823 16.5674 8.62045 16.6919 8.49535C16.8385 8.3474 17.0372 8.21829 17.0251 7.97762C17.7267 9.1587 18.4304 10.3392 19.1288 11.5219C20.8039 14.3603 22.4738 17.201 24.1533 20.0368C24.3334 20.3412 24.3533 20.6284 24.1836 20.9371C24.0841 21.024 24.0152 21.1468 23.87 21.181Z" fill="#EE5329"/>
<path d="M14.7983 18.3769C14.2266 18.0695 13.6798 17.726 13.1369 17.3759C13.0905 15.9719 13.0461 14.5674 12.9983 13.1638C12.9395 11.4352 12.8778 9.70682 12.8175 7.97803C13.378 8.63041 13.6732 8.72382 14.4355 8.49013C14.4751 8.76188 14.4802 9.03635 14.4692 9.31115C14.3154 9.35059 14.1601 9.42732 14.0089 9.42229C13.7114 9.41154 13.6504 9.53837 13.6632 9.78635C13.7012 10.5388 13.7252 11.2916 13.7515 12.0445C13.8033 13.5422 13.8529 15.0405 13.9026 16.5387C13.9063 16.6572 13.9043 16.794 14.0062 16.86C14.2459 17.0162 14.4658 17.2078 14.7554 17.2874C14.7727 17.5029 14.7895 17.7192 14.8068 17.9346C14.8035 18.0822 14.8009 18.2295 14.7983 18.3769Z" fill="#D83926"/>
<path d="M14.364 8.47983C13.6078 8.71245 13.3143 8.61966 12.759 7.97007C12.4453 7.50939 12.1292 7.05011 11.8192 6.58701C11.6351 6.31209 11.4094 6.05991 11.3254 5.72926C11.2329 5.36435 11.2805 5.02588 11.5231 4.71581C11.7115 4.83249 11.7965 5.02864 11.9142 5.19628C12.4308 5.93143 12.9339 6.67522 13.4467 7.41215C13.6621 7.72187 13.8668 7.78627 14.2484 7.67936C14.9725 7.47718 15.6962 7.27372 16.4199 7.07026C16.3935 7.69746 16.0854 8.02866 15.3768 8.19122C15.0391 8.28791 14.7019 8.38378 14.364 8.47983Z" fill="#DDE0E0"/>
<path d="M14.4298 3.55218C13.817 3.72301 13.204 3.89319 12.5911 4.06402C12.3216 3.15089 12.0398 2.24117 11.79 1.32253C11.6942 0.969177 11.9226 0.762354 12.4462 0.648403C12.6557 1.36605 12.8693 2.08256 13.0734 2.80173C13.1312 3.00477 13.2437 3.07041 13.4587 3.004C13.7099 2.92604 13.965 2.8609 14.2183 2.79C14.3009 3.04021 14.3934 3.28904 14.4298 3.55218Z" fill="#D83C2A"/>
<path d="M18.2939 17.0063C18.3422 17.1835 18.3946 17.3595 18.438 17.5374C18.5443 17.9754 18.2985 18.3548 17.8305 18.4795C17.4456 17.1686 17.0607 15.8578 16.6758 14.547C17.1379 14.4121 17.5548 14.6078 17.7023 15.0343C17.762 15.2076 17.8138 15.3838 17.869 15.5591C18.0106 16.0415 18.1522 16.5239 18.2939 17.0063Z" fill="#EE5329"/>
<path d="M16.698 14.5413C17.0831 15.8523 17.4683 17.1633 17.8534 18.4743C17.4685 18.5675 17.1047 18.4147 16.9484 18.072C16.8554 17.8689 16.7969 17.6521 16.7232 17.4415C16.6031 16.9545 16.4619 16.4739 16.2993 15.9987C16.2473 15.7737 16.1765 15.5506 16.1467 15.323C16.0999 14.9665 16.3331 14.6546 16.698 14.5413Z" fill="#D83C2A"/>
<path d="M14.2137 2.78873C13.9598 2.85971 13.7035 2.9251 13.4523 3.00296C13.237 3.07009 13.1242 3.00437 13.0661 2.80047C12.8609 2.08072 12.6475 1.36324 12.4375 0.644821C12.6226 0.5903 12.8052 0.527433 12.9927 0.483375C13.2963 0.411008 13.5609 0.545383 13.6468 0.829037C13.8424 1.48064 14.0251 2.13586 14.2137 2.78873Z" fill="#EE5329"/>
<path d="M3.00662 11.0835C3.30251 12.0978 3.59752 13.1116 3.89341 14.1258C3.61921 14.2023 3.34482 14.278 3.07061 14.3544C2.80531 13.4596 2.54 12.5648 2.27518 11.6692C2.21418 11.4636 2.27359 11.2878 2.44988 11.1525C2.61979 11.023 2.80394 10.9599 3.00662 11.0835Z" fill="#AAD541"/>
<path d="M18.2784 17.0108C18.1387 16.5319 17.999 16.0531 17.8594 15.5742C18.0926 15.5096 18.3266 15.4447 18.56 15.3807C18.6085 15.5467 18.6616 15.7114 18.7046 15.8789C18.7548 16.0734 18.8758 16.1252 19.073 16.0644C19.3218 15.9878 19.5734 15.9187 19.8242 15.8464C19.9447 16.0564 20.0658 16.2663 20.1863 16.4763C19.5505 16.6544 18.9148 16.8325 18.2784 17.0108Z" fill="#DDE0E0"/>
<path d="M16.3119 15.9946C16.4721 16.4663 16.6112 16.9432 16.7296 17.4266C16.0948 17.6003 15.4593 17.7742 14.8245 17.9478C14.8074 17.7337 14.7907 17.5188 14.7736 17.3047C14.7844 17.2844 14.796 17.2639 14.8069 17.2435C15.0494 17.1756 15.2906 17.1032 15.5346 17.0404C15.7352 16.989 15.8088 16.8828 15.7466 16.6923C15.6935 16.5277 15.6491 16.3605 15.6009 16.1952C15.8383 16.1273 16.0747 16.0611 16.3119 15.9946Z" fill="#DDE0E0"/>
<path d="M5.02602 17.8966C5.10042 18.1517 5.17482 18.4069 5.24921 18.662C4.97797 18.738 4.70605 18.8141 4.43462 18.8895C4.36041 18.635 4.28601 18.3799 4.21112 18.1256C4.48304 18.0495 4.75429 17.9735 5.02602 17.8966Z" fill="#AAD541"/>
<path d="M6.35805 22.3771C6.43245 22.6322 6.50685 22.8873 6.58124 23.1424C6.30932 23.2186 6.03808 23.2946 5.76598 23.3702C5.69176 23.1157 5.61737 22.8606 5.54316 22.6061C5.81508 22.5299 6.08613 22.4533 6.35805 22.3771Z" fill="#AAD541"/>
<path d="M5.46352 19.3888C5.53792 19.6439 5.61232 19.899 5.68671 20.1541C5.41547 20.2301 5.14423 20.3061 4.87212 20.3817C4.79772 20.1266 4.72284 19.8723 4.64844 19.6172C4.92054 19.5416 5.1916 19.465 5.46352 19.3888Z" fill="#AAD541"/>
<path d="M4.13472 14.9046C4.20912 15.1597 4.28351 15.4149 4.35859 15.6698C4.08667 15.746 3.81524 15.8213 3.54332 15.8975C3.46892 15.6424 3.39539 15.3877 3.32099 15.1326C3.59242 15.0573 3.86348 14.9806 4.13472 14.9046Z" fill="#AAD541"/>
<path d="M6.80013 23.873C6.87453 24.1281 6.94892 24.3832 7.02332 24.6383C6.7514 24.7145 6.4793 24.7901 6.20806 24.8661C6.13385 24.6116 6.05945 24.3565 5.98456 24.1022C6.25629 24.0254 6.52821 23.9492 6.80013 23.873Z" fill="#AAD541"/>
<path d="M4.1305 14.9C3.85925 14.976 3.58819 15.0526 3.31695 15.1286C3.24255 14.8735 3.16815 14.6184 3.09375 14.3633C3.365 14.2873 3.63643 14.2119 3.90767 14.1359C3.98189 14.3904 4.0561 14.6449 4.1305 14.9Z" fill="#9EC53D"/>
<path d="M7.24544 25.3652C7.31984 25.6203 7.39424 25.8754 7.46863 26.1305C7.19672 26.2067 6.92461 26.2822 6.65269 26.3584C6.57848 26.104 6.50409 25.8489 6.42987 25.5944C6.70161 25.5176 6.97352 25.4414 7.24544 25.3652Z" fill="#AAD541"/>
<path d="M4.57613 16.4007C4.65053 16.6558 4.72493 16.9109 4.79932 17.1661C4.52808 17.2421 4.25616 17.3182 3.98473 17.3936C3.91033 17.1385 3.83612 16.884 3.76172 16.6289C4.03315 16.5535 4.30507 16.4774 4.57613 16.4007Z" fill="#AAD541"/>
<path d="M5.90883 20.8849C5.98323 21.14 6.05763 21.3951 6.13203 21.6502C5.86078 21.7262 5.58886 21.8024 5.31743 21.8778C5.24304 21.6227 5.16815 21.3684 5.09375 21.1133C5.36586 21.0377 5.63691 20.9611 5.90883 20.8849Z" fill="#AAD541"/>
<path d="M5.32099 21.8826C5.59213 21.8067 5.86395 21.7305 6.13528 21.6552C6.20499 21.8942 6.27471 22.1332 6.34442 22.3723C6.0726 22.4484 5.80145 22.5244 5.52982 22.6012C5.45992 22.3615 5.39089 22.1223 5.32099 21.8826Z" fill="#9EC53D"/>
<path d="M4.57079 16.3951C4.29964 16.471 4.02783 16.5472 3.75687 16.6238C3.68716 16.3848 3.61726 16.1451 3.54688 15.9062C3.81869 15.8301 4.09002 15.7548 4.36184 15.6786C4.43137 15.917 4.50108 16.156 4.57079 16.3951Z" fill="#9EC53D"/>
<path d="M6.79431 23.8643C6.52249 23.9404 6.25085 24.0172 5.97904 24.0934C5.90914 23.8537 5.8401 23.6145 5.77021 23.3748C6.04203 23.2987 6.31317 23.2227 6.58518 23.1472C6.65489 23.3862 6.7246 23.6252 6.79431 23.8643Z" fill="#9EC53D"/>
<path d="M7.23571 25.3604C6.96389 25.4365 6.69226 25.5133 6.42044 25.5895C6.35054 25.3498 6.28151 25.1106 6.21161 24.8709C6.48343 24.7947 6.75476 24.7194 7.02658 24.6433C7.09629 24.8823 7.166 25.1213 7.23571 25.3604Z" fill="#9EC53D"/>
<path d="M5.90282 20.8755C5.631 20.9517 5.35986 21.0277 5.08822 21.1044C5.01851 20.8654 4.94929 20.6256 4.87958 20.3865C5.15073 20.3106 5.42187 20.2346 5.69387 20.1591C5.7634 20.3975 5.83311 20.6365 5.90282 20.8755Z" fill="#9EC53D"/>
<path d="M5.46141 19.3833C5.18959 19.4595 4.91845 19.5355 4.64682 19.6123C4.57711 19.3732 4.50721 19.1336 4.4375 18.8945C4.70864 18.8186 4.98046 18.7424 5.25179 18.6671C5.32199 18.9053 5.3917 19.1443 5.46141 19.3833Z" fill="#9EC53D"/>
<path d="M6.65625 26.3633C6.92807 26.2871 7.20008 26.2116 7.47189 26.1355C7.5416 26.3745 7.61132 26.6135 7.68103 26.8525C7.40921 26.9287 7.13825 27.0053 6.86643 27.0815C6.79586 26.842 6.72596 26.6023 6.65625 26.3633Z" fill="#9EC53D"/>
<path d="M3.99286 17.4022C4.26401 17.3262 4.53583 17.25 4.80716 17.1747C4.87687 17.4137 4.94658 17.6528 5.01629 17.8918C4.74447 17.968 4.47333 18.0439 4.20169 18.1207C4.1318 17.881 4.06257 17.6412 3.99286 17.4022Z" fill="#9EC53D"/>
<path d="M5.89687 20.8855C5.82727 20.647 5.75767 20.4084 5.68806 20.1699C5.92233 20.1043 6.1551 20.0336 6.39122 19.9744C6.6395 19.9117 6.84915 20.0221 6.89962 20.2301C6.94879 20.4336 6.83506 20.6145 6.5991 20.6868C6.3667 20.7588 6.13113 20.8199 5.89687 20.8855Z" fill="#AAD541"/>
<path d="M7.23281 25.366C7.1632 25.1275 7.0936 24.8889 7.024 24.6504C7.25826 24.5848 7.49104 24.5141 7.72716 24.4548C7.97544 24.3922 8.18576 24.5023 8.23556 24.7106C8.28473 24.9141 8.17032 25.0952 7.93504 25.1673C7.70263 25.2393 7.46707 25.3004 7.23281 25.366Z" fill="#AAD541"/>
<path d="M4.56097 16.4014C4.49136 16.1628 4.42174 15.9241 4.35213 15.6855C4.58779 15.6195 4.82196 15.5484 5.05948 15.4888C5.31087 15.4267 5.45593 15.5158 5.5207 15.7578C5.58187 15.985 5.50573 16.1271 5.26739 16.2015C5.03396 16.2751 4.79663 16.3354 4.56097 16.4014Z" fill="#AAD541"/>
<path d="M4.12168 14.9059C4.04714 14.6504 3.97279 14.3955 3.89844 14.1406C4.2549 14.0408 4.56619 14.1379 4.62005 14.3652C4.67155 14.587 4.46779 14.8083 4.12168 14.9059Z" fill="#AAD541"/>
<path d="M7.67437 26.8629C7.60453 26.6234 7.53469 26.384 7.46484 26.1445C7.88757 26.0261 8.11229 26.0906 8.17386 26.3469C8.23394 26.5981 8.09032 26.7464 7.67437 26.8629Z" fill="#AAD541"/>
<path d="M6.7841 23.8719C6.71425 23.6324 6.64439 23.3929 6.57454 23.1535C6.65043 23.1322 6.72538 23.1077 6.80257 23.091C7.02564 23.0416 7.18339 23.1277 7.26056 23.3194C7.33848 23.5136 7.21742 23.7318 7.01138 23.8068C6.93766 23.833 6.85998 23.8506 6.7841 23.8719Z" fill="#AAD541"/>
<path d="M6.34245 22.3788C6.27257 22.1392 6.20269 21.8997 6.13281 21.6602C6.58015 21.5349 6.71953 21.5803 6.799 21.8754C6.87429 22.1536 6.78165 22.2558 6.34245 22.3788Z" fill="#AAD541"/>
<path d="M5.45572 19.3905C5.38585 19.151 5.31597 18.9114 5.24609 18.6719C5.67174 18.5527 5.80466 18.5861 5.89676 18.834C5.99931 19.1101 5.86849 19.2749 5.45572 19.3905Z" fill="#AAD541"/>
<path d="M5.01432 17.8944C4.94444 17.6549 4.87457 17.4153 4.80469 17.1758C5.20594 17.0634 5.40019 17.1261 5.47069 17.3904C5.5372 17.6385 5.40337 17.7854 5.01432 17.8944Z" fill="#AAD541"/>
<path d="M14.419 6.80831C13.9981 6.9283 13.5501 6.69904 13.4302 6.30314C13.3109 5.90916 13.5666 5.48135 13.9933 5.36113C14.4239 5.23977 14.8592 5.46291 14.9781 5.86533C15.0956 6.26326 14.844 6.68783 14.419 6.80831Z" fill="#EE5329"/>
<path d="M18.5553 15.3801C18.8382 15.3002 19.1212 15.2209 19.4041 15.141C19.5427 15.3756 19.6808 15.6111 19.8193 15.8457C19.5693 15.9178 19.3174 15.9863 19.0689 16.0635C18.8711 16.1244 18.7507 16.0725 18.7006 15.878C18.6562 15.7109 18.6037 15.5461 18.5553 15.3801Z" fill="#F0F1F1"/>
<path d="M14.4669 9.31377C14.5078 10.2956 14.5529 11.2768 14.5893 12.2585C14.6385 13.5737 14.6818 14.8891 14.729 16.2048C14.7313 16.2709 14.7449 16.3373 14.7531 16.4031C14.741 16.6796 14.7473 16.9559 14.7867 17.2292C14.7757 17.2496 14.7641 17.2702 14.7531 17.2907C14.4633 17.211 14.2434 17.0194 14.0035 16.8633C13.9022 16.797 13.9042 16.6602 13.8998 16.5419C13.8501 15.0434 13.8006 13.5455 13.7487 12.0469C13.7224 11.2939 13.6988 10.5401 13.6603 9.78841C13.6475 9.54039 13.7094 9.41399 14.0062 9.42429C14.1577 9.42996 14.3131 9.35322 14.4669 9.31377Z" fill="#EE5329"/>
<path d="M14.8059 17.2362C14.7667 16.964 14.7606 16.6901 14.7726 16.4154C15.0486 16.3394 15.3246 16.2635 15.6006 16.1876C15.649 16.3536 15.6927 16.5209 15.7464 16.6848C15.8085 16.8752 15.7343 16.9816 15.5344 17.0328C15.2895 17.0952 15.0482 17.1676 14.8059 17.2362Z" fill="#F0F1F1"/>
<path d="M43.8701 8.21752C44.8073 8.55446 45.746 8.88896 46.6819 9.22935C46.9841 9.33927 47.1245 9.63971 47.0236 9.92902C47.0084 9.97281 46.991 10.0153 46.9745 10.0586C45.0719 15.0232 43.1691 19.9881 41.266 24.9525C41.2392 25.0226 41.2081 25.0913 41.1791 25.1601C41.1049 25.1319 41.0311 25.1028 40.9564 25.0759C40.0316 24.742 39.1065 24.4089 38.1818 24.075C37.9309 23.9846 37.876 23.8692 37.9665 23.6303C37.9789 23.5979 37.9916 23.566 38.0041 23.5335L38.0047 23.5333C38.2806 23.6322 38.5555 23.7323 38.8321 23.8296C39.0078 23.8915 39.1764 23.8335 39.231 23.6965C39.2876 23.5543 39.2055 23.4139 39.0204 23.3451C38.7456 23.2431 38.47 23.1447 38.1947 23.0445L38.1938 23.0427C38.2591 22.8736 38.3241 22.7039 38.3895 22.5348L38.3928 22.533C38.548 22.588 38.7031 22.6434 38.8585 22.698C39.0655 22.7701 39.1737 22.7313 39.2391 22.5622C39.2964 22.4139 39.2225 22.2808 39.0387 22.2101C38.8849 22.1512 38.7292 22.0975 38.5738 22.0415C38.6361 21.8802 38.6985 21.7189 38.7608 21.5576L38.7614 21.5573C39.1457 21.6954 39.5298 21.8338 39.9143 21.971C40.1217 22.0448 40.2864 21.9928 40.339 21.8393C40.3895 21.691 40.3021 21.559 40.1023 21.486C39.7187 21.3462 39.3347 21.2077 38.9509 21.0684L38.9503 21.0672C39.0111 20.9058 39.0719 20.7444 39.1327 20.5831C39.2929 20.6403 39.45 20.7053 39.6129 20.7527C39.8129 20.8115 39.941 20.7484 39.9983 20.5813C40.0499 20.4314 39.9762 20.3033 39.7925 20.2336C39.6395 20.1755 39.4848 20.1217 39.3308 20.0662C39.3936 19.905 39.4558 19.7441 39.5186 19.583L39.5192 19.5827C39.7951 19.6817 40.0707 19.7816 40.3472 19.8788C40.5342 19.9442 40.6906 19.8908 40.7439 19.7474C40.7956 19.6098 40.7065 19.4575 40.5323 19.3932C40.2574 19.2916 39.9813 19.1931 39.7058 19.0932L39.7055 19.0926C39.7669 18.931 39.8283 18.7694 39.8893 18.6075C40.0377 18.6611 40.1859 18.7155 40.3345 18.7671C40.535 18.8369 40.6774 18.7912 40.7417 18.6399C40.8129 18.472 40.7513 18.3424 40.5482 18.2588C40.3974 18.1965 40.2409 18.146 40.0869 18.0905C40.15 17.93 40.2126 17.7692 40.2757 17.6087L40.277 17.6082C40.6734 17.7501 41.0698 17.892 41.466 18.0344C41.5352 18.0593 41.6015 18.0862 41.6771 18.0519C41.7814 18.0042 41.8638 17.9413 41.8634 17.8219C41.8629 17.6848 41.7873 17.5959 41.6507 17.5472C41.2543 17.4052 40.8587 17.2611 40.4628 17.1179L40.4623 17.1177C40.5237 16.9561 40.5855 16.795 40.6469 16.6334C40.8135 16.693 40.9784 16.7584 41.1472 16.8108C41.314 16.8631 41.459 16.7902 41.5069 16.6434C41.5576 16.4878 41.5031 16.3917 41.3203 16.3224C41.1603 16.2618 40.9997 16.2043 40.8391 16.1455L40.838 16.1431C40.903 15.9734 40.9679 15.8041 41.0324 15.6342L41.0343 15.6334C41.3154 15.7338 41.5966 15.8342 41.8775 15.935C41.9467 15.9599 42.0134 15.9884 42.0879 15.9517C42.1816 15.9057 42.2721 15.857 42.2613 15.7373C42.2493 15.6004 42.1857 15.4938 42.0431 15.4414C41.7683 15.3408 41.4934 15.2422 41.2183 15.1425C41.28 14.9814 41.3417 14.8204 41.4039 14.6595C41.565 14.7171 41.7247 14.7782 41.887 14.8313C42.0587 14.8872 42.2044 14.826 42.2573 14.6839C42.3184 14.5202 42.2653 14.4193 42.0756 14.3474C41.9157 14.2868 41.7549 14.2298 41.5943 14.1709L41.5934 14.1691C41.6587 14 41.7238 13.8303 41.7891 13.6612L41.7922 13.6599C42.1877 13.8015 42.5836 13.9433 42.9791 14.0849C43.0478 14.1096 43.114 14.1369 43.1894 14.103C43.2936 14.0558 43.3773 13.9934 43.3758 13.8741C43.3744 13.7272 43.2725 13.6412 43.1412 13.592C42.7533 13.4472 42.3627 13.3093 41.9732 13.1684C42.0356 13.0071 42.0979 12.8458 42.1603 12.6845L42.1609 12.6842C42.3321 12.7454 42.5027 12.8099 42.6755 12.8668C42.8172 12.9134 42.9586 12.8471 43.0107 12.7181C43.0749 12.5599 43.0292 12.4493 42.8622 12.3837C42.6932 12.3169 42.5211 12.2578 42.3498 12.1955L42.3492 12.1943C42.41 12.0329 42.4708 11.8716 42.5315 11.7102C42.7948 11.8051 43.0582 11.9011 43.3222 11.9943C43.5112 12.061 43.725 11.9922 43.7703 11.8533C43.8143 11.7179 43.7006 11.5449 43.5202 11.4788C43.2576 11.3822 42.9934 11.2884 42.7303 11.193C42.7931 11.0319 42.8552 10.871 42.9181 10.7099L42.9187 10.7096C43.0793 10.767 43.2401 10.8255 43.4013 10.8812C43.5718 10.9402 43.7138 10.8834 43.7697 10.7376C43.8256 10.5917 43.7562 10.4592 43.5869 10.3957C43.4272 10.3357 43.266 10.2786 43.1057 10.2203L43.1054 10.2197C43.1668 10.058 43.2282 9.89639 43.2892 9.73459C43.6511 9.86508 44.0138 9.99385 44.3744 10.1263C44.4503 10.1542 44.5278 10.1767 44.6063 10.169C44.724 10.1578 44.8379 10.1274 44.8741 10.0015C44.9098 9.87544 44.855 9.77882 44.7446 9.70403C44.6741 9.65645 44.6005 9.6171 44.5192 9.58828C44.185 9.47025 43.8526 9.34893 43.5194 9.2283C43.5423 9.17003 43.5685 9.11248 43.5873 9.05271C43.6775 8.77483 43.8384 8.51652 43.8701 8.21752Z" fill="#B3E2F4"/>
<path d="M37.9964 23.5716C37.9841 23.6036 37.9716 23.635 37.9594 23.6669C37.8706 23.9016 37.9246 24.0152 38.171 24.1047C39.08 24.4333 39.9894 24.7612 40.8984 25.0898C40.9718 25.1164 41.0444 25.145 41.1174 25.1728C40.9946 25.5461 40.7125 25.6794 40.3293 25.5416C39.4085 25.2101 38.488 24.8777 37.5683 24.5447C37.2013 24.4117 37.0778 24.1562 37.2101 23.8091C37.269 23.6553 37.331 23.5026 37.3917 23.3495C37.5931 23.4231 37.7947 23.4974 37.9964 23.5716Z" fill="#83D2EF"/>
<path d="M43.9337 8.22263C43.9022 8.52097 43.7428 8.7779 43.6537 9.05786C43.6347 9.11724 43.6093 9.17431 43.5864 9.23281C43.5739 9.22877 43.5617 9.22532 43.5492 9.22128C43.348 9.14841 43.1467 9.07596 42.9455 9.00308C42.9987 8.8569 43.0499 8.71048 43.1047 8.56539C43.248 8.18825 43.5393 8.06845 43.9337 8.22263Z" fill="#83D2EF"/>
<path d="M41.8366 13.6792C41.7721 13.8471 41.7078 14.0156 41.6433 14.1835C41.4385 14.1117 41.2338 14.0395 41.0291 13.9672C41.095 13.7944 41.1607 13.622 41.2266 13.4492C41.4299 13.5263 41.6331 13.6025 41.8366 13.6792Z" fill="#82D2EF"/>
<path d="M39.313 18.4096C39.3782 18.2399 39.4427 18.0706 39.5079 17.9009C39.71 17.9732 39.9119 18.0459 40.114 18.1182C40.0488 18.2893 39.9838 18.4609 39.9186 18.632C39.7174 18.5576 39.5155 18.4835 39.313 18.4096Z" fill="#4EB9E8"/>
<path d="M41.9892 11.4957C42.0538 11.3263 42.118 11.1563 42.1826 10.987C42.3851 11.0594 42.5872 11.1317 42.7898 11.2041C42.7245 11.3752 42.6592 11.5467 42.5935 11.7177C42.3922 11.6432 42.1908 11.5692 41.9892 11.4957Z" fill="#4EB9E8"/>
<path d="M41.0712 15.6577C41.0069 15.8263 40.9429 15.9943 40.8791 16.163C40.6738 16.091 40.4689 16.0192 40.2635 15.9477C40.3294 15.7749 40.3955 15.6027 40.4614 15.4299C40.6643 15.5054 40.8675 15.5815 41.0712 15.6577Z" fill="#82D2EF"/>
<path d="M38.5478 20.3902C38.6125 20.2204 38.6766 20.0509 38.7414 19.8811C38.9439 19.9535 39.1464 20.0259 39.3488 20.0988C39.2836 20.2699 39.2182 20.4414 39.153 20.6125C38.9511 20.5384 38.7492 20.4642 38.5478 20.3902Z" fill="#4EB9E8"/>
<path d="M38.3991 22.5737C38.3346 22.7416 38.2703 22.9101 38.2058 23.078C38.0011 23.0058 37.7963 22.934 37.5921 22.8619C37.6579 22.6891 37.7232 22.5166 37.7891 22.3438C37.9921 22.4203 38.1956 22.497 38.3991 22.5737Z" fill="#82D2EF"/>
<path d="M42.95 9.00857C43.1503 9.08121 43.3509 9.15341 43.5513 9.22605C43.4876 9.3972 43.4244 9.56853 43.3607 9.73969C43.1588 9.66553 42.9569 9.59138 42.755 9.51722C42.8201 9.34801 42.8852 9.17838 42.95 9.00857Z" fill="#4EB9E8"/>
<path d="M42.3711 10.4895C42.4318 10.3301 42.4924 10.1711 42.5532 10.0117C42.7568 10.084 42.9608 10.1565 43.1643 10.2288L43.1646 10.2294C43.1028 10.3914 43.0417 10.5531 42.9801 10.7147L42.9795 10.7149C42.7766 10.6395 42.5741 10.5646 42.3711 10.4895Z" fill="#4CB7E8"/>
<path d="M41.9837 11.5012C42.185 11.5751 42.3864 11.6491 42.5877 11.723C42.5277 11.8832 42.4677 12.0434 42.4076 12.2036C42.2035 12.1316 41.9989 12.0593 41.7947 11.9873C41.8577 11.8248 41.9205 11.6627 41.9837 11.5012Z" fill="#82D2EF"/>
<path d="M39.3104 18.4147C39.5122 18.4889 39.714 18.563 39.9159 18.6371C39.8552 18.7976 39.7946 18.958 39.7339 19.1185C39.5304 19.0462 39.3264 18.9737 39.1228 18.9014C39.1858 18.7388 39.2482 18.5766 39.3104 18.4147Z" fill="#82D2EF"/>
<path d="M39.1157 18.9023C39.3193 18.9746 39.5233 19.0471 39.7268 19.1194L39.7271 19.12C39.6653 19.282 39.6042 19.4437 39.5424 19.6057L39.5418 19.606C39.3388 19.531 39.1359 19.4555 38.9334 19.3806C38.9943 19.2207 39.0551 19.0613 39.1157 18.9023Z" fill="#4CB7E8"/>
<path d="M41.791 11.9934C41.9952 12.0655 42.1998 12.1377 42.4039 12.2097L42.4045 12.2109C42.3423 12.3728 42.2801 12.5346 42.218 12.696L42.2174 12.6963C42.0149 12.6214 41.8119 12.5463 41.6093 12.4714C41.6699 12.3125 41.7307 12.153 41.791 11.9934Z" fill="#4CB7E8"/>
<path d="M41.6016 12.4766C41.8041 12.5515 42.0067 12.6263 42.2097 12.7014C42.1481 12.8615 42.0866 13.0216 42.025 13.1818C41.8226 13.1094 41.6201 13.0369 41.4176 12.9645C41.4792 12.8015 41.5407 12.6389 41.6016 12.4766Z" fill="#82D2EF"/>
<path d="M41.4158 12.9684C41.6183 13.0408 41.8207 13.1132 42.0232 13.1856C41.9633 13.3483 41.9039 13.5107 41.844 13.6733L41.8409 13.6747C41.6375 13.598 41.4344 13.5219 41.2309 13.4453C41.2926 13.2862 41.3541 13.1275 41.4158 12.9684Z" fill="#4CB7E8"/>
<path d="M38.9336 19.3867C39.1366 19.4618 39.3395 19.5373 39.542 19.6121C39.48 19.7721 39.4186 19.9318 39.3566 20.0917C39.1541 20.0193 38.9517 19.9469 38.7494 19.8741C38.8108 19.7115 38.8721 19.5493 38.9336 19.3867Z" fill="#82D2EF"/>
<path d="M41.0252 13.9743C41.2298 14.0465 41.4346 14.1183 41.6392 14.1905L41.6401 14.1923C41.5774 14.354 41.5148 14.5157 41.4521 14.6773C41.2495 14.6024 41.047 14.5276 40.8444 14.4527C40.9047 14.2931 40.9649 14.1339 41.0252 13.9743Z" fill="#4CB7E8"/>
<path d="M40.8398 14.457C41.0424 14.5319 41.245 14.6068 41.4475 14.6817C41.3866 14.8416 41.3257 15.0014 41.2643 15.1611C41.0612 15.089 40.8582 15.0164 40.6547 14.9441C40.7165 14.7821 40.7784 14.6196 40.8398 14.457Z" fill="#82D2EF"/>
<path d="M38.5457 20.3916C38.7471 20.4656 38.9489 20.5397 39.1504 20.6132C39.0904 20.7734 39.0303 20.9336 38.9703 21.0938C38.7661 21.0217 38.562 20.9497 38.3575 20.8771C38.4202 20.7154 38.4829 20.5537 38.5457 20.3916Z" fill="#82D2EF"/>
<path d="M38.3537 20.8836C38.5578 20.9557 38.762 21.0277 38.9664 21.1004L38.967 21.1015C38.9048 21.2634 38.8426 21.4252 38.7805 21.5866L38.7799 21.5869C38.5774 21.512 38.3744 21.437 38.1718 21.3621C38.2326 21.2026 38.2933 21.0432 38.3537 20.8836Z" fill="#4CB7E8"/>
<path d="M40.6524 14.9453C40.8555 15.0175 41.0584 15.0901 41.2619 15.1624C41.2011 15.3247 41.1407 15.4872 41.0803 15.6497C41.0803 15.6497 41.078 15.6503 41.0785 15.6505C40.8753 15.5744 40.672 15.4988 40.4689 15.4227C40.5295 15.2637 40.5907 15.1044 40.6524 14.9453Z" fill="#4CB7E8"/>
<path d="M38.1641 21.3672C38.3666 21.4421 38.5696 21.5171 38.7722 21.592C38.7106 21.7521 38.6491 21.9123 38.5875 22.0724C38.3851 22 38.1826 21.9276 37.9801 21.8552C38.0413 21.692 38.1028 21.5294 38.1641 21.3672Z" fill="#82D2EF"/>
<path d="M37.9783 21.859C38.1808 21.9314 38.3832 22.0038 38.5857 22.0763C38.5262 22.2391 38.4664 22.4013 38.407 22.5641C38.407 22.5641 38.4039 22.5655 38.4037 22.5659C38.2003 22.4892 37.9969 22.4125 37.7934 22.3359C37.8551 22.1768 37.9166 22.0181 37.9783 21.859Z" fill="#4CB7E8"/>
<path d="M40.2591 15.9522C40.4643 16.0241 40.6691 16.0959 40.8745 16.1674C40.8745 16.1674 40.8761 16.17 40.8757 16.1698C40.8121 16.3311 40.749 16.4926 40.6855 16.6535C40.4837 16.5794 40.2821 16.5049 40.0798 16.4306C40.14 16.2714 40.1997 16.1121 40.2591 15.9522Z" fill="#4CB7E8"/>
<path d="M40.0756 16.4341C40.2774 16.5082 40.4791 16.5828 40.6813 16.6571C40.6207 16.8175 40.5597 16.9774 40.4991 17.1378C40.2955 17.0655 40.092 16.9932 39.8886 16.9205C39.9508 16.7586 40.0132 16.5964 40.0756 16.4341Z" fill="#82D2EF"/>
<path d="M39.882 16.9255C40.0855 16.9978 40.289 17.0701 40.4924 17.1428L40.4929 17.143C40.432 17.3053 40.3707 17.4675 40.3099 17.6298L40.3086 17.6304C40.1053 17.5547 39.9025 17.4792 39.6993 17.4032C39.7601 17.2437 39.8212 17.0849 39.882 16.9255Z" fill="#4CB7E8"/>
<path d="M37.5877 22.865C37.7923 22.9372 37.9971 23.0089 38.2013 23.081L38.2021 23.0828C38.1395 23.2444 38.0768 23.4061 38.0141 23.5678L38.0135 23.5681C37.811 23.4932 37.6084 23.4183 37.4057 23.3438C37.4671 23.1841 37.5274 23.0246 37.5877 22.865Z" fill="#4CB7E8"/>
<path d="M42.3672 10.4961C42.5702 10.5711 42.7726 10.6465 42.9756 10.7215C42.9136 10.8815 42.8522 11.0412 42.7902 11.2011C42.5877 11.1287 42.3857 11.0565 42.1832 10.9841C42.2449 10.821 42.3057 10.6587 42.3672 10.4961Z" fill="#82D2EF"/>
<path d="M39.6953 17.4062C39.8986 17.4819 40.1015 17.5574 40.3046 17.6335C40.2423 17.7928 40.1805 17.9523 40.1182 18.1117C39.9161 18.0395 39.7143 17.9668 39.5123 17.8945C39.5733 17.7318 39.6343 17.569 39.6953 17.4062Z" fill="#82D2EF"/>
<path d="M43.1716 10.2274C42.968 10.1551 42.7645 10.0828 42.5605 10.0103C42.6229 9.84805 42.6852 9.68577 42.7479 9.5241C42.9497 9.59823 43.1515 9.67235 43.3534 9.74648C43.2929 9.9065 43.2322 10.067 43.1716 10.2274Z" fill="#82D2EF"/>
<path d="M43.3523 9.73126C43.4157 9.56119 43.4787 9.39096 43.5421 9.2209C43.5541 9.22474 43.5667 9.22831 43.5791 9.23231C43.9066 9.35074 44.2339 9.47104 44.5627 9.58749C44.6432 9.6161 44.7158 9.65449 44.7845 9.7017C44.8927 9.77533 44.9472 9.8704 44.9119 9.99522C44.8768 10.1196 44.7642 10.1494 44.6484 10.1605C44.5712 10.1681 44.495 10.1459 44.4203 10.1184C44.0647 9.98691 43.7079 9.85986 43.3523 9.73126Z" fill="#82D2EF"/>
<path d="M40.306 17.6243C40.3666 17.463 40.4277 17.3019 40.4883 17.1406C40.8777 17.2819 41.2668 17.424 41.6568 17.564C41.7912 17.6121 41.8656 17.6997 41.866 17.835C41.8663 17.9532 41.7859 18.015 41.6828 18.0618C41.6084 18.0957 41.5432 18.0692 41.4752 18.0446C41.0858 17.9043 40.6959 17.7643 40.306 17.6243Z" fill="#82D2EF"/>
<path d="M38.7726 21.5801C38.8346 21.4193 38.8966 21.2585 38.9584 21.0981C39.336 21.2352 39.7137 21.3722 40.091 21.51C40.288 21.5822 40.374 21.7124 40.3238 21.8585C40.2721 22.0099 40.1099 22.0616 39.9061 21.9884C39.5284 21.8528 39.1506 21.7163 38.7726 21.5801Z" fill="#82D2EF"/>
<path d="M41.8368 13.665C41.8966 13.5034 41.9556 13.342 42.0154 13.1804C42.3986 13.3189 42.7829 13.4549 43.1643 13.5981C43.2929 13.6466 43.3933 13.731 43.395 13.8764C43.3961 13.9939 43.3142 14.0557 43.2117 14.1022C43.1375 14.1356 43.0724 14.1087 43.0048 14.0843C42.6153 13.9445 42.2259 13.8046 41.8368 13.665Z" fill="#83D2EF"/>
<path d="M42.5898 11.7109C42.6549 11.5406 42.72 11.3698 42.7855 11.1996C43.0448 11.2934 43.3049 11.3866 43.5635 11.4822C43.7416 11.5476 43.8536 11.7187 43.8098 11.8524C43.765 11.9901 43.5545 12.0581 43.3684 11.9918C43.1081 11.8995 42.8491 11.8048 42.5898 11.7109Z" fill="#83D2EF"/>
<path d="M39.5424 19.6008C39.6038 19.4399 39.665 19.2785 39.7266 19.1172C39.9979 19.2159 40.2697 19.3133 40.5404 19.4136C40.7119 19.4772 40.7993 19.6272 40.7488 19.7637C40.6962 19.9054 40.5418 19.9581 40.3581 19.8936C40.0854 19.7973 39.8141 19.6986 39.5424 19.6008Z" fill="#82D2EF"/>
<path d="M38.0106 23.562C38.0731 23.401 38.1355 23.2401 38.198 23.0791C38.4692 23.1782 38.7405 23.2754 39.011 23.3763C39.1933 23.4442 39.2743 23.5826 39.2185 23.7235C39.1647 23.8589 38.9987 23.9162 38.8257 23.8551C38.5529 23.7588 38.282 23.6603 38.0106 23.562Z" fill="#82D2EF"/>
<path d="M41.0728 15.6454C41.133 15.4836 41.1937 15.3219 41.2539 15.1602C41.5248 15.2587 41.7955 15.3562 42.066 15.4555C42.2066 15.5069 42.269 15.6127 42.2809 15.748C42.2916 15.8663 42.2024 15.9144 42.1101 15.9599C42.0368 15.9962 41.9713 15.9676 41.903 15.9434C41.6264 15.8438 41.3496 15.7446 41.0728 15.6454Z" fill="#82D2EF"/>
<path d="M39.9136 18.6281C39.9787 18.4573 40.0436 18.2858 40.1087 18.115C40.2607 18.17 40.4149 18.2205 40.5639 18.2818C40.7643 18.3647 40.825 18.4932 40.7548 18.6598C40.6917 18.8104 40.5507 18.8556 40.3531 18.7859C40.2058 18.735 40.0596 18.681 39.9136 18.6281Z" fill="#83D2EF"/>
<path d="M39.1479 20.6073C39.2131 20.4365 39.2784 20.2652 39.3435 20.0943C39.4955 20.1494 39.6481 20.2027 39.799 20.2604C39.9803 20.3295 40.053 20.4565 40.0021 20.6051C39.945 20.7711 39.8187 20.8333 39.6219 20.7752C39.4612 20.7282 39.3055 20.6639 39.1479 20.6073Z" fill="#83D2EF"/>
<path d="M42.2096 12.6881C42.2717 12.5265 42.3339 12.3649 42.3959 12.2037C42.5643 12.2657 42.7346 12.324 42.9013 12.3903C43.0658 12.4558 43.1107 12.5648 43.0477 12.7217C42.9964 12.8497 42.8569 12.9154 42.7172 12.8691C42.5462 12.8126 42.3785 12.7488 42.2096 12.6881Z" fill="#82D2EF"/>
<path d="M41.4477 14.6689C41.5103 14.5075 41.5729 14.346 41.6355 14.1846C41.7939 14.243 41.953 14.2996 42.1103 14.3595C42.2974 14.4308 42.3498 14.5308 42.2895 14.6931C42.2372 14.8343 42.0936 14.8946 41.9243 14.8392C41.7642 14.7865 41.6066 14.726 41.4477 14.6689Z" fill="#82D2EF"/>
<path d="M38.4033 22.562C38.4627 22.3994 38.5224 22.2374 38.5818 22.0748C38.7346 22.1301 38.8885 22.184 39.0404 22.2419C39.2219 22.3116 39.2951 22.4441 39.238 22.5909C39.1737 22.7581 39.0668 22.797 38.8627 22.7255C38.7098 22.6716 38.5564 22.6165 38.4033 22.562Z" fill="#82D2EF"/>
<path d="M40.6784 16.649C40.7419 16.4878 40.8049 16.3266 40.8683 16.1659C41.0267 16.2242 41.1856 16.2813 41.343 16.3408C41.5233 16.4096 41.5771 16.5048 41.527 16.659C41.4797 16.805 41.3364 16.8767 41.1723 16.825C41.0054 16.7728 40.8425 16.7085 40.6784 16.649Z" fill="#83D2EF"/>
<path d="M42.9798 10.7112C43.0413 10.5499 43.1025 10.3879 43.1641 10.2266C43.3222 10.2843 43.4812 10.341 43.6387 10.4005C43.8056 10.4634 43.8743 10.5943 43.819 10.7393C43.7638 10.8839 43.6238 10.9402 43.4557 10.8817C43.2968 10.8261 43.1388 10.7679 42.9798 10.7112Z" fill="#82D2EF"/>
<path d="M30.5121 10.2233C30.5942 10.2117 30.6759 10.2002 30.758 10.1885C31.0016 10.2134 31.2358 10.1802 31.4607 10.0892C31.5193 10.0809 31.5775 10.0726 31.6362 10.0644C31.6827 10.3362 31.692 10.6099 31.7028 10.8838C31.7114 11.1027 31.8416 11.2485 32.022 11.2449C32.2488 11.24 32.3592 11.1093 32.3415 10.8727C32.3217 10.6054 32.3051 10.3376 32.2873 10.0704C32.6597 10.0576 33.0317 10.0657 33.4034 10.1079C33.399 10.1727 33.3933 10.2381 33.3899 10.3032C33.3774 10.5518 33.313 10.797 33.3417 11.0481C33.3631 11.2365 33.4733 11.3356 33.6488 11.3345C33.8153 11.3338 33.9205 11.2242 33.9418 11.0774C33.9861 10.7791 34.0002 10.4754 34.0267 10.1738C34.4015 10.2379 34.7748 10.3075 35.1422 10.4115C35.0759 10.6575 35.0083 10.9037 34.9432 11.1505C34.8802 11.3902 34.9726 11.5662 35.183 11.6112C35.3432 11.6459 35.4907 11.5483 35.5479 11.3536C35.6216 11.1032 35.6847 10.8498 35.7528 10.5978C36.1062 10.7135 36.4539 10.8441 36.786 11.0153C36.7978 11.1113 36.7444 11.1849 36.7067 11.2636C36.6227 11.4382 36.5314 11.6095 36.4542 11.7876C36.3818 11.9543 36.447 12.1433 36.5915 12.223C36.7127 12.2894 36.9202 12.2547 36.9859 12.1293C37.1265 11.8597 37.2774 11.5939 37.3705 11.3004C37.7027 11.4867 38.0359 11.6703 38.3369 11.9071C38.3331 11.9903 38.281 12.0482 38.2363 12.1099C38.0159 12.4146 37.7917 12.7169 37.5757 13.0249C37.436 13.224 37.5146 13.4568 37.7385 13.5291C37.9118 13.5852 38.0232 13.4844 38.1132 13.3643C38.3451 13.0536 38.57 12.7376 38.7975 12.4236C38.8289 12.3803 38.8578 12.3364 38.8582 12.2795C39.0659 12.4323 39.2749 12.584 39.4815 12.7389C39.5739 12.8084 39.6458 12.8969 39.6956 13.0026C39.8381 13.307 39.7567 13.5658 39.5733 13.8177C35.9514 18.8111 32.3321 23.8061 28.7123 28.8012C28.6848 28.8391 28.6576 28.8784 28.6274 28.9143C28.382 29.2099 27.9932 29.261 27.6724 29.0324C27.4623 28.8828 27.2604 28.7213 27.0546 28.5653C27.0748 28.5537 27.1017 28.5475 27.1147 28.5301C27.3749 28.1746 27.6416 27.8239 27.8889 27.4596C28.0083 27.2838 27.9561 27.1129 27.793 27.0106C27.6412 26.9149 27.4849 26.9492 27.3637 27.1135C27.1441 27.4114 26.9288 27.7124 26.7109 28.0119C26.6661 28.0732 26.6277 28.1413 26.5502 28.1697C26.2373 27.9487 25.9657 27.68 25.6929 27.413C25.9448 27.2399 26.1497 27.0141 26.3564 26.7934C26.4537 26.6893 26.432 26.5432 26.3601 26.4256C26.2928 26.3156 26.1826 26.2811 26.05 26.3018C25.9354 26.32 25.8658 26.3915 25.7863 26.4611C25.6077 26.618 25.4697 26.8212 25.2516 26.9327C24.9918 26.6599 24.7655 26.3601 24.5499 26.0519C24.7862 25.898 25.0237 25.7458 25.2575 25.5889C25.3748 25.5101 25.3978 25.3912 25.3645 25.257C25.3358 25.142 25.2661 25.0619 25.1498 25.0376C25.0281 25.012 24.9174 25.0428 24.8143 25.1122C24.6095 25.2495 24.4009 25.3816 24.1942 25.5158C23.9873 25.1903 23.8113 24.8484 23.6394 24.5044C23.9197 24.4006 24.1971 24.29 24.461 24.1501C24.5804 24.0871 24.6386 23.9749 24.6209 23.8394C24.6047 23.7187 24.5245 23.6295 24.4126 23.588C24.2946 23.544 24.1813 23.5857 24.0717 23.6323C23.8459 23.7289 23.6188 23.8237 23.3922 23.9189C23.2435 23.5701 23.1231 23.2126 23.0255 22.8474C23.2698 22.7876 23.5132 22.7225 23.759 22.6688C23.994 22.6171 24.1061 22.4672 24.0534 22.255C24.0058 22.062 23.824 21.9799 23.5971 22.0436C23.3437 22.1149 23.0893 22.1834 22.8264 22.2177C22.8149 22.1464 22.8034 22.0756 22.7919 22.0044C22.8103 21.7715 22.7756 21.5461 22.6823 21.329C22.6689 21.2458 22.6555 21.1632 22.642 21.0801C22.9529 21.0701 23.2642 21.0679 23.5738 21.0469C23.7367 21.0356 23.8562 20.8607 23.8364 20.7032C23.8166 20.5427 23.6707 20.4123 23.5001 20.4174C23.2125 20.4261 22.9253 20.4434 22.638 20.4573C22.6251 20.0815 22.6267 19.7062 22.6543 19.3316C22.9098 19.3232 23.1625 19.372 23.4131 19.4128C23.6291 19.4483 23.798 19.3083 23.8164 19.1201C23.8335 18.9501 23.7121 18.82 23.4928 18.785C23.2354 18.7436 22.9774 18.7097 22.7198 18.6727C22.7651 18.2975 22.8471 17.9298 22.9247 17.5617C23.1853 17.6439 23.4447 17.7306 23.7067 17.8068C23.883 17.8576 24.0406 17.7634 24.0924 17.5914C24.1413 17.428 24.0615 17.2765 23.881 17.2141C23.617 17.1227 23.3548 17.0247 23.0792 16.9743C23.1017 16.9211 23.1259 16.8686 23.1459 16.8142C23.255 16.5189 23.3482 16.2171 23.4975 15.939C23.7465 15.9908 23.947 16.1553 24.1777 16.249C24.3638 16.3247 24.5215 16.2844 24.6033 16.1286C24.6876 15.9675 24.6316 15.7912 24.4499 15.6921C24.2249 15.5689 23.9941 15.4572 23.7659 15.3403C23.9591 15.0249 24.1218 14.69 24.3494 14.3969C24.4099 14.4354 24.4723 14.4708 24.5301 14.5137C24.8243 14.732 25.1177 14.9514 25.4103 15.1715C25.5115 15.248 25.6188 15.2911 25.742 15.2455C25.8548 15.2038 25.9252 15.1254 25.9427 14.9995C25.962 14.8578 25.8979 14.7585 25.7922 14.6753C25.4425 14.4016 25.069 14.1595 24.7351 13.8647C24.9442 13.5582 25.2084 13.2988 25.4498 13.0197C25.6148 13.1932 25.7802 13.3666 25.9448 13.5406C26.1092 13.7136 26.2837 13.739 26.4259 13.6091C26.5677 13.4797 26.5531 13.3068 26.4012 13.1218C26.2493 12.9373 26.0475 12.7972 25.9318 12.5813C26.1868 12.3179 26.4872 12.1097 26.7757 11.8872C26.9209 12.1018 27.0644 12.3177 27.2127 12.5304C27.3491 12.7259 27.5122 12.7723 27.6639 12.6658C27.8255 12.5521 27.8443 12.3716 27.7188 12.1785C27.5808 11.9667 27.4468 11.753 27.3105 11.5405C27.6172 11.3411 27.9408 11.1724 28.271 11.0145C28.3878 11.2642 28.5011 11.5159 28.6232 11.7629C28.7098 11.9383 28.8728 12.008 29.0178 11.9457C29.1937 11.8698 29.2543 11.6961 29.1822 11.5027C29.0879 11.2498 28.9445 11.0169 28.8709 10.7557C29.215 10.6186 29.5667 10.5047 29.9242 10.4056C29.997 10.6888 30.066 10.9725 30.143 11.2546C30.1882 11.4207 30.3552 11.5243 30.5128 11.4952C30.6671 11.4666 30.7945 11.3106 30.7554 11.1582C30.6758 10.8454 30.6242 10.5267 30.5121 10.2233ZM26.9251 20.8606C27.0334 21.5017 27.2675 22.1731 27.596 22.8162C27.6775 22.9752 27.7174 22.937 27.7986 22.8249C29.7571 20.1186 31.7177 17.4139 33.6783 14.7087C33.7933 14.5501 33.793 14.5486 33.5908 14.5034C32.6907 14.3003 31.7997 14.3213 30.9191 14.5581C28.1935 15.29 26.4674 17.9785 26.9251 20.8606ZM31.8924 21.6241C31.9082 21.7603 31.9789 21.8441 32.1085 21.8855C32.273 21.9376 32.3912 21.864 32.477 21.7445C33.0057 21.0079 33.5623 20.2918 34.0605 19.5328C34.1833 19.3459 34.155 19.2007 33.9891 19.0833C33.8382 18.9759 33.676 19.0124 33.5481 19.186C33.3805 19.4137 33.2118 19.6402 33.0518 19.8737C32.9754 19.9856 32.9089 20.0047 32.7947 19.9135C32.5691 19.7335 32.3353 19.5645 32.1026 19.3938C31.9299 19.2676 31.7313 19.2801 31.6264 19.4179C31.5171 19.5611 31.5626 19.7651 31.7401 19.9003C31.9647 20.0717 32.1887 20.2445 32.4194 20.4063C32.5392 20.4904 32.5597 20.5609 32.468 20.6793C32.2913 20.9073 32.1283 21.1456 31.9576 21.3782C31.9026 21.4535 31.8662 21.5306 31.8924 21.6241Z" fill="#EFC31A"/>
<path d="M22.6675 20.8641C22.727 20.7201 22.6346 20.564 22.6923 20.4202C22.9789 20.4064 23.2654 20.3891 23.5525 20.3805C23.7226 20.3754 23.8683 20.5055 23.888 20.6655C23.9078 20.8226 23.7885 20.9969 23.626 21.0082C23.3171 21.0296 23.0065 21.0313 22.6962 21.0413C22.6867 20.9825 22.6771 20.9233 22.6675 20.8641Z" fill="#F19C1F"/>
<path d="M29.8789 10.3657C29.9982 10.267 30.1733 10.31 30.2913 10.2091C30.3502 10.2008 30.4086 10.1925 30.4675 10.1842C30.5799 10.4882 30.6318 10.8075 30.7123 11.1193C30.7516 11.2725 30.6238 11.4288 30.4689 11.457C30.3113 11.4861 30.1436 11.3817 30.0979 11.2158C30.0212 10.9336 29.9515 10.6494 29.8789 10.3657Z" fill="#F19C1F"/>
<path d="M31.7177 10.0138C31.887 10.0692 32.0604 9.98001 32.2299 10.0393C32.2479 10.3074 32.2644 10.5752 32.2843 10.843C32.302 11.08 32.1909 11.2111 31.9638 11.2159C31.7829 11.2195 31.6523 11.0735 31.6436 10.8542C31.6328 10.5797 31.6234 10.3055 31.5768 10.0332C31.624 10.027 31.6706 10.0205 31.7177 10.0138Z" fill="#F19C1F"/>
<path d="M23.0887 22.814C22.9883 22.6795 23.0183 22.4979 22.9188 22.3632C22.9092 22.3039 22.8997 22.2452 22.8901 22.186C23.1524 22.1518 23.4062 22.0835 23.6592 22.0123C23.8855 21.9489 24.0669 22.0303 24.1145 22.2232C24.1666 22.4349 24.0552 22.5844 23.8207 22.636C23.5754 22.6895 23.3325 22.7544 23.0887 22.814Z" fill="#F19C1F"/>
<path d="M31.406 10.0552C31.1824 10.1442 30.9494 10.1766 30.707 10.1523C30.94 10.12 31.173 10.0876 31.406 10.0552Z" fill="#FAEEC2"/>
<path d="M22.7383 21.293C22.8337 21.511 22.8691 21.7374 22.8503 21.9714C22.813 21.7452 22.7756 21.5191 22.7383 21.293Z" fill="#FAEEC2"/>
<path d="M31.8905 21.6381C31.8642 21.5441 31.9012 21.467 31.9559 21.3927C32.1266 21.1601 32.2895 20.9214 32.4662 20.6938C32.558 20.5753 32.5373 20.5044 32.4177 20.4208C32.1868 20.2586 31.9625 20.0862 31.7384 19.9148C31.5613 19.7795 31.5153 19.5752 31.6246 19.4324C31.73 19.2946 31.9282 19.2821 32.1008 19.4083C32.3334 19.5785 32.5674 19.748 32.7929 19.928C32.907 20.0187 32.9735 19.9996 33.0501 19.8882C33.2101 19.6552 33.3788 19.4282 33.5464 19.2005C33.6743 19.0269 33.8364 18.9904 33.9873 19.0978C34.1528 19.2153 34.1812 19.3609 34.0588 19.5473C33.5605 20.3063 33.004 21.0224 32.4752 21.759C32.3895 21.8785 32.2713 21.9525 32.1068 21.9C31.9767 21.8586 31.9064 21.7743 31.8905 21.6381Z" fill="#E47E25"/>
<path d="M38.264 11.9175C38.4584 12.0119 38.6209 12.1522 38.7857 12.2893C38.7853 12.3462 38.7564 12.3901 38.725 12.4334C38.4975 12.7474 38.2726 13.0635 38.0406 13.3743C37.9507 13.4949 37.8392 13.5952 37.6659 13.539C37.4419 13.4667 37.3634 13.2339 37.503 13.0348C37.7191 12.7268 37.9433 12.4244 38.1637 12.1197C38.2081 12.0585 38.2597 12.0007 38.264 11.9175Z" fill="#F19C1F"/>
<path d="M27.1294 28.5752C26.952 28.4555 26.7711 28.3402 26.6254 28.1791C26.7025 28.1512 26.7414 28.0831 26.7861 28.0214C27.0035 27.722 27.2192 27.4208 27.4388 27.1231C27.56 26.9587 27.7162 26.9245 27.8681 27.0201C28.0311 27.1224 28.0833 27.2933 27.9639 27.4691C27.7168 27.8339 27.45 28.1845 27.1898 28.5395C27.1769 28.5573 27.1496 28.5641 27.1294 28.5752Z" fill="#F19C1F"/>
<path d="M24.353 14.3458C24.4174 14.121 24.5461 13.9434 24.7383 13.8137C25.0726 14.108 25.4456 14.3502 25.7954 14.6243C25.9015 14.7075 25.9656 14.8068 25.9459 14.9485C25.9288 15.0743 25.8585 15.1528 25.7452 15.1946C25.622 15.2402 25.5151 15.197 25.4134 15.1205C25.1208 14.9 24.8274 14.6806 24.5333 14.4627C24.4764 14.4197 24.4136 14.3844 24.353 14.3458Z" fill="#F19C20"/>
<path d="M33.3388 10.0836C33.5508 10.061 33.7578 10.1003 33.9641 10.15C33.9376 10.452 33.9229 10.7563 33.879 11.0549C33.8572 11.202 33.7522 11.3113 33.5854 11.3124C33.4094 11.3135 33.299 11.2142 33.2775 11.0255C33.2488 10.7742 33.3134 10.5286 33.3259 10.2796C33.3287 10.214 33.3345 10.1489 33.3388 10.0836Z" fill="#F19C20"/>
<path d="M23.7083 24.482C23.6021 24.2968 23.5026 24.1091 23.4611 23.8977C23.6873 23.8027 23.914 23.7081 24.1395 23.6117C24.2489 23.5652 24.362 23.5235 24.4798 23.5674C24.5915 23.6089 24.6721 23.6979 24.6878 23.8183C24.7059 23.9535 24.6474 24.0656 24.5282 24.1285C24.2651 24.268 23.9882 24.3784 23.7083 24.482Z" fill="#F19C1F"/>
<path d="M36.7144 11.0147C36.9276 11.0702 37.1114 11.19 37.2993 11.3001C37.2061 11.5938 37.0551 11.8596 36.9144 12.1294C36.8487 12.2549 36.641 12.2896 36.5197 12.2232C36.3752 12.1439 36.3095 11.9549 36.3823 11.7875C36.4597 11.6099 36.5505 11.438 36.6351 11.2632C36.6728 11.1845 36.7262 11.1108 36.7144 11.0147Z" fill="#F19C1F"/>
<path d="M25.7686 27.4153C25.6101 27.2663 25.4462 27.1225 25.3281 26.9357C25.5461 26.8243 25.6839 26.6208 25.8625 26.4644C25.9419 26.3949 26.0113 26.323 26.126 26.3053C26.258 26.2847 26.3686 26.3191 26.4358 26.429C26.5076 26.5461 26.5294 26.6925 26.4321 26.7966C26.225 27.0167 26.0203 27.2423 25.7686 27.4153Z" fill="#F19C1F"/>
<path d="M24.6207 26.0396C24.4765 25.878 24.3609 25.6973 24.2653 25.5036C24.4718 25.3696 24.6802 25.2377 24.8848 25.1006C24.9877 25.0312 25.0983 25.0005 25.2199 25.026C25.3356 25.0504 25.4056 25.1303 25.4343 25.2451C25.4676 25.3792 25.4446 25.498 25.3274 25.5767C25.0939 25.7339 24.8566 25.8854 24.6207 26.0396Z" fill="#F19D20"/>
<path d="M28.2386 10.9715C28.4157 10.8326 28.6165 10.7478 28.8392 10.712C28.9129 10.9735 29.0566 11.2067 29.1511 11.46C29.2234 11.6536 29.1626 11.8276 28.9864 11.9036C28.8412 11.9664 28.6783 11.8965 28.5911 11.7206C28.4692 11.4736 28.3557 11.2216 28.2386 10.9715Z" fill="#F19C20"/>
<path d="M22.6966 19.2863C22.6623 19.0603 22.6838 18.8409 22.7615 18.6286C23.0187 18.6655 23.2769 18.6993 23.5333 18.7407C23.7524 18.7762 23.8737 18.906 23.8565 19.0753C23.8376 19.2628 23.6695 19.403 23.4538 19.3675C23.2036 19.3267 22.9517 19.2779 22.6966 19.2863Z" fill="#F19C20"/>
<path d="M35.0735 10.4024C35.2855 10.4352 35.4893 10.4968 35.6849 10.5888C35.6172 10.8411 35.5536 11.0952 35.4798 11.3454C35.4224 11.5402 35.2748 11.6379 35.1144 11.6032C34.9041 11.5576 34.8112 11.382 34.8743 11.1421C34.9395 10.8951 35.0073 10.6491 35.0735 10.4024Z" fill="#F19C20"/>
<path d="M26.7501 11.8356C26.8982 11.6731 27.0726 11.5512 27.2855 11.4885C27.4215 11.7018 27.5562 11.9157 27.6944 12.1271C27.8198 12.32 27.8016 12.501 27.6393 12.6149C27.4875 12.722 27.3241 12.675 27.1876 12.4794C27.0391 12.2664 26.8959 12.0503 26.7501 11.8356Z" fill="#F19C20"/>
<path d="M22.9528 17.5093C22.9583 17.3003 23.0256 17.1093 23.1071 16.9226C23.3819 16.973 23.6443 17.0708 23.908 17.1621C24.0884 17.2245 24.1681 17.3758 24.1193 17.539C24.0675 17.7108 23.9102 17.8054 23.734 17.7541C23.4723 17.678 23.2131 17.5914 22.9528 17.5093Z" fill="#F19C20"/>
<path d="M23.5107 15.8916C23.5228 15.6553 23.6477 15.473 23.7793 15.2932C24.0075 15.41 24.2378 15.5222 24.463 15.6447C24.6447 15.7439 24.7011 15.92 24.6163 16.081C24.5346 16.2368 24.377 16.2771 24.191 16.2014C23.9598 16.1073 23.7595 15.9434 23.5107 15.8916Z" fill="#F19C20"/>
<path d="M25.4377 12.968C25.5651 12.7848 25.7035 12.6135 25.9199 12.529C26.0352 12.745 26.2376 12.8851 26.3895 13.0697C26.5416 13.2548 26.5567 13.4281 26.4143 13.5572C26.2719 13.6867 26.0974 13.6618 25.9329 13.4886C25.7683 13.315 25.6027 13.1416 25.4377 12.968Z" fill="#F19C20"/>
<path d="M43.0294 26.5245C43.0261 26.6433 43.0204 26.7621 43.0204 26.8809C43.0196 33.233 43.0172 39.5846 43.0294 45.9368C43.0302 46.2112 42.9373 46.2816 42.5236 46.2811C36.7033 46.2706 30.8831 46.2739 25.0637 46.2739C24.9285 46.2739 24.7932 46.2684 24.658 46.2657C24.6564 41.3326 24.654 36.3995 24.6523 31.4669C26.6258 31.4647 28.5993 31.4581 30.5728 31.4631C30.9409 31.4636 31.2968 31.44 31.6332 31.3454C32.6855 31.0489 33.2695 30.4186 33.1693 29.6931C33.0357 28.7223 31.9688 28.1657 30.5728 28.1668C28.5993 28.1685 26.6258 28.163 24.6523 28.1608C24.6523 27.6152 24.6523 27.0695 24.6523 26.5239L24.6589 26.5195C25.3349 26.5201 26.0109 26.5212 26.6861 26.5217C32.1341 26.5217 37.5822 26.5234 43.0294 26.5245Z" fill="#467BB7"/>
<path d="M24.6526 26.5234C24.6526 27.0691 24.6526 27.6147 24.6526 28.1603L24.6599 28.1757C22.6433 28.1729 20.6266 28.1581 18.6108 28.174C17.7385 28.1806 16.9884 28.4028 16.5005 28.9298C15.5068 30.0045 16.5396 31.3768 18.2875 31.44C20.4059 31.5165 22.5358 31.4543 24.6599 31.4521L24.6526 31.4675C24.6542 36.4006 24.6567 41.3337 24.6583 46.2663C24.5369 46.269 24.4148 46.2745 24.2934 46.2745C18.4463 46.2751 12.5983 46.2723 6.7512 46.2806C6.38143 46.2811 6.28206 46.2184 6.28206 45.9654C6.29347 39.6039 6.29102 33.2424 6.29021 26.8809C6.29021 26.7621 6.28451 26.6433 6.28125 26.5245C12.4053 26.5245 18.5285 26.524 24.6526 26.5234ZM16.1063 39.6903C17.6082 39.6903 19.1093 39.6853 20.6112 39.6947C20.9101 39.6963 21.0176 39.6424 21.0054 39.4334C20.9826 39.0506 20.9891 38.6662 21.0037 38.2828C21.0102 38.1112 20.9426 38.0408 20.6657 38.0408C17.6359 38.0463 14.6052 38.0457 11.5753 38.0413C11.3326 38.0408 11.2382 38.0897 11.2447 38.2597C11.2593 38.6431 11.2699 39.0275 11.2414 39.4103C11.2235 39.6501 11.362 39.6969 11.6845 39.6947C13.1571 39.6842 14.6321 39.6903 16.1063 39.6903ZM16.1022 42.9821C17.6041 42.9821 19.1052 42.9777 20.6071 42.986C20.9003 42.9876 21.0184 42.9409 21.0054 42.728C20.9817 42.3452 20.9899 41.9608 21.0029 41.5774C21.0086 41.4091 20.9516 41.3321 20.6698 41.3326C17.6399 41.3381 14.6093 41.3381 11.5794 41.3326C11.2992 41.3321 11.2382 41.4069 11.2439 41.5763C11.2577 41.9597 11.265 42.3441 11.2414 42.7269C11.2284 42.9381 11.3432 42.9876 11.6381 42.986C13.1261 42.9777 14.6142 42.9821 16.1022 42.9821Z" fill="#84B2E8"/>
<path d="M24.6523 28.1602C26.6258 28.1624 28.5993 28.1684 30.5728 28.1662C31.9688 28.1651 33.0358 28.7212 33.1693 29.6925C33.2695 30.418 32.6855 31.0483 31.6332 31.3448C31.296 31.4399 30.9409 31.4636 30.5728 31.4625C28.5993 31.4581 26.6258 31.4641 24.6523 31.4663L24.6597 31.4509C24.6597 30.3586 24.6597 29.2662 24.6597 28.1745L24.6523 28.1602Z" fill="#568ECC"/>
<path d="M24.6601 28.173C24.6601 29.2653 24.6601 30.3577 24.6601 31.4494C22.5351 31.4516 20.4061 31.5138 18.2876 31.4373C16.5406 31.3741 15.507 30.0018 16.5007 28.9271C16.9877 28.4001 17.7387 28.1779 18.611 28.1713C20.6276 28.1554 22.6443 28.1702 24.6601 28.173Z" fill="#9CC4F2"/>
<path d="M16.1063 39.6886C14.6321 39.6886 13.1571 39.6831 11.6829 39.693C11.3604 39.6952 11.2219 39.6484 11.2398 39.4086C11.2683 39.0258 11.2577 38.6413 11.2431 38.258C11.2366 38.0875 11.3319 38.0391 11.5738 38.0396C14.6036 38.0435 17.6343 38.0446 20.6641 38.0391C20.941 38.0385 21.0086 38.1089 21.0021 38.2811C20.9875 38.6644 20.9818 39.0489 21.0038 39.4317C21.016 39.6407 20.9085 39.6946 20.6096 39.693C19.1101 39.6836 17.6082 39.6886 16.1063 39.6886Z" fill="#9CC4F2"/>
<path d="M16.104 42.9815C14.6159 42.9815 13.1279 42.9766 11.6398 42.9854C11.345 42.987 11.2301 42.9375 11.2432 42.7263C11.2668 42.3435 11.2595 41.9591 11.2456 41.5757C11.2399 41.4063 11.3002 41.3315 11.5812 41.332C14.611 41.3375 17.6417 41.3375 20.6716 41.332C20.9542 41.3315 21.0112 41.4085 21.0047 41.5768C20.9916 41.9602 20.9835 42.3446 21.0071 42.7274C21.0202 42.9403 20.9021 42.987 20.6088 42.9854C19.1069 42.9771 17.6059 42.9815 16.104 42.9815Z" fill="#9CC4F2"/>
</svg>
