<svg width="48" height="48" viewBox="0 0 48 48" fill="none" xmlns="http://www.w3.org/2000/svg">
<path d="M23.9998 32.5619C23.2806 32.5619 22.5608 32.57 21.8416 32.5582C21.6056 32.5544 21.4138 32.6155 21.2199 32.7515C18.1662 34.8958 15.1083 37.0348 12.0493 39.1716C11.9476 39.2428 11.8394 39.4013 11.7249 39.3414C11.5896 39.2707 11.6652 39.0848 11.6652 38.951C11.6609 36.9469 11.6572 34.9429 11.6679 32.9389C11.6695 32.6562 11.6007 32.5533 11.3003 32.5394C9.03667 32.435 7.03303 30.4064 7.02078 28.1239C6.99307 22.9066 6.99307 17.6893 7.02078 12.4721C7.03303 10.1585 9.0633 8.09132 11.3679 8.05651C14.6107 8.00724 17.8546 8.03616 21.0979 8.03241C22.0648 8.03134 23.0323 8.03187 23.9992 8.03187C24.0019 10.3824 24.0045 12.7329 24.0072 15.0834C23.866 15.0887 23.7249 15.0978 23.5842 15.0978C21.2263 15.0989 18.8679 15.1048 16.51 15.0909C16.1828 15.0887 16.0438 15.1487 16.0763 15.5102C16.1109 15.8985 16.1104 16.2942 16.0763 16.6825C16.0449 17.0392 16.1749 17.1056 16.5068 17.104C19.0064 17.0922 21.5055 17.1018 24.0051 17.1045C24.0061 17.8543 24.0067 18.604 24.0077 19.3538C23.8666 19.3592 23.7254 19.3683 23.5847 19.3683C21.2268 19.3693 18.8684 19.3752 16.5105 19.3613C16.1834 19.3592 16.0443 19.4191 16.0768 19.7806C16.1115 20.1689 16.1109 20.5647 16.0768 20.9529C16.0454 21.3096 16.1754 21.376 16.5073 21.3744C19.0069 21.3626 21.506 21.3723 24.0056 21.3749C24.0067 22.1247 24.0072 22.8745 24.0083 23.6242C23.8671 23.6296 23.7259 23.6392 23.5853 23.6392C21.2268 23.6403 18.8689 23.6462 16.511 23.6323C16.1839 23.6301 16.0449 23.6896 16.0774 24.0511C16.112 24.4393 16.1115 24.8351 16.0774 25.2234C16.0459 25.58 16.1759 25.6464 16.5073 25.6448C19.0069 25.6331 21.5065 25.6427 24.0056 25.6454C24.0035 27.9504 24.0014 30.2564 23.9998 32.5619Z" fill="#FEA920"/>
<path d="M24.0095 15.0842C24.0068 12.7337 24.0041 10.3832 24.0015 8.03267C24.107 8.02464 24.2119 8.01018 24.3174 8.01018C28.2453 8.00589 32.1737 8.00054 36.1021 8C37.2417 8 38.2906 8.29562 39.1936 9.02235C40.3145 9.92474 40.9693 11.1062 40.9778 12.5419C41.0097 17.7126 41.0097 22.8838 40.9815 28.0545C40.9687 30.3798 39.0413 32.3742 36.7366 32.5504C36.3493 32.5798 35.9599 32.5954 35.571 32.5959C31.9377 32.5991 28.3039 32.5986 24.6706 32.5964C24.4474 32.5964 24.2247 32.5745 24.0015 32.5627C24.0031 30.2572 24.0047 27.9511 24.0063 25.6456L24.0015 25.6258C26.5496 25.6296 12.68 25.4566 15.2281 25.4678C15.4572 25.4689 15.5046 25.3821 15.4998 25.1765C15.4881 24.7025 15.4855 24.2275 15.5009 23.7536C15.5089 23.5147 15.4226 23.4542 15.1951 23.4558C13.8739 23.4654 28.9698 23.6325 27.6486 23.6352C26.434 23.6373 25.2193 23.6448 24.0047 23.6497L24.01 23.6245C24.0089 22.8747 24.0084 22.125 24.0073 21.3752L24.0025 21.3554C26.5624 21.3591 12.7046 21.1872 15.2644 21.1958C15.4599 21.1963 15.502 21.1155 15.4993 20.9414C15.4919 20.4551 15.486 19.9689 15.5014 19.4831C15.5089 19.2443 15.4231 19.1822 15.1951 19.1854C14.4168 19.1977 30.055 19.3626 29.2767 19.3642C27.5192 19.3685 25.7622 19.3739 24.0047 19.3792L24.01 19.3541C24.0089 18.6043 24.0084 17.8545 24.0073 17.1048L24.0025 17.085C26.5624 17.0887 12.7046 16.9168 15.2644 16.9254C15.4599 16.9259 15.502 16.845 15.4993 16.671C15.4919 16.1847 15.486 15.6984 15.5014 15.2127C15.5089 14.9738 15.4231 14.9117 15.1951 14.9149C14.4168 14.9273 30.055 15.0922 29.2767 15.0938C27.5192 15.0981 25.7622 15.1035 24.0047 15.1088L24.0095 15.0842Z" fill="#FEA920"/>
<path d="M23.2271 23.9852C23.2216 23.9924 23.2106 23.9916 23.2062 23.9838C21.2538 20.52 19.3075 17.0529 17.3429 13.597C17.0816 13.1373 17.0376 12.9243 17.3728 12.7926C17.7376 12.649 18.0827 12.4551 18.3936 12.2162C18.683 11.9934 18.8436 12.1571 19.0985 12.6117C20.9332 15.8899 22.7856 19.1591 24.6333 22.4299C24.74 22.6188 24.8545 22.8033 24.9651 22.9891C24.971 22.9991 24.9652 23.0119 24.9538 23.0141C24.952 23.0144 24.9503 23.0151 24.9488 23.0159C24.3763 23.3382 23.8034 23.6597 23.2309 23.9819C23.2294 23.9827 23.2281 23.9839 23.2271 23.9852Z" fill="url(#paint0_linear_2050_72349)"/>
<path d="M27.9984 19.9334C28.0011 17.4338 28.0107 14.9341 27.9989 12.4351C27.9973 12.1032 28.0637 11.9732 28.4204 12.0046C28.8087 12.0387 29.2044 12.0392 29.5927 12.0046C29.9542 11.9721 30.0136 12.1112 30.012 12.4383C29.9981 14.7962 30.004 17.1546 30.0051 19.5125C30.0051 19.6537 30.0147 19.7949 30.0195 19.9355L29.9944 19.9302C29.3356 19.9297 28.6769 19.9286 28.0182 19.9281L27.9984 19.9334Z" fill="#FEFEFE"/>
<path d="M16.9984 19.9329C17.0011 17.4333 17.0107 14.9337 16.9989 12.4346C16.9973 12.1027 17.0637 11.9727 17.4204 12.0047C17.8087 12.0388 18.2044 12.0393 18.5927 12.0047C18.9542 11.9722 19.0136 12.1118 19.0115 12.4383C18.9976 14.7963 19.0035 17.1547 19.0045 19.5126C19.0045 19.6538 19.0142 19.795 19.0195 19.9356L18.9944 19.9303C18.3356 19.9297 17.6769 19.9287 17.0182 19.9281L16.9984 19.9329Z" fill="#FEFEFE"/>
<path d="M23.7439 23.8541C23.1688 23.5329 22.5941 23.2109 22.0191 22.8896C23.3608 20.4709 24.7012 18.0524 26.0433 15.634C26.638 14.5631 27.2424 13.4967 27.8277 12.4206C27.9991 12.1052 28.1195 12.0178 28.3224 12.1443C28.735 12.4019 29.1647 12.6307 29.5948 12.8568C29.7493 12.9381 29.7878 13.0354 29.6371 13.3036C27.6693 16.8189 25.7071 20.3373 23.7439 23.8541Z" fill="url(#paint1_linear_2050_72349)"/>
<path d="M28.0156 19.9219C28.6743 19.9224 29.333 19.9235 29.9917 19.924C29.9966 21.6815 30.0025 23.4385 30.0067 25.196C30.0083 25.9743 29.9992 26.7532 30.0116 27.5315C30.0153 27.7596 29.9527 27.8453 29.7138 27.8379C29.2281 27.8224 28.7413 27.8283 28.2555 27.8357C28.0809 27.8384 28.0001 27.7963 28.0011 27.6008C28.0097 25.041 28.0118 22.4812 28.0156 19.9219Z" fill="#E0E0E1"/>
<path d="M17.0196 19.9258C17.6783 19.9263 18.3371 19.9274 18.9958 19.9279C19.0006 21.1426 19.0081 22.3572 19.0102 23.5719C19.0129 24.8931 19.006 26.2143 19.0156 27.5354C19.0172 27.7635 18.9567 27.8492 18.7178 27.8412C18.2439 27.8258 17.7688 27.829 17.2949 27.8402C17.0892 27.845 17.0025 27.7981 17.0036 27.5685C17.0148 25.0214 17.0159 22.4733 17.0196 19.9258Z" fill="#E0E0E1"/>
<defs>
<linearGradient id="paint0_linear_2050_72349" x1="18" y1="13" x2="24" y2="23.5" gradientUnits="userSpaceOnUse">
<stop stop-color="#FEFEFE"/>
<stop offset="1" stop-color="#FEFEFE" stop-opacity="0"/>
</linearGradient>
<linearGradient id="paint1_linear_2050_72349" x1="28" y1="13.5" x2="23" y2="24" gradientUnits="userSpaceOnUse">
<stop stop-color="#FEFEFE"/>
<stop offset="1" stop-color="#FEFEFE" stop-opacity="0"/>
</linearGradient>
</defs>
</svg>
