<svg width="63" height="48" viewBox="0 0 63 48" fill="none" xmlns="http://www.w3.org/2000/svg">
<path d="M62.3076 17.6842C62.0862 17.9459 61.8781 18.2211 61.6365 18.4627C60.066 20.0466 58.4821 21.6238 56.9049 23.201C56.18 23.9326 55.7237 23.9259 54.9854 23.1876C54.8109 23.0131 54.6297 22.8453 54.4552 22.6775C53.0256 21.2413 51.5894 19.805 50.1598 18.362C49.6229 17.8251 49.0927 17.2815 48.5625 16.7446C48.6497 16.6439 48.737 16.5432 48.831 16.4492C50.8914 14.3888 52.9451 12.3351 55.0055 10.2747C55.0995 10.1807 55.18 10.0733 55.2673 9.97266C55.368 10.0599 55.4753 10.1404 55.5693 10.2344C57.5962 12.2546 59.623 14.2814 61.6365 16.3083C61.8781 16.5499 62.0794 16.8251 62.3009 17.0868C62.3076 17.2815 62.3076 17.4828 62.3076 17.6842Z" fill="#00C1F3"/>
<path d="M55.2751 9.96653C55.1879 10.0672 55.1073 10.1746 55.0134 10.2685C52.9529 12.329 50.8992 14.3827 48.8388 16.4431C48.7448 16.5371 48.6576 16.6378 48.5703 16.7384C48.5502 16.7384 48.5301 16.7384 48.5166 16.7317C48.4831 16.6847 48.4562 16.6378 48.416 16.5975C46.5703 14.7451 44.7179 12.8995 42.8723 11.0538C42.8051 10.9867 42.7112 10.9464 42.6307 10.886C42.4293 10.6645 42.2414 10.4363 42.0333 10.2216C41.4628 9.63767 41.4628 9.08733 42.0333 8.51014C43.6911 6.8524 45.3421 5.19466 47.0065 3.54363C47.2146 3.33557 47.4763 3.18121 47.7113 3C47.8656 3 48.0267 3 48.1811 3C48.416 3.18121 48.6777 3.33557 48.8858 3.53692C50.9395 5.57721 52.9865 7.63093 55.0335 9.68465C55.114 9.78532 55.1946 9.87928 55.2751 9.96653Z" fill="#AFE2FA"/>
<path d="M5.22385 41.5945L28.289 37.0014" stroke="#DB226E" stroke-width="2" stroke-linecap="round"/>
<path d="M48.5106 16.7305C48.5307 16.7372 48.5508 16.7372 48.5643 16.7372C49.0945 17.2741 49.6247 17.8177 50.1616 18.3547C51.5911 19.7909 53.0274 21.2339 54.457 22.6701C53.92 23.7104 53.3831 24.744 52.8462 25.7843C51.5375 28.3414 50.222 30.8984 48.9401 33.4689C48.6716 34.0059 48.2958 34.2676 47.7186 34.3616C43.9468 34.9522 40.1816 35.5629 36.4097 36.1602C34.1681 36.516 31.9265 36.8784 29.6848 37.2341C29.5842 37.2475 29.4835 37.2408 29.3828 37.2475C29.6043 37.0663 29.8459 36.9052 30.054 36.7039C34.4097 32.3548 38.7588 28.0058 43.1011 23.6567C43.2689 23.4889 43.4233 23.395 43.6716 23.3816C44.3562 23.3614 44.8327 22.9856 45.0743 22.3681C45.3226 21.7305 45.2152 21.1198 44.7119 20.6231C44.7052 20.603 44.7052 20.5829 44.6984 20.5627C45.6381 19.6298 46.5777 18.7036 47.5173 17.764C47.8528 17.4218 48.1817 17.0728 48.5106 16.7305Z" fill="#FBA92D"/>
<path d="M48.5146 16.7307C48.1858 17.073 47.8569 17.422 47.5213 17.7576C46.5817 18.6905 45.6421 19.6234 44.7025 20.5563C44.6287 20.5093 44.5616 20.4556 44.4877 20.4086C43.9575 20.073 43.3938 20.0261 42.8367 20.308C42.2998 20.5764 41.9843 21.0328 41.9575 21.6368C41.9508 21.8852 41.8568 22.0462 41.6957 22.214C37.3467 26.5429 33.0044 30.8853 28.6687 35.2343C28.454 35.4491 28.2728 35.7108 28.0781 35.9524C28.2258 34.9994 28.3667 34.0397 28.5211 33.0866C28.7963 31.3148 29.0781 29.5497 29.36 27.7846C29.6083 26.2141 29.8634 24.6436 30.1184 23.0731C30.4003 21.308 30.7023 19.5428 30.9574 17.771C31.0513 17.0931 31.3265 16.6569 31.9641 16.3347C35.4541 14.5898 38.9239 12.8045 42.4005 11.0327C42.481 10.9924 42.5548 10.9454 42.6354 10.8984C42.7159 10.9521 42.8099 10.9924 42.877 11.0662C44.7293 12.9119 46.575 14.7643 48.4207 16.6099C48.4542 16.6368 48.4878 16.6905 48.5146 16.7307Z" fill="#FFE080"/>
<path d="M44.7092 20.6172C45.2193 21.1205 45.3266 21.7246 45.0716 22.3622C44.83 22.9796 44.3535 23.3555 43.6689 23.3756C43.4206 23.3823 43.2595 23.483 43.0984 23.6508C38.7561 27.9998 34.407 32.3489 30.058 36.6979C29.8566 36.8993 29.615 37.0603 29.3868 37.2416C28.9774 37.4026 28.6419 37.3154 28.3398 36.9798C28.4204 36.8859 28.4942 36.7919 28.5815 36.7046C33.8567 31.4294 39.1319 26.1542 44.4072 20.8789C44.5011 20.785 44.6085 20.7044 44.7092 20.6172Z" fill="#DB226E"/>
<path d="M44.7109 20.6189C44.6102 20.7061 44.5028 20.7867 44.4089 20.8806C39.1336 26.1559 33.8584 31.4311 28.5832 36.7063C28.4959 36.7936 28.4221 36.8875 28.3416 36.9815C28.0395 36.6929 27.9053 36.364 28.0731 35.9546C28.2677 35.713 28.4422 35.458 28.6637 35.2365C32.9993 30.8875 37.3417 26.5451 41.6907 22.2095C41.8585 22.0417 41.9458 21.8873 41.9525 21.6323C41.9726 21.0283 42.288 20.5719 42.8317 20.3034C43.3954 20.0215 43.9525 20.0752 44.4827 20.4041C44.5565 20.4511 44.6304 20.5048 44.6975 20.5518C44.7042 20.5786 44.7109 20.5987 44.7109 20.6189Z" fill="#EE2B79"/>
</svg>
