<svg width="50" height="48" viewBox="0 0 50 48" fill="none" xmlns="http://www.w3.org/2000/svg">
<path d="M0.610665 37.9992C0.136348 37.7814 -0.0149367 37.4072 0.0011418 36.8971C0.0296447 36.0237 -0.00470494 35.1482 0.0135661 34.2741C0.0829962 30.9539 1.28889 28.1051 3.61808 25.743C5.01034 24.3317 6.67154 23.3385 8.55419 22.7188C8.70694 22.7304 8.82095 22.8291 8.94739 22.8985C9.99615 23.4752 11.1121 23.7887 12.3151 23.7704L12.3129 23.7902C12.3129 28.5268 12.3129 33.2633 12.3136 37.9999C8.41241 37.9992 4.5119 37.9992 0.610665 37.9992Z" fill="#49ABFE"/>
<path d="M12.3132 37.9977C12.3132 33.2611 12.3132 28.5245 12.3125 23.7879C12.8855 23.7857 13.449 23.7105 14.0066 23.576C14.7455 23.3977 15.4157 23.0629 16.0727 22.6953C16.6888 22.9321 17.31 23.1565 17.8976 23.4627C17.8603 23.5139 17.8252 23.5672 17.785 23.6154C16.615 25.0369 16.1947 26.6536 16.5265 28.4631C16.9614 30.8318 19.0596 32.7605 21.4517 33.0316C22.5107 33.1515 23.5156 32.9848 24.4935 32.5902C24.7025 34.114 24.5885 35.6458 24.6162 37.174C24.6243 37.5987 24.3604 37.8289 24.0155 37.997C20.115 37.9977 16.2145 37.9977 12.3132 37.9977Z" fill="#1790E6"/>
<path d="M16.0727 22.6987C15.4157 23.0655 14.7462 23.401 14.0066 23.5793C13.449 23.7138 12.8855 23.7898 12.3125 23.7913L12.3147 23.7715C12.3147 19.1833 12.3154 14.5958 12.3154 10.0083C13.954 9.9893 15.4018 10.5257 16.6647 11.5482C17.8998 12.548 18.6964 13.8372 19.0392 15.391C19.4411 17.2122 19.1393 18.9217 18.1746 20.5185C17.6396 21.4058 16.9022 22.0964 16.0727 22.6987Z" fill="#FEC796"/>
<path d="M12.3177 10.0065C12.3177 14.594 12.317 19.1823 12.317 23.7698C11.114 23.7888 9.99802 23.4745 8.94927 22.8979C8.82283 22.8284 8.70882 22.7298 8.55607 22.7181C8.26666 22.3907 7.88077 22.1773 7.5687 21.871C7.11193 21.4216 6.70631 20.9385 6.38255 20.3882C5.68678 19.2057 5.35937 17.923 5.43172 16.5556C5.50773 15.1224 5.97839 13.8223 6.86709 12.6836C7.47954 11.8994 8.21988 11.2636 9.09836 10.7988C9.85916 10.3961 10.6697 10.1403 11.5306 10.0504C11.793 10.0226 12.0532 9.98461 12.3177 10.0065Z" fill="#FED4B5"/>
<path d="M12.6107 37.9992C12.1363 37.7814 11.9851 37.4072 12.0011 36.8971C12.0296 36.0237 11.9953 35.1482 12.0136 34.2741C12.083 30.9539 13.2889 28.1051 15.6181 25.743C17.0103 24.3317 18.6715 23.3385 20.5542 22.7188C20.7069 22.7304 20.821 22.8291 20.9474 22.8985C21.9961 23.4752 23.1121 23.7887 24.3151 23.7704L24.3129 23.7902C24.3129 28.5268 24.3129 33.2633 24.3136 37.9999C20.4124 37.9992 16.5119 37.9992 12.6107 37.9992Z" fill="#49ABFE"/>
<path d="M24.3132 37.9977C24.3132 33.2611 24.3132 28.5245 24.3125 23.7879C24.8855 23.7857 25.449 23.7105 26.0066 23.576C26.7455 23.3977 27.4157 23.0629 28.0727 22.6953C28.6888 22.9321 29.31 23.1565 29.8976 23.4627C29.8603 23.5139 29.8252 23.5672 29.785 23.6154C28.615 25.0369 28.1947 26.6536 28.5265 28.4631C28.9614 30.8318 31.0596 32.7605 33.4517 33.0316C34.5107 33.1515 35.5156 32.9848 36.4935 32.5902C36.7025 34.114 36.5885 35.6458 36.6162 37.174C36.6243 37.5987 36.3604 37.8289 36.0155 37.997C32.115 37.9977 28.2145 37.9977 24.3132 37.9977Z" fill="#1790E6"/>
<path d="M28.0727 22.6987C27.4157 23.0655 26.7462 23.401 26.0066 23.5793C25.449 23.7138 24.8855 23.7898 24.3125 23.7913L24.3147 23.7715C24.3147 19.1833 24.3154 14.5958 24.3154 10.0083C25.954 9.9893 27.4018 10.5257 28.6647 11.5482C29.8998 12.548 30.6964 13.8372 31.0392 15.391C31.4411 17.2122 31.1393 18.9217 30.1746 20.5185C29.6396 21.4058 28.9022 22.0964 28.0727 22.6987Z" fill="#FEC796"/>
<path d="M24.3177 10.0065C24.3177 14.594 24.317 19.1823 24.317 23.7698C23.114 23.7888 21.998 23.4745 20.9493 22.8979C20.8228 22.8284 20.7088 22.7298 20.5561 22.7181C20.2667 22.3907 19.8808 22.1773 19.5687 21.871C19.1119 21.4216 18.7063 20.9385 18.3825 20.3882C17.6868 19.2057 17.3594 17.923 17.4317 16.5556C17.5077 15.1224 17.9784 13.8223 18.8671 12.6836C19.4795 11.8994 20.2199 11.2636 21.0984 10.7988C21.8592 10.3961 22.6697 10.1403 23.5306 10.0504C23.793 10.0226 24.0532 9.98461 24.3177 10.0065Z" fill="#FED4B5"/>
<ellipse cx="36" cy="27" rx="4" ry="3" fill="#FEC71F"/>
<path d="M39.2606 34.3463C37.8973 34.8965 36.4963 35.1288 35.0199 34.9617C31.684 34.5837 28.7598 31.8948 28.1535 28.5925C27.6899 26.0697 28.2768 23.8159 29.9081 21.8341C29.9641 21.7659 30.013 21.6925 30.065 21.6212C31.0513 20.6237 32.1813 19.8595 33.5211 19.403C37.9748 17.8859 42.998 20.8162 43.8539 25.4421C44.5304 29.1 42.8207 32.5429 39.496 34.22C39.4155 34.2587 39.3391 34.3035 39.2606 34.3463ZM35.9971 30.448C36.6013 30.45 37.1128 29.9671 37.1413 29.3496C37.1566 29.0327 37.1535 28.7148 37.1423 28.3969C37.1362 28.2135 37.2045 28.1524 37.3838 28.1585C37.7007 28.1687 38.0196 28.1728 38.3365 28.1575C38.9539 28.1279 39.4359 27.6144 39.4318 27.0102C39.4277 26.4019 38.9458 25.9036 38.3232 25.8772C38.0318 25.8649 37.7384 25.8619 37.447 25.8782C37.2228 25.8904 37.1219 25.8344 37.1403 25.5868C37.1617 25.3086 37.1505 25.0284 37.1433 24.7492C37.127 24.0767 36.6278 23.5795 35.9848 23.5877C35.3592 23.5958 34.8752 24.089 34.8589 24.7421C34.8518 25.0467 34.8508 25.3524 34.86 25.6561C34.8651 25.8221 34.8029 25.8802 34.6389 25.8761C34.322 25.868 34.0031 25.8649 33.6862 25.8772C33.0606 25.9006 32.5786 26.3937 32.5705 27.003C32.5633 27.6256 33.0545 28.132 33.6954 28.1605C33.7718 28.1636 33.8482 28.1615 33.9236 28.1615C34.8538 28.1626 34.8539 28.1626 34.8559 29.1132C34.8559 29.2151 34.8508 29.317 34.861 29.4179C34.9242 29.9935 35.4234 30.4449 35.9971 30.448Z" fill="#FEC71F"/>
<rect x="37" y="23" width="8" height="2" rx="1" transform="rotate(90 37 23)" fill="#5E6786"/>
<rect x="32" y="26" width="8" height="2" rx="1" fill="#5E6786"/>
</svg>
