<svg width="48" height="48" viewBox="0 0 48 48" fill="none" xmlns="http://www.w3.org/2000/svg">
<path d="M37.342 38C35.9022 38 34.4624 38 33.0233 38C33.0233 33.3729 33.0233 28.7452 33.0233 24.1181C33.0233 23.599 32.7041 23.2397 32.2251 23.2397C29.4834 23.2384 26.7417 23.2411 24 23.2425L24.0062 23.2315C24.0055 21.7415 24.0048 20.2508 24.0041 18.7608C25.5984 18.7587 27.1926 18.7566 28.7861 18.7546C29.4312 18.7539 29.7428 18.4453 29.7428 17.8049C29.7435 15.2089 29.7428 12.6121 29.7428 10.0161C30.7057 10.012 31.6692 10.0195 32.6321 10.0003C32.9979 9.99278 33.2717 10.1176 33.5249 10.3733C34.8563 11.7166 36.1953 13.0517 37.5342 14.386C37.7147 14.5657 37.8849 14.7494 37.9974 14.9812C37.9974 22.4354 37.9974 29.8896 37.9974 37.3431C37.8966 37.6791 37.6769 37.8978 37.342 38Z" fill="#2891FB"/>
<path d="M24.005 18.7599C24.0057 20.25 24.0064 21.7407 24.007 23.2307C21.3491 23.2327 18.6918 23.2348 16.0338 23.2369C15.2672 23.2375 14.9824 23.5228 14.9824 24.2908C14.9824 28.8602 14.9824 33.4297 14.9824 37.9992C13.5248 37.9992 12.0664 37.9992 10.6087 37.9992C10.1359 37.7784 9.99932 37.4019 10 36.8925C10.0103 28.2939 10.0076 19.6959 10.0076 11.0973C10.0076 11.0061 10.0048 10.9149 10.0089 10.8244C10.0309 10.3574 10.363 10.0125 10.8325 10.0105C12.2167 10.0036 13.6009 10.0118 14.9852 10.0146C14.9845 12.6278 14.9824 15.2416 14.9838 17.8548C14.9838 18.4096 15.3166 18.7524 15.8609 18.7524C18.5744 18.7538 21.288 18.751 24.0009 18.7497L24.005 18.7599Z" fill="#72A2FB"/>
<path d="M14.9844 37.999C14.9844 33.4295 14.9844 28.86 14.9844 24.2906C14.9844 23.5219 15.2692 23.2373 16.0358 23.2366C18.6937 23.2346 21.351 23.2325 24.009 23.2305L24.0028 23.2414C24.0035 24.3296 24.0049 25.4172 24.0056 26.5053C22.5479 26.5095 21.0909 26.5129 19.6333 26.517C19.4329 26.5177 19.2318 26.5081 19.0321 26.5225C18.5963 26.5547 18.2662 26.912 18.2662 27.3371C18.2662 27.7622 18.5963 28.116 19.0321 28.1531C19.1405 28.162 19.2503 28.1572 19.3601 28.1572C20.9084 28.1613 22.4573 28.1654 24.0056 28.1688C24.0056 28.7078 24.0056 29.2468 24.0056 29.7857C22.5479 29.7898 21.0909 29.7933 19.6333 29.7974C19.4329 29.7981 19.2318 29.7885 19.0321 29.8029C18.5963 29.8351 18.2662 30.1923 18.2662 30.6175C18.2662 31.0426 18.5963 31.3964 19.0321 31.4334C19.1405 31.4424 19.2503 31.4376 19.3601 31.4376C20.9084 31.4417 22.4573 31.4458 24.0056 31.4492C24.0056 31.9882 24.0056 32.5271 24.0056 33.0661C22.5479 33.0702 21.0909 33.0736 19.6333 33.0777C19.4329 33.0784 19.2318 33.0688 19.0321 33.0832C18.5963 33.1155 18.2662 33.4727 18.2662 33.8978C18.2662 34.323 18.5963 34.6768 19.0321 34.7138C19.1405 34.7227 19.2503 34.7179 19.3601 34.7179C20.9084 34.722 22.4573 34.7261 24.0056 34.7296C24.0056 35.8191 24.0049 36.9087 24.0049 37.9983C20.9983 37.999 17.9917 37.999 14.9844 37.999Z" fill="#F8F8F8"/>
<path d="M24.0027 29.7866C24.0027 29.2477 24.0027 28.7087 24.0027 28.1698L24.0021 28.1478C25.6594 28.1506 27.3168 28.1588 28.9742 28.1533C29.4045 28.1519 29.7373 27.783 29.7428 27.351C29.7483 26.904 29.4155 26.5234 28.9742 26.522C27.3168 26.5159 25.6594 26.5241 24.0021 26.5275L24.0027 26.5056C24.0021 25.4174 24.0007 24.3299 24 23.2417C26.7417 23.2403 29.4834 23.2369 32.2251 23.2389C32.7041 23.2389 33.0233 23.5989 33.0233 24.1173C33.0239 28.7444 33.0233 33.3721 33.0233 37.9992C30.016 37.9992 27.0094 37.9992 24.0021 37.9992C24.0021 36.9096 24.0027 35.8201 24.0027 34.7305L24.0021 34.7085C25.6594 34.7113 27.3168 34.7195 28.9742 34.714C29.4045 34.7127 29.7373 34.3438 29.7428 33.9118C29.7483 33.4647 29.4155 33.0841 28.9742 33.0828C27.3168 33.0766 25.6594 33.0848 24.0021 33.0882L24.0027 33.0663C24.0027 32.5274 24.0027 31.9884 24.0027 31.4494L24.0021 31.4275C25.6594 31.4302 27.3168 31.4385 28.9742 31.433C29.4045 31.4316 29.7373 31.0627 29.7428 30.6307C29.7483 30.1836 29.4155 29.8031 28.9742 29.8017C27.3168 29.7955 25.6594 29.8038 24.0021 29.8072L24.0027 29.7866Z" fill="#DEE3E9"/>
<path d="M24.0041 10.0156C25.9168 10.0156 27.8301 10.0156 29.7428 10.0156C29.7428 12.6117 29.7435 15.2084 29.7428 17.8044C29.7428 18.4449 29.4312 18.7534 28.7861 18.7541C27.1919 18.7562 25.5977 18.7582 24.0041 18.7603L24 18.75C24.0021 15.8392 24.0027 12.9278 24.0041 10.0156Z" fill="#3545E2"/>
<path d="M24.006 10.0154C24.0047 12.9269 24.0033 15.839 24.0019 18.7505C21.2883 18.7519 18.5748 18.7546 15.8619 18.7525C15.3177 18.7525 14.9848 18.4097 14.9848 17.855C14.9835 15.2418 14.9855 12.6286 14.9862 10.0154C16.8906 10.0127 18.7944 10.0079 20.6988 10.0079C21.8017 10.0072 22.9039 10.0127 24.006 10.0154Z" fill="#5458E9"/>
<path d="M24.005 28.1713C22.4568 28.1672 20.9078 28.1638 19.3596 28.1597C19.2504 28.1597 19.1406 28.1645 19.0315 28.1555C18.5957 28.1185 18.2656 27.7647 18.2656 27.3396C18.2656 26.9144 18.5957 26.5572 19.0315 26.525C19.2312 26.5106 19.4323 26.5202 19.6327 26.5195C21.0904 26.5154 22.5473 26.5112 24.005 26.5078L24.0043 26.5298C24.0043 27.0701 24.0043 27.6104 24.0043 28.1501L24.005 28.1713Z" fill="#F8F8F8"/>
<path d="M24.005 31.4487C22.4568 31.4445 20.9078 31.4411 19.3596 31.437C19.2504 31.437 19.1406 31.4418 19.0315 31.4329C18.5957 31.3959 18.2656 31.042 18.2656 30.6169C18.2656 30.1918 18.5957 29.8345 19.0315 29.8023C19.2312 29.7879 19.4323 29.7975 19.6327 29.7968C21.0904 29.7927 22.5473 29.7886 24.005 29.7852L24.0043 29.8071C24.0043 30.3474 24.0043 30.8878 24.0043 31.4274L24.005 31.4487Z" fill="#F8F8F8"/>
<path d="M24.005 34.7299C22.4568 34.7258 20.9078 34.7224 19.3596 34.7182C19.2504 34.7182 19.1406 34.723 19.0315 34.7141C18.5957 34.6771 18.2656 34.3233 18.2656 33.8982C18.2656 33.473 18.5957 33.1158 19.0315 33.0835C19.2312 33.0691 19.4323 33.0787 19.6327 33.0781C21.0904 33.0739 22.5473 33.0698 24.005 33.0664L24.0043 33.0883C24.0043 33.6287 24.0043 34.169 24.0043 34.7086L24.005 34.7299Z" fill="#F8F8F8"/>
<path d="M24.0039 28.1472C24.0039 27.6068 24.0039 27.0665 24.0039 26.5269C25.6613 26.5241 27.3187 26.5159 28.976 26.5214C29.4173 26.5227 29.7495 26.9033 29.7447 27.3504C29.7399 27.7824 29.407 28.1513 28.976 28.1526C27.3187 28.1581 25.6613 28.1499 24.0039 28.1472Z" fill="#DEE3E9"/>
<path d="M24.0039 31.4284C24.0039 30.8881 24.0039 30.3478 24.0039 29.8081C25.6613 29.8054 27.3187 29.7971 28.976 29.8026C29.4173 29.804 29.7495 30.1846 29.7447 30.6316C29.7399 31.0636 29.407 31.4325 28.976 31.4339C27.3187 31.4394 25.6613 31.4312 24.0039 31.4284Z" fill="#DEE3E9"/>
<path d="M24.0039 34.7097C24.0039 34.1693 24.0039 33.629 24.0039 33.0894C25.6613 33.0866 27.3187 33.0784 28.976 33.0839C29.4173 33.0852 29.7495 33.4658 29.7447 33.9129C29.7399 34.3449 29.407 34.7138 28.976 34.7151C27.3187 34.7206 25.6613 34.7124 24.0039 34.7097Z" fill="#DEE3E9"/>
<path d="M19.1525 27.7467C18.9581 27.6494 18.6975 27.6008 18.3708 27.6008C17.8653 27.6008 17.6125 27.7875 17.6125 28.1608C17.6125 28.3397 17.77 28.5283 18.085 28.7267C18.3456 28.8939 18.5497 29.0261 18.6975 29.1233C18.8453 29.2206 18.9347 29.2847 18.9658 29.3158C19.2808 29.5919 19.4383 29.9108 19.4383 30.2725C19.4383 30.6769 19.2828 30.9939 18.9717 31.2233C18.7072 31.4178 18.3903 31.515 18.0208 31.515C17.6514 31.515 17.3131 31.4469 17.0058 31.3108L17.0817 30.6633C17.3733 30.8267 17.6942 30.9083 18.0442 30.9083C18.5614 30.9083 18.82 30.6808 18.82 30.2258C18.82 30.0469 18.6625 29.8525 18.3475 29.6425C18.0636 29.4519 17.8478 29.3061 17.7 29.205C17.5561 29.1039 17.4783 29.0494 17.4667 29.0417C17.1556 28.7733 17 28.4797 17 28.1608C17 27.7992 17.14 27.5094 17.42 27.2917C17.6728 27.0972 17.9917 27 18.3767 27C18.6956 27 18.9892 27.0506 19.2575 27.1517L19.1525 27.7467Z" fill="black"/>
<path d="M22.6754 29.7125L21.9695 27.9158L21.2579 29.7125H22.6754ZM24.0287 31.4275H23.352L22.9087 30.3133H21.0187L20.5695 31.4275H19.8987L21.672 27.0758H22.3079L24.0287 31.4275Z" fill="black"/>
<path d="M28.0775 27.0875L26.4383 31.4042H25.8375L24.2333 27.0875H24.9216L26.1466 30.5992L27.4183 27.0875H28.0775Z" fill="black"/>
<path d="M30.9441 31.4275H28.7275V27.0758H30.88V27.6708H29.3633V28.8842H30.7983V29.4792H29.3633V30.8267H30.9441V31.4275Z" fill="black"/>
</svg>
