<svg width="48" height="48" viewBox="0 0 48 48" fill="none" xmlns="http://www.w3.org/2000/svg">
<path d="M11.4074 31.1367C12.0751 31.1705 12.7512 31.179 13.4189 31.255C13.8161 31.2973 14.1119 31.703 14.1204 32.0833C14.1288 32.489 13.8499 32.8439 13.4104 32.9453C13.2583 32.9792 13.1062 33.0214 12.9541 33.0214C11.9145 33.0299 10.875 33.0299 9.83544 33.0214C9.20158 33.0214 8.779 32.6918 8.74519 32.2016C8.70294 31.5931 9.10861 31.1874 9.80164 31.179C10.3341 31.1705 10.8665 31.179 11.399 31.179C11.4074 31.1621 11.4074 31.1536 11.4074 31.1367Z" fill="#CFDADE"/>
<path d="M18.6652 31C19.3329 31.0338 20.009 31.0423 20.6767 31.1183C21.0739 31.1606 21.3697 31.5663 21.3782 31.9466C21.3866 32.3522 21.1077 32.7072 20.6683 32.8086C20.5161 32.8424 20.364 32.8847 20.2119 32.8847C19.1723 32.8931 18.1328 32.8931 17.0933 32.8847C16.4594 32.8847 16.0368 32.5551 16.003 32.0649C15.9607 31.4564 16.3664 31.0507 17.0594 31.0423C17.5919 31.0338 18.1243 31.0423 18.6568 31.0423C18.6652 31.0254 18.6652 31.0169 18.6652 31Z" fill="#CFDADE"/>
<path d="M25.6652 31C26.3329 31.0338 27.009 31.0423 27.6767 31.1183C28.0739 31.1606 28.3697 31.5663 28.3782 31.9466C28.3866 32.3522 28.1077 32.7072 27.6683 32.8086C27.5161 32.8424 27.364 32.8847 27.2119 32.8847C26.1723 32.8931 25.1328 32.8931 24.0933 32.8847C23.4594 32.8847 23.0368 32.5551 23.003 32.0649C22.9607 31.4564 23.3664 31.0507 24.0594 31.0423C24.5919 31.0338 25.1243 31.0423 25.6568 31.0423C25.6652 31.0254 25.6652 31.0169 25.6652 31Z" fill="#CFDADE"/>
<path d="M11.3937 4.18382C10.819 4.18382 10.2443 4.18382 9.66963 4.18382C9.14564 4.18382 8.77377 3.87112 8.74841 3.41473C8.71461 2.87384 9.05267 2.43436 9.59357 2.41745C10.8275 2.3921 12.0614 2.3921 13.2953 2.41745C13.7517 2.4259 14.1489 2.94145 14.1151 3.37248C14.0729 3.82886 13.6926 4.17537 13.2024 4.17537C12.5939 4.18382 11.9938 4.18382 11.3937 4.18382Z" fill="#CED9DD"/>
<path d="M25.8049 4.18595C25.2471 4.18595 24.6809 4.1606 24.1231 4.1944C23.4976 4.23666 23.1596 3.82254 23.1173 3.34925C23.0666 2.80835 23.4976 2.42803 24.1315 2.41958C25.095 2.41113 26.0669 2.41958 27.0304 2.41958C27.2248 2.41958 27.4276 2.40268 27.622 2.42803C28.1629 2.47874 28.5094 2.88442 28.484 3.41686C28.4587 3.87325 28.0953 4.1944 27.5713 4.1944C26.9797 4.18595 26.3965 4.18595 25.8049 4.18595Z" fill="#CED9DD"/>
<path d="M3.35141 17.7146C3.35141 17.1399 3.35141 16.5652 3.35141 15.9821C3.35141 15.4243 3.69793 15.0186 4.17966 14.9932C4.66985 14.9679 5.10933 15.4074 5.11778 15.9736C5.13469 16.9117 5.12623 17.8583 5.12623 18.7964C5.12623 19.0331 5.14314 19.2782 5.11778 19.5148C5.06707 20.0642 4.65295 20.4022 4.11205 20.3684C3.65567 20.3431 3.35141 19.9712 3.35141 19.4387C3.34296 18.8725 3.35141 18.2978 3.35141 17.7146Z" fill="#CED9DD"/>
<path d="M33.8887 17.7351C33.8887 18.3098 33.8887 18.8845 33.8887 19.4676C33.8887 19.9916 33.5676 20.3635 33.1112 20.3888C32.5872 20.4142 32.1393 20.093 32.1308 19.569C32.097 18.3436 32.097 17.1265 32.1308 15.9011C32.1393 15.3855 32.6295 14.963 33.0774 15.0306C33.6352 15.1151 33.9395 15.5039 33.9056 16.0194C33.8549 16.5772 33.8887 17.1604 33.8887 17.7351Z" fill="#CED9DD"/>
<path d="M3.34977 24.8926C3.34977 24.3179 3.34977 23.7432 3.34977 23.1685C3.34977 22.6192 3.67093 22.2557 4.14421 22.2388C4.70201 22.2219 5.10769 22.5854 5.11614 23.1601C5.13304 24.1573 5.12459 25.1462 5.11614 26.1435C5.11614 26.4224 5.10769 26.7013 5.04008 26.9717C4.93866 27.3858 4.50763 27.6478 4.12731 27.5971C3.67938 27.5295 3.35822 27.1914 3.35822 26.7435C3.34132 26.1181 3.34977 25.5011 3.34977 24.8926Z" fill="#CED9DD"/>
<path d="M32.1076 24.8926C32.1076 24.3179 32.1076 23.7432 32.1076 23.1685C32.1076 22.6192 32.4287 22.2557 32.902 22.2388C33.4598 22.2219 33.8655 22.5854 33.874 23.1601C33.8909 24.1573 33.8824 25.1462 33.874 26.1435C33.874 26.4224 33.8655 26.7013 33.7979 26.9717C33.6965 27.3858 33.2654 27.6478 32.8851 27.5971C32.4372 27.5295 32.116 27.1914 32.116 26.7435C32.0991 26.1181 32.1076 25.5011 32.1076 24.8926Z" fill="#CED9DD"/>
<path d="M18.5807 4.18382C18.006 4.18382 17.4313 4.19228 16.8566 4.18382C16.358 4.17537 15.9608 3.81196 15.927 3.33867C15.9016 2.89074 16.2904 2.4259 16.789 2.41745C18.006 2.3921 19.2315 2.3921 20.4485 2.41745C20.9218 2.4259 21.3444 2.90764 21.319 3.33022C21.2937 3.8035 20.8965 4.17537 20.3978 4.17537C19.7809 4.18382 19.1808 4.18382 18.5807 4.18382Z" fill="#CED9DD"/>
<path d="M3.35141 10.4918C3.35141 9.91706 3.35141 9.34235 3.35141 8.76765C3.35141 8.2352 3.73173 7.82953 4.21347 7.81262C4.6445 7.80417 5.10933 8.22675 5.11778 8.70004C5.13469 9.9086 5.13469 11.1172 5.11778 12.3173C5.10933 12.799 4.6445 13.2132 4.21347 13.2047C3.73173 13.1878 3.35141 12.7821 3.35141 12.2581C3.34296 11.6665 3.35141 11.0749 3.35141 10.4918Z" fill="#CED9DD"/>
<path d="M33.8845 10.5344C33.8845 11.1091 33.8845 11.6838 33.8845 12.2585C33.8845 12.7825 33.5042 13.1966 33.0225 13.2051C32.5914 13.222 32.1266 12.7994 32.1181 12.3176C32.1012 11.1091 32.1012 9.90051 32.1181 8.70039C32.1266 8.22711 32.5914 7.79608 33.0225 7.81298C33.5042 7.82988 33.8845 8.23556 33.8845 8.75955C33.8845 9.35116 33.8845 9.94277 33.8845 10.5344Z" fill="#CED9DD"/>
<path d="M3.35156 31.216C3.35156 30.9202 3.35156 30.6244 3.35156 30.3286C3.36001 29.8299 3.73188 29.4327 4.19672 29.4073C4.62774 29.382 5.07568 29.8046 5.11793 30.2778C5.14329 30.5567 5.05032 30.9286 5.194 31.0807C5.33767 31.2329 5.71799 31.1399 5.98844 31.1822C6.58005 31.2582 6.90966 31.6132 6.89275 32.1456C6.87585 32.6274 6.51244 32.9908 5.93773 33.0161C5.38838 33.0415 4.83903 33.0499 4.29813 33.0161C3.66427 32.9823 3.35156 32.6189 3.35156 31.9766C3.35156 31.7231 3.35156 31.4695 3.35156 31.216Z" fill="#CED9DD"/>
<path d="M32.0597 32.8906C31.7639 32.8906 31.4681 32.8906 31.1723 32.8906C30.6737 32.8822 30.2764 32.5103 30.2511 32.0455C30.2257 31.6144 30.6483 31.1665 31.1216 31.1243C31.4005 31.0989 31.7724 31.1919 31.9245 31.0482C32.0766 30.9045 31.9836 30.5242 32.0259 30.2537C32.102 29.6621 32.4569 29.3325 32.9894 29.3494C33.4711 29.3663 33.8345 29.7298 33.8599 30.3045C33.8852 30.8538 33.8937 31.4032 33.8599 31.9441C33.8261 32.5779 33.4627 32.8906 32.8204 32.8906C32.5668 32.8906 32.3133 32.8906 32.0597 32.8906Z" fill="#CED9DD"/>
<path d="M3.35004 4.20284C3.35004 3.92394 3.35004 3.63659 3.35004 3.35769C3.3585 2.80834 3.70501 2.42802 4.26281 2.41111C4.83751 2.39421 5.41222 2.39421 5.98692 2.41111C6.54472 2.43647 6.90814 2.83369 6.89124 3.36614C6.88279 3.85633 6.51937 4.17749 5.97847 4.18594C5.15867 4.19439 5.15867 4.19439 5.12487 5.01419C5.09106 5.78328 4.41494 6.24811 3.81488 5.86779C3.60359 5.73257 3.43456 5.42831 3.36695 5.17477C3.29088 4.87051 3.35004 4.53245 3.35004 4.20284Z" fill="#CED9DD"/>
<path d="M33.8851 4.25355C33.8851 4.50709 33.8597 4.76064 33.8935 5.01419C33.9527 5.52973 33.6315 5.9185 33.0737 6.00302C32.6427 6.07063 32.2117 5.66496 32.1272 5.17477C32.1187 5.10715 32.1187 5.03109 32.1187 4.96348C32.1018 4.19439 32.1018 4.19439 31.2989 4.18594C30.7158 4.17749 30.3523 3.86478 30.3439 3.35769C30.3354 2.82524 30.6904 2.42802 31.2567 2.41111C31.8314 2.39421 32.4061 2.39421 32.9808 2.41111C33.5386 2.42802 33.8766 2.80834 33.8851 3.36614C33.8851 3.66194 33.8851 3.95775 33.8851 4.25355Z" fill="#CED9DD"/>
<path d="M31.3667 47C31.1048 46.8901 31.0044 46.6998 31.0044 46.4208C31.0131 44.603 31.0087 42.7893 31.0087 40.9715C31.0087 40.8869 31.0044 40.8024 31 40.7178C31 40.405 31 40.0922 31 39.7793C31.0044 39.6863 31.0087 39.5975 31.0087 39.5045C31.0087 36.2197 31.0087 32.9391 31.0087 29.6543C31.0087 29.5613 31.0044 29.4725 31.0175 29.3795C31.0611 29.0667 31.4104 28.9018 31.6898 29.0624C31.7684 29.1089 31.8426 29.1724 31.9081 29.2358C35.8635 33.0617 39.8145 36.8877 43.7611 40.7221C43.8703 40.8278 43.962 40.9842 43.9925 41.1279C44.0362 41.3308 43.8834 41.5126 43.6738 41.5634C43.5778 41.5887 43.473 41.5929 43.3726 41.5929C41.2465 41.5929 39.1203 41.5972 36.9898 41.5887C36.837 41.5887 36.7366 41.631 36.6362 41.7409C35.0864 43.3854 33.5321 45.03 31.9736 46.6702C31.8601 46.7928 31.7116 46.8859 31.5806 46.9958C31.5108 47 31.4409 47 31.3667 47Z" fill="#2790CF"/>
</svg>
