<svg width="48" height="48" viewBox="0 0 48 48" fill="none" xmlns="http://www.w3.org/2000/svg">
<path d="M23.0001 10.3836C22.7994 14.3923 22.5988 18.401 22.3981 22.4097C22.2109 22.732 21.9627 22.9374 21.5582 22.9171C14.992 22.5841 8.42615 22.255 1.85968 21.9276C1.67005 21.9181 1.51247 21.8527 1.35877 21.7437C1.21105 21.6388 1.17988 21.4644 1.07199 21.339C1.27381 17.3304 1.47562 13.3218 1.67746 9.31258C1.74022 9.31742 1.80291 9.32339 1.86575 9.32654C8.84727 9.67705 15.8288 10.0276 22.8103 10.3781C22.8737 10.3824 22.9372 10.3822 23.0001 10.3836ZM14.6567 14.8998C14.656 14.9245 14.6678 14.9369 14.6926 14.9354C15.0763 14.9563 15.4593 14.9795 15.843 14.9988C17.6283 15.0873 19.4142 15.1747 21.1995 15.2621C21.224 15.2661 21.2359 15.2543 21.2371 15.2301C21.2988 14.0117 21.36 12.7939 21.4217 11.5755C21.4207 11.5512 21.4095 11.5377 21.3835 11.5403C19.2168 11.4315 17.0495 11.3227 14.8828 11.214C14.8572 11.2082 14.8442 11.2205 14.8397 11.2445C14.779 12.4629 14.7179 13.6813 14.6567 14.8998ZM2.86392 15.8277C2.78059 17.4877 2.70059 19.1484 2.60939 20.808C2.59868 20.9989 2.65337 21.0411 2.83352 21.049C4.30324 21.1154 5.77259 21.1892 7.24157 21.2703C7.42441 21.2806 7.47826 21.2388 7.48715 21.0506C7.64768 17.7298 7.81438 14.4093 7.98723 11.0897C7.99735 10.8992 7.94328 10.856 7.76313 10.8481C6.29341 10.7816 4.82406 10.7078 3.35508 10.6268C3.17112 10.6164 3.11831 10.6599 3.10948 10.847C3.03341 12.5079 2.94726 14.1677 2.86392 15.8277ZM8.70722 16.1188C8.62388 17.7788 8.54391 19.4389 8.45271 21.0985C8.44223 21.2849 8.48867 21.3346 8.67387 21.3428C10.1431 21.4086 11.6124 21.483 13.0808 21.5634C13.2586 21.5735 13.3199 21.5405 13.3296 21.3473C13.4901 18.027 13.6568 14.7071 13.8291 11.3874C13.8389 11.2021 13.7931 11.1508 13.6079 11.1426C12.1388 11.0768 10.6693 11.0041 9.20106 10.9203C8.99466 10.9088 8.96132 10.9792 8.95282 11.1595C8.87543 12.813 8.79022 14.4656 8.70722 16.1188ZM17.6114 21.7875C18.6392 21.8391 19.6671 21.8879 20.6947 21.9451C20.8478 21.9539 20.9124 21.9324 20.9202 21.7548C21.0022 19.9765 21.0926 18.1981 21.1869 16.4204C21.1948 16.2744 21.1587 16.2303 21.0106 16.2229C18.934 16.1232 16.857 16.0194 14.7809 15.9101C14.6289 15.9019 14.595 15.9498 14.5884 16.092C14.5036 17.8701 14.4149 19.6486 14.32 21.4263C14.3116 21.5824 14.3487 21.6288 14.507 21.6356C15.5419 21.6802 16.5768 21.7356 17.6114 21.7875Z" fill="#F0F3F4"/>
<path d="M22.9976 10.3838C22.9347 10.3823 22.8717 10.382 22.8089 10.3788C15.8274 10.0283 8.84586 9.67783 1.86434 9.32733C1.8015 9.32417 1.7388 9.31821 1.67605 9.31337C1.71709 8.4735 1.75701 7.63357 1.80033 6.79325C1.82336 6.34556 2.15786 6.03516 2.6059 6.03963C2.65483 6.03983 2.70355 6.04397 2.75292 6.04645C9.24859 6.37256 15.7443 6.69868 22.2399 7.02423C22.4958 7.03707 22.725 7.09814 22.9143 7.29349C23.0795 7.46397 23.1342 7.6627 23.1237 7.88462C23.0846 8.7184 23.04 9.55133 22.9976 10.3838ZM20.2674 8.63778C20.2818 8.43069 20.1415 8.26709 19.9407 8.25532C19.7438 8.24431 19.5698 8.39551 19.5573 8.58749C19.5452 8.77216 19.6941 8.95478 19.8668 8.96627C20.0915 8.98206 20.2528 8.84993 20.2674 8.63778ZM18.9675 8.56126C18.9771 8.3483 18.8439 8.20082 18.6329 8.18967C18.4501 8.17992 18.2615 8.35067 18.2541 8.53164C18.2467 8.71204 18.4208 8.89818 18.6027 8.90449C18.8133 8.91112 18.9579 8.77534 18.9675 8.56126ZM20.8561 8.66452C20.8488 8.84324 21.0067 9.02519 21.1751 9.03251C21.3827 9.04181 21.5664 8.87758 21.5655 8.68268C21.5645 8.49003 21.4023 8.32645 21.2063 8.32055C21.039 8.31497 20.8633 8.48748 20.8561 8.66452Z" fill="#788D9A"/>
<path d="M1.06842 21.3362C1.1763 21.4616 1.20747 21.6361 1.3552 21.7409C1.50889 21.85 1.66647 21.9153 1.8561 21.9249C8.42254 22.2528 14.9884 22.5819 21.5546 22.9144C21.9591 22.9347 22.2068 22.7292 22.3945 22.4069C22.3875 22.5468 22.381 22.6872 22.3734 22.8271C22.3483 23.2826 22.023 23.5895 21.5669 23.5869C21.518 23.5867 21.4693 23.5825 21.4199 23.58C14.9237 23.2539 8.42708 22.9244 1.93037 22.6078C1.40297 22.5819 0.966916 22.204 1.05252 21.6305C1.06696 21.5333 1.06351 21.434 1.06842 21.3362Z" fill="#E5E9E9"/>
<path d="M2.86 15.8299C2.94334 14.1699 3.03007 12.5096 3.10556 10.8492C3.11383 10.6621 3.16719 10.6186 3.35116 10.629C4.82011 10.7106 6.28949 10.7838 7.75921 10.8503C7.93992 10.8582 7.99343 10.9014 7.98331 11.0918C7.81043 14.412 7.64373 17.7325 7.48322 21.0528C7.47434 21.241 7.42052 21.2822 7.23765 21.2725C5.76869 21.1908 4.29932 21.1176 2.8296 21.0512C2.64945 21.0433 2.59476 21.0011 2.60547 20.8101C2.69666 19.1506 2.77664 17.4904 2.86 15.8299Z" fill="#FAD984"/>
<path d="M8.69999 16.1162C8.78296 14.4635 8.8682 12.8104 8.94556 11.1574C8.95406 10.9771 8.98799 10.9061 9.19381 10.9182C10.6621 11.002 12.1315 11.0747 13.6007 11.1405C13.7859 11.1487 13.8317 11.2 13.8218 11.3854C13.6495 14.705 13.4823 18.0249 13.3223 21.3452C13.3132 21.5379 13.2519 21.5709 13.0736 21.5613C11.6051 21.4809 10.1358 21.4065 8.66661 21.3407C8.48141 21.3325 8.43497 21.2828 8.44546 21.0964C8.53612 19.4362 8.61665 17.7761 8.69999 16.1162Z" fill="#60C3AC"/>
<path d="M17.6077 21.785C16.5726 21.7331 15.5382 21.6778 14.5033 21.6331C14.3444 21.6263 14.308 21.5799 14.3164 21.4238C14.4112 19.6462 14.5 17.8676 14.5847 16.0895C14.5913 15.9473 14.6258 15.8995 14.7772 15.9077C16.8534 16.017 18.9303 16.1212 21.0069 16.2204C21.1551 16.2273 21.1911 16.2719 21.1832 16.4179C21.0889 18.1956 20.9985 19.974 20.9165 21.7523C20.9082 21.9299 20.8441 21.9515 20.691 21.9426C19.6634 21.8854 18.6355 21.8366 17.6077 21.785Z" fill="#F1786B"/>
<path d="M14.8814 11.2091C17.0481 11.3179 19.2154 11.4267 21.3821 11.5355C21.395 11.5474 21.4073 11.5587 21.4202 11.5706C21.3585 12.789 21.2974 14.0069 21.2356 15.2253C21.2233 15.236 21.2104 15.2466 21.198 15.2572C19.4127 15.1693 17.6268 15.0824 15.8416 14.9939C15.4578 14.9747 15.0748 14.952 14.6912 14.9305C14.6794 14.9187 14.667 14.9068 14.6553 14.8949C14.7164 13.6765 14.777 12.4586 14.8382 11.2402C14.8528 11.2291 14.8674 11.2191 14.8814 11.2091Z" fill="#42B2E0"/>
<path d="M14.8813 11.21C14.8668 11.22 14.8527 11.2306 14.8382 11.2405C14.8428 11.216 14.8557 11.2042 14.8813 11.21Z" fill="#87CCE8"/>
<path d="M21.4249 11.5749C21.412 11.563 21.3996 11.5517 21.3867 11.5398C21.4127 11.5371 21.4238 11.5506 21.4249 11.5749Z" fill="#87CCE8"/>
<path d="M14.6523 14.8984C14.6641 14.9103 14.6765 14.9222 14.6882 14.934C14.6634 14.9356 14.6517 14.9232 14.6523 14.8984Z" fill="#65C0E6"/>
<path d="M21.1975 15.2603C21.2099 15.2496 21.2228 15.239 21.2351 15.2284C21.2345 15.2525 21.2226 15.2643 21.1975 15.2603Z" fill="#65C0E6"/>
<path d="M20.2712 8.63523C20.2567 8.84682 20.0954 8.97895 19.87 8.96369C19.6974 8.95221 19.5485 8.76959 19.5606 8.58491C19.573 8.39294 19.7476 8.24177 19.944 8.25275C20.1458 8.26457 20.2861 8.42874 20.2712 8.63523Z" fill="#FAD984"/>
<path d="M18.9687 8.56214C18.9591 8.77622 18.8145 8.91201 18.6039 8.90481C18.422 8.8985 18.248 8.71236 18.2554 8.53196C18.2628 8.35099 18.4519 8.18083 18.6342 8.18999C18.8451 8.2017 18.9783 8.34974 18.9687 8.56214Z" fill="#60C3AC"/>
<path d="M20.8569 8.66538C20.8641 8.48835 21.0398 8.31639 21.2071 8.32142C21.4037 8.3279 21.5659 8.49148 21.5664 8.68355C21.5673 8.87788 21.3836 9.04211 21.1759 9.03338C21.007 9.02602 20.8496 8.84354 20.8569 8.66538Z" fill="#F1786B"/>
<path d="M26.1724 23.6537C26.6185 23.6438 27.0659 23.7016 27.512 23.7323C29.3124 23.856 31.1131 23.9871 32.9135 24.1172C34.5963 24.2389 36.2797 24.3637 37.9626 24.4845C39.741 24.6123 41.5201 24.7398 43.2987 24.8636C43.7476 24.8949 43.7399 24.888 43.7362 24.5196C43.7231 23.1707 43.7154 21.8225 43.7053 20.4737C43.6064 20.466 43.5457 20.5232 43.4776 20.5622C42.8338 20.9283 42.1404 21.2283 41.4454 21.5241C40.7642 21.814 40.0629 22.0738 39.3537 22.3207C37.988 22.7962 36.5759 23.1676 35.1184 23.4418C35.0475 23.4549 34.9783 23.4717 34.9028 23.4492L34.9041 23.4489C34.8871 23.4585 34.8708 23.4678 34.8538 23.4774C34.7848 23.4899 34.7282 23.5231 34.6464 23.5142C34.1365 23.4602 33.6254 23.4153 33.1152 23.3628C32.6412 23.3137 32.1677 23.2558 31.6931 23.2071C31.0736 23.1438 30.4539 23.0884 29.8344 23.0251C29.3604 22.9765 28.8866 22.9171 28.4124 22.869C27.6321 22.7894 26.8521 22.7149 26.0719 22.6378C26.0612 22.9682 26.0506 23.2982 26.0399 23.6286C26.0855 23.6369 26.1287 23.6453 26.1724 23.6537Z" fill="#E9BB37"/>
<path d="M26.0746 22.6386C26.8549 22.7152 27.6355 22.7899 28.4151 22.8698C28.8892 22.9184 29.3624 22.9772 29.8371 23.0259C30.4565 23.0892 31.0763 23.1446 31.6958 23.2079C32.1698 23.2565 32.6433 23.3144 33.1178 23.3636C33.628 23.4161 34.1385 23.4609 34.649 23.515C34.7308 23.5239 34.7875 23.4907 34.8564 23.4782C34.8734 23.4686 34.8897 23.4593 34.9067 23.4497L34.9055 23.45C34.9633 23.3729 35.0588 23.3298 35.1378 23.2716C36.8843 21.9889 38.2588 20.4675 39.2183 18.6797C39.3848 18.37 39.3825 18.369 39.7511 18.5783C39.7696 18.5889 39.7903 18.5973 39.8089 18.6079C41.1679 19.3582 42.6628 19.8068 44.1836 20.1964C44.2623 19.8022 44.2396 19.3974 44.2607 18.9975C44.3061 18.1409 44.3353 17.2831 44.3718 16.4257C44.4129 15.4531 44.4536 14.4799 44.4967 13.5072C44.5386 12.5526 44.5847 11.5983 44.626 10.6441C44.6587 9.88425 44.6837 9.1234 44.7218 8.36408C44.7276 8.24314 44.6731 8.22167 44.549 8.20908C43.2055 8.07311 41.8621 7.93273 40.5182 7.79521C39.0936 7.64952 37.6689 7.5073 36.245 7.36124C35.2169 7.25555 34.1892 7.14402 33.1618 7.03796C32.002 6.91822 30.8412 6.80374 29.6815 6.684C28.6611 6.57882 27.6401 6.47055 26.62 6.36394C26.4877 6.35025 26.3553 6.34002 26.2236 6.32346C25.943 6.28802 25.9393 6.29475 25.9262 6.51898C25.8733 7.4114 25.8156 8.30339 25.7609 9.19594C25.7001 10.1791 25.6428 11.163 25.5808 12.146C25.5261 13.0137 25.4653 13.8813 25.4105 14.749C25.3557 15.6167 25.3057 16.4849 25.2508 17.3531C25.2032 18.1056 25.1508 18.8577 25.1025 19.6106C25.0421 20.5452 24.9846 21.4799 24.9212 22.4139C24.9146 22.5109 24.9669 22.525 25.0637 22.5343C25.3996 22.5651 25.7372 22.6031 26.0746 22.6386ZM42.0624 12.2287C42.085 12.3244 42.0193 12.3479 41.8718 12.3317C41.2778 12.2684 40.6823 12.2187 40.0879 12.1607C39.1188 12.0654 38.1499 11.9663 37.1813 11.8716C36.2051 11.776 35.2285 11.6852 34.2522 11.5896C33.2903 11.4952 32.3286 11.396 31.3671 11.3027C30.2808 11.1971 29.1941 11.094 28.1074 10.9939C27.9617 10.9806 27.8923 10.9388 27.9048 10.8117C27.9184 10.6729 27.9237 10.5326 27.9278 10.3929C27.9306 10.3002 27.9739 10.2733 28.0914 10.2851C29.0163 10.3803 29.9416 10.4705 30.8662 10.5611C31.7984 10.6527 32.731 10.7429 33.6633 10.834C34.6545 10.9305 35.6451 11.027 36.6363 11.1235C37.5979 11.2168 38.56 11.3102 39.5217 11.403C40.3295 11.481 41.1373 11.5594 41.9448 11.6358C42.0565 11.6465 42.1042 11.6845 42.0943 11.7793C42.0796 11.9179 42.0743 12.0578 42.0624 12.2287ZM28.245 15.1978C28.2095 15.1061 28.2822 15.0646 28.4468 15.0805C29.6066 15.1934 30.7668 15.3018 31.9263 15.4135C32.9979 15.5167 34.0694 15.6233 35.1412 15.7255C36.2124 15.8277 37.284 15.9244 38.3559 16.0261C39.42 16.1274 40.484 16.2355 41.5483 16.3328C42.0144 16.3754 42.0143 16.3664 41.9935 16.743C41.976 17.0587 41.9755 17.0641 41.592 17.0291C40.1532 16.8975 38.7141 16.7639 37.2756 16.6274C35.8295 16.49 34.3835 16.3451 32.9374 16.2076C31.4918 16.0703 30.0458 15.9383 28.6 15.802C28.2416 15.7683 28.2419 15.7639 28.2423 15.4677C28.2426 15.3944 28.2435 15.3211 28.245 15.1978ZM41.8691 13.9966C42.0347 13.9914 42.0725 14.0618 42.0481 14.194C42.0235 14.3242 42.0226 14.46 42.0246 14.5939C42.026 14.6805 41.9981 14.7148 41.8881 14.7019C41.6242 14.6712 41.36 14.6479 41.096 14.6206C40.0911 14.5169 39.0866 14.4109 38.0818 14.3097C36.9453 14.195 35.8076 14.0859 34.6711 13.9712C33.6735 13.8704 32.676 13.7657 31.6787 13.663C31.5031 13.6449 31.2731 13.6798 31.1653 13.5989C31.0374 13.5032 31.1321 13.3141 31.1402 13.1658C31.1543 12.9055 31.1525 12.9116 31.4756 12.9459C32.2092 13.0228 32.9426 13.0918 33.676 13.1663C34.6808 13.2679 35.6857 13.3716 36.6904 13.4732C37.5634 13.5618 38.4362 13.6478 39.3086 13.7358C40.159 13.822 41.0098 13.9092 41.8691 13.9966Z" fill="#FFD959"/>
<path d="M44.1819 20.1987C42.6607 19.8085 41.1663 19.3605 39.8072 18.6102C39.7881 18.5995 39.768 18.5912 39.7494 18.5806C39.3809 18.3714 39.3831 18.3723 39.2167 18.682C38.2572 20.4698 36.8826 21.9917 35.1362 23.274C35.0572 23.3321 34.9612 23.3746 34.9038 23.4523C34.9794 23.4748 35.0486 23.458 35.1195 23.4449C36.577 23.1702 37.9891 22.7994 39.3548 22.3238C40.0639 22.0769 40.7653 21.8172 41.4464 21.5272C42.1414 21.2314 42.8348 20.9314 43.4787 20.5653C43.5467 20.5263 43.6074 20.4691 43.7064 20.4768C43.8602 20.3791 44.0454 20.3167 44.1819 20.1987Z" fill="#DEAD31"/>
<path d="M34.9062 23.4492C34.8893 23.4588 34.873 23.4681 34.856 23.4777C34.873 23.4681 34.8893 23.4588 34.9062 23.4492Z" fill="#DEAD31"/>
<path d="M42.0608 12.2295C42.0721 12.0585 42.078 11.9183 42.0922 11.7796C42.1021 11.6847 42.0544 11.6467 41.9427 11.636C41.1351 11.5601 40.3273 11.4817 39.5196 11.4033C38.5579 11.3105 37.5958 11.217 36.6342 11.1237C35.643 11.0272 34.6524 10.9308 33.6612 10.8342C32.7287 10.7436 31.7963 10.6529 30.8641 10.5613C29.9389 10.4706 29.0141 10.381 28.0893 10.2854C27.9719 10.2731 27.9285 10.3004 27.9257 10.3931C27.9215 10.5333 27.9168 10.6733 27.9027 10.812C27.8902 10.9391 27.9596 10.9808 28.1052 10.9941C29.192 11.0938 30.2787 11.1974 31.365 11.3029C32.3271 11.3963 33.2882 11.4955 34.2501 11.5898C35.2264 11.6855 36.203 11.7762 37.1792 11.8718C38.1484 11.9666 39.1172 12.0663 40.0857 12.1609C40.6801 12.2194 41.2757 12.2686 41.8697 12.332C42.0177 12.3487 42.0834 12.3252 42.0608 12.2295Z" fill="#FFFEFB"/>
<path d="M28.2463 15.2C28.2448 15.3238 28.2434 15.3964 28.2437 15.4699C28.2433 15.7661 28.2431 15.7701 28.6014 15.8042C30.0471 15.9405 31.4932 16.072 32.9387 16.2099C34.3849 16.3473 35.8308 16.4922 37.277 16.6296C38.7154 16.7666 40.1546 16.8997 41.5934 17.0313C41.9769 17.0663 41.9772 17.0614 41.9949 16.7452C42.0157 16.3686 42.0152 16.3775 41.5496 16.335C40.4854 16.2377 39.4214 16.1296 38.3573 16.0283C37.286 15.9267 36.2144 15.8295 35.1426 15.7278C34.0708 15.6255 32.9992 15.5189 31.9276 15.4157C30.7675 15.3043 29.608 15.1956 28.4481 15.0827C28.2837 15.0663 28.2108 15.1083 28.2463 15.2Z" fill="#FFFEFB"/>
<path d="M41.8682 13.9977C41.009 13.9103 40.1582 13.823 39.3071 13.7372C38.434 13.6492 37.5613 13.5626 36.6889 13.4747C35.6841 13.373 34.6793 13.2689 33.6745 13.1677C32.9409 13.0937 32.207 13.0246 31.4741 12.9473C31.1508 12.9135 31.1527 12.907 31.1387 13.1672C31.1305 13.3155 31.0364 13.5047 31.1638 13.6003C31.2715 13.6812 31.5016 13.6464 31.6772 13.6645C32.6744 13.7672 33.6719 13.8719 34.6696 13.9726C35.8061 14.0874 36.9437 14.1964 38.0802 14.3112C39.0851 14.4123 40.0901 14.5185 41.0945 14.6221C41.3585 14.6493 41.6226 14.6727 41.8865 14.7034C41.9972 14.7164 42.0251 14.6816 42.023 14.5953C42.0205 14.4614 42.022 14.3257 42.0465 14.1955C42.0717 14.0624 42.0338 13.9925 41.8682 13.9977Z" fill="#FFFEFB"/>
<path d="M35.1372 29.3532C35.0565 29.712 34.9925 30.0757 34.8916 30.4296C34.3671 32.2761 33.2414 33.6504 31.5401 34.5636C31.1086 34.7951 30.6543 34.9748 30.1767 35.0936C29.8739 34.4874 29.5827 33.8764 29.3242 33.2502C29.6954 33.1649 30.0228 32.9791 30.3577 32.8109C31.1197 32.4272 31.7684 31.8899 32.3002 31.2411C33.1595 30.1933 33.6938 28.9998 33.823 27.6328C33.9043 26.7745 33.8083 25.9484 33.5941 25.1223C33.4987 24.7538 33.2974 24.4242 33.2217 24.0508C34.0828 24.9006 34.6324 25.921 34.939 27.0809C35.0184 27.3824 35.011 27.7011 35.1365 27.9916C35.1372 28.4455 35.1372 28.8993 35.1372 29.3532Z" fill="#D6667E"/>
<path d="M29.9807 42.5443C29.2138 42.7471 28.429 42.8422 27.6411 42.9171C26.6298 43.0128 25.6148 43.0231 24.6048 42.9531C23.1201 42.8507 21.6454 42.6649 20.2654 42.0521C19.9207 41.8992 19.5945 41.7158 19.3243 41.4483C18.9771 41.106 18.9291 40.8702 19.131 40.4334C19.6917 39.2205 20.2574 38.0095 20.8181 36.7966C20.8538 36.7192 20.9209 36.6467 20.8907 36.5486L20.8877 36.5505C20.9289 36.5602 20.9326 36.5297 20.94 36.5035C21.3659 35.5983 21.7949 34.6955 22.2153 33.7878C22.432 33.3199 22.6757 32.8642 22.8487 32.3775C22.8826 32.3227 22.9219 32.2709 22.9484 32.213C23.708 30.5743 24.465 28.935 25.2252 27.2968C25.3477 27.0325 25.5293 26.8375 25.8512 26.832C26.0211 26.9892 26.0814 27.203 26.1349 27.4126C26.519 28.9112 26.8963 30.411 27.278 31.9102C27.939 34.5103 28.6026 37.1097 29.2636 39.7097C29.5043 40.654 29.7419 41.5994 29.9807 42.5443Z" fill="#598ECB"/>
<path d="M25.8491 26.833C25.5272 26.8385 25.3456 27.0335 25.2231 27.2979C24.4629 28.936 23.7058 30.5753 22.9463 32.214C22.9192 32.2719 22.8798 32.3243 22.8466 32.3785C22.4403 31.8132 22.1597 31.1894 21.9602 30.5266C21.7436 29.8071 21.6857 29.07 21.7017 28.3243C21.7423 27.6506 21.8895 26.9975 22.1067 26.3591C22.433 25.5659 22.8607 24.8361 23.451 24.202C24.3928 23.1901 25.5309 22.4999 26.8881 22.2111C29.2763 21.7024 31.3659 22.3001 33.1442 23.9595C33.1553 23.9699 33.1608 23.9869 33.1688 24.0003C33.186 24.0174 33.2027 24.035 33.2199 24.0521L33.2187 24.0497C33.2944 24.4231 33.495 24.7521 33.591 25.1212C33.8052 25.9473 33.9013 26.774 33.82 27.6317C33.6901 28.9987 33.1565 30.1921 32.2972 31.2399C31.7654 31.8881 31.1167 32.426 30.3547 32.8098C30.0198 32.9786 29.6924 33.1644 29.3212 33.249C29.2757 33.1632 29.2264 33.0797 29.1858 32.992C28.3038 31.0962 27.4223 29.2004 26.5421 27.304C26.4037 27.0109 26.2085 26.805 25.8491 26.833Z" fill="#EC718B"/>
<path d="M16.7583 38.8409C16.184 38.5661 15.6473 38.225 15.0952 37.9112C13.4432 36.9725 11.796 36.0252 10.1452 35.084C10.0357 35.0218 9.97656 34.9597 9.97656 34.8232C9.98149 32.3286 9.98026 29.8334 9.98149 27.3381C9.98149 27.3138 9.98641 27.29 9.98887 27.2656C11.1073 27.8974 12.2269 28.5267 13.3441 29.1608C14.4834 29.8072 15.6202 30.4584 16.7589 31.1072C16.7583 33.6853 16.7583 36.2628 16.7583 38.8409Z" fill="#6EB3CF"/>
<path d="M16.7577 31.1064C15.6196 30.4576 14.4828 29.807 13.3435 29.16C12.2263 28.5264 11.1067 27.8965 9.98828 27.2648C10.2745 26.9937 10.6401 26.8457 10.9756 26.6532C12.827 25.5877 14.6841 24.5332 16.5355 23.4677C16.7036 23.3709 16.8291 23.3611 17.0046 23.4622C18.6357 24.4034 20.273 25.3337 21.909 26.2663C21.9718 26.3023 22.0407 26.3285 22.1066 26.3596C21.8893 26.998 21.7422 27.651 21.7016 28.3248C21.6351 28.3559 21.5668 28.3821 21.5034 28.418C20.6349 28.9115 19.7664 29.4049 18.8997 29.9014C18.2024 30.301 17.5068 30.7037 16.8107 31.1051C16.7928 31.1064 16.7756 31.1064 16.7577 31.1064Z" fill="#7BC6E4"/>
<path d="M16.8071 31.1046C17.5033 30.7031 18.1988 30.2998 18.8962 29.9008C19.7629 29.4043 20.6314 28.9109 21.4999 28.4174C21.5632 28.3815 21.6322 28.3553 21.698 28.3242C21.682 29.0699 21.7399 29.8064 21.9566 30.5264C22.156 31.1892 22.4367 31.8131 22.8429 32.3784C22.6699 32.8657 22.4262 33.3214 22.2095 33.7887C21.7891 34.6957 21.3595 35.5992 20.9342 36.5044C20.917 36.5203 20.8997 36.5361 20.8819 36.5513L20.8849 36.5495C20.2817 36.834 19.7222 37.1965 19.1406 37.5193C18.3595 37.9537 17.5827 38.396 16.8047 38.8346C16.8059 36.2583 16.8065 33.6814 16.8071 31.1046Z" fill="#629EB6"/>
<path d="M25.8555 26.8307C26.2149 26.8027 26.41 27.0086 26.5467 27.3028C27.4269 29.1992 28.3083 31.095 29.1903 32.9908C29.231 33.0785 29.2802 33.1626 29.3258 33.2479C29.5843 33.8741 29.8754 34.4852 30.1782 35.0913C30.558 35.9222 30.9353 36.755 31.3182 37.5847C31.7694 38.5625 32.2144 39.5427 32.6852 40.5107C32.8287 40.8061 32.7726 41.0419 32.5954 41.274C32.2408 41.7388 31.7269 41.9746 31.2018 42.1829C30.8079 42.3388 30.4066 42.4765 29.985 42.5429C29.7462 41.5981 29.5086 40.6526 29.2685 39.7084C28.6068 37.1083 27.9439 34.5089 27.2829 31.9089C26.9012 30.4097 26.5245 28.9098 26.1398 27.4112C26.0857 27.2017 26.026 26.9878 25.8555 26.8307Z" fill="#5A7EA7"/>
<path d="M16.8147 31.1055C16.814 33.6823 16.8134 36.2592 16.8122 38.8361C16.7974 38.8678 16.7814 38.8727 16.7617 38.8398C16.7617 36.2617 16.7617 33.6842 16.7623 31.1061C16.7802 31.1061 16.7974 31.1061 16.8147 31.1055Z" fill="#82B0C7"/>
<path d="M33.223 24.0518C33.2057 24.0347 33.1891 24.0171 33.1719 24C33.1891 24.0171 33.2063 24.0347 33.223 24.0518Z" fill="#D6667E"/>
<path d="M20.8867 36.5547C20.904 36.5389 20.9212 36.523 20.939 36.5078C20.9317 36.534 20.9273 36.5645 20.8867 36.5547Z" fill="white"/>
</svg>
