<svg width="48" height="48" viewBox="0 0 48 48" fill="none" xmlns="http://www.w3.org/2000/svg">
<path d="M45.2506 8.14345C44.9928 8.80044 44.8015 9.49902 44.4689 10.1144C43.9865 10.996 43.1881 11.5698 42.2733 11.9773C41.4666 12.285 40.635 12.3432 39.7867 12.2933C38.8719 12.1021 38.0236 11.7611 37.3084 11.129C36.4269 10.3473 35.9279 9.35764 35.7033 8.21829C35.6618 7.3617 35.72 6.52174 36.0194 5.71505C36.6514 4.31788 37.6827 3.36149 39.163 2.92904C41.7411 2.18056 44.4356 3.75237 45.0926 6.36373C45.1342 6.51342 45.1924 6.66312 45.2423 6.81282C45.2506 7.25359 45.2506 7.69436 45.2506 8.14345Z" fill="#5282C2"/>
<path d="M42.2728 36.0201C43.9028 36.7686 44.9008 38.0077 45.2002 39.7874C45.2002 39.8124 45.2335 39.829 45.2501 39.8456C45.2501 40.3197 45.2501 40.7854 45.2501 41.2594C45.2002 41.3842 45.1337 41.5006 45.1004 41.6254C44.7511 42.9809 43.9611 44.0122 42.7219 44.6609C42.198 44.9353 41.5909 45.0601 41.017 45.2513C40.6262 45.2513 40.2436 45.2513 39.8527 45.2513C39.1957 44.9935 38.4972 44.8106 37.8901 44.4696C37.0085 43.9872 36.443 43.1889 36.0272 42.2824C35.7195 41.4757 35.6613 40.6357 35.7112 39.7791C35.9024 38.8477 36.2517 37.9911 36.9087 37.2759C37.6905 36.411 38.6718 35.9286 39.7945 35.7041C40.6345 35.6625 41.4661 35.7124 42.2728 36.0201Z" fill="#5282C2"/>
<path d="M12.0426 42.2504C11.9012 42.4833 11.7681 42.7245 11.6184 42.9573C10.8533 44.1632 9.77219 44.9117 8.37503 45.1778C8.30018 45.1944 8.22533 45.2277 8.15048 45.261C7.75961 45.261 7.37705 45.261 6.98618 45.261C6.45393 45.0863 5.8801 44.9948 5.38943 44.737C3.69287 43.8222 2.75312 42.3835 2.76975 40.4541C2.77806 38.5496 3.68456 37.1192 5.38111 36.2044C5.51417 36.1295 5.6306 36.0464 5.75535 35.9632C6.56204 35.7386 7.38537 35.6555 8.22533 35.7054C9.17341 35.8967 10.03 36.2626 10.7535 36.9279C11.6018 37.7013 12.0758 38.6744 12.2921 39.7804C12.3503 40.6204 12.2671 41.4437 12.0426 42.2504Z" fill="#2EC5F4"/>
<path d="M5.75443 12.0376C5.41346 11.8297 5.06417 11.6384 4.73983 11.4056C3.15139 10.2413 2.42786 8.29522 2.88526 6.44066C3.36762 4.4863 4.84794 3.13072 6.8522 2.81469C8.84815 2.49867 10.8524 3.52159 11.7839 5.33457C11.8587 5.47595 11.9585 5.60901 12.0417 5.75039C12.2662 6.55709 12.3577 7.38042 12.2995 8.22038C12.1082 9.15182 11.7589 10.0001 11.1102 10.7236C10.3202 11.5802 9.34713 12.0709 8.22442 12.2871C7.38446 12.3536 6.56113 12.2622 5.75443 12.0376Z" fill="#2EC5F4"/>
<path d="M5.75491 12.0352C6.56161 12.2597 7.38494 12.3512 8.2249 12.293C8.2249 20.1021 8.2249 27.9029 8.2249 35.7121C7.38494 35.6538 6.56161 35.737 5.75491 35.9699C5.7466 35.8285 5.73828 35.6954 5.73828 35.554C5.73828 27.853 5.73828 20.152 5.73828 12.451C5.73828 12.3096 5.7466 12.1682 5.75491 12.0352Z" fill="#8AD4E5"/>
<path d="M36.0251 5.71484C35.7257 6.52154 35.6591 7.3615 35.709 8.21809C33.8462 8.21809 31.975 8.22641 30.1121 8.21809C28.0829 8.21809 26.0453 8.20978 24.0161 8.20146C24.0161 7.37813 24.0078 6.5548 24.0078 5.73148C25.1139 5.72316 26.22 5.71484 27.3261 5.71484C30.2202 5.71484 33.1226 5.71484 36.0251 5.71484Z" fill="#2ABFCA"/>
<path d="M24.0025 5.73097C24.0025 6.5543 24.0108 7.37763 24.0108 8.20095C20.1021 8.20095 16.2017 8.20927 12.293 8.20927C12.3512 7.36931 12.2597 6.54598 12.0352 5.73929C12.5757 5.73097 13.108 5.72266 13.6485 5.72266C17.0999 5.73097 20.5512 5.73097 24.0025 5.73097Z" fill="#8AD4E5"/>
<path d="M35.7017 39.7812C35.6602 40.6378 35.7184 41.4778 36.0178 42.2845C32.1756 42.2845 28.3334 42.2845 24.4912 42.2845C24.3248 42.2845 24.1585 42.2762 23.9922 42.2679C23.9922 41.4445 24.0005 40.6212 24.0005 39.7979C27.9092 39.7896 31.8096 39.7896 35.7017 39.7812Z" fill="#2ABFCA"/>
<path d="M24.0108 39.7896C24.0108 40.6129 24.0025 41.4362 24.0025 42.2595C20.0855 42.2595 16.1684 42.2595 12.2431 42.2679C12.1765 42.2679 12.11 42.2595 12.0352 42.2512C12.2597 41.4445 12.3512 40.6212 12.293 39.7812C13.9064 39.7812 15.5197 39.7812 17.1331 39.7812C19.4285 39.7812 21.7238 39.7896 24.0108 39.7896Z" fill="#8AD4E5"/>
<path d="M42.2718 36.0194C41.4651 35.7117 40.6334 35.6618 39.7852 35.7034C39.7852 27.9025 39.7852 20.0934 39.7852 12.2926C40.6334 12.3342 41.4651 12.2843 42.2718 11.9766C42.2718 19.9853 42.2718 28.0023 42.2718 36.0194Z" fill="#2DBFCA"/>
<path d="M34.0318 33.6913C34.0318 27.3126 34.0318 20.9256 34.0318 14.5469C37.3667 14.5469 34.0567 14.5469 37.4166 14.5469C37.4166 16.0605 37.4166 32.1694 37.4166 33.6996C36.6099 33.6996 35.8717 32.5 35.0318 32.5C35.0318 31.8347 34.5334 17.1986 34.5334 16.5C32.421 16.5 37.4083 17.0501 35.3042 17.0501C35.3042 21.7489 35.3042 26.4477 35.3042 31.1881C35.9945 31.1881 36.693 31.1881 37.4166 31.1881C37.4166 32.0363 37.4166 32.843 37.4166 33.6996C36.2939 33.6913 35.1628 33.6913 34.0318 33.6913Z" fill="#164475"/>
<path d="M13.6406 28.9996H11.3906L15.4872 17.3633H18.0895L22.1918 28.9996H19.9418L16.8338 19.7496H16.7429L13.6406 28.9996ZM13.7145 24.4371H19.8509V26.1303H13.7145V24.4371Z" fill="#164475"/>
<path d="M23.8532 28.9996V17.3633H28.3077C29.1486 17.3633 29.8475 17.4959 30.4043 17.761C30.9649 18.0224 31.3835 18.3803 31.66 18.8349C31.9403 19.2894 32.0805 19.8046 32.0805 20.3803C32.0805 20.8538 31.9895 21.2591 31.8077 21.5962C31.6259 21.9296 31.3816 22.2004 31.0748 22.4087C30.768 22.6171 30.4252 22.7667 30.0464 22.8576V22.9712C30.4592 22.994 30.8551 23.1209 31.2339 23.3519C31.6164 23.5792 31.9289 23.9012 32.1714 24.3178C32.4138 24.7345 32.535 25.2383 32.535 25.8292C32.535 26.4315 32.3892 26.9731 32.0975 27.4542C31.8058 27.9315 31.3664 28.3084 30.7793 28.5849C30.1922 28.8614 29.4536 28.9996 28.5634 28.9996H23.8532ZM25.9611 27.2383H28.2282C28.9933 27.2383 29.5445 27.0924 29.8816 26.8008C30.2225 26.5053 30.393 26.1265 30.393 25.6644C30.393 25.3197 30.3077 25.0091 30.1373 24.7326C29.9668 24.4523 29.7244 24.2326 29.41 24.0735C29.0956 23.9106 28.7206 23.8292 28.285 23.8292H25.9611V27.2383ZM25.9611 22.3121H28.0464C28.41 22.3121 28.7377 22.2459 29.0293 22.1133C29.321 21.9769 29.5502 21.7856 29.7168 21.5394C29.8873 21.2894 29.9725 20.994 29.9725 20.6531C29.9725 20.2023 29.8134 19.8311 29.4952 19.5394C29.1808 19.2478 28.713 19.1019 28.0918 19.1019H25.9611V22.3121Z" fill="#164475"/>
</svg>
