<svg width="44" height="44" viewBox="0 0 44 44" fill="none" xmlns="http://www.w3.org/2000/svg">
<path d="M43.2506 6.14345C42.9928 6.80044 42.8015 7.49902 42.4689 8.11444C41.9865 8.99598 41.1881 9.56982 40.2733 9.97732C39.4666 10.285 38.635 10.3432 37.7867 10.2933C36.8719 10.1021 36.0236 9.7611 35.3084 9.12905C34.4269 8.3473 33.9279 7.35764 33.7033 6.21829C33.6618 5.3617 33.72 4.52174 34.0194 3.71505C34.6514 2.31788 35.6827 1.36149 37.163 0.92904C39.7411 0.18056 42.4356 1.75237 43.0926 4.36373C43.1342 4.51342 43.1924 4.66312 43.2423 4.81282C43.2506 5.25359 43.2506 5.69436 43.2506 6.14345Z" fill="#5282C2"/>
<path d="M40.2728 34.0201C41.9028 34.7686 42.9008 36.0077 43.2002 37.7874C43.2002 37.8124 43.2335 37.829 43.2501 37.8456C43.2501 38.3197 43.2501 38.7854 43.2501 39.2594C43.2002 39.3842 43.1337 39.5006 43.1004 39.6254C42.7511 40.9809 41.9611 42.0122 40.7219 42.6609C40.198 42.9353 39.5909 43.0601 39.017 43.2513C38.6262 43.2513 38.2436 43.2513 37.8527 43.2513C37.1957 42.9935 36.4972 42.8106 35.8901 42.4696C35.0085 41.9872 34.443 41.1889 34.0272 40.2824C33.7195 39.4757 33.6613 38.6357 33.7112 37.7791C33.9024 36.8477 34.2517 35.9911 34.9087 35.2759C35.6905 34.411 36.6718 33.9286 37.7945 33.7041C38.6345 33.6625 39.4661 33.7124 40.2728 34.0201Z" fill="#5282C2"/>
<path d="M10.0426 40.2504C9.9012 40.4833 9.76813 40.7245 9.61844 40.9573C8.85333 42.1632 7.77219 42.9117 6.37503 43.1778C6.30018 43.1944 6.22533 43.2277 6.15048 43.261C5.75961 43.261 5.37705 43.261 4.98618 43.261C4.45393 43.0863 3.8801 42.9948 3.38943 42.737C1.69287 41.8222 0.753115 40.3835 0.769748 38.4541C0.778065 36.5496 1.68456 35.1192 3.38111 34.2044C3.51417 34.1295 3.6306 34.0464 3.75535 33.9632C4.56204 33.7386 5.38537 33.6555 6.22533 33.7054C7.17341 33.8967 8.03 34.2626 8.75353 34.9279C9.60181 35.7013 10.0758 36.6744 10.2921 37.7804C10.3503 38.6204 10.2671 39.4437 10.0426 40.2504Z" fill="#2EC5F4"/>
<path d="M3.75443 10.0376C3.41346 9.82971 3.06417 9.63843 2.73983 9.40557C1.15139 8.24127 0.427858 6.29522 0.885262 4.44066C1.36762 2.4863 2.84794 1.13072 4.8522 0.814691C6.84815 0.498667 8.85241 1.52159 9.78385 3.33457C9.8587 3.47595 9.9585 3.60901 10.0417 3.75039C10.2662 4.55709 10.3577 5.38042 10.2995 6.22038C10.1082 7.15182 9.7589 8.00009 9.11022 8.72362C8.32016 9.58022 7.34713 10.0709 6.22442 10.2871C5.38446 10.3536 4.56113 10.2622 3.75443 10.0376Z" fill="#2EC5F4"/>
<path d="M3.75491 10.0352C4.56161 10.2597 5.38494 10.3512 6.2249 10.293C6.2249 18.1021 6.2249 25.9029 6.2249 33.7121C5.38494 33.6538 4.56161 33.737 3.75491 33.9699C3.7466 33.8285 3.73828 33.6954 3.73828 33.554C3.73828 25.853 3.73828 18.152 3.73828 10.451C3.73828 10.3096 3.7466 10.1682 3.75491 10.0352Z" fill="#8AD4E5"/>
<path d="M34.0251 3.71484C33.7257 4.52154 33.6591 5.3615 33.709 6.21809C31.8462 6.21809 29.975 6.22641 28.1121 6.21809C26.0829 6.21809 24.0453 6.20978 22.0161 6.20146C22.0161 5.37813 22.0078 4.5548 22.0078 3.73148C23.1139 3.72316 24.22 3.71484 25.3261 3.71484C28.2202 3.71484 31.1226 3.71484 34.0251 3.71484Z" fill="#2ABFCA"/>
<path d="M22.0025 3.73097C22.0025 4.5543 22.0108 5.37763 22.0108 6.20095C18.1021 6.20095 14.2017 6.20927 10.293 6.20927C10.3512 5.36931 10.2597 4.54598 10.0352 3.73929C10.5757 3.73097 11.108 3.72266 11.6485 3.72266C15.0999 3.73097 18.5512 3.73097 22.0025 3.73097Z" fill="#8AD4E5"/>
<path d="M33.7017 37.7812C33.6602 38.6378 33.7184 39.4778 34.0178 40.2845C30.1756 40.2845 26.3334 40.2845 22.4912 40.2845C22.3248 40.2845 22.1585 40.2762 21.9922 40.2679C21.9922 39.4445 22.0005 38.6212 22.0005 37.7979C25.9092 37.7896 29.8096 37.7896 33.7017 37.7812Z" fill="#2ABFCA"/>
<path d="M22.0108 37.7896C22.0108 38.6129 22.0025 39.4362 22.0025 40.2595C18.0855 40.2595 14.1684 40.2595 10.2431 40.2679C10.1765 40.2679 10.11 40.2595 10.0352 40.2512C10.2597 39.4445 10.3512 38.6212 10.293 37.7812C11.9064 37.7812 13.5197 37.7812 15.1331 37.7812C17.4285 37.7812 19.7238 37.7896 22.0108 37.7896Z" fill="#8AD4E5"/>
<path d="M40.2718 34.0194C39.4651 33.7117 38.6334 33.6618 37.7852 33.7034C37.7852 25.9025 37.7852 18.0934 37.7852 10.2926C38.6334 10.3342 39.4651 10.2843 40.2718 9.97656C40.2718 17.9853 40.2718 26.0023 40.2718 34.0194Z" fill="#2DBFCA"/>
</svg>
