<svg width="48" height="48" viewBox="0 0 48 48" fill="none" xmlns="http://www.w3.org/2000/svg">
<path d="M37.9994 22.961C37.9994 23.672 37.9994 24.3829 37.9994 25.0939C37.8958 25.3487 37.9133 25.6223 37.8755 25.8876C37.4726 28.7034 36.3424 31.1887 34.4427 33.304C32.197 35.8047 29.4055 37.3236 26.0773 37.8454C25.7315 37.8997 25.3757 37.8854 25.0397 38C24.3288 38 23.6179 38 22.907 38C22.8593 37.92 22.7777 37.9501 22.7097 37.943C22.1747 37.8893 21.6425 37.8142 21.1174 37.6991C17.7262 36.9552 14.9549 35.2121 12.8595 32.4506C10.5366 29.388 9.63328 25.9161 10.1337 22.1086C10.5333 19.0692 11.8312 16.438 13.9782 14.2482C16.5955 11.5782 19.7893 10.159 23.5236 10.0116C26.2494 9.90412 28.8102 10.5449 31.1381 11.9712C34.8872 14.2679 37.1339 17.5974 37.8476 21.9491C37.9029 22.2857 37.8887 22.6327 37.9994 22.961ZM27.8006 22.8404C27.8006 22.8393 27.8006 22.8388 27.8006 22.8377C27.0442 22.8377 26.2878 22.8377 25.5314 22.8377C25.162 22.8377 25.162 22.8377 25.162 22.4721C25.162 20.9685 25.1587 19.4644 25.1642 17.9608C25.1652 17.5733 25.0556 17.2394 24.7547 16.99C24.3847 16.6831 23.9627 16.6222 23.5264 16.8157C23.0775 17.0152 22.8423 17.3798 22.8407 17.8742C22.8363 19.4052 22.8385 20.9367 22.8385 22.4677C22.8385 22.8377 22.8385 22.8377 22.4734 22.8377C20.97 22.8377 19.4659 22.841 17.9625 22.8355C17.5749 22.8338 17.2417 22.9429 16.9912 23.2444C16.6837 23.6144 16.6229 24.0365 16.8163 24.4723C17.0153 24.9206 17.3804 25.1569 17.8748 25.1585C19.4056 25.1629 20.9371 25.1607 22.468 25.1613C22.8385 25.1613 22.8385 25.1613 22.8385 25.5258C22.8385 27.0387 22.8407 28.5516 22.8379 30.0645C22.8368 30.5929 23.0632 30.9815 23.5461 31.1936C24.3206 31.534 25.1537 30.9705 25.1587 30.0968C25.1685 28.5472 25.1658 26.9981 25.157 25.4485C25.1559 25.2243 25.214 25.1541 25.4448 25.1558C26.9483 25.1657 28.4523 25.1613 29.9558 25.1602C30.1191 25.1602 30.2836 25.1662 30.4442 25.1185C31.0049 24.9535 31.3425 24.4344 31.2751 23.8364C31.2137 23.2921 30.7478 22.853 30.1789 22.8426C29.3868 22.83 28.5937 22.8404 27.8006 22.8404Z" fill="#2196F2"/>
<path d="M27.7996 22.8404C28.5927 22.8404 29.3853 22.8294 30.1784 22.8442C30.7474 22.8546 31.2133 23.2931 31.2747 23.838C31.3421 24.436 31.0044 24.9551 30.4437 25.1201C30.2831 25.1672 30.1192 25.1612 29.9553 25.1618C28.4519 25.1623 26.9478 25.1672 25.4443 25.1574C25.2136 25.1557 25.1549 25.2264 25.1566 25.4501C25.1654 26.9997 25.1675 28.5488 25.1582 30.0984C25.1527 30.9721 24.3196 31.5356 23.5457 31.1952C23.0633 30.9831 22.8364 30.5945 22.8375 30.066C22.8402 28.5532 22.8381 27.0403 22.8381 25.5274C22.8381 25.1629 22.8381 25.1629 22.4675 25.1629C20.9366 25.1623 19.4052 25.1651 17.8743 25.1601C17.3799 25.1585 17.0154 24.9222 16.8159 24.4738C16.6224 24.0381 16.6833 23.616 16.9908 23.246C17.2407 22.9451 17.5745 22.836 17.962 22.8371C19.4655 22.8426 20.9695 22.8393 22.473 22.8393C22.8375 22.8393 22.8381 22.8393 22.8381 22.4693C22.8386 20.9383 22.8364 19.4068 22.8402 17.8758C22.8419 17.3813 23.077 17.0168 23.5259 16.8173C23.9617 16.6233 24.3837 16.6841 24.7543 16.9916C25.0552 17.2416 25.1654 17.5754 25.1637 17.9624C25.1582 19.466 25.1615 20.9701 25.1615 22.4736C25.1615 22.8393 25.1615 22.8393 25.5309 22.8393C26.2873 22.8393 27.0437 22.8393 27.8001 22.8393C27.7996 22.8387 27.7996 22.8398 27.7996 22.8404Z" fill="#F9F9F9"/>
</svg>
