<svg width="50" height="50" viewBox="0 0 50 50" fill="none" xmlns="http://www.w3.org/2000/svg">
<path opacity="0.1" d="M48.4203 25H50" stroke="black" stroke-width="1.5"/>
<path d="M39 26.299C39.7174 26.299 40.299 25.7174 40.299 25C40.299 24.2826 39.7174 23.701 39 23.701L39 26.299ZM11.0814 24.0814C10.5741 24.5887 10.5741 25.4113 11.0814 25.9186L19.3485 34.1856C19.8558 34.6929 20.6783 34.6929 21.1856 34.1856C21.6929 33.6783 21.6929 32.8558 21.1856 32.3485L13.8371 25L21.1856 17.6515C21.6929 17.1442 21.6929 16.3217 21.1856 15.8144C20.6783 15.3071 19.8558 15.3071 19.3485 15.8144L11.0814 24.0814ZM39 23.701L12 23.701L12 26.299L39 26.299L39 23.701Z" fill="black"/>
</svg>
