<svg width="48" height="48" viewBox="0 0 48 48" fill="none" xmlns="http://www.w3.org/2000/svg">
<path d="M23.9963 9.00586C28.917 9.00586 33.8385 9.00732 38.7592 9C38.9596 9 38.9993 9.03955 38.9993 9.24023C38.9927 19.0803 38.9927 28.9204 38.9993 38.7605C38.9993 38.9612 38.9604 39.0007 38.7592 39.0007C33.8385 38.9934 28.917 38.9949 23.9963 38.9949C23.9963 38.4126 23.9963 37.8296 23.9963 37.2473C25.1858 37.2444 26.3752 37.2371 27.5654 37.2415C27.7518 37.2422 27.8121 37.1975 27.8121 37.0012C27.8054 34.6121 27.8054 32.2236 27.8121 29.8345C27.8128 29.6353 27.7452 29.592 27.561 29.5935C26.4787 29.6008 25.3958 29.5979 24.3135 29.5957C24.2078 29.5957 24.0991 29.6184 23.9963 29.5693C23.9963 28.9885 23.9971 28.4077 23.9971 27.8269C25.1674 27.8218 26.3385 27.8086 27.5088 27.8167C27.7526 27.8181 27.8143 27.7559 27.8128 27.512C27.8032 25.1799 27.8025 22.8479 27.8135 20.5159C27.815 20.2478 27.7452 20.1797 27.4787 20.1819C26.3179 20.1921 25.1571 20.1775 23.9963 20.1716C23.9956 19.5908 23.9949 19.01 23.9941 18.4292C24.0955 18.375 24.2049 18.4006 24.3099 18.4006C25.3825 18.3984 26.4552 18.3948 27.5279 18.4036C27.7335 18.405 27.8135 18.3684 27.8121 18.1355C27.8025 15.7661 27.8032 13.3967 27.8121 11.0273C27.8128 10.8032 27.7489 10.7556 27.5353 10.7571C26.3554 10.7644 25.1755 10.7556 23.9956 10.7527C23.9963 10.1704 23.9963 9.58813 23.9963 9.00586ZM33.4398 10.7629C32.2496 10.7629 31.0595 10.7681 29.8686 10.7578C29.6549 10.7556 29.5874 10.8054 29.5881 11.0295C29.5962 13.3901 29.5969 15.7507 29.5881 18.1113C29.5874 18.3442 29.6549 18.4043 29.8833 18.4036C32.2445 18.3955 34.6057 18.3955 36.967 18.4036C37.1887 18.4043 37.2408 18.342 37.2401 18.1252C37.232 15.7551 37.2328 13.3843 37.2401 11.0142C37.2408 10.8076 37.185 10.7549 36.9809 10.7571C35.801 10.7681 34.6204 10.7629 33.4398 10.7629ZM37.2364 23.9993C37.2364 22.8186 37.2306 21.6379 37.2416 20.4573C37.2438 20.2383 37.1872 20.1826 36.9677 20.1833C34.6057 20.1914 32.2445 20.1914 29.8825 20.1833C29.6557 20.1826 29.5881 20.2397 29.5889 20.4727C29.5977 22.8237 29.5977 25.1755 29.5889 27.5273C29.5881 27.761 29.6579 27.8159 29.8833 27.8152C32.2452 27.8071 34.6065 27.8071 36.9684 27.8152C37.1887 27.8159 37.2438 27.7588 37.2416 27.5405C37.2306 26.3606 37.2364 25.1799 37.2364 23.9993ZM37.2364 33.4387C37.2364 32.2383 37.2342 31.0386 37.2386 29.8381C37.2394 29.6792 37.2247 29.5913 37.0242 29.592C34.6234 29.5986 32.2232 29.5979 29.8223 29.5928C29.6402 29.592 29.5911 29.655 29.5911 29.8293C29.5955 32.22 29.5962 34.6106 29.5896 37.0005C29.5889 37.2004 29.6593 37.24 29.8422 37.2393C32.2232 37.2341 34.6043 37.2327 36.9853 37.2407C37.1953 37.2415 37.2423 37.1807 37.2408 36.9792C37.2313 35.8 37.2364 34.6194 37.2364 33.4387Z" fill="#00A9EF" stroke="#00A9EF"/>
<path d="M23.9971 37.2473C23.9971 37.8296 23.9971 38.4126 23.9971 38.9949C18.9978 38.9949 13.9993 38.9949 9 38.9949C9 28.998 9 19.002 9 9.00586C13.9993 9.00586 18.9978 9.00586 23.9971 9.00586C23.9971 9.58813 23.9971 10.1711 23.9971 10.7534C22.8172 10.7563 21.6373 10.7666 20.4581 10.7578C20.2261 10.7563 20.1681 10.8215 20.1689 11.0493C20.1769 13.3989 20.1791 15.7485 20.1667 18.0981C20.1652 18.3831 20.2628 18.4285 20.5147 18.4263C21.6747 18.4175 22.8348 18.427 23.9956 18.4299C23.9963 19.0107 23.9971 19.5916 23.9978 20.1724C22.8267 20.1746 21.6549 20.1826 20.4838 20.1731C20.2518 20.1709 20.1667 20.2163 20.1674 20.4719C20.1777 22.8237 20.1777 25.1763 20.1674 27.5281C20.1659 27.7844 20.2518 27.8276 20.4838 27.8262C21.6549 27.8167 22.8267 27.8254 23.9978 27.8276C23.9978 28.4084 23.9971 28.9893 23.9971 29.5701C22.8267 29.573 21.6564 29.5818 20.4868 29.5737C20.2555 29.5723 20.1674 29.6169 20.1681 29.8726C20.1784 32.2324 20.1769 34.5923 20.1689 36.9522C20.1681 37.1785 20.2239 37.2459 20.4574 37.2444C21.6373 37.2334 22.8172 37.2437 23.9971 37.2473ZM10.7577 14.6008C10.7577 15.7815 10.7628 16.9614 10.7533 18.1421C10.7518 18.3516 10.7937 18.4263 11.0228 18.4255C13.3935 18.4167 15.7651 18.4175 18.1358 18.4241C18.3524 18.4248 18.4214 18.3604 18.4207 18.1414C18.4141 15.7705 18.4134 13.4004 18.4222 11.0295C18.4229 10.804 18.3539 10.7571 18.141 10.7578C15.7702 10.7651 13.3987 10.7659 11.0279 10.7578C10.8106 10.7571 10.7504 10.8091 10.7526 11.0303C10.7636 12.2205 10.7577 13.4106 10.7577 14.6008ZM10.7577 33.4006C10.7577 34.5908 10.7643 35.7817 10.7518 36.9719C10.7496 37.1968 10.815 37.2429 11.0294 37.2422C13.4009 37.2341 15.7724 37.2341 18.1432 37.2422C18.3612 37.2429 18.4222 37.188 18.4214 36.9675C18.4134 34.6062 18.4134 32.2449 18.4214 29.8843C18.4222 29.6367 18.3429 29.573 18.1043 29.5737C15.7526 29.5818 13.4001 29.5825 11.0485 29.5723C10.7893 29.5708 10.7504 29.6594 10.7526 29.8894C10.7636 31.0591 10.7577 32.2295 10.7577 33.4006ZM14.5749 27.8203C15.7555 27.8203 16.9369 27.8137 18.1175 27.8262C18.3649 27.8291 18.4229 27.7515 18.4222 27.5134C18.4134 25.1719 18.4134 22.8303 18.4222 20.488C18.4229 20.2529 18.3722 20.1709 18.1197 20.1724C15.7577 20.1819 13.3965 20.1804 11.0345 20.1738C10.8267 20.1731 10.7511 20.2112 10.7518 20.4426C10.7614 22.8135 10.7614 25.1843 10.7518 27.5552C10.7511 27.783 10.8209 27.8269 11.0323 27.8254C12.2129 27.8152 13.3935 27.8203 14.5749 27.8203Z" fill="#00C2FE" stroke="#00C2FE" stroke-linejoin="round"/>
</svg>
