<svg width="38" height="38" viewBox="0 0 38 38" fill="none" xmlns="http://www.w3.org/2000/svg">
<path d="M16.7344 16.6582C16.9141 16.7485 17.054 16.7184 17.1838 16.7184C17.783 16.7184 18.3923 16.7184 18.9915 16.7184V14.3906C18.2524 15.1431 17.5034 15.8856 16.7344 16.6582ZM17.2537 21.2033C17.1139 21.2033 16.9641 21.1732 16.7943 21.2534C16.8143 21.3939 16.9441 21.4641 17.024 21.5544C17.6732 22.2166 18.3323 22.8588 18.9815 23.521V21.2033C18.4122 21.2033 17.833 21.2033 17.2537 21.2033Z" fill="#F44B26"/>
<path d="M37.4151 23.1207C35.6674 30.8664 29.4853 36.6356 21.6753 37.7995C21.2458 37.8597 20.8064 37.8597 20.3769 38.0002H18.9787V27.2344C19.3183 26.9835 19.588 26.6524 19.7677 26.2511C20.1472 25.3983 19.9874 24.5655 19.2584 23.813C19.1685 23.7127 19.0686 23.6224 18.9787 23.522V21.2043C21.3157 21.2043 23.6527 21.2043 25.9798 21.2043C26.4292 21.2043 26.8886 21.2043 27.338 21.1742C27.9073 21.1341 28.3867 20.8833 28.7163 20.4217C29.2955 19.6291 29.3754 18.7562 28.956 17.8733C28.5565 17.0305 27.8274 16.7295 26.9286 16.7295C24.272 16.7295 21.6154 16.7295 18.9688 16.7295V14.4017C19.0486 14.3315 19.1186 14.2512 19.1885 14.181C19.578 13.7897 19.8876 13.3482 19.9475 12.7763C20.0274 12.0038 19.6379 11.1911 18.9688 10.6994V0.00390625C21.2259 0.0540729 23.5629 0.52564 25.9798 1.44871C34.5787 4.71957 39.4425 14.1308 37.4151 23.1207Z" fill="#D9330E"/>
<path d="M9.78263 17.3013C8.81387 18.2845 8.81387 19.629 9.78263 20.6123C11.8899 22.7594 14.0172 24.8764 16.1445 27.0035C16.534 27.3948 16.9934 27.6757 17.5726 27.6958C18.082 27.7159 18.5913 27.5453 19.0008 27.2343V38H17.5227C17.4828 37.9198 17.4029 37.9298 17.3329 37.9298C14.7962 37.699 12.3793 37.0268 10.1522 35.7827C4.6492 32.7225 1.36341 28.057 0.324744 21.8163C0.254834 21.3848 0.274808 20.9434 0.125 20.522V17.5621C0.264821 17.3314 0.224872 17.0605 0.254834 16.8197C0.794143 12.4652 2.53192 8.64249 5.69786 5.63248C9.68275 1.79975 14.157 -0.096551 18.9908 0.00378236V10.6893C18.871 10.599 18.7411 10.5187 18.6113 10.4585C17.7424 10.0371 16.8735 10.1876 16.0945 10.9602C13.9773 13.0672 11.87 15.1842 9.78263 17.3013Z" fill="#F44B26"/>
<path d="M16.7345 16.6603C16.9143 16.7506 17.0541 16.7205 17.1839 16.7205C20.4398 16.7205 23.6956 16.7205 26.9514 16.7205C27.8503 16.7205 28.5793 17.0215 28.9788 17.8643C29.3983 18.7473 29.3184 19.6202 28.7391 20.4128C28.3996 20.8743 27.9302 21.1252 27.3609 21.1653C26.9115 21.1954 26.4521 21.1954 26.0026 21.1954C23.0864 21.1954 20.1801 21.1954 17.2638 21.1954C17.124 21.1954 16.9742 21.1653 16.8044 21.2456C16.8244 21.386 16.9542 21.4563 17.0341 21.5466C17.7832 22.2991 18.5322 23.0415 19.2713 23.8041C20.0003 24.5566 20.1601 25.3893 19.7806 26.2422C19.3911 27.1251 18.4823 27.7171 17.5635 27.687C16.9942 27.6669 16.5348 27.386 16.1353 26.9947C14.008 24.8676 11.8807 22.7405 9.77344 20.6034C8.80469 19.6202 8.80469 18.2857 9.77344 17.2924C11.8608 15.1654 13.9681 13.0584 16.0854 10.9514C16.8644 10.1788 17.7332 10.0183 18.6021 10.4497C19.491 10.8912 20.0603 11.8443 19.9604 12.7574C19.9005 13.3293 19.6009 13.7707 19.2014 14.162C18.4024 14.9948 17.5834 15.8075 16.7345 16.6603Z" fill="#78BA96"/>
<path d="M28.7297 20.4289C28.3901 20.8904 27.9207 21.1412 27.3515 21.1814C26.9021 21.2115 26.4426 21.2115 25.9932 21.2115C23.6562 21.2115 21.3292 21.2115 18.9922 21.2115V16.7266C21.6488 16.7266 24.3054 16.7266 26.952 16.7266C27.8508 16.7266 28.5799 17.0276 28.9794 17.8704C29.3889 18.7633 29.309 19.6262 28.7297 20.4289Z" fill="#E4E4E4"/>
<path d="M19.7695 26.2603C19.5897 26.6516 19.32 26.9928 18.9805 27.2436V23.5312C19.0704 23.6316 19.1702 23.7219 19.2601 23.8222C19.9792 24.5747 20.149 25.3975 19.7695 26.2603Z" fill="#E4E4E4"/>
<path d="M19.9475 12.7957C19.8876 13.3676 19.578 13.809 19.1885 14.2003C19.1086 14.2806 19.0387 14.3508 18.9688 14.4211V10.7188C19.6379 11.2204 20.0274 12.0231 19.9475 12.7957Z" fill="#E4E4E4"/>
<path d="M18.9899 14.4009C18.2508 15.1434 17.5018 15.8959 16.7328 16.6685C16.9126 16.7588 17.0524 16.7287 17.1822 16.7287C17.7814 16.7287 18.3907 16.7287 18.9899 16.7287V21.2136C18.4106 21.2136 17.8314 21.2136 17.2521 21.2136C17.1123 21.2136 16.9625 21.1835 16.7927 21.2637C16.8127 21.4042 16.9425 21.4744 17.0224 21.5647C17.6716 22.2269 18.3307 22.8691 18.9799 23.5313V27.2436C18.5605 27.5546 18.0611 27.7252 17.5517 27.7051C16.9825 27.6851 16.5231 27.4041 16.1236 27.0128C13.9963 24.8858 11.869 22.7587 9.76173 20.6216C8.79297 19.6383 8.79297 18.3039 9.76173 17.3106C11.8491 15.1835 13.9563 13.0765 16.0736 10.9695C16.8526 10.1869 17.7215 10.0364 18.5904 10.4679C18.7202 10.5381 18.8501 10.6083 18.9699 10.6986V14.4009H18.9899Z" fill="#EEEEEE"/>
</svg>
