<svg width="26" height="26" viewBox="0 0 26 26" fill="none" xmlns="http://www.w3.org/2000/svg">
<rect x="1.02344" y="1" width="24" height="24" rx="5" stroke="black" stroke-width="1.5"/>
<path d="M1 13.0234H25" stroke="black" stroke-linecap="square"/>
<path d="M1.50668 4.02344C0.954394 4.02344 0.506678 4.47115 0.506678 5.02344C0.506678 5.57572 0.954394 6.02344 1.50668 6.02344V4.02344ZM24.5956 6.02344C25.1479 6.02344 25.5956 5.57572 25.5956 5.02344C25.5956 4.47115 25.1479 4.02344 24.5956 4.02344V6.02344ZM1.38672 20.0234C0.834434 20.0234 0.386719 20.4712 0.386719 21.0234C0.386719 21.5757 0.834434 22.0234 1.38672 22.0234V20.0234ZM24 22.0234C24.5523 22.0234 25 21.5757 25 21.0234C25 20.4712 24.5523 20.0234 24 20.0234V22.0234ZM1.50668 6.02344H24.5956V4.02344H1.50668V6.02344ZM1.38672 22.0234H24V20.0234H1.38672V22.0234Z" fill="black"/>
</svg>
