<svg width="26" height="26" viewBox="0 0 26 26" fill="none" xmlns="http://www.w3.org/2000/svg">
<rect x="1" y="1" width="24" height="24" rx="5" stroke="black" stroke-width="1.5"/>
<path d="M1 6.8H0.8V7.2H1V6.8ZM25 7.2H25.2V6.8H25V7.2ZM1 7.2H1.25V6.8H1V7.2ZM1.75 7.2H2.25V6.8H1.75V7.2ZM2.75 7.2H3.25V6.8H2.75V7.2ZM3.75 7.2H4.25V6.8H3.75V7.2ZM4.75 7.2H5.25V6.8H4.75V7.2ZM5.75 7.2H6.25V6.8H5.75V7.2ZM6.75 7.2H7.25V6.8H6.75V7.2ZM7.75 7.2H8.25V6.8H7.75V7.2ZM8.75 7.2H9.25V6.8H8.75V7.2ZM9.75 7.2H10.25V6.8H9.75V7.2ZM10.75 7.2H11.25V6.8H10.75V7.2ZM11.75 7.2H12.25V6.8H11.75V7.2ZM12.75 7.2H13.25V6.8H12.75V7.2ZM13.75 7.2H14.25V6.8H13.75V7.2ZM14.75 7.2H15.25V6.8H14.75V7.2ZM15.75 7.2H16.25V6.8H15.75V7.2ZM16.75 7.2H17.25V6.8H16.75V7.2ZM17.75 7.2H18.25V6.8H17.75V7.2ZM18.75 7.2H19.25V6.8H18.75V7.2ZM19.75 7.2H20.25V6.8H19.75V7.2ZM20.75 7.2H21.25V6.8H20.75V7.2ZM21.75 7.2H22.25V6.8H21.75V7.2ZM22.75 7.2H23.25V6.8H22.75V7.2ZM23.75 7.2H24.25V6.8H23.75V7.2ZM24.75 7.2H25V6.8H24.75V7.2Z" fill="black"/>
<path d="M1 18.8H0.8V19.2H1V18.8ZM25 19.2H25.2V18.8H25V19.2ZM1 19.2H1.25V18.8H1V19.2ZM1.75 19.2H2.25V18.8H1.75V19.2ZM2.75 19.2H3.25V18.8H2.75V19.2ZM3.75 19.2H4.25V18.8H3.75V19.2ZM4.75 19.2H5.25V18.8H4.75V19.2ZM5.75 19.2H6.25V18.8H5.75V19.2ZM6.75 19.2H7.25V18.8H6.75V19.2ZM7.75 19.2H8.25V18.8H7.75V19.2ZM8.75 19.2H9.25V18.8H8.75V19.2ZM9.75 19.2H10.25V18.8H9.75V19.2ZM10.75 19.2H11.25V18.8H10.75V19.2ZM11.75 19.2H12.25V18.8H11.75V19.2ZM12.75 19.2H13.25V18.8H12.75V19.2ZM13.75 19.2H14.25V18.8H13.75V19.2ZM14.75 19.2H15.25V18.8H14.75V19.2ZM15.75 19.2H16.25V18.8H15.75V19.2ZM16.75 19.2H17.25V18.8H16.75V19.2ZM17.75 19.2H18.25V18.8H17.75V19.2ZM18.75 19.2H19.25V18.8H18.75V19.2ZM19.75 19.2H20.25V18.8H19.75V19.2ZM20.75 19.2H21.25V18.8H20.75V19.2ZM21.75 19.2H22.25V18.8H21.75V19.2ZM22.75 19.2H23.25V18.8H22.75V19.2ZM23.75 19.2H24.25V18.8H23.75V19.2ZM24.75 19.2H25V18.8H24.75V19.2Z" fill="black"/>
<path d="M6.8 25L6.8 25.2L7.2 25.2L7.2 25L6.8 25ZM7.2 1L7.2 0.799999L6.8 0.799999L6.8 1L7.2 1ZM7.2 25L7.2 24.75L6.8 24.75L6.8 25L7.2 25ZM7.2 24.25L7.2 23.75L6.8 23.75L6.8 24.25L7.2 24.25ZM7.2 23.25L7.2 22.75L6.8 22.75L6.8 23.25L7.2 23.25ZM7.2 22.25L7.2 21.75L6.8 21.75L6.8 22.25L7.2 22.25ZM7.2 21.25L7.2 20.75L6.8 20.75L6.8 21.25L7.2 21.25ZM7.2 20.25L7.2 19.75L6.8 19.75L6.8 20.25L7.2 20.25ZM7.2 19.25L7.2 18.75L6.8 18.75L6.8 19.25L7.2 19.25ZM7.2 18.25L7.2 17.75L6.8 17.75L6.8 18.25L7.2 18.25ZM7.2 17.25L7.2 16.75L6.8 16.75L6.8 17.25L7.2 17.25ZM7.2 16.25L7.2 15.75L6.8 15.75L6.8 16.25L7.2 16.25ZM7.2 15.25L7.2 14.75L6.8 14.75L6.8 15.25L7.2 15.25ZM7.2 14.25L7.2 13.75L6.8 13.75L6.8 14.25L7.2 14.25ZM7.2 13.25L7.2 12.75L6.8 12.75L6.8 13.25L7.2 13.25ZM7.2 12.25L7.2 11.75L6.8 11.75L6.8 12.25L7.2 12.25ZM7.2 11.25L7.2 10.75L6.8 10.75L6.8 11.25L7.2 11.25ZM7.2 10.25L7.2 9.75L6.8 9.75L6.8 10.25L7.2 10.25ZM7.2 9.25L7.2 8.75L6.8 8.75L6.8 9.25L7.2 9.25ZM7.2 8.25L7.2 7.75L6.8 7.75L6.8 8.25L7.2 8.25ZM7.2 7.25L7.2 6.75L6.8 6.75L6.8 7.25L7.2 7.25ZM7.2 6.25L7.2 5.75L6.8 5.75L6.8 6.25L7.2 6.25ZM7.2 5.25L7.2 4.75L6.8 4.75L6.8 5.25L7.2 5.25ZM7.2 4.25L7.2 3.75L6.8 3.75L6.8 4.25L7.2 4.25ZM7.2 3.25L7.2 2.75L6.8 2.75L6.8 3.25L7.2 3.25ZM7.2 2.25L7.2 1.75L6.8 1.75L6.8 2.25L7.2 2.25ZM7.2 1.25L7.2 1L6.8 1L6.8 1.25L7.2 1.25Z" fill="black"/>
<path d="M19.8 25L19.8 25.2L20.2 25.2L20.2 25L19.8 25ZM20.2 1L20.2 0.799999L19.8 0.799999L19.8 1L20.2 1ZM20.2 25L20.2 24.75L19.8 24.75L19.8 25L20.2 25ZM20.2 24.25L20.2 23.75L19.8 23.75L19.8 24.25L20.2 24.25ZM20.2 23.25L20.2 22.75L19.8 22.75L19.8 23.25L20.2 23.25ZM20.2 22.25L20.2 21.75L19.8 21.75L19.8 22.25L20.2 22.25ZM20.2 21.25L20.2 20.75L19.8 20.75L19.8 21.25L20.2 21.25ZM20.2 20.25L20.2 19.75L19.8 19.75L19.8 20.25L20.2 20.25ZM20.2 19.25L20.2 18.75L19.8 18.75L19.8 19.25L20.2 19.25ZM20.2 18.25L20.2 17.75L19.8 17.75L19.8 18.25L20.2 18.25ZM20.2 17.25L20.2 16.75L19.8 16.75L19.8 17.25L20.2 17.25ZM20.2 16.25L20.2 15.75L19.8 15.75L19.8 16.25L20.2 16.25ZM20.2 15.25L20.2 14.75L19.8 14.75L19.8 15.25L20.2 15.25ZM20.2 14.25L20.2 13.75L19.8 13.75L19.8 14.25L20.2 14.25ZM20.2 13.25L20.2 12.75L19.8 12.75L19.8 13.25L20.2 13.25ZM20.2 12.25L20.2 11.75L19.8 11.75L19.8 12.25L20.2 12.25ZM20.2 11.25L20.2 10.75L19.8 10.75L19.8 11.25L20.2 11.25ZM20.2 10.25L20.2 9.75L19.8 9.75L19.8 10.25L20.2 10.25ZM20.2 9.25L20.2 8.75L19.8 8.75L19.8 9.25L20.2 9.25ZM20.2 8.25L20.2 7.75L19.8 7.75L19.8 8.25L20.2 8.25ZM20.2 7.25L20.2 6.75L19.8 6.75L19.8 7.25L20.2 7.25ZM20.2 6.25L20.2 5.75L19.8 5.75L19.8 6.25L20.2 6.25ZM20.2 5.25L20.2 4.75L19.8 4.75L19.8 5.25L20.2 5.25ZM20.2 4.25L20.2 3.75L19.8 3.75L19.8 4.25L20.2 4.25ZM20.2 3.25L20.2 2.75L19.8 2.75L19.8 3.25L20.2 3.25ZM20.2 2.25L20.2 1.75L19.8 1.75L19.8 2.25L20.2 2.25ZM20.2 1.25L20.2 1L19.8 1L19.8 1.25L20.2 1.25Z" fill="black"/>
<path d="M12.4648 24.582C12.4648 25.1343 12.9126 25.582 13.4648 25.582C14.0171 25.582 14.4648 25.1343 14.4648 24.582L12.4648 24.582ZM14.4648 1.4931C14.4648 0.940815 14.0171 0.493099 13.4648 0.493099C12.9126 0.493099 12.4648 0.940815 12.4648 1.4931L14.4648 1.4931ZM14.4648 24.582L14.4648 1.4931L12.4648 1.4931L12.4648 24.582L14.4648 24.582Z" fill="black"/>
<path d="M24.5977 14C25.1499 14 25.5977 13.5523 25.5977 13C25.5977 12.4477 25.1499 12 24.5977 12L24.5977 14ZM1.60501 12C1.05272 12 0.605005 12.4477 0.605005 13C0.605005 13.5523 1.05272 14 1.60501 14L1.60501 12ZM24.5977 12L1.60501 12L1.60501 14L24.5977 14L24.5977 12Z" fill="black"/>
</svg>
