<svg width="210" height="120" viewBox="0 0 210 120" fill="none" xmlns="http://www.w3.org/2000/svg">
<g clip-path="url(#clip0_4823_102924)">
<g opacity="0.3">
<path d="M1928.66 1L1.00073 0.999814" stroke="black"/>
<path d="M1 1084.44L1.00025 1.00302" stroke="black"/>
</g>
<path fill-rule="evenodd" clip-rule="evenodd" d="M107.381 1.23628C107.381 1.10632 107.499 1.00098 107.645 1.00098C107.79 1.00098 107.908 1.10632 107.908 1.23628V33.5698L142.846 33.5698L142.849 33.5698C142.85 33.5698 142.851 33.5698 142.851 33.5698L177.799 33.5698V1.23628C177.799 1.10632 177.917 1.00098 178.062 1.00098C178.208 1.00098 178.326 1.10632 178.326 1.23628V33.5698L213.252 33.5698C213.397 33.5698 213.515 33.6752 213.515 33.8051C213.515 33.9351 213.397 34.0404 213.252 34.0404L178.326 34.0404V64.0144C178.326 64.1444 178.208 64.2497 178.062 64.2497C177.917 64.2497 177.799 64.1444 177.799 64.0144V34.0404L142.849 34.0404L142.846 34.0404C142.845 34.0404 142.844 34.0404 142.844 34.0404L107.908 34.0404V64.0144C107.908 64.1444 107.79 64.2497 107.645 64.2497C107.499 64.2497 107.381 64.1444 107.381 64.0144V34.0404L72.4436 34.0404C72.4219 34.0404 72.4009 34.0381 72.3807 34.0337H37.5076V65.0077C37.5076 65.1376 37.3894 65.243 37.2437 65.243C37.098 65.243 36.9798 65.1376 36.9798 65.0077V34.0337L2.04123 34.0337C1.89549 34.0337 1.77735 33.9284 1.77734 33.7984C1.77734 33.6685 1.89549 33.5631 2.04123 33.5631L36.9798 33.5631V2.22951C36.9798 2.09956 37.098 1.99422 37.2437 1.99422C37.3894 1.99422 37.5076 2.09956 37.5076 2.22951V33.5631L72.4468 33.5631C72.4685 33.5631 72.4895 33.5654 72.5097 33.5698L107.381 33.5698V1.23628Z" fill="black"/>
<path fill-rule="evenodd" clip-rule="evenodd" d="M36.9783 64.8007C36.9783 64.6708 37.0964 64.5654 37.2422 64.5654C37.3879 64.5654 37.5061 64.6708 37.5061 64.8007V99.1347L71.4351 99.1347C71.5808 99.1347 71.699 99.24 71.699 99.37C71.699 99.4999 71.5808 99.6053 71.4351 99.6053L37.5061 99.6053V127.579C37.5061 127.709 37.3879 127.814 37.2422 127.814C37.0964 127.814 36.9783 127.709 36.9783 127.579V99.6053L1.02951 99.6053C0.883772 99.6053 0.765628 99.4999 0.765625 99.37C0.765625 99.24 0.883772 99.1347 1.02951 99.1347L36.9783 99.1347V64.8007ZM107.381 64.8074C107.381 64.6775 107.499 64.5721 107.645 64.5721C107.791 64.5721 107.909 64.6775 107.909 64.8074V99.1413L142.842 99.1413C142.988 99.1413 143.106 99.2467 143.106 99.3766C143.106 99.5066 142.988 99.6119 142.842 99.6119L107.909 99.6119V127.586C107.909 127.716 107.791 127.821 107.645 127.821C107.499 127.821 107.381 127.716 107.381 127.586V99.6119L72.4364 99.6119C72.2907 99.6119 72.1725 99.5066 72.1725 99.3766C72.1725 99.2467 72.2907 99.1413 72.4364 99.1413L107.381 99.1413V64.8074ZM178.061 64.5721C177.915 64.5721 177.797 64.6775 177.797 64.8074V99.1413L143.84 99.1413C143.694 99.1413 143.576 99.2467 143.576 99.3766C143.576 99.5066 143.694 99.6119 143.84 99.6119L177.797 99.6119V127.586C177.797 127.716 177.915 127.821 178.061 127.821C178.206 127.821 178.325 127.716 178.325 127.586V99.6119L214.246 99.6119C214.392 99.6119 214.51 99.5066 214.51 99.3766C214.51 99.2467 214.392 99.1413 214.246 99.1413L178.325 99.1413V64.8074C178.325 64.6775 178.206 64.5721 178.061 64.5721Z" fill="black"/>
<path d="M72.4414 1.77246L72.4414 1092.19" stroke="#429DD1"/>
<path d="M143.012 1.21094L143.012 1091.63" stroke="#429DD1"/>
<path d="M1931.55 64.1543H1.16681" stroke="#429DD1"/>
</g>
<defs>
<clipPath id="clip0_4823_102924">
<rect width="210" height="120" fill="white"/>
</clipPath>
</defs>
</svg>
