<svg width="1920" height="1080" viewBox="0 0 1920 1080" fill="none" xmlns="http://www.w3.org/2000/svg">
<g opacity="0.3">
<path d="M1929.01 -0.345703L-2.24327 -0.345847" stroke="black"/>
<path d="M1927.55 44.5967L-3.00581 44.5965" stroke="black"/>
<path d="M1927.55 89.5391L-3.00581 89.5389" stroke="black"/>
<path d="M1929.01 134.479L-2.24327 134.478" stroke="black"/>
<path d="M1927.55 179.421L-3.00581 179.421" stroke="black"/>
<path d="M1927.55 224.36L-3.00581 224.36" stroke="black"/>
<path d="M1929.01 270.548L-2.24327 270.548" stroke="black"/>
<path d="M1927.55 315.489L-3.00581 315.489" stroke="black"/>
<path d="M1927.55 360.432L-3.00581 360.432" stroke="black"/>
<path d="M1929.01 406.62L-2.24327 406.62" stroke="black"/>
<path d="M1927.55 451.562L-3.00581 451.562" stroke="black"/>
<path d="M1927.55 496.502L-3.00581 496.502" stroke="black"/>
<path d="M1929.01 542.688L-2.24327 542.687" stroke="black"/>
<path d="M1927.55 587.629L-3.00581 587.629" stroke="black"/>
<path d="M1927.55 632.571L-3.00581 632.571" stroke="black"/>
<path d="M1929.01 678.76L-2.24327 678.76" stroke="black"/>
<path d="M1927.55 723.7L-3.00581 723.7" stroke="black"/>
<path d="M1927.55 768.64L-3.00581 768.64" stroke="black"/>
<path d="M1929.01 814.831L-2.24327 814.831" stroke="black"/>
<path d="M1927.55 859.771L-3.00581 859.77" stroke="black"/>
<path d="M1927.55 904.713L-3.00581 904.713" stroke="black"/>
<path d="M1929.01 950.901L-2.24327 950.901" stroke="black"/>
<path d="M1927.55 995.843L-3.00581 995.843" stroke="black"/>
<path d="M1927.55 1040.79L-3.00581 1040.79" stroke="black"/>
</g>
</svg>
