<svg width="210" height="120" viewBox="0 0 210 120" fill="none" xmlns="http://www.w3.org/2000/svg">
<g clip-path="url(#clip0_4823_100296)">
<rect x="1.82163" y="2.18589" width="34.5862" height="29.214" stroke="#2080B7" stroke-width="0.369818"/>
<path fill-rule="evenodd" clip-rule="evenodd" d="M5.63397 5.24122C5.58525 5.19999 5.51233 5.20606 5.47109 5.25478C5.42986 5.3035 5.43593 5.37642 5.48465 5.41765L19.3618 17.1621L19.1743 17.3208L5.55835 17.3208C5.48945 17.3208 5.4336 17.3681 5.43359 17.4264C5.43359 17.4847 5.48945 17.532 5.55835 17.532L18.9248 17.532L6.35759 28.1678C6.30887 28.209 6.3028 28.2819 6.34404 28.3306C6.38527 28.3794 6.45819 28.3854 6.50691 28.3442L19.2825 17.532L19.4159 17.532L19.4159 28.2569C19.4159 28.3152 19.4717 28.3625 19.5406 28.3625C19.6095 28.3625 19.6654 28.3152 19.6654 28.2569L19.6654 17.532L19.7989 17.532L32.5756 28.3451C32.6243 28.3863 32.6972 28.3803 32.7385 28.3316C32.7797 28.2828 32.7736 28.2099 32.7249 28.1687L20.1567 17.532L32.6493 17.532C32.7182 17.532 32.774 17.4848 32.774 17.4264C32.774 17.3681 32.7182 17.3209 32.6493 17.3209L19.9072 17.3208L19.7196 17.1621L32.7239 6.15634C32.7727 6.11511 32.7787 6.04218 32.7375 5.99346C32.6963 5.94474 32.6233 5.93867 32.5746 5.97991L19.6654 16.9051L19.6655 5.32944C19.6655 5.27113 19.6096 5.22385 19.5407 5.22385C19.4718 5.22385 19.416 5.27113 19.416 5.32944L19.4159 16.9051L5.63397 5.24122Z" fill="#2080B7"/>
<rect x="105.279" y="2.18589" width="34.5862" height="29.214" stroke="#2080B7" stroke-width="0.369818"/>
<path fill-rule="evenodd" clip-rule="evenodd" d="M109.103 5.24122C109.054 5.19999 108.981 5.20606 108.94 5.25478C108.899 5.3035 108.905 5.37642 108.953 5.41765L122.831 17.1626L122.644 17.3208L109.027 17.3208C108.958 17.3208 108.902 17.3681 108.902 17.4264C108.902 17.4847 108.958 17.532 109.027 17.532L122.395 17.532L109.826 28.1688C109.778 28.21 109.772 28.2829 109.813 28.3316C109.854 28.3804 109.927 28.3864 109.976 28.3452L122.752 17.532L122.885 17.532L122.885 28.2569C122.885 28.3152 122.94 28.3625 123.009 28.3625C123.078 28.3625 123.134 28.3152 123.134 28.2569L123.134 17.532L123.268 17.532L136.044 28.3451C136.093 28.3863 136.166 28.3803 136.207 28.3316C136.248 28.2828 136.242 28.2099 136.194 28.1687L123.625 17.532L136.118 17.532C136.187 17.532 136.243 17.4848 136.243 17.4264C136.243 17.3681 136.187 17.3209 136.118 17.3209L123.376 17.3208L123.189 17.1626L136.193 6.15733C136.241 6.1161 136.247 6.04318 136.206 5.99446C136.165 5.94574 136.092 5.93967 136.043 5.9809L123.134 16.9061L123.134 5.32944C123.134 5.27113 123.078 5.22385 123.009 5.22385C122.941 5.22385 122.885 5.27113 122.885 5.32944L122.885 16.9051L109.103 5.24122Z" fill="#2080B7"/>
<rect x="36.3021" y="2.18589" width="34.5862" height="29.214" stroke="#2080B7" stroke-width="0.369818"/>
<path fill-rule="evenodd" clip-rule="evenodd" d="M40.1301 5.24122C40.0813 5.19999 40.0084 5.20606 39.9672 5.25478C39.926 5.3035 39.932 5.37642 39.9807 5.41765L53.8585 17.1626L53.6715 17.3208L40.0544 17.3208C39.9855 17.3208 39.9297 17.3681 39.9297 17.4264C39.9297 17.4847 39.9855 17.532 40.0544 17.532L53.422 17.532L40.8537 28.1688C40.805 28.21 40.7989 28.2829 40.8401 28.3316C40.8814 28.3804 40.9543 28.3864 41.003 28.3452L53.7798 17.532L53.912 17.532L53.912 28.2569C53.912 28.3152 53.9678 28.3625 54.0367 28.3625C54.1056 28.3625 54.1615 28.3152 54.1615 28.2569L54.1615 17.532L54.295 17.532L67.0717 28.3451C67.1204 28.3863 67.1933 28.3803 67.2346 28.3316C67.2758 28.2828 67.2697 28.2099 67.221 28.1687L54.6528 17.532L67.1454 17.532C67.2143 17.532 67.2701 17.4848 67.2701 17.4264C67.2701 17.3681 67.2143 17.3209 67.1454 17.3209L54.4032 17.3208L54.2163 17.1626L67.22 6.15733C67.2688 6.1161 67.2748 6.04318 67.2336 5.99446C67.1924 5.94574 67.1194 5.93967 67.0707 5.9809L54.1615 16.9061L54.1616 5.32944C54.1616 5.27113 54.1057 5.22385 54.0368 5.22385C53.9679 5.22385 53.9121 5.27113 53.9121 5.32944L53.912 16.9051L40.1301 5.24122Z" fill="#2080B7"/>
<rect x="70.7787" y="2.18589" width="34.5862" height="29.214" stroke="#2080B7" stroke-width="0.369818"/>
<path fill-rule="evenodd" clip-rule="evenodd" d="M74.6027 5.24122C74.554 5.19999 74.4811 5.20606 74.4398 5.25478C74.3986 5.3035 74.4047 5.37642 74.4534 5.41765L88.3306 17.1621L88.143 17.3208L74.5271 17.3208C74.4582 17.3208 74.4023 17.3681 74.4023 17.4264C74.4023 17.4847 74.4582 17.532 74.5271 17.532L87.8935 17.532L75.3263 28.1678C75.2776 28.209 75.2716 28.2819 75.3128 28.3306C75.354 28.3794 75.4269 28.3854 75.4757 28.3442L88.2513 17.532L88.3847 17.532L88.3846 28.2569C88.3846 28.3152 88.4405 28.3625 88.5094 28.3625C88.5783 28.3625 88.6342 28.3152 88.6342 28.2569L88.6342 17.532L88.7676 17.532L101.544 28.3451C101.593 28.3863 101.666 28.3803 101.707 28.3316C101.748 28.2828 101.742 28.2099 101.694 28.1687L89.1254 17.532L101.618 17.532C101.687 17.532 101.743 17.4848 101.743 17.4264C101.743 17.3681 101.687 17.3209 101.618 17.3209L88.8759 17.3208L88.6884 17.1621L101.693 6.15634C101.741 6.11511 101.747 6.04218 101.706 5.99346C101.665 5.94474 101.592 5.93867 101.543 5.97991L88.6342 16.9051L88.6342 5.32944C88.6342 5.27113 88.5784 5.22385 88.5095 5.22385C88.4406 5.22385 88.3847 5.27113 88.3847 5.32944L88.3847 16.9051L74.6027 5.24122Z" fill="#2080B7"/>
<rect x="139.751" y="2.18589" width="34.5862" height="29.214" stroke="#2080B7" stroke-width="0.369818"/>
<path fill-rule="evenodd" clip-rule="evenodd" d="M143.568 5.24122C143.519 5.19999 143.446 5.20606 143.405 5.25478C143.363 5.3035 143.37 5.37642 143.418 5.41765L157.296 17.1626L157.109 17.3208L143.492 17.3208C143.423 17.3208 143.367 17.3681 143.367 17.4264C143.367 17.4847 143.423 17.532 143.492 17.532L156.86 17.532L144.291 28.1688C144.242 28.21 144.236 28.2829 144.278 28.3316C144.319 28.3804 144.392 28.3864 144.441 28.3452L157.217 17.532L157.35 17.532L157.349 28.2569C157.349 28.3152 157.405 28.3625 157.474 28.3625C157.543 28.3625 157.599 28.3152 157.599 28.2569L157.599 17.532L157.732 17.532L170.509 28.3451C170.558 28.3863 170.631 28.3803 170.672 28.3316C170.713 28.2828 170.707 28.2099 170.658 28.1687L158.09 17.532L170.583 17.532C170.652 17.532 170.708 17.4848 170.708 17.4264C170.708 17.3681 170.652 17.3209 170.583 17.3209L157.841 17.3208L157.654 17.1626L170.658 6.15733C170.706 6.1161 170.712 6.04318 170.671 5.99446C170.63 5.94574 170.557 5.93967 170.508 5.9809L157.599 16.9061L157.599 5.32944C157.599 5.27113 157.543 5.22385 157.474 5.22385C157.405 5.22385 157.35 5.27113 157.35 5.32944L157.35 16.9051L143.568 5.24122Z" fill="#2080B7"/>
<rect x="174.228" y="2.18589" width="34.5862" height="29.214" stroke="#2080B7" stroke-width="0.369818"/>
<path fill-rule="evenodd" clip-rule="evenodd" d="M178.044 5.24122C177.995 5.19999 177.922 5.20606 177.881 5.25478C177.84 5.3035 177.846 5.37642 177.895 5.41765L191.772 17.1621L191.584 17.3208L177.969 17.3208C177.9 17.3208 177.844 17.3681 177.844 17.4264C177.844 17.4847 177.9 17.532 177.969 17.532L191.335 17.532L178.768 28.1678C178.719 28.209 178.713 28.2819 178.754 28.3306C178.795 28.3794 178.868 28.3854 178.917 28.3442L191.693 17.532L191.826 17.532L191.826 28.2569C191.826 28.3152 191.882 28.3625 191.951 28.3625C192.02 28.3625 192.076 28.3152 192.076 28.2569L192.076 17.532L192.209 17.532L204.986 28.3451C205.034 28.3863 205.107 28.3803 205.149 28.3316C205.19 28.2828 205.184 28.2099 205.135 28.1687L192.567 17.532L205.059 17.532C205.128 17.532 205.184 17.4848 205.184 17.4264C205.184 17.3681 205.128 17.3209 205.059 17.3209L192.317 17.3208L192.13 17.1621L205.134 6.15634C205.183 6.11511 205.189 6.04218 205.148 5.99346C205.106 5.94474 205.034 5.93867 204.985 5.97991L192.076 16.9051L192.076 5.32944C192.076 5.27113 192.02 5.22385 191.951 5.22385C191.882 5.22385 191.826 5.27113 191.826 5.32944L191.826 16.9051L178.044 5.24122Z" fill="#2080B7"/>
<rect x="1.82163" y="89.6009" width="34.5862" height="29.214" stroke="#2080B7" stroke-width="0.369818"/>
<path fill-rule="evenodd" clip-rule="evenodd" d="M5.63397 92.6553C5.58525 92.6141 5.51233 92.6201 5.47109 92.6688C5.42986 92.7176 5.43593 92.7905 5.48465 92.8317L19.3618 104.576L19.1743 104.735L5.55835 104.735C5.48945 104.735 5.4336 104.782 5.43359 104.84C5.43359 104.899 5.48945 104.946 5.55835 104.946L18.9248 104.946L6.35759 115.582C6.30887 115.623 6.3028 115.696 6.34404 115.745C6.38527 115.793 6.45819 115.799 6.50691 115.758L19.2825 104.946L19.4159 104.946L19.4159 115.671C19.4159 115.729 19.4717 115.777 19.5406 115.777C19.6095 115.777 19.6654 115.729 19.6654 115.671L19.6654 104.946L19.7989 104.946L32.5756 115.759C32.6243 115.8 32.6972 115.794 32.7385 115.746C32.7797 115.697 32.7736 115.624 32.7249 115.583L20.1567 104.946L32.6493 104.946C32.7182 104.946 32.774 104.899 32.774 104.841C32.774 104.782 32.7182 104.735 32.6493 104.735L19.9072 104.735L19.7196 104.576L32.7239 93.5704C32.7727 93.5292 32.7787 93.4562 32.7375 93.4075C32.6963 93.3588 32.6233 93.3527 32.5746 93.394L19.6654 104.319L19.6655 92.7435C19.6655 92.6852 19.6096 92.6379 19.5407 92.6379C19.4718 92.6379 19.416 92.6852 19.416 92.7435L19.4159 104.319L5.63397 92.6553Z" fill="#2080B7"/>
<rect x="105.279" y="89.6009" width="34.5862" height="29.214" stroke="#2080B7" stroke-width="0.369818"/>
<path fill-rule="evenodd" clip-rule="evenodd" d="M109.103 92.6553C109.054 92.6141 108.981 92.6201 108.94 92.6688C108.899 92.7176 108.905 92.7905 108.953 92.8317L122.831 104.577L122.644 104.735L109.027 104.735C108.958 104.735 108.902 104.782 108.902 104.84C108.902 104.899 108.958 104.946 109.027 104.946L122.395 104.946L109.826 115.583C109.778 115.624 109.772 115.697 109.813 115.746C109.854 115.794 109.927 115.8 109.976 115.759L122.752 104.946L122.885 104.946L122.885 115.671C122.885 115.729 122.94 115.777 123.009 115.777C123.078 115.777 123.134 115.729 123.134 115.671L123.134 104.946L123.268 104.946L136.044 115.759C136.093 115.8 136.166 115.794 136.207 115.746C136.248 115.697 136.242 115.624 136.194 115.583L123.625 104.946L136.118 104.946C136.187 104.946 136.243 104.899 136.243 104.841C136.243 104.782 136.187 104.735 136.118 104.735L123.376 104.735L123.189 104.577L136.193 93.5714C136.241 93.5302 136.247 93.4572 136.206 93.4085C136.165 93.3598 136.092 93.3537 136.043 93.395L123.134 104.32L123.134 92.7435C123.134 92.6852 123.078 92.6379 123.009 92.6379C122.941 92.6379 122.885 92.6852 122.885 92.7435L122.885 104.319L109.103 92.6553Z" fill="#2080B7"/>
<rect x="36.3021" y="89.6009" width="34.5862" height="29.214" stroke="#2080B7" stroke-width="0.369818"/>
<path fill-rule="evenodd" clip-rule="evenodd" d="M40.1301 92.6553C40.0813 92.6141 40.0084 92.6201 39.9672 92.6688C39.926 92.7176 39.932 92.7905 39.9807 92.8317L53.8585 104.577L53.6715 104.735L40.0544 104.735C39.9855 104.735 39.9297 104.782 39.9297 104.84C39.9297 104.899 39.9855 104.946 40.0544 104.946L53.422 104.946L40.8537 115.583C40.805 115.624 40.7989 115.697 40.8401 115.746C40.8814 115.794 40.9543 115.8 41.003 115.759L53.7798 104.946L53.912 104.946L53.912 115.671C53.912 115.729 53.9678 115.777 54.0367 115.777C54.1056 115.777 54.1615 115.729 54.1615 115.671L54.1615 104.946L54.295 104.946L67.0717 115.759C67.1204 115.8 67.1933 115.794 67.2346 115.746C67.2758 115.697 67.2697 115.624 67.221 115.583L54.6528 104.946L67.1454 104.946C67.2143 104.946 67.2701 104.899 67.2701 104.841C67.2701 104.782 67.2143 104.735 67.1454 104.735L54.4032 104.735L54.2163 104.577L67.22 93.5714C67.2688 93.5302 67.2748 93.4572 67.2336 93.4085C67.1924 93.3598 67.1194 93.3537 67.0707 93.395L54.1615 104.32L54.1616 92.7435C54.1616 92.6852 54.1057 92.6379 54.0368 92.6379C53.9679 92.6379 53.9121 92.6852 53.9121 92.7435L53.912 104.319L40.1301 92.6553Z" fill="#2080B7"/>
<rect x="70.7787" y="89.6009" width="34.5862" height="29.214" stroke="#2080B7" stroke-width="0.369818"/>
<path fill-rule="evenodd" clip-rule="evenodd" d="M74.6027 92.6553C74.554 92.6141 74.4811 92.6201 74.4398 92.6688C74.3986 92.7176 74.4047 92.7905 74.4534 92.8317L88.3306 104.576L88.143 104.735L74.5271 104.735C74.4582 104.735 74.4023 104.782 74.4023 104.84C74.4023 104.899 74.4582 104.946 74.5271 104.946L87.8935 104.946L75.3263 115.582C75.2776 115.623 75.2716 115.696 75.3128 115.745C75.354 115.793 75.4269 115.799 75.4757 115.758L88.2513 104.946L88.3847 104.946L88.3846 115.671C88.3846 115.729 88.4405 115.777 88.5094 115.777C88.5783 115.777 88.6342 115.729 88.6342 115.671L88.6342 104.946L88.7676 104.946L101.544 115.759C101.593 115.8 101.666 115.794 101.707 115.746C101.748 115.697 101.742 115.624 101.694 115.583L89.1254 104.946L101.618 104.946C101.687 104.946 101.743 104.899 101.743 104.841C101.743 104.782 101.687 104.735 101.618 104.735L88.8759 104.735L88.6884 104.576L101.693 93.5704C101.741 93.5292 101.747 93.4562 101.706 93.4075C101.665 93.3588 101.592 93.3527 101.543 93.394L88.6342 104.319L88.6342 92.7435C88.6342 92.6852 88.5784 92.6379 88.5095 92.6379C88.4406 92.6379 88.3847 92.6852 88.3847 92.7435L88.3847 104.319L74.6027 92.6553Z" fill="#2080B7"/>
<rect x="139.751" y="89.6009" width="34.5862" height="29.214" stroke="#2080B7" stroke-width="0.369818"/>
<path fill-rule="evenodd" clip-rule="evenodd" d="M143.568 92.6553C143.519 92.6141 143.446 92.6201 143.405 92.6688C143.363 92.7176 143.37 92.7905 143.418 92.8317L157.296 104.577L157.109 104.735L143.492 104.735C143.423 104.735 143.367 104.782 143.367 104.84C143.367 104.899 143.423 104.946 143.492 104.946L156.86 104.946L144.291 115.583C144.242 115.624 144.236 115.697 144.278 115.746C144.319 115.794 144.392 115.8 144.441 115.759L157.217 104.946L157.35 104.946L157.349 115.671C157.349 115.729 157.405 115.777 157.474 115.777C157.543 115.777 157.599 115.729 157.599 115.671L157.599 104.946L157.732 104.946L170.509 115.759C170.558 115.8 170.631 115.794 170.672 115.746C170.713 115.697 170.707 115.624 170.658 115.583L158.09 104.946L170.583 104.946C170.652 104.946 170.708 104.899 170.708 104.841C170.708 104.782 170.652 104.735 170.583 104.735L157.841 104.735L157.654 104.577L170.658 93.5714C170.706 93.5302 170.712 93.4572 170.671 93.4085C170.63 93.3598 170.557 93.3537 170.508 93.395L157.599 104.32L157.599 92.7435C157.599 92.6852 157.543 92.6379 157.474 92.6379C157.405 92.6379 157.35 92.6852 157.35 92.7435L157.35 104.319L143.568 92.6553Z" fill="#2080B7"/>
<rect x="174.228" y="89.6009" width="34.5862" height="29.214" stroke="#2080B7" stroke-width="0.369818"/>
<path fill-rule="evenodd" clip-rule="evenodd" d="M178.044 92.6553C177.995 92.6141 177.922 92.6201 177.881 92.6688C177.84 92.7176 177.846 92.7905 177.895 92.8317L191.772 104.576L191.584 104.735L177.969 104.735C177.9 104.735 177.844 104.782 177.844 104.84C177.844 104.899 177.9 104.946 177.969 104.946L191.335 104.946L178.768 115.582C178.719 115.623 178.713 115.696 178.754 115.745C178.795 115.793 178.868 115.799 178.917 115.758L191.693 104.946L191.826 104.946L191.826 115.671C191.826 115.729 191.882 115.777 191.951 115.777C192.02 115.777 192.076 115.729 192.076 115.671L192.076 104.946L192.209 104.946L204.986 115.759C205.034 115.8 205.107 115.794 205.149 115.746C205.19 115.697 205.184 115.624 205.135 115.583L192.567 104.946L205.059 104.946C205.128 104.946 205.184 104.899 205.184 104.841C205.184 104.782 205.128 104.735 205.059 104.735L192.317 104.735L192.13 104.576L205.134 93.5704C205.183 93.5292 205.189 93.4562 205.148 93.4075C205.106 93.3588 205.034 93.3527 204.985 93.394L192.076 104.319L192.076 92.7435C192.076 92.6852 192.02 92.6379 191.951 92.6379C191.882 92.6379 191.826 92.6852 191.826 92.7435L191.826 104.319L178.044 92.6553Z" fill="#2080B7"/>
<rect x="1.82163" y="45.889" width="34.5862" height="29.214" stroke="#2080B7" stroke-width="0.369818"/>
<path fill-rule="evenodd" clip-rule="evenodd" d="M5.63397 48.9443C5.58525 48.9031 5.51233 48.9092 5.47109 48.9579C5.42986 49.0066 5.43593 49.0795 5.48465 49.1208L19.3618 60.8652L19.1743 61.024L5.55835 61.0239C5.48945 61.0239 5.4336 61.0712 5.43359 61.1295C5.43359 61.1878 5.48945 61.2351 5.55835 61.2351L18.9248 61.2351L6.35759 71.8709C6.30887 71.9121 6.3028 71.985 6.34404 72.0338C6.38527 72.0825 6.45819 72.0886 6.50691 72.0473L19.2825 61.2351L19.4159 61.2351L19.4159 71.96C19.4159 72.0183 19.4717 72.0656 19.5406 72.0656C19.6095 72.0656 19.6654 72.0183 19.6654 71.96L19.6654 61.2351L19.7989 61.2351L32.5756 72.0482C32.6243 72.0895 32.6972 72.0834 32.7385 72.0347C32.7797 71.986 32.7736 71.913 32.7249 71.8718L20.1567 61.2351L32.6493 61.2352C32.7182 61.2352 32.774 61.1879 32.774 61.1296C32.774 61.0713 32.7182 61.024 32.6493 61.024L19.9072 61.024L19.7196 60.8652L32.7239 49.8595C32.7727 49.8182 32.7787 49.7453 32.7375 49.6966C32.6963 49.6479 32.6233 49.6418 32.5746 49.683L19.6654 60.6083L19.6655 49.0326C19.6655 48.9743 19.6096 48.927 19.5407 48.927C19.4718 48.927 19.416 48.9743 19.416 49.0326L19.4159 60.6082L5.63397 48.9443Z" fill="#2080B7"/>
<rect x="105.279" y="45.89" width="34.5862" height="29.214" stroke="#2080B7" stroke-width="0.369818"/>
<path fill-rule="evenodd" clip-rule="evenodd" d="M109.103 48.9463C109.054 48.9051 108.981 48.9111 108.94 48.9599C108.899 49.0086 108.905 49.0815 108.953 49.1227L122.831 60.8672L122.643 61.0259L109.027 61.0259C108.958 61.0259 108.902 61.0731 108.902 61.1315C108.902 61.1898 108.958 61.237 109.027 61.237L122.394 61.2371L109.826 71.8728C109.778 71.9141 109.772 71.987 109.813 72.0357C109.854 72.0844 109.927 72.0905 109.976 72.0493L122.751 61.2371L122.885 61.2371L122.885 71.962C122.885 72.0203 122.94 72.0676 123.009 72.0676C123.078 72.0676 123.134 72.0203 123.134 71.962L123.134 61.2371L123.268 61.2371L136.044 72.0502C136.093 72.0914 136.166 72.0853 136.207 72.0366C136.248 71.9879 136.242 71.915 136.194 71.8738L123.625 61.2371L136.118 61.2371C136.187 61.2371 136.243 61.1898 136.243 61.1315C136.243 61.0732 136.187 61.0259 136.118 61.0259L123.376 61.0259L123.188 60.8672L136.193 49.8614C136.241 49.8202 136.247 49.7473 136.206 49.6985C136.165 49.6498 136.092 49.6438 136.043 49.685L123.134 60.6102L123.134 49.0345C123.134 48.9762 123.078 48.9289 123.009 48.9289C122.941 48.9289 122.885 48.9762 122.885 49.0345L122.885 60.6102L109.103 48.9463Z" fill="#2080B7"/>
<rect x="36.3021" y="45.89" width="34.5862" height="29.214" stroke="#2080B7" stroke-width="0.369818"/>
<path fill-rule="evenodd" clip-rule="evenodd" d="M40.1301 48.9463C40.0813 48.9051 40.0084 48.9111 39.9672 48.9599C39.926 49.0086 39.932 49.0815 39.9807 49.1227L53.8579 60.8672L53.6704 61.0259L40.0544 61.0259C39.9855 61.0259 39.9297 61.0731 39.9297 61.1315C39.9297 61.1898 39.9855 61.237 40.0544 61.237L53.4208 61.2371L40.8537 71.8728C40.805 71.9141 40.7989 71.987 40.8401 72.0357C40.8814 72.0844 40.9543 72.0905 41.003 72.0493L53.7786 61.2371L53.912 61.2371L53.912 71.962C53.912 72.0203 53.9678 72.0676 54.0367 72.0676C54.1056 72.0676 54.1615 72.0203 54.1615 71.962L54.1615 61.2371L54.295 61.2371L67.0717 72.0502C67.1204 72.0914 67.1933 72.0853 67.2346 72.0366C67.2758 71.9879 67.2697 71.915 67.221 71.8738L54.6528 61.2371L67.1454 61.2371C67.2143 61.2371 67.2701 61.1898 67.2701 61.1315C67.2701 61.0732 67.2143 61.0259 67.1454 61.0259L54.4032 61.0259L54.2157 60.8672L67.22 49.8614C67.2688 49.8202 67.2748 49.7473 67.2336 49.6985C67.1924 49.6498 67.1194 49.6438 67.0707 49.685L54.1615 60.6102L54.1616 49.0345C54.1616 48.9762 54.1057 48.9289 54.0368 48.9289C53.9679 48.9289 53.9121 48.9762 53.9121 49.0345L53.912 60.6102L40.1301 48.9463Z" fill="#2080B7"/>
<rect x="70.7787" y="45.89" width="34.5862" height="29.214" stroke="#2080B7" stroke-width="0.369818"/>
<path fill-rule="evenodd" clip-rule="evenodd" d="M74.6027 48.9463C74.554 48.9051 74.4811 48.9111 74.4398 48.9599C74.3986 49.0086 74.4047 49.0815 74.4534 49.1227L88.3306 60.8672L88.143 61.0259L74.5271 61.0259C74.4582 61.0259 74.4023 61.0731 74.4023 61.1315C74.4023 61.1898 74.4582 61.237 74.5271 61.237L87.8935 61.2371L75.3263 71.8728C75.2776 71.9141 75.2716 71.987 75.3128 72.0357C75.354 72.0844 75.4269 72.0905 75.4757 72.0493L88.2513 61.2371L88.3847 61.2371L88.3846 71.962C88.3846 72.0203 88.4405 72.0676 88.5094 72.0676C88.5783 72.0676 88.6342 72.0203 88.6342 71.962L88.6342 61.2371L88.7676 61.2371L101.544 72.0502C101.593 72.0914 101.666 72.0853 101.707 72.0366C101.748 71.9879 101.742 71.915 101.694 71.8738L89.1254 61.2371L101.618 61.2371C101.687 61.2371 101.743 61.1898 101.743 61.1315C101.743 61.0732 101.687 61.0259 101.618 61.0259L88.8759 61.0259L88.6884 60.8672L101.693 49.8614C101.741 49.8202 101.747 49.7473 101.706 49.6985C101.665 49.6498 101.592 49.6438 101.543 49.685L88.6342 60.6102L88.6342 49.0345C88.6342 48.9762 88.5784 48.9289 88.5095 48.9289C88.4406 48.9289 88.3847 48.9762 88.3847 49.0345L88.3847 60.6102L74.6027 48.9463Z" fill="#2080B7"/>
<rect x="139.751" y="45.889" width="34.5862" height="29.214" stroke="#2080B7" stroke-width="0.369818"/>
<path fill-rule="evenodd" clip-rule="evenodd" d="M143.568 48.9453C143.519 48.9041 143.446 48.9102 143.405 48.9589C143.363 49.0076 143.37 49.0805 143.418 49.1218L157.295 60.8662L157.108 61.0249L143.492 61.0249C143.423 61.0249 143.367 61.0722 143.367 61.1305C143.367 61.1888 143.423 61.2361 143.492 61.2361L156.858 61.2361L144.291 71.8719C144.242 71.9131 144.236 71.986 144.278 72.0347C144.319 72.0835 144.392 72.0895 144.441 72.0483L157.216 61.2361L157.35 61.2361L157.349 71.961C157.349 72.0193 157.405 72.0666 157.474 72.0666C157.543 72.0666 157.599 72.0193 157.599 71.961L157.599 61.2361L157.732 61.2361L170.509 72.0492C170.558 72.0904 170.631 72.0844 170.672 72.0357C170.713 71.9869 170.707 71.914 170.658 71.8728L158.09 61.2361L170.583 61.2361C170.652 61.2361 170.708 61.1889 170.708 61.1305C170.708 61.0722 170.652 61.025 170.583 61.025L157.841 61.0249L157.653 60.8662L170.658 49.8604C170.706 49.8192 170.712 49.7463 170.671 49.6976C170.63 49.6488 170.557 49.6428 170.508 49.684L157.599 60.6092L157.599 49.0335C157.599 48.9752 157.543 48.928 157.474 48.928C157.405 48.928 157.35 48.9752 157.35 49.0335L157.35 60.6092L143.568 48.9453Z" fill="#2080B7"/>
<rect x="174.228" y="45.889" width="34.5862" height="29.214" stroke="#2080B7" stroke-width="0.369818"/>
<path fill-rule="evenodd" clip-rule="evenodd" d="M178.044 48.9453C177.995 48.9041 177.922 48.9102 177.881 48.9589C177.84 49.0076 177.846 49.0805 177.895 49.1218L191.772 60.8662L191.584 61.0249L177.969 61.0249C177.9 61.0249 177.844 61.0722 177.844 61.1305C177.844 61.1888 177.9 61.2361 177.969 61.2361L191.335 61.2361L178.768 71.8719C178.719 71.9131 178.713 71.986 178.754 72.0347C178.795 72.0835 178.868 72.0895 178.917 72.0483L191.693 61.2361L191.826 61.2361L191.826 71.961C191.826 72.0193 191.882 72.0666 191.951 72.0666C192.02 72.0666 192.076 72.0193 192.076 71.961L192.076 61.2361L192.209 61.2361L204.986 72.0492C205.034 72.0904 205.107 72.0844 205.149 72.0357C205.19 71.9869 205.184 71.914 205.135 71.8728L192.567 61.2361L205.059 61.2361C205.128 61.2361 205.184 61.1889 205.184 61.1305C205.184 61.0722 205.128 61.025 205.059 61.025L192.317 61.0249L192.13 60.8662L205.134 49.8604C205.183 49.8192 205.189 49.7463 205.148 49.6976C205.106 49.6488 205.034 49.6428 204.985 49.684L192.076 60.6092L192.076 49.0335C192.076 48.9752 192.02 48.928 191.951 48.928C191.882 48.928 191.826 48.9752 191.826 49.0335L191.826 60.6092L178.044 48.9453Z" fill="#2080B7"/>
</g>
<defs>
<clipPath id="clip0_4823_100296">
<rect width="210" height="120" fill="white"/>
</clipPath>
</defs>
</svg>
