<svg width="1920" height="1080" viewBox="0 0 1920 1080" fill="none" xmlns="http://www.w3.org/2000/svg">
<g opacity="0.3">
<path d="M1940 1079.5L-0.00118771 1079.5" stroke="black"/>
<path fill-rule="evenodd" clip-rule="evenodd" d="M1935.69 -0.540901L0.754042 -0.541013L0.754042 0.458987L1935.69 0.459099V-0.540901ZM1934.23 35.1642L-0.00386359 35.1641L-0.00386373 36.1641L1934.23 36.1642V35.1642ZM-0.00386366 69.8623L1934.23 69.8624V70.8624L-0.00386381 70.8623L-0.00386366 69.8623ZM1934.23 104.561L-0.00386362 104.561L-0.00386377 105.561L1934.23 105.561V104.561ZM0.761855 196.123L1935.69 196.123V197.123L0.761855 197.123L0.761855 196.123ZM1934.24 230.821L0.00394867 230.821L0.00394853 231.821L1934.24 231.821V230.821ZM0.00394872 265.52L1934.24 265.52V266.52L0.00394857 266.52L0.00394872 265.52ZM1934.24 300.218L0.00394876 300.218L0.00394861 301.218L1934.24 301.218V300.218ZM0.761855 390.817L1935.69 390.818V391.818L0.761855 391.817L0.761855 390.817ZM1934.24 425.516L0.00394867 425.516L0.00394853 426.516L1934.24 426.516V425.516ZM0.00394872 460.214L1934.24 460.214V461.214L0.00394857 461.214L0.00394872 460.214ZM1934.24 494.912L0.00394876 494.912L0.00394861 495.912L1934.24 495.912V494.912ZM0.761855 585.512L1935.69 585.512V586.512L0.761855 586.512L0.761855 585.512ZM1934.24 620.21L0.00394867 620.21L0.00394853 621.21L1934.24 621.21V620.21ZM0.00394872 654.908L1934.24 654.908V655.908L0.00394857 655.908L0.00394872 654.908ZM1934.24 689.607L0.00394876 689.606L0.00394861 690.606L1934.24 690.607V689.607ZM0.761855 780.207L1935.69 780.207V781.207L0.761855 781.207L0.761855 780.207ZM1934.24 814.905L0.00394867 814.905L0.00394853 815.905L1934.24 815.905V814.905ZM0.00394872 849.604L1934.24 849.604V850.604L0.00394857 850.604L0.00394872 849.604ZM1934.24 884.302L0.00394876 884.302L0.00394861 885.302L1934.24 885.302V884.302ZM0.754042 974.902L1935.69 974.902V975.902L0.754042 975.902L0.754042 974.902ZM1934.23 1009.6L-0.00386371 1009.6L-0.00386385 1010.6L1934.23 1010.6V1009.6ZM-0.00386378 1044.3L1934.23 1044.3V1045.3L-0.00386393 1045.3L-0.00386378 1044.3ZM1934.23 1079L-0.00386374 1079L-0.00386389 1080L1934.23 1080V1079Z" fill="black"/>
<path d="M0 1079.5L0.000254226 0.00368246" stroke="black"/>
</g>
</svg>
