<svg width="1922" height="1079" viewBox="0 0 1922 1079" fill="none" xmlns="http://www.w3.org/2000/svg">
<g opacity="0.3">
<path d="M1 1079L1.00004 2.1411" stroke="#2080B7"/>
<path d="M1920.59 2.13867L1.00105 2.13857" stroke="#2080B7"/>
<path d="M1920.59 35.5654L1.00105 35.5653" stroke="#2080B7" stroke-dasharray="3 3"/>
<path d="M1921 68.1836L2.05158 68.1836" stroke="#2080B7"/>
<path d="M1920.61 102.418L1.02058 102.418" stroke="#2080B7"/>
<path fill-rule="evenodd" clip-rule="evenodd" d="M38.2894 3.1013L37.9211 2.7002L37.5528 3.1013L2.61328 41.1536L3.34987 41.8299L8.21205 36.5346V101.98V102.48H8.71205H67.1184H67.6184V101.98V36.5218L72.4923 41.8299L73.2289 41.1536L38.2894 3.1013ZM66.6184 35.4327L37.9211 4.17875L9.21205 35.4455V67.1146H23.337L23.337 35.2441V34.7441H23.837L51.9972 34.7441H52.4972V35.2441V67.1146H66.6184V35.4327ZM66.6184 68.1146H52.4972L52.4972 101.48H66.6184V68.1146ZM51.4972 67.1146V35.7441L24.337 35.7441L24.337 67.1146H51.4972ZM24.337 68.1146H51.4972L51.4972 101.48H24.337L24.337 68.1146ZM23.337 68.1146H9.21205V101.48H23.337L23.337 68.1146Z" fill="#2080B7"/>
<path d="M1920.59 141.561L1.00105 141.56" stroke="#2080B7"/>
<path d="M1920.59 174.987L1.00105 174.987" stroke="#2080B7" stroke-dasharray="3 3"/>
<path d="M1921 207.604L2.05158 207.604" stroke="#2080B7"/>
<path d="M1920.61 241.839L1.02058 241.839" stroke="#2080B7"/>
<path fill-rule="evenodd" clip-rule="evenodd" d="M38.2894 142.521L37.9211 142.12L37.5528 142.521L2.61328 180.573L3.34987 181.25L8.21205 175.954V241.4V241.9H8.71205H67.1184H67.6184V241.4V175.942L72.4923 181.25L73.2289 180.573L38.2894 142.521ZM66.6184 174.853L37.9211 143.599L9.21205 174.865V206.535H23.337L23.337 174.664V174.164H23.837L51.9972 174.164H52.4972V174.664V206.535H66.6184V174.853ZM66.6184 207.535H52.4972L52.4972 240.9H66.6184V207.535ZM51.4972 206.535V175.164L24.337 175.164L24.337 206.535H51.4972ZM24.337 207.535H51.4972L51.4972 240.9H24.337L24.337 207.535ZM23.337 207.535H9.21205V240.9H23.337L23.337 207.535Z" fill="#2080B7"/>
<path d="M1920.59 280.98L1.00105 280.98" stroke="#2080B7"/>
<path d="M1920.59 314.407L1.00105 314.407" stroke="#2080B7" stroke-dasharray="3 3"/>
<path d="M1921 347.029L2.05158 347.029" stroke="#2080B7"/>
<path d="M1920.61 381.262L1.02058 381.262" stroke="#2080B7"/>
<path fill-rule="evenodd" clip-rule="evenodd" d="M38.2894 281.945L37.9211 281.544L37.5528 281.945L2.61328 319.997L3.34987 320.674L8.21205 315.378V380.824V381.324H8.71205H67.1184H67.6184V380.824V315.366L72.4923 320.674L73.2289 319.997L38.2894 281.945ZM66.6184 314.276L37.9211 283.022L9.21205 314.289V345.958H23.337L23.337 314.088V313.588H23.837L51.9972 313.588H52.4972V314.088V345.958H66.6184V314.276ZM66.6184 346.958H52.4972L52.4972 380.324H66.6184V346.958ZM51.4972 345.958V314.588L24.337 314.588L24.337 345.958H51.4972ZM24.337 346.958H51.4972L51.4972 380.324H24.337L24.337 346.958ZM23.337 346.958H9.21205V380.324H23.337L23.337 346.958Z" fill="#2080B7"/>
<path d="M1920.59 420.408L1.00105 420.408" stroke="#2080B7"/>
<path d="M1920.59 453.835L1.00105 453.835" stroke="#2080B7" stroke-dasharray="3 3"/>
<path d="M1921 486.454L2.05158 486.454" stroke="#2080B7"/>
<path d="M1920.61 520.688L1.02058 520.688" stroke="#2080B7"/>
<path fill-rule="evenodd" clip-rule="evenodd" d="M38.2894 421.371L37.9211 420.97L37.5528 421.371L2.61328 459.423L3.34987 460.099L8.21205 454.804V520.249V520.749H8.71205H67.1184H67.6184V520.249V454.791L72.4923 460.099L73.2289 459.423L38.2894 421.371ZM66.6184 453.702L37.9211 422.448L9.21205 453.715V485.384H23.337L23.337 453.514V453.014H23.837L51.9972 453.014H52.4972V453.514V485.384H66.6184V453.702ZM66.6184 486.384H52.4972L52.4972 519.749H66.6184V486.384ZM51.4972 485.384V454.014L24.337 454.014L24.337 485.384H51.4972ZM24.337 486.384H51.4972L51.4972 519.749H24.337L24.337 486.384ZM23.337 486.384H9.21205V519.749H23.337L23.337 486.384Z" fill="#2080B7"/>
<path d="M1920.59 559.829L1.00105 559.829" stroke="#2080B7"/>
<path d="M1920.59 593.256L1.00105 593.256" stroke="#2080B7" stroke-dasharray="3 3"/>
<path d="M1921 625.873L2.05158 625.873" stroke="#2080B7"/>
<path d="M1920.61 660.106L1.02058 660.106" stroke="#2080B7"/>
<path fill-rule="evenodd" clip-rule="evenodd" d="M38.2894 560.79L37.9211 560.389L37.5528 560.79L2.61328 598.842L3.34987 599.518L8.21205 594.223V659.668V660.168H8.71205H67.1184H67.6184V659.668V594.21L72.4923 599.518L73.2289 598.842L38.2894 560.79ZM66.6184 593.121L37.9211 561.867L9.21205 593.134V624.803H23.337L23.337 592.933V592.433H23.837L51.9972 592.433H52.4972V592.933V624.803H66.6184V593.121ZM66.6184 625.803H52.4972L52.4972 659.168H66.6184V625.803ZM51.4972 624.803V593.433L24.337 593.433L24.337 624.803H51.4972ZM24.337 625.803H51.4972L51.4972 659.168H24.337L24.337 625.803ZM23.337 625.803H9.21205V659.168H23.337L23.337 625.803Z" fill="#2080B7"/>
<path d="M1920.59 699.256L1.00105 699.256" stroke="#2080B7"/>
<path d="M1920.59 732.683L1.00105 732.683" stroke="#2080B7" stroke-dasharray="3 3"/>
<path d="M1921 765.297L2.05158 765.297" stroke="#2080B7"/>
<path d="M1920.61 799.532L1.02058 799.532" stroke="#2080B7"/>
<path fill-rule="evenodd" clip-rule="evenodd" d="M38.2894 700.218L37.9211 699.817L37.5528 700.218L2.61328 738.271L3.34987 738.947L8.21205 733.652V799.097V799.597H8.71205H67.1184H67.6184V799.097V733.639L72.4923 738.947L73.2289 738.271L38.2894 700.218ZM66.6184 732.55L37.9211 701.296L9.21205 732.563V764.232H23.337L23.337 732.361V731.861H23.837L51.9972 731.861H52.4972V732.361V764.232H66.6184V732.55ZM66.6184 765.232H52.4972L52.4972 798.597H66.6184V765.232ZM51.4972 764.232V732.861L24.337 732.861L24.337 764.232H51.4972ZM24.337 765.232H51.4972L51.4972 798.597H24.337L24.337 765.232ZM23.337 765.232H9.21205V798.597H23.337L23.337 765.232Z" fill="#2080B7"/>
<path d="M1920.59 838.672L1.00105 838.672" stroke="#2080B7"/>
<path d="M1920.59 872.099L1.00105 872.099" stroke="#2080B7" stroke-dasharray="3 3"/>
<path d="M1921 904.718L2.05158 904.718" stroke="#2080B7"/>
<path d="M1920.61 938.952L1.02058 938.952" stroke="#2080B7"/>
<path fill-rule="evenodd" clip-rule="evenodd" d="M38.2894 839.636L37.9211 839.235L37.5528 839.636L2.61328 877.689L3.34987 878.365L8.21205 873.07V938.515V939.015H8.71205H67.1184H67.6184V938.515V873.057L72.4923 878.365L73.2289 877.689L38.2894 839.636ZM66.6184 871.968L37.9211 840.714L9.21205 871.981V903.65H23.337L23.337 871.779V871.279H23.837L51.9972 871.279H52.4972V871.779V903.65H66.6184V871.968ZM66.6184 904.65H52.4972L52.4972 938.015H66.6184V904.65ZM51.4972 903.65V872.279L24.337 872.279L24.337 903.65H51.4972ZM24.337 904.65H51.4972L51.4972 938.015H24.337L24.337 904.65ZM23.337 904.65H9.21205V938.015H23.337L23.337 904.65Z" fill="#2080B7"/>
<path d="M1920.59 978.097L1.00105 978.097" stroke="#2080B7"/>
<path d="M1920.59 1011.52L1.00105 1011.52" stroke="#2080B7" stroke-dasharray="3 3"/>
<path d="M1921 1044.14L2.05158 1044.14" stroke="#2080B7"/>
<path d="M1920.61 1078.38L1.02058 1078.37" stroke="#2080B7"/>
<path fill-rule="evenodd" clip-rule="evenodd" d="M38.2894 979.057L37.9211 978.656L37.5528 979.057L2.61328 1017.11L3.34987 1017.79L8.21205 1012.49V1077.94V1078.44H8.71205H67.1184H67.6184V1077.94V1012.48L72.4923 1017.79L73.2289 1017.11L38.2894 979.057ZM66.6184 1011.39L37.9211 980.135L9.21205 1011.4V1043.07H23.337L23.337 1011.2V1010.7H23.837L51.9972 1010.7H52.4972V1011.2V1043.07H66.6184V1011.39ZM66.6184 1044.07H52.4972L52.4972 1077.44H66.6184V1044.07ZM51.4972 1043.07V1011.7L24.337 1011.7L24.337 1043.07H51.4972ZM24.337 1044.07H51.4972L51.4972 1077.44H24.337L24.337 1044.07ZM23.337 1044.07H9.21205V1077.44H23.337L23.337 1044.07Z" fill="#2080B7"/>
</g>
<path opacity="0.3" d="M1921 1077.86L1921 0.999745" stroke="#2080B7"/>
</svg>
