<svg width="1922" height="1079" viewBox="0 0 1922 1079" fill="none" xmlns="http://www.w3.org/2000/svg">
<g opacity="0.3">
<path d="M1 1079L1.00004 2.14159" stroke="#2080B7"/>
<path d="M1920.59 2.13916L1.00105 2.13906" stroke="#2080B7"/>
<path d="M1920.59 35.5654L1.00105 35.5653" stroke="#2080B7" stroke-dasharray="3 3"/>
<path d="M1921 68.1836L2.05158 68.1836" stroke="#2080B7"/>
<path d="M1920.61 102.418L1.02058 102.418" stroke="#2080B7"/>
<path fill-rule="evenodd" clip-rule="evenodd" d="M38.2914 3.10081L37.9231 2.69971L37.5548 3.10081L2.61523 41.1531L3.35183 41.8294L8.214 36.5341V101.979V102.479H8.714H67.1204H67.6204V101.979V36.5213L72.4943 41.8294L73.2309 41.1531L38.2914 3.10081ZM66.6204 35.4322L37.9231 4.17826L9.214 35.445V67.1142H23.3389L23.3389 35.2436V34.7436H23.8389L51.9992 34.7436H52.4992V35.2436V67.1142H66.6204V35.4322ZM66.6204 68.1142H52.4992L52.4992 101.479H66.6204V68.1142ZM51.4992 67.1142V35.7436L24.3389 35.7436L24.3389 67.1142H51.4992ZM24.3389 68.1142H51.4992L51.4992 101.479H24.3389L24.3389 68.1142ZM23.3389 68.1142H9.214V101.479H23.3389L23.3389 68.1142Z" fill="#2080B7"/>
<path d="M1920.59 141.561L1.00105 141.561" stroke="#2080B7"/>
<path d="M1920.59 174.988L1.00105 174.988" stroke="#2080B7" stroke-dasharray="3 3"/>
<path d="M1921 207.606L2.05158 207.606" stroke="#2080B7"/>
<path d="M1920.61 241.84L1.02058 241.84" stroke="#2080B7"/>
<path fill-rule="evenodd" clip-rule="evenodd" d="M38.2914 142.522L37.9231 142.121L37.5548 142.522L2.61523 180.574L3.35183 181.25L8.214 175.955V241.4V241.9H8.714H67.1204H67.6204V241.4V175.942L72.4943 181.25L73.2309 180.574L38.2914 142.522ZM66.6204 174.853L37.9231 143.599L9.214 174.866V206.535H23.3389L23.3389 174.665V174.165H23.8389L51.9992 174.165H52.4992V174.665V206.535H66.6204V174.853ZM66.6204 207.535H52.4992L52.4992 240.9H66.6204V207.535ZM51.4992 206.535V175.165L24.3389 175.165L24.3389 206.535H51.4992ZM24.3389 207.535H51.4992L51.4992 240.9H24.3389L24.3389 207.535ZM23.3389 207.535H9.214V240.9H23.3389L23.3389 207.535Z" fill="#2080B7"/>
<path d="M1920.59 280.98L1.00105 280.98" stroke="#2080B7"/>
<path d="M1920.59 314.407L1.00105 314.407" stroke="#2080B7" stroke-dasharray="3 3"/>
<path d="M1921 347.028L2.05158 347.028" stroke="#2080B7"/>
<path d="M1920.61 381.261L1.02058 381.261" stroke="#2080B7"/>
<path fill-rule="evenodd" clip-rule="evenodd" d="M38.2914 281.945L37.9231 281.543L37.5548 281.945L2.61523 319.997L3.35183 320.673L8.214 315.378V380.823V381.323H8.714H67.1204H67.6204V380.823V315.365L72.4943 320.673L73.2309 319.997L38.2914 281.945ZM66.6204 314.276L37.9231 283.022L9.214 314.289V345.958H23.3389L23.3389 314.087V313.587H23.8389L51.9992 313.587H52.4992V314.087V345.958H66.6204V314.276ZM66.6204 346.958H52.4992L52.4992 380.323H66.6204V346.958ZM51.4992 345.958V314.587L24.3389 314.587L24.3389 345.958H51.4992ZM24.3389 346.958H51.4992L51.4992 380.323H24.3389L24.3389 346.958ZM23.3389 346.958H9.214V380.323H23.3389L23.3389 346.958Z" fill="#2080B7"/>
<path d="M1920.59 420.408L1.00105 420.408" stroke="#2080B7"/>
<path d="M1920.59 453.834L1.00105 453.834" stroke="#2080B7" stroke-dasharray="3 3"/>
<path d="M1921 486.454L2.05158 486.454" stroke="#2080B7"/>
<path d="M1920.61 520.688L1.02058 520.687" stroke="#2080B7"/>
<path fill-rule="evenodd" clip-rule="evenodd" d="M38.2914 421.37L37.9231 420.969L37.5548 421.37L2.61523 459.422L3.35183 460.098L8.214 454.803V520.248V520.748H8.714H67.1204H67.6204V520.248V454.79L72.4943 460.098L73.2309 459.422L38.2914 421.37ZM66.6204 453.701L37.9231 422.447L9.214 453.714V485.383H23.3389L23.3389 453.513V453.013H23.8389L51.9992 453.013H52.4992V453.513V485.383H66.6204V453.701ZM66.6204 486.383H52.4992L52.4992 519.748H66.6204V486.383ZM51.4992 485.383V454.013L24.3389 454.013L24.3389 485.383H51.4992ZM24.3389 486.383H51.4992L51.4992 519.748H24.3389L24.3389 486.383ZM23.3389 486.383H9.214V519.748H23.3389L23.3389 486.383Z" fill="#2080B7"/>
<path d="M1920.59 559.829L1.00105 559.829" stroke="#2080B7"/>
<path d="M1920.59 593.256L1.00105 593.256" stroke="#2080B7" stroke-dasharray="3 3"/>
<path d="M1921 625.873L2.05158 625.873" stroke="#2080B7"/>
<path d="M1920.61 660.105L1.02058 660.105" stroke="#2080B7"/>
<path fill-rule="evenodd" clip-rule="evenodd" d="M38.2914 560.79L37.9231 560.389L37.5548 560.79L2.61523 598.842L3.35183 599.518L8.214 594.223V659.668V660.168H8.714H67.1204H67.6204V659.668V594.21L72.4943 599.518L73.2309 598.842L38.2914 560.79ZM66.6204 593.121L37.9231 561.867L9.214 593.134V624.803H23.3389L23.3389 592.933V592.433H23.8389L51.9992 592.433H52.4992V592.933V624.803H66.6204V593.121ZM66.6204 625.803H52.4992L52.4992 659.168H66.6204V625.803ZM51.4992 624.803V593.433L24.3389 593.433L24.3389 624.803H51.4992ZM24.3389 625.803H51.4992L51.4992 659.168H24.3389L24.3389 625.803ZM23.3389 625.803H9.214V659.168H23.3389L23.3389 625.803Z" fill="#2080B7"/>
<path d="M1920.59 699.256L1.00105 699.256" stroke="#2080B7"/>
<path d="M1920.59 732.682L1.00105 732.682" stroke="#2080B7" stroke-dasharray="3 3"/>
<path d="M1921 765.297L2.05158 765.297" stroke="#2080B7"/>
<path d="M1920.61 799.532L1.02058 799.532" stroke="#2080B7"/>
<path fill-rule="evenodd" clip-rule="evenodd" d="M38.2914 700.218L37.9231 699.817L37.5548 700.218L2.61523 738.27L3.35183 738.947L8.214 733.651V799.097V799.597H8.714H67.1204H67.6204V799.097V733.638L72.4943 738.947L73.2309 738.27L38.2914 700.218ZM66.6204 732.549L37.9231 701.295L9.214 732.562V764.231H23.3389L23.3389 732.361V731.861H23.8389L51.9992 731.861H52.4992V732.361V764.231H66.6204V732.549ZM66.6204 765.231H52.4992L52.4992 798.597H66.6204V765.231ZM51.4992 764.231V732.861L24.3389 732.861L24.3389 764.231H51.4992ZM24.3389 765.231H51.4992L51.4992 798.597H24.3389L24.3389 765.231ZM23.3389 765.231H9.214V798.597H23.3389L23.3389 765.231Z" fill="#2080B7"/>
<path d="M1920.59 838.671L1.00105 838.671" stroke="#2080B7"/>
<path d="M1920.59 872.098L1.00105 872.098" stroke="#2080B7" stroke-dasharray="3 3"/>
<path d="M1921 904.717L2.05158 904.717" stroke="#2080B7"/>
<path d="M1920.61 938.951L1.02058 938.951" stroke="#2080B7"/>
<path fill-rule="evenodd" clip-rule="evenodd" d="M38.2914 839.635L37.9231 839.234L37.5548 839.635L2.61523 877.688L3.35183 878.364L8.214 873.069V938.514V939.014H8.714H67.1204H67.6204V938.514V873.056L72.4943 878.364L73.2309 877.688L38.2914 839.635ZM66.6204 871.967L37.9231 840.713L9.214 871.98V903.649H23.3389L23.3389 871.778V871.278H23.8389L51.9992 871.278H52.4992V871.778V903.649H66.6204V871.967ZM66.6204 904.649H52.4992L52.4992 938.014H66.6204V904.649ZM51.4992 903.649V872.278L24.3389 872.278L24.3389 903.649H51.4992ZM24.3389 904.649H51.4992L51.4992 938.014H24.3389L24.3389 904.649ZM23.3389 904.649H9.214V938.014H23.3389L23.3389 904.649Z" fill="#2080B7"/>
<path d="M1920.59 978.097L1.00105 978.097" stroke="#2080B7"/>
<path d="M1920.59 1011.52L1.00105 1011.52" stroke="#2080B7" stroke-dasharray="3 3"/>
<path d="M1921 1044.14L2.05158 1044.14" stroke="#2080B7"/>
<path d="M1920.61 1078.38L1.02058 1078.38" stroke="#2080B7"/>
<path fill-rule="evenodd" clip-rule="evenodd" d="M38.2914 979.058L37.9231 978.657L37.5548 979.058L2.61523 1017.11L3.35183 1017.79L8.214 1012.49V1077.94V1078.44H8.714H67.1204H67.6204V1077.94V1012.48L72.4943 1017.79L73.2309 1017.11L38.2914 979.058ZM66.6204 1011.39L37.9231 980.135L9.214 1011.4V1043.07H23.3389L23.3389 1011.2V1010.7H23.8389L51.9992 1010.7H52.4992V1011.2V1043.07H66.6204V1011.39ZM66.6204 1044.07H52.4992L52.4992 1077.44H66.6204V1044.07ZM51.4992 1043.07V1011.7L24.3389 1011.7L24.3389 1043.07H51.4992ZM24.3389 1044.07H51.4992L51.4992 1077.44H24.3389L24.3389 1044.07ZM23.3389 1044.07H9.214V1077.44H23.3389L23.3389 1044.07Z" fill="#2080B7"/>
</g>
<path opacity="0.3" d="M1921 1077.86L1921 0.999745" stroke="#2080B7"/>
</svg>
