<svg width="1921" height="1079" viewBox="0 0 1921 1079" fill="none" preserveAspectRatio="none" xmlns="http://www.w3.org/2000/svg">
<g opacity="0.3">
<path d="M42.5 937L42.5 31.6819" stroke="#2080B7"/>
<path d="M1877.11 31.6787L42.5008 31.6786" stroke="#2080B7"/>
<path d="M1877.11 59.7803L42.5008 59.7802" stroke="#2080B7" stroke-dasharray="3 3"/>
<path d="M1877.5 87.2031L43.5036 87.2031" stroke="#2080B7"/>
<path d="M1877.13 115.983L42.5164 115.983" stroke="#2080B7"/>
<path fill-rule="evenodd" clip-rule="evenodd" d="M78.1276 32.4114L77.7817 32.0801L77.4358 32.4114L44.043 64.4021L44.7348 65.1242L49.3654 60.688V115.616V116.116H49.8654H105.686H106.186V115.616V60.6768L110.829 65.1242L111.52 64.4021L78.1276 32.4114ZM105.186 59.7188L77.7817 33.4649L50.3654 59.7299V86.2251H63.819L63.819 59.5109V59.0109H64.319L91.2326 59.011H91.7326V59.511V86.2251H105.186V59.7188ZM105.186 87.2251H91.7326L91.7326 115.116H105.186V87.2251ZM90.7326 86.2251V60.011L64.819 60.0109L64.819 86.2251H90.7326ZM64.819 87.2251H90.7326L90.7326 115.116H64.819L64.819 87.2251ZM63.819 87.2251H50.3654V115.116H63.819L63.819 87.2251Z" fill="#2080B7"/>
<path d="M1877.11 148.894L42.5008 148.893" stroke="#2080B7"/>
<path d="M1877.11 176.995L42.5008 176.995" stroke="#2080B7" stroke-dasharray="3 3"/>
<path d="M1877.5 204.417L43.5036 204.417" stroke="#2080B7"/>
<path d="M1877.13 233.197L42.5164 233.197" stroke="#2080B7"/>
<path fill-rule="evenodd" clip-rule="evenodd" d="M78.1276 149.623L77.7817 149.292L77.4358 149.623L44.043 181.614L44.7348 182.336L49.3654 177.9V232.827V233.327H49.8654H105.686H106.186V232.827V177.889L110.829 182.336L111.52 181.614L78.1276 149.623ZM105.186 176.931L77.7817 150.677L50.3654 176.942V203.437H63.819L63.819 176.723V176.223H64.319L91.2326 176.223H91.7326V176.723V203.437H105.186V176.931ZM105.186 204.437H91.7326L91.7326 232.327H105.186V204.437ZM90.7326 203.437V177.223L64.819 177.223L64.819 203.437H90.7326ZM64.819 204.437H90.7326L90.7326 232.327H64.819L64.819 204.437ZM63.819 204.437H50.3654V232.327H63.819L63.819 204.437Z" fill="#2080B7"/>
<path d="M1877.11 266.104L42.5008 266.103" stroke="#2080B7"/>
<path d="M1877.11 294.205L42.5008 294.205" stroke="#2080B7" stroke-dasharray="3 3"/>
<path d="M1877.5 321.629L43.5036 321.629" stroke="#2080B7"/>
<path d="M1877.13 350.409L42.5164 350.409" stroke="#2080B7"/>
<path fill-rule="evenodd" clip-rule="evenodd" d="M78.1276 266.836L77.7817 266.505L77.4358 266.836L44.043 298.827L44.7348 299.549L49.3654 295.113V350.04V350.54H49.8654H105.686H106.186V350.04V295.102L110.829 299.549L111.52 298.827L78.1276 266.836ZM105.186 294.144L77.7817 267.89L50.3654 294.155V320.65H63.819L63.819 293.936V293.436H64.319L91.2326 293.436H91.7326V293.936V320.65H105.186V294.144ZM105.186 321.65H91.7326L91.7326 349.54H105.186V321.65ZM90.7326 320.65V294.436L64.819 294.436L64.819 320.65H90.7326ZM64.819 321.65H90.7326L90.7326 349.54H64.819L64.819 321.65ZM63.819 321.65H50.3654V349.54H63.819L63.819 321.65Z" fill="#2080B7"/>
<path d="M1877.11 383.318L42.5008 383.318" stroke="#2080B7"/>
<path d="M1877.11 411.42L42.5008 411.42" stroke="#2080B7" stroke-dasharray="3 3"/>
<path d="M1877.5 438.844L43.5036 438.844" stroke="#2080B7"/>
<path d="M1877.13 467.624L42.5164 467.624" stroke="#2080B7"/>
<path fill-rule="evenodd" clip-rule="evenodd" d="M78.1276 384.05L77.7817 383.719L77.4358 384.05L44.043 416.041L44.7348 416.763L49.3654 412.327V467.254V467.754H49.8654H105.686H106.186V467.254V412.315L110.829 416.763L111.52 416.041L78.1276 384.05ZM105.186 411.357L77.7817 385.104L50.3654 411.369V437.864H63.819L63.819 411.15V410.65H64.319L91.2326 410.65H91.7326V411.15V437.864H105.186V411.357ZM105.186 438.864H91.7326L91.7326 466.754H105.186V438.864ZM90.7326 437.864V411.65L64.819 411.65L64.819 437.864H90.7326ZM64.819 438.864H90.7326L90.7326 466.754H64.819L64.819 438.864ZM63.819 438.864H50.3654V466.754H63.819L63.819 438.864Z" fill="#2080B7"/>
<path d="M1877.11 500.533L42.5008 500.533" stroke="#2080B7"/>
<path d="M1877.11 528.635L42.5008 528.635" stroke="#2080B7" stroke-dasharray="3 3"/>
<path d="M1877.5 556.055L43.5036 556.055" stroke="#2080B7"/>
<path d="M1877.13 584.835L42.5164 584.835" stroke="#2080B7"/>
<path fill-rule="evenodd" clip-rule="evenodd" d="M78.1276 501.263L77.7817 500.932L77.4358 501.263L44.043 533.254L44.7348 533.976L49.3654 529.54V584.467V584.967H49.8654H105.686H106.186V584.467V529.528L110.829 533.976L111.52 533.254L78.1276 501.263ZM105.186 528.57L77.7817 502.316L50.3654 528.582V555.077H63.819L63.819 528.363V527.863H64.319L91.2326 527.863H91.7326V528.363V555.077H105.186V528.57ZM105.186 556.077H91.7326L91.7326 583.967H105.186V556.077ZM90.7326 555.077V528.863L64.819 528.863L64.819 555.077H90.7326ZM64.819 556.077H90.7326L90.7326 583.967H64.819L64.819 556.077ZM63.819 556.077H50.3654V583.967H63.819L63.819 556.077Z" fill="#2080B7"/>
<path d="M1877.11 617.746L42.5008 617.746" stroke="#2080B7"/>
<path d="M1877.11 645.848L42.5008 645.848" stroke="#2080B7" stroke-dasharray="3 3"/>
<path d="M1877.5 673.269L43.5036 673.269" stroke="#2080B7"/>
<path d="M1877.13 702.05L42.5164 702.05" stroke="#2080B7"/>
<path fill-rule="evenodd" clip-rule="evenodd" d="M78.1276 618.478L77.7817 618.146L77.4358 618.478L44.043 650.468L44.7348 651.191L49.3654 646.754V701.682V702.182H49.8654H105.686H106.186V701.682V646.743L110.829 651.191L111.52 650.468L78.1276 618.478ZM105.186 645.785L77.7817 619.531L50.3654 645.796V672.291H63.819L63.819 645.577V645.077H64.319L91.2326 645.077H91.7326V645.577V672.291H105.186V645.785ZM105.186 673.291H91.7326L91.7326 701.182H105.186V673.291ZM90.7326 672.291V646.077L64.819 646.077L64.819 672.291H90.7326ZM64.819 673.291H90.7326L90.7326 701.182H64.819L64.819 673.291ZM63.819 673.291H50.3654V701.182H63.819L63.819 673.291Z" fill="#2080B7"/>
<path d="M1877.11 734.956L42.5008 734.956" stroke="#2080B7"/>
<path d="M1877.11 763.058L42.5008 763.058" stroke="#2080B7" stroke-dasharray="3 3"/>
<path d="M1877.5 790.48L43.5036 790.48" stroke="#2080B7"/>
<path d="M1877.13 819.261L42.5164 819.261" stroke="#2080B7"/>
<path fill-rule="evenodd" clip-rule="evenodd" d="M78.1276 735.689L77.7817 735.357L77.4358 735.689L44.043 767.679L44.7348 768.402L49.3654 763.965V818.893V819.393H49.8654H105.686H106.186V818.893V763.954L110.829 768.402L111.52 767.679L78.1276 735.689ZM105.186 762.996L77.7817 736.742L50.3654 763.007V789.502H63.819L63.819 762.788V762.288H64.319L91.2326 762.288H91.7326V762.788V789.502H105.186V762.996ZM105.186 790.502H91.7326L91.7326 818.393H105.186V790.502ZM90.7326 789.502V763.288L64.819 763.288L64.819 789.502H90.7326ZM64.819 790.502H90.7326L90.7326 818.393H64.819L64.819 790.502ZM63.819 790.502H50.3654V818.393H63.819L63.819 790.502Z" fill="#2080B7"/>
<path d="M1877.11 852.171L42.5008 852.171" stroke="#2080B7"/>
<path d="M1877.11 880.272L42.5008 880.272" stroke="#2080B7" stroke-dasharray="3 3"/>
<path d="M1877.5 907.695L43.5036 907.695" stroke="#2080B7"/>
<path d="M1877.13 936.476L42.5164 936.475" stroke="#2080B7"/>
<path fill-rule="evenodd" clip-rule="evenodd" d="M78.1276 852.902L77.7817 852.57L77.4358 852.902L44.043 884.892L44.7348 885.614L49.3654 881.178V936.106V936.606H49.8654H105.686H106.186V936.106V881.167L110.829 885.614L111.52 884.892L78.1276 852.902ZM105.186 880.209L77.7817 853.955L50.3654 880.22V906.715H63.819L63.819 880.001V879.501H64.319L91.2326 879.501H91.7326V880.001V906.715H105.186V880.209ZM105.186 907.715H91.7326L91.7326 935.606H105.186V907.715ZM90.7326 906.715V880.501L64.819 880.501L64.819 906.715H90.7326ZM64.819 907.715H90.7326L90.7326 935.606H64.819L64.819 907.715ZM63.819 907.715H50.3654V935.606H63.819L63.819 907.715Z" fill="#2080B7"/>
</g>
<path opacity="0.3" d="M1877.5 936.041L1877.5 30.7224" stroke="#2080B7"/>
</svg>
