<svg width="1921" height="1026" viewBox="0 0 1921 1026" fill="none" xmlns="http://www.w3.org/2000/svg">
<rect x="0.5" y="567.277" width="1920" height="131" fill="#D9D9D9" fill-opacity="0.5"/>
<rect x="0.5" y="812.277" width="1920" height="132" fill="#D9D9D9" fill-opacity="0.5"/>
<rect x="107.562" y="490.507" width="41.4777" height="41.4777" rx="6" stroke="black" stroke-opacity="0.8" stroke-width="4"/>
<rect x="107.562" y="736.087" width="41.4777" height="41.4777" rx="6" stroke="black" stroke-opacity="0.8" stroke-width="4"/>
<rect x="107.562" y="613.298" width="41.4777" height="41.4777" rx="6" stroke="black" stroke-opacity="0.8" stroke-width="4"/>
<rect x="107.562" y="858.876" width="41.4777" height="41.4777" rx="6" stroke="black" stroke-opacity="0.8" stroke-width="4"/>
<rect x="107.562" y="981.666" width="41.4777" height="41.4777" rx="6" stroke="black" stroke-opacity="0.8" stroke-width="4"/>
<rect x="0.5" y="79.2773" width="1920" height="131" fill="#D9D9D9" fill-opacity="0.5"/>
<rect x="0.5" y="324.277" width="1920" height="132" fill="#D9D9D9" fill-opacity="0.5"/>
<rect x="107.562" y="2.27734" width="41.4777" height="41.4777" rx="6" stroke="black" stroke-opacity="0.8" stroke-width="4"/>
<rect x="107.562" y="247.856" width="41.4777" height="41.4777" rx="6" stroke="black" stroke-opacity="0.8" stroke-width="4"/>
<rect x="107.562" y="125.068" width="41.4777" height="41.4777" rx="6" stroke="black" stroke-opacity="0.8" stroke-width="4"/>
<rect x="107.562" y="370.646" width="41.4777" height="41.4777" rx="6" stroke="black" stroke-opacity="0.8" stroke-width="4"/>
</svg>
