<svg width="250" height="183" viewBox="0 0 250 183" fill="none" xmlns="http://www.w3.org/2000/svg">
<path d="M227.844 26L21.0006 25.9999" stroke="#2080B7"/>
<path d="M227.844 44.2207L21.0006 44.2206" stroke="#2080B7" stroke-dasharray="3 3"/>
<path d="M228.004 62.4414L21.086 62.4413" stroke="#2080B7"/>
<path d="M227.848 80.6621L21.0046 80.6621" stroke="#2080B7"/>
<path fill-rule="evenodd" clip-rule="evenodd" d="M43.1605 26.3575L42.8069 26.0039L42.4534 26.3575L21.7109 47.0999L22.418 47.807L24.9691 45.256V80.4253V80.9253H25.4691H60.143H60.643V80.4253V45.2542L63.1958 47.807L63.9029 47.0999L43.1605 26.3575ZM59.643 44.2542L42.8069 27.4181L25.9691 44.256V61.1936H33.9477L33.9477 44.0475V43.5475H34.4477L51.1655 43.5476H51.6655V44.0476L51.6655 61.1936H59.643V44.2542ZM59.643 62.1936H51.6655L51.6655 79.9253H59.643V62.1936ZM50.6655 61.1936L50.6655 44.5476L34.9477 44.5475L34.9477 61.1936H50.6655ZM34.9477 62.1936H50.6655L50.6655 79.9253H34.9477L34.9477 62.1936ZM33.9477 62.1936H25.9691V79.9253H33.9477L33.9477 62.1936Z" fill="#2080B7"/>
<path d="M227.844 102L21.0006 102" stroke="#2080B7"/>
<path d="M227.844 120.221L21.0006 120.221" stroke="#2080B7" stroke-dasharray="3 3"/>
<path d="M228.004 138.441L21.086 138.441" stroke="#2080B7"/>
<path d="M227.848 156.662L21.0046 156.662" stroke="#2080B7"/>
<path fill-rule="evenodd" clip-rule="evenodd" d="M43.1605 102.357L42.8069 102.004L42.4534 102.357L21.7109 123.1L22.418 123.807L24.9691 121.256V156.425V156.925H25.4691H60.143H60.643V156.425V121.254L63.1958 123.807L63.9029 123.1L43.1605 102.357ZM59.643 120.254L42.8069 103.418L25.9691 120.256V137.194H33.9477L33.9477 120.048V119.548H34.4477L51.1655 119.548H51.6655V120.048L51.6655 137.194H59.643V120.254ZM59.643 138.194H51.6655L51.6655 155.925H59.643V138.194ZM50.6655 137.194L50.6655 120.548L34.9477 120.548L34.9477 137.194H50.6655ZM34.9477 138.194H50.6655L50.6655 155.925H34.9477L34.9477 138.194ZM33.9477 138.194H25.9691V155.925H33.9477L33.9477 138.194Z" fill="#2080B7"/>
</svg>
