<svg width="1920" height="1073" viewBox="0 0 1920 1073" fill="none" xmlns="http://www.w3.org/2000/svg">
<g opacity="0.3">
<path d="M1923.5 -0.416992L-0.473563 -0.417135" stroke="black"/>
<path d="M1922.04 44.0166L-1.23504 44.0165" stroke="black"/>
<path d="M1922.04 88.4502L-1.23504 88.4501" stroke="black" stroke-dasharray="3 3"/>
<path d="M1923.5 132.885L-0.473563 132.885" stroke="black"/>
<path d="M1922.04 177.318L-1.23504 177.318" stroke="black"/>
<path d="M1922.04 221.75L-1.23504 221.75" stroke="black" stroke-dasharray="3 3"/>
<path d="M1923.5 267.415L-0.473563 267.415" stroke="black"/>
<path d="M1922.04 311.849L-1.23504 311.848" stroke="black"/>
<path d="M1922.04 356.282L-1.23504 356.282" stroke="black" stroke-dasharray="3 3"/>
<path d="M1923.5 401.946L-0.473563 401.946" stroke="black"/>
<path d="M1922.04 446.38L-1.23504 446.38" stroke="black"/>
<path d="M1922.04 490.812L-1.23504 490.811" stroke="black" stroke-dasharray="3 3"/>
<path d="M1923.5 536.479L-0.473563 536.479" stroke="black"/>
<path d="M1922.04 580.913L-1.23504 580.913" stroke="black"/>
<path d="M1922.04 625.347L-1.23504 625.347" stroke="black" stroke-dasharray="3 3"/>
<path d="M1923.5 671.013L-0.473563 671.013" stroke="black"/>
<path d="M1922.04 715.443L-1.23504 715.443" stroke="black"/>
<path d="M1922.04 759.875L-1.23504 759.875" stroke="black" stroke-dasharray="3 3"/>
<path d="M1923.5 805.546L-0.473563 805.546" stroke="black"/>
<path d="M1922.04 849.978L-1.23504 849.977" stroke="black"/>
<path d="M1922.04 894.411L-1.23504 894.411" stroke="black" stroke-dasharray="3 3"/>
<path d="M1923.5 940.077L-0.473563 940.077" stroke="black"/>
<path d="M1922.04 984.511L-1.23504 984.511" stroke="black"/>
<path d="M1922.04 1028.94L-1.23504 1028.94" stroke="black" stroke-dasharray="3 3"/>
<path d="M1923.48 1072L-0.489188 1072" stroke="black"/>
</g>
</svg>
