<svg width="298" height="287" viewBox="0 0 298 287" fill="none" xmlns="http://www.w3.org/2000/svg">
<g style="mix-blend-mode:luminosity" clip-path="url(#clip0_4467_118440)">
<path d="M64.3382 274.431C66.1997 278.398 71.7837 279.701 76.807 277.343L288.365 178.064C293.388 175.706 295.957 170.577 294.096 166.61L180.329 -75.8187C178.466 -79.7888 172.888 -81.0949 167.855 -78.733L-43.7025 20.5468C-48.7257 22.9041 -51.2919 28.0318 -49.4288 32.0019L64.3382 274.431Z" fill="#E6E0D2"/>
<path d="M80.4466 257.383C82.1695 261.055 87.0997 262.372 91.457 260.328L274.995 174.197C279.352 172.152 281.489 167.518 279.766 163.847L174.551 -60.3593C172.828 -64.0308 167.899 -65.3451 163.542 -63.3003L-19.9958 22.8302C-24.353 24.8749 -26.4917 29.5058 -24.7688 33.1773L80.4466 257.383Z" stroke="#535252" stroke-width="0.286324" stroke-miterlimit="10"/>
<path d="M179.98 -49.8388L-19.7461 43.8887" stroke="#535252" stroke-width="0.286324" stroke-miterlimit="10"/>
<path d="M186.328 -36.3193L-13.3984 57.4082" stroke="#535252" stroke-width="0.286324" stroke-miterlimit="10"/>
<path d="M192.668 -22.8017L-7.05859 70.9258" stroke="#535252" stroke-width="0.286324" stroke-miterlimit="10"/>
<path d="M199.011 -9.2783L-0.714844 84.4492" stroke="#535252" stroke-width="0.286324" stroke-miterlimit="10"/>
<path d="M205.363 4.23928L5.63672 97.9668" stroke="#535252" stroke-width="0.286324" stroke-miterlimit="10"/>
<path d="M211.703 17.7569L11.9766 111.484" stroke="#535252" stroke-width="0.286324" stroke-miterlimit="10"/>
<path d="M218.047 31.2744L18.3203 125.002" stroke="#535252" stroke-width="0.286324" stroke-miterlimit="10"/>
<path d="M224.39 44.7959L24.6641 138.523" stroke="#535252" stroke-width="0.286324" stroke-miterlimit="10"/>
<path d="M230.734 58.3155L31.0078 152.043" stroke="#535252" stroke-width="0.286324" stroke-miterlimit="10"/>
<path d="M237.078 71.8311L37.3516 165.559" stroke="#535252" stroke-width="0.286324" stroke-miterlimit="10"/>
<path d="M243.418 85.3506L43.6914 179.078" stroke="#535252" stroke-width="0.286324" stroke-miterlimit="10"/>
<path d="M249.769 98.8721L50.043 192.6" stroke="#535252" stroke-width="0.286324" stroke-miterlimit="10"/>
<path d="M256.109 112.388L56.3828 206.115" stroke="#535252" stroke-width="0.286324" stroke-miterlimit="10"/>
<path d="M262.457 125.909L62.7305 219.637" stroke="#535252" stroke-width="0.286324" stroke-miterlimit="10"/>
<path d="M268.797 139.427L69.0703 233.154" stroke="#535252" stroke-width="0.286324" stroke-miterlimit="10"/>
<path d="M275.14 152.946L75.4141 246.674" stroke="#535252" stroke-width="0.286324" stroke-miterlimit="10"/>
<g style="mix-blend-mode:multiply" opacity="0.3">
<path d="M93.0018 264.32C110.726 252.171 129.776 242.15 148.823 232.266C158.186 227.408 167.572 222.591 176.818 217.528C186.01 212.518 194.865 207.005 203.899 201.737C220.999 191.766 238.046 181.996 252.136 167.854C256.833 163.147 262.429 157.086 262.226 149.907C262.123 146.164 260.952 142.738 259.664 139.251C257.97 134.652 256.661 129.934 255.072 125.295C240.217 81.7807 215.429 42.5237 194.023 2.08773C180.831 -22.7404 169.013 -48.2744 158.622 -74.3988L167.854 -78.7316C172.888 -81.0935 178.465 -79.7874 180.328 -75.8173L294.095 166.612C295.957 170.578 293.387 175.708 288.364 178.065L76.8062 277.345C76.3664 277.549 75.9148 277.726 75.4538 277.875C81.0338 273.018 86.8931 268.492 93.0018 264.32Z" fill="#E6E0D2"/>
</g>
<g style="mix-blend-mode:soft-light" opacity="0.5">
<path d="M34.9322 1.17303C23.4727 7.21931 11.2917 12.1629 -0.456285 17.62C-4.87584 19.694 -14.2512 21.9998 -15.0511 26.9753C-15.7246 31.1708 -8.46085 41.5304 -6.66828 45.4015C7.66074 76.3109 25.5415 106.138 40.0598 137.391C48.9971 156.623 56.9825 176.097 64.0162 195.811C70.6421 214.341 74.1489 229.987 97.47 228.708C137.756 226.502 169.246 194.684 197.866 170.068C213.274 156.832 217.074 141.62 214.384 121.599C208.818 80.1001 191.508 46.0375 167.651 12.0244C158.196 -1.48658 150.409 -18.4987 139.536 -30.516C125.488 -46.0674 111.342 -37.6154 95.671 -29.9488C75.2378 -19.9476 55.0529 -9.43427 34.9322 1.17303Z" fill="white"/>
</g>
<path d="M-3.56895 121.063C-2.27713 123.815 1.13879 124.935 4.05563 123.566C6.97247 122.197 8.30748 118.848 7.01566 116.095C5.72383 113.343 2.30617 112.228 -0.620507 113.602C-3.54719 114.975 -4.86078 118.31 -3.56895 121.063Z" fill="#4C4A45"/>
<path d="M-18.0996 127.884C-17.2373 129.721 -14.965 130.468 -13.0127 129.552L1.75191 122.623C3.70084 121.709 4.58152 119.482 3.71928 117.644C2.85858 115.81 0.584442 115.068 -1.36449 115.982L-16.1291 122.911C-18.0798 123.831 -18.9603 126.049 -18.0996 127.884Z" fill="#292929"/>
<path d="M6.42323 142.356C7.71352 145.105 11.1294 146.225 14.0463 144.856C16.9631 143.487 18.2981 140.138 17.0078 137.388C15.7176 134.639 12.2984 133.521 9.37168 134.895C6.445 136.268 5.12833 139.596 6.42323 142.356Z" fill="#4C4A45"/>
<path d="M-8.11211 149.177C-7.25141 151.011 -4.97902 151.759 -3.0268 150.842L11.7378 143.914C13.6868 142.999 14.5675 140.772 13.7068 138.938C12.8476 137.107 10.5688 136.355 8.61991 137.27L-6.14474 144.198C-8.10158 145.105 -8.9759 147.337 -8.11211 149.177Z" fill="#292929"/>
<path d="M16.4052 163.628C17.6955 166.378 21.113 167.501 24.0298 166.132C26.9467 164.763 28.2801 161.411 26.9899 158.661C25.6996 155.912 22.2788 154.791 19.3521 156.164C16.4255 157.537 15.115 160.879 16.4052 163.628Z" fill="#4C4A45"/>
<path d="M1.87239 170.45C2.73464 172.287 5.01164 173.044 6.96386 172.128L21.7285 165.2C23.6774 164.285 24.5597 162.061 23.6974 160.224C22.8352 158.387 20.561 157.644 18.6121 158.559L3.84746 165.487C1.88909 166.39 1.01015 168.613 1.87239 170.45Z" fill="#292929"/>
<path d="M26.3959 184.912C27.6877 187.665 31.1021 188.781 34.0189 187.412C36.9358 186.044 38.2723 182.698 36.9805 179.945C35.6887 177.192 32.271 176.078 29.3443 177.451C26.4177 178.825 25.1056 182.163 26.3959 184.912Z" fill="#4C4A45"/>
<path d="M11.8653 191.733C12.726 193.567 14.9983 194.314 16.9506 193.398L31.7152 186.47C33.6641 185.555 34.5448 183.328 33.6841 181.494C32.8234 179.66 30.5493 178.917 28.6004 179.832L13.8357 186.761C11.8835 187.677 11.0045 189.899 11.8653 191.733Z" fill="#292929"/>
<path d="M36.3787 206.194C37.6721 208.95 41.0865 210.066 44.0033 208.698C46.9201 207.329 48.2613 203.993 46.9633 201.227C45.6653 198.461 42.2554 197.363 39.3287 198.736C36.402 200.11 35.09 203.448 36.3787 206.194Z" fill="#4C4A45"/>
<path d="M21.8473 213.016C22.7095 214.853 24.9819 215.6 26.9341 214.684L41.6988 207.755C43.6477 206.841 44.5284 204.614 43.6661 202.777C42.807 200.946 40.5298 200.197 38.5808 201.111L23.8162 208.04C21.864 208.956 20.9896 211.188 21.8473 213.016Z" fill="#292929"/>
<path d="M46.3701 227.482C47.6604 230.231 51.0763 231.351 53.9931 229.982C56.91 228.613 58.245 225.264 56.9547 222.515C55.6644 219.765 52.2437 218.644 49.317 220.018C46.3903 221.391 45.0798 224.732 46.3701 227.482Z" fill="#4C4A45"/>
<path d="M31.8394 234.303C32.7002 236.137 34.9725 236.884 36.9248 235.968L51.6894 229.039C53.6383 228.125 54.519 225.898 53.6583 224.064C52.7961 222.226 50.5219 221.484 48.573 222.398L33.8084 229.327C31.8561 230.243 30.9772 232.465 31.8394 234.303Z" fill="#292929"/>
<path d="M56.3584 248.765C57.6487 251.515 61.0646 252.634 63.9814 251.265C66.8982 249.896 68.2333 246.548 66.943 243.798C65.6527 241.048 62.232 239.927 59.3053 241.301C56.3786 242.674 55.0665 246.012 56.3584 248.765Z" fill="#4C4A45"/>
<path d="M41.8277 255.586C42.6884 257.42 44.9608 258.167 46.913 257.251L61.6777 250.322C63.6266 249.408 64.5073 247.181 63.6466 245.347C62.7859 243.513 60.5102 242.767 58.5613 243.682L43.7966 250.61C41.8444 251.527 40.967 253.752 41.8277 255.586Z" fill="#292929"/>
<path d="M66.3451 270.047C67.6369 272.8 71.0529 273.919 73.9697 272.55C76.8865 271.182 78.2215 267.833 76.9297 265.08C75.6379 262.327 72.2202 261.212 69.2936 262.586C66.3669 263.959 65.0564 267.301 66.3451 270.047Z" fill="#4C4A45"/>
<path d="M51.816 276.867C52.6767 278.701 54.9491 279.449 56.9013 278.532L71.666 271.604C73.6149 270.689 74.4956 268.462 73.6349 266.628C72.7757 264.797 70.4985 264.048 68.5496 264.963L53.7849 271.892C51.8327 272.808 50.9568 275.036 51.816 276.867Z" fill="#292929"/>
</g>
<defs>
<clipPath id="clip0_4467_118440">
<rect width="266.172" height="283.667" fill="white" transform="translate(-64 30.0781) rotate(-25.1397)"/>
</clipPath>
</defs>
</svg>
