<svg width="48" height="39" viewBox="0 0 48 39" fill="none" xmlns="http://www.w3.org/2000/svg">
<path d="M36.592 38.8846H2.97562C2.71544 38.8727 2.46227 38.7966 2.23862 38.6631C2.01498 38.5296 1.82781 38.3429 1.69381 38.1195C1.55981 37.8962 1.48312 37.6432 1.47058 37.3831C1.45804 37.1229 1.51003 36.8637 1.62193 36.6285L8.84158 20.1587C9.38383 19.0317 10.2096 18.0649 11.2379 17.353C12.2662 16.6411 13.4618 16.2085 14.7075 16.0977H44.7142C46.9703 16.0977 48.0984 17.9026 46.9703 20.1587L39.525 36.8541C39.2977 37.4487 38.896 37.9607 38.3726 38.3231C37.8493 38.6854 37.2286 38.8811 36.592 38.8846V38.8846Z" fill="#6996DB"/>
<path d="M13.1666 13.3225H37.7585L38.8865 12.1945C38.8865 11.2371 38.5062 10.3189 37.8292 9.64195C37.1523 8.96498 36.2341 8.58465 35.2767 8.58465H24.4473C23.7498 8.56813 23.0646 8.39778 22.4405 8.08577C21.8165 7.77376 21.2691 7.32781 20.8374 6.77974L17.2276 2.04183C16.8354 1.45244 16.296 0.975844 15.6628 0.659241C15.0296 0.342639 14.3246 0.197028 13.6178 0.236921H4.36765C3.41027 0.236921 2.49209 0.617255 1.81512 1.29423C1.13815 1.9712 0.757812 2.88935 0.757812 3.84674V29.1155C0.757812 29.1155 0.757822 29.1155 2.1115 29.1155L7.30061 17.3836C7.82393 16.2425 8.64472 15.2634 9.67683 14.5488C10.7089 13.8343 11.9143 13.4107 13.1666 13.3225Z" fill="#3967AE"/>
</svg>
