<svg width="43" height="43" viewBox="0 0 43 43" fill="none" xmlns="http://www.w3.org/2000/svg">
<path d="M19.3113 35.4993C19.0125 35.3371 18.9248 35.0843 18.927 34.7518C18.9387 33.1116 18.9321 31.4714 18.9321 29.8311C18.9321 29.7318 18.9321 29.6317 18.9321 29.4899C18.821 29.4899 18.7246 29.4899 18.6289 29.4899C17.6901 29.4899 16.7519 29.4921 15.8131 29.4892C14.9261 29.4863 14.3935 28.9456 14.392 28.0521C14.3913 27.5713 14.392 27.0913 14.392 26.5828C14.2678 26.5828 14.1707 26.5828 14.0728 26.5828C12.8789 26.5828 11.6851 26.5843 10.4913 26.5821C9.46549 26.5806 8.81305 25.9333 8.81305 24.9163C8.81232 20.4237 8.81232 15.9311 8.81305 11.4378C8.81305 10.4457 9.4633 9.79688 10.4547 9.79688C12.3865 9.79615 14.319 9.79688 16.2507 9.79688C16.3494 9.79688 16.448 9.79688 16.5795 9.79688C16.5795 9.47979 16.5781 9.1817 16.5795 8.88507C16.5839 8.05582 17.1399 7.50128 17.9713 7.50055C20.3225 7.49982 22.6736 7.49982 25.0247 7.50055C25.8569 7.50055 26.4129 8.05436 26.4173 8.88434C26.4187 9.17512 26.4173 9.46591 26.4173 9.79688C26.5356 9.79688 26.6408 9.79688 26.7461 9.79688C28.6778 9.79688 30.6103 9.79615 32.542 9.79688C33.5335 9.79688 34.1845 10.4464 34.1845 11.4371C34.1852 15.9392 34.1852 20.4405 34.1845 24.9426C34.1845 25.9245 33.524 26.5792 32.5333 26.5814C31.2394 26.5835 29.9454 26.5821 28.6281 26.5821C28.6201 26.6573 28.6062 26.7253 28.6062 26.794C28.604 27.2499 28.6091 27.705 28.604 28.1609C28.596 28.9084 28.0392 29.4783 27.2933 29.4863C26.3274 29.4965 25.3615 29.4892 24.3957 29.4899C24.297 29.4899 24.1984 29.4899 24.0647 29.4899C24.0647 29.6193 24.0647 29.7252 24.0647 29.8311C24.0647 31.4714 24.0588 33.1116 24.0698 34.7518C24.072 35.0843 23.9836 35.3371 23.6855 35.5C22.2279 35.4993 20.7696 35.4993 19.3113 35.4993ZM21.5119 10.8877C17.8581 10.8877 14.2035 10.8877 10.5497 10.8877C10.0624 10.8877 9.90824 11.0389 9.90824 11.5219C9.90751 15.9596 9.90751 20.3974 9.90824 24.8352C9.90824 25.3349 10.0588 25.4847 10.5643 25.4847C17.8544 25.4854 25.1445 25.4854 32.4339 25.4847C32.9388 25.4847 33.0893 25.3349 33.0893 24.8344C33.09 20.4054 33.0893 15.9772 33.0893 11.5482C33.0893 11.0294 32.9446 10.8877 32.4193 10.8877C28.7837 10.8877 25.1482 10.8877 21.5119 10.8877ZM15.4894 26.5916C15.4894 27.0541 15.4894 27.4895 15.4894 27.925C15.4894 28.3677 15.5143 28.3926 15.949 28.3926C19.6481 28.3926 23.3472 28.3926 27.0456 28.3926C27.1187 28.3926 27.2056 28.4167 27.2611 28.386C27.3525 28.3341 27.4898 28.2494 27.4927 28.1734C27.5132 27.6495 27.5037 27.1242 27.5037 26.5916C23.4897 26.5916 19.51 26.5916 15.4894 26.5916ZM20.0536 29.5053C20.0536 31.1448 20.0536 32.7682 20.0536 34.3924C21.0282 34.3924 21.9817 34.3924 22.9439 34.3924C22.9439 32.7551 22.9439 31.1316 22.9439 29.5053C21.9693 29.5053 21.0166 29.5053 20.0536 29.5053ZM25.3214 9.78519C25.3214 9.51778 25.3221 9.27303 25.3214 9.029C25.3206 8.63885 25.2731 8.59136 24.8808 8.59136C22.7116 8.59136 20.5424 8.59136 18.3739 8.59136C18.2278 8.59136 18.0736 8.56287 17.9392 8.60232C17.8398 8.63154 17.701 8.74333 17.6922 8.82881C17.6623 9.14151 17.6806 9.45933 17.6806 9.78519C20.2348 9.78519 22.7569 9.78519 25.3214 9.78519Z" fill="black"/>
<path d="M20.7871 18.2179C20.7871 19.9765 20.7879 21.7344 20.7871 23.493C20.7871 23.9788 20.5943 24.1754 20.1135 24.1754C17.3715 24.1761 14.6295 24.1761 11.8868 24.1754C11.4214 24.1754 11.2204 23.973 11.2204 23.5105C11.2197 19.9575 11.2197 16.4045 11.2204 12.8515C11.2204 12.4 11.4177 12.2028 11.8692 12.2028C14.6295 12.202 17.3898 12.202 20.15 12.2028C20.5862 12.2028 20.7864 12.4008 20.7864 12.8333C20.7879 14.6284 20.7871 16.4228 20.7871 18.2179ZM12.3295 16.1488C12.3295 18.4649 12.3295 20.7568 12.3295 23.059C14.7888 23.059 17.2327 23.059 19.681 23.059C19.681 20.7466 19.681 18.4547 19.681 16.1488C17.229 16.1488 14.791 16.1488 12.3295 16.1488ZM19.6795 15.0251C19.6795 14.4377 19.6795 13.8773 19.6795 13.3162C17.2188 13.3162 14.7742 13.3162 12.3368 13.3162C12.3368 13.8971 12.3368 14.4567 12.3368 15.0251C14.7902 15.0251 17.221 15.0251 19.6795 15.0251Z" fill="black"/>
<path d="M31.777 18.2179C31.777 19.9765 31.7777 21.7344 31.777 23.493C31.777 23.9788 31.5841 24.1754 31.1034 24.1754C28.3614 24.1761 25.6194 24.1761 22.8766 24.1754C22.4112 24.1754 22.2103 23.973 22.2103 23.5105C22.2096 19.9575 22.2096 16.4045 22.2103 12.8515C22.2103 12.4 22.4076 12.2028 22.8591 12.2028C25.6194 12.202 28.3796 12.202 31.1399 12.2028C31.5761 12.2028 31.7763 12.4008 31.7763 12.8333C31.7777 14.6284 31.777 16.4228 31.777 18.2179ZM23.3194 16.1488C23.3194 18.4649 23.3194 20.7568 23.3194 23.059C25.7786 23.059 28.2225 23.059 30.6708 23.059C30.6708 20.7466 30.6708 18.4547 30.6708 16.1488C28.2189 16.1488 25.7808 16.1488 23.3194 16.1488ZM30.6694 15.0251C30.6694 14.4377 30.6694 13.8773 30.6694 13.3162C28.2087 13.3162 25.764 13.3162 23.3267 13.3162C23.3267 13.8971 23.3267 14.4567 23.3267 15.0251C25.7801 15.0251 28.2109 15.0251 30.6694 15.0251Z" fill="black"/>
<path d="M27.2463 20.7437C27.4903 20.7437 27.6788 20.74 27.8673 20.7444C28.2356 20.7532 28.4876 20.976 28.4927 21.2917C28.4979 21.6014 28.2692 21.8411 27.9112 21.8506C27.3654 21.8659 26.8189 21.8579 26.2731 21.8535C26.0108 21.8513 25.7902 21.7614 25.6667 21.5108C25.5403 21.2529 25.6448 21.0367 25.7968 20.8292C26.1781 20.3082 26.5617 19.788 26.9373 19.262C27.0366 19.1225 27.1141 18.9661 27.1922 18.8127C27.2945 18.611 27.2302 18.4539 27.0279 18.3699C26.8182 18.2837 26.6618 18.3816 26.5968 18.5781C26.512 18.8353 26.3776 19.0165 26.0919 19.0377C25.7084 19.0662 25.4336 18.7513 25.5052 18.3706C25.6484 17.6123 26.4631 17.0899 27.22 17.2718C28.0398 17.4691 28.557 18.2764 28.2655 19.0348C28.077 19.5258 27.7402 19.9612 27.4677 20.4193C27.4122 20.5136 27.3457 20.5998 27.2463 20.7437Z" fill="black"/>
<path d="M15.4464 18.3897C15.3412 18.3809 15.2689 18.3809 15.1988 18.3685C14.905 18.3181 14.7092 18.0821 14.7195 17.7971C14.7304 17.5085 14.9343 17.2981 15.2455 17.2798C15.4903 17.266 15.7365 17.266 15.982 17.2755C16.3327 17.2893 16.5533 17.4881 16.557 17.8373C16.5679 18.9742 16.5679 20.1117 16.5577 21.2486C16.5548 21.5985 16.3049 21.8294 15.9929 21.8228C15.6737 21.8163 15.4523 21.5751 15.4494 21.1974C15.442 20.3791 15.4464 19.5601 15.4464 18.7411C15.4464 18.6344 15.4464 18.5263 15.4464 18.3897Z" fill="black"/>
</svg>
