<svg width="48" height="48" viewBox="0 0 48 48" fill="none" xmlns="http://www.w3.org/2000/svg">
<path d="M16 15.4375C16 14.125 17.125 13 18.4375 13H24.625C28.375 13 31.1875 16.1875 31.1875 19.5625C31.1875 20.875 30.8125 22.1875 30.0625 23.125C31.375 24.25 32.3125 26.125 32.3125 28.375C32.3125 32.875 28.5625 35.3125 25.375 35.3125H18.4375C17.125 35.5 16 34.375 16 33.0625V15.4375ZM20.875 17.875V21.4375H24.625C25.5625 21.4375 26.5 20.6875 26.5 19.5625C26.5 18.625 25.75 17.6875 24.625 17.6875H20.875V17.875ZM20.875 26.3125V30.8125H25.375C26.5 30.8125 27.625 29.875 27.625 28.5625C27.625 27.25 26.5 26.3125 25.375 26.3125H20.875Z" fill="black"/>
</svg>
