<svg width="48" height="48" viewBox="0 0 48 48" fill="none" xmlns="http://www.w3.org/2000/svg">
<path d="M28.8009 33.3335C24.7691 37.6838 24.0659 41.5949 23.7393 43.3983L20.9153 41.006M28.8009 33.3335C30.8185 30.9519 29.0785 28.507 28.5137 28.0285M28.8009 33.3335L25.9971 30.9583M28.5137 28.0285C29.4712 26.8983 30.4655 26.2153 29.0536 25.0191C28.6443 24.6724 28.0599 24.1772 27.3996 23.6179M28.5137 28.0285L20.0015 20.8175M20.0015 20.8175C21.1231 19.4934 21.7113 18.7991 22.8005 19.7219C23.2699 20.1195 23.8943 20.6484 24.5756 21.2256M20.0015 20.8175C19.1946 20.1339 16.4436 19.5369 14.8364 21.4341C14.825 21.4475 14.8136 21.461 14.8022 21.4746M14.8022 21.4746C13.1959 23.3796 10.8479 26.7631 5.70629 28.1218L8.53025 30.5141M14.8022 21.4746L17.6261 23.8669M24.5756 21.2256L34.999 8.99916C35.4187 8.47645 36.5486 7.67709 37.7104 8.66135C38.8723 9.64561 38.2695 10.8915 37.8229 11.3915L27.3996 23.6179M24.5756 21.2256C25.4934 22.0031 26.5146 22.8681 27.3996 23.6179M17.6261 23.8669C16.4573 25.1648 12.0528 29.546 8.53025 30.5141M17.6261 23.8669L20.3694 26.1908M8.53025 30.5141L11.9593 33.419M11.9593 33.419C14.6593 32.0314 17.7608 29.5972 20.3694 26.1908M11.9593 33.419L17.4862 38.1011M20.3694 26.1908L23.1933 28.5831M23.1933 28.5831C21.5107 30.324 18.0458 34.6922 17.4862 38.1011M23.1933 28.5831L25.9971 30.9583M17.4862 38.1011L20.9153 41.006M25.9971 30.9583C24.5448 32.6863 21.4952 37.1151 20.9153 41.006" stroke="black" stroke-width="1.7"/>
</svg>
