<svg width="43" height="43" viewBox="0 0 43 43" fill="none" xmlns="http://www.w3.org/2000/svg">
<path d="M10.8501 21.496C10.8501 17.4079 10.8603 13.3191 10.8422 9.23105C10.8383 8.26602 11.4694 7.64047 12.1845 7.52574C12.3189 7.50452 12.4572 7.50059 12.5939 7.50059C18.535 7.4998 24.4761 7.4998 30.4172 7.50059C31.508 7.50059 32.1603 8.14421 32.1611 9.23027C32.1626 17.4071 32.1626 25.5832 32.1611 33.7601C32.1611 34.8454 31.508 35.4913 30.418 35.4913C24.4769 35.4921 18.5358 35.4835 12.5947 35.5C11.665 35.5023 10.8328 34.8462 10.8399 33.731C10.8658 29.6524 10.8501 25.5738 10.8501 21.496ZM31.3335 21.5258C31.3335 17.448 31.3335 13.371 31.3335 9.29314C31.3335 8.60787 31.0601 8.33046 30.3724 8.33046C24.462 8.32967 18.5515 8.32967 12.6411 8.33046C11.9519 8.33046 11.6784 8.60629 11.6784 9.29078C11.6784 17.426 11.6784 25.5612 11.6784 33.6972C11.6784 34.3825 11.9519 34.6607 12.6387 34.6607C18.5492 34.6615 24.4596 34.6615 30.3701 34.6607C31.0577 34.6607 31.3328 34.3833 31.3328 33.6996C31.3335 29.6414 31.3335 25.584 31.3335 21.5258Z" fill="black"/>
<path d="M21.4741 18.6787C18.9853 18.6787 16.4965 18.6787 14.0077 18.6787C13.5244 18.6787 13.4026 18.5569 13.4026 18.072C13.4018 15.6122 13.4018 13.1533 13.4026 10.6935C13.4026 10.1945 13.5236 10.0735 14.0281 10.0735C19.016 10.0727 24.003 10.0727 28.9909 10.0735C29.4907 10.0735 29.6117 10.1961 29.6117 10.6983C29.6125 13.158 29.6125 15.617 29.6117 18.0767C29.6117 18.5553 29.486 18.6779 29.0003 18.6787C26.4911 18.6787 23.9826 18.6787 21.4741 18.6787ZM28.741 17.8409C28.741 15.5171 28.741 13.2209 28.741 10.9222C23.9032 10.9222 19.0875 10.9222 14.2717 10.9222C14.2717 13.2382 14.2717 15.5336 14.2717 17.8409C19.1016 17.8409 23.9095 17.8409 28.741 17.8409Z" fill="black"/>
<path d="M29.6109 29.0379C29.6109 30.1255 29.6117 31.2123 29.6109 32.3C29.6109 32.7896 29.4883 32.9177 29.0129 32.9184C27.8671 32.92 26.7205 32.9208 25.5748 32.9184C25.1276 32.9177 24.9995 32.7896 24.9995 32.3377C24.9979 30.1436 24.9979 27.9495 24.9995 25.7553C24.9995 25.294 25.137 25.1589 25.596 25.1581C26.7323 25.1565 27.8687 25.1573 29.005 25.1581C29.4766 25.1589 29.6102 25.2948 29.6109 25.7758C29.6117 26.8634 29.6109 27.9502 29.6109 29.0379ZM28.7449 32.0744C28.7449 30.0446 28.7449 28.0414 28.7449 26.0288C27.7736 26.0288 26.8211 26.0288 25.864 26.0288C25.864 28.0548 25.864 30.0579 25.864 32.0744C26.8266 32.0744 27.7728 32.0744 28.7449 32.0744Z" fill="black"/>
<path d="M15.7114 25.1573C16.2898 25.1573 16.8674 25.1557 17.4458 25.1581C17.8663 25.1596 18.0101 25.3027 18.0132 25.7255C18.0171 26.362 18.0179 26.9993 18.0124 27.6359C18.0093 28.0335 17.8568 28.1836 17.4537 28.1852C16.2875 28.1891 15.1213 28.1891 13.9558 28.1852C13.559 28.1836 13.4057 28.0257 13.4034 27.6288C13.3994 26.9923 13.4002 26.3549 13.4034 25.7184C13.4057 25.3042 13.555 25.1596 13.9778 25.1581C14.5546 25.1557 15.133 25.1573 15.7114 25.1573ZM14.2662 27.32C15.2344 27.32 16.1853 27.32 17.1456 27.32C17.1456 26.8775 17.1456 26.454 17.1456 26.0304C16.1727 26.0304 15.2218 26.0304 14.2662 26.0304C14.2662 26.4705 14.2662 26.887 14.2662 27.32Z" fill="black"/>
<path d="M21.5268 25.1573C22.095 25.1573 22.6632 25.1557 23.2313 25.1581C23.6636 25.1597 23.7979 25.2925 23.7987 25.7137C23.7995 26.3699 23.8011 27.0269 23.7979 27.683C23.7964 28.017 23.6541 28.1813 23.3217 28.1836C22.1068 28.1915 20.8918 28.1915 19.6769 28.1829C19.3586 28.1805 19.2148 28.0163 19.2132 27.7011C19.2093 27.0151 19.2093 26.3298 19.2132 25.6437C19.2148 25.3145 19.3641 25.1644 19.7028 25.1604C20.3119 25.1534 20.9193 25.1581 21.5268 25.1573ZM20.0486 27.3153C21.0341 27.3153 21.9967 27.3153 22.9539 27.3153C22.9539 26.8673 22.9539 26.4437 22.9539 26.0233C21.974 26.0233 21.0183 26.0233 20.0486 26.0233C20.0486 26.4579 20.0486 26.8752 20.0486 27.3153Z" fill="black"/>
<path d="M15.713 29.911C16.3008 29.911 16.8887 29.9094 17.4765 29.9117C17.8537 29.9133 18.0061 30.0469 18.0109 30.4131C18.0195 31.0795 18.0187 31.7459 18.0116 32.4116C18.0077 32.7707 17.8631 32.9153 17.5103 32.9169C16.3055 32.9216 15.1 32.9216 13.8953 32.9161C13.5605 32.9145 13.4081 32.7636 13.4041 32.4312C13.3963 31.7554 13.3963 31.0795 13.4041 30.4029C13.4081 30.0579 13.5676 29.9133 13.9197 29.9117C14.5177 29.9086 15.115 29.911 15.713 29.911ZM17.1566 30.762C16.1743 30.762 15.2226 30.762 14.2694 30.762C14.2694 31.2123 14.2694 31.6383 14.2694 32.0666C15.2431 32.0666 16.1963 32.0666 17.1566 32.0666C17.1566 31.6249 17.1566 31.2053 17.1566 30.762Z" fill="black"/>
<path d="M27.2785 23.4323C26.6907 23.4323 26.1029 23.4347 25.515 23.4315C25.163 23.4292 25.0066 23.2869 25.0019 22.9365C24.9932 22.2606 24.9932 21.5848 25.0019 20.9081C25.0066 20.5694 25.1535 20.4241 25.493 20.4225C26.6978 20.417 27.9033 20.417 29.108 20.4225C29.4585 20.4241 29.6054 20.5765 29.6086 20.9302C29.6149 21.5966 29.6157 22.263 29.6086 22.9286C29.6047 23.2775 29.4467 23.4292 29.1009 23.4308C28.4934 23.4355 27.886 23.4323 27.2785 23.4323ZM28.7473 22.5836C28.7473 22.1396 28.7473 21.7144 28.7473 21.272C27.7807 21.272 26.829 21.272 25.8726 21.272C25.8726 21.7199 25.8726 22.1514 25.8726 22.5836C26.8424 22.5836 27.787 22.5836 28.7473 22.5836Z" fill="black"/>
<path d="M15.6957 23.4323C15.1079 23.4323 14.5201 23.4347 13.9322 23.4315C13.5645 23.43 13.4065 23.2822 13.4034 22.9207C13.3971 22.2543 13.3971 21.5879 13.4034 20.9223C13.4065 20.5742 13.5574 20.4241 13.9118 20.4225C15.1071 20.4178 16.3024 20.417 17.4977 20.4225C17.8702 20.4241 18.0085 20.5671 18.0116 20.9459C18.0179 21.6021 18.0187 22.259 18.0109 22.9152C18.0069 23.2854 17.8537 23.43 17.4883 23.4323C16.891 23.4347 16.2938 23.4323 15.6957 23.4323ZM17.1511 21.2704C16.1719 21.2704 15.2266 21.2704 14.2765 21.2704C14.2765 21.7184 14.2765 22.149 14.2765 22.5836C15.2478 22.5836 16.1916 22.5836 17.1511 22.5836C17.1511 22.1404 17.1511 21.7144 17.1511 21.2704Z" fill="black"/>
<path d="M21.5064 32.9184C20.9185 32.9184 20.3307 32.9216 19.7437 32.9177C19.3453 32.9145 19.2148 32.7833 19.214 32.3919C19.2124 31.7357 19.2124 31.0795 19.214 30.4233C19.2148 30.0532 19.3563 29.9117 19.7288 29.9117C20.9138 29.9102 22.0989 29.9102 23.284 29.9117C23.6565 29.9125 23.7979 30.0532 23.7987 30.4233C23.8011 31.0897 23.8011 31.7554 23.7987 32.4218C23.7971 32.7754 23.6604 32.9137 23.2989 32.9177C22.7009 32.9224 22.1036 32.9184 21.5064 32.9184ZM20.0494 30.7495C20.0494 31.2076 20.0494 31.6336 20.0494 32.0729C21.0262 32.0729 21.9881 32.0729 22.9571 32.0729C22.9571 31.6241 22.9571 31.1919 22.9571 30.7495C21.9818 30.7495 21.0278 30.7495 20.0494 30.7495Z" fill="black"/>
<path d="M21.4765 23.4323C20.8887 23.4323 20.3009 23.4347 19.7138 23.4315C19.3625 23.4292 19.2156 23.2814 19.2148 22.9317C19.2124 22.2559 19.2117 21.5801 19.2148 20.9042C19.2164 20.5781 19.3492 20.4264 19.6706 20.4248C20.895 20.4178 22.1193 20.4178 23.3437 20.4248C23.6643 20.4264 23.7971 20.5797 23.7987 20.9058C23.8019 21.5911 23.8026 22.2771 23.7987 22.9624C23.7971 23.2744 23.6431 23.4284 23.328 23.4315C22.7103 23.4363 22.0934 23.4323 21.4765 23.4323ZM22.9696 21.2759C21.9779 21.2759 21.0144 21.2759 20.0541 21.2759C20.0541 21.7239 20.0541 22.1498 20.0541 22.5789C21.0364 22.5789 21.9999 22.5789 22.9696 22.5789C22.9696 22.1364 22.9696 21.7168 22.9696 21.2759Z" fill="black"/>
</svg>
