<svg width="43" height="43" viewBox="0 0 43 43" fill="none" xmlns="http://www.w3.org/2000/svg">
<path d="M22.7595 7.5C22.8224 7.53143 22.883 7.56651 22.9473 7.59356C23.4963 7.82526 23.804 8.24627 23.8354 8.831C23.8661 9.39454 23.6117 9.84113 23.1133 10.1145C22.9488 10.2044 22.9028 10.3038 22.9101 10.4756C22.9225 10.7467 22.913 11.0194 22.913 11.311C24.0459 11.4528 25.1247 11.7291 26.1597 12.1618C27.1889 12.593 28.1434 13.1544 29.0534 13.8743C29.3231 13.5915 29.5731 13.2998 29.8531 13.0411C30.6483 12.3065 31.8908 12.634 32.1818 13.6543C32.3272 14.166 32.2103 14.6323 31.8368 15.016C31.57 15.2901 31.2856 15.5474 31.013 15.8083C35.4146 21.4415 33.8804 28.8077 29.4057 32.6055C24.8726 36.4546 18.1847 36.4633 13.6355 32.6406C9.16663 28.8852 7.54838 21.4744 11.9887 15.8091C11.7292 15.5606 11.4588 15.315 11.2037 15.0555C10.635 14.4766 10.6175 13.6156 11.1533 13.0681C11.7007 12.509 12.5764 12.4995 13.1691 13.0608C13.4396 13.3174 13.6866 13.598 13.9381 13.8619C16.6483 12.0989 17.6701 11.6743 20.0873 11.3073C20.0873 10.9806 20.0931 10.6459 20.0814 10.3126C20.08 10.2607 20.0098 10.1934 19.9557 10.1642C19.4148 9.87036 19.1239 9.415 19.1692 8.80542C19.216 8.17537 19.5712 7.74778 20.1837 7.55116C20.2064 7.54386 20.2232 7.51827 20.243 7.50146C21.082 7.5 21.9204 7.5 22.7595 7.5ZM10.2966 23.3631C10.3047 29.5459 15.3268 34.5819 21.4819 34.5805C27.6735 34.579 32.727 29.5182 32.7051 23.3404C32.6832 17.1766 27.6537 12.1633 21.5031 12.1735C15.3151 12.1837 10.2886 17.2029 10.2966 23.3631ZM30.3969 15.1001C30.6695 14.8348 30.9326 14.5957 31.1746 14.3377C31.3536 14.147 31.3397 13.8977 31.1716 13.723C30.9955 13.5396 30.7331 13.5198 30.535 13.7011C30.2682 13.946 30.019 14.2091 29.7661 14.4605C29.9846 14.6827 30.1885 14.8896 30.3969 15.1001ZM13.2408 14.4708C12.9813 14.2106 12.732 13.9445 12.4653 13.6989C12.2738 13.5228 12.0274 13.5403 11.8491 13.7106C11.6773 13.8743 11.6371 14.1228 11.8023 14.299C12.0611 14.5745 12.3512 14.8216 12.6136 15.0679C12.8124 14.8793 13.023 14.6791 13.2408 14.4708ZM21.9401 10.3345C21.6339 10.3345 21.3452 10.3345 21.0623 10.3345C21.0623 10.6473 21.0623 10.9258 21.0623 11.2123C21.3642 11.2123 21.6492 11.2123 21.9401 11.2123C21.9401 10.9068 21.9401 10.6196 21.9401 10.3345ZM21.0038 9.3558C21.0038 9.03127 21.0038 8.74329 21.0038 8.43996C20.7012 8.44069 20.3745 8.34275 20.1998 8.65193C20.126 8.78203 20.1282 9.02396 20.2028 9.15407C20.3804 9.46471 20.7078 9.34849 21.0038 9.3558ZM21.9942 9.35361C22.2983 9.34776 22.6367 9.46909 22.8107 9.13433C22.8794 9.00203 22.8699 8.75791 22.7895 8.63365C22.6016 8.34348 22.2837 8.4363 21.9942 8.44581C21.9942 8.75937 21.9942 9.04662 21.9942 9.35361Z" fill="black"/>
<path d="M21.4994 33.6486C15.8852 33.6668 11.2373 29.0562 11.2212 23.4545C11.2052 17.738 15.7961 13.0974 21.4738 13.0915C27.1465 13.0849 31.7695 17.6985 31.7812 23.3763C31.7922 29.0299 27.1881 33.6303 21.4994 33.6486ZM21.495 32.7108C26.6794 32.6816 30.8537 28.4941 30.8325 23.3419C30.8113 18.1802 26.6144 14.0154 21.4643 14.0476C16.3026 14.079 12.148 18.2554 12.17 23.3894C12.1919 28.5475 16.3852 32.7393 21.495 32.7108Z" fill="black"/>
<path d="M21.9803 20.0849C21.9803 20.5133 21.9708 20.9423 21.9884 21.3706C21.992 21.4576 22.0783 21.584 22.158 21.6184C22.6681 21.8413 23.0431 22.1929 23.2404 22.714C23.2967 22.8631 23.3749 22.9033 23.5211 22.9004C23.9041 22.8931 24.2871 22.8931 24.6701 22.8997C25.0385 22.9063 25.2395 23.0868 25.2315 23.3887C25.2242 23.6752 25.0188 23.847 24.6694 23.8506C24.3047 23.8543 23.9399 23.8609 23.5752 23.8477C23.3866 23.8404 23.2953 23.8952 23.2185 24.0823C22.8867 24.8914 22.1397 25.3132 21.245 25.2255C20.4951 25.1517 19.8519 24.5523 19.6706 23.76C19.4762 22.9063 19.9294 22.0241 20.7736 21.6688C20.9804 21.5819 21.0302 21.4729 21.0272 21.2654C21.0155 20.4811 21.0221 19.6968 21.0228 18.9125C21.0228 18.8307 21.0192 18.7474 21.0316 18.667C21.0718 18.406 21.2757 18.2255 21.5133 18.2328C21.7435 18.2401 21.9416 18.4111 21.9672 18.6648C21.9906 18.8906 21.9782 19.1201 21.9796 19.3474C21.9811 19.5923 21.9803 19.8386 21.9803 20.0849ZM21.4972 24.2994C22.0001 24.3023 22.4225 23.8923 22.432 23.3923C22.4416 22.8843 22.0147 22.4458 21.506 22.4414C21.0016 22.4363 20.566 22.8756 20.5704 23.3828C20.5755 23.8828 20.9936 24.2965 21.4972 24.2994Z" fill="black"/>
<path d="M21.9767 15.9085C21.9767 16.0627 21.9877 16.2177 21.9745 16.3711C21.9496 16.6496 21.7494 16.8433 21.5038 16.8448C21.2582 16.8462 21.0455 16.6525 21.0302 16.3763C21.0133 16.0598 21.0126 15.7404 21.0309 15.4246C21.047 15.149 21.2648 14.9597 21.5126 14.9663C21.7538 14.9729 21.946 15.1527 21.9723 15.4195C21.9884 15.581 21.9752 15.7455 21.9752 15.9092L21.9767 15.9085Z" fill="black"/>
<path d="M28.9643 23.8499C28.8188 23.8499 28.6733 23.8565 28.5286 23.8484C28.2348 23.8316 28.0309 23.6335 28.0301 23.3741C28.0294 23.1255 28.2187 22.9209 28.5016 22.9063C28.8181 22.8902 29.1368 22.8895 29.4532 22.9077C29.731 22.9238 29.9218 23.1416 29.9123 23.3872C29.9028 23.6357 29.7047 23.8294 29.4269 23.8477C29.2734 23.8579 29.1185 23.8499 28.9643 23.8499Z" fill="black"/>
<path d="M14.028 23.8492C13.8737 23.8492 13.7188 23.8579 13.5653 23.847C13.2905 23.8265 13.0931 23.6255 13.0895 23.3777C13.0865 23.1292 13.2751 22.9216 13.5573 22.907C13.8737 22.8902 14.1924 22.8902 14.5089 22.9077C14.7888 22.9238 14.9782 23.1365 14.9708 23.3836C14.9635 23.6328 14.7669 23.828 14.4899 23.847C14.3371 23.8587 14.1822 23.8499 14.028 23.8492Z" fill="black"/>
<path d="M21.9752 30.863C21.9752 31.0173 21.9884 31.1729 21.9723 31.325C21.9438 31.6005 21.7348 31.7906 21.4892 31.784C21.2516 31.7774 21.0462 31.594 21.0316 31.3294C21.0133 31.0041 21.0126 30.6759 21.0331 30.3507C21.0499 30.0832 21.2538 29.9114 21.4987 29.9099C21.7435 29.9085 21.9409 30.0802 21.9701 30.3463C21.9884 30.5166 21.9738 30.6905 21.9738 30.8623L21.9752 30.863Z" fill="black"/>
<path d="M25.0729 17.7818C24.6752 17.7789 24.4318 17.4485 24.5693 17.1547C24.722 16.8272 24.9077 16.5122 25.1087 16.2118C25.2468 16.0057 25.4705 15.9772 25.6905 16.0927C25.9171 16.2111 26.0033 16.4311 25.9054 16.6467C25.7519 16.9837 25.5553 17.3031 25.3491 17.6115C25.2841 17.7087 25.1306 17.7482 25.0729 17.7818Z" fill="black"/>
<path d="M17.6409 16.0386C17.7001 16.0846 17.8529 16.1577 17.9376 16.279C18.1131 16.5305 18.2607 16.8038 18.4047 17.0757C18.5341 17.3206 18.4573 17.5859 18.2402 17.7153C18.0173 17.8483 17.752 17.7899 17.6021 17.5516C17.4333 17.2833 17.2718 17.0092 17.1278 16.7271C16.9567 16.3916 17.1804 16.032 17.6409 16.0386Z" fill="black"/>
<path d="M15.5022 26.3504C15.6287 26.4746 15.8172 26.5806 15.8633 26.7297C15.9057 26.8686 15.8501 27.1237 15.7442 27.2063C15.4533 27.4321 15.1229 27.6163 14.7881 27.7735C14.574 27.8736 14.351 27.8027 14.2253 27.5783C14.1113 27.3751 14.1157 27.1427 14.3072 27.0111C14.6259 26.7904 14.9774 26.6171 15.3173 26.4271C15.3546 26.4059 15.405 26.4081 15.4496 26.3993C15.4664 26.3832 15.484 26.3672 15.5022 26.3504Z" fill="black"/>
<path d="M15.9086 19.7823C15.9188 20.1807 15.587 20.4409 15.2954 20.3071C14.9599 20.1529 14.639 19.9607 14.3291 19.7582C14.1405 19.6347 14.1135 19.3642 14.2268 19.1713C14.3503 18.9608 14.5893 18.8694 14.8122 18.9827C15.1185 19.1384 15.4204 19.3072 15.7047 19.4987C15.8136 19.5704 15.8677 19.7224 15.9086 19.7823Z" fill="black"/>
<path d="M28.8342 19.5097C28.7896 19.5689 28.7201 19.7239 28.601 19.8079C28.3503 19.9841 28.0769 20.131 27.805 20.275C27.5602 20.4043 27.2934 20.3291 27.1647 20.1149C27.0237 19.8803 27.088 19.6186 27.3445 19.4607C27.6143 19.2948 27.8869 19.1304 28.1705 18.9908C28.4928 18.8307 28.8363 19.058 28.8342 19.5097Z" fill="black"/>
<path d="M25.0933 28.9641C25.1598 29.0131 25.3119 29.0781 25.3915 29.1929C25.5713 29.4524 25.7241 29.733 25.8717 30.013C26.0026 30.2608 25.9229 30.5232 25.7007 30.6489C25.4741 30.7775 25.211 30.7147 25.0626 30.4778C24.8945 30.2089 24.7301 29.937 24.5883 29.6534C24.4238 29.3237 24.6635 28.9488 25.0933 28.9641Z" fill="black"/>
<path d="M27.6011 26.4088C27.6493 26.4242 27.7334 26.4359 27.8028 26.4739C28.074 26.623 28.3444 26.7728 28.6061 26.9366C28.8444 27.0857 28.908 27.3503 28.7793 27.5761C28.658 27.7895 28.4022 27.8758 28.1646 27.7537C27.8657 27.6002 27.5726 27.4336 27.2919 27.2487C27.1209 27.1361 27.0522 26.9556 27.1209 26.7451C27.1918 26.528 27.3453 26.4227 27.6011 26.4088Z" fill="black"/>
<path d="M17.9347 28.9619C18.3294 28.9722 18.5677 29.3076 18.4295 29.6022C18.2761 29.9289 18.0911 30.2447 17.8879 30.5436C17.7483 30.749 17.521 30.7651 17.3017 30.6555C17.0934 30.5509 16.994 30.2885 17.1037 30.07C17.263 29.755 17.4384 29.4451 17.6372 29.1542C17.7089 29.0482 17.8689 29.0021 17.9347 28.9619Z" fill="black"/>
</svg>
