<svg width="30" height="30" viewBox="0 0 30 30" fill="none" xmlns="http://www.w3.org/2000/svg">
<path d="M24.6657 5.56823C24.0741 4.97665 23.1185 4.97665 22.5269 5.56823L15.1094 12.9706L7.69186 5.55306C7.10027 4.96148 6.14464 4.96148 5.55306 5.55306C4.96148 6.14464 4.96148 7.10027 5.55306 7.69186L12.9706 15.1094L5.55306 22.5269C4.96148 23.1185 4.96148 24.0741 5.55306 24.6657C6.14464 25.2573 7.10027 25.2573 7.69186 24.6657L15.1094 17.2482L22.5269 24.6657C23.1185 25.2573 24.0741 25.2573 24.6657 24.6657C25.2573 24.0741 25.2573 23.1185 24.6657 22.5269L17.2482 15.1094L24.6657 7.69186C25.2421 7.11544 25.2421 6.14464 24.6657 5.56823Z" fill="black"/>
</svg>
