<svg width="43" height="43" viewBox="0 0 43 43" fill="none" xmlns="http://www.w3.org/2000/svg">
<path fill-rule="evenodd" clip-rule="evenodd" d="M16.4025 8.10053C11.7299 8.78912 8.97722 12.4814 8.93991 18.3412C8.86152 18.3412 8.78641 18.3411 8.71373 18.341C8.50494 18.3406 8.31622 18.3404 8.12751 18.3429C6.78408 18.34 5.49341 18.8656 4.53415 19.8061C3.57489 20.7466 3.02399 22.0267 3.0004 23.3699C2.96648 26.1921 5.11026 28.5055 7.96299 28.5225C11.8092 28.5457 15.6554 28.561 19.5016 28.5592V27.4615C19.26 27.461 19.0185 27.4608 18.7769 27.4608L18.7837 27.4675C15.3034 27.4675 11.8249 27.4675 8.34629 27.4557C6.34497 27.4455 4.71 26.2464 4.25377 24.5114C3.48546 21.5738 6.09396 18.889 9.08237 19.5674C10.3103 19.8439 10.4443 19.7133 10.1848 18.4989C9.23162 14.0689 12.1471 9.93903 16.7434 9.19108C20.9597 8.50589 25.0963 11.6249 25.6272 15.8904L25.6374 15.9735C25.741 16.7748 25.7885 17.1688 25.9973 17.294C26.2088 17.4209 26.5856 17.2719 27.3537 16.9911C29.562 16.1804 31.5921 16.5349 33.3153 18.1699C33.3659 18.217 33.4155 18.265 33.4641 18.314H34.9679C33.9652 16.8796 32.3922 15.829 30.5694 15.5919C29.7373 15.4827 28.8829 15.5486 28.021 15.6151C27.625 15.6457 27.2274 15.6764 26.8297 15.6903C25.9732 10.2019 20.9309 7.42212 16.4025 8.10053Z" fill="#7E7E7E"/>
<path d="M28.2661 19.3481C30.1741 19.3481 32.0821 19.3481 33.9903 19.3481C34.9673 19.3481 35.7243 19.9255 35.9417 20.8338C35.979 20.9984 35.997 21.1667 35.9954 21.3354C35.9988 24.13 35.9988 26.9244 35.9954 29.7186C35.9954 30.8676 35.1549 31.7044 34.0037 31.7052C30.1811 31.7071 26.3584 31.7071 22.5358 31.7052C21.3839 31.7052 20.5398 30.8759 20.5361 29.724C20.5296 26.9236 20.5296 24.1229 20.5361 21.3219C20.5391 20.1683 21.377 19.3495 22.5387 19.3474C24.4488 19.3449 26.358 19.3452 28.2661 19.3481ZM34.4077 26.7086L34.449 26.6908V26.5304C34.449 24.8168 34.449 23.103 34.449 21.3891C34.449 21.0164 34.3206 20.8875 33.9489 20.8875H22.5935C22.2161 20.8875 22.0854 21.0204 22.0854 21.4011C22.0854 23.7186 22.0854 26.0359 22.0854 28.353V28.5598C22.158 28.4934 22.2008 28.4553 22.2418 28.4147C22.8784 27.7793 23.5146 27.1436 24.1504 26.5076C24.7764 25.8834 25.5755 25.8808 26.2008 26.5032C26.4871 26.7881 26.767 27.0799 27.0598 27.3786C27.1212 27.306 27.1687 27.2537 27.2141 27.1971C28.1068 26.1265 28.9996 25.0559 29.8923 23.9853C30.5031 23.2548 31.4423 23.2523 32.0662 23.9777C32.5031 24.4858 32.9392 24.9939 33.3745 25.5019L34.4077 26.7086Z" fill="#7E7E7E"/>
<path d="M24.4072 21.668C24.8159 21.6675 25.2081 21.8289 25.498 22.1168C25.7879 22.4048 25.952 22.7959 25.9543 23.2045C25.959 24.0552 25.2535 24.7574 24.3982 24.7538C24.1916 24.7595 23.9861 24.7237 23.7936 24.6484C23.6012 24.5732 23.4259 24.4601 23.278 24.3158C23.1301 24.1715 23.0127 23.999 22.9327 23.8085C22.8528 23.618 22.8119 23.4134 22.8125 23.2067C22.8131 23.0001 22.8552 22.7958 22.9363 22.6057C23.0174 22.4157 23.1358 22.2439 23.2845 22.1005C23.4332 21.9571 23.6092 21.845 23.8021 21.7709C23.995 21.6968 24.2007 21.6621 24.4072 21.6691V21.668Z" fill="#7E7E7E"/>
</svg>
