<svg width="25" height="25" viewBox="0 0 25 25" fill="none" xmlns="http://www.w3.org/2000/svg">
<path d="M10.4495 3.9043C10.6026 4.02312 10.7705 4.12787 10.9067 4.26359C13.7952 7.14584 16.6797 10.032 19.5647 12.9171C19.9674 13.3197 19.9685 13.634 19.5659 14.0361C17.2473 16.3557 14.9288 18.6754 12.6086 20.9939C11.7385 21.8634 10.6116 21.86 9.73987 20.9888C8.01154 19.2611 6.28377 17.5327 4.556 15.8038C3.68705 14.9343 3.68986 13.8086 4.56332 12.9351C6.70332 10.7945 8.84389 8.65398 10.985 6.51454C11.0447 6.4554 11.114 6.40585 11.1906 6.34221C10.7654 5.91759 10.3633 5.51606 9.96176 5.11452C9.48927 4.6426 9.53995 4.23712 10.1121 3.9043C10.2248 3.9043 10.3374 3.9043 10.4495 3.9043ZM17.8893 14.0141C17.8679 13.9893 17.8465 13.9646 17.8251 13.9398C17.7863 13.9268 17.748 13.9071 17.708 13.9015C16.6121 13.7438 15.5168 13.5867 14.4208 13.4312C13.1932 13.2572 11.9649 13.086 10.7372 12.9103C9.51686 12.7357 8.29762 12.5544 7.0767 12.386C6.99729 12.3753 6.88522 12.4232 6.82497 12.4818C6.36655 12.9267 5.91828 13.3817 5.46606 13.8333C5.08818 14.2107 5.08818 14.5373 5.46832 14.918C7.18595 16.6356 8.90358 18.3538 10.6218 20.0715C11.0239 20.4735 11.3342 20.4724 11.7396 20.0675C13.7208 18.0869 15.7009 16.1051 17.6844 14.1267C17.7367 14.0732 17.8201 14.0507 17.8893 14.0141ZM17.3386 12.5651C15.5657 10.7912 13.8036 9.02904 12.0719 7.29733C10.7676 8.60048 9.44422 9.92333 8.11854 11.2479C11.1827 11.6855 14.262 12.1253 17.3386 12.5651Z" fill="black"/>
<path d="M21.6675 19.7072C21.6174 20.5029 21.1438 21.1934 20.4122 21.4828C19.6835 21.7706 18.8602 21.5746 18.3167 20.9839C17.8003 20.4218 17.6584 19.5703 18.0182 18.8901C18.3848 18.1968 18.7858 17.521 19.1907 16.8492C19.4385 16.4386 20.0107 16.4386 20.2585 16.8492C20.6634 17.521 21.061 18.1991 21.4282 18.8923C21.5577 19.1367 21.5903 19.4335 21.6675 19.7072ZM19.7246 18.4553C19.5275 18.7977 19.3433 19.1012 19.1755 19.4132C19.0223 19.6976 19.095 20.0096 19.3394 20.2033C19.5737 20.3892 19.8806 20.3881 20.1143 20.2005C20.3559 20.0068 20.4246 19.6926 20.2709 19.4076C20.1047 19.1001 19.9234 18.8005 19.7246 18.4553Z" fill="black"/>
</svg>
