<svg width="48" height="48" viewBox="0 0 48 48" fill="none" xmlns="http://www.w3.org/2000/svg">
<path d="M20.0629 7.49609C20.3571 7.72424 20.6793 7.92536 20.9409 8.18594C26.4867 13.7199 32.025 19.2613 37.5643 24.8006C38.3374 25.5738 38.3396 26.1771 37.5665 26.9491C33.1149 31.4028 28.6633 35.8566 24.2085 40.3081C22.538 41.9776 20.3744 41.9711 18.7006 40.2984C15.3822 36.9811 12.0648 33.6627 8.74752 30.3432C7.07913 28.6737 7.08453 26.5123 8.76158 24.8352C12.8704 20.7254 16.9803 16.6155 21.0912 12.5078C21.2058 12.3942 21.3388 12.2991 21.4859 12.1769C20.6695 11.3616 19.8975 10.5907 19.1266 9.81973C18.2194 8.91363 18.3167 8.13512 19.4153 7.49609C19.6315 7.49609 19.8478 7.49609 20.0629 7.49609ZM34.3475 26.907C34.3064 26.8594 34.2654 26.8118 34.2243 26.7642C34.1497 26.7394 34.0761 26.7015 33.9994 26.6907C31.8952 26.3879 29.7922 26.0863 27.688 25.7878C25.3309 25.4537 22.9726 25.125 20.6155 24.7877C18.2724 24.4525 15.9314 24.1043 13.5873 23.781C13.4348 23.7605 13.2196 23.8524 13.1039 23.9648C12.2238 24.819 11.3631 25.6927 10.4948 26.5599C9.76931 27.2843 9.76931 27.9114 10.4992 28.6424C13.797 31.9402 17.0949 35.2392 20.3938 38.537C21.1658 39.3091 21.7616 39.3069 22.5401 38.5295C26.344 34.7267 30.1457 30.9217 33.954 27.1232C34.0545 27.0205 34.2145 26.9772 34.3475 26.907ZM33.2901 24.1249C29.8862 20.7189 26.503 17.3356 23.1781 14.0107C20.6739 16.5128 18.1329 19.0526 15.5876 21.5958C21.4708 22.4359 27.3831 23.2804 33.2901 24.1249Z" fill="black"/>
<path d="M41.6013 37.8364C41.505 39.3642 40.5957 40.6899 39.1911 41.2456C37.792 41.7982 36.2112 41.4219 35.1678 40.2876C34.1762 39.2085 33.9038 37.5737 34.5947 36.2675C35.2986 34.9365 36.0684 33.6389 36.8459 32.349C37.3216 31.5608 38.4202 31.5608 38.896 32.349C39.6734 33.6389 40.4368 34.9408 41.1417 36.2718C41.3904 36.7411 41.4531 37.3109 41.6013 37.8364ZM37.8709 35.4328C37.4925 36.0902 37.1389 36.673 36.8167 37.272C36.5226 37.818 36.6621 38.4171 37.1313 38.789C37.5811 39.1458 38.1704 39.1437 38.6192 38.7836C39.083 38.4116 39.2149 37.8083 38.9197 37.2612C38.6008 36.6708 38.2526 36.0956 37.8709 35.4328Z" fill="black"/>
</svg>
