<svg width="43" height="43" viewBox="0 0 43 43" fill="none" xmlns="http://www.w3.org/2000/svg">
<path d="M22.8154 7.50146C23.0419 7.63881 23.1128 7.84117 23.1033 8.10125C23.0879 8.51109 23.1062 8.92167 23.096 9.33151C23.0916 9.49954 23.142 9.57917 23.3086 9.64784C24.8259 10.2754 25.8297 11.3771 26.2622 12.966C26.6019 14.2146 26.4514 15.4214 25.8348 16.5589C25.7304 16.7525 25.734 16.8877 25.8421 17.0732C28.4948 21.6568 31.1409 26.2447 33.7928 30.8289C33.9323 31.0693 33.9776 31.2972 33.9382 31.5785C33.7862 32.6597 33.6635 33.7446 33.5291 34.828C33.5159 34.9361 33.5254 35.0625 33.4728 35.1472C33.3925 35.2766 33.2792 35.4475 33.1558 35.4701C33.0184 35.4957 32.8358 35.4 32.7065 35.3102C32.6115 35.2437 32.5677 35.1012 32.5041 34.9909C30.2752 31.1299 28.0448 27.2696 25.8217 23.4057C25.7165 23.2238 25.6047 23.1566 25.3943 23.1588C24.3467 23.1705 23.2983 23.1639 22.2507 23.1639C22.1609 23.1639 22.071 23.1639 21.941 23.1639C21.941 23.3626 21.9446 23.5409 21.9402 23.7184C21.9337 24.004 21.7715 24.1801 21.5165 24.1859C21.2477 24.1918 21.0774 24.0135 21.0687 23.7155C21.0643 23.5518 21.0614 23.3882 21.0577 23.2245C21.0577 23.2158 21.0519 23.2077 21.0365 23.1639C20.951 23.1639 20.8532 23.1639 20.756 23.1639C19.7084 23.1639 18.66 23.1697 17.6124 23.1588C17.4027 23.1566 17.2895 23.2209 17.1843 23.4043C14.9656 27.2609 12.7388 31.1138 10.5143 34.9675C10.4595 35.0618 10.4047 35.1567 10.3492 35.2502C10.2418 35.4329 10.0847 35.5308 9.8714 35.4913C9.65954 35.4519 9.54265 35.3109 9.51489 35.0968C9.41115 34.2845 9.30741 33.4728 9.2044 32.6604C9.15984 32.3083 9.13354 31.9532 9.06998 31.6048C9.01957 31.3293 9.05756 31.0948 9.20221 30.8516C9.66758 30.0706 10.1154 29.2794 10.5822 28.4707C10.2601 28.2822 9.94738 28.101 9.63616 27.9169C9.30303 27.7197 9.24385 27.5231 9.43161 27.1937C9.78301 26.5771 10.1395 25.9634 10.4982 25.3512C10.6867 25.0297 10.903 24.9742 11.2273 25.1561C11.5437 25.3337 11.8578 25.517 12.1865 25.7055C12.7746 24.6864 13.3562 23.6782 13.9377 22.67C15.0204 20.7947 16.1016 18.9186 17.1887 17.0455C17.28 16.8884 17.2939 16.7737 17.1982 16.6035C15.7568 14.0363 16.9439 10.7313 19.6908 9.66099C19.8786 9.58794 19.9305 9.49442 19.9239 9.30667C19.9107 8.90632 19.9327 8.50452 19.9151 8.10417C19.9042 7.84482 19.9721 7.64319 20.192 7.5C21.0657 7.50146 21.9402 7.50146 22.8154 7.50146ZM21.5085 18.2757C23.7213 18.2743 25.5433 16.4559 25.5499 14.2431C25.5565 12.02 23.7279 10.1826 21.507 10.1804C19.2854 10.1782 17.4546 12.009 17.4546 14.2321C17.4546 16.4588 19.2781 18.2772 21.5085 18.2757ZM32.3521 30.1173C29.9333 25.9298 27.529 21.7671 25.1298 17.6138C24.7426 17.9251 24.3839 18.2136 24.0092 18.5146C26.3733 22.6101 28.7403 26.71 31.1182 30.8289C31.5383 30.5864 31.9299 30.3606 32.3521 30.1173ZM17.8725 17.6131C15.466 21.7831 13.0639 25.9451 10.656 30.1173C11.0849 30.3628 11.483 30.5908 11.8907 30.8245C14.2745 26.6918 16.6393 22.5919 18.9917 18.5139C18.606 18.2041 18.2531 17.92 17.8725 17.6131ZM25.1671 22.2741C24.4913 21.1059 23.847 19.9918 23.1982 18.8689C22.06 19.2649 20.9372 19.2518 19.8128 18.8689C19.1575 20.0028 18.5139 21.1169 17.8564 22.2551C18.9486 22.2551 19.9984 22.2551 21.038 22.2551C21.0519 22.2288 21.0592 22.2215 21.0592 22.2134C21.0621 22.0498 21.0628 21.8862 21.0672 21.7218C21.0752 21.4361 21.2652 21.233 21.5143 21.2411C21.7561 21.2491 21.9322 21.4434 21.9388 21.7174C21.9431 21.8964 21.9395 22.0754 21.9395 22.2733C22.0542 22.2733 22.1346 22.2733 22.2149 22.2733C23.1793 22.2741 24.1436 22.2741 25.1671 22.2741ZM10.2126 33.5985C10.2345 33.6021 10.2564 33.6058 10.2783 33.6094C10.6655 32.9395 11.0527 32.2688 11.445 31.5902C11.0176 31.3454 10.6202 31.1175 10.2367 30.8976C9.95177 31.1869 9.9072 31.5025 9.99414 31.8502C10.0095 31.9116 10.0087 31.9766 10.0168 32.0394C10.0811 32.5589 10.1468 33.079 10.2126 33.5985ZM31.5668 31.5931C31.9649 32.2835 32.3485 32.949 32.7518 33.6474C32.7824 33.5678 32.8073 33.5291 32.8124 33.4874C32.8913 32.8759 32.9519 32.2615 33.0506 31.6537C33.1017 31.3367 32.9607 31.1233 32.7817 30.8917C32.377 31.1255 31.9847 31.3513 31.5668 31.5931ZM22.204 8.38982C21.7196 8.38982 21.2674 8.38982 20.8064 8.38982C20.8064 8.71784 20.8064 9.03125 20.8064 9.32786C21.2813 9.32786 21.7401 9.32786 22.204 9.32786C22.204 9.01664 22.204 8.71053 22.204 8.38982ZM11.7329 26.4741C11.5086 26.344 11.3011 26.2235 11.0812 26.0964C10.8409 26.5135 10.6115 26.9124 10.3718 27.3288C10.6027 27.4596 10.8102 27.5772 11.0271 27.6999C11.2697 27.2791 11.4947 26.8883 11.7329 26.4741Z" fill="black"/>
<path d="M21.4895 17.1952C19.8428 17.1835 18.538 15.8583 18.5475 14.2065C18.557 12.5642 19.8837 11.2668 21.5435 11.2763C23.1632 11.2858 24.4672 12.6212 24.4577 14.2628C24.449 15.8941 23.1208 17.2069 21.4895 17.1952ZM21.4939 16.3142C22.6518 16.3171 23.5818 15.3973 23.584 14.2467C23.5862 13.099 22.6547 12.1558 21.5114 12.1493C20.3717 12.1427 19.4227 13.0866 19.4213 14.2284C19.4198 15.3842 20.3418 16.312 21.4939 16.3142Z" fill="black"/>
</svg>
