<svg width="136" height="140" viewBox="0 0 136 140" fill="none" xmlns="http://www.w3.org/2000/svg">
<g clip-path="url(#clip0_208_2)">
<path fill-rule="evenodd" clip-rule="evenodd" d="M69.2999 3.26901L67.9899 0.919922L66.6798 3.26901L0.68474 121.607L0.183594 122.505L0.737863 123.172C0.681651 123.314 0.629425 123.457 0.581314 123.601L1.32032 123.847C3.69432 126.463 7.15519 128.683 11.3252 130.558C15.8021 132.57 21.1986 134.229 27.1796 135.549C39.1422 138.188 53.5824 139.5 67.9899 139.5C82.3973 139.5 96.8376 138.188 108.8 135.549C114.781 134.229 120.178 132.57 124.655 130.558C128.82 128.685 132.277 126.468 134.651 123.857L135.418 123.601C135.368 123.451 135.314 123.303 135.255 123.156L135.796 122.505L135.295 121.607L69.2999 3.26901ZM132.072 121.987L67.9899 7.07929L3.91361 121.976L4.58833 122.533C4.53369 122.599 4.48075 122.666 4.42951 122.732C6.39203 124.574 9.12888 126.281 12.5552 127.821C16.789 129.725 21.9755 131.328 27.8259 132.619C39.5261 135.201 53.7416 136.5 67.9899 136.5C82.2382 136.5 96.4537 135.201 108.154 132.619C114.004 131.328 119.191 129.725 123.425 127.821C126.857 126.278 129.598 124.567 131.562 122.721C131.513 122.658 131.463 122.596 131.411 122.533L132.072 121.987ZM128.774 116.677C127.158 115.754 125.303 114.907 123.251 114.132L122.19 116.938C124.131 117.672 125.838 118.455 127.286 119.282L128.774 116.677ZM12.7484 114.132C10.6969 114.907 8.84114 115.754 7.22585 116.677L8.71369 119.282C10.1616 118.455 11.868 117.672 13.8093 116.938L12.7484 114.132ZM117.585 112.295C115.758 111.785 113.824 111.312 111.8 110.876L111.168 113.809C113.141 114.234 115.016 114.692 116.778 115.184L117.585 112.295ZM24.1995 110.876C22.1755 111.312 20.2418 111.785 18.4149 112.295L19.2217 115.184C20.9837 114.692 22.8583 114.234 24.8311 113.809L24.1995 110.876ZM106.024 109.771C104.141 109.452 102.2 109.16 100.21 108.894L99.8133 111.868C101.771 112.129 103.677 112.416 105.523 112.729L106.024 109.771ZM35.7897 108.894C33.7998 109.16 31.8583 109.452 29.9754 109.771L30.4766 112.729C32.3222 112.416 34.2286 112.129 36.1862 111.868L35.7897 108.894ZM94.3724 108.206C92.4534 108.008 90.5005 107.833 88.5217 107.68L88.2911 110.672C90.2452 110.822 92.1722 110.995 94.0643 111.19L94.3724 108.206ZM47.4777 107.68C45.4989 107.833 43.546 108.008 41.6271 108.206L41.9352 111.19C43.8272 110.995 45.7542 110.822 47.7083 110.672L47.4777 107.68ZM82.6631 107.299C80.7233 107.195 78.7665 107.112 76.7995 107.05L76.7051 110.049C78.6506 110.11 80.5855 110.192 82.5028 110.295L82.6631 107.299ZM59.1999 107.05C57.233 107.112 55.2761 107.195 53.3364 107.299L53.4966 110.295C55.414 110.192 57.3489 110.11 59.2944 110.049L59.1999 107.05ZM70.9333 106.928C68.9787 106.907 67.0208 106.907 65.0662 106.928L65.0974 109.928C67.0312 109.907 68.9683 109.907 70.9021 109.928L70.9333 106.928Z" fill="black"/>
</g>
<defs>
<clipPath id="clip0_208_2">
<rect width="136" height="140" fill="white"/>
</clipPath>
</defs>
</svg>
