<svg width="410" height="417" viewBox="0 0 410 417" fill="none" xmlns="http://www.w3.org/2000/svg">
<g clip-path="url(#clip0_208_2)">
<path fill-rule="evenodd" clip-rule="evenodd" d="M206.275 3.08071L204.557 0L202.839 3.08071L0.657227 365.619L0 366.798L0.862804 367.835C7.78183 376.155 18.5576 383.305 32.0374 389.364C45.5398 395.434 61.8886 400.468 80.0975 404.485C116.516 412.521 160.558 416.527 204.557 416.527C248.556 416.527 292.599 412.521 329.017 404.485C347.226 400.468 363.575 395.434 377.077 389.364C390.557 383.305 401.333 376.155 408.252 367.835L409.115 366.798L408.457 365.619L206.275 3.08071ZM5.40513 367.051C11.831 374.027 21.4459 380.289 33.6505 385.775C46.834 391.702 62.9075 396.664 80.9451 400.643C117.019 408.603 160.767 412.593 204.557 412.593C248.348 412.593 292.095 408.603 328.169 400.643C346.207 396.664 362.281 391.702 375.464 385.775C387.708 380.272 397.346 373.986 403.772 366.983C403.401 366.572 403.014 366.163 402.612 365.756L403.525 364.853L204.557 8.07769L6.0826 363.968L7.20728 365.05C6.57212 365.71 5.97128 366.377 5.40513 367.051ZM399.263 357.727C397.215 356.217 394.977 354.756 392.566 353.346L390.579 356.741C392.886 358.091 395.005 359.476 396.928 360.893L399.263 357.727ZM17.01 352.418C14.642 353.873 12.4351 355.384 10.4027 356.954L12.8077 360.068C14.7173 358.593 16.8073 357.16 19.0695 355.77L17.01 352.418ZM385.531 349.6C383.221 348.476 380.791 347.386 378.249 346.328L376.738 349.96C379.215 350.991 381.575 352.051 383.81 353.138L385.531 349.6ZM31.1882 345.147C28.6823 346.232 26.2823 347.356 23.9958 348.519L25.7801 352.026C27.988 350.902 30.314 349.813 32.7517 348.757L31.1882 345.147ZM370.937 343.485C368.543 342.614 366.069 341.768 363.519 340.947L362.312 344.692C364.819 345.499 367.248 346.329 369.592 347.182L370.937 343.485ZM45.9006 339.596C43.3402 340.441 40.8547 341.315 38.4493 342.219L39.8336 345.902C42.1854 345.018 44.6201 344.161 47.133 343.333L45.9006 339.596ZM355.933 338.639C353.478 337.933 350.964 337.248 348.394 336.583L347.409 340.392C349.947 341.048 352.427 341.725 354.846 342.42L355.933 338.639ZM60.9778 335.178C58.4195 335.844 55.9156 336.534 53.4699 337.248L54.5723 341.025C56.9793 340.322 59.4461 339.642 61.9693 338.985L60.9778 335.178ZM340.778 334.709C338.256 334.12 335.688 333.548 333.077 332.995L332.261 336.844C334.847 337.391 337.388 337.957 339.882 338.54L340.778 334.709ZM76.2823 331.603C73.6961 332.144 71.1519 332.705 68.653 333.287L69.5455 337.119C72.0143 336.544 74.5293 335.989 77.0876 335.454L76.2823 331.603ZM325.445 331.453C322.887 330.96 320.292 330.484 317.664 330.024L316.986 333.9C319.593 334.356 322.166 334.828 324.701 335.316L325.445 331.453ZM91.7104 328.699C89.1003 329.14 86.5233 329.599 83.9821 330.076L84.7085 333.943C87.225 333.47 89.7781 333.015 92.3651 332.579L91.7104 328.699ZM310.009 328.747C307.438 328.339 304.839 327.945 302.213 327.567L301.652 331.461C304.259 331.837 306.84 332.228 309.391 332.633L310.009 328.747ZM107.211 326.349C104.59 326.704 101.996 327.076 99.4296 327.465L100.019 331.355C102.564 330.969 105.138 330.6 107.739 330.248L107.211 326.349ZM294.505 326.51C291.924 326.173 289.32 325.851 286.696 325.542L286.237 329.45C288.845 329.756 291.432 330.077 293.996 330.411L294.505 326.51ZM122.759 324.47C120.135 324.751 117.532 325.047 114.951 325.358L115.423 329.264C117.986 328.955 120.571 328.661 123.177 328.382L122.759 324.47ZM278.955 324.681C276.365 324.408 273.757 324.149 271.133 323.903L270.767 327.82C273.375 328.064 275.968 328.322 278.543 328.593L278.955 324.681ZM138.339 323.005C135.718 323.219 133.111 323.448 130.522 323.691L130.89 327.608C133.463 327.366 136.054 327.139 138.66 326.926L138.339 323.005ZM263.371 323.219C260.773 323.005 258.162 322.804 255.54 322.615L255.258 326.54C257.867 326.727 260.464 326.927 263.048 327.14L263.371 323.219ZM153.945 321.911C151.327 322.065 148.719 322.233 146.125 322.414L146.4 326.339C148.979 326.158 151.572 325.992 154.176 325.839L153.945 321.911ZM247.762 322.098C245.16 321.938 242.548 321.791 239.928 321.657L239.727 325.586C242.333 325.72 244.932 325.866 247.521 326.025L247.762 322.098ZM169.569 321.16C166.955 321.258 164.348 321.37 161.75 321.494L161.939 325.424C164.523 325.3 167.116 325.19 169.717 325.092L169.569 321.16ZM232.134 321.297C229.531 321.189 226.922 321.094 224.308 321.012L224.184 324.945C226.785 325.026 229.382 325.121 231.972 325.228L232.134 321.297ZM185.206 320.733C182.596 320.778 179.989 320.836 177.388 320.907L177.496 324.84C180.083 324.77 182.677 324.712 185.274 324.667L185.206 320.733ZM216.495 320.805C213.89 320.748 211.282 320.704 208.674 320.673L208.627 324.607C211.222 324.638 213.817 324.682 216.41 324.738L216.495 320.805ZM200.85 320.617C198.243 320.611 195.636 320.617 193.032 320.637L193.061 324.571C195.653 324.552 198.246 324.545 200.841 324.551L200.85 320.617Z" fill="black"/>
</g>
<defs>
<clipPath id="clip0_208_2">
<rect width="136" height="140" fill="white"/>
</clipPath>
</defs>
</svg>
