<svg width="48" height="48" viewBox="0 0 48 48" fill="none" xmlns="http://www.w3.org/2000/svg">
<path d="M2 29.8632C2.22543 28.4969 3.11947 27.4722 3.8154 26.3562C5.61287 23.4725 7.4667 20.6248 9.28039 17.7497C9.79273 16.9299 10.4605 16.3202 11.3545 15.9411C12.7754 15.3434 14.1886 14.7209 15.601 14.1001C17.1986 13.3973 18.6588 13.6168 19.9986 14.72C19.9788 14.7728 19.9542 14.8237 19.9252 14.872C18.8265 16.4369 17.7264 18.0024 16.6248 19.5685C14.5453 22.5401 12.4674 25.5137 10.3913 28.4892C10.2487 28.6942 10.1351 28.9162 10.0079 29.1348C9.11986 29.4114 8.34366 29.8555 7.82363 30.6513C7.31726 31.4275 7.00644 32.2609 7.18064 33.213L6.36345 34.2104C6.17661 34.1723 5.98793 34.1438 5.79817 34.125C4.57025 34.0635 3.51397 33.6195 2.81804 32.588C2.45684 32.0551 2.26727 31.4002 2 30.8008V29.8632Z" fill="#FABAA9"/>
<path d="M40.5261 21.3531C41.789 21.3531 43.0528 21.3386 44.3166 21.3531C45.0919 21.3591 45.6282 21.8937 45.629 22.6716C45.6347 27.9658 45.6347 33.26 45.629 38.5542C45.6358 38.7613 45.5917 38.9669 45.5006 39.1529C45.4095 39.339 45.2742 39.4999 45.1064 39.6216C44.1202 40.3525 43.1262 41.0732 42.1348 41.7948H41.4517C40.7003 41.4429 40.4748 40.8409 40.5022 40.0383C40.5432 38.7771 40.5022 37.5141 40.5022 36.2512C40.5022 36.0958 40.5141 35.9404 40.5141 35.7841C40.5204 30.9727 40.5244 26.1623 40.5261 21.3531Z" fill="#4B398B"/>
<path d="M19.9006 36.679C19.9006 37.4722 19.8725 38.2664 19.9006 39.0579C19.9467 40.2782 19.1227 41.4899 17.8666 41.7204C17.8299 41.7272 17.7983 41.7657 17.7642 41.7896H16.9957C16.707 41.6837 16.4022 41.6085 16.1332 41.4668C15.3971 41.0757 14.9702 40.4378 14.808 39.5694C14.6782 39.9024 14.5953 40.1817 14.4664 40.4378C14.0719 41.2149 13.3802 41.5915 12.5699 41.7938H11.8014C11.7562 41.7625 11.7075 41.7367 11.6562 41.717C10.5538 41.4343 9.90313 40.7162 9.71014 39.6138C9.63158 39.1595 9.6794 38.6839 9.67001 38.2177L10.0167 37.7361L10.8569 36.6858L19.9006 36.679Z" fill="#FABAAA"/>
<path d="M19.9 36.6789H10.8555C9.95769 36.6204 9.0994 36.2881 8.39625 35.7268C7.73703 35.0095 7.1948 34.2367 7.18029 33.2078C7.00951 32.2574 7.31691 31.424 7.82328 30.6461C8.3433 29.8502 9.1195 29.4062 10.0076 29.1295L13.1713 28.9972C14.1217 28.9972 15.0729 29.0168 16.0233 28.9972C16.1685 28.9972 16.3563 28.8631 16.4503 28.7359C18.0864 26.4201 19.7159 24.0995 21.3389 21.774C22.6391 19.9182 23.9424 18.0652 25.2489 16.2151C25.7612 16.502 26.2642 16.8128 26.7919 17.0733C28.5211 17.9229 30.263 18.752 31.993 19.588C33.0638 20.1072 34.1278 20.6409 35.2063 21.1421C35.475 21.2631 35.7656 21.3279 36.0602 21.3325C37.5485 21.3539 39.0378 21.3462 40.527 21.3496C40.527 26.1582 40.5244 30.9669 40.5193 35.7755C40.5193 35.9317 40.5116 36.0872 40.5073 36.2426C39.6372 36.6541 38.7645 37.0606 37.8986 37.479C36.1635 38.3184 34.3353 38.8179 32.4268 39.0681C28.9514 39.5236 25.6389 38.9887 22.4891 37.4636C22.221 37.3347 21.9332 37.2408 21.6813 37.0879C21.1263 36.7558 20.5439 36.5986 19.9 36.6789Z" fill="#FBC9BD"/>
<path d="M13.1712 28.9999L10.0117 29.1323C10.139 28.9171 10.2525 28.6917 10.3951 28.4867C12.469 25.5117 14.5468 22.5381 16.6286 19.566C17.7256 17.9988 18.8257 16.4333 19.929 14.8695C19.958 14.8212 19.9826 14.7703 20.0024 14.7175C21.092 13.1748 22.1821 11.6324 23.2729 10.0902C23.3582 9.96468 23.4616 9.84684 23.5564 9.72559L25.6629 11.1345C25.6672 11.1559 25.6715 11.1764 25.674 11.1977C25.5991 11.2618 25.5295 11.3318 25.4657 11.4069C23.3822 14.3751 21.2995 17.3444 19.2177 20.3149C17.9001 22.1934 16.5765 24.072 15.2632 25.9506C14.5579 26.9642 13.868 27.9846 13.1712 28.9999Z" fill="#F1687F"/>
<path d="M13.1719 28.9997C13.8687 27.9844 14.5586 26.964 15.2639 25.9538C16.5772 24.0752 17.9008 22.1967 19.2184 20.3181C21.3008 17.3493 23.3834 14.38 25.4664 11.4101C25.5302 11.335 25.5998 11.265 25.6747 11.2009L27.7292 12.5971C26.9795 13.6855 26.2304 14.7739 25.4818 15.8624C25.4023 15.9777 25.3281 16.0972 25.2512 16.2151C23.9464 18.0692 22.642 19.923 21.3378 21.7765C19.7085 24.0974 18.079 26.4181 16.4492 28.7384C16.3586 28.8657 16.1708 28.9946 16.0222 28.9997C15.0735 29.0194 14.1248 29.004 13.1719 28.9997Z" fill="#EE274F"/>
<path d="M25.665 11.1344L23.5508 9.72547C24.2979 8.64784 25.028 7.55826 25.7991 6.49856C26.1987 5.94779 26.8776 5.85215 27.4634 6.21763C27.8562 6.4627 28.2242 6.74875 28.6033 7.01603C28.5043 7.13216 28.3941 7.2406 28.307 7.36527C27.4241 8.62222 26.5434 9.8786 25.665 11.1344Z" fill="#5B469C"/>
<path d="M25.6641 11.1344C26.5436 9.88198 27.4242 8.62646 28.306 7.3678C28.3914 7.24313 28.5033 7.13469 28.6023 7.01855C28.9627 7.26363 29.3384 7.48991 29.6791 7.75889C30.2051 8.1756 30.3563 8.83823 29.9908 9.38131C29.2624 10.4692 28.4862 11.5246 27.7297 12.5928L25.6752 11.2001C25.6726 11.1788 25.6683 11.1583 25.6641 11.1344Z" fill="#402D73"/>
<path d="M7.18093 33.2087C7.19545 34.2377 7.73768 35.0105 8.39689 35.7278L8.05533 36.2589C8.02857 36.2589 8.0021 36.2572 7.97592 36.2538L5.97266 34.8935C6.10245 34.6658 6.23253 34.4381 6.36289 34.2104C6.63557 33.8762 6.90825 33.5423 7.18093 33.2087Z" fill="#F16A80"/>
<path d="M4.70255 40.104C4.87114 39.8853 5.18511 39.8447 5.40381 40.0133C5.62252 40.1819 5.66314 40.4958 5.49455 40.7145L4.88404 41.5065C4.71545 41.7252 4.40148 41.7659 4.18277 41.5973C3.96407 41.4287 3.92344 41.1147 4.09203 40.896L4.70255 40.104Z" fill="black"/>
<path d="M7.97292 36.2537C7.99967 36.2537 8.02614 36.2554 8.05233 36.2588C8.16846 36.3587 8.27862 36.468 8.40243 36.5585C8.93868 36.953 9.47835 37.3415 10.0172 37.7318L9.67048 38.2134C8.6791 38.9349 7.6843 39.6548 6.69718 40.3806C6.20448 40.7435 5.70068 40.8118 5.16016 40.5061C5.17443 40.4388 5.198 40.3739 5.23018 40.3131C6.01918 39.1774 6.81502 38.0469 7.60147 36.9095C7.74407 36.7037 7.84996 36.4731 7.97292 36.2537Z" fill="#F79F8C"/>
<path d="M10.0156 37.7319C9.4768 37.3417 8.93713 36.9531 8.40088 36.5586C8.27707 36.4681 8.16691 36.3588 8.05078 36.2589L8.39234 35.7278C9.09529 36.2897 9.9536 36.6226 10.8516 36.6816L10.0156 37.7319Z" fill="#EE2D51"/>
<path d="M7.97146 36.2537C7.8485 36.4732 7.74262 36.7037 7.60002 36.9095C6.81357 38.0469 6.01773 39.1775 5.22872 40.3132C5.19632 40.3747 5.17275 40.4406 5.1587 40.5087C4.64636 40.1347 4.44228 39.6608 4.6327 39.0315C5.01269 37.7737 5.37816 36.5107 5.759 35.2521C5.79742 35.124 5.89989 35.0147 5.97247 34.896L7.97146 36.2537Z" fill="#FBC9BD"/>
<path d="M11.5 35.5V30.5H11C10 30.5 8.5 31 8.5 33C8.5 35 10.3333 35.5 11.5 35.5Z" fill="white"/>
</svg>
