<svg width="48" height="48" viewBox="0 0 48 48" fill="none" xmlns="http://www.w3.org/2000/svg">
<path d="M30.6995 6C31.0895 6.10218 31.4912 6.156 31.8562 6.312C34.5527 7.44924 35.2742 10.5552 33.743 12.6682C33.3749 13.176 32.97 13.6573 32.573 14.1643L25.9805 8.886C26.3205 8.45934 26.6575 8.04282 26.9874 7.62162C27.4157 7.07562 27.9383 6.63804 28.5802 6.37908C28.9663 6.22308 29.3859 6.14898 29.79 6.039C29.8461 6.02418 29.9031 6.01482 29.9592 6.00234L30.6995 6Z" fill="#54A5FF"/>
<path d="M6 39.696C6.11466 39.1781 6.234 38.6609 6.3432 38.1415C6.70356 36.4218 7.0621 34.704 7.41882 32.988C7.4664 32.7602 7.5171 32.5333 7.57482 32.254L13.7922 37.2374C13.619 37.3232 13.4654 37.4044 13.3078 37.4761L7.0257 40.3262C6.5148 40.5587 6.2808 40.4869 6 40.008V39.696Z" fill="#89C1FF"/>
<path d="M25.1496 9.91553L32.9363 16.1688C33.1703 15.881 33.391 15.6033 33.6157 15.3279C34.0899 14.7476 34.8637 14.6337 35.4167 15.062C35.9697 15.4902 36.0586 16.2811 35.5844 16.8833C34.8504 17.8193 34.1024 18.7404 33.3614 19.6679C31.7166 21.7265 30.0708 23.7842 28.424 25.8408C28.0777 26.2729 27.5605 26.4437 27.0715 26.2971C26.5528 26.1411 26.2197 25.7347 26.1651 25.1754C26.1316 24.8346 26.2509 24.5405 26.4623 24.2769C27.7472 22.6701 29.0314 21.0628 30.3147 19.4549L31.3747 18.1289L30.1681 17.1641C25.0757 23.5289 19.9839 29.8955 14.8926 36.2639L8.30078 30.9818L25.1496 9.91553Z" fill="#2173CF"/>
<path d="M27.0169 40.8215C27.0949 40.6343 27.1651 40.4416 27.2602 40.2622C27.3382 40.1203 27.449 39.9986 27.5371 39.8629C27.5959 39.7675 27.626 39.6573 27.624 39.5454C27.622 39.4334 27.5878 39.3244 27.5256 39.2312C27.4635 39.1381 27.3759 39.0647 27.2732 39.0199C27.1706 38.9751 27.0573 38.9607 26.9467 38.9784C24.5609 39.3382 22.1749 39.6967 19.7886 40.054C17.4159 40.4112 15.0431 40.7698 12.6704 41.1296C12.4457 41.1631 12.2219 41.1982 11.9964 41.2248C11.4746 41.2848 11.094 40.9908 11.0051 40.4604C10.9854 40.3495 10.9883 40.2358 11.0135 40.1261C11.0387 40.0164 11.0858 39.9129 11.1519 39.8218C11.218 39.7306 11.3018 39.6537 11.3982 39.5957C11.4947 39.5376 11.6018 39.4996 11.7133 39.4838C12.3373 39.3707 12.9699 39.2888 13.5978 39.1936C15.0985 38.9659 16.5992 38.7386 18.0999 38.5119C19.7026 38.2701 21.306 38.0296 22.9102 37.7904L27.9903 37.0291C28.6315 36.9324 29.2719 36.8271 29.9146 36.7398C30.2835 36.6898 30.5768 36.849 30.7788 37.1532C30.9808 37.4574 31.023 37.7928 30.828 38.125C30.6993 38.3427 30.562 38.5556 30.4247 38.7685C30.2874 38.9815 30.2687 39.2061 30.4044 39.4269C30.5401 39.6476 30.7687 39.7264 31.0284 39.6928C31.8604 39.5888 32.6903 39.4815 33.5182 39.3707L37.5898 38.8426C38.5546 38.7178 39.5203 38.5977 40.4851 38.4667C41.0382 38.3887 41.4633 38.6375 41.5842 39.1242C41.6131 39.2441 41.6165 39.3688 41.5942 39.4901C41.5719 39.6115 41.5244 39.7267 41.4547 39.8285C41.3849 39.9303 41.2946 40.0163 41.1895 40.0809C41.0845 40.1456 40.967 40.1874 40.8447 40.2037C38.5281 40.4986 36.2115 40.7945 33.8949 41.0914C31.9517 41.3394 30.0084 41.5867 28.0652 41.8332C27.4903 41.9057 27.0434 41.458 27.0169 40.8215Z" fill="#63707E"/>
</svg>
