<svg width="48" height="48" viewBox="0 0 48 48" fill="none" xmlns="http://www.w3.org/2000/svg">
<path d="M24.8594 17.2523C24.8604 15.638 24.8594 14.4272 24.8594 14.4272L30.913 20.4808H28.119C24.8594 20.4808 24.8594 18.8665 24.8594 17.2523Z" fill="black" stroke="black" stroke-width="1.5" stroke-linecap="round" stroke-linejoin="round"/>
<path fill-rule="evenodd" clip-rule="evenodd" d="M23.1246 13.6797H14.75C13.2312 13.6797 12 14.9109 12 16.4297V34.9144C12 36.4332 13.2312 37.6644 14.75 37.6644H28.9108C30.4295 37.6644 31.6608 36.4332 31.6608 34.9144V23.9441H30.1608V34.9144C30.1608 35.6048 29.6011 36.1644 28.9108 36.1644H14.75C14.0596 36.1644 13.5 35.6048 13.5 34.9144V16.4297C13.5 15.7393 14.0596 15.1797 14.75 15.1797H23.1246V13.6797Z" fill="black"/>
<path fill-rule="evenodd" clip-rule="evenodd" d="M32.6448 33.9849L33.8848 33.9849C35.4035 33.9849 36.6348 32.7536 36.6348 31.2349L36.6348 12.7501C36.6348 11.2313 35.4035 10.0001 33.8848 10.0001L19.724 10.0001C18.2235 10.0001 17.0036 11.2019 16.9745 12.6955L18.4752 12.6955C18.5038 12.0305 19.0519 11.5001 19.724 11.5001L33.8848 11.5001C34.5751 11.5001 35.1348 12.0598 35.1348 12.7501L35.1348 31.2349C35.1348 31.9252 34.5751 32.4849 33.8848 32.4849L32.6448 32.4849L32.6448 33.9849Z" fill="black"/>
<path d="M22.2598 14.4272H24.8542L30.9077 20.4808V24.8048" stroke="black" stroke-width="1.5" stroke-linecap="round"/>
<path d="M16.209 23.0747H22.695M16.209 27.3987H27.8838M16.209 31.7227H27.8838" stroke="black" stroke-width="1.5" stroke-linecap="round"/>
</svg>
