<svg width="48" height="48" viewBox="0 0 48 48" fill="none" xmlns="http://www.w3.org/2000/svg">
<path d="M24.8594 17.2527C24.8604 15.6385 24.8594 14.4277 24.8594 14.4277L30.913 20.4813H28.119C24.8594 20.4813 24.8594 18.867 24.8594 17.2527Z" fill="black" stroke="black" stroke-width="1.5" stroke-linecap="round" stroke-linejoin="round"/>
<path fill-rule="evenodd" clip-rule="evenodd" d="M23.1246 13.6797H14.75C13.2312 13.6797 12 14.9109 12 16.4297V34.9144C12 36.4332 13.2312 37.6644 14.75 37.6644H28.9108C30.4295 37.6644 31.6608 36.4332 31.6608 34.9144V23.9441H30.1608V34.9144C30.1608 35.6048 29.6011 36.1644 28.9108 36.1644H14.75C14.0596 36.1644 13.5 35.6048 13.5 34.9144V16.4297C13.5 15.7393 14.0596 15.1797 14.75 15.1797H23.1246V13.6797Z" fill="black"/>
<path fill-rule="evenodd" clip-rule="evenodd" d="M32.6428 33.9844L33.8828 33.9844C35.4016 33.9844 36.6328 32.7532 36.6328 31.2344L36.6328 12.7496C36.6328 11.2309 35.4016 9.99963 33.8828 9.99963L19.7221 9.99964C18.2215 9.99964 17.0017 11.2015 16.9726 12.695L18.4732 12.695C18.5018 12.03 19.05 11.4996 19.7221 11.4996L33.8828 11.4996C34.5732 11.4996 35.1328 12.0593 35.1328 12.7496L35.1328 31.2344C35.1328 31.9247 34.5732 32.4844 33.8828 32.4844L32.6428 32.4844L32.6428 33.9844Z" fill="black"/>
<path d="M22.2578 14.4277H24.8522L30.9058 20.4813V24.8053" stroke="black" stroke-width="1.5" stroke-linecap="round"/>
<path d="M16.2109 23.0742H22.6969M16.2109 27.3982H27.8857M16.2109 31.7222H27.8857" stroke="black" stroke-width="1.5" stroke-linecap="round"/>
</svg>
