<svg width="48" height="48" viewBox="0 0 48 48" fill="none" xmlns="http://www.w3.org/2000/svg">
<path d="M20.1992 21.2527C20.2003 19.6385 20.1993 18.4277 20.1993 18.4277L26.2528 24.4813H23.4588C20.1993 24.4813 20.1992 22.867 20.1992 21.2527Z" fill="black" stroke="black" stroke-width="1.5" stroke-linecap="round" stroke-linejoin="round"/>
<path fill-rule="evenodd" clip-rule="evenodd" d="M18.4648 17.6797H10.0898C8.57106 17.6797 7.33984 18.9109 7.33984 20.4297V38.9144C7.33984 40.4332 8.57106 41.6644 10.0898 41.6644H24.2506C25.7694 41.6644 27.0006 40.4332 27.0006 38.9144V27.9442H25.5006V38.9144C25.5006 39.6048 24.941 40.1644 24.2506 40.1644H10.0898C9.39949 40.1644 8.83984 39.6048 8.83984 38.9144V20.4297C8.83984 19.7393 9.39949 19.1797 10.0898 19.1797H18.4648V17.6797Z" fill="black"/>
<path fill-rule="evenodd" clip-rule="evenodd" d="M27.9844 37.9844L29.2227 37.9844C30.7414 37.9844 31.9727 36.7532 31.9727 35.2344L31.9727 16.7496C31.9727 15.2309 30.7414 13.9996 29.2227 13.9996L15.0619 13.9996C13.5616 13.9996 12.3419 15.2011 12.3124 16.6943L13.8131 16.6943C13.8421 16.0296 14.3901 15.4996 15.0619 15.4996L29.2227 15.4996C29.913 15.4996 30.4727 16.0593 30.4727 16.7496L30.4727 35.2344C30.4727 35.9247 29.913 36.4844 29.2227 36.4844L27.9844 36.4844L27.9844 37.9844Z" fill="black"/>
<path d="M17.5977 18.4277H20.192L26.2456 24.4813V28.8053" stroke="black" stroke-width="1.5" stroke-linecap="round"/>
<path d="M11.5508 27.0742H18.0368M11.5508 31.3982H23.2255M11.5508 35.7222H23.2255" stroke="black" stroke-width="1.5" stroke-linecap="round"/>
<path fill-rule="evenodd" clip-rule="evenodd" d="M33.0117 33.9844L34.25 33.9844C35.7688 33.9844 37 32.7532 37 31.2344L37 12.7496C37 11.2309 35.7688 9.99963 34.25 9.99963L20.0892 9.99964C18.5889 9.99964 17.3693 11.2011 17.3398 12.6943L18.8404 12.6943C18.8694 12.0296 19.4174 11.4996 20.0892 11.4996L34.25 11.4996C34.9404 11.4996 35.5 12.0593 35.5 12.7496L35.5 31.2344C35.5 31.9247 34.9404 32.4844 34.25 32.4844L33.0117 32.4844L33.0117 33.9844Z" fill="black"/>
<path fill-rule="evenodd" clip-rule="evenodd" d="M38.0117 29.9844L39.25 29.9844C40.7688 29.9844 42 28.7532 42 27.2344L42 8.74963C42 7.23085 40.7688 5.99963 39.25 5.99963L25.0892 5.99964C23.5889 5.99964 22.3693 7.20106 22.3398 8.69431L23.8404 8.69431C23.8694 8.02962 24.4174 7.49964 25.0892 7.49964L39.25 7.49963C39.9404 7.49963 40.5 8.05928 40.5 8.74963L40.5 27.2344C40.5 27.9247 39.9404 28.4844 39.25 28.4844L38.0117 28.4844L38.0117 29.9844Z" fill="black"/>
</svg>
