<svg width="13" height="13" viewBox="0 0 13 13" fill="none" xmlns="http://www.w3.org/2000/svg">
<path d="M3.375 2.75V0.875C3.375 0.70924 3.44085 0.550268 3.55806 0.433058C3.67527 0.315848 3.83424 0.25 4 0.25H11.5C11.6658 0.25 11.8247 0.315848 11.9419 0.433058C12.0592 0.550268 12.125 0.70924 12.125 0.875V9.625C12.125 9.79076 12.0592 9.94973 11.9419 10.0669C11.8247 10.1842 11.6658 10.25 11.5 10.25H9.625V12.125C9.625 12.47 9.34375 12.75 8.99562 12.75H1.50437C1.42195 12.7505 1.34025 12.7347 1.26395 12.7035C1.18765 12.6723 1.11827 12.6264 1.05979 12.5683C1.0013 12.5102 0.954871 12.4412 0.923159 12.3651C0.891447 12.289 0.875081 12.2074 0.875 12.125L0.876875 3.375C0.876875 3.03 1.15813 2.75 1.50625 2.75H3.375ZM2.12687 4L2.125 11.5H8.375V4H2.12687ZM4.625 2.75H9.625V9H10.875V1.5H4.625V2.75Z" fill="#3183CE"/>
</svg>
