<svg width="43" height="43" viewBox="0 0 43 43" fill="none" xmlns="http://www.w3.org/2000/svg">
<path d="M11.3823 21.8041C11.3823 19.2112 11.3814 16.6192 11.3823 14.0263C11.3832 12.6133 12.2111 11.7908 13.6326 11.7908C18.8075 11.7908 23.9824 11.7908 29.1573 11.7908C30.591 11.7908 31.4102 12.6142 31.4102 14.0567C31.4102 19.2199 31.4102 24.3831 31.4102 29.5462C31.4102 30.9896 30.5918 31.8148 29.1599 31.8148C23.9633 31.8157 18.7667 31.8157 13.5701 31.8148C12.5296 31.8148 11.7485 31.2853 11.4864 30.3818C11.4153 30.1366 11.3875 29.8697 11.3866 29.6132C11.3797 27.0107 11.3823 24.4074 11.3823 21.8041ZM30.0581 21.8189C30.0581 19.2373 30.0581 16.6566 30.0581 14.075C30.0581 13.342 29.862 13.142 29.1399 13.142C23.9772 13.142 18.8136 13.142 13.6508 13.142C12.94 13.142 12.7344 13.3446 12.7344 14.0437C12.7344 19.2173 12.7344 24.39 12.7344 29.5636C12.7344 30.2514 12.9435 30.4644 13.6196 30.4644C18.804 30.4644 23.9893 30.4644 29.1738 30.4644C29.8489 30.4644 30.0581 30.2514 30.0581 29.5628C30.0581 26.9812 30.0581 24.3996 30.0581 21.8189Z" fill="black"/>
<path d="M30.8166 35.8007C29.9383 35.8007 29.0601 35.8024 28.1827 35.7998C27.6959 35.798 27.3921 35.5398 27.3912 35.1346C27.3904 34.7312 27.6924 34.4573 28.1792 34.4546C29.8273 34.4486 31.4744 34.452 33.1224 34.452C33.8809 34.452 34.0493 34.2807 34.0501 33.5104C34.0501 31.9278 34.0501 30.3453 34.051 28.7628C34.051 28.6333 34.051 28.5011 34.0727 28.3741C34.1361 28.0063 34.4329 27.7698 34.78 27.7977C35.1271 27.8255 35.3892 28.102 35.3918 28.475C35.3979 29.4828 35.3944 30.4914 35.3944 31.4992C35.3944 32.2791 35.4005 33.0599 35.3918 33.8399C35.3797 34.9155 34.5248 35.7711 33.4513 35.7972C33.4079 35.798 33.3645 35.7998 33.3212 35.7998C32.4863 35.8007 31.6514 35.8007 30.8166 35.8007Z" fill="black"/>
<path d="M7.39892 12.3803C7.39892 11.5134 7.39285 10.6465 7.40066 9.77872C7.4102 8.68314 8.26242 7.81797 9.35849 7.81014C11.1141 7.79797 12.8706 7.80406 14.6271 7.8058C15.094 7.8058 15.3908 8.06056 15.4012 8.45532C15.4116 8.85878 15.1096 9.14659 14.628 9.1492C13.3705 9.15789 12.113 9.15267 10.8555 9.15267C10.4546 9.15267 10.0536 9.15267 9.65182 9.15267C8.92458 9.15354 8.7432 9.33092 8.7432 10.0474C8.74233 11.6517 8.7432 13.2559 8.74146 14.8593C8.74146 14.9888 8.73973 15.121 8.71543 15.2471C8.64947 15.5984 8.36135 15.8271 8.02637 15.8071C7.6801 15.7871 7.40413 15.5088 7.40152 15.1428C7.39371 14.2228 7.39892 13.302 7.39892 12.3803Z" fill="black"/>
<path d="M30.8261 7.80667C31.6827 7.80667 32.5392 7.79971 33.3949 7.80928C34.5344 7.82232 35.3875 8.6727 35.3918 9.80655C35.3988 11.5517 35.3953 13.2968 35.3936 15.0419C35.3927 15.5045 35.1332 15.8036 34.7383 15.8097C34.3443 15.8158 34.0588 15.5219 34.0536 15.0619C34.0423 14.1298 34.0493 13.1977 34.0493 12.2655C34.0493 11.4856 34.0527 10.7048 34.0475 9.9248C34.0441 9.37614 33.8236 9.15702 33.2752 9.15528C31.6384 9.15267 30.0017 9.15441 28.365 9.15354C28.2461 9.15354 28.1254 9.15528 28.0083 9.13789C27.6186 9.07963 27.3678 8.78661 27.3912 8.43011C27.4147 8.07187 27.6976 7.81188 28.0933 7.80928C29.0045 7.80232 29.9149 7.80667 30.8261 7.80667Z" fill="black"/>
<path d="M11.9681 35.8006C11.1332 35.8006 10.2984 35.8059 9.46437 35.7998C8.23985 35.7902 7.40239 34.9537 7.39892 33.7373C7.39458 32.0252 7.39719 30.3123 7.39805 28.6002C7.39805 28.1072 7.64625 27.8055 8.05067 27.7985C8.46636 27.7907 8.73886 28.0985 8.73973 28.608C8.74407 30.2775 8.73886 31.9461 8.7458 33.6156C8.74667 33.7938 8.76923 33.9903 8.84647 34.146C8.97578 34.4077 9.23439 34.4564 9.5121 34.4555C11.1488 34.4512 12.7856 34.4529 14.4223 34.4546C14.5629 34.4546 14.7052 34.4564 14.8423 34.4825C15.1947 34.5503 15.4203 34.839 15.3986 35.1746C15.3761 35.5215 15.101 35.7928 14.7313 35.7963C13.8096 35.8041 12.8888 35.7989 11.9672 35.7989L11.9681 35.8006Z" fill="black"/>
</svg>
