<svg width="267" height="186" viewBox="0 0 267 186" fill="none" xmlns="http://www.w3.org/2000/svg">
<g clip-path="url(#clip0_4467_117715)">
<path d="M167.965 178.71L0 150.1L20.0193 32.4746L187.984 61.0842L167.965 178.71ZM2.50241 148.355L166.221 176.205L185.482 62.8296L21.7634 34.9789L2.50241 148.355Z" fill="#878787"/>
<path d="M166.832 178.56H166.301C166.157 178.426 166.047 178.26 165.981 178.075C165.915 177.89 165.895 177.692 165.922 177.497L185.638 61.7688C185.623 61.542 185.682 61.3163 185.804 61.1251C185.927 60.9339 186.108 60.7871 186.321 60.7064L265.412 28.3025C265.573 28.2092 265.756 28.1602 265.943 28.1602C266.129 28.1602 266.312 28.2092 266.474 28.3025C266.624 28.4313 266.737 28.5971 266.804 28.7834C266.87 28.9697 266.887 29.1701 266.853 29.3649L247.364 145.017C247.335 145.205 247.257 145.381 247.137 145.528C247.017 145.675 246.86 145.787 246.682 145.852L167.515 178.484L166.832 178.56ZM187.685 62.7554L168.5 175.676L245.241 144.183L264.426 31.1103L187.685 62.7554Z" fill="#878787"/>
<path d="M1.66617 150.251L0.832031 148.202L13.0408 143.193L13.8749 145.242L1.66617 150.251ZM17.9698 143.573L17.1356 141.524L29.3444 136.591L30.1785 138.64L17.9698 143.573ZM34.2734 136.591L33.3634 134.542L45.4963 129.761L46.3305 131.81L34.2734 136.591ZM50.5012 129.913L49.667 127.864L61.8758 122.779L62.7099 124.828L50.5012 129.913ZM66.8048 123.159L65.9706 121.413L78.1794 116.405L79.0135 118.454L66.8048 123.159ZM81.9709 114.204L79.7718 113.825L81.9709 100.772H84.0942L81.9709 114.204ZM84.9283 96.826H82.8051L84.9283 83.4698L87.0516 83.8492L84.9283 96.826ZM87.8857 79.4478L85.6866 79.0683L87.9615 66.0916H90.0848L87.8857 79.4478ZM90.9948 62.2972L88.7957 61.9178L90.9948 48.941H93.118L90.9948 62.2972ZM93.9522 44.919H91.7531L94.028 31.8664H96.1513L93.9522 44.919ZM96.9096 27.6167L94.7105 27.2372L96.9096 14.1846H99.1087L96.9096 27.6167ZM99.867 10.2384L97.6679 9.85901L99.1845 0.904297L101.384 1.28373L99.867 10.2384Z" fill="#878787"/>
<path d="M1.05642 150.333C0.899847 150.324 0.746835 150.283 0.606991 150.212C0.467147 150.14 0.343493 150.041 0.243796 149.92C0.144098 149.799 0.0705127 149.659 0.0276606 149.508C-0.0151915 149.357 -0.026384 149.198 -0.00521393 149.043L19.7866 33.5422C19.8156 33.3548 19.8941 33.1785 20.0141 33.0317C20.1341 32.8849 20.2912 32.773 20.4691 32.7075L99.6364 0H100.243L266.085 28.2301C266.231 28.2454 266.373 28.2933 266.498 28.3704C266.624 28.4474 266.73 28.5517 266.81 28.6754C266.89 28.7992 266.942 28.9393 266.96 29.0855C266.979 29.2317 266.965 29.3802 266.919 29.5202C266.9 29.6886 266.84 29.85 266.746 29.9907C266.651 30.1315 266.524 30.2476 266.376 30.3293C266.228 30.411 266.062 30.456 265.892 30.4605C265.723 30.4649 265.555 30.4287 265.402 30.355L100.167 2.27662L21.834 34.5288L2.34554 149.422C2.29008 149.711 2.1248 149.968 1.88442 150.138C1.64404 150.307 1.34726 150.377 1.05642 150.333Z" fill="#878787"/>
<path d="M246.072 145.937L236.442 144.191L236.821 141.991L246.451 143.66L246.072 145.937ZM232.119 143.508L219.077 141.308L219.456 139.107L232.423 141.383L232.119 143.508ZM214.754 140.549L201.711 138.348V136.147L214.754 138.424V140.549ZM197.161 137.589L184.119 135.388L184.498 133.264L197.541 135.464L197.161 137.589ZM179.796 134.629L166.829 132.429L167.208 130.304L180.251 132.505L179.796 134.629ZM162.431 131.67L149.464 129.469L149.843 127.344L162.81 129.545L162.431 131.67ZM145.293 129.014L132.326 126.737L132.705 124.612L145.672 126.813L145.293 129.014ZM128.004 126.054L114.961 123.778L115.34 121.653L128.307 123.853L128.004 126.054ZM110.639 123.095L97.5957 120.894L97.9749 118.693L111.018 120.894L110.639 123.095ZM93.2734 119.907L80.2305 117.707L80.6096 115.506L93.6525 117.707L93.2734 119.907Z" fill="#878787"/>
<path d="M88.4222 185.696C88.4222 185.696 88.4222 186.076 87.7397 185.696C87.0572 185.317 87.0572 185.696 87.0572 185.013C87.0159 184.635 87.0159 184.253 87.0572 183.875V183.42C85.96 183.985 84.7153 184.197 83.4932 184.027C82.6261 183.852 81.8173 183.461 81.1424 182.889C80.795 182.645 80.5199 182.312 80.3463 181.924C80.1727 181.537 80.1072 181.11 80.1566 180.688C80.1566 179.929 80.9908 179.322 82.1282 178.791C83.0137 178.324 84.0116 178.114 85.0098 178.184L87.7397 178.715C87.7815 178.619 87.803 178.516 87.803 178.411C87.803 178.307 87.7815 178.203 87.7397 178.108C87.8695 177.176 87.8695 176.231 87.7397 175.3C87.7272 174.818 87.5455 174.356 87.2265 173.996C86.9075 173.635 86.4717 173.398 85.9956 173.327C85.5708 173.315 85.1494 173.405 84.7667 173.59C84.384 173.775 84.0513 174.049 83.7965 174.389C83.2168 174.97 82.8211 175.709 82.659 176.514V176.893C82.659 176.893 82.6591 176.893 82.1282 176.438C82.0769 176.239 82.0769 176.03 82.1282 175.831C82.2845 175.152 82.5675 174.508 82.9624 173.934C83.2987 173.333 83.7346 172.794 84.2515 172.34C84.5112 172.124 84.8174 171.97 85.1462 171.891C85.475 171.812 85.8176 171.81 86.1473 171.885C87.1916 172.05 88.1517 172.557 88.8772 173.327C89.2534 173.698 89.5383 174.152 89.7094 174.652C89.8804 175.153 89.933 175.686 89.863 176.21L88.4222 185.696ZM87.7397 180.991C87.7397 180.308 87.2847 179.777 86.1473 179.625C85.3499 179.432 84.518 179.432 83.7207 179.625C83.3062 179.671 82.9181 179.851 82.6165 180.139C82.3149 180.427 82.1167 180.807 82.0524 181.219C82.008 181.462 82.0344 181.713 82.1285 181.942C82.2226 182.171 82.3805 182.368 82.5832 182.509C82.9474 182.829 83.3942 183.039 83.8723 183.116C84.7009 183.257 85.5528 183.124 86.2989 182.737C86.6592 182.58 86.9773 182.34 87.2277 182.036C87.478 181.733 87.6534 181.375 87.7397 180.991Z" fill="#878787"/>
<path d="M27.9885 89.9971C27.7546 91.379 27.2934 92.7124 26.6235 93.9432C26.3211 94.5654 25.8246 95.0722 25.209 95.387C24.5934 95.7019 23.8921 95.8078 23.2111 95.6886L21.8462 95.1574C21.4425 94.8626 21.0107 94.6084 20.557 94.3986C20.5567 94.778 20.5567 94.778 20.5567 95.1574C20.6037 95.2796 20.6037 95.4147 20.557 95.5369C20.557 95.5369 20.557 95.9163 20.0262 95.9163C19.8796 95.8855 19.7419 95.8216 19.6237 95.7296C19.5054 95.6375 19.4097 95.5197 19.3438 95.3851C19.3437 95.3851 19.3438 94.7021 19.3438 93.7156C19.3438 92.729 19.3438 92.3496 19.3438 91.8943L22.5286 76.7168H22.7561C23.0351 76.8152 23.2746 77.0016 23.4386 77.248C23.5492 77.5415 23.5492 77.8652 23.4386 78.1587C23.2574 79.1622 23.004 80.1513 22.6803 81.1183C22.3634 82.113 22.1101 83.1268 21.922 84.1538C21.9015 84.5076 21.9015 84.8623 21.922 85.2162C21.922 85.2162 22.3011 85.2162 22.6045 84.685C22.8521 84.2206 23.1868 83.8084 23.5903 83.4708C24.0518 83.281 24.5695 83.281 25.0311 83.4708C25.4928 83.5574 25.9324 83.7365 26.3233 83.9973C26.7142 84.2581 27.0485 84.5953 27.306 84.9885C27.8322 85.781 28.1456 86.6957 28.2159 87.6446C28.1849 88.4324 28.109 89.2179 27.9885 89.9971ZM26.4718 89.9971C26.6181 88.9906 26.6181 87.9681 26.4718 86.9616C26.4718 85.5956 25.8652 84.8367 25.0311 84.685C24.1969 84.5332 23.0595 85.1403 22.2253 86.5822C21.5432 87.6362 21.1029 88.8284 20.9362 90.073C20.7051 90.9946 20.7051 91.9592 20.9362 92.8808C21.0062 93.3466 21.2188 93.7792 21.5447 94.119C21.8707 94.4588 22.2939 94.689 22.7561 94.778C23.7419 94.778 24.5761 94.3986 25.2585 93.1085C25.8383 92.0943 26.2481 90.992 26.4718 89.8453V89.9971Z" fill="#878787"/>
<path d="M213.315 179.247C213.315 179.702 212.708 180.233 211.874 180.84C211.264 181.362 210.535 181.727 209.751 181.903C209.198 181.98 208.636 181.98 208.083 181.903C207.482 181.823 206.907 181.603 206.407 181.26C205.906 180.918 205.493 180.462 205.201 179.93C204.844 178.768 204.844 177.525 205.201 176.363C205.518 174.709 206.107 173.119 206.945 171.658C208.007 169.609 209.22 168.698 210.282 168.85C211.037 169.117 211.732 169.53 212.329 170.064C213.088 170.747 213.543 171.279 213.543 171.81C213.62 172.389 213.62 172.976 213.543 173.555C213.163 175.604 212.708 176.591 212.102 176.439H211.571C211.519 176.292 211.519 176.131 211.571 175.984C211.729 175.435 211.855 174.877 211.95 174.314C212.329 172.265 211.95 171.127 211.116 170.975C210.282 170.823 209.069 171.582 208.083 173.328C207.427 174.599 206.942 175.951 206.642 177.35C206.445 178.198 206.445 179.081 206.642 179.93C206.729 180.352 206.942 180.738 207.254 181.037C207.566 181.335 207.96 181.531 208.386 181.599C209.108 181.644 209.825 181.458 210.434 181.068C211.103 180.739 211.697 180.273 212.178 179.702L212.329 178.336C212.329 178.336 212.329 178.336 212.708 178.791C212.927 178.92 213.13 179.073 213.315 179.247Z" fill="#878787"/>
</g>
<defs>
<clipPath id="clip0_4467_117715">
<rect width="267" height="186" fill="white"/>
</clipPath>
</defs>
</svg>
