<svg width="408" height="367" viewBox="0 0 408 367" fill="none" xmlns="http://www.w3.org/2000/svg">
<g clip-path="url(#clip0_208_8)">
<path fill-rule="evenodd" clip-rule="evenodd" d="M117.135 0H116.673L116.259 0.205689L1.09142 57.4633L0 58.0059V59.2248V364.599V366.566H1.96717H309.08H309.623L310.088 366.288L406.061 309.031L407.02 308.458V307.341V1.96717V0H405.053H117.135ZM115.167 5.14207L10.3427 57.2576H308.538L397.916 3.93434H119.102V5.98525H115.167V5.14207ZM311.048 60.3418L403.086 5.43147V305.374H401.054V307.436L311.048 361.135V309.308H313.079V305.374H311.048V60.3418ZM307.113 305.374V61.192H3.93434V361.424L4.6904 361.048L5.47773 362.632H307.113V309.308H305.082V305.374H307.113ZM115.167 14.0214V22.0576H119.102V14.0214H115.167ZM115.167 30.0937V38.1299H119.102V30.0937H115.167ZM115.167 46.166V54.2022H119.102V46.166H115.167ZM115.167 62.2383V70.2745H119.102V62.2383H115.167ZM115.167 78.3107V86.3468H119.102V78.3107H115.167ZM115.167 94.383V102.419H119.102V94.383H115.167ZM115.167 110.455V118.491H119.102V110.455H115.167ZM115.167 126.528V134.564H119.102V126.528H115.167ZM115.167 142.6V150.636H119.102V142.6H115.167ZM115.167 158.672V166.708H119.102V158.672H115.167ZM115.167 174.745V182.781H119.102V174.745H115.167ZM115.167 190.817V198.853H119.102V190.817H115.167ZM115.167 206.889V214.925H119.102V206.889H115.167ZM115.167 222.962V230.998H119.102V222.962H115.167ZM115.167 239.034V247.07H119.102V239.034H115.167ZM115.167 255.106V263.142H119.102V255.106H115.167ZM115.167 271.179V279.215H119.102V271.179H115.167ZM115.167 287.251V295.287H119.102V287.251H115.167ZM115.167 303.323V306.122L112.66 307.369L114.411 310.892L117.597 309.308H121.133V305.374H119.102V303.323H115.167ZM129.131 309.308H137.129V305.374H129.131V309.308ZM145.127 309.308H153.124V305.374H145.127V309.308ZM161.122 309.308H169.12V305.374H161.122V309.308ZM177.118 309.308H185.115V305.374H177.118V309.308ZM193.113 309.308H201.111V305.374H193.113V309.308ZM209.109 309.308H217.106V305.374H209.109V309.308ZM225.104 309.308H233.102V305.374H225.104V309.308ZM241.1 309.308H249.097V305.374H241.1V309.308ZM257.095 309.308H265.093V305.374H257.095V309.308ZM273.091 309.308H281.088V305.374H273.091V309.308ZM289.086 309.308H297.084V305.374H289.086V309.308ZM321.077 309.308H329.075V305.374H321.077V309.308ZM337.073 309.308H345.07V305.374H337.073V309.308ZM353.068 309.308H361.066V305.374H353.068V309.308ZM369.063 309.308H377.061V305.374H369.063V309.308ZM385.059 309.308H393.057V305.374H385.059V309.308ZM100.015 318.049L107.213 314.471L105.462 310.948L98.2639 314.526L100.015 318.049ZM85.6195 325.206L92.8175 321.628L91.066 318.105L83.868 321.683L85.6195 325.206ZM71.2236 332.364L78.4216 328.785L76.6701 325.262L69.4721 328.841L71.2236 332.364ZM56.8277 339.521L64.0256 335.942L62.2741 332.419L55.0762 335.998L56.8277 339.521ZM42.4317 346.678L49.6297 343.099L47.8782 339.576L40.6802 343.155L42.4317 346.678ZM28.0358 353.835L35.2338 350.257L33.4823 346.734L26.2843 350.312L28.0358 353.835ZM13.6399 360.992L20.8378 357.414L19.0863 353.891L11.8884 357.469L13.6399 360.992Z" fill="black"/>
</g>
<defs>
<clipPath id="clip0_208_8">
<rect width="227" height="197" fill="white"/>
</clipPath>
</defs>
</svg>
