<svg width="158" height="143" viewBox="0 0 158 143" fill="none" xmlns="http://www.w3.org/2000/svg">
<g clip-path="url(#clip0_208_4)">
<path fill-rule="evenodd" clip-rule="evenodd" d="M46 0.5H45.6477L45.3322 0.656841L1.33222 22.5323L0.5 22.946V23.8754V140.544V142.044H2H119.333H119.747L120.102 141.832L156.769 119.957L157.5 119.521V118.669V2V0.5H156H46ZM44.5 4.42091L8.38648 22.3754H118.92L150.558 3.5H47.5V4.91672H44.5V4.42091ZM120.833 24.7272L154.5 4.64157V117.169H152.944V118.745L120.833 137.903V120.169H122.389V117.169H120.833V24.7272ZM117.833 117.169V25.3754H47.5V28.2505H44.5V25.3754H3.5V138.123L4.08222 137.834L4.68398 139.044H117.833V120.169H116.278V117.169H117.833ZM44.5 10.7502V16.5836H47.5V10.7502H44.5ZM44.5 34.0839V39.9174H47.5V34.0839H44.5ZM44.5 45.7508V51.5843H47.5V45.7508H44.5ZM44.5 57.4177V63.2511H47.5V57.4177H44.5ZM44.5 69.0846V74.918H47.5V69.0846H44.5ZM44.5 80.7515V86.5849H47.5V80.7515H44.5ZM44.5 92.4184V98.2518H47.5V92.4184H44.5ZM44.5 104.085V109.919H47.5V104.085H44.5ZM44.5 115.752V117.739L42.5822 118.693L43.9178 121.379L46.3523 120.169H49.0556V117.169H47.5V115.752H44.5ZM55.1667 120.169H61.2778V117.169H55.1667V120.169ZM67.3889 120.169H73.5V117.169H67.3889V120.169ZM79.6111 120.169H85.7222V117.169H79.6111V120.169ZM91.8333 120.169H97.9444V117.169H91.8333V120.169ZM104.056 120.169H110.167V117.169H104.056V120.169ZM128.5 120.169H134.611V117.169H128.5V120.169ZM140.722 120.169H146.833V117.169H140.722V120.169ZM32.9178 126.848L38.4178 124.114L37.0822 121.427L31.5822 124.162L32.9178 126.848ZM21.9178 132.317L27.4178 129.583L26.0822 126.896L20.5822 129.631L21.9178 132.317ZM10.9178 137.786L16.4178 135.051L15.0822 132.365L9.58222 135.099L10.9178 137.786Z" fill="black"/>
</g>
<defs>
<clipPath id="clip0_208_4">
<rect width="158" height="143" fill="white"/>
</clipPath>
</defs>
</svg>
