<svg width="142" height="147" viewBox="0 0 142 147" fill="none" xmlns="http://www.w3.org/2000/svg">
<g clip-path="url(#clip0_208_10)">
<path fill-rule="evenodd" clip-rule="evenodd" d="M3.51978 126.127C3.51947 81.8783 3.51941 56.8188 3.51982 16.1316C3.84127 16.3355 4.17761 16.5324 4.52669 16.7228C6.08863 17.5747 7.99574 18.344 10.1721 19.0407C14.5245 20.434 20.0906 21.5799 26.4297 22.491C39.1165 24.3143 55.0776 25.2216 71.0104 25.2216C86.9433 25.2217 102.904 24.3145 115.591 22.4912C121.93 21.5802 127.497 20.4342 131.849 19.0409C134.026 18.3442 135.933 17.5749 137.495 16.723C137.844 16.5326 138.18 16.3357 138.502 16.1317V126.092L137.329 127.067C137.762 127.588 138.094 128.106 138.332 128.622C137.055 130.682 134.523 132.668 130.743 134.483C126.647 136.45 121.297 138.117 115.062 139.461C102.6 142.147 86.8255 143.5 71.0104 143.5C55.1954 143.5 39.4211 142.147 26.9592 139.461C20.7246 138.117 15.3743 136.45 11.2787 134.484C7.4743 132.657 4.9345 130.657 3.66529 128.583C3.90255 128.08 4.22842 127.575 4.65059 127.067L3.51978 126.127ZM136.058 14.0893C136.991 13.5804 137.702 13.0788 138.218 12.5983C137.986 12.2953 137.616 11.943 137.047 11.5532C136.044 10.8671 134.59 10.1838 132.689 9.52687C128.894 8.21549 123.585 7.10033 117.211 6.20048C104.481 4.40348 87.7623 3.50004 71.0104 3.5C54.2585 3.49996 37.5398 4.40333 24.8103 6.2003C18.436 7.10013 13.1274 8.21528 9.33217 9.52666C7.43084 10.1836 5.97785 10.8669 4.97478 11.553C4.40496 11.9428 4.0356 12.2951 3.80304 12.5981C4.31911 13.0786 5.0301 13.5802 5.96313 14.0891C7.30534 14.8211 9.02221 15.5226 11.0868 16.1835C15.2164 17.5055 20.6002 18.6223 26.8565 19.5215C39.3604 21.3186 55.1712 22.2216 71.0105 22.2216C86.8497 22.2217 102.661 21.3188 115.165 19.5217C121.421 18.6226 126.805 17.5058 130.934 16.1838C132.999 15.5228 134.716 14.8213 136.058 14.0893ZM141.457 12.4956C141.1 11.0754 140.03 9.95893 138.74 9.07704C137.428 8.17934 135.696 7.39195 133.669 6.69136C129.606 5.28762 124.078 4.14018 117.63 3.22993C104.715 1.40675 87.8462 0.500037 71.0105 0.5C54.1748 0.499963 37.3059 1.4066 24.3909 3.22975C17.943 4.13998 12.415 5.28741 8.35242 6.69115C6.32481 7.39175 4.59351 8.17915 3.28107 9.07687C1.99173 9.95878 0.921026 11.0753 0.564895 12.4956L0.519855 12.6752L0.519853 12.8604C0.519401 56.304 0.519464 81.6453 0.519801 128.708L0.519803 129.063L0.678952 129.381C2.26421 132.542 5.63626 135.102 9.98012 137.188C14.3665 139.294 19.9662 141.022 26.327 142.393C39.0557 145.137 55.0534 146.5 71.0104 146.5C86.9675 146.5 102.965 145.137 115.694 142.393C122.055 141.022 127.655 139.294 132.041 137.188C136.385 135.102 139.757 132.542 141.343 129.38L141.502 129.063V128.708V12.8605V12.6753L141.457 12.4956ZM134.469 121.058C132.783 120.101 130.846 119.223 128.703 118.418L127.648 121.226C129.681 121.99 131.469 122.805 132.988 123.667L134.469 121.058ZM13.2768 118.418C11.1342 119.223 9.19688 120.101 7.51108 121.058L8.99155 123.667C10.5105 122.805 12.2991 121.99 14.332 121.226L13.2768 118.418ZM25.2376 115.037C23.1234 115.49 21.1036 115.981 19.1954 116.51L19.9977 119.401C21.8413 118.89 23.8024 118.413 25.8657 117.971L25.2376 115.037ZM122.784 116.51C120.876 115.981 118.856 115.49 116.742 115.037L116.114 117.971C118.177 118.413 120.138 118.89 121.982 119.401L122.784 116.51ZM37.3432 112.98C35.2645 113.255 33.2365 113.559 31.2697 113.89L31.7681 116.848C33.6978 116.523 35.691 116.225 37.7375 115.954L37.3432 112.98ZM110.71 113.89C108.743 113.559 106.715 113.255 104.637 112.98L104.242 115.954C106.289 116.225 108.282 116.523 110.212 116.848L110.71 113.89ZM49.5524 111.718C47.4854 111.877 45.4454 112.059 43.4409 112.265L43.7473 115.249C45.7251 115.046 47.7393 114.866 49.7817 114.71L49.5524 111.718ZM98.5389 112.265C96.5343 112.059 94.4944 111.877 92.4273 111.718L92.198 114.71C94.2405 114.866 96.2547 115.046 98.2325 115.249L98.5389 112.265ZM86.3074 111.322C84.2811 111.214 82.237 111.128 80.1823 111.064L80.0883 114.062C82.1217 114.126 84.144 114.211 86.148 114.318L86.3074 111.322ZM61.7975 111.064C59.7428 111.128 57.6987 111.214 55.6724 111.322L55.8318 114.318C57.8358 114.211 59.8581 114.126 61.8914 114.062L61.7975 111.064ZM74.0543 110.937C72.0125 110.915 69.9672 110.915 67.9255 110.937L67.9565 113.936C69.9776 113.915 72.0022 113.915 74.0233 113.936L74.0543 110.937Z" fill="black"/>
</g>
<defs>
<clipPath id="clip0_208_10">
<rect width="142" height="147" fill="white"/>
</clipPath>
</defs>
</svg>
