<svg width="409" height="424" viewBox="0 0 409 424" fill="none" xmlns="http://www.w3.org/2000/svg">
<g clip-path="url(#clip0_208_10)">
<path fill-rule="evenodd" clip-rule="evenodd" d="M3.93511 370.255C3.93416 236.093 3.93398 162.116 3.93524 38.6564C5.78126 40.1995 7.98463 41.6476 10.4846 43.011C14.8873 45.4123 20.3263 47.6134 26.6186 49.6278C39.2026 53.6562 55.3791 56.9934 73.9031 59.6557C110.962 64.9819 157.651 67.6393 204.303 67.6394C250.955 67.6396 297.644 64.9825 334.704 59.6563C353.228 56.9941 369.405 53.657 381.989 49.6285C388.281 47.6141 393.72 45.4129 398.123 43.0117C400.623 41.6481 402.827 40.2 404.673 38.6568C404.673 94.8872 404.673 151.082 404.673 206.058V266.641L404.673 370.189L403.274 370.967C403.739 371.803 404.134 372.646 404.459 373.497C400.568 380.561 392.392 387.013 380.538 392.706C368.29 398.587 352.397 403.524 334.009 407.488C297.245 415.414 250.8 419.389 204.303 419.389C157.806 419.389 111.362 415.414 74.5975 407.488C56.2104 403.525 40.317 398.588 28.0697 392.707C16.1437 386.98 7.9414 380.484 4.07958 373.371C4.39496 372.563 4.77353 371.761 5.21527 370.966L3.93511 370.255ZM396.239 39.5576C399.913 37.5542 402.639 35.4941 404.437 33.4168C403.714 31.6905 402.097 29.8586 399.347 27.9774C396.154 25.7937 391.667 23.7054 385.988 21.7432C374.64 17.8224 358.893 14.5257 340.139 11.8782C302.655 6.5867 253.501 3.93445 204.303 3.93434C155.105 3.93424 105.951 6.58627 68.4678 11.8776C49.7135 14.5251 33.9668 17.8218 22.6194 21.7426C16.9408 23.7047 12.4539 25.7931 9.26125 27.9769C6.51107 29.858 4.89457 31.6899 4.17126 33.4163C5.96874 35.4936 8.69508 37.5536 12.3684 39.557C16.483 41.8011 21.6724 43.9134 27.8181 45.8807C40.1099 49.8157 56.0474 53.1147 74.4628 55.7614C111.282 61.0531 157.774 63.7049 204.303 63.7051C250.832 63.7052 297.324 61.0537 334.144 55.762C352.56 53.1154 368.497 49.8164 380.789 45.8814C386.935 43.9141 392.125 41.8017 396.239 39.5576ZM408.548 33.3403C407.713 30.0104 405.136 27.1705 401.568 24.73C397.969 22.2688 393.117 20.0439 387.273 18.0246C375.575 13.9826 359.54 10.6436 340.689 7.98245C302.962 2.65665 253.611 0.000107646 204.303 0C154.996 -0.000107765 105.644 2.65622 67.9178 7.98191C49.067 10.643 33.0325 13.982 21.3345 18.024C15.4903 20.0434 10.6384 22.2682 7.04005 24.7295C3.47202 27.1701 0.895005 30.01 0.0600142 33.34L0.000946045 33.5756L0.000943542 33.8184C-0.000381827 161.23 -0.000196218 235.55 0.000790596 373.576L0.000793934 374.042L0.209509 374.458C4.4962 383.006 13.7938 390.216 26.3667 396.253C38.9953 402.318 55.2159 407.335 73.7683 411.334C110.883 419.336 157.62 423.324 204.303 423.324C250.987 423.324 297.724 419.335 334.838 411.334C353.391 407.334 369.612 402.317 382.241 396.253C394.814 390.215 404.112 383.005 408.399 374.457L408.607 374.041V373.575L408.607 266.641C408.607 191.199 408.607 112.51 408.607 33.8189V33.5759L408.548 33.3403ZM401.565 362.35C399.729 360.504 397.607 358.739 395.227 357.053L392.952 360.263C395.179 361.841 397.123 363.463 398.775 365.124L401.565 362.35ZM13.2629 357.053C10.883 358.739 8.7601 360.504 6.92468 362.35L9.71493 365.124C11.3667 363.462 13.3109 361.841 15.5377 360.263L13.2629 357.053ZM388.322 352.754C386.059 351.506 383.639 350.302 381.073 349.141L379.451 352.725C381.933 353.849 384.26 355.007 386.421 356.199L388.322 352.754ZM27.4167 349.141C24.8505 350.302 22.4303 351.506 20.1679 352.754L22.0684 356.199C24.2297 355.007 26.556 353.849 29.0387 352.725L27.4167 349.141ZM373.561 346.018C371.144 345.093 368.626 344.198 366.014 343.333L364.777 347.068C367.337 347.916 369.798 348.791 372.154 349.693L373.561 346.018ZM42.4754 343.333C39.8631 344.198 37.3453 345.093 34.9287 346.018L36.3351 349.693C38.6912 348.791 41.1523 347.916 43.7125 347.068L42.4754 343.333ZM358.399 340.971C355.865 340.234 353.257 339.521 350.58 338.832L349.6 342.643C352.24 343.322 354.808 344.024 357.301 344.749L358.399 340.971ZM57.9096 338.832C55.2326 339.521 52.6245 340.234 50.0905 340.971L51.189 344.749C53.6813 344.024 56.2498 343.322 58.8897 342.643L57.9096 338.832ZM342.895 336.964C340.332 336.376 337.715 335.807 335.048 335.258L334.255 339.112C336.894 339.655 339.482 340.217 342.014 340.799L342.895 336.964ZM73.4418 335.258C70.7743 335.807 68.1574 336.376 65.5948 336.964L66.4756 340.799C69.0075 340.217 71.595 339.655 74.2345 339.112L73.4418 335.258ZM327.229 333.733C324.647 333.256 322.023 332.796 319.361 332.353L318.716 336.234C321.355 336.673 323.956 337.129 326.514 337.602L327.229 333.733ZM89.1282 332.353C86.4663 332.796 83.8426 333.256 81.2603 333.733L81.9755 337.602C84.5338 337.129 87.1341 336.673 89.7737 336.234L89.1282 332.353ZM311.478 331.109C308.878 330.72 306.245 330.347 303.584 329.989L303.06 333.888C305.703 334.243 308.316 334.614 310.896 335L311.478 331.109ZM104.906 329.989C102.244 330.347 99.6117 330.72 97.0115 331.109L97.5935 335C100.174 334.614 102.787 334.243 105.43 333.888L104.906 329.989ZM120.742 328.081C118.077 328.367 115.434 328.667 112.817 328.982L113.287 332.888C115.887 332.575 118.513 332.277 121.162 331.993L120.742 328.081ZM295.672 328.982C293.055 328.667 290.413 328.367 287.747 328.081L287.328 331.993C289.976 332.277 292.602 332.575 295.202 332.888L295.672 328.982ZM136.617 326.569C133.948 326.792 131.296 327.029 128.663 327.279L129.036 331.196C131.653 330.947 134.29 330.712 136.945 330.49L136.617 326.569ZM279.826 327.279C277.193 327.029 274.541 326.792 271.872 326.569L271.544 330.49C274.199 330.712 276.836 330.947 279.454 331.196L279.826 327.279ZM152.518 325.414C149.846 325.58 147.187 325.759 144.542 325.951L144.826 329.875C147.458 329.684 150.103 329.506 152.762 329.341L152.518 325.414ZM263.948 325.951C261.303 325.759 258.643 325.58 255.971 325.414L255.727 329.341C258.386 329.506 261.032 329.684 263.663 329.875L263.948 325.951ZM168.433 324.587C165.762 324.7 163.098 324.825 160.445 324.963L160.649 328.892C163.289 328.755 165.94 328.63 168.599 328.518L168.433 324.587ZM248.044 324.963C245.391 324.825 242.728 324.7 240.056 324.587L239.891 328.518C242.549 328.63 245.2 328.755 247.84 328.892L248.044 324.963ZM184.339 324.07C181.676 324.132 179.018 324.206 176.367 324.292L176.495 328.224C179.134 328.138 181.779 328.065 184.429 328.004L184.339 324.07ZM232.122 324.292C229.471 324.206 226.813 324.132 224.151 324.07L224.06 328.004C226.71 328.065 229.356 328.138 231.995 328.224L232.122 324.292ZM216.192 323.923C213.539 323.887 210.885 323.862 208.229 323.85L208.211 327.785C210.854 327.797 213.497 327.821 216.137 327.857L216.192 323.923ZM200.261 323.85C197.605 323.862 194.95 323.887 192.298 323.923L192.352 327.857C194.992 327.821 197.635 327.797 200.279 327.785L200.261 323.85Z" fill="black"/>
</g>
<defs>
<clipPath id="clip0_208_10">
<rect width="142" height="147" fill="white"/>
</clipPath>
</defs>
</svg>
