<svg width="69" height="19" viewBox="0 0 69 19" fill="none" xmlns="http://www.w3.org/2000/svg">
<path d="M35 9.5C31 9.5 29 9.99997 26 10.5393C22.028 11.2532 21.5 11 17 10.5393C14.3552 10.2685 11.8095 9.44918 9.16667 9.16027C6.57827 8.87731 3 9.44488 1 9.99997" stroke="black" stroke-width="2" stroke-linecap="round" stroke-dasharray="4 4"/>
<mask id="mask0_1_2" style="mask-type:alpha" maskUnits="userSpaceOnUse" x="39" y="0" width="30" height="19">
<rect x="39" width="30" height="19" fill="#D9D9D9"/>
</mask>
<g mask="url(#mask0_1_2)">
<path d="M39 9.13151C39.2007 8.61228 39.6261 8.33502 40.0954 8.07581C44.2324 5.78558 48.3653 3.48632 52.4932 1.18051C52.8324 0.991023 53.1375 0.950008 53.519 1.06075C56.5283 1.93189 59.5433 2.7817 62.5568 3.63808C62.6355 3.66022 62.716 3.67581 62.8055 3.69714C62.837 3.50027 62.8528 3.30914 62.8984 3.12622C63.1157 2.25344 63.886 1.64807 64.7907 1.64397C66.1357 1.63904 67.4807 1.6374 68.8249 1.64397C69.9046 1.64889 70.7769 2.51019 70.7777 3.57902C70.7819 7.52868 70.7819 11.4792 70.7777 15.4288C70.7769 16.4944 69.8996 17.3532 68.8191 17.3573C67.5056 17.3631 66.1913 17.3598 64.8778 17.3581C63.7169 17.3565 62.8951 16.5723 62.8362 15.4157C62.8346 15.3862 62.8263 15.3566 62.8147 15.2935C62.1571 15.4764 61.5053 15.6544 60.8552 15.8381C58.3658 16.5403 55.8765 17.2408 53.3905 17.952C53.0778 18.0414 52.8158 18.0029 52.5372 17.8454C48.2924 15.4518 44.0467 13.0615 39.7961 10.6802C39.403 10.4596 39.1534 10.1511 39 9.74591C39 9.54084 39 9.33659 39 9.13151ZM41.6585 10.1134C41.6527 10.1314 41.6477 10.1495 41.6419 10.1675C41.6925 10.1995 41.7414 10.2332 41.7928 10.2627C45.4987 12.3511 49.2045 14.4412 52.9153 16.5206C53.0389 16.5895 53.2329 16.6035 53.3722 16.5649C55.7554 15.9062 58.1353 15.2352 60.516 14.5659C61.2872 14.3493 62.0576 14.132 62.8271 13.9154C62.8271 10.9616 62.8271 8.03644 62.8271 5.099C62.7483 5.07111 62.6745 5.03912 62.5974 5.01779C59.5226 4.15403 56.4487 3.28864 53.3714 2.43636C53.2254 2.39617 53.0206 2.42078 52.8871 2.4946C49.2012 4.53301 45.5202 6.58125 41.8393 8.62868C41.7647 8.66969 41.6967 8.72219 41.5557 8.81571C41.7456 8.81571 41.8459 8.81571 41.9471 8.81571C44.8635 8.82145 47.7807 8.82473 50.6971 8.83867C50.9326 8.83949 51.0545 8.77797 51.1698 8.56388C51.6093 7.74359 52.5322 7.36462 53.4344 7.60251C54.3126 7.83383 54.9005 8.61638 54.8914 9.54001C54.8822 10.4423 54.2653 11.1962 53.3565 11.4144C52.4733 11.626 51.5645 11.2191 51.1466 10.3972C51.0504 10.2069 50.9401 10.1643 50.7436 10.1626C48.406 10.1511 46.0692 10.1306 43.7316 10.115C43.0408 10.1101 42.3501 10.1134 41.6585 10.1134ZM69.451 9.49654C69.451 7.60497 69.4518 5.71339 69.4502 3.82182C69.4493 3.16723 69.2387 2.95724 68.5786 2.95642C67.4003 2.95478 66.222 2.95478 65.0436 2.95642C64.3769 2.95724 64.1655 3.16313 64.1646 3.81362C64.1638 7.60743 64.1638 11.4004 64.1646 15.1942C64.1646 15.8299 64.3794 16.0424 65.0196 16.044C66.1772 16.0465 67.3348 16.0449 68.4924 16.0449C69.2644 16.0449 69.4493 15.8644 69.4493 15.1106C69.451 13.2395 69.451 11.3676 69.451 9.49654ZM53.553 9.48424C53.5464 9.12823 53.2586 8.85508 52.8962 8.85836C52.5322 8.86246 52.2544 9.14054 52.2561 9.49982C52.2577 9.87305 52.5496 10.1519 52.9277 10.1405C53.2876 10.1306 53.5604 9.84516 53.553 9.48424Z" fill="black"/>
</g>
</svg>
