<svg width="80" height="80" viewBox="0 0 80 80" fill="none" xmlns="http://www.w3.org/2000/svg">
<path d="M42.6962 12C43.7264 12.1088 44.7566 12.2037 45.7845 12.3311C49.991 12.8496 54.0471 13.8822 57.779 15.9611C59.7399 17.0538 61.5155 18.3781 62.6893 20.3528C64.0945 22.7165 63.8792 24.432 62.2239 26.724C60.7215 28.8052 58.5916 30.1156 56.3089 31.1828C52.4358 32.9932 48.3265 33.8822 44.0829 34.2225C39.3786 34.5999 34.7276 34.2874 30.1507 33.109C26.7035 32.2223 23.4277 30.9421 20.6357 28.6548C19.3809 27.6269 18.3738 26.4114 17.7534 24.8765C17.1631 23.4134 17.4108 22.0567 18.1053 20.7302C18.9758 19.0726 20.3139 17.8456 21.8418 16.82C25.0598 14.667 28.6552 13.4655 32.4288 12.7825C34.2345 12.4561 36.0727 12.3172 37.897 12.0903C38.0405 12.0718 38.1794 12.0301 38.3207 12C39.7792 12 41.2377 12 42.6962 12Z" fill="white"/>
<path d="M17.3377 39.5765C17.7267 39.9516 18.0369 40.2525 18.3494 40.5512C20.7803 42.8524 23.6973 44.3155 26.8319 45.3712C32.2793 47.2071 37.8911 47.7164 43.6001 47.3714C47.6423 47.1284 51.5849 46.3991 55.3747 44.936C58.4144 43.7622 61.2133 42.2042 63.4289 39.7479C63.4728 39.6992 63.5354 39.6715 63.6719 39.5742C63.6719 39.7918 63.6719 39.9284 63.6719 40.0673C63.6719 41.6902 63.6557 43.3131 63.6766 44.936C63.6997 46.8783 62.8871 48.4618 61.6115 49.844C59.7641 51.8419 57.449 53.1406 54.9556 54.1199C49.1471 56.4026 43.1093 57.0485 36.9211 56.5623C33.1938 56.2706 29.5684 55.5298 26.0934 54.1338C23.6232 53.143 21.3174 51.8766 19.4653 49.9111C18.0901 48.4503 17.2752 46.7649 17.3308 44.6998C17.3748 43.0283 17.3377 41.3522 17.3377 39.5765Z" fill="white"/>
<path d="M63.6383 51.0938C63.6383 53.1102 63.6916 55.041 63.6221 56.9671C63.562 58.6317 62.6869 59.9698 61.5895 61.1551C59.7421 63.1507 57.4177 64.4356 54.9244 65.4149C49.0602 67.7184 42.9669 68.3435 36.7254 67.8318C33.1301 67.5378 29.6274 66.8178 26.2659 65.489C23.7401 64.4912 21.3741 63.2202 19.4803 61.213C18.089 59.7383 17.2648 58.0367 17.3319 55.9508C17.3782 54.5293 17.3412 53.1079 17.3412 51.6841C17.3412 51.5105 17.3412 51.3392 17.3412 51.1146C18.1445 51.8323 18.8506 52.5384 19.6308 53.1496C22.3557 55.2864 25.4903 56.5875 28.8009 57.488C34.246 58.9697 39.7837 59.2915 45.3839 58.7382C49.3427 58.3469 53.1811 57.4788 56.8227 55.8513C59.3045 54.7423 61.5849 53.3278 63.4184 51.2766C63.4624 51.2234 63.5249 51.1864 63.6383 51.0938Z" fill="white"/>
<path d="M63.6754 28.7383C63.6754 29.0138 63.6754 29.1874 63.6754 29.361C63.6754 30.5093 63.6175 31.6622 63.687 32.8059C63.8537 35.5771 62.5711 37.6398 60.557 39.3414C57.7372 41.7236 54.3873 43.0154 50.8706 43.9322C46.6757 45.0296 42.3974 45.3676 38.0821 45.1314C33.3917 44.8768 28.8356 43.9693 24.562 41.9412C22.2538 40.8462 20.1355 39.4757 18.6191 37.3458C17.957 36.4128 17.4269 35.4011 17.3991 34.2366C17.3528 32.4424 17.3875 30.6436 17.3875 28.7985C17.4616 28.8448 17.5287 28.8656 17.5681 28.9119C20.0915 31.6947 23.3095 33.3499 26.7983 34.5329C32.2944 36.3989 37.9617 36.899 43.7263 36.5355C48.324 36.2461 52.7806 35.3409 56.9987 33.4333C59.3925 32.3498 61.5849 30.9677 63.3652 28.9999C63.43 28.9281 63.5157 28.8726 63.6754 28.7383Z" fill="white"/>
</svg>
