<svg width="80" height="80" viewBox="0 0 80 80" fill="none" xmlns="http://www.w3.org/2000/svg">
<path d="M42.6962 12C43.7264 12.1088 44.7566 12.2037 45.7845 12.3311C49.991 12.8496 54.0471 13.8822 57.779 15.9611C59.7399 17.0538 61.5155 18.3781 62.6893 20.3528C64.0945 22.7165 63.8792 24.432 62.2239 26.724C60.7215 28.8052 58.5916 30.1156 56.3089 31.1828C52.4358 32.9932 48.3265 33.8822 44.0829 34.2225C39.3786 34.5999 34.7276 34.2874 30.1507 33.109C26.7035 32.2223 23.4277 30.9421 20.6357 28.6548C19.3809 27.6269 18.3738 26.4114 17.7534 24.8765C17.1631 23.4134 17.4108 22.0567 18.1053 20.7302C18.9758 19.0726 20.3139 17.8456 21.8418 16.82C25.0598 14.667 28.6552 13.4655 32.4288 12.7825C34.2345 12.4561 36.0727 12.3172 37.897 12.0903C38.0405 12.0718 38.1794 12.0301 38.3207 12C39.7792 12 41.2377 12 42.6962 12Z" fill="white"/>
<path d="M17.3377 39.5765C17.7267 39.9516 18.0369 40.2525 18.3494 40.5512C20.7803 42.8524 23.6973 44.3155 26.8319 45.3712C32.2793 47.2071 37.8911 47.7164 43.6001 47.3714C47.6423 47.1284 51.5849 46.3991 55.3747 44.936C58.4144 43.7622 61.2133 42.2042 63.4289 39.7479C63.4728 39.6992 63.5354 39.6715 63.6719 39.5742C63.6719 39.7918 63.6719 39.9284 63.6719 40.0673C63.6719 41.6902 63.6557 43.3131 63.6766 44.936C63.6997 46.8783 62.8871 48.4618 61.6115 49.844C59.7641 51.8419 57.449 53.1406 54.9556 54.1199C49.1471 56.4026 43.1093 57.0485 36.9211 56.5623C33.1938 56.2706 29.5684 55.5298 26.0934 54.1338C23.6232 53.143 21.3174 51.8766 19.4653 49.9111C18.0901 48.4503 17.2752 46.7649 17.3308 44.6998C17.3748 43.0283 17.3377 41.3522 17.3377 39.5765Z" fill="white"/>
<path d="M63.6383 51.0938C63.6383 53.1102 63.6916 55.041 63.6221 56.9671C63.562 58.6317 62.6869 59.9698 61.5895 61.1551C59.7421 63.1507 57.4177 64.4356 54.9244 65.4149C49.0602 67.7184 42.9669 68.3435 36.7254 67.8318C33.1301 67.5378 29.6274 66.8178 26.2659 65.489C23.7401 64.4912 21.3741 63.2202 19.4803 61.213C18.089 59.7383 17.2648 58.0367 17.3319 55.9508C17.3782 54.5293 17.3412 53.1079 17.3412 51.6841C17.3412 51.5105 17.3412 51.3392 17.3412 51.1146C18.1445 51.8323 18.8506 52.5384 19.6308 53.1496C22.3557 55.2864 25.4903 56.5875 28.8009 57.488C34.246 58.9697 39.7837 59.2915 45.3839 58.7382C49.3427 58.3469 53.1811 57.4788 56.8227 55.8513C59.3045 54.7423 61.5849 53.3278 63.4184 51.2766C63.4624 51.2234 63.5249 51.1864 63.6383 51.0938Z" fill="white"/>
<path d="M63.6754 28.7383C63.6754 29.0138 63.6754 29.1874 63.6754 29.361C63.6754 30.5093 63.6175 31.6622 63.687 32.8059C63.8537 35.5771 62.5711 37.6398 60.557 39.3414C57.7372 41.7236 54.3873 43.0154 50.8706 43.9322C46.6757 45.0296 42.3974 45.3676 38.0821 45.1314C33.3917 44.8768 28.8356 43.9693 24.562 41.9412C22.2538 40.8462 20.1355 39.4757 18.6191 37.3458C17.957 36.4128 17.4269 35.4011 17.3991 34.2366C17.3528 32.4424 17.3875 30.6436 17.3875 28.7985C17.4616 28.8448 17.5287 28.8656 17.5681 28.9119C20.0915 31.6947 23.3095 33.3499 26.7983 34.5329C32.2944 36.3989 37.9617 36.899 43.7263 36.5355C48.324 36.2461 52.7806 35.3409 56.9987 33.4333C59.3925 32.3498 61.5849 30.9677 63.3652 28.9999C63.43 28.9281 63.5157 28.8726 63.6754 28.7383Z" fill="white"/>
<path d="M42.6962 12C43.7264 12.1088 44.7566 12.2037 45.7845 12.3311C49.991 12.8496 54.0471 13.8822 57.779 15.9611C59.7399 17.0538 61.5155 18.3781 62.6893 20.3528C64.0945 22.7165 63.8792 24.432 62.2239 26.724C60.7215 28.8052 58.5916 30.1156 56.3089 31.1828C52.4358 32.9932 48.3265 33.8822 44.0829 34.2225C39.3786 34.5999 34.7276 34.2874 30.1507 33.109C26.7035 32.2223 23.4277 30.9421 20.6357 28.6548C19.3809 27.6269 18.3738 26.4114 17.7534 24.8765C17.1631 23.4134 17.4108 22.0567 18.1053 20.7302C18.9758 19.0726 20.3139 17.8456 21.8418 16.82C25.0598 14.667 28.6552 13.4655 32.4288 12.7825C34.2345 12.4561 36.0727 12.3172 37.897 12.0903C38.0405 12.0718 38.1794 12.0301 38.3207 12C39.7792 12 41.2377 12 42.6962 12Z" fill="white"/>
<path d="M17.3377 39.5765C17.7267 39.9516 18.0369 40.2525 18.3494 40.5512C20.7803 42.8524 23.6973 44.3155 26.8319 45.3712C32.2793 47.2071 37.8911 47.7164 43.6001 47.3714C47.6423 47.1284 51.5849 46.3991 55.3747 44.936C58.4144 43.7622 61.2133 42.2042 63.4289 39.7479C63.4728 39.6992 63.5354 39.6715 63.6719 39.5742C63.6719 39.7918 63.6719 39.9284 63.6719 40.0673C63.6719 41.6902 63.6557 43.3131 63.6766 44.936C63.6997 46.8783 62.8871 48.4618 61.6115 49.844C59.7641 51.8419 57.449 53.1406 54.9556 54.1199C49.1471 56.4026 43.1093 57.0485 36.9211 56.5623C33.1938 56.2706 29.5684 55.5298 26.0934 54.1338C23.6232 53.143 21.3174 51.8766 19.4653 49.9111C18.0901 48.4503 17.2752 46.7649 17.3308 44.6998C17.3748 43.0283 17.3377 41.3522 17.3377 39.5765Z" fill="white"/>
<path d="M63.6383 51.0938C63.6383 53.1102 63.6916 55.041 63.6221 56.9671C63.562 58.6317 62.6869 59.9698 61.5895 61.1551C59.7421 63.1507 57.4177 64.4356 54.9244 65.4149C49.0602 67.7184 42.9669 68.3435 36.7254 67.8318C33.1301 67.5378 29.6274 66.8178 26.2659 65.489C23.7401 64.4912 21.3741 63.2202 19.4803 61.213C18.089 59.7383 17.2648 58.0367 17.3319 55.9508C17.3782 54.5293 17.3412 53.1079 17.3412 51.6841C17.3412 51.5105 17.3412 51.3392 17.3412 51.1146C18.1445 51.8323 18.8506 52.5384 19.6308 53.1496C22.3557 55.2864 25.4903 56.5875 28.8009 57.488C34.246 58.9697 39.7837 59.2915 45.3839 58.7382C49.3427 58.3469 53.1811 57.4788 56.8227 55.8513C59.3045 54.7423 61.5849 53.3278 63.4184 51.2766C63.4624 51.2234 63.5249 51.1864 63.6383 51.0938Z" fill="white"/>
<path d="M63.6754 28.7383C63.6754 29.0138 63.6754 29.1874 63.6754 29.361C63.6754 30.5093 63.6175 31.6622 63.687 32.8059C63.8537 35.5771 62.5711 37.6398 60.557 39.3414C57.7372 41.7236 54.3873 43.0154 50.8706 43.9322C46.6757 45.0296 42.3974 45.3676 38.0821 45.1314C33.3917 44.8768 28.8356 43.9693 24.562 41.9412C22.2538 40.8462 20.1355 39.4757 18.6191 37.3458C17.957 36.4128 17.4269 35.4011 17.3991 34.2366C17.3528 32.4424 17.3875 30.6436 17.3875 28.7985C17.4616 28.8448 17.5287 28.8656 17.5681 28.9119C20.0915 31.6947 23.3095 33.3499 26.7983 34.5329C32.2944 36.3989 37.9617 36.899 43.7263 36.5355C48.324 36.2461 52.7806 35.3409 56.9987 33.4333C59.3925 32.3498 61.5849 30.9677 63.3652 28.9999C63.43 28.9281 63.5157 28.8726 63.6754 28.7383Z" fill="white"/>
<path d="M42.6962 12C43.7264 12.1088 44.7566 12.2037 45.7845 12.3311C49.991 12.8496 54.0471 13.8822 57.779 15.9611C59.7399 17.0538 61.5155 18.3781 62.6893 20.3528C64.0945 22.7165 63.8792 24.432 62.2239 26.724C60.7215 28.8052 58.5916 30.1156 56.3089 31.1828C52.4358 32.9932 48.3265 33.8822 44.0829 34.2225C39.3786 34.5999 34.7276 34.2874 30.1507 33.109C26.7035 32.2223 23.4277 30.9421 20.6357 28.6548C19.3809 27.6269 18.3738 26.4114 17.7534 24.8765C17.1631 23.4134 17.4108 22.0567 18.1053 20.7302C18.9758 19.0726 20.3139 17.8456 21.8418 16.82C25.0598 14.667 28.6552 13.4655 32.4288 12.7825C34.2345 12.4561 36.0727 12.3172 37.897 12.0903C38.0405 12.0718 38.1794 12.0301 38.3207 12C39.7792 12 41.2377 12 42.6962 12Z" fill="white"/>
<path d="M17.3377 39.5765C17.7267 39.9516 18.0369 40.2525 18.3494 40.5512C20.7803 42.8524 23.6973 44.3155 26.8319 45.3712C32.2793 47.2071 37.8911 47.7164 43.6001 47.3714C47.6423 47.1284 51.5849 46.3991 55.3747 44.936C58.4144 43.7622 61.2133 42.2042 63.4289 39.7479C63.4728 39.6992 63.5354 39.6715 63.6719 39.5742C63.6719 39.7918 63.6719 39.9284 63.6719 40.0673C63.6719 41.6902 63.6557 43.3131 63.6766 44.936C63.6997 46.8783 62.8871 48.4618 61.6115 49.844C59.7641 51.8419 57.449 53.1406 54.9556 54.1199C49.1471 56.4026 43.1093 57.0485 36.9211 56.5623C33.1938 56.2706 29.5684 55.5298 26.0934 54.1338C23.6232 53.143 21.3174 51.8766 19.4653 49.9111C18.0901 48.4503 17.2752 46.7649 17.3308 44.6998C17.3748 43.0283 17.3377 41.3522 17.3377 39.5765Z" fill="white"/>
<path d="M63.6383 51.0938C63.6383 53.1102 63.6916 55.041 63.6221 56.9671C63.562 58.6317 62.6869 59.9698 61.5895 61.1551C59.7421 63.1507 57.4177 64.4356 54.9244 65.4149C49.0602 67.7184 42.9669 68.3435 36.7254 67.8318C33.1301 67.5378 29.6274 66.8178 26.2659 65.489C23.7401 64.4912 21.3741 63.2202 19.4803 61.213C18.089 59.7383 17.2648 58.0367 17.3319 55.9508C17.3782 54.5293 17.3412 53.1079 17.3412 51.6841C17.3412 51.5105 17.3412 51.3392 17.3412 51.1146C18.1445 51.8323 18.8506 52.5384 19.6308 53.1496C22.3557 55.2864 25.4903 56.5875 28.8009 57.488C34.246 58.9697 39.7837 59.2915 45.3839 58.7382C49.3427 58.3469 53.1811 57.4788 56.8227 55.8513C59.3045 54.7423 61.5849 53.3278 63.4184 51.2766C63.4624 51.2234 63.5249 51.1864 63.6383 51.0938Z" fill="white"/>
<path d="M63.6754 28.7383C63.6754 29.0138 63.6754 29.1874 63.6754 29.361C63.6754 30.5093 63.6175 31.6622 63.687 32.8059C63.8537 35.5771 62.5711 37.6398 60.557 39.3414C57.7372 41.7236 54.3873 43.0154 50.8706 43.9322C46.6757 45.0296 42.3974 45.3676 38.0821 45.1314C33.3917 44.8768 28.8356 43.9693 24.562 41.9412C22.2538 40.8462 20.1355 39.4757 18.6191 37.3458C17.957 36.4128 17.4269 35.4011 17.3991 34.2366C17.3528 32.4424 17.3875 30.6436 17.3875 28.7985C17.4616 28.8448 17.5287 28.8656 17.5681 28.9119C20.0915 31.6947 23.3095 33.3499 26.7983 34.5329C32.2944 36.3989 37.9617 36.899 43.7263 36.5355C48.324 36.2461 52.7806 35.3409 56.9987 33.4333C59.3925 32.3498 61.5849 30.9677 63.3652 28.9999C63.43 28.9281 63.5157 28.8726 63.6754 28.7383Z" fill="white"/>
<path d="M63.942 29.9942C63.7867 30.4889 63.6356 30.9836 63.4803 31.4744L62.2213 33.0324L61.2687 33.9283L60.081 34.5671L59.804 34.6917C59.1661 34.9761 58.545 35.2916 57.8945 35.5448C52.9508 37.4534 47.7469 38.0494 42.4339 38.213C39.157 38.3089 35.8777 38.1198 32.6388 37.6482C28.9835 37.1301 25.4415 36.2965 22.147 34.6762L21.8701 34.5476L20.6866 33.9283L19.7298 33.0675L18.861 32.0976L18.6008 31.7275L18.0469 30.3837C18.0469 28.2102 18.0469 26.0367 18.0469 23.8633C18.2396 23.9196 18.4287 23.9859 18.6134 24.0619C18.7645 24.1281 18.903 24.2255 19.0331 24.3073C19.1647 24.1527 19.2734 23.9824 19.3562 23.8009C19.457 23.4893 19.4989 23.1621 19.5661 22.8427L20.0193 23.4932L20.8041 24.3463L21.3581 24.8059L22.3863 25.4603L22.9486 25.7875L24.1153 26.3211L24.3755 26.5081C24.2679 26.6699 24.1912 26.8478 24.1489 27.0339C24.1489 29.2814 24.1489 31.5289 24.1489 33.7803C24.1489 33.9556 24.3923 34.1308 24.5266 34.31L24.9462 34.5398L25.3407 34.6684L26.2556 34.941L26.8054 35.1475L27.8546 35.4085L28.3833 35.5487L29.9781 35.9031L31.9673 36.2926L33.0333 36.4329V28.6543C33.0765 28.6544 33.1193 28.6464 33.1592 28.6309L35.5471 28.8802L37.402 29.0048L37.9224 29.0321L40.5831 29.1217H42.5682H43.2397L45.338 29.0009L46.1396 28.923L48.3932 28.6776L49.1822 28.5842L51.5743 28.1713L52.1576 28.1323C52.3129 28.7517 52.4682 29.3671 52.6151 29.9903C52.6151 30.0215 52.5815 30.0643 52.5773 30.1033C52.5773 30.7343 52.5353 31.3692 52.5227 32.0002C52.5227 32.195 52.5647 32.3897 52.5605 32.5884C52.5605 33.1804 52.5102 33.7569 52.5018 34.3684C52.5018 34.5866 52.5731 34.8008 52.5773 35.0189C52.5688 35.2392 52.5478 35.459 52.5144 35.6772H53.2991L54.0965 35.4318L55.4185 35.0657L58.3562 33.9478L59.0192 33.5855C59.1962 33.2893 59.3249 32.9703 59.4011 32.639C59.4515 31.7704 59.4347 30.8979 59.4011 30.0254C59.3718 28.5842 59.3172 27.1469 59.271 25.7057C60.6601 24.8916 61.9443 23.9879 62.5445 22.4844L62.5864 22.757C62.5864 23.3764 62.4144 24.0697 63.3964 24.245L62.6662 25.3239L62.8382 25.4291L63.9168 24.728L63.942 29.9942Z" fill="#3372B6"/>
<path d="M22.1446 64.3331L21.3724 63.9202L20.9779 63.6632L20.0462 62.9698L19.5049 62.4752L18.7872 61.626L18.4431 61.1041C18.3046 60.7146 18.1619 60.3017 18.0234 59.9005V54.4862C18.4119 54.4119 18.7595 54.2123 19.0045 53.9228C19.2496 53.6334 19.3763 53.2727 19.3622 52.9048C19.3871 52.7311 19.4307 52.5602 19.4923 52.3945L19.8448 52.897L20.7975 54.0032L21.2171 54.3538L22.3964 55.1328L22.8161 55.3587L24.138 55.9897L24.2765 56.1183C24.2144 56.3128 24.1723 56.5124 24.1506 56.7142C24.1506 58.9578 24.1506 61.2014 24.1506 63.4411C24.1506 63.6203 24.3982 63.7956 24.5283 63.9709L25.0655 64.2085L25.993 64.5668L26.2406 64.6058L27.1848 64.9291L27.7136 65.0576L28.1333 65.1784L29.8455 65.5679L31.9691 65.9574L33.035 66.1054V58.3112C33.0783 58.3086 33.1209 58.2994 33.1609 58.284L34.7473 58.4359L37.2653 58.654L37.7899 58.6813L40.4506 58.7748H42.4356H43.1029L45.2013 58.6579L45.9986 58.5839L48.097 58.3814L49.0119 58.2684L51.2781 57.8789L52.1174 57.762C52.2643 58.358 52.4154 58.9539 52.5623 59.5499C52.5623 59.5811 52.5119 59.6239 52.5119 59.6629C52.5119 60.3367 52.5119 61.0067 52.5119 61.6805C52.5119 61.8363 52.5119 61.9883 52.5119 62.1402C52.4783 62.74 52.4406 63.3399 52.4112 63.9397C52.4112 64.2202 52.386 64.4967 52.4112 64.7772C52.3994 64.9691 52.4353 65.161 52.5161 65.3381C52.5581 65.4043 52.8518 65.3381 53.0281 65.3147L54.22 65.0654L55.2985 64.6993L58.3453 63.5853L58.765 63.3438C58.9454 63.1685 59.2602 63.001 59.277 62.8101C59.3651 61.7273 59.4197 60.6366 59.4155 59.546C59.4155 58.1515 59.3357 56.7532 59.2938 55.3587C60.5234 54.5797 61.732 53.8007 62.4035 52.5036H62.605C62.5756 53.084 62.5546 53.6721 63.2596 53.9019L62.756 54.7589L62.8903 54.8602L63.9395 54.2252L63.9605 59.6395C63.8472 60.029 63.7297 60.4614 63.6164 60.8742C62.777 62.4323 61.4005 63.4528 59.8393 64.3214C58.7146 64.7811 57.6067 65.2991 56.4526 65.6886C51.9034 67.2467 47.1485 67.6946 42.3517 67.866C40.8999 67.9024 39.4471 67.8646 37.9997 67.7531C36.0315 67.6245 34.0506 67.5116 32.1243 67.2233C28.6467 66.7859 25.2731 65.8089 22.1446 64.3331Z" fill="#3372B6"/>
<path d="M18.4353 46.2467L18.0156 45.1366V37.3853L19.3208 36.8828L19.5055 37.6229L19.2872 40.4001L19.5852 40.4936L20.6889 39.1809L20.9113 39.2822L21.0666 39.4965C20.7375 39.9184 20.365 40.3098 19.9545 40.665C19.0858 41.2921 19.367 42.0789 19.3879 42.8034C20.3532 41.966 21.31 41.1441 22.2669 40.3183L22.7915 40.5793L23.9917 41.183L24.1176 41.6855V41.9309C24.0295 42.0049 23.8658 42.0867 23.8742 42.1568C23.9372 42.8229 24.0337 43.4851 24.1176 44.1472V44.3926C24.0295 44.4667 23.8658 44.5484 23.8742 44.6186C23.9372 45.2807 24.0337 45.9468 24.1176 46.609V46.8544C23.5679 47.3958 23.9036 48.0229 23.9498 48.6072C23.9498 48.7279 24.1428 48.8331 24.2477 48.95L24.5121 49.1954L25.0493 49.4291L25.7166 49.6628L26.237 49.8147L27.0343 50.0484L27.6974 50.2587L28.3563 50.4379L29.8167 50.7456L31.806 51.065L32.0704 51.1468L32.3348 51.1663L32.7292 51.2754C33.2035 51.3221 33.1279 51.0066 33.1279 50.7495C33.1279 48.3345 33.1279 45.9208 33.1279 43.5084C33.3 43.5318 33.4679 43.563 33.6399 43.5786C34.2275 43.6214 34.8192 43.6565 35.4067 43.6954V43.7694V45.195L35.6334 45.2924L36.8672 43.8785L37.2491 43.8434L37.5261 43.9174C37.0427 44.4908 36.5123 45.0286 35.9397 45.5261C35.071 46.1766 35.2557 46.9634 35.327 47.8398C35.4289 47.8002 35.526 47.7506 35.6166 47.6918C36.8084 46.596 37.9933 45.4963 39.1712 44.3926C39.2677 44.2623 39.3387 44.1173 39.381 43.9642L39.7713 43.9252L40.0441 44.0148C39.9249 44.2229 39.7844 44.4199 39.6244 44.603C38.3402 45.8144 37.0812 47.0569 35.7257 48.1982C34.9703 48.837 35.1801 49.5225 35.1927 50.4184C35.4252 50.274 35.648 50.1166 35.86 49.9471C37.7989 48.1553 39.7349 46.3584 41.6682 44.5562C41.8147 44.3853 41.9426 44.2013 42.0501 44.007L42.4446 43.9174L42.7132 43.9914C42.5815 44.2184 42.4254 44.4324 42.2474 44.6302C40.0371 46.6947 37.8226 48.7526 35.604 50.804C35.4361 50.956 35.2892 51.1196 35.134 51.2831C35.797 51.809 36.5021 51.8051 37.0477 51.2831C39.5265 48.985 42.004 46.6843 44.48 44.381C44.6064 44.2306 44.7161 44.0688 44.8073 43.898L45.3361 43.7811L45.4704 43.8317C45.3578 44.0615 45.217 44.2785 45.0508 44.4783C42.709 46.6752 40.3463 48.8565 37.9919 51.0455C37.8282 51.1975 37.6813 51.361 37.5177 51.5285C37.8185 51.7211 38.1788 51.8173 38.5439 51.8026C38.9089 51.7878 39.2589 51.6629 39.5405 51.4467C42.1648 49.0214 44.785 46.5882 47.4009 44.1472C47.5345 43.9931 47.6473 43.8244 47.7366 43.6448L48.2654 43.5162L48.534 43.5435C48.4027 43.7499 48.2524 43.9453 48.085 44.1278C45.5669 46.4649 43.0489 48.811 40.5309 51.1663C40.3714 51.3182 40.2245 51.4818 40.0231 51.6921C40.8624 51.9258 41.6011 52.0076 42.197 51.4584C44.9221 48.9448 47.6345 46.4233 50.3344 43.8941C50.4827 43.6853 50.588 43.4529 50.645 43.2085L51.4843 43.0177L51.904 42.9865C52 43.1052 52.0763 43.2364 52.1306 43.376C52.2271 43.8512 52.2943 44.3303 52.3614 44.8094C52.3599 44.9074 52.3501 45.0051 52.332 45.1016C52.332 45.7365 52.2817 46.3675 52.2691 46.9985C52.2691 47.1932 52.3236 47.388 52.3194 47.5789C52.3194 48.2138 52.2859 48.8448 52.2733 49.4758C52.2733 49.6861 52.3446 49.9276 52.2733 50.099C52.0425 50.5509 52.2733 50.6482 52.6929 50.656L53.356 50.4145L55.3452 49.9198L58.6564 48.5643C58.7508 48.5667 58.8446 48.5508 58.9319 48.5176C59.0193 48.4844 59.0982 48.4348 59.1637 48.3718C59.2293 48.3087 59.2799 48.2337 59.3125 48.1516C59.3451 48.0694 59.359 47.9818 59.3531 47.8944C59.3531 47.3958 59.3153 46.8933 59.3279 46.3908C59.3405 45.8884 59.4077 45.3431 59.4077 44.8328C59.4077 44.3225 59.3573 43.6954 59.3279 43.1306C59.286 42.2867 59.2412 41.444 59.1936 40.6027C60.5114 39.8236 61.7578 38.9706 62.4796 37.6268C62.8993 38.1254 63.4575 37.8488 63.9653 37.8761C63.9653 40.1716 63.9765 42.4671 63.9988 44.7627L63.5792 46.2428L62.3579 47.723L61.3255 48.7046L60.1463 49.4407L59.8861 49.5615C59.7581 49.5885 59.6331 49.6264 59.5126 49.6745C54.6906 51.9648 49.4615 52.7088 44.1527 52.9775C40.0845 53.2426 35.9967 53.0399 31.9822 52.3738C29.8125 51.9843 27.668 51.4312 25.5445 50.8469C24.4004 50.4769 23.2795 50.0478 22.1871 49.5615L21.9269 49.4407L20.7435 48.7046L19.7027 47.8437L18.8634 46.8622L18.4353 46.2467ZM42.8727 51.7428C43.6533 51.7973 44.4506 51.9142 45.2018 51.1585C46.784 49.5615 48.4836 48.0736 50.1371 46.5389C50.4016 46.2861 50.5818 45.9679 50.6563 45.6225C50.7307 45.277 50.6962 44.919 50.5568 44.5913L42.8727 51.7428ZM50.624 46.8583C48.8491 48.3141 47.1781 49.8754 45.6215 51.5324C46.4608 51.5013 47.3002 51.7194 47.9507 51.03C48.6099 50.3129 49.3314 49.6472 50.1078 49.0395C50.9177 48.4397 50.8422 47.7113 50.624 46.8583ZM22.0864 41.2064C21.1464 42.075 20.3322 42.8073 19.5474 43.5747C19.2075 43.9019 19.3082 44.9107 19.7489 45.3041C20.2651 44.7267 20.8261 44.1851 21.4275 43.6837C22.3088 43.0371 22.1913 42.2386 22.0822 41.2064H22.0864ZM22.0109 43.7188C21.2807 44.4043 20.5966 45.0314 19.9125 45.6664C19.8726 45.7234 19.8472 45.7881 19.8385 45.8557C19.8298 45.9232 19.8379 45.9917 19.8622 46.0559C20.1224 46.7336 20.6344 46.8349 21.1673 46.348L21.7759 45.7832C22.3676 45.2262 22.4683 44.564 22.0067 43.7188H22.0109ZM48.7187 51.3455C49.302 51.2403 50.112 51.287 50.5778 50.956C50.9051 50.7145 50.7667 49.9315 50.838 49.3979H50.6827L48.7187 51.3455ZM22.2795 46.2117L22.1032 46.1221C21.906 46.2974 21.7045 46.4688 21.5157 46.6479C20.9659 47.1543 21.0037 47.427 21.6751 47.8165C22.0235 48.0112 22.2669 47.984 22.2753 47.5477C22.2837 47.1115 22.2837 46.6518 22.2837 46.2117H22.2795Z" fill="#3271B5"/>
<path d="M62.5851 22.7379L62.5432 22.4652L62.9251 22.2471L62.6019 22.1185H62.5558L62.6145 21.729V21.3784L62.1948 20.2605L61.943 19.871C61.1331 18.6557 59.8951 17.9235 58.5857 17.2963C53.9819 15.2319 49.0256 14.5347 43.9896 14.2776C41.7066 14.1646 39.4068 14.3088 37.1154 14.3633C34.3282 14.4652 31.5608 14.8439 28.8605 15.4929C26.4767 16.0382 24.1392 16.7393 22.1038 18.0559C21.3542 18.6189 20.6552 19.2377 20.0138 19.9061L19.6361 20.5293L19.3885 21.3979V21.8887H19.3382L18.0372 22.6327L18.0078 21.2811L18.1715 20.4202C18.3561 20.0307 18.5408 19.6841 18.7213 19.3179C19.4263 18.648 20.1257 17.9767 20.8196 17.3041L20.9371 17.2184L21.0924 17.1133L22.6787 16.2369L22.8424 16.1356L25.9731 14.967L26.1074 14.893L27.0307 14.6399L29.6998 13.9855L30.791 13.7712L32.8893 13.4752L33.6909 13.37L35.9403 13.1246L37.1699 13.0312L38.5926 13H43.0999H44.0273L44.6946 13.0234L46.5412 13.1519L47.0825 13.2415L48.7948 13.4012L49.4663 13.5064L51.1827 13.7634L51.7199 13.8764L53.0125 14.1413L53.8518 14.3555L55.434 14.745L55.8285 14.8697L57.2889 15.3605L57.8261 15.5825L59.1313 16.1434L59.5509 16.342L60.684 16.9769L61.259 17.3665L62.1697 18.0754L62.5893 18.4649L63.2734 19.4114L63.6343 20.0424L63.9239 21.1369V22.2471L62.5851 22.7379Z" fill="#2366AD"/>
<path d="M63.2744 34.1803L63.5136 34.5699C63.6605 35.0606 63.8074 35.5475 63.9585 36.0344L63.9333 37.8846C63.4255 37.8574 62.8589 38.1339 62.4476 37.6353L62.5735 37.0277L62.5232 35.8591L62.3301 35.2943L61.944 34.6789L61.2852 33.8999L62.2462 33.0391L62.5987 33.3234L63.2744 34.1803Z" fill="#2366AD"/>
<path d="M63.2249 48.9574L63.4557 49.347L63.9341 50.7998C63.9341 51.2127 63.9341 51.6256 63.9341 52.0346L63.1787 52.2995L62.6038 52.5254H62.4024L62.5031 52.0463L62.587 51.7931V50.944L62.2093 49.9507L61.9617 49.5612L61.2734 48.712L62.3058 47.7305C62.3478 47.8162 62.3898 47.9019 62.4275 47.9875L63.2249 48.9574Z" fill="#2366AD"/>
<path d="M18.2392 49.9316C18.4574 49.5421 18.6589 49.1292 18.8981 48.728L19.1037 48.4592L19.2086 48.3424L19.3052 48.2411L19.6325 47.8516L20.6733 48.7124C20.4383 48.9928 20.2075 49.2772 19.9766 49.5615L19.7374 49.9277L19.3849 50.8197V51.7973H19.3387L18.0294 52.1869L18 50.9521L18.2392 49.9316Z" fill="#2366AD"/>
<path d="M18.1913 35.1736L18.7872 34.083L18.9845 33.7986L19.0768 33.6935L19.7441 33.0508L20.6841 33.9272L19.8742 34.9204L19.3958 36.1747V36.9109H19.3496L18.0444 37.4133C18.0444 36.9615 18.0444 36.5097 18.0234 36.0578L18.1913 35.1736Z" fill="#2366AD"/>
<path d="M20.9456 17.2031L20.8281 17.2888L20.9456 17.2031Z" fill="#F3F3F3"/>
<path d="M19.2071 48.3398L19.0938 48.4645L19.2071 48.3398Z" fill="#F3F3F3"/>
<path d="M19.327 48.2109L19.2305 48.3122L19.327 48.2109Z" fill="#F3F3F3"/>
<path d="M26.1343 14.875L26 14.949L26.1343 14.875Z" fill="#F3F3F3"/>
<path d="M19.0611 33.6953L18.9688 33.8005L19.0611 33.6953Z" fill="#F3F3F3"/>
<path d="M22.1445 34.6757C25.4305 36.2961 28.9726 37.1297 32.6363 37.6477C35.8752 38.1194 39.1545 38.3085 42.4314 38.2125C47.7234 38.0373 52.9483 37.4335 57.892 35.5171C58.5425 35.2639 59.151 34.9484 59.8015 34.6641C59.8729 35.0683 59.8414 35.4825 59.7095 35.8734C59.5776 36.2643 59.349 36.6212 59.0419 36.9155C58.4947 37.4643 57.8791 37.9507 57.2079 38.3644C56.3434 38.8708 55.3908 39.2447 54.4717 39.6732L47.4716 41.2313L44.685 41.5L40.7065 41.6247H40.0518L39.3804 41.6013C35.7068 41.504 32.0615 40.9739 28.5319 40.0238L24.801 38.4969L22.7027 36.7674L22.1445 35.4236V34.6757Z" fill="#0C4B7E"/>
<path d="M31.9624 36.2666L29.9732 35.8771C30.1493 35.6026 30.3623 35.35 30.6069 35.1253C31.4127 34.5488 31.1441 33.8126 31.0266 33.0453C30.6202 33.2929 30.2517 33.5903 29.9312 33.9295C29.4024 34.4592 28.8946 35.0123 28.3784 35.5577L27.8497 35.4174C27.9669 35.2275 28.1002 35.0464 28.2484 34.876C29.1129 34.058 29.9984 33.2517 30.8671 32.4338C31.0714 32.1691 31.1813 31.8518 31.1813 31.5262C31.1813 31.2006 31.0714 30.8832 30.8671 30.6186L27.1824 33.9295L26.5235 33.649C26.5949 32.9245 26.129 32.0559 27.1782 31.5885L27.2789 33.0375L27.5265 33.0804C28.391 32.2702 29.2052 31.4132 30.1369 30.6576C30.9133 30.0344 31.3791 29.3527 31.1693 28.3828L31.9624 28.523C31.8785 28.7451 31.7862 28.9632 31.719 29.1891C31.6771 29.3293 31.5973 29.528 31.6645 29.6215C32.1765 30.3187 32.0841 30.9965 31.6645 31.7015C31.6015 31.8183 31.6854 32.017 31.7316 32.1728C31.7778 32.3286 31.9372 32.535 31.9289 32.7103C31.9289 33.2206 32.1303 33.7815 31.6225 34.2138C31.5967 34.256 31.5832 34.3036 31.5832 34.3521C31.5832 34.4006 31.5967 34.4482 31.6225 34.4904C32.2436 35.0084 31.8491 35.6823 31.9624 36.2666Z" fill="#83B7DE"/>
<path d="M54.4609 39.6846C55.38 39.2561 56.3327 38.8822 57.1972 38.3758C57.8683 37.9621 58.484 37.4757 59.0311 36.9268C59.3382 36.6326 59.5669 36.2757 59.6988 35.8848C59.8307 35.4938 59.8622 35.0797 59.7907 34.6754L60.0677 34.5508L60.5713 34.9403L60.9616 35.4506L61.268 36.1751L61.2428 37.0281C60.8133 37.6097 60.3288 38.1546 59.7949 38.6563C59.117 39.1363 58.4031 39.571 57.6588 39.9572L56.7691 40.2572L54.4609 39.6846Z" fill="#3C79BB"/>
<path d="M31.961 36.267C31.8476 35.6749 32.2421 35.001 31.6252 34.483C31.5995 34.4408 31.5859 34.3932 31.5859 34.3447C31.5859 34.2962 31.5995 34.2486 31.6252 34.2064C32.133 33.7741 31.9106 33.2132 31.9316 32.7029C31.9316 32.5276 31.7889 32.3484 31.7343 32.1654C31.6798 31.9823 31.6042 31.8109 31.6672 31.6941C32.0617 30.989 32.1582 30.3113 31.6672 29.6141C31.6 29.5206 31.6672 29.3219 31.7217 29.1817C31.7889 28.9558 31.8812 28.7376 31.9652 28.5156H32.6366L33.0563 28.652V36.415L31.961 36.267Z" fill="#6CA3D3"/>
<path d="M59.0036 33.5656L58.3405 33.9278C58.2734 33.4526 58.5084 32.9307 58.0426 32.3308C57.3333 33.0241 56.6828 33.6474 56.0491 34.2784C55.8183 34.5121 55.6295 34.7847 55.4238 35.0379L54.0977 35.4041C54.0257 34.9993 53.9809 34.5909 53.9634 34.181C54.0134 33.9604 54.1042 33.7495 54.232 33.5578C54.3075 34.0369 54.3788 34.516 54.4712 35.1158C55.7679 33.9161 56.9892 32.806 58.1894 31.6686C58.5042 31.3726 58.3951 30.3832 58.0468 30.0132L54.3662 33.3319C53.9004 32.88 53.9466 32.3074 53.9466 31.7738C54.0003 31.5506 54.0909 31.3364 54.2152 31.1389L54.4502 32.6658L58.3237 29.1602C58.9155 29.7366 58.6763 30.4572 58.7434 31.1311L59.0036 33.5656Z" fill="#4C91C8"/>
<path d="M62.5432 22.4639C61.943 23.9674 60.6589 24.8711 59.2697 25.6852L58.8711 25.9267L58.3423 26.1798L56.2188 26.9589C56.5545 26.5694 56.8944 26.2032 57.2218 25.8176C57.4274 25.5761 57.6079 25.3151 57.8051 25.0658L58.4724 24.6763C59.6349 24.0414 60.7218 23.3403 61.2716 22.125H62.56H62.6061L62.5474 22.4717L62.5432 22.4639Z" fill="#F8FAFB"/>
<path d="M27.1797 33.928L30.8686 30.6016C31.0729 30.8662 31.1828 31.1836 31.1828 31.5091C31.1828 31.8347 31.0729 32.1521 30.8686 32.4167C29.9999 33.2347 29.1144 34.041 28.2499 34.859C28.1017 35.0294 27.9684 35.2104 27.8512 35.4004L26.802 35.1394C26.7479 34.9244 26.7542 34.7 26.8204 34.4879C26.8865 34.2758 27.0102 34.083 27.1797 33.928Z" fill="#8ABFE5"/>
<path d="M53.3056 35.6575H52.5208C52.5542 35.4392 52.5753 35.2195 52.5837 34.9992C52.5837 34.7811 52.504 34.5668 52.5082 34.3487C52.5082 33.7567 52.5544 33.1607 52.5669 32.5686C52.5669 32.3739 52.5292 32.1791 52.5292 31.9805C52.5292 31.3495 52.5627 30.7145 52.5837 30.0835C52.5837 30.0446 52.6299 30.0017 52.6215 29.9706C52.4746 29.3474 52.3193 28.7319 52.1641 28.1126L52.4998 27.9724L53.293 27.8711L53.5742 29.1604C53.1251 29.6901 53.1251 30.7184 53.6623 31.4975C52.9153 32.3271 53.2426 33.1607 53.6161 33.9241C53.4508 34.187 53.3224 34.4684 53.2342 34.7616C53.2197 35.0618 53.2437 35.3625 53.3056 35.6575Z" fill="#3E81C0"/>
<path d="M53.306 35.6597C53.2431 35.361 53.2191 35.0563 53.2346 34.7522C53.3255 34.4642 53.4552 34.1881 53.6207 33.9303C53.264 33.1513 52.9199 32.3333 53.6669 31.5036C53.1297 30.7246 53.1297 29.7002 53.5787 29.1665L53.2976 27.8773L55.1651 27.2969L55.2994 27.3086C54.9888 27.6981 54.6783 28.1149 54.3719 28.5199C53.7382 29.038 53.8012 30.078 54.502 30.7363L54.2376 31.1063C54.1133 31.3038 54.0227 31.518 53.969 31.7412C53.9397 32.2943 53.9061 32.8669 54.3887 33.2993L54.2544 33.5447C54.1267 33.7364 54.0358 33.9473 53.9858 34.1679C54.0033 34.5778 54.0482 34.9862 54.1201 35.391L53.306 35.6597Z" fill="#498DC7"/>
<path d="M26.2508 34.9419L25.3359 34.6692C25.4157 34.0927 25.5038 33.5202 25.571 32.9437C25.571 32.8112 25.5038 32.671 25.5038 32.5308C25.5038 31.8842 25.5038 31.2337 25.529 30.5832C25.5373 30.4089 25.5289 30.2342 25.5038 30.0613C25.4618 29.7808 25.3653 29.5082 25.3527 29.2277C25.3108 28.4487 25.7011 27.6697 25.3527 26.8906L26.1333 27.1282L26.2634 27.2061V27.5489C26.1149 27.7558 25.9844 27.9733 25.8731 28.1994C25.5835 28.9784 26.4271 29.7107 25.9571 30.5832C25.7556 30.9727 26.1333 31.6076 26.234 32.1413C26.255 32.2348 26.2592 32.3867 26.2005 32.4295C25.806 32.7139 25.9235 33.0683 25.9948 33.4306C26.0913 33.9291 26.1669 34.4316 26.2508 34.9419Z" fill="#6CA3D3"/>
<path d="M26.2526 34.9398C26.1687 34.4295 26.0931 33.9193 25.9924 33.4129C25.9211 33.0507 25.8035 32.6962 26.198 32.4119C26.2568 32.369 26.2526 32.2171 26.2316 32.1236C26.1309 31.5939 25.7532 30.9551 25.9546 30.5656C26.4247 29.6931 25.5811 28.9647 25.8707 28.1817C25.982 27.9556 26.1125 27.7381 26.261 27.5312C26.3215 27.6352 26.3653 27.7467 26.3911 27.8623C26.4205 28.357 26.198 28.953 27.0584 29.0309C26.0637 30.5032 26.1099 31.0914 27.1927 31.4537C27.1927 31.4965 27.1927 31.5355 27.1927 31.5744C26.1435 32.0418 26.6093 32.9104 26.538 33.6349L27.1843 33.9271C27.0126 34.0809 26.8865 34.2731 26.8181 34.4853C26.7498 34.6975 26.7415 34.9224 26.794 35.1385L26.2526 34.9398Z" fill="#74ABD7"/>
<path d="M28.3789 35.5476C28.8951 35.0023 29.4029 34.4492 29.9317 33.9195C30.2534 33.5929 30.6203 33.3074 31.0228 33.0703C31.1445 33.8493 31.4131 34.5738 30.6032 35.1503C30.3585 35.375 30.1456 35.6276 29.9695 35.9021L28.3789 35.5476Z" fill="#8ABFE5"/>
<path d="M24.9401 34.5398L24.5205 34.31C24.5845 34.0748 24.6266 33.8351 24.6464 33.5932C24.617 32.3001 24.554 31.0108 24.5289 29.7215C24.5079 28.6698 24.5289 27.6181 24.5289 26.5703H24.6632L25.0618 26.8079C25.0618 27.1974 25.0618 27.5597 25.0618 27.9375C25.0618 28.1323 25.1332 28.327 25.129 28.5218C25.129 29.1567 25.0828 29.7916 25.0702 30.4265C25.0702 30.6174 25.1206 30.816 25.1164 31.0069C25.1164 31.6223 25.0702 32.2377 25.066 32.8532C25.066 33.0324 25.1751 33.2115 25.1584 33.3829C25.1038 33.7607 25.0115 34.1503 24.9401 34.5398Z" fill="#4C91C8"/>
<path d="M24.5379 26.5702C24.5379 27.618 24.5379 28.6697 24.5379 29.7214C24.5631 31.0107 24.626 32.2999 24.6554 33.5931C24.6357 33.8349 24.5936 34.0747 24.5295 34.3098C24.3952 34.1307 24.156 33.9554 24.1518 33.7801C24.1266 31.5287 24.1518 29.2812 24.1518 27.0337C24.1951 26.8546 24.2703 26.6835 24.3742 26.5273L24.5379 26.5702Z" fill="#3E81C0"/>
<path d="M40.5787 29.1214L37.918 29.0318L38.8538 27.9139L39.2735 27.8711L41.1368 27.8945L41.5313 27.9334L40.5787 29.1214Z" fill="#F8FAFB"/>
<path d="M24.9414 34.5404C25.0128 34.1509 25.1051 33.7614 25.1512 33.3719C25.1512 33.2005 25.0547 33.0213 25.0589 32.8421C25.0589 32.2267 25.0967 31.6113 25.1093 30.9958C25.1093 30.8011 25.0589 30.6063 25.0631 30.4155C25.0631 29.7806 25.1135 29.1456 25.1219 28.5107C25.1219 28.316 25.0589 28.1212 25.0547 27.9265C25.0547 27.537 25.0547 27.1747 25.0547 26.7969L25.3275 26.8865C25.6716 27.6655 25.2813 28.4445 25.3275 29.2235C25.3275 29.504 25.4366 29.7767 25.4786 30.0571C25.5079 30.2297 25.5205 30.4044 25.5164 30.5791C25.5164 31.2295 25.4954 31.88 25.4912 32.5266C25.4912 32.6669 25.5709 32.8071 25.5583 32.9395C25.4912 33.516 25.403 34.1081 25.3233 34.6651L24.9414 34.5404Z" fill="#5F99CD"/>
<path d="M58.8714 25.929L59.2701 25.6875C59.3163 27.1287 59.3708 28.566 59.4002 30.0072C59.4002 30.8797 59.438 31.7522 59.4002 32.6208C59.324 32.9521 59.1953 33.2711 59.0183 33.5674L58.7539 31.1095C58.884 30.9576 59.1274 30.8018 59.1232 30.6499C59.0983 30.1505 59.0465 29.6526 58.9679 29.1581C58.9428 28.9672 58.8252 28.7218 58.9092 28.5972C59.3498 27.9506 59.1568 27.3235 58.9553 26.6769C58.9019 26.4306 58.8738 26.1802 58.8714 25.929Z" fill="#3E81C0"/>
<path d="M51.5835 28.1444L49.1914 28.5573C49.3257 28.3625 49.4474 28.1678 49.6111 27.9769C49.8251 27.7081 50.0559 27.455 50.2783 27.1979L52.6747 26.7266C52.5362 26.9369 52.4061 27.1589 52.255 27.3615C52.0284 27.6302 51.8018 27.8873 51.5835 28.1444Z" fill="#FBFCFD"/>
<path d="M55.4258 35.047C55.6356 34.7938 55.8203 34.5211 56.0511 34.2874C56.6848 33.6486 57.3353 33.0254 58.0445 32.3398C58.5104 32.9397 58.2753 33.4616 58.3425 33.9369L55.4258 35.047Z" fill="#4F96CF"/>
<path d="M35.5442 28.8634L33.1562 28.6141L33.9536 27.5273L36.3373 27.7727L35.5442 28.8634Z" fill="#F8FAFB"/>
<path d="M48.4021 28.6525L46.1484 28.8979C46.2701 28.7187 46.3918 28.5395 46.5219 28.3643C46.7024 28.1267 46.8913 27.8968 47.0759 27.6592L49.4428 27.3359C49.3127 27.5112 49.1868 27.6904 49.0484 27.8618C48.8385 28.1267 48.6203 28.3876 48.4021 28.6525Z" fill="#FBFCFD"/>
<path d="M63.9153 22.2422V24.7039L62.8536 25.4089L62.6815 25.3038L63.4117 24.2248C62.4297 24.0495 62.6102 23.3562 62.6018 22.7369L63.9153 22.2422Z" fill="#3271B5"/>
<path d="M45.3444 28.9729L43.2461 29.0936C43.5986 28.6769 43.9511 28.2562 44.3079 27.8394L46.4062 27.6836L45.3444 28.9729Z" fill="#FEFEFE"/>
<path d="M18.0391 23.8498V22.6345L19.3316 21.8555L19.5667 22.8293C19.4995 23.1487 19.4575 23.4758 19.3568 23.7875C19.2753 23.963 19.1695 24.128 19.0421 24.2782C18.8952 24.1964 18.7567 24.0991 18.6224 24.0329C18.4319 23.9616 18.2371 23.9005 18.0391 23.8498Z" fill="#3271B5"/>
<path d="M40.5781 29.1216L41.5098 27.953L43.6081 27.918L42.5422 29.1255L40.5781 29.1216Z" fill="#FEFEFE"/>
<path d="M35.543 28.8641L36.3361 27.7734L38.3296 27.8786L37.3979 28.9887L35.543 28.8641Z" fill="#FBFCFD"/>
<path d="M24.1159 26.3199L22.9492 25.7863L23.6207 24.8008L25.0853 25.4396L24.1159 26.3199Z" fill="#FBFCFD"/>
<path d="M22.3876 25.4606L21.3594 24.8062L22.2785 23.9727L23.4074 24.6894L22.3876 25.4606Z" fill="#FBFCFD"/>
<path d="M20.8043 24.3467L20.0195 23.4936L20.9302 22.6328L21.7696 23.5949L20.8043 24.3467Z" fill="#FBFCFD"/>
<path d="M20.9271 22.6346L20.0164 23.5071L19.5631 22.8566C19.4834 22.5333 19.4079 22.2061 19.3281 21.8828H19.3785H20.6375L20.9145 22.506C20.924 22.5483 20.9283 22.5914 20.9271 22.6346Z" fill="#F0F1F1"/>
<path d="M19.8789 34.9074L20.6889 33.9297L21.8765 34.5646L21.3771 34.9541L19.8789 34.9074Z" fill="#67A8DA"/>
<path d="M51.582 28.1437C51.8003 27.8866 52.0269 27.6295 52.2325 27.3646C52.3878 27.1621 52.5179 26.9401 52.6522 26.7297L53.7056 26.4688C53.5083 26.6986 53.3069 26.9245 53.118 27.1621C52.9292 27.3997 52.6984 27.6996 52.4969 27.9684L52.1612 28.1086L51.582 28.1437Z" fill="#F0F1F1"/>
<path d="M60.5817 34.9268L60.0781 34.5373L61.2658 33.9297C61.484 34.1829 61.7064 34.4361 61.9247 34.7087L60.5817 34.9268Z" fill="#67A8DA"/>
<path d="M48.3984 28.6521C48.6167 28.3873 48.8181 28.1263 49.0447 27.8731C49.1832 27.7017 49.3091 27.5225 49.4392 27.3473L49.5945 27.2772L50.2576 27.2109C50.0351 27.468 49.8043 27.7212 49.5903 27.99C49.4434 28.173 49.3217 28.3795 49.1706 28.5703L48.3984 28.6521Z" fill="#F0F1F1"/>
<path d="M45.3438 28.9728L46.4097 27.6952L47.0728 27.668C46.8881 27.9056 46.6993 28.1354 46.5188 28.373C46.3887 28.5483 46.267 28.7274 46.1453 28.9066L45.3438 28.9728Z" fill="#F0F1F1"/>
<path d="M42.5625 29.1056L43.6285 27.8981L44.0229 27.793L44.2957 27.8397C43.939 28.2565 43.5865 28.6772 43.234 29.0939L42.5625 29.1056Z" fill="#F0F1F1"/>
<path d="M33.9523 27.5427L33.1549 28.6294C33.1151 28.6449 33.0723 28.6529 33.029 28.6528L32.6094 28.5164L33.4067 27.4336L33.9523 27.5427Z" fill="#F0F1F1"/>
<path d="M37.3984 29.0046L38.3301 27.8945L38.8715 27.8672V27.9139L37.9356 29.0318L37.3984 29.0046Z" fill="#F4F4F4"/>
<path d="M24.1133 26.3217L25.0827 25.4414L25.5024 25.5933L24.663 26.5515H24.5288L24.3735 26.5282L24.1133 26.3217Z" fill="#F0F1F1"/>
<path d="M20.8047 24.3454L21.7657 23.5664L22.2693 23.8624C22.2673 23.8936 22.2673 23.9248 22.2693 23.9559L21.3503 24.7895L20.8047 24.3454Z" fill="#F0F1F1"/>
<path d="M21.3737 34.9208L21.8731 34.5312L22.1501 34.6598C22.1501 34.9091 22.1501 35.1584 22.1501 35.4077L21.2227 35.1467L21.3737 34.9208Z" fill="#3E81C0"/>
<path d="M22.3867 25.4587L23.3897 24.6797L23.6205 24.7888L22.9491 25.7742L22.3867 25.4587Z" fill="#F0F1F1"/>
<path d="M28.1271 65.1716L27.7074 65.0508C27.8315 64.8627 27.9718 64.6842 28.1271 64.5172C29.0252 63.668 29.9358 62.8384 30.8339 61.9931C31.0599 61.7268 31.1844 61.3986 31.1882 61.0597C31.192 60.7207 31.0748 60.3902 30.8549 60.1196C29.9862 60.9298 29.1762 61.7906 28.2404 62.5307C27.401 63.1889 26.9814 63.9173 27.1954 64.9223L26.2511 64.599C26.3938 64.1549 27.2374 63.7226 26.2805 63.2551C26.3435 62.6942 26.0287 62.0866 26.6079 61.5841C26.717 61.4907 26.7002 61.0856 26.6834 61.0817C26.0833 60.9648 26.2637 60.5208 26.2637 60.1975C26.2965 59.8492 26.3989 59.5097 26.5659 59.1964C26.7254 58.9043 26.9856 58.6862 26.4442 58.5148C26.3435 58.4836 26.2679 58.2538 26.2595 58.1253C26.2344 57.7007 26.2595 57.2722 26.2595 56.8438L26.5029 56.8671L28.2614 57.428C27.997 57.7396 27.741 58.0629 27.4598 58.3667C27.2642 58.6414 27.1674 58.9665 27.1832 59.2954C27.199 59.6243 27.3267 59.9401 27.5479 60.1975C28.0767 59.6833 28.6181 59.1808 29.1343 58.6394C29.3945 58.3745 29.6085 58.0746 29.8435 57.7903L30.3723 57.9305C30.2513 58.1229 30.1107 58.3042 29.9526 58.4719C29.1385 59.2509 28.2991 60.0066 27.4808 60.7778C27.2585 61.0399 27.1404 61.3652 27.1465 61.6987C27.1527 62.0323 27.2826 62.3536 27.5143 62.6086C28.4124 61.7711 29.2686 60.8869 30.2212 60.104C30.9221 59.5275 31.3124 58.9082 31.1487 58.0318L31.9419 58.1681C31.8539 58.3448 31.7754 58.5255 31.7068 58.7095C31.6565 58.8497 31.5768 59.0523 31.6397 59.1419C32.1517 59.8391 32.0594 60.5169 31.6691 61.2258C31.6433 61.3027 31.6356 61.3839 31.6465 61.4639C31.6574 61.5438 31.6865 61.6207 31.732 61.6893C31.9838 62.0554 32.072 63.1928 31.7782 63.5356C31.5348 63.816 31.4928 64.003 31.8202 64.2484C31.9209 64.3224 31.9335 64.5405 31.9377 64.6964C31.9377 65.0859 31.9377 65.5104 31.9377 65.9194L29.8141 65.5299C30.0869 65.2183 30.3429 64.8911 30.6535 64.599C31.2032 64.0614 31.3459 63.3447 30.943 62.4761L28.1271 65.1716Z" fill="#83B7DE"/>
<path d="M55.2993 64.7012L54.2376 65.0634C54.1956 64.4363 54.1536 63.8092 54.0991 63.1821C54.0944 63.0621 54.0599 62.9448 53.9984 62.8393C53.7828 62.5358 53.668 62.1803 53.668 61.8168C53.668 61.4533 53.7828 61.0978 53.9984 60.7944C54.0325 60.7267 54.0501 60.6529 54.0501 60.5782C54.0501 60.5035 54.0325 60.4297 53.9984 60.362C53.7849 60.0578 53.6713 59.7026 53.6713 59.3395C53.6713 58.9765 53.7849 58.6213 53.9984 58.317C54.0517 58.1758 54.0442 58.0209 53.9774 57.8847C53.9037 57.7202 53.8138 57.5624 53.7088 57.4134L55.0307 56.9771H55.1734C55.1019 57.1616 55.003 57.336 54.8797 57.4952C54.5867 57.7406 54.4012 58.0775 54.3586 58.4417C54.3161 58.8059 54.4194 59.1719 54.6488 59.47C54.7104 59.4549 54.7687 59.4299 54.8209 59.396C55.8827 58.4144 56.9528 57.4484 58.002 56.4435C58.106 56.2958 58.1813 56.1323 58.2244 55.9605L58.6105 55.8008V56.4357C58.4762 56.6811 58.3419 56.9265 58.1909 57.1719C58.0052 57.2084 57.8278 57.2743 57.6663 57.3666C56.6255 58.3093 55.5959 59.2623 54.5775 60.2257C54.204 60.584 54.246 61.5695 54.6488 61.9629L58.1909 58.7728C58.3412 59.0163 58.4528 59.2787 58.5224 59.5518C58.5644 60.0815 58.8791 60.6931 58.1909 61.1099V59.6375C57.9558 59.7076 57.8341 59.7115 57.7712 59.7699C56.6758 60.7749 55.5721 61.7798 54.502 62.8081C54.1872 63.1081 54.3005 64.1052 54.6488 64.4597L58.1951 61.2657C58.7154 61.8538 58.5812 62.5589 58.6147 63.2366V63.3574L58.3461 63.482C58.2706 63.0379 58.1951 62.5939 58.0943 61.9824C57.5907 62.4303 57.1753 62.7614 56.7976 63.1509C56.2772 63.6417 55.7903 64.1792 55.2993 64.7012Z" fill="#4C91C8"/>
<path d="M31.9619 65.9232C31.9619 65.5337 31.9619 65.1052 31.9619 64.7001C31.9619 64.5443 31.9619 64.3106 31.8444 64.2522C31.517 64.0068 31.559 63.8198 31.8024 63.5394C32.0962 63.1966 32.0081 62.0592 31.7563 61.6931C31.7107 61.6245 31.6816 61.5476 31.6707 61.4676C31.6599 61.3877 31.6676 61.3065 31.6933 61.2296C32.0836 60.5206 32.1759 59.8429 31.6639 59.1457C31.601 59.0561 31.6639 58.8535 31.7311 58.7133C31.7996 58.5293 31.8781 58.3486 31.9661 58.1719L32.4907 58.1914L33.0321 58.3121V66.0712L31.9619 65.9232Z" fill="#6CA3D3"/>
<path d="M58.5968 55.8208L58.2107 55.9805L55.957 56.6972C56.2718 56.3428 56.5907 55.9961 56.8971 55.6378C57.1195 55.3768 57.3168 55.1002 57.535 54.8315C57.7448 54.7185 57.9547 54.6017 58.1603 54.4965C59.4193 53.8538 60.5776 53.1332 61.2407 51.8945H62.4241L62.4829 52.0192L62.3822 52.4983C61.7107 53.7915 60.5021 54.5861 59.2724 55.3534L58.5968 55.8208Z" fill="#F8FAFB"/>
<path d="M27.1813 64.9238C26.9841 63.9189 27.3995 63.1905 28.2263 62.5322C29.1538 61.7921 29.9721 60.9313 30.8408 60.1211C31.0607 60.3917 31.1779 60.7223 31.1741 61.0612C31.1703 61.4001 31.0458 61.7284 30.8198 61.9947C29.9218 62.8399 29.0111 63.6696 28.113 64.5187C27.9578 64.6857 27.8174 64.8642 27.6933 65.0523L27.1813 64.9238Z" fill="#8ABFE5"/>
<path d="M53.6961 57.4141C53.8011 57.5631 53.8911 57.7209 53.9647 57.8854C54.0315 58.0216 54.039 58.1765 53.9857 58.3177C53.7722 58.6219 53.6586 58.9772 53.6586 59.3402C53.6586 59.7033 53.7722 60.0585 53.9857 60.3627C54.0198 60.4304 54.0375 60.5042 54.0375 60.5789C54.0375 60.6536 54.0198 60.7274 53.9857 60.795C53.7702 61.0985 53.6553 61.454 53.6553 61.8175C53.6553 62.181 53.7702 62.5365 53.9857 62.84C54.0472 62.9455 54.0817 63.0628 54.0864 63.1828C54.141 63.8099 54.1829 64.437 54.2249 65.0641L53.033 65.3134C53.033 65.0291 53.033 64.7447 53.033 64.4604C53.033 64.176 53.1463 63.8099 53.1379 63.4866C53.1379 62.9413 53.054 62.3998 53.0414 61.8545C53.0414 61.5897 53.1589 61.3248 53.1505 61.0755C53.1505 60.5302 52.9071 59.9381 53.0708 59.4551C53.3058 58.7657 52.9785 58.2048 52.8945 57.5932L53.6961 57.4141Z" fill="#498DC7"/>
<path d="M52.9089 57.5781C52.9928 58.1897 53.3286 58.7467 53.0852 59.44C52.9215 59.923 53.1481 60.5151 53.1649 61.0604C53.1649 61.3214 53.0516 61.5862 53.0558 61.8394C53.0558 62.3847 53.1481 62.9262 53.1523 63.4715C53.1523 63.7948 53.0684 64.1181 53.0474 64.4453C53.0264 64.7725 53.0474 65.0139 53.0474 65.2983C52.8711 65.2983 52.5774 65.3879 52.5354 65.3217C52.4546 65.1446 52.4187 64.9527 52.4305 64.7608C52.4305 64.4803 52.4305 64.2038 52.4305 63.9233C52.4599 63.3235 52.4976 62.7236 52.5312 62.1238C52.5312 61.9718 52.5312 61.8199 52.5312 61.6641C52.5312 60.9903 52.5312 60.3203 52.5312 59.6464C52.5312 59.6075 52.59 59.5646 52.5816 59.5335C52.4347 58.9375 52.2836 58.3416 52.1367 57.7456L52.2165 57.6638L52.9089 57.5781Z" fill="#3E81C0"/>
<path d="M26.2604 56.8317C26.2604 57.2601 26.2604 57.6886 26.2604 58.1132C26.2604 58.2534 26.3444 58.5027 26.4451 58.5027C27.0033 58.6741 26.7263 58.8922 26.5668 59.1843C26.3998 59.4976 26.2974 59.8371 26.2646 60.1854C26.2353 60.5087 26.0674 60.9644 26.6843 61.0696C26.6843 61.0696 26.7179 61.4591 26.6088 61.572C26.0296 62.0667 26.3444 62.6822 26.2814 63.2431C27.2383 63.7105 26.3947 64.1428 26.2521 64.5869L26.0044 64.5479C25.937 64.4024 25.885 64.251 25.8492 64.0961C25.7568 63.4612 25.4966 62.8224 25.9415 62.1953C26.017 62.0901 25.9415 61.872 25.9079 61.7201C25.6729 60.9839 25.4883 60.2555 25.9625 59.6712C25.8785 59.1142 25.8114 58.6507 25.7359 58.1833C25.7065 58.0119 25.6477 57.8444 25.6016 57.673V57.5484C25.6878 57.52 25.7669 57.4756 25.834 57.4178C25.9011 57.3601 25.9547 57.2902 25.9917 57.2125C26.0286 57.1348 26.0481 57.0509 26.0488 56.966C26.0496 56.8811 26.0316 56.7969 25.9961 56.7187L26.1261 56.6992L26.2604 56.8317Z" fill="#74ABD7"/>
<path d="M28.125 65.1721L30.9578 62.4961C31.3774 63.3647 31.218 64.0814 30.6682 64.6189C30.3744 64.9111 30.1184 65.2383 29.8289 65.5499L28.125 65.1721Z" fill="#8ABFE5"/>
<path d="M58.5977 55.819L59.2733 55.3594C59.3153 56.7538 59.3908 58.1522 59.395 59.5467C59.395 60.6373 59.3447 61.7279 59.2565 62.8108C59.2565 63.0016 58.925 63.1691 58.7445 63.3444H58.6102V63.2237C58.7403 63.0718 58.9754 62.9198 58.9796 62.764C58.9796 61.9266 58.7991 61.1125 58.9292 60.24C59.0887 59.1805 58.9292 58.0743 58.862 56.9875C58.8123 56.7974 58.727 56.6168 58.6102 56.4539L58.5977 55.819Z" fill="#3E81C0"/>
<path d="M25.594 57.6875C25.6402 57.8589 25.6989 58.0264 25.7283 58.1978C25.8039 58.6652 25.871 59.1287 25.9549 59.6857C25.5017 60.27 25.6654 60.9984 25.9004 61.7345C25.9466 61.8865 26.0095 62.1241 25.934 62.2098C25.4891 62.8369 25.7493 63.4757 25.8416 64.1106C25.8774 64.2655 25.9294 64.4169 25.9969 64.5624L25.082 64.2002C25.1282 63.7522 25.1702 63.3004 25.2121 62.8525C25.2961 62.6616 25.4639 62.4629 25.4513 62.2838C25.4052 61.6917 25.2961 61.1152 25.2121 60.5115V60.3907C25.2961 60.1999 25.4639 60.0012 25.4513 59.822C25.4052 59.23 25.2961 58.6535 25.2121 58.0536V57.929L25.594 57.6875Z" fill="#6CA3D3"/>
<path d="M25.2024 60.3903V60.511C25.1143 60.6201 24.9464 60.737 24.9548 60.8343C25.0178 61.5082 25.1143 62.1782 25.2024 62.852C25.1605 63.3 25.1185 63.7518 25.0723 64.1997L24.5352 63.9621C24.5771 62.8559 24.6569 61.7497 24.6569 60.6435C24.6569 59.1711 24.5855 57.6987 24.5435 56.2264V56.1641L24.9338 56.3627L25.2066 57.9208V58.0454C25.1185 58.1506 24.9506 58.2674 24.959 58.3687C25.0178 59.0465 25.1143 59.7203 25.2024 60.3903Z" fill="#4C91C8"/>
<path d="M24.5418 56.2301C24.5838 57.7025 24.6509 59.1749 24.6551 60.6472C24.6551 61.7534 24.5754 62.8597 24.5334 63.9659C24.4033 63.7906 24.1599 63.6153 24.1557 63.4361C24.1305 61.1964 24.1557 58.9528 24.1557 56.7092C24.1774 56.5074 24.2195 56.3078 24.2816 56.1133L24.5418 56.2301Z" fill="#3E81C0"/>
<path d="M40.4498 58.7738L37.7891 58.6803L38.7249 57.5624L39.1194 57.5195L40.7142 57.539L41.3772 57.5896L40.4498 58.7738Z" fill="#F8FAFB"/>
<path d="M37.2563 58.6564L34.7383 58.4383L35.5399 57.3359L38.2971 57.4528C38.2971 57.4878 38.3223 57.5229 38.3349 57.558L37.2563 58.6564Z" fill="#F8FAFB"/>
<path d="M55.3008 64.6993C55.796 64.1773 56.2828 63.6398 56.799 63.1412C57.1767 62.7517 57.5922 62.4284 58.0958 61.9727L58.3476 63.4723V63.5891L55.3008 64.6993Z" fill="#4F96CF"/>
<path d="M51.3131 57.8748L49.0469 58.2643C49.177 58.0657 49.2903 57.8553 49.4372 57.6684C49.6554 57.3996 49.8988 57.1503 50.1296 56.8893L52.5133 56.4414C52.3848 56.6442 52.2447 56.8406 52.0937 57.0296C51.8503 57.2983 51.5775 57.5866 51.3131 57.8748Z" fill="#FBFCFD"/>
<path d="M18.0394 52.1512L19.3487 51.7617L19.504 52.3849C19.4424 52.5506 19.3988 52.7215 19.3739 52.8952C19.388 53.2631 19.2613 53.6238 19.0163 53.9133C18.7712 54.2027 18.4236 54.4023 18.0352 54.4766C18.0352 53.7093 18.0394 52.9303 18.0394 52.1512Z" fill="#3271B5"/>
<path d="M48.1335 58.3594L46.0352 58.5619C46.1569 58.3828 46.2702 58.1958 46.4045 58.0244C46.5849 57.7868 46.778 57.557 46.9668 57.3233L48.293 57.0779L49.3422 57C48.9281 57.4596 48.5252 57.9128 48.1335 58.3594Z" fill="#FBFCFD"/>
<path d="M45.2273 58.6369L43.1289 58.7538L44.1907 57.5035L46.289 57.3477C46.1589 57.5229 46.033 57.7021 45.8945 57.8657C45.6469 58.1267 45.4371 58.3838 45.2273 58.6369Z" fill="#FEFEFE"/>
<path d="M62.5852 52.5181L63.1601 52.2922L63.9155 52.0273C63.9155 52.7674 63.9155 53.5036 63.9155 54.2398L62.8663 54.8747L62.732 54.7734L63.2357 53.9165C62.5348 53.675 62.5558 53.0985 62.5852 52.5181Z" fill="#3271B5"/>
<path d="M40.4492 58.7739L41.3767 57.6054L43.496 57.5703L42.4343 58.7739H40.4492Z" fill="#FEFEFE"/>
<path d="M35.5445 57.3355L34.7387 58.4378L33.1523 58.2859L33.8196 57.1914L35.5445 57.3355Z" fill="#FBFCFD"/>
<path d="M24.1306 55.9839L22.8086 55.3529C23.0814 55.053 23.35 54.7491 23.6186 54.4492L23.8746 54.4843L24.9321 55.0101L24.1306 55.9839Z" fill="#FBFCFD"/>
<path d="M22.4058 55.1242L21.2266 54.3451L22.0281 53.457L23.2158 54.2127L22.4058 55.1242Z" fill="#FBFCFD"/>
<path d="M20.8081 54.0029C20.4934 53.6134 20.1744 53.2628 19.8555 52.8967L20.934 52.2734L21.0767 52.3981L21.6307 53.1148L20.8081 54.0029Z" fill="#FBFCFD"/>
<path d="M20.934 52.2759L19.8555 52.8991L19.5029 52.3967L19.3477 51.7734H19.3938H20.6906L20.7536 51.8903L20.934 52.2759Z" fill="#F3F3F3"/>
<path d="M51.3125 57.8742C51.5769 57.5859 51.8497 57.3055 52.1015 57.0094C52.2525 56.8204 52.3926 56.6241 52.5211 56.4213L53.4486 56.2109C53.2891 56.4174 53.1339 56.6316 52.966 56.8342C52.731 57.1185 52.4876 57.3951 52.2526 57.6755L52.1728 57.7573L51.3125 57.8742Z" fill="#F0F1F1"/>
<path d="M48.1328 58.359C48.5273 57.9046 48.9232 57.4515 49.3205 56.9996L50.1304 56.8711C49.8996 57.1321 49.6562 57.3814 49.438 57.6501C49.2911 57.8371 49.1778 58.0396 49.0477 58.2461L48.1328 58.359Z" fill="#F0F1F1"/>
<path d="M45.2305 58.6369C45.4529 58.3837 45.6795 58.1266 45.8977 57.8578C46.0362 57.6942 46.1621 57.5151 46.2922 57.3398L46.9595 57.3164C46.7707 57.5501 46.5776 57.7799 46.3972 58.0175C46.2629 58.1889 46.1495 58.3759 46.0278 58.5551L45.2305 58.6369Z" fill="#F0F1F1"/>
<path d="M42.4297 58.7619L43.4915 57.5583L43.7558 57.4531L44.1755 57.5038L43.1138 58.7541L42.4297 58.7619Z" fill="#F0F1F1"/>
<path d="M33.8189 57.1911L33.1517 58.2856C33.1116 58.3011 33.069 58.3103 33.0257 58.3129L32.4844 58.1921L33.2817 57.082L33.8189 57.1911Z" fill="#F0F1F1"/>
<path d="M37.2539 58.6531L38.3283 57.5547H38.7144L37.7785 58.6726L37.2539 58.6531Z" fill="#F4F4F4"/>
<path d="M24.1328 55.9816L24.9344 55.0039L25.3541 55.2142L24.5567 56.1647V56.227L24.2839 56.1101L24.1328 55.9816Z" fill="#F0F1F1"/>
<path d="M22.4062 55.1263C22.679 54.8264 22.9476 54.5226 23.2162 54.2227L23.6359 54.4486L22.8091 55.3522L22.4062 55.1263Z" fill="#F3F3F3"/>
<path d="M20.8086 54.0053L21.6479 53.1172L22.0466 53.4678L21.245 54.3558L20.8086 54.0053Z" fill="#F0F1F1"/>
<path d="M58.3438 63.5852V63.4684L58.6123 63.3438H58.7466L58.3438 63.5852Z" fill="#498DC7"/>
<path d="M22.1445 49.5586C23.2369 50.0449 24.3578 50.474 25.5019 50.844C27.6254 51.4283 29.7699 51.9814 31.9396 52.3709C35.9541 53.037 40.0419 53.2397 44.11 52.9746C49.4189 52.7059 54.648 51.9619 59.47 49.6716C59.5905 49.6235 59.7155 49.5856 59.8435 49.5586C59.9275 50.2793 59.7112 51.0026 59.2391 51.5802C58.8741 52.0428 58.4271 52.4445 57.9172 52.7682C56.8638 53.3875 55.7433 53.9095 54.6522 54.4743C53.0826 54.8638 51.5214 55.2922 49.9393 55.6428C48.7432 55.896 47.5178 56.0323 46.3049 56.2193L41.5291 56.4725L36.493 56.2699C35.234 56.1063 33.975 56.0206 32.716 55.7597C30.7981 55.3701 28.9096 54.8248 27.0085 54.3496L23.9323 52.7604L22.6733 51.5451L22.1445 50.1896V49.5586Z" fill="#0C4B7E"/>
<path d="M58.6084 48.5798L55.3014 49.9353L55.3391 49.7561C55.3727 49.5964 55.4021 49.4406 55.4315 49.2809C55.2647 49.3341 55.102 49.3979 54.9447 49.4718C54.7558 49.5769 54.5879 49.7133 54.3781 49.8613C54.0591 48.8135 54.1767 48.3383 54.8775 47.6917C55.057 47.5401 55.2252 47.3774 55.3811 47.2048C55.4483 47.1191 55.4273 46.9672 55.4483 46.8464C55.3143 46.848 55.1819 46.8731 55.058 46.9204C54.8271 47.0568 54.6383 47.236 54.3403 47.4385C54.0843 46.0986 54.1431 45.9116 54.9992 45.1014C55.1345 44.9974 55.2569 44.8798 55.3643 44.7509C55.4204 44.6365 55.4545 44.5139 55.465 44.3886C55.3213 44.3975 55.1799 44.4264 55.0454 44.4743C54.7991 44.6295 54.5624 44.7973 54.3361 44.9768C54.1976 44.0303 54.0885 43.2551 54.9447 42.6903C55.1167 42.5774 55.1923 42.3281 55.3098 42.145L56.1113 41.8178L58.4741 40.9414C58.3775 41.1362 58.2894 41.3309 58.1845 41.5257C58.0796 41.7204 57.9831 41.8529 57.8823 42.0204L58.4867 42.1956C58.4382 42.4952 58.4382 42.7998 58.4867 43.0993C58.553 43.249 58.5621 43.4153 58.5124 43.5705C58.4628 43.7257 58.3574 43.8604 58.2139 43.9524C58.0698 44.099 57.9431 44.2596 57.8362 44.4315L58.4279 44.6613C58.4951 45.4754 58.7217 46.3245 57.6305 46.9594L58.3985 47.0724L58.6084 48.5798Z" fill="#4F96CF"/>
<path d="M31.8268 51.0679L29.8376 50.7485C30.06 50.4501 30.3145 50.1734 30.5972 49.9228C31.403 49.3463 31.1512 48.6101 31.0169 47.8311C30.0852 48.6101 29.036 49.2879 28.3897 50.3162C28.3897 50.3473 28.3897 50.398 28.3897 50.4408L27.7309 50.2616C27.8564 50.0769 27.9967 49.9011 28.1505 49.7358C29.0486 48.8905 29.9551 48.057 30.8532 47.2156C31.0796 46.9516 31.2029 46.6241 31.2029 46.2866C31.2029 45.9492 31.0796 45.6217 30.8532 45.3577C29.8922 46.2535 28.9731 47.1884 27.9659 48.0375C27.2944 48.6023 26.9125 49.2061 27.0762 50.0513L26.2788 49.8176C26.3869 49.6696 26.481 49.5132 26.56 49.3502C26.6103 49.2099 26.6691 48.9957 26.5935 48.9061C26.0228 48.244 26.1739 47.5857 26.5432 46.9079C26.6061 46.7911 26.6859 46.5574 26.6397 46.5184C26.0522 46.1289 26.241 45.5407 26.3124 45.0694C26.3963 44.5085 26.6565 44.0216 26.3124 43.4101C26.1067 43.0206 26.2872 42.4869 26.3124 42.0156H26.5642L28.1379 42.4363L28.2806 42.5415C27.991 42.9037 27.7267 43.2893 27.4077 43.6321C27.1906 43.8917 27.0727 44.211 27.0727 44.5397C27.0727 44.8683 27.1906 45.1876 27.4077 45.4472L30.1188 43.0284L30.4881 43.0595C30.363 43.2483 30.2227 43.4279 30.0684 43.5971C29.2962 44.3293 28.5534 45.0928 27.7225 45.755C26.8915 46.4171 27.1727 47.0715 27.2063 47.9752C27.521 47.7415 27.7141 47.6285 27.8735 47.4805C28.7129 46.7015 29.5145 45.9225 30.358 45.1902C30.849 44.7539 31.3064 44.3332 31.1512 43.6321C31.126 43.523 31.2603 43.3867 31.3232 43.266L31.8017 43.3166C31.593 43.6274 31.4505 43.9726 31.382 44.3332C31.382 44.6799 31.8017 45.0266 31.8017 45.3732C31.7465 45.948 31.6326 46.5167 31.4617 47.0715C32.1919 47.761 31.9779 48.5906 31.2603 49.4359C32.0786 49.8098 31.7975 50.4837 31.8268 51.0679Z" fill="#83B7DE"/>
<path d="M50.6257 43.207C50.5688 43.4514 50.4635 43.6839 50.3152 43.8926C47.6181 46.4244 44.9056 48.9459 42.1778 51.4569C41.5819 52.0062 40.8474 51.9244 40.0039 51.6906C40.2053 51.4803 40.3522 51.3011 40.5117 51.1648C43.0297 48.8277 45.5477 46.4815 48.0658 44.1263C48.2332 43.9438 48.3835 43.7484 48.5148 43.542L49.0436 43.4057L50.6257 43.207Z" fill="#3472B7"/>
<path d="M47.7469 43.6445C47.6575 43.8241 47.5447 43.9929 47.4111 44.147C44.7924 46.5854 42.1695 49.0224 39.5423 51.4582C39.2607 51.6743 38.9108 51.7992 38.5457 51.814C38.1806 51.8288 37.8203 51.7326 37.5195 51.54C37.6832 51.3725 37.8301 51.2089 37.9938 51.057C40.3481 48.8562 42.7108 46.6749 45.0526 44.4781C45.2188 44.2783 45.3596 44.0613 45.4723 43.8315L46.0053 43.7575L47.7469 43.6445Z" fill="#3472B7"/>
<path d="M44.8071 43.8945C44.7131 44.0727 44.5992 44.2411 44.4671 44.397C41.9911 46.7029 39.5136 49.0037 37.0348 51.2992C36.4892 51.8017 35.7758 51.8056 35.1211 51.2992C35.2764 51.1356 35.4233 50.972 35.5911 50.8201C37.8182 48.7505 40.0326 46.6873 42.2345 44.6307C42.4155 44.4332 42.5744 44.2192 42.7087 43.9919L43.2375 43.9062L44.8071 43.8945Z" fill="#3472B7"/>
<path d="M42.875 51.7413L50.5759 44.5938C50.7153 44.9214 50.7498 45.2795 50.6754 45.6249C50.601 45.9704 50.4207 46.2886 50.1563 46.5413C48.5028 48.076 46.7989 49.5639 45.221 51.161C44.453 51.9127 43.6556 51.7959 42.875 51.7413Z" fill="#3472B7"/>
<path d="M54.6289 54.4739C55.72 53.9091 56.8406 53.3872 57.8939 52.7678C58.4039 52.4442 58.8509 52.0424 59.2159 51.5798C59.688 51.0023 59.9042 50.279 59.8202 49.5582C59.9042 49.5154 59.9923 49.4765 60.0804 49.4375L60.5966 49.827L60.84 50.0802L61.3059 51.3189V51.5526L61.2471 51.907C60.584 53.1457 59.4131 53.8546 58.1667 54.509C57.9569 54.6141 57.7471 54.731 57.5414 54.844L56.6433 55.1283L54.6289 54.4739Z" fill="#3C79BB"/>
<path d="M42.0364 44.0076C41.9289 44.2019 41.801 44.3859 41.6545 44.5569C39.724 46.359 37.7879 48.156 35.8463 49.9477C35.6343 50.1172 35.4115 50.2746 35.179 50.419C35.179 49.5232 34.9566 48.8376 35.712 48.1988C37.0675 47.0575 38.3265 45.815 39.6107 44.6036C39.7707 44.4205 39.9112 44.2236 40.0304 44.0154L40.45 43.9492L42.0364 44.0076Z" fill="#3472B7"/>
<path d="M55.2991 42.1484C55.1816 42.3315 55.106 42.5808 54.934 42.6938C54.0946 43.2586 54.187 44.0337 54.3254 44.9802C54.5517 44.8007 54.7885 44.6329 55.0347 44.4777C55.1692 44.4298 55.3106 44.401 55.4544 44.392C55.4438 44.5173 55.4097 44.6399 55.3536 44.7543C55.2462 44.8833 55.1238 45.0008 54.9885 45.1049C54.1492 45.8839 54.0736 46.0903 54.3296 47.4419C54.6108 47.2394 54.8165 47.0524 55.0473 46.9239C55.1712 46.8766 55.3036 46.8515 55.4376 46.8499C55.4376 46.9706 55.4376 47.1225 55.3704 47.2082C55.2145 47.3808 55.0463 47.5435 54.8668 47.6951C54.166 48.3417 54.0275 48.8169 54.3674 49.8647C54.5772 49.7245 54.7451 49.5882 54.934 49.4752C55.0913 49.4013 55.254 49.3375 55.4208 49.2843C55.3914 49.444 55.362 49.5998 55.3285 49.7595L55.2907 49.9387L53.3014 50.4334C53.1336 49.9387 53.0119 49.4518 53.4315 48.9961C53.4748 48.9405 53.5024 48.8757 53.5119 48.8077C53.5215 48.7397 53.5126 48.6706 53.4861 48.6066C53.2427 48.2944 53.1117 47.9188 53.1117 47.5335C53.1117 47.1481 53.2427 46.7726 53.4861 46.4604C53.5098 46.4162 53.5221 46.3675 53.5221 46.3182C53.5221 46.2689 53.5098 46.2202 53.4861 46.176C53.2345 45.8574 53.0988 45.4726 53.0988 45.0776C53.0988 44.6825 53.2345 44.2978 53.4861 43.9792C53.5085 43.9443 53.5224 43.9053 53.5268 43.8649C53.5311 43.8245 53.5258 43.7837 53.5113 43.7454C53.335 43.4105 53.142 43.0833 52.9531 42.7522L55.0053 42.1562L55.2991 42.1484Z" fill="#498DC7"/>
<path d="M58.4736 40.938L56.0898 41.8144C56.4046 41.46 56.7235 41.1055 57.0299 40.7471C57.2523 40.4823 57.4496 40.2057 57.672 39.937C58.4163 39.5508 59.1301 39.116 59.8081 38.636C60.342 38.1343 60.8265 37.5894 61.256 37.0078H62.557L62.4311 37.6155C61.7092 38.9593 60.4628 39.8123 59.145 40.5913L58.4736 40.938Z" fill="#F8FAFB"/>
<path d="M50.6236 46.8555C50.8418 47.7085 50.9173 48.4369 50.1074 49.0523C49.3309 49.66 48.6095 50.3257 47.9503 51.0427C47.2956 51.7322 46.4646 51.5141 45.6211 51.5452C47.1772 49.8829 48.8482 48.3163 50.6236 46.8555Z" fill="#3472B7"/>
<path d="M27.0573 50.0491C26.8936 49.2039 27.2755 48.6001 27.947 48.0353C28.9542 47.1862 29.8733 46.2514 30.8343 45.3555C31.0607 45.6195 31.184 45.947 31.184 46.2845C31.184 46.6219 31.0607 46.9494 30.8343 47.2135C29.9362 48.0548 29.0297 48.8884 28.1316 49.7336C27.9778 49.8989 27.8375 50.0747 27.712 50.2595L27.0573 50.0491Z" fill="#8ABFE5"/>
<path d="M58.471 40.9404L59.1425 40.5977C59.1872 41.439 59.232 42.2817 59.2768 43.1256C59.3061 43.6904 59.3565 44.2591 59.3565 44.8278C59.3565 45.3965 59.2852 45.8756 59.2768 46.3858C59.2684 46.8961 59.3019 47.3908 59.3019 47.8894C59.3078 47.9768 59.294 48.0644 59.2614 48.1465C59.2288 48.2287 59.1781 48.3037 59.1126 48.3667C59.047 48.4298 58.9681 48.4794 58.8808 48.5126C58.7934 48.5457 58.6996 48.5617 58.6053 48.5593C58.5465 48.0763 58.4836 47.5933 58.4164 47.0558L57.6484 46.9428C58.7396 46.3079 58.513 45.4588 58.4458 44.6447L57.8541 44.4461C57.961 44.2742 58.0877 44.1136 58.2318 43.967C58.3753 43.875 58.4807 43.7403 58.5303 43.5851C58.58 43.4299 58.5709 43.2636 58.5046 43.1139C58.4561 42.8144 58.4561 42.5098 58.5046 42.2102L57.9002 42.035C58.001 41.8675 58.1101 41.7078 58.2024 41.5403C58.2947 41.3728 58.3745 41.1391 58.471 40.9404Z" fill="#498DC7"/>
<path d="M39.3863 43.9646C39.344 44.1178 39.273 44.2628 39.1765 44.3931C38.0014 45.4993 36.8165 46.599 35.6219 47.6923C35.5313 47.751 35.4342 47.8007 35.3323 47.8403C35.261 46.9639 35.0763 46.1771 35.945 45.5266C36.5176 45.029 37.048 44.4912 37.5314 43.9179L37.951 43.8867L39.3863 43.9646Z" fill="#3472B7"/>
<path d="M26.2792 42.0231C26.2792 42.4944 26.0945 43.0475 26.2792 43.4176C26.6149 44.0291 26.3547 44.516 26.2792 45.0769C26.2078 45.5482 26.019 46.1325 26.6065 46.5259C26.6527 46.5571 26.5729 46.7908 26.51 46.9154C26.1533 47.5932 25.9896 48.2514 26.5603 48.9136C26.6359 49.0032 26.5603 49.2174 26.5268 49.3577C26.4478 49.5207 26.3537 49.6771 26.2456 49.8251L25.7252 49.6732C25.5867 48.9409 25.3475 48.2086 25.8595 47.5036C25.9266 47.4062 25.8595 47.2075 25.8175 47.0634C25.704 46.7883 25.632 46.4999 25.6035 46.2065C25.6497 45.743 25.914 45.2911 25.9099 44.8354C25.9057 44.3797 25.6203 43.8733 25.6077 43.3903C25.6407 42.8901 25.7279 42.3942 25.8679 41.9102H26.1113L26.2792 42.0231Z" fill="#74ABD7"/>
<path d="M52.976 42.7539C53.1649 43.085 53.3579 43.4122 53.5342 43.7472C53.5487 43.7854 53.554 43.8262 53.5496 43.8666C53.5453 43.907 53.5314 43.946 53.509 43.9809C53.2573 44.2995 53.1217 44.6843 53.1217 45.0793C53.1217 45.4743 53.2573 45.8591 53.509 46.1777C53.5326 46.2219 53.545 46.2706 53.545 46.3199C53.545 46.3692 53.5326 46.4179 53.509 46.4621C53.2656 46.7743 53.1346 47.1498 53.1346 47.5352C53.1346 47.9205 53.2656 48.2961 53.509 48.6083C53.5355 48.6723 53.5443 48.7415 53.5348 48.8095C53.5253 48.8775 53.4977 48.9422 53.4544 48.9978C53.0348 49.4535 53.1565 49.9404 53.3243 50.4351L52.6612 50.6766C52.6235 50.2871 52.3717 49.8976 52.8333 49.547C52.8921 49.5042 52.7997 49.251 52.741 49.1108C52.4514 48.4408 52.3465 47.7903 52.7997 47.1398C52.8627 47.0502 52.7997 46.8789 52.7997 46.7503C52.6872 46.2356 52.606 45.7154 52.5563 45.1923C52.5563 44.9624 52.9005 44.7093 52.8627 44.4989C52.7327 43.9586 52.5659 43.4265 52.3633 42.9058C52.3764 42.8753 52.3876 42.8441 52.3969 42.8123L52.976 42.7539Z" fill="#3E81C0"/>
<path d="M22.0853 41.2031C22.1945 42.2353 22.312 43.0338 21.4307 43.6804C20.8293 44.1818 20.2682 44.7234 19.752 45.3008C19.3113 44.9113 19.2106 43.8986 19.5505 43.5714C20.3311 42.804 21.1453 42.0717 22.0853 41.2031Z" fill="#3472B7"/>
<path d="M25.8794 41.9015C25.7394 42.3855 25.6522 42.8814 25.6192 43.3816C25.6192 43.8646 25.9214 44.3437 25.9214 44.8267C25.9214 45.3097 25.6612 45.7343 25.615 46.1978C25.6435 46.4912 25.7156 46.7796 25.829 47.0547C25.8626 47.1989 25.9382 47.3975 25.871 47.4949C25.359 48.1999 25.5982 48.9322 25.7367 49.6645L25.082 49.4308C25.082 46.834 25.082 44.2217 25.082 41.5938L25.8794 41.9015Z" fill="#5F99CD"/>
<path d="M22.2904 40.3219C21.3335 41.1476 20.3767 41.9695 19.4114 42.807C19.3904 42.0825 19.1093 41.2957 19.978 40.6685C20.3885 40.3133 20.761 39.922 21.0901 39.5L21.3503 39.6207L22.2652 40.2245C22.2772 40.256 22.2857 40.2887 22.2904 40.3219Z" fill="#3472B7"/>
<path d="M25.0841 41.5932C25.0841 44.2056 25.0841 46.8179 25.0841 49.4303L24.5469 49.1965C24.5888 48.0903 24.6686 46.988 24.6686 45.8857C24.6686 44.3938 24.6014 42.902 24.5637 41.4102L24.8155 41.4374L25.0841 41.5932Z" fill="#4C91C8"/>
<path d="M28.3789 50.4418C28.3789 50.3989 28.3789 50.3483 28.3789 50.3171C29.0252 49.2888 30.0576 48.6305 31.006 47.832C31.1445 48.6111 31.3963 49.3472 30.5864 49.9237C30.3037 50.1744 30.0492 50.4511 29.8268 50.7495L28.3789 50.4418Z" fill="#8ABFE5"/>
<path d="M22.0067 43.7188C22.4683 44.564 22.3676 45.2418 21.7884 45.7793L21.1799 46.3441C20.6469 46.8349 20.1349 46.7336 19.8747 46.0519C19.8504 45.9878 19.8423 45.9193 19.8511 45.8517C19.8598 45.7842 19.8851 45.7194 19.9251 45.6624C20.5924 45.0314 21.2764 44.4043 22.0067 43.7188Z" fill="#3472B7"/>
<path d="M31.8286 51.0677C31.7782 50.4834 32.0804 49.8096 31.2578 49.424C31.9754 48.5787 32.1895 47.749 31.4593 47.0596C31.6302 46.5048 31.744 45.9361 31.7992 45.3613C31.7992 45.0147 31.3795 44.668 31.3795 44.3213C31.4481 43.9606 31.5905 43.6155 31.7992 43.3047L32.1937 43.4215C32.1542 43.6314 32.1304 43.8435 32.1223 44.0564C32.1013 44.7186 32.1223 45.3769 32.1223 46.0352C32.1223 46.2027 32.1433 46.3741 32.1433 46.5415L32.1055 48.5164C32.1055 48.6488 32.1055 48.7774 32.1055 48.9059C32.1055 49.6499 32.1055 50.3899 32.1055 51.1339L31.8286 51.0677Z" fill="#74ABD7"/>
<path d="M52.3627 42.9062C52.5628 43.4297 52.7268 43.9644 52.8537 44.5072C52.8915 44.7175 52.5348 44.9707 52.5473 45.2005C52.597 45.7237 52.6782 46.2438 52.7908 46.7585C52.8117 46.8871 52.8579 47.0585 52.7908 47.1481C52.3375 47.7985 52.4424 48.449 52.732 49.119C52.7908 49.2592 52.8831 49.5085 52.8243 49.5553C52.3627 49.8941 52.6145 50.2992 52.6523 50.6848C52.2326 50.6848 52.0102 50.5797 52.2326 50.1278C52.3165 49.9565 52.2326 49.715 52.2326 49.5046C52.2326 48.8736 52.2704 48.2426 52.2788 47.6077C52.2788 47.4168 52.2242 47.2182 52.2284 47.0273C52.2284 46.3963 52.2704 45.7653 52.2913 45.1304C52.3094 45.0339 52.3193 44.9362 52.3207 44.8382C52.2536 44.3591 52.1864 43.88 52.0899 43.4048C52.0357 43.2653 51.9593 43.134 51.8633 43.0153L52.3627 42.9062Z" fill="#3472B7"/>
<path d="M50.6237 43.2062L49.0625 43.4048C49.2094 43.2101 49.3479 43.0153 49.4822 42.8206C49.6878 42.5674 49.9018 42.3181 50.1075 42.0688L52.7808 41.5391C52.3359 42.0299 51.8953 42.5245 51.4546 43.0153L50.6237 43.2062Z" fill="#FBFCFD"/>
<path d="M24.5513 41.4098C24.5891 42.8861 24.6646 44.3935 24.6646 45.8854C24.6646 46.9877 24.5849 48.09 24.5429 49.1962L24.2785 48.9508C24.2366 48.2497 24.1904 47.5525 24.1484 46.8553V46.6099C24.1904 46.5203 24.2701 46.4307 24.2659 46.3411C24.2366 45.6906 24.1904 45.044 24.1484 44.3935V44.1481C24.1904 44.0585 24.2701 43.969 24.2659 43.8833C24.2366 43.2328 24.1904 42.5823 24.1484 41.9357V41.6903L24.2827 41.3008L24.5513 41.4098Z" fill="#3E81C0"/>
<path d="M35.4239 43.6993C34.8364 43.6604 34.2447 43.6253 33.6571 43.5824C33.4851 43.5824 33.3172 43.5357 33.1451 43.5123H33.0948C33.0748 43.48 33.0509 43.45 33.0234 43.4227L33.9551 42.3594L36.3388 42.6048L35.4239 43.6993Z" fill="#F8FAFB"/>
<path d="M33.0944 43.4961H33.1448C33.1448 45.9085 33.1448 48.3222 33.1448 50.7372C33.1448 50.9942 33.2203 51.3097 32.7461 51.263C32.7461 48.8987 32.7461 46.5304 32.7461 44.1661C32.8166 43.9247 32.9347 43.6975 33.0944 43.4961Z" fill="#498DC7"/>
<path d="M47.748 43.6442L46.0273 43.7572C46.1574 43.5819 46.2791 43.4027 46.4218 43.2314C46.6359 42.9704 46.8667 42.7133 47.0891 42.4523L49.4686 42.1719L48.2768 43.5118L47.748 43.6442Z" fill="#FBFCFD"/>
<path d="M42.0389 44.008L40.4609 43.9495L41.5143 42.7342L41.6402 42.6875H41.7703H43.491L42.4334 43.9184L42.0389 44.008Z" fill="#F8FAFB"/>
<path d="M44.8093 43.8945H43.2188C43.3405 43.7153 43.4538 43.5323 43.5839 43.3648C43.7643 43.1272 43.9616 42.9013 44.1504 42.6676L46.3998 42.5234L45.3381 43.766L44.8093 43.8945Z" fill="#FBFCFD"/>
<path d="M48.7148 51.3421L50.6831 49.3945H50.8342C50.7628 49.936 50.9013 50.7189 50.574 50.9526C50.1081 51.2837 49.2982 51.2369 48.7148 51.3421Z" fill="#3472B7"/>
<path d="M33.0926 43.4957C32.94 43.7036 32.8304 43.9361 32.7695 44.1812C32.7443 46.5456 32.7695 48.9138 32.7695 51.2782L32.375 51.1691V43.4061L32.5051 43.3594L33.0423 43.4061C33.0624 43.4343 33.0793 43.4643 33.0926 43.4957Z" fill="#5F99CD"/>
<path d="M39.3859 43.9652L37.9297 43.8873L38.8697 42.7188L40.8464 42.7811L39.7762 43.9496L39.3859 43.9652Z" fill="#FEFEFE"/>
<path d="M35.4227 43.6961L36.3376 42.5859L38.1884 42.6794L37.2525 43.848L36.8706 43.883L35.4102 43.774L35.4227 43.6961Z" fill="#FBFCFD"/>
<path d="M20.7088 39.1791L19.6261 40.4918L19.3281 40.3983C19.3995 39.4713 19.475 38.5481 19.5464 37.6211L19.9115 38.1236L20.7088 39.1791Z" fill="#3472B7"/>
<path d="M32.3542 43.4062V51.1693L32.0898 51.1498C32.0898 50.4058 32.0898 49.6657 32.0898 48.9218C32.0898 48.7893 32.0898 48.6608 32.0898 48.5323L32.1276 46.5574C32.1276 46.3899 32.1024 46.2185 32.1066 46.0511C32.1066 45.3928 32.1066 44.7345 32.1066 44.0723C32.1263 43.8534 32.1628 43.636 32.2157 43.4218L32.3542 43.4062Z" fill="#6CA3D3"/>
<path d="M24.0167 41.1872L22.8164 40.5834L23.7858 39.6992L25.1288 40.3069L24.1761 41.1794L24.0167 41.1872Z" fill="#FBFCFD"/>
<path d="M20.7129 39.1788L19.8945 38.1232L20.9605 37.5039L21.334 37.8934L21.7537 38.392L20.9143 39.2918L20.7129 39.1788Z" fill="#F8FAFB"/>
<path d="M22.2854 46.2106C22.2854 46.6508 22.2854 47.0948 22.2854 47.535C22.2854 47.9751 22.0335 47.9985 21.6852 47.8038C21.0138 47.4142 20.976 47.1533 21.5257 46.6352C21.7146 46.456 21.916 46.2847 22.1133 46.1094L22.2854 46.2106Z" fill="#3472B7"/>
<path d="M35.4102 43.7734L36.8706 43.8825L35.6368 45.2964L35.4102 45.1991V43.7734Z" fill="#3472B7"/>
<path d="M20.9595 37.506L19.8935 38.1254L19.5284 37.6229C19.4655 37.3775 19.4067 37.1321 19.3438 36.8828H19.3899H20.6825L20.7958 37.0152L20.9595 37.506Z" fill="#F3F3F3"/>
<path d="M51.4453 43.0147C51.886 42.524 52.3266 42.0293 52.7715 41.5385L53.573 41.3359L53.0736 41.9592C52.847 42.2435 52.612 42.5279 52.3812 42.8122C52.3719 42.8439 52.3607 42.8751 52.3476 42.9057L51.8734 42.9836L51.4453 43.0147Z" fill="#F0F1F1"/>
<path d="M60.5943 49.8132L60.0781 49.4237L61.2574 48.6875L61.9457 49.5366L60.5943 49.8132Z" fill="#67A8DA"/>
<path d="M20 49.5523C20.2308 49.2679 20.4616 48.9836 20.6967 48.7031L21.8843 49.4393L21.494 49.6886L20 49.5523Z" fill="#67A8DA"/>
<path d="M48.2656 43.5155C48.6853 43.0675 49.063 42.6235 49.4575 42.1755C49.4616 42.1458 49.4616 42.1157 49.4575 42.0859H50.1122C49.9065 42.3352 49.6925 42.5845 49.4869 42.8377C49.3358 43.0286 49.1973 43.2272 49.0672 43.422L48.5384 43.5583L48.2656 43.5155Z" fill="#F0F1F1"/>
<path d="M44.1621 42.6796C43.9732 42.9133 43.776 43.1392 43.5955 43.3768C43.4654 43.5443 43.3521 43.7274 43.2304 43.9066L42.71 43.9922L42.4414 43.9182L43.499 42.6874L43.9186 42.6445L44.1621 42.6796Z" fill="#D5E6F4"/>
<path d="M45.3477 43.7813L46.4094 42.5388L46.6738 42.4336L47.0935 42.457C46.8711 42.714 46.6402 42.9711 46.4262 43.236C46.2835 43.4074 46.1618 43.5866 46.0317 43.7618L45.4987 43.8358L45.3477 43.7813Z" fill="#F0F1F1"/>
<path d="M39.7695 43.9263L40.8397 42.7577L41.507 42.7227L40.4536 43.9379L40.0339 44.0042L39.7695 43.9263Z" fill="#D5E6F4"/>
<path d="M37.2539 43.8443L38.1898 42.6758L38.8696 42.703L37.9296 43.8716L37.5099 43.9028L37.2539 43.8443Z" fill="#D5E6F4"/>
<path d="M23.7809 39.6983L22.8115 40.5825L22.2869 40.3215C22.2825 40.287 22.2741 40.2531 22.2617 40.2203L23.206 39.3828L23.7809 39.6983Z" fill="#F0F1F1"/>
<path d="M20.9336 39.2787L21.7729 38.3789L22.1926 38.7256L21.3491 39.6137L21.0889 39.4929L20.9336 39.2787Z" fill="#F0F1F1"/>
<path d="M24.1383 41.9336C24.1802 42.5841 24.2264 43.2346 24.2558 43.8812C24.2558 43.9669 24.1802 44.0564 24.1383 44.146C24.0543 43.4839 23.9578 42.8217 23.8948 42.1556C23.8864 42.1089 24.0501 42.0076 24.1383 41.9336Z" fill="#3C79BB"/>
<path d="M24.1383 44.3945C24.1802 45.045 24.2264 45.6916 24.2558 46.3421C24.2558 46.4317 24.1802 46.5213 24.1383 46.6109C24.0543 45.9487 23.9578 45.2826 23.8948 44.6204C23.8864 44.5503 24.0501 44.4685 24.1383 44.3945Z" fill="#3C79BB"/>
<path d="M24.1396 46.8555C24.1816 47.5527 24.2278 48.2499 24.2697 48.9511C24.1648 48.8342 23.9801 48.729 23.9718 48.6083C23.9256 48.0201 23.5899 47.3969 24.1396 46.8555Z" fill="#3C79BB"/>
<path d="M21.4915 49.6868L21.8818 49.4375L22.1378 49.5582C22.1378 49.7686 22.1378 49.9789 22.1378 50.1893L21.2188 50.0568L21.4915 49.6868Z" fill="#3C79BB"/>
<path d="M24.0156 41.1836H24.1751L24.2758 41.3043L24.1415 41.6939L24.0156 41.1836Z" fill="#3C79BB"/>
<path d="M20.0156 19.905C20.6505 19.2387 21.3424 18.6213 22.0846 18.0587C24.12 16.7421 26.4576 16.041 28.8413 15.4957C31.5484 14.8453 34.3229 14.4666 37.1172 14.3661C39.4086 14.3115 41.7084 14.1674 43.9914 14.2804C49.0274 14.5375 53.9837 15.2152 58.5749 17.3264C59.901 17.9379 61.1391 18.6858 61.9322 19.9011L60.5851 20.1543C59.4058 19.1338 58.021 18.3396 56.5101 17.8172C52.4687 16.2981 48.2132 15.6943 43.92 15.5112C39.5221 15.2573 35.1072 15.5401 30.7885 16.3526C27.4312 17.0342 24.1494 17.86 21.4887 20.0374L20.0156 19.905Z" fill="#67A8DA"/>
<path d="M62.1993 20.2969C62.3336 20.6864 62.4721 21.0408 62.619 21.4148H62.363L61.3054 21.8043L60.8438 20.4449L62.1993 20.2969Z" fill="#8ABFE5"/>
<path d="M19.3906 21.3956C19.4746 21.1074 19.5585 20.8152 19.6382 20.527L21.0945 20.4062C21.0022 20.6906 20.9098 20.9749 20.8217 21.2632H20.6874L19.3906 21.3956Z" fill="#8ABFE5"/>
<path d="M21.0936 20.4048L19.6289 20.5256L20.0066 19.9023L21.4797 20.0309L21.1985 20.397L21.0936 20.4048Z" fill="#83B7DE"/>
<path d="M19.3906 21.3942L20.6874 21.2656C20.6874 21.4721 20.6874 21.6785 20.658 21.885H19.399L19.3906 21.3942Z" fill="#D5E6F4"/>
<path d="M62.2005 20.2958L60.8366 20.4282L60.6016 20.1712L61.9487 19.918L62.2005 20.2958Z" fill="#83B7DE"/>
<path d="M61.2986 21.7684L62.3562 21.3789L62.6206 21.7334L62.5618 22.1229H61.2734L61.2986 21.7684Z" fill="#D5E6F4"/>
<path d="M62.5469 22.4639L62.6056 22.1172L62.9288 22.2457L62.5469 22.4639Z" fill="#3271B5"/>
<path d="M62.6199 21.7451L62.3555 21.3906H62.6115C62.6157 21.5114 62.6157 21.6282 62.6199 21.7451Z" fill="#3271B5"/>
<path d="M22.6875 16.2224L22.8512 16.1211L22.6875 16.2224Z" fill="#FEFEFE"/>
<path d="M62.5588 37.0162H61.2578L61.283 36.1632L62.5084 35.8594L62.5588 37.0162Z" fill="#D5E6F4"/>
<path d="M62.5084 35.8773L61.2829 36.1811L60.9766 35.4566L62.3153 35.3125L62.5084 35.8773Z" fill="#8ABFE5"/>
<path d="M62.3111 35.2912L60.9723 35.4353L60.582 34.9251L61.925 34.6758L62.3111 35.2912Z" fill="#83B7DE"/>
<path d="M61.3057 51.3047L60.8398 50.066L62.1954 49.9297L62.5731 50.9229L61.3057 51.3047Z" fill="#8ABFE5"/>
<path d="M61.3086 51.3036L62.5676 50.9141V51.5256H61.3086V51.3036Z" fill="#D5E6F4"/>
<path d="M62.1966 49.9286L60.8411 50.0649L60.5977 49.8118L61.949 49.5508L62.1966 49.9286Z" fill="#83B7DE"/>
<path d="M61.3015 51.5391H62.5605V51.7767L62.4178 51.9052H61.2344L61.3015 51.5391Z" fill="#F0F1F1"/>
<path d="M62.4336 51.902L62.5763 51.7734L62.4923 52.0266L62.4336 51.902Z" fill="#3271B5"/>
<path d="M20.6913 51.7819H19.3945V50.8043L20.7207 50.6562L20.6829 51.2795V51.5288L20.6913 51.7819Z" fill="#D5E6F4"/>
<path d="M20.7324 50.6776L19.4062 50.8256L19.7588 49.9336C20.0064 49.9648 20.2498 50.0037 20.4974 50.031C20.745 50.0582 20.9171 50.0621 21.0933 50.0738C20.9716 50.2608 20.8541 50.4633 20.7324 50.6776Z" fill="#8ABFE5"/>
<path d="M21.0924 50.0572C20.8951 50.0572 20.6727 50.0338 20.4964 50.0143C20.3202 49.9948 20.0054 49.9481 19.7578 49.9169L19.997 49.5508L21.491 49.6871L21.2099 50.0766L21.0924 50.0572Z" fill="#74ABD7"/>
<path d="M21.3751 34.9218C21.3205 35.0036 21.2618 35.0854 21.203 35.1633L20.7246 35.8956L19.3984 36.1605L19.8769 34.9062L21.3751 34.9218Z" fill="#8ABFE5"/>
<path d="M19.399 36.1594L20.7252 35.8945C20.7252 36.2295 20.6958 36.5606 20.6832 36.8917H19.3906L19.399 36.1594Z" fill="#D5E6F4"/>
<path d="M38.8703 42.709L38.1905 42.6818L36.3397 42.5883L33.956 42.3429L33.423 42.3L31.7024 42.0507L31.1652 41.9378L29.4445 41.5833L28.9116 41.4509L27.3252 41.0614L26.8006 40.9406L25.7305 40.4498C25.9025 40.1032 26.0578 39.702 26.5698 39.8227C27.0818 39.9435 27.8666 39.7721 27.6022 40.7459H27.791L28.5171 39.998C32.0467 40.9481 35.692 41.4782 39.3655 41.5755L39.5628 42.0196L40.037 41.5989H40.6917C41.0316 41.9339 41.6443 42.0624 41.6234 42.6701L41.4975 42.7168L40.8302 42.7519L38.8703 42.709Z" fill="#7DC0E8"/>
<path d="M50.1274 42.0712H49.4727C49.2293 41.487 48.6334 41.6038 48.2137 41.6272C47.7941 41.6506 47.5968 41.5532 47.4961 41.2104L54.4962 39.6523L56.8044 40.2093L56.519 40.3963L53.5813 41.3039L52.7797 41.5064L50.1274 42.0712Z" fill="#59AFDF"/>
<path d="M28.5339 40.0174L27.8078 40.7653H27.619C27.8666 39.7954 27.086 39.9473 26.5866 39.8343C26.0872 39.7214 25.9025 40.1148 25.7472 40.4614H25.4913L25.1429 40.3329L23.8 39.7252L23.2082 39.3825L22.1675 38.7398L21.7478 38.3931C21.6051 38.2295 21.4666 38.062 21.3281 37.8945C21.5715 37.9958 21.8107 38.1049 22.0584 38.1984C22.201 38.2529 22.3857 38.3503 22.5032 38.3074C22.8023 38.2068 23.1247 38.1812 23.4378 38.2332C23.751 38.2852 24.0438 38.4129 24.2868 38.6034C24.3875 38.6658 24.6267 38.5411 24.7988 38.5022L28.5339 40.0174Z" fill="#71BAE5"/>
<path d="M41.6426 42.688C41.6426 42.0804 41.0509 41.9518 40.7109 41.6168L44.6894 41.4922C44.7314 41.6714 44.7775 41.8544 44.8237 42.0453C45.5413 41.7765 46.4226 41.983 46.6786 42.4348L46.4142 42.54L44.1648 42.6841L43.9004 42.649C43.7913 42.4971 43.72 42.2595 43.5689 42.2089C42.5911 41.8194 42.44 41.8895 41.7727 42.6802L41.6426 42.688Z" fill="#6AB6E3"/>
<path d="M24.8008 38.4881C24.6288 38.527 24.3811 38.6517 24.2888 38.5894C24.0458 38.3988 23.753 38.2711 23.4398 38.2191C23.1267 38.1671 22.8043 38.1927 22.5052 38.2933C22.3877 38.3362 22.2031 38.2388 22.0604 38.1843C21.8128 38.0908 21.5736 37.9817 21.3301 37.8804L20.9566 37.4909L20.793 37.043C21.4183 36.9144 22.0184 36.6145 22.6941 36.7781L24.8008 38.4881Z" fill="#6AB6E3"/>
<path d="M46.6767 42.4301C46.4207 41.9822 45.5394 41.7758 44.8218 42.0406C44.7756 41.8498 44.7295 41.6511 44.6875 41.4875L47.4741 41.2188C47.5748 41.5615 47.7637 41.655 48.1917 41.6355C48.6198 41.6161 49.2283 41.4953 49.4508 42.0796C49.4548 42.1093 49.4548 42.1394 49.4508 42.1692L47.0712 42.4496L46.6767 42.4301Z" fill="#64B4E2"/>
<path d="M22.6941 36.7611C22.0184 36.5975 21.4351 36.8974 20.793 37.0259L20.6797 36.8935C20.6797 36.5624 20.7091 36.2313 20.7217 35.8964L21.2001 35.1641L22.1275 35.425L22.6941 36.7611Z" fill="#59AFDF"/>
<path d="M40.0543 41.6171L39.5801 42.0378L39.3828 41.5938L40.0543 41.6171Z" fill="#6AB6E3"/>
<path d="M27.1836 31.5921C27.1836 31.5531 27.1836 31.5142 27.1836 31.4713C28.2496 30.4975 29.3239 29.5238 30.3857 28.5422C30.4528 28.4799 30.4612 28.3591 30.499 28.2656H30.7718L31.1621 28.3981C31.3593 29.3679 30.9061 30.0496 30.1381 30.6806C29.219 31.4363 28.3922 32.2932 27.5277 33.1034L27.2801 33.0605L27.1836 31.5921Z" fill="#8ABFE5"/>
<path d="M31.1676 28.3833L30.7773 28.2509L31.6964 27.1992L33.4171 27.4368L32.6365 28.5197H31.9608L31.1676 28.3833Z" fill="#FBFCFD"/>
<path d="M56.4953 40.4283L56.7807 40.2413L57.6704 39.9414C57.4564 40.2102 57.2507 40.4867 57.0283 40.7516C56.7219 41.1099 56.403 41.4644 56.0882 41.8189L55.2993 42.1461H55.0391C55.2657 41.8812 55.4965 41.6202 55.7189 41.367L56.4953 40.4283Z" fill="#F0F1F1"/>
<path d="M54.2344 33.568L54.3687 33.3226L58.0492 30.0039C58.3975 30.3739 58.5066 31.3633 58.1919 31.6593C56.979 32.7967 55.7704 33.9068 54.461 35.0988C54.3813 34.5262 54.3099 34.0471 54.2344 33.568Z" fill="#4F96CF"/>
<path d="M54.2344 31.1069L54.4988 30.7368L58.1163 27.4844L58.3429 29.0113V29.1359L54.4694 32.6415L54.2344 31.1069Z" fill="#4F96CF"/>
<path d="M58.3425 29.1393V29.0146C58.8209 28.481 58.7118 27.6241 58.0781 26.9229L58.3425 26.1829L58.8713 25.9297C58.8695 26.1805 58.8934 26.4309 58.9426 26.6776C59.1441 27.3241 59.3371 27.9513 58.8965 28.5979C58.8125 28.7225 58.9301 28.9679 58.9552 29.1588C59.0338 29.6533 59.0856 30.1512 59.1105 30.6506C59.1105 30.8025 58.8713 30.9583 58.7412 31.1102C58.695 30.4247 58.9343 29.7158 58.3425 29.1393Z" fill="#498DC7"/>
<path d="M61.2975 21.7673L61.2723 22.1256C60.7226 23.3409 59.6356 24.042 58.4731 24.677L57.8059 25.0665L56.6392 25.456C53.6595 24.7588 50.7008 23.9719 47.696 23.3799C45.0143 22.854 42.2907 22.5229 39.5796 22.1451C38.0394 21.9348 36.4908 21.7829 34.938 21.6426C33.2594 21.4907 31.6143 21.3856 29.9482 21.2531C27.4553 21.0545 24.9625 20.8636 22.4739 20.6416C22.0494 20.5827 21.629 20.5008 21.2148 20.3962L21.496 20.0301C24.1567 17.8527 27.4469 17.0269 30.7959 16.3453C35.1118 15.5335 39.5238 15.2506 43.919 15.5039C48.229 15.687 52.4844 16.2829 56.5091 17.8098C58.0199 18.3323 59.4047 19.1265 60.5841 20.1469L60.8191 20.404C60.9911 20.8597 61.1422 21.3155 61.2975 21.7673Z" fill="#3C79BB"/>
<path d="M58.3415 26.1797L58.0771 26.9198L54.5854 30.0359L54.3672 29.9385V28.5207C54.6735 28.1312 54.9841 27.7144 55.2947 27.3093L56.2179 26.947L58.3415 26.1797Z" fill="#4F96CF"/>
<path d="M56.2213 26.9477L55.3023 27.3061L55.168 27.2788C55.424 26.9828 55.68 26.6907 55.9318 26.3946C56.1836 26.0986 56.3934 25.8298 56.62 25.5455L56.6452 25.452L57.8119 25.0625C57.6146 25.3118 57.4342 25.5728 57.2285 25.8143C56.897 26.1921 56.5613 26.566 56.2213 26.9477Z" fill="#F0F1F1"/>
<path d="M56.6167 25.5508C56.39 25.8351 56.1634 26.1195 55.9284 26.3999C55.6934 26.6804 55.4206 26.9881 55.1646 27.2841L53.2971 27.8645L52.5039 27.9658C52.7095 27.697 52.9236 27.4243 53.125 27.1595C53.3265 26.8946 53.5153 26.696 53.7126 26.4661L56.6167 25.5508Z" fill="#FBFCFD"/>
<path d="M54.3677 28.5228V29.9562L54.5859 30.0536L58.0776 26.9375C58.7113 27.6386 58.8204 28.4956 58.342 29.0292C58.2748 28.5618 58.2035 28.0905 58.1154 27.5023L54.4978 30.7547C53.797 30.0887 53.734 29.0409 54.3677 28.5228Z" fill="#4C91C8"/>
<path d="M30.5049 28.2704C30.4671 28.3639 30.4587 28.4846 30.3916 28.547C29.3298 29.5285 28.2554 30.4945 27.1895 31.4761C26.1067 31.1139 26.0606 30.5257 27.0552 29.0533C26.1949 28.9599 26.4173 28.3639 26.3879 27.8848C26.3621 27.7692 26.3183 27.6576 26.2578 27.5537C26.2578 27.4408 26.2578 27.3239 26.2578 27.2109L26.6775 27.2849L28.2638 27.6745L28.5282 27.8108C28.2596 28.0757 27.991 28.3444 27.7141 28.5898C27.0804 29.1897 27.0048 29.7311 27.5294 30.6737C28.0834 30.1362 28.6164 29.6376 29.1284 29.1157C29.4347 28.8079 29.7033 28.4691 29.9677 28.1458L30.5049 28.2704Z" fill="#83B7DE"/>
<path d="M24.6641 26.552L25.4614 25.5938L26.9135 26.0729L26.1161 27.1167L25.3355 26.8791L25.0837 26.7896L24.6641 26.552Z" fill="#FBFCFD"/>
<path d="M26.1211 27.1142C26.3855 26.7675 26.6541 26.4209 26.9185 26.0703L27.4682 26.269L26.6583 27.2661L26.2386 27.1921L26.1211 27.1142Z" fill="#F0F1F1"/>
<path d="M22.2684 23.8809L21.7648 23.5848L20.9297 22.6344C20.9338 22.5969 20.9338 22.559 20.9297 22.5215C21.3997 22.093 21.8781 22.4591 22.3398 22.5215C22.4489 22.5409 22.4699 22.872 22.5958 23.0006C22.6576 23.0447 22.7307 23.0732 22.8078 23.0834C22.885 23.0937 22.9638 23.0853 23.0364 23.059C23.8506 22.5526 24.5556 22.7318 24.9753 23.6355L25.4369 23.3161C25.8566 23.0006 26.8344 23.3161 26.9771 23.8146C26.9771 23.8848 27.359 23.9666 27.3968 23.9159C27.5062 23.773 27.6686 23.6725 27.8529 23.6337C28.0372 23.5948 28.2304 23.6205 28.3956 23.7056L29.6169 24.2704C30.3387 23.9354 31.0185 24.0834 31.669 24.8118C31.7571 24.7592 31.8481 24.7111 31.9418 24.6677C32.2259 24.5644 32.5415 24.5639 32.826 24.6663C33.1105 24.7688 33.3431 24.9667 33.4778 25.2208C33.5072 25.2909 33.8136 25.3415 33.8975 25.2831C34.6235 24.8391 35.4167 25.0377 35.828 25.8323L36.3232 25.5714C36.5794 25.6242 36.8296 25.6999 37.0702 25.7973C37.3014 25.9292 37.5191 26.0804 37.7207 26.2491V26.4984L38.3124 26.0621C38.4826 25.9985 38.6652 25.9684 38.8486 25.9736C39.032 25.9789 39.2123 26.0194 39.3779 26.0926C39.5436 26.1658 39.6911 26.2702 39.8111 26.399C39.9311 26.5279 40.0209 26.6784 40.075 26.8412L40.7003 26.4517C41.1955 26.6893 41.6866 26.9385 42.1902 27.1567C42.2524 27.1725 42.3175 27.1758 42.3812 27.1664C42.4448 27.157 42.5056 27.1351 42.5595 27.1021C43.1848 26.7477 43.6968 27.0788 44.2381 27.2463L43.9905 27.815L43.5961 27.9201L41.4977 27.9552L41.1032 27.9162C41.1032 27.7721 41.183 27.554 41.1032 27.4917C40.9591 27.3857 40.7913 27.311 40.612 27.273C40.4328 27.235 40.2466 27.2346 40.0672 27.2719C39.8878 27.3093 39.7197 27.3834 39.5751 27.4888C39.4305 27.5942 39.3131 27.7282 39.2315 27.8812L38.8118 27.924V27.8773L39.03 26.9502C38.4677 26.9502 37.9305 26.923 37.3933 26.9502C37.2087 26.9502 37.0408 27.1333 36.8604 27.2307L36.7051 26.623C36.3997 26.436 36.0349 26.3507 35.6705 26.3812C35.3061 26.4116 34.9636 26.5559 34.6991 26.7905C34.5899 26.5101 34.5438 26.179 34.4431 26.1634C33.9849 26.0989 33.5207 26.0793 33.0581 26.105C32.8777 26.105 32.7014 26.2764 32.5252 26.366L32.4077 25.7505C32.0856 25.6342 31.7483 25.5582 31.4046 25.5246C31.0541 25.5756 30.7126 25.6699 30.389 25.8051L30.4646 25.1429C30.2045 25.0601 29.9359 25.0027 29.663 24.9715C29.3842 24.9557 29.1053 25.0011 28.8489 25.1039C28.5299 25.252 28.1354 25.9336 28.1984 24.9248C28.1984 24.8819 28.1354 24.8235 28.0893 24.7845C27.8485 24.6628 27.5787 24.5991 27.3045 24.5991C27.0303 24.5991 26.7605 24.6628 26.5197 24.7845C26.3614 24.8767 26.1942 24.9549 26.0203 25.0182L26.0581 24.4106C25.0802 24.0873 25.0844 24.0951 24.1528 24.5002C24.0837 24.5029 24.015 24.4897 23.9528 24.4618C23.8906 24.434 23.8367 24.3923 23.796 24.3405C23.7538 24.198 23.6741 24.0675 23.5641 23.9606C23.4541 23.8538 23.3172 23.774 23.1657 23.7284C23.0143 23.6829 22.853 23.6729 22.6964 23.6995C22.5397 23.7261 22.3927 23.7885 22.2684 23.8809Z" fill="#71BAE5"/>
<path d="M39.2539 27.8713C39.3355 27.7184 39.4529 27.5843 39.5975 27.4789C39.7421 27.3735 39.9102 27.2995 40.0896 27.2621C40.2691 27.2248 40.4552 27.2251 40.6344 27.2631C40.8137 27.3012 40.9815 27.3759 41.1256 27.4818C41.197 27.5442 41.1256 27.7623 41.1256 27.9064L39.2539 27.8713Z" fill="#7DC0E8"/>
<path d="M56.6148 25.5518L53.7107 26.4671L52.6573 26.7281L50.2652 27.1994L49.6021 27.2656C48.9684 26.6892 48.2886 26.732 47.6045 27.1916C47.2646 26.3542 46.6141 26.2412 45.4222 26.7515C44.8683 25.8984 44.5115 25.8205 43.2735 26.2685C43.0973 26.0737 42.9672 25.7972 42.7531 25.7193C42.1866 25.5167 41.5739 25.3298 41.1164 25.9413C40.5834 25.0337 39.7735 25.0142 38.8124 25.3609C38.8544 24.6754 38.3382 24.726 37.9395 24.7182C37.5278 24.7389 37.1183 24.7871 36.7141 24.8623C36.2021 23.9431 35.3669 24.1067 34.4185 24.539C34.557 23.7873 33.9988 23.8808 33.6001 23.8652C33.2396 23.8708 32.8802 23.9046 32.5258 23.9665C32.1061 23.7405 31.8039 23.5536 31.4766 23.4056C31.0569 23.2147 30.717 23.4718 30.3309 23.5536C30.0917 23.6081 29.756 23.09 29.4202 23.0316C28.9845 22.9964 28.5456 23.0147 28.115 23.0862C27.7373 22.8797 27.4268 22.6966 27.0994 22.5447C26.6798 22.3539 26.3398 22.607 25.9579 22.6927C25.7145 22.7473 25.3788 22.2292 25.0431 22.1708C24.544 22.1379 24.0425 22.1602 23.549 22.237C23.4649 22.0977 23.3518 21.9753 23.2162 21.877C23.0806 21.7786 22.9252 21.7063 22.7592 21.6643C22.5932 21.6222 22.4199 21.6113 22.2492 21.632C22.0786 21.6528 21.9142 21.7048 21.7654 21.7852C21.6395 21.8436 21.3919 21.719 21.2283 21.6333C21.0753 21.5292 20.9346 21.4104 20.8086 21.2788C20.8967 20.9906 20.9891 20.7062 21.0814 20.4219H21.1947C21.6088 20.5265 22.0292 20.6084 22.4537 20.6673C24.9423 20.8815 27.4352 21.0802 29.928 21.2788C31.6067 21.4112 33.2602 21.5164 34.9179 21.6683C36.4707 21.8085 38.0193 21.9605 39.5594 22.1708C42.2705 22.5603 44.9942 22.8797 47.6759 23.4056C50.6807 23.9976 53.6394 24.7844 56.619 25.4817L56.6148 25.5518Z" fill="#59AFDF"/>
<path d="M22.2695 23.8785C22.3927 23.7859 22.5385 23.7231 22.6942 23.6955C22.8498 23.6679 23.0104 23.6765 23.1616 23.7205C23.3128 23.7644 23.4499 23.8424 23.5608 23.9474C23.6717 24.0525 23.7529 24.1813 23.7971 24.3225C23.8378 24.3743 23.8917 24.416 23.9539 24.4439C24.0161 24.4717 24.0848 24.4849 24.1538 24.4822C25.0855 24.0927 25.0813 24.0693 26.0591 24.3926L26.0214 25.0003C26.1953 24.937 26.3625 24.8587 26.5208 24.7666C26.7616 24.6449 27.0314 24.5811 27.3056 24.5811C27.5797 24.5811 27.8496 24.6449 28.0904 24.7666C28.1365 24.8055 28.2037 24.8639 28.1995 24.9068C28.1365 25.9156 28.531 25.234 28.85 25.086C29.1078 24.9884 29.3866 24.9484 29.6641 24.9691C29.937 25.0003 30.2056 25.0577 30.4657 25.1405L30.3901 25.8027C30.7137 25.6675 31.0552 25.5732 31.4057 25.5222C31.7494 25.5558 32.0867 25.6318 32.4088 25.7481L32.5305 26.3714C32.7067 26.2818 32.883 26.1182 33.0634 26.1104C33.5443 26.0823 34.027 26.1032 34.5029 26.1727C34.6036 26.1727 34.6498 26.5194 34.7589 26.7998C35.0234 26.5652 35.3659 26.4209 35.7304 26.3905C36.0948 26.36 36.4595 26.4453 36.7649 26.6323L36.9202 27.24C37.1007 27.1426 37.2685 26.9751 37.4532 26.9595C37.9904 26.9206 38.5275 26.9595 39.0899 26.9595L38.8717 27.8866L38.3303 27.9138L36.3369 27.8087L33.9531 27.5633L33.4202 27.4542L31.6995 27.2166L31.5694 27.166L31.645 26.5934C31.3638 26.5155 31.0952 26.4181 30.8056 26.3675C30.3859 26.2818 29.9663 26.2701 29.8236 26.7998H29.4501L29.0514 26.6869L27.4734 26.2974L26.9237 26.0987L25.4716 25.5923L25.0519 25.4404L23.5999 24.8016L23.4068 24.6926L22.2947 23.972C22.2842 23.9413 22.2758 23.9101 22.2695 23.8785Z" fill="#7DC0E8"/>
<path d="M41.1148 25.9413C41.5723 25.3259 42.185 25.5167 42.7515 25.7193C42.9656 25.7972 43.0957 26.0737 43.2719 26.2685C44.5309 25.8206 44.8667 25.8985 45.4206 26.7515C46.6125 26.2412 47.263 26.362 47.6029 27.1916C48.287 26.732 48.9668 26.6892 49.6005 27.2657L49.4453 27.3358L47.0783 27.6591L46.4153 27.698L44.3169 27.8538L44.0441 27.8071L44.2917 27.2384C43.7294 27.0709 43.2174 26.7398 42.613 27.0943C42.5592 27.1272 42.4984 27.1491 42.4347 27.1585C42.371 27.1679 42.3059 27.1646 42.2437 27.1488C41.7401 26.9307 41.2491 26.6814 40.7539 26.4438L41.1148 25.9413Z" fill="#6AB6E3"/>
<path d="M41.111 25.9399L40.6913 26.4307L40.066 26.8202C40.0119 26.6575 39.922 26.5069 39.802 26.378C39.682 26.2492 39.5345 26.1449 39.3689 26.0716C39.2032 25.9984 39.023 25.9579 38.8396 25.9527C38.6562 25.9474 38.4736 25.9776 38.3034 26.0412C38.2572 25.3167 37.6655 25.1881 37.0737 25.1764C36.8261 25.1764 36.5701 25.4179 36.3141 25.566L35.8189 25.8269C35.3993 25.0479 34.6145 24.8337 33.8884 25.2777C33.7919 25.3361 33.4688 25.2777 33.4688 25.2154C33.3336 24.9656 33.1035 24.7712 32.8229 24.6698C32.5423 24.5683 32.2311 24.5671 31.9496 24.6662C31.8559 24.7096 31.7648 24.7577 31.6768 24.8103C31.0263 24.0819 30.3464 23.9339 29.6246 24.2689L28.4034 23.7041C28.2381 23.619 28.0449 23.5933 27.8607 23.6322C27.6764 23.671 27.514 23.7715 27.4045 23.9144C27.3542 23.9651 26.9849 23.8833 26.9849 23.8131C26.8422 23.3224 25.8811 22.9991 25.4447 23.3146L24.983 23.634C24.5634 22.7303 23.8583 22.5511 23.0442 23.0575C22.9731 23.0878 22.8947 23.1005 22.8168 23.0943C22.7388 23.0882 22.6639 23.0634 22.5993 23.0224C22.4734 22.8939 22.4524 22.5628 22.3433 22.5433C21.8817 22.4654 21.4033 22.0993 20.9332 22.5433L20.6563 21.9201C20.6563 21.7137 20.6562 21.5072 20.6856 21.3008H20.8199C20.9459 21.4324 21.0866 21.5512 21.2396 21.6552C21.4033 21.7409 21.6593 21.8656 21.7768 21.8071C21.9255 21.7268 22.0899 21.6747 22.2606 21.654C22.4312 21.6332 22.6045 21.6442 22.7706 21.6862C22.9366 21.7283 23.0919 21.8006 23.2275 21.8989C23.3631 21.9973 23.4762 22.1197 23.5604 22.259C24.0538 22.1821 24.5553 22.1599 25.0544 22.1928C25.3901 22.2512 25.7259 22.7692 25.9693 22.7147C26.3512 22.629 26.6953 22.3758 27.1108 22.5667C27.4381 22.7147 27.7487 22.9017 28.1264 23.1081C28.5514 23.0273 28.9859 22.9985 29.419 23.0224C29.7547 23.0809 30.0904 23.5989 30.3296 23.5444C30.7157 23.4626 31.0557 23.2055 31.4753 23.3964C31.8027 23.5444 32.109 23.7313 32.5245 23.9573C32.8789 23.8955 33.2383 23.8616 33.5989 23.856C33.9934 23.856 34.5557 23.7781 34.4172 24.5299C35.3657 24.0975 36.2008 23.9339 36.7128 24.8531C37.117 24.7779 37.5266 24.7297 37.9383 24.709C38.3579 24.709 38.8531 24.6662 38.8112 25.3517C39.7722 25.0128 40.5822 25.0323 41.111 25.9399Z" fill="#64B4E2"/>
<path d="M31.1703 58.0348C31.334 58.9112 30.9437 59.5305 30.2429 60.107C29.2902 60.886 28.4341 61.7741 27.536 62.6116C27.3042 62.3566 27.1743 62.0353 27.1682 61.7018C27.1621 61.3682 27.2801 61.043 27.5024 60.7809C28.3418 60.0018 29.1811 59.2501 29.9743 58.4749C30.1324 58.3073 30.2729 58.126 30.394 57.9335L30.7926 57.9062L31.1703 58.0348Z" fill="#8ABFE5"/>
<path d="M30.768 57.9082L30.3694 57.9355L29.8406 57.7952L28.2584 57.4057L26.5 56.8448L27.3393 55.8516L31.578 56.8331L30.768 57.9082Z" fill="#F8FAFB"/>
<path d="M28.2595 57.418L29.8417 57.8075C29.6067 58.0918 29.3926 58.3918 29.1324 58.6566C28.6162 59.1825 28.0749 59.6849 27.5461 60.2147C27.3249 59.9573 27.1972 59.6415 27.1814 59.3126C27.1655 58.9837 27.2624 58.6586 27.4579 58.384C27.7391 58.0529 27.9951 57.7296 28.2595 57.418Z" fill="#8ABFE5"/>
<path d="M30.7695 57.9071L31.5627 56.8438L33.2834 57.0814L32.486 58.1915L31.9614 58.172L31.1682 58.0357L30.7695 57.9071Z" fill="#FBFCFD"/>
<path d="M27.3264 55.8629L26.4871 56.8562L26.2437 56.8328L26.1094 56.7121L26.9067 55.7344L27.3264 55.8629Z" fill="#F0F1F1"/>
<path d="M58.2097 61.2532L54.6635 64.4472C54.3152 64.0927 54.2019 63.0956 54.5166 62.7956C55.5868 61.7673 56.6905 60.7624 57.7859 59.7574C57.853 59.699 57.9747 59.6951 58.2055 59.625V61.2532H58.2097Z" fill="#4F96CF"/>
<path d="M58.2122 58.7923L54.6702 61.9746C54.2505 61.5851 54.2253 60.5957 54.5988 60.2374C55.6144 59.2766 56.644 58.3236 57.6876 57.3784C57.8491 57.286 58.0266 57.2201 58.2122 57.1836V58.7923Z" fill="#4F96CF"/>
<path d="M55.9575 56.6972L58.2111 55.9805C58.168 56.1523 58.0927 56.3158 57.9887 56.4635C56.9395 57.4567 55.8903 58.4344 54.8076 59.416C54.7554 59.4499 54.6971 59.4749 54.6355 59.49C54.406 59.1919 54.3027 58.8259 54.3453 58.4617C54.3879 58.0975 54.5733 57.7606 54.8663 57.5152C54.9897 57.3559 55.0885 57.1816 55.1601 56.9971L55.9575 56.6972Z" fill="#4F96CF"/>
<path d="M52.2461 57.6885C52.4811 57.4081 52.7245 57.1315 52.9595 56.8472C53.1274 56.6446 53.2827 56.4304 53.4422 56.224L56.3798 55.3086C56.2162 55.5384 56.0609 55.776 55.8804 55.998C55.6076 56.333 55.3181 56.6563 55.0411 56.9874L53.7191 57.4237L52.9302 57.5911L52.2461 57.6885Z" fill="#FBFCFD"/>
<path d="M58.2148 58.7902V57.1893C58.3449 56.9439 58.4792 56.6985 58.6345 56.4531C58.7513 56.616 58.8365 56.7966 58.8863 56.9868C58.9451 58.0735 59.1129 59.1797 58.9535 60.2392C58.8234 61.1117 59.0206 61.9258 59.0038 62.7633C59.0038 62.9191 58.7646 63.071 58.6345 63.2229C58.6345 62.5451 58.7562 61.8401 58.2148 61.2519V61.1273C58.9031 60.7378 58.5884 60.1107 58.5464 59.5692C58.4768 59.2961 58.3652 59.0337 58.2148 58.7902Z" fill="#498DC7"/>
<path d="M55.0195 56.9743C55.3007 56.6433 55.5903 56.32 55.8589 55.985C56.0393 55.763 56.1946 55.5254 56.3583 55.2955L56.6353 55.1125L57.5334 54.8281C57.3235 55.0969 57.1137 55.3734 56.8955 55.6344C56.5891 55.9928 56.2701 56.3394 55.9554 56.6939L55.158 56.9938L55.0195 56.9743Z" fill="#F0F1F1"/>
<path d="M26.9225 55.7407L26.1251 56.7183L25.995 56.7378L25.3529 56.5197L24.9333 56.3522L24.543 56.1535C24.8074 55.838 25.076 55.5225 25.3403 55.2031L26.9225 55.7407Z" fill="#FBFCFD"/>
<path d="M24.9258 56.3633L25.3455 56.5308C25.4294 56.8735 25.5091 57.2163 25.5931 57.5591V57.6876L25.1986 57.933C25.1104 57.4072 25.0181 56.8852 24.9258 56.3633Z" fill="#5F99CD"/>
<path d="M25.5992 57.5596C25.5152 57.2168 25.4355 56.874 25.3516 56.5312L25.9937 56.7299C26.0292 56.8082 26.0472 56.8923 26.0464 56.9772C26.0457 57.0622 26.0262 57.146 25.9893 57.2237C25.9523 57.3014 25.8987 57.3713 25.8316 57.429C25.7645 57.4868 25.6854 57.5312 25.5992 57.5596Z" fill="#6CA3D3"/>
<path d="M25.2007 62.8527C25.1126 62.1788 25.0161 61.5089 24.9531 60.835C24.9531 60.7376 25.1126 60.6208 25.2007 60.5117C25.2847 61.1038 25.3938 61.6803 25.4399 62.284C25.4525 62.4671 25.2847 62.6618 25.2007 62.8527Z" fill="#5F99CD"/>
<path d="M25.2007 60.3918C25.1126 59.7218 25.0161 59.0479 24.9531 58.378C24.9531 58.2767 25.1126 58.1599 25.2007 58.0547C25.2847 58.6429 25.3938 59.2232 25.4399 59.8231C25.4525 60.0256 25.2847 60.2009 25.2007 60.3918Z" fill="#5F99CD"/>
<path d="M36.4689 56.2578L41.5049 56.4604C41.635 56.8499 41.6854 57.2628 42.3443 56.9005C42.7346 56.6824 43.6495 57.0875 43.7712 57.4497L43.5068 57.5549L41.3874 57.5899L40.7244 57.5393C40.1536 56.9901 39.4654 56.9823 39.1296 57.5198L38.7351 57.5627H38.349C38.349 57.5276 38.3197 57.4926 38.3113 57.4575L38.8694 57.0135C38.4385 56.8698 37.9904 56.7757 37.5349 56.733C37.143 56.8043 36.7642 56.9276 36.4102 57.0992L36.4689 56.2578Z" fill="#71BAE5"/>
<path d="M39.1172 57.5229C39.4529 56.9853 40.1412 56.9931 40.7119 57.5423L39.1172 57.5229Z" fill="#7DC0E8"/>
<path d="M36.4663 56.2584L36.4159 57.0919C36.7699 56.9203 37.1487 56.797 37.5406 56.7258C37.9961 56.7684 38.4443 56.8626 38.8752 57.0062L38.317 57.4503L35.5598 57.3334L33.8391 57.1893L33.3019 57.0802L31.5813 56.8426L27.3426 55.8611L26.923 55.7325L25.3366 55.2145L24.9169 55.0041L23.8594 54.4822C24.2329 53.7343 24.9547 53.8551 25.7857 54.7587L26.9733 54.3381C28.8744 54.8133 30.7504 55.343 32.6808 55.7481C33.9314 56.0091 35.2114 56.0948 36.4663 56.2584Z" fill="#7DC0E8"/>
<path d="M56.6399 55.1153L56.3629 55.2984L53.4252 56.2138L52.4977 56.4241L50.114 56.872L49.304 57.0006L48.2549 57.0785C48.1038 56.9694 47.8772 56.7279 47.81 56.763C47.042 57.1525 46.7315 56.4903 46.2656 56.2099C47.4785 56.019 48.7039 55.8866 49.9 55.6334C51.4821 55.2945 53.0433 54.8544 54.6129 54.4648L56.6399 55.1153Z" fill="#59AFDF"/>
<path d="M46.2806 56.207C46.7465 56.4875 47.057 57.138 47.825 56.7601C47.8922 56.7251 48.1188 56.9666 48.2699 57.0756L46.9437 57.321L46.2764 57.3444L44.1781 57.5002L43.7584 57.4496C43.6367 57.0873 42.7218 56.6706 42.3315 56.9004C41.6852 57.2626 41.6349 56.8341 41.4922 56.4602L46.2806 56.207Z" fill="#6AB6E3"/>
<path d="M26.9885 54.3382L25.8009 54.7589C24.9615 53.8552 24.2481 53.7345 23.8746 54.4823L23.6186 54.4473L23.1989 54.2214L22.0112 53.4657L21.6126 53.1151L21.0586 52.3984L22.5904 52.8503L23.8956 52.749L26.9885 54.3382Z" fill="#71BAE5"/>
<path d="M23.914 52.7484L22.6088 52.8497L21.0771 52.3978L20.9344 52.2732L20.7539 51.8837C21.3918 51.7707 21.9416 51.2332 22.6676 51.5214L23.914 52.7484Z" fill="#6AB6E3"/>
<path d="M22.665 51.5348C21.939 51.2466 21.406 51.7841 20.7513 51.8971L20.6884 51.7802C20.6884 51.6984 20.6884 51.6166 20.6884 51.5348L20.8856 51.4336L20.6758 51.2856L20.7136 50.6623C20.8353 50.4637 20.9528 50.2728 21.0745 50.0586H21.192L22.1111 50.191L22.665 51.5348Z" fill="#59AFDF"/>
<path d="M31.3558 43.2534C31.2929 43.3741 31.1586 43.5104 31.1837 43.6195C31.339 44.3323 30.8816 44.753 30.3906 45.1775C29.5512 45.9254 28.7371 46.7083 27.9061 47.4679C27.7466 47.6159 27.5536 47.7289 27.2388 47.9626C27.2053 47.0589 26.9828 46.3539 27.755 45.7423C28.5272 45.1308 29.3288 44.3284 30.122 43.5961C30.2763 43.427 30.4165 43.2473 30.5416 43.0586H30.8018L31.3558 43.2534Z" fill="#8ABFE5"/>
<path d="M30.1195 43.026L27.3623 45.4722C27.1452 45.2126 27.0273 44.8932 27.0273 44.5646C27.0273 44.236 27.1452 43.9167 27.3623 43.657C27.6813 43.3143 27.9456 42.9286 28.2352 42.5625L28.7682 42.6599L30.086 42.9209C30.1195 42.9559 30.1195 42.991 30.1195 43.026Z" fill="#8ABFE5"/>
<path d="M31.3535 43.2544L30.7617 43.0518L31.7018 42.0508L33.4224 42.3001L32.4866 43.3595L32.3565 43.4063H32.2264L31.8319 43.2894L31.3535 43.2544Z" fill="#FBFCFD"/>
<path d="M27.3244 41.0625L28.9108 41.452L28.105 42.4648L26.5312 42.0441L27.3244 41.0625Z" fill="#FBFCFD"/>
<path d="M31.7017 42.0505L30.7616 43.0515H30.5014L30.1195 43.0281C30.1195 42.9931 30.0985 42.958 30.0859 42.923L31.1519 41.9375L31.7017 42.0505Z" fill="#F0F1F1"/>
<path d="M28.1055 42.462L28.9112 41.4492L29.4442 41.5817C29.226 41.9439 29.0245 42.3023 28.7811 42.6606L28.2482 42.5632L28.1055 42.462Z" fill="#F0F1F1"/>
<path d="M27.3213 41.0622L26.5282 42.0437H26.2764C26.226 42.0048 26.1757 41.9658 26.1211 41.9308L26.7968 40.9414L27.3213 41.0622Z" fill="#F0F1F1"/>
<path d="M56.4986 40.4297L55.7222 41.3684C55.4998 41.6333 55.269 41.8943 55.0424 42.1474L52.9902 42.7434L52.3984 42.8018C52.6293 42.5175 52.8643 42.2331 53.0909 41.9488L53.5903 41.3256L56.4986 40.4297Z" fill="#FBFCFD"/>
<path d="M26.797 40.94L26.1213 41.9176H25.8779L25.0805 41.5943L24.8203 41.4385L25.4918 40.4336H25.7478L26.797 40.94Z" fill="#FBFCFD"/>
<path d="M22.1699 38.7266L23.2107 39.3809L22.2664 40.2301L21.3516 39.6147L22.1699 38.7266Z" fill="#FBFCFD"/>
<path d="M25.4768 40.4332L24.8053 41.4382L24.5535 41.4109L24.2765 41.2979L24.1758 41.1772L25.1284 40.3047L25.4768 40.4332Z" fill="#F0F1F1"/>
<path d="M32.4844 43.3603L33.4202 42.3008L33.9532 42.3436L33.0216 43.407L32.4844 43.3603Z" fill="#F0F1F1"/>
<path d="M41.7695 42.6763C42.4368 41.8973 42.5879 41.8311 43.5657 42.205C43.7168 42.2596 43.7881 42.4933 43.8973 42.6452L43.4776 42.688L41.7695 42.6763Z" fill="#71BAE5"/>
<path d="M20.6953 51.2852L20.9051 51.4332L20.7079 51.5344L20.6953 51.2852Z" fill="#6AB6E3"/>
<path d="M28.7812 42.661C29.0037 42.3026 29.2261 41.9443 29.4443 41.582L31.165 41.9365L30.12 42.922L28.7812 42.661Z" fill="#FBFCFD"/>
<path d="M29.45 26.7852H29.8403L31.5693 27.1513L31.6994 27.2019L30.7804 28.2536H30.5076L29.9746 28.1446L28.6484 27.755L29.45 26.7852Z" fill="#F8FAFB"/>
<path d="M28.6471 27.7812L29.9733 28.1708C29.6879 28.4941 29.4193 28.8329 29.1339 29.1407C28.6219 29.6587 28.089 30.1573 27.535 30.6987C27.0104 29.7561 27.086 29.2147 27.7197 28.6148C27.9966 28.3538 28.2652 28.0851 28.5338 27.8358L28.6471 27.7812Z" fill="#8ABFE5"/>
<path d="M27.4701 26.2695L29.0481 26.659C28.7795 26.9901 28.5109 27.3212 28.2465 27.6562L26.6602 27.2667C26.9287 26.9161 27.2015 26.6006 27.4701 26.2695Z" fill="#FBFCFD"/>
<path d="M28.25 27.669C28.5144 27.334 28.783 27.003 29.0516 26.6719L29.4503 26.7848L28.6487 27.782L28.5144 27.8054L28.25 27.669Z" fill="#F3F3F3"/>
<path d="M36.3359 25.5692C36.5919 25.4368 36.8479 25.1797 37.0955 25.1797C37.6873 25.1797 38.279 25.3199 38.3252 26.0444L37.7334 26.4807V26.2314C37.5319 26.0627 37.3142 25.9114 37.0829 25.7795C36.8417 25.6875 36.5916 25.6171 36.3359 25.5692Z" fill="#6AB6E3"/>
<path d="M31.5689 27.1477L29.8398 26.7816C29.9699 26.2518 30.3854 26.2635 30.8219 26.3492C31.0947 26.3998 31.3632 26.4972 31.6612 26.5751L31.5689 27.1477Z" fill="#8ABFE5"/>
</svg>
