<svg width="42" height="42" viewBox="0 0 42 42" fill="none" xmlns="http://www.w3.org/2000/svg">
<circle cx="21" cy="21" r="20" fill="#FBFBFB" stroke="#ECECEC"/>
<path d="M25.3115 28.9999C22.204 28.9999 19.0965 28.9999 15.989 28.9999C15.989 25.1709 15.989 21.3449 15.989 17.5039C16.3243 17.471 16.6446 17.441 16.962 17.4021C17.3631 17.3572 17.7673 17.3033 18.1685 17.2584C18.6594 17.2045 19.1534 17.1716 19.6444 17.1027C20.1383 17.0339 20.6293 17.0069 21.1263 17.0219C21.2071 17.0339 21.2909 17.0459 21.3718 17.0548C21.7011 17.0938 22.0274 17.1327 22.3567 17.1686C22.6561 17.2015 22.9555 17.2315 23.2548 17.2644C23.5841 17.3003 23.9105 17.3392 24.2398 17.3782C24.4314 17.3991 24.626 17.4051 24.8116 17.45C25.1289 17.5308 25.3085 17.7344 25.3085 18.1775C25.3115 21.785 25.3115 25.3924 25.3115 28.9999ZM18.408 23.0094C18.408 22.3119 18.408 21.6173 18.408 20.9198C18.408 20.4378 18.408 19.9558 18.408 19.4738C18.408 19.2373 18.2822 19.1115 18.0547 19.1085C17.8601 19.1085 17.6655 19.1085 17.4709 19.1085C17.2164 19.1085 17.0937 19.2283 17.0937 19.4798C17.0937 21.8239 17.0937 24.168 17.0937 26.5121C17.0937 26.7606 17.2434 26.9043 17.4949 26.9073C17.6505 26.9073 17.8032 26.9073 17.9589 26.9073C18.2882 26.9073 18.408 26.7875 18.408 26.4582C18.408 25.3116 18.408 24.162 18.408 23.0094ZM21.4287 22.9944C21.4287 21.8149 21.4287 20.6354 21.4287 19.4558C21.4287 19.2403 21.2999 19.1115 21.0874 19.1115C20.8688 19.1115 20.6503 19.1115 20.4317 19.1115C20.309 19.1115 20.2162 19.1684 20.1713 19.2762C20.1383 19.36 20.1174 19.4588 20.1174 19.5486C20.1144 21.8478 20.1144 24.147 20.1144 26.4462C20.1144 26.4702 20.1144 26.4971 20.1144 26.5211C20.1294 26.7755 20.2701 26.9103 20.5245 26.9103C20.6952 26.9103 20.8628 26.9103 21.0335 26.9103C21.3059 26.9073 21.4316 26.7785 21.4316 26.5031C21.4287 25.3325 21.4287 24.162 21.4287 22.9944ZM23.159 22.9855C23.159 24.174 23.159 25.3655 23.159 26.554C23.159 26.7576 23.2848 26.8983 23.4824 26.9073C23.6859 26.9132 23.8895 26.9162 24.0931 26.9073C24.3086 26.8983 24.4434 26.7695 24.4434 26.5809C24.4434 24.2009 24.4434 21.8239 24.4434 19.4438C24.4434 19.2433 24.3086 19.1145 24.1051 19.1115C23.9015 19.1115 23.6979 19.1115 23.4943 19.1115C23.2578 19.1115 23.162 19.2103 23.162 19.4468C23.159 20.6264 23.159 21.8059 23.159 22.9855Z" fill="#F05A71"/>
<path d="M25.3114 29C25.3114 25.3925 25.3114 21.7851 25.3114 18.1776C25.3114 17.7345 25.1318 17.531 24.8145 17.4501C24.6288 17.4022 24.4342 17.3992 24.2426 17.3783C23.9133 17.3394 23.587 17.3034 23.2577 17.2645C22.9583 17.2316 22.659 17.2016 22.3596 17.1687C22.0303 17.1328 21.7039 17.0939 21.3746 17.0549C21.2938 17.046 21.21 17.034 21.1292 17.022C21.7369 17.022 22.3416 17.019 22.9493 17.019C24.2277 17.019 25.503 17.022 26.7813 17.022C26.7903 17.031 26.7963 17.04 26.8053 17.049C26.8053 17.0729 26.8083 17.0999 26.8083 17.1238C26.8083 20.6864 26.8113 24.2489 26.8053 27.8115C26.8053 28.2995 26.5628 28.6617 26.1227 28.8832C26.0269 28.9311 25.9221 28.9611 25.8233 29C25.6497 29 25.4821 29 25.3114 29Z" fill="#ED4C67"/>
<path d="M26.8052 17.0041L26.8022 17.0161C26.7933 17.0161 26.7843 17.0191 26.7753 17.022C25.497 17.022 24.2216 17.0191 22.9433 17.0191C22.3356 17.0191 21.7308 17.022 21.1231 17.022C20.6261 17.0071 20.1322 17.034 19.6412 17.1029C19.1532 17.1717 18.6592 17.2047 18.1653 17.2586C17.7641 17.3035 17.36 17.3573 16.9588 17.4023C16.6415 17.4382 16.3211 17.4681 15.9858 17.504C15.9858 21.345 15.9858 25.174 15.9858 29C15.917 29 15.8451 29 15.7763 29C15.5877 28.9042 15.3781 28.8384 15.2164 28.7096C14.9171 28.4731 14.7883 28.1378 14.7883 27.7516C14.7883 24.1681 14.7883 20.5876 14.7883 17.0041C14.8482 17.0011 14.9081 16.9951 14.968 16.9951C18.8568 16.9951 22.7487 16.9951 26.6376 16.9981C26.6975 16.9981 26.7513 17.0011 26.8052 17.0041Z" fill="#F06E8A"/>
<path d="M26.8051 17.0039C26.7513 17.0009 26.6974 16.9979 26.6405 16.9979C22.7516 16.9979 18.8597 16.9949 14.9709 16.9949C14.911 16.9949 14.8511 17.0009 14.7912 17.0039C14.2943 17.0009 13.7973 16.9979 13.3004 16.9949C13.3004 16.8004 13.2914 16.6058 13.3033 16.4142C13.3093 16.3363 13.3423 16.2345 13.3991 16.1956C13.486 16.1357 13.6057 16.0968 13.7105 16.0968C18.5723 16.0908 23.4342 16.0938 28.296 16.0938C28.296 16.3243 28.296 16.5519 28.296 16.7824C28.2212 16.956 28.0835 17.0099 27.9038 17.0069C27.5386 16.9979 27.1734 17.0039 26.8051 17.0039Z" fill="#2B475F"/>
<path d="M28.2993 16.0939C23.4374 16.0939 18.5756 16.0939 13.7138 16.0969C13.609 16.0969 13.4892 16.1388 13.4024 16.1957C13.3455 16.2346 13.3096 16.3364 13.3066 16.4142C13.2946 16.6088 13.3036 16.8034 13.3036 16.995C13.106 16.98 13.0042 16.8812 13.0042 16.6926C13.0012 16.495 12.9982 16.2945 13.0012 16.0969C13.0042 15.9292 13.118 15.8095 13.2886 15.7975C13.3335 15.7945 13.3785 15.7975 13.4234 15.7975C14.8753 15.7975 16.3303 15.7975 17.7823 15.7975C18.884 15.7975 19.9886 15.7975 21.0903 15.7975C20.9377 15.7586 20.785 15.7496 20.6353 15.7346C20.1832 15.6867 19.7312 15.6328 19.2791 15.5909C19.0127 15.567 18.7582 15.3754 18.7073 15.1449C18.6295 14.7976 18.8181 14.5671 19.0336 14.4503C19.2312 14.3455 19.4378 14.3006 19.6623 14.3006C20.9017 14.3006 22.1411 14.2976 23.3806 14.2976C23.635 14.5102 23.7757 14.7826 23.7937 15.1089C23.8057 15.3305 23.7967 15.555 23.7967 15.7975C23.8655 15.7975 23.9194 15.7975 23.9733 15.7975C25.2876 15.7975 26.5988 15.8005 27.9131 15.7945C28.0927 15.7945 28.2214 15.8484 28.3053 16.0071C28.2993 16.034 28.2993 16.0639 28.2993 16.0939Z" fill="#30516B"/>
<path d="M18.4078 23.0094C18.4078 24.159 18.4078 25.3086 18.4078 26.4582C18.4078 26.7875 18.288 26.9073 17.9587 26.9073C17.803 26.9073 17.6503 26.9073 17.4947 26.9073C17.2432 26.9043 17.0935 26.7606 17.0935 26.5121C17.0935 24.168 17.0935 21.8239 17.0935 19.4798C17.0935 19.2283 17.2192 19.1086 17.4707 19.1086C17.6653 19.1086 17.8599 19.1086 18.0545 19.1086C18.282 19.1086 18.4078 19.2373 18.4078 19.4738C18.4078 19.9558 18.4078 20.4378 18.4078 20.9198C18.4078 21.6173 18.4078 22.3149 18.4078 23.0094ZM17.2043 22.9944C17.2043 23.6381 17.2043 24.2787 17.2043 24.9224C17.2043 25.3715 17.2013 25.8175 17.2043 26.2666C17.2043 26.4851 17.3061 26.5869 17.5246 26.5899C17.6653 26.5929 17.803 26.5899 17.9437 26.5899C18.27 26.5899 18.3509 26.5091 18.3509 26.1888C18.3509 24.0632 18.3509 21.9376 18.3509 19.8121C18.3509 19.7732 18.3539 19.7313 18.3509 19.6923C18.3389 19.5247 18.2281 19.4169 18.0605 19.4139C17.9048 19.4109 17.7521 19.4139 17.5965 19.4139C17.2911 19.4139 17.2073 19.4977 17.2073 19.8031C17.2043 20.8629 17.2043 21.9287 17.2043 22.9944Z" fill="#EF5D70"/>
<path d="M21.4283 22.9946C21.4283 24.1652 21.4283 25.3327 21.4283 26.5033C21.4283 26.7787 21.3026 26.9074 21.0302 26.9104C20.8595 26.9134 20.6919 26.9104 20.5212 26.9104C20.2668 26.9104 20.1261 26.7757 20.1111 26.5212C20.1111 26.4973 20.1111 26.4704 20.1111 26.4464C20.1111 24.1472 20.1111 21.848 20.1141 19.5488C20.1141 19.456 20.135 19.3602 20.168 19.2764C20.2129 19.1686 20.3027 19.1117 20.4284 19.1117C20.647 19.1147 20.8655 19.1117 21.0841 19.1117C21.2966 19.1117 21.4253 19.2405 21.4253 19.456C21.4283 20.6355 21.4283 21.8151 21.4283 22.9946ZM21.3715 23.0096C21.3715 22.6623 21.3715 22.312 21.3715 21.9648C21.3715 21.2373 21.3715 20.5128 21.3715 19.7853C21.3715 19.4979 21.2816 19.4081 21.0002 19.4081C20.8655 19.4081 20.7308 19.4081 20.5961 19.4081C20.2847 19.4081 20.2009 19.4949 20.2009 19.8093C20.2009 21.9378 20.2009 24.0694 20.2009 26.1979C20.2009 26.2279 20.2009 26.2578 20.2009 26.2877C20.2099 26.4763 20.3117 26.5841 20.5003 26.5871C20.6649 26.5931 20.8296 26.5901 20.9942 26.5871C21.2876 26.5871 21.3744 26.5003 21.3744 26.2039C21.3715 25.1411 21.3715 24.0754 21.3715 23.0096Z" fill="#EE586E"/>
<path d="M23.1588 22.9856C23.1588 21.8061 23.1588 20.6266 23.1588 19.447C23.1588 19.2075 23.2546 19.1117 23.4911 19.1117C23.6946 19.1117 23.8982 19.1117 24.1018 19.1117C24.3084 19.1117 24.4401 19.2405 24.4401 19.444C24.4401 21.8241 24.4401 24.2011 24.4401 26.5811C24.4401 26.7727 24.3084 26.9015 24.0898 26.9074C23.8862 26.9164 23.6827 26.9134 23.4791 26.9074C23.2815 26.9015 23.1558 26.7578 23.1558 26.5542C23.1588 25.3657 23.1588 24.1741 23.1588 22.9856ZM24.3892 23.0096C24.3892 21.9199 24.3892 20.8301 24.3892 19.7404C24.3892 19.5189 24.2814 19.4111 24.0629 19.4111C23.9132 19.4111 23.7635 19.4111 23.6138 19.4111C23.2965 19.4111 23.2126 19.4919 23.2126 19.8033C23.2126 21.9378 23.2126 24.0724 23.2126 26.2069C23.2126 26.2368 23.2126 26.2668 23.2126 26.2967C23.2216 26.4793 23.3204 26.5811 23.503 26.5871C23.6767 26.5931 23.8503 26.5901 24.0269 26.5901C24.3024 26.5901 24.3892 26.5003 24.3892 26.2219C24.3892 25.1501 24.3892 24.0783 24.3892 23.0096Z" fill="#EF6072"/>
<path d="M23.3774 14.2947C22.1379 14.2977 20.8985 14.2977 19.6591 14.2977C19.4346 14.2977 19.228 14.3426 19.0304 14.4474C18.8179 14.5612 18.6263 14.7947 18.7041 15.1419C18.758 15.3725 19.0125 15.5641 19.2759 15.588C19.728 15.6299 20.18 15.6838 20.6321 15.7317C20.7848 15.7467 20.9375 15.7557 21.0871 15.7946C19.9854 15.7946 18.8808 15.7946 17.7791 15.7946C17.788 15.5431 17.785 15.2886 17.809 15.0372C17.8689 14.4684 18.3898 14.0013 18.9556 14.0013C20.189 14.0013 21.4224 13.9983 22.6559 14.0013C22.9313 14.0043 23.1768 14.1001 23.3774 14.2947Z" fill="#40637E"/>
<path d="M26.7781 17.022C26.7871 17.019 26.796 17.019 26.805 17.016C26.805 17.028 26.802 17.037 26.802 17.049C26.793 17.04 26.7841 17.031 26.7781 17.022Z" fill="#F05A71"/>
</svg>
