<svg width="43" height="43" viewBox="0 0 43 43" fill="none" xmlns="http://www.w3.org/2000/svg">
<path d="M22.3297 33.999C22.0949 33.8945 21.8386 33.8217 21.6301 33.6792C21.1348 33.341 20.9378 32.8377 20.9378 32.25C20.9372 29.0609 20.9366 25.8717 20.9397 22.6825C20.9397 22.4984 20.9721 22.3137 20.9892 22.1297C20.9666 22.1058 20.944 22.0814 20.9219 22.0575C20.8779 22.1364 20.8492 22.23 20.788 22.2917C19.9973 23.0892 19.2035 23.8823 18.4085 24.6755C17.6056 25.4766 16.6626 25.4742 15.8572 24.6694C13.8837 22.6966 11.9121 20.7213 9.93565 18.7515C9.54977 18.3669 9.15655 17.9932 9 17.4471C9 17.2355 9 17.0239 9 16.8123C9.15655 16.2656 9.54855 15.892 9.93504 15.5073C11.906 13.5431 13.8709 11.5739 15.8382 9.60659C16.6479 8.79691 17.6239 8.7963 18.4336 9.60598C20.522 11.6938 22.6104 13.7809 24.697 15.87C25.3287 16.5023 25.4553 17.2698 25.0345 17.9712C24.9398 18.129 24.8095 18.2696 24.6786 18.4017C23.8824 19.2047 23.0813 20.0021 22.282 20.802C22.2257 20.8589 22.1719 20.9182 22.1242 20.9684C22.4337 20.9537 22.7394 20.9268 23.0452 20.9268C26.0956 20.9237 29.1459 20.9249 32.1963 20.9249C32.7778 20.9249 33.283 21.0937 33.6536 21.5701C33.9037 21.8918 34.0003 22.2569 34.0003 22.6611C33.9966 25.484 33.9985 28.3062 33.9985 31.1291C33.9985 31.5192 34.0003 31.91 33.9979 32.3002C33.993 33.1441 33.5129 33.752 32.6953 33.9556C32.6568 33.9654 32.6207 33.9843 32.5834 33.9984C29.1661 33.999 25.7482 33.999 22.3297 33.999ZM27.4679 32.894C29.0462 32.894 30.624 32.8946 32.2024 32.8934C32.7191 32.8928 32.9093 32.7062 32.9093 32.1913C32.9105 29.0431 32.9105 25.8949 32.9093 22.7467C32.9093 22.2165 32.7197 22.0318 32.1877 22.0318C29.0475 22.0318 25.9072 22.0318 22.767 22.0318C22.2172 22.0318 22.0349 22.2128 22.0349 22.7608C22.0349 25.8931 22.0349 29.0248 22.0349 32.1571C22.0349 32.7209 22.2098 32.894 22.7816 32.8946C24.3441 32.894 25.906 32.894 27.4679 32.894ZM10.0268 17.1303C10.1576 17.3205 10.2426 17.496 10.3729 17.6269C12.4515 19.7135 14.535 21.7952 16.6179 23.8774C17.0001 24.2597 17.2723 24.2609 17.6539 23.8799C19.7313 21.8037 21.8087 19.7269 23.8855 17.6502C24.283 17.2527 24.2805 17.0031 23.8775 16.5995C22.4049 15.1263 20.9317 13.6537 19.4591 12.1812C18.8378 11.5598 18.2189 10.9361 17.594 10.3184C17.2815 10.009 16.9959 10.012 16.684 10.316C16.5036 10.4921 16.3268 10.6719 16.1483 10.8505C14.2207 12.7774 12.2919 14.7031 10.3692 16.635C10.239 16.7653 10.1552 16.942 10.0268 17.1303Z" fill="black"/>
<path d="M24.2108 23.1118C24.804 23.113 25.2993 23.6053 25.3018 24.1967C25.3042 24.7825 24.8064 25.2864 24.2175 25.295C23.6243 25.3029 23.1106 24.7886 23.1161 24.1918C23.1216 23.5992 23.617 23.1106 24.2108 23.1118Z" fill="black"/>
<path d="M29.6523 24.1979C29.6523 23.5968 30.1323 23.1136 30.7316 23.1124C31.3303 23.1106 31.8159 23.5888 31.8257 24.1893C31.8355 24.7837 31.3212 25.3017 30.7274 25.2944C30.1329 25.287 29.6523 24.7966 29.6523 24.1979Z" fill="black"/>
<path d="M26.3848 27.4666C26.3836 26.8654 26.863 26.3829 27.4636 26.3805C28.0739 26.378 28.5766 26.8758 28.5674 27.4733C28.5582 28.064 28.0562 28.5582 27.4691 28.5545C26.8704 28.5502 26.3854 28.0634 26.3848 27.4666Z" fill="black"/>
<path d="M30.7433 31.8116C30.1378 31.8146 29.6572 31.3425 29.6529 30.7407C29.6486 30.1231 30.1262 29.6412 30.7414 29.643C31.3401 29.6455 31.8251 30.1298 31.8257 30.7267C31.8263 31.3229 31.3419 31.8085 30.7433 31.8116Z" fill="black"/>
<path d="M24.2102 31.8122C23.6127 31.8134 23.121 31.329 23.1161 30.7359C23.1113 30.1335 23.6115 29.6375 24.2181 29.643C24.8138 29.6479 25.3042 30.1408 25.3018 30.7316C25.2993 31.3235 24.8064 31.8116 24.2102 31.8122Z" fill="black"/>
<path d="M18.2257 17.1297C18.2251 17.7229 17.7334 18.2183 17.1414 18.2213C16.5537 18.2244 16.051 17.7297 16.0419 17.1395C16.0327 16.5457 16.5458 16.0314 17.1439 16.0363C17.7352 16.0406 18.2263 16.5365 18.2257 17.1297Z" fill="black"/>
<path d="M18.2257 21.4888C18.222 22.0826 17.7291 22.5712 17.1347 22.57C16.5421 22.5688 16.0455 22.0759 16.0419 21.4839C16.0382 20.8889 16.558 20.3739 17.1506 20.3856C17.7456 20.3978 18.2293 20.8938 18.2257 21.4888Z" fill="black"/>
<path d="M18.2257 12.7707C18.2281 13.3657 17.7444 13.8598 17.1488 13.8708C16.5568 13.8819 16.0364 13.3639 16.0425 12.7701C16.0486 12.1769 16.5439 11.6877 17.1371 11.6877C17.7328 11.6877 18.2232 12.1757 18.2257 12.7707Z" fill="black"/>
</svg>
