<svg width="48" height="48" viewBox="0 0 48 48" fill="none" xmlns="http://www.w3.org/2000/svg">
<path d="M35.7858 12.1732C35.7858 12.8541 35.7967 13.5349 35.7858 14.2157C35.7694 14.94 35.4767 15.2859 34.7741 15.305C33.3294 15.3322 31.8834 15.3213 30.4387 15.305C29.781 15.305 29.4366 14.8965 29.4257 14.2701C29.4012 12.8445 29.3984 11.4175 29.4257 9.99193C29.4393 9.28661 29.7851 8.95165 30.4877 8.94212C31.9093 8.92033 33.3317 8.92033 34.755 8.94212C35.4713 8.95438 35.7681 9.28389 35.7844 10.0055C35.8008 10.7272 35.7858 11.4489 35.7858 12.1732ZM31.3265 13.3633H33.8782V10.8239H31.3265V13.3633Z" fill="black"/>
<path d="M28.3795 12.1732C28.3795 12.8541 28.3904 13.5349 28.3795 14.2157C28.3632 14.94 28.0704 15.2859 27.3679 15.305C25.9232 15.3322 24.4771 15.3213 23.0325 15.305C22.3748 15.305 22.0303 14.8965 22.0194 14.2701C21.9949 12.8445 21.9922 11.4175 22.0194 9.99193C22.033 9.28661 22.3789 8.95165 23.0815 8.94212C24.503 8.92033 25.9254 8.92033 27.3488 8.94212C28.065 8.95438 28.3618 9.28389 28.3782 10.0055C28.3945 10.7272 28.3795 11.4489 28.3795 12.1732ZM23.9202 13.3633H26.4719V10.8239H23.9202V13.3633Z" fill="black"/>
<path d="M28.8014 19.2631C28.8014 19.9439 28.8123 20.6247 28.8014 21.3055C28.7851 22.0299 28.4923 22.3757 27.7897 22.3948C26.3451 22.422 24.899 22.4111 23.4543 22.3948C22.7967 22.3948 22.4522 21.9863 22.4413 21.36C22.4168 19.9344 22.4141 18.5074 22.4413 17.0818C22.4549 16.3765 22.8008 16.0415 23.5034 16.032C24.9249 16.0102 26.3473 16.0102 27.7707 16.032C28.4869 16.0442 28.7837 16.3737 28.8 17.0954C28.8164 17.817 28.8014 18.5387 28.8014 19.2631ZM24.3421 20.4531H26.8938V17.9137H24.3421V20.4531Z" fill="black"/>
<path d="M32.6289 21.4966C30.3359 21.4966 30.3359 21.4966 30.3359 19.22C30.3359 16.9434 30.3359 16.942 32.6262 16.9433C33.0551 16.9433 33.484 16.9338 33.9115 16.957C34.4943 16.9883 34.8456 17.3096 34.8647 17.8951C34.8901 18.7756 34.8901 19.6571 34.8647 20.5394C34.8456 21.1671 34.4562 21.4666 33.8503 21.4925C33.4418 21.5048 33.036 21.4966 32.6289 21.4966Z" fill="black"/>
<path d="M24.2893 20.1579C25.0668 20.1579 25.7612 20.1497 26.4557 20.1579C27.1501 20.1661 27.5681 20.5364 27.5667 21.0824C27.5654 21.6284 27.1692 22.0002 26.5224 22.0179C25.5066 22.0464 24.48 22.0492 23.471 22.0179C22.7561 21.9947 22.4484 21.657 22.4375 20.9449C22.4212 19.9713 22.4226 18.9951 22.4375 18.0215C22.4471 17.3707 22.8052 16.9676 23.3348 16.9554C23.8645 16.9431 24.2553 17.3366 24.288 17.9807C24.3138 18.6751 24.2893 19.379 24.2893 20.1579Z" fill="black"/>
<path d="M32.1073 27.2383C32.1073 26.685 31.6588 26.2365 31.1055 26.2365C30.5522 26.2365 30.1037 26.685 30.1037 27.2383H32.1073ZM30.3971 43.7084C30.7883 44.0996 31.4226 44.0996 31.8139 43.7084L38.1893 37.3329C38.5805 36.9417 38.5805 36.3074 38.1893 35.9162C37.7981 35.525 37.1638 35.525 36.7725 35.9162L31.1055 41.5832L25.4384 35.9162C25.0472 35.525 24.4129 35.525 24.0216 35.9162C23.6304 36.3074 23.6304 36.9417 24.0216 37.3329L30.3971 43.7084ZM30.1037 27.2383V43H32.1073V27.2383H30.1037Z" fill="black"/>
<path fill-rule="evenodd" clip-rule="evenodd" d="M11.2022 9.60547H19.75V11.3419H11.7365V40.9954H25.4725L27.0549 42.7318H11.2022C10.5382 42.7318 10 42.1936 10 41.5297V10.8076C10 10.1437 10.5382 9.60547 11.2022 9.60547ZM37.6498 34.6149C37.0116 34.7135 36.4264 34.8084 35.9134 34.8983V24.0309H37.6498V34.6149Z" fill="black"/>
<rect x="12.9375" y="28.1738" width="12.6895" height="2.27076" rx="1.13538" fill="black"/>
<rect x="13.4727" y="31.7793" width="7.34657" height="2.00361" rx="1.00181" fill="black"/>
<rect x="13.4727" y="35.1191" width="3.0722" height="2.00361" rx="1.00181" fill="black"/>
<rect x="20.0862" y="6.73466" width="17.7653" height="17.6318" rx="1.26895" stroke="black" stroke-width="1.46931"/>
</svg>
