<svg width="80" height="80" viewBox="0 0 80 80" fill="none" xmlns="http://www.w3.org/2000/svg">
<path d="M12 47.0219C12.3447 46.6129 12.6656 46.1843 12.9611 45.7384C18.2106 36.817 23.455 27.8955 28.6943 18.974C28.9954 18.4326 29.3361 17.946 29.7375 17.2891C31.7601 20.7167 33.7066 24.0167 35.6561 27.3257C36.605 28.9346 37.6148 30.5101 38.4785 32.1646C38.7249 32.6391 38.7827 33.4724 38.5394 33.9073C32.9817 43.4614 27.3895 53.0034 21.7629 62.5331C21.6656 62.6943 21.5257 62.8373 21.2885 63.1414C20.2027 61.3166 19.1929 59.5921 18.1649 57.8798C16.115 54.4531 14.0601 51.0366 12 47.6302V47.0219Z" fill="white"/>
<path d="M23.5 64.0514C25.629 60.3165 27.7093 56.5726 29.8413 52.8499C30.7142 51.3292 31.3347 49.2823 32.6668 48.4854C33.9412 47.722 35.9911 48.2452 37.7004 48.2452C47.0274 48.2452 56.3544 48.2452 65.6814 48.2452H67.5427L58.5949 64.0605L23.5 64.0514Z" fill="white"/>
<path d="M50.1085 16C50.3096 16.5063 50.537 17.0017 50.7898 17.4842C56.0616 26.4726 61.3283 35.4559 66.5899 44.4342C66.8667 44.9025 67.113 45.3861 67.4689 46.0339C66.8819 46.0704 66.4561 46.1191 66.0333 46.1191C60.7899 46.1191 55.5496 46.1495 50.3092 46.0826C49.987 46.0623 49.6729 45.9728 49.3884 45.82C49.1039 45.6673 48.8557 45.455 48.6608 45.1976C43.0403 35.7185 37.4562 26.2171 31.9087 16.6934C31.8038 16.4704 31.7193 16.2383 31.6562 16H50.1085Z" fill="white"/>
</svg>
