<svg width="80" height="80" viewBox="0 0 80 80" fill="none" xmlns="http://www.w3.org/2000/svg">
<path d="M16.3162 57.8053L18.7815 62.0636C19.2938 62.9601 20.0301 63.6645 20.8946 64.1768C23.3707 61.0337 25.0943 58.6218 26.0654 56.9409C27.0509 55.235 28.2623 52.5669 29.6994 48.9365C25.8265 48.4268 22.8916 48.1719 20.8946 48.1719C18.9783 48.1719 16.0434 48.4268 12.0898 48.9365C12.0898 49.9291 12.346 50.9216 12.8583 51.8181L16.3162 57.8053Z" fill="#0066DA"/>
<path d="M59.1947 64.1768C60.0591 63.6645 60.7955 62.9601 61.3078 62.0636L62.3324 60.3027L67.231 51.8181C67.7433 50.9216 67.9994 49.9291 67.9994 48.9365C64.023 48.4268 61.0934 48.1719 59.2106 48.1719C57.1873 48.1719 54.2577 48.4268 50.4219 48.9365C51.842 52.5868 53.0374 55.2549 54.0078 56.9409C54.9869 58.6416 56.7158 61.0536 59.1947 64.1768Z" fill="#EA4335"/>
<path d="M40.0353 31.0087C42.9002 27.5485 44.8747 24.8804 45.9585 23.0044C46.8313 21.4937 47.7918 19.0817 48.84 15.7684C47.9756 15.2561 46.983 15 45.9585 15H34.1121C33.0875 15 32.095 15.2882 31.2305 15.7684C32.5639 19.5684 33.6953 22.2729 34.6248 23.8817C35.6519 25.6596 37.4554 28.0353 40.0353 31.0087Z" fill="#00832D"/>
<path d="M50.3864 48.9414H29.7032L20.8984 64.1816C21.7629 64.694 22.7555 64.9501 23.78 64.9501H56.3097C57.3343 64.9501 58.3268 64.6619 59.1913 64.1816L50.3864 48.9414Z" fill="#2684FC"/>
<path d="M40.041 31.0098L31.2363 15.7695C30.3718 16.2818 29.6354 16.9862 29.1231 17.8827L12.8583 46.058C12.346 46.9545 12.0898 47.947 12.0898 48.9396H29.6994L40.041 31.0098Z" fill="#00AC47"/>
<path d="M59.0894 31.9704L50.957 17.8827C50.4447 16.9862 49.7083 16.2818 48.8438 15.7695L40.0391 31.0098L50.3807 48.9396H67.9583C67.9583 47.947 67.7021 46.9545 67.1898 46.058L59.0894 31.9704Z" fill="#FFBA00"/>
</svg>
