<svg width="80" height="80" viewBox="0 0 80 80" fill="none" xmlns="http://www.w3.org/2000/svg">
<path d="M40.2433 46.8633L27.8868 57.298L22.6641 53.7847V57.7219L40.2063 68.4889L57.7485 57.7219V53.7847L52.5648 57.298L40.2433 46.8633Z" fill="white"/>
<path d="M40.2109 68.485L57.7532 57.718V53.7808L52.5694 57.2941L40.248 46.8594" fill="white"/>
<path d="M40.2116 44.61L22.2903 33.457L10 43.3772L27.7751 55.0729L40.2116 44.61Z" fill="white"/>
<path d="M10 43.3789L27.7751 55.0747L40.2116 44.6117" fill="white"/>
<path d="M40.2109 44.6119L52.6493 55.0749L70.4225 43.3801L58.1342 33.457H58.1332L40.2109 44.6119Z" fill="white"/>
<path d="M52.6484 55.0749L70.4216 43.3801L58.1333 33.457H58.1323" fill="white"/>
<path d="M52.6493 12L40.2129 22.6228H40.2109L58.1342 33.458L70.2325 23.6578L52.6493 12Z" fill="white"/>
<path d="M58.1333 33.458L70.4216 23.6578L52.6484 12" fill="white"/>
<path d="M40.2116 22.6228L27.7732 12L10 23.6178L22.2883 33.6559L40.2096 22.6228H40.2116Z" fill="white"/>
<path d="M22.2891 33.6169L40.2104 22.6228H40.2123L27.7739 12" fill="white"/>
</svg>
