<svg width="28" height="28" viewBox="0 0 28 28" fill="none" xmlns="http://www.w3.org/2000/svg">
<path opacity="0.5" d="M5.83594 22.1654L5.10259 22.0082C5.04928 22.257 5.12571 22.5158 5.30559 22.6957C5.48547 22.8756 5.74428 22.952 5.99303 22.8987L5.83594 22.1654ZM6.71509 18.0627L6.18476 17.5323C6.08253 17.6346 6.01203 17.7642 5.98174 17.9055L6.71509 18.0627ZM18.144 6.63372L17.6138 6.10327L17.6137 6.10339L18.144 6.63372ZM21.6606 6.63337L22.1909 6.10299L21.6606 6.63337ZM21.6606 9.85757L22.1843 10.3946L22.191 10.3879L21.6606 9.85757ZM9.93864 21.2865L10.0957 22.0199C10.234 21.9903 10.361 21.9222 10.4622 21.8235L9.93864 21.2865ZM6.56929 22.3225L7.44844 18.2198L5.98174 17.9055L5.10259 22.0082L6.56929 22.3225ZM18.6742 7.16417C18.8978 6.94076 19.2786 6.67819 19.7032 6.60325C20.0757 6.53751 20.5643 6.59775 21.1304 7.16375L22.1909 6.10299C21.2922 5.20449 20.3155 4.97199 19.4425 5.12609C18.6215 5.27099 17.9764 5.74085 17.6138 6.10327L18.6742 7.16417ZM21.1304 7.16375C21.7236 7.75688 21.7462 8.17236 21.695 8.42823C21.63 8.75286 21.3968 9.06068 21.1303 9.32727L22.191 10.3879C22.5105 10.0683 23.0107 9.49716 23.1658 8.72281C23.3346 7.8797 23.0642 6.97617 22.1909 6.10299L21.1304 7.16375ZM9.78154 20.5531L5.67884 21.432L5.99303 22.8987L10.0957 22.0199L9.78154 20.5531ZM7.24542 18.593L16.0366 9.8018L14.976 8.74114L6.18476 17.5323L7.24542 18.593ZM16.0366 9.8018L18.6744 7.16405L17.6137 6.10339L14.976 8.74114L16.0366 9.8018ZM21.1371 9.32057L18.2066 12.1778L19.2537 13.2518L22.1842 10.3946L21.1371 9.32057ZM18.2066 12.1778L9.41506 20.7495L10.4622 21.8235L19.2537 13.2518L18.2066 12.1778ZM14.9588 9.78406L18.1826 13.2274L19.2776 12.2022L16.0538 8.75887L14.9588 9.78406Z" fill="black"/>
</svg>
