<svg width="48" height="48" viewBox="0 0 48 48" fill="none" xmlns="http://www.w3.org/2000/svg">
<rect width="26.1501" height="13.4463" rx="2" transform="matrix(0.707078 -0.707135 0.707078 0.707135 11.5 24.4922)" stroke="black" stroke-width="1.5"/>
<path d="M17.1641 19.4277L26.3847 28.6491" stroke="black" stroke-width="1.5" stroke-linecap="round"/>
<path fill-rule="evenodd" clip-rule="evenodd" d="M28.0099 35.7713C27.9554 36.3209 27.4658 36.7223 26.9162 36.6679C24.7311 36.4515 22.4905 36.4883 20.218 36.5256C19.9487 36.53 19.679 36.5344 19.4089 36.5384C19.6401 36.7004 19.8839 36.8631 20.1389 37.0333L20.1499 37.0406C21.5579 37.9804 22.9332 38.8867 24.3692 39.7034C24.5595 39.8116 24.9085 40.0392 25.0625 40.4606C25.2699 41.0284 24.9932 41.4902 24.7653 41.7162C24.5656 41.9143 24.3238 42.0319 24.1615 42.1005C23.9794 42.1775 23.7831 42.2391 23.5997 42.2886C22.8848 42.4815 22.0231 42.5797 21.9204 42.5882C19.58 42.782 17.2768 42.6601 15.0088 42.4688C14.9153 42.4609 14.8222 42.453 14.7295 42.4451C13.1099 42.3077 11.5982 42.1794 10.0914 42.3205C9.54148 42.372 9.05397 41.968 9.00247 41.4181C8.95097 40.8682 9.35499 40.3807 9.90487 40.3292C11.5965 40.1708 13.276 40.3139 14.8546 40.4485C14.9625 40.4577 15.0699 40.4669 15.1769 40.4759C17.4122 40.6644 19.5833 40.7749 21.7553 40.595C21.7536 40.5952 21.7551 40.595 21.7598 40.5945C21.7736 40.593 21.8155 40.5883 21.8854 40.5794C21.8971 40.5779 21.9093 40.5764 21.922 40.5747C20.9405 39.9679 19.9852 39.3353 19.0397 38.7042C19.0112 38.6852 18.9825 38.6661 18.9536 38.6468C18.2632 38.1865 17.4528 37.6462 16.7802 36.9459C16.7771 36.9428 16.7737 36.9392 16.77 36.9353C16.7194 36.8829 16.6078 36.7672 16.5074 36.6315C16.4159 36.5077 16.2254 36.2285 16.1932 35.8544C16.1597 35.4644 16.3303 35.1602 16.4942 34.9806C16.6558 34.8037 16.8894 34.6564 17.1725 34.6085C17.6458 34.5285 18.2343 34.5366 18.6494 34.5423C18.7727 34.544 18.8807 34.5455 18.9659 34.5444C19.3605 34.5393 19.7594 34.5327 20.1615 34.526C22.4302 34.4883 24.8031 34.4488 27.1133 34.6776C27.6629 34.732 28.0643 35.2217 28.0099 35.7713ZM23.4071 41.459C23.4065 41.4591 23.3998 41.4552 23.3889 41.4468C23.4022 41.4547 23.4077 41.4589 23.4071 41.459ZM23.4294 40.2366C23.4313 40.2353 23.4324 40.2348 23.4325 40.2348C23.4325 40.2348 23.4315 40.2354 23.4294 40.2366Z" fill="black"/>
</svg>
