<svg width="48" height="48" viewBox="0 0 48 48" fill="none" xmlns="http://www.w3.org/2000/svg">
<rect width="26.1501" height="13.4463" rx="2" transform="matrix(0.707078 -0.707135 0.707078 0.707135 11.5 24.4922)" stroke="black" stroke-width="1.5"/>
<path d="M17.1641 19.4277L26.3847 28.6491" stroke="black" stroke-width="1.5" stroke-linecap="round"/>
<path fill-rule="evenodd" clip-rule="evenodd" d="M19.7489 34.5328C19.4863 34.5371 19.2252 34.5411 18.9659 34.5444C18.8807 34.5455 18.7728 34.544 18.6495 34.5423L18.6494 34.5423C18.2343 34.5366 17.6458 34.5285 17.1725 34.6085C16.8894 34.6564 16.6558 34.8037 16.4942 34.9806C16.3303 35.1602 16.1597 35.4644 16.1932 35.8544C16.2254 36.2285 16.4159 36.5077 16.5074 36.6315C16.6078 36.7672 16.7194 36.8829 16.77 36.9353L16.77 36.9353L16.7802 36.9459C17.4462 37.6394 18.2474 38.1759 18.9333 38.6333C19.2291 37.2652 19.5089 35.904 19.7489 34.5328ZM20.3286 40.6736C20.8046 40.6598 21.2799 40.6344 21.7554 40.595C21.7536 40.5952 21.7551 40.595 21.7598 40.5945C21.7736 40.593 21.8155 40.5883 21.8854 40.5794L21.922 40.5747C21.4573 40.2874 20.9984 39.9943 20.5437 39.6983C20.6965 39.001 20.8471 38.302 20.992 37.6003C22.1108 38.3395 23.2206 39.0501 24.3692 39.7034C24.5595 39.8116 24.9085 40.0392 25.0625 40.4606C25.2699 41.0284 24.9932 41.4902 24.7653 41.7162C24.5656 41.9143 24.3238 42.0319 24.1615 42.1005C23.9794 42.1775 23.7831 42.2391 23.5997 42.2886C22.8848 42.4815 22.0231 42.5797 21.9204 42.5882C21.2471 42.6439 20.5769 42.6736 19.9097 42.6829C19.9121 42.5949 19.9187 42.5252 19.9347 42.4525C20.0262 42.0365 20.1186 41.6205 20.2109 41.2041L20.2111 41.2036C20.2502 41.027 20.2894 40.8503 20.3286 40.6736ZM18.4848 40.6735C17.3928 40.6447 16.2928 40.57 15.1769 40.4759L14.8546 40.4485C13.276 40.3139 11.5965 40.1708 9.90487 40.3292C9.35499 40.3807 8.95097 40.8682 9.00247 41.4181C9.05397 41.968 9.54148 42.372 10.0914 42.3205C11.5982 42.1794 13.1099 42.3077 14.7295 42.4451L15.0088 42.4688C16.0352 42.5554 17.0687 42.6277 18.1097 42.663C18.1153 42.4776 18.1321 42.2687 18.1768 42.0657C18.2693 41.6452 18.3621 41.2266 18.4547 40.8094L18.4548 40.8087L18.4548 40.8087C18.4648 40.7636 18.4748 40.7185 18.4848 40.6735ZM21.2117 36.51C23.1439 36.4829 25.0503 36.4831 26.9162 36.6679C27.4658 36.7223 27.9554 36.3209 28.0099 35.7713C28.0643 35.2217 27.6629 34.732 27.1133 34.6776C25.2806 34.4961 23.4085 34.4834 21.5803 34.5048C21.466 35.1766 21.3422 35.8447 21.2117 36.51ZM23.4071 41.459C23.4065 41.4591 23.3998 41.4552 23.3889 41.4468C23.4022 41.4547 23.4077 41.4589 23.4071 41.459ZM23.4294 40.2366L23.4325 40.2348C23.4325 40.2348 23.4315 40.2354 23.4294 40.2366Z" fill="black"/>
</svg>
