<svg width="48" height="48" viewBox="0 0 48 48" fill="none" xmlns="http://www.w3.org/2000/svg">
<path d="M45.002 16.9434C44.8283 17.4953 44.7399 18.0729 44.4954 18.6053C44.1666 19.3197 43.7319 19.961 43.1791 20.515C39.447 24.2551 35.7097 27.9901 31.9735 31.7261C31.9159 31.7836 31.8491 31.8309 31.7865 31.8823C30.6664 30.7671 29.5464 29.651 28.4253 28.5358C26.9281 27.0455 25.4299 25.5552 23.9328 24.0649C23.9307 24.0413 23.9297 24.0187 23.9297 23.9951C24.0509 23.8861 24.1784 23.7844 24.2934 23.6692C29.2977 18.666 34.2999 13.6617 39.3052 8.66049C39.4357 8.52996 39.5343 8.34393 39.7542 8.33057C41.1342 9.70677 42.6067 10.9956 43.8306 12.5198C44.4461 13.2855 44.7954 14.1869 44.929 15.1664C44.9352 15.2147 44.9773 15.2578 45.003 15.3031C45.002 15.8498 45.002 16.3966 45.002 16.9434Z" fill="#5393CE"/>
<path d="M23.9307 23.9957C23.9307 24.0193 23.9317 24.0419 23.9337 24.0656C23.8258 24.1879 23.7251 24.3174 23.6101 24.4325C19.8153 28.2312 16.0184 32.0268 12.2226 35.8255C11.7704 36.2777 11.7766 36.1637 12.2359 36.6262C13.2769 37.6724 14.3219 38.7136 15.3649 39.7578C17.0953 41.4886 19.9201 41.9686 22.1365 40.9449C22.5527 40.7527 22.8938 40.4197 23.3542 40.3221C22.6637 41.0333 21.9742 41.7456 21.2836 42.4568C20.1934 43.5822 18.9963 44.5391 17.4231 44.9009C17.27 44.9471 17.085 44.8454 16.9545 44.9995C16.3801 44.9995 15.8067 44.9995 15.2323 44.9995C14.9908 44.8423 14.7 44.8484 14.4349 44.7703C13.6016 44.5267 12.8309 44.1537 12.1917 43.5719C10.8539 42.354 9.60126 41.0487 8.34146 39.7506C8.43908 39.6376 8.53053 39.5194 8.63637 39.4135C9.60948 38.4371 10.5774 37.4566 11.5639 36.4936C11.7848 36.2777 11.7818 36.1585 11.5629 35.9427C10.3853 34.7864 9.22209 33.6127 8.0558 32.4451C7.96948 32.3588 7.877 32.2745 7.80404 32.1769C6.23392 30.1028 6.08184 27.4336 7.40535 25.2064C7.47522 25.0882 7.54202 24.969 7.5266 24.8231C7.84206 24.5024 8.15547 24.1807 8.47299 23.8621C10.9258 21.4077 13.3796 18.9544 15.8334 16.5011C15.929 16.4055 16.0328 16.3161 16.1335 16.2246C18.0057 18.0962 19.8769 19.9688 21.7512 21.8384C22.4725 22.5609 23.2031 23.2762 23.9307 23.9957Z" fill="#E55739"/>
<path d="M23.9242 23.996C23.1967 23.2776 22.4671 22.5612 21.7427 21.8387C19.8684 19.9691 17.9972 18.0965 16.125 16.2249C16.2154 16.1231 16.2997 16.0163 16.3953 15.9207C20.0349 12.2792 23.6756 8.63881 27.3142 4.99634C28.2421 4.06825 29.3118 3.39196 30.6137 3.13605C32.601 2.74549 34.3879 3.19155 35.9067 4.52972C37.2579 5.72093 38.4848 7.04574 39.7477 8.32945C39.5278 8.34384 39.4292 8.52884 39.2987 8.65937C34.2934 13.6606 29.2912 18.6659 24.287 23.6681C24.1729 23.7843 24.0455 23.887 23.9242 23.996Z" fill="#669FD5"/>
<path d="M7.52108 24.8231C7.5365 24.968 7.4697 25.0883 7.39983 25.2065C6.07735 27.4347 6.2284 30.1039 7.79852 32.1769C7.87251 32.2746 7.96396 32.3578 8.05028 32.4452C9.21759 33.6127 10.3798 34.7854 11.5574 35.9427C11.7762 36.1575 11.7793 36.2778 11.5584 36.4936C10.573 37.4567 9.60396 38.4372 8.63085 39.4136C8.52604 39.5194 8.43459 39.6376 8.33594 39.7507C7.06793 38.4742 5.75572 37.2377 4.54011 35.9129C2.46751 33.6539 2.50142 30.0895 4.55347 27.8099C5.49575 26.7636 6.49968 25.7841 7.52108 24.8231Z" fill="#F26C52"/>
<path d="M23.3496 40.3208C22.8892 40.4195 22.5481 40.7515 22.1319 40.9437C19.9165 41.9663 17.0907 41.4874 15.3603 39.7566C14.3173 38.7134 13.2722 37.6712 12.2313 36.6249C11.772 36.1624 11.7658 36.2765 12.218 35.8243C16.0128 32.0256 19.8096 28.2299 23.6054 24.4312C23.7205 24.3161 23.8212 24.1866 23.9291 24.0643C25.4263 25.5546 26.9245 27.0449 28.4216 28.5352C29.5417 29.6503 30.6617 30.7665 31.7828 31.8817C31.4129 32.262 31.0471 32.6453 30.672 33.0205C28.359 35.3381 26.0428 37.6537 23.7277 39.9693C23.6609 40.0361 23.587 40.0947 23.5161 40.1574C23.4873 40.1852 23.4585 40.2139 23.4297 40.2417C23.402 40.2694 23.3763 40.2951 23.3496 40.3208Z" fill="#CF4729"/>
<path d="M23.4316 40.2428C23.4604 40.2151 23.4892 40.1863 23.518 40.1586C23.4892 40.1863 23.4604 40.2141 23.4316 40.2428Z" fill="#E55739"/>
</svg>
