<svg width="137" height="102" viewBox="0 0 137 102" fill="none" xmlns="http://www.w3.org/2000/svg">
<g style="mix-blend-mode:multiply">
<path opacity="0.09" d="M132.982 60.9416L53.5262 23.4826L51.9691 22.7708L21.6282 8.62359C20.9771 8.31542 20.2715 8.13886 19.5519 8.10405C18.8323 8.06924 18.113 8.17685 17.4351 8.42072C16.7572 8.66459 16.1342 9.03992 15.6017 9.52516C15.0692 10.0104 14.6378 10.596 14.3322 11.2484L3.34365 34.6491L2.85428 35.7168L1.47515 38.4751L0.67437 40.1656C0.3662 40.8168 0.189644 41.5224 0.154831 42.242C0.120018 42.9615 0.227634 43.6809 0.471504 44.3588C0.715374 45.0366 1.0907 45.6597 1.57594 46.1922C2.06118 46.7246 2.64679 47.1561 3.29917 47.4617L31.7715 60.8081L33.8625 61.8313L114.43 99.6907C115.084 99.9974 115.792 100.172 116.514 100.203C117.235 100.235 117.956 100.124 118.634 99.8755C119.313 99.6273 119.935 99.2474 120.466 98.7575C120.996 98.2677 121.425 97.6776 121.726 97.0214L123.728 92.5726L123.995 92.0387V91.8163V91.5493L134.984 68.1486C135.617 66.9155 135.762 65.4894 135.391 64.154C135.02 62.8186 134.16 61.6717 132.982 60.9416Z" fill="#F4F4F4"/>
<path opacity="0.18" d="M132.988 60.1394L53.5325 22.6805L51.9754 21.9242L21.6345 7.77697C20.3177 7.16669 18.8133 7.09999 17.4476 7.59132C16.0819 8.08265 14.9648 9.09242 14.3385 10.4018L3.34995 34.0249L2.86058 35.0926L1.52594 37.9399L0.725151 39.6304C0.416981 40.2816 0.240425 40.9872 0.205612 41.7068C0.170799 42.4263 0.278415 43.1457 0.522285 43.8236C0.766155 44.5014 1.14148 45.1245 1.62672 45.657C2.11196 46.1894 2.69757 46.6208 3.34995 46.9265L31.8223 60.2729L33.9132 61.2516L114.481 99.1109C115.152 99.4421 115.883 99.6323 116.631 99.6696C117.378 99.7069 118.125 99.5907 118.825 99.328C119.525 99.0653 120.165 98.6618 120.703 98.1424C121.241 97.623 121.667 96.9988 121.955 96.3082L123.957 91.8594L124.224 91.2811V91.0141L135.213 67.6579C135.564 67.019 135.785 66.3168 135.863 65.5919C135.942 64.867 135.875 64.1338 135.669 63.4347C135.462 62.7355 135.118 62.0843 134.658 61.5187C134.198 60.9531 133.631 60.4843 132.988 60.1394Z" fill="#E9E9E9"/>
<path opacity="0.27" d="M132.988 59.2941L53.5325 21.8797L51.753 21.1234L21.6345 6.97619C20.3177 6.36591 18.8133 6.29921 17.4476 6.79054C16.0819 7.28187 14.9648 8.29164 14.3385 9.60098L3.34995 33.0017L2.86058 34.0249L1.52594 36.8722L0.725151 38.5627C0.416981 39.2139 0.240425 39.9195 0.205612 40.6391C0.170799 41.3586 0.278415 42.078 0.522285 42.7559C0.766155 43.4337 1.14148 44.0568 1.62672 44.5893C2.11196 45.1217 2.69757 45.5531 3.34995 45.8587L31.8223 59.2052L33.9132 60.1839L114.481 98.0432C115.132 98.3514 115.838 98.528 116.557 98.5628C117.277 98.5976 117.996 98.49 118.674 98.2461C119.352 98.0022 119.975 97.6269 120.508 97.1417C121.04 96.6564 121.472 96.0708 121.777 95.4184L123.779 90.9696L124.046 90.3913V90.0799L135.035 66.6792C135.717 65.4229 135.885 63.9509 135.503 62.5733C135.121 61.1957 134.22 60.0201 132.988 59.2941Z" fill="#DEDEDE"/>
<path opacity="0.36" d="M132.988 58.4934L53.5325 21.0789L51.9754 20.3226L21.6345 6.17541C20.3177 5.56513 18.8133 5.49843 17.4476 5.98976C16.0819 6.48109 14.9648 7.49086 14.3385 8.8002L3.34995 32.2009L2.86058 33.2686L1.52594 36.1159L0.725151 37.8064C0.416981 38.4576 0.240425 39.1632 0.205612 39.8828C0.170799 40.6023 0.278415 41.3217 0.522285 41.9996C0.766155 42.6774 1.14148 43.3005 1.62672 43.833C2.11196 44.3654 2.69757 44.7969 3.34995 45.1025L31.8223 58.4489L33.9132 59.4721L114.481 97.3314C115.132 97.6396 115.838 97.8162 116.557 97.851C117.277 97.8858 117.996 97.7782 118.674 97.5343C119.352 97.2904 119.975 96.9151 120.508 96.4299C121.04 95.9446 121.472 95.359 121.777 94.7066L123.779 90.2578L124.046 89.724V89.5015V89.2346L135.035 65.8339C135.703 64.582 135.864 63.1206 135.483 61.7535C135.101 60.3864 134.208 59.2187 132.988 58.4934Z" fill="#D3D3D3"/>
<path opacity="0.45" d="M132.982 57.6935L53.5262 20.279L51.9691 19.5227L21.6282 5.37554C20.9771 5.06737 20.2715 4.89082 19.5519 4.856C18.8323 4.82119 18.113 4.92881 17.4351 5.17268C16.7572 5.41655 16.1342 5.79187 15.6017 6.27711C15.0692 6.76235 14.6378 7.34796 14.3322 8.00034L3.34365 31.4011L2.85428 32.4688L1.47515 35.3605L0.674369 37.0955C0.3662 37.7467 0.189643 38.4523 0.154831 39.1719C0.120018 39.8914 0.227634 40.6108 0.471504 41.2887C0.715374 41.9665 1.0907 42.5896 1.57594 43.1221C2.06118 43.6545 2.64679 44.086 3.29916 44.3916L31.7715 57.738L33.8625 58.7612L114.43 96.6205C115.747 97.2308 117.252 97.2975 118.617 96.8062C119.983 96.3149 121.1 95.3051 121.726 93.9958L123.728 89.5469L123.995 89.0131V88.7906V88.5237L135.607 65.1675C135.937 64.5065 136.131 63.7859 136.177 63.0486C136.223 62.3112 136.121 61.572 135.876 60.8749C135.631 60.1778 135.249 59.537 134.752 58.9905C134.255 58.444 133.653 58.0029 132.982 57.6935Z" fill="#C8C8C8"/>
<path opacity="0.55" d="M132.985 56.8967L53.5295 19.4377L51.9725 18.7259L21.6316 4.57871C20.9723 4.27482 20.2592 4.10515 19.5337 4.07957C18.8082 4.05399 18.0849 4.17302 17.4059 4.42973C16.7269 4.68644 16.1057 5.07569 15.5786 5.57481C15.0515 6.07393 14.6289 6.67295 14.3356 7.33697L3.34701 30.6042L2.85764 31.6275L1.523 34.4747L0.677728 36.2542C0.363452 36.9043 0.182064 37.6106 0.14419 38.3317C0.106316 39.0528 0.212716 39.7743 0.457158 40.4537C0.701601 41.1332 1.07917 41.7571 1.56775 42.2888C2.05634 42.8205 2.64611 43.2493 3.30252 43.5503L31.7749 56.8967L33.8658 57.9199L114.434 95.7792C115.751 96.3895 117.255 96.4562 118.621 95.9649C119.986 95.4736 121.103 94.4638 121.73 93.1544L123.732 88.7056L123.999 88.1718V87.9493V87.6824L134.987 64.2817C135.673 63.0308 135.848 61.5627 135.475 60.1857C135.101 58.8087 134.209 57.6298 132.985 56.8967Z" fill="#BEBEBE"/>
<path opacity="0.64" d="M132.985 56.2684L53.5297 18.6315L51.9726 17.8752L21.6317 3.72797C20.3094 3.1207 18.8007 3.06049 17.4341 3.56044C16.0676 4.06039 14.9539 5.08001 14.3357 6.39726L3.34714 29.5755L2.85778 30.6432L1.52313 33.4905L0.722349 35.181C0.339883 35.8496 0.102855 36.5913 0.0267673 37.3577C-0.0493201 38.1242 0.0372471 38.898 0.280807 39.6287C0.524367 40.3594 0.919433 41.0304 1.44017 41.5979C1.9609 42.1654 2.59556 42.6166 3.30266 42.922L31.775 56.2684L33.866 57.2471L114.434 95.1065C115.756 95.7137 117.265 95.7739 118.631 95.274C119.998 94.774 121.112 93.7544 121.73 92.4372L123.732 87.9884L123.999 87.4545V87.2321V86.9651L134.987 63.6089C135.66 62.3623 135.827 60.9048 135.454 59.5383C135.082 58.1718 134.198 57.0009 132.985 56.2684Z" fill="#B3B3B3"/>
<path opacity="0.73" d="M132.989 55.2913L53.5329 17.8324L51.9758 17.0761L21.6349 2.88439C20.318 2.27411 18.8137 2.20741 17.448 2.69874C16.0822 3.19007 14.9652 4.19984 14.3389 5.50919L3.35034 28.9544L2.86097 30.0221L1.52633 32.8693L0.725541 34.5599C0.401917 35.2128 0.211946 35.9237 0.166775 36.651C0.121603 37.3782 0.222141 38.1072 0.46249 38.7951C0.702838 39.483 1.07816 40.1159 1.56642 40.6568C2.05468 41.1977 2.64606 41.6357 3.30585 41.9449L31.7782 55.2913L33.8691 56.2701L114.437 94.1294C115.077 94.4852 115.782 94.7088 116.51 94.7871C117.239 94.8654 117.975 94.7967 118.676 94.5851C119.377 94.3735 120.029 94.0233 120.592 93.5553C121.155 93.0873 121.619 92.511 121.956 91.8605L123.957 87.4117L124.224 86.8334V86.5219L135.213 63.1212C135.629 62.4735 135.903 61.7447 136.015 60.9832C136.128 60.2217 136.078 59.4449 135.868 58.7044C135.657 57.9638 135.292 57.2765 134.795 56.6881C134.299 56.0996 133.683 55.6235 132.989 55.2913Z" fill="#A8A8A8"/>
<path opacity="0.82" d="M132.986 54.4445L53.5299 17.0301L51.7504 16.2293L21.632 2.12658C20.3151 1.5163 18.8107 1.4496 17.445 1.94093C16.0793 2.43226 14.9622 3.44203 14.3359 4.75137L3.34738 28.1521L2.85801 29.2198L1.52337 32.067L0.678096 34.0245C0.110842 35.3202 0.0673305 36.7852 0.556687 38.1123C1.04604 39.4394 2.03025 40.5254 3.30289 41.1426L31.7752 54.489L33.8662 55.4678L114.434 93.3271C115.085 93.6353 115.791 93.8118 116.51 93.8466C117.23 93.8815 117.949 93.7738 118.627 93.53C119.305 93.2861 119.928 92.9108 120.461 92.4255C120.993 91.9403 121.424 91.3547 121.73 90.7023L123.732 86.2535L123.999 85.6752V85.4527V85.1858L134.988 61.7851C135.66 60.5385 135.827 59.081 135.455 57.7144C135.082 56.3479 134.198 55.1771 132.986 54.4445Z" fill="#9D9D9D"/>
<path opacity="0.91" d="M132.982 53.6427L53.5262 16.2283L51.9691 15.472L21.6282 1.32476C20.9771 1.01659 20.2715 0.840034 19.5519 0.805221C18.8323 0.770408 18.113 0.878024 17.4351 1.12189C16.7572 1.36576 16.1342 1.74109 15.6017 2.22633C15.0692 2.71157 14.6378 3.29718 14.3322 3.94956L3.34365 27.3503L2.85428 28.418L1.47515 31.3542L0.67437 33.0447C0.3662 33.6959 0.189644 34.4015 0.154831 35.1211C0.120018 35.8407 0.227634 36.56 0.471504 37.2379C0.715374 37.9158 1.0907 38.5388 1.57594 39.0713C2.06118 39.6038 2.64679 40.0352 3.29917 40.3408L31.7715 53.6872L33.8625 54.7104L114.43 92.5698C115.747 93.18 117.252 93.2467 118.617 92.7554C119.983 92.2641 121.1 91.2543 121.726 89.945L123.728 85.4962L123.995 84.9623V84.7399V84.4729L134.984 61.0722C135.684 59.817 135.866 58.3384 135.492 56.9508C135.118 55.5633 134.218 54.3764 132.982 53.6427Z" fill="#929292"/>
<path d="M132.982 52.8439L53.5262 15.4294L51.9691 14.6731L21.6282 0.525932C20.9771 0.217762 20.2715 0.041206 19.5519 0.00639312C18.8323 -0.0284198 18.113 0.0791962 17.4351 0.323066C16.7572 0.566936 16.1342 0.94226 15.6017 1.4275C15.0692 1.91274 14.6378 2.49835 14.3322 3.15073L3.34365 26.5514L2.85428 27.6192L1.51964 30.4664L0.674369 32.2459C0.3662 32.8971 0.189643 33.6027 0.154831 34.3223C0.120018 35.0418 0.227634 35.7612 0.471504 36.4391C0.715374 37.1169 1.0907 37.74 1.57594 38.2725C2.06118 38.8049 2.64679 39.2364 3.29916 39.542L31.7715 52.8884L33.8625 53.9116L114.653 91.8599C115.97 92.4702 117.474 92.5369 118.84 92.0456C120.205 91.5542 121.323 90.5445 121.949 89.2351L123.951 84.7863L124.218 84.2525V84.03V83.7631L135.206 60.3624C135.558 59.7235 135.779 59.0213 135.857 58.2964C135.935 57.5715 135.869 56.8383 135.662 56.1392C135.455 55.44 135.112 54.7888 134.652 54.2232C134.192 53.6576 133.624 53.1888 132.982 52.8439Z" fill="#878787"/>
</g>
<path d="M21.6282 0.525932C20.9771 0.217762 20.2715 0.041206 19.5519 0.00639312C18.8323 -0.0284198 18.113 0.0791962 17.4351 0.323066C16.7572 0.566936 16.1342 0.94226 15.6017 1.4275C15.0692 1.91274 14.6378 2.49835 14.3322 3.15073L0.674369 32.2459C0.3662 32.8971 0.189643 33.6027 0.154831 34.3223C0.120018 35.0418 0.227634 35.7612 0.471504 36.4391C0.715374 37.1169 1.0907 37.74 1.57594 38.2725C2.06118 38.8049 2.64679 39.2364 3.29916 39.542L34.0849 54.0006L52.414 14.9846L21.6282 0.525932Z" fill="#4A4A4A"/>
<path style="mix-blend-mode:multiply" d="M21.6282 0.525932C20.9771 0.217762 20.2715 0.041206 19.5519 0.00639312C18.8323 -0.0284198 18.113 0.0791962 17.4351 0.323066C16.7572 0.566936 16.1342 0.94226 15.6017 1.4275C15.0692 1.91274 14.6378 2.49835 14.3322 3.15073L0.674369 32.2459C0.3662 32.8971 0.189643 33.6027 0.154831 34.3223C0.120018 35.0418 0.227634 35.7612 0.471504 36.4391C0.715374 37.1169 1.0907 37.74 1.57594 38.2725C2.06118 38.8049 2.64679 39.2364 3.29916 39.542L34.0849 54.0006L52.414 14.9846L21.6282 0.525932Z" fill="url(#paint0_linear_4467_118012)"/>
<path d="M121.954 89.2389L135.612 60.1437C136.222 58.8268 136.289 57.3224 135.797 55.9567C135.306 54.591 134.296 53.4739 132.987 52.8476L52.4189 14.9883L34.0898 54.0043L114.658 91.8636C115.975 92.4739 117.479 92.5406 118.845 92.0493C120.21 91.558 121.327 90.5482 121.954 89.2389Z" fill="#E9E9E9"/>
<path style="mix-blend-mode:multiply" d="M121.954 89.2389L135.612 60.1437C136.222 58.8268 136.289 57.3224 135.797 55.9567C135.306 54.591 134.296 53.4739 132.987 52.8476L52.4189 14.9883L34.0898 54.0043L114.658 91.8636C115.975 92.4739 117.479 92.5406 118.845 92.0493C120.21 91.558 121.327 90.5482 121.954 89.2389Z" fill="url(#paint1_linear_4467_118012)"/>
<path d="M53.3308 15.3823L50.1094 13.8691L31.7817 52.8881L35.0031 54.4012L53.3308 15.3823Z" fill="#ADADAD"/>
<g style="mix-blend-mode:multiply" opacity="0.3">
<path d="M116.21 88.4792L36.5762 51.0648L33.3286 49.5522L4.85625 36.2058C3.53553 35.5796 2.51732 34.4548 2.02518 33.0785C1.53305 31.7022 1.60724 30.1869 2.23145 28.8652L0.67437 32.2463C0.3662 32.8975 0.189644 33.6031 0.154831 34.3227C0.120018 35.0422 0.227634 35.7616 0.471504 36.4395C0.715374 37.1173 1.0907 37.7404 1.57594 38.2729C2.06118 38.8053 2.64679 39.2368 3.29917 39.5424L31.727 52.8888L34.9747 54.4014L114.653 91.8603C115.97 92.4706 117.474 92.5373 118.84 92.046C120.205 91.5547 121.323 90.5449 121.949 89.2355L123.506 85.8544C123.2 86.5068 122.769 87.0924 122.236 87.5777C121.704 88.0629 121.081 88.4382 120.403 88.6821C119.725 88.926 119.006 89.0336 118.286 88.9988C117.567 88.964 116.861 88.7874 116.21 88.4792Z" fill="#616161"/>
<path opacity="0.91" d="M116.344 88.3054L36.666 50.8465L33.4184 49.3339L4.99051 35.9874C4.33426 35.6859 3.74419 35.2574 3.25434 34.7267C2.76449 34.196 2.38454 33.5736 2.1364 32.8953C1.88825 32.2171 1.77683 31.4964 1.80855 30.7749C1.84028 30.0534 2.01452 29.3453 2.32122 28.6914L0.764142 32.0725C0.16766 33.3845 0.108343 34.8779 0.598882 36.2331C1.08942 37.5883 2.09086 38.6978 3.38894 39.3241L31.8613 52.6705L35.0644 54.2276L114.743 91.8645C116.059 92.4747 117.564 92.5414 118.93 92.0501C120.295 91.5588 121.412 90.549 122.039 89.2397L123.596 85.8586C122.955 87.1416 121.833 88.1192 120.475 88.5776C119.116 89.0361 117.631 88.9382 116.344 88.3054Z" fill="#6F6F6F"/>
<path opacity="0.82" d="M116.431 88.0808L36.7531 50.6218L33.5054 49.1093L5.07755 35.7628C4.42518 35.4572 3.83957 35.0258 3.35433 34.4933C2.86908 33.9609 2.49376 33.3378 2.24989 32.6599C2.00602 31.9821 1.89841 31.2627 1.93322 30.5431C1.96803 29.8236 2.14459 29.118 2.45276 28.4668L0.851187 31.8034C0.240911 33.1203 0.174209 34.6246 0.665538 35.9904C1.15687 37.3561 2.16664 38.4732 3.47598 39.0994L31.9483 52.4459L35.196 53.9585L114.83 91.3729C115.481 91.6811 116.186 91.8576 116.906 91.8925C117.626 91.9273 118.345 91.8196 119.023 91.5758C119.701 91.3319 120.324 90.9566 120.856 90.4713C121.389 89.9861 121.82 89.4005 122.126 88.7481L123.727 85.4115C123.109 86.7287 121.995 87.7484 120.629 88.2483C119.262 88.7483 117.754 88.6881 116.431 88.0808Z" fill="#7E7E7E"/>
<path opacity="0.73" d="M116.524 87.864L36.8456 50.4495L33.6425 48.8925L5.1701 35.546C4.51772 35.2404 3.93211 34.809 3.44687 34.2765C2.96163 33.7441 2.58631 33.121 2.34244 32.4431C2.09857 31.7653 1.99095 31.0459 2.02576 30.3263C2.06058 29.6068 2.23713 28.9012 2.5453 28.25L0.943732 31.5866C0.637024 32.2405 0.462785 32.9486 0.431063 33.6701C0.39934 34.3916 0.510762 35.1123 0.758903 35.7905C1.00704 36.4688 1.387 37.0912 1.87685 37.6219C2.3667 38.1526 2.95677 38.5811 3.61302 38.8826L32.0409 52.2291L35.2885 53.7417L114.967 91.1561C115.618 91.4643 116.323 91.6408 117.043 91.6757C117.763 91.7105 118.482 91.6029 119.16 91.359C119.838 91.1151 120.461 90.7398 120.993 90.2546C121.526 89.7693 121.957 89.1837 122.263 88.5313L123.82 85.1947C123.518 85.851 123.09 86.441 122.559 86.9309C122.028 87.4207 121.406 87.8007 120.728 88.0488C120.049 88.297 119.329 88.4084 118.607 88.3767C117.886 88.345 117.178 88.1707 116.524 87.864Z" fill="#8C8C8C"/>
<path opacity="0.64" d="M116.61 87.6374L36.9764 50.223L33.7288 48.7104L5.25643 35.364C3.93572 34.7378 2.9175 33.613 2.42537 32.2367C1.93324 30.8604 2.00743 29.3451 2.63164 28.0234L1.07456 31.36C0.495694 32.6543 0.446233 34.1236 0.936753 35.4539C1.42727 36.7841 2.41883 37.8696 3.69935 38.4781L32.1272 51.8246L35.3749 53.3371L115.053 90.7961C116.37 91.4064 117.874 91.4731 119.24 90.9817C120.606 90.4904 121.723 89.4806 122.349 88.1713L123.906 84.7902C123.621 85.462 123.205 86.0701 122.681 86.5785C122.158 87.087 121.538 87.4856 120.858 87.7509C120.178 88.0162 119.452 88.1428 118.723 88.1233C117.993 88.1039 117.275 87.9386 116.61 87.6374Z" fill="#9A9A9A"/>
<path opacity="0.55" d="M116.698 87.4109L37.0645 49.9964L33.8169 48.4838L5.38902 35.1374C4.72716 34.8361 4.13202 34.4058 3.63836 33.8718C3.1447 33.3378 2.76244 32.7107 2.51392 32.0273C2.26539 31.3439 2.15559 30.6177 2.19093 29.8914C2.22627 29.165 2.40604 28.453 2.71973 27.7969L1.16265 31.178C0.854481 31.8291 0.677925 32.5347 0.643112 33.2543C0.608299 33.9739 0.715915 34.6932 0.959785 35.3711C1.20365 36.049 1.57898 36.672 2.06422 37.2045C2.54946 37.737 3.13507 38.1684 3.78745 38.474L32.2598 51.8204L35.4629 53.333L115.141 90.792C116.458 91.4022 117.962 91.4689 119.328 90.9776C120.694 90.4863 121.811 89.4765 122.437 88.1672L123.994 84.7861C123.368 86.0954 122.251 87.1052 120.885 87.5965C119.519 88.0879 118.015 88.0212 116.698 87.4109Z" fill="#A9A9A9"/>
<path opacity="0.45" d="M116.832 87.415L37.1536 49.7781L33.906 48.2655L5.47811 34.9191C4.8217 34.6182 4.23192 34.1893 3.74334 33.6576C3.25476 33.1259 2.87719 32.502 2.63275 31.8226C2.3883 31.1431 2.2819 30.4217 2.31978 29.7006C2.35765 28.9795 2.53904 28.2732 2.85332 27.623L1.25175 30.9597C0.914506 31.6227 0.714867 32.3472 0.664834 33.0894C0.614802 33.8317 0.715411 34.5764 0.960611 35.2787C1.20581 35.9811 1.59053 36.6266 2.09164 37.1764C2.59275 37.7262 3.19989 38.169 3.87654 38.4781L32.3489 51.8246L35.73 53.1592L115.364 90.5736C116.015 90.8818 116.72 91.0584 117.44 91.0932C118.16 91.128 118.879 91.0204 119.557 90.7765C120.235 90.5326 120.858 90.1573 121.39 89.6721C121.923 89.1868 122.354 88.6012 122.66 87.9489L124.261 84.6123C123.968 85.2929 123.541 85.9076 123.005 86.4195C122.469 86.9314 121.835 87.33 121.142 87.5916C120.448 87.8532 119.709 87.9724 118.969 87.942C118.228 87.9117 117.501 87.7325 116.832 87.415Z" fill="#B7B7B7"/>
<path opacity="0.36" d="M116.926 87.0124L37.2479 49.5535L34.0448 48.0409L5.57244 34.6945C4.92007 34.3889 4.33446 33.9575 3.84922 33.425C3.36397 32.8925 2.98865 32.2695 2.74478 31.5916C2.50091 30.9137 2.39329 30.1943 2.42811 29.4748C2.46292 28.7552 2.63948 28.0496 2.94765 27.3984L1.34608 30.735C1.03937 31.3889 0.865129 32.097 0.833406 32.8185C0.801684 33.5401 0.913106 34.2607 1.16125 34.939C1.40939 35.6172 1.78934 36.2396 2.27919 36.7703C2.76905 37.301 3.35911 37.7295 4.01536 38.0311L32.4432 51.3775L35.6909 52.8901H35.7353L115.369 90.349C116.017 90.6563 116.719 90.8322 117.436 90.8664C118.152 90.9007 118.868 90.7926 119.542 90.5486C120.216 90.3045 120.835 89.9292 121.364 89.4445C121.892 88.9597 122.319 88.375 122.621 87.7242L124.222 84.3876C123.596 85.697 122.479 86.7068 121.113 87.1981C119.747 87.6894 118.243 87.6227 116.926 87.0124Z" fill="#C6C6C6"/>
<path opacity="0.27" d="M117.011 86.7937L37.377 49.3792L34.1294 47.8666L5.65703 34.5202C4.33632 33.894 3.3181 32.7693 2.82596 31.393C2.33383 30.0167 2.40802 28.5013 3.03223 27.1797L1.47515 30.5163C1.16698 31.1675 0.990425 31.8731 0.955612 32.5926C0.920799 33.3122 1.02841 34.0316 1.27228 34.7094C1.51615 35.3873 1.89148 36.0104 2.37672 36.5428C2.86196 37.0753 3.44757 37.5067 4.09995 37.8123L32.5278 51.1588L35.731 52.7158L115.409 90.1748C116.072 90.4795 116.788 90.6499 117.517 90.676C118.245 90.7021 118.972 90.5835 119.655 90.327C120.337 90.0705 120.962 89.6812 121.494 89.1816C122.025 88.6821 122.452 88.0821 122.75 87.4165L124.307 84.0354C124.013 84.6995 123.591 85.2985 123.064 85.7976C122.537 86.2967 121.915 86.686 121.236 86.9427C120.557 87.1994 119.834 87.3184 119.109 87.2928C118.383 87.2673 117.67 87.0976 117.011 86.7937Z" fill="#D4D4D4"/>
<path opacity="0.18" d="M117.097 86.5671L37.463 49.1527L34.2153 47.6401L5.74297 34.2937C4.42225 33.6675 3.40403 32.5427 2.9119 31.1664C2.41977 29.7901 2.49396 28.2748 3.11817 26.9531L1.56109 30.3342C1.25292 30.9854 1.07636 31.691 1.04155 32.4106C1.00674 33.1301 1.11435 33.8495 1.35822 34.5274C1.60209 35.2052 1.97742 35.8283 2.46266 36.3608C2.9479 36.8932 3.53351 37.3247 4.18588 37.6303L32.6582 50.9767L35.8614 52.4893H35.7279L115.406 89.9482C116.059 90.2742 116.771 90.4672 117.5 90.5161C118.228 90.5649 118.96 90.4686 119.651 90.2327C120.342 89.9968 120.979 89.626 121.526 89.1419C122.073 88.6578 122.518 88.0699 122.836 87.4124L124.393 84.0313C123.759 85.3332 122.636 86.331 121.268 86.8063C119.901 87.2816 118.401 87.1956 117.097 86.5671Z" fill="#E2E2E2"/>
<path opacity="0.09" d="M117.232 86.387L37.5538 48.9281L34.3062 47.371L5.87833 34.0246C5.22596 33.719 4.64035 33.2875 4.15511 32.7551C3.66987 32.2226 3.29454 31.5995 3.05067 30.9217C2.8068 30.2438 2.69919 29.5244 2.734 28.8049C2.76881 28.0853 2.94537 27.3797 3.25354 26.7285L1.65197 30.1096C1.04169 31.4265 0.97499 32.9308 1.46632 34.2966C1.95765 35.6623 2.96742 36.7794 4.27676 37.4057L32.7491 50.7521L35.9967 52.3091L115.808 89.7236C116.459 90.0318 117.165 90.2083 117.885 90.2431C118.604 90.278 119.324 90.1703 120.001 89.9265C120.679 89.6826 121.302 89.3073 121.835 88.822C122.367 88.3368 122.799 87.7512 123.104 87.0988L124.706 83.7177C124.406 84.3967 123.97 85.0075 123.426 85.5128C122.882 86.0182 122.241 86.4075 121.542 86.6573C120.843 86.907 120.1 87.0118 119.359 86.9653C118.618 86.9189 117.894 86.7221 117.232 86.387Z" fill="#F1F1F1"/>
</g>
<defs>
<linearGradient id="paint0_linear_4467_118012" x1="7.51798" y1="17.6841" x2="43.2723" y2="34.4859" gradientUnits="userSpaceOnUse">
<stop offset="0.03" stop-color="#DADADA"/>
<stop offset="0.18" stop-color="#959595"/>
<stop offset="0.25" stop-color="#7A7A7A"/>
<stop offset="0.3" stop-color="#A5A5A5"/>
<stop offset="0.36" stop-color="#D5D5D5"/>
<stop offset="0.41" stop-color="#F4F4F4"/>
<stop offset="0.44" stop-color="white"/>
</linearGradient>
<linearGradient id="paint1_linear_4467_118012" x1="43.2773" y1="34.4897" x2="128.798" y2="74.6779" gradientUnits="userSpaceOnUse">
<stop offset="0.03" stop-color="#DADADA"/>
<stop offset="0.13" stop-color="#E4E4E4"/>
<stop offset="0.44" stop-color="white"/>
</linearGradient>
</defs>
</svg>
