<svg width="48" height="48" viewBox="0 0 48 48" fill="none" xmlns="http://www.w3.org/2000/svg">
<path d="M21.2087 36.7447C21.1383 37.3796 21.2393 38.0185 21.1051 38.6587C20.7571 40.3151 19.255 41.3711 17.6545 40.8783C14.6834 39.9618 11.7416 38.951 8.79435 37.9574C8.0705 37.713 7.57244 37.183 7.26165 36.483C7.08899 36.0952 7 35.6954 7 35.265C7.00531 26.8185 7.00664 18.3734 7.00133 9.92959C7 7.95445 8.7306 6.78159 10.3443 7.03396C13.2264 7.99696 16.1086 8.9573 18.9894 9.92428C19.2377 10.008 19.4901 10.0996 19.7159 10.2285C20.8979 10.9045 21.1968 12.0296 21.1994 13.2728C21.2087 21.0964 21.2061 28.9199 21.2087 36.7447Z" fill="#71B3E2"/>
<path d="M21.2081 36.7434C21.2068 28.9186 21.2081 21.0951 21.1989 13.2703C21.1975 12.027 20.8974 10.9006 19.7153 10.2259C19.4895 10.097 19.2371 10.0054 18.9888 9.9217C16.108 8.95604 13.2259 7.99438 10.3438 7.03271C15.4718 7.02607 20.5998 6.98622 25.7279 7.03005C27.8397 7.04865 29.6181 8.98659 29.6686 11.1928C29.7084 12.9382 29.6659 14.6849 29.6872 16.4315C29.6925 16.8553 29.5318 16.9562 29.1439 16.9469C28.3045 16.9257 27.4638 16.9257 26.6244 16.9469C24.4422 17.0014 22.6705 18.8052 22.5642 21.0632C22.4686 23.1061 24.1022 25.0401 26.1569 25.3495C27.1052 25.4917 28.0548 25.4306 29.0018 25.4239C29.4893 25.4213 29.7018 25.5089 29.6925 26.0695C29.6579 28.1907 29.6951 30.3133 29.6739 32.4359C29.65 34.8972 27.7826 36.7315 25.3201 36.7421C23.9495 36.7474 22.5788 36.7434 21.2081 36.7434Z" fill="#4990CD"/>
<path d="M29.3703 22.5626C28.6186 22.5626 27.8669 22.5652 27.1151 22.5626C26.0088 22.5586 25.427 22.0645 25.4376 21.1453C25.4469 20.25 26.0566 19.7546 27.1589 19.7533C28.7063 19.7506 30.2549 19.7294 31.8022 19.7652C32.3361 19.7772 32.5327 19.6643 32.5075 19.0891C32.4583 17.9641 32.5008 16.8351 32.4902 15.7074C32.4836 15.026 32.7186 14.4854 33.3681 14.2131C34.0202 13.9394 34.5608 14.1586 35.0416 14.6447C36.8333 16.4499 38.6383 18.2404 40.4313 20.0428C41.1844 20.7999 41.195 21.5398 40.4446 22.2969C38.6555 24.1034 36.8519 25.8952 35.0536 27.6937C34.5807 28.1665 34.0415 28.4176 33.3787 28.1307C32.704 27.8385 32.4756 27.2846 32.4875 26.5766C32.5048 25.4715 32.4636 24.365 32.5048 23.2612C32.5247 22.7286 32.4012 22.5161 31.8248 22.5519C31.008 22.6011 30.1885 22.5626 29.3703 22.5626Z" fill="#71B3E2"/>
</svg>
