<svg width="48" height="48" viewBox="0 0 48 48" fill="none" xmlns="http://www.w3.org/2000/svg">
<path fill-rule="evenodd" clip-rule="evenodd" d="M28.2644 9.48199C28.2644 9.14199 28.1805 8.63722 27.9656 8.25005C27.7727 7.90234 27.5167 7.70098 27.0866 7.70098H11.8778C11.7193 7.70098 11.4806 7.74578 11.2648 7.8608C10.5273 8.14003 9.96781 8.84698 9.96781 9.73393V34.8233C9.96781 35.6135 10.433 36.3295 11.1549 36.6507L12.2072 37.1188C11.0704 36.9483 10.271 36.3556 9.75993 35.6188C9.18284 34.7869 9 33.8171 9 33.1611V8.95578C9 7.84994 9.46112 7.06972 10.1016 6.59107C10.7006 6.14339 11.3973 6.00098 11.8778 6.00098H27.0866C28.2787 6.00098 29.0367 6.67662 29.4521 7.42516C29.8456 8.13425 29.9644 8.94498 29.9644 9.48199V16.3226C29.9644 16.7921 29.5839 17.1726 29.1144 17.1726C28.645 17.1726 28.2644 16.7921 28.2644 16.3226V9.48199ZM23.2163 37.1683H27.0866H27.1951L27.3001 37.141C27.7322 37.0289 28.3571 36.7704 28.8929 36.331C29.4365 35.8852 29.9644 35.1835 29.9644 34.2135V26.8467C29.9644 26.3772 29.5839 25.9967 29.1144 25.9967C28.645 25.9967 28.2644 26.3772 28.2644 26.8467V34.2135C28.2644 34.5063 28.1163 34.7693 27.815 35.0164C27.5433 35.2392 27.2097 35.3917 26.9674 35.4683H23.2163V37.1683ZM33.4329 15.5742L38.8423 20.9836C39.1742 21.3155 39.1742 21.8537 38.8423 22.1857L33.4329 27.595C33.101 27.927 32.5628 27.927 32.2308 27.595C31.8989 27.2631 31.8989 26.7249 32.2308 26.393L36.1892 22.4346H26.5305C26.0611 22.4346 25.6805 22.0541 25.6805 21.5846C25.6805 21.1152 26.0611 20.7346 26.5305 20.7346H36.1892L32.2308 16.7763C31.8989 16.4444 31.8989 15.9062 32.2308 15.5742C32.5628 15.2423 33.101 15.2423 33.4329 15.5742Z" fill="black"/>
<path d="M9.96875 9.73391C9.96875 8.28631 11.459 7.31819 12.7816 7.90655L22.0301 12.0207C22.7521 12.3418 23.2173 13.0579 23.2173 13.848V38.9374C23.2173 40.385 21.727 41.3531 20.4044 40.7648L11.1559 36.6507C10.4339 36.3295 9.96875 35.6134 9.96875 34.8233V9.73391Z" stroke="black" stroke-width="2"/>
</svg>
