<svg width="48" height="48" viewBox="0 0 48 48" fill="none" xmlns="http://www.w3.org/2000/svg">
<path d="M21.2002 38.5928C17.328 38.5928 13.4557 38.5941 9.58344 38.5928C7.83539 38.5914 7.00103 37.7509 7.00103 35.9893C6.99966 28.2525 6.99966 20.5158 7.00103 12.779C7.00103 11.0283 7.84359 10.1892 9.59575 10.1851C10.7351 10.1824 11.8731 10.1974 13.0125 10.1783C13.3955 10.1714 13.5884 10.2261 13.5747 10.6867C13.5405 11.8237 13.5514 12.9622 13.5706 14.0992C13.5774 14.4587 13.4625 14.6076 13.1055 14.5571C13.0604 14.5502 13.0139 14.5557 12.9688 14.5571C11.3753 14.5748 11.3753 14.5748 11.3753 16.1998C11.3753 21.9576 11.3821 27.7141 11.3643 33.4705C11.363 34.0267 11.4382 34.2427 12.0865 34.2399C18.191 34.2099 24.2955 34.2153 30.4001 34.2345C30.9349 34.2358 31.0812 34.0992 31.0771 33.5607C31.0511 30.3982 31.0744 30.2343 31.0539 27.0719C31.0498 26.5594 31.1524 26.3489 31.7186 26.3762C32.7417 26.4241 33.769 26.4145 34.7921 26.379C35.2859 26.3612 35.4555 26.4774 35.4514 27.0104C35.4281 31.0612 35.4432 32.1106 35.4363 36.1615C35.4336 37.7154 34.539 38.5887 32.9551 38.5914C29.0364 38.5969 25.119 38.5928 21.2002 38.5928Z" fill="#C5C5C5"/>
<path d="M31.0463 10.6377C30.9875 11.127 31.302 11.8814 30.9286 12.2518C30.558 12.6194 29.8016 12.3816 29.2189 12.3625C26.8197 12.2873 24.4794 12.521 22.3306 13.6827C18.2122 15.9104 16.0155 19.3721 15.7378 24.0475C15.6981 24.7076 15.8773 25.2283 16.5571 25.4429C17.0988 25.6137 17.5734 25.3185 17.9372 24.612C19.9069 20.7744 23.0638 18.9047 27.3655 18.9252C28.4132 18.9307 29.4623 18.943 30.5087 18.917C30.9177 18.9075 31.0723 19.0141 31.0558 19.4473C31.023 20.311 31.0517 21.1762 31.0449 22.0413C31.0408 22.5346 31.1954 22.9337 31.6563 23.1701C32.1241 23.4093 32.5344 23.2767 32.9256 22.9829C35.7666 20.8523 38.6116 18.7284 41.4471 16.591C42.1802 16.0375 42.1857 15.2585 41.4553 14.7091C38.602 12.5579 35.7392 10.4204 32.8778 8.27885C32.5043 8.00005 32.1036 7.89891 31.6645 8.12168C31.2323 8.34035 31.0463 8.70388 31.0463 9.17675C31.0463 9.63322 31.0463 10.0883 31.0463 10.6377Z" fill="#4990CD"/>
</svg>
