<svg width="48" height="48" viewBox="0 0 48 48" fill="none" xmlns="http://www.w3.org/2000/svg">
<path d="M27.918 14.0529C27.9192 12.1644 27.918 10.748 27.918 10.748L34.9997 17.8298H31.7312C27.918 17.8298 27.918 15.9413 27.918 14.0529Z" fill="black" stroke="black" stroke-width="1.5" stroke-linecap="round" stroke-linejoin="round"/>
<path fill-rule="evenodd" clip-rule="evenodd" d="M25.8867 10H15.75C14.2312 10 13 11.2312 13 12.75V35.0536C13 36.5724 14.2312 37.8036 15.75 37.8036H32.9952C34.514 37.8036 35.7452 36.5724 35.7452 35.0536V21.8802H34.2452V35.0536C34.2452 35.744 33.6856 36.3036 32.9952 36.3036H15.75C15.0596 36.3036 14.5 35.744 14.5 35.0536V12.75C14.5 12.0596 15.0596 11.5 15.75 11.5H25.8867V10Z" fill="black"/>
<path d="M24.8711 10.748H27.9061L34.9879 17.8298V22.8882" stroke="black" stroke-width="1.5" stroke-linecap="round"/>
<path d="M17.7969 20.8613H25.3845M17.7969 25.9197H31.4545M17.7969 30.9781H31.4545" stroke="black" stroke-width="1.5" stroke-linecap="round"/>
</svg>
