<svg width="19" height="17" viewBox="0 0 19 17" fill="none" xmlns="http://www.w3.org/2000/svg">
<path d="M7.22755 3.54167C7.22755 5.10308 5.95433 6.375 4.37614 6.375C2.79795 6.375 1.52474 5.10308 1.52474 3.54167C1.52474 1.98025 2.79795 0.708333 4.37614 0.708333C5.95433 0.708333 7.22755 1.98025 7.22755 3.54167Z" stroke="black" stroke-width="1.41667"/>
<path d="M9.35938 2.83366C8.96817 2.83366 8.65104 3.15079 8.65104 3.54199C8.65104 3.93319 8.96817 4.25033 9.35938 4.25033V2.83366ZM17.9027 4.25033C18.2939 4.25033 18.6111 3.93319 18.6111 3.54199C18.6111 3.15079 18.2939 2.83366 17.9027 2.83366V4.25033ZM9.35938 4.25033H17.9027V2.83366H9.35938V4.25033Z" fill="black"/>
<path d="M11.4912 12.6243C11.4912 11.0629 12.7644 9.79102 14.3426 9.79102C15.9208 9.79102 17.194 11.0629 17.194 12.6243C17.194 14.1858 15.9208 15.4577 14.3426 15.4577C12.7644 15.4577 11.4912 14.1858 11.4912 12.6243Z" stroke="black" stroke-width="1.41667"/>
<path opacity="0.5" d="M9.35937 13.3333C9.75058 13.3333 10.0677 13.0162 10.0677 12.625C10.0677 12.2338 9.75058 11.9167 9.35938 11.9167L9.35937 13.3333ZM0.816008 11.9167C0.424807 11.9167 0.107675 12.2338 0.107675 12.625C0.107675 13.0162 0.424807 13.3333 0.816008 13.3333L0.816008 11.9167ZM9.35938 11.9167L0.816008 11.9167L0.816008 13.3333L9.35937 13.3333L9.35938 11.9167Z" fill="black"/>
</svg>
