<svg width="32" height="23" viewBox="0 0 32 23" fill="none" xmlns="http://www.w3.org/2000/svg">
<path d="M25.5285 5.20456C25.5119 3.54956 25.5119 3.54956 23.8333 3.54956C20.9961 3.54956 18.159 3.45026 15.3337 3.58739C13.5888 3.67014 12.2223 3.26348 11.1111 1.88983C10.0826 0.615477 8.78696 0.152076 7.05394 0.0267686C4.23807 -0.167103 2.18114 0.679313 0.68691 2.98449C0.353546 3.50464 -0.00819014 4.15245 0.00835988 4.72934C0.145489 9.6045 0.365367 14.4797 0.568696 19.3525C0.582882 19.7071 0.649082 20.0618 0.70346 20.5204C0.994268 19.8111 1.22124 19.2579 1.44821 18.7023C1.28744 19.8198 1.12824 20.9302 0.970625 22.0336L1.20705 22.2487C3.80777 22.2653 6.38485 22.296 8.97374 22.2936C14.585 22.2936 20.1954 22.2779 25.8051 22.2464L26.0415 22.0336L26.1763 21.3597L26.2118 21.1233L28.7605 5.64195H25.5852L25.5285 5.20456Z" fill="#FEFEFE"/>
<path d="M28.3968 21.4888L28.2525 22.0516L27.995 22.23C21.8818 22.2432 15.7694 22.2564 9.65795 22.2696C6.82458 22.2696 4.01698 22.2458 1.19649 22.232L0.949219 22.0516C1.12094 21.1268 1.29266 20.1954 1.46438 19.2574C1.95377 17.421 2.4406 15.578 2.92485 13.7284C3.39106 11.9449 3.84698 10.1613 4.30804 8.37778L23.3431 8.34607L27.7657 8.32031H31.2121L28.4354 21.2966L28.2294 21.3402L28.3968 21.4888Z" fill="#F0C30F"/>
<path d="M4.04112 5.72074C3.61791 7.8486 3.19943 9.97646 2.77149 12.1043C2.33489 14.311 1.89119 16.5106 1.4404 18.703C1.20397 19.2587 0.986456 19.8143 0.695648 20.5212C0.641269 20.0625 0.575069 19.7079 0.560884 19.3532C0.357555 14.4804 0.137676 9.60526 0.000547382 4.7301C-0.0160026 4.15321 0.345733 3.5054 0.679098 2.98526C2.17333 0.680075 4.22553 -0.16634 7.04613 0.0369887C8.77915 0.162296 10.0748 0.625697 11.1032 1.90005C12.2145 3.2737 13.581 3.68036 15.3259 3.59761C18.163 3.46048 21.0002 3.55978 23.8255 3.55978C25.5041 3.55978 25.5041 3.55978 25.5207 5.21478L21.3004 5.30226L4.27755 5.32827L4.0955 5.48667C4.06007 5.55964 4.04148 5.63963 4.04112 5.72074Z" fill="#F29C12"/>
<path d="M21.3008 5.30006L25.5234 5.20312L25.5801 5.64525L21.5207 5.67598L21.3008 5.30006Z" fill="#F9E1BA"/>
<path d="M26.1654 21.363L26.0117 21.1809L26.2009 21.1289L26.1654 21.363Z" fill="#F0C100"/>
<path d="M25.7891 22.2479L26.0255 22.0352L25.7891 22.2479Z" fill="#F0C100"/>
<path d="M21.2989 5.30078L21.5188 5.6767L4.03963 5.71926C4.03593 5.63826 4.05047 5.55746 4.08218 5.48283L4.26423 5.32442L21.2989 5.30078Z" fill="#FAF0CF"/>
<path d="M4.27971 5.33203L4.09766 5.49044L4.27971 5.33203Z" fill="#F9E1BA"/>
</svg>
