<svg width="48" height="49" viewBox="0 0 48 49" fill="none" xmlns="http://www.w3.org/2000/svg">
<path d="M14.018 20.6769C14.1568 20.2731 14.5367 20.002 14.9637 20.002H37.8488C38.5353 20.002 39.0177 20.6778 38.7945 21.327L33.982 35.327C33.8432 35.7308 33.4633 36.002 33.0363 36.002H10.1512C9.46469 36.002 8.98233 35.3261 9.2055 34.6769L14.018 20.6769Z" stroke="black" stroke-width="1.5"/>
<path fill-rule="evenodd" clip-rule="evenodd" d="M10.75 14.252H9.75C8.7835 14.252 8 15.0355 8 16.002V35.002C8 35.9685 8.7835 36.752 9.75 36.752H32.75C33.7165 36.752 34.5 35.9685 34.5 35.002V16.002C34.5 15.0355 33.7165 14.252 32.75 14.252H21.75V15.752H32.75C32.8881 15.752 33 15.8639 33 16.002V35.002C33 35.14 32.8881 35.252 32.75 35.252H9.75C9.61193 35.252 9.5 35.14 9.5 35.002V16.002C9.5 15.8639 9.61193 15.752 9.75 15.752H10.75V14.252Z" fill="black"/>
<path d="M10.75 15.0059C12.75 15.0051 11.5959 12.0688 13.75 12.0663C15.25 12.0645 17.25 11.9991 18.75 12.002C20.25 11.9982 20.15 15.0051 21.75 15.0051" stroke="black" stroke-width="1.5" stroke-linecap="round"/>
</svg>
