<svg width="43" height="43" viewBox="0 0 43 43" fill="none" xmlns="http://www.w3.org/2000/svg">
<path d="M17.8006 18.5013C17.266 18.5013 16.7869 18.5077 16.3077 18.5C15.6186 18.4897 15.1961 18.1007 15.2064 17.4979C15.2167 16.9182 15.6199 16.5678 16.3077 16.5575C16.8848 16.5485 17.4618 16.5563 18.0943 16.5563C18.2334 15.6894 18.3674 14.8405 18.5039 13.9929C18.692 12.8221 18.8208 11.637 19.0848 10.4829C19.4584 8.85084 20.552 7.84741 22.1814 7.5679C23.789 7.29095 25.117 7.87962 26.0767 9.22182C26.2531 9.46913 26.4103 9.73448 26.5404 10.0088C26.7671 10.4842 26.6009 11.0071 26.1681 11.266C25.7405 11.5211 25.1995 11.4077 24.8864 10.9814C24.7345 10.7753 24.6198 10.5421 24.4743 10.3309C24.0118 9.66106 23.36 9.34934 22.564 9.47042C21.7293 9.59665 21.12 10.09 20.968 10.935C20.6499 12.7177 20.4 14.5133 20.1243 16.3038C20.1153 16.3643 20.1308 16.4287 20.1385 16.5588C20.6241 16.5588 21.1007 16.5524 21.576 16.5601C22.2549 16.5717 22.6683 16.9337 22.6748 17.5082C22.6825 18.1046 22.2536 18.4923 21.5619 18.5026C21.0002 18.5116 20.4374 18.5103 19.8757 18.5142C19.8603 18.5142 19.8448 18.5219 19.7688 18.5425C19.6027 19.6013 19.4326 20.6872 19.2639 21.7731C18.7628 24.9894 18.2643 28.2058 17.762 31.4222C17.6976 31.8331 17.6486 32.2518 17.5327 32.6498C17.0767 34.2187 16.0179 35.186 14.4245 35.4424C12.8337 35.6974 11.5224 35.1152 10.5731 33.7897C10.4146 33.5682 10.2755 33.3325 10.1467 33.0916C9.86978 32.5764 10.0063 32.0186 10.4636 31.743C10.9209 31.466 11.4838 31.609 11.8058 32.0894C11.9488 32.302 12.0673 32.5326 12.2167 32.7399C12.6817 33.384 13.4777 33.6918 14.2055 33.5102C15.0351 33.3041 15.5696 32.785 15.7049 31.9413C16.2356 28.6167 16.7418 25.287 17.2583 21.9598C17.4348 20.8224 17.6151 19.6876 17.8006 18.5013Z" fill="black"/>
<path d="M27.9663 24.9882C28.6954 24.0247 29.3806 23.1153 30.0698 22.2097C30.4923 21.6546 31.0603 21.5154 31.5189 21.8452C32.0071 22.1956 32.0521 22.7945 31.6232 23.369C30.8259 24.4356 30.0221 25.497 29.1913 26.6021C29.8443 27.4639 30.4987 28.3308 31.1556 29.1964C31.4854 29.6318 31.8229 30.0594 32.1449 30.4999C32.5249 31.0216 32.4631 31.6077 32.0084 31.9503C31.5691 32.2801 30.9676 32.1629 30.5786 31.6541C29.722 30.5321 28.8731 29.4051 27.983 28.2316C27.8027 28.4596 27.6353 28.6644 27.4755 28.8744C26.8469 29.7065 26.2209 30.5412 25.5936 31.3733C25.0964 32.0341 24.5541 32.1796 24.0466 31.7906C23.5623 31.4196 23.5661 30.8297 24.0543 30.1818C24.8658 29.1062 25.6696 28.0242 26.4966 26.9602C26.7014 26.6975 26.7065 26.5249 26.4966 26.2595C25.7508 25.3153 25.032 24.3505 24.3068 23.3896C23.8663 22.8074 23.8946 22.2239 24.3738 21.8632C24.8427 21.5103 25.4249 21.6494 25.8615 22.2239C26.552 23.1256 27.2398 24.0324 27.9663 24.9882Z" fill="black"/>
</svg>
