<svg width="31" height="30" viewBox="0 0 31 30" fill="none" xmlns="http://www.w3.org/2000/svg">
<path d="M20.9314 20.0276H9.84499L5.09766 28.6737C5.66877 28.9765 6.31732 29.1706 6.73678 29.1706C11.0979 29.1706 19.9982 29.1033 24.4164 29.1033C24.8707 29.1033 25.296 28.9418 25.6774 28.6888L20.9314 20.0276Z" fill="#4185F3"/>
<path d="M5.09527 28.6737L9.84261 20.0276H0.22274C0.2179 20.6284 0.422791 21.1782 0.74384 21.8052C1.63826 23.5499 3.15155 26.3389 4.04049 27.7956C4.25957 28.1546 5.12947 28.6918 5.09527 28.6737Z" fill="#1767D1"/>
<path d="M20.9297 20.026L25.6773 28.6859C26.2927 28.2781 26.7941 27.6322 27.1196 27.0374C27.8547 25.6961 29.0976 23.4626 29.9549 21.9503C30.3534 21.2472 30.5083 20.6158 30.4986 20.0253L20.9297 20.026Z" fill="#E94235"/>
<path d="M9.84372 20.0264L15.3813 9.98882L10.4323 1.3858C9.89696 1.75284 9.43911 2.25108 9.23131 2.63057C7.07108 6.58085 2.71933 14.6769 0.531034 18.6783C0.306803 19.0877 0.199444 19.5554 0.221601 20.0264H9.84372Z" fill="#30A753"/>
<path d="M20.9304 20.0278L15.3828 9.9903L20.196 1.39703C20.7313 1.76441 21.3188 2.25256 21.5266 2.63238C23.6869 6.58233 28.0386 14.6784 30.2279 18.6798C30.4537 19.0912 30.5218 19.5568 30.4999 20.0278H20.9304Z" fill="#F9BC00"/>
<path d="M10.4336 1.38722L15.3832 9.9889L20.1964 1.39563C19.6995 1.09285 18.9958 0.913536 18.3143 0.890996C16.4183 0.825057 13.3447 0.79848 11.6904 0.873502C11.2825 0.892005 10.4388 1.38352 10.4336 1.38722Z" fill="#0F8038"/>
</svg>
