<svg width="48" height="48" viewBox="0 0 48 48" fill="none" xmlns="http://www.w3.org/2000/svg">
<path d="M29.6311 34.1677C30.6525 33.5099 31.6085 32.7731 32.4123 31.8515C33.2229 30.9211 33.8737 29.8916 34.3531 28.7542C34.3888 28.6694 34.4484 28.5857 34.4167 28.4547C34.2906 28.4547 34.1596 28.4547 34.0297 28.4547C31.4487 28.4547 28.8677 28.4547 26.2867 28.4547C25.2421 28.4547 24.8012 28.0107 24.8012 26.9629C24.8012 25.5096 24.8002 24.0573 24.8012 22.604C24.8022 21.7074 25.2777 21.2277 26.1817 21.2268C31.0674 21.2239 35.9531 21.2239 40.8389 21.2268C41.7053 21.2268 42.1106 21.5764 42.2752 22.4248C42.3359 22.7359 42.3051 23.0634 42.4437 23.361C42.4437 24.2499 42.4437 25.1388 42.4437 26.0277C42.3445 26.0768 42.3801 26.1722 42.3705 26.2492C42.3156 26.6894 42.28 27.1324 42.2069 27.5696C41.6013 31.1532 40.0725 34.2881 37.5926 36.9481C36.318 38.3156 34.8749 39.479 33.2316 40.3824C33.1575 40.2601 33.0804 40.1378 33.0082 40.0136C31.8828 38.0652 30.7574 36.116 29.6311 34.1677Z" fill="#177EE5"/>
<path d="M22.4926 42.8889C22.0816 42.7136 21.6349 42.7511 21.2065 42.678C15.4948 41.6995 11.1443 38.7226 8.12238 33.7858C8.09831 33.7464 8.09158 33.6972 8.07617 33.6529C10.1421 32.4578 12.2081 31.2635 14.274 30.0684C14.8902 30.9977 15.5438 31.8944 16.3718 32.6533C18.483 34.5871 20.9687 35.5887 23.826 35.6735C23.8857 35.6754 23.9453 35.6812 24.005 35.685C24.005 38.086 24.005 40.4879 24.005 42.8889C23.5006 42.8889 22.9961 42.8889 22.4926 42.8889Z" fill="#13B247"/>
<path d="M33.2324 40.3818C32.6056 40.8469 31.8894 41.1416 31.1809 41.4431C29.3931 42.2039 27.5322 42.6797 25.5904 42.8203C25.5327 42.8241 25.4691 42.8155 25.4441 42.8896C24.9637 42.8896 24.4833 42.8896 24.0039 42.8896C24.0039 40.4887 24.0039 38.0867 24.0039 35.6858C25.3276 35.6136 26.6302 35.4344 27.8817 34.9635C28.4834 34.7371 29.0427 34.4213 29.6309 34.168C30.7573 36.1163 31.8827 38.0646 33.009 40.0129C33.0812 40.1371 33.1582 40.2585 33.2324 40.3818Z" fill="#10993E"/>
<path d="M14.2738 30.0706C12.2079 31.2658 10.1419 32.46 8.07595 33.6552C7.40784 32.6362 6.92841 31.5268 6.552 30.3759C4.88171 25.2667 5.30819 20.3348 7.84105 15.5907C7.90748 15.4655 7.99509 15.3518 8.07307 15.2324C10.139 16.4295 12.2059 17.6257 14.2719 18.8228C13.7607 19.8253 13.3025 20.8481 13.0599 21.9547C12.4601 24.6831 12.8201 27.2805 14.1265 29.7489C14.1824 29.852 14.2257 29.9627 14.2738 30.0706Z" fill="#FED401"/>
<path d="M14.2731 18.8213C12.2071 17.6242 10.1402 16.4271 8.07422 15.231C8.73945 13.9558 9.61743 12.8348 10.6003 11.7966C13.449 8.79278 16.9195 6.94078 20.9995 6.24158C21.992 6.07112 22.9951 5.97288 24.006 6.00659C24.006 8.40369 24.006 10.8008 24.006 13.1979C21.3653 13.2509 18.998 14.0656 16.9388 15.7346C15.952 16.535 15.1299 17.4817 14.4579 18.5603C14.4011 18.6518 14.3347 18.7346 14.2731 18.8213Z" fill="#FE4B26"/>
<path d="M24.0039 13.1977C24.0039 10.8006 24.0039 8.40349 24.0039 6.00638C26.6427 5.96112 29.1505 6.538 31.5505 7.60895C33.1679 8.33125 34.6437 9.28181 35.9905 10.4327C36.6538 10.9999 36.7019 11.7502 36.0887 12.3694C34.9999 13.4693 33.9053 14.5643 32.8059 15.6535C32.2822 16.1726 31.668 16.215 31.0932 15.7537C29.5404 14.5056 27.7912 13.7072 25.8263 13.372C25.2227 13.269 24.6104 13.2738 24.0039 13.1977Z" fill="#D83F22"/>
</svg>
