<svg width="1911" height="1092" viewBox="0 0 1911 1092" fill="none" xmlns="http://www.w3.org/2000/svg">
<g opacity="0.5">
<path d="M18 0V1092" stroke="black" stroke-width="0.5"/>
<path d="M36 0V1092" stroke="black" stroke-width="0.5"/>
<path d="M55 0V1092" stroke="black" stroke-width="0.5"/>
<path d="M73 0V1092" stroke="black" stroke-width="0.5"/>
<path d="M109 0V1092" stroke="black" stroke-width="0.5"/>
<path d="M127 0V1092" stroke="black" stroke-width="0.5"/>
<path d="M146 0V1092" stroke="black" stroke-width="0.5"/>
<path d="M164 0V1092" stroke="black" stroke-width="0.5"/>
<path d="M200 0V1092" stroke="black" stroke-width="0.5"/>
<path d="M218 0V1092" stroke="black" stroke-width="0.5"/>
<path d="M237 0V1092" stroke="black" stroke-width="0.5"/>
<path d="M255 0V1092" stroke="black" stroke-width="0.5"/>
<path d="M291 0V1092" stroke="black" stroke-width="0.5"/>
<path d="M309 0V1092" stroke="black" stroke-width="0.5"/>
<path d="M328 0V1092" stroke="black" stroke-width="0.5"/>
<path d="M346 0V1092" stroke="black" stroke-width="0.5"/>
<path d="M382 0V1092" stroke="black" stroke-width="0.5"/>
<path d="M400 0V1092" stroke="black" stroke-width="0.5"/>
<path d="M419 0V1092" stroke="black" stroke-width="0.5"/>
<path d="M437 0V1092" stroke="black" stroke-width="0.5"/>
<path d="M473 0V1092" stroke="black" stroke-width="0.5"/>
<path d="M491 0V1092" stroke="black" stroke-width="0.5"/>
<path d="M510 0V1092" stroke="black" stroke-width="0.5"/>
<path d="M528 0V1092" stroke="black" stroke-width="0.5"/>
<path d="M564 0V1092" stroke="black" stroke-width="0.5"/>
<path d="M582 0V1092" stroke="black" stroke-width="0.5"/>
<path d="M601 0V1092" stroke="black" stroke-width="0.5"/>
<path d="M619 0V1092" stroke="black" stroke-width="0.5"/>
<path d="M655 0V1092" stroke="black" stroke-width="0.5"/>
<path d="M673 0V1092" stroke="black" stroke-width="0.5"/>
<path d="M692 0V1092" stroke="black" stroke-width="0.5"/>
<path d="M710 0V1092" stroke="black" stroke-width="0.5"/>
<path d="M746 0V1092" stroke="black" stroke-width="0.5"/>
<path d="M764 0V1092" stroke="black" stroke-width="0.5"/>
<path d="M783 0V1092" stroke="black" stroke-width="0.5"/>
<path d="M801 0V1092" stroke="black" stroke-width="0.5"/>
<path d="M837 0V1092" stroke="black" stroke-width="0.5"/>
<path d="M855 0V1092" stroke="black" stroke-width="0.5"/>
<path d="M874 0V1092" stroke="black" stroke-width="0.5"/>
<path d="M892 0V1092" stroke="black" stroke-width="0.5"/>
<path d="M928 0V1092" stroke="black" stroke-width="0.5"/>
<path d="M946 0V1092" stroke="black" stroke-width="0.5"/>
<path d="M965 0V1092" stroke="black" stroke-width="0.5"/>
<path d="M983 0V1092" stroke="black" stroke-width="0.5"/>
<path d="M1019 0V1092" stroke="black" stroke-width="0.5"/>
<path d="M1037 0V1092" stroke="black" stroke-width="0.5"/>
<path d="M1056 0V1092" stroke="black" stroke-width="0.5"/>
<path d="M1074 0V1092" stroke="black" stroke-width="0.5"/>
<path d="M1110 0V1092" stroke="black" stroke-width="0.5"/>
<path d="M1128 0V1092" stroke="black" stroke-width="0.5"/>
<path d="M1147 0V1092" stroke="black" stroke-width="0.5"/>
<path d="M1165 0V1092" stroke="black" stroke-width="0.5"/>
<path d="M1201 0V1092" stroke="black" stroke-width="0.5"/>
<path d="M1219 0V1092" stroke="black" stroke-width="0.5"/>
<path d="M1238 0V1092" stroke="black" stroke-width="0.5"/>
<path d="M1256 0V1092" stroke="black" stroke-width="0.5"/>
<path d="M1292 0V1092" stroke="black" stroke-width="0.5"/>
<path d="M1310 0V1092" stroke="black" stroke-width="0.5"/>
<path d="M1329 0V1092" stroke="black" stroke-width="0.5"/>
<path d="M1347 0V1092" stroke="black" stroke-width="0.5"/>
<path d="M1383 0V1092" stroke="black" stroke-width="0.5"/>
<path d="M1401 0V1092" stroke="black" stroke-width="0.5"/>
<path d="M1420 0V1092" stroke="black" stroke-width="0.5"/>
<path d="M1438 0V1092" stroke="black" stroke-width="0.5"/>
<path d="M1474 0V1092" stroke="black" stroke-width="0.5"/>
<path d="M1492 0V1092" stroke="black" stroke-width="0.5"/>
<path d="M1511 0V1092" stroke="black" stroke-width="0.5"/>
<path d="M1529 0V1092" stroke="black" stroke-width="0.5"/>
<path d="M1565 0V1092" stroke="black" stroke-width="0.5"/>
<path d="M1583 0V1092" stroke="black" stroke-width="0.5"/>
<path d="M1602 0V1092" stroke="black" stroke-width="0.5"/>
<path d="M1620 0V1092" stroke="black" stroke-width="0.5"/>
<path d="M1656 0V1092" stroke="black" stroke-width="0.5"/>
<path d="M1674 0V1092" stroke="black" stroke-width="0.5"/>
<path d="M1693 0V1092" stroke="black" stroke-width="0.5"/>
<path d="M1711 0V1092" stroke="black" stroke-width="0.5"/>
<path d="M1747 0V1092" stroke="black" stroke-width="0.5"/>
<path d="M1765 0V1092" stroke="black" stroke-width="0.5"/>
<path d="M1784 0V1092" stroke="black" stroke-width="0.5"/>
<path d="M1802 0V1092" stroke="black" stroke-width="0.5"/>
<path d="M1838 0V1092" stroke="black" stroke-width="0.5"/>
<path d="M1856 0V1092" stroke="black" stroke-width="0.5"/>
<path d="M1875 0V1092" stroke="black" stroke-width="0.5"/>
<path d="M1893 0V1092" stroke="black" stroke-width="0.5"/>
<path d="M0 1019L1911 1019" stroke="black" stroke-width="0.5"/>
<path d="M0 1037L1911 1037" stroke="black" stroke-width="0.5"/>
<path d="M0 1056L1911 1056" stroke="black" stroke-width="0.5"/>
<path d="M0 1074L1911 1074" stroke="black" stroke-width="0.5"/>
<path d="M0 928L1911 928" stroke="black" stroke-width="0.5"/>
<path d="M0 946L1911 946" stroke="black" stroke-width="0.5"/>
<path d="M0 965L1911 965" stroke="black" stroke-width="0.5"/>
<path d="M0 983L1911 983" stroke="black" stroke-width="0.5"/>
<path d="M0 837L1911 837" stroke="black" stroke-width="0.5"/>
<path d="M0 855L1911 855" stroke="black" stroke-width="0.5"/>
<path d="M0 874L1911 874" stroke="black" stroke-width="0.5"/>
<path d="M0 892L1911 892" stroke="black" stroke-width="0.5"/>
<path d="M0 746L1911 746" stroke="black" stroke-width="0.5"/>
<path d="M0 764L1911 764" stroke="black" stroke-width="0.5"/>
<path d="M0 783L1911 783" stroke="black" stroke-width="0.5"/>
<path d="M0 801L1911 801" stroke="black" stroke-width="0.5"/>
<path d="M0 655L1911 655" stroke="black" stroke-width="0.5"/>
<path d="M0 673L1911 673" stroke="black" stroke-width="0.5"/>
<path d="M0 692L1911 692" stroke="black" stroke-width="0.5"/>
<path d="M0 710L1911 710" stroke="black" stroke-width="0.5"/>
<path d="M0 564L1911 564" stroke="black" stroke-width="0.5"/>
<path d="M0 582L1911 582" stroke="black" stroke-width="0.5"/>
<path d="M0 601L1911 601" stroke="black" stroke-width="0.5"/>
<path d="M0 619L1911 619" stroke="black" stroke-width="0.5"/>
<path d="M0 473L1911 473" stroke="black" stroke-width="0.5"/>
<path d="M0 491L1911 491" stroke="black" stroke-width="0.5"/>
<path d="M0 510L1911 510" stroke="black" stroke-width="0.5"/>
<path d="M0 528L1911 528" stroke="black" stroke-width="0.5"/>
<path d="M0 382L1911 382" stroke="black" stroke-width="0.5"/>
<path d="M0 400L1911 400" stroke="black" stroke-width="0.5"/>
<path d="M0 419L1911 419" stroke="black" stroke-width="0.5"/>
<path d="M0 437L1911 437" stroke="black" stroke-width="0.5"/>
<path d="M0 291L1911 291" stroke="black" stroke-width="0.5"/>
<path d="M0 309L1911 309" stroke="black" stroke-width="0.5"/>
<path d="M0 328L1911 328" stroke="black" stroke-width="0.5"/>
<path d="M0 346L1911 346" stroke="black" stroke-width="0.5"/>
<path d="M0 200L1911 200" stroke="black" stroke-width="0.5"/>
<path d="M0 218L1911 218" stroke="black" stroke-width="0.5"/>
<path d="M0 237L1911 237" stroke="black" stroke-width="0.5"/>
<path d="M0 255L1911 255" stroke="black" stroke-width="0.5"/>
<path d="M0 109L1911 109" stroke="black" stroke-width="0.5"/>
<path d="M0 127L1911 127" stroke="black" stroke-width="0.5"/>
<path d="M0 146L1911 146" stroke="black" stroke-width="0.5"/>
<path d="M0 164L1911 164" stroke="black" stroke-width="0.5"/>
<path d="M0 18L1911 17.9998" stroke="black" stroke-width="0.5"/>
<path d="M0 36L1911 35.9998" stroke="black" stroke-width="0.5"/>
<path d="M0 55L1911 54.9998" stroke="black" stroke-width="0.5"/>
<path d="M0 73L1911 72.9998" stroke="black" stroke-width="0.5"/>
</g>
<path d="M0 0V1092" stroke="black" stroke-width="1.5"/>
<path d="M0 1092L1911 1092" stroke="black" stroke-width="1.5" stroke-linecap="round"/>
<path d="M91 0V1092" stroke="black" stroke-width="1.5"/>
<path d="M182 0V1092" stroke="black" stroke-width="1.5"/>
<path d="M273 0V1092" stroke="black" stroke-width="1.5"/>
<path d="M364 0V1092" stroke="black" stroke-width="1.5"/>
<path d="M455 0V1092" stroke="black" stroke-width="1.5"/>
<path d="M546 0V1092" stroke="black" stroke-width="1.5"/>
<path d="M637 0V1092" stroke="black" stroke-width="1.5"/>
<path d="M728 0V1092" stroke="black" stroke-width="1.5"/>
<path d="M819 0V1092" stroke="black" stroke-width="1.5"/>
<path d="M910 0V1092" stroke="black" stroke-width="1.5"/>
<path d="M1001 0V1092" stroke="black" stroke-width="1.5"/>
<path d="M1092 0V1092" stroke="black" stroke-width="1.5"/>
<path d="M1183 0V1092" stroke="black" stroke-width="1.5"/>
<path d="M1274 0V1092" stroke="black" stroke-width="1.5"/>
<path d="M1365 0V1092" stroke="black" stroke-width="1.5"/>
<path d="M1456 0V1092" stroke="black" stroke-width="1.5"/>
<path d="M1547 0V1092" stroke="black" stroke-width="1.5"/>
<path d="M1638 0V1092" stroke="black" stroke-width="1.5"/>
<path d="M1729 0V1092" stroke="black" stroke-width="1.5"/>
<path d="M1820 0V1092" stroke="black" stroke-width="1.5"/>
<path d="M1911 0V1092" stroke="black" stroke-width="1.5"/>
<path d="M0 1001L1911 1001" stroke="black" stroke-width="1.5"/>
<path d="M0 910L1911 910" stroke="black" stroke-width="1.5"/>
<path d="M0 819L1911 819" stroke="black" stroke-width="1.5"/>
<path d="M0 728L1911 728" stroke="black" stroke-width="1.5"/>
<path d="M0 637L1911 637" stroke="black" stroke-width="1.5"/>
<path d="M0 546L1911 546" stroke="black" stroke-width="1.5"/>
<path d="M0 454.998L1911 454.998" stroke="black" stroke-width="1.5"/>
<path d="M0 363.998L1911 363.998" stroke="black" stroke-width="1.5"/>
<path d="M0 272.998L1911 272.998" stroke="black" stroke-width="1.5"/>
<path d="M0 182L1911 182" stroke="black" stroke-width="1.5"/>
<path d="M0 91L1911 90.9998" stroke="black" stroke-width="1.5"/>
<path d="M0 0L1911 -0.000167065" stroke="black" stroke-width="1.5" stroke-linecap="round"/>
</svg>
