<svg width="43" height="43" viewBox="0 0 43 43" fill="none" xmlns="http://www.w3.org/2000/svg">
<path fill-rule="evenodd" clip-rule="evenodd" d="M7.5 7.50098V9.18098H8.62V8.62098H9.18V7.50098H8.62H7.5ZM10.3 7.50098V8.62098H12.54V7.50098H10.3ZM13.8 7.50098C14.0996 14.0166 13.8 20.6722 13.8 27.241H7.5V29.201H13.8V35.501H15.76V29.201H35.5V27.241H15.76C15.5276 20.6977 15.865 13.9147 15.76 7.50098H13.8ZM17.02 7.50098V8.62098H19.26V7.50098H17.02ZM20.38 7.50098V8.62098H20.94V9.18098H22.06V8.62098H22.62V7.50098H20.38ZM23.74 7.50098V8.62098H25.98V7.50098H23.74ZM27.1 7.50098V8.62098H27.66V9.18098H28.78V8.62098H29.34V7.50098H27.1ZM30.46 7.50098V8.62098H32.7V7.50098H30.46ZM33.82 7.50098V8.62098H34.38V9.18098H35.5V7.50098H33.82ZM7.5 10.301V12.541H8.62V10.301H7.5ZM20.94 10.301V12.541H22.06V10.301H20.94ZM27.66 10.301V12.541H28.78V10.301H27.66ZM34.38 10.301V12.541H35.5V10.301H34.38ZM7.5 13.661V15.901H8.62V15.341H9.18V14.221H8.62V13.661H7.5ZM20.94 13.661V14.221H20.38V15.341H20.94V15.901H22.06V15.341H22.62V14.221H22.06V13.661H20.94ZM27.66 13.661V14.221H27.1V15.341H27.66V15.901H28.78V15.341H29.34V14.221H28.78V13.661H27.66ZM34.38 13.661V14.221H33.82V15.341H34.38V15.901H35.5V13.661H34.38ZM10.3 14.221V15.341H12.54V14.221H10.3ZM17.02 14.221V15.341H19.26V14.221H17.02ZM23.74 14.221V15.341H25.98V14.221H23.74ZM30.46 14.221V15.341H32.7V14.221H30.46ZM7.5 17.021V19.261H8.62V17.021H7.5ZM20.94 17.021V19.261H22.06V17.021H20.94ZM27.66 17.021V19.261H28.78V17.021H27.66ZM34.38 17.021V19.261H35.5V17.021H34.38ZM7.5 20.381V22.621H8.62V22.061H9.18V20.941H8.62V20.381H7.5ZM20.94 20.381V20.941H20.38V22.061H20.94V22.621H22.06V22.061H22.62V20.941H22.06V20.381H20.94ZM27.66 20.381V20.941H27.1V22.061H27.66V22.621H28.78V22.061H29.34V20.941H28.78V20.381H27.66ZM34.38 20.381V20.941H33.82V22.061H34.38V22.621H35.5V20.381H34.38ZM10.3 20.941V22.061H12.54V20.941H10.3ZM17.02 20.941V22.061H19.26V20.941H17.02ZM23.74 20.941V22.061H25.98V20.941H23.74ZM30.46 20.941V22.061H32.7V20.941H30.46ZM7.5 23.741V25.981H8.62V23.741H7.5ZM20.94 23.741V25.981H22.06V23.741H20.94ZM27.66 23.741V25.981H28.78V23.741H27.66ZM34.38 23.741V25.981H35.5V23.741H34.38ZM7.5 30.461V32.701H8.62V30.461H7.5ZM20.94 30.461V32.701H22.06V30.461H20.94ZM27.66 30.461V32.701H28.78V30.461H27.66ZM34.38 30.461V32.701H35.5V30.461H34.38ZM7.5 33.821V35.501H9.18V34.381H8.62V33.821H7.5ZM20.94 33.821V34.381H20.38V35.501H22.62V34.381H22.06V33.821H20.94ZM27.66 33.821V34.381H27.1V35.501H29.34V34.381H28.78V33.821H27.66ZM34.38 33.821V34.381H33.82V35.501H35.5V33.821H34.38ZM10.3 34.381V35.501H12.54V34.381H10.3ZM17.02 34.381V35.501H19.26V34.381H17.02ZM23.74 34.381V35.501H25.98V34.381H23.74ZM30.46 34.381V35.501H32.7V34.381H30.46Z" fill="black"/>
</svg>
