<svg width="1920" height="1080" viewBox="0 0 1920 1080" fill="none" xmlns="http://www.w3.org/2000/svg">
<g opacity="0.22">
<g opacity="0.5">
<path d="M18.0859 0V1092" stroke="black" stroke-width="0.5"/>
<path d="M36.168 0V1092" stroke="black" stroke-width="0.5"/>
<path d="M55.2578 0V1092" stroke="black" stroke-width="0.5"/>
<path d="M73.3438 0V1092" stroke="black" stroke-width="0.5"/>
<path d="M109.512 0V1092" stroke="black" stroke-width="0.5"/>
<path d="M127.598 0V1092" stroke="black" stroke-width="0.5"/>
<path d="M146.688 0V1092" stroke="black" stroke-width="0.5"/>
<path d="M164.773 0V1092" stroke="black" stroke-width="0.5"/>
<path d="M200.941 0V1092" stroke="black" stroke-width="0.5"/>
<path d="M219.027 0V1092" stroke="black" stroke-width="0.5"/>
<path d="M238.117 0V1092" stroke="black" stroke-width="0.5"/>
<path d="M256.199 0V1092" stroke="black" stroke-width="0.5"/>
<path d="M292.371 0V1092" stroke="black" stroke-width="0.5"/>
<path d="M310.457 0V1092" stroke="black" stroke-width="0.5"/>
<path d="M329.543 0V1092" stroke="black" stroke-width="0.5"/>
<path d="M347.629 0V1092" stroke="black" stroke-width="0.5"/>
<path d="M383.801 0V1092" stroke="black" stroke-width="0.5"/>
<path d="M401.883 0V1092" stroke="black" stroke-width="0.5"/>
<path d="M420.973 0V1092" stroke="black" stroke-width="0.5"/>
<path d="M439.059 0V1092" stroke="black" stroke-width="0.5"/>
<path d="M475.227 0V1092" stroke="black" stroke-width="0.5"/>
<path d="M493.312 0V1092" stroke="black" stroke-width="0.5"/>
<path d="M512.402 0V1092" stroke="black" stroke-width="0.5"/>
<path d="M530.488 0V1092" stroke="black" stroke-width="0.5"/>
<path d="M566.656 0V1092" stroke="black" stroke-width="0.5"/>
<path d="M584.742 0V1092" stroke="black" stroke-width="0.5"/>
<path d="M603.832 0V1092" stroke="black" stroke-width="0.5"/>
<path d="M621.914 0V1092" stroke="black" stroke-width="0.5"/>
<path d="M658.086 0V1092" stroke="black" stroke-width="0.5"/>
<path d="M676.168 0V1092" stroke="black" stroke-width="0.5"/>
<path d="M695.258 0V1092" stroke="black" stroke-width="0.5"/>
<path d="M713.344 0V1092" stroke="black" stroke-width="0.5"/>
<path d="M749.512 0V1092" stroke="black" stroke-width="0.5"/>
<path d="M767.598 0V1092" stroke="black" stroke-width="0.5"/>
<path d="M786.688 0V1092" stroke="black" stroke-width="0.5"/>
<path d="M804.773 0V1092" stroke="black" stroke-width="0.5"/>
<path d="M840.941 0V1092" stroke="black" stroke-width="0.5"/>
<path d="M859.027 0V1092" stroke="black" stroke-width="0.5"/>
<path d="M878.117 0V1092" stroke="black" stroke-width="0.5"/>
<path d="M896.199 0V1092" stroke="black" stroke-width="0.5"/>
<path d="M932.371 0V1092" stroke="black" stroke-width="0.5"/>
<path d="M950.457 0V1092" stroke="black" stroke-width="0.5"/>
<path d="M969.543 0V1092" stroke="black" stroke-width="0.5"/>
<path d="M987.629 0V1092" stroke="black" stroke-width="0.5"/>
<path d="M1023.8 0V1092" stroke="black" stroke-width="0.5"/>
<path d="M1041.88 0V1092" stroke="black" stroke-width="0.5"/>
<path d="M1060.97 0V1092" stroke="black" stroke-width="0.5"/>
<path d="M1079.06 0V1092" stroke="black" stroke-width="0.5"/>
<path d="M1115.23 0V1092" stroke="black" stroke-width="0.5"/>
<path d="M1133.31 0V1092" stroke="black" stroke-width="0.5"/>
<path d="M1152.4 0V1092" stroke="black" stroke-width="0.5"/>
<path d="M1170.49 0V1092" stroke="black" stroke-width="0.5"/>
<path d="M1206.66 0V1092" stroke="black" stroke-width="0.5"/>
<path d="M1224.74 0V1092" stroke="black" stroke-width="0.5"/>
<path d="M1243.83 0V1092" stroke="black" stroke-width="0.5"/>
<path d="M1261.91 0V1092" stroke="black" stroke-width="0.5"/>
<path d="M1298.09 0V1092" stroke="black" stroke-width="0.5"/>
<path d="M1316.17 0V1092" stroke="black" stroke-width="0.5"/>
<path d="M1335.26 0V1092" stroke="black" stroke-width="0.5"/>
<path d="M1353.34 0V1092" stroke="black" stroke-width="0.5"/>
<path d="M1389.51 0V1092" stroke="black" stroke-width="0.5"/>
<path d="M1407.6 0V1092" stroke="black" stroke-width="0.5"/>
<path d="M1426.69 0V1092" stroke="black" stroke-width="0.5"/>
<path d="M1444.77 0V1092" stroke="black" stroke-width="0.5"/>
<path d="M1480.94 0V1092" stroke="black" stroke-width="0.5"/>
<path d="M1499.03 0V1092" stroke="black" stroke-width="0.5"/>
<path d="M1518.12 0V1092" stroke="black" stroke-width="0.5"/>
<path d="M1536.2 0V1092" stroke="black" stroke-width="0.5"/>
<path d="M1572.37 0V1092" stroke="black" stroke-width="0.5"/>
<path d="M1590.46 0V1092" stroke="black" stroke-width="0.5"/>
<path d="M1609.54 0V1092" stroke="black" stroke-width="0.5"/>
<path d="M1627.63 0V1092" stroke="black" stroke-width="0.5"/>
<path d="M1663.8 0V1092" stroke="black" stroke-width="0.5"/>
<path d="M1681.88 0V1092" stroke="black" stroke-width="0.5"/>
<path d="M1700.97 0V1092" stroke="black" stroke-width="0.5"/>
<path d="M1719.06 0V1092" stroke="black" stroke-width="0.5"/>
<path d="M1755.23 0V1092" stroke="black" stroke-width="0.5"/>
<path d="M1773.31 0V1092" stroke="black" stroke-width="0.5"/>
<path d="M1792.4 0V1092" stroke="black" stroke-width="0.5"/>
<path d="M1810.49 0V1092" stroke="black" stroke-width="0.5"/>
<path d="M1846.66 0V1092" stroke="black" stroke-width="0.5"/>
<path d="M1864.74 0V1092" stroke="black" stroke-width="0.5"/>
<path d="M1883.83 0V1092" stroke="black" stroke-width="0.5"/>
<path d="M1901.91 0V1092" stroke="black" stroke-width="0.5"/>
<path d="M0 1019L1920 1019" stroke="black" stroke-width="0.5"/>
<path d="M0 1037L1920 1037" stroke="black" stroke-width="0.5"/>
<path d="M0 1056L1920 1056" stroke="black" stroke-width="0.5"/>
<path d="M0 1074L1920 1074" stroke="black" stroke-width="0.5"/>
<path d="M0 928L1920 928" stroke="black" stroke-width="0.5"/>
<path d="M0 946L1920 946" stroke="black" stroke-width="0.5"/>
<path d="M0 965L1920 965" stroke="black" stroke-width="0.5"/>
<path d="M0 983L1920 983" stroke="black" stroke-width="0.5"/>
<path d="M0 837L1920 837" stroke="black" stroke-width="0.5"/>
<path d="M0 855L1920 855" stroke="black" stroke-width="0.5"/>
<path d="M0 874L1920 874" stroke="black" stroke-width="0.5"/>
<path d="M0 892L1920 892" stroke="black" stroke-width="0.5"/>
<path d="M0 746L1920 746" stroke="black" stroke-width="0.5"/>
<path d="M0 764L1920 764" stroke="black" stroke-width="0.5"/>
<path d="M0 783L1920 783" stroke="black" stroke-width="0.5"/>
<path d="M0 801L1920 801" stroke="black" stroke-width="0.5"/>
<path d="M0 655L1920 655" stroke="black" stroke-width="0.5"/>
<path d="M0 673L1920 673" stroke="black" stroke-width="0.5"/>
<path d="M0 692L1920 692" stroke="black" stroke-width="0.5"/>
<path d="M0 710L1920 710" stroke="black" stroke-width="0.5"/>
<path d="M0 564L1920 564" stroke="black" stroke-width="0.5"/>
<path d="M0 582L1920 582" stroke="black" stroke-width="0.5"/>
<path d="M0 601L1920 601" stroke="black" stroke-width="0.5"/>
<path d="M0 619L1920 619" stroke="black" stroke-width="0.5"/>
<path d="M0 473L1920 473" stroke="black" stroke-width="0.5"/>
<path d="M0 491L1920 491" stroke="black" stroke-width="0.5"/>
<path d="M0 510L1920 510" stroke="black" stroke-width="0.5"/>
<path d="M0 528L1920 528" stroke="black" stroke-width="0.5"/>
<path d="M0 382L1920 382" stroke="black" stroke-width="0.5"/>
<path d="M0 400L1920 400" stroke="black" stroke-width="0.5"/>
<path d="M0 419L1920 419" stroke="black" stroke-width="0.5"/>
<path d="M0 437L1920 437" stroke="black" stroke-width="0.5"/>
<path d="M0 291L1920 291" stroke="black" stroke-width="0.5"/>
<path d="M0 309L1920 309" stroke="black" stroke-width="0.5"/>
<path d="M0 328L1920 328" stroke="black" stroke-width="0.5"/>
<path d="M0 346L1920 346" stroke="black" stroke-width="0.5"/>
<path d="M0 200L1920 200" stroke="black" stroke-width="0.5"/>
<path d="M0 218L1920 218" stroke="black" stroke-width="0.5"/>
<path d="M0 237L1920 237" stroke="black" stroke-width="0.5"/>
<path d="M0 255L1920 255" stroke="black" stroke-width="0.5"/>
<path d="M0 109L1920 109" stroke="black" stroke-width="0.5"/>
<path d="M0 127L1920 127" stroke="black" stroke-width="0.5"/>
<path d="M0 146L1920 146" stroke="black" stroke-width="0.5"/>
<path d="M0 164L1920 164" stroke="black" stroke-width="0.5"/>
<path d="M0 18L1920 17.9998" stroke="black" stroke-width="0.5"/>
<path d="M0 36L1920 35.9998" stroke="black" stroke-width="0.5"/>
<path d="M0 55L1920 54.9998" stroke="black" stroke-width="0.5"/>
<path d="M0 73L1920 72.9998" stroke="black" stroke-width="0.5"/>
</g>
<path d="M0 0V1092" stroke="black" stroke-width="1.5"/>
<path d="M91.4297 0V1092" stroke="black" stroke-width="1.5"/>
<path d="M182.855 0V1092" stroke="black" stroke-width="1.5"/>
<path d="M274.285 0V1092" stroke="black" stroke-width="1.5"/>
<path d="M365.715 0V1092" stroke="black" stroke-width="1.5"/>
<path d="M457.145 0V1092" stroke="black" stroke-width="1.5"/>
<path d="M548.57 0V1092" stroke="black" stroke-width="1.5"/>
<path d="M640 0V1092" stroke="black" stroke-width="1.5"/>
<path d="M731.43 0V1092" stroke="black" stroke-width="1.5"/>
<path d="M822.855 0V1092" stroke="black" stroke-width="1.5"/>
<path d="M914.285 0V1092" stroke="black" stroke-width="1.5"/>
<path d="M1005.71 0V1092" stroke="black" stroke-width="1.5"/>
<path d="M1097.14 0V1092" stroke="black" stroke-width="1.5"/>
<path d="M1188.57 0V1092" stroke="black" stroke-width="1.5"/>
<path d="M1280 0V1092" stroke="black" stroke-width="1.5"/>
<path d="M1371.43 0V1092" stroke="black" stroke-width="1.5"/>
<path d="M1462.86 0V1092" stroke="black" stroke-width="1.5"/>
<path d="M1554.29 0V1092" stroke="black" stroke-width="1.5"/>
<path d="M1645.71 0V1092" stroke="black" stroke-width="1.5"/>
<path d="M1737.14 0V1092" stroke="black" stroke-width="1.5"/>
<path d="M1828.57 0V1092" stroke="black" stroke-width="1.5"/>
<path d="M1920 0V1092" stroke="black" stroke-width="1.5"/>
<path d="M0 1001L1920 1001" stroke="black" stroke-width="1.5"/>
<path d="M0 910L1920 910" stroke="black" stroke-width="1.5"/>
<path d="M0 819L1920 819" stroke="black" stroke-width="1.5"/>
<path d="M0 728L1920 728" stroke="black" stroke-width="1.5"/>
<path d="M0 637L1920 637" stroke="black" stroke-width="1.5"/>
<path d="M0 546L1920 546" stroke="black" stroke-width="1.5"/>
<path d="M0 454.998L1920 454.998" stroke="black" stroke-width="1.5"/>
<path d="M0 363.998L1920 363.998" stroke="black" stroke-width="1.5"/>
<path d="M0 272.998L1920 272.998" stroke="black" stroke-width="1.5"/>
<path d="M0 182L1920 182" stroke="black" stroke-width="1.5"/>
<path d="M0 91L1920 90.9998" stroke="black" stroke-width="1.5"/>
<path d="M0 0L1920 -0.000167852" stroke="black" stroke-width="1.5" stroke-linecap="round"/>
</g>
</svg>
