<svg width="1919" height="1247" viewBox="0 0 1919 1247" fill="none" xmlns="http://www.w3.org/2000/svg">
<rect width="1919" height="104" fill="#D9D9D9" fill-opacity="0.5"/>
<rect y="207" width="1919" height="105" fill="#D9D9D9" fill-opacity="0.5"/>
<rect y="416" width="1919" height="103" fill="#D9D9D9" fill-opacity="0.5"/>
<rect y="623" width="1919" height="105" fill="#D9D9D9" fill-opacity="0.5"/>
<rect y="104" width="1919" height="103" fill="white" fill-opacity="0.5"/>
<rect y="312" width="1919" height="104" fill="white" fill-opacity="0.5"/>
<rect y="519" width="1919" height="104" fill="white" fill-opacity="0.5"/>
<rect opacity="0.44" x="44.576" y="452.924" width="32.6853" height="32.6853" rx="4.72812" stroke="black" stroke-opacity="0.8" stroke-width="3.15208"/>
<rect opacity="0.44" x="44.576" y="660.598" width="32.6853" height="32.6853" rx="4.72812" stroke="black" stroke-opacity="0.8" stroke-width="3.15208"/>
<rect opacity="0.44" x="44.576" y="556.761" width="32.6853" height="32.6853" rx="4.72812" stroke="black" stroke-opacity="0.8" stroke-width="3.15208"/>
<rect opacity="0.44" x="44.576" y="37.576" width="32.6853" height="32.6853" rx="4.72812" stroke="black" stroke-opacity="0.8" stroke-width="3.15208"/>
<rect opacity="0.44" x="44.576" y="245.25" width="32.6853" height="32.6853" rx="4.72812" stroke="black" stroke-opacity="0.8" stroke-width="3.15208"/>
<rect opacity="0.44" x="44.576" y="141.413" width="32.6853" height="32.6853" rx="4.72812" stroke="black" stroke-opacity="0.8" stroke-width="3.15208"/>
<rect opacity="0.44" x="44.576" y="349.087" width="32.6853" height="32.6853" rx="4.72812" stroke="black" stroke-opacity="0.8" stroke-width="3.15208"/>
<rect y="831" width="1919" height="105" fill="#D9D9D9" fill-opacity="0.5"/>
<rect y="1040" width="1919" height="103" fill="#D9D9D9" fill-opacity="0.5"/>
<rect y="728" width="1919" height="103" fill="white" fill-opacity="0.5"/>
<rect y="936" width="1919" height="104" fill="white" fill-opacity="0.5"/>
<rect y="1143" width="1919" height="104" fill="white" fill-opacity="0.5"/>
<rect opacity="0.44" x="44.576" y="1076.92" width="32.6853" height="32.6853" rx="4.72812" stroke="black" stroke-opacity="0.8" stroke-width="3.15208"/>
<rect opacity="0.44" x="44.576" y="1180.76" width="32.6853" height="32.6853" rx="4.72812" stroke="black" stroke-opacity="0.8" stroke-width="3.15208"/>
<rect opacity="0.44" x="44.576" y="869.25" width="32.6853" height="32.6853" rx="4.72812" stroke="black" stroke-opacity="0.8" stroke-width="3.15208"/>
<rect opacity="0.44" x="44.576" y="765.413" width="32.6853" height="32.6853" rx="4.72812" stroke="black" stroke-opacity="0.8" stroke-width="3.15208"/>
<rect opacity="0.44" x="44.576" y="973.087" width="32.6853" height="32.6853" rx="4.72812" stroke="black" stroke-opacity="0.8" stroke-width="3.15208"/>
</svg>
