<svg width="49" height="49" viewBox="0 0 49 49" fill="none" xmlns="http://www.w3.org/2000/svg">
<path d="M19.6724 23.464C19.6724 23.464 19.6261 13.428 19.7038 8.41217C19.7217 7.27384 19.5559 6.03705 20.3822 4.99122C21.1278 4.04983 22.4606 3.57241 23.7009 3.94987C24.9142 4.31837 25.7838 5.4194 25.7838 6.63978C25.7898 12.2777 25.7868 17.9156 25.7868 23.555C25.7868 23.8176 25.7868 24.0802 25.7868 24.3428C25.8301 24.3502 25.872 24.3562 25.9153 24.3637C26.3202 22.9762 26.7252 21.5887 27.1286 20.2012C28.2702 16.2626 29.4103 12.3239 30.5489 8.38531C30.9225 7.09033 31.9042 6.4891 33.1294 6.36079C34.1694 6.25188 35.1392 6.58458 35.7877 7.51404C35.5411 7.78258 35.4933 8.13915 35.4081 8.46438C33.884 14.2172 32.3898 19.9774 30.8522 25.7258C30.4398 27.2699 30.6251 28.8259 30.5653 30.379C30.5534 30.6819 30.646 30.9624 30.1514 31.0847C26.6295 31.956 24.1058 34.07 22.6474 37.382C22.0692 38.6949 21.7061 40.0899 21.7583 41.5549C21.7763 42.0517 22.0527 42.2486 22.5309 42.2516C23.0075 42.2546 23.0867 41.9801 23.1076 41.5773C23.2526 38.7665 24.2343 36.3467 26.4472 34.5012C28.1297 33.0973 29.9901 32.1842 32.2464 32.2499C32.7977 32.2663 33.3297 32.138 33.7032 31.665C34.9106 30.6685 35.8579 29.4227 36.8187 28.2143C38.4594 26.1495 40.4213 24.8023 43.1423 24.8082C44.2181 24.8097 45.0131 25.4214 45.3493 26.4464C45.2506 26.5195 45.1401 26.5821 45.0534 26.6672C42.5879 29.1154 40.2136 31.6486 37.8183 34.1655C35.3544 36.7554 32.8186 39.2783 30.3113 41.8264C30.1918 41.9488 30.0394 42.0398 29.8974 42.1368C27.3318 43.8868 24.5301 44.6879 21.4072 44.3448C18.2335 43.9972 15.641 42.6216 13.6775 40.1152C12.013 37.9907 11.2554 35.547 11.3077 32.8556C11.3241 31.9843 11.1956 31.1324 11.0582 30.2806C10.5725 27.2744 9.0544 24.7202 7.51833 22.1661C6.40812 20.3206 5.35468 18.4408 4.27734 16.5759C4.92285 15.3361 6.78616 15.1243 7.92924 16.1328C8.81532 16.9131 9.21877 17.9962 9.79106 18.9704C11.0298 21.08 12.2281 23.2134 13.4474 25.3334C13.5057 25.4348 13.6223 25.502 13.7119 25.5855C13.8569 25.9182 14.0511 26.2539 14.4695 26.0972C14.8281 25.963 15.0657 25.6631 15.0388 25.226C15.0224 24.9544 15.0074 24.6919 14.9342 24.4218C13.7657 20.0849 12.5927 15.7494 11.4601 11.4034C10.9222 9.33715 11.5064 8.14064 13.3742 7.22461C14.7385 7.38573 15.4676 8.30326 15.774 9.43561C17.0351 14.1068 19.517 23.4581 19.517 23.4581L19.6172 23.5283L19.6724 23.464Z" fill="#FEE4CC"/>
<path d="M4.27934 16.5762C5.35668 18.4411 6.41012 20.3209 7.51884 22.1678C9.0549 24.722 10.573 27.2761 11.0587 30.2823C11.1961 31.1342 11.3246 31.9876 11.3082 32.8574C11.2559 35.5488 12.0135 37.9925 13.6781 40.117C15.6415 42.6234 18.234 43.9975 21.4077 44.3466C24.5307 44.6882 27.3323 43.8885 29.8979 42.1385C30.0399 42.0416 30.1923 41.9506 30.3118 41.8282C32.8191 39.28 35.3549 36.7572 37.8188 34.1673C40.2126 31.6504 42.5884 29.1172 45.0539 26.6689C45.1406 26.5824 45.2497 26.5212 45.3498 26.4481C45.68 27.3269 45.4977 28.1191 44.8716 28.786C42.9829 30.7926 41.0703 32.7783 39.1756 34.7789C36.8715 37.2122 34.6227 39.7008 32.2603 42.0759C30.1953 44.1526 27.7119 45.47 24.7129 45.6982C22.3311 45.8802 19.9822 45.9474 17.6408 45.2551C13.9664 44.1705 10.582 40.2632 10.0979 36.4499C9.87972 34.7357 9.96937 32.9991 9.6257 31.2909C9.12364 28.7919 7.994 26.5824 6.69103 24.4296C5.71679 22.8168 4.78589 21.1757 3.88636 19.5197C3.2558 18.356 3.44407 17.2356 4.27934 16.5762Z" fill="#F8CFAE"/>
<path d="M33.7038 31.6666C33.3302 32.1396 32.7983 32.2679 32.2469 32.2515C29.9906 32.1858 28.1303 33.0989 26.4478 34.5028C24.2348 36.3482 23.2531 38.7666 23.1082 41.5789C23.0873 41.9817 23.0096 42.2562 22.5314 42.2532C22.0533 42.2502 21.7768 42.0533 21.7589 41.5565C21.7066 40.0914 22.0697 38.6965 22.648 37.3836C24.1063 34.0716 26.6301 31.9576 30.152 31.0863C30.6466 30.964 30.5554 30.6835 30.5659 30.3806C30.6257 28.8275 30.4404 27.2715 30.8528 25.7274C32.3903 19.979 33.8846 14.2188 35.4087 8.46597C35.4954 8.14073 35.5417 7.78417 35.7882 7.51562C36.4367 8.39734 36.5473 9.37902 36.2783 10.4055C35.5312 13.2475 34.7647 16.0837 34.0056 18.9213C33.3437 21.3963 32.6339 23.861 32.0407 26.3525C31.7075 27.7549 31.8808 29.2154 31.966 30.6432C32.0093 31.3414 32.6787 31.6577 33.7038 31.6666Z" fill="#F8CFAE"/>
<path d="M13.3782 7.2272C11.5089 8.14174 10.9262 9.33825 11.4641 11.406C12.5952 15.752 13.7697 20.0875 14.9382 24.4244C15.0114 24.6945 15.0263 24.957 15.0428 25.2286C15.0697 25.6657 14.8321 25.9656 14.4735 26.0998C14.0551 26.2565 13.8623 25.9193 13.7159 25.5881C13.4245 23.853 12.8597 22.1866 12.4234 20.4873C11.6105 17.3259 10.7738 14.1705 9.9116 11.0256C9.40505 9.17713 10.8978 6.86169 13.0809 7.21228C13.178 7.2272 13.2796 7.22273 13.3782 7.2272Z" fill="#F8CFAE"/>
</svg>
