<svg width="40" height="40" viewBox="0 0 40 40" fill="none" xmlns="http://www.w3.org/2000/svg">
<g opacity="0.8">
<path d="M23.9531 12.3164L21.2277 12.5885C21.2277 13.691 21.1886 14.7864 21.2277 15.8783C21.2668 16.9702 20.7516 17.3236 19.7318 17.313C18.712 17.3024 18.3922 16.8289 18.4313 15.8995C18.4775 14.8394 18.4313 13.8076 18.4313 12.6521L15.7236 12.2987L19.8029 5.18555L23.9531 12.3164Z" fill="black"/>
<path d="M15.7236 27.4816C16.8452 27.3718 17.5316 27.3081 18.4939 27.2125L18.4939 24.4399C18.4939 23.498 18.3206 22.5137 19.8242 22.5137C21.2394 22.5137 21.2961 23.3387 21.2607 24.3727C21.2288 25.3004 21.2607 26.2316 21.2607 27.2054C22.1806 27.3222 22.9094 27.4108 23.9531 27.5595L19.8632 34.6413L15.7236 27.4816Z" fill="black"/>
<rect x="25.957" y="35.1309" width="1.43488" height="12.9139" rx="0.71744" transform="rotate(90 25.957 35.1309)" fill="black"/>
<rect x="25.957" y="3.56445" width="1.43488" height="12.9139" rx="0.71744" transform="rotate(90 25.957 3.56445)" fill="black"/>
</g>
</svg>
