<svg width="24" height="23" viewBox="0 0 24 23" fill="none" xmlns="http://www.w3.org/2000/svg">
<g opacity="0.8">
<path d="M24 11.9443C23.939 12.3245 23.8967 12.714 23.817 13.0895C22.9487 17.2101 20.5411 20.0308 16.5706 21.4247C12.051 23.011 6.96351 21.298 4.20858 17.3556C3.85658 16.8534 3.94106 16.2433 4.41039 15.9054C4.87502 15.5722 5.48045 15.6942 5.84183 16.1964C7.22634 18.1253 9.07078 19.3737 11.408 19.8102C14.5572 20.3969 17.2746 19.5098 19.518 17.2383C20.9588 15.7787 21.7519 13.9906 21.9444 11.949C22.3714 7.33555 19.2551 3.19141 14.7261 2.35132C10.2112 1.50653 5.80428 4.2427 4.5371 8.67312C4.51364 8.75291 4.49956 8.83738 4.4714 8.95002C4.98296 8.60742 5.46637 8.27419 5.95446 7.95505C6.61621 7.52327 7.42345 7.87527 7.5314 8.64965C7.58772 9.03919 7.43284 9.36303 7.1137 9.58361C6.00609 10.3392 4.89379 11.0901 3.7768 11.8317C3.30278 12.1461 2.71143 12.0382 2.39229 11.5642C1.62729 10.4331 0.876372 9.29263 0.134839 8.14748C-0.10921 7.76732 -0.0294249 7.0915 0.435207 6.80051C0.890451 6.51423 1.47241 6.6034 1.79155 7.04456C2.01214 7.34493 2.20925 7.66407 2.41576 7.97852C2.46269 8.04892 2.51432 8.11462 2.54717 8.16156C2.79122 7.53266 2.99303 6.88499 3.2887 6.27956C4.92664 2.94267 7.58771 0.915183 11.2344 0.192423C11.6896 0.103251 12.1589 0.0657055 12.6189 0C12.9474 0 13.2759 0 13.6045 0C14.0128 0.0516257 14.4258 0.0844784 14.8294 0.154877C17.1385 0.553803 19.1378 1.56754 20.7945 3.22895C22.3949 4.83404 23.4133 6.75828 23.817 8.99226C23.8874 9.3818 23.939 9.77603 24 10.1656C24 10.7569 24 11.3483 24 11.9443Z" fill="black"/>
<path d="M12.0086 8.48557C12.0086 7.65955 12.0086 6.82885 12.0086 6.00284C12.0086 5.4021 12.4263 4.96563 13.0036 4.96094C13.5761 4.96094 14.0126 5.39272 14.0126 5.99345C14.0173 7.45305 14.0173 8.91265 14.0126 10.3723C14.0126 10.5318 14.0595 10.6445 14.1722 10.7618C15.017 11.6066 15.8618 12.4514 16.6925 13.3055C17.2791 13.9063 17.0163 14.8215 16.2184 15.0045C15.8758 15.0843 15.5614 14.9951 15.3126 14.7464C14.3036 13.7373 13.2992 12.7189 12.2949 11.7051C12.0931 11.5033 12.0039 11.2546 12.0039 10.9636C12.0133 10.1376 12.0086 9.31158 12.0086 8.48557Z" fill="black"/>
</g>
</svg>
