<svg width="516" height="81" viewBox="0 0 516 81" fill="none" xmlns="http://www.w3.org/2000/svg">
<path d="M23 55.5L29.5 49" stroke="black"/>
<circle cx="40.5" cy="40.5" r="39.5" stroke="black"/>
<rect x="53" y="60.1924" width="13" height="13" transform="rotate(-45 53 60.1924)" fill="black"/>
<rect x="10" y="60.1924" width="13" height="13" transform="rotate(-45 10 60.1924)" fill="black"/>
<rect x="34" y="23" width="13" height="13" transform="rotate(-90 34 23)" fill="black"/>
<path d="M49.2882 49.0553H32.8761C29.6963 49.0553 25.8943 48.8252 24.5251 45.9552C22.6266 41.9756 26.1224 36.656 31.0622 38.5559C31.0622 33 37 34 38.0626 35.5553C41.5626 28.5552 51.5626 33.0559 50.5626 39.0553C56.4454 40.7366 55.2655 46.302 52.6616 48.332C51.7339 49.0553 50.4806 49.0553 49.3036 49.0553H49.2882Z" stroke="black"/>
<path d="M51 49L58.5 56.5" stroke="black"/>
<path d="M40.5 33V22.5" stroke="black"/>
<path d="M175.646 31.8536L170.646 36.8536C170.553 36.9473 170.5 37.0745 170.5 37.2071V38.5C170.5 38.7761 170.724 39 171 39H172.293C172.426 39 172.553 38.9473 172.646 38.8536L177.646 33.8536C177.842 33.6583 177.842 33.3417 177.646 33.1464L176.354 31.8536C176.158 31.6583 175.842 31.6583 175.646 31.8536Z" fill="black"/>
<path d="M171 40.9998C172 41.8332 173 42.5002 180.5 40.5002C185.836 39.0773 186 42.4997 191.5 41.9998C195 41.6816 197.6 38.5994 200 40.9998" stroke="black" stroke-linecap="round"/>
<path d="M175 45.908C176 46.7414 177 47.4084 184.5 45.4084C189.836 43.9855 190 47.4079 195.5 46.908C199 46.5898 201.6 43.5076 204 45.908" stroke="black" stroke-linecap="round"/>
<circle cx="185.5" cy="40.5" r="39.5" stroke="black"/>
<circle cx="185.5" cy="40.5" r="39.5" stroke="black"/>
<rect x="161" y="20" width="49" height="39" stroke="black"/>
<path fill-rule="evenodd" clip-rule="evenodd" d="M210 59H161V54H210V59ZM182 55H174V57H182V55ZM196 55H185V57H196V55Z" fill="black"/>
<path fill-rule="evenodd" clip-rule="evenodd" d="M210 25H161V20H210V25ZM182.5 21H163V23H182.5V21ZM209.5 21H184.5V23H209.5V21Z" fill="black"/>
<circle cx="330.5" cy="40.5" r="39.5" stroke="black"/>
<path d="M315.12 33.0003L315.121 48.9946L329.645 57.5M315.12 33.0003L329.645 25.5L344 33.0003M315.12 33.0003L329.645 41.174M344 33.0003L329.645 41.174M344 33.0003L344 48.9946L329.645 57.5M329.645 41.174L329.645 57.5" stroke="black"/>
<path fill-rule="evenodd" clip-rule="evenodd" d="M311.248 38.3374C311.35 37.7064 311.485 37.0797 311.653 36.46C311.439 36.5617 311.229 36.6641 311.024 36.7673C308.76 37.9021 306.92 39.1469 305.68 40.4505C304.447 41.7463 303.717 43.2015 303.934 44.714C304.152 46.2266 305.263 47.417 306.811 48.3127C308.368 49.2138 310.484 49.8895 312.976 50.3401C313.116 50.3653 313.256 50.3898 313.398 50.4136C313.088 49.8647 312.807 49.3034 312.557 48.732C310.473 48.3053 308.781 47.7199 307.562 47.0144C306.202 46.2277 305.543 45.3631 305.419 44.5004C305.295 43.6378 305.684 42.6225 306.766 41.4844C307.767 40.4328 309.284 39.3621 311.248 38.3374ZM312.825 33.3043C313.086 32.7608 313.375 32.2274 313.692 31.7063C312.649 29.5906 312.028 27.7231 311.849 26.2126C311.664 24.6527 311.962 23.6069 312.578 22.9907C313.194 22.3744 314.24 22.0771 315.8 22.262C317.349 22.4456 319.274 23.094 321.456 24.1854C321.614 24.264 321.772 24.3448 321.931 24.4278C322.533 24.1577 323.147 23.9214 323.769 23.719C323.211 23.404 322.664 23.112 322.127 22.8438C319.862 21.7112 317.763 20.9841 315.976 20.7724C314.2 20.5619 312.598 20.8495 311.517 21.93C310.437 23.0106 310.149 24.613 310.36 26.3891C310.571 28.1758 311.298 30.2749 312.431 32.54C312.557 32.7923 312.689 33.0471 312.825 33.3043ZM325.757 23.1925C326.348 23.0707 326.944 22.9779 327.543 22.9143C327.683 22.6258 327.824 22.3445 327.966 22.0707C329.091 19.905 330.267 18.2494 331.413 17.1905C332.567 16.1243 333.587 15.7504 334.448 15.8869C335.309 16.0235 336.164 16.6949 336.931 18.0657C337.693 19.4272 338.299 21.3655 338.698 23.7731C338.784 24.29 338.86 24.8266 338.926 25.3813C339.48 25.7094 340.021 26.0689 340.545 26.4597C340.454 25.4305 340.331 24.4506 340.178 23.5275C339.764 21.0292 339.119 18.9035 338.24 17.3333C337.367 15.7725 336.192 14.6449 334.683 14.4055C333.174 14.1661 331.708 14.875 330.395 16.0889C329.074 17.3102 327.802 19.1319 326.635 21.3793C326.336 21.9541 326.043 22.5592 325.757 23.1925ZM344.889 31.0232C345.242 31.5494 345.565 32.0896 345.858 32.6416C346.503 32.7233 347.124 32.8181 347.719 32.9256C350.121 33.3598 352.05 33.9939 353.4 34.7752C354.76 35.5619 355.419 36.4265 355.543 37.2892C355.667 38.1519 355.279 39.1672 354.196 40.3053C353.121 41.4355 351.448 42.5878 349.266 43.6814C348.784 43.9233 348.278 44.1613 347.751 44.3948C347.649 44.9997 347.518 45.6006 347.355 46.1949C348.271 45.8174 349.134 45.4256 349.939 45.0224C352.203 43.8875 354.043 42.6427 355.283 41.3391C356.515 40.0434 357.245 38.5882 357.028 37.0756C356.81 35.563 355.7 34.3726 354.152 33.4769C352.594 32.5758 350.478 31.9001 347.986 31.4496C347.014 31.2739 345.979 31.1314 344.889 31.0232ZM347.183 46.7888C346.991 47.4094 346.766 48.0219 346.507 48.6235C346.751 49.0633 346.979 49.4958 347.191 49.92C348.282 52.1028 348.931 54.0275 349.115 55.5767C349.299 57.1366 349.002 58.1823 348.386 58.7986C347.77 59.4148 346.724 59.7121 345.164 59.5273C343.615 59.3437 341.69 58.6952 339.507 57.6038C339.296 57.498 339.082 57.3881 338.866 57.2744C338.344 57.581 337.81 57.8597 337.266 58.1107C337.799 58.4103 338.323 58.6888 338.836 58.9454C341.102 60.078 343.201 60.8051 344.987 61.0168C346.763 61.2273 348.366 60.9398 349.446 59.8592C350.527 58.7787 350.815 57.1762 350.604 55.4002C350.392 53.6134 349.665 51.5143 348.533 49.2492C348.134 48.4525 347.683 47.6305 347.183 46.7888ZM335.035 58.9695C334.408 59.165 333.773 59.3265 333.133 59.4538C333.088 59.5426 333.042 59.6306 332.997 59.7179C331.872 61.8836 330.696 63.5392 329.55 64.5981C328.397 65.6643 327.376 66.0382 326.515 65.9017C325.654 65.7651 324.799 65.0937 324.032 63.7229C323.308 62.4277 322.724 60.6103 322.324 58.3636C321.766 58.1284 321.216 57.8645 320.678 57.572C320.712 57.805 320.747 58.0348 320.785 58.2611C321.2 60.7595 321.845 62.8852 322.723 64.4553C323.596 66.0161 324.771 67.1438 326.28 67.3832C327.789 67.6226 329.255 66.9136 330.568 65.6997C331.89 64.4785 333.161 62.6567 334.328 60.4093C334.568 59.9485 334.803 59.4682 335.035 58.9695Z" fill="black"/>
<circle cx="475.5" cy="40.5" r="39.5" stroke="black"/>
<path fill-rule="evenodd" clip-rule="evenodd" d="M475.562 7.09498C475.376 6.90844 475.073 6.90844 474.887 7.09498L471.847 10.1348C471.661 10.3213 471.661 10.6238 471.847 10.8103C472.034 10.9969 472.336 10.9969 472.523 10.8103L474.747 8.58592V21.2749L458.75 30.6645L458.514 30.8029V31.0764V49.4994L447.767 55.5051L448.624 52.4782C448.696 52.2244 448.548 51.9604 448.294 51.8885C448.04 51.8167 447.776 51.9642 447.705 52.2181L446.534 56.3545C446.462 56.6084 446.609 56.8724 446.863 56.9442L451 58.1149C451.254 58.1868 451.518 58.0392 451.589 57.7854C451.661 57.5316 451.514 57.2675 451.26 57.1957L448.233 56.339L458.995 50.3251L464.01 53.0504C464.049 52.7125 464.103 52.3792 464.171 52.051L459.469 49.4956V31.8797L474.747 40.1828V43.0845C474.906 43.0779 475.066 43.0745 475.226 43.0745C475.386 43.0745 475.544 43.0778 475.702 43.0844V40.1798L490.642 31.8799L490.975 49.4986L486.281 52.0497C486.349 52.3778 486.403 52.7111 486.443 53.049L491.458 50.3233L491.563 50.3802L492.481 50.8789L495.597 52.57L502.568 56.3542L499.551 57.2479C499.298 57.3229 499.154 57.5887 499.229 57.8416C499.304 58.0945 499.57 58.2388 499.823 58.1639L503.945 56.9426C504.198 56.8676 504.342 56.6019 504.267 56.3489L503.046 52.2271C502.971 51.9741 502.705 51.8299 502.452 51.9048C502.199 51.9797 502.055 52.2455 502.13 52.4985L503.023 55.5146L496.052 51.7304L492.937 50.0393L492.018 49.5406L491.93 49.4926L491.582 31.0674L491.577 30.803L491.351 30.6669L475.702 21.2779V8.58592L477.927 10.8103C478.113 10.9969 478.416 10.9969 478.602 10.8103C478.789 10.6238 478.789 10.3213 478.602 10.1348L475.562 7.09498ZM459.963 31.0605L475.222 22.1038L490.15 31.0605L475.222 39.3537L459.963 31.0605Z" fill="black"/>
<circle cx="475.229" cy="54.3667" r="11.2925" fill="black" stroke="black" stroke-width="0.955324"/>
<path d="M469.583 50.8389H471.554C472.609 50.8389 473.465 51.6943 473.465 52.7495V54.3678M469.583 57.8967H471.554C472.609 57.8967 473.465 57.0413 473.465 55.986V54.3678M473.465 54.3678C473.465 54.3678 471.099 54.3678 469.583 54.3678M480.876 54.2266V54.5089C480.876 56.3799 479.359 57.8967 477.488 57.8967V57.8967C477.02 57.8967 476.641 57.5175 476.641 57.0498V51.6858C476.641 51.2181 477.02 50.8389 477.488 50.8389V50.8389C479.359 50.8389 480.876 52.3556 480.876 54.2266Z" stroke="white" stroke-width="0.955324" stroke-linecap="round"/>
</svg>
