<svg width="22" height="20" viewBox="0 0 22 20" fill="none" xmlns="http://www.w3.org/2000/svg">
<g clip-path="url(#clip0_848_3228)">
<path d="M10.9959 0.777344C13.7972 0.777344 16.5937 0.777344 19.395 0.777344C20.7282 0.777344 21.4839 1.50719 21.4887 2.84204C21.4983 7.79731 21.4983 12.7574 21.4887 17.7126C21.4839 19.0475 20.7282 19.7773 19.395 19.7773C13.7972 19.7773 8.19947 19.7773 2.60172 19.7773C1.27327 19.7773 0.507975 19.0379 0.507975 17.7126C0.498348 12.7574 0.498348 7.79731 0.503162 2.84204C0.507975 1.51679 1.27327 0.782145 2.60172 0.777344C5.39819 0.777344 8.19947 0.777344 10.9959 0.777344ZM19.5875 2.68359C13.8309 2.68359 8.12727 2.68359 2.42844 2.68359C2.42844 3.64871 2.42844 4.57062 2.42844 5.49733C8.16578 5.49733 13.8694 5.49733 19.5875 5.49733C19.5875 4.54661 19.5875 3.63431 19.5875 2.68359ZM10.1151 15.3791C9.1573 14.4716 8.19466 13.5592 7.15019 12.5701C8.13209 11.6146 9.07547 10.7023 9.93704 9.86681C9.47978 9.37224 9.03697 8.89688 8.62785 8.45513C7.21276 9.86681 5.8025 11.2737 4.43073 12.6421C5.82656 14.0346 7.24646 15.4463 8.67117 16.8676C9.07547 16.445 9.5231 15.9841 10.1151 15.3791ZM14.8369 12.695C13.855 13.6505 12.902 14.5772 12.0308 15.4271C12.5121 15.9505 12.9549 16.4306 13.3159 16.8195C14.7454 15.3983 16.1653 13.9818 17.5178 12.6325C16.1557 11.2737 14.7454 9.862 13.3737 8.49354C12.9405 8.92089 12.4784 9.37704 11.9586 9.89081C12.8827 10.7839 13.8213 11.701 14.8369 12.695Z" fill="black"/>
</g>
<defs>
<clipPath id="clip0_848_3228">
<rect width="21" height="19" fill="white" transform="translate(0.5 0.777344)"/>
</clipPath>
</defs>
</svg>
