<svg width="43" height="43" viewBox="0 0 43 43" fill="none" xmlns="http://www.w3.org/2000/svg">
<path fill-rule="evenodd" clip-rule="evenodd" d="M34.9654 29.5344C34.9752 29.5072 34.9851 29.4799 34.9945 29.4527L34.9967 11.759C34.9753 11.7208 34.9571 11.681 34.9423 11.6399C34.6857 10.64 33.9093 10.0267 32.8763 10.0137C32.5541 10.0104 31.0971 10.0121 30.2253 10.0131L29.6249 10.0137C29.6022 10.0138 29.5803 10.0145 29.559 10.0158C29.4997 10.0131 29.4402 10.0129 29.3808 10.0153H24.6593C23.2737 10.0153 21.8881 10.0171 20.5025 10.0189C16.8497 10.0237 13.1969 10.0285 9.54439 10.0001C8.13566 9.98921 7.15699 10.9967 7.19233 12.3679C7.23206 13.8209 7.22128 16.3347 7.21259 18.3596C7.20939 19.1057 7.20647 19.7853 7.20647 20.3211L7.20658 20.3386C7.20376 20.3742 7.20299 20.41 7.20427 20.4458C7.20101 23.3303 7.20264 26.2148 7.20917 29.0993C7.21098 29.3068 7.24172 29.5131 7.30051 29.7121C7.56747 30.6337 8.35855 31.2013 9.38724 31.2013C11.7474 31.2056 14.1077 31.2078 16.4684 31.1948C16.7272 31.1937 16.8316 31.2812 16.9072 31.509C17.048 31.9375 17.2111 32.3599 17.3742 32.7797C17.5656 33.2652 18.0685 33.3728 18.4431 33.0102C18.6642 32.796 18.8805 32.5775 19.0967 32.3589L19.0968 32.3588C19.2049 32.2496 19.3131 32.1403 19.4218 32.0315C19.5051 31.9479 19.5835 31.8593 19.6649 31.7674L19.6649 31.7674C19.6988 31.7291 19.7332 31.6903 19.7687 31.6509L21.035 32.9194C21.5047 33.3892 21.8168 33.3919 22.2806 32.9308C22.4538 32.7586 22.6266 32.5861 22.7987 32.4132C23.2756 31.9358 23.2984 31.8287 23.0374 31.204H27.1603C27.2368 31.2072 27.3134 31.2056 27.3897 31.1994C27.4037 31.2002 27.4179 31.2007 27.4325 31.2007L27.9726 31.2018C29.3959 31.205 31.9419 31.2106 32.9866 31.193C33.8946 31.1778 34.6466 30.5727 34.9081 29.7028C34.9249 29.6462 34.9451 29.5904 34.9653 29.5346L34.9653 29.5346L34.9654 29.5344ZM27.3564 30.3963C27.3056 30.3911 27.2544 30.3896 27.2033 30.3917C26.8089 30.3912 26.4143 30.3889 26.0198 30.3866H26.0197H26.0195H26.0194H26.0193H26.0192H26.0192H26.0192H26.0191C24.9035 30.3802 23.7876 30.3737 22.6731 30.4059C22.1659 30.4205 21.9011 30.1797 21.6222 29.8257C21.8143 29.6338 22.0055 29.4441 22.1958 29.2555L22.1961 29.2552C22.4314 29.0217 22.6653 28.7897 22.8977 28.5567C23.3392 28.1131 23.231 27.6172 22.6432 27.3997C20.3318 26.5447 18.0219 25.6858 15.7138 24.8231C15.4082 24.7089 15.1314 24.6905 14.8841 24.9291C14.6258 25.1782 14.6448 25.4712 14.7623 25.7811C15.057 26.567 15.3506 27.3533 15.6431 28.1403C15.8215 28.6189 15.9996 29.098 16.1824 29.5902L16.1826 29.5907L16.1831 29.5921L16.1864 29.6008L16.1877 29.6045L16.4793 30.389H16.1857H9.45737C8.51568 30.3885 8.01983 29.8904 8.01983 28.9493V20.567C8.01983 20.5455 8.02013 20.5238 8.02044 20.5021C8.02106 20.4589 8.02168 20.4155 8.01986 20.3723C8.02021 20.3596 8.02039 20.3468 8.02039 20.3336V15.772V15.4801H34.1828V15.797C34.1828 16.9185 34.182 18.0399 34.1813 19.1611V19.1624V19.1626V19.1629V19.1632C34.1791 22.4188 34.1769 25.6736 34.1931 28.9291C34.1969 29.7136 33.7016 30.4308 32.7099 30.3971C31.8309 30.3673 29.6744 30.3787 28.2945 30.386C27.9587 30.3878 27.669 30.3894 27.4548 30.39C27.4204 30.3901 27.3876 30.3923 27.3564 30.3963ZM14.9383 22.7656L15.8398 20.1999C15.8474 20.1781 15.8547 20.1561 15.862 20.1341C15.8774 20.0874 15.8929 20.0407 15.9121 19.996C16.0143 19.7601 16.216 19.6627 16.4368 19.7394C16.6483 19.8128 16.7532 20.0297 16.6744 20.2695C16.5826 20.5476 16.4848 20.8238 16.3871 21.1L16.3871 21.1C16.3493 21.2066 16.3116 21.3132 16.2742 21.42L16.04 22.0847C15.8157 22.7212 15.591 23.3587 15.3684 23.9982C15.2934 24.2157 15.2053 24.4082 14.9372 24.4131C14.6502 24.4174 14.5637 24.2081 14.4881 23.9852C14.2447 23.2656 14.0001 22.5469 13.7442 21.7951L13.7442 21.795L13.5899 21.3417C13.5708 21.3884 13.5535 21.4296 13.5377 21.4672C13.5057 21.5437 13.4799 21.6052 13.4573 21.6679C13.1789 22.4498 12.9014 23.232 12.6249 24.0145C12.5487 24.232 12.452 24.4185 12.1807 24.4125C11.9257 24.4071 11.8332 24.2309 11.7615 24.0211C11.3453 22.7995 10.9265 21.5791 10.505 20.3598C10.4386 20.1678 10.4142 19.9873 10.5713 19.8307C10.7986 19.6046 11.1433 19.7193 11.2651 20.0673C11.4441 20.5798 11.6202 21.0934 11.7963 21.607L11.7965 21.6076C11.8925 21.8876 11.9885 22.1677 12.085 22.4476C12.1064 22.5095 12.1304 22.5715 12.165 22.6608L12.165 22.6609L12.1651 22.6609L12.1651 22.661L12.2013 22.7548C12.2334 22.6675 12.2635 22.5865 12.292 22.5097C12.3537 22.3435 12.4082 22.1967 12.4607 22.048C12.6879 21.4104 12.9139 20.7724 13.1387 20.1341C13.2186 19.9052 13.2985 19.6785 13.6003 19.6856C13.8902 19.6924 13.9628 19.9085 14.0365 20.1279L14.0456 20.1548C14.3353 21.0008 14.6241 21.8446 14.9383 22.7656ZM20.6624 20.1789C20.3617 21.0178 20.0611 21.8573 19.7348 22.7707L19.7169 22.7204L19.6903 22.6466L19.6903 22.6465L19.6903 22.6464C19.6654 22.5773 19.6473 22.5272 19.6305 22.4765C19.5599 22.2716 19.49 22.0664 19.42 21.8612C19.2193 21.2723 19.0185 20.6833 18.804 20.0995C18.7422 19.9462 18.6261 19.8212 18.4778 19.7482C18.381 19.7064 18.1516 19.7711 18.1037 19.857C18.0226 20.0092 18.0016 20.1864 18.045 20.3534C18.3123 21.1605 18.5894 21.9641 18.8666 22.7676L18.8666 22.7677L18.8666 22.7678C19.0101 23.1836 19.1535 23.5995 19.2955 24.0158C19.3673 24.2256 19.4559 24.404 19.7104 24.4127C19.9806 24.4224 20.0806 24.237 20.1573 24.0196C20.4375 23.229 20.7186 22.4387 21.0006 21.6485C21.0211 21.5902 21.0451 21.5334 21.0739 21.4653L21.0739 21.4652L21.074 21.4651C21.0878 21.4322 21.1028 21.3967 21.1191 21.3571C21.1334 21.3925 21.1454 21.4216 21.1557 21.4466L21.1558 21.4467L21.1558 21.4467L21.1558 21.4468C21.1746 21.4922 21.1878 21.5242 21.199 21.5571C21.489 22.4017 21.7772 23.247 22.0635 24.093C22.1277 24.2822 22.2402 24.4061 22.4506 24.4132C22.6746 24.4224 22.7997 24.2947 22.8687 24.0962C22.9217 23.9429 22.9751 23.7896 23.0291 23.6363C23.1678 23.2393 23.3068 22.8431 23.4458 22.447L23.4462 22.4458C23.6982 21.7273 23.9501 21.0094 24.1992 20.2898C24.2889 20.031 24.1943 19.814 23.9659 19.7368C23.7376 19.6596 23.537 19.7656 23.4358 20.0239C23.3962 20.1259 23.3605 20.2294 23.3248 20.333L23.3248 20.3332L23.3247 20.3333C23.3075 20.3832 23.2904 20.433 23.2727 20.4828C23.0863 21.0167 22.8982 21.5509 22.7004 22.1125L22.4724 22.7604L22.4006 22.5553C22.3236 22.3356 22.2576 22.147 22.1935 21.9584C21.9698 21.3099 21.7493 20.6608 21.5318 20.0108C21.4638 19.8102 21.3388 19.6841 21.118 19.6873C20.9109 19.6901 20.7864 19.808 20.7238 19.9994C20.7043 20.0598 20.6836 20.119 20.6624 20.1789ZM28.5247 21.3312L28.388 21.7099C28.1012 22.5043 27.8309 23.253 27.5683 24.0013C27.4922 24.2188 27.4052 24.4091 27.1334 24.4118C26.8615 24.4145 26.7696 24.2237 26.6957 24.0068C26.5787 23.665 26.4611 23.3235 26.3435 22.9819L26.3434 22.9815C26.044 22.1118 25.7446 21.242 25.455 20.3688C25.4056 20.2114 25.4149 20.0415 25.4811 19.8904C25.5284 19.7969 25.7415 19.7082 25.841 19.7403C25.9173 19.7674 25.9874 19.8093 26.0474 19.8636C26.1074 19.9179 26.1561 19.9836 26.1906 20.0568C26.3607 20.503 26.5137 20.9559 26.6667 21.4088C26.7303 21.5971 26.794 21.7855 26.8588 21.9733C26.9216 22.1561 26.9865 22.3382 27.0606 22.5459L27.0606 22.546L27.1399 22.7687L27.9875 20.4009C28.0299 20.2819 28.0723 20.1628 28.1109 20.0426C28.1767 19.8366 28.2915 19.6854 28.5291 19.6854C28.7666 19.6854 28.8787 19.8333 28.9482 20.0405C29.1516 20.6487 29.3588 21.2557 29.566 21.8626L29.5661 21.8627L29.679 22.1935C29.7158 22.3041 29.7564 22.4166 29.8042 22.549C29.8269 22.6119 29.8512 22.6792 29.8774 22.753L30.0047 22.3957C30.0976 22.135 30.1832 21.8947 30.2678 21.6542C30.4469 21.1525 30.6238 20.6494 30.7985 20.1448C30.8042 20.1286 30.8097 20.1122 30.8152 20.0957C30.8268 20.061 30.8384 20.0262 30.8528 19.9926C30.9567 19.7561 31.1557 19.6588 31.3753 19.7338C31.5868 19.8061 31.6983 20.0225 31.614 20.2661C31.1693 21.5539 30.7189 22.8407 30.2629 24.1264C30.1966 24.3145 30.0601 24.4221 29.8502 24.4124C29.6404 24.4026 29.5278 24.2699 29.4653 24.0861C29.1909 23.2836 28.9173 22.4808 28.6443 21.6775C28.6297 21.633 28.6142 21.5889 28.5959 21.5372L28.5959 21.5371C28.576 21.4809 28.553 21.4156 28.5247 21.3312ZM16.0554 12.7479C16.0531 12.8967 16.0069 13.0414 15.9225 13.164C15.8381 13.2865 15.7193 13.3813 15.5811 13.4364C15.4429 13.4915 15.2915 13.5045 15.1459 13.4737C15.0004 13.4429 14.8672 13.3697 14.7631 13.2633C14.6591 13.157 14.5889 13.0222 14.5614 12.876C14.5338 12.7298 14.5502 12.5787 14.6083 12.4417C14.6665 12.3048 14.764 12.1882 14.8883 12.1065C15.0127 12.0249 15.1585 11.9819 15.3072 11.9829C15.5075 11.9863 15.6984 12.0686 15.8384 12.2118C15.9785 12.355 16.0564 12.5476 16.0554 12.7479ZM13.5991 13.1541C13.6826 13.0328 13.7285 12.8895 13.731 12.7422C13.7318 12.6426 13.7128 12.5439 13.6753 12.4516C13.6378 12.3594 13.5824 12.2755 13.5123 12.2047C13.4422 12.134 13.3588 12.0778 13.2669 12.0394C13.175 12.001 13.0764 11.9812 12.9769 11.981C12.8296 11.9821 12.6858 12.0266 12.5637 12.109C12.4416 12.1914 12.3465 12.3079 12.2903 12.4441C12.2341 12.5803 12.2194 12.73 12.2479 12.8745C12.2764 13.019 12.3469 13.1519 12.4505 13.2566C12.5542 13.3612 12.6864 13.433 12.8307 13.4628C12.9749 13.4927 13.1248 13.4793 13.2615 13.4244C13.3982 13.3695 13.5156 13.2755 13.5991 13.1541ZM9.91947 12.7177C9.9246 12.5712 9.97277 12.4295 10.058 12.3103C10.1431 12.191 10.2616 12.0995 10.3985 12.0471C10.5354 11.9947 10.6847 11.9839 10.8277 12.0158C10.9707 12.0478 11.1012 12.1212 11.2028 12.2269C11.3043 12.3325 11.3725 12.4658 11.3988 12.61C11.4251 12.7542 11.4084 12.9029 11.3506 13.0376C11.2929 13.1723 11.1968 13.2871 11.0742 13.3675C10.9517 13.4479 10.8082 13.4904 10.6616 13.4898C10.5619 13.489 10.4633 13.4682 10.3716 13.4287C10.28 13.3893 10.1972 13.3319 10.128 13.26C10.0589 13.188 10.0048 13.103 9.96901 13.0099C9.93319 12.9168 9.91635 12.8174 9.91947 12.7177Z" fill="#7E7E7E"/>
</svg>
