<svg width="21" height="18" viewBox="0 0 21 18" fill="none" xmlns="http://www.w3.org/2000/svg">
<path d="M2.16667 17.7773C1.68056 17.7773 1.28125 17.618 0.96875 17.2992C0.65625 16.9805 0.5 16.5732 0.5 16.0773V2.47734C0.5 1.98151 0.65625 1.57422 0.96875 1.25547C1.28125 0.936719 1.68056 0.777344 2.16667 0.777344H18.8333C19.3194 0.777344 19.7188 0.936719 20.0312 1.25547C20.3438 1.57422 20.5 1.98151 20.5 2.47734V16.0773C20.5 16.5732 20.3438 16.9805 20.0312 17.2992C19.7188 17.618 19.3194 17.7773 18.8333 17.7773H2.16667ZM6.75 8.42734C7.44444 8.42734 8.03472 8.17943 8.52083 7.68359C9.00694 7.18776 9.25 6.58568 9.25 5.87734C9.25 5.16901 9.00694 4.56693 8.52083 4.07109C8.03472 3.57526 7.44444 3.32734 6.75 3.32734C6.05556 3.32734 5.46528 3.57526 4.97917 4.07109C4.49306 4.56693 4.25 5.16901 4.25 5.87734C4.25 6.58568 4.49306 7.18776 4.97917 7.68359C5.46528 8.17943 6.05556 8.42734 6.75 8.42734ZM18 15.2273V11.8273L14.6667 8.42734L9.66667 13.5273L6.75 10.4992L2.16667 15.2273H18Z" fill="#7E7E7E"/>
</svg>
