<svg width="31" height="24" viewBox="0 0 31 24" fill="none" xmlns="http://www.w3.org/2000/svg">
<path d="M15.5049 0.0042475C19.6036 0.0042475 23.7022 0.0042475 27.8008 0.0042475C29.8516 0.0042475 30.9993 1.15172 30.9993 3.22577C30.9993 7.72363 30.978 12.22 30.9719 16.7163C30.9719 18.0709 31.0053 19.4239 30.9993 20.7785C30.9902 22.8188 29.8076 24 27.778 24C25.4767 24 23.1754 24 20.8726 24C15.003 24 9.13336 24 3.26372 24C1.19164 24 -0.00151656 22.8341 1.44672e-06 20.7493C1.44672e-06 18.0709 0.0546507 15.3924 0.0531327 12.7155C0.0531327 9.5507 0.00304191 6.38593 0.00455992 3.21963C0.00455992 1.13945 1.15065 0.00731712 3.20907 0.00578306C7.31175 -0.00137588 11.4104 -0.00188874 15.5049 0.0042475ZM0.865268 17.6766C1.24932 17.3698 1.44818 17.2271 1.6349 17.063C3.88155 15.1178 6.14035 13.1895 8.3612 11.2136C8.91679 10.7197 9.28111 10.735 9.82911 11.2213C12.261 13.3828 14.7459 15.486 17.1748 17.6459C17.6195 18.0386 17.8867 18.0049 18.3133 17.6459C20.0453 16.1962 21.8153 14.791 23.5534 13.3506C23.9861 12.9901 24.3124 12.9947 24.7435 13.3506C26.0642 14.4628 27.4122 15.5412 28.7526 16.6288C29.1549 16.9556 29.5663 17.2686 30.0535 17.6505C30.0854 17.29 30.1234 17.0676 30.1234 16.8436C30.1234 12.3519 30.1168 7.86016 30.1036 3.36844C30.1036 1.63035 29.3856 0.913943 27.646 0.913943H3.36088C1.62124 0.913943 0.912328 1.63342 0.904738 3.36844C0.89057 6.68814 0.876402 10.0073 0.862234 13.326C0.862234 14.7067 0.865268 16.0827 0.865268 17.6766ZM24.1439 14.0624C22.1918 15.6517 20.2897 17.1857 18.4271 18.7489C17.8913 19.2015 17.5345 19.1831 17.0108 18.7198C14.6169 16.5966 12.1744 14.5303 9.78205 12.4071C9.26896 11.9469 8.95625 11.8963 8.41584 12.3856C6.37716 14.2188 4.3324 16.0536 2.19201 17.7549C1.19164 18.5526 0.798475 19.3886 0.888038 20.6573C1.00189 22.288 1.64704 23.0443 3.27131 23.0458C7.4428 23.0458 11.6143 23.0458 15.7858 23.0458C19.8313 23.0458 23.8752 23.0458 27.9207 23.0458C28.6797 23.0458 29.331 22.8172 29.7423 22.1591C30.3738 21.1513 30.046 20.0253 30.0581 18.9376C30.0581 18.8624 29.9412 18.775 29.8653 18.7121C27.9784 17.1857 26.0915 15.6517 24.1439 14.0624Z" fill="black"/>
</svg>
