<svg width="48" height="48" viewBox="0 0 48 48" fill="none" xmlns="http://www.w3.org/2000/svg">
<path d="M40.0264 11.9259C40.13 10.6637 40.2336 9.40083 40.3366 8.13854C40.4028 7.32999 40.0156 6.87443 39.2094 6.80904C34.6071 6.43578 30.0049 6.06251 25.4027 5.68924C23.6099 5.54384 21.8165 5.39718 20.0236 5.25357C19.381 5.20205 18.8737 5.62428 18.8205 6.25771C18.7114 7.56536 18.609 8.87296 18.5042 10.1804C18.5005 10.2102 18.4969 10.2401 18.4945 10.2701C18.0793 15.3896 17.6634 20.509 17.2495 25.6281C17.2021 26.2119 17.662 26.7312 18.2632 26.78C24.7055 27.3031 31.1473 27.8256 37.5898 28.3475C38.212 28.398 38.7294 27.9548 38.7801 27.3291C38.9068 25.7749 39.0329 24.22 39.1583 22.6657C39.4481 19.086 39.7373 15.5057 40.0264 11.9259Z" fill="#FEFEFE"/>
<path d="M40.0272 11.9255C39.738 15.5052 39.4488 19.0856 39.1591 22.6653C39.0337 24.2196 38.9076 25.7744 38.7809 27.3286C38.7302 27.9538 38.2121 28.3975 37.5905 28.3471C31.1481 27.8252 24.7063 27.3027 18.264 26.7796C17.6628 26.7308 17.2029 26.2115 17.2502 25.6276C17.6637 20.508 18.0795 15.3885 18.4953 10.2696C18.4977 10.2397 18.5019 10.2099 18.505 10.1799C18.5719 10.1872 18.6388 10.1962 18.7059 10.2017C25.7459 10.7726 32.7853 11.3436 39.8253 11.9146C39.8925 11.92 39.9599 11.9219 40.0272 11.9255ZM28.3122 22.5385C31.0251 22.7585 33.738 22.9786 36.4503 23.1985C36.8357 23.2298 36.9542 23.1302 36.9857 22.7496C37.2305 19.7304 37.4754 16.7112 37.7203 13.692C37.7524 13.2958 37.6553 13.1836 37.2537 13.151C31.8507 12.7128 26.4477 12.2746 21.044 11.8363C20.6424 11.8037 20.5292 11.8983 20.497 12.2951C20.2527 15.3071 20.0085 18.3185 19.7642 21.3306C19.7308 21.7417 19.8246 21.8501 20.2406 21.8839C22.9313 22.1021 25.6214 22.3203 28.3122 22.5385ZM30.2025 24.859C32.2123 25.022 34.2227 25.1851 36.2325 25.3481C36.2996 25.3536 36.3671 25.3626 36.4341 25.362C36.6394 25.36 36.7788 25.2337 36.7982 25.0386C36.8177 24.8351 36.695 24.6815 36.4818 24.6479C36.415 24.6377 36.3476 24.6352 36.2805 24.6298C32.2453 24.3025 28.2109 23.9735 24.1751 23.6534C23.9599 23.6366 23.8966 23.5832 23.9288 23.3649C23.9723 23.0662 23.8404 22.8926 23.6038 22.8782C23.3769 22.8647 23.2226 23.0114 23.2232 23.3017C23.224 23.5449 23.1283 23.5709 22.9157 23.5513C21.9456 23.4617 20.9736 23.3877 20.0018 23.3107C19.708 23.2875 19.5432 23.4449 19.5692 23.7118C19.5879 23.9058 19.7123 24.0082 19.9647 24.0287C20.8912 24.1051 21.818 24.1796 22.7441 24.2547C23.1103 24.2844 23.1103 24.2844 23.1084 24.6421C23.1073 24.8568 23.2383 25.0128 23.4335 25.031C23.6293 25.0487 23.789 24.9175 23.8235 24.7073C23.8307 24.6632 23.8387 24.6174 23.8344 24.573C23.8178 24.3834 23.8965 24.3428 24.0829 24.3591C26.1221 24.5305 28.1621 24.6936 30.2025 24.859Z" fill="#EDF4F7"/>
<path d="M40.0264 11.9262C39.9591 11.9225 39.8917 11.9207 39.8245 11.9152C32.7845 11.3443 25.7451 10.7733 18.7051 10.2023C18.638 10.1969 18.5711 10.1879 18.5042 10.1806C18.609 8.87321 18.7114 7.56562 18.8205 6.25796C18.8737 5.62454 19.3809 5.20231 20.023 5.25378C21.816 5.39679 23.6092 5.54404 25.4021 5.68945C30.0043 6.06272 34.6065 6.43598 39.2087 6.80925C40.0149 6.87464 40.4021 7.3302 40.336 8.13874C40.2336 9.40109 40.1299 10.6639 40.0264 11.9262ZM34.7639 10.0604C35.9363 10.1555 37.1086 10.2518 38.2812 10.3451C38.5762 10.3684 38.7179 10.2502 38.7439 9.95904C38.7821 9.52591 38.8172 9.09314 38.8493 8.65953C38.8722 8.35488 38.7536 8.21736 38.4444 8.19227C36.1074 8.00152 33.7697 7.81192 31.4325 7.62357C31.1226 7.59844 30.9834 7.71566 30.9575 8.02006C30.9212 8.43825 30.8879 8.85608 30.8552 9.27456C30.8281 9.62351 30.9373 9.74942 31.2916 9.77816C32.449 9.87263 33.6064 9.96651 34.7639 10.0604ZM22.2921 7.97006C22.3401 7.39293 21.8909 6.85331 21.3194 6.80274C20.7299 6.7507 20.1884 7.20153 20.1398 7.78525C20.0918 8.36238 20.5415 8.90265 21.1125 8.95257C21.7025 9.00525 22.2435 8.55439 22.2921 7.97006ZM26.8655 9.41978C27.4426 9.4678 27.9817 9.01798 28.0323 8.44649C28.0843 7.85701 27.6328 7.316 27.0485 7.268C26.4713 7.21999 25.9316 7.67035 25.8817 8.24129C25.8303 8.83082 26.2812 9.37118 26.8655 9.41978ZM25.1626 8.20348C25.2111 7.627 24.7614 7.08673 24.1918 7.0357C23.6023 6.98307 23.0602 7.43324 23.0112 8.01572C22.9628 8.5904 23.4151 9.13511 23.9818 9.18589C24.57 9.23783 25.1135 8.78596 25.1626 8.20348Z" fill="#33658A"/>
<path d="M28.3092 22.5401C25.6191 22.3219 22.9283 22.1037 20.2382 21.8855C19.8222 21.8518 19.7285 21.7428 19.7618 21.3322C20.0061 18.3202 20.2503 15.3088 20.4946 12.2968C20.5268 11.9 20.6395 11.8053 21.0417 11.838C26.4447 12.2762 31.8477 12.7144 37.2513 13.1527C37.6529 13.1852 37.75 13.2975 37.7179 13.6937C37.473 16.7129 37.2281 19.7321 36.9833 22.7513C36.9524 23.1319 36.8339 23.2315 36.4479 23.2002C33.7344 22.9801 31.0221 22.7601 28.3092 22.5401ZM26.9448 17.3722C26.8982 17.9476 26.8533 18.5226 26.8037 19.0978C26.7894 19.2589 26.818 19.397 26.9587 19.4923C27.1 19.5882 27.2379 19.5614 27.3821 19.4868C28.3389 18.9894 29.2984 18.497 30.2547 17.9984C30.6132 17.8115 30.6337 17.5284 30.3083 17.2848C29.4505 16.6438 28.5886 16.008 27.7314 15.3665C27.6011 15.269 27.4726 15.2164 27.3174 15.2931C27.1615 15.3698 27.093 15.4933 27.0812 15.6691C27.0417 16.2373 26.9909 16.8045 26.9448 17.3722Z" fill="#FE6B6B"/>
<path d="M30.2006 24.8604C28.1608 24.695 26.1208 24.532 24.081 24.3599C23.8946 24.3442 23.816 24.3842 23.8326 24.5738C23.8362 24.6182 23.8289 24.664 23.8217 24.7081C23.7872 24.9177 23.6275 25.0495 23.4316 25.0318C23.2364 25.0142 23.1055 24.8576 23.1066 24.6429C23.1084 24.2852 23.1084 24.2852 22.7422 24.2555C21.8155 24.1804 20.8888 24.1058 19.9628 24.0295C19.7105 24.0084 19.5861 23.906 19.5674 23.7126C19.5414 23.4457 19.7062 23.2883 19.9999 23.3115C20.9718 23.3879 21.9432 23.4619 22.9139 23.5521C23.1265 23.5717 23.2221 23.5463 23.2213 23.3025C23.2207 23.0122 23.375 22.8655 23.602 22.879C23.8385 22.8934 23.9705 23.067 23.9269 23.3657C23.8948 23.584 23.958 23.6374 24.1732 23.6542C28.209 23.9743 32.2435 24.3033 36.2786 24.6306C36.3458 24.636 36.4138 24.6379 36.4799 24.6487C36.6932 24.6823 36.8165 24.8359 36.7963 25.0394C36.7775 25.2346 36.6375 25.3608 36.4322 25.3629C36.3652 25.3634 36.2978 25.3544 36.2306 25.3489C34.2202 25.1865 32.2104 25.0235 30.2006 24.8604Z" fill="#33658A"/>
<path d="M34.7632 10.0608C33.6057 9.96694 32.4482 9.87367 31.2908 9.77919C30.936 9.75041 30.8268 9.6239 30.8544 9.2756C30.8871 8.85712 30.9204 8.43928 30.9568 8.02109C30.9833 7.71674 31.1219 7.59947 31.4318 7.62461C33.7689 7.81296 36.1066 8.00256 38.4436 8.19331C38.7529 8.21839 38.8721 8.35597 38.8486 8.66056C38.8158 9.09413 38.7813 9.52694 38.7432 9.96007C38.7171 10.2512 38.5754 10.3694 38.2805 10.3461C37.108 10.2516 35.9356 10.1559 34.7632 10.0608Z" fill="#DAE8ED"/>
<path d="M22.29 7.97022C22.2414 8.55454 21.7005 9.00481 21.1104 8.95333C20.5395 8.90281 20.0897 8.36313 20.1377 7.78601C20.1863 7.20228 20.7273 6.75141 21.3173 6.8035C21.8889 6.85347 22.338 7.39309 22.29 7.97022Z" fill="#5A90B7"/>
<path d="M26.8665 9.41972C26.2822 9.37112 25.8312 8.83076 25.8827 8.24064C25.9326 7.66969 26.4723 7.21993 27.0495 7.26734C27.6338 7.31594 28.0853 7.85636 28.0333 8.44583C27.9827 9.01732 27.4436 9.46774 26.8665 9.41972Z" fill="#5A90B7"/>
<path d="M25.1624 8.20379C25.1133 8.78627 24.5699 9.23814 23.9816 9.18621C23.4149 9.13602 22.9626 8.59071 23.011 8.01603C23.06 7.43356 23.6021 6.98398 24.1916 7.03602C24.7612 7.08704 25.2103 7.62726 25.1624 8.20379Z" fill="#5A90B7"/>
<path d="M26.9483 17.3714C26.9943 16.8037 27.0451 16.2365 27.0834 15.6682C27.0952 15.4924 27.1638 15.3682 27.3196 15.2922C27.4748 15.2161 27.6033 15.2681 27.7336 15.3656C28.5914 16.0071 29.4533 16.643 30.3106 17.2839C30.6365 17.5275 30.616 17.81 30.2569 17.9975C29.3006 18.4961 28.3412 18.9885 27.3843 19.4859C27.2407 19.5605 27.1028 19.5873 26.961 19.4913C26.8203 19.3961 26.7916 19.258 26.8059 19.0968C26.8567 18.5224 26.9016 17.9468 26.9483 17.3714Z" fill="#DAE7EC"/>
<path d="M4.52492 14.8795C6.91008 14.6121 9.29523 14.3446 11.6804 14.0771C12.0433 17.3084 12.4064 20.5403 12.7693 23.7715C12.5562 23.7973 12.3428 23.8256 12.1294 23.8495C10.9771 23.9793 9.82439 24.1061 8.67231 24.2384C8.28994 24.2825 8.02947 24.5668 8.02454 24.927C8.0198 25.2722 8.28708 25.5745 8.64374 25.6166C8.73368 25.627 8.82739 25.6159 8.91873 25.6057C10.2548 25.459 11.5901 25.3111 12.9261 25.1638C12.9771 25.6191 13.0283 26.075 13.0793 26.5303C12.8662 26.556 12.6527 26.5843 12.4394 26.6082C11.2871 26.7381 10.1344 26.8649 8.98228 26.9972C8.59991 27.0413 8.33944 27.3256 8.33452 27.6857C8.32978 28.031 8.59706 28.3332 8.95372 28.3753C9.04365 28.3858 9.13737 28.3747 9.22871 28.3644C10.5648 28.2177 11.9001 28.0698 13.2361 27.9225C13.2871 28.3778 13.3382 28.8337 13.3893 29.289C13.1762 29.3148 12.9627 29.3431 12.7494 29.367C11.597 29.4968 10.4443 29.6236 9.29226 29.7559C8.90989 29.8 8.64942 30.0843 8.6445 30.4445C8.63976 30.7897 8.90703 31.092 9.2637 31.1341C9.35363 31.1445 9.44735 31.1334 9.53868 31.1232C10.8747 30.9765 12.21 30.8286 13.546 30.6813C13.5971 31.1366 13.6482 31.5925 13.6993 32.0478C13.4861 32.0736 13.2727 32.1018 13.0594 32.1258C11.907 32.2556 10.7543 32.3824 9.60223 32.5147C9.21987 32.5588 8.9594 32.8431 8.95447 33.2033C8.94973 33.5485 9.21701 33.8507 9.57367 33.8929C9.6636 33.9033 9.75732 33.8922 9.84866 33.8819C11.1847 33.7352 12.52 33.5874 13.856 33.44C14.0112 34.83 14.1665 36.2199 14.3217 37.6098C14.238 37.6217 14.1546 37.636 14.0706 37.6454C11.916 37.8877 9.76196 38.1292 7.60722 38.3702C6.23657 38.5239 5.28117 37.7588 5.12697 36.3837C4.58086 31.5136 4.03469 26.643 3.48858 21.773C3.31681 20.2412 3.14021 18.7105 2.97518 17.178C2.88518 16.3587 3.18775 15.7026 3.84435 15.2091C4.04987 15.0547 4.29665 14.986 4.52492 14.8795Z" fill="#6492C6"/>
<path d="M21.3156 19.2848C21.3266 19.3613 21.3388 19.4371 21.3475 19.5139C21.9076 24.5093 22.4685 29.5052 23.028 34.5006C23.1648 35.7203 22.3724 36.7138 21.1544 36.8504C18.9606 37.097 16.7666 37.3424 14.5727 37.5884C14.4887 37.5978 14.4042 37.6023 14.32 37.6093C14.1647 36.2194 14.0095 34.8294 13.8542 33.4395L13.8478 33.4265C14.3207 33.376 14.7942 33.331 15.2662 33.2725C15.6342 33.2269 15.88 32.8894 15.8376 32.5116C15.7952 32.1331 15.4815 31.8597 15.112 31.8967C14.6387 31.9442 14.167 32.0052 13.6947 32.0606L13.698 32.0466C13.647 31.5913 13.5959 31.1354 13.5448 30.6801L13.5384 30.6671C14.9357 30.5129 16.3334 30.3624 17.7304 30.2008C18.0846 30.1598 18.3219 29.8128 18.2805 29.4435C18.2391 29.0742 17.9309 28.789 17.5765 28.8275C16.1789 28.9792 14.7826 29.142 13.3852 29.3012L13.3886 29.2871C13.3376 28.8318 13.2864 28.3759 13.2354 27.9206L13.229 27.9077C14.6262 27.7535 16.0239 27.603 17.421 27.4413C17.7752 27.4004 18.0125 27.0533 17.9711 26.6841C17.9297 26.3148 17.6215 26.0295 17.267 26.0681C15.8695 26.2198 14.4731 26.3826 13.0758 26.5418L13.0792 26.5277C13.0281 26.0724 12.977 25.6165 12.9259 25.1612L12.9195 25.1482C14.3168 24.994 15.7145 24.8435 17.111 24.6819C17.4651 24.641 17.7024 24.294 17.661 23.9247C17.6196 23.5554 17.3114 23.2702 16.957 23.3087C15.5594 23.4604 14.1631 23.6232 12.7664 23.7823L12.7698 23.7683C12.4068 20.537 12.0438 17.3051 11.6808 14.0739C12.5984 13.971 13.5155 13.8681 14.4331 13.7652C14.6101 15.3431 14.7865 16.9217 14.9646 18.4994C15.0646 19.3854 15.7107 19.9052 16.5916 19.807C18.1664 19.6361 19.7413 19.4601 21.3156 19.2848Z" fill="#467BB7"/>
<path d="M21.3137 19.2834C19.7394 19.4587 18.1645 19.6347 16.5901 19.8094C15.7097 19.9069 15.0631 19.3877 14.9631 18.5018C14.7856 16.9239 14.6086 15.3455 14.4316 13.7676C14.4929 13.7607 14.5542 13.7538 14.6149 13.747C14.8158 13.8278 14.9864 13.9542 15.1541 14.0885C17.0897 15.6409 19.0276 17.1911 20.966 18.7401C21.1458 18.8829 21.2991 19.0375 21.3137 19.2834Z" fill="#6492C6"/>
<path d="M12.923 25.1624C11.587 25.3104 10.2517 25.4582 8.91562 25.6043C8.82428 25.6146 8.73057 25.6257 8.64063 25.6152C8.28397 25.5731 8.01669 25.2708 8.02143 24.9256C8.02636 24.5655 8.28744 24.2811 8.6692 24.2371C9.82128 24.1048 10.974 23.978 12.1263 23.8481C12.3397 23.8242 12.5532 23.7965 12.7662 23.7702L12.7628 23.7842C12.8139 24.2395 12.8649 24.6942 12.9159 25.1495L12.923 25.1624Z" fill="#7CACE2"/>
<path d="M13.2335 27.9222C11.8976 28.0701 10.5623 28.218 9.22617 28.3641C9.13483 28.3743 9.04111 28.3855 8.95118 28.375C8.59452 28.3329 8.32724 28.0306 8.33198 27.6854C8.3369 27.3252 8.59799 27.0409 8.97974 26.9968C10.1318 26.8645 11.2845 26.7378 12.4369 26.6079C12.6502 26.584 12.8637 26.5563 13.0768 26.5299L13.0734 26.544C13.1244 26.9993 13.1754 27.454 13.2265 27.9093L13.2335 27.9222Z" fill="#7CACE2"/>
<path d="M13.5421 30.68C12.2062 30.8279 10.8709 30.9758 9.53476 31.1219C9.44343 31.1321 9.34971 31.1433 9.25977 31.1328C8.90311 31.0907 8.63584 30.7884 8.64057 30.4432C8.6455 30.0831 8.90658 29.7987 9.28834 29.7546C10.4404 29.6223 11.5931 29.4956 12.7455 29.3657C12.9588 29.3418 13.1723 29.3141 13.3854 29.2877L13.382 29.3018C13.433 29.7571 13.484 30.2118 13.5351 30.6671L13.5421 30.68Z" fill="#7CACE2"/>
<path d="M13.8527 33.4378C12.5167 33.5857 11.1814 33.7336 9.84531 33.8797C9.75397 33.8899 9.66025 33.9011 9.57032 33.8906C9.21366 33.8485 8.94638 33.5462 8.95112 33.201C8.95604 32.8409 9.21713 32.5565 9.59888 32.5124C10.751 32.3801 11.9037 32.2534 13.056 32.1235C13.2693 32.0996 13.4829 32.0719 13.6959 32.0456L13.6925 32.0596C13.7436 32.5149 13.7946 32.9696 13.8456 33.4249L13.8527 33.4378Z" fill="#7CACE2"/>
<path d="M12.9193 25.1501C12.8683 24.6948 12.8173 24.2401 12.7662 23.7848C14.163 23.6257 15.5593 23.4629 16.9575 23.3111C17.3125 23.2725 17.6207 23.5578 17.6615 23.9271C17.7029 24.2964 17.4656 24.6428 17.1115 24.6844C15.7143 24.8454 14.3166 24.9953 12.9193 25.1501Z" fill="#568ECC"/>
<path d="M13.2279 27.9079C13.1769 27.4526 13.1259 26.9979 13.0748 26.5426C14.4716 26.3835 15.8679 26.2207 17.2661 26.0689C17.6211 26.0304 17.9293 26.3156 17.9701 26.6849C18.0115 27.0542 17.7742 27.4006 17.4201 27.4422C16.0229 27.6032 14.6252 27.7537 13.2279 27.9079Z" fill="#568ECC"/>
<path d="M13.5385 30.6677C13.4874 30.2124 13.4364 29.7577 13.3854 29.3024C14.7821 29.1433 16.1784 28.9805 17.5766 28.8287C17.9317 28.7901 18.2399 29.0754 18.2807 29.4447C18.3221 29.814 18.0847 30.1604 17.7306 30.202C16.3335 30.363 14.9357 30.5129 13.5385 30.6677Z" fill="#568ECC"/>
<path d="M13.8472 33.4248C13.7962 32.9695 13.7452 32.5149 13.6941 32.0596C14.1665 32.0041 14.6382 31.9431 15.1114 31.8957C15.4809 31.8586 15.7952 32.1319 15.8371 32.5105C15.8794 32.8884 15.6336 33.2252 15.2657 33.2714C14.7936 33.3293 14.3201 33.3743 13.8472 33.4248Z" fill="#568ECC"/>
<path d="M19.6111 40.3652C19.9105 36.3914 20.2099 32.4171 20.5093 28.4432C20.5599 28.4398 20.5983 28.4179 20.6023 28.3649C20.6157 28.1802 20.7083 28.0227 20.78 27.8596C21.1851 26.9346 22.2778 26.2779 23.2835 26.3536C29.2528 26.8029 35.2216 27.2531 41.1909 27.7015C41.3794 27.7157 41.5621 27.7575 41.7369 27.8199C42.6953 28.1622 43.2901 28.8301 43.5114 29.8226C43.5246 29.8814 43.5184 29.9455 43.5991 29.9575C43.3402 33.3936 43.0814 36.8297 42.8225 40.2658C40.7052 37.8131 38.5884 35.3599 36.4702 32.9076C35.7355 32.0571 34.7468 31.984 33.8934 32.7148C32.2981 34.0805 30.7032 35.4467 29.1083 36.8128C28.7273 36.4616 28.42 36.0449 28.0802 35.657C27.3184 34.7873 26.3451 34.7086 25.4704 35.4577C23.6022 37.0576 21.7358 38.6577 19.8681 40.2572C19.8003 40.3153 19.7278 40.3686 19.6575 40.4238C19.6422 40.4041 19.6264 40.3844 19.6111 40.3652ZM25.0147 33.2087C26.0787 33.2921 26.9918 32.5156 27.0756 31.4566C27.1596 30.3968 26.3789 29.4768 25.3235 29.3924C24.2573 29.3066 23.3255 30.0984 23.2451 31.1585C23.1649 32.2119 23.9533 33.1256 25.0147 33.2087Z" fill="#EBEEF0"/>
<path d="M29.1076 36.814C30.7025 35.4478 32.2974 34.0816 33.8927 32.7159C34.746 31.9856 35.7343 32.0582 36.4694 32.9087C38.5877 35.3606 40.7045 37.8138 42.8217 40.2669C42.7553 41.1483 42.6889 42.0297 42.6225 42.9111C42.5405 42.9767 42.54 43.0792 42.5094 43.1668C42.1498 44.2023 41.0965 44.9691 40.003 44.9102C38.5861 44.8338 37.1721 44.7019 35.7568 44.5939C35.7009 44.5238 35.6473 44.452 35.589 44.3839C33.481 41.94 31.3721 39.4965 29.2646 37.0522C29.203 36.9802 29.1158 36.9221 29.1076 36.814Z" fill="#388E3C"/>
<path d="M35.7581 44.5939C35.6681 44.5898 35.578 44.5885 35.4883 44.5817C31.0233 44.2458 26.5588 43.9017 22.0934 43.5775C20.8039 43.4839 19.5097 42.3446 19.6295 40.7372C19.6374 40.6325 19.6484 40.5286 19.6585 40.4241C19.7288 40.3688 19.8013 40.3155 19.8692 40.2574C21.7364 38.6579 23.6032 37.0578 25.4709 35.4588C26.3461 34.7092 27.3194 34.7884 28.0807 35.6581C28.4205 36.046 28.7278 36.4622 29.1089 36.814C29.1166 36.9225 29.2042 36.9806 29.2659 37.0521C31.3734 39.4969 33.4823 41.9399 35.5903 44.3838C35.6486 44.4515 35.7021 44.5237 35.7581 44.5939Z" fill="#4CAE50"/>
<path d="M25.0141 33.2082C23.9528 33.1251 23.1644 32.2114 23.2446 31.158C23.3254 30.0979 24.2568 29.3061 25.323 29.3919C26.3783 29.4768 27.1586 30.3962 27.0751 31.4561C26.9913 32.5151 26.0782 33.292 25.0141 33.2082Z" fill="#FEC108"/>
</svg>
