<svg width="48" height="48" viewBox="0 0 48 48" fill="none" xmlns="http://www.w3.org/2000/svg">
<path d="M24.5049 12.0042C28.6036 12.0042 32.7022 12.0042 36.8008 12.0042C38.8516 12.0042 39.9993 13.1517 39.9993 15.2258C39.9993 19.7236 39.978 24.22 39.9719 28.7163C39.9719 30.0709 40.0053 31.4239 39.9993 32.7785C39.9902 34.8188 38.8076 36 36.778 36C34.4767 36 32.1754 36 29.8726 36C24.003 36 18.1334 36 12.2637 36C10.1916 36 8.99848 34.8341 9 32.7493C9 30.0709 9.05465 27.3924 9.05313 24.7155C9.05313 21.5507 9.00304 18.3859 9.00456 15.2196C9.00456 13.1394 10.1507 12.0073 12.2091 12.0058C16.3117 11.9986 20.4104 11.9981 24.5049 12.0042ZM9.86527 29.6766C10.2493 29.3698 10.4482 29.2271 10.6349 29.063C12.8816 27.1178 15.1403 25.1895 17.3612 23.2136C17.9168 22.7197 18.2811 22.735 18.8291 23.2213C21.261 25.3828 23.7459 27.486 26.1748 29.6459C26.6195 30.0386 26.8867 30.0049 27.3133 29.6459C29.0453 28.1962 30.8153 26.791 32.5534 25.3506C32.9861 24.9901 33.3124 24.9947 33.7435 25.3506C35.0642 26.4628 36.4122 27.5412 37.7526 28.6288C38.1549 28.9556 38.5663 29.2686 39.0535 29.6505C39.0854 29.29 39.1234 29.0676 39.1234 28.8436C39.1234 24.3519 39.1168 19.8602 39.1036 15.3684C39.1036 13.6303 38.3856 12.9139 36.646 12.9139H12.3609C10.6212 12.9139 9.91233 13.6334 9.90474 15.3684C9.89057 18.6881 9.8764 22.0073 9.86223 25.326C9.86223 26.7067 9.86527 28.0827 9.86527 29.6766ZM33.1439 26.0624C31.1918 27.6517 29.2897 29.1857 27.4271 30.7489C26.8913 31.2015 26.5345 31.1831 26.0108 30.7198C23.6169 28.5966 21.1744 26.5303 18.7821 24.4071C18.269 23.9469 17.9563 23.8963 17.4158 24.3856C15.3772 26.2188 13.3324 28.0536 11.192 29.7549C10.1916 30.5526 9.79848 31.3886 9.88804 32.6573C10.0019 34.288 10.647 35.0443 12.2713 35.0458C16.4428 35.0458 20.6143 35.0458 24.7858 35.0458C28.8313 35.0458 32.8752 35.0458 36.9207 35.0458C37.6797 35.0458 38.331 34.8172 38.7423 34.1591C39.3738 33.1513 39.046 32.0253 39.0581 30.9376C39.0581 30.8624 38.9412 30.775 38.8653 30.7121C36.9784 29.1857 35.0915 27.6517 33.1439 26.0624Z" fill="black"/>
<path d="M27.5148 16.0005C27.974 16.0019 28.4285 16.0939 28.8522 16.2712C29.2759 16.4485 29.6606 16.7076 29.9843 17.0338C30.3079 17.3599 30.5642 17.7467 30.7385 18.1721C30.9128 18.5974 31.0016 19.053 31 19.5127C30.9849 20.4412 30.6065 21.3268 29.946 21.9789C29.2856 22.631 28.3958 22.9977 27.4682 23C26.5408 22.9914 25.6547 22.6147 25.0045 21.9527C24.3543 21.2907 23.9931 20.3975 24.0001 19.4691C23.999 19.0091 24.0895 18.5535 24.2664 18.1289C24.4433 17.7043 24.7029 17.3192 25.0302 16.9963C25.3574 16.6733 25.7457 16.4189 26.1723 16.2479C26.5989 16.0769 27.0553 15.9928 27.5148 16.0005ZM27.4946 16.9342C27.1585 16.9313 26.8251 16.9954 26.514 17.1229C26.2029 17.2504 25.9203 17.4386 25.6827 17.6766C25.4451 17.9146 25.2572 18.1977 25.13 18.5092C25.0029 18.8207 24.939 19.1544 24.9421 19.4909C24.9399 19.8277 25.004 20.1617 25.1308 20.4737C25.2575 20.7858 25.4445 21.0697 25.681 21.3093C25.9175 21.5489 26.1988 21.7396 26.509 21.8702C26.8191 22.0009 27.1519 22.0691 27.4884 22.071C28.1674 22.0645 28.8166 21.7909 29.2959 21.3093C29.7752 20.8278 30.0461 20.1769 30.0502 19.4971C30.0518 19.1602 29.9869 18.8263 29.8592 18.5145C29.7315 18.2028 29.5435 17.9194 29.306 17.6806C29.0685 17.4419 28.7862 17.2525 28.4753 17.1233C28.1645 16.9941 27.8312 16.9277 27.4946 16.9279V16.9342Z" fill="black"/>
</svg>
