<svg width="48" height="48" viewBox="0 0 48 48" fill="none" xmlns="http://www.w3.org/2000/svg">
<path d="M21.2002 38.5928C17.328 38.5928 13.4557 38.5941 9.58344 38.5928C7.83539 38.5914 7.00103 37.7509 7.00103 35.9893C6.99966 28.2525 6.99966 20.5158 7.00103 12.779C7.00103 11.0283 7.84359 10.1892 9.59575 10.1851C10.7351 10.1824 11.8731 10.1974 13.0125 10.1783C13.3955 10.1714 13.5884 10.2261 13.5747 10.6867C13.5405 11.8237 13.5514 12.9622 13.5706 14.0992C13.5774 14.4587 13.4625 14.6076 13.1055 14.5571C13.0604 14.5502 13.0139 14.5557 12.9688 14.5571C11.3753 14.5748 11.3753 14.5748 11.3753 16.1998C11.3753 21.9576 11.3821 27.7141 11.3643 33.4705C11.363 34.0267 11.4382 34.2427 12.0865 34.2399C18.191 34.2099 24.2955 34.2153 30.4001 34.2345C30.9349 34.2358 31.0812 34.0992 31.0771 33.5607C31.0511 30.3982 31.0744 27.2344 31.0539 24.0719C31.0498 23.5594 31.1524 23.3489 31.7186 23.3762C32.7417 23.4241 33.769 23.4145 34.7921 23.379C35.2859 23.3612 35.4555 23.4774 35.4514 24.0104C35.4281 28.0612 35.4432 32.1106 35.4363 36.1615C35.4336 37.7154 34.539 38.5887 32.9551 38.5914C29.0364 38.5969 25.119 38.5928 21.2002 38.5928Z" fill="#C5C5C5"/>
<path d="M26.6881 10.6377C26.7469 11.127 26.4323 11.8814 26.8057 12.2518C27.1764 12.6194 27.9328 12.3816 28.5155 12.3625C30.9146 12.2873 33.2549 12.521 35.4038 13.6827C39.5222 15.9104 41.7189 19.3721 41.9966 24.0475C42.0362 24.7076 41.8571 25.2283 41.1773 25.4429C40.6356 25.6137 40.161 25.3185 39.7971 24.612C37.8275 20.7744 34.6706 18.9047 30.3689 18.9252C29.3211 18.9307 28.272 18.943 27.2257 18.917C26.8167 18.9075 26.6621 19.0141 26.6785 19.4473C26.7114 20.311 26.6826 21.1762 26.6895 22.0413C26.6936 22.5346 26.539 22.9337 26.0781 23.1701C25.6103 23.4093 25.1999 23.2767 24.8087 22.9829C21.9678 20.8523 19.1228 18.7284 16.2873 16.591C15.5542 16.0375 15.5487 15.2585 16.2791 14.7091C19.1324 12.5579 21.9952 10.4204 24.8566 8.27885C25.23 8.00005 25.6308 7.89891 26.0699 8.12168C26.5021 8.34035 26.6881 8.70388 26.6881 9.17675C26.6881 9.63322 26.6881 10.0883 26.6881 10.6377Z" fill="#4990CD"/>
</svg>
