<svg width="48" height="48" viewBox="0 0 48 48" fill="none" xmlns="http://www.w3.org/2000/svg">
<path d="M32.2055 18.6429C32.2055 19.1123 31.8249 19.4929 31.3555 19.4929C30.886 19.4929 30.5055 19.1123 30.5055 18.6429H32.2055ZM29.2126 39L29.4188 39.8246L29.3173 39.85H29.2126V39ZM30.5055 29.3571C30.5055 28.8877 30.886 28.5071 31.3555 28.5071C31.8249 28.5071 32.2055 28.8877 32.2055 29.3571H30.5055ZM39.5 23.15C39.9694 23.15 40.35 23.5306 40.35 24C40.35 24.4694 39.9694 24.85 39.5 24.85V23.15ZM17.399 24.601C17.067 24.2691 17.067 23.7309 17.399 23.399L22.8083 17.9896C23.1403 17.6576 23.6785 17.6576 24.0104 17.9896C24.3424 18.3215 24.3424 18.8597 24.0104 19.1917L19.2021 24L24.0104 28.8083C24.3424 29.1403 24.3424 29.6785 24.0104 30.0104C23.6785 30.3424 23.1403 30.3424 22.8083 30.0104L17.399 24.601ZM30.5055 18.6429V11.6786H32.2055V18.6429H30.5055ZM30.5055 11.6786C30.5055 11.3352 30.4175 10.8231 30.1903 10.4287C29.9875 10.0766 29.7048 9.85 29.2126 9.85V8.15C30.4347 8.15 31.2234 8.81623 31.6634 9.58021C32.0792 10.3019 32.2055 11.1291 32.2055 11.6786H30.5055ZM29.2126 9.85H13.1412V8.15H29.2126V9.85ZM13.1412 9.85C12.9201 9.85 12.5695 9.92333 12.2986 10.1184C12.071 10.2822 11.8483 10.5627 11.8483 11.1429H10.1483C10.1483 10.0087 10.6399 9.21778 11.3052 8.73877C11.9272 8.29096 12.648 8.15 13.1412 8.15V9.85ZM11.8483 11.1429V35.7857H10.1483V11.1429H11.8483ZM11.8483 35.7857C11.8483 36.1854 11.9752 36.8039 12.331 37.298C12.6555 37.7488 13.2039 38.15 14.2126 38.15V39.85C12.6499 39.85 11.5911 39.1798 10.9514 38.2913C10.3429 37.4461 10.1483 36.4574 10.1483 35.7857H11.8483ZM14.2126 38.15H29.2126V39.85H14.2126V38.15ZM29.0065 38.1754C29.2729 38.1088 29.6922 37.9397 30.025 37.6768C30.3524 37.4181 30.5055 37.148 30.5055 36.8571H32.2055C32.2055 37.852 31.6442 38.5641 31.0788 39.0107C30.5188 39.4532 29.8666 39.7127 29.4188 39.8246L29.0065 38.1754ZM30.5055 36.8571V29.3571H32.2055V36.8571H30.5055ZM39.5 24.85H18V23.15H39.5V24.85Z" fill="black"/>
</svg>
