<svg width="40" height="34" viewBox="0 0 40 34" fill="none" xmlns="http://www.w3.org/2000/svg">
<path d="M39.9992 5.081C39.9992 12.7847 39.9992 20.4963 39.9992 28.2C39.9757 28.2313 39.9444 28.2626 39.9365 28.294C39.7565 29.758 39.0675 30.9402 37.9714 31.9031C36.9537 32.8035 35.7558 33.3358 34.4014 33.3437C29.6023 33.3671 24.8031 33.3515 20.0039 33.3515C20.0039 29.8911 20.0039 26.4228 20.0039 22.9624C23.1512 22.9624 26.3062 22.9546 29.4535 22.9546C30.2834 22.9546 31.1211 22.9624 31.9509 22.9546C32.8748 22.9389 33.4541 22.0777 33.0862 21.2792C32.8435 20.7546 32.3894 20.5667 31.8413 20.5667C30.8392 20.5667 29.8371 20.5667 28.835 20.5667C25.8913 20.5667 22.9554 20.5589 20.0117 20.5589C20.0117 19.6664 20.0117 18.7739 20.0117 17.8814C21.4131 17.8814 22.8223 17.8736 24.2237 17.8736C24.5291 17.8736 24.8187 17.8423 25.0849 17.67C25.5155 17.396 25.7269 16.8558 25.6016 16.3861C25.4529 15.8459 24.991 15.4936 24.3803 15.4857C22.9241 15.4779 21.4679 15.4779 20.0117 15.4779C20.0117 14.5776 20.0039 13.6772 20.0039 12.7691C23.8949 12.7691 27.7781 12.7691 31.6691 12.7612C31.8413 12.7612 32.0058 12.7612 32.178 12.7378C32.6321 12.6908 32.9452 12.4246 33.1175 12.0175C33.2975 11.5947 33.2192 11.2033 32.9374 10.851C32.6712 10.5065 32.3033 10.3969 31.8727 10.3969C27.919 10.3969 23.9654 10.3969 20.0117 10.3891C20.0117 6.92864 20.0117 3.46823 20.0196 0.0078125C24.6308 0.0078125 29.2343 0.0078125 33.8456 0.0078125C34.2605 0.0078125 34.6754 0.0078125 35.0904 0.0782734C37.1964 0.461894 38.6682 1.62841 39.5529 3.57C39.7565 4.0554 39.8269 4.57994 39.9992 5.081ZM30.0955 17.8344C30.0955 17.8423 30.0955 17.8423 30.0955 17.8501C30.7061 17.8501 31.3168 17.8579 31.9275 17.8501C32.6634 17.8344 33.1801 17.3412 33.1879 16.6836C33.1879 16.0103 32.6556 15.5092 31.904 15.5014C30.7061 15.4936 29.5083 15.5014 28.3105 15.5014C28.1147 15.5014 27.919 15.5249 27.7389 15.6032C27.2536 15.8067 26.9717 16.3078 27.0343 16.8323C27.097 17.3569 27.5197 17.8031 28.0678 17.8344C28.7411 17.8657 29.4222 17.8344 30.0955 17.8344Z" fill="#2E85E7"/>
<path d="M20.005 33.3594C15.2293 33.3594 10.4537 33.422 5.67798 33.3359C3.35277 33.2968 1.64605 32.0911 0.581303 29.9929C0.142879 29.1161 0.00195725 28.2001 0.00195725 27.2371C0.00195725 20.0814 -0.00587174 12.9179 0.00978624 5.76222C0.00978624 4.26688 0.557816 2.96727 1.6069 1.86338C2.84388 0.563767 4.33922 -0.00774969 6.10074 7.93021e-05C10.7355 0.0157373 15.3703 0.00790829 20.005 0.00790829C20.005 3.46832 20.005 6.92874 19.9972 10.3892L20.005 10.4126C18.541 10.4126 17.0692 10.4048 15.6051 10.4126C14.9084 10.4126 14.3916 10.9137 14.376 11.5635C14.3603 12.2211 14.8614 12.7457 15.5582 12.7535C17.0378 12.7613 18.5175 12.7535 19.9972 12.7457L19.9894 12.777C19.9894 13.6773 19.9972 14.5777 19.9972 15.4858L20.005 15.5093C16.7012 15.5093 13.3895 15.5093 10.0857 15.5093C9.4124 15.5093 8.73128 15.5015 8.05799 15.5093C7.47864 15.5171 7.04805 15.8146 6.87581 16.3C6.58614 17.1221 7.18897 17.858 8.17542 17.858C12.1212 17.8658 16.067 17.858 20.005 17.858L19.9972 17.8893C19.9972 18.7818 19.9972 19.6743 19.9972 20.5668L20.005 20.5982C18.5488 20.5982 17.0926 20.5825 15.6365 20.5982C14.8614 20.606 14.3603 21.107 14.3682 21.7882C14.376 22.4615 14.9084 22.9469 15.6678 22.9469C17.1083 22.9469 18.5567 22.9469 19.9972 22.9469L19.9894 22.9703C20.005 26.4308 20.005 29.8912 20.005 33.3594ZM9.87432 22.9469C10.485 22.9469 11.0956 22.9547 11.7063 22.9469C12.4422 22.939 12.9589 22.4615 12.9668 21.7882C12.9746 21.1149 12.497 20.6138 11.7454 20.5982C10.5085 20.5747 9.27148 20.5747 8.0345 20.5982C7.29858 20.606 6.78969 21.1305 6.79752 21.7882C6.81318 22.4458 7.33772 22.939 8.06582 22.9469C8.68431 22.9547 9.27931 22.9469 9.87432 22.9469ZM9.91346 12.7535C10.5241 12.7535 11.1348 12.7613 11.7454 12.7535C12.4579 12.7457 12.9589 12.2681 12.9746 11.6105C12.9824 10.9372 12.4735 10.4205 11.7611 10.4126C10.5241 10.4048 9.28714 10.4048 8.05016 10.4126C7.34555 10.4205 6.80535 10.9528 6.81318 11.6026C6.82101 12.2603 7.33772 12.7457 8.04233 12.7535C8.66865 12.7613 9.28714 12.7535 9.91346 12.7535Z" fill="#70B9FA"/>
<path d="M20.0117 20.5586C22.9554 20.5586 25.8913 20.5664 28.835 20.5664C29.8371 20.5664 30.8392 20.5664 31.8413 20.5664C32.3894 20.5664 32.8435 20.7543 33.0862 21.2789C33.4541 22.0774 32.8748 22.9386 31.9509 22.9543C31.1211 22.9699 30.2834 22.9543 29.4535 22.9543C26.3062 22.9543 23.1512 22.9621 20.0039 22.9621L20.0117 22.9386C20.0117 22.1557 20.0117 21.3728 20.0196 20.5899C20.0196 20.5977 20.0117 20.5586 20.0117 20.5586Z" fill="#393E4D"/>
<path d="M20 10.3867C23.9537 10.3867 27.9073 10.3945 31.8609 10.3945C32.2915 10.3945 32.6595 10.512 32.9257 10.8486C33.2075 11.2009 33.2858 11.6002 33.1057 12.0151C32.9335 12.4223 32.6203 12.6884 32.1663 12.7354C32.0019 12.7511 31.8296 12.7589 31.6574 12.7589C27.7664 12.7589 23.8832 12.7667 19.9922 12.7667L20 12.7354C20 11.9603 20.0078 11.1853 20.0078 10.4102L20 10.3867Z" fill="#373D4C"/>
<path d="M30.097 17.8326C29.4237 17.8326 28.7425 17.8561 28.0692 17.8248C27.5134 17.7935 27.0984 17.3472 27.0358 16.8227C26.9732 16.2981 27.2629 15.8049 27.7404 15.5935C27.9205 15.5152 28.1162 15.4918 28.3119 15.4918C29.5098 15.4918 30.7076 15.4839 31.9054 15.4918C32.657 15.4996 33.1972 16.0006 33.1894 16.6739C33.1894 17.3316 32.6727 17.8248 31.9289 17.8405C31.3183 17.8561 30.7076 17.8405 30.097 17.8405C30.097 17.8483 30.097 17.8405 30.097 17.8326Z" fill="#393E4D"/>
<path d="M20.0039 15.4766C21.4601 15.4766 22.9163 15.4766 24.3725 15.4844C24.9831 15.4844 25.4451 15.8445 25.5938 16.3847C25.7191 16.8623 25.5077 17.3947 25.0771 17.6687C24.8187 17.8331 24.5212 17.8722 24.2159 17.8722C22.8145 17.8722 21.4053 17.8801 20.0039 17.8801L20.0117 17.8487C20.0117 17.0658 20.0117 16.2829 20.0117 15.5L20.0039 15.4766Z" fill="#373C4B"/>
<path d="M20.0118 15.4996C20.0118 16.2825 20.0118 17.0654 20.0118 17.8483C16.066 17.8483 12.1202 17.8561 8.18222 17.8483C7.19577 17.8483 6.60076 17.1123 6.88261 16.2903C7.05485 15.8049 7.47761 15.5074 8.06478 15.4996C8.73808 15.4917 9.4192 15.4996 10.0925 15.4996C13.3963 15.4996 16.708 15.4996 20.0118 15.4996Z" fill="#606C79"/>
<path d="M9.87399 22.9495C9.27898 22.9495 8.67615 22.9573 8.08115 22.9495C7.35305 22.9416 6.82851 22.4484 6.81285 21.7908C6.79719 21.1331 7.30608 20.6164 8.04983 20.6008C9.28681 20.5851 10.5238 20.5773 11.7608 20.6008C12.5045 20.6164 12.9899 21.1096 12.9821 21.7908C12.9743 22.4562 12.4576 22.9338 11.7216 22.9495C11.1031 22.9573 10.4925 22.9495 9.87399 22.9495Z" fill="#606C78"/>
<path d="M9.91286 12.753C9.28655 12.753 8.66023 12.7608 8.04174 12.753C7.33713 12.7452 6.82824 12.2598 6.81258 11.6021C6.80476 10.9523 7.34496 10.42 8.04956 10.4121C9.28655 10.4043 10.5235 10.4043 11.7605 10.4121C12.4729 10.42 12.9897 10.9367 12.974 11.61C12.9662 12.2676 12.4651 12.7373 11.7448 12.753C11.1342 12.753 10.5235 12.753 9.91286 12.753Z" fill="#5F6B78"/>
<path d="M20.0198 20.6007C20.0198 21.3836 20.0198 22.1665 20.0119 22.9494C18.5714 22.9494 17.1231 22.9572 15.6825 22.9494C14.9231 22.9494 14.3907 22.464 14.3829 21.7907C14.3751 21.1096 14.8761 20.6085 15.6512 20.6007C17.0996 20.5851 18.5558 20.6007 20.0198 20.6007Z" fill="#5F6B78"/>
<path d="M20.0119 10.4102C20.0119 11.1852 20.0041 11.9603 20.0041 12.7354C18.5244 12.7354 17.0448 12.751 15.5651 12.7432C14.8761 12.7354 14.3751 12.2187 14.3829 11.5532C14.3986 10.9034 14.9153 10.4102 15.6121 10.4023C17.0761 10.4023 18.5401 10.4102 20.0119 10.4102Z" fill="#5F6B78"/>
</svg>
