<svg width="21" height="20" viewBox="0 0 21 20" fill="none" xmlns="http://www.w3.org/2000/svg">
<path d="M20.25 9.71547C20.2437 9.5985 20.1962 9.48754 20.1158 9.40226C20.0355 9.31697 19.9276 9.26287 19.8113 9.24953L18.6094 9.055C18.5553 9.04613 18.5056 9.02003 18.4676 8.98058C18.4295 8.94113 18.4053 8.89045 18.3984 8.83609C18.3755 8.68844 18.3516 8.53516 18.3188 8.38984C18.3082 8.33699 18.3144 8.28215 18.3365 8.23299C18.3586 8.18383 18.3955 8.1428 18.442 8.11563L19.5098 7.52266C19.6159 7.46861 19.6983 7.37747 19.7416 7.26658C19.7848 7.1557 19.7857 7.03279 19.7442 6.92125L19.5591 6.41031C19.5185 6.29839 19.438 6.20538 19.3331 6.14907C19.2282 6.09277 19.1062 6.07713 18.9905 6.10516L17.7928 6.33953C17.7393 6.34918 17.684 6.34163 17.635 6.31797C17.586 6.29431 17.5458 6.25575 17.52 6.20781C17.4502 6.07703 17.3742 5.94391 17.295 5.81313C17.2662 5.76653 17.2528 5.71211 17.2565 5.65747C17.2602 5.60284 17.2808 5.55073 17.3156 5.50844L18.1125 4.58828C18.1934 4.50125 18.2399 4.38776 18.2432 4.26899C18.2466 4.15022 18.2066 4.03429 18.1308 3.94281L17.783 3.52516C17.7073 3.43349 17.6003 3.37315 17.4827 3.35583C17.3651 3.33851 17.2453 3.36544 17.1464 3.43141L16.0978 4.06094C16.0513 4.08879 15.9971 4.10096 15.9432 4.09564C15.8892 4.09032 15.8384 4.0678 15.7983 4.03141C15.6825 3.92969 15.5663 3.83172 15.4528 3.74125C15.4102 3.7076 15.3794 3.66124 15.3649 3.6089C15.3504 3.55655 15.3529 3.50095 15.3722 3.45016L15.8063 2.30641C15.8535 2.19728 15.8591 2.07458 15.8218 1.96164C15.7846 1.84869 15.7071 1.75336 15.6042 1.69375L15.1317 1.41953C15.0287 1.36011 14.9073 1.3408 14.7909 1.36527C14.6745 1.38975 14.5712 1.4563 14.5008 1.55219L13.7344 2.51313C13.7069 2.55511 13.6657 2.58617 13.6177 2.60089C13.5698 2.61562 13.5182 2.61309 13.4719 2.59375C13.4428 2.58203 13.2014 2.48313 13.0134 2.42031C12.9619 2.40351 12.9171 2.37065 12.8855 2.32654C12.854 2.28243 12.8374 2.22938 12.8381 2.17516L12.8564 0.953125C12.8629 0.8338 12.8258 0.716187 12.7518 0.622309C12.6779 0.528431 12.5722 0.464727 12.4547 0.443125L11.918 0.349375C11.801 0.329173 11.6807 0.352111 11.5794 0.413927C11.4781 0.475744 11.4027 0.572234 11.3672 0.685469L10.9688 1.84844C10.9509 1.90023 10.9168 1.94487 10.8715 1.97571C10.8263 2.00654 10.7722 2.02191 10.7175 2.01953H10.2605C10.2063 2.02043 10.1532 2.00432 10.1086 1.97346C10.064 1.9426 10.0303 1.89855 10.012 1.8475L9.61548 0.691094C9.58059 0.577032 9.50531 0.4796 9.40376 0.417043C9.3022 0.354487 9.18132 0.331095 9.06376 0.35125L8.52657 0.445C8.4097 0.466331 8.30455 0.529368 8.23066 0.622397C8.15677 0.715425 8.11917 0.832116 8.12485 0.950782L8.1436 2.17703C8.14398 2.23207 8.12656 2.28576 8.09396 2.3301C8.06136 2.37444 8.01531 2.40707 7.96266 2.42313C7.85579 2.46484 7.62235 2.55344 7.51688 2.59328C7.42313 2.62703 7.32048 2.59 7.23563 2.49484L6.47345 1.55734C6.40359 1.4615 6.30091 1.39472 6.18498 1.36974C6.06905 1.34476 5.94798 1.36331 5.84485 1.42188L5.37329 1.69516C5.26925 1.75487 5.19099 1.85099 5.1536 1.96498C5.11621 2.07897 5.12233 2.20276 5.17079 2.3125L5.60438 3.45344C5.6233 3.50434 5.62578 3.55988 5.61149 3.61227C5.5972 3.66465 5.56684 3.71123 5.52469 3.74547C5.41079 3.83922 5.29407 3.93297 5.17782 4.03703C5.1379 4.07314 5.08748 4.09554 5.03392 4.10094C4.98036 4.10633 4.92648 4.09445 4.88016 4.06703L3.84376 3.42531C3.74427 3.36048 3.62452 3.33422 3.50704 3.35149C3.38955 3.36875 3.28242 3.42835 3.20579 3.51906L2.85891 3.93625C2.78193 4.02706 2.74114 4.14306 2.74434 4.26206C2.74754 4.38107 2.79451 4.49471 2.87626 4.58125L3.67735 5.5C3.71288 5.54144 3.73412 5.59323 3.73792 5.64768C3.74172 5.70214 3.72788 5.75637 3.69845 5.80234C3.61829 5.92984 3.54188 6.06391 3.47251 6.19797C3.44656 6.24619 3.406 6.28496 3.35665 6.30871C3.3073 6.33246 3.2517 6.33996 3.19782 6.33016L2.00204 6.09906C1.88626 6.07113 1.76425 6.0868 1.65929 6.14308C1.55433 6.19936 1.47377 6.29232 1.43298 6.40422L1.24548 6.91422C1.20393 7.0259 1.20484 7.14894 1.24805 7.25999C1.29126 7.37103 1.37375 7.46234 1.47985 7.51656L2.54766 8.10953C2.59568 8.13603 2.63378 8.17744 2.65619 8.22751C2.67859 8.27757 2.6841 8.33356 2.67188 8.38703L2.6611 8.44516C2.63626 8.57641 2.61423 8.70063 2.5922 8.83281C2.58474 8.88648 2.56051 8.93642 2.52296 8.97549C2.48541 9.01455 2.43647 9.04074 2.38313 9.05031L1.17845 9.24484C1.06076 9.25941 0.9524 9.31628 0.873568 9.40486C0.794735 9.49344 0.750817 9.60767 0.750008 9.72625V10.2691C0.749322 10.3882 0.792854 10.5033 0.872176 10.5921C0.951497 10.681 1.06097 10.7372 1.17938 10.75L2.38313 10.9441C2.43722 10.9529 2.48701 10.9789 2.52504 11.0184C2.56307 11.0579 2.58728 11.1086 2.59407 11.163C2.61704 11.3111 2.64095 11.4639 2.67376 11.6092C2.68433 11.6621 2.67813 11.7169 2.65603 11.7661C2.63393 11.8152 2.59703 11.8563 2.55048 11.8834L1.48313 12.4773C1.3771 12.5314 1.29464 12.6225 1.25142 12.7334C1.20821 12.8443 1.20726 12.9672 1.24876 13.0788L1.43626 13.5897C1.47696 13.7015 1.55743 13.7945 1.66231 13.8508C1.7672 13.9071 1.88914 13.9228 2.00485 13.8948L3.20251 13.6628C3.25606 13.6532 3.3113 13.6607 3.3603 13.6844C3.40931 13.708 3.44957 13.7466 3.47532 13.7945C3.54563 13.9258 3.62157 14.0589 3.70032 14.1892C3.72923 14.2358 3.74279 14.2902 3.73909 14.3449C3.73539 14.3996 3.71461 14.4517 3.6797 14.4939L2.88282 15.4145C2.80105 15.5008 2.75355 15.6139 2.74923 15.7326C2.74492 15.8514 2.78408 15.9676 2.85938 16.0595L3.20673 16.4772C3.28239 16.5689 3.38938 16.6292 3.50697 16.6465C3.62457 16.6638 3.74441 16.6369 3.84329 16.5709L4.89188 15.9414C4.93837 15.9136 4.99259 15.9014 5.04653 15.9067C5.10046 15.912 5.15126 15.9345 5.19141 15.9709C5.30766 16.0727 5.42579 16.1706 5.53688 16.2611C5.57952 16.2947 5.61033 16.3411 5.62482 16.3934C5.63932 16.4458 5.63676 16.5014 5.61751 16.5522L5.18344 17.6959C5.13617 17.8051 5.13064 17.9278 5.16788 18.0407C5.20513 18.1537 5.28256 18.249 5.38548 18.3086L5.85938 18.5823C5.96232 18.6418 6.08355 18.6612 6.19988 18.6368C6.31622 18.6124 6.41946 18.5459 6.48985 18.4502L7.26563 17.4963C7.33079 17.4152 7.43438 17.3791 7.51126 17.41C7.67391 17.4775 7.78313 17.5155 7.97673 17.5802C8.02829 17.597 8.07314 17.6299 8.10476 17.674C8.13637 17.718 8.1531 17.7711 8.15251 17.8253L8.13376 19.0464C8.12743 19.1657 8.1647 19.2832 8.23861 19.377C8.31252 19.4709 8.41803 19.5346 8.53548 19.5564L9.07219 19.6502C9.18915 19.6705 9.30949 19.6476 9.41082 19.5857C9.51215 19.5239 9.58755 19.4274 9.62298 19.3141L10.0214 18.153C10.0396 18.1014 10.0738 18.057 10.119 18.0263C10.1642 17.9955 10.218 17.9799 10.2727 17.9819H10.7297C10.7839 17.9809 10.8371 17.997 10.8816 18.0279C10.9262 18.0587 10.96 18.1028 10.9781 18.1539L11.3752 19.3103C11.4059 19.4107 11.468 19.4986 11.5524 19.5611C11.6368 19.6236 11.7389 19.6575 11.8439 19.6577C11.8719 19.6577 11.8998 19.6552 11.9274 19.6502L12.465 19.5564C12.5818 19.535 12.6868 19.4719 12.7606 19.3789C12.8344 19.2859 12.872 19.1692 12.8663 19.0506L12.8475 17.8244C12.8471 17.7703 12.864 17.7176 12.8956 17.6738C12.9272 17.63 12.9719 17.5973 13.0233 17.5806C13.2033 17.5202 13.3294 17.4714 13.4409 17.4288L13.4691 17.4175C13.6125 17.3678 13.6814 17.4241 13.7255 17.4789L14.5106 18.4459C14.581 18.5416 14.6842 18.608 14.8004 18.6323C14.9166 18.6567 15.0377 18.6374 15.1406 18.5781L15.6127 18.3048C15.7159 18.2452 15.7936 18.1496 15.8308 18.0364C15.8681 17.9231 15.8624 17.8001 15.8147 17.6908L15.3816 16.5498C15.3625 16.499 15.3598 16.4435 15.374 16.391C15.3883 16.3386 15.4186 16.292 15.4608 16.2578C15.5747 16.1641 15.6914 16.0703 15.8077 15.9663C15.8478 15.93 15.8986 15.9077 15.9524 15.9024C16.0062 15.8972 16.0603 15.9094 16.1067 15.9372L17.1563 16.5653C17.2557 16.6301 17.3755 16.6564 17.493 16.6391C17.6105 16.6219 17.7176 16.5623 17.7942 16.4716L18.1411 16.0544C18.218 15.9636 18.2588 15.8477 18.2556 15.7288C18.2524 15.6099 18.2055 15.4963 18.1238 15.4098L17.3241 14.4878C17.2885 14.4464 17.2673 14.3946 17.2635 14.3401C17.2597 14.2857 17.2735 14.2314 17.303 14.1855C17.3831 14.0584 17.4595 13.9244 17.5289 13.7898C17.555 13.7418 17.5956 13.7031 17.6449 13.6794C17.6942 13.6557 17.7497 13.6481 17.8036 13.6577L18.998 13.8906C19.1138 13.9186 19.2358 13.9029 19.3407 13.8466C19.4457 13.7903 19.5262 13.6974 19.567 13.5855L19.7522 13.0755C19.7937 12.9639 19.7928 12.8409 19.7496 12.7299C19.7064 12.619 19.6239 12.5277 19.5178 12.4736L18.4491 11.8797C18.4017 11.8529 18.3643 11.8116 18.3422 11.7619C18.3202 11.7122 18.3147 11.6567 18.3267 11.6036L18.3375 11.545C18.3624 11.4137 18.3844 11.29 18.4064 11.1578C18.4139 11.1041 18.4381 11.0542 18.4757 11.0151C18.5132 10.9761 18.5621 10.9499 18.6155 10.9403L19.8202 10.7463C19.9381 10.7319 20.0468 10.6751 20.126 10.5864C20.2051 10.4977 20.2492 10.3832 20.25 10.2644V9.71547ZM6.54329 14.9345C5.80366 14.3394 5.20728 13.5855 4.79827 12.7288C4.38925 11.8721 4.17806 10.9344 4.18031 9.985C4.18256 9.03564 4.3982 8.09893 4.81127 7.24415C5.22434 6.38937 5.82428 5.63838 6.56673 5.04672L9.37923 9.99719L6.54329 14.9345ZM10.5 16.3333C9.7226 16.334 8.95184 16.1902 8.22704 15.9091L11.0625 10.9745H16.7447C16.2755 14.0055 13.6542 16.3333 10.5 16.3333ZM11.0653 9.02547L8.25516 4.08016C8.97188 3.80626 9.73274 3.66613 10.5 3.66672C13.6542 3.66672 16.2755 5.99453 16.7447 9.02547H11.0653Z" fill="black"/>
</svg>
