<svg width="199" height="200" viewBox="0 0 199 200" fill="none" xmlns="http://www.w3.org/2000/svg">
<path d="M164.019 73.6073C164.287 74.762 164.467 75.9355 164.556 77.1174C164.582 104.598 164.582 132.074 164.556 159.546C164.556 172.05 156.834 179.786 144.382 179.792H52.324C39.8531 179.773 32.0977 172.017 32.0977 159.546C32.0977 120.047 32.0977 80.5459 32.0977 41.0425C32.0977 28.5848 39.8531 20.8492 52.3306 20.8359C70.9808 20.8359 89.6287 20.8359 108.274 20.8359C109.447 20.9159 110.611 21.0842 111.758 21.3393C111.698 32.4459 111.573 43.5525 111.612 54.6592C111.612 63.7524 119.977 73.2563 129.044 73.6007C140.713 74.0643 152.363 73.647 164.019 73.6073Z" fill="url(#paint0_linear_4664_98958)"/>
<path d="M151.623 165.002V103.031H113.998H45.3867V165.002H151.623Z" fill="#4FCCFC"/>
<path d="M125.063 138.439L112.669 150.834L98.5039 164.998H125.063H151.622L125.063 138.439Z" fill="#3EB57C"/>
<path d="M114.033 111.436C118.902 111.436 122.886 115.419 122.886 120.289C122.886 125.158 118.902 129.142 114.033 129.142C111.819 129.142 109.606 128.256 107.836 126.486C106.065 124.715 105.18 122.502 105.18 120.289C105.18 115.419 109.164 111.436 114.033 111.436Z" fill="#FFEB33"/>
<path d="M112.654 150.848L98.0465 134.913L85.2096 120.748L45.3711 165.013H98.4892H125.048L112.654 150.848Z" fill="#309E6C"/>
<g filter="url(#filter0_d_4664_98958)">
<path d="M164.007 73.9352C152.351 73.975 140.681 74.3922 129.045 73.9352C119.978 73.5908 111.64 64.0869 111.613 54.9937C111.573 43.8871 111.699 32.7804 111.759 21.6738C112.486 22.1422 113.179 22.6623 113.832 23.2302C130.053 39.4254 146.258 55.6317 162.444 71.849C163.017 72.5042 163.539 73.2016 164.007 73.9352Z" fill="#E1E5EB"/>
</g>
<defs>
<filter id="filter0_d_4664_98958" x="103.658" y="21.6738" width="68.298" height="68.3683" filterUnits="userSpaceOnUse" color-interpolation-filters="sRGB">
<feFlood flood-opacity="0" result="BackgroundImageFix"/>
<feColorMatrix in="SourceAlpha" type="matrix" values="0 0 0 0 0 0 0 0 0 0 0 0 0 0 0 0 0 0 127 0" result="hardAlpha"/>
<feOffset dy="7.94783"/>
<feGaussianBlur stdDeviation="3.97391"/>
<feComposite in2="hardAlpha" operator="out"/>
<feColorMatrix type="matrix" values="0 0 0 0 0 0 0 0 0 0 0 0 0 0 0 0 0 0 0.25 0"/>
<feBlend mode="normal" in2="BackgroundImageFix" result="effect1_dropShadow_4664_98958"/>
<feBlend mode="normal" in="SourceGraphic" in2="effect1_dropShadow_4664_98958" result="shape"/>
</filter>
<linearGradient id="paint0_linear_4664_98958" x1="-62.0145" y1="20.3333" x2="-62.0145" y2="179.29" gradientUnits="userSpaceOnUse">
<stop stop-color="#E7EBF0"/>
<stop offset="1" stop-color="#D7E2ED"/>
</linearGradient>
</defs>
</svg>
