<svg width="43" height="43" viewBox="0 0 43 43" fill="none" xmlns="http://www.w3.org/2000/svg">
<path d="M7.50365 33.1949C7.71545 32.6947 8.09158 32.5275 8.63057 32.5312C11.1546 32.5502 13.6787 32.5399 16.202 32.5399C16.3094 32.5399 16.4167 32.5399 16.5562 32.5399C16.5562 32.4173 16.5562 32.3194 16.5562 32.2216C16.5562 29.9165 16.5569 27.6114 16.5562 25.3063C16.5562 24.6294 16.3298 24.4038 15.6542 24.4038C13.786 24.4031 11.9186 24.4031 10.0503 24.4038C9.37916 24.4038 9.14253 24.6389 9.14253 25.3041C9.14253 27.2449 9.14253 30.6897 9.14253 32.6305C9.14253 32.7123 9.15276 32.797 9.13669 32.8758C9.09068 33.1014 8.94972 33.2285 8.71528 33.219C8.49472 33.2102 8.36691 33.081 8.32894 32.8663C8.31798 32.8043 8.32455 32.7393 8.32455 32.675C8.32455 30.6707 8.32382 27.1616 8.32455 25.1573C8.32528 24.2198 8.96214 23.5788 9.90063 23.5773C11.8594 23.5751 13.8189 23.5729 15.7777 23.5809C16.0194 23.5817 16.2612 23.6408 16.5431 23.6781C16.5467 23.6036 16.5547 23.5014 16.5547 23.3991C16.5555 21.8505 16.5832 20.3004 16.546 18.7524C16.5175 17.5615 17.38 16.9292 18.2827 17.0147C18.3894 17.0249 18.4982 17.0161 18.6435 17.0161C18.6435 16.7423 18.6589 16.4897 18.6406 16.2385C18.5858 15.4886 19.1358 14.9636 19.8508 15.0367C19.9304 15.0447 20.0122 15.0381 20.132 15.0381C20.132 14.5423 20.1356 14.0634 20.1268 13.5844C20.1254 13.5238 20.0589 13.4624 20.0187 13.404C19.6528 12.8703 19.2161 12.522 18.523 12.3899C17.6305 12.2197 16.9813 11.5984 16.5482 10.7908C16.3247 10.3746 16.1209 9.94675 15.9215 9.51815C15.6564 8.94936 15.988 8.40758 16.6176 8.39152C17.1346 8.37765 17.6524 8.3886 18.2134 8.3886C18.1571 7.97606 18.2784 7.66575 18.6552 7.5C20.5504 7.5 22.4457 7.5 24.3409 7.5C24.7002 7.66721 24.8478 7.9527 24.7733 8.3886C25.0669 8.3886 25.3261 8.3886 25.5854 8.3886C25.8585 8.3886 26.1324 8.37765 26.4056 8.39225C27.0044 8.42365 27.3324 8.95228 27.0841 9.49332C26.8759 9.94748 26.6648 10.4031 26.4187 10.8375C25.868 11.8094 25.0303 12.3804 23.9188 12.5315C23.7157 12.5592 23.5521 12.6155 23.4601 12.8119C23.4411 12.852 23.4112 12.8907 23.3769 12.9199C22.8934 13.3288 22.7838 13.8597 22.8583 14.4598C22.8802 14.638 22.862 14.8213 22.862 15.0418C23.0416 15.0418 23.2023 15.0359 23.363 15.0425C23.8925 15.0644 24.3139 15.466 24.3424 15.9932C24.3599 16.3188 24.3453 16.6459 24.3453 17.0168C24.5483 17.0168 24.7258 17.0154 24.904 17.0168C25.7439 17.0263 26.38 17.6134 26.4289 18.4523C26.4552 18.9065 26.4406 19.3628 26.4406 19.8185C26.4414 21.8227 26.4406 23.827 26.4406 25.8313C26.4406 25.9372 26.4406 26.0438 26.4406 26.1642C27.2411 25.9364 28.0262 26.0715 28.8025 26.0401C29.1663 26.0255 32.0489 26.0372 32.4133 26.0379C32.8187 26.0379 33.0283 26.1832 33.0246 26.4585C33.021 26.7316 32.8194 26.8637 32.4031 26.8644C31.5464 26.8652 28.1723 26.8637 27.3163 26.8652C26.6773 26.8659 26.4414 27.0996 26.4406 27.7384C26.4392 29.2418 26.4399 30.7445 26.4406 32.2479C26.4406 32.337 26.4479 32.426 26.4523 32.5275C28.9187 32.5275 31.366 32.5275 33.8536 32.5275C33.8536 32.4406 33.8536 32.3538 33.8536 32.2669C33.8536 30.7547 33.8543 29.2426 33.8536 27.7304C33.8536 27.1185 33.6031 26.8674 32.9932 26.8652C32.5923 26.8637 32.1913 26.8688 31.7904 26.863C31.4895 26.8586 31.32 26.7031 31.3222 26.4497C31.3244 26.2015 31.5033 26.0423 31.7999 26.0401C32.2644 26.0365 32.7296 26.0321 33.1941 26.0416C34.0237 26.0584 34.6686 26.7191 34.6708 27.5544C34.6752 29.1944 34.6737 30.8343 34.6752 32.4735C34.6752 32.4823 34.6796 32.491 34.6708 32.4596C34.8907 32.6005 35.1185 32.6933 35.2675 32.8576C35.3902 32.9926 35.4669 33.2095 35.4815 33.3957C35.5129 33.8031 35.4961 34.2149 35.4903 34.6245C35.483 35.113 35.1105 35.4788 34.6197 35.4912C34.5379 35.4934 34.4554 35.492 34.3736 35.492C25.7914 35.492 17.2091 35.4883 8.62764 35.5C8.08865 35.5007 7.71326 35.335 7.5 34.837C7.50365 34.2887 7.50365 33.7418 7.50365 33.1949ZM25.608 32.5305C25.608 32.4202 25.608 32.3319 25.608 32.2428C25.608 27.726 25.608 23.2093 25.608 18.6925C25.608 18.0807 25.367 17.8441 24.7419 17.8434C22.5837 17.8427 20.4255 17.8427 18.2667 17.8434C17.6254 17.8434 17.391 18.0763 17.391 18.7101C17.391 23.2173 17.391 27.7253 17.391 32.2326C17.391 32.3289 17.391 32.4253 17.391 32.5305C20.1407 32.5305 22.8517 32.5305 25.608 32.5305ZM21.5013 34.672C24.0254 34.672 26.5487 34.672 29.0728 34.672C30.8497 34.672 32.6259 34.6684 34.4028 34.6764C34.6146 34.6771 34.7008 34.6267 34.6818 34.4026C34.6628 34.1762 34.6774 33.9477 34.6774 33.7199C34.6774 33.3577 34.6774 33.3577 34.3049 33.3577C25.768 33.3577 17.231 33.3577 8.69337 33.3577C8.6386 33.3577 8.58382 33.3621 8.52978 33.357C8.37933 33.3417 8.31579 33.4008 8.3209 33.5585C8.32967 33.8221 8.34135 34.0886 8.31798 34.3507C8.29388 34.6223 8.39978 34.6786 8.65467 34.6778C12.9366 34.6698 17.2186 34.672 21.5013 34.672ZM19.0167 8.33092C19.0423 8.71498 19.051 9.07714 19.0941 9.43564C19.2475 10.6966 19.7186 11.8225 20.5745 12.7703C20.6578 12.8623 20.8177 12.9214 20.9463 12.9287C21.3188 12.9499 21.6934 12.9506 22.0659 12.928C22.193 12.9207 22.3493 12.8535 22.4333 12.76C23.0358 12.0963 23.4484 11.3231 23.6938 10.4608C23.8903 9.76786 23.9925 9.06326 23.9567 8.32946C22.3142 8.33092 20.6958 8.33092 19.0167 8.33092ZM23.5266 17.0081C23.5266 16.6941 23.5273 16.405 23.5266 16.1158C23.5258 15.9486 23.4382 15.8632 23.2739 15.8625C22.0922 15.861 20.9105 15.8581 19.7288 15.8705C19.6441 15.8712 19.4936 15.9866 19.4878 16.0589C19.4608 16.3707 19.4761 16.6861 19.4761 17.0081C20.836 17.0081 22.1608 17.0081 23.5266 17.0081ZM18.7582 11.6108C18.5559 10.8273 18.3543 10.0446 18.1491 9.24945C17.7109 9.24945 17.2347 9.24945 16.7286 9.24945C17.1858 10.2644 17.5765 11.2953 18.7582 11.6108ZM26.2697 9.2531C25.7556 9.2531 25.2714 9.2531 24.8521 9.2531C24.6411 10.0636 24.4395 10.8375 24.2372 11.613C25.4269 11.2932 25.8155 10.2607 26.2697 9.2531ZM20.9675 15.0199C21.3399 15.0199 21.681 15.0199 22.0228 15.0199C22.0228 14.5978 22.0228 14.1948 22.0228 13.7954C21.6606 13.7954 21.3195 13.7954 20.9675 13.7954C20.9675 14.2101 20.9675 14.6059 20.9675 15.0199Z" fill="black"/>
<path d="M31.1122 29.7026C31.4044 30.0728 31.5307 30.4743 31.4015 30.9321C31.2189 31.5791 30.6536 31.9529 29.9671 31.8813C29.3923 31.8207 28.8898 31.2877 28.8394 30.6854C28.8182 30.4356 28.9555 30.2312 29.1703 30.1918C29.4164 30.1465 29.5982 30.2772 29.6611 30.5452C29.6757 30.6072 29.68 30.6715 29.6983 30.7328C29.7633 30.9519 29.9773 31.0906 30.2015 31.0636C30.4191 31.038 30.6039 30.846 30.6236 30.6262C30.6426 30.4145 30.4812 30.1896 30.268 30.1355C30.1891 30.1158 30.1051 30.1144 30.0277 30.0903C29.8283 30.0275 29.7319 29.8836 29.7421 29.6777C29.7516 29.4842 29.8546 29.3557 30.0459 29.3068C30.1073 29.2908 30.1708 29.2813 30.2336 29.2696C30.4856 29.2207 30.6171 29.0505 30.62 28.811C30.6236 28.5664 30.4761 28.4051 30.2366 28.3437C30.0291 28.2912 29.8122 28.4241 29.7034 28.6314C29.6304 28.7694 29.5493 28.9417 29.4252 29.0009C29.3163 29.0527 29.0709 29.0155 29.014 28.9315C28.922 28.795 28.8708 28.5701 28.9146 28.4138C29.0527 27.9297 29.4047 27.6275 29.8962 27.5311C30.3877 27.4354 30.8172 27.5866 31.1444 27.9728C31.5614 28.4657 31.5519 29.079 31.1122 29.7026Z" fill="black"/>
<path d="M12.8238 29.8179C13.1656 29.8179 13.4453 29.815 13.725 29.8187C14.0208 29.823 14.2085 29.9756 14.2217 30.2166C14.2356 30.4641 14.0486 30.6488 13.7389 30.6554C13.2204 30.6664 12.7011 30.6642 12.1826 30.6561C11.9613 30.6525 11.7422 30.6211 11.6392 30.3736C11.5421 30.1414 11.6684 29.9727 11.7933 29.8019C12.1906 29.2579 12.5894 28.7161 12.9808 28.1685C13.075 28.0363 13.1634 27.8932 13.2189 27.7428C13.3088 27.499 13.1678 27.2266 12.9341 27.1419C12.6931 27.0543 12.4338 27.1711 12.3264 27.4172C12.3155 27.442 12.314 27.4705 12.3045 27.496C12.203 27.7589 12.0014 27.8808 11.7831 27.8122C11.5479 27.7384 11.4405 27.5128 11.5099 27.2376C11.6538 26.6651 12.2454 26.246 12.8479 26.2884C13.7411 26.3512 14.3305 27.2354 13.9668 28.0553C13.7557 28.5307 13.4168 28.9498 13.1313 29.3922C13.048 29.52 12.9531 29.6405 12.8238 29.8179Z" fill="black"/>
<path d="M21.452 23.8788C21.3184 23.8701 21.211 23.8657 21.1051 23.8555C20.8722 23.8336 20.74 23.7043 20.7232 23.4707C20.7071 23.2502 20.859 23.056 21.0883 23.0399C21.36 23.0209 21.6346 23.0202 21.9063 23.0392C22.1575 23.0567 22.2824 23.2348 22.2839 23.5466C22.2875 24.4381 22.2854 25.3297 22.2854 26.2212C22.2854 26.4395 22.2905 26.6578 22.2832 26.8761C22.2729 27.1748 22.113 27.3471 21.8632 27.342C21.6171 27.3369 21.455 27.1572 21.4535 26.8623C21.4491 25.9707 21.452 25.0792 21.452 24.1877C21.452 24.0906 21.452 23.9927 21.452 23.8788Z" fill="black"/>
</svg>
