<svg width="20" height="21" viewBox="0 0 20 21" fill="none" xmlns="http://www.w3.org/2000/svg">
<path opacity="0.5" d="M9.94 10.6862C15.3267 10.6862 19.7133 9.5262 20 8.05953V4.2262C19.7133 5.69286 15.3333 6.85286 9.94 6.85286C7.31245 6.90365 4.69216 6.55982 2.16667 5.83286V4.49953C4.69285 5.22198 7.31312 5.56131 9.94 5.5062C15.3333 5.51953 19.68 4.35953 20 2.9062C19.8667 0.632864 13.68 0.0195312 10 0.0195312C6.32 0.0195312 0 0.639531 0 2.97286V18.0262C0 20.3529 6.28667 20.9795 10 20.9795C13.7133 20.9795 20 20.3595 20 18.0262V14.5595C19.7133 16.0195 15.3333 17.1662 9.94 17.1662C7.31413 17.2278 4.69387 16.8952 2.16667 16.1795V14.8462C4.69387 15.5619 7.31413 15.8945 9.94 15.8329C15.3333 15.8329 19.7133 14.6862 20 13.2262V9.39287C19.7133 10.8595 15.3333 12.0195 9.94 12.0195C7.31312 12.0746 4.69285 11.7353 2.16667 11.0129V9.67953C4.69285 10.402 7.31312 10.7413 9.94 10.6862Z" fill="black"/>
</svg>
