<svg width="250" height="250" viewBox="0 0 250 250" fill="none" xmlns="http://www.w3.org/2000/svg">
<path d="M77.9024 28.1738L77.8437 28.3093L68.2694 49.7902C57.0701 74.9276 45.8707 100.071 34.6929 125.206C31.3872 132.633 28.0814 140.057 24.7819 147.484C24.6027 146.585 24.4296 145.677 24.2659 144.772C24.2659 144.763 24.2659 144.754 24.2566 144.747C24.1022 143.849 23.957 142.95 23.8087 142.045C23.8087 142.027 23.8087 142.011 23.7994 141.993C23.6696 141.146 23.5584 140.3 23.4472 139.444C23.3792 138.896 23.3082 138.358 23.2495 137.81C23.2155 137.56 23.1908 137.305 23.163 137.056C23.1537 136.997 23.1537 136.945 23.1444 136.883C23.0919 136.36 23.0425 135.849 22.9899 135.326C22.9374 134.803 22.8942 134.282 22.8602 133.759C22.8509 133.707 22.8509 133.639 22.8417 133.581C22.8077 133.171 22.783 132.759 22.7551 132.35C22.7366 132.085 22.7212 131.811 22.7026 131.537C22.6934 131.402 22.6841 131.263 22.6779 131.118V131.06C22.6686 130.915 22.6594 130.771 22.6532 130.623C22.6192 129.887 22.5945 129.152 22.5667 128.416V128.262C22.5482 127.782 22.5327 127.296 22.5327 126.815C22.5327 126.369 22.5234 125.917 22.5234 125.47V124.75C22.5234 124.322 22.5327 123.894 22.542 123.467C22.5327 123.457 22.542 123.448 22.542 123.448C22.542 122.934 22.5605 122.42 22.576 121.909C22.5852 121.592 22.5945 121.284 22.6007 120.977C22.6532 119.419 22.7366 117.871 22.8571 116.332C22.9096 115.716 22.9591 115.101 23.0116 114.491C23.0703 113.876 23.1321 113.26 23.2 112.651C23.268 112.044 23.336 111.435 23.4132 110.829C23.4719 110.324 23.543 109.819 23.6109 109.324C23.6202 109.256 23.6295 109.194 23.6357 109.127C23.6542 109.04 23.6604 108.948 23.6789 108.862C23.7561 108.332 23.8334 107.809 23.9199 107.28C24.0311 106.56 24.1516 105.852 24.2814 105.131C24.3771 104.584 24.4791 104.026 24.5903 103.482C24.6923 102.934 24.8035 102.386 24.9178 101.838C25.0475 101.247 25.1742 100.656 25.304 100.074C25.4677 99.3387 25.6376 98.6123 25.8292 97.8829C25.9311 97.4458 26.0424 97.0087 26.1629 96.5655C26.3081 95.993 26.4625 95.4113 26.6263 94.8388C26.8487 94.017 27.0897 93.1952 27.3399 92.3826C27.5902 91.57 27.8466 90.7574 28.103 89.9541C28.1463 89.8433 28.1803 89.7233 28.2143 89.6125C28.2668 89.4493 28.3162 89.2954 28.378 89.1415C28.5078 88.766 28.6344 88.3874 28.7642 88.0119C29.5706 85.7035 30.4572 83.4258 31.3995 81.1851C31.8382 80.157 32.2831 79.1475 32.7465 78.1379C32.9968 77.5993 33.2439 77.0699 33.5035 76.5374C33.5992 76.3312 33.7012 76.128 33.7939 75.9218C33.8464 75.811 33.8958 75.7094 33.9484 75.6048C34.0163 75.4601 34.0936 75.3124 34.1615 75.1677C34.2202 75.0569 34.2727 74.9369 34.3345 74.8261C34.7022 74.0997 35.0729 73.3702 35.4591 72.653C35.4684 72.6284 35.4776 72.61 35.4931 72.5853C35.7495 72.0898 36.0183 71.5942 36.2933 71.1048C36.457 70.8063 36.6208 70.5046 36.7907 70.2061C37.1089 69.6244 37.4426 69.0519 37.7793 68.4794C37.8473 68.3593 37.9152 68.2485 37.9863 68.1377C38.1655 67.8115 38.354 67.4975 38.5517 67.1805C38.9471 66.5126 39.358 65.8539 39.772 65.1952C40.047 64.7489 40.3312 64.3149 40.6124 63.8871C40.9399 63.3823 41.2735 62.8775 41.6072 62.382C41.9748 61.8249 42.3548 61.277 42.741 60.7384C43.0407 60.3013 43.3435 59.8673 43.6586 59.4395C44.0108 58.9532 44.363 58.4638 44.7245 57.9836C45.0674 57.5219 45.4103 57.0602 45.7625 56.6078C45.849 56.4877 45.9417 56.3769 46.0375 56.2661C46.4484 55.7183 46.8778 55.1889 47.3073 54.6564C47.5977 54.287 47.8912 53.93 48.1909 53.5699C48.5184 53.1666 48.852 52.7665 49.1857 52.3725C49.4699 52.0401 49.7511 51.7139 50.0353 51.3876C50.335 51.0367 50.6439 50.6858 50.9529 50.3442C51.5368 49.6947 52.1207 49.0453 52.7231 48.402C52.7324 48.3928 52.7479 48.3774 52.7571 48.3589C53.3071 47.7772 53.857 47.1955 54.4224 46.623C54.4903 46.546 54.5614 46.4783 54.6355 46.4013C55.0835 45.9397 55.5469 45.478 56.0104 45.0255L56.0876 44.9486C56.2328 44.8039 56.378 44.6592 56.5263 44.5207C56.86 44.1945 57.1967 43.8713 57.5304 43.5543C57.7374 43.3665 57.9351 43.1695 58.139 42.9818C58.207 42.914 58.2842 42.8463 58.3615 42.7755C58.6179 42.5355 58.8774 42.2954 59.1338 42.0584C59.5725 41.6552 60.0174 41.255 60.4654 40.8611C60.7589 40.5964 61.0586 40.3378 61.3583 40.0824C61.6518 39.8269 61.9514 39.5683 62.2511 39.3129C62.3098 39.2605 62.3809 39.2021 62.4396 39.1497C62.5075 39.0974 62.5693 39.0389 62.6373 38.9866C63.1532 38.5403 63.6846 38.1125 64.216 37.6877C64.5497 37.4138 64.8957 37.1398 65.2387 36.8659C65.5816 36.592 65.9245 36.318 66.2767 36.0533C66.7309 35.6932 67.1943 35.3423 67.667 34.9914C68.0624 34.6929 68.4579 34.4005 68.8595 34.1112C69.3415 33.7603 69.8296 33.4094 70.3209 33.0677C71.4114 32.2983 72.5113 31.5534 73.6266 30.8178C73.9263 30.6208 74.229 30.433 74.538 30.236C74.745 30.1006 74.9489 29.9713 75.1652 29.8328C75.5513 29.5928 75.9468 29.3465 76.3423 29.1064C76.8706 28.7894 77.3865 28.4816 77.9024 28.1738Z" fill="url(#paint0_linear_3712_91657)"/>
<path d="M61.5629 187.239L49.6344 194.99C48.8868 190.317 48.1391 185.648 47.3945 180.951C52.3037 182.696 57.0183 184.786 61.5629 187.239Z" fill="url(#paint1_linear_3712_91657)"/>
<path d="M126.004 12.8917C126.322 12.864 126.64 12.8394 126.959 12.8209C127.258 12.7963 127.558 12.7686 127.867 12.7532C127.24 12.7871 126.622 12.8332 126.004 12.8917ZM128.136 12.7378C128.222 12.7317 128.306 12.7317 128.401 12.7317C128.883 12.6947 129.365 12.6701 129.844 12.6455C129.266 12.6701 128.701 12.6947 128.136 12.7378ZM136.947 12.5039C138.223 12.5224 139.49 12.5593 140.759 12.6178C139.496 12.5532 138.223 12.5193 136.947 12.5039ZM140.756 12.6178C142.508 12.704 144.26 12.8209 145.996 12.9871C145.996 12.9779 146.002 12.9687 146.002 12.9594C144.26 12.8055 142.517 12.6855 140.756 12.6178Z" fill="url(#paint2_linear_3712_91657)"/>
<path d="M155.824 14.2844C155.818 14.2936 155.818 14.3121 155.806 14.3182C149.729 27.9812 143.655 41.6441 137.584 55.3071C136.32 58.148 135.05 60.9951 133.787 63.8453C124.694 84.292 115.599 104.748 106.507 125.213C100.634 138.414 94.7666 151.622 88.8935 164.832C87.6238 167.689 86.3509 170.545 85.0811 173.414C84.2068 175.38 83.3294 177.359 82.452 179.326C79.8506 177.581 77.033 175.7 74.4564 173.971C75.7447 171.077 77.0237 168.178 78.312 165.288C79.7023 162.164 81.0957 159.033 82.4767 155.912C87.0275 145.681 91.569 135.447 96.1137 125.216C105.011 105.188 113.915 85.1692 122.81 65.1411C124.194 62.02 125.584 58.8959 126.965 55.7841C133.302 41.521 139.638 27.2671 145.987 12.9916C144.251 12.8285 142.499 12.7085 140.747 12.6223C139.481 12.5638 138.211 12.5269 136.935 12.5084C136.518 12.4992 136.092 12.4961 135.662 12.4961H135.257C134.417 12.4961 133.583 12.5053 132.743 12.53C132.261 12.5392 131.772 12.5577 131.291 12.5823C130.802 12.6007 130.32 12.6161 129.838 12.6408C129.36 12.6685 128.878 12.6931 128.396 12.7269C128.3 12.7269 128.217 12.7269 128.13 12.7331C128.043 12.7331 127.951 12.7423 127.864 12.7516C127.555 12.77 127.253 12.7947 126.956 12.8193C126.638 12.8377 126.32 12.8624 126.001 12.8901C125.949 12.8901 125.89 12.8962 125.838 12.9085C125.201 12.9485 124.565 13.0101 123.941 13.0778C123.329 13.1394 122.711 13.2071 122.102 13.2748C121.417 13.3518 120.737 13.4379 120.06 13.5303C119.974 13.5395 119.897 13.558 119.819 13.5672C119.439 13.6195 119.072 13.6688 118.695 13.7303C118.015 13.8258 117.338 13.9335 116.659 14.0566C115.877 14.1859 115.099 14.3213 114.317 14.466C114.308 14.4844 114.308 14.4937 114.298 14.5091C105.515 34.2632 96.7099 54.042 87.9265 73.8208C80.4469 90.6417 72.958 107.475 65.4721 124.32C65.3424 124.622 65.2065 124.911 65.0767 125.213C59.5558 137.617 54.0411 150.04 48.5201 162.462C45.7025 161.76 42.4586 160.954 39.6749 160.271C44.8715 148.584 50.0649 136.897 55.2614 125.213C71.2588 89.2197 87.2747 53.211 103.3 17.1776C103.306 17.1592 103.318 17.1345 103.325 17.1161C98.8942 18.418 94.5751 19.9909 90.3919 21.813C90.3827 21.8407 90.3641 21.8746 90.358 21.8992H90.3487V21.9053C75.0094 56.3413 59.6732 90.7679 44.3462 125.21L28.423 160.988L27.4437 163.195C27.0235 164.127 26.8505 165.334 27.005 166.344C27.9998 172.613 29.007 178.886 30.0265 185.156C31.7164 195.695 33.4342 206.237 35.1427 216.766C35.9243 221.555 39.0509 222.968 43.095 220.343C46.41 218.194 49.7158 216.031 53.0308 213.876C55.4869 212.276 57.94 210.669 60.3992 209.068C67.7676 204.27 75.1515 199.487 82.5879 194.79C85.9894 192.651 88.1088 190.068 89.7246 186.43C90.6607 184.319 91.5968 182.195 92.5422 180.083C93.7348 177.372 94.9366 174.66 96.1384 171.948C103.043 156.362 109.955 140.784 116.869 125.213C125.868 104.939 134.877 84.6798 143.883 64.4116C145.076 61.7092 146.278 59.0067 147.479 56.3105C153.387 43.0261 159.294 29.7387 165.204 16.4512C165.21 16.4328 165.222 16.4112 165.229 16.3928V16.3835C162.154 15.5586 159.009 14.8476 155.824 14.2844ZM53.8433 202.755C51.4397 204.322 49.0145 205.895 46.5861 207.477C45.4183 208.237 44.235 208.998 43.0579 209.77C42.6439 207.194 42.233 204.639 41.8283 202.088C40.8242 195.799 39.8263 189.554 38.8315 183.257C38.0591 178.449 37.293 173.617 36.5144 168.704C51.7981 172.118 65.2652 178.046 77.9042 187.107C69.7542 192.411 61.8296 197.569 53.8433 202.755Z" fill="url(#paint3_linear_3712_91657)"/>
<path d="M227.491 59.8016L181.445 72.4704C174.197 66.1575 165.627 61.316 156.207 58.3981C158.552 53.1287 160.888 47.8746 163.214 42.6391L173.672 19.1113C195.53 26.9324 214.249 41.2878 227.491 59.8016Z" fill="url(#paint4_linear_3712_91657)"/>
<path d="M227.481 190.196C207.01 218.83 173.415 237.498 135.442 237.498C109.954 237.498 86.443 229.089 67.5508 214.903C74.085 210.652 80.7151 206.374 87.2926 202.225C92.0844 199.214 95.4241 195.321 97.7937 189.975C98.5167 188.349 99.2273 186.724 99.9502 185.099C110.359 191.215 122.491 194.724 135.442 194.724C153.055 194.724 169.139 188.229 181.435 177.527L227.481 190.196Z" fill="url(#paint5_linear_3712_91657)"/>
<path d="M77.9024 28.1738L77.8437 28.3093L68.2694 49.7902C57.0701 74.9276 45.8707 100.071 34.6929 125.206C31.3872 132.633 28.0814 140.057 24.7819 147.484C24.6027 146.585 24.4296 145.677 24.2659 144.772C24.2659 144.763 24.2659 144.754 24.2566 144.747C24.1022 143.849 23.957 142.95 23.8087 142.045C23.8087 142.027 23.8087 142.011 23.7994 141.993C23.6696 141.146 23.5584 140.3 23.4472 139.444C23.3792 138.896 23.3082 138.358 23.2495 137.81C23.2155 137.56 23.1908 137.305 23.163 137.056C23.1537 136.997 23.1537 136.945 23.1444 136.883C23.0919 136.36 23.0425 135.849 22.9899 135.326C22.9374 134.803 22.8942 134.282 22.8602 133.759C22.8509 133.707 22.8509 133.639 22.8417 133.581C22.8077 133.171 22.783 132.759 22.7551 132.35C22.7366 132.085 22.7212 131.811 22.7026 131.537C22.6934 131.402 22.6841 131.263 22.6779 131.118V131.06C22.6686 130.915 22.6594 130.771 22.6532 130.623C22.6192 129.887 22.5945 129.152 22.5667 128.416V128.262C22.5482 127.782 22.5327 127.296 22.5327 126.815C22.5327 126.369 22.5234 125.917 22.5234 125.47V124.75C22.5234 124.322 22.5327 123.894 22.542 123.467C22.5327 123.457 22.542 123.448 22.542 123.448C22.542 122.934 22.5605 122.42 22.576 121.909C22.5852 121.592 22.5945 121.284 22.6007 120.977C22.6532 119.419 22.7366 117.871 22.8571 116.332C22.9096 115.716 22.9591 115.101 23.0116 114.491C23.0703 113.876 23.1321 113.26 23.2 112.651C23.268 112.044 23.336 111.435 23.4132 110.829C23.4719 110.324 23.543 109.819 23.6109 109.324C23.6202 109.256 23.6295 109.194 23.6357 109.127C23.6542 109.04 23.6604 108.948 23.6789 108.862C23.7561 108.332 23.8334 107.809 23.9199 107.28C24.0311 106.56 24.1516 105.852 24.2814 105.131C24.3771 104.584 24.4791 104.026 24.5903 103.482C24.6923 102.934 24.8035 102.386 24.9178 101.838C25.0475 101.247 25.1742 100.656 25.304 100.074C25.4677 99.3387 25.6376 98.6123 25.8292 97.8829C25.9311 97.4458 26.0424 97.0087 26.1629 96.5655C26.3081 95.993 26.4625 95.4113 26.6263 94.8388C26.8487 94.017 27.0897 93.1952 27.3399 92.3826C27.5902 91.57 27.8466 90.7574 28.103 89.9541C28.1463 89.8433 28.1803 89.7233 28.2143 89.6125C28.2668 89.4493 28.3162 89.2954 28.378 89.1415C28.5078 88.766 28.6344 88.3874 28.7642 88.0119C29.5706 85.7035 30.4572 83.4258 31.3995 81.1851C31.8382 80.157 32.2831 79.1475 32.7465 78.1379C32.9968 77.5993 33.2439 77.0699 33.5035 76.5374C33.5992 76.3312 33.7012 76.128 33.7939 75.9218C33.8464 75.811 33.8958 75.7094 33.9484 75.6048C34.0163 75.4601 34.0936 75.3124 34.1615 75.1677C34.2202 75.0569 34.2727 74.9369 34.3345 74.8261C34.7022 74.0997 35.0729 73.3702 35.4591 72.653C35.4684 72.6284 35.4776 72.61 35.4931 72.5853C35.7495 72.0898 36.0183 71.5942 36.2933 71.1048C36.457 70.8063 36.6208 70.5046 36.7907 70.2061C37.1089 69.6244 37.4426 69.0519 37.7793 68.4794C37.8473 68.3593 37.9152 68.2485 37.9863 68.1377C38.1655 67.8115 38.354 67.4975 38.5517 67.1805C38.9471 66.5126 39.358 65.8539 39.772 65.1952C40.047 64.7489 40.3312 64.3149 40.6124 63.8871C40.9399 63.3823 41.2735 62.8775 41.6072 62.382C41.9748 61.8249 42.3548 61.277 42.741 60.7384C43.0407 60.3013 43.3435 59.8673 43.6586 59.4395C44.0108 58.9532 44.363 58.4638 44.7245 57.9836C45.0674 57.5219 45.4103 57.0602 45.7625 56.6078C45.849 56.4877 45.9417 56.3769 46.0375 56.2661C46.4484 55.7183 46.8778 55.1889 47.3073 54.6564C47.5977 54.287 47.8912 53.93 48.1909 53.5699C48.5184 53.1666 48.852 52.7665 49.1857 52.3725C49.4699 52.0401 49.7511 51.7139 50.0353 51.3876C50.335 51.0367 50.6439 50.6858 50.9529 50.3442C51.5368 49.6947 52.1207 49.0453 52.7231 48.402C52.7324 48.3928 52.7479 48.3774 52.7571 48.3589C53.3071 47.7772 53.857 47.1955 54.4224 46.623C54.4903 46.546 54.5614 46.4783 54.6355 46.4013C55.0835 45.9397 55.5469 45.478 56.0104 45.0255L56.0876 44.9486C56.2328 44.8039 56.378 44.6592 56.5263 44.5207C56.86 44.1945 57.1967 43.8713 57.5304 43.5543C57.7374 43.3665 57.9351 43.1695 58.139 42.9818C58.207 42.914 58.2842 42.8463 58.3615 42.7755C58.6179 42.5355 58.8774 42.2954 59.1338 42.0584C59.5725 41.6552 60.0174 41.255 60.4654 40.8611C60.7589 40.5964 61.0586 40.3378 61.3583 40.0824C61.6518 39.8269 61.9514 39.5683 62.2511 39.3129C62.3098 39.2605 62.3809 39.2021 62.4396 39.1497C62.5075 39.0974 62.5693 39.0389 62.6373 38.9866C63.1532 38.5403 63.6846 38.1125 64.216 37.6877C64.5497 37.4138 64.8957 37.1398 65.2387 36.8659C65.5816 36.592 65.9245 36.318 66.2767 36.0533C66.7309 35.6932 67.1943 35.3423 67.667 34.9914C68.0624 34.6929 68.4579 34.4005 68.8595 34.1112C69.3415 33.7603 69.8296 33.4094 70.3209 33.0677C71.4114 32.2983 72.5113 31.5534 73.6266 30.8178C73.9263 30.6208 74.229 30.433 74.538 30.236C74.745 30.1006 74.9489 29.9713 75.1652 29.8328C75.5513 29.5928 75.9468 29.3465 76.3423 29.1064C76.8706 28.7894 77.3865 28.4816 77.9024 28.1738Z" fill="url(#paint6_linear_3712_91657)"/>
<path d="M61.5629 187.239L49.6344 194.99C48.8868 190.317 48.1391 185.648 47.3945 180.951C52.3037 182.696 57.0183 184.786 61.5629 187.239Z" fill="url(#paint7_linear_3712_91657)"/>
<path d="M127.867 12.75C127.558 12.7685 127.255 12.7931 126.959 12.8177C126.64 12.8362 126.322 12.8608 126.004 12.8885C126.622 12.83 127.24 12.7839 127.867 12.75Z" fill="url(#paint8_linear_3712_91657)"/>
<path d="M129.833 12.6445C129.355 12.6722 128.873 12.6969 128.391 12.7307C128.295 12.7307 128.212 12.7307 128.125 12.7369C128.693 12.6969 129.259 12.6722 129.833 12.6445Z" fill="url(#paint9_linear_3712_91657)"/>
<path d="M227.491 59.8016L181.445 72.4704C174.197 66.1575 165.627 61.316 156.207 58.3981C158.552 53.1287 160.888 47.8746 163.214 42.6391L173.672 19.1113C195.53 26.9324 214.249 41.2878 227.491 59.8016Z" fill="url(#paint10_linear_3712_91657)"/>
<path d="M227.481 190.196C207.01 218.83 173.415 237.498 135.442 237.498C109.954 237.498 86.443 229.089 67.5508 214.903C74.085 210.652 80.7151 206.374 87.2926 202.225C92.0844 199.214 95.4241 195.321 97.7937 189.975C98.5167 188.349 99.2273 186.724 99.9502 185.099C110.359 191.215 122.491 194.724 135.442 194.724C153.055 194.724 169.139 188.229 181.435 177.527L227.481 190.196Z" fill="url(#paint11_linear_3712_91657)"/>
<path d="M125.996 12.8995C126.314 12.8718 126.633 12.8472 126.951 12.8287C127.25 12.8041 127.55 12.7764 127.859 12.761C127.232 12.7949 126.614 12.8411 125.996 12.8995ZM128.128 12.7456C128.214 12.7395 128.298 12.7395 128.394 12.7395C128.875 12.7026 129.357 12.6779 129.836 12.6533C129.259 12.6779 128.693 12.7026 128.128 12.7456ZM136.939 12.5117C138.215 12.5302 139.482 12.5671 140.751 12.6256C139.488 12.561 138.215 12.5271 136.939 12.5117ZM140.748 12.6256C142.5 12.7118 144.252 12.8287 145.988 12.995C145.988 12.9857 145.994 12.9765 145.994 12.9673C144.252 12.8134 142.509 12.6933 140.748 12.6256Z" fill="url(#paint12_linear_3712_91657)"/>
<path d="M22.6448 120.066C22.6634 119.604 22.6881 119.142 22.7128 118.68C22.7468 117.969 22.79 117.262 22.8487 116.55C22.8487 116.483 22.858 116.421 22.858 116.354C22.7375 117.892 22.651 119.441 22.6016 120.998C22.6108 120.681 22.6263 120.373 22.6448 120.066Z" fill="url(#paint13_linear_3712_91657)"/>
<path d="M125.996 12.8995C126.314 12.8718 126.633 12.8472 126.951 12.8287C127.25 12.8041 127.55 12.7764 127.859 12.761C127.232 12.7949 126.614 12.8411 125.996 12.8995ZM128.128 12.7456C128.214 12.7395 128.298 12.7395 128.394 12.7395C128.875 12.7026 129.357 12.6779 129.836 12.6533C129.259 12.6779 128.693 12.7026 128.128 12.7456ZM136.939 12.5117C138.215 12.5302 139.482 12.5671 140.751 12.6256C139.488 12.561 138.215 12.5271 136.939 12.5117ZM140.748 12.6256C142.5 12.7118 144.252 12.8287 145.988 12.995C145.988 12.9857 145.994 12.9765 145.994 12.9673C144.252 12.8134 142.509 12.6933 140.748 12.6256ZM125.996 12.8995C126.314 12.8718 126.633 12.8472 126.951 12.8287C127.25 12.8041 127.55 12.7764 127.859 12.761C127.232 12.7949 126.614 12.8411 125.996 12.8995ZM128.128 12.7456C128.214 12.7395 128.298 12.7395 128.394 12.7395C128.875 12.7026 129.357 12.6779 129.836 12.6533C129.259 12.6779 128.693 12.7026 128.128 12.7456ZM136.939 12.5117C138.215 12.5302 139.482 12.5671 140.751 12.6256C139.488 12.561 138.215 12.5271 136.939 12.5117ZM140.748 12.6256C142.5 12.7118 144.252 12.8287 145.988 12.995C145.988 12.9857 145.994 12.9765 145.994 12.9673C144.252 12.8134 142.509 12.6933 140.748 12.6256Z" fill="url(#paint14_linear_3712_91657)"/>
<defs>
<linearGradient id="paint0_linear_3712_91657" x1="29.8628" y1="28.1738" x2="96.3575" y2="34.0489" gradientUnits="userSpaceOnUse">
<stop stop-color="#6E96DB"/>
<stop offset="1" stop-color="#448FD6"/>
</linearGradient>
<linearGradient id="paint1_linear_3712_91657" x1="49.2723" y1="180.951" x2="65.8071" y2="184.128" gradientUnits="userSpaceOnUse">
<stop stop-color="#6E96DB"/>
<stop offset="1" stop-color="#448FD6"/>
</linearGradient>
<linearGradient id="paint2_linear_3712_91657" x1="128.654" y1="12.5039" x2="129.038" y2="15.5272" gradientUnits="userSpaceOnUse">
<stop stop-color="#6E96DB"/>
<stop offset="1" stop-color="#448FD6"/>
</linearGradient>
<linearGradient id="paint3_linear_3712_91657" x1="45.2754" y1="12.4961" x2="209.997" y2="33.2263" gradientUnits="userSpaceOnUse">
<stop stop-color="#6E96DB"/>
<stop offset="1" stop-color="#448FD6"/>
</linearGradient>
<linearGradient id="paint4_linear_3712_91657" x1="165.654" y1="19.1113" x2="246.675" y2="39.7144" gradientUnits="userSpaceOnUse">
<stop stop-color="#6E96DB"/>
<stop offset="1" stop-color="#448FD6"/>
</linearGradient>
<linearGradient id="paint5_linear_3712_91657" x1="88.7464" y1="177.527" x2="242.624" y2="255.64" gradientUnits="userSpaceOnUse">
<stop stop-color="#6E96DB"/>
<stop offset="1" stop-color="#448FD6"/>
</linearGradient>
<linearGradient id="paint6_linear_3712_91657" x1="29.8628" y1="28.1738" x2="96.3575" y2="34.0489" gradientUnits="userSpaceOnUse">
<stop stop-color="#6E96DB"/>
<stop offset="1" stop-color="#448FD6"/>
</linearGradient>
<linearGradient id="paint7_linear_3712_91657" x1="49.2723" y1="180.951" x2="65.8071" y2="184.128" gradientUnits="userSpaceOnUse">
<stop stop-color="#6E96DB"/>
<stop offset="1" stop-color="#448FD6"/>
</linearGradient>
<linearGradient id="paint8_linear_3712_91657" x1="126.251" y1="12.75" x2="126.549" y2="13.514" gradientUnits="userSpaceOnUse">
<stop stop-color="#6E96DB"/>
<stop offset="1" stop-color="#448FD6"/>
</linearGradient>
<linearGradient id="paint9_linear_3712_91657" x1="128.351" y1="12.6445" x2="128.506" y2="13.1877" gradientUnits="userSpaceOnUse">
<stop stop-color="#6E96DB"/>
<stop offset="1" stop-color="#448FD6"/>
</linearGradient>
<linearGradient id="paint10_linear_3712_91657" x1="165.654" y1="19.1113" x2="246.675" y2="39.7144" gradientUnits="userSpaceOnUse">
<stop stop-color="#6E96DB"/>
<stop offset="1" stop-color="#448FD6"/>
</linearGradient>
<linearGradient id="paint11_linear_3712_91657" x1="88.7464" y1="177.527" x2="242.624" y2="255.64" gradientUnits="userSpaceOnUse">
<stop stop-color="#6E96DB"/>
<stop offset="1" stop-color="#448FD6"/>
</linearGradient>
<linearGradient id="paint12_linear_3712_91657" x1="128.646" y1="12.5117" x2="129.03" y2="15.535" gradientUnits="userSpaceOnUse">
<stop stop-color="#6E96DB"/>
<stop offset="1" stop-color="#448FD6"/>
</linearGradient>
<linearGradient id="paint13_linear_3712_91657" x1="22.6355" y1="116.354" x2="22.9458" y2="116.357" gradientUnits="userSpaceOnUse">
<stop stop-color="#6E96DB"/>
<stop offset="1" stop-color="#448FD6"/>
</linearGradient>
<linearGradient id="paint14_linear_3712_91657" x1="128.646" y1="12.5117" x2="129.03" y2="15.535" gradientUnits="userSpaceOnUse">
<stop stop-color="#6E96DB"/>
<stop offset="1" stop-color="#448FD6"/>
</linearGradient>
</defs>
</svg>
