<svg width="880" height="168" viewBox="0 0 880 168" fill="none" xmlns="http://www.w3.org/2000/svg">
<path d="M297.141 95.4565C295.959 94.2039 295.17 92.632 294.873 90.9355C294.575 89.239 294.781 87.4925 295.467 85.9122C296.379 82.8458 298.127 80.0936 300.514 77.9632C302.901 75.8328 305.833 74.4081 308.983 73.8484C311.102 73.389 313.251 73.4334 314.585 75.5824C315.134 76.4833 315.38 77.5365 315.287 78.5874C315.193 79.6383 314.765 80.6316 314.066 81.4216C311.769 84.6673 309.502 87.9426 307.056 91.0845C306.108 92.3146 306.285 93.1446 307.382 93.8411C313.874 97.9612 313.547 104.378 312.806 110.677C312.095 116.605 310.791 122.533 309.753 128.373C309.68 128.928 309.65 129.488 309.665 130.047C309.665 132.656 311.517 133.708 313.844 132.567C318.987 130.047 322.81 126.001 326.664 121.926C334.377 113.681 341.414 104.83 347.709 95.4565C348.149 94.9113 348.645 94.4145 349.191 93.9745C351.295 92.0478 354.155 92.6555 354.659 95.4565C355.003 97.8448 354.907 100.276 354.378 102.63C353.918 105.075 352.718 107.357 352.155 109.788C351.697 111.949 351.425 114.146 351.34 116.353C351.147 119.406 352.91 120.503 355.978 120.088C361.146 119.344 365.939 116.965 369.658 113.3C376.475 106.69 382.848 99.6211 389.25 92.5517C390.371 90.9617 391.301 89.2456 392.022 87.4387C395.297 81.4364 399.432 76.2641 405.76 73.2259C409.687 71.3289 413.867 70.499 418.091 72.2626C423.722 74.6339 425.323 79.5394 421.796 84.4598C417.111 91.4117 410.169 96.5319 402.144 98.9542C401.418 99.214 400.636 99.2804 399.876 99.1468C397.994 98.5985 397.327 99.5766 397.031 101.148C396.352 104.196 395.832 107.278 395.475 110.381C395 116.887 399.032 119.451 404.678 119.747C409.376 119.999 413.748 118.354 418.017 116.576C428.317 112.263 437.076 105.594 445.538 98.4799C446.086 98.0205 446.605 97.5462 447.153 97.1312C450.14 94.852 452.413 91.7668 453.704 88.239C459.336 73.7891 465.427 59.5171 471.326 45.1709C471.666 44.3558 471.933 43.4962 472.289 42.5032C469.058 42.5032 465.99 42.5032 462.937 42.5032C457.617 42.6218 452.296 42.8441 446.99 43.0219C446.921 43.0288 446.852 43.0288 446.783 43.0219C445.301 42.8293 443.3 42.7107 443.137 40.8878C443.109 40.4815 443.164 40.0736 443.3 39.6897C443.436 39.3058 443.65 38.954 443.928 38.6564C444.207 38.3588 444.543 38.1217 444.917 37.96C445.291 37.7982 445.694 37.7152 446.101 37.7162C448.384 37.4495 450.666 37.0641 452.963 36.99C459.395 36.7677 465.827 36.6047 472.23 36.5899C472.522 36.6381 472.822 36.6269 473.11 36.5569C473.398 36.4869 473.669 36.3596 473.907 36.1825C474.145 36.0055 474.345 35.7823 474.494 35.5264C474.644 35.2705 474.741 34.987 474.779 34.6929C476.439 27.4457 478.128 20.2133 479.744 12.9513C479.793 12.2633 479.681 11.5732 479.417 10.9358C479.003 9.54265 478.528 8.16435 478.054 6.78605C477.657 5.91639 477.542 4.94433 477.726 4.00613C477.909 3.06793 478.381 2.21065 479.077 1.55445C479.859 0.829671 480.826 0.333208 481.871 0.118962C482.916 -0.0952837 484 -0.0191226 485.005 0.339179C486.936 0.86869 488.633 2.03484 489.819 3.64874C491.005 5.26264 491.612 7.22975 491.541 9.23142C491.134 14.2169 490.387 19.1686 489.303 24.0518C488.473 28.0089 487.065 31.8622 485.953 35.6858C495.927 35.6858 505.916 35.6858 515.905 35.6858C520.529 35.6858 525.153 35.9081 529.762 36.1156C530.853 36.0719 531.932 36.3602 532.855 36.9424C533.779 37.5245 534.504 38.3731 534.935 39.3761C536.046 41.9104 534.683 44.1928 531.971 44.089C524.99 43.8371 518.01 43.3776 511.015 43.1405C501.777 42.8145 492.543 42.5922 483.315 42.4736C482.648 42.4736 481.685 43.3925 481.359 44.1038C476.201 55.0709 471.093 66.0627 466.035 77.0792C461.07 87.8833 456.046 98.6874 451.214 109.566C448.29 116.042 446.265 122.888 445.197 129.914C444.904 131.751 444.834 133.618 444.99 135.472C445.02 136.141 445.21 136.793 445.543 137.374C445.877 137.954 446.345 138.447 446.908 138.809C447.471 139.172 448.113 139.395 448.779 139.459C449.446 139.523 450.118 139.426 450.74 139.177C453.407 138.001 455.881 136.427 458.076 134.508C464.864 128.58 469.443 120.962 474.127 113.404C477.091 108.543 480.188 103.712 483.123 98.7911C484.516 96.4791 485.583 93.9597 486.931 91.6032C487.896 89.9121 488.98 88.2925 490.177 86.757C490.699 86.0387 491.45 85.5188 492.306 85.2819C493.162 85.045 494.073 85.1053 494.89 85.4528C495.679 85.6794 496.366 86.1722 496.833 86.8476C497.301 87.5229 497.52 88.3392 497.454 89.1579C497.222 91.494 496.725 93.7962 495.972 96.0197C494.149 101.34 492.074 106.572 490.162 111.863C489.837 112.783 489.657 113.748 489.629 114.723C489.701 115.447 489.866 116.16 490.118 116.842C490.874 116.665 491.896 116.724 492.341 116.235C495.027 113.491 497.56 110.601 499.929 107.58C505.664 99.9323 511.044 91.9886 516.943 84.4746C519.624 81.0887 522.79 78.1173 526.339 75.6565C530.933 72.4701 535.542 75.2563 535.616 80.8584C535.72 88.8615 534.045 96.657 532.563 104.467C532.43 105.134 532.312 105.801 532.06 107.12C533.074 106.561 534.037 105.911 534.935 105.179C543.613 95.9632 554.849 89.553 567.199 86.7718C576.71 84.8003 586.589 85.6291 595.639 89.1579C605.139 92.611 613.29 98.391 621.693 103.741C631.223 109.818 640.634 116.116 650.445 121.689C660.915 127.606 672.41 131.489 684.324 133.13C693.8 134.481 703.412 134.581 712.913 133.426C724.606 132.018 735.825 128.728 747.193 126.016C758.965 123.042 771.004 121.245 783.132 120.651C795.454 120.318 807.781 121.152 819.946 123.141C839.538 126.105 858.108 132.389 876.263 140.259C876.782 140.481 877.331 140.614 877.745 140.881C878.108 141.053 878.43 141.3 878.689 141.607C878.948 141.913 879.138 142.272 879.246 142.658C879.354 143.045 879.378 143.45 879.316 143.847C879.254 144.243 879.108 144.622 878.887 144.957C878.101 146.542 876.916 146.631 875.404 146.039C867.994 143.075 860.583 140.11 853.173 137.413C841.631 133.407 829.714 130.572 817.604 128.951C805.215 127.12 792.684 126.425 780.168 126.876C765.617 127.303 751.2 129.798 737.352 134.286C727.34 137.613 716.957 139.698 706.436 140.496C684.69 142.409 662.906 137.253 644.324 125.794C632.334 118.487 620.612 110.618 609.274 102.407C597.18 93.6633 584.079 89.6618 569.422 92.611C561.703 94.2543 554.423 97.5231 548.066 102.2C540.365 107.654 533.619 114.344 528.102 122C527.064 123.714 526.195 125.526 525.509 127.409C519.907 139.947 513.653 152.085 503.56 161.719C500.462 164.982 496.381 167.142 491.941 167.869C490.572 168.125 489.159 168.004 487.854 167.518C486.55 167.031 485.402 166.199 484.535 165.109C483.668 164.019 483.114 162.714 482.933 161.333C482.752 159.953 482.951 158.549 483.508 157.272C485.171 153.067 487.503 149.158 490.414 145.698C497.826 136.841 506.286 128.919 515.609 122.104C517.62 120.604 519.221 118.621 520.263 116.338C524.005 107.312 526.373 97.7752 527.287 88.0463C527.465 86.4457 527.599 84.8451 527.688 83.2445C527.791 81.6291 527.228 81.1993 525.716 82.0737C522.453 84.1268 519.669 86.8559 517.55 90.0767C511.741 98.0946 506.035 106.216 500.062 114.13C498.106 116.682 495.772 118.921 493.141 120.77C487.213 124.92 483.552 122.489 482.367 115.716C481.981 113.537 481.981 111.27 481.774 108.721C481.196 109.551 480.751 110.203 480.292 110.84C475.623 117.628 471.163 124.549 466.242 131.129C463.311 135.174 459.539 138.536 455.186 140.985C451.852 142.808 448.517 143.297 445.138 140.985C443.998 140.168 443.075 139.085 442.45 137.829C441.825 136.574 441.516 135.184 441.551 133.782C441.196 127.143 443.033 120.799 444.693 114.516C445.657 110.899 446.857 107.357 448.058 103.43C444.575 106.038 441.477 108.573 438.143 110.84C431.103 115.494 423.871 119.895 415.823 122.696C409.895 124.712 403.967 125.334 397.638 123.037C390.969 120.592 387.575 114.486 386.983 108.128C386.775 105.979 386.983 103.8 386.983 101.073C385.501 102.659 384.419 103.889 383.307 105.149C378.135 110.959 372.844 116.635 366.175 120.77C362.801 123.023 358.887 124.338 354.837 124.579C346.049 124.816 341.276 118.828 342.61 110.144C342.714 109.462 342.803 108.78 342.996 107.506C340.269 111.048 337.986 114.175 335.585 117.168C329.465 124.579 323.625 132.345 315.889 138.302C314.8 139.173 313.617 139.919 312.362 140.525C311.223 141.091 309.914 141.213 308.69 140.868C307.465 140.523 306.413 139.735 305.737 138.658C302.906 134.671 303.173 130.27 303.988 125.779C305.159 119.273 306.36 112.782 307.486 106.261C308.064 102.941 307.234 101.814 304.522 100.155C301.81 98.4947 299.898 98.806 297.349 100.881C293.943 103.531 290.255 105.797 286.352 107.639C282.307 109.493 277.717 109.778 273.473 108.439C270.509 107.669 269.961 107.95 268.345 110.484C264.062 117.168 259.868 123.927 255.422 130.507C253.824 132.631 251.984 134.561 249.938 136.257C244.114 141.578 236.837 139.77 233.547 132.552C231.305 127.252 230.577 121.435 231.442 115.746C231.783 112.782 232.45 109.818 232.628 106.853L230.331 109.921C227.13 114.249 224.077 118.68 220.668 122.815C219.143 124.422 217.308 125.702 215.273 126.579C212.146 128.061 209.538 127.024 208.16 123.823C206.439 119.826 205.994 115.396 206.885 111.137C208.945 100.762 213.065 91.1586 217.823 81.7328C220.353 76.1494 222.517 70.4066 224.299 64.5412C224.625 63.5194 224.667 62.4285 224.422 61.3845C224.177 60.3406 223.653 59.3827 222.906 58.613C219.66 54.5522 215.214 52.6849 210.323 51.6919C202 50.1745 193.478 50.0993 185.129 51.4696C175.658 52.8034 166.188 54.241 156.881 56.3751C148.478 58.287 140.253 61.0287 132.042 63.7853C113.516 69.8172 95.1985 76.4716 76.5544 82.0441C59.4353 87.3771 41.5902 90.0121 23.6604 89.8544C18.22 89.6796 12.8097 88.9747 7.50613 87.7499C5.05171 86.9381 2.84708 85.5091 1.10371 83.6002C-0.630273 81.9551 -0.244934 80.0137 1.72618 78.5761C5.16451 76.0418 7.28383 75.775 9.38833 79.658C10.0523 80.7091 10.9898 81.5595 12.1005 82.1182C19.7923 86.1345 28.1213 86.2382 36.4652 85.601C56.7543 84.1189 76.1246 78.5465 95.0355 71.3289C110.745 65.4008 126.307 58.9983 142.579 54.5819C155.529 50.8347 168.756 48.1239 182.135 46.4751C192.672 45.3487 203.239 44.9931 213.554 48.0757C219.779 49.9283 225.781 52.2551 229.308 58.287C230.33 60.047 230.983 61.9972 231.225 64.018C231.467 66.0389 231.294 68.0879 230.716 70.0395C228.701 77.5535 225.248 84.4746 222.195 91.5736C218.652 99.8137 215.718 108.306 212.532 116.694C212.384 117.014 212.284 117.353 212.235 117.702C212.235 119.184 211.657 121.022 213.421 121.511C214.04 121.532 214.656 121.419 215.227 121.178C215.797 120.938 216.309 120.576 216.726 120.118C222.654 113.804 228.582 107.461 234.229 100.851C235.815 98.6549 237.171 96.3008 238.275 93.8263C239.238 92.0479 240.053 90.1953 241.091 88.4761C242.321 86.4013 243.862 85.9418 245.626 86.8904C246.063 87.0833 246.453 87.368 246.771 87.7252C247.089 88.0823 247.326 88.5035 247.466 88.9603C247.607 89.4171 247.647 89.8988 247.586 90.3726C247.524 90.8465 247.361 91.3016 247.108 91.707C245.818 94.3302 244.395 96.8941 242.913 99.4136C238.952 106.078 236.457 113.51 235.592 121.214C235.375 123.854 235.714 126.509 236.585 129.01C238.067 133.723 242.513 135.205 246.841 132.315C249.927 130.393 252.638 127.928 254.844 125.038C258.687 119.494 262.201 113.729 265.366 107.772C266.2 105.789 266.486 103.62 266.196 101.488C265.707 94.4932 265.159 87.4832 267.397 80.7399C268.3 78.3522 269.688 76.1774 271.472 74.3523C273.755 71.8773 276.645 72.4404 278.379 75.3749C279.168 76.62 279.654 78.0329 279.798 79.5C279.943 80.9671 279.741 82.4476 279.209 83.8225C277.534 88.2686 275.681 92.5814 273.888 96.9682C273.384 98.1835 272.777 99.3691 272.406 100.614C271.517 103.297 271.917 103.904 274.599 104.63C277.447 105.516 280.478 105.629 283.384 104.96C286.29 104.291 288.966 102.863 291.139 100.822C293.021 99.0875 294.992 97.3091 297.141 95.4565ZM517.224 126.164C515.72 126.949 514.304 127.893 513.001 128.98C506.969 135.175 500.922 141.37 495.142 147.787C492.52 150.922 490.963 154.81 490.696 158.888C490.474 160.903 491.378 161.674 493.304 160.992C494.354 160.596 495.35 160.068 496.268 159.421C503.844 154.331 509.861 147.242 513.653 138.94C515.714 134.948 516.93 130.573 517.224 126.09V126.164ZM400.306 94.2561C401.007 94.233 401.705 94.1637 402.396 94.0486C407.031 92.8919 411.181 90.298 414.252 86.6384C415.765 84.761 416.98 82.6614 417.854 80.4138C418.491 78.9318 417.424 78.1019 415.808 78.5909C415.34 78.7344 414.88 78.9026 414.43 79.0948C408.131 81.7625 404.263 86.9496 400.751 92.4332C400.527 92.9943 400.378 93.5822 400.306 94.182V94.2561ZM304.359 90.2249L311.428 79.5246C310.633 79.0605 309.754 78.7593 308.841 78.6385C307.928 78.5178 307.001 78.5799 306.113 78.8213C305.224 79.0627 304.393 79.4786 303.667 80.0446C302.941 80.6106 302.335 81.3155 301.884 82.1182C300.12 84.9637 300.876 87.7499 304.359 90.1508V90.2249ZM274.555 84.8451L273.888 84.5932C270.568 89.1282 268.553 95.1898 269.812 98.6578L274.555 84.8451Z" fill="white"/>
<path d="M361.775 68.3039C361.138 70.9872 359.561 73.3533 357.329 74.9731C356.98 75.1599 356.591 75.2577 356.195 75.2577C355.8 75.2577 355.41 75.1599 355.062 74.9731C354.171 73.9482 353.613 72.6767 353.461 71.3273C353.656 69.46 354.156 67.6374 354.943 65.9327C355.61 64.1691 356.707 62.6425 358.989 63.1168C360.515 63.4429 361.79 65.6807 361.775 68.3039Z" fill="white"/>
<path d="M517.227 126.09C516.932 130.546 515.726 134.893 513.685 138.865C509.894 147.167 503.877 154.257 496.301 159.347C495.383 159.993 494.387 160.521 493.337 160.918C491.41 161.6 490.506 160.829 490.728 158.813C490.996 154.735 492.553 150.848 495.174 147.713C500.954 141.296 507.031 135.101 513.033 128.906C514.327 127.82 515.733 126.876 517.227 126.09Z" fill="black"/>
<path d="M400.309 94.1824C400.375 93.5624 400.524 92.9543 400.753 92.3743C404.266 86.8611 408.163 81.6739 414.432 79.0359C414.883 78.8437 415.343 78.6755 415.811 78.532C417.426 78.043 418.493 78.8432 417.856 80.3549C416.983 82.6025 415.768 84.7021 414.255 86.5795C411.184 90.2391 407.033 92.833 402.398 93.9897C401.707 94.0998 401.009 94.1641 400.309 94.1824Z" fill="black"/>
<path d="M304.357 90.1503C300.874 87.7493 300.118 84.9631 301.882 82.0435C302.333 81.2408 302.939 80.5359 303.665 79.9699C304.391 79.4039 305.222 78.988 306.111 78.7466C306.999 78.5052 307.927 78.4431 308.839 78.5638C309.752 78.6846 310.631 78.9858 311.426 79.4499L304.357 90.1503Z" fill="black"/>
<path d="M274.559 84.8437L269.816 98.6564C268.557 95.1884 270.572 89.1268 273.892 84.5918L274.559 84.8437Z" fill="black"/>
</svg>
