<svg width="70" height="24" viewBox="0 0 70 24" fill="none" xmlns="http://www.w3.org/2000/svg">
<mask id="mask0_1_2" style="mask-type:alpha" maskUnits="userSpaceOnUse" x="40" y="6" width="30" height="11">
<rect x="40" y="6" width="30" height="11" fill="#D9D9D9"/>
</mask>
<g mask="url(#mask0_1_2)">
<path d="M80.4044 9.00871C80.4802 9.27758 80.6146 9.54582 80.6209 9.81596C80.6462 10.8725 80.638 11.931 80.6285 12.9882C80.6222 13.6433 80.1898 14.0693 79.5385 14.0908C79.4602 14.0933 79.3826 14.0914 79.3043 14.0914C72.0347 14.0914 48.6986 14.0914 41.4295 14.0908C40.4538 14.0908 40.0732 13.714 40.0725 12.7477C40.0719 11.813 40.0694 10.8776 40.0732 9.94222C40.0769 9.11919 40.4834 8.70389 41.3001 8.70389C48.6474 8.70199 72.0618 8.70323 79.4085 8.70196C79.755 8.7026 80.0731 8.76697 80.4044 9.00871ZM79.4987 9.8513C73.5652 9.84941 51.5583 9.84691 45.6412 9.84502C45.6387 10.8713 45.6362 11.9253 45.633 12.9383C51.5653 12.9377 73.5785 12.9389 79.5025 12.9389C79.5012 11.9215 79.5 10.8675 79.4987 9.8513Z" fill="black"/>
</g>
<path d="M32.0093 19.9109C32.286 20.1876 32.5309 20.4259 32.7684 20.6716C33.1683 21.0846 33.2067 21.4903 32.8802 21.7972C32.5684 22.091 32.1693 22.0429 31.7824 21.6625C31.5391 21.4225 31.2984 21.1785 31.0192 20.8993C30.7311 21.1875 30.4748 21.4536 30.2079 21.7074C29.8512 22.0478 29.4186 22.0788 29.1296 21.7964C28.839 21.5123 28.8627 21.0871 29.1998 20.719C29.4431 20.4545 29.6961 20.1998 29.9434 19.9395C29.9516 19.9313 29.9483 19.9133 29.9589 19.8391C29.7238 19.604 29.4578 19.346 29.2015 19.08C28.8521 18.7176 28.8341 18.3209 29.1443 18.0172C29.4414 17.7266 29.8136 17.7446 30.1736 18.0817C30.4438 18.3356 30.7001 18.6049 31.0053 18.9102C31.2894 18.6261 31.5351 18.3707 31.7914 18.1258C32.1905 17.7446 32.5782 17.7111 32.89 18.0213C33.2018 18.3315 33.17 18.7322 32.7945 19.1208C32.5505 19.3779 32.295 19.6252 32.0093 19.9109Z" fill="black"/>
<path d="M20.8013 13.514C20.1484 12.7419 20.0741 12.4586 20.4144 12.1052C20.7491 11.7591 20.9964 11.8204 21.8616 12.4782C22.2771 12.1395 22.704 11.5086 23.29 12.1191C23.8353 12.6888 23.228 13.0888 22.8721 13.5198C23.2329 13.9458 23.8255 14.3393 23.2623 14.9694C22.9627 15.3049 22.6379 15.1971 21.829 14.558C21.42 14.8804 21.0413 15.5138 20.4063 14.9245C20.0675 14.6102 20.1549 14.3417 20.8013 13.514Z" fill="black"/>
<path d="M31.0262 4.2116C30.3806 4.76746 30.0378 4.84418 29.7121 4.52341C29.3799 4.1961 29.4599 3.83532 30.0321 3.19621C29.6656 2.81013 29.1864 2.36365 29.7488 1.83718C30.259 1.35968 30.6573 1.82983 31.0164 2.16449C31.8261 1.59313 32.0498 1.54415 32.3673 1.85677C32.693 2.17755 32.6366 2.43629 32.0808 3.18152C32.6203 3.96265 32.6783 4.25731 32.351 4.54708C32.0228 4.83765 31.7021 4.75848 31.0262 4.2116Z" fill="black"/>
<path d="M23.678 5.09847C24.291 4.60955 24.6273 4.55241 24.9399 4.86829C25.2542 5.18744 25.1897 5.55393 24.7669 6.05183C24.8967 6.3922 25.0428 6.69176 25.1138 7.00927C25.1399 7.12518 25.015 7.30883 24.9105 7.41494C24.6216 7.70715 24.3433 7.64594 23.6748 7.17987C23.0128 7.66553 22.7165 7.71532 22.4014 7.39535C22.0847 7.07376 22.1394 6.76604 22.6528 6.12203C22.3076 5.74738 21.919 5.33273 22.4553 4.82585C22.7573 4.54017 23.074 4.62179 23.678 5.09847Z" fill="black"/>
<path d="M27.574 9.65728C27.8319 9.90052 27.845 10.369 27.6001 10.6302C27.3544 10.8922 26.8965 10.9012 26.6312 10.6474C26.3545 10.3837 26.3472 9.96663 26.6133 9.69075C26.8802 9.41568 27.3022 9.40017 27.574 9.65728Z" fill="black"/>
<path d="M31.521 13.3747C31.7855 13.1217 32.2524 13.1348 32.4989 13.4025C32.756 13.6808 32.7348 14.1053 32.4499 14.3689C32.1765 14.6228 31.7888 14.6122 31.5235 14.3436C31.2517 14.0702 31.2509 13.6335 31.521 13.3747Z" fill="black"/>
<path d="M38.5181 0.491592C38.7679 0.230397 39.2209 0.223051 39.4853 0.476083C39.7514 0.730747 39.7596 1.17314 39.5033 1.43924C39.2405 1.71186 38.8201 1.71757 38.5475 1.45148C38.274 1.18621 38.261 0.760133 38.5181 0.491592Z" fill="black"/>
<path d="M25.8427 16.948C25.2827 17.328 24.7127 17.728 24.1327 18.138C24.0527 18.208 24.0527 18.328 24.1727 18.358C25.8027 18.798 27.5927 19.028 29.9927 18.718C32.2527 18.428 33.8327 17.788 35.0727 17.048C36.7827 16.028 37.6627 15.028 38.2927 14.028C39.5527 12.058 39.8827 10.158 39.6327 8.23801C39.4927 7.19801 39.2427 6.13801 38.5227 5.03801C38.3227 4.72801 38.0427 4.38801 37.6627 4.07801C36.9027 3.45801 35.5727 3.19801 34.6327 3.52801C33.6827 3.88801 33.2827 4.42801 32.9527 4.99801C31.3927 7.78801 31.4327 10.768 33.2127 13.608C33.6027 14.238 34.2527 14.808 34.7227 15.398C34.7827 15.468 34.8527 15.578 34.7527 15.638C34.0527 16.088 33.4027 16.578 32.5127 17.018C31.2827 17.628 29.7727 17.828 28.3727 17.578C27.4827 17.418 26.7427 17.168 25.8427 16.948ZM36.1827 14.018C33.9327 12.288 33.9327 5.82801 36.1827 4.59801C38.2127 6.21801 38.2127 12.318 36.1827 14.018Z" fill="black" fill-opacity="0.1"/>
<path d="M37.6727 15.488C37.3527 15.768 37.0027 16.058 36.7027 16.358C36.6427 16.418 36.6127 16.518 36.6727 16.538C37.5827 16.908 38.6427 17.138 40.0527 16.998C41.5327 16.848 42.5727 16.358 43.4127 15.778C44.3927 15.078 44.9627 14.338 45.3727 13.618C46.2727 11.988 46.5427 10.418 46.3827 8.81801C46.2927 7.97801 46.1427 7.12801 45.7127 6.25801C45.5727 5.97801 45.4127 5.70801 45.1627 5.43801C44.6027 4.81801 43.5027 4.60801 42.9427 5.06801C42.4927 5.42801 42.1627 5.87801 41.9627 6.32801C41.0527 8.44801 41.0827 10.708 42.1127 12.868C42.3627 13.408 42.7627 13.888 43.1127 14.388C43.2127 14.518 43.2327 14.628 43.0427 14.768C42.6727 15.048 42.3427 15.358 41.8927 15.618C41.0127 16.148 40.0027 16.288 39.0327 15.988C38.5327 15.858 38.1327 15.658 37.6727 15.488ZM44.0127 5.77801C45.4127 7.09801 45.4127 11.918 44.0127 13.448C42.6527 10.858 42.5227 8.19801 44.0127 5.77801Z" fill="black" fill-opacity="0.1"/>
<path d="M3.80266 19.628C2.63266 20.238 1.36266 20.878 0.132657 21.538C-0.0773434 21.648 -0.00734344 21.758 0.202657 21.808C3.22266 22.638 10.6727 22.258 15.2727 21.208C18.2327 20.538 20.2827 19.738 21.8827 18.898C24.3527 17.608 25.7727 16.368 26.7927 15.188C28.8027 12.868 29.3927 10.658 29.2427 8.45801C29.1327 6.87801 28.7627 5.27801 27.4527 3.55801C27.0727 3.06801 26.5227 2.55801 25.7727 2.04801C24.5127 1.19801 22.1427 0.768008 20.5927 1.14801C18.8427 1.57801 18.1327 2.33801 17.5027 3.12801C15.2627 6.03801 15.0627 9.23801 16.5227 12.418C17.3127 14.058 18.6027 15.598 20.7227 16.888C20.9927 17.058 20.9927 17.228 20.5827 17.438C19.6227 17.938 18.7327 18.468 17.5427 18.988C15.0527 20.088 11.7727 20.618 8.53266 20.318C6.93266 20.158 5.51266 19.878 3.80266 19.628ZM23.2527 15.108C18.6427 11.268 19.7627 4.38801 23.2927 2.67801C26.7927 4.99801 26.7927 12.558 23.2527 15.108Z" fill="black" fill-opacity="0.1"/>
<path d="M45.0527 14.578C44.7927 14.838 44.5827 15.058 44.3727 15.298C44.3227 15.338 44.3227 15.408 44.3727 15.438C45.0527 15.798 45.8027 16.048 46.8727 15.908C46.9127 15.908 46.9627 15.888 47.0027 15.888C47.0027 15.668 47.0027 15.448 47.0027 15.228C46.0527 15.288 45.5827 14.928 45.0527 14.578Z" fill="black" fill-opacity="0.1"/>
</svg>
