<svg width="43" height="43" viewBox="0 0 43 43" fill="none" xmlns="http://www.w3.org/2000/svg">
<path d="M18.3361 16.2091C19.326 16.2091 19.8998 16.4497 20.3809 16.9188C25.3526 21.8841 30.3176 26.8518 35.2757 31.822C36.2524 32.8023 36.2283 34.2012 35.2757 35.2092C35.0435 35.457 34.8054 35.6999 34.554 35.9309C33.5809 36.8186 32.2108 36.8234 31.2522 35.9177C30.5136 35.2176 29.8088 34.4839 29.0871 33.7634C24.914 29.5855 20.7394 25.408 16.5631 21.231C15.2664 19.9331 15.2748 18.6352 16.5631 17.3266C17.1441 16.7323 17.7503 16.1995 18.3361 16.2091ZM19.4475 22.7393C19.5582 22.8596 19.7025 23.0172 19.8541 23.1687L30.5221 33.8379C30.931 34.2469 31.3376 34.6595 31.7502 35.0648C32.526 35.8238 33.285 35.8286 34.0524 35.0841C34.1727 34.9734 34.2785 34.8592 34.3904 34.7449C35.2552 33.8716 35.2552 33.1487 34.3796 32.273C30.4166 28.3077 26.4516 24.3427 22.4847 20.3782C22.35 20.2434 22.208 20.1171 22.1346 20.0486L19.4475 22.7393ZM18.567 21.8781L21.2891 19.1585C20.8608 18.7375 20.3797 18.2636 19.8974 17.7908C19.8264 17.7211 19.7602 17.6465 19.6857 17.5804C19.0842 17.0475 18.3421 17.027 17.7347 17.5238C16.6208 18.4368 16.3129 19.2078 16.7543 19.9872C16.8019 20.0743 16.8601 20.1551 16.9276 20.2278C17.4989 20.8076 18.0739 21.3825 18.567 21.8781Z" fill="black"/>
<path d="M21.1154 10.0438C20.953 9.64086 20.8135 9.22949 20.6234 8.84097C20.4659 8.52102 20.2109 8.24557 20.0761 7.91839C20.0028 7.73676 20.0076 7.40719 20.1218 7.29532C20.2361 7.18346 20.5416 7.22435 20.7521 7.26284C20.8977 7.2881 21.03 7.4132 21.1563 7.51063C22.3459 8.43201 23.5295 8.41276 24.7119 7.49499C24.8213 7.40959 24.938 7.29292 25.0631 7.27728C25.2917 7.24841 25.5839 7.20751 25.7439 7.32058C25.8474 7.39395 25.8317 7.75962 25.7523 7.94365C25.6032 8.28767 25.3686 8.59439 25.1714 8.91675C24.6902 9.70742 24.6902 10.4981 25.1714 11.2888C25.3686 11.6123 25.6044 11.9178 25.7523 12.2619C25.8317 12.4459 25.8474 12.8128 25.7439 12.8849C25.5827 12.998 25.2724 12.9944 25.0667 12.9234C24.7913 12.8284 24.5507 12.6275 24.3029 12.4603C23.3912 11.8517 22.4806 11.8384 21.5641 12.4459C21.3139 12.6119 21.0733 12.8067 20.799 12.9102C20.591 12.986 20.3348 12.9306 20.1002 12.9342C20.1002 12.7009 20.022 12.4351 20.1062 12.239C20.271 11.8577 20.5561 11.5305 20.7353 11.1564C20.8953 10.822 20.9807 10.4516 21.1154 10.0438ZM23.9264 9.09838H21.9153V11.1095H23.9264V9.09838Z" fill="black"/>
<path d="M8.8052 28.5365C8.67048 28.2563 8.53216 28.047 8.47562 27.8148C8.45157 27.715 8.57907 27.561 8.66567 27.454C9.74823 26.1188 9.78311 24.7849 8.6789 23.4449C8.62959 23.3836 8.55862 23.3102 8.55862 23.244C8.55862 23.0275 8.52133 22.7557 8.6344 22.6125C8.71619 22.5079 9.04337 22.5055 9.20936 22.5764C9.52957 22.7377 9.83681 22.9235 10.1283 23.1322C10.9912 23.6807 11.8528 23.6807 12.7132 23.1322C13.0047 22.9228 13.3124 22.7369 13.6334 22.5764C13.7982 22.5043 14.1254 22.5079 14.2084 22.6125C14.3202 22.7557 14.2865 23.0275 14.2805 23.2428C14.2805 23.3282 14.1879 23.4172 14.1254 23.4942C13.0645 24.8017 13.0885 26.1032 14.1422 27.4022C14.1915 27.4636 14.2625 27.5334 14.2625 27.6019C14.2721 27.8196 14.3359 28.1167 14.224 28.2334C14.1121 28.3501 13.7874 28.3537 13.6009 28.2791C13.3086 28.1685 13.0512 27.9628 12.7854 27.7859C11.8712 27.1845 10.9631 27.1845 10.0453 27.7859C9.68568 28.0265 9.30438 28.237 8.8052 28.5365ZM12.4245 26.4484V24.4312H10.411V26.446L12.4245 26.4484Z" fill="black"/>
<path d="M10.4491 17.1374C10.2362 16.8728 10.0618 16.7332 9.99561 16.5564C9.89363 16.2543 9.81758 15.9441 9.76828 15.629C9.55778 14.52 8.89622 13.8741 7.79201 13.6648C7.49515 13.6284 7.20389 13.5557 6.92476 13.4483C6.73953 13.3653 6.50738 13.1452 6.50016 12.984C6.49294 12.8228 6.73111 12.5883 6.91273 12.5137C7.26036 12.3741 7.64526 12.3272 8.01333 12.2382C8.93591 12.0145 9.50365 11.4407 9.72377 10.5146C9.81158 10.1465 9.85609 9.76038 9.99802 9.41516C10.0448 9.31663 10.113 9.22984 10.1978 9.16115C10.2825 9.09246 10.3815 9.04362 10.4876 9.01822C10.6199 9.00379 10.8568 9.23473 10.9206 9.40433C11.0589 9.77361 11.1131 10.1754 11.2093 10.5627C11.433 11.46 12.0008 12.0145 12.8933 12.2358C13.2601 12.326 13.645 12.3717 13.9927 12.5113C14.1767 12.5858 14.4124 12.8144 14.4136 12.9756C14.4149 13.1367 14.1863 13.3653 14.0035 13.4459C13.6775 13.583 13.3118 13.6263 12.9618 13.7057C11.9887 13.9294 11.3981 14.5296 11.1792 15.51C11.1177 15.8633 11.0325 16.2121 10.9242 16.554C10.8532 16.7332 10.662 16.8824 10.4491 17.1374ZM9.20775 13.245V12.7061L10.7173 14.2313H10.1821L11.7097 12.717V13.2546L10.1977 11.7282H10.7342L9.20775 13.245Z" fill="black"/>
<path d="M32.3164 19.8777C32.3345 20.3456 31.9784 20.5718 31.6103 20.3937C31.3453 20.2557 31.0905 20.0989 30.8477 19.9246C30.0262 19.3725 29.2107 19.387 28.3939 19.9355C28.1798 20.0798 27.9718 20.2578 27.7336 20.336C27.5363 20.3997 27.2176 20.419 27.1021 20.3059C26.9866 20.1929 26.9914 19.8657 27.0624 19.678C27.1719 19.3858 27.3836 19.132 27.552 18.8613C28.0078 18.1276 28.0018 17.3975 27.5423 16.6673C27.3727 16.3979 27.161 16.1429 27.054 15.8506C27.0182 15.7473 27.0053 15.6374 27.0161 15.5286C27.0269 15.4198 27.0612 15.3146 27.1165 15.2203C27.1995 15.1157 27.5255 15.1193 27.6987 15.1878C27.9898 15.3081 28.2472 15.5078 28.5166 15.6786C29.2672 16.1597 30.0142 16.1465 30.7611 15.6678C31.0125 15.5066 31.2519 15.3069 31.5273 15.2107C31.7186 15.1409 32.0422 15.1265 32.1576 15.2396C32.2731 15.3526 32.2659 15.6774 32.1973 15.8674C32.0999 16.1429 31.9014 16.3835 31.739 16.6337C31.2411 17.4023 31.2579 18.1625 31.7487 18.9287C31.964 19.2583 32.1564 19.6071 32.3164 19.8777ZM30.446 18.5907V16.9488H28.8089V18.5907H30.446Z" fill="black"/>
</svg>
