<svg width="412" height="361" viewBox="0 0 412 361" fill="none" xmlns="http://www.w3.org/2000/svg">
<path d="M92.2923 108.398L55.3107 116.53L54.3914 174.018C54.3914 174.018 55.0278 180.594 60.9675 180.028C70.3013 179.18 73.059 171.614 73.059 171.614L78.433 171.614C78.433 171.614 79.918 177.907 90.8074 172.533C101.626 167.088 118.809 118.651 118.809 118.651L92.2923 108.398Z" fill="#E5B080"/>
<path d="M76.9485 158.674C75.7464 152.663 75.4636 143.329 75.11 140.006C74.7565 136.683 75.6757 135.198 78.9991 131.874C82.3225 128.551 89.2522 123.46 89.2522 123.46L83.2418 124.662C83.2418 124.662 75.8171 129.965 73.5544 132.511C69.9481 136.683 69.9481 140.925 70.5845 151.178C70.9381 156.906 72.423 169.987 71.5038 174.301C72.5644 172.816 72.9887 171.684 72.9887 171.684L75.9586 171.684C76.8778 167.23 77.5849 161.856 76.9485 158.674Z" fill="#CE9772"/>
<path opacity="0.77" d="M90.7382 154.36C90.3846 148.208 91.4453 138.945 91.6574 135.622C91.8695 132.298 92.9302 130.955 96.7486 128.127C100.496 125.369 108.133 121.268 108.133 121.268L101.981 121.621C101.981 121.621 93.9201 125.722 91.3746 127.985C87.2026 131.591 86.5662 135.763 85.7177 146.087C85.2227 151.815 84.7985 164.967 83.2428 169.068C84.5156 167.795 85.0813 166.664 85.0813 166.664L88.0512 167.088C89.4654 162.845 90.8796 157.613 90.7382 154.36Z" fill="#CE9772"/>
<path d="M332.921 225L216.319 144.602C216.319 144.602 203.662 134.349 190.722 127.49C183.085 123.389 173.892 118.015 168.448 114.833C155.296 106.913 107.637 81.5989 107.637 81.5989C107.637 81.5989 96.7471 74.3864 85.9283 85.2051C81.0493 90.0842 71.4327 96.0239 71.4327 96.0239L42.2999 101.822C42.2999 101.822 29.9255 103.307 33.5317 117.803C35.1581 124.096 36.5723 147.289 36.5723 147.289C36.5723 147.289 37.7744 158.108 44.1383 155.421C50.5023 152.734 54.9571 144.602 54.9571 139.794C54.9571 134.985 55.8763 123.884 55.8763 123.884C55.8763 123.884 64.4323 124.096 77.5138 126.288C84.797 127.49 96.7471 135.339 97.6663 147.713C98.0199 152.451 91.3731 158.249 85.0091 158.532C75.1096 158.815 87.2011 180.947 87.2011 180.947C87.2011 180.947 109.829 183.069 129.415 184.554C145.042 185.756 154.659 180.947 162.225 180.028C169.791 179.109 183.014 184.554 193.267 192.968C203.52 201.383 282.999 275.488 282.999 275.488L332.921 225Z" fill="#FFD2A2"/>
<path opacity="0.69" d="M58.2825 125.015C58.2825 125.015 49.9387 124.167 46.8274 122.328C43.6454 120.419 41.8777 117.661 41.8777 117.661C41.8777 117.661 41.0998 119.995 43.8576 122.894C45.4839 124.662 46.5446 125.581 48.3123 126.5C51.4943 127.985 46.0496 141.491 47.2517 141.137C49.0902 140.43 58.2825 125.015 58.2825 125.015Z" fill="#E5B080"/>
<path d="M104.243 139.723C102.899 140.359 100.99 141.986 100.92 140.077C100.849 138.167 101.202 136.4 104.597 134.278C107.991 132.157 108.132 133.288 108.698 134.137C109.263 134.985 109.405 134.844 115.345 131.733C121.284 128.622 145.467 114.479 148.579 112.499C151.761 110.449 150.983 110.52 147.377 105.216C149.427 108.54 153.458 111.58 147.306 115.894C141.154 120.207 109.263 137.672 104.243 139.723Z" fill="#94999A"/>
<path d="M148.436 116.035C153.456 112.853 152.89 110.025 151.547 106.277C151.123 105.004 148.365 105.499 149.638 107.621C152.82 113.065 148.436 116.035 148.436 116.035Z" fill="#C1C4C5"/>
<path d="M147.375 107.621C149.284 110.096 152.254 111.934 147.375 114.833C141.718 118.227 122.838 129.329 110.252 135.976C106.646 137.885 110.535 133.854 105.302 136.4C100.07 138.945 98.3018 143.4 107.918 138.733C117.535 134.066 134.859 124.096 148.365 115.965C155.224 111.793 149.638 107.479 147.375 105.216C145.042 102.883 147.375 107.621 147.375 107.621Z" fill="#ADB1B3"/>
<path d="M23.8444 161.431C22.4302 162.138 20.9453 162.068 20.5917 161.431C20.3089 160.724 21.2281 159.663 22.6423 158.956L23.8444 161.431Z" fill="#636363"/>
<path d="M36.0773 159.947C33.8853 160.724 30.9154 161.714 27.7335 161.926C24.1979 162.209 23.2787 162.139 22.5716 160.442C21.7938 158.815 22.3594 158.108 24.7636 155.562C26.9556 153.229 29.5012 151.673 31.6225 150.401L36.0773 159.947Z" fill="#3D81A3"/>
<path d="M87.4829 130.036C86.3515 127.773 84.3009 123.036 84.0181 120.914C72.3508 126.359 37.349 143.118 28.0152 151.886C27.3788 153.653 26.601 155.421 27.8738 157.967C29.0759 160.583 30.9851 161.078 32.6114 161.714C45.4101 160.23 80.624 143.966 92.2205 138.592C90.7356 136.966 88.4021 132.37 87.4829 130.036Z" fill="#D3D3D3"/>
<path d="M82.604 132.369C80.6948 128.198 78.5735 121.409 82.8161 119.429C96.6047 112.995 136.698 94.5393 151.971 92.7008C155.082 92.7008 156.638 95.2464 157.487 97.2263C158.477 99.2062 159.467 102.035 157.416 104.368C146.244 114.975 106.434 133.996 92.6449 140.43C88.3316 142.481 84.5132 136.541 82.604 132.369Z" fill="#3D81A3"/>
<path d="M157.91 101.469C157.061 101.893 155.576 100.55 154.586 98.5697C153.667 96.519 153.526 94.5391 154.445 94.1856C155.294 93.7613 156.779 95.1048 157.768 97.0847C158.758 99.0646 158.829 101.115 157.91 101.469Z" fill="#5FA5C1"/>
<path d="M121.498 183.988C121.498 183.988 78.5061 180.169 74.4049 179.321C69.3844 178.26 64.2226 172.674 60.0506 168.926C52.8381 162.28 42.3022 154.148 42.3022 154.148C42.3022 154.148 39.0496 149.622 43.1508 144.814C45.9792 141.561 51.0704 140.147 55.2423 141.208C63.374 143.259 71.8593 151.461 77.4455 152.946C88.9006 155.916 111.387 148.703 111.387 148.703L121.498 183.988Z" fill="#FFD2A2"/>
<path d="M48.1706 157.613C48.1706 157.613 44.1401 154.431 42.9381 152.946C41.4531 151.178 42.7966 145.309 48.3121 143.895C50.7162 143.329 57.6459 146.158 56.7266 147.784C54.9589 150.966 52.979 153.936 51.7769 156.976C51.1405 158.603 49.5849 158.744 48.1706 157.613Z" fill="#FFEAD9"/>
<path opacity="0.54" d="M194.116 182.503C179.055 170.411 170.569 169.846 161.306 170.199C151.973 170.482 145.326 174.159 135.426 177.412C127.365 180.099 107.142 181.513 97.8789 182.008C106.293 182.786 118.314 183.776 129.345 184.624C144.972 185.826 154.589 181.018 162.155 180.099C169.721 179.179 182.944 184.624 193.197 193.039C203.45 201.453 282.929 275.558 282.929 275.558L295.162 263.184C273.948 246.213 206.773 192.614 194.116 182.503Z" fill="#E5B080"/>
<path d="M428.5 431.501L245.098 248.193C245.098 248.193 241.987 224.01 259.877 198.908C274.019 179.109 285.262 182.291 285.262 182.291L443 281.001L428.5 431.501Z" fill="#D5EDF7"/>
<path opacity="0.25" d="M251.534 213.474C243.119 232.495 245.099 248.052 245.099 248.052L297.849 305.044L328.608 274.285C304.567 255.759 273.595 232.99 251.534 213.474Z" fill="#EDEDED"/>
<path opacity="0.54" d="M66.7671 165.603C66.8378 164.401 60.4739 161.148 57.9283 159.593C52.5543 156.199 47.1096 154.007 43.6447 148.138C42.9376 146.865 43.1498 145.804 42.8669 145.239C39.19 149.905 42.2305 154.219 42.2305 154.219C42.2305 154.219 52.7664 162.351 59.9789 168.997C64.0801 172.816 69.3127 178.331 74.3332 179.392C75.5353 179.604 79.9193 180.17 85.5055 180.665C78.5051 178.897 66.2014 176.21 66.7671 165.603Z" fill="#E5B080"/>
<path d="M280.595 286.519C276.565 272.871 276.565 253.355 289.505 234.617C300.465 218.707 313.334 208.949 325.779 206.545L285.262 182.291C285.262 182.291 274.019 179.109 259.877 198.908C242.058 223.94 245.099 248.193 245.099 248.193L280.595 286.519Z" fill="#CCCCCC"/>
<path d="M238.805 246.001C238.805 246.001 234.987 216.868 252.877 191.766C267.019 171.967 278.262 175.149 278.262 175.149C278.262 175.149 310.576 183.422 331.083 190.211C312.698 199.12 298.061 206.262 285.333 230.303C272.605 254.345 270.271 268.982 271.615 288.286C251.745 266.154 238.805 246.001 238.805 246.001Z" fill="white"/>
<path d="M264.261 257.315C265.958 260.285 265.888 263.467 264.12 264.528C262.352 265.588 259.524 264.033 257.756 261.133C256.059 258.164 256.13 254.982 257.897 253.921C259.736 252.931 262.564 254.487 264.261 257.315Z" fill="#CCCCCC"/>
<path d="M256.694 253.284C258.462 252.224 261.29 253.779 263.058 256.678C264.755 259.648 264.684 262.83 262.917 263.891L261.573 264.386C259.805 265.447 256.977 263.891 255.209 260.992C253.512 258.022 253.583 254.84 255.351 253.779L256.694 253.284Z" fill="#DDDDDD"/>
<path d="M261.644 257.244C263.341 260.214 263.271 263.396 261.503 264.457C259.735 265.517 256.907 263.962 255.139 261.063C253.442 258.093 253.512 254.911 255.28 253.85C257.189 252.789 260.018 254.345 261.644 257.244Z" fill="#F4F4F4"/>
<path d="M256.555 257.951C256.908 258.446 257.474 258.729 257.686 258.517C258.04 258.305 257.898 257.739 257.545 257.244C257.191 256.749 256.626 256.466 256.413 256.678C256.131 256.82 256.201 257.456 256.555 257.951Z" fill="#DDDDDD"/>
<path d="M258.602 261.134C258.955 261.629 259.521 261.912 259.733 261.7C260.087 261.487 259.945 260.922 259.592 260.427C259.238 259.932 258.672 259.649 258.46 259.861C258.177 260.002 258.319 260.568 258.602 261.134Z" fill="#DDDDDD"/>
</svg>
