<svg width="68" height="20" viewBox="0 0 68 20" fill="none" xmlns="http://www.w3.org/2000/svg">
<mask id="mask0_1_6" style="mask-type:alpha" maskUnits="userSpaceOnUse" x="37" y="0" width="31" height="20">
<rect x="37" width="31" height="20" fill="#D9D9D9"/>
</mask>
<g mask="url(#mask0_1_6)">
<path d="M48.2553 7H42.7021L39 13.5H48.2553M48.2553 7V13.5M48.2553 7C48.8723 6.5 48.8723 5.5 50.7234 5.5C52.5745 5.5 55.6596 2 58.1277 2M48.2553 13.5C48.2553 14 48.7489 15 50.7234 15C53.1915 15 55.6596 19 58.1277 19M58.1277 19C58.1277 14.5 58.1277 8.5 58.1277 2M58.1277 19H68M58.1277 2H68" stroke="black" stroke-width="1.3" stroke-linecap="square"/>
</g>
<path d="M5 6H37L32 15H0L5 6Z" fill="#FFED00"/>
</svg>
