<svg width="50" height="48" viewBox="0 0 50 48" fill="none" xmlns="http://www.w3.org/2000/svg">
<path d="M31.2572 26.2183C30.6503 25.5824 30.3486 24.7767 29.8604 24.0746C29.7731 23.9492 29.7012 23.8148 29.6223 23.6844C29.7632 23.6486 29.9265 23.685 30.0421 23.5694C30.1907 23.5365 30.2603 23.4143 30.3622 23.3281C30.7985 24.0579 31.2347 24.7876 31.671 25.5173C31.6964 25.5601 31.7406 25.5638 31.7875 25.5563C31.8124 25.6369 31.8372 25.7168 31.8621 25.7973C31.7407 25.867 31.7222 25.9757 31.7277 26.0935C31.5712 26.1355 31.4139 26.177 31.2572 26.2183Z" fill="#DDE0E0"/>
<path d="M8.28489 13.4447C9.07899 13.8618 9.82861 14.343 10.5965 14.7977C12.7876 16.0961 14.972 17.4046 17.1598 18.7073C17.7367 19.0507 18.3182 19.3894 18.8972 19.7302C19.4586 20.0846 20.0243 20.4338 20.6151 20.7463C21.1883 21.0949 21.7582 21.4478 22.3346 21.792C24.4515 23.0563 26.5712 24.317 28.6894 25.5803C28.7117 25.5939 28.7304 25.6127 28.7506 25.629C23.7596 26.9458 18.768 28.2628 13.777 29.5797C13.7071 29.5981 13.6381 29.6171 13.5678 29.6342C13.3951 29.6777 13.2878 29.6168 13.24 29.46C13.2157 29.3793 13.1903 29.2995 13.1653 29.219C13.5947 29.1057 13.7419 28.9581 13.6773 28.7054C13.6108 28.4469 13.3778 28.3808 12.9414 28.496C12.8618 28.2388 12.7822 27.9817 12.7026 27.7246C12.9452 27.6606 13.1893 27.6011 13.4301 27.5312C13.6743 27.4599 13.7906 27.2786 13.7378 27.0737C13.684 26.8634 13.4645 26.7505 13.2072 26.8114C12.9626 26.869 12.7215 26.9382 12.4788 27.0022C12.3992 26.7451 12.3196 26.488 12.24 26.2309C12.3183 26.2102 12.3987 26.1939 12.4745 26.1676C12.6872 26.0947 12.8102 25.8762 12.7276 25.6805C12.6459 25.4874 12.4818 25.3996 12.2514 25.4471C12.1717 25.4633 12.0944 25.4872 12.0161 25.5078C11.9364 25.2507 11.8568 24.9936 11.7772 24.7365C12.2303 24.6169 12.3252 24.5152 12.2446 24.2354C12.1595 23.9386 12.0143 23.8925 11.5533 24.0135C11.4737 23.7563 11.394 23.4992 11.3144 23.2421C11.5571 23.1781 11.8011 23.1186 12.042 23.0487C12.2861 22.9773 12.4027 22.7967 12.3496 22.5912C12.2958 22.3809 12.0763 22.268 11.8191 22.3289C11.5744 22.3865 11.3334 22.4557 11.0907 22.5197C11.0111 22.2626 10.9315 22.0055 10.8518 21.7484C11.2777 21.636 11.4112 21.4711 11.3026 21.1938C11.2049 20.9442 11.0673 20.9101 10.6279 21.0253C10.5483 20.7682 10.4687 20.5111 10.389 20.254C10.7905 20.1481 10.9273 20.0011 10.8562 19.7522C10.7805 19.4857 10.5791 19.4217 10.1651 19.531C10.0855 19.2738 10.0059 19.0167 9.92627 18.7596C10.1703 18.6952 10.416 18.636 10.658 18.5651C10.9048 18.4923 10.9825 18.3499 10.9167 18.1205C10.8464 17.8762 10.6947 17.7845 10.4351 17.8453C10.1889 17.9026 9.94662 17.9728 9.70256 18.0372C9.62294 17.7801 9.54331 17.523 9.46299 17.266C9.82083 17.1709 10.0295 16.9507 9.97262 16.728C9.91467 16.4993 9.59235 16.3989 9.22382 16.4962C8.91151 15.4779 8.5982 14.4613 8.28489 13.4447ZM13.8462 23.2175C14.1719 24.2692 14.4975 25.3208 14.8232 26.3725C14.9238 26.6973 14.9429 26.7076 15.296 26.6144C17.2571 26.0977 19.217 25.5799 21.1779 25.0625C21.2387 25.0465 21.3037 25.0363 21.359 25.0098C21.5182 24.9351 21.5463 24.8329 21.4056 24.718C21.3448 24.6685 21.2722 24.6319 21.2037 24.5914C18.543 23.005 15.8822 21.4186 13.2211 19.8337C13.1182 19.7723 13.0135 19.6689 12.8806 19.7625C12.7572 19.8501 12.8409 19.964 12.8707 20.0627C13.1941 21.1143 13.5205 22.1658 13.8462 23.2175Z" fill="#B6E446"/>
<path d="M13.1684 29.2209C13.1933 29.3015 13.2188 29.3812 13.243 29.4619C13.2901 29.6189 13.3982 29.6796 13.5708 29.6361C13.6409 29.6183 13.7102 29.6001 13.7801 29.5816C18.771 28.2648 23.7627 26.9477 28.7536 25.6309C28.9692 25.7406 29.0038 25.9281 28.9769 26.1247C28.9491 26.3231 28.8164 26.4564 28.6055 26.5155C28.5451 26.5328 28.4844 26.5495 28.4229 26.5658C23.42 27.8858 18.4172 29.2058 13.4144 30.5257C13.3619 30.5396 13.3099 30.5547 13.2573 30.5658C12.9093 30.6437 12.6649 30.5262 12.5597 30.2159C12.4733 29.9613 12.4035 29.7016 12.3268 29.4444C12.6061 29.3693 12.8873 29.2951 13.1684 29.2209Z" fill="#AAD541"/>
<path d="M20.1987 5.92489C20.3295 5.89315 20.4654 5.87264 20.5914 5.82755C21.353 5.55342 22.3562 6.12799 22.3409 7.08004C22.3296 7.75218 22.3016 8.42386 22.2828 9.09592C22.2803 9.17814 22.2922 9.26072 22.2973 9.34303C22.2868 9.37996 22.277 9.4167 22.2667 9.45427C21.5185 9.6517 20.7706 9.85042 20.0221 10.0472C19.6275 10.1506 19.415 10.0847 19.1886 9.7715C18.6498 9.02562 18.1213 8.27421 17.5787 7.53073C17.455 7.36119 17.365 7.16328 17.1684 7.04369C17.3184 6.77826 17.5675 6.63237 17.8689 6.54797C18.0151 6.50729 18.1599 6.46422 18.3056 6.4216C18.9365 6.25582 19.5675 6.09003 20.1987 5.92489ZM20.1897 9.1714C20.6289 9.05341 20.8857 8.62946 20.76 8.22837C20.6328 7.82276 20.1796 7.59521 19.7342 7.71274C19.2938 7.82962 19.0322 8.25763 19.1598 8.65476C19.2881 9.05448 19.7546 9.28829 20.1897 9.1714Z" fill="#F0F1F1"/>
<path d="M22.2637 9.45364C22.2742 9.41672 22.284 9.37998 22.2943 9.3424C22.5196 9.64963 22.7069 9.97593 22.8886 10.3065C22.9036 10.5479 22.701 10.6752 22.5518 10.8212C22.4255 10.9459 22.405 11.0628 22.4823 11.2049C22.5348 11.3011 22.5913 11.3957 22.649 11.4892C23.5597 12.979 24.4697 14.469 25.3809 15.958C26.5318 17.8375 27.6844 19.7152 28.836 21.5946C29.2386 22.2523 29.6392 22.9106 30.0413 23.5692C29.9265 23.6846 29.7625 23.6484 29.6215 23.6842C29.2446 23.647 29.0107 23.4459 28.8313 23.1475C27.9897 21.7517 27.1367 20.3623 26.2874 18.9706C26.2611 18.9274 26.2257 18.8886 26.1942 18.8481C26.0671 18.6356 25.9393 18.4233 25.8122 18.2107C25.6661 17.9733 25.5204 17.735 25.3743 17.4975C24.2488 15.6489 23.1196 13.8026 22 11.9511C21.7241 11.4948 21.4029 11.061 21.1946 10.5715C21.9265 10.414 22.2425 10.0838 22.2637 9.45364Z" fill="#D83926"/>
<path d="M30.04 23.5703C29.6388 22.9122 29.2381 22.2533 28.8347 21.5957C27.6833 19.717 26.5305 17.8387 25.3796 15.9591C24.4677 14.4703 23.5577 12.9803 22.6477 11.4903C22.5907 11.3966 22.5335 11.3023 22.481 11.206C22.4038 11.064 22.4241 10.9464 22.5506 10.8224C22.6996 10.6757 22.9022 10.5484 22.8874 10.3076C23.6189 11.4948 24.3525 12.6814 25.0807 13.8702C26.8273 16.7231 28.5685 19.5783 30.3196 22.4287C30.5074 22.7346 30.5306 23.022 30.3595 23.3292C30.2583 23.4152 30.1887 23.5374 30.04 23.5703Z" fill="#EE5329"/>
<path d="M20.6181 20.7475C20.0273 20.4349 19.4617 20.0864 18.9002 19.7313C18.8387 18.3262 18.7794 16.9206 18.7165 15.5158C18.6392 13.7859 18.5589 12.0561 18.48 10.3259C19.0626 10.9835 19.367 11.0796 20.1484 10.8525C20.1919 11.1247 20.1998 11.3994 20.1911 11.6742C20.0334 11.7123 19.8745 11.7877 19.7189 11.7814C19.413 11.768 19.3515 11.8944 19.3671 12.1426C19.4135 12.8957 19.4456 13.6491 19.48 14.4026C19.5478 15.9016 19.6135 17.401 19.6792 18.9005C19.6842 19.0191 19.6834 19.1559 19.7889 19.2229C20.0369 19.3812 20.2648 19.5748 20.5633 19.6571C20.5832 19.8728 20.6026 20.0893 20.6225 20.305C20.6206 20.4526 20.6193 20.6 20.6181 20.7475Z" fill="#D83926"/>
<path d="M20.1466 10.8526C19.3652 11.0797 19.0602 10.9838 18.4782 10.326C18.1486 9.86017 17.8165 9.39574 17.4907 8.92753C17.2972 8.64957 17.0607 8.3941 16.9704 8.06103C16.871 7.69343 16.917 7.35366 17.1654 7.04416C17.3618 7.16311 17.4519 7.36102 17.5755 7.53055C18.1181 8.27404 18.6468 9.0261 19.1854 9.77133C19.4118 10.0845 19.6245 10.1511 20.0189 10.047C20.7674 9.85024 21.5155 9.65217 22.2635 9.4541C22.2423 10.0843 21.9262 10.4144 21.1935 10.5715C20.8444 10.6657 20.4959 10.7591 20.1466 10.8526Z" fill="#DDE0E0"/>
<path d="M20.1964 5.92527C19.5654 6.09106 18.9342 6.2562 18.3033 6.42198C18.0161 5.50444 17.7163 4.59021 17.4494 3.66732C17.3471 3.31234 17.5808 3.10708 18.1202 2.9975C18.3436 3.7186 18.5711 4.43859 18.7888 5.16115C18.8504 5.36516 18.9672 5.43194 19.1885 5.36728C19.4471 5.29137 19.7097 5.22835 19.9706 5.15953C20.0583 5.41103 20.1562 5.66123 20.1964 5.92527Z" fill="#D83C2A"/>
<path d="M24.2172 19.3704C24.2683 19.5479 24.3237 19.7242 24.3698 19.9024C24.4829 20.341 24.2351 20.7179 23.7572 20.8384C23.3505 19.5251 22.9438 18.2118 22.5371 16.8985C23.0088 16.7678 23.4373 16.967 23.5924 17.3945C23.6553 17.5682 23.71 17.7448 23.7681 17.9204C23.9178 18.4038 24.0675 18.8871 24.2172 19.3704Z" fill="#EE5329"/>
<path d="M22.5414 16.9C22.9481 18.2133 23.3549 19.5266 23.7616 20.8399C23.3688 20.9296 22.9952 20.7737 22.832 20.4299C22.7349 20.2262 22.6729 20.009 22.5955 19.7981C22.4679 19.3103 22.3188 18.8289 22.1479 18.3526C22.0925 18.1275 22.018 17.9039 21.9853 17.6762C21.9339 17.3196 22.1693 17.01 22.5414 16.9Z" fill="#D83C2A"/>
<path d="M19.9716 5.15808C19.7107 5.22691 19.4474 5.29011 19.1895 5.36584C18.9684 5.43114 18.8516 5.36436 18.7898 5.15971C18.5714 4.43733 18.3445 3.71715 18.1212 2.99606C18.3114 2.94311 18.4989 2.88178 18.6915 2.83933C19.0035 2.76956 19.2773 2.90642 19.3685 3.19116C19.5764 3.84523 19.7709 4.50281 19.9716 5.15808Z" fill="#EE5329"/>
<path d="M8.28369 13.4439C8.597 14.4605 8.90941 15.4766 9.22272 16.4932C8.9423 16.5672 8.66168 16.6406 8.38126 16.7146C8.10047 15.8176 7.81969 14.9207 7.5394 14.023C7.47484 13.8169 7.53404 13.6417 7.71349 13.5079C7.88645 13.38 8.07466 13.3185 8.28369 13.4439Z" fill="#AAD541"/>
<path d="M24.2166 19.3706C24.0669 18.8873 23.9172 18.404 23.7676 17.9207C24.009 17.8576 24.2512 17.7944 24.4929 17.7321C24.5447 17.8996 24.6015 18.0659 24.6478 18.2349C24.7018 18.4312 24.8279 18.4843 25.0319 18.4249C25.2894 18.35 25.5499 18.2827 25.8095 18.2121C25.9366 18.4246 26.0643 18.637 26.1914 18.8495C25.5334 19.0231 24.8753 19.1968 24.2166 19.3706Z" fill="#DDE0E0"/>
<path d="M22.1443 18.3513C22.3153 18.8276 22.4644 19.309 22.5919 19.7967C21.9348 19.9659 21.2769 20.1353 20.6198 20.3045C20.5999 20.0888 20.5805 19.8723 20.5606 19.6566C20.5717 19.6362 20.5835 19.6157 20.5946 19.5953C20.8456 19.5291 21.0953 19.4583 21.3479 19.3972C21.5556 19.3473 21.6309 19.241 21.5645 19.0487C21.5077 18.8825 21.46 18.7138 21.4084 18.5469C21.6541 18.4807 21.8989 18.4161 22.1443 18.3513Z" fill="#DDE0E0"/>
<path d="M10.3934 20.2539C10.4731 20.511 10.5527 20.7681 10.6323 21.0252C10.3519 21.0992 10.0708 21.1734 9.79015 21.2467C9.71073 20.9903 9.6311 20.7331 9.55098 20.4768C9.8321 20.4027 10.1125 20.3287 10.3934 20.2539Z" fill="#AAD541"/>
<path d="M11.7821 24.7375C11.8617 24.9946 11.9414 25.2517 12.021 25.5089C11.7399 25.583 11.4594 25.657 11.1781 25.7306C11.0987 25.4741 11.0191 25.217 10.9397 24.9605C11.2208 24.8863 11.501 24.8117 11.7821 24.7375Z" fill="#AAD541"/>
<path d="M10.8505 21.7484C10.9301 22.0055 11.0097 22.2626 11.0893 22.5197C10.8089 22.5937 10.5285 22.6677 10.2472 22.7412C10.1676 22.4841 10.0874 22.2278 10.0078 21.9707C10.2891 21.8972 10.5694 21.8225 10.8505 21.7484Z" fill="#AAD541"/>
<path d="M9.46696 17.2641C9.54659 17.5212 9.62621 17.7783 9.70654 18.0352C9.42542 18.1094 9.1448 18.1827 8.86367 18.2569C8.78405 17.9998 8.70532 17.7431 8.6257 17.486C8.90632 17.4127 9.18654 17.338 9.46696 17.2641Z" fill="#AAD541"/>
<path d="M12.2438 26.2318C12.3234 26.4889 12.403 26.7461 12.4826 27.0032C12.2015 27.0774 11.9202 27.1509 11.6398 27.2249C11.5603 26.9684 11.4807 26.7113 11.4006 26.455C11.6815 26.3802 11.9626 26.306 12.2438 26.2318Z" fill="#AAD541"/>
<path d="M9.46666 17.2633C9.18624 17.3373 8.90601 17.412 8.62559 17.486C8.54597 17.2288 8.46634 16.9717 8.38672 16.7146C8.66714 16.6406 8.94776 16.5673 9.22818 16.4933C9.30761 16.7498 9.38703 17.0062 9.46666 17.2633Z" fill="#9EC53D"/>
<path d="M12.7066 27.7255C12.7863 27.9826 12.8659 28.2397 12.9455 28.4968C12.6644 28.571 12.3831 28.6445 12.102 28.7187C12.0225 28.4622 11.9429 28.2051 11.8635 27.9486C12.1444 27.8738 12.4255 27.7997 12.7066 27.7255Z" fill="#AAD541"/>
<path d="M9.92595 18.7594C10.0056 19.0165 10.0852 19.2737 10.1648 19.5308C9.8844 19.6048 9.60328 19.6789 9.32266 19.7523C9.24303 19.4952 9.16361 19.2387 9.08398 18.9816C9.36461 18.9082 9.64573 18.834 9.92595 18.7594Z" fill="#AAD541"/>
<path d="M11.3153 23.242C11.3949 23.4991 11.4746 23.7563 11.5542 24.0134C11.2738 24.0874 10.9927 24.1615 10.712 24.2349C10.6324 23.9778 10.5523 23.7215 10.4727 23.4644C10.754 23.3908 11.0342 23.3162 11.3153 23.242Z" fill="#AAD541"/>
<path d="M10.7097 24.2339C10.9901 24.16 11.2712 24.0858 11.5518 24.0124C11.6265 24.2534 11.7011 24.4945 11.7758 24.7355C11.4946 24.8096 11.2142 24.8836 10.9333 24.9584C10.8585 24.7168 10.7845 24.4756 10.7097 24.2339Z" fill="#9EC53D"/>
<path d="M9.92595 18.7576C9.64552 18.8316 9.3644 18.9058 9.08418 18.9804C9.00954 18.7394 8.93471 18.4978 8.85938 18.257C9.1405 18.1828 9.42112 18.1094 9.70224 18.0353C9.77667 18.2756 9.85131 18.5166 9.92595 18.7576Z" fill="#9EC53D"/>
<path d="M12.2433 26.2298C11.9621 26.304 11.6812 26.3788 11.4001 26.453C11.3253 26.2113 11.2513 25.9701 11.1765 25.7285C11.4576 25.6543 11.738 25.5803 12.0193 25.5068C12.094 25.7478 12.1686 25.9888 12.2433 26.2298Z" fill="#9EC53D"/>
<path d="M12.7042 27.7253C12.4231 27.7994 12.1421 27.8743 11.861 27.9484C11.7862 27.7068 11.7123 27.4656 11.6374 27.2239C11.9185 27.1498 12.1992 27.0764 12.4803 27.0022C12.5549 27.2433 12.6296 27.4843 12.7042 27.7253Z" fill="#9EC53D"/>
<path d="M11.3146 23.2412C11.0335 23.3153 10.7531 23.3893 10.4722 23.4641C10.3975 23.2231 10.3234 22.9813 10.2487 22.7403C10.5292 22.6663 10.8096 22.5923 11.0909 22.5188C11.1653 22.7592 11.24 23.0002 11.3146 23.2412Z" fill="#9EC53D"/>
<path d="M10.8537 21.7485C10.5726 21.8227 10.2921 21.8967 10.0112 21.9715C9.93658 21.7305 9.86174 21.4888 9.78711 21.2478C10.0675 21.1738 10.3487 21.0996 10.6293 21.0263C10.7044 21.2665 10.779 21.5075 10.8537 21.7485Z" fill="#9EC53D"/>
<path d="M12.0977 28.7178C12.3788 28.6436 12.6601 28.5701 12.9412 28.4959C13.0159 28.7369 13.0905 28.9779 13.1651 29.2189C12.884 29.2931 12.6038 29.3677 12.3227 29.4419C12.2471 29.2004 12.1723 28.9588 12.0977 28.7178Z" fill="#9EC53D"/>
<path d="M9.32687 19.7531C9.60729 19.6791 9.88841 19.605 10.169 19.5316C10.2437 19.7726 10.3183 20.0136 10.3929 20.2546C10.1118 20.3288 9.8314 20.4028 9.55048 20.4776C9.47564 20.236 9.40151 19.9941 9.32687 19.7531Z" fill="#9EC53D"/>
<path d="M11.3163 23.2428C11.2417 23.0018 11.167 22.7608 11.0924 22.5198C11.3351 22.4557 11.5761 22.3866 11.8208 22.329C12.078 22.2681 12.2968 22.3811 12.3513 22.5912C12.4044 22.7968 12.288 22.978 12.0437 23.0488C11.803 23.1193 11.559 23.1788 11.3163 23.2428Z" fill="#AAD541"/>
<path d="M12.7069 27.7246C12.6323 27.4836 12.5577 27.2426 12.483 27.0016C12.7257 26.9376 12.9667 26.8684 13.2114 26.8108C13.4686 26.7499 13.6882 26.8628 13.7419 27.073C13.795 27.2786 13.678 27.46 13.4343 27.5306C13.1936 27.6011 12.9496 27.6606 12.7069 27.7246Z" fill="#AAD541"/>
<path d="M9.92373 18.7593C9.84909 18.5183 9.77446 18.2773 9.69982 18.0363C9.94388 17.9719 10.1863 17.9023 10.4324 17.8444C10.6928 17.784 10.8443 17.8751 10.914 18.1195C10.9797 18.3489 10.9021 18.4914 10.6553 18.5642C10.4136 18.6363 10.1678 18.6949 9.92373 18.7593Z" fill="#AAD541"/>
<path d="M9.46504 17.2637C9.38541 17.0066 9.30599 16.7501 9.22656 16.4937C9.5944 16.3966 9.91741 16.4968 9.97537 16.7255C10.0308 16.9485 9.82218 17.1688 9.46504 17.2637Z" fill="#AAD541"/>
<path d="M13.1673 29.2199C13.0926 28.9788 13.018 28.7378 12.9434 28.4968C13.3797 28.3817 13.613 28.4484 13.6792 28.7063C13.7438 28.959 13.5966 29.1066 13.1673 29.2199Z" fill="#AAD541"/>
<path d="M12.2399 26.2291C12.1652 25.9881 12.0906 25.7471 12.016 25.5061C12.0943 25.4855 12.1716 25.4616 12.2513 25.4454C12.4817 25.3979 12.6458 25.4856 12.7275 25.6788C12.8101 25.8745 12.6869 26.0924 12.4744 26.1659C12.3984 26.1915 12.3182 26.2085 12.2399 26.2291Z" fill="#AAD541"/>
<path d="M11.7786 24.7363C11.704 24.4953 11.6293 24.2543 11.5547 24.0133C12.0162 23.8915 12.1609 23.9384 12.246 24.2352C12.3266 24.5151 12.2317 24.6168 11.7786 24.7363Z" fill="#AAD541"/>
<path d="M10.8548 21.749C10.7801 21.508 10.7055 21.267 10.6309 21.026C11.07 20.9101 11.2079 20.9449 11.3056 21.1944C11.4144 21.4724 11.2806 21.6367 10.8548 21.749Z" fill="#AAD541"/>
<path d="M10.3938 20.2527C10.3192 20.0117 10.2446 19.7707 10.1699 19.5297C10.5839 19.4204 10.7855 19.4851 10.861 19.7509C10.9322 20.0005 10.7952 20.1468 10.3938 20.2527Z" fill="#AAD541"/>
<path d="M20.1898 9.17232C19.7548 9.2892 19.2881 9.05475 19.1599 8.65568C19.0324 8.25854 19.2933 7.83072 19.7343 7.71365C20.1796 7.59548 20.633 7.82367 20.7601 8.22928C20.8859 8.63038 20.6293 9.05497 20.1898 9.17232Z" fill="#EE5329"/>
<path d="M24.4948 17.7308C24.7876 17.6529 25.0806 17.5756 25.3734 17.4976C25.5196 17.7351 25.6653 17.9734 25.8114 18.2109C25.5526 18.2812 25.2918 18.348 25.0346 18.4235C24.8299 18.4831 24.7044 18.4297 24.6505 18.2335C24.6028 18.0648 24.5467 17.8984 24.4948 17.7308Z" fill="#F0F1F1"/>
<path d="M20.1923 11.6738C20.2439 12.6563 20.2999 13.6383 20.3469 14.6206C20.4103 15.9367 20.4677 17.253 20.529 18.5696C20.5321 18.6357 20.5466 18.7022 20.5557 18.7682C20.546 19.0447 20.5552 19.3211 20.5984 19.5948C20.5873 19.6151 20.5755 19.6357 20.5644 19.656C20.2658 19.5738 20.0379 19.3802 19.79 19.2218C19.6852 19.1547 19.6859 19.0179 19.6803 18.8995C19.6146 17.4 19.5491 15.9012 19.4811 14.4016C19.4467 13.6481 19.4151 12.8938 19.3682 12.1415C19.3526 11.8933 19.4149 11.7674 19.72 11.7803C19.8757 11.7873 20.0347 11.7119 20.1923 11.6738Z" fill="#EE5329"/>
<path d="M20.5953 19.5957C20.552 19.3214 20.543 19.0456 20.5527 18.7691C20.8384 18.6951 21.1241 18.6212 21.4098 18.5472C21.4617 18.7147 21.5087 18.8835 21.566 19.049C21.6323 19.2413 21.5564 19.3478 21.3494 19.3975C21.0958 19.4581 20.8462 19.5289 20.5953 19.5957Z" fill="#F0F1F1"/>
<path d="M41.3993 11.1782C42.3563 11.5056 43.3149 11.8305 44.2705 12.1614C44.579 12.2682 44.7197 12.5668 44.6131 12.8567C44.5971 12.9005 44.5788 12.9432 44.5614 12.9866C42.5578 17.9619 40.554 22.9376 38.5499 27.9128C38.5216 27.983 38.4891 28.0519 38.4586 28.1209C38.3829 28.0934 38.3075 28.0651 38.2312 28.0389C37.2869 27.7145 36.3423 27.3908 35.3981 27.0664C35.142 26.9785 35.0869 26.8638 35.1822 26.6244C35.1953 26.5919 35.2087 26.5599 35.2218 26.5274L35.2224 26.5271C35.5042 26.6233 35.7849 26.7206 36.0673 26.815C36.2467 26.8751 36.4202 26.8156 36.4776 26.6783C36.5372 26.5358 36.4545 26.3963 36.2655 26.3295C35.985 26.2303 35.7036 26.1347 35.4224 26.0373L35.4215 26.0355C35.4903 25.866 35.5588 25.6959 35.6276 25.5265L35.631 25.5247C35.7895 25.5781 35.9479 25.6319 36.1066 25.6849C36.3179 25.7549 36.4293 25.7151 36.4981 25.5457C36.5585 25.397 36.4842 25.2649 36.2965 25.196C36.1395 25.1387 35.9805 25.0866 35.8218 25.0322C35.8874 24.8705 35.9531 24.7088 36.0187 24.5472L36.0194 24.5469C36.4117 24.681 36.8039 24.8156 37.1966 24.9489C37.4083 25.0205 37.5778 24.9671 37.6333 24.8133C37.6867 24.6647 37.5985 24.5337 37.3945 24.4627C37.0029 24.3269 36.6107 24.1923 36.2188 24.0569L36.2183 24.0557C36.2823 23.894 36.3464 23.7323 36.4104 23.5706C36.574 23.6262 36.7344 23.6896 36.9008 23.7354C37.1051 23.7921 37.2371 23.7278 37.2976 23.5604C37.3522 23.4103 37.278 23.2831 37.0904 23.2153C36.9342 23.1587 36.7763 23.1065 36.619 23.0525C36.6851 22.891 36.7506 22.7298 36.8167 22.5683L36.8173 22.568C37.0991 22.6642 37.3804 22.7612 37.6628 22.8557C37.8537 22.9192 38.0146 22.8643 38.0709 22.7206C38.1253 22.5828 38.0357 22.4315 37.8577 22.369C37.5771 22.2702 37.2952 22.1745 37.0138 22.0775L37.0135 22.0769C37.0782 21.9149 37.1429 21.7529 37.2072 21.5908C37.3587 21.6428 37.51 21.6957 37.6618 21.7458C37.8666 21.8136 38.013 21.7665 38.0805 21.6149C38.1553 21.4465 38.0936 21.3177 37.8863 21.2362C37.7324 21.1755 37.5725 21.1266 37.4153 21.0726C37.4817 20.9117 37.5476 20.7506 37.614 20.5897L37.6153 20.5892C38.0201 20.7271 38.4249 20.865 38.8295 21.0033C38.9001 21.0275 38.9678 21.0537 39.0456 21.0187C39.1531 20.9701 39.2382 20.9065 39.239 20.7873C39.24 20.6504 39.1635 20.5624 39.0239 20.515C38.6192 20.3771 38.2153 20.2371 37.811 20.0979L37.8106 20.0977C37.8753 19.9357 37.9403 19.7743 38.005 19.6123C38.1751 19.6702 38.3434 19.7339 38.5159 19.7847C38.6863 19.8352 38.8357 19.7611 38.8863 19.614C38.94 19.4581 38.8851 19.3628 38.6985 19.2953C38.5352 19.2363 38.3712 19.1805 38.2073 19.1233L38.2061 19.1209C38.2746 18.9508 38.3429 18.7812 38.4109 18.611L38.4128 18.6102C38.6999 18.7077 38.987 18.8052 39.2739 18.9031C39.3445 18.9273 39.4126 18.9552 39.4893 18.9178C39.5858 18.8709 39.6792 18.8215 39.6694 18.7021C39.6585 18.5655 39.5945 18.4596 39.4489 18.4086C39.1683 18.3109 38.8876 18.2151 38.6067 18.1182C38.6717 17.9568 38.7367 17.7954 38.8021 17.6342C38.9666 17.6901 39.1297 17.7495 39.2954 17.801C39.4708 17.8552 39.6209 17.7926 39.6766 17.6503C39.741 17.4862 39.6876 17.386 39.494 17.316C39.3307 17.2571 39.1665 17.2017 39.0025 17.1445L39.0017 17.1427C39.0704 16.9732 39.1389 16.8031 39.2077 16.6337L39.2109 16.6323C39.6148 16.7699 40.0191 16.9076 40.4229 17.0452C40.493 17.0693 40.5605 17.0959 40.6382 17.0613C40.7455 17.0132 40.832 16.95 40.8318 16.8309C40.8319 16.6843 40.7283 16.5994 40.5944 16.5515C40.1983 16.4106 39.7994 16.2767 39.4018 16.1398C39.4674 15.9781 39.533 15.8165 39.5987 15.6548L39.5993 15.6546C39.7742 15.714 39.9483 15.7767 40.1249 15.8319C40.2695 15.8771 40.4152 15.8095 40.4699 15.6802C40.5375 15.5217 40.4918 15.4117 40.3214 15.3478C40.1488 15.2826 39.9731 15.2253 39.7982 15.1648L39.7976 15.1636C39.8616 15.0019 39.9257 14.8402 39.9897 14.6785C40.2586 14.7707 40.5275 14.864 40.797 14.9545C40.9901 15.0192 41.2099 14.9485 41.2579 14.8094C41.3045 14.6738 41.1898 14.5021 41.0056 14.4379C40.7375 14.344 40.4676 14.2529 40.199 14.1602C40.2651 13.9987 40.3306 13.8375 40.3967 13.676L40.3973 13.6757C40.5613 13.7315 40.7255 13.7883 40.8902 13.8423C41.0643 13.8996 41.2104 13.8416 41.2693 13.6954C41.3281 13.5492 41.2584 13.4176 41.0856 13.3558C40.9226 13.2974 40.7579 13.2419 40.5943 13.1853L40.594 13.1847C40.6587 13.0227 40.7234 12.8607 40.7876 12.6986C41.1572 12.8254 41.5274 12.9504 41.8957 13.0793C41.9732 13.1063 42.0523 13.1281 42.1329 13.1197C42.2536 13.1073 42.3707 13.0759 42.4092 12.9498C42.4472 12.8236 42.392 12.7276 42.2797 12.654C42.208 12.6072 42.1329 12.5686 42.0499 12.5406C41.7086 12.426 41.3692 12.3081 41.029 12.1908C41.0531 12.1324 41.0806 12.0747 41.1004 12.0149C41.1959 11.7365 41.3636 11.4771 41.3993 11.1782Z" fill="#B3E2F4"/>
<path d="M35.2211 26.5277C35.208 26.5603 35.1946 26.5922 35.1815 26.6248C35.0864 26.8637 35.1415 26.9784 35.3974 27.0667C36.3417 27.3912 37.2863 27.7148 38.2305 28.0393C38.3068 28.0654 38.3822 28.0938 38.4579 28.1212C38.3259 28.5011 38.0302 28.6391 37.6322 28.5031C36.6757 28.1758 35.7195 27.8478 34.7641 27.519C34.3829 27.3877 34.2569 27.1297 34.3987 26.7764C34.4617 26.6198 34.5281 26.4643 34.5931 26.3083C34.8022 26.381 35.0117 26.4544 35.2211 26.5277Z" fill="#83D2EF"/>
<path d="M41.3973 11.1781C41.3614 11.4774 41.1939 11.7364 41.0988 12.0178C41.0785 12.0775 41.0516 12.1349 41.0274 12.1938C41.0145 12.1899 41.0019 12.1865 40.989 12.1826C40.7819 12.1115 40.5745 12.0409 40.3674 11.9698C40.4239 11.8228 40.4784 11.6756 40.5366 11.5296C40.6888 11.1503 40.9912 11.0274 41.3973 11.1781Z" fill="#83D2EF"/>
<path d="M39.2126 16.6334C39.1438 16.8029 39.0753 16.973 39.0065 17.1424C38.7947 17.0722 38.5831 17.0016 38.3715 16.931C38.4417 16.7566 38.5118 16.5826 38.582 16.4082C38.7922 16.4838 39.0022 16.5583 39.2126 16.6334Z" fill="#82D2EF"/>
<path d="M36.5813 21.3761C36.6508 21.2049 36.7196 21.0339 36.7891 20.8627C36.998 20.9334 37.2068 21.0045 37.4157 21.0752C37.3462 21.2479 37.2769 21.4212 37.2074 21.5938C36.9993 21.521 36.7907 21.4484 36.5813 21.3761Z" fill="#4EB9E8"/>
<path d="M39.3689 14.4624C39.4377 14.2915 39.5063 14.1199 39.5751 13.949C39.7845 14.0199 39.9934 14.0906 40.2028 14.1614C40.1333 14.3341 40.0636 14.5072 39.9936 14.6797C39.7855 14.6068 39.5773 14.5344 39.3689 14.4624Z" fill="#4EB9E8"/>
<path d="M38.412 18.612C38.3435 18.7821 38.2752 18.9517 38.2072 19.1219C37.995 19.0516 37.7832 18.9814 37.5707 18.9115C37.641 18.737 37.7115 18.5632 37.7817 18.3888C37.9915 18.4628 38.2015 18.5373 38.412 18.612Z" fill="#82D2EF"/>
<path d="M35.7849 23.3549C35.8539 23.1835 35.9223 23.0124 35.9913 22.841C36.2007 22.9119 36.4101 22.9827 36.6193 23.054C36.5498 23.2267 36.48 23.3998 36.4105 23.5725C36.2018 23.4999 35.9931 23.4273 35.7849 23.3549Z" fill="#4EB9E8"/>
<path d="M35.6286 25.5276C35.5598 25.6971 35.4913 25.8671 35.4225 26.0366C35.2109 25.966 34.9991 25.8958 34.788 25.8253C34.8582 25.6509 34.9278 25.4768 34.998 25.3024C35.2079 25.3773 35.4183 25.4525 35.6286 25.5276Z" fill="#82D2EF"/>
<path d="M40.3738 11.9687C40.581 12.0397 40.7883 12.1104 40.9954 12.1814C40.9275 12.3542 40.86 12.527 40.7921 12.6998C40.5834 12.6272 40.3747 12.5546 40.166 12.482C40.2353 12.3112 40.3048 12.14 40.3738 11.9687Z" fill="#4EB9E8"/>
<path d="M39.769 13.4566C39.8338 13.2956 39.8985 13.1351 39.9633 12.9741C40.1738 13.0449 40.3847 13.1158 40.5952 13.1865L40.5955 13.1871C40.5297 13.3507 40.4645 13.514 40.3988 13.6771L40.3981 13.6773C40.1884 13.6034 39.9789 13.5301 39.769 13.4566Z" fill="#4CB7E8"/>
<path d="M39.3705 14.4622C39.5787 14.5346 39.7869 14.607 39.9951 14.6795C39.9311 14.8412 39.867 15.0029 39.803 15.1646C39.5918 15.0941 39.3802 15.0235 39.1691 14.953C39.2362 14.7889 39.3032 14.6253 39.3705 14.4622Z" fill="#82D2EF"/>
<path d="M36.5839 21.3756C36.7926 21.4482 37.0013 21.5208 37.21 21.5934C37.1453 21.7554 37.0806 21.9174 37.0159 22.0794C36.8054 22.0086 36.5944 21.9377 36.3839 21.867C36.4511 21.7029 36.5176 21.539 36.5839 21.3756Z" fill="#82D2EF"/>
<path d="M36.3832 21.8647C36.5937 21.9355 36.8047 22.0064 37.0152 22.0771L37.0155 22.0777C36.9496 22.2413 36.8844 22.4046 36.8185 22.5681L36.8179 22.5684C36.6079 22.4949 36.3982 22.421 36.1887 22.3476C36.2537 22.1862 36.3185 22.0253 36.3832 21.8647Z" fill="#4CB7E8"/>
<path d="M39.1698 14.9531C39.3809 15.0236 39.5925 15.0942 39.8037 15.1647L39.8043 15.1658C39.7379 15.3292 39.6716 15.4926 39.6054 15.6556L39.6048 15.6559C39.3953 15.5825 39.1854 15.509 38.976 15.4357C39.0406 15.2752 39.1054 15.1142 39.1698 14.9531Z" fill="#4CB7E8"/>
<path d="M38.9727 15.4357C39.1821 15.509 39.3916 15.5824 39.6015 15.6559C39.5358 15.8175 39.4702 15.9792 39.4046 16.1409C39.1952 16.07 38.9858 15.9991 38.7764 15.9283C38.8422 15.7637 38.9077 15.5996 38.9727 15.4357Z" fill="#82D2EF"/>
<path d="M38.7772 15.9286C38.9866 15.9995 39.1959 16.0703 39.4053 16.1412C39.3413 16.3054 39.278 16.4693 39.214 16.6335L39.2108 16.6349C39.0004 16.5598 38.7904 16.4852 38.5801 16.4101C38.6458 16.2495 38.7114 16.0893 38.7772 15.9286Z" fill="#4CB7E8"/>
<path d="M36.1914 22.3484C36.4013 22.4219 36.6111 22.4958 36.8205 22.5692C36.7544 22.7307 36.689 22.8919 36.6229 23.0534C36.4135 22.9826 36.2041 22.9117 35.9949 22.8404C36.0604 22.6763 36.1258 22.5125 36.1914 22.3484Z" fill="#82D2EF"/>
<path d="M38.3688 16.9331C38.5804 17.0038 38.7922 17.074 39.0039 17.1446L39.0047 17.1464C38.9379 17.3096 38.8711 17.4729 38.8043 17.6361C38.5949 17.5627 38.3854 17.4894 38.176 17.416C38.2403 17.2549 38.3045 17.0942 38.3688 16.9331Z" fill="#4CB7E8"/>
<path d="M38.1758 17.416C38.3852 17.4894 38.5947 17.5627 38.8041 17.6361C38.7391 17.7974 38.6742 17.9588 38.6087 18.1201C38.3987 18.0495 38.1888 17.9785 37.9783 17.9077C38.0442 17.7442 38.1102 17.5802 38.1758 17.416Z" fill="#82D2EF"/>
<path d="M35.788 23.3536C35.9962 23.4261 36.2049 23.4986 36.4133 23.5706C36.3492 23.7324 36.2852 23.8941 36.2211 24.0558C36.01 23.9853 35.7988 23.9148 35.5874 23.8438C35.6542 23.6805 35.721 23.5173 35.788 23.3536Z" fill="#82D2EF"/>
<path d="M35.586 23.8451C35.7971 23.9156 36.0083 23.986 36.2197 24.0571L36.2203 24.0583C36.154 24.2217 36.0876 24.3851 36.0215 24.5481L36.0208 24.5483C35.8114 24.475 35.6014 24.4015 35.392 24.3281C35.4568 24.1672 35.5216 24.0062 35.586 23.8451Z" fill="#4CB7E8"/>
<path d="M37.9805 17.9075C38.1905 17.9781 38.4004 18.0491 38.6109 18.1199C38.5459 18.2837 38.4815 18.4478 38.417 18.6118C38.417 18.6118 38.4146 18.6125 38.4151 18.6126C38.2051 18.5381 37.9948 18.464 37.7848 18.3895C37.8494 18.2289 37.9147 18.0682 37.9805 17.9075Z" fill="#4CB7E8"/>
<path d="M35.3906 24.327C35.6001 24.4004 35.81 24.4739 36.0195 24.5472C35.9538 24.7089 35.8882 24.8706 35.8225 25.0322C35.6132 24.9614 35.4038 24.8905 35.1944 24.8197C35.2597 24.6549 35.3252 24.4907 35.3906 24.327Z" fill="#82D2EF"/>
<path d="M35.1971 24.8191C35.4065 24.89 35.6159 24.9608 35.8252 25.0317C35.7617 25.1961 35.6979 25.3598 35.6344 25.5242C35.6344 25.5242 35.6312 25.5256 35.631 25.526C35.4207 25.4509 35.2103 25.3757 35 25.3006C35.0657 25.14 35.1313 24.9798 35.1971 24.8191Z" fill="#4CB7E8"/>
<path d="M37.5734 18.9121C37.7856 18.9825 37.9974 19.0527 38.2099 19.1226C38.2099 19.1226 38.2115 19.1251 38.2111 19.125C38.1433 19.2879 38.076 19.4509 38.0085 19.6134C37.7998 19.5408 37.5913 19.4678 37.3821 19.3951C37.4463 19.2344 37.51 19.0735 37.5734 18.9121Z" fill="#4CB7E8"/>
<path d="M37.3803 19.3951C37.589 19.4677 37.7975 19.5408 38.0067 19.6135C37.942 19.7755 37.877 19.9369 37.8123 20.0989C37.6018 20.0281 37.3913 19.9574 37.181 19.8862C37.2473 19.7228 37.3138 19.559 37.3803 19.3951Z" fill="#82D2EF"/>
<path d="M37.1807 19.8868C37.3912 19.9576 37.6017 20.0283 37.812 20.0995L37.8125 20.0996C37.7476 20.2635 37.6822 20.4272 37.6173 20.5911L37.616 20.5917C37.4058 20.5176 37.196 20.4436 36.986 20.3691C37.0508 20.2081 37.1159 20.0478 37.1807 19.8868Z" fill="#4CB7E8"/>
<path d="M34.7887 25.8246C35.0004 25.8952 35.2122 25.9654 35.4233 26.0359L35.4242 26.0377C35.3574 26.2009 35.2906 26.3642 35.2238 26.5274L35.2231 26.5277C35.0137 26.4543 34.8042 26.381 34.5946 26.3081C34.66 26.1468 34.7244 25.9857 34.7887 25.8246Z" fill="#4CB7E8"/>
<path d="M39.7695 13.4562C39.9795 13.5297 40.1887 13.6035 40.3987 13.677C40.3325 13.8385 40.2671 13.9997 40.201 14.1612C39.9916 14.0903 39.7827 14.0197 39.5733 13.9488C39.639 13.7842 39.704 13.6203 39.7695 13.4562Z" fill="#82D2EF"/>
<path d="M36.9863 20.368C37.1965 20.4421 37.4063 20.5161 37.6163 20.5906C37.5499 20.7515 37.484 20.9126 37.4176 21.0735C37.2087 21.0028 36.9999 20.9317 36.791 20.861C36.8561 20.6967 36.9212 20.5324 36.9863 20.368Z" fill="#82D2EF"/>
<path d="M40.5961 13.1866C40.3856 13.1159 40.1751 13.0451 39.9642 12.9742C40.0307 12.8104 40.0972 12.6465 40.164 12.4833C40.3727 12.5559 40.5814 12.6285 40.7901 12.7011C40.7255 12.8626 40.6608 13.0246 40.5961 13.1866Z" fill="#82D2EF"/>
<path d="M40.7899 12.7002C40.8578 12.5275 40.9253 12.3546 40.9933 12.1819C41.0057 12.1856 41.0187 12.1891 41.0316 12.1931C41.3715 12.3097 41.7112 12.4282 42.0525 12.5428C42.136 12.571 42.2112 12.6091 42.2823 12.6562C42.3941 12.7297 42.4499 12.8254 42.4118 12.952C42.3738 13.0782 42.2562 13.1095 42.1355 13.1219C42.0549 13.1303 41.9758 13.1086 41.8983 13.0815C41.5293 12.9519 41.159 12.8268 40.7899 12.7002Z" fill="#82D2EF"/>
<path d="M37.6173 20.591C37.6822 20.4271 37.7476 20.2634 37.8125 20.0995C38.2167 20.2387 38.6206 20.3787 39.0254 20.5166C39.1649 20.564 39.2415 20.652 39.2405 20.7889C39.2395 20.9086 39.155 20.9719 39.0471 21.0203C38.9692 21.0553 38.9015 21.0292 38.8309 21.0049C38.4268 20.8668 38.022 20.7289 37.6173 20.591Z" fill="#82D2EF"/>
<path d="M36.0213 24.5487C36.0877 24.3853 36.154 24.2219 36.2202 24.059C36.6122 24.194 37.0042 24.3289 37.3958 24.4648C37.6003 24.5359 37.6885 24.6669 37.6346 24.8153C37.5791 24.9691 37.4095 25.023 37.1979 24.9509C36.8059 24.8174 36.4137 24.6828 36.0213 24.5487Z" fill="#82D2EF"/>
<path d="M39.2127 16.6327C39.2767 16.4685 39.34 16.3046 39.404 16.1404C39.8018 16.2769 40.2007 16.4108 40.5966 16.552C40.7301 16.5998 40.8338 16.6843 40.834 16.8315C40.8338 16.9504 40.7477 17.0137 40.6405 17.0618C40.5628 17.0964 40.4953 17.0698 40.4251 17.0457C40.0208 16.908 39.6165 16.7703 39.2127 16.6327Z" fill="#83D2EF"/>
<path d="M39.9943 14.6797C40.0638 14.507 40.1335 14.3339 40.2035 14.1614C40.4723 14.2536 40.742 14.3452 41.0101 14.4391C41.1948 14.5035 41.3095 14.6752 41.2624 14.8106C41.2143 14.9501 40.9945 15.0209 40.8016 14.9557C40.5316 14.865 40.2631 14.7719 39.9943 14.6797Z" fill="#83D2EF"/>
<path d="M36.8206 22.5694C36.8863 22.4063 36.9517 22.2425 37.0176 22.079C37.2989 22.176 37.5808 22.2717 37.8615 22.3705C38.0394 22.433 38.1288 22.5837 38.0746 22.7221C38.0184 22.8658 37.857 22.9205 37.6666 22.8572C37.3837 22.7626 37.1023 22.6655 36.8206 22.5694Z" fill="#82D2EF"/>
<path d="M35.2262 26.5277C35.293 26.3644 35.3598 26.2012 35.4267 26.038C35.7078 26.1354 35.9893 26.231 36.2698 26.3302C36.4588 26.397 36.5416 26.536 36.4819 26.679C36.4244 26.8163 36.251 26.8758 36.0715 26.8157C35.7887 26.7211 35.5078 26.6243 35.2262 26.5277Z" fill="#82D2EF"/>
<path d="M38.4155 18.612C38.48 18.4479 38.5449 18.284 38.6094 18.12C38.8903 18.2169 39.171 18.3127 39.4516 18.4104C39.5974 18.461 39.6612 18.5673 39.6721 18.7039C39.6819 18.8233 39.5885 18.8727 39.492 18.9196C39.4153 18.957 39.3474 18.9287 39.2766 18.9049C38.9897 18.807 38.7026 18.7095 38.4155 18.612Z" fill="#82D2EF"/>
<path d="M37.209 21.5924C37.2785 21.4198 37.3478 21.2465 37.4173 21.0738C37.5745 21.1278 37.7342 21.1771 37.8883 21.2374C38.0956 21.3189 38.1573 21.4477 38.0825 21.6161C38.0153 21.7684 37.8684 21.8152 37.6638 21.747C37.5114 21.6972 37.3601 21.6443 37.209 21.5924Z" fill="#83D2EF"/>
<path d="M36.4121 23.5715C36.4816 23.3988 36.5513 23.2257 36.6209 23.0531C36.7781 23.107 36.9361 23.1592 37.0923 23.2158C37.2798 23.2836 37.354 23.4108 37.2994 23.5609C37.2383 23.7286 37.1065 23.7925 36.9026 23.7359C36.7362 23.6901 36.5752 23.627 36.4121 23.5715Z" fill="#83D2EF"/>
<path d="M39.5994 15.6555C39.6657 15.4921 39.7321 15.3287 39.7982 15.1658C39.9726 15.2266 40.1489 15.2836 40.3215 15.3487C40.4917 15.4131 40.5371 15.5225 40.47 15.6812C40.4153 15.8105 40.2696 15.8781 40.1249 15.8329C39.9479 15.7775 39.7742 15.715 39.5994 15.6555Z" fill="#82D2EF"/>
<path d="M38.8063 17.6345C38.8731 17.4712 38.9399 17.308 39.0067 17.1448C39.1707 17.202 39.3354 17.2575 39.4981 17.3163C39.6918 17.3863 39.7452 17.4865 39.6808 17.6506C39.6249 17.7934 39.475 17.8555 39.2996 17.8013C39.1339 17.7498 38.9708 17.6904 38.8063 17.6345Z" fill="#82D2EF"/>
<path d="M35.6351 25.5259C35.6986 25.3615 35.7624 25.1978 35.8259 25.0334C35.9841 25.0877 36.1435 25.1404 36.3006 25.1973C36.4885 25.2657 36.5631 25.3984 36.5022 25.5469C36.4336 25.7159 36.322 25.7562 36.1107 25.6861C35.9525 25.6333 35.7936 25.5793 35.6351 25.5259Z" fill="#82D2EF"/>
<path d="M38.0057 19.6135C38.0734 19.4506 38.1407 19.2875 38.2083 19.1251C38.3723 19.1823 38.5367 19.2383 38.6997 19.2966C38.8863 19.3641 38.9412 19.4595 38.8875 19.6154C38.8367 19.7629 38.687 19.8364 38.5171 19.786C38.3442 19.7351 38.1757 19.6718 38.0057 19.6135Z" fill="#83D2EF"/>
<path d="M40.4009 13.6775C40.4666 13.5143 40.532 13.3506 40.5977 13.1875C40.7613 13.2441 40.926 13.2997 41.0889 13.358C41.2618 13.4198 41.3317 13.551 41.2726 13.6976C41.2138 13.8438 41.0677 13.9018 40.8936 13.8445C40.729 13.7901 40.5655 13.733 40.4009 13.6775Z" fill="#82D2EF"/>
<path d="M29.9318 12.1291C30.0169 12.1179 30.1015 12.1067 30.1866 12.0955C30.4393 12.1217 30.6819 12.0897 30.9144 11.9995C30.9752 11.9915 31.0355 11.9835 31.0962 11.9755C31.1462 12.2486 31.1576 12.5234 31.1706 12.7985C31.181 13.0183 31.3169 13.1653 31.504 13.1626C31.7391 13.1589 31.8526 13.0283 31.8327 12.7907C31.8104 12.5222 31.7916 12.2533 31.7713 11.985C32.1573 11.9741 32.543 11.9843 32.9287 12.0286C32.9246 12.0936 32.9191 12.1592 32.916 12.2246C32.9047 12.474 32.8395 12.7199 32.8709 12.972C32.8943 13.1613 33.0092 13.2613 33.1912 13.2612C33.3638 13.2614 33.4721 13.1519 33.4932 13.0046C33.5372 12.7055 33.5499 12.4006 33.5754 12.098C33.9644 12.1644 34.3519 12.2363 34.7334 12.3426C34.6664 12.5892 34.5979 12.836 34.5319 13.0834C34.4683 13.3237 34.5652 13.5008 34.7836 13.5471C34.95 13.5828 35.1022 13.4856 35.1603 13.2905C35.235 13.0395 35.2988 12.7855 35.3678 12.5328C35.7349 12.6508 36.0962 12.7838 36.4417 12.9574C36.4545 13.0538 36.3997 13.1274 36.3611 13.2062C36.2752 13.3811 36.1816 13.5526 36.1027 13.7309C36.0288 13.8979 36.0976 14.088 36.2479 14.1687C36.374 14.236 36.589 14.2023 36.6562 14.0768C36.8002 13.8068 36.9549 13.5409 37.0495 13.2467C37.3952 13.4355 37.7418 13.6216 38.0555 13.8609C38.0521 13.9444 37.9985 14.0022 37.9525 14.0639C37.7259 14.3686 37.4955 14.6709 37.2735 14.979C37.13 15.178 37.213 15.4121 37.4457 15.4859C37.6257 15.5432 37.7405 15.4426 37.833 15.3225C38.0715 15.0119 38.3025 14.6958 38.5364 14.3818C38.5687 14.3385 38.5983 14.2946 38.5984 14.2374C38.8147 14.392 39.0323 14.5453 39.2476 14.702C39.3438 14.7722 39.419 14.8614 39.4713 14.9678C39.621 15.2741 39.5383 15.5335 39.3498 15.7854C35.6272 20.7788 31.9073 25.7738 28.1869 30.7689C28.1587 30.8068 28.1307 30.8461 28.0997 30.882C27.8471 31.1774 27.4444 31.2266 27.1103 30.9954C26.8915 30.8441 26.6811 30.681 26.4667 30.5233C26.4876 30.5118 26.5154 30.5056 26.5288 30.4883C26.7962 30.1327 27.0705 29.7822 27.3245 29.4177C27.4471 29.2419 27.3919 29.07 27.2222 28.9665C27.0641 28.8697 26.9023 28.9032 26.7777 29.0676C26.5519 29.3654 26.3307 29.6664 26.1068 29.9659C26.0607 30.0272 26.0213 30.0954 25.9412 30.1235C25.6154 29.8999 25.332 29.6288 25.0474 29.3593C25.3074 29.1869 25.5184 28.9613 25.7312 28.7409C25.8315 28.6369 25.808 28.4901 25.7327 28.3717C25.6622 28.2609 25.5477 28.2257 25.4104 28.2458C25.2916 28.2634 25.22 28.3348 25.1381 28.4042C24.9539 28.5608 24.8122 28.764 24.5867 28.8748C24.3156 28.5996 24.0791 28.2974 23.8535 27.9869C24.0974 27.8337 24.3427 27.6822 24.5841 27.5259C24.7052 27.4474 24.7282 27.3282 24.6929 27.1932C24.6623 27.0777 24.5896 26.9969 24.4689 26.9719C24.3425 26.9456 24.2279 26.9758 24.1215 27.045C23.91 27.1818 23.6946 27.3132 23.4811 27.4468C23.2645 27.119 23.0799 26.7748 22.8993 26.4286C23.1893 26.3259 23.4762 26.2163 23.7489 26.0773C23.8723 26.0147 23.9319 25.9024 23.9127 25.7663C23.8951 25.6451 23.8113 25.5551 23.6951 25.5128C23.5724 25.468 23.4552 25.5093 23.3419 25.5555C23.1084 25.6512 22.8736 25.7452 22.6393 25.8395C22.4828 25.4887 22.3557 25.1291 22.2521 24.762C22.505 24.7032 22.757 24.6392 23.0114 24.5866C23.2547 24.536 23.3699 24.3861 23.314 24.1728C23.2634 23.9788 23.0743 23.8954 22.8395 23.9581C22.5772 24.0284 22.3139 24.0958 22.0416 24.1288C22.0291 24.0572 22.0168 23.9861 22.0043 23.9145C22.0219 23.6808 21.9845 23.4543 21.8864 23.2359C21.8719 23.1524 21.8575 23.0694 21.8429 22.9858C22.1653 22.9775 22.4879 22.9769 22.8088 22.9575C22.9776 22.947 23.1004 22.7721 23.0788 22.6139C23.0573 22.4527 22.9051 22.3209 22.7283 22.3252C22.4301 22.3323 22.1325 22.3482 21.8347 22.3606C21.8189 21.9834 21.8181 21.6066 21.8443 21.2307C22.1091 21.2236 22.3715 21.2739 22.6315 21.3163C22.8558 21.3531 23.0299 21.2134 23.0478 21.0246C23.0644 20.854 22.9377 20.7228 22.71 20.6864C22.443 20.6436 22.1752 20.6081 21.9079 20.5697C21.9524 20.1933 22.0351 19.8245 22.1132 19.4554C22.3839 19.5393 22.6534 19.6278 22.9255 19.7056C23.1086 19.7576 23.2714 19.6639 23.324 19.4915C23.3736 19.3277 23.2899 19.1752 23.1023 19.1116C22.828 19.0184 22.5555 18.9187 22.2694 18.8666C22.2925 18.8133 22.3172 18.7607 22.3376 18.7063C22.4488 18.4104 22.5434 18.108 22.6965 17.8295C22.9549 17.8828 23.1638 18.0491 23.4037 18.1444C23.5971 18.2213 23.7603 18.1818 23.8441 18.0257C23.9305 17.8645 23.8713 17.6872 23.6823 17.5867C23.4482 17.4619 23.2082 17.3486 22.9707 17.23C23.169 16.9144 23.3355 16.579 23.5696 16.286C23.6326 16.325 23.6975 16.3609 23.7577 16.4042C24.0642 16.6249 24.3698 16.8468 24.6745 17.0692C24.78 17.1466 24.8916 17.1904 25.019 17.1453C25.1357 17.104 25.2081 17.0257 25.2254 16.8994C25.2445 16.7573 25.1774 16.6572 25.0673 16.5732C24.7029 16.2966 24.3142 16.0516 23.966 15.7538C24.1808 15.4472 24.4531 15.1882 24.7015 14.9094C24.8737 15.0844 25.0463 15.2593 25.2181 15.4349C25.3897 15.6095 25.5708 15.6358 25.7174 15.5062C25.8635 15.3771 25.8473 15.2035 25.6885 15.0169C25.5299 14.8309 25.3197 14.6892 25.1984 14.4719C25.461 14.2088 25.7712 14.0014 26.0688 13.7796C26.2208 13.9958 26.371 14.2132 26.5261 14.4276C26.6687 14.6245 26.8381 14.672 26.9947 14.5659C27.1616 14.4526 27.1798 14.2715 27.0485 14.077C26.904 13.8637 26.7637 13.6484 26.621 13.4343C26.9377 13.2359 27.2721 13.0682 27.6134 12.9114C27.7361 13.1627 27.8552 13.416 27.9835 13.6646C28.0743 13.8411 28.2438 13.912 28.3937 13.8502C28.5756 13.775 28.6374 13.6008 28.5613 13.4063C28.4619 13.1519 28.3117 12.9174 28.2337 12.6548C28.5896 12.519 28.9535 12.4066 29.3235 12.309C29.4008 12.5936 29.4742 12.8788 29.5558 13.1624C29.6038 13.3293 29.7777 13.4343 29.9408 13.4059C30.1006 13.378 30.2317 13.2221 30.1901 13.0689C30.1056 12.7545 30.05 12.4342 29.9318 12.1291ZM26.2822 22.7883C26.3986 23.4324 26.6458 24.1077 26.9905 24.7549C27.076 24.915 27.1172 24.8768 27.2006 24.7648C29.2135 22.0584 31.2287 19.3537 33.2437 16.6485C33.3619 16.4899 33.3616 16.4885 33.1516 16.442C32.2172 16.2333 31.2935 16.2497 30.3821 16.4827C27.561 17.2029 25.7889 19.8927 26.2822 22.7883ZM31.4372 23.581C31.4545 23.7179 31.5284 23.8023 31.663 23.8446C31.8339 23.8977 31.9559 23.8245 32.0441 23.705C32.5875 22.9684 33.1598 22.2525 33.6714 21.4932C33.7976 21.3062 33.7673 21.1604 33.5944 21.0416C33.4373 20.933 33.2695 20.9688 33.138 21.1423C32.9657 21.3701 32.7922 21.5965 32.6279 21.8301C32.5493 21.942 32.4805 21.9608 32.3615 21.8686C32.1265 21.6868 31.883 21.5159 31.6406 21.3433C31.4608 21.2157 31.2549 21.2272 31.147 21.365C31.0346 21.5082 31.0832 21.7131 31.2681 21.8498C31.5021 22.023 31.7354 22.1978 31.9757 22.3613C32.1004 22.4464 32.1221 22.5172 32.0278 22.6356C31.8461 22.8636 31.6787 23.102 31.5033 23.3346C31.4467 23.4099 31.4094 23.487 31.4372 23.581Z" fill="#EFC31A"/>
<path d="M21.8156 22.8089C21.8765 22.6642 21.7795 22.5066 21.8384 22.3622C22.1362 22.3497 22.4338 22.3339 22.732 22.3268C22.9088 22.3225 23.061 22.4542 23.0825 22.6154C23.1041 22.7737 22.9813 22.9485 22.8125 22.9591C22.4917 22.9789 22.169 22.979 21.8466 22.9874C21.8364 22.9282 21.826 22.8686 21.8156 22.8089Z" fill="#F19C1F"/>
<path d="M29.3253 12.3083C29.448 12.2101 29.6292 12.2541 29.7505 12.1536C29.8113 12.1456 29.8716 12.1376 29.9324 12.1296C30.0506 12.4348 30.1062 12.755 30.1914 13.0679C30.2331 13.2215 30.102 13.3774 29.9421 13.4049C29.7795 13.4332 29.6055 13.3277 29.5571 13.1613C29.4761 12.8781 29.4022 12.593 29.3253 12.3083Z" fill="#F19C1F"/>
<path d="M31.2421 11.9593C31.4175 12.0158 31.5961 11.9273 31.7717 11.9876C31.7921 12.2563 31.8109 12.5248 31.8332 12.7932C31.8531 13.0308 31.739 13.1615 31.5044 13.1651C31.3174 13.1679 31.1814 13.0208 31.1711 12.801C31.1581 12.5259 31.1466 12.2512 31.0967 11.978C31.1454 11.9721 31.1935 11.9657 31.2421 11.9593Z" fill="#F19C1F"/>
<path d="M22.2558 24.7598C22.1506 24.6238 22.1805 24.4412 22.0763 24.305C22.0659 24.2454 22.0556 24.1862 22.0452 24.1266C22.3175 24.0936 22.5808 24.0261 22.8432 23.9559C23.078 23.8932 23.2669 23.9761 23.3176 24.1706C23.3731 24.3839 23.2584 24.5338 23.0151 24.5844C22.7606 24.637 22.5086 24.701 22.2558 24.7598Z" fill="#F19C1F"/>
<path d="M30.9153 12.0009C30.6828 12.0911 30.4402 12.1231 30.1875 12.0969C30.4301 12.0649 30.6727 12.0329 30.9153 12.0009Z" fill="#FAEEC2"/>
<path d="M21.8906 23.239C21.9888 23.4575 22.0261 23.6839 22.0086 23.9176C21.9693 23.6914 21.9299 23.4652 21.8906 23.239Z" fill="#FAEEC2"/>
<path d="M31.4347 23.5819C31.4068 23.4875 31.4446 23.4102 31.5008 23.3359C31.6762 23.1034 31.8436 22.8645 32.0254 22.637C32.1197 22.5186 32.0979 22.4473 31.9732 22.3627C31.7329 22.1987 31.4992 22.0245 31.2657 21.8512C31.0812 21.7144 31.0321 21.5091 31.1446 21.3663C31.2529 21.2285 31.4583 21.2171 31.6382 21.3447C31.8804 21.5168 32.1241 21.6882 32.3591 21.87C32.478 21.9617 32.5468 21.9429 32.6254 21.8315C32.7898 21.5984 32.9633 21.3715 33.1355 21.1437C33.267 20.9701 33.4349 20.9343 33.592 21.043C33.7644 21.1618 33.7948 21.3081 33.669 21.4946C33.1574 22.2538 32.5851 22.9698 32.0417 23.7064C31.9535 23.8259 31.8315 23.8996 31.6606 23.846C31.5254 23.8038 31.452 23.7188 31.4347 23.5819Z" fill="#E47E25"/>
<path d="M38.0565 13.8624C38.2587 13.9583 38.428 14.1 38.5998 14.2384C38.5998 14.2955 38.5701 14.3394 38.5378 14.3828C38.3039 14.6967 38.0729 15.0128 37.8345 15.3235C37.742 15.4441 37.6271 15.5442 37.4471 15.4869C37.2144 15.4131 37.1315 15.179 37.2749 14.9799C37.4969 14.6719 37.7274 14.3696 37.9539 14.0649C37.9995 14.0037 38.0526 13.9459 38.0565 13.8624Z" fill="#F19C1F"/>
<path d="M26.4682 30.5239C26.2835 30.4028 26.0952 30.2861 25.9431 30.1236C26.0228 30.096 26.0627 30.0278 26.1087 29.966C26.3322 29.6666 26.5538 29.3655 26.7796 29.0677C26.9042 28.9033 27.066 28.8698 27.2241 28.9666C27.3938 29.0701 27.449 29.242 27.3264 29.4178C27.0725 29.7828 26.7982 30.1333 26.5307 30.4884C26.5174 30.5062 26.4892 30.5129 26.4682 30.5239Z" fill="#F19C1F"/>
<path d="M23.5718 16.2858C23.637 16.0604 23.7693 15.8828 23.9677 15.7537C24.3162 16.0509 24.7045 16.296 25.0689 16.573C25.1795 16.657 25.2467 16.757 25.2271 16.8992C25.2102 17.0254 25.1378 17.1038 25.0207 17.1451C24.8932 17.1903 24.7822 17.1463 24.6762 17.069C24.3714 16.8461 24.0658 16.6243 23.7594 16.404C23.7002 16.3606 23.6347 16.3248 23.5718 16.2858Z" fill="#F19C20"/>
<path d="M32.9279 12.0253C33.147 12.0038 33.3614 12.0443 33.5752 12.0952C33.5497 12.3978 33.5365 12.7027 33.493 13.0018C33.4714 13.1491 33.3635 13.2581 33.1909 13.2584C33.0089 13.2585 32.8941 13.1584 32.8706 12.9692C32.8392 12.717 32.9044 12.4712 32.9158 12.2217C32.9183 12.156 32.9239 12.0908 32.9279 12.0253Z" fill="#F19C20"/>
<path d="M22.9022 26.4282C22.7906 26.2413 22.6861 26.052 22.6417 25.8392C22.8759 25.7448 23.1107 25.6509 23.3443 25.5551C23.4576 25.509 23.5747 25.4676 23.6974 25.5125C23.8137 25.5547 23.898 25.6447 23.915 25.7659C23.9347 25.902 23.8747 26.0143 23.7513 26.077C23.479 26.2159 23.1922 26.3255 22.9022 26.4282Z" fill="#F19C1F"/>
<path d="M36.443 12.9579C36.6643 13.0146 36.8554 13.1358 37.0508 13.2472C36.9562 13.5414 36.8015 13.8073 36.6575 14.0772C36.5903 14.2028 36.3753 14.2365 36.2492 14.1692C36.099 14.0889 36.0297 13.8989 36.104 13.7314C36.183 13.5536 36.276 13.3817 36.3624 13.2067C36.401 13.1279 36.4558 13.0543 36.443 12.9579Z" fill="#F19C1F"/>
<path d="M25.0485 29.362C24.8831 29.2115 24.7121 29.0661 24.5884 28.8779C24.8139 28.7671 24.9555 28.5634 25.1398 28.4073C25.2217 28.3379 25.2932 28.266 25.4121 28.2489C25.5489 28.2289 25.6639 28.264 25.7344 28.3748C25.8096 28.4927 25.8332 28.64 25.7329 28.744C25.5195 28.964 25.3085 29.1896 25.0485 29.362Z" fill="#F19C1F"/>
<path d="M23.8552 27.9865C23.7044 27.8233 23.5833 27.6411 23.4827 27.4459C23.6962 27.3123 23.9116 27.1809 24.1231 27.0441C24.2294 26.9749 24.344 26.9447 24.4704 26.971C24.5907 26.9961 24.6639 27.0768 24.6944 27.1923C24.7298 27.3273 24.7068 27.4465 24.5856 27.525C24.3443 27.6818 24.099 27.8328 23.8552 27.9865Z" fill="#F19D20"/>
<path d="M27.6177 12.9146C27.8 12.7763 28.0073 12.6924 28.2374 12.6576C28.3154 12.9202 28.4656 13.1547 28.565 13.4091C28.6411 13.6036 28.5793 13.7777 28.3975 13.853C28.2476 13.9152 28.0786 13.8443 27.9872 13.6674C27.8595 13.4192 27.7404 13.1659 27.6177 12.9146Z" fill="#F19C20"/>
<path d="M21.8472 21.23C21.8102 21.0025 21.831 20.782 21.9104 20.569C22.1777 20.6074 22.4459 20.6428 22.7125 20.6857C22.9402 20.7226 23.067 20.8538 23.0503 21.0239C23.0318 21.2123 22.8582 21.3524 22.634 21.3156C22.374 21.2732 22.1121 21.2228 21.8472 21.23Z" fill="#F19C20"/>
<path d="M34.7343 12.345C34.9541 12.379 35.1655 12.4419 35.3687 12.5351C35.3002 12.7878 35.236 13.0423 35.1612 13.2928C35.1031 13.4879 34.9509 13.5851 34.7845 13.5495C34.5665 13.5026 34.4692 13.326 34.5328 13.0857C34.5988 12.8383 34.6673 12.592 34.7343 12.345Z" fill="#F19C20"/>
<path d="M26.0697 13.7783C26.2221 13.6161 26.4019 13.4947 26.6219 13.433C26.7642 13.6476 26.905 13.8628 27.0494 14.0757C27.1807 14.2697 27.163 14.4512 26.9957 14.5646C26.8391 14.6711 26.6696 14.6232 26.527 14.4263C26.3719 14.2119 26.2222 13.9944 26.0697 13.7783Z" fill="#F19C20"/>
<path d="M22.1141 19.454C22.1184 19.2441 22.1871 19.0524 22.2704 18.8652C22.556 18.9174 22.8289 19.0171 23.1033 19.1102C23.2909 19.1738 23.3746 19.3263 23.3249 19.4901C23.2724 19.6625 23.1097 19.7567 22.9265 19.7042C22.6543 19.6264 22.3848 19.5379 22.1141 19.454Z" fill="#F19C20"/>
<path d="M22.6973 17.8336C22.7083 17.5963 22.8367 17.4139 22.972 17.234C23.2095 17.3525 23.4491 17.4664 23.6836 17.5907C23.8726 17.6912 23.9323 17.8683 23.8454 18.0297C23.7616 18.1857 23.5984 18.2253 23.405 18.1483C23.1646 18.0526 22.9557 17.8868 22.6973 17.8336Z" fill="#F19C20"/>
<path d="M24.7039 14.9115C24.8347 14.7283 24.977 14.5572 25.2007 14.4735C25.3216 14.6909 25.5322 14.8325 25.6908 15.0185C25.8496 15.2051 25.8664 15.3791 25.7197 15.5078C25.573 15.637 25.392 15.611 25.2204 15.4365C25.0487 15.2614 24.8761 15.0865 24.7039 14.9115Z" fill="#F19C20"/>
<path d="M44.8185 21.5233C44.8151 21.6421 44.8092 21.7609 44.8092 21.8797C44.8083 28.2318 44.8058 34.5834 44.8185 40.9356C44.8194 41.21 44.7227 41.2804 44.2917 41.2799C38.2289 41.2694 32.1661 41.2727 26.1042 41.2727C25.9634 41.2727 25.8226 41.2672 25.6817 41.2645C25.68 36.3314 25.6775 31.3983 25.6758 26.4657C27.7315 26.4635 29.7872 26.4569 31.8429 26.4619C32.2264 26.4624 32.5971 26.4388 32.9475 26.3442C34.0437 26.0477 34.652 25.4174 34.5476 24.6919C34.4085 23.7211 33.2971 23.1645 31.8429 23.1656C29.7872 23.1673 27.7315 23.1618 25.6758 23.1596C25.6758 22.6139 25.6758 22.0683 25.6758 21.5227L25.6826 21.5183C26.3868 21.5189 27.0909 21.52 27.7943 21.5205C33.4693 21.5205 39.1443 21.5222 44.8185 21.5233Z" fill="#467BB7"/>
<path d="M25.6778 21.5216C25.6778 22.0672 25.6778 22.6128 25.6778 23.1585L25.6855 23.1739C23.5848 23.1711 21.4841 23.1563 19.3843 23.1722C18.4756 23.1788 17.6943 23.401 17.1861 23.9279C16.151 25.0027 17.2268 26.375 19.0475 26.4382C21.2542 26.5147 23.4728 26.4525 25.6855 26.4503L25.6778 26.4657C25.6795 31.3988 25.6821 36.3319 25.6838 41.2645C25.5573 41.2672 25.4301 41.2727 25.3037 41.2727C19.2129 41.2733 13.1213 41.2705 7.03055 41.2788C6.64537 41.2793 6.54186 41.2166 6.54186 40.9636C6.55374 34.6021 6.5512 28.2406 6.55035 21.8791C6.55035 21.7603 6.54441 21.6415 6.54102 21.5227C12.9202 21.5227 19.2986 21.5222 25.6778 21.5216ZM16.7754 34.6885C18.3399 34.6885 19.9035 34.6835 21.468 34.6929C21.7794 34.6945 21.8914 34.6406 21.8786 34.4316C21.8549 34.0488 21.8617 33.6643 21.8769 33.281C21.8837 33.1094 21.8133 33.039 21.5248 33.039C18.3687 33.0445 15.2118 33.0439 12.0557 33.0395C11.8029 33.039 11.7045 33.0879 11.7112 33.2579C11.7265 33.6412 11.7375 34.0257 11.7079 34.4085C11.6892 34.6483 11.8334 34.6951 12.1694 34.6929C13.7033 34.6824 15.2398 34.6885 16.7754 34.6885ZM16.7712 37.9803C18.3357 37.9803 19.8993 37.9759 21.4638 37.9842C21.7692 37.9858 21.8922 37.9391 21.8786 37.7262C21.854 37.3434 21.8625 36.9589 21.8761 36.5756C21.882 36.4073 21.8226 36.3303 21.5291 36.3308C18.373 36.3363 15.216 36.3363 12.0599 36.3308C11.7681 36.3303 11.7045 36.4051 11.7104 36.5745C11.7248 36.9578 11.7325 37.3423 11.7079 37.7251C11.6943 37.9363 11.8139 37.9858 12.121 37.9842C13.6711 37.9759 15.2211 37.9803 16.7712 37.9803Z" fill="#84B2E8"/>
<path d="M25.6758 23.1578C27.7315 23.16 29.7872 23.1661 31.8429 23.1639C33.2971 23.1628 34.4085 23.7189 34.5476 24.6902C34.652 25.4157 34.0437 26.046 32.9475 26.3424C32.5963 26.4376 32.2264 26.4612 31.8429 26.4601C29.7872 26.4557 27.7315 26.4618 25.6758 26.464L25.6834 26.4486C25.6834 25.3563 25.6834 24.2639 25.6834 23.1721L25.6758 23.1578Z" fill="#568ECC"/>
<path d="M25.6842 23.173C25.6842 24.2653 25.6842 25.3577 25.6842 26.4494C23.4707 26.4516 21.2529 26.5138 19.0462 26.4373C17.2263 26.3741 16.1497 25.0018 17.1848 23.9271C17.6921 23.4001 18.4744 23.1779 19.383 23.1713C21.4837 23.1554 23.5844 23.1702 25.6842 23.173Z" fill="#9CC4F2"/>
<path d="M16.7759 34.6882C15.2403 34.6882 13.7038 34.6827 12.1682 34.6926C11.8322 34.6948 11.688 34.648 11.7067 34.4082C11.7364 34.0254 11.7253 33.641 11.7101 33.2576C11.7033 33.0871 11.8025 33.0387 12.0545 33.0393C15.2106 33.0431 18.3676 33.0442 21.5237 33.0387C21.8121 33.0381 21.8825 33.1086 21.8758 33.2807C21.8605 33.6641 21.8545 34.0485 21.8775 34.4313C21.8902 34.6403 21.7782 34.6943 21.4668 34.6926C19.9049 34.6833 18.3404 34.6882 16.7759 34.6882Z" fill="#9CC4F2"/>
<path d="M16.7714 37.9806C15.2213 37.9806 13.6713 37.9756 12.1212 37.9844C11.8141 37.9861 11.6945 37.9366 11.7081 37.7254C11.7327 37.3425 11.725 36.9581 11.7106 36.5747C11.7047 36.4053 11.7675 36.3305 12.0602 36.3311C15.2163 36.3366 18.3732 36.3366 21.5293 36.3311C21.8237 36.3305 21.8831 36.4075 21.8763 36.5758C21.8627 36.9592 21.8542 37.3436 21.8788 37.7265C21.8924 37.9393 21.7694 37.9861 21.464 37.9844C19.8995 37.9762 18.3359 37.9806 16.7714 37.9806Z" fill="#9CC4F2"/>
</svg>
