<svg width="38" height="21" viewBox="0 0 38 21" fill="none" xmlns="http://www.w3.org/2000/svg">
<path d="M37.0294 0.524481C37.0261 0.643285 37.0204 0.762089 37.0204 0.880892C37.0196 7.23304 37.0172 13.5846 37.0294 19.9368C37.0302 20.2112 36.9373 20.2816 36.5236 20.2811C30.7033 20.2706 24.8831 20.2739 19.0637 20.2739C18.9285 20.2739 18.7932 20.2684 18.658 20.2657C18.6564 15.3326 18.654 10.3995 18.6523 5.46693C20.6258 5.46473 22.5993 5.45813 24.5728 5.46308C24.9409 5.46363 25.2968 5.43998 25.6332 5.34538C26.6855 5.04892 27.2695 4.4186 27.1693 3.69313C27.0357 2.72235 25.9688 2.16573 24.5728 2.16683C22.5993 2.16848 20.6258 2.16298 18.6523 2.16078C18.6523 1.61516 18.6523 1.06955 18.6523 0.523931L18.6589 0.519531C19.3349 0.520081 20.0109 0.521181 20.6861 0.521731C26.1341 0.521731 31.5822 0.523381 37.0294 0.524481Z" fill="#467BB7"/>
<path d="M18.6526 0.523438C18.6526 1.06905 18.6526 1.61467 18.6526 2.16029L18.6599 2.17569C16.6433 2.17294 14.6266 2.15809 12.6108 2.17404C11.7385 2.18064 10.9884 2.40285 10.5005 2.92976C9.50683 4.0045 10.5396 5.37679 12.2875 5.44004C14.4059 5.51649 16.5358 5.45434 18.6599 5.45214L18.6526 5.46754C18.6542 10.4006 18.6567 15.3337 18.6583 20.2663C18.5369 20.269 18.4148 20.2745 18.2934 20.2745C12.4463 20.2751 6.59833 20.2723 0.751203 20.2806C0.381431 20.2811 0.282064 20.2184 0.282064 19.9654C0.293467 13.6039 0.291024 7.24244 0.290209 0.880949C0.290209 0.762145 0.284508 0.643341 0.28125 0.524538C6.4053 0.524538 12.5285 0.523988 18.6526 0.523438ZM10.1063 13.6903C11.6082 13.6903 13.1093 13.6853 14.6112 13.6947C14.9101 13.6963 15.0176 13.6424 15.0054 13.4334C14.9826 13.0506 14.9891 12.6662 15.0037 12.2828C15.0102 12.1112 14.9426 12.0408 14.6657 12.0408C11.6359 12.0463 8.6052 12.0457 5.57535 12.0413C5.33263 12.0408 5.23815 12.0897 5.24467 12.2597C5.25933 12.6431 5.26992 13.0275 5.24141 13.4103C5.22349 13.6501 5.36196 13.6969 5.68449 13.6947C7.15706 13.6842 8.63208 13.6903 10.1063 13.6903ZM10.1022 16.9821C11.6041 16.9821 13.1052 16.9777 14.6071 16.986C14.9003 16.9876 15.0184 16.9409 15.0054 16.728C14.9817 16.3452 14.9899 15.9608 15.0029 15.5774C15.0086 15.4091 14.9516 15.3321 14.6698 15.3326C11.6399 15.3381 8.60927 15.3381 5.57942 15.3326C5.29924 15.3321 5.23815 15.4069 5.24386 15.5763C5.2577 15.9597 5.26503 16.3441 5.24141 16.7269C5.22838 16.9381 5.34322 16.9876 5.63806 16.986C7.12611 16.9777 8.61416 16.9821 10.1022 16.9821Z" fill="#84B2E8"/>
<path d="M18.6523 2.16016C20.6258 2.16236 22.5993 2.16841 24.5728 2.16621C25.9688 2.16511 27.0358 2.72117 27.1693 3.6925C27.2695 4.41798 26.6855 5.0483 25.6332 5.34475C25.296 5.43991 24.9409 5.46356 24.5728 5.46246C22.5993 5.45806 20.6258 5.46411 18.6523 5.46631L18.6597 5.45091C18.6597 4.35857 18.6597 3.26624 18.6597 2.17446L18.6523 2.16016Z" fill="#568ECC"/>
<path d="M18.6601 2.17299C18.6601 3.26532 18.6601 4.35765 18.6601 5.44944C16.5351 5.45164 14.4061 5.51379 12.2876 5.43734C10.5406 5.37409 9.507 4.00179 10.5007 2.92706C10.9877 2.40014 11.7387 2.17794 12.611 2.17134C14.6276 2.15539 16.6443 2.17024 18.6601 2.17299Z" fill="#9CC4F2"/>
<path d="M10.1063 13.6886C8.63211 13.6886 7.15709 13.6831 5.68289 13.693C5.36036 13.6952 5.2219 13.6484 5.23982 13.4086C5.26832 13.0258 5.25773 12.6413 5.24307 12.258C5.23656 12.0875 5.33185 12.0391 5.57375 12.0396C8.6036 12.0435 11.6343 12.0446 14.6641 12.0391C14.941 12.0385 15.0086 12.1089 15.0021 12.2811C14.9875 12.6644 14.9818 13.0489 15.0038 13.4317C15.016 13.6407 14.9085 13.6946 14.6096 13.693C13.1101 13.6836 11.6082 13.6886 10.1063 13.6886Z" fill="#9CC4F2"/>
<path d="M10.104 16.9815C8.61592 16.9815 7.12788 16.9766 5.63983 16.9854C5.34499 16.987 5.23015 16.9375 5.24318 16.7263C5.2668 16.3435 5.25947 15.9591 5.24562 15.5757C5.23992 15.4063 5.30019 15.3315 5.58118 15.332C8.61104 15.3375 11.6417 15.3375 14.6716 15.332C14.9542 15.3315 15.0112 15.4085 15.0047 15.5768C14.9916 15.9602 14.9835 16.3446 15.0071 16.7274C15.0202 16.9403 14.9021 16.987 14.6088 16.9854C13.1069 16.9771 11.6059 16.9815 10.104 16.9815Z" fill="#9CC4F2"/>
</svg>
