<svg width="267" height="249" viewBox="0 0 267 249" fill="none" xmlns="http://www.w3.org/2000/svg">
<g clip-path="url(#clip0_4467_118409)">
<path d="M113.478 248.844C113.254 248.834 113.043 248.738 112.889 248.576C112.734 248.414 112.648 248.199 112.648 247.975L119.245 0.831247C119.287 0.63729 119.394 0.463578 119.548 0.339C119.703 0.214422 119.895 0.146484 120.094 0.146484C120.292 0.146484 120.485 0.214422 120.639 0.339C120.794 0.463578 120.901 0.63729 120.943 0.831247L114.544 248.172C114.488 248.4 114.345 248.598 114.147 248.723C113.948 248.848 113.708 248.892 113.478 248.844Z" fill="#878787"/>
<path d="M241.567 129.869L0.821978 123.471C0.698786 123.461 0.578856 123.426 0.469522 123.369C0.360189 123.311 0.263752 123.232 0.186109 123.136C0.108466 123.04 0.0512507 122.929 0.0179617 122.81C-0.0153272 122.691 -0.0239894 122.566 -0.00749526 122.444C-0.0076227 122.331 0.0150682 122.22 0.0592012 122.117C0.103334 122.014 0.16799 121.92 0.249246 121.843C0.330503 121.765 0.426668 121.705 0.531908 121.666C0.637148 121.626 0.749271 121.609 0.861477 121.614L241.804 128.013C242.02 128.033 242.221 128.133 242.368 128.294C242.514 128.455 242.595 128.665 242.594 128.882C242.626 129.022 242.622 129.168 242.581 129.305C242.54 129.443 242.464 129.568 242.361 129.667C242.257 129.767 242.13 129.838 241.99 129.873C241.851 129.909 241.705 129.907 241.567 129.869Z" fill="#878787"/>
<path d="M235.721 133.069C235.573 133.075 235.426 133.037 235.3 132.959C235.173 132.882 235.072 132.769 235.01 132.634C234.954 132.539 234.918 132.433 234.903 132.323C234.889 132.213 234.897 132.102 234.926 131.995C234.956 131.888 235.006 131.788 235.075 131.701C235.144 131.614 235.229 131.542 235.326 131.489L239.592 129.198L235.049 127.46C234.944 127.421 234.847 127.361 234.766 127.283C234.684 127.206 234.619 127.112 234.575 127.009C234.531 126.905 234.508 126.794 234.508 126.681C234.508 126.569 234.531 126.457 234.575 126.354C234.655 126.15 234.812 125.986 235.011 125.898C235.211 125.809 235.438 125.803 235.642 125.88L241.922 128.289C242.066 128.348 242.19 128.446 242.281 128.571C242.371 128.697 242.425 128.846 242.436 129C242.45 129.166 242.417 129.332 242.34 129.479C242.263 129.626 242.145 129.747 242.001 129.83L236.155 132.99C236.019 133.051 235.87 133.079 235.721 133.069Z" fill="#878787"/>
<path d="M123.751 11.4169C123.581 11.4081 123.416 11.3516 123.277 11.2538C123.137 11.156 123.028 11.0209 122.961 10.8639L120.196 2.96412L116.641 10.5874C116.599 10.6898 116.536 10.7822 116.456 10.8587C116.376 10.9352 116.281 10.9939 116.176 11.0312C116.072 11.0684 115.961 11.0833 115.851 11.0749C115.74 11.0665 115.633 11.035 115.535 10.9824C115.433 10.9394 115.341 10.8765 115.263 10.7973C115.186 10.718 115.125 10.6241 115.085 10.521C115.044 10.418 115.025 10.3078 115.028 10.1971C115.03 10.0864 115.055 9.97734 115.101 9.8764L119.525 0.475701C119.602 0.324302 119.721 0.198729 119.868 0.114493C120.016 0.0302581 120.185 -0.00894862 120.354 0.00171653C120.518 0.0174952 120.674 0.077243 120.806 0.17461C120.938 0.271978 121.041 0.403327 121.105 0.554699L124.581 10.2714C124.657 10.4862 124.646 10.7226 124.55 10.9296C124.454 11.1365 124.281 11.2973 124.067 11.3774L123.751 11.4169Z" fill="#878787"/>
<path d="M243.505 138.954C243.505 138.954 243.505 138.954 243.268 139.191C243.152 139.227 243.028 139.227 242.912 139.191C242.543 139.191 242.148 138.875 241.727 138.243L240.937 136.9C240.166 137.82 239.528 138.844 239.041 139.941C238.646 139.941 238.488 139.665 238.488 139.349C238.752 138.754 239.112 138.206 239.555 137.729C239.951 137.282 240.296 136.792 240.582 136.268C240.443 135.846 240.244 135.447 239.989 135.083C239.594 134.411 239.318 133.977 239.199 133.819C239.236 133.707 239.313 133.613 239.415 133.554C239.517 133.496 239.637 133.477 239.752 133.503C239.917 133.509 240.073 133.58 240.187 133.7C240.26 133.932 240.352 134.156 240.463 134.372C240.628 134.821 240.826 135.256 241.056 135.675L242.122 134.411C242.715 133.74 243.031 133.384 243.189 133.384C243.265 133.354 243.35 133.354 243.426 133.384C243.444 133.428 243.454 133.475 243.454 133.523C243.454 133.57 243.444 133.617 243.426 133.661C243.125 134.09 242.766 134.475 242.359 134.806C241.648 135.517 241.293 135.952 241.293 136.11C241.478 136.632 241.759 137.114 242.122 137.532C242.715 138.282 243.07 138.638 243.268 138.677H243.505V138.954Z" fill="#878787"/>
<path d="M112.891 4.93392C112.79 5.33736 112.711 5.74614 112.654 6.15838C112.595 6.55112 112.595 6.9506 112.654 7.34334V11.5697C112.641 12.1009 112.43 12.608 112.062 12.9917C111.648 13.3531 111.109 13.5375 110.561 13.5051C110.174 13.4822 109.796 13.3743 109.455 13.1892C109.062 13.0364 108.72 12.7764 108.468 12.4387C108.448 12.3475 108.448 12.2534 108.468 12.1622C108.468 11.9252 108.468 11.8067 108.862 11.8067L109.297 12.3202C109.624 12.6084 110.046 12.7634 110.482 12.7547C110.716 12.7852 110.954 12.7451 111.165 12.6395C111.376 12.5339 111.551 12.3677 111.667 12.1622C111.819 11.7032 111.898 11.2236 111.904 10.7402C111.904 10.7402 111.904 10.4637 111.904 10.1872C111.886 9.99018 111.886 9.79184 111.904 9.59477C111.748 9.77215 111.56 9.91941 111.351 10.0293C111.147 10.1049 110.923 10.1049 110.719 10.0293C110.442 10.0443 110.166 9.98212 109.922 9.84962C109.677 9.71713 109.475 9.51952 109.336 9.27878C109.049 8.80373 108.912 8.25319 108.941 7.69883C108.941 6.47437 108.941 5.4474 108.941 4.61793C108.941 4.55739 108.954 4.49746 108.978 4.442C109.002 4.38653 109.038 4.33675 109.082 4.29584C109.127 4.25494 109.18 4.22381 109.237 4.20445C109.294 4.18509 109.355 4.17794 109.415 4.18344C109.771 4.18344 109.929 4.18344 109.889 4.18344C109.616 5.21349 109.496 6.27828 109.534 7.34334C109.534 8.6073 109.85 9.23928 110.561 9.23928C111.272 9.23928 111.351 8.92329 111.627 8.25181C111.843 7.7518 111.964 7.21602 111.983 6.67186V5.5264C111.965 5.34252 111.965 5.15729 111.983 4.97341C111.983 4.73642 111.983 4.61793 112.417 4.65742C112.852 4.69692 112.891 4.77592 112.891 4.93392Z" fill="#878787"/>
<path d="M114.312 217.872C96.1937 217.389 78.6256 211.544 63.8294 201.076C49.0332 190.609 37.6735 175.988 31.1869 159.064C24.7003 142.14 23.3781 123.672 27.3875 105.996C31.397 88.3208 40.558 72.2311 53.712 59.7622C66.866 47.2932 83.4222 39.005 101.287 35.9457C119.151 32.8865 137.522 35.1935 154.075 42.5752C170.629 49.9569 184.622 62.0816 194.284 77.416C203.946 92.7504 208.844 110.606 208.358 128.724C207.676 153.006 197.393 176.027 179.763 192.738C162.133 209.45 138.596 218.489 114.312 217.872ZM119.131 36.3758C101.35 35.9056 83.8287 40.7184 68.7829 50.2055C53.7371 59.6926 41.8422 73.4281 34.6022 89.6751C27.3623 105.922 25.1025 123.951 28.1085 141.482C31.1145 159.014 39.2513 175.26 51.4901 188.167C63.729 201.074 79.5202 210.063 96.8671 213.996C114.214 217.928 132.338 216.629 148.946 210.263C165.555 203.896 179.903 192.747 190.176 178.227C200.448 163.706 206.185 146.465 206.66 128.684C207.276 104.841 198.404 81.7285 181.993 64.4213C165.582 47.114 142.973 37.0272 119.131 36.3758Z" fill="#878787"/>
<path d="M116.724 127.105C116.515 127.102 116.317 127.017 116.171 126.868C116.092 126.791 116.029 126.699 115.987 126.597C115.944 126.495 115.922 126.386 115.922 126.276C115.922 126.165 115.944 126.056 115.987 125.954C116.029 125.853 116.092 125.76 116.171 125.683L179.013 60.1943C179.128 60.0563 179.284 59.9591 179.459 59.9173C179.633 59.8756 179.816 59.8915 179.981 59.9627C180.145 60.0339 180.283 60.1565 180.372 60.3122C180.461 60.4679 180.497 60.6483 180.475 60.8263L178.697 127.342C178.655 127.536 178.548 127.71 178.394 127.834C178.239 127.959 178.047 128.027 177.848 128.027C177.65 128.027 177.457 127.959 177.303 127.834C177.148 127.71 177.041 127.536 176.999 127.342L178.737 62.9987L117.356 126.868C117.276 126.954 117.178 127.021 117.068 127.062C116.958 127.103 116.84 127.118 116.724 127.105Z" fill="#878787"/>
<path d="M179.599 61.6558L118.494 59.9968C118.382 59.997 118.271 59.9743 118.168 59.9301C118.064 59.886 117.971 59.8214 117.894 59.7401C117.816 59.6588 117.756 59.5627 117.716 59.4574C117.677 59.3522 117.66 59.2401 117.665 59.1279C117.685 58.9114 117.785 58.7101 117.946 58.5639C118.107 58.4176 118.317 58.337 118.534 58.3379L179.639 59.9573C179.765 59.9298 179.897 59.9311 180.023 59.961C180.149 59.9909 180.267 60.0487 180.368 60.1301C180.469 60.2116 180.551 60.3146 180.607 60.4316C180.663 60.5487 180.692 60.6768 180.692 60.8066C180.692 60.9363 180.663 61.0644 180.607 61.1815C180.551 61.2985 180.469 61.4016 180.368 61.483C180.267 61.5645 180.149 61.6223 180.023 61.6522C179.897 61.6821 179.765 61.6833 179.639 61.6558H179.599Z" fill="#878787"/>
<path d="M168.27 73.4257C168.083 73.4121 167.904 73.3434 167.757 73.2282C163.487 70.0595 160.422 65.5324 159.067 60.3911C159.044 60.1666 159.11 59.9422 159.25 59.7652C159.39 59.5883 159.594 59.4728 159.817 59.4432C159.926 59.4264 160.038 59.4317 160.145 59.4585C160.252 59.4853 160.352 59.5333 160.441 59.5995C160.529 59.6657 160.603 59.7489 160.659 59.8441C160.715 59.9393 160.751 60.0447 160.765 60.1541C162.02 64.8669 164.797 69.0328 168.665 72.0038C168.744 72.081 168.806 72.1732 168.849 72.2749C168.892 72.3766 168.914 72.4859 168.914 72.5962C168.914 72.7066 168.892 72.8158 168.849 72.9176C168.806 73.0193 168.744 73.1115 168.665 73.1887C168.558 73.3034 168.421 73.3856 168.27 73.4257Z" fill="#878787"/>
<path d="M179.917 81.5656H179.009C178.785 81.536 178.582 81.4205 178.442 81.2436C178.302 81.0667 178.236 80.8422 178.258 80.6177C178.297 80.4012 178.416 80.2075 178.592 80.0755C178.768 79.9436 178.988 79.8833 179.206 79.9067C185.368 80.7757 189.594 72.9549 189.634 72.8759C189.684 72.7756 189.754 72.6864 189.839 72.6137C189.924 72.5411 190.024 72.4865 190.131 72.4533C190.238 72.4201 190.35 72.4089 190.462 72.4204C190.573 72.432 190.681 72.466 190.779 72.5204C190.88 72.5704 190.969 72.6401 191.042 72.7255C191.114 72.8109 191.169 72.9101 191.202 73.0172C191.235 73.1242 191.246 73.2369 191.235 73.3484C191.223 73.4599 191.189 73.5679 191.135 73.6659C190.937 73.9424 186.671 81.7631 179.917 81.5656Z" fill="#878787"/>
<path d="M141.454 127.225C141.29 127.209 141.134 127.15 141.002 127.052C140.87 126.955 140.767 126.823 140.703 126.672C139.668 123.888 138.086 121.339 136.051 119.175C134.016 117.011 131.569 115.276 128.854 114.072C128.642 114 128.466 113.848 128.363 113.65C128.26 113.451 128.238 113.22 128.301 113.006C128.381 112.792 128.542 112.618 128.748 112.522C128.955 112.426 129.192 112.415 129.407 112.492C132.356 113.75 135.014 115.603 137.216 117.934C139.418 120.264 141.116 123.024 142.204 126.04C142.249 126.143 142.272 126.255 142.272 126.367C142.272 126.48 142.249 126.591 142.205 126.695C142.16 126.798 142.095 126.892 142.014 126.969C141.932 127.047 141.836 127.107 141.73 127.146L141.454 127.225Z" fill="#878787"/>
<path d="M142.702 117.349C142.702 117.349 142.702 117.547 142.386 117.547C142.304 117.549 142.224 117.522 142.159 117.472C142.094 117.421 142.049 117.35 142.031 117.27C142.031 117.27 142.031 117.033 142.031 116.717C142.034 116.651 142.034 116.585 142.031 116.52C141.545 116.86 140.965 117.039 140.372 117.033C139.952 116.992 139.547 116.857 139.187 116.638C139.002 116.556 138.845 116.423 138.733 116.256C138.622 116.088 138.56 115.892 138.555 115.69C138.594 115.458 138.69 115.238 138.835 115.052C138.979 114.866 139.168 114.719 139.384 114.624C139.763 114.341 140.216 114.177 140.688 114.15H142.189C142.222 114.061 142.222 113.962 142.189 113.873C142.28 113.417 142.28 112.947 142.189 112.491C142.16 112.271 142.051 112.069 141.884 111.924C141.717 111.778 141.502 111.699 141.28 111.701C141.076 111.715 140.878 111.78 140.706 111.891C140.533 112.001 140.391 112.153 140.293 112.333C140.046 112.668 139.896 113.064 139.858 113.478C139.858 113.478 139.858 113.478 139.582 113.478C139.546 113.376 139.546 113.264 139.582 113.162C139.601 112.829 139.696 112.505 139.858 112.214C139.968 111.904 140.143 111.621 140.372 111.385C140.479 111.272 140.607 111.183 140.75 111.122C140.892 111.061 141.046 111.029 141.201 111.029C141.718 111.043 142.216 111.223 142.623 111.543C142.834 111.687 143.007 111.882 143.124 112.109C143.241 112.337 143.3 112.59 143.295 112.846L142.702 117.349ZM142.189 115.177C142.189 114.821 141.952 114.624 141.359 114.624C140.966 114.582 140.57 114.651 140.214 114.821C140.025 114.878 139.86 114.993 139.739 115.149C139.619 115.304 139.55 115.494 139.542 115.69C139.545 115.807 139.575 115.921 139.63 116.024C139.685 116.127 139.763 116.215 139.858 116.283C140.08 116.323 140.308 116.323 140.53 116.283C140.938 116.281 141.337 116.157 141.675 115.927C141.811 115.848 141.927 115.739 142.016 115.609C142.105 115.48 142.164 115.332 142.189 115.177Z" fill="#878787"/>
<path d="M158.979 72.7556C158.979 72.7556 158.979 72.7556 158.663 72.7556C158.622 72.7611 158.58 72.7583 158.539 72.7473C158.499 72.7364 158.461 72.7175 158.428 72.6918C158.395 72.666 158.367 72.634 158.346 72.5975C158.326 72.5609 158.313 72.5207 158.308 72.4791C158.308 72.4791 158.308 72.2816 158.308 71.9656C158.315 71.8867 158.315 71.8075 158.308 71.7286C157.822 72.0685 157.242 72.2481 156.649 72.2421C156.229 72.2345 155.819 72.1115 155.464 71.8866C155.279 71.7942 155.123 71.6537 155.012 71.4798C154.901 71.306 154.839 71.1054 154.832 70.8991C154.88 70.67 154.98 70.4549 155.124 70.2701C155.267 70.0853 155.451 69.9357 155.662 69.8327C156.042 69.5601 156.497 69.4087 156.965 69.3982H158.308C158.331 69.3075 158.331 69.2124 158.308 69.1217C158.402 68.6656 158.402 68.1953 158.308 67.7392C158.279 67.5194 158.171 67.3177 158.003 67.1722C157.836 67.0266 157.621 66.9474 157.399 66.9493C157.044 66.9493 156.728 67.1468 156.412 67.5417C156.172 67.8806 156.023 68.2747 155.977 68.6872C155.977 68.6872 155.977 68.6872 155.701 68.6872C155.425 68.6872 155.701 68.4897 155.701 68.4107C155.71 68.0761 155.805 67.7495 155.977 67.4627C156.089 67.1415 156.263 66.846 156.491 66.5938C156.598 66.4814 156.727 66.392 156.869 66.3309C157.012 66.2698 157.165 66.2383 157.32 66.2383C157.841 66.2665 158.339 66.4602 158.742 66.7913C158.948 66.9319 159.117 67.1204 159.234 67.3405C159.351 67.5607 159.413 67.8059 159.414 68.0552L158.979 72.7556ZM158.308 70.5436C158.308 70.1882 158.071 70.0302 157.518 69.9907C157.114 69.9847 156.713 70.0516 156.333 70.1882C156.145 70.2454 155.979 70.3598 155.859 70.5155C155.738 70.6712 155.669 70.8605 155.662 71.0571C155.653 71.1756 155.678 71.294 155.734 71.3988C155.79 71.5036 155.874 71.5905 155.977 71.6496C156.18 71.7736 156.412 71.8418 156.649 71.8471C157.124 71.8882 157.599 71.7625 157.992 71.4916C158.118 71.3714 158.213 71.2222 158.268 71.0569C158.323 70.8917 158.337 70.7154 158.308 70.5436Z" fill="#878787"/>
<path d="M144.481 80.657C144.481 80.657 144.481 80.973 144.481 81.6049C144.29 82.5039 144.158 83.4143 144.086 84.3304V87.1348C144.004 87.592 144.004 88.06 144.086 88.5172C144.093 88.5499 144.092 88.5839 144.083 88.6162C144.074 88.6484 144.057 88.6778 144.033 88.7015C144.009 88.7252 143.98 88.7425 143.948 88.7517C143.915 88.7609 143.881 88.7618 143.849 88.7542C143.652 88.73 143.463 88.6625 143.296 88.5567C143.26 88.414 143.26 88.2649 143.296 88.1222V82.0394L143.059 81.8419V81.5259C143.099 81.1113 143.178 80.7013 143.296 80.3015C143.296 79.6695 143.612 79.3535 143.73 79.3535C143.849 79.3535 144.007 79.3535 144.125 79.7485C144.344 80.0017 144.47 80.3224 144.481 80.657Z" fill="#878787"/>
<path d="M132.085 54.545C132.085 54.782 132.085 55.0585 131.532 55.4139C131.271 55.6974 130.946 55.9141 130.584 56.0459H129.794C129.502 56.0541 129.212 55.9899 128.95 55.859C128.688 55.728 128.463 55.5345 128.294 55.2954C127.957 54.8114 127.803 54.2235 127.859 53.6365C127.895 52.8487 128.069 52.0734 128.373 51.3456C128.768 50.2791 129.241 49.7656 129.794 49.7656C130.169 49.8168 130.524 49.9668 130.821 50.2001C131.256 50.4766 131.493 50.7136 131.532 50.9506C131.552 51.2267 131.552 51.5039 131.532 51.7801C131.532 52.7675 131.532 53.281 131.058 53.2415C130.969 53.2716 130.872 53.2716 130.782 53.2415C130.782 53.2415 130.782 53.2415 130.782 53.044C130.798 52.7678 130.798 52.4908 130.782 52.2145C130.782 51.2271 130.782 50.7136 130.15 50.7136C129.518 50.7136 129.202 51.1481 128.886 52.0566C128.633 52.6864 128.487 53.3537 128.452 54.0315C128.378 54.4363 128.378 54.8511 128.452 55.2559C128.518 55.4537 128.646 55.6252 128.816 55.7458C128.987 55.8665 129.191 55.93 129.399 55.9274C129.751 55.905 130.084 55.766 130.347 55.5324C130.634 55.3339 130.876 55.0784 131.058 54.782V54.4265C131.058 54.4265 131.058 54.4265 131.256 54.624L132.085 54.545Z" fill="#878787"/>
<path d="M137.101 53.4414C137.101 54.1503 136.91 54.8461 136.548 55.4558C136.379 55.7659 136.127 56.0227 135.82 56.1972C135.513 56.3717 135.163 56.4569 134.81 56.4433C134.482 56.4605 134.156 56.3843 133.869 56.2235C133.582 56.0627 133.347 55.8239 133.191 55.5348C132.881 54.9677 132.744 54.3224 132.796 53.6784C132.814 52.8918 133.017 52.1206 133.388 51.4269C133.823 50.5185 134.376 50.084 135.047 50.084C135.32 50.1237 135.579 50.2324 135.798 50.4C136.265 50.7458 136.632 51.2097 136.861 51.7442C137.09 52.2786 137.173 52.8644 137.101 53.4414ZM136.469 53.4414C136.535 52.9167 136.535 52.3861 136.469 51.8614C136.469 51.2294 135.916 50.9135 135.442 50.874C135.147 50.8928 134.863 51.0011 134.631 51.1845C134.398 51.3679 134.226 51.6178 134.139 51.9009C133.888 52.4603 133.753 53.0652 133.744 53.6784C133.653 54.1613 133.653 54.6569 133.744 55.1398C133.825 55.3648 133.968 55.5622 134.157 55.709C134.346 55.8558 134.572 55.9461 134.81 55.9693C135.091 55.974 135.365 55.8881 135.593 55.7244C135.821 55.5608 135.989 55.3281 136.074 55.0608C136.316 54.5401 136.451 53.9758 136.469 53.4019V53.4414Z" fill="#878787"/>
<path d="M141.8 55.2998C141.8 55.6158 141.524 55.8528 141.05 56.0503C140.686 56.2008 140.298 56.2812 139.904 56.2873C139.617 56.3382 139.323 56.3382 139.035 56.2873C138.75 56.1204 138.485 55.9216 138.245 55.6948C137.85 55.3393 137.613 55.1023 137.613 54.9838C137.613 54.8653 137.613 54.5888 138.127 54.6283C138.127 54.9048 138.403 55.1813 138.956 55.5368C139.311 55.7801 139.716 55.942 140.141 56.0108C140.576 56.0108 140.773 56.0108 140.773 55.6158C140.773 55.2208 140.536 55.2208 140.062 54.9048C139.567 54.6454 139.114 54.3124 138.719 53.9173C138.487 53.7096 138.302 53.4534 138.18 53.1668C138.057 52.8801 137.998 52.5701 138.008 52.2584C138.023 51.7843 138.159 51.3218 138.403 50.9154C138.719 50.3888 139.075 50.1518 139.47 50.2044C139.871 50.2457 140.254 50.3959 140.576 50.6389C140.913 50.8399 141.177 51.1447 141.326 51.5079C141.367 51.7961 141.367 52.0887 141.326 52.3769C141.32 52.7702 141.24 53.1589 141.089 53.5223C141.046 53.5433 140.999 53.5542 140.951 53.5542C140.903 53.5542 140.856 53.5433 140.813 53.5223C140.723 53.5498 140.626 53.5498 140.536 53.5223H140.339V53.2458C140.396 52.9724 140.396 52.6899 140.339 52.4164C140.339 51.4289 140.062 50.9549 139.47 50.9154C138.877 50.8759 138.877 51.1129 138.68 51.5474C138.528 51.8708 138.434 52.2185 138.403 52.5744C138.423 52.834 138.5 53.0859 138.63 53.3115C138.76 53.5371 138.939 53.7306 139.154 53.8778C139.606 54.2378 140.081 54.5676 140.576 54.8653C141.524 54.9838 141.8 55.2998 141.8 55.2998Z" fill="#878787"/>
<path d="M149.507 56.8404C149.507 56.8404 149.507 56.8404 149.191 56.8404C149.149 56.8459 149.107 56.8431 149.067 56.8322C149.026 56.8212 148.988 56.8023 148.955 56.7766C148.922 56.7509 148.894 56.7188 148.874 56.6823C148.853 56.6458 148.84 56.6055 148.835 56.5639C148.835 56.5639 148.835 56.5639 148.835 56.0504C148.835 55.5369 148.835 56.0504 148.835 55.8134C148.359 56.1721 147.772 56.3537 147.176 56.3269C146.756 56.3193 146.346 56.1964 145.991 55.9714C145.807 55.879 145.651 55.7385 145.539 55.5647C145.428 55.3909 145.366 55.1902 145.359 54.984C145.408 54.7549 145.507 54.5397 145.651 54.3549C145.795 54.1702 145.979 54.0205 146.189 53.9175C146.57 53.645 147.024 53.4936 147.492 53.483H148.835C148.859 53.3923 148.859 53.2972 148.835 53.2065C148.929 52.7505 148.929 52.2801 148.835 51.8241C148.806 51.5972 148.692 51.3899 148.516 51.2434C148.34 51.097 148.116 51.0222 147.887 51.0341C147.571 51.0341 147.255 51.0341 146.939 51.6661C146.695 51.9872 146.544 52.3702 146.505 52.772L146.149 53.0485C146.149 53.0485 146.149 53.0485 146.149 52.772C146.165 52.4385 146.259 52.1135 146.426 51.8241C146.537 51.5028 146.711 51.2073 146.939 50.9551C147.046 50.8428 147.175 50.7533 147.318 50.6922C147.46 50.6311 147.614 50.5996 147.769 50.5996C148.29 50.6278 148.788 50.8215 149.191 51.1526C149.392 51.2977 149.557 51.4872 149.674 51.7064C149.79 51.9255 149.855 52.1685 149.862 52.4166L149.507 56.8404ZM148.835 54.668C148.835 54.273 148.598 54.115 148.006 54.0755C147.615 54.0734 147.228 54.1403 146.86 54.273C146.637 54.3289 146.443 54.4639 146.312 54.6528C146.181 54.8417 146.123 55.0717 146.149 55.3C146.148 55.4119 146.177 55.522 146.233 55.6192C146.288 55.7163 146.368 55.797 146.465 55.8529C146.668 55.977 146.899 56.0451 147.137 56.0504C147.534 56.0533 147.922 55.9287 148.243 55.6949C148.436 55.606 148.596 55.4595 148.702 55.2756C148.808 55.0917 148.855 54.8794 148.835 54.668Z" fill="#878787"/>
<path d="M159.851 108.699C159.851 109.015 159.574 109.292 159.1 109.489C158.724 109.644 158.322 109.724 157.915 109.726C157.63 109.708 157.349 109.642 157.086 109.529C156.801 109.362 156.536 109.163 156.296 108.936C155.862 108.581 155.664 108.344 155.664 108.225C155.664 108.107 155.862 107.791 156.178 107.83C156.178 108.107 156.494 108.423 157.047 108.739C157.393 108.999 157.802 109.162 158.231 109.213C158.666 109.213 158.863 109.213 158.863 108.818C158.863 108.423 158.626 108.423 158.152 108.146C157.675 107.859 157.226 107.528 156.81 107.159C156.573 106.954 156.385 106.699 156.262 106.411C156.139 106.124 156.083 105.812 156.099 105.5C156.107 105.025 156.244 104.561 156.494 104.157C156.583 103.944 156.73 103.76 156.919 103.628C157.107 103.495 157.33 103.418 157.56 103.406C157.969 103.445 158.356 103.611 158.666 103.88C159.012 104.071 159.278 104.379 159.416 104.749C159.461 105.037 159.461 105.33 159.416 105.618C159.407 106.011 159.326 106.399 159.179 106.764H158.903H158.626H158.429C158.429 106.764 158.429 106.764 158.429 106.448C158.49 106.175 158.49 105.891 158.429 105.618C158.429 104.67 158.152 104.157 157.56 104.157C156.968 104.157 156.968 104.354 156.77 104.789C156.618 105.112 156.525 105.46 156.494 105.816C156.513 106.075 156.591 106.327 156.72 106.553C156.85 106.778 157.029 106.972 157.244 107.119C157.687 107.473 158.148 107.802 158.626 108.107C159.574 108.265 159.851 108.541 159.851 108.699Z" fill="#878787"/>
<path d="M161.707 104.238C161.731 104.488 161.731 104.739 161.707 104.989C161.686 105.225 161.686 105.463 161.707 105.7V108.702C161.678 108.977 161.678 109.255 161.707 109.531C161.621 109.545 161.533 109.538 161.45 109.511C161.367 109.484 161.292 109.437 161.23 109.376C161.169 109.314 161.123 109.239 161.096 109.156C161.069 109.073 161.062 108.985 161.075 108.899V103.922C161.13 103.894 161.191 103.88 161.253 103.88C161.315 103.88 161.375 103.894 161.431 103.922H161.747C161.747 103.922 161.707 104.159 161.707 104.238ZM162.023 102.224C162.029 102.282 162.022 102.342 162.003 102.397C161.983 102.453 161.951 102.503 161.91 102.545C161.868 102.586 161.817 102.618 161.762 102.638C161.706 102.658 161.647 102.665 161.589 102.658C161.436 102.716 161.267 102.716 161.115 102.658C161.083 102.59 161.066 102.516 161.066 102.441C161.066 102.366 161.083 102.292 161.115 102.224C161.115 101.908 161.115 101.75 161.589 101.789C161.728 101.734 161.883 101.734 162.023 101.789C162.043 101.863 162.046 101.94 162.033 102.015C162.019 102.091 161.989 102.162 161.944 102.224H162.023Z" fill="#878787"/>
<path d="M166.809 109.767C166.773 109.788 166.732 109.799 166.69 109.799C166.649 109.799 166.608 109.788 166.572 109.767L166.137 109.57V108.74C166.137 105.738 165.9 104.237 165.15 104.198C164.399 104.158 164.676 104.198 164.399 104.711C163.653 105.607 163.259 106.745 163.293 107.911C163.258 108.16 163.258 108.412 163.293 108.661C163.31 108.911 163.31 109.162 163.293 109.412C163.293 109.412 163.293 109.609 163.017 109.609C162.74 109.609 162.503 109.293 162.543 108.74V105.659V105.304C162.559 105.186 162.559 105.066 162.543 104.948C162.558 104.778 162.558 104.606 162.543 104.435C162.527 104.264 162.527 104.092 162.543 103.921C162.543 103.921 162.543 103.921 162.543 103.684H162.78C162.847 103.68 162.913 103.696 162.97 103.732C163.027 103.767 163.071 103.82 163.096 103.882C163.096 104.474 163.096 104.79 163.096 104.909V105.304C163.237 105.188 163.345 105.039 163.412 104.869C163.541 104.614 163.7 104.375 163.886 104.158C163.978 104.048 164.092 103.959 164.222 103.898C164.351 103.837 164.493 103.804 164.636 103.803H165.11C165.563 103.973 165.931 104.313 166.137 104.751C166.492 105.655 166.641 106.626 166.572 107.595L166.809 109.767Z" fill="#878787"/>
<path d="M174.55 110.281C174.55 110.281 174.55 110.281 174.273 110.281C174.185 110.293 174.095 110.271 174.022 110.22C173.949 110.168 173.897 110.092 173.878 110.004C173.878 110.004 173.878 109.767 173.878 109.451C173.882 109.386 173.882 109.32 173.878 109.254C173.392 109.594 172.812 109.773 172.219 109.767C171.8 109.726 171.395 109.591 171.034 109.372C170.855 109.283 170.703 109.149 170.592 108.982C170.481 108.816 170.416 108.624 170.402 108.424C170.448 108.194 170.546 107.978 170.69 107.792C170.834 107.607 171.02 107.458 171.232 107.358C171.61 107.076 172.064 106.911 172.535 106.884H173.799C173.833 106.795 173.833 106.697 173.799 106.607C173.891 106.151 173.891 105.681 173.799 105.225C173.77 105.005 173.662 104.803 173.495 104.658C173.327 104.512 173.113 104.433 172.891 104.435C172.686 104.449 172.489 104.515 172.316 104.625C172.144 104.735 172.002 104.887 171.903 105.067C171.664 105.391 171.514 105.772 171.469 106.173C171.469 106.173 171.469 106.173 171.192 106.173C171.156 106.071 171.156 105.959 171.192 105.857C171.212 105.524 171.306 105.2 171.469 104.909C171.589 104.592 171.763 104.298 171.982 104.04C172.091 103.933 172.221 103.849 172.364 103.795C172.507 103.741 172.659 103.717 172.812 103.724C173.329 103.738 173.827 103.918 174.234 104.237C174.445 104.382 174.617 104.577 174.734 104.804C174.852 105.032 174.91 105.285 174.905 105.541L174.55 110.281ZM173.799 108.108C173.799 107.753 173.562 107.555 173.009 107.555C172.604 107.511 172.194 107.579 171.824 107.753C171.636 107.81 171.47 107.924 171.35 108.08C171.23 108.236 171.161 108.425 171.153 108.622C171.156 108.738 171.186 108.853 171.241 108.955C171.296 109.058 171.374 109.147 171.469 109.214C171.678 109.321 171.906 109.388 172.14 109.412C172.549 109.41 172.948 109.286 173.286 109.056C173.448 108.958 173.581 108.819 173.671 108.652C173.761 108.485 173.806 108.298 173.799 108.108Z" fill="#878787"/>
<path d="M211.557 31.9942C211.557 32.1917 211.557 32.3892 211.083 32.5077C210.822 32.5578 210.554 32.5578 210.293 32.5077C209.464 32.5077 208.555 31.7572 207.607 30.3352C206.659 28.9133 206.225 28.2023 205.553 27.1358C203.8 29.2046 202.338 31.5037 201.208 33.9691C200.418 33.7585 200.023 33.324 200.023 32.6657C200.638 31.3484 201.436 30.1249 202.393 29.0318C203.258 27.9949 204.05 26.8995 204.763 25.7534C204.413 24.793 203.949 23.878 203.381 23.028C202.788 22.1214 202.142 21.2509 201.445 20.4211C201.541 20.1614 201.723 19.942 201.959 19.7985C202.196 19.6551 202.474 19.5961 202.749 19.6311C202.931 19.6353 203.109 19.6844 203.267 19.7739C203.426 19.8635 203.56 19.9908 203.657 20.1446C203.657 20.1446 203.894 20.6976 204.289 21.606C204.662 22.6197 205.124 23.5979 205.672 24.5289L208.081 21.685C209.345 20.1841 210.135 19.4336 210.451 19.4336C210.562 19.4364 210.671 19.4667 210.767 19.5219C210.864 19.577 210.945 19.6553 211.004 19.7496C211.155 19.9259 211.239 20.1496 211.241 20.3816C210.544 21.343 209.735 22.2181 208.832 22.9885C207.252 24.6079 206.422 25.5559 206.422 25.9114C206.849 27.0836 207.508 28.1581 208.358 29.0713C209.661 30.7697 210.491 31.6387 210.846 31.6387H211.399L211.557 31.9942Z" fill="#878787"/>
<path d="M222.095 20.8122C222.095 21.7207 221.7 22.5896 221.542 23.4981C221.313 24.3752 221.194 25.2774 221.187 26.184L220.91 35.7427C220.921 36.3365 220.811 36.9262 220.587 37.4762C220.363 38.0262 220.03 38.5249 219.607 38.9421C218.678 39.7441 217.475 40.1547 216.25 40.0876C215.37 40.0114 214.512 39.7702 213.722 39.3766C212.827 39.051 212.063 38.4404 211.549 37.6386C211.51 37.4564 211.51 37.2679 211.549 37.0857C211.536 36.9647 211.55 36.8423 211.591 36.7279C211.633 36.6135 211.7 36.5102 211.788 36.4261C211.876 36.342 211.982 36.2793 212.098 36.243C212.215 36.2067 212.337 36.1977 212.458 36.2167C212.588 36.1911 212.722 36.1911 212.853 36.2167L213.84 37.3227C214.546 37.9816 215.482 38.3363 216.447 38.3101C216.98 38.3913 217.524 38.3103 218.01 38.0779C218.496 37.8454 218.901 37.4722 219.172 37.0067C219.522 35.9775 219.683 34.8936 219.646 33.8073C219.696 33.4006 219.696 32.9894 219.646 32.5828C219.589 32.1238 219.589 31.6594 219.646 31.2003C219.276 31.5735 218.865 31.9047 218.422 32.1878C217.968 32.4561 217.448 32.5929 216.921 32.5828C216.303 32.5994 215.691 32.4507 215.15 32.1521C214.608 31.8536 214.156 31.4159 213.84 30.8844C213.17 29.9293 212.774 28.8093 212.695 27.6455C212.695 24.8806 212.695 22.5501 213.011 20.6937C213.016 20.5553 213.048 20.4193 213.107 20.2939C213.166 20.1685 213.25 20.0563 213.353 19.964C213.456 19.8718 213.577 19.8014 213.708 19.7571C213.84 19.7128 213.979 19.6955 214.117 19.7062C214.867 19.7062 215.223 19.7062 215.144 20.1407C214.559 22.4639 214.293 24.8557 214.354 27.2505C214.354 30.0944 215.065 31.5558 216.684 31.5953C217.671 31.5953 218.501 30.8844 219.133 29.3834C219.599 28.2423 219.841 27.0218 219.844 25.789V22.3131C219.844 21.9971 219.844 21.5232 219.844 21.0097C219.844 20.4962 220.239 20.2592 220.871 20.2987C221.503 20.3382 222.135 20.4172 222.095 20.8122Z" fill="#878787"/>
<path d="M234.193 21.6876C234.2 21.8191 234.2 21.951 234.193 22.0825C234.179 22.1875 234.179 22.2936 234.193 22.3985H233.758H233.363H233.008C231.541 22.0877 230.044 21.942 228.544 21.9641C227.768 21.915 226.99 21.915 226.214 21.9641L225.147 22.201L224.239 22.517C224.239 22.517 223.962 22.517 223.765 22.0825C223.645 21.8753 223.565 21.6476 223.528 21.4111V20.6211H227.991C229.769 20.6211 231.27 20.6211 232.455 20.6211C232.887 20.6275 233.31 20.7503 233.679 20.9766C233.812 21.0498 233.927 21.1516 234.016 21.2745C234.104 21.3974 234.165 21.5385 234.193 21.6876ZM234.193 25.9929L225.147 26.2299C223.962 26.2299 223.37 25.8744 223.37 25.2424C223.37 24.6105 223.37 25.2424 223.37 24.8475C223.351 24.743 223.351 24.6359 223.37 24.5315H223.765H224.594H225.424C225.819 24.5315 226.49 24.5315 227.359 24.5315C228.017 24.4954 228.676 24.4954 229.334 24.5315C229.676 24.5003 230.02 24.5003 230.361 24.5315H231.309C231.684 24.5069 232.055 24.4407 232.415 24.334C232.768 24.2778 233.128 24.2778 233.482 24.334C233.482 24.334 233.758 24.334 233.837 24.6895C233.879 24.8981 233.879 25.1128 233.837 25.3214L234.193 25.9929Z" fill="#878787"/>
<path d="M244.896 34.2838C244.896 34.5603 244.659 34.7182 244.185 34.6787C243.987 34.7024 243.788 34.6504 243.626 34.5332C243.465 34.4161 243.354 34.2423 243.316 34.0468V32.8618C243.377 32.7098 243.377 32.5398 243.316 32.3878C242.237 33.1653 240.933 33.5676 239.603 33.5333C238.665 33.4827 237.755 33.1975 236.957 32.7038C236.547 32.5058 236.201 32.1977 235.957 31.814C235.713 31.4303 235.58 30.9861 235.574 30.5314C235.574 29.7019 236.167 28.8724 237.352 28.122C238.22 27.503 239.249 27.1466 240.314 27.095H243.355C243.502 26.9187 243.573 26.6915 243.553 26.463C243.622 25.43 243.542 24.3925 243.316 23.3821C243.202 22.8525 242.898 22.383 242.461 22.0627C242.025 21.7423 241.485 21.5934 240.946 21.6442C240.495 21.6852 240.061 21.8364 239.683 22.0843C239.304 22.3322 238.992 22.6694 238.774 23.0661C238.2 23.7881 237.868 24.6727 237.826 25.594V25.9495C237.833 25.9822 237.832 26.0162 237.823 26.0485C237.814 26.0807 237.797 26.1101 237.773 26.1338C237.749 26.1575 237.72 26.1748 237.688 26.184C237.655 26.1932 237.621 26.1941 237.589 26.1865C237.324 26.1407 237.086 26.0003 236.917 25.7915C236.726 25.6311 236.599 25.4064 236.562 25.1596C236.594 24.4174 236.741 23.6846 236.996 22.9871C237.27 22.2754 237.672 21.6195 238.181 21.0517C238.423 20.7956 238.718 20.5957 239.046 20.466C239.373 20.3363 239.725 20.2801 240.077 20.3012C241.252 20.2964 242.388 20.7174 243.276 21.4862C243.74 21.8105 244.119 22.242 244.38 22.744C244.642 23.246 244.778 23.8036 244.777 24.3696L244.896 34.2838ZM243.395 29.3859C243.395 28.5564 242.802 28.1615 241.539 28.122C240.635 28.072 239.732 28.2203 238.892 28.5564C238.476 28.7025 238.112 28.9675 237.845 29.3186C237.578 29.6697 237.42 30.0914 237.391 30.5314C237.386 30.7963 237.454 31.0575 237.586 31.2871C237.718 31.5167 237.91 31.706 238.142 31.8348C238.586 32.1297 239.11 32.2814 239.643 32.2693C240.551 32.3048 241.444 32.0258 242.171 31.4794C242.502 31.2405 242.772 30.9259 242.957 30.5618C243.143 30.1977 243.239 29.7945 243.237 29.3859H243.395Z" fill="#878787"/>
<path d="M255.996 26.8966C256.014 28.4281 255.718 29.9471 255.127 31.36C254.91 32.0749 254.464 32.6984 253.857 33.1339C253.25 33.5695 252.516 33.7928 251.769 33.7694C251.239 33.7402 250.718 33.62 250.229 33.4139L248.847 32.8214C248.828 32.9392 248.828 33.0591 248.847 33.1769V33.6509C248.863 33.7952 248.863 33.941 248.847 34.0854C248.847 34.4014 248.649 34.5198 248.294 34.5198C248.131 34.5184 247.971 34.4782 247.826 34.4026C247.682 34.3271 247.558 34.2184 247.464 34.0854C247.23 33.5099 247.136 32.8874 247.188 32.2684C247.151 31.6106 247.151 30.9513 247.188 30.2935L248.215 13.2695H248.649C248.809 13.2816 248.963 13.3307 249.1 13.413C249.237 13.4953 249.353 13.6085 249.439 13.7435C249.664 13.9931 249.79 14.316 249.795 14.652C249.739 15.7787 249.607 16.9004 249.4 18.0094C249.22 19.1079 249.101 20.2156 249.044 21.3273C249.044 21.3273 249.044 21.8013 249.044 22.5122C249.321 22.3439 249.541 22.0962 249.676 21.8013C249.907 21.4244 250.186 21.0792 250.505 20.7743C250.923 20.42 251.459 20.2366 252.006 20.2608C253.038 20.3272 254.002 20.7951 254.692 21.5643C255.402 22.3076 255.883 23.2403 256.075 24.2502C256.147 25.1325 256.121 26.0202 255.996 26.8966ZM254.376 26.8966C254.417 25.8207 254.311 24.7444 254.06 23.6972C253.705 22.2752 253.073 21.5248 252.164 21.5248C251.256 21.5248 250.15 22.2752 249.439 23.9342C248.898 25.1827 248.603 26.5238 248.57 27.8841C248.517 28.9232 248.692 29.9615 249.084 30.9255C249.242 31.4181 249.545 31.8514 249.954 32.1686C250.363 32.4857 250.858 32.672 251.374 32.7029C252.401 32.7029 253.191 31.9919 253.744 30.5305C254.15 29.416 254.364 28.2407 254.376 27.0546V26.8966Z" fill="#878787"/>
<path d="M266.574 24.7265C266.62 24.8811 266.62 25.0458 266.574 25.2005C266.527 25.2734 266.463 25.3333 266.387 25.3748C266.311 25.4162 266.226 25.4378 266.139 25.4375H265.507H264.836C262.929 25.4037 261.027 25.6432 259.187 26.1484C258.952 26.1814 258.712 26.1814 258.476 26.1484C258.215 26.1402 257.964 26.0426 257.765 25.872C257.663 25.7842 257.582 25.675 257.528 25.552C257.473 25.4291 257.446 25.2955 257.449 25.161C257.464 24.9911 257.513 24.8261 257.595 24.6765C257.676 24.5268 257.788 24.3959 257.923 24.292L258.555 23.6995C259.753 22.7762 260.864 21.7449 261.873 20.6186C262.943 19.5516 263.637 18.165 263.848 16.6688C263.852 16.4708 263.815 16.2742 263.74 16.0909C263.666 15.9076 263.555 15.7414 263.414 15.6023C263.097 15.3232 262.69 15.1688 262.268 15.1678C261.685 15.1864 261.121 15.379 260.649 15.7208C260.149 16.0062 259.759 16.4513 259.543 16.9847L259.306 18.1697C259.306 18.6832 258.871 18.9597 258.516 18.9597C258.276 18.9033 258.057 18.7801 257.884 18.6042C257.647 18.6042 257.489 18.2092 257.528 18.0512C257.587 17.2011 257.952 16.401 258.555 15.7998C259.086 15.141 259.762 14.6138 260.53 14.2593C261.138 13.9848 261.799 13.8498 262.466 13.8643C263.282 13.9021 264.056 14.2396 264.638 14.8123C264.938 15.0869 265.175 15.4234 265.332 15.7986C265.488 16.1737 265.562 16.5784 265.547 16.9847C265.399 18.5002 264.696 19.9072 263.572 20.9346C262.465 22.0191 261.305 23.0473 260.096 24.0155L259.622 24.45L265.507 23.6995C265.635 23.6966 265.761 23.7281 265.872 23.7907C265.983 23.8532 266.075 23.9445 266.139 24.055C266.345 24.2327 266.496 24.4657 266.574 24.7265Z" fill="#878787"/>
</g>
<defs>
<clipPath id="clip0_4467_118409">
<rect width="266.577" height="249" fill="white"/>
</clipPath>
</defs>
</svg>
