<svg width="48" height="48" viewBox="0 0 48 48" fill="none" xmlns="http://www.w3.org/2000/svg">
<path d="M5 33.9176C5.10467 33.8816 5.08238 33.7773 5.10467 33.7032C5.58149 32.0942 6.78324 31.1177 8.45793 31.1119C13.4946 31.0914 18.5313 31.109 23.5679 31.1109C23.5679 33.4011 23.567 35.6903 23.567 37.9805C21.0685 37.9834 18.57 37.9873 16.0725 37.9893C13.6342 37.9912 11.1967 37.9893 8.75836 37.9893C6.84914 37.9893 5.71911 37.1794 5.09788 35.3668C5.0785 35.3112 5.07462 35.2459 5 35.2313C5 34.7928 5 34.3552 5 33.9176Z" fill="#54B8FF"/>
<path d="M5 12.8419C5.11242 12.7922 5.08529 12.6742 5.10951 12.5894C5.57083 10.998 6.85398 10.0157 8.51995 10.0127C11.8926 10.0059 15.2643 10.0098 18.6369 10.0108C20.2806 10.0118 21.9243 10.0166 23.5679 10.0196C23.5679 12.3097 23.5679 14.599 23.5689 16.8892C20.0063 16.8921 16.4427 16.897 12.8802 16.896C11.3227 16.896 9.7624 16.9311 8.20692 16.8629C6.67566 16.7956 5.55145 15.8172 5.11533 14.3319C5.09013 14.2462 5.11339 14.1292 5 14.0815C5 13.6683 5 13.2551 5 12.8419Z" fill="#54B8FF"/>
<path d="M5 23.3437C5.12405 23.2735 5.10758 23.1371 5.13956 23.0279C5.55823 21.6109 6.8472 20.5789 8.3048 20.575C13.3686 20.5613 18.4314 20.5691 23.4953 20.5691C23.5195 20.5691 23.5427 20.5759 23.567 20.5789C23.567 22.8593 23.567 25.1407 23.567 27.4212C22.999 27.4251 22.4311 27.4329 21.8642 27.4329C17.4778 27.4339 13.0914 27.4339 8.70506 27.4329C6.822 27.4329 5.67937 26.5987 5.09304 24.7967C5.07462 24.7412 5.07656 24.6739 5.00194 24.6564C5 24.2188 5 23.7812 5 23.3437Z" fill="#54B8FF"/>
<path d="M23.5674 16.8883C23.5674 14.5981 23.5674 12.3089 23.5664 10.0187C23.675 10.0128 23.7825 10.0011 23.8911 10.0011C28.7833 10.0002 33.6756 9.99918 38.5679 10.0011C40.3928 10.0021 41.7428 11.117 42.0975 12.9092C42.4474 14.6761 41.0625 16.6154 39.287 16.8503C38.9507 16.8951 38.6154 16.9146 38.2762 16.9146C33.5167 16.9117 28.7572 16.9126 23.9977 16.9117C23.8552 16.9136 23.7118 16.8971 23.5674 16.8883Z" fill="#0095FF"/>
<path d="M23.5684 37.9794C23.5684 35.6892 23.5693 33.4 23.5693 31.1098C23.6769 31.1011 23.7845 31.0855 23.8921 31.0855C28.7843 31.0845 33.6766 31.0816 38.5689 31.0855C40.3802 31.0864 41.7293 32.1984 42.0888 33.9653C42.4493 35.7331 41.1381 37.6364 39.3607 37.9278C39.098 37.9707 38.8373 37.9999 38.5698 37.9999C33.6776 37.997 28.7853 37.998 23.893 37.997C23.7845 37.997 23.6759 37.9853 23.5684 37.9794Z" fill="#0095FF"/>
<path d="M23.5664 27.4214C23.5664 25.141 23.5664 22.8596 23.5664 20.5791C23.6507 20.5733 23.7341 20.5626 23.8184 20.5626C28.7339 20.5616 33.6504 20.5801 38.5659 20.5528C40.3976 20.5421 41.5625 21.7496 41.9473 22.8605C42.7032 25.0455 41.1477 27.4 38.8557 27.4214C34.7378 27.4595 30.6189 27.438 26.5 27.439C25.5221 27.438 24.5443 27.4273 23.5664 27.4214Z" fill="#0095FF"/>
</svg>
