<svg width="47" height="48" viewBox="0 0 47 48" fill="none" xmlns="http://www.w3.org/2000/svg">
<path d="M25.2163 48H21.4667C21.377 47.9562 21.2824 47.9231 21.185 47.9014C17.3142 47.5089 13.7261 46.2881 10.5052 44.102C4.82014 40.2425 1.39637 34.9134 0.274203 28.1194C0.18781 27.5907 0.093905 27.0639 0 26.5361V22.6926C0.0882707 22.1639 0.169968 21.6333 0.264812 21.1056C1.91754 11.9029 7.16026 5.70518 15.8878 2.41851C16.2005 2.30019 16.5451 2.26262 16.8728 2.1875C16.7686 2.30019 16.671 2.42038 16.5583 2.52368C13.3204 5.50704 12.4077 10.0361 14.252 14.0036C15.0417 15.6967 16.2737 17.0113 17.7912 18.079L14.436 18.0941C12.8828 18.1589 11.2911 18.0255 9.78396 18.3251C3.65103 19.5468 0.323972 26.4169 3.05473 32.0418C4.05763 34.1077 5.60801 35.6261 7.65607 36.6516C9.13602 37.3925 9.87317 38.5926 9.85157 40.2556C9.84312 40.8792 9.83937 41.5036 9.85157 42.1272C9.8619 42.5366 10.0507 42.8352 10.4742 42.9554C10.8601 43.0643 11.155 42.9272 11.3653 42.6202C12.1044 41.5412 12.8312 40.4547 13.5627 39.3711C14.4078 38.1437 15.5648 37.5653 17.0588 37.5869C19.1651 37.6122 21.2723 37.6075 23.3786 37.5869C24.0641 37.5823 24.7481 37.5248 25.4248 37.415C30.7304 36.5379 34.3692 31.1347 33.2245 25.8816C32.6442 23.2213 31.1981 21.1619 28.9678 19.6304C30.8985 19.4275 32.4113 20.0557 33.4443 21.7695C34.0321 22.7433 34.7101 23.6617 35.3599 24.596C35.7224 25.1172 36.3722 25.1726 36.6915 24.69C36.8289 24.4486 36.8999 24.1751 36.8972 23.8974C36.9272 22.6428 36.776 21.3695 37.3301 20.1759C37.8118 19.3993 38.5095 18.8932 39.3021 18.4425C40.1368 17.9622 40.923 17.4021 41.6497 16.77C42.7033 15.861 43.386 14.6628 43.9644 13.4091C45.9862 17.0113 46.9055 20.9084 46.8276 25.0271C46.7337 29.9242 45.265 34.3922 42.353 38.3372C38.4929 43.5664 33.3416 46.6991 26.8991 47.7352C26.3388 47.8247 25.7779 47.913 25.2163 48Z" fill="#FFD300"/>
<path d="M28.9697 19.6255C31.2 21.1571 32.6461 23.2165 33.2264 25.8768C34.3711 31.1298 30.7323 36.5331 25.4267 37.4102C24.7497 37.52 24.0653 37.5775 23.3796 37.582C21.2733 37.6046 19.166 37.6093 17.0597 37.582C15.5657 37.5642 14.4069 38.1455 13.5637 39.3662C13.188 38.0084 12.3429 37.1003 11.0761 36.4552C7.36312 34.5611 5.36951 30.5486 5.91792 26.5013C6.18597 24.566 7.02957 22.756 8.33922 21.3062C9.64886 19.8564 11.3641 18.8337 13.2622 18.371C13.651 18.2771 14.0426 18.1831 14.4323 18.0892L17.7875 18.0742C19.7379 19.2818 21.8696 19.696 24.1439 19.6143C25.7507 19.5626 27.3611 19.6199 28.9697 19.6255ZM17.7631 26.2346C17.5286 26.2336 17.2963 26.2788 17.0793 26.3677C16.8623 26.4565 16.665 26.5873 16.4986 26.7525C16.3322 26.9177 16.2 27.114 16.1095 27.3303C16.0191 27.5466 15.9721 27.7787 15.9714 28.0131C15.9673 28.3701 16.0695 28.7203 16.265 29.0191C16.4606 29.3178 16.7406 29.5516 17.0694 29.6908C17.3982 29.8299 17.761 29.868 18.1116 29.8004C18.4621 29.7327 18.7846 29.5622 19.038 29.3107C19.2914 29.0591 19.4643 28.7379 19.5345 28.3878C19.6048 28.0378 19.5693 27.6747 19.4326 27.3449C19.2959 27.015 19.0641 26.7333 18.7668 26.5356C18.4695 26.3379 18.1201 26.2331 17.7631 26.2346ZM24.3468 26.2346C24.1123 26.2344 23.8802 26.281 23.664 26.3715C23.4478 26.4621 23.2518 26.5948 23.0874 26.7619C22.923 26.9291 22.7936 27.1273 22.7068 27.3451C22.6199 27.5628 22.5772 27.7956 22.5814 28.03C22.5844 28.2649 22.6336 28.4968 22.7263 28.7127C22.819 28.9285 22.9532 29.124 23.1214 29.2879C23.2896 29.4518 23.4885 29.581 23.7066 29.6681C23.9248 29.7552 24.1579 29.7985 24.3928 29.7954C24.6276 29.7924 24.8596 29.7432 25.0754 29.6505C25.2913 29.5578 25.4867 29.4236 25.6507 29.2554C25.8146 29.0871 25.9438 28.8883 26.0309 28.6702C26.118 28.452 26.1612 28.2189 26.1582 27.984C26.1565 27.7495 26.1081 27.5177 26.0157 27.3022C25.9233 27.0867 25.7888 26.8918 25.6201 26.729C25.4513 26.5661 25.2518 26.4386 25.0332 26.3538C24.8145 26.2691 24.5812 26.2289 24.3468 26.2355V26.2346ZM11.155 26.2346C10.9203 26.2332 10.6877 26.2784 10.4706 26.3676C10.2535 26.4568 10.0563 26.5881 9.89033 26.7541C9.72438 26.92 9.59301 27.1173 9.50383 27.3344C9.41465 27.5514 9.36944 27.7841 9.37081 28.0188C9.37204 28.2537 9.41953 28.4861 9.51057 28.7026C9.60161 28.9192 9.73441 29.1157 9.9014 29.2809C10.0684 29.4462 10.2663 29.5769 10.4838 29.6657C10.7013 29.7544 10.9342 29.7995 11.1691 29.7983C11.404 29.797 11.6364 29.7495 11.853 29.6585C12.0695 29.5675 12.266 29.4346 12.4313 29.2677C12.5965 29.1007 12.7272 28.9028 12.816 28.6853C12.9048 28.4678 12.9498 28.2349 12.9486 28C12.9504 27.7653 12.9051 27.5326 12.8152 27.3158C12.7253 27.099 12.5928 26.9024 12.4255 26.7379C12.2582 26.5733 12.0595 26.444 11.8413 26.3577C11.623 26.2714 11.3896 26.2298 11.155 26.2355V26.2346Z" fill="#F7FAFD"/>
<path d="M21.5029 0.167597C21.9818 0.115949 22.4597 0.0211051 22.9387 0.019227C26.9691 0.00701936 30.9976 -0.0145788 35.0252 0.0145318C41.5985 0.0671186 46.2262 6.58788 44.149 12.8194C44.0861 13.0072 44.0288 13.2054 43.9687 13.3979C43.3902 14.6515 42.7075 15.8497 41.6539 16.7587C40.9273 17.3908 40.1411 17.9509 39.3063 18.4312C38.5156 18.8819 37.8179 19.3881 37.3343 20.1647C37.259 20.1106 37.1905 20.0476 37.1305 19.9769C36.2976 18.7336 35.1041 18.2744 33.6457 18.2734C31.0727 18.2734 28.4931 18.3288 25.9295 18.1598C23.3143 17.987 21.1742 16.6902 19.544 14.6665C17.8161 12.5246 17.0696 10.0577 17.434 7.28747C17.7598 4.81589 18.8491 2.76501 20.7432 1.14421C21.1 0.838079 21.4747 0.550729 21.87 0.228635L21.5029 0.167597ZM22.3987 11.7376C22.6336 11.7355 22.8658 11.6872 23.0821 11.5954C23.2983 11.5035 23.4943 11.37 23.659 11.2024C23.8236 11.0348 23.9536 10.8364 24.0416 10.6186C24.1295 10.4007 24.1737 10.1677 24.1716 9.93278C24.1695 9.69786 24.1212 9.46565 24.0294 9.24941C23.9375 9.03318 23.804 8.83715 23.6364 8.67252C23.4688 8.50789 23.2704 8.37788 23.0526 8.28991C22.8347 8.20195 22.6017 8.15775 22.3668 8.15985C21.8923 8.16409 21.439 8.35662 21.1065 8.69509C20.774 9.03357 20.5896 9.49026 20.5939 9.96471C20.5981 10.4391 20.7906 10.8925 21.1291 11.225C21.4676 11.5575 21.9243 11.7419 22.3987 11.7376ZM35.5989 11.7376C35.9515 11.7343 36.2952 11.6269 36.5869 11.4288C36.8786 11.2308 37.1052 10.9509 37.2384 10.6245C37.3715 10.298 37.4053 9.93952 37.3353 9.59396C37.2654 9.2484 37.0949 8.93122 36.8453 8.68224C36.5957 8.43326 36.278 8.2636 35.9323 8.19456C35.5865 8.12553 35.2281 8.16019 34.902 8.2942C34.5759 8.42822 34.2967 8.6556 34.0994 8.9478C33.9021 9.24 33.7956 9.58398 33.7931 9.93653C33.7925 10.1739 33.8389 10.409 33.9297 10.6283C34.0205 10.8476 34.1538 11.0467 34.3219 11.2142C34.4901 11.3816 34.6898 11.5141 34.9095 11.604C35.1291 11.6938 35.3644 11.7392 35.6018 11.7376H35.5989ZM30.7722 9.95344C30.7758 9.71998 30.7331 9.48813 30.6465 9.27129C30.56 9.05445 30.4313 8.85692 30.2679 8.69013C30.1045 8.52334 29.9097 8.39059 29.6947 8.29957C29.4797 8.20855 29.2487 8.16107 29.0153 8.15985C28.5408 8.15985 28.0858 8.34832 27.7503 8.68381C27.4148 9.01929 27.2264 9.4743 27.2264 9.94874C27.2264 10.4232 27.4148 10.8782 27.7503 11.2137C28.0858 11.5492 28.5408 11.7376 29.0153 11.7376C29.2485 11.7375 29.4795 11.6911 29.6947 11.601C29.9099 11.5108 30.105 11.3788 30.2687 11.2127C30.4324 11.0465 30.5615 10.8494 30.6484 10.6329C30.7354 10.4164 30.7784 10.1848 30.775 9.95156L30.7722 9.95344Z" fill="#EE4181"/>
<path d="M21.503 0.167969L21.8664 0.234641C21.4683 0.556735 21.0936 0.844085 20.7395 1.15021C18.8455 2.77102 17.7562 4.8219 17.4303 7.29348C17.066 10.0637 17.8125 12.5306 19.5404 14.6725C21.1734 16.6962 23.3135 17.993 25.9259 18.1658C28.4895 18.3348 31.0691 18.2785 33.6421 18.2794C35.1004 18.2794 36.294 18.7396 37.1269 19.9829C37.1869 20.0536 37.2553 20.1166 37.3307 20.1707C36.7766 21.3642 36.9278 22.6376 36.8978 23.8921C36.9005 24.1699 36.8296 24.4433 36.6921 24.6847C36.3729 25.1702 35.723 25.1148 35.3606 24.5908C34.7107 23.6564 34.0327 22.738 33.4449 21.7642C32.4119 20.0505 30.8991 19.4222 28.9684 19.6251C27.3599 19.6194 25.7494 19.5622 24.1436 19.6194C21.8692 19.7011 19.7376 19.287 17.7872 18.0794C16.2725 17.0117 15.0405 15.697 14.2507 14.0002C12.4064 10.0346 13.3192 5.50365 16.557 2.52029C16.6697 2.41699 16.7674 2.2968 16.8716 2.18411C18.0079 1.41127 19.1713 0.693837 20.5273 0.363291C20.6926 0.322912 20.8616 0.299436 21.0288 0.269386L21.3734 0.198018L21.503 0.167969Z" fill="#ED2472"/>
<path d="M14.4334 18.0938C14.0437 18.1877 13.6521 18.275 13.2633 18.3755C11.3652 18.8382 9.64998 19.8609 8.34033 21.3107C7.03069 22.7605 6.18709 24.5705 5.91904 26.5058C5.37063 30.5559 7.36423 34.5684 11.0772 36.4597C12.345 37.1058 13.1882 38.0138 13.5648 39.3707C12.8333 40.4544 12.1064 41.5409 11.3674 42.6199C11.1571 42.9269 10.8622 43.064 10.4762 42.9551C10.0527 42.8349 9.86398 42.5363 9.85365 42.1269C9.83675 41.5033 9.84051 40.8789 9.85365 40.2553C9.87525 38.5923 9.1381 37.3922 7.65816 36.6513C5.61009 35.6258 4.05972 34.1074 3.05681 32.0415C0.32136 26.4165 3.64841 19.5465 9.78135 18.3257C11.2885 18.0252 12.8802 18.1585 14.4334 18.0938Z" fill="#DDDDDD"/>
<path d="M21.3751 0.197266L21.0352 0.268633L21.3751 0.197266Z" fill="#EE4181"/>
<path d="M17.7686 26.2344C18.2421 26.2316 18.6975 26.416 19.0357 26.7473C19.3739 27.0787 19.5675 27.5302 19.5744 28.0036C19.5805 28.2432 19.5386 28.4816 19.4512 28.7049C19.3639 28.9281 19.2328 29.1316 19.0657 29.3035C18.8985 29.4753 18.6988 29.612 18.4781 29.7056C18.2574 29.7992 18.0202 29.8477 17.7805 29.8483C17.5408 29.8489 17.3033 29.8017 17.0822 29.7092C16.861 29.6168 16.6605 29.4812 16.4925 29.3102C16.3245 29.1392 16.1923 28.9364 16.1038 28.7136C16.0152 28.4908 15.9721 28.2526 15.9769 28.013C15.9777 27.7785 16.0246 27.5465 16.1151 27.3302C16.2055 27.1139 16.3377 26.9175 16.5041 26.7523C16.6705 26.5872 16.8679 26.4564 17.0848 26.3675C17.3018 26.2787 17.5342 26.2334 17.7686 26.2344Z" fill="#7A59A5"/>
<path d="M24.3516 26.2351C24.5861 26.2284 24.8195 26.2687 25.0382 26.3535C25.2569 26.4383 25.4565 26.5659 25.6252 26.7289C25.794 26.8918 25.9285 27.0868 26.0208 27.3024C26.1132 27.5181 26.1615 27.75 26.1631 27.9845C26.1692 28.4588 25.9866 28.9162 25.6555 29.2559C25.3244 29.5956 24.872 29.7899 24.3976 29.796C23.9233 29.8021 23.466 29.6195 23.1263 29.2884C22.7866 28.9573 22.5923 28.5049 22.5862 28.0305C22.5821 27.7962 22.6247 27.5633 22.7116 27.3456C22.7985 27.1278 22.9279 26.9296 23.0923 26.7625C23.2566 26.5953 23.4526 26.4626 23.6689 26.372C23.8851 26.2815 24.1172 26.2349 24.3516 26.2351Z" fill="#7A59A5"/>
<path d="M11.1551 26.2349C11.3896 26.2292 11.6229 26.2707 11.8411 26.357C12.0593 26.4432 12.258 26.5724 12.4253 26.7369C12.5926 26.9014 12.7251 27.0978 12.815 27.3145C12.9049 27.5312 12.9504 27.7638 12.9487 27.9984C12.9539 28.3531 12.8535 28.7013 12.6604 28.9988C12.4672 29.2964 12.19 29.5297 11.8639 29.6693C11.5378 29.8089 11.1775 29.8483 10.8289 29.7827C10.4803 29.717 10.1591 29.5493 9.90612 29.3006C9.65312 29.052 9.47974 28.7338 9.40803 28.3864C9.33632 28.039 9.36951 27.6781 9.50338 27.3496C9.63724 27.0211 9.86575 26.7398 10.1599 26.5415C10.454 26.3432 10.8004 26.2368 11.1551 26.2358V26.2349Z" fill="#7A59A5"/>
<path d="M22.4026 11.738C21.9281 11.7422 21.4714 11.5578 21.133 11.2253C20.7945 10.8929 20.602 10.4395 20.5977 9.96508C20.5935 9.49064 20.7779 9.03395 21.1104 8.69547C21.4429 8.35699 21.8962 8.16446 22.3707 8.16023C22.6056 8.15813 22.8386 8.20233 23.0564 8.29029C23.2743 8.37825 23.4727 8.50826 23.6403 8.67289C23.8079 8.83752 23.9414 9.03355 24.0332 9.24979C24.1251 9.46603 24.1734 9.69823 24.1755 9.93315C24.1776 10.1681 24.1334 10.4011 24.0454 10.6189C23.9575 10.8368 23.8275 11.0352 23.6628 11.2028C23.4982 11.3704 23.3022 11.5039 23.0859 11.5957C22.8697 11.6876 22.6375 11.7359 22.4026 11.738Z" fill="#F7F8FC"/>
<path d="M35.6035 11.738C35.129 11.7406 34.673 11.5546 34.3356 11.221C33.9983 10.8873 33.8073 10.4334 33.8047 9.95893C33.8021 9.48449 33.9881 9.02844 34.3217 8.69111C34.6553 8.35378 35.1093 8.1628 35.5837 8.16018C36.0582 8.15757 36.5142 8.34353 36.8516 8.67717C37.1889 9.0108 37.3799 9.46477 37.3825 9.93921C37.3851 10.4137 37.1991 10.8697 36.8655 11.207C36.5319 11.5444 36.0779 11.7353 35.6035 11.738Z" fill="#F7F8FC"/>
<path d="M30.777 9.95179C30.7801 10.1854 30.7367 10.4172 30.6493 10.6339C30.5619 10.8505 30.4323 11.0476 30.268 11.2137C30.1037 11.3797 29.908 11.5114 29.6923 11.6011C29.4765 11.6908 29.2451 11.7366 29.0115 11.736C28.5371 11.736 28.0821 11.5475 27.7466 11.212C27.4111 10.8765 27.2227 10.4215 27.2227 9.94709C27.2227 9.47265 27.4111 9.01764 27.7466 8.68216C28.0821 8.34667 28.5371 8.1582 29.0115 8.1582C29.2457 8.1583 29.4776 8.20497 29.6936 8.29549C29.9095 8.38601 30.1054 8.51858 30.2697 8.68548C30.4339 8.85238 30.5634 9.05029 30.6505 9.26769C30.7376 9.48508 30.7806 9.71763 30.777 9.95179Z" fill="#F7F8FC"/>
</svg>
