<svg width="48" height="48" viewBox="0 0 48 48" fill="none" xmlns="http://www.w3.org/2000/svg">
<path d="M23.9998 32.5619C23.2806 32.5619 22.5608 32.57 21.8416 32.5582C21.6056 32.5544 21.4138 32.6155 21.2199 32.7515C18.1662 34.8958 15.1083 37.0348 12.0493 39.1716C11.9476 39.2428 11.8394 39.4013 11.7249 39.3414C11.5896 39.2707 11.6652 39.0848 11.6652 38.951C11.6609 36.9469 11.6572 34.9429 11.6679 32.9389C11.6695 32.6562 11.6007 32.5533 11.3003 32.5394C9.03667 32.435 7.03303 30.4064 7.02078 28.1239C6.99307 22.9066 6.99307 17.6893 7.02078 12.4721C7.03303 10.1585 9.0633 8.09132 11.3679 8.05651C14.6107 8.00724 17.8546 8.03616 21.0979 8.03241C22.0648 8.03134 23.0323 8.03187 23.9992 8.03187C24.0019 10.3824 24.0045 12.7329 24.0072 15.0834C23.866 15.0887 23.7249 15.0978 23.5842 15.0978C21.2263 15.0989 18.8679 15.1048 16.51 15.0909C16.1828 15.0887 16.0438 15.1487 16.0763 15.5102C16.1109 15.8985 16.1104 16.2942 16.0763 16.6825C16.0449 17.0392 16.1749 17.1056 16.5068 17.104C19.0064 17.0922 21.5055 17.1018 24.0051 17.1045C24.0061 17.8543 24.0067 18.604 24.0077 19.3538C23.8666 19.3592 23.7254 19.3683 23.5847 19.3683C21.2268 19.3693 18.8684 19.3752 16.5105 19.3613C16.1834 19.3592 16.0443 19.4191 16.0768 19.7806C16.1115 20.1689 16.1109 20.5647 16.0768 20.9529C16.0454 21.3096 16.1754 21.376 16.5073 21.3744C19.0069 21.3626 21.506 21.3723 24.0056 21.3749C24.0067 22.1247 24.0072 22.8745 24.0083 23.6242C23.8671 23.6296 23.7259 23.6392 23.5853 23.6392C21.2268 23.6403 18.8689 23.6462 16.511 23.6323C16.1839 23.6301 16.0449 23.6896 16.0774 24.0511C16.112 24.4393 16.1115 24.8351 16.0774 25.2234C16.0459 25.58 16.1759 25.6464 16.5073 25.6448C19.0069 25.6331 21.5065 25.6427 24.0056 25.6454C24.0035 27.9504 24.0014 30.2564 23.9998 32.5619Z" fill="#FEDA2D"/>
<path d="M24.008 15.0842C24.0053 12.7337 24.0027 10.3832 24 8.03267C24.1055 8.02464 24.2104 8.01018 24.3159 8.01018C28.2438 8.00589 32.1722 8.00054 36.1007 8C37.2402 8 38.2892 8.29562 39.1922 9.02235C40.3131 9.92474 40.9678 11.1062 40.9763 12.5419C41.0083 17.7126 41.0083 22.8838 40.98 28.0545C40.9673 30.3798 39.0398 32.3742 36.7352 32.5504C36.3479 32.5798 35.9584 32.5954 35.5695 32.5959C31.9362 32.5991 28.3024 32.5986 24.6691 32.5964C24.4459 32.5964 24.2232 32.5745 24 32.5627C24.0016 30.2572 24.0032 27.9511 24.0048 25.6456L24 25.6258C26.5481 25.6296 29.0957 25.6306 31.6438 25.6419C31.8728 25.643 31.9203 25.5562 31.9155 25.3505C31.9037 24.8766 31.9011 24.4016 31.9165 23.9276C31.9245 23.6888 31.8382 23.6282 31.6107 23.6298C30.2895 23.6395 28.9683 23.6325 27.6471 23.6352C26.4325 23.6373 25.2178 23.6448 24.0032 23.6497L24.0085 23.6245C24.0075 22.8747 24.0069 22.125 24.0059 21.3752L24.0011 21.3554C26.5609 21.3591 29.1202 21.3613 31.68 21.3698C31.8755 21.3704 31.9176 21.2895 31.9149 21.1155C31.9075 20.6292 31.9016 20.1429 31.9171 19.6572C31.9245 19.4183 31.8387 19.3562 31.6107 19.3594C30.8324 19.3717 30.0535 19.3626 29.2752 19.3642C27.5177 19.3685 25.7607 19.3739 24.0032 19.3792L24.0085 19.3541C24.0075 18.6043 24.0069 17.8545 24.0059 17.1048L24.0011 17.085C26.5609 17.0887 29.1202 17.0909 31.68 17.0994C31.8755 17.1 31.9176 17.0191 31.9149 16.845C31.9075 16.3588 31.9016 15.8725 31.9171 15.3868C31.9245 15.1479 31.8387 15.0858 31.6107 15.089C30.8324 15.1013 30.0535 15.0922 29.2752 15.0938C27.5177 15.0981 25.7607 15.1035 24.0032 15.1088L24.008 15.0842Z" fill="#FEA920"/>
<path d="M24.0056 17.1032C21.506 17.1005 19.0064 17.0909 16.5073 17.1026C16.1754 17.1042 16.0454 17.0378 16.0769 16.6812C16.111 16.2929 16.1115 15.8971 16.0769 15.5089C16.0444 15.1474 16.1834 15.0879 16.5105 15.0895C18.8684 15.1035 21.2269 15.0976 23.5848 15.0965C23.726 15.0965 23.8671 15.0869 24.0078 15.082L24.0025 15.1072C24.0019 15.7659 24.0009 16.4246 24.0003 17.0834L24.0056 17.1032Z" fill="#FEFEFE"/>
<path d="M24.0056 21.3766C21.506 21.3739 19.0064 21.3643 16.5073 21.3761C16.1754 21.3777 16.0454 21.3113 16.0769 20.9546C16.111 20.5663 16.1115 20.1706 16.0769 19.7823C16.0444 19.4208 16.1834 19.3614 16.5105 19.363C18.8684 19.3769 21.2269 19.371 23.5848 19.3699C23.726 19.3699 23.8671 19.3603 24.0078 19.3555L24.0025 19.3806C24.0019 20.0394 24.0009 20.6981 24.0003 21.3568L24.0056 21.3766Z" fill="#FEFEFE"/>
<path d="M24.0052 25.6461C21.5056 25.6435 19.006 25.6338 16.5069 25.6456C16.175 25.6472 16.045 25.5808 16.077 25.2241C16.1111 24.8359 16.1116 24.4401 16.077 24.0518C16.0445 23.6903 16.184 23.6309 16.5106 23.633C18.8685 23.647 21.227 23.6411 23.5849 23.64C23.726 23.64 23.8672 23.6304 24.0079 23.625L24.0025 23.6502C24.002 24.3089 24.0009 24.9676 24.0004 25.6263L24.0052 25.6461Z" fill="#FEFEFE"/>
<path d="M24 17.086C24.0005 16.4273 24.0016 15.7685 24.0021 15.1098C25.7596 15.105 27.5166 15.0991 29.2741 15.0948C30.0525 15.0932 30.8313 15.1023 31.6097 15.09C31.8377 15.0863 31.9235 15.1489 31.916 15.3878C31.9005 15.8735 31.9064 16.3603 31.9139 16.846C31.9165 17.0206 31.8744 17.1015 31.6789 17.1004C29.1191 17.0919 26.5593 17.0897 24 17.086Z" fill="#E0E0E1"/>
<path d="M24 21.3555C24.0005 20.6968 24.0016 20.0381 24.0021 19.3793C25.7596 19.3745 27.5166 19.3686 29.2741 19.3644C30.0525 19.3627 30.8313 19.3718 31.6097 19.3595C31.8377 19.3558 31.9235 19.4184 31.916 19.6573C31.9005 20.143 31.9064 20.6298 31.9139 21.1156C31.9165 21.2902 31.8744 21.371 31.6789 21.37C29.1191 21.3614 26.5593 21.3593 24 21.3555Z" fill="#E0E0E1"/>
<path d="M24 25.6249C24.0005 24.9662 24.0016 24.3075 24.0021 23.6488C25.2168 23.6439 26.4314 23.6364 27.6461 23.6343C28.9673 23.6316 30.2885 23.6386 31.6097 23.6289C31.8377 23.6273 31.9235 23.6878 31.9155 23.9267C31.9 24.4007 31.9032 24.8757 31.9144 25.3496C31.9192 25.5553 31.8723 25.642 31.6427 25.641C29.0957 25.6297 26.5476 25.6287 24 25.6249Z" fill="#E0E0E1"/>
</svg>
