<svg width="36" height="36" viewBox="0 0 36 36" fill="none" xmlns="http://www.w3.org/2000/svg">
<path d="M29.3941 6.74609C30.5405 7.01358 31.6869 7.28483 32.8342 7.54762C33.8914 7.78977 34.9344 8.09011 36.0019 8.28626C36.0019 16.1288 36.0019 23.9705 36.0019 31.813C34.3809 31.4282 32.76 31.0453 31.14 30.6577C30.5527 30.5169 29.9682 30.362 29.3828 30.2138C29.3856 30.0739 29.3894 29.9331 29.3894 29.7933C29.3922 22.1103 29.3931 14.4282 29.3941 6.74609Z" fill="#E43950"/>
<path d="M18.0017 6.88994C16.9492 6.96784 16.9492 6.96784 16.9492 5.94575C16.9492 3.96352 16.9492 1.98129 16.9492 0C17.3007 0 17.6521 0 18.0035 0C18.0026 2.29665 18.0026 4.59329 18.0017 6.88994Z" fill="#53E161"/>
<path d="M18 6.88994C18.0009 4.59329 18.0019 2.29665 18.0019 0C18.3533 0 18.7048 0 19.0562 0C19.0562 2.19622 19.0515 4.39151 19.0628 6.58773C19.0637 6.84958 18.9989 6.94344 18.7339 6.91434C18.4914 6.88806 18.2443 6.89651 18 6.88994Z" fill="#00CA71"/>
<path d="M29.3911 6.74816C29.3901 14.4302 29.3892 22.1123 29.3873 29.7944C29.3873 29.9343 29.3826 30.075 29.3807 30.2149C28.0276 29.8967 26.6754 29.5795 25.3232 29.2604C24.5621 29.0802 23.8028 28.8887 23.0389 28.7198C22.7927 28.6653 22.7109 28.563 22.7109 28.3002C22.7194 20.6857 22.7185 13.0722 22.7138 5.45765C22.7138 5.20987 22.7279 5.10945 23.0314 5.18453C25.0949 5.69511 27.1631 6.18503 29.2304 6.68247C29.2858 6.69654 29.3375 6.72658 29.3911 6.74816Z" fill="#FE6C6C"/>
<path d="M6.67624 6.73258C7.99084 6.40783 9.30545 6.08216 10.621 5.76023C11.416 5.56595 12.2156 5.39044 13.0059 5.1802C13.2681 5.11075 13.2897 5.19334 13.2887 5.41484C13.2831 7.65048 13.285 9.88519 13.285 12.1208C13.285 17.5044 13.2822 22.8879 13.2934 28.2715C13.2944 28.5718 13.1948 28.6629 12.9251 28.7267C10.9339 29.195 8.94649 29.6784 6.9572 30.1561C6.86699 30.1777 6.77397 30.1833 6.68188 30.1974C6.62362 30.006 6.61328 29.8098 6.61328 29.6099C6.61516 22.2037 6.61516 14.7966 6.61328 7.3905C6.61422 7.16806 6.62456 6.94938 6.67624 6.73258Z" fill="#E43950"/>
<path d="M6.67599 6.73438C6.62431 6.95118 6.61303 7.1708 6.61397 7.39324C6.61585 14.7994 6.61585 22.2065 6.61397 29.6126C6.61397 29.8125 6.62337 30.0087 6.68257 30.2002C5.63013 30.5146 4.55232 30.7323 3.48673 30.9942C2.40893 31.2588 1.32736 31.5113 0.249555 31.7797C0.0644396 31.8257 -0.0182517 31.8032 0.00336079 31.5986C0.00805917 31.5526 0.00430047 31.5047 0.00430047 31.4588C0.00430047 23.8658 0.00524014 16.2729 0.00148145 8.68C0.00148145 8.45663 0.00242113 8.30833 0.2956 8.23982C2.36758 7.7574 4.43393 7.24964 6.50215 6.75127C6.55759 6.73813 6.61773 6.74001 6.67599 6.73438Z" fill="#FE6C6C"/>
<path d="M18.0023 16.5723C16.9471 16.6474 16.9471 16.6474 16.9471 15.6262C16.9471 13.7548 16.9518 11.8842 16.9415 10.0127C16.9396 9.75651 16.995 9.6514 17.2675 9.68049C17.5109 9.70677 17.758 9.69363 18.0042 9.69738C18.0033 11.9893 18.0033 14.2813 18.0023 16.5723Z" fill="#53E161"/>
<path d="M18.0039 16.5725C18.0039 14.2815 18.0048 11.9895 18.0048 9.6985C18.3412 9.68067 18.7669 9.55772 18.9887 9.73604C19.2029 9.90874 19.0526 10.3489 19.0545 10.6699C19.061 12.5358 19.0526 14.4016 19.0639 16.2675C19.0657 16.5284 19.0018 16.6222 18.7369 16.5931C18.4954 16.5669 18.2492 16.5781 18.0039 16.5725Z" fill="#00CA71"/>
<path d="M18.005 26.2578C17.6676 26.271 17.242 26.3995 17.0183 26.2146C16.8031 26.0363 16.9535 25.5989 16.9526 25.277C16.945 23.4177 16.9535 21.5585 16.9432 19.6992C16.9422 19.4467 16.993 19.3341 17.2673 19.3641C17.5107 19.3913 17.7579 19.3791 18.0031 19.3838C18.004 21.6748 18.004 23.9668 18.005 26.2578Z" fill="#53E161"/>
<path d="M18.0088 26.2585C18.0088 23.9675 18.0078 21.6756 18.0078 19.3846C18.3442 19.3611 18.7708 19.2428 18.9926 19.4202C19.2078 19.592 19.0574 20.0331 19.0584 20.355C19.0659 22.2209 19.0565 24.0867 19.0678 25.9526C19.0696 26.2126 19.0086 26.3073 18.7426 26.2783C18.5002 26.2501 18.2531 26.2632 18.0088 26.2585Z" fill="#00CA71"/>
<path d="M18.0015 35.9475C17.6642 35.9588 17.2385 36.0874 17.0149 35.9044C16.7988 35.727 16.9501 35.2896 16.9482 34.9667C16.9407 33.13 16.9557 31.2942 16.935 29.4574C16.9313 29.1045 17.0393 29.006 17.3663 29.0482C17.574 29.0745 17.7864 29.0632 17.9969 29.0689C17.9987 31.3618 18.0006 33.6546 18.0015 35.9475Z" fill="#53E161"/>
<path d="M18.0047 35.9456C18.0028 33.6527 18.0019 31.3598 18 29.0669C19.0571 28.9711 19.0571 28.9711 19.0571 29.9989C19.0571 31.8779 19.0515 33.7568 19.0637 35.6358C19.0656 35.893 19.0092 35.9925 18.7395 35.9625C18.4971 35.9343 18.25 35.9493 18.0047 35.9456Z" fill="#00CA71"/>
</svg>
