<svg width="80" height="80" viewBox="0 0 80 80" fill="none" xmlns="http://www.w3.org/2000/svg">
<path d="M12 41.5156C12.5912 41.5268 13.1834 41.5468 13.7746 41.5468C17.0164 41.5468 20.258 41.5468 23.4991 41.5468H24.0735C24.3062 43.9849 24.4409 46.3539 24.7816 48.693C25.1156 51.013 25.6644 53.3019 26.1298 55.6643C25.5141 55.8558 24.7938 56.025 24.1158 56.3022C22.388 57.0103 20.6836 57.7584 18.968 58.5043C18.6953 58.6234 18.5227 58.7192 18.2733 58.4041C15.3398 54.7058 13.4038 50.5521 12.5132 45.9175C12.3151 44.8833 12.2371 43.8257 12.0991 42.7792C12.0779 42.6178 12.0334 42.4563 12 42.2949V41.5156Z" fill="white"/>
<path d="M12 38.8423C12.1447 37.7647 12.2638 36.6826 12.4453 35.6138C13.0106 32.1895 14.2283 28.9055 16.0323 25.9405C16.7693 24.7048 17.6377 23.547 18.378 22.4648L26.2033 25.582C24.9201 30.1153 24.2462 34.7992 24.1993 39.5103H12V38.8423Z" fill="white"/>
<path d="M39.3441 68.9983C37.8189 68.6298 36.4173 68.0119 35.1905 67.0089C33.3669 65.5193 31.9842 63.6746 30.9054 61.6072C30.1551 60.1678 29.525 58.6659 28.8047 57.1151C32.3006 56.3205 35.8706 55.897 39.4555 55.8516V68.9983H39.3441Z" fill="white"/>
<path d="M41.4453 69V55.8633C45.0234 55.8855 48.5046 56.3264 52.0215 57.0879C51.7198 57.8449 51.4571 58.5663 51.1465 59.2677C49.9686 61.9251 48.5469 64.4255 46.3827 66.4261C45.0412 67.6652 43.5305 68.5959 41.698 68.9143C41.647 68.9335 41.5999 68.9618 41.5589 68.9978L41.4453 69Z" fill="white"/>
<path d="M62.4716 58.5869L54.7031 55.4909C55.9858 50.9682 56.6598 46.2946 56.707 41.5938H68.893C68.5991 48.0174 66.4338 53.6962 62.4716 58.5869Z" fill="white"/>
<path d="M68.8941 39.482H56.707C56.6565 34.7801 55.98 30.1059 54.6953 25.5826L62.466 22.4844C66.426 27.3639 68.5891 33.0416 68.8941 39.482Z" fill="white"/>
<path d="M26.2266 41.5781H39.3989V53.7463C37.5364 53.8932 35.6705 53.9823 33.8203 54.2027C31.97 54.4232 30.1364 54.775 28.2227 55.0811C26.9511 50.6908 26.2797 46.1486 26.2266 41.5781Z" fill="white"/>
<path d="M52.6707 55.1502C49.0006 54.3202 45.2545 53.8725 41.4922 53.8142V41.5938H54.6768C54.6184 46.182 53.9437 50.7417 52.6707 55.1502Z" fill="white"/>
<path d="M26.2266 39.4677C26.2876 34.8812 26.9653 30.3237 28.2416 25.918C31.908 26.7466 35.6495 27.1984 39.4078 27.2662V39.4677H26.2266Z" fill="white"/>
<path d="M41.4766 39.4722V27.2706C45.225 27.1827 48.9278 26.7785 52.655 25.918C53.9365 30.3244 54.6169 34.8836 54.6779 39.4722H41.4766Z" fill="white"/>
<path d="M39.4044 25.2102C35.8636 25.1696 32.3369 24.7558 28.8828 23.9756C29.8258 21.4395 30.9257 19.0281 32.5288 16.8717C33.7145 15.2797 35.0749 13.8659 36.865 12.9752C37.6455 12.5778 38.5016 12.334 39.4044 12V25.2102Z" fill="white"/>
<path d="M41.5 12.1289C43.0207 12.3438 44.3122 12.9872 45.4878 13.8879C47.4828 15.4164 48.9389 17.3958 50.0778 19.6013C50.8059 21.0062 51.4138 22.4724 52.0962 23.9598C48.6182 24.7497 45.0664 25.1695 41.5 25.2122V12.1289Z" fill="white"/>
<path d="M19.9922 60.2835C21.0498 59.5398 25.1845 57.9311 26.8856 57.6172C28.1466 61.5755 30.3525 65.1672 33.3126 68.082C29.1567 67.3506 22.1497 63.2281 19.9922 60.2835Z" fill="white"/>
<path d="M47.7266 13.043C52.8621 14.3689 57.2518 16.9495 60.9891 20.7959C58.7773 21.9519 56.4426 22.8557 54.0289 23.49C52.7735 19.5629 50.615 15.9848 47.7266 13.043Z" fill="white"/>
<path d="M26.8832 23.4828C24.4696 22.8506 22.1345 21.9495 19.9219 20.7964C23.6569 16.9534 28.0488 14.3761 33.1844 13.0391C30.295 15.9787 28.1366 19.5561 26.8832 23.4828Z" fill="white"/>
<path d="M47.6953 68.0497C50.5964 65.1137 52.7627 61.5337 54.0176 57.6016C56.4413 58.2128 58.7101 59.1123 60.9868 60.2734C57.3673 64.0532 52.7638 66.7466 47.6953 68.0497Z" fill="white"/>
<path d="M12 41.5156C12.5912 41.5268 13.1834 41.5468 13.7746 41.5468C17.0164 41.5468 20.258 41.5468 23.4991 41.5468H24.0735C24.3062 43.9849 24.4409 46.3539 24.7816 48.693C25.1156 51.013 25.6644 53.3019 26.1298 55.6643C25.5141 55.8558 24.7938 56.025 24.1158 56.3022C22.388 57.0103 20.6836 57.7584 18.968 58.5043C18.6953 58.6234 18.5227 58.7192 18.2733 58.4041C15.3398 54.7058 13.4038 50.5521 12.5132 45.9175C12.3151 44.8833 12.2371 43.8257 12.0991 42.7792C12.0779 42.6178 12.0334 42.4563 12 42.2949V41.5156Z" fill="url(#paint0_linear_4945_421730)"/>
<path d="M12 38.8423C12.1447 37.7647 12.2638 36.6826 12.4453 35.6138C13.0106 32.1895 14.2283 28.9055 16.0323 25.9405C16.7693 24.7048 17.6377 23.547 18.378 22.4648L26.2033 25.582C24.9201 30.1153 24.2462 34.7992 24.1993 39.5103H12V38.8423Z" fill="url(#paint1_linear_4945_421730)"/>
<path d="M39.3441 68.9983C37.8189 68.6298 36.4173 68.0119 35.1905 67.0089C33.3669 65.5193 31.9842 63.6746 30.9054 61.6072C30.1551 60.1678 29.525 58.6659 28.8047 57.1151C32.3006 56.3205 35.8706 55.897 39.4555 55.8516V68.9983H39.3441Z" fill="url(#paint2_linear_4945_421730)"/>
<path d="M41.4453 69V55.8633C45.0234 55.8855 48.5046 56.3264 52.0215 57.0879C51.7198 57.8449 51.4571 58.5663 51.1465 59.2677C49.9686 61.9251 48.5469 64.4255 46.3827 66.4261C45.0412 67.6652 43.5305 68.5959 41.698 68.9143C41.647 68.9335 41.5999 68.9618 41.5589 68.9978L41.4453 69Z" fill="url(#paint3_linear_4945_421730)"/>
<path d="M62.4716 58.5869L54.7031 55.4909C55.9858 50.9682 56.6598 46.2946 56.707 41.5938H68.893C68.5991 48.0174 66.4338 53.6962 62.4716 58.5869Z" fill="url(#paint4_linear_4945_421730)"/>
<path d="M68.8941 39.482H56.707C56.6565 34.7801 55.98 30.1059 54.6953 25.5826L62.466 22.4844C66.426 27.3639 68.5891 33.0416 68.8941 39.482Z" fill="url(#paint5_linear_4945_421730)"/>
<path d="M26.2266 41.5781H39.3989V53.7463C37.5364 53.8932 35.6705 53.9823 33.8203 54.2027C31.97 54.4232 30.1364 54.775 28.2227 55.0811C26.9511 50.6908 26.2797 46.1486 26.2266 41.5781Z" fill="url(#paint6_linear_4945_421730)"/>
<path d="M52.6707 55.1502C49.0006 54.3202 45.2545 53.8725 41.4922 53.8142V41.5938H54.6768C54.6184 46.182 53.9437 50.7417 52.6707 55.1502Z" fill="url(#paint7_linear_4945_421730)"/>
<path d="M26.2266 39.4677C26.2876 34.8812 26.9653 30.3237 28.2416 25.918C31.908 26.7466 35.6495 27.1984 39.4078 27.2662V39.4677H26.2266Z" fill="url(#paint8_linear_4945_421730)"/>
<path d="M41.4766 39.4722V27.2706C45.225 27.1827 48.9278 26.7785 52.655 25.918C53.9365 30.3244 54.6169 34.8836 54.6779 39.4722H41.4766Z" fill="url(#paint9_linear_4945_421730)"/>
<path d="M39.4044 25.2102C35.8636 25.1696 32.3369 24.7558 28.8828 23.9756C29.8258 21.4395 30.9257 19.0281 32.5288 16.8717C33.7145 15.2797 35.0749 13.8659 36.865 12.9752C37.6455 12.5778 38.5016 12.334 39.4044 12V25.2102Z" fill="url(#paint10_linear_4945_421730)"/>
<path d="M41.5 12.1289C43.0207 12.3438 44.3122 12.9872 45.4878 13.8879C47.4828 15.4164 48.9389 17.3958 50.0778 19.6013C50.8059 21.0062 51.4138 22.4724 52.0962 23.9598C48.6182 24.7497 45.0664 25.1695 41.5 25.2122V12.1289Z" fill="url(#paint11_linear_4945_421730)"/>
<path d="M19.9922 60.2835C21.0498 59.5398 25.1845 57.9311 26.8856 57.6172C28.1466 61.5755 30.3525 65.1672 33.3126 68.082C29.1567 67.3506 22.1497 63.2281 19.9922 60.2835Z" fill="url(#paint12_linear_4945_421730)"/>
<path d="M47.7266 13.043C52.8621 14.3689 57.2518 16.9495 60.9891 20.7959C58.7773 21.9519 56.4426 22.8557 54.0289 23.49C52.7735 19.5629 50.615 15.9848 47.7266 13.043Z" fill="url(#paint13_linear_4945_421730)"/>
<path d="M26.8832 23.4828C24.4696 22.8506 22.1345 21.9495 19.9219 20.7964C23.6569 16.9534 28.0488 14.3761 33.1844 13.0391C30.295 15.9787 28.1366 19.5561 26.8832 23.4828Z" fill="url(#paint14_linear_4945_421730)"/>
<path d="M47.6953 68.0497C50.5964 65.1137 52.7627 61.5337 54.0176 57.6016C56.4413 58.2128 58.7101 59.1123 60.9868 60.2734C57.3673 64.0532 52.7638 66.7466 47.6953 68.0497Z" fill="url(#paint15_linear_4945_421730)"/>
<defs>
<linearGradient id="paint0_linear_4945_421730" x1="19.0649" y1="41.5156" x2="19.0649" y2="58.617" gradientUnits="userSpaceOnUse">
<stop stop-color="#2A85B3"/>
<stop offset="1" stop-color="#1568B3"/>
</linearGradient>
<linearGradient id="paint1_linear_4945_421730" x1="19.1016" y1="22.4648" x2="19.1016" y2="39.5103" gradientUnits="userSpaceOnUse">
<stop stop-color="#2A85B3"/>
<stop offset="1" stop-color="#1568B3"/>
</linearGradient>
<linearGradient id="paint2_linear_4945_421730" x1="34.1301" y1="55.8516" x2="34.1301" y2="68.9983" gradientUnits="userSpaceOnUse">
<stop stop-color="#2A85B3"/>
<stop offset="1" stop-color="#1568B3"/>
</linearGradient>
<linearGradient id="paint3_linear_4945_421730" x1="46.7334" y1="55.8633" x2="46.7334" y2="69" gradientUnits="userSpaceOnUse">
<stop stop-color="#2A85B3"/>
<stop offset="1" stop-color="#1568B3"/>
</linearGradient>
<linearGradient id="paint4_linear_4945_421730" x1="61.7981" y1="41.5938" x2="61.7981" y2="58.5869" gradientUnits="userSpaceOnUse">
<stop stop-color="#2A85B3"/>
<stop offset="1" stop-color="#1568B3"/>
</linearGradient>
<linearGradient id="paint5_linear_4945_421730" x1="61.7947" y1="22.4844" x2="61.7947" y2="39.482" gradientUnits="userSpaceOnUse">
<stop stop-color="#2A85B3"/>
<stop offset="1" stop-color="#1568B3"/>
</linearGradient>
<linearGradient id="paint6_linear_4945_421730" x1="32.8127" y1="41.5781" x2="32.8127" y2="55.0811" gradientUnits="userSpaceOnUse">
<stop stop-color="#2A85B3"/>
<stop offset="1" stop-color="#1568B3"/>
</linearGradient>
<linearGradient id="paint7_linear_4945_421730" x1="48.0845" y1="41.5938" x2="48.0845" y2="55.1502" gradientUnits="userSpaceOnUse">
<stop stop-color="#2A85B3"/>
<stop offset="1" stop-color="#1568B3"/>
</linearGradient>
<linearGradient id="paint8_linear_4945_421730" x1="32.8172" y1="25.918" x2="32.8172" y2="39.4677" gradientUnits="userSpaceOnUse">
<stop stop-color="#2A85B3"/>
<stop offset="1" stop-color="#1568B3"/>
</linearGradient>
<linearGradient id="paint9_linear_4945_421730" x1="48.0772" y1="25.918" x2="48.0772" y2="39.4722" gradientUnits="userSpaceOnUse">
<stop stop-color="#2A85B3"/>
<stop offset="1" stop-color="#1568B3"/>
</linearGradient>
<linearGradient id="paint10_linear_4945_421730" x1="34.1436" y1="12" x2="34.1436" y2="25.2102" gradientUnits="userSpaceOnUse">
<stop stop-color="#2A85B3"/>
<stop offset="1" stop-color="#1568B3"/>
</linearGradient>
<linearGradient id="paint11_linear_4945_421730" x1="46.7981" y1="12.1289" x2="46.7981" y2="25.2122" gradientUnits="userSpaceOnUse">
<stop stop-color="#2A85B3"/>
<stop offset="1" stop-color="#1568B3"/>
</linearGradient>
<linearGradient id="paint12_linear_4945_421730" x1="26.6524" y1="57.6172" x2="26.6524" y2="68.082" gradientUnits="userSpaceOnUse">
<stop stop-color="#2A85B3"/>
<stop offset="1" stop-color="#1568B3"/>
</linearGradient>
<linearGradient id="paint13_linear_4945_421730" x1="54.3578" y1="13.043" x2="54.3578" y2="23.49" gradientUnits="userSpaceOnUse">
<stop stop-color="#2A85B3"/>
<stop offset="1" stop-color="#1568B3"/>
</linearGradient>
<linearGradient id="paint14_linear_4945_421730" x1="26.5531" y1="13.0391" x2="26.5531" y2="23.4828" gradientUnits="userSpaceOnUse">
<stop stop-color="#2A85B3"/>
<stop offset="1" stop-color="#1568B3"/>
</linearGradient>
<linearGradient id="paint15_linear_4945_421730" x1="54.341" y1="57.6016" x2="54.341" y2="68.0497" gradientUnits="userSpaceOnUse">
<stop stop-color="#2A85B3"/>
<stop offset="1" stop-color="#1568B3"/>
</linearGradient>
</defs>
</svg>
