<svg width="43" height="43" viewBox="0 0 43 43" fill="none" xmlns="http://www.w3.org/2000/svg">
<path d="M24.6639 16.2091C23.674 16.2091 23.1002 16.4497 22.6191 16.9188C17.6474 21.8841 12.6824 26.8518 7.72432 31.822C6.74761 32.8023 6.77167 34.2012 7.72432 35.2092C7.95647 35.457 8.19463 35.6999 8.44602 35.9309C9.41912 36.8186 10.7892 36.8234 11.7478 35.9177C12.4864 35.2176 13.1912 34.4839 13.9129 33.7634C18.086 29.5855 22.2606 25.408 26.4369 21.231C27.7336 19.9331 27.7252 18.6352 26.4369 17.3266C25.8559 16.7323 25.2497 16.1995 24.6639 16.2091ZM23.5525 22.7393C23.4418 22.8596 23.2975 23.0172 23.1459 23.1687L12.4779 33.8379C12.069 34.2469 11.6624 34.6595 11.2498 35.0648C10.474 35.8238 9.71502 35.8286 8.94761 35.0841C8.82732 34.9734 8.72147 34.8592 8.60961 34.7449C7.74476 33.8716 7.74477 33.1487 8.62043 32.273C12.5834 28.3077 16.5484 24.3427 20.5153 20.3782C20.65 20.2434 20.792 20.1171 20.8654 20.0486L23.5525 22.7393ZM24.433 21.8781L21.7109 19.1585C22.1392 18.7375 22.6203 18.2636 23.1026 17.7908C23.1736 17.7211 23.2398 17.6465 23.3143 17.5804C23.9158 17.0475 24.6579 17.027 25.2653 17.5238C26.3792 18.4368 26.6871 19.2078 26.2457 19.9872C26.1981 20.0743 26.1399 20.1551 26.0724 20.2278C25.5011 20.8076 24.9261 21.3825 24.433 21.8781Z" fill="black"/>
<path d="M21.8846 10.0438C22.047 9.64086 22.1865 9.22949 22.3766 8.84097C22.5341 8.52102 22.7891 8.24557 22.9239 7.91839C22.9972 7.73676 22.9924 7.40719 22.8782 7.29532C22.7639 7.18346 22.4584 7.22435 22.2479 7.26284C22.1023 7.2881 21.97 7.4132 21.8437 7.51063C20.6541 8.43201 19.4705 8.41276 18.2881 7.49499C18.1787 7.40959 18.062 7.29292 17.9369 7.27728C17.7083 7.24841 17.4161 7.20751 17.2561 7.32058C17.1526 7.39395 17.1683 7.75962 17.2477 7.94365C17.3968 8.28767 17.6314 8.59439 17.8286 8.91675C18.3098 9.70742 18.3098 10.4981 17.8286 11.2888C17.6314 11.6123 17.3956 11.9178 17.2477 12.2619C17.1683 12.4459 17.1526 12.8128 17.2561 12.8849C17.4173 12.998 17.7276 12.9944 17.9333 12.9234C18.2087 12.8284 18.4493 12.6275 18.6971 12.4603C19.6088 11.8517 20.5194 11.8384 21.4359 12.4459C21.6861 12.6119 21.9267 12.8067 22.201 12.9102C22.409 12.986 22.6652 12.9306 22.8998 12.9342C22.8998 12.7009 22.978 12.4351 22.8938 12.239C22.729 11.8577 22.4439 11.5305 22.2647 11.1564C22.1047 10.822 22.0193 10.4516 21.8846 10.0438ZM19.0736 9.09838H21.0847V11.1095H19.0736V9.09838Z" fill="black"/>
<path d="M34.1948 28.5365C34.3295 28.2563 34.4678 28.047 34.5244 27.8148C34.5484 27.715 34.4209 27.561 34.3343 27.454C33.2518 26.1188 33.2169 24.7849 34.3211 23.4449C34.3704 23.3836 34.4414 23.3102 34.4414 23.244C34.4414 23.0275 34.4787 22.7557 34.3656 22.6125C34.2838 22.5079 33.9566 22.5055 33.7906 22.5764C33.4704 22.7377 33.1632 22.9235 32.8717 23.1322C32.0088 23.6807 31.1472 23.6807 30.2868 23.1322C29.9953 22.9228 29.6876 22.7369 29.3666 22.5764C29.2018 22.5043 28.8746 22.5079 28.7916 22.6125C28.6798 22.7557 28.7135 23.0275 28.7195 23.2428C28.7195 23.3282 28.8121 23.4172 28.8746 23.4942C29.9355 24.8017 29.9115 26.1032 28.8578 27.4022C28.8085 27.4636 28.7375 27.5334 28.7375 27.6019C28.7279 27.8196 28.6641 28.1167 28.776 28.2334C28.8879 28.3501 29.2126 28.3537 29.3991 28.2791C29.6914 28.1685 29.9488 27.9628 30.2146 27.7859C31.1288 27.1845 32.0369 27.1845 32.9547 27.7859C33.3143 28.0265 33.6956 28.237 34.1948 28.5365ZM30.5755 26.4484V24.4312H32.589V26.446L30.5755 26.4484Z" fill="black"/>
<path d="M32.5509 17.1374C32.7638 16.8728 32.9382 16.7332 33.0044 16.5564C33.1064 16.2543 33.1824 15.9441 33.2317 15.629C33.4422 14.52 34.1038 13.8741 35.208 13.6648C35.5048 13.6284 35.7961 13.5557 36.0752 13.4483C36.2605 13.3653 36.4926 13.1452 36.4998 12.984C36.5071 12.8228 36.2689 12.5883 36.0873 12.5137C35.7396 12.3741 35.3547 12.3272 34.9867 12.2382C34.0641 12.0145 33.4963 11.4407 33.2762 10.5146C33.1884 10.1465 33.1439 9.76038 33.002 9.41516C32.9552 9.31663 32.887 9.22984 32.8022 9.16115C32.7175 9.09246 32.6185 9.04362 32.5124 9.01822C32.3801 9.00379 32.1432 9.23473 32.0794 9.40433C31.9411 9.77361 31.8869 10.1754 31.7907 10.5627C31.567 11.46 30.9992 12.0145 30.1067 12.2358C29.7399 12.326 29.355 12.3717 29.0073 12.5113C28.8233 12.5858 28.5876 12.8144 28.5864 12.9756C28.5851 13.1367 28.8137 13.3653 28.9965 13.4459C29.3225 13.583 29.6882 13.6263 30.0382 13.7057C31.0113 13.9294 31.6019 14.5296 31.8208 15.51C31.8823 15.8633 31.9675 16.2121 32.0758 16.554C32.1468 16.7332 32.338 16.8824 32.5509 17.1374ZM33.7922 13.245V12.7061L32.2827 14.2313H32.8179L31.2903 12.717V13.2546L32.8023 11.7282H32.2658L33.7922 13.245Z" fill="black"/>
<path d="M10.6836 19.8777C10.6655 20.3456 11.0216 20.5718 11.3897 20.3937C11.6547 20.2557 11.9095 20.0989 12.1523 19.9246C12.9738 19.3725 13.7893 19.387 14.6061 19.9355C14.8202 20.0798 15.0282 20.2578 15.2664 20.336C15.4637 20.3997 15.7824 20.419 15.8979 20.3059C16.0134 20.1929 16.0086 19.8657 15.9376 19.678C15.8281 19.3858 15.6164 19.132 15.448 18.8613C14.9922 18.1276 14.9982 17.3975 15.4577 16.6673C15.6273 16.3979 15.839 16.1429 15.946 15.8506C15.9818 15.7473 15.9947 15.6374 15.9839 15.5286C15.9731 15.4198 15.9388 15.3146 15.8835 15.2203C15.8005 15.1157 15.4745 15.1193 15.3013 15.1878C15.0102 15.3081 14.7528 15.5078 14.4834 15.6786C13.7328 16.1597 12.9858 16.1465 12.2389 15.6678C11.9875 15.5066 11.7481 15.3069 11.4727 15.2107C11.2814 15.1409 10.9578 15.1265 10.8424 15.2396C10.7269 15.3526 10.7341 15.6774 10.8027 15.8674C10.9001 16.1429 11.0986 16.3835 11.261 16.6337C11.7589 17.4023 11.7421 18.1625 11.2513 18.9287C11.036 19.2583 10.8436 19.6071 10.6836 19.8777ZM12.554 18.5907V16.9488H14.1911V18.5907H12.554Z" fill="black"/>
</svg>
