<svg width="48" height="48" viewBox="0 0 48 48" fill="none" xmlns="http://www.w3.org/2000/svg">
<g opacity="0.3">
<circle cx="24" cy="24" r="24" fill="#6A50CF"/>
<path d="M46.0784 33.1205C43.6784 32.1605 36.1585 25.7605 32.6385 22.5605C29.4385 24.0005 23.3265 27.1685 24.4785 28.3205C25.6305 29.4725 33.9184 38.7205 37.4384 43.6805C42.7184 40.3205 44.6384 36.4805 46.0784 33.1205Z" fill="#FEC877"/>
<path d="M15.6899 8.0701C15.4829 7.16473 15.4067 6.28356 16.0191 5.48228C16.8822 4.35178 18.5138 4.28157 19.6249 5.35035C20.2483 5.94949 20.8426 6.57769 21.4574 7.18652C24.9708 10.6652 28.4866 14.1426 32.0048 17.6189C32.6645 18.2713 33.398 18.7772 34.3881 18.7216C34.9569 18.6889 35.4217 18.4795 35.7752 18.0014C36.6805 16.7716 37.598 15.5511 38.5276 14.3399C39.4112 13.1828 41.0113 12.9262 42.12 13.7468C42.4012 13.9516 42.6389 14.2101 42.8193 14.5075C42.9996 14.8049 43.1191 15.1352 43.1707 15.4791C43.2222 15.8231 43.2049 16.1739 43.1197 16.5111C43.0346 16.8483 42.8832 17.1652 42.6744 17.4434C41.7824 18.6538 40.8939 19.8763 39.9534 21.0528C39.0578 22.1736 38.7007 23.5171 38.2432 24.8135C37.5266 26.8409 36.4808 28.6226 34.8855 30.0932C33.467 31.3992 32.1876 32.8626 30.7206 34.1081C27.9367 36.4732 23.6434 36.2517 21.0374 33.7038C18.1793 30.907 15.3284 28.1021 12.4848 25.2892C11.1957 24.0207 9.90182 22.7558 8.61154 21.4837C7.6759 20.5541 7.45803 19.6766 7.89862 18.6635C8.34767 17.6334 9.20463 17.125 10.4622 17.142H10.8895C10.3618 16.6203 9.92118 16.1906 9.49028 15.7597C8.5837 14.8592 8.40093 13.8981 8.92624 12.8681C9.45155 11.8381 10.4925 11.3551 11.7029 11.579C11.8097 11.5869 11.9169 11.5869 12.0236 11.579C11.9026 11.4193 11.8239 11.3019 11.7356 11.1905C10.9282 10.1713 10.9766 8.87985 11.8566 7.96238C12.7596 7.02069 14.0607 6.91539 15.1247 7.69972C15.3026 7.82923 15.4708 7.97085 15.6427 8.10641C15.6621 8.1633 15.6802 8.21898 15.6984 8.27466L15.7722 8.24319L15.6899 8.0701ZM13.0041 12.442L13.1251 12.5631L13.1759 12.7325L13.2243 12.6986L13.1275 12.5631L13.0065 12.442C13.0014 12.4265 12.9941 12.4118 12.9847 12.3985C12.9786 12.3912 12.9629 12.3985 12.9508 12.39L13.0041 12.442ZM12.0357 18.3536C12.0313 18.3388 12.0244 18.3249 12.0152 18.3124C12.0091 18.3124 11.9946 18.3124 11.9837 18.3052L12.0382 18.3524L12.0829 18.5158L12.1326 18.4867L12.0357 18.3536ZM13.6093 13.0158L13.5064 13.1586C13.5422 13.2266 13.5827 13.2921 13.6274 13.3547C15.1194 15.2106 16.6122 17.0665 18.1059 18.9225C18.8878 19.8908 19.6709 20.8518 20.4855 21.7875C20.8837 22.2462 21.2541 22.2026 21.6366 21.7318C21.9997 21.2876 21.8109 20.9305 21.455 20.5831C19.1843 18.3649 16.9169 16.1426 14.6526 13.9163C14.4384 13.7057 14.2326 13.483 14.0087 13.2821C13.8828 13.1829 13.7492 13.0938 13.6093 13.0158ZM17.6144 10.3275C17.6447 10.5151 17.635 10.5829 17.6641 10.6216C19.491 13.0012 21.3199 15.3789 23.1508 17.7545C23.4836 18.1866 23.9061 18.2265 24.2789 17.8852C24.7013 17.4991 24.7219 17.0996 24.3152 16.699C22.2979 14.7156 20.2761 12.7358 18.2499 10.7596C18.0938 10.6059 17.8831 10.5078 17.6144 10.3275ZM12.4098 18.724L12.3057 18.8027C12.3261 18.8721 12.3549 18.9387 12.3916 19.0012C14.1757 21.3412 15.9635 23.6813 17.7548 26.0214C17.8638 26.1631 18.0974 26.3325 18.239 26.3035C18.5634 26.2357 18.9543 26.134 19.1541 25.9028C19.4651 25.5397 19.1734 25.1899 18.8902 24.9127C17.2957 23.3529 15.6976 21.7968 14.0958 20.2442C13.5524 19.7201 12.9762 19.2299 12.4146 18.724H12.4098ZM17.5128 10.1907L17.4668 10.1738V10.2415C17.483 10.2407 17.499 10.237 17.514 10.2307C17.5128 10.2282 17.5055 10.2077 17.5128 10.1907Z" fill="#FEC877"/>
<path d="M33.6192 13.7762L32.0662 14.5569C29.7798 10.7296 26.68 7.75808 22.9023 5.37239C23.1698 4.91486 23.4385 4.45855 23.7496 3.91992C27.7984 6.46054 31.1487 9.61603 33.6192 13.7762Z" fill="#01B9AD"/>
<path d="M9.66406 28.5806L11.0403 27.4609C13.2928 30.0137 15.6737 32.357 18.5665 34.1907L17.7192 35.6601C14.6182 33.7683 12.0848 31.3148 9.66406 28.5806Z" fill="#00B9AD"/>
<path d="M28.0781 4.44273L28.8612 2.87891C31.2276 4.22002 33.0976 5.96904 34.3988 8.41524L32.9366 9.28552C31.8291 7.1528 30.1346 5.63255 28.0781 4.44273Z" fill="#02B9AD"/>
<path fill-rule="evenodd" clip-rule="evenodd" d="M17.6094 10.3281C17.7023 10.3905 17.7888 10.443 17.8685 10.4914C18.0194 10.5829 18.1458 10.6597 18.2448 10.7602C20.271 12.7356 22.2928 14.7154 24.3101 16.6996C24.7168 17.1003 24.6962 17.4997 24.2738 17.8858C23.901 18.2271 23.4786 18.1872 23.1457 17.7551C21.3132 15.3803 19.4843 13.0027 17.659 10.6222C17.6408 10.599 17.6375 10.5653 17.6312 10.5014L17.6312 10.5014C17.627 10.4589 17.6215 10.4031 17.6094 10.3281ZM13.6056 13.0156C13.7459 13.0932 13.8799 13.1819 14.0062 13.2807C14.154 13.4133 14.294 13.5555 14.4336 13.6974C14.5055 13.7704 14.5773 13.8434 14.6501 13.9149C16.9168 16.1388 19.1843 18.3611 21.4526 20.5818C21.8084 20.9292 21.996 21.2862 21.6341 21.7305C21.2516 22.2013 20.8813 22.2449 20.483 21.7861C19.6684 20.8505 18.8853 19.8858 18.1034 18.9211C16.6033 17.0708 15.1105 15.2149 13.6249 13.3533C13.5802 13.2908 13.5398 13.2253 13.5039 13.1572L13.6056 13.0156ZM12.9461 19.196C12.7691 19.0393 12.592 18.8826 12.4163 18.7244L12.3086 18.7994C12.329 18.8688 12.3579 18.9355 12.3945 18.9979C14.1738 21.3461 15.9616 23.6862 17.7578 26.0182C17.8703 26.1598 18.104 26.3293 18.2419 26.3002C18.5663 26.2324 18.9573 26.1308 19.157 25.8996C19.4681 25.5389 19.1764 25.1867 18.8931 24.9095C17.3027 23.3481 15.7041 21.7931 14.0976 20.2446C13.7241 19.8845 13.3352 19.5403 12.9461 19.196Z" fill="#B56C2A"/>
<path d="M15.6932 8.07031L15.7779 8.24582L15.7041 8.27729C15.686 8.22161 15.6678 8.16593 15.6484 8.10905L15.6932 8.07031Z" fill="#FEFEFE"/>
<path d="M17.512 10.1888C17.512 10.2033 17.512 10.2239 17.512 10.2288C17.4971 10.2351 17.4811 10.2388 17.4648 10.2397V10.1719L17.512 10.1888Z" fill="#F99F4D"/>
<path d="M13.1259 12.5586L13.2228 12.6942L13.1744 12.728L13.1211 12.5634L13.1259 12.5586Z" fill="#F99F4E"/>
<path d="M12.0391 18.3547L12.1359 18.4879L12.0863 18.5169L12.0415 18.3535L12.0391 18.3547Z" fill="#F99F4E"/>
<path d="M13.0025 12.4412L12.9492 12.3867C12.9613 12.3867 12.9771 12.3867 12.9831 12.3952C12.9925 12.4085 12.9999 12.4232 13.0049 12.4388L13.0025 12.4412Z" fill="#F99F4E"/>
<path d="M13.1249 12.5644L13.0039 12.4434L13.1249 12.5644Z" fill="#F99F4E"/>
<path d="M12.0388 18.3538L11.9844 18.3066C11.9953 18.3066 12.0098 18.3066 12.0158 18.3139C12.0251 18.3263 12.032 18.3402 12.0364 18.3551L12.0388 18.3538Z" fill="#F99F4E"/>
<path d="M33.872 5.71875C33.85 5.86188 33.8276 6.00502 33.8047 6.14815L33.8111 5.72519L33.872 5.71875Z" fill="#F9D494"/>
<path d="M38.5907 8.90234C38.585 9.02759 38.5792 9.15283 38.5742 9.27807C38.5792 9.15283 38.585 9.02687 38.5907 8.90234Z" fill="#FAE0B1"/>
<path d="M39.3738 7.80053L39.293 7.78836L39.3803 7.7168L39.3738 7.80053Z" fill="#F5BA50"/>
</g>
</svg>
