<svg width="48" height="48" viewBox="0 0 48 48" fill="none" xmlns="http://www.w3.org/2000/svg">
<g opacity="0.3">
<circle cx="24" cy="24" r="24" fill="#B4E4E7"/>
<path d="M40.3214 33.6406C40.8737 33.6406 41.3214 33.1929 41.3214 32.6406C41.3214 32.0883 40.8737 31.6406 40.3214 31.6406V33.6406ZM13.4414 33.6406H40.3214V31.6406H13.4414V33.6406Z" fill="#2A3F53"/>
<path d="M33.7656 5.59214C34.4269 4.94774 35.0668 4.27868 35.7572 3.66672C36.231 3.24686 36.8429 3.06256 37.4601 2.9438C37.5194 2.9272 37.5771 2.90549 37.6327 2.87891L38.671 2.87891C39.1214 3.02816 39.5996 3.12421 40.015 3.34095C40.4303 3.5577 40.7671 3.88801 41.1389 4.16836C41.0217 4.23736 40.9106 4.31616 40.8067 4.40393C39.6139 5.5902 38.4242 6.77993 37.2375 7.97312C37.0629 8.14833 36.8981 8.33263 36.7294 8.51239C36.7105 8.51239 36.6924 8.51239 36.6742 8.5085C35.7051 7.53551 34.7356 6.5634 33.7656 5.59214Z" fill="#91A5A6"/>
<path d="M14.6484 24.5653C14.7482 24.5109 14.8427 24.4475 14.9307 24.3758C15.2669 24.0513 15.5927 23.7119 15.9295 23.3861C16.0181 23.3152 16.1135 23.2533 16.2143 23.2012C16.3013 23.2803 16.3915 23.3556 16.4739 23.4387C17.3548 24.31 18.2345 25.1828 19.1132 26.0572C19.1137 26.0763 19.1152 26.0953 19.1177 26.1143C18.9386 26.2824 18.7576 26.4478 18.5817 26.6192C17.976 27.2097 17.3725 27.8013 16.7711 28.394C16.6842 28.3149 16.5946 28.2383 16.5116 28.1559C15.9132 27.5696 15.3162 26.9824 14.7205 26.394L14.6484 26.3129V24.5653Z" fill="#ECF0F1"/>
<path d="M19.1139 26.1139C19.1114 26.0949 19.1099 26.0759 19.1094 26.0568C19.2054 25.9711 19.3041 25.8894 19.3969 25.7972C24.5754 20.6199 29.7538 15.4424 34.9319 10.2647C35.0299 10.1667 35.1402 10.0804 35.2447 9.98828C35.3615 10.098 35.4809 10.2044 35.5945 10.3166C36.4481 11.1607 37.3006 12.0043 38.152 12.8475C38.0841 12.9419 38.0111 13.0324 37.9333 13.1188C32.7301 18.3272 27.5253 23.5333 22.3191 28.7369C22.2289 28.8271 22.1244 28.9057 22.029 28.9894C21.9128 28.8784 21.7947 28.7687 21.6798 28.6552L19.1139 26.1139Z" fill="#E05126"/>
<path d="M36.7227 8.5068C36.8914 8.32705 37.0562 8.14275 37.2308 7.96753C38.4183 6.77737 39.6081 5.58872 40.8 4.40158C40.9039 4.31382 41.015 4.23502 41.1322 4.16602C42.5963 5.58526 42.6962 8.15118 41.3152 9.69502C40.7708 10.3024 40.1543 10.8456 39.5709 11.418C39.4865 11.3213 39.4067 11.22 39.3171 11.1292C38.4532 10.254 37.5883 9.37985 36.7227 8.5068Z" fill="#7C8D8E"/>
<path d="M19.1135 26.1172L21.6794 28.6585C21.7943 28.772 21.9124 28.8817 22.0286 28.9927C21.5892 29.4359 21.1564 29.885 20.706 30.3159C20.6033 30.4038 20.4738 30.4543 20.3387 30.4593C19.8196 30.4742 19.3069 30.4645 18.7903 30.4645L16.7786 28.4566C16.7734 28.4378 16.7695 28.419 16.7656 28.4002C17.3691 27.8083 17.9727 27.2167 18.5762 26.6253C18.7533 26.4507 18.9344 26.2853 19.1135 26.1172Z" fill="#BBC2C6"/>
<path d="M36.7231 8.5078C37.5883 9.38171 38.4536 10.2558 39.3188 11.1302C39.4084 11.221 39.4882 11.3249 39.5726 11.419L38.1533 12.8531C37.3015 12.0091 36.449 11.1654 35.5958 10.3222C35.4823 10.21 35.3629 10.1036 35.2461 9.99388L35.2344 9.93872L36.6679 8.50391C36.6861 8.50585 36.7042 8.50715 36.7231 8.5078Z" fill="#BCC3C7"/>
<path d="M16.6957 28.3887C16.6959 28.4127 16.6962 28.4366 16.6982 28.4603L13.5115 31.647C13.4864 31.5879 13.4741 31.5206 13.4751 31.4478C13.8141 29.7207 14.1531 27.9933 14.4922 26.2656C15.1321 26.8924 15.772 27.5173 16.4121 28.1402C16.5027 28.2277 16.6008 28.3062 16.6957 28.3887Z" fill="#324C62"/>
<path d="M13.5198 31.6461L16.7069 28.4577L18.8552 30.5998C17.8576 30.8064 16.8574 31.0217 15.861 31.2181C15.0771 31.3744 14.2988 31.5065 13.5198 31.6461Z" fill="#2A3F53"/>
<path d="M35.2361 9.93661L35.2477 9.99177C35.1433 10.0839 35.0329 10.1702 34.9349 10.2682C29.7559 15.4455 24.5776 20.623 19.3999 25.8007C19.309 25.8916 19.2052 25.9733 19.1124 26.0603C18.2333 25.1851 17.354 24.3118 16.4744 23.4405C16.3907 23.3574 16.3005 23.2822 16.2148 23.203C16.2637 23.1123 16.3213 23.0267 16.3868 22.9473C21.6303 17.7012 26.8748 12.4556 32.1205 7.2104C32.1802 7.15004 32.2503 7.09878 32.3152 7.04297C32.4287 7.15589 32.5416 7.2701 32.6558 7.38237L35.2361 9.93661Z" fill="#F37B22"/>
<path d="M35.234 9.93322L32.6532 7.37898C32.539 7.26671 32.4261 7.1525 32.3125 7.03958L33.7622 5.58789C34.7322 6.55871 35.7013 7.52975 36.6695 8.501L35.234 9.93322Z" fill="#ECF0F0"/>
</g>
</svg>
