<svg width="400" height="172" viewBox="0 0 400 172" fill="none" xmlns="http://www.w3.org/2000/svg">
<g style="mix-blend-mode:luminosity">
<path d="M120.65 48.7155C120.711 37.331 120.768 25.9529 120.82 14.5814C120.82 5.49898 126.286 0.00651538 135.375 0C181.022 0 226.671 0 272.322 0C281.359 0 286.949 5.47292 287.184 14.4772C287.236 16.5295 287.327 18.5753 287.399 20.6277L287.535 23.9245C287.412 25.3123 287.19 26.7 287.19 28.0813C287.19 48.9305 287.19 69.7797 287.19 90.629C287.19 92.3555 287.073 132.694 287.008 134.42L284.545 134.492V35.5544H123.713C123.577 36.337 123.485 37.1266 123.439 37.9195C123.439 70.6528 123.419 103.384 123.38 136.113C123.38 138.224 124.117 138.869 126.117 139.136C137.525 140.635 148.152 144.557 156.85 152.049C161.906 156.395 166.336 156.969 172.578 155.307C187.29 151.398 202.106 151.014 216.602 156.949C217.658 157.386 219.313 156.91 220.512 156.395C226.141 153.913 231.64 153.007 237.269 156.513C238.005 156.975 239.621 156.512 240.592 156.03C246.769 152.909 252.632 149.02 259.057 146.596C267.09 143.56 275.56 141.684 284.532 139.11V132.881L286.91 132.94C287.053 135.09 287.19 137.247 287.333 139.455C292.546 139.781 297.81 140.022 303.061 140.491C305.54 140.747 307.993 141.216 310.391 141.892C311.075 142.081 311.531 143.123 312.092 143.775C311.349 144.029 310.567 144.576 309.87 144.485C306.612 144.068 303.472 143.286 300.24 142.967C278.674 140.836 259.317 147.046 241.517 158.825C239.413 160.22 238.044 160.813 235.653 158.975C231.282 155.626 226.304 156.532 221.828 158.93C219.137 160.376 217.091 160.233 214.328 159.125C201.135 153.809 187.615 154.564 174.037 157.575C172.343 157.946 170.532 158.141 169.027 158.923C164.864 161.08 162.01 159.855 158.557 156.825C142.764 142.987 124.097 138.908 103.645 142.022C99.6969 142.628 95.8267 143.886 91.9175 144.687C91.051 144.863 90.0476 144.387 89.1094 144.211C89.7609 143.521 90.3082 142.459 91.1096 142.192C99.9644 139.219 109.293 137.911 118.624 138.335C119.048 138.335 119.478 138.335 120.201 138.335C120.403 137.522 120.538 136.694 120.605 135.859C120.605 113.958 120.605 92.0602 120.605 70.1641C120.575 69.7243 120.506 69.2881 120.396 68.8611L120.787 66.307C120.739 60.4519 120.694 54.588 120.65 48.7155ZM283.991 32.603C284.134 32.3039 284.241 31.989 284.31 31.6648C284.345 26.3612 284.369 21.0534 284.382 15.7412C284.382 6.76296 280.258 2.61918 271.306 2.61918H136.04C135.284 2.61918 134.522 2.61918 133.766 2.65828C128.553 3.16648 123.947 6.82812 123.667 11.6625C123.263 18.5493 123.563 25.4817 123.563 32.6095L283.991 32.603Z" fill="#1587C4"/>
<path d="M119.875 50.4892C119.919 56.3574 120.739 60.4491 120.778 66.3086C119.438 65.9838 118.074 65.766 116.7 65.6571C102.366 65.6114 88.0775 65.6571 73.7632 65.618C72.4556 65.673 71.1457 65.5944 69.854 65.3834C68.4472 65.148 67.1716 64.4154 66.2593 63.3189C65.347 62.2225 64.8585 60.835 64.8828 59.4088C64.7915 56.2749 66.3683 54.0075 69.4891 53.1801C70.9659 52.8669 72.469 52.6946 73.9782 52.6654C76.7147 52.4699 78.539 51.1538 78.9039 48.3978C79.2687 45.6418 77.907 43.5569 75.2422 42.6252C74.1004 42.3056 72.9147 42.1714 71.7304 42.2277C60.4523 42.2277 49.1742 42.2277 37.9026 42.1887C32.8922 42.1887 29.843 38.2012 31.2634 33.7643C32.2081 30.7998 34.7622 29.2882 39.1275 29.2817C59.8333 29.2817 80.5414 29.2817 101.252 29.2817C102.549 29.2706 103.838 29.4731 105.07 29.8811C106.627 30.3997 107.917 31.5114 108.66 32.9751C109.403 34.4388 109.538 36.1364 109.037 37.6996C108.145 40.7618 105.858 42.0258 100.958 42.1626C97.1534 42.2733 94.9903 44.0781 95.0099 47.1273C95.0099 50.4436 97.2251 52.5546 100.926 52.6067C105.917 52.6849 110.907 52.7175 115.911 52.6067C117.358 52.5676 120.048 51.7011 120.022 51.5187C118.859 50.5479 116.592 51.8966 115.139 51.8379C110.578 51.649 105.226 51.89 100.665 51.8444C98.8409 51.8444 96.6648 52.0204 96.5605 49.3425C96.4563 46.6647 96.1892 43.4473 98.0265 43.3887C99.3296 43.3366 100.633 43.317 101.936 43.2779C100.424 43.721 98.88 44.0923 97.375 44.6331C96.5251 45.0228 98.1513 48.828 97.375 49.349C98.1438 49.7465 98.9126 50.4958 99.6814 50.4892C102.802 50.4892 105.923 50.0592 109.037 50.0657C111.653 51.8705 116.546 50.3133 119.875 50.4892Z" fill="#89D6F9"/>
<path d="M105.972 44.7784C104.669 44.8175 103.366 44.8371 102.063 44.8892C100.225 44.9674 98.0492 44.7458 98.1535 47.4953C98.2577 50.2448 100.434 49.9777 102.258 49.9972C106.819 50.0428 111.38 49.8995 115.94 50.0884C117.393 50.1471 119.661 48.7854 120.045 51.5414C120.045 51.7238 117.38 52.5904 115.934 52.6295C110.956 52.7663 105.965 52.7337 100.949 52.6295C97.2478 52.5773 95.0847 50.4663 95.0326 47.15C95.0326 44.1008 97.1762 42.2961 100.981 42.1853C105.881 42.0485 108.148 40.7845 109.06 37.7223C109.561 36.1591 109.425 34.4616 108.683 32.9978C107.94 31.5341 106.65 30.4224 105.092 29.9038C103.861 29.4959 102.571 29.2933 101.274 29.3044C80.5641 29.2653 59.856 29.2653 39.1502 29.3044C34.7848 29.3044 32.2308 30.8225 31.2861 33.787C29.8657 38.2239 32.9149 42.1853 37.9253 42.2114C49.1969 42.27 60.475 42.2114 71.7531 42.2504C72.9375 42.1941 74.1231 42.3283 75.2649 42.6479C77.9297 43.5796 79.2979 45.5928 78.9266 48.4205C78.5552 51.2482 76.7374 52.4926 74.0009 52.6881C72.4917 52.7173 70.9886 52.8896 69.5118 53.2028C66.391 54.0303 64.8142 56.2976 64.9055 59.4315C64.8812 60.8577 65.3697 62.2452 66.282 63.3416C67.1943 64.4381 68.4699 65.1707 69.8767 65.4061C71.1684 65.6171 72.4783 65.6957 73.7859 65.6407C88.1198 65.6407 102.408 65.6407 116.722 65.6798C118.097 65.7887 119.461 66.0066 120.801 66.3313L120.41 68.8853C104.717 68.8332 89.0189 68.7789 73.3168 68.7224C67.7787 68.7224 64.1497 66.5528 62.5795 62.4612C62.0576 61.1229 61.8591 59.6804 62.0002 58.251C62.1413 56.8215 62.618 55.4456 63.3915 54.2353C64.1649 53.0249 65.2133 52.0144 66.4512 51.2858C67.6891 50.5573 69.0816 50.1314 70.5152 50.0428C71.486 49.9777 72.6132 50.2969 73.4015 49.906C74.4114 49.4043 75.1607 48.3749 76.0077 47.567C75.1346 46.8242 74.3528 45.8926 73.3559 45.4039C72.6522 45.0586 71.6489 45.3127 70.7888 45.3127C60.2795 45.3127 49.7767 45.3127 39.2739 45.3127C33.5404 45.3127 29.9374 43.2343 28.6083 38.6474C28.0219 36.6081 28.6083 34.2365 28.6083 32.0083L29.9113 29.8908H29.8723L30.5238 29.2392L31.1753 28.5877V28.6203C34.433 27.9687 37.619 26.7569 40.8442 26.7243C60.6444 26.5549 80.4512 26.7764 100.251 26.5679C106.356 26.5028 110.481 28.5225 112.396 34.4581C112.396 35.3051 112.396 36.152 112.442 37.0056L107.77 44.1138C107.596 44.107 107.422 44.1405 107.262 44.2116L106.402 44.7719H106.187L105.972 44.7784Z" fill="#EBFCFE"/>
<path d="M322.838 73.9291C320.955 73.9291 318.707 73.9877 316.46 73.9291C311.951 73.7922 308.7 70.9646 308.413 67.0032C308.12 62.9246 310.719 59.1848 315.196 58.9567C323.607 58.5267 332.07 58.6244 340.495 58.9046C344.078 59.0284 346.456 61.5564 347.114 65.1072C347.772 68.6581 346.202 71.1926 343.16 72.9257C342.814 73.1212 342.508 73.3948 341.426 74.2288H349.545C353.656 74.2288 357.78 74.118 361.924 74.2809C363.837 74.3411 365.661 75.106 367.045 76.4288C368.43 77.7515 369.276 79.5389 369.423 81.4478C369.651 84.9857 367.123 88.1847 363.292 89.1685C362.673 89.3632 362.031 89.4792 361.383 89.5138C349.792 89.5138 338.201 89.6963 326.617 89.4422C321.02 89.3249 317.73 85.2593 318.955 80.1969C319.457 78.0142 321.385 76.1769 322.838 73.9291ZM344.13 86.4451C349.994 86.4451 355.858 86.4972 361.676 86.4451C364.452 86.406 366.152 84.9596 366.296 82.0668C366.426 79.3499 364.862 77.6298 362.035 77.3627C361.064 77.278 360.08 77.3236 359.109 77.3236C352.594 77.3236 346.078 77.4213 339.622 77.2258C338.319 77.1868 336.84 76.2225 335.908 75.2712C335.445 74.7891 335.673 72.854 336.253 72.3589C337.368 71.5712 338.663 71.0781 340.019 70.9255C342.84 70.4433 344.267 68.8731 344.15 66.0585C344.033 63.2438 342.41 61.8365 339.772 61.8039C331.868 61.7192 323.959 61.6997 316.056 61.8039C313.091 61.843 311.156 63.9019 311.234 66.4494C311.312 68.9969 313.267 70.8082 316.264 70.8799C319.522 70.9646 322.779 70.9255 326.037 70.8799C328.272 70.8799 330.025 71.6943 330.194 74.0398C330.363 76.3854 328.409 76.9783 326.506 77.2975C323.164 77.8643 321.346 79.5714 321.47 82.0798C321.594 84.6859 323.822 86.4451 327.262 86.4712C332.872 86.4777 338.501 86.4516 344.13 86.4451Z" fill="#ECFCFE"/>
<path d="M287.539 23.9257L287.402 20.6289C304.746 20.6745 322.09 20.681 339.428 20.8179C340.939 20.8179 342.438 21.6844 343.943 22.1209C342.373 22.6747 340.809 23.6911 339.239 23.7107C322.006 23.8931 304.772 23.8866 287.539 23.9257Z" fill="#F0FCFE"/>
<path d="M148.794 170.941C144.612 162.432 137.77 158.875 129.04 158.223C128.134 158.152 127.294 157.194 126.434 156.647C127.339 156.256 128.271 155.474 129.144 155.539C136.774 156.06 143.582 158.49 148.267 164.934C149.57 166.745 150.931 167.026 153.088 167.136C157.225 167.345 161.343 168.264 165.415 169.124C166.067 169.267 166.497 170.609 167.031 171.397C166.171 171.463 165.187 171.847 164.477 171.554C159.382 169.482 154.261 168.752 148.794 170.941Z" fill="#0B88C8"/>
<path d="M291.493 149.09C295.096 149.689 298.725 150.197 302.289 150.966C303.052 151.129 303.592 152.269 304.244 152.96C303.403 153.162 302.472 153.716 301.735 153.52C290.744 150.543 280.359 152.784 270.136 156.928C268.957 157.403 267.484 157.149 266.148 157.234C267.139 156.296 267.966 154.98 269.139 154.472C276.193 151.309 283.773 149.484 291.493 149.09Z" fill="#0987C7"/>
<path d="M367.695 23.8005C363.264 23.8005 358.827 23.8982 354.403 23.7354C353.432 23.7028 352.494 22.7711 351.543 22.2564C352.468 21.7547 353.387 20.836 354.318 20.823C363.392 20.71 372.47 20.71 381.553 20.823C382.445 20.823 383.331 21.6048 384.224 22.0218C383.358 22.6147 382.517 23.6898 381.618 23.7288C376.992 23.8917 372.34 23.8005 367.695 23.8005Z" fill="#ECFCFE"/>
<path d="M15.7672 86.4618C19.9827 86.4618 24.1981 86.3836 28.4136 86.5335C29.2606 86.5335 30.0815 87.4587 30.909 87.9603C30.075 88.4816 29.2476 89.4524 28.4071 89.4654C19.6504 89.5783 10.8937 89.5783 2.13704 89.4654C1.42035 89.4654 0.710177 88.5141 0 88.0059C0.716692 87.4978 1.41384 86.5726 2.14356 86.553C6.70433 86.4162 11.226 86.4813 15.7672 86.4813V86.4618Z" fill="#EBFCFE"/>
<path d="M54.6438 86.4854C56.0441 86.4004 57.4488 86.42 58.8462 86.544C59.5433 86.6483 60.1493 87.4041 60.8008 87.8471C60.2209 88.3749 59.6671 89.3196 59.0612 89.3522C56.1532 89.5118 53.2386 89.5118 50.3306 89.3522C49.7963 89.3196 49.3142 88.2641 48.8125 87.6842C49.3598 87.2738 49.8745 86.5897 50.4609 86.518C51.8531 86.4202 53.2502 86.4093 54.6438 86.4854Z" fill="#EBFCFE"/>
<path d="M395.466 20.7507C395.784 20.7081 396.106 20.7081 396.424 20.7507C397.629 21.1155 398.809 21.5325 400.001 21.9299C398.698 22.5815 397.519 23.4741 396.183 23.7282C394.7 23.9351 393.191 23.851 391.739 23.4806C391.134 23.3438 390.69 22.4121 390.176 21.8387C390.762 21.4804 391.316 20.9005 391.948 20.8093C393.118 20.7093 394.294 20.694 395.466 20.7637V20.7507Z" fill="#ECFCFE"/>
<path d="M284.52 95.8559C285.7 103.921 284.52 112.005 284.52 113.369C284.52 119.884 284.507 118.581 284.52 124.119C285.049 126.725 284.52 129.006 284.507 131.286C284.723 131.286 284.507 132.589 284.507 132.87V139.098C275.535 141.705 267.065 143.548 259.032 146.585C252.608 149.008 246.744 152.898 240.567 156.019C239.596 156.514 237.961 156.964 237.244 156.501C231.615 152.996 226.116 153.895 220.487 156.384C219.314 156.898 217.659 157.374 216.578 156.938C202.081 151.002 187.258 151.4 172.553 155.296C166.311 156.951 161.881 156.377 156.825 152.038C148.127 144.545 137.5 140.623 126.092 139.125C124.092 138.857 123.349 138.212 123.356 136.101C123.416 103.372 123.436 70.6413 123.414 37.9081C123.461 37.1152 123.552 36.3255 123.688 35.543H284.52V95.8559ZM203.729 100.795C196.997 101.008 190.548 103.556 185.486 108.001C184.835 108.58 184.639 109.74 184.235 110.607C185.167 110.457 186.307 110.607 186.991 110.105C199.37 101.179 208.394 101.185 220.754 110.17C221.405 110.646 222.441 110.613 223.295 110.822C223.028 109.929 223.047 108.704 222.454 108.216C217.296 103.593 210.654 100.968 203.729 100.814V100.795ZM228.168 81.8087C228.199 81.0777 228.085 80.3478 227.833 79.661C227.58 78.9741 227.195 78.3438 226.699 77.8063C226.202 77.2688 225.605 76.8345 224.94 76.5285C224.275 76.2225 223.557 76.0507 222.826 76.023C222.069 75.9521 221.306 76.0343 220.583 76.2647C219.859 76.4951 219.188 76.869 218.612 77.3641C218.036 77.8592 217.565 78.4654 217.229 79.1464C216.892 79.8273 216.696 80.5692 216.652 81.3277C216.608 82.0862 216.717 82.8457 216.974 83.5609C217.23 84.2761 217.628 84.9324 218.143 85.4905C218.658 86.0487 219.281 86.4972 219.974 86.8094C220.666 87.1217 221.415 87.2911 222.174 87.3077C222.932 87.3627 223.694 87.2626 224.412 87.0134C225.13 86.7641 225.79 86.3711 226.351 85.8582C226.912 85.3453 227.362 84.7234 227.675 84.0305C227.987 83.3376 228.155 82.5883 228.168 81.8282V81.8087ZM185.375 76.023C184.255 76.0205 183.158 76.3515 182.226 76.9739C181.294 77.5962 180.568 78.4818 180.141 79.518C179.713 80.5541 179.604 81.694 179.826 82.7925C180.049 83.8911 180.593 84.8986 181.389 85.687C182.186 86.4754 183.199 87.009 184.3 87.2198C185.401 87.4307 186.54 87.3093 187.571 86.8711C188.603 86.4329 189.481 85.6978 190.093 84.7592C190.706 83.8206 191.025 82.7209 191.011 81.6002C190.971 80.1255 190.362 78.7234 189.311 77.6876C188.261 76.6517 186.851 76.0622 185.375 76.0426V76.023ZM245.877 56.6463C242.62 59.8323 241.968 62.1257 243.857 63.9109C245.428 65.3704 247.004 65.1619 248.34 63.6178C249.897 61.8391 248.868 59.0505 245.877 56.6658V56.6463ZM252.041 48.9777C249.024 51.851 248.047 54.9914 250.021 56.288C250.636 56.5948 251.314 56.7546 252.002 56.7546C252.689 56.7546 253.367 56.5948 253.982 56.288C255.996 55.0565 255.175 52.3722 252.041 48.9972V48.9777Z" fill="#F1F8FE"/>
<path d="M283.988 32.6071H123.56C123.56 25.4792 123.26 18.5469 123.664 11.6601C123.944 6.8257 128.538 3.19011 133.763 2.65585C134.519 2.58418 135.281 2.61676 136.037 2.61676H271.303C280.255 2.61676 284.386 6.76054 284.379 15.7387C284.379 21.0466 284.355 26.3545 284.308 31.6623C284.239 31.9888 284.132 32.3059 283.988 32.6071ZM225.35 16.892C214.958 16.892 204.566 16.8398 194.18 16.9571C192.773 16.9571 190.147 17.9605 190.18 18.3058C190.414 20.912 192.701 19.9868 194.213 19.9868C214.993 20.0432 235.772 20.0563 256.552 20.0259C257.423 20.107 258.3 20.0631 259.158 19.8956C259.771 19.7131 260.246 19.0551 260.781 18.5925C260.233 18.0452 259.777 17.2894 259.119 17.0092C258.264 16.8168 257.383 16.7728 256.513 16.8789L225.35 16.892ZM143.751 24.0589C146.787 24.0915 149.452 21.5309 149.42 18.612C149.411 17.1347 148.832 15.7179 147.804 14.657C146.775 13.5961 145.377 12.973 143.901 12.9176C143.148 12.8724 142.394 12.9805 141.684 13.2351C140.974 13.4898 140.323 13.8858 139.771 14.3992C139.218 14.9126 138.776 15.5327 138.47 16.222C138.164 16.9114 138.001 17.6556 137.991 18.4097C137.981 19.1639 138.123 19.9122 138.411 20.6095C138.698 21.3069 139.124 21.9387 139.662 22.4667C140.201 22.9948 140.841 23.4082 141.544 23.6818C142.246 23.9555 142.997 24.0838 143.751 24.0589ZM177.377 18.4296C177.327 16.9484 176.704 15.5446 175.638 14.5145C174.573 13.4844 173.148 12.9085 171.666 12.9085C170.184 12.9085 168.76 13.4844 167.695 14.5145C166.629 15.5446 166.006 16.9484 165.956 18.4296C165.96 19.1874 166.117 19.9366 166.416 20.6328C166.716 21.329 167.152 21.9582 167.698 22.483C168.245 23.0078 168.891 23.4177 169.599 23.6884C170.307 23.959 171.062 24.085 171.82 24.0589C173.297 24.0204 174.702 23.4125 175.741 22.3622C176.78 21.3119 177.374 19.9005 177.397 18.4231L177.377 18.4296ZM163.33 18.6185C163.369 15.3218 161.186 12.9827 158.007 12.9176C156.536 12.8956 155.113 13.4378 154.03 14.4327C152.946 15.4275 152.285 16.7995 152.182 18.2667C152.131 19.024 152.239 19.7837 152.499 20.4966C152.76 21.2096 153.167 21.86 153.694 22.4059C154.221 22.9517 154.858 23.3809 155.561 23.6656C156.265 23.9503 157.02 24.0843 157.779 24.0589C161.121 24.0328 163.31 21.8893 163.35 18.612L163.33 18.6185Z" fill="#ECF7FD"/>
<path d="M344.127 86.4443C338.498 86.4443 332.869 86.4769 327.233 86.4443C323.793 86.4443 321.565 84.6787 321.441 82.053C321.317 79.5446 323.135 77.8375 326.477 77.2707C328.38 76.9449 330.341 76.3911 330.165 74.013C329.989 71.6349 328.243 70.8335 326.008 70.853C322.75 70.853 319.493 70.9182 316.235 70.853C313.238 70.7814 311.277 68.9766 311.205 66.4226C311.133 63.8685 313.062 61.8162 316.026 61.7771C323.93 61.6794 331.839 61.6989 339.742 61.7771C342.381 61.8097 344.01 63.3082 344.121 66.0317C344.232 68.7551 342.818 70.4165 339.99 70.8986C338.634 71.0513 337.338 71.5443 336.224 72.332C335.644 72.8272 335.416 74.7623 335.879 75.2444C336.811 76.2217 338.303 77.199 339.593 77.199C346.108 77.3945 352.584 77.2967 359.08 77.2967C360.057 77.2967 361.035 77.2511 362.006 77.3358C364.833 77.603 366.397 79.323 366.267 82.0399C366.123 84.9328 364.423 86.3792 361.647 86.4183C355.829 86.4965 349.978 86.4443 344.127 86.4443Z" fill="#8AD6F8"/>
<path d="M203.73 100.812C210.666 100.966 217.318 103.598 222.481 108.234C223.074 108.755 223.054 109.98 223.321 110.84C222.468 110.638 221.438 110.67 220.78 110.188C208.401 101.203 199.371 101.197 187.018 110.123C186.334 110.618 185.193 110.475 184.262 110.625C184.666 109.739 184.842 108.579 185.513 108.019C190.567 103.579 197.006 101.032 203.73 100.812Z" fill="#2689C2"/>
<path d="M228.169 81.826C228.159 82.5865 227.993 83.3369 227.683 84.0311C227.372 84.7254 226.923 85.349 226.363 85.8638C225.803 86.3785 225.144 86.7736 224.426 87.0249C223.708 87.2761 222.947 87.3782 222.188 87.325C221.429 87.3084 220.68 87.139 219.988 86.8267C219.295 86.5145 218.672 86.066 218.157 85.5078C217.641 84.9497 217.244 84.2935 216.988 83.5782C216.731 82.863 216.622 82.1035 216.666 81.345C216.709 80.5865 216.906 79.8446 217.242 79.1637C217.579 78.4827 218.05 77.8765 218.626 77.3814C219.202 76.8863 219.872 76.5124 220.596 76.282C221.32 76.0516 222.083 75.9694 222.84 76.0403C223.57 76.0697 224.287 76.2427 224.95 76.5494C225.613 76.8562 226.209 77.2907 226.704 77.8281C227.199 78.3654 227.583 78.9952 227.835 79.6812C228.086 80.3672 228.2 81.096 228.169 81.826Z" fill="#0F86C7"/>
<path d="M185.376 76.0364C186.497 76.0715 187.583 76.4396 188.494 77.0939C189.405 77.7481 190.101 78.6589 190.493 79.7101C190.885 80.7613 190.954 81.9054 190.694 82.9964C190.433 84.0874 189.853 85.0761 189.028 85.8363C188.203 86.5966 187.17 87.094 186.062 87.2652C184.953 87.4364 183.818 87.2736 182.803 86.7976C181.787 86.3216 180.936 85.5539 180.358 84.5923C179.78 83.6308 179.502 82.519 179.558 81.3986C179.647 79.9262 180.302 78.5454 181.387 77.5457C182.472 76.546 183.901 76.0051 185.376 76.0364Z" fill="#0F86C7"/>
<path d="M245.877 56.6602C248.868 59.0448 249.897 61.8334 248.34 63.6316C247.005 65.1758 245.428 65.3842 243.858 63.9248C241.942 62.1396 242.594 59.8462 245.877 56.6602Z" fill="#7DC5EB"/>
<path d="M252.04 48.9961C255.174 52.3711 255.995 55.0554 253.994 56.3324C253.379 56.6393 252.701 56.799 252.014 56.799C251.326 56.799 250.648 56.6393 250.033 56.3324C248.046 55.0098 249.023 51.8694 252.04 48.9961Z" fill="#7DC5EB"/>
<path d="M225.378 16.8884H256.548C257.418 16.7822 258.299 16.8263 259.154 17.0187C259.806 17.2728 260.268 18.0546 260.816 18.6019C260.281 19.045 259.806 19.703 259.193 19.905C258.335 20.0726 257.458 20.1165 256.587 20.0353C235.812 20.0353 215.032 20.0223 194.248 19.9962C192.736 19.9962 190.449 20.9344 190.215 18.3152C190.215 17.9699 192.821 16.9796 194.215 16.9666C204.568 16.8362 214.993 16.8884 225.378 16.8884Z" fill="#A6D8F4"/>
<path d="M143.777 24.0497C143.023 24.0746 142.272 23.9463 141.569 23.6727C140.866 23.399 140.226 22.9857 139.688 22.4576C139.149 21.9295 138.724 21.2977 138.436 20.6004C138.149 19.9031 138.006 19.1547 138.016 18.4006C138.026 17.6465 138.189 16.9022 138.495 16.2129C138.801 15.5235 139.244 14.9034 139.796 14.39C140.349 13.8766 141 13.4806 141.71 13.226C142.42 12.9713 143.174 12.8633 143.927 12.9084C145.403 12.9638 146.801 13.5869 147.829 14.6478C148.857 15.7087 149.436 17.1255 149.445 18.6029C149.478 21.5218 146.813 24.0823 143.777 24.0497Z" fill="#75C4ED"/>
<path d="M177.402 18.4195C177.377 19.8958 176.783 21.3055 175.744 22.3544C174.705 23.4034 173.301 24.0104 171.825 24.0488C171.067 24.0749 170.312 23.949 169.605 23.6783C168.897 23.4076 168.25 22.9977 167.704 22.4729C167.157 21.9481 166.721 21.3189 166.422 20.6227C166.122 19.9265 165.966 19.1773 165.961 18.4195C166.011 16.9383 166.635 15.5345 167.7 14.5044C168.766 13.4743 170.19 12.8984 171.672 12.8984C173.154 12.8984 174.578 13.4743 175.643 14.5044C176.709 15.5345 177.332 16.9383 177.382 18.4195H177.402Z" fill="#75C4ED"/>
<path d="M163.356 18.6078C163.317 21.8655 161.127 24.0286 157.805 24.0482C157.046 24.0736 156.29 23.9397 155.587 23.6549C154.883 23.3702 154.247 22.941 153.72 22.3952C153.192 21.8493 152.785 21.1989 152.525 20.486C152.264 19.773 152.156 19.0133 152.208 18.256C152.311 16.7888 152.972 15.4168 154.055 14.422C155.139 13.4271 156.562 12.8849 158.033 12.9069C161.212 12.972 163.395 15.3111 163.356 18.6078Z" fill="#75C4ED"/>
</g>
</svg>
