<svg width="43" height="43" viewBox="0 0 43 43" fill="none" xmlns="http://www.w3.org/2000/svg">
<path d="M11.3555 18.6193L18.8308 22.6061M11.3555 18.6193L18.8308 15.1309L25.8077 19.1177M11.3555 18.6193V28.088L18.8308 32.0748M18.8308 22.6061L25.8077 19.1177M18.8308 22.6061V32.0748M25.8077 19.1177V28.088L18.8308 32.0748" stroke="black" stroke-width="1.13833"/>
<mask id="mask0_4545_1091894" style="mask-type:alpha" maskUnits="userSpaceOnUse" x="16" y="8" width="16" height="21">
<path d="M16.1442 14.5638L18.1283 13.7099L27.0257 18.7271L27.3355 26.2716V28.9227L30.0333 27.4086L31.4568 25.6071C31.5312 23.6393 31.4513 19.8172 31.5902 17.7337C31.7638 15.1294 31.4892 11.0101 31.39 10.6388C31.2908 10.2676 29.0674 9.16806 28.2985 8.54797C27.5296 7.92789 24.9866 7.83756 21.0924 8.25922C17.1983 8.68088 16.5789 11.8023 16.5541 12.0504C16.5343 12.2488 15.7643 13.1006 16.1442 14.5638Z" fill="#D9D9D9"/>
</mask>
<g mask="url(#mask0_4545_1091894)">
<path fill-rule="evenodd" clip-rule="evenodd" d="M30.9461 11.6447L30.9807 24.6019C30.9807 25.9038 29.9084 26.7845 28.6472 27.3201C27.3522 27.8699 25.6596 28.1526 23.9926 28.1732C22.3265 28.1939 20.6296 27.9535 19.3289 27.412C18.0472 26.8783 16.9922 25.9732 16.9922 24.6019V11.6447C16.9922 9.71809 20.1159 8.15625 23.9691 8.15625C27.8224 8.15625 30.9461 9.71809 30.9461 11.6447ZM29.9494 11.6447C29.9494 12.0271 29.6134 12.6416 28.4568 13.22C27.3598 13.7685 25.7746 14.1365 23.9691 14.1365C22.1637 14.1365 20.5784 13.7685 19.4814 13.22C18.3248 12.6416 17.9889 12.0271 17.9889 11.6447C17.9889 11.2623 18.3248 10.6478 19.4814 10.0695C20.5784 9.52098 22.1637 9.15295 23.9691 9.15295C25.7746 9.15295 27.3598 9.52098 28.4568 10.0695C29.6134 10.6478 29.9494 11.2623 29.9494 11.6447ZM17.9889 13.4426V24.6019C17.9889 25.3598 18.5579 26.0113 19.7121 26.4919C20.8474 26.9646 22.3984 27.1962 23.9803 27.1766C25.5612 27.157 27.1165 26.8872 28.2576 26.4026C29.4323 25.9038 29.984 25.2681 29.984 24.6019V13.4135C28.7708 14.4427 26.5312 15.1332 23.9691 15.1332C21.4312 15.1332 19.2098 14.4556 17.9889 13.4426Z" fill="black"/>
</g>
</svg>
