<svg width="43" height="43" viewBox="0 0 43 43" fill="none" xmlns="http://www.w3.org/2000/svg">
<path d="M12.0043 20.793C12.0689 20.8145 12.1421 20.8231 12.2025 20.8576C14.2097 21.9 16.217 22.951 18.2243 23.9891C18.3707 24.0666 18.4009 24.1571 18.4009 24.3079C18.3966 26.7976 18.3966 29.2873 18.3966 31.777C18.3966 31.8545 18.4009 31.932 18.4052 32.0139C18.375 32.0139 18.3492 32.0139 18.319 32.0139C18.263 31.9751 18.2113 31.9234 18.1554 31.8933C16.2988 30.9155 14.438 29.9334 12.5772 28.9642C12.3231 28.8307 12.1077 28.6756 12 28.3999C12.0043 25.8671 12.0043 23.3301 12.0043 20.793Z" fill="#7E7E7E"/>
<path d="M19.6953 32.0143C19.6953 29.4255 19.6953 26.841 19.6953 24.2523C19.6953 24.1489 19.7039 24.0713 19.8159 24.011C21.8663 22.9514 23.9166 21.8832 25.967 20.8192C25.9842 20.8106 26.0057 20.8063 26.0488 20.7891C26.0531 20.8666 26.0617 20.9312 26.0617 20.9958C26.0617 23.3822 26.0574 25.7685 26.066 28.1548C26.066 28.5123 25.9239 28.7449 25.6138 28.9086C23.7056 29.9036 21.8017 30.9073 19.8978 31.9109C19.8418 31.9411 19.7901 31.9755 19.7384 32.01C19.7255 32.0143 19.7125 32.0143 19.6953 32.0143Z" fill="#7E7E7E"/>
<path d="M24.9182 15.1379C23.5527 15.1207 22.1184 14.9742 20.7529 14.4315C20.3049 14.2549 19.8828 14.0266 19.5339 13.6863C18.8361 13.0014 18.849 12.0839 19.5683 11.4206C20.1326 10.9037 20.8261 10.6323 21.5498 10.4385C23.3158 9.96036 25.1077 9.90006 26.9169 10.1284C27.787 10.236 28.6355 10.4299 29.4367 10.7831C29.8675 10.9726 30.2681 11.2052 30.5782 11.5627C31.1425 12.2089 31.1252 13.01 30.5308 13.6303C30.057 14.1257 29.4453 14.3927 28.8078 14.5995C27.5759 15.0044 26.2966 15.1293 24.9182 15.1379Z" fill="#7E7E7E"/>
<path d="M27.363 27.5598C27.363 27.4392 27.363 27.3531 27.363 27.2669C27.363 25.0098 27.3543 22.7527 27.3673 20.4956C27.3716 19.5824 26.9796 18.9492 26.1698 18.5314C24.6579 17.7518 23.1546 16.9549 21.647 16.1623C21.578 16.1279 21.5134 16.0848 21.4531 16.0288C21.8063 16.0977 22.1552 16.1752 22.5085 16.2312C23.7921 16.438 25.0843 16.4768 26.3809 16.3691C27.5352 16.27 28.6638 16.0762 29.7364 15.6282C30.1111 15.4731 30.46 15.2534 30.8175 15.0639C30.8649 15.0381 30.9123 15.0079 30.9941 14.9648C30.9941 15.0768 30.9941 15.1587 30.9941 15.2448C30.9941 18.484 30.9855 21.7189 30.9984 24.9581C31.0028 25.6301 30.7357 26.1298 30.2102 26.5174C29.577 26.9869 28.8447 27.2239 28.0909 27.4048C27.8626 27.4651 27.6257 27.5081 27.363 27.5598Z" fill="#7E7E7E"/>
<path d="M12.668 19.6185C13.2796 19.2997 13.8654 18.9896 14.4513 18.6838C15.8512 17.9515 17.2511 17.2192 18.651 16.4827C18.9052 16.3491 19.1507 16.3276 19.4048 16.4611C21.3863 17.4992 23.3677 18.5416 25.3491 19.5797C25.3663 19.5883 25.3836 19.6013 25.4223 19.6271C25.3706 19.6616 25.3319 19.696 25.2845 19.7219C23.26 20.7729 21.2398 21.8282 19.2153 22.8792C19.1076 22.9352 19.0172 22.9525 18.9009 22.8922C16.8807 21.8325 14.8562 20.7815 12.836 19.7262C12.7843 19.6917 12.7369 19.6616 12.668 19.6185Z" fill="#7E7E7E"/>
</svg>
