<svg width="19" height="23" viewBox="0 0 19 23" fill="none" xmlns="http://www.w3.org/2000/svg">
<path d="M0.00430745 10.7939C0.0689192 10.8155 0.142146 10.8241 0.20245 10.8586C2.20972 11.901 4.217 12.952 6.22427 13.9901C6.37072 14.0676 6.40088 14.1581 6.40088 14.3088C6.39657 16.7985 6.39657 19.2882 6.39657 21.778C6.39657 21.8555 6.40088 21.933 6.40518 22.0149C6.37503 22.0149 6.34919 22.0149 6.31903 22.0149C6.26304 21.9761 6.21135 21.9244 6.15535 21.8943C4.29884 20.9165 2.43802 19.9344 0.577199 18.9652C0.323059 18.8317 0.107686 18.6766 0 18.4009C0.00430745 15.8681 0.00430745 13.331 0.00430745 10.7939Z" fill="black"/>
<path d="M7.69531 22.0143C7.69531 19.4255 7.69531 16.841 7.69531 14.2523C7.69531 14.1489 7.70393 14.0713 7.81592 14.011C9.86627 12.9514 11.9166 11.8832 13.967 10.8192C13.9842 10.8106 14.0057 10.8063 14.0488 10.7891C14.0531 10.8666 14.0617 10.9312 14.0617 10.9958C14.0617 13.3822 14.0574 15.7685 14.066 18.1548C14.066 18.5123 13.9239 18.7449 13.6138 18.9086C11.7056 19.9036 9.80166 20.9073 7.89776 21.9109C7.84177 21.9411 7.79008 21.9755 7.73839 22.01C7.72546 22.0143 7.71254 22.0143 7.69531 22.0143Z" fill="black"/>
<path d="M12.9182 5.13792C11.5527 5.12069 10.1184 4.97424 8.75289 4.4315C8.30492 4.25489 7.88279 4.0266 7.53388 3.68631C6.83607 3.00143 6.849 2.08394 7.56834 1.42059C8.13262 0.903695 8.82612 0.632326 9.54977 0.43849C11.3158 -0.039637 13.1077 -0.0999413 14.9169 0.128354C15.787 0.23604 16.6355 0.429875 17.4367 0.783087C17.8675 0.972615 18.2681 1.20522 18.5782 1.56274C19.1425 2.20885 19.1252 3.01004 18.5308 3.63031C18.057 4.12567 17.4453 4.39273 16.8078 4.59949C15.5759 5.00439 14.2966 5.12931 12.9182 5.13792Z" fill="black"/>
<path d="M15.363 17.5608C15.363 17.4402 15.363 17.3541 15.363 17.2679C15.363 15.0108 15.3543 12.7537 15.3673 10.4966C15.3716 9.58341 14.9796 8.95021 14.1698 8.53239C12.6579 7.75274 11.1546 6.95586 9.64696 6.16329C9.57804 6.12883 9.51343 6.08576 9.45312 6.02976C9.80634 6.09868 10.1552 6.17622 10.5085 6.23221C11.7921 6.43897 13.0843 6.47774 14.3809 6.37005C15.5352 6.27098 16.6638 6.07714 17.7364 5.62917C18.1111 5.4741 18.46 5.25442 18.8175 5.06489C18.8649 5.03905 18.9123 5.00889 18.9941 4.96582C18.9941 5.07781 18.9941 5.15966 18.9941 5.2458C18.9941 8.48501 18.9855 11.7199 18.9984 14.9591C19.0028 15.6311 18.7357 16.1307 18.2102 16.5184C17.577 16.9879 16.8447 17.2248 16.0909 17.4057C15.8626 17.466 15.6257 17.5091 15.363 17.5608Z" fill="black"/>
<path d="M0.667969 9.61751C1.27963 9.29876 1.86544 8.98862 2.45125 8.68279C3.85118 7.95052 5.2511 7.21826 6.65102 6.48168C6.90516 6.34815 7.15069 6.32661 7.40483 6.46015C9.38625 7.49824 11.3677 8.54065 13.3491 9.57874C13.3663 9.58736 13.3836 9.60028 13.4223 9.62612C13.3706 9.66058 13.3319 9.69504 13.2845 9.72089C11.26 10.7719 9.2398 11.8272 7.2153 12.8783C7.10761 12.9342 7.01716 12.9515 6.90085 12.8912C4.88066 11.8315 2.85616 10.7805 0.835959 9.7252C0.78427 9.69074 0.736888 9.66058 0.667969 9.61751Z" fill="black"/>
</svg>
