<svg width="45" height="29" viewBox="0 0 45 29" fill="none" xmlns="http://www.w3.org/2000/svg">
<path d="M17.3794 7.88362V7.88224L26.6722 13.4538L32.2095 11.1208C33.3349 10.6342 34.5482 10.3839 35.7742 10.3856C35.9789 10.3856 36.1809 10.3952 36.3814 10.4077C35.716 7.8092 34.3107 5.46015 32.3364 3.64608C30.3622 1.832 27.9039 0.631035 25.2606 0.189152C22.6172 -0.252731 19.9025 0.0835 17.4464 1.15698C14.9904 2.23045 12.8987 3.99494 11.4258 6.23597L11.5669 6.23182C13.6204 6.22913 15.6337 6.80127 17.3794 7.88362Z" fill="#0364B8"/>
<path d="M17.3787 7.88182C15.6324 6.79971 13.6186 6.22804 11.5648 6.2314L11.4237 6.23555C9.41379 6.26072 7.44874 6.83356 5.73965 7.89252C4.03056 8.95149 2.64203 10.4566 1.72325 12.246C0.804475 14.0355 0.390176 16.0417 0.524867 18.0491C0.659558 20.0565 1.33815 21.9893 2.48773 23.6397L10.6795 20.1879L14.323 18.6538L22.4332 15.2367L26.6687 13.4534L17.3787 7.88182Z" fill="#0078D4"/>
<path d="M36.3811 10.4088C36.179 10.3946 35.9764 10.3872 35.7738 10.3866C34.5482 10.3856 33.3354 10.6363 32.2105 11.1232L26.6719 13.4548L28.2779 14.4171L33.5412 17.5726L35.8374 18.9488L43.6903 23.6564C44.4038 22.3307 44.7736 20.8469 44.7658 19.3411C44.7579 17.8352 44.3727 16.3554 43.6454 15.0372C42.9181 13.719 41.8719 12.6045 40.6028 11.7959C39.3337 10.9873 37.8821 10.5103 36.3811 10.4088Z" fill="#1490DF"/>
<path d="M35.8351 18.9492L33.5389 17.5729L28.2755 14.4161L26.6709 13.4552L22.434 15.2385L14.3238 18.6557L10.6789 20.1898L2.48438 23.6415C3.50291 25.1072 4.86075 26.3043 6.4419 27.1305C8.02305 27.9568 9.78052 28.3877 11.5642 28.3865H35.7715C37.3947 28.3871 38.9879 27.9477 40.3817 27.1149C41.7755 26.2822 42.918 25.0872 43.688 23.6568L35.8351 18.9492Z" fill="#28A8EA"/>
</svg>
