<svg width="80" height="80" viewBox="0 0 80 80" fill="none" xmlns="http://www.w3.org/2000/svg">
<path fill-rule="evenodd" clip-rule="evenodd" d="M64.4234 43.7178C67.5827 44.2112 70 46.9439 70 50.2418C70 52.8179 68.5239 55.0482 66.3721 56.1365C66.211 56.2182 66.0462 56.2935 65.8775 56.3618H32.769V56.3606C28.5657 56.3343 25.1659 52.9197 25.1659 48.71C25.1659 44.484 28.5916 41.058 32.8177 41.058C33.0304 41.058 33.2402 41.0691 33.4482 41.086C33.4365 40.8917 33.4286 40.6965 33.4286 40.4993C33.4286 35.21 37.7165 30.9221 43.0058 30.9221C46.7218 30.9221 49.9412 33.0401 51.529 36.1332C52.8423 35.2719 54.4121 34.7691 56.1003 34.7691C60.7103 34.7691 64.4473 38.5062 64.4473 43.1162C64.4473 43.3187 64.4374 43.5188 64.4234 43.7178ZM31.7863 39.4209C27.1164 39.9358 23.4722 43.9051 23.4722 48.71C23.4722 50.6664 24.0814 52.4864 25.1187 53.9914H19.924C15.5477 53.9914 12 50.4437 12 46.0674C12 41.8846 15.2416 38.4612 19.3492 38.1662C19.212 37.5451 19.1376 36.9002 19.1376 36.2379C19.1376 31.3102 23.1323 27.3158 28.0597 27.3158C29.907 27.3158 31.6229 27.8769 33.0464 28.8383C35.0681 24.7853 39.2524 22 44.0894 22C50.479 22 55.7338 26.858 56.3626 33.0818C56.275 33.0795 56.1881 33.0754 56.1003 33.0754C54.7263 33.0754 53.3812 33.354 52.1359 33.8903C50.0352 30.979 46.6702 29.2284 43.0058 29.2284C37.1549 29.2284 32.331 33.7103 31.7863 39.4209Z" fill="white"/>
</svg>
