<svg width="25" height="25" viewBox="0 0 25 25" fill="none" xmlns="http://www.w3.org/2000/svg">
<path d="M16.8756 6.27405C16.8584 6.26029 16.8406 6.24618 16.8225 6.23216C14.695 4.58105 12.2971 4.00258 9.66873 4.58864C4.45475 5.75091 1.60018 11.486 3.88628 16.3171C4.65627 17.9443 5.71275 19.168 7.03354 19.9885C8.35394 20.8089 9.92963 21.2208 11.7299 21.239C11.7299 21.239 11.73 21.239 11.73 21.239L11.7315 21.089C12.1635 21.0936 12.5796 20.9809 12.9495 20.7441M16.8756 6.27405L13.3061 18.4245C13.444 18.7278 13.5603 19.0542 13.61 19.3816C13.6986 19.9678 13.4471 20.4264 12.9495 20.7441M16.8756 6.27405C17.0138 6.15998 17.1516 6.0445 17.2895 5.92885C17.6785 5.60288 18.0691 5.27546 18.4755 4.97381C18.927 4.63859 19.4137 4.3495 19.898 4.07755C19.898 4.07754 19.898 4.07752 19.8981 4.07751L16.8756 6.27405ZM12.9495 20.7441L13.0302 20.8706C13.0303 20.8705 13.0303 20.8705 13.0304 20.8705L12.9495 20.7441ZM17.5981 10.1286C16.893 10.744 16.13 11.2769 15.3168 11.7396C15.2646 11.7694 15.2015 11.8518 15.2072 11.9021M17.5981 10.1286L12.1609 14.3017C12.8537 14.4088 13.5301 14.3601 14.1368 13.9701C14.8844 13.4895 15.3117 12.8326 15.2072 11.9021M17.5981 10.1286L17.6967 10.2416C17.6967 10.2416 17.6967 10.2417 17.6967 10.2417M17.5981 10.1286L17.6967 10.2417M15.2072 11.9021L15.3562 11.8853M15.2072 11.9021L15.3562 11.8853C15.3562 11.8853 15.3562 11.8853 15.3562 11.8853M15.3562 11.8853C15.3575 11.8964 15.3564 11.9046 15.3557 11.9085C15.355 11.9126 15.3542 11.9145 15.3544 11.914C15.3547 11.9131 15.356 11.9104 15.3585 11.9062M15.3562 11.8853C15.357 11.8923 15.3578 11.8993 15.3585 11.9062M15.3585 11.9062C15.3597 11.9043 15.3611 11.9021 15.3629 11.8996C15.3682 11.892 15.3746 11.8846 15.381 11.8785C15.3877 11.872 15.3915 11.8697 15.391 11.87L15.391 11.87C16.2122 11.4027 16.9835 10.8641 17.6967 10.2417M15.3585 11.9062C15.4092 12.3909 15.3234 12.8123 15.123 13.1771C14.9206 13.5453 14.6064 13.8465 14.2179 14.0963L14.2179 14.0963C13.5694 14.5131 12.8517 14.5602 12.138 14.4499L12.138 14.4499C11.2529 14.313 10.5076 13.9131 9.984 13.1495L9.9839 13.1494C9.93631 13.0798 9.88731 12.9951 9.86725 12.8983C9.84593 12.7954 9.85906 12.6875 9.92093 12.5803L9.92106 12.5801C9.98362 12.4722 10.0722 12.4052 10.1749 12.3736C10.2724 12.3436 10.3727 12.3484 10.46 12.3628C10.6553 12.3949 10.8087 12.3677 10.9338 12.2999C11.0608 12.2311 11.1723 12.1131 11.2692 11.9408L11.4 12.0143L11.2693 11.9408C11.3012 11.8839 11.3332 11.8267 11.3652 11.7692C11.4825 11.5592 11.6016 11.3459 11.7287 11.1386L11.8565 11.217L11.7287 11.1386C11.9832 10.7233 12.3382 10.3784 12.8572 10.2712C13.0622 10.2289 13.2814 10.2189 13.4979 10.2089C13.5648 10.2059 13.6314 10.2028 13.6973 10.1988C14.3424 8.9915 15.2609 7.94261 16.2227 6.93783C16.2131 6.92976 16.2034 6.92192 16.1931 6.91404L16.2842 6.79492M17.6967 10.2417L11.5079 20.3308C7.96012 20.3348 4.85806 17.7871 4.16437 14.3021C3.3533 10.2266 5.91733 6.3104 10.0006 5.45576C12.2739 4.98 14.3426 5.50162 16.1932 6.91416L16.2842 6.79492M16.2842 6.79492C16.2986 6.80593 16.3127 6.81744 16.3268 6.82946L16.2842 6.79492ZM12.4765 20.1289L12.4766 20.1289C12.6192 20.0534 12.7227 19.9629 12.785 19.8609C12.8456 19.7616 12.8729 19.6423 12.8491 19.4941C12.8087 19.2455 12.7226 18.9938 12.6143 18.7569M12.4765 20.1289L12.6143 18.7569M12.4765 20.1289C12.1822 20.2849 11.856 20.3303 11.5079 20.3308L12.4765 20.1289ZM12.6143 18.7569C12.3844 18.2541 12.2922 17.7304 12.3738 17.1804M12.6143 18.7569L12.3738 17.1804M12.3738 17.1804C12.3738 17.1804 12.3738 17.1804 12.3738 17.1804L12.5222 17.2024L12.3738 17.1804ZM21.5781 3.99826C21.3707 3.78846 21.0584 3.71391 20.7104 3.79075L21.0636 6.46167C21.3745 5.98386 21.6778 5.47329 21.7929 4.87134C21.8596 4.52209 21.7843 4.20696 21.5781 3.99826ZM18.4695 9.53418C18.4468 9.48758 18.4234 9.44114 18.3995 9.39487C18.361 9.43013 18.3229 9.46532 18.285 9.5004C18.3088 9.54696 18.3319 9.5937 18.3544 9.64061C18.3927 9.60513 18.431 9.56963 18.4695 9.53418ZM10.0508 12.6553C10.1385 12.5041 10.2835 12.4857 10.4356 12.5108L10.1077 13.0647C10.0201 12.9366 9.96475 12.8044 10.0508 12.6553ZM18.8175 10.9312C18.8175 10.9312 18.8175 10.9313 18.8175 10.9313L18.9631 10.8952L18.8175 10.9312ZM18.1807 14.7613L18.1102 14.6289L18.1101 14.6289L18.1807 14.7613ZM19.0298 13.2482C19.0298 13.2482 19.0298 13.2483 19.0298 13.2483L19.1788 13.2656L19.0298 13.2482ZM20.387 5.81122L20.387 5.81127C19.6334 7.03313 18.6619 8.07927 17.6098 9.06399C17.3442 9.31231 17.0698 9.54776 16.8011 9.77825C16.7174 9.84999 16.6344 9.92125 16.5523 9.99227C16.3895 9.82925 16.2316 9.67126 16.0746 9.51419C15.9147 9.35416 15.7557 9.19509 15.5934 9.03263C15.6252 8.9942 15.6574 8.95517 15.6899 8.91571C15.8312 8.74419 15.9792 8.56445 16.1357 8.38966L16.1357 8.38965C17.2856 7.10503 18.5173 5.929 19.9992 5.05273L19.9992 5.05272C20.2528 4.9027 20.5359 4.78761 20.8252 4.68474L20.8254 4.68468C20.8755 4.66678 20.9086 4.66283 20.9267 4.66357C20.9343 4.66388 20.9373 4.66484 20.9373 4.66486C20.9372 4.66489 20.9326 4.66345 20.9267 4.65747C20.9202 4.65086 20.9188 4.64555 20.9188 4.64554C20.9188 4.64553 20.9195 4.64801 20.9195 4.65425C20.9198 4.67109 20.915 4.70322 20.8951 4.75283C20.7466 5.12186 20.589 5.48396 20.387 5.81122ZM12.5691 13.58L12.569 13.58C12.0975 13.5583 11.6649 13.4192 11.2746 13.1607C11.6931 12.9659 11.943 12.6239 12.1455 12.2659L12.1455 12.2659C12.174 12.2154 12.2021 12.1652 12.23 12.1153C12.3391 11.9202 12.4455 11.7299 12.5651 11.5478L12.5651 11.5478C12.6934 11.3522 12.8458 11.2328 13.0144 11.1715C13.1844 11.1097 13.3831 11.1026 13.6098 11.1528L13.61 11.1529C14.0483 11.2496 14.323 11.5212 14.4236 11.9549L14.4236 11.9551C14.5407 12.4574 14.3214 12.8456 13.9183 13.1816C13.5361 13.4997 13.0763 13.6034 12.5691 13.58ZM14.5778 10.5087C14.7057 10.2997 14.8569 10.0526 15.0158 9.79257C15.3228 9.99638 15.5695 10.2482 15.7881 10.5624C15.5272 10.7225 15.2801 10.874 15.0687 11.0031L14.5778 10.5087Z" fill="black" stroke="black" stroke-width="0.3"/>
<path d="M11.8586 9.2779H11.8585C10.9135 9.27903 10.165 8.53425 10.1645 7.58924C10.1639 6.65732 10.9141 5.91064 11.8476 5.91116L11.8586 9.2779ZM11.8586 9.2779C12.789 9.27621 13.5323 8.52334 13.5312 7.58846M11.8586 9.2779L13.5312 7.58846M13.5312 7.58846C13.5301 6.65627 12.7816 5.91121 11.8477 5.91116L13.5312 7.58846ZM11.8606 8.36307L11.8606 8.36307C11.4534 8.37366 11.0942 8.03339 11.0782 7.60972C11.0634 7.20675 11.41 6.83773 11.8257 6.82443L11.8258 6.82443C12.2419 6.81081 12.6087 7.16025 12.6169 7.58427C12.6245 7.99354 12.2796 8.35232 11.8606 8.36307Z" fill="black" stroke="black" stroke-width="0.3"/>
<path d="M7.8747 8.05863L7.8747 8.05863C8.80534 8.06201 9.54517 8.81576 9.54293 9.75184C9.54068 10.6828 8.78816 11.4276 7.85433 11.4254C6.91272 11.4231 6.17286 10.6687 6.17618 9.72131L7.8747 8.05863ZM7.8747 8.05863C6.9379 8.05527 6.17905 8.79373 6.17618 9.72123L7.8747 8.05863ZM8.62856 9.74823V9.74824C8.62386 10.1636 8.26967 10.5128 7.85574 10.5115C7.43723 10.5092 7.08144 10.145 7.0895 9.72679C7.09813 9.31326 7.46379 8.96228 7.86834 8.97244L7.86843 8.97244C8.28887 8.98277 8.63324 9.33769 8.62856 9.74823Z" fill="black" stroke="black" stroke-width="0.3"/>
<path d="M6.93793 13.269C7.35555 13.2673 7.71434 13.6286 7.70966 14.0483C7.70496 14.4602 7.34195 14.8144 6.93568 14.8081C6.51632 14.8012 6.16926 14.4488 6.17011 14.0365L6.02011 14.0362M6.93793 13.269L6.93732 13.119M6.93793 13.269L6.93732 13.119M6.93793 13.269C6.52323 13.2707 6.17139 13.6232 6.17011 14.0367L6.02011 14.0362M6.93732 13.119C6.44029 13.1211 6.02165 13.5402 6.02011 14.0362M6.93732 13.119C7.43896 13.117 7.86528 13.5469 7.85965 14.0501C7.85401 14.544 7.42359 14.9657 6.93322 14.958L6.02011 14.0362M6.94006 12.3546L6.93997 12.3546C6.00636 12.3541 5.25738 13.0993 5.25625 14.0325C5.25513 14.9673 5.99693 15.7191 6.92824 15.7214C7.864 15.7236 8.62074 14.9825 8.623 14.054V14.054C8.62524 13.1076 7.88273 12.3558 6.94006 12.3546Z" fill="black" stroke="black" stroke-width="0.3"/>
<path d="M8.78183 17.4033L8.93182 17.4054C8.93781 16.9901 9.29329 16.6413 9.70512 16.6443L9.70529 16.6443C10.1251 16.6468 10.4807 17.0127 10.4709 17.4295L10.4709 17.4296C10.4615 17.8432 10.0948 18.1938 9.69088 18.1828C9.26973 18.1712 8.92629 17.8153 8.93182 17.4053L8.78183 17.4033ZM8.78183 17.4033C8.789 16.9062 9.21123 16.4907 9.70621 16.4943L8.78183 17.4033ZM11.3847 17.4281V17.4281C11.3864 16.4817 10.6427 15.7304 9.70015 15.7299C8.76687 15.7293 8.01853 16.4752 8.01797 17.4088C8.01741 18.3439 8.75988 19.0944 9.6915 19.0966C10.6269 19.0989 11.383 18.3571 11.3847 17.4281Z" fill="black" stroke="black" stroke-width="0.3"/>
</svg>
