<svg width="25" height="25" viewBox="0 0 25 25" fill="none" xmlns="http://www.w3.org/2000/svg">
<path d="M17.6902 3H17.9099C18.2668 3.2493 18.5084 3.52167 18.448 4.02796C18.3887 4.43173 18.431 4.84391 18.571 5.22724C19.0476 6.33537 19.4825 7.42372 19.7439 8.63179C19.991 9.76957 20.471 10.881 20.6379 12.0638V12.5031C20.4106 13.7112 19.8538 14.6743 18.649 15.1674C18.5392 15.2114 18.4678 15.4563 18.4568 15.6067C18.336 17.4738 18.2306 19.3474 18.1185 21.2166C18.0823 21.8305 17.9176 21.9853 17.3234 21.9985C16.9939 21.9985 16.6645 21.9875 16.3416 21.9985C15.8441 22.0205 15.6112 21.7997 15.5871 21.2956C15.5311 20.1513 15.4498 19.0091 15.3784 17.8647C15.3268 17.0345 15.2686 16.2031 15.2192 15.3388C14.6613 15.3388 14.1539 15.3245 13.6465 15.3388C13.2281 15.3541 12.9172 15.5507 12.8118 15.9867C12.7119 16.3964 12.8722 16.6951 13.2204 16.9071C13.4071 17.0169 13.5949 17.1267 13.7772 17.2508C14.558 17.7549 14.7941 18.2612 14.6327 19.0794C14.4987 19.7614 13.9584 20.2534 13.1094 20.3435C12.4965 20.4057 11.879 20.4086 11.2655 20.3522C7.59736 20.0228 4.4476 17.0575 3.95558 13.4827C3.44271 9.77946 5.54145 6.23762 9.08987 4.85603C11.0699 4.06821 13.2725 4.04668 15.2675 4.79563L17.6902 3ZM14.4153 9.84206C13.2994 10.188 12.5779 10.0288 12.0441 9.3171C11.8183 9.0171 11.6924 8.65371 11.6843 8.27828C11.6763 7.90285 11.7864 7.53438 11.9991 7.22494C12.5197 6.47045 13.2379 6.30352 14.4932 6.65495L14.8161 5.8785C13.7926 5.38319 12.2396 5.2481 10.7801 5.51388C7.72585 6.07508 5.22845 8.75589 5.02637 11.697C4.76499 15.52 7.40517 18.751 11.2172 19.2441C11.8124 19.31 12.4131 19.31 13.0084 19.2441C13.2006 19.2265 13.4631 18.9904 13.5213 18.8048C13.5652 18.6621 13.3653 18.4051 13.2193 18.2557C13.0732 18.1063 12.8536 18.0229 12.6701 17.9032C11.7916 17.3266 11.4983 16.6105 11.7575 15.6704C12.0013 14.7918 12.7053 14.2746 13.7179 14.2537C14.1857 14.2438 14.6536 14.2537 15.0687 14.2537C15.1324 14.1845 15.1544 14.1713 15.1544 14.1582C15.1632 13.5761 15.1236 12.9896 15.1873 12.4141C15.2895 11.474 15.2774 10.5922 14.491 9.91125C14.479 9.88599 14.4636 9.8772 14.4153 9.84206ZM17.1224 4.69129C15.9912 5.74561 15.2818 7.02506 15.3004 8.63179C15.3114 9.52027 15.9166 10.1529 16.7183 10.2199C17.5969 10.2945 18.2558 9.81899 18.4831 8.94589C18.6775 8.20897 18.4238 7.55112 18.1306 6.90096C17.8033 6.17722 17.4739 5.45457 17.1224 4.69129ZM16.8028 20.9244L17.0225 20.8717C17.1543 18.5105 17.2872 16.1493 17.42 13.7573H16.2691C16.3064 14.5261 16.3405 15.286 16.3789 16.0449C16.458 17.4957 16.5382 18.9476 16.6326 20.3973C16.648 20.5719 16.7479 20.7487 16.8072 20.9244H16.8028ZM19.085 10.2374C18.8401 10.5405 18.4799 10.7811 18.4722 11.0337C18.4425 11.9781 18.5271 12.9259 18.5699 13.8891C19.6099 13.441 19.6769 11.8266 19.085 10.2374ZM13.5268 8.91953C13.9419 8.8767 14.1857 8.6263 14.1703 8.21336C14.155 7.80042 13.8947 7.55442 13.4609 7.5665C13.0271 7.57858 12.7899 7.85314 12.8019 8.26608C12.814 8.67902 13.0842 8.91184 13.5268 8.92063V8.91953ZM17.3926 12.5547C17.3739 12.1451 17.3553 11.7563 17.3366 11.3587H16.3932C16.1516 12.6272 16.2856 12.7985 17.3926 12.5547Z" fill="black"/>
<path d="M9.16891 10.9898C8.93222 10.9946 8.69691 10.9525 8.47652 10.8661C8.25612 10.7797 8.05498 10.6506 7.88464 10.4861C7.71431 10.3217 7.57815 10.1253 7.48398 9.90807C7.38982 9.69087 7.33951 9.4572 7.33594 9.22048C7.3363 8.74275 7.52273 8.28394 7.85569 7.94134C8.18865 7.59875 8.64195 7.39931 9.11948 7.38532C9.59748 7.38122 10.0576 7.56696 10.3988 7.90176C10.74 8.23657 10.9343 8.69307 10.9393 9.17106C10.9453 9.40747 10.9039 9.64269 10.8177 9.86289C10.7315 10.0831 10.6021 10.2838 10.4371 10.4533C10.2722 10.6227 10.075 10.7575 9.8572 10.8496C9.63941 10.9417 9.40539 10.9894 9.16891 10.9898ZM9.84213 9.17436C9.78392 8.78229 9.56098 8.51541 9.14145 8.51541C8.72192 8.51541 8.45834 8.78338 8.46383 9.20072C8.46932 9.61805 8.71863 9.87833 9.15024 9.87504C9.58185 9.87174 9.78831 9.60597 9.84213 9.17436Z" fill="black"/>
<path d="M7.72519 11.606C7.96169 11.602 8.19659 11.6455 8.41599 11.7338C8.6354 11.8222 8.83485 11.9537 9.00257 12.1205C9.17028 12.2873 9.30285 12.486 9.39243 12.7049C9.48201 12.9238 9.52679 13.1585 9.52411 13.395C9.526 13.6318 9.4812 13.8666 9.3923 14.086C9.3034 14.3055 9.17212 14.5053 9.00598 14.6739C8.83984 14.8426 8.64208 14.9769 8.42401 15.0692C8.20595 15.1614 7.97184 15.2098 7.73507 15.2115C7.25743 15.2047 6.80114 15.0124 6.46275 14.6753C6.12435 14.3381 5.93038 13.8825 5.92188 13.4049C5.92187 13.1683 5.96855 12.934 6.05923 12.7155C6.14991 12.4969 6.28281 12.2984 6.45032 12.1313C6.61783 11.9642 6.81666 11.8318 7.03542 11.7416C7.25419 11.6515 7.48858 11.6054 7.72519 11.606ZM7.68456 12.7042C7.29468 12.7679 7.0333 13.0029 7.04757 13.4203C7.06185 13.8376 7.33202 14.0946 7.75374 14.0792C8.17547 14.0638 8.42587 13.8068 8.41269 13.3763C8.39951 12.9458 8.12605 12.7404 7.68456 12.7075V12.7042Z" fill="black"/>
</svg>
