<svg width="28" height="28" viewBox="0 0 28 28" fill="none" xmlns="http://www.w3.org/2000/svg">
<path fill-rule="evenodd" clip-rule="evenodd" d="M8.82031 7.33203H19.1536C19.9821 7.33203 20.6536 8.0036 20.6536 8.83203V19.1654C20.6536 19.9938 19.9821 20.6654 19.1536 20.6654H8.82031C7.99188 20.6654 7.32031 19.9938 7.32031 19.1654V8.83203C7.32031 8.0036 7.99188 7.33203 8.82031 7.33203ZM5.82031 8.83203C5.82031 7.17518 7.16346 5.83203 8.82031 5.83203H19.1536C20.8105 5.83203 22.1536 7.17518 22.1536 8.83203V19.1654C22.1536 20.8222 20.8105 22.1654 19.1536 22.1654H8.82031C7.16346 22.1654 5.82031 20.8222 5.82031 19.1654V8.83203ZM14.809 9.38373C14.6683 9.24308 14.4776 9.16406 14.2786 9.16406C14.0797 9.16406 13.889 9.24308 13.7483 9.38373L10.54 12.5921C10.2471 12.885 10.2471 13.3598 10.54 13.6527C10.8329 13.9456 11.3077 13.9456 11.6006 13.6527L13.5286 11.7247V18.0807C13.5286 18.4949 13.8644 18.8307 14.2786 18.8307C14.6929 18.8307 15.0286 18.4949 15.0286 18.0807V11.7247L16.9566 13.6527C17.2495 13.9456 17.7244 13.9456 18.0173 13.6527C18.3102 13.3598 18.3102 12.885 18.0173 12.5921L14.809 9.38373Z" fill="black"/>
</svg>
