<svg width="199" height="199" viewBox="0 0 199 199" fill="none" xmlns="http://www.w3.org/2000/svg">
<path d="M164.019 72.6405C164.287 73.7952 164.467 74.9687 164.556 76.1506C164.582 103.631 164.582 131.108 164.556 158.579C164.556 171.083 156.834 178.819 144.382 178.826H52.324C39.8531 178.806 32.0977 171.05 32.0977 158.579C32.0977 119.08 32.0977 79.5791 32.0977 40.0757C32.0977 27.618 39.8531 19.8824 52.3306 19.8691C70.9808 19.8691 89.6287 19.8691 108.274 19.8691C109.447 19.9491 110.611 20.1174 111.758 20.3725C111.698 31.4791 111.573 42.5858 111.612 53.6924C111.612 62.7856 119.977 72.2895 129.044 72.6339C140.713 73.0975 152.363 72.6803 164.019 72.6405Z" fill="url(#paint0_linear_4664_98960)"/>
<path d="M117.532 113.077C120.63 113.456 123.727 113.838 126.823 114.225C127.109 114.277 127.39 114.351 127.664 114.448C131.994 115.742 134.711 118.83 133.769 122.305C132.59 126.642 128.093 128.603 123.812 127.472C119.234 126.269 115.665 123.359 112.298 120.222C111.14 119.141 110.069 118.806 108.582 119.095C101.713 120.445 94.8219 121.698 87.966 123.118C87.1077 123.299 86.2215 124.13 85.6702 124.89C83.0814 128.453 80.7193 132.182 78.0398 135.668C76.9407 137.095 75.3498 138.243 73.7902 139.199C70.9397 140.943 66.8244 141.299 64.7276 139.199C62.2853 136.756 62.8417 132.598 64.7258 129.901C66.09 127.961 67.8659 126.063 69.893 124.897C73.4901 122.842 77.3873 121.29 81.2252 119.692C82.3801 119.21 83.193 118.68 83.6675 117.504C86.5029 110.645 89.3581 103.797 92.233 96.9609C92.7424 95.7468 92.6273 94.714 91.9818 93.5173C89.8884 89.6236 88.1439 85.5728 87.5368 81.1313C86.8181 75.9641 88.0989 71.0939 92.8509 70.602C96.2178 70.2531 99.8565 73.2253 100.621 76.5642C101.598 80.8243 100.659 84.9902 99.8356 89.1525C99.7824 89.6152 99.6735 90.0698 99.5111 90.5063C98.1155 93.4859 98.8935 95.991 100.872 98.4507C104.361 102.791 107.71 107.24 111.074 111.674C112.12 113.042 113.31 113.726 115.069 113.419C115.854 113.272 116.687 113.394 117.511 113.394L117.532 113.077ZM96.378 101.423L89.9547 116.949L105.92 113.998L96.378 101.423ZM78.6775 126.131L78.2072 126.391C75.1055 127.751 72.0038 129.119 69.6662 131.729C68.8986 132.591 68.6195 133.554 69.4987 134.52C70.3779 135.486 71.32 134.82 71.8991 134.23C74.2228 131.868 76.4236 128.573 78.6775 126.131ZM94.3509 86.8917L94.6963 87.7323C94.8672 84.9864 95.6453 81.3511 95.7081 78.5983C95.7081 78.1203 94.9196 77.1678 94.6963 77.2271C93.9793 77.4358 93.3382 77.8479 92.8506 78.4134C92.5784 78.7274 92.5924 79.4357 92.6971 79.9172C93.196 82.2478 93.7891 84.568 94.3509 86.8917ZM118.973 118.593H117.532C119.552 119.639 122.689 121.475 124.792 122.305C126.628 123.031 127.43 122.371 127.932 120.212C125.106 118.75 122.036 118.715 118.973 118.593Z" fill="white"/>
<g filter="url(#filter0_d_4664_98960)">
<path d="M164.007 72.9684C152.351 73.0082 140.681 73.4254 129.045 72.9684C119.978 72.624 111.64 63.1201 111.613 54.0269C111.573 42.9203 111.699 31.8137 111.759 20.707C112.486 21.1754 113.179 21.6955 113.832 22.2634C130.053 38.4586 146.258 54.6649 162.444 70.8822C163.017 71.5374 163.539 72.2348 164.007 72.9684Z" fill="#F19191"/>
</g>
<defs>
<filter id="filter0_d_4664_98960" x="103.658" y="20.707" width="68.298" height="68.3683" filterUnits="userSpaceOnUse" color-interpolation-filters="sRGB">
<feFlood flood-opacity="0" result="BackgroundImageFix"/>
<feColorMatrix in="SourceAlpha" type="matrix" values="0 0 0 0 0 0 0 0 0 0 0 0 0 0 0 0 0 0 127 0" result="hardAlpha"/>
<feOffset dy="7.94783"/>
<feGaussianBlur stdDeviation="3.97391"/>
<feComposite in2="hardAlpha" operator="out"/>
<feColorMatrix type="matrix" values="0 0 0 0 0 0 0 0 0 0 0 0 0 0 0 0 0 0 0.25 0"/>
<feBlend mode="normal" in2="BackgroundImageFix" result="effect1_dropShadow_4664_98960"/>
<feBlend mode="normal" in="SourceGraphic" in2="effect1_dropShadow_4664_98960" result="shape"/>
</filter>
<linearGradient id="paint0_linear_4664_98960" x1="98.3367" y1="19.8691" x2="98.3367" y2="178.826" gradientUnits="userSpaceOnUse">
<stop stop-color="#E94848"/>
<stop offset="1" stop-color="#E94848"/>
</linearGradient>
</defs>
</svg>
