<svg width="50" height="48" viewBox="0 0 50 48" fill="none" xmlns="http://www.w3.org/2000/svg">
<path d="M46.0025 20.1317C45.7314 20.4392 45.4768 20.7625 45.1812 21.0464C43.2592 22.9072 41.3209 24.7601 39.3908 26.613C38.5037 27.4725 37.9452 27.4646 37.0418 26.5973C36.8282 26.3923 36.6065 26.1951 36.3929 25.998C34.6435 24.3107 32.8858 22.6233 31.1364 20.9281C30.4793 20.2973 29.8305 19.6587 29.1816 19.0279C29.2884 18.9096 29.3952 18.7913 29.5102 18.6809C32.0317 16.2603 34.5449 13.8476 37.0664 11.427C37.1814 11.3166 37.28 11.1904 37.3867 11.0721C37.5099 11.1746 37.6413 11.2693 37.7563 11.3796C40.2367 13.753 42.7172 16.1342 45.1812 18.5154C45.4768 18.7992 45.7232 19.1225 45.9943 19.43C46.0025 19.6587 46.0025 19.8952 46.0025 20.1317Z" fill="#00C1F3"/>
<path d="M37.3964 11.0644C37.2896 11.1827 37.1911 11.3088 37.0761 11.4192C34.5546 13.8398 32.0413 16.2526 29.5199 18.6732C29.4049 18.7836 29.2981 18.9019 29.1913 19.0201C29.1667 19.0201 29.142 19.0201 29.1256 19.0122C29.0845 18.9571 29.0517 18.9019 29.0024 18.8545C26.7438 16.6784 24.4769 14.51 22.2182 12.3417C22.1361 12.2629 22.0211 12.2156 21.9226 12.1446C21.6762 11.8844 21.4462 11.6163 21.1916 11.364C20.4934 10.678 20.4934 10.0315 21.1916 9.3534C23.2203 7.40586 25.2407 5.45832 27.2776 3.51867C27.5322 3.27424 27.8526 3.09289 28.14 2.88C28.3289 2.88 28.526 2.88 28.715 2.88C29.0024 3.09289 29.3227 3.27424 29.5773 3.51079C32.0906 5.90776 34.5957 8.3205 37.1007 10.7332C37.1993 10.8515 37.2979 10.9619 37.3964 11.0644Z" fill="#AFE2FA"/>
<path d="M29.1188 19.0121C29.1435 19.02 29.1681 19.02 29.1846 19.02C29.8334 19.6508 30.4823 20.2894 31.1393 20.9202C32.8888 22.6075 34.6464 24.3028 36.3958 25.9901C35.7388 27.2122 35.0817 28.4265 34.4246 29.6486C32.823 32.6527 31.2132 35.6568 29.6445 38.6767C29.316 39.3075 28.856 39.615 28.1497 39.7254C23.5338 40.4192 18.9261 41.1367 14.3103 41.8385C11.567 42.2564 8.82378 42.6822 6.08054 43.1001C5.95734 43.1158 5.83414 43.1079 5.71094 43.1158C5.98198 42.9029 6.27766 42.7137 6.53227 42.4772C11.8627 37.3678 17.1849 32.2585 22.4989 27.1492C22.7043 26.952 22.8932 26.8417 23.1971 26.8259C24.0348 26.8022 24.618 26.3607 24.9136 25.6353C25.2175 24.8862 25.0861 24.1687 24.4701 23.5853C24.4619 23.5616 24.4619 23.5379 24.4537 23.5143C25.6036 22.4183 26.7534 21.3302 27.9033 20.2263C28.3139 19.8242 28.7164 19.4142 29.1188 19.0121Z" fill="#FBA92D"/>
<path d="M29.1189 19.0132C28.7164 19.4154 28.314 19.8254 27.9033 20.2196C26.7534 21.3156 25.6036 22.4116 24.4537 23.5076C24.3634 23.4524 24.2812 23.3893 24.1909 23.3341C23.542 22.9399 22.8521 22.8847 22.1704 23.2158C21.5134 23.5312 21.1273 24.0674 21.0945 24.777C21.0863 25.0687 20.9713 25.258 20.7742 25.4551C15.4519 30.5408 10.1379 35.6422 4.83215 40.7515C4.56932 41.0039 4.34756 41.3114 4.10938 41.5952C4.29007 40.4756 4.46255 39.3481 4.65145 38.2284C4.9882 36.1468 5.33316 34.0731 5.67812 31.9995C5.98201 30.1544 6.29411 28.3094 6.60622 26.4643C6.95118 24.3907 7.32078 22.317 7.63288 20.2354C7.74787 19.439 8.08461 18.9265 8.86488 18.548C13.1358 16.498 17.3821 14.4007 21.6366 12.3191C21.7351 12.2718 21.8255 12.2166 21.924 12.1614C22.0226 12.2245 22.1376 12.2718 22.2197 12.3585C24.4866 14.5268 26.7452 16.703 29.0039 18.8713C29.045 18.9029 29.086 18.9659 29.1189 19.0132Z" fill="#FFE080"/>
<path d="M24.4658 23.5776C25.09 24.169 25.2215 24.8786 24.9094 25.6277C24.6137 26.3531 24.0305 26.7946 23.1928 26.8183C22.8889 26.8262 22.6918 26.9444 22.4946 27.1416C17.1806 32.2509 11.8584 37.3602 6.5362 42.4695C6.2898 42.7061 5.99412 42.8953 5.71487 43.1082C5.21386 43.2974 4.80319 43.1949 4.43359 42.8007C4.53215 42.6903 4.6225 42.5799 4.72927 42.4774C11.1849 36.28 17.6406 30.0826 24.0962 23.8851C24.2112 23.7748 24.3426 23.6801 24.4658 23.5776Z" fill="#DB226E"/>
<path d="M24.4678 23.5784C24.3446 23.6809 24.2132 23.7756 24.0982 23.886C17.6425 30.0834 11.1869 36.2808 4.73124 42.4782C4.62447 42.5807 4.53412 42.6911 4.43556 42.8015C4.06596 42.4625 3.90169 42.0761 4.10703 41.5951C4.34521 41.3113 4.55876 41.0117 4.8298 40.7515C10.1356 35.6421 15.4496 30.5407 20.7718 25.4471C20.9771 25.25 21.0839 25.0687 21.0921 24.769C21.1168 24.0594 21.5028 23.5233 22.1681 23.2079C22.858 22.8767 23.5397 22.9398 24.1885 23.3261C24.2789 23.3813 24.3692 23.4444 24.4514 23.4996C24.4596 23.5311 24.4678 23.5548 24.4678 23.5784Z" fill="#EE2B79"/>
</svg>
