<svg width="68" height="19" viewBox="0 0 68 19" fill="none" xmlns="http://www.w3.org/2000/svg">
<mask id="mask0_3_2" style="mask-type:alpha" maskUnits="userSpaceOnUse" x="38" y="0" width="30" height="19">
<rect x="38" width="30" height="19" fill="#D9D9D9"/>
</mask>
<g mask="url(#mask0_3_2)">
<path d="M38 9.13151C38.2007 8.61228 38.6261 8.33502 39.0954 8.07581C43.2324 5.78558 47.3653 3.48632 51.4932 1.18051C51.8324 0.991023 52.1375 0.950008 52.519 1.06075C55.5283 1.93189 58.5433 2.7817 61.5568 3.63808C61.6355 3.66022 61.716 3.67581 61.8055 3.69714C61.837 3.50027 61.8528 3.30914 61.8984 3.12622C62.1157 2.25344 62.886 1.64807 63.7907 1.64397C65.1357 1.63905 66.4807 1.6374 67.8249 1.64397C68.9046 1.64889 69.7769 2.51019 69.7777 3.57902C69.7819 7.52868 69.7819 11.4792 69.7778 15.4288C69.7769 16.4944 68.8996 17.3532 67.8191 17.3573C66.5056 17.3631 65.1913 17.3598 63.8778 17.3581C62.7169 17.3565 61.8951 16.5723 61.8362 15.4157C61.8346 15.3862 61.8263 15.3566 61.8147 15.2935C61.1571 15.4764 60.5053 15.6544 59.8552 15.8381C57.3658 16.5403 54.8765 17.2408 52.3905 17.952C52.0778 18.0414 51.8158 18.0029 51.5372 17.8454C47.2924 15.4518 43.0467 13.0615 38.7961 10.6802C38.403 10.4596 38.1534 10.1511 38 9.74591C38 9.54084 38 9.33659 38 9.13151ZM40.6585 10.1134C40.6527 10.1314 40.6477 10.1495 40.6419 10.1675C40.6925 10.1995 40.7414 10.2332 40.7928 10.2627C44.4987 12.3511 48.2045 14.4412 51.9153 16.5206C52.0389 16.5895 52.2329 16.6035 52.3722 16.5649C54.7554 15.9062 57.1353 15.2352 59.516 14.5659C60.2872 14.3493 61.0576 14.132 61.8271 13.9154C61.8271 10.9616 61.8271 8.03644 61.8271 5.099C61.7483 5.07111 61.6745 5.03912 61.5974 5.01779C58.5226 4.15403 55.4487 3.28864 52.3714 2.43636C52.2254 2.39617 52.0206 2.42078 51.8871 2.4946C48.2012 4.53301 44.5202 6.58125 40.8393 8.62868C40.7647 8.66969 40.6967 8.72219 40.5557 8.81571C40.7456 8.81571 40.8459 8.81571 40.9471 8.81571C43.8635 8.82145 46.7807 8.82473 49.6971 8.83867C49.9326 8.83949 50.0545 8.77797 50.1698 8.56388C50.6093 7.74359 51.5322 7.36462 52.4344 7.60251C53.3126 7.83383 53.9005 8.61638 53.8914 9.54001C53.8822 10.4423 53.2653 11.1962 52.3565 11.4144C51.4733 11.626 50.5645 11.2191 50.1466 10.3972C50.0504 10.2069 49.9401 10.1643 49.7436 10.1626C47.406 10.1511 45.0692 10.1306 42.7316 10.115C42.0408 10.1101 41.3501 10.1134 40.6585 10.1134ZM68.451 9.49654C68.451 7.60497 68.4518 5.71339 68.4502 3.82182C68.4493 3.16723 68.2387 2.95724 67.5786 2.95642C66.4003 2.95478 65.222 2.95478 64.0436 2.95642C63.3769 2.95724 63.1655 3.16313 63.1646 3.81362C63.1638 7.60743 63.1638 11.4004 63.1646 15.1942C63.1646 15.8299 63.3794 16.0424 64.0196 16.044C65.1772 16.0465 66.3348 16.0449 67.4924 16.0449C68.2644 16.0449 68.4493 15.8644 68.4493 15.1106C68.451 13.2395 68.451 11.3676 68.451 9.49654ZM52.553 9.48424C52.5464 9.12823 52.2586 8.85508 51.8962 8.85836C51.5322 8.86246 51.2544 9.14054 51.2561 9.49982C51.2577 9.87305 51.5496 10.1519 51.9277 10.1405C52.2876 10.1306 52.5604 9.84516 52.553 9.48424Z" fill="black"/>
</g>
<path d="M1.71891 9.23654C1.33502 8.8395 0.701946 8.82883 0.304901 9.21273C-0.0921442 9.59662 -0.102807 10.2297 0.281086 10.6267L1.71891 9.23654ZM13.6667 7.17361L14.4178 7.83381L14.4274 7.82289L14.4366 7.81171L13.6667 7.17361ZM19.6667 10.6211L20.6609 10.728L20.6638 10.7014L20.6652 10.6748L19.6667 10.6211ZM33 10.137C33.5523 10.137 34 9.68933 34 9.13705C34 8.58476 33.5523 8.13705 33 8.13705V10.137ZM0.281086 10.6267C1.33898 11.7209 3.08587 13.1725 5.58333 13.1725C8.08268 13.1725 11.0001 11.722 14.4178 7.83381L12.9156 6.51341C9.66653 10.2098 7.25066 11.1725 5.58333 11.1725C3.91413 11.1725 2.66102 10.2109 1.71891 9.23654L0.281086 10.6267ZM14.4366 7.81171C15.3821 6.67085 16.1146 6.19828 16.6057 6.05348C17.0168 5.9323 17.3018 6.02184 17.572 6.27105C17.8933 6.56743 18.2058 7.11973 18.4195 7.91722C18.6285 8.69745 18.7187 9.62506 18.6681 10.5675L20.6652 10.6748C20.7257 9.54872 20.6215 8.4078 20.3513 7.39962C20.0859 6.40869 19.6345 5.45269 18.928 4.80099C18.1704 4.10212 17.1638 3.80382 16.0401 4.13513C14.9965 4.44282 13.9512 5.26308 12.8967 6.53551L14.4366 7.81171ZM18.6724 10.5143C18.6083 11.111 18.6218 11.8288 18.8468 12.4651C19.0835 13.1341 19.6075 13.8166 20.5573 13.97C21.4004 14.106 22.332 13.773 23.3167 13.1555C24.3304 12.5198 25.5581 11.4826 27.0522 9.93726L25.6144 8.54706C24.1752 10.0356 23.0752 10.9462 22.2541 11.4611C21.4041 11.9942 20.994 12.0146 20.876 11.9955C20.8648 11.9937 20.8082 12.0126 20.7323 11.7981C20.6449 11.551 20.6139 11.1655 20.6609 10.728L18.6724 10.5143ZM27.0522 9.93726C27.6835 9.28442 28.1789 9.02968 28.5518 8.93722C28.9179 8.84645 29.274 8.8849 29.6868 9.02045C30.1469 9.17155 30.5341 9.38496 31.108 9.64476C31.6201 9.8766 32.2726 10.137 33 10.137V8.13705C32.7274 8.13705 32.4073 8.03755 31.9328 7.82276C31.5201 7.63593 30.9067 7.316 30.3108 7.1203C29.6676 6.90906 28.9125 6.78724 28.0705 6.996C27.2354 7.20305 26.4261 7.70761 25.6144 8.54706L27.0522 9.93726Z" fill="#4A6EE4"/>
</svg>
