<svg width="717" height="218" viewBox="0 0 717 218" fill="none" xmlns="http://www.w3.org/2000/svg">
<g style="mix-blend-mode:luminosity">
<g style="mix-blend-mode:multiply">
<path d="M482.96 0L391.256 49.7825L23.7167 317.691L20.8346 319.787L1.90411 333.543C0.59404 334.591 0.921556 337.473 2.42813 341.01C2.83339 341.974 3.29264 342.915 3.8037 343.827L4.19672 344.482C4.78625 345.464 5.44128 346.447 6.16182 347.495C6.80796 348.409 7.50789 349.284 8.25793 350.115C8.91296 350.77 9.50249 351.425 10.1575 352.015C13.3017 354.897 16.1838 356.272 17.6249 355.224L407.501 72.0536L462.654 19.651L482.96 0Z" fill="#878787"/>
</g>
<path d="M407.177 63.1484L9.50626 351.363L7.41016 349.201C11.2749 353.525 15.205 355.752 16.9736 354.573L407.308 72.0569L407.177 63.1484Z" fill="#989A9D"/>
<g style="mix-blend-mode:multiply" opacity="0.5">
<path d="M407.177 63.1484L9.50626 351.363L7.41016 349.201C11.2749 353.525 15.205 355.752 16.9736 354.573L407.308 72.0569L407.177 63.1484Z" fill="#989A9D"/>
</g>
<path d="M398.86 51.688L391.196 49.4609L0.862082 332.042C-0.841004 333.287 0.0760417 337.544 2.76168 342.326C2.23765 341.344 1.71362 340.361 1.3206 339.51L398.86 51.688Z" fill="#989A9D"/>
<g style="mix-blend-mode:screen" opacity="0.3">
<path d="M398.86 51.688L391.196 49.4609L0.862082 332.042C-0.841004 333.287 0.0760417 337.544 2.76168 342.326C2.23765 341.344 1.71362 340.361 1.3206 339.51L398.86 51.688Z" fill="#989A9D"/>
</g>
<path d="M407.175 63.1506L398.856 51.6875L1.31641 339.509C1.70943 340.361 2.23345 341.343 2.75748 342.326V342.915C3.34701 343.898 4.00204 344.946 4.72258 345.928C5.44311 346.911 6.09815 347.762 6.81868 348.614C7.53922 349.466 6.81868 348.614 6.81868 348.614L8.91479 350.776L407.175 63.1506Z" fill="#989A9D"/>
<path d="M407.184 63.1452L482.905 0L407.249 71.7261L407.184 63.1452Z" fill="#DBB186"/>
<g style="mix-blend-mode:multiply" opacity="0.5">
<path d="M407.184 63.1452L482.905 0L407.249 71.7261L407.184 63.1452Z" fill="#DBB186"/>
</g>
<path d="M399.26 60.5906L407.186 63.1452L482.908 0L398.867 51.6821L399.26 60.5906Z" fill="#DBB186"/>
<path d="M391.191 49.455L398.855 51.6821L482.896 0L391.191 49.455Z" fill="#DBB186"/>
<g style="mix-blend-mode:screen" opacity="0.3">
<path d="M391.191 49.455L398.855 51.6821L482.896 0L391.191 49.455Z" fill="#DBB186"/>
</g>
<path d="M458.535 13.1007C458.685 14.3811 459.162 15.6016 459.919 16.6453C460.676 17.689 461.688 18.5209 462.858 19.0615L482.902 0L458.535 13.1007Z" fill="#4F5052"/>
</g>
<g style="mix-blend-mode:luminosity">
<g style="mix-blend-mode:multiply">
<path opacity="0.91" d="M716.447 50.3203L602.64 77.12L126.193 258.477L122.448 259.872L97.9246 269.27C96.1625 269.931 95.7219 273.235 96.3093 277.494H96.0156C96.1973 278.656 96.4424 279.808 96.7499 280.944V281.752C97.0767 283.052 97.4938 284.328 97.9981 285.57C98.4162 286.75 98.9067 287.902 99.4665 289.021V289.462C99.896 290.351 100.387 291.21 100.935 292.031C103.505 296.07 106.222 298.493 108.277 297.759L613.653 105.902L688.839 65.2988L716.447 50.3203Z" fill="#929292"/>
<path d="M716.447 49L602.64 75.7997L126.193 257.156L122.448 258.552L97.9246 267.876C96.0156 268.537 96.0156 271.768 96.0156 276.1C96.1973 277.263 96.4424 278.415 96.7499 279.551V280.358C97.2294 281.595 97.7937 282.797 98.4386 283.956C98.8703 285.13 99.3604 286.282 99.9071 287.407V287.848C100.353 288.728 100.843 289.586 101.376 290.417C103.945 294.456 106.662 296.879 108.718 296.145L613.653 104.582L688.839 63.6848L716.447 49Z" fill="#878787"/>
</g>
<path d="M616.082 95.2617L101.748 291.303C101.234 290.422 100.647 289.468 100.133 288.44C102.996 294.167 106.594 297.911 108.87 297.03L613.659 104.587L616.082 95.2617Z" fill="#CC7041"/>
<g style="mix-blend-mode:multiply" opacity="0.5">
<path d="M616.082 95.2617L101.748 291.303C101.234 290.422 100.647 289.468 100.133 288.44C102.996 294.167 106.594 297.911 108.87 297.03L613.659 104.587L616.082 95.2617Z" fill="#CC7041"/>
</g>
<path d="M610.419 80.4284L603.076 75.8027L97.9205 267.879C95.7178 268.76 95.4241 273.606 96.966 279.554C96.6586 278.418 96.4135 277.266 96.2318 276.103L610.419 80.4284Z" fill="#CC7041"/>
<g style="mix-blend-mode:screen" opacity="0.3">
<path d="M610.419 80.4284L603.076 75.8027L97.9205 267.879C95.7178 268.76 95.4241 273.606 96.966 279.554C96.6586 278.418 96.4135 277.266 96.2318 276.103L610.419 80.4284Z" fill="#CC7041"/>
</g>
<path d="M616.076 95.2629L610.423 80.5781L96.0156 276.106C96.1973 277.269 96.4424 278.421 96.7499 279.557V280.364C97.2294 281.601 97.7937 282.803 98.4386 283.962C98.8703 285.136 99.3604 286.288 99.9071 287.413V287.854C100.421 288.881 101.008 289.836 101.522 290.717L616.076 95.2629Z" fill="#CC7041"/>
<path d="M616.075 95.257L716.446 49L613.652 104.582L616.075 95.257Z" fill="#DBB186"/>
<g style="mix-blend-mode:multiply" opacity="0.5">
<path d="M616.075 95.257L716.446 49L613.652 104.582L616.075 95.257Z" fill="#DBB186"/>
</g>
<path d="M608.219 90.1908L616.075 95.257L716.445 49L610.421 80.4254L608.219 90.1908Z" fill="#DBB186"/>
<path d="M602.711 75.7997L610.42 80.4254L716.444 49L602.711 75.7997Z" fill="#DBB186"/>
<g style="mix-blend-mode:screen" opacity="0.3">
<path d="M602.711 75.7997L610.42 80.4254L716.444 49L602.711 75.7997Z" fill="#DBB186"/>
</g>
<path d="M685.893 56.3424C685.702 57.7768 685.853 59.236 686.333 60.601C686.854 61.9473 687.714 63.1361 688.83 64.0519L716.437 49L685.893 56.3424Z" fill="#4F5052"/>
</g>
</svg>
