<svg width="80" height="80" viewBox="0 0 80 80" fill="none" xmlns="http://www.w3.org/2000/svg">
<path fill-rule="evenodd" clip-rule="evenodd" d="M45.9336 21.1207C46.1527 20.9812 46.3613 20.8258 46.5577 20.6557C50.2283 16.9966 53.8944 13.3326 57.556 9.66358C57.6685 9.55115 57.7513 9.40804 57.8422 9.25097L57.8422 9.25094L57.8423 9.25086C57.889 9.17017 57.9378 9.08579 57.9939 9C58.1169 9.11709 58.2187 9.21297 58.3066 9.29582L58.3074 9.29659L58.3075 9.29668C58.4581 9.43855 58.5681 9.54219 58.6747 9.64877L70.5476 21.5068C70.6479 21.6071 70.7531 21.7016 70.858 21.7957L70.858 21.7957L70.8583 21.7959C70.9196 21.851 70.9809 21.906 71.0409 21.9619V22.0853C70.9089 22.1785 70.7824 22.2794 70.6623 22.3875C66.8658 26.1781 63.0706 29.9705 59.2766 33.7644C59.1661 33.8825 59.0615 34.006 58.9634 34.1345C58.7636 33.9377 58.5619 33.742 58.36 33.5462L58.3596 33.5458C58.0629 33.258 57.7659 32.9698 57.4746 32.6778C53.6264 28.8287 49.7794 24.9764 45.9336 21.1207ZM59.6324 26.0901L59.6324 26.0901C59.8174 25.9918 59.9974 25.8961 60.1437 25.7633C60.3928 25.5371 60.6284 25.2965 60.8641 25.0559L60.8643 25.0557C61.0861 24.8292 61.308 24.6027 61.5412 24.388C62.9928 23.0476 62.7552 22.8166 61.6769 21.768C61.5824 21.6761 61.4815 21.578 61.3747 21.4723C61.3293 21.4312 61.2801 21.3944 61.2279 21.3625C60.7974 21.0677 60.4003 21.0911 60.0253 21.4698C59.7998 21.6953 59.5742 21.9201 59.349 22.1445C58.8352 22.6565 58.3231 23.1668 57.8163 23.6813C57.4154 24.0859 57.4093 24.504 57.8101 24.9147L57.8977 25.0047C58.1963 25.3116 58.4948 25.6183 58.8116 25.9014C58.9104 25.9942 59.032 26.0553 59.175 26.1272L59.175 26.1272C59.2373 26.1585 59.3037 26.1918 59.3741 26.2308H59.3778C59.4619 26.1808 59.5476 26.1352 59.6324 26.0901ZM58.8844 19.4334C58.8695 19.3677 58.861 19.3061 58.8534 19.2505C58.839 19.1455 58.8276 19.062 58.7808 19.0128C58.6962 18.9242 58.6121 18.8345 58.528 18.7447L58.528 18.7447C58.1533 18.345 57.777 17.9436 57.3439 17.6203C57.1774 17.497 56.6729 17.608 56.4805 17.7831C55.6917 18.4935 54.9512 19.2582 54.2118 20.0218L54.1617 20.0736C53.7917 20.4559 53.8065 20.8839 54.1617 21.2737C54.4676 21.6055 54.7858 21.9262 55.12 22.2296C55.5147 22.5873 55.9415 22.5811 56.3202 22.2123C57.0997 21.455 57.8673 20.6862 58.6229 19.9058C58.7193 19.8094 58.777 19.6763 58.8274 19.56L58.8274 19.5599C58.8473 19.514 58.8661 19.4708 58.8857 19.4334H58.8844ZM36.9724 61.3448C36.937 61.4175 36.8938 61.4861 36.8436 61.5495C36.0921 62.2935 35.3499 63.0483 34.6078 63.803L34.6076 63.8031L34.6075 63.8032C32.8759 65.5643 31.1444 67.3251 29.2951 68.9499C26.367 71.529 22.8246 72.4183 18.9418 71.8225C13.5148 70.9888 9.12264 66.7051 8.21115 61.2769C7.4711 56.8674 8.67614 52.9896 11.83 49.8173C20.0683 41.5295 28.3322 33.2657 36.6215 25.0257C36.6812 24.9742 36.7439 24.9264 36.8095 24.8827L43.269 18.5156L45.927 21.1231C49.7777 24.9779 53.626 28.8315 57.4717 32.6838C57.9568 33.1688 58.4418 33.6384 58.935 34.1158L58.9605 34.1405L61.6518 36.685C61.573 36.7746 61.5118 36.846 61.4604 36.9059C61.3888 36.9894 61.3363 37.0506 61.2817 37.1081C53.3057 45.0841 45.3255 53.0565 37.3412 61.0252C37.2625 61.1038 37.1757 61.1756 37.0891 61.2471C37.0499 61.2795 37.0108 61.3118 36.9724 61.3448ZM36.8103 47.913C36.8103 47.9126 36.8103 47.9121 36.8103 47.9116C36.7455 47.9707 36.6796 48.0284 36.6138 48.0862L36.6136 48.0864C36.4952 48.1903 36.3768 48.2941 36.2651 48.405C31.9745 52.6956 27.6818 56.9838 23.387 61.2695C22.6285 62.0256 21.7688 62.572 20.639 62.5621C19.2576 62.5498 17.8996 61.7283 17.4543 60.4653C16.9819 59.1209 17.1262 57.8295 18.1783 56.7651C19.5051 55.4266 20.8388 54.099 22.1776 52.7662L22.1777 52.7661L22.1787 52.7652C22.5298 52.4157 22.8812 52.0659 23.2329 51.7155C27.5827 47.3681 31.9334 43.0216 36.2848 38.6758C36.4063 38.5553 36.5337 38.4436 36.6612 38.3317L36.6612 38.3317C36.7176 38.2822 36.774 38.2328 36.83 38.1825L36.9533 37.9518C36.9532 37.9514 36.9531 37.951 36.953 37.9506C37.4652 37.4568 37.9798 36.9643 38.4883 36.479C39.6921 35.3098 41.6224 35.142 42.8792 36.0991C44.3606 37.2277 44.7516 39.0655 43.8425 40.6356C43.7963 40.7252 43.7382 40.8082 43.6699 40.8823C41.4324 43.1131 39.1938 45.3386 36.9539 47.5588C36.9319 47.6136 36.9099 47.6676 36.8877 47.7219C36.8621 47.7846 36.8364 47.8478 36.8103 47.913Z" fill="white"/>
</svg>
