<svg width="42" height="42" viewBox="0 0 42 42" fill="none" xmlns="http://www.w3.org/2000/svg">
<path d="M41.1597 18.1238C40.8995 18.4313 40.6551 18.7546 40.3712 19.0384C38.5262 20.8992 36.6654 22.7522 34.8125 24.6051C33.9609 25.4645 33.4248 25.4566 32.5574 24.5893C32.3524 24.3843 32.1395 24.1872 31.9345 23.9901C30.2551 22.3027 28.5677 20.6154 26.8883 18.9202C26.2575 18.2894 25.6346 17.6507 25.0117 17.0199C25.1142 16.9017 25.2167 16.7834 25.3271 16.673C27.7477 14.2524 30.1605 11.8396 32.5811 9.41902C32.6915 9.30864 32.7861 9.18248 32.8886 9.06421C33.0069 9.16671 33.133 9.26133 33.2434 9.37172C35.6246 11.745 38.0058 14.1262 40.3712 16.5074C40.6551 16.7913 40.8916 17.1146 41.1518 17.4221C41.1597 17.6507 41.1597 17.8873 41.1597 18.1238Z" fill="#00C1F3"/>
<path d="M32.8991 9.05646C32.7966 9.17473 32.702 9.30089 32.5916 9.41128C30.171 11.8319 27.7583 14.2446 25.3377 16.6653C25.2273 16.7757 25.1248 16.8939 25.0223 17.0122C24.9986 17.0122 24.975 17.0122 24.9592 17.0043C24.9198 16.9491 24.8882 16.8939 24.8409 16.8466C22.6726 14.6704 20.4964 12.5021 18.3281 10.3338C18.2492 10.2549 18.1389 10.2076 18.0442 10.1367C17.8077 9.87648 17.5869 9.6084 17.3425 9.35608C16.6723 8.67011 16.6723 8.02356 17.3425 7.34547C19.29 5.39793 21.2297 3.45039 23.1851 1.51074C23.4295 1.26631 23.737 1.08496 24.013 0.87207C24.1944 0.87207 24.3836 0.87207 24.5649 0.87207C24.8409 1.08496 25.1484 1.26631 25.3928 1.50285C27.8056 3.89982 30.2104 6.31256 32.6153 8.7253C32.7099 8.84357 32.8045 8.95396 32.8991 9.05646Z" fill="#AFE2FA"/>
<path d="M24.9521 17.0042C24.9757 17.012 24.9994 17.012 25.0151 17.012C25.638 17.6428 26.2609 18.2815 26.8917 18.9123C28.5712 20.5996 30.2585 22.2948 31.938 23.9822C31.3072 25.2043 30.6764 26.4186 30.0456 27.6407C28.5081 30.6448 26.9627 33.6489 25.4567 36.6688C25.1413 37.2995 24.6997 37.6071 24.0217 37.7174C19.5904 38.4113 15.1671 39.1288 10.7358 39.8306C8.10231 40.2484 5.4688 40.6742 2.83528 41.0921C2.71701 41.1079 2.59874 41.1 2.48047 41.1079C2.74067 40.895 3.02452 40.7058 3.26895 40.4692C8.38616 35.3599 13.4955 30.2506 18.5969 25.1412C18.7941 24.9441 18.9754 24.8337 19.2671 24.818C20.0714 24.7943 20.6312 24.3528 20.9151 23.6274C21.2068 22.8783 21.0806 22.1608 20.4893 21.5773C20.4814 21.5537 20.4814 21.53 20.4735 21.5064C21.5774 20.4104 22.6812 19.3223 23.7851 18.2184C24.1794 17.8163 24.5657 17.4063 24.9521 17.0042Z" fill="#FBA92D"/>
<path d="M24.9544 17.0052C24.5681 17.4073 24.1817 17.8173 23.7875 18.2116C22.6836 19.3075 21.5798 20.4035 20.4759 21.4995C20.3892 21.4443 20.3103 21.3812 20.2236 21.326C19.6007 20.9318 18.9384 20.8766 18.2839 21.2078C17.6531 21.5232 17.2826 22.0593 17.251 22.7689C17.2431 23.0607 17.1327 23.2499 16.9435 23.447C11.8342 28.5327 6.73273 33.6342 1.63917 38.7435C1.38686 38.9958 1.17397 39.3033 0.945312 39.5872C1.11878 38.4675 1.28436 37.34 1.46571 36.2204C1.78898 34.1388 2.12014 32.0651 2.4513 29.9914C2.74304 28.1464 3.04266 26.3013 3.34228 24.4563C3.67344 22.3826 4.02826 20.3089 4.32788 18.2273C4.43827 17.431 4.76154 16.9185 5.51059 16.54C9.61067 14.4899 13.6871 12.3926 17.7714 10.311C17.866 10.2637 17.9528 10.2085 18.0474 10.1533C18.142 10.2164 18.2524 10.2637 18.3312 10.3504C20.5074 12.5188 22.6757 14.6949 24.8441 16.8633C24.8835 16.8948 24.9229 16.9579 24.9544 17.0052Z" fill="#FFE080"/>
<path d="M20.4849 21.5698C21.0841 22.1612 21.2103 22.8708 20.9106 23.6199C20.6268 24.3453 20.067 24.7868 19.2627 24.8105C18.971 24.8183 18.7817 24.9366 18.5925 25.1337C13.4911 30.2431 8.38174 35.3524 3.27241 40.4617C3.03586 40.6983 2.75201 40.8875 2.48393 41.1004C2.00296 41.2896 1.60872 41.1871 1.25391 40.7929C1.34852 40.6825 1.43526 40.5721 1.53776 40.4696C7.73519 34.2722 13.9326 28.0748 20.13 21.8773C20.2404 21.7669 20.3666 21.6723 20.4849 21.5698Z" fill="#DB226E"/>
<path d="M20.4877 21.5706C20.3694 21.6731 20.2433 21.7678 20.1329 21.8781C13.9354 28.0756 7.73801 34.273 1.54058 40.4704C1.43808 40.5729 1.35135 40.6833 1.25673 40.7937C0.901916 40.4547 0.744221 40.0683 0.94134 39.5873C1.17 39.3035 1.375 39.0039 1.6352 38.7437C6.72876 33.6343 11.8302 28.5329 16.9395 23.4393C17.1367 23.2422 17.2392 23.0609 17.247 22.7612C17.2707 22.0516 17.6413 21.5154 18.2799 21.2001C18.9423 20.8689 19.5967 20.932 20.2196 21.3183C20.3063 21.3735 20.3931 21.4366 20.4719 21.4918C20.4798 21.5233 20.4877 21.547 20.4877 21.5706Z" fill="#EE2B79"/>
</svg>
