<svg width="31" height="31" viewBox="0 0 31 31" fill="none" xmlns="http://www.w3.org/2000/svg">
<path d="M15.5 28.9023C12.019 28.9023 8.68064 27.5195 6.21922 25.0581C3.75781 22.5967 2.375 19.2583 2.375 15.7773C2.375 12.2964 3.75781 8.95798 6.21922 6.49657C8.68064 4.03515 12.019 2.65234 15.5 2.65234C18.981 2.65234 22.3194 4.03515 24.7808 6.49657C27.2422 8.95798 28.625 12.2964 28.625 15.7773C28.625 19.2583 27.2422 22.5967 24.7808 25.0581C22.3194 27.5195 18.981 28.9023 15.5 28.9023ZM15.5 30.7773C19.4782 30.7773 23.2936 29.197 26.1066 26.3839C28.9196 23.5709 30.5 19.7556 30.5 15.7773C30.5 11.7991 28.9196 7.98379 26.1066 5.17074C23.2936 2.3577 19.4782 0.777344 15.5 0.777344C11.5218 0.777344 7.70644 2.3577 4.8934 5.17074C2.08035 7.98379 0.5 11.7991 0.5 15.7773C0.5 19.7556 2.08035 23.5709 4.8934 26.3839C7.70644 29.197 11.5218 30.7773 15.5 30.7773Z" fill="black"/>
<path d="M12.2581 10.2564C12.4115 10.1774 12.5836 10.1423 12.7556 10.1548C12.9277 10.1674 13.0929 10.2272 13.2331 10.3276L19.7956 15.0151C19.9172 15.1018 20.0162 15.2163 20.0846 15.3491C20.1529 15.4818 20.1886 15.6289 20.1886 15.7782C20.1886 15.9275 20.1529 16.0747 20.0846 16.2074C20.0162 16.3401 19.9172 16.4546 19.7956 16.5414L13.2331 21.2289C13.0929 21.3292 12.9278 21.3889 12.7559 21.4015C12.5839 21.4141 12.4119 21.379 12.2586 21.3001C12.1053 21.2212 11.9767 21.1016 11.887 20.9544C11.7973 20.8072 11.7499 20.6381 11.75 20.4657V11.0907C11.7498 10.9184 11.7972 10.7493 11.8868 10.6021C11.9764 10.4549 12.1049 10.3353 12.2581 10.2564Z" fill="black"/>
</svg>
