<svg width="27" height="27" viewBox="0 0 27 27" fill="none" xmlns="http://www.w3.org/2000/svg">
<path d="M14.6009 17.2305C13.4991 17.9055 12.3973 18.5755 11.3004 19.2505C11.0472 19.4044 10.7892 19.4739 10.5063 19.3647C10.1787 19.2406 10 18.9577 10 18.5706C10 17.1759 10 15.7812 10 14.3866C10 12.4658 10.005 10.54 10.005 8.61925C10.2581 7.98891 10.7495 7.83009 11.3302 8.18745C11.3996 8.23211 11.4691 8.27182 11.5386 8.31153C12.8439 9.12054 14.1493 9.92459 15.4596 10.7336C16.6607 11.4731 17.8618 12.2226 19.0728 12.9522C19.4103 13.1557 19.5989 13.4138 19.5841 13.8108C19.5344 14.1086 19.3508 14.3022 19.0977 14.461C17.6533 15.3445 16.209 16.2378 14.7697 17.1263C14.7101 17.1561 14.6555 17.1958 14.6009 17.2305Z" fill="white"/>
<circle cx="13.5" cy="13.5" r="13" stroke="white"/>
</svg>
