<svg width="43" height="43" viewBox="0 0 43 43" fill="none" xmlns="http://www.w3.org/2000/svg">
<path d="M22.6009 25.2305C21.4991 25.9055 20.3973 26.5755 19.3004 27.2505C19.0472 27.4044 18.7892 27.4739 18.5063 27.3647C18.1787 27.2406 18 26.9577 18 26.5706C18 25.1759 18 23.7812 18 22.3866C18 20.4658 18.005 18.54 18.005 16.6192C18.2581 15.9889 18.7495 15.8301 19.3302 16.1874C19.3996 16.2321 19.4691 16.2718 19.5386 16.3115C20.8439 17.1205 22.1493 17.9246 23.4596 18.7336C24.6607 19.4731 25.8618 20.2226 27.0728 20.9522C27.4103 21.1557 27.5989 21.4138 27.5841 21.8108C27.5344 22.1086 27.3508 22.3022 27.0977 22.461C25.6533 23.3445 24.209 24.2378 22.7697 25.1263C22.7101 25.1561 22.6555 25.1958 22.6009 25.2305Z" fill="#7E7E7E"/>
<circle cx="21.5" cy="21.5" r="13" stroke="#7E7E7E"/>
</svg>
