<svg width="343" height="257" viewBox="0 0 343 257" fill="none" xmlns="http://www.w3.org/2000/svg">
<g style="mix-blend-mode:multiply">
<g opacity="0.91">
<path opacity="0.8" d="M146.352 242.146H149.161V241.149H146.352C145.73 232.815 145.882 224.442 146.805 216.136L149.614 216.589V215.593L146.805 215.139C147.788 206.821 149.609 198.623 152.243 190.671L154.78 191.668V190.761L152.152 189.765C155.026 181.657 158.699 173.855 163.117 166.474L165.383 167.924L165.927 167.108L163.117 165.568C167.273 158.307 172.097 151.45 177.527 145.087L179.43 146.809L180.155 146.174L178.161 144.362C183.636 138.026 189.705 132.229 196.286 127.052L197.736 129.137L198.552 128.502L197.102 126.418C203.676 121.301 210.715 116.81 218.127 113.006L219.214 115.271H220.12L219.033 112.915C226.479 109.135 234.28 106.1 242.323 103.853L242.958 106.299H243.864L243.32 103.853C251.213 101.7 259.279 100.244 267.426 99.5026V102.04H268.423V99.5026C276.761 98.9546 285.13 99.1366 293.436 100.046V102.493H294.342L294.795 99.9557C303.069 101.026 311.228 102.846 319.173 105.393L318.357 107.659H319.264L320.079 105.393C328.006 107.98 335.657 111.35 342.917 115.452L341.738 117.446L342.554 117.99L343.823 115.996C351.101 120.088 357.961 124.884 364.304 130.315L362.673 131.946L363.398 132.671L365.029 130.949C371.344 136.445 377.139 142.512 382.338 149.074L380.435 150.434L380.979 151.159L382.882 149.799C387.997 156.394 392.516 163.43 396.385 170.824L394.21 171.821V172.727L396.294 171.73C400.112 179.16 403.149 186.965 405.357 195.021L403.091 195.565V196.471L405.447 195.927C407.672 203.93 409.159 212.121 409.888 220.396L512.112 211.877C504.173 151.895 473.463 97.2665 426.346 59.3084C379.229 21.3503 319.316 2.97206 259.019 7.98129C198.722 12.9905 142.662 41.0032 102.455 86.2159C62.2471 131.429 40.973 190.376 43.04 250.846L146.352 242.146Z" fill="#929292"/>
</g>
<path d="M553.988 205.889L410.348 217.851H406.813L295.527 226.914C294.877 222.18 292.437 217.876 288.709 214.887C284.982 211.898 280.25 210.452 275.488 210.847C270.727 211.242 266.298 213.447 263.113 217.009C259.929 220.571 258.232 225.219 258.371 229.995L0 251.926L10.3312 376.716L564.319 330.679L553.988 205.889Z" fill="#878787"/>
</g>
<path d="M87.0045 244.321L48.9422 247.402L48.8516 246.405L87.0045 243.324V244.321Z" fill="white"/>
<path d="M87.8154 205.633L49.8438 200.921L49.9344 199.924L87.906 204.636L87.8154 205.633Z" fill="white"/>
<path d="M96.4295 167.844L60.1797 155.61L60.5422 154.613L96.7014 166.938L96.4295 167.844Z" fill="white"/>
<path d="M80.1035 112.477L79.5977 113.336L112.553 132.74L113.059 131.881L80.1035 112.477Z" fill="white"/>
<path d="M107.684 75.018L107.016 75.7578L135.396 101.392L136.064 100.653L107.684 75.018Z" fill="white"/>
<path d="M142.21 44.0897L141.406 44.6797L164.042 75.5052L164.845 74.9152L142.21 44.0897Z" fill="white"/>
<path d="M197.285 55.7326L181.426 21.0234L182.332 20.5703L198.191 55.3701L197.285 55.7326Z" fill="white"/>
<path d="M233.909 43.3291L225.48 6.08242L226.387 5.81055L234.905 43.0572L233.909 43.3291Z" fill="white"/>
<path d="M273.332 38.4232H272.335L271.52 0.270312L272.516 0.179688L273.332 38.4232Z" fill="white"/>
<path d="M317.839 3.80908L311.008 41.4375L311.989 41.6156L318.82 3.98715L317.839 3.80908Z" fill="white"/>
<path d="M48.2864 227.833L48.2852 228.83L71.2131 228.858L71.2144 227.861L48.2864 227.833Z" fill="white"/>
<path d="M71.5156 236.154L48.6055 237.059L48.6448 238.055L71.555 237.151L71.5156 236.154Z" fill="white"/>
<path d="M71.4085 220.397L48.4805 219.491L48.5711 218.494L71.4085 219.491V220.397Z" fill="white"/>
<path d="M71.9546 212.063L49.1172 210.16L49.2078 209.254L72.0452 211.066L71.9546 212.063Z" fill="white"/>
<path d="M72.5905 203.73L49.8438 200.921L49.9344 199.924L72.7718 202.733L72.5905 203.73Z" fill="white"/>
<path d="M73.9483 195.488L51.3828 191.772L51.5641 190.775L74.1296 194.491L73.9483 195.488Z" fill="white"/>
<path d="M75.3968 187.24L52.9219 182.527L53.1031 181.621L75.578 186.243L75.3968 187.24Z" fill="white"/>
<path d="M77.3007 179.086L55.0977 173.467L55.2789 172.561L77.5725 178.089L77.3007 179.086Z" fill="white"/>
<path d="M57.7903 163.587L57.5078 164.543L79.4962 171.04L79.7786 170.084L57.7903 163.587Z" fill="white"/>
<path d="M81.9296 162.951L60.1797 155.61L60.5422 154.613L82.2014 162.044L81.9296 162.951Z" fill="white"/>
<path d="M84.9147 155.148L63.5273 146.811L63.8898 145.904L85.2772 154.242L84.9147 155.148Z" fill="white"/>
<path d="M67.198 137.238L66.8008 138.152L87.8303 147.288L88.2275 146.373L67.198 137.238Z" fill="white"/>
<path d="M71.3211 128.864L70.8867 129.762L91.524 139.752L91.9583 138.854L71.3211 128.864Z" fill="white"/>
<path d="M75.4666 120.547L74.9961 121.426L95.2102 132.246L95.6806 131.367L75.4666 120.547Z" fill="white"/>
<path d="M80.033 112.442L79.5273 113.301L99.2868 124.931L99.7925 124.072L80.033 112.442Z" fill="white"/>
<path d="M85.0909 104.604L84.5508 105.441L103.821 117.865L104.361 117.027L85.0909 104.604Z" fill="white"/>
<path d="M90.0814 96.7687L89.5078 97.584L108.259 110.778L108.833 109.962L90.0814 96.7687Z" fill="white"/>
<path d="M95.7624 89.4098L95.1562 90.2012L113.358 104.143L113.965 103.352L95.7624 89.4098Z" fill="white"/>
<path d="M101.493 82.0364L100.855 82.8027L118.481 97.4669L119.118 96.7005L101.493 82.0364Z" fill="white"/>
<path d="M107.649 75.1429L106.98 75.8828L123.998 91.2484L124.666 90.5085L107.649 75.1429Z" fill="white"/>
<path d="M129.684 85.1093L113.371 69.0687L114.005 68.3438L130.409 84.3843L129.684 85.1093Z" fill="white"/>
<path d="M135.666 79.2105L119.988 62.4449L120.713 61.8105L136.391 78.4855L135.666 79.2105Z" fill="white"/>
<path d="M141.919 73.598L126.875 56.2887L127.691 55.6543L142.644 72.9636L141.919 73.598Z" fill="white"/>
<path d="M134.662 49.5243L133.883 50.1465L148.193 68.0602L148.972 67.438L134.662 49.5243Z" fill="white"/>
<path d="M142.229 44.1404L141.426 44.7305L154.996 63.2112L155.8 62.6211L142.229 44.1404Z" fill="white"/>
<path d="M149.772 38.6873L148.945 39.2441L161.753 58.2613L162.58 57.7044L149.772 38.6873Z" fill="white"/>
<path d="M168.842 53.7487L156.789 34.1738L157.695 33.7207L169.658 53.205L168.842 53.7487Z" fill="white"/>
<path d="M176.077 49.4948L164.84 29.4668L165.746 29.0137L176.893 48.9511L176.077 49.4948Z" fill="white"/>
<path d="M183.422 45.4139L173 25.0234L173.906 24.5703L184.237 44.9608L183.422 45.4139Z" fill="white"/>
<path d="M190.941 41.8671L181.426 21.0234L182.332 20.5703L191.848 41.414L190.941 41.8671Z" fill="white"/>
<path d="M190.81 16.6699L189.887 17.0469L198.557 38.2722L199.48 37.8952L190.81 16.6699Z" fill="white"/>
<path d="M199.656 13.5752L198.719 13.9141L206.512 35.4771L207.449 35.1383L199.656 13.5752Z" fill="white"/>
<path d="M214.333 32.7159L207.445 10.8754L208.442 10.6035L215.33 32.444L214.333 32.7159Z" fill="white"/>
<path d="M217.364 7.95576L216.402 8.2168L222.406 30.3448L223.368 30.0838L217.364 7.95576Z" fill="white"/>
<path d="M230.555 28.3761L225.48 6.08242L226.387 5.81055L231.462 28.1948L230.555 28.3761Z" fill="white"/>
<path d="M238.712 26.4675L234.543 3.90195L235.449 3.7207L239.618 26.2862L238.712 26.4675Z" fill="white"/>
<path d="M244.647 2.48086L243.66 2.62305L246.93 25.3166L247.917 25.1745L244.647 2.48086Z" fill="white"/>
<path d="M255.29 24.2073L252.934 1.36992L253.93 1.2793L256.287 24.0261L255.29 24.2073Z" fill="white"/>
<path d="M263.206 0.59613L262.211 0.658203L263.639 23.5417L264.634 23.4796L263.206 0.59613Z" fill="white"/>
<path d="M272.97 23.1077L272.063 23.1983L271.52 0.270312L272.516 0.179688L272.97 23.1077Z" fill="white"/>
<path d="M280.787 -0.000673948L280.387 22.9238L281.383 22.9412L281.784 0.0167238L280.787 -0.000673948Z" fill="white"/>
<path d="M289.723 23.4807L288.727 23.3901L290.086 0.552734H291.083L289.723 23.4807Z" fill="white"/>
<path d="M299.367 1.16933L297.113 23.9863L298.105 24.0843L300.359 1.2673L299.367 1.16933Z" fill="white"/>
<path d="M306.395 25.105L305.398 24.9237L308.57 2.26758L309.567 2.3582L306.395 25.105Z" fill="white"/>
<path d="M317.83 3.81773L313.734 26.377L314.715 26.555L318.811 3.9958L317.83 3.81773Z" fill="white"/>
<path d="M322.891 28.003L321.895 27.8218L326.97 5.4375L327.966 5.61875L322.891 28.003Z" fill="white"/>
<path d="M330.962 30.2827L329.965 30.0108L335.946 7.89844L336.943 8.17031L330.962 30.2827Z" fill="white"/>
<path d="M339.031 32.5448L338.125 32.1823L344.922 10.3418L345.919 10.6137L339.031 32.5448Z" fill="white"/>
<path d="M267.523 98.9655H266.526L265.801 78.4844H266.707L267.523 98.9655Z" fill="white"/>
<path d="M292.997 99.6015L292 99.4202L295.262 79.2109L296.259 79.3016L292.997 99.6015Z" fill="white"/>
<path d="M324.086 85.5868L316.957 104.787L317.892 105.134L325.021 85.9338L324.086 85.5868Z" fill="white"/>
<path d="M341.206 115.455L340.391 114.912L351.084 97.5117L351.9 97.9648L341.206 115.455Z" fill="white"/>
<path d="M237.673 83.3508L236.703 83.582L241.453 103.505L242.423 103.274L237.673 83.3508Z" fill="white"/>
<path d="M217.773 112.914L209.164 94.3359L210.07 93.8828L218.68 112.551L217.773 112.914Z" fill="white"/>
<path d="M196.291 126.694L184.328 110.11L185.144 109.566L197.106 126.151L196.291 126.694Z" fill="white"/>
<path d="M163.662 129.758L162.984 130.488L177.997 144.42L178.676 143.689L163.662 129.758Z" fill="white"/>
<path d="M146.62 153.87L146.098 154.719L163.542 165.451L164.064 164.602L146.62 153.87Z" fill="white"/>
<path d="M134.514 180.778L134.168 181.713L153.373 188.829L153.72 187.894L134.514 180.778Z" fill="white"/>
<path d="M127.884 209.525L127.727 210.51L147.952 213.738L148.109 212.754L127.884 209.525Z" fill="white"/>
<path d="M147.532 239.259L127.051 239.984V239.077L147.532 238.262V239.259Z" fill="white"/>
<path d="M16.8492 289.723L15.8523 289.813L13.043 255.557L14.0398 255.467L16.8492 289.723Z" fill="white"/>
<path d="M51.2086 286.929L50.2117 287.019L47.4023 252.673L48.3992 252.582L51.2086 286.929Z" fill="white"/>
<path d="M85.5445 284.114H84.5476L81.7383 249.858L82.7351 249.768L85.5445 284.114Z" fill="white"/>
<path d="M119.905 281.212L118.908 281.303L116.008 246.956L117.005 246.865L119.905 281.212Z" fill="white"/>
<path d="M154.241 278.397H153.244L150.344 244.141L151.341 244.051L154.241 278.397Z" fill="white"/>
<path d="M188.596 275.495L187.599 275.586L184.699 241.239L185.696 241.148L188.596 275.495Z" fill="white"/>
<path d="M222.845 272.698H221.939L219.039 238.442L220.036 238.352L222.845 272.698Z" fill="white"/>
<path d="M257.201 269.796L256.204 269.887L253.395 235.54L254.391 235.449L257.201 269.796Z" fill="white"/>
<path d="M291.541 266.981L290.544 267.072L287.734 232.725L288.731 232.635L291.541 266.981Z" fill="white"/>
<path d="M325.877 264.077L324.88 264.168L322.07 229.821L323.067 229.73L325.877 264.077Z" fill="white"/>
<path d="M29.4601 274.871L28.4633 274.961L26.832 254.389L27.7383 254.299L29.4601 274.871Z" fill="white"/>
<path d="M22.6484 275.51L21.6516 275.601L19.9297 254.938L20.9266 254.848L22.6484 275.51Z" fill="white"/>
<path d="M36.3476 274.324L35.3508 274.414L33.6289 253.843L34.6258 253.752L36.3476 274.324Z" fill="white"/>
<path d="M43.2344 273.776L42.2375 273.866L40.5156 253.204L41.5125 253.113L43.2344 273.776Z" fill="white"/>
<path d="M50.1211 273.154L49.1242 273.244L47.4023 252.673L48.3992 252.582L50.1211 273.154Z" fill="white"/>
<path d="M56.9133 272.605L55.9164 272.696L54.2852 252.124L55.1914 252.033L56.9133 272.605Z" fill="white"/>
<path d="M63.8008 272.058L62.8039 272.149L61.082 251.486H62.0789L63.8008 272.058Z" fill="white"/>
<path d="M70.6875 271.51L69.6906 271.601L67.9688 250.938L68.9656 250.848L70.6875 271.51Z" fill="white"/>
<path d="M77.5742 270.888L76.5773 270.979L74.8555 250.407L75.8523 250.316L77.5742 270.888Z" fill="white"/>
<path d="M84.3664 270.339L83.4601 270.43L81.7383 249.858L82.7351 249.768L84.3664 270.339Z" fill="white"/>
<path d="M91.2539 269.793L90.257 269.884L88.5352 249.221L89.532 249.131L91.2539 269.793Z" fill="white"/>
<path d="M98.1406 269.154L97.1437 269.244L95.4219 248.673L96.4188 248.582L98.1406 269.154Z" fill="white"/>
<path d="M105.023 268.623L104.027 268.713L102.305 248.141L103.302 248.051L105.023 268.623Z" fill="white"/>
<path d="M111.93 268.074L110.933 268.164L109.211 247.502H110.208L111.93 268.074Z" fill="white"/>
<path d="M118.727 267.528H117.73L116.008 246.956L117.005 246.865L118.727 267.528Z" fill="white"/>
<path d="M125.609 266.888L124.612 266.979L122.891 246.407L123.887 246.316L125.609 266.888Z" fill="white"/>
<path d="M132.496 266.357L131.499 266.448L129.777 245.876L130.774 245.785L132.496 266.357Z" fill="white"/>
<path d="M139.383 265.811L138.386 265.901L136.664 245.239L137.661 245.148L139.383 265.811Z" fill="white"/>
<path d="M146.175 265.171L145.178 265.262L143.547 244.69L144.544 244.6L146.175 265.171Z" fill="white"/>
<path d="M153.062 264.623L152.066 264.713L150.344 244.141L151.341 244.051L153.062 264.623Z" fill="white"/>
<path d="M159.949 264.076L158.952 264.167L157.23 243.505L158.227 243.414L159.949 264.076Z" fill="white"/>
<path d="M166.836 263.455L165.839 263.545L164.117 242.973L165.114 242.883L166.836 263.455Z" fill="white"/>
<path d="M173.628 262.906L172.722 262.996L171 242.425L171.997 242.334L173.628 262.906Z" fill="white"/>
<path d="M180.53 262.357L179.534 262.448L177.902 241.785H178.809L180.53 262.357Z" fill="white"/>
<path d="M187.418 261.811L186.421 261.901L184.699 241.239L185.696 241.148L187.418 261.811Z" fill="white"/>
<path d="M194.305 261.189L193.308 261.28L191.586 240.708L192.583 240.617L194.305 261.189Z" fill="white"/>
<path d="M201.187 260.64L200.191 260.731L198.469 240.159L199.466 240.068L201.187 260.64Z" fill="white"/>
<path d="M207.987 260.091L206.991 260.182L205.359 239.52H206.266L207.987 260.091Z" fill="white"/>
<path d="M214.871 259.455L213.874 259.545L212.152 238.973L213.149 238.883L214.871 259.455Z" fill="white"/>
<path d="M221.758 258.923L220.761 259.014L219.039 238.442L220.036 238.352L221.758 258.923Z" fill="white"/>
<path d="M228.641 258.377L227.644 258.468L225.922 237.896L226.919 237.715L228.641 258.377Z" fill="white"/>
<path d="M235.437 257.828H234.53L232.809 237.257L233.805 237.166L235.437 257.828Z" fill="white"/>
<path d="M242.324 257.187L241.327 257.278L239.605 236.706L240.602 236.615L242.324 257.187Z" fill="white"/>
<path d="M249.211 256.658L248.214 256.748L246.492 236.177L247.489 236.086L249.211 256.658Z" fill="white"/>
<path d="M256.113 256.112L255.116 256.202L253.395 235.54L254.391 235.449L256.113 256.112Z" fill="white"/>
<path d="M263 255.472L262.003 255.563L260.281 234.991L261.278 234.9L263 255.472Z" fill="white"/>
<path d="M269.792 254.921L268.795 255.012L267.164 234.44L268.07 234.35L269.792 254.921Z" fill="white"/>
<path d="M276.68 254.393L275.683 254.483L273.961 233.821L274.958 233.73L276.68 254.393Z" fill="white"/>
<path d="M283.566 253.846H282.57L280.848 233.274L281.845 233.184L283.566 253.846Z" fill="white"/>
<path d="M290.453 253.207L289.456 253.297L287.734 232.725L288.731 232.635L290.453 253.207Z" fill="white"/>
<path d="M297.245 252.656L296.339 252.746L294.617 232.084H295.614L297.245 252.656Z" fill="white"/>
<path d="M304.133 252.127H303.136L301.414 231.555L302.411 231.465L304.133 252.127Z" fill="white"/>
<path d="M311.02 251.49L310.023 251.58L308.301 231.009L309.298 230.918L311.02 251.49Z" fill="white"/>
<path d="M317.906 250.941L316.909 251.032L315.188 230.46L316.184 230.369L317.906 250.941Z" fill="white"/>
<path d="M324.698 250.393L323.792 250.483L322.07 229.821L323.067 229.73L324.698 250.393Z" fill="white"/>
<path d="M331.601 249.862H330.604L328.973 229.29L329.879 229.199L331.601 249.862Z" fill="white"/>
<path d="M338.488 249.224L337.491 249.315L335.77 228.743L336.766 228.652L338.488 249.224Z" fill="white"/>
<path d="M345.375 248.675L344.378 248.766L342.656 228.194L343.653 228.104L345.375 248.675Z" fill="white"/>
</svg>
