<svg width="199" height="199" viewBox="0 0 199 199" fill="none" xmlns="http://www.w3.org/2000/svg">
<path d="M163.715 72.6414C163.983 73.7961 164.162 74.9695 164.251 76.1515C164.278 103.632 164.278 131.108 164.251 158.58C164.251 171.084 156.529 178.82 144.078 178.827H52.0196C39.5486 178.807 31.7932 171.051 31.7932 158.58C31.7932 119.081 31.7932 79.58 31.7932 40.0765C31.7932 27.6188 39.5486 19.8832 52.0262 19.87C70.6763 19.87 89.3242 19.87 107.97 19.87C109.142 19.9499 110.307 20.1182 111.454 20.3733C111.394 31.48 111.268 42.5866 111.308 53.6932C111.308 62.7865 119.673 72.2903 128.739 72.6347C140.409 73.0983 152.059 72.6811 163.715 72.6414Z" fill="url(#paint0_linear_212_27)"/>
<path d="M97.3094 62.4863V87.5077H122.367C123.283 93.635 119.495 104.317 109.696 109.753C100.499 114.853 88.591 114.261 79.6744 105.734C71.964 98.3511 69.8687 86.9261 74.2774 77.1667C78.749 67.2949 88.7166 62.007 97.3094 62.4863Z" fill="#FEFCFC"/>
<path d="M103.933 58.0009C115.246 58.0009 126.671 69.3433 126.988 80.8708H103.933V58.0009Z" fill="#FDFAFA"/>
<g filter="url(#filter0_d_212_27)">
<path d="M163.704 72.9696C152.048 73.0094 140.378 73.4266 128.742 72.9696C119.675 72.6252 111.337 63.1213 111.31 54.0281C111.27 42.9215 111.396 31.8149 111.456 20.7082C112.183 21.1766 112.876 21.6967 113.529 22.2646C129.751 38.4599 145.955 54.6661 162.141 70.8834C162.714 71.5386 163.236 72.236 163.704 72.9696V72.9696Z" fill="#F76E54"/>
</g>
<path d="M66.8714 160V135.273H77.0859C78.9373 135.273 80.535 135.635 81.8793 136.359C83.2315 137.076 84.2739 138.078 85.0064 139.366C85.7389 140.646 86.1051 142.135 86.1051 143.833C86.1051 145.54 85.7308 147.033 84.9822 148.312C84.2417 149.584 83.1832 150.57 81.8068 151.271C80.4304 151.971 78.7964 152.321 76.9048 152.321H70.6023V147.612H75.794C76.6955 147.612 77.4482 147.455 78.0518 147.141C78.6636 146.827 79.1264 146.389 79.4403 145.825C79.7543 145.254 79.9112 144.59 79.9112 143.833C79.9112 143.068 79.7543 142.408 79.4403 141.853C79.1264 141.29 78.6636 140.855 78.0518 140.549C77.4401 140.243 76.6875 140.09 75.794 140.09H72.848V160H66.8714ZM89.0511 160V135.273H99.2656C101.117 135.273 102.715 135.635 104.059 136.359C105.411 137.076 106.454 138.078 107.186 139.366C107.919 140.646 108.285 142.135 108.285 143.833C108.285 145.54 107.911 147.033 107.162 148.312C106.421 149.584 105.363 150.57 103.987 151.271C102.61 151.971 100.976 152.321 99.0845 152.321H92.782V147.612H97.9737C98.8752 147.612 99.6278 147.455 100.232 147.141C100.843 146.827 101.306 146.389 101.62 145.825C101.934 145.254 102.091 144.59 102.091 143.833C102.091 143.068 101.934 142.408 101.62 141.853C101.306 141.29 100.843 140.855 100.232 140.549C99.6198 140.243 98.8672 140.09 97.9737 140.09H95.0277V160H89.0511ZM110.422 140.126V135.273H131.322V140.126H123.824V160H117.932V140.126H110.422Z" fill="white"/>
<defs>
<filter id="filter0_d_212_27" x="103.355" y="20.7082" width="68.2971" height="68.3693" filterUnits="userSpaceOnUse" color-interpolation-filters="sRGB">
<feFlood flood-opacity="0" result="BackgroundImageFix"/>
<feColorMatrix in="SourceAlpha" type="matrix" values="0 0 0 0 0 0 0 0 0 0 0 0 0 0 0 0 0 0 127 0" result="hardAlpha"/>
<feOffset dy="7.94783"/>
<feGaussianBlur stdDeviation="3.97391"/>
<feComposite in2="hardAlpha" operator="out"/>
<feColorMatrix type="matrix" values="0 0 0 0 0 0 0 0 0 0 0 0 0 0 0 0 0 0 0.25 0"/>
<feBlend mode="normal" in2="BackgroundImageFix" result="effect1_dropShadow_212_27"/>
<feBlend mode="normal" in="SourceGraphic" in2="effect1_dropShadow_212_27" result="shape"/>
</filter>
<linearGradient id="paint0_linear_212_27" x1="98.0322" y1="19.87" x2="98.0322" y2="178.827" gradientUnits="userSpaceOnUse">
<stop stop-color="#CA371C"/>
<stop offset="1" stop-color="#BE3B22"/>
</linearGradient>
</defs>
</svg>
