<svg width="21" height="18" viewBox="0 0 21 18" fill="none" xmlns="http://www.w3.org/2000/svg">
<path d="M20.9985 9.22094C20.8673 9.51826 20.7811 9.84371 20.5966 10.1049C20.2233 10.6352 19.6655 10.8642 19.0134 10.8642C18.0864 10.8642 17.1595 10.8642 16.2284 10.8642C16.1546 10.8642 16.0849 10.8642 15.9823 10.8642C16.1382 11.2861 16.2858 11.6799 16.4335 12.0696C17.0487 13.7129 17.6681 15.3602 18.2874 16.9995C18.3858 17.2647 18.4227 17.5178 18.2095 17.7468C17.9306 18.0522 17.4466 18.008 17.2333 17.6544C17.1841 17.5741 17.1472 17.4857 17.1143 17.4013C16.3227 15.2879 15.527 13.1745 14.7395 11.0611C14.6862 10.9125 14.6206 10.8562 14.4524 10.8562C14.2884 10.8562 14.2186 10.9084 14.1612 11.0571C13.3819 13.1705 12.6026 15.2799 11.811 17.3852C11.7454 17.562 11.6183 17.7468 11.4706 17.8593C11.2655 18.016 11.0194 17.9839 10.8061 17.8272C10.597 17.6745 10.5026 17.4214 10.5929 17.1683C10.8431 16.4692 11.1015 15.7781 11.3599 15.083C11.8561 13.7491 12.3524 12.4151 12.8446 11.0852C12.8692 11.025 12.8856 10.9607 12.9102 10.8763C12.6231 10.8763 12.3483 10.8763 12.0858 10.8763C12.1063 10.5147 12.1227 10.1772 12.1515 9.83567C12.1556 9.77942 12.1925 9.72317 12.2212 9.67094C12.6272 8.87139 13.0374 8.07585 13.4434 7.27228C13.788 6.59326 13.7511 5.93433 13.2917 5.31157C12.5739 4.34326 10.9661 4.37942 10.3263 5.39996C10.0351 5.86201 9.80536 6.36826 9.55107 6.85041C9.51825 6.91469 9.48544 6.97898 9.44032 7.06737C9.1122 6.91067 8.80458 6.72184 8.46825 6.60933C8.02529 6.45666 7.91044 6.20353 7.92275 5.74951C7.96376 4.43969 7.92275 3.12987 7.94736 1.82407C7.96376 0.916031 8.61591 0.208888 9.52646 0.0401385C9.55927 0.0321027 9.58798 0.0160313 9.62079 0.00799561C12.8528 0.00799561 16.089 0.00799561 19.321 0.00799561C19.3579 0.0200492 19.3948 0.0361206 19.4358 0.0441563C19.8911 0.136567 20.2602 0.353531 20.5638 0.703085C20.8017 0.980317 20.9083 1.30978 21.0026 1.6513C20.9985 4.1705 20.9985 6.69371 20.9985 9.22094ZM14.4606 3.77273C15.5229 3.77273 16.5893 3.77273 17.6517 3.77273C17.7378 3.77273 17.8321 3.77273 17.9142 3.75264C18.2013 3.6763 18.3817 3.42317 18.3571 3.13791C18.3325 2.8446 18.1315 2.60353 17.8239 2.59951C15.5804 2.58746 13.3368 2.5955 11.0974 2.59951C11.0276 2.59951 10.9497 2.62764 10.8841 2.6638C10.6462 2.78835 10.5231 3.05755 10.5847 3.30666C10.6544 3.59594 10.8759 3.77675 11.1876 3.77675C12.2786 3.77273 13.3696 3.77273 14.4606 3.77273ZM16.3761 7.09148C15.9126 7.09148 15.4491 7.08746 14.9856 7.0955C14.6698 7.09951 14.4237 7.32853 14.3991 7.62585C14.3745 7.96335 14.5673 8.22451 14.9036 8.26871C15.08 8.29282 15.2563 8.2888 15.4327 8.2888C16.1915 8.2888 16.9462 8.29683 17.705 8.28478C18.111 8.28076 18.3735 8.0196 18.3612 7.67005C18.3489 7.32451 18.0823 7.0955 17.6886 7.0955C17.2497 7.09148 16.8149 7.09148 16.3761 7.09148ZM16.3761 6.02273C16.819 6.02273 17.262 6.02675 17.705 6.02273C18.0987 6.01871 18.3612 5.77764 18.3612 5.4321C18.3612 5.08657 18.0987 4.84148 17.705 4.84148C16.819 4.83746 15.9331 4.83746 15.0472 4.84148C14.6493 4.84148 14.395 5.08255 14.395 5.4321C14.395 5.78567 14.6493 6.01871 15.0472 6.02273C15.4901 6.02675 15.9331 6.02273 16.3761 6.02273Z" fill="black"/>
<path d="M4.40845 6.42853C5.19185 6.40442 5.88501 6.66558 6.56177 6.99906C7.6938 7.55353 8.82583 8.10397 9.97837 8.66647C10.0112 8.6062 10.044 8.54995 10.0768 8.48969C10.4747 7.71424 10.8684 6.93879 11.2663 6.16736C11.3934 5.91826 11.5985 5.77763 11.8897 5.80174C12.1522 5.82183 12.3327 5.96245 12.4188 6.20754C12.4885 6.40442 12.4352 6.58522 12.345 6.76603C11.9471 7.53745 11.5534 8.3129 11.1555 9.08835C11.1268 9.14058 11.1022 9.19683 11.0735 9.24906C10.9422 9.47004 10.8889 9.68701 10.9176 9.96424C11.0407 11.1817 9.72407 12.162 8.43618 11.5272C7.88247 11.254 7.32876 10.9848 6.77505 10.7116C6.70942 10.6794 6.6438 10.6513 6.54536 10.6111C6.54536 10.7156 6.54536 10.7919 6.54536 10.8683C6.54536 12.9656 6.54536 15.0629 6.54536 17.1602C6.54536 17.7468 6.32798 17.9558 5.73325 17.9558C4.52739 17.9558 3.31743 17.9558 2.11157 17.9558C1.59067 17.9558 1.36099 17.7308 1.36099 17.2245C1.36099 16.204 1.35688 15.1794 1.36509 14.1589C1.36509 14.0343 1.33228 13.9741 1.21333 13.9178C0.466846 13.5803 0.0771977 13.0017 0.0566899 12.2022C0.0402836 11.5433 0.0484867 10.8803 0.0525883 10.2174C0.0689945 8.34103 1.46763 6.76603 3.36255 6.48879C3.44868 6.47674 3.53481 6.45665 3.60864 6.4446C3.36255 6.36826 3.09595 6.31603 2.85396 6.19951C2.60376 6.08299 2.36177 5.93031 2.16079 5.74951C1.95571 5.5687 1.77935 5.34772 1.63989 5.11469C1.50454 4.88165 1.3979 4.62049 1.34048 4.35531C1.28306 4.09013 1.26255 3.80888 1.29536 3.53969C1.42251 2.27808 2.49712 1.26558 3.73989 1.20531C5.09751 1.14103 6.24595 1.96067 6.54536 3.21022C6.72173 3.94549 6.58638 4.62451 6.17212 5.25531C5.75786 5.89415 5.14673 6.25174 4.40845 6.42853Z" fill="black"/>
</svg>
