<svg width="227" height="197" viewBox="0 0 227 197" fill="none" xmlns="http://www.w3.org/2000/svg">
<g clip-path="url(#clip0_208_8)">
<path fill-rule="evenodd" clip-rule="evenodd" d="M1.93359 0.5H0.433594V2V164.526V165.671L1.53763 165.973L2.25391 166.169V167.166H5.20148V166.976L112.884 196.447L113.28 196.555L113.676 196.447L223.322 166.438V167.166H226.269V164.166H226.126V2V0.5H224.626H1.93359ZM113.28 30.9185L13.0967 3.5H213.463L113.28 30.9185ZM114.78 33.6183L223.126 3.96569V163.382L217.427 164.941V164.166H211.532V166.555L114.78 193.034V33.6183ZM111.78 33.6183V193.034L16.9918 167.092V164.166H11.0966V165.479L3.43359 163.382V3.96569L111.78 33.6183ZM22.8869 167.166H28.7821V164.166H22.8869V167.166ZM34.6772 167.166H40.5724V164.166H34.6772V167.166ZM46.4675 167.166H52.3627V164.166H46.4675V167.166ZM58.2578 167.166H64.1529V164.166H58.2578V167.166ZM70.0481 167.166H75.9432V164.166H70.0481V167.166ZM81.8384 167.166H87.7335V164.166H81.8384V167.166ZM93.6287 167.166H99.5238V164.166H93.6287V167.166ZM105.419 167.166H111.314V164.166H105.419V167.166ZM117.209 167.166H123.104V164.166H117.209V167.166ZM129 167.166H134.895V164.166H129V167.166ZM140.79 167.166H146.685V164.166H140.79V167.166ZM152.58 167.166H158.475V164.166H152.58V167.166ZM164.37 167.166H170.266V164.166H164.37V167.166ZM176.161 167.166H182.056V164.166H176.161V167.166ZM187.951 167.166H193.846V164.166H187.951V167.166ZM199.741 167.166H205.636V164.166H199.741V167.166Z" fill="black"/>
</g>
<defs>
<clipPath id="clip0_208_8">
<rect width="227" height="197" fill="white"/>
</clipPath>
</defs>
</svg>
