<svg width="484" height="419" viewBox="0 0 484 419" fill="none" xmlns="http://www.w3.org/2000/svg">
<g clip-path="url(#clip0_208_8)">
<path fill-rule="evenodd" clip-rule="evenodd" d="M1.96735 0.000243783H0.000176191V1.96742V350.948V352.449L1.44806 352.845L2.65648 353.176V355.362H6.53561V354.238L240.533 418.279L241.053 418.421L241.572 418.279L471.462 355.362H472.031V355.206L479.79 353.083V355.362H483.668V351.428H482.105V350.948V1.96742V0.000243783H480.138H1.96735ZM470.933 351.428L478.171 349.447V4.54532L243.02 68.9024V413.804L464.273 353.251V351.428H470.933ZM241.053 65.3618L16.6072 3.93459H465.498L241.053 65.3618ZM239.085 355.362V413.804L22.0521 354.405V351.428H14.2939V352.282L3.93452 349.447V4.54531L239.085 68.9024V351.428H231.525V355.362H239.085ZM29.8104 355.362H37.5686V351.428H29.8104V355.362ZM45.3269 355.362H53.0852V351.428H45.3269V355.362ZM60.8434 355.362H68.6017V351.428H60.8434V355.362ZM76.3599 355.362H84.1182V351.428H76.3599V355.362ZM91.8764 355.362H99.6347V351.428H91.8764V355.362ZM107.393 355.362H115.151V351.428H107.393V355.362ZM122.909 355.362H130.668V351.428H122.909V355.362ZM138.426 355.362H146.184V351.428H138.426V355.362ZM153.942 355.362H161.701V351.428H153.942V355.362ZM169.459 355.362H177.217V351.428H169.459V355.362ZM184.976 355.362H192.734V351.428H184.976V355.362ZM200.492 355.362H208.25V351.428H200.492V355.362ZM216.009 355.362H223.767V351.428H216.009V355.362ZM247.042 355.362H254.8V351.428H247.042V355.362ZM262.558 355.362H270.316V351.428H262.558V355.362ZM278.075 355.362H285.833V351.428H278.075V355.362ZM293.591 355.362H301.349V351.428H293.591V355.362ZM309.108 355.362H316.866V351.428H309.108V355.362ZM324.624 355.362H332.383V351.428H324.624V355.362ZM340.141 355.362H347.899V351.428H340.141V355.362ZM355.657 355.362H363.416V351.428H355.657V355.362ZM371.174 355.362H378.932V351.428H371.174V355.362ZM386.69 355.362H394.449V351.428H386.69V355.362ZM402.207 355.362H409.965V351.428H402.207V355.362ZM417.723 355.362H425.482V351.428H417.723V355.362ZM433.24 355.362H440.998V351.428H433.24V355.362ZM448.757 355.362H456.515V351.428H448.757V355.362Z" fill="black"/>
</g>
<defs>
<clipPath id="clip0_208_8">
<rect width="227" height="197" fill="white"/>
</clipPath>
</defs>
</svg>
