<svg width="48" height="48" viewBox="0 0 48 48" fill="none" xmlns="http://www.w3.org/2000/svg">
<path d="M10.6107 37.9992C10.1363 37.7814 9.98506 37.4072 10.0011 36.8971C10.0296 36.0237 9.9953 35.1482 10.0136 34.2741C10.083 30.9539 11.2889 28.1051 13.6181 25.743C15.0103 24.3317 16.6715 23.3385 18.5542 22.7188C18.7069 22.7304 18.821 22.8291 18.9474 22.8985C19.9961 23.4752 21.1121 23.7887 22.3151 23.7704L22.3129 23.7902C22.3129 28.5268 22.3129 33.2633 22.3136 37.9999C18.4124 37.9992 14.5119 37.9992 10.6107 37.9992Z" fill="#49ABFE"/>
<path d="M22.3132 37.9992C22.3132 33.2626 22.3132 28.526 22.3125 23.7894C22.8855 23.7872 23.449 23.7119 24.0066 23.5774C24.7455 23.3991 25.4157 23.0644 26.0727 22.6968C26.6888 22.9336 27.31 23.1579 27.8976 23.4642C27.8603 23.5153 27.8252 23.5687 27.785 23.6169C26.615 25.0384 26.1947 26.655 26.5265 28.4646C26.9614 30.8332 29.0596 32.7619 31.4517 33.0331C32.5107 33.1529 33.5156 32.9863 34.4935 32.5917C34.7025 34.1155 34.5885 35.6473 34.6162 37.1755C34.6243 37.6001 34.3604 37.8303 34.0155 37.9984C30.115 37.9992 26.2145 37.9992 22.3132 37.9992Z" fill="#1790E6"/>
<path d="M26.0727 22.6967C25.4157 23.0636 24.7462 23.399 24.0066 23.5774C23.449 23.7118 22.8855 23.7878 22.3125 23.7893L22.3147 23.7696C22.3147 19.1813 22.3154 14.5938 22.3154 10.0063C23.954 9.98735 25.4018 10.5238 26.6647 11.5462C27.8998 12.546 28.6964 13.8352 29.0392 15.389C29.4411 17.2103 29.1393 18.9197 28.1746 20.5166C27.6396 21.4038 26.9022 22.0945 26.0727 22.6967Z" fill="#FEC796"/>
<path d="M22.3158 10.0065C22.3158 14.594 22.315 19.1823 22.315 23.7698C21.1121 23.7888 19.9961 23.4745 18.9473 22.8979C18.8209 22.8284 18.7069 22.7298 18.5541 22.7181C18.2647 22.3907 17.8788 22.1773 17.5668 21.871C17.11 21.4216 16.7044 20.9385 16.3806 20.3882C15.6848 19.2057 15.3574 17.923 15.4298 16.5556C15.5058 15.1224 15.9764 13.8223 16.8651 12.6836C17.4776 11.8994 18.2179 11.2636 19.0964 10.7988C19.8572 10.3961 20.6677 10.1403 21.5286 10.0504C21.791 10.0226 22.0512 9.98461 22.3158 10.0065Z" fill="#FED4B5"/>
<ellipse cx="34" cy="27" rx="4" ry="3" fill="#FEC71F"/>
<path d="M37.2606 34.3463C35.8973 34.8965 34.4963 35.1288 33.0199 34.9617C29.684 34.5837 26.7598 31.8948 26.1535 28.5925C25.6899 26.0697 26.2768 23.8159 27.9081 21.8341C27.9641 21.7659 28.013 21.6925 28.065 21.6212C29.0513 20.6237 30.1813 19.8595 31.5211 19.403C35.9748 17.8859 40.998 20.8162 41.8539 25.4421C42.5304 29.1 40.8207 32.5429 37.496 34.22C37.4155 34.2587 37.3391 34.3035 37.2606 34.3463ZM33.9971 30.448C34.6013 30.45 35.1128 29.9671 35.1413 29.3496C35.1566 29.0327 35.1535 28.7148 35.1423 28.3969C35.1362 28.2135 35.2045 28.1524 35.3838 28.1585C35.7007 28.1687 36.0196 28.1728 36.3365 28.1575C36.9539 28.1279 37.4359 27.6144 37.4318 27.0102C37.4277 26.4019 36.9458 25.9036 36.3232 25.8772C36.0318 25.8649 35.7384 25.8619 35.447 25.8782C35.2228 25.8904 35.1219 25.8344 35.1403 25.5868C35.1617 25.3086 35.1505 25.0284 35.1433 24.7492C35.127 24.0767 34.6278 23.5795 33.9848 23.5877C33.3592 23.5958 32.8752 24.089 32.8589 24.7421C32.8518 25.0467 32.8508 25.3524 32.86 25.6561C32.8651 25.8221 32.8029 25.8802 32.6389 25.8761C32.322 25.868 32.0031 25.8649 31.6862 25.8772C31.0606 25.9006 30.5786 26.3937 30.5705 27.003C30.5633 27.6256 31.0545 28.132 31.6954 28.1605C31.7718 28.1636 31.8482 28.1615 31.9236 28.1615C32.8538 28.1626 32.8539 28.1626 32.8559 29.1132C32.8559 29.2151 32.8508 29.317 32.861 29.4179C32.9242 29.9935 33.4234 30.4449 33.9971 30.448Z" fill="#FEC71F"/>
<rect x="30" y="26" width="8" height="2" rx="1" fill="#5E6786"/>
<rect x="30" y="23" width="8" height="2" rx="1" fill="#5E6786"/>
<rect x="30" y="29" width="8" height="2" rx="1" fill="#5E6786"/>
</svg>
