<svg width="43" height="43" viewBox="0 0 43 43" fill="none" xmlns="http://www.w3.org/2000/svg">
<path d="M35.5 14.497C35.3626 14.9468 35.0565 15.2747 34.732 15.5989C28.2903 22.03 21.8516 28.4655 15.4121 34.8995C14.6046 35.7064 13.779 35.6961 12.9613 34.8929C11.8288 33.78 10.7298 32.6416 9.88224 31.2856C8.643 29.3045 7.83998 27.1657 7.60032 24.8399C7.04938 19.4815 8.76722 14.9629 12.7648 11.3505C15.0233 9.30949 17.7064 8.11047 20.7205 7.66138C21.1055 7.60442 21.4913 7.55331 21.8771 7.5C22.6246 7.5 23.3728 7.5 24.1203 7.5C24.189 7.51753 24.257 7.546 24.3271 7.55185C26.5747 7.73659 28.6725 8.39964 30.638 9.49789C32.1907 10.3654 33.5023 11.5257 34.7328 12.7919C35.0521 13.1205 35.3619 13.4455 35.4993 13.8953C35.5 14.0961 35.5 14.2969 35.5 14.497ZM18.7571 9.0415C18.2369 9.23282 17.7568 9.40954 17.2629 9.59136C17.3747 9.83672 17.4718 10.0412 17.5625 10.2486C17.6984 10.5611 17.6173 10.8232 17.3535 10.9401C17.097 11.0533 16.8625 10.9488 16.7134 10.6487C16.6096 10.4392 16.511 10.2274 16.3985 9.99225C15.9272 10.2646 15.48 10.5224 15.0204 10.7882C15.1622 10.9927 15.2893 11.1694 15.4099 11.3512C15.5918 11.6265 15.5589 11.8813 15.3258 12.0486C15.0964 12.2136 14.8392 12.1566 14.6419 11.893C14.5119 11.7192 14.3884 11.5403 14.2415 11.3344C13.8309 11.6813 13.4377 12.0128 13.0351 12.3531C13.0885 12.4159 13.1148 12.4509 13.1455 12.4823C13.4794 12.8182 13.8206 13.1483 14.1472 13.4908C14.354 13.7076 14.3453 13.9858 14.1494 14.1728C13.9624 14.3517 13.7001 14.3488 13.4852 14.1575C13.3698 14.0545 13.2646 13.9406 13.155 13.831C12.8941 13.5704 12.6333 13.3097 12.3527 13.03C11.9968 13.4528 11.6702 13.8405 11.3275 14.248C11.5365 14.3977 11.7236 14.5248 11.9026 14.6628C12.1481 14.8519 12.1941 15.106 12.0334 15.3309C11.8748 15.5522 11.614 15.5916 11.3575 15.4251C11.169 15.3024 10.987 15.171 10.7788 15.0264C10.5099 15.493 10.2527 15.9392 9.98381 16.4051C10.2352 16.5248 10.4566 16.6256 10.6743 16.7359C10.9556 16.8783 11.0506 17.1097 10.9395 17.3624C10.8263 17.6209 10.5691 17.7115 10.2754 17.5859C10.051 17.4895 9.83183 17.3821 9.57974 17.266C9.39707 17.7669 9.22098 18.2489 9.03538 18.7579C9.32692 18.8404 9.58047 18.9032 9.82744 18.9857C10.0912 19.0733 10.2227 19.326 10.1475 19.5655C10.0708 19.8101 9.82671 19.9467 9.5622 19.8839C9.31669 19.8254 9.07411 19.7561 8.79353 19.6816C8.70219 20.2132 8.61378 20.7265 8.52098 21.2625C8.69269 21.2713 8.8191 21.2742 8.94551 21.2852C9.08141 21.2961 9.21732 21.3136 9.35323 21.329C9.66304 21.3655 9.84571 21.5488 9.83694 21.8124C9.82744 22.0877 9.61701 22.2688 9.2955 22.2586C9.02442 22.2498 8.75407 22.2228 8.46399 22.2016C8.46399 22.7427 8.46399 23.2604 8.46399 23.7818C8.74092 23.7614 8.97693 23.7416 9.21294 23.7278C9.54248 23.7088 9.7551 23.865 9.78214 24.1411C9.80918 24.4193 9.59947 24.6332 9.27505 24.6625C9.03173 24.6844 8.78841 24.7099 8.52098 24.7369C8.61524 25.2671 8.70584 25.7819 8.79864 26.3047C9.08653 26.2273 9.33058 26.1536 9.57828 26.0966C9.8932 26.0243 10.1373 26.155 10.2089 26.4201C10.279 26.6771 10.1183 26.9218 9.81502 27.0087C9.5717 27.0788 9.32692 27.1416 9.03465 27.2204C9.21951 27.7287 9.39707 28.2165 9.57901 28.7181C9.80625 28.6137 9.9955 28.5261 10.1855 28.4399C10.5355 28.2814 10.8029 28.3479 10.9279 28.6217C11.0543 28.8992 10.9337 29.1307 10.5713 29.3023C10.385 29.3907 10.1972 29.4761 9.98162 29.5769C10.2549 30.05 10.5121 30.4962 10.7795 30.9592C10.9965 30.808 11.1894 30.6729 11.3831 30.5393C11.6834 30.3326 11.9574 30.3502 12.1306 30.586C12.3037 30.8219 12.2307 31.0899 11.9355 31.3031C11.7404 31.444 11.5445 31.5842 11.3261 31.7412C11.6841 32.1604 12.018 32.5511 12.3636 32.9563C12.7575 32.5598 13.1111 32.1925 13.4779 31.8384C13.7344 31.5901 14.0895 31.6354 14.24 31.9275C14.3613 32.164 14.2839 32.3656 14.1049 32.5423C13.749 32.8928 13.3961 33.2462 13.0037 33.6376C13.1426 33.7625 13.2653 33.8684 13.3837 33.9801C13.4831 34.0736 13.5773 34.1729 13.6745 34.2693C14.0603 34.6519 14.327 34.6512 14.7179 34.2605C21.2356 27.7484 27.7533 21.2355 34.271 14.7226C34.3287 14.665 34.3908 14.6087 34.4398 14.5437C34.6005 14.3305 34.6195 14.0581 34.4412 13.8632C34.1855 13.5828 33.8991 13.3301 33.571 13.0125C33.5133 13.0972 33.4672 13.1899 33.3978 13.2607C33.1056 13.5609 32.8133 13.8617 32.5079 14.1487C32.2097 14.4284 31.7545 14.3093 31.7085 13.926C31.6902 13.7741 31.783 13.5696 31.8919 13.4499C32.2265 13.0818 32.5933 12.7437 32.9718 12.3699C32.5466 12.0128 32.1535 11.6827 31.7421 11.3373C31.5821 11.5637 31.4469 11.7557 31.3095 11.9471C31.1108 12.2231 30.8419 12.2968 30.6088 12.1413C30.3655 11.9792 30.3392 11.6959 30.543 11.3987C30.6768 11.2037 30.8141 11.0109 30.9683 10.7911C30.5029 10.5231 30.0498 10.2624 29.5837 9.99372C29.4638 10.2471 29.3674 10.4625 29.2614 10.6728C29.116 10.9605 28.8625 11.0577 28.6082 10.9321C28.3736 10.8152 28.2889 10.5509 28.4065 10.2785C28.503 10.0558 28.6097 9.83672 28.7236 9.5899C28.218 9.40735 27.7343 9.23209 27.2257 9.04807C27.1476 9.33359 27.084 9.57749 27.0146 9.81919C26.9254 10.131 26.7018 10.2865 26.4344 10.2267C26.1597 10.1653 26.0223 9.90755 26.1012 9.57968C26.1611 9.33286 26.2349 9.0897 26.3131 8.8071C25.7863 8.71436 25.2712 8.62381 24.7407 8.53108C24.7137 8.80418 24.6881 9.04734 24.6662 9.29051C24.6384 9.60378 24.4411 9.80532 24.1686 9.79363C23.8909 9.78195 23.7155 9.56872 23.7309 9.2467C23.7426 8.99404 23.7652 8.74211 23.785 8.46463C23.2523 8.46463 22.7386 8.46463 22.2016 8.46463C22.2242 8.76694 22.252 9.03712 22.2622 9.30803C22.2739 9.60451 22.0868 9.81846 21.8245 9.83088C21.5622 9.84256 21.3613 9.64832 21.3321 9.35331C21.3057 9.09189 21.2802 8.83047 21.2509 8.534C20.7197 8.62674 20.2053 8.71728 19.6778 8.80929C19.7209 8.96264 19.753 9.07582 19.783 9.18974C19.813 9.30365 19.8407 9.41903 19.8685 9.53367C19.943 9.83818 19.8181 10.0828 19.5492 10.1609C19.3022 10.2332 19.0611 10.0865 18.9712 9.79875C18.8989 9.56361 18.8382 9.32702 18.7571 9.0415Z" fill="black"/>
<path d="M22.6115 13.8033C23.8354 13.8208 24.9219 14.0158 25.9631 14.4386C26.4731 14.646 26.5411 14.9826 26.1487 15.3747C22.5523 18.9704 18.9551 22.5653 15.3565 26.1587C14.9678 26.5464 14.6141 26.4654 14.4344 25.9425C13.3983 22.9333 13.6416 20.0745 15.5436 17.4646C17.0744 15.3638 19.1736 14.1757 21.758 13.8544C21.7938 13.85 21.8304 13.8486 21.8669 13.8464C22.1497 13.8296 22.4317 13.8135 22.6115 13.8033ZM15.0876 24.9414C18.3801 21.6517 21.6689 18.365 24.9372 15.0994C21.9466 14.2093 18.8236 15.0739 16.7441 17.4807C14.8487 19.6743 14.3606 22.2045 15.0876 24.9414Z" fill="black"/>
<path d="M23.378 22.693C23.7404 22.3243 24.0765 21.9774 24.4177 21.6364C24.661 21.3932 24.938 21.367 25.1396 21.5583C25.3508 21.7584 25.3333 22.0512 25.0834 22.3016C24.1503 23.2371 23.2165 24.1703 22.2805 25.1028C22.0328 25.3496 21.7668 25.3664 21.56 25.1605C21.3584 24.9604 21.3752 24.68 21.6148 24.4383C21.967 24.0848 22.3258 23.738 22.7109 23.3597C22.3411 22.9961 21.9955 22.6631 21.6587 22.3199C21.5724 22.2323 21.484 22.1235 21.4519 22.0088C21.3942 21.7985 21.4614 21.6072 21.6631 21.4962C21.8698 21.3823 22.0722 21.4115 22.2403 21.5743C22.5413 21.8657 22.8351 22.1651 23.1325 22.4601C23.2026 22.5302 23.2757 22.5967 23.378 22.693Z" fill="black"/>
</svg>
