<svg width="460" height="398" viewBox="0 0 460 398" fill="none" xmlns="http://www.w3.org/2000/svg">
<g clip-path="url(#clip0_208_12)">
<path fill-rule="evenodd" clip-rule="evenodd" d="M231.529 2.35786L229.908 0L228.287 2.35786L1.56975 332.129L0 334.412L2.67318 335.141L229.391 396.973L229.908 397.114L230.426 396.973L457.143 335.141L459.816 334.412L458.246 332.129L231.529 2.35786ZM7.0997 332.27L14.9175 334.402V331.283H22.7354V335.217H17.9067L227.941 392.5V9.80598L6.92545 331.283H7.0997V332.27ZM231.875 392.5V9.806L452.891 331.283H452.717V332.27L444.899 334.402V331.283H437.081V335.217H441.91L231.875 392.5ZM30.5532 335.217H38.3711V331.283H30.5532V335.217ZM46.1889 335.217H54.0067V331.283H46.1889V335.217ZM61.8246 335.217H69.6424V331.283H61.8246V335.217ZM77.4603 335.217H85.2781V331.283H77.4603V335.217ZM93.0959 335.217H100.914V331.283H93.0959V335.217ZM108.732 335.217H116.549V331.283H108.732V335.217ZM124.367 335.217H132.185V331.283H124.367V335.217ZM140.003 335.217H147.821V331.283H140.003V335.217ZM155.639 335.217H163.457V331.283H155.639V335.217ZM171.274 335.217H179.092V331.283H171.274V335.217ZM186.91 335.217H194.728V331.283H186.91V335.217ZM202.546 335.217H210.364V331.283H202.546V335.217ZM218.181 335.217H225.999V331.283H218.181V335.217ZM233.817 335.217H241.635V331.283H233.817V335.217ZM249.453 335.217H257.271V331.283H249.453V335.217ZM265.088 335.217H272.906V331.283H265.088V335.217ZM280.724 335.217H288.542V331.283H280.724V335.217ZM296.36 335.217H304.178V331.283H296.36V335.217ZM311.995 335.217H319.813V331.283H311.995V335.217ZM327.631 335.217H335.449V331.283H327.631V335.217ZM343.267 335.217H351.085V331.283H343.267V335.217ZM358.902 335.217H366.72V331.283H358.902V335.217ZM374.538 335.217H382.356V331.283H374.538V335.217ZM390.174 335.217H397.992V331.283H390.174V335.217ZM405.81 335.217H413.627V331.283H405.81V335.217ZM421.445 335.217H429.263V331.283H421.445V335.217Z" fill="black"/>
</g>
<defs>
<clipPath id="clip0_208_12">
<rect width="187" height="161" fill="white"/>
</clipPath>
</defs>
</svg>
