<svg width="187" height="161" viewBox="0 0 187 161" fill="none" xmlns="http://www.w3.org/2000/svg">
<g clip-path="url(#clip0_208_12)">
<path fill-rule="evenodd" clip-rule="evenodd" d="M94.5513 2.15045L93.3153 0.352539L92.0792 2.15045L1.76336 133.519L0.566406 135.26L2.60475 135.816L92.9206 160.447L93.3153 160.555L93.7099 160.447L184.026 135.816L186.064 135.26L184.867 133.519L94.5513 2.15045ZM6.00995 133.635L12.031 135.277V132.871H18.0521V135.871H14.2099L91.8153 157.036V7.82976L5.84916 132.871H6.00995V133.635ZM94.8153 157.036V7.82977L180.781 132.871H180.621V133.635L174.6 135.277V132.871H168.578V135.871H172.421L94.8153 157.036ZM24.0731 135.871H30.0942V132.871H24.0731V135.871ZM36.1152 135.871H42.1363V132.871H36.1152V135.871ZM48.1573 135.871H54.1784V132.871H48.1573V135.871ZM60.1995 135.871H66.2205V132.871H60.1995V135.871ZM72.2416 135.871H78.2626V132.871H72.2416V135.871ZM84.2837 135.871H90.3047V132.871H84.2837V135.871ZM96.3258 135.871H102.347V132.871H96.3258V135.871ZM108.368 135.871H114.389V132.871H108.368V135.871ZM120.41 135.871H126.431V132.871H120.41V135.871ZM132.452 135.871H138.473V132.871H132.452V135.871ZM144.494 135.871H150.515V132.871H144.494V135.871ZM156.536 135.871H162.557V132.871H156.536V135.871Z" fill="black"/>
</g>
<defs>
<clipPath id="clip0_208_12">
<rect width="187" height="161" fill="white"/>
</clipPath>
</defs>
</svg>
