<svg width="43" height="43" viewBox="0 0 43 43" fill="none" xmlns="http://www.w3.org/2000/svg">
<path d="M33.9994 23.0628C33.9994 26.0247 33.9994 28.9866 33.9994 31.9491C33.9818 31.9915 33.9589 32.0332 33.9478 32.0776C33.6909 33.0681 33.0687 33.6922 32.0766 33.9485C32.0323 33.9596 31.9912 33.9824 31.9488 34C28.9871 34 26.0254 34 23.063 34C22.6032 33.8657 22.1584 33.7026 21.8049 33.3596C21.7025 33.2599 21.6001 33.1594 21.5303 33.0916C21.2212 33.3185 20.9434 33.5553 20.6342 33.7392C20.4248 33.8637 20.1718 33.9159 19.9383 34C16.9766 34 14.0149 34 11.0525 34C11.0258 33.9843 11.001 33.9615 10.9723 33.955C9.74811 33.6674 9.00393 32.7369 9.00328 31.4861C9.00263 28.8014 9.00328 26.116 9.00263 23.4312C9.00263 22.8645 9.18851 22.3631 9.5407 21.9249C9.66136 21.7749 9.8055 21.6438 9.97638 21.4651C9.93334 21.4436 9.89029 21.4325 9.86094 21.4064C9.27003 20.8847 8.99741 20.2333 9.00002 19.4436C9.00915 16.7993 9.00263 14.1549 9.00393 11.5106C9.00458 10.0584 10.0586 9.00327 11.5097 9.00261C14.1701 9.00066 16.8305 9.00457 19.4909 9C20.2429 8.9987 20.867 9.26867 21.3738 9.81971C21.4149 9.86405 21.4625 9.90318 21.5114 9.94883C22.0182 9.3528 22.6326 9.00587 23.4061 9.00457C26.1324 8.99935 28.858 9 31.5829 9.00327C32.6382 9.00457 33.58 9.70755 33.8917 10.7111C33.927 10.8246 33.9635 10.9381 33.9987 11.0515C33.9987 14.0134 33.9987 16.9753 33.9987 19.9379C33.8604 20.4139 33.6876 20.8717 33.3256 21.231C33.2356 21.3203 33.1456 21.4097 33.0804 21.4736C33.2969 21.754 33.5259 21.9992 33.6915 22.2809C33.8324 22.5196 33.8996 22.8006 33.9994 23.0628ZM9.97834 27.4887C9.97834 28.8059 9.97703 30.1238 9.97899 31.4411C9.9803 32.4056 10.6006 33.0225 11.5697 33.0231C14.1884 33.0244 16.807 33.0244 19.4257 33.0231C20.3935 33.0225 21.0131 32.4043 21.0138 31.4379C21.0151 28.819 21.0151 26.2001 21.0138 23.5812C21.0131 22.5998 20.3968 21.9875 19.4107 21.9875C16.7998 21.9868 14.1897 21.9868 11.5789 21.9875C10.5934 21.9881 9.9803 22.6004 9.97899 23.5845C9.97703 24.8861 9.97834 26.1871 9.97834 27.4887ZM33.0237 27.5311C33.0237 26.2216 33.0243 24.9122 33.0237 23.6027C33.023 22.5998 32.4145 21.9881 31.4172 21.9875C28.8149 21.9868 26.2126 21.9868 23.6103 21.9875C22.5935 21.9875 21.9889 22.5926 21.9889 23.6119C21.9882 26.2066 21.9882 28.8007 21.9889 31.3955C21.9889 32.4141 22.5941 33.0231 23.607 33.0238C26.2093 33.0244 28.8117 33.0244 31.414 33.0238C32.4138 33.0231 33.0223 32.4128 33.0237 31.4111C33.0243 30.1173 33.0237 28.8242 33.0237 27.5311ZM27.4909 21.0126C28.7921 21.0126 30.0933 21.0132 31.3944 21.0126C32.4138 21.0119 33.023 20.408 33.023 19.394C33.0237 16.7914 33.0237 14.1889 33.023 11.5863C33.0223 10.5859 32.4119 9.97687 31.4107 9.97622C28.8084 9.97556 26.2061 9.97556 23.6037 9.97622C22.6 9.97622 21.9882 10.584 21.9882 11.5817C21.9875 14.1928 21.9875 16.8032 21.9882 19.4142C21.9889 20.3976 22.6026 21.0112 23.5874 21.0119C24.8886 21.0139 26.1898 21.0126 27.4909 21.0126ZM15.5124 9.97687C14.1949 9.97687 12.8774 9.97556 11.56 9.97752C10.5947 9.97817 9.97899 10.5977 9.97834 11.568C9.97703 14.1869 9.97703 16.8058 9.97834 19.4247C9.97899 20.393 10.596 21.0119 11.5626 21.0126C14.1812 21.0139 16.7998 21.0139 19.4185 21.0126C20.3994 21.0119 21.0125 20.395 21.0125 19.409C21.0138 16.798 21.0138 14.1876 21.0125 11.5765C21.0118 10.5905 20.3994 9.97752 19.4152 9.97687C18.1147 9.97556 16.8135 9.97687 15.5124 9.97687ZM21.5258 21.083C21.3738 21.2284 21.2251 21.3719 21.096 21.4951C21.2258 21.6353 21.3699 21.7912 21.4814 21.9118C21.6373 21.767 21.7893 21.6262 21.9243 21.501C21.7893 21.3588 21.6504 21.2134 21.5258 21.083Z" fill="black"/>
<path d="M15.009 27.4796C15.009 26.862 15.0077 26.2451 15.0096 25.6276C15.0103 25.2754 15.2027 25.0609 15.5073 25.0674C15.8008 25.0733 15.9827 25.2839 15.9834 25.625C15.9847 26.8842 15.9847 28.1428 15.9834 29.402C15.9827 29.7417 15.7975 29.9465 15.4981 29.9472C15.1981 29.9478 15.0109 29.7437 15.0103 29.4053C15.007 28.7629 15.009 28.1213 15.009 27.4796Z" fill="black"/>
<path d="M27.8413 26.043C27.3058 26.043 26.8264 26.0449 26.3471 26.0423C26.0027 26.0404 25.8005 25.8591 25.7992 25.5591C25.7972 25.2598 26.004 25.0681 26.3405 25.0668C27.1212 25.0641 27.9019 25.0687 28.6833 25.0641C28.8972 25.0628 29.0681 25.1274 29.1744 25.3165C29.2866 25.5161 29.2416 25.7039 29.1216 25.8878C28.4942 26.847 27.87 27.8076 27.2452 28.7681C27.2106 28.821 27.1793 28.8764 27.1304 28.9573C27.2223 28.9631 27.2902 28.971 27.3586 28.9716C27.8465 28.9729 28.335 28.967 28.8229 28.9755C29.0929 28.9801 29.3042 29.2051 29.3049 29.4607C29.3055 29.7189 29.0974 29.9433 28.8248 29.9452C27.9463 29.9517 27.0678 29.9556 26.1899 29.9439C25.7744 29.9387 25.5859 29.5181 25.8246 29.1464C26.2949 28.4154 26.773 27.6889 27.2471 26.9605C27.4356 26.669 27.6234 26.3775 27.8413 26.043Z" fill="black"/>
<path d="M25.7405 14.9584C25.7405 14.5026 25.7366 14.0467 25.7418 13.5916C25.7457 13.2505 25.9349 13.0503 26.2349 13.0536C26.529 13.0568 26.7195 13.2675 26.7208 13.6046C26.7234 14.4263 26.773 15.2525 26.7058 16.0689C26.653 16.7099 27.4193 17.1723 28.0141 16.841C28.3031 16.68 28.455 16.4667 28.4478 16.1185C28.4322 15.3053 28.4413 14.4915 28.4446 13.6776C28.4452 13.5733 28.4518 13.4624 28.4883 13.3672C28.5718 13.1455 28.7433 13.0353 28.9833 13.0549C29.2122 13.0738 29.3583 13.2022 29.4112 13.4233C29.4333 13.5172 29.4366 13.617 29.4366 13.7135C29.4386 14.5026 29.4399 15.2923 29.4373 16.0813C29.434 16.9728 28.9846 17.5825 28.1452 17.844C27.3476 18.0918 26.484 17.8231 26.0347 17.1358C25.882 16.9023 25.7868 16.6024 25.7594 16.3232C25.7144 15.872 25.7477 15.4136 25.7477 14.9577C25.7444 14.9584 25.7425 14.9584 25.7405 14.9584Z" fill="black"/>
<path d="M17.7952 16.8175C17.8983 16.9258 17.9935 17.0145 18.0757 17.1149C18.2407 17.3164 18.2244 17.6046 18.0457 17.7788C17.867 17.9535 17.5689 17.9979 17.4098 17.8061C17.1828 17.5336 17.0028 17.5942 16.7178 17.7181C15.7851 18.125 14.8942 17.9933 14.1298 17.321C13.3393 16.6258 13.0987 15.7285 13.4202 14.7334C13.7326 13.7657 14.4442 13.1925 15.4505 13.0705C16.4165 12.9531 17.2154 13.3229 17.7594 14.1354C18.2961 14.9369 18.3235 15.7898 17.8846 16.6532C17.8592 16.7021 17.8311 16.751 17.7952 16.8175ZM16.3565 16.7934C15.9417 16.3174 15.8647 16.1074 16.0688 15.8857C16.4673 15.4527 16.7667 15.7996 17.0582 16.0754C17.3491 15.3959 17.1222 14.6558 16.5299 14.2678C15.9397 13.8804 15.142 13.9809 14.6627 14.5026C14.1781 15.0301 14.1435 15.8126 14.5798 16.3819C14.9999 16.9284 15.7551 17.1077 16.3565 16.7934Z" fill="black"/>
</svg>
