<svg width="51" height="52" viewBox="0 0 51 52" fill="none" xmlns="http://www.w3.org/2000/svg">
<rect x="50.5" y="51" width="50" height="50" rx="25" transform="rotate(180 50.5 51)" fill="#F25A57" stroke="#DDDDDD"/>
<path d="M31.6757 29.8917C31.6757 30.7569 31.6937 31.4967 31.6757 32.235C31.6312 33.7577 30.5555 34.9603 29.1017 34.9748C24.785 35.0084 20.4682 35.0084 16.1514 34.9748C15.8027 34.9717 15.4579 34.8974 15.1368 34.756C14.8158 34.6146 14.5247 34.4089 14.2804 34.1507C14.036 33.8925 13.8431 33.5868 13.7127 33.2511C13.5823 32.9155 13.517 32.5565 13.5205 32.1946C13.4936 28.4031 13.4932 24.616 13.5191 20.8332C13.5146 20.46 13.5824 20.0897 13.7184 19.7442C13.8545 19.3988 14.0561 19.0852 14.3112 18.8221C14.5663 18.559 14.8698 18.3518 15.2035 18.2128C15.5373 18.0737 15.8946 18.0056 16.2543 18.0126C20.5016 17.9953 24.7493 17.9958 28.9975 18.0141C30.5263 18.0141 31.6312 19.1979 31.6743 20.7957C31.6937 21.5167 31.6743 22.2377 31.6743 23.0351C31.8758 22.9572 32.0384 22.9111 32.1885 22.8332C33.9161 21.9377 35.6394 21.0322 37.3684 20.1396C38.3774 19.619 38.9944 20.0069 38.9958 21.1663C39.0014 24.7366 39.0014 28.308 38.9958 31.8803C38.9958 32.9906 38.3732 33.3727 37.4003 32.8709C35.5324 31.9048 33.6673 30.9285 31.6757 29.8917ZM22.6071 30.2667C23.5706 30.2628 24.4932 29.862 25.172 29.1524C25.8507 28.4429 26.2299 27.4826 26.2262 26.4829C26.2225 25.4832 25.8362 24.5259 25.1523 23.8218C24.4684 23.1176 23.5429 22.7241 22.5793 22.7279C22.1053 22.7251 21.6355 22.8199 21.197 23.0069C20.7586 23.1939 20.3604 23.4694 20.0254 23.8174C19.6904 24.1653 19.4253 24.5789 19.2456 25.034C19.0658 25.4891 18.975 25.9767 18.9783 26.4685C18.972 26.9663 19.0614 27.4604 19.2411 27.922C19.4209 28.3835 19.6874 28.8034 20.0252 29.1569C20.363 29.5105 20.7653 29.7907 21.2086 29.9813C21.6519 30.1718 22.1273 30.2688 22.6071 30.2667Z" fill="white"/>
</svg>
