<svg width="48" height="48" viewBox="0 0 48 48" fill="none" xmlns="http://www.w3.org/2000/svg">
<path d="M24.4606 39.6388C15.9935 39.6397 8.81984 32.7918 9.00345 23.9376C9.16953 15.9189 15.8606 8.78032 24.9524 9.00517C32.9453 9.2026 40.1568 15.7772 39.9197 24.8023C39.7093 32.8037 33.0893 39.6159 24.4606 39.6388ZM18.9423 24.3023C18.9376 27.3287 21.4076 29.7874 24.4579 29.7892C27.4971 29.792 29.9772 27.3534 29.9882 24.3508C29.9993 21.3208 27.5358 18.8547 24.4892 18.8465C21.4316 18.8401 18.9478 21.2833 18.9423 24.3023Z" fill="#EDEDED" fill-opacity="0.5"/>
<path d="M18.9453 24.3021C18.9499 21.2822 21.4346 18.839 24.4923 18.8472C27.5389 18.8554 30.0024 21.3215 29.9913 24.3515C29.9802 27.354 27.5001 29.7927 24.4609 29.7899C21.4106 29.7872 18.9407 27.3294 18.9453 24.3021Z" fill="#F34336"/>
</svg>
