<svg width="48" height="48" viewBox="0 0 48 48" fill="none" xmlns="http://www.w3.org/2000/svg">
<path d="M41.9981 21.5529C41.6423 20.8672 40.9729 20.5018 40.4109 20.0358C36.504 16.7963 32.5807 13.575 28.6661 10.3451C28.2873 10.0325 27.8883 9.88286 27.4136 10.1082C26.9447 10.3298 26.7817 10.7172 26.7836 11.2159C26.7903 12.8529 26.7797 14.4899 26.7932 16.1269C26.7951 16.4002 26.7155 16.4702 26.4508 16.4616C25.4832 16.4328 24.5165 16.4673 23.5537 16.5642C23.5537 19.4402 23.5546 22.3163 23.5546 25.1913C24.5405 25.0638 25.5321 25.0686 26.5237 25.06C26.8114 25.0571 26.7884 25.2105 26.7884 25.3975C26.7865 27 26.7951 28.6015 26.7826 30.204C26.7788 30.7065 26.8919 31.1275 27.3561 31.3884C27.8289 31.654 28.248 31.5016 28.6613 31.2282C32.0197 29.0072 35.381 26.789 38.7413 24.5709C39.5891 24.0118 40.4301 23.4412 41.2894 22.9013C41.6059 22.7018 41.8226 22.44 42 22.1273C41.9981 21.9355 41.9981 21.7447 41.9981 21.5529Z" fill="#F27384"/>
<path d="M23.5527 25.1921C23.5527 22.3161 23.5518 19.44 23.5518 16.5649C19.4099 16.9936 15.7484 18.5664 12.5684 21.241C9.12461 24.1381 6.87576 27.7891 5.80456 32.1611C5.42576 33.7089 5.24451 35.2817 5.25793 36.8756C5.26177 37.4088 5.58399 37.8355 6.07308 37.965C6.56121 38.0935 7.0714 37.8604 7.32457 37.3598C8.00354 36.0144 8.76787 34.7207 9.65398 33.5018C11.9412 30.3534 14.7741 27.8802 18.425 26.4167C20.0744 25.7541 21.7939 25.3916 23.5527 25.1921Z" fill="#EB5773"/>
</svg>
