<svg width="48" height="48" viewBox="0 0 48 48" fill="none" xmlns="http://www.w3.org/2000/svg">
<path d="M16.3085 32.6183C15.0662 32.9915 13.8742 33.5006 12.6583 33.9462C11.0922 34.5206 9.53315 35.1162 7.96967 35.6985C7.4694 35.8847 7.29823 35.8255 7 35.3906C7 27.2476 7 19.1046 7 10.9616C7.17735 10.524 7.47469 10.232 7.93262 10.0652C9.7952 9.38404 11.6525 8.68789 13.5063 7.98203C14.3542 7.6591 15.2197 7.38293 16.0438 7C16.1541 7 16.2635 7 16.3738 7C16.2803 7.15088 16.3085 7.3194 16.3085 7.48263C16.3085 15.8612 16.3085 24.2397 16.3085 32.6183Z" fill="#40A1E6"/>
<path d="M16.3078 32.6183C16.3078 24.2397 16.3078 15.8612 16.3087 7.48263C16.3087 7.3194 16.2805 7.15088 16.374 7C16.4402 7 16.5063 7 16.5716 7C17.9022 7.50469 19.2318 8.01026 20.5641 8.5123C22.1832 9.12287 23.804 9.72991 25.4249 10.3361C25.484 10.3581 25.5519 10.3564 25.6154 10.3661C25.6163 12.9857 25.6163 15.6044 25.6172 18.224C25.5449 18.247 25.4725 18.2752 25.3984 18.292C23.242 18.7764 21.4623 19.8802 20.0956 21.6095C18.3292 23.8445 17.7336 26.4006 18.2445 29.1869C18.5824 31.0301 19.4401 32.6351 20.783 33.9638C20.873 34.0529 21.0044 34.1218 20.9877 34.2824C20.22 34.0627 19.4921 33.7353 18.7395 33.4733C17.9295 33.1883 17.1469 32.8212 16.3078 32.6183Z" fill="#3993D2"/>
<path d="M34.9698 21.9169C34.5992 21.5154 34.2666 21.0822 33.8749 20.6984C32.5364 19.3864 30.9332 18.5852 29.1068 18.2314C28.0268 18.0223 26.9354 18.0126 25.8484 18.2164C25.7742 18.2305 25.6948 18.2217 25.6181 18.2235C25.6181 15.6039 25.6181 12.9851 25.6172 10.3655C27.4198 9.83433 29.1412 9.07906 30.9067 8.44467C31.9496 8.06968 32.9811 7.66117 34.0204 7.27383C34.6169 7.05148 34.9813 7.29677 34.9822 7.92498C34.9848 12.5342 34.9831 17.1435 34.9831 21.7528C34.9822 21.8075 34.9742 21.8622 34.9698 21.9169Z" fill="#59B1F0"/>
<path d="M36.4662 34.8582C36.9621 34.6041 37.0944 34.6235 37.4809 35.0091C38.4144 35.9417 39.3514 36.8708 40.2778 37.8104C40.8205 38.361 40.9502 39.1224 40.6387 39.7868C40.329 40.4486 39.6655 40.8465 38.9332 40.798C38.5123 40.7706 38.1417 40.6092 37.8426 40.3118C36.8588 39.336 35.8839 38.3522 34.9009 37.3763C34.6098 37.0878 34.6742 36.7887 34.8409 36.4764C35.418 35.9734 35.95 35.4237 36.4662 34.8582Z" fill="#925353"/>
<path fill-rule="evenodd" clip-rule="evenodd" d="M20.8433 34.0135C20.9222 34.0816 21.0029 34.1513 20.9896 34.2793L20.9922 34.2687C21.0522 34.2651 21.1034 34.2775 21.129 34.3393C21.1716 34.371 21.2147 34.4022 21.2577 34.4334C21.3472 34.4984 21.4367 34.5633 21.5225 34.6331C23.0233 35.8516 24.7439 36.5486 26.6638 36.6924C28.9579 36.8645 31.0534 36.2715 32.9213 34.9119C32.937 34.9003 32.9521 34.8877 32.9673 34.8751C33.0179 34.8329 33.0685 34.7907 33.1411 34.7884C33.6907 35.3663 34.2474 35.9362 34.8349 36.4752C35.4137 35.9722 35.9457 35.4226 36.4619 34.857C36.0517 34.3803 35.6002 33.9439 35.1484 33.5072C35.026 33.3889 34.9035 33.2705 34.7819 33.1513C34.7828 33.1503 34.7838 33.1492 34.7847 33.1481C34.7898 33.0611 34.8408 33.0016 34.8917 32.9421C34.912 32.9184 34.9324 32.8947 34.9497 32.8693C36.77 30.2338 37.1908 27.3927 36.207 24.3434C35.9247 23.4673 35.4597 22.6855 34.9709 21.9144C34.828 21.7591 34.6904 21.5992 34.5529 21.4392C34.3346 21.1853 34.1162 20.9313 33.8759 20.6959C32.5374 19.3839 30.9334 18.5827 29.1078 18.2289C28.0279 18.0198 26.9365 18.0101 25.8494 18.2139C25.7981 18.2236 25.7451 18.2225 25.6922 18.2214C25.6678 18.2209 25.6434 18.2204 25.6191 18.221C25.5955 18.2284 25.5721 18.2363 25.5486 18.2442C25.4995 18.2609 25.4505 18.2775 25.4003 18.2889C23.2439 18.7742 21.4634 19.878 20.0976 21.6064C18.3311 23.8414 17.7356 26.3983 18.2464 29.1838C18.5844 31.0279 19.442 32.632 20.7849 33.9607C20.8032 33.9789 20.8232 33.9961 20.8433 34.0135ZM21.3231 30.7694H21.324L21.2569 30.7023C20.8034 30.0079 20.5908 29.2244 20.4725 28.4206C20.1849 26.4663 20.6525 24.6884 21.8516 23.1267C23.0136 21.6135 24.5595 20.7303 26.4547 20.4638C27.8664 20.2653 29.2049 20.4965 30.4807 21.1185C30.5332 21.1441 30.5816 21.1774 30.6301 21.2107C30.6534 21.2267 30.6767 21.2427 30.7004 21.2579C30.7115 21.2689 30.7227 21.28 30.734 21.291C30.7452 21.302 30.7565 21.3131 30.7675 21.3241V21.3232C31.1831 21.4361 31.5113 21.707 31.8228 21.9744C33.2724 23.2176 34.1442 24.7696 34.34 26.6974C34.5156 28.4233 34.1062 29.9903 33.1295 31.3967C32.0566 32.9417 30.5734 33.9096 28.7187 34.2607C26.5906 34.6639 24.6618 34.1593 22.981 32.8208C22.291 32.272 21.6513 31.634 21.3231 30.7694Z" fill="#594F4F"/>
<path d="M20.9922 34.272C21.0513 34.2685 21.1034 34.2809 21.1289 34.3426C21.0751 34.3347 21.0142 34.3409 20.9922 34.272Z" fill="#71C185"/>
<path d="M21.2612 30.7062C20.8077 30.0118 20.5951 29.2292 20.4769 28.4245C20.1892 26.4702 20.6568 24.6923 21.8559 23.1306C23.0171 21.6174 24.5629 20.7342 26.459 20.4677C27.8699 20.2692 29.2092 20.5004 30.4851 21.1224C30.5627 21.1603 30.6315 21.215 30.7048 21.2618C30.7268 21.2839 30.7498 21.3059 30.7718 21.328V21.3271C30.8212 21.4718 30.8609 21.62 30.92 21.7594C31.4283 22.955 31.6153 24.1999 31.4124 25.4802C31.1283 27.2775 30.3104 28.7951 28.8651 29.9315C27.1313 31.2947 25.177 31.7597 23.0074 31.3212C22.4224 31.203 21.8903 30.9444 21.3265 30.7724H21.3274C21.3054 30.7512 21.2833 30.7291 21.2612 30.7062Z" fill="#E2F2FF"/>
<path d="M21.3203 30.7715C21.8841 30.9435 22.417 31.202 23.0011 31.3203C25.1708 31.7579 27.1251 31.2938 28.8589 29.9306C30.3041 28.7942 31.1212 27.2766 31.4062 25.4793C31.6091 24.1999 31.4212 22.9541 30.9138 21.7585C30.8547 21.6182 30.8141 21.47 30.7656 21.3262C31.1812 21.4391 31.5103 21.71 31.8209 21.9773C33.2705 23.2205 34.1423 24.7725 34.3381 26.7004C34.5128 28.4262 34.1043 29.9932 33.1276 31.3997C32.0547 32.9446 30.5724 33.9125 28.7168 34.2637C26.5887 34.6669 24.6599 34.1622 22.9791 32.8237C22.2882 32.2741 21.6485 31.6361 21.3203 30.7715Z" fill="#DEEEFE"/>
<path d="M21.1888 34.4804C21.2056 34.3198 21.0741 34.251 20.9841 34.1619C19.6412 32.8331 18.7836 31.2291 18.4457 29.385C17.9348 26.5995 18.5304 24.0425 20.2968 21.8076C21.6626 20.0791 23.4431 18.9753 25.5995 18.4901C25.6737 18.4733 25.7451 18.4451 25.8184 18.4221C25.8951 18.4204 25.9736 18.4292 26.0486 18.4151C27.1357 18.2112 28.2271 18.221 29.3071 18.4301C31.1326 18.7839 32.7367 19.585 34.0751 20.897C34.4669 21.2809 34.8004 21.7141 35.1701 22.1155C35.6589 22.8867 36.1239 23.6684 36.4062 24.5446C37.39 27.5939 36.9692 30.435 35.1489 33.0705C35.0881 33.1596 34.991 33.2275 34.9839 33.3493C34.4713 33.929 33.9066 34.4566 33.3463 34.9895C33.2484 34.9895 33.1902 35.0619 33.1205 35.1131C31.2526 36.4727 29.1571 37.0656 26.863 36.8936C24.9431 36.7498 23.2226 36.0527 21.7217 34.8342C21.5947 34.731 21.4597 34.6384 21.3282 34.5404C21.3026 34.4787 21.2514 34.4663 21.1914 34.4698L21.1888 34.4804ZM21.5232 30.9705C21.8514 31.8352 22.4902 32.4731 23.1802 33.0219C24.861 34.3604 26.7898 34.8651 28.918 34.4619C30.7726 34.1107 32.2558 33.1428 33.3287 31.5979C34.3054 30.1914 34.7148 28.6244 34.5392 26.8986C34.3434 24.9707 33.4716 23.4187 32.022 22.1755C31.7105 21.9082 31.3823 21.6373 30.9667 21.5244C30.9447 21.5023 30.9217 21.4811 30.8997 21.4591C30.8264 21.4123 30.7576 21.3576 30.68 21.3197C29.4041 20.6976 28.0656 20.4665 26.6539 20.665C24.7587 20.9315 23.2129 21.8147 22.0508 23.3278C20.8518 24.8896 20.3841 26.6674 20.6718 28.6218C20.79 29.4256 21.0026 30.2091 21.4561 30.9035C21.4791 30.9264 21.5011 30.9485 21.5232 30.9705Z" fill="#768C8C"/>
<path d="M36.6615 35.0554C37.1574 34.8013 37.2897 34.8207 37.6762 35.2063C38.6097 36.1389 39.5467 37.068 40.4731 38.0077C41.0158 38.5583 41.1455 39.3197 40.834 39.9841C40.5243 40.6458 39.8608 41.0438 39.1285 40.9952C38.7076 40.9679 38.337 40.8064 38.0379 40.5091C37.0541 39.5332 36.0792 38.5494 35.0963 37.5736C34.8051 37.2851 34.8695 36.986 35.0363 36.6736C35.6133 36.1707 36.1453 35.621 36.6615 35.0554Z" fill="#EFC41B"/>
<path d="M36.6609 35.0567C36.1448 35.6223 35.6127 36.172 35.0339 36.6749C34.4463 36.1358 33.8895 35.5658 33.3398 34.9879C33.9001 34.4559 34.4648 33.9273 34.9774 33.3477C35.5492 33.9079 36.1386 34.4497 36.6609 35.0567Z" fill="#6B8183"/>
<path d="M21.4566 30.9035C21.003 30.2091 20.7904 29.4265 20.6722 28.6218C20.3845 26.6674 20.8522 24.8895 22.0512 23.3278C23.2124 21.8146 24.7582 20.9314 26.6543 20.665C28.0652 20.4665 29.4045 20.6976 30.6804 21.3197C30.758 21.3576 30.8268 21.4123 30.9001 21.4591C30.9221 21.4811 30.9451 21.5032 30.9671 21.5252V21.5244C31.0165 21.6691 31.0562 21.8173 31.1154 21.9567C31.6236 23.1523 31.8106 24.3972 31.6077 25.6775C31.3236 27.4748 30.5057 28.9924 29.0604 30.1288C27.3267 31.492 25.3723 31.957 23.2027 31.5185C22.6177 31.4002 22.0857 31.1417 21.5218 30.9696H21.5227C21.5007 30.9485 21.4786 30.9264 21.4566 30.9035Z" fill="white"/>
<path d="M30.7717 21.3274C30.7491 21.3049 30.7257 21.2823 30.7031 21.2598C30.7266 21.2814 30.7491 21.304 30.7717 21.3274Z" fill="#90B9E0"/>
<path d="M27.8477 22.7734C27.8477 26.5137 27.8477 32.351 27.8477 32.351" stroke="#768C8C" stroke-width="1.3" stroke-linecap="round"/>
<path d="M32.3555 27.5625C28.6152 27.5625 22.7779 27.5625 22.7779 27.5625" stroke="#768C8C" stroke-width="1.3" stroke-linecap="round"/>
<path d="M21.2617 30.707C21.2843 30.7296 21.3068 30.753 21.3294 30.7756C21.3068 30.753 21.2843 30.7305 21.2617 30.707Z" fill="#90B9E0"/>
</svg>
