<svg width="31" height="31" viewBox="0 0 31 31" fill="none" xmlns="http://www.w3.org/2000/svg">
<path d="M15.5 28.9023C12.019 28.9023 8.68064 27.5195 6.21922 25.0581C3.75781 22.5967 2.375 19.2583 2.375 15.7773C2.375 12.2964 3.75781 8.95798 6.21922 6.49657C8.68064 4.03515 12.019 2.65234 15.5 2.65234C18.981 2.65234 22.3194 4.03515 24.7808 6.49657C27.2422 8.95798 28.625 12.2964 28.625 15.7773C28.625 19.2583 27.2422 22.5967 24.7808 25.0581C22.3194 27.5195 18.981 28.9023 15.5 28.9023ZM15.5 30.7773C19.4782 30.7773 23.2936 29.197 26.1066 26.3839C28.9196 23.5709 30.5 19.7556 30.5 15.7773C30.5 11.7991 28.9196 7.98379 26.1066 5.17074C23.2936 2.3577 19.4782 0.777344 15.5 0.777344C11.5218 0.777344 7.70644 2.3577 4.8934 5.17074C2.08035 7.98379 0.5 11.7991 0.5 15.7773C0.5 19.7556 2.08035 23.5709 4.8934 26.3839C7.70644 29.197 11.5218 30.7773 15.5 30.7773Z" fill="black"/>
<path d="M21.094 14.5001C20.9445 13.7528 20.6524 13.0429 20.2343 12.4112C19.8235 11.7897 19.3001 11.2544 18.6924 10.8343C18.0747 10.4069 17.3806 10.1081 16.65 9.95502C16.2661 9.87541 15.8754 9.83627 15.4837 9.83821V8.53906L12.9616 10.4858L15.4837 12.4326V11.1361C15.7908 11.1348 16.0979 11.1646 16.3943 11.2269C16.9622 11.3459 17.5016 11.5781 17.9818 11.9102C18.4554 12.2368 18.863 12.6537 19.1823 13.138C19.678 13.8877 19.9424 14.7722 19.9411 15.6772C19.941 16.2846 19.8224 16.8857 19.5922 17.4456C19.4802 17.7152 19.3434 17.9734 19.1835 18.2165C19.0231 18.4581 18.8408 18.6839 18.6391 18.8907C18.0249 19.5177 17.2452 19.9478 16.3955 20.1282C15.8046 20.2502 15.1958 20.2502 14.605 20.1282C14.0368 20.0091 13.4971 19.7767 13.0168 19.4443C12.5438 19.118 12.1366 18.7016 11.8176 18.2178C11.3224 17.4673 11.0579 16.5826 11.0581 15.6772H9.78906C9.78974 16.8412 10.1297 17.9786 10.7656 18.9439C11.1766 19.5644 11.6995 20.0991 12.3061 20.5195C13.2488 21.172 14.3614 21.5197 15.4996 21.5176C15.8862 21.5175 16.2718 21.4777 16.6506 21.3988C17.3807 21.2446 18.0744 20.9459 18.6924 20.5195C18.9959 20.3104 19.2787 20.0715 19.537 19.8064C19.7955 19.5412 20.0292 19.2518 20.2349 18.942C20.8724 17.9782 21.2121 16.8408 21.2101 15.6772C21.2101 15.2819 21.1712 14.8875 21.094 14.5001Z" fill="black" stroke="black"/>
</svg>
