<svg width="48" height="49" viewBox="0 0 48 49" fill="none" xmlns="http://www.w3.org/2000/svg">
<path fill-rule="evenodd" clip-rule="evenodd" d="M10.3324 11.6074C9.13959 11.8436 8.24023 12.8957 8.24023 14.1579V37.1579C8.24023 38.5938 9.40429 39.7579 10.8402 39.7579H32.8402C34.1286 39.7579 35.1982 38.8207 35.4043 37.5909H34.172C33.9896 38.1521 33.4623 38.5579 32.8402 38.5579H10.8402C10.067 38.5579 9.44023 37.9311 9.44023 37.1579V14.1579C9.44023 13.5638 9.81027 13.0561 10.3324 12.8528V11.6074Z" fill="black"/>
<path d="M39.7626 14.0108C39.7626 20.9364 39.7626 27.8621 39.7626 34.7877C39.7472 34.8394 39.7263 34.8903 39.7179 34.9435C39.6106 35.6105 39.2859 36.1465 38.7675 36.5768C38.3648 36.9107 37.8889 37.058 37.3913 37.159C29.3357 37.159 21.2801 37.159 13.2245 37.159C13.1897 37.1459 13.155 37.1274 13.1188 37.1212C11.7503 36.8891 10.8555 35.8519 10.8547 34.4492C10.8501 26.6213 10.8486 18.7927 10.864 10.964C10.8648 10.5553 10.9643 10.1127 11.1394 9.74407C11.6331 8.70456 12.5179 8.2519 13.651 8.2519C20.3135 8.2519 26.976 8.25344 33.6385 8.24805C33.9733 8.24805 34.231 8.35369 34.4662 8.58966C36.0916 10.2245 37.7261 11.8508 39.3522 13.4849C39.5073 13.6414 39.6268 13.835 39.7626 14.0108ZM33.1965 9.59369C33.1965 9.6978 33.1965 9.80807 33.1965 9.91757C33.1965 12.3451 33.1996 14.7719 33.1927 17.1995C33.1919 17.4887 33.1772 17.7879 33.1032 18.0647C32.7638 19.334 31.8019 20.0697 30.4481 20.0735C26.5811 20.0828 22.7141 20.0782 18.8464 20.0758C17.9577 20.0751 17.2172 19.7527 16.661 19.0425C16.2545 18.5228 16.1064 17.9228 16.1064 17.2766C16.1064 14.8213 16.1064 12.3652 16.1064 9.90986C16.1064 9.80113 16.1064 9.6924 16.1064 9.59061C15.1367 9.59061 14.2057 9.55822 13.2792 9.60295C12.7069 9.63071 12.2849 10.0996 12.1954 10.664C12.1723 10.8121 12.1638 10.9632 12.1638 11.1136C12.1623 18.8374 12.1623 26.5619 12.1638 34.2857C12.1638 34.4446 12.17 34.6065 12.1985 34.7631C12.2942 35.2813 12.5958 35.6738 13.1041 35.7686C13.6487 35.8704 14.2165 35.845 14.7989 35.8766C14.7989 35.6961 14.7989 35.5851 14.7989 35.4733C14.7989 31.5219 14.7989 27.5706 14.7989 23.6193C14.7989 22.9144 15.0048 22.7062 15.7006 22.7062C22.0985 22.7062 28.4972 22.7062 34.8951 22.7062C35.6164 22.7062 35.8169 22.9067 35.8169 23.6277C35.8169 27.5791 35.8169 31.5304 35.8169 35.4818C35.8169 35.599 35.8169 35.7162 35.8169 35.8496C36.232 35.8496 36.5984 35.8511 36.964 35.8496C37.919 35.8457 38.452 35.3167 38.452 34.3621C38.4536 27.8043 38.4536 21.2472 38.4458 14.6894C38.4458 14.5498 38.3764 14.3748 38.2785 14.2761C36.7758 12.7585 35.2608 11.2524 33.7566 9.73713C33.5977 9.57673 33.4403 9.52583 33.1965 9.59369ZM16.1249 24.0303C16.1249 27.9839 16.1249 31.9029 16.1249 35.8257C22.2598 35.8257 28.3777 35.8257 34.4917 35.8257C34.4917 31.8821 34.4917 27.9631 34.4917 24.0303C28.3622 24.0303 22.252 24.0303 16.1249 24.0303ZM31.8566 9.58444C27.0323 9.58444 22.2389 9.58444 17.4355 9.58444C17.4293 9.68006 17.4208 9.75409 17.4208 9.82735C17.4201 12.3212 17.417 14.8143 17.4216 17.3082C17.4231 18.2328 17.9577 18.7587 18.8803 18.7595C22.7295 18.761 26.5788 18.7603 30.4272 18.7587C30.5769 18.7587 30.7304 18.7541 30.8746 18.7186C31.5026 18.5621 31.8713 18.0662 31.8728 17.3591C31.8775 14.8375 31.8744 12.3151 31.8736 9.79342C31.8736 9.72787 31.8636 9.66387 31.8566 9.58444Z" fill="black"/>
<path d="M30.5511 14.087C30.5511 14.9136 30.5534 15.7411 30.5504 16.5677C30.5488 17.1075 30.2973 17.3597 29.7558 17.3628C28.976 17.3666 28.1953 17.3659 27.4154 17.3628C26.8647 17.3605 26.6086 17.1052 26.6078 16.5469C26.6047 14.9021 26.6047 13.258 26.6078 11.6131C26.6086 11.0494 26.8531 10.798 27.4077 10.7934C28.1876 10.7872 28.9682 10.788 29.7481 10.7934C30.3143 10.7973 30.5496 11.0386 30.5511 11.6062C30.5527 12.4329 30.5511 13.2595 30.5511 14.087ZM27.9269 12.1205C27.9269 13.3891 27.9253 14.6291 27.9323 15.8691C27.9323 15.9292 28.0086 16.0395 28.0526 16.041C28.4437 16.0549 28.8348 16.0487 29.2228 16.0487C29.2228 14.7131 29.2228 13.4207 29.2228 12.1213C28.7908 12.1205 28.3797 12.1205 27.9269 12.1205Z" fill="black"/>
</svg>
