<svg width="48" height="48" viewBox="0 0 48 48" fill="none" xmlns="http://www.w3.org/2000/svg">
<path d="M37.344 38C35.9042 38 34.4643 38 33.0252 38C33.0252 33.3729 33.0252 28.7452 33.0252 24.1181C33.0252 23.599 32.7061 23.2397 32.2271 23.2397C29.4854 23.2384 26.7437 23.2411 24.002 23.2425L24.0081 23.2315C24.0074 21.7415 24.0068 20.2508 24.0061 18.7608C25.6003 18.7587 27.1945 18.7566 28.7881 18.7546C29.4332 18.7539 29.7448 18.4453 29.7448 17.8049C29.7455 15.2089 29.7448 12.6121 29.7448 10.0161C30.7076 10.012 31.6712 10.0195 32.634 10.0003C32.9998 9.99278 33.2736 10.1176 33.5269 10.3733C34.8583 11.7166 36.1972 13.0517 37.5361 14.386C37.7166 14.5657 37.8868 14.7494 37.9994 14.9812C37.9994 22.4354 37.9994 29.8896 37.9994 37.3431C37.8985 37.6791 37.6789 37.8978 37.344 38Z" fill="#2891FB"/>
<path d="M24.005 18.7599C24.0057 20.25 24.0064 21.7407 24.007 23.2307C21.3491 23.2327 18.6918 23.2348 16.0338 23.2369C15.2672 23.2375 14.9824 23.5228 14.9824 24.2908C14.9824 28.8602 14.9824 33.4297 14.9824 37.9992C13.5248 37.9992 12.0664 37.9992 10.6087 37.9992C10.1359 37.7784 9.99932 37.4019 10 36.8925C10.0103 28.2939 10.0076 19.6959 10.0076 11.0973C10.0076 11.0061 10.0048 10.9149 10.0089 10.8244C10.0309 10.3574 10.363 10.0125 10.8325 10.0105C12.2167 10.0036 13.6009 10.0118 14.9852 10.0146C14.9845 12.6278 14.9824 15.2416 14.9838 17.8548C14.9838 18.4096 15.3166 18.7524 15.8609 18.7524C18.5744 18.7538 21.288 18.751 24.0009 18.7497L24.005 18.7599Z" fill="#72A2FB"/>
<path d="M14.9824 37.9999C14.9824 33.4305 14.9824 28.861 14.9824 24.2915C14.9824 23.5229 15.2672 23.2383 16.0338 23.2376C18.6918 23.2356 21.3491 23.2335 24.007 23.2314L24.0009 23.2424C24.0016 24.3306 24.0029 25.4181 24.0036 26.5063C22.546 26.5104 21.089 26.5139 19.6313 26.518C19.4309 26.5187 19.2298 26.5091 19.0301 26.5235C18.5943 26.5557 18.2642 26.9129 18.2642 27.3381C18.2642 27.7632 18.5943 28.117 19.0301 28.1541C19.1386 28.163 19.2484 28.1582 19.3582 28.1582C20.9064 28.1623 22.4554 28.1664 24.0036 28.1698C24.0036 28.7088 24.0036 29.2477 24.0036 29.7867C22.546 29.7908 21.089 29.7942 19.6313 29.7983C19.4309 29.799 19.2298 29.7894 19.0301 29.8038C18.5943 29.8361 18.2642 30.1933 18.2642 30.6184C18.2642 31.0436 18.5943 31.3974 19.0301 31.4344C19.1386 31.4433 19.2484 31.4385 19.3582 31.4385C20.9064 31.4426 22.4554 31.4468 24.0036 31.4502C24.0036 31.9891 24.0036 32.5281 24.0036 33.0671C22.546 33.0712 21.089 33.0746 19.6313 33.0787C19.4309 33.0794 19.2298 33.0698 19.0301 33.0842C18.5943 33.1164 18.2642 33.4737 18.2642 33.8988C18.2642 34.3239 18.5943 34.6778 19.0301 34.7148C19.1386 34.7237 19.2484 34.7189 19.3582 34.7189C20.9064 34.723 22.4554 34.7271 24.0036 34.7306C24.0036 35.8201 24.0029 36.9097 24.0029 37.9993C20.9963 37.9999 17.9897 37.9999 14.9824 37.9999Z" fill="#F8F8F8"/>
<path d="M24.0047 29.7866C24.0047 29.2477 24.0047 28.7087 24.0047 28.1698L24.004 28.1478C25.6614 28.1506 27.3188 28.1588 28.9761 28.1533C29.4064 28.1519 29.7393 27.783 29.7448 27.351C29.7503 26.904 29.4174 26.5234 28.9761 26.522C27.3188 26.5159 25.6614 26.5241 24.004 26.5275L24.0047 26.5056C24.004 25.4174 24.0026 24.3299 24.002 23.2417C26.7437 23.2403 29.4854 23.2369 32.2271 23.2389C32.7061 23.2389 33.0252 23.5989 33.0252 24.1173C33.0259 28.7444 33.0252 33.3721 33.0252 37.9992C30.0179 37.9992 27.0113 37.9992 24.004 37.9992C24.004 36.9096 24.0047 35.8201 24.0047 34.7305L24.004 34.7085C25.6614 34.7113 27.3188 34.7195 28.9761 34.714C29.4064 34.7127 29.7393 34.3438 29.7448 33.9118C29.7503 33.4647 29.4174 33.0841 28.9761 33.0828C27.3188 33.0766 25.6614 33.0848 24.004 33.0882L24.0047 33.0663C24.0047 32.5274 24.0047 31.9884 24.0047 31.4494L24.004 31.4275C25.6614 31.4302 27.3188 31.4385 28.9761 31.433C29.4064 31.4316 29.7393 31.0627 29.7448 30.6307C29.7503 30.1836 29.4174 29.8031 28.9761 29.8017C27.3188 29.7955 25.6614 29.8038 24.004 29.8072L24.0047 29.7866Z" fill="#DEE3E9"/>
<path d="M24.0041 10.0146C25.9168 10.0146 27.8301 10.0146 29.7428 10.0146C29.7428 12.6107 29.7435 15.2074 29.7428 17.8035C29.7428 18.4439 29.4312 18.7525 28.7861 18.7531C27.1919 18.7552 25.5977 18.7573 24.0041 18.7593L24 18.749C24.0021 15.8383 24.0027 12.9268 24.0041 10.0146Z" fill="#3545E2"/>
<path d="M24.0041 10.0144C24.0027 12.9259 24.0013 15.838 24 18.7495C21.2864 18.7509 18.5728 18.7536 15.86 18.7516C15.3157 18.7516 14.9829 18.4087 14.9829 17.854C14.9815 15.2408 14.9836 12.6276 14.9843 10.0144C16.8887 10.0117 18.7924 10.0069 20.6969 10.0069C21.7997 10.0062 22.9019 10.0117 24.0041 10.0144Z" fill="#5458E9"/>
<path d="M24.005 28.1698C22.4568 28.1657 20.9078 28.1623 19.3596 28.1582C19.2504 28.1582 19.1406 28.163 19.0315 28.1541C18.5957 28.117 18.2656 27.7632 18.2656 27.3381C18.2656 26.913 18.5957 26.5557 19.0315 26.5235C19.2312 26.5091 19.4323 26.5187 19.6327 26.518C21.0904 26.5139 22.5473 26.5098 24.005 26.5063L24.0043 26.5283C24.0043 27.0686 24.0043 27.6089 24.0043 28.1486L24.005 28.1698Z" fill="#F9D457"/>
<path d="M24.005 31.4501C22.4568 31.446 20.9078 31.4426 19.3596 31.4385C19.2504 31.4385 19.1406 31.4433 19.0315 31.4343C18.5957 31.3973 18.2656 31.0435 18.2656 30.6184C18.2656 30.1932 18.5957 29.836 19.0315 29.8038C19.2312 29.7894 19.4323 29.799 19.6327 29.7983C21.0904 29.7942 22.5473 29.79 24.005 29.7866L24.0043 29.8086C24.0043 30.3489 24.0043 30.8892 24.0043 31.4289L24.005 31.4501Z" fill="#F9D457"/>
<path d="M24.005 34.7314C22.4568 34.7273 20.9078 34.7238 19.3596 34.7197C19.2504 34.7197 19.1406 34.7245 19.0315 34.7156C18.5957 34.6786 18.2656 34.3248 18.2656 33.8996C18.2656 33.4745 18.5957 33.1172 19.0315 33.085C19.2312 33.0706 19.4323 33.0802 19.6327 33.0795C21.0904 33.0754 22.5473 33.0713 24.005 33.0679L24.0043 33.0898C24.0043 33.6301 24.0043 34.1705 24.0043 34.7101L24.005 34.7314Z" fill="#F9D457"/>
<path d="M24.0039 28.1486C24.0039 27.6083 24.0039 27.068 24.0039 26.5283C25.6613 26.5256 27.3187 26.5174 28.976 26.5228C29.4173 26.5242 29.7495 26.9048 29.7447 27.3518C29.7399 27.7838 29.407 28.1527 28.976 28.1541C27.3187 28.1596 25.6613 28.1514 24.0039 28.1486Z" fill="#FBB02B"/>
<path d="M24.0039 31.4289C24.0039 30.8886 24.0039 30.3482 24.0039 29.8086C25.6613 29.8059 27.3187 29.7976 28.976 29.8031C29.4173 29.8045 29.7495 30.185 29.7447 30.6321C29.7399 31.0641 29.407 31.433 28.976 31.4344C27.3187 31.4399 25.6613 31.4316 24.0039 31.4289Z" fill="#FBB02B"/>
<path d="M24.0039 34.7097C24.0039 34.1693 24.0039 33.629 24.0039 33.0894C25.6613 33.0866 27.3187 33.0784 28.976 33.0839C29.4173 33.0852 29.7495 33.4658 29.7447 33.9129C29.7399 34.3449 29.407 34.7138 28.976 34.7151C27.3187 34.7206 25.6613 34.7124 24.0039 34.7097Z" fill="#FBB02B"/>
</svg>
