<svg width="43" height="43" viewBox="0 0 43 43" fill="none" xmlns="http://www.w3.org/2000/svg">
<path d="M21.4701 35.4984C17.0286 35.4984 12.5862 35.4977 8.14465 35.5008C7.88828 35.5008 7.64984 35.4867 7.53764 35.2109C7.42699 34.9382 7.57815 34.7558 7.75971 34.5743C16.7021 25.6335 25.6436 16.6919 34.5836 7.74801C34.7668 7.56489 34.953 7.42541 35.2234 7.54385C35.4836 7.65762 35.5 7.88359 35.5 8.12982C35.4977 17.0426 35.4977 25.9561 35.4977 34.8688C35.4977 35.3652 35.3613 35.4984 34.8532 35.4984C30.3922 35.4984 25.9312 35.4984 21.4701 35.4984ZM9.1553 34.5462C17.6363 34.5462 26.094 34.5462 34.5431 34.5462C34.5431 33.9189 34.5431 33.3135 34.5431 32.6862C33.9205 32.6862 33.3213 32.6862 32.7221 32.6862C32.7221 32.3691 32.7221 32.0745 32.7221 31.7589C33.3423 31.7589 33.9416 31.7589 34.5486 31.7589C34.5486 31.4418 34.5486 31.1473 34.5486 30.82C34.2353 30.82 33.94 30.82 33.6501 30.82C33.6501 30.4997 33.6501 30.2122 33.6501 29.8927C33.961 29.8927 34.2564 29.8927 34.5431 29.8927C34.5431 29.5647 34.5431 29.2701 34.5431 28.9537C33.9205 28.9537 33.3221 28.9537 32.7213 28.9537C32.7213 28.6366 32.7213 28.3421 32.7213 28.0265C33.3416 28.0265 33.9408 28.0265 34.5486 28.0265C34.5486 27.7093 34.5486 27.4148 34.5486 27.0875C34.2361 27.0875 33.9408 27.0875 33.6493 27.0875C33.6493 26.7672 33.6493 26.4797 33.6493 26.1602C33.9595 26.1602 34.2548 26.1602 34.5431 26.1602C34.5431 25.8322 34.5431 25.5376 34.5431 25.2213C33.9213 25.2213 33.3221 25.2213 32.7205 25.2213C32.7205 24.9041 32.7205 24.6096 32.7205 24.294C33.34 24.294 33.9392 24.294 34.5486 24.294C34.5486 23.9769 34.5486 23.6823 34.5486 23.355C34.2361 23.355 33.9408 23.355 33.6486 23.355C33.6486 23.0348 33.6486 22.7472 33.6486 22.4278C33.9587 22.4278 34.254 22.4278 34.5431 22.4278C34.5431 22.0997 34.5431 21.8052 34.5431 21.4888C33.9213 21.4888 33.3229 21.4888 32.7197 21.4888C32.7197 21.1717 32.7197 20.8779 32.7197 20.5615C33.3392 20.5615 33.9384 20.5615 34.5486 20.5615C34.5486 20.2444 34.5486 19.9498 34.5486 19.6226C34.2369 19.6226 33.9416 19.6226 33.6478 19.6226C33.6478 19.3023 33.6478 19.0148 33.6478 18.6953C33.9571 18.6953 34.2532 18.6953 34.5431 18.6953C34.5431 18.3672 34.5431 18.0727 34.5431 17.7563C33.9221 17.7563 33.3229 17.7563 32.719 17.7563C32.719 17.4392 32.719 17.1454 32.719 16.8189C33.3447 16.8189 33.9509 16.8189 34.5423 16.8189C34.5423 14.2475 34.5423 11.7088 34.5423 9.17944C33.4662 10.2555 32.3964 11.3254 31.2688 12.4529C31.7683 12.9353 32.2818 13.4316 32.7439 13.8781C32.5397 14.1104 32.3434 14.3332 32.1158 14.5927C31.6054 14.0784 31.1083 13.5781 30.6229 13.0896C30.4156 13.2891 30.2067 13.4893 29.9356 13.7496C30.248 14.0215 30.5512 14.2849 30.7951 14.4968C30.5527 14.7602 30.3509 14.9784 30.1008 15.2504C29.8374 14.9597 29.5717 14.6667 29.3247 14.3932C29.0948 14.6176 28.8875 14.8194 28.6327 15.068C29.1384 15.5683 29.6441 16.0693 30.1374 16.5571C29.927 16.7784 29.7267 16.9888 29.4758 17.2522C28.9725 16.727 28.4792 16.2127 27.9969 15.7101C27.76 15.9392 27.5527 16.1402 27.319 16.367C27.6174 16.6436 27.9088 16.9148 28.1769 17.1626C27.9447 17.4119 27.7366 17.6355 27.5021 17.888C27.2262 17.5888 26.9566 17.2966 26.7338 17.0542C26.486 17.2763 26.2639 17.4743 25.9834 17.7259C26.4992 18.2223 27.0073 18.7117 27.4935 19.1792C27.2784 19.4005 27.0719 19.6117 26.8273 19.8633C26.334 19.3584 25.8408 18.8535 25.3444 18.3454C25.1278 18.5628 24.9236 18.7678 24.6649 19.0272C24.9673 19.293 25.2696 19.5587 25.5564 19.8096C25.2984 20.062 25.0865 20.2685 24.8239 20.5257C24.5745 20.2436 24.3127 19.9475 24.0751 19.6787C23.8241 19.9078 23.606 20.1072 23.348 20.3426C23.8631 20.8514 24.3657 21.3478 24.8589 21.8348C24.6486 22.0436 24.4374 22.2532 24.1865 22.5026C23.6917 22.0031 23.1899 21.4966 22.7317 21.0345C22.5166 21.2418 22.3086 21.4413 22.0662 21.6743C22.3382 21.9361 22.6226 22.2096 22.8976 22.4745C22.6678 22.6974 22.4551 22.9046 22.2104 23.1423C21.9493 22.8704 21.6758 22.5859 21.4062 22.3039C21.1826 22.5376 20.9784 22.7496 20.7369 23.002C21.2278 23.4828 21.7327 23.9776 22.2376 24.4717C22.021 24.693 21.8122 24.9057 21.5995 25.1231C21.0906 24.6127 20.5912 24.1117 20.0925 23.6114C19.8587 23.8413 19.646 24.0501 19.3662 24.3252C19.674 24.5995 19.974 24.8675 20.2086 25.0763C19.9904 25.3202 19.7932 25.5408 19.5517 25.8111C19.2782 25.5197 19.0078 25.2322 18.7608 24.9688C18.5457 25.1862 18.3423 25.3911 18.1156 25.6187C18.6026 26.1018 19.1036 26.5989 19.6125 27.1039C19.3834 27.3283 19.1706 27.5356 18.908 27.7927C18.4086 27.2893 17.906 26.7844 17.4197 26.295C17.2062 26.5031 17.0005 26.7041 16.7628 26.9363C17.055 27.2083 17.3457 27.4787 17.606 27.721C17.3737 27.961 17.1626 28.18 16.9101 28.4418C16.6499 28.1558 16.3841 27.8636 16.134 27.5878C15.9026 27.8114 15.6945 28.0124 15.4693 28.2298C15.9743 28.7293 16.4761 29.2257 16.988 29.7314C16.7457 29.9652 16.5322 30.1717 16.2828 30.4124C15.7873 29.9137 15.2839 29.408 14.8054 28.9265C14.5857 29.1454 14.3815 29.3488 14.1384 29.5904C14.4189 29.8421 14.7135 30.1062 15.0213 30.3821C14.7626 30.6244 14.5452 30.8286 14.2608 31.095C14.0192 30.8114 13.7574 30.5052 13.4917 30.1935C13.2384 30.4491 13.035 30.6548 12.7849 30.9065C13.2914 31.4091 13.7979 31.9124 14.2771 32.3886C14.0784 32.6044 13.8774 32.8241 13.6576 33.0634C13.1449 32.5452 12.6462 32.0418 12.1545 31.5454C11.1579 32.5428 10.1691 33.5325 9.1553 34.5462Z" fill="black"/>
<path d="M24.7818 30.8324C22.9841 30.8324 21.1865 30.8309 19.3888 30.8348C19.1418 30.8356 18.9205 30.8114 18.8067 30.5519C18.6852 30.2753 18.8387 30.0945 19.0187 29.9145C22.6545 26.2802 26.2896 22.6452 29.9231 19.0085C30.0961 18.8355 30.2738 18.6922 30.5371 18.7989C30.7966 18.9041 30.8364 19.1192 30.8356 19.3709C30.8317 22.9857 30.8332 26.6013 30.8332 30.2161C30.8332 30.6945 30.6922 30.8324 30.2052 30.8324C28.3966 30.8324 26.5888 30.8324 24.7818 30.8324ZM29.8912 20.5249C26.7766 23.6395 23.6325 26.7828 20.5327 29.8818C23.5951 29.8818 26.7384 29.8818 29.8912 29.8818C29.8912 26.7267 29.8912 23.5904 29.8912 20.5249Z" fill="black"/>
</svg>
