<svg width="43" height="43" viewBox="0 0 43 43" fill="none" xmlns="http://www.w3.org/2000/svg">
<path d="M35.4999 14.2264C35.3382 14.6751 35.014 14.9985 34.6856 15.3261C28.2643 21.7458 21.8456 28.1672 15.4276 34.5902C15.0702 34.9485 14.7286 35.3234 14.2344 35.5C14.0337 35.5 13.8339 35.5 13.6332 35.5C13.1506 35.3225 12.8098 34.9609 12.4583 34.6077C10.9865 33.1282 9.508 31.6553 8.03369 30.1783C7.31976 29.4626 7.32225 28.6689 8.04033 27.9516C14.6797 21.3162 21.3198 14.6825 27.9567 8.04551C28.3871 7.61509 28.8738 7.37045 29.4783 7.57114C29.7187 7.65158 29.9592 7.80335 30.14 7.98248C31.7793 9.60379 33.4103 11.2334 35.0289 12.8754C35.2312 13.0803 35.3448 13.373 35.499 13.6251C35.4999 13.8258 35.4999 14.0265 35.4999 14.2264ZM11.7402 25.2654C10.6125 26.38 9.50634 27.4639 8.41346 28.5603C8.08676 28.8879 8.12905 29.3141 8.48726 29.6732C10.1034 31.2912 11.7203 32.9084 13.338 34.5247C13.7352 34.9211 14.1523 34.9228 14.5511 34.5239C21.2004 27.8744 27.8481 21.2242 34.4957 14.5722C34.9294 14.1385 34.9269 13.723 34.4982 13.2942C33.1715 11.9665 31.8448 10.6388 30.5173 9.31187C30.2146 9.00917 29.9161 8.70233 29.6076 8.4046C29.3307 8.13756 28.9012 8.08283 28.6416 8.32582C28.2386 8.70233 27.8721 9.11781 27.4808 9.5275C28.266 10.3112 29.0662 11.1082 29.8655 11.906C29.9236 11.964 29.9849 12.0196 30.0347 12.0843C30.1499 12.2327 30.1574 12.3886 30.0239 12.5288C29.8804 12.6797 29.7171 12.6698 29.5587 12.5504C29.494 12.5014 29.4393 12.4384 29.3813 12.3803C28.6789 11.6779 27.975 10.9771 27.2768 10.2714C27.1822 10.176 27.1134 10.0541 27.0471 9.96454C26.6955 10.3153 26.4036 10.6073 26.1001 10.9091C26.1557 10.9672 26.2229 11.0402 26.2925 11.1098C26.5943 11.4134 26.8995 11.7144 27.1988 12.0204C27.3481 12.1738 27.3647 12.3563 27.2171 12.5081C27.0678 12.6623 26.8887 12.6399 26.7295 12.4989C26.6549 12.4326 26.5861 12.3588 26.5156 12.2883C26.2079 11.9806 25.9003 11.6729 25.6184 11.3918C25.305 11.7061 25.0106 12.0013 24.7071 12.3049C25.4899 13.0869 26.2892 13.8847 27.0877 14.6834C27.373 14.9686 27.4161 15.132 27.2519 15.3062C27.0769 15.4911 26.9036 15.4513 26.6093 15.1569C25.8116 14.3583 25.0139 13.5588 24.2311 12.7759C23.926 13.0803 23.63 13.3747 23.3232 13.6799C23.3638 13.723 23.4235 13.7893 23.4865 13.8532C23.795 14.1634 24.1068 14.4702 24.4127 14.7829C24.567 14.9404 24.6059 15.1279 24.436 15.2888C24.2701 15.4463 24.086 15.4065 23.9268 15.2514C23.8224 15.1494 23.7204 15.0458 23.6175 14.9429C23.3497 14.6759 23.0827 14.408 22.8481 14.1733C22.5263 14.4851 22.2344 14.7688 21.931 15.064C21.9915 15.1279 22.0578 15.2008 22.1275 15.2705C22.4359 15.5807 22.7486 15.8867 23.0537 16.2002C23.198 16.3486 23.2336 16.5261 23.0811 16.687C22.931 16.8462 22.7577 16.8288 22.596 16.692C22.5404 16.6447 22.4898 16.5924 22.4384 16.5402C22.1068 16.2018 21.7767 15.8635 21.4757 15.5558C21.1557 15.8726 20.8555 16.1687 20.5512 16.4689C21.1333 17.0519 21.732 17.6506 22.3306 18.2502C22.5752 18.4949 22.824 18.7362 23.0636 18.9858C23.2021 19.1301 23.2187 19.3001 23.0786 19.4503C22.9293 19.6111 22.7577 19.5987 22.5943 19.4594C22.5388 19.4121 22.4898 19.3574 22.4384 19.306C21.7038 18.5712 20.9699 17.8364 20.2353 17.1025C20.1739 17.0411 20.1067 16.9855 20.0835 16.964C19.7668 17.2667 19.4674 17.552 19.1341 17.8704C19.4981 18.2212 19.8688 18.5712 20.2295 18.9311C20.4392 19.1409 20.4135 19.4527 20.1756 19.5066C20.0454 19.5357 19.848 19.476 19.746 19.3831C19.3696 19.0414 19.0205 18.6699 18.6805 18.3282C18.3688 18.6384 18.0744 18.9311 17.7626 19.2404C18.1109 19.5863 18.4724 19.9429 18.8306 20.3045C19.0313 20.5068 19.0586 20.705 18.9168 20.8551C18.7709 21.0102 18.557 20.9828 18.3489 20.7755C17.989 20.4164 17.6316 20.0532 17.2784 19.6974C16.9691 20.0092 16.6755 20.3061 16.3729 20.6113C16.4226 20.6635 16.484 20.7299 16.547 20.7937C17.2875 21.5352 18.0288 22.2757 18.7684 23.018C18.8389 23.0885 18.9442 23.1606 18.9575 23.2435C18.9774 23.3721 18.9757 23.5562 18.8994 23.6325C18.824 23.7071 18.6416 23.6997 18.5114 23.6823C18.4367 23.6723 18.3696 23.5769 18.3057 23.5131C17.5636 22.7733 16.824 22.0319 16.0827 21.2905C16.0138 21.2217 15.9417 21.1562 15.9201 21.1354C15.6067 21.4481 15.3148 21.74 15.0105 22.0435C15.3389 22.3694 15.6921 22.7236 16.0503 23.0744C16.1871 23.2079 16.256 23.3563 16.1681 23.5388C16.0595 23.7644 15.7974 23.776 15.576 23.5587C15.2128 23.2013 14.858 22.8355 14.5321 22.5063C14.2178 22.8206 13.9201 23.1191 13.62 23.4194C13.9707 23.7702 14.3447 24.1434 14.717 24.5182C14.8737 24.6766 14.9118 24.8607 14.7477 25.0241C14.5835 25.1875 14.4002 25.1452 14.241 24.9909C14.1689 24.9213 14.0976 24.8508 14.0279 24.7786C13.7278 24.466 13.4284 24.1525 13.1548 23.8672C12.8215 24.1997 12.5287 24.4933 12.2137 24.8076C12.5022 25.0896 12.8115 25.3848 13.1142 25.6867C13.6573 26.2266 14.1996 26.7665 14.7361 27.3122C14.9235 27.5029 14.9293 27.6937 14.7667 27.8371C14.5851 27.998 14.416 27.9408 14.2618 27.789C14.1191 27.6489 13.9773 27.5062 13.8364 27.3644C13.139 26.6653 12.4384 25.9637 11.7402 25.2654Z" fill="black"/>
<path d="M12.4096 32.2247C11.5015 32.223 10.7866 31.5006 10.7899 30.5882C10.7932 29.6982 11.5131 28.9783 12.4063 28.9716C13.2994 28.965 14.0483 29.7065 14.0516 30.5998C14.0558 31.4915 13.3127 32.2263 12.4096 32.2247ZM13.365 30.5857C13.36 30.0599 12.9345 29.6418 12.4071 29.6443C11.8871 29.6468 11.4526 30.0814 11.4517 30.5998C11.4501 31.1083 11.8979 31.5586 12.4071 31.562C12.9354 31.5661 13.3699 31.1232 13.365 30.5857Z" fill="black"/>
</svg>
