<svg width="847" height="242" viewBox="0 0 847 242" fill="none" xmlns="http://www.w3.org/2000/svg">
<g style="mix-blend-mode:multiply">
<g opacity="0.73" filter="url(#filter0_b_4467_117516)">
<path d="M19.6406 -18.616L0.878906 86.6055L872.001 241.933L890.763 136.711L19.6406 -18.616Z" fill="#A3A4A4"/>
</g>
</g>
<path style="mix-blend-mode:multiply" opacity="0.2" d="M19.3187 -23L0 85.5566L871.12 240.834L890.52 132.277L19.3187 -23ZM867.402 235.66L5.33487 82.0808L23.037 -17.6651L885.185 135.915L867.402 235.66Z" fill="url(#paint0_linear_4467_117516)"/>
<path d="M35.1366 -15.5163L29.1914 17.8262L30.7034 18.0958L36.6486 -15.2467L35.1366 -15.5163Z" fill="white"/>
<path d="M68.3827 -9.59638L62.4375 23.7461L63.9494 24.0157L69.8947 -9.32679L68.3827 -9.59638Z" fill="white"/>
<path d="M101.773 -3.58075L95.8281 29.7617L97.3401 30.0313L103.285 -3.31116L101.773 -3.58075Z" fill="white"/>
<path d="M135.195 2.26104L129.25 35.6035L130.762 35.8731L136.707 2.53063L135.195 2.26104Z" fill="white"/>
<path d="M168.508 8.25908L162.562 41.6016L164.074 41.8712L170.02 8.52868L168.508 8.25908Z" fill="white"/>
<path d="M201.836 14.1946L195.891 47.5371L197.403 47.8067L203.348 14.4642L201.836 14.1946Z" fill="white"/>
<path d="M235.18 20.1165L229.234 53.459L230.746 53.7286L236.692 20.3861L235.18 20.1165Z" fill="white"/>
<path d="M268.57 26.1302L262.625 59.4727L264.137 59.7422L270.082 26.3998L268.57 26.1302Z" fill="white"/>
<path d="M301.894 31.972L295.949 65.3145L297.461 65.584L303.406 32.2416L301.894 31.972Z" fill="white"/>
<path d="M335.223 37.9876L329.277 71.3301L330.789 71.5997L336.735 38.2572L335.223 37.9876Z" fill="white"/>
<path d="M368.551 43.9075L362.605 77.25L364.117 77.5196L370.063 44.1771L368.551 43.9075Z" fill="white"/>
<path d="M403.401 52.1742L397.305 85.3652L398.81 85.6417L404.906 52.4507L403.401 52.1742Z" fill="white"/>
<path d="M435.285 55.8275L429.34 89.1699L430.852 89.4395L436.797 56.0971L435.285 55.8275Z" fill="white"/>
<path d="M468.687 61.6849L462.742 95.0273L464.254 95.2969L470.199 61.9545L468.687 61.6849Z" fill="white"/>
<path d="M502 67.6986L496.055 101.041L497.567 101.311L503.512 67.9681L502 67.6986Z" fill="white"/>
<path d="M535.344 73.6184L529.398 106.961L530.91 107.231L536.856 73.888L535.344 73.6184Z" fill="white"/>
<path d="M568.734 79.6341L562.789 112.977L564.301 113.246L570.246 79.9037L568.734 79.6341Z" fill="white"/>
<path d="M604.186 88.8637L598.09 122.055L599.595 122.331L605.691 89.1401L604.186 88.8637Z" fill="white"/>
<path d="M635.387 91.474L629.441 124.816L630.953 125.086L636.899 91.7436L635.387 91.474Z" fill="white"/>
<path d="M668.715 97.3958L662.77 130.738L664.281 131.008L670.227 97.6654L668.715 97.3958Z" fill="white"/>
<path d="M702.121 103.331L696.176 136.674L697.688 136.943L703.633 103.601L702.121 103.331Z" fill="white"/>
<path d="M735.449 109.329L729.504 142.672L731.016 142.941L736.961 109.599L735.449 109.329Z" fill="white"/>
<path d="M768.777 115.267L762.832 148.609L764.344 148.879L770.289 115.536L768.777 115.267Z" fill="white"/>
<path d="M802.086 121.265L796.141 154.607L797.653 154.877L803.598 121.535L802.086 121.265Z" fill="white"/>
<path d="M835.508 127.122L829.562 160.465L831.074 160.734L837.02 127.392L835.508 127.122Z" fill="white"/>
<path d="M48.4251 -13.1676L44.8672 6.80664L46.3792 7.07597L49.9371 -12.8983L48.4251 -13.1676Z" fill="white"/>
<path d="M41.7021 -14.2881L38.1406 5.68555L39.6526 5.95514L43.214 -14.0185L41.7021 -14.2881Z" fill="white"/>
<path d="M55.1517 -11.8727L51.5938 8.10156L53.1057 8.37089L56.6637 -11.6034L55.1517 -11.8727Z" fill="white"/>
<path d="M61.7372 -10.7666L58.1758 9.20703L59.6877 9.47662L63.2492 -10.497L61.7372 -10.7666Z" fill="white"/>
<path d="M68.4638 -9.55178L64.9023 10.4219L66.4143 10.6915L69.9757 -9.28219L68.4638 -9.55178Z" fill="white"/>
<path d="M75.1083 -8.35256L71.5469 11.6211L73.0588 11.8907L76.6203 -8.08297L75.1083 -8.35256Z" fill="white"/>
<path d="M81.7568 -7.16702L78.1953 12.8066L79.7073 13.0762L83.2687 -6.89742L81.7568 -7.16702Z" fill="white"/>
<path d="M88.4169 -6.03029L84.8555 13.9434L86.3674 14.213L89.9289 -5.7607L88.4169 -6.03029Z" fill="white"/>
<path d="M95.1244 -4.75357L91.5664 15.2207L93.0784 15.49L96.6364 -4.48425L95.1244 -4.75357Z" fill="white"/>
<path d="M101.71 -3.63186L98.1484 16.3418L99.6604 16.6114L103.222 -3.36227L101.71 -3.63186Z" fill="white"/>
<path d="M108.436 -2.43069L104.875 17.543L106.387 17.8126L109.948 -2.1611L108.436 -2.43069Z" fill="white"/>
<path d="M115.085 -1.23147L111.523 18.7422L113.035 19.0118L116.597 -0.961876L115.085 -1.23147Z" fill="white"/>
<path d="M121.808 -0.0166244L118.246 19.957L119.758 20.2266L123.319 0.252967L121.808 -0.0166244Z" fill="white"/>
<path d="M128.452 1.16635L124.895 21.1406L126.407 21.41L129.964 1.43568L128.452 1.16635Z" fill="white"/>
<path d="M135.101 2.36814L131.539 22.3418L133.051 22.6114L136.612 2.63773L135.101 2.36814Z" fill="white"/>
<path d="M141.843 3.50486L138.281 23.4785L139.793 23.7481L143.355 3.77445L141.843 3.50486Z" fill="white"/>
<path d="M148.374 4.76596L144.816 24.7402L146.328 25.0096L149.886 5.03528L148.374 4.76596Z" fill="white"/>
<path d="M155.136 5.9033L151.574 25.877L153.086 26.1465L156.648 6.17289L155.136 5.9033Z" fill="white"/>
<path d="M161.784 7.10447L158.223 27.0781L159.735 27.3477L163.296 7.37406L161.784 7.10447Z" fill="white"/>
<path d="M168.488 8.30307L164.93 28.2773L166.442 28.5467L170 8.57239L168.488 8.30307Z" fill="white"/>
<path d="M175.718 10.5097L172.066 30.3926L173.571 30.669L177.223 10.7861L175.718 10.5097Z" fill="white"/>
<path d="M181.781 10.6078L178.223 30.582L179.735 30.8514L183.293 10.8771L181.781 10.6078Z" fill="white"/>
<path d="M188.507 11.9027L184.949 31.877L186.461 32.1463L190.019 12.172L188.507 11.9027Z" fill="white"/>
<path d="M195.089 13.0081L191.531 32.9824L193.043 33.2517L196.601 13.2775L195.089 13.0081Z" fill="white"/>
<path d="M201.851 14.1455L198.289 34.1191L199.801 34.3887L203.362 14.4151L201.851 14.1455Z" fill="white"/>
<path d="M208.499 15.4404L204.938 35.4141L206.449 35.6837L210.011 15.71L208.499 15.4404Z" fill="white"/>
<path d="M215.187 16.5433L211.629 36.5176L213.141 36.7869L216.699 16.8126L215.187 16.5433Z" fill="white"/>
<path d="M221.835 17.807L218.277 37.7812L219.789 38.0506L223.347 18.0763L221.835 17.807Z" fill="white"/>
<path d="M229.363 20.2499L225.711 40.1328L227.216 40.4093L230.868 20.5263L229.363 20.2499Z" fill="white"/>
<path d="M235.206 20.1429L231.648 40.1172L233.16 40.3865L236.718 20.4122L235.206 20.1429Z" fill="white"/>
<path d="M241.823 21.3447L238.262 41.3184L239.774 41.588L243.335 21.6143L241.823 21.3447Z" fill="white"/>
<path d="M248.472 22.5595L244.91 42.5332L246.422 42.8028L249.984 22.8291L248.472 22.5595Z" fill="white"/>
<path d="M256.14 25.1132L252.488 44.9961L253.993 45.2725L257.645 25.3896L256.14 25.1132Z" fill="white"/>
<path d="M261.765 24.9599L258.203 44.9336L259.715 45.2032L263.277 25.2295L261.765 24.9599Z" fill="white"/>
<path d="M268.535 26.0648L264.977 46.0391L266.489 46.3084L270.047 26.3341L268.535 26.0648Z" fill="white"/>
<path d="M275.179 27.3421L271.621 47.3164L273.133 47.5857L276.691 27.6115L275.179 27.3421Z" fill="white"/>
<path d="M281.878 28.4951L278.316 48.4688L279.828 48.7383L283.39 28.7647L281.878 28.4951Z" fill="white"/>
<path d="M288.522 29.6807L284.961 49.6543L286.473 49.9239L290.034 29.9502L288.522 29.6807Z" fill="white"/>
<path d="M295.171 30.8017L291.609 50.7754L293.121 51.045L296.683 31.0713L295.171 30.8017Z" fill="white"/>
<path d="M301.897 32.0947L298.336 52.0684L299.848 52.338L303.409 32.3643L301.897 32.0947Z" fill="white"/>
<path d="M308.507 33.1839L304.949 53.1582L306.461 53.4275L310.019 33.4533L308.507 33.1839Z" fill="white"/>
<path d="M315.136 34.4632L311.578 54.4375L313.09 54.7068L316.648 34.7326L315.136 34.4632Z" fill="white"/>
<path d="M321.851 35.6162L318.289 55.5898L319.801 55.8594L323.362 35.8858L321.851 35.6162Z" fill="white"/>
<path d="M328.577 36.8154L325.016 56.7891L326.528 57.0587L330.089 37.085L328.577 36.8154Z" fill="white"/>
<path d="M335.237 38.0166L331.676 57.9902L333.188 58.2598L336.749 38.2862L335.237 38.0166Z" fill="white"/>
<path d="M341.898 39.1996L338.34 59.1738L339.852 59.4432L343.41 39.4689L341.898 39.1996Z" fill="white"/>
<path d="M348.542 40.3988L344.984 60.373L346.496 60.6424L350.054 40.6681L348.542 40.3988Z" fill="white"/>
<path d="M355.163 41.6143L351.602 61.5879L353.114 61.8575L356.675 41.8838L355.163 41.6143Z" fill="white"/>
<path d="M361.933 42.7191L358.375 62.6934L359.887 62.9627L363.445 42.9884L361.933 42.7191Z" fill="white"/>
<path d="M368.55 43.9365L364.988 63.9102L366.5 64.1797L370.062 44.2061L368.55 43.9365Z" fill="white"/>
<path d="M375.292 45.1514L371.73 65.125L373.242 65.3946L376.804 45.421L375.292 45.1514Z" fill="white"/>
<path d="M381.855 46.3187L378.297 66.293L379.809 66.5623L383.367 46.588L381.855 46.3187Z" fill="white"/>
<path d="M388.597 47.5198L385.039 67.4941L386.551 67.7635L390.109 47.7892L388.597 47.5198Z" fill="white"/>
<path d="M395.242 48.7191L391.684 68.6934L393.196 68.9627L396.754 48.9884L395.242 48.7191Z" fill="white"/>
<path d="M401.89 49.8402L398.332 69.8145L399.844 70.0838L403.402 50.1095L401.89 49.8402Z" fill="white"/>
<path d="M408.604 51.1514L405.043 71.125L406.555 71.3946L410.116 51.421L408.604 51.1514Z" fill="white"/>
<path d="M415.249 52.2725L411.688 72.2461L413.199 72.5157L416.761 52.542L415.249 52.2725Z" fill="white"/>
<path d="M421.897 53.456L418.336 73.4297L419.848 73.6993L423.409 53.7256L421.897 53.456Z" fill="white"/>
<path d="M430.117 56.9413L426.465 76.8242L427.97 77.1007L431.622 57.2177L430.117 56.9413Z" fill="white"/>
<path d="M435.281 55.8382L431.723 75.8125L433.235 76.0818L436.793 56.1075L435.281 55.8382Z" fill="white"/>
<path d="M441.941 57.055L438.383 77.0293L439.895 77.2986L443.453 57.3244L441.941 57.055Z" fill="white"/>
<path d="M448.577 58.2705L445.016 78.2441L446.528 78.5137L450.089 58.5401L448.577 58.2705Z" fill="white"/>
<path d="M455.234 59.3597L451.676 79.334L453.188 79.6033L456.746 59.629L455.234 59.3597Z" fill="white"/>
<path d="M461.964 60.5283L458.402 80.502L459.914 80.7715L463.476 60.7979L461.964 60.5283Z" fill="white"/>
<path d="M468.53 61.792L464.969 81.7656L466.481 82.0352L470.042 62.0616L468.53 61.792Z" fill="white"/>
<path d="M475.269 62.9749L471.711 82.9492L473.223 83.2185L476.781 63.2443L475.269 62.9749Z" fill="white"/>
<path d="M483.452 64.3734L479.895 84.4195L478.359 84.0962L481.997 64.1309L483.452 64.3734Z" fill="white"/>
<path d="M488.64 65.2952L485.082 85.2695L486.594 85.5389L490.152 65.5646L488.64 65.2952Z" fill="white"/>
<path d="M495.292 66.5283L491.73 86.502L493.242 86.7715L496.804 66.7979L495.292 66.5283Z" fill="white"/>
<path d="M501.936 67.7275L498.375 87.7012L499.887 87.9708L503.448 67.9971L501.936 67.7275Z" fill="white"/>
<path d="M508.66 68.8948L505.102 88.8691L506.614 89.1385L510.172 69.1642L508.66 68.8948Z" fill="white"/>
<path d="M515.229 70.0478L511.668 90.0215L513.18 90.2911L516.741 70.3174L515.229 70.0478Z" fill="white"/>
<path d="M521.952 71.2953L518.395 91.2695L519.907 91.5389L523.464 71.5646L521.952 71.2953Z" fill="white"/>
<path d="M528.695 72.4163L525.137 92.3906L526.649 92.66L530.207 72.6857L528.695 72.4163Z" fill="white"/>
<path d="M535.343 73.663L531.781 93.6367L533.293 93.9063L536.855 73.9326L535.343 73.663Z" fill="white"/>
<path d="M541.913 74.8466L538.352 94.8203L539.864 95.0899L543.425 75.1162L541.913 74.8466Z" fill="white"/>
<path d="M548.636 76.0478L545.074 96.0215L546.586 96.2911L550.148 76.3174L548.636 76.0478Z" fill="white"/>
<path d="M555.378 77.1845L551.816 97.1582L553.328 97.4278L556.89 77.4541L555.378 77.1845Z" fill="white"/>
<path d="M561.925 78.4144L558.367 98.3887L559.879 98.658L563.437 78.6837L561.925 78.4144Z" fill="white"/>
<path d="M568.652 79.6156L565.094 99.5898L566.606 99.8592L570.164 79.8849L568.652 79.6156Z" fill="white"/>
<path d="M575.319 80.8623L571.758 100.836L573.27 101.106L576.831 81.1319L575.319 80.8623Z" fill="white"/>
<path d="M582.023 81.9516L578.465 101.926L579.977 102.195L583.535 82.2209L582.023 81.9516Z" fill="white"/>
<path d="M588.612 83.1826L585.051 103.156L586.563 103.426L590.124 83.4522L588.612 83.1826Z" fill="white"/>
<path d="M595.351 84.3838L591.789 104.357L593.301 104.627L596.862 84.6533L595.351 84.3838Z" fill="white"/>
<path d="M601.964 85.5511L598.406 105.525L599.918 105.795L603.476 85.8204L601.964 85.5511Z" fill="white"/>
<path d="M608.643 86.7041L605.082 106.678L606.594 106.947L610.155 86.9737L608.643 86.7041Z" fill="white"/>
<path d="M615.276 87.9834L611.715 107.957L613.227 108.227L616.788 88.253L615.276 87.9834Z" fill="white"/>
<path d="M622.015 89.1201L618.453 109.094L619.965 109.363L623.527 89.3897L622.015 89.1201Z" fill="white"/>
<path d="M628.585 90.3037L625.023 110.277L626.535 110.547L630.097 90.5733L628.585 90.3037Z" fill="white"/>
<path d="M635.308 91.5029L631.746 111.477L633.258 111.746L636.819 91.7725L635.308 91.5029Z" fill="white"/>
<path d="M642.034 92.7197L638.473 112.693L639.985 112.963L643.546 92.9893L642.034 92.7197Z" fill="white"/>
<path d="M648.742 93.8715L645.184 113.846L646.696 114.115L650.254 94.1408L648.742 93.8715Z" fill="white"/>
<path d="M655.308 95.0707L651.75 115.045L653.262 115.314L656.82 95.34L655.308 95.0707Z" fill="white"/>
<path d="M661.991 96.2392L658.43 116.213L659.942 116.482L663.503 96.5088L661.991 96.2392Z" fill="white"/>
<path d="M668.679 97.4866L665.121 117.461L666.633 117.73L670.191 97.756L668.679 97.4866Z" fill="white"/>
<path d="M675.284 98.6396L671.723 118.613L673.235 118.883L676.796 98.9092L675.284 98.6396Z" fill="white"/>
<path d="M682.007 99.8388L678.445 119.812L679.957 120.082L683.519 100.108L682.007 99.8388Z" fill="white"/>
<path d="M688.714 101.006L685.156 120.98L686.668 121.25L690.226 101.276L688.714 101.006Z" fill="white"/>
<path d="M695.456 102.207L691.898 122.182L693.41 122.451L696.968 102.477L695.456 102.207Z" fill="white"/>
<path d="M702.007 103.391L698.449 123.365L699.961 123.635L703.519 103.66L702.007 103.391Z" fill="white"/>
<path d="M708.749 104.528L705.191 124.502L706.703 124.771L710.261 104.797L708.749 104.528Z" fill="white"/>
<path d="M715.429 105.774L711.867 125.748L713.379 126.018L716.941 106.044L715.429 105.774Z" fill="white"/>
<path d="M721.999 106.88L718.438 126.854L719.949 127.123L723.511 107.149L721.999 106.88Z" fill="white"/>
<path d="M728.671 108.127L725.113 128.102L726.625 128.371L730.183 108.397L728.671 108.127Z" fill="white"/>
<path d="M735.37 109.296L731.809 129.27L733.321 129.539L736.882 109.565L735.37 109.296Z" fill="white"/>
<path d="M742.062 110.526L738.504 130.5L740.016 130.769L743.574 110.795L742.062 110.526Z" fill="white"/>
<path d="M748.706 111.647L745.148 131.621L746.66 131.89L750.218 111.916L748.706 111.647Z" fill="white"/>
<path d="M755.405 112.895L751.844 132.869L753.356 133.139L756.917 113.165L755.405 112.895Z" fill="white"/>
<path d="M762.128 114.095L758.566 134.068L760.078 134.338L763.64 114.364L762.128 114.095Z" fill="white"/>
<path d="M768.698 115.294L765.137 135.268L766.649 135.537L770.21 115.563L768.698 115.294Z" fill="white"/>
<path d="M775.386 116.448L771.828 136.422L773.34 136.691L776.898 116.717L775.386 116.448Z" fill="white"/>
<path d="M782.097 117.647L778.539 137.621L780.051 137.89L783.609 117.916L782.097 117.647Z" fill="white"/>
<path d="M788.651 118.815L785.09 138.789L786.602 139.059L790.163 119.085L788.651 118.815Z" fill="white"/>
<path d="M795.312 120.047L791.754 140.021L793.266 140.291L796.824 120.317L795.312 120.047Z" fill="white"/>
<path d="M802.104 121.231L798.543 141.205L800.055 141.475L803.616 121.501L802.104 121.231Z" fill="white"/>
<path d="M808.749 122.431L805.188 142.404L806.699 142.674L810.261 122.7L808.749 122.431Z" fill="white"/>
<path d="M818.55 128L814.898 147.883L816.404 148.159L820.055 128.276L818.55 128Z" fill="white"/>
<path d="M822.07 124.766L818.512 144.74L820.024 145.01L823.582 125.035L822.07 124.766Z" fill="white"/>
<path d="M828.812 125.983L825.254 145.957L826.766 146.226L830.324 126.252L828.812 125.983Z" fill="white"/>
<path d="M835.363 127.166L831.805 147.141L833.317 147.41L836.875 127.436L835.363 127.166Z" fill="white"/>
<path d="M842.077 128.351L838.516 148.324L840.028 148.594L843.589 128.62L842.077 128.351Z" fill="white"/>
<path d="M848.804 129.552L845.242 149.525L846.754 149.795L850.316 129.821L848.804 129.552Z" fill="white"/>
<path d="M21.7381 34.2219C21.9361 32.5479 22.5779 30.9572 23.5972 29.6145C24.0087 29.1638 24.5316 28.8294 25.1134 28.645C25.6952 28.4605 26.3152 28.4325 26.9113 28.5637C27.5185 28.6269 28.0964 28.8566 28.5814 29.2274C29.0664 29.5983 29.4395 30.0959 29.6595 30.6653C30.0875 32.3084 30.0875 34.0338 29.6595 35.6769C29.4436 37.336 28.7721 38.9028 27.7196 40.2034C27.3314 40.6616 26.8233 41.0025 26.2522 41.1881C25.6811 41.3737 25.0697 41.3966 24.4863 41.2542C23.8667 41.1937 23.2778 40.9555 22.7903 40.5683C22.3028 40.1812 21.9374 39.6615 21.7381 39.0718C21.3165 37.4827 21.3165 35.8111 21.7381 34.2219ZM23.193 34.2219C23.158 34.922 23.158 35.6234 23.193 36.3235C23.1024 36.8857 23.1024 37.4588 23.193 38.021C23.282 38.4646 23.476 38.8804 23.7588 39.2335C24.0409 39.5278 24.4086 39.7258 24.8096 39.7993C25.2206 39.8862 25.6482 39.8479 26.0372 39.6894C26.4262 39.5309 26.7588 39.2595 26.9921 38.9101C27.728 37.7622 28.1975 36.4641 28.3662 35.1111C28.403 34.438 28.403 33.7634 28.3662 33.0903C28.4492 32.5004 28.4492 31.9018 28.3662 31.312C28.271 30.8777 28.0454 30.4829 27.7196 30.1803C27.4294 29.853 27.024 29.6503 26.5879 29.6145C26.1265 29.4967 25.6383 29.5456 25.2094 29.7527C24.7805 29.9597 24.4386 30.3116 24.2438 30.7462C23.6228 31.8926 23.2639 33.1625 23.193 34.4644V34.2219Z" fill="white"/>
<path d="M55.3714 45.212L57.7963 45.6161L59.3321 37.533V36.563L58.5238 37.2905L56.5839 37.8563V36.8863L60.9488 34.623H61.5954L59.1705 45.8586L61.5954 46.2628V47.5561L55.1289 46.5053L55.3714 45.212Z" fill="white"/>
<path d="M96.1171 44.0058C95.982 44.6623 95.7359 45.291 95.3896 45.8649C95.0416 46.4941 94.6357 47.0894 94.1771 47.6432L92.6413 49.7448L90.9439 51.2806L89.9739 51.8465H91.1056L94.9046 52.5739V53.8672L87.9531 52.5739V51.7656L89.0848 50.9573L90.2164 49.7448L91.6714 48.4515C92.1711 47.9785 92.6307 47.4648 93.0455 46.9157C93.4431 46.4547 93.77 45.9371 94.0155 45.3799C94.3072 44.9416 94.5002 44.4452 94.5813 43.925C94.702 43.687 94.7649 43.4239 94.7649 43.1571C94.7649 42.8902 94.702 42.6272 94.5813 42.3892C94.3937 42.1429 94.1476 41.9474 93.8653 41.8203C93.583 41.6933 93.2734 41.6388 92.9647 41.6617H91.6714C91.2444 41.7592 90.8353 41.9228 90.4589 42.1467V41.015C90.9421 40.6945 91.4979 40.5 92.0755 40.4492H93.9346C94.3933 40.5248 94.8327 40.6896 95.2279 40.9342C95.5725 41.1163 95.8541 41.398 96.0363 41.7425C96.2777 42.0501 96.4438 42.41 96.5212 42.7933C96.473 43.2214 96.3353 43.6345 96.1171 44.0058Z" fill="white"/>
<path d="M124.237 57.8194H125.368C125.688 57.8895 126.019 57.8895 126.338 57.8194L127.066 57.0919C127.098 56.7694 127.098 56.4445 127.066 56.1219C127.195 55.8148 127.261 55.4851 127.261 55.152C127.261 54.8189 127.195 54.4891 127.066 54.182C126.554 53.6394 125.867 53.2957 125.126 53.212H123.833V52.0804L127.066 48.6046L128.036 48.0388H126.904L123.429 47.473V46.1797L129.733 47.2305V47.7963L126.258 51.4337L125.53 51.8379H126.177L127.389 52.3229C127.744 52.5548 128.047 52.8575 128.278 53.212C128.535 53.5713 128.702 53.9872 128.763 54.4245C128.924 54.8963 128.924 55.4077 128.763 55.8795C128.674 56.4481 128.482 56.9958 128.198 57.4961C127.882 57.9075 127.5 58.2628 127.066 58.5469C126.585 58.793 126.066 58.9569 125.53 59.0319C124.998 59.1531 124.446 59.1531 123.914 59.0319L122.459 58.6277L121.246 57.8194L121.812 56.6878L122.701 57.1728L124.237 57.8194Z" fill="white"/>
<path d="M163.115 61.8629L161.095 61.4588L160.448 65.2578H159.074L159.72 61.4588L154.305 60.4888V59.923L161.58 52.8906H162.549L161.66 60.2463H163.681L163.115 61.8629ZM160.61 56.2047L161.014 54.8306L160.125 55.9622L157.134 58.8721L156.083 59.5188H157.376L159.963 60.0038L160.61 56.2047Z" fill="white"/>
<path d="M190.594 69.5517C190.926 69.694 191.284 69.7674 191.645 69.7674C192.006 69.7674 192.364 69.694 192.696 69.5517C193.288 69.1006 193.691 68.4446 193.826 67.7121C193.961 66.9795 193.817 66.2232 193.423 65.5909C192.847 65.0474 192.109 64.7068 191.322 64.6209H189.867L190.917 58.5586L196.414 59.5286V60.8219L192.292 60.0944L191.645 63.5701H192.453C193.437 63.7359 194.327 64.2529 194.959 65.0251C195.248 65.4454 195.447 65.9206 195.544 66.4212C195.642 66.9218 195.635 67.4371 195.525 67.935C195.374 68.5234 195.157 69.0928 194.878 69.6325C194.563 70.0439 194.18 70.3992 193.747 70.6833C193.286 70.9887 192.76 71.1825 192.211 71.2491C191.651 71.3669 191.073 71.3669 190.513 71.2491H189.22L188.25 70.845L188.816 69.7133L189.705 70.1175L190.594 69.5517Z" fill="white"/>
<path d="M229.232 73.9957C229.157 74.531 228.993 75.0501 228.747 75.5315C228.514 75.955 228.181 76.3156 227.777 76.5823C227.422 76.9243 226.971 77.1499 226.484 77.2289C225.952 77.353 225.399 77.353 224.867 77.2289C224.33 77.1169 223.813 76.9262 223.332 76.6631C222.904 76.3992 222.545 76.0394 222.281 75.6123C221.975 75.1513 221.782 74.6255 221.715 74.0765C221.595 73.4626 221.595 72.8313 221.715 72.2174C221.892 71.1271 222.219 70.0663 222.685 69.065C223.137 68.2073 223.709 67.4181 224.382 66.7208C224.94 66.0837 225.595 65.5381 226.322 65.1042C227.118 64.7797 227.969 64.6149 228.828 64.6192V65.9125C228.214 65.7906 227.583 65.7906 226.969 65.9125C226.352 66.1378 225.779 66.4658 225.272 66.8825C224.783 67.29 224.372 67.783 224.059 68.3375C223.684 68.8584 223.385 69.4299 223.17 70.0349C223.495 69.7388 223.881 69.518 224.302 69.3883C224.855 69.2196 225.446 69.2196 225.999 69.3883C226.954 69.5722 227.812 70.0875 228.424 70.8432C228.806 71.2628 229.079 71.7695 229.22 72.319C229.361 72.8685 229.365 73.4441 229.232 73.9957ZM227.777 73.9957C227.891 73.6757 227.928 73.3336 227.887 72.9966C227.845 72.6596 227.725 72.337 227.537 72.0545C227.348 71.7719 227.097 71.5372 226.802 71.3691C226.507 71.2009 226.176 71.1039 225.837 71.0857C225.338 70.925 224.801 70.925 224.302 71.0857C223.876 71.2397 223.509 71.5222 223.251 71.894C223.171 72.2398 223.171 72.5991 223.251 72.9449C223.168 73.2903 223.168 73.6502 223.251 73.9957C223.424 74.3202 223.674 74.5977 223.978 74.804C224.115 74.9417 224.279 75.049 224.46 75.1186C224.641 75.1883 224.835 75.2188 225.029 75.2081H226.322L227.131 74.804C227.404 74.6204 227.627 74.37 227.777 74.0765C227.778 74.0496 227.778 74.0226 227.777 73.9957Z" fill="white"/>
<path d="M255.266 82.0703L261.49 72.6131L262.46 71.8856H261.328L256.397 70.9964V69.7031L263.672 70.9964V71.4814L256.721 82.0703H255.266Z" fill="white"/>
<path d="M288.404 85.0672C288.515 84.3748 288.824 83.7291 289.293 83.2081C289.907 82.6878 290.623 82.3022 291.395 82.0765L290.991 81.349L290.425 80.6215C290.353 80.3295 290.353 80.0244 290.425 79.7324C290.344 79.3595 290.344 78.9736 290.425 78.6007C290.39 78.1973 290.39 77.7917 290.425 77.3882C290.681 77.0776 290.981 76.8054 291.314 76.5799C291.68 76.349 292.096 76.2103 292.527 76.1758H293.982L295.275 76.5799C295.608 76.8054 295.908 77.0776 296.164 77.3882C296.373 77.6855 296.537 78.0125 296.649 78.3582C296.73 78.7311 296.73 79.117 296.649 79.4899C296.581 80.1313 296.296 80.7302 295.841 81.1873C295.393 81.7359 294.807 82.1546 294.143 82.3998L294.871 83.1273L295.437 84.0164C295.516 84.3075 295.516 84.6145 295.437 84.9056C295.517 85.2784 295.517 85.6643 295.437 86.0372C295.374 86.5244 295.208 86.9927 294.952 87.4113C294.72 87.7659 294.417 88.0686 294.062 88.3005L292.769 88.8663C292.237 88.9849 291.685 88.9849 291.152 88.8663C290.64 88.8031 290.145 88.6382 289.697 88.3813C289.32 88.1494 288.991 87.8476 288.728 87.4922C288.486 87.1846 288.32 86.8247 288.243 86.4414C288.204 85.9771 288.259 85.5098 288.404 85.0672ZM294.224 85.8755C294.307 85.585 294.307 85.277 294.224 84.9864C294.094 84.6739 293.931 84.3759 293.739 84.0973L293.092 83.3698L292.284 82.7231C291.627 82.9503 291.022 83.3077 290.506 83.7739C290.14 84.155 289.888 84.6311 289.778 85.1481V85.9564C289.748 86.1979 289.748 86.4423 289.778 86.6839C289.936 86.9302 290.16 87.1264 290.425 87.2497H291.314H292.203H292.931C293.198 87.1305 293.424 86.9333 293.577 86.6839C293.852 86.468 294.074 86.1913 294.224 85.8755ZM290.991 78.8432C290.908 79.1338 290.908 79.4418 290.991 79.7324C290.962 80.001 290.962 80.272 290.991 80.5407L291.637 81.1873L292.446 81.834C292.943 81.5696 293.404 81.2437 293.82 80.864C294.121 80.4915 294.317 80.0448 294.386 79.5707C294.506 79.3471 294.569 79.0971 294.569 78.8432C294.569 78.5893 294.506 78.3394 294.386 78.1157C294.068 77.7114 293.603 77.4498 293.092 77.3882H292.284C292.045 77.33 291.796 77.33 291.557 77.3882C291.442 77.423 291.338 77.4854 291.253 77.57C291.169 77.6546 291.106 77.7587 291.072 77.8732C290.965 78.0096 290.901 78.1739 290.887 78.3462C290.872 78.5185 290.909 78.6912 290.991 78.8432Z" fill="white"/>
<path d="M322.519 85.3133C322.582 84.8009 322.747 84.3063 323.004 83.8584C323.213 83.3967 323.55 83.0041 323.974 82.7267C324.351 82.4163 324.793 82.1952 325.267 82.0801H326.965C327.496 82.1499 328.004 82.3389 328.452 82.6328C328.9 82.9267 329.276 83.3181 329.551 83.7775C329.975 84.8694 329.975 86.0806 329.551 87.1725C329.359 88.3471 329.005 89.4895 328.5 90.5674C328.072 91.4157 327.497 92.1819 326.803 92.8307C326.19 93.3705 325.476 93.7827 324.701 94.0431C323.878 94.2452 323.019 94.2452 322.196 94.0431V92.9115C322.837 93.0283 323.494 93.0283 324.136 92.9115C324.694 92.7418 325.215 92.4675 325.671 92.1032C326.162 91.7053 326.597 91.2431 326.965 90.729C327.297 90.1672 327.568 89.5709 327.773 88.9508C327.424 89.2575 327.009 89.4789 326.561 89.5974C326.055 89.7147 325.53 89.7147 325.025 89.5974C324.566 89.5218 324.127 89.357 323.731 89.1124C323.337 88.9046 323.003 88.5983 322.761 88.2233C322.446 87.8915 322.247 87.4658 322.196 87.0108C322.118 86.4249 322.231 85.8297 322.519 85.3133ZM323.974 85.3133C323.824 85.6148 323.747 85.9468 323.747 86.2833C323.747 86.6198 323.824 86.9518 323.974 87.2533C324.366 87.7747 324.946 88.1227 325.591 88.2233C326.095 88.3466 326.622 88.3466 327.126 88.2233C327.51 88.1639 327.856 87.9617 328.096 87.6574C328.139 87.2274 328.139 86.7942 328.096 86.3641C328.179 86.0187 328.179 85.6588 328.096 85.3133C327.949 84.9727 327.728 84.669 327.45 84.4242C327.12 84.1679 326.731 84.0008 326.318 83.9392C326.037 83.8191 325.734 83.7572 325.429 83.7572C325.123 83.7572 324.821 83.8191 324.54 83.9392C324.195 84.3792 323.997 84.9164 323.974 85.475V85.3133Z" fill="white"/>
<path d="M349.754 97.666L352.179 98.0701L353.715 89.987L354.119 88.9362L353.23 89.6637L351.047 90.7145L350.562 89.6637L354.927 87.4004H355.655L353.553 98.2318L355.978 98.7168V100.01L349.754 98.8785V97.666Z" fill="white"/>
<path d="M359.049 94.3657C359.209 92.6823 359.855 91.0816 360.908 89.7583C361.307 89.3144 361.816 88.9835 362.384 88.7991C362.951 88.6146 363.558 88.583 364.141 88.7075C364.757 88.7738 365.345 89.0037 365.842 89.3732C366.339 89.7427 366.729 90.2385 366.97 90.8091C367.388 92.4262 367.388 94.1228 366.97 95.7399C366.772 97.4139 366.131 99.0046 365.111 100.347C364.7 100.798 364.177 101.132 363.595 101.317C363.013 101.501 362.393 101.529 361.797 101.398C361.184 101.319 360.604 101.074 360.119 100.689C359.635 100.305 359.265 99.7952 359.049 99.2156C358.635 97.6255 358.635 95.9558 359.049 94.3657ZM360.504 94.3657C360.429 95.0643 360.429 95.7688 360.504 96.4673C360.416 97.0297 360.416 97.6024 360.504 98.1648C360.62 98.6148 360.841 99.0305 361.151 99.3773C361.429 99.6762 361.798 99.8751 362.201 99.9431C362.612 100.03 363.04 99.9917 363.429 99.8332C363.818 99.6747 364.151 99.4033 364.384 99.054C365.073 97.8906 365.513 96.597 365.677 95.2549C365.752 94.5563 365.752 93.8518 365.677 93.1533C365.765 92.5908 365.765 92.0182 365.677 91.4558C365.538 91.0591 365.273 90.7185 364.923 90.4852C364.573 90.2519 364.157 90.1387 363.737 90.1625C363.338 90.0925 362.928 90.1392 362.555 90.297C362.182 90.4547 361.863 90.7168 361.636 91.0516C361.002 92.1396 360.615 93.3539 360.504 94.6082V94.3657Z" fill="white"/>
<path d="M383.139 103.579L385.563 104.064L387.099 95.5768V94.6069L386.291 95.2535L384.109 96.3043L383.543 95.3343L387.988 92.9902H388.554L386.614 104.145L388.958 104.549V105.842L382.734 104.711L383.139 103.579Z" fill="white"/>
<path d="M392.684 105.275L395.109 105.76L396.645 97.6765V96.7065L395.836 97.3531L393.654 98.4039L393.088 97.434L397.534 95.0898H398.1L396.483 106.325L398.827 106.73V108.023L392.441 106.325L392.684 105.275Z" fill="white"/>
<path d="M416.441 109.555L418.866 109.959L420.402 101.876L420.806 100.825L419.917 101.552L417.735 102.603L417.25 101.552L421.615 99.2891H422.261L420.321 110.201L422.746 110.686V111.98L416.522 110.848L416.441 109.555Z" fill="white"/>
<path d="M433.333 104.14C433.228 104.793 433.009 105.422 432.686 105.999C432.339 106.628 431.933 107.223 431.474 107.777L429.857 109.475L428.16 111.01L427.19 111.576H428.402L432.202 112.304V113.597L425.25 112.304V111.819L426.382 111.01L427.756 109.879L429.211 108.505L430.504 107.05C430.9 106.571 431.252 106.057 431.555 105.514C431.813 105.059 432.003 104.569 432.121 104.059C432.293 103.562 432.293 103.021 432.121 102.523C431.97 102.284 431.769 102.08 431.532 101.927C431.295 101.773 431.027 101.673 430.747 101.634H429.372L428.16 102.038V100.987C428.65 100.681 429.202 100.487 429.777 100.422C430.39 100.3 431.022 100.3 431.636 100.422C432.098 100.483 432.54 100.649 432.929 100.907C433.294 101.068 433.608 101.327 433.836 101.655C434.064 101.983 434.197 102.367 434.222 102.766C434.056 103.296 433.748 103.771 433.333 104.14Z" fill="white"/>
<path d="M449.822 115.531L452.247 115.935L453.783 107.448V106.478L452.975 107.125L450.792 108.175L450.307 107.205L454.672 104.861H455.238L453.298 116.016L455.642 116.42V117.714L449.418 116.663L449.822 115.531Z" fill="white"/>
<path d="M461.47 117.889C461.843 117.97 462.228 117.97 462.601 117.889C462.922 117.946 463.251 117.946 463.571 117.889C463.853 117.689 464.099 117.443 464.299 117.161C464.501 116.87 464.638 116.54 464.703 116.192C464.794 115.846 464.805 115.485 464.735 115.134C464.665 114.784 464.516 114.455 464.299 114.171C463.818 113.644 463.151 113.326 462.44 113.282H461.146V112.797L464.299 109.321L465.269 108.674H464.137L460.742 107.462V106.33L466.966 107.462V107.947L463.41 111.665L462.682 112.069H463.329C463.787 112.145 464.227 112.309 464.622 112.554C464.977 112.786 465.279 113.089 465.511 113.443C465.768 113.803 465.934 114.218 465.996 114.656C466.078 115.11 466.078 115.575 465.996 116.03C465.879 116.628 465.661 117.203 465.35 117.727C465.034 118.139 464.652 118.494 464.218 118.778C463.77 119.035 463.275 119.2 462.763 119.263C462.2 119.344 461.629 119.344 461.066 119.263H459.691L458.641 118.778L459.206 117.566C459.455 117.803 459.761 117.971 460.096 118.051L461.47 117.889Z" fill="white"/>
<path d="M483.133 121.443L485.639 121.847L487.094 113.764L487.498 112.714L486.609 113.441L484.426 114.492L483.941 113.441L488.306 111.178H488.953L487.013 122.494L489.357 122.979V124.272L482.891 122.494L483.133 121.443Z" fill="white"/>
<path d="M500.428 122.011L498.326 121.607L497.68 125.406H496.305L496.952 121.607L491.617 120.637V120.071L498.892 113.039H499.781L498.488 120.476H500.589L500.428 122.011ZM497.841 116.353L498.326 114.898L497.518 116.03L494.446 118.94L493.476 119.586H494.689L497.275 120.071L497.841 116.353Z" fill="white"/>
<path d="M516.516 127.42L518.941 127.824L520.476 119.337V118.367L519.668 119.013L517.486 120.064L517.324 119.094L521.689 116.75H522.335L520.315 127.905H522.74V129.198L516.516 128.147V127.42Z" fill="white"/>
<path d="M527.827 129.684C528.505 129.939 529.251 129.939 529.929 129.684C530.238 129.472 530.498 129.196 530.693 128.876C530.888 128.555 531.013 128.197 531.061 127.825C531.213 127.496 531.292 127.137 531.292 126.775C531.292 126.412 531.213 126.053 531.061 125.724C530.506 125.196 529.799 124.856 529.04 124.754H527.504L528.636 118.691L534.051 119.661V120.955L529.848 120.227L529.201 123.703H530.01C531.028 123.834 531.955 124.356 532.596 125.158C533.111 126.035 533.284 127.071 533.081 128.068C532.965 128.641 532.746 129.189 532.435 129.684C532.142 130.138 531.756 130.524 531.303 130.816C530.848 131.074 530.358 131.265 529.848 131.382C529.285 131.463 528.714 131.463 528.151 131.382H526.776L525.402 130.574L525.968 129.442L526.776 129.846L527.827 129.684Z" fill="white"/>
<path d="M549.652 133.329L552.158 133.814L553.613 125.731V124.68L552.724 125.408L550.622 126.459L550.057 125.408L554.421 123.145H555.068L553.128 134.38L555.472 134.784V136.078L549.652 134.623V133.329Z" fill="white"/>
<path d="M566.547 133.811C566.48 134.36 566.287 134.886 565.981 135.347C565.776 135.765 565.471 136.126 565.092 136.397C564.704 136.738 564.228 136.962 563.718 137.044C563.191 137.206 562.628 137.206 562.101 137.044C561.552 136.977 561.027 136.784 560.566 136.478C560.123 136.235 559.759 135.87 559.515 135.427C559.264 134.969 559.074 134.48 558.949 133.972C558.871 133.328 558.871 132.677 558.949 132.032C559.152 130.964 559.506 129.93 560 128.961C560.452 128.103 561.024 127.314 561.697 126.617C562.318 125.988 563.061 125.493 563.88 125.162C564.683 125.04 565.501 125.04 566.305 125.162V126.374C565.664 126.246 565.005 126.246 564.365 126.374C563.782 126.619 563.238 126.946 562.748 127.344C562.256 127.771 561.821 128.26 561.455 128.799C561.09 129.314 560.816 129.889 560.646 130.497C560.98 130.114 561.416 129.835 561.903 129.692C562.39 129.549 562.907 129.548 563.395 129.688C563.88 129.742 564.347 129.9 564.766 130.151C565.184 130.402 565.544 130.741 565.82 131.143C566.389 131.91 566.648 132.862 566.547 133.811ZM565.092 133.811C565.314 133.155 565.314 132.445 565.092 131.79C564.918 131.519 564.679 131.296 564.396 131.141C564.114 130.986 563.798 130.903 563.476 130.901C563.233 130.796 562.972 130.742 562.708 130.742C562.444 130.742 562.182 130.796 561.94 130.901C561.52 131.023 561.151 131.278 560.889 131.628C560.889 131.628 560.889 131.628 560.889 132.032C560.849 132.382 560.849 132.734 560.889 133.083C560.843 133.432 560.843 133.785 560.889 134.134C561.059 134.437 561.277 134.71 561.536 134.942H562.586C562.905 135.025 563.238 135.025 563.556 134.942H564.365C564.614 134.754 564.809 134.503 564.931 134.215C564.993 134.056 565.047 133.894 565.092 133.73V133.811Z" fill="white"/>
<path d="M583.197 139.306L585.622 139.71L587.158 131.223V130.253L586.269 130.98L584.086 131.95L583.601 130.98L587.966 128.717H588.613L586.592 139.872L589.017 140.276V141.569L582.793 140.518L583.197 139.306Z" fill="white"/>
<path d="M592.578 142.299L598.802 132.842L599.691 132.114H598.64L593.629 131.225V129.932L600.904 131.306V131.71L593.791 142.622L592.578 142.299Z" fill="white"/>
<path d="M616.582 145.21L619.007 145.695L620.543 137.208V136.157L619.735 136.884L617.552 137.935L616.987 136.884L621.432 134.621H621.998L620.058 145.776L622.402 146.746V148.039L616.34 146.746L616.582 145.21Z" fill="white"/>
<path d="M625.641 145.198C625.76 144.492 626.1 143.841 626.611 143.339C627.173 142.79 627.87 142.399 628.632 142.207L627.985 141.48L627.419 140.752C627.385 140.43 627.385 140.105 627.419 139.782C627.337 139.437 627.337 139.077 627.419 138.732C627.481 138.294 627.648 137.878 627.904 137.519C628.11 137.193 628.386 136.917 628.713 136.711L629.925 136.226C630.407 136.149 630.898 136.149 631.38 136.226L632.673 136.63C633.023 136.835 633.326 137.11 633.563 137.438C633.817 137.706 633.986 138.044 634.048 138.408C634.129 138.781 634.129 139.167 634.048 139.54C633.975 140.164 633.723 140.754 633.32 141.237C632.84 141.786 632.228 142.204 631.542 142.45L632.269 143.177L632.916 143.986C632.951 144.308 632.951 144.633 632.916 144.956C632.957 145.332 632.957 145.711 632.916 146.087L632.431 147.461C632.167 147.817 631.838 148.119 631.461 148.35C631.072 148.608 630.63 148.774 630.168 148.835C629.659 148.917 629.141 148.917 628.632 148.835C628.119 148.772 627.625 148.607 627.177 148.35C626.8 148.119 626.471 147.817 626.207 147.461C625.964 147.124 625.799 146.738 625.722 146.33C625.625 145.961 625.598 145.577 625.641 145.198ZM631.461 146.006C631.543 145.688 631.543 145.354 631.461 145.036C631.359 144.752 631.223 144.48 631.057 144.228L630.491 143.501L629.683 142.854C629.019 143.068 628.412 143.427 627.904 143.905C627.594 144.281 627.373 144.724 627.258 145.198C627.179 145.489 627.179 145.796 627.258 146.087C627.188 146.325 627.188 146.577 627.258 146.815C627.434 147.044 627.654 147.237 627.904 147.38H628.794H629.683C629.946 147.462 630.228 147.462 630.491 147.38C630.718 147.235 630.912 147.042 631.057 146.815C631.262 146.587 631.402 146.307 631.461 146.006ZM628.47 138.651C628.391 138.942 628.391 139.249 628.47 139.54C628.415 139.779 628.415 140.028 628.47 140.267C628.638 140.549 628.857 140.795 629.117 140.995L629.844 141.641C630.376 141.399 630.845 141.04 631.219 140.591C631.555 140.263 631.78 139.84 631.865 139.378C631.973 139.151 632.029 138.902 632.029 138.651C632.029 138.399 631.973 138.151 631.865 137.923C631.567 137.537 631.134 137.277 630.653 137.196H629.764H629.036L628.551 137.762L628.47 138.651Z" fill="white"/>
<path d="M649.881 151.179L652.306 151.583L653.841 143.096V142.126L652.952 142.853L650.77 143.823L650.285 142.853L654.65 140.59H655.296L653.276 151.745L655.701 152.149V153.523L649.477 152.391L649.881 151.179Z" fill="white"/>
<path d="M659.746 145.446C659.821 144.91 659.984 144.391 660.231 143.91C660.485 143.479 660.814 143.096 661.201 142.778C661.592 142.509 662.031 142.317 662.494 142.213C663.08 142.091 663.686 142.091 664.272 142.213C664.789 142.261 665.286 142.433 665.723 142.715C666.159 142.996 666.521 143.378 666.778 143.829C667.375 144.884 667.549 146.127 667.263 147.305C667.046 148.484 666.665 149.627 666.131 150.7C665.727 151.542 665.18 152.308 664.515 152.963C663.883 153.52 663.139 153.934 662.332 154.176C661.532 154.333 660.708 154.333 659.907 154.176V152.963C660.543 153.131 661.211 153.131 661.847 152.963C662.43 152.792 662.977 152.519 663.464 152.155C663.931 151.757 664.339 151.294 664.676 150.781C665.026 150.228 665.298 149.63 665.485 149.002C665.176 149.321 664.784 149.545 664.353 149.649C663.844 149.726 663.326 149.726 662.817 149.649C662.333 149.574 661.867 149.409 661.443 149.164C661.083 148.911 660.757 148.612 660.473 148.275C660.204 147.884 660.012 147.445 659.907 146.982C659.772 146.482 659.717 145.963 659.746 145.446ZM661.201 145.446C660.936 146.093 660.936 146.819 661.201 147.467C661.396 147.717 661.64 147.924 661.918 148.077C662.196 148.23 662.502 148.325 662.817 148.356C663.317 148.517 663.854 148.517 664.353 148.356C664.734 148.289 665.078 148.088 665.323 147.79V147.386C665.4 146.958 665.4 146.52 665.323 146.093C665.406 145.72 665.406 145.333 665.323 144.961C665.202 144.628 664.975 144.344 664.676 144.153C664.378 143.896 664.014 143.728 663.625 143.668C663.346 143.543 663.043 143.478 662.736 143.478C662.43 143.478 662.127 143.543 661.847 143.668C661.422 144.193 661.194 144.851 661.201 145.527V145.446Z" fill="white"/>
<path d="M690.621 149.97C690.523 150.637 690.274 151.272 689.894 151.829C689.546 152.458 689.14 153.054 688.681 153.607L687.145 155.305L685.448 156.841L684.478 157.406H685.609L689.409 158.134V159.427L682.457 158.215V157.649L683.589 156.841L684.963 155.709L686.337 154.416C686.837 153.943 687.296 153.429 687.711 152.88C688.107 152.401 688.459 151.887 688.762 151.344C688.995 150.886 689.158 150.395 689.247 149.889C689.368 149.651 689.43 149.388 689.43 149.121C689.43 148.854 689.368 148.591 689.247 148.353C689.101 148.116 688.9 147.919 688.661 147.778C688.421 147.637 688.15 147.557 687.873 147.545H686.579C686.152 147.642 685.743 147.806 685.367 148.03V146.898C685.867 146.614 686.415 146.422 686.984 146.332C687.601 146.251 688.226 146.251 688.843 146.332C689.301 146.408 689.741 146.573 690.136 146.817C690.462 147.023 690.739 147.299 690.944 147.626C691.186 147.933 691.352 148.293 691.429 148.677C691.273 149.169 690.995 149.614 690.621 149.97Z" fill="white"/>
<path d="M692.487 153.771C692.702 152.126 693.343 150.566 694.346 149.244C694.752 148.787 695.275 148.447 695.858 148.262C696.442 148.077 697.064 148.053 697.66 148.193C698.273 148.238 698.86 148.46 699.348 148.833C699.837 149.207 700.205 149.715 700.408 150.295C700.81 151.902 700.866 153.575 700.573 155.206C700.281 156.836 699.646 158.385 698.711 159.752C698.305 160.21 697.782 160.549 697.199 160.734C696.615 160.919 695.993 160.943 695.397 160.803C694.777 160.742 694.188 160.504 693.701 160.117C693.213 159.73 692.848 159.21 692.649 158.621C692.174 157.046 692.118 155.374 692.487 153.771ZM693.942 153.771C693.942 154.579 693.942 155.226 693.942 155.872C693.851 156.434 693.851 157.008 693.942 157.57C694.031 158.013 694.225 158.429 694.508 158.782C694.807 159.097 695.208 159.298 695.639 159.348C696.038 159.429 696.453 159.387 696.828 159.229C697.203 159.07 697.521 158.802 697.741 158.459C698.463 157.334 698.932 156.065 699.115 154.741C699.115 153.932 699.115 153.286 699.115 152.639C699.163 152.074 699.163 151.506 699.115 150.942C698.999 150.492 698.778 150.076 698.468 149.729C698.178 149.402 697.773 149.199 697.337 149.163C696.926 149.065 696.494 149.097 696.102 149.257C695.711 149.416 695.379 149.695 695.154 150.052C694.457 151.265 694.043 152.619 693.942 154.013V153.771Z" fill="white"/>
<path d="M723.917 155.949C723.81 156.576 723.591 157.178 723.27 157.727C722.924 158.383 722.518 159.005 722.058 159.586L720.441 161.284L718.743 162.82L717.774 163.385H718.905L722.704 164.032V165.325L715.672 164.113V163.628L716.723 162.82L718.097 161.688L719.552 160.314L720.845 158.859C721.223 158.366 721.573 157.853 721.896 157.323C722.189 156.856 722.382 156.333 722.462 155.787C722.628 155.316 722.628 154.803 722.462 154.332C722.311 154.093 722.11 153.889 721.873 153.736C721.636 153.582 721.368 153.482 721.088 153.443C720.633 153.363 720.168 153.363 719.713 153.443H718.501V152.392C718.796 152.351 719.095 152.351 719.39 152.392C719.999 152.231 720.64 152.231 721.249 152.392L722.543 152.796C722.892 153.001 723.195 153.276 723.432 153.605C723.528 153.948 723.528 154.312 723.432 154.656C723.678 155.05 723.843 155.49 723.917 155.949Z" fill="white"/>
<path d="M726.109 164.764L728.534 165.168L730.07 157.085L730.474 156.034L729.585 156.761L727.403 157.812L726.918 156.761L731.283 154.498H731.929L729.908 165.653L732.333 166.138V167.431L726.109 166.299V164.764Z" fill="white"/>
<path d="M757.309 161.86C757.21 162.527 756.961 163.163 756.581 163.719C756.252 164.36 755.845 164.958 755.369 165.497L753.833 167.195L752.135 168.731L751.165 169.377H752.297L756.096 170.024V171.317L749.145 170.105V169.539L750.276 168.731L751.65 167.599L753.024 166.306L754.399 164.851L755.449 163.315C755.673 162.825 755.836 162.309 755.934 161.779C756.022 161.517 756.048 161.238 756.01 160.965C755.971 160.691 755.87 160.43 755.713 160.202C755.556 159.975 755.348 159.787 755.106 159.654C754.864 159.521 754.594 159.446 754.318 159.435H753.024C752.598 159.533 752.188 159.696 751.812 159.92V158.788C752.312 158.504 752.86 158.312 753.429 158.223H755.288C755.746 158.298 756.186 158.463 756.581 158.708C756.907 158.913 757.184 159.19 757.389 159.516C757.631 159.824 757.797 160.183 757.874 160.567C757.789 161.036 757.595 161.479 757.309 161.86Z" fill="white"/>
<path d="M766.844 163.554C766.722 164.215 766.475 164.846 766.116 165.413C765.788 166.054 765.38 166.652 764.904 167.192L763.368 168.889L761.67 170.425L760.7 171.072H761.832L765.631 171.718V173.011L758.68 171.799V170.991L759.811 170.182L761.185 169.051L762.56 167.757L763.934 166.302L764.985 164.767C765.208 164.276 765.371 163.761 765.469 163.231C765.59 162.993 765.653 162.73 765.653 162.463C765.653 162.196 765.59 161.933 765.469 161.695C765.324 161.458 765.123 161.26 764.883 161.12C764.644 160.979 764.373 160.899 764.095 160.887H762.802C762.375 160.984 761.966 161.148 761.59 161.372V160.24C762.09 159.955 762.638 159.764 763.206 159.674C763.823 159.593 764.448 159.593 765.065 159.674C765.513 159.787 765.947 159.949 766.359 160.159C766.685 160.365 766.961 160.641 767.167 160.968C767.408 161.275 767.575 161.635 767.652 162.018C767.536 162.597 767.255 163.131 766.844 163.554Z" fill="white"/>
<path d="M790.699 167.843C790.514 168.483 790.27 169.106 789.972 169.702C789.624 170.331 789.218 170.927 788.759 171.48L787.143 173.178L785.526 174.714L784.475 175.279H785.607L789.487 176.007V177.3L782.535 176.007V175.522L783.586 174.714L784.96 173.582L786.415 172.208L787.708 170.753C788.113 170.28 788.465 169.765 788.759 169.217C789.065 168.756 789.258 168.23 789.325 167.681C789.491 167.211 789.491 166.697 789.325 166.226C789.175 165.987 788.974 165.783 788.736 165.63C788.499 165.476 788.231 165.376 787.951 165.337C787.496 165.259 787.031 165.259 786.577 165.337L785.445 165.741L785.041 164.69C785.502 164.385 786.028 164.191 786.577 164.125C787.19 164.003 787.822 164.003 788.436 164.125C789.277 164.277 790.044 164.704 790.618 165.337C790.861 165.674 791.027 166.061 791.103 166.469C791.079 166.952 790.94 167.423 790.699 167.843Z" fill="white"/>
<path d="M794.978 177.294H796.109C796.451 177.209 796.778 177.073 797.079 176.89C797.394 176.733 797.65 176.477 797.807 176.162C797.866 175.841 797.866 175.513 797.807 175.192C797.956 174.891 798.034 174.559 798.034 174.222C798.034 173.886 797.956 173.554 797.807 173.252C797.295 172.71 796.608 172.366 795.867 172.282H794.573V171.797L797.807 168.321L798.777 167.756H797.564L794.169 167.19V165.896L800.474 167.028V167.513L796.917 171.151L796.19 171.555H796.837C797.259 171.628 797.667 171.764 798.049 171.959C798.426 172.191 798.755 172.493 799.019 172.848L799.504 174.06C799.586 174.542 799.586 175.034 799.504 175.515C799.388 176.089 799.169 176.637 798.857 177.132C798.564 177.563 798.177 177.922 797.726 178.183C797.288 178.475 796.791 178.668 796.271 178.749C795.711 178.869 795.133 178.869 794.573 178.749H793.199C792.817 178.627 792.461 178.435 792.148 178.183L792.714 177.051L793.603 177.536L794.978 177.294Z" fill="white"/>
<path d="M823.992 173.734C823.9 174.39 823.68 175.021 823.345 175.593C822.988 176.236 822.554 176.833 822.052 177.371C821.604 177.992 821.089 178.561 820.516 179.069L818.819 180.605L817.849 181.251H818.981L822.78 181.898V183.191L815.828 181.979V181.494L816.96 180.605L818.334 179.473L819.789 178.18L821.082 176.725L822.133 175.189C822.379 174.7 822.569 174.185 822.699 173.653C822.86 173.154 822.86 172.617 822.699 172.117C822.544 171.889 822.34 171.698 822.103 171.558C821.865 171.419 821.599 171.333 821.325 171.309C820.874 171.189 820.401 171.189 819.951 171.309L818.738 171.713V170.581C819.244 170.31 819.79 170.119 820.355 170.016H822.214C822.666 170.114 823.102 170.277 823.507 170.501C823.841 170.726 824.14 170.998 824.396 171.309C824.442 171.658 824.442 172.011 824.396 172.36C824.372 172.843 824.233 173.314 823.992 173.734Z" fill="white"/>
<path d="M833.858 181.42L831.837 181.015L831.19 184.814H829.816L830.463 181.015L825.047 180.126V179.48L832.241 172.447H833.211L831.918 179.884L833.938 180.288L833.858 181.42ZM831.352 175.761L831.756 174.387L830.948 175.438L827.876 178.348L826.825 179.075H828.118H830.705L831.352 175.761Z" fill="white"/>
<defs>
<filter id="filter0_b_4467_117516" x="-76.1211" y="-95.6152" width="1043.88" height="414.549" filterUnits="userSpaceOnUse" color-interpolation-filters="sRGB">
<feFlood flood-opacity="0" result="BackgroundImageFix"/>
<feGaussianBlur in="BackgroundImageFix" stdDeviation="38.5"/>
<feComposite in2="SourceAlpha" operator="in" result="effect1_backgroundBlur_4467_117516"/>
<feBlend mode="normal" in="SourceGraphic" in2="effect1_backgroundBlur_4467_117516" result="shape"/>
</filter>
<linearGradient id="paint0_linear_4467_117516" x1="431.841" y1="176.317" x2="459.026" y2="40.4341" gradientUnits="userSpaceOnUse">
<stop stop-color="#171717"/>
<stop offset="0.51" stop-color="#5E5E5E"/>
<stop offset="1" stop-color="#171717"/>
</linearGradient>
</defs>
</svg>
