<svg width="36" height="36" viewBox="0 0 36 36" fill="none" xmlns="http://www.w3.org/2000/svg">
<path d="M30.8037 23.153C31.7588 23.1283 32.7203 23.0821 33.6218 23.4739C34.8759 24.0192 35.6852 24.9884 35.846 26.3333C36.084 28.3266 35.9982 30.3423 35.9093 32.3409C35.8074 34.6325 33.9423 36.0043 31.9046 36C22.5092 35.9785 13.1139 35.9968 3.71849 35.9817C2.43755 35.9796 1.43423 35.3581 0.696751 34.3245C0.197237 33.6246 -0.0010676 32.8422 4.32027e-06 31.9695C0.017155 22.48 -0.0010676 12.9915 0.0343057 3.50196C0.0385934 2.20857 0.811446 1.25113 1.88658 0.556673C2.5233 0.145577 3.24577 0.0264343 3.97682 0.0157007C5.58041 -0.00683978 7.184 -0.00254635 8.78759 0.0124806C10.1618 0.0253609 11.3195 0.498711 12.1416 1.66116C12.5865 2.29014 12.7762 3.00071 12.8319 3.74884C12.8662 4.21467 12.8319 4.6848 12.8287 5.15279C11.1051 5.15171 9.38036 5.14742 7.65672 5.15064C6.97605 5.15279 6.4283 5.72274 6.42508 6.41398C6.42187 7.13528 6.96318 7.71704 7.65672 7.71811C9.38036 7.72133 11.1051 7.71704 12.8287 7.71596C12.8287 9.43119 12.8287 11.1475 12.8287 12.8627C11.1051 12.8616 9.38036 12.8573 7.65672 12.8606C6.97605 12.8616 6.4283 13.4316 6.42508 14.1239C6.42187 14.8452 6.96318 15.427 7.65672 15.428C9.38036 15.4312 11.1051 15.427 12.8287 15.4259C12.8287 17.1411 12.8287 18.8574 12.8287 20.5726C11.1072 20.5716 9.38572 20.5673 7.66315 20.5705C6.96533 20.5716 6.42294 21.1458 6.42508 21.865C6.42723 22.5766 6.97712 23.138 7.68459 23.139C9.40609 23.1412 11.1276 23.138 12.8502 23.1369L12.8448 23.1315C12.8437 24.8553 12.8416 26.5802 12.8427 28.304C12.8437 29.0124 13.4043 29.5641 14.114 29.5652C14.8311 29.5674 15.4056 29.0232 15.4067 28.3244C15.4099 26.6006 15.4056 24.8757 15.4045 23.1519C17.1175 23.1519 18.8315 23.1519 20.5444 23.1519C20.5433 24.8779 20.539 26.6049 20.5422 28.3309C20.5433 29.0114 21.1146 29.5609 21.8039 29.5641C22.5242 29.5674 23.1041 29.0253 23.1052 28.3309C23.1084 26.6049 23.1041 24.8779 23.1031 23.1519C24.816 23.1519 26.53 23.1519 28.2429 23.1519C28.2418 24.8779 28.2375 26.6049 28.2408 28.3309C28.2418 29.0114 28.8132 29.5609 29.5024 29.5641C30.2227 29.5674 30.8026 29.0253 30.8037 28.3309C30.8091 26.606 30.8048 24.88 30.8037 23.153Z" fill="#FEA759"/>
<path d="M12.8294 7.71494C11.1058 7.71601 9.38107 7.7203 7.65743 7.71708C6.96497 7.71601 6.42258 7.13425 6.4258 6.41296C6.42901 5.72064 6.97676 5.15069 7.65743 5.14961C9.38107 5.14639 11.1058 5.15069 12.8294 5.15176C12.8294 6.00615 12.8294 6.86054 12.8294 7.71494Z" fill="#D86F3B"/>
<path d="M12.8294 15.4259C11.1058 15.4269 9.38107 15.4312 7.65743 15.428C6.96497 15.4269 6.42258 14.8452 6.4258 14.1239C6.42901 13.4316 6.97676 12.8616 7.65743 12.8606C9.38107 12.8573 11.1058 12.8616 12.8294 12.8627C12.8294 13.7171 12.8294 14.5715 12.8294 15.4259Z" fill="#D86F3B"/>
<path d="M12.8509 23.1379C11.1294 23.139 9.40786 23.1411 7.68529 23.14C6.97783 23.139 6.42793 22.5776 6.42579 21.866C6.42364 21.1468 6.96603 20.5726 7.66385 20.5715C9.38535 20.5683 11.1069 20.5726 12.8294 20.5736C12.8369 21.4291 12.8434 22.2835 12.8509 23.1379Z" fill="#D86F3B"/>
<path d="M15.4064 23.1532C15.4074 24.877 15.4117 26.6019 15.4085 28.3257C15.4074 29.0234 14.8329 29.5676 14.1158 29.5665C13.4051 29.5644 12.8445 29.0137 12.8445 28.3053C12.8423 26.5815 12.8455 24.8566 12.8466 23.1328C13.6999 23.1393 14.5531 23.1468 15.4064 23.1532Z" fill="#D86F3B"/>
<path d="M23.105 23.1523C23.106 24.8783 23.1103 26.6053 23.1071 28.3313C23.106 29.0258 22.5261 29.5678 21.8058 29.5646C21.1165 29.5614 20.5452 29.0107 20.5441 28.3313C20.5409 26.6053 20.5452 24.8783 20.5463 23.1523C21.3985 23.1523 22.2517 23.1523 23.105 23.1523Z" fill="#D86F3B"/>
<path d="M30.8042 23.1523C30.8052 24.8783 30.8095 26.6053 30.8063 28.3313C30.8052 29.0258 30.2253 29.5678 29.505 29.5646C28.8158 29.5614 28.2444 29.0107 28.2434 28.3313C28.2401 26.6053 28.2444 24.8783 28.2455 23.1523C29.0977 23.1523 29.9509 23.1523 30.8042 23.1523Z" fill="#D86F3B"/>
</svg>
