<svg width="39" height="39" viewBox="0 0 39 39" fill="none" xmlns="http://www.w3.org/2000/svg">
<path d="M0.627509 18.9016C1.03818 18.1238 1.70647 17.969 2.53869 17.9707C13.8318 17.9902 25.1233 17.9992 36.413 17.9975C36.809 18.0017 37.1958 18.1176 37.5288 18.332C37.9888 18.644 38.1143 19.1576 37.947 19.7088C37.8715 19.9637 37.7209 20.19 37.5149 20.358C37.3088 20.526 37.0568 20.628 36.7919 20.6506C36.6405 20.6639 36.4866 20.6564 36.3336 20.6564C25.07 20.6564 13.8048 20.6609 2.53785 20.6698C1.70145 20.6698 1.03818 20.5125 0.625 19.7389L0.627509 18.9016Z" fill="#4E42CA"/>
<path d="M0.628906 26.9119C0.684109 26.8375 0.745166 26.7672 0.796187 26.6886C1.12573 26.1424 1.71623 25.8823 2.28415 26.032C2.57716 26.1036 2.83723 26.2724 3.02183 26.511C3.20643 26.7495 3.30463 27.0436 3.30038 27.3452C3.30707 29.4713 3.30038 31.5975 3.30038 33.7236C3.30038 34.8544 3.78884 35.3404 4.92551 35.3404C7.25963 35.3404 9.59431 35.3404 11.9296 35.3404C12.6631 35.3404 13.2335 35.8422 13.3079 36.5281C13.3429 36.8572 13.2546 37.1877 13.0601 37.4555C12.8656 37.7234 12.5787 37.9097 12.2549 37.9784C12.0909 38.0067 11.9244 38.0173 11.7581 38.0102C9.46857 38.0107 7.17683 38.011 4.88285 38.011C2.78515 38.011 1.36076 36.9588 0.740148 34.9573C0.710315 34.8866 0.673023 34.8193 0.628906 34.7566L0.628906 26.9119Z" fill="#1F1F3C"/>
<path d="M12.3126 0.625C12.3168 0.638382 12.3176 0.659293 12.3268 0.663475C13.0938 1.01644 13.4384 1.58352 13.2845 2.24344C13.1239 2.92678 12.587 3.29564 11.7481 3.29564H4.83267C3.81114 3.29564 3.3001 3.80835 3.29954 4.83378C3.29954 6.90304 3.29954 8.97203 3.29954 11.0407C3.29954 11.8972 2.98505 12.3932 2.32095 12.5881C1.67441 12.7779 1.16002 12.5153 0.696655 11.7634C0.684945 11.7433 0.652326 11.7366 0.628906 11.7241V3.87945C0.679696 3.80477 0.722318 3.72485 0.75604 3.64107C1.18595 2.14391 2.14893 1.18093 3.64498 0.752133C3.72876 0.718412 3.80867 0.67579 3.88335 0.625H12.3126Z" fill="#1F1F3C"/>
<path d="M34.5937 0.625C34.7175 0.663475 34.8387 0.70864 34.9642 0.739587C36.6997 1.16532 37.9853 2.72019 38.0062 4.5034C38.033 6.76754 38.0204 9.03252 38.0121 11.2975C38.0165 11.4752 37.9854 11.652 37.9204 11.8175C37.8555 11.983 37.7581 12.1339 37.634 12.2612C37.5098 12.3884 37.3615 12.4896 37.1977 12.5586C37.0338 12.6277 36.8579 12.6633 36.6801 12.6633C36.5023 12.6633 36.3263 12.6277 36.1625 12.5586C35.9987 12.4896 35.8503 12.3884 35.7262 12.2612C35.6021 12.1339 35.5047 11.983 35.4398 11.8175C35.3748 11.652 35.3437 11.4752 35.3481 11.2975C35.3397 9.14377 35.3481 6.99003 35.3481 4.83629C35.3481 3.81839 34.8279 3.29731 33.8133 3.29647H26.9322C26.0791 3.29647 25.5772 2.9778 25.3832 2.31704C25.1942 1.66967 25.4568 1.15528 26.2096 0.693585C26.2288 0.681875 26.2355 0.649256 26.2489 0.625836L34.5937 0.625Z" fill="#1F1F3C"/>
<path d="M30.4663 38.0126C29.2435 38.0126 28.0198 38.0126 26.797 38.0126C25.9255 38.0126 25.3174 37.4464 25.3283 36.6568C25.3391 35.884 25.938 35.3437 26.7945 35.3428C29.1297 35.3428 31.465 35.3428 33.8002 35.3428C34.8248 35.3428 35.3409 34.8293 35.3417 33.8089C35.3417 31.6543 35.3375 29.4997 35.3417 27.3452C35.337 27.0188 35.4525 26.7021 35.6662 26.4553C35.8799 26.2086 36.1768 26.0491 36.5005 26.0071C36.8242 25.9652 37.1521 26.0437 37.4216 26.2279C37.6911 26.412 37.8835 26.6888 37.9621 27.0056C37.9978 27.1678 38.0129 27.3339 38.0073 27.4999C38.0073 29.6271 38.0073 31.7538 38.0073 33.88C38.0015 36.2729 36.2709 38.0051 33.8822 38.0135C32.743 38.0126 31.6063 38.0126 30.4663 38.0126Z" fill="#1F1F3C"/>
</svg>
