<svg width="49" height="49" viewBox="0 0 49 49" fill="none" xmlns="http://www.w3.org/2000/svg">
<path fill-rule="evenodd" clip-rule="evenodd" d="M5.75 11.1328C5.75 9.06174 7.42893 7.38281 9.5 7.38281H39.5C41.5711 7.38281 43.25 9.06174 43.25 11.1328V32.5614C43.25 34.6325 41.5711 36.3114 39.5 36.3114H9.5C7.42893 36.3114 5.75 34.6325 5.75 32.5614V11.1328ZM9.5 8.88281C8.25736 8.88281 7.25 9.89017 7.25 11.1328V32.5614C7.25 33.804 8.25736 34.8114 9.5 34.8114H39.5C40.7426 34.8114 41.75 33.804 41.75 32.5614V11.1328C41.75 9.89017 40.7426 8.88281 39.5 8.88281H9.5ZM15.1476 39.9608C15.1476 38.7376 16.1391 37.7461 17.3622 37.7461H31.6376C32.8608 37.7461 33.8523 38.7376 33.8523 39.9608C33.8523 41.1839 32.8608 42.1754 31.6376 42.1754H17.3622C16.1391 42.1754 15.1476 41.1839 15.1476 39.9608ZM17.3622 39.2461C16.9675 39.2461 16.6476 39.5661 16.6476 39.9608C16.6476 40.3555 16.9675 40.6754 17.3622 40.6754H31.6376C32.0323 40.6754 32.3523 40.3555 32.3523 39.9608C32.3523 39.5661 32.0323 39.2461 31.6376 39.2461H17.3622ZM25.0302 14.458C24.8896 14.3173 24.6988 14.2383 24.4999 14.2383C24.301 14.2383 24.1102 14.3173 23.9695 14.458L18.4695 19.958C18.1767 20.2508 18.1767 20.7257 18.4695 21.0186C18.7624 21.3115 19.2373 21.3115 19.5302 21.0186L23.7499 16.7989V28.9883C23.7499 29.4025 24.0857 29.7383 24.4999 29.7383C24.9141 29.7383 25.2499 29.4025 25.2499 28.9883V16.7989L29.4695 21.0186C29.7624 21.3115 30.2373 21.3115 30.5302 21.0186C30.8231 20.7257 30.8231 20.2508 30.5302 19.958L25.0302 14.458Z" fill="black"/>
</svg>
