<svg width="48" height="48" viewBox="0 0 48 48" fill="none" xmlns="http://www.w3.org/2000/svg">
<path d="M33.4879 42.94C32.8786 42.7152 32.3915 42.3618 32.187 41.7114C32.1039 41.4476 32.084 41.1679 32.1288 40.8949C32.1735 40.622 32.2818 40.3633 32.4447 40.1398C32.6077 39.9163 32.8209 39.7342 33.0671 39.6081C33.3133 39.482 33.5856 39.4155 33.8622 39.4139C34.9788 39.4016 36.0947 39.4139 37.2105 39.4103C37.9846 39.4103 38.4637 38.9297 38.4652 38.1557C38.4652 37.0991 38.4652 36.0425 38.4652 34.9866C38.4652 33.9856 39.0354 33.2326 39.9106 33.0707C40.8125 32.9037 41.5967 33.4067 41.9486 34.3766C41.9559 34.3968 41.979 34.412 41.9949 34.4294V38.9745C41.9657 39.0338 41.9415 39.0955 41.9226 39.1588C41.5381 40.8297 40.5553 41.9969 38.9682 42.643C38.6444 42.7745 38.2953 42.8446 37.9564 42.9429L33.4879 42.94Z" fill="#FE5401"/>
<path d="M8.96523 42.9396C8.7448 42.8674 8.52365 42.7951 8.3025 42.7228C7.36659 42.418 6.55059 41.8259 5.9705 41.0307C5.39041 40.2355 5.07575 39.2776 5.07126 38.2933C5.07126 37.176 5.10812 36.0529 5.06042 34.9399C5.01055 33.7713 5.99344 33.0501 6.72699 33.0508C7.81106 33.0508 8.56484 33.7735 8.58147 34.9045C8.59737 35.9619 8.58147 37.0199 8.5858 38.078C8.5858 38.9691 9.02449 39.4063 9.9062 39.4063C10.9281 39.4063 11.9498 39.4063 12.9712 39.4063C13.9563 39.4063 14.6884 39.9606 14.8654 40.8365C15.0425 41.7125 14.5648 42.4988 13.6498 42.871C13.6224 42.8818 13.605 42.9158 13.5826 42.9389L8.96523 42.9396Z" fill="#FE7F01"/>
<path d="M42.0006 14.5135C41.9522 14.6024 41.8995 14.6891 41.8561 14.7802C41.692 15.1486 41.4068 15.45 41.048 15.6342C40.6891 15.8184 40.2781 15.8745 39.883 15.7931C39.4879 15.7117 39.1325 15.4977 38.8757 15.1867C38.6188 14.8756 38.476 14.4861 38.4709 14.0827C38.4615 12.9886 38.4709 11.8951 38.4709 10.8009C38.4709 9.96834 38.0214 9.51882 37.1809 9.51593C36.1236 9.51231 35.0655 9.52171 34.0082 9.51231C33.0578 9.50364 32.3828 8.99991 32.1595 8.15795C31.8827 7.11291 32.7066 6.00933 33.7856 6.0021C35.0236 5.99271 36.2616 5.9956 37.4989 6.0021C39.5846 6.00933 41.5836 7.72505 41.9284 9.78839C41.9461 9.85073 41.9703 9.91105 42.0006 9.96834V14.5135Z" fill="#FE5501"/>
<path d="M35.4219 25.4908C35.4219 28.5551 35.4393 31.6187 35.4219 34.683C35.4169 35.6514 34.6017 36.3749 33.5855 36.3763C31.2305 36.3816 28.8756 36.3816 26.521 36.3763C25.5001 36.3763 24.4789 36.3744 23.4575 36.3705L23.4531 25.2581C23.8571 24.943 24.2358 24.5867 24.6694 24.3186C26.5637 23.1572 28.6147 22.7886 30.8053 23.1565C32.5911 23.46 34.0972 24.2976 35.4219 25.4908Z" fill="#007ECC"/>
<path d="M35.4256 25.4878C34.0995 24.291 32.5933 23.4569 30.8111 23.157C28.6206 22.7892 26.5695 23.157 24.6753 24.3191C24.2417 24.5851 23.863 24.9414 23.459 25.2587C23.4352 25.2633 23.411 25.2653 23.3867 25.2644C23.3867 21.0086 23.3867 16.7526 23.3867 12.4963C23.3867 12.4761 23.3867 12.4566 23.3867 12.4363C25.4893 12.4325 27.5912 12.4286 29.6924 12.4248C30.882 12.4248 32.0708 12.4183 33.2604 12.4248C34.4673 12.4327 35.4242 13.3643 35.4285 14.5676C35.4379 18.1602 35.4321 21.7528 35.4285 25.3447C35.4372 25.3924 35.4307 25.4401 35.4256 25.4878Z" fill="#5CAEFE"/>
<path d="M23.3918 12.494C23.3918 16.7503 23.3918 21.0063 23.3918 25.2621C22.3942 26.1752 21.6159 27.3021 21.1153 28.5584C21.0647 28.5483 21.051 28.5498 21.043 28.5433C20.9953 28.5071 20.9484 28.471 20.9028 28.432C19.6693 27.3787 18.1153 26.7744 16.4943 26.7177C14.7713 26.6454 13.2081 27.1434 11.8118 28.1667C11.7037 28.2357 11.616 28.3324 11.5579 28.4468C11.4998 28.5612 11.4735 28.6891 11.4816 28.8172C11.4924 30.762 11.4816 32.7061 11.4765 34.6509C11.4482 34.525 11.4294 34.3972 11.4201 34.2686C11.4172 27.6948 11.4172 21.1208 11.4201 14.5465C11.4201 13.4487 12.2621 12.5432 13.3758 12.4297C13.5119 12.4597 13.6501 12.4795 13.7892 12.4889C16.9869 12.4942 20.1878 12.4959 23.3918 12.494ZM22.2355 20.1497C22.231 19.0023 21.7736 17.9031 20.963 17.0911C20.1523 16.279 19.0539 15.8199 17.9065 15.8134C15.4883 15.8069 13.5109 17.7402 13.5073 20.1157C13.5073 21.2693 13.9649 22.3758 14.7798 23.1924C15.5946 24.009 16.7001 24.469 17.8537 24.4715C20.2712 24.4737 22.2362 22.5361 22.2377 20.1497H22.2355Z" fill="#8BC8FE"/>
<path d="M11.4727 34.6555C11.477 32.7107 11.4886 30.7666 11.4777 28.8218C11.4696 28.6937 11.496 28.5659 11.554 28.4515C11.6121 28.3371 11.6998 28.2403 11.808 28.1714C13.2043 27.148 14.7711 26.6537 16.4904 26.7223C18.1115 26.7791 19.6654 27.3833 20.899 28.4366C20.9445 28.4749 20.9915 28.5089 21.0392 28.5479C21.0471 28.5544 21.0609 28.5529 21.1115 28.5631C21.6124 27.3069 22.3909 26.1803 23.3887 25.2675C23.4129 25.2683 23.4372 25.2664 23.461 25.2617L23.4653 36.3741C23.3426 36.4101 23.2168 36.4343 23.0895 36.4464C19.8648 36.4507 16.6398 36.4507 13.4146 36.4464C12.2973 36.4428 11.5688 35.7685 11.4727 34.6555Z" fill="#009BD2"/>
<path d="M5.00391 12.2247C5.07618 11.3069 5.03932 10.3652 5.23662 9.47479C5.68759 7.44036 7.59627 6.00145 9.67406 6C10.7798 6 11.8856 6 12.9913 6C14.0898 6 14.8704 6.69669 14.8805 7.68464C14.8899 8.76292 14.1419 9.50153 13.0058 9.51454C11.9723 9.52538 10.9381 9.51454 9.90461 9.51454C9.00772 9.51454 8.58711 9.93516 8.58494 10.8335C8.58494 11.8793 8.59867 12.925 8.5806 13.9708C8.55675 15.3439 7.27972 16.2112 6.09592 15.6605C5.44548 15.3577 5.08413 14.8351 5.07184 14.1001C5.06389 13.4786 5.07112 12.8535 5.07112 12.2283L5.00391 12.2247Z" fill="#FE7F02"/>
<path d="M23.3908 12.4968C20.1887 12.4968 16.9866 12.4968 13.7845 12.4968C13.6454 12.4873 13.5072 12.4675 13.3711 12.4375H23.3922C23.3915 12.457 23.3908 12.4765 23.3908 12.4968Z" fill="#70B8FE"/>
<path d="M22.236 20.1456C22.236 22.5305 20.2695 24.4696 17.8542 24.4667C16.7006 24.4642 15.5951 24.0042 14.7803 23.1876C13.9654 22.371 13.5078 21.2645 13.5078 20.1109C13.5078 17.7354 15.4888 15.8021 17.907 15.8086C19.0545 15.8151 20.153 16.2743 20.9637 17.0865C21.7744 17.8987 22.2316 18.9981 22.236 20.1456V20.1456Z" fill="#FEC48A"/>
</svg>
