<svg width="48" height="48" viewBox="0 0 48 48" fill="none" xmlns="http://www.w3.org/2000/svg">
<path fill-rule="evenodd" clip-rule="evenodd" d="M21.2188 11.7188C15.972 11.7188 11.7188 15.972 11.7188 21.2188C11.7188 26.4655 15.972 30.7188 21.2188 30.7188C26.4655 30.7188 30.7188 26.4655 30.7188 21.2188C30.7188 15.972 26.4655 11.7188 21.2188 11.7188ZM9.71875 21.2188C9.71875 14.8675 14.8675 9.71875 21.2188 9.71875C27.57 9.71875 32.7188 14.8675 32.7188 21.2188C32.7188 24.1245 31.6411 26.7785 29.8636 28.8029L31.2196 30.1589C31.5141 29.8959 31.9664 29.9057 32.2491 30.1884L37.7491 35.6884L38.2794 36.2188L37.2794 37.2188L37.2188 37.2794L36.2188 38.2794L35.6884 37.7491L30.1884 32.2491C29.9057 31.9664 29.8959 31.5141 30.1589 31.2196L28.8029 29.8636C26.7785 31.6411 24.1245 32.7188 21.2188 32.7188C14.8675 32.7188 9.71875 27.57 9.71875 21.2188ZM20.2067 16.0894L20.6567 23.2894H21.5567L22.0427 16.2694C22.0427 15.9094 22.0007 15.6214 21.9167 15.4054C21.8447 15.1774 21.7427 15.0154 21.6107 14.9194C21.4787 14.8114 21.3167 14.7574 21.1247 14.7574C20.9327 14.7574 20.7647 14.8114 20.6207 14.9194C20.4887 15.0154 20.3867 15.1654 20.3147 15.3694C20.2427 15.5614 20.2067 15.8014 20.2067 16.0894ZM20.3327 26.6734C20.5487 26.8774 20.8007 26.9794 21.0887 26.9794C21.3767 26.9794 21.6287 26.8774 21.8447 26.6734C22.0607 26.4574 22.1687 26.2114 22.1687 25.9354C22.1687 25.6474 22.0607 25.3954 21.8447 25.1794C21.6287 24.9634 21.3767 24.8554 21.0887 24.8554C20.8007 24.8554 20.5487 24.9634 20.3327 25.1794C20.1287 25.3954 20.0267 25.6474 20.0267 25.9354C20.0267 26.2234 20.1287 26.4694 20.3327 26.6734Z" fill="black"/>
</svg>
