<svg width="17" height="16" viewBox="0 0 17 16" fill="none" xmlns="http://www.w3.org/2000/svg">
<path opacity="0.5" fill-rule="evenodd" clip-rule="evenodd" d="M10.5333 3.52516C12.4811 5.46529 12.4811 8.61088 10.5333 10.551C8.58558 12.4911 5.42763 12.4912 3.47986 10.551C1.53209 8.61088 1.53209 5.46529 3.47986 3.52516C5.42763 1.58502 8.58558 1.58502 10.5333 3.52516ZM12.8225 10.9056C14.6406 8.1992 14.3499 4.50389 11.9503 2.11372C9.21999 -0.605929 4.79322 -0.605928 2.06287 2.11372C-0.667475 4.83337 -0.667475 9.2428 2.06287 11.9624C4.64125 14.5307 8.73245 14.6737 11.4792 12.3913L14.7328 15.6652L16.157 14.2609L12.8225 10.9056Z" fill="black"/>
</svg>
