<svg width="51" height="52" viewBox="0 0 51 52" fill="none" xmlns="http://www.w3.org/2000/svg">
<rect x="0.5" y="1" width="50" height="50" rx="25" fill="#FBFBFB" stroke="#DDDDDD"/>
<g opacity="0.8">
<path d="M37.5 26.9443C37.439 27.3245 37.3967 27.714 37.317 28.0895C36.4487 32.2101 34.0411 35.0308 30.0706 36.4247C25.551 38.011 20.4635 36.298 17.7086 32.3556C17.3566 31.8534 17.4411 31.2433 17.9104 30.9054C18.375 30.5722 18.9804 30.6942 19.3418 31.1964C20.7263 33.1253 22.5708 34.3737 24.908 34.8102C28.0572 35.3969 30.7746 34.5098 33.018 32.2383C34.4588 30.7787 35.2519 28.9906 35.4444 26.949C35.8714 22.3355 32.7551 18.1914 28.2261 17.3513C23.7112 16.5065 19.3043 19.2427 18.0371 23.6731C18.0136 23.7529 17.9996 23.8374 17.9714 23.95C18.483 23.6074 18.9664 23.2742 19.4545 22.9551C20.1162 22.5233 20.9235 22.8753 21.0314 23.6497C21.0877 24.0392 20.9328 24.363 20.6137 24.5836C19.5061 25.3392 18.3938 26.0901 17.2768 26.8317C16.8028 27.1461 16.2114 27.0382 15.8923 26.5642C15.1273 25.4331 14.3764 24.2926 13.6348 23.1475C13.3908 22.7673 13.4706 22.0915 13.9352 21.8005C14.3905 21.5142 14.9724 21.6034 15.2916 22.0446C15.5121 22.3449 15.7093 22.6641 15.9158 22.9785C15.9627 23.0489 16.0143 23.1146 16.0472 23.1616C16.2912 22.5327 16.493 21.885 16.7887 21.2796C18.4266 17.9427 21.0877 15.9152 24.7344 15.1924C25.1896 15.1033 25.6589 15.0657 26.1189 15C26.4474 15 26.7759 15 27.1045 15C27.5128 15.0516 27.9258 15.0845 28.3294 15.1549C30.6385 15.5538 32.6378 16.5675 34.2945 18.229C35.8949 19.834 36.9133 21.7583 37.317 23.9923C37.3874 24.3818 37.439 24.776 37.5 25.1656C37.5 25.7569 37.5 26.3483 37.5 26.9443Z" fill="black"/>
<path d="M25.5086 23.4856C25.5086 22.6596 25.5086 21.8289 25.5086 21.0028C25.5086 20.4021 25.9263 19.9656 26.5036 19.9609C27.0761 19.9609 27.5126 20.3927 27.5126 20.9935C27.5173 22.4531 27.5173 23.9127 27.5126 25.3723C27.5126 25.5318 27.5595 25.6445 27.6722 25.7618C28.517 26.6066 29.3618 27.4514 30.1925 28.3055C30.7791 28.9063 30.5163 29.8215 29.7184 30.0045C29.3758 30.0843 29.0614 29.9951 28.8126 29.7464C27.8036 28.7373 26.7992 27.7189 25.7949 26.7051C25.5931 26.5033 25.5039 26.2546 25.5039 25.9636C25.5133 25.1376 25.5086 24.3116 25.5086 23.4856Z" fill="black"/>
</g>
</svg>
