<svg width="48" height="48" viewBox="0 0 48 48" fill="none" xmlns="http://www.w3.org/2000/svg">
<path d="M20.2177 45.6007C19.7107 45.3809 19.5163 45.0006 19.5163 44.4428C19.5332 40.8086 19.5247 37.1829 19.5247 33.5488C19.5247 33.3797 19.5163 33.2107 19.5078 33.0417C19.5078 32.4163 19.5078 31.7908 19.5078 31.1654C19.5163 30.9795 19.5247 30.802 19.5247 30.6161C19.5247 24.0492 19.5247 17.4909 19.5247 10.924C19.5247 10.7381 19.5163 10.5606 19.5416 10.3747C19.6261 9.74925 20.3023 9.41964 20.8432 9.74079C20.9953 9.83376 21.139 9.96054 21.2657 10.0873C28.9228 17.7359 36.5715 25.3846 44.2116 33.0501C44.4229 33.2614 44.6004 33.5741 44.6596 33.8615C44.7441 34.2671 44.4483 34.6306 44.0426 34.732C43.8567 34.7827 43.6538 34.7911 43.4595 34.7911C39.3436 34.7911 35.2277 34.7996 31.1033 34.7827C30.8075 34.7827 30.6131 34.8672 30.4187 35.0869C27.4184 38.3746 24.4097 41.6622 21.3925 44.9414C21.1728 45.1865 20.8854 45.3725 20.6319 45.5922C20.4966 45.6007 20.3614 45.6007 20.2177 45.6007Z" fill="#2790CF"/>
<path d="M11.4055 31.139C12.0731 31.1728 12.7493 31.1813 13.4169 31.2574C13.8142 31.2996 14.11 31.7053 14.1184 32.0856C14.1269 32.4913 13.848 32.8462 13.4085 32.9477C13.2564 32.9815 13.1042 33.0237 12.9521 33.0237C11.9126 33.0322 10.873 33.0322 9.83349 33.0237C9.19962 33.0237 8.77705 32.6941 8.74324 32.2039C8.70098 31.5954 9.10666 31.1897 9.79968 31.1813C10.3321 31.1728 10.8646 31.1813 11.397 31.1813C11.4055 31.1644 11.4055 31.1559 11.4055 31.139Z" fill="#CFDADE"/>
<path d="M11.3918 4.18724C10.8171 4.18724 10.2424 4.18724 9.66768 4.18724C9.14368 4.18724 8.77182 3.87453 8.74646 3.41815C8.71266 2.87725 9.05072 2.43777 9.59162 2.42087C10.8255 2.39552 12.0595 2.39552 13.2934 2.42087C13.7498 2.42932 14.147 2.94487 14.1132 3.37589C14.0709 3.83228 13.6906 4.17879 13.2004 4.17879C12.5919 4.18724 11.9918 4.18724 11.3918 4.18724Z" fill="#CED9DD"/>
<path d="M25.8049 4.18778C25.2471 4.18778 24.6809 4.16243 24.1231 4.19623C23.4976 4.23849 23.1596 3.82437 23.1173 3.35108C23.0666 2.81018 23.4976 2.42986 24.1315 2.42141C25.095 2.41296 26.0669 2.42141 27.0304 2.42141C27.2248 2.42141 27.4276 2.40451 27.622 2.42986C28.1629 2.48057 28.5094 2.88625 28.484 3.41869C28.4587 3.87508 28.0953 4.19623 27.5713 4.19623C26.9797 4.18778 26.3965 4.18778 25.8049 4.18778Z" fill="#CED9DD"/>
<path d="M3.34946 17.7178C3.34946 17.1431 3.34946 16.5684 3.34946 15.9852C3.34946 15.4274 3.69597 15.0218 4.17771 14.9964C4.6679 14.9711 5.10738 15.4105 5.11583 15.9768C5.13273 16.9149 5.12428 17.8615 5.12428 18.7996C5.12428 19.0362 5.14118 19.2813 5.11583 19.518C5.06512 20.0673 4.651 20.4054 4.1101 20.3716C3.65371 20.3462 3.34946 19.9744 3.34946 19.4419C3.34101 18.8757 3.34946 18.301 3.34946 17.7178Z" fill="#CED9DD"/>
<path d="M33.8848 17.7351C33.8848 18.3098 33.8848 18.8845 33.8848 19.4676C33.8848 19.9916 33.5637 20.3635 33.1073 20.3888C32.5833 20.4142 32.1354 20.093 32.1269 19.569C32.0931 18.3436 32.0931 17.1265 32.1269 15.9011C32.1354 15.3855 32.6256 14.963 33.0735 15.0306C33.6313 15.1151 33.9355 15.5039 33.9017 16.0194C33.851 16.5772 33.8848 17.1604 33.8848 17.7351Z" fill="#CED9DD"/>
<path d="M3.34782 24.8937C3.34782 24.319 3.34782 23.7443 3.34782 23.1696C3.34782 22.6203 3.66897 22.2568 4.14226 22.2399C4.70006 22.223 5.10573 22.5865 5.11419 23.1612C5.13109 24.1584 5.12264 25.1473 5.11419 26.1446C5.11419 26.4235 5.10573 26.7024 5.03812 26.9728C4.9367 27.3869 4.50568 27.6489 4.12536 27.5982C3.67743 27.5306 3.35627 27.1925 3.35627 26.7446C3.33936 26.1192 3.34782 25.5022 3.34782 24.8937Z" fill="#CED9DD"/>
<path d="M18.5768 4.18724C18.0021 4.18724 17.4274 4.19569 16.8527 4.18724C16.3541 4.17879 15.9569 3.81537 15.923 3.34209C15.8977 2.89416 16.2865 2.42932 16.7851 2.42087C18.0021 2.39552 19.2276 2.39552 20.4446 2.42087C20.9179 2.42932 21.3405 2.91106 21.3151 3.33364C21.2898 3.80692 20.8925 4.17879 20.3939 4.17879C19.7769 4.18724 19.1769 4.18724 18.5768 4.18724Z" fill="#CED9DD"/>
<path d="M3.34946 10.4914C3.34946 9.91669 3.34946 9.34199 3.34946 8.76728C3.34946 8.23483 3.72978 7.82916 4.21152 7.81226C4.64254 7.80381 5.10738 8.22638 5.11583 8.69967C5.13273 9.90824 5.13273 11.1168 5.11583 12.3169C5.10738 12.7987 4.64254 13.2128 4.21152 13.2043C3.72978 13.1874 3.34946 12.7818 3.34946 12.2578C3.34101 11.6662 3.34946 11.0745 3.34946 10.4914Z" fill="#CED9DD"/>
<path d="M33.8826 10.534C33.8826 11.1087 33.8826 11.6834 33.8826 12.2581C33.8826 12.7821 33.5022 13.1962 33.0205 13.2047C32.5895 13.2216 32.1246 12.799 32.1162 12.3173C32.0993 11.1087 32.0993 9.90014 32.1162 8.70003C32.1246 8.22674 32.5895 7.79571 33.0205 7.81261C33.5022 7.82952 33.8826 8.23519 33.8826 8.75919C33.8826 9.35079 33.8826 9.9424 33.8826 10.534Z" fill="#CED9DD"/>
<path d="M3.34961 31.2163C3.34961 30.9205 3.34961 30.6247 3.34961 30.3289C3.35806 29.8303 3.72993 29.4331 4.19476 29.4077C4.62579 29.3823 5.07372 29.8049 5.11598 30.2782C5.14133 30.5571 5.04837 30.929 5.19204 31.0811C5.33572 31.2332 5.71604 31.1403 5.98649 31.1825C6.57809 31.2586 6.9077 31.6136 6.8908 32.146C6.8739 32.6277 6.51048 32.9912 5.93578 33.0165C5.38643 33.0419 4.83708 33.0503 4.29618 33.0165C3.66232 32.9827 3.34961 32.6193 3.34961 31.977C3.34961 31.7234 3.34961 31.4699 3.34961 31.2163Z" fill="#CED9DD"/>
<path d="M3.34809 4.20443C3.34809 3.92553 3.34809 3.63817 3.34809 3.35927C3.35654 2.80992 3.70306 2.4296 4.26086 2.4127C4.83556 2.3958 5.41027 2.3958 5.98497 2.4127C6.54277 2.43806 6.90619 2.83528 6.88928 3.36772C6.88083 3.85791 6.51742 4.17907 5.97652 4.18752C5.15672 4.19598 5.15672 4.19597 5.12291 5.01577C5.08911 5.78486 4.41298 6.2497 3.81293 5.86938C3.60164 5.73415 3.43261 5.4299 3.36499 5.17635C3.28893 4.8721 3.34809 4.53404 3.34809 4.20443Z" fill="#CED9DD"/>
<path d="M33.8831 4.25514C33.8831 4.50868 33.8578 4.76223 33.8916 5.01577C33.9507 5.53132 33.6296 5.92009 33.0718 6.0046C32.6408 6.07222 32.2097 5.66654 32.1252 5.17635C32.1168 5.10874 32.1168 5.03268 32.1168 4.96506C32.0999 4.19598 32.0999 4.19598 31.297 4.18752C30.7138 4.17907 30.3504 3.86637 30.3419 3.35927C30.3335 2.82683 30.6885 2.4296 31.2547 2.4127C31.8294 2.3958 32.4041 2.3958 32.9788 2.4127C33.5366 2.4296 33.8747 2.80992 33.8831 3.36772C33.8831 3.66353 33.8831 3.95933 33.8831 4.25514Z" fill="#CED9DD"/>
<path d="M19.5062 31.1653C19.5062 31.7907 19.5062 32.4161 19.5062 33.0415C18.6695 33.0331 17.8244 33.0415 16.9877 33.0246C16.5989 33.0162 16.2524 32.9147 16.0411 32.526C15.8552 32.1879 15.9059 31.8752 16.1087 31.5794C16.3538 31.216 16.7426 31.1991 17.1144 31.1822C17.9089 31.1653 18.7033 31.1737 19.5062 31.1653Z" fill="#C6D6E1"/>
</svg>
