<svg width="16" height="22" viewBox="0 0 16 22" fill="none" xmlns="http://www.w3.org/2000/svg">
<path d="M0.621464 21.9963C0.302596 21.864 0.180364 21.6352 0.180364 21.2995C0.190993 19.1126 0.185678 16.9308 0.185678 14.7439C0.185678 14.6422 0.180363 14.5405 0.175049 14.4387C0.175049 14.0624 0.175049 13.686 0.175049 13.3097C0.180363 13.1978 0.185678 13.091 0.185678 12.9791C0.185678 9.02744 0.185678 5.08085 0.185678 1.12917C0.185678 1.01728 0.180364 0.910481 0.196307 0.798594C0.249452 0.422244 0.674608 0.223897 1.01473 0.417158C1.11039 0.473102 1.20074 0.549389 1.28046 0.625676C6.09535 5.22834 10.9049 9.831 15.7092 14.4438C15.8421 14.571 15.9537 14.7591 15.9909 14.9321C16.044 15.1762 15.858 15.3949 15.6029 15.4559C15.486 15.4864 15.3585 15.4915 15.2362 15.4915C12.6481 15.4915 10.0599 15.4966 7.46648 15.4864C7.28048 15.4864 7.15825 15.5373 7.03601 15.6695C5.14938 17.6479 3.25743 19.6263 1.36017 21.5996C1.222 21.7471 1.04131 21.8589 0.881872 21.9912C0.79684 21.9963 0.71181 21.9963 0.621464 21.9963Z" fill="#2790CF"/>
</svg>
