<svg width="50" height="50" viewBox="0 0 50 50" fill="none" xmlns="http://www.w3.org/2000/svg">
<circle cx="25" cy="25" r="25" fill="url(#paint0_linear_1500_131200)"/>
<path d="M27.796 25.1922L20.4579 26.4147C20.3735 26.4287 20.2943 26.4648 20.2283 26.5192C20.1623 26.5735 20.1118 26.6443 20.0818 26.7244L17.5516 33.5022C17.31 34.1256 17.9618 34.7198 18.56 34.4198L36.0967 25.6529C36.2179 25.5922 36.3198 25.4989 36.3911 25.3836C36.4623 25.2682 36.5 25.1353 36.5 24.9998C36.5 24.8642 36.4623 24.7313 36.3911 24.616C36.3198 24.5006 36.2179 24.4074 36.0967 24.3466L18.56 15.5797C17.9618 15.2807 17.31 15.8749 17.5516 16.4973L20.0828 23.2751C20.1127 23.3552 20.1633 23.426 20.2293 23.4804C20.2953 23.5348 20.3745 23.5708 20.4588 23.5849L27.797 24.8074C27.8428 24.8147 27.8844 24.8381 27.9145 24.8733C27.9446 24.9086 27.9611 24.9534 27.9611 24.9998C27.9611 25.0461 27.9446 25.091 27.9145 25.1262C27.8844 25.1615 27.8428 25.1849 27.797 25.1922H27.796Z" fill="white"/>
<defs>
<linearGradient id="paint0_linear_1500_131200" x1="6.62651" y1="4.6683e-06" x2="65.0155" y2="11.1144" gradientUnits="userSpaceOnUse">
<stop stop-color="#6E96DB"/>
<stop offset="1" stop-color="#448FD6"/>
</linearGradient>
</defs>
</svg>
