<svg width="48" height="48" viewBox="0 0 48 48" fill="none" xmlns="http://www.w3.org/2000/svg">
<path d="M23.3648 40.9916C22.725 40.9403 21.9298 41.0866 21.1467 40.9184C20.0951 40.6921 19.3029 39.7296 19.2841 38.6561C19.2743 38.116 19.2705 37.5752 19.2871 37.0351C19.2946 36.8027 19.2403 36.6805 18.9981 36.6081C18.4474 36.4421 17.9163 36.2181 17.4086 35.9473C17.226 35.85 17.103 35.8575 16.9536 36.0182C16.6202 36.3773 16.2671 36.7175 15.9171 37.0607C14.8458 38.1123 13.4425 38.1334 12.363 37.0916C11.5225 36.28 10.6942 35.454 9.88391 34.6121C8.87675 33.5643 8.89939 32.1545 9.91409 31.1127C10.2558 30.7619 10.6006 30.4127 10.956 30.0755C11.1121 29.9276 11.1679 29.8039 11.054 29.5942C10.7741 29.0767 10.5501 28.5328 10.3803 27.9701C10.3185 27.7642 10.2091 27.7197 10.0039 27.7144C9.29018 27.6978 8.57121 27.8011 7.86281 27.6465C6.83452 27.4224 6.02653 26.4614 6.01371 25.4121C5.99787 24.1305 5.99258 22.8481 6.01522 21.5665C6.0371 20.3527 7.10838 19.3057 8.32452 19.2785C8.88958 19.2657 9.45615 19.2665 10.0212 19.2808C10.2136 19.2853 10.3154 19.2325 10.3728 19.0454C10.5478 18.4706 10.7794 17.9162 11.0601 17.3859C11.1642 17.1898 11.1189 17.0759 10.9703 16.9355C10.6142 16.5984 10.2717 16.2483 9.92842 15.8983C8.88581 14.8347 8.87751 13.4128 9.92088 12.3439C10.7108 11.5344 11.512 10.7356 12.32 9.94428C13.4388 8.84973 14.839 8.86708 15.9563 9.9737C16.2958 10.3101 16.6398 10.6413 16.9665 10.989C17.1038 11.1346 17.2154 11.146 17.3889 11.0554C17.9103 10.7831 18.4512 10.553 19.0132 10.3803C19.2305 10.3139 19.2826 10.1985 19.2878 9.98049C19.3044 9.27895 19.2003 8.57288 19.352 7.87738C19.5851 6.80545 20.5477 6.0149 21.6454 6.0066C22.8774 5.99755 24.1086 5.9983 25.3406 6.00585C26.6405 6.01414 27.7087 7.07928 27.7253 8.37524C27.7321 8.90328 27.7397 9.43133 27.7208 9.95861C27.7125 10.1947 27.7744 10.3101 28.0105 10.3833C28.5597 10.553 29.0946 10.7688 29.5986 11.0471C29.8075 11.1625 29.9313 11.1105 30.0807 10.9528C30.4171 10.5968 30.7664 10.2521 31.1187 9.91109C32.1802 8.88518 33.591 8.87462 34.6472 9.90053C35.4673 10.6971 36.2752 11.5073 37.0734 12.3265C38.147 13.4294 38.1289 14.8377 37.0432 15.9368C36.7075 16.2762 36.3771 16.6225 36.0263 16.9461C35.8641 17.0955 35.8596 17.2184 35.9554 17.4002C36.2292 17.9207 36.4563 18.4631 36.6276 19.0258C36.6902 19.231 36.7973 19.2778 37.0033 19.2823C37.7049 19.2982 38.411 19.1956 39.1066 19.3442C40.2043 19.578 40.9897 20.5368 40.9964 21.6593C41.004 22.8783 41.004 24.0973 40.9972 25.3163C40.9897 26.6387 39.9244 27.7068 38.6072 27.7197C38.067 27.7249 37.5261 27.7302 36.9859 27.7159C36.7935 27.7106 36.6909 27.7642 36.6343 27.9512C36.4593 28.5261 36.227 29.0805 35.9471 29.6116C35.843 29.8092 35.8912 29.9223 36.0384 30.0619C36.3937 30.3991 36.7385 30.7484 37.0802 31.0991C38.1108 32.156 38.1341 33.5628 37.1111 34.6272C36.2926 35.4788 35.4582 36.3162 34.6049 37.1331C33.5812 38.113 32.1938 38.1002 31.1602 37.1263C30.7853 36.7733 30.4232 36.4059 30.0678 36.0325C29.9267 35.8847 29.8136 35.8394 29.6174 35.9435C29.0871 36.2241 28.5318 36.4527 27.9577 36.6315C27.7774 36.6873 27.7231 36.7861 27.7185 36.98C27.7019 37.6936 27.8061 38.4125 27.6529 39.1208C27.4221 40.1912 26.4571 40.978 25.3587 40.9916C24.7454 40.9976 24.129 40.9916 23.3648 40.9916ZM16.2648 23.5134C16.2626 27.4949 19.5202 30.7333 23.5292 30.7363C27.4764 30.7393 30.7415 27.482 30.743 23.5391C30.7445 19.5229 27.5126 16.2574 23.536 16.2581C19.5059 16.2589 16.2671 19.4898 16.2648 23.5134Z" fill="#868686"/>
</svg>
