<svg width="48" height="48" viewBox="0 0 48 48" fill="none" xmlns="http://www.w3.org/2000/svg">
<mask id="path-1-outside-1_4181_89748" maskUnits="userSpaceOnUse" x="7" y="6" width="35" height="36" fill="black">
<rect fill="white" x="7" y="6" width="35" height="36"/>
<path d="M28.072 7.00083C28.9662 7.29502 29.2454 7.9845 29.3358 8.84967C29.4443 9.88969 29.6167 10.9239 29.7824 11.9573C29.8031 12.0891 29.9266 12.2407 30.0451 12.3137C30.6161 12.6659 31.207 12.9866 31.7796 13.3363C31.947 13.4382 32.0763 13.4598 32.2619 13.3827C33.3409 12.9385 34.4265 12.5076 35.5104 12.0758C36.4353 11.707 37.1388 11.9507 37.6402 12.815C38.6628 14.5785 39.6821 16.3436 40.7006 18.1088C41.2161 19.0021 41.0669 19.7264 40.2457 20.3678C39.3424 21.0739 38.4424 21.7849 37.5325 22.4835C37.3734 22.6053 37.3261 22.7288 37.3303 22.926C37.3452 23.6089 37.3253 24.2917 37.3435 24.9738C37.3477 25.1122 37.4239 25.2936 37.5292 25.3782C38.4399 26.1108 39.3656 26.8243 40.2863 27.5452C41.0512 28.1444 41.2036 28.8944 40.7222 29.7314C39.6879 31.5263 38.6512 33.3197 37.6104 35.1105C37.1264 35.9433 36.4295 36.1779 35.5303 35.819C34.4464 35.3864 33.3616 34.9547 32.2818 34.5113C32.092 34.4334 31.952 34.4326 31.7688 34.547C31.1995 34.9025 30.6169 35.2364 30.0302 35.563C29.8703 35.6516 29.7924 35.7478 29.7667 35.9342C29.6076 37.1027 29.4286 38.2678 29.267 39.4355C29.1394 40.3587 28.5717 40.8791 27.6452 40.8816C25.5494 40.8857 23.4536 40.8857 21.357 40.8816C20.4297 40.8799 19.8587 40.3595 19.7319 39.4371C19.5728 38.2803 19.3979 37.1251 19.2413 35.9682C19.2131 35.7618 19.1278 35.6483 18.9421 35.5472C18.3621 35.2323 17.7902 34.9008 17.2292 34.5528C17.0477 34.4401 16.9085 34.4334 16.7162 34.5122C15.6464 34.9505 14.5716 35.3757 13.4967 35.8033C12.5653 36.1737 11.8642 35.9375 11.3645 35.0765C10.3361 33.3039 9.31012 31.5296 8.2875 29.7537C7.7911 28.8911 7.93944 28.1494 8.71759 27.5403C9.62088 26.8334 10.5209 26.1224 11.4308 25.4246C11.6048 25.2912 11.6769 25.1594 11.6703 24.9323C11.6495 24.2611 11.6512 23.589 11.6686 22.9178C11.6736 22.7156 11.6131 22.5987 11.4581 22.4794C10.5399 21.7733 9.63 21.0573 8.71842 20.3438C7.93944 19.7339 7.7911 18.9947 8.2875 18.1328C9.31592 16.347 10.3468 14.5636 11.3819 12.7819C11.8692 11.9424 12.5611 11.7046 13.4578 12.0609C14.5525 12.4968 15.6472 12.9319 16.737 13.3802C16.9201 13.4556 17.051 13.444 17.2201 13.3404C17.7919 12.989 18.372 12.6493 18.9612 12.3286C19.1386 12.2316 19.2115 12.1189 19.2372 11.9291C19.3855 10.8485 19.5769 9.77284 19.688 8.68807C19.7725 7.85688 20.1264 7.28176 20.9228 7C23.3061 7.00083 25.6886 7.00083 28.072 7.00083ZM27.7272 39.4736C27.7571 39.3501 27.7836 39.2664 27.7977 39.1802C28.0049 37.8974 28.2187 36.6146 28.4109 35.3293C28.4764 34.8934 28.6894 34.6414 29.088 34.4401C29.8322 34.0638 30.5581 33.642 31.255 33.1829C31.647 32.9252 31.981 32.8589 32.4194 33.0445C33.5854 33.5376 34.7687 33.9901 35.9397 34.4699C36.1419 34.5528 36.2414 34.5287 36.3557 34.3332C37.3816 32.5846 38.4159 30.841 39.4576 29.1024C39.5852 28.8902 39.5752 28.7767 39.3705 28.6201C38.3371 27.8295 37.3228 27.014 36.2894 26.2235C35.967 25.9765 35.856 25.6923 35.8701 25.2862C35.9016 24.397 35.9041 23.5045 35.8701 22.6153C35.8543 22.1968 35.9679 21.9051 36.301 21.6515C37.327 20.87 38.3322 20.0612 39.3581 19.2789C39.5744 19.114 39.5827 18.9922 39.4518 18.7684C38.4556 17.0663 37.472 15.3575 36.4833 13.6512C36.4303 13.56 36.3698 13.4722 36.3093 13.3777C34.9618 13.8849 33.6409 14.3746 32.3266 14.8826C31.9603 15.0243 31.6686 14.9697 31.3379 14.7592C30.6153 14.2992 29.881 13.8492 29.1153 13.4664C28.6769 13.2476 28.4631 12.9683 28.4026 12.4943C28.246 11.2703 28.0463 10.0521 27.8946 8.82812C27.8582 8.53145 27.7438 8.48007 27.4803 8.47841C25.4839 8.46432 23.4876 8.43614 21.4912 8.41377C21.4175 8.41294 21.3429 8.4262 21.2584 8.43366C21.2335 8.55299 21.2062 8.65989 21.1888 8.76763C20.9824 10.0397 20.7694 11.3109 20.5772 12.5855C20.5125 13.0114 20.2938 13.2484 19.9109 13.4457C19.1502 13.8385 18.4093 14.276 17.6883 14.7393C17.3253 14.973 17.0088 15.0268 16.6093 14.8603C15.4516 14.3763 14.2799 13.9238 13.1205 13.4432C12.876 13.3421 12.7509 13.3479 12.6017 13.6031C11.6098 15.3078 10.5979 17 9.5927 18.6972C9.53801 18.7891 9.48912 18.8853 9.43111 18.9922C9.54133 19.0842 9.63248 19.1612 9.72613 19.2375C10.7173 20.0455 11.7034 20.8609 12.7037 21.6581C13.0186 21.9092 13.1354 22.1918 13.1205 22.5979C13.0874 23.4871 13.0832 24.3804 13.1205 25.2688C13.1387 25.7047 13.0037 25.9956 12.6631 26.2541C11.6454 27.0281 10.6493 27.8311 9.63165 28.606C9.41453 28.7717 9.40708 28.8935 9.53801 29.1173C10.5391 30.8294 11.5277 32.5481 12.5213 34.2644C12.5694 34.3464 12.6282 34.4227 12.6871 34.5097C14.0155 34.0083 15.3257 33.5202 16.6301 33.0172C17.0154 32.8688 17.3287 32.9202 17.6809 33.1465C18.4018 33.6097 19.1419 34.0481 19.9034 34.4392C20.2996 34.6423 20.5192 34.8884 20.5772 35.3293C20.7413 36.574 20.9426 37.8145 21.0984 39.0609C21.1357 39.3592 21.2509 39.4098 21.5144 39.4115C23.5 39.4247 25.4848 39.4512 27.4703 39.4736C27.5507 39.4744 27.6261 39.4736 27.7272 39.4736Z"/>
<path d="M24.4979 31.0034C20.622 30.9992 17.4522 27.8344 17.4356 23.9503C17.4191 20.0827 20.6593 16.8474 24.5161 16.8823C28.4151 16.9171 31.5816 20.0943 31.5617 23.9519C31.5418 27.8377 28.3671 31.0075 24.4979 31.0034ZM30.138 23.9577C30.1521 20.8484 27.6453 18.3234 24.5219 18.3027C21.4151 18.2819 18.885 20.7871 18.8585 23.9105C18.8312 27.0273 21.362 29.5747 24.4912 29.5821C27.6038 29.5896 30.1239 27.0786 30.138 23.9577Z"/>
</mask>
<path d="M28.072 7.00083C28.9662 7.29502 29.2454 7.9845 29.3358 8.84967C29.4443 9.88969 29.6167 10.9239 29.7824 11.9573C29.8031 12.0891 29.9266 12.2407 30.0451 12.3137C30.6161 12.6659 31.207 12.9866 31.7796 13.3363C31.947 13.4382 32.0763 13.4598 32.2619 13.3827C33.3409 12.9385 34.4265 12.5076 35.5104 12.0758C36.4353 11.707 37.1388 11.9507 37.6402 12.815C38.6628 14.5785 39.6821 16.3436 40.7006 18.1088C41.2161 19.0021 41.0669 19.7264 40.2457 20.3678C39.3424 21.0739 38.4424 21.7849 37.5325 22.4835C37.3734 22.6053 37.3261 22.7288 37.3303 22.926C37.3452 23.6089 37.3253 24.2917 37.3435 24.9738C37.3477 25.1122 37.4239 25.2936 37.5292 25.3782C38.4399 26.1108 39.3656 26.8243 40.2863 27.5452C41.0512 28.1444 41.2036 28.8944 40.7222 29.7314C39.6879 31.5263 38.6512 33.3197 37.6104 35.1105C37.1264 35.9433 36.4295 36.1779 35.5303 35.819C34.4464 35.3864 33.3616 34.9547 32.2818 34.5113C32.092 34.4334 31.952 34.4326 31.7688 34.547C31.1995 34.9025 30.6169 35.2364 30.0302 35.563C29.8703 35.6516 29.7924 35.7478 29.7667 35.9342C29.6076 37.1027 29.4286 38.2678 29.267 39.4355C29.1394 40.3587 28.5717 40.8791 27.6452 40.8816C25.5494 40.8857 23.4536 40.8857 21.357 40.8816C20.4297 40.8799 19.8587 40.3595 19.7319 39.4371C19.5728 38.2803 19.3979 37.1251 19.2413 35.9682C19.2131 35.7618 19.1278 35.6483 18.9421 35.5472C18.3621 35.2323 17.7902 34.9008 17.2292 34.5528C17.0477 34.4401 16.9085 34.4334 16.7162 34.5122C15.6464 34.9505 14.5716 35.3757 13.4967 35.8033C12.5653 36.1737 11.8642 35.9375 11.3645 35.0765C10.3361 33.3039 9.31012 31.5296 8.2875 29.7537C7.7911 28.8911 7.93944 28.1494 8.71759 27.5403C9.62088 26.8334 10.5209 26.1224 11.4308 25.4246C11.6048 25.2912 11.6769 25.1594 11.6703 24.9323C11.6495 24.2611 11.6512 23.589 11.6686 22.9178C11.6736 22.7156 11.6131 22.5987 11.4581 22.4794C10.5399 21.7733 9.63 21.0573 8.71842 20.3438C7.93944 19.7339 7.7911 18.9947 8.2875 18.1328C9.31592 16.347 10.3468 14.5636 11.3819 12.7819C11.8692 11.9424 12.5611 11.7046 13.4578 12.0609C14.5525 12.4968 15.6472 12.9319 16.737 13.3802C16.9201 13.4556 17.051 13.444 17.2201 13.3404C17.7919 12.989 18.372 12.6493 18.9612 12.3286C19.1386 12.2316 19.2115 12.1189 19.2372 11.9291C19.3855 10.8485 19.5769 9.77284 19.688 8.68807C19.7725 7.85688 20.1264 7.28176 20.9228 7C23.3061 7.00083 25.6886 7.00083 28.072 7.00083ZM27.7272 39.4736C27.7571 39.3501 27.7836 39.2664 27.7977 39.1802C28.0049 37.8974 28.2187 36.6146 28.4109 35.3293C28.4764 34.8934 28.6894 34.6414 29.088 34.4401C29.8322 34.0638 30.5581 33.642 31.255 33.1829C31.647 32.9252 31.981 32.8589 32.4194 33.0445C33.5854 33.5376 34.7687 33.9901 35.9397 34.4699C36.1419 34.5528 36.2414 34.5287 36.3557 34.3332C37.3816 32.5846 38.4159 30.841 39.4576 29.1024C39.5852 28.8902 39.5752 28.7767 39.3705 28.6201C38.3371 27.8295 37.3228 27.014 36.2894 26.2235C35.967 25.9765 35.856 25.6923 35.8701 25.2862C35.9016 24.397 35.9041 23.5045 35.8701 22.6153C35.8543 22.1968 35.9679 21.9051 36.301 21.6515C37.327 20.87 38.3322 20.0612 39.3581 19.2789C39.5744 19.114 39.5827 18.9922 39.4518 18.7684C38.4556 17.0663 37.472 15.3575 36.4833 13.6512C36.4303 13.56 36.3698 13.4722 36.3093 13.3777C34.9618 13.8849 33.6409 14.3746 32.3266 14.8826C31.9603 15.0243 31.6686 14.9697 31.3379 14.7592C30.6153 14.2992 29.881 13.8492 29.1153 13.4664C28.6769 13.2476 28.4631 12.9683 28.4026 12.4943C28.246 11.2703 28.0463 10.0521 27.8946 8.82812C27.8582 8.53145 27.7438 8.48007 27.4803 8.47841C25.4839 8.46432 23.4876 8.43614 21.4912 8.41377C21.4175 8.41294 21.3429 8.4262 21.2584 8.43366C21.2335 8.55299 21.2062 8.65989 21.1888 8.76763C20.9824 10.0397 20.7694 11.3109 20.5772 12.5855C20.5125 13.0114 20.2938 13.2484 19.9109 13.4457C19.1502 13.8385 18.4093 14.276 17.6883 14.7393C17.3253 14.973 17.0088 15.0268 16.6093 14.8603C15.4516 14.3763 14.2799 13.9238 13.1205 13.4432C12.876 13.3421 12.7509 13.3479 12.6017 13.6031C11.6098 15.3078 10.5979 17 9.5927 18.6972C9.53801 18.7891 9.48912 18.8853 9.43111 18.9922C9.54133 19.0842 9.63248 19.1612 9.72613 19.2375C10.7173 20.0455 11.7034 20.8609 12.7037 21.6581C13.0186 21.9092 13.1354 22.1918 13.1205 22.5979C13.0874 23.4871 13.0832 24.3804 13.1205 25.2688C13.1387 25.7047 13.0037 25.9956 12.6631 26.2541C11.6454 27.0281 10.6493 27.8311 9.63165 28.606C9.41453 28.7717 9.40708 28.8935 9.53801 29.1173C10.5391 30.8294 11.5277 32.5481 12.5213 34.2644C12.5694 34.3464 12.6282 34.4227 12.6871 34.5097C14.0155 34.0083 15.3257 33.5202 16.6301 33.0172C17.0154 32.8688 17.3287 32.9202 17.6809 33.1465C18.4018 33.6097 19.1419 34.0481 19.9034 34.4392C20.2996 34.6423 20.5192 34.8884 20.5772 35.3293C20.7413 36.574 20.9426 37.8145 21.0984 39.0609C21.1357 39.3592 21.2509 39.4098 21.5144 39.4115C23.5 39.4247 25.4848 39.4512 27.4703 39.4736C27.5507 39.4744 27.6261 39.4736 27.7272 39.4736Z" fill="black"/>
<path d="M24.4979 31.0034C20.622 30.9992 17.4522 27.8344 17.4356 23.9503C17.4191 20.0827 20.6593 16.8474 24.5161 16.8823C28.4151 16.9171 31.5816 20.0943 31.5617 23.9519C31.5418 27.8377 28.3671 31.0075 24.4979 31.0034ZM30.138 23.9577C30.1521 20.8484 27.6453 18.3234 24.5219 18.3027C21.4151 18.2819 18.885 20.7871 18.8585 23.9105C18.8312 27.0273 21.362 29.5747 24.4912 29.5821C27.6038 29.5896 30.1239 27.0786 30.138 23.9577Z" fill="black"/>
<path d="M28.072 7.00083C28.9662 7.29502 29.2454 7.9845 29.3358 8.84967C29.4443 9.88969 29.6167 10.9239 29.7824 11.9573C29.8031 12.0891 29.9266 12.2407 30.0451 12.3137C30.6161 12.6659 31.207 12.9866 31.7796 13.3363C31.947 13.4382 32.0763 13.4598 32.2619 13.3827C33.3409 12.9385 34.4265 12.5076 35.5104 12.0758C36.4353 11.707 37.1388 11.9507 37.6402 12.815C38.6628 14.5785 39.6821 16.3436 40.7006 18.1088C41.2161 19.0021 41.0669 19.7264 40.2457 20.3678C39.3424 21.0739 38.4424 21.7849 37.5325 22.4835C37.3734 22.6053 37.3261 22.7288 37.3303 22.926C37.3452 23.6089 37.3253 24.2917 37.3435 24.9738C37.3477 25.1122 37.4239 25.2936 37.5292 25.3782C38.4399 26.1108 39.3656 26.8243 40.2863 27.5452C41.0512 28.1444 41.2036 28.8944 40.7222 29.7314C39.6879 31.5263 38.6512 33.3197 37.6104 35.1105C37.1264 35.9433 36.4295 36.1779 35.5303 35.819C34.4464 35.3864 33.3616 34.9547 32.2818 34.5113C32.092 34.4334 31.952 34.4326 31.7688 34.547C31.1995 34.9025 30.6169 35.2364 30.0302 35.563C29.8703 35.6516 29.7924 35.7478 29.7667 35.9342C29.6076 37.1027 29.4286 38.2678 29.267 39.4355C29.1394 40.3587 28.5717 40.8791 27.6452 40.8816C25.5494 40.8857 23.4536 40.8857 21.357 40.8816C20.4297 40.8799 19.8587 40.3595 19.7319 39.4371C19.5728 38.2803 19.3979 37.1251 19.2413 35.9682C19.2131 35.7618 19.1278 35.6483 18.9421 35.5472C18.3621 35.2323 17.7902 34.9008 17.2292 34.5528C17.0477 34.4401 16.9085 34.4334 16.7162 34.5122C15.6464 34.9505 14.5716 35.3757 13.4967 35.8033C12.5653 36.1737 11.8642 35.9375 11.3645 35.0765C10.3361 33.3039 9.31012 31.5296 8.2875 29.7537C7.7911 28.8911 7.93944 28.1494 8.71759 27.5403C9.62088 26.8334 10.5209 26.1224 11.4308 25.4246C11.6048 25.2912 11.6769 25.1594 11.6703 24.9323C11.6495 24.2611 11.6512 23.589 11.6686 22.9178C11.6736 22.7156 11.6131 22.5987 11.4581 22.4794C10.5399 21.7733 9.63 21.0573 8.71842 20.3438C7.93944 19.7339 7.7911 18.9947 8.2875 18.1328C9.31592 16.347 10.3468 14.5636 11.3819 12.7819C11.8692 11.9424 12.5611 11.7046 13.4578 12.0609C14.5525 12.4968 15.6472 12.9319 16.737 13.3802C16.9201 13.4556 17.051 13.444 17.2201 13.3404C17.7919 12.989 18.372 12.6493 18.9612 12.3286C19.1386 12.2316 19.2115 12.1189 19.2372 11.9291C19.3855 10.8485 19.5769 9.77284 19.688 8.68807C19.7725 7.85688 20.1264 7.28176 20.9228 7C23.3061 7.00083 25.6886 7.00083 28.072 7.00083ZM27.7272 39.4736C27.7571 39.3501 27.7836 39.2664 27.7977 39.1802C28.0049 37.8974 28.2187 36.6146 28.4109 35.3293C28.4764 34.8934 28.6894 34.6414 29.088 34.4401C29.8322 34.0638 30.5581 33.642 31.255 33.1829C31.647 32.9252 31.981 32.8589 32.4194 33.0445C33.5854 33.5376 34.7687 33.9901 35.9397 34.4699C36.1419 34.5528 36.2414 34.5287 36.3557 34.3332C37.3816 32.5846 38.4159 30.841 39.4576 29.1024C39.5852 28.8902 39.5752 28.7767 39.3705 28.6201C38.3371 27.8295 37.3228 27.014 36.2894 26.2235C35.967 25.9765 35.856 25.6923 35.8701 25.2862C35.9016 24.397 35.9041 23.5045 35.8701 22.6153C35.8543 22.1968 35.9679 21.9051 36.301 21.6515C37.327 20.87 38.3322 20.0612 39.3581 19.2789C39.5744 19.114 39.5827 18.9922 39.4518 18.7684C38.4556 17.0663 37.472 15.3575 36.4833 13.6512C36.4303 13.56 36.3698 13.4722 36.3093 13.3777C34.9618 13.8849 33.6409 14.3746 32.3266 14.8826C31.9603 15.0243 31.6686 14.9697 31.3379 14.7592C30.6153 14.2992 29.881 13.8492 29.1153 13.4664C28.6769 13.2476 28.4631 12.9683 28.4026 12.4943C28.246 11.2703 28.0463 10.0521 27.8946 8.82812C27.8582 8.53145 27.7438 8.48007 27.4803 8.47841C25.4839 8.46432 23.4876 8.43614 21.4912 8.41377C21.4175 8.41294 21.3429 8.4262 21.2584 8.43366C21.2335 8.55299 21.2062 8.65989 21.1888 8.76763C20.9824 10.0397 20.7694 11.3109 20.5772 12.5855C20.5125 13.0114 20.2938 13.2484 19.9109 13.4457C19.1502 13.8385 18.4093 14.276 17.6883 14.7393C17.3253 14.973 17.0088 15.0268 16.6093 14.8603C15.4516 14.3763 14.2799 13.9238 13.1205 13.4432C12.876 13.3421 12.7509 13.3479 12.6017 13.6031C11.6098 15.3078 10.5979 17 9.5927 18.6972C9.53801 18.7891 9.48912 18.8853 9.43111 18.9922C9.54133 19.0842 9.63248 19.1612 9.72613 19.2375C10.7173 20.0455 11.7034 20.8609 12.7037 21.6581C13.0186 21.9092 13.1354 22.1918 13.1205 22.5979C13.0874 23.4871 13.0832 24.3804 13.1205 25.2688C13.1387 25.7047 13.0037 25.9956 12.6631 26.2541C11.6454 27.0281 10.6493 27.8311 9.63165 28.606C9.41453 28.7717 9.40708 28.8935 9.53801 29.1173C10.5391 30.8294 11.5277 32.5481 12.5213 34.2644C12.5694 34.3464 12.6282 34.4227 12.6871 34.5097C14.0155 34.0083 15.3257 33.5202 16.6301 33.0172C17.0154 32.8688 17.3287 32.9202 17.6809 33.1465C18.4018 33.6097 19.1419 34.0481 19.9034 34.4392C20.2996 34.6423 20.5192 34.8884 20.5772 35.3293C20.7413 36.574 20.9426 37.8145 21.0984 39.0609C21.1357 39.3592 21.2509 39.4098 21.5144 39.4115C23.5 39.4247 25.4848 39.4512 27.4703 39.4736C27.5507 39.4744 27.6261 39.4736 27.7272 39.4736Z" stroke="black" stroke-width="0.4" mask="url(#path-1-outside-1_4181_89748)"/>
<path d="M24.4979 31.0034C20.622 30.9992 17.4522 27.8344 17.4356 23.9503C17.4191 20.0827 20.6593 16.8474 24.5161 16.8823C28.4151 16.9171 31.5816 20.0943 31.5617 23.9519C31.5418 27.8377 28.3671 31.0075 24.4979 31.0034ZM30.138 23.9577C30.1521 20.8484 27.6453 18.3234 24.5219 18.3027C21.4151 18.2819 18.885 20.7871 18.8585 23.9105C18.8312 27.0273 21.362 29.5747 24.4912 29.5821C27.6038 29.5896 30.1239 27.0786 30.138 23.9577Z" stroke="black" stroke-width="0.4" mask="url(#path-1-outside-1_4181_89748)"/>
</svg>
