<svg width="25" height="24" viewBox="0 0 25 24" fill="none" xmlns="http://www.w3.org/2000/svg">
<path d="M22.25 11.7155C22.2437 11.5985 22.1962 11.4875 22.1158 11.4023C22.0355 11.317 21.9276 11.2629 21.8113 11.2495L20.6094 11.055C20.5553 11.0461 20.5056 11.02 20.4676 10.9806C20.4295 10.9411 20.4053 10.8904 20.3984 10.8361C20.3755 10.6884 20.3516 10.5352 20.3188 10.3898C20.3082 10.337 20.3144 10.2822 20.3365 10.233C20.3586 10.1838 20.3955 10.1428 20.442 10.1156L21.5098 9.52266C21.6159 9.46861 21.6983 9.37747 21.7416 9.26658C21.7848 9.1557 21.7857 9.03279 21.7442 8.92125L21.5591 8.41031C21.5185 8.29839 21.438 8.20538 21.3331 8.14907C21.2282 8.09277 21.1062 8.07713 20.9905 8.10516L19.7928 8.33953C19.7393 8.34918 19.684 8.34163 19.635 8.31797C19.586 8.29431 19.5458 8.25575 19.52 8.20781C19.4502 8.07703 19.3742 7.94391 19.295 7.81313C19.2662 7.76653 19.2528 7.71211 19.2565 7.65747C19.2602 7.60284 19.2808 7.55073 19.3156 7.50844L20.1125 6.58828C20.1934 6.50125 20.2399 6.38776 20.2432 6.26899C20.2466 6.15022 20.2066 6.03429 20.1308 5.94281L19.783 5.52516C19.7073 5.43349 19.6003 5.37315 19.4827 5.35583C19.3651 5.33851 19.2453 5.36544 19.1464 5.43141L18.0978 6.06094C18.0513 6.08879 17.9971 6.10096 17.9432 6.09564C17.8892 6.09032 17.8384 6.0678 17.7983 6.03141C17.6825 5.92969 17.5663 5.83172 17.4528 5.74125C17.4102 5.7076 17.3794 5.66124 17.3649 5.6089C17.3504 5.55655 17.3529 5.50095 17.3722 5.45016L17.8063 4.30641C17.8535 4.19728 17.8591 4.07458 17.8218 3.96164C17.7846 3.84869 17.7071 3.75336 17.6042 3.69375L17.1317 3.41953C17.0287 3.36011 16.9073 3.3408 16.7909 3.36527C16.6745 3.38975 16.5712 3.4563 16.5008 3.55219L15.7344 4.51313C15.7069 4.55511 15.6657 4.58617 15.6177 4.60089C15.5698 4.61562 15.5182 4.61309 15.4719 4.59375C15.4428 4.58203 15.2014 4.48313 15.0134 4.42031C14.9619 4.40351 14.9171 4.37065 14.8855 4.32654C14.854 4.28243 14.8374 4.22938 14.8381 4.17516L14.8564 2.95313C14.8629 2.8338 14.8258 2.71619 14.7518 2.62231C14.6779 2.52843 14.5722 2.46473 14.4547 2.44313L13.918 2.34938C13.801 2.32917 13.6807 2.35211 13.5794 2.41393C13.4781 2.47574 13.4027 2.57223 13.3672 2.68547L12.9688 3.84844C12.9509 3.90023 12.9168 3.94487 12.8715 3.97571C12.8263 4.00654 12.7722 4.02191 12.7175 4.01953H12.2605C12.2063 4.02043 12.1532 4.00432 12.1086 3.97346C12.064 3.9426 12.0303 3.89855 12.012 3.8475L11.6155 2.69109C11.5806 2.57703 11.5053 2.4796 11.4038 2.41704C11.3022 2.35449 11.1813 2.3311 11.0638 2.35125L10.5266 2.445C10.4097 2.46633 10.3045 2.52937 10.2307 2.6224C10.1568 2.71542 10.1192 2.83212 10.1249 2.95078L10.1436 4.17703C10.144 4.23207 10.1266 4.28576 10.094 4.3301C10.0614 4.37444 10.0153 4.40707 9.96266 4.42313C9.85579 4.46484 9.62235 4.55344 9.51688 4.59328C9.42313 4.62703 9.32048 4.59 9.23563 4.49484L8.47345 3.55734C8.40359 3.4615 8.30091 3.39472 8.18498 3.36974C8.06905 3.34476 7.94798 3.36331 7.84485 3.42188L7.37329 3.69516C7.26925 3.75487 7.19099 3.85099 7.1536 3.96498C7.11621 4.07897 7.12233 4.20276 7.17079 4.3125L7.60438 5.45344C7.6233 5.50434 7.62578 5.55988 7.61149 5.61227C7.5972 5.66465 7.56684 5.71123 7.52469 5.74547C7.41079 5.83922 7.29407 5.93297 7.17782 6.03703C7.1379 6.07314 7.08748 6.09554 7.03392 6.10094C6.98036 6.10633 6.92648 6.09445 6.88016 6.06703L5.84376 5.42531C5.74427 5.36048 5.62452 5.33422 5.50704 5.35149C5.38955 5.36875 5.28242 5.42835 5.20579 5.51906L4.85891 5.93625C4.78193 6.02706 4.74114 6.14306 4.74434 6.26206C4.74754 6.38107 4.79451 6.49471 4.87626 6.58125L5.67735 7.5C5.71288 7.54144 5.73412 7.59323 5.73792 7.64768C5.74172 7.70214 5.72788 7.75637 5.69845 7.80234C5.61829 7.92984 5.54188 8.06391 5.47251 8.19797C5.44656 8.24619 5.406 8.28496 5.35665 8.30871C5.3073 8.33246 5.2517 8.33996 5.19782 8.33016L4.00204 8.09906C3.88626 8.07113 3.76425 8.0868 3.65929 8.14308C3.55433 8.19936 3.47377 8.29232 3.43298 8.40422L3.24548 8.91422C3.20393 9.0259 3.20484 9.14894 3.24805 9.25999C3.29126 9.37103 3.37375 9.46234 3.47985 9.51656L4.54766 10.1095C4.59568 10.136 4.63378 10.1774 4.65619 10.2275C4.67859 10.2776 4.6841 10.3336 4.67188 10.387L4.6611 10.4452C4.63626 10.5764 4.61423 10.7006 4.5922 10.8328C4.58474 10.8865 4.56051 10.9364 4.52296 10.9755C4.48541 11.0146 4.43647 11.0407 4.38313 11.0503L3.17845 11.2448C3.06076 11.2594 2.9524 11.3163 2.87357 11.4049C2.79473 11.4934 2.75082 11.6077 2.75001 11.7263V12.2691C2.74932 12.3882 2.79285 12.5033 2.87218 12.5921C2.9515 12.681 3.06097 12.7372 3.17938 12.75L4.38313 12.9441C4.43722 12.9529 4.48701 12.9789 4.52504 13.0184C4.56307 13.0579 4.58728 13.1086 4.59407 13.163C4.61704 13.3111 4.64095 13.4639 4.67376 13.6092C4.68433 13.6621 4.67813 13.7169 4.65603 13.7661C4.63393 13.8152 4.59703 13.8563 4.55048 13.8834L3.48313 14.4773C3.3771 14.5314 3.29464 14.6225 3.25142 14.7334C3.20821 14.8443 3.20726 14.9672 3.24876 15.0788L3.43626 15.5897C3.47696 15.7015 3.55743 15.7945 3.66231 15.8508C3.7672 15.9071 3.88914 15.9228 4.00485 15.8948L5.20251 15.6628C5.25606 15.6532 5.3113 15.6607 5.3603 15.6844C5.40931 15.708 5.44957 15.7466 5.47532 15.7945C5.54563 15.9258 5.62157 16.0589 5.70032 16.1892C5.72923 16.2358 5.74279 16.2902 5.73909 16.3449C5.73539 16.3996 5.71461 16.4517 5.6797 16.4939L4.88282 17.4145C4.80105 17.5008 4.75355 17.6139 4.74923 17.7326C4.74492 17.8514 4.78408 17.9676 4.85938 18.0595L5.20673 18.4772C5.28239 18.5689 5.38938 18.6292 5.50697 18.6465C5.62457 18.6638 5.74441 18.6369 5.84329 18.5709L6.89188 17.9414C6.93837 17.9136 6.99259 17.9014 7.04653 17.9067C7.10046 17.912 7.15126 17.9345 7.19141 17.9709C7.30766 18.0727 7.42579 18.1706 7.53688 18.2611C7.57952 18.2947 7.61033 18.3411 7.62482 18.3934C7.63932 18.4458 7.63676 18.5014 7.61751 18.5522L7.18344 19.6959C7.13617 19.8051 7.13064 19.9278 7.16788 20.0407C7.20513 20.1537 7.28256 20.249 7.38548 20.3086L7.85938 20.5823C7.96232 20.6418 8.08355 20.6612 8.19988 20.6368C8.31622 20.6124 8.41946 20.5459 8.48985 20.4502L9.26563 19.4963C9.33079 19.4152 9.43438 19.3791 9.51126 19.41C9.67391 19.4775 9.78313 19.5155 9.97673 19.5802C10.0283 19.597 10.0731 19.6299 10.1048 19.674C10.1364 19.718 10.1531 19.7711 10.1525 19.8253L10.1338 21.0464C10.1274 21.1657 10.1647 21.2832 10.2386 21.377C10.3125 21.4709 10.418 21.5346 10.5355 21.5564L11.0722 21.6502C11.1891 21.6705 11.3095 21.6476 11.4108 21.5857C11.5121 21.5239 11.5875 21.4274 11.623 21.3141L12.0214 20.153C12.0396 20.1014 12.0738 20.057 12.119 20.0263C12.1642 19.9955 12.218 19.9799 12.2727 19.9819H12.7297C12.7839 19.9809 12.8371 19.997 12.8816 20.0279C12.9262 20.0587 12.96 20.1028 12.9781 20.1539L13.3752 21.3103C13.4059 21.4107 13.468 21.4986 13.5524 21.5611C13.6368 21.6236 13.7389 21.6575 13.8439 21.6577C13.8719 21.6577 13.8998 21.6552 13.9274 21.6502L14.465 21.5564C14.5818 21.535 14.6868 21.4719 14.7606 21.3789C14.8344 21.2859 14.872 21.1692 14.8663 21.0506L14.8475 19.8244C14.8471 19.7703 14.864 19.7176 14.8956 19.6738C14.9272 19.63 14.9719 19.5973 15.0233 19.5806C15.2033 19.5202 15.3294 19.4714 15.4409 19.4288L15.4691 19.4175C15.6125 19.3678 15.6814 19.4241 15.7255 19.4789L16.5106 20.4459C16.581 20.5416 16.6842 20.608 16.8004 20.6323C16.9166 20.6567 17.0377 20.6374 17.1406 20.5781L17.6127 20.3048C17.7159 20.2452 17.7936 20.1496 17.8308 20.0364C17.8681 19.9231 17.8624 19.8001 17.8147 19.6908L17.3816 18.5498C17.3625 18.499 17.3598 18.4435 17.374 18.391C17.3883 18.3386 17.4186 18.292 17.4608 18.2578C17.5747 18.1641 17.6914 18.0703 17.8077 17.9663C17.8478 17.93 17.8986 17.9077 17.9524 17.9024C18.0062 17.8972 18.0603 17.9094 18.1067 17.9372L19.1563 18.5653C19.2557 18.6301 19.3755 18.6564 19.493 18.6391C19.6105 18.6219 19.7176 18.5623 19.7942 18.4716L20.1411 18.0544C20.218 17.9636 20.2588 17.8477 20.2556 17.7288C20.2524 17.6099 20.2055 17.4963 20.1238 17.4098L19.3241 16.4878C19.2885 16.4464 19.2673 16.3946 19.2635 16.3401C19.2597 16.2857 19.2735 16.2314 19.303 16.1855C19.3831 16.0584 19.4595 15.9244 19.5289 15.7898C19.555 15.7418 19.5956 15.7031 19.6449 15.6794C19.6942 15.6557 19.7497 15.6481 19.8036 15.6577L20.998 15.8906C21.1138 15.9186 21.2358 15.9029 21.3407 15.8466C21.4457 15.7903 21.5262 15.6974 21.567 15.5855L21.7522 15.0755C21.7937 14.9639 21.7928 14.8409 21.7496 14.7299C21.7064 14.619 21.6239 14.5277 21.5178 14.4736L20.4491 13.8797C20.4017 13.8529 20.3643 13.8116 20.3422 13.7619C20.3202 13.7122 20.3147 13.6567 20.3267 13.6036L20.3375 13.545C20.3624 13.4137 20.3844 13.29 20.4064 13.1578C20.4139 13.1041 20.4381 13.0542 20.4757 13.0151C20.5132 12.9761 20.5621 12.9499 20.6155 12.9403L21.8202 12.7463C21.9381 12.7319 22.0468 12.6751 22.126 12.5864C22.2051 12.4977 22.2492 12.3832 22.25 12.2644V11.7155ZM8.54329 16.9345C7.80366 16.3394 7.20728 15.5855 6.79827 14.7288C6.38925 13.8721 6.17806 12.9344 6.18031 11.985C6.18256 11.0356 6.3982 10.0989 6.81127 9.24415C7.22434 8.38937 7.82428 7.63838 8.56673 7.04672L11.3792 11.9972L8.54329 16.9345ZM12.5 18.3333C11.7226 18.334 10.9518 18.1902 10.227 17.9091L13.0625 12.9745H18.7447C18.2755 16.0055 15.6542 18.3333 12.5 18.3333ZM13.0653 11.0255L10.2552 6.08016C10.9719 5.80626 11.7327 5.66613 12.5 5.66672C15.6542 5.66672 18.2755 7.99453 18.7447 11.0255H13.0653Z" fill="black"/>
</svg>
