<svg width="48" height="48" viewBox="0 0 48 48" fill="none" xmlns="http://www.w3.org/2000/svg">
<path d="M24.1933 10.5251C24.7818 14.4954 25.3703 18.4657 25.9588 22.436C25.8384 22.7888 25.6353 23.0389 25.2346 23.0982C18.7304 24.058 12.2274 25.0216 5.72401 25.987C5.53619 26.0148 5.36886 25.9816 5.19677 25.9047C5.03137 25.8308 4.96662 25.6659 4.83627 25.5641C4.24885 21.5936 3.66143 17.6231 3.07393 13.6521C3.13642 13.6445 3.19906 13.6381 3.2613 13.6289C10.1762 12.6049 17.0911 11.5808 24.006 10.5568C24.069 10.5486 24.1313 10.536 24.1933 10.5251ZM16.8962 16.5883C16.9004 16.6127 16.9144 16.6226 16.9384 16.6162C17.3187 16.5615 17.6989 16.5092 18.0789 16.4529C19.847 16.19 21.6154 15.9258 23.3832 15.6617C23.4081 15.6609 23.4174 15.647 23.4138 15.6231C23.2357 14.4162 23.057 13.21 22.8789 12.0031C22.8731 11.9795 22.8595 11.9684 22.8346 11.9761C20.6885 12.2939 18.5419 12.6118 16.3959 12.9296C16.3697 12.9289 16.3593 12.9435 16.3595 12.9679C16.5388 14.1747 16.7175 15.3815 16.8962 16.5883ZM5.51377 19.8085C5.75725 21.4527 6.00414 23.0969 6.23984 24.7421C6.26674 24.9315 6.32864 24.9621 6.50685 24.9346C7.9611 24.7118 9.41643 24.4963 10.8728 24.288C11.0542 24.2623 11.0988 24.2108 11.0706 24.0245C10.5775 20.7366 10.0904 17.4478 9.60957 14.1586C9.5822 13.9699 9.5207 13.9381 9.34249 13.9656C7.88823 14.1883 6.4329 14.4039 4.9765 14.6121C4.79407 14.638 4.75081 14.6911 4.77881 14.8763C5.02959 16.5199 5.27029 18.1644 5.51377 19.8085ZM11.3009 18.9493C11.5443 20.5934 11.7912 22.237 12.0269 23.8823C12.0531 24.0672 12.1084 24.1068 12.2916 24.0785C13.7452 23.8553 15.2006 23.6403 16.6564 23.4315C16.8327 23.4066 16.8863 23.3622 16.858 23.1708C16.3649 19.8835 15.8779 16.5952 15.3965 13.3062C15.3699 13.1225 15.315 13.0811 15.1317 13.1094C13.6781 13.3326 12.223 13.5493 10.7667 13.7547C10.562 13.7838 10.5431 13.8594 10.5701 14.0379C10.8182 15.6746 11.0584 17.3118 11.3009 18.9493ZM21.143 22.7637C22.161 22.6129 23.1786 22.4594 24.1974 22.3142C24.3493 22.2929 24.4085 22.2591 24.3813 22.0834C24.1133 20.3235 23.8536 18.5618 23.5978 16.8001C23.5769 16.6554 23.533 16.6193 23.3863 16.641C21.3303 16.95 19.2733 17.2552 17.216 17.5547C17.0653 17.5765 17.0414 17.63 17.0628 17.7707C17.3281 19.531 17.5895 21.2925 17.8447 23.0543C17.867 23.209 17.9125 23.2472 18.069 23.2229C19.0926 23.0639 20.1183 22.9154 21.143 22.7637Z" fill="#F0F3F4"/>
<path d="M24.1926 10.5269C24.1306 10.5378 24.0687 10.5498 24.0065 10.559C17.0916 11.583 10.1767 12.6071 3.26181 13.6311C3.19957 13.6403 3.13692 13.6468 3.07444 13.6543C2.95015 12.8227 2.82474 11.9912 2.70259 11.1587C2.63748 10.7151 2.90468 10.3452 3.34492 10.2618C3.39293 10.2524 3.44152 10.247 3.49042 10.2397C9.9241 9.28695 16.3578 8.33419 22.7914 7.38088C23.0448 7.34335 23.2815 7.35833 23.5054 7.51281C23.7009 7.64762 23.7934 7.83178 23.8265 8.05147C23.9516 8.87674 24.071 9.70227 24.1926 10.5269ZM21.1732 9.3496C21.1467 9.14371 20.9771 9.01076 20.7779 9.03855C20.5827 9.06632 20.4416 9.2487 20.467 9.43939C20.4913 9.62286 20.6731 9.77277 20.8447 9.75021C21.0682 9.72166 21.2004 9.56049 21.1732 9.3496ZM19.8835 9.52922C19.8511 9.31851 19.6916 9.19999 19.4826 9.23037C19.3014 9.25664 19.1499 9.46102 19.1781 9.63993C19.2062 9.81829 19.4133 9.96672 19.593 9.93728C19.8008 9.90252 19.916 9.74104 19.8835 9.52922ZM21.7557 9.26049C21.7836 9.43718 21.9741 9.58466 22.1406 9.55886C22.346 9.5273 22.494 9.33026 22.455 9.13931C22.4162 8.95059 22.2251 8.82196 22.0318 8.85457C21.8666 8.88188 21.7281 9.08548 21.7557 9.26049Z" fill="#788D9A"/>
<path d="M4.83398 25.5655C4.96434 25.6673 5.02909 25.8323 5.19449 25.9062C5.36658 25.983 5.53391 26.0163 5.72173 25.9884C12.2252 25.0236 18.7282 24.06 25.2323 23.0997C25.633 23.0404 25.8356 22.7903 25.9566 22.4375C25.9771 22.576 25.9982 22.7151 26.0182 22.8537C26.0828 23.3052 25.8239 23.67 25.3762 23.7567C25.3282 23.7661 25.2796 23.7716 25.2307 23.7788C18.7965 24.7317 12.3612 25.6813 5.92834 26.6436C5.40608 26.7215 4.90446 26.4364 4.87605 25.8573C4.87116 25.759 4.84832 25.6624 4.83398 25.5655Z" fill="#E5E9E9"/>
<path d="M5.5112 19.8125C5.26772 18.1684 5.0275 16.5232 4.77624 14.8802C4.74769 14.6951 4.7915 14.642 4.97393 14.6161C6.43041 14.4084 7.88566 14.1923 9.33992 13.9695C9.51868 13.9419 9.57963 13.9738 9.607 14.1625C10.0879 17.4523 10.575 20.7411 11.068 24.0284C11.0962 24.2147 11.0515 24.2657 10.8703 24.292C9.41378 24.4997 7.95853 24.7158 6.50428 24.9385C6.32607 24.9661 6.26418 24.9354 6.23727 24.7461C6.00157 23.1008 5.75476 21.4572 5.5112 19.8125Z" fill="#FAD984"/>
<path d="M11.2959 18.9503C11.0535 17.3134 10.8133 15.6757 10.5653 14.0396C10.5383 13.8611 10.5577 13.7848 10.7619 13.7563C12.2181 13.5509 13.6733 13.3343 15.1269 13.111C15.3101 13.0828 15.3651 13.1241 15.3917 13.3078C15.8731 16.5969 16.3595 19.8852 16.8531 23.1725C16.882 23.3632 16.8283 23.4076 16.6515 23.4332C15.1958 23.6419 13.7404 23.8569 12.2867 24.0801C12.1035 24.1084 12.0483 24.0688 12.022 23.8839C11.7857 22.2382 11.5394 20.5945 11.2959 18.9503Z" fill="#60C3AC"/>
<path d="M21.14 22.7641C20.1148 22.9159 19.0896 23.0643 18.066 23.2233C17.9089 23.2477 17.864 23.2094 17.8417 23.0547C17.5865 21.2929 17.3251 19.5314 17.0598 17.7711C17.0384 17.6304 17.0628 17.5768 17.213 17.5551C19.2703 17.2556 21.3274 16.9509 23.3833 16.6414C23.5299 16.6191 23.5739 16.6558 23.5948 16.8005C23.8506 18.5622 24.1103 20.3239 24.3783 22.0838C24.4049 22.2596 24.3463 22.2933 24.1944 22.3146C23.1756 22.4598 22.158 22.6133 21.14 22.7641Z" fill="#F1786B"/>
<path d="M16.3946 12.9295C18.5407 12.6117 20.6873 12.2938 22.8333 11.976C22.8483 11.9851 22.8627 11.9938 22.8776 12.0029C23.0558 13.2098 23.2344 14.4161 23.4126 15.623C23.4026 15.6358 23.392 15.6488 23.382 15.6616C21.614 15.9251 19.8457 16.1898 18.0777 16.4528C17.6976 16.5091 17.3176 16.562 16.9372 16.616C16.9233 16.6067 16.9089 16.5975 16.895 16.5882C16.7163 15.3813 16.5371 14.1752 16.3584 12.9684C16.3705 12.9546 16.3829 12.942 16.3946 12.9295Z" fill="#42B2E0"/>
<path d="M16.3948 12.9304C16.3824 12.943 16.3708 12.9561 16.3584 12.9687C16.3581 12.9437 16.3685 12.9297 16.3948 12.9304Z" fill="#87CCE8"/>
<path d="M22.8823 12.0062C22.8673 11.997 22.853 11.9884 22.838 11.9792C22.863 11.9715 22.8765 11.9826 22.8823 12.0062Z" fill="#87CCE8"/>
<path d="M16.8945 16.5898C16.9084 16.5992 16.9228 16.6084 16.9367 16.6177C16.9127 16.6241 16.8987 16.6142 16.8945 16.5898Z" fill="#65C0E6"/>
<path d="M23.3839 15.6603C23.3939 15.6475 23.4044 15.6345 23.4145 15.6217C23.4186 15.6455 23.4093 15.6594 23.3839 15.6603Z" fill="#65C0E6"/>
<path d="M21.1781 9.34911C21.2053 9.55944 21.073 9.72061 20.849 9.7498C20.6775 9.77236 20.4957 9.62245 20.4714 9.43898C20.446 9.24829 20.5876 9.06583 20.7823 9.03814C20.9826 9.01019 21.1522 9.1437 21.1781 9.34911Z" fill="#FAD984"/>
<path d="M19.8852 9.52774C19.9177 9.73956 19.8025 9.90104 19.5946 9.93524C19.415 9.96468 19.2079 9.81625 19.1798 9.63789C19.1516 9.45898 19.3037 9.25508 19.4843 9.22834C19.6934 9.19851 19.853 9.31759 19.8852 9.52774Z" fill="#60C3AC"/>
<path d="M21.756 9.2596C21.7284 9.08458 21.867 8.88154 22.0321 8.85368C22.2261 8.82154 22.4172 8.95017 22.4553 9.13842C22.4943 9.32881 22.3463 9.52585 22.1409 9.55797C21.9739 9.58385 21.7838 9.43573 21.756 9.2596Z" fill="#F1786B"/>
<path d="M23.4547 23.2499C23.8867 23.3612 24.3018 23.5381 24.7228 23.6886C26.4223 24.2956 28.1202 24.9098 29.8179 25.5229C31.4047 26.0961 32.9913 26.6725 34.5785 27.2448C36.2557 27.8498 37.9337 28.4547 39.6121 29.0559C40.0358 29.2077 40.0302 29.1989 40.1265 28.8433C40.4795 27.5414 40.8374 26.2415 41.1933 24.9405C41.1001 24.9062 41.0262 24.9449 40.9501 24.9639C40.2311 25.1419 39.4824 25.2428 38.7332 25.3391C37.999 25.4336 37.2535 25.4936 36.504 25.539C35.0605 25.6267 33.6006 25.6014 32.1233 25.4704C32.0515 25.4637 31.9803 25.4612 31.9138 25.419L31.9151 25.4191C31.8961 25.4238 31.8779 25.4283 31.8589 25.4329C31.7892 25.4262 31.7256 25.4428 31.6493 25.4121C31.1731 25.2219 30.6933 25.0403 30.2165 24.8514C29.7735 24.6757 29.3335 24.4917 28.8898 24.3162C28.3107 24.0874 27.7291 23.866 27.15 23.6372C26.7069 23.462 26.2669 23.2764 25.8235 23.1016C25.094 22.8136 24.3634 22.5304 23.6333 22.2448C23.5334 22.5599 23.4338 22.8747 23.334 23.1898C23.3756 23.2102 23.4149 23.2299 23.4547 23.2499Z" fill="#E9BB37"/>
<path d="M23.6371 22.2431C24.3674 22.5283 25.0986 22.8117 25.8274 23.0999C26.2706 23.2751 26.7102 23.46 27.1539 23.6355C27.733 23.8643 28.3145 24.0857 28.8936 24.3145C29.3368 24.4897 29.7769 24.6738 30.2203 24.8497C30.6972 25.0386 31.1765 25.22 31.6532 25.4104C31.7295 25.4411 31.793 25.4245 31.8628 25.4312C31.8817 25.4266 31.9 25.4221 31.9189 25.4174L31.9176 25.4173C31.9943 25.3588 32.0978 25.3432 32.1896 25.3087C34.2183 24.5472 35.9537 23.4552 37.3619 21.9944C37.606 21.7414 37.6041 21.7399 37.9021 22.0412C37.9171 22.0564 37.9348 22.0701 37.9498 22.0853C39.0546 23.1758 40.372 24.0128 41.7303 24.7999C41.9129 24.4419 42.0007 24.046 42.1294 23.6668C42.4052 22.8545 42.6659 22.0368 42.9333 21.2214C43.2366 20.2963 43.5395 19.3706 43.8445 18.4459C44.1436 17.5384 44.4466 16.6324 44.7449 15.7251C44.9823 15.0025 45.2126 14.2769 45.455 13.5563C45.4934 13.4415 45.4467 13.406 45.3308 13.3603C44.0743 12.8653 42.8193 12.3661 41.5629 11.8695C40.2311 11.3432 38.8983 10.8202 37.5673 10.2937C36.6062 9.91335 35.6473 9.52749 34.687 9.14695C33.6031 8.71738 32.5168 8.29261 31.4329 7.86304C30.4792 7.48527 29.5257 7.10435 28.5727 6.72527C28.4491 6.67624 28.3244 6.63052 28.2021 6.57888C27.9417 6.46874 27.9363 6.4742 27.8629 6.68648C27.5701 7.53116 27.2728 8.37415 26.9782 9.21846C26.6533 10.1484 26.3315 11.0799 26.0055 12.0093C25.7176 12.8297 25.4239 13.6483 25.136 14.4687C24.8481 15.2892 24.5647 16.1113 24.2766 16.9321C24.0268 17.6436 23.7726 18.3533 23.5221 19.0649C23.2106 19.9482 22.902 20.8323 22.5878 21.7142C22.5551 21.8058 22.6017 21.8335 22.6924 21.8687C23.0074 21.9894 23.322 22.1175 23.6371 22.2431ZM41.8478 16.5556C41.8436 16.6538 41.7741 16.6587 41.6364 16.6031C41.0818 16.3812 40.5221 16.1719 39.9656 15.955C39.0586 15.6007 38.1528 15.2426 37.2462 14.889C36.3324 14.5324 35.4169 14.1804 34.5031 13.8238C33.6027 13.4722 32.704 13.1161 31.8037 12.7657C30.7867 12.3697 29.7686 11.9759 28.7497 11.585C28.613 11.5327 28.5576 11.4738 28.604 11.3548C28.6547 11.2249 28.6979 11.0912 28.7397 10.9579C28.7675 10.8694 28.8165 10.8553 28.9264 10.8985C29.7909 11.2407 30.6571 11.5783 31.5225 11.9161C32.3951 12.2569 33.2683 12.5964 34.141 12.9368C35.069 13.2984 35.9964 13.6597 36.9243 14.0212C37.8246 14.3716 38.7254 14.7223 39.6259 15.0723C40.3824 15.3662 41.1387 15.6606 41.8953 15.953C41.9999 15.9935 42.0355 16.043 42.0003 16.1317C41.9486 16.2611 41.9056 16.3943 41.8478 16.5556ZM27.7428 15.6689C27.7335 15.571 27.8148 15.5508 27.9688 15.6107C29.0547 16.0337 30.1421 16.4524 31.2279 16.8742C32.2314 17.264 33.234 17.657 34.2379 18.0459C35.2414 18.4345 36.2467 18.818 37.2509 19.2064C38.2477 19.5922 39.2426 19.9847 40.2407 20.3668C40.6778 20.5341 40.6802 20.5254 40.5581 20.8823C40.4556 21.1814 40.4537 21.1865 40.0941 21.0488C38.7448 20.5322 37.3958 20.0136 36.0481 19.4924C34.6933 18.9682 33.3407 18.4369 31.9859 17.9127C30.6317 17.3887 29.2755 16.8698 27.9208 16.3467C27.585 16.2172 27.5864 16.213 27.6671 15.928C27.6873 15.8575 27.708 15.7872 27.7428 15.6689ZM41.1826 18.2049C41.3434 18.2448 41.3607 18.3228 41.3014 18.4435C41.2425 18.5621 41.2048 18.6926 41.1704 18.822C41.1483 18.9058 41.1122 18.9312 41.0097 18.889C40.764 18.7879 40.5161 18.6939 40.2694 18.5961C39.3301 18.224 38.392 17.8496 37.4522 17.4799C36.3893 17.0615 35.3238 16.6482 34.2609 16.2298C33.3279 15.8624 32.3961 15.4913 31.464 15.1222C31.2999 15.0571 31.069 15.0284 30.9872 14.9213C30.89 14.7945 31.0324 14.6381 31.0804 14.4976C31.1645 14.2509 31.1611 14.2563 31.4629 14.3768C32.1482 14.6497 32.8354 14.9148 33.5212 15.1853C34.4608 15.5554 35.4 15.9276 36.3396 16.2977C37.1559 16.6195 37.9727 16.9389 38.7887 17.26C39.5839 17.5734 40.3792 17.888 41.1826 18.2049Z" fill="#FFD959"/>
<path d="M41.7265 24.8031C40.3679 24.0152 39.0509 23.179 37.946 22.0884C37.9305 22.073 37.9134 22.0595 37.8984 22.0443C37.6004 21.743 37.6023 21.7445 37.3581 21.9975C35.95 23.4584 34.2144 24.5508 32.1859 25.3118C32.0941 25.3464 31.9902 25.3612 31.9139 25.4205C31.9804 25.4627 32.0516 25.4652 32.1234 25.4718C33.6009 25.6024 35.0606 25.6281 36.5041 25.5405C37.2536 25.495 37.9991 25.435 38.7333 25.3405C39.4825 25.2442 40.2312 25.1433 40.9502 24.9654C41.0263 24.9463 41.1002 24.9077 41.1934 24.942C41.3679 24.8895 41.5631 24.8796 41.7265 24.8031Z" fill="#DEAD31"/>
<path d="M31.916 25.4199C31.8971 25.4246 31.8789 25.4291 31.8599 25.4337C31.8789 25.4291 31.8971 25.4246 31.916 25.4199Z" fill="#DEAD31"/>
<path d="M41.842 16.5556C41.8992 16.3941 41.943 16.2607 41.9942 16.131C42.0294 16.0424 41.9938 15.9929 41.8892 15.9523C41.1323 15.6604 40.3761 15.366 39.6198 15.0716C38.7193 14.7216 37.8185 14.371 36.9182 14.0206C35.9902 13.659 35.0628 13.2977 34.1349 12.9362C33.2619 12.5962 32.3889 12.2563 31.5164 11.9155C30.6504 11.5774 29.7846 11.2405 28.9203 10.8978C28.8106 10.8542 28.7614 10.8687 28.7335 10.9572C28.6916 11.091 28.6491 11.2245 28.5979 11.3542C28.5514 11.4731 28.6069 11.5321 28.7435 11.5844C29.7627 11.9748 30.7806 12.369 31.7976 12.765C32.6984 13.1157 33.5966 13.4716 34.497 13.8231C35.4108 14.1797 36.3263 14.5318 37.24 14.8884C38.1472 15.2423 39.0528 15.6007 39.9595 15.9543C40.5158 16.1717 41.0757 16.3805 41.6303 16.6025C41.7682 16.6587 41.8378 16.6539 41.842 16.5556Z" fill="#FFFEFB"/>
<path d="M27.7414 15.6727C27.7064 15.7914 27.6854 15.861 27.6657 15.9318C27.585 16.2168 27.5838 16.2205 27.9194 16.3504C29.2741 16.8735 30.6305 17.392 31.9845 17.9164C33.3393 18.4407 34.6919 18.972 36.0467 19.4962C37.3942 20.0178 38.7434 20.536 40.0927 21.0526C40.4524 21.1902 40.454 21.1856 40.5567 20.886C40.6788 20.5292 40.6759 20.5376 40.2393 20.3705C39.2412 19.9884 38.2464 19.596 37.2495 19.2102C36.2458 18.822 35.2407 18.438 34.2365 18.0496C33.2326 17.6608 32.23 17.2677 31.2265 16.878C30.1399 16.4563 29.0533 16.0374 27.9674 15.6145C27.8136 15.5541 27.7321 15.5748 27.7414 15.6727Z" fill="#FFFEFB"/>
<path d="M41.1805 18.2077C40.3771 17.8907 39.5818 17.5762 38.7858 17.2629C37.9693 16.9415 37.1527 16.6217 36.3367 16.3006C35.3971 15.9305 34.4581 15.5579 33.5183 15.1882C32.8322 14.9182 32.1445 14.6528 31.46 14.3797C31.158 14.2596 31.1616 14.2538 31.0775 14.5005C31.0295 14.6411 30.8877 14.7977 30.9843 14.9242C31.0661 15.0313 31.297 15.0601 31.4611 15.1251C32.3932 15.4942 33.325 15.8653 34.258 16.2327C35.3209 16.6512 36.3864 17.0644 37.4493 17.4829C38.3891 17.8526 39.3278 18.2272 40.2665 18.599C40.5132 18.6968 40.7612 18.7909 41.0069 18.892C41.1098 18.9345 41.1461 18.9085 41.1675 18.8249C41.2014 18.6953 41.2396 18.5651 41.2986 18.4464C41.3588 18.3251 41.3413 18.2476 41.1805 18.2077Z" fill="#FFFEFB"/>
<path d="M35.1372 29.3571C35.0565 29.7159 34.9925 30.0796 34.8916 30.4335C34.3671 32.28 33.2414 33.6543 31.5401 34.5675C31.1086 34.799 30.6543 34.9787 30.1767 35.0975C29.8739 34.4913 29.5827 33.8803 29.3242 33.2541C29.6954 33.1688 30.0228 32.983 30.3577 32.8149C31.1197 32.4311 31.7684 31.8938 32.3002 31.245C33.1595 30.1972 33.6938 29.0038 33.823 27.6367C33.9043 26.7784 33.8083 25.9523 33.5941 25.1263C33.4987 24.7577 33.2974 24.4281 33.2217 24.0547C34.0828 24.9045 34.6324 25.9249 34.939 27.0848C35.0184 27.3864 35.011 27.705 35.1365 27.9955C35.1372 28.4494 35.1372 28.9032 35.1372 29.3571Z" fill="#D6667E"/>
<path d="M29.9807 42.5443C29.2138 42.7471 28.429 42.8422 27.6411 42.9171C26.6298 43.0128 25.6148 43.0231 24.6048 42.9531C23.1201 42.8507 21.6454 42.6649 20.2654 42.0521C19.9207 41.8992 19.5945 41.7158 19.3243 41.4483C18.9771 41.106 18.9291 40.8702 19.131 40.4334C19.6917 39.2205 20.2574 38.0095 20.8181 36.7966C20.8538 36.7192 20.9209 36.6467 20.8907 36.5486L20.8877 36.5505C20.9289 36.5602 20.9326 36.5297 20.94 36.5035C21.3659 35.5983 21.7949 34.6955 22.2153 33.7878C22.432 33.3199 22.6757 32.8642 22.8487 32.3775C22.8826 32.3227 22.9219 32.2709 22.9484 32.213C23.708 30.5743 24.465 28.935 25.2252 27.2968C25.3477 27.0325 25.5293 26.8375 25.8512 26.832C26.0211 26.9892 26.0814 27.203 26.1349 27.4126C26.519 28.9112 26.8963 30.411 27.278 31.9102C27.939 34.5103 28.6026 37.1097 29.2636 39.7097C29.5043 40.654 29.7419 41.5994 29.9807 42.5443Z" fill="#598ECB"/>
<path d="M25.851 26.835C25.5291 26.8405 25.3475 27.0354 25.225 27.2998C24.4649 28.9379 23.7078 30.5773 22.9482 32.216C22.9212 32.2739 22.8818 32.3263 22.8485 32.3805C22.4423 31.8151 22.1616 31.1913 21.9622 30.5285C21.7455 29.8091 21.6877 29.072 21.7037 28.3263C21.7443 27.6525 21.8914 26.9995 22.1087 26.3611C22.4349 25.5679 22.8627 24.8381 23.453 24.2039C24.3947 23.192 25.5328 22.5018 26.89 22.2131C29.2782 21.7044 31.3679 22.302 33.1461 23.9614C33.1572 23.9718 33.1627 23.9889 33.1707 24.0023C33.188 24.0193 33.2046 24.037 33.2218 24.054L33.2206 24.0516C33.2963 24.425 33.497 24.754 33.593 25.1232C33.8072 25.9492 33.9032 26.7759 33.822 27.6337C33.6921 29.0007 33.1584 30.1941 32.2992 31.2419C31.7674 31.8901 31.1186 32.428 30.3566 32.8118C30.0218 32.9805 29.6943 33.1663 29.3232 33.251C29.2776 33.1651 29.2284 33.0816 29.1877 32.9939C28.3057 31.0981 27.4243 29.2023 26.5441 27.3059C26.4056 27.0129 26.2105 26.807 25.851 26.835Z" fill="#EC718B"/>
<path d="M16.7603 38.8428C16.186 38.5681 15.6493 38.2269 15.0972 37.9132C13.4451 36.9744 11.798 36.0271 10.1472 35.0859C10.0376 35.0238 9.97852 34.9617 9.97852 34.8252C9.98344 32.3306 9.98221 29.8353 9.98344 27.3401C9.98344 27.3157 9.98836 27.2919 9.99083 27.2676C11.1092 27.8993 12.2288 28.5286 13.346 29.1628C14.4853 29.8091 15.6222 30.4603 16.7609 31.1091C16.7603 33.6872 16.7603 36.2647 16.7603 38.8428Z" fill="#6EB3CF"/>
<path d="M16.7577 31.1083C15.6196 30.4595 14.4828 29.8089 13.3435 29.162C12.2263 28.5284 11.1067 27.8985 9.98828 27.2668C10.2745 26.9957 10.6401 26.8476 10.9756 26.6551C12.827 25.5897 14.6841 24.5351 16.5355 23.4697C16.7036 23.3728 16.8291 23.3631 17.0046 23.4642C18.6357 24.4054 20.273 25.3356 21.909 26.2683C21.9718 26.3042 22.0407 26.3304 22.1066 26.3615C21.8893 26.9999 21.7422 27.653 21.7016 28.3268C21.6351 28.3578 21.5668 28.384 21.5034 28.42C20.6349 28.9134 19.7664 29.4068 18.8997 29.9033C18.2024 30.303 17.5068 30.7056 16.8107 31.1071C16.7928 31.1083 16.7756 31.1083 16.7577 31.1083Z" fill="#7BC6E4"/>
<path d="M16.8091 31.1046C17.5053 30.7031 18.2008 30.2998 18.8982 29.9008C19.7648 29.4043 20.6333 28.9109 21.5018 28.4174C21.5652 28.3815 21.6341 28.3553 21.7 28.3242C21.684 29.0699 21.7419 29.8064 21.9585 30.5264C22.1579 31.1892 22.4386 31.8131 22.8449 32.3784C22.6719 32.8657 22.4282 33.3214 22.2115 33.7887C21.7911 34.6957 21.3615 35.5992 20.9361 36.5044C20.9189 36.5203 20.9017 36.5361 20.8838 36.5513L20.8869 36.5495C20.2837 36.834 19.7242 37.1965 19.1425 37.5193C18.3614 37.9537 17.5847 38.396 16.8066 38.8346C16.8079 36.2583 16.8085 33.6814 16.8091 31.1046Z" fill="#629EB6"/>
<path d="M25.8574 26.8326C26.2169 26.8046 26.412 27.0105 26.5486 27.3048C27.4288 29.2012 28.3103 31.097 29.1923 32.9928C29.2329 33.0805 29.2822 33.1646 29.3277 33.2498C29.5862 33.8761 29.8774 34.4871 30.1802 35.0933C30.56 35.9242 30.9373 36.757 31.3201 37.5867C31.7713 38.5644 32.2163 39.5446 32.6872 40.5126C32.8306 40.8081 32.7746 41.0438 32.5973 41.2759C32.2428 41.7407 31.7288 41.9765 31.2038 42.1848C30.8099 42.3408 30.4086 42.4785 29.9869 42.5449C29.7481 41.6 29.5105 40.6546 29.2705 39.7103C28.6088 37.1103 27.9459 34.5109 27.2848 31.9108C26.9032 30.4116 26.5265 28.9118 26.1418 27.4132C26.0876 27.2036 26.0279 26.9898 25.8574 26.8326Z" fill="#5A7EA7"/>
<path d="M16.8186 31.1074C16.8179 33.6843 16.8173 36.2612 16.8161 38.8381C16.8013 38.8697 16.7853 38.8746 16.7656 38.8417C16.7656 36.2636 16.7656 33.6861 16.7662 31.108C16.7841 31.108 16.8013 31.108 16.8186 31.1074Z" fill="#82B0C7"/>
<path d="M33.2249 24.0537C33.2077 24.0367 33.1911 24.019 33.1738 24.002C33.1911 24.019 33.2083 24.0367 33.2249 24.0537Z" fill="#D6667E"/>
<path d="M20.8887 36.5547C20.9059 36.5389 20.9231 36.523 20.941 36.5078C20.9336 36.534 20.9293 36.5645 20.8887 36.5547Z" fill="white"/>
</svg>
