<svg width="48" height="48" viewBox="0 0 48 48" fill="none" xmlns="http://www.w3.org/2000/svg">
<path d="M6 16.4135C6.17965 16.2336 6.39453 16.1061 6.61381 15.9804C9.55693 14.2984 12.5009 12.6191 15.4344 10.9214C15.8157 10.7005 16.1169 10.697 16.4964 10.9171C18.6012 12.1397 20.7209 13.3378 22.8265 14.5587C23.0687 14.6993 23.1312 14.6539 23.2483 14.4259C24.8265 11.3494 27.3416 9.5137 30.777 8.98536C32.8307 8.67011 34.7998 9.03863 36.6527 9.98353C37.0851 10.2036 37.2163 10.456 37.0657 10.7669C36.916 11.076 36.6069 11.1494 36.1903 10.9433C35.307 10.5075 34.3868 10.1966 33.4066 10.0569C31.7351 9.81848 30.1156 10.0062 28.5807 10.7022C25.8868 11.9248 24.1792 13.9875 23.531 16.8484C23.0757 18.857 23.3584 20.8088 24.3078 22.6619C24.4478 22.6244 24.4495 22.4934 24.4945 22.3964C25.398 20.4551 26.2989 18.5129 27.2042 16.5725C27.5415 15.8494 28.0276 15.5324 28.7286 15.5795C29.3891 15.6241 29.7748 16.0249 30.0355 16.5899C31.0641 18.8177 32.0962 21.0437 33.1283 23.2697C33.6585 24.4146 34.1983 25.5551 34.7161 26.7052C34.8156 26.9253 34.9002 26.9576 35.1265 26.8764C38.5654 25.6442 40.9335 22.3466 40.922 18.705C40.915 16.4659 40.1638 14.4836 38.628 12.8156C38.5099 12.6872 38.3858 12.5623 38.2783 12.4252C38.067 12.1563 38.0837 11.8803 38.3109 11.6777C38.5364 11.4769 38.8173 11.4873 39.0648 11.7275C39.7807 12.4226 40.3778 13.2103 40.8445 14.0871C41.7217 15.7341 42.1259 17.5017 41.9656 19.3539C41.6759 22.6898 40.0757 25.2652 37.2154 27.0554C36.702 27.3768 36.1577 27.651 35.5783 27.8318C35.3035 27.9173 35.3229 28.016 35.4277 28.2352C35.883 29.1845 37.6733 33.0619 38.1145 34.0181C38.163 34.1229 38.2123 34.2295 38.2475 34.3395C38.3409 34.6312 38.2211 34.8565 37.9631 34.9744C37.72 35.0862 37.4717 35.0338 37.3176 34.7919C37.2066 34.6172 37.1203 34.4251 37.0331 34.2364C34.8438 29.5111 31.3019 21.8663 29.1134 17.1401C29.0844 17.0772 29.0536 17.0152 29.0245 16.9515C28.9435 16.7725 28.829 16.6257 28.6124 16.6257C28.3975 16.6266 28.2848 16.7681 28.2011 16.9506C27.8823 17.6449 27.5573 18.3356 27.2359 19.029C24.7296 24.4373 22.2268 29.8464 19.7108 35.2495C19.5558 35.5831 19.6113 35.8092 19.849 36.0468C20.2189 36.4153 20.668 36.6572 21.1454 36.8537C22.5579 37.437 24.0409 37.7174 25.5539 37.8929C27.1531 38.078 28.7568 38.1068 30.3569 38.009C32.4485 37.8815 34.5171 37.5907 36.4413 36.6878C36.8429 36.4991 37.2189 36.2633 37.4963 35.9001C37.6293 35.7254 37.6619 35.5638 37.558 35.3577C37.3554 34.9543 37.1714 34.5421 36.9882 34.1299C36.8226 33.7579 36.9019 33.4697 37.1951 33.3282C37.4884 33.1876 37.779 33.3134 37.9525 33.6775C38.1867 34.1683 38.4272 34.6582 38.6306 35.1621C38.8763 35.7699 38.5954 36.2677 38.2052 36.7078C37.6742 37.306 36.9715 37.6562 36.2405 37.9427C34.6747 38.5566 33.0314 38.8282 31.3661 38.9915C29.8127 39.1443 28.2566 39.1766 26.7005 39.0614C24.5631 38.9033 22.4487 38.6203 20.4752 37.7182C19.835 37.4257 19.237 37.058 18.8266 36.4625C18.4955 35.9813 18.4083 35.4957 18.6831 34.9325C19.2872 33.695 19.8473 32.4357 20.4259 31.1861C20.4681 31.0952 20.5087 31.0035 20.5817 30.8437C20.3959 30.9415 20.277 31.0009 20.1626 31.0664C18.8988 31.7895 17.6316 32.5073 16.374 33.2409C16.0869 33.4086 15.8421 33.4016 15.5603 33.2391C12.5106 31.4873 9.45654 29.7416 6.4051 27.9916C6.26243 27.9095 6.13474 27.8012 6 27.7051C6 23.9413 6 20.1774 6 16.4135ZM7.06558 17.568C7.0603 17.6658 7.05501 17.72 7.05501 17.7741C7.05501 20.8166 7.05766 23.8583 7.04797 26.9008C7.04709 27.12 7.14924 27.2012 7.30952 27.2929C9.91888 28.7819 12.5247 30.2752 15.1341 31.765C15.2177 31.8131 15.2908 31.9118 15.4256 31.8646C15.4256 28.7548 15.4247 25.6433 15.4291 22.5318C15.4291 22.3755 15.3577 22.3108 15.2362 22.2436C14.758 21.9772 14.2851 21.7013 13.8105 21.4297C12.7088 20.7992 9.25839 18.8299 8.15758 18.1985C7.72871 17.9523 7.6019 17.6632 7.78595 17.3619C7.97265 17.0572 8.2571 17.0336 8.70094 17.2842C8.77228 17.3244 8.84361 17.3637 8.91406 17.4038C10.4094 18.2597 14.2561 20.4516 15.747 21.3153C15.9099 21.4096 16.0182 21.4105 16.1829 21.3162C18.1397 20.1879 20.1018 19.0683 22.0639 17.9505C22.2136 17.8649 22.3034 17.7785 22.3263 17.5864C22.3915 17.0475 22.4725 16.5079 22.6521 15.9909C22.7261 15.776 22.646 15.6739 22.454 15.5656C20.3677 14.3814 18.2868 13.1894 16.2102 11.9886C16.0182 11.8777 15.8879 11.896 15.7065 12.0008C13.1024 13.4985 10.4939 14.9883 7.88723 16.4808C7.7974 16.5323 7.7111 16.5891 7.60982 16.6519C8.00347 16.879 8.37863 17.0912 8.74938 17.3095C9.12718 17.5313 9.23726 17.8134 9.06817 18.1051C8.90085 18.3924 8.59527 18.4378 8.2113 18.2239C7.84055 18.0134 7.47156 17.7994 7.06558 17.568ZM16.5026 31.8882C16.5722 31.8742 16.6083 31.8759 16.6347 31.8611C18.1714 30.9834 19.7073 30.1041 21.2449 29.2273C21.3417 29.1723 21.4016 29.098 21.4465 29.0011C22.2039 27.3628 22.9595 25.7236 23.7221 24.088C23.7785 23.9675 23.775 23.8801 23.7072 23.771C22.8723 22.4139 22.3844 20.9468 22.292 19.3556C22.2796 19.1495 22.2488 19.0587 22.0128 19.195C20.2489 20.215 18.4796 21.2262 16.7087 22.234C16.559 22.3187 16.4973 22.4095 16.4973 22.5859C16.5035 25.6747 16.5026 28.7627 16.5026 31.8882Z" fill="#0E0D0D"/>
<mask id="mask0_1183_83296" style="mask-type:alpha" maskUnits="userSpaceOnUse" x="33" y="10" width="9" height="11">
<rect x="33.5664" y="10.1094" width="8.43213" height="9.89477" fill="#D9D9D9"/>
</mask>
<g mask="url(#mask0_1183_83296)">
<path d="M41.4481 18.6785C41.4481 23.7849 37.2914 27.9282 32.1592 27.9282C27.027 27.9282 22.8703 23.7849 22.8703 18.6785C22.8703 13.5722 27.027 9.42891 32.1592 9.42891C37.2914 9.42891 41.4481 13.5722 41.4481 18.6785Z" stroke="black" stroke-width="1.1"/>
</g>
</svg>
