<svg width="48" height="48" viewBox="0 0 48 48" fill="none" xmlns="http://www.w3.org/2000/svg">
<path d="M25.8029 31.031L19.8357 27.8256C19.0567 28.6459 18.0451 29.2165 16.9325 29.4631C15.8199 29.7098 14.6577 29.6211 13.597 29.2086C12.5362 28.7961 11.626 28.0789 10.9845 27.1501C10.343 26.2213 10 25.124 10 24.0007C10 22.8774 10.343 21.7801 10.9845 20.8513C11.626 19.9225 12.5362 19.2053 13.597 18.7928C14.6577 18.3803 15.8199 18.2916 16.9325 18.5383C18.0451 18.7849 19.0567 19.3555 19.8357 20.1758L25.8043 16.9704C25.4655 15.6491 25.6275 14.2515 26.26 13.0394C26.8925 11.8274 27.952 10.8842 29.2401 10.3866C30.5281 9.88898 31.9561 9.87118 33.2565 10.3365C34.5569 10.8018 35.6404 11.7183 36.3038 12.9142C36.9673 14.1101 37.1651 15.5033 36.8603 16.8326C36.5555 18.1619 35.769 19.336 34.6482 20.135C33.5273 20.9339 32.1491 21.3028 30.7719 21.1725C29.3947 21.0421 28.113 20.4215 27.1672 19.427L21.1985 22.6324C21.4276 23.5302 21.4276 24.4698 21.1985 25.3676L27.1657 28.573C28.1116 27.5785 29.3933 26.9579 30.7705 26.8275C32.1477 26.6972 33.5259 27.0661 34.6467 27.865C35.7676 28.664 36.5541 29.8381 36.8589 31.1674C37.1637 32.4967 36.9658 33.8899 36.3024 35.0858C35.639 36.2817 34.5555 37.1982 33.2551 37.6635C31.9547 38.1288 30.5267 38.111 29.2386 37.6134C27.9506 37.1158 26.8911 36.1726 26.2586 34.9606C25.6261 33.7486 25.4641 32.3509 25.8029 31.0296V31.031ZM15.6847 26.7995C16.4385 26.7995 17.1614 26.5046 17.6944 25.9796C18.2274 25.4546 18.5269 24.7425 18.5269 24C18.5269 23.2575 18.2274 22.5454 17.6944 22.0204C17.1614 21.4954 16.4385 21.2005 15.6847 21.2005C14.9309 21.2005 14.208 21.4954 13.6749 22.0204C13.1419 22.5454 12.8425 23.2575 12.8425 24C12.8425 24.7425 13.1419 25.4546 13.6749 25.9796C14.208 26.5046 14.9309 26.7995 15.6847 26.7995ZM31.3168 18.4009C32.0706 18.4009 32.7935 18.106 33.3265 17.581C33.8595 17.056 34.159 16.3439 34.159 15.6014C34.159 14.8589 33.8595 14.1468 33.3265 13.6218C32.7935 13.0968 32.0706 12.8019 31.3168 12.8019C30.563 12.8019 29.84 13.0968 29.307 13.6218C28.774 14.1468 28.4746 14.8589 28.4746 15.6014C28.4746 16.3439 28.774 17.056 29.307 17.581C29.84 18.106 30.563 18.4009 31.3168 18.4009ZM31.3168 35.1981C32.0706 35.1981 32.7935 34.9032 33.3265 34.3782C33.8595 33.8532 34.159 33.1411 34.159 32.3986C34.159 31.6561 33.8595 30.944 33.3265 30.419C32.7935 29.894 32.0706 29.5991 31.3168 29.5991C30.563 29.5991 29.84 29.894 29.307 30.419C28.774 30.944 28.4746 31.6561 28.4746 32.3986C28.4746 33.1411 28.774 33.8532 29.307 34.3782C29.84 34.9032 30.563 35.1981 31.3168 35.1981Z" fill="black"/>
</svg>
