<svg width="48" height="48" viewBox="0 0 48 48" fill="none" xmlns="http://www.w3.org/2000/svg">
<path d="M28.2289 13.7907C27.697 10.9174 29.0587 8.35218 31.5878 7.36992C34.0542 6.41216 36.83 7.36477 38.2045 9.64251C39.5675 11.8996 39.1175 14.8657 37.1612 16.6175C35.3929 18.2018 32.1823 18.8038 29.4909 16.2527C26.2394 18.1206 22.9751 19.9961 19.7236 21.8639C19.7914 22.4298 19.9026 22.9571 19.9026 23.4856C19.9026 24.0141 19.7926 24.5439 19.7249 25.1265C21.5213 26.159 23.3472 27.2083 25.173 28.2589C26.4478 28.9911 27.7315 29.7091 28.9909 30.4657C29.3783 30.6978 29.6072 30.6862 29.9639 30.3678C31.6632 28.8441 34.1079 28.576 36.0923 29.6382C38.0895 30.7068 39.2121 32.8634 38.9666 35.1617C38.7364 37.3132 37.1254 39.19 34.9863 39.7959C31.2182 40.8645 27.5333 37.5774 28.156 33.6729C28.2212 33.2643 28.1176 33.107 27.8031 32.9265C24.7677 31.1954 21.7348 29.4616 18.7148 27.702C18.3465 27.4868 18.1407 27.5551 17.8351 27.7923C14.6386 30.2634 10.1379 28.7101 9.16359 24.8107C8.6074 22.5819 9.49859 20.2372 11.3935 18.9468C13.2986 17.6488 15.7893 17.6475 17.6024 19.0474C18.1445 19.4663 18.491 19.4302 19.0306 19.1144C21.9164 17.4219 24.8239 15.7681 27.7238 14.0987C27.89 14.0046 28.0486 13.9015 28.2289 13.7907Z" fill="url(#paint0_linear_5777_109844)"/>
<defs>
<linearGradient id="paint0_linear_5777_109844" x1="-1.5" y1="18.5" x2="114.5" y2="65.5" gradientUnits="userSpaceOnUse">
<stop stop-color="#318EFD"/>
<stop offset="1" stop-color="#002E65"/>
</linearGradient>
</defs>
</svg>
