<svg width="43" height="43" viewBox="0 0 43 43" fill="none" xmlns="http://www.w3.org/2000/svg">
<path d="M22.5387 33.5797C22.5252 33.3598 22.5117 33.2087 22.5117 33.0575C22.5117 29.3474 22.5117 25.6373 22.5252 21.9272C22.5252 21.6661 22.6737 21.2813 22.8762 21.1577C26.1429 19.2064 29.4366 17.2826 32.7303 15.3451C32.7843 15.3177 32.8518 15.3039 32.9733 15.2627C32.9868 15.4413 33.0003 15.5787 33.0003 15.7299C33.0003 19.44 33.0003 23.1501 33.0003 26.8602C33.0003 27.245 32.9598 27.5336 32.5683 27.7534C29.3421 29.6222 26.1429 31.5185 22.9302 33.401C22.8357 33.456 22.7142 33.4972 22.5387 33.5797Z" fill="black"/>
<path d="M11.082 13.3803C14.5107 11.3603 17.8449 9.39532 21.2061 7.44407C21.3546 7.34789 21.6516 7.34789 21.8001 7.43033C25.1748 9.39532 28.536 11.3741 31.9782 13.4077C30.9118 14.0398 29.8994 14.6307 28.9005 15.2216C26.6057 16.5682 24.3109 17.9149 22.0161 19.2615C21.7056 19.4401 21.4761 19.5501 21.0981 19.3302C17.8584 17.4064 14.6052 15.5101 11.3655 13.6001C11.298 13.5589 11.2305 13.5039 11.082 13.3803Z" fill="black"/>
<path d="M10.0625 15.1924C12.3033 16.5115 14.4361 17.762 16.5689 19.0124C17.7298 19.6995 18.9042 20.3728 20.0651 21.0873C20.2541 21.211 20.4836 21.4858 20.4836 21.6782C20.4971 25.5945 20.4836 29.497 20.4701 33.4132C20.4701 33.4407 20.4566 33.4544 20.4161 33.5643C19.9976 33.3307 19.5927 33.1246 19.2012 32.891C16.2989 31.1871 13.4102 29.497 10.5215 27.7656C10.319 27.6419 10.076 27.3396 10.076 27.1335C10.0625 23.1897 10.0625 19.2598 10.0625 15.1924Z" fill="black"/>
<path d="M13.004 31.4522C9.66977 32.7714 6.55155 34.2142 3.06886 34.3928C2.71789 34.4066 2.35342 34.3928 2.00245 34.3379C0.463589 34.0768 -0.373338 32.7989 0.193612 31.3148C0.55808 30.3667 1.16553 29.4597 1.81347 28.6628C3.60881 26.4642 5.82261 24.7465 8.1714 22.9189C8.1714 23.9358 8.1984 24.8152 8.14441 25.6947C8.13091 25.9008 7.83393 26.1069 7.64495 26.2718C5.9171 27.7421 4.17576 29.1849 2.85287 31.0675C2.66389 31.3423 2.5154 31.6446 2.23193 32.1393C3.05536 32.0706 3.7168 32.1255 4.31075 31.9469C6.22758 31.3973 8.11741 30.7652 10.0342 30.188C10.3177 30.1056 10.6957 30.1193 10.9522 30.2567C11.6136 30.5865 12.2345 30.9988 13.004 31.4522Z" fill="black"/>
<path d="M2.26645 9.90322C2.76591 10.5628 3.18437 11.3048 3.76482 11.8819C5.04721 13.1599 6.42408 14.3416 7.71997 15.6058C7.93595 15.8119 8.11143 16.1555 8.13843 16.444C8.19243 17.186 8.15193 17.9418 8.15193 18.8487C7.77396 18.5739 7.49049 18.3678 7.22051 18.1479C5.15519 16.5127 3.11688 14.85 1.48352 12.7751C0.957068 12.1018 0.498108 11.346 0.187635 10.5491C-0.406312 8.98256 0.457611 7.56722 2.10446 7.45729C3.21137 7.38858 4.37226 7.44355 5.43867 7.73211C7.85496 8.39169 10.2307 9.24364 12.62 10.0131C12.62 10.1093 12.62 10.1918 12.62 10.288C11.8641 10.7277 11.1082 11.1949 10.3387 11.5934C10.1902 11.6758 9.92027 11.5522 9.71779 11.4835C7.65247 10.7139 5.58715 9.9307 3.37335 9.71084C3.06288 9.68336 2.75241 9.71084 2.44193 9.71084C2.38794 9.7658 2.33395 9.83451 2.26645 9.90322Z" fill="black"/>
<path d="M29.957 31.5035C30.6995 31.0638 31.3609 30.624 32.0493 30.2805C32.2653 30.1706 32.6028 30.2118 32.8458 30.2943C34.9246 31.05 36.9764 31.847 39.1902 32.0669C39.5142 32.0944 39.8382 32.0669 40.3916 32.0669C39.9056 31.3523 39.5952 30.7477 39.1497 30.2943C37.9078 29.0301 36.6254 27.8208 35.3296 26.6116C35.0191 26.3231 34.8436 26.0757 34.8706 25.636C34.9111 24.9077 34.8841 24.1794 34.8841 23.4512C34.9516 23.4374 35.0056 23.4099 35.0326 23.4237C37.3814 25.2375 39.6897 27.12 41.4715 29.5385C41.89 30.1156 42.2409 30.7889 42.4434 31.476C42.8484 32.9463 41.971 34.238 40.4456 34.3067C39.2712 34.3616 38.0293 34.3204 36.9224 33.9906C34.6411 33.3311 32.4138 32.4516 30.173 31.6546C30.119 31.6546 30.065 31.5997 29.957 31.5035Z" fill="black"/>
<path d="M40.1343 9.60476C39.2839 9.71469 38.4065 9.75591 37.5831 9.97577C36.0712 10.388 34.5863 10.9239 33.0745 11.3774C32.818 11.4598 32.4535 11.4323 32.2105 11.3087C31.5356 10.9651 30.8877 10.5529 30.2262 10.1544C30.2127 10.0857 30.1992 10.0033 30.1992 9.93455C32.3185 9.23375 34.4108 8.43676 36.5572 7.84589C37.772 7.5161 39.0814 7.37869 40.3368 7.43365C42.1322 7.50236 43.0231 9.01389 42.2941 10.6903C41.8622 11.6659 41.2412 12.6278 40.4988 13.3973C38.771 15.1562 36.9216 16.7914 35.1263 18.4816C35.0453 18.4403 34.9778 18.3991 34.8968 18.3579C34.8968 17.4372 34.8833 16.5303 34.9103 15.6097C34.9103 15.4722 35.1398 15.3486 35.2613 15.2249C36.5976 13.9332 37.9475 12.6553 39.2434 11.3361C39.6484 10.9239 39.9049 10.388 40.2423 9.89332C40.2153 9.79713 40.1748 9.70095 40.1343 9.60476Z" fill="black"/>
</svg>
