<svg width="43" height="43" viewBox="0 0 43 43" fill="none" xmlns="http://www.w3.org/2000/svg">
<path fill-rule="evenodd" clip-rule="evenodd" d="M9.83114 25.6119C10.5262 25.0259 11.313 24.4043 12.1776 23.7585V25.2795C11.613 25.7149 11.0897 26.1358 10.6122 26.5384C9.43707 27.5289 8.56191 28.3896 8.03373 29.065C7.76755 29.4053 7.61311 29.6691 7.54291 29.8564C7.52301 29.9095 7.51262 29.9485 7.50728 29.9758C7.53384 29.9841 7.57309 29.9934 7.62929 30.001C7.82751 30.028 8.13296 30.0171 8.55882 29.944C9.40385 29.7991 10.5765 29.4365 12.0058 28.8714C12.6229 28.6275 13.2829 28.3477 13.9789 28.0349L15.4332 28.6997C14.3658 29.2015 13.3649 29.6371 12.4514 29.9983C10.9924 30.5752 9.7298 30.9727 8.76364 31.1384C8.28389 31.2206 7.83977 31.2526 7.46582 31.2017C7.10327 31.1524 6.6823 31.0054 6.44598 30.6098C6.20966 30.2141 6.2798 29.7738 6.4082 29.4312C6.54064 29.0778 6.77934 28.7019 7.0792 28.3185C7.68309 27.5463 8.63163 26.623 9.83114 25.6119ZM32.4023 16.6879C31.9441 17.0741 31.4436 17.4773 30.9051 17.894V19.4167C31.7429 18.7891 32.5065 18.1848 33.1833 17.6144C34.3828 16.6032 35.3313 15.6799 35.9352 14.9077C36.2351 14.5243 36.4738 14.1484 36.6062 13.795C36.7346 13.4524 36.8048 13.0121 36.5684 12.6165C36.3321 12.2208 35.9112 12.0739 35.5486 12.0245C35.1747 11.9736 34.7305 12.0056 34.2508 12.0878C33.2846 12.2535 32.022 12.651 30.5631 13.2279C29.7269 13.5585 28.8175 13.9515 27.8509 14.4005L29.3115 15.0682C29.9065 14.8047 30.4737 14.5663 31.0086 14.3548C32.4379 13.7897 33.6106 13.4271 34.4556 13.2822C34.8815 13.2091 35.1869 13.1982 35.3851 13.2252C35.4413 13.2328 35.4806 13.2422 35.5072 13.2504C35.5018 13.2777 35.4914 13.3167 35.4715 13.3698C35.4013 13.5571 35.2469 13.8209 34.9807 14.1612C34.4525 14.8366 33.5774 15.6973 32.4023 16.6879ZM35.512 13.1976C35.5121 13.1976 35.5123 13.1986 35.5124 13.2007C35.512 13.1988 35.512 13.1977 35.512 13.1976ZM7.45901 29.9553C7.45871 29.9552 7.45853 29.9551 7.45851 29.9551C7.45847 29.9551 7.45866 29.9553 7.4591 29.9556C7.45952 29.9559 7.46016 29.9563 7.46106 29.9569C7.46014 29.9561 7.45944 29.9556 7.45901 29.9553ZM7.50202 30.0255C7.5024 30.0275 7.50247 30.0285 7.5024 30.0286C7.50234 30.0286 7.50214 30.0276 7.50202 30.0255ZM35.5555 13.2707C35.5551 13.2704 35.5544 13.2699 35.5534 13.2693C35.5542 13.27 35.5549 13.2705 35.5553 13.2708C35.5557 13.271 35.5559 13.2712 35.5559 13.2711C35.5559 13.2711 35.5558 13.271 35.5555 13.2707ZM15.0251 14.4953C14.0585 14.0658 13.1494 13.6906 12.3135 13.3759C10.8452 12.8231 9.5763 12.4463 8.60755 12.2965C8.12652 12.2221 7.68193 12.1974 7.30887 12.2544C6.94718 12.3097 6.52868 12.4636 6.29887 12.863C6.06907 13.2625 6.14642 13.7016 6.28043 14.0421C6.41864 14.3933 6.66347 14.7652 6.96958 15.1436C7.58605 15.9058 8.5496 16.8134 9.76553 17.8047C10.4803 18.3875 11.29 19.0054 12.1802 19.6468V18.1455C11.5844 17.7028 11.033 17.2747 10.5313 16.8656C9.34008 15.8944 8.45092 15.0482 7.91173 14.3816C7.64001 14.0456 7.48127 13.7844 7.40801 13.5983C7.38724 13.5455 7.3762 13.5067 7.37042 13.4795C7.39684 13.4708 7.43593 13.4608 7.49201 13.4523C7.68976 13.422 7.99535 13.428 8.42234 13.494C9.26964 13.6251 10.4481 13.9684 11.8865 14.5099C12.409 14.7067 12.9623 14.9283 13.5423 15.1731L15.0251 14.4953ZM29.263 27.9624C29.9182 28.2422 30.5407 28.4931 31.1248 28.7131C32.5631 29.2546 33.7416 29.5979 34.5889 29.729C35.0159 29.795 35.3215 29.801 35.5192 29.7707C35.5753 29.7621 35.6144 29.7522 35.6408 29.7435C35.635 29.7163 35.624 29.6775 35.6032 29.6247C35.5299 29.4386 35.3712 29.1774 35.0995 28.8414C34.5603 28.1748 33.6711 27.3286 32.4799 26.3574C31.9997 25.9659 31.4741 25.557 30.9076 25.1345V23.6314C31.7676 24.253 32.5514 24.8522 33.2457 25.4183C34.4616 26.4096 35.4252 27.3172 36.0416 28.0794C36.3477 28.4578 36.5926 28.8297 36.7308 29.1809C36.8648 29.5214 36.9421 29.9605 36.7123 30.36C36.4825 30.7594 36.064 30.9133 35.7023 30.9686C35.3293 31.0256 34.8847 31.0009 34.4037 30.9265C33.4349 30.7767 32.166 30.3999 30.6977 29.8471C29.8041 29.5106 28.8268 29.1051 27.7851 28.638L29.263 27.9624ZM7.322 13.501C7.32194 13.501 7.32271 13.5003 7.32452 13.4992C7.32297 13.5005 7.32206 13.5011 7.322 13.501ZM35.6465 29.7962C35.6465 29.7961 35.6465 29.7951 35.6469 29.7931C35.6468 29.7952 35.6466 29.7962 35.6465 29.7962ZM35.6867 29.7238C35.6882 29.7225 35.6891 29.7219 35.6892 29.722C35.6892 29.722 35.6892 29.722 35.6891 29.7221C35.689 29.7222 35.6889 29.7223 35.6886 29.7225L35.6867 29.7238ZM7.36435 13.4299C7.36444 13.4278 7.36462 13.4268 7.36468 13.4268C7.36475 13.4269 7.3647 13.4279 7.36435 13.4299ZM21.501 12.2671L21.7318 12.3736L29.8471 16.1191L30.167 16.2668V16.6192V26.6072V26.9596L29.8471 27.1073L21.7318 30.8528L21.501 30.9593L21.2702 30.8528L13.155 27.1073L12.835 26.9596V26.6072V16.6192V16.2668L13.155 16.1191L21.2702 12.3736L21.501 12.2671ZM13.9366 17.4801V26.2548L20.9502 29.4918V20.7171L13.9366 17.4801ZM22.0518 20.7171V29.4918L29.0654 26.2548V17.4801L22.0518 20.7171ZM28.3018 16.6192L21.501 19.7581L14.7002 16.6192L21.501 13.4804L28.3018 16.6192Z" fill="black"/>
</svg>
