<svg width="48" height="48" viewBox="0 0 48 48" fill="none" xmlns="http://www.w3.org/2000/svg">
<path d="M38.9994 33.711C38.9285 33.9064 38.8423 34.0027 38.6729 33.9999C37.5376 33.9822 36.4017 33.985 35.2664 33.9962C35.0724 33.9981 34.9942 33.9261 35.0003 33.61C35.0139 32.8647 35.0114 32.1194 35.001 31.3741C34.9973 31.0917 35.0539 30.9982 35.2443 31C36.4005 31.0112 37.5561 31.0094 38.7123 31C38.8368 30.9991 38.9248 31.0552 39 31.1917C39 31.2852 39 31.3788 39 31.4713C39 32.1726 39 32.8068 39 33.3369C38.9994 33.4622 38.9994 33.5866 38.9994 33.711Z" fill="#AFB3B8"/>
<path d="M38.9994 16.8067C38.9218 16.9794 38.8097 16.9971 38.6815 16.9962C37.5463 16.9906 36.411 16.985 35.2764 16.9999C35.0614 17.0027 34.9937 16.9066 35.0005 16.5809C35.0152 15.8529 35.014 15.1239 35.0011 14.3968C34.9955 14.0851 35.0688 14.0058 35.2653 14.0076C36.3901 14.0198 37.5155 14.0291 38.6397 14.0002C38.8614 13.9946 38.9322 14.1458 39 14.3856C39 14.479 39 14.5723 39 14.6647C39 15.2017 39 15.8347 39 16.5267C38.9994 16.621 38.9994 16.7143 38.9994 16.8067Z" fill="#AFB3B8"/>
<path d="M16.9886 9C16.9886 10.2148 16.9728 11.4297 16.9998 12.6445C17.0063 12.9421 16.8628 13.0121 16.4517 12.9984C15.8188 12.9771 15.1812 12.9771 14.5483 12.9984C14.1372 13.0121 13.9937 12.9427 14.0002 12.6445C14.0282 11.4297 14.0123 10.2148 14.0123 9C15.0041 9 15.9968 9 16.9886 9Z" fill="#AFB3B8"/>
<path d="M33.9886 9C33.9886 10.2148 33.9728 11.4297 33.9998 12.6445C34.0063 12.9421 33.8628 13.0121 33.4517 12.9984C32.8188 12.9771 32.1812 12.9771 31.5483 12.9984C31.1372 13.0121 30.9937 12.9427 31.0002 12.6445C31.0272 11.4297 31.0114 10.2148 31.0114 9C32.005 9 32.9968 9 33.9886 9Z" fill="#AFB3B8"/>
<path d="M9 14.0114C10.2148 14.0114 11.4297 14.0272 12.6445 14.0002C12.9421 13.9937 13.0121 14.1372 12.9984 14.5483C12.9771 15.1812 12.9771 15.8188 12.9984 16.4517C13.0121 16.8628 12.9427 17.0063 12.6445 16.9998C11.4297 16.9728 10.2148 16.9886 9 16.9886C9 15.9959 9 15.0032 9 14.0114Z" fill="#AFB3B8"/>
<path d="M9 31.0114C10.2148 31.0114 11.4297 31.0272 12.6445 31.0002C12.9421 30.9937 13.0121 31.1372 12.9984 31.5483C12.9771 32.1812 12.9771 32.8188 12.9984 33.4517C13.0121 33.8628 12.9427 34.0063 12.6445 33.9998C11.4297 33.9728 10.2148 33.9886 9 33.9886C9 32.995 9 32.0032 9 31.0114Z" fill="#AFB3B8"/>
<path d="M14.006 36.9689C14.006 36.409 14.0173 35.8491 14.0004 35.2892C13.9939 35.083 14.0622 34.9924 14.4065 35.0005C15.1353 35.0167 15.866 35.013 16.5948 35.0018C16.8886 34.9974 17.0028 35.0474 16.9999 35.2592C16.9859 36.4202 16.9887 37.5819 16.9981 38.743C16.999 38.9217 16.9419 39.0048 16.6397 38.9998C15.8791 38.9873 15.1185 38.9873 14.3578 38.9998C14.0547 39.0048 13.9976 38.9198 14.0014 38.7417C14.0135 38.1512 14.006 37.56 14.006 36.9689Z" fill="#AFB3B8"/>
<path d="M31.0059 36.9857C31.0059 36.415 31.0152 35.8449 31.0002 35.2741C30.9956 35.0816 31.0573 34.9941 31.3812 35.0003C32.1262 35.0147 32.8722 35.0109 33.6172 35.0016C33.8886 34.9984 34.0018 35.0428 34 35.2422C33.9878 36.4143 33.9906 37.5865 33.9981 38.7586C33.999 38.9236 33.9448 39.0036 33.6649 38.9999C32.889 38.9899 32.1122 38.9899 31.3353 38.9999C31.0564 39.0036 30.9984 38.9249 31.0012 38.7592C31.0115 38.1685 31.0059 37.5771 31.0059 36.9857Z" fill="#AFB3B8"/>
<rect x="14.5742" y="14.5762" width="18.8486" height="18.8486" rx="2" fill="#40A1E6"/>
</svg>
