<svg width="140" height="140" viewBox="0 0 140 140" fill="none" xmlns="http://www.w3.org/2000/svg">
<g clip-path="url(#clip0_208_6)">
<path fill-rule="evenodd" clip-rule="evenodd" d="M3.54605 67.502L4.66582 68.5229C4.20989 69.023 3.86843 69.5159 3.62819 69.9998C4.49482 71.7442 6.63795 73.526 10.2385 75.2027C14.112 77.0066 19.3503 78.5403 25.5567 79.779C37.9566 82.2538 53.9574 83.5 70 83.5C86.0426 83.5 102.043 82.2538 114.443 79.779C120.65 78.5403 125.888 77.0066 129.762 75.2027C133.362 73.526 135.505 71.7442 136.372 69.9998C136.132 69.5159 135.79 69.023 135.334 68.5229L136.454 67.502C135.14 31.9325 105.891 3.5 70 3.5C34.1094 3.5 4.85962 31.9325 3.54605 67.502ZM70 136.5C34.8403 136.5 6.05367 109.214 3.66088 74.662C5.10479 75.8888 6.92226 76.9677 8.97203 77.9223C13.1512 79.8684 18.6497 81.4597 24.9696 82.721C37.6224 85.2462 53.8321 86.5 70 86.5C86.1679 86.5 102.378 85.2462 115.03 82.721C121.35 81.4597 126.849 79.8684 131.028 77.9223C133.078 76.9677 134.895 75.8888 136.339 74.662C133.946 109.214 105.16 136.5 70 136.5ZM0.5 70C0.5 31.6162 31.6162 0.5 70 0.5C108.384 0.5 139.5 31.6162 139.5 70C139.5 108.384 108.384 139.5 70 139.5C31.6162 139.5 0.5 108.384 0.5 70ZM132.319 62.7124C130.645 61.8426 128.727 61.0438 126.609 60.3115L125.629 63.1467C127.644 63.8435 129.421 64.5876 130.936 65.3747L132.319 62.7124ZM13.3907 60.3115C11.2732 61.0438 9.35515 61.8426 7.68068 62.7124L9.06354 65.3747C10.5787 64.5876 12.3564 63.8435 14.3713 63.1467L13.3907 60.3115ZM120.767 58.5761C118.892 58.096 116.91 57.651 114.836 57.2404L114.254 60.1833C116.28 60.5845 118.208 61.0176 120.022 61.4823L120.767 58.5761ZM25.1636 57.2404C23.0902 57.651 21.108 58.096 19.2334 58.5761L19.9776 61.4823C21.7923 61.0176 23.7201 60.5845 25.7462 60.1833L25.1636 57.2404ZM108.916 56.1982C106.986 55.8971 104.997 55.6214 102.959 55.371L102.593 58.3486C104.601 58.5954 106.558 58.8667 108.454 59.1624L108.916 56.1982ZM37.0411 55.371C35.0029 55.6214 33.0138 55.8971 31.0839 56.1982L31.5463 59.1624C33.4418 58.8667 35.3987 58.5954 37.407 58.3486L37.0411 55.371ZM96.9821 54.7216C95.0178 54.5346 93.0192 54.3691 90.9944 54.2251L90.7816 57.2175C92.7836 57.3599 94.7583 57.5234 96.6978 57.7081L96.9821 54.7216ZM49.0056 54.2251C46.9808 54.3691 44.9822 54.5346 43.0179 54.7216L43.3022 57.7081C45.2417 57.5234 47.2164 57.3599 49.2184 57.2175L49.0056 54.2251ZM85 53.8649C83.0154 53.7669 81.0136 53.6887 79.0015 53.6302L78.9143 56.6289C80.9066 56.6869 82.8882 56.7643 84.8521 56.8612L85 53.8649ZM60.9985 53.6302C58.9864 53.6887 56.9846 53.7669 55 53.8649L55.1479 56.8612C57.1118 56.7643 59.0934 56.6869 61.0857 56.6289L60.9985 53.6302ZM72.9719 56.5143L73.0008 53.5144C71.0014 53.4952 68.9986 53.4952 66.9992 53.5144L67.0281 56.5143C69.0082 56.4952 70.9918 56.4952 72.9719 56.5143Z" fill="black"/>
</g>
<defs>
<clipPath id="clip0_208_6">
<rect width="140" height="140" fill="white"/>
</clipPath>
</defs>
</svg>
