<svg width="260" height="272" viewBox="0 0 260 272" fill="none" xmlns="http://www.w3.org/2000/svg">
<g clip-path="url(#clip0_4467_117455)">
<g style="mix-blend-mode:multiply">
<path opacity="0.06" d="M1.66134 209.406C1.40656 210.699 1.27796 212.013 1.27734 213.331L175.699 270.931C175.758 270.951 175.82 270.959 175.882 270.955C175.944 270.951 176.004 270.934 176.06 270.906C176.115 270.879 176.165 270.84 176.205 270.793C176.246 270.746 176.277 270.691 176.296 270.632L221.949 74.3657C221.975 74.247 221.954 74.1229 221.891 74.0195C221.827 73.9161 221.726 73.8413 221.608 73.811L68.008 37.6297C67.8947 37.587 67.7692 37.5898 67.6579 37.6376C67.5465 37.6853 67.458 37.7742 67.4107 37.8857L1.66134 209.406Z" fill="#FAFAFA"/>
<path opacity="0.13" d="M1.70066 209.367C1.42333 210.627 1.30861 211.918 1.35933 213.207L174.927 270.252C174.986 270.279 175.049 270.293 175.113 270.292C175.177 270.291 175.241 270.276 175.298 270.247C175.355 270.218 175.406 270.177 175.445 270.126C175.484 270.076 175.511 270.017 175.525 269.954L221.861 74.455C221.887 74.3364 221.866 74.2123 221.802 74.1089C221.738 74.0054 221.637 73.9307 221.519 73.9004L67.2793 36.823C67.166 36.7804 67.0405 36.7832 66.9292 36.8309C66.8179 36.8786 66.7293 36.9675 66.682 37.079L1.70066 209.367Z" fill="#F6F6F6"/>
<path opacity="0.19" d="M1.70023 209.276C1.47903 210.471 1.37897 211.687 1.40156 212.902L174.372 269.393C174.431 269.413 174.493 269.421 174.555 269.417C174.617 269.413 174.678 269.396 174.733 269.368C174.789 269.341 174.838 269.302 174.879 269.255C174.919 269.208 174.95 269.153 174.97 269.094L221.86 74.4917C221.88 74.43 221.886 74.3651 221.879 74.3009C221.872 74.2367 221.852 74.1746 221.82 74.1186C221.788 74.0625 221.745 74.0136 221.693 73.975C221.641 73.9365 221.582 73.909 221.519 73.8943L66.5962 35.9637C66.4829 35.921 66.3574 35.9238 66.2461 35.9715C66.1348 36.0193 66.0462 36.1082 65.9989 36.2197L1.70023 209.276Z" fill="#F1F1F1"/>
<path opacity="0.25" d="M1.74528 209.064C1.49655 210.184 1.41033 211.333 1.48928 212.478L173.692 268.542C173.75 268.569 173.814 268.582 173.878 268.581C173.942 268.58 174.005 268.565 174.063 268.536C174.12 268.508 174.17 268.466 174.21 268.415C174.249 268.365 174.276 268.306 174.289 268.243L221.863 74.4935C221.889 74.3749 221.867 74.2508 221.804 74.1473C221.74 74.0439 221.639 73.9692 221.521 73.9388L65.9159 35.1122C65.8628 35.0918 65.8061 35.0823 65.7492 35.0842C65.6923 35.0861 65.6363 35.0994 65.5847 35.1233C65.533 35.1471 65.4866 35.1811 65.4482 35.2231C65.4098 35.2652 65.3803 35.3145 65.3613 35.3682L1.74528 209.064Z" fill="#EDEDED"/>
<path opacity="0.31" d="M1.78805 209.063C1.62273 210.109 1.62273 211.174 1.78805 212.22L173.265 267.687C173.324 267.707 173.386 267.715 173.448 267.711C173.51 267.707 173.571 267.69 173.626 267.662C173.682 267.635 173.732 267.596 173.772 267.549C173.813 267.502 173.843 267.447 173.863 267.388L221.863 74.535C221.89 74.4108 221.87 74.2809 221.807 74.1705C221.744 74.06 221.642 73.9771 221.521 73.9377L65.2761 34.1297C65.1627 34.087 65.0372 34.0898 64.9259 34.1376C64.8146 34.1853 64.726 34.2742 64.6787 34.3857L1.78805 209.063Z" fill="#E8E8E8"/>
<path opacity="0.38" d="M1.78808 209.062C1.61752 210.036 1.61752 211.032 1.78808 212.006L172.455 266.833C172.514 266.853 172.576 266.861 172.638 266.856C172.7 266.852 172.76 266.836 172.816 266.808C172.871 266.78 172.921 266.742 172.961 266.695C173.002 266.648 173.033 266.593 173.052 266.534L221.863 74.5338C221.889 74.4152 221.868 74.2911 221.804 74.1877C221.74 74.0842 221.639 74.0095 221.521 73.9792L64.5934 33.4032C64.5402 33.3828 64.4835 33.3733 64.4266 33.3752C64.3697 33.3771 64.3138 33.3904 64.2621 33.4143C64.2104 33.4381 64.164 33.4721 64.1257 33.5141C64.0873 33.5562 64.0577 33.6055 64.0387 33.6592L1.78808 209.062Z" fill="#E3E3E3"/>
<path opacity="0.44" d="M1.83082 209.067C1.83082 209.323 1.44682 211.713 1.83082 211.798L171.73 265.985C171.788 266.005 171.851 266.013 171.912 266.009C171.974 266.005 172.035 265.988 172.091 265.96C172.146 265.932 172.196 265.894 172.236 265.847C172.277 265.8 172.308 265.745 172.327 265.686L221.863 74.5821C221.89 74.4579 221.871 74.328 221.807 74.2176C221.744 74.1072 221.642 74.0242 221.521 73.9848L63.9962 32.5555C63.8828 32.5128 63.7573 32.5156 63.646 32.5633C63.5347 32.611 63.4461 32.6999 63.3988 32.8115L1.83082 209.067Z" fill="#DFDFDF"/>
<path opacity="0.5" d="M1.83196 209.061C1.83196 209.275 1.53329 211.451 1.83196 211.536L171.048 265.126C171.107 265.146 171.169 265.154 171.231 265.149C171.293 265.145 171.353 265.129 171.409 265.101C171.465 265.073 171.514 265.035 171.555 264.988C171.595 264.941 171.626 264.886 171.645 264.827L221.864 74.5761C221.883 74.5172 221.89 74.4548 221.882 74.3933C221.875 74.3317 221.854 74.2725 221.822 74.2197C221.789 74.1669 221.746 74.1218 221.694 74.0876C221.642 74.0534 221.584 74.0308 221.523 74.0215L63.272 31.6961C63.2188 31.6758 63.1621 31.6663 63.1052 31.6682C63.0483 31.6701 62.9924 31.6834 62.9407 31.7072C62.889 31.7311 62.8426 31.7651 62.8042 31.8071C62.7659 31.8492 62.7363 31.8985 62.7173 31.9521L1.83196 209.061Z" fill="#DADADA"/>
<path opacity="0.56" d="M1.87159 209.067C1.87159 209.323 1.61559 211.2 1.87159 211.286L170.405 264.491C170.464 264.511 170.526 264.519 170.588 264.515C170.65 264.511 170.71 264.494 170.766 264.467C170.822 264.439 170.871 264.4 170.912 264.353C170.952 264.306 170.983 264.251 171.002 264.192L221.861 74.6244C221.88 74.5655 221.886 74.5031 221.879 74.4416C221.872 74.38 221.851 74.3208 221.819 74.268C221.786 74.2152 221.743 74.1701 221.691 74.1359C221.639 74.1016 221.581 74.0791 221.52 74.0698L62.6289 30.8484C62.5156 30.8058 62.3901 30.8086 62.2788 30.8563C62.1675 30.904 62.0789 30.9929 62.0316 31.1044L1.87159 209.067Z" fill="#D5D5D5"/>
<path opacity="0.63" d="M1.875 208.808C1.875 209.021 1.875 210.685 1.875 210.771L169.726 263.421C169.784 263.441 169.847 263.45 169.909 263.445C169.971 263.441 170.031 263.425 170.087 263.397C170.142 263.369 170.192 263.331 170.232 263.283C170.273 263.236 170.304 263.182 170.323 263.123L221.864 74.6214C221.881 74.5037 221.856 74.384 221.793 74.2828C221.731 74.1816 221.635 74.1052 221.523 74.0667L61.9497 29.864C61.8363 29.8214 61.7108 29.8242 61.5995 29.8719C61.4882 29.9196 61.3996 30.0085 61.3523 30.12L1.875 208.808Z" fill="#D1D1D1"/>
<path opacity="0.69" d="M1.91797 208.723C1.91797 208.979 1.91797 210.387 1.91797 210.473L169.086 262.569C169.141 262.597 169.202 262.611 169.264 262.61C169.326 262.609 169.387 262.593 169.441 262.564C169.496 262.535 169.542 262.493 169.577 262.442C169.612 262.39 169.634 262.332 169.641 262.27L221.865 74.6648C221.884 74.6059 221.89 74.5435 221.883 74.4819C221.876 74.4203 221.855 74.3611 221.823 74.3083C221.79 74.2555 221.746 74.2104 221.695 74.1762C221.643 74.142 221.585 74.1194 221.523 74.1101L61.31 29.1394C61.1966 29.0968 61.0711 29.0996 60.9598 29.1473C60.8485 29.195 60.7599 29.2839 60.7126 29.3954L1.91797 208.723Z" fill="#CCCCCC"/>
<path opacity="0.75" d="M1.95703 208.642C1.95703 208.898 1.95703 210.093 1.95703 210.178L168.357 261.719C168.416 261.739 168.478 261.747 168.54 261.743C168.602 261.739 168.663 261.722 168.718 261.695C168.774 261.667 168.823 261.628 168.864 261.581C168.904 261.534 168.935 261.48 168.954 261.421L221.861 74.6685C221.877 74.5508 221.852 74.4311 221.79 74.3299C221.728 74.2287 221.632 74.1523 221.52 74.1138L60.6237 28.2898C60.5103 28.2472 60.3849 28.25 60.2736 28.2977C60.1622 28.3454 60.0737 28.4343 60.0264 28.5458L1.95703 208.642Z" fill="#C8C8C8"/>
<path opacity="0.81" d="M1.95703 208.593C1.95703 208.593 1.95703 209.788 1.95703 209.873L167.589 261.073C167.645 261.093 167.704 261.1 167.763 261.096C167.823 261.091 167.88 261.074 167.932 261.046C167.984 261.018 168.03 260.979 168.067 260.933C168.103 260.886 168.129 260.832 168.144 260.774L221.861 74.7051C221.89 74.6468 221.904 74.582 221.901 74.517C221.898 74.4519 221.878 74.3887 221.844 74.3332C221.81 74.2777 221.762 74.2318 221.706 74.1999C221.649 74.1679 221.585 74.1509 221.52 74.1505L59.9837 27.4304C59.8703 27.3878 59.7449 27.3906 59.6336 27.4383C59.5222 27.486 59.4337 27.5749 59.3864 27.6864L1.95703 208.593Z" fill="#C3C3C3"/>
<path opacity="0.88" d="M2 208.512C2 208.768 2 209.493 2.21333 209.578L167.077 260.01C167.136 260.03 167.198 260.038 167.26 260.034C167.322 260.03 167.383 260.013 167.438 259.986C167.494 259.958 167.543 259.919 167.584 259.872C167.625 259.825 167.655 259.771 167.675 259.712L221.861 74.7515C221.881 74.6899 221.887 74.6249 221.88 74.5607C221.873 74.4965 221.853 74.4345 221.821 74.3784C221.789 74.3223 221.746 74.2735 221.694 74.2349C221.642 74.1963 221.583 74.1688 221.52 74.1542L59.3013 26.5808C59.188 26.5382 59.0625 26.541 58.9512 26.5887C58.8399 26.6364 58.7513 26.7253 58.704 26.8368L2 208.512Z" fill="#BEBEBE"/>
<path opacity="0.94" d="M2 208.466C2 208.466 2 209.191 2.29867 209.276L166.395 259.154C166.451 259.173 166.51 259.181 166.569 259.176C166.628 259.172 166.686 259.155 166.738 259.127C166.79 259.099 166.836 259.06 166.872 259.013C166.909 258.966 166.935 258.913 166.949 258.855L221.861 74.7485C221.878 74.6308 221.853 74.5111 221.79 74.4099C221.728 74.3087 221.632 74.2323 221.52 74.1938L58.6613 25.5965C58.548 25.5538 58.4225 25.5566 58.3112 25.6044C58.1999 25.6521 58.1113 25.741 58.064 25.8525L2 208.466Z" fill="#BABABA"/>
<path d="M2.04236 208.381C1.99482 208.445 1.96587 208.52 1.95876 208.599C1.95164 208.678 1.96664 208.757 2.00208 208.828C2.03751 208.899 2.09198 208.958 2.15939 209C2.22679 209.042 2.30446 209.064 2.3837 209.064L165.754 258.301C165.813 258.321 165.875 258.329 165.937 258.325C165.999 258.321 166.06 258.304 166.115 258.277C166.171 258.249 166.221 258.21 166.261 258.163C166.302 258.116 166.332 258.062 166.352 258.003L221.861 74.7919C221.88 74.7302 221.887 74.6653 221.88 74.6011C221.873 74.5369 221.853 74.4748 221.821 74.4188C221.789 74.3627 221.745 74.3138 221.694 74.2753C221.642 74.2367 221.583 74.2092 221.52 74.1945L57.9784 24.8719C57.865 24.8292 57.7396 24.832 57.6282 24.8797C57.5169 24.9275 57.4283 25.0164 57.381 25.1279L2.04236 208.381Z" fill="#B5B5B5"/>
</g>
<path d="M56.4192 22.0057L-0.015625 208.691L165.882 258.842L222.317 72.1563L56.4192 22.0057Z" fill="#E6FFAF"/>
<path opacity="0.3" d="M178.344 64.0417L228.178 122.922L232.914 121.599L234.408 118.484L239.741 115.839L243.197 108.116L249.469 107.604L252.498 102.314L256.296 101.844L259.709 98.943L208.509 38.4844L204.029 40.575L203.688 44.6284L198.269 47.103L193.405 54.1857L187.816 55.9777L185.682 62.8044L178.344 64.0417Z" fill="#CC7041"/>
<path opacity="0.3" d="M87.166 0L17.918 34.048L18.046 38.9547L20.734 41.1733L21.9713 46.976L28.6273 52.224L27.6033 58.4107L31.998 62.6347L31.5286 66.432L33.534 70.4427L104.617 35.4987L103.678 30.6347L99.7953 29.312L98.7286 23.4667L93.054 17.024L92.67 11.136L86.5686 7.424L87.166 0Z" fill="#CC7041"/>
<path d="M84.3092 79.1068C84.3092 79.5762 84.0532 79.8322 83.7546 79.7468L83.2852 79.5335C82.7339 79.2602 82.1439 79.0732 81.5359 78.9788C78.5549 78.5418 75.5316 78.4701 72.5332 78.7655L71.3812 78.9788C71.0132 79.0302 70.6399 79.0302 70.2719 78.9788C69.4755 78.9788 69.1341 78.5521 69.2479 77.6988C69.3844 77.3284 69.6394 77.0134 69.9732 76.8028L73.2586 74.6695C75.387 73.295 77.3362 71.6612 79.0612 69.8055C80.9115 68.1298 82.2315 65.9497 82.8586 63.5335C82.9371 63.0954 82.9246 62.6457 82.8218 62.2127C82.7191 61.7796 82.5282 61.3723 82.2612 61.0161C81.7042 60.3024 80.895 59.8291 79.9999 59.6935C78.8273 59.5618 77.6438 59.8165 76.6292 60.4188C75.5532 60.8793 74.6656 61.6917 74.1119 62.7228C74.1119 63.3201 73.7279 63.9175 73.5146 64.5148C73.3012 65.1121 72.8746 65.8375 72.4906 65.7948C72.2478 65.6646 72.0309 65.491 71.8506 65.2828C71.6638 65.1108 71.5305 64.8886 71.4666 64.6428C71.8096 63.256 72.587 62.0151 73.6852 61.1015C74.6919 60.1152 75.8999 59.3583 77.2266 58.8828C78.275 58.6042 79.3781 58.6042 80.4266 58.8828C81.7147 59.1064 82.8636 59.8265 83.6266 60.8881C84.0152 61.408 84.2949 62.0009 84.4488 62.6314C84.6028 63.2619 84.6279 63.917 84.5226 64.5575C83.9106 67.0661 82.4854 69.3015 80.4692 70.9148C78.4931 72.6072 76.3811 74.1341 74.1546 75.4802L72.9172 76.2908C72.5469 76.5914 72.2296 76.952 71.9786 77.3575C71.9993 77.4631 72.0592 77.5569 72.1463 77.6202C72.2333 77.6835 72.341 77.7116 72.4479 77.6988H83.4559C83.6248 77.723 83.7845 77.7909 83.9191 77.8956C84.0538 78.0004 84.1589 78.1384 84.2239 78.2962C84.3174 78.5555 84.3467 78.8337 84.3092 79.1068Z" fill="#878787"/>
<path d="M101.035 77.3154C101.035 77.9981 100.608 78.254 100.096 78.1687C99.8809 78.1549 99.674 78.081 99.4987 77.9554C99.2711 79.1679 99.2711 80.4122 99.4987 81.6247C99.4724 81.7487 99.4157 81.8643 99.3338 81.9611C99.2519 82.0578 99.1473 82.1329 99.0294 82.1794C98.7514 82.2649 98.4541 82.2649 98.1761 82.1794C97.8956 82.1314 97.6316 82.0141 97.4081 81.838C97.2762 81.3201 97.2762 80.7773 97.4081 80.2594C97.3901 79.9183 97.3901 79.5765 97.4081 79.2354C97.4081 78.7234 97.4081 78.382 97.4081 78.2114C97.468 77.9589 97.468 77.6959 97.4081 77.4434H96.5974H96.4267C95.0138 77.2388 93.5877 77.139 92.1601 77.1447C90.8618 76.9677 89.5412 77.0548 88.2774 77.4007C87.8158 78.0367 87.4958 78.7641 87.3387 79.534C87.0665 80.3026 86.8386 81.0861 86.6561 81.8807C86.5053 81.9401 86.3375 81.9401 86.1867 81.8807C85.8693 81.8446 85.571 81.7104 85.3334 81.4967C85.0347 81.1554 84.9067 80.8994 84.9494 80.6434C85.0241 80.351 85.1545 80.0757 85.3334 79.8327C85.4977 79.5965 85.6271 79.3379 85.7174 79.0647C86.5833 76.5701 87.6684 74.1571 88.9601 71.854C92.9281 64.558 95.6587 61.0167 97.1521 61.2727C98.6454 61.5287 99.6267 63.7474 99.8401 67.9287C99.8401 69.3794 99.8401 72.1954 99.6267 76.462C99.8683 76.6862 100.161 76.8474 100.48 76.9314C100.907 76.8034 101.077 77.0594 101.035 77.3154ZM98.1334 75.95C98.1334 72.238 98.1334 69.9767 98.1334 69.2087C98.1334 65.6247 97.5787 63.79 96.8107 63.7047C96.0427 63.6194 94.6347 65.0274 92.8427 67.9714L89.7707 73.5607C89.5359 73.9251 89.336 74.3108 89.1734 74.7127C89.1734 75.182 89.1734 75.4807 89.4721 75.5234H91.4347C92.4587 75.4381 94.6774 75.6087 98.1334 75.95Z" fill="#878787"/>
<path d="M113.786 73.5109C113.798 73.6386 113.798 73.7671 113.786 73.8949C113.786 73.8949 113.786 74.1935 113.786 74.2362H113.36C113.216 74.1981 113.084 74.1247 112.976 74.0229L112.634 73.7669C111.184 73.2575 109.682 72.914 108.154 72.7429C107.374 72.6731 106.588 72.6731 105.808 72.7429H104.656L103.674 72.9562C103.674 72.9562 103.418 72.7429 103.29 72.4015C103.209 72.1813 103.209 71.9391 103.29 71.7189V70.9082L107.813 71.3349C109.648 71.3349 111.141 71.7189 112.336 71.8895C112.786 71.9756 113.209 72.1656 113.573 72.4442C113.715 72.5778 113.812 72.7523 113.85 72.9435C113.888 73.1346 113.866 73.3329 113.786 73.5109ZM113.104 77.7775L103.93 76.7962C102.736 76.5829 102.181 76.1562 102.266 75.5589C102.255 75.4311 102.255 75.3026 102.266 75.1749C102.258 75.0612 102.258 74.9472 102.266 74.8335H102.65C102.934 74.8088 103.22 74.8088 103.504 74.8335L104.314 75.0469L106.32 75.2602H108.325L109.349 75.4735L110.288 75.7295C110.669 75.7875 111.058 75.7875 111.44 75.7295C111.823 75.6905 112.209 75.6905 112.592 75.7295C112.592 75.7295 112.805 75.7295 112.89 76.1562C112.925 76.3682 112.925 76.5842 112.89 76.7962L113.104 77.7775Z" fill="#878787"/>
<path d="M124.367 77.5651C124.396 77.7345 124.396 77.9077 124.367 78.0771C123.732 79.6495 123.246 81.278 122.916 82.9411L122.532 85.9278C122.532 87.2504 122.276 88.2318 122.148 88.9144C122.036 89.8542 121.791 90.7735 121.423 91.6451C121.023 92.2986 120.425 92.807 119.716 93.0958C118.999 93.4375 118.197 93.5564 117.412 93.4371C116.394 93.2385 115.415 92.8784 114.511 92.3704C113.145 91.6878 112.505 91.0478 112.633 90.4078C112.761 89.7678 112.975 89.5971 113.401 89.6824C113.828 89.7678 113.743 89.6824 113.828 90.1091C113.913 90.3498 114.028 90.5791 114.169 90.7918C114.514 91.0926 114.922 91.3114 115.364 91.4318C115.783 91.6436 116.228 91.8013 116.687 91.9011C117.203 92.0116 117.74 91.983 118.243 91.8181C118.745 91.6531 119.194 91.3579 119.545 90.9624C120.247 90.1627 120.68 89.1628 120.783 88.1038C120.942 87.043 120.942 85.9645 120.783 84.9038C120.307 85.4336 119.707 85.8361 119.036 86.0746C118.365 86.313 117.646 86.3799 116.943 86.2691C116.438 86.1433 115.961 85.9264 115.535 85.6291C115.115 85.327 114.753 84.9511 114.468 84.5198C113.978 83.497 113.857 82.3361 114.127 81.2344C114.469 79.3149 115.102 77.4589 116.004 75.7304C117.241 73.2558 118.521 72.1464 119.887 72.3598C121.252 72.5731 121.935 73.6824 122.788 75.8158L123.257 76.7971C123.652 77.0151 124.024 77.2724 124.367 77.5651ZM122.233 78.9731C122.28 78.7713 122.278 78.5609 122.226 78.3603C122.174 78.1596 122.074 77.9746 121.935 77.8211C122.032 77.0296 121.944 76.2264 121.679 75.4744C121.537 75.1021 121.302 74.7727 120.995 74.5184C120.689 74.2642 120.321 74.0937 119.929 74.0238C119.375 74.0238 118.735 74.4931 117.967 75.6451C117.456 76.4391 117.028 77.2824 116.687 78.1624C116.338 79.1788 116.067 80.2199 115.876 81.2771C115.449 83.7944 115.876 85.2024 117.455 85.5438C119.033 85.8851 119.631 84.9464 120.697 83.2398C121.469 81.9247 121.989 80.4781 122.233 78.9731Z" fill="#878787"/>
<path d="M132.855 89.3025C132.855 89.3025 132.343 89.3025 131.916 89.3025C131.772 89.27 131.638 89.2023 131.526 89.1055C131.415 89.0088 131.329 88.8859 131.276 88.7478C131.532 86.9558 131.788 85.5478 131.959 84.4812C132.812 79.2332 132.343 76.4598 130.593 76.2038C130.195 76.163 129.792 76.233 129.431 76.4061C129.07 76.5793 128.763 76.8489 128.545 77.1852C128.019 77.8082 127.666 78.5586 127.521 79.3612C127.546 79.4879 127.546 79.6184 127.521 79.7452C127.496 79.8719 127.496 80.0024 127.521 80.1292L126.881 84.0972C126.828 84.6078 126.828 85.1226 126.881 85.6332C126.912 86.1305 126.912 86.6292 126.881 87.1265C126.881 87.4678 126.54 87.5958 126.028 87.5105C125.86 87.4684 125.704 87.3889 125.571 87.2781C125.438 87.1673 125.332 87.028 125.26 86.8705C125.071 86.5489 124.996 86.1732 125.047 85.8038L127.991 66.9452C127.948 66.8206 127.948 66.6857 127.991 66.5612C127.991 66.1772 128.289 66.0492 128.673 66.0918C129.004 66.2141 129.298 66.4198 129.527 66.6892C129.868 67.0305 130.039 67.2865 130.039 67.4572C129.892 68.1779 129.663 68.8794 129.356 69.5478C129.073 70.2182 128.873 70.9201 128.759 71.6385C128.759 71.6385 128.545 73.0465 128.119 75.9052C128.674 75.446 129.362 75.1768 130.081 75.1372C130.89 75.3187 131.657 75.6517 132.343 76.1185C134.007 77.1425 134.604 79.2758 134.092 82.4332L132.855 89.3025Z" fill="#878787"/>
<path d="M62.9307 114.18C62.9307 114.479 62.6747 114.564 62.2054 114.479C61.736 114.394 61.4374 114.18 61.4374 113.754C61.4025 113.356 61.4025 112.957 61.4374 112.559C61.4807 112.391 61.4807 112.215 61.4374 112.047C60.2463 112.674 58.8841 112.899 57.5547 112.687C56.6082 112.53 55.7228 112.117 54.9947 111.492C54.6174 111.236 54.3156 110.883 54.1206 110.47C53.9255 110.058 53.8443 109.6 53.8854 109.146C53.8854 108.292 54.7387 107.567 56.0187 106.97C56.9731 106.459 58.0551 106.237 59.1334 106.33L62.1627 106.842C62.312 106.655 62.4144 106.436 62.4614 106.202C62.6222 105.17 62.6222 104.119 62.4614 103.087C62.4548 102.57 62.2608 102.074 61.9155 101.689C61.5702 101.305 61.0971 101.058 60.584 100.996C60.131 100.968 59.6783 101.055 59.2679 101.249C58.8576 101.443 58.5031 101.738 58.2374 102.106C57.5576 102.762 57.0959 103.611 56.9147 104.538V104.879C56.8748 104.918 56.8212 104.94 56.7654 104.94C56.7095 104.94 56.6559 104.918 56.616 104.879C56.4027 104.879 56.232 104.879 56.0187 104.41C55.9283 104.322 55.8584 104.215 55.8141 104.097C55.7699 103.979 55.7523 103.853 55.7627 103.727C55.9235 102.986 56.2123 102.278 56.616 101.636C56.9777 100.962 57.471 100.367 58.0667 99.8871C58.3461 99.6639 58.6679 99.4997 59.0126 99.4043C59.3572 99.309 59.7177 99.2845 60.072 99.3324C61.2341 99.5208 62.3001 100.091 63.1014 100.954C63.5339 101.348 63.8646 101.841 64.0652 102.391C64.2658 102.941 64.3304 103.531 64.2534 104.111L62.9307 114.18ZM62.12 109.06C62.12 108.25 61.6934 107.738 60.4134 107.524C59.5279 107.33 58.6108 107.33 57.7254 107.524C57.2819 107.61 56.8741 107.826 56.5548 108.146C56.2354 108.465 56.0189 108.873 55.9334 109.316C55.8964 109.579 55.9281 109.847 56.0253 110.093C56.1225 110.34 56.2819 110.558 56.488 110.724C56.9121 111.08 57.4315 111.302 57.9814 111.364C58.8722 111.501 59.7833 111.351 60.584 110.938C60.9733 110.773 61.3165 110.516 61.5841 110.189C61.8517 109.862 62.0357 109.475 62.12 109.06Z" fill="#878787"/>
<path d="M78.7596 94.6346L77.4369 96.3839L69.5436 109.184C67.3676 112.64 65.8743 114.261 64.9783 114.133C64.0823 114.005 64.4236 113.877 64.4663 113.536C64.5243 113.322 64.6428 113.129 64.8076 112.981L65.4049 112.427C67.1323 110.357 68.7012 108.161 70.0983 105.856L74.3649 98.9013C74.8521 98.0873 75.2937 97.2469 75.6876 96.3839C75.8255 95.87 76.0112 95.37 76.2423 94.8906C76.4547 94.6128 76.7334 94.3928 77.0529 94.2506C77.4041 94.1717 77.7684 94.1717 78.1196 94.2506C78.3709 94.3008 78.597 94.4365 78.7596 94.6346Z" fill="#878787"/>
<path d="M86.8265 110.163C86.5991 111.66 86.108 113.104 85.3759 114.43C85.0528 115.114 84.5164 115.676 83.847 116.03C83.1777 116.384 82.4117 116.511 81.6639 116.392C81.139 116.269 80.6356 116.068 80.1705 115.795L78.7199 115.198V115.582C78.7199 115.582 78.7199 115.838 78.7199 116.051C78.7486 116.192 78.7486 116.337 78.7199 116.478C78.7199 116.819 78.4639 116.947 78.1225 116.862C77.9593 116.838 77.8043 116.775 77.6705 116.679C77.5368 116.582 77.4284 116.455 77.3545 116.307C77.2152 115.689 77.2152 115.048 77.3545 114.43C77.3545 113.619 77.3545 112.936 77.5679 112.467L80.8959 95.4004H81.0665C81.2215 95.4458 81.3657 95.5221 81.4904 95.6247C81.6151 95.7274 81.7176 95.8543 81.7919 95.9977C81.9896 96.2686 82.0807 96.6027 82.0479 96.9364C81.8231 98.0602 81.5383 99.1711 81.1945 100.264C80.8609 101.357 80.5902 102.468 80.3839 103.592C80.3839 103.592 80.3839 104.062 80.1705 104.744C80.4581 104.608 80.7073 104.403 80.8959 104.147C81.1762 103.789 81.5067 103.473 81.8772 103.208C82.1055 103.052 82.3636 102.945 82.6353 102.894C82.907 102.843 83.1864 102.848 83.4559 102.91C83.9651 102.99 84.4519 103.176 84.8853 103.455C85.3187 103.734 85.6892 104.101 85.9732 104.531C86.6008 105.375 86.9711 106.383 87.0399 107.432C87.0273 108.346 86.9561 109.258 86.8265 110.163ZM85.1625 110.163C85.3974 109.012 85.455 107.832 85.3332 106.664C85.3332 105.171 84.6505 104.36 83.7545 104.232C82.8585 104.104 81.6212 104.744 80.6825 106.28C79.9709 107.458 79.4928 108.762 79.2745 110.12C79.0556 111.147 79.0556 112.208 79.2745 113.235C79.3635 113.746 79.6079 114.217 79.9745 114.583C80.3411 114.95 80.8118 115.194 81.3225 115.283C82.3465 115.283 83.2425 114.856 84.0105 113.448C84.6277 112.402 85.0741 111.264 85.3332 110.078L85.1625 110.163Z" fill="#878787"/>
<path d="M99.7066 107.478C99.718 107.605 99.718 107.734 99.7066 107.862C99.7066 107.862 99.7066 108.16 99.7066 108.203H99.28C99.28 108.203 99.28 108.203 98.896 107.99L98.5546 107.734C97.0324 107.213 95.4591 106.855 93.8613 106.667C93.0841 106.549 92.3004 106.478 91.5146 106.454L90.448 106.667C90.1441 106.773 89.8292 106.845 89.5093 106.88C89.5093 106.88 89.2533 106.667 89.1253 106.368C89.0406 106.134 89.0406 105.877 89.1253 105.643V104.875L93.392 105.302C95.2266 105.302 96.72 105.643 97.9146 105.856C98.3544 105.906 98.7698 106.084 99.1093 106.368C99.3232 106.454 99.5003 106.612 99.6095 106.814C99.7187 107.017 99.7531 107.252 99.7066 107.478ZM99.024 111.744L89.9786 110.934C88.784 110.934 88.2293 110.336 88.3146 109.696C88.2857 109.584 88.2857 109.467 88.3146 109.355C88.2938 109.242 88.2938 109.126 88.3146 109.014H88.6986L89.552 109.227L90.3626 109.44H92.3253C92.9978 109.467 93.6677 109.538 94.3306 109.654H95.312L96.2506 109.867C96.6322 109.928 97.021 109.928 97.4026 109.867C97.7716 109.832 98.143 109.832 98.512 109.867C98.5954 109.905 98.6671 109.964 98.7196 110.04C98.7721 110.115 98.8036 110.202 98.8106 110.294C98.8648 110.504 98.8648 110.724 98.8106 110.934L99.024 111.744Z" fill="#878787"/>
<path d="M107.177 110.554C106.782 110.626 106.377 110.626 105.982 110.554C105.586 110.505 105.184 110.505 104.788 110.554C104.788 110.554 104.532 111.919 104.19 113.925C103.849 115.93 103.806 116.613 103.764 117.167C103.736 117.522 103.736 117.879 103.764 118.234C103.785 118.632 103.785 119.031 103.764 119.429C103.682 119.621 103.529 119.773 103.337 119.855C103.159 119.929 102.96 119.929 102.782 119.855C102.356 119.855 102.1 119.386 102.014 118.447C101.929 117.867 101.929 117.278 102.014 116.698L103.038 110.341C103.038 110.341 102.484 110.127 101.673 110.127C100.862 110.127 100.777 109.786 100.862 109.274C100.948 108.762 101.844 108.25 103.508 108.591L104.788 103.13C104.805 103.031 104.805 102.93 104.788 102.831C104.788 102.831 104.788 102.575 104.788 102.533C104.788 102.49 104.788 102.277 105.086 102.191C105.28 102.126 105.49 102.126 105.684 102.191C105.827 102.206 105.966 102.251 106.091 102.323C106.216 102.395 106.324 102.493 106.409 102.609C106.493 102.726 106.552 102.86 106.582 103.001C106.611 103.142 106.61 103.288 106.58 103.429C106.424 104.193 106.224 104.948 105.982 105.69C105.684 106.714 105.47 107.439 105.385 107.909C105.3 108.378 105.385 108.421 105.385 108.634H107.092C107.646 108.634 107.902 109.018 107.817 109.445C107.849 109.56 107.858 109.68 107.843 109.798C107.828 109.916 107.79 110.031 107.73 110.134C107.671 110.237 107.591 110.328 107.496 110.4C107.401 110.472 107.293 110.524 107.177 110.554Z" fill="#878787"/>
<path d="M117.246 112.636C117.236 112.807 117.236 112.978 117.246 113.148C116.607 114.704 116.121 116.319 115.796 117.97C115.796 118.567 115.582 119.548 115.412 120.871C115.241 122.194 115.156 123.175 115.028 123.815C114.95 124.747 114.704 125.658 114.302 126.503C113.919 127.153 113.335 127.662 112.638 127.954C111.936 128.292 111.148 128.411 110.377 128.295C109.373 128.119 108.406 127.772 107.518 127.271C106.153 126.588 105.513 125.948 105.641 125.308C105.769 124.668 105.982 124.498 106.409 124.583C106.836 124.668 106.708 124.583 106.836 125.01C106.9 125.238 107.001 125.454 107.134 125.65C107.45 125.977 107.848 126.213 108.286 126.332C108.722 126.539 109.18 126.697 109.652 126.802C110.162 126.9 110.689 126.865 111.183 126.701C111.676 126.536 112.118 126.248 112.468 125.863C113.13 125.055 113.558 124.081 113.705 123.047C113.842 121.985 113.842 120.909 113.705 119.847C113.23 120.377 112.629 120.779 111.959 121.018C111.288 121.256 110.568 121.323 109.865 121.212C109.363 121.119 108.893 120.899 108.5 120.572C108.06 120.293 107.694 119.913 107.433 119.463C106.942 118.471 106.821 117.336 107.092 116.263C107.45 114.396 108.098 112.597 109.012 110.93C110.206 108.455 111.486 107.346 112.809 107.559C114.132 107.772 114.857 108.882 115.71 110.972L116.18 111.954C116.55 112.157 116.906 112.385 117.246 112.636ZM115.113 114.002C115.16 113.8 115.158 113.59 115.106 113.389C115.054 113.188 114.954 113.003 114.814 112.85C114.908 112.072 114.82 111.284 114.558 110.546C114.426 110.18 114.198 109.856 113.897 109.609C113.597 109.361 113.236 109.198 112.852 109.138C112.297 109.138 111.657 109.564 110.889 110.716C110.374 111.501 109.959 112.347 109.652 113.234C109.279 114.213 109.008 115.228 108.841 116.263C108.414 118.78 108.841 120.146 110.377 120.53C111.913 120.914 112.553 119.932 113.577 118.226C114.378 116.932 114.928 115.499 115.198 114.002H115.113Z" fill="#878787"/>
<path d="M134.952 124.378C134.952 124.591 134.952 124.719 134.44 124.805C134.158 124.866 133.867 124.866 133.586 124.805C132.776 124.805 131.965 123.823 131.197 122.245L129.576 118.789C127.549 120.631 125.783 122.741 124.328 125.061C123.517 124.762 123.176 124.25 123.304 123.61C124.065 122.35 125.031 121.225 126.162 120.282C127.177 119.361 128.118 118.362 128.978 117.295C128.767 116.287 128.422 115.312 127.954 114.394C127.558 113.338 127.087 112.311 126.546 111.322C126.708 111.102 126.94 110.944 127.204 110.874C127.468 110.804 127.748 110.827 127.997 110.938C128.18 110.968 128.353 111.042 128.502 111.153C128.651 111.265 128.77 111.41 128.85 111.578C129.02 112.082 129.162 112.595 129.277 113.114C129.533 114.173 129.861 115.214 130.258 116.229L133.074 113.711C134.568 112.389 135.464 111.706 135.762 111.791C135.87 111.796 135.975 111.831 136.066 111.891C136.156 111.951 136.228 112.035 136.274 112.133C136.349 112.354 136.349 112.594 136.274 112.815C135.431 113.676 134.501 114.448 133.501 115.119C131.666 116.527 130.728 117.381 130.685 117.722C130.936 118.953 131.445 120.116 132.178 121.135C133.245 123.055 133.97 123.994 134.354 124.079H134.909L134.952 124.378Z" fill="#878787"/>
<path d="M59.4737 146.088C59.4737 146.387 59.2177 146.472 58.7484 146.387C58.279 146.302 57.9803 146.088 57.9803 145.662C57.9454 145.264 57.9454 144.864 57.9803 144.467C58.0237 144.299 58.0237 144.123 57.9803 143.955C56.7893 144.582 55.4271 144.807 54.0977 144.595C53.1485 144.447 52.2608 144.033 51.5377 143.4C51.1604 143.144 50.8586 142.791 50.6635 142.378C50.4685 141.965 50.3873 141.508 50.4283 141.054C50.4283 140.2 51.2817 139.475 52.5617 138.878C53.516 138.367 54.5981 138.145 55.6763 138.238L58.7057 138.75C58.8633 138.569 58.9668 138.347 59.0043 138.11C59.1652 137.078 59.1652 136.027 59.0043 134.995C58.9977 134.478 58.8038 133.981 58.4585 133.597C58.1132 133.212 57.6401 132.966 57.127 132.904C56.674 132.876 56.2212 132.963 55.8109 133.157C55.4006 133.351 55.046 133.646 54.7803 134.014C54.1006 134.67 53.6389 135.519 53.4577 136.446V136.787C53.4577 136.787 53.4577 136.787 53.159 136.787C52.8603 136.787 52.775 136.787 52.5617 136.275C52.4712 136.187 52.4014 136.08 52.3571 135.962C52.3128 135.844 52.2953 135.718 52.3057 135.592C52.4665 134.851 52.7553 134.144 53.159 133.502C53.544 132.843 54.034 132.252 54.6097 131.752C54.8891 131.529 55.2109 131.365 55.5555 131.27C55.9002 131.174 56.2606 131.15 56.615 131.198C57.7771 131.386 58.8431 131.957 59.6443 132.819C60.0685 133.22 60.3934 133.714 60.5933 134.262C60.7933 134.81 60.8628 135.397 60.7963 135.976L59.4737 146.088ZM58.663 140.798C58.663 139.987 58.2363 139.475 56.9563 139.262C56.0709 139.067 55.1538 139.067 54.2683 139.262C53.8248 139.347 53.4171 139.564 53.0977 139.883C52.7783 140.202 52.5619 140.61 52.4763 141.054C52.4394 141.316 52.4711 141.584 52.5683 141.831C52.6655 142.077 52.8249 142.295 53.031 142.462C53.4551 142.817 53.9745 143.04 54.5243 143.102C55.4152 143.238 56.3263 143.089 57.127 142.675C57.5162 142.51 57.8595 142.253 58.1271 141.926C58.3947 141.599 58.5786 141.212 58.663 140.798Z" fill="#878787"/>
<path d="M75.3026 126.551L73.9799 128.3L66.0866 141.1C63.9106 144.556 62.4172 146.177 61.5212 146.049C60.6252 145.921 60.9666 145.793 61.0092 145.452C61.0673 145.238 61.1858 145.045 61.3506 144.897L61.9479 144.343C63.6853 142.281 65.2548 140.084 66.6412 137.772L70.9079 130.817C71.3951 130.003 71.8367 129.163 72.2306 128.3C72.3685 127.786 72.5542 127.286 72.7852 126.807C72.9868 126.518 73.2687 126.296 73.5959 126.167C73.9471 126.088 74.3114 126.088 74.6626 126.167C74.9138 126.217 75.14 126.353 75.3026 126.551Z" fill="#878787"/>
<path d="M83.4516 145.793C83.4516 146.305 82.8542 146.902 81.8729 147.585C81.2185 148.13 80.4431 148.51 79.6116 148.694C79.0045 148.8 78.3839 148.8 77.7769 148.694C77.1128 148.636 76.4744 148.41 75.922 148.037C75.3696 147.663 74.9214 147.156 74.6196 146.561C74.0044 145.35 73.8236 143.964 74.1076 142.636C74.4498 140.838 75.0839 139.109 75.9849 137.516C77.1796 135.254 78.4169 134.23 79.6542 134.401C80.4868 134.641 81.2483 135.081 81.8729 135.681C82.7547 136.392 83.224 137.032 83.2809 137.601C83.3244 138.226 83.3244 138.853 83.2809 139.478C82.8969 141.74 82.3849 142.806 81.7022 142.678C81.494 142.657 81.2987 142.567 81.1476 142.422C80.9342 142.422 80.8489 142.081 80.8916 141.953C80.8642 141.855 80.8642 141.752 80.8916 141.654L81.1049 141.398C81.3081 140.82 81.4372 140.218 81.4889 139.606C81.8729 137.345 81.4889 136.108 80.5076 135.937C79.5262 135.766 78.3316 136.662 77.2649 138.582C76.5504 139.919 76.0467 141.358 75.7716 142.849C75.5551 143.775 75.5551 144.739 75.7716 145.665C75.8896 146.122 76.138 146.535 76.4865 146.853C76.835 147.171 77.2685 147.381 77.7342 147.457C78.5196 147.51 79.3003 147.3 79.9529 146.86C80.6701 146.489 81.3079 145.982 81.8302 145.366C81.9774 145.082 82.1486 144.811 82.3422 144.556C82.4054 144.514 82.4796 144.491 82.5556 144.491C82.6315 144.491 82.7057 144.514 82.7689 144.556C82.7689 144.556 83.0249 144.556 83.1529 145.025C83.3014 145.259 83.4029 145.52 83.4516 145.793Z" fill="#878787"/>
<path d="M96.9373 139.519C96.9662 139.631 96.9662 139.748 96.9373 139.86C96.926 139.988 96.926 140.116 96.9373 140.244H96.5107C96.5107 140.244 96.2974 140.244 96.1267 139.988H95.7854C94.4102 139.474 92.9773 139.13 91.5187 138.964C90.7442 138.825 89.959 138.753 89.172 138.751L88.02 138.964H87.0813C86.9767 138.905 86.8849 138.825 86.8116 138.73C86.7383 138.635 86.6849 138.526 86.6547 138.409C86.6139 138.184 86.6139 137.952 86.6547 137.727V136.916L91.1347 137.385L95.6147 137.897C96.0647 137.983 96.4884 138.173 96.852 138.452C96.9732 138.6 97.0463 138.781 97.0616 138.972C97.0768 139.163 97.0335 139.353 96.9373 139.519ZM96.2547 143.785L87.2093 142.761C85.972 142.761 85.4173 142.164 85.5453 141.567C85.534 141.439 85.534 141.31 85.5453 141.183C85.5683 141.07 85.5683 140.954 85.5453 140.841H85.972L86.7827 141.055H87.5933H89.5987H91.604L92.5854 141.268L93.524 141.524C93.906 141.579 94.294 141.579 94.676 141.524C95.0448 141.485 95.4166 141.485 95.7854 141.524C95.7854 141.524 95.9987 141.524 96.084 141.951C96.1206 142.162 96.1206 142.379 96.084 142.591L96.2547 143.785Z" fill="#878787"/>
<path d="M106.114 150.868C106.114 151.594 105.388 152.106 104.236 152.447C103.35 152.635 102.435 152.635 101.548 152.447C100.899 152.339 100.276 152.108 99.7137 151.764C99.0906 151.315 98.5308 150.784 98.0497 150.186C97.2391 149.247 96.8551 148.65 96.8977 148.351C96.9404 148.052 97.4097 147.498 98.1777 147.711C98.1777 148.351 98.6471 149.119 99.7991 150.058C100.537 150.735 101.431 151.219 102.402 151.466C103.298 151.466 103.81 151.466 103.895 150.783C103.98 150.1 103.468 149.802 102.487 148.991C101.501 148.207 100.587 147.336 99.7564 146.388C99.3038 145.834 98.9745 145.189 98.7906 144.498C98.6067 143.806 98.5723 143.083 98.6897 142.378C98.8552 141.315 99.2965 140.315 99.9697 139.476C100.24 139.018 100.639 138.648 101.116 138.413C101.594 138.178 102.13 138.088 102.658 138.154C103.556 138.37 104.372 138.845 105.004 139.519C105.725 140.058 106.213 140.851 106.37 141.738C106.475 142.388 106.475 143.05 106.37 143.7C106.201 144.574 105.914 145.421 105.516 146.218C105.293 146.282 105.057 146.282 104.834 146.218C104.604 146.18 104.386 146.093 104.194 145.962C103.895 145.962 103.767 145.663 103.81 145.535C103.852 145.407 103.81 145.535 104.236 144.895C104.547 144.328 104.736 143.704 104.791 143.06C105.132 140.87 104.62 139.675 103.255 139.476C102.572 139.476 101.932 139.86 101.335 140.628C100.848 141.297 100.527 142.072 100.396 142.89C100.352 143.485 100.445 144.083 100.666 144.638C100.888 145.192 101.234 145.689 101.676 146.09C102.018 146.474 102.956 147.327 104.535 148.692C106.114 150.058 106.199 150.484 106.114 150.868Z" fill="#878787"/>
<path d="M111.739 141.351C111.619 141.906 111.447 142.449 111.227 142.973C110.992 143.495 110.806 144.037 110.673 144.594L109.606 151.335C109.519 151.958 109.519 152.59 109.606 153.213C109.606 153.213 109.35 153.426 109.222 153.213C109.02 153.215 108.82 153.17 108.638 153.08C108.457 152.991 108.299 152.859 108.179 152.697C108.058 152.534 107.977 152.346 107.944 152.146C107.91 151.947 107.924 151.742 107.985 151.549L109.777 140.327C110.044 140.267 110.321 140.267 110.587 140.327C110.848 140.395 111.094 140.511 111.313 140.669C111.611 140.797 111.782 141.181 111.739 141.351ZM113.062 136.871C113.059 137.011 113.025 137.149 112.963 137.274C112.9 137.399 112.81 137.508 112.7 137.594C112.589 137.68 112.461 137.74 112.325 137.77C112.188 137.8 112.046 137.799 111.91 137.767C111.52 137.699 111.169 137.485 110.929 137.17C110.795 137.03 110.694 136.861 110.635 136.676C110.576 136.491 110.56 136.296 110.587 136.103C110.596 135.962 110.636 135.824 110.703 135.699C110.771 135.574 110.864 135.465 110.978 135.38C111.092 135.295 111.222 135.235 111.361 135.205C111.5 135.176 111.644 135.176 111.782 135.207C112.17 135.284 112.518 135.496 112.763 135.805C112.885 135.952 112.974 136.123 113.026 136.307C113.077 136.49 113.09 136.683 113.062 136.871Z" fill="#878787"/>
<path d="M121.593 155.35C121.536 155.442 121.453 155.515 121.354 155.561C121.256 155.606 121.146 155.622 121.039 155.606C120.659 155.509 120.318 155.301 120.057 155.008C120.057 154.795 120.057 154.539 120.057 154.155C120.057 153.771 120.057 153.558 120.057 153.387C121.167 146.603 120.868 143.104 119.161 142.848C118.806 142.85 118.455 142.927 118.131 143.074C117.808 143.221 117.519 143.435 117.284 143.702C115.356 145.511 114.131 147.945 113.828 150.571C113.77 151.153 113.77 151.739 113.828 152.32C113.859 152.889 113.859 153.459 113.828 154.027C113.828 154.326 113.529 154.454 113.103 154.368C112.676 154.283 112.036 153.558 112.249 152.278L113.444 145.067C113.444 145.067 113.444 144.64 113.444 144.299C113.444 143.958 113.444 143.702 113.444 143.488C113.471 143.105 113.471 142.72 113.444 142.336C113.444 141.824 113.444 141.44 113.444 141.184C113.536 140.964 113.702 140.783 113.913 140.672C114.212 140.672 114.425 140.416 114.553 140.672C114.705 140.698 114.848 140.763 114.967 140.86C115.087 140.957 115.18 141.084 115.236 141.227C114.98 142.507 114.809 143.275 114.767 143.531V144.384C114.98 144.384 115.279 144.086 115.663 143.531C116.018 143.001 116.433 142.514 116.9 142.08C117.148 141.859 117.439 141.691 117.754 141.588C118.07 141.485 118.404 141.45 118.735 141.483C119.432 141.691 120.072 142.058 120.605 142.554C121.137 143.049 121.549 143.661 121.807 144.342C122.314 146.503 122.314 148.751 121.807 150.912L121.593 155.35Z" fill="#878787"/>
<path d="M141.307 146.137C141.008 146.99 140.667 147.843 140.411 148.739C140.056 149.586 139.812 150.475 139.685 151.385L138.149 160.942C138.083 161.545 137.889 162.128 137.58 162.65C137.271 163.173 136.854 163.623 136.357 163.971C135.85 164.314 135.278 164.551 134.677 164.668C134.076 164.786 133.458 164.781 132.859 164.654C131.986 164.483 131.159 164.134 130.427 163.63C129.575 163.168 128.889 162.452 128.464 161.582C128.423 161.399 128.423 161.21 128.464 161.027C128.466 160.904 128.496 160.783 128.553 160.673C128.609 160.563 128.689 160.467 128.788 160.393C128.887 160.319 129.001 160.268 129.123 160.245C129.244 160.222 129.369 160.227 129.488 160.259C129.614 160.23 129.746 160.23 129.872 160.259L130.725 161.497C131.349 162.247 132.233 162.734 133.2 162.862C133.726 163.013 134.286 163 134.804 162.825C135.323 162.65 135.775 162.32 136.101 161.881C136.616 160.899 136.935 159.827 137.04 158.723C137.04 158.723 137.04 158.126 137.04 157.486C136.992 157.032 136.992 156.575 137.04 156.121C136.624 156.451 136.164 156.724 135.675 156.931C135.193 157.147 134.661 157.221 134.139 157.145C133.51 157.077 132.91 156.844 132.401 156.469C131.891 156.094 131.49 155.591 131.237 155.011C130.751 153.838 130.617 152.548 130.853 151.299C131.323 148.526 131.749 146.222 132.133 144.345C132.159 144.209 132.211 144.079 132.288 143.964C132.364 143.849 132.463 143.751 132.579 143.675C132.695 143.6 132.824 143.548 132.96 143.524C133.096 143.499 133.236 143.503 133.371 143.534C134.139 143.534 134.437 143.875 134.309 144.089C133.438 146.352 132.865 148.718 132.603 151.129C132.133 153.987 132.603 155.395 134.352 155.779C136.101 156.163 136.229 155.31 137.083 153.902C137.707 152.826 138.113 151.637 138.277 150.403L138.832 146.947L139.131 145.625C139.131 145.113 139.6 144.899 140.24 145.07C140.88 145.241 141.392 145.753 141.307 146.137Z" fill="#878787"/>
<path d="M57.98 205.651C57.98 206.888 56.8707 207.699 55.2493 208.083C53.9124 208.36 52.5329 208.36 51.196 208.083C49.6948 207.848 48.249 207.342 46.9293 206.589C45.0947 205.608 44.2413 204.627 44.412 203.603C44.5826 202.579 44.796 202.835 45.308 202.92C45.8498 203.058 46.321 203.393 46.6307 203.859L47.6973 205.224C48.8484 206.058 50.2061 206.559 51.6227 206.675C54.0973 207.101 55.4627 206.675 55.676 205.309C55.6472 204.828 55.523 204.358 55.3105 203.926C55.0981 203.494 54.8017 203.108 54.4387 202.792L52.2627 200.616C50.8434 199.313 49.544 197.885 48.38 196.349C47.2619 194.764 46.817 192.8 47.1427 190.888C47.421 189.131 48.2415 187.505 49.4893 186.237C50.0462 185.554 50.7729 185.028 51.5965 184.714C52.4201 184.4 53.3119 184.307 54.1827 184.445C54.9117 184.56 55.6038 184.843 56.2039 185.273C56.8039 185.703 57.2952 186.267 57.6387 186.92C58.4056 188.212 58.8177 189.684 58.8333 191.187C58.7732 191.996 58.7732 192.809 58.8333 193.619V194.813C58.5773 196.563 57.98 197.373 57.1693 197.245C57.0348 197.218 56.9078 197.163 56.7973 197.082C56.6867 197 56.5952 196.896 56.5293 196.776C56.4448 196.527 56.4448 196.257 56.5293 196.008C56.6115 195.555 56.7402 195.112 56.9133 194.685C57.0864 194.259 57.2151 193.815 57.2973 193.363C57.6008 191.957 57.6008 190.502 57.2973 189.096C56.9133 187.389 56.1027 186.451 54.8227 186.28C54.1444 186.188 53.4539 186.274 52.8185 186.528C52.183 186.782 51.624 187.197 51.196 187.731C50.1923 188.651 49.5305 189.884 49.3187 191.229C49.22 192.245 49.3489 193.269 49.6957 194.229C50.0426 195.188 50.5988 196.058 51.324 196.776L55.8893 201.384C57.4253 203.176 58.1933 204.541 57.98 205.651Z" fill="#878787"/>
<path d="M72.5268 198.273C72.5381 198.401 72.5381 198.53 72.5268 198.657C72.5015 198.784 72.5015 198.915 72.5268 199.041H72.0574C72.0574 199.041 72.0574 199.041 71.6734 198.785L71.2894 198.529C69.7616 197.977 68.1705 197.619 66.5534 197.463C65.7224 197.311 64.8806 197.226 64.0361 197.207C63.616 197.249 63.2013 197.335 62.7988 197.463L61.8174 197.676C61.8174 197.676 61.5188 197.463 61.3481 197.079C61.2885 196.841 61.2885 196.591 61.3481 196.353V195.5L66.1694 195.969C68.0894 195.969 69.7108 196.353 70.9908 196.524C71.4657 196.597 71.9099 196.804 72.2708 197.121C72.4271 197.263 72.5356 197.451 72.5814 197.657C72.6272 197.863 72.6082 198.078 72.5268 198.273ZM71.8014 202.881L62.0734 201.815C60.7934 201.815 60.1961 201.175 60.2814 200.492V200.108C60.2984 199.995 60.2984 199.88 60.2814 199.767H60.7508L61.6041 199.98H62.5001L64.6334 200.193C65.3438 200.148 66.0564 200.148 66.7668 200.193H67.8334L68.8574 200.449C69.2533 200.51 69.6562 200.51 70.0521 200.449C70.4484 200.393 70.8505 200.393 71.2468 200.449C71.2468 200.449 71.5454 200.449 71.5881 200.919C71.6441 201.143 71.6441 201.377 71.5881 201.601L71.8014 202.881Z" fill="#878787"/>
<path d="M87.8092 211.709C87.8092 212.221 87.5532 212.477 87.2546 212.435L86.7426 212.179C86.1533 211.887 85.5182 211.699 84.8652 211.624C81.7055 211.108 78.4907 211.022 75.3079 211.368L74.0706 211.581H72.9186C72.0652 211.581 71.6812 210.984 71.8092 210.173C71.9151 209.73 72.1715 209.338 72.5346 209.064L76.0332 206.803C78.2939 205.352 80.3588 203.617 82.1772 201.64C84.1295 199.848 85.5347 197.541 86.2306 194.984C86.311 194.523 86.2957 194.05 86.1856 193.595C86.0755 193.14 85.873 192.712 85.5906 192.339C85.3032 191.946 84.9398 191.615 84.522 191.366C84.1042 191.117 83.6405 190.954 83.1586 190.888C81.9259 190.75 80.682 191.02 79.6172 191.656C78.4862 192.161 77.5449 193.013 76.9292 194.088C76.9292 194.728 76.5452 195.368 76.3319 196.008C76.1186 196.648 75.6066 197.416 75.2226 197.373C74.9483 197.255 74.712 197.063 74.5399 196.819C74.2412 196.52 74.1132 196.264 74.1559 196.136C74.4905 194.677 75.3011 193.371 76.4599 192.424C77.5196 191.349 78.8219 190.544 80.2572 190.077C81.3387 189.7 82.497 189.597 83.6279 189.779C85.0074 190.027 86.2336 190.809 87.0412 191.955C87.4566 192.502 87.7543 193.13 87.9159 193.798C88.0774 194.466 88.0992 195.16 87.9799 195.837C87.3594 198.501 85.8557 200.877 83.7132 202.579C81.623 204.388 79.382 206.015 77.0146 207.443L75.7346 208.296C75.3361 208.608 74.9904 208.983 74.7106 209.405C74.7507 209.511 74.8201 209.604 74.9108 209.672C75.0015 209.74 75.1096 209.78 75.2226 209.789H86.9132C87.093 209.814 87.2627 209.887 87.4052 209.999C87.5476 210.112 87.6576 210.26 87.7239 210.429C87.9093 210.831 87.9397 211.287 87.8092 211.709Z" fill="#878787"/>
<path d="M100.18 207.108C99.9433 208.98 99.3184 210.782 98.3456 212.398C97.9512 213.232 97.2974 213.915 96.4821 214.346C95.6667 214.777 94.7338 214.932 93.823 214.788C93.2101 214.672 92.6326 214.416 92.1364 214.038C91.6401 213.66 91.2388 213.172 90.9643 212.612C90.9643 212.612 90.5803 213.294 90.367 214.574C89.9795 216.599 89.8079 218.658 89.855 220.718C89.8257 220.988 89.8257 221.26 89.855 221.529C89.8807 221.799 89.8807 222.07 89.855 222.34C89.855 222.681 89.5136 222.809 89.087 222.766C88.6962 222.736 88.324 222.588 88.0203 222.34C87.7863 221.848 87.6834 221.304 87.7216 220.761C87.6917 220.178 87.6917 219.595 87.7216 219.012L89.599 210.692C89.599 209.924 89.9403 208.9 90.1963 207.62C90.4523 206.34 90.751 205.102 90.8363 204.548C90.9217 203.993 91.0923 203.182 91.2203 202.244C91.3483 201.305 91.519 200.281 91.6043 199.94C91.8603 198.404 92.3723 197.721 93.1403 197.849C93.9083 197.977 93.695 198.105 93.6523 198.361C93.6097 198.617 93.3963 199.726 93.1403 200.75C92.8843 201.774 92.7136 202.585 92.6283 203.097L94.463 201.305C94.7688 200.991 95.1448 200.753 95.5601 200.612C95.9755 200.471 96.4183 200.431 96.8523 200.494C97.5403 200.58 98.1886 200.864 98.7187 201.31C99.2488 201.757 99.638 202.348 99.839 203.012C100.329 204.319 100.447 205.737 100.18 207.108ZM98.5163 207.108C98.6599 206.103 98.6599 205.083 98.5163 204.078C98.5163 202.798 97.8336 202.073 97.023 201.945C96.2123 201.817 95.5723 202.286 94.5056 203.182C93.6644 203.929 92.9699 204.826 92.4576 205.828C91.9495 206.846 91.5628 207.92 91.3056 209.028C91.1592 209.503 91.0452 209.988 90.9643 210.478C90.9643 210.478 90.9643 210.692 90.9643 210.862L91.3056 211.246C91.6043 211.801 91.8603 212.356 92.1163 212.91C92.2595 213.196 92.4704 213.443 92.7306 213.629C92.9909 213.815 93.2927 213.934 93.6097 213.977C94.8043 213.977 95.871 213.337 96.8097 211.46C97.629 210.059 98.2059 208.53 98.5163 206.937V207.108Z" fill="#878787"/>
<path d="M105.295 203.01C105.153 203.597 104.953 204.168 104.698 204.716C104.464 205.283 104.279 205.868 104.143 206.465L102.991 213.719C102.904 214.384 102.904 215.059 102.991 215.724C102.931 215.751 102.866 215.765 102.799 215.765C102.733 215.765 102.668 215.751 102.607 215.724C102.384 215.728 102.163 215.678 101.962 215.58C101.762 215.481 101.588 215.336 101.454 215.157C101.321 214.978 101.232 214.769 101.195 214.549C101.158 214.328 101.174 214.102 101.242 213.89L103.162 201.858C103.443 201.799 103.734 201.799 104.015 201.858C104.308 201.908 104.585 202.025 104.826 202.199C105.167 202.54 105.338 202.754 105.295 203.01ZM106.661 198.188C106.659 198.338 106.624 198.486 106.556 198.62C106.489 198.754 106.392 198.871 106.273 198.961C106.153 199.052 106.014 199.114 105.867 199.143C105.72 199.171 105.568 199.166 105.423 199.127C105.005 199.041 104.629 198.815 104.357 198.487C104.216 198.334 104.112 198.15 104.053 197.95C103.993 197.751 103.981 197.54 104.015 197.335C104.015 197.18 104.051 197.027 104.12 196.889C104.19 196.751 104.292 196.631 104.416 196.54C104.541 196.448 104.686 196.387 104.839 196.362C104.991 196.337 105.148 196.349 105.295 196.396C105.708 196.471 106.083 196.681 106.362 196.993C106.496 197.159 106.593 197.351 106.644 197.558C106.696 197.764 106.702 197.979 106.661 198.188Z" fill="#878787"/>
<path d="M121.556 206.806C121.556 206.806 121.556 207.062 121.556 207.361C121.556 207.659 120.873 207.915 120.617 207.873C120.524 207.841 120.438 207.791 120.364 207.725C120.291 207.659 120.232 207.578 120.191 207.489C120.191 206.081 119.892 205.313 118.825 205.142C117.759 204.971 117.247 206.209 116.137 208.683C115.625 209.864 115.294 211.116 115.156 212.395C114.896 213.617 114.739 214.859 114.687 216.107C114.687 216.107 114.687 216.321 114.687 216.534C114.703 216.704 114.703 216.876 114.687 217.046C114.687 217.515 114.217 217.729 113.577 217.601C113.421 217.595 113.268 217.553 113.13 217.478C112.992 217.403 112.873 217.298 112.783 217.17C112.692 217.042 112.632 216.896 112.607 216.741C112.582 216.586 112.593 216.428 112.639 216.278V215.809C112.65 215.653 112.65 215.496 112.639 215.339C112.639 214.145 113.065 212.353 113.321 209.921C113.577 207.489 113.876 205.654 114.047 204.459C114.047 204.033 114.047 203.777 114.388 203.691C114.699 203.647 115.015 203.647 115.327 203.691C115.881 203.691 116.137 204.033 116.18 204.459V205.739L117.375 204.417C117.595 204.209 117.858 204.052 118.146 203.957C118.433 203.861 118.738 203.829 119.039 203.862C119.456 203.931 119.843 204.124 120.148 204.417C120.467 204.746 120.714 205.138 120.873 205.569C121.216 205.906 121.453 206.336 121.556 206.806Z" fill="#878787"/>
<path d="M132.608 210.35C132.569 210.549 132.464 210.73 132.309 210.862C132.233 210.911 132.144 210.938 132.053 210.938C131.962 210.938 131.873 210.911 131.797 210.862L131.114 210.649C130.889 210.61 130.658 210.61 130.432 210.649C128.382 210.328 126.295 210.328 124.245 210.649C123.991 210.686 123.732 210.686 123.477 210.649C123.186 210.609 122.915 210.474 122.709 210.265C122.621 210.151 122.556 210.02 122.519 209.881C122.483 209.742 122.475 209.596 122.496 209.454C122.587 209.085 122.816 208.764 123.136 208.558L124.117 208.003C125.562 207.174 126.919 206.202 128.17 205.102C129.471 204.131 130.404 202.747 130.816 201.177C130.867 200.961 130.866 200.737 130.814 200.522C130.762 200.307 130.661 200.107 130.517 199.939C130.216 199.609 129.808 199.398 129.365 199.342C128.734 199.285 128.099 199.403 127.53 199.683C126.961 199.928 126.483 200.346 126.165 200.878L125.696 202.158C125.482 202.67 125.141 202.926 124.757 202.841C124.51 202.757 124.29 202.61 124.117 202.414C123.904 202.158 123.776 201.945 123.818 201.731C124.03 200.846 124.543 200.061 125.269 199.513C125.942 198.882 126.742 198.402 127.616 198.105C128.321 197.976 129.044 197.976 129.749 198.105C130.635 198.261 131.429 198.749 131.968 199.47C132.251 199.81 132.458 200.207 132.576 200.634C132.694 201.06 132.719 201.507 132.65 201.945C132.239 203.549 131.271 204.955 129.92 205.913C129.365 206.339 128 207.278 125.653 208.729L125.098 209.113H131.498H131.712C131.856 209.144 131.991 209.206 132.109 209.294C132.227 209.382 132.324 209.495 132.394 209.625C132.528 209.843 132.602 210.093 132.608 210.35Z" fill="#878787"/>
<path d="M114.129 210.517C114.083 210.809 113.951 211.08 113.75 211.298C113.55 211.515 113.289 211.667 113.002 211.736C112.715 211.805 112.413 211.788 112.136 211.685C111.859 211.583 111.618 211.4 111.444 211.161C111.271 210.922 111.172 210.636 111.161 210.341C111.15 210.045 111.227 209.753 111.382 209.502C111.537 209.25 111.763 209.05 112.032 208.927C112.3 208.804 112.599 208.763 112.891 208.81C113.281 208.873 113.631 209.088 113.863 209.408C114.094 209.728 114.19 210.126 114.129 210.517Z" fill="#878787"/>
<path d="M64.938 211.583C64.7744 211.54 64.6265 211.451 64.5113 211.327C64.4033 211.203 64.3438 211.044 64.3438 210.879C64.3438 210.715 64.4033 210.555 64.5113 210.431L94.762 188.628C94.8176 188.572 94.884 188.527 94.9573 188.496C95.0305 188.465 95.1092 188.449 95.1886 188.449C95.2681 188.449 95.3468 188.465 95.4201 188.496C95.4933 188.527 95.5597 188.572 95.6153 188.628C95.6721 188.684 95.7172 188.75 95.748 188.824C95.7787 188.897 95.7946 188.976 95.7946 189.055C95.7946 189.135 95.7787 189.213 95.748 189.287C95.7172 189.36 95.6721 189.426 95.6153 189.482L65.3646 211.327L64.938 211.583Z" fill="#878787"/>
<path d="M84.262 173.184C83.1687 173.096 82.0701 173.096 80.9767 173.184C80.55 173.184 80.294 173.184 80.2087 173.525C80.108 173.874 80.108 174.243 80.2087 174.592C80.2841 175.594 80.4847 176.583 80.806 177.536C80.806 177.536 80.806 177.536 81.062 177.877L81.2754 178.261C81.3067 178.589 81.2319 178.918 81.062 179.2H80.2087C80.2087 179.2 79.8674 179.2 79.5687 178.816C79.27 178.432 79.142 178.347 79.142 178.219C79.1237 178.106 79.1237 177.99 79.142 177.877C79.1563 177.764 79.1563 177.649 79.142 177.536C79.142 177.251 79.142 176.825 79.142 176.256C79.142 175.687 79.142 175.26 79.142 174.976C79.142 174.336 78.9287 174.037 78.758 174.037C77.592 174.207 76.4378 174.449 75.302 174.763C74.1702 175.102 73.0151 175.359 71.846 175.531C71.2403 175.547 70.6397 175.415 70.0967 175.147C69.3287 174.763 68.902 174.379 68.8594 173.952C69.0152 172.991 69.4795 172.108 70.182 171.435L72.2727 169.173C73.4247 167.893 75.0887 165.973 77.3074 163.328L78.1607 161.877C78.297 161.632 78.4865 161.42 78.7154 161.258C78.9443 161.095 79.2068 160.986 79.4834 160.939C79.7177 160.854 79.9744 160.854 80.2087 160.939C80.321 161.009 80.4171 161.103 80.4906 161.213C80.5642 161.323 80.6135 161.448 80.6354 161.579C80.6603 161.877 80.6603 162.176 80.6354 162.475C80.6354 163.072 80.6354 163.413 80.6354 163.456C80.6354 163.499 80.6354 165.376 80.422 168.107C80.422 170.069 80.422 171.349 80.422 171.861C80.4361 171.956 80.4699 172.047 80.5214 172.128C80.5729 172.209 80.6408 172.278 80.7207 172.331H81.4887H82.2567C83.622 172.331 84.4754 172.331 84.8594 172.8L84.262 173.184ZM78.2887 164.651H77.99C76.4729 165.975 75.0474 167.4 73.7234 168.917C71.462 171.349 70.3954 172.885 70.4807 173.525C70.566 174.165 70.8647 174.251 71.5047 174.165L78.5447 172.8L78.2887 164.651Z" fill="#878787"/>
<path d="M168.063 100.099C167.504 100.925 166.674 101.528 165.717 101.806C164.6 102.155 163.415 102.229 162.263 102.021C161.112 101.812 160.027 101.329 159.103 100.611C158.217 99.9743 157.415 99.2289 156.714 98.3924C156.335 97.8659 156.06 97.2722 155.903 96.6431C155.769 96.3484 155.699 96.0283 155.699 95.7044C155.699 95.3805 155.769 95.0604 155.903 94.7657C156.021 94.6534 156.169 94.5791 156.33 94.5524C156.497 94.505 156.675 94.505 156.842 94.5524C156.842 94.5524 157.098 95.0217 156.842 95.4911C156.821 95.8321 156.821 96.174 156.842 96.5151C156.842 97.4111 157.439 98.3924 158.847 99.4164C159.75 100.098 160.804 100.551 161.919 100.739C163.009 100.975 164.145 100.856 165.162 100.398C165.76 100.165 166.289 99.7834 166.698 99.2884C166.937 98.8499 167.062 98.3585 167.062 97.8591C167.062 97.3597 166.937 96.8682 166.698 96.4297C166.322 95.501 165.703 94.6905 164.906 94.0831C164.342 93.831 163.757 93.631 163.157 93.4857C162.356 93.324 161.59 93.0205 160.895 92.5897C160.426 92.2484 160.255 91.9497 160.426 91.7364C160.641 91.5148 160.929 91.3784 161.237 91.3524C161.878 91.3466 162.5 91.574 162.986 91.9924C163.564 92.3667 164.179 92.6812 164.821 92.9311C165.707 93.0768 166.615 93.0035 167.466 92.7177C168.439 92.523 169.315 91.9949 169.941 91.2244C170.095 91.0272 170.209 90.8011 170.275 90.5592C170.341 90.3174 170.358 90.0648 170.325 89.8164C170.278 89.5668 170.182 89.3289 170.043 89.1165C169.904 88.9041 169.724 88.7215 169.514 88.5791C168.814 88.1369 168.029 87.8462 167.21 87.7257C166.394 87.5567 165.551 87.5567 164.735 87.7257C164.735 87.7257 164.479 87.7257 164.351 88.1951H163.071C162.431 88.1951 162.047 88.1951 161.919 88.1951C161.778 88.0874 161.673 87.9383 161.621 87.7684C161.579 87.6893 161.558 87.6015 161.558 87.5124C161.558 87.4233 161.579 87.3355 161.621 87.2564C161.941 86.953 162.34 86.7459 162.773 86.6591C164.006 86.3054 165.3 86.2181 166.57 86.4031C167.852 86.4983 169.086 86.9247 170.154 87.6404C170.847 88.0818 171.349 88.7669 171.562 89.5604C171.66 89.9483 171.668 90.3533 171.587 90.745C171.506 91.1367 171.337 91.5048 171.093 91.8217C170.525 92.5174 169.77 93.0357 168.917 93.3151C168.083 93.6349 167.205 93.8221 166.314 93.8697C166.573 94.2581 166.858 94.6287 167.167 94.9791C167.706 95.6016 168.113 96.3275 168.362 97.1124C168.564 97.5959 168.642 98.1221 168.59 98.6435C168.538 99.1649 168.357 99.6651 168.063 100.099Z" fill="#878787"/>
<path d="M180.907 105.473C179.73 107.181 178.086 108.515 176.171 109.313C175.27 109.789 174.254 110.004 173.237 109.937C172.22 109.869 171.242 109.52 170.411 108.929C169.668 108.427 169.063 107.745 168.652 106.947C168.242 106.149 168.04 105.261 168.064 104.364C168.086 102.553 168.7 100.799 169.814 99.3716C170.945 97.9116 172.408 96.7417 174.08 95.9583C175.623 95.0083 177.477 94.7018 179.243 95.105C179.893 95.2433 180.501 95.5314 181.019 95.9462C181.538 96.361 181.952 96.8911 182.23 97.4943C182.618 98.1258 182.872 98.8309 182.975 99.5652C183.077 100.299 183.027 101.047 182.827 101.761C182.446 103.116 181.792 104.379 180.907 105.473ZM179.968 104.705C180.907 103.447 181.535 101.985 181.803 100.438C181.894 99.6955 181.789 98.9419 181.497 98.2529C181.205 97.5639 180.736 96.9639 180.139 96.513C179.608 96.1578 178.986 95.9651 178.347 95.9583C176.847 95.9006 175.363 96.2865 174.08 97.0676C172.783 97.8153 171.663 98.8341 170.795 100.054C170.371 100.592 170.012 101.18 169.728 101.804C169.26 102.835 169.169 103.998 169.472 105.089C169.753 106.194 170.418 107.162 171.35 107.82C172.055 108.297 172.888 108.551 173.739 108.551C174.591 108.551 175.423 108.297 176.128 107.82C177.636 107.099 178.952 106.032 179.968 104.705Z" fill="#878787"/>
<path d="M192.255 104.702C191.553 105.718 190.555 106.492 189.397 106.921C188.837 107.164 188.224 107.256 187.618 107.189C187.011 107.121 186.433 106.897 185.941 106.537C185.488 106.235 185.112 105.83 184.846 105.356C184.579 104.881 184.428 104.35 184.405 103.806C184.329 102.708 184.68 101.622 185.386 100.777C186.024 99.8893 186.895 99.1953 187.903 98.7716C188.89 98.2588 190.039 98.1516 191.103 98.473C191.462 98.6243 191.805 98.8101 192.127 99.0276C192.535 99.3579 192.853 99.7844 193.054 100.269C193.255 100.753 193.333 101.279 193.279 101.801C193.246 102.851 192.889 103.864 192.255 104.702ZM191.274 103.892C191.741 103.28 192.049 102.561 192.17 101.801C192.227 101.416 192.172 101.023 192.014 100.668C191.855 100.313 191.598 100.01 191.274 99.7956C191.019 99.6265 190.726 99.5238 190.421 99.497C189.631 99.4156 188.837 99.5955 188.159 100.009C187.46 100.389 186.85 100.912 186.367 101.545C185.894 102.152 185.652 102.909 185.685 103.678C185.699 104.054 185.804 104.42 185.989 104.747C186.175 105.074 186.436 105.351 186.751 105.556C187.124 105.805 187.562 105.938 188.01 105.938C188.458 105.938 188.896 105.805 189.269 105.556C190.058 105.165 190.745 104.595 191.274 103.892Z" fill="#878787"/>
<path d="M159.782 181.501C160.159 183.64 159.997 185.839 159.313 187.901C158.989 188.917 158.545 189.891 157.99 190.802C157.25 192.139 156.568 192.864 155.942 192.978C155.619 193.054 155.283 193.054 154.961 192.978C154.491 192.978 154.235 192.637 154.193 192.381C154.167 192.262 154.188 192.138 154.252 192.034C154.315 191.931 154.416 191.856 154.534 191.826H154.961H155.387C155.985 191.826 156.667 190.802 157.393 189.138C157.919 188.038 158.306 186.877 158.545 185.682V184.658C157.602 185.95 156.248 186.883 154.705 187.303C153.871 187.565 152.978 187.565 152.145 187.303C151.352 186.998 150.669 186.463 150.182 185.767C149.716 185.079 149.424 184.289 149.329 183.463C148.964 181.914 149.145 180.287 149.841 178.855C150.187 178.142 150.702 177.524 151.342 177.056C151.981 176.587 152.726 176.282 153.51 176.167C154.275 176.004 155.069 176.04 155.816 176.271C156.563 176.503 157.238 176.922 157.777 177.49C158.834 178.595 159.532 179.992 159.782 181.501ZM158.587 181.842C158.401 180.592 157.886 179.414 157.094 178.429C156.753 177.913 156.268 177.508 155.699 177.265C155.13 177.023 154.503 176.952 153.894 177.063C153.252 177.193 152.659 177.497 152.177 177.941C151.696 178.384 151.345 178.952 151.163 179.581C150.662 180.81 150.514 182.155 150.737 183.463C150.895 184.398 151.36 185.254 152.059 185.895C152.423 186.195 152.85 186.409 153.308 186.52C153.767 186.63 154.244 186.636 154.705 186.535C155.592 186.253 156.388 185.737 157.009 185.042C157.719 184.488 158.265 183.75 158.587 182.909C158.672 182.558 158.672 182.192 158.587 181.842Z" fill="#878787"/>
<path d="M173.398 180.776C173.79 182.804 173.613 184.901 172.886 186.835C172.608 187.816 172.061 188.699 171.307 189.385C170.553 190.071 169.622 190.533 168.619 190.717C167.739 190.906 166.825 190.872 165.961 190.619C165.097 190.365 164.31 189.901 163.67 189.267C162.373 187.995 161.533 186.33 161.281 184.531C161.004 182.744 161.15 180.917 161.707 179.197C162.085 177.441 163.144 175.907 164.651 174.931C165.296 174.593 165.986 174.348 166.699 174.205C167.266 174.132 167.84 174.132 168.406 174.205C169.111 174.357 169.777 174.651 170.364 175.069C170.951 175.487 171.446 176.021 171.819 176.637C172.631 177.891 173.168 179.301 173.398 180.776ZM172.161 180.776C171.961 179.232 171.374 177.765 170.454 176.509C170.012 175.898 169.4 175.431 168.695 175.165C167.989 174.9 167.221 174.848 166.486 175.016C165.873 175.134 165.309 175.431 164.865 175.869C163.777 176.907 163.02 178.243 162.689 179.709C162.398 181.117 162.398 182.569 162.689 183.976C162.776 184.649 162.948 185.309 163.201 185.939C163.636 186.993 164.419 187.866 165.419 188.413C166.42 188.965 167.584 189.146 168.705 188.925C169.538 188.763 170.304 188.355 170.905 187.755C171.505 187.154 171.913 186.388 172.075 185.555C172.448 184.015 172.477 182.413 172.161 180.861V180.776Z" fill="#878787"/>
<path d="M180.69 171.988C180.914 173.208 180.78 174.468 180.306 175.614C180.087 176.184 179.724 176.688 179.253 177.077C178.782 177.466 178.219 177.726 177.618 177.833C177.088 177.948 176.538 177.939 176.012 177.806C175.487 177.673 174.999 177.419 174.588 177.065C173.768 176.336 173.238 175.336 173.095 174.249C172.878 173.162 172.982 172.035 173.394 171.006C173.534 170.475 173.785 169.98 174.131 169.554C174.476 169.127 174.909 168.779 175.399 168.532C175.749 168.361 176.123 168.246 176.508 168.19C177.023 168.115 177.549 168.173 178.035 168.36C178.52 168.547 178.95 168.856 179.282 169.257C180.005 170.012 180.493 170.961 180.69 171.988ZM179.41 171.988C179.306 171.222 178.996 170.5 178.514 169.897C178.271 169.588 177.945 169.356 177.575 169.227C177.204 169.099 176.804 169.079 176.423 169.172C176.127 169.235 175.849 169.367 175.612 169.556C175.035 170.1 174.622 170.794 174.418 171.561C174.246 172.334 174.246 173.135 174.418 173.908C174.499 174.667 174.865 175.369 175.442 175.87C175.727 176.126 176.071 176.307 176.443 176.396C176.816 176.486 177.205 176.481 177.575 176.382C177.949 176.304 178.295 176.129 178.58 175.874C178.864 175.619 179.077 175.294 179.196 174.932C179.498 174.039 179.571 173.086 179.41 172.158V171.988Z" fill="#878787"/>
</g>
<defs>
<clipPath id="clip0_4467_117455">
<rect width="259.712" height="272" fill="white"/>
</clipPath>
</defs>
</svg>
