<svg width="48" height="48" viewBox="0 0 48 48" fill="none" xmlns="http://www.w3.org/2000/svg">
<path d="M21.2513 40.3636C21.1321 40.2 20.998 40.0441 20.8962 39.87C20.3486 38.9333 19.8053 37.9948 19.2717 37.0511C19.1681 36.8683 19.0523 36.7935 18.8373 36.7961C17.9258 36.8083 17.0135 36.8022 16.1011 36.8004C15.5405 36.7995 15.4456 36.702 15.4456 36.1301C15.4456 34.3602 15.4534 32.5904 15.4369 30.8205C15.4343 30.5759 15.3611 30.3043 15.2392 30.0919C13.2317 26.5922 11.2112 23.0995 9.19407 19.6051C8.88937 19.0775 8.92245 18.9539 9.44392 18.6527C11.3504 17.5514 13.2544 16.4449 15.1661 15.3541C15.389 15.227 15.456 15.0877 15.4508 14.8431C15.4351 14.0613 15.443 13.2796 15.4464 12.4978C15.4482 12.0974 15.5936 11.9537 15.9992 11.9528C17.5732 11.9511 19.1481 11.9581 20.722 11.945C20.9266 11.9433 21.153 11.8841 21.3297 11.7831C23.9927 10.257 26.6488 8.7187 29.3075 7.1839C29.8125 6.89226 29.9517 6.92883 30.2399 7.42853C31.0478 8.82839 31.8635 10.223 32.6557 11.6325C32.8011 11.891 32.9613 11.9607 33.2425 11.9598C35.2073 11.9476 37.1731 11.9528 39.1379 11.9537C39.6228 11.9537 39.7569 12.0869 39.7578 12.5683C39.7586 18.7032 39.7569 24.838 39.7621 30.972C39.7621 31.2071 39.6898 31.3733 39.521 31.5414C37.8338 33.2172 36.1588 34.9052 34.4665 36.5758C34.3324 36.7081 34.0939 36.7961 33.9024 36.7969C31.9044 36.8117 29.9065 36.803 27.9094 36.8065C27.7954 36.8065 27.6683 36.8379 27.5699 36.8944C25.5702 38.0479 23.574 39.2066 21.5769 40.3645C21.4681 40.3636 21.3602 40.3636 21.2513 40.3636ZM38.8724 12.8338C31.3394 12.8338 23.8421 12.8338 16.3327 12.8338C16.3327 20.5409 16.3327 28.2297 16.3327 35.9142C22.108 35.9142 27.858 35.9142 33.6316 35.9142C33.6316 35.7766 33.6316 35.6591 33.6316 35.5416C33.6316 34.1304 33.6307 32.7184 33.6316 31.3072C33.6316 30.8031 33.7587 30.6769 34.2706 30.676C35.6713 30.6743 37.0721 30.6751 38.4728 30.6751C38.5999 30.6751 38.727 30.6751 38.8715 30.6751C38.8724 24.7118 38.8724 18.7885 38.8724 12.8338ZM10.0315 19.3169C11.8293 22.4301 13.6035 25.5031 15.3785 28.5762C15.3959 28.5675 15.4134 28.5588 15.4308 28.5501C15.4308 24.4524 15.4308 20.3555 15.4308 16.2021C13.6157 17.2493 11.8362 18.2757 10.0315 19.3169ZM22.9133 11.8806C22.9185 11.8971 22.9246 11.9137 22.9298 11.9302C25.8827 11.9302 28.8357 11.9302 31.8339 11.9302C31.0722 10.6122 30.3322 9.32897 29.5818 8.03009C27.3427 9.32287 25.128 10.6017 22.9133 11.8806ZM25.9219 36.8335C23.9483 36.8335 22.0662 36.8335 20.1449 36.8335C20.6385 37.6875 21.1086 38.5015 21.59 39.3346C23.0247 38.5058 24.4359 37.691 25.9219 36.8335ZM38.1098 31.577C36.9485 31.577 35.7375 31.577 34.5135 31.577C34.5135 32.808 34.5135 34.0155 34.5135 35.1751C35.7088 33.9798 36.9197 32.768 38.1098 31.577Z" fill="black" stroke="black" stroke-width="0.2"/>
<path d="M19.4821 21.3206C19.2465 21.3012 19.1149 21.1492 19.1133 20.9102L19.4821 21.3206ZM19.4821 21.3206L19.4736 21.4202C19.5585 21.4275 19.6445 21.4271 19.7253 21.4267C19.7434 21.4266 19.7613 21.4265 19.7788 21.4265H19.7946H19.8105H19.8264H19.8422H19.8581H19.8739H19.8897H19.9055H19.9213H19.9371H19.9529H19.9687H19.9845H20.0003H20.016H20.0318H20.0475H20.0633H20.079H20.0947H20.1104H20.1261H20.1418H20.1575H20.1732H20.1889H20.2046H20.2202H20.2359H20.2515H20.2672H20.2828H20.2984H20.3141H20.3297H20.3453H20.3609H20.3765H20.3921H20.4077H20.4232H20.4388H20.4543H20.4699H20.4854H20.501H20.5165H20.532H20.5476H20.5631H20.5786H20.5941H20.6096H20.6251H20.6405H20.656H20.6715H20.6869H20.7024H20.7178H20.7333H20.7487H20.7642H20.7796H20.795H20.8104H20.8258H20.8412H20.8566H20.872H20.8874H20.9028H20.9181H20.9335H20.9488H20.9642H20.9795H20.9949H21.0102H21.0256H21.0409H21.0562H21.0715H21.0868H21.1021H21.1174H21.1327H21.148H21.1633H21.1785H21.1938H21.2091H21.2243H21.2396H21.2548H21.2701H21.2853H21.3006H21.3158H21.331H21.3462H21.3615H21.3767H21.3919H21.4071H21.4223H21.4375H21.4526H21.4678H21.483H21.4982H21.5133H21.5285H21.5437H21.5588H21.574H21.5891H21.6042H21.6194H21.6345H21.6496H21.6648H21.6799H21.695H21.7101H21.7252H21.7403H21.7554H21.7705H21.7856H21.8007H21.8158H21.8308H21.8459H21.861H21.876H21.8911H21.9062H21.9212H21.9363H21.9513H21.9664H21.9814H21.9964H22.0115H22.0265H22.0415H22.0565H22.0716H22.0866H22.1016H22.1166H22.1316H22.1466H22.1616H22.1766H22.1916H22.2066H22.2216H22.2366H22.2515H22.2665H22.2815H22.2965H22.3114H22.3264H22.3414H22.3563H22.3713H22.3862H22.4012H22.4161H22.4311H22.446H22.461H22.4759H22.4908H22.5058H22.5207H22.5356H22.5506H22.5655H22.5804H22.5953H22.6102H22.6251H22.6401H22.655H22.6699H22.6848H22.6997H22.7146H22.7295H22.7444H22.7593H22.7742H22.7891H22.804H22.8188H22.8337H22.8486H22.8635H22.8784H22.8933H22.9081H22.923H22.9379H22.9528H22.9676H22.9825H22.9974H23.0122H23.0271H23.042H23.0568H23.0717H23.0866H23.1014H23.1163H23.1311H23.146H23.1608H23.1757H23.1906H23.2054H23.2203H23.2351H23.25H23.2648H23.2796H23.2945H23.3093H23.3242H23.339H23.3539H23.3687H23.3836H23.3984H23.4132H23.4281H23.4429H23.4578H23.4726H23.4874H23.5023H23.5171H23.5319H23.5468H23.5616H23.5765H23.5913H23.6061H23.621H23.6358H23.6506H23.6655H23.6803H23.6952H23.71H23.7248H23.7397H23.7545H23.7693H23.7842H23.799H23.8138H23.8287H23.8435H23.8584H23.8732H23.888H23.9029H23.9177H23.9326H23.9474H23.9622H23.9771H23.9919H24.0068H24.0216H24.0365H24.0513H24.0662H24.081H24.0959H24.1107H24.1256H24.1404H24.1553H24.1701H24.185H24.1998H24.2147H24.2296H24.2444H24.2593H24.2741H24.289H24.3039H24.3187H24.3336H24.3485H24.3633H24.3782H24.3931H24.408H24.4228H24.4377H24.4526H24.4675H24.4824H24.4973H24.5121H24.527H24.5419H24.5568H24.5717H24.5866H24.6015H24.6164H24.6313H24.6462H24.6611H24.676H24.6909H24.7059H24.7208H24.7357H24.7506H24.7655H24.7805H24.7954H24.8103H24.8252H24.8402H24.8551H24.8701H24.885H24.8999H24.9149H24.9298H24.9448H24.9598H24.9747H24.9897H25.0046H25.0196H25.0346H25.0495H25.0645H25.0795H25.0945H25.1095H25.1245H25.1394H25.1544H25.1694H25.1844H25.1994H25.2145H25.2295H25.2445H25.2595H25.2745H25.2895H25.3046H25.3196H25.3346H25.3497H25.3647H25.3798H25.3948H25.4099H25.4249H25.44H25.455H25.4701H25.4852H25.5003H25.5153H25.5304H25.5455H25.5606H25.5757H25.5908H25.6059H25.621H25.6361H25.6512H25.6664H25.6815H25.6966H25.7118H25.7269H25.742H25.7572H25.7723H25.7875H25.8026H25.8178H25.833H25.8482H25.8633H25.8785H25.8937H25.9089H25.9241H25.9393H25.9545H25.9697H25.9849H26.0002H26.0154H26.0306H26.0459H26.0611H26.0763H26.0916H26.1069H26.1221H26.1374H26.1527H26.1679H26.1832H26.1985H26.2138H26.2291H26.2444H26.2597H26.275H26.2904H26.3057H26.321H26.3364H26.3517H26.3671H26.3824H26.3978H26.4131H26.4285H26.4439H26.4593H26.4747H26.4901H26.5055H26.5209H26.5363H26.5517H26.5671H26.5826H26.598H26.6135H26.6289H26.6444H26.6598H26.6753H26.6908H26.7063H26.7218H26.7373H26.7528H26.7683H26.7838H26.7993H26.8148H26.8304H26.8459H26.8615H26.877H26.8926H26.9082H26.9237H26.9393H26.9549H26.9705H26.9861H27.0017H27.0173H27.033H27.0486H27.0642H27.0799H27.0955H27.1112H27.1269H27.1425H27.1582H27.1739H27.1896H27.2053H27.221H27.2367H27.2525H27.2682H27.284H27.2997H27.3155H27.3312H27.347H27.3628H27.3786H27.3944H27.4102H27.426H27.4418H27.4576H27.4735H27.4893H27.5052H27.521H27.5369H27.5528H27.5679H27.583H27.5982H27.6133H27.6284H27.6435H27.6587H27.6738H27.6889H27.7041H27.7192H27.7343H27.7494H27.7646H27.7797H27.7948H27.8099H27.8251H27.8402H27.8553H27.8705H27.8856H27.9007H27.9158H27.931H27.9461H27.9612H27.9764H27.9915H28.0066H28.0217H28.0369H28.052H28.0671H28.0822H28.0974H28.1125H28.1276H28.1428H28.1579H28.173H28.1881H28.2033H28.2184H28.2335H28.2487H28.2638H28.2789H28.294H28.3092H28.3243H28.3394H28.3546H28.3697H28.3848H28.3999H28.4151H28.4302H28.4453H28.4604H28.4756H28.4907H28.5058H28.521H28.5361H28.5512H28.5663H28.5815H28.5966H28.6117H28.6269H28.642H28.6571H28.6722H28.6874H28.7025H28.7176H28.7327H28.7479H28.763H28.7781H28.7933H28.8084H28.8235H28.8386H28.8538H28.8689H28.884H28.8991H28.9143H28.9294H28.9445H28.9597H28.9748H28.9899H29.005H29.0202H29.0353H29.0504H29.0656H29.0807H29.0958H29.1109H29.1261H29.1412H29.1563H29.1714H29.1866H29.2017H29.2168H29.232H29.2471H29.2622H29.2773H29.2925H29.3076H29.3227H29.3378H29.353H29.3681H29.3832H29.3984H29.4135H29.4286H29.4437H29.4589H29.474H29.4891H29.5043H29.5194H29.5345H29.5496H29.5648H29.5799H29.595H29.6101H29.6253H29.6404H29.6555H29.6707H29.6858H29.7009H29.716H29.7312H29.7463H29.7614H29.7765H29.7917H29.8068H29.8219H29.8371H29.8522H29.8673H29.8824H29.8976H29.9127H29.9278H29.9429H29.9581H29.9732H29.9883H30.0035H30.0186H30.0337H30.0488H30.064H30.0791H30.0942H30.1094H30.1245H30.1396H30.1547H30.1699H30.185H30.2001H30.2152H30.2304H30.2455H30.2606H30.2758H30.2909H30.306H30.3211H30.3363H30.3514H30.3665H30.3816H30.3968H30.4119H30.427H30.4421H30.4573H30.4724H30.4875H30.5027H30.5178H30.5329H30.548H30.5632H30.5783H30.5934H30.6085H30.6237H30.6388H30.6539H30.6691H30.6842H30.6993H30.7144H30.7296H30.7447H30.7598H30.7749H30.7901H30.8052H30.8203H30.8355H30.8506H30.8657H30.8808H30.896H30.9111H30.9262H30.9413H30.9565H30.9716H30.9867H31.0018H31.017H31.0321H31.0472H31.0624H31.0775H31.0926H31.1077H31.1229H31.138H31.1531H31.1682H31.1834H31.1985H31.2136H31.2288H31.2439H31.259H31.2741H31.2893H31.3044H31.3195H31.3346H31.3498H31.3649H31.38H31.3951H31.4103H31.4254H31.4405H31.4557H31.4708H31.4859H31.501H31.5162H31.5313H31.5464H31.5615H31.5767H31.5918H31.6069H31.622H31.6372H31.6523H31.6674H31.6826H31.6977H31.7128H31.7279H31.7431H31.7582H31.7733H31.7884H31.8036H31.8187H31.8338H31.8489H31.8641H31.8792H31.8943H31.9094H31.9246H31.9397H31.9548H31.97H31.9851H32.0002H32.0153H32.0305H32.0456H32.0607H32.0758H32.091H32.1061H32.1212H32.1363H32.1515H32.1666H32.1817H32.1968H32.212H32.2271H32.2422H32.2574H32.2725H32.2876H32.3027H32.3179H32.333H32.3481H32.3632H32.3784H32.3935H32.4086H32.4237H32.4389H32.454H32.4691H32.4842H32.4994H32.5145H32.5296H32.5447H32.5599H32.575H32.5901H32.6052H32.6204H32.6355H32.6506H32.6658H32.6809H32.696H32.7111H32.7263H32.7414H32.7565H32.7716H32.7868H32.8019H32.817H32.8321H32.8473H32.8624H32.8775H32.8926H32.9078H32.9229H32.938H32.9531H32.9683H32.9834H32.9985H33.0136H33.0288H33.0439H33.059H33.0741H33.0893H33.1044H33.1195H33.1346H33.1498H33.1649H33.18H33.1951H33.2103H33.2254H33.2405H33.2556H33.2708H33.2859H33.301H33.3161H33.3313H33.3464H33.3615H33.3766H33.3918H33.4069H33.422H33.4372H33.4523H33.4674H33.4825H33.4977H33.5128H33.5279H33.543H33.5582H33.5733H33.5884H33.6035H33.6187H33.6338H33.6489H33.664H33.6792H33.6943H33.7094H33.7245H33.7397H33.7548H33.7699H33.785H33.8001H33.8153H33.8304H33.8455H33.8606H33.8758H33.8909H33.906H33.9211H33.9363H33.9514H33.9665H33.9816H33.9968H34.0119H34.027H34.0421H34.0573H34.0724H34.0875H34.1026H34.1178H34.1329H34.148H34.1631H34.1783H34.1934H34.2085H34.2236H34.2388H34.2539H34.269H34.2841H34.2993H34.3144H34.3295H34.3446H34.3598H34.3749H34.39H34.4051H34.4203H34.4354H34.4505H34.4656H34.4808H34.4959H34.511H34.5261H34.5412H34.5564H34.5715H34.5866H34.6017H34.6169H34.632H34.6471H34.6622H34.6774H34.6925H34.7076H34.7227H34.7379H34.753H34.7681H34.7832H34.7984H34.8135H34.8286H34.8437H34.8588H34.874H34.8891H34.9042H34.9193H34.9345H34.9496H34.9647H34.9798H34.995H35.0101H35.0252H35.0403H35.0555H35.0706H35.0857H35.1008H35.1159H35.1311H35.1462H35.1613H35.1764H35.1916H35.2067H35.2218H35.2369H35.2521H35.2672H35.2823H35.2974C35.319 21.4265 35.3412 21.4267 35.3638 21.4269C35.4403 21.4275 35.5218 21.4282 35.6017 21.422M19.4821 21.3206L19.4739 21.4203C19.3358 21.4089 19.2182 21.3574 19.1353 21.2642C19.0528 21.1716 19.0142 21.0484 19.0133 20.9109M19.0133 20.9109L19.0133 20.9109C19.0124 20.7709 19.053 20.6486 19.1355 20.556C19.2177 20.4638 19.3332 20.4104 19.4654 20.3923L19.4655 20.3923C19.538 20.3825 19.6156 20.384 19.683 20.3854C19.7051 20.3859 19.7261 20.3863 19.7455 20.3863H19.7759H19.8064H19.8369H19.8674H19.8979H19.9284H19.9588H19.9893H20.0198H20.0503H20.0808H20.1113H20.1417H20.1722H20.2027H20.2332H20.2637H20.2942H20.3246H20.3551H20.3856H20.4161H20.4466H20.4771H20.5075H20.538H20.5685H20.599H20.6295H20.66H20.6904H20.7209H20.7514H20.7819H20.8124H20.8429H20.8733H20.9038H20.9343H20.9648H20.9953H21.0258H21.0562H21.0867H21.1172H21.1477H21.1782H21.2087H21.2391H21.2696H21.3001H21.3306H21.3611H21.3916H21.422H21.4525H21.483H21.5135H21.544H21.5745H21.6049H21.6354H21.6659H21.6964H21.7269H21.7574H21.7879H21.8183H21.8488H21.8793H21.9098H21.9403H21.9708H22.0012H22.0317H22.0622H22.0927H22.1232H22.1537H22.1841H22.2146H22.2451H22.2756H22.3061H22.3366H22.367H22.3975H22.428H22.4585H22.489H22.5195H22.5499H22.5804H22.6109H22.6414H22.6719H22.7024H22.7328H22.7633H22.7938H22.8243H22.8548H22.8853H22.9157H22.9462H22.9767H23.0072H23.0377H23.0682H23.0986H23.1291H23.1596H23.1901H23.2206H23.2511H23.2815H23.312H23.3425H23.373H23.4035H23.434H23.4644H23.4949H23.5254H23.5559H23.5864H23.6169H23.6473H23.6778H23.7083H23.7388H23.7693H23.7998H23.8302H23.8607H23.8912H23.9217H23.9522H23.9827H24.0132H24.0436H24.0741H24.1046H24.1351H24.1656H24.1961H24.2265H24.257H24.2875H24.318H24.3485H24.379H24.4094H24.4399H24.4704H24.5009H24.5314H24.5619H24.5923H24.6228H24.6533H24.6838H24.7143H24.7448H24.7752H24.8057H24.8362H24.8667H24.8972H24.9277H24.9581H24.9886H25.0191H25.0496H25.0801H25.1106H25.1411H25.1715H25.202H25.2325H25.263H25.2935H25.324H25.3544H25.3849H25.4154H25.4459H25.4764H25.5069H25.5373H25.5678H25.5983H25.6288H25.6593H25.6898H25.7202H25.7507H25.7812H25.8117H25.8422H25.8727H25.9032H25.9336H25.9641H25.9946H26.0251H26.0556H26.0861H26.1165H26.147H26.1775H26.208H26.2385H26.269H26.2994H26.3299H26.3604H26.3909H26.4214H26.4519H26.4824H26.5128H26.5433H26.5738H26.6043H26.6348H26.6653H26.6957H26.7262H26.7567H26.7872H26.8177H26.8482H26.8786H26.9091H26.9396H26.9701H27.0006H27.0311H27.0616H27.092H27.1225H27.153H27.1835H27.214H27.2445H27.2749H27.3054H27.3359H27.3664H27.3969H27.4274H27.4579H27.4883H27.5188H27.5493H27.5798H27.6103H27.6408H27.6712H27.7017H27.7322H27.7627H27.7932H27.8237H27.8542H27.8846H27.9151H27.9456H27.9761H28.0066H28.0371H28.0675H28.098H28.1285H28.159H28.1895H28.22H28.2505H28.2809H28.3114H28.3419H28.3724H28.4029H28.4334H28.4638H28.4943H28.5248H28.5553H28.5858H28.6163H28.6468H28.6772H28.7077H28.7382H28.7687H28.7992H28.8297H28.8602H28.8906H28.9211H28.9516H28.9821H29.0126H29.0431H29.0735H29.104H29.1345H29.165H29.1955H29.226H29.2565H29.2869H29.3174H29.3479H29.3784H29.4089H29.4394H29.4699H29.5003H29.5308H29.5613H29.5918H29.6223H29.6528H29.6832H29.7137H29.7442H29.7747H29.8052H29.8357H29.8662H29.8966H29.9271H29.9576H29.9881H30.0186H30.0491H30.0796H30.11H30.1405H30.171H30.2015H30.232H30.2625H30.293H30.3234H30.3539H30.3844H30.4149H30.4454H30.4759H30.5064H30.5368H30.5673H30.5978H30.6283H30.6588H30.6893H30.7198H30.7502H30.7807H30.8112H30.8417H30.8722H30.9027H30.9332H30.9636H30.9941H31.0246H31.0551H31.0856H31.1161H31.1466H31.177H31.2075H31.238H31.2685H31.299H31.3295H31.36H31.3904H31.4209H31.4514H31.4819H31.5124H31.5429H31.5734H31.6038H31.6343H31.6648H31.6953H31.7258H31.7563H31.7868H31.8172H31.8477H31.8782H31.9087H31.9392H31.9697H32.0002H32.0307H32.0611H32.0916H32.1221H32.1526H32.1831H32.2136H32.2441H32.2745H32.305H32.3355H32.366H32.3965H32.427H32.4575H32.4879H32.5184H32.5489H32.5794H32.6099H32.6404H32.6709H32.7014H32.7318H32.7623H32.7928H32.8233H32.8538H32.8843H32.9148H32.9452H32.9757H33.0062H33.0367H33.0672H33.0977H33.1282H33.1587H33.1891H33.2196H33.2501H33.2806H33.3111H33.3416H33.3721H33.4025H33.433H33.4635H33.494H33.5245H33.555H33.5855H33.616H33.6464H33.6769H33.7074H33.7379H33.7684H33.7989H33.8294H33.8599H33.8903H33.9208H33.9513H33.9818H34.0123H34.0428H34.0733H34.1038H34.1342H34.1647H34.1952H34.2257H34.2562H34.2867H34.3172H34.3476H34.3781H34.4086H34.4391H34.4696H34.5001H34.5306H34.5611H34.5915H34.622H34.6525H34.683H34.7135H34.744H34.7745H34.805H34.8355H34.8659H34.8964H34.9269H34.9574H34.9879H35.0184H35.0489H35.0794H35.1098H35.1403H35.1708H35.2013H35.2318H35.2623H35.2928H35.3233H35.3537C35.3716 20.3863 35.3911 20.3859 35.4116 20.3855C35.4707 20.3842 35.5385 20.3828 35.6025 20.3904C35.7392 20.4062 35.8612 20.4556 35.9477 20.5499C36.035 20.6451 36.0749 20.7737 36.0708 20.9247M19.0133 20.9109L36.0708 20.9247M19.0133 20.9109L35.6017 21.422M36.0708 20.9247C36.0671 21.0662 36.0251 21.1879 35.9394 21.2772C35.8538 21.3664 35.7356 21.4118 35.6017 21.422M36.0708 20.9247L35.6017 21.422" fill="black" stroke="black" stroke-width="0.2"/>
<path d="M19.4723 25.6359L19.4723 25.6359C19.3332 25.6244 19.2154 25.5715 19.133 25.4774C19.0512 25.384 19.0133 25.2603 19.0133 25.1235C19.0133 24.9847 19.0532 24.8621 19.1355 24.7692C19.2177 24.6763 19.3339 24.6228 19.4685 24.6065L19.4687 24.6064C19.5341 24.5987 19.6027 24.5998 19.6628 24.6008C19.6821 24.6012 19.7005 24.6015 19.7177 24.6015H19.7483H19.7789H19.8095H19.8401H19.8706H19.9012H19.9318H19.9624H19.993H20.0236H20.0542H20.0848H20.1154H20.146H20.1766H20.2072H20.2378H20.2684H20.299H20.3296H20.3602H20.3908H20.4214H20.452H20.4826H20.5132H20.5438H20.5744H20.605H20.6356H20.6662H20.6968H20.7274H20.758H20.7886H20.8192H20.8498H20.8804H20.911H20.9416H20.9722H21.0028H21.0334H21.064H21.0946H21.1252H21.1558H21.1864H21.217H21.2476H21.2782H21.3088H21.3394H21.37H21.4006H21.4312H21.4618H21.4923H21.5229H21.5535H21.5841H21.6147H21.6453H21.6759H21.7065H21.7371H21.7677H21.7983H21.8289H21.8595H21.8901H21.9207H21.9513H21.9819H22.0125H22.0431H22.0737H22.1043H22.1349H22.1655H22.1961H22.2267H22.2573H22.2879H22.3185H22.3491H22.3797H22.4103H22.4409H22.4715H22.5021H22.5327H22.5633H22.5939H22.6245H22.6551H22.6857H22.7163H22.7469H22.7775H22.8081H22.8387H22.8693H22.8999H22.9305H22.9611H22.9917H23.0223H23.0529H23.0834H23.114H23.1446H23.1752H23.2058H23.2364H23.267H23.2976H23.3282H23.3588H23.3894H23.42H23.4506H23.4812H23.5118H23.5424H23.573H23.6036H23.6342H23.6648H23.6954H23.726H23.7566H23.7872H23.8178H23.8484H23.879H23.9096H23.9402H23.9708H24.0014H24.032H24.0626H24.0932H24.1238H24.1544H24.185H24.2156H24.2462H24.2768H24.3074H24.338H24.3686H24.3992H24.4298H24.4604H24.491H24.5216H24.5522H24.5828H24.6134H24.644H24.6746H24.7051H24.7357H24.7663H24.7969H24.8275H24.8581H24.8887H24.9193H24.9499H24.9805H25.0111H25.0417H25.0723H25.1029H25.1335H25.1641H25.1947H25.2253H25.2559H25.2865H25.3171H25.3477H25.3783H25.4089H25.4395H25.4701H25.5007H25.5313H25.5619H25.5925H25.6231H25.6537H25.6843H25.7149H25.7455H25.7761H25.8067H25.8373H25.8679H25.8985H25.9291H25.9597H25.9903H26.0209H26.0515H26.0821H26.1127H26.1433H26.1739H26.2045H26.2351H26.2657H26.2962H26.3268H26.3574H26.388H26.4186H26.4492H26.4798H26.5104H26.541H26.5716H26.6022H26.6328H26.6634H26.694H26.7246H26.7552H26.7858H26.8164H26.847H26.8776H26.9082H26.9388H26.9694H27H27.0306H27.0612H27.0918H27.1224H27.153H27.1836H27.2142H27.2448H27.2754H27.306H27.3366H27.3672H27.3978H27.4284H27.459H27.4896H27.5202H27.5508H27.5814H27.612H27.6426H27.6732H27.7038H27.7344H27.765H27.7956H27.8262H27.8568H27.8874H27.9179H27.9485H27.9791H28.0097H28.0403H28.0709H28.1015H28.1321H28.1627H28.1933H28.2239H28.2545H28.2851H28.3157H28.3463H28.3769H28.4075H28.4381H28.4687H28.4993H28.5299H28.5605H28.5911H28.6217H28.6523H28.6829H28.7135H28.7441H28.7747H28.8053H28.8359H28.8665H28.8971H28.9277H28.9583H28.9889H29.0195H29.0501H29.0807H29.1113H29.1419H29.1725H29.2031H29.2337H29.2643H29.2949H29.3255H29.3561H29.3867H29.4173H29.4479H29.4785H29.509H29.5396H29.5702H29.6008H29.6314H29.662H29.6926H29.7232H29.7538H29.7844H29.815H29.8456H29.8762H29.9068H29.9374H29.968H29.9986H30.0292H30.0598H30.0904H30.121H30.1516H30.1822H30.2128H30.2434H30.274H30.3046H30.3352H30.3658H30.3964H30.427H30.4576H30.4882H30.5188H30.5494H30.58H30.6106H30.6412H30.6718H30.7024H30.733H30.7636H30.7942H30.8248H30.8554H30.886H30.9166H30.9472H30.9778H31.0084H31.039H31.0696H31.1002H31.1307H31.1613H31.1919H31.2225H31.2531H31.2837H31.3143H31.3449H31.3755H31.4061H31.4367H31.4673H31.4979H31.5285H31.5591H31.5897H31.6203H31.6509H31.6815H31.7121H31.7427H31.7733H31.8039H31.8345H31.8651H31.8957H31.9263H31.9569H31.9875H32.0181H32.0487H32.0793H32.1099H32.1405H32.1711H32.2017H32.2323H32.2629H32.2935H32.3241H32.3547H32.3853H32.4159H32.4465H32.4771H32.5077H32.5383H32.5689H32.5995H32.6301H32.6607H32.6913H32.7218H32.7524H32.783H32.8136H32.8442H32.8748H32.9054H32.936H32.9666H32.9972H33.0278H33.0584H33.089H33.1196H33.1502H33.1808H33.2114H33.242H33.2726H33.3032H33.3338H33.3644H33.395H33.4256H33.4562H33.4868H33.5174H33.548H33.5786H33.6092H33.6398H33.6704H33.701H33.7316H33.7622H33.7928H33.8234H33.854H33.8846H33.9152H33.9458H33.9764H34.007H34.0376H34.0682H34.0988H34.1294H34.16H34.1906H34.2212H34.2518H34.2824H34.313H34.3435H34.3741H34.4047H34.4353H34.4659H34.4965H34.5271H34.5577H34.5883H34.6189H34.6495H34.6801H34.7107H34.7413H34.7719H34.8025H34.8331H34.8637H34.8943H34.9249H34.9555H34.9861H35.0167H35.0473H35.0779H35.1085H35.1391H35.1697H35.2003H35.2309H35.2615H35.2921H35.3227H35.3533H35.3839C35.4001 24.6015 35.4182 24.601 35.4377 24.6005C35.4978 24.5989 35.5704 24.597 35.6372 24.6079L35.6372 24.6079C35.7687 24.6294 35.8821 24.6845 35.961 24.7796C36.0399 24.8749 36.0749 24.999 36.0708 25.1408L36.0708 25.141C36.0667 25.2726 36.0292 25.3899 35.9513 25.4789C35.8729 25.5686 35.7626 25.6194 35.633 25.6339L19.4723 25.6359ZM19.4723 25.6359L19.4728 25.6359M19.4723 25.6359L19.4728 25.6359M19.4728 25.6359C19.556 25.6424 19.6404 25.6419 19.7201 25.6415C19.7394 25.6414 19.7585 25.6413 19.7771 25.6413H19.7923M19.4728 25.6359L19.7923 25.6413M19.7923 25.6413H19.8074M19.7923 25.6413H19.8074M19.8074 25.6413H19.8225M19.8074 25.6413H19.8225M19.8225 25.6413H19.8377M19.8225 25.6413H19.8377M19.8377 25.6413H19.8528M19.8377 25.6413H19.8528M19.8528 25.6413H19.8679M19.8528 25.6413H19.8679M19.8679 25.6413H19.883M19.8679 25.6413H19.883M19.883 25.6413H19.8982M19.883 25.6413H19.8982M19.8982 25.6413H19.9133M19.8982 25.6413H19.9133M19.9133 25.6413H19.9284M19.9133 25.6413H19.9284M19.9284 25.6413H19.9435M19.9284 25.6413H19.9435M19.9435 25.6413H19.9587M19.9435 25.6413H19.9587M19.9587 25.6413H19.9738M19.9587 25.6413H19.9738M19.9738 25.6413H19.9889M19.9738 25.6413H19.9889M19.9889 25.6413H20.004M19.9889 25.6413H20.004M20.004 25.6413H20.0192M20.004 25.6413H20.0192M20.0192 25.6413H20.0343M20.0192 25.6413H20.0343M20.0343 25.6413H20.0494M20.0343 25.6413H20.0494M20.0494 25.6413H20.0646M20.0494 25.6413H20.0646M20.0646 25.6413H20.0797M20.0646 25.6413H20.0797M20.0797 25.6413H20.0948M20.0797 25.6413H20.0948M20.0948 25.6413H20.1099M20.0948 25.6413H20.1099M20.1099 25.6413H20.1251M20.1099 25.6413H20.1251M20.1251 25.6413H20.1402M20.1251 25.6413H20.1402M20.1402 25.6413H20.1553M20.1402 25.6413H20.1553M20.1553 25.6413H20.1704M20.1553 25.6413H20.1704M20.1704 25.6413H20.1856M20.1704 25.6413H20.1856M20.1856 25.6413H20.2007M20.1856 25.6413H20.2007M20.2007 25.6413H20.2158M20.2007 25.6413H20.2158M20.2158 25.6413H20.2309M20.2158 25.6413H20.2309M20.2309 25.6413H20.2461M20.2309 25.6413H20.2461M20.2461 25.6413H20.2612M20.2461 25.6413H20.2612M20.2612 25.6413H20.2763M20.2612 25.6413H20.2763M20.2763 25.6413H20.2915M20.2763 25.6413H20.2915M20.2915 25.6413H20.3066M20.2915 25.6413H20.3066M20.3066 25.6413H20.3217M20.3066 25.6413H20.3217M20.3217 25.6413H20.3368M20.3217 25.6413H20.3368M20.3368 25.6413H20.352M20.3368 25.6413H20.352M20.352 25.6413H20.3671M20.352 25.6413H20.3671M20.3671 25.6413H20.3822M20.3671 25.6413H20.3822M20.3822 25.6413H20.3973M20.3822 25.6413H20.3973M20.3973 25.6413H20.4125M20.3973 25.6413H20.4125M20.4125 25.6413H20.4276M20.4125 25.6413H20.4276M20.4276 25.6413H20.4427M20.4276 25.6413H20.4427M20.4427 25.6413H20.4578M20.4427 25.6413H20.4578M20.4578 25.6413H20.473M20.4578 25.6413H20.473M20.473 25.6413H20.4881M20.473 25.6413H20.4881M20.4881 25.6413H20.5032M20.4881 25.6413H20.5032M20.5032 25.6413H20.5184M20.5032 25.6413H20.5184M20.5184 25.6413H20.5335M20.5184 25.6413H20.5335M20.5335 25.6413H20.5486M20.5335 25.6413H20.5486M20.5486 25.6413H20.5637M20.5486 25.6413H20.5637M20.5637 25.6413H20.5789M20.5637 25.6413H20.5789M20.5789 25.6413H20.594M20.5789 25.6413H20.594M20.594 25.6413H20.6091M20.594 25.6413H20.6091M20.6091 25.6413H20.6242M20.6091 25.6413H20.6242M20.6242 25.6413H20.6394M20.6242 25.6413H20.6394M20.6394 25.6413H20.6545M20.6394 25.6413H20.6545M20.6545 25.6413H20.6696M20.6545 25.6413H20.6696M20.6696 25.6413H20.6847M20.6696 25.6413H20.6847M20.6847 25.6413H20.6999M20.6847 25.6413H20.6999M20.6999 25.6413H20.715M20.6999 25.6413H20.715M20.715 25.6413H20.7301M20.715 25.6413H20.7301M20.7301 25.6413H20.7452M20.7301 25.6413H20.7452M20.7452 25.6413H20.7604M20.7452 25.6413H20.7604M20.7604 25.6413H20.7755M20.7604 25.6413H20.7755M20.7755 25.6413H20.7906M20.7755 25.6413H20.7906M20.7906 25.6413H20.8057M20.7906 25.6413H20.8057M20.8057 25.6413H20.8209M20.8057 25.6413H20.8209M20.8209 25.6413H20.836M20.8209 25.6413H20.836M20.836 25.6413H20.8511M20.836 25.6413H20.8511M20.8511 25.6413H20.8663M20.8511 25.6413H20.8663M20.8663 25.6413H20.8814M20.8663 25.6413H20.8814M20.8814 25.6413H20.8965M20.8814 25.6413H20.8965M20.8965 25.6413H20.9116M20.8965 25.6413H20.9116M20.9116 25.6413H20.9268M20.9116 25.6413H20.9268M20.9268 25.6413H20.9419M20.9268 25.6413H20.9419M20.9419 25.6413H20.957M20.9419 25.6413H20.957M20.957 25.6413H20.9721M20.957 25.6413H20.9721M20.9721 25.6413H20.9873M20.9721 25.6413H20.9873M20.9873 25.6413H21.0024M20.9873 25.6413H21.0024M21.0024 25.6413H21.0175M21.0024 25.6413H21.0175M21.0175 25.6413H21.0326M21.0175 25.6413H21.0326M21.0326 25.6413H21.0478M21.0326 25.6413H21.0478M21.0478 25.6413H21.0629M21.0478 25.6413H21.0629M21.0629 25.6413H21.078M21.0629 25.6413H21.078M21.078 25.6413H21.0931M21.078 25.6413H21.0931M21.0931 25.6413H21.1083M21.0931 25.6413H21.1083M21.1083 25.6413H21.1234M21.1083 25.6413H21.1234M21.1234 25.6413H21.1385M21.1234 25.6413H21.1385M21.1385 25.6413H21.1536M21.1385 25.6413H21.1536M21.1536 25.6413H21.1688M21.1536 25.6413H21.1688M21.1688 25.6413H21.1839M21.1688 25.6413H21.1839M21.1839 25.6413H21.199M21.1839 25.6413H21.199M21.199 25.6413H21.2141M21.199 25.6413H21.2141M21.2141 25.6413H21.2293M21.2141 25.6413H21.2293M21.2293 25.6413H21.2444M21.2293 25.6413H21.2444M21.2444 25.6413H21.2595M21.2444 25.6413H21.2595M21.2595 25.6413H21.2746M21.2595 25.6413H21.2746M21.2746 25.6413H21.2898M21.2746 25.6413H21.2898M21.2898 25.6413H21.3049M21.2898 25.6413H21.3049M21.3049 25.6413H21.32M21.3049 25.6413H21.32M21.32 25.6413H21.3352M21.32 25.6413H21.3352M21.3352 25.6413H21.3503M21.3352 25.6413H21.3503M21.3503 25.6413H21.3654M21.3503 25.6413H21.3654M21.3654 25.6413H21.3805M21.3654 25.6413H21.3805M21.3805 25.6413H21.3957M21.3805 25.6413H21.3957M21.3957 25.6413H21.4108M21.3957 25.6413H21.4108M21.4108 25.6413H21.4259M21.4108 25.6413H21.4259M21.4259 25.6413H21.441M21.4259 25.6413H21.441M21.441 25.6413H21.4562M21.441 25.6413H21.4562M21.4562 25.6413H21.4713M21.4562 25.6413H21.4713M21.4713 25.6413H21.4864M21.4713 25.6413H21.4864M21.4864 25.6413H21.5015M21.4864 25.6413H21.5015M21.5015 25.6413H21.5167M21.5015 25.6413H21.5167M21.5167 25.6413H21.5318M21.5167 25.6413H21.5318M21.5318 25.6413H21.5469M21.5318 25.6413H21.5469M21.5469 25.6413H21.562M21.5469 25.6413H21.562M21.562 25.6413H21.5772M21.562 25.6413H21.5772M21.5772 25.6413H21.5923M21.5772 25.6413H21.5923M21.5923 25.6413H21.6074M21.5923 25.6413H21.6074M21.6074 25.6413H21.6225M21.6074 25.6413H21.6225M21.6225 25.6413H21.6377M21.6225 25.6413H21.6377M21.6377 25.6413H21.6528M21.6377 25.6413H21.6528M21.6528 25.6413H21.6679M21.6528 25.6413H21.6679M21.6679 25.6413H21.683M21.6679 25.6413H21.683M21.683 25.6413H21.6982M21.683 25.6413H21.6982M21.6982 25.6413H21.7133M21.6982 25.6413H21.7133M21.7133 25.6413H21.7284M21.7133 25.6413H21.7284M21.7284 25.6413H21.7435M21.7284 25.6413H21.7435M21.7435 25.6413H21.7587M21.7435 25.6413H21.7587M21.7587 25.6413H21.7738M21.7587 25.6413H21.7738M21.7738 25.6413H21.7889M21.7738 25.6413H21.7889M21.7889 25.6413H21.804M21.7889 25.6413H21.804M21.804 25.6413H21.8192M21.804 25.6413H21.8192M21.8192 25.6413H21.8343M21.8192 25.6413H21.8343M21.8343 25.6413H21.8494M21.8343 25.6413H21.8494M21.8494 25.6413H21.8645M21.8494 25.6413H21.8645M21.8645 25.6413H21.8797M21.8645 25.6413H21.8797M21.8797 25.6413H21.8948M21.8797 25.6413H21.8948M21.8948 25.6413H21.9099M21.8948 25.6413H21.9099M21.9099 25.6413H21.925M21.9099 25.6413H21.925M21.925 25.6413H21.9402M21.925 25.6413H21.9402M21.9402 25.6413H21.9553M21.9402 25.6413H21.9553M21.9553 25.6413H21.9704M21.9553 25.6413H21.9704M21.9704 25.6413H21.9855M21.9704 25.6413H21.9855M21.9855 25.6413H22.0007M21.9855 25.6413H22.0007M22.0007 25.6413H22.0158M22.0007 25.6413H22.0158M22.0158 25.6413H22.0309M22.0158 25.6413H22.0309M22.0309 25.6413H22.046M22.0309 25.6413H22.046M22.046 25.6413H22.0612M22.046 25.6413H22.0612M22.0612 25.6413H22.0763M22.0612 25.6413H22.0763M22.0763 25.6413H22.0914M22.0763 25.6413H22.0914M22.0914 25.6413H22.1065M22.0914 25.6413H22.1065M22.1065 25.6413H22.1217M22.1065 25.6413H22.1217M22.1217 25.6413H22.1368M22.1217 25.6413H22.1368M22.1368 25.6413H22.1519M22.1368 25.6413H22.1519M22.1519 25.6413H22.167M22.1519 25.6413H22.167M22.167 25.6413H22.1822M22.167 25.6413H22.1822M22.1822 25.6413H22.1973M22.1822 25.6413H22.1973M22.1973 25.6413H22.2124M22.1973 25.6413H22.2124M22.2124 25.6413H22.2275M22.2124 25.6413H22.2275M22.2275 25.6413H22.2427M22.2275 25.6413H22.2427M22.2427 25.6413H22.2578M22.2427 25.6413H22.2578M22.2578 25.6413H22.2729M22.2578 25.6413H22.2729M22.2729 25.6413H22.288M22.2729 25.6413H22.288M22.288 25.6413H22.3032M22.288 25.6413H22.3032M22.3032 25.6413H22.3183M22.3032 25.6413H22.3183M22.3183 25.6413H22.3334M22.3183 25.6413H22.3334M22.3334 25.6413H22.3485M22.3334 25.6413H22.3485M22.3485 25.6413H22.3637M22.3485 25.6413H22.3637M22.3637 25.6413H22.3788M22.3637 25.6413H22.3788M22.3788 25.6413H22.3939M22.3788 25.6413H22.3939M22.3939 25.6413H22.409M22.3939 25.6413H22.409M22.409 25.6413H22.4242M22.409 25.6413H22.4242M22.4242 25.6413H22.4393M22.4242 25.6413H22.4393M22.4393 25.6413H22.4544M22.4393 25.6413H22.4544M22.4544 25.6413H22.4695M22.4544 25.6413H22.4695M22.4695 25.6413H22.4847M22.4695 25.6413H22.4847M22.4847 25.6413H22.4998M22.4847 25.6413H22.4998M22.4998 25.6413H22.5149M22.4998 25.6413H22.5149M22.5149 25.6413H22.53M22.5149 25.6413H22.53M22.53 25.6413H22.5452M22.53 25.6413H22.5452M22.5452 25.6413H22.5603M22.5452 25.6413H22.5603M22.5603 25.6413H22.5754M22.5603 25.6413H22.5754M22.5754 25.6413H22.5905M22.5754 25.6413H22.5905M22.5905 25.6413H22.6057M22.5905 25.6413H22.6057M22.6057 25.6413H22.6208M22.6057 25.6413H22.6208M22.6208 25.6413H22.6359M22.6208 25.6413H22.6359M22.6359 25.6413H22.651M22.6359 25.6413H22.651M22.651 25.6413H22.6662M22.651 25.6413H22.6662M22.6662 25.6413H22.6813M22.6662 25.6413H22.6813M22.6813 25.6413H22.6964M22.6813 25.6413H22.6964M22.6964 25.6413H22.7115M22.6964 25.6413H22.7115M22.7115 25.6413H22.7267M22.7115 25.6413H22.7267M22.7267 25.6413H22.7418M22.7267 25.6413H22.7418M22.7418 25.6413H22.7569M22.7418 25.6413H22.7569M22.7569 25.6413H22.772M22.7569 25.6413H22.772M22.772 25.6413H22.7872M22.772 25.6413H22.7872M22.7872 25.6413H22.8023M22.7872 25.6413H22.8023M22.8023 25.6413H22.8174M22.8023 25.6413H22.8174M22.8174 25.6413H22.8325M22.8174 25.6413H22.8325M22.8325 25.6413H22.8477M22.8325 25.6413H22.8477M22.8477 25.6413H22.8628M22.8477 25.6413H22.8628M22.8628 25.6413H22.8779M22.8628 25.6413H22.8779M22.8779 25.6413H22.893M22.8779 25.6413H22.893M22.893 25.6413H22.9082M22.893 25.6413H22.9082M22.9082 25.6413H22.9233M22.9082 25.6413H22.9233M22.9233 25.6413H22.9384M22.9233 25.6413H22.9384M22.9384 25.6413H22.9535M22.9384 25.6413H22.9535M22.9535 25.6413H22.9687M22.9535 25.6413H22.9687M22.9687 25.6413H22.9838M22.9687 25.6413H22.9838M22.9838 25.6413H22.9989M22.9838 25.6413H22.9989M22.9989 25.6413H23.014M22.9989 25.6413H23.014M23.014 25.6413H23.0292M23.014 25.6413H23.0292M23.0292 25.6413H23.0443M23.0292 25.6413H23.0443M23.0443 25.6413H23.0594M23.0443 25.6413H23.0594M23.0594 25.6413H23.0745M23.0594 25.6413H23.0745M23.0745 25.6413H23.0897M23.0745 25.6413H23.0897M23.0897 25.6413H23.1048M23.0897 25.6413H23.1048M23.1048 25.6413H23.1199M23.1048 25.6413H23.1199M23.1199 25.6413H23.135M23.1199 25.6413H23.135M23.135 25.6413H23.1502M23.135 25.6413H23.1502M23.1502 25.6413H23.1653M23.1502 25.6413H23.1653M23.1653 25.6413H23.1804M23.1653 25.6413H23.1804M23.1804 25.6413H23.1955M23.1804 25.6413H23.1955M23.1955 25.6413H23.2107M23.1955 25.6413H23.2107M23.2107 25.6413H23.2258M23.2107 25.6413H23.2258M23.2258 25.6413H23.2409M23.2258 25.6413H23.2409M23.2409 25.6413H23.256M23.2409 25.6413H23.256M23.256 25.6413H23.2712M23.256 25.6413H23.2712M23.2712 25.6413H23.2863M23.2712 25.6413H23.2863M23.2863 25.6413H23.3014M23.2863 25.6413H23.3014M23.3014 25.6413H23.3165M23.3014 25.6413H23.3165M23.3165 25.6413H23.3317M23.3165 25.6413H23.3317M23.3317 25.6413H23.3468M23.3317 25.6413H23.3468M23.3468 25.6413H23.3619M23.3468 25.6413H23.3619M23.3619 25.6413H23.377M23.3619 25.6413H23.377M23.377 25.6413H23.3922M23.377 25.6413H23.3922M23.3922 25.6413H23.4073M23.3922 25.6413H23.4073M23.4073 25.6413H23.4224M23.4073 25.6413H23.4224M23.4224 25.6413H23.4375M23.4224 25.6413H23.4375M23.4375 25.6413H23.4527M23.4375 25.6413H23.4527M23.4527 25.6413H23.4678M23.4527 25.6413H23.4678M23.4678 25.6413H23.4829M23.4678 25.6413H23.4829M23.4829 25.6413H23.498M23.4829 25.6413H23.498M23.498 25.6413H23.5132M23.498 25.6413H23.5132M23.5132 25.6413H23.5283M23.5132 25.6413H23.5283M23.5283 25.6413H23.5434M23.5283 25.6413H23.5434M23.5434 25.6413H23.5585M23.5434 25.6413H23.5585M23.5585 25.6413H23.5737M23.5585 25.6413H23.5737M23.5737 25.6413H23.5888M23.5737 25.6413H23.5888M23.5888 25.6413H23.6039M23.5888 25.6413H23.6039M23.6039 25.6413H23.619M23.6039 25.6413H23.619M23.619 25.6413H23.6342M23.619 25.6413H23.6342M23.6342 25.6413H23.6493M23.6342 25.6413H23.6493M23.6493 25.6413H23.6644M23.6493 25.6413H23.6644M23.6644 25.6413H23.6795M23.6644 25.6413H23.6795M23.6795 25.6413H23.6947M23.6795 25.6413H23.6947M23.6947 25.6413H23.7098M23.6947 25.6413H23.7098M23.7098 25.6413H23.7249M23.7098 25.6413H23.7249M23.7249 25.6413H23.74M23.7249 25.6413H23.74M23.74 25.6413H23.7552M23.74 25.6413H23.7552M23.7552 25.6413H23.7703M23.7552 25.6413H23.7703M23.7703 25.6413H23.7854M23.7703 25.6413H23.7854M23.7854 25.6413H23.8005M23.7854 25.6413H23.8005M23.8005 25.6413H23.8157M23.8005 25.6413H23.8157M23.8157 25.6413H23.8308M23.8157 25.6413H23.8308M23.8308 25.6413H23.8459M23.8308 25.6413H23.8459M23.8459 25.6413H23.861M23.8459 25.6413H23.861M23.861 25.6413H23.8762M23.861 25.6413H23.8762M23.8762 25.6413H23.8913M23.8762 25.6413H23.8913M23.8913 25.6413H23.9064M23.8913 25.6413H23.9064M23.9064 25.6413H23.9215M23.9064 25.6413H23.9215M23.9215 25.6413H23.9367M23.9215 25.6413H23.9367M23.9367 25.6413H23.9518M23.9367 25.6413H23.9518M23.9518 25.6413H23.9669M23.9518 25.6413H23.9669M23.9669 25.6413H23.982M23.9669 25.6413H23.982M23.982 25.6413H23.9972M23.982 25.6413H23.9972M23.9972 25.6413H24.0123M23.9972 25.6413H24.0123M24.0123 25.6413H24.0274M24.0123 25.6413H24.0274M24.0274 25.6413H24.0425M24.0274 25.6413H24.0425M24.0425 25.6413H24.0577M24.0425 25.6413H24.0577M24.0577 25.6413H24.0728M24.0577 25.6413H24.0728M24.0728 25.6413H24.0879M24.0728 25.6413H24.0879M24.0879 25.6413H24.103M24.0879 25.6413H24.103M24.103 25.6413H24.1182M24.103 25.6413H24.1182M24.1182 25.6413H24.1333M24.1182 25.6413H24.1333M24.1333 25.6413H24.1484M24.1333 25.6413H24.1484M24.1484 25.6413H24.1635M24.1484 25.6413H24.1635M24.1635 25.6413H24.1787M24.1635 25.6413H24.1787M24.1787 25.6413H24.1938M24.1787 25.6413H24.1938M24.1938 25.6413H24.2089M24.1938 25.6413H24.2089M24.2089 25.6413H24.224M24.2089 25.6413H24.224M24.224 25.6413H24.2392M24.224 25.6413H24.2392M24.2392 25.6413H24.2543M24.2392 25.6413H24.2543M24.2543 25.6413H24.2694M24.2543 25.6413H24.2694M24.2694 25.6413H24.2845M24.2694 25.6413H24.2845M24.2845 25.6413H24.2997M24.2845 25.6413H24.2997M24.2997 25.6413H24.3148M24.2997 25.6413H24.3148M24.3148 25.6413H24.3299M24.3148 25.6413H24.3299M24.3299 25.6413H24.345M24.3299 25.6413H24.345M24.345 25.6413H24.3602M24.345 25.6413H24.3602M24.3602 25.6413H24.3753M24.3602 25.6413H24.3753M24.3753 25.6413H24.3904M24.3753 25.6413H24.3904M24.3904 25.6413H24.4055M24.3904 25.6413H24.4055M24.4055 25.6413H24.4206M24.4055 25.6413H24.4206M24.4206 25.6413H24.4358M24.4206 25.6413H24.4358M24.4358 25.6413H24.4509M24.4358 25.6413H24.4509M24.4509 25.6413H24.466M24.4509 25.6413H24.466M24.466 25.6413H24.4811M24.466 25.6413H24.4811M24.4811 25.6413H24.4963M24.4811 25.6413H24.4963M24.4963 25.6413H24.5114M24.4963 25.6413H24.5114M24.5114 25.6413H24.5265M24.5114 25.6413H24.5265M24.5265 25.6413H24.5416M24.5265 25.6413H24.5416M24.5416 25.6413H24.5568M24.5416 25.6413H24.5568M24.5568 25.6413H24.5719M24.5568 25.6413H24.5719M24.5719 25.6413H24.587M24.5719 25.6413H24.587M24.587 25.6413H24.6021M24.587 25.6413H24.6021M24.6021 25.6413H24.6173M24.6021 25.6413H24.6173M24.6173 25.6413H24.6324M24.6173 25.6413H24.6324M24.6324 25.6413H24.6475M24.6324 25.6413H24.6475M24.6475 25.6413H24.6626M24.6475 25.6413H24.6626M24.6626 25.6413H24.6778M24.6626 25.6413H24.6778M24.6778 25.6413H24.6929M24.6778 25.6413H24.6929M24.6929 25.6413H24.708M24.6929 25.6413H24.708M24.708 25.6413H24.7231M24.708 25.6413H24.7231M24.7231 25.6413H24.7383M24.7231 25.6413H24.7383M24.7383 25.6413H24.7534M24.7383 25.6413H24.7534M24.7534 25.6413H24.7685M24.7534 25.6413H24.7685M24.7685 25.6413H24.7836M24.7685 25.6413H24.7836M24.7836 25.6413H24.7988M24.7836 25.6413H24.7988M24.7988 25.6413H24.8139M24.7988 25.6413H24.8139M24.8139 25.6413H24.829M24.8139 25.6413H24.829M24.829 25.6413H24.8441M24.829 25.6413H24.8441M24.8441 25.6413H24.8593M24.8441 25.6413H24.8593M24.8593 25.6413H24.8744M24.8593 25.6413H24.8744M24.8744 25.6413H24.8895M24.8744 25.6413H24.8895M24.8895 25.6413H24.9046M24.8895 25.6413H24.9046M24.9046 25.6413H24.9198M24.9046 25.6413H24.9198M24.9198 25.6413H24.9349M24.9198 25.6413H24.9349M24.9349 25.6413H24.95M24.9349 25.6413H24.95M24.95 25.6413H24.9651M24.95 25.6413H24.9651M24.9651 25.6413H24.9803M24.9651 25.6413H24.9803M24.9803 25.6413H24.9954M24.9803 25.6413H24.9954M24.9954 25.6413H25.0105M24.9954 25.6413H25.0105M25.0105 25.6413H25.0256M25.0105 25.6413H25.0256M25.0256 25.6413H25.0408M25.0256 25.6413H25.0408M25.0408 25.6413H25.0559M25.0408 25.6413H25.0559M25.0559 25.6413H25.071M25.0559 25.6413H25.071M25.071 25.6413H25.0861M25.071 25.6413H25.0861M25.0861 25.6413H25.1013M25.0861 25.6413H25.1013M25.1013 25.6413H25.1164M25.1013 25.6413H25.1164M25.1164 25.6413H25.1315M25.1164 25.6413H25.1315M25.1315 25.6413H25.1466M25.1315 25.6413H25.1466M25.1466 25.6413H25.1618M25.1466 25.6413H25.1618M25.1618 25.6413H25.1769M25.1618 25.6413H25.1769M25.1769 25.6413H25.192M25.1769 25.6413H25.192M25.192 25.6413H25.2071M25.192 25.6413H25.2071M25.2071 25.6413H25.2223M25.2071 25.6413H25.2223M25.2223 25.6413H25.2374M25.2223 25.6413H25.2374M25.2374 25.6413H25.2525M25.2374 25.6413H25.2525M25.2525 25.6413H25.2676M25.2525 25.6413H25.2676M25.2676 25.6413H25.2828M25.2676 25.6413H25.2828M25.2828 25.6413H25.2979M25.2828 25.6413H25.2979M25.2979 25.6413H25.313M25.2979 25.6413H25.313M25.313 25.6413H25.3282M25.313 25.6413H25.3282M25.3282 25.6413H25.3433M25.3282 25.6413H25.3433M25.3433 25.6413H25.3584M25.3433 25.6413H25.3584M25.3584 25.6413H25.3735M25.3584 25.6413H25.3735M25.3735 25.6413H25.3887M25.3735 25.6413H25.3887M25.3887 25.6413H25.4038M25.3887 25.6413H25.4038M25.4038 25.6413H25.4189M25.4038 25.6413H25.4189M25.4189 25.6413H25.434M25.4189 25.6413H25.434M25.434 25.6413H25.4492M25.434 25.6413H25.4492M25.4492 25.6413H25.4643M25.4492 25.6413H25.4643M25.4643 25.6413H25.4794M25.4643 25.6413H25.4794M25.4794 25.6413H25.4945M25.4794 25.6413H25.4945M25.4945 25.6413H25.5097M25.4945 25.6413H25.5097M25.5097 25.6413H25.5248M25.5097 25.6413H25.5248M25.5248 25.6413H25.5399M25.5248 25.6413H25.5399M25.5399 25.6413H25.555M25.5399 25.6413H25.555M25.555 25.6413H25.5702M25.555 25.6413H25.5702M25.5702 25.6413H25.5853M25.5702 25.6413H25.5853M25.5853 25.6413H25.6004M25.5853 25.6413H25.6004M25.6004 25.6413H25.6155M25.6004 25.6413H25.6155M25.6155 25.6413H25.6307M25.6155 25.6413H25.6307M25.6307 25.6413H25.6458M25.6307 25.6413H25.6458M25.6458 25.6413H25.6609M25.6458 25.6413H25.6609M25.6609 25.6413H25.676M25.6609 25.6413H25.676M25.676 25.6413H25.6912M25.676 25.6413H25.6912M25.6912 25.6413H25.7063M25.6912 25.6413H25.7063M25.7063 25.6413H25.7214M25.7063 25.6413H25.7214M25.7214 25.6413H25.7365M25.7214 25.6413H25.7365M25.7365 25.6413H25.7517M25.7365 25.6413H25.7517M25.7517 25.6413H25.7668M25.7517 25.6413H25.7668M25.7668 25.6413H25.7819M25.7668 25.6413H25.7819M25.7819 25.6413H25.797M25.7819 25.6413H25.797M25.797 25.6413H25.8122M25.797 25.6413H25.8122M25.8122 25.6413H25.8273M25.8122 25.6413H25.8273M25.8273 25.6413H25.8424M25.8273 25.6413H25.8424M25.8424 25.6413H25.8575M25.8424 25.6413H25.8575M25.8575 25.6413H25.8727M25.8575 25.6413H25.8727M25.8727 25.6413H25.8878M25.8727 25.6413H25.8878M25.8878 25.6413H25.9029M25.8878 25.6413H25.9029M25.9029 25.6413H25.918M25.9029 25.6413H25.918M25.918 25.6413H25.9332M25.918 25.6413H25.9332M25.9332 25.6413H25.9483M25.9332 25.6413H25.9483M25.9483 25.6413H25.9634M25.9483 25.6413H25.9634M25.9634 25.6413H25.9785M25.9634 25.6413H25.9785M25.9785 25.6413H25.9937M25.9785 25.6413H25.9937M25.9937 25.6413H26.0088M25.9937 25.6413H26.0088M26.0088 25.6413H26.0239M26.0088 25.6413H26.0239M26.0239 25.6413H26.039M26.0239 25.6413H26.039M26.039 25.6413H26.0542M26.039 25.6413H26.0542M26.0542 25.6413H26.0693M26.0542 25.6413H26.0693M26.0693 25.6413H26.0844M26.0693 25.6413H26.0844M26.0844 25.6413H26.0995M26.0844 25.6413H26.0995M26.0995 25.6413H26.1147M26.0995 25.6413H26.1147M26.1147 25.6413H26.1298M26.1147 25.6413H26.1298M26.1298 25.6413H26.1449M26.1298 25.6413H26.1449M26.1449 25.6413H26.1601M26.1449 25.6413H26.1601M26.1601 25.6413H26.1752M26.1601 25.6413H26.1752M26.1752 25.6413H26.1903M26.1752 25.6413H26.1903M26.1903 25.6413H26.2054M26.1903 25.6413H26.2054M26.2054 25.6413H26.2206M26.2054 25.6413H26.2206M26.2206 25.6413H26.2357M26.2206 25.6413H26.2357M26.2357 25.6413H26.2508M26.2357 25.6413H26.2508M26.2508 25.6413H26.2659M26.2508 25.6413H26.2659M26.2659 25.6413H26.2811M26.2659 25.6413H26.2811M26.2811 25.6413H26.2962M26.2811 25.6413H26.2962M26.2962 25.6413H26.3113M26.2962 25.6413H26.3113M26.3113 25.6413H26.3264M26.3113 25.6413H26.3264M26.3264 25.6413H26.3416M26.3264 25.6413H26.3416M26.3416 25.6413H26.3567M26.3416 25.6413H26.3567M26.3567 25.6413H26.3718M26.3567 25.6413H26.3718M26.3718 25.6413H26.3869M26.3718 25.6413H26.3869M26.3869 25.6413H26.4021M26.3869 25.6413H26.4021M26.4021 25.6413H26.4172M26.4021 25.6413H26.4172M26.4172 25.6413H26.4323M26.4172 25.6413H26.4323M26.4323 25.6413H26.4474M26.4323 25.6413H26.4474M26.4474 25.6413H26.4626M26.4474 25.6413H26.4626M26.4626 25.6413H26.4777M26.4626 25.6413H26.4777M26.4777 25.6413H26.4928M26.4777 25.6413H26.4928M26.4928 25.6413H26.5079M26.4928 25.6413H26.5079M26.5079 25.6413H26.5231M26.5079 25.6413H26.5231M26.5231 25.6413H26.5382M26.5231 25.6413H26.5382M26.5382 25.6413H26.5533M26.5382 25.6413H26.5533M26.5533 25.6413H26.5685M26.5533 25.6413H26.5685M26.5685 25.6413H26.5836M26.5685 25.6413H26.5836M26.5836 25.6413H26.5987M26.5836 25.6413H26.5987M26.5987 25.6413H26.6138M26.5987 25.6413H26.6138M26.6138 25.6413H26.629M26.6138 25.6413H26.629M26.629 25.6413H26.6441M26.629 25.6413H26.6441M26.6441 25.6413H26.6592M26.6441 25.6413H26.6592M26.6592 25.6413H26.6743M26.6592 25.6413H26.6743M26.6743 25.6413H26.6895M26.6743 25.6413H26.6895M26.6895 25.6413H26.7046M26.6895 25.6413H26.7046M26.7046 25.6413H26.7197M26.7046 25.6413H26.7197M26.7197 25.6413H26.7348M26.7197 25.6413H26.7348M26.7348 25.6413H26.75M26.7348 25.6413H26.75M26.75 25.6413H26.7651M26.75 25.6413H26.7651M26.7651 25.6413H26.7802M26.7651 25.6413H26.7802M26.7802 25.6413H26.7953M26.7802 25.6413H26.7953M26.7953 25.6413H26.8105M26.7953 25.6413H26.8105M26.8105 25.6413H26.8256M26.8105 25.6413H26.8256M26.8256 25.6413H26.8407M26.8256 25.6413H26.8407M26.8407 25.6413H26.8558M26.8407 25.6413H26.8558M26.8558 25.6413H26.871M26.8558 25.6413H26.871M26.871 25.6413H26.8861M26.871 25.6413H26.8861M26.8861 25.6413H26.9012M26.8861 25.6413H26.9012M26.9012 25.6413H26.9164M26.9012 25.6413H26.9164M26.9164 25.6413H26.9315M26.9164 25.6413H26.9315M26.9315 25.6413H26.9466M26.9315 25.6413H26.9466M26.9466 25.6413H26.9617M26.9466 25.6413H26.9617M26.9617 25.6413H26.9769M26.9617 25.6413H26.9769M26.9769 25.6413H26.992M26.9769 25.6413H26.992M26.992 25.6413H27.0071M26.992 25.6413H27.0071M27.0071 25.6413H27.0222M27.0071 25.6413H27.0222M27.0222 25.6413H27.0374M27.0222 25.6413H27.0374M27.0374 25.6413H27.0525M27.0374 25.6413H27.0525M27.0525 25.6413H27.0676M27.0525 25.6413H27.0676M27.0676 25.6413H27.0827M27.0676 25.6413H27.0827M27.0827 25.6413H27.0979M27.0827 25.6413H27.0979M27.0979 25.6413H27.113M27.0979 25.6413H27.113M27.113 25.6413H27.1281M27.113 25.6413H27.1281M27.1281 25.6413H27.1433M27.1281 25.6413H27.1433M27.1433 25.6413H27.1584M27.1433 25.6413H27.1584M27.1584 25.6413H27.1735M27.1584 25.6413H27.1735M27.1735 25.6413H27.1886M27.1735 25.6413H27.1886M27.1886 25.6413H27.2038M27.1886 25.6413H27.2038M27.2038 25.6413H27.2189M27.2038 25.6413H27.2189M27.2189 25.6413H27.234M27.2189 25.6413H27.234M27.234 25.6413H27.2491M27.234 25.6413H27.2491M27.2491 25.6413H27.2643M27.2491 25.6413H27.2643M27.2643 25.6413H27.2794M27.2643 25.6413H27.2794M27.2794 25.6413H27.2945M27.2794 25.6413H27.2945M27.2945 25.6413H27.3096M27.2945 25.6413H27.3096M27.3096 25.6413H27.3248M27.3096 25.6413H27.3248M27.3248 25.6413H27.3399M27.3248 25.6413H27.3399M27.3399 25.6413H27.355M27.3399 25.6413H27.355M27.355 25.6413H27.3702M27.355 25.6413H27.3702M27.3702 25.6413H27.3853M27.3702 25.6413H27.3853M27.3853 25.6413H27.4004M27.3853 25.6413H27.4004M27.4004 25.6413H27.4155M27.4004 25.6413H27.4155M27.4155 25.6413H27.4307M27.4155 25.6413H27.4307M27.4307 25.6413H27.4458M27.4307 25.6413H27.4458M27.4458 25.6413H27.4609M27.4458 25.6413H27.4609M27.4609 25.6413H27.476M27.4609 25.6413H27.476M27.476 25.6413H27.4912M27.476 25.6413H27.4912M27.4912 25.6413H27.5063M27.4912 25.6413H27.5063M27.5063 25.6413H27.5214M27.5063 25.6413H27.5214M27.5214 25.6413H27.538H27.5546H27.5711H27.5877H27.6042H27.6207H27.6372H27.6537H27.6701H27.6866H27.703H27.7194H27.7358H27.7522H27.7686H27.785H27.8013H27.8176H27.8339H27.8502H27.8665H27.8828H27.899H27.9153H27.9315H27.9477H27.9639H27.9801H27.9963H28.0124H28.0286H28.0447H28.0608H28.0769H28.093H28.1091H28.1251H28.1412H28.1572H28.1732H28.1892H28.2052H28.2212H28.2371H28.2531H28.269H28.285H28.3009H28.3168H28.3326H28.3485H28.3644H28.3802H28.3961H28.4119H28.4277H28.4435H28.4593H28.475H28.4908H28.5066H28.5223H28.538H28.5537H28.5694H28.5851H28.6008H28.6165H28.6321H28.6478H28.6634H28.679H28.6946H28.7102H28.7258H28.7414H28.7569H28.7725H28.788H28.8035H28.8191H28.8346H28.8501H28.8656H28.881H28.8965H28.9119H28.9274H28.9428H28.9582H28.9737H28.9891H29.0045H29.0198H29.0352H29.0506H29.0659H29.0813H29.0966H29.1119H29.1272H29.1425H29.1578H29.1731H29.1884H29.2036H29.2189H29.2342H29.2494H29.2646H29.2798H29.295H29.3102H29.3254H29.3406H29.3558H29.371H29.3861H29.4013H29.4164H29.4315H29.4467H29.4618H29.4769H29.492H29.5071H29.5222H29.5372H29.5523H29.5674H29.5824H29.5975H29.6125H29.6275H29.6425H29.6576H29.6726H29.6876H29.7026H29.7175H29.7325H29.7475H29.7625H29.7774H29.7924H29.8073H29.8222H29.8372H29.8521H29.867H29.8819H29.8968H29.9117H29.9266H29.9415H29.9563H29.9712H29.9861H30.0009H30.0158H30.0306H30.0455H30.0603H30.0751H30.09H30.1048H30.1196H30.1344H30.1492H30.164H30.1788H30.1936H30.2083H30.2231H30.2379H30.2527H30.2674H30.2822H30.2969H30.3117H30.3264H30.3411H30.3559H30.3706H30.3853H30.4H30.4147H30.4295H30.4442H30.4589H30.4736H30.4882H30.5029H30.5176H30.5323H30.547H30.5616H30.5763H30.591H30.6056H30.6203H30.635H30.6496H30.6643H30.6789H30.6935H30.7082H30.7228H30.7375H30.7521H30.7667H30.7813H30.796H30.8106H30.8252H30.8398H30.8544H30.869H30.8836H30.8982H30.9128H30.9274H30.942H30.9566H30.9712H30.9858H31.0004H31.015H31.0296H31.0442H31.0588H31.0733H31.0879H31.1025H31.1171H31.1317H31.1462H31.1608H31.1754H31.19H31.2045H31.2191H31.2337H31.2482H31.2628H31.2774H31.2919H31.3065H31.3211H31.3356H31.3502H31.3648H31.3793H31.3939H31.4084H31.423H31.4376H31.4521H31.4667H31.4813H31.4958H31.5104H31.525H31.5395H31.5541H31.5687H31.5832H31.5978H31.6124H31.6269H31.6415H31.6561H31.6706H31.6852H31.6998H31.7144H31.7289H31.7435H31.7581H31.7727H31.7873H31.8018H31.8164H31.831H31.8456H31.8602H31.8748H31.8894H31.904H31.9186H31.9332H31.9478H31.9624H31.977H31.9916H32.0062H32.0208H32.0355H32.0501H32.0647H32.0793H32.094H32.1086H32.1232H32.1379H32.1525H32.1671H32.1818H32.1964H32.2111H32.2257H32.2404H32.2551H32.2697H32.2844H32.2991H32.3138H32.3284H32.3431H32.3578H32.3725H32.3872H32.4019H32.4166H32.4313H32.446H32.4608H32.4755H32.4902H32.5049H32.5197H32.5344H32.5492H32.5639H32.5787H32.5934H32.6082H32.623H32.6377H32.6525H32.6673H32.6821H32.6969H32.7117H32.7265H32.7413H32.7561H32.771H32.7858H32.8006H32.8155H32.8303H32.8452H32.86H32.8749H32.8898H32.9046H32.9195H32.9344H32.9493H32.9642H32.9791H32.994H33.009H33.0239H33.0388H33.0538H33.0687H33.0837H33.0987H33.1136H33.1286H33.1436H33.1586H33.1736H33.1886H33.2036H33.2186H33.2337H33.2487H33.2637H33.2788H33.2939H33.3089H33.324H33.3391H33.3542H33.3693H33.3844H33.3995H33.4146H33.4298H33.4449H33.4601H33.4752H33.4904H33.5056H33.5208H33.536H33.5512H33.5664H33.5816H33.5968H33.6121H33.6273H33.6426H33.6578H33.6731H33.6884H33.7037H33.719H33.7343H33.7497H33.765H33.7803H33.7957H33.8111H33.8264H33.8418H33.8572H33.8726H33.888H33.9035H33.9189H33.9343H33.9498H33.9653H33.9807H33.9962H34.0117H34.0272H34.0428H34.0583H34.0738H34.0894H34.105H34.1205H34.1361H34.1517H34.1673H34.1829H34.1986H34.2142H34.2299H34.2456H34.2612H34.2769H34.2926H34.3083H34.3241H34.3398H34.3556H34.3713H34.3871H34.4029H34.4187H34.4345H34.4503H34.4662H34.482H34.4979H34.5138H34.5297H34.5456H34.5615H34.5774H34.5933H34.6093H34.6253H34.6412H34.6572H34.6732H34.6893H34.7053H34.7213H34.7374H34.7535H34.7696H34.7857H34.8018H34.8179H34.8341H34.8502H34.8664H34.8826H34.8988H34.915H34.9312H34.9475H34.9637H34.98H34.9963H35.0126H35.0289H35.0452H35.0616H35.0779H35.0943H35.1107H35.1271H35.1435H35.16H35.1764H35.1929H35.2094H35.2259H35.2424H35.2589H35.2755H35.292H35.3086H35.3252C35.3447 25.6413 35.3649 25.6415 35.3855 25.6417M27.5214 25.6413L35.3855 25.6417M35.3855 25.6417C35.4638 25.6425 35.5493 25.6433 35.6329 25.6339L35.3855 25.6417Z" fill="black" stroke="black" stroke-width="0.2"/>
</svg>
