<svg width="31" height="31" viewBox="0 0 31 31" fill="none" xmlns="http://www.w3.org/2000/svg">
<path d="M15.5 28.9023C12.019 28.9023 8.68064 27.5195 6.21922 25.0581C3.75781 22.5967 2.375 19.2583 2.375 15.7773C2.375 12.2964 3.75781 8.95798 6.21922 6.49657C8.68064 4.03515 12.019 2.65234 15.5 2.65234C18.981 2.65234 22.3194 4.03515 24.7808 6.49657C27.2422 8.95798 28.625 12.2964 28.625 15.7773C28.625 19.2583 27.2422 22.5967 24.7808 25.0581C22.3194 27.5195 18.981 28.9023 15.5 28.9023ZM15.5 30.7773C19.4782 30.7773 23.2936 29.197 26.1066 26.3839C28.9196 23.5709 30.5 19.7556 30.5 15.7773C30.5 11.7991 28.9196 7.98379 26.1066 5.17074C23.2936 2.3577 19.4782 0.777344 15.5 0.777344C11.5218 0.777344 7.70644 2.3577 4.8934 5.17074C2.08035 7.98379 0.5 11.7991 0.5 15.7773C0.5 19.7556 2.08035 23.5709 4.8934 26.3839C7.70644 29.197 11.5218 30.7773 15.5 30.7773Z" fill="black"/>
<path d="M19.2394 10.0391H11.7617C10.6571 10.0391 9.76172 10.9345 9.76172 12.0391V19.5167C9.76172 20.6213 10.6571 21.5167 11.7617 21.5167H19.2394C20.344 21.5167 21.2394 20.6213 21.2394 19.5167V12.0391C21.2394 10.9345 20.344 10.0391 19.2394 10.0391Z" fill="black"/>
</svg>
