<svg width="43" height="43" viewBox="0 0 43 43" fill="none" xmlns="http://www.w3.org/2000/svg">
<path d="M35.5 24.8973C35.4269 25.3343 35.3663 25.7741 35.2794 26.2081C34.4435 30.3726 30.9797 33.7232 26.8042 34.4143C21.9727 35.2143 17.4122 32.7843 15.3811 28.3225C15.3088 28.1639 15.2233 28.1172 15.0545 28.1179C13.4961 28.1245 11.9377 28.1223 10.3793 28.1208C10.28 28.1208 10.1762 28.1245 10.0813 28.0996C9.81458 28.028 9.65238 27.7643 9.6911 27.4888C9.7291 27.2192 9.94463 27.0315 10.2486 27.0307C11.6791 27.0264 13.1104 27.0285 14.5409 27.0278C14.649 27.0278 14.7572 27.0278 14.8617 27.0278C14.7309 26.3301 14.6037 25.6535 14.4693 24.9383C14.3948 24.9383 14.2976 24.9383 14.1997 24.9383C13.179 24.9383 12.1584 24.9397 11.1377 24.9375C10.7527 24.9368 10.5065 24.7658 10.4582 24.4772C10.3954 24.1039 10.6636 23.8248 11.1034 23.8226C12.0787 23.8182 13.0534 23.8255 14.0288 23.819C14.5022 23.816 14.4605 23.9271 14.5044 23.3755C14.5482 22.8334 14.6286 22.2942 14.6958 21.7272C14.5986 21.7272 14.4912 21.7272 14.3838 21.7272C12.3242 21.7272 10.2646 21.7272 8.20504 21.7265C8.09618 21.7265 7.98293 21.7309 7.87992 21.7038C7.63808 21.6403 7.48319 21.3977 7.50146 21.1376C7.51899 20.887 7.71334 20.6737 7.96613 20.6393C8.05599 20.6269 8.14805 20.6328 8.23938 20.6328C10.4173 20.6328 12.5953 20.6291 14.774 20.6379C14.9815 20.6386 15.0691 20.5729 15.1481 20.3858C15.406 19.7772 15.6902 19.1788 15.9729 18.5571C15.9006 18.5534 15.8063 18.5454 15.7128 18.5454C14.4642 18.5447 13.2156 18.5454 11.967 18.5439C11.8676 18.5439 11.7646 18.5447 11.6681 18.5228C11.3861 18.4592 11.2042 18.2174 11.2232 17.9485C11.2422 17.6738 11.4468 17.4699 11.7405 17.4429C11.8764 17.4305 12.0137 17.4356 12.1503 17.4356C13.1893 17.4349 14.2282 17.4356 15.2671 17.4356C15.3643 17.4356 15.4615 17.4356 15.5236 17.4356C15.395 17.1375 15.2306 16.8643 15.1605 16.5691C15.067 16.1738 15.2123 15.8129 15.4958 15.5207C15.8005 15.2065 16.1073 14.8953 16.4237 14.5928C16.9746 14.0653 17.7074 14.0726 18.2532 14.6103C18.5118 14.8653 18.7573 15.1342 18.9911 15.3782C19.55 15.075 20.0512 14.7579 20.5897 14.5234C21.1873 14.2625 21.8142 14.0689 22.4352 13.8658C22.5908 13.8147 22.6631 13.7672 22.6551 13.5933C22.6405 13.2755 22.6507 12.9562 22.6507 12.5916C22.471 12.5916 22.3022 12.5953 22.1334 12.5909C21.5007 12.5763 20.9835 12.1292 20.9484 11.4986C20.9126 10.8447 20.9119 10.1865 20.9484 9.53256C20.9842 8.89328 21.5139 8.43957 22.1612 8.4381C24.0294 8.43445 25.8976 8.43518 27.7657 8.43737C28.4832 8.4381 29.0151 8.94734 29.0326 9.66407C29.0465 10.2288 29.0458 10.7943 29.0333 11.3591C29.0173 12.0773 28.4934 12.5814 27.773 12.5924C27.6284 12.5946 27.4837 12.5924 27.3003 12.5924C27.3003 12.9716 27.2938 13.3325 27.3076 13.6927C27.3098 13.7445 27.3997 13.8242 27.4618 13.8395C28.7053 14.1369 29.848 14.6607 30.9636 15.4111C31.1916 15.1663 31.4188 14.9091 31.6606 14.6666C32.286 14.0397 32.9947 14.0434 33.6267 14.6702C33.9051 14.9464 34.1856 15.2197 34.4574 15.5024C34.9776 16.0445 34.9776 16.7671 34.4581 17.3121C34.2448 17.5364 34.0278 17.7585 33.7999 17.9682C33.6808 18.0778 33.6815 18.1582 33.7692 18.2904C34.578 19.5127 35.1099 20.8461 35.351 22.2934C35.4014 22.5959 35.4503 22.8984 35.5 23.2009C35.5 23.7671 35.5 24.3319 35.5 24.8973ZM24.985 14.6571C19.7845 14.6622 15.5915 18.8515 15.5828 24.0513C15.574 29.246 19.805 33.4864 24.9916 33.4813C30.176 33.4762 34.4245 29.2189 34.407 24.0455C34.3895 18.8559 30.1702 14.652 24.985 14.6571ZM24.9719 11.5001C25.8639 11.5001 26.7568 11.4957 27.6488 11.5038C27.8446 11.5052 27.9323 11.4482 27.9287 11.2422C27.9206 10.76 27.9206 10.2771 27.9287 9.79412C27.9323 9.58955 27.8461 9.52891 27.6503 9.52891C25.8749 9.53402 24.0988 9.53402 22.3234 9.52891C22.1166 9.52818 22.0275 9.5837 22.0341 9.80654C22.0472 10.28 22.0472 10.7534 22.0341 11.2269C22.0275 11.4482 22.1137 11.5059 22.3227 11.5045C23.2052 11.495 24.0886 11.5001 24.9719 11.5001ZM23.7664 13.5721C24.5788 13.5721 25.3766 13.5721 26.1825 13.5721C26.1825 13.2631 26.1825 12.9336 26.1825 12.6165C25.3627 12.6165 24.5656 12.6165 23.7664 12.6165C23.7664 12.954 23.7664 13.2696 23.7664 13.5721ZM18.1268 16.0065C17.9405 15.829 17.7205 15.6251 17.5072 15.414C17.3852 15.2934 17.2814 15.292 17.1602 15.4176C16.8876 15.6982 16.6012 15.9656 16.3375 16.2542C16.2856 16.3112 16.2666 16.4748 16.309 16.5267C16.5128 16.7766 16.743 17.006 16.9359 17.212C17.3479 16.7949 17.7176 16.4208 18.1268 16.0065ZM33.0459 17.2047C33.2351 17.0031 33.4499 16.7715 33.6669 16.5428C33.7758 16.4281 33.7363 16.3346 33.6399 16.2389C33.363 15.9634 33.0868 15.6872 32.8121 15.4103C32.7032 15.3008 32.6024 15.2876 32.4855 15.4023C32.2663 15.6186 32.0413 15.829 31.8426 16.0189C32.2466 16.4171 32.6258 16.7905 33.0459 17.2047Z" fill="black"/>
<path d="M25.0208 21.9515C25.2904 22.0231 25.5688 22.0735 25.8274 22.1744C25.9845 22.2357 26.0678 22.2109 26.1781 22.0991C26.9599 21.3086 27.7504 20.5261 28.5336 19.737C28.7345 19.5347 28.9574 19.4543 29.2233 19.5763C29.5974 19.7473 29.6441 20.1783 29.3197 20.5064C28.6337 21.1997 27.955 21.9011 27.2463 22.5696C26.9379 22.8604 26.8203 23.0862 26.9737 23.5457C27.2426 24.3472 26.973 25.0822 26.3301 25.6323C25.6776 26.1898 24.9215 26.3045 24.1382 25.9436C23.3594 25.5856 22.9371 24.9558 22.9254 24.0886C22.9072 22.905 23.8263 21.9917 25.0208 21.9515ZM24.985 25.0252C25.5308 25.0259 25.9524 24.6058 25.9531 24.0623C25.9538 23.5238 25.5242 23.0905 24.9887 23.0905C24.4575 23.0905 24.0162 23.5289 24.0148 24.0593C24.0126 24.5912 24.448 25.0245 24.985 25.0252Z" fill="black"/>
<path d="M27.1352 16.1746C27.266 16.2074 27.3734 16.2257 27.4757 16.2608C30.1125 17.166 31.8864 18.9363 32.788 21.576C32.9297 21.991 32.8106 22.2869 32.4694 22.4016C32.1545 22.5075 31.8732 22.3292 31.7425 21.9274C31.1492 20.1016 30.0153 18.7207 28.3232 17.8155C27.9097 17.5941 27.4545 17.4473 27.0161 17.2741C26.794 17.1865 26.6136 17.0381 26.6216 16.8036C26.6274 16.6341 26.7319 16.4529 26.8364 16.3075C26.8934 16.2286 27.0402 16.2133 27.1352 16.1746Z" fill="black"/>
<path d="M30.3945 28.9084C30.6875 28.9128 30.9505 29.1853 30.9424 29.4746C30.9337 29.7705 30.6619 30.0263 30.3696 30.0138C30.0803 30.0014 29.8378 29.7508 29.837 29.4629C29.8356 29.1685 30.1022 28.904 30.3945 28.9084Z" fill="black"/>
<path d="M24.9872 16.9673C24.6723 16.9673 24.4429 16.7327 24.4466 16.4157C24.4502 16.1161 24.6804 15.8823 24.977 15.8765C25.278 15.8706 25.5374 16.1205 25.5403 16.4193C25.5432 16.7225 25.2955 16.9673 24.9872 16.9673Z" fill="black"/>
<path d="M20.1316 29.4637C20.1308 29.7683 19.8788 30.0197 19.5792 30.0146C19.2789 30.0087 19.0334 29.7508 19.0408 29.4476C19.0473 29.1583 19.2935 28.9135 19.5814 28.9099C19.8788 28.9055 20.1323 29.1605 20.1316 29.4637Z" fill="black"/>
<path d="M17.3538 23.5194C17.6679 23.5209 17.8973 23.7569 17.893 24.0732C17.8886 24.3684 17.6526 24.6095 17.3603 24.6161C17.0674 24.6226 16.8036 24.3625 16.8007 24.0659C16.7978 23.7591 17.0425 23.518 17.3538 23.5194Z" fill="black"/>
<path d="M32.6272 23.518C32.9341 23.5187 33.1818 23.7693 33.1745 24.0718C33.1679 24.3618 32.9231 24.608 32.636 24.6146C32.3445 24.6219 32.0749 24.3603 32.0712 24.0666C32.0669 23.7707 32.3233 23.5172 32.6272 23.518Z" fill="black"/>
<path d="M24.4458 31.6994C24.4458 31.3947 24.6979 31.1404 24.9953 31.1448C25.2904 31.1499 25.5483 31.4173 25.541 31.711C25.5337 32.0026 25.2919 32.24 24.9974 32.2444C24.6884 32.2495 24.4458 32.0099 24.4458 31.6994Z" fill="black"/>
<path d="M20.1308 18.6499C20.1359 18.9626 19.9014 19.2044 19.5916 19.2073C19.2833 19.2095 19.04 18.9677 19.0408 18.6594C19.0415 18.3613 19.2716 18.1253 19.569 18.1173C19.8824 18.1085 20.1257 18.3394 20.1308 18.6499Z" fill="black"/>
</svg>
