<svg width="51" height="48" viewBox="0 0 51 48" fill="none" xmlns="http://www.w3.org/2000/svg">
<path d="M8.63672 14.9923C8.6798 14.8637 8.73124 14.7416 8.76532 14.6123C9.1897 12.9212 10.7464 11.5812 12.4722 11.5439C14.6153 11.4983 16.7597 11.5362 18.9022 11.5375V13.57C16.9149 13.573 14.9274 13.5764 12.9397 13.5803C11.5302 13.5848 10.6905 14.4207 10.6905 15.8353C10.6905 23.2306 10.6905 30.6251 10.6905 38.0188C10.6905 39.4295 11.5315 40.2693 12.941 40.2725C14.9282 40.275 16.9158 40.2785 18.9035 40.2828V42.3269H12.1018C12.0398 42.2948 11.9753 42.2677 11.9089 42.2458C10.2106 41.8172 9.14683 40.7537 8.71774 39.0553C8.6958 38.9891 8.66893 38.9246 8.63736 38.8624L8.63672 14.9923Z" fill="#F3A400"/>
<path d="M18.9023 42.3279V40.2851C20.6301 40.2819 22.3585 40.2735 24.0862 40.2793C24.5485 40.2793 24.9375 40.6323 25.0411 41.0844C25.0869 41.3054 25.0592 41.5355 24.9622 41.7393C24.8651 41.9432 24.704 42.1097 24.5035 42.2135C24.4328 42.2508 24.3627 42.29 24.292 42.3279H18.9023Z" fill="#DC990F"/>
<path d="M33.3529 33.4146C33.2359 33.5381 33.1227 33.6648 33.0019 33.7837C32.6733 34.1052 32.2862 34.2126 31.8573 34.0306C31.4284 33.8487 31.2246 33.5066 31.224 33.0436C31.224 32.1254 31.224 31.2068 31.224 30.2877V30.0067H30.0216C29.4024 30.0067 28.7825 30.0125 28.1633 30.0067C27.564 29.999 27.1229 29.5714 27.1191 28.9779C27.1114 27.6109 27.1114 26.2437 27.1191 24.8762C27.1229 24.2815 27.5615 23.8539 28.162 23.8474C29.1657 23.8404 30.1701 23.8474 31.2233 23.8474V23.5349C31.2233 22.6483 31.2285 21.7622 31.2233 20.8755C31.2195 20.3881 31.4053 20.0171 31.8586 19.8248C32.3119 19.6326 32.7144 19.7644 33.0494 20.1148C33.1517 20.2222 33.2533 20.3309 33.3549 20.4363C33.3292 20.545 33.2816 20.6537 33.2816 20.7623C33.2777 24.8707 33.2777 28.9788 33.2816 33.0867C33.2796 33.196 33.3279 33.306 33.3529 33.4146Z" fill="#F0494E"/>
<path d="M33.3535 33.4139C33.3285 33.3052 33.2802 33.1965 33.2802 33.0879C33.2764 28.98 33.2764 24.8718 33.2802 20.7635C33.2802 20.6548 33.3278 20.5462 33.3535 20.4375C33.7265 20.8034 34.1026 21.1667 34.4724 21.5357C35.9916 23.0528 37.5099 24.5711 39.0274 26.0907C39.5846 26.648 39.5846 27.2053 39.0274 27.7625C37.2008 29.5912 35.3726 31.4189 33.5426 33.2454C33.4828 33.3039 33.4172 33.3573 33.3535 33.4139Z" fill="#EA3D41"/>
<path d="M18.9023 28.9833C19.9138 28.9332 20.886 28.7319 21.7958 28.2657C22.2138 28.0516 22.6112 28.1416 22.9532 28.4464C24.3035 29.6559 25.0108 31.1682 25.0616 32.9808C25.0732 33.3666 25.0719 33.7492 25.0616 34.1337C25.0468 34.6938 24.6205 35.1336 24.0611 35.1355C22.3424 35.1413 20.6243 35.1323 18.9056 35.1291C18.9038 33.0805 18.9028 31.0319 18.9023 28.9833Z" fill="#2D93D0"/>
<path d="M18.9033 28.9837C18.9033 31.0323 18.9033 33.0809 18.9033 35.1295C17.1737 35.1327 15.444 35.1424 13.715 35.1347C13.2289 35.1347 12.7852 34.7424 12.7569 34.2621C12.6804 32.9427 12.7395 31.6374 13.3472 30.4183C13.7096 29.6788 14.2118 29.0165 14.8261 28.468C15.1881 28.1465 15.5919 28.052 16.0356 28.279C16.939 28.7394 17.9009 28.9419 18.9033 28.9837Z" fill="#449FD8"/>
<path d="M18.9043 18.7236C20.7741 18.6452 22.6137 20.1569 22.9397 22.0396C23.3255 24.274 21.9881 26.3174 19.789 26.8248C19.5016 26.8891 19.1981 26.8891 18.9023 26.9161L18.9043 18.7236Z" fill="#DC990F"/>
<path d="M18.9014 18.7246V26.9171C17.0322 26.9929 15.1836 25.4748 14.8627 23.6005C14.4769 21.3628 15.8201 19.3175 18.0134 18.814C18.3015 18.7484 18.605 18.7529 18.9014 18.7246Z" fill="#F3A400"/>
<path d="M18.9023 13.5698V11.5373C20.6224 11.5373 22.3424 11.5251 24.0624 11.5309C24.3275 11.5349 24.5805 11.6425 24.7672 11.8307C24.954 12.0189 25.0596 12.2727 25.0616 12.5378C25.065 12.6717 25.0417 12.805 24.9931 12.9299C24.9446 13.0548 24.8717 13.1688 24.7788 13.2654C24.6858 13.3619 24.5746 13.439 24.4517 13.4923C24.3287 13.5455 24.1964 13.5738 24.0624 13.5756C22.3424 13.5846 20.6224 13.573 18.9023 13.5698Z" fill="#DC990F"/>
<circle cx="24" cy="24" r="24" fill="#5E5E5E"/>
<path d="M13.4375 9.77142C13.4873 9.62278 13.5467 9.48157 13.5861 9.33219C14.0766 7.37761 15.8759 5.8288 17.8706 5.7857C20.3477 5.73293 22.8262 5.77678 25.3025 5.77827V8.12748C23.0056 8.13095 20.7084 8.13492 18.4109 8.13938C16.7818 8.14458 15.8112 9.11072 15.8112 10.7457C15.8112 19.2934 15.8112 27.8401 15.8112 36.3857C15.8112 38.0163 16.7833 38.9869 18.4124 38.9906C20.7094 38.9936 23.0065 38.9975 25.304 39.0025V41.3651H17.4425C17.3708 41.3281 17.2963 41.2968 17.2196 41.2715C15.2566 40.776 14.0271 39.5468 13.5311 37.5838C13.5058 37.5072 13.4747 37.4327 13.4382 37.3608L13.4375 9.77142Z" fill="#FEC877"/>
<path d="M25.3047 41.3662V39.0051C27.3016 39.0014 29.2993 38.9917 31.2963 38.9984C31.8306 38.9984 32.2803 39.4064 32.3999 39.9289C32.4529 40.1844 32.4209 40.4502 32.3087 40.6859C32.1966 40.9215 32.0104 41.114 31.7786 41.2339C31.6969 41.277 31.6158 41.3223 31.5341 41.3662H25.3047Z" fill="#DBA95E"/>
<path d="M43.1959 33.6191C43.0339 33.784 42.8773 33.9531 42.7099 34.1119C42.2551 34.541 41.7193 34.6844 41.1256 34.4415C40.5319 34.1985 40.2498 33.7419 40.2489 33.1239C40.2489 31.8981 40.2489 30.6718 40.2489 29.4449V29.0698H38.5844C37.7273 29.0698 36.8692 29.0775 36.0121 29.0698C35.1825 29.0595 34.5719 28.4887 34.5666 27.6964C34.5559 25.8715 34.5559 24.0463 34.5666 22.2209C34.5719 21.4269 35.179 20.8561 36.0103 20.8475C37.3997 20.838 38.79 20.8475 40.248 20.8475V20.4303C40.248 19.2466 40.2551 18.0638 40.248 16.8801C40.2426 16.2295 40.4999 15.7342 41.1274 15.4775C41.7549 15.2209 42.3121 15.3969 42.7758 15.8647C42.9173 16.008 43.058 16.1531 43.1986 16.2938C43.163 16.4389 43.0971 16.584 43.0971 16.729C43.0918 22.2134 43.0918 27.6976 43.0971 33.1814C43.0945 33.3273 43.1612 33.4741 43.1959 33.6191Z" fill="#F0494E"/>
<path d="M42.345 33.6003C42.3099 33.4556 42.2423 33.3109 42.2423 33.1662C42.2369 27.6959 42.2369 22.2253 42.2423 16.7544C42.2423 16.6097 42.309 16.465 42.345 16.3203C42.8674 16.8075 43.3943 17.2913 43.9122 17.7828C46.0403 19.803 48.1672 21.8249 50.2928 23.8485C51.0734 24.5906 51.0734 25.3326 50.2928 26.0747C47.7342 28.5099 45.1732 30.9437 42.6098 33.376C42.5261 33.4539 42.4342 33.525 42.345 33.6003Z" fill="#EA3D41"/>
<path d="M25.3047 25.9435C26.4737 25.8855 27.5974 25.6529 28.649 25.1141C29.1321 24.8666 29.5914 24.9707 29.9868 25.3229C31.5475 26.7209 32.365 28.4688 32.4237 30.5639C32.4371 31.0098 32.4356 31.452 32.4237 31.8964C32.4066 32.5437 31.9139 33.0521 31.2673 33.0543C29.2807 33.061 27.2949 33.0506 25.3084 33.0469C25.3064 30.6791 25.3052 28.3113 25.3047 25.9435Z" fill="#2D93D0"/>
<path d="M25.3066 25.943C25.3066 28.3108 25.3066 30.6786 25.3066 33.0464C23.3074 33.0502 21.3082 33.0613 19.3098 33.0524C18.7479 33.0524 18.2351 32.599 18.2024 32.0439C18.114 30.5189 18.1824 29.0102 18.8847 27.6011C19.3036 26.7464 19.884 25.9809 20.594 25.347C21.0124 24.9754 21.4792 24.8662 21.992 25.1285C23.0361 25.6606 24.1479 25.8947 25.3066 25.943Z" fill="#449FD8"/>
<path d="M25.3069 14.0835C27.4681 13.9928 29.5944 15.74 29.9712 17.9161C30.4171 20.4987 28.8712 22.8605 26.3295 23.4469C25.9973 23.5212 25.6466 23.5212 25.3047 23.5524L25.3069 14.0835Z" fill="#DBA95E"/>
<path d="M25.3027 14.0859V23.5549C23.1422 23.6426 21.0055 21.8879 20.6347 19.7215C20.1888 17.1352 21.7413 14.7712 24.2763 14.1892C24.6093 14.1134 24.96 14.1186 25.3027 14.0859Z" fill="#FEC877"/>
<path d="M25.3047 8.12798V5.77876C27.2927 5.77876 29.2807 5.76464 31.2688 5.77133C31.5752 5.77598 31.8676 5.90037 32.0834 6.11788C32.2993 6.33539 32.4214 6.62874 32.4237 6.93516C32.4275 7.08999 32.4006 7.24405 32.3445 7.3884C32.2884 7.53276 32.2042 7.66454 32.0967 7.77611C31.9893 7.88768 31.8608 7.97682 31.7187 8.03837C31.5766 8.09992 31.4236 8.13265 31.2688 8.13467C29.2807 8.14507 27.2927 8.1317 25.3047 8.12798Z" fill="#DBA95E"/>
</svg>
