<svg width="28" height="28" viewBox="0 0 28 28" fill="none" xmlns="http://www.w3.org/2000/svg">
<path d="M9.11684 13.1813V10.2837C9.11684 9.09916 9.15402 7.91365 9.10879 6.73215C9.03341 4.77967 10.918 3.97966 12.1704 4.76565C12.1945 4.78067 12.2327 4.77166 12.3201 4.77667C12.3201 4.51734 12.3201 4.25801 12.3201 3.99968C12.3412 2.90429 13.1343 2.0452 14.1595 2.00214C15.2942 1.95508 16.1375 2.68701 16.2702 3.82746C16.2762 3.87652 16.2883 3.92759 16.3064 4.0167C17.1336 3.62621 17.9196 3.61619 18.6111 4.28604C19.2855 4.93487 19.1066 5.79396 19.1488 6.63803C19.4293 6.55893 19.6725 6.4568 19.9238 6.42476C21.0204 6.28458 21.9722 7.06858 21.9792 8.17499C21.9983 11.4101 22.0215 14.6462 21.9611 17.8803C21.9441 18.7454 21.7219 19.6345 21.4375 20.4596C20.8616 22.1337 19.6635 23.2281 17.9276 23.6497C15.6159 24.2094 13.3514 24.1853 11.2286 22.9337C10.332 22.4034 9.57834 21.6639 9.03241 20.779C7.87351 18.9277 6.72065 17.0743 5.54769 15.231C5.34666 14.9115 5.06121 14.6412 4.8029 14.3598C4.23903 13.7461 3.80583 13.0972 4.08927 12.2041C4.29029 11.5743 4.76169 11.2028 5.42607 11.2028C6.50556 11.1928 7.3991 11.6424 8.18811 12.3373C8.48764 12.5996 8.78012 12.873 9.11684 13.1813ZM10.2596 15.4002C9.39626 15.4162 8.88868 15.0467 8.48563 14.3779C7.93482 13.4647 7.19808 12.6987 6.12361 12.3954C5.83917 12.3152 5.37782 12.2952 5.21901 12.4564C4.89939 12.7838 5.24213 13.1223 5.46225 13.4126C5.52256 13.4917 5.61 13.5488 5.67332 13.6259C5.96079 13.9704 6.28242 14.2938 6.52164 14.6692C7.69259 16.5126 8.84244 18.3739 9.99832 20.2233C10.5868 21.165 11.4517 21.9036 12.4759 22.339C13.8911 22.9678 15.3656 22.9538 16.8592 22.7495C18.7398 22.4932 20.0002 21.4849 20.5078 19.6526C20.7082 18.948 20.8183 18.221 20.8354 17.4888C20.8716 14.503 20.8505 11.5172 20.8495 8.53144C20.8594 8.38179 20.8509 8.23149 20.8244 8.08387C20.7329 7.7154 20.4907 7.50413 20.0987 7.53317C19.7328 7.56121 19.5328 7.7925 19.4775 8.14395C19.4645 8.27706 19.4622 8.41098 19.4705 8.54446C19.4705 9.87915 19.4755 11.2138 19.4705 12.5495C19.4705 13.0352 19.182 13.3365 18.7569 13.3506C18.3317 13.3646 18.0312 13.0772 17.9889 12.5986C17.9759 12.4494 17.9889 12.2982 17.9889 12.149C17.9889 9.98028 17.9889 7.81152 17.9889 5.64077C17.9889 5.16316 17.7206 4.86979 17.3246 4.86478C16.9286 4.85977 16.6532 5.14914 16.6461 5.62575C16.6351 6.44379 16.6461 7.26083 16.6461 8.07786C16.6461 9.31243 16.6552 10.547 16.6411 11.7826C16.6351 12.3283 16.3174 12.6527 15.8651 12.6367C15.44 12.6216 15.1616 12.2912 15.1565 11.7786C15.1565 11.3951 15.1565 11.0116 15.1565 10.6281C15.1565 8.44333 15.1565 6.25755 15.1565 4.07277C15.1565 3.39792 14.7113 3.00442 14.1122 3.12056C13.672 3.20567 13.4418 3.52107 13.4408 4.08779C13.4408 6.5576 13.4408 9.0274 13.4408 11.4972C13.4479 11.6472 13.4439 11.7974 13.4288 11.9468C13.3664 12.3843 13.0508 12.6577 12.6498 12.6407C12.2488 12.6236 11.9754 12.3162 11.9512 11.8747C11.9442 11.7415 11.9512 11.6073 11.9512 11.4742C11.9512 9.82308 11.9563 8.16998 11.9512 6.51988C11.9512 5.97119 11.6025 5.5897 11.125 5.56968C10.6476 5.54965 10.321 5.91411 10.2868 6.49185C10.2787 6.64204 10.2868 6.79223 10.2868 6.94242V15.4002H10.2596Z" fill="black"/>
</svg>
