<svg width="28" height="28" viewBox="0 0 28 28" fill="none" xmlns="http://www.w3.org/2000/svg">
<path d="M18.075 14.4065C18.1833 14.4065 18.2872 14.3635 18.3637 14.2869C18.4403 14.2103 18.4833 14.1065 18.4833 13.9982C18.4833 13.8899 18.4403 13.786 18.3637 13.7094C18.2872 13.6329 18.1833 13.5898 18.075 13.5898C17.9667 13.5898 17.8628 13.6329 17.7863 13.7094C17.7097 13.786 17.6667 13.8899 17.6667 13.9982C17.6667 14.1065 17.7097 14.2103 17.7863 14.2869C17.8628 14.3635 17.9667 14.4065 18.075 14.4065ZM13.9917 14.4065C14.1 14.4065 14.2038 14.3635 14.2804 14.2869C14.357 14.2103 14.4 14.1065 14.4 13.9982C14.4 13.8899 14.357 13.786 14.2804 13.7094C14.2038 13.6329 14.1 13.5898 13.9917 13.5898C13.8834 13.5898 13.7795 13.6329 13.7029 13.7094C13.6264 13.786 13.5833 13.8899 13.5833 13.9982C13.5833 14.1065 13.6264 14.2103 13.7029 14.2869C13.7795 14.3635 13.8834 14.4065 13.9917 14.4065ZM9.90833 14.4065C10.0166 14.4065 10.1205 14.3635 10.1971 14.2869C10.2736 14.2103 10.3167 14.1065 10.3167 13.9982C10.3167 13.8899 10.2736 13.786 10.1971 13.7094C10.1205 13.6329 10.0166 13.5898 9.90833 13.5898C9.80004 13.5898 9.69618 13.6329 9.6196 13.7094C9.54302 13.786 9.5 13.8899 9.5 13.9982C9.5 14.1065 9.54302 14.2103 9.6196 14.2869C9.69618 14.3635 9.80004 14.4065 9.90833 14.4065Z" fill="black" stroke="black" stroke-width="1.5" stroke-linecap="round" stroke-linejoin="round"/>
<path d="M13.9948 22.1654C18.5052 22.1654 22.1614 18.5091 22.1614 13.9987C22.1614 9.48825 18.5052 5.83203 13.9948 5.83203C9.48434 5.83203 5.82812 9.48825 5.82812 13.9987C5.82812 15.4858 6.22584 16.8815 6.92082 18.082L6.23646 21.757L9.91146 21.0727C11.1524 21.7906 12.5611 22.1675 13.9948 22.1654V22.1654Z" stroke="black" stroke-width="1.5" stroke-linecap="round" stroke-linejoin="round"/>
</svg>
