<svg width="48" height="48" viewBox="0 0 48 48" fill="none" xmlns="http://www.w3.org/2000/svg">
<path d="M45.2487 8.14259C44.9909 8.79959 44.7996 9.49817 44.4669 10.1136C43.9846 10.9951 43.1862 11.569 42.2714 11.9765C41.4647 12.2842 40.633 12.3424 39.7848 12.2925C38.87 12.1012 38.0217 11.7602 37.3065 11.1282C36.4249 10.3464 35.9259 9.35679 35.7014 8.21744C35.6598 7.36085 35.718 6.52089 36.0174 5.71419C36.6495 4.31703 37.6807 3.36064 39.161 2.92819C41.7391 2.17971 44.4336 3.75151 45.0906 6.36287C45.1322 6.51257 45.1904 6.66226 45.2403 6.81196C45.2487 7.25273 45.2487 7.6935 45.2487 8.14259Z" fill="#5282C2"/>
<path d="M42.2709 36.0203C43.9009 36.7688 44.8989 38.008 45.1983 39.7877C45.1983 39.8126 45.2315 39.8293 45.2482 39.8459C45.2482 40.3199 45.2482 40.7856 45.2482 41.2597C45.1983 41.3844 45.1317 41.5009 45.0985 41.6256C44.7492 42.9812 43.9591 44.0124 42.72 44.6611C42.196 44.9356 41.5889 45.0603 41.0151 45.2516C40.6242 45.2516 40.2417 45.2516 39.8508 45.2516C39.1938 44.9938 38.4952 44.8108 37.8881 44.4698C37.0066 43.9875 36.441 43.1891 36.0252 42.2826C35.7175 41.4759 35.6593 40.636 35.7092 39.7794C35.9005 38.8479 36.2498 37.9913 36.9068 37.2761C37.6885 36.4112 38.6699 35.9289 39.7926 35.7043C40.6325 35.6627 41.4642 35.7126 42.2709 36.0203Z" fill="#5282C2"/>
<path d="M12.0426 42.2488C11.9012 42.4817 11.7681 42.7229 11.6184 42.9557C10.8533 44.1616 9.77219 44.9101 8.37503 45.1762C8.30018 45.1929 8.22533 45.2261 8.15048 45.2594C7.75961 45.2594 7.37705 45.2594 6.98618 45.2594C6.45393 45.0847 5.8801 44.9933 5.38943 44.7354C3.69287 43.8206 2.75312 42.3819 2.76975 40.4525C2.77806 38.548 3.68456 37.1176 5.38111 36.2028C5.51417 36.1279 5.6306 36.0448 5.75535 35.9616C6.56204 35.7371 7.38537 35.6539 8.22533 35.7038C9.17341 35.8951 10.03 36.261 10.7535 36.9263C11.6018 37.6997 12.0758 38.6728 12.2921 39.7789C12.3503 40.6188 12.2671 41.4421 12.0426 42.2488Z" fill="#2EC5F4"/>
<path d="M5.75443 12.0352C5.41346 11.8273 5.06417 11.636 4.73983 11.4031C3.15139 10.2388 2.42786 8.29278 2.88526 6.43822C3.36762 4.48385 4.84794 3.12827 6.8522 2.81225C8.84815 2.49623 10.8524 3.51915 11.7839 5.33213C11.8587 5.47351 11.9585 5.60657 12.0417 5.74795C12.2662 6.55465 12.3577 7.37797 12.2995 8.21793C12.1082 9.14938 11.7589 9.99765 11.1102 10.7212C10.3202 11.5778 9.34713 12.0684 8.22442 12.2847C7.38446 12.3512 6.56113 12.2597 5.75443 12.0352Z" fill="#2EC5F4"/>
<path d="M5.75296 12.0348C6.55966 12.2593 7.38298 12.3508 8.22294 12.2926C8.22294 20.1017 8.22294 27.9026 8.22294 35.7117C7.38298 35.6535 6.55966 35.7366 5.75296 35.9695C5.74464 35.8281 5.73633 35.6951 5.73633 35.5537C5.73633 27.8527 5.73633 20.1516 5.73633 12.4506C5.73633 12.3092 5.74464 12.1679 5.75296 12.0348Z" fill="#8AD4E5"/>
<path d="M36.0251 5.71509C35.7257 6.52178 35.6591 7.36174 35.709 8.21834C33.8462 8.21834 31.975 8.22665 30.1121 8.21834C28.0829 8.21834 26.0453 8.21002 24.0161 8.2017C24.0161 7.37838 24.0078 6.55505 24.0078 5.73172C25.1139 5.7234 26.22 5.71509 27.3261 5.71509C30.2202 5.71509 33.1226 5.71509 36.0251 5.71509Z" fill="#2ABFCA"/>
<path d="M24.0025 5.73085C24.0025 6.55418 24.0108 7.37751 24.0108 8.20083C20.1021 8.20083 16.2017 8.20915 12.293 8.20915C12.3512 7.36919 12.2597 6.54586 12.0352 5.73917C12.5757 5.73085 13.108 5.72253 13.6485 5.72253C17.0999 5.73085 20.5512 5.73085 24.0025 5.73085Z" fill="#8AD4E5"/>
<path d="M35.7037 39.7792C35.6621 40.6358 35.7203 41.4757 36.0197 42.2824C32.1775 42.2824 28.3353 42.2824 24.4931 42.2824C24.3268 42.2824 24.1605 42.2741 23.9941 42.2658C23.9941 41.4425 24.0025 40.6191 24.0025 39.7958C27.9112 39.7875 31.8116 39.7875 35.7037 39.7792Z" fill="#2ABFCA"/>
<path d="M24.0108 39.7875C24.0108 40.6108 24.0025 41.4341 24.0025 42.2575C20.0855 42.2575 16.1684 42.2575 12.2431 42.2658C12.1765 42.2658 12.11 42.2575 12.0352 42.2492C12.2597 41.4425 12.3512 40.6191 12.293 39.7792C13.9064 39.7792 15.5197 39.7792 17.1331 39.7792C19.4285 39.7792 21.7238 39.7875 24.0108 39.7875Z" fill="#8AD4E5"/>
<path d="M42.2737 36.0185C41.467 35.7108 40.6354 35.6609 39.7871 35.7025C39.7871 27.9017 39.7871 20.0926 39.7871 12.2917C40.6354 12.3333 41.467 12.2834 42.2737 11.9757C42.2737 19.9844 42.2737 28.0015 42.2737 36.0185Z" fill="#2DBFCA"/>
<path d="M23.9993 33.6906C22.8849 33.6906 21.7622 33.6906 20.6228 33.6906C20.6228 32.8673 20.6228 32.0606 20.6228 31.2206C21.3131 31.2206 22.0034 31.2206 22.7186 31.2206C22.7186 26.4802 22.7186 21.7731 22.7186 17.0411C20.6478 17.0411 18.5687 17.0411 16.448 17.0411C16.448 17.723 16.448 18.3884 16.448 19.0786C15.608 19.0786 14.8097 19.0786 13.9863 19.0786C13.9863 17.5817 13.9863 16.0847 13.9863 14.5711C14.0113 14.5628 14.0529 14.5378 14.0861 14.5378C17.3878 14.5378 20.6977 14.5462 23.9993 14.5462C23.9993 20.9249 23.9993 27.3119 23.9993 33.6906Z" fill="#415FA5"/>
<path d="M24 33.6908C24 27.3121 24 20.9251 24 14.5464C27.3349 14.5464 30.6615 14.5464 34.0213 14.5464C34.0213 16.06 34.0213 17.5569 34.0213 19.0872C33.2146 19.0872 32.4079 19.0872 31.568 19.0872C31.568 18.4218 31.568 17.7482 31.568 17.0496C29.4556 17.0496 27.3765 17.0496 25.2724 17.0496C25.2724 21.7484 25.2724 26.4472 25.2724 31.1876C25.9627 31.1876 26.6613 31.1876 27.3848 31.1876C27.3848 32.0359 27.3848 32.8426 27.3848 33.6991C26.2621 33.6908 25.131 33.6908 24 33.6908Z" fill="#164475"/>
</svg>
