<svg width="24" height="19" viewBox="0 0 24 19" fill="none" xmlns="http://www.w3.org/2000/svg">
<path d="M23.4296 14.7299C23.3831 14.7977 23.333 14.8631 23.292 14.934C22.635 16.0674 21.9798 17.2014 21.3235 18.3354C21.2825 18.4063 21.2384 18.4759 21.1761 18.5786C20.4236 17.2771 19.6877 16.0038 18.9323 14.6969C19.4675 14.6969 19.9655 14.6969 20.4793 14.6969C20.4793 11.089 20.4793 7.50365 20.4793 3.89755C19.9789 3.89755 19.4785 3.89755 18.9219 3.89755C19.681 2.58268 20.4175 1.30814 21.173 0C21.2293 0.0879835 21.2739 0.152138 21.3131 0.219959C21.9731 1.36008 22.6319 2.50142 23.292 3.64154C23.333 3.71241 23.3837 3.77779 23.4296 3.84561C23.4296 3.86089 23.4296 3.87616 23.4296 3.89144C22.9146 3.89144 22.3989 3.89144 21.8844 3.89144C21.8844 7.50365 21.8844 11.089 21.8844 14.6847C22.4099 14.6847 22.9194 14.6847 23.4296 14.6847C23.4296 14.6994 23.4296 14.7146 23.4296 14.7299Z" fill="black"/>
<path d="M3.00904 3.03664C3.00904 3.95314 3.00904 4.85008 3.00904 5.7623C1.9997 5.7623 1.00566 5.7623 0 5.7623C0 3.84377 0 1.9344 0 0.00976562C5.14515 0.00976562 10.2842 0.00976562 15.4428 0.00976562C15.4428 1.92157 15.4428 3.83583 15.4428 5.76352C14.45 5.76352 13.4614 5.76352 12.4478 5.76352C12.4478 4.8623 12.4478 3.95986 12.4478 3.03725C11.3694 3.03725 10.3154 3.03725 9.24977 3.03725C9.24977 7.20425 9.24977 11.3688 9.24977 15.5535C10.0866 15.5535 10.9155 15.5535 11.7645 15.5535C11.7645 16.5653 11.7645 17.5582 11.7645 18.567C9.07299 18.567 6.38388 18.567 3.67764 18.567C3.67764 17.5729 3.67764 16.5794 3.67764 15.5676C4.51692 15.5676 5.34579 15.5676 6.19425 15.5676C6.19425 11.3847 6.19425 7.22075 6.19425 3.03725C5.1476 3.03664 4.09361 3.03664 3.00904 3.03664Z" fill="black"/>
</svg>
