<svg width="1920" height="1080" viewBox="0 0 1920 1080" fill="none" xmlns="http://www.w3.org/2000/svg">
<path opacity="0.3" fill-rule="evenodd" clip-rule="evenodd" d="M34.8428 990.502L83.3398 1012.22L126.05 981.147L120.316 928.32L71.8195 906.604L29.1095 937.676L34.8428 990.502ZM22.7695 934.868L29.2493 994.572L84.0594 1019.11L129.437 986.103L208.957 1021.33L209.266 1020.63L196.777 1060.78L237.276 1105.13L292.045 1092.92L348.821 1154.59L343.449 1211.35L259.982 1201.94L237.207 1149.93L177.559 1142.96L142.001 1191L166.091 1246.01L225.74 1252.98L259.123 1207.88L342.883 1217.33L338.386 1264.85L380.472 1294.59L302.138 1383.76L291.379 1374.57L260.603 1385.28L254.603 1417.15L279.38 1438.31L310.157 1427.61L316.156 1395.74L306.701 1387.66L385.399 1298.08L429.412 1329.18L526.159 1285.22L575.484 1319.83L559.31 1335.29L571.208 1383.49L619.163 1397.22L655.22 1362.75L643.322 1314.55L595.367 1300.83L579.906 1315.61L531.056 1281.33L541.343 1172.63L532.526 1166.4L594.106 1121.85L597.276 1132.45L675.441 1151.46L730.56 1093.39L707.513 1016.32L629.348 997.312L574.229 1055.38L592.286 1115.76L527.348 1162.74L450.316 1108.31L406.293 1128.31L384.867 1082.57L402.464 1064.73L395.539 1039.85L370.572 1033.28L352.529 1051.57L359.455 1076.45L377.612 1081.23L400.83 1130.79L354.465 1151.86L296.586 1088.99L313.449 1034.78L272.95 990.437L264.111 992.407L264.876 944.57L288.516 936.253L293.203 910.862L273.651 894L249.412 902.528L244.725 927.918L258.945 940.182L258.088 993.749L214.614 1003.44L210.832 1015.6L132.036 980.692L125.91 924.251L71.0999 899.708L22.7695 934.868ZM265.564 937.967L251.25 925.623L254.681 907.035L272.364 900.813L286.678 913.158L283.247 931.746L265.564 937.967ZM239.363 1098.51L203.529 1059.28L219.311 1008.54L270.863 997.05L306.697 1036.29L290.915 1087.02L239.363 1098.51ZM1655.66 1012.54L1679.9 1004.11L1699.42 1020.78L1694.7 1045.82L1670.46 1054.25L1650.94 1037.58L1655.66 1012.54ZM1681.18 997.312L1705.96 1018.48L1699.96 1050.35L1669.18 1061.05L1658.42 1051.86L1580.09 1141.03L1622.18 1170.77L1617.68 1218.3L1701.44 1227.75L1734.82 1182.65L1794.47 1189.62L1811.38 1228.23L1811.12 1227.39L1894.28 1201.91L1906.94 1147.24L1964.43 1129.88L2008.43 1170.74L1994.95 1228.97L1937.46 1246.33L1895.86 1207.7L1813.45 1232.95L1818.56 1244.63L1792.07 1280.42L1826.51 1321.45L1845.29 1321.4L1858.38 1343.65L1845.66 1365.97L1819.84 1366.04L1806.75 1343.79L1819.16 1322.02L1788.4 1285.37L1783 1292.67L1723.35 1285.69L1700.58 1233.69L1617.11 1224.27L1611.72 1281.21L1559.73 1304.83L1582.95 1354.4L1601.11 1359.18L1608.03 1384.05L1589.99 1402.35L1565.02 1395.77L1558.1 1370.9L1575.69 1353.05L1554.27 1307.31L1510.24 1327.32L1433.21 1272.88L1368.27 1319.86L1386.33 1380.25L1331.21 1438.31L1253.05 1419.3L1230 1342.23L1285.12 1284.17L1363.28 1303.18L1366.45 1313.78L1428.03 1269.22L1419.22 1262.99L1429.5 1154.3L1380.65 1120.02L1365.19 1134.8L1317.24 1121.07L1305.34 1072.88L1341.4 1038.41L1389.35 1052.14L1401.25 1100.33L1385.08 1115.79L1434.4 1150.4L1531.15 1106.45L1575.16 1137.55L1653.86 1047.96L1644.4 1039.89L1650.4 1008.02L1681.18 997.312ZM1343.05 1045.12L1312 1074.81L1322.23 1116.26L1363.53 1128.08L1394.59 1098.4L1384.36 1056.95L1343.05 1045.12ZM1435.32 1156.58L1530.5 1113.33L1615.87 1173.67L1606.08 1277.18L1510.9 1320.43L1425.52 1260.1L1435.32 1156.58ZM1790.35 1195.18L1737.58 1189.01L1706.15 1231.46L1727.47 1280.13L1780.25 1286.3L1811.67 1243.85L1790.35 1195.18ZM1358.52 1308.19L1287.08 1290.82L1236.74 1343.84L1257.81 1414.29L1329.25 1431.66L1379.59 1378.64L1358.52 1308.19ZM1577.97 1359.29L1596.25 1364.1L1601.32 1382.31L1588.16 1395.66L1569.88 1390.85L1564.81 1372.64L1577.97 1359.29ZM1529.6 1128.01L1449.47 1164.87L1441.13 1253.01L1512.92 1304.25L1593.05 1267.38L1601.39 1179.25L1529.6 1128.01ZM1604.54 1177.81L1529.93 1124.56L1446.65 1162.87L1437.98 1254.44L1512.59 1307.7L1595.87 1269.39L1604.54 1177.81ZM1912 1151.98L1962.86 1136.62L2001.8 1172.77L1989.89 1224.23L1939.02 1239.59L1900.08 1203.44L1912 1151.98ZM1841.87 1327.41L1822.96 1327.46L1813.68 1343.74L1823.26 1360.03L1842.17 1359.98L1851.45 1343.7L1841.87 1327.41ZM280.66 1431.52L304.903 1423.08L309.617 1398.04L290.1 1381.37L265.856 1389.81L261.143 1414.84L280.66 1431.52ZM648.562 1360.81L617.506 1390.5L576.201 1378.68L565.968 1337.23L597.025 1307.54L638.33 1319.37L648.562 1360.81ZM430.064 1322.29L525.245 1279.05L535.042 1175.53L449.664 1115.19L354.483 1158.44L344.686 1261.96L430.064 1322.29ZM222.984 1246.62L170.207 1240.45L148.891 1191.77L180.314 1149.32L233.092 1155.49L254.407 1204.16L222.984 1246.62ZM602.038 1127.43L673.482 1144.8L723.816 1091.78L702.751 1021.34L631.307 1003.96L580.973 1056.99L602.038 1127.43ZM382.59 1076.34L364.312 1071.52L359.242 1053.31L372.404 1039.96L390.682 1044.78L395.752 1062.99L382.59 1076.34ZM430.963 1307.62L511.091 1270.75L519.432 1182.62L447.642 1131.37L367.514 1168.24L359.173 1256.37L430.963 1307.62ZM356.024 1257.81L430.636 1311.07L513.914 1272.75L522.581 1181.18L447.969 1127.92L364.69 1166.24L356.024 1257.81Z" fill="#9ACCF6"/>
<path opacity="0.3" fill-rule="evenodd" clip-rule="evenodd" d="M1850.59 98.812L1802.09 77.0959L1759.38 108.168L1765.12 160.994L1813.61 182.711L1856.32 151.639L1850.59 98.812ZM1862.66 154.446L1856.18 94.7426L1801.37 70.1996L1756 103.212L1676.48 67.9865L1676.17 68.6824L1688.66 28.5325L1648.16 -15.8112L1593.39 -3.60561L1536.61 -65.2727L1541.98 -122.039L1625.45 -112.623L1648.23 -60.6161L1707.87 -53.6442L1743.43 -101.683L1719.34 -156.694L1659.69 -163.665L1626.31 -118.564L1542.55 -128.014L1547.05 -175.537L1504.96 -205.279L1583.3 -294.45L1594.05 -285.26L1624.83 -295.966L1630.83 -327.836L1606.05 -348.999L1575.28 -338.293L1569.28 -306.424L1578.73 -298.347L1500.03 -208.761L1456.02 -239.865L1359.27 -195.906L1309.95 -230.518L1326.12 -245.979L1314.23 -294.175L1266.27 -307.903L1230.21 -273.435L1242.11 -225.239L1290.07 -211.511L1305.53 -226.291L1354.38 -192.013L1344.09 -83.32L1352.91 -77.0893L1291.33 -32.534L1288.16 -43.1323L1209.99 -62.1407L1154.87 -4.07761L1177.92 72.9938L1256.09 92.0022L1311.2 33.9391L1293.15 -26.4455L1358.09 -73.43L1435.12 -18.9925L1479.14 -38.9952L1500.57 6.74176L1482.97 24.587L1489.89 49.4602L1514.86 56.0371L1532.9 37.7408L1525.98 12.8677L1507.82 8.08469L1484.6 -41.4774L1530.97 -62.5442L1588.85 0.320496L1571.98 54.5334L1612.48 98.8771L1621.32 96.9072L1620.56 144.745L1596.92 153.062L1592.23 178.452L1611.78 195.314L1636.02 186.787L1640.71 161.396L1626.49 149.132L1627.35 95.5651L1670.82 85.8766L1674.6 73.7184L1753.4 108.623L1759.52 165.064L1814.33 189.607L1862.66 154.446ZM1619.87 151.347L1634.18 163.692L1630.75 182.28L1613.07 188.501L1598.76 176.156L1602.19 157.568L1619.87 151.347ZM1646.07 -9.1989L1681.91 30.0371L1666.12 80.7762L1614.57 92.2648L1578.74 53.0288L1594.52 2.28975L1646.07 -9.1989ZM229.776 76.7709L205.533 85.2042L186.015 68.5331L190.729 43.4938L214.972 35.0605L234.49 51.7316L229.776 76.7709ZM204.253 92.002L179.476 70.8383L185.475 38.9686L216.252 28.2627L227.012 37.4535L305.345 -51.7169L263.258 -81.4586L267.756 -128.982L183.996 -138.432L150.613 -93.3306L90.9648 -100.302L74.0553 -138.916L74.3123 -138.077L-8.84485 -112.596L-21.5022 -57.9272L-78.9915 -40.5637L-123 -81.4268L-109.518 -139.654L-52.0292 -157.017L-10.4259 -118.387L71.9866 -143.64L66.8746 -155.313L93.3645 -191.101L58.9204 -232.133L40.1418 -232.083L27.0497 -254.337L39.7766 -276.659L65.5957 -276.728L78.688 -254.474L66.2755 -232.703L97.0353 -196.06L102.433 -203.352L162.081 -196.38L184.856 -144.373L268.321 -134.957L273.71 -191.895L325.702 -215.518L302.484 -265.081L284.327 -269.864L277.402 -294.737L295.444 -313.033L320.412 -306.456L327.337 -281.583L309.739 -263.738L331.165 -218L375.189 -238.003L452.221 -183.565L517.16 -230.55L499.103 -290.935L554.222 -348.998L632.387 -329.99L655.434 -252.918L600.315 -194.855L522.15 -213.864L518.981 -224.462L457.4 -179.906L466.216 -173.676L455.929 -64.9843L504.78 -30.7049L520.241 -45.4846L568.196 -31.7568L580.094 16.4388L544.037 50.9067L496.082 37.179L484.184 -11.0167L500.358 -26.478L451.033 -61.0901L354.285 -17.1312L310.272 -48.2348L231.574 41.3508L241.029 49.4264L235.029 81.2961L204.253 92.002ZM542.38 44.1911L573.436 14.503L563.204 -26.9449L521.899 -38.769L490.842 -9.08087L501.075 32.3671L542.38 44.1911ZM450.118 -67.2647L354.937 -24.0176L269.559 -84.353L279.356 -187.87L374.537 -231.117L459.915 -170.781L450.118 -67.2647ZM95.0802 -105.862L147.858 -99.6934L179.281 -142.146L157.965 -190.82L105.188 -196.989L73.7648 -154.537L95.0802 -105.862ZM526.912 -218.88L598.356 -201.506L648.69 -254.529L627.625 -324.973L556.181 -342.347L505.847 -289.324L526.912 -218.88ZM307.463 -269.974L289.184 -274.789L284.114 -292.999L297.276 -306.346L315.555 -301.531L320.625 -283.322L307.463 -269.974ZM355.835 -38.6944L435.963 -75.5601L444.304 -163.693L372.515 -214.936L292.387 -178.07L284.046 -89.9376L355.835 -38.6944ZM280.896 -88.4998L355.508 -35.2418L438.787 -73.557L447.454 -165.13L372.842 -218.388L289.563 -180.073L280.896 -88.4998ZM-26.5637 -62.6662L-77.4313 -47.3026L-116.37 -83.459L-104.457 -134.915L-53.5895 -150.278L-14.6503 -114.122L-26.5637 -62.6662ZM43.5679 -238.092L62.47 -238.142L71.7544 -254.427L62.1697 -270.719L43.2677 -270.668L33.9832 -254.384L43.5679 -238.092ZM1604.77 -342.201L1580.53 -333.768L1575.82 -308.729L1595.33 -292.058L1619.58 -300.491L1624.29 -325.53L1604.77 -342.201ZM1236.87 -271.499L1267.93 -301.187L1309.23 -289.363L1319.47 -247.915L1288.41 -218.227L1247.1 -230.051L1236.87 -271.499ZM1455.37 -232.978L1360.19 -189.731L1350.39 -86.2143L1435.77 -25.879L1530.95 -69.1261L1540.75 -172.643L1455.37 -232.978ZM1662.45 -157.303L1715.23 -151.134L1736.54 -102.459L1705.12 -60.007L1652.34 -66.1759L1631.03 -114.85L1662.45 -157.303ZM1283.4 -38.1156L1211.95 -55.4895L1161.62 -2.4671L1182.68 67.9771L1254.13 85.3509L1304.46 32.3286L1283.4 -38.1156ZM1502.84 12.9781L1521.12 17.793L1526.19 36.0024L1513.03 49.3498L1494.75 44.5349L1489.68 26.3255L1502.84 12.9781ZM1454.47 -218.301L1374.34 -181.436L1366 -93.3032L1437.79 -42.06L1517.92 -78.9257L1526.26 -167.058L1454.47 -218.301ZM1529.41 -168.496L1454.8 -221.754L1371.52 -183.439L1362.85 -91.8654L1437.46 -38.6074L1520.74 -76.9226L1529.41 -168.496Z" fill="#9ACCF6"/>
</svg>
