<svg width="48" height="48" viewBox="0 0 48 48" fill="none" xmlns="http://www.w3.org/2000/svg">
<path d="M6.00192 21.5529C6.35771 20.8672 7.02709 20.5018 7.58906 20.0358C11.496 16.7963 15.4193 13.575 19.3339 10.3451C19.7127 10.0325 20.1117 9.88286 20.5864 10.1082C21.0553 10.3298 21.2183 10.7172 21.2164 11.2159C21.2097 12.8529 21.2203 14.4899 21.2068 16.1269C21.2049 16.4002 21.2845 16.4702 21.5492 16.4616C22.5168 16.4328 23.4835 16.4673 24.4463 16.5642C24.4463 19.4402 24.4454 22.3163 24.4454 25.1913C23.4595 25.0638 22.4679 25.0686 21.4763 25.06C21.1886 25.0571 21.2116 25.2105 21.2116 25.3975C21.2135 27 21.2049 28.6015 21.2174 30.204C21.2212 30.7065 21.1081 31.1275 20.6439 31.3884C20.1711 31.654 19.752 31.5016 19.3387 31.2282C15.9803 29.0072 12.619 26.789 9.25867 24.5709C8.41092 24.0118 7.56988 23.4412 6.71062 22.9013C6.39415 22.7018 6.17741 22.44 6 22.1273C6.00192 21.9355 6.00192 21.7447 6.00192 21.5529Z" fill="#F27384"/>
<path d="M24.4473 25.1921C24.4473 22.3161 24.4482 19.44 24.4482 16.5649C28.5901 16.9936 32.2516 18.5664 35.4316 21.241C38.8754 24.1381 41.1242 27.7891 42.1954 32.1611C42.5742 33.7089 42.7555 35.2817 42.7421 36.8756C42.7382 37.4088 42.416 37.8355 41.9269 37.965C41.4388 38.0935 40.9286 37.8604 40.6754 37.3598C39.9965 36.0144 39.2321 34.7207 38.346 33.5018C36.0588 30.3534 33.2259 27.8802 29.575 26.4167C27.9256 25.7541 26.2061 25.3916 24.4473 25.1921Z" fill="#EB5773"/>
</svg>
