<svg width="51" height="50" viewBox="0 0 51 50" fill="none" xmlns="http://www.w3.org/2000/svg">
<rect x="0.5" width="50" height="50" rx="25" fill="url(#paint0_linear_654_692)"/>
<path d="M37.5 25.9443C37.439 26.3245 37.3967 26.714 37.317 27.0895C36.4487 31.2101 34.0411 34.0308 30.0706 35.4247C25.551 37.011 20.4635 35.298 17.7086 31.3556C17.3566 30.8534 17.4411 30.2433 17.9104 29.9054C18.375 29.5722 18.9804 29.6942 19.3418 30.1964C20.7263 32.1253 22.5708 33.3737 24.908 33.8102C28.0572 34.3969 30.7746 33.5098 33.018 31.2383C34.4588 29.7787 35.2519 27.9906 35.4444 25.949C35.8714 21.3355 32.7551 17.1914 28.2261 16.3513C23.7112 15.5065 19.3043 18.2427 18.0371 22.6731C18.0136 22.7529 17.9996 22.8374 17.9714 22.95C18.483 22.6074 18.9664 22.2742 19.4545 21.9551C20.1162 21.5233 20.9235 21.8753 21.0314 22.6497C21.0877 23.0392 20.9328 23.363 20.6137 23.5836C19.5061 24.3392 18.3938 25.0901 17.2768 25.8317C16.8028 26.1461 16.2114 26.0382 15.8923 25.5642C15.1273 24.4331 14.3764 23.2926 13.6348 22.1475C13.3908 21.7673 13.4706 21.0915 13.9352 20.8005C14.3905 20.5142 14.9724 20.6034 15.2916 21.0446C15.5121 21.3449 15.7093 21.6641 15.9158 21.9785C15.9627 22.0489 16.0143 22.1146 16.0472 22.1616C16.2912 21.5327 16.493 20.885 16.7887 20.2796C18.4266 16.9427 21.0877 14.9152 24.7344 14.1924C25.1896 14.1033 25.6589 14.0657 26.1189 14C26.4474 14 26.7759 14 27.1045 14C27.5128 14.0516 27.9258 14.0845 28.3294 14.1549C30.6385 14.5538 32.6378 15.5675 34.2945 17.229C35.8949 18.834 36.9133 20.7583 37.317 22.9923C37.3874 23.3818 37.439 23.776 37.5 24.1656C37.5 24.7569 37.5 25.3483 37.5 25.9443Z" fill="white"/>
<path d="M25.5086 22.4856C25.5086 21.6596 25.5086 20.8289 25.5086 20.0028C25.5086 19.4021 25.9263 18.9656 26.5036 18.9609C27.0761 18.9609 27.5126 19.3927 27.5126 19.9935C27.5173 21.4531 27.5173 22.9127 27.5126 24.3723C27.5126 24.5318 27.5595 24.6445 27.6722 24.7618C28.517 25.6066 29.3618 26.4514 30.1925 27.3055C30.7791 27.9063 30.5163 28.8215 29.7184 29.0045C29.3758 29.0843 29.0614 28.9951 28.8126 28.7464C27.8036 27.7373 26.7992 26.7189 25.7949 25.7051C25.5931 25.5033 25.5039 25.2546 25.5039 24.9636C25.5133 24.1376 25.5086 23.3116 25.5086 22.4856Z" fill="white"/>
<defs>
<linearGradient id="paint0_linear_654_692" x1="7.12651" y1="4.6683e-06" x2="65.5155" y2="11.1144" gradientUnits="userSpaceOnUse">
<stop stop-color="#8BABE0"/>
<stop offset="1" stop-color="#5C9DDA"/>
</linearGradient>
</defs>
</svg>
