<svg width="102" height="107" viewBox="0 0 102 107" fill="none" xmlns="http://www.w3.org/2000/svg">
<g opacity="0.2">
<path d="M52.4621 105.747C50.906 106.514 49.7777 105.187 48.4275 104.927C47.1407 104.379 45.8571 103.828 46.6051 102.013C46.7604 101.744 46.9157 101.478 47.071 101.209C47.7588 100.015 47.7841 99.1124 46.3547 98.3112C45.1852 97.6556 44.3358 96.5092 43.5308 95.4071C43.2044 94.9606 42.9096 94.4855 42.2884 94.8339C41.5151 95.2678 40.5706 95.3248 39.886 95.9423C38.8433 96.0785 38.2792 95.5338 37.9242 94.6249C37.6485 93.9187 37.3062 93.2346 36.9924 92.541C36.0955 90.0899 36.1715 89.9347 38.7356 88.9878C39.0271 88.8801 39.3219 88.7756 39.6166 88.6711C40.2505 88.4462 40.3488 88.0092 40.1111 87.4391C39.9367 86.1027 39.661 84.7124 40.0287 83.4298C40.5136 81.7419 39.9399 81.0103 38.3362 80.7949L38.3489 80.8108C38.1144 80.4846 37.7214 80.5289 37.3981 80.4149C36.9829 79.9684 36.3617 79.6643 36.3712 78.9265C36.9005 77.6755 37.4329 76.4278 37.9559 75.1768C38.4123 74.0842 39.1095 73.5997 40.2949 74.1634C40.6689 74.3408 41.0777 74.4389 41.4707 74.5719C42.3645 75.2908 43.0364 75.3225 43.7432 74.2046C44.5292 72.9632 45.6068 71.8832 46.846 71.101C47.8602 70.4613 47.7841 69.9102 47.1502 69.1438C47.1502 68.0259 45.6131 66.6388 47.0393 65.8819C48.7603 64.9698 50.4749 63.1995 52.8044 64.4631C53.6094 67.5224 53.7742 67.7029 55.7012 67.5952C56.7851 68.0703 57.9198 67.5509 58.9593 67.6934C61.4378 68.0386 61.5329 66.2334 62.0431 64.7228C62.1636 64.5455 62.284 64.365 62.4013 64.1876C64.6325 63.6556 66.2616 65.0933 68.0491 65.9611C68.5816 66.2208 68.496 66.8732 68.3502 67.3862C68.2107 67.8834 67.9952 68.3616 67.8146 68.8461C67.1934 69.7741 67.0064 70.531 68.2424 71.2277C69.0316 71.6742 69.6465 72.4501 70.2962 73.1215C72.3056 75.2053 72.2961 75.2148 75.0376 73.9196C75.5859 73.796 76.0486 74.1286 76.5557 74.2172C77.2086 75.6867 77.8615 77.153 78.5144 78.6224C78.6126 79.5408 78.0929 80.0666 77.3385 80.4244C76.7807 80.6904 76.2134 80.928 75.6493 81.1781C75.383 81.1528 75.1453 81.2003 74.9995 81.4568C74.4132 82.8598 75.0883 84.2691 74.971 85.691C74.7555 88.291 74.8284 88.3132 77.2308 89.3868C78.4035 89.9125 78.8186 90.6282 78.1816 91.8538C77.8742 92.446 77.7252 93.1174 77.5033 93.754C77.3988 93.963 77.291 94.172 77.1864 94.381C77.0913 94.6027 76.9994 94.8244 76.9043 95.0461C76.7776 95.2361 76.6508 95.4293 76.524 95.6193C75.4306 96.3414 74.5336 95.594 73.624 95.1823C72.5655 94.7009 71.7351 94.5235 71.0695 95.8188C70.7272 96.487 70.0078 96.9557 69.5039 97.5543C68.8066 98.3808 67.3075 98.7292 67.2536 99.7521C67.1997 100.791 67.9889 101.871 68.4104 102.935C68.328 103.758 67.8494 104.243 67.0888 104.503C66.7433 104.62 66.4042 104.756 66.0746 104.908C62.1889 106.732 62.5249 106.368 61.124 103.115C60.4553 101.564 59.2319 102.52 58.2145 102.58C57.9008 102.574 57.5838 102.555 57.2701 102.564C56.1354 102.599 54.7663 101.769 53.9486 102.514C53.1562 103.255 52.9407 104.642 52.4621 105.747ZM50.3228 88.1264H50.3069C50.6999 89.5483 51.6888 90.4857 52.8741 91.2648C54.6902 92.6804 56.7123 93.1301 58.9498 92.5569C60.4394 92.4112 61.6565 91.705 62.7277 90.7042C63.4282 90.1912 63.9384 89.5325 64.268 88.7312C65.3995 87.0813 65.4724 85.254 65.1586 83.3633C64.8512 81.7007 64.173 80.2502 62.7816 79.2083C62.5344 78.7903 62.1604 78.5179 61.7389 78.3026C60.7849 77.6185 59.777 77.0738 58.5568 77.0928C56.4333 76.7603 54.481 77.0865 52.8203 78.5591C50.2879 80.0159 48.9695 83.4203 49.746 86.5081C49.7174 86.7836 49.6794 87.0623 49.9805 87.2333C50.028 87.5563 50.009 87.9047 50.3228 88.1264Z" fill="#005DC8"/>
<path d="M35.2244 0.00484578C36.5207 -0.0236565 37.7853 0.036515 38.641 1.23044C38.6759 1.33812 38.7108 1.44579 38.7456 1.55347C39.202 3.1496 38.8534 4.79006 39.0023 6.40836C39.0657 7.10508 39.1291 7.53895 39.988 7.66246C42.701 8.04882 45.2523 8.98623 47.734 10.1263C48.8369 11.1144 49.8226 11.2189 50.7037 9.8223C51.0555 9.26809 51.5372 8.79938 51.9619 8.28951C52.3866 7.85881 52.8113 7.42811 53.236 6.99741C54.1519 6.50653 55.1503 6.18667 56.006 6.93407C57.8855 8.5682 59.9044 10.0567 61.5176 11.979C61.9328 13.1286 61.6887 14.0755 60.833 14.9844C60.2308 15.6241 59.4543 16.134 59.0962 16.989C57.6731 17.8568 57.5559 18.8354 58.8109 19.9754C59.0645 20.2066 59.2166 20.5518 59.4163 20.8463C59.5557 21.049 59.692 21.2549 59.8315 21.4576L59.8283 21.4544C60.7126 23.5002 61.7331 25.5017 62.2687 27.6742C62.4811 28.5293 62.9755 28.3646 63.5396 28.3298C65.1497 28.2284 66.7597 28.1493 68.3698 28.0606L68.468 28.1271L68.5853 28.1208C68.7216 28.2031 68.861 28.2823 68.9973 28.3646C69.6851 28.7035 69.6058 29.6124 70.2207 30.0051C70.2587 31.1578 70.2967 32.3106 70.3379 33.4602C70.3411 33.5647 70.3411 33.666 70.3443 33.7706C70.3443 34.0904 70.3443 34.4134 70.3443 34.7333C70.3506 38.2707 70.3221 38.3278 68.0116 39.1036C67.3492 39.0973 66.6837 39.0625 66.0213 39.0846C63.1593 39.1797 63.1593 39.186 62.4684 42.0014C61.9961 43.4392 61.5334 44.8769 61.0453 46.3084C60.646 47.477 59.261 48.5284 59.6762 49.6495C60.066 50.7041 61.375 51.4356 62.3226 52.2622C63.2481 53.0666 64.1894 53.833 64.0119 55.2486C62.9153 57.3736 60.9978 58.8272 59.5652 60.6767C58.8204 61.6363 57.8981 62.0702 56.6874 61.8326C55.6828 60.9396 54.6812 60.037 53.667 59.1534C51.9746 57.6776 51.9682 57.6808 50.1744 59.0933C50.0983 59.1534 50.0571 59.2579 50.0001 59.3434C49.306 59.5429 48.6975 59.9008 48.1396 60.3473C46.5328 60.9554 44.9576 61.6933 43.3032 62.1177C42.2826 62.3805 42.1242 62.808 42.1337 63.7265C42.1495 65.5348 42.8024 67.3494 42.1273 69.1546C41.4554 69.8608 40.6472 70.1743 39.6616 70.1965C38.4857 70.225 37.3099 70.3738 36.134 70.472C35.1801 70.4498 34.2293 70.4308 33.2753 70.4087C32.746 69.978 31.9315 69.9178 31.6589 69.1577C31.5448 67.5774 31.4339 65.994 31.3198 64.4137C31.5575 63.3718 31.1993 62.8334 30.071 62.8365C29.5608 62.8397 29.0473 62.7004 28.5371 62.6244C27.1615 62.181 25.7892 61.7345 24.4137 61.2911C23.8622 60.9902 23.3171 60.6767 22.7593 60.3917C20.7531 59.3751 20.7499 59.3783 19.3554 61.2563C18.2651 62.0385 17.6598 63.3306 16.4712 64.0115C15.4158 64.2712 14.5855 63.9165 13.8058 63.1881C12.6395 62.105 11.3971 61.1042 10.1895 60.0687C10.0121 59.9261 9.83774 59.7836 9.66026 59.6411C8.66824 58.6309 8.15163 57.5288 9.03906 56.1924C9.32113 55.7648 9.66343 55.3784 9.97719 54.9731C10.0596 54.8907 10.142 54.8084 10.2212 54.7261C10.6681 54.2859 11.0611 53.7728 11.5682 53.415C12.706 52.6137 12.6141 51.841 11.7869 50.8434C10.4653 49.2536 9.79654 47.287 8.88693 45.4597C8.08191 42.2072 8.08191 42.2072 5.74925 42.3624C5.5369 42.3624 5.32772 42.3656 5.11537 42.3656C4.2533 42.4479 3.35954 42.1566 2.52599 42.5809C2.03157 42.3751 1.53715 42.1724 1.03956 41.9665C0.808191 41.6562 0.576826 41.3427 0.345462 41.0323C0.231364 39.3507 0.114098 37.6659 0 35.9842C0.00633875 35.9336 0.0221856 35.8829 0.0221856 35.8291C-0.0475406 31.7976 0.389833 31.4587 4.42762 31.8229C5.34357 31.9052 6.51624 32.3264 7.27055 31.237C7.60967 29.7676 7.95196 28.2981 8.29109 26.8287C8.99786 25.2389 9.7078 23.6522 10.4146 22.0624C10.9534 21.4417 10.9534 20.9224 10.2783 20.3365C9.05174 19.2756 7.89174 18.1323 6.7064 17.027C6.08203 15.8616 6.3958 14.8577 7.21984 13.9266C7.69207 13.3914 8.14213 12.8372 8.60485 12.2893C9.1278 11.7161 9.65075 11.1461 10.1737 10.5729C11.0294 9.33459 12.1736 8.80888 13.679 9.14458C14.1259 9.24275 14.3985 9.78746 14.9404 9.62595C15.644 10.3195 16.4047 10.9624 17.0354 11.7161C17.9577 12.8119 18.8102 12.7834 19.7135 11.7478C20.7562 11.1587 21.8021 10.5665 22.8449 9.97748C23.1681 9.80963 23.4914 9.64178 23.8147 9.47077L23.7988 9.48344C24.0144 9.3726 24.2299 9.26492 24.4486 9.15408V9.16991C25.298 8.92606 26.179 8.75821 26.9777 8.40669C27.3929 8.223 28.2835 8.52703 28.1567 7.55478C28.0933 6.16134 28.3469 4.75206 27.9317 3.37762C27.694 2.16469 28.2423 1.30328 29.1646 0.603394C31.1328 -0.0553257 33.2404 0.59706 35.2244 0.00484578ZM39.8898 46.9513C40.6536 46.7929 41.3033 46.4224 41.8484 45.8682C42.6281 45.6243 43.2113 45.1176 43.693 44.4811C44.853 43.6925 45.5439 42.5334 46.1715 41.3268C46.9701 40.1044 47.4329 38.7648 47.5375 37.308C48.1111 35.0848 47.7815 32.9535 46.9068 30.8728C45.5027 26.8572 42.663 24.3711 38.6537 23.1297C38.023 22.9492 37.4145 22.6578 36.7299 22.7655C33.6778 22.4361 30.7968 22.8542 28.2296 24.672C27.488 25.0425 26.8224 25.5112 26.3375 26.1984C23.1555 29.093 22.0177 32.7065 22.566 36.909C22.4867 37.441 22.604 37.9446 22.7625 38.4544C24.4771 43.9649 28.1377 47.1761 33.906 47.914C35.7949 48.0597 37.6522 48.0059 39.3731 47.0748C39.4619 47.097 39.5348 47.0748 39.5982 47.0083L39.7503 47.0146L39.8898 46.9513Z" fill="#005DC8"/>
<path d="M72.2202 69.0582C71.9699 68.7732 71.7195 68.4882 71.4659 68.2031C70.9969 67.3259 71.767 66.8794 72.1315 66.2935C73.3549 65.6063 73.6116 64.7385 72.6925 63.5858C72.4389 63.2691 72.2266 62.8574 72.1664 62.4615C71.8938 60.593 71.0476 59.5416 68.9907 60.0167C68.8956 60.0388 68.7656 60.0262 68.6832 59.9755C66.9749 58.9526 68.0398 57.3216 67.8624 55.9788C67.7388 55.0446 68.5121 54.7216 69.3583 54.8926C70.9208 55.2093 71.6719 54.5252 71.9065 53.0336C71.9699 52.6346 72.2171 52.2609 72.3977 51.884C73.4278 49.7495 73.4278 49.7527 71.5325 47.9792C71.2441 47.406 71.3075 46.8834 71.7639 46.4211C72.347 45.832 72.9809 45.281 73.4975 44.6381C74.2645 43.6817 75.0156 43.6753 75.8555 44.4924C76.6225 45.87 77.5385 46.2754 78.9108 45.1575C79.4084 44.7521 80.1469 44.5906 80.8061 44.4386C81.871 44.1916 82.3432 43.7197 82.2577 42.5099C82.1404 40.8568 82.7077 40.4071 84.3494 40.3944C84.9263 40.3881 85.5031 40.3628 86.0799 40.3438C86.2954 40.3501 86.5078 40.3596 86.7233 40.3659C86.8025 40.4324 86.8913 40.4641 86.9959 40.4641L86.9674 40.4419C87.5505 41.2083 87.3889 42.1046 87.4237 42.9723C87.4428 43.4632 87.297 44.0174 88.0671 44.1757C88.869 44.3404 89.6423 44.6349 90.4315 44.8756C91.6327 45.9017 92.7958 46.4464 93.94 44.7679C94.3964 44.0997 95.1285 44.0174 95.886 44.1821C96.4248 44.7046 96.9604 45.2271 97.4992 45.7528C98.881 47.4567 98.8684 47.444 97.2013 49.1225C96.8368 49.4898 95.943 49.8002 96.8114 50.5381C97.1918 51.4501 97.7274 52.3337 97.9175 53.2838C98.206 54.7247 98.9222 55.2188 100.304 54.8672C100.694 54.9021 101.084 54.9369 101.474 54.9718C101.642 55.1649 101.81 55.3581 101.978 55.5545C101.971 56.533 101.924 57.5116 101.968 58.487C102 59.2123 101.816 59.7981 101.233 60.2447C98.6909 60.2098 98.6972 60.213 97.6957 62.5882C97.4358 63.2057 97.1125 63.798 96.8209 64.3997L96.8241 64.3965C96.4374 64.7417 96.2441 65.0901 96.7956 65.4606C97.3471 66.056 97.8985 66.6545 98.45 67.2499C98.45 67.5634 98.45 67.877 98.45 68.1905C98.3771 68.2507 98.3486 68.3267 98.3644 68.4185C97.4326 69.3021 96.4977 70.1856 95.5659 71.0692C94.3552 71.1864 93.8417 70.192 93.211 69.4921C92.6532 68.8714 92.2665 68.7795 91.7658 69.4573C91.6232 69.5523 91.4805 69.6504 91.3411 69.7454C91.2555 69.7169 91.1858 69.7391 91.1287 69.8088C91.0083 69.8943 90.8847 69.9766 90.7643 70.0621L90.7738 70.0273C87.6709 71.1136 87.6709 71.1135 87.6519 73.8783L87.6551 73.8751C87.4459 74.0873 87.2367 74.2995 87.0276 74.5117C86.9198 74.5465 86.812 74.5813 86.7011 74.6162C86.4919 74.6162 86.2796 74.6162 86.0704 74.613C85.969 74.6035 85.8676 74.5908 85.763 74.5813C85.0245 74.5813 84.2829 74.5813 83.5444 74.5813C83.4398 74.5782 83.3384 74.575 83.2338 74.5718C82.2545 74.1791 82.1974 73.3367 82.2957 72.488C82.4225 71.3922 82.096 70.7589 80.9297 70.5055C80.1373 70.3345 79.3355 69.9893 78.6541 69.5428C77.624 68.8714 76.8697 68.9854 76.2263 70.0083C75.1456 71.1484 74.1282 71.1769 73.1299 69.8848C72.8953 69.5681 72.5308 69.3337 72.2202 69.0582ZM82.264 52.0645L82.2798 52.0519C82.0105 52.055 81.7981 52.1659 81.6618 52.4034C80.543 52.9006 79.8363 53.7715 79.4147 54.8989C78.0551 57.4071 78.6636 60.213 80.9994 62.2177C82.5778 63.6966 84.397 64.14 86.4729 63.5003C90.1367 62.6325 92.1049 59.0349 90.8086 55.5766C90.7833 55.4595 90.7579 55.3423 90.7326 55.2251C90.6628 55.1269 90.5963 55.0256 90.5266 54.9274L90.5297 54.9306C89.2271 51.9727 86.2511 50.6901 83.1419 51.7447C83.0595 51.7225 82.9866 51.7415 82.9264 51.8048C82.6602 51.7827 82.4225 51.827 82.264 52.0645Z" fill="#005DC8"/>
</g>
</svg>
