<svg width="62" height="46" viewBox="0 0 62 46" fill="none" xmlns="http://www.w3.org/2000/svg">
<path d="M10.0682 18.2653C10.0052 16.9225 9.86214 15.7183 9.91415 14.5237C9.97616 13.0939 10.5302 11.8091 11.3524 10.6822C12.5676 9.01603 14.1328 7.94179 16.0721 7.48308C18.3645 6.94166 20.5459 7.20915 22.5962 8.45635C22.9733 8.68517 23.1273 8.60245 23.3383 8.23183C24.5375 6.12631 26.0698 4.34198 27.9681 2.94761C29.2103 2.03557 30.5575 1.33838 31.9967 0.841005C33.894 0.185714 35.8444 -0.105408 37.8167 0.0342445C39.3579 0.142744 40.8832 0.438162 42.3594 1.02792C45.2959 2.19885 47.6913 4.11639 49.5726 6.78912C50.6548 8.32744 51.4379 10.0258 51.941 11.8854C52.4701 13.8416 52.6661 15.8268 52.5091 17.8485C52.4701 18.3555 52.6771 18.5392 53.0601 18.6703C56.1076 19.7134 58.388 21.7545 60.0003 24.7172C60.7104 26.0225 61.2185 27.4104 61.4805 28.866C61.7816 30.545 61.8336 32.2552 61.5615 33.973C60.9614 37.7586 59.2581 40.788 56.3457 43.0235C55.1685 43.927 53.9013 44.6435 52.47 44.9271C51.4339 45.1323 50.3807 45.3235 49.3315 45.3428C46.3491 45.3976 43.3646 45.3622 40.3811 45.3622C40.1841 45.3622 39.986 45.3622 39.749 45.3622C39.749 40.7429 39.749 36.1698 39.749 31.5011C41.7663 31.5011 43.7816 31.5011 45.939 31.5011C45.763 31.2444 45.693 31.1122 45.5979 31.007C43.3166 28.4696 41.0272 25.9387 38.7488 23.397C36.6195 21.0218 34.4941 18.6424 32.3858 16.2468C32.0507 15.8665 31.8557 15.8568 31.5137 16.2404C28.4572 19.6651 25.3807 23.0693 22.3152 26.4855C20.9689 27.9862 19.6357 29.5009 18.2975 31.0113C18.1975 31.1241 18.1125 31.2498 17.9344 31.4807C20.0418 31.4807 22.0401 31.4807 24.0814 31.4807C24.0994 31.7332 24.1225 31.905 24.1225 32.0758C24.1245 36.3191 24.1205 40.5613 24.1295 44.8046C24.1305 45.1935 24.0724 45.375 23.6454 45.3729C19.5447 45.3514 15.444 45.4062 11.3454 45.3127C10.2642 45.288 9.17103 44.9024 8.12086 44.5532C6.26356 43.9356 4.73431 42.7281 3.4231 41.208C2.17489 39.761 1.26875 38.1035 0.667649 36.2246C-0.0294639 34.0439 -0.12848 31.8094 0.131562 29.5771C0.369601 27.5307 1.08372 25.6336 2.18289 23.8997C3.15205 22.3711 4.31024 21.0648 5.77548 20.1259C6.75764 19.4975 7.82981 19.0237 8.88498 18.5392C9.28304 18.3555 9.74712 18.3351 10.0682 18.2653Z" fill="#3AABF6"/>
</svg>
