<svg width="20" height="20" viewBox="0 0 20 20" fill="none" xmlns="http://www.w3.org/2000/svg">
<path d="M10.796 10.1922L3.45787 11.4147C3.3735 11.4287 3.29433 11.4648 3.22831 11.5192C3.1623 11.5735 3.11177 11.6443 3.0818 11.7244L0.551645 18.5022C0.310028 19.1256 0.961809 19.7198 1.56001 19.4198L19.0967 10.6529C19.2179 10.5922 19.3198 10.4989 19.3911 10.3836C19.4623 10.2682 19.5 10.1353 19.5 9.99978C19.5 9.86422 19.4623 9.73134 19.3911 9.61599C19.3198 9.50064 19.2179 9.40739 19.0967 9.34665L1.56001 0.579738C0.961809 0.280689 0.310028 0.874891 0.551645 1.49734L3.08278 8.27514C3.11274 8.35523 3.16327 8.42603 3.22929 8.48041C3.2953 8.53478 3.37447 8.57082 3.45884 8.5849L10.797 9.8074C10.8428 9.8147 10.8844 9.83808 10.9145 9.87334C10.9446 9.9086 10.9611 9.95343 10.9611 9.99978C10.9611 10.0461 10.9446 10.091 10.9145 10.1262C10.8844 10.1615 10.8428 10.1849 10.797 10.1922H10.796Z" fill="white"/>
</svg>
