<svg width="48" height="48" viewBox="0 0 48 48" fill="none" xmlns="http://www.w3.org/2000/svg">
<path d="M24.2067 34.3333H9.90658C8.8536 34.3333 8 33.4797 8 32.4267V12.9067C8 11.8537 8.8536 11.0001 9.90657 11.0001L35.1276 11C36.1805 11 37.0341 11.8536 37.0341 12.9066V17.0936" stroke="black" stroke-width="1.65342" stroke-linecap="round"/>
<path d="M20.4492 25.2368V20.0658C20.4492 19.9158 20.6081 19.8192 20.7413 19.8882L25.694 22.4555C25.8375 22.5299 25.838 22.7349 25.695 22.8101L20.7423 25.4139C20.6091 25.4839 20.4492 25.3873 20.4492 25.2368Z" fill="black" stroke="black" stroke-width="1.65342"/>
<mask id="path-3-inside-1_1032_283507" fill="white">
<path fill-rule="evenodd" clip-rule="evenodd" d="M38.7466 26.627H28.7827C27.5558 26.627 26.565 27.6286 26.5783 28.8554L26.6283 33.4761C26.6511 35.5904 28.3716 37.2923 30.486 37.2923H37.1429C39.2899 37.2923 41.0239 35.5395 41.0007 33.3926L40.9511 28.8077C40.938 27.5995 39.9549 26.627 38.7466 26.627ZM33.7165 30.5792C33.414 30.5792 33.1687 30.8244 33.1687 31.1269C33.1687 31.4294 33.414 31.6747 33.7165 31.6747C34.019 31.6747 34.2642 31.4294 34.2642 31.1269C34.2642 30.8244 34.019 30.5792 33.7165 30.5792ZM32.0665 31.1269C32.0665 30.2156 32.8052 29.4769 33.7165 29.4769C34.6278 29.4769 35.3665 30.2156 35.3665 31.1269C35.3665 31.8526 34.8981 32.4688 34.2471 32.6898V34.1504C34.2471 34.4548 34.0004 34.7016 33.696 34.7016C33.3916 34.7016 33.1448 34.4548 33.1448 34.1504V32.6752C32.5153 32.4427 32.0665 31.8372 32.0665 31.1269Z"/>
</mask>
<path fill-rule="evenodd" clip-rule="evenodd" d="M38.7466 26.627H28.7827C27.5558 26.627 26.565 27.6286 26.5783 28.8554L26.6283 33.4761C26.6511 35.5904 28.3716 37.2923 30.486 37.2923H37.1429C39.2899 37.2923 41.0239 35.5395 41.0007 33.3926L40.9511 28.8077C40.938 27.5995 39.9549 26.627 38.7466 26.627ZM33.7165 30.5792C33.414 30.5792 33.1687 30.8244 33.1687 31.1269C33.1687 31.4294 33.414 31.6747 33.7165 31.6747C34.019 31.6747 34.2642 31.4294 34.2642 31.1269C34.2642 30.8244 34.019 30.5792 33.7165 30.5792ZM32.0665 31.1269C32.0665 30.2156 32.8052 29.4769 33.7165 29.4769C34.6278 29.4769 35.3665 30.2156 35.3665 31.1269C35.3665 31.8526 34.8981 32.4688 34.2471 32.6898V34.1504C34.2471 34.4548 34.0004 34.7016 33.696 34.7016C33.3916 34.7016 33.1448 34.4548 33.1448 34.1504V32.6752C32.5153 32.4427 32.0665 31.8372 32.0665 31.1269Z" fill="black"/>
<path d="M26.5783 28.8554L28.2316 28.8375L26.5783 28.8554ZM26.6283 33.4761L28.2816 33.4582L26.6283 33.4761ZM41.0007 33.3926L39.3473 33.4105V33.4105L41.0007 33.3926ZM40.9511 28.8077L42.6044 28.7898V28.7898L40.9511 28.8077ZM34.2471 32.6898L33.7157 31.1241L32.5937 31.5049V32.6898H34.2471ZM33.1448 32.6752H34.7983V31.5233L33.7177 31.1242L33.1448 32.6752ZM28.7827 28.2804H38.7466V24.9735H28.7827V28.2804ZM28.2316 28.8375C28.2283 28.5308 28.476 28.2804 28.7827 28.2804V24.9735C26.6357 24.9735 24.9017 26.7264 24.9249 28.8733L28.2316 28.8375ZM28.2816 33.4582L28.2316 28.8375L24.9249 28.8733L24.9749 33.494L28.2816 33.4582ZM30.486 35.6389C29.2778 35.6389 28.2947 34.6664 28.2816 33.4582L24.9749 33.494C25.0076 36.5144 27.4654 38.9458 30.486 38.9458V35.6389ZM37.1429 35.6389H30.486V38.9458H37.1429V35.6389ZM39.3473 33.4105C39.3606 34.6373 38.3698 35.6389 37.1429 35.6389V38.9458C40.2101 38.9458 42.6872 36.4417 42.654 33.3747L39.3473 33.4105ZM39.2977 28.8256L39.3473 33.4105L42.654 33.3747L42.6044 28.7898L39.2977 28.8256ZM38.7466 28.2804C39.0487 28.2804 39.2945 28.5235 39.2977 28.8256L42.6044 28.7898C42.5815 26.6755 40.8611 24.9735 38.7466 24.9735V28.2804ZM34.8222 31.1269C34.8222 31.7376 34.3271 32.2326 33.7165 32.2326V28.9257C32.5008 28.9257 31.5153 29.9112 31.5153 31.1269H34.8222ZM33.7165 30.0212C34.3271 30.0212 34.8222 30.5163 34.8222 31.1269H31.5153C31.5153 32.3426 32.5008 33.3281 33.7165 33.3281V30.0212ZM32.6108 31.1269C32.6108 30.5163 33.1058 30.0212 33.7165 30.0212V33.3281C34.9322 33.3281 35.9177 32.3426 35.9177 31.1269H32.6108ZM33.7165 32.2326C33.1058 32.2326 32.6108 31.7376 32.6108 31.1269H35.9177C35.9177 29.9112 34.9322 28.9257 33.7165 28.9257V32.2326ZM33.7165 27.8234C31.892 27.8234 30.413 29.3025 30.413 31.1269H33.7199C33.7199 31.125 33.72 31.1248 33.7198 31.1258C33.7196 31.1268 33.7193 31.1278 33.7189 31.1287C33.7183 31.1303 33.718 31.1302 33.7189 31.1293C33.7198 31.1284 33.7199 31.1287 33.7183 31.1294C33.7174 31.1297 33.7164 31.1301 33.7154 31.1303C33.7144 31.1305 33.7145 31.1303 33.7165 31.1303V27.8234ZM37.0199 31.1269C37.0199 29.3025 35.5409 27.8234 33.7165 27.8234V31.1303C33.7184 31.1303 33.7186 31.1305 33.7176 31.1303C33.7166 31.1301 33.7156 31.1297 33.7147 31.1294C33.7131 31.1287 33.7132 31.1284 33.7141 31.1293C33.715 31.1302 33.7147 31.1303 33.714 31.1287C33.7137 31.1278 33.7133 31.1268 33.7131 31.1258C33.7129 31.1248 33.7131 31.125 33.7131 31.1269H37.0199ZM34.7786 34.2555C36.0799 33.8138 37.0199 32.5823 37.0199 31.1269H33.7131C33.7131 31.1285 33.713 31.1289 33.7131 31.1284C33.7131 31.1279 33.7133 31.1271 33.7136 31.1262C33.7142 31.1244 33.7148 31.1237 33.7146 31.1239C33.7144 31.1242 33.7139 31.1248 33.7135 31.125C33.7132 31.1252 33.7139 31.1247 33.7157 31.1241L34.7786 34.2555ZM32.5937 32.6898V34.1504H35.9006V32.6898H32.5937ZM32.5937 34.1504C32.5937 33.5416 33.0872 33.0481 33.696 33.0481V36.355C34.9135 36.355 35.9006 35.368 35.9006 34.1504H32.5937ZM33.696 33.0481C34.3048 33.0481 34.7983 33.5416 34.7983 34.1504H31.4914C31.4914 35.368 32.4784 36.355 33.696 36.355V33.0481ZM34.7983 34.1504V32.6752H31.4914V34.1504H34.7983ZM30.413 31.1269C30.413 32.5516 31.3141 33.7617 32.572 34.2263L33.7177 31.1242C33.7193 31.1248 33.7198 31.1253 33.7194 31.125C33.719 31.1247 33.7185 31.1242 33.7183 31.1239C33.7182 31.1238 33.7188 31.1245 33.7194 31.1263C33.7197 31.1272 33.7198 31.128 33.7199 31.1284C33.72 31.1289 33.7199 31.1285 33.7199 31.1269H30.413Z" fill="black" mask="url(#path-3-inside-1_1032_283507)"/>
<path d="M29.5078 27.099V24.7017C29.5078 22.3809 31.3892 20.4995 33.71 20.4995V20.4995C36.0308 20.4995 37.9122 22.3809 37.9122 24.7017V27.086" stroke="black" stroke-width="1.65342" stroke-linecap="round"/>
</svg>
