<svg width="48" height="48" viewBox="0 0 48 48" fill="none" xmlns="http://www.w3.org/2000/svg">
<mask id="path-1-inside-1_1033_283490" fill="white">
<path fill-rule="evenodd" clip-rule="evenodd" d="M37.3046 26.4531H27.6347C26.3706 26.4531 25.3497 27.4851 25.3634 28.7491L25.4101 33.0676C25.4337 35.246 27.2063 36.9996 29.3848 36.9996H35.6475C37.8596 36.9996 39.6462 35.1936 39.6222 32.9816L39.5759 28.6999C39.5624 27.4551 38.5495 26.4531 37.3046 26.4531ZM32.42 30.3843C32.1335 30.3843 31.9012 30.6166 31.9012 30.9031C31.9012 31.1896 32.1335 31.4219 32.42 31.4219C32.7065 31.4219 32.9388 31.1896 32.9388 30.9031C32.9388 30.6166 32.7065 30.3843 32.42 30.3843ZM30.7655 30.9031C30.7655 29.9894 31.5062 29.2486 32.42 29.2486C33.3337 29.2486 34.0745 29.9894 34.0745 30.9031C34.0745 31.6251 33.6121 32.239 32.9673 32.4649V33.8928C32.9673 34.2064 32.7131 34.4607 32.3995 34.4607C32.0858 34.4607 31.8316 34.2064 31.8316 33.8928V32.4499C31.2084 32.2127 30.7655 31.6096 30.7655 30.9031Z"/>
</mask>
<path fill-rule="evenodd" clip-rule="evenodd" d="M37.3046 26.4531H27.6347C26.3706 26.4531 25.3497 27.4851 25.3634 28.7491L25.4101 33.0676C25.4337 35.246 27.2063 36.9996 29.3848 36.9996H35.6475C37.8596 36.9996 39.6462 35.1936 39.6222 32.9816L39.5759 28.6999C39.5624 27.4551 38.5495 26.4531 37.3046 26.4531ZM32.42 30.3843C32.1335 30.3843 31.9012 30.6166 31.9012 30.9031C31.9012 31.1896 32.1335 31.4219 32.42 31.4219C32.7065 31.4219 32.9388 31.1896 32.9388 30.9031C32.9388 30.6166 32.7065 30.3843 32.42 30.3843ZM30.7655 30.9031C30.7655 29.9894 31.5062 29.2486 32.42 29.2486C33.3337 29.2486 34.0745 29.9894 34.0745 30.9031C34.0745 31.6251 33.6121 32.239 32.9673 32.4649V33.8928C32.9673 34.2064 32.7131 34.4607 32.3995 34.4607C32.0858 34.4607 31.8316 34.2064 31.8316 33.8928V32.4499C31.2084 32.2127 30.7655 31.6096 30.7655 30.9031Z" fill="black"/>
<path d="M25.3634 28.7491L23.66 28.7675L25.3634 28.7491ZM25.4101 33.0676L27.1136 33.0492L25.4101 33.0676ZM39.6222 32.9816L41.3257 32.9632L39.6222 32.9816ZM39.5759 28.6999L37.8725 28.7184V28.7184L39.5759 28.6999ZM32.9673 32.4649L32.4039 30.8572L31.2638 31.2568V32.4649H32.9673ZM31.8316 32.4499H33.5352V31.2755L32.4376 30.8578L31.8316 32.4499ZM27.6347 28.1567H37.3046V24.7496H27.6347V28.1567ZM27.0669 28.7307C27.0634 28.4147 27.3187 28.1567 27.6347 28.1567V24.7496C25.4226 24.7496 23.636 26.5555 23.66 28.7675L27.0669 28.7307ZM27.1136 33.0492L27.0669 28.7307L23.66 28.7675L23.7067 33.0861L27.1136 33.0492ZM29.3848 35.296C28.14 35.296 27.1271 34.294 27.1136 33.0492L23.7067 33.0861C23.7404 36.1981 26.2727 38.7031 29.3848 38.7031V35.296ZM35.6475 35.296H29.3848V38.7031H35.6475V35.296ZM37.9188 33.0001C37.9325 34.2641 36.9116 35.296 35.6475 35.296V38.7031C38.8077 38.7031 41.3599 36.1232 41.3257 32.9632L37.9188 33.0001ZM37.8725 28.7184L37.9188 33.0001L41.3257 32.9632L41.2794 28.6815L37.8725 28.7184ZM37.3046 28.1567C37.6159 28.1567 37.8691 28.4072 37.8725 28.7184L41.2794 28.6815C41.2558 26.5031 39.4832 24.7496 37.3046 24.7496V28.1567ZM33.6047 30.9031C33.6047 31.5574 33.0743 32.0879 32.42 32.0879V28.6808C31.1926 28.6808 30.1977 29.6758 30.1977 30.9031H33.6047ZM32.42 29.7184C33.0743 29.7184 33.6047 30.2488 33.6047 30.9031H30.1977C30.1977 32.1305 31.1926 33.1255 32.42 33.1255V29.7184ZM31.2352 30.9031C31.2352 30.2488 31.7657 29.7184 32.42 29.7184V33.1255C33.6474 33.1255 34.6423 32.1305 34.6423 30.9031H31.2352ZM32.42 32.0879C31.7657 32.0879 31.2352 31.5574 31.2352 30.9031H34.6423C34.6423 29.6758 33.6474 28.6808 32.42 28.6808V32.0879ZM32.42 27.5451C30.5654 27.5451 29.062 29.0485 29.062 30.9031H32.469C32.469 30.9068 32.468 30.9145 32.4645 30.9227C32.4615 30.9298 32.4579 30.9346 32.4547 30.9378C32.4515 30.941 32.4467 30.9446 32.4396 30.9476C32.4314 30.9511 32.4236 30.9522 32.42 30.9522V27.5451ZM35.778 30.9031C35.778 29.0485 34.2746 27.5451 32.42 27.5451V30.9522C32.4164 30.9522 32.4086 30.9511 32.4004 30.9476C32.3933 30.9446 32.3885 30.941 32.3853 30.9378C32.3821 30.9346 32.3785 30.9298 32.3755 30.9227C32.372 30.9145 32.3709 30.9068 32.3709 30.9031H35.778ZM33.5307 34.0726C34.8371 33.6148 35.778 32.3711 35.778 30.9031H32.3709C32.3709 30.9007 32.3715 30.8951 32.3737 30.8882C32.3758 30.8819 32.3785 30.8769 32.3811 30.8734C32.3853 30.8676 32.3919 30.8615 32.4039 30.8572L33.5307 34.0726ZM31.2638 32.4649V33.8928H34.6709V32.4649H31.2638ZM31.2638 33.8928C31.2638 33.2656 31.7722 32.7571 32.3995 32.7571V36.1642C33.6539 36.1642 34.6709 35.1473 34.6709 33.8928H31.2638ZM32.3995 32.7571C33.0267 32.7571 33.5352 33.2656 33.5352 33.8928H30.1281C30.1281 35.1473 31.145 36.1642 32.3995 36.1642V32.7571ZM33.5352 33.8928V32.4499H30.1281V33.8928H33.5352ZM29.062 30.9031C29.062 32.3398 29.9634 33.5617 31.2257 34.0421L32.4376 30.8578C32.4488 30.8621 32.4551 30.868 32.4592 30.8738C32.4617 30.8775 32.4644 30.8824 32.4664 30.8886C32.4685 30.8953 32.469 30.9008 32.469 30.9031H29.062Z" fill="black" mask="url(#path-1-inside-1_1033_283490)"/>
<path d="M30.5078 21.7973L30.8806 21.1839C31.5639 20.0596 32.7648 19.3521 34.0794 19.2995V19.2995C37.2191 19.1738 39.2275 22.6031 37.5819 25.28L36.581 26.9083" stroke="black" stroke-width="1.70354" stroke-linecap="round"/>
<path d="M23.1838 34.0731H8.96437C7.87948 34.0731 7 33.1936 7 32.1087V12.9645C7 11.8796 7.87948 11.0001 8.96437 11.0001L33.746 11C34.8309 11 35.7103 11.8795 35.7103 12.9644V15.7729" stroke="black" stroke-width="1.70354" stroke-linecap="round"/>
<path d="M19.3086 25.0736V19.9676C19.3086 19.8177 19.4675 19.721 19.6006 19.7901L24.4911 22.3251C24.6345 22.3994 24.6351 22.6044 24.4921 22.6796L19.6017 25.2507C19.4685 25.3207 19.3086 25.2241 19.3086 25.0736Z" fill="black" stroke="black" stroke-width="1.70354"/>
</svg>
