<svg width="41" height="25" viewBox="0 0 41 25" fill="none" xmlns="http://www.w3.org/2000/svg">
<path d="M1.02537 5V20C1.02537 23.2 3.96012 24 5.46524 24H12.8405C14.3206 24 14.839 24 16.8124 21.5C18.3911 19.5 19.2541 19.5 20.2408 19.5C21.2025 19.5 22.5102 19.5 23.6943 21.5C24.8783 23.5 25.8321 24 26.6544 24H35.5598C39.112 24 40 21.3333 40 20V5C40 1.8 37.3688 1 36.0532 1H4.9722C1.42005 1 0.860914 3.66667 1.02537 5Z" stroke="black" stroke-width="2"/>
<circle cx="11.5" cy="11.5" r="4.5" stroke="black" stroke-width="2"/>
<circle cx="29.5" cy="11.5" r="4.5" stroke="black" stroke-width="2"/>
</svg>
