<?xml version="1.0" encoding="UTF-8"?>
<svg xmlns="http://www.w3.org/2000/svg" xmlns:xlink="http://www.w3.org/1999/xlink" width="43px" height="43px" viewBox="0 0 43 43" version="1.1">
<g id="surface1">
<path style=" stroke:none;fill-rule:nonzero;fill:rgb(0%,0%,0%);fill-opacity:1;" d="M 28.890625 0.152344 C 28.335938 0.429688 28.304688 0.578125 28.304688 3.285156 C 28.304688 5.644531 28.304688 5.695312 28.496094 5.972656 C 28.839844 6.484375 29.445312 6.617188 29.964844 6.296875 C 30.453125 5.996094 30.484375 5.8125 30.484375 3.214844 C 30.484375 0.597656 30.460938 0.453125 29.890625 0.152344 C 29.539062 -0.0429688 29.269531 -0.0429688 28.890625 0.152344 Z M 28.890625 0.152344 "/>
<path style=" stroke:none;fill-rule:nonzero;fill:rgb(0%,0%,0%);fill-opacity:1;" d="M 38.085938 3.492188 C 37.800781 3.636719 35.046875 6.339844 34.675781 6.835938 C 34.015625 7.726562 34.878906 8.867188 35.921875 8.472656 C 36.222656 8.363281 39.347656 5.257812 39.515625 4.90625 C 39.582031 4.753906 39.640625 4.542969 39.640625 4.433594 C 39.640625 4.125 39.355469 3.679688 39.042969 3.511719 C 38.699219 3.324219 38.421875 3.316406 38.085938 3.492188 Z M 38.085938 3.492188 "/>
<path style=" stroke:none;fill-rule:nonzero;fill:rgb(0%,0%,0%);fill-opacity:1;" d="M 21.128906 3.695312 C 20.601562 3.855469 20.265625 4.402344 20.367188 4.929688 C 20.417969 5.199219 20.675781 5.507812 22.15625 6.996094 C 23.953125 8.792969 24.1875 8.96875 24.683594 8.84375 C 25.230469 8.710938 25.53125 8.304688 25.53125 7.71875 C 25.53125 7.367188 25.507812 7.332031 23.75 5.566406 C 22.769531 4.585938 21.886719 3.753906 21.792969 3.730469 C 21.449219 3.636719 21.367188 3.628906 21.128906 3.695312 Z M 21.128906 3.695312 "/>
<path style=" stroke:none;fill-rule:nonzero;fill:rgb(0%,0%,0%);fill-opacity:1;" d="M 28.847656 9.648438 C 28.714844 9.734375 22.179688 16.226562 14.34375 24.070312 C 4.527344 33.894531 0.0742188 38.414062 0.0351562 38.574219 C -0.101562 39.128906 0 39.269531 1.832031 41.085938 C 2.789062 42.035156 3.652344 42.855469 3.753906 42.90625 C 4.007812 43.035156 4.332031 43.023438 4.601562 42.882812 C 4.878906 42.730469 33.28125 14.3125 33.417969 14.050781 C 33.542969 13.796875 33.535156 13.386719 33.390625 13.117188 C 33.242188 12.851562 30.101562 9.71875 29.839844 9.582031 C 29.5625 9.441406 29.132812 9.472656 28.847656 9.648438 Z M 30.5625 13.253906 L 30.929688 13.621094 L 29.410156 15.140625 L 27.882812 16.671875 L 27.109375 15.890625 L 26.328125 15.117188 L 29.34375 12.101562 L 29.765625 12.488281 C 30 12.707031 30.359375 13.042969 30.5625 13.253906 Z M 25.574219 17.46875 L 26.328125 18.226562 L 4.15625 40.398438 L 2.601562 38.84375 L 13.664062 27.78125 C 19.753906 21.691406 24.75 16.710938 24.773438 16.710938 C 24.800781 16.710938 25.160156 17.058594 25.574219 17.46875 Z M 25.574219 17.46875 "/>
<path style=" stroke:none;fill-rule:nonzero;fill:rgb(0%,0%,0%);fill-opacity:1;" d="M 16.316406 11.171875 C 15.796875 11.480469 15.636719 12.144531 15.957031 12.664062 C 16.257812 13.152344 16.445312 13.1875 19.039062 13.1875 C 21.148438 13.1875 21.40625 13.167969 21.667969 13.035156 C 22.40625 12.648438 22.441406 11.597656 21.726562 11.171875 C 21.476562 11.011719 21.289062 11 19.023438 11 C 16.753906 11 16.570312 11.011719 16.316406 11.171875 Z M 16.316406 11.171875 "/>
<path style=" stroke:none;fill-rule:nonzero;fill:rgb(0%,0%,0%);fill-opacity:1;" d="M 37.144531 12.640625 C 36.632812 12.859375 36.382812 13.597656 36.640625 14.109375 C 36.703125 14.21875 36.878906 14.402344 37.027344 14.503906 C 37.304688 14.695312 37.355469 14.695312 39.699219 14.695312 C 41.5625 14.695312 42.144531 14.671875 42.371094 14.578125 C 43.160156 14.242188 43.183594 13.085938 42.402344 12.664062 C 42.152344 12.53125 41.890625 12.515625 39.765625 12.515625 C 37.9375 12.523438 37.355469 12.546875 37.144531 12.640625 Z M 37.144531 12.640625 "/>
<path style=" stroke:none;fill-rule:nonzero;fill:rgb(0%,0%,0%);fill-opacity:1;" d="M 34.851562 17.476562 C 34.515625 17.613281 34.191406 17.980469 34.132812 18.273438 C 34.03125 18.820312 34.199219 19.039062 36.011719 20.84375 C 37.867188 22.691406 38.003906 22.785156 38.589844 22.59375 C 39.054688 22.441406 39.304688 22.070312 39.304688 21.558594 L 39.304688 21.128906 L 37.523438 19.339844 C 35.574219 17.394531 35.398438 17.265625 34.851562 17.476562 Z M 34.851562 17.476562 "/>
<path style=" stroke:none;fill-rule:nonzero;fill:rgb(0%,0%,0%);fill-opacity:1;" d="M 30.351562 20.902344 C 29.847656 21.214844 29.8125 21.398438 29.8125 23.96875 C 29.8125 26.554688 29.847656 26.742188 30.335938 27.042969 C 30.855469 27.363281 31.519531 27.203125 31.828125 26.683594 C 31.988281 26.429688 32 26.246094 32 24.035156 C 32 21.398438 31.964844 21.214844 31.476562 20.914062 C 31.132812 20.703125 30.6875 20.695312 30.351562 20.902344 Z M 30.351562 20.902344 "/>
</g>
</svg>
