<svg width="43" height="43" viewBox="0 0 43 43" fill="none" xmlns="http://www.w3.org/2000/svg">
<path d="M10.6232 32.6287C10.2825 32.4729 9.98894 32.5804 10.0004 32.2112C10.0632 30.2311 10.6754 28.4298 11.7945 26.8132C12.2862 26.1008 12.8948 25.4667 13.4718 24.8156C13.7641 24.4858 14.0741 24.4978 14.3888 24.8119C15.8049 26.2244 17.4526 27.2572 19.3994 27.7381C23.4248 28.7335 26.9772 27.8206 30.0223 24.9859C30.0981 24.9153 30.1713 24.842 30.2477 24.7719C30.5271 24.517 30.8236 24.5123 31.0962 24.7719C32.6758 26.2862 33.8198 28.0663 34.3199 30.2135C34.471 30.8636 34.5047 31.5413 34.5951 32.2065C34.5951 32.2065 34.4575 32.4708 34.1194 32.6287H10.6232ZM30.6719 25.9112C28.29 28.0969 25.5035 29.2346 22.2912 29.2346C19.079 29.2346 16.2961 28.0922 13.9246 25.9112C12.334 27.5906 11.3282 29.5187 11.1236 31.8513H33.476C33.2668 29.5145 32.2656 27.5838 30.6719 25.9112Z" fill="black"/>
<path d="M22.2848 27.0287C16.7368 26.9892 12.258 22.4824 12.2813 16.9905C12.3042 11.5707 16.6589 6.99844 22.2978 7C27.9792 7 32.3292 11.6216 32.3111 17.0424C32.2924 22.4891 27.8946 26.9991 22.2848 27.0287ZM22.3004 25.919C27.2237 25.9065 31.2154 21.9086 31.205 16.9936C31.1946 11.9623 27.0165 7.99131 22.0864 8.10399C17.3734 8.21356 13.2752 12.1253 13.3931 17.2345C13.5032 21.9984 17.3973 25.9044 22.3004 25.9211V25.919Z" fill="black"/>
<path d="M22.331 13.3881C24.4897 13.4172 26.2002 15.1635 26.1618 17.2952C26.1218 19.5037 24.3443 21.1841 22.1732 21.1228C20.0961 21.0641 18.3731 19.2747 18.4229 17.2282C18.4769 15.0654 20.2425 13.331 22.331 13.3881ZM19.542 17.2666C19.5444 17.8113 19.7083 18.343 20.0127 18.7946C20.3172 19.2463 20.7487 19.5975 21.2526 19.8041C21.7566 20.0107 22.3105 20.0632 22.8444 19.9552C23.3782 19.8472 23.8681 19.5834 24.2521 19.1971C24.6361 18.8108 24.8971 18.3195 25.002 17.785C25.1069 17.2505 25.0511 16.6969 24.8416 16.1942C24.6321 15.6914 24.2783 15.262 23.8249 14.9601C23.3715 14.6583 22.8388 14.4976 22.2942 14.4983C21.9314 14.4983 21.5722 14.57 21.2372 14.7093C20.9023 14.8487 20.5981 15.0528 20.3424 15.3101C20.0866 15.5674 19.8842 15.8727 19.7468 16.2084C19.6095 16.5442 19.5399 16.9038 19.542 17.2666Z" fill="black"/>
<path d="M26.0967 14.2028C25.8789 14.2019 25.6662 14.1363 25.4856 14.0145C25.3049 13.8927 25.1645 13.7201 25.082 13.5184C24.9995 13.3168 24.9787 13.0952 25.0221 12.8817C25.0656 12.6683 25.1714 12.4725 25.3261 12.3191C25.4808 12.1658 25.6776 12.0617 25.8914 12.0202C26.1053 11.9787 26.3267 12.0015 26.5276 12.0858C26.7284 12.1701 26.8998 12.3121 27.02 12.4938C27.1402 12.6755 27.2038 12.8887 27.2028 13.1066C27.203 13.2514 27.1745 13.3949 27.1188 13.5286C27.0632 13.6624 26.9816 13.7837 26.8787 13.8857C26.7758 13.9877 26.6537 14.0682 26.5195 14.1226C26.3853 14.177 26.2416 14.2043 26.0967 14.2028Z" fill="black"/>
</svg>
