<svg width="40" height="40" viewBox="0 0 40 40" fill="none" xmlns="http://www.w3.org/2000/svg">
<g opacity="0.8">
<path d="M11.752 15.6123L12.0241 18.3377C13.1265 18.3377 14.222 18.3768 15.3139 18.3377C16.4058 18.2986 16.7591 18.8138 16.7485 19.8336C16.7379 20.8534 16.2644 21.1732 15.3351 21.1342C14.275 21.088 13.2432 21.1342 12.0877 21.1342L11.7343 23.8418L4.62109 19.7626L11.752 15.6123Z" fill="black"/>
<path d="M26.9171 23.8418C26.8074 22.7202 26.7436 22.0338 26.648 21.0715H23.8755C22.9336 21.0715 21.9492 21.2449 21.9492 19.7412C21.9492 18.326 22.7743 18.2694 23.8082 18.3048C24.7359 18.3366 25.6672 18.3048 26.6409 18.3048C26.7578 17.3849 26.8463 16.656 26.995 15.6123L34.0769 19.7023L26.9171 23.8418Z" fill="black"/>
<rect x="34.5664" y="13.6084" width="1.43488" height="12.9139" rx="0.71744" fill="black"/>
<rect x="3" y="13.6084" width="1.43488" height="12.9139" rx="0.71744" fill="black"/>
</g>
</svg>
