<svg width="199" height="199" viewBox="0 0 199 199" fill="none" xmlns="http://www.w3.org/2000/svg">
<path d="M163.711 72.6405C163.979 73.7952 164.158 74.9687 164.247 76.1506C164.274 103.631 164.274 131.108 164.247 158.579C164.247 171.083 156.525 178.819 144.074 178.826H52.0154C39.5445 178.806 31.7891 171.05 31.7891 158.579C31.7891 119.08 31.7891 79.5791 31.7891 40.0757C31.7891 27.618 39.5445 19.8824 52.022 19.8691C70.6722 19.8691 89.3201 19.8691 107.966 19.8691C109.138 19.9491 110.303 20.1174 111.449 20.3725C111.39 31.4791 111.264 42.5858 111.304 53.6924C111.304 62.7856 119.668 72.2895 128.735 72.6339C140.405 73.0975 152.054 72.6803 163.711 72.6405Z" fill="url(#paint0_linear_4664_98961)"/>
<g filter="url(#filter0_d_4664_98961)">
<path fill-rule="evenodd" clip-rule="evenodd" d="M54.6875 73.9793C55.2398 73.9004 55.7922 73.8222 56.3446 73.7444C62.8302 72.6799 69.4505 72.7383 75.9162 73.917C79.7155 74.6884 83.1693 76.139 85.6906 79.2935C86.2706 79.8914 86.6776 80.6355 86.8682 81.4465C87.0587 82.2574 87.0258 83.1049 86.7728 83.8986C85.3883 88.455 83.7077 92.916 81.7417 97.2534C78.0461 104.575 74.8456 112.036 73.2453 120.095C72.5529 123.403 72.8987 126.845 74.2354 129.95C75.3061 132.436 77.3323 133.242 79.7615 132.091C81.3418 131.41 82.7674 130.415 83.9521 129.167C85.855 126.858 87.6151 124.431 89.3779 122.001L89.379 121.999C90.0688 121.048 90.7591 120.096 91.4585 119.151L93.2429 116.767C93.16 118.149 92.9404 119.531 92.7207 120.912L92.7205 120.913C92.5741 121.834 92.4278 122.755 92.3219 123.675C91.6494 128.094 92.2153 132.614 93.9567 136.731C96.5126 142.337 102.165 143.742 106.69 139.609C108.279 138.291 109.709 136.792 110.95 135.142C113.466 131.418 115.878 127.621 118.289 123.826L118.289 123.826L118.289 123.826L118.294 123.818L118.295 123.817C119.191 122.406 120.087 120.995 120.989 119.588C122.244 117.619 122.669 117.401 124.972 117.999C128.269 119.04 131.834 118.818 134.977 117.378C137.037 116.405 139.021 115.28 140.912 114.013V110.066C140.151 110.748 139.415 111.419 138.695 112.082C137.007 113.668 134.928 114.777 132.671 115.297C130.414 115.817 128.059 115.728 125.847 115.041C123.763 114.476 123.452 114.004 124.143 111.921C124.342 111.251 124.63 110.603 124.918 109.954C125.046 109.667 125.174 109.379 125.294 109.088C125.682 108.14 126.073 107.196 126.464 106.253L126.465 106.251L126.465 106.251C127.478 103.806 128.489 101.368 129.427 98.8767C129.841 97.8086 129.998 96.6586 129.886 95.5189C129.774 94.3792 129.396 93.2816 128.783 92.3144C127.436 90.0349 125.191 89.5974 123.418 91.52C122.031 92.9378 120.953 94.6273 120.252 96.482C118.549 101.612 118.923 106.941 119.296 112.264V112.264L119.319 112.6C119.544 114.255 119.322 115.941 118.675 117.481C116.215 122.109 113.486 126.587 110.501 130.894C108.787 133.138 106.681 135.054 104.284 136.546C100.922 138.791 97.4681 137.64 96.3168 133.979C95.6398 132.036 95.3771 129.974 95.5455 127.923C96.217 121.938 98.1558 116.165 101.233 110.988C102.384 109.031 103.489 107.039 104.491 105.001C104.687 104.687 104.814 104.333 104.862 103.965C104.91 103.597 104.879 103.223 104.769 102.868C104.66 102.513 104.476 102.186 104.229 101.908C103.983 101.631 103.679 101.41 103.34 101.26C101.97 100.523 100.772 100.88 99.8167 102.492C99.3256 103.305 98.8987 104.158 98.4707 105.012L98.4704 105.013L98.4704 105.013C98.1961 105.56 97.9215 106.108 97.6293 106.648C96.772 108.57 95.7188 110.399 94.4863 112.105C90.0999 117.239 85.4948 122.167 80.8897 127.071C80.566 127.427 80.1686 127.708 79.7253 127.895C79.2819 128.082 78.8032 128.17 78.3224 128.154C77.223 127.849 77.295 126.869 77.3663 125.899L77.3664 125.899C77.3839 125.66 77.4014 125.422 77.4014 125.195C77.4391 124.924 77.5167 124.66 77.6316 124.412C78.3567 122.503 79.0649 120.588 79.7731 118.672C81.4828 114.048 83.1924 109.424 85.1379 104.898C85.659 103.686 86.1951 102.481 86.731 101.277L86.7316 101.275L86.7317 101.275L86.7318 101.275C88.6349 96.9974 90.5362 92.7237 91.7578 88.1698C92.2064 86.6537 92.3408 85.062 92.1527 83.4922C91.9646 81.9224 91.4581 80.4074 90.6641 79.0402C87.924 74.3545 83.2614 72.547 78.426 71.1079C70.6313 68.7785 62.6513 68.9765 54.6875 69.7945V73.9793ZM125.176 99.4248L125.695 99.6206L122.01 110.35C121.032 107.656 122.598 102.948 125.176 99.4248Z" fill="url(#paint1_radial_4664_98961)"/>
</g>
<g filter="url(#filter1_d_4664_98961)">
<path d="M163.698 72.9762C152.042 73.016 140.372 73.4332 128.736 72.9762C119.669 72.6318 111.331 63.1279 111.304 54.0347C111.265 42.9281 111.391 31.8215 111.45 20.7148C112.178 21.1832 112.87 21.7033 113.523 22.2712C129.745 38.4665 145.949 54.6727 162.135 70.89C162.708 71.5452 163.23 72.2426 163.698 72.9762Z" fill="#98BDFE"/>
</g>
<defs>
<filter id="filter0_d_4664_98961" x="52.8581" y="69.2324" width="94.3535" height="80.8945" filterUnits="userSpaceOnUse" color-interpolation-filters="sRGB">
<feFlood flood-opacity="0" result="BackgroundImageFix"/>
<feColorMatrix in="SourceAlpha" type="matrix" values="0 0 0 0 0 0 0 0 0 0 0 0 0 0 0 0 0 0 127 0" result="hardAlpha"/>
<feOffset dx="2.23598" dy="4.06541"/>
<feGaussianBlur stdDeviation="2.03271"/>
<feComposite in2="hardAlpha" operator="out"/>
<feColorMatrix type="matrix" values="0 0 0 0 0 0 0 0 0 0 0 0 0 0 0 0 0 0 0.25 0"/>
<feBlend mode="normal" in2="BackgroundImageFix" result="effect1_dropShadow_4664_98961"/>
<feBlend mode="normal" in="SourceGraphic" in2="effect1_dropShadow_4664_98961" result="shape"/>
</filter>
<filter id="filter1_d_4664_98961" x="103.349" y="20.7148" width="68.298" height="68.3683" filterUnits="userSpaceOnUse" color-interpolation-filters="sRGB">
<feFlood flood-opacity="0" result="BackgroundImageFix"/>
<feColorMatrix in="SourceAlpha" type="matrix" values="0 0 0 0 0 0 0 0 0 0 0 0 0 0 0 0 0 0 127 0" result="hardAlpha"/>
<feOffset dy="7.94783"/>
<feGaussianBlur stdDeviation="3.97391"/>
<feComposite in2="hardAlpha" operator="out"/>
<feColorMatrix type="matrix" values="0 0 0 0 0 0 0 0 0 0 0 0 0 0 0 0 0 0 0.25 0"/>
<feBlend mode="normal" in2="BackgroundImageFix" result="effect1_dropShadow_4664_98961"/>
<feBlend mode="normal" in="SourceGraphic" in2="effect1_dropShadow_4664_98961" result="shape"/>
</filter>
<linearGradient id="paint0_linear_4664_98961" x1="-62.3231" y1="19.3665" x2="-62.3231" y2="178.323" gradientUnits="userSpaceOnUse">
<stop stop-color="#5695FF"/>
<stop offset="1" stop-color="#3B7FF5"/>
</linearGradient>
<radialGradient id="paint1_radial_4664_98961" cx="0" cy="0" r="1" gradientUnits="userSpaceOnUse" gradientTransform="translate(67.7413 71.2077) rotate(48.535) scale(94.5492 112.038)">
<stop stop-color="#F9FFFF"/>
<stop offset="0.494792" stop-color="#E6F2FF"/>
<stop offset="1" stop-color="#CEE8FF"/>
</radialGradient>
</defs>
</svg>
