<svg width="746" height="168" viewBox="0 0 746 168" fill="none" xmlns="http://www.w3.org/2000/svg">
<path fill-rule="evenodd" clip-rule="evenodd" d="M298.154 101.925C296.931 100.713 296.09 99.1678 295.736 97.4821C295.382 95.7965 295.53 94.044 296.163 92.4418C296.973 89.3467 298.628 86.5379 300.942 84.3292C303.257 82.1205 306.14 80.599 309.27 79.9348C311.373 79.4051 313.522 79.378 314.926 81.4813C315.505 82.3635 315.786 83.4079 315.728 84.4613C315.669 85.5147 315.275 86.5217 314.602 87.3346C314.513 87.4709 314.423 87.6073 314.333 87.7437C314.086 88.1194 313.839 88.4954 313.592 88.8715L313.575 88.8982C311.733 91.7022 309.89 94.5091 307.918 97.2255C307.011 98.4865 307.216 99.3101 308.335 99.9697C314.96 103.871 314.848 110.296 314.317 116.616C313.956 120.801 313.301 124.995 312.651 129.158L312.651 129.161C312.377 130.915 312.105 132.663 311.855 134.403C311.799 134.96 311.788 135.521 311.822 136.08C311.909 138.687 313.795 139.677 316.083 138.459C321.136 135.771 324.821 131.603 328.535 127.404L328.541 127.397C335.975 118.9 342.715 109.819 348.693 100.242C349.115 99.6824 349.595 99.1693 350.125 98.7114C352.164 96.7158 355.043 97.2279 355.64 100.011C356.063 102.386 356.048 104.819 355.597 107.189C355.395 108.509 354.977 109.788 354.559 111.069C354.198 112.176 353.837 113.283 353.614 114.417C353.229 116.593 353.029 118.797 353.018 121.006C352.927 124.064 354.726 125.101 357.778 124.585C362.918 123.669 367.63 121.132 371.224 117.345C377.598 110.74 383.542 103.72 389.498 96.6846L389.498 96.6844L390.115 95.956C391.182 94.3296 392.055 92.5835 392.715 90.7535C395.789 84.6456 399.749 79.3385 405.973 76.0914C409.835 74.0647 413.984 73.0961 418.264 74.7181C423.972 76.9006 425.735 81.7502 422.373 86.7852C417.923 93.8892 411.155 99.2376 403.215 101.926C402.498 102.21 401.719 102.302 400.955 102.194C399.056 101.708 398.422 102.708 398.178 104.288C397.6 107.357 397.184 110.455 396.93 113.568C396.672 120.086 400.787 122.515 406.44 122.623C411.144 122.718 415.459 120.929 419.665 119.009C429.816 114.356 438.348 107.399 446.569 100.007C446.741 99.8534 446.909 99.6981 447.077 99.5437C447.429 99.2192 447.777 98.899 448.139 98.6056C451.048 96.2282 453.216 93.069 454.39 89.5002C458.017 79.1916 461.875 68.9635 465.734 58.7357L465.735 58.732L465.738 58.7247L465.74 58.7184L465.742 58.7132C467.356 54.4339 468.971 50.1546 470.568 45.8695C470.78 45.3119 470.957 44.7352 471.149 44.1104L471.15 44.1076L471.153 44.0966C471.244 43.8 471.339 43.4926 471.442 43.1712L462.095 43.4825C458.363 43.6901 454.632 43.9489 450.906 44.2074L450.905 44.2074C449.328 44.3169 447.751 44.4263 446.175 44.5317C446.106 44.5408 446.037 44.5432 445.967 44.5386C445.868 44.5291 445.767 44.5199 445.664 44.5107L445.663 44.5106C444.22 44.3806 442.461 44.2221 442.253 42.527C442.211 42.1219 442.253 41.7124 442.376 41.3241C442.499 40.9359 442.701 40.5772 442.969 40.2705C443.237 39.9638 443.566 39.7157 443.934 39.5416C444.302 39.3675 444.702 39.2711 445.109 39.2585C445.733 39.1645 446.357 39.0615 446.981 38.9584L446.981 38.9584C448.629 38.6861 450.28 38.4135 451.943 38.3043C458.364 37.8681 464.787 37.491 471.186 37.2631C471.48 37.3015 471.779 37.2804 472.064 37.2008C472.35 37.1213 472.617 36.985 472.849 36.8002C473.08 36.6153 473.273 36.3856 473.414 36.1248C473.555 35.8641 473.642 35.5775 473.67 35.2823C474.082 33.1647 474.496 31.0483 474.909 28.932L474.91 28.9287L474.911 28.9257L474.911 28.9229C475.923 23.7484 476.935 18.5748 477.909 13.3876C477.935 12.6982 477.8 12.0123 477.516 11.384C477.055 10.006 476.535 8.64488 476.016 7.28374L476.015 7.28192C475.589 6.42595 475.442 5.45825 475.594 4.51446C475.746 3.57068 476.19 2.69815 476.863 2.01918C477.621 1.26874 478.571 0.740383 479.608 0.491469C480.645 0.242555 481.731 0.282599 482.747 0.607253C484.696 1.07217 486.43 2.18122 487.669 3.75474C488.908 5.32825 489.58 7.27408 489.576 9.27702C489.335 14.2733 488.753 19.2472 487.832 24.1637C487.358 26.8726 486.614 29.5425 485.877 32.1874L485.877 32.1884L485.877 32.1895L485.877 32.1902C485.531 33.4327 485.186 34.6698 484.872 35.9028L514.807 34.9058C519.152 34.7611 523.503 34.8128 527.842 34.8643L528.671 34.8741C529.76 34.7941 530.847 35.0463 531.789 35.5974C532.732 36.1485 533.485 36.9725 533.949 37.9606C535.144 40.4565 533.857 42.7829 531.143 42.7695C527.777 42.7602 524.41 42.7026 521.041 42.6451L521.04 42.6451C517.418 42.5832 513.793 42.5213 510.167 42.5191C500.924 42.5007 491.688 42.5859 482.461 42.7746C481.795 42.7968 480.862 43.7472 480.56 44.469C475.771 55.6017 471.031 66.7574 466.342 77.9362C465.389 80.2075 464.433 82.4788 463.476 84.7508L463.476 84.7525C459.816 93.4469 456.152 102.151 452.611 110.898C449.904 117.468 448.108 124.378 447.275 131.435C447.043 133.281 447.035 135.149 447.252 136.997C447.305 137.664 447.516 138.31 447.869 138.879C448.222 139.448 448.706 139.925 449.281 140.269C449.855 140.613 450.504 140.814 451.173 140.855C451.841 140.897 452.51 140.778 453.123 140.508C455.75 139.244 458.169 137.589 460.3 135.598C466.614 129.702 470.848 122.322 475.089 114.929C475.272 114.61 475.455 114.291 475.639 113.972C476.786 111.941 477.955 109.915 479.127 107.886L479.127 107.886L479.127 107.885L479.132 107.877C480.819 104.955 482.51 102.026 484.143 99.0673C484.856 97.7897 485.471 96.4543 486.088 95.1169C486.608 93.987 487.129 92.8557 487.711 91.7566C488.618 90.0343 489.648 88.3795 490.793 86.805C491.291 86.0698 492.024 85.5251 492.872 85.2599C493.719 84.9947 494.632 85.0245 495.46 85.3446C496.257 85.5449 496.959 86.0146 497.449 86.674C497.938 87.3334 498.185 88.142 498.146 88.9623C497.992 91.3049 497.572 93.6223 496.893 95.8697C495.896 99.1304 494.805 102.362 493.714 105.593L493.714 105.594L493.714 105.594L493.713 105.595L493.713 105.596C493.005 107.694 492.297 109.791 491.614 111.897C491.32 112.828 491.172 113.798 491.176 114.774C491.273 115.495 491.461 116.202 491.735 116.876C491.963 116.814 492.216 116.774 492.47 116.733C493.052 116.639 493.639 116.545 493.937 116.194C496.53 113.362 498.966 110.39 501.233 107.292C503.464 104.101 505.634 100.863 507.805 97.6251L507.806 97.6233L507.807 97.6221L507.807 97.621C510.965 92.9102 514.123 88.1992 517.468 83.633C520.035 80.1598 523.1 77.0846 526.566 74.507C531.051 71.1694 535.751 73.8007 536.011 79.3972C536.345 86.6161 535.225 93.7142 534.105 100.807L534.105 100.807C534.024 101.323 533.942 101.839 533.861 102.355C533.822 102.602 533.784 102.848 533.746 103.095C533.682 103.477 533.624 103.858 533.547 104.361C533.489 104.741 533.42 105.191 533.33 105.763C534.326 105.17 535.266 104.489 536.139 103.727C544.506 94.2274 555.523 87.4468 567.773 84.2561C577.213 81.9691 587.114 82.4686 596.277 85.6942C604.384 88.3391 611.587 92.6712 618.791 97.0041C620.126 97.807 621.461 98.6099 622.802 99.4021C626.478 101.578 630.15 103.901 633.836 106.233L633.836 106.233C639.901 110.07 646.002 113.931 652.217 117.192C662.878 122.758 675.652 127.276 687.614 128.52C689.952 128.774 692.079 128.933 694.133 128.983L694.135 129.036C704.5 129.492 726.172 130.268 732.969 126.426C734.061 125.83 734.969 124.949 735.598 123.877C737.572 119.926 739.699 120.122 743.22 122.54C745.238 123.911 745.688 125.839 744.009 127.541C742.33 129.507 740.175 131.008 737.749 131.901C732.489 133.302 727.105 134.187 721.673 134.542C720.441 134.54 719.224 134.538 718.022 134.537L718.009 134.537L718.008 134.537C709.633 134.529 701.93 134.522 694.298 133.957L694.299 133.98C694.019 133.952 693.738 133.922 693.457 133.892C692.734 133.834 692.011 133.772 691.289 133.703L691.287 133.641C675.087 131.643 658.304 126.75 646.304 119.89C645.504 119.438 644.704 118.988 643.905 118.537L642.41 117.696L642.409 117.695C631.505 111.555 620.716 105.479 610.345 98.4824C597.967 90.1458 584.74 86.5826 570.189 90.0181C562.529 91.9174 555.361 95.4267 549.164 100.312C541.649 106.019 535.13 112.931 529.871 120.766C528.89 122.514 528.082 124.354 527.459 126.259C522.277 138.976 516.43 151.316 506.664 161.28C503.676 164.644 499.67 166.939 495.256 167.813C493.896 168.115 492.48 168.041 491.16 167.598C489.84 167.156 488.665 166.362 487.762 165.301C486.859 164.241 486.262 162.955 486.036 161.581C485.809 160.207 485.961 158.797 486.475 157.503C487.997 153.245 490.198 149.261 492.992 145.705C500.105 136.607 508.297 128.407 517.388 121.286C519.348 119.72 520.882 117.685 521.847 115.369C525.287 106.223 527.336 96.6123 527.926 86.8584C528.05 85.2528 528.13 83.6486 528.166 82.0459C528.216 80.428 527.639 80.0171 526.157 80.9414C522.964 83.102 520.272 85.9222 518.262 89.2118C516.6 91.6736 514.948 94.1445 513.296 96.6163L513.294 96.6177L513.293 96.6192C509.437 102.386 505.578 108.159 501.584 113.834C499.714 116.45 497.456 118.765 494.888 120.7C489.101 125.045 485.362 122.738 483.951 116.008C483.644 114.556 483.509 113.058 483.365 111.463L483.365 111.462L483.365 111.459C483.295 110.677 483.222 109.872 483.126 109.036C482.968 109.28 482.821 109.508 482.681 109.726L482.678 109.73L482.677 109.731L482.677 109.732L482.674 109.735C482.328 110.272 482.026 110.741 481.715 111.204C480.377 113.296 479.058 115.399 477.739 117.501C474.684 122.373 471.631 127.241 468.349 131.949C465.554 136.089 461.896 139.575 457.627 142.167C454.355 144.1 451.038 144.7 447.584 142.502C446.417 141.723 445.459 140.671 444.792 139.437C444.126 138.203 443.771 136.825 443.76 135.423C443.222 129.24 444.602 123.251 445.967 117.329L445.978 117.281L446.081 116.834C446.141 116.576 446.2 116.319 446.259 116.062C446.833 113.576 447.519 111.121 448.236 108.554L448.236 108.553L448.237 108.548C448.571 107.351 448.912 106.13 449.252 104.871C448.127 105.773 447.045 106.666 445.982 107.542C443.835 109.312 441.767 111.017 439.589 112.607C432.708 117.492 425.627 122.132 417.677 125.199C411.819 127.411 405.915 128.231 399.514 126.145C392.767 123.923 389.171 117.934 388.367 111.599C388.186 110.208 388.18 108.799 388.172 107.235L388.172 107.235L388.172 107.235L388.172 107.234L388.172 107.232C388.168 106.39 388.164 105.502 388.133 104.548C386.76 106.119 385.745 107.349 384.719 108.593L384.595 108.744C379.619 114.723 374.52 120.572 367.992 124.927C364.695 127.291 360.827 128.735 356.787 129.111C348.012 129.64 343.043 123.815 344.087 115.091C344.122 114.795 344.154 114.499 344.191 114.156L344.192 114.146C344.241 113.696 344.299 113.164 344.384 112.441C343.41 113.797 342.497 115.093 341.614 116.344L341.613 116.347L341.612 116.347L341.612 116.348L341.61 116.351C340.131 118.449 338.739 120.422 337.3 122.345C336.451 123.446 335.608 124.553 334.765 125.661L334.764 125.663L334.761 125.666L334.758 125.671C329.77 132.225 324.759 138.812 318.318 144.123C317.259 145.03 316.101 145.814 314.866 146.462C313.747 147.066 312.443 147.231 311.208 146.927C309.973 146.623 308.895 145.871 308.183 144.817C305.221 140.926 305.341 136.518 306.007 132.003C306.282 130.111 306.561 128.221 306.839 126.331L306.839 126.328C307.523 121.682 308.207 117.037 308.853 112.379C309.32 109.042 308.453 107.944 305.687 106.375C302.921 104.806 301.021 105.181 298.542 107.339C295.226 110.101 291.616 112.489 287.776 114.46C283.795 116.448 279.217 116.886 274.931 115.688C271.943 115.017 271.404 115.317 269.874 117.903C268.774 119.753 267.681 121.607 266.587 123.462L266.585 123.467L266.582 123.471C263.643 128.457 260.702 133.446 257.624 138.345C256.099 140.521 254.323 142.511 252.335 144.274C246.691 149.786 239.358 148.221 235.83 141.117C233.413 135.895 232.491 130.104 233.167 124.39C233.264 123.2 233.413 122.009 233.562 120.818L233.562 120.817C233.785 119.031 234.008 117.244 234.056 115.463L231.862 118.606C231.003 119.852 230.155 121.107 229.308 122.36L229.307 122.362L229.307 122.362C227.143 125.565 224.983 128.763 222.634 131.814C221.163 133.471 219.371 134.812 217.367 135.756C214.291 137.341 211.65 136.391 210.166 133.238C208.313 129.3 207.721 124.887 208.47 120.601C210.183 110.164 213.981 100.428 218.422 90.8492C220.766 85.1846 222.737 79.373 224.323 73.4515C224.615 72.4195 224.621 71.3278 224.341 70.2925C224.061 69.2573 223.505 68.3174 222.733 67.573C219.354 63.6225 214.849 61.9042 209.927 61.0745C201.558 59.8351 193.038 60.0436 184.739 61.691C175.319 63.3393 165.902 65.0913 156.671 67.5341C148.336 69.7245 140.206 72.7386 132.092 75.7669C125.362 78.2087 118.664 80.7336 111.966 83.2578L111.965 83.2581L111.965 83.2584L111.964 83.2587L111.964 83.2587C100.435 87.6039 88.9115 91.9473 77.2429 95.8625C60.3108 101.762 42.5633 104.99 24.6382 105.429C19.195 105.436 13.7642 104.911 8.42281 103.864C5.94272 103.134 3.69175 101.779 1.88582 99.9293C0.0980316 98.3428 0.418533 96.3896 2.3407 94.8872C5.69278 92.2399 7.80204 91.9027 10.0346 95.7135C10.7332 96.7418 11.6985 97.5606 12.8271 98.082C20.6484 101.84 28.9763 101.667 37.2943 100.752C57.5229 98.5953 76.6969 92.3812 95.357 84.5382C98.3083 83.3108 101.254 82.0664 104.199 80.8217L104.2 80.8217L104.2 80.8217L104.2 80.8217C116.729 75.528 129.268 70.2301 142.317 66.2178C155.135 62.0417 168.264 58.8921 181.581 56.7989C192.075 55.3224 202.624 54.6152 213.036 57.3528C219.319 58.9971 225.395 61.1229 229.121 67.034C230.202 68.7591 230.918 70.6864 231.227 72.6981C231.537 74.7098 231.432 76.7634 230.92 78.7332C229.543 84.6448 227.28 90.2248 225.015 95.81L225.013 95.8138C224.376 97.3859 223.738 98.9585 223.119 100.539C220.81 106.445 218.809 112.467 216.808 118.49L216.808 118.49C215.978 120.985 215.149 123.48 214.298 125.967C214.161 126.292 214.072 126.634 214.035 126.984C214.045 127.277 214.033 127.584 214.02 127.892C213.97 129.143 213.92 130.407 215.347 130.752C215.967 130.753 216.579 130.619 217.141 130.359C217.703 130.1 218.203 129.721 218.604 129.249C224.319 122.742 230.032 116.205 235.456 109.411C236.968 107.163 238.245 104.765 239.266 102.255C239.619 101.548 239.949 100.831 240.278 100.115C240.792 98.9972 241.305 97.8824 241.902 96.8143C243.062 94.6996 244.587 94.1892 246.382 95.0784C246.825 95.2568 247.225 95.5283 247.554 95.8747C247.884 96.221 248.135 96.6341 248.29 97.086C248.446 97.5378 248.503 98.0179 248.457 98.4936C248.41 98.9692 248.263 99.4295 248.023 99.8431C246.822 102.508 245.485 105.118 244.088 107.685C240.351 114.478 238.104 121.989 237.496 129.717C237.368 132.363 237.794 135.005 238.748 137.476C240.386 142.137 244.879 143.47 249.108 140.437C252.128 138.414 254.756 135.86 256.865 132.898C260.521 127.229 263.841 121.35 266.807 115.292C267.573 113.282 267.788 111.104 267.427 108.984L267.382 108.552C266.674 101.721 265.965 94.8803 267.936 88.2067C268.759 85.7903 270.074 83.5705 271.797 81.687C273.996 79.1374 276.903 79.604 278.733 82.4791C279.564 83.6973 280.097 85.0932 280.29 86.5547C280.483 88.0162 280.33 89.5026 279.844 90.8945C278.743 94.1405 277.548 97.3202 276.349 100.509L276.349 100.509C275.886 101.74 275.423 102.972 274.964 104.21C274.822 104.588 274.669 104.964 274.517 105.34C274.174 106.187 273.832 107.033 273.604 107.903C272.805 110.614 273.225 111.208 275.93 111.844C278.805 112.634 281.839 112.647 284.721 111.882C287.602 111.116 290.229 109.6 292.334 107.487C294.157 105.691 296.068 103.848 298.154 101.925ZM515.01 128.245C516.274 127.117 517.656 126.127 519.132 125.293C518.977 129.757 517.909 134.142 515.993 138.177C512.48 146.601 506.702 153.887 499.3 159.226C498.404 159.903 497.426 160.464 496.39 160.895C494.487 161.641 493.558 160.901 493.713 158.879C493.844 154.794 495.271 150.857 497.787 147.636C503.182 141.229 508.835 135.023 514.483 128.823L514.484 128.821L514.488 128.817L514.489 128.816L515.01 128.245ZM401.222 97.2914C401.921 97.245 402.616 97.1525 403.303 97.0145C407.898 95.7041 411.959 92.9735 414.906 89.2137C416.356 87.287 417.501 85.1482 418.299 82.8727C418.886 81.3703 417.792 80.5763 416.194 81.1189C415.731 81.2779 415.277 81.4613 414.833 81.6684C408.627 84.5442 404.933 89.8573 401.605 95.4547C401.401 96.0229 401.271 96.6155 401.219 97.2173L401.222 97.2914ZM305.193 96.4562L311.903 85.5265C311.093 85.0891 310.204 84.8173 309.287 84.727C308.371 84.6367 307.446 84.7297 306.567 85.0005C305.687 85.2713 304.87 85.7146 304.163 86.3045C303.456 86.8944 302.874 87.6191 302.45 88.4363C300.782 91.3389 301.63 94.0985 305.191 96.3821L305.193 96.4562ZM275.227 92.0714L274.552 91.8418C271.385 96.4848 269.572 102.61 270.947 106.034L275.227 92.0714ZM358.298 83.3983C360.474 81.705 361.972 79.2877 362.519 76.5848C362.447 73.9625 361.098 71.7683 359.562 71.4933C357.265 71.0952 356.22 72.6574 355.612 74.4422C354.882 76.1723 354.443 78.0104 354.31 79.8832C354.507 81.2268 355.107 82.479 356.031 83.4737C356.386 83.6488 356.778 83.7336 357.174 83.7204C357.569 83.7072 357.955 83.5966 358.298 83.3983Z" fill="#262E38"/>
</svg>
