<svg width="44" height="42" viewBox="0 0 44 42" fill="none" xmlns="http://www.w3.org/2000/svg">
<circle cx="21" cy="21" r="21" fill="url(#paint0_radial_201_6)"/>
<g filter="url(#filter0_d_201_6)">
<path fill-rule="evenodd" clip-rule="evenodd" d="M4 8.03696C4.23701 8.0031 4.47405 7.96952 4.71108 7.93614C7.49414 7.47938 10.335 7.50444 13.1096 8.01024C14.7399 8.34124 16.2219 8.96372 17.3039 10.3174C17.5528 10.5739 17.7274 10.8932 17.8092 11.2412C17.891 11.5892 17.8768 11.9529 17.7683 12.2935C17.1741 14.2487 16.453 16.163 15.6094 18.0242C14.0235 21.1662 12.6501 24.3675 11.9634 27.8257C11.6663 29.2455 11.8147 30.7223 12.3883 32.0546C12.8477 33.1217 13.7172 33.4675 14.7596 32.9735C15.4377 32.6812 16.0495 32.2543 16.5579 31.7187C17.3744 30.7282 18.1297 29.6867 18.8861 28.6436L18.8866 28.643L18.8869 28.6426C19.1828 28.2345 19.4789 27.8262 19.779 27.4206L20.5447 26.398C20.5091 26.9908 20.4149 27.5836 20.3206 28.1765L20.3206 28.1765L20.3205 28.1771C20.2577 28.5721 20.1949 28.9671 20.1495 29.3622C19.8609 31.2585 20.1037 33.1978 20.851 34.9644C21.9477 37.3704 24.3734 37.9731 26.3149 36.1995C26.9969 35.634 27.6104 34.9907 28.1429 34.2827C29.2226 32.6847 30.2577 31.0552 31.2922 29.4268L31.2923 29.4267L31.2943 29.4236L31.2947 29.4229C31.6794 28.8174 32.064 28.212 32.4508 27.6084C32.9893 26.7636 33.1721 26.6697 34.1601 26.9266C35.5748 27.373 37.1048 27.2779 38.4532 26.6598C39.3376 26.2425 40.1888 25.7597 41 25.2159V23.5223C40.6735 23.815 40.3576 24.1029 40.0489 24.3873C39.3245 25.0678 38.4324 25.5439 37.4638 25.7669C36.4952 25.99 35.4847 25.952 34.5356 25.6569C33.6414 25.4149 33.508 25.2123 33.8044 24.3181C33.89 24.0307 34.0134 23.7528 34.1371 23.4744C34.1919 23.3509 34.2468 23.2273 34.2984 23.1028C34.4649 22.6956 34.6329 22.2902 34.8008 21.8853L34.8009 21.8851L34.8009 21.885C35.2357 20.8361 35.6693 19.79 36.072 18.7208C36.2493 18.2625 36.3167 17.769 36.2686 17.2799C36.2206 16.7908 36.0585 16.3199 35.7954 15.9048C35.2174 14.9266 34.254 14.7389 33.4932 15.5639C32.8982 16.1723 32.4357 16.8973 32.1346 17.6932C31.404 19.8947 31.5643 22.1814 31.7243 24.4653V24.4654L31.7344 24.6096C31.8311 25.32 31.7355 26.0433 31.4578 26.7043C30.4025 28.6899 29.2313 30.6117 27.9502 32.4597C27.2149 33.423 26.3111 34.2448 25.2824 34.8854C23.8399 35.8487 22.3578 35.3547 21.8638 33.7837C21.5732 32.9501 21.4605 32.0649 21.5328 31.1851C21.8209 28.6169 22.6529 26.1395 23.9733 23.918C24.4673 23.0781 24.9415 22.2234 25.3714 21.349C25.4557 21.2139 25.5101 21.0622 25.5307 20.9042C25.5513 20.7463 25.5377 20.5857 25.4909 20.4334C25.444 20.2812 25.365 20.1408 25.2591 20.0217C25.1533 19.9027 25.0231 19.8078 24.8773 19.7434C24.2894 19.4272 23.7756 19.5804 23.3656 20.272C23.1549 20.6212 22.9717 20.9869 22.788 21.3535L22.7879 21.3538L22.7879 21.3538C22.6702 21.5887 22.5523 21.824 22.4269 22.0555C22.0591 22.8803 21.6071 23.665 21.0782 24.3972C19.196 26.6005 17.2199 28.715 15.2438 30.8195C15.1048 30.9722 14.9343 31.0929 14.7441 31.1731C14.5538 31.2533 14.3484 31.2911 14.1421 31.2839C13.6703 31.1531 13.7012 30.7327 13.7318 30.3165L13.7318 30.3164C13.7394 30.214 13.7469 30.1118 13.7469 30.0143C13.7631 29.898 13.7964 29.7848 13.8457 29.6783C14.1568 28.8593 14.4607 28.0373 14.7646 27.2153C15.4982 25.231 16.2319 23.2468 17.0667 21.3045C17.2903 20.7846 17.5204 20.2676 17.7503 19.7507L17.7506 19.7501L17.7506 19.75C18.5673 17.9144 19.3832 16.0805 19.9074 14.1263C20.0999 13.4757 20.1576 12.7927 20.0769 12.1191C19.9962 11.4454 19.7788 10.7954 19.4381 10.2087C18.2623 8.19797 16.2615 7.42235 14.1865 6.80481C10.8417 5.8052 7.41739 5.89019 4 6.24119V8.03696ZM34.2498 18.9573L34.4721 19.0413L32.8912 23.6456C32.4713 22.4896 33.1432 20.469 34.2498 18.9573Z" fill="url(#paint1_radial_201_6)"/>
</g>
<defs>
<filter id="filter0_d_201_6" x="3.33665" y="6" width="39.9482" height="34.1725" filterUnits="userSpaceOnUse" color-interpolation-filters="sRGB">
<feFlood flood-opacity="0" result="BackgroundImageFix"/>
<feColorMatrix in="SourceAlpha" type="matrix" values="0 0 0 0 0 0 0 0 0 0 0 0 0 0 0 0 0 0 127 0" result="hardAlpha"/>
<feOffset dx="0.810757" dy="1.4741"/>
<feGaussianBlur stdDeviation="0.737052"/>
<feComposite in2="hardAlpha" operator="out"/>
<feColorMatrix type="matrix" values="0 0 0 0 0 0 0 0 0 0 0 0 0 0 0 0 0 0 0.25 0"/>
<feBlend mode="normal" in2="BackgroundImageFix" result="effect1_dropShadow_201_6"/>
<feBlend mode="normal" in="SourceGraphic" in2="effect1_dropShadow_201_6" result="shape"/>
</filter>
<radialGradient id="paint0_radial_201_6" cx="0" cy="0" r="1" gradientUnits="userSpaceOnUse" gradientTransform="translate(8.40837 2.84462) rotate(55.2702) scale(52.4278)">
<stop stop-color="#00A2FD"/>
<stop offset="0.557292" stop-color="#006FFF"/>
<stop offset="0.973958" stop-color="#006BFF"/>
</radialGradient>
<radialGradient id="paint1_radial_201_6" cx="0" cy="0" r="1" gradientUnits="userSpaceOnUse" gradientTransform="translate(9.6016 6.84761) rotate(48.535) scale(40.5724 48.0773)">
<stop stop-color="#F9FFFF"/>
<stop offset="0.494792" stop-color="#E6F2FF"/>
<stop offset="1" stop-color="#CEE8FF"/>
</radialGradient>
</defs>
</svg>
