<svg width="48" height="48" viewBox="0 0 48 48" fill="none" xmlns="http://www.w3.org/2000/svg">
<path d="M23.592 42.1053C21.3618 42.1053 19.1303 42.0954 16.9001 42.1053C14.1281 42.1213 11.7131 41.157 9.57156 39.4527C7.78724 38.0613 6.45394 36.1736 5.73918 34.0267C5.36235 32.8901 5.09388 31.6635 5.07541 30.4727C5.00029 25.8866 4.95226 21.2969 5.07541 16.7133C5.18009 12.8883 6.89678 9.78988 9.9447 7.44144C11.4939 6.24936 13.2697 5.55973 15.1551 5.17551C15.9494 5.01418 16.7844 5.01665 17.6008 5.01418C21.5096 4.99941 25.4195 5.03389 29.3283 5.00064C31.7026 4.98093 33.9574 5.41565 36.0374 6.57817C37.6261 7.46924 38.9881 8.71448 40.0176 10.2172C41.5175 12.376 42.2342 14.7737 42.2342 17.3955C42.2281 21.8178 42.2589 26.2413 42.2047 30.6635C42.1813 32.7004 41.5298 34.592 40.4461 36.3198C40.1208 36.826 39.7684 37.3143 39.3907 37.7828C39.2528 37.9601 39.0213 38.0598 38.8575 38.2199C38.6617 38.4133 38.4881 38.6325 38.3107 38.8418C38.2238 38.9743 38.1217 39.0962 38.0065 39.2051C37.22 39.7946 36.3892 40.3224 35.5214 40.7839C34.5496 41.2647 33.5307 41.6435 32.4809 41.9144C32.0672 42.0258 31.6409 42.0838 31.2124 42.0868C28.6744 42.1016 26.1363 42.0942 23.5982 42.0942L23.592 42.1053ZM22.315 29.8385V29.8791C24.1757 29.8791 26.0365 29.9 27.8961 29.8705C28.9884 29.8532 29.4859 29.3089 29.497 28.2141C29.5093 27.0898 29.5179 25.9642 29.497 24.8399C29.4711 23.3288 29.497 21.8092 29.3529 20.3092C29.28 19.4825 28.9029 18.7122 28.2945 18.1478C27.6861 17.5833 26.8898 17.2647 26.0599 17.2539C22.3421 17.1702 18.6217 17.1726 14.9014 17.1406C14.819 17.1411 14.7367 17.1473 14.6551 17.1591C13.7598 17.2822 13.2328 17.8007 13.2278 18.7046C13.2131 21.1589 13.1946 23.6145 13.2611 26.0664C13.319 28.1723 14.9039 29.8951 17.0984 29.8458C18.836 29.8077 20.5773 29.8385 22.315 29.8385ZM35.8404 23.5505C35.8404 21.8264 35.8404 20.1122 35.8404 18.393C35.8404 17.9201 35.6987 17.462 35.2332 17.3795C34.8449 17.3347 34.4538 17.4371 34.1372 17.6665C33.1643 18.4053 32.237 19.2107 31.3159 20.0174C30.742 20.5198 30.4009 21.1516 30.4181 21.952C30.4378 22.9138 30.4477 23.8768 30.4181 24.8386C30.387 25.2889 30.4682 25.7398 30.6543 26.151C30.8404 26.5622 31.1257 26.9207 31.4846 27.1945C32.37 27.9124 33.2542 28.6353 34.1126 29.3865C34.5239 29.7473 35.0005 29.8249 35.3896 29.5527C35.6433 29.3754 35.8182 28.9198 35.8268 28.5848C35.8638 26.9075 35.8404 25.229 35.8404 23.5505ZM29.8061 22.5284H29.6891V25.048H29.8061V22.5284ZM36.3711 29.3126C35.6938 29.5909 35.6322 29.7412 35.9881 30.4456C36.131 30.0059 36.2357 29.6993 36.3662 29.3126H36.3711Z" fill="#318EFD"/>
<path d="M22.3151 29.8385C20.5774 29.8385 18.8398 29.8077 17.1034 29.8459C14.9089 29.8951 13.324 28.1723 13.2661 26.0664C13.1996 23.6145 13.2181 21.159 13.2329 18.7046C13.2329 17.8007 13.7649 17.2773 14.6602 17.1591C14.7417 17.1473 14.824 17.1411 14.9065 17.1406C18.6268 17.1726 22.3471 17.1702 26.0649 17.2539C26.8948 17.2648 27.6911 17.5833 28.2995 18.1478C28.9079 18.7123 29.2851 19.4825 29.3579 20.3092C29.5057 21.8092 29.4811 23.3288 29.502 24.8399C29.5217 25.9642 29.5131 27.0898 29.502 28.2141C29.4897 29.3089 28.9922 29.8532 27.9011 29.8705C26.0415 29.9 24.1808 29.8791 22.32 29.8791L22.3151 29.8385Z" fill="#FDFDFE"/>
<path d="M35.8372 23.5504C35.8372 25.2289 35.8606 26.9074 35.8175 28.5847C35.8089 28.9197 35.634 29.3753 35.3803 29.5527C34.9912 29.8248 34.5183 29.7472 34.1033 29.3864C33.2412 28.6352 32.3607 27.9086 31.4753 27.1944C31.1164 26.9207 30.8311 26.5621 30.645 26.1509C30.4589 25.7398 30.3777 25.2888 30.4088 24.8386C30.4421 23.8768 30.4322 22.9137 30.4088 21.9519C30.3916 21.1515 30.7327 20.5197 31.3066 20.0173C32.2277 19.2107 33.1538 18.4077 34.1279 17.6664C34.4445 17.437 34.8356 17.3346 35.2239 17.3794C35.6894 17.462 35.8323 17.9201 35.8311 18.393C35.8249 20.117 35.8311 21.8313 35.8311 23.5504H35.8372Z" fill="#FDFDFE"/>
<path d="M29.7928 22.5286V25.0457H29.6758V22.5273L29.7928 22.5286Z" fill="#088CFC"/>
<path d="M36.3656 29.3125C36.2351 29.6992 36.1304 30.0058 35.9826 30.4455C35.6292 29.7398 35.6883 29.5908 36.3656 29.3125Z" fill="#088CFC"/>
</svg>
