<svg width="54" height="53" viewBox="0 0 54 53" fill="none" xmlns="http://www.w3.org/2000/svg">
<rect x="0.5" y="0.5" width="53" height="52" rx="26" fill="#010101" fill-opacity="0.4" stroke="url(#paint0_linear_5000_107550)"/>
<path d="M34.8435 26.4913C34.8429 27.9491 34.4102 29.374 33.6002 30.586C32.7903 31.798 31.6393 32.7428 30.2926 33.301C28.946 33.8592 27.4641 34.0058 26.0342 33.7223C24.6043 33.4387 23.2904 32.7378 22.2587 31.7079C21.2269 30.6781 20.5235 29.3656 20.2373 27.9363C19.9511 26.5069 20.0949 25.0247 20.6506 23.677C21.2063 22.3293 22.1489 21.1766 23.3594 20.3643C24.5699 19.5521 25.9939 19.1168 27.4517 19.1134C28.4228 19.1077 29.3854 19.2945 30.2839 19.6631C31.1824 20.0317 31.9989 20.5747 32.6863 21.2608C33.3736 21.9468 33.9182 22.7623 34.2884 23.6601C34.6587 24.5579 34.8473 25.5202 34.8435 26.4913Z" fill="white"/>
<path d="M28.4751 12.2367C28.4751 12.9528 28.4844 13.6689 28.4751 14.385C28.4644 15.0256 28.1286 15.4013 27.4834 15.4075C26.8674 15.4075 26.5271 15.024 26.5163 14.4404C26.4886 12.9574 26.4901 11.4744 26.5163 9.99146C26.5255 9.35546 26.9182 8.97509 27.5481 9.00127C28.1348 9.02591 28.4721 9.40474 28.4798 10.013C28.4828 10.7537 28.4751 11.496 28.4751 12.2367Z" fill="white"/>
<path d="M28.4778 40.7696C28.4778 41.4856 28.4778 42.2002 28.4778 42.9163C28.4778 43.5584 28.1559 43.9372 27.5261 43.9942C26.9471 44.0481 26.5159 43.5938 26.5066 42.9055C26.4866 41.498 26.4882 40.092 26.5066 38.686C26.5159 37.9822 26.9147 37.5618 27.4999 37.5664C28.0851 37.5711 28.4639 37.9946 28.4778 38.6952C28.4916 39.3959 28.4778 40.0781 28.4778 40.7696Z" fill="white"/>
<path d="M40.2781 14.747C40.0779 15.095 39.984 15.3722 39.7992 15.5616C38.8013 16.5883 37.7896 17.6041 36.764 18.6092C36.3189 19.0466 35.8015 19.1236 35.3302 18.6754C34.859 18.2273 34.8975 17.7022 35.3395 17.2494C36.3589 16.2054 37.3738 15.1536 38.4502 14.1695C38.6966 13.9447 39.2202 13.8523 39.5513 13.9447C39.8392 14.0279 40.0302 14.4544 40.2781 14.747Z" fill="white"/>
<path d="M35.934 33.8936C36.2959 34.1122 36.59 34.2231 36.7979 34.4248C37.7912 35.3858 38.7675 36.3652 39.7346 37.3508C40.2674 37.8944 40.309 38.4919 39.8378 38.8907C39.3111 39.3358 38.8044 39.2172 38.3425 38.7537C37.3492 37.7558 36.3236 36.7871 35.3765 35.7477C35.2607 35.5934 35.1791 35.4162 35.1374 35.2279C35.0957 35.0396 35.0948 34.8445 35.1347 34.6558C35.2102 34.3679 35.6291 34.1677 35.934 33.8936Z" fill="white"/>
<path d="M20.023 18.0655C19.8351 18.3119 19.6826 18.6954 19.407 18.8155C19.1313 18.9356 18.617 18.931 18.423 18.7508C17.2434 17.6559 16.1038 16.5148 15.0012 15.3413C14.9179 15.2575 14.8547 15.156 14.8162 15.0444C14.7777 14.9327 14.765 14.8138 14.7789 14.6965C14.7928 14.5792 14.8331 14.4666 14.8966 14.3671C14.9602 14.2675 15.0454 14.1837 15.1459 14.1217C15.4693 13.9307 16.1454 13.8553 16.3779 14.057C17.5575 15.1103 18.6509 16.2638 19.7566 17.3987C19.8767 17.5311 19.9013 17.7652 20.023 18.0655Z" fill="white"/>
<path d="M15.7372 39.2474C15.4846 39.058 15.0873 38.9086 14.9811 38.6438C14.8609 38.3358 14.8609 37.8091 15.0534 37.5997C16.1052 36.4493 17.2094 35.3498 18.3443 34.2734C18.7416 33.8961 19.2544 33.9223 19.6548 34.3334C20.0552 34.7446 20.0799 35.2574 19.7057 35.6501C18.6277 36.7804 17.5097 37.8661 16.3917 38.9548C16.2592 39.0842 16.0329 39.1196 15.7372 39.2474Z" fill="white"/>
<path d="M13.2115 27.4724H11.1434C10.4935 27.4724 10.0438 27.2198 10.0023 26.5161C9.96529 25.9216 10.3857 25.529 11.0972 25.5197C12.5016 25.5012 13.9066 25.5012 15.312 25.5197C16.0219 25.529 16.4608 25.9263 16.4208 26.5099C16.3731 27.1983 15.9465 27.4785 15.2812 27.4693C14.5913 27.4601 13.8953 27.4693 13.2115 27.4693V27.4724Z" fill="white"/>
<path d="M41.7073 27.4695C41.0159 27.4695 40.3214 27.4695 39.6361 27.4695C39.0093 27.4695 38.6028 27.18 38.5504 26.5317C38.5027 25.9511 38.9416 25.5338 39.6422 25.5245C41.0744 25.5045 42.5066 25.5107 43.9372 25.5245C44.5655 25.5245 44.9751 25.8433 44.972 26.5009C44.969 27.1584 44.5639 27.4633 43.931 27.471C43.1903 27.4772 42.448 27.4695 41.7073 27.4695Z" fill="white"/>
<defs>
<linearGradient id="paint0_linear_5000_107550" x1="8.5" y1="9.87913e-07" x2="57" y2="51" gradientUnits="userSpaceOnUse">
<stop stop-color="#797979"/>
<stop offset="0.520833" stop-color="#636363" stop-opacity="0"/>
<stop offset="1" stop-color="#636363"/>
</linearGradient>
</defs>
</svg>
