<svg width="32" height="32" viewBox="0 0 32 32" fill="none" xmlns="http://www.w3.org/2000/svg">
<path d="M12.0491 7.36451C12.1891 6.8508 12.3312 6.33709 12.4655 5.82234C12.5789 5.39295 12.6737 4.95888 12.7996 4.53261C12.8629 4.31288 12.9957 4.11959 13.1781 3.98174C13.3606 3.84388 13.5828 3.7689 13.8114 3.76803C15.3971 3.76352 16.9828 3.76352 18.5686 3.76803C19.1411 3.76803 19.5325 4.18181 19.6834 4.86623C19.8437 5.5949 20.028 6.32044 20.2075 7.04598C20.243 7.15573 20.2865 7.26272 20.3377 7.36607C20.4126 7.41447 20.487 7.50347 20.563 7.50451C21.2308 7.51544 21.898 7.51076 22.5658 7.5118C22.6564 7.5118 22.7474 7.52169 22.8427 7.52742C22.6126 7.89175 22.3935 8.22329 22.1952 8.56472C21.987 8.92905 21.7658 9.27985 21.6857 9.70976C21.6185 10.0689 21.4525 10.4093 21.3619 10.7658C21.2677 11.1379 21.2266 11.5247 21.1298 11.8963C21.0845 12.0696 20.9633 12.2226 20.8758 12.385C20.8586 12.3668 20.8409 12.3486 20.8238 12.333L20.7197 12.2242L20.6119 12.1164L20.3975 11.8484L20.0769 11.5252C20.0748 11.5099 20.0717 11.4948 20.0675 11.4799L19.8073 11.2597L19.6511 11.1478L19.4804 10.9979C19.4654 10.9943 19.4501 10.9917 19.4346 10.9901L19.3206 10.8892L19.0651 10.7694L18.9495 10.669C18.9347 10.6653 18.9195 10.6633 18.9043 10.6633C18.8756 10.6201 18.8559 10.5524 18.8163 10.5373C18.3692 10.365 17.9315 10.148 17.4672 10.046C16.5189 9.83251 15.5316 9.86512 14.5994 10.1407C13.6444 10.4233 12.7908 10.9058 12.1329 11.6501C11.7222 12.1144 11.3902 12.6619 11.0919 13.2115C10.5246 14.2525 10.5012 15.3918 10.6683 16.5342C10.7989 17.4294 11.2002 18.22 11.7342 18.9409C11.8784 19.1355 12.0746 19.2917 12.2464 19.4655L12.3645 19.6154L12.8371 19.9995L13.102 20.1604L13.4356 20.4123L13.699 20.5278L14.5073 20.8895L14.6634 20.9015L14.7707 21.0093C14.7301 21.0488 14.6968 21.1035 14.6483 21.1253C14.2637 21.2971 13.8723 21.4537 13.4908 21.6328C12.6908 22.0086 11.8269 22.1673 10.9577 22.2225C9.99739 22.2839 9.02775 22.2704 8.07164 22.083C7.60686 21.9914 7.13166 21.9513 6.66636 21.8602C6.16879 21.7619 5.68006 21.6156 5.18145 21.5235C5.0404 21.4975 4.88842 21.2929 4.7302 21.4985C4.72343 21.3486 4.71094 21.1992 4.71094 21.0498C4.71094 17.0543 4.71094 13.059 4.71094 9.06385C4.71094 8.26336 5.07215 7.71843 5.80029 7.42905C5.89398 7.39157 6.00536 7.39782 6.10789 7.38376C6.17867 7.42696 6.24894 7.50712 6.3192 7.50712C8.17313 7.51371 10.0272 7.51544 11.8815 7.51232C11.9341 7.51988 11.9877 7.51433 12.0377 7.49619C12.0585 7.48317 12.046 7.41083 12.0491 7.36451ZM13.7979 6.25746L13.7224 6.3881C13.7037 6.46148 13.6844 6.53539 13.6657 6.6093C13.6421 6.66682 13.6331 6.72928 13.6395 6.79112C13.6459 6.85296 13.6674 6.91226 13.7022 6.96377C13.737 7.01527 13.784 7.05737 13.839 7.08634C13.8941 7.1153 13.9554 7.13022 14.0175 7.12977C15.4624 7.13602 16.907 7.13602 18.3515 7.12977C18.6326 7.12977 18.8142 6.87266 18.7398 6.59837C18.6144 6.13567 18.4931 5.67088 18.3375 5.21807C18.2995 5.10669 18.1444 4.98386 18.0252 4.96356C17.8217 4.92869 17.6052 4.97085 17.3944 4.98022L14.3475 4.98906L14.1726 5.09316L14.1268 5.14521L13.9317 5.69014C13.9233 5.7375 13.9155 5.78435 13.9072 5.83119C13.8728 5.92748 13.839 6.02377 13.8031 6.12057L13.7979 6.25746ZM7.69065 8.13116V8.15302C7.56617 8.14651 7.44143 8.14651 7.31695 8.15302C6.83707 8.20507 6.37645 8.28366 6.06781 8.73283C5.75553 9.19241 5.83152 9.69727 5.85338 10.1964C5.86058 10.2447 5.8783 10.2909 5.90528 10.3316C5.93226 10.3724 5.96784 10.4067 6.00952 10.4322C6.14693 10.5014 6.3166 10.579 6.45609 10.555C6.66948 10.5181 6.64554 10.3047 6.6294 10.1386C6.61171 9.95386 6.58152 9.77066 6.54873 9.58849C6.45817 9.08467 6.54873 8.62041 7.20609 8.56264C7.58447 8.52933 7.96442 8.51059 8.34229 8.47051C8.41515 8.46323 8.48177 8.39557 8.55047 8.35601C8.49114 8.30396 8.43753 8.22433 8.37143 8.21236C8.14919 8.17384 7.91914 8.15823 7.69065 8.13325V8.13116ZM4.86188 8.92281L4.83533 8.91188V21.1498H4.86188V8.92281Z" fill="#3C5862"/>
<path d="M4.72656 21.4979C4.8827 21.2923 5.03885 21.4979 5.17781 21.5229C5.67643 21.615 6.16671 21.7613 6.66273 21.8596C7.12803 21.9507 7.60322 21.9908 8.06801 22.0824C9.02412 22.2698 9.99376 22.2833 10.954 22.2219C11.8222 22.1667 12.6872 22.0064 13.4924 21.6286C13.8739 21.4495 14.2653 21.2929 14.6499 21.1211C14.6983 21.0992 14.7316 21.0446 14.7722 21.005L14.9898 20.9993L15.0939 21.0029C15.2547 21.0487 15.4145 21.1284 15.5769 21.1331C15.9501 21.1445 16.3248 21.1195 16.699 21.1091H16.9103C16.954 21.1179 16.9989 21.1179 17.0425 21.1091C17.2653 21.0123 17.5656 21.1216 17.7244 20.8546L17.8774 20.8473C18.1251 20.7698 18.3828 20.7141 18.6175 20.6074C18.7981 20.5252 18.9496 20.3789 19.1135 20.2613L19.3217 20.1488L19.4888 19.9969L19.6407 19.9313L19.7526 19.8303L20.0202 19.5633L20.1763 19.4519L20.4475 19.1334C20.4824 19.097 20.5167 19.0605 20.5516 19.0236C20.5719 18.9898 20.5917 18.9554 20.6114 18.9195L20.9211 18.5359L20.9883 18.3319C21.032 18.3064 21.0981 18.2908 21.1158 18.2528C21.2516 17.9566 21.376 17.6563 21.5072 17.357C21.5072 17.3227 21.5103 17.2888 21.5113 17.2529C21.5483 17.1978 21.6081 17.1488 21.6191 17.0869C21.6966 16.6612 21.8023 16.2359 21.8241 15.8071C21.8429 15.4349 21.7632 15.0586 21.7273 14.6839C21.7273 14.649 21.7273 14.6141 21.7273 14.5798C21.6579 14.3112 21.5873 14.0426 21.5155 13.7741C21.5155 13.7397 21.5118 13.7054 21.5103 13.67L21.2527 13.1813C21.2527 13.1646 21.25 13.148 21.2485 13.1292L21.0996 12.9065C21.0767 12.8383 21.0543 12.7701 21.032 12.7024C20.9799 12.5942 20.9279 12.4864 20.8758 12.3787C20.9633 12.2163 21.084 12.0633 21.1298 11.89C21.2266 11.5183 21.2677 11.1316 21.3619 10.7595C21.4525 10.403 21.6185 10.0626 21.6857 9.70346C21.7658 9.27406 21.985 8.92274 22.1952 8.55841C22.3935 8.21698 22.6116 7.88752 22.8427 7.52111C22.7475 7.51538 22.6564 7.50601 22.5658 7.50549C21.898 7.50549 21.2308 7.50914 20.563 7.49821C20.487 7.49821 20.4126 7.40817 20.3377 7.35976L23.4574 7.36965C24.1002 7.37954 24.7435 7.39047 25.3863 7.39672C25.4539 7.38976 25.5206 7.37527 25.5851 7.35352L26.3335 7.38162L26.969 7.6429L26.9862 7.64602L27.1272 7.7574L27.1418 7.76417L27.2579 7.87919L27.2548 7.87607C27.2587 7.91907 27.2687 7.96129 27.2844 8.00151C27.4794 8.3406 27.5783 8.72635 27.5707 9.1174C27.5644 13.3561 27.5618 17.5951 27.5629 21.8341C27.5563 22.0184 27.5251 22.201 27.4702 22.377C27.4145 22.5774 27.3297 22.77 27.2574 22.9657C27.2173 23.0094 27.1767 23.0526 27.1361 23.0963L26.9263 23.2571L26.8597 23.279C26.8164 23.2698 26.7723 23.2655 26.728 23.266C26.3273 23.3144 25.9275 23.4101 25.5268 23.4107C19.1853 23.42 12.8437 23.4219 6.5019 23.4164C6.3978 23.4164 6.28903 23.4029 6.18285 23.4023C6.07667 23.4018 5.98351 23.4107 5.8841 23.4159L5.78 23.3914L5.52549 23.2743L5.50675 23.2712L5.24964 23.0942L5.12212 22.9651C5.12387 22.922 5.11805 22.8788 5.10495 22.8376C4.92278 22.5118 4.78069 22.1771 4.80776 21.7904C4.81088 21.742 4.75571 21.69 4.72812 21.64L4.72656 21.4979Z" fill="#304951"/>
<path d="M30.1176 1.88184H32V7.52889H30.1176V3.76419H26.3529V1.88184H30.1176ZM1.88235 1.88184H5.64706V3.76419H1.88235V7.52889H0V1.88184H1.88235ZM30.1176 27.2936V23.5289H32V29.176H26.3529V27.2936H30.1176ZM1.88235 27.2936H5.64706V29.176H0V23.5289H1.88235V27.2936Z" fill="#C6C6C6"/>
<path d="M5.88672 23.4136C5.98613 23.4084 6.08554 23.4001 6.18547 23.4001C6.2854 23.4001 6.39834 23.4141 6.50452 23.4141C12.8467 23.4141 19.1883 23.4122 25.5294 23.4084C25.9302 23.4084 26.3299 23.3121 26.7307 23.2637C26.7749 23.2632 26.8191 23.2676 26.8623 23.2767C26.6411 23.3569 26.4236 23.45 26.1977 23.512C26.0811 23.5437 25.9489 23.5219 25.8245 23.5219C19.3998 23.5219 12.9752 23.5205 6.55084 23.5177C6.32964 23.5177 6.10792 23.4506 5.88672 23.4136Z" fill="#3C5862"/>
<path d="M27.2604 22.9636C27.3328 22.7679 27.4166 22.5753 27.4733 22.3749C27.5282 22.1989 27.5594 22.0164 27.5659 21.8321C27.5711 17.593 27.5737 13.3541 27.5737 9.11535C27.5814 8.7243 27.4824 8.33855 27.2875 7.99946C27.2718 7.95924 27.2618 7.91702 27.2578 7.87402C27.3853 8.11969 27.5326 8.35702 27.6315 8.6131C27.6867 8.75623 27.6716 8.93007 27.6716 9.08985C27.6716 13.3515 27.6716 17.613 27.6716 21.8743C27.67 22.287 27.5612 22.6622 27.2604 22.9636Z" fill="#3C5862"/>
<path d="M12.0449 7.36327C12.0417 7.40959 12.0542 7.48194 12.0313 7.49495C11.9814 7.5131 11.9278 7.51864 11.8752 7.51109C10.0213 7.51109 8.16715 7.50935 6.31287 7.50588C6.24261 7.50588 6.17235 7.42573 6.10156 7.38253C6.17054 7.37156 6.24002 7.36409 6.30975 7.36015C8.16784 7.35494 10.0258 7.35078 11.8835 7.34766C11.9397 7.34766 11.9923 7.35807 12.0449 7.36327Z" fill="#334D53"/>
<path d="M25.5847 7.361C25.5203 7.38276 25.4536 7.39725 25.3859 7.4042C24.7431 7.39795 24.0998 7.38702 23.457 7.37714C23.4628 7.37037 23.469 7.3584 23.4747 7.3584L25.5847 7.361Z" fill="#3C5862"/>
<path d="M4.72813 21.6396C4.75624 21.6917 4.81089 21.7437 4.80776 21.7901C4.7807 22.1768 4.92279 22.5114 5.10495 22.8373C5.11806 22.8784 5.12387 22.9216 5.12213 22.9648C4.76092 22.5916 4.65683 22.1419 4.72813 21.6396Z" fill="#3C5862"/>
<path d="M26.9707 7.64208L26.332 7.38965L26.9707 7.64208Z" fill="#3C5862"/>
<path d="M5.25 23.0938L5.50711 23.2707L5.25 23.0938Z" fill="#3C5862"/>
<path d="M5.52734 23.2744L5.78133 23.39L5.52734 23.2744Z" fill="#3C5862"/>
<path d="M26.9258 23.2565L27.1376 23.0957L26.9258 23.2565Z" fill="#3C5862"/>
<path d="M27.2606 7.87772L27.1445 7.7627L27.2606 7.87772Z" fill="#3C5862"/>
<path d="M27.1293 7.75552L26.9883 7.64258L27.1293 7.75552Z" fill="#3C5862"/>
<path d="M21.0301 12.7098L21.0973 12.9138C21.1472 12.9877 21.197 13.062 21.2466 13.1366C21.2466 13.1532 21.2498 13.1699 21.2508 13.1886L21.5084 13.6773C21.5084 13.7117 21.5121 13.7461 21.5137 13.7814C21.5657 14.0448 21.6219 14.3076 21.6781 14.5705C21.6781 14.5788 21.7094 14.5819 21.7255 14.5871C21.7255 14.622 21.7255 14.6569 21.7255 14.6912C21.7104 14.8198 21.687 14.9483 21.6812 15.0774C21.6609 15.5604 21.6563 16.0445 21.625 16.5269C21.6089 16.7726 21.5496 17.0162 21.5095 17.2603C21.5095 17.2946 21.5069 17.3285 21.5058 17.3644C21.4621 17.392 21.3971 17.4091 21.3789 17.4482C21.243 17.7428 21.1186 18.042 20.9864 18.3392L20.9193 18.5433L20.6096 18.9269L20.5503 19.0309L20.4462 19.1408L20.175 19.4593L20.0189 19.5707L19.7513 19.8377L19.6394 19.9387L19.4874 20.0037L19.3204 20.1562L19.1122 20.2686C18.956 20.3405 18.7999 20.4097 18.6438 20.4841C18.3877 20.6059 18.1327 20.7313 17.8771 20.8547L17.7241 20.862C17.4946 20.9083 17.2645 20.9505 17.0371 21.0056C16.9887 21.0171 16.9522 21.0769 16.9101 21.1144H16.6987C16.607 21.0938 16.5142 21.078 16.4208 21.067C16.0778 21.0452 15.7343 21.0285 15.3908 21.0124C15.2919 21.0072 15.1925 21.0093 15.0936 21.0082L14.9895 21.0046L14.6647 20.9005L14.5086 20.889C14.48 20.8464 14.4607 20.7792 14.4217 20.7652C14.1838 20.6793 13.9413 20.6049 13.7003 20.5268L13.4349 20.4086C13.3235 20.3247 13.2123 20.2407 13.1012 20.1567L12.8363 19.9954L12.3642 19.6144L12.2461 19.4645C12.2856 19.4052 12.3117 19.3219 12.3668 19.2917C12.5183 19.21 12.676 19.1199 12.8415 19.0898C13.147 19.0351 13.3531 18.6213 13.731 18.8457L13.9715 19.0179C14.0849 19.2574 14.2999 19.313 14.5367 19.3302L14.6101 19.3474L14.7178 19.3994L14.9297 19.4619C15.1415 19.7024 15.5808 19.796 15.8951 19.6701H16.4281C16.7539 19.8012 17.2452 19.6998 17.4467 19.4619L17.5737 19.4411L17.7662 19.3464L17.8386 19.3307C18.1098 19.3245 18.3299 19.2266 18.4632 18.9779L18.6458 18.8545C18.8186 18.8405 18.9696 18.7999 18.9769 18.5833L18.992 18.6042L18.9784 18.5828L19.0882 18.4787L19.1923 18.3699C19.3886 18.3866 19.4292 18.269 19.4182 18.1097L19.5681 17.9015L19.743 17.6376L19.9397 17.2842L19.9439 17.2608C19.9845 17.2358 20.048 17.2202 20.0615 17.1843C20.159 16.9771 20.2419 16.7633 20.3098 16.5446C20.3389 16.4405 20.2942 16.313 20.2833 16.1964C20.289 16.1074 20.2942 16.019 20.2999 15.9305C20.43 15.7676 20.4316 15.4006 20.303 15.2304L20.2812 14.9124C20.2989 14.8838 20.3379 14.8479 20.3332 14.8271C20.2291 14.5002 20.1177 14.1749 20.0064 13.8501C20.0038 13.8429 19.9736 13.8449 19.9543 13.8423L19.9366 13.7716L19.8487 13.6279L19.8278 13.5582C19.806 13.35 19.7534 13.1662 19.5254 13.0949C19.5051 13.0679 19.4848 13.0429 19.4651 13.0143C19.4083 12.8706 19.413 12.6734 19.1814 12.6786L19.0903 12.5854C19.1158 12.4204 19.0201 12.3881 18.8858 12.398L18.8337 12.346L18.6417 12.1987L18.6198 12.1904L18.485 12.0863C18.4829 12.0877 18.4806 12.0886 18.4781 12.0889C18.4756 12.0893 18.4731 12.089 18.4707 12.0882C18.4683 12.0874 18.4662 12.0861 18.4644 12.0843C18.4626 12.0825 18.4613 12.0803 18.4606 12.0779C18.4153 11.99 18.3195 11.8921 18.3341 11.8151C18.4116 11.3987 18.5168 10.9891 18.6131 10.5732L18.9019 10.668C18.9172 10.668 18.9325 10.6701 18.9472 10.6742L19.0627 10.7741L19.3183 10.8939L19.4323 10.9948C19.4477 10.9964 19.463 10.999 19.4781 11.0026L19.6488 11.1525L19.8049 11.2644L20.0652 11.4846C20.0693 11.4995 20.0725 11.5146 20.0745 11.5299L20.3952 11.8531L20.6096 12.1211L20.7173 12.2289L20.7642 12.3423L21.0301 12.7098Z" fill="#06151F"/>
<path d="M13.7355 18.8432C13.3576 18.6188 13.1515 19.0326 12.846 19.0873C12.6805 19.1175 12.5228 19.2075 12.3713 19.2892C12.3162 19.3194 12.2902 19.4027 12.2506 19.462C12.0788 19.2882 11.8826 19.132 11.7384 18.9374C11.2044 18.2165 10.8016 17.428 10.6725 16.5307C10.5054 15.3883 10.5289 14.251 11.0962 13.208C11.3939 12.6599 11.726 12.115 12.1371 11.6466C12.795 10.9033 13.6465 10.4209 14.6037 10.1372C15.5359 9.8616 16.5231 9.82899 17.4715 10.0425C17.9347 10.1466 18.3735 10.3615 18.8205 10.5338C18.8601 10.5489 18.8799 10.6165 18.9085 10.6597L18.6196 10.565C18.5233 10.9814 18.4182 11.3915 18.3407 11.8069C18.3261 11.8839 18.4219 11.9818 18.4671 12.0697C18.4255 12.0584 18.385 12.0431 18.3464 12.0239C17.3127 11.3744 16.1973 11.2432 15.0419 11.5747C12.0075 12.4471 11.0613 16.271 13.3243 18.4637C13.4591 18.5949 13.5986 18.7177 13.7355 18.8432Z" fill="#142F37"/>
<path d="M13.6602 6.60936C13.6789 6.53545 13.6982 6.46154 13.7169 6.38816L13.7924 6.25752C13.7924 6.21224 13.7965 6.16696 13.7991 6.12168C13.8335 6.02487 13.8673 5.92858 13.9032 5.83229C13.9115 5.78545 13.9194 5.73861 13.9277 5.69124L14.1213 5.14527L14.1671 5.09322L14.342 4.98912L17.3904 4.9834C17.4945 5.32171 17.3248 5.85103 17.0609 6.07639C16.6295 6.44073 16.1048 6.58334 15.5703 6.64892C14.9593 6.72282 14.3394 6.72282 13.7148 6.75301L13.6602 6.60936Z" fill="#65C3EC"/>
<path d="M13.6619 6.60938L13.7139 6.75251C14.3385 6.72024 14.9584 6.72024 15.5694 6.64842C16.1039 6.58388 16.6286 6.44023 17.0601 6.07589C17.3239 5.85209 17.4931 5.32277 17.3895 4.9829C17.6003 4.97301 17.8168 4.93085 18.0203 4.96572C18.138 4.98602 18.2931 5.10885 18.3326 5.22024C18.4888 5.67305 18.6095 6.13783 18.7349 6.60053C18.8094 6.87482 18.6277 7.1309 18.3467 7.13194C16.9018 7.13645 15.4572 7.13645 14.0127 7.13194C13.9503 7.13235 13.8889 7.11732 13.8338 7.08817C13.7786 7.05903 13.7316 7.01668 13.6969 6.96492C13.6621 6.91316 13.6407 6.8536 13.6346 6.79155C13.6285 6.72951 13.6379 6.66692 13.6619 6.60938Z" fill="#50B4E3"/>
<path d="M7.69031 8.13281C7.9188 8.1578 8.14885 8.17341 8.37474 8.21349C8.44084 8.22546 8.49445 8.30717 8.55378 8.35714C8.48404 8.39669 8.41742 8.46435 8.34559 8.47164C7.96773 8.51068 7.58778 8.53045 7.2094 8.56376C6.55256 8.62154 6.46148 9.08424 6.55204 9.58962C6.58483 9.77178 6.61501 9.95395 6.63271 10.1398C6.64885 10.3079 6.67279 10.5213 6.45939 10.5561C6.31991 10.5801 6.15023 10.5041 6.01283 10.4333C5.97115 10.4078 5.93556 10.3735 5.90858 10.3328C5.88161 10.292 5.86389 10.2459 5.85668 10.1975C5.83482 9.6984 5.75675 9.19354 6.07112 8.73396C6.37768 8.28479 6.8383 8.20568 7.32026 8.15415C7.44474 8.14764 7.56948 8.14764 7.69396 8.15415L7.69031 8.13281Z" fill="#4D6D76"/>
<path d="M4.85858 8.92206V21.1485H4.83203V8.91113L4.85858 8.92206Z" fill="#374E56"/>
<path d="M13.6992 20.5244C13.9402 20.6025 14.1827 20.6769 14.4206 20.7628C14.4596 20.7768 14.4789 20.844 14.5075 20.8867L13.6992 20.5244Z" fill="#142F37"/>
<path d="M12.3672 19.6133L12.8398 19.9969L12.3672 19.6133Z" fill="#142F37"/>
<path d="M14.1249 5.14453L13.9297 5.68947L14.1249 5.14453Z" fill="#50B4E3"/>
<path d="M20.3987 11.8467L20.0781 11.5234L20.3987 11.8467Z" fill="#192D36"/>
<path d="M14.6641 20.8975L14.9888 21.0016L14.7713 21.0073L14.6641 20.8975Z" fill="#142F37"/>
<path d="M21.0321 12.7089L20.7656 12.3357L20.8224 12.3311C20.8401 12.3488 20.8577 12.367 20.8744 12.3831C20.9275 12.4929 20.9795 12.6007 21.0321 12.7089Z" fill="#142F37"/>
<path d="M13.1016 20.1553C13.2122 20.2396 13.3235 20.3236 13.4352 20.4072L13.1016 20.1553Z" fill="#142F37"/>
<path d="M20.6129 12.1147L20.3984 11.8467L20.6129 12.1147Z" fill="#192D36"/>
<path d="M20.0649 11.478L19.8047 11.2578L20.0649 11.478Z" fill="#192D36"/>
<path d="M13.9049 5.83203C13.8705 5.92832 13.8367 6.02461 13.8008 6.12142C13.8351 6.02461 13.869 5.92832 13.9049 5.83203Z" fill="#50B4E3"/>
<path d="M19.6512 11.146L19.4805 10.9961L19.6512 11.146Z" fill="#142F37"/>
<path d="M14.3428 4.98828L14.168 5.09238L14.3428 4.98828Z" fill="#50B4E3"/>
<path d="M19.0648 10.7659L18.9492 10.666L19.0648 10.7659Z" fill="#142F37"/>
<path d="M13.7942 6.25684L13.7188 6.38747L13.7942 6.25684Z" fill="#50B4E3"/>
<path d="M20.8223 12.3314L20.7656 12.3361L20.7188 12.2227L20.8223 12.3314Z" fill="#304951"/>
<path d="M19.4382 10.9887L19.3242 10.8877L19.4382 10.9887Z" fill="#142F37"/>
<path d="M21.5117 17.2566C21.5518 17.0125 21.6111 16.7689 21.6273 16.5232C21.6585 16.0407 21.6632 15.5567 21.6835 15.0737C21.6892 14.9446 21.7126 14.8161 21.7277 14.6875C21.7636 15.0622 21.8433 15.4385 21.8245 15.8107C21.8027 16.2396 21.697 16.6648 21.6195 17.0905C21.6075 17.1504 21.5487 17.2014 21.5117 17.2566Z" fill="#142F37"/>
<path d="M15.0938 21.0029C15.1926 21.0029 15.2921 21.0029 15.3909 21.0071C15.7345 21.0232 16.078 21.0399 16.421 21.0617C16.5144 21.0727 16.6071 21.0885 16.6989 21.1091C16.3247 21.1195 15.9499 21.1445 15.5767 21.133C15.4149 21.1284 15.2546 21.0487 15.0938 21.0029Z" fill="#142F37"/>
<path d="M17.875 20.8487C18.1306 20.7254 18.3856 20.6 18.6417 20.4782C18.7978 20.4037 18.9539 20.3345 19.1101 20.2627C18.9461 20.3803 18.7947 20.5266 18.6141 20.6088C18.3793 20.7155 18.1227 20.7712 17.875 20.8487Z" fill="#142F37"/>
<path d="M20.9883 18.3342C21.1179 18.037 21.2449 17.7378 21.3807 17.4432C21.3989 17.4041 21.464 17.387 21.5077 17.3594C21.3781 17.6586 21.2516 17.959 21.1158 18.2551C21.0981 18.2931 21.0346 18.3087 20.9883 18.3342Z" fill="#142F37"/>
<path d="M21.7275 14.584C21.7113 14.5788 21.6822 14.5757 21.6801 14.5674C21.6239 14.3071 21.5698 14.0417 21.5156 13.7783C21.5864 14.0469 21.657 14.3155 21.7275 14.584Z" fill="#142F37"/>
<path d="M16.9062 21.1079C16.9484 21.0704 16.9848 21.0106 17.0332 20.9991C17.2607 20.9439 17.4907 20.9018 17.7203 20.8555C17.5615 21.1225 17.2612 21.0116 17.0384 21.11C16.9947 21.1181 16.9497 21.1174 16.9062 21.1079Z" fill="#142F37"/>
<path d="M21.5115 13.6752L21.2539 13.1865L21.5115 13.6752Z" fill="#142F37"/>
<path d="M20.6133 18.9217L20.923 18.5381L20.6133 18.9217Z" fill="#142F37"/>
<path d="M21.247 13.1358C21.1974 13.0616 21.1476 12.9873 21.0977 12.9131C21.1476 12.987 21.1974 13.0612 21.247 13.1358Z" fill="#142F37"/>
<path d="M19.3242 20.1496L19.4913 19.9971L19.3242 20.1496Z" fill="#142F37"/>
<path d="M20.0234 19.5616L20.1796 19.4502L20.0234 19.5616Z" fill="#142F37"/>
<path d="M20.4492 19.1342L20.5533 19.0244L20.4492 19.1342Z" fill="#142F37"/>
<path d="M19.6445 19.932L19.7564 19.8311L19.6445 19.932Z" fill="#142F37"/>
<path d="M13.7365 18.8431C13.5996 18.7177 13.4601 18.5948 13.3269 18.4663C11.0618 16.2735 12.008 12.4496 15.0444 11.5773C16.1999 11.2452 17.3152 11.3769 18.3489 12.0265C18.3876 12.0457 18.428 12.061 18.4697 12.0723C18.4704 12.0746 18.4718 12.0768 18.4735 12.0786C18.4753 12.0804 18.4774 12.0817 18.4798 12.0825C18.4822 12.0834 18.4847 12.0836 18.4872 12.0833C18.4897 12.0829 18.4921 12.082 18.4941 12.0806L18.6289 12.1847L18.6508 12.193L18.8428 12.3403L18.8949 12.3924L19.0994 12.5797L19.1905 12.6729L19.4742 13.0086C19.494 13.0357 19.5143 13.0606 19.5345 13.0893C19.6355 13.2433 19.7363 13.3977 19.8369 13.5525C19.8442 13.5754 19.851 13.5988 19.8578 13.6222C19.8874 13.6701 19.9166 13.718 19.9457 13.7659C19.9514 13.7898 19.9572 13.8132 19.9634 13.8367L20.2898 14.9068L20.3116 15.2248L20.3085 15.9248C20.3028 16.0133 20.2976 16.1018 20.2918 16.1908C20.1791 16.545 20.066 16.8998 19.9525 17.2551L19.9488 17.2786L19.7516 17.632L19.5767 17.8958L19.4268 18.104L19.2009 18.3643L19.0968 18.473L18.987 18.5771L19.0005 18.5985L18.986 18.5782L18.6544 18.8488L18.4717 18.9722L17.8472 19.3251L17.7748 19.3407L17.5823 19.4354L17.4553 19.4562L16.4367 19.6644H15.9006L14.9351 19.4562L14.7233 19.3938L14.6156 19.3417L14.5422 19.3245L13.9769 19.0123L13.7365 18.8431ZM16.2134 18.9186C18.0653 18.9128 19.5819 17.3764 19.5819 15.5157C19.578 14.6193 19.2204 13.7607 18.5869 13.1264C17.9534 12.4922 17.0952 12.1335 16.1988 12.1285C14.3001 12.1243 12.7981 13.654 12.8059 15.5839C12.8121 17.4097 14.3605 18.9243 16.2134 18.9186Z" fill="#63BADF"/>
<path d="M19.9492 17.2509C20.0623 16.8959 20.1755 16.5411 20.2886 16.1865C20.2995 16.3031 20.3443 16.4291 20.3151 16.5347C20.2472 16.7534 20.1643 16.9672 20.0668 17.1744C20.0502 17.2103 19.9898 17.2259 19.9492 17.2509Z" fill="#142F37"/>
<path d="M16.4297 19.6652L17.4483 19.457C17.2468 19.6928 16.7555 19.7943 16.4297 19.6652Z" fill="#142F37"/>
<path d="M20.2834 14.9031L19.957 13.833C19.9742 13.833 20.0044 13.833 20.0091 13.8408C20.1205 14.1656 20.2308 14.4909 20.3359 14.8177C20.3401 14.8386 20.3011 14.8745 20.2834 14.9031Z" fill="#142F37"/>
<path d="M14.9297 19.457L15.8952 19.6652C15.5808 19.7907 15.1415 19.697 14.9297 19.457Z" fill="#142F37"/>
<path d="M20.3008 15.9207L20.306 15.2207C20.4325 15.3909 20.4309 15.7578 20.3008 15.9207Z" fill="#142F37"/>
<path d="M17.8438 19.3226L18.4683 18.9697C18.3351 19.2196 18.1149 19.3164 17.8438 19.3226Z" fill="#142F37"/>
<path d="M13.9727 19.0146L14.5379 19.3269C14.3011 19.3098 14.0861 19.2541 13.9727 19.0146Z" fill="#142F37"/>
<path d="M19.8297 13.5492C19.7295 13.3944 19.6287 13.24 19.5273 13.0859C19.7553 13.1572 19.8079 13.3431 19.8297 13.5492Z" fill="#142F37"/>
<path d="M18.6484 18.8478L18.98 18.5771C18.9722 18.7931 18.8212 18.8343 18.6484 18.8478Z" fill="#142F37"/>
<path d="M19.4673 13.0047L19.1836 12.669C19.4173 12.6648 19.4105 12.8621 19.4673 13.0047Z" fill="#142F37"/>
<path d="M19.7422 17.6278L19.9394 17.2744C19.8733 17.392 19.8078 17.5102 19.7422 17.6278Z" fill="#142F37"/>
<path d="M19.1953 18.3647L19.4212 18.1045C19.4321 18.2606 19.3915 18.3788 19.1953 18.3647Z" fill="#142F37"/>
<path d="M19.5742 17.8908L19.7491 17.627L19.5742 17.8908Z" fill="#142F37"/>
<path d="M19.0913 12.5766L18.8867 12.3892C19.021 12.3798 19.1168 12.4116 19.0913 12.5766Z" fill="#142F37"/>
<path d="M18.8405 12.3387L18.6484 12.1914L18.8405 12.3387Z" fill="#142F37"/>
<path d="M17.5742 19.4336L17.7668 19.3389L17.5742 19.4336Z" fill="#142F37"/>
<path d="M19.0938 18.4716L19.1978 18.3623L19.0938 18.4716Z" fill="#142F37"/>
<path d="M18.9805 18.5728L19.0903 18.4688L18.9805 18.5728Z" fill="#142F37"/>
<path d="M14.6133 19.3428L14.721 19.3948L14.6133 19.3428Z" fill="#142F37"/>
<path d="M19.9356 13.7618C19.9065 13.7139 19.8773 13.666 19.8477 13.6182L19.9356 13.7618Z" fill="#142F37"/>
<path d="M18.6231 12.1832L18.4883 12.0791L18.6231 12.1832Z" fill="#142F37"/>
<path d="M16.2094 18.918C14.3565 18.9238 12.8081 17.4087 12.8008 15.5834C12.793 13.6534 14.2951 12.1238 16.1938 12.1279C17.0902 12.133 17.9484 12.4916 18.5819 13.1259C19.2153 13.7601 19.5729 14.6188 19.5769 15.5152C19.5779 17.3759 18.0612 18.9123 16.2094 18.918ZM14.28 13.6613L14.1702 13.77L14.0739 13.8851L13.9641 14.0412L13.7861 14.3847L13.7002 14.5258C13.6929 14.5679 13.6851 14.6101 13.6778 14.6522C13.6393 14.7714 13.6003 14.8906 13.5617 15.0098L13.5399 15.2253V15.8119C13.5467 15.8837 13.5529 15.955 13.5591 16.0268L13.6518 16.3464C13.6684 16.401 13.6846 16.4562 13.7038 16.5108L13.7902 16.6514C13.8345 16.7471 13.8792 16.8424 13.9235 16.9382C13.9236 16.9642 13.9287 16.99 13.9386 17.0141C14.7797 18.255 16.5326 18.6797 17.8515 17.6465C18.7025 16.9803 18.9872 16.0768 18.8373 15.0369C18.7608 14.5044 18.5318 14.023 18.1029 13.6633L17.9941 13.5551L17.8827 13.451L17.7146 13.3162L17.6329 13.2829L17.5033 13.1881L17.4268 13.1699L17.2878 13.0851L17.126 13.0237L16.9105 12.9451L16.7486 12.9222C16.5724 12.8429 16.3815 12.802 16.1883 12.802C15.9952 12.802 15.8042 12.8429 15.628 12.9222L15.4662 12.944L15.1643 13.0638L15.0893 13.0799L14.9498 13.1699L14.8744 13.184L14.7432 13.2829C14.7406 13.2813 14.7376 13.2804 14.7346 13.2801C14.7315 13.2799 14.7285 13.2803 14.7256 13.2814C14.7228 13.2825 14.7202 13.2843 14.7181 13.2865C14.716 13.2887 14.7145 13.2914 14.7136 13.2943L14.5002 13.4551L14.3877 13.554L14.28 13.6613Z" fill="#163641"/>
<path d="M17.1275 13.0232L17.2893 13.0847L17.4267 13.1695L17.5033 13.1877L17.6328 13.2824L17.7146 13.3157L17.878 13.4532L17.9894 13.5572L18.0982 13.6655C18.0461 14.3999 17.6818 15.0057 17.2394 15.5512C16.8946 15.9784 16.466 16.3304 15.9798 16.5854C15.3157 16.9372 14.6511 17.0824 13.9187 16.9403C13.8745 16.8446 13.8297 16.7493 13.7855 16.6535C13.7569 16.6067 13.7283 16.5599 13.6991 16.513C13.6825 16.4584 13.6663 16.4032 13.6471 16.3485C13.6162 16.242 13.5853 16.1355 13.5544 16.029C13.5482 15.9572 13.5419 15.8858 13.5352 15.814V15.2274L13.557 15.012C13.5955 14.8928 13.6346 14.7736 13.6731 14.6544C13.6804 14.6122 13.6882 14.5701 13.6955 14.5279L13.7813 14.3869L13.9593 14.0434L14.0692 13.8872L14.1655 13.7722L14.2753 13.6634L14.3846 13.5557L14.497 13.4568L14.7104 13.296C14.7113 13.293 14.7129 13.2904 14.7149 13.2881C14.717 13.2859 14.7196 13.2842 14.7225 13.2831C14.7253 13.282 14.7284 13.2815 14.7314 13.2818C14.7345 13.282 14.7374 13.283 14.7401 13.2845L14.8712 13.1856L14.9467 13.1721L15.0862 13.0815L15.1616 13.0654L15.463 12.9457L15.6249 12.9238H16.2645H16.7454L16.9073 12.9467L17.1275 13.0232Z" fill="#65C5F0"/>
<path d="M13.918 16.9379C14.6503 17.08 15.3149 16.9348 15.979 16.5829C16.4652 16.328 16.8939 15.976 17.2386 15.5488C17.6805 15.0033 18.0448 14.3975 18.0974 13.6631C18.5262 14.0227 18.7553 14.5042 18.8318 15.0366C18.9817 16.0776 18.697 16.9801 17.846 17.6463C16.5271 18.6794 14.7752 18.2547 13.9331 17.0139C13.9232 16.9898 13.9181 16.964 13.918 16.9379Z" fill="#50B5E3"/>
<path d="M16.7534 12.922H16.2725H15.6328C15.809 12.8427 15.9999 12.8018 16.1931 12.8018C16.3863 12.8018 16.5772 12.8427 16.7534 12.922Z" fill="#50B5E3"/>
<path d="M13.6786 14.6514C13.6401 14.7706 13.601 14.8897 13.5625 15.0089C13.601 14.8897 13.6401 14.7732 13.6786 14.6514Z" fill="#50B5E3"/>
<path d="M13.5586 16.0264C13.5898 16.1325 13.6207 16.2391 13.6512 16.3459C13.6204 16.2394 13.5895 16.1329 13.5586 16.0264Z" fill="#50B5E3"/>
<path d="M15.4654 12.9434L15.1641 13.0631L15.4654 12.9434Z" fill="#50B5E3"/>
<path d="M17.1295 13.0239L16.9141 12.9453L17.1295 13.0239Z" fill="#50B5E3"/>
<path d="M14.7134 13.293L14.5 13.4538L14.7134 13.293Z" fill="#50B5E3"/>
<path d="M17.8783 13.4528L17.7148 13.3154L17.8783 13.4528Z" fill="#50B5E3"/>
<path d="M14.0747 13.8848L13.9648 14.0409L14.0747 13.8848Z" fill="#50B5E3"/>
<path d="M13.6992 16.5107C13.7284 16.5576 13.757 16.6044 13.7856 16.6513C13.7565 16.6044 13.7278 16.5576 13.6992 16.5107Z" fill="#50B5E3"/>
<path d="M13.7851 14.3848L13.6992 14.5258L13.7851 14.3848Z" fill="#50B5E3"/>
<path d="M14.2778 13.6611L14.168 13.7699L14.2778 13.6611Z" fill="#50B5E3"/>
<path d="M18.0971 13.6629L17.9883 13.5547L18.0971 13.6629Z" fill="#50B5E3"/>
<path d="M14.3905 13.5527L14.2812 13.6605L14.3905 13.5527Z" fill="#50B5E3"/>
<path d="M17.6335 13.2822L17.5039 13.1875L17.6335 13.2822Z" fill="#50B5E3"/>
<path d="M14.8773 13.1826L14.7461 13.2815L14.8773 13.1826Z" fill="#50B5E3"/>
<path d="M17.4241 13.1698L17.2852 13.085L17.4241 13.1698Z" fill="#50B5E3"/>
<path d="M15.0926 13.0781L14.9531 13.1687L15.0926 13.0781Z" fill="#50B5E3"/>
</svg>
