<svg width="34" height="34" viewBox="0 0 34 34" fill="none" xmlns="http://www.w3.org/2000/svg">
<path d="M24.8359 9.6377C25.624 9.82159 26.4122 10.0081 27.201 10.1887C27.9278 10.3552 28.6448 10.5617 29.3787 10.6966C29.3787 16.0883 29.3787 21.4794 29.3787 26.8712C28.2643 26.6067 27.1499 26.3434 26.0362 26.0769C25.6324 25.9801 25.2306 25.8736 24.8281 25.7717C24.8301 25.6756 24.8326 25.5788 24.8326 25.4826C24.8346 20.2005 24.8352 14.9191 24.8359 9.6377Z" fill="#517C7E"/>
<path d="M24.8359 22.9219C25.624 22.738 26.4122 22.5515 27.201 22.3708C27.9278 22.2043 28.6448 21.9979 29.3787 21.863C29.3787 16.4712 29.3787 11.0801 29.3787 5.68836C28.2643 5.95291 27.1499 6.21618 26.0362 6.48267C25.6324 6.57946 25.2306 6.68592 24.8281 6.78787C24.8301 6.88402 24.8326 6.98081 24.8326 7.07695C24.8346 12.359 24.8352 17.6404 24.8359 22.9219Z" fill="#517C7E"/>
<path d="M17.0009 9.73683C16.2773 9.79039 16.2773 9.79039 16.2773 9.0877C16.2773 7.72492 16.2773 6.36214 16.2773 5C16.519 5 16.7606 5 17.0022 5C17.0015 6.57894 17.0015 8.15789 17.0009 9.73683Z" fill="#53E161"/>
<path d="M17 9.73683C17.0006 8.15789 17.0013 6.57894 17.0013 5C17.2429 5 17.4845 5 17.7261 5C17.7261 6.5099 17.7229 8.01916 17.7307 9.52906C17.7313 9.70909 17.6867 9.77361 17.5045 9.75361C17.3379 9.73554 17.168 9.74135 17 9.73683Z" fill="#00CA71"/>
<path d="M24.8348 9.63863C24.8341 14.9201 24.8335 20.2015 24.8322 25.4829C24.8322 25.5791 24.829 25.6758 24.8277 25.772C23.8974 25.5532 22.9678 25.3351 22.0381 25.1158C21.5149 24.9919 20.9929 24.8602 20.4677 24.7441C20.2984 24.7067 20.2422 24.6363 20.2422 24.4557C20.248 19.2207 20.2474 13.9864 20.2441 8.7514C20.2441 8.58105 20.2538 8.51201 20.4625 8.56363C21.8812 8.91465 23.3031 9.25148 24.7243 9.59346C24.7624 9.60314 24.798 9.62379 24.8348 9.63863Z" fill="#649C9F"/>
<path d="M24.8332 23.1954C24.8325 17.9139 24.8296 12.5364 24.8283 7.25493C24.8283 7.15878 24.8296 6.91335 24.8283 6.81721C23.898 7.03595 22.9639 7.40269 22.0342 7.62208C21.511 7.74597 20.989 7.8776 20.4637 7.99375C20.2945 8.03117 20.2383 8.1015 20.2383 8.28218C20.2441 13.5171 20.2457 18.8476 20.2425 24.0826C20.2425 24.2529 20.2522 24.322 20.4609 24.2704C21.8795 23.9193 23.3014 23.5825 24.7227 23.2405C24.7608 23.2308 24.7963 23.2102 24.8332 23.1954Z" fill="#649C9F"/>
<path fill-rule="evenodd" clip-rule="evenodd" d="M4.62369 21.8612V26.8705L5.54694 26.6516C6.35355 26.4603 7.16005 26.2691 7.96622 26.0762C8.24274 26.0099 8.51835 25.9391 8.79388 25.8683C8.92067 25.8357 9.04745 25.8032 9.17429 25.771L9.17309 25.7141C9.17143 25.6367 9.16977 25.5591 9.16977 25.4819C9.16864 22.414 9.16795 19.3462 9.16745 16.2785C9.16795 13.2109 9.16864 10.1431 9.16977 7.07512C9.16977 6.99794 9.17143 6.92034 9.17309 6.843L9.17429 6.78604C9.04747 6.75391 8.92071 6.72134 8.79393 6.68876C8.51839 6.61795 8.24276 6.54712 7.96622 6.48084C7.16018 6.28797 6.3538 6.09679 5.54732 5.9056L5.54729 5.90559L4.62369 5.68652V10.6959V21.8612ZM9.1713 23.1944C9.17146 23.9566 9.17164 24.7189 9.17182 25.4811C9.17182 25.5413 9.17309 25.6017 9.17435 25.662C9.17511 25.6981 9.17586 25.7342 9.17634 25.7702L9.94785 25.5889C10.6207 25.4308 11.2933 25.2727 11.9659 25.114C12.1388 25.073 12.3117 25.0312 12.4845 24.9894L12.4855 24.9892L12.4856 24.9892C12.8353 24.9046 13.1851 24.82 13.5364 24.7423C13.7056 24.7049 13.7618 24.6346 13.7618 24.4539C13.7617 24.3117 13.7615 24.1695 13.7614 24.0273C13.7582 18.8097 13.7598 13.4979 13.7656 8.28094C13.7656 8.10027 13.7094 8.02994 13.5402 7.99252C13.1889 7.91483 12.8391 7.83023 12.4893 7.74564C12.3161 7.70376 12.143 7.66188 11.9697 7.62085C11.5062 7.51147 11.0416 7.36547 10.5769 7.21945C10.1096 7.07257 9.6421 6.92567 9.17561 6.81598C9.1747 6.88426 9.17508 7.02782 9.17538 7.13974C9.1755 7.18542 9.17561 7.22583 9.17561 7.2537C9.17542 8.04536 9.17519 8.83918 9.17493 9.63452C9.17304 9.63532 9.17114 9.6361 9.16924 9.63687C9.16973 13.6502 9.17022 17.6635 9.17099 21.6768C9.17089 22.1833 9.17081 22.6892 9.17075 23.1941C9.17093 23.1942 9.17112 23.1943 9.1713 23.1944Z" fill="#649C9F"/>
<path d="M17.0067 16.3947C16.2813 16.4463 16.2813 16.4463 16.2813 15.7443C16.2813 14.4576 16.2845 13.1716 16.2774 11.885C16.2761 11.7088 16.3142 11.6366 16.5015 11.6566C16.6689 11.6746 16.8388 11.6656 17.008 11.6682C17.0074 13.2439 17.0074 14.8196 17.0067 16.3947Z" fill="#53E161"/>
<path d="M17.0039 16.3936C17.0039 14.8185 17.0046 13.2428 17.0046 11.6677C17.2358 11.6555 17.5285 11.5709 17.6809 11.6935C17.8282 11.8123 17.7249 12.1149 17.7262 12.3356C17.7307 13.6183 17.7249 14.9011 17.7326 16.1839C17.7339 16.3633 17.69 16.4278 17.5078 16.4078C17.3418 16.3897 17.1725 16.3975 17.0039 16.3936Z" fill="#00CA71"/>
<path d="M17.0042 23.0532C16.7722 23.0623 16.4796 23.1507 16.3258 23.0235C16.1779 22.9009 16.2813 22.6003 16.2806 22.3789C16.2754 21.1007 16.2813 19.8224 16.2742 18.5442C16.2735 18.3706 16.3084 18.2932 16.497 18.3138C16.6644 18.3325 16.8343 18.3241 17.0029 18.3274C17.0035 19.9024 17.0035 21.4781 17.0042 23.0532Z" fill="#53E161"/>
<path d="M17.0085 23.0535C17.0085 21.4784 17.0078 19.9027 17.0078 18.3276C17.2391 18.3115 17.5324 18.2302 17.6848 18.3521C17.8328 18.4702 17.7294 18.7735 17.7301 18.9948C17.7352 20.2776 17.7288 21.5604 17.7365 22.8431C17.7378 23.0219 17.6958 23.087 17.513 23.067C17.3463 23.0477 17.1764 23.0567 17.0085 23.0535Z" fill="#00CA71"/>
<path d="M17.0045 29.7125C16.7726 29.7202 16.4799 29.8086 16.3262 29.6828C16.1776 29.5608 16.2816 29.2601 16.2803 29.0382C16.2751 27.7754 16.2855 26.5133 16.2712 25.2505C16.2687 25.0079 16.343 24.9401 16.5678 24.9692C16.7105 24.9872 16.8565 24.9795 17.0013 24.9834C17.0025 26.5597 17.0038 28.1361 17.0045 29.7125Z" fill="#53E161"/>
<path d="M17.0032 29.7133C17.0019 28.1369 17.0013 26.5606 17 24.9842C17.7268 24.9184 17.7268 24.9184 17.7268 25.625C17.7268 26.9168 17.7229 28.2086 17.7313 29.5004C17.7326 29.6772 17.6938 29.7456 17.5084 29.7249C17.3417 29.7056 17.1718 29.7159 17.0032 29.7133Z" fill="#00CA71"/>
</svg>
