<svg width="34" height="34" viewBox="0 0 34 34" fill="none" xmlns="http://www.w3.org/2000/svg">
<path d="M16.1638 18.4551C15.8096 18.6642 15.4906 18.8489 15.1761 19.0397C14.503 19.4473 13.842 19.8747 13.1566 20.2609C13.0311 20.3276 12.9238 20.4239 12.844 20.5415C12.7642 20.6591 12.7143 20.7944 12.6987 20.9356C12.4651 22.2331 12.2193 23.5306 11.9736 24.822C11.8515 25.4723 11.4531 25.8463 10.8959 25.8493C10.7436 25.8534 10.5923 25.8243 10.4525 25.764C10.3126 25.7038 10.1875 25.6139 10.0858 25.5004C9.98417 25.387 9.9084 25.2529 9.86377 25.1072C9.81914 24.9616 9.80671 24.808 9.82736 24.6572C9.94489 23.8802 10.1021 23.1093 10.241 22.3369C10.2563 22.256 10.2624 22.1751 10.2822 22.024C9.58312 22.4483 8.93284 22.8376 8.29019 23.2345C7.94826 23.4467 7.5987 23.5901 7.19265 23.4451C6.78661 23.3001 6.50574 23.0223 6.46147 22.5811C6.43455 22.3624 6.47383 22.1406 6.57424 21.9444C6.67465 21.7482 6.83157 21.5867 7.02474 21.4805C7.54832 21.1554 8.08106 20.8425 8.6077 20.5234C8.75119 20.4364 8.89162 20.3479 9.10533 20.2182L6.81561 19.4549C6.35767 19.3023 6.00505 19.058 5.93331 18.5482C5.82035 17.7376 6.5439 17.1301 7.35446 17.382C8.64739 17.7849 9.92963 18.22 11.2241 18.6199C11.413 18.6751 11.6157 18.6571 11.7919 18.5696C12.8757 17.933 13.9458 17.269 15.0189 16.6126C15.0678 16.5821 15.109 16.5393 15.1914 16.4722C14.5686 16.0936 13.9702 15.7318 13.3749 15.367C12.8895 15.0709 12.4132 14.7564 11.9156 14.4862C11.7512 14.4023 11.5624 14.3795 11.3828 14.4221C10.0579 14.7976 8.73898 15.2006 7.41399 15.5868C6.74387 15.7837 6.1058 15.4723 5.9501 14.8907C5.78677 14.2801 6.13327 13.7413 6.8263 13.5306L9.17555 12.8132L7.79256 11.9599C7.51474 11.7874 7.23082 11.6256 6.9591 11.4439C6.72594 11.2975 6.55832 11.0666 6.4912 10.7996C6.42408 10.5325 6.46265 10.2499 6.59885 10.0106C6.74349 9.76891 6.97595 9.59251 7.24764 9.51826C7.51932 9.44401 7.80919 9.47766 8.05664 9.61217C8.65807 9.94952 9.23966 10.322 9.83041 10.6807L10.2365 10.9219C10.1098 10.1495 9.98458 9.4641 9.88994 8.77414C9.83432 8.47985 9.83122 8.17804 9.88078 7.88267C9.93196 7.66779 10.0551 7.47688 10.2298 7.34165C10.4044 7.20642 10.6201 7.13501 10.8409 7.13928C11.3248 7.12401 11.7416 7.35756 11.8637 7.83688C12.0377 8.52532 12.1369 9.23361 12.256 9.93579C12.3857 10.699 12.4956 11.4623 12.6269 12.2255C12.6505 12.3278 12.7115 12.4177 12.7979 12.4774C13.8893 13.1506 14.9869 13.8146 16.0829 14.4786C16.0997 14.4877 16.1287 14.4786 16.1836 14.4786C16.1836 14.3656 16.1989 14.2496 16.1989 14.1351C16.1989 13.0086 16.1989 11.882 16.1989 10.7555C16.2059 10.6424 16.185 10.5293 16.1378 10.4263C16.0907 10.3232 16.0189 10.2334 15.9287 10.1648C14.964 9.35572 14.0114 8.53448 13.0528 7.72239C12.7399 7.45678 12.4712 7.16675 12.4712 6.72407C12.4586 6.52828 12.5053 6.33322 12.6052 6.16438C12.7052 5.99554 12.8537 5.86077 13.0314 5.77766C13.2131 5.67606 13.4211 5.63135 13.6285 5.64931C13.8359 5.66727 14.0331 5.74708 14.1946 5.8784C14.7869 6.35772 15.3608 6.85993 15.9424 7.35146C15.9959 7.39573 16.0569 7.42931 16.1668 7.50411C16.1775 7.3423 16.1928 7.23087 16.1928 7.11791C16.1928 6.47678 16.1806 5.83414 16.1928 5.19302C16.2141 4.36872 16.8293 3.85277 17.5407 4.03747C17.7653 4.09318 17.9659 4.22034 18.112 4.39983C18.2582 4.57932 18.3421 4.80143 18.3512 5.03273C18.3634 5.75934 18.3512 6.48594 18.3512 7.21255C18.3512 7.32856 18.3634 7.44305 18.3741 7.63538C18.7222 7.33009 19.0183 7.07058 19.3098 6.80803C19.6014 6.54548 19.9204 6.25239 20.2257 5.98068C20.7478 5.52273 21.4225 5.54105 21.8438 6.01884C22.2361 6.45999 22.1766 7.10875 21.6744 7.56669C20.6379 8.51311 19.5892 9.44579 18.5527 10.3937C18.4475 10.4831 18.3791 10.6081 18.3604 10.7448C18.3466 11.9553 18.3604 13.1673 18.3604 14.3778C18.3696 14.43 18.3839 14.4811 18.4031 14.5305C18.6214 14.4038 18.826 14.2908 19.0259 14.1687C19.8945 13.6421 20.7569 13.1002 21.6331 12.5873C21.732 12.5317 21.8155 12.4526 21.8765 12.357C21.9375 12.2614 21.9739 12.1523 21.9827 12.0393C22.1801 10.7621 22.3837 9.48497 22.5933 8.20781C22.7047 7.53006 23.126 7.13928 23.7122 7.13928C23.8515 7.13676 23.9898 7.16298 24.1184 7.21629C24.2471 7.2696 24.3634 7.34886 24.4601 7.44913C24.5568 7.5494 24.6318 7.66851 24.6804 7.79905C24.729 7.92958 24.7502 8.06873 24.7426 8.20781C24.6815 8.9161 24.5411 9.61828 24.4373 10.325C24.4129 10.4899 24.3961 10.6548 24.364 10.9082C24.941 10.5586 25.4463 10.2411 25.9638 9.94189C26.2553 9.77398 26.5484 9.57401 26.8674 9.50074C27.1137 9.45058 27.3698 9.49147 27.5882 9.61584C27.8066 9.7402 27.9725 9.93958 28.055 10.177C28.1348 10.415 28.1313 10.6731 28.045 10.9089C27.9588 11.1447 27.7949 11.3441 27.5803 11.4745C26.9697 11.853 26.3591 12.2179 25.7485 12.5919C25.6524 12.6499 25.5623 12.717 25.4097 12.8193C26.2721 13.0819 27.0521 13.3246 27.8368 13.5566C27.9951 13.5968 28.142 13.6727 28.2664 13.7786C28.3908 13.8844 28.4892 14.0174 28.5542 14.1672C28.7267 14.5549 28.7069 14.9304 28.4214 15.254C28.2787 15.4311 28.0847 15.5596 27.8661 15.6219C27.6474 15.6843 27.4148 15.6773 27.2002 15.6021C25.8676 15.2037 24.5365 14.8007 23.1993 14.4191C23.0216 14.3726 22.833 14.3932 22.6696 14.4771C21.6362 15.0877 20.618 15.7135 19.5953 16.3363C19.5358 16.373 19.4823 16.4187 19.3801 16.489C19.7892 16.7439 20.1631 16.9805 20.5417 17.2125C21.2836 17.6705 22.0224 18.1284 22.7765 18.565C22.941 18.6489 23.1308 18.669 23.3092 18.6215C24.6144 18.2154 25.9042 17.7773 27.2109 17.3667C27.3602 17.3145 27.519 17.2954 27.6764 17.3107C27.8337 17.3261 27.9859 17.3755 28.1222 17.4555C28.2586 17.5355 28.3759 17.6443 28.4661 17.7742C28.5562 17.9041 28.617 18.052 28.6443 18.2078C28.7282 18.7359 28.4107 19.2244 27.8261 19.429C27.1727 19.6518 26.5148 19.8564 25.8584 20.0701C25.7562 20.1037 25.6554 20.1418 25.5104 20.1937C25.5732 20.2551 25.64 20.3122 25.7104 20.3647C26.2981 20.7265 26.8903 21.0806 27.4735 21.447C28.0993 21.8408 28.2764 22.4804 27.9238 23.0269C27.6047 23.5245 26.9316 23.6375 26.3454 23.2742C25.7592 22.9109 25.1868 22.5689 24.6067 22.2194C24.5273 22.172 24.4403 22.1369 24.2862 22.0667C24.3289 22.3506 24.3564 22.5705 24.3976 22.7872C24.5014 23.3459 24.6159 23.9031 24.7197 24.4663C24.8372 25.1014 24.5136 25.6875 23.9702 25.8234C23.3703 25.976 22.7902 25.6417 22.6376 24.9701C22.4116 23.9809 22.2437 22.978 22.0545 21.9812C21.9751 21.566 21.911 21.1478 21.8224 20.7341C21.8034 20.6179 21.7426 20.5126 21.6515 20.438C20.6028 19.7877 19.5465 19.1496 18.4917 18.51C18.4733 18.4978 18.4443 18.51 18.3833 18.4978C18.3642 18.5832 18.352 18.67 18.3466 18.7573C18.3466 19.8839 18.336 21.0104 18.3558 22.1354C18.3701 22.3207 18.4515 22.4944 18.5848 22.6239C19.6075 23.5672 20.644 24.4969 21.682 25.4234C21.8575 25.5653 21.9851 25.7576 22.0476 25.9744C22.1102 26.1912 22.1046 26.422 22.0316 26.6355C21.9744 26.8299 21.8576 27.0014 21.6976 27.1257C21.5376 27.2501 21.3426 27.321 21.1401 27.3285C20.9591 27.3439 20.7769 27.3188 20.6068 27.2549C20.4368 27.191 20.2831 27.0899 20.157 26.9591C19.6335 26.4721 19.1022 25.9959 18.5726 25.5181C18.5001 25.4651 18.4241 25.4172 18.3451 25.3746C18.3451 26.2523 18.3451 27.0705 18.3451 27.8872C18.3498 28.0948 18.2948 28.2995 18.1866 28.4767C18.0783 28.654 17.9214 28.7964 17.7345 28.887C17.5888 28.9614 17.4274 29.0001 17.2638 29C17.1002 28.9999 16.9389 28.961 16.7932 28.8866C16.6475 28.8121 16.5216 28.7041 16.4257 28.5715C16.3298 28.4389 16.2667 28.2855 16.2416 28.1238C16.1729 27.4643 16.2004 26.7958 16.1867 26.1302C16.1867 25.9287 16.1867 25.7272 16.1867 25.4326C15.628 25.9073 15.141 26.3332 14.6419 26.7423C14.4007 26.9392 14.158 27.1713 13.8786 27.272C13.641 27.3707 13.3744 27.3735 13.1348 27.2798C12.8952 27.1862 12.7011 27.0034 12.5933 26.7698C12.3445 26.2966 12.4697 25.7684 12.9307 25.3746C13.9504 24.503 14.9762 23.6359 15.9836 22.7552C16.0957 22.6539 16.1645 22.5134 16.176 22.3629C16.1912 21.1524 16.1851 19.9403 16.1836 18.7298C16.1825 18.6379 16.1759 18.5462 16.1638 18.4551Z" fill="#01A8EC"/>
</svg>
