<svg width="34" height="34" viewBox="0 0 34 34" fill="none" xmlns="http://www.w3.org/2000/svg">
<path d="M20.4431 6.49967H22.8876C24.5084 6.49967 26.0627 7.14352 27.2088 8.28958C28.3549 9.43563 28.9987 10.99 28.9987 12.6108V17.4997H26.5543V12.6108C26.5543 11.6383 26.1679 10.7057 25.4803 10.0181C24.7927 9.33043 23.86 8.94412 22.8876 8.94412H20.4431V12.6108L14.332 7.7219L20.4431 2.83301V6.49967Z" fill="#575F6C"/>
<path d="M21.6667 15.0552V27.2775C21.6667 27.6016 21.5379 27.9125 21.3087 28.1417C21.0795 28.3709 20.7686 28.4997 20.4444 28.4997H8.22222C7.89807 28.4997 7.58719 28.3709 7.35798 28.1417C7.12877 27.9125 7 27.6016 7 27.2775V15.0552C7 14.7311 7.12877 14.4202 7.35798 14.191C7.58719 13.9618 7.89807 13.833 8.22222 13.833H20.4444C20.7686 13.833 21.0795 13.9618 21.3087 14.191C21.5379 14.4202 21.6667 14.7311 21.6667 15.0552Z" fill="#4B89B6"/>
</svg>
