<svg width="34" height="34" viewBox="0 0 34 34" fill="none" xmlns="http://www.w3.org/2000/svg">
<path d="M23.7024 12.8569C23.6717 15.0806 23.0044 17.085 21.6483 18.8535C21.5624 18.9652 21.5631 19.0322 21.6629 19.1328C22.1606 19.6215 22.6492 20.1207 23.1461 20.6101C23.2036 20.6623 23.2779 20.6921 23.3555 20.6939C23.635 20.6813 23.9139 20.7293 24.1731 20.8345C24.4324 20.9397 24.6658 21.0996 24.8576 21.3034C26.114 22.5726 27.3801 23.83 28.6428 25.0916C29.243 25.692 29.8496 26.2862 30.4408 26.8957C31.4556 27.9429 30.988 29.5941 29.5725 29.9404C29.2894 30.0184 28.9906 30.0199 28.7068 29.9447C28.4229 29.8695 28.164 29.7203 27.9566 29.5124C27.2035 28.7863 26.4699 28.04 25.7301 27.3006C24.6028 26.1745 23.4819 25.0434 22.349 23.9243C21.9121 23.4921 21.6552 23.0013 21.6915 22.3729C21.6854 22.2827 21.6461 22.1979 21.5813 22.1349C21.1017 21.6462 20.6132 21.163 20.1336 20.6729C20.0289 20.5661 19.9598 20.5696 19.8426 20.659C17.9413 22.1021 15.7943 22.8233 13.4107 22.6836C9.72114 22.4637 6.95782 20.6904 5.16191 17.4683C4.17008 15.6845 3.83505 13.7401 4.07376 11.712C4.32503 9.58534 5.18192 7.73403 6.64443 6.15804C7.83306 4.86013 9.35354 3.91163 11.0417 3.41495C12.6653 2.91861 14.3922 2.86654 16.0428 3.26414C19.0085 3.97557 21.1967 5.70074 22.6185 8.39217C23.2913 9.66632 23.627 11.0368 23.685 12.4757C23.6899 12.6014 23.6968 12.7292 23.7024 12.8569ZM13.8462 20.5221C18.0229 20.5319 21.4472 17.159 21.517 12.9938C21.545 11.4714 21.1193 9.97511 20.2942 8.69555C19.4691 7.416 18.2818 6.41108 16.8837 5.80882C15.4856 5.20656 13.9399 5.03422 12.4435 5.31374C10.9471 5.59326 9.56774 6.312 8.48116 7.37839C7.39458 8.44479 6.64993 9.81058 6.34208 11.3018C6.03424 12.793 6.17712 14.3421 6.75253 15.7518C7.32794 17.1614 8.30983 18.3679 9.57313 19.2174C10.8364 20.067 12.324 20.5212 13.8462 20.5221Z" fill="#3C7BA9"/>
<path d="M11.4936 13.6641C11.0225 13.6641 10.5506 13.6836 10.0809 13.6592C9.9437 13.6509 9.81096 13.6074 9.69543 13.533C9.57989 13.4585 9.48545 13.3556 9.42117 13.2342C9.35688 13.1127 9.32493 12.9767 9.32838 12.8393C9.33182 12.7019 9.37055 12.5677 9.44084 12.4496C9.61185 12.1578 9.88197 12.0343 10.2156 12.035C11.0764 12.035 11.9373 12.035 12.7981 12.035C13.0327 12.035 13.0348 12.035 13.0348 11.8061C13.0348 10.9336 13.0348 10.0611 13.0348 9.18933C13.0348 8.63094 13.4605 8.2652 13.9938 8.34616C14.1874 8.38039 14.3622 8.48301 14.4865 8.63533C14.6108 8.78766 14.6762 8.97955 14.6708 9.17607C14.6708 10.043 14.6708 10.9094 14.6708 11.7754C14.6708 12.0322 14.6708 12.0336 14.9312 12.0343C15.7862 12.0343 16.6405 12.0343 17.4956 12.0343C17.9842 12.0343 18.3331 12.3421 18.3687 12.7818C18.3793 12.8908 18.3675 13.0007 18.3341 13.105C18.3007 13.2092 18.2465 13.3055 18.1746 13.3881C18.1028 13.4707 18.0148 13.5377 17.9162 13.5852C17.8176 13.6326 17.7103 13.6595 17.601 13.6641C17.5374 13.6683 17.4732 13.6683 17.409 13.6683H14.8963C14.6701 13.6683 14.668 13.6683 14.668 13.9056C14.668 14.7662 14.6722 15.6268 14.668 16.4881C14.668 16.9027 14.4635 17.2133 14.132 17.3257C13.5806 17.5093 13.0424 17.1414 13.0355 16.5579C13.0257 15.6917 13.032 14.8248 13.0313 13.9586C13.0299 13.9354 13.0299 13.9121 13.0313 13.8888C13.0536 13.7234 12.9873 13.6627 12.817 13.6669C12.3752 13.6767 11.9326 13.6704 11.4908 13.6704L11.4936 13.6641Z" fill="#3C7BA9"/>
</svg>
