<svg width="34" height="34" viewBox="0 0 34 34" fill="none" xmlns="http://www.w3.org/2000/svg">
<path d="M22.6931 13.2747C22.6728 15.0911 22.0043 17.0821 20.6588 18.8439C20.5624 18.9697 20.5568 19.0444 20.6776 19.1618C21.1667 19.6403 21.648 20.1328 22.1377 20.6142C22.1999 20.6707 22.2807 20.7022 22.3647 20.7029C22.6302 20.6872 22.8959 20.7286 23.1439 20.8244C23.3919 20.9202 23.6165 21.0682 23.8025 21.2583C25.4567 22.9111 27.1101 24.5645 28.7625 26.2183C29.0622 26.518 29.3849 26.8044 29.6364 27.1418C30.0821 27.7412 30.1199 28.4056 29.7601 29.063C29.4003 29.7204 28.8198 30.025 28.0723 29.9984C27.624 29.9825 27.1996 29.7923 26.8895 29.4682C25.2381 27.8195 23.5878 26.1696 21.9386 24.5186C21.7206 24.3007 21.5041 24.0806 21.2833 23.8654C20.869 23.4609 20.6616 22.9768 20.6895 22.3928C20.6885 22.3084 20.6564 22.2273 20.5994 22.165C20.1062 21.6628 19.6039 21.1688 19.11 20.6673C19.0122 20.5674 18.9437 20.5855 18.8445 20.6624C17.6707 21.5804 16.2988 22.2119 14.8381 22.5067C12.9924 22.8972 11.0729 22.7406 9.31497 22.0561C7.29393 21.2764 5.70253 19.9603 4.53378 18.1439C3.63287 16.7615 3.11061 15.1668 3.01922 13.5192C2.85295 10.6284 3.76532 8.12466 5.76121 6.02748C7.07991 4.62944 8.79074 3.6631 10.6688 3.25545C12.6689 2.80485 14.6313 2.94248 16.5245 3.73119C19.3887 4.9237 21.2966 7.01879 22.253 9.96826C22.5617 10.8953 22.6931 11.8719 22.6931 13.2747ZM12.8205 20.5338C13.834 20.5395 14.8386 20.3443 15.7763 19.9595C16.714 19.5748 17.5662 19.0081 18.2836 18.2922C19.0011 17.5763 19.5696 16.7254 19.9564 15.7885C20.3432 14.8517 20.5406 13.8476 20.5372 12.834C20.5338 11.8205 20.3296 10.8177 19.9365 9.88347C19.5434 8.94927 18.9692 8.10219 18.2469 7.39114C17.5246 6.6801 16.6687 6.11917 15.7284 5.74075C14.7882 5.36233 13.7823 5.17391 12.7688 5.18637C8.53324 5.2199 5.12548 8.71288 5.1653 12.9743C5.20373 17.096 8.67296 20.5478 12.8205 20.5338Z" fill="#3C7BA9"/>
<path d="M12.8345 13.6767C11.6308 13.6767 10.4264 13.6767 9.22206 13.6767C8.91188 13.6767 8.6527 13.5887 8.46618 13.3274C8.38878 13.2167 8.34036 13.0884 8.32533 12.9542C8.3103 12.8199 8.32915 12.6841 8.38014 12.559C8.43114 12.434 8.51267 12.3237 8.61727 12.2382C8.72188 12.1528 8.84622 12.0949 8.97895 12.0699C9.13422 12.0484 9.29104 12.0403 9.44771 12.0455C11.7806 12.0455 14.1134 12.0455 16.4462 12.0455C16.7676 12.0455 17.0428 12.1328 17.2301 12.4122C17.3077 12.5288 17.354 12.6634 17.3645 12.803C17.375 12.9427 17.3493 13.0827 17.2899 13.2095C17.2305 13.3363 17.1394 13.4457 17.0254 13.527C16.9114 13.6084 16.7783 13.659 16.6391 13.6739C16.558 13.6816 16.4763 13.6823 16.3952 13.6823L12.8345 13.6767Z" fill="#3C7BA9"/>
</svg>
